<?xml version="1.0" encoding="UTF-8"?>
<svg width="247px" height="247px" viewBox="0 0 247 247" version="1.1" xmlns="http://www.w3.org/2000/svg" xmlns:xlink="http://www.w3.org/1999/xlink">
    <!-- Generator: Sketch 55.2 (78181) - https://sketchapp.com -->
    <title>early_phase_ico3</title>
    <desc>Created with Sketch.</desc>
    <g id="Page-1" stroke="none" stroke-width="1" fill="none" fill-rule="evenodd">
        <g id="3.aboutVM202" transform="translate(-744.000000, -5699.000000)">
            <g id="early_phase_ico3" transform="translate(745.000000, 5700.000000)">
                <circle id="bg" stroke="#979797" fill="#FFFFFF" cx="122.5" cy="122.5" r="122.5"></circle>
                <g id="ico" transform="translate(56.000000, 73.000000)" stroke-width="4">
                    <path d="M0,0 C22.2208333,0 22.2208333,100 44.4395833,100 C66.6625,100 66.6625,0 88.8875,0 C111.110417,0 111.110417,100 133.333333,100" id="Stroke-1" stroke="#222829"></path>
                    <path d="M0,12.5 C22.2208333,12.5 22.2208333,87.5 44.4395833,87.5 C66.6625,87.5 66.6625,12.5 88.8875,12.5 C111.110417,12.5 111.110417,87.5 133.333333,87.5" id="Stroke-3" stroke="#222829"></path>
                    <path d="M0,25 C22.2208333,25 22.2208333,75 44.4395833,75 C66.6625,75 66.6625,25 88.8875,25 C111.110417,25 111.110417,75 133.333333,75" id="Stroke-5" stroke="#222829"></path>
                    <path d="M0,37.5 C22.2208333,37.5 22.2208333,62.5 44.4395833,62.5 C66.6625,62.5 66.6625,37.5 88.8875,37.5 C111.110417,37.5 111.110417,62.5 133.333333,62.5" id="Stroke-7" stroke="#222829"></path>
                    <path d="M0,50 L4.16666667,50" id="Stroke-9" stroke="#B54142"></path>
                    <path d="M8.33333333,50 L12.5,50" id="Stroke-11" stroke="#B54142"></path>
                    <path d="M120.833333,50 L125,50" id="Stroke-13" stroke="#B54142"></path>
                    <path d="M129.166667,50 L133.333333,50" id="Stroke-15" stroke="#B54142"></path>
                    <path d="M33.3333333,50 L37.5,50" id="Stroke-17" stroke="#B54142"></path>
                    <path d="M41.6666667,50 L45.8333333,50" id="Stroke-19" stroke="#B54142"></path>
                    <path d="M50,50 L54.1666667,50" id="Stroke-21" stroke="#B54142"></path>
                    <path d="M79.1666667,50 L83.3333333,50" id="Stroke-23" stroke="#B54142"></path>
                    <path d="M87.5,50 L91.6666667,50" id="Stroke-25" stroke="#B54142"></path>
                    <path d="M95.8333333,50 L100,50" id="Stroke-27" stroke="#B54142"></path>
                </g>
            </g>
        </g>
    </g>
</svg>