<?xml version="1.0" encoding="utf-8"?>
<!-- Generator: Adobe Illustrator 23.0.1, SVG Export Plug-In . SVG Version: 6.00 Build 0)  -->
<svg version="1.1" id="Layer_1" xmlns="http://www.w3.org/2000/svg" xmlns:xlink="http://www.w3.org/1999/xlink" x="0px" y="0px"
	 viewBox="0 0 1002 285" style="enable-background:new 0 0 1002 285;" xml:space="preserve">
<style type="text/css">
	.st0{fill-rule:evenodd;clip-rule:evenodd;}
	.st1{enable-background:new    ;}
	.st2{fill:#FFFFFF;}
	.st3{font-family:'NotoSansKR-Medium-KSCpc-EUC-H';}
	.st4{font-size:18px;}
	.st5{fill:none;stroke:#979797;stroke-linecap:square;}
	.st6{fill:none;stroke:#000000;stroke-width:1.5;}
</style>
<title>표5</title>
<desc>Created with Sketch.</desc>
<g id="Page-1">
	<g transform="translate(-219.000000, -5091.000000)">
		<g id="표5" transform="translate(220.000000, 5085.000000)">
			<g id="head" transform="translate(0.000000, 47.000000)">
				<g>
					<path id="bg" class="st0" d="M8,0h104c4.4,0,8,3.6,8,8v34c0,4.4-3.6,8-8,8H8c-4.4,0-8-3.6-8-8V8C0,3.6,3.6,0,8,0z"/>
					<g class="st1">
						<path class="st2" d="M38,25.5c0-3.7,2.4-5.8,5.3-5.8c1.6,0,2.7,0.7,3.4,1.4l-1.2,1.4c-0.5-0.5-1.2-0.9-2.2-0.9
							c-1.8,0-3.1,1.4-3.1,3.8c0,2.4,1.1,3.9,3.3,3.9c0.5,0,1.1-0.2,1.4-0.4v-2.2h-2v-1.8h3.9v5c-0.7,0.7-2.1,1.3-3.6,1.3
							C40.2,31.2,38,29.2,38,25.5z"/>
						<path class="st2" d="M49.1,22.6h1.8l0.1,1.5h0.1c0.6-1.1,1.5-1.7,2.4-1.7c0.5,0,0.7,0.1,1,0.2l-0.4,1.9
							c-0.3-0.1-0.5-0.1-0.9-0.1c-0.7,0-1.5,0.4-1.9,1.7v5h-2.2V22.6z"/>
						<path class="st2" d="M54.9,26.8c0-2.8,1.9-4.4,4-4.4s4,1.6,4,4.4c0,2.8-1.9,4.4-4,4.4S54.9,29.6,54.9,26.8z M60.7,26.8
							c0-1.6-0.6-2.6-1.8-2.6s-1.8,1-1.8,2.6c0,1.6,0.6,2.6,1.8,2.6S60.7,28.4,60.7,26.8z"/>
						<path class="st2" d="M64.7,27.9v-5.2h2.2v5c0,1.3,0.4,1.8,1.2,1.8c0.7,0,1.1-0.3,1.7-1v-5.7H72V31h-1.8l-0.2-1.2H70
							c-0.7,0.9-1.5,1.4-2.7,1.4C65.5,31.2,64.7,30,64.7,27.9z"/>
						<path class="st2" d="M74.4,22.6h1.8l0.1,0.9h0.1c0.7-0.6,1.6-1.1,2.5-1.1c2.1,0,3.3,1.7,3.3,4.3c0,2.9-1.7,4.5-3.6,4.5
							c-0.7,0-1.4-0.3-2.1-0.9l0.1,1.4v2.5h-2.2V22.6z M79.9,26.7c0-1.6-0.5-2.5-1.7-2.5c-0.6,0-1.1,0.3-1.7,0.9v3.7
							c0.5,0.5,1.1,0.6,1.5,0.6C79.1,29.4,79.9,28.5,79.9,26.7z"/>
					</g>
				</g>
				<g transform="translate(130.000000, 0.000000)">
					<path class="st0" d="M8,0h104c4.4,0,8,3.6,8,8v34c0,4.4-3.6,8-8,8H8c-4.4,0-8-3.6-8-8V8C0,3.6,3.6,0,8,0z"/>
					<g class="st1">
						<path class="st2" d="M19,19.9h3.6c2.5,0,4.3,0.9,4.3,3.5c0,2.5-1.9,3.7-4.3,3.7h-1.5V31H19V19.9z M22.5,25.3
							c1.5,0,2.3-0.6,2.3-1.9c0-1.3-0.8-1.7-2.3-1.7h-1.3v3.6H22.5z"/>
						<path class="st2" d="M27.8,28.7c0-1.8,1.5-2.7,4.8-3.1c0-0.8-0.4-1.5-1.4-1.5c-0.8,0-1.5,0.3-2.3,0.8l-0.8-1.5
							c1-0.6,2.2-1.1,3.5-1.1c2.1,0,3.2,1.3,3.2,3.7V31H33l-0.2-0.9h0c-0.7,0.6-1.6,1.1-2.5,1.1C28.8,31.2,27.8,30.1,27.8,28.7z
							 M32.6,28.7V27c-2,0.3-2.7,0.8-2.7,1.6c0,0.7,0.5,0.9,1.1,0.9C31.6,29.5,32.1,29.2,32.6,28.7z"/>
						<path class="st2" d="M37.1,22.6h1.8l0.1,1.5h0.1c0.6-1.1,1.5-1.7,2.4-1.7c0.5,0,0.7,0.1,1,0.2l-0.4,1.9
							c-0.3-0.1-0.5-0.1-0.9-0.1c-0.7,0-1.5,0.4-1.9,1.7v5h-2.2V22.6z"/>
						<path class="st2" d="M42.7,28.7c0-1.8,1.5-2.7,4.8-3.1c0-0.8-0.4-1.5-1.4-1.5c-0.8,0-1.5,0.3-2.3,0.8L43,23.5
							c1-0.6,2.2-1.1,3.5-1.1c2.1,0,3.2,1.3,3.2,3.7V31h-1.8l-0.2-0.9h0c-0.7,0.6-1.6,1.1-2.5,1.1C43.7,31.2,42.7,30.1,42.7,28.7z
							 M47.5,28.7V27c-2,0.3-2.7,0.8-2.7,1.6c0,0.7,0.5,0.9,1.1,0.9C46.6,29.5,47,29.2,47.5,28.7z"/>
						<path class="st2" d="M52,22.6h1.8l0.1,1.1H54c0.7-0.7,1.5-1.3,2.6-1.3c1.2,0,1.9,0.5,2.3,1.5c0.8-0.8,1.6-1.5,2.7-1.5
							c1.8,0,2.6,1.3,2.6,3.4V31H62v-5c0-1.3-0.4-1.8-1.2-1.8c-0.5,0-1,0.3-1.6,0.9V31H57v-5c0-1.3-0.4-1.8-1.2-1.8
							c-0.5,0-1,0.3-1.6,0.9V31H52V22.6z"/>
						<path class="st2" d="M65.9,26.8c0-2.7,1.9-4.4,3.9-4.4c2.3,0,3.5,1.7,3.5,4c0,0.4,0,0.8-0.1,1h-5.2c0.2,1.4,1.1,2.1,2.3,2.1
							c0.7,0,1.3-0.2,1.9-0.6l0.8,1.4c-0.8,0.6-1.9,0.9-2.9,0.9C67.8,31.2,65.9,29.6,65.9,26.8z M71.5,26c0-1.1-0.5-1.9-1.6-1.9
							c-0.9,0-1.7,0.6-1.8,1.9H71.5z"/>
						<path class="st2" d="M75.3,28.1v-3.7h-1.2v-1.6l1.3-0.1l0.3-2.2h1.8v2.2h2.1v1.7h-2.1v3.7c0,1,0.4,1.4,1.1,1.4
							c0.3,0,0.6-0.1,0.8-0.2l0.4,1.6c-0.5,0.2-1,0.3-1.8,0.3C76.1,31.2,75.3,30,75.3,28.1z"/>
						<path class="st2" d="M80.5,26.8c0-2.7,1.9-4.4,3.9-4.4c2.3,0,3.5,1.7,3.5,4c0,0.4,0,0.8-0.1,1h-5.2c0.2,1.4,1.1,2.1,2.3,2.1
							c0.7,0,1.3-0.2,1.9-0.6l0.8,1.4c-0.8,0.6-1.9,0.9-2.9,0.9C82.3,31.2,80.5,29.6,80.5,26.8z M86,26c0-1.1-0.5-1.9-1.6-1.9
							c-0.9,0-1.7,0.6-1.8,1.9H86z"/>
						<path class="st2" d="M89.7,22.6h1.8l0.1,1.5h0.1c0.6-1.1,1.5-1.7,2.4-1.7c0.5,0,0.7,0.1,1,0.2l-0.4,1.9
							c-0.3-0.1-0.5-0.1-0.9-0.1c-0.7,0-1.5,0.4-1.9,1.7v5h-2.2V22.6z"/>
						<path class="st2" d="M95.3,30l1-1.4c0.8,0.6,1.5,0.9,2.2,0.9c0.8,0,1.2-0.4,1.2-0.9c0-0.6-0.9-0.9-1.8-1.3
							c-1.1-0.4-2.3-1-2.3-2.4c0-1.5,1.2-2.6,3.1-2.6c1.2,0,2.2,0.5,2.9,1l-1,1.3c-0.6-0.4-1.2-0.7-1.8-0.7c-0.8,0-1.1,0.3-1.1,0.8
							c0,0.6,0.8,0.8,1.7,1.2c1.1,0.4,2.3,1,2.3,2.5c0,1.5-1.2,2.7-3.3,2.7C97.4,31.2,96.2,30.7,95.3,30z"/>
					</g>
				</g>
				<g transform="translate(260.000000, 0.000000)">
					<path class="st0" d="M8,0h724c4.4,0,8,3.6,8,8v34c0,4.4-3.6,8-8,8H8c-4.4,0-8-3.6-8-8V8C0,3.6,3.6,0,8,0z"/>
					<g class="st1">
						<path class="st2" d="M297.6,29.6l1.3-1.5c0.8,0.7,1.8,1.2,2.8,1.2c1.2,0,1.8-0.5,1.8-1.3c0-0.8-0.7-1.1-1.7-1.5l-1.5-0.6
							c-1.1-0.5-2.2-1.4-2.2-3c0-1.8,1.6-3.2,3.8-3.2c1.3,0,2.6,0.5,3.5,1.4l-1.1,1.4c-0.7-0.6-1.4-0.9-2.4-0.9
							c-1,0-1.6,0.4-1.6,1.2c0,0.8,0.8,1.1,1.7,1.5l1.5,0.6c1.3,0.6,2.2,1.4,2.2,3c0,1.8-1.5,3.4-4.1,3.4
							C300.2,31.2,298.7,30.6,297.6,29.6z"/>
						<path class="st2" d="M307.1,28.7c0-1.8,1.5-2.7,4.8-3.1c0-0.8-0.4-1.5-1.4-1.5c-0.8,0-1.5,0.3-2.3,0.8l-0.8-1.5
							c1-0.6,2.2-1.1,3.5-1.1c2.1,0,3.2,1.3,3.2,3.7V31h-1.8l-0.2-0.9h0c-0.7,0.6-1.6,1.1-2.5,1.1C308.1,31.2,307.1,30.1,307.1,28.7
							z M312,28.7V27c-2,0.3-2.7,0.8-2.7,1.6c0,0.7,0.5,0.9,1.1,0.9C311,29.5,311.4,29.2,312,28.7z"/>
						<path class="st2" d="M320.9,20.7c-0.3-0.1-0.6-0.2-0.9-0.2c-0.7,0-1,0.4-1,1.3v0.7h1.6v1.7H319V31h-2.2v-6.7h-1.1v-1.6
							l1.1-0.1v-0.7c0-1.8,0.8-3.1,2.9-3.1c0.6,0,1.2,0.2,1.6,0.3L320.9,20.7z"/>
						<path class="st2" d="M321.3,26.8c0-2.7,1.9-4.4,3.9-4.4c2.3,0,3.5,1.7,3.5,4c0,0.4,0,0.8-0.1,1h-5.2c0.2,1.4,1.1,2.1,2.3,2.1
							c0.7,0,1.3-0.2,1.9-0.6l0.8,1.4c-0.8,0.6-1.9,0.9-2.9,0.9C323.1,31.2,321.3,29.6,321.3,26.8z M326.8,26c0-1.1-0.5-1.9-1.6-1.9
							c-0.9,0-1.7,0.6-1.8,1.9H326.8z"/>
						<path class="st2" d="M330.7,28.1v-3.7h-1.2v-1.6l1.3-0.1l0.3-2.2h1.8v2.2h2.1v1.7h-2.1v3.7c0,1,0.4,1.4,1.1,1.4
							c0.3,0,0.6-0.1,0.8-0.2l0.4,1.6c-0.5,0.2-1,0.3-1.8,0.3C331.4,31.2,330.7,30,330.7,28.1z"/>
						<path class="st2" d="M336.2,34.2l0.4-1.7c0.2,0,0.4,0.1,0.6,0.1c0.9,0,1.3-0.5,1.6-1.3l0.2-0.5l-3.3-8.2h2.2l1.3,3.9
							c0.3,0.8,0.5,1.6,0.7,2.4h0.1c0.2-0.8,0.4-1.6,0.6-2.4l1.2-3.9h2.1l-3,8.7c-0.7,2-1.6,3.1-3.5,3.1
							C336.9,34.4,336.6,34.3,336.2,34.2z"/>
						<path class="st2" d="M348.1,32.5c0-0.7,0.4-1.3,1.2-1.7v-0.1c-0.4-0.3-0.8-0.7-0.8-1.4c0-0.6,0.4-1.2,0.9-1.6v-0.1
							c-0.6-0.4-1.1-1.2-1.1-2.2c0-2,1.6-3,3.4-3c0.5,0,0.9,0.1,1.3,0.2h3v1.6h-1.4c0.2,0.3,0.4,0.8,0.4,1.3c0,1.9-1.4,2.8-3.2,2.8
							c-0.3,0-0.7-0.1-1.1-0.2c-0.2,0.2-0.4,0.4-0.4,0.7c0,0.5,0.3,0.7,1.3,0.7h1.4c2,0,3.1,0.6,3.1,2.1c0,1.7-1.8,3-4.6,3
							C349.6,34.6,348.1,34,348.1,32.5z M354.1,32c0-0.6-0.5-0.8-1.4-0.8h-1c-0.5,0-0.9,0-1.2-0.1c-0.4,0.3-0.6,0.6-0.6,1
							c0,0.7,0.8,1.1,2,1.1C353.2,33.2,354.1,32.7,354.1,32z M353.1,25.4c0-1-0.6-1.5-1.3-1.5s-1.3,0.6-1.3,1.5c0,1,0.6,1.5,1.3,1.5
							C352.5,27,353.1,26.4,353.1,25.4z"/>
						<path class="st2" d="M357.6,22.6h1.8l0.2,1.5h0.1c0.6-1.1,1.5-1.7,2.4-1.7c0.5,0,0.7,0.1,1,0.2l-0.4,1.9
							c-0.3-0.1-0.5-0.1-0.9-0.1c-0.7,0-1.5,0.4-1.9,1.7v5h-2.2V22.6z"/>
						<path class="st2" d="M363.4,26.8c0-2.8,1.9-4.4,4-4.4c2.1,0,4,1.6,4,4.4c0,2.8-1.9,4.4-4,4.4
							C365.4,31.2,363.4,29.6,363.4,26.8z M369.3,26.8c0-1.6-0.6-2.6-1.8-2.6c-1.1,0-1.8,1-1.8,2.6c0,1.6,0.6,2.6,1.8,2.6
							C368.6,29.4,369.3,28.4,369.3,26.8z"/>
						<path class="st2" d="M373.3,27.9v-5.2h2.2v5c0,1.3,0.4,1.8,1.2,1.8c0.7,0,1.1-0.3,1.7-1v-5.7h2.2V31h-1.8l-0.2-1.2h-0.1
							c-0.7,0.9-1.5,1.4-2.7,1.4C374.1,31.2,373.3,30,373.3,27.9z"/>
						<path class="st2" d="M382.9,22.6h1.8l0.2,0.9h0.1c0.7-0.6,1.6-1.1,2.5-1.1c2.1,0,3.3,1.7,3.3,4.3c0,2.9-1.7,4.5-3.6,4.5
							c-0.7,0-1.4-0.3-2.1-0.9l0.1,1.4v2.5h-2.2V22.6z M388.4,26.7c0-1.6-0.5-2.5-1.7-2.5c-0.6,0-1.1,0.3-1.7,0.9v3.7
							c0.5,0.5,1.1,0.6,1.5,0.6C387.7,29.4,388.4,28.5,388.4,26.7z"/>
						<path class="st2" d="M396.1,26.3c0-3,0.8-5.4,2.2-7.8l1.4,0.6c-1.3,2.2-1.8,4.7-1.8,7.2c0,2.5,0.6,5,1.8,7.2l-1.4,0.6
							C396.9,31.7,396.1,29.3,396.1,26.3z"/>
						<path class="st2" d="M401.7,22.6h1.8l0.2,1.1h0.1c0.7-0.7,1.6-1.3,2.7-1.3c1.8,0,2.6,1.3,2.6,3.4V31h-2.2v-5
							c0-1.3-0.4-1.8-1.2-1.8c-0.7,0-1.1,0.3-1.8,0.9V31h-2.2V22.6z"/>
						<path class="st2" d="M410.7,22.7h7.7v1.6h-7.7V22.7z M410.7,26.5h7.7v1.6h-7.7V26.5z"/>
						<path class="st2" d="M419.3,29.7l1-1.4c0.6,0.6,1.4,1.1,2.4,1.1c1.2,0,2-0.7,2-2c0-1.3-0.8-2-1.9-2c-0.7,0-1,0.2-1.7,0.6
							l-1-0.7l0.3-5.4h5.9v1.8h-4l-0.2,2.4c0.4-0.2,0.8-0.3,1.3-0.3c1.9,0,3.4,1.1,3.4,3.5c0,2.5-1.8,3.9-3.9,3.9
							C421.3,31.2,420.1,30.5,419.3,29.7z"/>
						<path class="st2" d="M428.4,29.7c3-2.7,4.8-4.8,4.8-6.5c0-1.1-0.6-1.8-1.7-1.8c-0.8,0-1.5,0.5-2,1.1l-1.2-1.2
							c1-1.1,2-1.7,3.5-1.7c2.1,0,3.5,1.3,3.5,3.4c0,2-1.7,4.2-3.7,6.1c0.6-0.1,1.3-0.1,1.8-0.1h2.4V31h-7.4V29.7z"/>
						<path class="st2" d="M437.4,33.4c1.3-2.2,1.8-4.7,1.8-7.2c0-2.4-0.6-5-1.8-7.2l1.4-0.6c1.4,2.3,2.2,4.8,2.2,7.8
							c0,3-0.8,5.4-2.2,7.8L437.4,33.4z"/>
					</g>
				</g>
			</g>
			<g class="st1">
				<path d="M244,19.3l1.2-1.4c1,1,2.3,1.6,3.5,1.6c1.6,0,2.5-0.8,2.5-1.9c0-1.2-0.9-1.6-2.1-2.1l-1.8-0.8c-1.3-0.5-2.7-1.5-2.7-3.5
					c0-2.1,1.8-3.7,4.4-3.7c1.5,0,3,0.6,4,1.7l-1.1,1.3c-0.8-0.7-1.7-1.2-2.9-1.2c-1.4,0-2.2,0.6-2.2,1.7c0,1.1,1.1,1.6,2.1,2
					l1.8,0.8c1.6,0.7,2.7,1.6,2.7,3.6c0,2.1-1.8,3.9-4.7,3.9C246.9,21.2,245.2,20.5,244,19.3z"/>
				<path d="M255,16.1c0-3.2,2.2-5.2,4.5-5.2c2.6,0,4,1.9,4,4.7c0,0.4,0,0.8-0.1,1H257c0.2,1.9,1.4,3,3.1,3c0.9,0,1.6-0.3,2.4-0.7
					l0.7,1.3c-0.9,0.6-2.1,1-3.3,1C257.1,21.2,255,19.3,255,16.1z M261.8,15.2c0-1.7-0.8-2.7-2.2-2.7c-1.2,0-2.3,1-2.5,2.7H261.8z"
					/>
				<path d="M265.9,11.1h1.7l0.2,1.8h0.1c0.7-1.3,1.7-2,2.8-2c0.5,0,0.8,0.1,1.1,0.2l-0.4,1.8c-0.3-0.1-0.6-0.2-1-0.2
					c-0.8,0-1.8,0.6-2.4,2.1V21h-2.1V11.1z"/>
				<path d="M273.1,17.3v-6.2h2.1v6c0,1.7,0.5,2.4,1.7,2.4c0.9,0,1.5-0.4,2.4-1.5v-6.9h2.1V21h-1.7l-0.2-1.5h-0.1
					c-0.9,1-1.9,1.7-3.2,1.7C274,21.2,273.1,19.8,273.1,17.3z"/>
				<path d="M284.4,11.1h1.7l0.2,1.4h0.1c0.8-0.9,1.8-1.6,3.1-1.6c1.5,0,2.3,0.7,2.7,1.8c1-1,2-1.8,3.2-1.8c2.1,0,3,1.4,3,3.9V21
					h-2.1v-6c0-1.7-0.5-2.4-1.7-2.4c-0.7,0-1.4,0.5-2.2,1.3v7h-2.1v-6c0-1.7-0.5-2.4-1.7-2.4c-0.7,0-1.4,0.5-2.2,1.3v7h-2.1V11.1z"
					/>
				<path d="M305.6,7.7h2.1v5.4h5.7V7.7h2.1V21h-2.1v-6h-5.7v6h-2.1V7.7z"/>
				<path d="M318.2,14.4c0-4.3,2.7-6.9,6.2-6.9c1.9,0,3.1,0.8,3.9,1.7l-1.1,1.3c-0.6-0.7-1.5-1.2-2.7-1.2c-2.5,0-4.1,1.9-4.1,5
					c0,3.2,1.5,5.1,4.2,5.1c0.8,0,1.6-0.2,2.1-0.6v-3.1H324v-1.7h4.5v5.7c-0.9,0.9-2.4,1.5-4.2,1.5
					C320.7,21.2,318.2,18.7,318.2,14.4z"/>
				<path d="M331.5,7.7h7.9v1.7h-5.8v4.1h4.9v1.7h-4.9V21h-2.1V7.7z"/>
				<path d="M345.6,11.1h1.7l0.2,1.1h0.1c0.9-0.7,1.9-1.3,3-1.3c2.5,0,3.9,2,3.9,5c0,3.4-2,5.3-4.3,5.3c-0.9,0-1.8-0.4-2.6-1.1
					l0.1,1.7V25h-2.1V11.1z M352.3,15.9c0-2.1-0.7-3.3-2.3-3.3c-0.8,0-1.5,0.4-2.4,1.2v4.8c0.8,0.7,1.5,0.9,2.2,0.9
					C351.2,19.5,352.3,18.2,352.3,15.9z"/>
				<path d="M356.9,11.1h1.7l0.2,1.8h0.1c0.7-1.3,1.7-2,2.8-2c0.5,0,0.8,0.1,1.1,0.2l-0.4,1.8c-0.3-0.1-0.6-0.2-1-0.2
					c-0.8,0-1.8,0.6-2.4,2.1V21h-2.1V11.1z"/>
				<path d="M363.4,16.1c0-3.3,2.2-5.2,4.7-5.2s4.7,1.9,4.7,5.2c0,3.3-2.2,5.2-4.7,5.2S363.4,19.3,363.4,16.1z M370.6,16.1
					c0-2.1-1-3.5-2.5-3.5c-1.5,0-2.5,1.4-2.5,3.5c0,2.1,1,3.5,2.5,3.5C369.6,19.5,370.6,18.2,370.6,16.1z"/>
				<path d="M375,17.8v-5h-1.4v-1.5l1.5-0.1l0.2-2.7h1.7v2.7h2.6v1.7h-2.6v5c0,1.2,0.4,1.8,1.4,1.8c0.3,0,0.8-0.1,1.1-0.2l0.4,1.5
					c-0.6,0.2-1.2,0.4-1.9,0.4C375.8,21.2,375,19.8,375,17.8z"/>
				<path d="M380.8,16.1c0-3.2,2.2-5.2,4.5-5.2c2.6,0,4,1.9,4,4.7c0,0.4,0,0.8-0.1,1h-6.4c0.2,1.9,1.4,3,3.1,3
					c0.9,0,1.6-0.3,2.4-0.7l0.7,1.3c-0.9,0.6-2.1,1-3.3,1C383,21.2,380.8,19.3,380.8,16.1z M387.6,15.2c0-1.7-0.8-2.7-2.2-2.7
					c-1.2,0-2.3,1-2.5,2.7H387.6z"/>
				<path d="M391.4,8c0-0.7,0.6-1.2,1.3-1.2S394,7.3,394,8c0,0.7-0.6,1.2-1.3,1.2S391.4,8.7,391.4,8z M391.7,11.1h2.1V21h-2.1V11.1z
					"/>
				<path d="M396.9,11.1h1.7l0.2,1.4h0.1c0.9-0.9,1.9-1.6,3.3-1.6c2.1,0,3,1.4,3,3.9V21H403v-6c0-1.7-0.5-2.4-1.7-2.4
					c-0.9,0-1.5,0.5-2.4,1.3v7h-2.1V11.1z"/>
				<path d="M411.6,18.4c0-2.1,1.8-3.2,5.9-3.7c0-1.2-0.4-2.2-1.9-2.2c-1,0-2,0.5-2.9,1l-0.8-1.4c1-0.6,2.4-1.3,4-1.3
					c2.5,0,3.6,1.6,3.6,4.2v6h-1.7l-0.2-1.1h-0.1c-0.9,0.8-2,1.4-3.2,1.4C412.8,21.2,411.6,20.1,411.6,18.4z M417.5,18.4V16
					c-2.9,0.4-3.9,1.1-3.9,2.2c0,1,0.7,1.4,1.5,1.4C416,19.6,416.7,19.2,417.5,18.4z"/>
				<path d="M422.5,11.1h1.7l0.2,1.4h0.1c0.9-0.9,1.9-1.6,3.3-1.6c2.1,0,3,1.4,3,3.9V21h-2.1v-6c0-1.7-0.5-2.4-1.7-2.4
					c-0.9,0-1.5,0.5-2.4,1.3v7h-2.1V11.1z"/>
				<path d="M433.1,16.1c0-3.2,2-5.2,4.2-5.2c1.1,0,1.9,0.4,2.7,1.1l-0.1-1.6V6.6h2.1V21h-1.7l-0.2-1.1H440
					c-0.7,0.8-1.8,1.4-2.9,1.4C434.7,21.2,433.1,19.3,433.1,16.1z M439.9,18.3v-4.8c-0.7-0.7-1.4-0.9-2.2-0.9
					c-1.4,0-2.5,1.3-2.5,3.5c0,2.3,0.9,3.5,2.4,3.5C438.5,19.5,439.2,19.1,439.9,18.3z"/>
				<path d="M448.5,18.4c0-2.1,1.8-3.2,5.9-3.7c0-1.2-0.4-2.2-1.9-2.2c-1,0-2,0.5-2.9,1l-0.8-1.4c1-0.6,2.4-1.3,4-1.3
					c2.5,0,3.6,1.6,3.6,4.2v6h-1.7l-0.2-1.1h-0.1c-0.9,0.8-2,1.4-3.2,1.4C449.7,21.2,448.5,20.1,448.5,18.4z M454.5,18.4V16
					c-2.9,0.4-3.9,1.1-3.9,2.2c0,1,0.7,1.4,1.5,1.4C452.9,19.6,453.6,19.2,454.5,18.4z"/>
				<path d="M459.5,11.1h1.7l0.2,1.4h0.1c0.9-0.9,1.9-1.6,3.3-1.6c2.1,0,3,1.4,3,3.9V21h-2.1v-6c0-1.7-0.5-2.4-1.7-2.4
					c-0.9,0-1.5,0.5-2.4,1.3v7h-2.1V11.1z"/>
				<path d="M471,17.8v-5h-1.4v-1.5l1.5-0.1l0.2-2.7h1.7v2.7h2.6v1.7h-2.6v5c0,1.2,0.4,1.8,1.4,1.8c0.3,0,0.8-0.1,1.1-0.2l0.4,1.5
					c-0.6,0.2-1.2,0.4-1.9,0.4C471.8,21.2,471,19.8,471,17.8z"/>
				<path d="M477.5,8c0-0.7,0.6-1.2,1.3-1.2s1.3,0.5,1.3,1.2c0,0.7-0.6,1.2-1.3,1.2S477.5,8.7,477.5,8z M477.8,11.1h2.1V21h-2.1
					V11.1z"/>
				<path d="M482.3,15.1h4.8v1.5h-4.8V15.1z"/>
				<path d="M489.4,6.6h2.1v3.8l-0.1,2c0.9-0.8,1.9-1.6,3.2-1.6c2.1,0,3,1.4,3,3.9V21h-2.1v-6c0-1.7-0.5-2.4-1.7-2.4
					c-0.9,0-1.5,0.5-2.4,1.3v7h-2.1V6.6z"/>
				<path d="M500.5,17.3v-6.2h2.1v6c0,1.7,0.5,2.4,1.7,2.4c0.9,0,1.5-0.4,2.4-1.5v-6.9h2.1V21h-1.7l-0.2-1.5h-0.1
					c-0.9,1-1.9,1.7-3.2,1.7C501.4,21.2,500.5,19.8,500.5,17.3z"/>
				<path d="M511.7,11.1h1.7l0.2,1.4h0.1c0.8-0.9,1.8-1.6,3.1-1.6c1.5,0,2.3,0.7,2.7,1.8c1-1,2-1.8,3.2-1.8c2.1,0,3,1.4,3,3.9V21
					h-2.1v-6c0-1.7-0.5-2.4-1.7-2.4c-0.7,0-1.4,0.5-2.2,1.3v7h-2.1v-6c0-1.7-0.5-2.4-1.7-2.4c-0.7,0-1.4,0.5-2.2,1.3v7h-2.1V11.1z"
					/>
				<path d="M528.1,18.4c0-2.1,1.8-3.2,5.9-3.7c0-1.2-0.4-2.2-1.9-2.2c-1,0-2,0.5-2.9,1l-0.8-1.4c1-0.6,2.4-1.3,4-1.3
					c2.5,0,3.6,1.6,3.6,4.2v6h-1.7l-0.2-1.1h-0.1c-0.9,0.8-2,1.4-3.2,1.4C529.3,21.2,528.1,20.1,528.1,18.4z M534,18.4V16
					c-2.9,0.4-3.9,1.1-3.9,2.2c0,1,0.7,1.4,1.5,1.4C532.5,19.6,533.2,19.2,534,18.4z"/>
				<path d="M539.1,11.1h1.7l0.2,1.4h0.1c0.9-0.9,1.9-1.6,3.3-1.6c2.1,0,3,1.4,3,3.9V21h-2.1v-6c0-1.7-0.5-2.4-1.7-2.4
					c-0.9,0-1.5,0.5-2.4,1.3v7h-2.1V11.1z"/>
				<path d="M554.5,7.7h2.1v5.4h5.7V7.7h2.1V21h-2.1v-6h-5.7v6h-2.1V7.7z"/>
				<path d="M567.1,14.4c0-4.3,2.7-6.9,6.2-6.9c1.9,0,3.1,0.8,3.9,1.7l-1.1,1.3c-0.6-0.7-1.5-1.2-2.7-1.2c-2.5,0-4.1,1.9-4.1,5
					c0,3.2,1.5,5.1,4.2,5.1c0.8,0,1.6-0.2,2.1-0.6v-3.1h-2.6v-1.7h4.5v5.7c-0.9,0.9-2.4,1.5-4.2,1.5
					C569.7,21.2,567.1,18.7,567.1,14.4z"/>
				<path d="M580.5,7.7h7.8v1.7h-5.8v4.1h4.9v1.7h-4.9V21h-2.1V7.7z"/>
				<path d="M593.9,18.4c0-2.1,1.8-3.2,5.9-3.7c0-1.2-0.4-2.2-1.9-2.2c-1,0-2,0.5-2.9,1l-0.8-1.4c1-0.6,2.4-1.3,4-1.3
					c2.5,0,3.6,1.6,3.6,4.2v6h-1.7l-0.2-1.1H600c-0.9,0.8-2,1.4-3.2,1.4C595.1,21.2,593.9,20.1,593.9,18.4z M599.9,18.4V16
					c-2.9,0.4-3.9,1.1-3.9,2.2c0,1,0.7,1.4,1.5,1.4C598.3,19.6,599,19.2,599.9,18.4z"/>
				<path d="M604.9,11.1h1.7l0.2,1.4h0.1c0.9-0.9,1.9-1.6,3.3-1.6c2.1,0,3,1.4,3,3.9V21H611v-6c0-1.7-0.5-2.4-1.7-2.4
					c-0.9,0-1.5,0.5-2.4,1.3v7h-2.1V11.1z"/>
				<path d="M616.4,17.8v-5H615v-1.5l1.5-0.1l0.2-2.7h1.7v2.7h2.6v1.7h-2.6v5c0,1.2,0.4,1.8,1.4,1.8c0.3,0,0.8-0.1,1.1-0.2l0.4,1.5
					c-0.6,0.2-1.2,0.4-1.9,0.4C617.2,21.2,616.4,19.8,616.4,17.8z"/>
				<path d="M622.9,8c0-0.7,0.6-1.2,1.3-1.2c0.8,0,1.3,0.5,1.3,1.2c0,0.7-0.6,1.2-1.3,1.2C623.5,9.2,622.9,8.7,622.9,8z M623.2,11.1
					h2.1V21h-2.1V11.1z"/>
				<path d="M630.3,20L630.3,20l-0.3,1h-1.6V6.6h2.1v3.8l-0.1,1.7c0.8-0.7,1.9-1.3,3-1.3c2.5,0,3.9,2,3.9,5c0,3.4-2,5.3-4.3,5.3
					C632.1,21.2,631.1,20.8,630.3,20z M635.1,15.9c0-2.1-0.7-3.3-2.3-3.3c-0.8,0-1.5,0.4-2.4,1.2v4.8c0.8,0.7,1.5,0.9,2.2,0.9
					C634,19.5,635.1,18.2,635.1,15.9z"/>
				<path d="M639,16.1c0-3.3,2.2-5.2,4.7-5.2c2.4,0,4.7,1.9,4.7,5.2c0,3.3-2.2,5.2-4.7,5.2C641.2,21.2,639,19.3,639,16.1z
					 M646.2,16.1c0-2.1-1-3.5-2.5-3.5c-1.5,0-2.5,1.4-2.5,3.5c0,2.1,1,3.5,2.5,3.5C645.2,19.5,646.2,18.2,646.2,16.1z"/>
				<path d="M650.1,16.1c0-3.2,2-5.2,4.2-5.2c1.1,0,1.9,0.4,2.7,1.1l-0.1-1.6V6.6h2.1V21h-1.7l-0.2-1.1h-0.1
					c-0.7,0.8-1.8,1.4-2.9,1.4C651.7,21.2,650.1,19.3,650.1,16.1z M656.9,18.3v-4.8c-0.7-0.7-1.4-0.9-2.2-0.9
					c-1.4,0-2.5,1.3-2.5,3.5c0,2.3,0.9,3.5,2.4,3.5C655.5,19.5,656.2,19.1,656.9,18.3z"/>
				<path d="M666.5,21.6c-0.8,2.1-1.8,3.5-3.9,3.5c-0.5,0-0.9-0.1-1.2-0.2l0.4-1.6c0.2,0.1,0.5,0.1,0.7,0.1c1.1,0,1.7-0.8,2.1-1.9
					l0.2-0.7l-3.9-9.8h2.1l1.8,5.1c0.3,0.9,0.6,1.9,0.9,2.8h0.1l0.8-2.8l1.6-5.1h2L666.5,21.6z"/>
				<path d="M675.7,8c0-0.7,0.6-1.2,1.3-1.2c0.8,0,1.3,0.5,1.3,1.2c0,0.7-0.6,1.2-1.3,1.2C676.2,9.2,675.7,8.7,675.7,8z M675.9,11.1
					h2.1V21h-2.1V11.1z"/>
				<path d="M681.1,11.1h1.7l0.2,1.4h0.1c0.9-0.9,1.9-1.6,3.3-1.6c2.1,0,3,1.4,3,3.9V21h-2.1v-6c0-1.7-0.5-2.4-1.7-2.4
					c-0.9,0-1.5,0.5-2.4,1.3v7h-2.1V11.1z"/>
				<path d="M696.4,11.1h1.7l0.2,1.1h0.1c0.9-0.7,1.9-1.3,3-1.3c2.5,0,3.9,2,3.9,5c0,3.4-2,5.3-4.3,5.3c-0.9,0-1.8-0.4-2.6-1.1
					l0.1,1.7V25h-2.1V11.1z M703.1,15.9c0-2.1-0.7-3.3-2.3-3.3c-0.8,0-1.5,0.4-2.4,1.2v4.8c0.8,0.7,1.5,0.9,2.2,0.9
					C702,19.5,703.1,18.2,703.1,15.9z"/>
				<path d="M707.7,18.7v-12h2.1v12.1c0,0.6,0.3,0.8,0.5,0.8c0.1,0,0.2,0,0.3,0l0.3,1.6c-0.3,0.1-0.6,0.2-1.1,0.2
					C708.3,21.2,707.7,20.3,707.7,18.7z"/>
				<path d="M712.5,18.4c0-2.1,1.8-3.2,5.9-3.7c0-1.2-0.4-2.2-1.9-2.2c-1,0-2,0.5-2.9,1l-0.8-1.4c1-0.6,2.4-1.3,4-1.3
					c2.5,0,3.6,1.6,3.6,4.2v6h-1.7l-0.2-1.1h-0.1c-0.9,0.8-2,1.4-3.2,1.4C713.7,21.2,712.5,20.1,712.5,18.4z M718.4,18.4V16
					c-2.9,0.4-3.9,1.1-3.9,2.2c0,1,0.7,1.4,1.5,1.4C716.9,19.6,717.6,19.2,718.4,18.4z"/>
				<path d="M722.4,19.9l1-1.3c0.9,0.7,1.7,1.1,2.8,1.1c1.2,0,1.7-0.6,1.7-1.3c0-0.9-1.1-1.3-2.2-1.7c-1.3-0.5-2.8-1.2-2.8-2.9
					c0-1.7,1.3-2.9,3.5-2.9c1.3,0,2.4,0.5,3.2,1.2l-1,1.3c-0.7-0.5-1.4-0.9-2.2-0.9c-1.1,0-1.6,0.5-1.6,1.2c0,0.8,1,1.2,2.1,1.6
					c1.4,0.5,2.9,1.1,2.9,3c0,1.7-1.3,3-3.8,3C724.8,21.2,723.4,20.7,722.4,19.9z"/>
				<path d="M732.1,11.1h1.7l0.2,1.4h0.1c0.8-0.9,1.8-1.6,3.1-1.6c1.5,0,2.3,0.7,2.7,1.8c1-1,2-1.8,3.2-1.8c2.1,0,3,1.4,3,3.9V21
					H744v-6c0-1.7-0.5-2.4-1.7-2.4c-0.7,0-1.4,0.5-2.2,1.3v7H738v-6c0-1.7-0.5-2.4-1.7-2.4c-0.7,0-1.4,0.5-2.2,1.3v7h-2.1V11.1z"/>
				<path d="M748.5,18.4c0-2.1,1.8-3.2,5.9-3.7c0-1.2-0.4-2.2-1.9-2.2c-1,0-2,0.5-2.9,1l-0.8-1.4c1-0.6,2.4-1.3,4-1.3
					c2.5,0,3.6,1.6,3.6,4.2v6h-1.7l-0.2-1.1h-0.1c-0.9,0.8-2,1.4-3.2,1.4C749.7,21.2,748.5,20.1,748.5,18.4z M754.4,18.4V16
					c-2.9,0.4-3.9,1.1-3.9,2.2c0,1,0.7,1.4,1.5,1.4C752.9,19.6,753.6,19.2,754.4,18.4z"/>
			</g>
			<g id="cell1" transform="translate(0.000000, 107.000000)">
				<g id="inside1" transform="translate(23.000000, 65.000000)">
					<g class="st1">
						<path d="M8.2,17.6H3.9L3,21H0.3L4.5,7.7h3.1L12,21H9.2L8.2,17.6z M7.7,15.5L7.3,14c-0.4-1.4-0.8-2.9-1.2-4.4H6
							c-0.3,1.5-0.7,3-1.1,4.4l-0.4,1.5H7.7z"/>
						<path d="M13.3,18.2V6.6h2.6v11.7c0,0.6,0.3,0.8,0.5,0.8c0.1,0,0.2,0,0.4,0l0.3,2c-0.3,0.1-0.8,0.2-1.4,0.2
							C14,21.3,13.3,20,13.3,18.2z"/>
						<path d="M19,18.2V6.6h2.6v11.7c0,0.6,0.3,0.8,0.5,0.8c0.1,0,0.2,0,0.4,0l0.3,2c-0.3,0.1-0.8,0.2-1.4,0.2
							C19.6,21.3,19,20,19,18.2z"/>
						<path d="M28.8,15.3c0-3.6,1-6.5,2.7-9.3l1.7,0.7c-1.5,2.6-2.2,5.7-2.2,8.6c0,3,0.7,6,2.2,8.6l-1.7,0.7
							C29.8,21.8,28.8,18.9,28.8,15.3z"/>
						<path d="M35.5,10.9h2.2l0.2,1.3h0.1c0.9-0.9,1.9-1.6,3.3-1.6c2.2,0,3.1,1.5,3.1,4.1V21h-2.6v-6c0-1.5-0.4-2.1-1.4-2.1
							c-0.8,0-1.4,0.4-2.1,1.1V21h-2.6V10.9z"/>
						<path d="M46.3,11h9.2v1.9h-9.2V11z M46.3,15.7h9.2v1.9h-9.2V15.7z"/>
						<path d="M58.6,18.2c0.5,0.5,1.3,0.9,2.1,0.9c1.5,0,2.7-1.1,2.8-4.5c-0.7,0.9-1.8,1.5-2.7,1.5c-2.2,0-3.8-1.4-3.8-4.2
							c0-2.7,1.9-4.4,4.2-4.4c2.5,0,4.8,2,4.8,6.6c0,5-2.5,7.2-5.1,7.2c-1.7,0-2.9-0.7-3.7-1.5L58.6,18.2z M63.5,12.8
							c-0.2-2.4-1.2-3.3-2.3-3.3c-1,0-1.8,0.8-1.8,2.4c0,1.6,0.7,2.3,1.9,2.3C62,14.2,62.8,13.8,63.5,12.8z"/>
						<path d="M67.8,23.9c1.5-2.6,2.2-5.7,2.2-8.6c0-2.9-0.7-6-2.2-8.6L69.4,6c1.7,2.8,2.7,5.7,2.7,9.3c0,3.6-1,6.5-2.7,9.3
							L67.8,23.9z"/>
					</g>
					<g class="st1">
						<path d="M110.2,7.7h2.1v5.4h5.7V7.7h2.1V21H118v-6h-5.7v6h-2.1V7.7z"/>
						<path d="M122.8,14.4c0-4.3,2.7-6.9,6.2-6.9c1.9,0,3.1,0.8,3.9,1.7l-1.1,1.3c-0.6-0.7-1.5-1.2-2.7-1.2c-2.5,0-4.1,1.9-4.1,5
							c0,3.2,1.5,5.1,4.2,5.1c0.8,0,1.6-0.2,2.1-0.6v-3.1h-2.6v-1.7h4.5v5.7c-0.9,0.9-2.4,1.5-4.2,1.5
							C125.4,21.2,122.8,18.7,122.8,14.4z"/>
						<path d="M136.2,7.7h7.9v1.7h-5.8v4.1h4.9v1.7h-4.9V21h-2.1V7.7z"/>
						<path d="M150.2,15.4c0-3.5,1-6.5,2.7-9.2l1.3,0.6c-1.5,2.6-2.3,5.6-2.3,8.6c0,3,0.7,6.1,2.3,8.6l-1.3,0.6
							C151.2,21.8,150.2,18.9,150.2,15.4z"/>
						<path d="M156.6,11.1h1.7l0.2,1.4h0.1c0.9-0.9,1.9-1.6,3.3-1.6c2.1,0,3,1.4,3,3.9V21h-2.1v-6c0-1.7-0.5-2.4-1.7-2.4
							c-0.9,0-1.5,0.5-2.4,1.3v7h-2.1V11.1z"/>
						<path d="M167.1,22.8c0-0.8,0.5-1.6,1.4-2.2v-0.1c-0.5-0.3-0.9-0.8-0.9-1.6c0-0.8,0.6-1.4,1.1-1.8V17c-0.7-0.5-1.3-1.5-1.3-2.6
							c0-2.3,1.8-3.6,3.8-3.6c0.6,0,1.1,0.1,1.4,0.3h3.5v1.5h-1.9c0.4,0.4,0.6,1.1,0.6,1.8c0,2.2-1.6,3.4-3.7,3.4
							c-0.5,0-1-0.1-1.4-0.3c-0.3,0.3-0.5,0.6-0.5,1c0,0.6,0.4,1,1.7,1h1.8c2.3,0,3.6,0.7,3.6,2.4c0,1.9-2,3.5-5.2,3.5
							C168.8,25.4,167.1,24.6,167.1,22.8z M174.4,22.3c0-0.8-0.6-1.1-1.9-1.1h-1.5c-0.5,0-0.9-0.1-1.3-0.1c-0.6,0.4-0.8,0.9-0.8,1.4
							c0,1,1,1.5,2.6,1.5C173.3,24.1,174.4,23.2,174.4,22.3z M173.2,14.4c0-1.3-0.8-2.1-1.9-2.1c-1,0-1.9,0.8-1.9,2.1
							c0,1.3,0.8,2.1,1.9,2.1S173.2,15.7,173.2,14.4z"/>
						<path d="M182.3,11.1h1.7l0.2,1.4h0.1c0.8-0.9,1.8-1.6,3.1-1.6c1.5,0,2.3,0.7,2.7,1.8c1-1,2-1.8,3.2-1.8c2.1,0,3,1.4,3,3.9V21
							h-2.1v-6c0-1.7-0.5-2.4-1.7-2.4c-0.7,0-1.4,0.5-2.2,1.3v7h-2.1v-6c0-1.7-0.5-2.4-1.7-2.4c-0.7,0-1.4,0.5-2.2,1.3v7h-2.1V11.1z
							"/>
						<path d="M199.2,18.7v-12h2.1v12.1c0,0.6,0.3,0.8,0.5,0.8c0.1,0,0.2,0,0.3,0l0.3,1.6c-0.3,0.1-0.6,0.2-1.1,0.2
							C199.8,21.2,199.2,20.3,199.2,18.7z"/>
					</g>
					<g class="st1">
						<path d="M207.7,16.8h3.4v1.1h-3.4V16.8z"/>
						<path d="M212.8,19.8h2.1v-6.7h-1.7v-0.9c0.9-0.2,1.5-0.4,2.1-0.7h1.1v8.3h1.9V21h-5.5V19.8z"/>
					</g>
					<text transform="matrix(1 0 0 1 219.1413 21)" class="st3 st4"> </text>
					<g class="st1">
						<path d="M220,24c1.5-2.6,2.3-5.6,2.3-8.6c0-3-0.7-6-2.3-8.6l1.3-0.6c1.7,2.7,2.7,5.7,2.7,9.2c0,3.6-1,6.5-2.7,9.2L220,24z"/>
					</g>
					<g class="st1">
						<path d="M251.6,19.6h2.9V9.8h-2.3v-1c1.2-0.2,2-0.5,2.7-0.9h1.3v11.8h2.6V21h-7.2V19.6z"/>
						<path d="M261.3,20c0-0.7,0.5-1.3,1.2-1.3c0.6,0,1.2,0.5,1.2,1.3c0,0.7-0.5,1.2-1.2,1.2C261.9,21.2,261.3,20.7,261.3,20z"/>
						<path d="M265.5,19.4l0.8-1.1c0.8,0.8,1.8,1.5,3.3,1.5c1.6,0,2.7-0.9,2.7-2.4c0-1.6-1.1-2.6-4.1-2.6v-1.3
							c2.7,0,3.7-1.1,3.7-2.5c0-1.3-0.9-2.1-2.2-2.1c-1.1,0-2,0.6-2.7,1.3l-0.9-1c1-0.9,2.2-1.6,3.7-1.6c2.2,0,3.8,1.2,3.8,3.3
							c0,1.6-1,2.7-2.4,3.2v0.1c1.6,0.4,2.8,1.5,2.8,3.3c0,2.4-1.9,3.8-4.2,3.8C267.7,21.2,266.4,20.4,265.5,19.4z"/>
						<path d="M290.5,12.7h-5.9v5h-1.2v-5h-5.9v-1.2h5.9V6.5h1.2v4.9h5.9V12.7z M290.6,19.4v1.2h-13.1v-1.2H290.6z"/>
						<path d="M293.9,14.4c0-4.6,1.6-6.8,4.1-6.8c2.5,0,4.1,2.2,4.1,6.8c0,4.6-1.6,6.9-4.1,6.9C295.5,21.2,293.9,18.9,293.9,14.4z
							 M300.5,14.4c0-3.9-1-5.5-2.5-5.5c-1.5,0-2.5,1.6-2.5,5.5c0,3.9,1,5.6,2.5,5.6C299.5,19.9,300.5,18.2,300.5,14.4z"/>
						<path d="M304.3,20c0-0.7,0.5-1.3,1.2-1.3c0.6,0,1.2,0.5,1.2,1.3c0,0.7-0.5,1.2-1.2,1.2C304.8,21.2,304.3,20.7,304.3,20z"/>
						<path d="M316.1,9.9c-0.5-0.6-1.3-1-2.1-1c-1.8,0-3.3,1.4-3.4,5.5c0.8-1,2-1.6,3-1.6c2.2,0,3.7,1.4,3.7,4.1
							c0,2.6-1.7,4.3-3.8,4.3c-2.5,0-4.4-2.2-4.4-6.5c0-5.2,2.3-7.1,4.9-7.1c1.4,0,2.4,0.6,3.1,1.4L316.1,9.9z M315.6,16.9
							c0-1.8-0.8-2.9-2.4-2.9c-0.8,0-1.8,0.5-2.7,1.7c0.2,2.7,1.2,4.2,2.8,4.2C314.7,20,315.6,18.7,315.6,16.9z"/>
					</g>
					<g class="st1">
						<path d="M358.6,19.6h2.9V9.8h-2.3v-1c1.2-0.2,2-0.5,2.7-0.9h1.3v11.8h2.6V21h-7.2V19.6z"/>
						<path d="M368.3,20c0-0.7,0.5-1.3,1.2-1.3c0.6,0,1.2,0.5,1.2,1.3c0,0.7-0.5,1.2-1.2,1.2C368.9,21.2,368.3,20.7,368.3,20z"/>
						<path d="M372.8,20c4.1-3.6,6-6.2,6-8.5c0-1.5-0.8-2.6-2.4-2.6c-1.1,0-2,0.7-2.7,1.5l-1-0.9c1.1-1.2,2.2-1.9,3.9-1.9
							c2.4,0,3.8,1.5,3.8,3.9c0,2.6-2.1,5.3-5.2,8.2c0.7-0.1,1.5-0.1,2.2-0.1h3.7V21h-8.3V20z"/>
						<path d="M397.5,12.7h-5.9v5h-1.2v-5h-5.9v-1.2h5.9V6.5h1.2v4.9h5.9V12.7z M397.6,19.4v1.2h-13.1v-1.2H397.6z"/>
						<path d="M400.9,14.4c0-4.6,1.6-6.8,4.1-6.8c2.5,0,4.1,2.2,4.1,6.8c0,4.6-1.6,6.9-4.1,6.9C402.5,21.2,400.9,18.9,400.9,14.4z
							 M407.5,14.4c0-3.9-1-5.5-2.5-5.5c-1.5,0-2.5,1.6-2.5,5.5c0,3.9,1,5.6,2.5,5.6C406.5,19.9,407.5,18.2,407.5,14.4z"/>
						<path d="M411.3,20c0-0.7,0.5-1.3,1.2-1.3c0.6,0,1.2,0.5,1.2,1.3c0,0.7-0.5,1.2-1.2,1.2C411.8,21.2,411.3,20.7,411.3,20z"/>
						<path d="M415.5,19.5l0.8-1.1c0.8,0.8,1.7,1.5,3.2,1.5c1.5,0,2.8-1.2,2.8-3.1c0-1.9-1.1-3-2.7-3c-0.9,0-1.4,0.3-2.2,0.8
							l-0.9-0.5l0.4-6.2h6.4v1.4h-5l-0.3,3.8c0.6-0.3,1.2-0.5,2-0.5c2.2,0,4,1.3,4,4.2c0,2.9-2.1,4.5-4.3,4.5
							C417.6,21.2,416.4,20.4,415.5,19.5z"/>
					</g>
					<g class="st1">
						<path d="M465.6,19.6h2.9V9.8h-2.3v-1c1.2-0.2,2-0.5,2.7-0.9h1.3v11.8h2.6V21h-7.2V19.6z"/>
						<path d="M475.3,20c0-0.7,0.5-1.3,1.2-1.3c0.6,0,1.2,0.5,1.2,1.3c0,0.7-0.5,1.2-1.2,1.2C475.9,21.2,475.3,20.7,475.3,20z"/>
						<path d="M479.8,20c4.1-3.6,6-6.2,6-8.5c0-1.5-0.8-2.6-2.4-2.6c-1.1,0-2,0.7-2.7,1.5l-1-0.9c1.1-1.2,2.2-1.9,3.9-1.9
							c2.4,0,3.8,1.5,3.8,3.9c0,2.6-2.1,5.3-5.2,8.2c0.7-0.1,1.5-0.1,2.2-0.1h3.7V21h-8.3V20z"/>
						<path d="M504.5,12.7h-5.9v5h-1.2v-5h-5.9v-1.2h5.9V6.5h1.2v4.9h5.9V12.7z M504.6,19.4v1.2h-13.1v-1.2H504.6z"/>
						<path d="M507.9,14.4c0-4.6,1.6-6.8,4.1-6.8c2.5,0,4.1,2.2,4.1,6.8c0,4.6-1.6,6.9-4.1,6.9C509.5,21.2,507.9,18.9,507.9,14.4z
							 M514.5,14.4c0-3.9-1-5.5-2.5-5.5c-1.5,0-2.5,1.6-2.5,5.5c0,3.9,1,5.6,2.5,5.6C513.5,19.9,514.5,18.2,514.5,14.4z"/>
						<path d="M518.3,20c0-0.7,0.5-1.3,1.2-1.3s1.2,0.5,1.2,1.3c0,0.7-0.5,1.2-1.2,1.2S518.3,20.7,518.3,20z"/>
						<path d="M531.4,17.4h-1.7V21h-1.6v-3.6h-5.7v-1.1l5.5-8.5h1.8V16h1.7V17.4z M528.1,16V12c0-0.6,0.1-1.7,0.1-2.4h-0.1
							c-0.3,0.6-0.7,1.3-1.1,1.9l-3,4.5H528.1z"/>
					</g>
					<g class="st1">
						<path d="M572.6,19.6h2.9V9.8h-2.3v-1c1.2-0.2,2-0.5,2.7-0.9h1.3v11.8h2.6V21h-7.2V19.6z"/>
						<path d="M582.3,20c0-0.7,0.5-1.3,1.2-1.3c0.6,0,1.2,0.5,1.2,1.3c0,0.7-0.5,1.2-1.2,1.2C582.9,21.2,582.3,20.7,582.3,20z"/>
						<path d="M587.6,19.6h2.9V9.8h-2.3v-1c1.2-0.2,2-0.5,2.7-0.9h1.3v11.8h2.6V21h-7.2V19.6z"/>
						<path d="M611.5,12.7h-5.9v5h-1.2v-5h-5.9v-1.2h5.9V6.5h1.2v4.9h5.9V12.7z M611.6,19.4v1.2h-13.1v-1.2H611.6z"/>
						<path d="M614.9,14.4c0-4.6,1.6-6.8,4.1-6.8c2.5,0,4.1,2.2,4.1,6.8c0,4.6-1.6,6.9-4.1,6.9C616.5,21.2,614.9,18.9,614.9,14.4z
							 M621.5,14.4c0-3.9-1-5.5-2.5-5.5c-1.5,0-2.5,1.6-2.5,5.5c0,3.9,1,5.6,2.5,5.6C620.5,19.9,621.5,18.2,621.5,14.4z"/>
						<path d="M625.3,20c0-0.7,0.5-1.3,1.2-1.3s1.2,0.5,1.2,1.3c0,0.7-0.5,1.2-1.2,1.2S625.3,20.7,625.3,20z"/>
						<path d="M629.5,19.4l0.8-1.1c0.8,0.8,1.8,1.5,3.3,1.5c1.6,0,2.7-0.9,2.7-2.4c0-1.6-1.1-2.6-4.1-2.6v-1.3
							c2.7,0,3.7-1.1,3.7-2.5c0-1.3-0.9-2.1-2.2-2.1c-1.1,0-2,0.6-2.7,1.3l-0.9-1c1-0.9,2.2-1.6,3.7-1.6c2.2,0,3.8,1.2,3.8,3.3
							c0,1.6-1,2.7-2.4,3.2v0.1c1.6,0.4,2.8,1.5,2.8,3.3c0,2.4-1.9,3.8-4.2,3.8C631.7,21.2,630.4,20.4,629.5,19.4z"/>
					</g>
					<g class="st1">
						<path d="M678.9,14.4c0-4.6,1.6-6.8,4.1-6.8c2.5,0,4.1,2.2,4.1,6.8c0,4.6-1.6,6.9-4.1,6.9C680.5,21.2,678.9,18.9,678.9,14.4z
							 M685.5,14.4c0-3.9-1-5.5-2.5-5.5c-1.5,0-2.5,1.6-2.5,5.5c0,3.9,1,5.6,2.5,5.6C684.5,19.9,685.5,18.2,685.5,14.4z"/>
						<path d="M689.3,20c0-0.7,0.5-1.3,1.2-1.3c0.6,0,1.2,0.5,1.2,1.3c0,0.7-0.5,1.2-1.2,1.2C689.9,21.2,689.3,20.7,689.3,20z"/>
						<path d="M695,18.9c0.6,0.6,1.4,1,2.2,1c1.7,0,3.2-1.4,3.3-5.5c-0.8,1-1.9,1.6-3,1.6c-2.2,0-3.6-1.4-3.6-4.2
							c0-2.6,1.7-4.3,3.8-4.3c2.5,0,4.4,2.1,4.4,6.3c0,5.3-2.3,7.4-4.8,7.4c-1.4,0-2.4-0.6-3.2-1.4L695,18.9z M700.5,13
							c-0.2-2.7-1.2-4.2-2.9-4.2c-1.3,0-2.2,1.2-2.2,3c0,1.8,0.8,2.9,2.4,2.9C698.6,14.8,699.6,14.3,700.5,13z"/>
						<path d="M718.5,12.7h-5.9v5h-1.2v-5h-5.9v-1.2h5.9V6.5h1.2v4.9h5.9V12.7z M718.6,19.4v1.2h-13.1v-1.2H718.6z"/>
						<path d="M721.9,14.4c0-4.6,1.6-6.8,4.1-6.8c2.5,0,4.1,2.2,4.1,6.8c0,4.6-1.6,6.9-4.1,6.9C723.5,21.2,721.9,18.9,721.9,14.4z
							 M728.5,14.4c0-3.9-1-5.5-2.5-5.5c-1.5,0-2.5,1.6-2.5,5.5c0,3.9,1,5.6,2.5,5.6C727.5,19.9,728.5,18.2,728.5,14.4z"/>
						<path d="M732.3,20c0-0.7,0.5-1.3,1.2-1.3s1.2,0.5,1.2,1.3c0,0.7-0.5,1.2-1.2,1.2S732.3,20.7,732.3,20z"/>
						<path d="M736.5,19.4l0.8-1.1c0.8,0.8,1.8,1.5,3.3,1.5c1.6,0,2.7-0.9,2.7-2.4c0-1.6-1.1-2.6-4.1-2.6v-1.3
							c2.7,0,3.7-1.1,3.7-2.5c0-1.3-0.9-2.1-2.2-2.1c-1.1,0-2,0.6-2.7,1.3l-0.9-1c1-0.9,2.2-1.6,3.7-1.6c2.2,0,3.8,1.2,3.8,3.3
							c0,1.6-1,2.7-2.4,3.2v0.1c1.6,0.4,2.8,1.5,2.8,3.3c0,2.4-1.9,3.8-4.2,3.8C738.7,21.2,737.4,20.4,736.5,19.4z"/>
					</g>
					<g class="st1">
						<path d="M786.6,19.6h2.9V9.8h-2.3v-1c1.2-0.2,2-0.5,2.7-0.9h1.3v11.8h2.6V21h-7.2V19.6z"/>
						<path d="M796.3,20c0-0.7,0.5-1.3,1.2-1.3c0.6,0,1.2,0.5,1.2,1.3c0,0.7-0.5,1.2-1.2,1.2C796.9,21.2,796.3,20.7,796.3,20z"/>
						<path d="M800.9,14.4c0-4.6,1.6-6.8,4.1-6.8c2.5,0,4.1,2.2,4.1,6.8c0,4.6-1.6,6.9-4.1,6.9C802.5,21.2,800.9,18.9,800.9,14.4z
							 M807.5,14.4c0-3.9-1-5.5-2.5-5.5c-1.5,0-2.5,1.6-2.5,5.5c0,3.9,1,5.6,2.5,5.6C806.5,19.9,807.5,18.2,807.5,14.4z"/>
						<path d="M825.5,12.7h-5.9v5h-1.2v-5h-5.9v-1.2h5.9V6.5h1.2v4.9h5.9V12.7z M825.6,19.4v1.2h-13.1v-1.2H825.6z"/>
						<path d="M828.9,14.4c0-4.6,1.6-6.8,4.1-6.8c2.5,0,4.1,2.2,4.1,6.8c0,4.6-1.6,6.9-4.1,6.9C830.5,21.2,828.9,18.9,828.9,14.4z
							 M835.5,14.4c0-3.9-1-5.5-2.5-5.5c-1.5,0-2.5,1.6-2.5,5.5c0,3.9,1,5.6,2.5,5.6C834.5,19.9,835.5,18.2,835.5,14.4z"/>
						<path d="M839.3,20c0-0.7,0.5-1.3,1.2-1.3s1.2,0.5,1.2,1.3c0,0.7-0.5,1.2-1.2,1.2S839.3,20.7,839.3,20z"/>
						<path d="M843.5,19.4l0.8-1.1c0.8,0.8,1.8,1.5,3.3,1.5c1.6,0,2.7-0.9,2.7-2.4c0-1.6-1.1-2.6-4.1-2.6v-1.3
							c2.7,0,3.7-1.1,3.7-2.5c0-1.3-0.9-2.1-2.2-2.1c-1.1,0-2,0.6-2.7,1.3l-0.9-1c1-0.9,2.2-1.6,3.7-1.6c2.2,0,3.8,1.2,3.8,3.3
							c0,1.6-1,2.7-2.4,3.2v0.1c1.6,0.4,2.8,1.5,2.8,3.3c0,2.4-1.9,3.8-4.2,3.8C845.7,21.2,844.4,20.4,843.5,19.4z"/>
					</g>
					<g class="st1">
						<path d="M892.9,14.4c0-4.6,1.6-6.8,4.1-6.8c2.5,0,4.1,2.2,4.1,6.8c0,4.6-1.6,6.9-4.1,6.9C894.5,21.2,892.9,18.9,892.9,14.4z
							 M899.5,14.4c0-3.9-1-5.5-2.5-5.5c-1.5,0-2.5,1.6-2.5,5.5c0,3.9,1,5.6,2.5,5.6C898.5,19.9,899.5,18.2,899.5,14.4z"/>
						<path d="M903.3,20c0-0.7,0.5-1.3,1.2-1.3c0.6,0,1.2,0.5,1.2,1.3c0,0.7-0.5,1.2-1.2,1.2C903.9,21.2,903.3,20.7,903.3,20z"/>
						<path d="M907.8,17.7c0-1.8,1.2-3,2.4-3.6V14c-1-0.7-1.8-1.7-1.8-3c0-2,1.5-3.3,3.6-3.3c2.3,0,3.6,1.4,3.6,3.5
							c0,1.4-1,2.6-1.8,3.2v0.1c1.2,0.7,2.2,1.7,2.2,3.5c0,1.9-1.7,3.4-4.1,3.4C909.6,21.2,907.8,19.8,907.8,17.7z M914.6,17.8
							c0-1.8-1.6-2.4-3.5-3.2c-1.1,0.7-1.8,1.7-1.8,3c0,1.4,1.2,2.4,2.8,2.4C913.6,20,914.6,19.1,914.6,17.8z M914.3,11.2
							c0-1.3-0.8-2.4-2.3-2.4c-1.2,0-2.1,0.9-2.1,2.1c0,1.6,1.4,2.3,3,2.9C913.8,13,914.3,12.1,914.3,11.2z"/>
						<path d="M932.5,12.7h-5.9v5h-1.2v-5h-5.9v-1.2h5.9V6.5h1.2v4.9h5.9V12.7z M932.6,19.4v1.2h-13.1v-1.2H932.6z"/>
						<path d="M935.9,14.4c0-4.6,1.6-6.8,4.1-6.8c2.5,0,4.1,2.2,4.1,6.8c0,4.6-1.6,6.9-4.1,6.9C937.5,21.2,935.9,18.9,935.9,14.4z
							 M942.5,14.4c0-3.9-1-5.5-2.5-5.5c-1.5,0-2.5,1.6-2.5,5.5c0,3.9,1,5.6,2.5,5.6C941.5,19.9,942.5,18.2,942.5,14.4z"/>
						<path d="M946.3,20c0-0.7,0.5-1.3,1.2-1.3s1.2,0.5,1.2,1.3c0,0.7-0.5,1.2-1.2,1.2S946.3,20.7,946.3,20z"/>
						<path d="M950.5,19.4l0.8-1.1c0.8,0.8,1.8,1.5,3.3,1.5c1.6,0,2.7-0.9,2.7-2.4c0-1.6-1.1-2.6-4.1-2.6v-1.3
							c2.7,0,3.7-1.1,3.7-2.5c0-1.3-0.9-2.1-2.2-2.1c-1.1,0-2,0.6-2.7,1.3l-0.9-1c1-0.9,2.2-1.6,3.7-1.6c2.2,0,3.8,1.2,3.8,3.3
							c0,1.6-1,2.7-2.4,3.2v0.1c1.6,0.4,2.8,1.5,2.8,3.3c0,2.4-1.9,3.8-4.2,3.8C952.7,21.2,951.4,20.4,950.5,19.4z"/>
					</g>
					<path id="divider" class="st5" d="M107,48h870"/>
				</g>
				<g id="inside2" transform="translate(0.000000, 135.000000)">
					<g class="st1">
						<path d="M143.4,17.2h-4.6l-1.1,3.8h-2.1l4.4-13.3h2.4l4.4,13.3h-2.2L143.4,17.2z M142.9,15.6l-0.5-1.8
							c-0.4-1.4-0.8-2.9-1.3-4.4H141c-0.4,1.5-0.8,3-1.2,4.4l-0.5,1.8H142.9z"/>
						<path d="M148.3,11.1h1.7l0.2,1.4h0.1c0.9-0.9,1.9-1.6,3.3-1.6c2.1,0,3,1.4,3,3.9V21h-2.1v-6c0-1.7-0.5-2.4-1.7-2.4
							c-0.9,0-1.5,0.5-2.4,1.3v7h-2.1V11.1z"/>
						<path d="M159.8,17.8v-5h-1.4v-1.5l1.5-0.1l0.2-2.7h1.7v2.7h2.6v1.7h-2.6v5c0,1.2,0.4,1.8,1.4,1.8c0.3,0,0.8-0.1,1.1-0.2
							l0.4,1.5c-0.6,0.2-1.2,0.4-1.9,0.4C160.6,21.2,159.8,19.8,159.8,17.8z"/>
						<path d="M166.3,8c0-0.7,0.6-1.2,1.3-1.2S169,7.3,169,8c0,0.7-0.6,1.2-1.3,1.2S166.3,8.7,166.3,8z M166.6,11.1h2.1V21h-2.1
							V11.1z"/>
						<path d="M171.1,15.1h4.8v1.5h-4.8V15.1z"/>
						<path d="M178.4,7.7h2.1v5.4h5.7V7.7h2.1V21h-2.1v-6h-5.7v6h-2.1V7.7z"/>
						<path d="M191,14.4c0-4.3,2.7-6.9,6.2-6.9c1.9,0,3.1,0.8,3.9,1.7l-1.1,1.3c-0.6-0.7-1.5-1.2-2.7-1.2c-2.5,0-4.1,1.9-4.1,5
							c0,3.2,1.5,5.1,4.2,5.1c0.8,0,1.6-0.2,2.1-0.6v-3.1h-2.6v-1.7h4.5v5.7c-0.9,0.9-2.4,1.5-4.2,1.5C193.6,21.2,191,18.7,191,14.4
							z"/>
						<path d="M204.3,7.7h7.9v1.7h-5.8v4.1h4.9v1.7h-4.9V21h-2.1V7.7z"/>
						<path d="M224.7,17.2h-4.6l-1.1,3.8h-2.1l4.4-13.3h2.4L228,21h-2.2L224.7,17.2z M224.2,15.6l-0.5-1.8c-0.5-1.4-0.8-2.9-1.3-4.4
							h-0.1c-0.4,1.5-0.8,3-1.2,4.4l-0.5,1.8H224.2z"/>
						<path d="M231.5,20L231.5,20l-0.3,1h-1.6V6.6h2.1v3.8l-0.1,1.7c0.8-0.7,1.9-1.3,3-1.3c2.5,0,3.9,2,3.9,5c0,3.4-2,5.3-4.3,5.3
							C233.3,21.2,232.3,20.8,231.5,20z M236.3,15.9c0-2.1-0.7-3.3-2.3-3.3c-0.8,0-1.5,0.4-2.4,1.2v4.8c0.8,0.7,1.5,0.9,2.2,0.9
							C235.2,19.5,236.3,18.2,236.3,15.9z"/>
						<path d="M240.4,19.8c0-0.8,0.6-1.5,1.4-1.5c0.8,0,1.4,0.6,1.4,1.5c0,0.8-0.6,1.4-1.4,1.4C241,21.2,240.4,20.6,240.4,19.8z"/>
					</g>
					<g class="st1">
						<path d="M272.1,7.8h1.7l4.8,8.3l1.4,2.7h0.1c-0.1-1.3-0.2-2.8-0.2-4.2V7.8h1.6V21h-1.7l-4.8-8.3l-1.4-2.7h-0.1
							c0.1,1.3,0.2,2.7,0.2,4.1V21h-1.6V7.8z"/>
						<path d="M284.2,16.1c0-3.2,2.1-5.1,4.4-5.1c2.5,0,3.9,1.8,3.9,4.6c0,0.4,0,0.7-0.1,0.9h-6.6c0.1,2.1,1.4,3.4,3.2,3.4
							c1,0,1.7-0.3,2.4-0.8l0.6,1.1c-0.9,0.6-1.9,1-3.2,1C286.3,21.2,284.2,19.3,284.2,16.1z M291,15.3c0-2-0.9-3-2.4-3
							c-1.4,0-2.6,1.1-2.8,3H291z"/>
						<path d="M293.9,22.9c0-0.8,0.5-1.6,1.5-2.2v-0.1c-0.5-0.3-0.9-0.8-0.9-1.6c0-0.8,0.6-1.5,1.1-1.8v-0.1
							c-0.6-0.5-1.3-1.5-1.3-2.6c0-2.1,1.7-3.5,3.7-3.5c0.5,0,1,0.1,1.4,0.3h3.4v1.3h-2c0.5,0.5,0.8,1.2,0.8,2
							c0,2.1-1.6,3.4-3.6,3.4c-0.5,0-1-0.1-1.5-0.3c-0.4,0.3-0.6,0.6-0.6,1.2c0,0.6,0.4,1.1,1.7,1.1h1.9c2.3,0,3.4,0.7,3.4,2.3
							c0,1.8-1.9,3.4-4.9,3.4C295.6,25.5,293.9,24.6,293.9,22.9z M301.3,22.4c0-0.9-0.7-1.2-2-1.2h-1.7c-0.4,0-0.8-0.1-1.3-0.2
							c-0.7,0.5-1,1.1-1,1.7c0,1,1.1,1.7,2.8,1.7C300.1,24.4,301.3,23.4,301.3,22.4z M300.1,14.5c0-1.4-0.9-2.3-2.1-2.3
							s-2.1,0.8-2.1,2.3c0,1.4,1,2.3,2.1,2.3C299.1,16.8,300.1,15.9,300.1,14.5z"/>
						<path d="M303.9,18.5c0-2.1,1.9-3.2,6-3.7c0-1.3-0.4-2.5-2-2.5c-1.1,0-2.2,0.5-2.9,1l-0.6-1.1c0.9-0.6,2.3-1.3,3.9-1.3
							c2.4,0,3.4,1.6,3.4,4v6h-1.4l-0.1-1.2H310c-0.9,0.8-2,1.4-3.2,1.4C305.1,21.2,303.9,20.2,303.9,18.5z M309.9,18.6v-2.7
							c-3.3,0.4-4.4,1.2-4.4,2.5c0,1.1,0.8,1.6,1.7,1.6C308.2,19.9,308.9,19.5,309.9,18.6z"/>
						<path d="M314.7,18v-5.4h-1.5v-1.2l1.5-0.1l0.2-2.7h1.4v2.7h2.6v1.3h-2.6V18c0,1.2,0.4,1.9,1.5,1.9c0.3,0,0.8-0.1,1.1-0.3
							l0.3,1.2c-0.6,0.2-1.2,0.4-1.8,0.4C315.4,21.2,314.7,19.9,314.7,18z"/>
						<path d="M320.9,8.1c0-0.7,0.5-1.1,1.1-1.1c0.6,0,1.1,0.4,1.1,1.1c0,0.6-0.5,1.1-1.1,1.1C321.3,9.2,320.9,8.8,320.9,8.1z
							 M321.2,11.2h1.6V21h-1.6V11.2z"/>
						<path d="M324.7,11.2h1.7l1.8,5.6c0.3,1,0.6,2,0.9,2.9h0.1c0.3-0.9,0.6-1.9,0.9-2.9l1.9-5.6h1.6l-3.5,9.8h-1.9L324.7,11.2z"/>
						<path d="M334.7,16.1c0-3.2,2.1-5.1,4.4-5.1c2.5,0,3.9,1.8,3.9,4.6c0,0.4,0,0.7-0.1,0.9h-6.6c0.1,2.1,1.4,3.4,3.2,3.4
							c1,0,1.7-0.3,2.4-0.8l0.6,1.1c-0.9,0.6-1.9,1-3.2,1C336.8,21.2,334.7,19.3,334.7,16.1z M341.5,15.3c0-2-0.9-3-2.4-3
							c-1.4,0-2.6,1.1-2.8,3H341.5z"/>
					</g>
					<g class="st1">
						<path d="M411.7,15.3h4.6v1.3h-4.6V15.3z"/>
					</g>
					<g class="st1">
						<path d="M486.1,7.8h1.7l4.8,8.3l1.4,2.7h0.1c-0.1-1.3-0.2-2.8-0.2-4.2V7.8h1.6V21h-1.7l-4.8-8.3l-1.4-2.7h-0.1
							c0.1,1.3,0.2,2.7,0.2,4.1V21h-1.6V7.8z"/>
						<path d="M498.2,16.1c0-3.2,2.1-5.1,4.4-5.1c2.5,0,3.9,1.8,3.9,4.6c0,0.4,0,0.7-0.1,0.9h-6.6c0.1,2.1,1.4,3.4,3.2,3.4
							c1,0,1.7-0.3,2.4-0.8l0.6,1.1c-0.9,0.6-1.9,1-3.2,1C500.3,21.2,498.2,19.3,498.2,16.1z M505,15.3c0-2-0.9-3-2.4-3
							c-1.4,0-2.6,1.1-2.8,3H505z"/>
						<path d="M507.9,22.9c0-0.8,0.5-1.6,1.5-2.2v-0.1c-0.5-0.3-0.9-0.8-0.9-1.6c0-0.8,0.6-1.5,1.1-1.8v-0.1
							c-0.6-0.5-1.3-1.5-1.3-2.6c0-2.1,1.7-3.5,3.7-3.5c0.5,0,1,0.1,1.4,0.3h3.4v1.3h-2c0.5,0.5,0.8,1.2,0.8,2
							c0,2.1-1.6,3.4-3.6,3.4c-0.5,0-1-0.1-1.5-0.3c-0.4,0.3-0.6,0.6-0.6,1.2c0,0.6,0.4,1.1,1.7,1.1h1.9c2.3,0,3.4,0.7,3.4,2.3
							c0,1.8-1.9,3.4-4.9,3.4C509.6,25.5,507.9,24.6,507.9,22.9z M515.3,22.4c0-0.9-0.7-1.2-2-1.2h-1.7c-0.4,0-0.8-0.1-1.3-0.2
							c-0.7,0.5-1,1.1-1,1.7c0,1,1.1,1.7,2.8,1.7C514.1,24.4,515.3,23.4,515.3,22.4z M514.1,14.5c0-1.4-0.9-2.3-2.1-2.3
							s-2.1,0.8-2.1,2.3c0,1.4,1,2.3,2.1,2.3C513.1,16.8,514.1,15.9,514.1,14.5z"/>
						<path d="M517.9,18.5c0-2.1,1.9-3.2,6-3.7c0-1.3-0.4-2.5-2-2.5c-1.1,0-2.2,0.5-2.9,1l-0.6-1.1c0.9-0.6,2.3-1.3,3.9-1.3
							c2.4,0,3.4,1.6,3.4,4v6h-1.4l-0.1-1.2H524c-0.9,0.8-2,1.4-3.2,1.4C519.1,21.2,517.9,20.2,517.9,18.5z M523.9,18.6v-2.7
							c-3.3,0.4-4.4,1.2-4.4,2.5c0,1.1,0.8,1.6,1.7,1.6C522.2,19.9,522.9,19.5,523.9,18.6z"/>
						<path d="M528.7,18v-5.4h-1.5v-1.2l1.5-0.1l0.2-2.7h1.4v2.7h2.6v1.3h-2.6V18c0,1.2,0.4,1.9,1.5,1.9c0.3,0,0.8-0.1,1.1-0.3
							l0.3,1.2c-0.6,0.2-1.2,0.4-1.8,0.4C529.4,21.2,528.7,19.9,528.7,18z"/>
						<path d="M534.9,8.1c0-0.7,0.5-1.1,1.1-1.1s1.1,0.4,1.1,1.1c0,0.6-0.5,1.1-1.1,1.1S534.9,8.8,534.9,8.1z M535.2,11.2h1.6V21
							h-1.6V11.2z"/>
						<path d="M538.7,11.2h1.7l1.8,5.6c0.3,1,0.6,2,0.9,2.9h0.1c0.3-0.9,0.6-1.9,0.9-2.9l1.9-5.6h1.6l-3.5,9.8h-1.9L538.7,11.2z"/>
						<path d="M548.7,16.1c0-3.2,2.1-5.1,4.4-5.1c2.5,0,3.9,1.8,3.9,4.6c0,0.4,0,0.7-0.1,0.9h-6.6c0.1,2.1,1.4,3.4,3.2,3.4
							c1,0,1.7-0.3,2.4-0.8l0.6,1.1c-0.9,0.6-1.9,1-3.2,1C550.8,21.2,548.7,19.3,548.7,16.1z M555.5,15.3c0-2-0.9-3-2.4-3
							c-1.4,0-2.6,1.1-2.8,3H555.5z"/>
					</g>
					<g class="st1">
						<path d="M593.1,7.8h1.7l4.8,8.3l1.4,2.7h0.1c-0.1-1.3-0.2-2.8-0.2-4.2V7.8h1.6V21h-1.7l-4.8-8.3l-1.4-2.7h-0.1
							c0.1,1.3,0.2,2.7,0.2,4.1V21h-1.6V7.8z"/>
						<path d="M605.2,16.1c0-3.2,2.1-5.1,4.4-5.1c2.5,0,3.9,1.8,3.9,4.6c0,0.4,0,0.7-0.1,0.9h-6.6c0.1,2.1,1.4,3.4,3.2,3.4
							c1,0,1.7-0.3,2.4-0.8l0.6,1.1c-0.9,0.6-1.9,1-3.2,1C607.3,21.2,605.2,19.3,605.2,16.1z M612,15.3c0-2-0.9-3-2.4-3
							c-1.4,0-2.6,1.1-2.8,3H612z"/>
						<path d="M614.9,22.9c0-0.8,0.5-1.6,1.5-2.2v-0.1c-0.5-0.3-0.9-0.8-0.9-1.6c0-0.8,0.6-1.5,1.1-1.8v-0.1
							c-0.6-0.5-1.3-1.5-1.3-2.6c0-2.1,1.7-3.5,3.7-3.5c0.5,0,1,0.1,1.4,0.3h3.4v1.3h-2c0.5,0.5,0.8,1.2,0.8,2
							c0,2.1-1.6,3.4-3.6,3.4c-0.5,0-1-0.1-1.5-0.3c-0.4,0.3-0.6,0.6-0.6,1.2c0,0.6,0.4,1.1,1.7,1.1h1.9c2.3,0,3.4,0.7,3.4,2.3
							c0,1.8-1.9,3.4-4.9,3.4C616.6,25.5,614.9,24.6,614.9,22.9z M622.3,22.4c0-0.9-0.7-1.2-2-1.2h-1.7c-0.4,0-0.8-0.1-1.3-0.2
							c-0.7,0.5-1,1.1-1,1.7c0,1,1.1,1.7,2.8,1.7C621.1,24.4,622.3,23.4,622.3,22.4z M621.1,14.5c0-1.4-0.9-2.3-2.1-2.3
							s-2.1,0.8-2.1,2.3c0,1.4,1,2.3,2.1,2.3C620.1,16.8,621.1,15.9,621.1,14.5z"/>
						<path d="M624.9,18.5c0-2.1,1.9-3.2,6-3.7c0-1.3-0.4-2.5-2-2.5c-1.1,0-2.2,0.5-2.9,1l-0.6-1.1c0.9-0.6,2.3-1.3,3.9-1.3
							c2.4,0,3.4,1.6,3.4,4v6h-1.4l-0.1-1.2H631c-0.9,0.8-2,1.4-3.2,1.4C626.1,21.2,624.9,20.2,624.9,18.5z M630.9,18.6v-2.7
							c-3.3,0.4-4.4,1.2-4.4,2.5c0,1.1,0.8,1.6,1.7,1.6C629.2,19.9,629.9,19.5,630.9,18.6z"/>
						<path d="M635.7,18v-5.4h-1.5v-1.2l1.5-0.1l0.2-2.7h1.4v2.7h2.6v1.3h-2.6V18c0,1.2,0.4,1.9,1.5,1.9c0.3,0,0.8-0.1,1.1-0.3
							l0.3,1.2c-0.6,0.2-1.2,0.4-1.8,0.4C636.4,21.2,635.7,19.9,635.7,18z"/>
						<path d="M641.9,8.1c0-0.7,0.5-1.1,1.1-1.1s1.1,0.4,1.1,1.1c0,0.6-0.5,1.1-1.1,1.1S641.9,8.8,641.9,8.1z M642.2,11.2h1.6V21
							h-1.6V11.2z"/>
						<path d="M645.7,11.2h1.7l1.8,5.6c0.3,1,0.6,2,0.9,2.9h0.1c0.3-0.9,0.6-1.9,0.9-2.9l1.9-5.6h1.6l-3.5,9.8h-1.9L645.7,11.2z"/>
						<path d="M655.7,16.1c0-3.2,2.1-5.1,4.4-5.1c2.5,0,3.9,1.8,3.9,4.6c0,0.4,0,0.7-0.1,0.9h-6.6c0.1,2.1,1.4,3.4,3.2,3.4
							c1,0,1.7-0.3,2.4-0.8l0.6,1.1c-0.9,0.6-1.9,1-3.2,1C657.8,21.2,655.7,19.3,655.7,16.1z M662.5,15.3c0-2-0.9-3-2.4-3
							c-1.4,0-2.6,1.1-2.8,3H662.5z"/>
					</g>
					<g class="st1">
						<path d="M732.7,15.3h4.6v1.3h-4.6V15.3z"/>
					</g>
					<g class="st1">
						<path d="M839.7,15.3h4.6v1.3h-4.6V15.3z"/>
					</g>
					<g class="st1">
						<path d="M914.1,7.8h1.7l4.8,8.3l1.4,2.7h0.1c-0.1-1.3-0.2-2.8-0.2-4.2V7.8h1.6V21h-1.7l-4.8-8.3l-1.4-2.7h-0.1
							c0.1,1.3,0.2,2.7,0.2,4.1V21h-1.6V7.8z"/>
						<path d="M926.2,16.1c0-3.2,2.1-5.1,4.4-5.1c2.5,0,3.9,1.8,3.9,4.6c0,0.4,0,0.7-0.1,0.9h-6.6c0.1,2.1,1.4,3.4,3.2,3.4
							c1,0,1.7-0.3,2.4-0.8l0.6,1.1c-0.9,0.6-1.9,1-3.2,1C928.3,21.2,926.2,19.3,926.2,16.1z M933,15.3c0-2-0.9-3-2.4-3
							c-1.4,0-2.6,1.1-2.8,3H933z"/>
						<path d="M935.9,22.9c0-0.8,0.5-1.6,1.5-2.2v-0.1c-0.5-0.3-0.9-0.8-0.9-1.6c0-0.8,0.6-1.5,1.1-1.8v-0.1
							c-0.6-0.5-1.3-1.5-1.3-2.6c0-2.1,1.7-3.5,3.7-3.5c0.5,0,1,0.1,1.4,0.3h3.4v1.3h-2c0.5,0.5,0.8,1.2,0.8,2
							c0,2.1-1.6,3.4-3.6,3.4c-0.5,0-1-0.1-1.5-0.3c-0.4,0.3-0.6,0.6-0.6,1.2c0,0.6,0.4,1.1,1.7,1.1h1.9c2.3,0,3.4,0.7,3.4,2.3
							c0,1.8-1.9,3.4-4.9,3.4C937.6,25.5,935.9,24.6,935.9,22.9z M943.3,22.4c0-0.9-0.7-1.2-2-1.2h-1.7c-0.4,0-0.8-0.1-1.3-0.2
							c-0.7,0.5-1,1.1-1,1.7c0,1,1.1,1.7,2.8,1.7C942.1,24.4,943.3,23.4,943.3,22.4z M942.1,14.5c0-1.4-0.9-2.3-2.1-2.3
							s-2.1,0.8-2.1,2.3c0,1.4,1,2.3,2.1,2.3C941.1,16.8,942.1,15.9,942.1,14.5z"/>
						<path d="M945.9,18.5c0-2.1,1.9-3.2,6-3.7c0-1.3-0.4-2.5-2-2.5c-1.1,0-2.2,0.5-2.9,1l-0.6-1.1c0.9-0.6,2.3-1.3,3.9-1.3
							c2.4,0,3.4,1.6,3.4,4v6h-1.4l-0.1-1.2H952c-0.9,0.8-2,1.4-3.2,1.4C947.1,21.2,945.9,20.2,945.9,18.5z M951.9,18.6v-2.7
							c-3.3,0.4-4.4,1.2-4.4,2.5c0,1.1,0.8,1.6,1.7,1.6C950.2,19.9,950.9,19.5,951.9,18.6z"/>
						<path d="M956.7,18v-5.4h-1.5v-1.2l1.5-0.1l0.2-2.7h1.4v2.7h2.6v1.3h-2.6V18c0,1.2,0.4,1.9,1.5,1.9c0.3,0,0.8-0.1,1.1-0.3
							l0.3,1.2c-0.6,0.2-1.2,0.4-1.8,0.4C957.4,21.2,956.7,19.9,956.7,18z"/>
						<path d="M962.9,8.1c0-0.7,0.5-1.1,1.1-1.1s1.1,0.4,1.1,1.1c0,0.6-0.5,1.1-1.1,1.1S962.9,8.8,962.9,8.1z M963.2,11.2h1.6V21
							h-1.6V11.2z"/>
						<path d="M966.7,11.2h1.7l1.8,5.6c0.3,1,0.6,2,0.9,2.9h0.1c0.3-0.9,0.6-1.9,0.9-2.9l1.9-5.6h1.6l-3.5,9.8h-1.9L966.7,11.2z"/>
						<path d="M976.7,16.1c0-3.2,2.1-5.1,4.4-5.1c2.5,0,3.9,1.8,3.9,4.6c0,0.4,0,0.7-0.1,0.9h-6.6c0.1,2.1,1.4,3.4,3.2,3.4
							c1,0,1.7-0.3,2.4-0.8l0.6,1.1c-0.9,0.6-1.9,1-3.2,1C978.8,21.2,976.7,19.3,976.7,16.1z M983.5,15.3c0-2-0.9-3-2.4-3
							c-1.4,0-2.6,1.1-2.8,3H983.5z"/>
					</g>
					<path class="st5" d="M0,48h1000"/>
				</g>
				<g id="subhead" transform="translate(258.000000, 0.000000)">
					<g>
						<path class="st6" d="M8.8,0.8h79.5c4.4,0,8,3.6,8,8v32.5c0,4.4-3.6,8-8,8H8.8c-4.4,0-8-3.6-8-8V8.8C0.8,4.3,4.3,0.8,8.8,0.8z"
							/>
						<g class="st1">
							<path d="M18.4,19.9H22c2.3,0,4,0.7,4,2.7c0,1-0.6,2.1-1.5,2.4v0.1c1.2,0.3,2.1,1.1,2.1,2.6c0,2.2-1.9,3.3-4.3,3.3h-4V19.9z
								 M21.9,24.4c1.4,0,2-0.6,2-1.5c0-1-0.7-1.4-2-1.4h-1.3v2.8H21.9z M22.1,29.3c1.5,0,2.3-0.5,2.3-1.7c0-1.1-0.8-1.5-2.3-1.5
								h-1.5v3.2H22.1z"/>
							<path d="M28,28.7c0-1.8,1.5-2.7,4.8-3.1c0-0.8-0.4-1.5-1.4-1.5c-0.8,0-1.5,0.3-2.3,0.8l-0.8-1.5c1-0.6,2.2-1.1,3.5-1.1
								c2.1,0,3.2,1.3,3.2,3.7V31h-1.8L33,30.1h0c-0.7,0.6-1.6,1.1-2.5,1.1C29,31.2,28,30.1,28,28.7z M32.8,28.7V27
								c-2,0.3-2.7,0.8-2.7,1.6c0,0.7,0.5,0.9,1.1,0.9C31.8,29.5,32.3,29.2,32.8,28.7z"/>
							<path d="M36.5,30l1-1.4c0.8,0.6,1.5,0.9,2.2,0.9c0.8,0,1.2-0.4,1.2-0.9c0-0.6-0.9-0.9-1.8-1.3c-1.1-0.4-2.3-1-2.3-2.4
								c0-1.5,1.2-2.6,3.1-2.6c1.2,0,2.2,0.5,2.9,1l-1,1.3c-0.6-0.4-1.2-0.7-1.8-0.7c-0.8,0-1.1,0.3-1.1,0.8c0,0.6,0.8,0.8,1.7,1.2
								c1.1,0.4,2.3,1,2.3,2.5c0,1.5-1.2,2.7-3.3,2.7C38.5,31.2,37.3,30.7,36.5,30z"/>
							<path d="M44.2,26.8c0-2.7,1.9-4.4,3.9-4.4c2.3,0,3.5,1.7,3.5,4c0,0.4,0,0.8-0.1,1h-5.2c0.2,1.4,1.1,2.1,2.3,2.1
								c0.7,0,1.3-0.2,1.9-0.6l0.8,1.4c-0.8,0.6-1.9,0.9-2.9,0.9C46,31.2,44.2,29.6,44.2,26.8z M49.7,26c0-1.1-0.5-1.9-1.6-1.9
								c-0.9,0-1.7,0.6-1.8,1.9H49.7z"/>
							<path d="M53.4,28.6V19h2.2v9.7c0,0.5,0.2,0.7,0.4,0.7c0.1,0,0.1,0,0.3,0l0.3,1.6c-0.3,0.1-0.6,0.2-1.1,0.2
								C53.9,31.2,53.4,30.2,53.4,28.6z"/>
							<path d="M57.9,20.1c0-0.7,0.6-1.2,1.3-1.2c0.8,0,1.3,0.5,1.3,1.2c0,0.7-0.6,1.2-1.3,1.2C58.5,21.2,57.9,20.7,57.9,20.1z
								 M58.1,22.6h2.2V31h-2.2V22.6z"/>
							<path d="M62.7,22.6h1.8l0.1,1.1h0.1c0.7-0.7,1.6-1.3,2.7-1.3c1.8,0,2.6,1.3,2.6,3.4V31h-2.2v-5c0-1.3-0.4-1.8-1.2-1.8
								c-0.7,0-1.1,0.3-1.8,0.9V31h-2.2V22.6z"/>
							<path d="M71.8,26.8c0-2.7,1.9-4.4,3.9-4.4c2.3,0,3.5,1.7,3.5,4c0,0.4,0,0.8-0.1,1h-5.2c0.2,1.4,1.1,2.1,2.3,2.1
								c0.7,0,1.3-0.2,1.9-0.6l0.8,1.4c-0.8,0.6-1.9,0.9-2.9,0.9C73.6,31.2,71.8,29.6,71.8,26.8z M77.3,26c0-1.1-0.5-1.9-1.6-1.9
								c-0.9,0-1.7,0.6-1.8,1.9H77.3z"/>
						</g>
					</g>
					<g transform="translate(107.000000, 0.000000)">
						<path class="st6" d="M8.8,0.8h79.5c4.4,0,8,3.6,8,8v32.5c0,4.4-3.6,8-8,8H8.8c-4.4,0-8-3.6-8-8V8.8C0.8,4.3,4.3,0.8,8.8,0.8z"
							/>
						<g class="st1">
							<path d="M45.3,29.2h2.4v-7h-2v-1.4c1.1-0.2,1.9-0.5,2.6-0.9h1.6v9.3H52V31h-6.7V29.2z"/>
						</g>
					</g>
					<g transform="translate(214.000000, 0.000000)">
						<path class="st6" d="M8.8,0.8h79.5c4.4,0,8,3.6,8,8v32.5c0,4.4-3.6,8-8,8H8.8c-4.4,0-8-3.6-8-8V8.8C0.8,4.3,4.3,0.8,8.8,0.8z"
							/>
						<g class="st1">
							<path d="M44.7,29.7c3-2.7,4.8-4.8,4.8-6.5c0-1.1-0.6-1.8-1.7-1.8c-0.8,0-1.5,0.5-2,1.1l-1.2-1.2c1-1.1,2-1.7,3.5-1.7
								c2.1,0,3.5,1.3,3.5,3.4c0,2-1.7,4.2-3.7,6.1c0.6-0.1,1.3-0.1,1.8-0.1h2.4V31h-7.4V29.7z"/>
						</g>
					</g>
					<g transform="translate(321.000000, 0.000000)">
						<path class="st6" d="M8.8,0.8h79.5c4.4,0,8,3.6,8,8v32.5c0,4.4-3.6,8-8,8H8.8c-4.4,0-8-3.6-8-8V8.8C0.8,4.3,4.3,0.8,8.8,0.8z"
							/>
						<g class="st1">
							<path d="M52.5,28.1h-1.3V31h-2.1v-2.9h-4.7v-1.5l4.1-6.7h2.6v6.5h1.3V28.1z M49.1,26.4v-2.3c0-0.6,0.1-1.6,0.1-2.3h-0.1
								c-0.3,0.6-0.6,1.2-0.9,1.8l-1.7,2.8H49.1z"/>
						</g>
					</g>
					<g transform="translate(428.000000, 0.000000)">
						<path class="st6" d="M8.8,0.8h79.5c4.4,0,8,3.6,8,8v32.5c0,4.4-3.6,8-8,8H8.8c-4.4,0-8-3.6-8-8V8.8C0.8,4.3,4.3,0.8,8.8,0.8z"
							/>
						<g class="st1">
							<path d="M44.8,28.2c0-1.4,0.9-2.3,1.9-2.9v-0.1c-0.9-0.6-1.5-1.5-1.5-2.6c0-1.8,1.4-2.9,3.3-2.9c2,0,3.2,1.2,3.2,3
								c0,1.1-0.7,2-1.4,2.5v0.1c1,0.6,1.9,1.5,1.9,3c0,1.7-1.5,3-3.7,3C46.4,31.2,44.8,30,44.8,28.2z M50.2,28.2
								c0-1.2-1-1.6-2.5-2.2c-0.6,0.5-1,1.2-1,2.1c0,1,0.8,1.7,1.9,1.7C49.5,29.7,50.2,29.1,50.2,28.2z M50,22.8
								c0-0.9-0.5-1.5-1.5-1.5c-0.8,0-1.4,0.5-1.4,1.4c0,1.1,0.9,1.6,2,2C49.7,24.1,50,23.5,50,22.8z"/>
						</g>
					</g>
					<g transform="translate(535.000000, 0.000000)">
						<path class="st6" d="M8.8,0.8h79.5c4.4,0,8,3.6,8,8v32.5c0,4.4-3.6,8-8,8H8.8c-4.4,0-8-3.6-8-8V8.8C0.8,4.3,4.3,0.8,8.8,0.8z"
							/>
						<g class="st1">
							<path d="M40.9,29.2h2.4v-7h-2v-1.4c1.1-0.2,1.9-0.5,2.6-0.9h1.6v9.3h2.1V31h-6.7V29.2z"/>
							<path d="M49.1,29.7c3-2.7,4.8-4.8,4.8-6.5c0-1.1-0.6-1.8-1.7-1.8c-0.8,0-1.5,0.5-2,1.1L49,21.4c1-1.1,2-1.7,3.5-1.7
								c2.1,0,3.5,1.3,3.5,3.4c0,2-1.7,4.2-3.7,6.1c0.6-0.1,1.3-0.1,1.8-0.1h2.4V31h-7.4V29.7z"/>
						</g>
					</g>
					<g transform="translate(642.000000, 0.000000)">
						<path class="st6" d="M8.8,0.8h79.5c4.4,0,8,3.6,8,8v32.5c0,4.4-3.6,8-8,8H8.8c-4.4,0-8-3.6-8-8V8.8C0.8,4.3,4.3,0.8,8.8,0.8z"
							/>
						<g class="st1">
							<path d="M40.3,29.7c3-2.7,4.8-4.8,4.8-6.5c0-1.1-0.6-1.8-1.7-1.8c-0.8,0-1.5,0.5-2,1.1l-1.2-1.2c1-1.1,2-1.7,3.5-1.7
								c2.1,0,3.5,1.3,3.5,3.4c0,2-1.7,4.2-3.7,6.1c0.6-0.1,1.3-0.1,1.8-0.1h2.4V31h-7.4V29.7z"/>
							<path d="M56.9,28.1h-1.3V31h-2.1v-2.9h-4.7v-1.5l4.1-6.7h2.6v6.5h1.3V28.1z M53.5,26.4v-2.3c0-0.6,0.1-1.6,0.1-2.3h-0.1
								c-0.3,0.6-0.6,1.2-0.9,1.8L51,26.4H53.5z"/>
						</g>
					</g>
				</g>
			</g>
		</g>
	</g>
</g>
</svg>
