<?xml version="1.0" encoding="utf-8"?>
<!-- Generator: Adobe Illustrator 23.0.1, SVG Export Plug-In . SVG Version: 6.00 Build 0)  -->
<svg version="1.1" id="Layer_1" xmlns="http://www.w3.org/2000/svg" xmlns:xlink="http://www.w3.org/1999/xlink" x="0px" y="0px"
	 viewBox="0 0 334 603" style="enable-background:new 0 0 334 603;" xml:space="preserve">
<style type="text/css">
	.st0{fill-rule:evenodd;clip-rule:evenodd;}
	.st1{enable-background:new    ;}
	.st2{fill:#FFFFFF;}
	.st3{fill:none;stroke:#000000;stroke-width:1.5;}
	.st4{fill:#B54142;}
	.st5{font-family:'NotoSansKR-Medium-KSCpc-EUC-H';}
	.st6{font-size:18px;}
</style>
<title>safety_img2_mobile</title>
<desc>Created with Sketch.</desc>
<g id="Page-1">
	<g id="mobile1-copy" transform="translate(-20.000000, -1688.000000)">
		<g id="safety_img2_mobile" transform="translate(20.000000, 1682.000000)">
			<g id="table1" transform="translate(0.000000, 84.000000)">
				<g id="cell1">
					<g transform="translate(0.000000, 47.000000)">
						<g id="head">
							<path id="bg" class="st0" d="M8,0h318c4.4,0,8,3.6,8,8v34c0,4.4-3.6,8-8,8H8c-4.4,0-8-3.6-8-8V8C0,3.6,3.6,0,8,0z"/>
							<g class="st1">
								<path class="st2" d="M95.5,29.6l1.3-1.5c0.8,0.7,1.8,1.2,2.8,1.2c1.2,0,1.8-0.5,1.8-1.3c0-0.8-0.7-1.1-1.7-1.5l-1.5-0.6
									c-1.1-0.5-2.2-1.4-2.2-3c0-1.8,1.6-3.2,3.8-3.2c1.3,0,2.6,0.5,3.5,1.4l-1.1,1.4c-0.7-0.6-1.4-0.9-2.4-0.9
									c-1,0-1.6,0.4-1.6,1.2c0,0.8,0.8,1.1,1.7,1.5l1.5,0.6c1.3,0.6,2.2,1.4,2.2,3c0,1.8-1.5,3.4-4.1,3.4
									C98.1,31.2,96.6,30.6,95.5,29.6z"/>
								<path class="st2" d="M105,28.7c0-1.8,1.5-2.7,4.8-3.1c0-0.8-0.4-1.5-1.4-1.5c-0.8,0-1.5,0.3-2.3,0.8l-0.8-1.5
									c1-0.6,2.2-1.1,3.5-1.1c2.1,0,3.2,1.3,3.2,3.7V31h-1.8l-0.2-0.9h0c-0.7,0.6-1.6,1.1-2.5,1.1C106,31.2,105,30.1,105,28.7z
									 M109.8,28.7V27c-2,0.3-2.7,0.8-2.7,1.6c0,0.7,0.5,0.9,1.1,0.9C108.8,29.5,109.3,29.2,109.8,28.7z"/>
								<path class="st2" d="M118.8,20.7c-0.3-0.1-0.6-0.2-0.9-0.2c-0.7,0-1,0.4-1,1.3v0.7h1.6v1.7h-1.6V31h-2.2v-6.7h-1.1v-1.6
									l1.1-0.1v-0.7c0-1.8,0.8-3.1,2.9-3.1c0.6,0,1.2,0.2,1.6,0.3L118.8,20.7z"/>
								<path class="st2" d="M119.2,26.8c0-2.7,1.9-4.4,3.9-4.4c2.3,0,3.5,1.7,3.5,4c0,0.4,0,0.8-0.1,1h-5.2
									c0.2,1.4,1.1,2.1,2.3,2.1c0.7,0,1.3-0.2,1.9-0.6l0.8,1.4c-0.8,0.6-1.9,0.9-2.9,0.9C121,31.2,119.2,29.6,119.2,26.8z
									 M124.7,26c0-1.1-0.5-1.9-1.6-1.9c-0.9,0-1.7,0.6-1.8,1.9H124.7z"/>
								<path class="st2" d="M128.5,28.1v-3.7h-1.2v-1.6l1.3-0.1l0.3-2.2h1.8v2.2h2.1v1.7h-2.1v3.7c0,1,0.4,1.4,1.1,1.4
									c0.3,0,0.6-0.1,0.8-0.2l0.4,1.6c-0.5,0.2-1,0.3-1.8,0.3C129.3,31.2,128.5,30,128.5,28.1z"/>
								<path class="st2" d="M134.1,34.2l0.4-1.7c0.1,0,0.4,0.1,0.6,0.1c0.9,0,1.3-0.5,1.6-1.3l0.1-0.5l-3.3-8.2h2.2l1.3,3.9
									c0.3,0.8,0.5,1.6,0.7,2.4h0.1c0.2-0.8,0.4-1.6,0.6-2.4l1.2-3.9h2.1l-3,8.7c-0.7,2-1.6,3.1-3.5,3.1
									C134.8,34.4,134.4,34.3,134.1,34.2z"/>
								<path class="st2" d="M146,32.5c0-0.7,0.4-1.3,1.2-1.7v-0.1c-0.4-0.3-0.8-0.7-0.8-1.4c0-0.6,0.4-1.2,0.9-1.6v-0.1
									c-0.6-0.4-1.1-1.2-1.1-2.2c0-2,1.6-3,3.4-3c0.5,0,0.9,0.1,1.3,0.2h3v1.6h-1.4c0.2,0.3,0.4,0.8,0.4,1.3
									c0,1.9-1.4,2.8-3.2,2.8c-0.3,0-0.7-0.1-1.1-0.2c-0.2,0.2-0.4,0.4-0.4,0.7c0,0.5,0.3,0.7,1.3,0.7h1.4c2,0,3.1,0.6,3.1,2.1
									c0,1.7-1.8,3-4.6,3C147.5,34.6,146,34,146,32.5z M151.9,32c0-0.6-0.5-0.8-1.4-0.8h-1c-0.5,0-0.9,0-1.2-0.1
									c-0.4,0.3-0.6,0.6-0.6,1c0,0.7,0.8,1.1,2,1.1C151.1,33.2,151.9,32.7,151.9,32z M150.9,25.4c0-1-0.6-1.5-1.3-1.5
									s-1.3,0.6-1.3,1.5c0,1,0.6,1.5,1.3,1.5S150.9,26.4,150.9,25.4z"/>
								<path class="st2" d="M155.5,22.6h1.8l0.1,1.5h0.1c0.6-1.1,1.5-1.7,2.4-1.7c0.5,0,0.7,0.1,1,0.2l-0.4,1.9
									c-0.3-0.1-0.5-0.1-0.9-0.1c-0.7,0-1.5,0.4-1.9,1.7v5h-2.2V22.6z"/>
								<path class="st2" d="M161.3,26.8c0-2.8,1.9-4.4,4-4.4s4,1.6,4,4.4c0,2.8-1.9,4.4-4,4.4S161.3,29.6,161.3,26.8z M167.1,26.8
									c0-1.6-0.6-2.6-1.8-2.6s-1.8,1-1.8,2.6c0,1.6,0.6,2.6,1.8,2.6S167.1,28.4,167.1,26.8z"/>
								<path class="st2" d="M171.1,27.9v-5.2h2.2v5c0,1.3,0.4,1.8,1.2,1.8c0.7,0,1.1-0.3,1.7-1v-5.7h2.2V31h-1.8l-0.2-1.2h-0.1
									c-0.7,0.9-1.5,1.4-2.7,1.4C171.9,31.2,171.1,30,171.1,27.9z"/>
								<path class="st2" d="M180.8,22.6h1.8l0.1,0.9h0.1c0.7-0.6,1.6-1.1,2.5-1.1c2.1,0,3.3,1.7,3.3,4.3c0,2.9-1.7,4.5-3.6,4.5
									c-0.7,0-1.4-0.3-2.1-0.9l0.1,1.4v2.5h-2.2V22.6z M186.3,26.7c0-1.6-0.5-2.5-1.7-2.5c-0.6,0-1.1,0.3-1.7,0.9v3.7
									c0.5,0.5,1.1,0.6,1.5,0.6C185.5,29.4,186.3,28.5,186.3,26.7z"/>
								<path class="st2" d="M193.9,26.3c0-3,0.8-5.4,2.2-7.8l1.4,0.6c-1.3,2.2-1.8,4.7-1.8,7.2c0,2.5,0.6,5,1.8,7.2l-1.4,0.6
									C194.8,31.7,193.9,29.3,193.9,26.3z"/>
								<path class="st2" d="M199.5,22.6h1.8l0.2,1.1h0.1c0.7-0.7,1.6-1.3,2.7-1.3c1.8,0,2.6,1.3,2.6,3.4V31h-2.2v-5
									c0-1.3-0.4-1.8-1.2-1.8c-0.7,0-1.1,0.3-1.8,0.9V31h-2.2V22.6z"/>
								<path class="st2" d="M208.5,22.7h7.7v1.6h-7.7V22.7z M208.5,26.5h7.7v1.6h-7.7V26.5z"/>
								<path class="st2" d="M217.2,29.7l1-1.4c0.6,0.6,1.4,1.1,2.4,1.1c1.2,0,2-0.7,2-2c0-1.3-0.8-2-1.9-2c-0.7,0-1,0.2-1.7,0.6
									l-1-0.7l0.3-5.4h5.9v1.8h-4l-0.2,2.4c0.4-0.2,0.8-0.3,1.3-0.3c1.9,0,3.4,1.1,3.4,3.5c0,2.5-1.8,3.9-3.9,3.9
									C219.2,31.2,218,30.5,217.2,29.7z"/>
								<path class="st2" d="M226.3,29.7c3-2.7,4.8-4.8,4.8-6.5c0-1.1-0.6-1.8-1.7-1.8c-0.8,0-1.5,0.5-2,1.1l-1.2-1.2
									c1-1.1,2-1.7,3.5-1.7c2.1,0,3.5,1.3,3.5,3.4c0,2-1.7,4.2-3.7,6.1c0.6-0.1,1.3-0.1,1.8-0.1h2.4V31h-7.4V29.7z"/>
								<path class="st2" d="M235.2,33.4c1.3-2.2,1.8-4.7,1.8-7.2c0-2.4-0.6-5-1.8-7.2l1.4-0.6c1.4,2.3,2.2,4.8,2.2,7.8
									c0,3-0.8,5.4-2.2,7.8L235.2,33.4z"/>
							</g>
						</g>
						<g id="sub" transform="translate(0.000000, 70.000000)">
							<g class="st1">
								<path d="M161.8,82.4h-1.7V86h-1.9v-3.6h-5.7V81l5.3-8.3h2.4v8.1h1.7V82.4z M158.2,80.8v-3.5c0-0.7,0.1-1.8,0.1-2.6h-0.1
									c-0.3,0.7-0.7,1.4-1.1,2l-2.6,4H158.2z"/>
								<path d="M162.9,84.4l1-1.3c0.8,0.8,1.8,1.5,3.1,1.5c1.5,0,2.5-0.8,2.5-2.2c0-1.5-0.9-2.4-3.9-2.4v-1.5c2.6,0,3.5-1,3.5-2.3
									c0-1.2-0.8-1.9-2-1.9c-1,0-1.9,0.5-2.6,1.3l-1.1-1.3c1-0.9,2.3-1.6,3.8-1.6c2.4,0,4.1,1.2,4.1,3.4c0,1.5-0.9,2.6-2.3,3.1
									v0.1c1.5,0.4,2.7,1.5,2.7,3.3c0,2.4-2,3.8-4.4,3.8C165.1,86.2,163.8,85.4,162.9,84.4z"/>
								<path d="M173.5,82.7c0-1.7,1.2-2.9,2.4-3.6V79c-1-0.7-1.8-1.7-1.8-3.1c0-2.1,1.6-3.4,3.8-3.4c2.3,0,3.7,1.4,3.7,3.5
									c0,1.4-0.9,2.5-1.7,3.1v0.1c1.2,0.7,2.2,1.7,2.2,3.5c0,2-1.7,3.5-4.3,3.5C175.3,86.2,173.5,84.8,173.5,82.7z M180.1,82.7
									c0-1.6-1.5-2.2-3.3-3c-0.9,0.6-1.5,1.6-1.5,2.8c0,1.3,1.1,2.2,2.5,2.2C179.2,84.7,180.1,83.9,180.1,82.7z M179.8,76.2
									c0-1.2-0.7-2.1-2-2.1c-1.1,0-1.9,0.7-1.9,1.9c0,1.4,1.3,2.1,2.7,2.7C179.4,77.9,179.8,77.1,179.8,76.2z"/>
							</g>
							<g class="st1">
								<path d="M152.6,191.4l1-1.3c0.8,0.8,1.8,1.5,3.1,1.5c1.5,0,2.5-0.8,2.5-2.2c0-1.5-0.9-2.4-3.9-2.4v-1.5c2.6,0,3.5-1,3.5-2.3
									c0-1.2-0.8-1.9-2-1.9c-1,0-1.9,0.5-2.6,1.3l-1.1-1.3c1-0.9,2.3-1.6,3.8-1.6c2.4,0,4.1,1.2,4.1,3.4c0,1.5-0.9,2.6-2.3,3.1
									v0.1c1.5,0.4,2.7,1.5,2.7,3.3c0,2.4-2,3.8-4.4,3.8C154.8,193.2,153.5,192.4,152.6,191.4z"/>
								<path d="M162.9,191.5l1-1.4c0.8,0.8,1.7,1.4,3.1,1.4c1.5,0,2.6-1.1,2.6-2.8s-1-2.8-2.5-2.8c-0.8,0-1.4,0.3-2.1,0.8l-1-0.7
									l0.4-6.3h6.7v1.7h-4.9l-0.3,3.4c0.6-0.3,1.1-0.5,1.8-0.5c2.2,0,4,1.3,4,4.2c0,2.9-2.1,4.6-4.5,4.6
									C165.1,193.2,163.8,192.4,162.9,191.5z"/>
								<path d="M173.1,191.4l1-1.3c0.8,0.8,1.8,1.5,3.1,1.5c1.5,0,2.5-0.8,2.5-2.2c0-1.5-0.9-2.4-3.9-2.4v-1.5c2.6,0,3.5-1,3.5-2.3
									c0-1.2-0.8-1.9-2-1.9c-1,0-1.9,0.5-2.6,1.3l-1.1-1.3c1-0.9,2.3-1.6,3.8-1.6c2.4,0,4.1,1.2,4.1,3.4c0,1.5-0.9,2.6-2.3,3.1
									v0.1c1.5,0.4,2.7,1.5,2.7,3.3c0,2.4-2,3.8-4.4,3.8C175.4,193.2,174,192.4,173.1,191.4z"/>
							</g>
							<g>
								<path class="st3" d="M8.8,0.8h316.5c4.4,0,8,3.6,8,8v32.5c0,4.4-3.6,8-8,8H8.8c-4.4,0-8-3.6-8-8V8.8
									C0.8,4.3,4.3,0.8,8.8,0.8z"/>
								<g class="st1">
									<path d="M133.4,19.9h2.2V31h-2.2V19.9z"/>
									<path d="M138.1,22.6h1.8l0.1,1.1h0.1c0.7-0.7,1.6-1.3,2.7-1.3c1.8,0,2.6,1.3,2.6,3.4V31h-2.2v-5c0-1.3-0.4-1.8-1.2-1.8
										c-0.7,0-1.1,0.3-1.8,0.9V31h-2.2V22.6z"/>
									<path d="M147.2,26.8c0-2.8,2-4.4,4.3-4.4c1,0,1.8,0.4,2.4,0.9l-1,1.4c-0.4-0.4-0.8-0.6-1.3-0.6c-1.3,0-2.1,1-2.1,2.6
										c0,1.6,0.9,2.6,2.1,2.6c0.6,0,1.2-0.3,1.6-0.7l0.9,1.5c-0.8,0.7-1.8,1-2.7,1C149,31.2,147.2,29.6,147.2,26.8z"/>
									<path d="M155.4,20.1c0-0.7,0.6-1.2,1.3-1.2c0.8,0,1.3,0.5,1.3,1.2c0,0.7-0.6,1.2-1.3,1.2C156,21.2,155.4,20.7,155.4,20.1z
										 M155.7,22.6h2.2V31h-2.2V22.6z"/>
									<path d="M159.7,26.8c0-2.7,1.7-4.4,3.5-4.4c0.9,0,1.5,0.4,2.1,0.9l-0.1-1.3v-3h2.2v12h-1.8l-0.2-0.9h0
										c-0.6,0.6-1.5,1.1-2.3,1.1C161.1,31.2,159.7,29.6,159.7,26.8z M165.3,28.5v-3.7c-0.5-0.5-1-0.6-1.6-0.6
										c-0.9,0-1.7,0.9-1.7,2.6c0,1.7,0.6,2.6,1.7,2.6C164.3,29.4,164.8,29.2,165.3,28.5z"/>
									<path d="M169.3,26.8c0-2.7,1.9-4.4,3.9-4.4c2.3,0,3.5,1.7,3.5,4c0,0.4,0,0.8-0.1,1h-5.2c0.2,1.4,1.1,2.1,2.3,2.1
										c0.7,0,1.3-0.2,1.9-0.6l0.8,1.4c-0.8,0.6-1.9,0.9-2.9,0.9C171.2,31.2,169.3,29.6,169.3,26.8z M174.9,26
										c0-1.1-0.5-1.9-1.6-1.9c-0.9,0-1.7,0.6-1.8,1.9H174.9z"/>
									<path d="M178.6,22.6h1.8l0.2,1.1h0.1c0.7-0.7,1.6-1.3,2.7-1.3c1.8,0,2.6,1.3,2.6,3.4V31h-2.2v-5c0-1.3-0.4-1.8-1.2-1.8
										c-0.7,0-1.1,0.3-1.8,0.9V31h-2.2V22.6z"/>
									<path d="M187.7,26.8c0-2.8,2-4.4,4.3-4.4c1,0,1.8,0.4,2.4,0.9l-1.1,1.4c-0.4-0.4-0.8-0.6-1.3-0.6c-1.3,0-2.1,1-2.1,2.6
										c0,1.6,0.9,2.6,2.1,2.6c0.6,0,1.2-0.3,1.6-0.7l0.9,1.5c-0.8,0.7-1.8,1-2.7,1C189.4,31.2,187.7,29.6,187.7,26.8z"/>
									<path d="M195.1,26.8c0-2.7,1.9-4.4,3.9-4.4c2.3,0,3.5,1.7,3.5,4c0,0.4,0,0.8-0.1,1h-5.2c0.2,1.4,1.1,2.1,2.3,2.1
										c0.7,0,1.3-0.2,1.9-0.6l0.8,1.4c-0.8,0.6-1.9,0.9-2.9,0.9C197,31.2,195.1,29.6,195.1,26.8z M200.7,26
										c0-1.1-0.5-1.9-1.6-1.9c-0.9,0-1.7,0.6-1.8,1.9H200.7z"/>
								</g>
							</g>
							<g transform="translate(0.000000, 107.000000)">
								<path class="st3" d="M8.8,0.8h316.5c4.4,0,8,3.6,8,8v32.5c0,4.4-3.6,8-8,8H8.8c-4.4,0-8-3.6-8-8V8.8
									C0.8,4.3,4.3,0.8,8.8,0.8z"/>
								<g class="st1">
									<path d="M141.3,31l-2.3-4.2h-1.5V31h-2.2V19.9h3.9c2.3,0,4.2,0.8,4.2,3.4c0,1.7-0.8,2.7-2.1,3.2l2.6,4.5H141.3z M137.5,25
										h1.4c1.4,0,2.2-0.6,2.2-1.8c0-1.2-0.8-1.6-2.2-1.6h-1.4V25z"/>
									<path d="M144.6,26.8c0-2.7,1.9-4.4,3.9-4.4c2.3,0,3.5,1.7,3.5,4c0,0.4,0,0.8-0.1,1h-5.2c0.2,1.4,1.1,2.1,2.3,2.1
										c0.7,0,1.3-0.2,1.9-0.6l0.8,1.4c-0.8,0.6-1.9,0.9-2.9,0.9C146.4,31.2,144.6,29.6,144.6,26.8z M150.1,26
										c0-1.1-0.5-1.9-1.6-1.9c-0.9,0-1.7,0.6-1.8,1.9H150.1z"/>
									<path d="M153.1,30l1-1.4c0.8,0.6,1.5,0.9,2.2,0.9c0.8,0,1.2-0.4,1.2-0.9c0-0.6-0.9-0.9-1.8-1.3c-1.1-0.4-2.3-1-2.3-2.4
										c0-1.5,1.2-2.6,3.1-2.6c1.2,0,2.2,0.5,2.9,1l-1,1.3c-0.6-0.4-1.2-0.7-1.8-0.7c-0.8,0-1.1,0.3-1.1,0.8
										c0,0.6,0.8,0.8,1.7,1.2c1.1,0.4,2.3,1,2.3,2.5c0,1.5-1.2,2.7-3.3,2.7C155.1,31.2,153.9,30.7,153.1,30z"/>
									<path d="M160.8,26.8c0-2.8,1.9-4.4,4-4.4s4,1.6,4,4.4c0,2.8-1.9,4.4-4,4.4S160.8,29.6,160.8,26.8z M166.6,26.8
										c0-1.6-0.6-2.6-1.8-2.6s-1.8,1-1.8,2.6c0,1.6,0.6,2.6,1.8,2.6S166.6,28.4,166.6,26.8z"/>
									<path d="M170.7,28.6V19h2.2v9.7c0,0.5,0.2,0.7,0.5,0.7c0.1,0,0.1,0,0.3,0l0.3,1.6c-0.3,0.1-0.6,0.2-1.1,0.2
										C171.2,31.2,170.7,30.2,170.7,28.6z"/>
									<path d="M174.4,22.6h2.2l1.2,4.2c0.2,0.8,0.5,1.7,0.7,2.5h0.1c0.2-0.9,0.5-1.7,0.7-2.5l1.2-4.2h2.1l-2.8,8.4h-2.6
										L174.4,22.6z"/>
									<path d="M183.4,26.8c0-2.7,1.9-4.4,3.9-4.4c2.3,0,3.5,1.7,3.5,4c0,0.4,0,0.8-0.1,1h-5.2c0.2,1.4,1.1,2.1,2.3,2.1
										c0.7,0,1.3-0.2,1.9-0.6l0.8,1.4c-0.8,0.6-1.9,0.9-2.9,0.9C185.2,31.2,183.4,29.6,183.4,26.8z M188.9,26
										c0-1.1-0.5-1.9-1.6-1.9c-0.9,0-1.7,0.6-1.8,1.9H188.9z"/>
									<path d="M192.1,26.8c0-2.7,1.7-4.4,3.5-4.4c0.9,0,1.5,0.4,2.1,0.9l-0.1-1.3v-3h2.2v12h-1.8l-0.2-0.9h0
										c-0.6,0.6-1.5,1.1-2.3,1.1C193.5,31.2,192.1,29.6,192.1,26.8z M197.7,28.5v-3.7c-0.5-0.5-1-0.6-1.6-0.6
										c-0.9,0-1.7,0.9-1.7,2.6c0,1.7,0.6,2.6,1.7,2.6C196.7,29.4,197.2,29.2,197.7,28.5z"/>
								</g>
							</g>
							<g class="st1">
								<path d="M153.7,298.3h2.9v-9.2h-2.4v-1.3c1.2-0.2,2.1-0.5,2.9-1h1.6v11.5h2.6v1.7h-7.6V298.3z"/>
								<path d="M163.2,296.7c0-1.7,1.2-2.9,2.4-3.6V293c-1-0.7-1.8-1.7-1.8-3.1c0-2.1,1.6-3.4,3.8-3.4c2.3,0,3.7,1.4,3.7,3.5
									c0,1.4-0.9,2.5-1.7,3.1v0.1c1.2,0.7,2.2,1.7,2.2,3.5c0,2-1.7,3.5-4.3,3.5C165,300.2,163.2,298.8,163.2,296.7z M169.8,296.7
									c0-1.6-1.5-2.2-3.3-3c-0.9,0.6-1.5,1.6-1.5,2.8c0,1.3,1.1,2.2,2.5,2.2C168.9,298.7,169.8,297.9,169.8,296.7z M169.6,290.2
									c0-1.2-0.7-2.1-2-2.1c-1.1,0-1.9,0.7-1.9,1.9c0,1.4,1.3,2.1,2.7,2.7C169.2,291.9,169.6,291.1,169.6,290.2z"/>
								<path d="M174.2,298.3h2.9v-9.2h-2.4v-1.3c1.2-0.2,2.1-0.5,2.9-1h1.6v11.5h2.6v1.7h-7.6V298.3z"/>
							</g>
							<g transform="translate(0.000000, 214.000000)">
								<path class="st3" d="M8.8,0.8h316.5c4.4,0,8,3.6,8,8v32.5c0,4.4-3.6,8-8,8H8.8c-4.4,0-8-3.6-8-8V8.8
									C0.8,4.3,4.3,0.8,8.8,0.8z"/>
								<g class="st1">
									<path d="M112.8,19.9h2.5l1.9,5.2c0.2,0.7,0.4,1.4,0.7,2.1h0.1c0.2-0.7,0.4-1.5,0.7-2.1l1.8-5.2h2.5V31h-2v-4.6
										c0-1,0.2-2.6,0.3-3.6h-0.1l-0.9,2.6l-1.7,4.7h-1.3l-1.7-4.7l-0.9-2.6h-0.1c0.1,1,0.3,2.6,0.3,3.6V31h-2V19.9z"/>
									<path d="M125.3,20.1c0-0.7,0.6-1.2,1.3-1.2c0.8,0,1.3,0.5,1.3,1.2c0,0.7-0.6,1.2-1.3,1.2C125.8,21.2,125.3,20.7,125.3,20.1
										z M125.5,22.6h2.2V31h-2.2V22.6z"/>
									<path d="M130,28.6V19h2.2v9.7c0,0.5,0.2,0.7,0.5,0.7c0.1,0,0.1,0,0.3,0l0.3,1.6c-0.3,0.1-0.6,0.2-1.1,0.2
										C130.6,31.2,130,30.2,130,28.6z"/>
									<path d="M134.3,26.8c0-2.7,1.7-4.4,3.5-4.4c0.9,0,1.5,0.4,2.1,0.9l-0.1-1.3v-3h2.2v12h-1.8l-0.2-0.9h0
										c-0.6,0.6-1.5,1.1-2.3,1.1C135.6,31.2,134.3,29.6,134.3,26.8z M139.8,28.5v-3.7c-0.5-0.5-1-0.6-1.6-0.6
										c-0.9,0-1.7,0.9-1.7,2.6c0,1.7,0.6,2.6,1.7,2.6C138.9,29.4,139.4,29.2,139.8,28.5z"/>
									<path d="M147.6,20.1c0-0.7,0.6-1.2,1.3-1.2c0.8,0,1.3,0.5,1.3,1.2c0,0.7-0.6,1.2-1.3,1.2C148.2,21.2,147.6,20.7,147.6,20.1
										z M147.8,22.6h2.2V31h-2.2V22.6z"/>
									<path d="M152.4,22.6h1.8l0.1,1.1h0.1c0.7-0.7,1.6-1.3,2.7-1.3c1.8,0,2.6,1.3,2.6,3.4V31h-2.2v-5c0-1.3-0.4-1.8-1.2-1.8
										c-0.7,0-1.1,0.3-1.8,0.9V31h-2.2V22.6z"/>
									<path d="M164.6,30l1-1.4c0.8,0.6,1.5,0.9,2.2,0.9c0.8,0,1.2-0.4,1.2-0.9c0-0.6-0.9-0.9-1.8-1.3c-1.1-0.4-2.3-1-2.3-2.4
										c0-1.5,1.2-2.6,3.1-2.6c1.2,0,2.2,0.5,2.9,1l-1,1.3c-0.6-0.4-1.2-0.7-1.8-0.7c-0.8,0-1.1,0.3-1.1,0.8
										c0,0.6,0.8,0.8,1.7,1.2c1.1,0.4,2.3,1,2.3,2.5c0,1.5-1.2,2.7-3.3,2.7C166.7,31.2,165.4,30.7,164.6,30z"/>
									<path d="M172.3,26.8c0-2.7,1.9-4.4,3.9-4.4c2.3,0,3.5,1.7,3.5,4c0,0.4,0,0.8-0.1,1h-5.2c0.2,1.4,1.1,2.1,2.3,2.1
										c0.7,0,1.3-0.2,1.9-0.6l0.8,1.4c-0.8,0.6-1.9,0.9-2.9,0.9C174.1,31.2,172.3,29.6,172.3,26.8z M177.8,26
										c0-1.1-0.5-1.9-1.6-1.9c-0.9,0-1.7,0.6-1.8,1.9H177.8z"/>
									<path d="M180.5,22.6h2.2l1.2,4.2c0.2,0.8,0.5,1.7,0.7,2.5h0.1c0.2-0.9,0.5-1.7,0.7-2.5l1.2-4.2h2.1l-2.8,8.4h-2.6
										L180.5,22.6z"/>
									<path d="M189.5,26.8c0-2.7,1.9-4.4,3.9-4.4c2.3,0,3.5,1.7,3.5,4c0,0.4,0,0.8-0.1,1h-5.2c0.2,1.4,1.1,2.1,2.3,2.1
										c0.7,0,1.3-0.2,1.9-0.6l0.8,1.4c-0.8,0.6-1.9,0.9-2.9,0.9C191.3,31.2,189.5,29.6,189.5,26.8z M195,26
										c0-1.1-0.5-1.9-1.6-1.9c-0.9,0-1.7,0.6-1.8,1.9H195z"/>
									<path d="M198.7,22.6h1.8l0.1,1.5h0.1c0.6-1.1,1.5-1.7,2.4-1.7c0.5,0,0.7,0.1,1,0.2l-0.4,1.9c-0.3-0.1-0.5-0.1-0.9-0.1
										c-0.7,0-1.5,0.4-1.9,1.7v5h-2.2V22.6z"/>
									<path d="M205,20.1c0-0.7,0.6-1.2,1.3-1.2c0.8,0,1.3,0.5,1.3,1.2c0,0.7-0.6,1.2-1.3,1.2C205.6,21.2,205,20.7,205,20.1z
										 M205.2,22.6h2.2V31h-2.2V22.6z"/>
									<path d="M210.1,28.1v-3.7h-1.2v-1.6l1.3-0.1l0.3-2.2h1.8v2.2h2.1v1.7h-2.1v3.7c0,1,0.4,1.4,1.1,1.4c0.3,0,0.6-0.1,0.8-0.2
										l0.4,1.6c-0.5,0.2-1,0.3-1.8,0.3C210.9,31.2,210.1,30,210.1,28.1z"/>
									<path d="M215.7,34.2l0.4-1.7c0.1,0,0.4,0.1,0.6,0.1c0.9,0,1.3-0.5,1.6-1.3l0.1-0.5l-3.3-8.2h2.2l1.3,3.9
										c0.3,0.8,0.5,1.6,0.7,2.4h0.1c0.2-0.8,0.4-1.6,0.6-2.4l1.2-3.9h2.1l-3,8.7c-0.7,2-1.6,3.1-3.5,3.1
										C216.3,34.4,216,34.3,215.7,34.2z"/>
								</g>
							</g>
							<g class="st1">
								<path d="M121.2,393.7h2.1l4.4,7.8l1.4,2.8h0.1c-0.1-1.4-0.3-3-0.3-4.4v-6.2h2V407h-2.1l-4.4-7.8l-1.4-2.8h-0.1
									c0.1,1.4,0.3,2.9,0.3,4.3v6.2h-2V393.7z"/>
								<path d="M133.5,402.1c0-3.3,2.2-5.2,4.7-5.2c2.4,0,4.7,1.9,4.7,5.2c0,3.3-2.2,5.2-4.7,5.2
									C135.7,407.2,133.5,405.3,133.5,402.1z M140.7,402.1c0-2.1-1-3.5-2.5-3.5c-1.5,0-2.5,1.4-2.5,3.5c0,2.1,1,3.5,2.5,3.5
									C139.8,405.5,140.7,404.2,140.7,402.1z"/>
								<path d="M145.2,403.8v-5h-1.4v-1.5l1.5-0.1l0.2-2.7h1.7v2.7h2.6v1.7h-2.6v5c0,1.2,0.4,1.8,1.4,1.8c0.3,0,0.8-0.1,1.1-0.2
									l0.4,1.5c-0.6,0.2-1.2,0.4-1.9,0.4C146,407.2,145.2,405.8,145.2,403.8z"/>
								<path d="M156,397.1h1.7l0.2,1.8h0.1c0.7-1.3,1.7-2,2.8-2c0.5,0,0.8,0.1,1.1,0.2l-0.4,1.8c-0.3-0.1-0.6-0.2-1-0.2
									c-0.8,0-1.8,0.6-2.4,2.1v6.2H156V397.1z"/>
								<path d="M162.5,402.1c0-3.2,2.2-5.2,4.5-5.2c2.6,0,4,1.9,4,4.7c0,0.4,0,0.8-0.1,1h-6.4c0.2,1.9,1.4,3,3.1,3
									c0.9,0,1.6-0.3,2.4-0.7l0.7,1.3c-0.9,0.6-2.1,1-3.3,1C164.6,407.2,162.5,405.3,162.5,402.1z M169.3,401.2
									c0-1.7-0.8-2.7-2.2-2.7c-1.2,0-2.3,1-2.5,2.7H169.3z"/>
								<path d="M173.4,404.7v-12h2.1v12.1c0,0.6,0.3,0.8,0.5,0.8c0.1,0,0.2,0,0.3,0l0.3,1.6c-0.3,0.1-0.6,0.2-1.1,0.2
									C173.9,407.2,173.4,406.3,173.4,404.7z"/>
								<path d="M178.2,404.4c0-2.1,1.8-3.2,5.9-3.7c0-1.2-0.4-2.2-1.9-2.2c-1,0-2,0.5-2.9,1l-0.8-1.4c1-0.6,2.4-1.3,4-1.3
									c2.5,0,3.6,1.6,3.6,4.2v6h-1.7l-0.2-1.1h-0.1c-0.9,0.8-2,1.4-3.2,1.4C179.4,407.2,178.2,406.1,178.2,404.4z M184.1,404.4
									V402c-2.9,0.4-3.9,1.1-3.9,2.2c0,1,0.7,1.4,1.5,1.4C182.6,405.6,183.3,405.2,184.1,404.4z"/>
								<path d="M189.1,403.8v-5h-1.4v-1.5l1.5-0.1l0.2-2.7h1.7v2.7h2.6v1.7h-2.6v5c0,1.2,0.4,1.8,1.4,1.8c0.3,0,0.8-0.1,1.1-0.2
									l0.4,1.5c-0.6,0.2-1.2,0.4-1.9,0.4C189.9,407.2,189.1,405.8,189.1,403.8z"/>
								<path d="M194.9,402.1c0-3.2,2.2-5.2,4.5-5.2c2.6,0,4,1.9,4,4.7c0,0.4,0,0.8-0.1,1h-6.4c0.2,1.9,1.4,3,3.1,3
									c0.9,0,1.6-0.3,2.4-0.7l0.7,1.3c-0.9,0.6-2.1,1-3.3,1C197,407.2,194.9,405.3,194.9,402.1z M201.7,401.2
									c0-1.7-0.8-2.7-2.2-2.7c-1.2,0-2.3,1-2.5,2.7H201.7z"/>
								<path d="M205.1,402.1c0-3.2,2-5.2,4.2-5.2c1.1,0,1.9,0.4,2.7,1.1l-0.1-1.6v-3.7h2.1V407h-1.7l-0.2-1.1h-0.1
									c-0.7,0.8-1.8,1.4-2.9,1.4C206.7,407.2,205.1,405.3,205.1,402.1z M211.9,404.3v-4.8c-0.7-0.7-1.4-0.9-2.2-0.9
									c-1.4,0-2.5,1.3-2.5,3.5c0,2.3,0.9,3.5,2.4,3.5C210.5,405.5,211.2,405.1,211.9,404.3z"/>
							</g>
							<g transform="translate(0.000000, 321.000000)">
								<path class="st3" d="M8.8,0.8h316.5c4.4,0,8,3.6,8,8v32.5c0,4.4-3.6,8-8,8H8.8c-4.4,0-8-3.6-8-8V8.8
									C0.8,4.3,4.3,0.8,8.8,0.8z"/>
								<g class="st1">
									<path d="M99.9,31l-2.3-4.2H96V31h-2.2V19.9h3.9c2.3,0,4.2,0.8,4.2,3.4c0,1.7-0.8,2.7-2.1,3.2l2.6,4.5H99.9z M96,25h1.4
										c1.4,0,2.2-0.6,2.2-1.8c0-1.2-0.8-1.6-2.2-1.6H96V25z"/>
									<path d="M103.2,26.8c0-2.7,1.9-4.4,3.9-4.4c2.3,0,3.5,1.7,3.5,4c0,0.4,0,0.8-0.1,1h-5.2c0.2,1.4,1.1,2.1,2.3,2.1
										c0.7,0,1.3-0.2,1.9-0.6l0.8,1.4c-0.8,0.6-1.9,0.9-2.9,0.9C105,31.2,103.2,29.6,103.2,26.8z M108.7,26
										c0-1.1-0.5-1.9-1.6-1.9c-0.9,0-1.7,0.6-1.8,1.9H108.7z"/>
									<path d="M112.4,28.6V19h2.2v9.7c0,0.5,0.2,0.7,0.5,0.7c0.1,0,0.1,0,0.3,0l0.3,1.6c-0.3,0.1-0.6,0.2-1.1,0.2
										C112.9,31.2,112.4,30.2,112.4,28.6z"/>
									<path d="M116.7,28.7c0-1.8,1.5-2.7,4.8-3.1c0-0.8-0.4-1.5-1.4-1.5c-0.8,0-1.5,0.3-2.3,0.8l-0.8-1.5c1-0.6,2.2-1.1,3.5-1.1
										c2.1,0,3.2,1.3,3.2,3.7V31h-1.8l-0.2-0.9h0c-0.7,0.6-1.6,1.1-2.5,1.1C117.7,31.2,116.7,30.1,116.7,28.7z M121.5,28.7V27
										c-2,0.3-2.7,0.8-2.7,1.6c0,0.7,0.5,0.9,1.1,0.9C120.5,29.5,121,29.2,121.5,28.7z"/>
									<path d="M126,28.1v-3.7h-1.2v-1.6l1.3-0.1l0.3-2.2h1.8v2.2h2.1v1.7h-2.1v3.7c0,1,0.4,1.4,1.1,1.4c0.3,0,0.6-0.1,0.8-0.2
										l0.4,1.6c-0.5,0.2-1,0.3-1.8,0.3C126.8,31.2,126,30,126,28.1z"/>
									<path d="M131.8,20.1c0-0.7,0.6-1.2,1.3-1.2c0.8,0,1.3,0.5,1.3,1.2c0,0.7-0.6,1.2-1.3,1.2C132.3,21.2,131.8,20.7,131.8,20.1
										z M132,22.6h2.2V31H132V22.6z"/>
									<path d="M136,26.8c0-2.8,1.9-4.4,4-4.4c2.1,0,4,1.6,4,4.4c0,2.8-1.9,4.4-4,4.4C138,31.2,136,29.6,136,26.8z M141.9,26.8
										c0-1.6-0.6-2.6-1.8-2.6c-1.1,0-1.8,1-1.8,2.6c0,1.6,0.6,2.6,1.8,2.6C141.2,29.4,141.9,28.4,141.9,26.8z"/>
									<path d="M146,22.6h1.8l0.1,1.1h0.1c0.7-0.7,1.6-1.3,2.7-1.3c1.8,0,2.6,1.3,2.6,3.4V31h-2.2v-5c0-1.3-0.4-1.8-1.2-1.8
										c-0.7,0-1.1,0.3-1.8,0.9V31H146V22.6z"/>
									<path d="M154.8,30l1-1.4c0.8,0.6,1.5,0.9,2.2,0.9c0.8,0,1.2-0.4,1.2-0.9c0-0.6-0.9-0.9-1.8-1.3c-1.1-0.4-2.3-1-2.3-2.4
										c0-1.5,1.2-2.6,3.1-2.6c1.2,0,2.2,0.5,2.9,1l-1,1.3c-0.6-0.4-1.2-0.7-1.8-0.7c-0.8,0-1.1,0.3-1.1,0.8
										c0,0.6,0.8,0.8,1.7,1.2c1.1,0.4,2.3,1,2.3,2.5c0,1.5-1.2,2.7-3.3,2.7C156.8,31.2,155.6,30.7,154.8,30z"/>
									<path d="M163,19h2.2v3l-0.1,1.6c0.7-0.6,1.5-1.2,2.6-1.2c1.8,0,2.6,1.3,2.6,3.4V31h-2.2v-5c0-1.3-0.4-1.8-1.2-1.8
										c-0.7,0-1.1,0.3-1.8,0.9V31H163V19z"/>
									<path d="M172.4,20.1c0-0.7,0.6-1.2,1.3-1.2c0.8,0,1.3,0.5,1.3,1.2c0,0.7-0.6,1.2-1.3,1.2C172.9,21.2,172.4,20.7,172.4,20.1
										z M172.6,22.6h2.2V31h-2.2V22.6z"/>
									<path d="M177.2,22.6h1.8l0.1,0.9h0.1c0.7-0.6,1.6-1.1,2.5-1.1c2.1,0,3.3,1.7,3.3,4.3c0,2.9-1.7,4.5-3.6,4.5
										c-0.7,0-1.4-0.3-2.1-0.9l0.1,1.4v2.5h-2.2V22.6z M182.7,26.7c0-1.6-0.5-2.5-1.7-2.5c-0.6,0-1.1,0.3-1.7,0.9v3.7
										c0.5,0.5,1.1,0.6,1.5,0.6C181.9,29.4,182.7,28.5,182.7,26.7z"/>
									<path d="M190.5,28.1v-3.7h-1.2v-1.6l1.3-0.1l0.3-2.2h1.8v2.2h2.1v1.7h-2.1v3.7c0,1,0.4,1.4,1.1,1.4c0.3,0,0.6-0.1,0.8-0.2
										l0.4,1.6c-0.5,0.2-1,0.3-1.8,0.3C191.3,31.2,190.5,30,190.5,28.1z"/>
									<path d="M195.7,26.8c0-2.8,1.9-4.4,4-4.4c2.1,0,4,1.6,4,4.4c0,2.8-1.9,4.4-4,4.4C197.6,31.2,195.7,29.6,195.7,26.8z
										 M201.5,26.8c0-1.6-0.6-2.6-1.8-2.6c-1.1,0-1.8,1-1.8,2.6c0,1.6,0.6,2.6,1.8,2.6C200.9,29.4,201.5,28.4,201.5,26.8z"/>
									<path d="M208.5,26.8c0-2.7,1.7-4.4,3.5-4.4c0.9,0,1.5,0.4,2.1,0.9l-0.1-1.3v-3h2.2v12h-1.8l-0.2-0.9h0
										c-0.6,0.6-1.5,1.1-2.3,1.1C209.9,31.2,208.5,29.6,208.5,26.8z M214.1,28.5v-3.7c-0.5-0.5-1-0.6-1.6-0.6
										c-0.9,0-1.7,0.9-1.7,2.6c0,1.7,0.6,2.6,1.7,2.6C213.1,29.4,213.6,29.2,214.1,28.5z"/>
									<path d="M218.7,22.6h1.8l0.2,1.5h0.1c0.6-1.1,1.5-1.7,2.4-1.7c0.5,0,0.7,0.1,1,0.2l-0.4,1.9c-0.3-0.1-0.5-0.1-0.9-0.1
										c-0.7,0-1.5,0.4-1.9,1.7v5h-2.2V22.6z"/>
									<path d="M225.1,27.9v-5.2h2.2v5c0,1.3,0.4,1.8,1.2,1.8c0.7,0,1.1-0.3,1.7-1v-5.7h2.2V31h-1.8l-0.2-1.2h-0.1
										c-0.7,0.9-1.5,1.4-2.7,1.4C225.9,31.2,225.1,30,225.1,27.9z"/>
									<path d="M234.2,32.5c0-0.7,0.4-1.3,1.2-1.7v-0.1c-0.4-0.3-0.8-0.7-0.8-1.4c0-0.6,0.4-1.2,0.9-1.6v-0.1
										c-0.6-0.4-1.1-1.2-1.1-2.2c0-2,1.6-3,3.4-3c0.5,0,0.9,0.1,1.3,0.2h3v1.6h-1.4c0.2,0.3,0.4,0.8,0.4,1.3
										c0,1.9-1.4,2.8-3.2,2.8c-0.3,0-0.7-0.1-1.1-0.2c-0.2,0.2-0.4,0.4-0.4,0.7c0,0.5,0.3,0.7,1.3,0.7h1.4c2,0,3.1,0.6,3.1,2.1
										c0,1.7-1.8,3-4.6,3C235.8,34.6,234.2,34,234.2,32.5z M240.2,32c0-0.6-0.5-0.8-1.4-0.8h-1c-0.5,0-0.9,0-1.2-0.1
										c-0.4,0.3-0.6,0.6-0.6,1c0,0.7,0.8,1.1,2,1.1C239.3,33.2,240.2,32.7,240.2,32z M239.2,25.4c0-1-0.6-1.5-1.3-1.5
										s-1.3,0.6-1.3,1.5c0,1,0.6,1.5,1.3,1.5C238.6,27,239.2,26.4,239.2,25.4z"/>
								</g>
							</g>
						</g>
					</g>
					<g class="st1">
						<path class="st4" d="M118.1,14.2h-3.6l-0.8,2.8h-2.2L115,5.9h2.6l3.6,11.1h-2.3L118.1,14.2z M117.6,12.4l-0.3-1.2
							c-0.3-1.2-0.6-2.4-1-3.6h-0.1c-0.3,1.2-0.6,2.5-0.9,3.6l-0.3,1.2H117.6z"/>
						<path class="st4" d="M121.9,12.8c0-2.7,1.7-4.4,3.5-4.4c0.9,0,1.5,0.4,2.1,0.9L127.4,8V5h2.2v12h-1.8l-0.2-0.9h0
							c-0.6,0.6-1.5,1.1-2.3,1.1C123.2,17.2,121.9,15.6,121.9,12.8z M127.4,14.5v-3.7c-0.5-0.5-1-0.6-1.6-0.6
							c-0.9,0-1.7,0.9-1.7,2.6c0,1.7,0.6,2.6,1.7,2.6C126.5,15.4,126.9,15.2,127.4,14.5z"/>
						<path class="st4" d="M131,8.6h2.2l1.2,4.2c0.2,0.8,0.5,1.7,0.7,2.5h0.1c0.2-0.9,0.5-1.7,0.7-2.5l1.2-4.2h2.1l-2.8,8.4h-2.6
							L131,8.6z"/>
						<path class="st4" d="M140,12.8c0-2.7,1.9-4.4,3.9-4.4c2.3,0,3.5,1.7,3.5,4c0,0.4,0,0.8-0.1,1h-5.2c0.2,1.4,1.1,2.1,2.3,2.1
							c0.7,0,1.3-0.2,1.9-0.6l0.8,1.4c-0.8,0.6-1.9,0.9-2.9,0.9C141.8,17.2,140,15.6,140,12.8z M145.5,12c0-1.1-0.5-1.9-1.6-1.9
							c-0.9,0-1.7,0.6-1.8,1.9H145.5z"/>
						<path class="st4" d="M149.2,8.6h1.8l0.1,1.5h0.1c0.6-1.1,1.5-1.7,2.4-1.7c0.5,0,0.7,0.1,1,0.2l-0.4,1.9
							c-0.3-0.1-0.5-0.1-0.9-0.1c-0.7,0-1.5,0.4-1.9,1.7v5h-2.2V8.6z"/>
						<path class="st4" d="M154.9,16l1-1.4c0.8,0.6,1.5,0.9,2.2,0.9c0.8,0,1.2-0.4,1.2-0.9c0-0.6-0.9-0.9-1.8-1.3
							c-1.1-0.4-2.3-1-2.3-2.4c0-1.5,1.2-2.6,3.1-2.6c1.2,0,2.2,0.5,2.9,1l-1,1.3c-0.6-0.4-1.2-0.7-1.8-0.7c-0.8,0-1.1,0.3-1.1,0.8
							c0,0.6,0.8,0.8,1.7,1.2c1.1,0.4,2.3,1,2.3,2.5c0,1.5-1.2,2.7-3.3,2.7C156.9,17.2,155.7,16.7,154.9,16z"/>
						<path class="st4" d="M162.6,12.8c0-2.7,1.9-4.4,3.9-4.4c2.3,0,3.5,1.7,3.5,4c0,0.4,0,0.8-0.1,1h-5.2c0.2,1.4,1.1,2.1,2.3,2.1
							c0.7,0,1.3-0.2,1.9-0.6l0.8,1.4c-0.8,0.6-1.9,0.9-2.9,0.9C164.4,17.2,162.6,15.6,162.6,12.8z M168.1,12c0-1.1-0.5-1.9-1.6-1.9
							c-0.9,0-1.7,0.6-1.8,1.9H168.1z"/>
						<path class="st4" d="M175.4,5.9h6.8v1.8h-4.6v2.6h3.9v1.9h-3.9v3h4.8V17h-7V5.9z"/>
						<path class="st4" d="M183.3,8.6h2.2l1.2,4.2c0.2,0.8,0.5,1.7,0.7,2.5h0.1c0.2-0.9,0.5-1.7,0.7-2.5l1.2-4.2h2.1l-2.8,8.4h-2.5
							L183.3,8.6z"/>
						<path class="st4" d="M192.2,12.8c0-2.7,1.9-4.4,3.9-4.4c2.3,0,3.5,1.7,3.5,4c0,0.4,0,0.8-0.1,1h-5.2c0.2,1.4,1.1,2.1,2.3,2.1
							c0.7,0,1.3-0.2,1.9-0.6l0.8,1.4c-0.8,0.6-1.9,0.9-2.9,0.9C194.1,17.2,192.2,15.6,192.2,12.8z M197.8,12c0-1.1-0.5-1.9-1.6-1.9
							c-0.9,0-1.7,0.6-1.8,1.9H197.8z"/>
						<path class="st4" d="M201.5,8.6h1.8l0.2,1.1h0.1c0.7-0.7,1.6-1.3,2.7-1.3c1.8,0,2.6,1.3,2.6,3.4V17h-2.2v-5
							c0-1.3-0.4-1.8-1.2-1.8c-0.7,0-1.1,0.3-1.8,0.9V17h-2.2V8.6z"/>
						<path class="st4" d="M211.4,14.1v-3.7h-1.2V8.7l1.3-0.1l0.3-2.2h1.8v2.2h2.1v1.7h-2.1v3.7c0,1,0.4,1.4,1.1,1.4
							c0.3,0,0.6-0.1,0.8-0.2l0.4,1.6c-0.5,0.2-1,0.3-1.8,0.3C212.2,17.2,211.4,16,211.4,14.1z"/>
						<path class="st4" d="M216.4,16l1-1.4c0.8,0.6,1.5,0.9,2.2,0.9c0.8,0,1.2-0.4,1.2-0.9c0-0.6-0.9-0.9-1.8-1.3
							c-1.1-0.4-2.3-1-2.3-2.4c0-1.5,1.2-2.6,3.1-2.6c1.2,0,2.2,0.5,2.9,1l-1,1.3c-0.6-0.4-1.2-0.7-1.8-0.7c-0.8,0-1.1,0.3-1.1,0.8
							c0,0.6,0.8,0.8,1.7,1.2c1.1,0.4,2.3,1,2.3,2.5c0,1.5-1.2,2.7-3.3,2.7C218.5,17.2,217.2,16.7,216.4,16z"/>
					</g>
				</g>
			</g>
			<g class="st1">
				<path d="M50.8,7.7h2.1V21h-2.1V7.7z"/>
				<path d="M56.2,11.1h1.7l0.2,1.4h0.1c0.9-0.9,1.9-1.6,3.3-1.6c2.1,0,3,1.4,3,3.9V21h-2.1v-6c0-1.7-0.5-2.4-1.7-2.4
					c-0.9,0-1.5,0.5-2.4,1.3v7h-2.1V11.1z"/>
				<path d="M66.7,16.1c0-3.3,2.3-5.2,4.9-5.2c1.3,0,2.2,0.5,2.9,1.1l-1,1.4c-0.5-0.5-1.1-0.8-1.8-0.8c-1.7,0-2.8,1.4-2.8,3.5
					c0,2.1,1.1,3.5,2.8,3.5c0.8,0,1.6-0.4,2.2-0.9l0.8,1.4c-0.9,0.8-2.1,1.2-3.2,1.2C68.8,21.2,66.7,19.3,66.7,16.1z"/>
				<path d="M76.5,8c0-0.7,0.6-1.2,1.3-1.2s1.3,0.5,1.3,1.2c0,0.7-0.6,1.2-1.3,1.2S76.5,8.7,76.5,8z M76.7,11.1h2.1V21h-2.1V11.1z"
					/>
				<path d="M81.2,16.1c0-3.2,2-5.2,4.2-5.2c1.1,0,1.9,0.4,2.7,1.1l-0.1-1.6V6.6h2.1V21h-1.7l-0.2-1.1h-0.1
					c-0.7,0.8-1.8,1.4-2.9,1.4C82.8,21.2,81.2,19.3,81.2,16.1z M88.1,18.3v-4.8c-0.7-0.7-1.4-0.9-2.2-0.9c-1.4,0-2.5,1.3-2.5,3.5
					c0,2.3,0.9,3.5,2.4,3.5C86.6,19.5,87.3,19.1,88.1,18.3z"/>
				<path d="M92.5,16.1c0-3.2,2.2-5.2,4.5-5.2c2.6,0,4,1.9,4,4.7c0,0.4,0,0.8-0.1,1h-6.4c0.2,1.9,1.4,3,3.1,3c0.9,0,1.6-0.3,2.4-0.7
					l0.7,1.3c-0.9,0.6-2.1,1-3.3,1C94.7,21.2,92.5,19.3,92.5,16.1z M99.3,15.2c0-1.7-0.8-2.7-2.2-2.7c-1.2,0-2.3,1-2.5,2.7H99.3z"/>
				<path d="M103.4,11.1h1.7l0.2,1.4h0.1c0.9-0.9,1.9-1.6,3.3-1.6c2.1,0,3,1.4,3,3.9V21h-2.1v-6c0-1.7-0.5-2.4-1.7-2.4
					c-0.9,0-1.5,0.5-2.4,1.3v7h-2.1V11.1z"/>
				<path d="M113.9,16.1c0-3.3,2.3-5.2,4.9-5.2c1.3,0,2.2,0.5,2.9,1.1l-1,1.4c-0.5-0.5-1.1-0.8-1.8-0.8c-1.7,0-2.8,1.4-2.8,3.5
					c0,2.1,1.1,3.5,2.8,3.5c0.8,0,1.6-0.4,2.2-0.9l0.8,1.4c-0.9,0.8-2.1,1.2-3.2,1.2C116,21.2,113.9,19.3,113.9,16.1z"/>
				<path d="M122.8,16.1c0-3.2,2.2-5.2,4.5-5.2c2.6,0,4,1.9,4,4.7c0,0.4,0,0.8-0.1,1h-6.4c0.2,1.9,1.4,3,3.1,3
					c0.9,0,1.6-0.3,2.4-0.7l0.7,1.3c-0.9,0.6-2.1,1-3.3,1C124.9,21.2,122.8,19.3,122.8,16.1z M129.6,15.2c0-1.7-0.8-2.7-2.2-2.7
					c-1.2,0-2.3,1-2.5,2.7H129.6z"/>
				<path d="M137,16.1c0-3.3,2.2-5.2,4.7-5.2s4.7,1.9,4.7,5.2c0,3.3-2.2,5.2-4.7,5.2S137,19.3,137,16.1z M144.2,16.1
					c0-2.1-1-3.5-2.5-3.5c-1.5,0-2.5,1.4-2.5,3.5c0,2.1,1,3.5,2.5,3.5C143.2,19.5,144.2,18.2,144.2,16.1z"/>
				<path d="M153.5,8.3c-0.4-0.2-0.7-0.3-1.1-0.3c-0.9,0-1.3,0.6-1.3,1.8v1.3h2v1.7h-2V21H149v-8.2h-1.4v-1.5l1.4-0.1V9.9
					c0-2,0.9-3.4,3.1-3.4c0.7,0,1.3,0.1,1.7,0.3L153.5,8.3z"/>
				<path d="M158.4,18.4c0-2.1,1.8-3.2,5.9-3.7c0-1.2-0.4-2.2-1.9-2.2c-1,0-2,0.5-2.9,1l-0.8-1.4c1-0.6,2.4-1.3,4-1.3
					c2.5,0,3.6,1.6,3.6,4.2v6h-1.7l-0.2-1.1h-0.1c-0.9,0.8-2,1.4-3.2,1.4C159.6,21.2,158.4,20.1,158.4,18.4z M164.3,18.4V16
					c-2.9,0.4-3.9,1.1-3.9,2.2c0,1,0.7,1.4,1.5,1.4C162.8,19.6,163.5,19.2,164.3,18.4z"/>
				<path d="M168.7,16.1c0-3.2,2-5.2,4.2-5.2c1.1,0,1.9,0.4,2.7,1.1l-0.1-1.6V6.6h2.1V21h-1.7l-0.2-1.1h-0.1
					c-0.7,0.8-1.8,1.4-2.9,1.4C170.3,21.2,168.7,19.3,168.7,16.1z M175.5,18.3v-4.8c-0.7-0.7-1.4-0.9-2.2-0.9
					c-1.4,0-2.5,1.3-2.5,3.5c0,2.3,0.9,3.5,2.4,3.5C174.1,19.5,174.8,19.1,175.5,18.3z"/>
				<path d="M179.3,11.1h2.1l1.7,5.3c0.3,1,0.6,2,0.9,3h0.1c0.3-1,0.6-2,0.9-3l1.7-5.3h2l-3.4,9.9h-2.4L179.3,11.1z"/>
				<path d="M189.7,16.1c0-3.2,2.2-5.2,4.5-5.2c2.6,0,4,1.9,4,4.7c0,0.4,0,0.8-0.1,1h-6.4c0.2,1.9,1.4,3,3.1,3
					c0.9,0,1.6-0.3,2.4-0.7l0.7,1.3c-0.9,0.6-2.1,1-3.3,1C191.8,21.2,189.7,19.3,189.7,16.1z M196.4,15.2c0-1.7-0.8-2.7-2.2-2.7
					c-1.2,0-2.3,1-2.5,2.7H196.4z"/>
				<path d="M200.5,11.1h1.7l0.2,1.8h0.1c0.7-1.3,1.7-2,2.8-2c0.5,0,0.8,0.1,1.1,0.2l-0.4,1.8c-0.3-0.1-0.6-0.2-1-0.2
					c-0.8,0-1.8,0.6-2.4,2.1V21h-2.1V11.1z"/>
				<path d="M206.7,19.9l1-1.3c0.9,0.7,1.7,1.1,2.8,1.1c1.2,0,1.7-0.6,1.7-1.3c0-0.9-1.1-1.3-2.2-1.7c-1.3-0.5-2.8-1.2-2.8-2.9
					c0-1.7,1.3-2.9,3.5-2.9c1.3,0,2.4,0.5,3.2,1.2l-1,1.3c-0.7-0.5-1.4-0.9-2.2-0.9c-1.1,0-1.6,0.5-1.6,1.2c0,0.8,1,1.2,2.1,1.6
					c1.4,0.5,2.9,1.1,2.9,3c0,1.7-1.3,3-3.8,3C209.1,21.2,207.7,20.7,206.7,19.9z"/>
				<path d="M215.7,16.1c0-3.2,2.2-5.2,4.5-5.2c2.6,0,4,1.9,4,4.7c0,0.4,0,0.8-0.1,1h-6.4c0.2,1.9,1.4,3,3.1,3
					c0.9,0,1.6-0.3,2.4-0.7l0.7,1.3c-0.9,0.6-2.1,1-3.3,1C217.9,21.2,215.7,19.3,215.7,16.1z M222.5,15.2c0-1.7-0.8-2.7-2.2-2.7
					c-1.2,0-2.3,1-2.5,2.7H222.5z"/>
				<path d="M229.9,16.1c0-3.2,2.2-5.2,4.5-5.2c2.6,0,4,1.9,4,4.7c0,0.4,0,0.8-0.1,1H232c0.2,1.9,1.4,3,3.1,3c0.9,0,1.6-0.3,2.4-0.7
					l0.7,1.3c-0.9,0.6-2.1,1-3.3,1C232.1,21.2,229.9,19.3,229.9,16.1z M236.7,15.2c0-1.7-0.8-2.7-2.2-2.7c-1.2,0-2.3,1-2.5,2.7
					H236.7z"/>
				<path d="M239.5,11.1h2.1l1.7,5.3c0.3,1,0.6,2,0.9,3h0.1c0.3-1,0.6-2,0.9-3l1.7-5.3h2l-3.4,9.9H243L239.5,11.1z"/>
				<path d="M249.8,16.1c0-3.2,2.2-5.2,4.5-5.2c2.6,0,4,1.9,4,4.7c0,0.4,0,0.8-0.1,1h-6.4c0.2,1.9,1.4,3,3.1,3
					c0.9,0,1.6-0.3,2.4-0.7l0.7,1.3c-0.9,0.6-2.1,1-3.3,1C252,21.2,249.8,19.3,249.8,16.1z M256.6,15.2c0-1.7-0.8-2.7-2.2-2.7
					c-1.2,0-2.3,1-2.5,2.7H256.6z"/>
				<path d="M260.7,11.1h1.7l0.2,1.4h0.1c0.9-0.9,1.9-1.6,3.3-1.6c2.1,0,3,1.4,3,3.9V21h-2.1v-6c0-1.7-0.5-2.4-1.7-2.4
					c-0.9,0-1.5,0.5-2.4,1.3v7h-2.1V11.1z"/>
				<path d="M272.2,17.8v-5h-1.4v-1.5l1.5-0.1l0.2-2.7h1.7v2.7h2.6v1.7h-2.6v5c0,1.2,0.4,1.8,1.4,1.8c0.3,0,0.8-0.1,1.1-0.2l0.4,1.5
					c-0.6,0.2-1.2,0.4-1.9,0.4C273,21.2,272.2,19.8,272.2,17.8z"/>
				<path d="M277.8,19.9l1-1.3c0.9,0.7,1.7,1.1,2.8,1.1c1.2,0,1.7-0.6,1.7-1.3c0-0.9-1.1-1.3-2.2-1.7c-1.3-0.5-2.8-1.2-2.8-2.9
					c0-1.7,1.3-2.9,3.5-2.9c1.3,0,2.4,0.5,3.2,1.2l-1,1.3c-0.7-0.5-1.4-0.9-2.2-0.9c-1.1,0-1.6,0.5-1.6,1.2c0,0.8,1,1.2,2.1,1.6
					c1.4,0.5,2.9,1.1,2.9,3c0,1.7-1.3,3-3.8,3C280.2,21.2,278.8,20.7,277.8,19.9z"/>
			</g>
			<text transform="matrix(1 0 0 1 285.9191 21)" class="st5 st6"> </text>
			<g class="st1">
				<path d="M107.7,45.4c0-2.1,1.8-3.2,5.9-3.7c0-1.2-0.4-2.2-1.9-2.2c-1,0-2,0.5-2.9,1l-0.8-1.4c1-0.6,2.4-1.3,4-1.3
					c2.5,0,3.6,1.6,3.6,4.2v6H114l-0.2-1.1h-0.1c-0.9,0.8-2,1.4-3.2,1.4C108.9,48.2,107.7,47.1,107.7,45.4z M113.6,45.4V43
					c-2.9,0.4-3.9,1.1-3.9,2.2c0,1,0.7,1.4,1.5,1.4C112.1,46.6,112.8,46.2,113.6,45.4z"/>
				<path d="M118.6,38.1h1.7l0.2,1.4h0.1c0.9-0.9,1.9-1.6,3.3-1.6c2.1,0,3,1.4,3,3.9V48h-2.1v-6c0-1.7-0.5-2.4-1.7-2.4
					c-0.9,0-1.5,0.5-2.4,1.3v7h-2.1V38.1z"/>
				<path d="M129.2,43.1c0-3.2,2-5.2,4.2-5.2c1.1,0,1.9,0.4,2.7,1.1l-0.1-1.6v-3.7h2.1V48h-1.7l-0.2-1.1h-0.1
					c-0.7,0.8-1.8,1.4-2.9,1.4C130.8,48.2,129.2,46.3,129.2,43.1z M136,45.3v-4.8c-0.7-0.7-1.4-0.9-2.2-0.9c-1.4,0-2.5,1.3-2.5,3.5
					c0,2.3,0.9,3.5,2.4,3.5C134.6,46.5,135.3,46.1,136,45.3z"/>
				<path d="M144.5,43.1c0-3.3,2.2-5.2,4.7-5.2s4.7,1.9,4.7,5.2c0,3.3-2.2,5.2-4.7,5.2S144.5,46.3,144.5,43.1z M151.7,43.1
					c0-2.1-1-3.5-2.5-3.5c-1.5,0-2.5,1.4-2.5,3.5c0,2.1,1,3.5,2.5,3.5C150.7,46.5,151.7,45.2,151.7,43.1z"/>
				<path d="M156.1,44.3v-6.2h2.1v6c0,1.7,0.5,2.4,1.7,2.4c0.9,0,1.5-0.4,2.4-1.5v-6.9h2.1V48h-1.7l-0.2-1.5h-0.1
					c-0.9,1-1.9,1.7-3.2,1.7C157.1,48.2,156.1,46.8,156.1,44.3z"/>
				<path d="M167.7,44.8v-5h-1.4v-1.5l1.5-0.1l0.2-2.7h1.7v2.7h2.6v1.7h-2.6v5c0,1.2,0.4,1.8,1.4,1.8c0.3,0,0.8-0.1,1.1-0.2l0.4,1.5
					c-0.6,0.2-1.2,0.4-1.9,0.4C168.5,48.2,167.7,46.8,167.7,44.8z"/>
				<path d="M173.5,43.1c0-3.3,2.3-5.2,4.9-5.2c1.3,0,2.2,0.5,2.9,1.1l-1,1.4c-0.5-0.5-1.1-0.8-1.8-0.8c-1.7,0-2.8,1.4-2.8,3.5
					c0,2.1,1.1,3.5,2.8,3.5c0.8,0,1.6-0.4,2.2-0.9l0.8,1.4c-0.9,0.8-2.1,1.2-3.2,1.2C175.6,48.2,173.5,46.3,173.5,43.1z"/>
				<path d="M182.4,43.1c0-3.3,2.2-5.2,4.7-5.2c2.4,0,4.7,1.9,4.7,5.2c0,3.3-2.2,5.2-4.7,5.2C184.6,48.2,182.4,46.3,182.4,43.1z
					 M189.6,43.1c0-2.1-1-3.5-2.5-3.5c-1.5,0-2.5,1.4-2.5,3.5c0,2.1,1,3.5,2.5,3.5C188.6,46.5,189.6,45.2,189.6,43.1z"/>
				<path d="M194.1,38.1h1.7l0.2,1.4h0.1c0.8-0.9,1.8-1.6,3.1-1.6c1.5,0,2.3,0.7,2.7,1.8c1-1,2-1.8,3.2-1.8c2.1,0,3,1.4,3,3.9V48
					H206v-6c0-1.7-0.5-2.4-1.7-2.4c-0.7,0-1.4,0.5-2.2,1.3v7h-2.1v-6c0-1.7-0.5-2.4-1.7-2.4c-0.7,0-1.4,0.5-2.2,1.3v7h-2.1V38.1z"/>
				<path d="M210.4,43.1c0-3.2,2.2-5.2,4.5-5.2c2.6,0,4,1.9,4,4.7c0,0.4,0,0.8-0.1,1h-6.4c0.2,1.9,1.4,3,3.1,3
					c0.9,0,1.6-0.3,2.4-0.7l0.7,1.3c-0.9,0.6-2.1,1-3.3,1C212.5,48.2,210.4,46.3,210.4,43.1z M217.2,42.2c0-1.7-0.8-2.7-2.2-2.7
					c-1.2,0-2.3,1-2.5,2.7H217.2z"/>
				<path d="M220.2,46.9l1-1.3c0.9,0.7,1.7,1.1,2.8,1.1c1.2,0,1.7-0.6,1.7-1.3c0-0.9-1.1-1.3-2.2-1.7c-1.3-0.5-2.8-1.2-2.8-2.9
					c0-1.7,1.3-2.9,3.5-2.9c1.3,0,2.4,0.5,3.2,1.2l-1,1.3c-0.7-0.5-1.4-0.9-2.2-0.9c-1.1,0-1.6,0.5-1.6,1.2c0,0.8,1,1.2,2.1,1.6
					c1.4,0.5,2.9,1.1,2.9,3c0,1.7-1.3,3-3.8,3C222.6,48.2,221.2,47.7,220.2,46.9z"/>
			</g>
		</g>
	</g>
</g>
</svg>
