<?xml version="1.0" encoding="utf-8"?>
<!-- Generator: Adobe Illustrator 23.0.1, SVG Export Plug-In . SVG Version: 6.00 Build 0)  -->
<svg version="1.1" id="Layer_1" xmlns="http://www.w3.org/2000/svg" xmlns:xlink="http://www.w3.org/1999/xlink" x="0px" y="0px"
	 viewBox="0 0 1002 169" style="enable-background:new 0 0 1002 169;" xml:space="preserve">
<style type="text/css">
	.st0{fill-rule:evenodd;clip-rule:evenodd;}
	.st1{enable-background:new    ;}
	.st2{fill:#FFFFFF;}
	.st3{font-family:'NotoSansKR-Bold-KSCpc-EUC-H';}
	.st4{font-size:15px;}
	.st5{fill:none;stroke:#979797;stroke-linecap:square;}
</style>
<title>표6</title>
<desc>Created with Sketch.</desc>
<g id="Page-1">
	<g transform="translate(-219.000000, -5487.000000)">
		<g id="표6" transform="translate(220.000000, 5481.000000)">
			<g id="head" transform="translate(0.000000, 47.000000)">
				<g>
					<path id="bg" class="st0" d="M8,0h234c4.4,0,8,3.6,8,8v44c0,4.4-3.6,8-8,8H8c-4.4,0-8-3.6-8-8V8C0,3.6,3.6,0,8,0z"/>
					<g class="st1">
						<path class="st2" d="M53.4,24.9h6.8v1.8h-4.6v2.6h3.9v1.9h-3.9v3h4.8V36h-7V24.9z"/>
						<path class="st2" d="M68,26.9c0-1.8,0.8-3.1,2.9-3.1c0.7,0,1.2,0.2,1.6,0.3l-0.4,1.6c-0.3-0.1-0.6-0.2-0.9-0.2
							c-0.7,0-1,0.4-1,1.3v0.7h1.6v1.7h-1.6V36H68v-6.7h-3V36h-2.2v-6.7h-1.1v-1.6l1.1-0.1V27c0-1.7,0.9-3,3-3
							c0.7,0,1.3,0.2,1.7,0.3l-0.4,1.6c-0.3-0.1-0.6-0.2-1-0.2c-0.6,0-1.1,0.4-1.1,1.3v0.6h3V26.9z M73,25.1c0-0.7,0.6-1.2,1.3-1.2
							c0.8,0,1.3,0.5,1.3,1.2c0,0.7-0.6,1.2-1.3,1.2C73.6,26.2,73,25.7,73,25.1z M73.2,27.6h2.2V36h-2.2V27.6z"/>
						<path class="st2" d="M77.2,31.8c0-2.8,2-4.4,4.3-4.4c1,0,1.8,0.4,2.4,0.9l-1,1.4c-0.4-0.4-0.8-0.6-1.3-0.6
							c-1.3,0-2.1,1-2.1,2.6c0,1.6,0.9,2.6,2.1,2.6c0.6,0,1.2-0.3,1.6-0.7l0.9,1.5c-0.8,0.7-1.8,1-2.7,1
							C79,36.2,77.2,34.6,77.2,31.8z"/>
						<path class="st2" d="M85.1,33.7c0-1.8,1.5-2.7,4.8-3.1c0-0.8-0.4-1.5-1.4-1.5c-0.8,0-1.5,0.3-2.3,0.8l-0.8-1.5
							c1-0.6,2.2-1.1,3.5-1.1c2.1,0,3.2,1.3,3.2,3.7V36h-1.8l-0.2-0.9h0c-0.7,0.6-1.6,1.1-2.5,1.1C86.1,36.2,85.1,35.1,85.1,33.7z
							 M89.9,33.7V32c-2,0.3-2.7,0.8-2.7,1.6c0,0.7,0.5,0.9,1.1,0.9C88.9,34.5,89.4,34.2,89.9,33.7z"/>
						<path class="st2" d="M93.8,31.8c0-2.8,2-4.4,4.3-4.4c1,0,1.8,0.4,2.4,0.9l-1,1.4c-0.4-0.4-0.8-0.6-1.3-0.6
							c-1.3,0-2.1,1-2.1,2.6c0,1.6,0.9,2.6,2.1,2.6c0.6,0,1.2-0.3,1.6-0.7l0.9,1.5c-0.8,0.7-1.8,1-2.7,1
							C95.6,36.2,93.8,34.6,93.8,31.8z"/>
						<path class="st2" d="M101.9,39.2l0.4-1.7c0.1,0,0.4,0.1,0.6,0.1c0.9,0,1.3-0.5,1.6-1.3l0.1-0.5l-3.3-8.2h2.2l1.3,3.9
							c0.3,0.8,0.5,1.6,0.7,2.4h0.1c0.2-0.8,0.4-1.6,0.6-2.4l1.2-3.9h2.1l-3,8.7c-0.7,2-1.6,3.1-3.5,3.1
							C102.5,39.4,102.2,39.3,101.9,39.2z"/>
						<path class="st2" d="M114.5,24.9h3.6c2.5,0,4.3,0.9,4.3,3.5c0,2.5-1.9,3.7-4.3,3.7h-1.5V36h-2.2V24.9z M118.1,30.3
							c1.5,0,2.3-0.6,2.3-1.9c0-1.3-0.8-1.7-2.3-1.7h-1.3v3.6H118.1z"/>
						<path class="st2" d="M123.3,33.7c0-1.8,1.5-2.7,4.8-3.1c0-0.8-0.4-1.5-1.4-1.5c-0.8,0-1.5,0.3-2.3,0.8l-0.8-1.5
							c1-0.6,2.2-1.1,3.5-1.1c2.1,0,3.2,1.3,3.2,3.7V36h-1.8l-0.2-0.9h0c-0.7,0.6-1.6,1.1-2.5,1.1C124.3,36.2,123.3,35.1,123.3,33.7
							z M128.1,33.7V32c-2,0.3-2.7,0.8-2.7,1.6c0,0.7,0.5,0.9,1.1,0.9C127.1,34.5,127.6,34.2,128.1,33.7z"/>
						<path class="st2" d="M132.6,27.6h1.8l0.1,1.5h0.1c0.6-1.1,1.5-1.7,2.4-1.7c0.5,0,0.7,0.1,1,0.2l-0.4,1.9
							c-0.3-0.1-0.5-0.1-0.9-0.1c-0.7,0-1.5,0.4-1.9,1.7v5h-2.2V27.6z"/>
						<path class="st2" d="M138.2,33.7c0-1.8,1.5-2.7,4.8-3.1c0-0.8-0.4-1.5-1.4-1.5c-0.8,0-1.5,0.3-2.3,0.8l-0.8-1.5
							c1-0.6,2.2-1.1,3.5-1.1c2.1,0,3.2,1.3,3.2,3.7V36h-1.8l-0.2-0.9h0c-0.7,0.6-1.6,1.1-2.5,1.1C139.2,36.2,138.2,35.1,138.2,33.7
							z M143.1,33.7V32c-2,0.3-2.7,0.8-2.7,1.6c0,0.7,0.5,0.9,1.1,0.9C142.1,34.5,142.5,34.2,143.1,33.7z"/>
						<path class="st2" d="M147.5,27.6h1.8l0.1,1.1h0.1c0.7-0.7,1.5-1.3,2.6-1.3c1.2,0,1.9,0.5,2.3,1.5c0.8-0.8,1.6-1.5,2.7-1.5
							c1.8,0,2.6,1.3,2.6,3.4V36h-2.2v-5c0-1.3-0.4-1.8-1.2-1.8c-0.5,0-1,0.3-1.6,0.9V36h-2.2v-5c0-1.3-0.4-1.8-1.2-1.8
							c-0.5,0-1,0.3-1.6,0.9V36h-2.2V27.6z"/>
						<path class="st2" d="M161.5,31.8c0-2.7,1.9-4.4,3.9-4.4c2.3,0,3.5,1.7,3.5,4c0,0.4,0,0.8-0.1,1h-5.2c0.2,1.4,1.1,2.1,2.3,2.1
							c0.7,0,1.3-0.2,1.9-0.6l0.8,1.4c-0.8,0.6-1.9,0.9-2.9,0.9C163.3,36.2,161.5,34.6,161.5,31.8z M167,31c0-1.1-0.5-1.9-1.6-1.9
							c-0.9,0-1.7,0.6-1.8,1.9H167z"/>
						<path class="st2" d="M170.8,33.1v-3.7h-1.2v-1.6l1.3-0.1l0.3-2.2h1.8v2.2h2.1v1.7H173v3.7c0,1,0.4,1.4,1.1,1.4
							c0.3,0,0.6-0.1,0.8-0.2l0.4,1.6c-0.5,0.2-1,0.3-1.8,0.3C171.6,36.2,170.8,35,170.8,33.1z"/>
						<path class="st2" d="M176,31.8c0-2.7,1.9-4.4,3.9-4.4c2.3,0,3.5,1.7,3.5,4c0,0.4,0,0.8-0.1,1h-5.2c0.2,1.4,1.1,2.1,2.3,2.1
							c0.7,0,1.3-0.2,1.9-0.6l0.8,1.4c-0.8,0.6-1.9,0.9-2.9,0.9C177.8,36.2,176,34.6,176,31.8z M181.5,31c0-1.1-0.5-1.9-1.6-1.9
							c-0.9,0-1.7,0.6-1.8,1.9H181.5z"/>
						<path class="st2" d="M185.2,27.6h1.8l0.1,1.5h0.1c0.6-1.1,1.5-1.7,2.4-1.7c0.5,0,0.7,0.1,1,0.2l-0.4,1.9
							c-0.3-0.1-0.5-0.1-0.9-0.1c-0.7,0-1.5,0.4-1.9,1.7v5h-2.2V27.6z"/>
						<path class="st2" d="M190.9,35l1-1.4c0.8,0.6,1.5,0.9,2.2,0.9c0.8,0,1.2-0.4,1.2-0.9c0-0.6-0.9-0.9-1.8-1.3
							c-1.1-0.4-2.3-1-2.3-2.4c0-1.5,1.2-2.6,3.1-2.6c1.2,0,2.2,0.5,2.9,1l-1,1.3c-0.6-0.4-1.2-0.7-1.8-0.7c-0.8,0-1.1,0.3-1.1,0.8
							c0,0.6,0.8,0.8,1.7,1.2c1.1,0.4,2.3,1,2.3,2.5c0,1.5-1.2,2.7-3.3,2.7C192.9,36.2,191.7,35.7,190.9,35z"/>
					</g>
				</g>
				<g transform="translate(260.000000, 0.000000)">
					<path class="st0" d="M8,0h224c4.4,0,8,3.6,8,8v44c0,4.4-3.6,8-8,8H8c-4.4,0-8-3.6-8-8V8C0,3.6,3.6,0,8,0z"/>
					<g class="st1">
						<path class="st2" d="M67.9,25l-2.3-4.2h-1.5V25h-2.2V13.9h3.9c2.3,0,4.2,0.8,4.2,3.4c0,1.7-0.8,2.7-2.1,3.2l2.6,4.5H67.9z
							 M64.1,19h1.4c1.4,0,2.2-0.6,2.2-1.8c0-1.2-0.8-1.6-2.2-1.6h-1.4V19z"/>
						<path class="st2" d="M71.2,20.8c0-2.7,1.9-4.4,3.9-4.4c2.3,0,3.5,1.7,3.5,4c0,0.4,0,0.8-0.1,1h-5.2c0.2,1.4,1.1,2.1,2.3,2.1
							c0.7,0,1.3-0.2,1.9-0.6l0.8,1.4c-0.8,0.6-1.9,0.9-2.9,0.9C73,25.2,71.2,23.6,71.2,20.8z M76.7,20c0-1.1-0.5-1.9-1.6-1.9
							c-0.9,0-1.7,0.6-1.8,1.9H76.7z"/>
						<path class="st2" d="M79.7,26.5c0-0.7,0.4-1.3,1.2-1.7v-0.1c-0.4-0.3-0.8-0.7-0.8-1.4c0-0.6,0.4-1.2,0.9-1.6v-0.1
							c-0.6-0.4-1.1-1.2-1.1-2.2c0-2,1.6-3,3.4-3c0.5,0,0.9,0.1,1.3,0.2h3v1.6h-1.4c0.2,0.3,0.4,0.8,0.4,1.3c0,1.9-1.4,2.8-3.2,2.8
							c-0.3,0-0.7-0.1-1.1-0.2c-0.2,0.2-0.4,0.4-0.4,0.7c0,0.5,0.3,0.7,1.3,0.7h1.4c2,0,3.1,0.6,3.1,2.1c0,1.7-1.8,3-4.6,3
							C81.2,28.6,79.7,28,79.7,26.5z M85.7,26c0-0.6-0.5-0.8-1.4-0.8h-1c-0.5,0-0.9,0-1.2-0.1c-0.4,0.3-0.6,0.6-0.6,1
							c0,0.7,0.8,1.1,2,1.1C84.8,27.2,85.7,26.7,85.7,26z M84.6,19.4c0-1-0.6-1.5-1.3-1.5S82,18.4,82,19.4c0,1,0.6,1.5,1.3,1.5
							S84.6,20.4,84.6,19.4z"/>
						<path class="st2" d="M89,14.1c0-0.7,0.6-1.2,1.3-1.2c0.8,0,1.3,0.5,1.3,1.2c0,0.7-0.6,1.2-1.3,1.2C89.5,15.2,89,14.7,89,14.1z
							 M89.2,16.6h2.2V25h-2.2V16.6z"/>
						<path class="st2" d="M93.2,20.8c0-2.8,1.9-4.4,4-4.4s4,1.6,4,4.4c0,2.8-1.9,4.4-4,4.4S93.2,23.6,93.2,20.8z M99.1,20.8
							c0-1.6-0.6-2.6-1.8-2.6s-1.8,1-1.8,2.6c0,1.6,0.6,2.6,1.8,2.6S99.1,22.4,99.1,20.8z"/>
						<path class="st2" d="M103.2,16.6h1.8l0.1,1.1h0.1c0.7-0.7,1.6-1.3,2.7-1.3c1.8,0,2.6,1.3,2.6,3.4V25h-2.2v-5
							c0-1.3-0.4-1.8-1.2-1.8c-0.7,0-1.1,0.3-1.8,0.9V25h-2.2V16.6z"/>
						<path class="st2" d="M112.3,22.7c0-1.8,1.5-2.7,4.8-3.1c0-0.8-0.4-1.5-1.4-1.5c-0.8,0-1.5,0.3-2.3,0.8l-0.8-1.5
							c1-0.6,2.2-1.1,3.5-1.1c2.1,0,3.2,1.3,3.2,3.7V25h-1.8l-0.2-0.9h0c-0.7,0.6-1.6,1.1-2.5,1.1C113.3,25.2,112.3,24.1,112.3,22.7
							z M117.2,22.7V21c-2,0.3-2.7,0.8-2.7,1.6c0,0.7,0.5,0.9,1.1,0.9C116.2,23.5,116.7,23.2,117.2,22.7z"/>
						<path class="st2" d="M121.6,22.6V13h2.2v9.7c0,0.5,0.2,0.7,0.4,0.7c0.1,0,0.1,0,0.3,0l0.3,1.6c-0.3,0.1-0.6,0.2-1.1,0.2
							C122.2,25.2,121.6,24.2,121.6,22.6z"/>
						<path class="st2" d="M129.2,23.6l1.3-1.5c0.8,0.7,1.8,1.2,2.8,1.2c1.2,0,1.8-0.5,1.8-1.3c0-0.8-0.7-1.1-1.7-1.5l-1.5-0.6
							c-1.1-0.5-2.2-1.4-2.2-3c0-1.8,1.6-3.2,3.8-3.2c1.3,0,2.6,0.5,3.5,1.4l-1.1,1.4c-0.7-0.6-1.4-0.9-2.4-0.9
							c-1,0-1.6,0.4-1.6,1.2c0,0.8,0.8,1.1,1.7,1.5l1.5,0.6c1.3,0.6,2.2,1.4,2.2,3c0,1.8-1.5,3.4-4.1,3.4
							C131.8,25.2,130.3,24.6,129.2,23.6z"/>
						<path class="st2" d="M139,22.1v-3.7h-1.2v-1.6l1.3-0.1l0.3-2.2h1.8v2.2h2.1v1.7h-2.1v3.7c0,1,0.4,1.4,1.1,1.4
							c0.3,0,0.6-0.1,0.8-0.2l0.4,1.6c-0.5,0.2-1,0.3-1.8,0.3C139.7,25.2,139,24,139,22.1z"/>
						<path class="st2" d="M145,16.6h1.8l0.1,1.5h0.1c0.6-1.1,1.5-1.7,2.4-1.7c0.5,0,0.7,0.1,1,0.2l-0.4,1.9
							c-0.3-0.1-0.5-0.1-0.9-0.1c-0.7,0-1.5,0.4-1.9,1.7v5H145V16.6z"/>
						<path class="st2" d="M150.8,20.8c0-2.7,1.9-4.4,3.9-4.4c2.3,0,3.5,1.7,3.5,4c0,0.4,0,0.8-0.1,1h-5.2c0.2,1.4,1.1,2.1,2.3,2.1
							c0.7,0,1.3-0.2,1.9-0.6l0.8,1.4c-0.8,0.6-1.9,0.9-2.9,0.9C152.6,25.2,150.8,23.6,150.8,20.8z M156.3,20c0-1.1-0.5-1.9-1.6-1.9
							c-0.9,0-1.7,0.6-1.8,1.9H156.3z"/>
						<path class="st2" d="M159.2,24l1-1.4c0.8,0.6,1.5,0.9,2.2,0.9c0.8,0,1.2-0.4,1.2-0.9c0-0.6-0.9-0.9-1.8-1.3
							c-1.1-0.4-2.3-1-2.3-2.4c0-1.5,1.2-2.6,3.1-2.6c1.2,0,2.2,0.5,2.9,1l-1,1.3c-0.6-0.4-1.2-0.7-1.8-0.7c-0.8,0-1.1,0.3-1.1,0.8
							c0,0.6,0.8,0.8,1.7,1.2c1.1,0.4,2.3,1,2.3,2.5c0,1.5-1.2,2.7-3.3,2.7C161.3,25.2,160.1,24.7,159.2,24z"/>
						<path class="st2" d="M166.7,24l1-1.4c0.8,0.6,1.5,0.9,2.2,0.9c0.8,0,1.2-0.4,1.2-0.9c0-0.6-0.9-0.9-1.8-1.3
							c-1.1-0.4-2.3-1-2.3-2.4c0-1.5,1.2-2.6,3.1-2.6c1.2,0,2.2,0.5,2.9,1l-1,1.3c-0.6-0.4-1.2-0.7-1.8-0.7c-0.8,0-1.1,0.3-1.1,0.8
							c0,0.6,0.8,0.8,1.7,1.2c1.1,0.4,2.3,1,2.3,2.5c0,1.5-1.2,2.7-3.3,2.7C168.7,25.2,167.5,24.7,166.7,24z"/>
						<path class="st2" d="M177.6,12.9h1.5l-3.7,14.8h-1.5L177.6,12.9z"/>
					</g>
					<text transform="matrix(1 0 0 1 179.5182 25)" class="st2 st3 st4"> </text>
					<g class="st1">
						<path class="st2" d="M74.1,47l-2.3-4.2h-1.5V47h-2.2V35.9H72c2.3,0,4.2,0.8,4.2,3.4c0,1.7-0.8,2.7-2.1,3.2l2.6,4.5H74.1z
							 M70.3,41h1.4c1.4,0,2.2-0.6,2.2-1.8c0-1.2-0.8-1.6-2.2-1.6h-1.4V41z"/>
						<path class="st2" d="M77.4,42.8c0-2.7,1.9-4.4,3.9-4.4c2.3,0,3.5,1.7,3.5,4c0,0.4,0,0.8-0.1,1h-5.2c0.2,1.4,1.1,2.1,2.3,2.1
							c0.7,0,1.3-0.2,1.9-0.6l0.8,1.4c-0.8,0.6-1.9,0.9-2.9,0.9C79.3,47.2,77.4,45.6,77.4,42.8z M83,42c0-1.1-0.5-1.9-1.6-1.9
							c-0.9,0-1.7,0.6-1.8,1.9H83z"/>
						<path class="st2" d="M85.9,46l1-1.4c0.8,0.6,1.5,0.9,2.2,0.9c0.8,0,1.2-0.4,1.2-0.9c0-0.6-0.9-0.9-1.8-1.3
							c-1.1-0.4-2.3-1-2.3-2.4c0-1.5,1.2-2.6,3.1-2.6c1.2,0,2.2,0.5,2.9,1l-1,1.3c-0.6-0.4-1.2-0.7-1.8-0.7c-0.8,0-1.1,0.3-1.1,0.8
							c0,0.6,0.8,0.8,1.7,1.2c1.1,0.4,2.3,1,2.3,2.5c0,1.5-1.2,2.7-3.3,2.7C87.9,47.2,86.7,46.7,85.9,46z"/>
						<path class="st2" d="M94.1,44.1v-3.7h-1.2v-1.6l1.3-0.1l0.3-2.2h1.8v2.2h2.1v1.7h-2.1v3.7c0,1,0.4,1.4,1.1,1.4
							c0.3,0,0.6-0.1,0.8-0.2l0.4,1.6c-0.5,0.2-1,0.3-1.8,0.3C94.8,47.2,94.1,46,94.1,44.1z"/>
						<path class="st2" d="M103.6,35.9h3.6c2.5,0,4.3,0.9,4.3,3.5c0,2.5-1.9,3.7-4.3,3.7h-1.5V47h-2.2V35.9z M107.2,41.3
							c1.5,0,2.3-0.6,2.3-1.9c0-1.3-0.8-1.7-2.3-1.7h-1.3v3.6H107.2z"/>
						<path class="st2" d="M112.6,42.8c0-2.7,1.9-4.4,3.9-4.4c2.3,0,3.5,1.7,3.5,4c0,0.4,0,0.8-0.1,1h-5.2c0.2,1.4,1.1,2.1,2.3,2.1
							c0.7,0,1.3-0.2,1.9-0.6l0.8,1.4c-0.8,0.6-1.9,0.9-2.9,0.9C114.4,47.2,112.6,45.6,112.6,42.8z M118.1,42c0-1.1-0.5-1.9-1.6-1.9
							c-0.9,0-1.7,0.6-1.8,1.9H118.1z"/>
						<path class="st2" d="M121.8,38.6h1.8l0.1,1.5h0.1c0.6-1.1,1.5-1.7,2.4-1.7c0.5,0,0.7,0.1,1,0.2l-0.4,1.9
							c-0.3-0.1-0.5-0.1-0.9-0.1c-0.7,0-1.5,0.4-1.9,1.7v5h-2.2V38.6z"/>
						<path class="st2" d="M132.8,36.7c-0.3-0.1-0.6-0.2-0.9-0.2c-0.7,0-1,0.4-1,1.3v0.7h1.6v1.7h-1.6V47h-2.2v-6.7h-1.1v-1.6
							l1.1-0.1v-0.7c0-1.8,0.8-3.1,2.9-3.1c0.6,0,1.2,0.2,1.6,0.3L132.8,36.7z"/>
						<path class="st2" d="M133.8,43.9v-5.2h2.2v5c0,1.3,0.4,1.8,1.2,1.8c0.7,0,1.1-0.3,1.7-1v-5.7h2.2V47h-1.8l-0.2-1.2h-0.1
							c-0.7,0.9-1.5,1.4-2.7,1.4C134.6,47.2,133.8,46,133.8,43.9z"/>
						<path class="st2" d="M142.7,46l1-1.4c0.8,0.6,1.5,0.9,2.2,0.9c0.8,0,1.2-0.4,1.2-0.9c0-0.6-0.9-0.9-1.8-1.3
							c-1.1-0.4-2.3-1-2.3-2.4c0-1.5,1.2-2.6,3.1-2.6c1.2,0,2.2,0.5,2.9,1l-1,1.3c-0.6-0.4-1.2-0.7-1.8-0.7c-0.8,0-1.1,0.3-1.1,0.8
							c0,0.6,0.8,0.8,1.7,1.2c1.1,0.4,2.3,1,2.3,2.5c0,1.5-1.2,2.7-3.3,2.7C144.7,47.2,143.5,46.7,142.7,46z"/>
						<path class="st2" d="M150.7,36.1c0-0.7,0.6-1.2,1.3-1.2c0.8,0,1.3,0.5,1.3,1.2c0,0.7-0.6,1.2-1.3,1.2
							C151.2,37.2,150.7,36.7,150.7,36.1z M150.9,38.6h2.2V47h-2.2V38.6z"/>
						<path class="st2" d="M154.9,42.8c0-2.8,1.9-4.4,4-4.4c2.1,0,4,1.6,4,4.4c0,2.8-1.9,4.4-4,4.4
							C156.9,47.2,154.9,45.6,154.9,42.8z M160.8,42.8c0-1.6-0.6-2.6-1.8-2.6c-1.1,0-1.8,1-1.8,2.6c0,1.6,0.6,2.6,1.8,2.6
							C160.1,45.4,160.8,44.4,160.8,42.8z"/>
						<path class="st2" d="M164.8,38.6h1.8l0.2,1.1h0.1c0.7-0.7,1.6-1.3,2.7-1.3c1.8,0,2.6,1.3,2.6,3.4V47H170v-5
							c0-1.3-0.4-1.8-1.2-1.8c-0.7,0-1.1,0.3-1.8,0.9V47h-2.2V38.6z"/>
					</g>
				</g>
				<g transform="translate(510.000000, 0.000000)">
					<path class="st0" d="M8,0h224c4.4,0,8,3.6,8,8v44c0,4.4-3.6,8-8,8H8c-4.4,0-8-3.6-8-8V8C0,3.6,3.6,0,8,0z"/>
					<g class="st1">
						<path class="st2" d="M64.5,25l-2.3-4.2h-1.5V25h-2.2V13.9h3.9c2.3,0,4.2,0.8,4.2,3.4c0,1.7-0.8,2.7-2.1,3.2L67,25H64.5z
							 M60.7,19h1.4c1.4,0,2.2-0.6,2.2-1.8c0-1.2-0.8-1.6-2.2-1.6h-1.4V19z"/>
						<path class="st2" d="M67.8,20.8c0-2.7,1.9-4.4,3.9-4.4c2.3,0,3.5,1.7,3.5,4c0,0.4,0,0.8-0.1,1H70c0.2,1.4,1.1,2.1,2.3,2.1
							c0.7,0,1.3-0.2,1.9-0.6l0.8,1.4c-0.8,0.6-1.9,0.9-2.9,0.9C69.7,25.2,67.8,23.6,67.8,20.8z M73.4,20c0-1.1-0.5-1.9-1.6-1.9
							c-0.9,0-1.7,0.6-1.8,1.9H73.4z"/>
						<path class="st2" d="M76.3,26.5c0-0.7,0.4-1.3,1.2-1.7v-0.1c-0.4-0.3-0.8-0.7-0.8-1.4c0-0.6,0.4-1.2,0.9-1.6v-0.1
							c-0.6-0.4-1.1-1.2-1.1-2.2c0-2,1.6-3,3.4-3c0.5,0,0.9,0.1,1.3,0.2h3v1.6h-1.4c0.2,0.3,0.4,0.8,0.4,1.3c0,1.9-1.4,2.8-3.2,2.8
							c-0.3,0-0.7-0.1-1.1-0.2c-0.2,0.2-0.4,0.4-0.4,0.7c0,0.5,0.3,0.7,1.3,0.7h1.4c2,0,3.1,0.6,3.1,2.1c0,1.7-1.8,3-4.6,3
							C77.9,28.6,76.3,28,76.3,26.5z M82.3,26c0-0.6-0.5-0.8-1.4-0.8h-1c-0.5,0-0.9,0-1.2-0.1c-0.4,0.3-0.6,0.6-0.6,1
							c0,0.7,0.8,1.1,2,1.1C81.4,27.2,82.3,26.7,82.3,26z M81.3,19.4c0-1-0.6-1.5-1.3-1.5s-1.3,0.6-1.3,1.5c0,1,0.6,1.5,1.3,1.5
							C80.7,21,81.3,20.4,81.3,19.4z"/>
						<path class="st2" d="M85.6,14.1c0-0.7,0.6-1.2,1.3-1.2c0.8,0,1.3,0.5,1.3,1.2c0,0.7-0.6,1.2-1.3,1.2
							C86.2,15.2,85.6,14.7,85.6,14.1z M85.9,16.6H88V25h-2.2V16.6z"/>
						<path class="st2" d="M89.9,20.8c0-2.8,1.9-4.4,4-4.4c2.1,0,4,1.6,4,4.4c0,2.8-1.9,4.4-4,4.4C91.8,25.2,89.9,23.6,89.9,20.8z
							 M95.7,20.8c0-1.6-0.6-2.6-1.8-2.6c-1.1,0-1.8,1-1.8,2.6c0,1.6,0.6,2.6,1.8,2.6C95.1,23.4,95.7,22.4,95.7,20.8z"/>
						<path class="st2" d="M99.8,16.6h1.8l0.2,1.1h0.1c0.7-0.7,1.6-1.3,2.7-1.3c1.8,0,2.6,1.3,2.6,3.4V25h-2.2v-5
							c0-1.3-0.4-1.8-1.2-1.8c-0.7,0-1.1,0.3-1.8,0.9V25h-2.2V16.6z"/>
						<path class="st2" d="M109,22.7c0-1.8,1.5-2.7,4.8-3.1c0-0.8-0.4-1.5-1.4-1.5c-0.8,0-1.5,0.3-2.3,0.8l-0.8-1.5
							c1-0.6,2.2-1.1,3.5-1.1c2.1,0,3.2,1.3,3.2,3.7V25h-1.8l-0.2-0.9h0c-0.7,0.6-1.6,1.1-2.5,1.1C110,25.2,109,24.1,109,22.7z
							 M113.8,22.7V21c-2,0.3-2.7,0.8-2.7,1.6c0,0.7,0.5,0.9,1.1,0.9C112.8,23.5,113.3,23.2,113.8,22.7z"/>
						<path class="st2" d="M118.3,22.6V13h2.2v9.7c0,0.5,0.2,0.7,0.5,0.7c0.1,0,0.1,0,0.3,0l0.3,1.6c-0.3,0.1-0.6,0.2-1.1,0.2
							C118.8,25.2,118.3,24.2,118.3,22.6z"/>
						<path class="st2" d="M125.9,23.6l1.3-1.5c0.8,0.7,1.8,1.2,2.8,1.2c1.2,0,1.8-0.5,1.8-1.3c0-0.8-0.7-1.1-1.7-1.5l-1.5-0.6
							c-1.1-0.5-2.2-1.4-2.2-3c0-1.8,1.6-3.2,3.8-3.2c1.3,0,2.6,0.5,3.5,1.4l-1.1,1.4c-0.7-0.6-1.4-0.9-2.4-0.9
							c-1,0-1.6,0.4-1.6,1.2c0,0.8,0.8,1.1,1.7,1.5l1.5,0.6c1.3,0.6,2.2,1.4,2.2,3c0,1.8-1.5,3.4-4.1,3.4
							C128.4,25.2,126.9,24.6,125.9,23.6z"/>
						<path class="st2" d="M135.4,28.2l0.4-1.7c0.2,0,0.4,0.1,0.6,0.1c0.9,0,1.3-0.5,1.6-1.3l0.2-0.5l-3.3-8.2h2.2l1.3,3.9
							c0.3,0.8,0.5,1.6,0.7,2.4h0.1c0.2-0.8,0.4-1.6,0.6-2.4l1.2-3.9h2.1l-3,8.7c-0.7,2-1.6,3.1-3.5,3.1
							C136,28.4,135.7,28.3,135.4,28.2z"/>
						<path class="st2" d="M143.6,24l1-1.4c0.8,0.6,1.5,0.9,2.2,0.9c0.8,0,1.2-0.4,1.2-0.9c0-0.6-0.9-0.9-1.8-1.3
							c-1.1-0.4-2.3-1-2.3-2.4c0-1.5,1.2-2.6,3.1-2.6c1.2,0,2.2,0.5,2.9,1l-1,1.3c-0.6-0.4-1.2-0.7-1.8-0.7c-0.8,0-1.1,0.3-1.1,0.8
							c0,0.6,0.8,0.8,1.7,1.2c1.1,0.4,2.3,1,2.3,2.5c0,1.5-1.2,2.7-3.3,2.7C145.7,25.2,144.4,24.7,143.6,24z"/>
						<path class="st2" d="M151.8,22.1v-3.7h-1.2v-1.6l1.3-0.1l0.3-2.2h1.8v2.2h2.1v1.7H154v3.7c0,1,0.4,1.4,1.1,1.4
							c0.3,0,0.6-0.1,0.8-0.2l0.4,1.6c-0.5,0.2-1,0.3-1.8,0.3C152.5,25.2,151.8,24,151.8,22.1z"/>
						<path class="st2" d="M157,20.8c0-2.8,1.9-4.4,4-4.4c2.1,0,4,1.6,4,4.4c0,2.8-1.9,4.4-4,4.4C158.9,25.2,157,23.6,157,20.8z
							 M162.8,20.8c0-1.6-0.6-2.6-1.8-2.6c-1.1,0-1.8,1-1.8,2.6c0,1.6,0.6,2.6,1.8,2.6C162.1,23.4,162.8,22.4,162.8,20.8z"/>
						<path class="st2" d="M166.9,22.6V13h2.2v9.7c0,0.5,0.2,0.7,0.5,0.7c0.1,0,0.1,0,0.3,0l0.3,1.6c-0.3,0.1-0.6,0.2-1.1,0.2
							C167.4,25.2,166.9,24.2,166.9,22.6z"/>
						<path class="st2" d="M171.4,14.1c0-0.7,0.6-1.2,1.3-1.2c0.8,0,1.3,0.5,1.3,1.2c0,0.7-0.6,1.2-1.3,1.2
							C171.9,15.2,171.4,14.7,171.4,14.1z M171.6,16.6h2.2V25h-2.2V16.6z"/>
						<path class="st2" d="M175.6,20.8c0-2.8,2-4.4,4.3-4.4c1,0,1.8,0.4,2.4,0.9l-1,1.4c-0.4-0.4-0.8-0.6-1.3-0.6
							c-1.3,0-2.1,1-2.1,2.6c0,1.6,0.9,2.6,2.1,2.6c0.6,0,1.2-0.3,1.6-0.7l0.9,1.5c-0.8,0.7-1.8,1-2.7,1
							C177.4,25.2,175.6,23.6,175.6,20.8z"/>
					</g>
					<text transform="matrix(1 0 0 1 182.8704 25)" class="st2 st3 st4"> </text>
					<g class="st1">
						<path class="st2" d="M65.8,35.9h2.3l0.9,5.4c0.2,1.2,0.3,2.4,0.5,3.5h0.1c0.2-1.2,0.5-2.4,0.7-3.5l1.3-5.4h1.9l1.3,5.4
							c0.2,1.1,0.5,2.3,0.7,3.5h0.1c0.2-1.2,0.3-2.4,0.5-3.5l0.9-5.4H79L76.9,47h-2.8l-1.2-5.5c-0.2-0.9-0.3-1.7-0.5-2.6h-0.1
							c-0.2,0.8-0.3,1.7-0.5,2.6L70.7,47H68L65.8,35.9z"/>
						<path class="st2" d="M79.8,44.7c0-1.8,1.5-2.7,4.8-3.1c0-0.8-0.4-1.5-1.4-1.5c-0.8,0-1.5,0.3-2.3,0.8l-0.8-1.5
							c1-0.6,2.2-1.1,3.5-1.1c2.1,0,3.2,1.3,3.2,3.7V47H85l-0.2-0.9h0c-0.7,0.6-1.6,1.1-2.5,1.1C80.8,47.2,79.8,46.1,79.8,44.7z
							 M84.6,44.7V43c-2,0.3-2.7,0.8-2.7,1.6c0,0.7,0.5,0.9,1.1,0.9C83.6,45.5,84.1,45.2,84.6,44.7z"/>
						<path class="st2" d="M89.1,44.6V35h2.2v9.7c0,0.5,0.2,0.7,0.5,0.7c0.1,0,0.1,0,0.3,0l0.3,1.6c-0.3,0.1-0.6,0.2-1.1,0.2
							C89.6,47.2,89.1,46.2,89.1,44.6z"/>
						<path class="st2" d="M93.8,44.6V35H96v9.7c0,0.5,0.2,0.7,0.5,0.7c0.1,0,0.1,0,0.3,0L97,47c-0.3,0.1-0.6,0.2-1.1,0.2
							C94.4,47.2,93.8,46.2,93.8,44.6z"/>
						<path class="st2" d="M104.3,37.7h-3.1v-1.8h8.5v1.8h-3.2V47h-2.2V37.7z"/>
						<path class="st2" d="M111.3,35h2.2v3l-0.1,1.6c0.7-0.6,1.5-1.2,2.6-1.2c1.8,0,2.6,1.3,2.6,3.4V47h-2.2v-5
							c0-1.3-0.4-1.8-1.2-1.8c-0.7,0-1.1,0.3-1.8,0.9V47h-2.2V35z"/>
						<path class="st2" d="M120.7,36.1c0-0.7,0.6-1.2,1.3-1.2c0.8,0,1.3,0.5,1.3,1.2c0,0.7-0.6,1.2-1.3,1.2
							C121.3,37.2,120.7,36.7,120.7,36.1z M120.9,38.6h2.2V47h-2.2V38.6z"/>
						<path class="st2" d="M125,42.8c0-2.8,2-4.4,4.3-4.4c1,0,1.8,0.4,2.4,0.9l-1.1,1.4c-0.4-0.4-0.8-0.6-1.3-0.6
							c-1.3,0-2.1,1-2.1,2.6c0,1.6,0.9,2.6,2.1,2.6c0.6,0,1.2-0.3,1.6-0.7l0.9,1.5c-0.8,0.7-1.8,1-2.7,1
							C126.7,47.2,125,45.6,125,42.8z"/>
						<path class="st2" d="M133.4,35h2.1v7.2h0.1l2.9-3.6h2.4L138,42l3.2,5h-2.4l-2-3.5l-1.2,1.4V47h-2.1V35z"/>
						<path class="st2" d="M142.5,38.6h1.8l0.1,1.1h0.1c0.7-0.7,1.6-1.3,2.7-1.3c1.8,0,2.6,1.3,2.6,3.4V47h-2.2v-5
							c0-1.3-0.4-1.8-1.2-1.8c-0.7,0-1.1,0.3-1.8,0.9V47h-2.2V38.6z"/>
						<path class="st2" d="M151.6,42.8c0-2.7,1.9-4.4,3.9-4.4c2.3,0,3.5,1.7,3.5,4c0,0.4,0,0.8-0.1,1h-5.2c0.2,1.4,1.1,2.1,2.3,2.1
							c0.7,0,1.3-0.2,1.9-0.6l0.8,1.4c-0.8,0.6-1.9,0.9-2.9,0.9C153.4,47.2,151.6,45.6,151.6,42.8z M157.1,42c0-1.1-0.5-1.9-1.6-1.9
							c-0.9,0-1.7,0.6-1.8,1.9H157.1z"/>
						<path class="st2" d="M160,46l1-1.4c0.8,0.6,1.5,0.9,2.2,0.9c0.8,0,1.2-0.4,1.2-0.9c0-0.6-0.9-0.9-1.8-1.3
							c-1.1-0.4-2.3-1-2.3-2.4c0-1.5,1.2-2.6,3.1-2.6c1.2,0,2.2,0.5,2.9,1l-1,1.3c-0.6-0.4-1.2-0.7-1.8-0.7c-0.8,0-1.1,0.3-1.1,0.8
							c0,0.6,0.8,0.8,1.7,1.2c1.1,0.4,2.3,1,2.3,2.5c0,1.5-1.2,2.7-3.3,2.7C162.1,47.2,160.8,46.7,160,46z"/>
						<path class="st2" d="M167.4,46l1-1.4c0.8,0.6,1.5,0.9,2.2,0.9c0.8,0,1.2-0.4,1.2-0.9c0-0.6-0.9-0.9-1.8-1.3
							c-1.1-0.4-2.3-1-2.3-2.4c0-1.5,1.2-2.6,3.1-2.6c1.2,0,2.2,0.5,2.9,1l-1,1.3c-0.6-0.4-1.2-0.7-1.8-0.7c-0.8,0-1.1,0.3-1.1,0.8
							c0,0.6,0.8,0.8,1.7,1.2c1.1,0.4,2.3,1,2.3,2.5c0,1.5-1.2,2.7-3.3,2.7C169.5,47.2,168.2,46.7,167.4,46z"/>
					</g>
				</g>
				<g transform="translate(760.000000, 0.000000)">
					<path class="st0" d="M8,0h224c4.4,0,8,3.6,8,8v44c0,4.4-3.6,8-8,8H8c-4.4,0-8-3.6-8-8V8C0,3.6,3.6,0,8,0z"/>
					<g class="st1">
						<path class="st2" d="M61.5,25l-2.3-4.2h-1.5V25h-2.2V13.9h3.9c2.3,0,4.2,0.8,4.2,3.4c0,1.7-0.8,2.7-2.1,3.2l2.6,4.5H61.5z
							 M57.6,19h1.4c1.4,0,2.2-0.6,2.2-1.8c0-1.2-0.8-1.6-2.2-1.6h-1.4V19z"/>
						<path class="st2" d="M64.8,20.8c0-2.7,1.9-4.4,3.9-4.4c2.3,0,3.5,1.7,3.5,4c0,0.4,0,0.8-0.1,1h-5.2c0.2,1.4,1.1,2.1,2.3,2.1
							c0.7,0,1.3-0.2,1.9-0.6l0.8,1.4c-0.8,0.6-1.9,0.9-2.9,0.9C66.6,25.2,64.8,23.6,64.8,20.8z M70.3,20c0-1.1-0.5-1.9-1.6-1.9
							c-0.9,0-1.7,0.6-1.8,1.9H70.3z"/>
						<path class="st2" d="M73.3,26.5c0-0.7,0.4-1.3,1.2-1.7v-0.1c-0.4-0.3-0.8-0.7-0.8-1.4c0-0.6,0.4-1.2,0.9-1.6v-0.1
							c-0.6-0.4-1.1-1.2-1.1-2.2c0-2,1.6-3,3.4-3c0.5,0,0.9,0.1,1.3,0.2h3v1.6h-1.4c0.2,0.3,0.4,0.8,0.4,1.3c0,1.9-1.4,2.8-3.2,2.8
							c-0.3,0-0.7-0.1-1.1-0.2c-0.2,0.2-0.4,0.4-0.4,0.7c0,0.5,0.3,0.7,1.3,0.7h1.4c2,0,3.1,0.6,3.1,2.1c0,1.7-1.8,3-4.6,3
							C74.8,28.6,73.3,28,73.3,26.5z M79.2,26c0-0.6-0.5-0.8-1.4-0.8h-1c-0.5,0-0.9,0-1.2-0.1c-0.4,0.3-0.6,0.6-0.6,1
							c0,0.7,0.8,1.1,2,1.1C78.4,27.2,79.2,26.7,79.2,26z M78.2,19.4c0-1-0.6-1.5-1.3-1.5s-1.3,0.6-1.3,1.5c0,1,0.6,1.5,1.3,1.5
							C77.6,21,78.2,20.4,78.2,19.4z"/>
						<path class="st2" d="M82.6,14.1c0-0.7,0.6-1.2,1.3-1.2c0.8,0,1.3,0.5,1.3,1.2c0,0.7-0.6,1.2-1.3,1.2
							C83.1,15.2,82.6,14.7,82.6,14.1z M82.8,16.6H85V25h-2.2V16.6z"/>
						<path class="st2" d="M86.8,20.8c0-2.8,1.9-4.4,4-4.4c2.1,0,4,1.6,4,4.4c0,2.8-1.9,4.4-4,4.4C88.7,25.2,86.8,23.6,86.8,20.8z
							 M92.6,20.8c0-1.6-0.6-2.6-1.8-2.6c-1.1,0-1.8,1-1.8,2.6c0,1.6,0.6,2.6,1.8,2.6C92,23.4,92.6,22.4,92.6,20.8z"/>
						<path class="st2" d="M96.7,16.6h1.8l0.1,1.1h0.1c0.7-0.7,1.6-1.3,2.7-1.3c1.8,0,2.6,1.3,2.6,3.4V25h-2.2v-5
							c0-1.3-0.4-1.8-1.2-1.8c-0.7,0-1.1,0.3-1.8,0.9V25h-2.2V16.6z"/>
						<path class="st2" d="M105.9,22.7c0-1.8,1.5-2.7,4.8-3.1c0-0.8-0.4-1.5-1.4-1.5c-0.8,0-1.5,0.3-2.3,0.8l-0.8-1.5
							c1-0.6,2.2-1.1,3.5-1.1c2.1,0,3.2,1.3,3.2,3.7V25h-1.8l-0.2-0.9h0c-0.7,0.6-1.6,1.1-2.5,1.1C106.9,25.2,105.9,24.1,105.9,22.7
							z M110.7,22.7V21c-2,0.3-2.7,0.8-2.7,1.6c0,0.7,0.5,0.9,1.1,0.9C109.8,23.5,110.2,23.2,110.7,22.7z"/>
						<path class="st2" d="M115.2,22.6V13h2.2v9.7c0,0.5,0.2,0.7,0.5,0.7c0.1,0,0.1,0,0.3,0l0.3,1.6c-0.3,0.1-0.6,0.2-1.1,0.2
							C115.7,25.2,115.2,24.2,115.2,22.6z"/>
						<path class="st2" d="M123.5,13.9h3c3.4,0,5.5,1.8,5.5,5.5c0,3.7-2.1,5.6-5.4,5.6h-3.2V13.9z M126.4,23.2
							c2.1,0,3.4-1.1,3.4-3.8c0-2.7-1.3-3.7-3.4-3.7h-0.7v7.5H126.4z"/>
						<path class="st2" d="M133.8,14.1c0-0.7,0.6-1.2,1.3-1.2c0.8,0,1.3,0.5,1.3,1.2c0,0.7-0.6,1.2-1.3,1.2
							C134.4,15.2,133.8,14.7,133.8,14.1z M134,16.6h2.2V25H134V16.6z"/>
						<path class="st2" d="M138.2,22.7c0-1.8,1.5-2.7,4.8-3.1c0-0.8-0.4-1.5-1.4-1.5c-0.8,0-1.5,0.3-2.3,0.8l-0.8-1.5
							c1-0.6,2.2-1.1,3.5-1.1c2.1,0,3.2,1.3,3.2,3.7V25h-1.8l-0.2-0.9h0c-0.7,0.6-1.6,1.1-2.5,1.1C139.2,25.2,138.2,24.1,138.2,22.7
							z M143,22.7V21c-2,0.3-2.7,0.8-2.7,1.6c0,0.7,0.5,0.9,1.1,0.9C142,23.5,142.5,23.2,143,22.7z"/>
						<path class="st2" d="M146.7,24l1-1.4c0.8,0.6,1.5,0.9,2.2,0.9c0.8,0,1.2-0.4,1.2-0.9c0-0.6-0.9-0.9-1.8-1.3
							c-1.1-0.4-2.3-1-2.3-2.4c0-1.5,1.2-2.6,3.1-2.6c1.2,0,2.2,0.5,2.9,1l-1,1.3c-0.6-0.4-1.2-0.7-1.8-0.7c-0.8,0-1.1,0.3-1.1,0.8
							c0,0.6,0.8,0.8,1.7,1.2c1.1,0.4,2.3,1,2.3,2.5c0,1.5-1.2,2.7-3.3,2.7C148.7,25.2,147.5,24.7,146.7,24z"/>
						<path class="st2" d="M154.9,22.1v-3.7h-1.2v-1.6l1.3-0.1l0.3-2.2h1.8v2.2h2.1v1.7h-2.1v3.7c0,1,0.4,1.4,1.1,1.4
							c0.3,0,0.6-0.1,0.8-0.2l0.4,1.6c-0.5,0.2-1,0.3-1.8,0.3C155.6,25.2,154.9,24,154.9,22.1z"/>
						<path class="st2" d="M160,20.8c0-2.8,1.9-4.4,4-4.4c2.1,0,4,1.6,4,4.4c0,2.8-1.9,4.4-4,4.4C162,25.2,160,23.6,160,20.8z
							 M165.9,20.8c0-1.6-0.6-2.6-1.8-2.6c-1.1,0-1.8,1-1.8,2.6c0,1.6,0.6,2.6,1.8,2.6C165.2,23.4,165.9,22.4,165.9,20.8z"/>
						<path class="st2" d="M169.9,22.6V13h2.2v9.7c0,0.5,0.2,0.7,0.4,0.7c0.1,0,0.2,0,0.3,0l0.3,1.6c-0.3,0.1-0.6,0.2-1.1,0.2
							C170.5,25.2,169.9,24.2,169.9,22.6z"/>
						<path class="st2" d="M174.5,14.1c0-0.7,0.6-1.2,1.3-1.2c0.8,0,1.3,0.5,1.3,1.2c0,0.7-0.6,1.2-1.3,1.2
							C175,15.2,174.5,14.7,174.5,14.1z M174.7,16.6h2.2V25h-2.2V16.6z"/>
						<path class="st2" d="M178.7,20.8c0-2.8,2-4.4,4.3-4.4c1,0,1.8,0.4,2.4,0.9l-1,1.4c-0.4-0.4-0.8-0.6-1.3-0.6
							c-1.3,0-2.1,1-2.1,2.6c0,1.6,0.9,2.6,2.1,2.6c0.6,0,1.2-0.3,1.6-0.7l0.9,1.5c-0.8,0.7-1.8,1-2.7,1
							C180.5,25.2,178.7,23.6,178.7,20.8z"/>
					</g>
					<text transform="matrix(1 0 0 1 185.9526 25)" class="st2 st3 st4"> </text>
					<g class="st1">
						<path class="st2" d="M65.8,35.9h2.3l0.9,5.4c0.2,1.2,0.3,2.4,0.5,3.5h0.1c0.2-1.2,0.5-2.4,0.7-3.5l1.3-5.4h1.9l1.3,5.4
							c0.2,1.1,0.5,2.3,0.7,3.5h0.1c0.2-1.2,0.3-2.4,0.5-3.5l0.9-5.4H79L76.9,47h-2.8l-1.2-5.5c-0.2-0.9-0.3-1.7-0.5-2.6h-0.1
							c-0.2,0.8-0.3,1.7-0.5,2.6L70.7,47H68L65.8,35.9z"/>
						<path class="st2" d="M79.8,44.7c0-1.8,1.5-2.7,4.8-3.1c0-0.8-0.4-1.5-1.4-1.5c-0.8,0-1.5,0.3-2.3,0.8l-0.8-1.5
							c1-0.6,2.2-1.1,3.5-1.1c2.1,0,3.2,1.3,3.2,3.7V47H85l-0.2-0.9h0c-0.7,0.6-1.6,1.1-2.5,1.1C80.8,47.2,79.8,46.1,79.8,44.7z
							 M84.6,44.7V43c-2,0.3-2.7,0.8-2.7,1.6c0,0.7,0.5,0.9,1.1,0.9C83.6,45.5,84.1,45.2,84.6,44.7z"/>
						<path class="st2" d="M89.1,44.6V35h2.2v9.7c0,0.5,0.2,0.7,0.5,0.7c0.1,0,0.1,0,0.3,0l0.3,1.6c-0.3,0.1-0.6,0.2-1.1,0.2
							C89.6,47.2,89.1,46.2,89.1,44.6z"/>
						<path class="st2" d="M93.8,44.6V35H96v9.7c0,0.5,0.2,0.7,0.5,0.7c0.1,0,0.1,0,0.3,0L97,47c-0.3,0.1-0.6,0.2-1.1,0.2
							C94.4,47.2,93.8,46.2,93.8,44.6z"/>
						<path class="st2" d="M104.3,37.7h-3.1v-1.8h8.5v1.8h-3.2V47h-2.2V37.7z"/>
						<path class="st2" d="M111.3,35h2.2v3l-0.1,1.6c0.7-0.6,1.5-1.2,2.6-1.2c1.8,0,2.6,1.3,2.6,3.4V47h-2.2v-5
							c0-1.3-0.4-1.8-1.2-1.8c-0.7,0-1.1,0.3-1.8,0.9V47h-2.2V35z"/>
						<path class="st2" d="M120.7,36.1c0-0.7,0.6-1.2,1.3-1.2c0.8,0,1.3,0.5,1.3,1.2c0,0.7-0.6,1.2-1.3,1.2
							C121.3,37.2,120.7,36.7,120.7,36.1z M120.9,38.6h2.2V47h-2.2V38.6z"/>
						<path class="st2" d="M125,42.8c0-2.8,2-4.4,4.3-4.4c1,0,1.8,0.4,2.4,0.9l-1.1,1.4c-0.4-0.4-0.8-0.6-1.3-0.6
							c-1.3,0-2.1,1-2.1,2.6c0,1.6,0.9,2.6,2.1,2.6c0.6,0,1.2-0.3,1.6-0.7l0.9,1.5c-0.8,0.7-1.8,1-2.7,1
							C126.7,47.2,125,45.6,125,42.8z"/>
						<path class="st2" d="M133.4,35h2.1v7.2h0.1l2.9-3.6h2.4L138,42l3.2,5h-2.4l-2-3.5l-1.2,1.4V47h-2.1V35z"/>
						<path class="st2" d="M142.5,38.6h1.8l0.1,1.1h0.1c0.7-0.7,1.6-1.3,2.7-1.3c1.8,0,2.6,1.3,2.6,3.4V47h-2.2v-5
							c0-1.3-0.4-1.8-1.2-1.8c-0.7,0-1.1,0.3-1.8,0.9V47h-2.2V38.6z"/>
						<path class="st2" d="M151.6,42.8c0-2.7,1.9-4.4,3.9-4.4c2.3,0,3.5,1.7,3.5,4c0,0.4,0,0.8-0.1,1h-5.2c0.2,1.4,1.1,2.1,2.3,2.1
							c0.7,0,1.3-0.2,1.9-0.6l0.8,1.4c-0.8,0.6-1.9,0.9-2.9,0.9C153.4,47.2,151.6,45.6,151.6,42.8z M157.1,42c0-1.1-0.5-1.9-1.6-1.9
							c-0.9,0-1.7,0.6-1.8,1.9H157.1z"/>
						<path class="st2" d="M160,46l1-1.4c0.8,0.6,1.5,0.9,2.2,0.9c0.8,0,1.2-0.4,1.2-0.9c0-0.6-0.9-0.9-1.8-1.3
							c-1.1-0.4-2.3-1-2.3-2.4c0-1.5,1.2-2.6,3.1-2.6c1.2,0,2.2,0.5,2.9,1l-1,1.3c-0.6-0.4-1.2-0.7-1.8-0.7c-0.8,0-1.1,0.3-1.1,0.8
							c0,0.6,0.8,0.8,1.7,1.2c1.1,0.4,2.3,1,2.3,2.5c0,1.5-1.2,2.7-3.3,2.7C162.1,47.2,160.8,46.7,160,46z"/>
						<path class="st2" d="M167.4,46l1-1.4c0.8,0.6,1.5,0.9,2.2,0.9c0.8,0,1.2-0.4,1.2-0.9c0-0.6-0.9-0.9-1.8-1.3
							c-1.1-0.4-2.3-1-2.3-2.4c0-1.5,1.2-2.6,3.1-2.6c1.2,0,2.2,0.5,2.9,1l-1,1.3c-0.6-0.4-1.2-0.7-1.8-0.7c-0.8,0-1.1,0.3-1.1,0.8
							c0,0.6,0.8,0.8,1.7,1.2c1.1,0.4,2.3,1,2.3,2.5c0,1.5-1.2,2.7-3.3,2.7C169.5,47.2,168.2,46.7,167.4,46z"/>
					</g>
				</g>
			</g>
			<g id="cell1" transform="translate(0.000000, 127.000000)">
				<g class="st1">
					<path d="M64,7.7h2.7V21H64V7.7z"/>
					<path d="M69.7,10.9h2.2l0.2,1.3h0.1c0.9-0.9,1.9-1.6,3.3-1.6c2.2,0,3.1,1.5,3.1,4.1V21h-2.6v-6c0-1.5-0.4-2.1-1.4-2.1
						c-0.8,0-1.4,0.4-2.1,1.1V21h-2.6V10.9z"/>
					<path d="M80.6,16c0-3.4,2.4-5.3,5.1-5.3c1.2,0,2.2,0.5,2.9,1.1l-1.3,1.7c-0.5-0.4-1-0.7-1.5-0.7c-1.5,0-2.6,1.2-2.6,3.2
						c0,1.9,1,3.1,2.5,3.1c0.7,0,1.4-0.3,2-0.8l1,1.7c-1,0.8-2.2,1.2-3.3,1.2C82.8,21.3,80.6,19.3,80.6,16z"/>
					<path d="M90.8,10.9h2.2l0.2,1.8h0.1c0.7-1.3,1.8-2,2.9-2c0.6,0,0.9,0.1,1.2,0.2l-0.5,2.3c-0.3-0.1-0.6-0.2-1-0.2
						c-0.8,0-1.7,0.5-2.3,2v6h-2.6V10.9z"/>
					<path d="M97.8,16c0-3.3,2.3-5.3,4.7-5.3c2.8,0,4.2,2,4.2,4.8c0,0.5-0.1,1-0.1,1.2h-6.2c0.2,1.7,1.3,2.5,2.8,2.5
						c0.8,0,1.5-0.3,2.3-0.7l0.9,1.6c-1,0.7-2.3,1.1-3.5,1.1C100,21.3,97.8,19.3,97.8,16z M104.4,15c0-1.4-0.6-2.2-1.9-2.2
						c-1.1,0-2,0.8-2.2,2.2H104.4z"/>
					<path d="M108.1,18.3c0-2.2,1.7-3.3,5.8-3.7c0-1-0.5-1.7-1.7-1.7c-0.9,0-1.8,0.4-2.8,1l-1-1.7c1.2-0.7,2.6-1.3,4.2-1.3
						c2.6,0,3.9,1.5,3.9,4.4V21h-2.2l-0.2-1.1h-0.1c-0.9,0.8-1.9,1.3-3,1.3C109.3,21.3,108.1,20,108.1,18.3z M113.9,18.2v-2
						c-2.4,0.3-3.3,1-3.3,1.9c0,0.8,0.6,1.1,1.3,1.1C112.7,19.2,113.3,18.8,113.9,18.2z"/>
					<path d="M118.3,19.8l1.2-1.7c0.9,0.7,1.8,1.1,2.7,1.1c1,0,1.5-0.4,1.5-1.1c0-0.8-1-1.1-2.1-1.5c-1.3-0.5-2.8-1.3-2.8-2.9
						c0-1.8,1.5-3.1,3.7-3.1c1.5,0,2.6,0.6,3.4,1.2l-1.2,1.6c-0.7-0.5-1.4-0.9-2.2-0.9c-0.9,0-1.3,0.4-1.3,1c0,0.7,1,1,2.1,1.4
						c1.3,0.5,2.8,1.2,2.8,3c0,1.8-1.4,3.2-4,3.2C120.8,21.3,119.3,20.7,118.3,19.8z"/>
					<path d="M127.5,16c0-3.3,2.3-5.3,4.7-5.3c2.8,0,4.2,2,4.2,4.8c0,0.5-0.1,1-0.1,1.2h-6.2c0.2,1.7,1.3,2.5,2.8,2.5
						c0.8,0,1.5-0.3,2.3-0.7l0.9,1.6c-1,0.7-2.3,1.1-3.5,1.1C129.7,21.3,127.5,19.3,127.5,16z M134.2,15c0-1.4-0.6-2.2-1.9-2.2
						c-1.1,0-2,0.8-2.2,2.2H134.2z"/>
					<path d="M142.8,15.3c0-3.6,1-6.5,2.7-9.3l1.7,0.7c-1.5,2.6-2.2,5.7-2.2,8.6c0,3,0.7,6,2.2,8.6l-1.7,0.7
						C143.8,21.8,142.8,18.9,142.8,15.3z"/>
					<path d="M149.5,10.9h2.2l0.2,1.3h0.1c0.9-0.9,1.9-1.6,3.3-1.6c2.2,0,3.1,1.5,3.1,4.1V21h-2.6v-6c0-1.5-0.4-2.1-1.4-2.1
						c-0.8,0-1.4,0.4-2.1,1.1V21h-2.6V10.9z"/>
					<path d="M160.3,11h9.2v1.9h-9.2V11z M160.3,15.7h9.2v1.9h-9.2V15.7z"/>
					<path d="M172.5,18.2c0.5,0.5,1.3,0.9,2.1,0.9c1.5,0,2.7-1.1,2.8-4.5c-0.7,0.9-1.8,1.5-2.7,1.5c-2.2,0-3.8-1.4-3.8-4.2
						c0-2.7,1.9-4.4,4.2-4.4c2.5,0,4.8,2,4.8,6.6c0,5-2.5,7.2-5.1,7.2c-1.7,0-2.9-0.7-3.7-1.5L172.5,18.2z M177.5,12.8
						c-0.2-2.4-1.2-3.3-2.3-3.3c-1,0-1.8,0.8-1.8,2.4c0,1.6,0.7,2.3,1.9,2.3C176,14.2,176.8,13.8,177.5,12.8z"/>
					<path d="M181.8,23.9c1.5-2.6,2.2-5.7,2.2-8.6c0-2.9-0.7-6-2.2-8.6l1.6-0.7c1.7,2.8,2.7,5.7,2.7,9.3c0,3.6-1,6.5-2.7,9.3
						L181.8,23.9z"/>
				</g>
				<g class="st1">
					<path d="M340.4,17.7c0-1.7,1.2-2.9,2.4-3.6V14c-1-0.7-1.8-1.7-1.8-3.1c0-2.1,1.6-3.4,3.8-3.4c2.3,0,3.7,1.4,3.7,3.5
						c0,1.4-0.9,2.5-1.7,3.1v0.1c1.2,0.7,2.2,1.7,2.2,3.5c0,2-1.7,3.5-4.3,3.5C342.2,21.2,340.4,19.8,340.4,17.7z M347,17.7
						c0-1.6-1.5-2.2-3.3-3c-0.9,0.6-1.5,1.6-1.5,2.8c0,1.3,1.1,2.2,2.5,2.2C346.1,19.7,347,18.9,347,17.7z M346.7,11.2
						c0-1.2-0.7-2.1-2-2.1c-1.1,0-1.9,0.7-1.9,1.9c0,1.4,1.3,2.1,2.7,2.7C346.3,12.9,346.7,12.1,346.7,11.2z"/>
					<path d="M351.9,18.6c0.5,0.6,1.3,1,2.2,1c1.6,0,3-1.3,3.1-5.1c-0.8,1-1.9,1.5-2.9,1.5c-2.2,0-3.7-1.4-3.7-4.2
						c0-2.6,1.8-4.4,3.9-4.4c2.5,0,4.6,2.1,4.6,6.4c0,5.2-2.4,7.3-4.9,7.3c-1.5,0-2.6-0.6-3.4-1.4L351.9,18.6z M357.1,12.9
						c-0.2-2.6-1.2-3.8-2.6-3.8c-1.1,0-2,1-2,2.8c0,1.7,0.8,2.7,2.1,2.7C355.4,14.5,356.4,14,357.1,12.9z"/>
					<path d="M360.7,11.7c0-2.7,1.2-4.2,3.1-4.2s3.1,1.5,3.1,4.2c0,2.7-1.3,4.2-3.1,4.2S360.7,14.3,360.7,11.7z M365.4,11.7
						c0-2.1-0.7-3-1.6-3c-0.9,0-1.6,0.9-1.6,3c0,2,0.7,3,1.6,3C364.7,14.7,365.4,13.7,365.4,11.7z M371.5,7.5h1.3l-7.3,13.7h-1.3
						L371.5,7.5z M370.1,17c0-2.7,1.3-4.2,3.1-4.2c1.8,0,3.1,1.5,3.1,4.2c0,2.7-1.3,4.2-3.1,4.2C371.4,21.2,370.1,19.7,370.1,17z
						 M374.8,17c0-2.1-0.7-3-1.6-3c-0.9,0-1.6,0.9-1.6,3c0,2,0.7,3,1.6,3C374.1,20,374.8,19.1,374.8,17z"/>
					<path d="M378.5,15.4c0-3.5,1-6.5,2.7-9.2l1.3,0.6c-1.5,2.6-2.3,5.6-2.3,8.6c0,3,0.7,6.1,2.3,8.6l-1.3,0.6
						C379.5,21.8,378.5,18.9,378.5,15.4z"/>
					<path d="M384.9,11.1h1.7l0.2,1.4h0.1c0.9-0.9,1.9-1.6,3.3-1.6c2.1,0,3,1.4,3,3.9V21h-2.1v-6c0-1.7-0.5-2.4-1.7-2.4
						c-0.9,0-1.5,0.5-2.4,1.3v7h-2.1V11.1z"/>
					<path d="M395.3,11.3h8.9v1.5h-8.9V11.3z M395.3,15.8h8.9v1.5h-8.9V15.8z"/>
					<path d="M405.7,17.7c0-1.7,1.2-2.9,2.4-3.6V14c-1-0.7-1.8-1.7-1.8-3.1c0-2.1,1.6-3.4,3.8-3.4c2.3,0,3.7,1.4,3.7,3.5
						c0,1.4-0.9,2.5-1.7,3.1v0.1c1.2,0.7,2.2,1.7,2.2,3.5c0,2-1.7,3.5-4.3,3.5C407.5,21.2,405.7,19.8,405.7,17.7z M412.3,17.7
						c0-1.6-1.5-2.2-3.3-3c-0.9,0.6-1.5,1.6-1.5,2.8c0,1.3,1.1,2.2,2.5,2.2C411.4,19.7,412.3,18.9,412.3,17.7z M412,11.2
						c0-1.2-0.7-2.1-2-2.1c-1.1,0-1.9,0.7-1.9,1.9c0,1.4,1.3,2.1,2.7,2.7C411.6,12.9,412,12.1,412,11.2z"/>
					<path d="M415.9,24c1.5-2.6,2.3-5.6,2.3-8.6c0-3-0.7-6-2.3-8.6l1.3-0.6c1.7,2.7,2.7,5.7,2.7,9.2c0,3.6-1,6.5-2.7,9.2L415.9,24z"
						/>
				</g>
				<g class="st1">
					<path d="M597.7,10.2c-0.5-0.6-1.3-1-2.1-1c-1.7,0-3.1,1.3-3.2,5.1c0.8-1,1.9-1.5,2.9-1.5c2.2,0,3.7,1.4,3.7,4.2
						c0,2.6-1.8,4.3-4,4.3c-2.5,0-4.6-2.1-4.6-6.6c0-5.1,2.4-7.1,5-7.1c1.5,0,2.6,0.6,3.3,1.4L597.7,10.2z M597.1,16.9
						c0-1.7-0.8-2.7-2.2-2.7c-0.8,0-1.7,0.4-2.5,1.5c0.2,2.6,1.2,3.9,2.6,3.9C596.2,19.6,597.1,18.6,597.1,16.9z"/>
					<path d="M606.9,9.5h-6.2V7.7h8.5V9c-3.1,3.9-3.6,6.8-3.8,12h-2.1C603.5,16.2,604.3,13.1,606.9,9.5z"/>
					<path d="M610.7,11.7c0-2.7,1.2-4.2,3.1-4.2s3.1,1.5,3.1,4.2c0,2.7-1.3,4.2-3.1,4.2S610.7,14.3,610.7,11.7z M615.4,11.7
						c0-2.1-0.7-3-1.6-3c-0.9,0-1.6,0.9-1.6,3c0,2,0.7,3,1.6,3C614.7,14.7,615.4,13.7,615.4,11.7z M621.5,7.5h1.3l-7.3,13.7h-1.3
						L621.5,7.5z M620.1,17c0-2.7,1.3-4.2,3.1-4.2c1.8,0,3.1,1.5,3.1,4.2c0,2.7-1.3,4.2-3.1,4.2C621.4,21.2,620.1,19.7,620.1,17z
						 M624.8,17c0-2.1-0.7-3-1.6-3c-0.9,0-1.6,0.9-1.6,3c0,2,0.7,3,1.6,3C624.1,20,624.8,19.1,624.8,17z"/>
					<path d="M628.5,15.4c0-3.5,1-6.5,2.7-9.2l1.3,0.6c-1.5,2.6-2.3,5.6-2.3,8.6c0,3,0.7,6.1,2.3,8.6l-1.3,0.6
						C629.5,21.8,628.5,18.9,628.5,15.4z"/>
					<path d="M634.9,11.1h1.7l0.2,1.4h0.1c0.9-0.9,1.9-1.6,3.3-1.6c2.1,0,3,1.4,3,3.9V21h-2.1v-6c0-1.7-0.5-2.4-1.7-2.4
						c-0.9,0-1.5,0.5-2.4,1.3v7h-2.1V11.1z"/>
					<path d="M645.3,11.3h8.9v1.5h-8.9V11.3z M645.3,15.8h8.9v1.5h-8.9V15.8z"/>
					<path d="M663,10.2c-0.5-0.6-1.3-1-2.1-1c-1.7,0-3.1,1.3-3.2,5.1c0.8-1,1.9-1.5,2.9-1.5c2.2,0,3.7,1.4,3.7,4.2
						c0,2.6-1.8,4.3-4,4.3c-2.5,0-4.6-2.1-4.6-6.6c0-5.1,2.4-7.1,5-7.1c1.5,0,2.6,0.6,3.3,1.4L663,10.2z M662.4,16.9
						c0-1.7-0.8-2.7-2.2-2.7c-0.8,0-1.7,0.4-2.5,1.5c0.2,2.6,1.2,3.9,2.6,3.9C661.5,19.6,662.4,18.6,662.4,16.9z"/>
					<path d="M665.9,24c1.5-2.6,2.3-5.6,2.3-8.6c0-3-0.7-6-2.3-8.6l1.3-0.6c1.7,2.7,2.7,5.7,2.7,9.2c0,3.6-1,6.5-2.7,9.2L665.9,24z"
						/>
				</g>
				<g class="st1">
					<path d="M840.4,17.7c0-1.7,1.2-2.9,2.4-3.6V14c-1-0.7-1.8-1.7-1.8-3.1c0-2.1,1.6-3.4,3.8-3.4c2.3,0,3.7,1.4,3.7,3.5
						c0,1.4-0.9,2.5-1.7,3.1v0.1c1.2,0.7,2.2,1.7,2.2,3.5c0,2-1.7,3.5-4.3,3.5C842.2,21.2,840.4,19.8,840.4,17.7z M847,17.7
						c0-1.6-1.5-2.2-3.3-3c-0.9,0.6-1.5,1.6-1.5,2.8c0,1.3,1.1,2.2,2.5,2.2C846.1,19.7,847,18.9,847,17.7z M846.7,11.2
						c0-1.2-0.7-2.1-2-2.1c-1.1,0-1.9,0.7-1.9,1.9c0,1.4,1.3,2.1,2.7,2.7C846.3,12.9,846.7,12.1,846.7,11.2z"/>
					<path d="M851.9,18.6c0.5,0.6,1.3,1,2.2,1c1.6,0,3-1.3,3.1-5.1c-0.8,1-1.9,1.5-2.9,1.5c-2.2,0-3.7-1.4-3.7-4.2
						c0-2.6,1.8-4.4,3.9-4.4c2.5,0,4.6,2.1,4.6,6.4c0,5.2-2.4,7.3-4.9,7.3c-1.5,0-2.6-0.6-3.4-1.4L851.9,18.6z M857.1,12.9
						c-0.2-2.6-1.2-3.8-2.6-3.8c-1.1,0-2,1-2,2.8c0,1.7,0.8,2.7,2.1,2.7C855.4,14.5,856.4,14,857.1,12.9z"/>
					<path d="M860.7,11.7c0-2.7,1.2-4.2,3.1-4.2c1.9,0,3.1,1.5,3.1,4.2c0,2.7-1.3,4.2-3.1,4.2C861.9,15.9,860.7,14.3,860.7,11.7z
						 M865.4,11.7c0-2.1-0.7-3-1.6-3c-0.9,0-1.6,0.9-1.6,3c0,2,0.7,3,1.6,3C864.7,14.7,865.4,13.7,865.4,11.7z M871.5,7.5h1.3
						l-7.3,13.7h-1.3L871.5,7.5z M870.1,17c0-2.7,1.3-4.2,3.1-4.2c1.8,0,3.1,1.5,3.1,4.2c0,2.7-1.3,4.2-3.1,4.2
						C871.3,21.2,870.1,19.7,870.1,17z M874.8,17c0-2.1-0.7-3-1.6-3c-0.9,0-1.6,0.9-1.6,3c0,2,0.7,3,1.6,3
						C874.1,20,874.8,19.1,874.8,17z"/>
					<path d="M878.5,15.4c0-3.5,1-6.5,2.7-9.2l1.3,0.6c-1.5,2.6-2.3,5.6-2.3,8.6c0,3,0.7,6.1,2.3,8.6l-1.3,0.6
						C879.5,21.8,878.5,18.9,878.5,15.4z"/>
					<path d="M884.9,11.1h1.7l0.2,1.4h0.1c0.9-0.9,1.9-1.6,3.3-1.6c2.1,0,3,1.4,3,3.9V21h-2.1v-6c0-1.7-0.5-2.4-1.7-2.4
						c-0.9,0-1.5,0.5-2.4,1.3v7h-2.1V11.1z"/>
					<path d="M895.2,11.3h8.9v1.5h-8.9V11.3z M895.2,15.8h8.9v1.5h-8.9V15.8z"/>
					<path d="M905.7,17.7c0-1.7,1.2-2.9,2.4-3.6V14c-1-0.7-1.8-1.7-1.8-3.1c0-2.1,1.6-3.4,3.8-3.4c2.3,0,3.7,1.4,3.7,3.5
						c0,1.4-0.9,2.5-1.7,3.1v0.1c1.2,0.7,2.2,1.7,2.2,3.5c0,2-1.7,3.5-4.3,3.5C907.5,21.2,905.7,19.8,905.7,17.7z M912.3,17.7
						c0-1.6-1.5-2.2-3.3-3c-0.9,0.6-1.5,1.6-1.5,2.8c0,1.3,1.1,2.2,2.5,2.2C911.4,19.7,912.3,18.9,912.3,17.7z M912,11.2
						c0-1.2-0.7-2.1-2-2.1c-1.1,0-1.9,0.7-1.9,1.9c0,1.4,1.3,2.1,2.7,2.7C911.6,12.9,912,12.1,912,11.2z"/>
					<path d="M915.9,24c1.5-2.6,2.3-5.6,2.3-8.6c0-3-0.7-6-2.3-8.6l1.3-0.6c1.7,2.7,2.7,5.7,2.7,9.2c0,3.6-1,6.5-2.7,9.2L915.9,24z"
						/>
				</g>
				<path id="divider" class="st5" d="M0,47h1000"/>
			</g>
			<g class="st1">
				<path d="M187.4,7.7h7.8v1.7h-5.7v3.7h4.9V15h-4.9v4.3h5.9V21h-8V7.7z"/>
				<path d="M208.8,8.3c-0.4-0.2-0.8-0.3-1.1-0.3c-0.9,0-1.3,0.6-1.3,1.8v1.3h2v1.7h-2V21h-2.1v-8.2h-3.9V21h-2.1v-8.2H197v-1.5
					l1.4-0.1v-1c0-2.1,1-3.4,3.3-3.4c0.7,0,1.4,0.1,1.9,0.4l-0.4,1.5c-0.4-0.2-0.8-0.3-1.3-0.3c-0.9,0-1.4,0.6-1.4,1.8v1h3.9V9.9
					c0-2,0.9-3.4,3.1-3.4c0.7,0,1.3,0.1,1.8,0.3L208.8,8.3z"/>
				<path d="M209.3,16.1c0-3.2,2.2-5.2,4.5-5.2c2.6,0,4,1.9,4,4.7c0,0.4,0,0.8-0.1,1h-6.4c0.2,1.9,1.3,3,3.1,3
					c0.9,0,1.6-0.3,2.4-0.7l0.7,1.3c-0.9,0.6-2.1,1-3.3,1C211.4,21.2,209.3,19.3,209.3,16.1z M216.1,15.2c0-1.7-0.8-2.7-2.2-2.7
					c-1.2,0-2.3,1-2.5,2.7H216.1z"/>
				<path d="M219.5,16.1c0-3.3,2.3-5.2,4.9-5.2c1.3,0,2.2,0.5,2.9,1.1l-1,1.4c-0.5-0.5-1.1-0.8-1.8-0.8c-1.7,0-2.8,1.4-2.8,3.5
					c0,2.1,1.1,3.5,2.8,3.5c0.8,0,1.6-0.4,2.2-0.9l0.8,1.4c-0.9,0.8-2.1,1.2-3.2,1.2C221.5,21.2,219.5,19.3,219.5,16.1z"/>
				<path d="M229.6,17.8v-5h-1.4v-1.5l1.5-0.1l0.2-2.7h1.7v2.7h2.6v1.7h-2.6v5c0,1.2,0.4,1.8,1.4,1.8c0.3,0,0.8-0.1,1.1-0.2l0.4,1.5
					c-0.6,0.2-1.2,0.4-1.9,0.4C230.4,21.2,229.6,19.8,229.6,17.8z"/>
				<path d="M239.7,16.1c0-3.3,2.2-5.2,4.7-5.2c2.4,0,4.7,1.9,4.7,5.2c0,3.3-2.2,5.2-4.7,5.2C242,21.2,239.7,19.3,239.7,16.1z
					 M246.9,16.1c0-2.1-1-3.5-2.5-3.5c-1.5,0-2.5,1.4-2.5,3.5c0,2.1,1,3.5,2.5,3.5C246,19.5,246.9,18.2,246.9,16.1z"/>
				<path d="M256.3,8.3c-0.4-0.2-0.7-0.3-1.1-0.3c-0.9,0-1.3,0.6-1.3,1.8v1.3h2v1.7h-2V21h-2.1v-8.2h-1.4v-1.5l1.4-0.1V9.9
					c0-2,0.9-3.4,3.1-3.4c0.7,0,1.3,0.1,1.7,0.3L256.3,8.3z"/>
				<path d="M261.4,8c0-0.7,0.6-1.2,1.3-1.2c0.8,0,1.3,0.5,1.3,1.2c0,0.7-0.6,1.2-1.3,1.2C262,9.2,261.4,8.7,261.4,8z M261.7,11.1
					h2.1V21h-2.1V11.1z"/>
				<path d="M266.9,11.1h1.7l0.2,1.4h0.1c0.9-0.9,1.9-1.6,3.3-1.6c2.1,0,3,1.4,3,3.9V21H273v-6c0-1.7-0.5-2.4-1.7-2.4
					c-0.9,0-1.5,0.5-2.4,1.3v7h-2.1V11.1z"/>
				<path d="M278.4,17.8v-5H277v-1.5l1.5-0.1l0.2-2.7h1.7v2.7h2.6v1.7h-2.6v5c0,1.2,0.4,1.8,1.4,1.8c0.3,0,0.8-0.1,1.1-0.2l0.4,1.5
					c-0.6,0.2-1.2,0.4-1.9,0.4C279.2,21.2,278.4,19.8,278.4,17.8z"/>
				<path d="M285.2,11.1h1.7l0.2,1.8h0.1c0.7-1.3,1.7-2,2.8-2c0.5,0,0.8,0.1,1.1,0.2l-0.4,1.8c-0.3-0.1-0.6-0.2-1-0.2
					c-0.8,0-1.8,0.6-2.4,2.1V21h-2.1V11.1z"/>
				<path d="M291.5,18.4c0-2.1,1.8-3.2,5.9-3.7c0-1.2-0.4-2.2-1.9-2.2c-1,0-2,0.5-2.9,1l-0.8-1.4c1-0.6,2.4-1.3,4-1.3
					c2.5,0,3.6,1.6,3.6,4.2v6h-1.7l-0.2-1.1h-0.1c-0.9,0.8-2,1.4-3.2,1.4C292.7,21.2,291.5,20.1,291.5,18.4z M297.4,18.4V16
					c-2.9,0.4-3.9,1.1-3.9,2.2c0,1,0.7,1.4,1.5,1.4C295.9,19.6,296.6,19.2,297.4,18.4z"/>
				<path d="M302.4,11.1h1.7l0.2,1.4h0.1c0.8-0.9,1.8-1.6,3.1-1.6c1.5,0,2.3,0.7,2.7,1.8c1-1,2-1.8,3.2-1.8c2.1,0,3,1.4,3,3.9V21
					h-2.1v-6c0-1.7-0.5-2.4-1.7-2.4c-0.7,0-1.4,0.5-2.2,1.3v7h-2.1v-6c0-1.7-0.5-2.4-1.7-2.4c-0.7,0-1.4,0.5-2.2,1.3v7h-2.1V11.1z"
					/>
				<path d="M323.7,21.6c-0.8,2.1-1.8,3.5-3.9,3.5c-0.5,0-0.9-0.1-1.2-0.2l0.4-1.6c0.2,0.1,0.5,0.1,0.7,0.1c1.1,0,1.7-0.8,2.1-1.9
					l0.2-0.7l-3.9-9.8h2.1l1.8,5.1c0.3,0.9,0.6,1.9,0.9,2.8h0.1l0.8-2.8l1.6-5.1h2L323.7,21.6z"/>
				<path d="M328.4,16.1c0-3.3,2.2-5.2,4.7-5.2c2.4,0,4.7,1.9,4.7,5.2c0,3.3-2.2,5.2-4.7,5.2C330.6,21.2,328.4,19.3,328.4,16.1z
					 M335.6,16.1c0-2.1-1-3.5-2.5-3.5c-1.5,0-2.5,1.4-2.5,3.5c0,2.1,1,3.5,2.5,3.5C334.6,19.5,335.6,18.2,335.6,16.1z"/>
				<path d="M339.4,16.1c0-3.3,2.3-5.2,4.9-5.2c1.3,0,2.2,0.5,2.9,1.1l-1,1.4c-0.5-0.5-1.1-0.8-1.8-0.8c-1.7,0-2.8,1.4-2.8,3.5
					c0,2.1,1.1,3.5,2.8,3.5c0.8,0,1.6-0.4,2.2-0.9l0.8,1.4c-0.9,0.8-2.1,1.2-3.2,1.2C341.5,21.2,339.4,19.3,339.4,16.1z"/>
				<path d="M348.7,18.4c0-2.1,1.8-3.2,5.9-3.7c0-1.2-0.4-2.2-1.9-2.2c-1,0-2,0.5-2.9,1l-0.8-1.4c1-0.6,2.4-1.3,4-1.3
					c2.5,0,3.6,1.6,3.6,4.2v6H355l-0.2-1.1h-0.1c-0.9,0.8-2,1.4-3.2,1.4C349.9,21.2,348.7,20.1,348.7,18.4z M354.6,18.4V16
					c-2.9,0.4-3.9,1.1-3.9,2.2c0,1,0.7,1.4,1.5,1.4C353.1,19.6,353.8,19.2,354.6,18.4z"/>
				<path d="M359.6,11.1h1.7l0.2,1.8h0.1c0.7-1.3,1.7-2,2.8-2c0.5,0,0.8,0.1,1.1,0.2l-0.4,1.8c-0.3-0.1-0.6-0.2-1-0.2
					c-0.8,0-1.8,0.6-2.4,2.1V21h-2.1V11.1z"/>
				<path d="M366.1,16.1c0-3.2,2-5.2,4.2-5.2c1.1,0,1.9,0.4,2.7,1.1l-0.1-1.6V6.6h2.1V21h-1.7l-0.2-1.1h-0.1
					c-0.7,0.8-1.8,1.4-2.9,1.4C367.7,21.2,366.1,19.3,366.1,16.1z M372.9,18.3v-4.8c-0.7-0.7-1.4-0.9-2.2-0.9
					c-1.4,0-2.5,1.3-2.5,3.5c0,2.3,0.9,3.5,2.4,3.5C371.5,19.5,372.2,19.1,372.9,18.3z"/>
				<path d="M377.8,8c0-0.7,0.6-1.2,1.3-1.2c0.8,0,1.3,0.5,1.3,1.2c0,0.7-0.6,1.2-1.3,1.2C378.4,9.2,377.8,8.7,377.8,8z M378.1,11.1
					h2.1V21h-2.1V11.1z"/>
				<path d="M382.7,18.4c0-2.1,1.8-3.2,5.9-3.7c0-1.2-0.4-2.2-1.9-2.2c-1,0-2,0.5-2.9,1l-0.8-1.4c1-0.6,2.4-1.3,4-1.3
					c2.5,0,3.6,1.6,3.6,4.2v6H389l-0.2-1.1h-0.1c-0.9,0.8-2,1.4-3.2,1.4C383.9,21.2,382.7,20.1,382.7,18.4z M388.6,18.4V16
					c-2.9,0.4-3.9,1.1-3.9,2.2c0,1,0.7,1.4,1.5,1.4C387.1,19.6,387.8,19.2,388.6,18.4z"/>
				<path d="M393.6,18.7v-12h2.1v12.1c0,0.6,0.3,0.8,0.5,0.8c0.1,0,0.2,0,0.3,0l0.3,1.6c-0.3,0.1-0.6,0.2-1.1,0.2
					C394.2,21.2,393.6,20.3,393.6,18.7z"/>
				<path d="M401.4,7.7h2.2l2,6.9c0.5,1.5,0.7,2.8,1.2,4.3h0.1c0.5-1.5,0.8-2.8,1.2-4.3l2-6.9h2.1L408,21h-2.5L401.4,7.7z"/>
				<path d="M413.9,7.7h2.4l2.4,6.7c0.3,0.9,0.6,1.8,0.9,2.7h0.1c0.3-0.9,0.6-1.8,0.9-2.7l2.4-6.7h2.4V21h-1.9v-6.6
					c0-1.2,0.2-2.9,0.3-4.1h-0.1l-1.1,3.1l-2.3,6.3H419l-2.3-6.3l-1-3.1h-0.1c0.1,1.2,0.3,2.9,0.3,4.1V21h-1.9V7.7z"/>
				<path d="M427.9,19.8c3.9-3.5,5.9-6,5.9-8.2c0-1.4-0.8-2.4-2.3-2.4c-1,0-1.9,0.7-2.6,1.5l-1.2-1.2c1.1-1.2,2.3-2,4-2
					c2.4,0,4,1.6,4,4c0,2.6-2,5.2-4.8,7.9c0.7-0.1,1.5-0.1,2.2-0.1h3.3V21h-8.6V19.8z"/>
				<path d="M438.2,14.3c0-4.6,1.7-6.8,4.3-6.8c2.6,0,4.3,2.3,4.3,6.8c0,4.6-1.7,6.9-4.3,6.9C439.9,21.2,438.2,18.9,438.2,14.3z
					 M444.8,14.3c0-3.8-1-5.2-2.3-5.2c-1.3,0-2.3,1.4-2.3,5.2c0,3.8,1,5.3,2.3,5.3C443.8,19.6,444.8,18.2,444.8,14.3z"/>
				<path d="M448.4,19.8c3.9-3.5,5.9-6,5.9-8.2c0-1.4-0.8-2.4-2.3-2.4c-1,0-1.9,0.7-2.6,1.5l-1.2-1.2c1.1-1.2,2.3-2,4-2
					c2.4,0,4,1.6,4,4c0,2.6-2,5.2-4.8,7.9c0.7-0.1,1.5-0.1,2.2-0.1h3.3V21h-8.6V19.8z"/>
				<path d="M463.2,8c0-0.7,0.6-1.2,1.3-1.2c0.8,0,1.3,0.5,1.3,1.2c0,0.7-0.6,1.2-1.3,1.2C463.8,9.2,463.2,8.7,463.2,8z M463.5,11.1
					h2.1V21h-2.1V11.1z"/>
				<path d="M468.6,11.1h1.7l0.2,1.4h0.1c0.9-0.9,1.9-1.6,3.3-1.6c2.1,0,3,1.4,3,3.9V21h-2.1v-6c0-1.7-0.5-2.4-1.7-2.4
					c-0.9,0-1.5,0.5-2.4,1.3v7h-2.1V11.1z"/>
				<path d="M477.4,25l0.4-1.5c0.3,0.1,0.6,0.2,0.9,0.2c0.9,0,1.2-0.7,1.2-1.8V11.1h2.1v10.6c0,2.1-0.8,3.5-3,3.5
					C478.3,25.3,477.8,25.1,477.4,25z M479.6,8c0-0.7,0.6-1.2,1.3-1.2c0.8,0,1.3,0.5,1.3,1.2c0,0.7-0.6,1.2-1.3,1.2
					C480.2,9.2,479.6,8.7,479.6,8z"/>
				<path d="M484.4,16.1c0-3.2,2.2-5.2,4.5-5.2c2.6,0,4,1.9,4,4.7c0,0.4,0,0.8-0.1,1h-6.4c0.2,1.9,1.3,3,3.1,3
					c0.9,0,1.6-0.3,2.4-0.7l0.7,1.3c-0.9,0.6-2.1,1-3.3,1C486.5,21.2,484.4,19.3,484.4,16.1z M491.1,15.2c0-1.7-0.8-2.7-2.2-2.7
					c-1.2,0-2.3,1-2.5,2.7H491.1z"/>
				<path d="M494.5,16.1c0-3.3,2.3-5.2,4.9-5.2c1.3,0,2.2,0.5,2.9,1.1l-1,1.4c-0.5-0.5-1.1-0.8-1.8-0.8c-1.7,0-2.8,1.4-2.8,3.5
					c0,2.1,1.1,3.5,2.8,3.5c0.8,0,1.6-0.4,2.2-0.9l0.8,1.4c-0.9,0.8-2.1,1.2-3.2,1.2C496.6,21.2,494.5,19.3,494.5,16.1z"/>
				<path d="M504.7,17.8v-5h-1.4v-1.5l1.5-0.1l0.2-2.7h1.7v2.7h2.6v1.7h-2.6v5c0,1.2,0.4,1.8,1.4,1.8c0.3,0,0.8-0.1,1.1-0.2l0.4,1.5
					c-0.6,0.2-1.2,0.4-1.9,0.4C505.4,21.2,504.7,19.8,504.7,17.8z"/>
				<path d="M511.2,8c0-0.7,0.6-1.2,1.3-1.2c0.8,0,1.3,0.5,1.3,1.2c0,0.7-0.6,1.2-1.3,1.2C511.7,9.2,511.2,8.7,511.2,8z M511.5,11.1
					h2.1V21h-2.1V11.1z"/>
				<path d="M515.9,16.1c0-3.3,2.2-5.2,4.7-5.2c2.4,0,4.7,1.9,4.7,5.2c0,3.3-2.2,5.2-4.7,5.2C518.1,21.2,515.9,19.3,515.9,16.1z
					 M523.1,16.1c0-2.1-1-3.5-2.5-3.5c-1.5,0-2.5,1.4-2.5,3.5c0,2.1,1,3.5,2.5,3.5C522.2,19.5,523.1,18.2,523.1,16.1z"/>
				<path d="M527.7,11.1h1.7l0.2,1.4h0.1c0.9-0.9,1.9-1.6,3.3-1.6c2.1,0,3,1.4,3,3.9V21h-2.1v-6c0-1.7-0.5-2.4-1.7-2.4
					c-0.9,0-1.5,0.5-2.4,1.3v7h-2.1V11.1z"/>
				<path d="M542.3,16.1c0-3.3,2.2-5.2,4.7-5.2c2.4,0,4.7,1.9,4.7,5.2c0,3.3-2.2,5.2-4.7,5.2C544.5,21.2,542.3,19.3,542.3,16.1z
					 M549.5,16.1c0-2.1-1-3.5-2.5-3.5c-1.5,0-2.5,1.4-2.5,3.5c0,2.1,1,3.5,2.5,3.5C548.5,19.5,549.5,18.2,549.5,16.1z"/>
				<path d="M554,11.1h1.7l0.2,1.4h0.1c0.9-0.9,1.9-1.6,3.3-1.6c2.1,0,3,1.4,3,3.9V21h-2.1v-6c0-1.7-0.5-2.4-1.7-2.4
					c-0.9,0-1.5,0.5-2.4,1.3v7H554V11.1z"/>
				<path d="M569.3,11.1h1.7l0.2,1.8h0.1c0.7-1.3,1.7-2,2.8-2c0.5,0,0.8,0.1,1.1,0.2l-0.4,1.8c-0.3-0.1-0.6-0.2-1-0.2
					c-0.8,0-1.8,0.6-2.4,2.1V21h-2.1V11.1z"/>
				<path d="M575.8,16.1c0-3.2,2.2-5.2,4.5-5.2c2.6,0,4,1.9,4,4.7c0,0.4,0,0.8-0.1,1h-6.4c0.2,1.9,1.3,3,3.1,3
					c0.9,0,1.6-0.3,2.4-0.7l0.7,1.3c-0.9,0.6-2.1,1-3.3,1C577.9,21.2,575.8,19.3,575.8,16.1z M582.5,15.2c0-1.7-0.8-2.7-2.2-2.7
					c-1.2,0-2.3,1-2.5,2.7H582.5z"/>
				<path d="M585.7,22.8c0-0.8,0.5-1.6,1.4-2.2v-0.1c-0.5-0.3-0.9-0.8-0.9-1.6c0-0.8,0.6-1.4,1.1-1.8V17c-0.7-0.5-1.3-1.5-1.3-2.6
					c0-2.3,1.8-3.6,3.8-3.6c0.6,0,1.1,0.1,1.4,0.3h3.5v1.5H593c0.4,0.4,0.6,1.1,0.6,1.8c0,2.2-1.6,3.4-3.7,3.4c-0.5,0-1-0.1-1.4-0.3
					c-0.3,0.3-0.5,0.6-0.5,1c0,0.6,0.4,1,1.7,1h1.8c2.3,0,3.6,0.7,3.6,2.4c0,1.9-2,3.5-5.2,3.5C587.4,25.4,585.7,24.6,585.7,22.8z
					 M593,22.3c0-0.8-0.6-1.1-1.9-1.1h-1.5c-0.5,0-0.9-0.1-1.3-0.1c-0.6,0.4-0.8,0.9-0.8,1.4c0,1,1,1.5,2.6,1.5
					C591.9,24.1,593,23.2,593,22.3z M591.8,14.4c0-1.3-0.8-2.1-1.9-2.1c-1,0-1.9,0.8-1.9,2.1c0,1.3,0.8,2.1,1.9,2.1
					S591.8,15.7,591.8,14.4z"/>
				<path d="M596.6,8c0-0.7,0.6-1.2,1.3-1.2c0.8,0,1.3,0.5,1.3,1.2c0,0.7-0.6,1.2-1.3,1.2C597.1,9.2,596.6,8.7,596.6,8z M596.8,11.1
					h2.1V21h-2.1V11.1z"/>
				<path d="M601.3,16.1c0-3.3,2.2-5.2,4.7-5.2c2.4,0,4.7,1.9,4.7,5.2c0,3.3-2.2,5.2-4.7,5.2C603.5,21.2,601.3,19.3,601.3,16.1z
					 M608.5,16.1c0-2.1-1-3.5-2.5-3.5c-1.5,0-2.5,1.4-2.5,3.5c0,2.1,1,3.5,2.5,3.5C607.5,19.5,608.5,18.2,608.5,16.1z"/>
				<path d="M613.1,11.1h1.7l0.2,1.4h0.1c0.9-0.9,1.9-1.6,3.3-1.6c2.1,0,3,1.4,3,3.9V21h-2.1v-6c0-1.7-0.5-2.4-1.7-2.4
					c-0.9,0-1.5,0.5-2.4,1.3v7h-2.1V11.1z"/>
				<path d="M623.7,18.4c0-2.1,1.8-3.2,5.9-3.7c0-1.2-0.4-2.2-1.9-2.2c-1,0-2,0.5-2.9,1l-0.8-1.4c1-0.6,2.4-1.3,4-1.3
					c2.5,0,3.6,1.6,3.6,4.2v6H630l-0.2-1.1h-0.1c-0.9,0.8-2,1.4-3.2,1.4C624.9,21.2,623.7,20.1,623.7,18.4z M629.6,18.4V16
					c-2.9,0.4-3.9,1.1-3.9,2.2c0,1,0.7,1.4,1.5,1.4C628.1,19.6,628.8,19.2,629.6,18.4z"/>
				<path d="M634.6,18.7v-12h2.1v12.1c0,0.6,0.3,0.8,0.5,0.8c0.1,0,0.2,0,0.3,0l0.3,1.6c-0.3,0.1-0.6,0.2-1.1,0.2
					C635.2,21.2,634.6,20.3,634.6,18.7z"/>
				<path d="M644.1,11.1h1.7l0.2,1.4h0.1c0.8-0.9,1.8-1.6,3.1-1.6c1.5,0,2.3,0.7,2.7,1.8c1-1,2-1.8,3.2-1.8c2.1,0,3,1.4,3,3.9V21
					H656v-6c0-1.7-0.5-2.4-1.7-2.4c-0.7,0-1.4,0.5-2.2,1.3v7H650v-6c0-1.7-0.5-2.4-1.7-2.4c-0.7,0-1.4,0.5-2.2,1.3v7h-2.1V11.1z"/>
				<path d="M665.4,21.6c-0.8,2.1-1.8,3.5-3.9,3.5c-0.5,0-0.9-0.1-1.2-0.2l0.4-1.6c0.2,0.1,0.5,0.1,0.7,0.1c1.1,0,1.7-0.8,2.1-1.9
					l0.2-0.7l-3.9-9.8h2.1l1.8,5.1c0.3,0.9,0.6,1.9,0.9,2.8h0.1l0.8-2.8l1.6-5.1h2L665.4,21.6z"/>
				<path d="M670,16.1c0-3.3,2.2-5.2,4.7-5.2c2.4,0,4.7,1.9,4.7,5.2c0,3.3-2.2,5.2-4.7,5.2C672.2,21.2,670,19.3,670,16.1z
					 M677.2,16.1c0-2.1-1-3.5-2.5-3.5c-1.5,0-2.5,1.4-2.5,3.5c0,2.1,1,3.5,2.5,3.5C676.2,19.5,677.2,18.2,677.2,16.1z"/>
				<path d="M681,16.1c0-3.3,2.3-5.2,4.9-5.2c1.3,0,2.2,0.5,2.9,1.1l-1,1.4c-0.5-0.5-1.1-0.8-1.8-0.8c-1.7,0-2.8,1.4-2.8,3.5
					c0,2.1,1.1,3.5,2.8,3.5c0.8,0,1.6-0.4,2.2-0.9L689,20c-0.9,0.8-2.1,1.2-3.2,1.2C683.1,21.2,681,19.3,681,16.1z"/>
				<path d="M690.3,18.4c0-2.1,1.8-3.2,5.9-3.7c0-1.2-0.4-2.2-1.9-2.2c-1,0-2,0.5-2.9,1l-0.8-1.4c1-0.6,2.4-1.3,4-1.3
					c2.5,0,3.6,1.6,3.6,4.2v6h-1.7l-0.2-1.1h-0.1c-0.9,0.8-2,1.4-3.2,1.4C691.5,21.2,690.3,20.1,690.3,18.4z M696.2,18.4V16
					c-2.9,0.4-3.9,1.1-3.9,2.2c0,1,0.7,1.4,1.5,1.4C694.7,19.6,695.4,19.2,696.2,18.4z"/>
				<path d="M701.2,11.1h1.7l0.2,1.8h0.1c0.7-1.3,1.7-2,2.8-2c0.5,0,0.8,0.1,1.1,0.2l-0.4,1.8c-0.3-0.1-0.6-0.2-1-0.2
					c-0.8,0-1.8,0.6-2.4,2.1V21h-2.1V11.1z"/>
				<path d="M707.7,16.1c0-3.2,2-5.2,4.2-5.2c1.1,0,1.9,0.4,2.7,1.1l-0.1-1.6V6.6h2.1V21h-1.7l-0.2-1.1h-0.1
					c-0.7,0.8-1.8,1.4-2.9,1.4C709.3,21.2,707.7,19.3,707.7,16.1z M714.5,18.3v-4.8c-0.7-0.7-1.4-0.9-2.2-0.9
					c-1.4,0-2.5,1.3-2.5,3.5c0,2.3,0.9,3.5,2.4,3.5C713.1,19.5,713.8,19.1,714.5,18.3z"/>
				<path d="M719.4,8c0-0.7,0.6-1.2,1.3-1.2c0.8,0,1.3,0.5,1.3,1.2c0,0.7-0.6,1.2-1.3,1.2C720,9.2,719.4,8.7,719.4,8z M719.7,11.1
					h2.1V21h-2.1V11.1z"/>
				<path d="M724.3,18.4c0-2.1,1.8-3.2,5.9-3.7c0-1.2-0.4-2.2-1.9-2.2c-1,0-2,0.5-2.9,1l-0.8-1.4c1-0.6,2.4-1.3,4-1.3
					c2.5,0,3.6,1.6,3.6,4.2v6h-1.7l-0.2-1.1h-0.1c-0.9,0.8-2,1.4-3.2,1.4C725.5,21.2,724.3,20.1,724.3,18.4z M730.2,18.4V16
					c-2.9,0.4-3.9,1.1-3.9,2.2c0,1,0.7,1.4,1.5,1.4C728.7,19.6,729.4,19.2,730.2,18.4z"/>
				<path d="M735.2,18.7v-12h2.1v12.1c0,0.6,0.3,0.8,0.5,0.8c0.1,0,0.2,0,0.3,0l0.3,1.6c-0.3,0.1-0.6,0.2-1.1,0.2
					C735.8,21.2,735.2,20.3,735.2,18.7z"/>
				<path d="M749.4,8.3c-0.4-0.2-0.7-0.3-1.1-0.3c-0.9,0-1.3,0.6-1.3,1.8v1.3h2v1.7h-2V21H745v-8.2h-1.4v-1.5l1.4-0.1V9.9
					c0-2,0.9-3.4,3.1-3.4c0.7,0,1.3,0.1,1.7,0.3L749.4,8.3z"/>
				<path d="M750.7,17.3v-6.2h2.1v6c0,1.7,0.5,2.4,1.7,2.4c0.9,0,1.5-0.4,2.4-1.5v-6.9h2.1V21h-1.7l-0.2-1.5H757
					c-0.9,1-1.9,1.7-3.2,1.7C751.6,21.2,750.7,19.8,750.7,17.3z"/>
				<path d="M762,11.1h1.7l0.2,1.4h0.1c0.9-0.9,1.9-1.6,3.3-1.6c2.1,0,3,1.4,3,3.9V21h-2.1v-6c0-1.7-0.5-2.4-1.7-2.4
					c-0.9,0-1.5,0.5-2.4,1.3v7H762V11.1z"/>
				<path d="M772.5,16.1c0-3.3,2.3-5.2,4.9-5.2c1.3,0,2.2,0.5,2.9,1.1l-1,1.4c-0.5-0.5-1.1-0.8-1.8-0.8c-1.7,0-2.8,1.4-2.8,3.5
					c0,2.1,1.1,3.5,2.8,3.5c0.8,0,1.6-0.4,2.2-0.9l0.8,1.4c-0.9,0.8-2.1,1.2-3.2,1.2C774.6,21.2,772.5,19.3,772.5,16.1z"/>
				<path d="M782.7,17.8v-5h-1.4v-1.5l1.5-0.1l0.2-2.7h1.7v2.7h2.6v1.7h-2.6v5c0,1.2,0.4,1.8,1.4,1.8c0.3,0,0.8-0.1,1.1-0.2l0.4,1.5
					c-0.6,0.2-1.2,0.4-1.9,0.4C783.4,21.2,782.7,19.8,782.7,17.8z"/>
				<path d="M789.2,8c0-0.7,0.6-1.2,1.3-1.2c0.8,0,1.3,0.5,1.3,1.2c0,0.7-0.6,1.2-1.3,1.2C789.7,9.2,789.2,8.7,789.2,8z M789.5,11.1
					h2.1V21h-2.1V11.1z"/>
				<path d="M793.9,16.1c0-3.3,2.2-5.2,4.7-5.2c2.4,0,4.7,1.9,4.7,5.2c0,3.3-2.2,5.2-4.7,5.2C796.2,21.2,793.9,19.3,793.9,16.1z
					 M801.1,16.1c0-2.1-1-3.5-2.5-3.5c-1.5,0-2.5,1.4-2.5,3.5c0,2.1,1,3.5,2.5,3.5C800.2,19.5,801.1,18.2,801.1,16.1z"/>
				<path d="M805.7,11.1h1.7l0.2,1.4h0.1c0.9-0.9,1.9-1.6,3.3-1.6c2.1,0,3,1.4,3,3.9V21h-2.1v-6c0-1.7-0.5-2.4-1.7-2.4
					c-0.9,0-1.5,0.5-2.4,1.3v7h-2.1V11.1z"/>
			</g>
		</g>
	</g>
</g>
</svg>
