<?xml version="1.0" encoding="utf-8"?>
<!-- Generator: Adobe Illustrator 23.0.1, SVG Export Plug-In . SVG Version: 6.00 Build 0)  -->
<svg version="1.1" id="Layer_1" xmlns="http://www.w3.org/2000/svg" xmlns:xlink="http://www.w3.org/1999/xlink" x="0px" y="0px"
	 viewBox="0 0 336 1002" style="enable-background:new 0 0 336 1002;" xml:space="preserve">
<style type="text/css">
	.st0{fill-rule:evenodd;clip-rule:evenodd;}
	.st1{enable-background:new    ;}
	.st2{fill:#FFFFFF;}
	.st3{font-family:'NotoSansKR-Bold-KSCpc-EUC-H';}
	.st4{font-size:15px;}
	.st5{fill:#B54142;}
	.st6{fill:none;stroke:#979797;stroke-linecap:square;}
	.st7{font-family:'NotoSansKR-Medium-KSCpc-EUC-H';}
	.st8{font-size:18px;}
</style>
<title>effe_img2_mobile</title>
<desc>Created with Sketch.</desc>
<g id="Page-1">
	<g id="mobile1-copy" transform="translate(-20.000000, -2361.000000)">
		<g id="effe_img2_mobile" transform="translate(21.000000, 2355.000000)">
			<g id="table1" transform="translate(0.000000, 84.000000)">
				<g id="cell1">
					<g transform="translate(0.000000, 47.000000)">
						<g id="head">
							<path id="bg" class="st0" d="M8,0h318c4.4,0,8,3.6,8,8v34c0,4.4-3.6,8-8,8H8c-4.4,0-8-3.6-8-8V8C0,3.6,3.6,0,8,0z"/>
							<g class="st1">
								<path class="st2" d="M77.3,25.5c0-3.7,2.4-5.8,5.2-5.8c1.4,0,2.5,0.7,3.3,1.4l-1.2,1.4c-0.6-0.5-1.2-0.9-2-0.9
									c-1.7,0-2.9,1.4-2.9,3.8c0,2.4,1.1,3.9,2.9,3.9c0.9,0,1.7-0.5,2.3-1.1l1.2,1.4c-0.9,1.1-2.1,1.6-3.5,1.6
									C79.6,31.2,77.3,29.2,77.3,25.5z"/>
								<path class="st2" d="M87,26.8c0-2.8,1.9-4.4,4-4.4c2.1,0,4,1.6,4,4.4c0,2.8-1.9,4.4-4,4.4C89,31.2,87,29.6,87,26.8z
									 M92.8,26.8c0-1.6-0.6-2.6-1.8-2.6c-1.1,0-1.8,1-1.8,2.6c0,1.6,0.6,2.6,1.8,2.6C92.2,29.4,92.8,28.4,92.8,26.8z"/>
								<path class="st2" d="M96.9,22.6h1.8l0.2,1.1h0.1c0.7-0.7,1.5-1.3,2.6-1.3c1.2,0,1.9,0.5,2.3,1.5c0.8-0.8,1.6-1.5,2.7-1.5
									c1.8,0,2.6,1.3,2.6,3.4V31h-2.2v-5c0-1.3-0.4-1.8-1.2-1.8c-0.5,0-1,0.3-1.6,0.9V31h-2.2v-5c0-1.3-0.4-1.8-1.2-1.8
									c-0.5,0-1,0.3-1.6,0.9V31h-2.2V22.6z"/>
								<path class="st2" d="M111.4,22.6h1.8l0.2,0.9h0.1c0.7-0.6,1.6-1.1,2.5-1.1c2.1,0,3.3,1.7,3.3,4.3c0,2.9-1.7,4.5-3.6,4.5
									c-0.7,0-1.4-0.3-2.1-0.9l0.1,1.4v2.5h-2.2V22.6z M116.9,26.7c0-1.6-0.5-2.5-1.7-2.5c-0.6,0-1.1,0.3-1.7,0.9v3.7
									c0.5,0.5,1.1,0.6,1.5,0.6C116.1,29.4,116.9,28.5,116.9,26.7z"/>
								<path class="st2" d="M121.1,28.6V19h2.2v9.7c0,0.5,0.2,0.7,0.4,0.7c0.1,0,0.2,0,0.3,0l0.3,1.6c-0.3,0.1-0.6,0.2-1.1,0.2
									C121.6,31.2,121.1,30.2,121.1,28.6z"/>
								<path class="st2" d="M125.3,26.8c0-2.7,1.9-4.4,3.9-4.4c2.3,0,3.5,1.7,3.5,4c0,0.4,0,0.8-0.1,1h-5.2
									c0.2,1.4,1.1,2.1,2.3,2.1c0.7,0,1.3-0.2,1.9-0.6l0.8,1.4c-0.8,0.6-1.9,0.9-2.9,0.9C127.1,31.2,125.3,29.6,125.3,26.8z
									 M130.8,26c0-1.1-0.5-1.9-1.6-1.9c-0.9,0-1.7,0.6-1.8,1.9H130.8z"/>
								<path class="st2" d="M134.6,28.1v-3.7h-1.2v-1.6l1.3-0.1l0.3-2.2h1.8v2.2h2.1v1.7h-2.1v3.7c0,1,0.4,1.4,1.1,1.4
									c0.3,0,0.6-0.1,0.8-0.2l0.4,1.6c-0.5,0.2-1,0.3-1.8,0.3C135.4,31.2,134.6,30,134.6,28.1z"/>
								<path class="st2" d="M139.8,26.8c0-2.7,1.9-4.4,3.9-4.4c2.3,0,3.5,1.7,3.5,4c0,0.4,0,0.8-0.1,1H142c0.2,1.4,1.1,2.1,2.3,2.1
									c0.7,0,1.3-0.2,1.9-0.6l0.8,1.4c-0.8,0.6-1.9,0.9-2.9,0.9C141.6,31.2,139.8,29.6,139.8,26.8z M145.3,26
									c0-1.1-0.5-1.9-1.6-1.9c-0.9,0-1.7,0.6-1.8,1.9H145.3z"/>
								<path class="st2" d="M149,28.6V19h2.2v9.7c0,0.5,0.2,0.7,0.5,0.7c0.1,0,0.1,0,0.3,0l0.3,1.6c-0.3,0.1-0.6,0.2-1.1,0.2
									C149.6,31.2,149,30.2,149,28.6z"/>
								<path class="st2" d="M153.4,34.2l0.4-1.7c0.2,0,0.4,0.1,0.6,0.1c0.9,0,1.3-0.5,1.6-1.3l0.2-0.5l-3.3-8.2h2.2l1.3,3.9
									c0.3,0.8,0.5,1.6,0.7,2.4h0.1c0.2-0.8,0.4-1.6,0.6-2.4l1.2-3.9h2.1l-3,8.7c-0.7,2-1.6,3.1-3.5,3.1
									C154,34.4,153.7,34.3,153.4,34.2z"/>
								<path class="st2" d="M166,19.9h2.2v4.4h4.2v-4.4h2.2V31h-2.2v-4.8h-4.2V31H166V19.9z"/>
								<path class="st2" d="M176.6,26.8c0-2.7,1.9-4.4,3.9-4.4c2.3,0,3.5,1.7,3.5,4c0,0.4,0,0.8-0.1,1h-5.2
									c0.2,1.4,1.1,2.1,2.3,2.1c0.7,0,1.3-0.2,1.9-0.6l0.8,1.4c-0.8,0.6-1.9,0.9-2.9,0.9C178.4,31.2,176.6,29.6,176.6,26.8z
									 M182.2,26c0-1.1-0.5-1.9-1.6-1.9c-0.9,0-1.7,0.6-1.8,1.9H182.2z"/>
								<path class="st2" d="M185.2,28.7c0-1.8,1.5-2.7,4.8-3.1c0-0.8-0.4-1.5-1.4-1.5c-0.8,0-1.5,0.3-2.3,0.8l-0.8-1.5
									c1-0.6,2.2-1.1,3.5-1.1c2.1,0,3.2,1.3,3.2,3.7V31h-1.8l-0.2-0.9h0c-0.7,0.6-1.6,1.1-2.5,1.1
									C186.2,31.2,185.2,30.1,185.2,28.7z M190.1,28.7V27c-2,0.3-2.7,0.8-2.7,1.6c0,0.7,0.5,0.9,1.1,0.9
									C189.1,29.5,189.5,29.2,190.1,28.7z"/>
								<path class="st2" d="M194.5,28.6V19h2.2v9.7c0,0.5,0.2,0.7,0.5,0.7c0.1,0,0.1,0,0.3,0l0.3,1.6c-0.3,0.1-0.6,0.2-1.1,0.2
									C195.1,31.2,194.5,30.2,194.5,28.6z"/>
								<path class="st2" d="M198.7,26.8c0-2.7,1.9-4.4,3.9-4.4c2.3,0,3.5,1.7,3.5,4c0,0.4,0,0.8-0.1,1h-5.2
									c0.2,1.4,1.1,2.1,2.3,2.1c0.7,0,1.3-0.2,1.9-0.6l0.8,1.4c-0.8,0.6-1.9,0.9-2.9,0.9C200.5,31.2,198.7,29.6,198.7,26.8z
									 M204.2,26c0-1.1-0.5-1.9-1.6-1.9c-0.9,0-1.7,0.6-1.8,1.9H204.2z"/>
								<path class="st2" d="M207.5,26.8c0-2.7,1.7-4.4,3.5-4.4c0.9,0,1.5,0.4,2.1,0.9L213,22v-3h2.2v12h-1.8l-0.2-0.9h0
									c-0.6,0.6-1.5,1.1-2.3,1.1C208.8,31.2,207.5,29.6,207.5,26.8z M213,28.5v-3.7c-0.5-0.5-1-0.6-1.6-0.6
									c-0.9,0-1.7,0.9-1.7,2.6c0,1.7,0.6,2.6,1.7,2.6C212.1,29.4,212.6,29.2,213,28.5z"/>
								<path class="st2" d="M221.1,26v-6.1h2.2v6.3c0,2.3,0.8,3.1,2.1,3.1c1.3,0,2.2-0.8,2.2-3.1v-6.3h2.1V26
									c0,3.7-1.6,5.2-4.3,5.2C222.8,31.2,221.1,29.7,221.1,26z"/>
								<path class="st2" d="M232.2,28.6V19h2.2v9.7c0,0.5,0.2,0.7,0.5,0.7c0.1,0,0.1,0,0.3,0l0.3,1.6c-0.3,0.1-0.6,0.2-1.1,0.2
									C232.8,31.2,232.2,30.2,232.2,28.6z"/>
								<path class="st2" d="M236.4,26.8c0-2.8,2-4.4,4.3-4.4c1,0,1.8,0.4,2.4,0.9l-1,1.4c-0.4-0.4-0.8-0.6-1.3-0.6
									c-1.3,0-2.1,1-2.1,2.6c0,1.6,0.9,2.6,2.1,2.6c0.6,0,1.2-0.3,1.6-0.7l0.9,1.5c-0.8,0.7-1.8,1-2.7,1
									C238.2,31.2,236.4,29.6,236.4,26.8z"/>
								<path class="st2" d="M243.9,26.8c0-2.7,1.9-4.4,3.9-4.4c2.3,0,3.5,1.7,3.5,4c0,0.4,0,0.8-0.1,1H246c0.2,1.4,1.1,2.1,2.3,2.1
									c0.7,0,1.3-0.2,1.9-0.6l0.8,1.4c-0.8,0.6-1.9,0.9-2.9,0.9C245.7,31.2,243.9,29.6,243.9,26.8z M249.4,26
									c0-1.1-0.5-1.9-1.6-1.9c-0.9,0-1.7,0.6-1.8,1.9H249.4z"/>
								<path class="st2" d="M253.1,22.6h1.8l0.1,1.5h0.1c0.6-1.1,1.5-1.7,2.4-1.7c0.5,0,0.7,0.1,1,0.2l-0.4,1.9
									c-0.3-0.1-0.5-0.1-0.9-0.1c-0.7,0-1.5,0.4-1.9,1.7v5h-2.2V22.6z"/>
							</g>
						</g>
						<g id="sub" transform="translate(124.000000, 65.000000)">
							<g class="st1">
								<path d="M2,19.3h2.9v-9.2H2.6V8.8c1.2-0.2,2.1-0.5,2.9-1H7v11.5h2.6V21H2V19.3z"/>
								<path d="M12.3,19.3h2.9v-9.2h-2.4V8.8c1.2-0.2,2.1-0.5,2.9-1h1.6v11.5h2.6V21h-7.6V19.3z"/>
								<path d="M21.7,11.7c0-2.7,1.2-4.2,3.1-4.2s3.1,1.5,3.1,4.2c0,2.7-1.3,4.2-3.1,4.2S21.7,14.3,21.7,11.7z M26.4,11.7
									c0-2.1-0.7-3-1.6-3c-0.9,0-1.6,0.9-1.6,3c0,2,0.7,3,1.6,3C25.7,14.7,26.4,13.7,26.4,11.7z M32.4,7.5h1.3l-7.3,13.7h-1.3
									L32.4,7.5z M31.1,17c0-2.7,1.3-4.2,3.1-4.2c1.8,0,3.1,1.5,3.1,4.2c0,2.7-1.3,4.2-3.1,4.2C32.3,21.2,31.1,19.7,31.1,17z
									 M35.8,17c0-2.1-0.7-3-1.6-3c-0.9,0-1.6,0.9-1.6,3c0,2,0.7,3,1.6,3C35.1,20,35.8,19.1,35.8,17z"/>
								<path d="M43.6,15.4c0-3.5,1-6.5,2.7-9.2l1.3,0.6c-1.5,2.6-2.3,5.6-2.3,8.6c0,3,0.7,6.1,2.3,8.6l-1.3,0.6
									C44.6,21.8,43.6,18.9,43.6,15.4z"/>
								<path d="M49.9,11.1h1.7l0.2,1.4h0.1c0.9-0.9,1.9-1.6,3.3-1.6c2.1,0,3,1.4,3,3.9V21h-2.1v-6c0-1.7-0.5-2.4-1.7-2.4
									c-0.9,0-1.5,0.5-2.4,1.3v7h-2.1V11.1z"/>
								<path d="M60.3,11.3h8.9v1.5h-8.9V11.3z M60.3,15.8h8.9v1.5h-8.9V15.8z"/>
								<path d="M71.4,19.3h2.9v-9.2h-2.4V8.8c1.2-0.2,2.1-0.5,2.9-1h1.6v11.5H79V21h-7.6V19.3z"/>
								<path d="M80.9,24c1.5-2.6,2.3-5.6,2.3-8.6c0-3-0.7-6-2.3-8.6l1.3-0.6c1.7,2.7,2.7,5.7,2.7,9.2c0,3.6-1,6.5-2.7,9.2L80.9,24z
									"/>
							</g>
						</g>
					</g>
					<g transform="translate(0.000000, 154.000000)">
						<g>
							<path class="st0" d="M8,0h318c4.4,0,8,3.6,8,8v56c0,4.4-3.6,8-8,8H8c-4.4,0-8-3.6-8-8V8C0,3.6,3.6,0,8,0z"/>
							<g class="st1">
								<path class="st2" d="M71.7,19.9h2.5l1.9,5.2c0.2,0.7,0.4,1.4,0.7,2.1h0.1c0.2-0.7,0.4-1.5,0.7-2.1l1.8-5.2h2.5V31h-2v-4.6
									c0-1,0.2-2.6,0.3-3.6h-0.1L79,25.3L77.3,30H76l-1.7-4.7l-0.9-2.6h-0.1c0.1,1,0.3,2.6,0.3,3.6V31h-2V19.9z"/>
								<path class="st2" d="M83.8,26.8c0-2.7,1.9-4.4,3.9-4.4c2.3,0,3.5,1.7,3.5,4c0,0.4,0,0.8-0.1,1h-5.2c0.2,1.4,1.1,2.1,2.3,2.1
									c0.7,0,1.3-0.2,1.9-0.6l0.8,1.4c-0.8,0.6-1.9,0.9-2.9,0.9C85.6,31.2,83.8,29.6,83.8,26.8z M89.3,26c0-1.1-0.5-1.9-1.6-1.9
									c-0.9,0-1.7,0.6-1.8,1.9H89.3z"/>
								<path class="st2" d="M92.4,28.7c0-1.8,1.5-2.7,4.8-3.1c0-0.8-0.4-1.5-1.4-1.5c-0.8,0-1.5,0.3-2.3,0.8l-0.8-1.5
									c1-0.6,2.2-1.1,3.5-1.1c2.1,0,3.2,1.3,3.2,3.7V31h-1.8l-0.2-0.9h0c-0.7,0.6-1.6,1.1-2.5,1.1C93.4,31.2,92.4,30.1,92.4,28.7z
									 M97.2,28.7V27c-2,0.3-2.7,0.8-2.7,1.6c0,0.7,0.5,0.9,1.1,0.9C96.2,29.5,96.7,29.2,97.2,28.7z"/>
								<path class="st2" d="M101.7,22.6h1.8l0.1,1.1h0.1c0.7-0.7,1.6-1.3,2.7-1.3c1.8,0,2.6,1.3,2.6,3.4V31h-2.2v-5
									c0-1.3-0.4-1.8-1.2-1.8c-0.7,0-1.1,0.3-1.8,0.9V31h-2.2V22.6z"/>
								<path class="st2" d="M111.1,20.1c0-0.7,0.6-1.2,1.3-1.2c0.8,0,1.3,0.5,1.3,1.2c0,0.7-0.6,1.2-1.3,1.2
									C111.6,21.2,111.1,20.7,111.1,20.1z M111.3,22.6h2.2V31h-2.2V22.6z"/>
								<path class="st2" d="M115.8,22.6h1.8l0.1,1.1h0.1c0.7-0.7,1.6-1.3,2.7-1.3c1.8,0,2.6,1.3,2.6,3.4V31H121v-5
									c0-1.3-0.4-1.8-1.2-1.8c-0.7,0-1.1,0.3-1.8,0.9V31h-2.2V22.6z"/>
								<path class="st2" d="M124.9,32.5c0-0.7,0.4-1.3,1.2-1.7v-0.1c-0.4-0.3-0.8-0.7-0.8-1.4c0-0.6,0.4-1.2,0.9-1.6v-0.1
									c-0.6-0.4-1.1-1.2-1.1-2.2c0-2,1.6-3,3.4-3c0.5,0,0.9,0.1,1.3,0.2h3v1.6h-1.4c0.2,0.3,0.4,0.8,0.4,1.3
									c0,1.9-1.4,2.8-3.2,2.8c-0.3,0-0.7-0.1-1.1-0.2c-0.2,0.2-0.4,0.4-0.4,0.7c0,0.5,0.3,0.7,1.3,0.7h1.4c2,0,3.1,0.6,3.1,2.1
									c0,1.7-1.8,3-4.6,3C126.4,34.6,124.9,34,124.9,32.5z M130.9,32c0-0.6-0.5-0.8-1.4-0.8h-1c-0.5,0-0.9,0-1.2-0.1
									c-0.4,0.3-0.6,0.6-0.6,1c0,0.7,0.8,1.1,2,1.1C130,33.2,130.9,32.7,130.9,32z M129.8,25.4c0-1-0.6-1.5-1.3-1.5
									s-1.3,0.6-1.3,1.5c0,1,0.6,1.5,1.3,1.5S129.8,26.4,129.8,25.4z"/>
								<path class="st2" d="M138.9,20.7c-0.3-0.1-0.6-0.2-0.9-0.2c-0.7,0-1,0.4-1,1.3v0.7h1.6v1.7H137V31h-2.2v-6.7h-1.1v-1.6
									l1.1-0.1v-0.7c0-1.8,0.8-3.1,2.9-3.1c0.6,0,1.2,0.2,1.6,0.3L138.9,20.7z"/>
								<path class="st2" d="M139.9,27.9v-5.2h2.2v5c0,1.3,0.4,1.8,1.2,1.8c0.7,0,1.1-0.3,1.7-1v-5.7h2.2V31h-1.8l-0.2-1.2h-0.1
									c-0.7,0.9-1.5,1.4-2.7,1.4C140.7,31.2,139.9,30,139.9,27.9z"/>
								<path class="st2" d="M149.5,28.6V19h2.2v9.7c0,0.5,0.2,0.7,0.4,0.7c0.1,0,0.1,0,0.3,0l0.3,1.6c-0.3,0.1-0.6,0.2-1.1,0.2
									C150.1,31.2,149.5,30.2,149.5,28.6z"/>
								<path class="st2" d="M157.8,26v-6.1h2.2v6.3c0,2.3,0.8,3.1,2.1,3.1c1.3,0,2.2-0.8,2.2-3.1v-6.3h2.1V26
									c0,3.7-1.6,5.2-4.3,5.2C159.4,31.2,157.8,29.7,157.8,26z"/>
								<path class="st2" d="M168.9,28.6V19h2.2v9.7c0,0.5,0.2,0.7,0.5,0.7c0.1,0,0.1,0,0.3,0l0.3,1.6c-0.3,0.1-0.6,0.2-1.1,0.2
									C169.4,31.2,168.9,30.2,168.9,28.6z"/>
								<path class="st2" d="M173.1,26.8c0-2.8,2-4.4,4.3-4.4c1,0,1.8,0.4,2.4,0.9l-1,1.4c-0.4-0.4-0.8-0.6-1.3-0.6
									c-1.3,0-2.1,1-2.1,2.6c0,1.6,0.9,2.6,2.1,2.6c0.6,0,1.2-0.3,1.6-0.7l0.9,1.5c-0.8,0.7-1.8,1-2.7,1
									C174.9,31.2,173.1,29.6,173.1,26.8z"/>
								<path class="st2" d="M180.5,26.8c0-2.7,1.9-4.4,3.9-4.4c2.3,0,3.5,1.7,3.5,4c0,0.4,0,0.8-0.1,1h-5.2
									c0.2,1.4,1.1,2.1,2.3,2.1c0.7,0,1.3-0.2,1.9-0.6l0.8,1.4c-0.8,0.6-1.9,0.9-2.9,0.9C182.4,31.2,180.5,29.6,180.5,26.8z
									 M186.1,26c0-1.1-0.5-1.9-1.6-1.9c-0.9,0-1.7,0.6-1.8,1.9H186.1z"/>
								<path class="st2" d="M189.8,22.6h1.8l0.1,1.5h0.1c0.6-1.1,1.5-1.7,2.4-1.7c0.5,0,0.7,0.1,1,0.2l-0.4,1.9
									c-0.3-0.1-0.5-0.1-0.9-0.1c-0.7,0-1.5,0.4-1.9,1.7v5h-2.2V22.6z"/>
								<path class="st2" d="M199.3,26.8c0-2.7,1.7-4.4,3.5-4.4c0.9,0,1.5,0.4,2.1,0.9l-0.1-1.3v-3h2.2v12h-1.8l-0.2-0.9h0
									c-0.6,0.6-1.5,1.1-2.3,1.1C200.6,31.2,199.3,29.6,199.3,26.8z M204.8,28.5v-3.7c-0.5-0.5-1-0.6-1.6-0.6
									c-0.9,0-1.7,0.9-1.7,2.6c0,1.7,0.6,2.6,1.7,2.6C203.8,29.4,204.3,29.2,204.8,28.5z"/>
								<path class="st2" d="M208.9,26.8c0-2.7,1.9-4.4,3.9-4.4c2.3,0,3.5,1.7,3.5,4c0,0.4,0,0.8-0.1,1H211c0.2,1.4,1.1,2.1,2.3,2.1
									c0.7,0,1.3-0.2,1.9-0.6l0.8,1.4c-0.8,0.6-1.9,0.9-2.9,0.9C210.7,31.2,208.9,29.6,208.9,26.8z M214.4,26
									c0-1.1-0.5-1.9-1.6-1.9c-0.9,0-1.7,0.6-1.8,1.9H214.4z"/>
								<path class="st2" d="M217.6,26.8c0-2.8,2-4.4,4.3-4.4c1,0,1.8,0.4,2.4,0.9l-1,1.4c-0.4-0.4-0.8-0.6-1.3-0.6
									c-1.3,0-2.1,1-2.1,2.6c0,1.6,0.9,2.6,2.1,2.6c0.6,0,1.2-0.3,1.6-0.7l0.9,1.5c-0.8,0.7-1.8,1-2.7,1
									C219.4,31.2,217.6,29.6,217.6,26.8z"/>
								<path class="st2" d="M226,22.6h1.8l0.1,1.5h0.1c0.6-1.1,1.5-1.7,2.4-1.7c0.5,0,0.7,0.1,1,0.2l-0.4,1.9
									c-0.3-0.1-0.5-0.1-0.9-0.1c-0.7,0-1.5,0.4-1.9,1.7v5H226V22.6z"/>
								<path class="st2" d="M231.8,26.8c0-2.7,1.9-4.4,3.9-4.4c2.3,0,3.5,1.7,3.5,4c0,0.4,0,0.8-0.1,1H234c0.2,1.4,1.1,2.1,2.3,2.1
									c0.7,0,1.3-0.2,1.9-0.6l0.8,1.4c-0.8,0.6-1.9,0.9-2.9,0.9C233.7,31.2,231.8,29.6,231.8,26.8z M237.4,26
									c0-1.1-0.5-1.9-1.6-1.9c-0.9,0-1.7,0.6-1.8,1.9H237.4z"/>
								<path class="st2" d="M240.5,28.7c0-1.8,1.5-2.7,4.8-3.1c0-0.8-0.4-1.5-1.4-1.5c-0.8,0-1.5,0.3-2.3,0.8l-0.8-1.5
									c1-0.6,2.2-1.1,3.5-1.1c2.1,0,3.2,1.3,3.2,3.7V31h-1.8l-0.2-0.9h0c-0.7,0.6-1.6,1.1-2.5,1.1
									C241.4,31.2,240.5,30.1,240.5,28.7z M245.3,28.7V27c-2,0.3-2.7,0.8-2.7,1.6c0,0.7,0.5,0.9,1.1,0.9
									C244.3,29.5,244.8,29.2,245.3,28.7z"/>
								<path class="st2" d="M248.9,30l1-1.4c0.8,0.6,1.5,0.9,2.2,0.9c0.8,0,1.2-0.4,1.2-0.9c0-0.6-0.9-0.9-1.8-1.3
									c-1.1-0.4-2.3-1-2.3-2.4c0-1.5,1.2-2.6,3.1-2.6c1.2,0,2.2,0.5,2.9,1l-1,1.3c-0.6-0.4-1.2-0.7-1.8-0.7
									c-0.8,0-1.1,0.3-1.1,0.8c0,0.6,0.8,0.8,1.7,1.2c1.1,0.4,2.3,1,2.3,2.5c0,1.5-1.2,2.7-3.3,2.7C251,31.2,249.8,30.7,248.9,30z
									"/>
								<path class="st2" d="M256.6,26.8c0-2.7,1.9-4.4,3.9-4.4c2.3,0,3.5,1.7,3.5,4c0,0.4,0,0.8-0.1,1h-5.2
									c0.2,1.4,1.1,2.1,2.3,2.1c0.7,0,1.3-0.2,1.9-0.6l0.8,1.4c-0.8,0.6-1.9,0.9-2.9,0.9C258.5,31.2,256.6,29.6,256.6,26.8z
									 M262.2,26c0-1.1-0.5-1.9-1.6-1.9c-0.9,0-1.7,0.6-1.8,1.9H262.2z"/>
							</g>
							<text transform="matrix(1 0 0 1 264.6969 31)" class="st2 st3 st4"> </text>
							<g class="st1">
								<path class="st2" d="M103.9,42.1c0-0.7,0.6-1.2,1.3-1.2c0.8,0,1.3,0.5,1.3,1.2c0,0.7-0.6,1.2-1.3,1.2
									C104.5,43.2,103.9,42.7,103.9,42.1z M104.2,44.6h2.2V53h-2.2V44.6z"/>
								<path class="st2" d="M108.7,44.6h1.8l0.1,1.1h0.1c0.7-0.7,1.6-1.3,2.7-1.3c1.8,0,2.6,1.3,2.6,3.4V53h-2.2v-5
									c0-1.3-0.4-1.8-1.2-1.8c-0.7,0-1.1,0.3-1.8,0.9V53h-2.2V44.6z"/>
								<path class="st2" d="M120.9,52l1-1.4c0.8,0.6,1.5,0.9,2.2,0.9c0.8,0,1.2-0.4,1.2-0.9c0-0.6-0.9-0.9-1.8-1.3
									c-1.1-0.4-2.3-1-2.3-2.4c0-1.5,1.2-2.6,3.1-2.6c1.2,0,2.2,0.5,2.9,1l-1,1.3c-0.6-0.4-1.2-0.7-1.8-0.7
									c-0.8,0-1.1,0.3-1.1,0.8c0,0.6,0.8,0.8,1.7,1.2c1.1,0.4,2.3,1,2.3,2.5c0,1.5-1.2,2.7-3.3,2.7C123,53.2,121.8,52.7,120.9,52z
									"/>
								<path class="st2" d="M128.9,42.1c0-0.7,0.6-1.2,1.3-1.2c0.8,0,1.3,0.5,1.3,1.2c0,0.7-0.6,1.2-1.3,1.2
									C129.5,43.2,128.9,42.7,128.9,42.1z M129.2,44.6h2.2V53h-2.2V44.6z"/>
								<path class="st2" d="M133.1,51.8l3.8-5.5h-3.3v-1.7h6.1v1.2l-3.8,5.5h3.9V53h-6.6V51.8z"/>
								<path class="st2" d="M140.7,48.8c0-2.7,1.9-4.4,3.9-4.4c2.3,0,3.5,1.7,3.5,4c0,0.4,0,0.8-0.1,1h-5.2
									c0.2,1.4,1.1,2.1,2.3,2.1c0.7,0,1.3-0.2,1.9-0.6l0.8,1.4c-0.8,0.6-1.9,0.9-2.9,0.9C142.5,53.2,140.7,51.6,140.7,48.8z
									 M146.2,48c0-1.1-0.5-1.9-1.6-1.9c-0.9,0-1.7,0.6-1.8,1.9H146.2z"/>
								<path class="st2" d="M153.4,48.3c0-3,0.8-5.4,2.2-7.8l1.4,0.6c-1.3,2.2-1.8,4.7-1.8,7.2c0,2.5,0.6,5,1.8,7.2l-1.4,0.6
									C154.2,53.7,153.4,51.3,153.4,48.3z"/>
								<path class="st2" d="M158.5,48.8c0-2.8,1.9-4.4,4-4.4c2.1,0,4,1.6,4,4.4c0,2.8-1.9,4.4-4,4.4
									C160.4,53.2,158.5,51.6,158.5,48.8z M164.3,48.8c0-1.6-0.6-2.6-1.8-2.6c-1.1,0-1.8,1-1.8,2.6c0,1.6,0.6,2.6,1.8,2.6
									C163.6,51.4,164.3,50.4,164.3,48.8z"/>
								<path class="st2" d="M167.3,44.6h2.2l1.2,4.2c0.2,0.8,0.5,1.7,0.7,2.5h0.1c0.2-0.9,0.5-1.7,0.7-2.5l1.2-4.2h2.1l-2.8,8.4
									h-2.6L167.3,44.6z"/>
								<path class="st2" d="M176.3,48.8c0-2.7,1.9-4.4,3.9-4.4c2.3,0,3.5,1.7,3.5,4c0,0.4,0,0.8-0.1,1h-5.2
									c0.2,1.4,1.1,2.1,2.3,2.1c0.7,0,1.3-0.2,1.9-0.6l0.8,1.4c-0.8,0.6-1.9,0.9-2.9,0.9C178.1,53.2,176.3,51.6,176.3,48.8z
									 M181.8,48c0-1.1-0.5-1.9-1.6-1.9c-0.9,0-1.7,0.6-1.8,1.9H181.8z"/>
								<path class="st2" d="M185.5,44.6h1.8l0.2,1.5h0.1c0.6-1.1,1.5-1.7,2.4-1.7c0.5,0,0.7,0.1,1,0.2l-0.4,1.9
									c-0.3-0.1-0.5-0.1-0.9-0.1c-0.7,0-1.5,0.4-1.9,1.7v5h-2.2V44.6z"/>
								<path class="st2" d="M194.6,51.7l1-1.4c0.6,0.6,1.4,1.1,2.4,1.1c1.2,0,2-0.7,2-2c0-1.3-0.8-2-1.9-2c-0.7,0-1,0.2-1.7,0.6
									l-1-0.7l0.3-5.4h5.9v1.8h-4l-0.2,2.4c0.4-0.2,0.8-0.3,1.3-0.3c1.9,0,3.4,1.1,3.4,3.5c0,2.5-1.8,3.9-3.9,3.9
									C196.6,53.2,195.5,52.5,194.6,51.7z"/>
								<path class="st2" d="M203.8,47.4c0-3.8,1.5-5.7,3.8-5.7c2.2,0,3.8,1.9,3.8,5.7s-1.5,5.8-3.8,5.8
									C205.3,53.2,203.8,51.2,203.8,47.4z M209.2,47.4c0-3.1-0.7-4-1.7-4c-1,0-1.7,0.9-1.7,4c0,3.1,0.7,4.1,1.7,4.1
									C208.5,51.5,209.2,50.5,209.2,47.4z"/>
								<path class="st2" d="M212.4,45.2c0-2.2,1.1-3.5,2.7-3.5c1.6,0,2.7,1.3,2.7,3.5c0,2.2-1.1,3.5-2.7,3.5
									C213.5,48.7,212.4,47.4,212.4,45.2z M216.3,45.2c0-1.6-0.5-2.2-1.2-2.2c-0.6,0-1.1,0.6-1.1,2.2s0.5,2.3,1.1,2.3
									C215.8,47.5,216.3,46.8,216.3,45.2z M221.5,41.7h1.3l-6,11.5h-1.3L221.5,41.7z M220.5,49.7c0-2.2,1.1-3.5,2.7-3.5
									s2.7,1.3,2.7,3.5c0,2.2-1.1,3.5-2.7,3.5S220.5,51.9,220.5,49.7z M224.3,49.7c0-1.6-0.5-2.3-1.2-2.3c-0.6,0-1.2,0.6-1.2,2.3
									s0.5,2.3,1.2,2.3C223.8,52,224.3,51.3,224.3,49.7z"/>
								<path class="st2" d="M227.1,55.4c1.3-2.2,1.8-4.7,1.8-7.2c0-2.4-0.6-5-1.8-7.2l1.4-0.6c1.4,2.3,2.2,4.8,2.2,7.8
									c0,3-0.8,5.4-2.2,7.8L227.1,55.4z"/>
							</g>
						</g>
						<g transform="translate(124.000000, 87.000000)">
							<g class="st1">
								<path d="M2,19.3h2.9v-9.2H2.6V8.8c1.2-0.2,2.1-0.5,2.9-1H7v11.5h2.6V21H2V19.3z"/>
								<path d="M12.3,19.3h2.9v-9.2h-2.4V8.8c1.2-0.2,2.1-0.5,2.9-1h1.6v11.5h2.6V21h-7.6V19.3z"/>
								<path d="M21.7,11.7c0-2.7,1.2-4.2,3.1-4.2s3.1,1.5,3.1,4.2c0,2.7-1.3,4.2-3.1,4.2S21.7,14.3,21.7,11.7z M26.4,11.7
									c0-2.1-0.7-3-1.6-3c-0.9,0-1.6,0.9-1.6,3c0,2,0.7,3,1.6,3C25.7,14.7,26.4,13.7,26.4,11.7z M32.4,7.5h1.3l-7.3,13.7h-1.3
									L32.4,7.5z M31.1,17c0-2.7,1.3-4.2,3.1-4.2c1.8,0,3.1,1.5,3.1,4.2c0,2.7-1.3,4.2-3.1,4.2C32.3,21.2,31.1,19.7,31.1,17z
									 M35.8,17c0-2.1-0.7-3-1.6-3c-0.9,0-1.6,0.9-1.6,3c0,2,0.7,3,1.6,3C35.1,20,35.8,19.1,35.8,17z"/>
								<path d="M43.6,15.4c0-3.5,1-6.5,2.7-9.2l1.3,0.6c-1.5,2.6-2.3,5.6-2.3,8.6c0,3,0.7,6.1,2.3,8.6l-1.3,0.6
									C44.6,21.8,43.6,18.9,43.6,15.4z"/>
								<path d="M49.9,11.1h1.7l0.2,1.4h0.1c0.9-0.9,1.9-1.6,3.3-1.6c2.1,0,3,1.4,3,3.9V21h-2.1v-6c0-1.7-0.5-2.4-1.7-2.4
									c-0.9,0-1.5,0.5-2.4,1.3v7h-2.1V11.1z"/>
								<path d="M60.3,11.3h8.9v1.5h-8.9V11.3z M60.3,15.8h8.9v1.5h-8.9V15.8z"/>
								<path d="M71.4,19.3h2.9v-9.2h-2.4V8.8c1.2-0.2,2.1-0.5,2.9-1h1.6v11.5H79V21h-7.6V19.3z"/>
								<path d="M80.9,24c1.5-2.6,2.3-5.6,2.3-8.6c0-3-0.7-6-2.3-8.6l1.3-0.6c1.7,2.7,2.7,5.7,2.7,9.2c0,3.6-1,6.5-2.7,9.2L80.9,24z
									"/>
							</g>
						</g>
					</g>
					<g class="st1">
						<path class="st5" d="M118.4,5.9h3.6c2.5,0,4.3,0.9,4.3,3.5c0,2.5-1.9,3.7-4.3,3.7h-1.5V17h-2.2V5.9z M122,11.3
							c1.5,0,2.3-0.6,2.3-1.9c0-1.3-0.8-1.7-2.3-1.7h-1.3v3.6H122z"/>
						<path class="st5" d="M128.3,14.6V5h2.2v9.7c0,0.5,0.2,0.7,0.4,0.7c0.1,0,0.1,0,0.3,0l0.3,1.6c-0.3,0.1-0.6,0.2-1.1,0.2
							C128.8,17.2,128.3,16.2,128.3,14.6z"/>
						<path class="st5" d="M132.6,14.7c0-1.8,1.5-2.7,4.8-3.1c0-0.8-0.4-1.5-1.4-1.5c-0.8,0-1.5,0.3-2.3,0.8l-0.8-1.5
							c1-0.6,2.2-1.1,3.5-1.1c2.1,0,3.2,1.3,3.2,3.7V17h-1.8l-0.2-0.9h0c-0.7,0.6-1.6,1.1-2.5,1.1C133.6,17.2,132.6,16.1,132.6,14.7
							z M137.4,14.7V13c-2,0.3-2.7,0.8-2.7,1.6c0,0.7,0.5,0.9,1.1,0.9C136.4,15.5,136.9,15.2,137.4,14.7z"/>
						<path class="st5" d="M141.3,12.8c0-2.8,2-4.4,4.3-4.4c1,0,1.8,0.4,2.4,0.9l-1,1.4c-0.4-0.4-0.8-0.6-1.3-0.6
							c-1.3,0-2.1,1-2.1,2.6c0,1.6,0.9,2.6,2.1,2.6c0.6,0,1.2-0.3,1.6-0.7l0.9,1.5c-0.8,0.7-1.8,1-2.7,1
							C143.1,17.2,141.3,15.6,141.3,12.8z"/>
						<path class="st5" d="M148.8,12.8c0-2.7,1.9-4.4,3.9-4.4c2.3,0,3.5,1.7,3.5,4c0,0.4,0,0.8-0.1,1h-5.2c0.2,1.4,1.1,2.1,2.3,2.1
							c0.7,0,1.3-0.2,1.9-0.6l0.8,1.4c-0.8,0.6-1.9,0.9-2.9,0.9C150.6,17.2,148.8,15.6,148.8,12.8z M154.3,12c0-1.1-0.5-1.9-1.6-1.9
							c-0.9,0-1.7,0.6-1.8,1.9H154.3z"/>
						<path class="st5" d="M160,16.1L160,16.1l-0.2,0.9H158V5h2.2v3l0,1.4c0.7-0.6,1.5-1,2.3-1c2.1,0,3.3,1.7,3.3,4.3
							c0,2.9-1.7,4.6-3.6,4.6C161.5,17.2,160.7,16.8,160,16.1z M163.5,12.7c0-1.6-0.5-2.5-1.7-2.5c-0.6,0-1.1,0.3-1.7,0.9v3.7
							c0.5,0.5,1.1,0.6,1.5,0.6C162.8,15.4,163.5,14.5,163.5,12.7z"/>
						<path class="st5" d="M167.2,12.8c0-2.8,1.9-4.4,4-4.4c2.1,0,4,1.6,4,4.4c0,2.8-1.9,4.4-4,4.4
							C169.1,17.2,167.2,15.6,167.2,12.8z M173,12.8c0-1.6-0.6-2.6-1.8-2.6c-1.1,0-1.8,1-1.8,2.6c0,1.6,0.6,2.6,1.8,2.6
							C172.3,15.4,173,14.4,173,12.8z"/>
						<path class="st5" d="M180.6,12.3c0-3,0.8-5.4,2.2-7.8l1.4,0.6c-1.3,2.2-1.8,4.7-1.8,7.2c0,2.5,0.6,5,1.8,7.2l-1.4,0.6
							C181.4,17.7,180.6,15.3,180.6,12.3z"/>
						<path class="st5" d="M186.2,8.6h1.8l0.1,1.1h0.1c0.7-0.7,1.6-1.3,2.7-1.3c1.8,0,2.6,1.3,2.6,3.4V17h-2.2v-5
							c0-1.3-0.4-1.8-1.2-1.8c-0.7,0-1.1,0.3-1.8,0.9V17h-2.2V8.6z"/>
						<path class="st5" d="M195.2,8.7h7.7v1.6h-7.7V8.7z M195.2,12.5h7.7v1.6h-7.7V12.5z"/>
						<path class="st5" d="M205.4,14.6c0.4,0.4,1.1,0.8,1.8,0.8c1.2,0,2.3-0.9,2.4-3.7c-0.6,0.8-1.5,1.2-2.3,1.2
							c-1.8,0-3.2-1.1-3.2-3.5c0-2.3,1.6-3.7,3.5-3.7c2.1,0,4,1.7,4,5.5c0,4.2-2.1,6-4.3,6c-1.4,0-2.4-0.6-3-1.3L205.4,14.6z
							 M209.4,10.1c-0.2-2-1-2.8-1.9-2.8c-0.8,0-1.5,0.7-1.5,2c0,1.3,0.6,1.9,1.6,1.9C208.2,11.3,208.9,11,209.4,10.1z"/>
						<path class="st5" d="M213,19.4c1.3-2.2,1.8-4.7,1.8-7.2c0-2.4-0.6-5-1.8-7.2l1.4-0.6c1.4,2.3,2.2,4.8,2.2,7.8
							c0,3-0.8,5.4-2.2,7.8L213,19.4z"/>
					</g>
					<path id="divider" class="st6" d="M0,298h334"/>
				</g>
				<g id="cell2" transform="translate(0.000000, 329.000000)">
					<g transform="translate(0.000000, 47.000000)">
						<g>
							<path class="st0" d="M8,0h318c4.4,0,8,3.6,8,8v34c0,4.4-3.6,8-8,8H8c-4.4,0-8-3.6-8-8V8C0,3.6,3.6,0,8,0z"/>
							<g class="st1">
								<path class="st2" d="M77.3,25.5c0-3.7,2.4-5.8,5.2-5.8c1.4,0,2.5,0.7,3.3,1.4l-1.2,1.4c-0.6-0.5-1.2-0.9-2-0.9
									c-1.7,0-2.9,1.4-2.9,3.8c0,2.4,1.1,3.9,2.9,3.9c0.9,0,1.7-0.5,2.3-1.1l1.2,1.4c-0.9,1.1-2.1,1.6-3.5,1.6
									C79.6,31.2,77.3,29.2,77.3,25.5z"/>
								<path class="st2" d="M87,26.8c0-2.8,1.9-4.4,4-4.4c2.1,0,4,1.6,4,4.4c0,2.8-1.9,4.4-4,4.4C89,31.2,87,29.6,87,26.8z
									 M92.8,26.8c0-1.6-0.6-2.6-1.8-2.6c-1.1,0-1.8,1-1.8,2.6c0,1.6,0.6,2.6,1.8,2.6C92.2,29.4,92.8,28.4,92.8,26.8z"/>
								<path class="st2" d="M96.9,22.6h1.8l0.2,1.1h0.1c0.7-0.7,1.5-1.3,2.6-1.3c1.2,0,1.9,0.5,2.3,1.5c0.8-0.8,1.6-1.5,2.7-1.5
									c1.8,0,2.6,1.3,2.6,3.4V31h-2.2v-5c0-1.3-0.4-1.8-1.2-1.8c-0.5,0-1,0.3-1.6,0.9V31h-2.2v-5c0-1.3-0.4-1.8-1.2-1.8
									c-0.5,0-1,0.3-1.6,0.9V31h-2.2V22.6z"/>
								<path class="st2" d="M111.4,22.6h1.8l0.2,0.9h0.1c0.7-0.6,1.6-1.1,2.5-1.1c2.1,0,3.3,1.7,3.3,4.3c0,2.9-1.7,4.5-3.6,4.5
									c-0.7,0-1.4-0.3-2.1-0.9l0.1,1.4v2.5h-2.2V22.6z M116.9,26.7c0-1.6-0.5-2.5-1.7-2.5c-0.6,0-1.1,0.3-1.7,0.9v3.7
									c0.5,0.5,1.1,0.6,1.5,0.6C116.1,29.4,116.9,28.5,116.9,26.7z"/>
								<path class="st2" d="M121.1,28.6V19h2.2v9.7c0,0.5,0.2,0.7,0.4,0.7c0.1,0,0.2,0,0.3,0l0.3,1.6c-0.3,0.1-0.6,0.2-1.1,0.2
									C121.6,31.2,121.1,30.2,121.1,28.6z"/>
								<path class="st2" d="M125.3,26.8c0-2.7,1.9-4.4,3.9-4.4c2.3,0,3.5,1.7,3.5,4c0,0.4,0,0.8-0.1,1h-5.2
									c0.2,1.4,1.1,2.1,2.3,2.1c0.7,0,1.3-0.2,1.9-0.6l0.8,1.4c-0.8,0.6-1.9,0.9-2.9,0.9C127.1,31.2,125.3,29.6,125.3,26.8z
									 M130.8,26c0-1.1-0.5-1.9-1.6-1.9c-0.9,0-1.7,0.6-1.8,1.9H130.8z"/>
								<path class="st2" d="M134.6,28.1v-3.7h-1.2v-1.6l1.3-0.1l0.3-2.2h1.8v2.2h2.1v1.7h-2.1v3.7c0,1,0.4,1.4,1.1,1.4
									c0.3,0,0.6-0.1,0.8-0.2l0.4,1.6c-0.5,0.2-1,0.3-1.8,0.3C135.4,31.2,134.6,30,134.6,28.1z"/>
								<path class="st2" d="M139.8,26.8c0-2.7,1.9-4.4,3.9-4.4c2.3,0,3.5,1.7,3.5,4c0,0.4,0,0.8-0.1,1H142c0.2,1.4,1.1,2.1,2.3,2.1
									c0.7,0,1.3-0.2,1.9-0.6l0.8,1.4c-0.8,0.6-1.9,0.9-2.9,0.9C141.6,31.2,139.8,29.6,139.8,26.8z M145.3,26
									c0-1.1-0.5-1.9-1.6-1.9c-0.9,0-1.7,0.6-1.8,1.9H145.3z"/>
								<path class="st2" d="M149,28.6V19h2.2v9.7c0,0.5,0.2,0.7,0.5,0.7c0.1,0,0.1,0,0.3,0l0.3,1.6c-0.3,0.1-0.6,0.2-1.1,0.2
									C149.6,31.2,149,30.2,149,28.6z"/>
								<path class="st2" d="M153.4,34.2l0.4-1.7c0.2,0,0.4,0.1,0.6,0.1c0.9,0,1.3-0.5,1.6-1.3l0.2-0.5l-3.3-8.2h2.2l1.3,3.9
									c0.3,0.8,0.5,1.6,0.7,2.4h0.1c0.2-0.8,0.4-1.6,0.6-2.4l1.2-3.9h2.1l-3,8.7c-0.7,2-1.6,3.1-3.5,3.1
									C154,34.4,153.7,34.3,153.4,34.2z"/>
								<path class="st2" d="M166,19.9h2.2v4.4h4.2v-4.4h2.2V31h-2.2v-4.8h-4.2V31H166V19.9z"/>
								<path class="st2" d="M176.6,26.8c0-2.7,1.9-4.4,3.9-4.4c2.3,0,3.5,1.7,3.5,4c0,0.4,0,0.8-0.1,1h-5.2
									c0.2,1.4,1.1,2.1,2.3,2.1c0.7,0,1.3-0.2,1.9-0.6l0.8,1.4c-0.8,0.6-1.9,0.9-2.9,0.9C178.4,31.2,176.6,29.6,176.6,26.8z
									 M182.2,26c0-1.1-0.5-1.9-1.6-1.9c-0.9,0-1.7,0.6-1.8,1.9H182.2z"/>
								<path class="st2" d="M185.2,28.7c0-1.8,1.5-2.7,4.8-3.1c0-0.8-0.4-1.5-1.4-1.5c-0.8,0-1.5,0.3-2.3,0.8l-0.8-1.5
									c1-0.6,2.2-1.1,3.5-1.1c2.1,0,3.2,1.3,3.2,3.7V31h-1.8l-0.2-0.9h0c-0.7,0.6-1.6,1.1-2.5,1.1
									C186.2,31.2,185.2,30.1,185.2,28.7z M190.1,28.7V27c-2,0.3-2.7,0.8-2.7,1.6c0,0.7,0.5,0.9,1.1,0.9
									C189.1,29.5,189.5,29.2,190.1,28.7z"/>
								<path class="st2" d="M194.5,28.6V19h2.2v9.7c0,0.5,0.2,0.7,0.5,0.7c0.1,0,0.1,0,0.3,0l0.3,1.6c-0.3,0.1-0.6,0.2-1.1,0.2
									C195.1,31.2,194.5,30.2,194.5,28.6z"/>
								<path class="st2" d="M198.7,26.8c0-2.7,1.9-4.4,3.9-4.4c2.3,0,3.5,1.7,3.5,4c0,0.4,0,0.8-0.1,1h-5.2
									c0.2,1.4,1.1,2.1,2.3,2.1c0.7,0,1.3-0.2,1.9-0.6l0.8,1.4c-0.8,0.6-1.9,0.9-2.9,0.9C200.5,31.2,198.7,29.6,198.7,26.8z
									 M204.2,26c0-1.1-0.5-1.9-1.6-1.9c-0.9,0-1.7,0.6-1.8,1.9H204.2z"/>
								<path class="st2" d="M207.5,26.8c0-2.7,1.7-4.4,3.5-4.4c0.9,0,1.5,0.4,2.1,0.9L213,22v-3h2.2v12h-1.8l-0.2-0.9h0
									c-0.6,0.6-1.5,1.1-2.3,1.1C208.8,31.2,207.5,29.6,207.5,26.8z M213,28.5v-3.7c-0.5-0.5-1-0.6-1.6-0.6
									c-0.9,0-1.7,0.9-1.7,2.6c0,1.7,0.6,2.6,1.7,2.6C212.1,29.4,212.6,29.2,213,28.5z"/>
								<path class="st2" d="M221.1,26v-6.1h2.2v6.3c0,2.3,0.8,3.1,2.1,3.1c1.3,0,2.2-0.8,2.2-3.1v-6.3h2.1V26
									c0,3.7-1.6,5.2-4.3,5.2C222.8,31.2,221.1,29.7,221.1,26z"/>
								<path class="st2" d="M232.2,28.6V19h2.2v9.7c0,0.5,0.2,0.7,0.5,0.7c0.1,0,0.1,0,0.3,0l0.3,1.6c-0.3,0.1-0.6,0.2-1.1,0.2
									C232.8,31.2,232.2,30.2,232.2,28.6z"/>
								<path class="st2" d="M236.4,26.8c0-2.8,2-4.4,4.3-4.4c1,0,1.8,0.4,2.4,0.9l-1,1.4c-0.4-0.4-0.8-0.6-1.3-0.6
									c-1.3,0-2.1,1-2.1,2.6c0,1.6,0.9,2.6,2.1,2.6c0.6,0,1.2-0.3,1.6-0.7l0.9,1.5c-0.8,0.7-1.8,1-2.7,1
									C238.2,31.2,236.4,29.6,236.4,26.8z"/>
								<path class="st2" d="M243.9,26.8c0-2.7,1.9-4.4,3.9-4.4c2.3,0,3.5,1.7,3.5,4c0,0.4,0,0.8-0.1,1H246c0.2,1.4,1.1,2.1,2.3,2.1
									c0.7,0,1.3-0.2,1.9-0.6l0.8,1.4c-0.8,0.6-1.9,0.9-2.9,0.9C245.7,31.2,243.9,29.6,243.9,26.8z M249.4,26
									c0-1.1-0.5-1.9-1.6-1.9c-0.9,0-1.7,0.6-1.8,1.9H249.4z"/>
								<path class="st2" d="M253.1,22.6h1.8l0.1,1.5h0.1c0.6-1.1,1.5-1.7,2.4-1.7c0.5,0,0.7,0.1,1,0.2l-0.4,1.9
									c-0.3-0.1-0.5-0.1-0.9-0.1c-0.7,0-1.5,0.4-1.9,1.7v5h-2.2V22.6z"/>
							</g>
						</g>
						<g transform="translate(119.000000, 65.000000)">
							<g class="st1">
								<path d="M0.9,19.5l1-1.4c0.8,0.8,1.7,1.4,3.1,1.4c1.5,0,2.6-1.1,2.6-2.8s-1-2.8-2.5-2.8c-0.8,0-1.4,0.3-2.1,0.8l-1-0.7
									l0.4-6.3H9v1.7H4.1l-0.3,3.4c0.6-0.3,1.1-0.5,1.8-0.5c2.2,0,4,1.3,4,4.2c0,2.9-2.1,4.6-4.5,4.6C3.1,21.2,1.8,20.4,0.9,19.5z
									"/>
								<path d="M11.4,19.8c3.9-3.5,5.9-6,5.9-8.2c0-1.4-0.8-2.4-2.3-2.4c-1,0-1.9,0.7-2.6,1.5l-1.2-1.2c1.1-1.2,2.3-2,4-2
									c2.4,0,4,1.6,4,4c0,2.6-2,5.2-4.8,7.9c0.7-0.1,1.5-0.1,2.2-0.1H20V21h-8.6V19.8z"/>
								<path d="M21.5,11.7c0-2.7,1.2-4.2,3.1-4.2s3.1,1.5,3.1,4.2c0,2.7-1.3,4.2-3.1,4.2S21.5,14.3,21.5,11.7z M26.2,11.7
									c0-2.1-0.7-3-1.6-3c-0.9,0-1.6,0.9-1.6,3c0,2,0.7,3,1.6,3C25.6,14.7,26.2,13.7,26.2,11.7z M32.3,7.5h1.3l-7.3,13.7H25
									L32.3,7.5z M30.9,17c0-2.7,1.3-4.2,3.1-4.2c1.8,0,3.1,1.5,3.1,4.2c0,2.7-1.3,4.2-3.1,4.2C32.2,21.2,30.9,19.7,30.9,17z
									 M35.6,17c0-2.1-0.7-3-1.6-3c-0.9,0-1.6,0.9-1.6,3c0,2,0.7,3,1.6,3C35,20,35.6,19.1,35.6,17z"/>
								<path d="M43.4,15.4c0-3.5,1-6.5,2.7-9.2l1.3,0.6c-1.5,2.6-2.3,5.6-2.3,8.6c0,3,0.7,6.1,2.3,8.6l-1.3,0.6
									C44.4,21.8,43.4,18.9,43.4,15.4z"/>
								<path d="M49.8,11.1h1.7l0.2,1.4h0.1c0.9-0.9,1.9-1.6,3.3-1.6c2.1,0,3,1.4,3,3.9V21H56v-6c0-1.7-0.5-2.4-1.7-2.4
									c-0.9,0-1.5,0.5-2.4,1.3v7h-2.1V11.1z"/>
								<path d="M60.1,11.3H69v1.5h-8.9V11.3z M60.1,15.8H69v1.5h-8.9V15.8z"/>
								<path d="M71.3,19.3h2.9v-9.2h-2.4V8.8c1.2-0.2,2.1-0.5,2.9-1h1.6v11.5h2.6V21h-7.6V19.3z"/>
								<path d="M89.7,17.4H88V21h-1.9v-3.6h-5.7V16l5.3-8.3H88v8.1h1.7V17.4z M86.1,15.8v-3.5c0-0.7,0.1-1.8,0.1-2.6h-0.1
									c-0.3,0.7-0.7,1.4-1.1,2l-2.6,4H86.1z"/>
								<path d="M91.1,24c1.5-2.6,2.3-5.6,2.3-8.6c0-3-0.7-6-2.3-8.6l1.3-0.6c1.7,2.7,2.7,5.7,2.7,9.2c0,3.6-1,6.5-2.7,9.2L91.1,24z
									"/>
							</g>
						</g>
					</g>
					<g transform="translate(0.000000, 154.000000)">
						<g>
							<path class="st0" d="M8,0h318c4.4,0,8,3.6,8,8v56c0,4.4-3.6,8-8,8H8c-4.4,0-8-3.6-8-8V8C0,3.6,3.6,0,8,0z"/>
							<g class="st1">
								<path class="st2" d="M71.7,19.9h2.5l1.9,5.2c0.2,0.7,0.4,1.4,0.7,2.1h0.1c0.2-0.7,0.4-1.5,0.7-2.1l1.8-5.2h2.5V31h-2v-4.6
									c0-1,0.2-2.6,0.3-3.6h-0.1L79,25.3L77.3,30H76l-1.7-4.7l-0.9-2.6h-0.1c0.1,1,0.3,2.6,0.3,3.6V31h-2V19.9z"/>
								<path class="st2" d="M83.8,26.8c0-2.7,1.9-4.4,3.9-4.4c2.3,0,3.5,1.7,3.5,4c0,0.4,0,0.8-0.1,1h-5.2c0.2,1.4,1.1,2.1,2.3,2.1
									c0.7,0,1.3-0.2,1.9-0.6l0.8,1.4c-0.8,0.6-1.9,0.9-2.9,0.9C85.6,31.2,83.8,29.6,83.8,26.8z M89.3,26c0-1.1-0.5-1.9-1.6-1.9
									c-0.9,0-1.7,0.6-1.8,1.9H89.3z"/>
								<path class="st2" d="M92.4,28.7c0-1.8,1.5-2.7,4.8-3.1c0-0.8-0.4-1.5-1.4-1.5c-0.8,0-1.5,0.3-2.3,0.8l-0.8-1.5
									c1-0.6,2.2-1.1,3.5-1.1c2.1,0,3.2,1.3,3.2,3.7V31h-1.8l-0.2-0.9h0c-0.7,0.6-1.6,1.1-2.5,1.1C93.4,31.2,92.4,30.1,92.4,28.7z
									 M97.2,28.7V27c-2,0.3-2.7,0.8-2.7,1.6c0,0.7,0.5,0.9,1.1,0.9C96.2,29.5,96.7,29.2,97.2,28.7z"/>
								<path class="st2" d="M101.7,22.6h1.8l0.1,1.1h0.1c0.7-0.7,1.6-1.3,2.7-1.3c1.8,0,2.6,1.3,2.6,3.4V31h-2.2v-5
									c0-1.3-0.4-1.8-1.2-1.8c-0.7,0-1.1,0.3-1.8,0.9V31h-2.2V22.6z"/>
								<path class="st2" d="M111.1,20.1c0-0.7,0.6-1.2,1.3-1.2c0.8,0,1.3,0.5,1.3,1.2c0,0.7-0.6,1.2-1.3,1.2
									C111.6,21.2,111.1,20.7,111.1,20.1z M111.3,22.6h2.2V31h-2.2V22.6z"/>
								<path class="st2" d="M115.8,22.6h1.8l0.1,1.1h0.1c0.7-0.7,1.6-1.3,2.7-1.3c1.8,0,2.6,1.3,2.6,3.4V31H121v-5
									c0-1.3-0.4-1.8-1.2-1.8c-0.7,0-1.1,0.3-1.8,0.9V31h-2.2V22.6z"/>
								<path class="st2" d="M124.9,32.5c0-0.7,0.4-1.3,1.2-1.7v-0.1c-0.4-0.3-0.8-0.7-0.8-1.4c0-0.6,0.4-1.2,0.9-1.6v-0.1
									c-0.6-0.4-1.1-1.2-1.1-2.2c0-2,1.6-3,3.4-3c0.5,0,0.9,0.1,1.3,0.2h3v1.6h-1.4c0.2,0.3,0.4,0.8,0.4,1.3
									c0,1.9-1.4,2.8-3.2,2.8c-0.3,0-0.7-0.1-1.1-0.2c-0.2,0.2-0.4,0.4-0.4,0.7c0,0.5,0.3,0.7,1.3,0.7h1.4c2,0,3.1,0.6,3.1,2.1
									c0,1.7-1.8,3-4.6,3C126.4,34.6,124.9,34,124.9,32.5z M130.9,32c0-0.6-0.5-0.8-1.4-0.8h-1c-0.5,0-0.9,0-1.2-0.1
									c-0.4,0.3-0.6,0.6-0.6,1c0,0.7,0.8,1.1,2,1.1C130,33.2,130.9,32.7,130.9,32z M129.8,25.4c0-1-0.6-1.5-1.3-1.5
									s-1.3,0.6-1.3,1.5c0,1,0.6,1.5,1.3,1.5S129.8,26.4,129.8,25.4z"/>
								<path class="st2" d="M138.9,20.7c-0.3-0.1-0.6-0.2-0.9-0.2c-0.7,0-1,0.4-1,1.3v0.7h1.6v1.7H137V31h-2.2v-6.7h-1.1v-1.6
									l1.1-0.1v-0.7c0-1.8,0.8-3.1,2.9-3.1c0.6,0,1.2,0.2,1.6,0.3L138.9,20.7z"/>
								<path class="st2" d="M139.9,27.9v-5.2h2.2v5c0,1.3,0.4,1.8,1.2,1.8c0.7,0,1.1-0.3,1.7-1v-5.7h2.2V31h-1.8l-0.2-1.2h-0.1
									c-0.7,0.9-1.5,1.4-2.7,1.4C140.7,31.2,139.9,30,139.9,27.9z"/>
								<path class="st2" d="M149.5,28.6V19h2.2v9.7c0,0.5,0.2,0.7,0.4,0.7c0.1,0,0.1,0,0.3,0l0.3,1.6c-0.3,0.1-0.6,0.2-1.1,0.2
									C150.1,31.2,149.5,30.2,149.5,28.6z"/>
								<path class="st2" d="M157.8,26v-6.1h2.2v6.3c0,2.3,0.8,3.1,2.1,3.1c1.3,0,2.2-0.8,2.2-3.1v-6.3h2.1V26
									c0,3.7-1.6,5.2-4.3,5.2C159.4,31.2,157.8,29.7,157.8,26z"/>
								<path class="st2" d="M168.9,28.6V19h2.2v9.7c0,0.5,0.2,0.7,0.5,0.7c0.1,0,0.1,0,0.3,0l0.3,1.6c-0.3,0.1-0.6,0.2-1.1,0.2
									C169.4,31.2,168.9,30.2,168.9,28.6z"/>
								<path class="st2" d="M173.1,26.8c0-2.8,2-4.4,4.3-4.4c1,0,1.8,0.4,2.4,0.9l-1,1.4c-0.4-0.4-0.8-0.6-1.3-0.6
									c-1.3,0-2.1,1-2.1,2.6c0,1.6,0.9,2.6,2.1,2.6c0.6,0,1.2-0.3,1.6-0.7l0.9,1.5c-0.8,0.7-1.8,1-2.7,1
									C174.9,31.2,173.1,29.6,173.1,26.8z"/>
								<path class="st2" d="M180.5,26.8c0-2.7,1.9-4.4,3.9-4.4c2.3,0,3.5,1.7,3.5,4c0,0.4,0,0.8-0.1,1h-5.2
									c0.2,1.4,1.1,2.1,2.3,2.1c0.7,0,1.3-0.2,1.9-0.6l0.8,1.4c-0.8,0.6-1.9,0.9-2.9,0.9C182.4,31.2,180.5,29.6,180.5,26.8z
									 M186.1,26c0-1.1-0.5-1.9-1.6-1.9c-0.9,0-1.7,0.6-1.8,1.9H186.1z"/>
								<path class="st2" d="M189.8,22.6h1.8l0.1,1.5h0.1c0.6-1.1,1.5-1.7,2.4-1.7c0.5,0,0.7,0.1,1,0.2l-0.4,1.9
									c-0.3-0.1-0.5-0.1-0.9-0.1c-0.7,0-1.5,0.4-1.9,1.7v5h-2.2V22.6z"/>
								<path class="st2" d="M199.3,26.8c0-2.7,1.7-4.4,3.5-4.4c0.9,0,1.5,0.4,2.1,0.9l-0.1-1.3v-3h2.2v12h-1.8l-0.2-0.9h0
									c-0.6,0.6-1.5,1.1-2.3,1.1C200.6,31.2,199.3,29.6,199.3,26.8z M204.8,28.5v-3.7c-0.5-0.5-1-0.6-1.6-0.6
									c-0.9,0-1.7,0.9-1.7,2.6c0,1.7,0.6,2.6,1.7,2.6C203.8,29.4,204.3,29.2,204.8,28.5z"/>
								<path class="st2" d="M208.9,26.8c0-2.7,1.9-4.4,3.9-4.4c2.3,0,3.5,1.7,3.5,4c0,0.4,0,0.8-0.1,1H211c0.2,1.4,1.1,2.1,2.3,2.1
									c0.7,0,1.3-0.2,1.9-0.6l0.8,1.4c-0.8,0.6-1.9,0.9-2.9,0.9C210.7,31.2,208.9,29.6,208.9,26.8z M214.4,26
									c0-1.1-0.5-1.9-1.6-1.9c-0.9,0-1.7,0.6-1.8,1.9H214.4z"/>
								<path class="st2" d="M217.6,26.8c0-2.8,2-4.4,4.3-4.4c1,0,1.8,0.4,2.4,0.9l-1,1.4c-0.4-0.4-0.8-0.6-1.3-0.6
									c-1.3,0-2.1,1-2.1,2.6c0,1.6,0.9,2.6,2.1,2.6c0.6,0,1.2-0.3,1.6-0.7l0.9,1.5c-0.8,0.7-1.8,1-2.7,1
									C219.4,31.2,217.6,29.6,217.6,26.8z"/>
								<path class="st2" d="M226,22.6h1.8l0.1,1.5h0.1c0.6-1.1,1.5-1.7,2.4-1.7c0.5,0,0.7,0.1,1,0.2l-0.4,1.9
									c-0.3-0.1-0.5-0.1-0.9-0.1c-0.7,0-1.5,0.4-1.9,1.7v5H226V22.6z"/>
								<path class="st2" d="M231.8,26.8c0-2.7,1.9-4.4,3.9-4.4c2.3,0,3.5,1.7,3.5,4c0,0.4,0,0.8-0.1,1H234c0.2,1.4,1.1,2.1,2.3,2.1
									c0.7,0,1.3-0.2,1.9-0.6l0.8,1.4c-0.8,0.6-1.9,0.9-2.9,0.9C233.7,31.2,231.8,29.6,231.8,26.8z M237.4,26
									c0-1.1-0.5-1.9-1.6-1.9c-0.9,0-1.7,0.6-1.8,1.9H237.4z"/>
								<path class="st2" d="M240.5,28.7c0-1.8,1.5-2.7,4.8-3.1c0-0.8-0.4-1.5-1.4-1.5c-0.8,0-1.5,0.3-2.3,0.8l-0.8-1.5
									c1-0.6,2.2-1.1,3.5-1.1c2.1,0,3.2,1.3,3.2,3.7V31h-1.8l-0.2-0.9h0c-0.7,0.6-1.6,1.1-2.5,1.1
									C241.4,31.2,240.5,30.1,240.5,28.7z M245.3,28.7V27c-2,0.3-2.7,0.8-2.7,1.6c0,0.7,0.5,0.9,1.1,0.9
									C244.3,29.5,244.8,29.2,245.3,28.7z"/>
								<path class="st2" d="M248.9,30l1-1.4c0.8,0.6,1.5,0.9,2.2,0.9c0.8,0,1.2-0.4,1.2-0.9c0-0.6-0.9-0.9-1.8-1.3
									c-1.1-0.4-2.3-1-2.3-2.4c0-1.5,1.2-2.6,3.1-2.6c1.2,0,2.2,0.5,2.9,1l-1,1.3c-0.6-0.4-1.2-0.7-1.8-0.7
									c-0.8,0-1.1,0.3-1.1,0.8c0,0.6,0.8,0.8,1.7,1.2c1.1,0.4,2.3,1,2.3,2.5c0,1.5-1.2,2.7-3.3,2.7C251,31.2,249.8,30.7,248.9,30z
									"/>
								<path class="st2" d="M256.6,26.8c0-2.7,1.9-4.4,3.9-4.4c2.3,0,3.5,1.7,3.5,4c0,0.4,0,0.8-0.1,1h-5.2
									c0.2,1.4,1.1,2.1,2.3,2.1c0.7,0,1.3-0.2,1.9-0.6l0.8,1.4c-0.8,0.6-1.9,0.9-2.9,0.9C258.5,31.2,256.6,29.6,256.6,26.8z
									 M262.2,26c0-1.1-0.5-1.9-1.6-1.9c-0.9,0-1.7,0.6-1.8,1.9H262.2z"/>
							</g>
							<text transform="matrix(1 0 0 1 264.6969 31)" class="st2 st3 st4"> </text>
							<g class="st1">
								<path class="st2" d="M103.9,42.1c0-0.7,0.6-1.2,1.3-1.2c0.8,0,1.3,0.5,1.3,1.2c0,0.7-0.6,1.2-1.3,1.2
									C104.5,43.2,103.9,42.7,103.9,42.1z M104.2,44.6h2.2V53h-2.2V44.6z"/>
								<path class="st2" d="M108.7,44.6h1.8l0.1,1.1h0.1c0.7-0.7,1.6-1.3,2.7-1.3c1.8,0,2.6,1.3,2.6,3.4V53h-2.2v-5
									c0-1.3-0.4-1.8-1.2-1.8c-0.7,0-1.1,0.3-1.8,0.9V53h-2.2V44.6z"/>
								<path class="st2" d="M120.9,52l1-1.4c0.8,0.6,1.5,0.9,2.2,0.9c0.8,0,1.2-0.4,1.2-0.9c0-0.6-0.9-0.9-1.8-1.3
									c-1.1-0.4-2.3-1-2.3-2.4c0-1.5,1.2-2.6,3.1-2.6c1.2,0,2.2,0.5,2.9,1l-1,1.3c-0.6-0.4-1.2-0.7-1.8-0.7
									c-0.8,0-1.1,0.3-1.1,0.8c0,0.6,0.8,0.8,1.7,1.2c1.1,0.4,2.3,1,2.3,2.5c0,1.5-1.2,2.7-3.3,2.7C123,53.2,121.8,52.7,120.9,52z
									"/>
								<path class="st2" d="M128.9,42.1c0-0.7,0.6-1.2,1.3-1.2c0.8,0,1.3,0.5,1.3,1.2c0,0.7-0.6,1.2-1.3,1.2
									C129.5,43.2,128.9,42.7,128.9,42.1z M129.2,44.6h2.2V53h-2.2V44.6z"/>
								<path class="st2" d="M133.1,51.8l3.8-5.5h-3.3v-1.7h6.1v1.2l-3.8,5.5h3.9V53h-6.6V51.8z"/>
								<path class="st2" d="M140.7,48.8c0-2.7,1.9-4.4,3.9-4.4c2.3,0,3.5,1.7,3.5,4c0,0.4,0,0.8-0.1,1h-5.2
									c0.2,1.4,1.1,2.1,2.3,2.1c0.7,0,1.3-0.2,1.9-0.6l0.8,1.4c-0.8,0.6-1.9,0.9-2.9,0.9C142.5,53.2,140.7,51.6,140.7,48.8z
									 M146.2,48c0-1.1-0.5-1.9-1.6-1.9c-0.9,0-1.7,0.6-1.8,1.9H146.2z"/>
								<path class="st2" d="M153.4,48.3c0-3,0.8-5.4,2.2-7.8l1.4,0.6c-1.3,2.2-1.8,4.7-1.8,7.2c0,2.5,0.6,5,1.8,7.2l-1.4,0.6
									C154.2,53.7,153.4,51.3,153.4,48.3z"/>
								<path class="st2" d="M158.5,48.8c0-2.8,1.9-4.4,4-4.4c2.1,0,4,1.6,4,4.4c0,2.8-1.9,4.4-4,4.4
									C160.4,53.2,158.5,51.6,158.5,48.8z M164.3,48.8c0-1.6-0.6-2.6-1.8-2.6c-1.1,0-1.8,1-1.8,2.6c0,1.6,0.6,2.6,1.8,2.6
									C163.6,51.4,164.3,50.4,164.3,48.8z"/>
								<path class="st2" d="M167.3,44.6h2.2l1.2,4.2c0.2,0.8,0.5,1.7,0.7,2.5h0.1c0.2-0.9,0.5-1.7,0.7-2.5l1.2-4.2h2.1l-2.8,8.4
									h-2.6L167.3,44.6z"/>
								<path class="st2" d="M176.3,48.8c0-2.7,1.9-4.4,3.9-4.4c2.3,0,3.5,1.7,3.5,4c0,0.4,0,0.8-0.1,1h-5.2
									c0.2,1.4,1.1,2.1,2.3,2.1c0.7,0,1.3-0.2,1.9-0.6l0.8,1.4c-0.8,0.6-1.9,0.9-2.9,0.9C178.1,53.2,176.3,51.6,176.3,48.8z
									 M181.8,48c0-1.1-0.5-1.9-1.6-1.9c-0.9,0-1.7,0.6-1.8,1.9H181.8z"/>
								<path class="st2" d="M185.5,44.6h1.8l0.2,1.5h0.1c0.6-1.1,1.5-1.7,2.4-1.7c0.5,0,0.7,0.1,1,0.2l-0.4,1.9
									c-0.3-0.1-0.5-0.1-0.9-0.1c-0.7,0-1.5,0.4-1.9,1.7v5h-2.2V44.6z"/>
								<path class="st2" d="M194.6,51.7l1-1.4c0.6,0.6,1.4,1.1,2.4,1.1c1.2,0,2-0.7,2-2c0-1.3-0.8-2-1.9-2c-0.7,0-1,0.2-1.7,0.6
									l-1-0.7l0.3-5.4h5.9v1.8h-4l-0.2,2.4c0.4-0.2,0.8-0.3,1.3-0.3c1.9,0,3.4,1.1,3.4,3.5c0,2.5-1.8,3.9-3.9,3.9
									C196.6,53.2,195.5,52.5,194.6,51.7z"/>
								<path class="st2" d="M203.8,47.4c0-3.8,1.5-5.7,3.8-5.7c2.2,0,3.8,1.9,3.8,5.7s-1.5,5.8-3.8,5.8
									C205.3,53.2,203.8,51.2,203.8,47.4z M209.2,47.4c0-3.1-0.7-4-1.7-4c-1,0-1.7,0.9-1.7,4c0,3.1,0.7,4.1,1.7,4.1
									C208.5,51.5,209.2,50.5,209.2,47.4z"/>
								<path class="st2" d="M212.4,45.2c0-2.2,1.1-3.5,2.7-3.5c1.6,0,2.7,1.3,2.7,3.5c0,2.2-1.1,3.5-2.7,3.5
									C213.5,48.7,212.4,47.4,212.4,45.2z M216.3,45.2c0-1.6-0.5-2.2-1.2-2.2c-0.6,0-1.1,0.6-1.1,2.2s0.5,2.3,1.1,2.3
									C215.8,47.5,216.3,46.8,216.3,45.2z M221.5,41.7h1.3l-6,11.5h-1.3L221.5,41.7z M220.5,49.7c0-2.2,1.1-3.5,2.7-3.5
									s2.7,1.3,2.7,3.5c0,2.2-1.1,3.5-2.7,3.5S220.5,51.9,220.5,49.7z M224.3,49.7c0-1.6-0.5-2.3-1.2-2.3c-0.6,0-1.2,0.6-1.2,2.3
									s0.5,2.3,1.2,2.3C223.8,52,224.3,51.3,224.3,49.7z"/>
								<path class="st2" d="M227.1,55.4c1.3-2.2,1.8-4.7,1.8-7.2c0-2.4-0.6-5-1.8-7.2l1.4-0.6c1.4,2.3,2.2,4.8,2.2,7.8
									c0,3-0.8,5.4-2.2,7.8L227.1,55.4z"/>
							</g>
						</g>
						<g transform="translate(119.000000, 87.000000)">
							<g class="st1">
								<path d="M7.5,9.5H1.3V7.7h8.5V9C6.7,12.9,6.2,15.8,6,21H3.8C4.1,16.2,4.9,13.1,7.5,9.5z"/>
								<path d="M11.5,14.3c0-4.6,1.7-6.8,4.3-6.8c2.6,0,4.3,2.3,4.3,6.8c0,4.6-1.7,6.9-4.3,6.9C13.1,21.2,11.5,18.9,11.5,14.3z
									 M18.1,14.3c0-3.8-1-5.2-2.3-5.2c-1.4,0-2.3,1.4-2.3,5.2c0,3.8,1,5.3,2.3,5.3C17.1,19.6,18.1,18.2,18.1,14.3z"/>
								<path d="M21.5,11.7c0-2.7,1.2-4.2,3.1-4.2s3.1,1.5,3.1,4.2c0,2.7-1.3,4.2-3.1,4.2S21.5,14.3,21.5,11.7z M26.2,11.7
									c0-2.1-0.7-3-1.6-3c-0.9,0-1.6,0.9-1.6,3c0,2,0.7,3,1.6,3C25.6,14.7,26.2,13.7,26.2,11.7z M32.3,7.5h1.3l-7.3,13.7H25
									L32.3,7.5z M30.9,17c0-2.7,1.3-4.2,3.1-4.2c1.8,0,3.1,1.5,3.1,4.2c0,2.7-1.3,4.2-3.1,4.2C32.2,21.2,30.9,19.7,30.9,17z
									 M35.6,17c0-2.1-0.7-3-1.6-3c-0.9,0-1.6,0.9-1.6,3c0,2,0.7,3,1.6,3C35,20,35.6,19.1,35.6,17z"/>
								<path d="M43.4,15.4c0-3.5,1-6.5,2.7-9.2l1.3,0.6c-1.5,2.6-2.3,5.6-2.3,8.6c0,3,0.7,6.1,2.3,8.6l-1.3,0.6
									C44.4,21.8,43.4,18.9,43.4,15.4z"/>
								<path d="M49.8,11.1h1.7l0.2,1.4h0.1c0.9-0.9,1.9-1.6,3.3-1.6c2.1,0,3,1.4,3,3.9V21H56v-6c0-1.7-0.5-2.4-1.7-2.4
									c-0.9,0-1.5,0.5-2.4,1.3v7h-2.1V11.1z"/>
								<path d="M60.1,11.3H69v1.5h-8.9V11.3z M60.1,15.8H69v1.5h-8.9V15.8z"/>
								<path d="M71.3,19.3h2.9v-9.2h-2.4V8.8c1.2-0.2,2.1-0.5,2.9-1h1.6v11.5h2.6V21h-7.6V19.3z"/>
								<path d="M82.1,18.6c0.5,0.6,1.3,1,2.2,1c1.6,0,3-1.3,3.1-5.1c-0.8,1-1.9,1.5-2.9,1.5c-2.2,0-3.7-1.4-3.7-4.2
									c0-2.6,1.8-4.4,3.9-4.4c2.5,0,4.6,2.1,4.6,6.4c0,5.2-2.4,7.3-4.9,7.3c-1.5,0-2.6-0.6-3.4-1.4L82.1,18.6z M87.3,12.9
									c-0.2-2.6-1.2-3.8-2.6-3.8c-1.1,0-2,1-2,2.8c0,1.7,0.8,2.7,2.1,2.7C85.6,14.5,86.6,14,87.3,12.9z"/>
								<path d="M91.1,24c1.5-2.6,2.3-5.6,2.3-8.6c0-3-0.7-6-2.3-8.6l1.3-0.6c1.7,2.7,2.7,5.7,2.7,9.2c0,3.6-1,6.5-2.7,9.2L91.1,24z
									"/>
							</g>
						</g>
					</g>
					<g class="st1">
						<path class="st5" d="M85.9,5.9h2.2v9.2h4.5V17h-6.7V5.9z"/>
						<path class="st5" d="M93.6,12.8c0-2.8,1.9-4.4,4-4.4s4,1.6,4,4.4c0,2.8-1.9,4.4-4,4.4S93.6,15.6,93.6,12.8z M99.4,12.8
							c0-1.6-0.6-2.6-1.8-2.6s-1.8,1-1.8,2.6c0,1.6,0.6,2.6,1.8,2.6S99.4,14.4,99.4,12.8z"/>
						<path class="st5" d="M102.6,8.6h2.2l0.9,4.2c0.2,0.8,0.3,1.6,0.4,2.4h0.1c0.2-0.8,0.3-1.7,0.5-2.4l1-4.2h2l1.1,4.2
							c0.2,0.8,0.3,1.6,0.5,2.4h0.1c0.2-0.8,0.3-1.6,0.4-2.4l0.9-4.2h2l-2.1,8.4h-2.6l-0.9-3.7c-0.2-0.8-0.3-1.6-0.5-2.4h-0.1
							c-0.2,0.9-0.3,1.7-0.5,2.4l-0.9,3.7h-2.5L102.6,8.6z"/>
						<path class="st5" d="M119.9,5.9h3c3.4,0,5.5,1.8,5.5,5.5c0,3.7-2.1,5.6-5.4,5.6h-3.2V5.9z M122.8,15.2c2.1,0,3.4-1.1,3.4-3.8
							c0-2.7-1.3-3.7-3.4-3.7h-0.7v7.5H122.8z"/>
						<path class="st5" d="M129.9,12.8c0-2.8,1.9-4.4,4-4.4s4,1.6,4,4.4c0,2.8-1.9,4.4-4,4.4S129.9,15.6,129.9,12.8z M135.8,12.8
							c0-1.6-0.6-2.6-1.8-2.6s-1.8,1-1.8,2.6c0,1.6,0.6,2.6,1.8,2.6S135.8,14.4,135.8,12.8z"/>
						<path class="st5" d="M139,16l1-1.4c0.8,0.6,1.5,0.9,2.2,0.9c0.8,0,1.2-0.4,1.2-0.9c0-0.6-0.9-0.9-1.8-1.3
							c-1.1-0.4-2.3-1-2.3-2.4c0-1.5,1.2-2.6,3.1-2.6c1.2,0,2.2,0.5,2.9,1l-1,1.3c-0.6-0.4-1.2-0.7-1.8-0.7c-0.8,0-1.1,0.3-1.1,0.8
							c0,0.6,0.8,0.8,1.7,1.2c1.1,0.4,2.3,1,2.3,2.5c0,1.5-1.2,2.7-3.3,2.7C141.1,17.2,139.8,16.7,139,16z"/>
						<path class="st5" d="M146.7,12.8c0-2.7,1.9-4.4,3.9-4.4c2.3,0,3.5,1.7,3.5,4c0,0.4,0,0.8-0.1,1h-5.2c0.2,1.4,1.1,2.1,2.3,2.1
							c0.7,0,1.3-0.2,1.9-0.6l0.8,1.4c-0.8,0.6-1.9,0.9-2.9,0.9C148.5,17.2,146.7,15.6,146.7,12.8z M152.2,12c0-1.1-0.5-1.9-1.6-1.9
							c-0.9,0-1.7,0.6-1.8,1.9H152.2z"/>
						<path class="st5" d="M159.4,12.3c0-3,0.8-5.4,2.2-7.8l1.4,0.6c-1.3,2.2-1.8,4.7-1.8,7.2c0,2.5,0.6,5,1.8,7.2l-1.4,0.6
							C160.2,17.7,159.4,15.3,159.4,12.3z"/>
						<path class="st5" d="M164.5,14.2c0-1.4,0.9-2.3,1.9-2.9v-0.1c-0.9-0.6-1.5-1.5-1.5-2.6c0-1.8,1.4-2.9,3.3-2.9
							c2,0,3.2,1.2,3.2,3c0,1.1-0.7,2-1.4,2.5v0.1c1,0.6,1.9,1.5,1.9,3c0,1.7-1.5,3-3.7,3C166.1,17.2,164.5,16,164.5,14.2z
							 M169.9,14.2c0-1.2-1-1.6-2.5-2.2c-0.6,0.5-1,1.2-1,2.1c0,1,0.8,1.7,1.9,1.7C169.2,15.7,169.9,15.1,169.9,14.2z M169.7,8.8
							c0-0.9-0.5-1.5-1.5-1.5c-0.8,0-1.4,0.5-1.4,1.4c0,1.1,0.9,1.6,2,2C169.5,10.1,169.7,9.5,169.7,8.8z"/>
						<path class="st5" d="M173.8,8.6h1.8l0.2,1.1h0.1c0.7-0.7,1.5-1.3,2.6-1.3c1.2,0,1.9,0.5,2.3,1.5c0.8-0.8,1.6-1.5,2.7-1.5
							c1.8,0,2.6,1.3,2.6,3.4V17h-2.2v-5c0-1.3-0.4-1.8-1.2-1.8c-0.5,0-1,0.3-1.6,0.9V17h-2.2v-5c0-1.3-0.4-1.8-1.2-1.8
							c-0.5,0-1,0.3-1.6,0.9V17h-2.2V8.6z"/>
						<path class="st5" d="M187.7,18.5c0-0.7,0.4-1.3,1.2-1.7v-0.1c-0.4-0.3-0.8-0.7-0.8-1.4c0-0.6,0.4-1.2,0.9-1.6v-0.1
							c-0.6-0.4-1.1-1.2-1.1-2.2c0-2,1.6-3,3.4-3c0.5,0,0.9,0.1,1.3,0.2h3v1.6h-1.4c0.2,0.3,0.4,0.8,0.4,1.3c0,1.9-1.4,2.8-3.2,2.8
							c-0.3,0-0.7-0.1-1.1-0.2c-0.2,0.2-0.4,0.4-0.4,0.7c0,0.5,0.3,0.7,1.3,0.7h1.4c2,0,3.1,0.6,3.1,2.1c0,1.7-1.8,3-4.6,3
							C189.3,20.6,187.7,20,187.7,18.5z M193.7,18c0-0.6-0.5-0.8-1.4-0.8h-1c-0.5,0-0.9,0-1.2-0.1c-0.4,0.3-0.6,0.6-0.6,1
							c0,0.7,0.8,1.1,2,1.1C192.8,19.2,193.7,18.7,193.7,18z M192.7,11.4c0-1-0.6-1.5-1.3-1.5s-1.3,0.6-1.3,1.5c0,1,0.6,1.5,1.3,1.5
							C192.1,13,192.7,12.4,192.7,11.4z"/>
						<path class="st5" d="M203.4,4.9h1.5l-3.7,14.8h-1.5L203.4,4.9z"/>
						<path class="st5" d="M209.9,8.6h1.8l0.1,1.1h0.1c0.7-0.7,1.6-1.3,2.7-1.3c1.8,0,2.6,1.3,2.6,3.4V17H215v-5
							c0-1.3-0.4-1.8-1.2-1.8c-0.7,0-1.1,0.3-1.8,0.9V17h-2.2V8.6z"/>
						<path class="st5" d="M218.9,8.7h7.7v1.6h-7.7V8.7z M218.9,12.5h7.7v1.6h-7.7V12.5z"/>
						<path class="st5" d="M227.8,15.7c3-2.7,4.8-4.8,4.8-6.5c0-1.1-0.6-1.8-1.7-1.8c-0.8,0-1.5,0.5-2,1.1l-1.2-1.2
							c1-1.1,2-1.7,3.5-1.7c2.1,0,3.5,1.3,3.5,3.4c0,2-1.7,4.2-3.7,6.1c0.6-0.1,1.3-0.1,1.8-0.1h2.4V17h-7.4V15.7z"/>
						<path class="st5" d="M236.7,14.2c0-1.4,0.9-2.3,1.9-2.9v-0.1c-0.9-0.6-1.5-1.5-1.5-2.6c0-1.8,1.4-2.9,3.3-2.9
							c2,0,3.2,1.2,3.2,3c0,1.1-0.7,2-1.4,2.5v0.1c1,0.6,1.9,1.5,1.9,3c0,1.7-1.5,3-3.7,3C238.3,17.2,236.7,16,236.7,14.2z
							 M242.1,14.2c0-1.2-1-1.6-2.5-2.2c-0.6,0.5-1,1.2-1,2.1c0,1,0.8,1.7,1.9,1.7C241.4,15.7,242.1,15.1,242.1,14.2z M241.9,8.8
							c0-0.9-0.5-1.5-1.5-1.5c-0.8,0-1.3,0.5-1.3,1.4c0,1.1,0.9,1.6,2,2C241.6,10.1,241.9,9.5,241.9,8.8z"/>
						<path class="st5" d="M245.6,19.4c1.3-2.2,1.8-4.7,1.8-7.2c0-2.4-0.6-5-1.8-7.2l1.4-0.6c1.4,2.3,2.2,4.8,2.2,7.8
							c0,3-0.8,5.4-2.2,7.8L245.6,19.4z"/>
					</g>
					<path class="st6" d="M0,298h334"/>
				</g>
				<g id="cell3" transform="translate(0.000000, 658.000000)">
					<g transform="translate(0.000000, 47.000000)">
						<g>
							<path class="st0" d="M8,0h318c4.4,0,8,3.6,8,8v34c0,4.4-3.6,8-8,8H8c-4.4,0-8-3.6-8-8V8C0,3.6,3.6,0,8,0z"/>
							<g class="st1">
								<path class="st2" d="M77.3,25.5c0-3.7,2.4-5.8,5.2-5.8c1.4,0,2.5,0.7,3.3,1.4l-1.2,1.4c-0.6-0.5-1.2-0.9-2-0.9
									c-1.7,0-2.9,1.4-2.9,3.8c0,2.4,1.1,3.9,2.9,3.9c0.9,0,1.7-0.5,2.3-1.1l1.2,1.4c-0.9,1.1-2.1,1.6-3.5,1.6
									C79.6,31.2,77.3,29.2,77.3,25.5z"/>
								<path class="st2" d="M87,26.8c0-2.8,1.9-4.4,4-4.4c2.1,0,4,1.6,4,4.4c0,2.8-1.9,4.4-4,4.4C89,31.2,87,29.6,87,26.8z
									 M92.8,26.8c0-1.6-0.6-2.6-1.8-2.6c-1.1,0-1.8,1-1.8,2.6c0,1.6,0.6,2.6,1.8,2.6C92.2,29.4,92.8,28.4,92.8,26.8z"/>
								<path class="st2" d="M96.9,22.6h1.8l0.2,1.1h0.1c0.7-0.7,1.5-1.3,2.6-1.3c1.2,0,1.9,0.5,2.3,1.5c0.8-0.8,1.6-1.5,2.7-1.5
									c1.8,0,2.6,1.3,2.6,3.4V31h-2.2v-5c0-1.3-0.4-1.8-1.2-1.8c-0.5,0-1,0.3-1.6,0.9V31h-2.2v-5c0-1.3-0.4-1.8-1.2-1.8
									c-0.5,0-1,0.3-1.6,0.9V31h-2.2V22.6z"/>
								<path class="st2" d="M111.4,22.6h1.8l0.2,0.9h0.1c0.7-0.6,1.6-1.1,2.5-1.1c2.1,0,3.3,1.7,3.3,4.3c0,2.9-1.7,4.5-3.6,4.5
									c-0.7,0-1.4-0.3-2.1-0.9l0.1,1.4v2.5h-2.2V22.6z M116.9,26.7c0-1.6-0.5-2.5-1.7-2.5c-0.6,0-1.1,0.3-1.7,0.9v3.7
									c0.5,0.5,1.1,0.6,1.5,0.6C116.1,29.4,116.9,28.5,116.9,26.7z"/>
								<path class="st2" d="M121.1,28.6V19h2.2v9.7c0,0.5,0.2,0.7,0.4,0.7c0.1,0,0.2,0,0.3,0l0.3,1.6c-0.3,0.1-0.6,0.2-1.1,0.2
									C121.6,31.2,121.1,30.2,121.1,28.6z"/>
								<path class="st2" d="M125.3,26.8c0-2.7,1.9-4.4,3.9-4.4c2.3,0,3.5,1.7,3.5,4c0,0.4,0,0.8-0.1,1h-5.2
									c0.2,1.4,1.1,2.1,2.3,2.1c0.7,0,1.3-0.2,1.9-0.6l0.8,1.4c-0.8,0.6-1.9,0.9-2.9,0.9C127.1,31.2,125.3,29.6,125.3,26.8z
									 M130.8,26c0-1.1-0.5-1.9-1.6-1.9c-0.9,0-1.7,0.6-1.8,1.9H130.8z"/>
								<path class="st2" d="M134.6,28.1v-3.7h-1.2v-1.6l1.3-0.1l0.3-2.2h1.8v2.2h2.1v1.7h-2.1v3.7c0,1,0.4,1.4,1.1,1.4
									c0.3,0,0.6-0.1,0.8-0.2l0.4,1.6c-0.5,0.2-1,0.3-1.8,0.3C135.4,31.2,134.6,30,134.6,28.1z"/>
								<path class="st2" d="M139.8,26.8c0-2.7,1.9-4.4,3.9-4.4c2.3,0,3.5,1.7,3.5,4c0,0.4,0,0.8-0.1,1H142c0.2,1.4,1.1,2.1,2.3,2.1
									c0.7,0,1.3-0.2,1.9-0.6l0.8,1.4c-0.8,0.6-1.9,0.9-2.9,0.9C141.6,31.2,139.8,29.6,139.8,26.8z M145.3,26
									c0-1.1-0.5-1.9-1.6-1.9c-0.9,0-1.7,0.6-1.8,1.9H145.3z"/>
								<path class="st2" d="M149,28.6V19h2.2v9.7c0,0.5,0.2,0.7,0.5,0.7c0.1,0,0.1,0,0.3,0l0.3,1.6c-0.3,0.1-0.6,0.2-1.1,0.2
									C149.6,31.2,149,30.2,149,28.6z"/>
								<path class="st2" d="M153.4,34.2l0.4-1.7c0.2,0,0.4,0.1,0.6,0.1c0.9,0,1.3-0.5,1.6-1.3l0.2-0.5l-3.3-8.2h2.2l1.3,3.9
									c0.3,0.8,0.5,1.6,0.7,2.4h0.1c0.2-0.8,0.4-1.6,0.6-2.4l1.2-3.9h2.1l-3,8.7c-0.7,2-1.6,3.1-3.5,3.1
									C154,34.4,153.7,34.3,153.4,34.2z"/>
								<path class="st2" d="M166,19.9h2.2v4.4h4.2v-4.4h2.2V31h-2.2v-4.8h-4.2V31H166V19.9z"/>
								<path class="st2" d="M176.6,26.8c0-2.7,1.9-4.4,3.9-4.4c2.3,0,3.5,1.7,3.5,4c0,0.4,0,0.8-0.1,1h-5.2
									c0.2,1.4,1.1,2.1,2.3,2.1c0.7,0,1.3-0.2,1.9-0.6l0.8,1.4c-0.8,0.6-1.9,0.9-2.9,0.9C178.4,31.2,176.6,29.6,176.6,26.8z
									 M182.2,26c0-1.1-0.5-1.9-1.6-1.9c-0.9,0-1.7,0.6-1.8,1.9H182.2z"/>
								<path class="st2" d="M185.2,28.7c0-1.8,1.5-2.7,4.8-3.1c0-0.8-0.4-1.5-1.4-1.5c-0.8,0-1.5,0.3-2.3,0.8l-0.8-1.5
									c1-0.6,2.2-1.1,3.5-1.1c2.1,0,3.2,1.3,3.2,3.7V31h-1.8l-0.2-0.9h0c-0.7,0.6-1.6,1.1-2.5,1.1
									C186.2,31.2,185.2,30.1,185.2,28.7z M190.1,28.7V27c-2,0.3-2.7,0.8-2.7,1.6c0,0.7,0.5,0.9,1.1,0.9
									C189.1,29.5,189.5,29.2,190.1,28.7z"/>
								<path class="st2" d="M194.5,28.6V19h2.2v9.7c0,0.5,0.2,0.7,0.5,0.7c0.1,0,0.1,0,0.3,0l0.3,1.6c-0.3,0.1-0.6,0.2-1.1,0.2
									C195.1,31.2,194.5,30.2,194.5,28.6z"/>
								<path class="st2" d="M198.7,26.8c0-2.7,1.9-4.4,3.9-4.4c2.3,0,3.5,1.7,3.5,4c0,0.4,0,0.8-0.1,1h-5.2
									c0.2,1.4,1.1,2.1,2.3,2.1c0.7,0,1.3-0.2,1.9-0.6l0.8,1.4c-0.8,0.6-1.9,0.9-2.9,0.9C200.5,31.2,198.7,29.6,198.7,26.8z
									 M204.2,26c0-1.1-0.5-1.9-1.6-1.9c-0.9,0-1.7,0.6-1.8,1.9H204.2z"/>
								<path class="st2" d="M207.5,26.8c0-2.7,1.7-4.4,3.5-4.4c0.9,0,1.5,0.4,2.1,0.9L213,22v-3h2.2v12h-1.8l-0.2-0.9h0
									c-0.6,0.6-1.5,1.1-2.3,1.1C208.8,31.2,207.5,29.6,207.5,26.8z M213,28.5v-3.7c-0.5-0.5-1-0.6-1.6-0.6
									c-0.9,0-1.7,0.9-1.7,2.6c0,1.7,0.6,2.6,1.7,2.6C212.1,29.4,212.6,29.2,213,28.5z"/>
								<path class="st2" d="M221.1,26v-6.1h2.2v6.3c0,2.3,0.8,3.1,2.1,3.1c1.3,0,2.2-0.8,2.2-3.1v-6.3h2.1V26
									c0,3.7-1.6,5.2-4.3,5.2C222.8,31.2,221.1,29.7,221.1,26z"/>
								<path class="st2" d="M232.2,28.6V19h2.2v9.7c0,0.5,0.2,0.7,0.5,0.7c0.1,0,0.1,0,0.3,0l0.3,1.6c-0.3,0.1-0.6,0.2-1.1,0.2
									C232.8,31.2,232.2,30.2,232.2,28.6z"/>
								<path class="st2" d="M236.4,26.8c0-2.8,2-4.4,4.3-4.4c1,0,1.8,0.4,2.4,0.9l-1,1.4c-0.4-0.4-0.8-0.6-1.3-0.6
									c-1.3,0-2.1,1-2.1,2.6c0,1.6,0.9,2.6,2.1,2.6c0.6,0,1.2-0.3,1.6-0.7l0.9,1.5c-0.8,0.7-1.8,1-2.7,1
									C238.2,31.2,236.4,29.6,236.4,26.8z"/>
								<path class="st2" d="M243.9,26.8c0-2.7,1.9-4.4,3.9-4.4c2.3,0,3.5,1.7,3.5,4c0,0.4,0,0.8-0.1,1H246c0.2,1.4,1.1,2.1,2.3,2.1
									c0.7,0,1.3-0.2,1.9-0.6l0.8,1.4c-0.8,0.6-1.9,0.9-2.9,0.9C245.7,31.2,243.9,29.6,243.9,26.8z M249.4,26
									c0-1.1-0.5-1.9-1.6-1.9c-0.9,0-1.7,0.6-1.8,1.9H249.4z"/>
								<path class="st2" d="M253.1,22.6h1.8l0.1,1.5h0.1c0.6-1.1,1.5-1.7,2.4-1.7c0.5,0,0.7,0.1,1,0.2l-0.4,1.9
									c-0.3-0.1-0.5-0.1-0.9-0.1c-0.7,0-1.5,0.4-1.9,1.7v5h-2.2V22.6z"/>
							</g>
						</g>
						<g transform="translate(124.000000, 65.000000)">
							<g class="st1">
								<path d="M8.6,10.2c-0.5-0.6-1.3-1-2.1-1c-1.7,0-3.1,1.3-3.2,5.1c0.8-1,1.9-1.5,2.9-1.5c2.2,0,3.7,1.4,3.7,4.2
									c0,2.6-1.8,4.3-4,4.3c-2.5,0-4.6-2.1-4.6-6.6c0-5.1,2.4-7.1,5-7.1c1.5,0,2.6,0.6,3.3,1.4L8.6,10.2z M8.1,16.9
									c0-1.7-0.8-2.7-2.2-2.7c-0.8,0-1.7,0.4-2.5,1.5c0.2,2.6,1.2,3.9,2.6,3.9C7.2,19.6,8.1,18.6,8.1,16.9z"/>
								<path d="M11.5,19.8c3.9-3.5,5.9-6,5.9-8.2c0-1.4-0.8-2.4-2.3-2.4c-1,0-1.9,0.7-2.6,1.5l-1.2-1.2c1.1-1.2,2.3-2,4-2
									c2.4,0,4,1.6,4,4c0,2.6-2,5.2-4.8,7.9c0.7-0.1,1.5-0.1,2.2-0.1h3.3V21h-8.6V19.8z"/>
								<path d="M21.7,11.7c0-2.7,1.2-4.2,3.1-4.2s3.1,1.5,3.1,4.2c0,2.7-1.3,4.2-3.1,4.2S21.7,14.3,21.7,11.7z M26.4,11.7
									c0-2.1-0.7-3-1.6-3c-0.9,0-1.6,0.9-1.6,3c0,2,0.7,3,1.6,3C25.7,14.7,26.4,13.7,26.4,11.7z M32.4,7.5h1.3l-7.3,13.7h-1.3
									L32.4,7.5z M31.1,17c0-2.7,1.3-4.2,3.1-4.2c1.8,0,3.1,1.5,3.1,4.2c0,2.7-1.3,4.2-3.1,4.2C32.3,21.2,31.1,19.7,31.1,17z
									 M35.8,17c0-2.1-0.7-3-1.6-3c-0.9,0-1.6,0.9-1.6,3c0,2,0.7,3,1.6,3C35.1,20,35.8,19.1,35.8,17z"/>
								<path d="M43.6,15.4c0-3.5,1-6.5,2.7-9.2l1.3,0.6c-1.5,2.6-2.3,5.6-2.3,8.6c0,3,0.7,6.1,2.3,8.6l-1.3,0.6
									C44.6,21.8,43.6,18.9,43.6,15.4z"/>
								<path d="M49.9,11.1h1.7l0.2,1.4h0.1c0.9-0.9,1.9-1.6,3.3-1.6c2.1,0,3,1.4,3,3.9V21h-2.1v-6c0-1.7-0.5-2.4-1.7-2.4
									c-0.9,0-1.5,0.5-2.4,1.3v7h-2.1V11.1z"/>
								<path d="M60.3,11.3h8.9v1.5h-8.9V11.3z M60.3,15.8h8.9v1.5h-8.9V15.8z"/>
								<path d="M70.7,17.7c0-1.7,1.2-2.9,2.4-3.6V14c-1-0.7-1.8-1.7-1.8-3.1c0-2.1,1.6-3.4,3.8-3.4c2.3,0,3.7,1.4,3.7,3.5
									c0,1.4-0.9,2.5-1.7,3.1v0.1c1.2,0.7,2.2,1.7,2.2,3.5c0,2-1.7,3.5-4.3,3.5C72.5,21.2,70.7,19.8,70.7,17.7z M77.3,17.7
									c0-1.6-1.5-2.2-3.3-3c-0.9,0.6-1.5,1.6-1.5,2.8c0,1.3,1.1,2.2,2.5,2.2C76.4,19.7,77.3,18.9,77.3,17.7z M77.1,11.2
									c0-1.2-0.7-2.1-2-2.1c-1.1,0-1.9,0.7-1.9,1.9c0,1.4,1.3,2.1,2.7,2.7C76.7,12.9,77.1,12.1,77.1,11.2z"/>
								<path d="M80.9,24c1.5-2.6,2.3-5.6,2.3-8.6c0-3-0.7-6-2.3-8.6l1.3-0.6c1.7,2.7,2.7,5.7,2.7,9.2c0,3.6-1,6.5-2.7,9.2L80.9,24z
									"/>
							</g>
						</g>
					</g>
					<g transform="translate(0.000000, 154.000000)">
						<g>
							<path class="st0" d="M8,0h318c4.4,0,8,3.6,8,8v56c0,4.4-3.6,8-8,8H8c-4.4,0-8-3.6-8-8V8C0,3.6,3.6,0,8,0z"/>
							<g class="st1">
								<path class="st2" d="M71.7,19.9h2.5l1.9,5.2c0.2,0.7,0.4,1.4,0.7,2.1h0.1c0.2-0.7,0.4-1.5,0.7-2.1l1.8-5.2h2.5V31h-2v-4.6
									c0-1,0.2-2.6,0.3-3.6h-0.1L79,25.3L77.3,30H76l-1.7-4.7l-0.9-2.6h-0.1c0.1,1,0.3,2.6,0.3,3.6V31h-2V19.9z"/>
								<path class="st2" d="M83.8,26.8c0-2.7,1.9-4.4,3.9-4.4c2.3,0,3.5,1.7,3.5,4c0,0.4,0,0.8-0.1,1h-5.2c0.2,1.4,1.1,2.1,2.3,2.1
									c0.7,0,1.3-0.2,1.9-0.6l0.8,1.4c-0.8,0.6-1.9,0.9-2.9,0.9C85.6,31.2,83.8,29.6,83.8,26.8z M89.3,26c0-1.1-0.5-1.9-1.6-1.9
									c-0.9,0-1.7,0.6-1.8,1.9H89.3z"/>
								<path class="st2" d="M92.4,28.7c0-1.8,1.5-2.7,4.8-3.1c0-0.8-0.4-1.5-1.4-1.5c-0.8,0-1.5,0.3-2.3,0.8l-0.8-1.5
									c1-0.6,2.2-1.1,3.5-1.1c2.1,0,3.2,1.3,3.2,3.7V31h-1.8l-0.2-0.9h0c-0.7,0.6-1.6,1.1-2.5,1.1C93.4,31.2,92.4,30.1,92.4,28.7z
									 M97.2,28.7V27c-2,0.3-2.7,0.8-2.7,1.6c0,0.7,0.5,0.9,1.1,0.9C96.2,29.5,96.7,29.2,97.2,28.7z"/>
								<path class="st2" d="M101.7,22.6h1.8l0.1,1.1h0.1c0.7-0.7,1.6-1.3,2.7-1.3c1.8,0,2.6,1.3,2.6,3.4V31h-2.2v-5
									c0-1.3-0.4-1.8-1.2-1.8c-0.7,0-1.1,0.3-1.8,0.9V31h-2.2V22.6z"/>
								<path class="st2" d="M111.1,20.1c0-0.7,0.6-1.2,1.3-1.2c0.8,0,1.3,0.5,1.3,1.2c0,0.7-0.6,1.2-1.3,1.2
									C111.6,21.2,111.1,20.7,111.1,20.1z M111.3,22.6h2.2V31h-2.2V22.6z"/>
								<path class="st2" d="M115.8,22.6h1.8l0.1,1.1h0.1c0.7-0.7,1.6-1.3,2.7-1.3c1.8,0,2.6,1.3,2.6,3.4V31H121v-5
									c0-1.3-0.4-1.8-1.2-1.8c-0.7,0-1.1,0.3-1.8,0.9V31h-2.2V22.6z"/>
								<path class="st2" d="M124.9,32.5c0-0.7,0.4-1.3,1.2-1.7v-0.1c-0.4-0.3-0.8-0.7-0.8-1.4c0-0.6,0.4-1.2,0.9-1.6v-0.1
									c-0.6-0.4-1.1-1.2-1.1-2.2c0-2,1.6-3,3.4-3c0.5,0,0.9,0.1,1.3,0.2h3v1.6h-1.4c0.2,0.3,0.4,0.8,0.4,1.3
									c0,1.9-1.4,2.8-3.2,2.8c-0.3,0-0.7-0.1-1.1-0.2c-0.2,0.2-0.4,0.4-0.4,0.7c0,0.5,0.3,0.7,1.3,0.7h1.4c2,0,3.1,0.6,3.1,2.1
									c0,1.7-1.8,3-4.6,3C126.4,34.6,124.9,34,124.9,32.5z M130.9,32c0-0.6-0.5-0.8-1.4-0.8h-1c-0.5,0-0.9,0-1.2-0.1
									c-0.4,0.3-0.6,0.6-0.6,1c0,0.7,0.8,1.1,2,1.1C130,33.2,130.9,32.7,130.9,32z M129.8,25.4c0-1-0.6-1.5-1.3-1.5
									s-1.3,0.6-1.3,1.5c0,1,0.6,1.5,1.3,1.5S129.8,26.4,129.8,25.4z"/>
								<path class="st2" d="M138.9,20.7c-0.3-0.1-0.6-0.2-0.9-0.2c-0.7,0-1,0.4-1,1.3v0.7h1.6v1.7H137V31h-2.2v-6.7h-1.1v-1.6
									l1.1-0.1v-0.7c0-1.8,0.8-3.1,2.9-3.1c0.6,0,1.2,0.2,1.6,0.3L138.9,20.7z"/>
								<path class="st2" d="M139.9,27.9v-5.2h2.2v5c0,1.3,0.4,1.8,1.2,1.8c0.7,0,1.1-0.3,1.7-1v-5.7h2.2V31h-1.8l-0.2-1.2h-0.1
									c-0.7,0.9-1.5,1.4-2.7,1.4C140.7,31.2,139.9,30,139.9,27.9z"/>
								<path class="st2" d="M149.5,28.6V19h2.2v9.7c0,0.5,0.2,0.7,0.4,0.7c0.1,0,0.1,0,0.3,0l0.3,1.6c-0.3,0.1-0.6,0.2-1.1,0.2
									C150.1,31.2,149.5,30.2,149.5,28.6z"/>
								<path class="st2" d="M157.8,26v-6.1h2.2v6.3c0,2.3,0.8,3.1,2.1,3.1c1.3,0,2.2-0.8,2.2-3.1v-6.3h2.1V26
									c0,3.7-1.6,5.2-4.3,5.2C159.4,31.2,157.8,29.7,157.8,26z"/>
								<path class="st2" d="M168.9,28.6V19h2.2v9.7c0,0.5,0.2,0.7,0.5,0.7c0.1,0,0.1,0,0.3,0l0.3,1.6c-0.3,0.1-0.6,0.2-1.1,0.2
									C169.4,31.2,168.9,30.2,168.9,28.6z"/>
								<path class="st2" d="M173.1,26.8c0-2.8,2-4.4,4.3-4.4c1,0,1.8,0.4,2.4,0.9l-1,1.4c-0.4-0.4-0.8-0.6-1.3-0.6
									c-1.3,0-2.1,1-2.1,2.6c0,1.6,0.9,2.6,2.1,2.6c0.6,0,1.2-0.3,1.6-0.7l0.9,1.5c-0.8,0.7-1.8,1-2.7,1
									C174.9,31.2,173.1,29.6,173.1,26.8z"/>
								<path class="st2" d="M180.5,26.8c0-2.7,1.9-4.4,3.9-4.4c2.3,0,3.5,1.7,3.5,4c0,0.4,0,0.8-0.1,1h-5.2
									c0.2,1.4,1.1,2.1,2.3,2.1c0.7,0,1.3-0.2,1.9-0.6l0.8,1.4c-0.8,0.6-1.9,0.9-2.9,0.9C182.4,31.2,180.5,29.6,180.5,26.8z
									 M186.1,26c0-1.1-0.5-1.9-1.6-1.9c-0.9,0-1.7,0.6-1.8,1.9H186.1z"/>
								<path class="st2" d="M189.8,22.6h1.8l0.1,1.5h0.1c0.6-1.1,1.5-1.7,2.4-1.7c0.5,0,0.7,0.1,1,0.2l-0.4,1.9
									c-0.3-0.1-0.5-0.1-0.9-0.1c-0.7,0-1.5,0.4-1.9,1.7v5h-2.2V22.6z"/>
								<path class="st2" d="M199.3,26.8c0-2.7,1.7-4.4,3.5-4.4c0.9,0,1.5,0.4,2.1,0.9l-0.1-1.3v-3h2.2v12h-1.8l-0.2-0.9h0
									c-0.6,0.6-1.5,1.1-2.3,1.1C200.6,31.2,199.3,29.6,199.3,26.8z M204.8,28.5v-3.7c-0.5-0.5-1-0.6-1.6-0.6
									c-0.9,0-1.7,0.9-1.7,2.6c0,1.7,0.6,2.6,1.7,2.6C203.8,29.4,204.3,29.2,204.8,28.5z"/>
								<path class="st2" d="M208.9,26.8c0-2.7,1.9-4.4,3.9-4.4c2.3,0,3.5,1.7,3.5,4c0,0.4,0,0.8-0.1,1H211c0.2,1.4,1.1,2.1,2.3,2.1
									c0.7,0,1.3-0.2,1.9-0.6l0.8,1.4c-0.8,0.6-1.9,0.9-2.9,0.9C210.7,31.2,208.9,29.6,208.9,26.8z M214.4,26
									c0-1.1-0.5-1.9-1.6-1.9c-0.9,0-1.7,0.6-1.8,1.9H214.4z"/>
								<path class="st2" d="M217.6,26.8c0-2.8,2-4.4,4.3-4.4c1,0,1.8,0.4,2.4,0.9l-1,1.4c-0.4-0.4-0.8-0.6-1.3-0.6
									c-1.3,0-2.1,1-2.1,2.6c0,1.6,0.9,2.6,2.1,2.6c0.6,0,1.2-0.3,1.6-0.7l0.9,1.5c-0.8,0.7-1.8,1-2.7,1
									C219.4,31.2,217.6,29.6,217.6,26.8z"/>
								<path class="st2" d="M226,22.6h1.8l0.1,1.5h0.1c0.6-1.1,1.5-1.7,2.4-1.7c0.5,0,0.7,0.1,1,0.2l-0.4,1.9
									c-0.3-0.1-0.5-0.1-0.9-0.1c-0.7,0-1.5,0.4-1.9,1.7v5H226V22.6z"/>
								<path class="st2" d="M231.8,26.8c0-2.7,1.9-4.4,3.9-4.4c2.3,0,3.5,1.7,3.5,4c0,0.4,0,0.8-0.1,1H234c0.2,1.4,1.1,2.1,2.3,2.1
									c0.7,0,1.3-0.2,1.9-0.6l0.8,1.4c-0.8,0.6-1.9,0.9-2.9,0.9C233.7,31.2,231.8,29.6,231.8,26.8z M237.4,26
									c0-1.1-0.5-1.9-1.6-1.9c-0.9,0-1.7,0.6-1.8,1.9H237.4z"/>
								<path class="st2" d="M240.5,28.7c0-1.8,1.5-2.7,4.8-3.1c0-0.8-0.4-1.5-1.4-1.5c-0.8,0-1.5,0.3-2.3,0.8l-0.8-1.5
									c1-0.6,2.2-1.1,3.5-1.1c2.1,0,3.2,1.3,3.2,3.7V31h-1.8l-0.2-0.9h0c-0.7,0.6-1.6,1.1-2.5,1.1
									C241.4,31.2,240.5,30.1,240.5,28.7z M245.3,28.7V27c-2,0.3-2.7,0.8-2.7,1.6c0,0.7,0.5,0.9,1.1,0.9
									C244.3,29.5,244.8,29.2,245.3,28.7z"/>
								<path class="st2" d="M248.9,30l1-1.4c0.8,0.6,1.5,0.9,2.2,0.9c0.8,0,1.2-0.4,1.2-0.9c0-0.6-0.9-0.9-1.8-1.3
									c-1.1-0.4-2.3-1-2.3-2.4c0-1.5,1.2-2.6,3.1-2.6c1.2,0,2.2,0.5,2.9,1l-1,1.3c-0.6-0.4-1.2-0.7-1.8-0.7
									c-0.8,0-1.1,0.3-1.1,0.8c0,0.6,0.8,0.8,1.7,1.2c1.1,0.4,2.3,1,2.3,2.5c0,1.5-1.2,2.7-3.3,2.7C251,31.2,249.8,30.7,248.9,30z
									"/>
								<path class="st2" d="M256.6,26.8c0-2.7,1.9-4.4,3.9-4.4c2.3,0,3.5,1.7,3.5,4c0,0.4,0,0.8-0.1,1h-5.2
									c0.2,1.4,1.1,2.1,2.3,2.1c0.7,0,1.3-0.2,1.9-0.6l0.8,1.4c-0.8,0.6-1.9,0.9-2.9,0.9C258.5,31.2,256.6,29.6,256.6,26.8z
									 M262.2,26c0-1.1-0.5-1.9-1.6-1.9c-0.9,0-1.7,0.6-1.8,1.9H262.2z"/>
							</g>
							<text transform="matrix(1 0 0 1 264.6969 31)" class="st2 st3 st4"> </text>
							<g class="st1">
								<path class="st2" d="M103.9,42.1c0-0.7,0.6-1.2,1.3-1.2c0.8,0,1.3,0.5,1.3,1.2c0,0.7-0.6,1.2-1.3,1.2
									C104.5,43.2,103.9,42.7,103.9,42.1z M104.2,44.6h2.2V53h-2.2V44.6z"/>
								<path class="st2" d="M108.7,44.6h1.8l0.1,1.1h0.1c0.7-0.7,1.6-1.3,2.7-1.3c1.8,0,2.6,1.3,2.6,3.4V53h-2.2v-5
									c0-1.3-0.4-1.8-1.2-1.8c-0.7,0-1.1,0.3-1.8,0.9V53h-2.2V44.6z"/>
								<path class="st2" d="M120.9,52l1-1.4c0.8,0.6,1.5,0.9,2.2,0.9c0.8,0,1.2-0.4,1.2-0.9c0-0.6-0.9-0.9-1.8-1.3
									c-1.1-0.4-2.3-1-2.3-2.4c0-1.5,1.2-2.6,3.1-2.6c1.2,0,2.2,0.5,2.9,1l-1,1.3c-0.6-0.4-1.2-0.7-1.8-0.7
									c-0.8,0-1.1,0.3-1.1,0.8c0,0.6,0.8,0.8,1.7,1.2c1.1,0.4,2.3,1,2.3,2.5c0,1.5-1.2,2.7-3.3,2.7C123,53.2,121.8,52.7,120.9,52z
									"/>
								<path class="st2" d="M128.9,42.1c0-0.7,0.6-1.2,1.3-1.2c0.8,0,1.3,0.5,1.3,1.2c0,0.7-0.6,1.2-1.3,1.2
									C129.5,43.2,128.9,42.7,128.9,42.1z M129.2,44.6h2.2V53h-2.2V44.6z"/>
								<path class="st2" d="M133.1,51.8l3.8-5.5h-3.3v-1.7h6.1v1.2l-3.8,5.5h3.9V53h-6.6V51.8z"/>
								<path class="st2" d="M140.7,48.8c0-2.7,1.9-4.4,3.9-4.4c2.3,0,3.5,1.7,3.5,4c0,0.4,0,0.8-0.1,1h-5.2
									c0.2,1.4,1.1,2.1,2.3,2.1c0.7,0,1.3-0.2,1.9-0.6l0.8,1.4c-0.8,0.6-1.9,0.9-2.9,0.9C142.5,53.2,140.7,51.6,140.7,48.8z
									 M146.2,48c0-1.1-0.5-1.9-1.6-1.9c-0.9,0-1.7,0.6-1.8,1.9H146.2z"/>
								<path class="st2" d="M153.4,48.3c0-3,0.8-5.4,2.2-7.8l1.4,0.6c-1.3,2.2-1.8,4.7-1.8,7.2c0,2.5,0.6,5,1.8,7.2l-1.4,0.6
									C154.2,53.7,153.4,51.3,153.4,48.3z"/>
								<path class="st2" d="M158.5,48.8c0-2.8,1.9-4.4,4-4.4c2.1,0,4,1.6,4,4.4c0,2.8-1.9,4.4-4,4.4
									C160.4,53.2,158.5,51.6,158.5,48.8z M164.3,48.8c0-1.6-0.6-2.6-1.8-2.6c-1.1,0-1.8,1-1.8,2.6c0,1.6,0.6,2.6,1.8,2.6
									C163.6,51.4,164.3,50.4,164.3,48.8z"/>
								<path class="st2" d="M167.3,44.6h2.2l1.2,4.2c0.2,0.8,0.5,1.7,0.7,2.5h0.1c0.2-0.9,0.5-1.7,0.7-2.5l1.2-4.2h2.1l-2.8,8.4
									h-2.6L167.3,44.6z"/>
								<path class="st2" d="M176.3,48.8c0-2.7,1.9-4.4,3.9-4.4c2.3,0,3.5,1.7,3.5,4c0,0.4,0,0.8-0.1,1h-5.2
									c0.2,1.4,1.1,2.1,2.3,2.1c0.7,0,1.3-0.2,1.9-0.6l0.8,1.4c-0.8,0.6-1.9,0.9-2.9,0.9C178.1,53.2,176.3,51.6,176.3,48.8z
									 M181.8,48c0-1.1-0.5-1.9-1.6-1.9c-0.9,0-1.7,0.6-1.8,1.9H181.8z"/>
								<path class="st2" d="M185.5,44.6h1.8l0.2,1.5h0.1c0.6-1.1,1.5-1.7,2.4-1.7c0.5,0,0.7,0.1,1,0.2l-0.4,1.9
									c-0.3-0.1-0.5-0.1-0.9-0.1c-0.7,0-1.5,0.4-1.9,1.7v5h-2.2V44.6z"/>
								<path class="st2" d="M194.6,51.7l1-1.4c0.6,0.6,1.4,1.1,2.4,1.1c1.2,0,2-0.7,2-2c0-1.3-0.8-2-1.9-2c-0.7,0-1,0.2-1.7,0.6
									l-1-0.7l0.3-5.4h5.9v1.8h-4l-0.2,2.4c0.4-0.2,0.8-0.3,1.3-0.3c1.9,0,3.4,1.1,3.4,3.5c0,2.5-1.8,3.9-3.9,3.9
									C196.6,53.2,195.5,52.5,194.6,51.7z"/>
								<path class="st2" d="M203.8,47.4c0-3.8,1.5-5.7,3.8-5.7c2.2,0,3.8,1.9,3.8,5.7s-1.5,5.8-3.8,5.8
									C205.3,53.2,203.8,51.2,203.8,47.4z M209.2,47.4c0-3.1-0.7-4-1.7-4c-1,0-1.7,0.9-1.7,4c0,3.1,0.7,4.1,1.7,4.1
									C208.5,51.5,209.2,50.5,209.2,47.4z"/>
								<path class="st2" d="M212.4,45.2c0-2.2,1.1-3.5,2.7-3.5c1.6,0,2.7,1.3,2.7,3.5c0,2.2-1.1,3.5-2.7,3.5
									C213.5,48.7,212.4,47.4,212.4,45.2z M216.3,45.2c0-1.6-0.5-2.2-1.2-2.2c-0.6,0-1.1,0.6-1.1,2.2s0.5,2.3,1.1,2.3
									C215.8,47.5,216.3,46.8,216.3,45.2z M221.5,41.7h1.3l-6,11.5h-1.3L221.5,41.7z M220.5,49.7c0-2.2,1.1-3.5,2.7-3.5
									s2.7,1.3,2.7,3.5c0,2.2-1.1,3.5-2.7,3.5S220.5,51.9,220.5,49.7z M224.3,49.7c0-1.6-0.5-2.3-1.2-2.3c-0.6,0-1.2,0.6-1.2,2.3
									s0.5,2.3,1.2,2.3C223.8,52,224.3,51.3,224.3,49.7z"/>
								<path class="st2" d="M227.1,55.4c1.3-2.2,1.8-4.7,1.8-7.2c0-2.4-0.6-5-1.8-7.2l1.4-0.6c1.4,2.3,2.2,4.8,2.2,7.8
									c0,3-0.8,5.4-2.2,7.8L227.1,55.4z"/>
							</g>
						</g>
						<g transform="translate(124.000000, 87.000000)">
							<g class="st1">
								<path d="M8.6,10.2c-0.5-0.6-1.3-1-2.1-1c-1.7,0-3.1,1.3-3.2,5.1c0.8-1,1.9-1.5,2.9-1.5c2.2,0,3.7,1.4,3.7,4.2
									c0,2.6-1.8,4.3-4,4.3c-2.5,0-4.6-2.1-4.6-6.6c0-5.1,2.4-7.1,5-7.1c1.5,0,2.6,0.6,3.3,1.4L8.6,10.2z M8.1,16.9
									c0-1.7-0.8-2.7-2.2-2.7c-0.8,0-1.7,0.4-2.5,1.5c0.2,2.6,1.2,3.9,2.6,3.9C7.2,19.6,8.1,18.6,8.1,16.9z"/>
								<path d="M12.9,18.6c0.5,0.6,1.3,1,2.2,1c1.6,0,3-1.3,3.1-5.1c-0.8,1-1.9,1.5-2.9,1.5c-2.2,0-3.7-1.4-3.7-4.2
									c0-2.6,1.8-4.4,3.9-4.4c2.5,0,4.6,2.1,4.6,6.4c0,5.2-2.4,7.3-4.9,7.3c-1.5,0-2.6-0.6-3.4-1.4L12.9,18.6z M18.1,12.9
									c-0.2-2.6-1.2-3.8-2.6-3.8c-1.1,0-2,1-2,2.8c0,1.7,0.8,2.7,2.1,2.7C16.4,14.5,17.3,14,18.1,12.9z"/>
								<path d="M21.7,11.7c0-2.7,1.2-4.2,3.1-4.2s3.1,1.5,3.1,4.2c0,2.7-1.3,4.2-3.1,4.2S21.7,14.3,21.7,11.7z M26.4,11.7
									c0-2.1-0.7-3-1.6-3c-0.9,0-1.6,0.9-1.6,3c0,2,0.7,3,1.6,3C25.7,14.7,26.4,13.7,26.4,11.7z M32.4,7.5h1.3l-7.3,13.7h-1.3
									L32.4,7.5z M31.1,17c0-2.7,1.3-4.2,3.1-4.2c1.8,0,3.1,1.5,3.1,4.2c0,2.7-1.3,4.2-3.1,4.2C32.3,21.2,31.1,19.7,31.1,17z
									 M35.8,17c0-2.1-0.7-3-1.6-3c-0.9,0-1.6,0.9-1.6,3c0,2,0.7,3,1.6,3C35.1,20,35.8,19.1,35.8,17z"/>
								<path d="M43.6,15.4c0-3.5,1-6.5,2.7-9.2l1.3,0.6c-1.5,2.6-2.3,5.6-2.3,8.6c0,3,0.7,6.1,2.3,8.6l-1.3,0.6
									C44.6,21.8,43.6,18.9,43.6,15.4z"/>
								<path d="M49.9,11.1h1.7l0.2,1.4h0.1c0.9-0.9,1.9-1.6,3.3-1.6c2.1,0,3,1.4,3,3.9V21h-2.1v-6c0-1.7-0.5-2.4-1.7-2.4
									c-0.9,0-1.5,0.5-2.4,1.3v7h-2.1V11.1z"/>
								<path d="M60.3,11.3h8.9v1.5h-8.9V11.3z M60.3,15.8h8.9v1.5h-8.9V15.8z"/>
								<path d="M72,18.6c0.5,0.6,1.3,1,2.2,1c1.6,0,3-1.3,3.1-5.1c-0.8,1-1.9,1.5-2.9,1.5c-2.2,0-3.7-1.4-3.7-4.2
									c0-2.6,1.8-4.4,3.9-4.4c2.5,0,4.6,2.1,4.6,6.4c0,5.2-2.4,7.3-4.9,7.3c-1.5,0-2.6-0.6-3.4-1.4L72,18.6z M77.2,12.9
									C77,10.3,76,9.1,74.6,9.1c-1.1,0-2,1-2,2.8c0,1.7,0.8,2.7,2.1,2.7C75.5,14.5,76.4,14,77.2,12.9z"/>
								<path d="M80.9,24c1.5-2.6,2.3-5.6,2.3-8.6c0-3-0.7-6-2.3-8.6l1.3-0.6c1.7,2.7,2.7,5.7,2.7,9.2c0,3.6-1,6.5-2.7,9.2L80.9,24z
									"/>
							</g>
						</g>
					</g>
					<g class="st1">
						<path class="st5" d="M79.6,5.9h2.2v4.4H86V5.9h2.2V17H86v-4.8h-4.2V17h-2.2V5.9z"/>
						<path class="st5" d="M90.5,6.1c0-0.7,0.6-1.2,1.3-1.2c0.8,0,1.3,0.5,1.3,1.2c0,0.7-0.6,1.2-1.3,1.2
							C91.1,7.2,90.5,6.7,90.5,6.1z M90.7,8.6h2.2V17h-2.2V8.6z"/>
						<path class="st5" d="M94.7,18.5c0-0.7,0.4-1.3,1.2-1.7v-0.1c-0.4-0.3-0.8-0.7-0.8-1.4c0-0.6,0.4-1.2,0.9-1.6v-0.1
							c-0.6-0.4-1.1-1.2-1.1-2.2c0-2,1.6-3,3.4-3c0.5,0,0.9,0.1,1.3,0.2h3v1.6h-1.4c0.2,0.3,0.4,0.8,0.4,1.3c0,1.9-1.4,2.8-3.2,2.8
							c-0.3,0-0.7-0.1-1.1-0.2c-0.2,0.2-0.4,0.4-0.4,0.7c0,0.5,0.3,0.7,1.3,0.7h1.4c2,0,3.1,0.6,3.1,2.1c0,1.7-1.8,3-4.6,3
							C96.3,20.6,94.7,20,94.7,18.5z M100.7,18c0-0.6-0.5-0.8-1.4-0.8h-1c-0.5,0-0.9,0-1.2-0.1c-0.4,0.3-0.6,0.6-0.6,1
							c0,0.7,0.8,1.1,2,1.1C99.8,19.2,100.7,18.7,100.7,18z M99.7,11.4c0-1-0.6-1.5-1.3-1.5s-1.3,0.6-1.3,1.5c0,1,0.6,1.5,1.3,1.5
							S99.7,12.4,99.7,11.4z"/>
						<path class="st5" d="M104.2,5h2.2v3l-0.1,1.6c0.7-0.6,1.5-1.2,2.6-1.2c1.8,0,2.6,1.3,2.6,3.4V17h-2.2v-5
							c0-1.3-0.4-1.8-1.2-1.8c-0.7,0-1.1,0.3-1.8,0.9V17h-2.2V5z"/>
						<path class="st5" d="M117.4,5.9h3c3.4,0,5.5,1.8,5.5,5.5c0,3.7-2.1,5.6-5.4,5.6h-3.2V5.9z M120.3,15.2c2.1,0,3.4-1.1,3.4-3.8
							c0-2.7-1.3-3.7-3.4-3.7h-0.7v7.5H120.3z"/>
						<path class="st5" d="M127.4,12.8c0-2.8,1.9-4.4,4-4.4s4,1.6,4,4.4c0,2.8-1.9,4.4-4,4.4S127.4,15.6,127.4,12.8z M133.3,12.8
							c0-1.6-0.6-2.6-1.8-2.6s-1.8,1-1.8,2.6c0,1.6,0.6,2.6,1.8,2.6S133.3,14.4,133.3,12.8z"/>
						<path class="st5" d="M136.5,16l1-1.4c0.8,0.6,1.5,0.9,2.2,0.9c0.8,0,1.2-0.4,1.2-0.9c0-0.6-0.9-0.9-1.8-1.3
							c-1.1-0.4-2.3-1-2.3-2.4c0-1.5,1.2-2.6,3.1-2.6c1.2,0,2.2,0.5,2.9,1l-1,1.3c-0.6-0.4-1.2-0.7-1.8-0.7c-0.8,0-1.1,0.3-1.1,0.8
							c0,0.6,0.8,0.8,1.7,1.2c1.1,0.4,2.3,1,2.3,2.5c0,1.5-1.2,2.7-3.3,2.7C138.5,17.2,137.3,16.7,136.5,16z"/>
						<path class="st5" d="M144.2,12.8c0-2.7,1.9-4.4,3.9-4.4c2.3,0,3.5,1.7,3.5,4c0,0.4,0,0.8-0.1,1h-5.2c0.2,1.4,1.1,2.1,2.3,2.1
							c0.7,0,1.3-0.2,1.9-0.6l0.8,1.4c-0.8,0.6-1.9,0.9-2.9,0.9C146,17.2,144.2,15.6,144.2,12.8z M149.7,12c0-1.1-0.5-1.9-1.6-1.9
							c-0.9,0-1.7,0.6-1.8,1.9H149.7z"/>
						<path class="st5" d="M156.9,12.3c0-3,0.8-5.4,2.2-7.8l1.4,0.6c-1.3,2.2-1.8,4.7-1.8,7.2c0,2.5,0.6,5,1.8,7.2l-1.4,0.6
							C157.7,17.7,156.9,15.3,156.9,12.3z"/>
						<path class="st5" d="M162.5,15.2h2.4v-7h-2V6.8c1.1-0.2,1.9-0.5,2.6-0.9h1.6v9.3h2.1V17h-6.7V15.2z"/>
						<path class="st5" d="M177,8.3c-0.4-0.5-1.1-0.8-1.7-0.8c-1.3,0-2.3,1-2.4,3.7c0.6-0.7,1.6-1.2,2.3-1.2c1.9,0,3.2,1.1,3.2,3.5
							c0,2.3-1.6,3.7-3.5,3.7c-2.1,0-4-1.7-4-5.6c0-4.1,2.1-5.9,4.3-5.9c1.3,0,2.3,0.6,3,1.3L177,8.3z M176.3,13.5
							c0-1.3-0.6-1.9-1.6-1.9c-0.6,0-1.3,0.3-1.8,1.2c0.2,2,1,2.8,1.9,2.8C175.7,15.5,176.3,14.9,176.3,13.5z"/>
						<path class="st5" d="M180.2,8.6h1.8l0.2,1.1h0.1c0.7-0.7,1.5-1.3,2.6-1.3c1.2,0,1.9,0.5,2.3,1.5c0.8-0.8,1.6-1.5,2.7-1.5
							c1.8,0,2.6,1.3,2.6,3.4V17h-2.2v-5c0-1.3-0.4-1.8-1.2-1.8c-0.5,0-1,0.3-1.6,0.9V17h-2.2v-5c0-1.3-0.4-1.8-1.2-1.8
							c-0.5,0-1,0.3-1.6,0.9V17h-2.2V8.6z"/>
						<path class="st5" d="M194.1,18.5c0-0.7,0.4-1.3,1.2-1.7v-0.1c-0.4-0.3-0.8-0.7-0.8-1.4c0-0.6,0.4-1.2,0.9-1.6v-0.1
							c-0.6-0.4-1.1-1.2-1.1-2.2c0-2,1.6-3,3.4-3c0.5,0,0.9,0.1,1.3,0.2h3v1.6h-1.4c0.2,0.3,0.4,0.8,0.4,1.3c0,1.9-1.4,2.8-3.2,2.8
							c-0.3,0-0.7-0.1-1.1-0.2c-0.2,0.2-0.4,0.4-0.4,0.7c0,0.5,0.3,0.7,1.3,0.7h1.4c2,0,3.1,0.6,3.1,2.1c0,1.7-1.8,3-4.6,3
							C195.6,20.6,194.1,20,194.1,18.5z M200,18c0-0.6-0.5-0.8-1.4-0.8h-1c-0.5,0-0.9,0-1.2-0.1c-0.4,0.3-0.6,0.6-0.6,1
							c0,0.7,0.8,1.1,2,1.1C199.2,19.2,200,18.7,200,18z M199,11.4c0-1-0.6-1.5-1.3-1.5s-1.3,0.6-1.3,1.5c0,1,0.6,1.5,1.3,1.5
							C198.4,13,199,12.4,199,11.4z"/>
						<path class="st5" d="M209.7,4.9h1.5l-3.7,14.8H206L209.7,4.9z"/>
						<path class="st5" d="M216.2,8.6h1.8l0.2,1.1h0.1c0.7-0.7,1.6-1.3,2.7-1.3c1.8,0,2.6,1.3,2.6,3.4V17h-2.2v-5
							c0-1.3-0.4-1.8-1.2-1.8c-0.7,0-1.1,0.3-1.8,0.9V17h-2.2V8.6z"/>
						<path class="st5" d="M225.2,8.7h7.7v1.6h-7.7V8.7z M225.2,12.5h7.7v1.6h-7.7V12.5z"/>
						<path class="st5" d="M234.7,15.2h2.4v-7h-2V6.8c1.1-0.2,1.9-0.5,2.6-0.9h1.6v9.3h2.1V17h-6.7V15.2z"/>
						<path class="st5" d="M250.7,14.1h-1.3V17h-2.1v-2.9h-4.7v-1.5l4.1-6.7h2.6v6.5h1.3V14.1z M247.3,12.4v-2.3
							c0-0.6,0.1-1.6,0.1-2.3h-0.1c-0.3,0.6-0.6,1.2-0.9,1.8l-1.7,2.8H247.3z"/>
						<path class="st5" d="M251.9,19.4c1.3-2.2,1.8-4.7,1.8-7.2c0-2.4-0.6-5-1.8-7.2l1.4-0.6c1.4,2.3,2.2,4.8,2.2,7.8
							c0,3-0.8,5.4-2.2,7.8L251.9,19.4z"/>
					</g>
				</g>
			</g>
			<g class="st1">
				<path d="M67.2,7.7h4c3,0,5.1,1,5.1,4c0,2.9-2.1,4.2-5,4.2h-2v5h-2.1V7.7z M71.1,14.3c2.1,0,3.1-0.8,3.1-2.6
					c0-1.7-1.1-2.3-3.2-2.3h-1.7v4.9H71.1z"/>
				<path d="M78.7,11.1h1.7l0.2,1.8h0.1c0.7-1.3,1.7-2,2.8-2c0.5,0,0.8,0.1,1.1,0.2l-0.4,1.8c-0.3-0.1-0.6-0.2-1-0.2
					c-0.8,0-1.8,0.6-2.4,2.1V21h-2.1V11.1z"/>
				<path d="M85.1,16.1c0-3.3,2.2-5.2,4.7-5.2s4.7,1.9,4.7,5.2c0,3.3-2.2,5.2-4.7,5.2S85.1,19.3,85.1,16.1z M92.3,16.1
					c0-2.1-1-3.5-2.5-3.5c-1.5,0-2.5,1.4-2.5,3.5c0,2.1,1,3.5,2.5,3.5C91.3,19.5,92.3,18.2,92.3,16.1z"/>
				<path d="M96.1,22.8c0-0.8,0.5-1.6,1.4-2.2v-0.1c-0.5-0.3-0.9-0.8-0.9-1.6c0-0.8,0.6-1.4,1.1-1.8V17c-0.7-0.5-1.3-1.5-1.3-2.6
					c0-2.3,1.8-3.6,3.8-3.6c0.6,0,1.1,0.1,1.4,0.3h3.5v1.5h-1.9c0.4,0.4,0.6,1.1,0.6,1.8c0,2.2-1.6,3.4-3.7,3.4
					c-0.5,0-1-0.1-1.4-0.3c-0.3,0.3-0.5,0.6-0.5,1c0,0.6,0.4,1,1.7,1h1.8c2.3,0,3.6,0.7,3.6,2.4c0,1.9-2,3.5-5.2,3.5
					C97.9,25.4,96.1,24.6,96.1,22.8z M103.4,22.3c0-0.8-0.6-1.1-1.9-1.1h-1.5c-0.5,0-0.9-0.1-1.3-0.1c-0.6,0.4-0.8,0.9-0.8,1.4
					c0,1,1,1.5,2.6,1.5C102.3,24.1,103.4,23.2,103.4,22.3z M102.2,14.4c0-1.3-0.8-2.1-1.9-2.1s-1.9,0.8-1.9,2.1
					c0,1.3,0.8,2.1,1.9,2.1S102.2,15.7,102.2,14.4z"/>
				<path d="M107.3,11.1h1.7l0.2,1.8h0.1c0.7-1.3,1.7-2,2.8-2c0.5,0,0.8,0.1,1.1,0.2l-0.4,1.8c-0.3-0.1-0.6-0.2-1-0.2
					c-0.8,0-1.8,0.6-2.4,2.1V21h-2.1V11.1z"/>
				<path d="M113.7,16.1c0-3.2,2.2-5.2,4.5-5.2c2.6,0,4,1.9,4,4.7c0,0.4,0,0.8-0.1,1h-6.4c0.2,1.9,1.4,3,3.1,3
					c0.9,0,1.6-0.3,2.4-0.7l0.7,1.3c-0.9,0.6-2.1,1-3.3,1C115.9,21.2,113.7,19.3,113.7,16.1z M120.5,15.2c0-1.7-0.8-2.7-2.2-2.7
					c-1.2,0-2.3,1-2.5,2.7H120.5z"/>
				<path d="M123.6,19.9l1-1.3c0.9,0.7,1.7,1.1,2.8,1.1c1.2,0,1.7-0.6,1.7-1.3c0-0.9-1.1-1.3-2.2-1.7c-1.3-0.5-2.8-1.2-2.8-2.9
					c0-1.7,1.3-2.9,3.5-2.9c1.3,0,2.4,0.5,3.2,1.2l-1,1.3c-0.7-0.5-1.4-0.9-2.2-0.9c-1.1,0-1.6,0.5-1.6,1.2c0,0.8,1,1.2,2.1,1.6
					c1.4,0.5,2.9,1.1,2.9,3c0,1.7-1.3,3-3.8,3C125.9,21.2,124.5,20.7,123.6,19.9z"/>
				<path d="M132.2,19.9l1-1.3c0.9,0.7,1.7,1.1,2.8,1.1c1.2,0,1.7-0.6,1.7-1.3c0-0.9-1.1-1.3-2.2-1.7c-1.3-0.5-2.8-1.2-2.8-2.9
					c0-1.7,1.3-2.9,3.5-2.9c1.3,0,2.4,0.5,3.2,1.2l-1,1.3c-0.7-0.5-1.4-0.9-2.2-0.9c-1.1,0-1.6,0.5-1.6,1.2c0,0.8,1,1.2,2.1,1.6
					c1.4,0.5,2.9,1.1,2.9,3c0,1.7-1.3,3-3.8,3C134.6,21.2,133.2,20.7,132.2,19.9z"/>
				<path d="M141.6,8c0-0.7,0.6-1.2,1.3-1.2s1.3,0.5,1.3,1.2c0,0.7-0.6,1.2-1.3,1.2S141.6,8.7,141.6,8z M141.9,11.1h2.1V21h-2.1
					V11.1z"/>
				<path d="M146.3,16.1c0-3.3,2.2-5.2,4.7-5.2s4.7,1.9,4.7,5.2c0,3.3-2.2,5.2-4.7,5.2S146.3,19.3,146.3,16.1z M153.6,16.1
					c0-2.1-1-3.5-2.5-3.5c-1.5,0-2.5,1.4-2.5,3.5c0,2.1,1,3.5,2.5,3.5C152.6,19.5,153.6,18.2,153.6,16.1z"/>
				<path d="M158.1,11.1h1.7l0.2,1.4h0.1c0.9-0.9,1.9-1.6,3.3-1.6c2.1,0,3,1.4,3,3.9V21h-2.1v-6c0-1.7-0.5-2.4-1.7-2.4
					c-0.9,0-1.5,0.5-2.4,1.3v7h-2.1V11.1z"/>
				<path d="M172.7,16.1c0-3.3,2.2-5.2,4.7-5.2c2.4,0,4.7,1.9,4.7,5.2c0,3.3-2.2,5.2-4.7,5.2C174.9,21.2,172.7,19.3,172.7,16.1z
					 M179.9,16.1c0-2.1-1-3.5-2.5-3.5c-1.5,0-2.5,1.4-2.5,3.5c0,2.1,1,3.5,2.5,3.5C178.9,19.5,179.9,18.2,179.9,16.1z"/>
				<path d="M189.2,8.3c-0.4-0.2-0.7-0.3-1.1-0.3c-0.9,0-1.3,0.6-1.3,1.8v1.3h2v1.7h-2V21h-2.1v-8.2h-1.4v-1.5l1.4-0.1V9.9
					c0-2,0.9-3.4,3.1-3.4c0.7,0,1.3,0.1,1.7,0.3L189.2,8.3z"/>
				<path d="M194.5,17.3v-6.2h2.1v6c0,1.7,0.5,2.4,1.7,2.4c0.9,0,1.5-0.4,2.4-1.5v-6.9h2.1V21H201l-0.2-1.5h-0.1
					c-0.9,1-1.9,1.7-3.2,1.7C195.4,21.2,194.5,19.8,194.5,17.3z"/>
				<path d="M205.8,18.7v-12h2.1v12.1c0,0.6,0.3,0.8,0.5,0.8c0.1,0,0.2,0,0.3,0l0.3,1.6c-0.3,0.1-0.6,0.2-1.1,0.2
					C206.4,21.2,205.8,20.3,205.8,18.7z"/>
				<path d="M210.5,16.1c0-3.3,2.3-5.2,4.9-5.2c1.3,0,2.2,0.5,2.9,1.1l-1,1.4c-0.5-0.5-1.1-0.8-1.8-0.8c-1.7,0-2.8,1.4-2.8,3.5
					c0,2.1,1.1,3.5,2.8,3.5c0.8,0,1.6-0.4,2.2-0.9l0.8,1.4c-0.9,0.8-2.1,1.2-3.2,1.2C212.5,21.2,210.5,19.3,210.5,16.1z"/>
				<path d="M219.3,16.1c0-3.2,2.2-5.2,4.5-5.2c2.6,0,4,1.9,4,4.7c0,0.4,0,0.8-0.1,1h-6.4c0.2,1.9,1.4,3,3.1,3
					c0.9,0,1.6-0.3,2.4-0.7l0.7,1.3c-0.9,0.6-2.1,1-3.3,1C221.4,21.2,219.3,19.3,219.3,16.1z M226.1,15.2c0-1.7-0.8-2.7-2.2-2.7
					c-1.2,0-2.3,1-2.5,2.7H226.1z"/>
				<path d="M230.2,11.1h1.7l0.2,1.8h0.1c0.7-1.3,1.7-2,2.8-2c0.5,0,0.8,0.1,1.1,0.2l-0.4,1.8c-0.3-0.1-0.6-0.2-1-0.2
					c-0.8,0-1.8,0.6-2.4,2.1V21h-2.1V11.1z"/>
				<path d="M236.4,19.9l1-1.3c0.9,0.7,1.7,1.1,2.8,1.1c1.2,0,1.7-0.6,1.7-1.3c0-0.9-1.1-1.3-2.2-1.7c-1.3-0.5-2.8-1.2-2.8-2.9
					c0-1.7,1.3-2.9,3.5-2.9c1.3,0,2.4,0.5,3.2,1.2l-1,1.3c-0.7-0.5-1.4-0.9-2.2-0.9c-1.1,0-1.6,0.5-1.6,1.2c0,0.8,1,1.2,2.1,1.6
					c1.4,0.5,2.9,1.1,2.9,3c0,1.7-1.3,3-3.8,3C238.7,21.2,237.3,20.7,236.4,19.9z"/>
				<path d="M252,20L252,20l-0.3,1h-1.6V6.6h2.1v3.8l-0.1,1.7c0.8-0.7,1.9-1.3,3-1.3c2.5,0,3.9,2,3.9,5c0,3.4-2,5.3-4.3,5.3
					C253.8,21.2,252.8,20.8,252,20z M256.9,15.9c0-2.1-0.7-3.3-2.3-3.3c-0.8,0-1.5,0.4-2.4,1.2v4.8c0.8,0.7,1.5,0.9,2.2,0.9
					C255.8,19.5,256.9,18.2,256.9,15.9z"/>
				<path d="M265.7,21.6c-0.8,2.1-1.8,3.5-3.9,3.5c-0.5,0-0.9-0.1-1.2-0.2l0.4-1.6c0.2,0.1,0.5,0.1,0.7,0.1c1.1,0,1.7-0.8,2.1-1.9
					l0.2-0.7l-3.9-9.8h2.1l1.8,5.1c0.3,0.9,0.6,1.9,0.9,2.8h0.1l0.8-2.8l1.6-5.1h2L265.7,21.6z"/>
			</g>
			<text transform="matrix(1 0 0 1 269.558 21)" class="st7 st8"> </text>
			<g class="st1">
				<path d="M98.4,44.8v-5h-1.4v-1.5l1.5-0.1l0.2-2.7h1.7v2.7h2.6v1.7h-2.6v5c0,1.2,0.4,1.8,1.4,1.8c0.3,0,0.8-0.1,1.1-0.2l0.4,1.5
					c-0.6,0.2-1.2,0.4-1.9,0.4C99.2,48.2,98.4,46.8,98.4,44.8z"/>
				<path d="M105.2,38.1h1.7l0.2,1.8h0.1c0.7-1.3,1.7-2,2.8-2c0.5,0,0.8,0.1,1.1,0.2l-0.4,1.8c-0.3-0.1-0.6-0.2-1-0.2
					c-0.8,0-1.8,0.6-2.4,2.1V48h-2.1V38.1z"/>
				<path d="M111.6,43.1c0-3.2,2.2-5.2,4.5-5.2c2.6,0,4,1.9,4,4.7c0,0.4,0,0.8-0.1,1h-6.4c0.2,1.9,1.4,3,3.1,3
					c0.9,0,1.6-0.3,2.4-0.7l0.7,1.3c-0.9,0.6-2.1,1-3.3,1C113.8,48.2,111.6,46.3,111.6,43.1z M118.4,42.2c0-1.7-0.8-2.7-2.2-2.7
					c-1.2,0-2.3,1-2.5,2.7H118.4z"/>
				<path d="M121.7,45.4c0-2.1,1.8-3.2,5.9-3.7c0-1.2-0.4-2.2-1.9-2.2c-1,0-2,0.5-2.9,1l-0.8-1.4c1-0.6,2.4-1.3,4-1.3
					c2.5,0,3.6,1.6,3.6,4.2v6H128l-0.2-1.1h-0.1c-0.9,0.8-2,1.4-3.2,1.4C122.9,48.2,121.7,47.1,121.7,45.4z M127.6,45.4V43
					c-2.9,0.4-3.9,1.1-3.9,2.2c0,1,0.7,1.4,1.5,1.4C126.1,46.6,126.8,46.2,127.6,45.4z"/>
				<path d="M132.6,44.8v-5h-1.4v-1.5l1.5-0.1l0.2-2.7h1.7v2.7h2.6v1.7h-2.6v5c0,1.2,0.4,1.8,1.4,1.8c0.3,0,0.8-0.1,1.1-0.2l0.4,1.5
					c-0.6,0.2-1.2,0.4-1.9,0.4C133.4,48.2,132.6,46.8,132.6,44.8z"/>
				<path d="M139.4,38.1h1.7l0.2,1.4h0.1c0.8-0.9,1.8-1.6,3.1-1.6c1.5,0,2.3,0.7,2.7,1.8c1-1,2-1.8,3.2-1.8c2.1,0,3,1.4,3,3.9V48
					h-2.1v-6c0-1.7-0.5-2.4-1.7-2.4c-0.7,0-1.4,0.5-2.2,1.3v7h-2.1v-6c0-1.7-0.5-2.4-1.7-2.4c-0.7,0-1.4,0.5-2.2,1.3v7h-2.1V38.1z"
					/>
				<path d="M155.7,43.1c0-3.2,2.2-5.2,4.5-5.2c2.6,0,4,1.9,4,4.7c0,0.4,0,0.8-0.1,1h-6.4c0.2,1.9,1.4,3,3.1,3
					c0.9,0,1.6-0.3,2.4-0.7l0.7,1.3c-0.9,0.6-2.1,1-3.3,1C157.8,48.2,155.7,46.3,155.7,43.1z M162.4,42.2c0-1.7-0.8-2.7-2.2-2.7
					c-1.2,0-2.3,1-2.5,2.7H162.4z"/>
				<path d="M166.5,38.1h1.7l0.2,1.4h0.1c0.9-0.9,1.9-1.6,3.3-1.6c2.1,0,3,1.4,3,3.9V48h-2.1v-6c0-1.7-0.5-2.4-1.7-2.4
					c-0.9,0-1.5,0.5-2.4,1.3v7h-2.1V38.1z"/>
				<path d="M178.1,44.8v-5h-1.4v-1.5l1.5-0.1l0.2-2.7h1.7v2.7h2.6v1.7h-2.6v5c0,1.2,0.4,1.8,1.4,1.8c0.3,0,0.8-0.1,1.1-0.2l0.4,1.5
					c-0.6,0.2-1.2,0.4-1.9,0.4C178.9,48.2,178.1,46.8,178.1,44.8z"/>
				<path d="M188.2,49.8c0-0.8,0.5-1.6,1.4-2.2v-0.1c-0.5-0.3-0.9-0.8-0.9-1.6c0-0.8,0.6-1.4,1.1-1.8V44c-0.7-0.5-1.3-1.5-1.3-2.6
					c0-2.3,1.8-3.6,3.8-3.6c0.6,0,1.1,0.1,1.4,0.3h3.5v1.5h-1.9c0.4,0.4,0.6,1.1,0.6,1.8c0,2.2-1.6,3.4-3.7,3.4
					c-0.5,0-1-0.1-1.4-0.3c-0.3,0.3-0.5,0.6-0.5,1c0,0.6,0.4,1,1.7,1h1.8c2.3,0,3.6,0.7,3.6,2.4c0,1.9-2,3.5-5.2,3.5
					C190,52.4,188.2,51.6,188.2,49.8z M195.5,49.3c0-0.8-0.6-1.1-1.9-1.1h-1.5c-0.5,0-0.9-0.1-1.3-0.1c-0.6,0.4-0.8,0.9-0.8,1.4
					c0,1,1,1.5,2.6,1.5C194.4,51.1,195.5,50.2,195.5,49.3z M194.3,41.4c0-1.3-0.8-2.1-1.9-2.1c-1,0-1.9,0.8-1.9,2.1
					c0,1.3,0.8,2.1,1.9,2.1S194.3,42.7,194.3,41.4z"/>
				<path d="M199.4,38.1h1.7l0.2,1.8h0.1c0.7-1.3,1.7-2,2.8-2c0.5,0,0.8,0.1,1.1,0.2l-0.4,1.8c-0.3-0.1-0.6-0.2-1-0.2
					c-0.8,0-1.8,0.6-2.4,2.1V48h-2.1V38.1z"/>
				<path d="M205.8,43.1c0-3.3,2.2-5.2,4.7-5.2c2.4,0,4.7,1.9,4.7,5.2c0,3.3-2.2,5.2-4.7,5.2C208,48.2,205.8,46.3,205.8,43.1z
					 M213,43.1c0-2.1-1-3.5-2.5-3.5c-1.5,0-2.5,1.4-2.5,3.5c0,2.1,1,3.5,2.5,3.5C212.1,46.5,213,45.2,213,43.1z"/>
				<path d="M217.4,44.3v-6.2h2.1v6c0,1.7,0.5,2.4,1.7,2.4c0.9,0,1.5-0.4,2.4-1.5v-6.9h2.1V48h-1.7l-0.2-1.5h-0.1
					c-0.9,1-1.9,1.7-3.2,1.7C218.4,48.2,217.4,46.8,217.4,44.3z"/>
				<path d="M228.7,38.1h1.7l0.2,1.1h0.1c0.9-0.7,1.9-1.3,3-1.3c2.5,0,3.9,2,3.9,5c0,3.4-2,5.3-4.3,5.3c-0.9,0-1.8-0.4-2.6-1.1
					l0.1,1.7V52h-2.1V38.1z M235.5,42.9c0-2.1-0.7-3.3-2.3-3.3c-0.8,0-1.5,0.4-2.4,1.2v4.8c0.8,0.7,1.5,0.9,2.2,0.9
					C234.4,46.5,235.5,45.2,235.5,42.9z"/>
			</g>
		</g>
	</g>
</g>
</svg>
