<?xml version="1.0" encoding="utf-8"?>
<!-- Generator: Adobe Illustrator 23.0.1, SVG Export Plug-In . SVG Version: 6.00 Build 0)  -->
<svg version="1.1" id="Layer_1" xmlns="http://www.w3.org/2000/svg" xmlns:xlink="http://www.w3.org/1999/xlink" x="0px" y="0px"
	 viewBox="0 0 1002 295" style="enable-background:new 0 0 1002 295;" xml:space="preserve">
<style type="text/css">
	.st0{fill-rule:evenodd;clip-rule:evenodd;}
	.st1{enable-background:new    ;}
	.st2{fill:#FFFFFF;}
	.st3{fill:none;stroke:#979797;stroke-linecap:square;}
</style>
<title>표3</title>
<desc>Created with Sketch.</desc>
<g id="Page-1">
	<g transform="translate(-219.000000, -3796.000000)">
		<g id="표3" transform="translate(220.000000, 3790.000000)">
			<g id="head" transform="translate(0.000000, 47.000000)">
				<g>
					<path id="bg" class="st0" d="M8,0h234c4.4,0,8,3.6,8,8v34c0,4.4-3.6,8-8,8H8c-4.4,0-8-3.6-8-8V8C0,3.6,3.6,0,8,0z"/>
				</g>
				<g transform="translate(260.000000, 0.000000)">
					<path class="st0" d="M8,0h349c4.4,0,8,3.6,8,8v34c0,4.4-3.6,8-8,8H8c-4.4,0-8-3.6-8-8V8C0,3.6,3.6,0,8,0z"/>
					<g class="st1">
						<path class="st2" d="M92.8,25.5c0-3.7,2.4-5.8,5.2-5.8c1.4,0,2.5,0.7,3.3,1.4l-1.2,1.4c-0.6-0.5-1.2-0.9-2-0.9
							c-1.7,0-2.9,1.4-2.9,3.8c0,2.4,1.1,3.9,2.9,3.9c0.9,0,1.7-0.5,2.3-1.1l1.2,1.4c-0.9,1.1-2.1,1.6-3.5,1.6
							C95.1,31.2,92.8,29.2,92.8,25.5z"/>
						<path class="st2" d="M102.5,26.8c0-2.8,1.9-4.4,4-4.4c2.1,0,4,1.6,4,4.4c0,2.8-1.9,4.4-4,4.4
							C104.5,31.2,102.5,29.6,102.5,26.8z M108.3,26.8c0-1.6-0.6-2.6-1.8-2.6c-1.1,0-1.8,1-1.8,2.6c0,1.6,0.6,2.6,1.8,2.6
							C107.7,29.4,108.3,28.4,108.3,26.8z"/>
						<path class="st2" d="M112.4,22.6h1.8l0.2,1.1h0.1c0.7-0.7,1.5-1.3,2.6-1.3c1.2,0,1.9,0.5,2.3,1.5c0.8-0.8,1.6-1.5,2.7-1.5
							c1.8,0,2.6,1.3,2.6,3.4V31h-2.2v-5c0-1.3-0.4-1.8-1.2-1.8c-0.5,0-1,0.3-1.6,0.9V31h-2.2v-5c0-1.3-0.4-1.8-1.2-1.8
							c-0.5,0-1,0.3-1.6,0.9V31h-2.2V22.6z"/>
						<path class="st2" d="M126.9,22.6h1.8l0.2,0.9h0.1c0.7-0.6,1.6-1.1,2.5-1.1c2.1,0,3.3,1.7,3.3,4.3c0,2.9-1.7,4.5-3.6,4.5
							c-0.7,0-1.4-0.3-2.1-0.9l0.1,1.4v2.5h-2.2V22.6z M132.4,26.7c0-1.6-0.5-2.5-1.7-2.5c-0.6,0-1.1,0.3-1.7,0.9v3.7
							c0.5,0.5,1.1,0.6,1.5,0.6C131.6,29.4,132.4,28.5,132.4,26.7z"/>
						<path class="st2" d="M136.6,28.6V19h2.2v9.7c0,0.5,0.2,0.7,0.4,0.7c0.1,0,0.2,0,0.3,0l0.3,1.6c-0.3,0.1-0.6,0.2-1.1,0.2
							C137.1,31.2,136.6,30.2,136.6,28.6z"/>
						<path class="st2" d="M140.8,26.8c0-2.7,1.9-4.4,3.9-4.4c2.3,0,3.5,1.7,3.5,4c0,0.4,0,0.8-0.1,1h-5.2c0.2,1.4,1.1,2.1,2.3,2.1
							c0.7,0,1.3-0.2,1.9-0.6l0.8,1.4c-0.8,0.6-1.9,0.9-2.9,0.9C142.6,31.2,140.8,29.6,140.8,26.8z M146.3,26c0-1.1-0.5-1.9-1.6-1.9
							c-0.9,0-1.7,0.6-1.8,1.9H146.3z"/>
						<path class="st2" d="M150.1,28.1v-3.7h-1.2v-1.6l1.3-0.1l0.3-2.2h1.8v2.2h2.1v1.7h-2.1v3.7c0,1,0.4,1.4,1.1,1.4
							c0.3,0,0.6-0.1,0.8-0.2l0.4,1.6c-0.5,0.2-1,0.3-1.8,0.3C150.9,31.2,150.1,30,150.1,28.1z"/>
						<path class="st2" d="M155.3,26.8c0-2.7,1.9-4.4,3.9-4.4c2.3,0,3.5,1.7,3.5,4c0,0.4,0,0.8-0.1,1h-5.2c0.2,1.4,1.1,2.1,2.3,2.1
							c0.7,0,1.3-0.2,1.9-0.6l0.8,1.4c-0.8,0.6-1.9,0.9-2.9,0.9C157.1,31.2,155.3,29.6,155.3,26.8z M160.8,26c0-1.1-0.5-1.9-1.6-1.9
							c-0.9,0-1.7,0.6-1.8,1.9H160.8z"/>
						<path class="st2" d="M164.5,28.6V19h2.2v9.7c0,0.5,0.2,0.7,0.5,0.7c0.1,0,0.1,0,0.3,0l0.3,1.6c-0.3,0.1-0.6,0.2-1.1,0.2
							C165.1,31.2,164.5,30.2,164.5,28.6z"/>
						<path class="st2" d="M168.9,34.2l0.4-1.7c0.2,0,0.4,0.1,0.6,0.1c0.9,0,1.3-0.5,1.6-1.3l0.2-0.5l-3.3-8.2h2.2l1.3,3.9
							c0.3,0.8,0.5,1.6,0.7,2.4h0.1c0.2-0.8,0.4-1.6,0.6-2.4l1.2-3.9h2.1l-3,8.7c-0.7,2-1.6,3.1-3.5,3.1
							C169.5,34.4,169.2,34.3,168.9,34.2z"/>
						<path class="st2" d="M181.5,19.9h2.2v4.4h4.2v-4.4h2.2V31h-2.2v-4.8h-4.2V31h-2.2V19.9z"/>
						<path class="st2" d="M192.1,26.8c0-2.7,1.9-4.4,3.9-4.4c2.3,0,3.5,1.7,3.5,4c0,0.4,0,0.8-0.1,1h-5.2c0.2,1.4,1.1,2.1,2.3,2.1
							c0.7,0,1.3-0.2,1.9-0.6l0.8,1.4c-0.8,0.6-1.9,0.9-2.9,0.9C193.9,31.2,192.1,29.6,192.1,26.8z M197.7,26c0-1.1-0.5-1.9-1.6-1.9
							c-0.9,0-1.7,0.6-1.8,1.9H197.7z"/>
						<path class="st2" d="M200.7,28.7c0-1.8,1.5-2.7,4.8-3.1c0-0.8-0.4-1.5-1.4-1.5c-0.8,0-1.5,0.3-2.3,0.8l-0.8-1.5
							c1-0.6,2.2-1.1,3.5-1.1c2.1,0,3.2,1.3,3.2,3.7V31H206l-0.2-0.9h0c-0.7,0.6-1.6,1.1-2.5,1.1C201.7,31.2,200.7,30.1,200.7,28.7z
							 M205.6,28.7V27c-2,0.3-2.7,0.8-2.7,1.6c0,0.7,0.5,0.9,1.1,0.9C204.6,29.5,205,29.2,205.6,28.7z"/>
						<path class="st2" d="M210,28.6V19h2.2v9.7c0,0.5,0.2,0.7,0.5,0.7c0.1,0,0.1,0,0.3,0l0.3,1.6c-0.3,0.1-0.6,0.2-1.1,0.2
							C210.6,31.2,210,30.2,210,28.6z"/>
						<path class="st2" d="M214.2,26.8c0-2.7,1.9-4.4,3.9-4.4c2.3,0,3.5,1.7,3.5,4c0,0.4,0,0.8-0.1,1h-5.2c0.2,1.4,1.1,2.1,2.3,2.1
							c0.7,0,1.3-0.2,1.9-0.6l0.8,1.4c-0.8,0.6-1.9,0.9-2.9,0.9C216,31.2,214.2,29.6,214.2,26.8z M219.7,26c0-1.1-0.5-1.9-1.6-1.9
							c-0.9,0-1.7,0.6-1.8,1.9H219.7z"/>
						<path class="st2" d="M223,26.8c0-2.7,1.7-4.4,3.5-4.4c0.9,0,1.5,0.4,2.1,0.9l-0.1-1.3v-3h2.2v12H229l-0.2-0.9h0
							c-0.6,0.6-1.5,1.1-2.3,1.1C224.3,31.2,223,29.6,223,26.8z M228.5,28.5v-3.7c-0.5-0.5-1-0.6-1.6-0.6c-0.9,0-1.7,0.9-1.7,2.6
							c0,1.7,0.6,2.6,1.7,2.6C227.6,29.4,228.1,29.2,228.5,28.5z"/>
						<path class="st2" d="M236.6,26v-6.1h2.2v6.3c0,2.3,0.8,3.1,2.1,3.1c1.3,0,2.2-0.8,2.2-3.1v-6.3h2.1V26c0,3.7-1.6,5.2-4.3,5.2
							C238.3,31.2,236.6,29.7,236.6,26z"/>
						<path class="st2" d="M247.7,28.6V19h2.2v9.7c0,0.5,0.2,0.7,0.5,0.7c0.1,0,0.1,0,0.3,0l0.3,1.6c-0.3,0.1-0.6,0.2-1.1,0.2
							C248.3,31.2,247.7,30.2,247.7,28.6z"/>
						<path class="st2" d="M251.9,26.8c0-2.8,2-4.4,4.3-4.4c1,0,1.8,0.4,2.4,0.9l-1,1.4c-0.4-0.4-0.8-0.6-1.3-0.6
							c-1.3,0-2.1,1-2.1,2.6c0,1.6,0.9,2.6,2.1,2.6c0.6,0,1.2-0.3,1.6-0.7l0.9,1.5c-0.8,0.7-1.8,1-2.7,1
							C253.7,31.2,251.9,29.6,251.9,26.8z"/>
						<path class="st2" d="M259.4,26.8c0-2.7,1.9-4.4,3.9-4.4c2.3,0,3.5,1.7,3.5,4c0,0.4,0,0.8-0.1,1h-5.2c0.2,1.4,1.1,2.1,2.3,2.1
							c0.7,0,1.3-0.2,1.9-0.6l0.8,1.4c-0.8,0.6-1.9,0.9-2.9,0.9C261.2,31.2,259.4,29.6,259.4,26.8z M264.9,26c0-1.1-0.5-1.9-1.6-1.9
							c-0.9,0-1.7,0.6-1.8,1.9H264.9z"/>
						<path class="st2" d="M268.6,22.6h1.8l0.1,1.5h0.1c0.6-1.1,1.5-1.7,2.4-1.7c0.5,0,0.7,0.1,1,0.2l-0.4,1.9
							c-0.3-0.1-0.5-0.1-0.9-0.1c-0.7,0-1.5,0.4-1.9,1.7v5h-2.2V22.6z"/>
					</g>
				</g>
				<g transform="translate(635.000000, 0.000000)">
					<path class="st0" d="M8,0h349c4.4,0,8,3.6,8,8v34c0,4.4-3.6,8-8,8H8c-4.4,0-8-3.6-8-8V8C0,3.6,3.6,0,8,0z"/>
					<g class="st1">
						<path class="st2" d="M20.4,19.9h2.5l1.9,5.2c0.2,0.7,0.5,1.4,0.7,2.1h0.1c0.2-0.7,0.4-1.5,0.7-2.1l1.8-5.2h2.5V31h-2v-4.6
							c0-1,0.2-2.6,0.3-3.6h-0.1l-0.9,2.6L26.1,30h-1.3l-1.7-4.7l-0.9-2.6h-0.1c0.1,1,0.3,2.6,0.3,3.6V31h-2V19.9z"/>
						<path class="st2" d="M32.5,26.8c0-2.7,1.9-4.4,3.9-4.4c2.3,0,3.5,1.7,3.5,4c0,0.4,0,0.8-0.1,1h-5.2c0.2,1.4,1.1,2.1,2.3,2.1
							c0.7,0,1.3-0.2,1.9-0.6l0.8,1.4c-0.8,0.6-1.9,0.9-2.9,0.9C34.4,31.2,32.5,29.6,32.5,26.8z M38.1,26c0-1.1-0.5-1.9-1.6-1.9
							c-0.9,0-1.7,0.6-1.8,1.9H38.1z"/>
						<path class="st2" d="M41.1,28.7c0-1.8,1.5-2.7,4.8-3.1c0-0.8-0.4-1.5-1.4-1.5c-0.8,0-1.5,0.3-2.3,0.8l-0.8-1.5
							c1-0.6,2.2-1.1,3.5-1.1c2.1,0,3.2,1.3,3.2,3.7V31h-1.8l-0.2-0.9h0c-0.7,0.6-1.6,1.1-2.5,1.1C42.1,31.2,41.1,30.1,41.1,28.7z
							 M46,28.7V27c-2,0.3-2.7,0.8-2.7,1.6c0,0.7,0.5,0.9,1.1,0.9C45,29.5,45.5,29.2,46,28.7z"/>
						<path class="st2" d="M50.4,22.6h1.8l0.1,1.1h0.1c0.7-0.7,1.6-1.3,2.7-1.3c1.8,0,2.6,1.3,2.6,3.4V31h-2.2v-5
							c0-1.3-0.4-1.8-1.2-1.8c-0.7,0-1.1,0.3-1.8,0.9V31h-2.2V22.6z"/>
						<path class="st2" d="M59.8,20.1c0-0.7,0.6-1.2,1.3-1.2c0.8,0,1.3,0.5,1.3,1.2c0,0.7-0.6,1.2-1.3,1.2
							C60.4,21.2,59.8,20.7,59.8,20.1z M60,22.6h2.2V31H60V22.6z"/>
						<path class="st2" d="M64.6,22.6h1.8l0.1,1.1h0.1c0.7-0.7,1.6-1.3,2.7-1.3c1.8,0,2.6,1.3,2.6,3.4V31h-2.2v-5
							c0-1.3-0.4-1.8-1.2-1.8c-0.7,0-1.1,0.3-1.8,0.9V31h-2.2V22.6z"/>
						<path class="st2" d="M73.7,32.5c0-0.7,0.4-1.3,1.2-1.7v-0.1c-0.4-0.3-0.8-0.7-0.8-1.4c0-0.6,0.4-1.2,0.9-1.6v-0.1
							c-0.6-0.4-1.1-1.2-1.1-2.2c0-2,1.6-3,3.4-3c0.5,0,0.9,0.1,1.3,0.2h3v1.6h-1.4c0.2,0.3,0.4,0.8,0.4,1.3c0,1.9-1.4,2.8-3.2,2.8
							c-0.3,0-0.7-0.1-1.1-0.2c-0.2,0.2-0.4,0.4-0.4,0.7c0,0.5,0.3,0.7,1.3,0.7h1.4c2,0,3.1,0.6,3.1,2.1c0,1.7-1.8,3-4.6,3
							C75.2,34.6,73.7,34,73.7,32.5z M79.6,32c0-0.6-0.5-0.8-1.4-0.8h-1c-0.5,0-0.9,0-1.2-0.1c-0.4,0.3-0.6,0.6-0.6,1
							c0,0.7,0.8,1.1,2,1.1C78.8,33.2,79.6,32.7,79.6,32z M78.6,25.4c0-1-0.6-1.5-1.3-1.5S76,24.4,76,25.4c0,1,0.6,1.5,1.3,1.5
							C78,27,78.6,26.4,78.6,25.4z"/>
						<path class="st2" d="M87.7,20.7c-0.3-0.1-0.6-0.2-0.9-0.2c-0.7,0-1,0.4-1,1.3v0.7h1.6v1.7h-1.6V31h-2.2v-6.7h-1.1v-1.6
							l1.1-0.1v-0.7c0-1.8,0.8-3.1,2.9-3.1c0.6,0,1.2,0.2,1.6,0.3L87.7,20.7z"/>
						<path class="st2" d="M88.7,27.9v-5.2h2.2v5c0,1.3,0.4,1.8,1.2,1.8c0.7,0,1.1-0.3,1.7-1v-5.7H96V31h-1.8L94,29.8h-0.1
							c-0.7,0.9-1.5,1.4-2.7,1.4C89.4,31.2,88.7,30,88.7,27.9z"/>
						<path class="st2" d="M98.3,28.6V19h2.2v9.7c0,0.5,0.2,0.7,0.5,0.7c0.1,0,0.1,0,0.3,0l0.3,1.6c-0.3,0.1-0.6,0.2-1.1,0.2
							C98.9,31.2,98.3,30.2,98.3,28.6z"/>
						<path class="st2" d="M106.6,26v-6.1h2.2v6.3c0,2.3,0.8,3.1,2.1,3.1c1.3,0,2.2-0.8,2.2-3.1v-6.3h2.1V26c0,3.7-1.6,5.2-4.3,5.2
							C108.2,31.2,106.6,29.7,106.6,26z"/>
						<path class="st2" d="M117.7,28.6V19h2.2v9.7c0,0.5,0.2,0.7,0.5,0.7c0.1,0,0.1,0,0.3,0l0.3,1.6c-0.3,0.1-0.6,0.2-1.1,0.2
							C118.2,31.2,117.7,30.2,117.7,28.6z"/>
						<path class="st2" d="M121.9,26.8c0-2.8,2-4.4,4.3-4.4c1,0,1.8,0.4,2.4,0.9l-1,1.4c-0.4-0.4-0.8-0.6-1.3-0.6
							c-1.3,0-2.1,1-2.1,2.6c0,1.6,0.9,2.6,2.1,2.6c0.6,0,1.2-0.3,1.6-0.7l0.9,1.5c-0.8,0.7-1.8,1-2.7,1
							C123.6,31.2,121.9,29.6,121.9,26.8z"/>
						<path class="st2" d="M129.3,26.8c0-2.7,1.9-4.4,3.9-4.4c2.3,0,3.5,1.7,3.5,4c0,0.4,0,0.8-0.1,1h-5.2c0.2,1.4,1.1,2.1,2.3,2.1
							c0.7,0,1.3-0.2,1.9-0.6l0.8,1.4c-0.8,0.6-1.9,0.9-2.9,0.9C131.1,31.2,129.3,29.6,129.3,26.8z M134.9,26c0-1.1-0.5-1.9-1.6-1.9
							c-0.9,0-1.7,0.6-1.8,1.9H134.9z"/>
						<path class="st2" d="M138.6,22.6h1.8l0.1,1.5h0.1c0.6-1.1,1.5-1.7,2.4-1.7c0.5,0,0.7,0.1,1,0.2l-0.4,1.9
							c-0.3-0.1-0.5-0.1-0.9-0.1c-0.7,0-1.5,0.4-1.9,1.7v5h-2.2V22.6z"/>
						<path class="st2" d="M148,26.8c0-2.7,1.7-4.4,3.5-4.4c0.9,0,1.5,0.4,2.1,0.9l-0.1-1.3v-3h2.2v12H154l-0.2-0.9h0
							c-0.6,0.6-1.5,1.1-2.3,1.1C149.4,31.2,148,29.6,148,26.8z M153.6,28.5v-3.7c-0.5-0.5-1-0.6-1.6-0.6c-0.9,0-1.7,0.9-1.7,2.6
							c0,1.7,0.6,2.6,1.7,2.6C152.6,29.4,153.1,29.2,153.6,28.5z"/>
						<path class="st2" d="M157.6,26.8c0-2.7,1.9-4.4,3.9-4.4c2.3,0,3.5,1.7,3.5,4c0,0.4,0,0.8-0.1,1h-5.2c0.2,1.4,1.1,2.1,2.3,2.1
							c0.7,0,1.3-0.2,1.9-0.6l0.8,1.4c-0.8,0.6-1.9,0.9-2.9,0.9C159.5,31.2,157.6,29.6,157.6,26.8z M163.2,26c0-1.1-0.5-1.9-1.6-1.9
							c-0.9,0-1.7,0.6-1.8,1.9H163.2z"/>
						<path class="st2" d="M166.4,26.8c0-2.8,2-4.4,4.3-4.4c1,0,1.8,0.4,2.4,0.9l-1,1.4c-0.4-0.4-0.8-0.6-1.3-0.6
							c-1.3,0-2.1,1-2.1,2.6c0,1.6,0.9,2.6,2.1,2.6c0.6,0,1.2-0.3,1.6-0.7l0.9,1.5c-0.8,0.7-1.8,1-2.7,1
							C168.1,31.2,166.4,29.6,166.4,26.8z"/>
						<path class="st2" d="M174.8,22.6h1.8l0.1,1.5h0.1c0.6-1.1,1.5-1.7,2.4-1.7c0.5,0,0.7,0.1,1,0.2l-0.4,1.9
							c-0.3-0.1-0.5-0.1-0.9-0.1c-0.7,0-1.5,0.4-1.9,1.7v5h-2.2V22.6z"/>
						<path class="st2" d="M180.6,26.8c0-2.7,1.9-4.4,3.9-4.4c2.3,0,3.5,1.7,3.5,4c0,0.4,0,0.8-0.1,1h-5.2c0.2,1.4,1.1,2.1,2.3,2.1
							c0.7,0,1.3-0.2,1.9-0.6l0.8,1.4c-0.8,0.6-1.9,0.9-2.9,0.9C182.4,31.2,180.6,29.6,180.6,26.8z M186.1,26c0-1.1-0.5-1.9-1.6-1.9
							c-0.9,0-1.7,0.6-1.8,1.9H186.1z"/>
						<path class="st2" d="M189.2,28.7c0-1.8,1.5-2.7,4.8-3.1c0-0.8-0.4-1.5-1.4-1.5c-0.8,0-1.5,0.3-2.3,0.8l-0.8-1.5
							c1-0.6,2.2-1.1,3.5-1.1c2.1,0,3.2,1.3,3.2,3.7V31h-1.8l-0.2-0.9h0c-0.7,0.6-1.6,1.1-2.5,1.1C190.2,31.2,189.2,30.1,189.2,28.7
							z M194.1,28.7V27c-2,0.3-2.7,0.8-2.7,1.6c0,0.7,0.5,0.9,1.1,0.9C193.1,29.5,193.5,29.2,194.1,28.7z"/>
						<path class="st2" d="M197.7,30l1-1.4c0.8,0.6,1.5,0.9,2.2,0.9c0.8,0,1.2-0.4,1.2-0.9c0-0.6-0.9-0.9-1.8-1.3
							c-1.1-0.4-2.3-1-2.3-2.4c0-1.5,1.2-2.6,3.1-2.6c1.2,0,2.2,0.5,2.9,1l-1,1.3c-0.6-0.4-1.2-0.7-1.8-0.7c-0.8,0-1.1,0.3-1.1,0.8
							c0,0.6,0.8,0.8,1.7,1.2c1.1,0.4,2.3,1,2.3,2.5c0,1.5-1.2,2.7-3.3,2.7C199.8,31.2,198.5,30.7,197.7,30z"/>
						<path class="st2" d="M205.4,26.8c0-2.7,1.9-4.4,3.9-4.4c2.3,0,3.5,1.7,3.5,4c0,0.4,0,0.8-0.1,1h-5.2c0.2,1.4,1.1,2.1,2.3,2.1
							c0.7,0,1.3-0.2,1.9-0.6l0.8,1.4c-0.8,0.6-1.9,0.9-2.9,0.9C207.2,31.2,205.4,29.6,205.4,26.8z M210.9,26c0-1.1-0.5-1.9-1.6-1.9
							c-0.9,0-1.7,0.6-1.8,1.9H210.9z"/>
						<path class="st2" d="M217.8,20.1c0-0.7,0.6-1.2,1.3-1.2c0.8,0,1.3,0.5,1.3,1.2c0,0.7-0.6,1.2-1.3,1.2
							C218.4,21.2,217.8,20.7,217.8,20.1z M218.1,22.6h2.2V31h-2.2V22.6z"/>
						<path class="st2" d="M222.6,22.6h1.8l0.1,1.1h0.1c0.7-0.7,1.6-1.3,2.7-1.3c1.8,0,2.6,1.3,2.6,3.4V31h-2.2v-5
							c0-1.3-0.4-1.8-1.2-1.8c-0.7,0-1.1,0.3-1.8,0.9V31h-2.2V22.6z"/>
						<path class="st2" d="M234.8,30l1-1.4c0.8,0.6,1.5,0.9,2.2,0.9c0.8,0,1.2-0.4,1.2-0.9c0-0.6-0.9-0.9-1.8-1.3
							c-1.1-0.4-2.3-1-2.3-2.4c0-1.5,1.2-2.6,3.1-2.6c1.2,0,2.2,0.5,2.9,1l-1,1.3c-0.6-0.4-1.2-0.7-1.8-0.7c-0.8,0-1.1,0.3-1.1,0.8
							c0,0.6,0.8,0.8,1.7,1.2c1.1,0.4,2.3,1,2.3,2.5c0,1.5-1.2,2.7-3.3,2.7C236.9,31.2,235.7,30.7,234.8,30z"/>
						<path class="st2" d="M242.8,20.1c0-0.7,0.6-1.2,1.3-1.2c0.8,0,1.3,0.5,1.3,1.2c0,0.7-0.6,1.2-1.3,1.2
							C243.4,21.2,242.8,20.7,242.8,20.1z M243.1,22.6h2.2V31h-2.2V22.6z"/>
						<path class="st2" d="M247,29.8l3.8-5.5h-3.3v-1.7h6.1v1.2l-3.8,5.5h3.9V31H247V29.8z"/>
						<path class="st2" d="M254.6,26.8c0-2.7,1.9-4.4,3.9-4.4c2.3,0,3.5,1.7,3.5,4c0,0.4,0,0.8-0.1,1h-5.2c0.2,1.4,1.1,2.1,2.3,2.1
							c0.7,0,1.3-0.2,1.9-0.6l0.8,1.4c-0.8,0.6-1.9,0.9-2.9,0.9C256.4,31.2,254.6,29.6,254.6,26.8z M260.1,26c0-1.1-0.5-1.9-1.6-1.9
							c-0.9,0-1.7,0.6-1.8,1.9H260.1z"/>
						<path class="st2" d="M267.3,26.3c0-3,0.8-5.4,2.2-7.8l1.4,0.6c-1.3,2.2-1.8,4.7-1.8,7.2c0,2.5,0.6,5,1.8,7.2l-1.4,0.6
							C268.1,31.7,267.3,29.3,267.3,26.3z"/>
						<path class="st2" d="M272.4,26.8c0-2.8,1.9-4.4,4-4.4c2.1,0,4,1.6,4,4.4c0,2.8-1.9,4.4-4,4.4
							C274.3,31.2,272.4,29.6,272.4,26.8z M278.2,26.8c0-1.6-0.6-2.6-1.8-2.6c-1.1,0-1.8,1-1.8,2.6c0,1.6,0.6,2.6,1.8,2.6
							C277.5,29.4,278.2,28.4,278.2,26.8z"/>
						<path class="st2" d="M281.2,22.6h2.2l1.2,4.2c0.2,0.8,0.5,1.7,0.7,2.5h0.1c0.2-0.9,0.5-1.7,0.7-2.5l1.2-4.2h2.1l-2.8,8.4h-2.5
							L281.2,22.6z"/>
						<path class="st2" d="M290.2,26.8c0-2.7,1.9-4.4,3.9-4.4c2.3,0,3.5,1.7,3.5,4c0,0.4,0,0.8-0.1,1h-5.2c0.2,1.4,1.1,2.1,2.3,2.1
							c0.7,0,1.3-0.2,1.9-0.6l0.8,1.4c-0.8,0.6-1.9,0.9-2.9,0.9C292,31.2,290.2,29.6,290.2,26.8z M295.7,26c0-1.1-0.5-1.9-1.6-1.9
							c-0.9,0-1.7,0.6-1.8,1.9H295.7z"/>
						<path class="st2" d="M299.4,22.6h1.8l0.2,1.5h0.1c0.6-1.1,1.5-1.7,2.4-1.7c0.5,0,0.7,0.1,1,0.2l-0.4,1.9
							c-0.3-0.1-0.5-0.1-0.9-0.1c-0.7,0-1.5,0.4-1.9,1.7v5h-2.2V22.6z"/>
						<path class="st2" d="M308.5,29.7l1-1.4c0.6,0.6,1.4,1.1,2.4,1.1c1.2,0,2-0.7,2-2c0-1.3-0.8-2-1.9-2c-0.7,0-1,0.2-1.7,0.6
							l-1-0.7l0.3-5.4h5.9v1.8h-4l-0.2,2.4c0.4-0.2,0.8-0.3,1.3-0.3c1.9,0,3.4,1.1,3.4,3.5c0,2.5-1.8,3.9-3.9,3.9
							C310.5,31.2,309.4,30.5,308.5,29.7z"/>
						<path class="st2" d="M317.7,25.4c0-3.8,1.5-5.7,3.8-5.7c2.2,0,3.8,1.9,3.8,5.7s-1.5,5.8-3.8,5.8
							C319.2,31.2,317.7,29.2,317.7,25.4z M323.1,25.4c0-3.1-0.7-4-1.7-4c-1,0-1.7,0.9-1.7,4c0,3.1,0.7,4.1,1.7,4.1
							C322.4,29.5,323.1,28.5,323.1,25.4z"/>
						<path class="st2" d="M326.3,23.2c0-2.2,1.1-3.5,2.7-3.5c1.6,0,2.7,1.3,2.7,3.5c0,2.2-1.1,3.5-2.7,3.5
							C327.4,26.7,326.3,25.4,326.3,23.2z M330.2,23.2c0-1.6-0.5-2.2-1.2-2.2c-0.6,0-1.1,0.6-1.1,2.2s0.5,2.3,1.1,2.3
							C329.7,25.5,330.2,24.8,330.2,23.2z M335.4,19.7h1.3l-6,11.5h-1.3L335.4,19.7z M334.4,27.7c0-2.2,1.1-3.5,2.7-3.5
							s2.7,1.3,2.7,3.5c0,2.2-1.1,3.5-2.7,3.5S334.4,29.9,334.4,27.7z M338.2,27.7c0-1.6-0.5-2.3-1.2-2.3c-0.6,0-1.2,0.6-1.2,2.3
							s0.5,2.3,1.2,2.3C337.7,30,338.2,29.3,338.2,27.7z"/>
						<path class="st2" d="M341,33.4c1.3-2.2,1.8-4.7,1.8-7.2c0-2.4-0.6-5-1.8-7.2l1.4-0.6c1.4,2.3,2.2,4.8,2.2,7.8
							c0,3-0.8,5.4-2.2,7.8L341,33.4z"/>
					</g>
				</g>
			</g>
			<g class="st1">
				<path d="M327.2,7.7h4c3,0,5.1,1,5.1,4c0,2.9-2.1,4.2-5,4.2h-2v5h-2.1V7.7z M331,14.3c2.1,0,3.1-0.8,3.1-2.6
					c0-1.7-1.1-2.3-3.2-2.3h-1.7v4.9H331z"/>
				<path d="M338.6,11.1h1.7l0.2,1.8h0.1c0.7-1.3,1.7-2,2.8-2c0.5,0,0.8,0.1,1.1,0.2l-0.4,1.8c-0.3-0.1-0.6-0.2-1-0.2
					c-0.8,0-1.8,0.6-2.4,2.1V21h-2.1V11.1z"/>
				<path d="M345.1,16.1c0-3.3,2.2-5.2,4.7-5.2c2.4,0,4.7,1.9,4.7,5.2c0,3.3-2.2,5.2-4.7,5.2C347.3,21.2,345.1,19.3,345.1,16.1z
					 M352.3,16.1c0-2.1-1-3.5-2.5-3.5c-1.5,0-2.5,1.4-2.5,3.5c0,2.1,1,3.5,2.5,3.5C351.3,19.5,352.3,18.2,352.3,16.1z"/>
				<path d="M356.1,22.8c0-0.8,0.5-1.6,1.4-2.2v-0.1c-0.5-0.3-0.9-0.8-0.9-1.6c0-0.8,0.6-1.4,1.1-1.8V17c-0.7-0.5-1.3-1.5-1.3-2.6
					c0-2.3,1.8-3.6,3.8-3.6c0.6,0,1.1,0.1,1.4,0.3h3.5v1.5h-1.9c0.4,0.4,0.6,1.1,0.6,1.8c0,2.2-1.6,3.4-3.7,3.4
					c-0.5,0-1-0.1-1.4-0.3c-0.3,0.3-0.5,0.6-0.5,1c0,0.6,0.4,1,1.7,1h1.8c2.3,0,3.6,0.7,3.6,2.4c0,1.9-2,3.5-5.2,3.5
					C357.8,25.4,356.1,24.6,356.1,22.8z M363.4,22.3c0-0.8-0.6-1.1-1.9-1.1h-1.5c-0.5,0-0.9-0.1-1.3-0.1c-0.6,0.4-0.8,0.9-0.8,1.4
					c0,1,1,1.5,2.6,1.5C362.3,24.1,363.4,23.2,363.4,22.3z M362.2,14.4c0-1.3-0.8-2.1-1.9-2.1c-1,0-1.9,0.8-1.9,2.1
					c0,1.3,0.8,2.1,1.9,2.1S362.2,15.7,362.2,14.4z"/>
				<path d="M367.2,11.1h1.7l0.2,1.8h0.1c0.7-1.3,1.7-2,2.8-2c0.5,0,0.8,0.1,1.1,0.2l-0.4,1.8c-0.3-0.1-0.6-0.2-1-0.2
					c-0.8,0-1.8,0.6-2.4,2.1V21h-2.1V11.1z"/>
				<path d="M373.7,16.1c0-3.2,2.2-5.2,4.5-5.2c2.6,0,4,1.9,4,4.7c0,0.4,0,0.8-0.1,1h-6.4c0.2,1.9,1.4,3,3.1,3
					c0.9,0,1.6-0.3,2.4-0.7l0.7,1.3c-0.9,0.6-2.1,1-3.3,1C375.8,21.2,373.7,19.3,373.7,16.1z M380.5,15.2c0-1.7-0.8-2.7-2.2-2.7
					c-1.2,0-2.3,1-2.5,2.7H380.5z"/>
				<path d="M383.5,19.9l1-1.3c0.9,0.7,1.7,1.1,2.8,1.1c1.2,0,1.7-0.6,1.7-1.3c0-0.9-1.1-1.3-2.2-1.7c-1.3-0.5-2.8-1.2-2.8-2.9
					c0-1.7,1.3-2.9,3.5-2.9c1.3,0,2.4,0.5,3.2,1.2l-1,1.3c-0.7-0.5-1.4-0.9-2.2-0.9c-1.1,0-1.6,0.5-1.6,1.2c0,0.8,1,1.2,2.1,1.6
					c1.4,0.5,2.9,1.1,2.9,3c0,1.7-1.3,3-3.8,3C385.9,21.2,384.5,20.7,383.5,19.9z"/>
				<path d="M392.2,19.9l1-1.3c0.9,0.7,1.7,1.1,2.8,1.1c1.2,0,1.7-0.6,1.7-1.3c0-0.9-1.1-1.3-2.2-1.7c-1.3-0.5-2.8-1.2-2.8-2.9
					c0-1.7,1.3-2.9,3.5-2.9c1.3,0,2.4,0.5,3.2,1.2l-1,1.3c-0.7-0.5-1.4-0.9-2.2-0.9c-1.1,0-1.6,0.5-1.6,1.2c0,0.8,1,1.2,2.1,1.6
					c1.4,0.5,2.9,1.1,2.9,3c0,1.7-1.3,3-3.8,3C394.5,21.2,393.1,20.7,392.2,19.9z"/>
				<path d="M401.6,8c0-0.7,0.6-1.2,1.3-1.2c0.8,0,1.3,0.5,1.3,1.2c0,0.7-0.6,1.2-1.3,1.2C402.1,9.2,401.6,8.7,401.6,8z M401.9,11.1
					h2.1V21h-2.1V11.1z"/>
				<path d="M406.3,16.1c0-3.3,2.2-5.2,4.7-5.2c2.4,0,4.7,1.9,4.7,5.2c0,3.3-2.2,5.2-4.7,5.2C408.5,21.2,406.3,19.3,406.3,16.1z
					 M413.5,16.1c0-2.1-1-3.5-2.5-3.5c-1.5,0-2.5,1.4-2.5,3.5c0,2.1,1,3.5,2.5,3.5C412.5,19.5,413.5,18.2,413.5,16.1z"/>
				<path d="M418.1,11.1h1.7l0.2,1.4h0.1c0.9-0.9,1.9-1.6,3.3-1.6c2.1,0,3,1.4,3,3.9V21h-2.1v-6c0-1.7-0.5-2.4-1.7-2.4
					c-0.9,0-1.5,0.5-2.4,1.3v7h-2.1V11.1z"/>
				<path d="M432.6,16.1c0-3.3,2.2-5.2,4.7-5.2c2.4,0,4.7,1.9,4.7,5.2c0,3.3-2.2,5.2-4.7,5.2C434.9,21.2,432.6,19.3,432.6,16.1z
					 M439.9,16.1c0-2.1-1-3.5-2.5-3.5c-1.5,0-2.5,1.4-2.5,3.5c0,2.1,1,3.5,2.5,3.5C438.9,19.5,439.9,18.2,439.9,16.1z"/>
				<path d="M449.2,8.3c-0.4-0.2-0.7-0.3-1.1-0.3c-0.9,0-1.3,0.6-1.3,1.8v1.3h2v1.7h-2V21h-2.1v-8.2h-1.4v-1.5l1.4-0.1V9.9
					c0-2,0.9-3.4,3.1-3.4c0.7,0,1.3,0.1,1.7,0.3L449.2,8.3z"/>
				<path d="M454.5,17.3v-6.2h2.1v6c0,1.7,0.5,2.4,1.7,2.4c0.9,0,1.5-0.4,2.4-1.5v-6.9h2.1V21H461l-0.2-1.5h-0.1
					c-0.9,1-1.9,1.7-3.2,1.7C455.4,21.2,454.5,19.8,454.5,17.3z"/>
				<path d="M465.8,18.7v-12h2.1v12.1c0,0.6,0.3,0.8,0.5,0.8c0.1,0,0.2,0,0.3,0l0.3,1.6c-0.3,0.1-0.6,0.2-1.1,0.2
					C466.3,21.2,465.8,20.3,465.8,18.7z"/>
				<path d="M470.4,16.1c0-3.3,2.3-5.2,4.9-5.2c1.3,0,2.2,0.5,2.9,1.1l-1,1.4c-0.5-0.5-1.1-0.8-1.8-0.8c-1.7,0-2.8,1.4-2.8,3.5
					c0,2.1,1.1,3.5,2.8,3.5c0.8,0,1.6-0.4,2.2-0.9l0.8,1.4c-0.9,0.8-2.1,1.2-3.2,1.2C472.5,21.2,470.4,19.3,470.4,16.1z"/>
				<path d="M479.3,16.1c0-3.2,2.2-5.2,4.5-5.2c2.6,0,4,1.9,4,4.7c0,0.4,0,0.8-0.1,1h-6.4c0.2,1.9,1.4,3,3.1,3
					c0.9,0,1.6-0.3,2.4-0.7l0.7,1.3c-0.9,0.6-2.1,1-3.3,1C481.4,21.2,479.3,19.3,479.3,16.1z M486,15.2c0-1.7-0.8-2.7-2.2-2.7
					c-1.2,0-2.3,1-2.5,2.7H486z"/>
				<path d="M490.1,11.1h1.7l0.2,1.8h0.1c0.7-1.3,1.7-2,2.8-2c0.5,0,0.8,0.1,1.1,0.2l-0.4,1.8c-0.3-0.1-0.6-0.2-1-0.2
					c-0.8,0-1.8,0.6-2.4,2.1V21h-2.1V11.1z"/>
				<path d="M496.3,19.9l1-1.3c0.9,0.7,1.7,1.1,2.8,1.1c1.2,0,1.7-0.6,1.7-1.3c0-0.9-1.1-1.3-2.2-1.7c-1.3-0.5-2.8-1.2-2.8-2.9
					c0-1.7,1.3-2.9,3.5-2.9c1.3,0,2.4,0.5,3.2,1.2l-1,1.3c-0.7-0.5-1.4-0.9-2.2-0.9c-1.1,0-1.6,0.5-1.6,1.2c0,0.8,1,1.2,2.1,1.6
					c1.4,0.5,2.9,1.1,2.9,3c0,1.7-1.3,3-3.8,3C498.7,21.2,497.3,20.7,496.3,19.9z"/>
				<path d="M512,20L512,20l-0.3,1h-1.6V6.6h2.1v3.8l-0.1,1.7c0.8-0.7,1.9-1.3,3-1.3c2.5,0,3.9,2,3.9,5c0,3.4-2,5.3-4.3,5.3
					C513.8,21.2,512.8,20.8,512,20z M516.8,15.9c0-2.1-0.7-3.3-2.3-3.3c-0.8,0-1.5,0.4-2.4,1.2v4.8c0.8,0.7,1.5,0.9,2.2,0.9
					C515.7,19.5,516.8,18.2,516.8,15.9z"/>
				<path d="M525.7,21.6c-0.8,2.1-1.8,3.5-3.9,3.5c-0.5,0-0.9-0.1-1.2-0.2l0.4-1.6c0.2,0.1,0.5,0.1,0.7,0.1c1.1,0,1.7-0.8,2.1-1.9
					l0.2-0.7l-3.9-9.8h2.1l1.8,5.1c0.3,0.9,0.6,1.9,0.9,2.8h0.1l0.8-2.8l1.6-5.1h2L525.7,21.6z"/>
				<path d="M535.5,17.8v-5H534v-1.5l1.5-0.1l0.2-2.7h1.7v2.7h2.6v1.7h-2.6v5c0,1.2,0.4,1.8,1.4,1.8c0.3,0,0.8-0.1,1.1-0.2l0.4,1.5
					c-0.6,0.2-1.2,0.4-1.9,0.4C536.2,21.2,535.5,19.8,535.5,17.8z"/>
				<path d="M542.3,11.1h1.7l0.2,1.8h0.1c0.7-1.3,1.7-2,2.8-2c0.5,0,0.8,0.1,1.1,0.2l-0.4,1.8c-0.3-0.1-0.6-0.2-1-0.2
					c-0.8,0-1.8,0.6-2.4,2.1V21h-2.1V11.1z"/>
				<path d="M548.7,16.1c0-3.2,2.2-5.2,4.5-5.2c2.6,0,4,1.9,4,4.7c0,0.4,0,0.8-0.1,1h-6.4c0.2,1.9,1.4,3,3.1,3
					c0.9,0,1.6-0.3,2.4-0.7l0.7,1.3c-0.9,0.6-2.1,1-3.3,1C550.9,21.2,548.7,19.3,548.7,16.1z M555.5,15.2c0-1.7-0.8-2.7-2.2-2.7
					c-1.2,0-2.3,1-2.5,2.7H555.5z"/>
				<path d="M558.8,18.4c0-2.1,1.8-3.2,5.9-3.7c0-1.2-0.4-2.2-1.9-2.2c-1,0-2,0.5-2.9,1l-0.8-1.4c1-0.6,2.4-1.3,4-1.3
					c2.5,0,3.6,1.6,3.6,4.2v6h-1.7l-0.2-1.1h-0.1c-0.9,0.8-2,1.4-3.2,1.4C560,21.2,558.8,20.1,558.8,18.4z M564.7,18.4V16
					c-2.9,0.4-3.9,1.1-3.9,2.2c0,1,0.7,1.4,1.5,1.4C563.2,19.6,563.9,19.2,564.7,18.4z"/>
				<path d="M569.7,17.8v-5h-1.4v-1.5l1.5-0.1l0.2-2.7h1.7v2.7h2.6v1.7h-2.6v5c0,1.2,0.4,1.8,1.4,1.8c0.3,0,0.8-0.1,1.1-0.2l0.4,1.5
					c-0.6,0.2-1.2,0.4-1.9,0.4C570.5,21.2,569.7,19.8,569.7,17.8z"/>
				<path d="M576.5,11.1h1.7l0.2,1.4h0.1c0.8-0.9,1.8-1.6,3.1-1.6c1.5,0,2.3,0.7,2.7,1.8c1-1,2-1.8,3.2-1.8c2.1,0,3,1.4,3,3.9V21
					h-2.1v-6c0-1.7-0.5-2.4-1.7-2.4c-0.7,0-1.4,0.5-2.2,1.3v7h-2.1v-6c0-1.7-0.5-2.4-1.7-2.4c-0.7,0-1.4,0.5-2.2,1.3v7h-2.1V11.1z"
					/>
				<path d="M592.8,16.1c0-3.2,2.2-5.2,4.5-5.2c2.6,0,4,1.9,4,4.7c0,0.4,0,0.8-0.1,1h-6.4c0.2,1.9,1.4,3,3.1,3
					c0.9,0,1.6-0.3,2.4-0.7l0.7,1.3c-0.9,0.6-2.1,1-3.3,1C594.9,21.2,592.8,19.3,592.8,16.1z M599.5,15.2c0-1.7-0.8-2.7-2.2-2.7
					c-1.2,0-2.3,1-2.5,2.7H599.5z"/>
				<path d="M603.6,11.1h1.7l0.2,1.4h0.1c0.9-0.9,1.9-1.6,3.3-1.6c2.1,0,3,1.4,3,3.9V21h-2.1v-6c0-1.7-0.5-2.4-1.7-2.4
					c-0.9,0-1.5,0.5-2.4,1.3v7h-2.1V11.1z"/>
				<path d="M615.2,17.8v-5h-1.4v-1.5l1.5-0.1l0.2-2.7h1.7v2.7h2.6v1.7h-2.6v5c0,1.2,0.4,1.8,1.4,1.8c0.3,0,0.8-0.1,1.1-0.2l0.4,1.5
					c-0.6,0.2-1.2,0.4-1.9,0.4C616,21.2,615.2,19.8,615.2,17.8z"/>
				<path d="M625.3,22.8c0-0.8,0.5-1.6,1.4-2.2v-0.1c-0.5-0.3-0.9-0.8-0.9-1.6c0-0.8,0.6-1.4,1.1-1.8V17c-0.7-0.5-1.3-1.5-1.3-2.6
					c0-2.3,1.8-3.6,3.8-3.6c0.6,0,1.1,0.1,1.4,0.3h3.5v1.5h-1.9c0.4,0.4,0.6,1.1,0.6,1.8c0,2.2-1.6,3.4-3.7,3.4
					c-0.5,0-1-0.1-1.4-0.3c-0.3,0.3-0.5,0.6-0.5,1c0,0.6,0.4,1,1.7,1h1.8c2.3,0,3.6,0.7,3.6,2.4c0,1.9-2,3.5-5.2,3.5
					C627,25.4,625.3,24.6,625.3,22.8z M632.6,22.3c0-0.8-0.6-1.1-1.9-1.1h-1.5c-0.5,0-0.9-0.1-1.3-0.1c-0.6,0.4-0.8,0.9-0.8,1.4
					c0,1,1,1.5,2.6,1.5C631.5,24.1,632.6,23.2,632.6,22.3z M631.4,14.4c0-1.3-0.8-2.1-1.9-2.1c-1,0-1.9,0.8-1.9,2.1
					c0,1.3,0.8,2.1,1.9,2.1S631.4,15.7,631.4,14.4z"/>
				<path d="M636.4,11.1h1.7l0.2,1.8h0.1c0.7-1.3,1.7-2,2.8-2c0.5,0,0.8,0.1,1.1,0.2l-0.4,1.8c-0.3-0.1-0.6-0.2-1-0.2
					c-0.8,0-1.8,0.6-2.4,2.1V21h-2.1V11.1z"/>
				<path d="M642.9,16.1c0-3.3,2.2-5.2,4.7-5.2c2.4,0,4.7,1.9,4.7,5.2c0,3.3-2.2,5.2-4.7,5.2C645.1,21.2,642.9,19.3,642.9,16.1z
					 M650.1,16.1c0-2.1-1-3.5-2.5-3.5c-1.5,0-2.5,1.4-2.5,3.5c0,2.1,1,3.5,2.5,3.5C649.1,19.5,650.1,18.2,650.1,16.1z"/>
				<path d="M654.5,17.3v-6.2h2.1v6c0,1.7,0.5,2.4,1.7,2.4c0.9,0,1.5-0.4,2.4-1.5v-6.9h2.1V21H661l-0.2-1.5h-0.1
					c-0.9,1-1.9,1.7-3.2,1.7C655.5,21.2,654.5,19.8,654.5,17.3z"/>
				<path d="M665.8,11.1h1.7l0.2,1.1h0.1c0.9-0.7,1.9-1.3,3-1.3c2.5,0,3.9,2,3.9,5c0,3.4-2,5.3-4.3,5.3c-0.9,0-1.8-0.4-2.6-1.1
					l0.1,1.7V25h-2.1V11.1z M672.6,15.9c0-2.1-0.7-3.3-2.3-3.3c-0.8,0-1.5,0.4-2.4,1.2v4.8c0.8,0.7,1.5,0.9,2.2,0.9
					C671.5,19.5,672.6,18.2,672.6,15.9z"/>
			</g>
			<g id="cell1" transform="translate(0.000000, 117.000000)">
				<g class="st1">
					<path d="M66.1,7.7h4.4c3,0,5.2,1,5.2,4.2c0,3-2.3,4.4-5.1,4.4h-1.8V21h-2.7V7.7z M70.4,14.2c1.8,0,2.7-0.8,2.7-2.3
						c0-1.5-1-2.1-2.8-2.1h-1.5v4.4H70.4z"/>
					<path d="M77.9,18.2V6.6h2.6v11.7c0,0.6,0.3,0.8,0.5,0.8c0.1,0,0.2,0,0.4,0l0.3,2c-0.3,0.1-0.8,0.2-1.4,0.2
						C78.6,21.3,77.9,20,77.9,18.2z"/>
					<path d="M83.1,18.3c0-2.2,1.7-3.3,5.8-3.7c0-1-0.5-1.7-1.7-1.7c-0.9,0-1.8,0.4-2.8,1l-1-1.7c1.2-0.7,2.6-1.3,4.2-1.3
						c2.6,0,3.9,1.5,3.9,4.4V21h-2.2l-0.2-1.1h-0.1c-0.9,0.8-1.9,1.3-3,1.3C84.3,21.3,83.1,20,83.1,18.3z M88.9,18.2v-2
						c-2.4,0.3-3.3,1-3.3,1.9c0,0.8,0.6,1.1,1.3,1.1C87.7,19.2,88.3,18.8,88.9,18.2z"/>
					<path d="M93.6,16c0-3.4,2.4-5.3,5.1-5.3c1.2,0,2.2,0.5,2.9,1.1l-1.3,1.7c-0.5-0.4-1-0.7-1.5-0.7c-1.5,0-2.6,1.2-2.6,3.2
						c0,1.9,1,3.1,2.5,3.1c0.7,0,1.4-0.3,2-0.8l1,1.7c-1,0.8-2.2,1.2-3.3,1.2C95.7,21.3,93.6,19.3,93.6,16z"/>
					<path d="M102.5,16c0-3.3,2.3-5.3,4.7-5.3c2.8,0,4.2,2,4.2,4.8c0,0.5-0.1,1-0.1,1.2h-6.2c0.2,1.7,1.3,2.5,2.8,2.5
						c0.8,0,1.5-0.3,2.3-0.7l0.9,1.6c-1,0.7-2.3,1.1-3.5,1.1C104.7,21.3,102.5,19.3,102.5,16z M109.2,15c0-1.4-0.6-2.2-1.9-2.2
						c-1.1,0-2,0.8-2.2,2.2H109.2z"/>
					<path d="M116,19.9L116,19.9l-0.3,1.1h-2.1V6.6h2.6v3.6l-0.1,1.6c0.8-0.7,1.8-1.2,2.8-1.2c2.5,0,4,2,4,5.1
						c0,3.5-2.1,5.5-4.3,5.5C117.8,21.3,116.8,20.8,116,19.9z M120.3,15.8c0-1.9-0.6-3-2-3c-0.7,0-1.3,0.3-2,1v4.4
						c0.6,0.6,1.3,0.8,1.8,0.8C119.3,19.1,120.3,18,120.3,15.8z"/>
					<path d="M124.6,16c0-3.4,2.3-5.3,4.8-5.3c2.5,0,4.8,1.9,4.8,5.3c0,3.3-2.3,5.3-4.8,5.3C126.9,21.3,124.6,19.3,124.6,16z
						 M131.6,16c0-1.9-0.8-3.2-2.1-3.2c-1.4,0-2.1,1.2-2.1,3.2c0,1.9,0.8,3.1,2.1,3.1C130.8,19.1,131.6,17.9,131.6,16z"/>
					<path d="M140.7,15.3c0-3.6,1-6.5,2.7-9.3l1.7,0.7c-1.5,2.6-2.2,5.7-2.2,8.6c0,3,0.7,6,2.2,8.6l-1.7,0.7
						C141.7,21.8,140.7,18.9,140.7,15.3z"/>
					<path d="M147.4,10.9h2.2l0.2,1.3h0.1c0.9-0.9,1.9-1.6,3.3-1.6c2.2,0,3.1,1.5,3.1,4.1V21h-2.6v-6c0-1.5-0.4-2.1-1.4-2.1
						c-0.8,0-1.4,0.4-2.1,1.1V21h-2.6V10.9z"/>
					<path d="M158.2,11h9.2v1.9h-9.2V11z M158.2,15.7h9.2v1.9h-9.2V15.7z"/>
					<path d="M170.4,18.2c0.5,0.5,1.3,0.9,2.1,0.9c1.5,0,2.7-1.1,2.8-4.5c-0.7,0.9-1.8,1.5-2.7,1.5c-2.2,0-3.8-1.4-3.8-4.2
						c0-2.7,1.9-4.4,4.2-4.4c2.5,0,4.8,2,4.8,6.6c0,5-2.5,7.2-5.1,7.2c-1.7,0-2.9-0.7-3.7-1.5L170.4,18.2z M175.3,12.8
						c-0.2-2.4-1.2-3.3-2.3-3.3c-1,0-1.8,0.8-1.8,2.4c0,1.6,0.7,2.3,1.9,2.3C173.9,14.2,174.7,13.8,175.3,12.8z"/>
					<path d="M179.6,23.9c1.5-2.6,2.2-5.7,2.2-8.6c0-2.9-0.7-6-2.2-8.6l1.6-0.7c1.7,2.8,2.7,5.7,2.7,9.3c0,3.6-1,6.5-2.7,9.3
						L179.6,23.9z"/>
				</g>
				<g class="st1">
					<path d="M401,19.3h2.9v-9.2h-2.4V8.8c1.2-0.2,2.1-0.5,2.9-1h1.6v11.5h2.6V21H401V19.3z"/>
					<path d="M411.3,19.3h2.9v-9.2h-2.4V8.8c1.2-0.2,2.1-0.5,2.9-1h1.6v11.5h2.6V21h-7.6V19.3z"/>
					<path d="M420.7,11.7c0-2.7,1.2-4.2,3.1-4.2s3.1,1.5,3.1,4.2c0,2.7-1.3,4.2-3.1,4.2S420.7,14.3,420.7,11.7z M425.4,11.7
						c0-2.1-0.7-3-1.6-3c-0.9,0-1.6,0.9-1.6,3c0,2,0.7,3,1.6,3C424.7,14.7,425.4,13.7,425.4,11.7z M431.4,7.5h1.3l-7.3,13.7h-1.3
						L431.4,7.5z M430.1,17c0-2.7,1.3-4.2,3.1-4.2c1.8,0,3.1,1.5,3.1,4.2c0,2.7-1.3,4.2-3.1,4.2C431.3,21.2,430.1,19.7,430.1,17z
						 M434.8,17c0-2.1-0.7-3-1.6-3c-0.9,0-1.6,0.9-1.6,3c0,2,0.7,3,1.6,3C434.1,20,434.8,19.1,434.8,17z"/>
					<path d="M442.6,15.4c0-3.5,1-6.5,2.7-9.2l1.3,0.6c-1.5,2.6-2.3,5.6-2.3,8.6c0,3,0.7,6.1,2.3,8.6l-1.3,0.6
						C443.6,21.8,442.6,18.9,442.6,15.4z"/>
					<path d="M448.9,11.1h1.7l0.2,1.4h0.1c0.9-0.9,1.9-1.6,3.3-1.6c2.1,0,3,1.4,3,3.9V21h-2.1v-6c0-1.7-0.5-2.4-1.7-2.4
						c-0.9,0-1.5,0.5-2.4,1.3v7h-2.1V11.1z"/>
					<path d="M459.3,11.3h8.9v1.5h-8.9V11.3z M459.3,15.8h8.9v1.5h-8.9V15.8z"/>
					<path d="M470.4,19.3h2.9v-9.2h-2.4V8.8c1.2-0.2,2.1-0.5,2.9-1h1.6v11.5h2.6V21h-7.6V19.3z"/>
					<path d="M479.9,24c1.5-2.6,2.3-5.6,2.3-8.6c0-3-0.7-6-2.3-8.6l1.3-0.6c1.7,2.7,2.7,5.7,2.7,9.2c0,3.6-1,6.5-2.7,9.2L479.9,24z"
						/>
				</g>
				<g class="st1">
					<path d="M776,19.3h2.9v-9.2h-2.4V8.8c1.2-0.2,2.1-0.5,2.9-1h1.6v11.5h2.6V21H776V19.3z"/>
					<path d="M786.3,19.3h2.9v-9.2h-2.4V8.8c1.2-0.2,2.1-0.5,2.9-1h1.6v11.5h2.6V21h-7.6V19.3z"/>
					<path d="M795.7,11.7c0-2.7,1.2-4.2,3.1-4.2s3.1,1.5,3.1,4.2c0,2.7-1.3,4.2-3.1,4.2S795.7,14.3,795.7,11.7z M800.4,11.7
						c0-2.1-0.7-3-1.6-3c-0.9,0-1.6,0.9-1.6,3c0,2,0.7,3,1.6,3C799.7,14.7,800.4,13.7,800.4,11.7z M806.4,7.5h1.3l-7.3,13.7h-1.3
						L806.4,7.5z M805.1,17c0-2.7,1.3-4.2,3.1-4.2c1.8,0,3.1,1.5,3.1,4.2c0,2.7-1.3,4.2-3.1,4.2C806.3,21.2,805.1,19.7,805.1,17z
						 M809.8,17c0-2.1-0.7-3-1.6-3c-0.9,0-1.6,0.9-1.6,3c0,2,0.7,3,1.6,3C809.1,20,809.8,19.1,809.8,17z"/>
					<path d="M817.6,15.4c0-3.5,1-6.5,2.7-9.2l1.3,0.6c-1.5,2.6-2.3,5.6-2.3,8.6c0,3,0.7,6.1,2.3,8.6l-1.3,0.6
						C818.6,21.8,817.6,18.9,817.6,15.4z"/>
					<path d="M823.9,11.1h1.7l0.2,1.4h0.1c0.9-0.9,1.9-1.6,3.3-1.6c2.1,0,3,1.4,3,3.9V21h-2.1v-6c0-1.7-0.5-2.4-1.7-2.4
						c-0.9,0-1.5,0.5-2.4,1.3v7h-2.1V11.1z"/>
					<path d="M834.3,11.3h8.9v1.5h-8.9V11.3z M834.3,15.8h8.9v1.5h-8.9V15.8z"/>
					<path d="M845.4,19.3h2.9v-9.2h-2.4V8.8c1.2-0.2,2.1-0.5,2.9-1h1.6v11.5h2.6V21h-7.6V19.3z"/>
					<path d="M854.9,24c1.5-2.6,2.3-5.6,2.3-8.6c0-3-0.7-6-2.3-8.6l1.3-0.6c1.7,2.7,2.7,5.7,2.7,9.2c0,3.6-1,6.5-2.7,9.2L854.9,24z"
						/>
				</g>
				<path id="divider" class="st3" d="M0,47h1000"/>
			</g>
			<g id="cell2" transform="translate(0.000000, 185.000000)">
				<g class="st1">
					<path d="M27.1,7.7h2.7v11.1h5.4V21h-8.1V7.7z"/>
					<path d="M36.3,16c0-3.4,2.3-5.3,4.8-5.3c2.5,0,4.8,1.9,4.8,5.3c0,3.3-2.3,5.3-4.8,5.3C38.7,21.3,36.3,19.3,36.3,16z M43.3,16
						c0-1.9-0.8-3.2-2.1-3.2c-1.4,0-2.1,1.2-2.1,3.2c0,1.9,0.8,3.1,2.1,3.1C42.5,19.1,43.3,17.9,43.3,16z"/>
					<path d="M47.1,10.9h2.6l1.1,5c0.2,1,0.3,1.9,0.5,2.9h0.1c0.2-1,0.4-2,0.6-2.9l1.2-5h2.4l1.3,5c0.2,1,0.4,1.9,0.6,2.9h0.1
						c0.2-1,0.3-2,0.5-2.9l1.1-5h2.4L59.2,21h-3.1L55,16.6c-0.2-1-0.4-1.9-0.6-2.9h-0.1c-0.2,1.1-0.3,2-0.6,2.9l-1,4.4h-3L47.1,10.9
						z"/>
					<path d="M67.9,7.7h3.7c4.1,0,6.6,2.1,6.6,6.6c0,4.5-2.5,6.7-6.4,6.7h-3.8V7.7z M71.4,18.9c2.5,0,4-1.3,4-4.6
						c0-3.3-1.5-4.5-4-4.5h-0.8v9.1H71.4z"/>
					<path d="M79.9,16c0-3.4,2.3-5.3,4.8-5.3c2.5,0,4.8,1.9,4.8,5.3c0,3.3-2.3,5.3-4.8,5.3C82.2,21.3,79.9,19.3,79.9,16z M86.9,16
						c0-1.9-0.8-3.2-2.1-3.2c-1.4,0-2.1,1.2-2.1,3.2c0,1.9,0.8,3.1,2.1,3.1C86.1,19.1,86.9,17.9,86.9,16z"/>
					<path d="M90.8,19.8l1.2-1.7c0.9,0.7,1.8,1.1,2.7,1.1c1,0,1.5-0.4,1.5-1.1c0-0.8-1-1.1-2.1-1.5c-1.3-0.5-2.8-1.3-2.8-2.9
						c0-1.8,1.5-3.1,3.7-3.1c1.5,0,2.6,0.6,3.4,1.2l-1.2,1.6c-0.7-0.5-1.4-0.9-2.2-0.9c-0.9,0-1.3,0.4-1.3,1c0,0.7,1,1,2.1,1.4
						c1.3,0.5,2.8,1.2,2.8,3c0,1.8-1.4,3.2-4,3.2C93.3,21.3,91.8,20.7,90.8,19.8z"/>
					<path d="M100,16c0-3.3,2.3-5.3,4.7-5.3c2.8,0,4.2,2,4.2,4.8c0,0.5-0.1,1-0.1,1.2h-6.2c0.2,1.7,1.3,2.5,2.8,2.5
						c0.8,0,1.5-0.3,2.3-0.7l0.9,1.6c-1,0.7-2.3,1.1-3.5,1.1C102.2,21.3,100,19.3,100,16z M106.7,15c0-1.4-0.6-2.2-1.9-2.2
						c-1.1,0-2,0.8-2.2,2.2H106.7z"/>
					<path d="M115.3,15.3c0-3.6,1-6.5,2.7-9.3l1.7,0.7c-1.5,2.6-2.2,5.7-2.2,8.6c0,3,0.7,6,2.2,8.6l-1.7,0.7
						C116.3,21.8,115.3,18.9,115.3,15.3z"/>
					<path d="M121.4,17.7c0-1.7,1-2.8,2.3-3.5v-0.1c-1-0.7-1.8-1.7-1.8-3.2c0-2.1,1.7-3.5,4-3.5c2.4,0,3.9,1.4,3.9,3.5
						c0,1.3-0.8,2.4-1.7,3v0.1c1.2,0.7,2.2,1.7,2.2,3.6c0,2-1.8,3.6-4.5,3.6C123.3,21.3,121.4,19.8,121.4,17.7z M127.9,17.6
						c0-1.4-1.2-2-3-2.7c-0.7,0.6-1.2,1.5-1.2,2.5c0,1.2,1,2,2.2,2C127.1,19.4,127.9,18.7,127.9,17.6z M127.7,11.2
						c0-1.1-0.6-1.9-1.8-1.9c-0.9,0-1.6,0.6-1.6,1.7c0,1.3,1,1.9,2.4,2.4C127.4,12.7,127.7,11.9,127.7,11.2z"/>
					<path d="M132.6,10.9h2.2l0.2,1.4h0.1c0.8-0.9,1.8-1.6,3.1-1.6c1.4,0,2.3,0.6,2.8,1.8c0.9-1,1.9-1.8,3.2-1.8
						c2.1,0,3.1,1.5,3.1,4.1V21h-2.6v-6c0-1.5-0.5-2.1-1.4-2.1c-0.6,0-1.2,0.4-1.9,1.1V21h-2.6v-6c0-1.5-0.5-2.1-1.4-2.1
						c-0.6,0-1.2,0.4-1.9,1.1V21h-2.6V10.9z"/>
					<path d="M149.3,22.8c0-0.8,0.5-1.6,1.4-2.1v-0.1c-0.5-0.3-0.9-0.9-0.9-1.7c0-0.8,0.5-1.5,1.1-1.9v-0.1
						c-0.7-0.5-1.3-1.5-1.3-2.6c0-2.4,1.9-3.7,4.1-3.7c0.6,0,1.1,0.1,1.5,0.3h3.6v1.9h-1.7c0.3,0.3,0.5,0.9,0.5,1.5
						c0,2.3-1.7,3.4-3.9,3.4c-0.4,0-0.9-0.1-1.3-0.2c-0.3,0.2-0.4,0.5-0.4,0.9c0,0.5,0.4,0.8,1.6,0.8h1.7c2.4,0,3.7,0.8,3.7,2.5
						c0,2-2.1,3.6-5.5,3.6C151.1,25.4,149.3,24.6,149.3,22.8z M156.4,22.2c0-0.7-0.6-0.9-1.7-0.9h-1.2c-0.6,0-1-0.1-1.4-0.1
						c-0.5,0.4-0.7,0.8-0.7,1.2c0,0.8,0.9,1.3,2.4,1.3C155.4,23.7,156.4,23,156.4,22.2z M155.2,14.3c0-1.2-0.7-1.9-1.6-1.9
						c-0.9,0-1.6,0.7-1.6,1.9s0.7,1.9,1.6,1.9S155.2,15.5,155.2,14.3z"/>
					<path d="M168.1,6.5h1.8l-4.5,17.8h-1.8L168.1,6.5z"/>
					<path d="M175.8,10.9h2.2l0.2,1.3h0.1c0.9-0.9,1.9-1.6,3.3-1.6c2.2,0,3.1,1.5,3.1,4.1V21H182v-6c0-1.5-0.4-2.1-1.4-2.1
						c-0.8,0-1.4,0.4-2.1,1.1V21h-2.6V10.9z"/>
					<path d="M186.6,11h9.2v1.9h-9.2V11z M186.6,15.7h9.2v1.9h-9.2V15.7z"/>
					<path d="M197.3,19.5c3.6-3.2,5.8-5.7,5.8-7.8c0-1.3-0.7-2.2-2-2.2c-1,0-1.8,0.6-2.4,1.4l-1.4-1.4c1.2-1.3,2.4-2,4.2-2
						c2.5,0,4.2,1.6,4.2,4.1c0,2.4-2,5-4.4,7.4c0.7-0.1,1.5-0.1,2.2-0.1h2.9V21h-8.9V19.5z"/>
					<path d="M208,17.7c0-1.7,1-2.8,2.3-3.5v-0.1c-1-0.7-1.8-1.7-1.8-3.2c0-2.1,1.7-3.5,4-3.5c2.4,0,3.9,1.4,3.9,3.5
						c0,1.3-0.8,2.4-1.7,3v0.1c1.2,0.7,2.2,1.7,2.2,3.6c0,2-1.8,3.6-4.5,3.6C209.9,21.3,208,19.8,208,17.7z M214.5,17.6
						c0-1.4-1.2-2-3-2.7c-0.7,0.6-1.2,1.5-1.2,2.5c0,1.2,1,2,2.2,2C213.6,19.4,214.5,18.7,214.5,17.6z M214.3,11.2
						c0-1.1-0.6-1.9-1.8-1.9c-0.9,0-1.6,0.6-1.6,1.7c0,1.3,1,1.9,2.4,2.4C214,12.7,214.3,11.9,214.3,11.2z"/>
					<path d="M218.7,23.9c1.5-2.6,2.2-5.7,2.2-8.6c0-2.9-0.7-6-2.2-8.6l1.6-0.7c1.7,2.8,2.7,5.7,2.7,9.3c0,3.6-1,6.5-2.7,9.3
						L218.7,23.9z"/>
				</g>
				<g class="st1">
					<path d="M394.9,19.5l1-1.4c0.8,0.8,1.7,1.4,3.1,1.4c1.5,0,2.6-1.1,2.6-2.8s-1-2.8-2.5-2.8c-0.8,0-1.4,0.3-2.1,0.8l-1-0.7
						l0.4-6.3h6.7v1.7h-4.9l-0.3,3.4c0.6-0.3,1.1-0.5,1.8-0.5c2.2,0,4,1.3,4,4.2c0,2.9-2.1,4.6-4.5,4.6
						C397.1,21.2,395.8,20.4,394.9,19.5z"/>
					<path d="M405.4,19.8c3.9-3.5,5.9-6,5.9-8.2c0-1.4-0.8-2.4-2.3-2.4c-1,0-1.9,0.7-2.6,1.5l-1.2-1.2c1.1-1.2,2.3-2,4-2
						c2.4,0,4,1.6,4,4c0,2.6-2,5.2-4.8,7.9c0.7-0.1,1.5-0.1,2.2-0.1h3.3V21h-8.6V19.8z"/>
					<path d="M415.5,11.7c0-2.7,1.2-4.2,3.1-4.2s3.1,1.5,3.1,4.2c0,2.7-1.3,4.2-3.1,4.2S415.5,14.3,415.5,11.7z M420.2,11.7
						c0-2.1-0.7-3-1.6-3c-0.9,0-1.6,0.9-1.6,3c0,2,0.7,3,1.6,3C419.6,14.7,420.2,13.7,420.2,11.7z M426.3,7.5h1.3l-7.3,13.7H419
						L426.3,7.5z M424.9,17c0-2.7,1.3-4.2,3.1-4.2c1.8,0,3.1,1.5,3.1,4.2c0,2.7-1.3,4.2-3.1,4.2C426.2,21.2,424.9,19.7,424.9,17z
						 M429.6,17c0-2.1-0.7-3-1.6-3c-0.9,0-1.6,0.9-1.6,3c0,2,0.7,3,1.6,3C429,20,429.6,19.1,429.6,17z"/>
					<path d="M437.4,15.4c0-3.5,1-6.5,2.7-9.2l1.3,0.6c-1.5,2.6-2.3,5.6-2.3,8.6c0,3,0.7,6.1,2.3,8.6l-1.3,0.6
						C438.4,21.8,437.4,18.9,437.4,15.4z"/>
					<path d="M443.8,11.1h1.7l0.2,1.4h0.1c0.9-0.9,1.9-1.6,3.3-1.6c2.1,0,3,1.4,3,3.9V21H450v-6c0-1.7-0.5-2.4-1.7-2.4
						c-0.9,0-1.5,0.5-2.4,1.3v7h-2.1V11.1z"/>
					<path d="M454.1,11.3h8.9v1.5h-8.9V11.3z M454.1,15.8h8.9v1.5h-8.9V15.8z"/>
					<path d="M465.3,19.3h2.9v-9.2h-2.4V8.8c1.2-0.2,2.1-0.5,2.9-1h1.6v11.5h2.6V21h-7.6V19.3z"/>
					<path d="M483.7,17.4H482V21h-1.9v-3.6h-5.7V16l5.3-8.3h2.4v8.1h1.7V17.4z M480.1,15.8v-3.5c0-0.7,0.1-1.8,0.1-2.6h-0.1
						c-0.3,0.7-0.7,1.4-1.1,2l-2.6,4H480.1z"/>
					<path d="M485.1,24c1.5-2.6,2.3-5.6,2.3-8.6c0-3-0.7-6-2.3-8.6l1.3-0.6c1.7,2.7,2.7,5.7,2.7,9.2c0,3.6-1,6.5-2.7,9.2L485.1,24z"
						/>
				</g>
				<g class="st1">
					<path d="M776.5,9.5h-6.2V7.7h8.5V9c-3.1,3.9-3.6,6.8-3.8,12h-2.1C773.1,16.2,773.9,13.1,776.5,9.5z"/>
					<path d="M780.5,14.3c0-4.6,1.7-6.8,4.3-6.8c2.6,0,4.3,2.3,4.3,6.8c0,4.6-1.7,6.9-4.3,6.9C782.1,21.2,780.5,18.9,780.5,14.3z
						 M787.1,14.3c0-3.8-1-5.2-2.3-5.2c-1.3,0-2.3,1.4-2.3,5.2c0,3.8,1,5.3,2.3,5.3C786.1,19.6,787.1,18.2,787.1,14.3z"/>
					<path d="M790.5,11.7c0-2.7,1.2-4.2,3.1-4.2s3.1,1.5,3.1,4.2c0,2.7-1.3,4.2-3.1,4.2S790.5,14.3,790.5,11.7z M795.2,11.7
						c0-2.1-0.7-3-1.6-3c-0.9,0-1.6,0.9-1.6,3c0,2,0.7,3,1.6,3C794.6,14.7,795.2,13.7,795.2,11.7z M801.3,7.5h1.3l-7.3,13.7H794
						L801.3,7.5z M799.9,17c0-2.7,1.3-4.2,3.1-4.2c1.8,0,3.1,1.5,3.1,4.2c0,2.7-1.3,4.2-3.1,4.2C801.2,21.2,799.9,19.7,799.9,17z
						 M804.6,17c0-2.1-0.7-3-1.6-3c-0.9,0-1.6,0.9-1.6,3c0,2,0.7,3,1.6,3C804,20,804.6,19.1,804.6,17z"/>
					<path d="M812.4,15.4c0-3.5,1-6.5,2.7-9.2l1.3,0.6c-1.5,2.6-2.3,5.6-2.3,8.6c0,3,0.7,6.1,2.3,8.6l-1.3,0.6
						C813.4,21.8,812.4,18.9,812.4,15.4z"/>
					<path d="M818.8,11.1h1.7l0.2,1.4h0.1c0.9-0.9,1.9-1.6,3.3-1.6c2.1,0,3,1.4,3,3.9V21H825v-6c0-1.7-0.5-2.4-1.7-2.4
						c-0.9,0-1.5,0.5-2.4,1.3v7h-2.1V11.1z"/>
					<path d="M829.1,11.3h8.9v1.5h-8.9V11.3z M829.1,15.8h8.9v1.5h-8.9V15.8z"/>
					<path d="M840.3,19.3h2.9v-9.2h-2.4V8.8c1.2-0.2,2.1-0.5,2.9-1h1.6v11.5h2.6V21h-7.6V19.3z"/>
					<path d="M851.1,18.6c0.5,0.6,1.3,1,2.2,1c1.6,0,3-1.3,3.1-5.1c-0.8,1-1.9,1.5-2.9,1.5c-2.2,0-3.7-1.4-3.7-4.2
						c0-2.6,1.8-4.4,3.9-4.4c2.5,0,4.6,2.1,4.6,6.4c0,5.2-2.4,7.3-4.9,7.3c-1.5,0-2.6-0.6-3.4-1.4L851.1,18.6z M856.3,12.9
						c-0.2-2.6-1.2-3.8-2.6-3.8c-1.1,0-2,1-2,2.8c0,1.7,0.8,2.7,2.1,2.7C854.6,14.5,855.6,14,856.3,12.9z"/>
					<path d="M860.1,24c1.5-2.6,2.3-5.6,2.3-8.6c0-3-0.7-6-2.3-8.6l1.3-0.6c1.7,2.7,2.7,5.7,2.7,9.2c0,3.6-1,6.5-2.7,9.2L860.1,24z"
						/>
				</g>
				<path class="st3" d="M0,47h1000"/>
			</g>
			<g id="cell3" transform="translate(0.000000, 253.000000)">
				<g class="st1">
					<path d="M19.5,7.7h2.7v5.2h5V7.7h2.6V21h-2.6v-5.8h-5V21h-2.7V7.7z"/>
					<path d="M32.6,7.9c0-0.9,0.7-1.4,1.6-1.4c0.9,0,1.6,0.6,1.6,1.4c0,0.8-0.7,1.4-1.6,1.4C33.3,9.3,32.6,8.7,32.6,7.9z M32.9,10.9
						h2.6V21h-2.6V10.9z"/>
					<path d="M37.7,22.8c0-0.8,0.5-1.6,1.4-2.1v-0.1c-0.5-0.3-0.9-0.9-0.9-1.7c0-0.8,0.5-1.5,1.1-1.9v-0.1c-0.7-0.5-1.3-1.5-1.3-2.6
						c0-2.4,1.9-3.7,4.1-3.7c0.6,0,1.1,0.1,1.5,0.3h3.6v1.9h-1.7c0.3,0.3,0.5,0.9,0.5,1.5c0,2.3-1.7,3.4-3.9,3.4
						c-0.4,0-0.9-0.1-1.3-0.2c-0.3,0.2-0.4,0.5-0.4,0.9c0,0.5,0.4,0.8,1.6,0.8h1.7c2.4,0,3.7,0.8,3.7,2.5c0,2-2.1,3.6-5.5,3.6
						C39.5,25.4,37.7,24.6,37.7,22.8z M44.8,22.2c0-0.7-0.6-0.9-1.7-0.9h-1.2c-0.6,0-1-0.1-1.4-0.1c-0.5,0.4-0.7,0.8-0.7,1.2
						c0,0.8,0.9,1.3,2.4,1.3C43.8,23.7,44.8,23,44.8,22.2z M43.6,14.3c0-1.2-0.7-1.9-1.6-1.9c-0.9,0-1.6,0.7-1.6,1.9
						s0.7,1.9,1.6,1.9S43.6,15.5,43.6,14.3z"/>
					<path d="M49.1,6.6h2.6v3.6l-0.1,1.9c0.8-0.8,1.8-1.5,3.2-1.5c2.2,0,3.1,1.5,3.1,4.1V21h-2.6v-6c0-1.5-0.4-2.1-1.4-2.1
						c-0.8,0-1.4,0.4-2.1,1.1V21h-2.6V6.6z"/>
					<path d="M64.9,7.7h3.7c4.1,0,6.6,2.1,6.6,6.6c0,4.5-2.5,6.7-6.4,6.7h-3.8V7.7z M68.4,18.9c2.5,0,4-1.3,4-4.6
						c0-3.3-1.5-4.5-4-4.5h-0.8v9.1H68.4z"/>
					<path d="M76.9,16c0-3.4,2.3-5.3,4.8-5.3c2.5,0,4.8,1.9,4.8,5.3c0,3.3-2.3,5.3-4.8,5.3C79.2,21.3,76.9,19.3,76.9,16z M83.9,16
						c0-1.9-0.8-3.2-2.1-3.2c-1.4,0-2.1,1.2-2.1,3.2c0,1.9,0.8,3.1,2.1,3.1C83.1,19.1,83.9,17.9,83.9,16z"/>
					<path d="M87.8,19.8l1.2-1.7c0.9,0.7,1.8,1.1,2.7,1.1c1,0,1.5-0.4,1.5-1.1c0-0.8-1-1.1-2.1-1.5c-1.3-0.5-2.8-1.3-2.8-2.9
						c0-1.8,1.5-3.1,3.7-3.1c1.5,0,2.6,0.6,3.4,1.2l-1.2,1.6c-0.7-0.5-1.4-0.9-2.2-0.9c-0.9,0-1.3,0.4-1.3,1c0,0.7,1,1,2.1,1.4
						c1.3,0.5,2.8,1.2,2.8,3c0,1.8-1.4,3.2-4,3.2C90.3,21.3,88.8,20.7,87.8,19.8z"/>
					<path d="M97,16c0-3.3,2.3-5.3,4.7-5.3c2.8,0,4.2,2,4.2,4.8c0,0.5-0.1,1-0.1,1.2h-6.2c0.2,1.7,1.3,2.5,2.8,2.5
						c0.8,0,1.5-0.3,2.3-0.7l0.9,1.6c-1,0.7-2.3,1.1-3.5,1.1C99.2,21.3,97,19.3,97,16z M103.7,15c0-1.4-0.6-2.2-1.9-2.2
						c-1.1,0-2,0.8-2.2,2.2H103.7z"/>
					<path d="M112.3,15.3c0-3.6,1-6.5,2.7-9.3l1.7,0.7c-1.5,2.6-2.2,5.7-2.2,8.6c0,3,0.7,6,2.2,8.6l-1.7,0.7
						C113.3,21.8,112.3,18.9,112.3,15.3z"/>
					<path d="M119,18.9h2.9v-8.4h-2.4V8.8c1.3-0.3,2.3-0.6,3.1-1.1h2v11.2h2.5V21h-8V18.9z"/>
					<path d="M136.4,10.5c-0.5-0.5-1.3-1-2.1-1c-1.5,0-2.8,1.2-2.9,4.5c0.7-0.9,1.9-1.4,2.7-1.4c2.2,0,3.8,1.3,3.8,4.2
						c0,2.7-1.9,4.4-4.2,4.4c-2.5,0-4.8-2-4.8-6.7c0-5,2.5-7.1,5.1-7.1c1.6,0,2.8,0.7,3.6,1.5L136.4,10.5z M135.6,16.8
						c0-1.6-0.7-2.3-1.9-2.3c-0.7,0-1.5,0.4-2.2,1.4c0.3,2.4,1.2,3.4,2.3,3.4C134.8,19.3,135.6,18.4,135.6,16.8z"/>
					<path d="M140.2,10.9h2.2l0.2,1.4h0.1c0.8-0.9,1.8-1.6,3.1-1.6c1.4,0,2.3,0.6,2.8,1.8c0.9-1,1.9-1.8,3.2-1.8
						c2.1,0,3.1,1.5,3.1,4.1V21h-2.6v-6c0-1.5-0.5-2.1-1.4-2.1c-0.6,0-1.2,0.4-1.9,1.1V21h-2.6v-6c0-1.5-0.5-2.1-1.4-2.1
						c-0.6,0-1.2,0.4-1.9,1.1V21h-2.6V10.9z"/>
					<path d="M156.9,22.8c0-0.8,0.5-1.6,1.4-2.1v-0.1c-0.5-0.3-0.9-0.9-0.9-1.7c0-0.8,0.5-1.5,1.1-1.9v-0.1
						c-0.7-0.5-1.3-1.5-1.3-2.6c0-2.4,1.9-3.7,4.1-3.7c0.6,0,1.1,0.1,1.5,0.3h3.6v1.9h-1.7c0.3,0.3,0.5,0.9,0.5,1.5
						c0,2.3-1.7,3.4-3.9,3.4c-0.4,0-0.9-0.1-1.3-0.2c-0.3,0.2-0.4,0.5-0.4,0.9c0,0.5,0.4,0.8,1.6,0.8h1.7c2.4,0,3.7,0.8,3.7,2.5
						c0,2-2.1,3.6-5.5,3.6C158.7,25.4,156.9,24.6,156.9,22.8z M164,22.2c0-0.7-0.6-0.9-1.7-0.9h-1.2c-0.6,0-1-0.1-1.4-0.1
						c-0.5,0.4-0.7,0.8-0.7,1.2c0,0.8,0.9,1.3,2.4,1.3C163,23.7,164,23,164,22.2z M162.8,14.3c0-1.2-0.7-1.9-1.6-1.9
						c-0.9,0-1.6,0.7-1.6,1.9s0.7,1.9,1.6,1.9S162.8,15.5,162.8,14.3z"/>
					<path d="M175.7,6.5h1.8L173,24.3h-1.8L175.7,6.5z"/>
					<path d="M183.4,10.9h2.2l0.2,1.3h0.1c0.9-0.9,1.9-1.6,3.3-1.6c2.2,0,3.1,1.5,3.1,4.1V21h-2.6v-6c0-1.5-0.4-2.1-1.4-2.1
						c-0.8,0-1.4,0.4-2.1,1.1V21h-2.6V10.9z"/>
					<path d="M194.2,11h9.2v1.9h-9.2V11z M194.2,15.7h9.2v1.9h-9.2V15.7z"/>
					<path d="M205.6,18.9h2.9v-8.4h-2.4V8.8c1.3-0.3,2.3-0.6,3.1-1.1h2v11.2h2.5V21h-8V18.9z"/>
					<path d="M224.9,17.5h-1.6V21h-2.5v-3.5h-5.7v-1.8l5-8.1h3.2v7.9h1.6V17.5z M220.8,15.5v-2.7c0-0.8,0.1-2,0.1-2.8h-0.1
						c-0.3,0.7-0.7,1.4-1.1,2.2l-2.1,3.3H220.8z"/>
					<path d="M226.3,23.9c1.5-2.6,2.2-5.7,2.2-8.6c0-2.9-0.7-6-2.2-8.6l1.6-0.7c1.7,2.8,2.7,5.7,2.7,9.3c0,3.6-1,6.5-2.7,9.3
						L226.3,23.9z"/>
				</g>
				<g class="st1">
					<path d="M407.6,10.2c-0.5-0.6-1.3-1-2.1-1c-1.7,0-3.1,1.3-3.2,5.1c0.8-1,1.9-1.5,2.9-1.5c2.2,0,3.7,1.4,3.7,4.2
						c0,2.6-1.8,4.3-4,4.3c-2.5,0-4.6-2.1-4.6-6.6c0-5.1,2.4-7.1,5-7.1c1.5,0,2.6,0.6,3.3,1.4L407.6,10.2z M407.1,16.9
						c0-1.7-0.8-2.7-2.2-2.7c-0.8,0-1.7,0.4-2.5,1.5c0.2,2.6,1.2,3.9,2.6,3.9C406.2,19.6,407.1,18.6,407.1,16.9z"/>
					<path d="M410.5,19.8c3.9-3.5,5.9-6,5.9-8.2c0-1.4-0.8-2.4-2.3-2.4c-1,0-1.9,0.7-2.6,1.5l-1.2-1.2c1.1-1.2,2.3-2,4-2
						c2.4,0,4,1.6,4,4c0,2.6-2,5.2-4.8,7.9c0.7-0.1,1.5-0.1,2.2-0.1h3.3V21h-8.6V19.8z"/>
					<path d="M420.7,11.7c0-2.7,1.2-4.2,3.1-4.2s3.1,1.5,3.1,4.2c0,2.7-1.3,4.2-3.1,4.2S420.7,14.3,420.7,11.7z M425.4,11.7
						c0-2.1-0.7-3-1.6-3c-0.9,0-1.6,0.9-1.6,3c0,2,0.7,3,1.6,3C424.7,14.7,425.4,13.7,425.4,11.7z M431.4,7.5h1.3l-7.3,13.7h-1.3
						L431.4,7.5z M430.1,17c0-2.7,1.3-4.2,3.1-4.2c1.8,0,3.1,1.5,3.1,4.2c0,2.7-1.3,4.2-3.1,4.2C431.3,21.2,430.1,19.7,430.1,17z
						 M434.8,17c0-2.1-0.7-3-1.6-3c-0.9,0-1.6,0.9-1.6,3c0,2,0.7,3,1.6,3C434.1,20,434.8,19.1,434.8,17z"/>
					<path d="M442.6,15.4c0-3.5,1-6.5,2.7-9.2l1.3,0.6c-1.5,2.6-2.3,5.6-2.3,8.6c0,3,0.7,6.1,2.3,8.6l-1.3,0.6
						C443.6,21.8,442.6,18.9,442.6,15.4z"/>
					<path d="M448.9,11.1h1.7l0.2,1.4h0.1c0.9-0.9,1.9-1.6,3.3-1.6c2.1,0,3,1.4,3,3.9V21h-2.1v-6c0-1.7-0.5-2.4-1.7-2.4
						c-0.9,0-1.5,0.5-2.4,1.3v7h-2.1V11.1z"/>
					<path d="M459.3,11.3h8.9v1.5h-8.9V11.3z M459.3,15.8h8.9v1.5h-8.9V15.8z"/>
					<path d="M469.7,17.7c0-1.7,1.2-2.9,2.4-3.6V14c-1-0.7-1.8-1.7-1.8-3.1c0-2.1,1.6-3.4,3.8-3.4c2.3,0,3.7,1.4,3.7,3.5
						c0,1.4-0.9,2.5-1.7,3.1v0.1c1.2,0.7,2.2,1.7,2.2,3.5c0,2-1.7,3.5-4.3,3.5C471.5,21.2,469.7,19.8,469.7,17.7z M476.3,17.7
						c0-1.6-1.5-2.2-3.3-3c-0.9,0.6-1.5,1.6-1.5,2.8c0,1.3,1.1,2.2,2.5,2.2C475.4,19.7,476.3,18.9,476.3,17.7z M476.1,11.2
						c0-1.2-0.7-2.1-2-2.1c-1.1,0-1.9,0.7-1.9,1.9c0,1.4,1.3,2.1,2.7,2.7C475.7,12.9,476.1,12.1,476.1,11.2z"/>
					<path d="M479.9,24c1.5-2.6,2.3-5.6,2.3-8.6c0-3-0.7-6-2.3-8.6l1.3-0.6c1.7,2.7,2.7,5.7,2.7,9.2c0,3.6-1,6.5-2.7,9.2L479.9,24z"
						/>
				</g>
				<g class="st1">
					<path d="M782.6,10.2c-0.5-0.6-1.3-1-2.1-1c-1.7,0-3.1,1.3-3.2,5.1c0.8-1,1.9-1.5,2.9-1.5c2.2,0,3.7,1.4,3.7,4.2
						c0,2.6-1.8,4.3-4,4.3c-2.5,0-4.6-2.1-4.6-6.6c0-5.1,2.4-7.1,5-7.1c1.5,0,2.6,0.6,3.3,1.4L782.6,10.2z M782.1,16.9
						c0-1.7-0.8-2.7-2.2-2.7c-0.8,0-1.7,0.4-2.5,1.5c0.2,2.6,1.2,3.9,2.6,3.9C781.2,19.6,782.1,18.6,782.1,16.9z"/>
					<path d="M786.9,18.6c0.5,0.6,1.3,1,2.2,1c1.6,0,3-1.3,3.1-5.1c-0.8,1-1.9,1.5-2.9,1.5c-2.2,0-3.7-1.4-3.7-4.2
						c0-2.6,1.8-4.4,3.9-4.4c2.5,0,4.6,2.1,4.6,6.4c0,5.2-2.4,7.3-4.9,7.3c-1.5,0-2.6-0.6-3.4-1.4L786.9,18.6z M792.1,12.9
						c-0.2-2.6-1.2-3.8-2.6-3.8c-1.1,0-2,1-2,2.8c0,1.7,0.8,2.7,2.1,2.7C790.4,14.5,791.3,14,792.1,12.9z"/>
					<path d="M795.7,11.7c0-2.7,1.2-4.2,3.1-4.2s3.1,1.5,3.1,4.2c0,2.7-1.3,4.2-3.1,4.2S795.7,14.3,795.7,11.7z M800.4,11.7
						c0-2.1-0.7-3-1.6-3c-0.9,0-1.6,0.9-1.6,3c0,2,0.7,3,1.6,3C799.7,14.7,800.4,13.7,800.4,11.7z M806.4,7.5h1.3l-7.3,13.7h-1.3
						L806.4,7.5z M805.1,17c0-2.7,1.3-4.2,3.1-4.2c1.8,0,3.1,1.5,3.1,4.2c0,2.7-1.3,4.2-3.1,4.2C806.3,21.2,805.1,19.7,805.1,17z
						 M809.8,17c0-2.1-0.7-3-1.6-3c-0.9,0-1.6,0.9-1.6,3c0,2,0.7,3,1.6,3C809.1,20,809.8,19.1,809.8,17z"/>
					<path d="M817.6,15.4c0-3.5,1-6.5,2.7-9.2l1.3,0.6c-1.5,2.6-2.3,5.6-2.3,8.6c0,3,0.7,6.1,2.3,8.6l-1.3,0.6
						C818.6,21.8,817.6,18.9,817.6,15.4z"/>
					<path d="M823.9,11.1h1.7l0.2,1.4h0.1c0.9-0.9,1.9-1.6,3.3-1.6c2.1,0,3,1.4,3,3.9V21h-2.1v-6c0-1.7-0.5-2.4-1.7-2.4
						c-0.9,0-1.5,0.5-2.4,1.3v7h-2.1V11.1z"/>
					<path d="M834.3,11.3h8.9v1.5h-8.9V11.3z M834.3,15.8h8.9v1.5h-8.9V15.8z"/>
					<path d="M846,18.6c0.5,0.6,1.3,1,2.2,1c1.6,0,3-1.3,3.1-5.1c-0.8,1-1.9,1.5-2.9,1.5c-2.2,0-3.7-1.4-3.7-4.2
						c0-2.6,1.8-4.4,3.9-4.4c2.5,0,4.6,2.1,4.6,6.4c0,5.2-2.4,7.3-4.9,7.3c-1.5,0-2.6-0.6-3.4-1.4L846,18.6z M851.2,12.9
						c-0.2-2.6-1.2-3.8-2.6-3.8c-1.1,0-2,1-2,2.8c0,1.7,0.8,2.7,2.1,2.7C849.5,14.5,850.4,14,851.2,12.9z"/>
					<path d="M854.9,24c1.5-2.6,2.3-5.6,2.3-8.6c0-3-0.7-6-2.3-8.6l1.3-0.6c1.7,2.7,2.7,5.7,2.7,9.2c0,3.6-1,6.5-2.7,9.2L854.9,24z"
						/>
				</g>
				<path class="st3" d="M0,47h1000"/>
			</g>
		</g>
	</g>
</g>
</svg>
