<?xml version="1.0" encoding="utf-8"?>
<!-- Generator: Adobe Illustrator 23.0.1, SVG Export Plug-In . SVG Version: 6.00 Build 0)  -->
<svg version="1.1" id="Layer_1" xmlns="http://www.w3.org/2000/svg" xmlns:xlink="http://www.w3.org/1999/xlink" x="0px" y="0px"
	 viewBox="0 0 1002 350" style="enable-background:new 0 0 1002 350;" xml:space="preserve">
<style type="text/css">
	.st0{fill-rule:evenodd;clip-rule:evenodd;}
	.st1{enable-background:new    ;}
	.st2{fill:#FFFFFF;}
	.st3{fill:none;stroke:#979797;stroke-linecap:square;}
	.st4{fill:none;stroke:#000000;stroke-width:1.5;}
</style>
<title>표1</title>
<desc>Created with Sketch.</desc>
<g id="Page-1">
	<g transform="translate(-219.000000, -2338.000000)">
		<g id="표1" transform="translate(220.000000, 2332.000000)">
			<g id="head" transform="translate(0.000000, 47.000000)">
				<g>
					<path id="bg" class="st0" d="M8,0h234c4.4,0,8,3.6,8,8v34c0,4.4-3.6,8-8,8H8c-4.4,0-8-3.6-8-8V8C0,3.6,3.6,0,8,0z"/>
				</g>
				<g transform="translate(260.000000, 0.000000)">
					<path class="st0" d="M8,0h349c4.4,0,8,3.6,8,8v34c0,4.4-3.6,8-8,8H8c-4.4,0-8-3.6-8-8V8C0,3.6,3.6,0,8,0z"/>
					<g class="st1">
						<path class="st2" d="M151.4,19.9h6.8v1.8h-4.6v2.6h3.9v1.9h-3.9v3h4.8V31h-7V19.9z"/>
						<path class="st2" d="M160.4,22.6h1.8l0.1,1.1h0.1c0.7-0.7,1.6-1.3,2.7-1.3c1.8,0,2.6,1.3,2.6,3.4V31h-2.2v-5
							c0-1.3-0.4-1.8-1.2-1.8c-0.7,0-1.1,0.3-1.8,0.9V31h-2.2V22.6z"/>
						<path class="st2" d="M169.5,32.5c0-0.7,0.4-1.3,1.2-1.7v-0.1c-0.4-0.3-0.8-0.7-0.8-1.4c0-0.6,0.4-1.2,0.9-1.6v-0.1
							c-0.6-0.4-1.1-1.2-1.1-2.2c0-2,1.6-3,3.4-3c0.5,0,0.9,0.1,1.3,0.2h3v1.6H176c0.2,0.3,0.4,0.8,0.4,1.3c0,1.9-1.4,2.8-3.2,2.8
							c-0.3,0-0.7-0.1-1.1-0.2c-0.2,0.2-0.4,0.4-0.4,0.7c0,0.5,0.3,0.7,1.3,0.7h1.4c2,0,3.1,0.6,3.1,2.1c0,1.7-1.8,3-4.6,3
							C171,34.6,169.5,34,169.5,32.5z M175.4,32c0-0.6-0.5-0.8-1.4-0.8h-1c-0.5,0-0.9,0-1.2-0.1c-0.4,0.3-0.6,0.6-0.6,1
							c0,0.7,0.8,1.1,2,1.1C174.6,33.2,175.4,32.7,175.4,32z M174.4,25.4c0-1-0.6-1.5-1.3-1.5s-1.3,0.6-1.3,1.5c0,1,0.6,1.5,1.3,1.5
							S174.4,26.4,174.4,25.4z"/>
						<path class="st2" d="M178.2,26.8c0-2.7,1.9-4.4,3.9-4.4c2.3,0,3.5,1.7,3.5,4c0,0.4,0,0.8-0.1,1h-5.2c0.2,1.4,1.1,2.1,2.3,2.1
							c0.7,0,1.3-0.2,1.9-0.6l0.8,1.4c-0.8,0.6-1.9,0.9-2.9,0.9C180,31.2,178.2,29.6,178.2,26.8z M183.7,26c0-1.1-0.5-1.9-1.6-1.9
							c-0.9,0-1.7,0.6-1.8,1.9H183.7z"/>
						<path class="st2" d="M187.4,22.6h1.8l0.1,1.1h0.1c0.7-0.7,1.6-1.3,2.7-1.3c1.8,0,2.6,1.3,2.6,3.4V31h-2.2v-5
							c0-1.3-0.4-1.8-1.2-1.8c-0.7,0-1.1,0.3-1.8,0.9V31h-2.2V22.6z"/>
						<path class="st2" d="M196.2,30l1-1.4c0.8,0.6,1.5,0.9,2.2,0.9c0.8,0,1.2-0.4,1.2-0.9c0-0.6-0.9-0.9-1.8-1.3
							c-1.1-0.4-2.3-1-2.3-2.4c0-1.5,1.2-2.6,3.1-2.6c1.2,0,2.2,0.5,2.9,1l-1,1.3c-0.6-0.4-1.2-0.7-1.8-0.7c-0.8,0-1.1,0.3-1.1,0.8
							c0,0.6,0.8,0.8,1.7,1.2c1.1,0.4,2.3,1,2.3,2.5c0,1.5-1.2,2.7-3.3,2.7C198.3,31.2,197.1,30.7,196.2,30z"/>
						<path class="st2" d="M204.2,20.1c0-0.7,0.6-1.2,1.3-1.2c0.8,0,1.3,0.5,1.3,1.2c0,0.7-0.6,1.2-1.3,1.2
							C204.8,21.2,204.2,20.7,204.2,20.1z M204.4,22.6h2.2V31h-2.2V22.6z"/>
						<path class="st2" d="M208.2,30l1-1.4c0.8,0.6,1.5,0.9,2.2,0.9c0.8,0,1.2-0.4,1.2-0.9c0-0.6-0.9-0.9-1.8-1.3
							c-1.1-0.4-2.3-1-2.3-2.4c0-1.5,1.2-2.6,3.1-2.6c1.2,0,2.2,0.5,2.9,1l-1,1.3c-0.6-0.4-1.2-0.7-1.8-0.7c-0.8,0-1.1,0.3-1.1,0.8
							c0,0.6,0.8,0.8,1.7,1.2c1.1,0.4,2.3,1,2.3,2.5c0,1.5-1.2,2.7-3.3,2.7C210.3,31.2,209,30.7,208.2,30z"/>
					</g>
				</g>
				<g transform="translate(635.000000, 0.000000)">
					<path class="st0" d="M8,0h349c4.4,0,8,3.6,8,8v34c0,4.4-3.6,8-8,8H8c-4.4,0-8-3.6-8-8V8C0,3.6,3.6,0,8,0z"/>
					<g class="st1">
						<path class="st2" d="M154.4,19.9h3.6c2.5,0,4.3,0.9,4.3,3.5c0,2.5-1.9,3.7-4.3,3.7h-1.5V31h-2.2V19.9z M157.9,25.3
							c1.5,0,2.3-0.6,2.3-1.9c0-1.3-0.8-1.7-2.3-1.7h-1.3v3.6H157.9z"/>
						<path class="st2" d="M164.2,28.6V19h2.2v9.7c0,0.5,0.2,0.7,0.5,0.7c0.1,0,0.1,0,0.3,0l0.3,1.6c-0.3,0.1-0.6,0.2-1.1,0.2
							C164.7,31.2,164.2,30.2,164.2,28.6z"/>
						<path class="st2" d="M168.5,28.7c0-1.8,1.5-2.7,4.8-3.1c0-0.8-0.4-1.5-1.4-1.5c-0.8,0-1.5,0.3-2.3,0.8l-0.8-1.5
							c1-0.6,2.2-1.1,3.5-1.1c2.1,0,3.2,1.3,3.2,3.7V31h-1.8l-0.2-0.9h0c-0.7,0.6-1.6,1.1-2.5,1.1C169.5,31.2,168.5,30.1,168.5,28.7
							z M173.3,28.7V27c-2,0.3-2.7,0.8-2.7,1.6c0,0.7,0.5,0.9,1.1,0.9C172.3,29.5,172.8,29.2,173.3,28.7z"/>
						<path class="st2" d="M177.3,26.8c0-2.8,2-4.4,4.3-4.4c1,0,1.8,0.4,2.4,0.9l-1,1.4c-0.4-0.4-0.8-0.6-1.3-0.6
							c-1.3,0-2.1,1-2.1,2.6c0,1.6,0.9,2.6,2.1,2.6c0.6,0,1.2-0.3,1.6-0.7l0.9,1.5c-0.8,0.7-1.8,1-2.7,1
							C179,31.2,177.3,29.6,177.3,26.8z"/>
						<path class="st2" d="M184.7,26.8c0-2.7,1.9-4.4,3.9-4.4c2.3,0,3.5,1.7,3.5,4c0,0.4,0,0.8-0.1,1h-5.2c0.2,1.4,1.1,2.1,2.3,2.1
							c0.7,0,1.3-0.2,1.9-0.6l0.8,1.4c-0.8,0.6-1.9,0.9-2.9,0.9C186.5,31.2,184.7,29.6,184.7,26.8z M190.2,26c0-1.1-0.5-1.9-1.6-1.9
							c-0.9,0-1.7,0.6-1.8,1.9H190.2z"/>
						<path class="st2" d="M195.9,30.1L195.9,30.1l-0.2,0.9h-1.7V19h2.2v3l0,1.4c0.7-0.6,1.5-1,2.3-1c2.1,0,3.3,1.7,3.3,4.3
							c0,2.9-1.7,4.6-3.6,4.6C197.4,31.2,196.6,30.8,195.9,30.1z M199.5,26.7c0-1.6-0.5-2.5-1.7-2.5c-0.6,0-1.1,0.3-1.7,0.9v3.7
							c0.5,0.5,1.1,0.6,1.5,0.6C198.7,29.4,199.5,28.5,199.5,26.7z"/>
						<path class="st2" d="M203.1,26.8c0-2.8,1.9-4.4,4-4.4s4,1.6,4,4.4c0,2.8-1.9,4.4-4,4.4S203.1,29.6,203.1,26.8z M208.9,26.8
							c0-1.6-0.6-2.6-1.8-2.6s-1.8,1-1.8,2.6c0,1.6,0.6,2.6,1.8,2.6S208.9,28.4,208.9,26.8z"/>
					</g>
				</g>
			</g>
			<g id="cell1" transform="translate(0.000000, 107.000000)">
				<g class="st1">
					<path d="M23.2,57.3l1.5-1.8c1,0.9,2.2,1.5,3.4,1.5c1.4,0,2.1-0.6,2.1-1.5c0-1-0.8-1.3-2-1.8l-1.8-0.8c-1.4-0.6-2.7-1.6-2.7-3.6
						c0-2.2,1.9-3.9,4.6-3.9c1.5,0,3.1,0.6,4.2,1.7l-1.4,1.7c-0.8-0.7-1.7-1.1-2.8-1.1c-1.2,0-1.9,0.5-1.9,1.4c0,1,1,1.3,2.1,1.7
						l1.7,0.7c1.6,0.7,2.7,1.7,2.7,3.6c0,2.2-1.8,4-4.9,4C26.3,59.3,24.5,58.5,23.2,57.3z"/>
					<path d="M34.5,54c0-3.3,2.3-5.3,4.7-5.3c2.8,0,4.2,2,4.2,4.8c0,0.5-0.1,1-0.1,1.2h-6.2c0.2,1.7,1.3,2.5,2.8,2.5
						c0.8,0,1.5-0.3,2.3-0.7l0.9,1.6c-1,0.7-2.3,1.1-3.5,1.1C36.7,59.3,34.5,57.3,34.5,54z M41.1,53c0-1.4-0.6-2.2-1.9-2.2
						c-1.1,0-2,0.8-2.2,2.2H41.1z"/>
					<path d="M45.6,48.9h2.2l0.2,1.8H48c0.7-1.3,1.8-2,2.9-2c0.6,0,0.9,0.1,1.2,0.2l-0.5,2.3c-0.3-0.1-0.6-0.2-1-0.2
						c-0.8,0-1.7,0.5-2.3,2v6h-2.6V48.9z"/>
					<path d="M53.2,45.9c0-0.9,0.7-1.4,1.6-1.4c0.9,0,1.6,0.6,1.6,1.4c0,0.8-0.7,1.4-1.6,1.4C53.9,47.3,53.2,46.7,53.2,45.9z
						 M53.4,48.9h2.6V59h-2.6V48.9z"/>
					<path d="M58.3,54c0-3.4,2.3-5.3,4.8-5.3c2.5,0,4.8,1.9,4.8,5.3c0,3.3-2.3,5.3-4.8,5.3C60.6,59.3,58.3,57.3,58.3,54z M65.3,54
						c0-1.9-0.8-3.2-2.1-3.2c-1.4,0-2.1,1.2-2.1,3.2c0,1.9,0.8,3.1,2.1,3.1C64.5,57.1,65.3,55.9,65.3,54z"/>
					<path d="M70.1,55.2v-6.3h2.6v6c0,1.6,0.4,2.1,1.4,2.1c0.8,0,1.4-0.4,2.1-1.3v-6.8h2.6V59h-2.2l-0.2-1.4h-0.1
						c-0.9,1-1.8,1.7-3.2,1.7C71,59.3,70.1,57.7,70.1,55.2z"/>
					<path d="M80.7,57.8l1.2-1.7c0.9,0.7,1.8,1.1,2.7,1.1c1,0,1.5-0.4,1.5-1.1c0-0.8-1-1.1-2.1-1.5c-1.3-0.5-2.8-1.3-2.8-2.9
						c0-1.8,1.5-3.1,3.7-3.1c1.5,0,2.6,0.6,3.4,1.2l-1.2,1.6c-0.7-0.5-1.4-0.9-2.2-0.9c-0.9,0-1.3,0.4-1.3,1c0,0.7,1,1,2.1,1.4
						c1.3,0.5,2.8,1.2,2.8,3c0,1.8-1.4,3.2-4,3.2C83.2,59.3,81.7,58.7,80.7,57.8z"/>
					<path d="M101.1,55.6h-4.3L95.8,59h-2.7l4.3-13.3h3.1l4.3,13.3H102L101.1,55.6z M100.5,53.5l-0.4-1.5c-0.4-1.4-0.8-2.9-1.2-4.4
						h-0.1c-0.3,1.5-0.7,3-1.1,4.4l-0.4,1.5H100.5z"/>
					<path d="M105.6,54c0-3.3,2.1-5.3,4.2-5.3c1.1,0,1.8,0.4,2.6,1.1l-0.1-1.6v-3.5h2.6V59h-2.1l-0.2-1h-0.1
						c-0.7,0.7-1.7,1.3-2.8,1.3C107.2,59.3,105.6,57.3,105.6,54z M112.3,56v-4.4c-0.6-0.6-1.2-0.8-1.9-0.8c-1.1,0-2.1,1.1-2.1,3.1
						c0,2.1,0.8,3.1,2.1,3.1C111.1,57.1,111.7,56.8,112.3,56z"/>
					<path d="M116.6,48.9h2.7l1.5,5c0.3,1,0.5,2,0.8,3.1h0.1c0.3-1,0.5-2.1,0.8-3.1l1.5-5h2.5L123.1,59H120L116.6,48.9z"/>
					<path d="M127.4,54c0-3.3,2.3-5.3,4.7-5.3c2.8,0,4.2,2,4.2,4.8c0,0.5-0.1,1-0.1,1.2h-6.2c0.2,1.7,1.3,2.5,2.8,2.5
						c0.8,0,1.5-0.3,2.3-0.7l0.9,1.6c-1,0.7-2.3,1.1-3.5,1.1C129.6,59.3,127.4,57.3,127.4,54z M134,53c0-1.4-0.6-2.2-1.9-2.2
						c-1.1,0-2,0.8-2.2,2.2H134z"/>
					<path d="M138.5,48.9h2.2l0.2,1.8h0.1c0.7-1.3,1.8-2,2.9-2c0.6,0,0.9,0.1,1.2,0.2l-0.5,2.3c-0.3-0.1-0.6-0.2-1-0.2
						c-0.8,0-1.7,0.5-2.3,2v6h-2.6V48.9z"/>
					<path d="M145.2,57.8l1.2-1.7c0.9,0.7,1.8,1.1,2.7,1.1c1,0,1.5-0.4,1.5-1.1c0-0.8-1-1.1-2.1-1.5c-1.3-0.5-2.8-1.3-2.8-2.9
						c0-1.8,1.5-3.1,3.7-3.1c1.5,0,2.6,0.6,3.4,1.2l-1.2,1.6c-0.7-0.5-1.4-0.9-2.2-0.9c-0.9,0-1.3,0.4-1.3,1c0,0.7,1,1,2.1,1.4
						c1.3,0.5,2.8,1.2,2.8,3c0,1.8-1.4,3.2-4,3.2C147.7,59.3,146.2,58.7,145.2,57.8z"/>
					<path d="M154.4,54c0-3.3,2.3-5.3,4.7-5.3c2.8,0,4.2,2,4.2,4.8c0,0.5-0.1,1-0.1,1.2H157c0.2,1.7,1.3,2.5,2.8,2.5
						c0.8,0,1.5-0.3,2.3-0.7l0.9,1.6c-1,0.7-2.3,1.1-3.5,1.1C156.6,59.3,154.4,57.3,154.4,54z M161.1,53c0-1.4-0.6-2.2-1.9-2.2
						c-1.1,0-2,0.8-2.2,2.2H161.1z"/>
					<path d="M169.8,45.7h8.2v2.2h-5.5V51h4.7v2.2h-4.7v3.6h5.7V59h-8.4V45.7z"/>
					<path d="M179.3,48.9h2.7l1.5,5c0.3,1,0.5,2,0.8,3.1h0.1c0.3-1,0.5-2.1,0.8-3.1l1.5-5h2.5L185.8,59h-3.1L179.3,48.9z"/>
					<path d="M190.1,54c0-3.3,2.3-5.3,4.7-5.3c2.8,0,4.2,2,4.2,4.8c0,0.5-0.1,1-0.1,1.2h-6.2c0.2,1.7,1.3,2.5,2.8,2.5
						c0.8,0,1.5-0.3,2.3-0.7l0.9,1.6c-1,0.7-2.3,1.1-3.5,1.1C192.3,59.3,190.1,57.3,190.1,54z M196.7,53c0-1.4-0.6-2.2-1.9-2.2
						c-1.1,0-2,0.8-2.2,2.2H196.7z"/>
					<path d="M201.1,48.9h2.2l0.2,1.3h0.1c0.9-0.9,1.9-1.6,3.3-1.6c2.2,0,3.1,1.5,3.1,4.1V59h-2.6v-6c0-1.5-0.4-2.1-1.4-2.1
						c-0.8,0-1.4,0.4-2.1,1.1V59h-2.6V48.9z"/>
					<path d="M213.1,55.5V51h-1.4v-2l1.5-0.1l0.3-2.7h2.2v2.7h2.5V51h-2.5v4.5c0,1.2,0.5,1.7,1.4,1.7c0.3,0,0.7-0.1,1-0.2l0.4,1.9
						c-0.5,0.2-1.2,0.4-2.1,0.4C214,59.3,213.1,57.7,213.1,55.5z"/>
					<path d="M219.1,57.8l1.2-1.7c0.9,0.7,1.8,1.1,2.7,1.1c1,0,1.5-0.4,1.5-1.1c0-0.8-1-1.1-2.1-1.5c-1.3-0.5-2.8-1.3-2.8-2.9
						c0-1.8,1.5-3.1,3.7-3.1c1.5,0,2.6,0.6,3.4,1.2l-1.2,1.6c-0.7-0.5-1.4-0.9-2.2-0.9c-0.9,0-1.3,0.4-1.3,1c0,0.7,1,1,2.1,1.4
						c1.3,0.5,2.8,1.2,2.8,3c0,1.8-1.4,3.2-4,3.2C221.6,59.3,220.1,58.7,219.1,57.8z"/>
				</g>
				<g class="st1">
					<path d="M344.9,84.4l1-1.3c0.8,0.8,1.8,1.5,3.1,1.5c1.5,0,2.5-0.8,2.5-2.2c0-1.5-0.9-2.4-3.9-2.4v-1.5c2.6,0,3.5-1,3.5-2.3
						c0-1.2-0.8-1.9-2-1.9c-1,0-1.9,0.5-2.6,1.3l-1.1-1.3c1-0.9,2.3-1.6,3.8-1.6c2.4,0,4.1,1.2,4.1,3.4c0,1.5-0.9,2.6-2.3,3.1v0.1
						c1.5,0.4,2.7,1.5,2.7,3.3c0,2.4-2,3.8-4.4,3.8C347.1,86.2,345.8,85.4,344.9,84.4z"/>
				</g>
				<g class="st1">
					<path d="M491.2,72.7h2.1l4.4,7.8l1.4,2.8h0.1c-0.1-1.4-0.3-3-0.3-4.4v-6.2h2V86h-2.1l-4.4-7.8l-1.4-2.8h-0.1
						c0.1,1.4,0.3,2.9,0.3,4.3V86h-2V72.7z"/>
					<path d="M503.5,81.1c0-3.3,2.2-5.2,4.7-5.2c2.4,0,4.7,1.9,4.7,5.2c0,3.3-2.2,5.2-4.7,5.2C505.7,86.2,503.5,84.3,503.5,81.1z
						 M510.7,81.1c0-2.1-1-3.5-2.5-3.5c-1.5,0-2.5,1.4-2.5,3.5c0,2.1,1,3.5,2.5,3.5C509.8,84.5,510.7,83.2,510.7,81.1z"/>
					<path d="M515.2,82.8v-5h-1.4v-1.5l1.5-0.1l0.2-2.7h1.7v2.7h2.6v1.7h-2.6v5c0,1.2,0.4,1.8,1.4,1.8c0.3,0,0.8-0.1,1.1-0.2
						l0.4,1.5c-0.6,0.2-1.2,0.4-1.9,0.4C516,86.2,515.2,84.8,515.2,82.8z"/>
					<path d="M526,76.1h1.7l0.2,1.8h0.1c0.7-1.3,1.7-2,2.8-2c0.5,0,0.8,0.1,1.1,0.2l-0.4,1.8c-0.3-0.1-0.6-0.2-1-0.2
						c-0.8,0-1.8,0.6-2.4,2.1V86H526V76.1z"/>
					<path d="M532.5,81.1c0-3.2,2.2-5.2,4.5-5.2c2.6,0,4,1.9,4,4.7c0,0.4,0,0.8-0.1,1h-6.4c0.2,1.9,1.4,3,3.1,3
						c0.9,0,1.6-0.3,2.4-0.7l0.7,1.3c-0.9,0.6-2.1,1-3.3,1C534.6,86.2,532.5,84.3,532.5,81.1z M539.3,80.2c0-1.7-0.8-2.7-2.2-2.7
						c-1.2,0-2.3,1-2.5,2.7H539.3z"/>
					<path d="M543.4,83.7v-12h2.1v12.1c0,0.6,0.3,0.8,0.5,0.8c0.1,0,0.2,0,0.3,0l0.3,1.6c-0.3,0.1-0.6,0.2-1.1,0.2
						C543.9,86.2,543.4,85.3,543.4,83.7z"/>
					<path d="M548.2,83.4c0-2.1,1.8-3.2,5.9-3.7c0-1.2-0.4-2.2-1.9-2.2c-1,0-2,0.5-2.9,1l-0.8-1.4c1-0.6,2.4-1.3,4-1.3
						c2.5,0,3.6,1.6,3.6,4.2v6h-1.7l-0.2-1.1h-0.1c-0.9,0.8-2,1.4-3.2,1.4C549.4,86.2,548.2,85.1,548.2,83.4z M554.1,83.4V81
						c-2.9,0.4-3.9,1.1-3.9,2.2c0,1,0.7,1.4,1.5,1.4C552.6,84.6,553.3,84.2,554.1,83.4z"/>
					<path d="M559.1,82.8v-5h-1.4v-1.5l1.5-0.1l0.2-2.7h1.7v2.7h2.6v1.7h-2.6v5c0,1.2,0.4,1.8,1.4,1.8c0.3,0,0.8-0.1,1.1-0.2
						l0.4,1.5c-0.6,0.2-1.2,0.4-1.9,0.4C559.9,86.2,559.1,84.8,559.1,82.8z"/>
					<path d="M564.9,81.1c0-3.2,2.2-5.2,4.5-5.2c2.6,0,4,1.9,4,4.7c0,0.4,0,0.8-0.1,1h-6.4c0.2,1.9,1.4,3,3.1,3
						c0.9,0,1.6-0.3,2.4-0.7l0.7,1.3c-0.9,0.6-2.1,1-3.3,1C567,86.2,564.9,84.3,564.9,81.1z M571.7,80.2c0-1.7-0.8-2.7-2.2-2.7
						c-1.2,0-2.3,1-2.5,2.7H571.7z"/>
					<path d="M575.1,81.1c0-3.2,2-5.2,4.2-5.2c1.1,0,1.9,0.4,2.7,1.1l-0.1-1.6v-3.7h2.1V86h-1.7l-0.2-1.1h-0.1
						c-0.7,0.8-1.8,1.4-2.9,1.4C576.7,86.2,575.1,84.3,575.1,81.1z M581.9,83.3v-4.8c-0.7-0.7-1.4-0.9-2.2-0.9
						c-1.4,0-2.5,1.3-2.5,3.5c0,2.3,0.9,3.5,2.4,3.5C580.5,84.5,581.2,84.1,581.9,83.3z"/>
				</g>
				<g class="st1">
					<path d="M720.9,84.5l1-1.4c0.8,0.8,1.7,1.4,3.1,1.4c1.5,0,2.6-1.1,2.6-2.8s-1-2.8-2.5-2.8c-0.8,0-1.4,0.3-2.1,0.8l-1-0.7
						l0.4-6.3h6.7v1.7h-4.9l-0.3,3.4c0.6-0.3,1.1-0.5,1.8-0.5c2.2,0,4,1.3,4,4.2c0,2.9-2.1,4.6-4.5,4.6
						C723.1,86.2,721.8,85.4,720.9,84.5z"/>
				</g>
				<g class="st1">
					<path d="M867.2,72.7h2.1l4.4,7.8l1.4,2.8h0.1c-0.1-1.4-0.3-3-0.3-4.4v-6.2h2V86h-2.1l-4.4-7.8l-1.4-2.8h-0.1
						c0.1,1.4,0.3,2.9,0.3,4.3V86h-2V72.7z"/>
					<path d="M879.5,81.1c0-3.3,2.2-5.2,4.7-5.2c2.4,0,4.7,1.9,4.7,5.2c0,3.3-2.2,5.2-4.7,5.2C881.7,86.2,879.5,84.3,879.5,81.1z
						 M886.7,81.1c0-2.1-1-3.5-2.5-3.5c-1.5,0-2.5,1.4-2.5,3.5c0,2.1,1,3.5,2.5,3.5C885.8,84.5,886.7,83.2,886.7,81.1z"/>
					<path d="M891.2,82.8v-5h-1.4v-1.5l1.5-0.1l0.2-2.7h1.7v2.7h2.6v1.7h-2.6v5c0,1.2,0.4,1.8,1.4,1.8c0.3,0,0.8-0.1,1.1-0.2
						l0.4,1.5c-0.6,0.2-1.2,0.4-1.9,0.4C892,86.2,891.2,84.8,891.2,82.8z"/>
					<path d="M902,76.1h1.7l0.2,1.8h0.1c0.7-1.3,1.7-2,2.8-2c0.5,0,0.8,0.1,1.1,0.2l-0.4,1.8c-0.3-0.1-0.6-0.2-1-0.2
						c-0.8,0-1.8,0.6-2.4,2.1V86H902V76.1z"/>
					<path d="M908.5,81.1c0-3.2,2.2-5.2,4.5-5.2c2.6,0,4,1.9,4,4.7c0,0.4,0,0.8-0.1,1h-6.4c0.2,1.9,1.4,3,3.1,3
						c0.9,0,1.6-0.3,2.4-0.7l0.7,1.3c-0.9,0.6-2.1,1-3.3,1C910.6,86.2,908.5,84.3,908.5,81.1z M915.3,80.2c0-1.7-0.8-2.7-2.2-2.7
						c-1.2,0-2.3,1-2.5,2.7H915.3z"/>
					<path d="M919.4,83.7v-12h2.1v12.1c0,0.6,0.3,0.8,0.5,0.8c0.1,0,0.2,0,0.3,0l0.3,1.6c-0.3,0.1-0.6,0.2-1.1,0.2
						C919.9,86.2,919.4,85.3,919.4,83.7z"/>
					<path d="M924.2,83.4c0-2.1,1.8-3.2,5.9-3.7c0-1.2-0.4-2.2-1.9-2.2c-1,0-2,0.5-2.9,1l-0.8-1.4c1-0.6,2.4-1.3,4-1.3
						c2.5,0,3.6,1.6,3.6,4.2v6h-1.7l-0.2-1.1h-0.1c-0.9,0.8-2,1.4-3.2,1.4C925.4,86.2,924.2,85.1,924.2,83.4z M930.1,83.4V81
						c-2.9,0.4-3.9,1.1-3.9,2.2c0,1,0.7,1.4,1.5,1.4C928.6,84.6,929.3,84.2,930.1,83.4z"/>
					<path d="M935.1,82.8v-5h-1.4v-1.5l1.5-0.1l0.2-2.7h1.7v2.7h2.6v1.7h-2.6v5c0,1.2,0.4,1.8,1.4,1.8c0.3,0,0.8-0.1,1.1-0.2
						l0.4,1.5c-0.6,0.2-1.2,0.4-1.9,0.4C935.9,86.2,935.1,84.8,935.1,82.8z"/>
					<path d="M940.9,81.1c0-3.2,2.2-5.2,4.5-5.2c2.6,0,4,1.9,4,4.7c0,0.4,0,0.8-0.1,1h-6.4c0.2,1.9,1.4,3,3.1,3
						c0.9,0,1.6-0.3,2.4-0.7l0.7,1.3c-0.9,0.6-2.1,1-3.3,1C943,86.2,940.9,84.3,940.9,81.1z M947.7,80.2c0-1.7-0.8-2.7-2.2-2.7
						c-1.2,0-2.3,1-2.5,2.7H947.7z"/>
					<path d="M951.1,81.1c0-3.2,2-5.2,4.2-5.2c1.1,0,1.9,0.4,2.7,1.1l-0.1-1.6v-3.7h2.1V86h-1.7l-0.2-1.1h-0.1
						c-0.7,0.8-1.8,1.4-2.9,1.4C952.7,86.2,951.1,84.3,951.1,81.1z M957.9,83.3v-4.8c-0.7-0.7-1.4-0.9-2.2-0.9
						c-1.4,0-2.5,1.3-2.5,3.5c0,2.3,0.9,3.5,2.4,3.5C956.5,84.5,957.2,84.1,957.9,83.3z"/>
				</g>
				<path id="divider" class="st3" d="M0,113h1000"/>
				<g id="subhead" transform="translate(258.000000, 0.000000)">
					<g>
						<path class="st4" d="M8.8,0.8h160.5c4.4,0,8,3.6,8,8v32.5c0,4.4-3.6,8-8,8H8.8c-4.4,0-8-3.6-8-8V8.8C0.8,4.3,4.3,0.8,8.8,0.8z
							"/>
						<g class="st1">
							<path d="M54.4,19.9h2.2V31h-2.2V19.9z"/>
							<path d="M59.1,22.6h1.8l0.1,1.1h0.1c0.7-0.7,1.6-1.3,2.7-1.3c1.8,0,2.6,1.3,2.6,3.4V31h-2.2v-5c0-1.3-0.4-1.8-1.2-1.8
								c-0.7,0-1.1,0.3-1.8,0.9V31h-2.2V22.6z"/>
							<path d="M68.2,26.8c0-2.8,2-4.4,4.3-4.4c1,0,1.8,0.4,2.4,0.9l-1,1.4c-0.4-0.4-0.8-0.6-1.3-0.6c-1.3,0-2.1,1-2.1,2.6
								c0,1.6,0.9,2.6,2.1,2.6c0.6,0,1.2-0.3,1.6-0.7l0.9,1.5c-0.8,0.7-1.8,1-2.7,1C70,31.2,68.2,29.6,68.2,26.8z"/>
							<path d="M76.4,20.1c0-0.7,0.6-1.2,1.3-1.2c0.8,0,1.3,0.5,1.3,1.2c0,0.7-0.6,1.2-1.3,1.2C77,21.2,76.4,20.7,76.4,20.1z
								 M76.7,22.6h2.2V31h-2.2V22.6z"/>
							<path d="M80.7,26.8c0-2.7,1.7-4.4,3.5-4.4c0.9,0,1.5,0.4,2.1,0.9L86.3,22v-3h2.2v12h-1.8l-0.2-0.9h0
								c-0.6,0.6-1.5,1.1-2.3,1.1C82.1,31.2,80.7,29.6,80.7,26.8z M86.3,28.5v-3.7c-0.5-0.5-1-0.6-1.6-0.6c-0.9,0-1.7,0.9-1.7,2.6
								c0,1.7,0.6,2.6,1.7,2.6C85.3,29.4,85.8,29.2,86.3,28.5z"/>
							<path d="M90.3,26.8c0-2.7,1.9-4.4,3.9-4.4c2.3,0,3.5,1.7,3.5,4c0,0.4,0,0.8-0.1,1h-5.2c0.2,1.4,1.1,2.1,2.3,2.1
								c0.7,0,1.3-0.2,1.9-0.6l0.8,1.4c-0.8,0.6-1.9,0.9-2.9,0.9C92.2,31.2,90.3,29.6,90.3,26.8z M95.9,26c0-1.1-0.5-1.9-1.6-1.9
								c-0.9,0-1.7,0.6-1.8,1.9H95.9z"/>
							<path d="M99.6,22.6h1.8l0.1,1.1h0.1c0.7-0.7,1.6-1.3,2.7-1.3c1.8,0,2.6,1.3,2.6,3.4V31h-2.2v-5c0-1.3-0.4-1.8-1.2-1.8
								c-0.7,0-1.1,0.3-1.8,0.9V31h-2.2V22.6z"/>
							<path d="M108.7,26.8c0-2.8,2-4.4,4.3-4.4c1,0,1.8,0.4,2.4,0.9l-1,1.4c-0.4-0.4-0.8-0.6-1.3-0.6c-1.3,0-2.1,1-2.1,2.6
								c0,1.6,0.9,2.6,2.1,2.6c0.6,0,1.2-0.3,1.6-0.7l0.9,1.5c-0.8,0.7-1.8,1-2.7,1C110.4,31.2,108.7,29.6,108.7,26.8z"/>
							<path d="M116.1,26.8c0-2.7,1.9-4.4,3.9-4.4c2.3,0,3.5,1.7,3.5,4c0,0.4,0,0.8-0.1,1h-5.2c0.2,1.4,1.1,2.1,2.3,2.1
								c0.7,0,1.3-0.2,1.9-0.6l0.8,1.4c-0.8,0.6-1.9,0.9-2.9,0.9C118,31.2,116.1,29.6,116.1,26.8z M121.7,26c0-1.1-0.5-1.9-1.6-1.9
								c-0.9,0-1.7,0.6-1.8,1.9H121.7z"/>
						</g>
					</g>
					<g transform="translate(188.000000, 0.000000)">
						<path class="st4" d="M8.8,0.8h160.5c4.4,0,8,3.6,8,8v32.5c0,4.4-3.6,8-8,8H8.8c-4.4,0-8-3.6-8-8V8.8C0.8,4.3,4.3,0.8,8.8,0.8z
							"/>
						<g class="st1">
							<path d="M20.4,31l-2.3-4.2h-1.5V31h-2.2V19.9h3.9c2.3,0,4.2,0.8,4.2,3.4c0,1.7-0.8,2.7-2.1,3.2l2.6,4.5H20.4z M16.6,25H18
								c1.4,0,2.2-0.6,2.2-1.8c0-1.2-0.8-1.6-2.2-1.6h-1.4V25z"/>
							<path d="M23.7,26.8c0-2.7,1.9-4.4,3.9-4.4c2.3,0,3.5,1.7,3.5,4c0,0.4,0,0.8-0.1,1h-5.2c0.2,1.4,1.1,2.1,2.3,2.1
								c0.7,0,1.3-0.2,1.9-0.6l0.8,1.4c-0.8,0.6-1.9,0.9-2.9,0.9C25.5,31.2,23.7,29.6,23.7,26.8z M29.2,26c0-1.1-0.5-1.9-1.6-1.9
								c-0.9,0-1.7,0.6-1.8,1.9H29.2z"/>
							<path d="M32.9,28.6V19h2.2v9.7c0,0.5,0.2,0.7,0.4,0.7c0.1,0,0.1,0,0.3,0l0.3,1.6c-0.3,0.1-0.6,0.2-1.1,0.2
								C33.5,31.2,32.9,30.2,32.9,28.6z"/>
							<path d="M37.3,28.7c0-1.8,1.5-2.7,4.8-3.1c0-0.8-0.4-1.5-1.4-1.5c-0.8,0-1.5,0.3-2.3,0.8l-0.8-1.5c1-0.6,2.2-1.1,3.5-1.1
								c2.1,0,3.2,1.3,3.2,3.7V31h-1.8l-0.2-0.9h0c-0.7,0.6-1.6,1.1-2.5,1.1C38.2,31.2,37.3,30.1,37.3,28.7z M42.1,28.7V27
								c-2,0.3-2.7,0.8-2.7,1.6c0,0.7,0.5,0.9,1.1,0.9C41.1,29.5,41.6,29.2,42.1,28.7z"/>
							<path d="M46.6,28.1v-3.7h-1.2v-1.6l1.3-0.1l0.3-2.2h1.8v2.2h2.1v1.7h-2.1v3.7c0,1,0.4,1.4,1.1,1.4c0.3,0,0.6-0.1,0.8-0.2
								l0.4,1.6c-0.5,0.2-1,0.3-1.8,0.3C47.3,31.2,46.6,30,46.6,28.1z"/>
							<path d="M52.3,20.1c0-0.7,0.6-1.2,1.3-1.2c0.8,0,1.3,0.5,1.3,1.2c0,0.7-0.6,1.2-1.3,1.2C52.9,21.2,52.3,20.7,52.3,20.1z
								 M52.6,22.6h2.2V31h-2.2V22.6z"/>
							<path d="M56.6,26.8c0-2.8,1.9-4.4,4-4.4s4,1.6,4,4.4c0,2.8-1.9,4.4-4,4.4S56.6,29.6,56.6,26.8z M62.4,26.8
								c0-1.6-0.6-2.6-1.8-2.6s-1.8,1-1.8,2.6c0,1.6,0.6,2.6,1.8,2.6S62.4,28.4,62.4,26.8z"/>
							<path d="M66.5,22.6h1.8l0.1,1.1h0.1c0.7-0.7,1.6-1.3,2.7-1.3c1.8,0,2.6,1.3,2.6,3.4V31h-2.2v-5c0-1.3-0.4-1.8-1.2-1.8
								c-0.7,0-1.1,0.3-1.8,0.9V31h-2.2V22.6z"/>
							<path d="M75.3,30l1-1.4c0.8,0.6,1.5,0.9,2.2,0.9c0.8,0,1.2-0.4,1.2-0.9c0-0.6-0.9-0.9-1.8-1.3c-1.1-0.4-2.3-1-2.3-2.4
								c0-1.5,1.2-2.6,3.1-2.6c1.2,0,2.2,0.5,2.9,1l-1,1.3c-0.6-0.4-1.2-0.7-1.8-0.7c-0.8,0-1.1,0.3-1.1,0.8c0,0.6,0.8,0.8,1.7,1.2
								c1.1,0.4,2.3,1,2.3,2.5c0,1.5-1.2,2.7-3.3,2.7C77.4,31.2,76.1,30.7,75.3,30z"/>
							<path d="M83.5,19h2.2v3l-0.1,1.6c0.7-0.6,1.5-1.2,2.6-1.2c1.8,0,2.6,1.3,2.6,3.4V31h-2.2v-5c0-1.3-0.4-1.8-1.2-1.8
								c-0.7,0-1.1,0.3-1.8,0.9V31h-2.2V19z"/>
							<path d="M92.9,20.1c0-0.7,0.6-1.2,1.3-1.2c0.8,0,1.3,0.5,1.3,1.2c0,0.7-0.6,1.2-1.3,1.2C93.5,21.2,92.9,20.7,92.9,20.1z
								 M93.1,22.6h2.2V31h-2.2V22.6z"/>
							<path d="M97.7,22.6h1.8l0.1,0.9h0.1c0.7-0.6,1.6-1.1,2.5-1.1c2.1,0,3.3,1.7,3.3,4.3c0,2.9-1.7,4.5-3.6,4.5
								c-0.7,0-1.4-0.3-2.1-0.9l0.1,1.4v2.5h-2.2V22.6z M103.2,26.7c0-1.6-0.5-2.5-1.7-2.5c-0.6,0-1.1,0.3-1.7,0.9v3.7
								c0.5,0.5,1.1,0.6,1.5,0.6C102.4,29.4,103.2,28.5,103.2,26.7z"/>
							<path d="M111.1,28.1v-3.7h-1.2v-1.6l1.3-0.1l0.3-2.2h1.8v2.2h2.1v1.7h-2.1v3.7c0,1,0.4,1.4,1.1,1.4c0.3,0,0.6-0.1,0.8-0.2
								l0.4,1.6c-0.5,0.2-1,0.3-1.8,0.3C111.8,31.2,111.1,30,111.1,28.1z"/>
							<path d="M116.3,26.8c0-2.8,1.9-4.4,4-4.4c2.1,0,4,1.6,4,4.4c0,2.8-1.9,4.4-4,4.4C118.2,31.2,116.3,29.6,116.3,26.8z
								 M122.1,26.8c0-1.6-0.6-2.6-1.8-2.6c-1.1,0-1.8,1-1.8,2.6c0,1.6,0.6,2.6,1.8,2.6C121.4,29.4,122.1,28.4,122.1,26.8z"/>
							<path d="M129.1,26.8c0-2.7,1.7-4.4,3.5-4.4c0.9,0,1.5,0.4,2.1,0.9l-0.1-1.3v-3h2.2v12h-1.8l-0.2-0.9h0
								c-0.6,0.6-1.5,1.1-2.3,1.1C130.4,31.2,129.1,29.6,129.1,26.8z M134.7,28.5v-3.7c-0.5-0.5-1-0.6-1.6-0.6
								c-0.9,0-1.7,0.9-1.7,2.6c0,1.7,0.6,2.6,1.7,2.6C133.7,29.4,134.2,29.2,134.7,28.5z"/>
							<path d="M139.2,22.6h1.8l0.1,1.5h0.1c0.6-1.1,1.5-1.7,2.4-1.7c0.5,0,0.7,0.1,1,0.2l-0.4,1.9c-0.3-0.1-0.5-0.1-0.9-0.1
								c-0.7,0-1.5,0.4-1.9,1.7v5h-2.2V22.6z"/>
							<path d="M145.7,27.9v-5.2h2.2v5c0,1.3,0.4,1.8,1.2,1.8c0.7,0,1.1-0.3,1.7-1v-5.7h2.2V31h-1.8l-0.2-1.2H151
								c-0.7,0.9-1.5,1.4-2.7,1.4C146.5,31.2,145.7,30,145.7,27.9z"/>
							<path d="M154.8,32.5c0-0.7,0.4-1.3,1.2-1.7v-0.1c-0.4-0.3-0.8-0.7-0.8-1.4c0-0.6,0.4-1.2,0.9-1.6v-0.1
								c-0.6-0.4-1.1-1.2-1.1-2.2c0-2,1.6-3,3.4-3c0.5,0,0.9,0.1,1.3,0.2h3v1.6h-1.4c0.2,0.3,0.4,0.8,0.4,1.3c0,1.9-1.4,2.8-3.2,2.8
								c-0.3,0-0.7-0.1-1.1-0.2c-0.2,0.2-0.4,0.4-0.4,0.7c0,0.5,0.3,0.7,1.3,0.7h1.4c2,0,3.1,0.6,3.1,2.1c0,1.7-1.8,3-4.6,3
								C156.3,34.6,154.8,34,154.8,32.5z M160.7,32c0-0.6-0.5-0.8-1.4-0.8h-1c-0.5,0-0.9,0-1.2-0.1c-0.4,0.3-0.6,0.6-0.6,1
								c0,0.7,0.8,1.1,2,1.1C159.9,33.2,160.7,32.7,160.7,32z M159.7,25.4c0-1-0.6-1.5-1.3-1.5s-1.3,0.6-1.3,1.5
								c0,1,0.6,1.5,1.3,1.5S159.7,26.4,159.7,25.4z"/>
						</g>
					</g>
					<g transform="translate(376.000000, 0.000000)">
						<path class="st4" d="M8.8,0.8h160.5c4.4,0,8,3.6,8,8v32.5c0,4.4-3.6,8-8,8H8.8c-4.4,0-8-3.6-8-8V8.8C0.8,4.3,4.3,0.8,8.8,0.8z
							"/>
						<g class="st1">
							<path d="M54.4,19.9h2.2V31h-2.2V19.9z"/>
							<path d="M59.1,22.6h1.8l0.1,1.1h0.1c0.7-0.7,1.6-1.3,2.7-1.3c1.8,0,2.6,1.3,2.6,3.4V31h-2.2v-5c0-1.3-0.4-1.8-1.2-1.8
								c-0.7,0-1.1,0.3-1.8,0.9V31h-2.2V22.6z"/>
							<path d="M68.2,26.8c0-2.8,2-4.4,4.3-4.4c1,0,1.8,0.4,2.4,0.9l-1,1.4c-0.4-0.4-0.8-0.6-1.3-0.6c-1.3,0-2.1,1-2.1,2.6
								c0,1.6,0.9,2.6,2.1,2.6c0.6,0,1.2-0.3,1.6-0.7l0.9,1.5c-0.8,0.7-1.8,1-2.7,1C70,31.2,68.2,29.6,68.2,26.8z"/>
							<path d="M76.4,20.1c0-0.7,0.6-1.2,1.3-1.2c0.8,0,1.3,0.5,1.3,1.2c0,0.7-0.6,1.2-1.3,1.2C77,21.2,76.4,20.7,76.4,20.1z
								 M76.7,22.6h2.2V31h-2.2V22.6z"/>
							<path d="M80.7,26.8c0-2.7,1.7-4.4,3.5-4.4c0.9,0,1.5,0.4,2.1,0.9L86.3,22v-3h2.2v12h-1.8l-0.2-0.9h0
								c-0.6,0.6-1.5,1.1-2.3,1.1C82.1,31.2,80.7,29.6,80.7,26.8z M86.3,28.5v-3.7c-0.5-0.5-1-0.6-1.6-0.6c-0.9,0-1.7,0.9-1.7,2.6
								c0,1.7,0.6,2.6,1.7,2.6C85.3,29.4,85.8,29.2,86.3,28.5z"/>
							<path d="M90.3,26.8c0-2.7,1.9-4.4,3.9-4.4c2.3,0,3.5,1.7,3.5,4c0,0.4,0,0.8-0.1,1h-5.2c0.2,1.4,1.1,2.1,2.3,2.1
								c0.7,0,1.3-0.2,1.9-0.6l0.8,1.4c-0.8,0.6-1.9,0.9-2.9,0.9C92.2,31.2,90.3,29.6,90.3,26.8z M95.9,26c0-1.1-0.5-1.9-1.6-1.9
								c-0.9,0-1.7,0.6-1.8,1.9H95.9z"/>
							<path d="M99.6,22.6h1.8l0.2,1.1h0.1c0.7-0.7,1.6-1.3,2.7-1.3c1.8,0,2.6,1.3,2.6,3.4V31h-2.2v-5c0-1.3-0.4-1.8-1.2-1.8
								c-0.7,0-1.1,0.3-1.8,0.9V31h-2.2V22.6z"/>
							<path d="M108.7,26.8c0-2.8,2-4.4,4.3-4.4c1,0,1.8,0.4,2.4,0.9l-1.1,1.4c-0.4-0.4-0.8-0.6-1.3-0.6c-1.3,0-2.1,1-2.1,2.6
								c0,1.6,0.9,2.6,2.1,2.6c0.6,0,1.2-0.3,1.6-0.7l0.9,1.5c-0.8,0.7-1.8,1-2.7,1C110.4,31.2,108.7,29.6,108.7,26.8z"/>
							<path d="M116.1,26.8c0-2.7,1.9-4.4,3.9-4.4c2.3,0,3.5,1.7,3.5,4c0,0.4,0,0.8-0.1,1h-5.2c0.2,1.4,1.1,2.1,2.3,2.1
								c0.7,0,1.3-0.2,1.9-0.6l0.8,1.4c-0.8,0.6-1.9,0.9-2.9,0.9C118,31.2,116.1,29.6,116.1,26.8z M121.7,26c0-1.1-0.5-1.9-1.6-1.9
								c-0.9,0-1.7,0.6-1.8,1.9H121.7z"/>
						</g>
					</g>
					<g transform="translate(564.000000, 0.000000)">
						<path class="st4" d="M8.8,0.8h160.5c4.4,0,8,3.6,8,8v32.5c0,4.4-3.6,8-8,8H8.8c-4.4,0-8-3.6-8-8V8.8C0.8,4.3,4.3,0.8,8.8,0.8z
							"/>
						<g class="st1">
							<path d="M20.4,31l-2.3-4.2h-1.5V31h-2.2V19.9h3.9c2.3,0,4.2,0.8,4.2,3.4c0,1.7-0.8,2.7-2.1,3.2l2.6,4.5H20.4z M16.6,25H18
								c1.4,0,2.2-0.6,2.2-1.8c0-1.2-0.8-1.6-2.2-1.6h-1.4V25z"/>
							<path d="M23.7,26.8c0-2.7,1.9-4.4,3.9-4.4c2.3,0,3.5,1.7,3.5,4c0,0.4,0,0.8-0.1,1h-5.2c0.2,1.4,1.1,2.1,2.3,2.1
								c0.7,0,1.3-0.2,1.9-0.6l0.8,1.4c-0.8,0.6-1.9,0.9-2.9,0.9C25.5,31.2,23.7,29.6,23.7,26.8z M29.2,26c0-1.1-0.5-1.9-1.6-1.9
								c-0.9,0-1.7,0.6-1.8,1.9H29.2z"/>
							<path d="M32.9,28.6V19h2.2v9.7c0,0.5,0.2,0.7,0.5,0.7c0.1,0,0.1,0,0.3,0l0.3,1.6c-0.3,0.1-0.6,0.2-1.1,0.2
								C33.5,31.2,32.9,30.2,32.9,28.6z"/>
							<path d="M37.3,28.7c0-1.8,1.5-2.7,4.8-3.1c0-0.8-0.4-1.5-1.4-1.5c-0.8,0-1.5,0.3-2.3,0.8l-0.8-1.5c1-0.6,2.2-1.1,3.5-1.1
								c2.1,0,3.2,1.3,3.2,3.7V31h-1.8l-0.2-0.9h0c-0.7,0.6-1.6,1.1-2.5,1.1C38.2,31.2,37.3,30.1,37.3,28.7z M42.1,28.7V27
								c-2,0.3-2.7,0.8-2.7,1.6c0,0.7,0.5,0.9,1.1,0.9C41.1,29.5,41.6,29.2,42.1,28.7z"/>
							<path d="M46.6,28.1v-3.7h-1.2v-1.6l1.3-0.1l0.3-2.2h1.8v2.2h2.1v1.7h-2.1v3.7c0,1,0.4,1.4,1.1,1.4c0.3,0,0.6-0.1,0.8-0.2
								l0.4,1.6c-0.5,0.2-1,0.3-1.8,0.3C47.3,31.2,46.6,30,46.6,28.1z"/>
							<path d="M52.3,20.1c0-0.7,0.6-1.2,1.3-1.2c0.8,0,1.3,0.5,1.3,1.2c0,0.7-0.6,1.2-1.3,1.2C52.9,21.2,52.3,20.7,52.3,20.1z
								 M52.6,22.6h2.2V31h-2.2V22.6z"/>
							<path d="M56.6,26.8c0-2.8,1.9-4.4,4-4.4s4,1.6,4,4.4c0,2.8-1.9,4.4-4,4.4S56.6,29.6,56.6,26.8z M62.4,26.8
								c0-1.6-0.6-2.6-1.8-2.6s-1.8,1-1.8,2.6c0,1.6,0.6,2.6,1.8,2.6S62.4,28.4,62.4,26.8z"/>
							<path d="M66.5,22.6h1.8l0.1,1.1h0.1c0.7-0.7,1.6-1.3,2.7-1.3c1.8,0,2.6,1.3,2.6,3.4V31h-2.2v-5c0-1.3-0.4-1.8-1.2-1.8
								c-0.7,0-1.1,0.3-1.8,0.9V31h-2.2V22.6z"/>
							<path d="M75.3,30l1-1.4c0.8,0.6,1.5,0.9,2.2,0.9c0.8,0,1.2-0.4,1.2-0.9c0-0.6-0.9-0.9-1.8-1.3c-1.1-0.4-2.3-1-2.3-2.4
								c0-1.5,1.2-2.6,3.1-2.6c1.2,0,2.2,0.5,2.9,1l-1,1.3c-0.6-0.4-1.2-0.7-1.8-0.7c-0.8,0-1.1,0.3-1.1,0.8c0,0.6,0.8,0.8,1.7,1.2
								c1.1,0.4,2.3,1,2.3,2.5c0,1.5-1.2,2.7-3.3,2.7C77.4,31.2,76.1,30.7,75.3,30z"/>
							<path d="M83.5,19h2.2v3l-0.1,1.6c0.7-0.6,1.5-1.2,2.6-1.2c1.8,0,2.6,1.3,2.6,3.4V31h-2.2v-5c0-1.3-0.4-1.8-1.2-1.8
								c-0.7,0-1.1,0.3-1.8,0.9V31h-2.2V19z"/>
							<path d="M92.9,20.1c0-0.7,0.6-1.2,1.3-1.2c0.8,0,1.3,0.5,1.3,1.2c0,0.7-0.6,1.2-1.3,1.2C93.5,21.2,92.9,20.7,92.9,20.1z
								 M93.1,22.6h2.2V31h-2.2V22.6z"/>
							<path d="M97.7,22.6h1.8l0.1,0.9h0.1c0.7-0.6,1.6-1.1,2.5-1.1c2.1,0,3.3,1.7,3.3,4.3c0,2.9-1.7,4.5-3.6,4.5
								c-0.7,0-1.4-0.3-2.1-0.9l0.1,1.4v2.5h-2.2V22.6z M103.2,26.7c0-1.6-0.5-2.5-1.7-2.5c-0.6,0-1.1,0.3-1.7,0.9v3.7
								c0.5,0.5,1.1,0.6,1.5,0.6C102.4,29.4,103.2,28.5,103.2,26.7z"/>
							<path d="M111.1,28.1v-3.7h-1.2v-1.6l1.3-0.1l0.3-2.2h1.8v2.2h2.1v1.7h-2.1v3.7c0,1,0.4,1.4,1.1,1.4c0.3,0,0.6-0.1,0.8-0.2
								l0.4,1.6c-0.5,0.2-1,0.3-1.8,0.3C111.8,31.2,111.1,30,111.1,28.1z"/>
							<path d="M116.3,26.8c0-2.8,1.9-4.4,4-4.4c2.1,0,4,1.6,4,4.4c0,2.8-1.9,4.4-4,4.4C118.2,31.2,116.3,29.6,116.3,26.8z
								 M122.1,26.8c0-1.6-0.6-2.6-1.8-2.6c-1.1,0-1.8,1-1.8,2.6c0,1.6,0.6,2.6,1.8,2.6C121.4,29.4,122.1,28.4,122.1,26.8z"/>
							<path d="M129.1,26.8c0-2.7,1.7-4.4,3.5-4.4c0.9,0,1.5,0.4,2.1,0.9l-0.1-1.3v-3h2.2v12h-1.8l-0.2-0.9h0
								c-0.6,0.6-1.5,1.1-2.3,1.1C130.4,31.2,129.1,29.6,129.1,26.8z M134.7,28.5v-3.7c-0.5-0.5-1-0.6-1.6-0.6
								c-0.9,0-1.7,0.9-1.7,2.6c0,1.7,0.6,2.6,1.7,2.6C133.7,29.4,134.2,29.2,134.7,28.5z"/>
							<path d="M139.2,22.6h1.8l0.1,1.5h0.1c0.6-1.1,1.5-1.7,2.4-1.7c0.5,0,0.7,0.1,1,0.2l-0.4,1.9c-0.3-0.1-0.5-0.1-0.9-0.1
								c-0.7,0-1.5,0.4-1.9,1.7v5h-2.2V22.6z"/>
							<path d="M145.7,27.9v-5.2h2.2v5c0,1.3,0.4,1.8,1.2,1.8c0.7,0,1.1-0.3,1.7-1v-5.7h2.2V31h-1.8l-0.2-1.2H151
								c-0.7,0.9-1.5,1.4-2.7,1.4C146.5,31.2,145.7,30,145.7,27.9z"/>
							<path d="M154.8,32.5c0-0.7,0.4-1.3,1.2-1.7v-0.1c-0.4-0.3-0.8-0.7-0.8-1.4c0-0.6,0.4-1.2,0.9-1.6v-0.1
								c-0.6-0.4-1.1-1.2-1.1-2.2c0-2,1.6-3,3.4-3c0.5,0,0.9,0.1,1.3,0.2h3v1.6h-1.4c0.2,0.3,0.4,0.8,0.4,1.3c0,1.9-1.4,2.8-3.2,2.8
								c-0.3,0-0.7-0.1-1.1-0.2c-0.2,0.2-0.4,0.4-0.4,0.7c0,0.5,0.3,0.7,1.3,0.7h1.4c2,0,3.1,0.6,3.1,2.1c0,1.7-1.8,3-4.6,3
								C156.3,34.6,154.8,34,154.8,32.5z M160.7,32c0-0.6-0.5-0.8-1.4-0.8h-1c-0.5,0-0.9,0-1.2-0.1c-0.4,0.3-0.6,0.6-0.6,1
								c0,0.7,0.8,1.1,2,1.1C159.9,33.2,160.7,32.7,160.7,32z M159.7,25.4c0-1-0.6-1.5-1.3-1.5s-1.3,0.6-1.3,1.5
								c0,1,0.6,1.5,1.3,1.5S159.7,26.4,159.7,25.4z"/>
						</g>
					</g>
				</g>
			</g>
			<g class="st1">
				<path d="M287.8,7.7h2.1V21h-2.1V7.7z"/>
				<path d="M293.2,11.1h1.7l0.2,1.4h0.1c0.9-0.9,1.9-1.6,3.3-1.6c2.1,0,3,1.4,3,3.9V21h-2.1v-6c0-1.7-0.5-2.4-1.7-2.4
					c-0.9,0-1.5,0.5-2.4,1.3v7h-2.1V11.1z"/>
				<path d="M303.8,16.1c0-3.3,2.3-5.2,4.9-5.2c1.3,0,2.2,0.5,2.9,1.1l-1,1.4c-0.5-0.5-1.1-0.8-1.8-0.8c-1.7,0-2.8,1.4-2.8,3.5
					c0,2.1,1.1,3.5,2.8,3.5c0.8,0,1.6-0.4,2.2-0.9l0.8,1.4c-0.9,0.8-2.1,1.2-3.2,1.2C305.8,21.2,303.8,19.3,303.8,16.1z"/>
				<path d="M313.5,8c0-0.7,0.6-1.2,1.3-1.2s1.3,0.5,1.3,1.2c0,0.7-0.6,1.2-1.3,1.2S313.5,8.7,313.5,8z M313.8,11.1h2.1V21h-2.1
					V11.1z"/>
				<path d="M318.3,16.1c0-3.2,2-5.2,4.2-5.2c1.1,0,1.9,0.4,2.7,1.1l-0.1-1.6V6.6h2.1V21h-1.7l-0.2-1.1h-0.1
					c-0.7,0.8-1.8,1.4-2.9,1.4C319.9,21.2,318.3,19.3,318.3,16.1z M325.1,18.3v-4.8c-0.7-0.7-1.4-0.9-2.2-0.9
					c-1.4,0-2.5,1.3-2.5,3.5c0,2.3,0.9,3.5,2.4,3.5C323.7,19.5,324.4,19.1,325.1,18.3z"/>
				<path d="M329.6,16.1c0-3.2,2.2-5.2,4.5-5.2c2.6,0,4,1.9,4,4.7c0,0.4,0,0.8-0.1,1h-6.4c0.2,1.9,1.4,3,3.1,3
					c0.9,0,1.6-0.3,2.4-0.7l0.7,1.3c-0.9,0.6-2.1,1-3.3,1C331.7,21.2,329.6,19.3,329.6,16.1z M336.3,15.2c0-1.7-0.8-2.7-2.2-2.7
					c-1.2,0-2.3,1-2.5,2.7H336.3z"/>
				<path d="M340.4,11.1h1.7l0.2,1.4h0.1c0.9-0.9,1.9-1.6,3.3-1.6c2.1,0,3,1.4,3,3.9V21h-2.1v-6c0-1.7-0.5-2.4-1.7-2.4
					c-0.9,0-1.5,0.5-2.4,1.3v7h-2.1V11.1z"/>
				<path d="M351,16.1c0-3.3,2.3-5.2,4.9-5.2c1.3,0,2.2,0.5,2.9,1.1l-1,1.4c-0.5-0.5-1.1-0.8-1.8-0.8c-1.7,0-2.8,1.4-2.8,3.5
					c0,2.1,1.1,3.5,2.8,3.5c0.8,0,1.6-0.4,2.2-0.9l0.8,1.4c-0.9,0.8-2.1,1.2-3.2,1.2C353,21.2,351,19.3,351,16.1z"/>
				<path d="M359.8,16.1c0-3.2,2.2-5.2,4.5-5.2c2.6,0,4,1.9,4,4.7c0,0.4,0,0.8-0.1,1h-6.4c0.2,1.9,1.4,3,3.1,3
					c0.9,0,1.6-0.3,2.4-0.7l0.7,1.3c-0.9,0.6-2.1,1-3.3,1C362,21.2,359.8,19.3,359.8,16.1z M366.6,15.2c0-1.7-0.8-2.7-2.2-2.7
					c-1.2,0-2.3,1-2.5,2.7H366.6z"/>
				<path d="M374,16.1c0-3.3,2.2-5.2,4.7-5.2s4.7,1.9,4.7,5.2c0,3.3-2.2,5.2-4.7,5.2S374,19.3,374,16.1z M381.2,16.1
					c0-2.1-1-3.5-2.5-3.5c-1.5,0-2.5,1.4-2.5,3.5c0,2.1,1,3.5,2.5,3.5C380.3,19.5,381.2,18.2,381.2,16.1z"/>
				<path d="M390.5,8.3c-0.4-0.2-0.7-0.3-1.1-0.3c-0.9,0-1.3,0.6-1.3,1.8v1.3h2v1.7h-2V21h-2.1v-8.2h-1.4v-1.5l1.4-0.1V9.9
					c0-2,0.9-3.4,3.1-3.4c0.7,0,1.3,0.1,1.7,0.3L390.5,8.3z"/>
				<path d="M394.9,19.9l1-1.3c0.9,0.7,1.7,1.1,2.8,1.1c1.2,0,1.7-0.6,1.7-1.3c0-0.9-1.1-1.3-2.2-1.7c-1.3-0.5-2.8-1.2-2.8-2.9
					c0-1.7,1.3-2.9,3.5-2.9c1.3,0,2.4,0.5,3.2,1.2l-1,1.3c-0.7-0.5-1.4-0.9-2.2-0.9c-1.1,0-1.6,0.5-1.6,1.2c0,0.8,1,1.2,2.1,1.6
					c1.4,0.5,2.9,1.1,2.9,3c0,1.7-1.3,3-3.8,3C397.3,21.2,395.9,20.7,394.9,19.9z"/>
				<path d="M403.9,16.1c0-3.2,2.2-5.2,4.5-5.2c2.6,0,4,1.9,4,4.7c0,0.4,0,0.8-0.1,1H406c0.2,1.9,1.4,3,3.1,3c0.9,0,1.6-0.3,2.4-0.7
					l0.7,1.3c-0.9,0.6-2.1,1-3.3,1C406.1,21.2,403.9,19.3,403.9,16.1z M410.7,15.2c0-1.7-0.8-2.7-2.2-2.7c-1.2,0-2.3,1-2.5,2.7
					H410.7z"/>
				<path d="M414.8,11.1h1.7l0.2,1.8h0.1c0.7-1.3,1.7-2,2.8-2c0.5,0,0.8,0.1,1.1,0.2l-0.4,1.8c-0.3-0.1-0.6-0.2-1-0.2
					c-0.8,0-1.8,0.6-2.4,2.1V21h-2.1V11.1z"/>
				<path d="M421.9,8c0-0.7,0.6-1.2,1.3-1.2s1.3,0.5,1.3,1.2c0,0.7-0.6,1.2-1.3,1.2S421.9,8.7,421.9,8z M422.2,11.1h2.1V21h-2.1
					V11.1z"/>
				<path d="M426.6,16.1c0-3.3,2.2-5.2,4.7-5.2s4.7,1.9,4.7,5.2c0,3.3-2.2,5.2-4.7,5.2S426.6,19.3,426.6,16.1z M433.8,16.1
					c0-2.1-1-3.5-2.5-3.5c-1.5,0-2.5,1.4-2.5,3.5c0,2.1,1,3.5,2.5,3.5C432.9,19.5,433.8,18.2,433.8,16.1z"/>
				<path d="M438.3,17.3v-6.2h2.1v6c0,1.7,0.5,2.4,1.7,2.4c0.9,0,1.5-0.4,2.4-1.5v-6.9h2.1V21h-1.7l-0.2-1.5h-0.1
					c-0.9,1-1.9,1.7-3.2,1.7C439.2,21.2,438.3,19.8,438.3,17.3z"/>
				<path d="M448.5,19.9l1-1.3c0.9,0.7,1.7,1.1,2.8,1.1c1.2,0,1.7-0.6,1.7-1.3c0-0.9-1.1-1.3-2.2-1.7c-1.3-0.5-2.8-1.2-2.8-2.9
					c0-1.7,1.3-2.9,3.5-2.9c1.3,0,2.4,0.5,3.2,1.2l-1,1.3c-0.7-0.5-1.4-0.9-2.2-0.9c-1.1,0-1.6,0.5-1.6,1.2c0,0.8,1,1.2,2.1,1.6
					c1.4,0.5,2.9,1.1,2.9,3c0,1.7-1.3,3-3.8,3C450.9,21.2,449.5,20.7,448.5,19.9z"/>
				<path d="M461.7,18.4c0-2.1,1.8-3.2,5.9-3.7c0-1.2-0.4-2.2-1.9-2.2c-1,0-2,0.5-2.9,1l-0.8-1.4c1-0.6,2.4-1.3,4-1.3
					c2.5,0,3.6,1.6,3.6,4.2v6H468l-0.2-1.1h-0.1c-0.9,0.8-2,1.4-3.2,1.4C462.9,21.2,461.7,20.1,461.7,18.4z M467.6,18.4V16
					c-2.9,0.4-3.9,1.1-3.9,2.2c0,1,0.7,1.4,1.5,1.4C466.1,19.6,466.8,19.2,467.6,18.4z"/>
				<path d="M471.9,16.1c0-3.2,2-5.2,4.2-5.2c1.1,0,1.9,0.4,2.7,1.1l-0.1-1.6V6.6h2.1V21h-1.7l-0.2-1.1h-0.1
					c-0.7,0.8-1.8,1.4-2.9,1.4C473.5,21.2,471.9,19.3,471.9,16.1z M478.7,18.3v-4.8c-0.7-0.7-1.4-0.9-2.2-0.9
					c-1.4,0-2.5,1.3-2.5,3.5c0,2.3,0.9,3.5,2.4,3.5C477.3,19.5,478,19.1,478.7,18.3z"/>
				<path d="M482.6,11.1h2.1l1.7,5.3c0.3,1,0.6,2,0.9,3h0.1c0.3-1,0.6-2,0.9-3l1.7-5.3h2l-3.4,9.9h-2.4L482.6,11.1z"/>
				<path d="M492.9,16.1c0-3.2,2.2-5.2,4.5-5.2c2.6,0,4,1.9,4,4.7c0,0.4,0,0.8-0.1,1H495c0.2,1.9,1.4,3,3.1,3c0.9,0,1.6-0.3,2.4-0.7
					l0.7,1.3c-0.9,0.6-2.1,1-3.3,1C495.1,21.2,492.9,19.3,492.9,16.1z M499.7,15.2c0-1.7-0.8-2.7-2.2-2.7c-1.2,0-2.3,1-2.5,2.7
					H499.7z"/>
				<path d="M503.8,11.1h1.7l0.2,1.8h0.1c0.7-1.3,1.7-2,2.8-2c0.5,0,0.8,0.1,1.1,0.2l-0.4,1.8c-0.3-0.1-0.6-0.2-1-0.2
					c-0.8,0-1.8,0.6-2.4,2.1V21h-2.1V11.1z"/>
				<path d="M510,19.9l1-1.3c0.9,0.7,1.7,1.1,2.8,1.1c1.2,0,1.7-0.6,1.7-1.3c0-0.9-1.1-1.3-2.2-1.7c-1.3-0.5-2.8-1.2-2.8-2.9
					c0-1.7,1.3-2.9,3.5-2.9c1.3,0,2.4,0.5,3.2,1.2l-1,1.3c-0.7-0.5-1.4-0.9-2.2-0.9c-1.1,0-1.6,0.5-1.6,1.2c0,0.8,1,1.2,2.1,1.6
					c1.4,0.5,2.9,1.1,2.9,3c0,1.7-1.3,3-3.8,3C512.4,21.2,511,20.7,510,19.9z"/>
				<path d="M519,16.1c0-3.2,2.2-5.2,4.5-5.2c2.6,0,4,1.9,4,4.7c0,0.4,0,0.8-0.1,1H521c0.2,1.9,1.4,3,3.1,3c0.9,0,1.6-0.3,2.4-0.7
					l0.7,1.3c-0.9,0.6-2.1,1-3.3,1C521.1,21.2,519,19.3,519,16.1z M525.8,15.2c0-1.7-0.8-2.7-2.2-2.7c-1.2,0-2.3,1-2.5,2.7H525.8z"
					/>
				<path d="M533.2,16.1c0-3.2,2.2-5.2,4.5-5.2c2.6,0,4,1.9,4,4.7c0,0.4,0,0.8-0.1,1h-6.4c0.2,1.9,1.3,3,3.1,3
					c0.9,0,1.6-0.3,2.4-0.7l0.7,1.3c-0.9,0.6-2.1,1-3.3,1C535.3,21.2,533.2,19.3,533.2,16.1z M540,15.2c0-1.7-0.8-2.7-2.2-2.7
					c-1.2,0-2.3,1-2.5,2.7H540z"/>
				<path d="M542.7,11.1h2.1l1.7,5.3c0.3,1,0.6,2,0.9,3h0.1c0.3-1,0.6-2,0.9-3l1.7-5.3h2l-3.4,9.9h-2.4L542.7,11.1z"/>
				<path d="M553.1,16.1c0-3.2,2.2-5.2,4.5-5.2c2.6,0,4,1.9,4,4.7c0,0.4,0,0.8-0.1,1h-6.4c0.2,1.9,1.3,3,3.1,3
					c0.9,0,1.6-0.3,2.4-0.7l0.7,1.3c-0.9,0.6-2.1,1-3.3,1C555.2,21.2,553.1,19.3,553.1,16.1z M559.8,15.2c0-1.7-0.8-2.7-2.2-2.7
					c-1.2,0-2.3,1-2.5,2.7H559.8z"/>
				<path d="M563.9,11.1h1.7l0.2,1.4h0.1c0.9-0.9,1.9-1.6,3.3-1.6c2.1,0,3,1.4,3,3.9V21h-2.1v-6c0-1.7-0.5-2.4-1.7-2.4
					c-0.9,0-1.5,0.5-2.4,1.3v7h-2.1V11.1z"/>
				<path d="M575.5,17.8v-5h-1.4v-1.5l1.5-0.1l0.2-2.7h1.7v2.7h2.6v1.7h-2.6v5c0,1.2,0.4,1.8,1.4,1.8c0.3,0,0.8-0.1,1.1-0.2l0.4,1.5
					c-0.6,0.2-1.2,0.4-1.9,0.4C576.3,21.2,575.5,19.8,575.5,17.8z"/>
				<path d="M581.1,19.9l1-1.3c0.9,0.7,1.7,1.1,2.8,1.1c1.2,0,1.7-0.6,1.7-1.3c0-0.9-1.1-1.3-2.2-1.7c-1.3-0.5-2.8-1.2-2.8-2.9
					c0-1.7,1.3-2.9,3.5-2.9c1.3,0,2.4,0.5,3.2,1.2l-1,1.3c-0.7-0.5-1.4-0.9-2.2-0.9c-1.1,0-1.6,0.5-1.6,1.2c0,0.8,1,1.2,2.1,1.6
					c1.4,0.5,2.9,1.1,2.9,3c0,1.7-1.3,3-3.8,3C583.4,21.2,582,20.7,581.1,19.9z"/>
				<path d="M594.2,18.4c0-2.1,1.8-3.2,5.9-3.7c0-1.2-0.4-2.2-1.9-2.2c-1,0-2,0.5-2.9,1l-0.8-1.4c1-0.6,2.4-1.3,4-1.3
					c2.5,0,3.6,1.6,3.6,4.2v6h-1.7l-0.2-1.1h-0.1c-0.9,0.8-2,1.4-3.2,1.4C595.4,21.2,594.2,20.1,594.2,18.4z M600.1,18.4V16
					c-2.9,0.4-3.9,1.1-3.9,2.2c0,1,0.7,1.4,1.5,1.4C598.6,19.6,599.3,19.2,600.1,18.4z"/>
				<path d="M605.1,11.1h1.7l0.2,1.4h0.1c0.9-0.9,1.9-1.6,3.3-1.6c2.1,0,3,1.4,3,3.9V21h-2.1v-6c0-1.7-0.5-2.4-1.7-2.4
					c-0.9,0-1.5,0.5-2.4,1.3v7h-2.1V11.1z"/>
				<path d="M615.7,16.1c0-3.2,2-5.2,4.2-5.2c1.1,0,1.9,0.4,2.7,1.1l-0.1-1.6V6.6h2.1V21h-1.7l-0.2-1.1h-0.1
					c-0.7,0.8-1.8,1.4-2.9,1.4C617.3,21.2,615.7,19.3,615.7,16.1z M622.5,18.3v-4.8c-0.7-0.7-1.4-0.9-2.2-0.9
					c-1.4,0-2.5,1.3-2.5,3.5c0,2.3,0.9,3.5,2.4,3.5C621.1,19.5,621.8,19.1,622.5,18.3z"/>
				<path d="M631.1,16.1c0-3.3,2.2-5.2,4.7-5.2c2.4,0,4.7,1.9,4.7,5.2c0,3.3-2.2,5.2-4.7,5.2C633.3,21.2,631.1,19.3,631.1,16.1z
					 M638.3,16.1c0-2.1-1-3.5-2.5-3.5c-1.5,0-2.5,1.4-2.5,3.5c0,2.1,1,3.5,2.5,3.5C637.3,19.5,638.3,18.2,638.3,16.1z"/>
				<path d="M642.7,17.3v-6.2h2.1v6c0,1.7,0.5,2.4,1.7,2.4c0.9,0,1.5-0.4,2.4-1.5v-6.9h2.1V21h-1.7l-0.2-1.5H649
					c-0.9,1-1.9,1.7-3.2,1.7C643.6,21.2,642.7,19.8,642.7,17.3z"/>
				<path d="M654.3,17.8v-5h-1.4v-1.5l1.5-0.1l0.2-2.7h1.7v2.7h2.6v1.7h-2.6v5c0,1.2,0.4,1.8,1.4,1.8c0.3,0,0.8-0.1,1.1-0.2l0.4,1.5
					c-0.6,0.2-1.2,0.4-1.9,0.4C655.1,21.2,654.3,19.8,654.3,17.8z"/>
				<path d="M660.1,16.1c0-3.3,2.3-5.2,4.9-5.2c1.3,0,2.2,0.5,2.9,1.1l-1,1.4c-0.5-0.5-1.1-0.8-1.8-0.8c-1.7,0-2.8,1.4-2.8,3.5
					c0,2.1,1.1,3.5,2.8,3.5c0.8,0,1.6-0.4,2.2-0.9L668,20c-0.9,0.8-2.1,1.2-3.2,1.2C662.2,21.2,660.1,19.3,660.1,16.1z"/>
				<path d="M668.9,16.1c0-3.3,2.2-5.2,4.7-5.2c2.4,0,4.7,1.9,4.7,5.2c0,3.3-2.2,5.2-4.7,5.2C671.2,21.2,668.9,19.3,668.9,16.1z
					 M676.1,16.1c0-2.1-1-3.5-2.5-3.5c-1.5,0-2.5,1.4-2.5,3.5c0,2.1,1,3.5,2.5,3.5C675.2,19.5,676.1,18.2,676.1,16.1z"/>
				<path d="M680.7,11.1h1.7l0.2,1.4h0.1c0.8-0.9,1.8-1.6,3.1-1.6c1.5,0,2.3,0.7,2.7,1.8c1-1,2-1.8,3.2-1.8c2.1,0,3,1.4,3,3.9V21
					h-2.1v-6c0-1.7-0.5-2.4-1.7-2.4c-0.7,0-1.4,0.5-2.2,1.3v7h-2.1v-6c0-1.7-0.5-2.4-1.7-2.4c-0.7,0-1.4,0.5-2.2,1.3v7h-2.1V11.1z"
					/>
				<path d="M696.9,16.1c0-3.2,2.2-5.2,4.5-5.2c2.6,0,4,1.9,4,4.7c0,0.4,0,0.8-0.1,1H699c0.2,1.9,1.3,3,3.1,3c0.9,0,1.6-0.3,2.4-0.7
					l0.7,1.3c-0.9,0.6-2.1,1-3.3,1C699.1,21.2,696.9,19.3,696.9,16.1z M703.7,15.2c0-1.7-0.8-2.7-2.2-2.7c-1.2,0-2.3,1-2.5,2.7
					H703.7z"/>
				<path d="M706.8,19.9l1-1.3c0.9,0.7,1.7,1.1,2.8,1.1c1.2,0,1.7-0.6,1.7-1.3c0-0.9-1.1-1.3-2.2-1.7c-1.3-0.5-2.8-1.2-2.8-2.9
					c0-1.7,1.3-2.9,3.5-2.9c1.3,0,2.4,0.5,3.2,1.2l-1,1.3c-0.7-0.5-1.4-0.9-2.2-0.9c-1.1,0-1.6,0.5-1.6,1.2c0,0.8,1,1.2,2.1,1.6
					c1.4,0.5,2.9,1.1,2.9,3c0,1.7-1.3,3-3.8,3C709.1,21.2,707.7,20.7,706.8,19.9z"/>
			</g>
			<g id="cell2" transform="translate(0.000000, 242.000000)">
				<g class="st1">
					<path d="M23.2,57.3l1.5-1.8c1,0.9,2.2,1.5,3.4,1.5c1.4,0,2.1-0.6,2.1-1.5c0-1-0.8-1.3-2-1.8l-1.8-0.8c-1.4-0.6-2.7-1.6-2.7-3.6
						c0-2.2,1.9-3.9,4.6-3.9c1.5,0,3.1,0.6,4.2,1.7l-1.4,1.7c-0.8-0.7-1.7-1.1-2.8-1.1c-1.2,0-1.9,0.5-1.9,1.4c0,1,1,1.3,2.1,1.7
						l1.7,0.7c1.6,0.7,2.7,1.7,2.7,3.6c0,2.2-1.8,4-4.9,4C26.3,59.3,24.5,58.5,23.2,57.3z"/>
					<path d="M34.5,54c0-3.3,2.3-5.3,4.7-5.3c2.8,0,4.2,2,4.2,4.8c0,0.5-0.1,1-0.1,1.2h-6.2c0.2,1.7,1.3,2.5,2.8,2.5
						c0.8,0,1.5-0.3,2.3-0.7l0.9,1.6c-1,0.7-2.3,1.1-3.5,1.1C36.7,59.3,34.5,57.3,34.5,54z M41.1,53c0-1.4-0.6-2.2-1.9-2.2
						c-1.1,0-2,0.8-2.2,2.2H41.1z"/>
					<path d="M45.6,48.9h2.2l0.2,1.8H48c0.7-1.3,1.8-2,2.9-2c0.6,0,0.9,0.1,1.2,0.2l-0.5,2.3c-0.3-0.1-0.6-0.2-1-0.2
						c-0.8,0-1.7,0.5-2.3,2v6h-2.6V48.9z"/>
					<path d="M53.2,45.9c0-0.9,0.7-1.4,1.6-1.4c0.9,0,1.6,0.6,1.6,1.4c0,0.8-0.7,1.4-1.6,1.4C53.9,47.3,53.2,46.7,53.2,45.9z
						 M53.4,48.9h2.6V59h-2.6V48.9z"/>
					<path d="M58.3,54c0-3.4,2.3-5.3,4.8-5.3c2.5,0,4.8,1.9,4.8,5.3c0,3.3-2.3,5.3-4.8,5.3C60.6,59.3,58.3,57.3,58.3,54z M65.3,54
						c0-1.9-0.8-3.2-2.1-3.2c-1.4,0-2.1,1.2-2.1,3.2c0,1.9,0.8,3.1,2.1,3.1C64.5,57.1,65.3,55.9,65.3,54z"/>
					<path d="M70.1,55.2v-6.3h2.6v6c0,1.6,0.4,2.1,1.4,2.1c0.8,0,1.4-0.4,2.1-1.3v-6.8h2.6V59h-2.2l-0.2-1.4h-0.1
						c-0.9,1-1.8,1.7-3.2,1.7C71,59.3,70.1,57.7,70.1,55.2z"/>
					<path d="M80.7,57.8l1.2-1.7c0.9,0.7,1.8,1.1,2.7,1.1c1,0,1.5-0.4,1.5-1.1c0-0.8-1-1.1-2.1-1.5c-1.3-0.5-2.8-1.3-2.8-2.9
						c0-1.8,1.5-3.1,3.7-3.1c1.5,0,2.6,0.6,3.4,1.2l-1.2,1.6c-0.7-0.5-1.4-0.9-2.2-0.9c-0.9,0-1.3,0.4-1.3,1c0,0.7,1,1,2.1,1.4
						c1.3,0.5,2.8,1.2,2.8,3c0,1.8-1.4,3.2-4,3.2C83.2,59.3,81.7,58.7,80.7,57.8z"/>
					<path d="M101.1,55.6h-4.3L95.8,59h-2.7l4.3-13.3h3.1l4.3,13.3H102L101.1,55.6z M100.5,53.5l-0.4-1.5c-0.4-1.4-0.8-2.9-1.2-4.4
						h-0.1c-0.3,1.5-0.7,3-1.1,4.4l-0.4,1.5H100.5z"/>
					<path d="M105.6,54c0-3.3,2.1-5.3,4.2-5.3c1.1,0,1.8,0.4,2.6,1.1l-0.1-1.6v-3.5h2.6V59h-2.1l-0.2-1h-0.1
						c-0.7,0.7-1.7,1.3-2.8,1.3C107.2,59.3,105.6,57.3,105.6,54z M112.3,56v-4.4c-0.6-0.6-1.2-0.8-1.9-0.8c-1.1,0-2.1,1.1-2.1,3.1
						c0,2.1,0.8,3.1,2.1,3.1C111.1,57.1,111.7,56.8,112.3,56z"/>
					<path d="M116.6,48.9h2.7l1.5,5c0.3,1,0.5,2,0.8,3.1h0.1c0.3-1,0.5-2.1,0.8-3.1l1.5-5h2.5L123.1,59H120L116.6,48.9z"/>
					<path d="M127.4,54c0-3.3,2.3-5.3,4.7-5.3c2.8,0,4.2,2,4.2,4.8c0,0.5-0.1,1-0.1,1.2h-6.2c0.2,1.7,1.3,2.5,2.8,2.5
						c0.8,0,1.5-0.3,2.3-0.7l0.9,1.6c-1,0.7-2.3,1.1-3.5,1.1C129.6,59.3,127.4,57.3,127.4,54z M134,53c0-1.4-0.6-2.2-1.9-2.2
						c-1.1,0-2,0.8-2.2,2.2H134z"/>
					<path d="M138.5,48.9h2.2l0.2,1.8h0.1c0.7-1.3,1.8-2,2.9-2c0.6,0,0.9,0.1,1.2,0.2l-0.5,2.3c-0.3-0.1-0.6-0.2-1-0.2
						c-0.8,0-1.7,0.5-2.3,2v6h-2.6V48.9z"/>
					<path d="M145.2,57.8l1.2-1.7c0.9,0.7,1.8,1.1,2.7,1.1c1,0,1.5-0.4,1.5-1.1c0-0.8-1-1.1-2.1-1.5c-1.3-0.5-2.8-1.3-2.8-2.9
						c0-1.8,1.5-3.1,3.7-3.1c1.5,0,2.6,0.6,3.4,1.2l-1.2,1.6c-0.7-0.5-1.4-0.9-2.2-0.9c-0.9,0-1.3,0.4-1.3,1c0,0.7,1,1,2.1,1.4
						c1.3,0.5,2.8,1.2,2.8,3c0,1.8-1.4,3.2-4,3.2C147.7,59.3,146.2,58.7,145.2,57.8z"/>
					<path d="M154.4,54c0-3.3,2.3-5.3,4.7-5.3c2.8,0,4.2,2,4.2,4.8c0,0.5-0.1,1-0.1,1.2H157c0.2,1.7,1.3,2.5,2.8,2.5
						c0.8,0,1.5-0.3,2.3-0.7l0.9,1.6c-1,0.7-2.3,1.1-3.5,1.1C156.6,59.3,154.4,57.3,154.4,54z M161.1,53c0-1.4-0.6-2.2-1.9-2.2
						c-1.1,0-2,0.8-2.2,2.2H161.1z"/>
					<path d="M169.8,45.7h8.2v2.2h-5.5V51h4.7v2.2h-4.7v3.6h5.7V59h-8.4V45.7z"/>
					<path d="M179.3,48.9h2.7l1.5,5c0.3,1,0.5,2,0.8,3.1h0.1c0.3-1,0.5-2.1,0.8-3.1l1.5-5h2.5L185.8,59h-3.1L179.3,48.9z"/>
					<path d="M190.1,54c0-3.3,2.3-5.3,4.7-5.3c2.8,0,4.2,2,4.2,4.8c0,0.5-0.1,1-0.1,1.2h-6.2c0.2,1.7,1.3,2.5,2.8,2.5
						c0.8,0,1.5-0.3,2.3-0.7l0.9,1.6c-1,0.7-2.3,1.1-3.5,1.1C192.3,59.3,190.1,57.3,190.1,54z M196.7,53c0-1.4-0.6-2.2-1.9-2.2
						c-1.1,0-2,0.8-2.2,2.2H196.7z"/>
					<path d="M201.1,48.9h2.2l0.2,1.3h0.1c0.9-0.9,1.9-1.6,3.3-1.6c2.2,0,3.1,1.5,3.1,4.1V59h-2.6v-6c0-1.5-0.4-2.1-1.4-2.1
						c-0.8,0-1.4,0.4-2.1,1.1V59h-2.6V48.9z"/>
					<path d="M213.1,55.5V51h-1.4v-2l1.5-0.1l0.3-2.7h2.2v2.7h2.5V51h-2.5v4.5c0,1.2,0.5,1.7,1.4,1.7c0.3,0,0.7-0.1,1-0.2l0.4,1.9
						c-0.5,0.2-1.2,0.4-2.1,0.4C214,59.3,213.1,57.7,213.1,55.5z"/>
					<path d="M219.1,57.8l1.2-1.7c0.9,0.7,1.8,1.1,2.7,1.1c1,0,1.5-0.4,1.5-1.1c0-0.8-1-1.1-2.1-1.5c-1.3-0.5-2.8-1.3-2.8-2.9
						c0-1.8,1.5-3.1,3.7-3.1c1.5,0,2.6,0.6,3.4,1.2l-1.2,1.6c-0.7-0.5-1.4-0.9-2.2-0.9c-0.9,0-1.3,0.4-1.3,1c0,0.7,1,1,2.1,1.4
						c1.3,0.5,2.8,1.2,2.8,3c0,1.8-1.4,3.2-4,3.2C221.6,59.3,220.1,58.7,219.1,57.8z"/>
				</g>
				<g class="st1">
					<path d="M334.9,84.8c3.9-3.5,5.9-6,5.9-8.2c0-1.4-0.8-2.4-2.3-2.4c-1,0-1.9,0.7-2.6,1.5l-1.2-1.2c1.1-1.2,2.3-2,4-2
						c2.4,0,4,1.6,4,4c0,2.6-2,5.2-4.8,7.9c0.7-0.1,1.5-0.1,2.2-0.1h3.3V86h-8.6V84.8z"/>
					<path d="M345.2,79.3c0-4.6,1.7-6.8,4.3-6.8c2.6,0,4.3,2.3,4.3,6.8c0,4.6-1.7,6.9-4.3,6.9C346.9,86.2,345.2,83.9,345.2,79.3z
						 M351.8,79.3c0-3.8-1-5.2-2.3-5.2c-1.4,0-2.3,1.4-2.3,5.2c0,3.8,1,5.3,2.3,5.3C350.9,84.6,351.8,83.2,351.8,79.3z"/>
					<path d="M355.4,84.8c3.9-3.5,5.9-6,5.9-8.2c0-1.4-0.8-2.4-2.3-2.4c-1,0-1.9,0.7-2.6,1.5l-1.2-1.2c1.1-1.2,2.3-2,4-2
						c2.4,0,4,1.6,4,4c0,2.6-2,5.2-4.8,7.9c0.7-0.1,1.5-0.1,2.2-0.1h3.3V86h-8.6V84.8z"/>
				</g>
				<g class="st1">
					<path d="M488.7,84.3h2.9v-9.2h-2.4v-1.3c1.2-0.2,2.1-0.5,2.9-1h1.6v11.5h2.6V86h-7.6V84.3z"/>
					<path d="M505.6,75.2c-0.5-0.6-1.3-1-2.1-1c-1.7,0-3.1,1.3-3.2,5.1c0.8-1,1.9-1.5,2.9-1.5c2.2,0,3.7,1.4,3.7,4.2
						c0,2.6-1.8,4.3-4,4.3c-2.5,0-4.6-2.1-4.6-6.6c0-5.1,2.4-7.1,5-7.1c1.5,0,2.6,0.6,3.3,1.4L505.6,75.2z M505,81.9
						c0-1.7-0.8-2.7-2.2-2.7c-0.8,0-1.7,0.4-2.5,1.5c0.2,2.6,1.2,3.9,2.6,3.9C504.1,84.6,505,83.6,505,81.9z"/>
					<path d="M508.5,84.8c3.9-3.5,5.9-6,5.9-8.2c0-1.4-0.8-2.4-2.2-2.4c-1,0-1.9,0.7-2.6,1.5l-1.2-1.2c1.1-1.2,2.3-2,4-2
						c2.4,0,4,1.6,4,4c0,2.6-2,5.2-4.8,7.9c0.7-0.1,1.5-0.1,2.2-0.1h3.3V86h-8.6V84.8z"/>
					<path d="M523.6,80.4c0-3.5,1-6.5,2.7-9.2l1.3,0.6c-1.5,2.6-2.3,5.6-2.3,8.6c0,3,0.7,6.1,2.3,8.6l-1.3,0.6
						C524.6,86.8,523.6,83.9,523.6,80.4z"/>
					<path d="M529.2,82.7c0-1.7,1.2-2.9,2.4-3.6V79c-1-0.7-1.8-1.7-1.8-3.1c0-2.1,1.6-3.4,3.8-3.4c2.3,0,3.7,1.4,3.7,3.5
						c0,1.4-0.9,2.5-1.7,3.1v0.1c1.2,0.7,2.2,1.7,2.2,3.5c0,2-1.7,3.5-4.3,3.5C531.1,86.2,529.2,84.8,529.2,82.7z M535.9,82.7
						c0-1.6-1.5-2.2-3.3-3c-0.9,0.6-1.5,1.6-1.5,2.8c0,1.3,1.1,2.2,2.5,2.2C534.9,84.7,535.9,83.9,535.9,82.7z M535.6,76.2
						c0-1.2-0.7-2.1-2-2.1c-1.1,0-1.9,0.7-1.9,1.9c0,1.4,1.3,2.1,2.7,2.7C535.2,77.9,535.6,77.1,535.6,76.2z"/>
					<path d="M539.5,79.3c0-4.6,1.7-6.8,4.3-6.8c2.6,0,4.3,2.3,4.3,6.8c0,4.6-1.7,6.9-4.3,6.9C541.2,86.2,539.5,83.9,539.5,79.3z
						 M546.1,79.3c0-3.8-1-5.2-2.3-5.2c-1.3,0-2.3,1.4-2.3,5.2c0,3.8,1,5.3,2.3,5.3C545.1,84.6,546.1,83.2,546.1,79.3z"/>
					<path d="M550.2,84.8c0-0.8,0.6-1.5,1.4-1.5c0.8,0,1.4,0.6,1.4,1.5c0,0.8-0.6,1.4-1.4,1.4C550.8,86.2,550.2,85.6,550.2,84.8z"/>
					<path d="M555.1,84.8c3.9-3.5,5.9-6,5.9-8.2c0-1.4-0.8-2.4-2.3-2.4c-1,0-1.9,0.7-2.6,1.5l-1.2-1.2c1.1-1.2,2.3-2,4-2
						c2.4,0,4,1.6,4,4c0,2.6-2,5.2-4.8,7.9c0.7-0.1,1.5-0.1,2.2-0.1h3.3V86h-8.6V84.8z"/>
					<path d="M565.2,76.7c0-2.7,1.2-4.2,3.1-4.2s3.1,1.5,3.1,4.2c0,2.7-1.3,4.2-3.1,4.2S565.2,79.3,565.2,76.7z M569.9,76.7
						c0-2.1-0.7-3-1.6-3c-0.9,0-1.6,0.9-1.6,3c0,2,0.7,3,1.6,3C569.2,79.7,569.9,78.7,569.9,76.7z M576,72.5h1.3L570,86.2h-1.3
						L576,72.5z M574.6,82c0-2.7,1.3-4.2,3.1-4.2c1.8,0,3.1,1.5,3.1,4.2c0,2.7-1.3,4.2-3.1,4.2C575.8,86.2,574.6,84.7,574.6,82z
						 M579.3,82c0-2.1-0.7-3-1.6-3c-0.9,0-1.6,0.9-1.6,3c0,2,0.7,3,1.6,3C578.6,85,579.3,84.1,579.3,82z"/>
					<path d="M582.3,89c1.5-2.6,2.3-5.6,2.3-8.6c0-3-0.7-6-2.3-8.6l1.3-0.6c1.7,2.7,2.7,5.7,2.7,9.2c0,3.6-1,6.5-2.7,9.2L582.3,89z"
						/>
				</g>
				<g class="st1">
					<path d="M711.7,84.3h2.9v-9.2h-2.4v-1.3c1.2-0.2,2.1-0.5,2.9-1h1.6v11.5h2.6V86h-7.6V84.3z"/>
					<path d="M720.9,84.4l1-1.3c0.8,0.8,1.8,1.5,3.1,1.5c1.5,0,2.5-0.8,2.5-2.2c0-1.5-0.9-2.4-3.9-2.4v-1.5c2.6,0,3.5-1,3.5-2.3
						c0-1.2-0.8-1.9-2-1.9c-1,0-1.9,0.5-2.6,1.3l-1.1-1.3c1-0.9,2.3-1.6,3.8-1.6c2.4,0,4.1,1.2,4.1,3.4c0,1.5-0.9,2.6-2.3,3.1v0.1
						c1.5,0.4,2.7,1.5,2.7,3.3c0,2.4-2,3.8-4.4,3.8C723.1,86.2,721.8,85.4,720.9,84.4z"/>
					<path d="M732.2,84.3h2.9v-9.2h-2.4v-1.3c1.2-0.2,2.1-0.5,2.9-1h1.6v11.5h2.6V86h-7.6V84.3z"/>
				</g>
				<g class="st1">
					<path d="M867.2,72.7h2.1l4.4,7.8l1.4,2.8h0.1c-0.1-1.4-0.3-3-0.3-4.4v-6.2h2V86h-2.1l-4.4-7.8l-1.4-2.8h-0.1
						c0.1,1.4,0.3,2.9,0.3,4.3V86h-2V72.7z"/>
					<path d="M879.5,81.1c0-3.3,2.2-5.2,4.7-5.2c2.4,0,4.7,1.9,4.7,5.2c0,3.3-2.2,5.2-4.7,5.2C881.7,86.2,879.5,84.3,879.5,81.1z
						 M886.7,81.1c0-2.1-1-3.5-2.5-3.5c-1.5,0-2.5,1.4-2.5,3.5c0,2.1,1,3.5,2.5,3.5C885.8,84.5,886.7,83.2,886.7,81.1z"/>
					<path d="M891.2,82.8v-5h-1.4v-1.5l1.5-0.1l0.2-2.7h1.7v2.7h2.6v1.7h-2.6v5c0,1.2,0.4,1.8,1.4,1.8c0.3,0,0.8-0.1,1.1-0.2
						l0.4,1.5c-0.6,0.2-1.2,0.4-1.9,0.4C892,86.2,891.2,84.8,891.2,82.8z"/>
					<path d="M902,76.1h1.7l0.2,1.8h0.1c0.7-1.3,1.7-2,2.8-2c0.5,0,0.8,0.1,1.1,0.2l-0.4,1.8c-0.3-0.1-0.6-0.2-1-0.2
						c-0.8,0-1.8,0.6-2.4,2.1V86H902V76.1z"/>
					<path d="M908.5,81.1c0-3.2,2.2-5.2,4.5-5.2c2.6,0,4,1.9,4,4.7c0,0.4,0,0.8-0.1,1h-6.4c0.2,1.9,1.4,3,3.1,3
						c0.9,0,1.6-0.3,2.4-0.7l0.7,1.3c-0.9,0.6-2.1,1-3.3,1C910.6,86.2,908.5,84.3,908.5,81.1z M915.3,80.2c0-1.7-0.8-2.7-2.2-2.7
						c-1.2,0-2.3,1-2.5,2.7H915.3z"/>
					<path d="M919.4,83.7v-12h2.1v12.1c0,0.6,0.3,0.8,0.5,0.8c0.1,0,0.2,0,0.3,0l0.3,1.6c-0.3,0.1-0.6,0.2-1.1,0.2
						C919.9,86.2,919.4,85.3,919.4,83.7z"/>
					<path d="M924.2,83.4c0-2.1,1.8-3.2,5.9-3.7c0-1.2-0.4-2.2-1.9-2.2c-1,0-2,0.5-2.9,1l-0.8-1.4c1-0.6,2.4-1.3,4-1.3
						c2.5,0,3.6,1.6,3.6,4.2v6h-1.7l-0.2-1.1h-0.1c-0.9,0.8-2,1.4-3.2,1.4C925.4,86.2,924.2,85.1,924.2,83.4z M930.1,83.4V81
						c-2.9,0.4-3.9,1.1-3.9,2.2c0,1,0.7,1.4,1.5,1.4C928.6,84.6,929.3,84.2,930.1,83.4z"/>
					<path d="M935.1,82.8v-5h-1.4v-1.5l1.5-0.1l0.2-2.7h1.7v2.7h2.6v1.7h-2.6v5c0,1.2,0.4,1.8,1.4,1.8c0.3,0,0.8-0.1,1.1-0.2
						l0.4,1.5c-0.6,0.2-1.2,0.4-1.9,0.4C935.9,86.2,935.1,84.8,935.1,82.8z"/>
					<path d="M940.9,81.1c0-3.2,2.2-5.2,4.5-5.2c2.6,0,4,1.9,4,4.7c0,0.4,0,0.8-0.1,1h-6.4c0.2,1.9,1.4,3,3.1,3
						c0.9,0,1.6-0.3,2.4-0.7l0.7,1.3c-0.9,0.6-2.1,1-3.3,1C943,86.2,940.9,84.3,940.9,81.1z M947.7,80.2c0-1.7-0.8-2.7-2.2-2.7
						c-1.2,0-2.3,1-2.5,2.7H947.7z"/>
					<path d="M951.1,81.1c0-3.2,2-5.2,4.2-5.2c1.1,0,1.9,0.4,2.7,1.1l-0.1-1.6v-3.7h2.1V86h-1.7l-0.2-1.1h-0.1
						c-0.7,0.8-1.8,1.4-2.9,1.4C952.7,86.2,951.1,84.3,951.1,81.1z M957.9,83.3v-4.8c-0.7-0.7-1.4-0.9-2.2-0.9
						c-1.4,0-2.5,1.3-2.5,3.5c0,2.3,0.9,3.5,2.4,3.5C956.5,84.5,957.2,84.1,957.9,83.3z"/>
				</g>
				<path class="st3" d="M0,113h1000"/>
				<g transform="translate(258.000000, 0.000000)">
					<g>
						<path class="st4" d="M8.8,0.8h160.5c4.4,0,8,3.6,8,8v32.5c0,4.4-3.6,8-8,8H8.8c-4.4,0-8-3.6-8-8V8.8C0.8,4.3,4.3,0.8,8.8,0.8z
							"/>
						<g class="st1">
							<path d="M54.4,19.9h2.2V31h-2.2V19.9z"/>
							<path d="M59.1,22.6h1.8l0.1,1.1h0.1c0.7-0.7,1.6-1.3,2.7-1.3c1.8,0,2.6,1.3,2.6,3.4V31h-2.2v-5c0-1.3-0.4-1.8-1.2-1.8
								c-0.7,0-1.1,0.3-1.8,0.9V31h-2.2V22.6z"/>
							<path d="M68.2,26.8c0-2.8,2-4.4,4.3-4.4c1,0,1.8,0.4,2.4,0.9l-1,1.4c-0.4-0.4-0.8-0.6-1.3-0.6c-1.3,0-2.1,1-2.1,2.6
								c0,1.6,0.9,2.6,2.1,2.6c0.6,0,1.2-0.3,1.6-0.7l0.9,1.5c-0.8,0.7-1.8,1-2.7,1C70,31.2,68.2,29.6,68.2,26.8z"/>
							<path d="M76.4,20.1c0-0.7,0.6-1.2,1.3-1.2c0.8,0,1.3,0.5,1.3,1.2c0,0.7-0.6,1.2-1.3,1.2C77,21.2,76.4,20.7,76.4,20.1z
								 M76.7,22.6h2.2V31h-2.2V22.6z"/>
							<path d="M80.7,26.8c0-2.7,1.7-4.4,3.5-4.4c0.9,0,1.5,0.4,2.1,0.9L86.3,22v-3h2.2v12h-1.8l-0.2-0.9h0
								c-0.6,0.6-1.5,1.1-2.3,1.1C82.1,31.2,80.7,29.6,80.7,26.8z M86.3,28.5v-3.7c-0.5-0.5-1-0.6-1.6-0.6c-0.9,0-1.7,0.9-1.7,2.6
								c0,1.7,0.6,2.6,1.7,2.6C85.3,29.4,85.8,29.2,86.3,28.5z"/>
							<path d="M90.3,26.8c0-2.7,1.9-4.4,3.9-4.4c2.3,0,3.5,1.7,3.5,4c0,0.4,0,0.8-0.1,1h-5.2c0.2,1.4,1.1,2.1,2.3,2.1
								c0.7,0,1.3-0.2,1.9-0.6l0.8,1.4c-0.8,0.6-1.9,0.9-2.9,0.9C92.2,31.2,90.3,29.6,90.3,26.8z M95.9,26c0-1.1-0.5-1.9-1.6-1.9
								c-0.9,0-1.7,0.6-1.8,1.9H95.9z"/>
							<path d="M99.6,22.6h1.8l0.1,1.1h0.1c0.7-0.7,1.6-1.3,2.7-1.3c1.8,0,2.6,1.3,2.6,3.4V31h-2.2v-5c0-1.3-0.4-1.8-1.2-1.8
								c-0.7,0-1.1,0.3-1.8,0.9V31h-2.2V22.6z"/>
							<path d="M108.7,26.8c0-2.8,2-4.4,4.3-4.4c1,0,1.8,0.4,2.4,0.9l-1,1.4c-0.4-0.4-0.8-0.6-1.3-0.6c-1.3,0-2.1,1-2.1,2.6
								c0,1.6,0.9,2.6,2.1,2.6c0.6,0,1.2-0.3,1.6-0.7l0.9,1.5c-0.8,0.7-1.8,1-2.7,1C110.4,31.2,108.7,29.6,108.7,26.8z"/>
							<path d="M116.1,26.8c0-2.7,1.9-4.4,3.9-4.4c2.3,0,3.5,1.7,3.5,4c0,0.4,0,0.8-0.1,1h-5.2c0.2,1.4,1.1,2.1,2.3,2.1
								c0.7,0,1.3-0.2,1.9-0.6l0.8,1.4c-0.8,0.6-1.9,0.9-2.9,0.9C118,31.2,116.1,29.6,116.1,26.8z M121.7,26c0-1.1-0.5-1.9-1.6-1.9
								c-0.9,0-1.7,0.6-1.8,1.9H121.7z"/>
						</g>
					</g>
					<g transform="translate(188.000000, 0.000000)">
						<path class="st4" d="M8.8,0.8h160.5c4.4,0,8,3.6,8,8v32.5c0,4.4-3.6,8-8,8H8.8c-4.4,0-8-3.6-8-8V8.8C0.8,4.3,4.3,0.8,8.8,0.8z
							"/>
						<g class="st1">
							<path d="M62.3,31L60,26.8h-1.5V31h-2.2V19.9h3.9c2.3,0,4.2,0.8,4.2,3.4c0,1.7-0.8,2.7-2.1,3.2l2.6,4.5H62.3z M58.5,25h1.4
								c1.4,0,2.2-0.6,2.2-1.8c0-1.2-0.8-1.6-2.2-1.6h-1.4V25z"/>
							<path d="M65.6,26.8c0-2.7,1.9-4.4,3.9-4.4c2.3,0,3.5,1.7,3.5,4c0,0.4,0,0.8-0.1,1h-5.2c0.2,1.4,1.1,2.1,2.3,2.1
								c0.7,0,1.3-0.2,1.9-0.6l0.8,1.4c-0.8,0.6-1.9,0.9-2.9,0.9C67.4,31.2,65.6,29.6,65.6,26.8z M71.1,26c0-1.1-0.5-1.9-1.6-1.9
								c-0.9,0-1.7,0.6-1.8,1.9H71.1z"/>
							<path d="M74.1,30l1-1.4c0.8,0.6,1.5,0.9,2.2,0.9c0.8,0,1.2-0.4,1.2-0.9c0-0.6-0.9-0.9-1.8-1.3c-1.1-0.4-2.3-1-2.3-2.4
								c0-1.5,1.2-2.6,3.1-2.6c1.2,0,2.2,0.5,2.9,1l-1,1.3c-0.6-0.4-1.2-0.7-1.8-0.7c-0.8,0-1.1,0.3-1.1,0.8c0,0.6,0.8,0.8,1.7,1.2
								c1.1,0.4,2.3,1,2.3,2.5c0,1.5-1.2,2.7-3.3,2.7C76.1,31.2,74.9,30.7,74.1,30z"/>
							<path d="M81.8,26.8c0-2.8,1.9-4.4,4-4.4c2.1,0,4,1.6,4,4.4c0,2.8-1.9,4.4-4,4.4C83.7,31.2,81.8,29.6,81.8,26.8z M87.6,26.8
								c0-1.6-0.6-2.6-1.8-2.6c-1.1,0-1.8,1-1.8,2.6c0,1.6,0.6,2.6,1.8,2.6C86.9,29.4,87.6,28.4,87.6,26.8z"/>
							<path d="M91.7,28.6V19h2.2v9.7c0,0.5,0.2,0.7,0.5,0.7c0.1,0,0.1,0,0.3,0l0.3,1.6c-0.3,0.1-0.6,0.2-1.1,0.2
								C92.2,31.2,91.7,30.2,91.7,28.6z"/>
							<path d="M95.4,22.6h2.2l1.2,4.2c0.2,0.8,0.5,1.7,0.7,2.5h0.1c0.2-0.9,0.5-1.7,0.7-2.5l1.2-4.2h2.1l-2.8,8.4h-2.6L95.4,22.6z"
								/>
							<path d="M104.4,26.8c0-2.7,1.9-4.4,3.9-4.4c2.3,0,3.5,1.7,3.5,4c0,0.4,0,0.8-0.1,1h-5.2c0.2,1.4,1.1,2.1,2.3,2.1
								c0.7,0,1.3-0.2,1.9-0.6l0.8,1.4c-0.8,0.6-1.9,0.9-2.9,0.9C106.2,31.2,104.4,29.6,104.4,26.8z M109.9,26
								c0-1.1-0.5-1.9-1.6-1.9c-0.9,0-1.7,0.6-1.8,1.9H109.9z"/>
							<path d="M113.1,26.8c0-2.7,1.7-4.4,3.5-4.4c0.9,0,1.5,0.4,2.1,0.9l-0.1-1.3v-3h2.2v12h-1.8l-0.2-0.9h0
								c-0.6,0.6-1.5,1.1-2.3,1.1C114.5,31.2,113.1,29.6,113.1,26.8z M118.7,28.5v-3.7c-0.5-0.5-1-0.6-1.6-0.6
								c-0.9,0-1.7,0.9-1.7,2.6c0,1.7,0.6,2.6,1.7,2.6C117.7,29.4,118.2,29.2,118.7,28.5z"/>
						</g>
					</g>
					<g transform="translate(376.000000, 0.000000)">
						<path class="st4" d="M8.8,0.8h160.5c4.4,0,8,3.6,8,8v32.5c0,4.4-3.6,8-8,8H8.8c-4.4,0-8-3.6-8-8V8.8C0.8,4.3,4.3,0.8,8.8,0.8z
							"/>
						<g class="st1">
							<path d="M34.3,19.9h2.5l1.9,5.2c0.2,0.7,0.4,1.4,0.7,2.1h0.1c0.2-0.7,0.4-1.5,0.7-2.1l1.8-5.2h2.5V31h-2v-4.6
								c0-1,0.2-2.6,0.3-3.6h-0.1l-0.9,2.6L40,30h-1.3L37,25.3l-0.9-2.6H36c0.1,1,0.3,2.6,0.3,3.6V31h-2V19.9z"/>
							<path d="M46.8,20.1c0-0.7,0.6-1.2,1.3-1.2c0.8,0,1.3,0.5,1.3,1.2c0,0.7-0.6,1.2-1.3,1.2C47.3,21.2,46.8,20.7,46.8,20.1z
								 M47,22.6h2.2V31H47V22.6z"/>
							<path d="M51.5,28.6V19h2.2v9.7c0,0.5,0.2,0.7,0.5,0.7c0.1,0,0.1,0,0.3,0l0.3,1.6c-0.3,0.1-0.6,0.2-1.1,0.2
								C52.1,31.2,51.5,30.2,51.5,28.6z"/>
							<path d="M55.8,26.8c0-2.7,1.7-4.4,3.5-4.4c0.9,0,1.5,0.4,2.1,0.9L61.3,22v-3h2.2v12h-1.8l-0.2-0.9h0
								c-0.6,0.6-1.5,1.1-2.3,1.1C57.1,31.2,55.8,29.6,55.8,26.8z M61.3,28.5v-3.7c-0.5-0.5-1-0.6-1.6-0.6c-0.9,0-1.7,0.9-1.7,2.6
								c0,1.7,0.6,2.6,1.7,2.6C60.4,29.4,60.9,29.2,61.3,28.5z"/>
							<path d="M69.1,20.1c0-0.7,0.6-1.2,1.3-1.2c0.8,0,1.3,0.5,1.3,1.2c0,0.7-0.6,1.2-1.3,1.2C69.7,21.2,69.1,20.7,69.1,20.1z
								 M69.3,22.6h2.2V31h-2.2V22.6z"/>
							<path d="M73.9,22.6h1.8l0.1,1.1h0.1c0.7-0.7,1.6-1.3,2.7-1.3c1.8,0,2.6,1.3,2.6,3.4V31H79v-5c0-1.3-0.4-1.8-1.2-1.8
								c-0.7,0-1.1,0.3-1.8,0.9V31h-2.2V22.6z"/>
							<path d="M86.1,30l1-1.4c0.8,0.6,1.5,0.9,2.2,0.9c0.8,0,1.2-0.4,1.2-0.9c0-0.6-0.9-0.9-1.8-1.3c-1.1-0.4-2.3-1-2.3-2.4
								c0-1.5,1.2-2.6,3.1-2.6c1.2,0,2.2,0.5,2.9,1l-1,1.3c-0.6-0.4-1.2-0.7-1.8-0.7c-0.8,0-1.1,0.3-1.1,0.8c0,0.6,0.8,0.8,1.7,1.2
								c1.1,0.4,2.3,1,2.3,2.5c0,1.5-1.2,2.7-3.3,2.7C88.2,31.2,86.9,30.7,86.1,30z"/>
							<path d="M93.8,26.8c0-2.7,1.9-4.4,3.9-4.4c2.3,0,3.5,1.7,3.5,4c0,0.4,0,0.8-0.1,1h-5.2c0.2,1.4,1.1,2.1,2.3,2.1
								c0.7,0,1.3-0.2,1.9-0.6l0.8,1.4c-0.8,0.6-1.9,0.9-2.9,0.9C95.6,31.2,93.8,29.6,93.8,26.8z M99.3,26c0-1.1-0.5-1.9-1.6-1.9
								c-0.9,0-1.7,0.6-1.8,1.9H99.3z"/>
							<path d="M102,22.6h2.2l1.2,4.2c0.2,0.8,0.5,1.7,0.7,2.5h0.1c0.2-0.9,0.5-1.7,0.7-2.5l1.2-4.2h2.1l-2.8,8.4h-2.6L102,22.6z"/>
							<path d="M111,26.8c0-2.7,1.9-4.4,3.9-4.4c2.3,0,3.5,1.7,3.5,4c0,0.4,0,0.8-0.1,1h-5.2c0.2,1.4,1.1,2.1,2.3,2.1
								c0.7,0,1.3-0.2,1.9-0.6l0.8,1.4c-0.8,0.6-1.9,0.9-2.9,0.9C112.8,31.2,111,29.6,111,26.8z M116.5,26c0-1.1-0.5-1.9-1.6-1.9
								c-0.9,0-1.7,0.6-1.8,1.9H116.5z"/>
							<path d="M120.2,22.6h1.8l0.1,1.5h0.1c0.6-1.1,1.5-1.7,2.4-1.7c0.5,0,0.7,0.1,1,0.2l-0.4,1.9c-0.3-0.1-0.5-0.1-0.9-0.1
								c-0.7,0-1.5,0.4-1.9,1.7v5h-2.2V22.6z"/>
							<path d="M126.5,20.1c0-0.7,0.6-1.2,1.3-1.2c0.8,0,1.3,0.5,1.3,1.2c0,0.7-0.6,1.2-1.3,1.2C127.1,21.2,126.5,20.7,126.5,20.1z
								 M126.7,22.6h2.2V31h-2.2V22.6z"/>
							<path d="M131.6,28.1v-3.7h-1.2v-1.6l1.3-0.1l0.3-2.2h1.8v2.2h2.1v1.7h-2.1v3.7c0,1,0.4,1.4,1.1,1.4c0.3,0,0.6-0.1,0.8-0.2
								l0.4,1.6c-0.5,0.2-1,0.3-1.8,0.3C132.4,31.2,131.6,30,131.6,28.1z"/>
							<path d="M137.2,34.2l0.4-1.7c0.1,0,0.4,0.1,0.6,0.1c0.9,0,1.3-0.5,1.6-1.3l0.1-0.5l-3.3-8.2h2.2l1.3,3.9
								c0.3,0.8,0.5,1.6,0.7,2.4h0.1c0.2-0.8,0.4-1.6,0.6-2.4l1.2-3.9h2.1l-3,8.7c-0.7,2-1.6,3.1-3.5,3.1
								C137.8,34.4,137.5,34.3,137.2,34.2z"/>
						</g>
					</g>
					<g transform="translate(564.000000, 0.000000)">
						<path class="st4" d="M8.8,0.8h160.5c4.4,0,8,3.6,8,8v32.5c0,4.4-3.6,8-8,8H8.8c-4.4,0-8-3.6-8-8V8.8C0.8,4.3,4.3,0.8,8.8,0.8z
							"/>
						<g class="st1">
							<path d="M20.4,31l-2.3-4.2h-1.5V31h-2.2V19.9h3.9c2.3,0,4.2,0.8,4.2,3.4c0,1.7-0.8,2.7-2.1,3.2l2.6,4.5H20.4z M16.6,25H18
								c1.4,0,2.2-0.6,2.2-1.8c0-1.2-0.8-1.6-2.2-1.6h-1.4V25z"/>
							<path d="M23.7,26.8c0-2.7,1.9-4.4,3.9-4.4c2.3,0,3.5,1.7,3.5,4c0,0.4,0,0.8-0.1,1h-5.2c0.2,1.4,1.1,2.1,2.3,2.1
								c0.7,0,1.3-0.2,1.9-0.6l0.8,1.4c-0.8,0.6-1.9,0.9-2.9,0.9C25.5,31.2,23.7,29.6,23.7,26.8z M29.2,26c0-1.1-0.5-1.9-1.6-1.9
								c-0.9,0-1.7,0.6-1.8,1.9H29.2z"/>
							<path d="M32.9,28.6V19h2.2v9.7c0,0.5,0.2,0.7,0.5,0.7c0.1,0,0.1,0,0.3,0l0.3,1.6c-0.3,0.1-0.6,0.2-1.1,0.2
								C33.5,31.2,32.9,30.2,32.9,28.6z"/>
							<path d="M37.3,28.7c0-1.8,1.5-2.7,4.8-3.1c0-0.8-0.4-1.5-1.4-1.5c-0.8,0-1.5,0.3-2.3,0.8l-0.8-1.5c1-0.6,2.2-1.1,3.5-1.1
								c2.1,0,3.2,1.3,3.2,3.7V31h-1.8l-0.2-0.9h0c-0.7,0.6-1.6,1.1-2.5,1.1C38.2,31.2,37.3,30.1,37.3,28.7z M42.1,28.7V27
								c-2,0.3-2.7,0.8-2.7,1.6c0,0.7,0.5,0.9,1.1,0.9C41.1,29.5,41.6,29.2,42.1,28.7z"/>
							<path d="M46.6,28.1v-3.7h-1.2v-1.6l1.3-0.1l0.3-2.2h1.8v2.2h2.1v1.7h-2.1v3.7c0,1,0.4,1.4,1.1,1.4c0.3,0,0.6-0.1,0.8-0.2
								l0.4,1.6c-0.5,0.2-1,0.3-1.8,0.3C47.3,31.2,46.6,30,46.6,28.1z"/>
							<path d="M52.3,20.1c0-0.7,0.6-1.2,1.3-1.2c0.8,0,1.3,0.5,1.3,1.2c0,0.7-0.6,1.2-1.3,1.2C52.9,21.2,52.3,20.7,52.3,20.1z
								 M52.6,22.6h2.2V31h-2.2V22.6z"/>
							<path d="M56.6,26.8c0-2.8,1.9-4.4,4-4.4s4,1.6,4,4.4c0,2.8-1.9,4.4-4,4.4S56.6,29.6,56.6,26.8z M62.4,26.8
								c0-1.6-0.6-2.6-1.8-2.6s-1.8,1-1.8,2.6c0,1.6,0.6,2.6,1.8,2.6S62.4,28.4,62.4,26.8z"/>
							<path d="M66.5,22.6h1.8l0.1,1.1h0.1c0.7-0.7,1.6-1.3,2.7-1.3c1.8,0,2.6,1.3,2.6,3.4V31h-2.2v-5c0-1.3-0.4-1.8-1.2-1.8
								c-0.7,0-1.1,0.3-1.8,0.9V31h-2.2V22.6z"/>
							<path d="M75.3,30l1-1.4c0.8,0.6,1.5,0.9,2.2,0.9c0.8,0,1.2-0.4,1.2-0.9c0-0.6-0.9-0.9-1.8-1.3c-1.1-0.4-2.3-1-2.3-2.4
								c0-1.5,1.2-2.6,3.1-2.6c1.2,0,2.2,0.5,2.9,1l-1,1.3c-0.6-0.4-1.2-0.7-1.8-0.7c-0.8,0-1.1,0.3-1.1,0.8c0,0.6,0.8,0.8,1.7,1.2
								c1.1,0.4,2.3,1,2.3,2.5c0,1.5-1.2,2.7-3.3,2.7C77.4,31.2,76.1,30.7,75.3,30z"/>
							<path d="M83.5,19h2.2v3l-0.1,1.6c0.7-0.6,1.5-1.2,2.6-1.2c1.8,0,2.6,1.3,2.6,3.4V31h-2.2v-5c0-1.3-0.4-1.8-1.2-1.8
								c-0.7,0-1.1,0.3-1.8,0.9V31h-2.2V19z"/>
							<path d="M92.9,20.1c0-0.7,0.6-1.2,1.3-1.2c0.8,0,1.3,0.5,1.3,1.2c0,0.7-0.6,1.2-1.3,1.2C93.5,21.2,92.9,20.7,92.9,20.1z
								 M93.1,22.6h2.2V31h-2.2V22.6z"/>
							<path d="M97.7,22.6h1.8l0.1,0.9h0.1c0.7-0.6,1.6-1.1,2.5-1.1c2.1,0,3.3,1.7,3.3,4.3c0,2.9-1.7,4.5-3.6,4.5
								c-0.7,0-1.4-0.3-2.1-0.9l0.1,1.4v2.5h-2.2V22.6z M103.2,26.7c0-1.6-0.5-2.5-1.7-2.5c-0.6,0-1.1,0.3-1.7,0.9v3.7
								c0.5,0.5,1.1,0.6,1.5,0.6C102.4,29.4,103.2,28.5,103.2,26.7z"/>
							<path d="M111.1,28.1v-3.7h-1.2v-1.6l1.3-0.1l0.3-2.2h1.8v2.2h2.1v1.7h-2.1v3.7c0,1,0.4,1.4,1.1,1.4c0.3,0,0.6-0.1,0.8-0.2
								l0.4,1.6c-0.5,0.2-1,0.3-1.8,0.3C111.8,31.2,111.1,30,111.1,28.1z"/>
							<path d="M116.3,26.8c0-2.8,1.9-4.4,4-4.4c2.1,0,4,1.6,4,4.4c0,2.8-1.9,4.4-4,4.4C118.2,31.2,116.3,29.6,116.3,26.8z
								 M122.1,26.8c0-1.6-0.6-2.6-1.8-2.6c-1.1,0-1.8,1-1.8,2.6c0,1.6,0.6,2.6,1.8,2.6C121.4,29.4,122.1,28.4,122.1,26.8z"/>
							<path d="M129.1,26.8c0-2.7,1.7-4.4,3.5-4.4c0.9,0,1.5,0.4,2.1,0.9l-0.1-1.3v-3h2.2v12h-1.8l-0.2-0.9h0
								c-0.6,0.6-1.5,1.1-2.3,1.1C130.4,31.2,129.1,29.6,129.1,26.8z M134.7,28.5v-3.7c-0.5-0.5-1-0.6-1.6-0.6
								c-0.9,0-1.7,0.9-1.7,2.6c0,1.7,0.6,2.6,1.7,2.6C133.7,29.4,134.2,29.2,134.7,28.5z"/>
							<path d="M139.2,22.6h1.8l0.1,1.5h0.1c0.6-1.1,1.5-1.7,2.4-1.7c0.5,0,0.7,0.1,1,0.2l-0.4,1.9c-0.3-0.1-0.5-0.1-0.9-0.1
								c-0.7,0-1.5,0.4-1.9,1.7v5h-2.2V22.6z"/>
							<path d="M145.7,27.9v-5.2h2.2v5c0,1.3,0.4,1.8,1.2,1.8c0.7,0,1.1-0.3,1.7-1v-5.7h2.2V31h-1.8l-0.2-1.2H151
								c-0.7,0.9-1.5,1.4-2.7,1.4C146.5,31.2,145.7,30,145.7,27.9z"/>
							<path d="M154.8,32.5c0-0.7,0.4-1.3,1.2-1.7v-0.1c-0.4-0.3-0.8-0.7-0.8-1.4c0-0.6,0.4-1.2,0.9-1.6v-0.1
								c-0.6-0.4-1.1-1.2-1.1-2.2c0-2,1.6-3,3.4-3c0.5,0,0.9,0.1,1.3,0.2h3v1.6h-1.4c0.2,0.3,0.4,0.8,0.4,1.3c0,1.9-1.4,2.8-3.2,2.8
								c-0.3,0-0.7-0.1-1.1-0.2c-0.2,0.2-0.4,0.4-0.4,0.7c0,0.5,0.3,0.7,1.3,0.7h1.4c2,0,3.1,0.6,3.1,2.1c0,1.7-1.8,3-4.6,3
								C156.3,34.6,154.8,34,154.8,32.5z M160.7,32c0-0.6-0.5-0.8-1.4-0.8h-1c-0.5,0-0.9,0-1.2-0.1c-0.4,0.3-0.6,0.6-0.6,1
								c0,0.7,0.8,1.1,2,1.1C159.9,33.2,160.7,32.7,160.7,32z M159.7,25.4c0-1-0.6-1.5-1.3-1.5s-1.3,0.6-1.3,1.5
								c0,1,0.6,1.5,1.3,1.5S159.7,26.4,159.7,25.4z"/>
						</g>
					</g>
				</g>
			</g>
		</g>
	</g>
</g>
</svg>
