<?xml version="1.0" encoding="UTF-8"?>
<svg width="134px" height="91px" viewBox="0 0 134 91" version="1.1" xmlns="http://www.w3.org/2000/svg" xmlns:xlink="http://www.w3.org/1999/xlink">
    <!-- Generator: Sketch 55.2 (78181) - https://sketchapp.com -->
    <title>ico1</title>
    <desc>Created with Sketch.</desc>
    <g id="Page-1" stroke="none" stroke-width="1" fill="none" fill-rule="evenodd" stroke-linecap="round" stroke-linejoin="round">
        <g id="main2" transform="translate(-301.000000, -1822.000000)" stroke-width="2">
            <g id="third" transform="translate(302.000000, 1685.000000)">
                <g id="buttons" transform="translate(0.000000, 135.000000)">
                    <g id="button1">
                        <g id="ico1">
                            <path d="M0.0001,92 L131.9921,92" id="Stroke-22" stroke="#333333"></path>
                            <g id="Group-18" transform="translate(45.000000, 3.000000)">
                                <polyline id="Stroke-1" stroke="#C54344" points="20 22 13 8 6 22"></polyline>
                                <path d="M8.7998,18 L17.1998,18" id="Stroke-2" stroke="#C54344"></path>
                                <g id="Group-17" stroke="#000000">
                                    <path d="M42,42 L42,2.521 C42,1.135 40.889,0 39.529,0 L2.471,0 C1.111,0 0,1.135 0,2.521 L0,55.477 C0,56.865 1.111,58 2.471,58 L26,58" id="Stroke-3"></path>
                                    <polygon id="Stroke-5" points="42 42 26 42 26 58"></polygon>
                                    <path d="M6,28 L36,28" id="Stroke-7"></path>
                                    <path d="M27,21 L36,21" id="Stroke-9"></path>
                                    <path d="M24,13 L36,13" id="Stroke-11"></path>
                                    <path d="M6,35 L36,35" id="Stroke-13"></path>
                                    <path d="M6,42 L20,42" id="Stroke-15"></path>
                                </g>
                            </g>
                        </g>
                    </g>
                </g>
            </g>
        </g>
    </g>
</svg>