<?xml version="1.0" encoding="UTF-8"?>
<svg width="164px" height="20px" viewBox="0 0 164 20" version="1.1" xmlns="http://www.w3.org/2000/svg" xmlns:xlink="http://www.w3.org/1999/xlink">
    <!-- Generator: Sketch 55.2 (78181) - https://sketchapp.com -->
    <title>Group 14</title>
    <desc>Created with Sketch.</desc>
    <g id="Page-1" stroke="none" stroke-width="1" fill="none" fill-rule="evenodd">
        <g id="5.Botanicals" transform="translate(-141.000000, -38.000000)">
            <g id="Group-14" transform="translate(141.000000, 38.000000)">
                <polygon id="Fill-1" fill="#595757" points="13.1424658 -0.000109589041 13.1424658 7.39906849 6.09506849 7.39906849 6.09506849 -0.000109589041 0 -0.000109589041 0 19.814411 6.09506849 19.814411 6.09506849 12.5155068 13.1424658 12.5155068 13.1424658 19.814411 19.2375342 19.814411 19.2375342 -0.000109589041"></polygon>
                <polygon id="Fill-2" fill="#595757" points="22.1747671 -0.000109589041 22.1747671 19.814411 39.2303836 19.814411 39.2303836 15.1996164 28.1692877 15.1996164 28.1692877 12.2648219 38.7035342 12.2648219 38.7035342 7.54947945 28.1692877 7.54947945 28.1692877 4.66536986 39.1049041 4.66536986 39.1049041 -0.000109589041"></polygon>
                <polygon id="Fill-3" fill="#595757" points="41.5652055 -0.000109589041 41.5652055 19.814411 57.3161644 19.814411 57.3161644 14.9234521 47.760274 14.9234521 47.760274 -0.000109589041"></polygon>
                <polygon id="Fill-4" fill="#595757" points="59.0994521 19.8144384 65.369589 19.8144384 65.369589 -8.21917808e-05 59.0994521 -8.21917808e-05"></polygon>
                <polygon id="Fill-5" fill="#595757" points="105.453616 -0.000109589041 101.440466 11.913589 97.6527945 -0.000109589041 89.5015616 -0.000109589041 89.5015616 19.814411 95.2199178 19.814411 95.2199178 8.62810959 98.8064932 19.814411 104.048685 19.814411 107.634986 8.62810959 107.634986 19.814411 113.328959 19.814411 113.328959 -0.000109589041"></polygon>
                <polygon id="Fill-6" fill="#595757" points="116.191781 19.8144384 122.462192 19.8144384 122.462192 -8.21917808e-05 116.191781 -8.21917808e-05"></polygon>
                <polygon id="Fill-7" fill="#595757" points="123.992877 -0.000109589041 123.992877 4.76536986 130.313425 4.76536986 130.313425 19.814411 136.533973 19.814411 136.533973 4.76536986 142.904384 4.76536986 142.904384 -0.000109589041"></polygon>
                <polygon id="Fill-8" fill="#595757" points="157.604548 -0.000109589041 157.604548 7.39906849 150.556055 7.39906849 150.556055 -0.000109589041 144.462082 -0.000109589041 144.462082 19.814411 150.556055 19.814411 150.556055 12.5155068 157.604548 12.5155068 157.604548 19.814411 163.699342 19.814411 163.699342 -0.000109589041"></polygon>
                <polygon id="Fill-9" fill="#E50113" points="82.2905753 0.147835616 82.2905753 5.85687671 77.4308493 7.88372603 72.5713973 5.85687671 72.5713973 0.147835616 67.9530411 0.147835616 67.9530411 7.96317808 72.5966027 9.90016438 67.9530411 11.8368767 67.9530411 19.7530411 72.5713973 19.7530411 72.5713973 13.9434521 77.4308493 11.9166027 82.2905753 13.9434521 82.2905753 19.7530411 86.9089315 19.7530411 86.9089315 11.8368767 82.2650959 9.90016438 86.9089315 7.96317808 86.9089315 0.147835616"></polygon>
                <polygon id="Fill-10" fill="#B4B5B5" points="72.9041096 2.69580822 81.9580822 2.69580822 81.9580822 1.61964384 72.9041096 1.61964384"></polygon>
                <polygon id="Fill-11" fill="#B4B5B5" points="72.9038356 4.90978082 81.9578082 4.90978082 81.9578082 3.83334247 72.9038356 3.83334247"></polygon>
                <polygon id="Fill-12" fill="#B4B5B5" points="72.9041096 15.8295068 81.9580822 15.8295068 81.9580822 14.7533425 72.9041096 14.7533425"></polygon>
                <polygon id="Fill-13" fill="#B4B5B5" points="72.9038356 18.0434795 81.9578082 18.0434795 81.9578082 16.9670411 72.9038356 16.9670411"></polygon>
            </g>
        </g>
    </g>
</svg>