<?xml version="1.0" encoding="utf-8"?>
<!-- Generator: Adobe Illustrator 23.0.1, SVG Export Plug-In . SVG Version: 6.00 Build 0)  -->
<svg version="1.1" id="Layer_1" xmlns="http://www.w3.org/2000/svg" xmlns:xlink="http://www.w3.org/1999/xlink" x="0px" y="0px"
	 viewBox="0 0 909 308" style="enable-background:new 0 0 909 308;" xml:space="preserve">
<style type="text/css">
	.st0{enable-background:new    ;}
	.st1{font-family:'NotoSansCJKkr-Medium-KSCpc-EUC-H';}
	.st2{font-size:12px;}
	.st3{fill-rule:evenodd;clip-rule:evenodd;}
	.st4{fill:#FFFFFF;}
	.st5{fill-rule:evenodd;clip-rule:evenodd;fill:#B54142;stroke:#B54142;stroke-width:1.5;}
	.st6{fill:none;stroke:#EAB4B5;stroke-linecap:square;stroke-dasharray:10;}
	.st7{fill:none;stroke:#979797;stroke-linecap:square;}
	.st8{fill-rule:evenodd;clip-rule:evenodd;fill:#B54142;fill-opacity:0.7;stroke:#B54142;}
</style>
<title>표</title>
<desc>Created with Sketch.</desc>
<g id="Page-1">
	<g transform="translate(-266.000000, -520.000000)">
		<g id="first" transform="translate(190.000000, 420.000000)">
			<g id="표" transform="translate(77.000000, 100.000000)">
				<g id="project">
					<g transform="translate(37.000000, 70.000000)">
						<g class="st0">
							<path d="M1.5,6h3.3c2.5,0,4.2,0.8,4.2,3.3c0,2.4-1.8,3.5-4.2,3.5H3.3V17H1.5V6z M4.8,11.4c1.8,0,2.6-0.7,2.6-2.1
								S6.5,7.4,4.7,7.4H3.3v4.1H4.8z"/>
							<path d="M10.6,11.5c0-3.6,2.2-5.8,5.1-5.8c1.6,0,2.6,0.7,3.3,1.4l-0.9,1.1c-0.5-0.6-1.2-1-2.3-1c-2.1,0-3.4,1.6-3.4,4.2
								c0,2.6,1.2,4.2,3.5,4.2c0.7,0,1.4-0.2,1.7-0.5v-2.6h-2.2v-1.4h3.8v4.8c-0.7,0.7-2,1.3-3.5,1.3C12.8,17.2,10.6,15.1,10.6,11.5
								z"/>
							<path d="M20.9,16c3.3-2.9,4.9-5,4.9-6.8c0-1.2-0.6-2-1.9-2c-0.9,0-1.6,0.6-2.2,1.2l-1-1c0.9-1,1.9-1.7,3.4-1.7
								c2,0,3.3,1.3,3.3,3.3c0,2.1-1.7,4.3-4,6.6c0.6-0.1,1.3-0.1,1.8-0.1h2.8V17h-7.1V16z"/>
							<path d="M29.5,11.4c0-3.8,1.4-5.7,3.6-5.7c2.2,0,3.6,1.9,3.6,5.7c0,3.8-1.4,5.8-3.6,5.8C30.9,17.2,29.5,15.3,29.5,11.4z
								 M35,11.4c0-3.2-0.8-4.3-1.9-4.3s-1.9,1.2-1.9,4.3c0,3.2,0.8,4.4,1.9,4.4S35,14.6,35,11.4z"/>
							<path d="M38.7,15.6h2.4V7.9h-2V6.8c1-0.2,1.8-0.5,2.4-0.8h1.3v9.6H45V17h-6.3V15.6z"/>
						</g>
						<g class="st0">
							<path d="M126.9,11.6c0-2.8,1.6-4.5,3.8-4.5s3.9,1.7,3.9,4.5c0,2.8-1.6,4.6-3.9,4.6S126.9,14.4,126.9,11.6z M133.2,11.6
								c0-2.1-1-3.3-2.4-3.3s-2.4,1.3-2.4,3.3c0,2.1,0.9,3.4,2.4,3.4S133.2,13.6,133.2,11.6z"/>
							<path d="M135.7,15.2l0.6-0.9c0.6,0.5,1.2,0.8,1.9,0.8c0.8,0,1.2-0.4,1.2-0.9c0-0.6-0.7-0.9-1.5-1.1c-0.9-0.3-1.9-0.8-1.9-1.9
								c0-1.1,0.9-1.9,2.3-1.9c0.9,0,1.6,0.4,2.1,0.8l-0.6,0.9c-0.5-0.3-0.9-0.6-1.5-0.6c-0.7,0-1.1,0.4-1.1,0.8
								c0,0.6,0.7,0.8,1.4,1c0.9,0.3,1.9,0.8,1.9,2c0,1.1-0.9,2-2.5,2C137.2,16.2,136.3,15.8,135.7,15.2z"/>
							<path d="M142.1,13.8v-3.3h-1v-1l1-0.1l0.2-1.8h1.2v1.8h1.7v1.1h-1.7v3.3c0,0.8,0.3,1.2,1,1.2c0.2,0,0.5-0.1,0.7-0.2l0.3,1
								c-0.4,0.1-0.8,0.2-1.3,0.2C142.6,16.2,142.1,15.2,142.1,13.8z"/>
							<path d="M145.9,12.7c0-2.1,1.5-3.5,3-3.5c1.8,0,2.7,1.3,2.7,3.1c0,0.3,0,0.5-0.1,0.7h-4.3c0.1,1.3,0.9,2,2,2
								c0.6,0,1.1-0.2,1.6-0.5l0.5,0.9c-0.6,0.4-1.4,0.7-2.2,0.7C147.4,16.2,145.9,14.9,145.9,12.7z M150.4,12.1
								c0-1.1-0.5-1.8-1.5-1.8c-0.8,0-1.6,0.6-1.7,1.8H150.4z"/>
							<path d="M152.7,12.7c0-2.2,1.5-3.5,3.1-3.5c1.6,0,3.1,1.3,3.1,3.5c0,2.2-1.5,3.4-3.1,3.4C154.2,16.2,152.7,14.9,152.7,12.7z
								 M157.5,12.7c0-1.4-0.6-2.3-1.7-2.3c-1,0-1.7,0.9-1.7,2.3c0,1.4,0.6,2.3,1.7,2.3C156.9,15,157.5,14.1,157.5,12.7z"/>
							<path d="M160,14.2c0-1.4,1.2-2.1,3.9-2.4c0-0.8-0.3-1.4-1.3-1.4c-0.7,0-1.3,0.3-1.9,0.7l-0.5-0.9c0.7-0.4,1.6-0.9,2.7-0.9
								c1.6,0,2.4,1,2.4,2.8v4h-1.1l-0.1-0.8h0c-0.6,0.5-1.3,0.9-2.1,0.9C160.8,16.2,160,15.4,160,14.2z M163.9,14.3v-1.6
								c-2,0.2-2.6,0.7-2.6,1.5c0,0.6,0.4,0.9,1,0.9C162.9,15.1,163.4,14.8,163.9,14.3z"/>
							<path d="M167.3,9.4h1.1l0.1,1.2h0c0.5-0.9,1.2-1.4,1.9-1.4c0.3,0,0.5,0,0.7,0.1l-0.3,1.2c-0.2-0.1-0.4-0.1-0.7-0.1
								c-0.5,0-1.2,0.4-1.6,1.4V16h-1.4V9.4z"/>
							<path d="M172.4,13.8v-3.3h-1v-1l1-0.1l0.2-1.8h1.2v1.8h1.7v1.1h-1.7v3.3c0,0.8,0.3,1.2,1,1.2c0.2,0,0.5-0.1,0.7-0.2l0.3,1
								c-0.4,0.1-0.8,0.2-1.3,0.2C172.9,16.2,172.4,15.2,172.4,13.8z"/>
							<path d="M176.9,6.4h1.4V9l0,1.3c0.6-0.6,1.2-1,2.1-1c1.4,0,2,0.9,2,2.6V16H181v-4c0-1.1-0.3-1.6-1.1-1.6
								c-0.6,0-1,0.3-1.6,0.9V16h-1.4V6.4z"/>
							<path d="M184.2,7.4c0-0.5,0.4-0.8,0.9-0.8s0.9,0.3,0.9,0.8c0,0.5-0.4,0.8-0.9,0.8S184.2,7.8,184.2,7.4z M184.4,9.4h1.4V16
								h-1.4V9.4z"/>
							<path d="M188,13.8v-3.3h-1v-1l1-0.1l0.2-1.8h1.2v1.8h1.7v1.1h-1.7v3.3c0,0.8,0.3,1.2,1,1.2c0.2,0,0.5-0.1,0.7-0.2l0.3,1
								c-0.4,0.1-0.8,0.2-1.3,0.2C188.6,16.2,188,15.2,188,13.8z"/>
							<path d="M192.4,7.4c0-0.5,0.4-0.8,0.9-0.8s0.9,0.3,0.9,0.8c0,0.5-0.4,0.8-0.9,0.8S192.4,7.8,192.4,7.4z M192.6,9.4h1.4V16
								h-1.4V9.4z"/>
							<path d="M195.3,15.2l0.6-0.9c0.6,0.5,1.2,0.8,1.9,0.8c0.8,0,1.2-0.4,1.2-0.9c0-0.6-0.7-0.9-1.5-1.1c-0.9-0.3-1.9-0.8-1.9-1.9
								c0-1.1,0.9-1.9,2.3-1.9c0.9,0,1.6,0.4,2.1,0.8l-0.6,0.9c-0.5-0.3-0.9-0.6-1.5-0.6c-0.7,0-1.1,0.4-1.1,0.8
								c0,0.6,0.7,0.8,1.4,1c0.9,0.3,1.9,0.8,1.9,2c0,1.1-0.9,2-2.5,2C196.9,16.2,196,15.8,195.3,15.2z"/>
						</g>
					</g>
					<g transform="translate(37.000000, 134.000000)">
						<g class="st0">
							<path d="M2.1,6h1.7v4.5h4.7V6h1.7v11H8.6v-5H3.8v5H2.1V6z"/>
							<path d="M15.2,11.3l-3-5.3h1.9l1.3,2.6c0.3,0.5,0.5,1,0.8,1.7h0.1c0.3-0.7,0.5-1.2,0.8-1.7L18.4,6h1.8l-3,5.4l3.2,5.6h-1.9
								l-1.5-2.7c-0.3-0.6-0.6-1.1-0.9-1.8h-0.1c-0.3,0.7-0.6,1.2-0.9,1.8L13.8,17H12L15.2,11.3z"/>
							<path d="M21.4,16c3.3-2.9,4.9-5,4.9-6.8c0-1.2-0.6-2-1.9-2c-0.9,0-1.6,0.6-2.2,1.2l-1-1c0.9-1,1.9-1.7,3.4-1.7
								c2,0,3.3,1.3,3.3,3.3c0,2.1-1.7,4.3-4,6.6c0.6-0.1,1.3-0.1,1.8-0.1h2.8V17h-7.1V16z"/>
							<path d="M29.9,11.4c0-3.8,1.4-5.7,3.6-5.7c2.2,0,3.6,1.9,3.6,5.7c0,3.8-1.4,5.8-3.6,5.8C31.3,17.2,29.9,15.3,29.9,11.4z
								 M35.4,11.4c0-3.2-0.8-4.3-1.9-4.3s-1.9,1.2-1.9,4.3c0,3.2,0.8,4.4,1.9,4.4S35.4,14.6,35.4,11.4z"/>
							<path d="M38.2,15.7l0.8-1.1c0.6,0.7,1.5,1.2,2.6,1.2c1.2,0,2.1-0.7,2.1-1.8c0-1.2-0.8-2-3.3-2v-1.3c2.2,0,2.9-0.8,2.9-1.9
								c0-1-0.6-1.6-1.7-1.6c-0.9,0-1.6,0.4-2.2,1l-0.9-1.1c0.9-0.8,1.9-1.3,3.2-1.3c2,0,3.4,1,3.4,2.9c0,1.3-0.7,2.2-1.9,2.6v0.1
								c1.3,0.3,2.3,1.3,2.3,2.8c0,2-1.7,3.2-3.7,3.2C40.1,17.2,38.9,16.5,38.2,15.7z"/>
						</g>
						<g class="st0">
							<path d="M108.5,8.2h2.7c2,0,3.4,0.7,3.4,2.7c0,1.9-1.4,2.8-3.3,2.8h-1.3V17h-1.4V8.2z M111.1,12.5c1.4,0,2.1-0.5,2.1-1.7
								c0-1.2-0.7-1.5-2.1-1.5h-1.2v3.2H111.1z"/>
							<path d="M115.2,15.2c0-1.4,1.2-2.1,3.9-2.4c0-0.8-0.3-1.4-1.3-1.4c-0.7,0-1.3,0.3-1.9,0.7l-0.5-0.9c0.7-0.4,1.6-0.9,2.7-0.9
								c1.6,0,2.4,1,2.4,2.8v4h-1.1l-0.1-0.8h0c-0.6,0.5-1.3,0.9-2.1,0.9C116.1,17.2,115.2,16.4,115.2,15.2z M119.2,15.3v-1.6
								c-2,0.2-2.6,0.7-2.6,1.5c0,0.6,0.4,0.9,1,0.9C118.2,16.1,118.7,15.8,119.2,15.3z"/>
							<path d="M122.5,10.4h1.1l0.1,1.2h0c0.5-0.9,1.2-1.4,1.9-1.4c0.3,0,0.5,0,0.7,0.1l-0.3,1.2c-0.2-0.1-0.4-0.1-0.7-0.1
								c-0.5,0-1.2,0.4-1.6,1.4V17h-1.4V10.4z"/>
							<path d="M127.4,7.4h1.3v6.2h0l2.6-3.2h1.5l-2.2,2.7l2.5,3.9h-1.5l-1.8-3l-1.1,1.3V17h-1.3V7.4z"/>
							<path d="M134.1,8.4c0-0.5,0.4-0.8,0.9-0.8s0.9,0.3,0.9,0.8c0,0.5-0.4,0.8-0.9,0.8S134.1,8.8,134.1,8.4z M134.3,10.4h1.4V17
								h-1.4V10.4z"/>
							<path d="M137.8,10.4h1.1l0.1,0.9h0c0.6-0.6,1.3-1.1,2.2-1.1c1.4,0,2,0.9,2,2.6V17h-1.4v-4c0-1.1-0.3-1.6-1.1-1.6
								c-0.6,0-1,0.3-1.6,0.9V17h-1.4V10.4z"/>
							<path d="M144.6,16.2l0.6-0.9c0.6,0.5,1.2,0.8,1.9,0.8c0.8,0,1.2-0.4,1.2-0.9c0-0.6-0.7-0.9-1.5-1.1c-0.9-0.3-1.9-0.8-1.9-1.9
								c0-1.1,0.9-1.9,2.3-1.9c0.9,0,1.6,0.4,2.1,0.8l-0.6,0.9c-0.5-0.3-0.9-0.6-1.5-0.6c-0.7,0-1.1,0.4-1.1,0.8
								c0,0.6,0.7,0.8,1.4,1c0.9,0.3,1.9,0.8,1.9,2c0,1.1-0.9,2-2.5,2C146.1,17.2,145.2,16.8,144.6,16.2z"/>
							<path d="M150.6,13.7c0-2.2,1.5-3.5,3.1-3.5c1.6,0,3.1,1.3,3.1,3.5c0,2.2-1.5,3.4-3.1,3.4C152,17.2,150.6,15.9,150.6,13.7z
								 M155.4,13.7c0-1.4-0.6-2.3-1.7-2.3c-1,0-1.7,0.9-1.7,2.3c0,1.4,0.6,2.3,1.7,2.3C154.7,16,155.4,15.1,155.4,13.7z"/>
							<path d="M158.4,10.4h1.1l0.1,0.9h0c0.6-0.6,1.3-1.1,2.2-1.1c1.4,0,2,0.9,2,2.6V17h-1.4v-4c0-1.1-0.3-1.6-1.1-1.6
								c-0.6,0-1,0.3-1.6,0.9V17h-1.4V10.4z"/>
							<path d="M165.5,10.9c0.7-0.4,1.1-0.9,1.1-1.7c0,0-0.1,0-0.1,0c-0.4,0-0.8-0.3-0.8-0.8c0-0.5,0.3-0.9,0.8-0.9
								c0.6,0,1,0.5,1,1.4c0,1.1-0.5,2-1.6,2.5L165.5,10.9z"/>
							<path d="M167.9,16.2l0.6-0.9c0.6,0.5,1.2,0.8,1.9,0.8c0.8,0,1.2-0.4,1.2-0.9c0-0.6-0.7-0.9-1.5-1.1c-0.9-0.3-1.9-0.8-1.9-1.9
								c0-1.1,0.9-1.9,2.3-1.9c0.9,0,1.6,0.4,2.1,0.8l-0.6,0.9c-0.5-0.3-0.9-0.6-1.5-0.6c-0.7,0-1.1,0.4-1.1,0.8
								c0,0.6,0.7,0.8,1.4,1c0.9,0.3,1.9,0.8,1.9,2c0,1.1-0.9,2-2.5,2C169.5,17.2,168.5,16.8,167.9,16.2z"/>
							<path d="M177.2,8.2h2.3c2.7,0,4.3,1.5,4.3,4.4c0,2.9-1.5,4.4-4.2,4.4h-2.4V8.2z M179.4,15.9c1.9,0,2.9-1.1,2.9-3.3
								c0-2.2-1-3.3-2.9-3.3h-0.8v6.6H179.4z"/>
							<path d="M185.2,8.4c0-0.5,0.4-0.8,0.9-0.8s0.9,0.3,0.9,0.8c0,0.5-0.4,0.8-0.9,0.8S185.2,8.8,185.2,8.4z M185.4,10.4h1.4V17
								h-1.4V10.4z"/>
							<path d="M188.2,16.2l0.6-0.9c0.6,0.5,1.2,0.8,1.9,0.8c0.8,0,1.2-0.4,1.2-0.9c0-0.6-0.7-0.9-1.5-1.1c-0.9-0.3-1.9-0.8-1.9-1.9
								c0-1.1,0.9-1.9,2.3-1.9c0.9,0,1.6,0.4,2.1,0.8l-0.6,0.9c-0.5-0.3-0.9-0.6-1.5-0.6c-0.7,0-1.1,0.4-1.1,0.8
								c0,0.6,0.7,0.8,1.4,1c0.9,0.3,1.9,0.8,1.9,2c0,1.1-0.9,2-2.5,2C189.8,17.2,188.8,16.8,188.2,16.2z"/>
							<path d="M194.2,13.7c0-2.1,1.5-3.5,3-3.5c1.8,0,2.7,1.3,2.7,3.1c0,0.3,0,0.5-0.1,0.7h-4.3c0.1,1.3,0.9,2,2,2
								c0.6,0,1.1-0.2,1.6-0.5l0.5,0.9c-0.6,0.4-1.4,0.7-2.2,0.7C195.6,17.2,194.2,15.9,194.2,13.7z M198.7,13.1
								c0-1.1-0.5-1.8-1.5-1.8c-0.8,0-1.6,0.6-1.7,1.8H198.7z"/>
							<path d="M200.9,15.2c0-1.4,1.2-2.1,3.9-2.4c0-0.8-0.3-1.4-1.3-1.4c-0.7,0-1.3,0.3-1.9,0.7l-0.5-0.9c0.7-0.4,1.6-0.9,2.7-0.9
								c1.6,0,2.4,1,2.4,2.8v4h-1.1l-0.1-0.8h0c-0.6,0.5-1.3,0.9-2.1,0.9C201.7,17.2,200.9,16.4,200.9,15.2z M204.8,15.3v-1.6
								c-2,0.2-2.6,0.7-2.6,1.5c0,0.6,0.4,0.9,1,0.9C203.8,16.1,204.3,15.8,204.8,15.3z"/>
							<path d="M207.4,16.2l0.6-0.9c0.6,0.5,1.2,0.8,1.9,0.8c0.8,0,1.2-0.4,1.2-0.9c0-0.6-0.7-0.9-1.5-1.1c-0.9-0.3-1.9-0.8-1.9-1.9
								c0-1.1,0.9-1.9,2.3-1.9c0.9,0,1.6,0.4,2.1,0.8l-0.6,0.9c-0.5-0.3-0.9-0.6-1.5-0.6c-0.7,0-1.1,0.4-1.1,0.8
								c0,0.6,0.7,0.8,1.4,1c0.9,0.3,1.9,0.8,1.9,2c0,1.1-0.9,2-2.5,2C209,17.2,208.1,16.8,207.4,16.2z"/>
							<path d="M213.4,13.7c0-2.1,1.5-3.5,3-3.5c1.8,0,2.7,1.3,2.7,3.1c0,0.3,0,0.5-0.1,0.7h-4.3c0.1,1.3,0.9,2,2,2
								c0.6,0,1.1-0.2,1.6-0.5l0.5,0.9c-0.6,0.4-1.4,0.7-2.2,0.7C214.9,17.2,213.4,15.9,213.4,13.7z M217.9,13.1
								c0-1.1-0.5-1.8-1.5-1.8c-0.8,0-1.6,0.6-1.7,1.8H217.9z"/>
						</g>
					</g>
					<g transform="translate(37.000000, 198.000000)">
						<g class="st0">
							<path d="M1.5,13h1.7v4.5h4.7V13h1.7v11H7.9v-5H3.2v5H1.5V13z"/>
							<path d="M14.5,18.3l-3-5.3h1.9l1.3,2.6c0.3,0.5,0.5,1,0.8,1.7h0.1c0.3-0.7,0.5-1.2,0.8-1.7l1.3-2.6h1.8l-3,5.4l3.2,5.6h-1.9
								l-1.5-2.7c-0.3-0.6-0.6-1.1-0.9-1.8h-0.1c-0.3,0.7-0.6,1.2-0.9,1.8L13.2,24h-1.8L14.5,18.3z"/>
							<path d="M20.7,23c3.3-2.9,4.9-5,4.9-6.8c0-1.2-0.6-2-1.9-2c-0.9,0-1.6,0.6-2.2,1.2l-1-1c0.9-1,1.9-1.7,3.4-1.7
								c2,0,3.3,1.3,3.3,3.3c0,2.1-1.7,4.3-4,6.6c0.6-0.1,1.3-0.1,1.8-0.1h2.8V24h-7.1V23z"/>
							<path d="M29.3,18.4c0-3.8,1.4-5.7,3.6-5.7c2.2,0,3.6,1.9,3.6,5.7c0,3.8-1.4,5.8-3.6,5.8C30.7,24.2,29.3,22.3,29.3,18.4z
								 M34.8,18.4c0-3.2-0.8-4.3-1.9-4.3s-1.9,1.2-1.9,4.3c0,3.2,0.8,4.4,1.9,4.4S34.8,21.6,34.8,18.4z"/>
							<path d="M45.2,21h-1.4v3h-1.6v-3h-4.8v-1.2l4.4-6.9h2v6.7h1.4V21z M42.2,19.7v-2.9c0-0.6,0.1-1.5,0.1-2.1h-0.1
								c-0.3,0.6-0.6,1.1-0.9,1.7l-2.2,3.3H42.2z"/>
						</g>
						<g class="st0">
							<path d="M124.8,5.2h1.4V14h-1.4V5.2z"/>
							<path d="M128.4,7.4h1.1l0.1,0.9h0c0.6-0.6,1.3-1.1,2.2-1.1c1.4,0,2,0.9,2,2.6V14h-1.4v-4c0-1.1-0.3-1.6-1.1-1.6
								c-0.6,0-1,0.3-1.6,0.9V14h-1.4V7.4z"/>
							<path d="M136.1,6.6c0-1.4,0.6-2.3,2.1-2.3c0.4,0,0.9,0.1,1.2,0.2l-0.3,1c-0.2-0.1-0.5-0.2-0.7-0.2c-0.6,0-0.9,0.4-0.9,1.2
								v0.8h1.3v1.1h-1.3V14h-1.4V8.5h-0.9v-1l0.9-0.1V6.6z M142.1,14c-0.2,0.1-0.4,0.1-0.7,0.1c-1,0-1.4-0.6-1.4-1.7v-8h1.4v8.1
								c0,0.4,0.2,0.5,0.3,0.5c0.1,0,0.1,0,0.2,0L142.1,14z"/>
							<path d="M143.2,12.2c0-1.4,1.2-2.1,3.9-2.4c0-0.8-0.3-1.4-1.3-1.4c-0.7,0-1.3,0.3-1.9,0.7l-0.5-0.9c0.7-0.4,1.6-0.9,2.7-0.9
								c1.6,0,2.4,1,2.4,2.8v4h-1.1l-0.1-0.8h0c-0.6,0.5-1.3,0.9-2.1,0.9C144,14.2,143.2,13.4,143.2,12.2z M147.2,12.3v-1.6
								c-2,0.2-2.6,0.7-2.6,1.5c0,0.6,0.4,0.9,1,0.9C146.1,13.1,146.6,12.8,147.2,12.3z"/>
							<path d="M150.5,7.4h1.1l0.1,0.9h0c0.6-0.6,1.2-1.1,2-1.1c1,0,1.5,0.5,1.8,1.2c0.6-0.7,1.3-1.2,2.1-1.2c1.4,0,2,0.9,2,2.6V14
								h-1.4v-4c0-1.1-0.4-1.6-1.1-1.6c-0.5,0-0.9,0.3-1.5,0.9V14h-1.4v-4c0-1.1-0.3-1.6-1.1-1.6c-0.4,0-0.9,0.3-1.5,0.9V14h-1.4
								V7.4z"/>
							<path d="M161.8,7.4h1.1l0.1,0.9h0c0.6-0.6,1.2-1.1,2-1.1c1,0,1.5,0.5,1.8,1.2c0.6-0.7,1.3-1.2,2.1-1.2c1.4,0,2,0.9,2,2.6V14
								h-1.4v-4c0-1.1-0.4-1.6-1.1-1.6c-0.5,0-0.9,0.3-1.5,0.9V14h-1.4v-4c0-1.1-0.3-1.6-1.1-1.6c-0.4,0-0.9,0.3-1.5,0.9V14h-1.4
								V7.4z"/>
							<path d="M172.7,12.2c0-1.4,1.2-2.1,3.9-2.4c0-0.8-0.3-1.4-1.3-1.4c-0.7,0-1.3,0.3-1.9,0.7L173,8.1c0.7-0.4,1.6-0.9,2.7-0.9
								c1.6,0,2.4,1,2.4,2.8v4h-1.1l-0.1-0.8h0c-0.6,0.5-1.3,0.9-2.1,0.9C173.5,14.2,172.7,13.4,172.7,12.2z M176.7,12.3v-1.6
								c-2,0.2-2.6,0.7-2.6,1.5c0,0.6,0.4,0.9,1,0.9C175.7,13.1,176.1,12.8,176.7,12.3z"/>
							<path d="M180,11.8V8.5h-1v-1l1-0.1l0.2-1.8h1.2v1.8h1.7v1.1h-1.7v3.3c0,0.8,0.3,1.2,1,1.2c0.2,0,0.5-0.1,0.7-0.2l0.3,1
								c-0.4,0.1-0.8,0.2-1.3,0.2C180.5,14.2,180,13.2,180,11.8z"/>
							<path d="M183.9,10.7c0-2.2,1.5-3.5,3.1-3.5c1.6,0,3.1,1.3,3.1,3.5c0,2.2-1.5,3.4-3.1,3.4C185.3,14.2,183.9,12.9,183.9,10.7z
								 M188.7,10.7c0-1.4-0.6-2.3-1.7-2.3c-1,0-1.7,0.9-1.7,2.3c0,1.4,0.6,2.3,1.7,2.3C188,13,188.7,12.1,188.7,10.7z"/>
							<path d="M191.7,7.4h1.1l0.1,1.2h0c0.5-0.9,1.2-1.4,1.9-1.4c0.3,0,0.5,0,0.7,0.1l-0.3,1.2c-0.2-0.1-0.4-0.1-0.7-0.1
								c-0.5,0-1.2,0.4-1.6,1.4V14h-1.4V7.4z"/>
							<path d="M199.8,14.4c-0.5,1.4-1.2,2.4-2.6,2.4c-0.3,0-0.6,0-0.8-0.1l0.3-1.1c0.1,0,0.3,0.1,0.5,0.1c0.7,0,1.1-0.5,1.4-1.2
								l0.1-0.5L196,7.4h1.4l1.2,3.4c0.2,0.6,0.4,1.2,0.6,1.9h0.1l0.5-1.9l1.1-3.4h1.3L199.8,14.4z"/>
						</g>
						<text transform="matrix(1 0 0 1 202.3648 14)" class="st1 st2"> </text>
						<g class="st0">
							<path d="M123.2,23.2h2.7c1.8,0,3.1,0.6,3.1,2.2c0,0.8-0.5,1.6-1.3,1.9v0.1c1,0.2,1.7,0.9,1.7,2.1c0,1.8-1.4,2.6-3.4,2.6h-3
								V23.2z M125.8,26.9c1.3,0,1.9-0.5,1.9-1.3c0-0.9-0.6-1.3-1.9-1.3h-1.2v2.6H125.8z M126,30.9c1.4,0,2.2-0.5,2.2-1.6
								c0-1-0.8-1.4-2.2-1.4h-1.4v3H126z"/>
							<path d="M130.7,28.7c0-2.2,1.5-3.5,3.1-3.5c1.6,0,3.1,1.3,3.1,3.5c0,2.2-1.5,3.4-3.1,3.4C132.1,32.2,130.7,30.9,130.7,28.7z
								 M135.5,28.7c0-1.4-0.6-2.3-1.7-2.3c-1,0-1.7,0.9-1.7,2.3c0,1.4,0.6,2.3,1.7,2.3C134.8,31,135.5,30.1,135.5,28.7z"/>
							<path d="M137.7,25.4h1.4L140,29c0.1,0.6,0.2,1.2,0.4,1.9h0c0.1-0.6,0.3-1.2,0.4-1.9l0.9-3.6h1.3L144,29
								c0.2,0.6,0.3,1.2,0.4,1.9h0c0.1-0.6,0.2-1.2,0.4-1.9l0.9-3.6h1.3l-1.7,6.6h-1.7l-0.8-3.3c-0.2-0.6-0.3-1.2-0.4-1.9h-0.1
								c-0.1,0.7-0.3,1.3-0.4,1.9l-0.8,3.2h-1.6L137.7,25.4z"/>
							<path d="M147.8,28.7c0-2.1,1.5-3.5,3-3.5c1.8,0,2.7,1.3,2.7,3.1c0,0.3,0,0.5-0.1,0.7h-4.3c0.1,1.3,0.9,2,2,2
								c0.6,0,1.1-0.2,1.6-0.5l0.5,0.9c-0.6,0.4-1.4,0.7-2.2,0.7C149.2,32.2,147.8,30.9,147.8,28.7z M152.3,28.1
								c0-1.1-0.5-1.8-1.5-1.8c-0.8,0-1.6,0.6-1.7,1.8H152.3z"/>
							<path d="M155.1,30.5v-8h1.4v8.1c0,0.4,0.2,0.5,0.3,0.5c0.1,0,0.1,0,0.2,0l0.2,1c-0.2,0.1-0.4,0.1-0.7,0.1
								C155.4,32.2,155.1,31.5,155.1,30.5z"/>
							<path d="M161.5,23.2h2.3c2.7,0,4.3,1.5,4.3,4.4c0,2.9-1.5,4.4-4.2,4.4h-2.4V23.2z M163.7,30.9c1.9,0,2.9-1.1,2.9-3.3
								c0-2.2-1-3.3-2.9-3.3h-0.8v6.6H163.7z"/>
							<path d="M169.5,23.4c0-0.5,0.4-0.8,0.9-0.8s0.9,0.3,0.9,0.8c0,0.5-0.4,0.8-0.9,0.8S169.5,23.8,169.5,23.4z M169.7,25.4h1.4
								V32h-1.4V25.4z"/>
							<path d="M172.5,31.2l0.6-0.9c0.6,0.5,1.2,0.8,1.9,0.8c0.8,0,1.2-0.4,1.2-0.9c0-0.6-0.7-0.9-1.5-1.1c-0.9-0.3-1.9-0.8-1.9-1.9
								c0-1.1,0.9-1.9,2.3-1.9c0.9,0,1.6,0.4,2.1,0.8l-0.6,0.9c-0.5-0.3-0.9-0.6-1.5-0.6c-0.7,0-1.1,0.4-1.1,0.8
								c0,0.6,0.7,0.8,1.4,1c0.9,0.3,1.9,0.8,1.9,2c0,1.1-0.9,2-2.5,2C174,32.2,173.1,31.8,172.5,31.2z"/>
							<path d="M178.5,28.7c0-2.1,1.5-3.5,3-3.5c1.8,0,2.7,1.3,2.7,3.1c0,0.3,0,0.5-0.1,0.7h-4.3c0.1,1.3,0.9,2,2,2
								c0.6,0,1.1-0.2,1.6-0.5l0.5,0.9c-0.6,0.4-1.4,0.7-2.2,0.7C179.9,32.2,178.5,30.9,178.5,28.7z M183,28.1
								c0-1.1-0.5-1.8-1.5-1.8c-0.8,0-1.6,0.6-1.7,1.8H183z"/>
							<path d="M185.1,30.2c0-1.4,1.2-2.1,3.9-2.4c0-0.8-0.3-1.4-1.3-1.4c-0.7,0-1.3,0.3-1.9,0.7l-0.5-0.9c0.7-0.4,1.6-0.9,2.7-0.9
								c1.6,0,2.4,1,2.4,2.8v4h-1.1l-0.1-0.8h0c-0.6,0.5-1.3,0.9-2.1,0.9C185.9,32.2,185.1,31.4,185.1,30.2z M189.1,30.3v-1.6
								c-2,0.2-2.6,0.7-2.6,1.5c0,0.6,0.4,0.9,1,0.9C188.1,31.1,188.6,30.8,189.1,30.3z"/>
							<path d="M191.7,31.2l0.6-0.9c0.6,0.5,1.2,0.8,1.9,0.8c0.8,0,1.2-0.4,1.2-0.9c0-0.6-0.7-0.9-1.5-1.1c-0.9-0.3-1.9-0.8-1.9-1.9
								c0-1.1,0.9-1.9,2.3-1.9c0.9,0,1.6,0.4,2.1,0.8l-0.6,0.9c-0.5-0.3-0.9-0.6-1.5-0.6c-0.7,0-1.1,0.4-1.1,0.8
								c0,0.6,0.7,0.8,1.4,1c0.9,0.3,1.9,0.8,1.9,2c0,1.1-0.9,2-2.5,2C193.3,32.2,192.4,31.8,191.7,31.2z"/>
							<path d="M197.7,28.7c0-2.1,1.5-3.5,3-3.5c1.8,0,2.7,1.3,2.7,3.1c0,0.3,0,0.5-0.1,0.7h-4.3c0.1,1.3,0.9,2,2,2
								c0.6,0,1.1-0.2,1.6-0.5l0.5,0.9c-0.6,0.4-1.4,0.7-2.2,0.7C199.1,32.2,197.7,30.9,197.7,28.7z M202.2,28.1
								c0-1.1-0.5-1.8-1.5-1.8c-0.8,0-1.6,0.6-1.7,1.8H202.2z"/>
						</g>
					</g>
					<g transform="translate(37.000000, 278.000000)">
						<g class="st0">
							<path d="M1.5,6h1.7v4.5h4.7V6h1.7v11H7.9v-5H3.2v5H1.5V6z"/>
							<path d="M14.5,11.3l-3-5.3h1.9l1.3,2.6c0.3,0.5,0.5,1,0.8,1.7h0.1c0.3-0.7,0.5-1.2,0.8-1.7L17.8,6h1.8l-3,5.4l3.2,5.6h-1.9
								l-1.5-2.7c-0.3-0.6-0.6-1.1-0.9-1.8h-0.1c-0.3,0.7-0.6,1.2-0.9,1.8L13.2,17h-1.8L14.5,11.3z"/>
							<path d="M20.7,16c3.3-2.9,4.9-5,4.9-6.8c0-1.2-0.6-2-1.9-2c-0.9,0-1.6,0.6-2.2,1.2l-1-1c0.9-1,1.9-1.7,3.4-1.7
								c2,0,3.3,1.3,3.3,3.3c0,2.1-1.7,4.3-4,6.6c0.6-0.1,1.3-0.1,1.8-0.1h2.8V17h-7.1V16z"/>
							<path d="M29.3,11.4c0-3.8,1.4-5.7,3.6-5.7c2.2,0,3.6,1.9,3.6,5.7c0,3.8-1.4,5.8-3.6,5.8C30.7,17.2,29.3,15.3,29.3,11.4z
								 M34.8,11.4c0-3.2-0.8-4.3-1.9-4.3s-1.9,1.2-1.9,4.3c0,3.2,0.8,4.4,1.9,4.4S34.8,14.6,34.8,11.4z"/>
							<path d="M37.5,15.7l0.8-1.1c0.6,0.6,1.4,1.2,2.6,1.2c1.2,0,2.2-0.9,2.2-2.4c0-1.5-0.8-2.3-2.1-2.3c-0.7,0-1.1,0.2-1.8,0.6
								l-0.8-0.6L38.8,6h5.6v1.5h-4.1L40,10.2c0.5-0.2,0.9-0.4,1.5-0.4c1.8,0,3.4,1.1,3.4,3.5c0,2.4-1.8,3.8-3.7,3.8
								C39.4,17.2,38.3,16.5,37.5,15.7z"/>
						</g>
						<g class="st0">
							<path d="M121.4,8.3h-2.6V7.2h6.6v1.2h-2.6V16h-1.4V8.3z"/>
							<path d="M129.3,16.4c-0.5,1.4-1.2,2.4-2.6,2.4c-0.3,0-0.6,0-0.8-0.1l0.3-1.1c0.1,0,0.3,0.1,0.5,0.1c0.7,0,1.1-0.5,1.4-1.2
								l0.1-0.5l-2.6-6.5h1.4l1.2,3.4c0.2,0.6,0.4,1.2,0.6,1.9h0.1l0.5-1.9l1.1-3.4h1.3L129.3,16.4z"/>
							<path d="M133,9.4h1.1l0.1,0.7h0c0.6-0.5,1.3-0.9,2-0.9c1.7,0,2.6,1.3,2.6,3.4c0,2.3-1.4,3.6-2.8,3.6c-0.6,0-1.2-0.3-1.7-0.7
								l0,1.1v2.1H133V9.4z M137.5,12.6c0-1.4-0.4-2.2-1.5-2.2c-0.5,0-1,0.3-1.6,0.8v3.2c0.5,0.4,1,0.6,1.4,0.6
								C136.7,15,137.5,14.2,137.5,12.6z"/>
							<path d="M140.1,12.7c0-2.1,1.5-3.5,3-3.5c1.8,0,2.7,1.3,2.7,3.1c0,0.3,0,0.5-0.1,0.7h-4.3c0.1,1.3,0.9,2,2,2
								c0.6,0,1.1-0.2,1.6-0.5l0.5,0.9c-0.6,0.4-1.4,0.7-2.2,0.7C141.5,16.2,140.1,14.9,140.1,12.7z M144.6,12.1
								c0-1.1-0.5-1.8-1.5-1.8c-0.8,0-1.6,0.6-1.7,1.8H144.6z"/>
							<path d="M149.5,15.2c2.6-2.3,3.9-4,3.9-5.5c0-1-0.5-1.6-1.5-1.6c-0.7,0-1.3,0.4-1.7,1l-0.8-0.8c0.8-0.8,1.5-1.3,2.7-1.3
								c1.6,0,2.7,1.1,2.7,2.7c0,1.7-1.4,3.5-3.2,5.3c0.5,0,1-0.1,1.4-0.1h2.2V16h-5.7V15.2z"/>
							<path d="M159.7,7.2h2.3c2.7,0,4.3,1.5,4.3,4.4c0,2.9-1.5,4.4-4.2,4.4h-2.4V7.2z M161.9,14.9c1.9,0,2.9-1.1,2.9-3.3
								c0-2.2-1-3.3-2.9-3.3h-0.8v6.6H161.9z"/>
							<path d="M167.7,7.4c0-0.5,0.4-0.8,0.9-0.8s0.9,0.3,0.9,0.8c0,0.5-0.4,0.8-0.9,0.8S167.7,7.8,167.7,7.4z M167.9,9.4h1.4V16
								h-1.4V9.4z"/>
							<path d="M171,14.2c0-1.4,1.2-2.1,3.9-2.4c0-0.8-0.3-1.4-1.3-1.4c-0.7,0-1.3,0.3-1.9,0.7l-0.5-0.9c0.7-0.4,1.6-0.9,2.7-0.9
								c1.6,0,2.4,1,2.4,2.8v4h-1.1l-0.1-0.8h0c-0.6,0.5-1.3,0.9-2.1,0.9C171.8,16.2,171,15.4,171,14.2z M174.9,14.3v-1.6
								c-2,0.2-2.6,0.7-2.6,1.5c0,0.6,0.4,0.9,1,0.9C173.9,15.1,174.4,14.8,174.9,14.3z"/>
							<path d="M179.5,15.3L179.5,15.3l-0.2,0.7h-1.1V6.4h1.4V9l0,1.1c0.6-0.5,1.3-0.9,2-0.9c1.7,0,2.6,1.3,2.6,3.4
								c0,2.3-1.4,3.6-2.8,3.6C180.7,16.2,180.1,15.9,179.5,15.3z M182.8,12.6c0-1.4-0.4-2.2-1.5-2.2c-0.5,0-1,0.3-1.6,0.8v3.2
								c0.5,0.4,1,0.6,1.4,0.6C182,15,182.8,14.2,182.8,12.6z"/>
							<path d="M185.4,12.7c0-2.1,1.5-3.5,3-3.5c1.8,0,2.7,1.3,2.7,3.1c0,0.3,0,0.5-0.1,0.7h-4.3c0.1,1.3,0.9,2,2,2
								c0.6,0,1.1-0.2,1.6-0.5l0.5,0.9c-0.6,0.4-1.4,0.7-2.2,0.7C186.8,16.2,185.4,14.9,185.4,12.7z M189.9,12.1
								c0-1.1-0.5-1.8-1.5-1.8c-0.8,0-1.6,0.6-1.7,1.8H189.9z"/>
							<path d="M192.7,13.8v-3.3h-1v-1l1-0.1l0.2-1.8h1.2v1.8h1.7v1.1h-1.7v3.3c0,0.8,0.3,1.2,1,1.2c0.2,0,0.5-0.1,0.7-0.2l0.3,1
								c-0.4,0.1-0.8,0.2-1.3,0.2C193.2,16.2,192.7,15.2,192.7,13.8z"/>
							<path d="M196.6,12.7c0-2.1,1.5-3.5,3-3.5c1.8,0,2.7,1.3,2.7,3.1c0,0.3,0,0.5-0.1,0.7h-4.3c0.1,1.3,0.9,2,2,2
								c0.6,0,1.1-0.2,1.6-0.5l0.5,0.9c-0.6,0.4-1.4,0.7-2.2,0.7C198,16.2,196.6,14.9,196.6,12.7z M201.1,12.1
								c0-1.1-0.5-1.8-1.5-1.8c-0.8,0-1.6,0.6-1.7,1.8H201.1z"/>
							<path d="M203.1,15.2l0.6-0.9c0.6,0.5,1.2,0.8,1.9,0.8c0.8,0,1.2-0.4,1.2-0.9c0-0.6-0.7-0.9-1.5-1.1c-0.9-0.3-1.9-0.8-1.9-1.9
								c0-1.1,0.9-1.9,2.3-1.9c0.9,0,1.6,0.4,2.1,0.8l-0.6,0.9c-0.5-0.3-0.9-0.6-1.5-0.6c-0.7,0-1.1,0.4-1.1,0.8
								c0,0.6,0.7,0.8,1.4,1c0.9,0.3,1.9,0.8,1.9,2c0,1.1-0.9,2-2.5,2C204.7,16.2,203.7,15.8,203.1,15.2z"/>
						</g>
					</g>
					<g id="head1">
						<path id="bg" class="st3" d="M8,0h104c4.4,0,8,3.6,8,8v34c0,4.4-3.6,8-8,8H8c-4.4,0-8-3.6-8-8V8C0,3.6,3.6,0,8,0z"/>
						<g class="st0">
							<path class="st4" d="M34.4,19.9H38c2.5,0,4.3,0.9,4.3,3.5c0,2.5-1.9,3.7-4.3,3.7h-1.5V31h-2.2V19.9z M37.9,25.3
								c1.5,0,2.3-0.6,2.3-1.9c0-1.3-0.8-1.7-2.3-1.7h-1.3v3.6H37.9z"/>
							<path class="st4" d="M44.2,22.6H46l0.1,1.5h0.1c0.6-1.1,1.5-1.7,2.4-1.7c0.5,0,0.7,0.1,1,0.2l-0.4,1.9
								c-0.3-0.1-0.5-0.1-0.9-0.1c-0.7,0-1.5,0.4-1.9,1.7v5h-2.2V22.6z"/>
							<path class="st4" d="M50,26.8c0-2.8,1.9-4.4,4-4.4s4,1.6,4,4.4c0,2.8-1.9,4.4-4,4.4S50,29.6,50,26.8z M55.8,26.8
								c0-1.6-0.6-2.6-1.8-2.6s-1.8,1-1.8,2.6c0,1.6,0.6,2.6,1.8,2.6S55.8,28.4,55.8,26.8z"/>
							<path class="st4" d="M57.9,34.2l0.4-1.6c0.2,0.1,0.4,0.1,0.7,0.1c0.7,0,0.9-0.5,0.9-1.4v-8.7h2.2v8.6c0,1.8-0.7,3.2-2.8,3.2
								C58.7,34.4,58.3,34.3,57.9,34.2z M59.7,20.1c0-0.7,0.6-1.2,1.3-1.2c0.8,0,1.3,0.5,1.3,1.2c0,0.7-0.6,1.2-1.3,1.2
								C60.3,21.2,59.7,20.7,59.7,20.1z"/>
							<path class="st4" d="M64,26.8c0-2.7,1.9-4.4,3.9-4.4c2.3,0,3.5,1.7,3.5,4c0,0.4,0,0.8-0.1,1h-5.2c0.2,1.4,1.1,2.1,2.3,2.1
								c0.7,0,1.3-0.2,1.9-0.6l0.8,1.4c-0.8,0.6-1.9,0.9-2.9,0.9C65.8,31.2,64,29.6,64,26.8z M69.5,26c0-1.1-0.5-1.9-1.6-1.9
								c-0.9,0-1.7,0.6-1.8,1.9H69.5z"/>
							<path class="st4" d="M72.7,26.8c0-2.8,2-4.4,4.3-4.4c1,0,1.8,0.4,2.4,0.9l-1,1.4c-0.4-0.4-0.8-0.6-1.3-0.6
								c-1.3,0-2.1,1-2.1,2.6c0,1.6,0.9,2.6,2.1,2.6c0.6,0,1.2-0.3,1.6-0.7l0.9,1.5c-0.8,0.7-1.8,1-2.7,1
								C74.5,31.2,72.7,29.6,72.7,26.8z"/>
							<path class="st4" d="M81.3,28.1v-3.7h-1.2v-1.6l1.3-0.1l0.3-2.2h1.8v2.2h2.1v1.7h-2.1v3.7c0,1,0.4,1.4,1.1,1.4
								c0.3,0,0.6-0.1,0.8-0.2l0.4,1.6c-0.5,0.2-1,0.3-1.8,0.3C82,31.2,81.3,30,81.3,28.1z"/>
						</g>
					</g>
					<g id="head2" transform="translate(130.000000, 0.000000)">
						<path class="st3" d="M8,0h124c4.4,0,8,3.6,8,8v34c0,4.4-3.6,8-8,8H8c-4.4,0-8-3.6-8-8V8C0,3.6,3.6,0,8,0z"/>
						<g class="st0">
							<path class="st4" d="M20.8,21.7h-3.1v-1.8h8.5v1.8H23V31h-2.2V21.7z"/>
							<path class="st4" d="M26.2,28.7c0-1.8,1.5-2.7,4.8-3.1c0-0.8-0.4-1.5-1.4-1.5c-0.8,0-1.5,0.3-2.3,0.8l-0.8-1.5
								c1-0.6,2.2-1.1,3.5-1.1c2.1,0,3.2,1.3,3.2,3.7V31h-1.8l-0.2-0.9h0c-0.7,0.6-1.6,1.1-2.5,1.1C27.2,31.2,26.2,30.1,26.2,28.7z
								 M31,28.7V27c-2,0.3-2.7,0.8-2.7,1.6c0,0.7,0.5,0.9,1.1,0.9C30.1,29.5,30.5,29.2,31,28.7z"/>
							<path class="st4" d="M35.5,22.6h1.8l0.1,1.5h0.1c0.6-1.1,1.5-1.7,2.4-1.7c0.5,0,0.7,0.1,1,0.2l-0.4,1.9
								c-0.3-0.1-0.5-0.1-0.9-0.1c-0.7,0-1.5,0.4-1.9,1.7v5h-2.2V22.6z"/>
							<path class="st4" d="M41.3,32.5c0-0.7,0.4-1.3,1.2-1.7v-0.1c-0.4-0.3-0.8-0.7-0.8-1.4c0-0.6,0.4-1.2,0.9-1.6v-0.1
								c-0.6-0.4-1.1-1.2-1.1-2.2c0-2,1.6-3,3.4-3c0.5,0,0.9,0.1,1.3,0.2h3v1.6h-1.4c0.2,0.3,0.4,0.8,0.4,1.3c0,1.9-1.4,2.8-3.2,2.8
								c-0.3,0-0.7-0.1-1.1-0.2c-0.2,0.2-0.4,0.4-0.4,0.7c0,0.5,0.3,0.7,1.3,0.7h1.4c2,0,3.1,0.6,3.1,2.1c0,1.7-1.8,3-4.6,3
								C42.8,34.6,41.3,34,41.3,32.5z M47.3,32c0-0.6-0.5-0.8-1.4-0.8h-1c-0.5,0-0.9,0-1.2-0.1c-0.4,0.3-0.6,0.6-0.6,1
								c0,0.7,0.8,1.1,2,1.1C46.4,33.2,47.3,32.7,47.3,32z M46.3,25.4c0-1-0.6-1.5-1.3-1.5s-1.3,0.6-1.3,1.5c0,1,0.6,1.5,1.3,1.5
								S46.3,26.4,46.3,25.4z"/>
							<path class="st4" d="M50,26.8c0-2.7,1.9-4.4,3.9-4.4c2.3,0,3.5,1.7,3.5,4c0,0.4,0,0.8-0.1,1h-5.2c0.2,1.4,1.1,2.1,2.3,2.1
								c0.7,0,1.3-0.2,1.9-0.6l0.8,1.4c-0.8,0.6-1.9,0.9-2.9,0.9C51.8,31.2,50,29.6,50,26.8z M55.5,26c0-1.1-0.5-1.9-1.6-1.9
								c-0.9,0-1.7,0.6-1.8,1.9H55.5z"/>
							<path class="st4" d="M59.4,28.1v-3.7h-1.2v-1.6l1.3-0.1l0.3-2.2h1.8v2.2h2.1v1.7h-2.1v3.7c0,1,0.4,1.4,1.1,1.4
								c0.3,0,0.6-0.1,0.8-0.2l0.4,1.6c-0.5,0.2-1,0.3-1.8,0.3C60.1,31.2,59.4,30,59.4,28.1z"/>
							<path class="st4" d="M69,19.9h3c3.4,0,5.5,1.8,5.5,5.5c0,3.7-2.1,5.6-5.4,5.6H69V19.9z M71.9,29.2c2.1,0,3.4-1.1,3.4-3.8
								c0-2.7-1.3-3.7-3.4-3.7h-0.7v7.5H71.9z"/>
							<path class="st4" d="M79.3,20.1c0-0.7,0.6-1.2,1.3-1.2c0.8,0,1.3,0.5,1.3,1.2c0,0.7-0.6,1.2-1.3,1.2
								C79.8,21.2,79.3,20.7,79.3,20.1z M79.5,22.6h2.2V31h-2.2V22.6z"/>
							<path class="st4" d="M83.2,30l1-1.4c0.8,0.6,1.5,0.9,2.2,0.9c0.8,0,1.2-0.4,1.2-0.9c0-0.6-0.9-0.9-1.8-1.3
								c-1.1-0.4-2.3-1-2.3-2.4c0-1.5,1.2-2.6,3.1-2.6c1.2,0,2.2,0.5,2.9,1l-1,1.3c-0.6-0.4-1.2-0.7-1.8-0.7c-0.8,0-1.1,0.3-1.1,0.8
								c0,0.6,0.8,0.8,1.7,1.2c1.1,0.4,2.3,1,2.3,2.5c0,1.5-1.2,2.7-3.3,2.7C85.3,31.2,84.1,30.7,83.2,30z"/>
							<path class="st4" d="M90.9,26.8c0-2.7,1.9-4.4,3.9-4.4c2.3,0,3.5,1.7,3.5,4c0,0.4,0,0.8-0.1,1h-5.2c0.2,1.4,1.1,2.1,2.3,2.1
								c0.7,0,1.3-0.2,1.9-0.6l0.8,1.4c-0.8,0.6-1.9,0.9-2.9,0.9C92.8,31.2,90.9,29.6,90.9,26.8z M96.5,26c0-1.1-0.5-1.9-1.6-1.9
								c-0.9,0-1.7,0.6-1.8,1.9H96.5z"/>
							<path class="st4" d="M99.6,28.7c0-1.8,1.5-2.7,4.8-3.1c0-0.8-0.4-1.5-1.4-1.5c-0.8,0-1.5,0.3-2.3,0.8l-0.8-1.5
								c1-0.6,2.2-1.1,3.5-1.1c2.1,0,3.2,1.3,3.2,3.7V31h-1.8l-0.2-0.9h0c-0.7,0.6-1.6,1.1-2.5,1.1C100.5,31.2,99.6,30.1,99.6,28.7z
								 M104.4,28.7V27c-2,0.3-2.7,0.8-2.7,1.6c0,0.7,0.5,0.9,1.1,0.9C103.4,29.5,103.9,29.2,104.4,28.7z"/>
							<path class="st4" d="M108,30l1-1.4c0.8,0.6,1.5,0.9,2.2,0.9c0.8,0,1.2-0.4,1.2-0.9c0-0.6-0.9-0.9-1.8-1.3
								c-1.1-0.4-2.3-1-2.3-2.4c0-1.5,1.2-2.6,3.1-2.6c1.2,0,2.2,0.5,2.9,1l-1,1.3c-0.6-0.4-1.2-0.7-1.8-0.7c-0.8,0-1.1,0.3-1.1,0.8
								c0,0.6,0.8,0.8,1.7,1.2c1.1,0.4,2.3,1,2.3,2.5c0,1.5-1.2,2.7-3.3,2.7C110.1,31.2,108.9,30.7,108,30z"/>
							<path class="st4" d="M115.7,26.8c0-2.7,1.9-4.4,3.9-4.4c2.3,0,3.5,1.7,3.5,4c0,0.4,0,0.8-0.1,1h-5.2c0.2,1.4,1.1,2.1,2.3,2.1
								c0.7,0,1.3-0.2,1.9-0.6l0.8,1.4c-0.8,0.6-1.9,0.9-2.9,0.9C117.6,31.2,115.7,29.6,115.7,26.8z M121.3,26
								c0-1.1-0.5-1.9-1.6-1.9c-0.9,0-1.7,0.6-1.8,1.9H121.3z"/>
						</g>
					</g>
				</g>
				<g id="others" transform="translate(280.000000, 0.000000)">
					<g>
						<path class="st5" d="M8.8,0.8h132.5c4.4,0,8,3.6,8,8v32.5c0,4.4-3.6,8-8,8H8.8c-4.4,0-8-3.6-8-8V8.8C0.8,4.3,4.3,0.8,8.8,0.8z
							"/>
						<g class="st0">
							<path class="st4" d="M21.5,19.9h3.7c2.3,0,4,0.7,4,2.7c0,1-0.6,2.1-1.5,2.4v0.1c1.2,0.3,2.1,1.1,2.1,2.6
								c0,2.2-1.9,3.3-4.3,3.3h-4V19.9z M25,24.4c1.4,0,2-0.6,2-1.5c0-1-0.7-1.4-2-1.4h-1.3v2.8H25z M25.2,29.3
								c1.5,0,2.3-0.5,2.3-1.7c0-1.1-0.8-1.5-2.3-1.5h-1.5v3.2H25.2z"/>
							<path class="st4" d="M31.1,28.7c0-1.8,1.5-2.7,4.8-3.1c0-0.8-0.4-1.5-1.4-1.5c-0.8,0-1.5,0.3-2.3,0.8l-0.8-1.5
								c1-0.6,2.2-1.1,3.5-1.1c2.1,0,3.2,1.3,3.2,3.7V31h-1.8l-0.2-0.9h0c-0.7,0.6-1.6,1.1-2.5,1.1C32.1,31.2,31.1,30.1,31.1,28.7z
								 M35.9,28.7V27c-2,0.3-2.7,0.8-2.7,1.6c0,0.7,0.5,0.9,1.1,0.9C34.9,29.5,35.4,29.2,35.9,28.7z"/>
							<path class="st4" d="M39.6,30l1-1.4c0.8,0.6,1.5,0.9,2.2,0.9c0.8,0,1.2-0.4,1.2-0.9c0-0.6-0.9-0.9-1.8-1.3
								C41.2,27,40,26.4,40,25c0-1.5,1.2-2.6,3.1-2.6c1.2,0,2.2,0.5,2.9,1l-1,1.3c-0.6-0.4-1.2-0.7-1.8-0.7c-0.8,0-1.1,0.3-1.1,0.8
								c0,0.6,0.8,0.8,1.7,1.2c1.1,0.4,2.3,1,2.3,2.5c0,1.5-1.2,2.7-3.3,2.7C41.6,31.2,40.4,30.7,39.6,30z"/>
							<path class="st4" d="M47.6,20.1c0-0.7,0.6-1.2,1.3-1.2c0.8,0,1.3,0.5,1.3,1.2c0,0.7-0.6,1.2-1.3,1.2
								C48.1,21.2,47.6,20.7,47.6,20.1z M47.8,22.6H50V31h-2.2V22.6z"/>
							<path class="st4" d="M51.8,26.8c0-2.8,2-4.4,4.3-4.4c1,0,1.8,0.4,2.4,0.9l-1,1.4c-0.4-0.4-0.8-0.6-1.3-0.6
								c-1.3,0-2.1,1-2.1,2.6c0,1.6,0.9,2.6,2.1,2.6c0.6,0,1.2-0.3,1.6-0.7l0.9,1.5c-0.8,0.7-1.8,1-2.7,1
								C53.6,31.2,51.8,29.6,51.8,26.8z"/>
							<path class="st4" d="M69.9,31l-2.3-4.2h-1.5V31h-2.2V19.9h3.9c2.3,0,4.2,0.8,4.2,3.4c0,1.7-0.8,2.7-2.1,3.2l2.6,4.5H69.9z
								 M66.1,25h1.4c1.4,0,2.2-0.6,2.2-1.8c0-1.2-0.8-1.6-2.2-1.6h-1.4V25z"/>
							<path class="st4" d="M73.2,26.8c0-2.7,1.9-4.4,3.9-4.4c2.3,0,3.5,1.7,3.5,4c0,0.4,0,0.8-0.1,1h-5.2c0.2,1.4,1.1,2.1,2.3,2.1
								c0.7,0,1.3-0.2,1.9-0.6l0.8,1.4c-0.8,0.6-1.9,0.9-2.9,0.9C75,31.2,73.2,29.6,73.2,26.8z M78.7,26c0-1.1-0.5-1.9-1.6-1.9
								c-0.9,0-1.7,0.6-1.8,1.9H78.7z"/>
							<path class="st4" d="M81.6,30l1-1.4c0.8,0.6,1.5,0.9,2.2,0.9c0.8,0,1.2-0.4,1.2-0.9c0-0.6-0.9-0.9-1.8-1.3
								C83.3,27,82,26.4,82,25c0-1.5,1.2-2.6,3.1-2.6c1.2,0,2.2,0.5,2.9,1l-1,1.3c-0.6-0.4-1.2-0.7-1.8-0.7c-0.8,0-1.1,0.3-1.1,0.8
								c0,0.6,0.8,0.8,1.7,1.2c1.1,0.4,2.3,1,2.3,2.5c0,1.5-1.2,2.7-3.3,2.7C83.7,31.2,82.5,30.7,81.6,30z"/>
							<path class="st4" d="M89.3,26.8c0-2.7,1.9-4.4,3.9-4.4c2.3,0,3.5,1.7,3.5,4c0,0.4,0,0.8-0.1,1h-5.2c0.2,1.4,1.1,2.1,2.3,2.1
								c0.7,0,1.3-0.2,1.9-0.6l0.8,1.4c-0.8,0.6-1.9,0.9-2.9,0.9C91.2,31.2,89.3,29.6,89.3,26.8z M94.9,26c0-1.1-0.5-1.9-1.6-1.9
								c-0.9,0-1.7,0.6-1.8,1.9H94.9z"/>
							<path class="st4" d="M97.9,28.7c0-1.8,1.5-2.7,4.8-3.1c0-0.8-0.4-1.5-1.4-1.5c-0.8,0-1.5,0.3-2.3,0.8l-0.8-1.5
								c1-0.6,2.2-1.1,3.5-1.1c2.1,0,3.2,1.3,3.2,3.7V31h-1.8l-0.2-0.9h0c-0.7,0.6-1.6,1.1-2.5,1.1C98.9,31.2,97.9,30.1,97.9,28.7z
								 M102.8,28.7V27c-2,0.3-2.7,0.8-2.7,1.6c0,0.7,0.5,0.9,1.1,0.9C101.8,29.5,102.2,29.2,102.8,28.7z"/>
							<path class="st4" d="M107.2,22.6h1.8l0.1,1.5h0.1c0.6-1.1,1.5-1.7,2.4-1.7c0.5,0,0.7,0.1,1,0.2l-0.4,1.9
								c-0.3-0.1-0.5-0.1-0.9-0.1c-0.7,0-1.5,0.4-1.9,1.7v5h-2.2V22.6z"/>
							<path class="st4" d="M113.1,26.8c0-2.8,2-4.4,4.3-4.4c1,0,1.8,0.4,2.4,0.9l-1,1.4c-0.4-0.4-0.8-0.6-1.3-0.6
								c-1.3,0-2.1,1-2.1,2.6c0,1.6,0.9,2.6,2.1,2.6c0.6,0,1.2-0.3,1.6-0.7l0.9,1.5c-0.8,0.7-1.8,1-2.7,1
								C114.8,31.2,113.1,29.6,113.1,26.8z"/>
							<path class="st4" d="M121.5,19h2.2v3l-0.1,1.6c0.7-0.6,1.5-1.2,2.6-1.2c1.8,0,2.6,1.3,2.6,3.4V31h-2.2v-5
								c0-1.3-0.4-1.8-1.2-1.8c-0.7,0-1.1,0.3-1.8,0.9V31h-2.2V19z"/>
						</g>
					</g>
					<g transform="translate(317.000000, 0.000000)">
						<path class="st5" d="M8.8,0.8h132.5c4.4,0,8,3.6,8,8v32.5c0,4.4-3.6,8-8,8H8.8c-4.4,0-8-3.6-8-8V8.8C0.8,4.3,4.3,0.8,8.8,0.8z
							"/>
						<path class="st5" d="M58.8,0.8h32.5c4.4,0,8,3.6,8,8v32.5c0,4.4-3.6,8-8,8H58.8c-4.4,0-8-3.6-8-8V8.8
							C50.8,4.3,54.3,0.8,58.8,0.8z"/>
						<g class="st0">
							<path class="st4" d="M32.3,18.5c0-3.6,2.2-5.8,5-5.8c1.4,0,2.5,0.7,3.1,1.4l-0.9,1.1c-0.6-0.6-1.3-1-2.2-1
								c-1.9,0-3.2,1.6-3.2,4.2c0,2.6,1.2,4.2,3.2,4.2c1,0,1.8-0.4,2.4-1.2l0.9,1.1c-0.9,1-2,1.6-3.4,1.6
								C34.4,24.2,32.3,22.1,32.3,18.5z"/>
							<path class="st4" d="M42.4,22.1V12h1.7v10.1c0,0.5,0.2,0.6,0.4,0.6c0.1,0,0.1,0,0.3,0l0.2,1.3c-0.2,0.1-0.5,0.1-0.9,0.1
								C42.9,24.2,42.4,23.4,42.4,22.1z"/>
							<path class="st4" d="M46.7,13.2c0-0.6,0.5-1,1.1-1s1.1,0.4,1.1,1c0,0.6-0.5,1-1.1,1S46.7,13.8,46.7,13.2z M46.9,15.8h1.7V24
								h-1.7V15.8z"/>
							<path class="st4" d="M51.2,15.8h1.4l0.1,1.1h0c0.8-0.7,1.6-1.4,2.7-1.4c1.8,0,2.5,1.2,2.5,3.3V24h-1.7v-5c0-1.4-0.4-2-1.4-2
								c-0.8,0-1.3,0.4-2,1.1V24h-1.7V15.8z"/>
							<path class="st4" d="M60.3,13.2c0-0.6,0.5-1,1.1-1s1.1,0.4,1.1,1c0,0.6-0.5,1-1.1,1S60.3,13.8,60.3,13.2z M60.6,15.8h1.7V24
								h-1.7V15.8z"/>
							<path class="st4" d="M64.3,19.9c0-2.8,1.9-4.4,4.1-4.4c1,0,1.8,0.4,2.4,0.9l-0.9,1.1C69.5,17.2,69,17,68.4,17
								c-1.4,0-2.4,1.2-2.4,2.9c0,1.7,0.9,2.9,2.3,2.9c0.7,0,1.3-0.3,1.8-0.8l0.7,1.1c-0.8,0.7-1.7,1-2.7,1
								C66,24.2,64.3,22.6,64.3,19.9z"/>
							<path class="st4" d="M72,21.8c0-1.8,1.5-2.7,4.9-3.1c0-1-0.4-1.8-1.6-1.8c-0.9,0-1.7,0.4-2.4,0.8l-0.6-1.2
								c0.9-0.5,2-1.1,3.3-1.1c2.1,0,3,1.3,3,3.5v5h-1.4l-0.2-0.9h0c-0.8,0.6-1.6,1.1-2.6,1.1C73,24.2,72,23.3,72,21.8z M76.9,21.9
								v-2c-2.4,0.3-3.3,0.9-3.3,1.8c0,0.8,0.6,1.1,1.3,1.1C75.7,22.8,76.2,22.5,76.9,21.9z"/>
							<path class="st4" d="M81.1,22.1V12h1.7v10.1c0,0.5,0.2,0.6,0.4,0.6c0.1,0,0.1,0,0.3,0l0.2,1.3c-0.2,0.1-0.5,0.1-0.9,0.1
								C81.6,24.2,81.1,23.4,81.1,22.1z"/>
							<path class="st4" d="M91.3,14.4h-3.2V13h8.2v1.5h-3.3V24h-1.7V14.4z"/>
							<path class="st4" d="M97.3,15.8h1.4l0.1,1.5h0c0.6-1.1,1.5-1.7,2.3-1.7c0.4,0,0.7,0.1,0.9,0.2l-0.3,1.5
								c-0.3-0.1-0.5-0.1-0.8-0.1c-0.7,0-1.5,0.5-2,1.8V24h-1.7V15.8z"/>
							<path class="st4" d="M103.2,13.2c0-0.6,0.5-1,1.1-1c0.6,0,1.1,0.4,1.1,1c0,0.6-0.5,1-1.1,1C103.7,14.2,103.2,13.8,103.2,13.2
								z M103.5,15.8h1.7V24h-1.7V15.8z"/>
							<path class="st4" d="M107.3,21.8c0-1.8,1.5-2.7,4.9-3.1c0-1-0.4-1.8-1.6-1.8c-0.9,0-1.7,0.4-2.4,0.8l-0.6-1.2
								c0.9-0.5,2-1.1,3.3-1.1c2.1,0,3,1.3,3,3.5v5h-1.4l-0.1-0.9h0c-0.8,0.6-1.6,1.1-2.6,1.1C108.3,24.2,107.3,23.3,107.3,21.8z
								 M112.2,21.9v-2c-2.4,0.3-3.3,0.9-3.3,1.8c0,0.8,0.6,1.1,1.3,1.1C111,22.8,111.5,22.5,112.2,21.9z"/>
							<path class="st4" d="M116.4,22.1V12h1.7v10.1c0,0.5,0.2,0.6,0.4,0.6c0.1,0,0.1,0,0.3,0l0.2,1.3c-0.2,0.1-0.5,0.1-0.9,0.1
								C116.9,24.2,116.4,23.4,116.4,22.1z"/>
						</g>
						<g class="st0">
							<path class="st4" d="M21.3,33.6h2.2c1.6,0,2.8,0.6,2.8,2.2c0,1.6-1.2,2.3-2.8,2.3h-1.1V41h-1.2V33.6z M23.4,37.3
								c1.2,0,1.7-0.5,1.7-1.4c0-1-0.6-1.3-1.8-1.3h-1v2.7H23.4z"/>
							<path class="st4" d="M27.6,33h1.1v2.1l0,1.1c0.5-0.5,1-0.9,1.8-0.9c1.2,0,1.7,0.8,1.7,2.2V41h-1.1v-3.3
								c0-0.9-0.3-1.3-0.9-1.3c-0.5,0-0.9,0.3-1.3,0.8V41h-1.1V33z"/>
							<path class="st4" d="M33.8,40.1h1.6v-5.1h-1.3v-0.7c0.7-0.1,1.2-0.3,1.6-0.6h0.9v6.4H38V41h-4.2V40.1z"/>
						</g>
						<g class="st0">
							<path class="st4" d="M67.3,33.6h2.2c1.6,0,2.8,0.6,2.8,2.2c0,1.6-1.2,2.3-2.8,2.3h-1.1V41h-1.2V33.6z M69.4,37.3
								c1.2,0,1.7-0.5,1.7-1.4c0-1-0.6-1.3-1.8-1.3h-1v2.7H69.4z"/>
							<path class="st4" d="M73.6,33h1.1v2.1l0,1.1c0.5-0.5,1-0.9,1.8-0.9c1.2,0,1.7,0.8,1.7,2.2V41h-1.1v-3.3
								c0-0.9-0.3-1.3-0.9-1.3c-0.5,0-0.9,0.3-1.3,0.8V41h-1.1V33z"/>
							<path class="st4" d="M79.4,40.3c2.2-1.9,3.3-3.3,3.3-4.6c0-0.8-0.4-1.3-1.2-1.3c-0.6,0-1.1,0.4-1.4,0.8l-0.6-0.6
								c0.6-0.7,1.3-1.1,2.2-1.1c1.3,0,2.2,0.9,2.2,2.2c0,1.4-1.1,2.9-2.7,4.4c0.4,0,0.8-0.1,1.2-0.1h1.8v1h-4.7V40.3z"/>
						</g>
						<g class="st0">
							<path class="st4" d="M117.3,33.6h2.2c1.6,0,2.8,0.6,2.8,2.2c0,1.6-1.2,2.3-2.8,2.3h-1.1V41h-1.2V33.6z M119.4,37.3
								c1.2,0,1.7-0.5,1.7-1.4c0-1-0.6-1.3-1.8-1.3h-1v2.7H119.4z"/>
							<path class="st4" d="M123.6,33h1.1v2.1l0,1.1c0.5-0.5,1-0.9,1.8-0.9c1.2,0,1.7,0.8,1.7,2.2V41h-1.1v-3.3
								c0-0.9-0.3-1.3-0.9-1.3c-0.5,0-0.9,0.3-1.3,0.8V41h-1.1V33z"/>
							<path class="st4" d="M129.3,40.1l0.6-0.7c0.4,0.4,1,0.8,1.7,0.8c0.8,0,1.4-0.5,1.4-1.2c0-0.8-0.5-1.3-2.2-1.3v-0.8
								c1.4,0,1.9-0.5,1.9-1.3c0-0.7-0.4-1.1-1.1-1.1c-0.6,0-1,0.3-1.5,0.7l-0.6-0.7c0.6-0.5,1.3-0.9,2.1-0.9c1.3,0,2.2,0.7,2.2,1.9
								c0,0.8-0.5,1.4-1.3,1.7v0c0.8,0.2,1.5,0.8,1.5,1.8c0,1.3-1.1,2.1-2.5,2.1C130.5,41.1,129.8,40.7,129.3,40.1z"/>
						</g>
					</g>
					<g transform="translate(157.000000, 0.000000)">
						<path class="st5" d="M8.8,0.8h132.5c4.4,0,8,3.6,8,8v32.5c0,4.4-3.6,8-8,8H8.8c-4.4,0-8-3.6-8-8V8.8C0.8,4.3,4.3,0.8,8.8,0.8z
							"/>
						<g class="st0">
							<path class="st4" d="M34.1,19.9h3.6c2.5,0,4.3,0.9,4.3,3.5c0,2.5-1.9,3.7-4.3,3.7h-1.5V31h-2.2V19.9z M37.7,25.3
								c1.5,0,2.3-0.6,2.3-1.9c0-1.3-0.8-1.7-2.3-1.7h-1.3v3.6H37.7z"/>
							<path class="st4" d="M44,22.6h1.8l0.2,1.5H46c0.6-1.1,1.5-1.7,2.4-1.7c0.5,0,0.7,0.1,1,0.2L49,24.5c-0.3-0.1-0.5-0.1-0.9-0.1
								c-0.7,0-1.5,0.4-1.9,1.7v5H44V22.6z"/>
							<path class="st4" d="M49.8,26.8c0-2.7,1.9-4.4,3.9-4.4c2.3,0,3.5,1.7,3.5,4c0,0.4,0,0.8-0.1,1h-5.2c0.2,1.4,1.1,2.1,2.3,2.1
								c0.7,0,1.3-0.2,1.9-0.6l0.8,1.4c-0.8,0.6-1.9,0.9-2.9,0.9C51.6,31.2,49.8,29.6,49.8,26.8z M55.3,26c0-1.1-0.5-1.9-1.6-1.9
								c-0.9,0-1.7,0.6-1.8,1.9H55.3z"/>
							<path class="st4" d="M58.8,25.9h4.1v1.6h-4.1V25.9z"/>
							<path class="st4" d="M64.4,25.5c0-3.7,2.4-5.8,5.2-5.8c1.4,0,2.5,0.7,3.3,1.4l-1.2,1.4c-0.6-0.5-1.2-0.9-2-0.9
								c-1.7,0-2.9,1.4-2.9,3.8c0,2.4,1.1,3.9,2.9,3.9c0.9,0,1.7-0.5,2.3-1.1l1.2,1.4c-0.9,1.1-2.1,1.6-3.5,1.6
								C66.7,31.2,64.4,29.2,64.4,25.5z"/>
							<path class="st4" d="M74.6,28.6V19h2.2v9.7c0,0.5,0.2,0.7,0.5,0.7c0.1,0,0.1,0,0.3,0l0.3,1.6c-0.3,0.1-0.6,0.2-1.1,0.2
								C75.2,31.2,74.6,30.2,74.6,28.6z"/>
							<path class="st4" d="M79.1,20.1c0-0.7,0.6-1.2,1.3-1.2c0.8,0,1.3,0.5,1.3,1.2c0,0.7-0.6,1.2-1.3,1.2
								C79.7,21.2,79.1,20.7,79.1,20.1z M79.4,22.6h2.2V31h-2.2V22.6z"/>
							<path class="st4" d="M83.9,22.6h1.8l0.2,1.1h0.1c0.7-0.7,1.6-1.3,2.7-1.3c1.8,0,2.6,1.3,2.6,3.4V31H89v-5
								c0-1.3-0.4-1.8-1.2-1.8c-0.7,0-1.1,0.3-1.8,0.9V31h-2.2V22.6z"/>
							<path class="st4" d="M93.3,20.1c0-0.7,0.6-1.2,1.3-1.2c0.8,0,1.3,0.5,1.3,1.2c0,0.7-0.6,1.2-1.3,1.2
								C93.9,21.2,93.3,20.7,93.3,20.1z M93.5,22.6h2.2V31h-2.2V22.6z"/>
							<path class="st4" d="M97.6,26.8c0-2.8,2-4.4,4.3-4.4c1,0,1.8,0.4,2.4,0.9l-1,1.4c-0.4-0.4-0.8-0.6-1.3-0.6
								c-1.3,0-2.1,1-2.1,2.6c0,1.6,0.9,2.6,2.1,2.6c0.6,0,1.2-0.3,1.6-0.7l0.9,1.5c-0.8,0.7-1.8,1-2.7,1
								C99.3,31.2,97.6,29.6,97.6,26.8z"/>
							<path class="st4" d="M105.4,28.7c0-1.8,1.5-2.7,4.8-3.1c0-0.8-0.4-1.5-1.4-1.5c-0.8,0-1.5,0.3-2.3,0.8l-0.8-1.5
								c1-0.6,2.2-1.1,3.5-1.1c2.1,0,3.2,1.3,3.2,3.7V31h-1.8l-0.2-0.9h0c-0.7,0.6-1.6,1.1-2.5,1.1
								C106.4,31.2,105.4,30.1,105.4,28.7z M110.2,28.7V27c-2,0.3-2.7,0.8-2.7,1.6c0,0.7,0.5,0.9,1.1,0.9
								C109.2,29.5,109.7,29.2,110.2,28.7z"/>
							<path class="st4" d="M114.7,28.6V19h2.2v9.7c0,0.5,0.2,0.7,0.5,0.7c0.1,0,0.1,0,0.3,0l0.3,1.6c-0.3,0.1-0.6,0.2-1.1,0.2
								C115.2,31.2,114.7,30.2,114.7,28.6z"/>
						</g>
					</g>
					<g transform="translate(477.000000, 0.000000)">
						<path class="st5" d="M8.8,0.8h132.5c4.4,0,8,3.6,8,8v32.5c0,4.4-3.6,8-8,8H8.8c-4.4,0-8-3.6-8-8V8.8C0.8,4.3,4.3,0.8,8.8,0.8z
							"/>
						<g class="st0">
							<path class="st4" d="M34.1,19.9h3.6c2.5,0,4.3,0.9,4.3,3.5c0,2.5-1.9,3.7-4.3,3.7h-1.5V31h-2.2V19.9z M37.7,25.3
								c1.5,0,2.3-0.6,2.3-1.9c0-1.3-0.8-1.7-2.3-1.7h-1.3v3.6H37.7z"/>
							<path class="st4" d="M44,22.6h1.8l0.2,1.5H46c0.6-1.1,1.5-1.7,2.4-1.7c0.5,0,0.7,0.1,1,0.2L49,24.5c-0.3-0.1-0.5-0.1-0.9-0.1
								c-0.7,0-1.5,0.4-1.9,1.7v5H44V22.6z"/>
							<path class="st4" d="M49.8,26.8c0-2.7,1.9-4.4,3.9-4.4c2.3,0,3.5,1.7,3.5,4c0,0.4,0,0.8-0.1,1h-5.2c0.2,1.4,1.1,2.1,2.3,2.1
								c0.7,0,1.3-0.2,1.9-0.6l0.8,1.4c-0.8,0.6-1.9,0.9-2.9,0.9C51.6,31.2,49.8,29.6,49.8,26.8z M55.3,26c0-1.1-0.5-1.9-1.6-1.9
								c-0.9,0-1.7,0.6-1.8,1.9H55.3z"/>
							<path class="st4" d="M58.8,25.9h4.1v1.6h-4.1V25.9z"/>
							<path class="st4" d="M64.4,25.5c0-3.7,2.4-5.8,5.2-5.8c1.4,0,2.5,0.7,3.3,1.4l-1.2,1.4c-0.6-0.5-1.2-0.9-2-0.9
								c-1.7,0-2.9,1.4-2.9,3.8c0,2.4,1.1,3.9,2.9,3.9c0.9,0,1.7-0.5,2.3-1.1l1.2,1.4c-0.9,1.1-2.1,1.6-3.5,1.6
								C66.7,31.2,64.4,29.2,64.4,25.5z"/>
							<path class="st4" d="M74.6,28.6V19h2.2v9.7c0,0.5,0.2,0.7,0.5,0.7c0.1,0,0.1,0,0.3,0l0.3,1.6c-0.3,0.1-0.6,0.2-1.1,0.2
								C75.2,31.2,74.6,30.2,74.6,28.6z"/>
							<path class="st4" d="M79.1,20.1c0-0.7,0.6-1.2,1.3-1.2c0.8,0,1.3,0.5,1.3,1.2c0,0.7-0.6,1.2-1.3,1.2
								C79.7,21.2,79.1,20.7,79.1,20.1z M79.4,22.6h2.2V31h-2.2V22.6z"/>
							<path class="st4" d="M83.9,22.6h1.8l0.2,1.1h0.1c0.7-0.7,1.6-1.3,2.7-1.3c1.8,0,2.6,1.3,2.6,3.4V31H89v-5
								c0-1.3-0.4-1.8-1.2-1.8c-0.7,0-1.1,0.3-1.8,0.9V31h-2.2V22.6z"/>
							<path class="st4" d="M93.3,20.1c0-0.7,0.6-1.2,1.3-1.2c0.8,0,1.3,0.5,1.3,1.2c0,0.7-0.6,1.2-1.3,1.2
								C93.9,21.2,93.3,20.7,93.3,20.1z M93.5,22.6h2.2V31h-2.2V22.6z"/>
							<path class="st4" d="M97.6,26.8c0-2.8,2-4.4,4.3-4.4c1,0,1.8,0.4,2.4,0.9l-1,1.4c-0.4-0.4-0.8-0.6-1.3-0.6
								c-1.3,0-2.1,1-2.1,2.6c0,1.6,0.9,2.6,2.1,2.6c0.6,0,1.2-0.3,1.6-0.7l0.9,1.5c-0.8,0.7-1.8,1-2.7,1
								C99.3,31.2,97.6,29.6,97.6,26.8z"/>
							<path class="st4" d="M105.4,28.7c0-1.8,1.5-2.7,4.8-3.1c0-0.8-0.4-1.5-1.4-1.5c-0.8,0-1.5,0.3-2.3,0.8l-0.8-1.5
								c1-0.6,2.2-1.1,3.5-1.1c2.1,0,3.2,1.3,3.2,3.7V31h-1.8l-0.2-0.9h0c-0.7,0.6-1.6,1.1-2.5,1.1
								C106.4,31.2,105.4,30.1,105.4,28.7z M110.2,28.7V27c-2,0.3-2.7,0.8-2.7,1.6c0,0.7,0.5,0.9,1.1,0.9
								C109.2,29.5,109.7,29.2,110.2,28.7z"/>
							<path class="st4" d="M114.7,28.6V19h2.2v9.7c0,0.5,0.2,0.7,0.5,0.7c0.1,0,0.1,0,0.3,0l0.3,1.6c-0.3,0.1-0.6,0.2-1.1,0.2
								C115.2,31.2,114.7,30.2,114.7,28.6z"/>
						</g>
					</g>
				</g>
				<g id="수직_divider" transform="translate(279.000000, 60.000000)">
					<path id="divider" class="st6" d="M1,0v191"/>
					<path class="st6" d="M159,0v191"/>
					<path class="st6" d="M319,0v191"/>
					<path class="st6" d="M369,0v191"/>
					<path class="st6" d="M419,0v191"/>
					<path class="st6" d="M479,0v191"/>
				</g>
				<path class="st7" d="M0,111.5h907"/>
				<path class="st7" d="M0,175.5h907"/>
				<path class="st7" d="M0,256h907"/>
				<g id="bars" transform="translate(289.000000, 60.000000)">
					<g id="bar1">
						<path id="bar" class="st8" d="M21,0.5h566c11.3,0,20.5,9.2,20.5,20.5l0,0c0,11.3-9.2,20.5-20.5,20.5H21
							C9.7,41.5,0.5,32.3,0.5,21l0,0C0.5,9.7,9.7,0.5,21,0.5z"/>
						<g id="text" transform="translate(196.000000, 10.000000)">
							<g>
								<g class="st0">
									<path class="st4" d="M1.5,5.9h2.2v9.2h4.5V17H1.5V5.9z"/>
									<path class="st4" d="M9.6,14.7c0-1.8,1.5-2.7,4.8-3.1c0-0.8-0.4-1.5-1.4-1.5c-0.8,0-1.5,0.3-2.3,0.8L9.9,9.5
										c1-0.6,2.2-1.1,3.5-1.1c2.1,0,3.2,1.3,3.2,3.7V17h-1.8l-0.2-0.9h0c-0.7,0.6-1.6,1.1-2.5,1.1C10.5,17.2,9.6,16.1,9.6,14.7z
										 M14.4,14.7V13c-2,0.3-2.7,0.8-2.7,1.6c0,0.7,0.5,0.9,1.1,0.9C13.4,15.5,13.9,15.2,14.4,14.7z"/>
									<path class="st4" d="M18.4,20.2l0.4-1.7c0.2,0,0.4,0.1,0.6,0.1c0.9,0,1.3-0.5,1.6-1.3l0.2-0.5l-3.3-8.2h2.2l1.3,3.9
										c0.3,0.8,0.5,1.6,0.7,2.4h0.1c0.2-0.8,0.4-1.6,0.6-2.4L24,8.6h2.1l-3,8.7c-0.7,2-1.6,3.1-3.5,3.1
										C19.1,20.4,18.8,20.3,18.4,20.2z"/>
									<path class="st4" d="M27.5,14.6V5h2.2v9.7c0,0.5,0.2,0.7,0.4,0.7c0.1,0,0.2,0,0.3,0l0.3,1.6c-0.3,0.1-0.6,0.2-1.1,0.2
										C28,17.2,27.5,16.2,27.5,14.6z"/>
									<path class="st4" d="M31.8,14.7c0-1.8,1.5-2.7,4.8-3.1c0-0.8-0.4-1.5-1.4-1.5c-0.8,0-1.5,0.3-2.3,0.8l-0.8-1.5
										c1-0.6,2.2-1.1,3.5-1.1c2.1,0,3.2,1.3,3.2,3.7V17H37l-0.2-0.9h0c-0.7,0.6-1.6,1.1-2.5,1.1C32.7,17.2,31.8,16.1,31.8,14.7z
										 M36.6,14.7V13c-2,0.3-2.7,0.8-2.7,1.6c0,0.7,0.5,0.9,1.1,0.9C35.6,15.5,36.1,15.2,36.6,14.7z"/>
								</g>
								<g class="st0">
									<path class="st4" d="M42,4.1h-1.7v-1h4.5v1h-1.7V9H42V4.1z"/>
									<path class="st4" d="M45.8,3.1h1.3l1,2.8c0.1,0.4,0.2,0.8,0.4,1.1h0c0.1-0.4,0.2-0.8,0.4-1.1l1-2.8h1.3V9h-1.1V6.5
										c0-0.6,0.1-1.4,0.1-1.9h0L49.7,6l-0.9,2.5h-0.7L47.2,6l-0.5-1.4h0c0.1,0.6,0.2,1.4,0.2,1.9V9h-1.1V3.1z"/>
								</g>
							</g>
							<g class="st0">
								<path class="st4" d="M63.1,8.1h1.8v7.4h3.6V17h-5.4V8.1z"/>
								<path class="st4" d="M69.5,15.2c0-1.4,1.2-2.2,3.9-2.5c0-0.7-0.3-1.2-1.1-1.2c-0.6,0-1.2,0.3-1.8,0.6L69.8,11
									c0.8-0.5,1.8-0.9,2.8-0.9c1.7,0,2.6,1,2.6,3V17h-1.4l-0.1-0.7h0c-0.6,0.5-1.3,0.9-2,0.9C70.3,17.2,69.5,16.3,69.5,15.2z
									 M73.4,15.1v-1.4c-1.6,0.2-2.2,0.7-2.2,1.3c0,0.5,0.4,0.8,0.9,0.8C72.6,15.8,73,15.5,73.4,15.1z"/>
								<path class="st4" d="M76.9,14.5v-4.2h1.8v4c0,1,0.3,1.4,0.9,1.4c0.6,0,0.9-0.2,1.4-0.8v-4.5h1.8V17h-1.4l-0.1-1h0
									c-0.6,0.7-1.2,1.1-2.1,1.1C77.5,17.2,76.9,16.2,76.9,14.5z"/>
								<path class="st4" d="M84.6,10.3H86l0.1,0.9h0c0.6-0.6,1.3-1.1,2.2-1.1c1.5,0,2.1,1,2.1,2.7V17h-1.8v-4c0-1-0.3-1.4-0.9-1.4
									c-0.6,0-0.9,0.3-1.4,0.8V17h-1.8V10.3z"/>
								<path class="st4" d="M91.9,13.7c0-2.2,1.6-3.5,3.4-3.5c0.8,0,1.5,0.3,2,0.7L96.4,12c-0.3-0.3-0.6-0.4-1-0.4
									c-1,0-1.7,0.8-1.7,2.1c0,1.3,0.7,2.1,1.7,2.1c0.5,0,0.9-0.2,1.3-0.5l0.7,1.2c-0.6,0.6-1.5,0.8-2.2,0.8
									C93.3,17.2,91.9,15.9,91.9,13.7z"/>
								<path class="st4" d="M98.6,7.4h1.8v2.4l-0.1,1.3c0.5-0.5,1.2-1,2.1-1c1.5,0,2.1,1,2.1,2.7V17h-1.8v-4c0-1-0.3-1.4-0.9-1.4
									c-0.6,0-0.9,0.3-1.4,0.8V17h-1.8V7.4z"/>
								<path class="st4" d="M105.9,13.7c0-2.2,1.5-3.5,3.1-3.5c1.8,0,2.8,1.4,2.8,3.2c0,0.3,0,0.6-0.1,0.8h-4.1
									c0.1,1.1,0.9,1.7,1.9,1.7c0.6,0,1-0.2,1.5-0.5l0.6,1.1c-0.7,0.5-1.5,0.7-2.4,0.7C107.3,17.2,105.9,15.9,105.9,13.7z
									 M110.3,13c0-0.9-0.4-1.5-1.3-1.5c-0.7,0-1.3,0.5-1.5,1.5H110.3z"/>
								<path class="st4" d="M112.9,13.7c0-2.2,1.4-3.5,2.8-3.5c0.8,0,1.2,0.3,1.7,0.7l-0.1-1.1V7.4h1.8V17h-1.4l-0.1-0.7h0
									c-0.5,0.5-1.2,0.9-1.9,0.9C114,17.2,112.9,15.8,112.9,13.7z M117.3,15v-3c-0.4-0.4-0.8-0.5-1.2-0.5c-0.8,0-1.4,0.7-1.4,2.1
									c0,1.4,0.5,2.1,1.4,2.1C116.6,15.7,117,15.5,117.3,15z"/>
								<path class="st4" d="M123.6,8.2c0-0.6,0.4-1,1.1-1c0.6,0,1,0.4,1,1c0,0.6-0.4,1-1,1C124,9.2,123.6,8.8,123.6,8.2z
									 M123.7,10.3h1.8V17h-1.8V10.3z"/>
								<path class="st4" d="M127.4,10.3h1.4l0.1,0.9h0c0.6-0.6,1.3-1.1,2.2-1.1c1.5,0,2.1,1,2.1,2.7V17h-1.8v-4
									c0-1-0.3-1.4-0.9-1.4c-0.6,0-0.9,0.3-1.4,0.8V17h-1.8V10.3z"/>
								<path class="st4" d="M137.9,8.1h1.8V12h0l2.9-3.8h2l-2.7,3.5l3.2,5.4h-2l-2.3-4l-1.2,1.5V17h-1.8V8.1z"/>
								<path class="st4" d="M145.4,13.7c0-2.2,1.5-3.5,3.2-3.5s3.2,1.3,3.2,3.5c0,2.2-1.5,3.5-3.2,3.5S145.4,15.9,145.4,13.7z
									 M150.1,13.7c0-1.3-0.5-2.1-1.4-2.1s-1.4,0.8-1.4,2.1c0,1.3,0.5,2.1,1.4,2.1S150.1,14.9,150.1,13.7z"/>
								<path class="st4" d="M153.3,10.3h1.4l0.1,1.2h0c0.5-0.9,1.2-1.4,1.9-1.4c0.4,0,0.6,0.1,0.8,0.1l-0.3,1.5
									c-0.2-0.1-0.4-0.1-0.7-0.1c-0.5,0-1.2,0.3-1.5,1.3v4h-1.8V10.3z"/>
								<path class="st4" d="M158,13.7c0-2.2,1.5-3.5,3.1-3.5c1.8,0,2.8,1.4,2.8,3.2c0,0.3,0,0.6-0.1,0.8h-4.1
									c0.1,1.1,0.9,1.7,1.9,1.7c0.6,0,1-0.2,1.5-0.5l0.6,1.1c-0.7,0.5-1.5,0.7-2.4,0.7C159.5,17.2,158,15.9,158,13.7z M162.4,13
									c0-0.9-0.4-1.5-1.3-1.5c-0.7,0-1.3,0.5-1.5,1.5H162.4z"/>
								<path class="st4" d="M164.9,15.2c0-1.4,1.2-2.2,3.9-2.5c0-0.7-0.3-1.2-1.1-1.2c-0.6,0-1.2,0.3-1.8,0.6l-0.6-1.2
									c0.8-0.5,1.8-0.9,2.8-0.9c1.7,0,2.6,1,2.6,3V17h-1.4l-0.1-0.7h0c-0.6,0.5-1.3,0.9-2,0.9C165.7,17.2,164.9,16.3,164.9,15.2z
									 M168.8,15.1v-1.4c-1.6,0.2-2.2,0.7-2.2,1.3c0,0.5,0.4,0.8,0.9,0.8C168,15.8,168.3,15.5,168.8,15.1z"/>
								<path class="st4" d="M174.9,8.2c0-0.6,0.4-1,1.1-1c0.6,0,1,0.4,1,1c0,0.6-0.4,1-1,1C175.3,9.2,174.9,8.8,174.9,8.2z
									 M175,10.3h1.8V17H175V10.3z"/>
								<path class="st4" d="M178.7,10.3h1.4l0.1,0.9h0c0.6-0.6,1.3-1.1,2.2-1.1c1.5,0,2.1,1,2.1,2.7V17h-1.8v-4
									c0-1-0.3-1.4-0.9-1.4c-0.6,0-0.9,0.3-1.4,0.8V17h-1.8V10.3z"/>
								<path class="st4" d="M188.7,16c2.4-2.2,3.8-3.8,3.8-5.2c0-0.9-0.5-1.4-1.3-1.4c-0.6,0-1.2,0.4-1.6,0.9l-1-1
									c0.8-0.9,1.6-1.3,2.8-1.3c1.7,0,2.8,1.1,2.8,2.7c0,1.6-1.3,3.3-3,4.9c0.4,0,1-0.1,1.4-0.1h1.9V17h-5.9V16z"/>
								<path class="st4" d="M195.8,12.5c0-3.1,1.2-4.6,3-4.6c1.8,0,3,1.5,3,4.6s-1.2,4.6-3,4.6C197,17.2,195.8,15.6,195.8,12.5z
									 M200.1,12.5c0-2.5-0.6-3.2-1.3-3.2c-0.8,0-1.3,0.7-1.3,3.2c0,2.5,0.6,3.3,1.3,3.3C199.5,15.8,200.1,15,200.1,12.5z"/>
								<path class="st4" d="M203.3,15.6h1.9V10h-1.6V8.9c0.9-0.2,1.5-0.4,2.1-0.7h1.3v7.4h1.7V17h-5.3V15.6z"/>
								<path class="st4" d="M209.9,16c2.4-2.2,3.8-3.8,3.8-5.2c0-0.9-0.5-1.4-1.3-1.4c-0.6,0-1.2,0.4-1.6,0.9l-1-1
									c0.8-0.9,1.6-1.3,2.8-1.3c1.7,0,2.8,1.1,2.8,2.7c0,1.6-1.3,3.3-3,4.9c0.4,0,1-0.1,1.4-0.1h1.9V17h-5.9V16z"/>
							</g>
						</g>
					</g>
					<g id="bar2" transform="translate(0.000000, 62.000000)">
						<path class="st8" d="M21,0.5h199c11.3,0,20.5,9.2,20.5,20.5l0,0c0,11.3-9.2,20.5-20.5,20.5H21C9.7,41.5,0.5,32.3,0.5,21l0,0
							C0.5,9.7,9.7,0.5,21,0.5z"/>
					</g>
					<g id="bar3" transform="translate(0.000000, 134.000000)">
						<path class="st8" d="M21,0.5h97c11.3,0,20.5,9.2,20.5,20.5l0,0c0,11.3-9.2,20.5-20.5,20.5H21C9.7,41.5,0.5,32.3,0.5,21l0,0
							C0.5,9.7,9.7,0.5,21,0.5z"/>
					</g>
					<g transform="translate(0.000000, 206.000000)">
						<path class="st8" d="M21,0.5h97c11.3,0,20.5,9.2,20.5,20.5l0,0c0,11.3-9.2,20.5-20.5,20.5H21C9.7,41.5,0.5,32.3,0.5,21l0,0
							C0.5,9.7,9.7,0.5,21,0.5z"/>
					</g>
				</g>
			</g>
		</g>
	</g>
</g>
</svg>
