<?xml version="1.0" encoding="utf-8"?>
<!-- Generator: Adobe Illustrator 23.0.1, SVG Export Plug-In . SVG Version: 6.00 Build 0)  -->
<svg version="1.1" id="Layer_1" xmlns="http://www.w3.org/2000/svg" xmlns:xlink="http://www.w3.org/1999/xlink" x="0px" y="0px"
	 viewBox="0 0 334 658" style="enable-background:new 0 0 334 658;" xml:space="preserve">
<style type="text/css">
	.st0{fill-rule:evenodd;clip-rule:evenodd;}
	.st1{enable-background:new    ;}
	.st2{fill:#FFFFFF;}
	.st3{fill-rule:evenodd;clip-rule:evenodd;fill:#B54142;fill-opacity:0.8;stroke:#B54142;stroke-width:1.5;}
</style>
<title>pipeline_img2_mobile</title>
<desc>Created with Sketch.</desc>
<g id="Page-1">
	<g id="mobile1" transform="translate(-20.000000, -4848.000000)">
		<g id="pipeline_img2_mobile" transform="translate(20.000000, 4848.000000)">
			<g id="table1">
				<g id="cell1">
					<g>
						<path id="bg" class="st0" d="M8,0h318c4.4,0,8,3.6,8,8v34c0,4.4-3.6,8-8,8H8c-4.4,0-8-3.6-8-8V8C0,3.6,3.6,0,8,0z"/>
						<g class="st1">
							<path class="st2" d="M142.4,19.9h3.6c2.5,0,4.3,0.9,4.3,3.5c0,2.5-1.9,3.7-4.3,3.7h-1.5V31h-2.2V19.9z M145.9,25.3
								c1.5,0,2.3-0.6,2.3-1.9c0-1.3-0.8-1.7-2.3-1.7h-1.3v3.6H145.9z"/>
							<path class="st2" d="M152.2,22.6h1.8l0.1,1.5h0.1c0.6-1.1,1.5-1.7,2.4-1.7c0.5,0,0.7,0.1,1,0.2l-0.4,1.9
								c-0.3-0.1-0.5-0.1-0.9-0.1c-0.7,0-1.5,0.4-1.9,1.7v5h-2.2V22.6z"/>
							<path class="st2" d="M158,26.8c0-2.8,1.9-4.4,4-4.4s4,1.6,4,4.4c0,2.8-1.9,4.4-4,4.4S158,29.6,158,26.8z M163.8,26.8
								c0-1.6-0.6-2.6-1.8-2.6s-1.8,1-1.8,2.6c0,1.6,0.6,2.6,1.8,2.6S163.8,28.4,163.8,26.8z"/>
							<path class="st2" d="M165.9,34.2l0.4-1.6c0.2,0.1,0.4,0.1,0.7,0.1c0.7,0,0.9-0.5,0.9-1.4v-8.7h2.2v8.6c0,1.8-0.7,3.2-2.8,3.2
								C166.7,34.4,166.3,34.3,165.9,34.2z M167.7,20.1c0-0.7,0.6-1.2,1.3-1.2c0.8,0,1.3,0.5,1.3,1.2c0,0.7-0.6,1.2-1.3,1.2
								C168.3,21.2,167.7,20.7,167.7,20.1z"/>
							<path class="st2" d="M172,26.8c0-2.7,1.9-4.4,3.9-4.4c2.3,0,3.5,1.7,3.5,4c0,0.4,0,0.8-0.1,1h-5.2c0.2,1.4,1.1,2.1,2.3,2.1
								c0.7,0,1.3-0.2,1.9-0.6l0.8,1.4c-0.8,0.6-1.9,0.9-2.9,0.9C173.8,31.2,172,29.6,172,26.8z M177.5,26c0-1.1-0.5-1.9-1.6-1.9
								c-0.9,0-1.7,0.6-1.8,1.9H177.5z"/>
							<path class="st2" d="M180.7,26.8c0-2.8,2-4.4,4.3-4.4c1,0,1.8,0.4,2.4,0.9l-1.1,1.4c-0.4-0.4-0.8-0.6-1.3-0.6
								c-1.3,0-2.1,1-2.1,2.6c0,1.6,0.9,2.6,2.1,2.6c0.6,0,1.2-0.3,1.6-0.7l0.9,1.5c-0.8,0.7-1.8,1-2.7,1
								C182.5,31.2,180.7,29.6,180.7,26.8z"/>
							<path class="st2" d="M189.3,28.1v-3.7h-1.2v-1.6l1.3-0.1l0.3-2.2h1.8v2.2h2.1v1.7h-2.1v3.7c0,1,0.4,1.4,1.1,1.4
								c0.3,0,0.6-0.1,0.8-0.2l0.4,1.6c-0.4,0.2-1,0.3-1.8,0.3C190,31.2,189.3,30,189.3,28.1z"/>
						</g>
					</g>
					<g transform="translate(0.000000, 102.000000)">
						<path class="st0" d="M8,0h318c4.4,0,8,3.6,8,8v34c0,4.4-3.6,8-8,8H8c-4.4,0-8-3.6-8-8V8C0,3.6,3.6,0,8,0z"/>
						<g class="st1">
							<path class="st2" d="M117.6,21.7h-3.1v-1.8h8.5v1.8h-3.1V31h-2.2V21.7z"/>
							<path class="st2" d="M123,28.7c0-1.8,1.5-2.7,4.8-3.1c0-0.8-0.4-1.5-1.4-1.5c-0.8,0-1.5,0.3-2.3,0.8l-0.8-1.5
								c1-0.6,2.2-1.1,3.5-1.1c2.1,0,3.2,1.3,3.2,3.7V31h-1.8l-0.2-0.9h0c-0.7,0.6-1.6,1.1-2.5,1.1C124,31.2,123,30.1,123,28.7z
								 M127.8,28.7V27c-2,0.3-2.7,0.8-2.7,1.6c0,0.7,0.5,0.9,1.1,0.9C126.9,29.5,127.3,29.2,127.8,28.7z"/>
							<path class="st2" d="M132.3,22.6h1.8l0.1,1.5h0.1c0.6-1.1,1.5-1.7,2.4-1.7c0.5,0,0.7,0.1,1,0.2l-0.4,1.9
								c-0.3-0.1-0.5-0.1-0.9-0.1c-0.7,0-1.5,0.4-1.9,1.7v5h-2.2V22.6z"/>
							<path class="st2" d="M138.1,32.5c0-0.7,0.4-1.3,1.2-1.7v-0.1c-0.4-0.3-0.8-0.7-0.8-1.4c0-0.6,0.4-1.2,0.9-1.6v-0.1
								c-0.6-0.4-1.1-1.2-1.1-2.2c0-2,1.6-3,3.4-3c0.5,0,0.9,0.1,1.3,0.2h3v1.6h-1.4c0.2,0.3,0.4,0.8,0.4,1.3c0,1.9-1.4,2.8-3.2,2.8
								c-0.3,0-0.7-0.1-1.1-0.2c-0.2,0.2-0.4,0.4-0.4,0.7c0,0.5,0.3,0.7,1.3,0.7h1.4c2,0,3.1,0.6,3.1,2.1c0,1.7-1.8,3-4.6,3
								C139.6,34.6,138.1,34,138.1,32.5z M144.1,32c0-0.6-0.5-0.8-1.4-0.8h-1c-0.5,0-0.9,0-1.2-0.1c-0.4,0.3-0.6,0.6-0.6,1
								c0,0.7,0.8,1.1,2,1.1C143.2,33.2,144.1,32.7,144.1,32z M143.1,25.4c0-1-0.6-1.5-1.3-1.5s-1.3,0.6-1.3,1.5
								c0,1,0.6,1.5,1.3,1.5S143.1,26.4,143.1,25.4z"/>
							<path class="st2" d="M146.8,26.8c0-2.7,1.9-4.4,3.9-4.4c2.3,0,3.5,1.7,3.5,4c0,0.4,0,0.8-0.1,1h-5.2c0.2,1.4,1.1,2.1,2.3,2.1
								c0.7,0,1.3-0.2,1.9-0.6l0.8,1.4c-0.8,0.6-1.9,0.9-2.9,0.9C148.6,31.2,146.8,29.6,146.8,26.8z M152.3,26
								c0-1.1-0.5-1.9-1.6-1.9c-0.9,0-1.7,0.6-1.8,1.9H152.3z"/>
							<path class="st2" d="M156.2,28.1v-3.7H155v-1.6l1.3-0.1l0.3-2.2h1.8v2.2h2.1v1.7h-2.1v3.7c0,1,0.4,1.4,1.1,1.4
								c0.3,0,0.6-0.1,0.8-0.2l0.4,1.6c-0.5,0.2-1,0.3-1.8,0.3C156.9,31.2,156.2,30,156.2,28.1z"/>
							<path class="st2" d="M165.7,19.9h3c3.4,0,5.5,1.8,5.5,5.5c0,3.7-2.1,5.6-5.4,5.6h-3.2V19.9z M168.7,29.2
								c2.1,0,3.4-1.1,3.4-3.8c0-2.7-1.3-3.7-3.4-3.7H168v7.5H168.7z"/>
							<path class="st2" d="M176.1,20.1c0-0.7,0.6-1.2,1.3-1.2c0.8,0,1.3,0.5,1.3,1.2c0,0.7-0.6,1.2-1.3,1.2
								C176.6,21.2,176.1,20.7,176.1,20.1z M176.3,22.6h2.2V31h-2.2V22.6z"/>
							<path class="st2" d="M180,30l1-1.4c0.8,0.6,1.5,0.9,2.2,0.9c0.8,0,1.2-0.4,1.2-0.9c0-0.6-0.9-0.9-1.8-1.3
								c-1.1-0.4-2.3-1-2.3-2.4c0-1.5,1.2-2.6,3.1-2.6c1.2,0,2.2,0.5,2.9,1l-1,1.3c-0.6-0.4-1.2-0.7-1.8-0.7c-0.8,0-1.1,0.3-1.1,0.8
								c0,0.6,0.8,0.8,1.7,1.2c1.1,0.4,2.3,1,2.3,2.5c0,1.5-1.2,2.7-3.3,2.7C182.1,31.2,180.9,30.7,180,30z"/>
							<path class="st2" d="M187.7,26.8c0-2.7,1.9-4.4,3.9-4.4c2.3,0,3.5,1.7,3.5,4c0,0.4,0,0.8-0.1,1h-5.2c0.2,1.4,1.1,2.1,2.3,2.1
								c0.7,0,1.3-0.2,1.9-0.6l0.8,1.4c-0.8,0.6-1.9,0.9-2.9,0.9C189.6,31.2,187.7,29.6,187.7,26.8z M193.3,26
								c0-1.1-0.5-1.9-1.6-1.9c-0.9,0-1.7,0.6-1.8,1.9H193.3z"/>
							<path class="st2" d="M196.3,28.7c0-1.8,1.5-2.7,4.8-3.1c0-0.8-0.4-1.5-1.4-1.5c-0.8,0-1.5,0.3-2.3,0.8l-0.8-1.5
								c1-0.6,2.2-1.1,3.5-1.1c2.1,0,3.2,1.3,3.2,3.7V31h-1.8l-0.2-0.9h0c-0.7,0.6-1.6,1.1-2.5,1.1
								C197.3,31.2,196.3,30.1,196.3,28.7z M201.2,28.7V27c-2,0.3-2.7,0.8-2.7,1.6c0,0.7,0.5,0.9,1.1,0.9
								C200.2,29.5,200.7,29.2,201.2,28.7z"/>
							<path class="st2" d="M204.8,30l1-1.4c0.8,0.6,1.5,0.9,2.2,0.9c0.8,0,1.2-0.4,1.2-0.9c0-0.6-0.9-0.9-1.8-1.3
								c-1.1-0.4-2.3-1-2.3-2.4c0-1.5,1.2-2.6,3.1-2.6c1.2,0,2.2,0.5,2.9,1l-1,1.3c-0.6-0.4-1.2-0.7-1.8-0.7c-0.8,0-1.1,0.3-1.1,0.8
								c0,0.6,0.8,0.8,1.7,1.2c1.1,0.4,2.3,1,2.3,2.5c0,1.5-1.2,2.7-3.3,2.7C206.9,31.2,205.7,30.7,204.8,30z"/>
							<path class="st2" d="M212.5,26.8c0-2.7,1.9-4.4,3.9-4.4c2.3,0,3.5,1.7,3.5,4c0,0.4,0,0.8-0.1,1h-5.2c0.2,1.4,1.1,2.1,2.3,2.1
								c0.7,0,1.3-0.2,1.9-0.6l0.8,1.4c-0.8,0.6-1.9,0.9-2.9,0.9C214.4,31.2,212.5,29.6,212.5,26.8z M218.1,26
								c0-1.1-0.5-1.9-1.6-1.9c-0.9,0-1.7,0.6-1.8,1.9H218.1z"/>
						</g>
					</g>
					<g class="st1">
						<path d="M68.9,173h3.3c2.5,0,4.2,0.8,4.2,3.3c0,2.4-1.8,3.5-4.2,3.5h-1.7v4.2h-1.7V173z M72.2,178.4c1.8,0,2.6-0.7,2.6-2.1
							s-0.9-1.9-2.7-1.9h-1.4v4.1H72.2z"/>
						<path d="M77.5,179.9c0-2.8,1.8-4.4,3.9-4.4c2,0,3.9,1.6,3.9,4.4c0,2.7-1.8,4.3-3.9,4.3C79.4,184.2,77.5,182.6,77.5,179.9z
							 M83.5,179.9c0-1.8-0.8-2.9-2.1-2.9c-1.3,0-2.1,1.2-2.1,2.9c0,1.7,0.8,2.9,2.1,2.9C82.7,182.8,83.5,181.6,83.5,179.9z"/>
						<path d="M86.4,183.1l0.8-1.1c0.7,0.6,1.5,0.9,2.3,0.9c1,0,1.5-0.5,1.5-1.1c0-0.8-0.9-1.1-1.8-1.4c-1.1-0.4-2.4-1-2.4-2.4
							c0-1.4,1.1-2.4,2.9-2.4c1.1,0,2,0.5,2.7,1l-0.8,1.1c-0.6-0.4-1.2-0.7-1.8-0.7c-0.9,0-1.3,0.5-1.3,1c0,0.7,0.9,1,1.8,1.3
							c1.2,0.4,2.4,0.9,2.4,2.5c0,1.4-1.1,2.5-3.1,2.5C88.4,184.2,87.2,183.7,86.4,183.1z"/>
						<path d="M94.4,181.3v-4.2h-1.2v-1.3l1.3-0.1l0.2-2.3h1.5v2.3h2.1v1.4h-2.1v4.2c0,1,0.3,1.5,1.2,1.5c0.3,0,0.6-0.1,0.9-0.2
							l0.3,1.3c-0.5,0.2-1,0.3-1.6,0.3C95.1,184.2,94.4,183,94.4,181.3z"/>
						<path d="M100.1,175.8h1.4l0.1,1.2h0c0.7-0.8,1.5-1.4,2.5-1.4c1.2,0,1.9,0.6,2.3,1.5c0.8-0.9,1.6-1.5,2.7-1.5
							c1.7,0,2.5,1.2,2.5,3.3v5.2H110v-5c0-1.4-0.5-2-1.4-2c-0.6,0-1.2,0.4-1.9,1.1v5.8H105v-5c0-1.4-0.4-2-1.4-2
							c-0.6,0-1.2,0.4-1.9,1.1v5.8h-1.7V175.8z"/>
						<path d="M113.6,179.9c0-2.7,1.8-4.4,3.8-4.4c2.2,0,3.4,1.6,3.4,3.9c0,0.3,0,0.7-0.1,0.9h-5.4c0.1,1.6,1.1,2.5,2.5,2.5
							c0.7,0,1.4-0.2,2-0.6l0.6,1.1c-0.8,0.5-1.7,0.9-2.8,0.9C115.4,184.2,113.6,182.6,113.6,179.9z M119.3,179.1
							c0-1.4-0.6-2.2-1.8-2.2c-1,0-1.9,0.8-2.1,2.2H119.3z"/>
						<path d="M122.7,175.8h1.4l0.1,1.1h0c0.8-0.7,1.6-1.4,2.7-1.4c1.8,0,2.5,1.2,2.5,3.3v5.2h-1.7v-5c0-1.4-0.4-2-1.4-2
							c-0.8,0-1.3,0.4-2,1.1v5.8h-1.7V175.8z"/>
						<path d="M131.5,179.9c0-2.8,1.8-4.4,3.9-4.4c2,0,3.9,1.6,3.9,4.4c0,2.7-1.8,4.3-3.9,4.3C133.3,184.2,131.5,182.6,131.5,179.9z
							 M137.5,179.9c0-1.8-0.8-2.9-2.1-2.9c-1.3,0-2.1,1.2-2.1,2.9c0,1.7,0.8,2.9,2.1,2.9C136.7,182.8,137.5,181.6,137.5,179.9z"/>
						<path d="M141.3,175.8h1.4l0.1,0.9h0c0.7-0.6,1.6-1.1,2.5-1.1c2.1,0,3.3,1.7,3.3,4.2c0,2.8-1.7,4.5-3.6,4.5
							c-0.7,0-1.5-0.3-2.2-0.9l0,1.4v2.7h-1.7V175.8z M146.9,179.8c0-1.7-0.6-2.8-1.9-2.8c-0.6,0-1.3,0.3-2,1v4
							c0.6,0.6,1.3,0.8,1.8,0.8C146,182.8,146.9,181.7,146.9,179.8z"/>
						<path d="M150,181.8c0-1.8,1.5-2.7,4.9-3.1c0-1-0.4-1.8-1.6-1.8c-0.9,0-1.7,0.4-2.4,0.8l-0.6-1.2c0.9-0.5,2-1.1,3.3-1.1
							c2.1,0,3,1.3,3,3.5v5h-1.4l-0.1-0.9h0c-0.8,0.6-1.6,1.1-2.6,1.1C151,184.2,150,183.3,150,181.8z M154.9,181.9v-2
							c-2.4,0.3-3.3,0.9-3.3,1.8c0,0.8,0.6,1.1,1.3,1.1C153.7,182.8,154.3,182.5,154.9,181.9z"/>
						<path d="M159,180.9v-5.2h1.7v5c0,1.4,0.4,2,1.4,2c0.8,0,1.3-0.4,2-1.2v-5.7h1.7v8.2h-1.4l-0.1-1.2h0c-0.8,0.9-1.6,1.4-2.7,1.4
							C159.8,184.2,159,183,159,180.9z"/>
						<path d="M167.5,183.1l0.8-1.1c0.7,0.6,1.5,0.9,2.3,0.9c1,0,1.5-0.5,1.5-1.1c0-0.8-0.9-1.1-1.8-1.4c-1.1-0.4-2.4-1-2.4-2.4
							c0-1.4,1.1-2.4,2.9-2.4c1.1,0,2,0.5,2.7,1l-0.8,1.1c-0.6-0.4-1.2-0.7-1.8-0.7c-0.9,0-1.3,0.5-1.3,1c0,0.7,0.9,1,1.8,1.3
							c1.2,0.4,2.4,0.9,2.4,2.5c0,1.4-1.1,2.5-3.1,2.5C169.5,184.2,168.3,183.7,167.5,183.1z"/>
						<path d="M175.1,181.8c0-1.8,1.5-2.7,4.9-3.1c0-1-0.4-1.8-1.6-1.8c-0.9,0-1.7,0.4-2.4,0.8l-0.6-1.2c0.9-0.5,2-1.1,3.3-1.1
							c2.1,0,3,1.3,3,3.5v5h-1.4l-0.2-0.9h0c-0.8,0.6-1.6,1.1-2.6,1.1C176.1,184.2,175.1,183.3,175.1,181.8z M180.1,181.9v-2
							c-2.4,0.3-3.3,0.9-3.3,1.8c0,0.8,0.6,1.1,1.3,1.1C178.8,182.8,179.4,182.5,180.1,181.9z"/>
						<path d="M184.2,182.1v-10h1.7v10.1c0,0.5,0.2,0.6,0.4,0.6c0.1,0,0.1,0,0.3,0l0.2,1.3c-0.2,0.1-0.5,0.1-0.9,0.1
							C184.7,184.2,184.2,183.4,184.2,182.1z"/>
						<path d="M191.4,182.6l1-1.2c0.8,0.8,1.9,1.3,2.9,1.3c1.3,0,2.1-0.6,2.1-1.6c0-1-0.8-1.3-1.8-1.8l-1.5-0.7
							c-1.1-0.5-2.2-1.3-2.2-2.9c0-1.7,1.5-3,3.6-3c1.3,0,2.5,0.5,3.3,1.4l-0.9,1.1c-0.7-0.6-1.5-1-2.4-1c-1.1,0-1.9,0.5-1.9,1.4
							c0,0.9,0.9,1.3,1.8,1.7l1.5,0.6c1.3,0.6,2.2,1.4,2.2,3c0,1.8-1.5,3.2-3.9,3.2C193.9,184.2,192.5,183.6,191.4,182.6z"/>
						<path d="M204.8,184.5c-0.6,1.8-1.5,3-3.3,3c-0.4,0-0.8-0.1-1-0.2l0.3-1.4c0.2,0,0.4,0.1,0.6,0.1c0.9,0,1.4-0.7,1.7-1.5
							l0.2-0.6l-3.3-8.2h1.8l1.5,4.2c0.2,0.7,0.5,1.6,0.8,2.3h0.1l0.6-2.3l1.3-4.2h1.7L204.8,184.5z"/>
						<path d="M209.4,175.8h1.4l0.1,1.2h0c0.7-0.8,1.5-1.4,2.5-1.4c1.2,0,1.9,0.6,2.3,1.5c0.8-0.9,1.7-1.5,2.7-1.5
							c1.7,0,2.5,1.2,2.5,3.3v5.2h-1.7v-5c0-1.4-0.5-2-1.4-2c-0.6,0-1.2,0.4-1.9,1.1v5.8h-1.7v-5c0-1.4-0.4-2-1.4-2
							c-0.6,0-1.2,0.4-1.9,1.1v5.8h-1.7V175.8z"/>
						<path d="M223.5,175.8h1.4l0.1,0.9h0c0.7-0.6,1.6-1.1,2.5-1.1c2.1,0,3.3,1.7,3.3,4.2c0,2.8-1.7,4.5-3.6,4.5
							c-0.7,0-1.5-0.3-2.2-0.9l0,1.4v2.7h-1.7V175.8z M229.1,179.8c0-1.7-0.6-2.8-1.9-2.8c-0.6,0-1.3,0.3-2,1v4
							c0.6,0.6,1.3,0.8,1.8,0.8C228.2,182.8,229.1,181.7,229.1,179.8z"/>
						<path d="M232.9,181.3v-4.2h-1.2v-1.3l1.3-0.1l0.2-2.3h1.5v2.3h2.1v1.4h-2.1v4.2c0,1,0.3,1.5,1.2,1.5c0.3,0,0.6-0.1,0.9-0.2
							l0.3,1.3c-0.5,0.2-1,0.3-1.6,0.3C233.5,184.2,232.9,183,232.9,181.3z"/>
						<path d="M237.7,179.9c0-2.8,1.8-4.4,3.9-4.4c2,0,3.9,1.6,3.9,4.4c0,2.7-1.8,4.3-3.9,4.3C239.5,184.2,237.7,182.6,237.7,179.9z
							 M243.7,179.9c0-1.8-0.8-2.9-2.1-2.9c-1.3,0-2.1,1.2-2.1,2.9c0,1.7,0.8,2.9,2.1,2.9C242.9,182.8,243.7,181.6,243.7,179.9z"/>
						<path d="M247.5,175.8h1.4l0.1,1.2h0c0.7-0.8,1.5-1.4,2.5-1.4c1.2,0,1.9,0.6,2.3,1.5c0.8-0.9,1.7-1.5,2.7-1.5
							c1.7,0,2.5,1.2,2.5,3.3v5.2h-1.7v-5c0-1.4-0.5-2-1.4-2c-0.6,0-1.2,0.4-1.9,1.1v5.8h-1.7v-5c0-1.4-0.4-2-1.4-2
							c-0.6,0-1.2,0.4-1.9,1.1v5.8h-1.7V175.8z"/>
						<path d="M260.7,183.1l0.8-1.1c0.7,0.6,1.5,0.9,2.3,0.9c1,0,1.5-0.5,1.5-1.1c0-0.8-0.9-1.1-1.8-1.4c-1.1-0.4-2.4-1-2.4-2.4
							c0-1.4,1.1-2.4,2.9-2.4c1.1,0,2,0.5,2.7,1l-0.8,1.1c-0.6-0.4-1.2-0.7-1.8-0.7c-0.9,0-1.3,0.5-1.3,1c0,0.7,0.9,1,1.8,1.3
							c1.2,0.4,2.4,0.9,2.4,2.5c0,1.4-1.1,2.5-3.1,2.5C262.7,184.2,261.5,183.7,260.7,183.1z"/>
					</g>
					<g class="st1">
						<path d="M145.2,70.9h2.2v4.4h4.2v-4.4h2.2V82h-2.2v-4.8h-4.2V82h-2.2V70.9z"/>
						<path d="M158.6,76.3l-2.9-5.4h2.5l1.1,2.3c0.3,0.5,0.5,1.1,0.8,1.8h0.1c0.3-0.7,0.5-1.2,0.7-1.8l1-2.3h2.3l-2.9,5.5l3.1,5.6
							H162l-1.2-2.5c-0.3-0.6-0.5-1.2-0.9-1.8h-0.1c-0.3,0.7-0.5,1.3-0.8,1.8l-1.2,2.5h-2.4L158.6,76.3z"/>
						<path d="M165,80.7l1-1.4c0.7,0.6,1.5,1.1,2.5,1.1c1.1,0,1.9-0.6,1.9-1.5c0-1.1-0.6-1.8-3.1-1.8v-1.6c2,0,2.7-0.7,2.7-1.7
							c0-0.9-0.5-1.4-1.5-1.4c-0.8,0-1.4,0.4-2.1,1l-1.1-1.3c1-0.8,2-1.4,3.3-1.4c2.1,0,3.6,1,3.6,3c0,1.2-0.7,2.1-1.9,2.5v0.1
							c1.3,0.3,2.2,1.3,2.2,2.7c0,2-1.8,3.2-3.9,3.2C167,82.2,165.8,81.5,165,80.7z"/>
						<path d="M174.1,76.4c0-3.8,1.5-5.7,3.8-5.7c2.2,0,3.8,1.9,3.8,5.7s-1.5,5.8-3.8,5.8C175.6,82.2,174.1,80.2,174.1,76.4z
							 M179.6,76.4c0-3.1-0.7-4-1.7-4c-1,0-1.7,0.9-1.7,4c0,3.1,0.7,4.1,1.7,4.1C178.8,80.5,179.6,79.5,179.6,76.4z"/>
						<path d="M183.5,80.2h2.4v-7h-2v-1.4c1.1-0.2,1.9-0.5,2.6-0.9h1.6v9.3h2.1V82h-6.7V80.2z"/>
					</g>
					<g transform="translate(0.000000, 204.000000)">
						<path class="st3" d="M8.8,0.8h316.5c4.4,0,8,3.6,8,8v82.5c0,4.4-3.6,8-8,8H8.8c-4.4,0-8-3.6-8-8V8.8C0.8,4.3,4.3,0.8,8.8,0.8z
							"/>
						<g class="st1">
							<path class="st2" d="M114.5,44.9h3.7c2.3,0,4,0.7,4,2.7c0,1-0.6,2.1-1.5,2.4v0.1c1.2,0.3,2.1,1.1,2.1,2.6
								c0,2.2-1.9,3.3-4.3,3.3h-4V44.9z M118,49.4c1.4,0,2-0.6,2-1.5c0-1-0.7-1.4-2-1.4h-1.3v2.8H118z M118.2,54.3
								c1.5,0,2.3-0.5,2.3-1.7c0-1.1-0.8-1.5-2.3-1.5h-1.5v3.2H118.2z"/>
							<path class="st2" d="M124.1,53.7c0-1.8,1.5-2.7,4.8-3.1c0-0.8-0.4-1.5-1.4-1.5c-0.8,0-1.5,0.3-2.3,0.8l-0.8-1.5
								c1-0.6,2.2-1.1,3.5-1.1c2.1,0,3.2,1.3,3.2,3.7V56h-1.8l-0.2-0.9h0c-0.7,0.6-1.6,1.1-2.5,1.1
								C125.1,56.2,124.1,55.1,124.1,53.7z M128.9,53.7V52c-2,0.3-2.7,0.8-2.7,1.6c0,0.7,0.5,0.9,1.1,0.9
								C127.9,54.5,128.4,54.2,128.9,53.7z"/>
							<path class="st2" d="M132.6,55l1-1.4c0.8,0.6,1.5,0.9,2.2,0.9c0.8,0,1.2-0.4,1.2-0.9c0-0.6-0.9-0.9-1.8-1.3
								c-1.1-0.4-2.3-1-2.3-2.4c0-1.5,1.2-2.6,3.1-2.6c1.2,0,2.2,0.5,2.9,1l-1,1.3c-0.6-0.4-1.2-0.7-1.8-0.7c-0.8,0-1.1,0.3-1.1,0.8
								c0,0.6,0.8,0.8,1.7,1.2c1.1,0.4,2.3,1,2.3,2.5c0,1.5-1.2,2.7-3.3,2.7C134.6,56.2,133.4,55.7,132.6,55z"/>
							<path class="st2" d="M140.6,45.1c0-0.7,0.6-1.2,1.3-1.2c0.8,0,1.3,0.5,1.3,1.2c0,0.7-0.6,1.2-1.3,1.2
								C141.1,46.2,140.6,45.7,140.6,45.1z M140.8,47.6h2.2V56h-2.2V47.6z"/>
							<path class="st2" d="M144.8,51.8c0-2.8,2-4.4,4.3-4.4c1,0,1.8,0.4,2.4,0.9l-1,1.4c-0.4-0.4-0.8-0.6-1.3-0.6
								c-1.3,0-2.1,1-2.1,2.6c0,1.6,0.9,2.6,2.1,2.6c0.6,0,1.2-0.3,1.6-0.7l0.9,1.5c-0.8,0.7-1.8,1-2.7,1
								C146.6,56.2,144.8,54.6,144.8,51.8z"/>
							<path class="st2" d="M162.9,56l-2.3-4.2h-1.5V56h-2.2V44.9h3.9c2.3,0,4.2,0.8,4.2,3.4c0,1.7-0.8,2.7-2.1,3.2l2.6,4.5H162.9z
								 M159.1,50h1.4c1.4,0,2.2-0.6,2.2-1.8c0-1.2-0.8-1.6-2.2-1.6h-1.4V50z"/>
							<path class="st2" d="M166.2,51.8c0-2.7,1.9-4.4,3.9-4.4c2.3,0,3.5,1.7,3.5,4c0,0.4,0,0.8-0.1,1h-5.2c0.2,1.4,1.1,2.1,2.3,2.1
								c0.7,0,1.3-0.2,1.9-0.6l0.8,1.4c-0.8,0.6-1.9,0.9-2.9,0.9C168,56.2,166.2,54.6,166.2,51.8z M171.7,51c0-1.1-0.5-1.9-1.6-1.9
								c-0.9,0-1.7,0.6-1.8,1.9H171.7z"/>
							<path class="st2" d="M174.6,55l1-1.4c0.8,0.6,1.5,0.9,2.2,0.9c0.8,0,1.2-0.4,1.2-0.9c0-0.6-0.9-0.9-1.8-1.3
								c-1.1-0.4-2.3-1-2.3-2.4c0-1.5,1.2-2.6,3.1-2.6c1.2,0,2.2,0.5,2.9,1l-1,1.3c-0.6-0.4-1.2-0.7-1.8-0.7c-0.8,0-1.1,0.3-1.1,0.8
								c0,0.6,0.8,0.8,1.7,1.2c1.1,0.4,2.3,1,2.3,2.5c0,1.5-1.2,2.7-3.3,2.7C176.7,56.2,175.5,55.7,174.6,55z"/>
							<path class="st2" d="M182.3,51.8c0-2.7,1.9-4.4,3.9-4.4c2.3,0,3.5,1.7,3.5,4c0,0.4,0,0.8-0.1,1h-5.2c0.2,1.4,1.1,2.1,2.3,2.1
								c0.7,0,1.3-0.2,1.9-0.6l0.8,1.4c-0.8,0.6-1.9,0.9-2.9,0.9C184.2,56.2,182.3,54.6,182.3,51.8z M187.9,51
								c0-1.1-0.5-1.9-1.6-1.9c-0.9,0-1.7,0.6-1.8,1.9H187.9z"/>
							<path class="st2" d="M190.9,53.7c0-1.8,1.5-2.7,4.8-3.1c0-0.8-0.4-1.5-1.4-1.5c-0.8,0-1.5,0.3-2.3,0.8l-0.8-1.5
								c1-0.6,2.2-1.1,3.5-1.1c2.1,0,3.2,1.3,3.2,3.7V56h-1.8l-0.2-0.9h0c-0.7,0.6-1.6,1.1-2.5,1.1
								C191.9,56.2,190.9,55.1,190.9,53.7z M195.8,53.7V52c-2,0.3-2.7,0.8-2.7,1.6c0,0.7,0.5,0.9,1.1,0.9
								C194.8,54.5,195.2,54.2,195.8,53.7z"/>
							<path class="st2" d="M200.2,47.6h1.8l0.2,1.5h0.1c0.6-1.1,1.5-1.7,2.4-1.7c0.5,0,0.7,0.1,1,0.2l-0.4,1.9
								c-0.3-0.1-0.5-0.1-0.9-0.1c-0.7,0-1.5,0.4-1.9,1.7v5h-2.2V47.6z"/>
							<path class="st2" d="M206.1,51.8c0-2.8,2-4.4,4.3-4.4c1,0,1.8,0.4,2.4,0.9l-1,1.4c-0.4-0.4-0.8-0.6-1.3-0.6
								c-1.3,0-2.1,1-2.1,2.6c0,1.6,0.9,2.6,2.1,2.6c0.6,0,1.2-0.3,1.6-0.7l0.9,1.5c-0.8,0.7-1.8,1-2.7,1
								C207.8,56.2,206.1,54.6,206.1,51.8z"/>
							<path class="st2" d="M214.5,44h2.2v3l-0.1,1.6c0.7-0.6,1.5-1.2,2.6-1.2c1.8,0,2.6,1.3,2.6,3.4V56h-2.2v-5
								c0-1.3-0.4-1.8-1.2-1.8c-0.7,0-1.1,0.3-1.8,0.9V56h-2.2V44z"/>
						</g>
					</g>
				</g>
			</g>
			<g transform="translate(0.000000, 354.000000)">
				<g>
					<g>
						<path class="st0" d="M8,0h318c4.4,0,8,3.6,8,8v34c0,4.4-3.6,8-8,8H8c-4.4,0-8-3.6-8-8V8C0,3.6,3.6,0,8,0z"/>
						<g class="st1">
							<path class="st2" d="M142.4,19.9h3.6c2.5,0,4.3,0.9,4.3,3.5c0,2.5-1.9,3.7-4.3,3.7h-1.5V31h-2.2V19.9z M145.9,25.3
								c1.5,0,2.3-0.6,2.3-1.9c0-1.3-0.8-1.7-2.3-1.7h-1.3v3.6H145.9z"/>
							<path class="st2" d="M152.2,22.6h1.8l0.1,1.5h0.1c0.6-1.1,1.5-1.7,2.4-1.7c0.5,0,0.7,0.1,1,0.2l-0.4,1.9
								c-0.3-0.1-0.5-0.1-0.9-0.1c-0.7,0-1.5,0.4-1.9,1.7v5h-2.2V22.6z"/>
							<path class="st2" d="M158,26.8c0-2.8,1.9-4.4,4-4.4s4,1.6,4,4.4c0,2.8-1.9,4.4-4,4.4S158,29.6,158,26.8z M163.8,26.8
								c0-1.6-0.6-2.6-1.8-2.6s-1.8,1-1.8,2.6c0,1.6,0.6,2.6,1.8,2.6S163.8,28.4,163.8,26.8z"/>
							<path class="st2" d="M165.9,34.2l0.4-1.6c0.2,0.1,0.4,0.1,0.7,0.1c0.7,0,0.9-0.5,0.9-1.4v-8.7h2.2v8.6c0,1.8-0.7,3.2-2.8,3.2
								C166.7,34.4,166.3,34.3,165.9,34.2z M167.7,20.1c0-0.7,0.6-1.2,1.3-1.2c0.8,0,1.3,0.5,1.3,1.2c0,0.7-0.6,1.2-1.3,1.2
								C168.3,21.2,167.7,20.7,167.7,20.1z"/>
							<path class="st2" d="M172,26.8c0-2.7,1.9-4.4,3.9-4.4c2.3,0,3.5,1.7,3.5,4c0,0.4,0,0.8-0.1,1h-5.2c0.2,1.4,1.1,2.1,2.3,2.1
								c0.7,0,1.3-0.2,1.9-0.6l0.8,1.4c-0.8,0.6-1.9,0.9-2.9,0.9C173.8,31.2,172,29.6,172,26.8z M177.5,26c0-1.1-0.5-1.9-1.6-1.9
								c-0.9,0-1.7,0.6-1.8,1.9H177.5z"/>
							<path class="st2" d="M180.7,26.8c0-2.8,2-4.4,4.3-4.4c1,0,1.8,0.4,2.4,0.9l-1.1,1.4c-0.4-0.4-0.8-0.6-1.3-0.6
								c-1.3,0-2.1,1-2.1,2.6c0,1.6,0.9,2.6,2.1,2.6c0.6,0,1.2-0.3,1.6-0.7l0.9,1.5c-0.8,0.7-1.8,1-2.7,1
								C182.5,31.2,180.7,29.6,180.7,26.8z"/>
							<path class="st2" d="M189.3,28.1v-3.7h-1.2v-1.6l1.3-0.1l0.3-2.2h1.8v2.2h2.1v1.7h-2.1v3.7c0,1,0.4,1.4,1.1,1.4
								c0.3,0,0.6-0.1,0.8-0.2l0.4,1.6c-0.4,0.2-1,0.3-1.8,0.3C190,31.2,189.3,30,189.3,28.1z"/>
						</g>
					</g>
					<g transform="translate(0.000000, 102.000000)">
						<path class="st0" d="M8,0h318c4.4,0,8,3.6,8,8v34c0,4.4-3.6,8-8,8H8c-4.4,0-8-3.6-8-8V8C0,3.6,3.6,0,8,0z"/>
						<g class="st1">
							<path class="st2" d="M117.6,21.7h-3.1v-1.8h8.5v1.8h-3.1V31h-2.2V21.7z"/>
							<path class="st2" d="M123,28.7c0-1.8,1.5-2.7,4.8-3.1c0-0.8-0.4-1.5-1.4-1.5c-0.8,0-1.5,0.3-2.3,0.8l-0.8-1.5
								c1-0.6,2.2-1.1,3.5-1.1c2.1,0,3.2,1.3,3.2,3.7V31h-1.8l-0.2-0.9h0c-0.7,0.6-1.6,1.1-2.5,1.1C124,31.2,123,30.1,123,28.7z
								 M127.8,28.7V27c-2,0.3-2.7,0.8-2.7,1.6c0,0.7,0.5,0.9,1.1,0.9C126.9,29.5,127.3,29.2,127.8,28.7z"/>
							<path class="st2" d="M132.3,22.6h1.8l0.1,1.5h0.1c0.6-1.1,1.5-1.7,2.4-1.7c0.5,0,0.7,0.1,1,0.2l-0.4,1.9
								c-0.3-0.1-0.5-0.1-0.9-0.1c-0.7,0-1.5,0.4-1.9,1.7v5h-2.2V22.6z"/>
							<path class="st2" d="M138.1,32.5c0-0.7,0.4-1.3,1.2-1.7v-0.1c-0.4-0.3-0.8-0.7-0.8-1.4c0-0.6,0.4-1.2,0.9-1.6v-0.1
								c-0.6-0.4-1.1-1.2-1.1-2.2c0-2,1.6-3,3.4-3c0.5,0,0.9,0.1,1.3,0.2h3v1.6h-1.4c0.2,0.3,0.4,0.8,0.4,1.3c0,1.9-1.4,2.8-3.2,2.8
								c-0.3,0-0.7-0.1-1.1-0.2c-0.2,0.2-0.4,0.4-0.4,0.7c0,0.5,0.3,0.7,1.3,0.7h1.4c2,0,3.1,0.6,3.1,2.1c0,1.7-1.8,3-4.6,3
								C139.6,34.6,138.1,34,138.1,32.5z M144.1,32c0-0.6-0.5-0.8-1.4-0.8h-1c-0.5,0-0.9,0-1.2-0.1c-0.4,0.3-0.6,0.6-0.6,1
								c0,0.7,0.8,1.1,2,1.1C143.2,33.2,144.1,32.7,144.1,32z M143.1,25.4c0-1-0.6-1.5-1.3-1.5s-1.3,0.6-1.3,1.5
								c0,1,0.6,1.5,1.3,1.5S143.1,26.4,143.1,25.4z"/>
							<path class="st2" d="M146.8,26.8c0-2.7,1.9-4.4,3.9-4.4c2.3,0,3.5,1.7,3.5,4c0,0.4,0,0.8-0.1,1h-5.2c0.2,1.4,1.1,2.1,2.3,2.1
								c0.7,0,1.3-0.2,1.9-0.6l0.8,1.4c-0.8,0.6-1.9,0.9-2.9,0.9C148.6,31.2,146.8,29.6,146.8,26.8z M152.3,26
								c0-1.1-0.5-1.9-1.6-1.9c-0.9,0-1.7,0.6-1.8,1.9H152.3z"/>
							<path class="st2" d="M156.2,28.1v-3.7H155v-1.6l1.3-0.1l0.3-2.2h1.8v2.2h2.1v1.7h-2.1v3.7c0,1,0.4,1.4,1.1,1.4
								c0.3,0,0.6-0.1,0.8-0.2l0.4,1.6c-0.5,0.2-1,0.3-1.8,0.3C156.9,31.2,156.2,30,156.2,28.1z"/>
							<path class="st2" d="M165.7,19.9h3c3.4,0,5.5,1.8,5.5,5.5c0,3.7-2.1,5.6-5.4,5.6h-3.2V19.9z M168.7,29.2
								c2.1,0,3.4-1.1,3.4-3.8c0-2.7-1.3-3.7-3.4-3.7H168v7.5H168.7z"/>
							<path class="st2" d="M176.1,20.1c0-0.7,0.6-1.2,1.3-1.2c0.8,0,1.3,0.5,1.3,1.2c0,0.7-0.6,1.2-1.3,1.2
								C176.6,21.2,176.1,20.7,176.1,20.1z M176.3,22.6h2.2V31h-2.2V22.6z"/>
							<path class="st2" d="M180,30l1-1.4c0.8,0.6,1.5,0.9,2.2,0.9c0.8,0,1.2-0.4,1.2-0.9c0-0.6-0.9-0.9-1.8-1.3
								c-1.1-0.4-2.3-1-2.3-2.4c0-1.5,1.2-2.6,3.1-2.6c1.2,0,2.2,0.5,2.9,1l-1,1.3c-0.6-0.4-1.2-0.7-1.8-0.7c-0.8,0-1.1,0.3-1.1,0.8
								c0,0.6,0.8,0.8,1.7,1.2c1.1,0.4,2.3,1,2.3,2.5c0,1.5-1.2,2.7-3.3,2.7C182.1,31.2,180.9,30.7,180,30z"/>
							<path class="st2" d="M187.7,26.8c0-2.7,1.9-4.4,3.9-4.4c2.3,0,3.5,1.7,3.5,4c0,0.4,0,0.8-0.1,1h-5.2c0.2,1.4,1.1,2.1,2.3,2.1
								c0.7,0,1.3-0.2,1.9-0.6l0.8,1.4c-0.8,0.6-1.9,0.9-2.9,0.9C189.6,31.2,187.7,29.6,187.7,26.8z M193.3,26
								c0-1.1-0.5-1.9-1.6-1.9c-0.9,0-1.7,0.6-1.8,1.9H193.3z"/>
							<path class="st2" d="M196.3,28.7c0-1.8,1.5-2.7,4.8-3.1c0-0.8-0.4-1.5-1.4-1.5c-0.8,0-1.5,0.3-2.3,0.8l-0.8-1.5
								c1-0.6,2.2-1.1,3.5-1.1c2.1,0,3.2,1.3,3.2,3.7V31h-1.8l-0.2-0.9h0c-0.7,0.6-1.6,1.1-2.5,1.1
								C197.3,31.2,196.3,30.1,196.3,28.7z M201.2,28.7V27c-2,0.3-2.7,0.8-2.7,1.6c0,0.7,0.5,0.9,1.1,0.9
								C200.2,29.5,200.7,29.2,201.2,28.7z"/>
							<path class="st2" d="M204.8,30l1-1.4c0.8,0.6,1.5,0.9,2.2,0.9c0.8,0,1.2-0.4,1.2-0.9c0-0.6-0.9-0.9-1.8-1.3
								c-1.1-0.4-2.3-1-2.3-2.4c0-1.5,1.2-2.6,3.1-2.6c1.2,0,2.2,0.5,2.9,1l-1,1.3c-0.6-0.4-1.2-0.7-1.8-0.7c-0.8,0-1.1,0.3-1.1,0.8
								c0,0.6,0.8,0.8,1.7,1.2c1.1,0.4,2.3,1,2.3,2.5c0,1.5-1.2,2.7-3.3,2.7C206.9,31.2,205.7,30.7,204.8,30z"/>
							<path class="st2" d="M212.5,26.8c0-2.7,1.9-4.4,3.9-4.4c2.3,0,3.5,1.7,3.5,4c0,0.4,0,0.8-0.1,1h-5.2c0.2,1.4,1.1,2.1,2.3,2.1
								c0.7,0,1.3-0.2,1.9-0.6l0.8,1.4c-0.8,0.6-1.9,0.9-2.9,0.9C214.4,31.2,212.5,29.6,212.5,26.8z M218.1,26
								c0-1.1-0.5-1.9-1.6-1.9c-0.9,0-1.7,0.6-1.8,1.9H218.1z"/>
						</g>
					</g>
					<g class="st1">
						<path d="M97.6,173h2.9c3.4,0,5.3,1.9,5.3,5.5c0,3.6-1.9,5.6-5.2,5.6h-3V173z M100.3,182.6c2.4,0,3.6-1.4,3.6-4.1
							c0-2.8-1.3-4.1-3.6-4.1h-1v8.2H100.3z"/>
						<path d="M107.3,179.9c0-2.7,1.8-4.4,3.8-4.4c2.2,0,3.4,1.6,3.4,3.9c0,0.3,0,0.7-0.1,0.9H109c0.1,1.6,1.1,2.5,2.5,2.5
							c0.7,0,1.4-0.2,2-0.6l0.6,1.1c-0.8,0.5-1.7,0.9-2.8,0.9C109.1,184.2,107.3,182.6,107.3,179.9z M113,179.1
							c0-1.4-0.6-2.2-1.8-2.2c-1,0-1.9,0.8-2.1,2.2H113z"/>
						<path d="M116.4,175.8h1.4l0.1,0.9h0c0.7-0.6,1.6-1.1,2.5-1.1c2.1,0,3.3,1.7,3.3,4.2c0,2.8-1.7,4.5-3.6,4.5
							c-0.7,0-1.5-0.3-2.2-0.9l0,1.4v2.7h-1.7V175.8z M122,179.8c0-1.7-0.6-2.8-1.9-2.8c-0.6,0-1.3,0.3-2,1v4
							c0.6,0.6,1.3,0.8,1.8,0.8C121.1,182.8,122,181.7,122,179.8z"/>
						<path d="M125.9,175.8h1.4l0.1,1.5h0c0.6-1.1,1.5-1.7,2.3-1.7c0.4,0,0.7,0.1,0.9,0.2l-0.3,1.5c-0.3-0.1-0.5-0.1-0.8-0.1
							c-0.7,0-1.5,0.5-2,1.8v5.1h-1.7V175.8z"/>
						<path d="M131.2,179.9c0-2.7,1.8-4.4,3.8-4.4c2.2,0,3.4,1.6,3.4,3.9c0,0.3,0,0.7-0.1,0.9h-5.4c0.1,1.6,1.1,2.5,2.5,2.5
							c0.7,0,1.4-0.2,2-0.6l0.6,1.1c-0.8,0.5-1.7,0.9-2.8,0.9C133,184.2,131.2,182.6,131.2,179.9z M136.9,179.1
							c0-1.4-0.6-2.2-1.8-2.2c-1,0-1.9,0.8-2.1,2.2H136.9z"/>
						<path d="M139.4,183.1l0.8-1.1c0.7,0.6,1.5,0.9,2.3,0.9c1,0,1.5-0.5,1.5-1.1c0-0.8-0.9-1.1-1.8-1.4c-1.1-0.4-2.4-1-2.4-2.4
							c0-1.4,1.1-2.4,2.9-2.4c1.1,0,2,0.5,2.7,1l-0.8,1.1c-0.6-0.4-1.2-0.7-1.8-0.7c-0.9,0-1.3,0.5-1.3,1c0,0.7,0.9,1,1.8,1.3
							c1.2,0.4,2.4,0.9,2.4,2.5c0,1.4-1.1,2.5-3.1,2.5C141.4,184.2,140.2,183.7,139.4,183.1z"/>
						<path d="M146.6,183.1l0.8-1.1c0.7,0.6,1.5,0.9,2.3,0.9c1,0,1.5-0.5,1.5-1.1c0-0.8-0.9-1.1-1.8-1.4c-1.1-0.4-2.4-1-2.4-2.4
							c0-1.4,1.1-2.4,2.9-2.4c1.1,0,2,0.5,2.7,1l-0.8,1.1c-0.6-0.4-1.2-0.7-1.8-0.7c-0.9,0-1.3,0.5-1.3,1c0,0.7,0.9,1,1.8,1.3
							c1.2,0.4,2.4,0.9,2.4,2.5c0,1.4-1.1,2.5-3.1,2.5C148.6,184.2,147.4,183.7,146.6,183.1z"/>
						<path d="M154.5,173.2c0-0.6,0.5-1,1.1-1c0.6,0,1.1,0.4,1.1,1c0,0.6-0.5,1-1.1,1C154.9,174.2,154.5,173.8,154.5,173.2z
							 M154.7,175.8h1.7v8.2h-1.7V175.8z"/>
						<path d="M157.9,175.8h1.8l1.4,4.4c0.2,0.8,0.5,1.6,0.7,2.5h0.1c0.2-0.8,0.5-1.7,0.7-2.5l1.4-4.4h1.7l-2.9,8.2h-2L157.9,175.8z
							"/>
						<path d="M166.5,179.9c0-2.7,1.8-4.4,3.8-4.4c2.2,0,3.4,1.6,3.4,3.9c0,0.3,0,0.7-0.1,0.9h-5.4c0.1,1.6,1.1,2.5,2.5,2.5
							c0.7,0,1.4-0.2,2-0.6l0.6,1.1c-0.8,0.5-1.7,0.9-2.8,0.9C168.3,184.2,166.5,182.6,166.5,179.9z M172.1,179.1
							c0-1.4-0.6-2.2-1.8-2.2c-1,0-1.9,0.8-2.1,2.2H172.1z"/>
						<path d="M179.1,173h2.9c3.4,0,5.3,1.9,5.3,5.5c0,3.6-1.9,5.6-5.2,5.6h-3V173z M181.8,182.6c2.4,0,3.6-1.4,3.6-4.1
							c0-2.8-1.3-4.1-3.6-4.1h-1v8.2H181.8z"/>
						<path d="M189.2,173.2c0-0.6,0.5-1,1.1-1c0.6,0,1.1,0.4,1.1,1c0,0.6-0.5,1-1.1,1C189.6,174.2,189.2,173.8,189.2,173.2z
							 M189.4,175.8h1.7v8.2h-1.7V175.8z"/>
						<path d="M192.9,183.1l0.8-1.1c0.7,0.6,1.5,0.9,2.3,0.9c1,0,1.5-0.5,1.5-1.1c0-0.8-0.9-1.1-1.8-1.4c-1.1-0.4-2.4-1-2.4-2.4
							c0-1.4,1.1-2.4,2.9-2.4c1.1,0,2,0.5,2.7,1l-0.8,1.1c-0.6-0.4-1.2-0.7-1.8-0.7c-0.9,0-1.3,0.5-1.3,1c0,0.7,0.9,1,1.8,1.3
							c1.2,0.4,2.4,0.9,2.4,2.5c0,1.4-1.1,2.5-3.1,2.5C194.8,184.2,193.7,183.7,192.9,183.1z"/>
						<path d="M200.3,179.9c0-2.8,1.8-4.4,3.9-4.4s3.9,1.6,3.9,4.4c0,2.7-1.8,4.3-3.9,4.3S200.3,182.6,200.3,179.9z M206.3,179.9
							c0-1.8-0.8-2.9-2.1-2.9c-1.3,0-2.1,1.2-2.1,2.9c0,1.7,0.8,2.9,2.1,2.9C205.5,182.8,206.3,181.6,206.3,179.9z"/>
						<path d="M210.1,175.8h1.4l0.1,1.5h0c0.6-1.1,1.5-1.7,2.3-1.7c0.4,0,0.7,0.1,0.9,0.2l-0.3,1.5c-0.3-0.1-0.5-0.1-0.8-0.1
							c-0.7,0-1.5,0.5-2,1.8v5.1h-1.7V175.8z"/>
						<path d="M215.6,179.9c0-2.7,1.7-4.4,3.5-4.4c0.9,0,1.5,0.4,2.2,0.9l-0.1-1.4V172h1.7v12h-1.4l-0.2-0.9h0
							c-0.6,0.6-1.5,1.1-2.4,1.1C216.9,184.2,215.6,182.6,215.6,179.9z M221.2,181.8v-4c-0.6-0.6-1.2-0.8-1.8-0.8
							c-1.2,0-2.1,1.1-2.1,2.9c0,1.9,0.7,2.9,2,2.9C220.1,182.8,220.6,182.5,221.2,181.8z"/>
						<path d="M225,179.9c0-2.7,1.8-4.4,3.8-4.4c2.2,0,3.4,1.6,3.4,3.9c0,0.3,0,0.7-0.1,0.9h-5.4c0.1,1.6,1.1,2.5,2.5,2.5
							c0.7,0,1.4-0.2,2-0.6l0.6,1.1c-0.8,0.5-1.7,0.9-2.8,0.9C226.8,184.2,225,182.6,225,179.9z M230.6,179.1c0-1.4-0.6-2.2-1.8-2.2
							c-1,0-2,0.8-2.1,2.2H230.6z"/>
						<path d="M234,175.8h1.4l0.1,1.5h0c0.6-1.1,1.5-1.7,2.3-1.7c0.4,0,0.7,0.1,0.9,0.2l-0.3,1.5c-0.3-0.1-0.5-0.1-0.8-0.1
							c-0.7,0-1.5,0.5-2,1.8v5.1H234V175.8z"/>
					</g>
					<g class="st1">
						<path d="M145.2,70.9h2.2v4.4h4.2v-4.4h2.2V82h-2.2v-4.8h-4.2V82h-2.2V70.9z"/>
						<path d="M158.6,76.3l-2.9-5.4h2.5l1.1,2.3c0.3,0.5,0.5,1.1,0.8,1.8h0.1c0.3-0.7,0.5-1.2,0.7-1.8l1-2.3h2.3l-2.9,5.5l3.1,5.6
							H162l-1.2-2.5c-0.3-0.6-0.5-1.2-0.9-1.8h-0.1c-0.3,0.7-0.5,1.3-0.8,1.8l-1.2,2.5h-2.4L158.6,76.3z"/>
						<path d="M165,80.7l1-1.4c0.7,0.6,1.5,1.1,2.5,1.1c1.1,0,1.9-0.6,1.9-1.5c0-1.1-0.6-1.8-3.1-1.8v-1.6c2,0,2.7-0.7,2.7-1.7
							c0-0.9-0.5-1.4-1.5-1.4c-0.8,0-1.4,0.4-2.1,1l-1.1-1.3c1-0.8,2-1.4,3.3-1.4c2.1,0,3.6,1,3.6,3c0,1.2-0.7,2.1-1.9,2.5v0.1
							c1.3,0.3,2.2,1.3,2.2,2.7c0,2-1.8,3.2-3.9,3.2C167,82.2,165.8,81.5,165,80.7z"/>
						<path d="M174.1,76.4c0-3.8,1.5-5.7,3.8-5.7c2.2,0,3.8,1.9,3.8,5.7s-1.5,5.8-3.8,5.8C175.6,82.2,174.1,80.2,174.1,76.4z
							 M179.6,76.4c0-3.1-0.7-4-1.7-4c-1,0-1.7,0.9-1.7,4c0,3.1,0.7,4.1,1.7,4.1C178.8,80.5,179.6,79.5,179.6,76.4z"/>
						<path d="M182.9,80.7c3-2.7,4.8-4.8,4.8-6.5c0-1.1-0.6-1.8-1.7-1.8c-0.8,0-1.5,0.5-2,1.1l-1.2-1.2c1-1.1,2-1.7,3.5-1.7
							c2.1,0,3.5,1.3,3.5,3.4c0,2-1.7,4.2-3.7,6.1c0.6-0.1,1.3-0.1,1.8-0.1h2.4V82h-7.4V80.7z"/>
					</g>
					<g transform="translate(0.000000, 204.000000)">
						<path class="st3" d="M8.8,0.8h316.5c4.4,0,8,3.6,8,8v82.5c0,4.4-3.6,8-8,8H8.8c-4.4,0-8-3.6-8-8V8.8C0.8,4.3,4.3,0.8,8.8,0.8z
							"/>
						<g class="st1">
							<path class="st2" d="M107.2,50.5c0-3.7,2.4-5.8,5.2-5.8c1.4,0,2.5,0.7,3.3,1.4l-1.2,1.4c-0.6-0.5-1.2-0.9-2-0.9
								c-1.7,0-2.9,1.4-2.9,3.8c0,2.4,1.1,3.9,2.9,3.9c0.9,0,1.7-0.5,2.3-1.1l1.2,1.4c-0.9,1.1-2.1,1.6-3.5,1.6
								C109.5,56.2,107.2,54.2,107.2,50.5z"/>
							<path class="st2" d="M117.4,53.6V44h2.2v9.7c0,0.5,0.2,0.7,0.4,0.7c0.1,0,0.1,0,0.3,0l0.3,1.6c-0.3,0.1-0.6,0.2-1.1,0.2
								C118,56.2,117.4,55.2,117.4,53.6z"/>
							<path class="st2" d="M121.9,45.1c0-0.7,0.6-1.2,1.3-1.2c0.8,0,1.3,0.5,1.3,1.2c0,0.7-0.6,1.2-1.3,1.2
								C122.5,46.2,121.9,45.7,121.9,45.1z M122.2,47.6h2.2V56h-2.2V47.6z"/>
							<path class="st2" d="M126.7,47.6h1.8l0.1,1.1h0.1c0.7-0.7,1.6-1.3,2.7-1.3c1.8,0,2.6,1.3,2.6,3.4V56h-2.2v-5
								c0-1.3-0.4-1.8-1.2-1.8c-0.7,0-1.1,0.3-1.8,0.9V56h-2.2V47.6z"/>
							<path class="st2" d="M136.1,45.1c0-0.7,0.6-1.2,1.3-1.2c0.8,0,1.3,0.5,1.3,1.2c0,0.7-0.6,1.2-1.3,1.2
								C136.7,46.2,136.1,45.7,136.1,45.1z M136.3,47.6h2.2V56h-2.2V47.6z"/>
							<path class="st2" d="M140.4,51.8c0-2.8,2-4.4,4.3-4.4c1,0,1.8,0.4,2.4,0.9l-1,1.4c-0.4-0.4-0.8-0.6-1.3-0.6
								c-1.3,0-2.1,1-2.1,2.6c0,1.6,0.9,2.6,2.1,2.6c0.6,0,1.2-0.3,1.6-0.7l0.9,1.5c-0.8,0.7-1.8,1-2.7,1
								C142.1,56.2,140.4,54.6,140.4,51.8z"/>
							<path class="st2" d="M148.2,53.7c0-1.8,1.5-2.7,4.8-3.1c0-0.8-0.4-1.5-1.4-1.5c-0.8,0-1.5,0.3-2.3,0.8l-0.8-1.5
								c1-0.6,2.2-1.1,3.5-1.1c2.1,0,3.2,1.3,3.2,3.7V56h-1.8l-0.2-0.9h0c-0.7,0.6-1.6,1.1-2.5,1.1
								C149.2,56.2,148.2,55.1,148.2,53.7z M153,53.7V52c-2,0.3-2.7,0.8-2.7,1.6c0,0.7,0.5,0.9,1.1,0.9
								C152,54.5,152.5,54.2,153,53.7z"/>
							<path class="st2" d="M157.5,53.6V44h2.2v9.7c0,0.5,0.2,0.7,0.4,0.7c0.1,0,0.1,0,0.3,0l0.3,1.6c-0.3,0.1-0.6,0.2-1.1,0.2
								C158,56.2,157.5,55.2,157.5,53.6z"/>
							<path class="st2" d="M168,46.7h-3.1v-1.8h8.5v1.8h-3.1V56H168V46.7z"/>
							<path class="st2" d="M174.3,47.6h1.8l0.1,1.5h0.1c0.6-1.1,1.5-1.7,2.4-1.7c0.5,0,0.7,0.1,1,0.2l-0.4,1.9
								c-0.3-0.1-0.5-0.1-0.9-0.1c-0.7,0-1.5,0.4-1.9,1.7v5h-2.2V47.6z"/>
							<path class="st2" d="M180.6,45.1c0-0.7,0.6-1.2,1.3-1.2c0.8,0,1.3,0.5,1.3,1.2c0,0.7-0.6,1.2-1.3,1.2
								C181.1,46.2,180.6,45.7,180.6,45.1z M180.8,47.6h2.2V56h-2.2V47.6z"/>
							<path class="st2" d="M184.9,53.7c0-1.8,1.5-2.7,4.8-3.1c0-0.8-0.4-1.5-1.4-1.5c-0.8,0-1.5,0.3-2.3,0.8l-0.8-1.5
								c1-0.6,2.2-1.1,3.5-1.1c2.1,0,3.2,1.3,3.2,3.7V56h-1.8l-0.2-0.9h0c-0.7,0.6-1.6,1.1-2.5,1.1
								C185.9,56.2,184.9,55.1,184.9,53.7z M189.8,53.7V52c-2,0.3-2.7,0.8-2.7,1.6c0,0.7,0.5,0.9,1.1,0.9
								C188.8,54.5,189.2,54.2,189.8,53.7z"/>
							<path class="st2" d="M194.2,53.6V44h2.2v9.7c0,0.5,0.2,0.7,0.4,0.7c0.1,0,0.2,0,0.3,0l0.3,1.6c-0.3,0.1-0.6,0.2-1.1,0.2
								C194.8,56.2,194.2,55.2,194.2,53.6z"/>
							<path class="st2" d="M202.5,44.9h3.6c2.5,0,4.4,0.9,4.4,3.5c0,2.5-1.9,3.7-4.3,3.7h-1.5V56h-2.2V44.9z M206.1,50.3
								c1.5,0,2.3-0.6,2.3-1.9c0-1.3-0.8-1.7-2.3-1.7h-1.3v3.6H206.1z"/>
							<path class="st2" d="M212.4,44h2.2v3l-0.1,1.6c0.7-0.6,1.5-1.2,2.6-1.2c1.8,0,2.6,1.3,2.6,3.4V56h-2.2v-5
								c0-1.3-0.4-1.8-1.2-1.8c-0.7,0-1.1,0.3-1.8,0.9V56h-2.2V44z"/>
							<path class="st2" d="M221.4,54.7c3-2.7,4.8-4.8,4.8-6.5c0-1.1-0.6-1.8-1.7-1.8c-0.8,0-1.5,0.5-2,1.1l-1.2-1.2
								c1-1.1,2-1.7,3.5-1.7c2.1,0,3.5,1.3,3.5,3.4c0,2-1.7,4.2-3.7,6.1c0.6-0.1,1.3-0.1,1.8-0.1h2.4V56h-7.4V54.7z"/>
						</g>
					</g>
				</g>
			</g>
		</g>
	</g>
</g>
</svg>
