<?xml version="1.0" encoding="utf-8"?>
<!-- Generator: Adobe Illustrator 23.0.1, SVG Export Plug-In . SVG Version: 6.00 Build 0)  -->
<svg version="1.1" id="Layer_1" xmlns="http://www.w3.org/2000/svg" xmlns:xlink="http://www.w3.org/1999/xlink" x="0px" y="0px"
	 viewBox="0 0 909 470" style="enable-background:new 0 0 909 470;" xml:space="preserve">
<style type="text/css">
	.st0{fill-rule:evenodd;clip-rule:evenodd;fill:#B54142;stroke:#B54142;stroke-width:1.5;}
	.st1{enable-background:new    ;}
	.st2{fill:#FFFFFF;}
	.st3{fill:none;stroke:#979797;stroke-linecap:square;}
	.st4{fill-rule:evenodd;clip-rule:evenodd;fill:#B54142;fill-opacity:0.7;stroke:#B54142;}
	.st5{font-family:'NotoSansCJKkr-Medium-KSCpc-EUC-H';}
	.st6{font-size:12px;}
	.st7{fill-rule:evenodd;clip-rule:evenodd;}
</style>
<title>표</title>
<desc>Created with Sketch.</desc>
<g id="Page-1">
	<g transform="translate(-266.000000, -1455.000000)">
		<g id="third" transform="translate(190.000000, 1355.000000)">
			<g id="표" transform="translate(77.000000, 100.000000)">
				<g id="others" transform="translate(280.000000, 0.000000)">
					<g>
						<path id="bg" class="st0" d="M8.8,0.8h132.5c4.4,0,8,3.6,8,8v32.5c0,4.4-3.6,8-8,8H8.8c-4.4,0-8-3.6-8-8V8.8
							C0.8,4.3,4.3,0.8,8.8,0.8z"/>
						<g class="st1">
							<path class="st2" d="M21.5,19.9h3.7c2.3,0,4,0.7,4,2.7c0,1-0.6,2.1-1.5,2.4v0.1c1.2,0.3,2.1,1.1,2.1,2.6
								c0,2.2-1.9,3.3-4.3,3.3h-4V19.9z M25,24.4c1.4,0,2-0.6,2-1.5c0-1-0.7-1.4-2-1.4h-1.3v2.8H25z M25.2,29.3
								c1.5,0,2.3-0.5,2.3-1.7c0-1.1-0.8-1.5-2.3-1.5h-1.5v3.2H25.2z"/>
							<path class="st2" d="M31.1,28.7c0-1.8,1.5-2.7,4.8-3.1c0-0.8-0.4-1.5-1.4-1.5c-0.8,0-1.5,0.3-2.3,0.8l-0.8-1.5
								c1-0.6,2.2-1.1,3.5-1.1c2.1,0,3.2,1.3,3.2,3.7V31h-1.8l-0.2-0.9h0c-0.7,0.6-1.6,1.1-2.5,1.1C32.1,31.2,31.1,30.1,31.1,28.7z
								 M35.9,28.7V27c-2,0.3-2.7,0.8-2.7,1.6c0,0.7,0.5,0.9,1.1,0.9C34.9,29.5,35.4,29.2,35.9,28.7z"/>
							<path class="st2" d="M39.6,30l1-1.4c0.8,0.6,1.5,0.9,2.2,0.9c0.8,0,1.2-0.4,1.2-0.9c0-0.6-0.9-0.9-1.8-1.3
								C41.2,27,40,26.4,40,25c0-1.5,1.2-2.6,3.1-2.6c1.2,0,2.2,0.5,2.9,1l-1,1.3c-0.6-0.4-1.2-0.7-1.8-0.7c-0.8,0-1.1,0.3-1.1,0.8
								c0,0.6,0.8,0.8,1.7,1.2c1.1,0.4,2.3,1,2.3,2.5c0,1.5-1.2,2.7-3.3,2.7C41.6,31.2,40.4,30.7,39.6,30z"/>
							<path class="st2" d="M47.6,20.1c0-0.7,0.6-1.2,1.3-1.2c0.8,0,1.3,0.5,1.3,1.2c0,0.7-0.6,1.2-1.3,1.2
								C48.1,21.2,47.6,20.7,47.6,20.1z M47.8,22.6H50V31h-2.2V22.6z"/>
							<path class="st2" d="M51.8,26.8c0-2.8,2-4.4,4.3-4.4c1,0,1.8,0.4,2.4,0.9l-1,1.4c-0.4-0.4-0.8-0.6-1.3-0.6
								c-1.3,0-2.1,1-2.1,2.6c0,1.6,0.9,2.6,2.1,2.6c0.6,0,1.2-0.3,1.6-0.7l0.9,1.5c-0.8,0.7-1.8,1-2.7,1
								C53.6,31.2,51.8,29.6,51.8,26.8z"/>
							<path class="st2" d="M69.9,31l-2.3-4.2h-1.5V31h-2.2V19.9h3.9c2.3,0,4.2,0.8,4.2,3.4c0,1.7-0.8,2.7-2.1,3.2l2.6,4.5H69.9z
								 M66.1,25h1.4c1.4,0,2.2-0.6,2.2-1.8c0-1.2-0.8-1.6-2.2-1.6h-1.4V25z"/>
							<path class="st2" d="M73.2,26.8c0-2.7,1.9-4.4,3.9-4.4c2.3,0,3.5,1.7,3.5,4c0,0.4,0,0.8-0.1,1h-5.2c0.2,1.4,1.1,2.1,2.3,2.1
								c0.7,0,1.3-0.2,1.9-0.6l0.8,1.4c-0.8,0.6-1.9,0.9-2.9,0.9C75,31.2,73.2,29.6,73.2,26.8z M78.7,26c0-1.1-0.5-1.9-1.6-1.9
								c-0.9,0-1.7,0.6-1.8,1.9H78.7z"/>
							<path class="st2" d="M81.6,30l1-1.4c0.8,0.6,1.5,0.9,2.2,0.9c0.8,0,1.2-0.4,1.2-0.9c0-0.6-0.9-0.9-1.8-1.3
								C83.3,27,82,26.4,82,25c0-1.5,1.2-2.6,3.1-2.6c1.2,0,2.2,0.5,2.9,1l-1,1.3c-0.6-0.4-1.2-0.7-1.8-0.7c-0.8,0-1.1,0.3-1.1,0.8
								c0,0.6,0.8,0.8,1.7,1.2c1.1,0.4,2.3,1,2.3,2.5c0,1.5-1.2,2.7-3.3,2.7C83.7,31.2,82.5,30.7,81.6,30z"/>
							<path class="st2" d="M89.3,26.8c0-2.7,1.9-4.4,3.9-4.4c2.3,0,3.5,1.7,3.5,4c0,0.4,0,0.8-0.1,1h-5.2c0.2,1.4,1.1,2.1,2.3,2.1
								c0.7,0,1.3-0.2,1.9-0.6l0.8,1.4c-0.8,0.6-1.9,0.9-2.9,0.9C91.2,31.2,89.3,29.6,89.3,26.8z M94.9,26c0-1.1-0.5-1.9-1.6-1.9
								c-0.9,0-1.7,0.6-1.8,1.9H94.9z"/>
							<path class="st2" d="M97.9,28.7c0-1.8,1.5-2.7,4.8-3.1c0-0.8-0.4-1.5-1.4-1.5c-0.8,0-1.5,0.3-2.3,0.8l-0.8-1.5
								c1-0.6,2.2-1.1,3.5-1.1c2.1,0,3.2,1.3,3.2,3.7V31h-1.8l-0.2-0.9h0c-0.7,0.6-1.6,1.1-2.5,1.1C98.9,31.2,97.9,30.1,97.9,28.7z
								 M102.8,28.7V27c-2,0.3-2.7,0.8-2.7,1.6c0,0.7,0.5,0.9,1.1,0.9C101.8,29.5,102.2,29.2,102.8,28.7z"/>
							<path class="st2" d="M107.2,22.6h1.8l0.1,1.5h0.1c0.6-1.1,1.5-1.7,2.4-1.7c0.5,0,0.7,0.1,1,0.2l-0.4,1.9
								c-0.3-0.1-0.5-0.1-0.9-0.1c-0.7,0-1.5,0.4-1.9,1.7v5h-2.2V22.6z"/>
							<path class="st2" d="M113.1,26.8c0-2.8,2-4.4,4.3-4.4c1,0,1.8,0.4,2.4,0.9l-1,1.4c-0.4-0.4-0.8-0.6-1.3-0.6
								c-1.3,0-2.1,1-2.1,2.6c0,1.6,0.9,2.6,2.1,2.6c0.6,0,1.2-0.3,1.6-0.7l0.9,1.5c-0.8,0.7-1.8,1-2.7,1
								C114.8,31.2,113.1,29.6,113.1,26.8z"/>
							<path class="st2" d="M121.5,19h2.2v3l-0.1,1.6c0.7-0.6,1.5-1.2,2.6-1.2c1.8,0,2.6,1.3,2.6,3.4V31h-2.2v-5
								c0-1.3-0.4-1.8-1.2-1.8c-0.7,0-1.1,0.3-1.8,0.9V31h-2.2V19z"/>
						</g>
					</g>
					<g transform="translate(317.000000, 0.000000)">
						<path class="st0" d="M8.8,0.8h132.5c4.4,0,8,3.6,8,8v32.5c0,4.4-3.6,8-8,8H8.8c-4.4,0-8-3.6-8-8V8.8C0.8,4.3,4.3,0.8,8.8,0.8z
							"/>
						<g class="st1">
							<path class="st2" d="M32.3,25.5c0-3.6,2.2-5.8,5-5.8c1.4,0,2.5,0.7,3.1,1.4l-0.9,1.1c-0.6-0.6-1.3-1-2.2-1
								c-1.9,0-3.2,1.6-3.2,4.2c0,2.6,1.2,4.2,3.2,4.2c1,0,1.8-0.4,2.4-1.2l0.9,1.1c-0.9,1-2,1.6-3.4,1.6
								C34.4,31.2,32.3,29.1,32.3,25.5z"/>
							<path class="st2" d="M42.4,29.1V19h1.7v10.1c0,0.5,0.2,0.6,0.4,0.6c0.1,0,0.1,0,0.3,0l0.2,1.3c-0.2,0.1-0.5,0.1-0.9,0.1
								C42.9,31.2,42.4,30.4,42.4,29.1z"/>
							<path class="st2" d="M46.7,20.2c0-0.6,0.5-1,1.1-1s1.1,0.4,1.1,1c0,0.6-0.5,1-1.1,1S46.7,20.8,46.7,20.2z M46.9,22.8h1.7V31
								h-1.7V22.8z"/>
							<path class="st2" d="M51.2,22.8h1.4l0.1,1.1h0c0.8-0.7,1.6-1.4,2.7-1.4c1.8,0,2.5,1.2,2.5,3.3V31h-1.7v-5c0-1.4-0.4-2-1.4-2
								c-0.8,0-1.3,0.4-2,1.1V31h-1.7V22.8z"/>
							<path class="st2" d="M60.3,20.2c0-0.6,0.5-1,1.1-1s1.1,0.4,1.1,1c0,0.6-0.5,1-1.1,1S60.3,20.8,60.3,20.2z M60.6,22.8h1.7V31
								h-1.7V22.8z"/>
							<path class="st2" d="M64.3,26.9c0-2.8,1.9-4.4,4.1-4.4c1,0,1.8,0.4,2.4,0.9l-0.9,1.1C69.5,24.2,69,24,68.4,24
								c-1.4,0-2.4,1.2-2.4,2.9c0,1.7,0.9,2.9,2.3,2.9c0.7,0,1.3-0.3,1.8-0.8l0.7,1.1c-0.8,0.7-1.7,1-2.7,1
								C66,31.2,64.3,29.6,64.3,26.9z"/>
							<path class="st2" d="M72,28.8c0-1.8,1.5-2.7,4.9-3.1c0-1-0.4-1.8-1.6-1.8c-0.9,0-1.7,0.4-2.4,0.8l-0.6-1.2
								c0.9-0.5,2-1.1,3.3-1.1c2.1,0,3,1.3,3,3.5v5h-1.4l-0.2-0.9h0c-0.8,0.6-1.6,1.1-2.6,1.1C73,31.2,72,30.3,72,28.8z M76.9,28.9
								v-2c-2.4,0.3-3.3,0.9-3.3,1.8c0,0.8,0.6,1.1,1.3,1.1C75.7,29.8,76.2,29.5,76.9,28.9z"/>
							<path class="st2" d="M81.1,29.1V19h1.7v10.1c0,0.5,0.2,0.6,0.4,0.6c0.1,0,0.1,0,0.3,0l0.2,1.3c-0.2,0.1-0.5,0.1-0.9,0.1
								C81.6,31.2,81.1,30.4,81.1,29.1z"/>
							<path class="st2" d="M91.3,21.4h-3.2V20h8.2v1.5h-3.3V31h-1.7V21.4z"/>
							<path class="st2" d="M97.3,22.8h1.4l0.1,1.5h0c0.6-1.1,1.5-1.7,2.3-1.7c0.4,0,0.7,0.1,0.9,0.2l-0.3,1.5
								c-0.3-0.1-0.5-0.1-0.8-0.1c-0.7,0-1.5,0.5-2,1.8V31h-1.7V22.8z"/>
							<path class="st2" d="M103.2,20.2c0-0.6,0.5-1,1.1-1c0.6,0,1.1,0.4,1.1,1c0,0.6-0.5,1-1.1,1C103.7,21.2,103.2,20.8,103.2,20.2
								z M103.5,22.8h1.7V31h-1.7V22.8z"/>
							<path class="st2" d="M107.3,28.8c0-1.8,1.5-2.7,4.9-3.1c0-1-0.4-1.8-1.6-1.8c-0.9,0-1.7,0.4-2.4,0.8l-0.6-1.2
								c0.9-0.5,2-1.1,3.3-1.1c2.1,0,3,1.3,3,3.5v5h-1.4l-0.1-0.9h0c-0.8,0.6-1.6,1.1-2.6,1.1C108.3,31.2,107.3,30.3,107.3,28.8z
								 M112.2,28.9v-2c-2.4,0.3-3.3,0.9-3.3,1.8c0,0.8,0.6,1.1,1.3,1.1C111,29.8,111.5,29.5,112.2,28.9z"/>
							<path class="st2" d="M116.4,29.1V19h1.7v10.1c0,0.5,0.2,0.6,0.4,0.6c0.1,0,0.1,0,0.3,0l0.2,1.3c-0.2,0.1-0.5,0.1-0.9,0.1
								C116.9,31.2,116.4,30.4,116.4,29.1z"/>
						</g>
					</g>
					<g transform="translate(157.000000, 0.000000)">
						<path class="st0" d="M8.8,0.8h132.5c4.4,0,8,3.6,8,8v32.5c0,4.4-3.6,8-8,8H8.8c-4.4,0-8-3.6-8-8V8.8C0.8,4.3,4.3,0.8,8.8,0.8z
							"/>
						<g class="st1">
							<path class="st2" d="M34.1,19.9h3.6c2.5,0,4.3,0.9,4.3,3.5c0,2.5-1.9,3.7-4.3,3.7h-1.5V31h-2.2V19.9z M37.7,25.3
								c1.5,0,2.3-0.6,2.3-1.9c0-1.3-0.8-1.7-2.3-1.7h-1.3v3.6H37.7z"/>
							<path class="st2" d="M44,22.6h1.8l0.2,1.5H46c0.6-1.1,1.5-1.7,2.4-1.7c0.5,0,0.7,0.1,1,0.2L49,24.5c-0.3-0.1-0.5-0.1-0.9-0.1
								c-0.7,0-1.5,0.4-1.9,1.7v5H44V22.6z"/>
							<path class="st2" d="M49.8,26.8c0-2.7,1.9-4.4,3.9-4.4c2.3,0,3.5,1.7,3.5,4c0,0.4,0,0.8-0.1,1h-5.2c0.2,1.4,1.1,2.1,2.3,2.1
								c0.7,0,1.3-0.2,1.9-0.6l0.8,1.4c-0.8,0.6-1.9,0.9-2.9,0.9C51.6,31.2,49.8,29.6,49.8,26.8z M55.3,26c0-1.1-0.5-1.9-1.6-1.9
								c-0.9,0-1.7,0.6-1.8,1.9H55.3z"/>
							<path class="st2" d="M58.8,25.9h4.1v1.6h-4.1V25.9z"/>
							<path class="st2" d="M64.4,25.5c0-3.7,2.4-5.8,5.2-5.8c1.4,0,2.5,0.7,3.3,1.4l-1.2,1.4c-0.6-0.5-1.2-0.9-2-0.9
								c-1.7,0-2.9,1.4-2.9,3.8c0,2.4,1.1,3.9,2.9,3.9c0.9,0,1.7-0.5,2.3-1.1l1.2,1.4c-0.9,1.1-2.1,1.6-3.5,1.6
								C66.7,31.2,64.4,29.2,64.4,25.5z"/>
							<path class="st2" d="M74.6,28.6V19h2.2v9.7c0,0.5,0.2,0.7,0.5,0.7c0.1,0,0.1,0,0.3,0l0.3,1.6c-0.3,0.1-0.6,0.2-1.1,0.2
								C75.2,31.2,74.6,30.2,74.6,28.6z"/>
							<path class="st2" d="M79.1,20.1c0-0.7,0.6-1.2,1.3-1.2c0.8,0,1.3,0.5,1.3,1.2c0,0.7-0.6,1.2-1.3,1.2
								C79.7,21.2,79.1,20.7,79.1,20.1z M79.4,22.6h2.2V31h-2.2V22.6z"/>
							<path class="st2" d="M83.9,22.6h1.8l0.2,1.1h0.1c0.7-0.7,1.6-1.3,2.7-1.3c1.8,0,2.6,1.3,2.6,3.4V31H89v-5
								c0-1.3-0.4-1.8-1.2-1.8c-0.7,0-1.1,0.3-1.8,0.9V31h-2.2V22.6z"/>
							<path class="st2" d="M93.3,20.1c0-0.7,0.6-1.2,1.3-1.2c0.8,0,1.3,0.5,1.3,1.2c0,0.7-0.6,1.2-1.3,1.2
								C93.9,21.2,93.3,20.7,93.3,20.1z M93.5,22.6h2.2V31h-2.2V22.6z"/>
							<path class="st2" d="M97.6,26.8c0-2.8,2-4.4,4.3-4.4c1,0,1.8,0.4,2.4,0.9l-1,1.4c-0.4-0.4-0.8-0.6-1.3-0.6
								c-1.3,0-2.1,1-2.1,2.6c0,1.6,0.9,2.6,2.1,2.6c0.6,0,1.2-0.3,1.6-0.7l0.9,1.5c-0.8,0.7-1.8,1-2.7,1
								C99.3,31.2,97.6,29.6,97.6,26.8z"/>
							<path class="st2" d="M105.4,28.7c0-1.8,1.5-2.7,4.8-3.1c0-0.8-0.4-1.5-1.4-1.5c-0.8,0-1.5,0.3-2.3,0.8l-0.8-1.5
								c1-0.6,2.2-1.1,3.5-1.1c2.1,0,3.2,1.3,3.2,3.7V31h-1.8l-0.2-0.9h0c-0.7,0.6-1.6,1.1-2.5,1.1
								C106.4,31.2,105.4,30.1,105.4,28.7z M110.2,28.7V27c-2,0.3-2.7,0.8-2.7,1.6c0,0.7,0.5,0.9,1.1,0.9
								C109.2,29.5,109.7,29.2,110.2,28.7z"/>
							<path class="st2" d="M114.7,28.6V19h2.2v9.7c0,0.5,0.2,0.7,0.5,0.7c0.1,0,0.1,0,0.3,0l0.3,1.6c-0.3,0.1-0.6,0.2-1.1,0.2
								C115.2,31.2,114.7,30.2,114.7,28.6z"/>
						</g>
					</g>
					<g transform="translate(477.000000, 0.000000)">
						<path class="st0" d="M8.8,0.8h132.5c4.4,0,8,3.6,8,8v32.5c0,4.4-3.6,8-8,8H8.8c-4.4,0-8-3.6-8-8V8.8C0.8,4.3,4.3,0.8,8.8,0.8z
							"/>
						<g class="st1">
							<path class="st2" d="M12.5,19.9H15l1.9,5.2c0.2,0.7,0.4,1.4,0.7,2.1h0.1c0.2-0.7,0.4-1.5,0.7-2.1l1.8-5.2h2.5V31h-2v-4.6
								c0-1,0.2-2.6,0.3-3.6h-0.1l-0.9,2.6L18.2,30h-1.3l-1.7-4.7l-0.9-2.6h-0.1c0.1,1,0.3,2.6,0.3,3.6V31h-2V19.9z"/>
							<path class="st2" d="M24.7,28.7c0-1.8,1.5-2.7,4.8-3.1c0-0.8-0.4-1.5-1.4-1.5c-0.8,0-1.5,0.3-2.3,0.8L25,23.5
								c1-0.6,2.2-1.1,3.5-1.1c2.1,0,3.2,1.3,3.2,3.7V31H30l-0.2-0.9h0c-0.7,0.6-1.6,1.1-2.5,1.1C25.7,31.2,24.7,30.1,24.7,28.7z
								 M29.6,28.7V27c-2,0.3-2.7,0.8-2.7,1.6c0,0.7,0.5,0.9,1.1,0.9C28.6,29.5,29,29.2,29.6,28.7z"/>
							<path class="st2" d="M34,22.6h1.8l0.1,1.5H36c0.6-1.1,1.5-1.7,2.4-1.7c0.5,0,0.7,0.1,1,0.2L39,24.5c-0.3-0.1-0.5-0.1-0.9-0.1
								c-0.7,0-1.5,0.4-1.9,1.7v5H34V22.6z"/>
							<path class="st2" d="M40.6,19h2.1v7.2h0.1l2.9-3.6h2.4L45.2,26l3.2,5H46l-2-3.5l-1.2,1.4V31h-2.1V19z"/>
							<path class="st2" d="M48.7,26.8c0-2.7,1.9-4.4,3.9-4.4c2.3,0,3.5,1.7,3.5,4c0,0.4,0,0.8-0.1,1h-5.2c0.2,1.4,1.1,2.1,2.3,2.1
								c0.7,0,1.3-0.2,1.9-0.6l0.8,1.4c-0.8,0.6-1.9,0.9-2.9,0.9C50.5,31.2,48.7,29.6,48.7,26.8z M54.2,26c0-1.1-0.5-1.9-1.6-1.9
								c-0.9,0-1.7,0.6-1.8,1.9H54.2z"/>
							<path class="st2" d="M58.1,28.1v-3.7h-1.2v-1.6l1.3-0.1l0.3-2.2h1.8v2.2h2.1v1.7h-2.1v3.7c0,1,0.4,1.4,1.1,1.4
								c0.3,0,0.6-0.1,0.8-0.2l0.4,1.6c-0.5,0.2-1,0.3-1.8,0.3C58.8,31.2,58.1,30,58.1,28.1z"/>
							<path class="st2" d="M67.6,19.9h2.2v9.2h4.5V31h-6.7V19.9z"/>
							<path class="st2" d="M75.7,28.7c0-1.8,1.5-2.7,4.8-3.1c0-0.8-0.4-1.5-1.4-1.5c-0.8,0-1.5,0.3-2.3,0.8L76,23.5
								c1-0.6,2.2-1.1,3.5-1.1c2.1,0,3.2,1.3,3.2,3.7V31h-1.8l-0.2-0.9h0c-0.7,0.6-1.6,1.1-2.5,1.1C76.7,31.2,75.7,30.1,75.7,28.7z
								 M80.5,28.7V27c-2,0.3-2.7,0.8-2.7,1.6c0,0.7,0.5,0.9,1.1,0.9C79.5,29.5,80,29.2,80.5,28.7z"/>
							<path class="st2" d="M84.9,27.9v-5.2h2.2v5c0,1.3,0.4,1.8,1.2,1.8c0.7,0,1.1-0.3,1.7-1v-5.7h2.2V31h-1.8l-0.2-1.2h-0.1
								c-0.7,0.9-1.5,1.4-2.7,1.4C85.7,31.2,84.9,30,84.9,27.9z"/>
							<path class="st2" d="M94.5,22.6h1.8l0.1,1.1h0.1c0.7-0.7,1.6-1.3,2.7-1.3c1.8,0,2.6,1.3,2.6,3.4V31h-2.2v-5
								c0-1.3-0.4-1.8-1.2-1.8c-0.7,0-1.1,0.3-1.8,0.9V31h-2.2V22.6z"/>
							<path class="st2" d="M103.6,26.8c0-2.8,2-4.4,4.3-4.4c1,0,1.8,0.4,2.4,0.9l-1,1.4c-0.4-0.4-0.8-0.6-1.3-0.6
								c-1.3,0-2.1,1-2.1,2.6c0,1.6,0.9,2.6,2.1,2.6c0.6,0,1.2-0.3,1.6-0.7l0.9,1.5c-0.8,0.7-1.8,1-2.7,1
								C105.4,31.2,103.6,29.6,103.6,26.8z"/>
							<path class="st2" d="M112,19h2.2v3l-0.1,1.6c0.7-0.6,1.5-1.2,2.6-1.2c1.8,0,2.6,1.3,2.6,3.4V31h-2.2v-5
								c0-1.3-0.4-1.8-1.2-1.8c-0.7,0-1.1,0.3-1.8,0.9V31H112V19z"/>
							<path class="st2" d="M121.1,26.8c0-2.7,1.9-4.4,3.9-4.4c2.3,0,3.5,1.7,3.5,4c0,0.4,0,0.8-0.1,1h-5.2c0.2,1.4,1.1,2.1,2.3,2.1
								c0.7,0,1.3-0.2,1.9-0.6l0.8,1.4c-0.8,0.6-1.9,0.9-2.9,0.9C122.9,31.2,121.1,29.6,121.1,26.8z M126.7,26
								c0-1.1-0.5-1.9-1.6-1.9c-0.9,0-1.7,0.6-1.8,1.9H126.7z"/>
							<path class="st2" d="M129.9,26.8c0-2.7,1.7-4.4,3.5-4.4c0.9,0,1.5,0.4,2.1,0.9l-0.1-1.3v-3h2.2v12h-1.8l-0.2-0.9h0
								c-0.6,0.6-1.5,1.1-2.3,1.1C131.2,31.2,129.9,29.6,129.9,26.8z M135.4,28.5v-3.7c-0.5-0.5-1-0.6-1.6-0.6
								c-0.9,0-1.7,0.9-1.7,2.6c0,1.7,0.6,2.6,1.7,2.6C134.5,29.4,135,29.2,135.4,28.5z"/>
						</g>
					</g>
				</g>
				<g id="수직_divider" transform="translate(279.000000, 60.000000)">
				</g>
				<g id="수평_divider" transform="translate(0.000000, 125.000000)">
					<path id="divider" class="st3" d="M0,0.5h907"/>
					<path class="st3" d="M0,61.5h907"/>
					<path class="st3" d="M0,136.5h907"/>
					<path class="st3" d="M0,211.5h907"/>
					<path class="st3" d="M0,286.5h907"/>
				</g>
				<g id="bars" transform="translate(289.000000, 67.000000)">
					<g id="bar1">
						<path id="bar" class="st4" d="M21,0.5h566c11.3,0,20.5,9.2,20.5,20.5l0,0c0,11.3-9.2,20.5-20.5,20.5H21
							C9.7,41.5,0.5,32.3,0.5,21l0,0C0.5,9.7,9.7,0.5,21,0.5z"/>
						<g id="text" transform="translate(195.000000, 10.000000)">
							<g>
								<g class="st1">
									<path class="st2" d="M6.8,14.2H3.2L2.4,17H0.2L3.7,5.9h2.6L9.9,17H7.6L6.8,14.2z M6.3,12.4L6,11.2c-0.3-1.2-0.6-2.4-1-3.6
										H4.9C4.7,8.8,4.3,10.1,4,11.2l-0.3,1.2H6.3z"/>
									<path class="st2" d="M11.2,5.9h2.2v9.2h4.5V17h-6.7V5.9z"/>
									<path class="st2" d="M19.9,5.9h2.2v9.2h4.5V17h-6.7V5.9z"/>
									<path class="st2" d="M28.5,5.9h6.8v1.8h-4.6v2.6h3.9v1.9h-3.9v3h4.8V17h-7V5.9z"/>
									<path class="st2" d="M39.7,11.3l-2.9-5.4h2.5l1.1,2.3c0.3,0.5,0.5,1.1,0.8,1.8h0.1c0.3-0.7,0.5-1.2,0.7-1.8l1-2.3h2.3
										l-2.9,5.5l3.1,5.6h-2.5l-1.2-2.5c-0.3-0.6-0.5-1.2-0.9-1.8h-0.1c-0.3,0.7-0.5,1.3-0.8,1.8L38.9,17h-2.4L39.7,11.3z"/>
								</g>
								<g class="st1">
									<path class="st2" d="M47,6.1c0-1.9,1.4-3,3-3c1.6,0,3,1.1,3,3s-1.4,3-3,3C48.4,9.1,47,7.9,47,6.1z M52.4,6.1
										c0-1.5-1.1-2.5-2.4-2.5c-1.3,0-2.4,1-2.4,2.5s1.1,2.5,2.4,2.5C51.3,8.6,52.4,7.6,52.4,6.1z M48.4,6.1
										c0-1.1,0.8-1.7,1.7-1.7c0.6,0,0.9,0.2,1.2,0.5l-0.5,0.5C50.6,5.2,50.4,5,50.2,5c-0.6,0-0.9,0.4-0.9,1
										c0,0.7,0.4,1.1,0.9,1.1c0.3,0,0.5-0.1,0.8-0.3l0.4,0.6c-0.3,0.3-0.7,0.5-1.2,0.5C49.1,7.8,48.4,7.2,48.4,6.1z"/>
								</g>
							</g>
							<g class="st1">
								<path class="st2" d="M67.1,8.1h1.8v7.4h3.6V17h-5.4V8.1z"/>
								<path class="st2" d="M73.5,15.2c0-1.4,1.2-2.2,3.9-2.5c0-0.7-0.3-1.2-1.1-1.2c-0.6,0-1.2,0.3-1.8,0.6L73.8,11
									c0.8-0.5,1.8-0.9,2.8-0.9c1.7,0,2.6,1,2.6,3V17h-1.4l-0.1-0.7h0c-0.6,0.5-1.3,0.9-2,0.9C74.3,17.2,73.5,16.3,73.5,15.2z
									 M77.4,15.1v-1.4c-1.6,0.2-2.2,0.7-2.2,1.3c0,0.5,0.4,0.8,0.9,0.8C76.6,15.8,77,15.5,77.4,15.1z"/>
								<path class="st2" d="M80.9,14.5v-4.2h1.8v4c0,1,0.3,1.4,0.9,1.4c0.6,0,0.9-0.2,1.4-0.8v-4.5h1.8V17h-1.4l-0.1-1h0
									c-0.6,0.7-1.2,1.1-2.1,1.1C81.5,17.2,80.9,16.2,80.9,14.5z"/>
								<path class="st2" d="M88.6,10.3H90l0.1,0.9h0c0.6-0.6,1.3-1.1,2.2-1.1c1.5,0,2.1,1,2.1,2.7V17h-1.8v-4c0-1-0.3-1.4-0.9-1.4
									c-0.6,0-0.9,0.3-1.4,0.8V17h-1.8V10.3z"/>
								<path class="st2" d="M95.9,13.7c0-2.2,1.6-3.5,3.4-3.5c0.8,0,1.5,0.3,2,0.7l-0.8,1.1c-0.3-0.3-0.6-0.4-1-0.4
									c-1,0-1.7,0.8-1.7,2.1c0,1.3,0.7,2.1,1.7,2.1c0.5,0,0.9-0.2,1.3-0.5l0.7,1.2c-0.6,0.6-1.5,0.8-2.2,0.8
									C97.3,17.2,95.9,15.9,95.9,13.7z"/>
								<path class="st2" d="M102.6,7.4h1.8v2.4l-0.1,1.3c0.5-0.5,1.2-1,2.1-1c1.5,0,2.1,1,2.1,2.7V17h-1.8v-4c0-1-0.3-1.4-0.9-1.4
									c-0.6,0-0.9,0.3-1.4,0.8V17h-1.8V7.4z"/>
								<path class="st2" d="M109.9,13.7c0-2.2,1.5-3.5,3.1-3.5c1.8,0,2.8,1.4,2.8,3.2c0,0.3,0,0.6-0.1,0.8h-4.1
									c0.1,1.1,0.9,1.7,1.9,1.7c0.6,0,1-0.2,1.5-0.5l0.6,1.1c-0.7,0.5-1.5,0.7-2.4,0.7C111.3,17.2,109.9,15.9,109.9,13.7z
									 M114.3,13c0-0.9-0.4-1.5-1.3-1.5c-0.7,0-1.3,0.5-1.5,1.5H114.3z"/>
								<path class="st2" d="M116.9,13.7c0-2.2,1.4-3.5,2.8-3.5c0.8,0,1.2,0.3,1.7,0.7l-0.1-1.1V7.4h1.8V17h-1.4l-0.1-0.7h0
									c-0.5,0.5-1.2,0.9-1.9,0.9C118,17.2,116.9,15.8,116.9,13.7z M121.3,15v-3c-0.4-0.4-0.8-0.5-1.2-0.5c-0.8,0-1.4,0.7-1.4,2.1
									c0,1.4,0.5,2.1,1.4,2.1C120.6,15.7,121,15.5,121.3,15z"/>
								<path class="st2" d="M127.6,8.2c0-0.6,0.4-1,1.1-1c0.6,0,1,0.4,1,1c0,0.6-0.4,1-1,1C128,9.2,127.6,8.8,127.6,8.2z
									 M127.7,10.3h1.8V17h-1.8V10.3z"/>
								<path class="st2" d="M131.4,10.3h1.4l0.1,0.9h0c0.6-0.6,1.3-1.1,2.2-1.1c1.5,0,2.1,1,2.1,2.7V17h-1.8v-4
									c0-1-0.3-1.4-0.9-1.4c-0.6,0-0.9,0.3-1.4,0.8V17h-1.8V10.3z"/>
								<path class="st2" d="M141.9,8.1h1.8V12h0l2.9-3.8h2l-2.7,3.5l3.2,5.4h-2l-2.3-4l-1.2,1.5V17h-1.8V8.1z"/>
								<path class="st2" d="M149.4,13.7c0-2.2,1.5-3.5,3.2-3.5s3.2,1.3,3.2,3.5c0,2.2-1.5,3.5-3.2,3.5S149.4,15.9,149.4,13.7z
									 M154.1,13.7c0-1.3-0.5-2.1-1.4-2.1s-1.4,0.8-1.4,2.1c0,1.3,0.5,2.1,1.4,2.1S154.1,14.9,154.1,13.7z"/>
								<path class="st2" d="M157.3,10.3h1.4l0.1,1.2h0c0.5-0.9,1.2-1.4,1.9-1.4c0.4,0,0.6,0.1,0.8,0.1l-0.3,1.5
									c-0.2-0.1-0.4-0.1-0.7-0.1c-0.5,0-1.2,0.3-1.5,1.3v4h-1.8V10.3z"/>
								<path class="st2" d="M162,13.7c0-2.2,1.5-3.5,3.1-3.5c1.8,0,2.8,1.4,2.8,3.2c0,0.3,0,0.6-0.1,0.8h-4.1
									c0.1,1.1,0.9,1.7,1.9,1.7c0.6,0,1-0.2,1.5-0.5l0.6,1.1c-0.7,0.5-1.5,0.7-2.4,0.7C163.5,17.2,162,15.9,162,13.7z M166.4,13
									c0-0.9-0.4-1.5-1.3-1.5c-0.7,0-1.3,0.5-1.5,1.5H166.4z"/>
								<path class="st2" d="M168.9,15.2c0-1.4,1.2-2.2,3.9-2.5c0-0.7-0.3-1.2-1.1-1.2c-0.6,0-1.2,0.3-1.8,0.6l-0.6-1.2
									c0.8-0.5,1.8-0.9,2.8-0.9c1.7,0,2.6,1,2.6,3V17h-1.4l-0.1-0.7h0c-0.6,0.5-1.3,0.9-2,0.9C169.7,17.2,168.9,16.3,168.9,15.2z
									 M172.8,15.1v-1.4c-1.6,0.2-2.2,0.7-2.2,1.3c0,0.5,0.4,0.8,0.9,0.8C172,15.8,172.3,15.5,172.8,15.1z"/>
								<path class="st2" d="M178.9,8.2c0-0.6,0.4-1,1.1-1c0.6,0,1,0.4,1,1c0,0.6-0.4,1-1,1C179.3,9.2,178.9,8.8,178.9,8.2z
									 M179,10.3h1.8V17H179V10.3z"/>
								<path class="st2" d="M182.7,10.3h1.4l0.1,0.9h0c0.6-0.6,1.3-1.1,2.2-1.1c1.5,0,2.1,1,2.1,2.7V17h-1.8v-4
									c0-1-0.3-1.4-0.9-1.4c-0.6,0-0.9,0.3-1.4,0.8V17h-1.8V10.3z"/>
								<path class="st2" d="M192.7,16c2.4-2.2,3.8-3.8,3.8-5.2c0-0.9-0.5-1.4-1.3-1.4c-0.6,0-1.2,0.4-1.6,0.9l-1-1
									c0.8-0.9,1.6-1.3,2.8-1.3c1.7,0,2.8,1.1,2.8,2.7c0,1.6-1.3,3.3-3,4.9c0.4,0,1-0.1,1.4-0.1h1.9V17h-5.9V16z"/>
								<path class="st2" d="M199.8,12.5c0-3.1,1.2-4.6,3-4.6c1.8,0,3,1.5,3,4.6s-1.2,4.6-3,4.6C201,17.2,199.8,15.6,199.8,12.5z
									 M204.1,12.5c0-2.5-0.6-3.2-1.3-3.2c-0.8,0-1.3,0.7-1.3,3.2c0,2.5,0.6,3.3,1.3,3.3C203.5,15.8,204.1,15,204.1,12.5z"/>
								<path class="st2" d="M206.8,12.5c0-3.1,1.2-4.6,3-4.6c1.8,0,3,1.5,3,4.6s-1.2,4.6-3,4.6C208,17.2,206.8,15.6,206.8,12.5z
									 M211.2,12.5c0-2.5-0.6-3.2-1.3-3.2c-0.8,0-1.3,0.7-1.3,3.2c0,2.5,0.6,3.3,1.3,3.3C210.6,15.8,211.2,15,211.2,12.5z"/>
								<path class="st2" d="M214.9,15.1c0.3,0.3,0.9,0.6,1.4,0.6c1,0,1.8-0.8,1.9-3c-0.5,0.6-1.2,1-1.8,1c-1.5,0-2.5-0.9-2.5-2.8
									c0-1.8,1.3-3,2.8-3c1.7,0,3.2,1.3,3.2,4.4c0,3.4-1.6,4.8-3.4,4.8c-1.1,0-1.9-0.5-2.4-1L214.9,15.1z M218.2,11.5
									c-0.2-1.6-0.8-2.2-1.5-2.2c-0.7,0-1.2,0.5-1.2,1.6c0,1,0.5,1.5,1.3,1.5C217.2,12.5,217.8,12.2,218.2,11.5z"/>
							</g>
						</g>
					</g>
					<g id="bar2" transform="translate(0.000000, 68.000000)">
						<path class="st4" d="M21,0.5h418c11.3,0,20.5,9.2,20.5,20.5l0,0c0,11.3-9.2,20.5-20.5,20.5H21C9.7,41.5,0.5,32.3,0.5,21l0,0
							C0.5,9.7,9.7,0.5,21,0.5z"/>
						<g transform="translate(171.000000, 13.000000)">
							<g class="st1">
								<path class="st2" d="M1.6,9.6C1.6,6.7,3.5,5,5.7,5c1.1,0,2,0.5,2.6,1.1L7.4,7.2c-0.4-0.4-1-0.7-1.6-0.7
									c-1.3,0-2.4,1.2-2.4,3.1c0,1.9,0.9,3.1,2.3,3.1c0.8,0,1.4-0.4,1.8-0.9l0.9,1.1c-0.7,0.9-1.7,1.3-2.8,1.3
									C3.4,14.2,1.6,12.6,1.6,9.6z"/>
								<path class="st2" d="M9.3,10.7c0-2.2,1.5-3.5,3.2-3.5c1.7,0,3.2,1.3,3.2,3.5c0,2.2-1.5,3.5-3.2,3.5
									C10.9,14.2,9.3,12.9,9.3,10.7z M14,10.7c0-1.3-0.5-2.1-1.4-2.1c-0.9,0-1.4,0.8-1.4,2.1c0,1.3,0.5,2.1,1.4,2.1
									C13.5,12.7,14,11.9,14,10.7z"/>
								<path class="st2" d="M17.3,7.3h1.4l0.1,0.9h0c0.6-0.6,1.2-1.1,2.1-1.1c1,0,1.5,0.4,1.8,1.2c0.6-0.6,1.3-1.2,2.1-1.2
									c1.4,0,2.1,1,2.1,2.7V14h-1.8v-4c0-1-0.3-1.4-0.9-1.4c-0.4,0-0.8,0.3-1.3,0.8V14h-1.8v-4c0-1-0.3-1.4-0.9-1.4
									c-0.4,0-0.8,0.3-1.3,0.8V14h-1.8V7.3z"/>
								<path class="st2" d="M28.8,7.3h1.4L30.4,8h0c0.6-0.5,1.3-0.9,2-0.9c1.7,0,2.6,1.4,2.6,3.4c0,2.3-1.4,3.6-2.9,3.6
									c-0.6,0-1.2-0.3-1.7-0.7l0,1.1v2h-1.8V7.3z M33.3,10.6c0-1.3-0.4-2-1.3-2c-0.5,0-0.9,0.2-1.3,0.7v3c0.4,0.4,0.9,0.5,1.2,0.5
									C32.6,12.7,33.3,12,33.3,10.6z"/>
								<path class="st2" d="M36.6,12.1V4.4h1.8v7.8c0,0.4,0.2,0.5,0.4,0.5c0.1,0,0.1,0,0.2,0l0.2,1.3c-0.2,0.1-0.5,0.2-0.9,0.2
									C37,14.2,36.6,13.4,36.6,12.1z"/>
								<path class="st2" d="M39.9,10.7c0-2.2,1.5-3.5,3.1-3.5c1.8,0,2.8,1.4,2.8,3.2c0,0.3,0,0.6-0.1,0.8h-4.1
									c0.1,1.1,0.9,1.7,1.9,1.7c0.6,0,1-0.2,1.5-0.5l0.6,1.1c-0.7,0.5-1.5,0.7-2.4,0.7C41.4,14.2,39.9,12.9,39.9,10.7z M44.4,10
									c0-0.9-0.4-1.5-1.3-1.5c-0.7,0-1.3,0.5-1.5,1.5H44.4z"/>
								<path class="st2" d="M47.4,11.6v-3h-0.9V7.4l1-0.1l0.2-1.8h1.5v1.8h1.7v1.4h-1.7v3c0,0.8,0.3,1.1,0.9,1.1
									c0.2,0,0.5-0.1,0.7-0.1l0.3,1.3c-0.4,0.1-0.8,0.3-1.4,0.3C48,14.2,47.4,13.2,47.4,11.6z"/>
								<path class="st2" d="M51.6,10.7c0-2.2,1.5-3.5,3.1-3.5c1.8,0,2.8,1.4,2.8,3.2c0,0.3,0,0.6-0.1,0.8h-4.1
									c0.1,1.1,0.9,1.7,1.9,1.7c0.6,0,1-0.2,1.5-0.5l0.6,1.1c-0.7,0.5-1.5,0.7-2.4,0.7C53,14.2,51.6,12.9,51.6,10.7z M56,10
									c0-0.9-0.4-1.5-1.3-1.5C54,8.5,53.4,9,53.3,10H56z"/>
								<path class="st2" d="M58.6,10.7c0-2.2,1.4-3.5,2.8-3.5c0.8,0,1.2,0.3,1.7,0.7L63,6.8V4.4h1.8V14h-1.4l-0.1-0.7h0
									c-0.5,0.5-1.2,0.9-1.9,0.9C59.7,14.2,58.6,12.8,58.6,10.7z M63,12v-3c-0.4-0.4-0.8-0.5-1.2-0.5c-0.8,0-1.4,0.7-1.4,2.1
									c0,1.4,0.5,2.1,1.4,2.1C62.2,12.7,62.6,12.5,63,12z"/>
								<path class="st2" d="M69.2,5.2c0-0.6,0.4-1,1.1-1c0.6,0,1,0.4,1,1c0,0.6-0.4,1-1,1C69.7,6.2,69.2,5.8,69.2,5.2z M69.4,7.3
									h1.8V14h-1.8V7.3z"/>
								<path class="st2" d="M73.1,7.3h1.4l0.1,0.9h0c0.6-0.6,1.3-1.1,2.2-1.1c1.5,0,2.1,1,2.1,2.7V14h-1.8v-4c0-1-0.3-1.4-0.9-1.4
									c-0.6,0-0.9,0.3-1.4,0.8V14h-1.8V7.3z"/>
								<path class="st2" d="M83.6,5.1h1.8V9h0l2.9-3.8h2l-2.7,3.5l3.2,5.4h-2l-2.3-4l-1.2,1.5V14h-1.8V5.1z"/>
								<path class="st2" d="M91.1,10.7c0-2.2,1.5-3.5,3.2-3.5c1.7,0,3.2,1.3,3.2,3.5c0,2.2-1.5,3.5-3.2,3.5
									C92.6,14.2,91.1,12.9,91.1,10.7z M95.8,10.7c0-1.3-0.5-2.1-1.4-2.1c-0.9,0-1.4,0.8-1.4,2.1c0,1.3,0.5,2.1,1.4,2.1
									C95.2,12.7,95.8,11.9,95.8,10.7z"/>
								<path class="st2" d="M99,7.3h1.4l0.1,1.2h0c0.5-0.9,1.2-1.4,1.9-1.4c0.4,0,0.6,0.1,0.8,0.1L103,8.8
									c-0.2-0.1-0.4-0.1-0.7-0.1c-0.5,0-1.2,0.3-1.5,1.3v4H99V7.3z"/>
								<path class="st2" d="M103.7,10.7c0-2.2,1.5-3.5,3.1-3.5c1.8,0,2.8,1.4,2.8,3.2c0,0.3,0,0.6-0.1,0.8h-4.1
									c0.1,1.1,0.9,1.7,1.9,1.7c0.6,0,1-0.2,1.5-0.5l0.6,1.1c-0.7,0.5-1.5,0.7-2.4,0.7C105.2,14.2,103.7,12.9,103.7,10.7z
									 M108.1,10c0-0.9-0.4-1.5-1.3-1.5c-0.7,0-1.3,0.5-1.5,1.5H108.1z"/>
								<path class="st2" d="M110.6,12.2c0-1.4,1.2-2.2,3.9-2.5c0-0.7-0.3-1.2-1.1-1.2c-0.6,0-1.2,0.3-1.8,0.6L110.8,8
									c0.8-0.5,1.8-0.9,2.8-0.9c1.7,0,2.6,1,2.6,3V14h-1.4l-0.1-0.7h0c-0.6,0.5-1.3,0.9-2,0.9C111.4,14.2,110.6,13.3,110.6,12.2z
									 M114.4,12.1v-1.4c-1.6,0.2-2.2,0.7-2.2,1.3c0,0.5,0.4,0.8,0.9,0.8C113.7,12.8,114,12.5,114.4,12.1z"/>
							</g>
						</g>
					</g>
					<g id="bar3" transform="translate(0.000000, 136.000000)">
						<path class="st4" d="M21,0.5h257c11.3,0,20.5,9.2,20.5,20.5l0,0c0,11.3-9.2,20.5-20.5,20.5H21C9.7,41.5,0.5,32.3,0.5,21l0,0
							C0.5,9.7,9.7,0.5,21,0.5z"/>
					</g>
					<g id="bar4" transform="translate(0.000000, 211.000000)">
						<path class="st4" d="M21,0.5h566c11.3,0,20.5,9.2,20.5,20.5l0,0c0,11.3-9.2,20.5-20.5,20.5H21C9.7,41.5,0.5,32.3,0.5,21l0,0
							C0.5,9.7,9.7,0.5,21,0.5z"/>
						<g transform="translate(170.000000, 10.000000)">
							<g>
								<g class="st1">
									<path class="st2" d="M2.7,5.9h2.5L7,11.1c0.2,0.7,0.5,1.4,0.7,2.1h0.1c0.2-0.7,0.4-1.5,0.7-2.1l1.8-5.2h2.5V17h-2v-4.6
										c0-1,0.2-2.6,0.3-3.6h-0.1L10,11.3L8.3,16H7l-1.7-4.7L4.4,8.7H4.4c0.1,1,0.3,2.6,0.3,3.6V17h-2V5.9z"/>
									<path class="st2" d="M15.5,5.9h2.3l3.2,5.9l1.1,2.4h0.1c-0.1-1.2-0.3-2.6-0.3-3.9V5.9H24V17h-2.2l-3.2-5.9l-1.1-2.4h-0.1
										c0.1,1.2,0.3,2.6,0.3,3.9V17h-2.1V5.9z"/>
									<path class="st2" d="M26.7,5.9h6.8v1.8h-4.6v2.6h3.9v1.9h-3.9v3h4.8V17h-7V5.9z"/>
									<path class="st2" d="M35.9,5.9h2.5l1.9,5.2c0.2,0.7,0.5,1.4,0.7,2.1H41c0.2-0.7,0.4-1.5,0.7-2.1l1.8-5.2H46V17h-2v-4.6
										c0-1,0.2-2.6,0.3-3.6h-0.1l-0.9,2.6L41.6,16h-1.3l-1.7-4.7l-0.9-2.6h-0.1c0.1,1,0.3,2.6,0.3,3.6V17h-2V5.9z"/>
									<path class="st2" d="M48.2,11.4c0-3.6,2-5.7,5-5.7c2.9,0,5,2.1,5,5.7s-2,5.8-5,5.8C50.2,17.2,48.2,15,48.2,11.4z
										 M55.9,11.4c0-2.4-1-3.8-2.7-3.8c-1.6,0-2.7,1.4-2.7,3.8c0,2.4,1.1,3.9,2.7,3.9C54.8,15.3,55.9,13.8,55.9,11.4z"/>
									<path class="st2" d="M59.6,15.6l1.3-1.5c0.8,0.7,1.8,1.2,2.8,1.2c1.2,0,1.8-0.5,1.8-1.3c0-0.8-0.7-1.1-1.7-1.5l-1.5-0.6
										c-1.1-0.5-2.2-1.4-2.2-3c0-1.8,1.6-3.2,3.8-3.2c1.3,0,2.6,0.5,3.5,1.4l-1.1,1.4c-0.7-0.6-1.4-0.9-2.4-0.9
										c-1,0-1.6,0.4-1.6,1.2c0,0.8,0.8,1.1,1.7,1.5l1.5,0.6c1.3,0.6,2.2,1.4,2.2,3c0,1.8-1.5,3.4-4.1,3.4
										C62.1,17.2,60.6,16.6,59.6,15.6z"/>
									<path class="st2" d="M69.7,5.9h2.2V17h-2.2V5.9z"/>
									<path class="st2" d="M74.6,5.9h2.3l3.2,5.9l1.1,2.4h0.1c-0.1-1.2-0.3-2.6-0.3-3.9V5.9h2.1V17h-2.2l-3.2-5.9l-1.1-2.4h-0.1
										c0.1,1.2,0.3,2.6,0.3,3.9V17h-2.1V5.9z"/>
									<path class="st2" d="M85.8,5.9h6.8v1.8h-4.6v2.6H92v1.9h-3.9v3h4.8V17h-7V5.9z"/>
								</g>
								<g class="st1">
									<path class="st2" d="M94,6.1c0-1.9,1.4-3,3-3c1.6,0,3,1.1,3,3s-1.4,3-3,3C95.4,9.1,94,7.9,94,6.1z M99.4,6.1
										c0-1.5-1.1-2.5-2.4-2.5c-1.3,0-2.4,1-2.4,2.5s1.1,2.5,2.4,2.5C98.3,8.6,99.4,7.6,99.4,6.1z M95.4,6.1
										c0-1.1,0.8-1.7,1.7-1.7c0.6,0,0.9,0.2,1.2,0.5l-0.5,0.5C97.6,5.2,97.4,5,97.2,5c-0.6,0-0.9,0.4-0.9,1
										c0,0.7,0.4,1.1,0.9,1.1c0.3,0,0.5-0.1,0.8-0.3l0.4,0.6c-0.3,0.3-0.7,0.5-1.2,0.5C96.1,7.8,95.4,7.2,95.4,6.1z"/>
								</g>
							</g>
							<g class="st1">
								<path class="st2" d="M114.1,8.1h1.8v7.4h3.6V17h-5.4V8.1z"/>
								<path class="st2" d="M120.5,15.2c0-1.4,1.2-2.2,3.9-2.5c0-0.7-0.3-1.2-1.1-1.2c-0.6,0-1.2,0.3-1.8,0.6l-0.6-1.2
									c0.8-0.5,1.8-0.9,2.8-0.9c1.7,0,2.6,1,2.6,3V17h-1.4l-0.1-0.7h0c-0.6,0.5-1.3,0.9-2,0.9C121.3,17.2,120.5,16.3,120.5,15.2z
									 M124.4,15.1v-1.4c-1.6,0.2-2.2,0.7-2.2,1.3c0,0.5,0.4,0.8,0.9,0.8C123.6,15.8,124,15.5,124.4,15.1z"/>
								<path class="st2" d="M127.9,14.5v-4.2h1.8v4c0,1,0.3,1.4,0.9,1.4c0.6,0,0.9-0.2,1.4-0.8v-4.5h1.8V17h-1.4l-0.1-1h0
									c-0.6,0.7-1.2,1.1-2.1,1.1C128.5,17.2,127.9,16.2,127.9,14.5z"/>
								<path class="st2" d="M135.6,10.3h1.4l0.1,0.9h0c0.6-0.6,1.3-1.1,2.2-1.1c1.5,0,2.1,1,2.1,2.7V17h-1.8v-4
									c0-1-0.3-1.4-0.9-1.4c-0.6,0-0.9,0.3-1.4,0.8V17h-1.8V10.3z"/>
								<path class="st2" d="M142.9,13.7c0-2.2,1.6-3.5,3.4-3.5c0.8,0,1.5,0.3,2,0.7l-0.8,1.1c-0.3-0.3-0.6-0.4-1-0.4
									c-1,0-1.7,0.8-1.7,2.1c0,1.3,0.7,2.1,1.7,2.1c0.5,0,0.9-0.2,1.3-0.5l0.7,1.2c-0.6,0.6-1.5,0.8-2.2,0.8
									C144.3,17.2,142.9,15.9,142.9,13.7z"/>
								<path class="st2" d="M149.6,7.4h1.8v2.4l-0.1,1.3c0.5-0.5,1.2-1,2.1-1c1.5,0,2.1,1,2.1,2.7V17h-1.8v-4c0-1-0.3-1.4-0.9-1.4
									c-0.6,0-0.9,0.3-1.4,0.8V17h-1.8V7.4z"/>
								<path class="st2" d="M156.9,13.7c0-2.2,1.5-3.5,3.1-3.5c1.8,0,2.8,1.4,2.8,3.2c0,0.3,0,0.6-0.1,0.8h-4.1
									c0.1,1.1,0.9,1.7,1.9,1.7c0.6,0,1-0.2,1.5-0.5l0.6,1.1c-0.7,0.5-1.5,0.7-2.4,0.7C158.3,17.2,156.9,15.9,156.9,13.7z
									 M161.3,13c0-0.9-0.4-1.5-1.3-1.5c-0.7,0-1.3,0.5-1.5,1.5H161.3z"/>
								<path class="st2" d="M163.9,13.7c0-2.2,1.4-3.5,2.8-3.5c0.8,0,1.2,0.3,1.7,0.7l-0.1-1.1V7.4h1.8V17h-1.4l-0.1-0.7h0
									c-0.5,0.5-1.2,0.9-1.9,0.9C165,17.2,163.9,15.8,163.9,13.7z M168.3,15v-3c-0.4-0.4-0.8-0.5-1.2-0.5c-0.8,0-1.4,0.7-1.4,2.1
									c0,1.4,0.5,2.1,1.4,2.1C167.6,15.7,168,15.5,168.3,15z"/>
								<path class="st2" d="M174.6,8.2c0-0.6,0.4-1,1.1-1c0.6,0,1,0.4,1,1c0,0.6-0.4,1-1,1C175,9.2,174.6,8.8,174.6,8.2z
									 M174.7,10.3h1.8V17h-1.8V10.3z"/>
								<path class="st2" d="M178.4,10.3h1.4l0.1,0.9h0c0.6-0.6,1.3-1.1,2.2-1.1c1.5,0,2.1,1,2.1,2.7V17h-1.8v-4
									c0-1-0.3-1.4-0.9-1.4c-0.6,0-0.9,0.3-1.4,0.8V17h-1.8V10.3z"/>
								<path class="st2" d="M188.9,8.1h1.8V12h0l2.9-3.8h2l-2.7,3.5l3.2,5.4h-2l-2.3-4l-1.2,1.5V17h-1.8V8.1z"/>
								<path class="st2" d="M196.4,13.7c0-2.2,1.5-3.5,3.2-3.5s3.2,1.3,3.2,3.5c0,2.2-1.5,3.5-3.2,3.5S196.4,15.9,196.4,13.7z
									 M201.1,13.7c0-1.3-0.5-2.1-1.4-2.1s-1.4,0.8-1.4,2.1c0,1.3,0.5,2.1,1.4,2.1S201.1,14.9,201.1,13.7z"/>
								<path class="st2" d="M204.3,10.3h1.4l0.1,1.2h0c0.5-0.9,1.2-1.4,1.9-1.4c0.4,0,0.6,0.1,0.8,0.1l-0.3,1.5
									c-0.2-0.1-0.4-0.1-0.7-0.1c-0.5,0-1.2,0.3-1.5,1.3v4h-1.8V10.3z"/>
								<path class="st2" d="M209,13.7c0-2.2,1.5-3.5,3.1-3.5c1.8,0,2.8,1.4,2.8,3.2c0,0.3,0,0.6-0.1,0.8h-4.1
									c0.1,1.1,0.9,1.7,1.9,1.7c0.6,0,1-0.2,1.5-0.5l0.6,1.1c-0.7,0.5-1.5,0.7-2.4,0.7C210.5,17.2,209,15.9,209,13.7z M213.4,13
									c0-0.9-0.4-1.5-1.3-1.5c-0.7,0-1.3,0.5-1.5,1.5H213.4z"/>
								<path class="st2" d="M215.9,15.2c0-1.4,1.2-2.2,3.9-2.5c0-0.7-0.3-1.2-1.1-1.2c-0.6,0-1.2,0.3-1.8,0.6l-0.6-1.2
									c0.8-0.5,1.8-0.9,2.8-0.9c1.7,0,2.6,1,2.6,3V17h-1.4l-0.1-0.7h0c-0.6,0.5-1.3,0.9-2,0.9C216.7,17.2,215.9,16.3,215.9,15.2z
									 M219.8,15.1v-1.4c-1.6,0.2-2.2,0.7-2.2,1.3c0,0.5,0.4,0.8,0.9,0.8C219,15.8,219.3,15.5,219.8,15.1z"/>
								<path class="st2" d="M225.9,8.2c0-0.6,0.4-1,1.1-1c0.6,0,1,0.4,1,1c0,0.6-0.4,1-1,1C226.3,9.2,225.9,8.8,225.9,8.2z
									 M226,10.3h1.8V17H226V10.3z"/>
								<path class="st2" d="M229.7,10.3h1.4l0.1,0.9h0c0.6-0.6,1.3-1.1,2.2-1.1c1.5,0,2.1,1,2.1,2.7V17h-1.8v-4
									c0-1-0.3-1.4-0.9-1.4c-0.6,0-0.9,0.3-1.4,0.8V17h-1.8V10.3z"/>
								<path class="st2" d="M239.7,16c2.4-2.2,3.8-3.8,3.8-5.2c0-0.9-0.5-1.4-1.3-1.4c-0.6,0-1.2,0.4-1.6,0.9l-1-1
									c0.8-0.9,1.6-1.3,2.8-1.3c1.7,0,2.8,1.1,2.8,2.7c0,1.6-1.3,3.3-3,4.9c0.4,0,1-0.1,1.4-0.1h1.9V17h-5.9V16z"/>
								<path class="st2" d="M246.8,12.5c0-3.1,1.2-4.6,3-4.6c1.8,0,3,1.5,3,4.6s-1.2,4.6-3,4.6C248,17.2,246.8,15.6,246.8,12.5z
									 M251.1,12.5c0-2.5-0.6-3.2-1.3-3.2c-0.8,0-1.3,0.7-1.3,3.2c0,2.5,0.6,3.3,1.3,3.3C250.5,15.8,251.1,15,251.1,12.5z"/>
								<path class="st2" d="M254.3,15.6h1.9V10h-1.6V8.9c0.9-0.2,1.5-0.4,2.1-0.7h1.3v7.4h1.7V17h-5.3V15.6z"/>
								<path class="st2" d="M260.9,14.8c0-1.1,0.7-1.9,1.5-2.3v-0.1c-0.7-0.5-1.2-1.2-1.2-2.1c0-1.4,1.1-2.3,2.7-2.3
									c1.6,0,2.6,0.9,2.6,2.4c0,0.9-0.6,1.6-1.1,2v0.1c0.8,0.4,1.5,1.2,1.5,2.4c0,1.3-1.2,2.4-3,2.4
									C262.2,17.2,260.9,16.2,260.9,14.8z M265.2,14.7c0-0.9-0.8-1.3-2-1.8c-0.5,0.4-0.8,1-0.8,1.6c0,0.8,0.7,1.3,1.5,1.3
									C264.7,15.9,265.2,15.5,265.2,14.7z M265.1,10.4c0-0.7-0.4-1.2-1.2-1.2c-0.6,0-1.1,0.4-1.1,1.1c0,0.8,0.7,1.2,1.6,1.6
									C264.9,11.5,265.1,11,265.1,10.4z"/>
							</g>
						</g>
					</g>
					<g id="bar5" transform="translate(0.000000, 286.000000)">
						<path class="st4" d="M21,0.5h343c11.3,0,20.5,9.2,20.5,20.5l0,0c0,11.3-9.2,20.5-20.5,20.5H21C9.7,41.5,0.5,32.3,0.5,21l0,0
							C0.5,9.7,9.7,0.5,21,0.5z"/>
						<g transform="translate(128.000000, 13.000000)">
							<g class="st1">
								<path class="st2" d="M6.3,14l-1.8-3.4H3.2V14H1.5V5.1h3.1c1.9,0,3.3,0.6,3.3,2.7c0,1.3-0.7,2.2-1.7,2.6L8.3,14H6.3z
									 M3.2,9.2h1.2c1.1,0,1.8-0.5,1.8-1.4c0-1-0.6-1.3-1.8-1.3H3.2V9.2z"/>
								<path class="st2" d="M8.9,10.7c0-2.2,1.5-3.5,3.1-3.5c1.8,0,2.8,1.4,2.8,3.2c0,0.3,0,0.6-0.1,0.8h-4.1
									c0.1,1.1,0.9,1.7,1.9,1.7c0.6,0,1-0.2,1.5-0.5l0.6,1.1c-0.7,0.5-1.5,0.7-2.4,0.7C10.4,14.2,8.9,12.9,8.9,10.7z M13.4,10
									c0-0.9-0.4-1.5-1.3-1.5c-0.7,0-1.3,0.5-1.5,1.5H13.4z"/>
								<path class="st2" d="M15.9,10.7c0-2.2,1.6-3.5,3.4-3.5c0.8,0,1.5,0.3,2,0.7L20.5,9c-0.3-0.3-0.6-0.4-1-0.4
									c-1,0-1.7,0.8-1.7,2.1c0,1.3,0.7,2.1,1.7,2.1c0.5,0,0.9-0.2,1.3-0.5l0.7,1.2c-0.6,0.6-1.5,0.8-2.2,0.8
									C17.3,14.2,15.9,12.9,15.9,10.7z"/>
								<path class="st2" d="M22.6,7.3h1.4l0.1,1.2h0c0.5-0.9,1.2-1.4,1.9-1.4c0.4,0,0.6,0.1,0.8,0.1l-0.3,1.5
									c-0.2-0.1-0.4-0.1-0.7-0.1c-0.5,0-1.2,0.3-1.5,1.3v4h-1.8V7.3z"/>
								<path class="st2" d="M27.8,11.5V7.3h1.8v4c0,1,0.3,1.4,0.9,1.4c0.6,0,0.9-0.2,1.4-0.8V7.3h1.8V14h-1.4l-0.1-1h0
									c-0.6,0.7-1.2,1.1-2.1,1.1C28.4,14.2,27.8,13.2,27.8,11.5z"/>
								<path class="st2" d="M35.4,5.2c0-0.6,0.4-1,1.1-1c0.6,0,1,0.4,1,1c0,0.6-0.4,1-1,1C35.8,6.2,35.4,5.8,35.4,5.2z M35.5,7.3
									h1.8V14h-1.8V7.3z"/>
								<path class="st2" d="M39.4,11.6v-3h-0.9V7.4l1-0.1l0.2-1.8h1.5v1.8h1.7v1.4h-1.7v3c0,0.8,0.3,1.1,0.9,1.1
									c0.2,0,0.5-0.1,0.7-0.1l0.3,1.3c-0.4,0.1-0.8,0.3-1.4,0.3C40,14.2,39.4,13.2,39.4,11.6z"/>
								<path class="st2" d="M44,5.2c0-0.6,0.4-1,1.1-1c0.6,0,1,0.4,1,1c0,0.6-0.4,1-1,1C44.5,6.2,44,5.8,44,5.2z M44.2,7.3H46V14
									h-1.8V7.3z"/>
								<path class="st2" d="M47.9,7.3h1.4l0.1,0.9h0c0.6-0.6,1.3-1.1,2.2-1.1c1.5,0,2.1,1,2.1,2.7V14H52v-4c0-1-0.3-1.4-0.9-1.4
									c-0.6,0-0.9,0.3-1.4,0.8V14h-1.8V7.3z"/>
								<path class="st2" d="M55.1,15.2c0-0.6,0.3-1,1-1.4v-0.1c-0.3-0.2-0.6-0.6-0.6-1.1c0-0.5,0.3-1,0.7-1.3v0
									c-0.5-0.3-0.9-1-0.9-1.8c0-1.6,1.3-2.4,2.7-2.4c0.4,0,0.7,0.1,1,0.2h2.4v1.3h-1.2c0.2,0.2,0.3,0.6,0.3,1
									c0,1.5-1.2,2.3-2.6,2.3c-0.3,0-0.6-0.1-0.9-0.2c-0.2,0.2-0.3,0.3-0.3,0.6c0,0.4,0.3,0.6,1.1,0.6h1.1c1.6,0,2.5,0.5,2.5,1.7
									c0,1.4-1.4,2.4-3.6,2.4C56.3,16.9,55.1,16.4,55.1,15.2z M59.9,14.8c0-0.5-0.4-0.6-1.1-0.6H58c-0.4,0-0.7,0-0.9-0.1
									c-0.3,0.2-0.4,0.5-0.4,0.8c0,0.6,0.6,0.9,1.6,0.9C59.2,15.8,59.9,15.4,59.9,14.8z M59.1,9.6c0-0.8-0.4-1.2-1-1.2
									S57,8.8,57,9.6c0,0.8,0.5,1.2,1.1,1.2S59.1,10.3,59.1,9.6z"/>
								<path class="st2" d="M68.6,14l-0.1-0.7h0c-0.3,0.5-0.9,0.9-1.8,0.9c-1.2,0-1.8-0.8-1.8-1.7c0-1.4,1.2-2.2,3.5-2.2v-0.1
									c0-0.5-0.1-1.3-1.3-1.3c-0.5,0-1.1,0.2-1.5,0.4l-0.2-0.7c0.5-0.3,1.2-0.5,1.9-0.5c1.8,0,2.2,1.2,2.2,2.4v2.2
									c0,0.5,0,1,0.1,1.4H68.6z M66.8,5.7l1,1.7h-0.7l-1.5-1.7H66.8z M68.4,11c-1.2,0-2.5,0.2-2.5,1.3c0,0.7,0.5,1,1,1
									c0.8,0,1.2-0.5,1.4-1c0-0.1,0.1-0.2,0.1-0.3V11z"/>
								<path class="st2" d="M73.6,9.5c0-2.9,1.6-4.6,4-4.6s4,1.7,4,4.6c0,2.9-1.6,4.6-4,4.6S73.6,12.4,73.6,9.5z M79.8,9.5
									c0-1.9-0.8-3-2.2-3s-2.2,1.1-2.2,3c0,1.9,0.8,3.1,2.2,3.1S79.8,11.4,79.8,9.5z"/>
								<path class="st2" d="M83.2,7.3h1.4l0.1,0.9h0c0.6-0.6,1.3-1.1,2.2-1.1c1.5,0,2.1,1,2.1,2.7V14h-1.8v-4c0-1-0.3-1.4-0.9-1.4
									c-0.6,0-0.9,0.3-1.4,0.8V14h-1.8V7.3z"/>
								<path class="st2" d="M90.5,9.9h3.3v1.3h-3.3V9.9z"/>
								<path class="st2" d="M94.9,15.2c0-0.6,0.3-1,1-1.4v-0.1c-0.3-0.2-0.6-0.6-0.6-1.1c0-0.5,0.3-1,0.7-1.3v0
									c-0.5-0.3-0.9-1-0.9-1.8c0-1.6,1.3-2.4,2.7-2.4c0.4,0,0.7,0.1,1,0.2h2.4v1.3h-1.2c0.2,0.2,0.3,0.6,0.3,1
									c0,1.5-1.2,2.3-2.6,2.3c-0.3,0-0.6-0.1-0.9-0.2c-0.2,0.2-0.3,0.3-0.3,0.6c0,0.4,0.3,0.6,1.1,0.6h1.1c1.6,0,2.5,0.5,2.5,1.7
									c0,1.4-1.4,2.4-3.6,2.4C96.1,16.9,94.9,16.4,94.9,15.2z M99.6,14.8c0-0.5-0.4-0.6-1.1-0.6h-0.8c-0.4,0-0.7,0-0.9-0.1
									c-0.3,0.2-0.4,0.5-0.4,0.8c0,0.6,0.6,0.9,1.6,0.9C99,15.8,99.6,15.4,99.6,14.8z M98.8,9.6c0-0.8-0.4-1.2-1-1.2
									s-1.1,0.4-1.1,1.2c0,0.8,0.5,1.2,1.1,1.2C98.4,10.8,98.8,10.3,98.8,9.6z"/>
								<path class="st2" d="M101.8,10.7c0-2.2,1.5-3.5,3.2-3.5c1.7,0,3.2,1.3,3.2,3.5c0,2.2-1.5,3.5-3.2,3.5
									C103.4,14.2,101.8,12.9,101.8,10.7z M106.5,10.7c0-1.3-0.5-2.1-1.4-2.1c-0.9,0-1.4,0.8-1.4,2.1c0,1.3,0.5,2.1,1.4,2.1
									C106,12.7,106.5,11.9,106.5,10.7z"/>
								<path class="st2" d="M109.6,5.2c0-0.6,0.4-1,1.1-1c0.6,0,1,0.4,1,1c0,0.6-0.4,1-1,1C110,6.2,109.6,5.8,109.6,5.2z
									 M109.8,7.3h1.8V14h-1.8V7.3z"/>
								<path class="st2" d="M113.4,7.3h1.4l0.1,0.9h0c0.6-0.6,1.3-1.1,2.2-1.1c1.5,0,2.1,1,2.1,2.7V14h-1.8v-4c0-1-0.3-1.4-0.9-1.4
									c-0.6,0-0.9,0.3-1.4,0.8V14h-1.8V7.3z"/>
								<path class="st2" d="M120.7,15.2c0-0.6,0.3-1,1-1.4v-0.1c-0.3-0.2-0.6-0.6-0.6-1.1c0-0.5,0.3-1,0.7-1.3v0
									c-0.5-0.3-0.9-1-0.9-1.8c0-1.6,1.3-2.4,2.7-2.4c0.4,0,0.7,0.1,1,0.2h2.4v1.3h-1.2c0.2,0.2,0.3,0.6,0.3,1
									c0,1.5-1.2,2.3-2.6,2.3c-0.3,0-0.6-0.1-0.9-0.2c-0.2,0.2-0.3,0.3-0.3,0.6c0,0.4,0.3,0.6,1.1,0.6h1.1c1.6,0,2.5,0.5,2.5,1.7
									c0,1.4-1.4,2.4-3.6,2.4C121.9,16.9,120.7,16.4,120.7,15.2z M125.4,14.8c0-0.5-0.4-0.6-1.1-0.6h-0.8c-0.4,0-0.7,0-0.9-0.1
									c-0.3,0.2-0.4,0.5-0.4,0.8c0,0.6,0.6,0.9,1.6,0.9C124.7,15.8,125.4,15.4,125.4,14.8z M124.6,9.6c0-0.8-0.4-1.2-1-1.2
									s-1.1,0.4-1.1,1.2c0,0.8,0.5,1.2,1.1,1.2S124.6,10.3,124.6,9.6z"/>
							</g>
						</g>
					</g>
					<g id="bar6" transform="translate(0.000000, 361.000000)">
						<path class="st4" d="M21,0.5h257c11.3,0,20.5,9.2,20.5,20.5l0,0c0,11.3-9.2,20.5-20.5,20.5H21C9.7,41.5,0.5,32.3,0.5,21l0,0
							C0.5,9.7,9.7,0.5,21,0.5z"/>
					</g>
				</g>
				<g id="project">
					<g transform="translate(37.000000, 70.000000)">
						<g class="st1">
							<path d="M1.5,13h3.3c2.5,0,4.2,0.8,4.2,3.3c0,2.4-1.8,3.5-4.2,3.5H3.3V24H1.5V13z M4.8,18.4c1.8,0,2.6-0.7,2.6-2.1
								s-0.9-1.9-2.7-1.9H3.3v4.1H4.8z"/>
							<path d="M10.6,18.5c0-3.6,2.2-5.8,5.1-5.8c1.6,0,2.6,0.7,3.3,1.4l-0.9,1.1c-0.5-0.6-1.2-1-2.3-1c-2.1,0-3.4,1.6-3.4,4.2
								c0,2.6,1.2,4.2,3.5,4.2c0.7,0,1.4-0.2,1.7-0.5v-2.6h-2.2v-1.4h3.8v4.8c-0.7,0.7-2,1.3-3.5,1.3C12.8,24.2,10.6,22.1,10.6,18.5
								z"/>
							<path d="M21.6,22.6H24v-7.7h-2v-1.1c1-0.2,1.8-0.5,2.4-0.8h1.3v9.6h2.2V24h-6.3V22.6z"/>
							<path d="M29.5,18.4c0-3.8,1.4-5.7,3.6-5.7c2.2,0,3.6,1.9,3.6,5.7c0,3.8-1.4,5.8-3.6,5.8C30.9,24.2,29.5,22.3,29.5,18.4z
								 M35,18.4c0-3.2-0.8-4.3-1.9-4.3s-1.9,1.2-1.9,4.3c0,3.2,0.8,4.4,1.9,4.4S35,21.6,35,18.4z"/>
							<path d="M38,23c3.3-2.9,4.9-5,4.9-6.8c0-1.2-0.6-2-1.9-2c-0.9,0-1.6,0.6-2.2,1.2l-1-1c0.9-1,1.9-1.7,3.4-1.7
								c2,0,3.3,1.3,3.3,3.3c0,2.1-1.7,4.3-4,6.6c0.6-0.1,1.3-0.1,1.8-0.1h2.8V24H38V23z"/>
						</g>
						<g class="st1">
							<path d="M140.7,5.2h1.4V14h-1.4V5.2z"/>
							<path d="M144.2,7.4h1.1l0.1,0.9h0c0.6-0.6,1.2-1.1,2-1.1c1,0,1.5,0.5,1.8,1.2c0.6-0.7,1.3-1.2,2.1-1.2c1.4,0,2,0.9,2,2.6V14
								h-1.4v-4c0-1.1-0.4-1.6-1.1-1.6c-0.5,0-0.9,0.3-1.5,0.9V14h-1.4v-4c0-1.1-0.3-1.6-1.1-1.6c-0.4,0-0.9,0.3-1.5,0.9V14h-1.4
								V7.4z"/>
							<path d="M155.5,7.4h1.1l0.1,0.9h0c0.6-0.6,1.2-1.1,2-1.1c1,0,1.5,0.5,1.8,1.2c0.6-0.7,1.3-1.2,2.1-1.2c1.4,0,2,0.9,2,2.6V14
								h-1.4v-4c0-1.1-0.4-1.6-1.1-1.6c-0.5,0-0.9,0.3-1.5,0.9V14h-1.4v-4c0-1.1-0.3-1.6-1.1-1.6c-0.4,0-0.9,0.3-1.5,0.9V14h-1.4
								V7.4z"/>
							<path d="M166.8,11.6V7.4h1.4v4c0,1.1,0.3,1.6,1.1,1.6c0.6,0,1-0.3,1.6-1V7.4h1.4V14h-1.1l-0.1-1h0c-0.6,0.7-1.2,1.2-2.2,1.2
								C167.4,14.2,166.8,13.2,166.8,11.6z"/>
							<path d="M174.3,7.4h1.1l0.1,0.9h0c0.6-0.6,1.3-1.1,2.2-1.1c1.4,0,2,0.9,2,2.6V14h-1.4v-4c0-1.1-0.3-1.6-1.1-1.6
								c-0.6,0-1,0.3-1.6,0.9V14h-1.4V7.4z"/>
							<path d="M181.3,10.7c0-2.1,1.5-3.5,3-3.5c1.8,0,2.7,1.3,2.7,3.1c0,0.3,0,0.5-0.1,0.7h-4.3c0.1,1.3,0.9,2,2,2
								c0.6,0,1.1-0.2,1.6-0.5l0.5,0.9c-0.6,0.4-1.4,0.7-2.2,0.7C182.7,14.2,181.3,12.9,181.3,10.7z M185.8,10.1
								c0-1.1-0.5-1.8-1.5-1.8c-0.8,0-1.6,0.6-1.7,1.8H185.8z"/>
						</g>
						<text transform="matrix(1 0 0 1 187.5113 14)" class="st5 st6"> </text>
						<g class="st1">
							<path d="M118,23.2h1.4v3.6h3.8v-3.6h1.4V32h-1.4v-4h-3.8v4H118V23.2z"/>
							<path d="M129.7,32.4c-0.5,1.4-1.2,2.4-2.6,2.4c-0.3,0-0.6,0-0.8-0.1l0.3-1.1c0.1,0,0.3,0.1,0.5,0.1c0.7,0,1.1-0.5,1.4-1.2
								l0.1-0.5l-2.6-6.5h1.4l1.2,3.4c0.2,0.6,0.4,1.2,0.6,1.9h0.1l0.5-1.9l1.1-3.4h1.3L129.7,32.4z"/>
							<path d="M133.3,25.4h1.1l0.1,0.7h0c0.6-0.5,1.3-0.9,2-0.9c1.7,0,2.6,1.3,2.6,3.4c0,2.3-1.4,3.6-2.8,3.6
								c-0.6,0-1.2-0.3-1.7-0.7l0,1.1v2.1h-1.4V25.4z M137.8,28.6c0-1.4-0.4-2.2-1.5-2.2c-0.5,0-1,0.3-1.6,0.8v3.2
								c0.5,0.4,1,0.6,1.4,0.6C137.1,31,137.8,30.2,137.8,28.6z"/>
							<path d="M140.4,28.7c0-2.1,1.5-3.5,3-3.5c1.8,0,2.7,1.3,2.7,3.1c0,0.3,0,0.5-0.1,0.7h-4.3c0.1,1.3,0.9,2,2,2
								c0.6,0,1.1-0.2,1.6-0.5l0.5,0.9c-0.6,0.4-1.4,0.7-2.2,0.7C141.8,32.2,140.4,30.9,140.4,28.7z M144.9,28.1
								c0-1.1-0.5-1.8-1.5-1.8c-0.8,0-1.6,0.6-1.7,1.8H144.9z"/>
							<path d="M147.7,25.4h1.1l0.1,1.2h0c0.5-0.9,1.2-1.4,1.9-1.4c0.3,0,0.5,0,0.7,0.1l-0.3,1.2c-0.2-0.1-0.4-0.1-0.7-0.1
								c-0.5,0-1.2,0.4-1.6,1.4V32h-1.4V25.4z"/>
							<path d="M151.8,31.2l0.6-0.9c0.6,0.5,1.2,0.8,1.9,0.8c0.8,0,1.2-0.4,1.2-0.9c0-0.6-0.7-0.9-1.5-1.1c-0.9-0.3-1.9-0.8-1.9-1.9
								c0-1.1,0.9-1.9,2.3-1.9c0.9,0,1.6,0.4,2.1,0.8l-0.6,0.9c-0.5-0.3-0.9-0.6-1.5-0.6c-0.7,0-1.1,0.4-1.1,0.8
								c0,0.6,0.7,0.8,1.4,1c0.9,0.3,1.9,0.8,1.9,2c0,1.1-0.9,2-2.5,2C153.4,32.2,152.4,31.8,151.8,31.2z"/>
							<path d="M157.8,28.7c0-2.1,1.5-3.5,3-3.5c1.8,0,2.7,1.3,2.7,3.1c0,0.3,0,0.5-0.1,0.7h-4.3c0.1,1.3,0.9,2,2,2
								c0.6,0,1.1-0.2,1.6-0.5l0.5,0.9c-0.6,0.4-1.4,0.7-2.2,0.7C159.2,32.2,157.8,30.9,157.8,28.7z M162.3,28.1
								c0-1.1-0.5-1.8-1.5-1.8c-0.8,0-1.6,0.6-1.7,1.8H162.3z"/>
							<path d="M165,25.4h1.1l0.1,0.9h0c0.6-0.6,1.3-1.1,2.2-1.1c1.4,0,2,0.9,2,2.6V32h-1.4v-4c0-1.1-0.3-1.6-1.1-1.6
								c-0.6,0-1,0.3-1.6,0.9V32H165V25.4z"/>
							<path d="M171.8,31.2l0.6-0.9c0.6,0.5,1.2,0.8,1.9,0.8c0.8,0,1.2-0.4,1.2-0.9c0-0.6-0.7-0.9-1.5-1.1c-0.9-0.3-1.9-0.8-1.9-1.9
								c0-1.1,0.9-1.9,2.3-1.9c0.9,0,1.6,0.4,2.1,0.8l-0.6,0.9c-0.5-0.3-0.9-0.6-1.5-0.6c-0.7,0-1.1,0.4-1.1,0.8
								c0,0.6,0.7,0.8,1.4,1c0.9,0.3,1.9,0.8,1.9,2c0,1.1-0.9,2-2.5,2C173.4,32.2,172.5,31.8,171.8,31.2z"/>
							<path d="M178.1,23.4c0-0.5,0.4-0.8,0.9-0.8s0.9,0.3,0.9,0.8c0,0.5-0.4,0.8-0.9,0.8S178.1,23.8,178.1,23.4z M178.3,25.4h1.4
								V32h-1.4V25.4z"/>
							<path d="M181.9,29.8v-3.3h-1v-1l1-0.1l0.2-1.8h1.2v1.8h1.7v1.1h-1.7v3.3c0,0.8,0.3,1.2,1,1.2c0.2,0,0.5-0.1,0.7-0.2l0.3,1
								c-0.4,0.1-0.8,0.2-1.3,0.2C182.5,32.2,181.9,31.2,181.9,29.8z"/>
							<path d="M186.3,23.4c0-0.5,0.4-0.8,0.9-0.8s0.9,0.3,0.9,0.8c0,0.5-0.4,0.8-0.9,0.8S186.3,23.8,186.3,23.4z M186.5,25.4h1.4
								V32h-1.4V25.4z"/>
							<path d="M189,25.4h1.4l1.1,3.6c0.2,0.6,0.4,1.3,0.6,2h0c0.2-0.6,0.4-1.3,0.6-2l1.1-3.6h1.3L193,32h-1.6L189,25.4z"/>
							<path d="M196.3,23.4c0-0.5,0.4-0.8,0.9-0.8s0.9,0.3,0.9,0.8c0,0.5-0.4,0.8-0.9,0.8S196.3,23.8,196.3,23.4z M196.5,25.4h1.4
								V32h-1.4V25.4z"/>
							<path d="M200.1,29.8v-3.3h-1v-1l1-0.1l0.2-1.8h1.2v1.8h1.7v1.1h-1.7v3.3c0,0.8,0.3,1.2,1,1.2c0.2,0,0.5-0.1,0.7-0.2l0.3,1
								c-0.4,0.1-0.8,0.2-1.3,0.2C200.6,32.2,200.1,31.2,200.1,29.8z"/>
							<path d="M207.6,32.4c-0.5,1.4-1.2,2.4-2.6,2.4c-0.3,0-0.6,0-0.8-0.1l0.3-1.1c0.1,0,0.3,0.1,0.5,0.1c0.7,0,1.1-0.5,1.4-1.2
								l0.1-0.5l-2.6-6.5h1.4l1.2,3.4c0.2,0.6,0.4,1.2,0.6,1.9h0.1l0.5-1.9l1.1-3.4h1.3L207.6,32.4z"/>
						</g>
					</g>
					<g transform="translate(33.000000, 145.000000)">
						<g class="st1">
							<path d="M1.7,6H5c2.5,0,4.2,0.8,4.2,3.3c0,2.4-1.8,3.5-4.2,3.5H3.4V17H1.7V6z M4.9,11.4c1.8,0,2.6-0.7,2.6-2.1
								S6.6,7.4,4.8,7.4H3.4v4.1H4.9z"/>
							<path d="M10.8,11.5c0-3.6,2.2-5.8,5.1-5.8c1.6,0,2.6,0.7,3.3,1.4l-0.9,1.1c-0.5-0.6-1.2-1-2.3-1c-2.1,0-3.4,1.6-3.4,4.2
								c0,2.6,1.2,4.2,3.5,4.2c0.7,0,1.4-0.2,1.7-0.5v-2.6h-2.2v-1.4h3.8v4.8c-0.7,0.7-2,1.3-3.5,1.3C12.9,17.2,10.8,15.1,10.8,11.5
								z"/>
							<path d="M21.7,15.6h2.4V7.9h-2V6.8c1-0.2,1.8-0.5,2.4-0.8h1.3v9.6H28V17h-6.3V15.6z"/>
							<path d="M29.7,11.4c0-3.8,1.4-5.7,3.6-5.7c2.2,0,3.6,1.9,3.6,5.7c0,3.8-1.4,5.8-3.6,5.8C31.1,17.2,29.7,15.3,29.7,11.4z
								 M35.2,11.4c0-3.2-0.8-4.3-1.9-4.3s-1.9,1.2-1.9,4.3c0,3.2,0.8,4.4,1.9,4.4S35.2,14.6,35.2,11.4z"/>
							<path d="M38.2,16c3.3-2.9,4.9-5,4.9-6.8c0-1.2-0.6-2-1.9-2c-0.9,0-1.6,0.6-2.2,1.2l-1-1c0.9-1,1.9-1.7,3.4-1.7
								c2,0,3.3,1.3,3.3,3.3c0,2.1-1.7,4.3-4,6.6c0.6-0.1,1.3-0.1,1.8-0.1h2.8V17h-7.1V16z"/>
							<path d="M47.5,6h3.3c2.5,0,4.2,0.8,4.2,3.3c0,2.4-1.8,3.5-4.2,3.5h-1.7V17h-1.7V6z M50.8,11.4c1.8,0,2.6-0.7,2.6-2.1
								s-0.9-1.9-2.7-1.9h-1.4v4.1H50.8z"/>
						</g>
						<g class="st1">
							<path d="M146.5,7.2h2.7c2,0,3.4,0.7,3.4,2.7c0,1.9-1.4,2.8-3.3,2.8h-1.3V16h-1.4V7.2z M149,11.5c1.4,0,2.1-0.5,2.1-1.7
								c0-1.2-0.7-1.5-2.1-1.5h-1.2v3.2H149z"/>
							<path d="M154.1,9.4h1.1l0.1,1.2h0c0.5-0.9,1.2-1.4,1.9-1.4c0.3,0,0.5,0,0.7,0.1l-0.3,1.2c-0.2-0.1-0.4-0.1-0.7-0.1
								c-0.5,0-1.2,0.4-1.6,1.4V16h-1.4V9.4z"/>
							<path d="M158.9,13.6V9.4h1.4v4c0,1.1,0.3,1.6,1.1,1.6c0.6,0,1-0.3,1.6-1V9.4h1.4V16h-1.1l-0.1-1h0c-0.6,0.7-1.2,1.2-2.2,1.2
								C159.5,16.2,158.9,15.2,158.9,13.6z"/>
							<path d="M166.4,9.4h1.1l0.1,1.2h0c0.5-0.9,1.2-1.4,1.9-1.4c0.3,0,0.5,0,0.7,0.1l-0.3,1.2c-0.2-0.1-0.4-0.1-0.7-0.1
								c-0.5,0-1.2,0.4-1.6,1.4V16h-1.4V9.4z"/>
							<path d="M171.2,7.4c0-0.5,0.4-0.8,0.9-0.8s0.9,0.3,0.9,0.8c0,0.5-0.4,0.8-0.9,0.8S171.2,7.8,171.2,7.4z M171.4,9.4h1.4V16
								h-1.4V9.4z"/>
							<path d="M175,13.8v-3.3h-1v-1l1-0.1l0.2-1.8h1.2v1.8h1.7v1.1h-1.7v3.3c0,0.8,0.3,1.2,1,1.2c0.2,0,0.5-0.1,0.7-0.2l0.3,1
								c-0.4,0.1-0.8,0.2-1.3,0.2C175.5,16.2,175,15.2,175,13.8z"/>
							<path d="M179.5,13.6V9.4h1.4v4c0,1.1,0.3,1.6,1.1,1.6c0.6,0,1-0.3,1.6-1V9.4h1.4V16h-1.1l-0.1-1h0c-0.6,0.7-1.2,1.2-2.2,1.2
								C180.1,16.2,179.5,15.2,179.5,13.6z"/>
							<path d="M186.3,15.2l0.6-0.9c0.6,0.5,1.2,0.8,1.9,0.8c0.8,0,1.2-0.4,1.2-0.9c0-0.6-0.7-0.9-1.5-1.1c-0.9-0.3-1.9-0.8-1.9-1.9
								c0-1.1,0.9-1.9,2.3-1.9c0.9,0,1.6,0.4,2.1,0.8l-0.6,0.9c-0.5-0.3-0.9-0.6-1.5-0.6c-0.7,0-1.1,0.4-1.1,0.8
								c0,0.6,0.7,0.8,1.4,1c0.9,0.3,1.9,0.8,1.9,2c0,1.1-0.9,2-2.5,2C187.9,16.2,186.9,15.8,186.3,15.2z"/>
						</g>
					</g>
					<g transform="translate(32.000000, 197.000000)">
						<g class="st1">
							<path d="M1.7,22H5c2.5,0,4.2,0.8,4.2,3.3c0,2.4-1.8,3.5-4.2,3.5H3.4V33H1.7V22z M4.9,27.4c1.8,0,2.6-0.7,2.6-2.1
								s-0.9-1.9-2.7-1.9H3.4v4.1H4.9z"/>
							<path d="M10.8,27.5c0-3.6,2.2-5.8,5.1-5.8c1.6,0,2.6,0.7,3.3,1.4l-0.9,1.1c-0.5-0.6-1.2-1-2.3-1c-2.1,0-3.4,1.6-3.4,4.2
								c0,2.6,1.2,4.2,3.5,4.2c0.7,0,1.4-0.2,1.7-0.5v-2.6h-2.2v-1.4h3.8v4.8c-0.7,0.7-2,1.3-3.5,1.3C12.9,33.2,10.8,31.1,10.8,27.5
								z"/>
							<path d="M21.7,31.6h2.4v-7.7h-2v-1.1c1-0.2,1.8-0.5,2.4-0.8h1.3v9.6H28V33h-6.3V31.6z"/>
							<path d="M29.7,27.4c0-3.8,1.4-5.7,3.6-5.7c2.2,0,3.6,1.9,3.6,5.7c0,3.8-1.4,5.8-3.6,5.8C31.1,33.2,29.7,31.3,29.7,27.4z
								 M35.2,27.4c0-3.2-0.8-4.3-1.9-4.3s-1.9,1.2-1.9,4.3c0,3.2,0.8,4.4,1.9,4.4S35.2,30.6,35.2,27.4z"/>
							<path d="M38.2,32c3.3-2.9,4.9-5,4.9-6.8c0-1.2-0.6-2-1.9-2c-0.9,0-1.6,0.6-2.2,1.2l-1-1c0.9-1,1.9-1.7,3.4-1.7
								c2,0,3.3,1.3,3.3,3.3c0,2.1-1.7,4.3-4,6.6c0.6-0.1,1.3-0.1,1.8-0.1h2.8V33h-7.1V32z"/>
							<path d="M46.9,27.5c0-3.6,2.2-5.8,5-5.8c1.4,0,2.5,0.7,3.1,1.4l-0.9,1.1c-0.6-0.6-1.3-1-2.2-1c-1.9,0-3.2,1.6-3.2,4.2
								c0,2.6,1.2,4.2,3.2,4.2c1,0,1.8-0.4,2.4-1.2l0.9,1.1c-0.9,1-2,1.6-3.4,1.6C49.1,33.2,46.9,31.1,46.9,27.5z"/>
						</g>
						<g class="st1">
							<path d="M120.1,5.2h2.3c2.7,0,4.3,1.5,4.3,4.4c0,2.9-1.5,4.4-4.2,4.4h-2.4V5.2z M122.3,12.9c1.9,0,2.9-1.1,2.9-3.3
								c0-2.2-1-3.3-2.9-3.3h-0.8v6.6H122.3z"/>
							<path d="M128.4,7.4h1.1l0.1,1.2h0c0.5-0.9,1.2-1.4,1.9-1.4c0.3,0,0.5,0,0.7,0.1L132,8.6c-0.2-0.1-0.4-0.1-0.7-0.1
								c-0.5,0-1.2,0.4-1.6,1.4V14h-1.4V7.4z"/>
							<path d="M136.5,14.4c-0.5,1.4-1.2,2.4-2.6,2.4c-0.3,0-0.6,0-0.8-0.1l0.3-1.1c0.1,0,0.3,0.1,0.5,0.1c0.7,0,1.1-0.5,1.4-1.2
								l0.1-0.5l-2.6-6.5h1.4l1.2,3.4c0.2,0.6,0.4,1.2,0.6,1.9h0.1l0.5-1.9l1.1-3.4h1.3L136.5,14.4z"/>
							<path d="M142.1,13.2l0.6-0.9c0.6,0.5,1.2,0.8,1.9,0.8c0.8,0,1.2-0.4,1.2-0.9c0-0.6-0.7-0.9-1.5-1.1c-0.9-0.3-1.9-0.8-1.9-1.9
								c0-1.1,0.9-1.9,2.3-1.9c0.9,0,1.6,0.4,2.1,0.8l-0.6,0.9c-0.5-0.3-0.9-0.6-1.5-0.6c-0.7,0-1.1,0.4-1.1,0.8
								c0,0.6,0.7,0.8,1.4,1c0.9,0.3,1.9,0.8,1.9,2c0,1.1-0.9,2-2.5,2C143.7,14.2,142.7,13.8,142.1,13.2z"/>
							<path d="M148.5,4.4h1.3v6.2h0l2.6-3.2h1.5l-2.2,2.7l2.5,3.9h-1.5l-1.8-3l-1.1,1.3V14h-1.3V4.4z"/>
							<path d="M155.3,5.4c0-0.5,0.4-0.8,0.9-0.8s0.9,0.3,0.9,0.8c0,0.5-0.4,0.8-0.9,0.8S155.3,5.8,155.3,5.4z M155.4,7.4h1.4V14
								h-1.4V7.4z"/>
							<path d="M158.9,7.4h1.1l0.1,0.9h0c0.6-0.6,1.3-1.1,2.2-1.1c1.4,0,2,0.9,2,2.6V14H163v-4c0-1.1-0.3-1.6-1.1-1.6
								c-0.6,0-1,0.3-1.6,0.9V14h-1.4V7.4z"/>
							<path d="M168.9,5.4c0-0.5,0.4-0.8,0.9-0.8s0.9,0.3,0.9,0.8c0,0.5-0.4,0.8-0.9,0.8S168.9,5.8,168.9,5.4z M169.1,7.4h1.4V14
								h-1.4V7.4z"/>
							<path d="M172.5,7.4h1.1l0.1,0.9h0c0.6-0.6,1.3-1.1,2.2-1.1c1.4,0,2,0.9,2,2.6V14h-1.4v-4c0-1.1-0.3-1.6-1.1-1.6
								c-0.6,0-1,0.3-1.6,0.9V14h-1.4V7.4z"/>
							<path d="M186.9,11.5h-3.1l-0.8,2.5h-1.4l2.9-8.8h1.6l2.9,8.8h-1.5L186.9,11.5z M186.6,10.4l-0.3-1.2c-0.3-1-0.6-1.9-0.8-2.9
								h0c-0.3,1-0.5,2-0.8,2.9l-0.4,1.2H186.6z"/>
							<path d="M190.2,11.8V8.5h-1v-1l1-0.1l0.2-1.8h1.2v1.8h1.7v1.1h-1.7v3.3c0,0.8,0.3,1.2,1,1.2c0.2,0,0.5-0.1,0.7-0.2l0.3,1
								c-0.4,0.1-0.8,0.2-1.3,0.2C190.7,14.2,190.2,13.2,190.2,11.8z"/>
							<path d="M194,10.7c0-2.2,1.5-3.5,3.1-3.5c1.6,0,3.1,1.3,3.1,3.5c0,2.2-1.5,3.4-3.1,3.4C195.5,14.2,194,12.9,194,10.7z
								 M198.8,10.7c0-1.4-0.6-2.3-1.7-2.3c-1,0-1.7,0.9-1.7,2.3c0,1.4,0.6,2.3,1.7,2.3C198.2,13,198.8,12.1,198.8,10.7z"/>
							<path d="M201.9,7.4h1.1l0.1,0.7h0c0.6-0.5,1.3-0.9,2-0.9c1.7,0,2.6,1.3,2.6,3.4c0,2.3-1.4,3.6-2.8,3.6
								c-0.6,0-1.2-0.3-1.7-0.7l0,1.1v2.1h-1.4V7.4z M206.4,10.6c0-1.4-0.4-2.2-1.5-2.2c-0.5,0-1,0.3-1.6,0.8v3.2
								c0.5,0.4,1,0.6,1.4,0.6C205.6,13,206.4,12.2,206.4,10.6z"/>
							<path d="M209.2,5.4c0-0.5,0.4-0.8,0.9-0.8s0.9,0.3,0.9,0.8c0,0.5-0.4,0.8-0.9,0.8S209.2,5.8,209.2,5.4z M209.4,7.4h1.4V14
								h-1.4V7.4z"/>
							<path d="M212.4,10.7c0-2.2,1.5-3.5,3.3-3.5c0.8,0,1.5,0.3,1.9,0.8l-0.7,0.9c-0.4-0.3-0.7-0.5-1.2-0.5c-1.1,0-1.9,0.9-1.9,2.3
								c0,1.4,0.8,2.3,1.9,2.3c0.6,0,1-0.3,1.4-0.6l0.6,0.9c-0.6,0.5-1.4,0.8-2.1,0.8C213.8,14.2,212.4,12.9,212.4,10.7z"/>
						</g>
						<text transform="matrix(1 0 0 1 218.0463 14)" class="st5 st6"> </text>
						<g class="st1">
							<path d="M118.3,23.2h2.3c2.7,0,4.3,1.5,4.3,4.4c0,2.9-1.5,4.4-4.2,4.4h-2.4V23.2z M120.5,30.9c1.9,0,2.9-1.1,2.9-3.3
								c0-2.2-1-3.3-2.9-3.3h-0.8v6.6H120.5z"/>
							<path d="M126.1,28.7c0-2.1,1.5-3.5,3-3.5c1.8,0,2.7,1.3,2.7,3.1c0,0.3,0,0.5-0.1,0.7h-4.3c0.1,1.3,0.9,2,2,2
								c0.6,0,1.1-0.2,1.6-0.5l0.5,0.9c-0.6,0.4-1.4,0.7-2.2,0.7C127.5,32.2,126.1,30.9,126.1,28.7z M130.6,28.1
								c0-1.1-0.5-1.8-1.5-1.8c-0.8,0-1.6,0.6-1.7,1.8H130.6z"/>
							<path d="M133.4,25.4h1.1l0.1,1.2h0c0.5-0.9,1.2-1.4,1.9-1.4c0.3,0,0.5,0,0.7,0.1l-0.3,1.2c-0.2-0.1-0.4-0.1-0.7-0.1
								c-0.5,0-1.2,0.4-1.6,1.4V32h-1.4V25.4z"/>
							<path d="M138.3,25.4h1.1l0.1,0.9h0c0.6-0.6,1.2-1.1,2-1.1c1,0,1.5,0.5,1.8,1.2c0.6-0.7,1.3-1.2,2.1-1.2c1.4,0,2,0.9,2,2.6V32
								h-1.4v-4c0-1.1-0.4-1.6-1.1-1.6c-0.5,0-0.9,0.3-1.5,0.9V32h-1.4v-4c0-1.1-0.3-1.6-1.1-1.6c-0.4,0-0.9,0.3-1.5,0.9V32h-1.4
								V25.4z"/>
							<path d="M149.2,30.2c0-1.4,1.2-2.1,3.9-2.4c0-0.8-0.3-1.4-1.3-1.4c-0.7,0-1.3,0.3-1.9,0.7l-0.5-0.9c0.7-0.4,1.6-0.9,2.7-0.9
								c1.6,0,2.4,1,2.4,2.8v4h-1.1l-0.1-0.8h0c-0.6,0.5-1.3,0.9-2.1,0.9C150,32.2,149.2,31.4,149.2,30.2z M153.1,30.3v-1.6
								c-2,0.2-2.6,0.7-2.6,1.5c0,0.6,0.4,0.9,1,0.9C152.1,31.1,152.6,30.8,153.1,30.3z"/>
							<path d="M156.5,29.8v-3.3h-1v-1l1-0.1l0.2-1.8h1.2v1.8h1.7v1.1h-1.7v3.3c0,0.8,0.3,1.2,1,1.2c0.2,0,0.5-0.1,0.7-0.2l0.3,1
								c-0.4,0.1-0.8,0.2-1.3,0.2C157,32.2,156.5,31.2,156.5,29.8z"/>
							<path d="M160.8,23.4c0-0.5,0.4-0.8,0.9-0.8s0.9,0.3,0.9,0.8c0,0.5-0.4,0.8-0.9,0.8S160.8,23.8,160.8,23.4z M161,25.4h1.4V32
								H161V25.4z"/>
							<path d="M164.7,29.8v-3.3h-1v-1l1-0.1l0.2-1.8h1.2v1.8h1.7v1.1h-1.7v3.3c0,0.8,0.3,1.2,1,1.2c0.2,0,0.5-0.1,0.7-0.2l0.3,1
								c-0.4,0.1-0.8,0.2-1.3,0.2C165.2,32.2,164.7,31.2,164.7,29.8z"/>
							<path d="M169,23.4c0-0.5,0.4-0.8,0.9-0.8s0.9,0.3,0.9,0.8c0,0.5-0.4,0.8-0.9,0.8S169,23.8,169,23.4z M169.2,25.4h1.4V32h-1.4
								V25.4z"/>
							<path d="M172,31.2l0.6-0.9c0.6,0.5,1.2,0.8,1.9,0.8c0.8,0,1.2-0.4,1.2-0.9c0-0.6-0.7-0.9-1.5-1.1c-0.9-0.3-1.9-0.8-1.9-1.9
								c0-1.1,0.9-1.9,2.3-1.9c0.9,0,1.6,0.4,2.1,0.8l-0.6,0.9c-0.5-0.3-0.9-0.6-1.5-0.6c-0.7,0-1.1,0.4-1.1,0.8
								c0,0.6,0.7,0.8,1.4,1c0.9,0.3,1.9,0.8,1.9,2c0,1.1-0.9,2-2.5,2C173.5,32.2,172.6,31.8,172,31.2z"/>
							<path d="M180.7,30.2c0-1.4,1.2-2.1,3.9-2.4c0-0.8-0.3-1.4-1.3-1.4c-0.7,0-1.3,0.3-1.9,0.7l-0.5-0.9c0.7-0.4,1.6-0.9,2.7-0.9
								c1.6,0,2.4,1,2.4,2.8v4h-1.1l-0.1-0.8h0c-0.6,0.5-1.3,0.9-2.1,0.9C181.5,32.2,180.7,31.4,180.7,30.2z M181.5,22.2l0.9-0.9
								l2,2.3l-0.7,0.7L181.5,22.2z M184.7,30.3v-1.6c-2,0.2-2.6,0.7-2.6,1.5c0,0.6,0.4,0.9,1,0.9C183.7,31.1,184.1,30.8,184.7,30.3
								z"/>
							<path d="M194.9,29.5h-3.1l-0.8,2.5h-1.4l2.9-8.8h1.6l2.9,8.8h-1.5L194.9,29.5z M194.6,28.4l-0.3-1.2c-0.3-1-0.6-1.9-0.8-2.9
								h0c-0.3,1-0.5,2-0.8,2.9l-0.4,1.2H194.6z"/>
							<path d="M198.2,29.8v-3.3h-1v-1l1-0.1l0.2-1.8h1.2v1.8h1.7v1.1h-1.7v3.3c0,0.8,0.3,1.2,1,1.2c0.2,0,0.5-0.1,0.7-0.2l0.3,1
								c-0.4,0.1-0.8,0.2-1.3,0.2C198.7,32.2,198.2,31.2,198.2,29.8z"/>
							<path d="M202.1,28.7c0-2.2,1.5-3.5,3.1-3.5c1.6,0,3.1,1.3,3.1,3.5c0,2.2-1.5,3.4-3.1,3.4C203.5,32.2,202.1,30.9,202.1,28.7z
								 M206.9,28.7c0-1.4-0.6-2.3-1.7-2.3c-1,0-1.7,0.9-1.7,2.3c0,1.4,0.6,2.3,1.7,2.3C206.2,31,206.9,30.1,206.9,28.7z"/>
							<path d="M209.9,25.4h1.1l0.1,0.7h0c0.6-0.5,1.3-0.9,2-0.9c1.7,0,2.6,1.3,2.6,3.4c0,2.3-1.4,3.6-2.8,3.6
								c-0.6,0-1.2-0.3-1.7-0.7l0,1.1v2.1h-1.4V25.4z M214.4,28.6c0-1.4-0.4-2.2-1.5-2.2c-0.5,0-1,0.3-1.6,0.8v3.2
								c0.5,0.4,1,0.6,1.4,0.6C213.7,31,214.4,30.2,214.4,28.6z"/>
							<path d="M217.3,23.4c0-0.5,0.4-0.8,0.9-0.8s0.9,0.3,0.9,0.8c0,0.5-0.4,0.8-0.9,0.8S217.3,23.8,217.3,23.4z M217.5,25.4h1.4
								V32h-1.4V25.4z"/>
						</g>
						<text transform="matrix(1 0 0 1 219.8524 32)" class="st5 st6"> </text>
						<g class="st1">
							<path d="M138.2,41.2h2.3c2.7,0,4.3,1.5,4.3,4.4c0,2.9-1.5,4.4-4.2,4.4h-2.4V41.2z M140.4,48.9c1.9,0,2.9-1.1,2.9-3.3
								c0-2.2-1-3.3-2.9-3.3h-0.8v6.6H140.4z"/>
							<path d="M146,46.7c0-2.1,1.5-3.5,3-3.5c1.8,0,2.7,1.3,2.7,3.1c0,0.3,0,0.5-0.1,0.7h-4.3c0.1,1.3,0.9,2,2,2
								c0.6,0,1.1-0.2,1.6-0.5l0.5,0.9c-0.6,0.4-1.4,0.7-2.2,0.7C147.4,50.2,146,48.9,146,46.7z M150.5,46.1c0-1.1-0.5-1.8-1.5-1.8
								c-0.8,0-1.6,0.6-1.7,1.8H150.5z"/>
							<path d="M153.2,43.4h1.1l0.1,1.2h0c0.5-0.9,1.2-1.4,1.9-1.4c0.3,0,0.5,0,0.7,0.1l-0.3,1.2c-0.2-0.1-0.4-0.1-0.7-0.1
								c-0.5,0-1.2,0.4-1.6,1.4V50h-1.4V43.4z"/>
							<path d="M158.2,43.4h1.1l0.1,0.9h0c0.6-0.6,1.2-1.1,2-1.1c1,0,1.5,0.5,1.8,1.2c0.6-0.7,1.3-1.2,2.1-1.2c1.4,0,2,0.9,2,2.6V50
								h-1.4v-4c0-1.1-0.4-1.6-1.1-1.6c-0.5,0-0.9,0.3-1.5,0.9V50h-1.4v-4c0-1.1-0.3-1.6-1.1-1.6c-0.4,0-0.9,0.3-1.5,0.9V50h-1.4
								V43.4z"/>
							<path d="M169.1,48.2c0-1.4,1.2-2.1,3.9-2.4c0-0.8-0.3-1.4-1.3-1.4c-0.7,0-1.3,0.3-1.9,0.7l-0.5-0.9c0.7-0.4,1.6-0.9,2.7-0.9
								c1.6,0,2.4,1,2.4,2.8v4h-1.1l-0.1-0.8h0c-0.6,0.5-1.3,0.9-2.1,0.9C169.9,50.2,169.1,49.4,169.1,48.2z M173,48.3v-1.6
								c-2,0.2-2.6,0.7-2.6,1.5c0,0.6,0.4,0.9,1,0.9C172,49.1,172.5,48.8,173,48.3z"/>
							<path d="M176.4,47.8v-3.3h-1v-1l1-0.1l0.2-1.8h1.2v1.8h1.7v1.1h-1.7v3.3c0,0.8,0.3,1.2,1,1.2c0.2,0,0.5-0.1,0.7-0.2l0.3,1
								c-0.4,0.1-0.8,0.2-1.3,0.2C176.9,50.2,176.4,49.2,176.4,47.8z"/>
							<path d="M180.7,41.4c0-0.5,0.4-0.8,0.9-0.8s0.9,0.3,0.9,0.8c0,0.5-0.4,0.8-0.9,0.8S180.7,41.8,180.7,41.4z M180.9,43.4h1.4
								V50h-1.4V43.4z"/>
							<path d="M184.6,47.8v-3.3h-1v-1l1-0.1l0.2-1.8h1.2v1.8h1.7v1.1h-1.7v3.3c0,0.8,0.3,1.2,1,1.2c0.2,0,0.5-0.1,0.7-0.2l0.3,1
								c-0.4,0.1-0.8,0.2-1.3,0.2C185.1,50.2,184.6,49.2,184.6,47.8z"/>
							<path d="M188.9,41.4c0-0.5,0.4-0.8,0.9-0.8s0.9,0.3,0.9,0.8c0,0.5-0.4,0.8-0.9,0.8S188.9,41.8,188.9,41.4z M189.1,43.4h1.4
								V50h-1.4V43.4z"/>
							<path d="M191.9,49.2l0.6-0.9c0.6,0.5,1.2,0.8,1.9,0.8c0.8,0,1.2-0.4,1.2-0.9c0-0.6-0.7-0.9-1.5-1.1c-0.9-0.3-1.9-0.8-1.9-1.9
								c0-1.1,0.9-1.9,2.3-1.9c0.9,0,1.6,0.4,2.1,0.8l-0.6,0.9c-0.5-0.3-0.9-0.6-1.5-0.6c-0.7,0-1.1,0.4-1.1,0.8
								c0,0.6,0.7,0.8,1.4,1c0.9,0.3,1.9,0.8,1.9,2c0,1.1-0.9,2-2.5,2C193.4,50.2,192.5,49.8,191.9,49.2z"/>
						</g>
					</g>
					<g transform="translate(37.000000, 281.000000)">
						<g class="st1">
							<path d="M1.6,13h1.7v4.5h4.7V13h1.7v11H8.1v-5H3.3v5H1.6V13z"/>
							<path d="M14.7,18.3l-3-5.3h1.9l1.3,2.6c0.3,0.5,0.5,1,0.8,1.7h0.1c0.3-0.7,0.5-1.2,0.8-1.7l1.3-2.6h1.8l-3,5.4L20,24H18
								l-1.5-2.7c-0.3-0.6-0.6-1.1-0.9-1.8h-0.1c-0.3,0.7-0.6,1.2-0.9,1.8L13.3,24h-1.8L14.7,18.3z"/>
							<path d="M21.5,22.6h2.4v-7.7h-2v-1.1c1-0.2,1.8-0.5,2.4-0.8h1.3v9.6h2.2V24h-6.3V22.6z"/>
							<path d="M29.4,18.4c0-3.8,1.4-5.7,3.6-5.7c2.2,0,3.6,1.9,3.6,5.7c0,3.8-1.4,5.8-3.6,5.8C30.8,24.2,29.4,22.3,29.4,18.4z
								 M34.9,18.4c0-3.2-0.8-4.3-1.9-4.3s-1.9,1.2-1.9,4.3c0,3.2,0.8,4.4,1.9,4.4S34.9,21.6,34.9,18.4z"/>
							<path d="M44.1,15c-0.4-0.5-1.1-0.8-1.7-0.8c-1.4,0-2.6,1.1-2.7,4.2c0.6-0.8,1.6-1.3,2.4-1.3c1.9,0,3.1,1.1,3.1,3.5
								c0,2.2-1.5,3.6-3.3,3.6c-2.1,0-3.8-1.8-3.8-5.5c0-4.2,2-5.9,4.2-5.9c1.2,0,2.1,0.5,2.8,1.2L44.1,15z M43.6,20.6
								c0-1.4-0.6-2.2-1.8-2.2c-0.6,0-1.4,0.3-2.1,1.3c0.2,2.2,1,3.2,2.2,3.2C42.8,22.9,43.6,22,43.6,20.6z"/>
						</g>
						<g class="st1">
							<path d="M141.1,5.2h1.6l1.6,4.5c0.2,0.6,0.4,1.2,0.6,1.8h0.1c0.2-0.6,0.4-1.2,0.6-1.8l1.6-4.5h1.6V14h-1.3V9.6
								c0-0.8,0.1-1.9,0.2-2.7h0l-0.7,2l-1.5,4.2h-0.9l-1.5-4.2l-0.7-2h0c0.1,0.8,0.2,1.9,0.2,2.7V14h-1.2V5.2z"/>
							<path d="M150.5,10.7c0-2.1,1.5-3.5,3-3.5c1.8,0,2.7,1.3,2.7,3.1c0,0.3,0,0.5-0.1,0.7h-4.3c0.1,1.3,0.9,2,2,2
								c0.6,0,1.1-0.2,1.6-0.5l0.5,0.9c-0.6,0.4-1.4,0.7-2.2,0.7C151.9,14.2,150.5,12.9,150.5,10.7z M155,10.1
								c0-1.1-0.5-1.8-1.5-1.8c-0.8,0-1.6,0.6-1.7,1.8H155z"/>
							<path d="M157.7,7.4h1.1l0.1,0.9h0c0.6-0.6,1.2-1.1,2-1.1c1,0,1.5,0.5,1.8,1.2c0.6-0.7,1.3-1.2,2.1-1.2c1.4,0,2,0.9,2,2.6V14
								h-1.4v-4c0-1.1-0.4-1.6-1.1-1.6c-0.5,0-0.9,0.3-1.5,0.9V14h-1.4v-4c0-1.1-0.3-1.6-1.1-1.6c-0.4,0-0.9,0.3-1.5,0.9V14h-1.4
								V7.4z"/>
							<path d="M168.6,10.7c0-2.2,1.5-3.5,3.1-3.5c1.6,0,3.1,1.3,3.1,3.5c0,2.2-1.5,3.4-3.1,3.4C170,14.2,168.6,12.9,168.6,10.7z
								 M173.4,10.7c0-1.4-0.6-2.3-1.7-2.3c-1,0-1.7,0.9-1.7,2.3c0,1.4,0.6,2.3,1.7,2.3C172.7,13,173.4,12.1,173.4,10.7z"/>
							<path d="M176.4,7.4h1.1l0.1,1.2h0c0.5-0.9,1.2-1.4,1.9-1.4c0.3,0,0.5,0,0.7,0.1L180,8.6c-0.2-0.1-0.4-0.1-0.7-0.1
								c-0.5,0-1.2,0.4-1.6,1.4V14h-1.4V7.4z"/>
							<path d="M184.5,14.4c-0.5,1.4-1.2,2.4-2.6,2.4c-0.3,0-0.6,0-0.8-0.1l0.3-1.1c0.1,0,0.3,0.1,0.5,0.1c0.7,0,1.1-0.5,1.4-1.2
								l0.1-0.5l-2.6-6.5h1.4l1.2,3.4c0.2,0.6,0.4,1.2,0.6,1.9h0.1l0.5-1.9l1.1-3.4h1.3L184.5,14.4z"/>
						</g>
						<text transform="matrix(1 0 0 1 187.0552 14)" class="st5 st6"> </text>
						<g class="st1">
							<path d="M139.4,23.2h5.2v1.2h-3.8V27h3.3v1.2h-3.3V32h-1.4V23.2z"/>
							<path d="M145.7,29.6v-4.2h1.4v4c0,1.1,0.3,1.6,1.1,1.6c0.6,0,1-0.3,1.6-1v-4.6h1.4V32H150l-0.1-1h0c-0.6,0.7-1.2,1.2-2.2,1.2
								C146.3,32.2,145.7,31.2,145.7,29.6z"/>
							<path d="M153.2,25.4h1.1l0.1,0.9h0c0.6-0.6,1.3-1.1,2.2-1.1c1.4,0,2,0.9,2,2.6V32h-1.4v-4c0-1.1-0.3-1.6-1.1-1.6
								c-0.6,0-1,0.3-1.6,0.9V32h-1.4V25.4z"/>
							<path d="M160.3,28.7c0-2.2,1.5-3.5,3.3-3.5c0.8,0,1.5,0.3,1.9,0.8l-0.7,0.9c-0.4-0.3-0.7-0.5-1.2-0.5c-1.1,0-1.9,0.9-1.9,2.3
								c0,1.4,0.8,2.3,1.9,2.3c0.6,0,1-0.3,1.4-0.6l0.6,0.9c-0.6,0.5-1.4,0.8-2.1,0.8C161.6,32.2,160.3,30.9,160.3,28.7z"/>
							<path d="M167,29.8v-3.3h-1v-1l1-0.1l0.2-1.8h1.2v1.8h1.7v1.1h-1.7v3.3c0,0.8,0.3,1.2,1,1.2c0.2,0,0.5-0.1,0.7-0.2l0.3,1
								c-0.4,0.1-0.8,0.2-1.3,0.2C167.5,32.2,167,31.2,167,29.8z"/>
							<path d="M171.4,23.4c0-0.5,0.4-0.8,0.9-0.8s0.9,0.3,0.9,0.8c0,0.5-0.4,0.8-0.9,0.8S171.4,23.8,171.4,23.4z M171.6,25.4h1.4
								V32h-1.4V25.4z"/>
							<path d="M174.5,28.7c0-2.2,1.5-3.5,3.1-3.5c1.6,0,3.1,1.3,3.1,3.5c0,2.2-1.5,3.4-3.1,3.4C176,32.2,174.5,30.9,174.5,28.7z
								 M179.3,28.7c0-1.4-0.6-2.3-1.7-2.3c-1,0-1.7,0.9-1.7,2.3c0,1.4,0.6,2.3,1.7,2.3C178.7,31,179.3,30.1,179.3,28.7z"/>
							<path d="M182.4,25.4h1.1l0.1,0.9h0c0.6-0.6,1.3-1.1,2.2-1.1c1.4,0,2,0.9,2,2.6V32h-1.4v-4c0-1.1-0.3-1.6-1.1-1.6
								c-0.6,0-1,0.3-1.6,0.9V32h-1.4V25.4z"/>
						</g>
					</g>
					<g transform="translate(37.000000, 356.000000)">
						<g class="st1">
							<path d="M1.6,13h1.7v4.5h4.7V13h1.7v11H8.1v-5H3.3v5H1.6V13z"/>
							<path d="M14.7,18.3l-3-5.3h1.9l1.3,2.6c0.3,0.5,0.5,1,0.8,1.7h0.1c0.3-0.7,0.5-1.2,0.8-1.7l1.3-2.6h1.8l-3,5.4L20,24H18
								l-1.5-2.7c-0.3-0.6-0.6-1.1-0.9-1.8h-0.1c-0.3,0.7-0.6,1.2-0.9,1.8L13.3,24h-1.8L14.7,18.3z"/>
							<path d="M21.5,22.6h2.4v-7.7h-2v-1.1c1-0.2,1.8-0.5,2.4-0.8h1.3v9.6h2.2V24h-6.3V22.6z"/>
							<path d="M30,22.6h2.4v-7.7h-2v-1.1c1-0.2,1.8-0.5,2.4-0.8h1.3v9.6h2.2V24H30V22.6z"/>
							<path d="M38,18.4c0-3.8,1.4-5.7,3.6-5.7c2.2,0,3.6,1.9,3.6,5.7c0,3.8-1.4,5.8-3.6,5.8C39.4,24.2,38,22.3,38,18.4z M43.5,18.4
								c0-3.2-0.8-4.3-1.9-4.3s-1.9,1.2-1.9,4.3c0,3.2,0.8,4.4,1.9,4.4S43.5,21.6,43.5,18.4z"/>
						</g>
						<g class="st1">
							<path d="M136.4,14l-2-3.6H133V14h-1.4V5.2h2.9c1.8,0,3.2,0.6,3.2,2.6c0,1.4-0.7,2.2-1.8,2.5L138,14H136.4z M133,9.3h1.3
								c1.3,0,2-0.5,2-1.6s-0.7-1.4-2-1.4H133V9.3z"/>
							<path d="M138.7,10.7c0-2.1,1.5-3.5,3-3.5c1.8,0,2.7,1.3,2.7,3.1c0,0.3,0,0.5-0.1,0.7h-4.3c0.1,1.3,0.9,2,2,2
								c0.6,0,1.1-0.2,1.6-0.5l0.5,0.9c-0.6,0.4-1.4,0.7-2.2,0.7C140.2,14.2,138.7,12.9,138.7,10.7z M143.2,10.1
								c0-1.1-0.5-1.8-1.5-1.8c-0.8,0-1.6,0.6-1.7,1.8H143.2z"/>
							<path d="M145.3,13.2l0.6-0.9c0.6,0.5,1.2,0.8,1.9,0.8c0.8,0,1.2-0.4,1.2-0.9c0-0.6-0.7-0.9-1.5-1.1c-0.9-0.3-1.9-0.8-1.9-1.9
								c0-1.1,0.9-1.9,2.3-1.9c0.9,0,1.6,0.4,2.1,0.8l-0.6,0.9c-0.5-0.3-0.9-0.6-1.5-0.6c-0.7,0-1.1,0.4-1.1,0.8
								c0,0.6,0.7,0.8,1.4,1c0.9,0.3,1.9,0.8,1.9,2c0,1.1-0.9,2-2.5,2C146.8,14.2,145.9,13.8,145.3,13.2z"/>
							<path d="M151.7,7.4h1.1l0.1,0.7h0c0.6-0.5,1.3-0.9,2-0.9c1.7,0,2.6,1.3,2.6,3.4c0,2.3-1.4,3.6-2.8,3.6
								c-0.6,0-1.2-0.3-1.7-0.7l0,1.1v2.1h-1.4V7.4z M156.2,10.6c0-1.4-0.4-2.2-1.5-2.2c-0.5,0-1,0.3-1.6,0.8v3.2
								c0.5,0.4,1,0.6,1.4,0.6C155.5,13,156.2,12.2,156.2,10.6z"/>
							<path d="M159.1,5.4c0-0.5,0.4-0.8,0.9-0.8s0.9,0.3,0.9,0.8c0,0.5-0.4,0.8-0.9,0.8S159.1,5.8,159.1,5.4z M159.3,7.4h1.4V14
								h-1.4V7.4z"/>
							<path d="M162.7,7.4h1.1l0.1,1.2h0c0.5-0.9,1.2-1.4,1.9-1.4c0.3,0,0.5,0,0.7,0.1l-0.3,1.2c-0.2-0.1-0.4-0.1-0.7-0.1
								c-0.5,0-1.2,0.4-1.6,1.4V14h-1.4V7.4z"/>
							<path d="M166.9,12.2c0-1.4,1.2-2.1,3.9-2.4c0-0.8-0.3-1.4-1.3-1.4c-0.7,0-1.3,0.3-1.9,0.7l-0.5-0.9c0.7-0.4,1.6-0.9,2.7-0.9
								c1.6,0,2.4,1,2.4,2.8v4h-1.1l-0.1-0.8h0c-0.6,0.5-1.3,0.9-2.1,0.9C167.7,14.2,166.9,13.4,166.9,12.2z M170.9,12.3v-1.6
								c-2,0.2-2.6,0.7-2.6,1.5c0,0.6,0.4,0.9,1,0.9C169.9,13.1,170.3,12.8,170.9,12.3z"/>
							<path d="M174.2,11.8V8.5h-1v-1l1-0.1l0.2-1.8h1.2v1.8h1.7v1.1h-1.7v3.3c0,0.8,0.3,1.2,1,1.2c0.2,0,0.5-0.1,0.7-0.2l0.3,1
								c-0.4,0.1-0.8,0.2-1.3,0.2C174.7,14.2,174.2,13.2,174.2,11.8z"/>
							<path d="M178.1,10.7c0-2.2,1.5-3.5,3.1-3.5c1.6,0,3.1,1.3,3.1,3.5c0,2.2-1.5,3.4-3.1,3.4C179.6,14.2,178.1,12.9,178.1,10.7z
								 M182.9,10.7c0-1.4-0.6-2.3-1.7-2.3c-1,0-1.7,0.9-1.7,2.3c0,1.4,0.6,2.3,1.7,2.3C182.2,13,182.9,12.1,182.9,10.7z"/>
							<path d="M185.9,7.4h1.1l0.1,1.2h0c0.5-0.9,1.2-1.4,1.9-1.4c0.3,0,0.5,0,0.7,0.1l-0.3,1.2c-0.2-0.1-0.4-0.1-0.7-0.1
								c-0.5,0-1.2,0.4-1.6,1.4V14h-1.4V7.4z"/>
							<path d="M194,14.4c-0.5,1.4-1.2,2.4-2.6,2.4c-0.3,0-0.6,0-0.8-0.1l0.3-1.1c0.1,0,0.3,0.1,0.5,0.1c0.7,0,1.1-0.5,1.4-1.2
								l0.1-0.5l-2.6-6.5h1.4l1.2,3.4c0.2,0.6,0.4,1.2,0.6,1.9h0.1l0.5-1.9l1.1-3.4h1.3L194,14.4z"/>
						</g>
						<text transform="matrix(1 0 0 1 196.5773 14)" class="st5 st6"> </text>
						<g class="st1">
							<path d="M145.6,23.2h1.4v3.6h3.8v-3.6h1.4V32h-1.4v-4H147v4h-1.4V23.2z"/>
							<path d="M153.9,28.7c0-2.1,1.5-3.5,3-3.5c1.8,0,2.7,1.3,2.7,3.1c0,0.3,0,0.5-0.1,0.7h-4.3c0.1,1.3,0.9,2,2,2
								c0.6,0,1.1-0.2,1.6-0.5l0.5,0.9c-0.6,0.4-1.4,0.7-2.2,0.7C155.3,32.2,153.9,30.9,153.9,28.7z M158.4,28.1
								c0-1.1-0.5-1.8-1.5-1.8c-0.8,0-1.6,0.6-1.7,1.8H158.4z"/>
							<path d="M160.6,30.2c0-1.4,1.2-2.1,3.9-2.4c0-0.8-0.3-1.4-1.3-1.4c-0.7,0-1.3,0.3-1.9,0.7l-0.5-0.9c0.7-0.4,1.6-0.9,2.7-0.9
								c1.6,0,2.4,1,2.4,2.8v4h-1.1l-0.1-0.8h0c-0.6,0.5-1.3,0.9-2.1,0.9C161.4,32.2,160.6,31.4,160.6,30.2z M164.5,30.3v-1.6
								c-2,0.2-2.6,0.7-2.6,1.5c0,0.6,0.4,0.9,1,0.9C163.5,31.1,164,30.8,164.5,30.3z"/>
							<path d="M167.8,30.5v-8h1.4v8.1c0,0.4,0.2,0.5,0.3,0.5c0.1,0,0.1,0,0.2,0l0.2,1c-0.2,0.1-0.4,0.1-0.7,0.1
								C168.2,32.2,167.8,31.5,167.8,30.5z"/>
							<path d="M171.6,29.8v-3.3h-1v-1l1-0.1l0.2-1.8h1.2v1.8h1.7v1.1H173v3.3c0,0.8,0.3,1.2,1,1.2c0.2,0,0.5-0.1,0.7-0.2l0.3,1
								c-0.4,0.1-0.8,0.2-1.3,0.2C172.2,32.2,171.6,31.2,171.6,29.8z"/>
							<path d="M176.2,22.4h1.4V25l0,1.3c0.6-0.6,1.2-1,2.1-1c1.4,0,2,0.9,2,2.6V32h-1.4v-4c0-1.1-0.3-1.6-1.1-1.6
								c-0.6,0-1,0.3-1.6,0.9V32h-1.4V22.4z"/>
						</g>
					</g>
					<g transform="translate(37.000000, 431.000000)">
						<g class="st1">
							<path d="M1.6,13h1.7v4.5h4.7V13h1.7v11H8.1v-5H3.3v5H1.6V13z"/>
							<path d="M14.7,18.3l-3-5.3h1.9l1.3,2.6c0.3,0.5,0.5,1,0.8,1.7h0.1c0.3-0.7,0.5-1.2,0.8-1.7l1.3-2.6h1.8l-3,5.4L20,24H18
								l-1.5-2.7c-0.3-0.6-0.6-1.1-0.9-1.8h-0.1c-0.3,0.7-0.6,1.2-0.9,1.8L13.3,24h-1.8L14.7,18.3z"/>
							<path d="M21.5,22.6h2.4v-7.7h-2v-1.1c1-0.2,1.8-0.5,2.4-0.8h1.3v9.6h2.2V24h-6.3V22.6z"/>
							<path d="M30,22.6h2.4v-7.7h-2v-1.1c1-0.2,1.8-0.5,2.4-0.8h1.3v9.6h2.2V24H30V22.6z"/>
							<path d="M38,23c3.3-2.9,4.9-5,4.9-6.8c0-1.2-0.6-2-1.9-2c-0.9,0-1.6,0.6-2.2,1.2l-1-1c0.9-1,1.9-1.7,3.4-1.7
								c2,0,3.3,1.3,3.3,3.3c0,2.1-1.7,4.3-4,6.6c0.6-0.1,1.3-0.1,1.8-0.1h2.8V24H38V23z"/>
						</g>
						<g class="st1">
							<path d="M143.7,5.2h5.2v1.2h-3.8V9h3.3v1.2h-3.3V14h-1.4V5.2z"/>
							<path d="M149.7,10.7c0-2.1,1.5-3.5,3-3.5c1.8,0,2.7,1.3,2.7,3.1c0,0.3,0,0.5-0.1,0.7h-4.3c0.1,1.3,0.9,2,2,2
								c0.6,0,1.1-0.2,1.6-0.5l0.5,0.9c-0.6,0.4-1.4,0.7-2.2,0.7C151.1,14.2,149.7,12.9,149.7,10.7z M154.2,10.1
								c0-1.1-0.5-1.8-1.5-1.8c-0.8,0-1.6,0.6-1.7,1.8H154.2z"/>
							<path d="M156.9,7.4h1.1l0.1,0.9h0c0.6-0.6,1.2-1.1,2-1.1c1,0,1.5,0.5,1.8,1.2c0.6-0.7,1.3-1.2,2.1-1.2c1.4,0,2,0.9,2,2.6V14
								h-1.4v-4c0-1.1-0.4-1.6-1.1-1.6c-0.5,0-0.9,0.3-1.5,0.9V14h-1.4v-4c0-1.1-0.3-1.6-1.1-1.6c-0.4,0-0.9,0.3-1.5,0.9V14h-1.4
								V7.4z"/>
							<path d="M167.9,12.2c0-1.4,1.2-2.1,3.9-2.4c0-0.8-0.3-1.4-1.3-1.4c-0.7,0-1.3,0.3-1.9,0.7l-0.5-0.9c0.7-0.4,1.6-0.9,2.7-0.9
								c1.6,0,2.4,1,2.4,2.8v4h-1.1l-0.1-0.8h0c-0.6,0.5-1.3,0.9-2.1,0.9C168.7,14.2,167.9,13.4,167.9,12.2z M171.8,12.3v-1.6
								c-2,0.2-2.6,0.7-2.6,1.5c0,0.6,0.4,0.9,1,0.9C170.8,13.1,171.3,12.8,171.8,12.3z"/>
							<path d="M175.2,12.5v-8h1.4v8.1c0,0.4,0.2,0.5,0.3,0.5c0.1,0,0.1,0,0.2,0l0.2,1c-0.2,0.1-0.4,0.1-0.7,0.1
								C175.5,14.2,175.2,13.5,175.2,12.5z"/>
							<path d="M178.3,10.7c0-2.1,1.5-3.5,3-3.5c1.8,0,2.7,1.3,2.7,3.1c0,0.3,0,0.5-0.1,0.7h-4.3c0.1,1.3,0.9,2,2,2
								c0.6,0,1.1-0.2,1.6-0.5l0.5,0.9c-0.6,0.4-1.4,0.7-2.2,0.7C179.7,14.2,178.3,12.9,178.3,10.7z M182.8,10.1
								c0-1.1-0.5-1.8-1.5-1.8c-0.8,0-1.6,0.6-1.7,1.8H182.8z"/>
						</g>
						<g>
						</g>
						<g class="st1">
							<path d="M111.3,27.6c0-2.9,1.8-4.6,4-4.6c1.1,0,2,0.5,2.5,1.1L117,25c-0.5-0.5-1-0.8-1.7-0.8c-1.5,0-2.6,1.3-2.6,3.3
								c0,2.1,1,3.4,2.5,3.4c0.8,0,1.4-0.4,2-0.9l0.7,0.9c-0.7,0.8-1.6,1.3-2.7,1.3C113,32.2,111.3,30.5,111.3,27.6z"/>
							<path d="M119.4,30.5v-8h1.4v8.1c0,0.4,0.2,0.5,0.3,0.5c0.1,0,0.1,0,0.2,0l0.2,1c-0.2,0.1-0.4,0.1-0.7,0.1
								C119.8,32.2,119.4,31.5,119.4,30.5z"/>
							<path d="M122.8,23.4c0-0.5,0.4-0.8,0.9-0.8s0.9,0.3,0.9,0.8c0,0.5-0.4,0.8-0.9,0.8S122.8,23.8,122.8,23.4z M123,25.4h1.4V32
								H123V25.4z"/>
							<path d="M126.4,25.4h1.1l0.1,0.9h0c0.6-0.6,1.2-1.1,2-1.1c1,0,1.5,0.5,1.8,1.2c0.6-0.7,1.3-1.2,2.1-1.2c1.4,0,2,0.9,2,2.6V32
								h-1.4v-4c0-1.1-0.4-1.6-1.1-1.6c-0.5,0-0.9,0.3-1.5,0.9V32h-1.4v-4c0-1.1-0.3-1.6-1.1-1.6c-0.4,0-0.9,0.3-1.5,0.9V32h-1.4
								V25.4z"/>
							<path d="M137.3,30.2c0-1.4,1.2-2.1,3.9-2.4c0-0.8-0.3-1.4-1.3-1.4c-0.7,0-1.3,0.3-1.9,0.7l-0.5-0.9c0.7-0.4,1.6-0.9,2.7-0.9
								c1.6,0,2.4,1,2.4,2.8v4h-1.1l-0.1-0.8h0c-0.6,0.5-1.3,0.9-2.1,0.9C138.1,32.2,137.3,31.4,137.3,30.2z M141.3,30.3v-1.6
								c-2,0.2-2.6,0.7-2.6,1.5c0,0.6,0.4,0.9,1,0.9C140.3,31.1,140.7,30.8,141.3,30.3z"/>
							<path d="M144.2,28.7c0-2.2,1.5-3.5,3.3-3.5c0.8,0,1.5,0.3,1.9,0.8l-0.7,0.9c-0.4-0.3-0.7-0.5-1.2-0.5c-1.1,0-1.9,0.9-1.9,2.3
								c0,1.4,0.8,2.3,1.9,2.3c0.6,0,1-0.3,1.4-0.6l0.6,0.9c-0.6,0.5-1.4,0.8-2.1,0.8C145.5,32.2,144.2,30.9,144.2,28.7z"/>
							<path d="M150.9,29.8v-3.3h-1v-1l1-0.1l0.2-1.8h1.2v1.8h1.7v1.1h-1.7v3.3c0,0.8,0.3,1.2,1,1.2c0.2,0,0.5-0.1,0.7-0.2l0.3,1
								c-0.4,0.1-0.8,0.2-1.3,0.2C151.4,32.2,150.9,31.2,150.9,29.8z"/>
							<path d="M154.8,28.7c0-2.1,1.5-3.5,3-3.5c1.8,0,2.7,1.3,2.7,3.1c0,0.3,0,0.5-0.1,0.7h-4.3c0.1,1.3,0.9,2,2,2
								c0.6,0,1.1-0.2,1.6-0.5l0.5,0.9c-0.6,0.4-1.4,0.7-2.2,0.7C156.2,32.2,154.8,30.9,154.8,28.7z M159.3,28.1
								c0-1.1-0.5-1.8-1.5-1.8c-0.8,0-1.6,0.6-1.7,1.8H159.3z"/>
							<path d="M162,25.4h1.1l0.1,1.2h0c0.5-0.9,1.2-1.4,1.9-1.4c0.3,0,0.5,0,0.7,0.1l-0.3,1.2c-0.2-0.1-0.4-0.1-0.7-0.1
								c-0.5,0-1.2,0.4-1.6,1.4V32H162V25.4z"/>
							<path d="M166.7,23.4c0-0.5,0.4-0.8,0.9-0.8s0.9,0.3,0.9,0.8c0,0.5-0.4,0.8-0.9,0.8S166.7,23.8,166.7,23.4z M166.9,25.4h1.4
								V32h-1.4V25.4z"/>
							<path d="M169.9,28.7c0-2.2,1.5-3.5,3.3-3.5c0.8,0,1.5,0.3,1.9,0.8l-0.7,0.9c-0.4-0.3-0.7-0.5-1.2-0.5c-1.1,0-1.9,0.9-1.9,2.3
								c0,1.4,0.8,2.3,1.9,2.3c0.6,0,1-0.3,1.4-0.6l0.6,0.9c-0.6,0.5-1.4,0.8-2.1,0.8C171.3,32.2,169.9,30.9,169.9,28.7z"/>
							<path d="M179.4,23.2h1.4v3.6h3.8v-3.6h1.4V32h-1.4v-4h-3.8v4h-1.4V23.2z"/>
							<path d="M187.7,28.7c0-2.1,1.5-3.5,3-3.5c1.8,0,2.7,1.3,2.7,3.1c0,0.3,0,0.5-0.1,0.7H189c0.1,1.3,0.9,2,2,2
								c0.6,0,1.1-0.2,1.6-0.5l0.5,0.9c-0.6,0.4-1.4,0.7-2.2,0.7C189.1,32.2,187.7,30.9,187.7,28.7z M192.2,28.1
								c0-1.1-0.5-1.8-1.5-1.8c-0.8,0-1.6,0.6-1.7,1.8H192.2z"/>
							<path d="M194.4,30.2c0-1.4,1.2-2.1,3.9-2.4c0-0.8-0.3-1.4-1.3-1.4c-0.7,0-1.3,0.3-1.9,0.7l-0.5-0.9c0.7-0.4,1.6-0.9,2.7-0.9
								c1.6,0,2.4,1,2.4,2.8v4h-1.1l-0.1-0.8h0c-0.6,0.5-1.3,0.9-2.1,0.9C195.2,32.2,194.4,31.4,194.4,30.2z M198.3,30.3v-1.6
								c-2,0.2-2.6,0.7-2.6,1.5c0,0.6,0.4,0.9,1,0.9C197.3,31.1,197.8,30.8,198.3,30.3z"/>
							<path d="M201.7,30.5v-8h1.4v8.1c0,0.4,0.2,0.5,0.3,0.5c0.1,0,0.1,0,0.2,0l0.2,1c-0.2,0.1-0.4,0.1-0.7,0.1
								C202,32.2,201.7,31.5,201.7,30.5z"/>
							<path d="M205.5,29.8v-3.3h-1v-1l1-0.1l0.2-1.8h1.2v1.8h1.7v1.1h-1.7v3.3c0,0.8,0.3,1.2,1,1.2c0.2,0,0.5-0.1,0.7-0.2l0.3,1
								c-0.4,0.1-0.8,0.2-1.3,0.2C206,32.2,205.5,31.2,205.5,29.8z"/>
							<path d="M210,22.4h1.4V25l0,1.3c0.6-0.6,1.2-1,2.1-1c1.4,0,2,0.9,2,2.6V32h-1.4v-4c0-1.1-0.3-1.6-1.1-1.6
								c-0.6,0-1,0.3-1.6,0.9V32H210V22.4z"/>
						</g>
					</g>
					<g id="head1">
						<path class="st7" d="M8,0h104c4.4,0,8,3.6,8,8v34c0,4.4-3.6,8-8,8H8c-4.4,0-8-3.6-8-8V8C0,3.6,3.6,0,8,0z"/>
						<g class="st1">
							<path class="st2" d="M34.4,19.9H38c2.5,0,4.3,0.9,4.3,3.5c0,2.5-1.9,3.7-4.3,3.7h-1.5V31h-2.2V19.9z M37.9,25.3
								c1.5,0,2.3-0.6,2.3-1.9c0-1.3-0.8-1.7-2.3-1.7h-1.3v3.6H37.9z"/>
							<path class="st2" d="M44.2,22.6H46l0.1,1.5h0.1c0.6-1.1,1.5-1.7,2.4-1.7c0.5,0,0.7,0.1,1,0.2l-0.4,1.9
								c-0.3-0.1-0.5-0.1-0.9-0.1c-0.7,0-1.5,0.4-1.9,1.7v5h-2.2V22.6z"/>
							<path class="st2" d="M50,26.8c0-2.8,1.9-4.4,4-4.4s4,1.6,4,4.4c0,2.8-1.9,4.4-4,4.4S50,29.6,50,26.8z M55.8,26.8
								c0-1.6-0.6-2.6-1.8-2.6s-1.8,1-1.8,2.6c0,1.6,0.6,2.6,1.8,2.6S55.8,28.4,55.8,26.8z"/>
							<path class="st2" d="M57.9,34.2l0.4-1.6c0.2,0.1,0.4,0.1,0.7,0.1c0.7,0,0.9-0.5,0.9-1.4v-8.7h2.2v8.6c0,1.8-0.7,3.2-2.8,3.2
								C58.7,34.4,58.3,34.3,57.9,34.2z M59.7,20.1c0-0.7,0.6-1.2,1.3-1.2c0.8,0,1.3,0.5,1.3,1.2c0,0.7-0.6,1.2-1.3,1.2
								C60.3,21.2,59.7,20.7,59.7,20.1z"/>
							<path class="st2" d="M64,26.8c0-2.7,1.9-4.4,3.9-4.4c2.3,0,3.5,1.7,3.5,4c0,0.4,0,0.8-0.1,1h-5.2c0.2,1.4,1.1,2.1,2.3,2.1
								c0.7,0,1.3-0.2,1.9-0.6l0.8,1.4c-0.8,0.6-1.9,0.9-2.9,0.9C65.8,31.2,64,29.6,64,26.8z M69.5,26c0-1.1-0.5-1.9-1.6-1.9
								c-0.9,0-1.7,0.6-1.8,1.9H69.5z"/>
							<path class="st2" d="M72.7,26.8c0-2.8,2-4.4,4.3-4.4c1,0,1.8,0.4,2.4,0.9l-1,1.4c-0.4-0.4-0.8-0.6-1.3-0.6
								c-1.3,0-2.1,1-2.1,2.6c0,1.6,0.9,2.6,2.1,2.6c0.6,0,1.2-0.3,1.6-0.7l0.9,1.5c-0.8,0.7-1.8,1-2.7,1
								C74.5,31.2,72.7,29.6,72.7,26.8z"/>
							<path class="st2" d="M81.3,28.1v-3.7h-1.2v-1.6l1.3-0.1l0.3-2.2h1.8v2.2h2.1v1.7h-2.1v3.7c0,1,0.4,1.4,1.1,1.4
								c0.3,0,0.6-0.1,0.8-0.2l0.4,1.6c-0.5,0.2-1,0.3-1.8,0.3C82,31.2,81.3,30,81.3,28.1z"/>
						</g>
					</g>
					<g id="head2" transform="translate(130.000000, 0.000000)">
						<path class="st7" d="M8,0h124c4.4,0,8,3.6,8,8v34c0,4.4-3.6,8-8,8H8c-4.4,0-8-3.6-8-8V8C0,3.6,3.6,0,8,0z"/>
						<g class="st1">
							<path class="st2" d="M20.8,21.7h-3.1v-1.8h8.5v1.8H23V31h-2.2V21.7z"/>
							<path class="st2" d="M26.2,28.7c0-1.8,1.5-2.7,4.8-3.1c0-0.8-0.4-1.5-1.4-1.5c-0.8,0-1.5,0.3-2.3,0.8l-0.8-1.5
								c1-0.6,2.2-1.1,3.5-1.1c2.1,0,3.2,1.3,3.2,3.7V31h-1.8l-0.2-0.9h0c-0.7,0.6-1.6,1.1-2.5,1.1C27.2,31.2,26.2,30.1,26.2,28.7z
								 M31,28.7V27c-2,0.3-2.7,0.8-2.7,1.6c0,0.7,0.5,0.9,1.1,0.9C30.1,29.5,30.5,29.2,31,28.7z"/>
							<path class="st2" d="M35.5,22.6h1.8l0.1,1.5h0.1c0.6-1.1,1.5-1.7,2.4-1.7c0.5,0,0.7,0.1,1,0.2l-0.4,1.9
								c-0.3-0.1-0.5-0.1-0.9-0.1c-0.7,0-1.5,0.4-1.9,1.7v5h-2.2V22.6z"/>
							<path class="st2" d="M41.3,32.5c0-0.7,0.4-1.3,1.2-1.7v-0.1c-0.4-0.3-0.8-0.7-0.8-1.4c0-0.6,0.4-1.2,0.9-1.6v-0.1
								c-0.6-0.4-1.1-1.2-1.1-2.2c0-2,1.6-3,3.4-3c0.5,0,0.9,0.1,1.3,0.2h3v1.6h-1.4c0.2,0.3,0.4,0.8,0.4,1.3c0,1.9-1.4,2.8-3.2,2.8
								c-0.3,0-0.7-0.1-1.1-0.2c-0.2,0.2-0.4,0.4-0.4,0.7c0,0.5,0.3,0.7,1.3,0.7h1.4c2,0,3.1,0.6,3.1,2.1c0,1.7-1.8,3-4.6,3
								C42.8,34.6,41.3,34,41.3,32.5z M47.3,32c0-0.6-0.5-0.8-1.4-0.8h-1c-0.5,0-0.9,0-1.2-0.1c-0.4,0.3-0.6,0.6-0.6,1
								c0,0.7,0.8,1.1,2,1.1C46.4,33.2,47.3,32.7,47.3,32z M46.3,25.4c0-1-0.6-1.5-1.3-1.5s-1.3,0.6-1.3,1.5c0,1,0.6,1.5,1.3,1.5
								S46.3,26.4,46.3,25.4z"/>
							<path class="st2" d="M50,26.8c0-2.7,1.9-4.4,3.9-4.4c2.3,0,3.5,1.7,3.5,4c0,0.4,0,0.8-0.1,1h-5.2c0.2,1.4,1.1,2.1,2.3,2.1
								c0.7,0,1.3-0.2,1.9-0.6l0.8,1.4c-0.8,0.6-1.9,0.9-2.9,0.9C51.8,31.2,50,29.6,50,26.8z M55.5,26c0-1.1-0.5-1.9-1.6-1.9
								c-0.9,0-1.7,0.6-1.8,1.9H55.5z"/>
							<path class="st2" d="M59.4,28.1v-3.7h-1.2v-1.6l1.3-0.1l0.3-2.2h1.8v2.2h2.1v1.7h-2.1v3.7c0,1,0.4,1.4,1.1,1.4
								c0.3,0,0.6-0.1,0.8-0.2l0.4,1.6c-0.5,0.2-1,0.3-1.8,0.3C60.1,31.2,59.4,30,59.4,28.1z"/>
							<path class="st2" d="M69,19.9h3c3.4,0,5.5,1.8,5.5,5.5c0,3.7-2.1,5.6-5.4,5.6H69V19.9z M71.9,29.2c2.1,0,3.4-1.1,3.4-3.8
								c0-2.7-1.3-3.7-3.4-3.7h-0.7v7.5H71.9z"/>
							<path class="st2" d="M79.3,20.1c0-0.7,0.6-1.2,1.3-1.2c0.8,0,1.3,0.5,1.3,1.2c0,0.7-0.6,1.2-1.3,1.2
								C79.8,21.2,79.3,20.7,79.3,20.1z M79.5,22.6h2.2V31h-2.2V22.6z"/>
							<path class="st2" d="M83.2,30l1-1.4c0.8,0.6,1.5,0.9,2.2,0.9c0.8,0,1.2-0.4,1.2-0.9c0-0.6-0.9-0.9-1.8-1.3
								c-1.1-0.4-2.3-1-2.3-2.4c0-1.5,1.2-2.6,3.1-2.6c1.2,0,2.2,0.5,2.9,1l-1,1.3c-0.6-0.4-1.2-0.7-1.8-0.7c-0.8,0-1.1,0.3-1.1,0.8
								c0,0.6,0.8,0.8,1.7,1.2c1.1,0.4,2.3,1,2.3,2.5c0,1.5-1.2,2.7-3.3,2.7C85.3,31.2,84.1,30.7,83.2,30z"/>
							<path class="st2" d="M90.9,26.8c0-2.7,1.9-4.4,3.9-4.4c2.3,0,3.5,1.7,3.5,4c0,0.4,0,0.8-0.1,1h-5.2c0.2,1.4,1.1,2.1,2.3,2.1
								c0.7,0,1.3-0.2,1.9-0.6l0.8,1.4c-0.8,0.6-1.9,0.9-2.9,0.9C92.8,31.2,90.9,29.6,90.9,26.8z M96.5,26c0-1.1-0.5-1.9-1.6-1.9
								c-0.9,0-1.7,0.6-1.8,1.9H96.5z"/>
							<path class="st2" d="M99.6,28.7c0-1.8,1.5-2.7,4.8-3.1c0-0.8-0.4-1.5-1.4-1.5c-0.8,0-1.5,0.3-2.3,0.8l-0.8-1.5
								c1-0.6,2.2-1.1,3.5-1.1c2.1,0,3.2,1.3,3.2,3.7V31h-1.8l-0.2-0.9h0c-0.7,0.6-1.6,1.1-2.5,1.1C100.5,31.2,99.6,30.1,99.6,28.7z
								 M104.4,28.7V27c-2,0.3-2.7,0.8-2.7,1.6c0,0.7,0.5,0.9,1.1,0.9C103.4,29.5,103.9,29.2,104.4,28.7z"/>
							<path class="st2" d="M108,30l1-1.4c0.8,0.6,1.5,0.9,2.2,0.9c0.8,0,1.2-0.4,1.2-0.9c0-0.6-0.9-0.9-1.8-1.3
								c-1.1-0.4-2.3-1-2.3-2.4c0-1.5,1.2-2.6,3.1-2.6c1.2,0,2.2,0.5,2.9,1l-1,1.3c-0.6-0.4-1.2-0.7-1.8-0.7c-0.8,0-1.1,0.3-1.1,0.8
								c0,0.6,0.8,0.8,1.7,1.2c1.1,0.4,2.3,1,2.3,2.5c0,1.5-1.2,2.7-3.3,2.7C110.1,31.2,108.9,30.7,108,30z"/>
							<path class="st2" d="M115.7,26.8c0-2.7,1.9-4.4,3.9-4.4c2.3,0,3.5,1.7,3.5,4c0,0.4,0,0.8-0.1,1h-5.2c0.2,1.4,1.1,2.1,2.3,2.1
								c0.7,0,1.3-0.2,1.9-0.6l0.8,1.4c-0.8,0.6-1.9,0.9-2.9,0.9C117.6,31.2,115.7,29.6,115.7,26.8z M121.3,26
								c0-1.1-0.5-1.9-1.6-1.9c-0.9,0-1.7,0.6-1.8,1.9H121.3z"/>
						</g>
					</g>
				</g>
			</g>
		</g>
	</g>
</g>
</svg>
