<?xml version="1.0" encoding="utf-8"?>
<!-- Generator: Adobe Illustrator 23.0.1, SVG Export Plug-In . SVG Version: 6.00 Build 0)  -->
<svg version="1.1" id="Layer_1" xmlns="http://www.w3.org/2000/svg" xmlns:xlink="http://www.w3.org/1999/xlink" x="0px" y="0px"
	 viewBox="0 0 334 1012" style="enable-background:new 0 0 334 1012;" xml:space="preserve">
<style type="text/css">
	.st0{fill-rule:evenodd;clip-rule:evenodd;}
	.st1{enable-background:new    ;}
	.st2{fill:#FFFFFF;}
	.st3{fill-rule:evenodd;clip-rule:evenodd;fill:#B54142;fill-opacity:0.8;stroke:#B54142;stroke-width:1.5;}
</style>
<title>pipeline_img1_mobile</title>
<desc>Created with Sketch.</desc>
<g id="Page-1">
	<g id="mobile1" transform="translate(-20.000000, -3707.000000)">
		<g id="pipeline_img1_mobile" transform="translate(20.000000, 3707.000000)">
			<g id="table1">
				<g id="cell1">
					<g>
						<path id="bg" class="st0" d="M8,0h318c4.4,0,8,3.6,8,8v34c0,4.4-3.6,8-8,8H8c-4.4,0-8-3.6-8-8V8C0,3.6,3.6,0,8,0z"/>
						<g class="st1">
							<path class="st2" d="M142.4,19.9h3.6c2.5,0,4.3,0.9,4.3,3.5c0,2.5-1.9,3.7-4.3,3.7h-1.5V31h-2.2V19.9z M145.9,25.3
								c1.5,0,2.3-0.6,2.3-1.9c0-1.3-0.8-1.7-2.3-1.7h-1.3v3.6H145.9z"/>
							<path class="st2" d="M152.2,22.6h1.8l0.1,1.5h0.1c0.6-1.1,1.5-1.7,2.4-1.7c0.5,0,0.7,0.1,1,0.2l-0.4,1.9
								c-0.3-0.1-0.5-0.1-0.9-0.1c-0.7,0-1.5,0.4-1.9,1.7v5h-2.2V22.6z"/>
							<path class="st2" d="M158,26.8c0-2.8,1.9-4.4,4-4.4s4,1.6,4,4.4c0,2.8-1.9,4.4-4,4.4S158,29.6,158,26.8z M163.8,26.8
								c0-1.6-0.6-2.6-1.8-2.6s-1.8,1-1.8,2.6c0,1.6,0.6,2.6,1.8,2.6S163.8,28.4,163.8,26.8z"/>
							<path class="st2" d="M165.9,34.2l0.4-1.6c0.2,0.1,0.4,0.1,0.7,0.1c0.7,0,0.9-0.5,0.9-1.4v-8.7h2.2v8.6c0,1.8-0.7,3.2-2.8,3.2
								C166.7,34.4,166.3,34.3,165.9,34.2z M167.7,20.1c0-0.7,0.6-1.2,1.3-1.2c0.8,0,1.3,0.5,1.3,1.2c0,0.7-0.6,1.2-1.3,1.2
								C168.3,21.2,167.7,20.7,167.7,20.1z"/>
							<path class="st2" d="M172,26.8c0-2.7,1.9-4.4,3.9-4.4c2.3,0,3.5,1.7,3.5,4c0,0.4,0,0.8-0.1,1h-5.2c0.2,1.4,1.1,2.1,2.3,2.1
								c0.7,0,1.3-0.2,1.9-0.6l0.8,1.4c-0.8,0.6-1.9,0.9-2.9,0.9C173.8,31.2,172,29.6,172,26.8z M177.5,26c0-1.1-0.5-1.9-1.6-1.9
								c-0.9,0-1.7,0.6-1.8,1.9H177.5z"/>
							<path class="st2" d="M180.7,26.8c0-2.8,2-4.4,4.3-4.4c1,0,1.8,0.4,2.4,0.9l-1.1,1.4c-0.4-0.4-0.8-0.6-1.3-0.6
								c-1.3,0-2.1,1-2.1,2.6c0,1.6,0.9,2.6,2.1,2.6c0.6,0,1.2-0.3,1.6-0.7l0.9,1.5c-0.8,0.7-1.8,1-2.7,1
								C182.5,31.2,180.7,29.6,180.7,26.8z"/>
							<path class="st2" d="M189.3,28.1v-3.7h-1.2v-1.6l1.3-0.1l0.3-2.2h1.8v2.2h2.1v1.7h-2.1v3.7c0,1,0.4,1.4,1.1,1.4
								c0.3,0,0.6-0.1,0.8-0.2l0.4,1.6c-0.4,0.2-1,0.3-1.8,0.3C190,31.2,189.3,30,189.3,28.1z"/>
						</g>
					</g>
					<g transform="translate(0.000000, 102.000000)">
						<path class="st0" d="M8,0h318c4.4,0,8,3.6,8,8v34c0,4.4-3.6,8-8,8H8c-4.4,0-8-3.6-8-8V8C0,3.6,3.6,0,8,0z"/>
						<g class="st1">
							<path class="st2" d="M117.6,21.7h-3.1v-1.8h8.5v1.8h-3.1V31h-2.2V21.7z"/>
							<path class="st2" d="M123,28.7c0-1.8,1.5-2.7,4.8-3.1c0-0.8-0.4-1.5-1.4-1.5c-0.8,0-1.5,0.3-2.3,0.8l-0.8-1.5
								c1-0.6,2.2-1.1,3.5-1.1c2.1,0,3.2,1.3,3.2,3.7V31h-1.8l-0.2-0.9h0c-0.7,0.6-1.6,1.1-2.5,1.1C124,31.2,123,30.1,123,28.7z
								 M127.8,28.7V27c-2,0.3-2.7,0.8-2.7,1.6c0,0.7,0.5,0.9,1.1,0.9C126.9,29.5,127.3,29.2,127.8,28.7z"/>
							<path class="st2" d="M132.3,22.6h1.8l0.1,1.5h0.1c0.6-1.1,1.5-1.7,2.4-1.7c0.5,0,0.7,0.1,1,0.2l-0.4,1.9
								c-0.3-0.1-0.5-0.1-0.9-0.1c-0.7,0-1.5,0.4-1.9,1.7v5h-2.2V22.6z"/>
							<path class="st2" d="M138.1,32.5c0-0.7,0.4-1.3,1.2-1.7v-0.1c-0.4-0.3-0.8-0.7-0.8-1.4c0-0.6,0.4-1.2,0.9-1.6v-0.1
								c-0.6-0.4-1.1-1.2-1.1-2.2c0-2,1.6-3,3.4-3c0.5,0,0.9,0.1,1.3,0.2h3v1.6h-1.4c0.2,0.3,0.4,0.8,0.4,1.3c0,1.9-1.4,2.8-3.2,2.8
								c-0.3,0-0.7-0.1-1.1-0.2c-0.2,0.2-0.4,0.4-0.4,0.7c0,0.5,0.3,0.7,1.3,0.7h1.4c2,0,3.1,0.6,3.1,2.1c0,1.7-1.8,3-4.6,3
								C139.6,34.6,138.1,34,138.1,32.5z M144.1,32c0-0.6-0.5-0.8-1.4-0.8h-1c-0.5,0-0.9,0-1.2-0.1c-0.4,0.3-0.6,0.6-0.6,1
								c0,0.7,0.8,1.1,2,1.1C143.2,33.2,144.1,32.7,144.1,32z M143.1,25.4c0-1-0.6-1.5-1.3-1.5s-1.3,0.6-1.3,1.5
								c0,1,0.6,1.5,1.3,1.5S143.1,26.4,143.1,25.4z"/>
							<path class="st2" d="M146.8,26.8c0-2.7,1.9-4.4,3.9-4.4c2.3,0,3.5,1.7,3.5,4c0,0.4,0,0.8-0.1,1h-5.2c0.2,1.4,1.1,2.1,2.3,2.1
								c0.7,0,1.3-0.2,1.9-0.6l0.8,1.4c-0.8,0.6-1.9,0.9-2.9,0.9C148.6,31.2,146.8,29.6,146.8,26.8z M152.3,26
								c0-1.1-0.5-1.9-1.6-1.9c-0.9,0-1.7,0.6-1.8,1.9H152.3z"/>
							<path class="st2" d="M156.2,28.1v-3.7H155v-1.6l1.3-0.1l0.3-2.2h1.8v2.2h2.1v1.7h-2.1v3.7c0,1,0.4,1.4,1.1,1.4
								c0.3,0,0.6-0.1,0.8-0.2l0.4,1.6c-0.5,0.2-1,0.3-1.8,0.3C156.9,31.2,156.2,30,156.2,28.1z"/>
							<path class="st2" d="M165.7,19.9h3c3.4,0,5.5,1.8,5.5,5.5c0,3.7-2.1,5.6-5.4,5.6h-3.2V19.9z M168.7,29.2
								c2.1,0,3.4-1.1,3.4-3.8c0-2.7-1.3-3.7-3.4-3.7H168v7.5H168.7z"/>
							<path class="st2" d="M176.1,20.1c0-0.7,0.6-1.2,1.3-1.2c0.8,0,1.3,0.5,1.3,1.2c0,0.7-0.6,1.2-1.3,1.2
								C176.6,21.2,176.1,20.7,176.1,20.1z M176.3,22.6h2.2V31h-2.2V22.6z"/>
							<path class="st2" d="M180,30l1-1.4c0.8,0.6,1.5,0.9,2.2,0.9c0.8,0,1.2-0.4,1.2-0.9c0-0.6-0.9-0.9-1.8-1.3
								c-1.1-0.4-2.3-1-2.3-2.4c0-1.5,1.2-2.6,3.1-2.6c1.2,0,2.2,0.5,2.9,1l-1,1.3c-0.6-0.4-1.2-0.7-1.8-0.7c-0.8,0-1.1,0.3-1.1,0.8
								c0,0.6,0.8,0.8,1.7,1.2c1.1,0.4,2.3,1,2.3,2.5c0,1.5-1.2,2.7-3.3,2.7C182.1,31.2,180.9,30.7,180,30z"/>
							<path class="st2" d="M187.7,26.8c0-2.7,1.9-4.4,3.9-4.4c2.3,0,3.5,1.7,3.5,4c0,0.4,0,0.8-0.1,1h-5.2c0.2,1.4,1.1,2.1,2.3,2.1
								c0.7,0,1.3-0.2,1.9-0.6l0.8,1.4c-0.8,0.6-1.9,0.9-2.9,0.9C189.6,31.2,187.7,29.6,187.7,26.8z M193.3,26
								c0-1.1-0.5-1.9-1.6-1.9c-0.9,0-1.7,0.6-1.8,1.9H193.3z"/>
							<path class="st2" d="M196.3,28.7c0-1.8,1.5-2.7,4.8-3.1c0-0.8-0.4-1.5-1.4-1.5c-0.8,0-1.5,0.3-2.3,0.8l-0.8-1.5
								c1-0.6,2.2-1.1,3.5-1.1c2.1,0,3.2,1.3,3.2,3.7V31h-1.8l-0.2-0.9h0c-0.7,0.6-1.6,1.1-2.5,1.1
								C197.3,31.2,196.3,30.1,196.3,28.7z M201.2,28.7V27c-2,0.3-2.7,0.8-2.7,1.6c0,0.7,0.5,0.9,1.1,0.9
								C200.2,29.5,200.7,29.2,201.2,28.7z"/>
							<path class="st2" d="M204.8,30l1-1.4c0.8,0.6,1.5,0.9,2.2,0.9c0.8,0,1.2-0.4,1.2-0.9c0-0.6-0.9-0.9-1.8-1.3
								c-1.1-0.4-2.3-1-2.3-2.4c0-1.5,1.2-2.6,3.1-2.6c1.2,0,2.2,0.5,2.9,1l-1,1.3c-0.6-0.4-1.2-0.7-1.8-0.7c-0.8,0-1.1,0.3-1.1,0.8
								c0,0.6,0.8,0.8,1.7,1.2c1.1,0.4,2.3,1,2.3,2.5c0,1.5-1.2,2.7-3.3,2.7C206.9,31.2,205.7,30.7,204.8,30z"/>
							<path class="st2" d="M212.5,26.8c0-2.7,1.9-4.4,3.9-4.4c2.3,0,3.5,1.7,3.5,4c0,0.4,0,0.8-0.1,1h-5.2c0.2,1.4,1.1,2.1,2.3,2.1
								c0.7,0,1.3-0.2,1.9-0.6l0.8,1.4c-0.8,0.6-1.9,0.9-2.9,0.9C214.4,31.2,212.5,29.6,212.5,26.8z M218.1,26
								c0-1.1-0.5-1.9-1.6-1.9c-0.9,0-1.7,0.6-1.8,1.9H218.1z"/>
						</g>
					</g>
					<g class="st1">
						<path d="M121.8,178.4c0-3.6,2-5.7,4.8-5.7s4.8,2.1,4.8,5.7s-2,5.8-4.8,5.8S121.8,182,121.8,178.4z M129.6,178.4
							c0-2.6-1.2-4.2-3-4.2s-3,1.6-3,4.2c0,2.6,1.2,4.2,3,4.2S129.6,181,129.6,178.4z"/>
						<path d="M132.7,183.1l0.8-1.1c0.7,0.6,1.5,0.9,2.3,0.9c1,0,1.5-0.5,1.5-1.1c0-0.8-0.9-1.1-1.8-1.4c-1.1-0.4-2.4-1-2.4-2.4
							c0-1.4,1.1-2.4,2.9-2.4c1.1,0,2,0.5,2.7,1l-0.8,1.1c-0.6-0.4-1.2-0.7-1.8-0.7c-0.9,0-1.3,0.5-1.3,1c0,0.7,0.9,1,1.8,1.3
							c1.2,0.4,2.4,0.9,2.4,2.5c0,1.4-1.1,2.5-3.1,2.5C134.7,184.2,133.5,183.7,132.7,183.1z"/>
						<path d="M140.7,181.3v-4.2h-1.2v-1.3l1.3-0.1l0.2-2.3h1.5v2.3h2.1v1.4h-2.1v4.2c0,1,0.3,1.5,1.2,1.5c0.3,0,0.6-0.1,0.9-0.2
							l0.3,1.3c-0.5,0.2-1,0.3-1.6,0.3C141.4,184.2,140.7,183,140.7,181.3z"/>
						<path d="M145.5,179.9c0-2.7,1.8-4.4,3.8-4.4c2.2,0,3.4,1.6,3.4,3.9c0,0.3,0,0.7-0.1,0.9h-5.4c0.1,1.6,1.1,2.5,2.5,2.5
							c0.7,0,1.4-0.2,2-0.6l0.6,1.1c-0.8,0.5-1.7,0.9-2.8,0.9C147.3,184.2,145.5,182.6,145.5,179.9z M151.2,179.1
							c0-1.4-0.6-2.2-1.8-2.2c-1,0-1.9,0.8-2.1,2.2H151.2z"/>
						<path d="M154,179.9c0-2.8,1.8-4.4,3.9-4.4c2,0,3.9,1.6,3.9,4.4c0,2.7-1.8,4.3-3.9,4.3C155.9,184.2,154,182.6,154,179.9z
							 M160,179.9c0-1.8-0.8-2.9-2.1-2.9c-1.3,0-2.1,1.2-2.1,2.9c0,1.7,0.8,2.9,2.1,2.9C159.2,182.8,160,181.6,160,179.9z"/>
						<path d="M163.1,181.8c0-1.8,1.5-2.7,4.9-3.1c0-1-0.4-1.8-1.6-1.8c-0.9,0-1.7,0.4-2.4,0.8l-0.6-1.2c0.9-0.5,2-1.1,3.3-1.1
							c2.1,0,3,1.3,3,3.5v5h-1.4l-0.2-0.9h0c-0.7,0.6-1.6,1.1-2.6,1.1C164.1,184.2,163.1,183.3,163.1,181.8z M168,181.9v-2
							c-2.4,0.3-3.3,0.9-3.3,1.8c0,0.8,0.6,1.1,1.3,1.1C166.8,182.8,167.4,182.5,168,181.9z"/>
						<path d="M172.2,175.8h1.4l0.1,1.5h0c0.6-1.1,1.5-1.7,2.3-1.7c0.4,0,0.7,0.1,0.9,0.2l-0.3,1.5c-0.3-0.1-0.5-0.1-0.8-0.1
							c-0.7,0-1.5,0.5-2,1.8v5.1h-1.7V175.8z"/>
						<path d="M178.6,181.3v-4.2h-1.2v-1.3l1.3-0.1l0.2-2.3h1.5v2.3h2.1v1.4h-2.1v4.2c0,1,0.3,1.5,1.2,1.5c0.3,0,0.6-0.1,0.9-0.2
							l0.3,1.3c-0.5,0.2-1,0.3-1.6,0.3C179.3,184.2,178.6,183,178.6,181.3z"/>
						<path d="M184.3,172h1.7v3.2l-0.1,1.6c0.7-0.7,1.5-1.3,2.7-1.3c1.8,0,2.5,1.2,2.5,3.3v5.2h-1.7v-5c0-1.4-0.4-2-1.4-2
							c-0.8,0-1.3,0.4-2,1.1v5.8h-1.7V172z"/>
						<path d="M193.4,173.2c0-0.6,0.5-1,1.1-1s1.1,0.4,1.1,1c0,0.6-0.5,1-1.1,1S193.4,173.8,193.4,173.2z M193.6,175.8h1.7v8.2h-1.7
							V175.8z"/>
						<path d="M198.2,181.3v-4.2H197v-1.3l1.3-0.1l0.2-2.3h1.5v2.3h2.1v1.4h-2.1v4.2c0,1,0.3,1.5,1.2,1.5c0.3,0,0.6-0.1,0.9-0.2
							l0.3,1.3c-0.5,0.2-1,0.3-1.6,0.3C198.8,184.2,198.2,183,198.2,181.3z"/>
						<path d="M203.6,173.2c0-0.6,0.5-1,1.1-1s1.1,0.4,1.1,1c0,0.6-0.5,1-1.1,1S203.6,173.8,203.6,173.2z M203.8,175.8h1.7v8.2h-1.7
							V175.8z"/>
						<path d="M207.3,183.1l0.8-1.1c0.7,0.6,1.5,0.9,2.3,0.9c1,0,1.5-0.5,1.5-1.1c0-0.8-0.9-1.1-1.8-1.4c-1.1-0.4-2.4-1-2.4-2.4
							c0-1.4,1.1-2.4,2.9-2.4c1.1,0,2,0.5,2.7,1l-0.8,1.1c-0.6-0.4-1.2-0.7-1.8-0.7c-0.9,0-1.3,0.5-1.3,1c0,0.7,0.9,1,1.8,1.3
							c1.2,0.4,2.4,0.9,2.4,2.5c0,1.4-1.1,2.5-3.1,2.5C209.2,184.2,208.1,183.7,207.3,183.1z"/>
					</g>
					<g class="st1">
						<path d="M145.2,70.9h3.6c2.5,0,4.3,0.9,4.3,3.5c0,2.5-1.9,3.7-4.3,3.7h-1.5V82h-2.2V70.9z M148.8,76.3c1.5,0,2.3-0.6,2.3-1.9
							c0-1.3-0.8-1.7-2.3-1.7h-1.3v3.6H148.8z"/>
						<path d="M154.7,76.5c0-3.7,2.4-5.8,5.3-5.8c1.6,0,2.7,0.7,3.4,1.4l-1.2,1.4c-0.5-0.5-1.2-0.9-2.2-0.9c-1.8,0-3.1,1.4-3.1,3.8
							c0,2.4,1.1,3.9,3.3,3.9c0.5,0,1.1-0.2,1.4-0.4v-2.2h-2v-1.8h3.9v5c-0.7,0.7-2.1,1.3-3.6,1.3C157,82.2,154.7,80.2,154.7,76.5z"
							/>
						<path d="M165.3,80.7c3-2.7,4.8-4.8,4.8-6.5c0-1.1-0.6-1.8-1.7-1.8c-0.8,0-1.5,0.5-2,1.1l-1.2-1.2c1-1.1,2-1.7,3.5-1.7
							c2.1,0,3.5,1.3,3.5,3.4c0,2-1.7,4.2-3.7,6.1c0.6-0.1,1.3-0.1,1.8-0.1h2.4V82h-7.4V80.7z"/>
						<path d="M174.1,76.4c0-3.8,1.5-5.7,3.8-5.7c2.2,0,3.8,1.9,3.8,5.7s-1.5,5.8-3.8,5.8C175.6,82.2,174.1,80.2,174.1,76.4z
							 M179.6,76.4c0-3.1-0.7-4-1.7-4c-1,0-1.7,0.9-1.7,4c0,3.1,0.7,4.1,1.7,4.1C178.8,80.5,179.6,79.5,179.6,76.4z"/>
						<path d="M183.5,80.2h2.4v-7h-2v-1.4c1.1-0.2,1.9-0.5,2.6-0.9h1.6v9.3h2.1V82h-6.7V80.2z"/>
					</g>
					<g transform="translate(0.000000, 204.000000)">
						<path class="st3" d="M8.8,0.8h316.5c4.4,0,8,3.6,8,8v82.5c0,4.4-3.6,8-8,8H8.8c-4.4,0-8-3.6-8-8V8.8C0.8,4.3,4.3,0.8,8.8,0.8z
							"/>
						<g class="st1">
							<path class="st2" d="M109.4,27.9h2.5l1.9,5.2c0.2,0.7,0.4,1.4,0.7,2.1h0.1c0.2-0.7,0.4-1.5,0.7-2.1l1.8-5.2h2.5V39h-2v-4.6
								c0-1,0.2-2.6,0.3-3.6h-0.1l-0.9,2.6L115,38h-1.3l-1.7-4.7l-0.9-2.6h-0.1c0.1,1,0.3,2.6,0.3,3.6V39h-2V27.9z"/>
							<path class="st2" d="M121.6,36.7c0-1.8,1.5-2.7,4.8-3.1c0-0.8-0.4-1.5-1.4-1.5c-0.8,0-1.5,0.3-2.3,0.8l-0.8-1.5
								c1-0.6,2.2-1.1,3.5-1.1c2.1,0,3.2,1.3,3.2,3.7V39h-1.8l-0.2-0.9h0c-0.7,0.6-1.6,1.1-2.5,1.1
								C122.6,39.2,121.6,38.1,121.6,36.7z M126.4,36.7V35c-2,0.3-2.7,0.8-2.7,1.6c0,0.7,0.5,0.9,1.1,0.9
								C125.4,37.5,125.9,37.2,126.4,36.7z"/>
							<path class="st2" d="M130.9,30.6h1.8l0.1,1.5h0.1c0.6-1.1,1.5-1.7,2.4-1.7c0.5,0,0.7,0.1,1,0.2l-0.4,1.9
								c-0.3-0.1-0.5-0.1-0.9-0.1c-0.7,0-1.5,0.4-1.9,1.7v5h-2.2V30.6z"/>
							<path class="st2" d="M137.4,27h2.1v7.2h0.1l2.9-3.6h2.4L142,34l3.2,5h-2.4l-2-3.5l-1.2,1.4V39h-2.1V27z"/>
							<path class="st2" d="M145.5,34.8c0-2.7,1.9-4.4,3.9-4.4c2.3,0,3.5,1.7,3.5,4c0,0.4,0,0.8-0.1,1h-5.2c0.2,1.4,1.1,2.1,2.3,2.1
								c0.7,0,1.3-0.2,1.9-0.6l0.8,1.4c-0.8,0.6-1.9,0.9-2.9,0.9C147.3,39.2,145.5,37.6,145.5,34.8z M151,34c0-1.1-0.5-1.9-1.6-1.9
								c-0.9,0-1.7,0.6-1.8,1.9H151z"/>
							<path class="st2" d="M154.9,36.1v-3.7h-1.2v-1.6l1.3-0.1l0.3-2.2h1.8v2.2h2.1v1.7h-2.1v3.7c0,1,0.4,1.4,1.1,1.4
								c0.3,0,0.6-0.1,0.8-0.2l0.4,1.6c-0.5,0.2-1,0.3-1.8,0.3C155.7,39.2,154.9,38,154.9,36.1z"/>
							<path class="st2" d="M164.5,27.9h2.2v9.2h4.5V39h-6.7V27.9z"/>
							<path class="st2" d="M172.5,36.7c0-1.8,1.5-2.7,4.8-3.1c0-0.8-0.4-1.5-1.4-1.5c-0.8,0-1.5,0.3-2.3,0.8l-0.8-1.5
								c1-0.6,2.2-1.1,3.5-1.1c2.1,0,3.2,1.3,3.2,3.7V39h-1.8l-0.2-0.9h0c-0.7,0.6-1.6,1.1-2.5,1.1
								C173.5,39.2,172.5,38.1,172.5,36.7z M177.3,36.7V35c-2,0.3-2.7,0.8-2.7,1.6c0,0.7,0.5,0.9,1.1,0.9
								C176.4,37.5,176.8,37.2,177.3,36.7z"/>
							<path class="st2" d="M181.7,35.9v-5.2h2.2v5c0,1.3,0.4,1.8,1.2,1.8c0.7,0,1.1-0.3,1.7-1v-5.7h2.2V39h-1.8l-0.2-1.2H187
								c-0.7,0.9-1.5,1.4-2.7,1.4C182.5,39.2,181.7,38,181.7,35.9z"/>
							<path class="st2" d="M190.8,34.8c0-2.8,2-4.4,4.3-4.4c1,0,1.8,0.4,2.4,0.9l-1,1.4c-0.4-0.4-0.8-0.6-1.3-0.6
								c-1.3,0-2.1,1-2.1,2.6c0,1.6,0.9,2.6,2.1,2.6c0.6,0,1.2-0.3,1.6-0.7l0.9,1.5c-0.8,0.7-1.8,1-2.7,1
								C192.6,39.2,190.8,37.6,190.8,34.8z"/>
							<path class="st2" d="M199.3,27h2.2v3l-0.1,1.6c0.7-0.6,1.5-1.2,2.6-1.2c1.8,0,2.6,1.3,2.6,3.4V39h-2.2v-5
								c0-1.3-0.4-1.8-1.2-1.8c-0.7,0-1.1,0.3-1.8,0.9V39h-2.2V27z"/>
							<path class="st2" d="M208.3,34.8c0-2.7,1.9-4.4,3.9-4.4c2.3,0,3.5,1.7,3.5,4c0,0.4,0,0.8-0.1,1h-5.2c0.2,1.4,1.1,2.1,2.3,2.1
								c0.7,0,1.3-0.2,1.9-0.6l0.8,1.4c-0.8,0.6-1.9,0.9-2.9,0.9C210.2,39.2,208.3,37.6,208.3,34.8z M213.9,34
								c0-1.1-0.5-1.9-1.6-1.9c-0.9,0-1.7,0.6-1.8,1.9H213.9z"/>
							<path class="st2" d="M217.1,34.8c0-2.7,1.7-4.4,3.5-4.4c0.9,0,1.5,0.4,2.1,0.9l-0.1-1.3v-3h2.2v12h-1.8l-0.2-0.9h0
								c-0.6,0.6-1.5,1.1-2.3,1.1C218.4,39.2,217.1,37.6,217.1,34.8z M222.7,36.5v-3.7c-0.5-0.5-1-0.6-1.6-0.6
								c-0.9,0-1.7,0.9-1.7,2.6c0,1.7,0.6,2.6,1.7,2.6C221.7,37.4,222.2,37.2,222.7,36.5z"/>
						</g>
						<g id="text" transform="translate(59.000000, 56.000000)">
							<g>
								<g class="st1">
									<path class="st2" d="M1.5,5.9h2.2v9.2h4.5V17H1.5V5.9z"/>
									<path class="st2" d="M9.6,14.7c0-1.8,1.5-2.7,4.8-3.1c0-0.8-0.4-1.5-1.4-1.5c-0.8,0-1.5,0.3-2.3,0.8L9.9,9.5
										c1-0.6,2.2-1.1,3.5-1.1c2.1,0,3.2,1.3,3.2,3.7V17h-1.8l-0.2-0.9h0c-0.7,0.6-1.6,1.1-2.5,1.1C10.5,17.2,9.6,16.1,9.6,14.7z
										 M14.4,14.7V13c-2,0.3-2.7,0.8-2.7,1.6c0,0.7,0.5,0.9,1.1,0.9C13.4,15.5,13.9,15.2,14.4,14.7z"/>
									<path class="st2" d="M18.4,20.2l0.4-1.7c0.1,0,0.4,0.1,0.6,0.1c0.9,0,1.3-0.5,1.6-1.3l0.1-0.5l-3.3-8.2h2.2l1.3,3.9
										c0.3,0.8,0.5,1.6,0.7,2.4h0.1c0.2-0.8,0.4-1.6,0.6-2.4L24,8.6h2.1l-3,8.7c-0.7,2-1.6,3.1-3.5,3.1
										C19.1,20.4,18.8,20.3,18.4,20.2z"/>
									<path class="st2" d="M27.5,14.6V5h2.2v9.7c0,0.5,0.2,0.7,0.4,0.7c0.1,0,0.1,0,0.3,0l0.3,1.6c-0.3,0.1-0.6,0.2-1.1,0.2
										C28,17.2,27.5,16.2,27.5,14.6z"/>
									<path class="st2" d="M31.8,14.7c0-1.8,1.5-2.7,4.8-3.1c0-0.8-0.4-1.5-1.4-1.5c-0.8,0-1.5,0.3-2.3,0.8l-0.8-1.5
										c1-0.6,2.2-1.1,3.5-1.1c2.1,0,3.2,1.3,3.2,3.7V17H37l-0.2-0.9h0c-0.7,0.6-1.6,1.1-2.5,1.1C32.7,17.2,31.8,16.1,31.8,14.7z
										 M36.6,14.7V13c-2,0.3-2.7,0.8-2.7,1.6c0,0.7,0.5,0.9,1.1,0.9C35.6,15.5,36.1,15.2,36.6,14.7z"/>
								</g>
								<g class="st1">
									<path class="st2" d="M41.3,7.4v-2h-0.6V4.6l0.7-0.1l0.1-1.2h1v1.2h1.1v0.9h-1.1v2c0,0.5,0.2,0.8,0.6,0.8
										c0.1,0,0.3,0,0.4-0.1l0.2,0.9c-0.2,0.1-0.6,0.2-0.9,0.2C41.7,9.1,41.3,8.4,41.3,7.4z"/>
									<path class="st2" d="M44.5,4.5h1l0.1,0.6h0c0.4-0.4,0.8-0.7,1.4-0.7c0.6,0,1,0.3,1.2,0.8c0.4-0.4,0.8-0.8,1.4-0.8
										c1,0,1.4,0.7,1.4,1.8V9h-1.2V6.4c0-0.7-0.2-0.9-0.6-0.9c-0.3,0-0.5,0.2-0.9,0.5V9h-1.2V6.4c0-0.7-0.2-0.9-0.6-0.9
										c-0.3,0-0.5,0.2-0.9,0.5V9h-1.2V4.5z"/>
								</g>
							</g>
							<g class="st1">
								<path class="st2" d="M63.1,8.1h1.8v7.4h3.6V17h-5.4V8.1z"/>
								<path class="st2" d="M69.5,15.2c0-1.4,1.2-2.2,3.9-2.5c0-0.7-0.3-1.2-1.1-1.2c-0.6,0-1.2,0.3-1.8,0.6L69.8,11
									c0.8-0.5,1.8-0.9,2.8-0.9c1.7,0,2.6,1,2.6,3V17h-1.4l-0.1-0.7h0c-0.6,0.5-1.3,0.9-2,0.9C70.3,17.2,69.5,16.3,69.5,15.2z
									 M73.4,15.1v-1.4c-1.6,0.2-2.2,0.7-2.2,1.3c0,0.5,0.4,0.8,0.9,0.8C72.6,15.8,73,15.5,73.4,15.1z"/>
								<path class="st2" d="M76.9,14.5v-4.2h1.8v4c0,1,0.3,1.4,0.9,1.4c0.6,0,0.9-0.2,1.4-0.8v-4.5h1.8V17h-1.4l-0.1-1h0
									c-0.6,0.7-1.2,1.1-2.1,1.1C77.5,17.2,76.9,16.2,76.9,14.5z"/>
								<path class="st2" d="M84.6,10.3H86l0.1,0.9h0c0.6-0.6,1.3-1.1,2.2-1.1c1.5,0,2.1,1,2.1,2.7V17h-1.8v-4c0-1-0.3-1.4-0.9-1.4
									c-0.6,0-0.9,0.3-1.4,0.8V17h-1.8V10.3z"/>
								<path class="st2" d="M91.9,13.7c0-2.2,1.6-3.5,3.4-3.5c0.8,0,1.5,0.3,2,0.7L96.4,12c-0.3-0.3-0.6-0.4-1-0.4
									c-1,0-1.7,0.8-1.7,2.1c0,1.3,0.7,2.1,1.7,2.1c0.5,0,0.9-0.2,1.3-0.5l0.7,1.2c-0.6,0.6-1.5,0.8-2.2,0.8
									C93.3,17.2,91.9,15.9,91.9,13.7z"/>
								<path class="st2" d="M98.6,7.4h1.8v2.4l-0.1,1.3c0.5-0.5,1.2-1,2.1-1c1.5,0,2.1,1,2.1,2.7V17h-1.8v-4c0-1-0.3-1.4-0.9-1.4
									c-0.6,0-0.9,0.3-1.4,0.8V17h-1.8V7.4z"/>
								<path class="st2" d="M105.9,13.7c0-2.2,1.5-3.5,3.1-3.5c1.8,0,2.8,1.4,2.8,3.2c0,0.3,0,0.6-0.1,0.8h-4.1
									c0.1,1.1,0.9,1.7,1.9,1.7c0.6,0,1-0.2,1.5-0.5l0.6,1.1c-0.7,0.5-1.5,0.7-2.4,0.7C107.3,17.2,105.9,15.9,105.9,13.7z
									 M110.3,13c0-0.9-0.4-1.5-1.3-1.5c-0.7,0-1.3,0.5-1.5,1.5H110.3z"/>
								<path class="st2" d="M112.9,13.7c0-2.2,1.4-3.5,2.8-3.5c0.8,0,1.2,0.3,1.7,0.7l-0.1-1.1V7.4h1.8V17h-1.4l-0.1-0.7h0
									c-0.5,0.5-1.2,0.9-1.9,0.9C114,17.2,112.9,15.8,112.9,13.7z M117.3,15v-3c-0.4-0.4-0.8-0.5-1.2-0.5c-0.8,0-1.4,0.7-1.4,2.1
									c0,1.4,0.5,2.1,1.4,2.1C116.6,15.7,117,15.5,117.3,15z"/>
								<path class="st2" d="M123.6,8.2c0-0.6,0.4-1,1.1-1c0.6,0,1,0.4,1,1c0,0.6-0.4,1-1,1C124,9.2,123.6,8.8,123.6,8.2z
									 M123.7,10.3h1.8V17h-1.8V10.3z"/>
								<path class="st2" d="M127.4,10.3h1.4l0.1,0.9h0c0.6-0.6,1.3-1.1,2.2-1.1c1.5,0,2.1,1,2.1,2.7V17h-1.8v-4
									c0-1-0.3-1.4-0.9-1.4c-0.6,0-0.9,0.3-1.4,0.8V17h-1.8V10.3z"/>
								<path class="st2" d="M137.9,8.1h1.8V12h0l2.9-3.8h2l-2.7,3.5l3.2,5.4h-2l-2.3-4l-1.2,1.5V17h-1.8V8.1z"/>
								<path class="st2" d="M145.4,13.7c0-2.2,1.5-3.5,3.2-3.5s3.2,1.3,3.2,3.5c0,2.2-1.5,3.5-3.2,3.5S145.4,15.9,145.4,13.7z
									 M150.1,13.7c0-1.3-0.5-2.1-1.4-2.1s-1.4,0.8-1.4,2.1c0,1.3,0.5,2.1,1.4,2.1S150.1,14.9,150.1,13.7z"/>
								<path class="st2" d="M153.3,10.3h1.4l0.1,1.2h0c0.5-0.9,1.2-1.4,1.9-1.4c0.4,0,0.6,0.1,0.8,0.1l-0.3,1.5
									c-0.2-0.1-0.4-0.1-0.7-0.1c-0.5,0-1.2,0.3-1.5,1.3v4h-1.8V10.3z"/>
								<path class="st2" d="M158,13.7c0-2.2,1.5-3.5,3.1-3.5c1.8,0,2.8,1.4,2.8,3.2c0,0.3,0,0.6-0.1,0.8h-4.1
									c0.1,1.1,0.9,1.7,1.9,1.7c0.6,0,1-0.2,1.5-0.5l0.6,1.1c-0.7,0.5-1.5,0.7-2.4,0.7C159.5,17.2,158,15.9,158,13.7z M162.4,13
									c0-0.9-0.4-1.5-1.3-1.5c-0.7,0-1.3,0.5-1.5,1.5H162.4z"/>
								<path class="st2" d="M164.9,15.2c0-1.4,1.2-2.2,3.9-2.5c0-0.7-0.3-1.2-1.1-1.2c-0.6,0-1.2,0.3-1.8,0.6l-0.6-1.2
									c0.8-0.5,1.8-0.9,2.8-0.9c1.7,0,2.6,1,2.6,3V17h-1.4l-0.1-0.7h0c-0.6,0.5-1.3,0.9-2,0.9C165.7,17.2,164.9,16.3,164.9,15.2z
									 M168.8,15.1v-1.4c-1.6,0.2-2.2,0.7-2.2,1.3c0,0.5,0.4,0.8,0.9,0.8C168,15.8,168.3,15.5,168.8,15.1z"/>
								<path class="st2" d="M174.9,8.2c0-0.6,0.4-1,1.1-1c0.6,0,1,0.4,1,1c0,0.6-0.4,1-1,1C175.3,9.2,174.9,8.8,174.9,8.2z
									 M175,10.3h1.8V17H175V10.3z"/>
								<path class="st2" d="M178.7,10.3h1.4l0.1,0.9h0c0.6-0.6,1.3-1.1,2.2-1.1c1.5,0,2.1,1,2.1,2.7V17h-1.8v-4
									c0-1-0.3-1.4-0.9-1.4c-0.6,0-0.9,0.3-1.4,0.8V17h-1.8V10.3z"/>
								<path class="st2" d="M188.7,16c2.4-2.2,3.8-3.8,3.8-5.2c0-0.9-0.5-1.4-1.3-1.4c-0.6,0-1.2,0.4-1.6,0.9l-1-1
									c0.8-0.9,1.6-1.3,2.8-1.3c1.7,0,2.8,1.1,2.8,2.7c0,1.6-1.3,3.3-3,4.9c0.4,0,1-0.1,1.4-0.1h1.9V17h-5.9V16z"/>
								<path class="st2" d="M195.8,12.5c0-3.1,1.2-4.6,3-4.6c1.8,0,3,1.5,3,4.6s-1.2,4.6-3,4.6C197,17.2,195.8,15.6,195.8,12.5z
									 M200.1,12.5c0-2.5-0.6-3.2-1.3-3.2c-0.8,0-1.3,0.7-1.3,3.2c0,2.5,0.6,3.3,1.3,3.3C199.5,15.8,200.1,15,200.1,12.5z"/>
								<path class="st2" d="M203.3,15.6h1.9V10h-1.6V8.9c0.9-0.2,1.5-0.4,2.1-0.7h1.3v7.4h1.7V17h-5.3V15.6z"/>
								<path class="st2" d="M209.9,16c2.4-2.2,3.8-3.8,3.8-5.2c0-0.9-0.5-1.4-1.3-1.4c-0.6,0-1.2,0.4-1.6,0.9l-1-1
									c0.8-0.9,1.6-1.3,2.8-1.3c1.7,0,2.8,1.1,2.8,2.7c0,1.6-1.3,3.3-3,4.9c0.4,0,1-0.1,1.4-0.1h1.9V17h-5.9V16z"/>
							</g>
						</g>
					</g>
				</g>
			</g>
			<g transform="translate(0.000000, 354.000000)">
				<g>
					<g>
						<path class="st0" d="M8,0h318c4.4,0,8,3.6,8,8v34c0,4.4-3.6,8-8,8H8c-4.4,0-8-3.6-8-8V8C0,3.6,3.6,0,8,0z"/>
						<g class="st1">
							<path class="st2" d="M142.4,19.9h3.6c2.5,0,4.3,0.9,4.3,3.5c0,2.5-1.9,3.7-4.3,3.7h-1.5V31h-2.2V19.9z M145.9,25.3
								c1.5,0,2.3-0.6,2.3-1.9c0-1.3-0.8-1.7-2.3-1.7h-1.3v3.6H145.9z"/>
							<path class="st2" d="M152.2,22.6h1.8l0.1,1.5h0.1c0.6-1.1,1.5-1.7,2.4-1.7c0.5,0,0.7,0.1,1,0.2l-0.4,1.9
								c-0.3-0.1-0.5-0.1-0.9-0.1c-0.7,0-1.5,0.4-1.9,1.7v5h-2.2V22.6z"/>
							<path class="st2" d="M158,26.8c0-2.8,1.9-4.4,4-4.4s4,1.6,4,4.4c0,2.8-1.9,4.4-4,4.4S158,29.6,158,26.8z M163.8,26.8
								c0-1.6-0.6-2.6-1.8-2.6s-1.8,1-1.8,2.6c0,1.6,0.6,2.6,1.8,2.6S163.8,28.4,163.8,26.8z"/>
							<path class="st2" d="M165.9,34.2l0.4-1.6c0.2,0.1,0.4,0.1,0.7,0.1c0.7,0,0.9-0.5,0.9-1.4v-8.7h2.2v8.6c0,1.8-0.7,3.2-2.8,3.2
								C166.7,34.4,166.3,34.3,165.9,34.2z M167.7,20.1c0-0.7,0.6-1.2,1.3-1.2c0.8,0,1.3,0.5,1.3,1.2c0,0.7-0.6,1.2-1.3,1.2
								C168.3,21.2,167.7,20.7,167.7,20.1z"/>
							<path class="st2" d="M172,26.8c0-2.7,1.9-4.4,3.9-4.4c2.3,0,3.5,1.7,3.5,4c0,0.4,0,0.8-0.1,1h-5.2c0.2,1.4,1.1,2.1,2.3,2.1
								c0.7,0,1.3-0.2,1.9-0.6l0.8,1.4c-0.8,0.6-1.9,0.9-2.9,0.9C173.8,31.2,172,29.6,172,26.8z M177.5,26c0-1.1-0.5-1.9-1.6-1.9
								c-0.9,0-1.7,0.6-1.8,1.9H177.5z"/>
							<path class="st2" d="M180.7,26.8c0-2.8,2-4.4,4.3-4.4c1,0,1.8,0.4,2.4,0.9l-1.1,1.4c-0.4-0.4-0.8-0.6-1.3-0.6
								c-1.3,0-2.1,1-2.1,2.6c0,1.6,0.9,2.6,2.1,2.6c0.6,0,1.2-0.3,1.6-0.7l0.9,1.5c-0.8,0.7-1.8,1-2.7,1
								C182.5,31.2,180.7,29.6,180.7,26.8z"/>
							<path class="st2" d="M189.3,28.1v-3.7h-1.2v-1.6l1.3-0.1l0.3-2.2h1.8v2.2h2.1v1.7h-2.1v3.7c0,1,0.4,1.4,1.1,1.4
								c0.3,0,0.6-0.1,0.8-0.2l0.4,1.6c-0.4,0.2-1,0.3-1.8,0.3C190,31.2,189.3,30,189.3,28.1z"/>
						</g>
					</g>
					<g transform="translate(0.000000, 102.000000)">
						<path class="st0" d="M8,0h318c4.4,0,8,3.6,8,8v34c0,4.4-3.6,8-8,8H8c-4.4,0-8-3.6-8-8V8C0,3.6,3.6,0,8,0z"/>
						<g class="st1">
							<path class="st2" d="M117.6,21.7h-3.1v-1.8h8.5v1.8h-3.1V31h-2.2V21.7z"/>
							<path class="st2" d="M123,28.7c0-1.8,1.5-2.7,4.8-3.1c0-0.8-0.4-1.5-1.4-1.5c-0.8,0-1.5,0.3-2.3,0.8l-0.8-1.5
								c1-0.6,2.2-1.1,3.5-1.1c2.1,0,3.2,1.3,3.2,3.7V31h-1.8l-0.2-0.9h0c-0.7,0.6-1.6,1.1-2.5,1.1C124,31.2,123,30.1,123,28.7z
								 M127.8,28.7V27c-2,0.3-2.7,0.8-2.7,1.6c0,0.7,0.5,0.9,1.1,0.9C126.9,29.5,127.3,29.2,127.8,28.7z"/>
							<path class="st2" d="M132.3,22.6h1.8l0.1,1.5h0.1c0.6-1.1,1.5-1.7,2.4-1.7c0.5,0,0.7,0.1,1,0.2l-0.4,1.9
								c-0.3-0.1-0.5-0.1-0.9-0.1c-0.7,0-1.5,0.4-1.9,1.7v5h-2.2V22.6z"/>
							<path class="st2" d="M138.1,32.5c0-0.7,0.4-1.3,1.2-1.7v-0.1c-0.4-0.3-0.8-0.7-0.8-1.4c0-0.6,0.4-1.2,0.9-1.6v-0.1
								c-0.6-0.4-1.1-1.2-1.1-2.2c0-2,1.6-3,3.4-3c0.5,0,0.9,0.1,1.3,0.2h3v1.6h-1.4c0.2,0.3,0.4,0.8,0.4,1.3c0,1.9-1.4,2.8-3.2,2.8
								c-0.3,0-0.7-0.1-1.1-0.2c-0.2,0.2-0.4,0.4-0.4,0.7c0,0.5,0.3,0.7,1.3,0.7h1.4c2,0,3.1,0.6,3.1,2.1c0,1.7-1.8,3-4.6,3
								C139.6,34.6,138.1,34,138.1,32.5z M144.1,32c0-0.6-0.5-0.8-1.4-0.8h-1c-0.5,0-0.9,0-1.2-0.1c-0.4,0.3-0.6,0.6-0.6,1
								c0,0.7,0.8,1.1,2,1.1C143.2,33.2,144.1,32.7,144.1,32z M143.1,25.4c0-1-0.6-1.5-1.3-1.5s-1.3,0.6-1.3,1.5
								c0,1,0.6,1.5,1.3,1.5S143.1,26.4,143.1,25.4z"/>
							<path class="st2" d="M146.8,26.8c0-2.7,1.9-4.4,3.9-4.4c2.3,0,3.5,1.7,3.5,4c0,0.4,0,0.8-0.1,1h-5.2c0.2,1.4,1.1,2.1,2.3,2.1
								c0.7,0,1.3-0.2,1.9-0.6l0.8,1.4c-0.8,0.6-1.9,0.9-2.9,0.9C148.6,31.2,146.8,29.6,146.8,26.8z M152.3,26
								c0-1.1-0.5-1.9-1.6-1.9c-0.9,0-1.7,0.6-1.8,1.9H152.3z"/>
							<path class="st2" d="M156.2,28.1v-3.7H155v-1.6l1.3-0.1l0.3-2.2h1.8v2.2h2.1v1.7h-2.1v3.7c0,1,0.4,1.4,1.1,1.4
								c0.3,0,0.6-0.1,0.8-0.2l0.4,1.6c-0.5,0.2-1,0.3-1.8,0.3C156.9,31.2,156.2,30,156.2,28.1z"/>
							<path class="st2" d="M165.7,19.9h3c3.4,0,5.5,1.8,5.5,5.5c0,3.7-2.1,5.6-5.4,5.6h-3.2V19.9z M168.7,29.2
								c2.1,0,3.4-1.1,3.4-3.8c0-2.7-1.3-3.7-3.4-3.7H168v7.5H168.7z"/>
							<path class="st2" d="M176.1,20.1c0-0.7,0.6-1.2,1.3-1.2c0.8,0,1.3,0.5,1.3,1.2c0,0.7-0.6,1.2-1.3,1.2
								C176.6,21.2,176.1,20.7,176.1,20.1z M176.3,22.6h2.2V31h-2.2V22.6z"/>
							<path class="st2" d="M180,30l1-1.4c0.8,0.6,1.5,0.9,2.2,0.9c0.8,0,1.2-0.4,1.2-0.9c0-0.6-0.9-0.9-1.8-1.3
								c-1.1-0.4-2.3-1-2.3-2.4c0-1.5,1.2-2.6,3.1-2.6c1.2,0,2.2,0.5,2.9,1l-1,1.3c-0.6-0.4-1.2-0.7-1.8-0.7c-0.8,0-1.1,0.3-1.1,0.8
								c0,0.6,0.8,0.8,1.7,1.2c1.1,0.4,2.3,1,2.3,2.5c0,1.5-1.2,2.7-3.3,2.7C182.1,31.2,180.9,30.7,180,30z"/>
							<path class="st2" d="M187.7,26.8c0-2.7,1.9-4.4,3.9-4.4c2.3,0,3.5,1.7,3.5,4c0,0.4,0,0.8-0.1,1h-5.2c0.2,1.4,1.1,2.1,2.3,2.1
								c0.7,0,1.3-0.2,1.9-0.6l0.8,1.4c-0.8,0.6-1.9,0.9-2.9,0.9C189.6,31.2,187.7,29.6,187.7,26.8z M193.3,26
								c0-1.1-0.5-1.9-1.6-1.9c-0.9,0-1.7,0.6-1.8,1.9H193.3z"/>
							<path class="st2" d="M196.3,28.7c0-1.8,1.5-2.7,4.8-3.1c0-0.8-0.4-1.5-1.4-1.5c-0.8,0-1.5,0.3-2.3,0.8l-0.8-1.5
								c1-0.6,2.2-1.1,3.5-1.1c2.1,0,3.2,1.3,3.2,3.7V31h-1.8l-0.2-0.9h0c-0.7,0.6-1.6,1.1-2.5,1.1
								C197.3,31.2,196.3,30.1,196.3,28.7z M201.2,28.7V27c-2,0.3-2.7,0.8-2.7,1.6c0,0.7,0.5,0.9,1.1,0.9
								C200.2,29.5,200.7,29.2,201.2,28.7z"/>
							<path class="st2" d="M204.8,30l1-1.4c0.8,0.6,1.5,0.9,2.2,0.9c0.8,0,1.2-0.4,1.2-0.9c0-0.6-0.9-0.9-1.8-1.3
								c-1.1-0.4-2.3-1-2.3-2.4c0-1.5,1.2-2.6,3.1-2.6c1.2,0,2.2,0.5,2.9,1l-1,1.3c-0.6-0.4-1.2-0.7-1.8-0.7c-0.8,0-1.1,0.3-1.1,0.8
								c0,0.6,0.8,0.8,1.7,1.2c1.1,0.4,2.3,1,2.3,2.5c0,1.5-1.2,2.7-3.3,2.7C206.9,31.2,205.7,30.7,204.8,30z"/>
							<path class="st2" d="M212.5,26.8c0-2.7,1.9-4.4,3.9-4.4c2.3,0,3.5,1.7,3.5,4c0,0.4,0,0.8-0.1,1h-5.2c0.2,1.4,1.1,2.1,2.3,2.1
								c0.7,0,1.3-0.2,1.9-0.6l0.8,1.4c-0.8,0.6-1.9,0.9-2.9,0.9C214.4,31.2,212.5,29.6,212.5,26.8z M218.1,26
								c0-1.1-0.5-1.9-1.6-1.9c-0.9,0-1.7,0.6-1.8,1.9H218.1z"/>
						</g>
					</g>
					<g class="st1">
						<path d="M98.8,173h3.3c2.5,0,4.2,0.8,4.2,3.3c0,2.4-1.8,3.5-4.2,3.5h-1.7v4.2h-1.7V173z M102,178.4c1.8,0,2.6-0.7,2.6-2.1
							s-0.9-1.9-2.7-1.9h-1.4v4.1H102z"/>
						<path d="M107.2,181.8c0-1.8,1.5-2.7,4.9-3.1c0-1-0.4-1.8-1.6-1.8c-0.9,0-1.7,0.4-2.4,0.8l-0.6-1.2c0.9-0.5,2-1.1,3.3-1.1
							c2.1,0,3,1.3,3,3.5v5h-1.4l-0.1-0.9h0c-0.8,0.6-1.6,1.1-2.6,1.1C108.2,184.2,107.2,183.3,107.2,181.8z M112.1,181.9v-2
							c-2.4,0.3-3.3,0.9-3.3,1.8c0,0.8,0.6,1.1,1.3,1.1C110.9,182.8,111.4,182.5,112.1,181.9z"/>
						<path d="M116.3,175.8h1.4l0.1,1.5h0c0.6-1.1,1.5-1.7,2.3-1.7c0.4,0,0.7,0.1,0.9,0.2l-0.3,1.5c-0.3-0.1-0.5-0.1-0.8-0.1
							c-0.7,0-1.5,0.5-2,1.8v5.1h-1.7V175.8z"/>
						<path d="M122.4,172h1.7v7.7h0l3.2-4h1.9l-2.8,3.3l3.1,4.9h-1.9l-2.2-3.7l-1.4,1.6v2.1h-1.7V172z"/>
						<path d="M130.8,173.2c0-0.6,0.5-1,1.1-1c0.6,0,1.1,0.4,1.1,1c0,0.6-0.5,1-1.1,1C131.3,174.2,130.8,173.8,130.8,173.2z
							 M131,175.8h1.7v8.2H131V175.8z"/>
						<path d="M135.4,175.8h1.4l0.1,1.1h0c0.8-0.7,1.6-1.4,2.7-1.4c1.8,0,2.5,1.2,2.5,3.3v5.2h-1.7v-5c0-1.4-0.4-2-1.4-2
							c-0.8,0-1.3,0.4-2,1.1v5.8h-1.7V175.8z"/>
						<path d="M143.8,183.1l0.8-1.1c0.7,0.6,1.5,0.9,2.3,0.9c1,0,1.5-0.5,1.5-1.1c0-0.8-0.9-1.1-1.8-1.4c-1.1-0.4-2.4-1-2.4-2.4
							c0-1.4,1.1-2.4,2.9-2.4c1.1,0,2,0.5,2.7,1l-0.8,1.1c-0.6-0.4-1.2-0.7-1.8-0.7c-0.9,0-1.3,0.5-1.3,1c0,0.7,0.9,1,1.8,1.3
							c1.2,0.4,2.4,0.9,2.4,2.5c0,1.4-1.1,2.5-3.1,2.5C145.8,184.2,144.6,183.7,143.8,183.1z"/>
						<path d="M151.3,179.9c0-2.8,1.8-4.4,3.9-4.4c2,0,3.9,1.6,3.9,4.4c0,2.7-1.8,4.3-3.9,4.3C153.2,184.2,151.3,182.6,151.3,179.9z
							 M157.3,179.9c0-1.8-0.8-2.9-2.1-2.9c-1.3,0-2.1,1.2-2.1,2.9c0,1.7,0.8,2.9,2.1,2.9C156.5,182.8,157.3,181.6,157.3,179.9z"/>
						<path d="M161.1,175.8h1.4l0.1,1.1h0c0.8-0.7,1.6-1.4,2.7-1.4c1.8,0,2.5,1.2,2.5,3.3v5.2h-1.7v-5c0-1.4-0.4-2-1.4-2
							c-0.8,0-1.3,0.4-2,1.1v5.8h-1.7V175.8z"/>
						<path d="M169.9,176.4c0.9-0.6,1.3-1.1,1.3-2.1c0,0-0.1,0-0.1,0c-0.5,0-1-0.4-1-1c0-0.7,0.4-1.1,1-1.1c0.8,0,1.2,0.6,1.2,1.7
							c0,1.4-0.7,2.5-2,3.2L169.9,176.4z"/>
						<path d="M173,183.1l0.8-1.1c0.7,0.6,1.5,0.9,2.3,0.9c1,0,1.5-0.5,1.5-1.1c0-0.8-0.9-1.1-1.8-1.4c-1.1-0.4-2.4-1-2.4-2.4
							c0-1.4,1.1-2.4,2.9-2.4c1.1,0,2,0.5,2.7,1l-0.8,1.1c-0.6-0.4-1.2-0.7-1.8-0.7c-0.9,0-1.3,0.5-1.3,1c0,0.7,0.9,1,1.8,1.3
							c1.2,0.4,2.4,0.9,2.4,2.5c0,1.4-1.1,2.5-3.1,2.5C175,184.2,173.8,183.7,173,183.1z"/>
						<path d="M184.6,173h2.9c3.4,0,5.3,1.9,5.3,5.5c0,3.6-1.9,5.6-5.2,5.6h-3V173z M187.3,182.6c2.4,0,3.6-1.4,3.6-4.1
							c0-2.8-1.3-4.1-3.6-4.1h-1v8.2H187.3z"/>
						<path d="M194.7,173.2c0-0.6,0.5-1,1.1-1c0.6,0,1.1,0.4,1.1,1c0,0.6-0.5,1-1.1,1C195.1,174.2,194.7,173.8,194.7,173.2z
							 M194.9,175.8h1.7v8.2h-1.7V175.8z"/>
						<path d="M198.4,183.1l0.8-1.1c0.7,0.6,1.5,0.9,2.3,0.9c1,0,1.5-0.5,1.5-1.1c0-0.8-0.9-1.1-1.8-1.4c-1.1-0.4-2.4-1-2.4-2.4
							c0-1.4,1.1-2.4,2.9-2.4c1.1,0,2,0.5,2.7,1l-0.8,1.1c-0.6-0.4-1.2-0.7-1.8-0.7c-0.9,0-1.3,0.5-1.3,1c0,0.7,0.9,1,1.8,1.3
							c1.2,0.4,2.4,0.9,2.4,2.5c0,1.4-1.1,2.5-3.1,2.5C200.3,184.2,199.1,183.7,198.4,183.1z"/>
						<path d="M205.8,179.9c0-2.7,1.8-4.4,3.8-4.4c2.2,0,3.4,1.6,3.4,3.9c0,0.3,0,0.7-0.1,0.9h-5.4c0.1,1.6,1.1,2.5,2.5,2.5
							c0.7,0,1.4-0.2,2-0.6l0.6,1.1c-0.8,0.5-1.7,0.9-2.8,0.9C207.6,184.2,205.8,182.6,205.8,179.9z M211.5,179.1
							c0-1.4-0.6-2.2-1.8-2.2c-1,0-1.9,0.8-2.1,2.2H211.5z"/>
						<path d="M214.2,181.8c0-1.8,1.5-2.7,4.9-3.1c0-1-0.4-1.8-1.6-1.8c-0.9,0-1.7,0.4-2.4,0.8l-0.6-1.2c0.9-0.5,2-1.1,3.3-1.1
							c2.1,0,3,1.3,3,3.5v5h-1.4l-0.2-0.9h0c-0.8,0.6-1.6,1.1-2.6,1.1C215.2,184.2,214.2,183.3,214.2,181.8z M219.1,181.9v-2
							c-2.4,0.3-3.3,0.9-3.3,1.8c0,0.8,0.6,1.1,1.3,1.1C217.9,182.8,218.5,182.5,219.1,181.9z"/>
						<path d="M222.4,183.1l0.8-1.1c0.7,0.6,1.5,0.9,2.3,0.9c1,0,1.5-0.5,1.5-1.1c0-0.8-0.9-1.1-1.8-1.4c-1.1-0.4-2.4-1-2.4-2.4
							c0-1.4,1.1-2.4,2.9-2.4c1.1,0,2,0.5,2.7,1l-0.8,1.1c-0.6-0.4-1.2-0.7-1.8-0.7c-0.9,0-1.3,0.5-1.3,1c0,0.7,0.9,1,1.8,1.3
							c1.2,0.4,2.4,0.9,2.4,2.5c0,1.4-1.1,2.5-3.1,2.5C224.4,184.2,223.2,183.7,222.4,183.1z"/>
						<path d="M229.9,179.9c0-2.7,1.8-4.4,3.8-4.4c2.2,0,3.4,1.6,3.4,3.9c0,0.3,0,0.7-0.1,0.9h-5.4c0.1,1.6,1.1,2.5,2.5,2.5
							c0.7,0,1.4-0.2,2-0.6l0.6,1.1c-0.8,0.5-1.7,0.9-2.8,0.9C231.7,184.2,229.9,182.6,229.9,179.9z M235.6,179.1
							c0-1.4-0.6-2.2-1.8-2.2c-1,0-2,0.8-2.1,2.2H235.6z"/>
					</g>
					<g class="st1">
						<path d="M145.2,70.9h2.2v4.4h4.2v-4.4h2.2V82h-2.2v-4.8h-4.2V82h-2.2V70.9z"/>
						<path d="M158.6,76.3l-2.9-5.4h2.5l1.1,2.3c0.3,0.5,0.5,1.1,0.8,1.8h0.1c0.3-0.7,0.5-1.2,0.7-1.8l1-2.3h2.3l-2.9,5.5l3.1,5.6
							H162l-1.2-2.5c-0.3-0.6-0.5-1.2-0.9-1.8h-0.1c-0.3,0.7-0.5,1.3-0.8,1.8l-1.2,2.5h-2.4L158.6,76.3z"/>
						<path d="M165.3,80.7c3-2.7,4.8-4.8,4.8-6.5c0-1.1-0.6-1.8-1.7-1.8c-0.8,0-1.5,0.5-2,1.1l-1.2-1.2c1-1.1,2-1.7,3.5-1.7
							c2.1,0,3.5,1.3,3.5,3.4c0,2-1.7,4.2-3.7,6.1c0.6-0.1,1.3-0.1,1.8-0.1h2.4V82h-7.4V80.7z"/>
						<path d="M174.1,76.4c0-3.8,1.5-5.7,3.8-5.7c2.2,0,3.8,1.9,3.8,5.7s-1.5,5.8-3.8,5.8C175.6,82.2,174.1,80.2,174.1,76.4z
							 M179.6,76.4c0-3.1-0.7-4-1.7-4c-1,0-1.7,0.9-1.7,4c0,3.1,0.7,4.1,1.7,4.1C178.8,80.5,179.6,79.5,179.6,76.4z"/>
						<path d="M182.7,80.7l1-1.4c0.7,0.6,1.5,1.1,2.5,1.1c1.1,0,1.9-0.6,1.9-1.5c0-1.1-0.6-1.8-3.1-1.8v-1.6c2,0,2.7-0.7,2.7-1.7
							c0-0.9-0.5-1.4-1.5-1.4c-0.8,0-1.4,0.4-2.1,1l-1.1-1.3c1-0.8,2-1.4,3.3-1.4c2.1,0,3.6,1,3.6,3c0,1.2-0.7,2.1-1.9,2.5v0.1
							c1.3,0.3,2.2,1.3,2.2,2.7c0,2-1.8,3.2-3.9,3.2C184.7,82.2,183.5,81.5,182.7,80.7z"/>
					</g>
					<g transform="translate(0.000000, 204.000000)">
						<path class="st3" d="M8.8,0.8h316.5c4.4,0,8,3.6,8,8v82.5c0,4.4-3.6,8-8,8H8.8c-4.4,0-8-3.6-8-8V8.8C0.8,4.3,4.3,0.8,8.8,0.8z
							"/>
						<g class="st1">
							<path class="st2" d="M126.4,44.9h3.6c2.5,0,4.3,0.9,4.3,3.5c0,2.5-1.9,3.7-4.3,3.7h-1.5V56h-2.2V44.9z M129.9,50.3
								c1.5,0,2.3-0.6,2.3-1.9c0-1.3-0.8-1.7-2.3-1.7h-1.3v3.6H129.9z"/>
							<path class="st2" d="M136.2,47.6h1.8l0.1,1.5h0.1c0.6-1.1,1.5-1.7,2.4-1.7c0.5,0,0.7,0.1,1,0.2l-0.4,1.9
								c-0.3-0.1-0.5-0.1-0.9-0.1c-0.7,0-1.5,0.4-1.9,1.7v5h-2.2V47.6z"/>
							<path class="st2" d="M142,51.8c0-2.7,1.9-4.4,3.9-4.4c2.3,0,3.5,1.7,3.5,4c0,0.4,0,0.8-0.1,1h-5.2c0.2,1.4,1.1,2.1,2.3,2.1
								c0.7,0,1.3-0.2,1.9-0.6l0.8,1.4c-0.8,0.6-1.9,0.9-2.9,0.9C143.9,56.2,142,54.6,142,51.8z M147.6,51c0-1.1-0.5-1.9-1.6-1.9
								c-0.9,0-1.7,0.6-1.8,1.9H147.6z"/>
							<path class="st2" d="M151,50.9h4.1v1.6H151V50.9z"/>
							<path class="st2" d="M156.6,50.5c0-3.7,2.4-5.8,5.2-5.8c1.4,0,2.5,0.7,3.3,1.4l-1.2,1.4c-0.6-0.5-1.2-0.9-2-0.9
								c-1.7,0-2.9,1.4-2.9,3.8c0,2.4,1.1,3.9,2.9,3.9c0.9,0,1.7-0.5,2.3-1.1l1.2,1.4c-0.9,1.1-2.1,1.6-3.5,1.6
								C158.9,56.2,156.6,54.2,156.6,50.5z"/>
							<path class="st2" d="M166.8,53.6V44h2.2v9.7c0,0.5,0.2,0.7,0.5,0.7c0.1,0,0.1,0,0.3,0l0.3,1.6c-0.3,0.1-0.6,0.2-1.1,0.2
								C167.4,56.2,166.8,55.2,166.8,53.6z"/>
							<path class="st2" d="M171.4,45.1c0-0.7,0.6-1.2,1.3-1.2c0.8,0,1.3,0.5,1.3,1.2c0,0.7-0.6,1.2-1.3,1.2
								C171.9,46.2,171.4,45.7,171.4,45.1z M171.6,47.6h2.2V56h-2.2V47.6z"/>
							<path class="st2" d="M176.1,47.6h1.8l0.2,1.1h0.1c0.7-0.7,1.6-1.3,2.7-1.3c1.8,0,2.6,1.3,2.6,3.4V56h-2.2v-5
								c0-1.3-0.4-1.8-1.2-1.8c-0.7,0-1.1,0.3-1.8,0.9V56h-2.2V47.6z"/>
							<path class="st2" d="M185.5,45.1c0-0.7,0.6-1.2,1.3-1.2c0.8,0,1.3,0.5,1.3,1.2c0,0.7-0.6,1.2-1.3,1.2
								C186.1,46.2,185.5,45.7,185.5,45.1z M185.7,47.6h2.2V56h-2.2V47.6z"/>
							<path class="st2" d="M189.8,51.8c0-2.8,2-4.4,4.3-4.4c1,0,1.8,0.4,2.4,0.9l-1,1.4c-0.4-0.4-0.8-0.6-1.3-0.6
								c-1.3,0-2.1,1-2.1,2.6c0,1.6,0.9,2.6,2.1,2.6c0.6,0,1.2-0.3,1.6-0.7l0.9,1.5c-0.8,0.7-1.8,1-2.7,1
								C191.6,56.2,189.8,54.6,189.8,51.8z"/>
							<path class="st2" d="M197.6,53.7c0-1.8,1.5-2.7,4.8-3.1c0-0.8-0.4-1.5-1.4-1.5c-0.8,0-1.5,0.3-2.3,0.8l-0.8-1.5
								c1-0.6,2.2-1.1,3.5-1.1c2.1,0,3.2,1.3,3.2,3.7V56h-1.8l-0.2-0.9h0c-0.7,0.6-1.6,1.1-2.5,1.1
								C198.6,56.2,197.6,55.1,197.6,53.7z M202.4,53.7V52c-2,0.3-2.7,0.8-2.7,1.6c0,0.7,0.5,0.9,1.1,0.9
								C201.5,54.5,201.9,54.2,202.4,53.7z"/>
							<path class="st2" d="M206.9,53.6V44h2.2v9.7c0,0.5,0.2,0.7,0.5,0.7c0.1,0,0.1,0,0.3,0l0.3,1.6c-0.3,0.1-0.6,0.2-1.1,0.2
								C207.4,56.2,206.9,55.2,206.9,53.6z"/>
						</g>
					</g>
				</g>
			</g>
			<g transform="translate(0.000000, 708.000000)">
				<g>
					<g>
						<path class="st0" d="M8,0h318c4.4,0,8,3.6,8,8v34c0,4.4-3.6,8-8,8H8c-4.4,0-8-3.6-8-8V8C0,3.6,3.6,0,8,0z"/>
						<g class="st1">
							<path class="st2" d="M142.4,19.9h3.6c2.5,0,4.3,0.9,4.3,3.5c0,2.5-1.9,3.7-4.3,3.7h-1.5V31h-2.2V19.9z M145.9,25.3
								c1.5,0,2.3-0.6,2.3-1.9c0-1.3-0.8-1.7-2.3-1.7h-1.3v3.6H145.9z"/>
							<path class="st2" d="M152.2,22.6h1.8l0.1,1.5h0.1c0.6-1.1,1.5-1.7,2.4-1.7c0.5,0,0.7,0.1,1,0.2l-0.4,1.9
								c-0.3-0.1-0.5-0.1-0.9-0.1c-0.7,0-1.5,0.4-1.9,1.7v5h-2.2V22.6z"/>
							<path class="st2" d="M158,26.8c0-2.8,1.9-4.4,4-4.4s4,1.6,4,4.4c0,2.8-1.9,4.4-4,4.4S158,29.6,158,26.8z M163.8,26.8
								c0-1.6-0.6-2.6-1.8-2.6s-1.8,1-1.8,2.6c0,1.6,0.6,2.6,1.8,2.6S163.8,28.4,163.8,26.8z"/>
							<path class="st2" d="M165.9,34.2l0.4-1.6c0.2,0.1,0.4,0.1,0.7,0.1c0.7,0,0.9-0.5,0.9-1.4v-8.7h2.2v8.6c0,1.8-0.7,3.2-2.8,3.2
								C166.7,34.4,166.3,34.3,165.9,34.2z M167.7,20.1c0-0.7,0.6-1.2,1.3-1.2c0.8,0,1.3,0.5,1.3,1.2c0,0.7-0.6,1.2-1.3,1.2
								C168.3,21.2,167.7,20.7,167.7,20.1z"/>
							<path class="st2" d="M172,26.8c0-2.7,1.9-4.4,3.9-4.4c2.3,0,3.5,1.7,3.5,4c0,0.4,0,0.8-0.1,1h-5.2c0.2,1.4,1.1,2.1,2.3,2.1
								c0.7,0,1.3-0.2,1.9-0.6l0.8,1.4c-0.8,0.6-1.9,0.9-2.9,0.9C173.8,31.2,172,29.6,172,26.8z M177.5,26c0-1.1-0.5-1.9-1.6-1.9
								c-0.9,0-1.7,0.6-1.8,1.9H177.5z"/>
							<path class="st2" d="M180.7,26.8c0-2.8,2-4.4,4.3-4.4c1,0,1.8,0.4,2.4,0.9l-1.1,1.4c-0.4-0.4-0.8-0.6-1.3-0.6
								c-1.3,0-2.1,1-2.1,2.6c0,1.6,0.9,2.6,2.1,2.6c0.6,0,1.2-0.3,1.6-0.7l0.9,1.5c-0.8,0.7-1.8,1-2.7,1
								C182.5,31.2,180.7,29.6,180.7,26.8z"/>
							<path class="st2" d="M189.3,28.1v-3.7h-1.2v-1.6l1.3-0.1l0.3-2.2h1.8v2.2h2.1v1.7h-2.1v3.7c0,1,0.4,1.4,1.1,1.4
								c0.3,0,0.6-0.1,0.8-0.2l0.4,1.6c-0.4,0.2-1,0.3-1.8,0.3C190,31.2,189.3,30,189.3,28.1z"/>
						</g>
					</g>
					<g transform="translate(0.000000, 102.000000)">
						<path class="st0" d="M8,0h318c4.4,0,8,3.6,8,8v34c0,4.4-3.6,8-8,8H8c-4.4,0-8-3.6-8-8V8C0,3.6,3.6,0,8,0z"/>
						<g class="st1">
							<path class="st2" d="M117.6,21.7h-3.1v-1.8h8.5v1.8h-3.1V31h-2.2V21.7z"/>
							<path class="st2" d="M123,28.7c0-1.8,1.5-2.7,4.8-3.1c0-0.8-0.4-1.5-1.4-1.5c-0.8,0-1.5,0.3-2.3,0.8l-0.8-1.5
								c1-0.6,2.2-1.1,3.5-1.1c2.1,0,3.2,1.3,3.2,3.7V31h-1.8l-0.2-0.9h0c-0.7,0.6-1.6,1.1-2.5,1.1C124,31.2,123,30.1,123,28.7z
								 M127.8,28.7V27c-2,0.3-2.7,0.8-2.7,1.6c0,0.7,0.5,0.9,1.1,0.9C126.9,29.5,127.3,29.2,127.8,28.7z"/>
							<path class="st2" d="M132.3,22.6h1.8l0.1,1.5h0.1c0.6-1.1,1.5-1.7,2.4-1.7c0.5,0,0.7,0.1,1,0.2l-0.4,1.9
								c-0.3-0.1-0.5-0.1-0.9-0.1c-0.7,0-1.5,0.4-1.9,1.7v5h-2.2V22.6z"/>
							<path class="st2" d="M138.1,32.5c0-0.7,0.4-1.3,1.2-1.7v-0.1c-0.4-0.3-0.8-0.7-0.8-1.4c0-0.6,0.4-1.2,0.9-1.6v-0.1
								c-0.6-0.4-1.1-1.2-1.1-2.2c0-2,1.6-3,3.4-3c0.5,0,0.9,0.1,1.3,0.2h3v1.6h-1.4c0.2,0.3,0.4,0.8,0.4,1.3c0,1.9-1.4,2.8-3.2,2.8
								c-0.3,0-0.7-0.1-1.1-0.2c-0.2,0.2-0.4,0.4-0.4,0.7c0,0.5,0.3,0.7,1.3,0.7h1.4c2,0,3.1,0.6,3.1,2.1c0,1.7-1.8,3-4.6,3
								C139.6,34.6,138.1,34,138.1,32.5z M144.1,32c0-0.6-0.5-0.8-1.4-0.8h-1c-0.5,0-0.9,0-1.2-0.1c-0.4,0.3-0.6,0.6-0.6,1
								c0,0.7,0.8,1.1,2,1.1C143.2,33.2,144.1,32.7,144.1,32z M143.1,25.4c0-1-0.6-1.5-1.3-1.5s-1.3,0.6-1.3,1.5
								c0,1,0.6,1.5,1.3,1.5S143.1,26.4,143.1,25.4z"/>
							<path class="st2" d="M146.8,26.8c0-2.7,1.9-4.4,3.9-4.4c2.3,0,3.5,1.7,3.5,4c0,0.4,0,0.8-0.1,1h-5.2c0.2,1.4,1.1,2.1,2.3,2.1
								c0.7,0,1.3-0.2,1.9-0.6l0.8,1.4c-0.8,0.6-1.9,0.9-2.9,0.9C148.6,31.2,146.8,29.6,146.8,26.8z M152.3,26
								c0-1.1-0.5-1.9-1.6-1.9c-0.9,0-1.7,0.6-1.8,1.9H152.3z"/>
							<path class="st2" d="M156.2,28.1v-3.7H155v-1.6l1.3-0.1l0.3-2.2h1.8v2.2h2.1v1.7h-2.1v3.7c0,1,0.4,1.4,1.1,1.4
								c0.3,0,0.6-0.1,0.8-0.2l0.4,1.6c-0.5,0.2-1,0.3-1.8,0.3C156.9,31.2,156.2,30,156.2,28.1z"/>
							<path class="st2" d="M165.7,19.9h3c3.4,0,5.5,1.8,5.5,5.5c0,3.7-2.1,5.6-5.4,5.6h-3.2V19.9z M168.7,29.2
								c2.1,0,3.4-1.1,3.4-3.8c0-2.7-1.3-3.7-3.4-3.7H168v7.5H168.7z"/>
							<path class="st2" d="M176.1,20.1c0-0.7,0.6-1.2,1.3-1.2c0.8,0,1.3,0.5,1.3,1.2c0,0.7-0.6,1.2-1.3,1.2
								C176.6,21.2,176.1,20.7,176.1,20.1z M176.3,22.6h2.2V31h-2.2V22.6z"/>
							<path class="st2" d="M180,30l1-1.4c0.8,0.6,1.5,0.9,2.2,0.9c0.8,0,1.2-0.4,1.2-0.9c0-0.6-0.9-0.9-1.8-1.3
								c-1.1-0.4-2.3-1-2.3-2.4c0-1.5,1.2-2.6,3.1-2.6c1.2,0,2.2,0.5,2.9,1l-1,1.3c-0.6-0.4-1.2-0.7-1.8-0.7c-0.8,0-1.1,0.3-1.1,0.8
								c0,0.6,0.8,0.8,1.7,1.2c1.1,0.4,2.3,1,2.3,2.5c0,1.5-1.2,2.7-3.3,2.7C182.1,31.2,180.9,30.7,180,30z"/>
							<path class="st2" d="M187.7,26.8c0-2.7,1.9-4.4,3.9-4.4c2.3,0,3.5,1.7,3.5,4c0,0.4,0,0.8-0.1,1h-5.2c0.2,1.4,1.1,2.1,2.3,2.1
								c0.7,0,1.3-0.2,1.9-0.6l0.8,1.4c-0.8,0.6-1.9,0.9-2.9,0.9C189.6,31.2,187.7,29.6,187.7,26.8z M193.3,26
								c0-1.1-0.5-1.9-1.6-1.9c-0.9,0-1.7,0.6-1.8,1.9H193.3z"/>
							<path class="st2" d="M196.3,28.7c0-1.8,1.5-2.7,4.8-3.1c0-0.8-0.4-1.5-1.4-1.5c-0.8,0-1.5,0.3-2.3,0.8l-0.8-1.5
								c1-0.6,2.2-1.1,3.5-1.1c2.1,0,3.2,1.3,3.2,3.7V31h-1.8l-0.2-0.9h0c-0.7,0.6-1.6,1.1-2.5,1.1
								C197.3,31.2,196.3,30.1,196.3,28.7z M201.2,28.7V27c-2,0.3-2.7,0.8-2.7,1.6c0,0.7,0.5,0.9,1.1,0.9
								C200.2,29.5,200.7,29.2,201.2,28.7z"/>
							<path class="st2" d="M204.8,30l1-1.4c0.8,0.6,1.5,0.9,2.2,0.9c0.8,0,1.2-0.4,1.2-0.9c0-0.6-0.9-0.9-1.8-1.3
								c-1.1-0.4-2.3-1-2.3-2.4c0-1.5,1.2-2.6,3.1-2.6c1.2,0,2.2,0.5,2.9,1l-1,1.3c-0.6-0.4-1.2-0.7-1.8-0.7c-0.8,0-1.1,0.3-1.1,0.8
								c0,0.6,0.8,0.8,1.7,1.2c1.1,0.4,2.3,1,2.3,2.5c0,1.5-1.2,2.7-3.3,2.7C206.9,31.2,205.7,30.7,204.8,30z"/>
							<path class="st2" d="M212.5,26.8c0-2.7,1.9-4.4,3.9-4.4c2.3,0,3.5,1.7,3.5,4c0,0.4,0,0.8-0.1,1h-5.2c0.2,1.4,1.1,2.1,2.3,2.1
								c0.7,0,1.3-0.2,1.9-0.6l0.8,1.4c-0.8,0.6-1.9,0.9-2.9,0.9C214.4,31.2,212.5,29.6,212.5,26.8z M218.1,26
								c0-1.1-0.5-1.9-1.6-1.9c-0.9,0-1.7,0.6-1.8,1.9H218.1z"/>
						</g>
					</g>
					<g class="st1">
						<path d="M66.9,173h1.7v11h-1.7V173z"/>
						<path d="M71.4,175.8h1.4l0.1,1.1h0c0.8-0.7,1.6-1.4,2.7-1.4c1.8,0,2.5,1.2,2.5,3.3v5.2h-1.7v-5c0-1.4-0.4-2-1.4-2
							c-0.8,0-1.3,0.4-2,1.1v5.8h-1.7V175.8z"/>
						<path d="M81,174.7c0-1.7,0.8-2.9,2.6-2.9c0.6,0,1.1,0.1,1.5,0.3l-0.3,1.3c-0.3-0.1-0.6-0.2-0.9-0.2c-0.7,0-1.1,0.5-1.1,1.5v1
							h1.7v1.4h-1.7v6.9H81v-6.9h-1.1v-1.3l1.1-0.1V174.7z M88.6,184.1c-0.2,0.1-0.5,0.1-0.9,0.1c-1.3,0-1.7-0.8-1.7-2.1v-10h1.7
							v10.1c0,0.5,0.2,0.6,0.4,0.6c0.1,0,0.2,0,0.3,0L88.6,184.1z"/>
						<path d="M89.9,181.8c0-1.8,1.5-2.7,4.9-3.1c0-1-0.4-1.8-1.6-1.8c-0.9,0-1.7,0.4-2.4,0.8l-0.6-1.2c0.9-0.5,2-1.1,3.3-1.1
							c2.1,0,3,1.3,3,3.5v5h-1.4l-0.2-0.9h0c-0.8,0.6-1.6,1.1-2.6,1.1C90.9,184.2,89.9,183.3,89.9,181.8z M94.8,181.9v-2
							c-2.4,0.3-3.3,0.9-3.3,1.8c0,0.8,0.6,1.1,1.3,1.1C93.6,182.8,94.2,182.5,94.8,181.9z"/>
						<path d="M99,175.8h1.4l0.1,1.2h0c0.7-0.8,1.5-1.4,2.5-1.4c1.2,0,1.9,0.6,2.3,1.5c0.8-0.9,1.7-1.5,2.7-1.5
							c1.7,0,2.5,1.2,2.5,3.3v5.2h-1.7v-5c0-1.4-0.5-2-1.4-2c-0.6,0-1.2,0.4-1.9,1.1v5.8H104v-5c0-1.4-0.4-2-1.4-2
							c-0.6,0-1.2,0.4-1.9,1.1v5.8H99V175.8z"/>
						<path d="M113.1,175.8h1.4l0.1,1.2h0c0.7-0.8,1.5-1.4,2.5-1.4c1.2,0,1.9,0.6,2.3,1.5c0.8-0.9,1.7-1.5,2.7-1.5
							c1.7,0,2.5,1.2,2.5,3.3v5.2h-1.7v-5c0-1.4-0.5-2-1.4-2c-0.6,0-1.2,0.4-1.9,1.1v5.8h-1.7v-5c0-1.4-0.4-2-1.4-2
							c-0.6,0-1.2,0.4-1.9,1.1v5.8h-1.7V175.8z"/>
						<path d="M126.8,181.8c0-1.8,1.5-2.7,4.9-3.1c0-1-0.4-1.8-1.6-1.8c-0.9,0-1.7,0.4-2.4,0.8l-0.6-1.2c0.9-0.5,2-1.1,3.3-1.1
							c2.1,0,3,1.3,3,3.5v5H132l-0.1-0.9h0c-0.8,0.6-1.6,1.1-2.6,1.1C127.8,184.2,126.8,183.3,126.8,181.8z M131.7,181.9v-2
							c-2.4,0.3-3.3,0.9-3.3,1.8c0,0.8,0.6,1.1,1.3,1.1C130.5,182.8,131.1,182.5,131.7,181.9z"/>
						<path d="M135.9,181.3v-4.2h-1.2v-1.3l1.3-0.1l0.2-2.3h1.5v2.3h2.1v1.4h-2.1v4.2c0,1,0.3,1.5,1.2,1.5c0.3,0,0.6-0.1,0.9-0.2
							l0.3,1.3c-0.5,0.2-1,0.3-1.6,0.3C136.6,184.2,135.9,183,135.9,181.3z"/>
						<path d="M140.7,179.9c0-2.8,1.8-4.4,3.9-4.4c2,0,3.9,1.6,3.9,4.4c0,2.7-1.8,4.3-3.9,4.3C142.6,184.2,140.7,182.6,140.7,179.9z
							 M146.7,179.9c0-1.8-0.8-2.9-2.1-2.9c-1.3,0-2.1,1.2-2.1,2.9c0,1.7,0.8,2.9,2.1,2.9C145.9,182.8,146.7,181.6,146.7,179.9z"/>
						<path d="M150.5,175.8h1.4l0.1,1.5h0c0.6-1.1,1.5-1.7,2.3-1.7c0.4,0,0.7,0.1,0.9,0.2l-0.3,1.5c-0.3-0.1-0.5-0.1-0.8-0.1
							c-0.7,0-1.5,0.5-2,1.8v5.1h-1.7V175.8z"/>
						<path d="M160.6,184.5c-0.6,1.8-1.5,3-3.3,3c-0.4,0-0.7-0.1-1-0.2l0.3-1.4c0.1,0,0.4,0.1,0.6,0.1c0.9,0,1.4-0.7,1.7-1.5
							l0.2-0.6l-3.3-8.2h1.8l1.5,4.2c0.2,0.7,0.5,1.6,0.8,2.3h0.1l0.6-2.3l1.3-4.2h1.7L160.6,184.5z"/>
						<path d="M168.7,173h3.4c2.3,0,3.9,0.7,3.9,2.7c0,1-0.6,2.1-1.6,2.4v0.1c1.3,0.3,2.2,1.1,2.2,2.6c0,2.2-1.8,3.2-4.2,3.2h-3.7
							V173z M171.9,177.6c1.7,0,2.4-0.6,2.4-1.7c0-1.2-0.8-1.6-2.3-1.6h-1.5v3.3H171.9z M172.2,182.6c1.7,0,2.7-0.6,2.7-2
							c0-1.2-1-1.8-2.7-1.8h-1.8v3.8H172.2z"/>
						<path d="M178,179.9c0-2.8,1.8-4.4,3.9-4.4s3.9,1.6,3.9,4.4c0,2.7-1.8,4.3-3.9,4.3S178,182.6,178,179.9z M184,179.9
							c0-1.8-0.8-2.9-2.1-2.9c-1.3,0-2.1,1.2-2.1,2.9c0,1.7,0.8,2.9,2.1,2.9C183.2,182.8,184,181.6,184,179.9z"/>
						<path d="M186.8,175.8h1.7l1.1,4.5c0.2,0.8,0.3,1.6,0.5,2.3h0.1c0.2-0.8,0.3-1.6,0.5-2.3l1.2-4.5h1.6l1.2,4.5
							c0.2,0.8,0.4,1.6,0.6,2.3h0.1c0.2-0.8,0.3-1.5,0.5-2.3l1.1-4.5h1.6l-2.1,8.2h-2.1l-1-4.1c-0.2-0.8-0.3-1.5-0.5-2.4h-0.1
							c-0.2,0.9-0.3,1.6-0.5,2.4l-1,4.1h-2L186.8,175.8z"/>
						<path d="M199.4,179.9c0-2.7,1.8-4.4,3.8-4.4c2.2,0,3.4,1.6,3.4,3.9c0,0.3,0,0.7-0.1,0.9h-5.4c0.1,1.6,1.1,2.5,2.5,2.5
							c0.7,0,1.4-0.2,2-0.6l0.6,1.1c-0.8,0.5-1.7,0.9-2.8,0.9C201.2,184.2,199.4,182.6,199.4,179.9z M205.1,179.1
							c0-1.4-0.6-2.2-1.8-2.2c-1,0-1.9,0.8-2.1,2.2H205.1z"/>
						<path d="M208.5,182.1v-10h1.7v10.1c0,0.5,0.2,0.6,0.4,0.6c0.1,0,0.1,0,0.3,0l0.2,1.3c-0.2,0.1-0.5,0.1-0.9,0.1
							C208.9,184.2,208.5,183.4,208.5,182.1z"/>
						<path d="M216.5,173h2.9c3.4,0,5.3,1.9,5.3,5.5c0,3.6-1.9,5.6-5.2,5.6h-3V173z M219.2,182.6c2.4,0,3.6-1.4,3.6-4.1
							c0-2.8-1.3-4.1-3.6-4.1h-1v8.2H219.2z"/>
						<path d="M226.6,173.2c0-0.6,0.5-1,1.1-1s1.1,0.4,1.1,1c0,0.6-0.5,1-1.1,1S226.6,173.8,226.6,173.2z M226.8,175.8h1.7v8.2h-1.7
							V175.8z"/>
						<path d="M230.2,183.1l0.8-1.1c0.7,0.6,1.5,0.9,2.3,0.9c1,0,1.5-0.5,1.5-1.1c0-0.8-0.9-1.1-1.8-1.4c-1.1-0.4-2.4-1-2.4-2.4
							c0-1.4,1.1-2.4,2.9-2.4c1.1,0,2,0.5,2.7,1l-0.8,1.1c-0.6-0.4-1.2-0.7-1.8-0.7c-0.9,0-1.3,0.5-1.3,1c0,0.7,0.9,1,1.8,1.3
							c1.2,0.4,2.4,0.9,2.4,2.5c0,1.4-1.1,2.5-3.1,2.5C232.2,184.2,231,183.7,230.2,183.1z"/>
						<path d="M237.7,179.9c0-2.7,1.8-4.4,3.8-4.4c2.2,0,3.4,1.6,3.4,3.9c0,0.3,0,0.7-0.1,0.9h-5.4c0.1,1.6,1.1,2.5,2.5,2.5
							c0.7,0,1.4-0.2,2-0.6l0.6,1.1c-0.8,0.5-1.7,0.9-2.8,0.9C239.5,184.2,237.7,182.6,237.7,179.9z M243.4,179.1
							c0-1.4-0.6-2.2-1.8-2.2c-1,0-2,0.8-2.1,2.2H243.4z"/>
						<path d="M246.1,181.8c0-1.8,1.5-2.7,4.9-3.1c0-1-0.4-1.8-1.6-1.8c-0.9,0-1.7,0.4-2.4,0.8l-0.6-1.2c0.9-0.5,2-1.1,3.3-1.1
							c2.1,0,3,1.3,3,3.5v5h-1.4l-0.1-0.9h0c-0.8,0.6-1.6,1.1-2.6,1.1C247.1,184.2,246.1,183.3,246.1,181.8z M251,181.9v-2
							c-2.4,0.3-3.3,0.9-3.3,1.8c0,0.8,0.6,1.1,1.3,1.1C249.8,182.8,250.3,182.5,251,181.9z"/>
						<path d="M254.3,183.1l0.8-1.1c0.7,0.6,1.5,0.9,2.3,0.9c1,0,1.5-0.5,1.5-1.1c0-0.8-0.9-1.1-1.8-1.4c-1.1-0.4-2.4-1-2.4-2.4
							c0-1.4,1.1-2.4,2.9-2.4c1.1,0,2,0.5,2.7,1l-0.8,1.1c-0.6-0.4-1.2-0.7-1.8-0.7c-0.9,0-1.3,0.5-1.3,1c0,0.7,0.9,1,1.8,1.3
							c1.2,0.4,2.4,0.9,2.4,2.5c0,1.4-1.1,2.5-3.1,2.5C256.3,184.2,255.1,183.7,254.3,183.1z"/>
						<path d="M261.8,179.9c0-2.7,1.8-4.4,3.8-4.4c2.2,0,3.4,1.6,3.4,3.9c0,0.3,0,0.7-0.1,0.9h-5.4c0.1,1.6,1.1,2.5,2.5,2.5
							c0.7,0,1.4-0.2,2-0.6l0.6,1.1c-0.8,0.5-1.7,0.9-2.8,0.9C263.6,184.2,261.8,182.6,261.8,179.9z M267.4,179.1
							c0-1.4-0.6-2.2-1.8-2.2c-1,0-1.9,0.8-2.1,2.2H267.4z"/>
					</g>
					<g class="st1">
						<path d="M145.2,70.9h2.2v4.4h4.2v-4.4h2.2V82h-2.2v-4.8h-4.2V82h-2.2V70.9z"/>
						<path d="M158.6,76.3l-2.9-5.4h2.5l1.1,2.3c0.3,0.5,0.5,1.1,0.8,1.8h0.1c0.3-0.7,0.5-1.2,0.7-1.8l1-2.3h2.3l-2.9,5.5l3.1,5.6
							H162l-1.2-2.5c-0.3-0.6-0.5-1.2-0.9-1.8h-0.1c-0.3,0.7-0.5,1.3-0.8,1.8l-1.2,2.5h-2.4L158.6,76.3z"/>
						<path d="M165.3,80.7c3-2.7,4.8-4.8,4.8-6.5c0-1.1-0.6-1.8-1.7-1.8c-0.8,0-1.5,0.5-2,1.1l-1.2-1.2c1-1.1,2-1.7,3.5-1.7
							c2.1,0,3.5,1.3,3.5,3.4c0,2-1.7,4.2-3.7,6.1c0.6-0.1,1.3-0.1,1.8-0.1h2.4V82h-7.4V80.7z"/>
						<path d="M174.1,76.4c0-3.8,1.5-5.7,3.8-5.7c2.2,0,3.8,1.9,3.8,5.7s-1.5,5.8-3.8,5.8C175.6,82.2,174.1,80.2,174.1,76.4z
							 M179.6,76.4c0-3.1-0.7-4-1.7-4c-1,0-1.7,0.9-1.7,4c0,3.1,0.7,4.1,1.7,4.1C178.8,80.5,179.6,79.5,179.6,76.4z"/>
						<path d="M190.7,79.1h-1.3V82h-2.1v-2.9h-4.7v-1.5l4.1-6.7h2.6v6.5h1.3V79.1z M187.3,77.4v-2.3c0-0.6,0.1-1.6,0.1-2.3h-0.1
							c-0.3,0.6-0.6,1.2-0.9,1.8l-1.7,2.8H187.3z"/>
					</g>
					<g transform="translate(0.000000, 204.000000)">
						<path class="st3" d="M8.8,0.8h316.5c4.4,0,8,3.6,8,8v82.5c0,4.4-3.6,8-8,8H8.8c-4.4,0-8-3.6-8-8V8.8C0.8,4.3,4.3,0.8,8.8,0.8z
							"/>
						<g class="st1">
							<path class="st2" d="M114.5,44.9h3.7c2.3,0,4,0.7,4,2.7c0,1-0.6,2.1-1.5,2.4v0.1c1.2,0.3,2.1,1.1,2.1,2.6
								c0,2.2-1.9,3.3-4.3,3.3h-4V44.9z M118,49.4c1.4,0,2-0.6,2-1.5c0-1-0.7-1.4-2-1.4h-1.3v2.8H118z M118.2,54.3
								c1.5,0,2.3-0.5,2.3-1.7c0-1.1-0.8-1.5-2.3-1.5h-1.5v3.2H118.2z"/>
							<path class="st2" d="M124.1,53.7c0-1.8,1.5-2.7,4.8-3.1c0-0.8-0.4-1.5-1.4-1.5c-0.8,0-1.5,0.3-2.3,0.8l-0.8-1.5
								c1-0.6,2.2-1.1,3.5-1.1c2.1,0,3.2,1.3,3.2,3.7V56h-1.8l-0.2-0.9h0c-0.7,0.6-1.6,1.1-2.5,1.1
								C125.1,56.2,124.1,55.1,124.1,53.7z M128.9,53.7V52c-2,0.3-2.7,0.8-2.7,1.6c0,0.7,0.5,0.9,1.1,0.9
								C127.9,54.5,128.4,54.2,128.9,53.7z"/>
							<path class="st2" d="M132.6,55l1-1.4c0.8,0.6,1.5,0.9,2.2,0.9c0.8,0,1.2-0.4,1.2-0.9c0-0.6-0.9-0.9-1.8-1.3
								c-1.1-0.4-2.3-1-2.3-2.4c0-1.5,1.2-2.6,3.1-2.6c1.2,0,2.2,0.5,2.9,1l-1,1.3c-0.6-0.4-1.2-0.7-1.8-0.7c-0.8,0-1.1,0.3-1.1,0.8
								c0,0.6,0.8,0.8,1.7,1.2c1.1,0.4,2.3,1,2.3,2.5c0,1.5-1.2,2.7-3.3,2.7C134.6,56.2,133.4,55.7,132.6,55z"/>
							<path class="st2" d="M140.6,45.1c0-0.7,0.6-1.2,1.3-1.2c0.8,0,1.3,0.5,1.3,1.2c0,0.7-0.6,1.2-1.3,1.2
								C141.1,46.2,140.6,45.7,140.6,45.1z M140.8,47.6h2.2V56h-2.2V47.6z"/>
							<path class="st2" d="M144.8,51.8c0-2.8,2-4.4,4.3-4.4c1,0,1.8,0.4,2.4,0.9l-1,1.4c-0.4-0.4-0.8-0.6-1.3-0.6
								c-1.3,0-2.1,1-2.1,2.6c0,1.6,0.9,2.6,2.1,2.6c0.6,0,1.2-0.3,1.6-0.7l0.9,1.5c-0.8,0.7-1.8,1-2.7,1
								C146.6,56.2,144.8,54.6,144.8,51.8z"/>
							<path class="st2" d="M162.9,56l-2.3-4.2h-1.5V56h-2.2V44.9h3.9c2.3,0,4.2,0.8,4.2,3.4c0,1.7-0.8,2.7-2.1,3.2l2.6,4.5H162.9z
								 M159.1,50h1.4c1.4,0,2.2-0.6,2.2-1.8c0-1.2-0.8-1.6-2.2-1.6h-1.4V50z"/>
							<path class="st2" d="M166.2,51.8c0-2.7,1.9-4.4,3.9-4.4c2.3,0,3.5,1.7,3.5,4c0,0.4,0,0.8-0.1,1h-5.2c0.2,1.4,1.1,2.1,2.3,2.1
								c0.7,0,1.3-0.2,1.9-0.6l0.8,1.4c-0.8,0.6-1.9,0.9-2.9,0.9C168,56.2,166.2,54.6,166.2,51.8z M171.7,51c0-1.1-0.5-1.9-1.6-1.9
								c-0.9,0-1.7,0.6-1.8,1.9H171.7z"/>
							<path class="st2" d="M174.6,55l1-1.4c0.8,0.6,1.5,0.9,2.2,0.9c0.8,0,1.2-0.4,1.2-0.9c0-0.6-0.9-0.9-1.8-1.3
								c-1.1-0.4-2.3-1-2.3-2.4c0-1.5,1.2-2.6,3.1-2.6c1.2,0,2.2,0.5,2.9,1l-1,1.3c-0.6-0.4-1.2-0.7-1.8-0.7c-0.8,0-1.1,0.3-1.1,0.8
								c0,0.6,0.8,0.8,1.7,1.2c1.1,0.4,2.3,1,2.3,2.5c0,1.5-1.2,2.7-3.3,2.7C176.7,56.2,175.5,55.7,174.6,55z"/>
							<path class="st2" d="M182.3,51.8c0-2.7,1.9-4.4,3.9-4.4c2.3,0,3.5,1.7,3.5,4c0,0.4,0,0.8-0.1,1h-5.2c0.2,1.4,1.1,2.1,2.3,2.1
								c0.7,0,1.3-0.2,1.9-0.6l0.8,1.4c-0.8,0.6-1.9,0.9-2.9,0.9C184.2,56.2,182.3,54.6,182.3,51.8z M187.9,51
								c0-1.1-0.5-1.9-1.6-1.9c-0.9,0-1.7,0.6-1.8,1.9H187.9z"/>
							<path class="st2" d="M190.9,53.7c0-1.8,1.5-2.7,4.8-3.1c0-0.8-0.4-1.5-1.4-1.5c-0.8,0-1.5,0.3-2.3,0.8l-0.8-1.5
								c1-0.6,2.2-1.1,3.5-1.1c2.1,0,3.2,1.3,3.2,3.7V56h-1.8l-0.2-0.9h0c-0.7,0.6-1.6,1.1-2.5,1.1
								C191.9,56.2,190.9,55.1,190.9,53.7z M195.8,53.7V52c-2,0.3-2.7,0.8-2.7,1.6c0,0.7,0.5,0.9,1.1,0.9
								C194.8,54.5,195.2,54.2,195.8,53.7z"/>
							<path class="st2" d="M200.2,47.6h1.8l0.2,1.5h0.1c0.6-1.1,1.5-1.7,2.4-1.7c0.5,0,0.7,0.1,1,0.2l-0.4,1.9
								c-0.3-0.1-0.5-0.1-0.9-0.1c-0.7,0-1.5,0.4-1.9,1.7v5h-2.2V47.6z"/>
							<path class="st2" d="M206.1,51.8c0-2.8,2-4.4,4.3-4.4c1,0,1.8,0.4,2.4,0.9l-1,1.4c-0.4-0.4-0.8-0.6-1.3-0.6
								c-1.3,0-2.1,1-2.1,2.6c0,1.6,0.9,2.6,2.1,2.6c0.6,0,1.2-0.3,1.6-0.7l0.9,1.5c-0.8,0.7-1.8,1-2.7,1
								C207.8,56.2,206.1,54.6,206.1,51.8z"/>
							<path class="st2" d="M214.5,44h2.2v3l-0.1,1.6c0.7-0.6,1.5-1.2,2.6-1.2c1.8,0,2.6,1.3,2.6,3.4V56h-2.2v-5
								c0-1.3-0.4-1.8-1.2-1.8c-0.7,0-1.1,0.3-1.8,0.9V56h-2.2V44z"/>
						</g>
					</g>
				</g>
			</g>
		</g>
	</g>
</g>
</svg>
