<?xml version="1.0" encoding="utf-8"?>
<!-- Generator: Adobe Illustrator 23.0.1, SVG Export Plug-In . SVG Version: 6.00 Build 0)  -->
<svg version="1.1" id="Layer_1" xmlns="http://www.w3.org/2000/svg" xmlns:xlink="http://www.w3.org/1999/xlink" x="0px" y="0px"
	 viewBox="0 0 909 182" style="enable-background:new 0 0 909 182;" xml:space="preserve">
<style type="text/css">
	.st0{enable-background:new    ;}
	.st1{font-family:'NotoSansCJKkr-Medium-KSCpc-EUC-H';}
	.st2{font-size:12px;}
	.st3{fill-rule:evenodd;clip-rule:evenodd;}
	.st4{fill:#FFFFFF;}
	.st5{fill-rule:evenodd;clip-rule:evenodd;fill:#B54142;stroke:#B54142;stroke-width:1.5;}
	.st6{fill:none;stroke:#EAB4B5;stroke-linecap:square;stroke-dasharray:10;}
	.st7{fill:none;stroke:#979797;stroke-linecap:square;}
	.st8{fill-rule:evenodd;clip-rule:evenodd;fill:#B54142;fill-opacity:0.7;stroke:#B54142;}
</style>
<title>표</title>
<desc>Created with Sketch.</desc>
<g id="Page-1">
	<g transform="translate(-266.000000, -1022.000000)">
		<g id="second" transform="translate(190.000000, 922.000000)">
			<g id="표" transform="translate(77.000000, 100.000000)">
				<g id="project">
					<g transform="translate(37.000000, 63.000000)">
						<g class="st0">
							<path d="M1.6,13h1.7v4.5h4.7V13h1.7v11H8.1v-5H3.3v5H1.6V13z"/>
							<path d="M14.7,18.3l-3-5.3h1.9l1.3,2.6c0.3,0.5,0.5,1,0.8,1.7h0.1c0.3-0.7,0.5-1.2,0.8-1.7l1.3-2.6h1.8l-3,5.4L20,24H18
								l-1.5-2.7c-0.3-0.6-0.6-1.1-0.9-1.8h-0.1c-0.3,0.7-0.6,1.2-0.9,1.8L13.3,24h-1.8L14.7,18.3z"/>
							<path d="M20.6,22.7l0.8-1.1c0.6,0.7,1.5,1.2,2.6,1.2c1.2,0,2.1-0.7,2.1-1.8c0-1.2-0.8-2-3.3-2v-1.3c2.2,0,2.9-0.8,2.9-1.9
								c0-1-0.6-1.6-1.7-1.6c-0.9,0-1.6,0.4-2.2,1L21,14.1c0.9-0.8,1.9-1.3,3.2-1.3c2,0,3.4,1,3.4,2.9c0,1.3-0.7,2.2-1.9,2.6v0.1
								c1.3,0.3,2.3,1.3,2.3,2.8c0,2-1.7,3.2-3.7,3.2C22.5,24.2,21.3,23.5,20.6,22.7z"/>
							<path d="M29.5,18.4c0-3.8,1.4-5.7,3.6-5.7c2.2,0,3.6,1.9,3.6,5.7c0,3.8-1.4,5.8-3.6,5.8C30.8,24.2,29.5,22.3,29.5,18.4z
								 M34.9,18.4c0-3.2-0.8-4.3-1.9-4.3s-1.9,1.2-1.9,4.3c0,3.2,0.8,4.4,1.9,4.4S34.9,21.6,34.9,18.4z"/>
							<path d="M38.6,22.6H41v-7.7h-2v-1.1c1-0.2,1.8-0.5,2.4-0.8h1.3v9.6h2.2V24h-6.3V22.6z"/>
						</g>
						<g class="st0">
							<path d="M116.7,5.2h2.7c2,0,3.4,0.7,3.4,2.7c0,1.9-1.4,2.8-3.3,2.8h-1.3V14h-1.4V5.2z M119.3,9.5c1.4,0,2.1-0.5,2.1-1.7
								c0-1.2-0.7-1.5-2.1-1.5h-1.2v3.2H119.3z"/>
							<path d="M123.6,10.7c0-2.2,1.5-3.5,3.1-3.5c1.6,0,3.1,1.3,3.1,3.5c0,2.2-1.5,3.4-3.1,3.4C125,14.2,123.6,12.9,123.6,10.7z
								 M128.4,10.7c0-1.4-0.6-2.3-1.7-2.3c-1,0-1.7,0.9-1.7,2.3c0,1.4,0.6,2.3,1.7,2.3C127.7,13,128.4,12.1,128.4,10.7z"/>
							<path d="M130.7,13.2l0.6-0.9c0.6,0.5,1.2,0.8,1.9,0.8c0.8,0,1.2-0.4,1.2-0.9c0-0.6-0.7-0.9-1.5-1.1c-0.9-0.3-1.9-0.8-1.9-1.9
								c0-1.1,0.9-1.9,2.3-1.9c0.9,0,1.6,0.4,2.1,0.8l-0.6,0.9c-0.5-0.3-0.9-0.6-1.5-0.6c-0.7,0-1.1,0.4-1.1,0.8
								c0,0.6,0.7,0.8,1.4,1c0.9,0.3,1.9,0.8,1.9,2c0,1.1-0.9,2-2.5,2C132.2,14.2,131.3,13.8,130.7,13.2z"/>
							<path d="M137.1,11.8V8.5h-1v-1l1-0.1l0.2-1.8h1.2v1.8h1.7v1.1h-1.7v3.3c0,0.8,0.3,1.2,1,1.2c0.2,0,0.5-0.1,0.7-0.2l0.3,1
								c-0.4,0.1-0.8,0.2-1.3,0.2C137.6,14.2,137.1,13.2,137.1,11.8z"/>
							<path d="M141.6,7.4h1.1l0.1,0.9h0c0.6-0.6,1.2-1.1,2-1.1c1,0,1.5,0.5,1.8,1.2c0.6-0.7,1.3-1.2,2.1-1.2c1.4,0,2,0.9,2,2.6V14
								h-1.4v-4c0-1.1-0.4-1.6-1.1-1.6c-0.5,0-0.9,0.3-1.5,0.9V14h-1.4v-4c0-1.1-0.3-1.6-1.1-1.6c-0.4,0-0.9,0.3-1.5,0.9V14h-1.4
								V7.4z"/>
							<path d="M152.4,10.7c0-2.1,1.5-3.5,3-3.5c1.8,0,2.7,1.3,2.7,3.1c0,0.3,0,0.5-0.1,0.7h-4.3c0.1,1.3,0.9,2,2,2
								c0.6,0,1.1-0.2,1.6-0.5l0.5,0.9c-0.6,0.4-1.4,0.7-2.2,0.7C153.9,14.2,152.4,12.9,152.4,10.7z M157,10.1
								c0-1.1-0.5-1.8-1.5-1.8c-0.8,0-1.6,0.6-1.7,1.8H157z"/>
							<path d="M159.7,7.4h1.1l0.1,0.9h0c0.6-0.6,1.3-1.1,2.2-1.1c1.4,0,2,0.9,2,2.6V14h-1.4v-4c0-1.1-0.3-1.6-1.1-1.6
								c-0.6,0-1,0.3-1.6,0.9V14h-1.4V7.4z"/>
							<path d="M166.7,10.7c0-2.2,1.5-3.5,3.1-3.5c1.6,0,3.1,1.3,3.1,3.5c0,2.2-1.5,3.4-3.1,3.4C168.2,14.2,166.7,12.9,166.7,10.7z
								 M171.5,10.7c0-1.4-0.6-2.3-1.7-2.3c-1,0-1.7,0.9-1.7,2.3c0,1.4,0.6,2.3,1.7,2.3C170.9,13,171.5,12.1,171.5,10.7z"/>
							<path d="M174.6,7.4h1.1l0.1,0.7h0c0.6-0.5,1.3-0.9,2-0.9c1.7,0,2.6,1.3,2.6,3.4c0,2.3-1.4,3.6-2.8,3.6
								c-0.6,0-1.2-0.3-1.7-0.7l0,1.1v2.1h-1.4V7.4z M179,10.6c0-1.4-0.4-2.2-1.5-2.2c-0.5,0-1,0.3-1.6,0.8v3.2
								c0.5,0.4,1,0.6,1.4,0.6C178.3,13,179,12.2,179,10.6z"/>
							<path d="M181.5,12.2c0-1.4,1.2-2.1,3.9-2.4c0-0.8-0.3-1.4-1.3-1.4c-0.7,0-1.3,0.3-1.9,0.7l-0.5-0.9c0.7-0.4,1.6-0.9,2.7-0.9
								c1.6,0,2.4,1,2.4,2.8v4h-1.1l-0.1-0.8h0c-0.6,0.5-1.3,0.9-2.1,0.9C182.4,14.2,181.5,13.4,181.5,12.2z M185.5,12.3v-1.6
								c-2,0.2-2.6,0.7-2.6,1.5c0,0.6,0.4,0.9,1,0.9C184.5,13.1,185,12.8,185.5,12.3z"/>
							<path d="M188.7,11.6V7.4h1.4v4c0,1.1,0.3,1.6,1.1,1.6c0.6,0,1-0.3,1.6-1V7.4h1.4V14h-1.1l-0.1-1h0c-0.6,0.7-1.2,1.2-2.2,1.2
								C189.4,14.2,188.7,13.2,188.7,11.6z"/>
							<path d="M195.6,13.2l0.6-0.9c0.6,0.5,1.2,0.8,1.9,0.8c0.8,0,1.2-0.4,1.2-0.9c0-0.6-0.7-0.9-1.5-1.1c-0.9-0.3-1.9-0.8-1.9-1.9
								c0-1.1,0.9-1.9,2.3-1.9c0.9,0,1.6,0.4,2.1,0.8l-0.6,0.9c-0.5-0.3-0.9-0.6-1.5-0.6c-0.7,0-1.1,0.4-1.1,0.8
								c0,0.6,0.7,0.8,1.4,1c0.9,0.3,1.9,0.8,1.9,2c0,1.1-0.9,2-2.5,2C197.1,14.2,196.2,13.8,195.6,13.2z"/>
							<path d="M201.6,12.2c0-1.4,1.2-2.1,3.9-2.4c0-0.8-0.3-1.4-1.3-1.4c-0.7,0-1.3,0.3-1.9,0.7l-0.5-0.9c0.7-0.4,1.6-0.9,2.7-0.9
								c1.6,0,2.4,1,2.4,2.8v4h-1.1l-0.1-0.8h0c-0.6,0.5-1.3,0.9-2.1,0.9C202.5,14.2,201.6,13.4,201.6,12.2z M205.6,12.3v-1.6
								c-2,0.2-2.6,0.7-2.6,1.5c0,0.6,0.4,0.9,1,0.9C204.6,13.1,205.1,12.8,205.6,12.3z"/>
							<path d="M208.9,12.5v-8h1.4v8.1c0,0.4,0.2,0.5,0.3,0.5c0.1,0,0.1,0,0.2,0l0.2,1c-0.2,0.1-0.4,0.1-0.7,0.1
								C209.3,14.2,208.9,13.5,208.9,12.5z"/>
						</g>
						<text transform="matrix(1 0 0 1 211.4633 14)" class="st1 st2"> </text>
						<g class="st0">
							<path d="M133.3,30.9l0.8-1c0.6,0.6,1.5,1,2.4,1c1.1,0,1.7-0.5,1.7-1.2c0-0.8-0.6-1.1-1.4-1.4l-1.2-0.5
								c-0.9-0.4-1.8-1-1.8-2.3c0-1.4,1.2-2.4,2.9-2.4c1,0,2,0.4,2.7,1.1l-0.7,0.9c-0.6-0.5-1.2-0.8-1.9-0.8c-0.9,0-1.5,0.4-1.5,1.1
								c0,0.8,0.7,1,1.4,1.3l1.2,0.5c1,0.4,1.8,1.1,1.8,2.4c0,1.4-1.2,2.6-3.1,2.6C135.3,32.2,134.1,31.7,133.3,30.9z"/>
							<path d="M144,32.4c-0.5,1.4-1.2,2.4-2.6,2.4c-0.3,0-0.6,0-0.8-0.1l0.3-1.1c0.1,0,0.3,0.1,0.5,0.1c0.7,0,1.1-0.5,1.4-1.2
								l0.1-0.5l-2.6-6.5h1.4l1.2,3.4c0.2,0.6,0.4,1.2,0.6,1.9h0.1l0.5-1.9l1.1-3.4h1.3L144,32.4z"/>
							<path d="M147.7,25.4h1.1l0.1,0.9h0c0.6-0.6,1.2-1.1,2-1.1c1,0,1.5,0.5,1.8,1.2c0.6-0.7,1.3-1.2,2.1-1.2c1.4,0,2,0.9,2,2.6V32
								h-1.4v-4c0-1.1-0.4-1.6-1.1-1.6c-0.5,0-0.9,0.3-1.5,0.9V32h-1.4v-4c0-1.1-0.3-1.6-1.1-1.6c-0.4,0-0.9,0.3-1.5,0.9V32h-1.4
								V25.4z"/>
							<path d="M159,25.4h1.1l0.1,0.7h0c0.6-0.5,1.3-0.9,2-0.9c1.7,0,2.6,1.3,2.6,3.4c0,2.3-1.4,3.6-2.8,3.6c-0.6,0-1.2-0.3-1.7-0.7
								l0,1.1v2.1H159V25.4z M163.5,28.6c0-1.4-0.4-2.2-1.5-2.2c-0.5,0-1,0.3-1.6,0.8v3.2c0.5,0.4,1,0.6,1.4,0.6
								C162.7,31,163.5,30.2,163.5,28.6z"/>
							<path d="M166.5,29.8v-3.3h-1v-1l1-0.1l0.2-1.8h1.2v1.8h1.7v1.1h-1.7v3.3c0,0.8,0.3,1.2,1,1.2c0.2,0,0.5-0.1,0.7-0.2l0.3,1
								c-0.4,0.1-0.8,0.2-1.3,0.2C167,32.2,166.5,31.2,166.5,29.8z"/>
							<path d="M170.3,28.7c0-2.2,1.5-3.5,3.1-3.5c1.6,0,3.1,1.3,3.1,3.5c0,2.2-1.5,3.4-3.1,3.4C171.8,32.2,170.3,30.9,170.3,28.7z
								 M175.1,28.7c0-1.4-0.6-2.3-1.7-2.3c-1,0-1.7,0.9-1.7,2.3c0,1.4,0.6,2.3,1.7,2.3C174.5,31,175.1,30.1,175.1,28.7z"/>
							<path d="M178.2,25.4h1.1l0.1,0.9h0c0.6-0.6,1.2-1.1,2-1.1c1,0,1.5,0.5,1.8,1.2c0.6-0.7,1.3-1.2,2.1-1.2c1.4,0,2,0.9,2,2.6V32
								h-1.4v-4c0-1.1-0.4-1.6-1.1-1.6c-0.5,0-0.9,0.3-1.5,0.9V32h-1.4v-4c0-1.1-0.3-1.6-1.1-1.6c-0.4,0-0.9,0.3-1.5,0.9V32h-1.4
								V25.4z"/>
							<path d="M188.8,31.2l0.6-0.9c0.6,0.5,1.2,0.8,1.9,0.8c0.8,0,1.2-0.4,1.2-0.9c0-0.6-0.7-0.9-1.5-1.1c-0.9-0.3-1.9-0.8-1.9-1.9
								c0-1.1,0.9-1.9,2.3-1.9c0.9,0,1.6,0.4,2.1,0.8l-0.6,0.9c-0.5-0.3-0.9-0.6-1.5-0.6c-0.7,0-1.1,0.4-1.1,0.8
								c0,0.6,0.7,0.8,1.4,1c0.9,0.3,1.9,0.8,1.9,2c0,1.1-0.9,2-2.5,2C190.4,32.2,189.4,31.8,188.8,31.2z"/>
						</g>
					</g>
					<g transform="translate(37.000000, 138.000000)">
						<g class="st0">
							<path d="M2.1,6h1.7v4.5h4.7V6h1.7v11H8.6v-5H3.8v5H2.1V6z"/>
							<path d="M15.2,11.3l-3-5.3h1.9l1.3,2.6c0.3,0.5,0.5,1,0.8,1.7h0.1c0.3-0.7,0.5-1.2,0.8-1.7L18.4,6h1.8l-3,5.4l3.2,5.6h-1.9
								l-1.5-2.7c-0.3-0.6-0.6-1.1-0.9-1.8h-0.1c-0.3,0.7-0.6,1.2-0.9,1.8L13.8,17H12L15.2,11.3z"/>
							<path d="M21.1,15.7l0.8-1.1c0.6,0.7,1.5,1.2,2.6,1.2c1.2,0,2.1-0.7,2.1-1.8c0-1.2-0.8-2-3.3-2v-1.3c2.2,0,2.9-0.8,2.9-1.9
								c0-1-0.6-1.6-1.7-1.6c-0.9,0-1.6,0.4-2.2,1l-0.9-1.1c0.9-0.8,1.9-1.3,3.2-1.3c2,0,3.4,1,3.4,2.9c0,1.3-0.7,2.2-1.9,2.6v0.1
								c1.3,0.3,2.3,1.3,2.3,2.8c0,2-1.7,3.2-3.7,3.2C23,17.2,21.8,16.5,21.1,15.7z"/>
							<path d="M30,11.4c0-3.8,1.4-5.7,3.6-5.7c2.2,0,3.6,1.9,3.6,5.7c0,3.8-1.4,5.8-3.6,5.8C31.3,17.2,30,15.3,30,11.4z M35.4,11.4
								c0-3.2-0.8-4.3-1.9-4.3s-1.9,1.2-1.9,4.3c0,3.2,0.8,4.4,1.9,4.4S35.4,14.6,35.4,11.4z"/>
							<path d="M38.5,16c3.3-2.9,4.9-5,4.9-6.8c0-1.2-0.6-2-1.9-2c-0.9,0-1.6,0.6-2.2,1.2l-1-1c0.9-1,1.9-1.7,3.4-1.7
								c2,0,3.3,1.3,3.3,3.3c0,2.1-1.7,4.3-4,6.6c0.6-0.1,1.3-0.1,1.8-0.1h2.8V17h-7.1V16z"/>
						</g>
						<g class="st0">
							<path d="M108.1,7.2h2.3c2.7,0,4.3,1.5,4.3,4.4c0,2.9-1.5,4.4-4.2,4.4h-2.4V7.2z M110.3,14.9c1.9,0,2.9-1.1,2.9-3.3
								c0-2.2-1-3.3-2.9-3.3h-0.8v6.6H110.3z"/>
							<path d="M115.9,12.7c0-2.1,1.5-3.5,3-3.5c1.8,0,2.7,1.3,2.7,3.1c0,0.3,0,0.5-0.1,0.7h-4.3c0.1,1.3,0.9,2,2,2
								c0.6,0,1.1-0.2,1.6-0.5l0.5,0.9c-0.6,0.4-1.4,0.7-2.2,0.7C117.3,16.2,115.9,14.9,115.9,12.7z M120.4,12.1
								c0-1.1-0.5-1.8-1.5-1.8c-0.8,0-1.6,0.6-1.7,1.8H120.4z"/>
							<path d="M123.1,9.4h1.1l0.1,0.7h0c0.6-0.5,1.3-0.9,2-0.9c1.7,0,2.6,1.3,2.6,3.4c0,2.3-1.4,3.6-2.8,3.6
								c-0.6,0-1.2-0.3-1.7-0.7l0,1.1v2.1h-1.4V9.4z M127.6,12.6c0-1.4-0.4-2.2-1.5-2.2c-0.5,0-1,0.3-1.6,0.8v3.2
								c0.5,0.4,1,0.6,1.4,0.6C126.9,15,127.6,14.2,127.6,12.6z"/>
							<path d="M130.7,9.4h1.1l0.1,1.2h0c0.5-0.9,1.2-1.4,1.9-1.4c0.3,0,0.5,0,0.7,0.1l-0.3,1.2c-0.2-0.1-0.4-0.1-0.7-0.1
								c-0.5,0-1.2,0.4-1.6,1.4V16h-1.4V9.4z"/>
							<path d="M135,12.7c0-2.1,1.5-3.5,3-3.5c1.8,0,2.7,1.3,2.7,3.1c0,0.3,0,0.5-0.1,0.7h-4.3c0.1,1.3,0.9,2,2,2
								c0.6,0,1.1-0.2,1.6-0.5l0.5,0.9c-0.6,0.4-1.4,0.7-2.2,0.7C136.4,16.2,135,14.9,135,12.7z M139.5,12.1c0-1.1-0.5-1.8-1.5-1.8
								c-0.8,0-1.6,0.6-1.7,1.8H139.5z"/>
							<path d="M141.5,15.2l0.6-0.9c0.6,0.5,1.2,0.8,1.9,0.8c0.8,0,1.2-0.4,1.2-0.9c0-0.6-0.7-0.9-1.5-1.1c-0.9-0.3-1.9-0.8-1.9-1.9
								c0-1.1,0.9-1.9,2.3-1.9c0.9,0,1.6,0.4,2.1,0.8l-0.6,0.9c-0.5-0.3-0.9-0.6-1.5-0.6c-0.7,0-1.1,0.4-1.1,0.8
								c0,0.6,0.7,0.8,1.4,1c0.9,0.3,1.9,0.8,1.9,2c0,1.1-0.9,2-2.5,2C143.1,16.2,142.2,15.8,141.5,15.2z"/>
							<path d="M147.3,15.2l0.6-0.9c0.6,0.5,1.2,0.8,1.9,0.8c0.8,0,1.2-0.4,1.2-0.9c0-0.6-0.7-0.9-1.5-1.1c-0.9-0.3-1.9-0.8-1.9-1.9
								c0-1.1,0.9-1.9,2.3-1.9c0.9,0,1.6,0.4,2.1,0.8l-0.6,0.9c-0.5-0.3-0.9-0.6-1.5-0.6c-0.7,0-1.1,0.4-1.1,0.8
								c0,0.6,0.7,0.8,1.4,1c0.9,0.3,1.9,0.8,1.9,2c0,1.1-0.9,2-2.5,2C148.9,16.2,147.9,15.8,147.3,15.2z"/>
							<path d="M153.6,7.4c0-0.5,0.4-0.8,0.9-0.8s0.9,0.3,0.9,0.8c0,0.5-0.4,0.8-0.9,0.8S153.6,7.8,153.6,7.4z M153.8,9.4h1.4V16
								h-1.4V9.4z"/>
							<path d="M156.3,9.4h1.4l1.1,3.6c0.2,0.6,0.4,1.3,0.6,2h0c0.2-0.6,0.4-1.3,0.6-2l1.1-3.6h1.3l-2.3,6.6h-1.6L156.3,9.4z"/>
							<path d="M163.2,12.7c0-2.1,1.5-3.5,3-3.5c1.8,0,2.7,1.3,2.7,3.1c0,0.3,0,0.5-0.1,0.7h-4.3c0.1,1.3,0.9,2,2,2
								c0.6,0,1.1-0.2,1.6-0.5l0.5,0.9c-0.6,0.4-1.4,0.7-2.2,0.7C164.6,16.2,163.2,14.9,163.2,12.7z M167.7,12.1
								c0-1.1-0.5-1.8-1.5-1.8c-0.8,0-1.6,0.6-1.7,1.8H167.7z"/>
							<path d="M173.3,7.2h2.3c2.7,0,4.3,1.5,4.3,4.4c0,2.9-1.5,4.4-4.2,4.4h-2.4V7.2z M175.5,14.9c1.9,0,2.9-1.1,2.9-3.3
								c0-2.2-1-3.3-2.9-3.3h-0.8v6.6H175.5z"/>
							<path d="M181.3,7.4c0-0.5,0.4-0.8,0.9-0.8s0.9,0.3,0.9,0.8c0,0.5-0.4,0.8-0.9,0.8S181.3,7.8,181.3,7.4z M181.5,9.4h1.4V16
								h-1.4V9.4z"/>
							<path d="M184.3,15.2l0.6-0.9c0.6,0.5,1.2,0.8,1.9,0.8c0.8,0,1.2-0.4,1.2-0.9c0-0.6-0.7-0.9-1.5-1.1c-0.9-0.3-1.9-0.8-1.9-1.9
								c0-1.1,0.9-1.9,2.3-1.9c0.9,0,1.6,0.4,2.1,0.8l-0.6,0.9c-0.5-0.3-0.9-0.6-1.5-0.6c-0.7,0-1.1,0.4-1.1,0.8
								c0,0.6,0.7,0.8,1.4,1c0.9,0.3,1.9,0.8,1.9,2c0,1.1-0.9,2-2.5,2C185.9,16.2,184.9,15.8,184.3,15.2z"/>
							<path d="M190.3,12.7c0-2.2,1.5-3.5,3.1-3.5c1.6,0,3.1,1.3,3.1,3.5c0,2.2-1.5,3.4-3.1,3.4C191.7,16.2,190.3,14.9,190.3,12.7z
								 M195.1,12.7c0-1.4-0.6-2.3-1.7-2.3c-1,0-1.7,0.9-1.7,2.3c0,1.4,0.6,2.3,1.7,2.3C194.4,15,195.1,14.1,195.1,12.7z"/>
							<path d="M198.1,9.4h1.1l0.1,1.2h0c0.5-0.9,1.2-1.4,1.9-1.4c0.3,0,0.5,0,0.7,0.1l-0.3,1.2c-0.2-0.1-0.4-0.1-0.7-0.1
								c-0.5,0-1.2,0.4-1.6,1.4V16h-1.4V9.4z"/>
							<path d="M202.4,12.7c0-2.1,1.4-3.5,2.8-3.5c0.8,0,1.2,0.3,1.8,0.7L207,8.9V6.4h1.4V16h-1.1l-0.1-0.7h0
								c-0.5,0.5-1.2,0.9-1.9,0.9C203.5,16.2,202.4,14.9,202.4,12.7z M207,14.2V11c-0.5-0.4-1-0.6-1.5-0.6c-0.9,0-1.7,0.9-1.7,2.3
								c0,1.5,0.6,2.3,1.6,2.3C206,15,206.5,14.8,207,14.2z"/>
							<path d="M210,12.7c0-2.1,1.5-3.5,3-3.5c1.8,0,2.7,1.3,2.7,3.1c0,0.3,0,0.5-0.1,0.7h-4.3c0.1,1.3,0.9,2,2,2
								c0.6,0,1.1-0.2,1.6-0.5l0.5,0.9c-0.6,0.4-1.4,0.7-2.2,0.7C211.4,16.2,210,14.9,210,12.7z M214.5,12.1c0-1.1-0.5-1.8-1.5-1.8
								c-0.8,0-1.6,0.6-1.7,1.8H214.5z"/>
							<path d="M217.2,9.4h1.1l0.1,1.2h0c0.5-0.9,1.2-1.4,1.9-1.4c0.3,0,0.5,0,0.7,0.1l-0.3,1.2c-0.2-0.1-0.4-0.1-0.7-0.1
								c-0.5,0-1.2,0.4-1.6,1.4V16h-1.4V9.4z"/>
						</g>
					</g>
					<g id="head1">
						<path id="bg" class="st3" d="M8,0h104c4.4,0,8,3.6,8,8v34c0,4.4-3.6,8-8,8H8c-4.4,0-8-3.6-8-8V8C0,3.6,3.6,0,8,0z"/>
						<g class="st0">
							<path class="st4" d="M34.4,19.9H38c2.5,0,4.3,0.9,4.3,3.5c0,2.5-1.9,3.7-4.3,3.7h-1.5V31h-2.2V19.9z M37.9,25.3
								c1.5,0,2.3-0.6,2.3-1.9c0-1.3-0.8-1.7-2.3-1.7h-1.3v3.6H37.9z"/>
							<path class="st4" d="M44.2,22.6H46l0.1,1.5h0.1c0.6-1.1,1.5-1.7,2.4-1.7c0.5,0,0.7,0.1,1,0.2l-0.4,1.9
								c-0.3-0.1-0.5-0.1-0.9-0.1c-0.7,0-1.5,0.4-1.9,1.7v5h-2.2V22.6z"/>
							<path class="st4" d="M50,26.8c0-2.8,1.9-4.4,4-4.4s4,1.6,4,4.4c0,2.8-1.9,4.4-4,4.4S50,29.6,50,26.8z M55.8,26.8
								c0-1.6-0.6-2.6-1.8-2.6s-1.8,1-1.8,2.6c0,1.6,0.6,2.6,1.8,2.6S55.8,28.4,55.8,26.8z"/>
							<path class="st4" d="M57.9,34.2l0.4-1.6c0.2,0.1,0.4,0.1,0.7,0.1c0.7,0,0.9-0.5,0.9-1.4v-8.7h2.2v8.6c0,1.8-0.7,3.2-2.8,3.2
								C58.7,34.4,58.3,34.3,57.9,34.2z M59.7,20.1c0-0.7,0.6-1.2,1.3-1.2c0.8,0,1.3,0.5,1.3,1.2c0,0.7-0.6,1.2-1.3,1.2
								C60.3,21.2,59.7,20.7,59.7,20.1z"/>
							<path class="st4" d="M64,26.8c0-2.7,1.9-4.4,3.9-4.4c2.3,0,3.5,1.7,3.5,4c0,0.4,0,0.8-0.1,1h-5.2c0.2,1.4,1.1,2.1,2.3,2.1
								c0.7,0,1.3-0.2,1.9-0.6l0.8,1.4c-0.8,0.6-1.9,0.9-2.9,0.9C65.8,31.2,64,29.6,64,26.8z M69.5,26c0-1.1-0.5-1.9-1.6-1.9
								c-0.9,0-1.7,0.6-1.8,1.9H69.5z"/>
							<path class="st4" d="M72.7,26.8c0-2.8,2-4.4,4.3-4.4c1,0,1.8,0.4,2.4,0.9l-1,1.4c-0.4-0.4-0.8-0.6-1.3-0.6
								c-1.3,0-2.1,1-2.1,2.6c0,1.6,0.9,2.6,2.1,2.6c0.6,0,1.2-0.3,1.6-0.7l0.9,1.5c-0.8,0.7-1.8,1-2.7,1
								C74.5,31.2,72.7,29.6,72.7,26.8z"/>
							<path class="st4" d="M81.3,28.1v-3.7h-1.2v-1.6l1.3-0.1l0.3-2.2h1.8v2.2h2.1v1.7h-2.1v3.7c0,1,0.4,1.4,1.1,1.4
								c0.3,0,0.6-0.1,0.8-0.2l0.4,1.6c-0.5,0.2-1,0.3-1.8,0.3C82,31.2,81.3,30,81.3,28.1z"/>
						</g>
					</g>
					<g id="head2" transform="translate(130.000000, 0.000000)">
						<path class="st3" d="M8,0h124c4.4,0,8,3.6,8,8v34c0,4.4-3.6,8-8,8H8c-4.4,0-8-3.6-8-8V8C0,3.6,3.6,0,8,0z"/>
						<g class="st0">
							<path class="st4" d="M20.8,21.7h-3.1v-1.8h8.5v1.8H23V31h-2.2V21.7z"/>
							<path class="st4" d="M26.2,28.7c0-1.8,1.5-2.7,4.8-3.1c0-0.8-0.4-1.5-1.4-1.5c-0.8,0-1.5,0.3-2.3,0.8l-0.8-1.5
								c1-0.6,2.2-1.1,3.5-1.1c2.1,0,3.2,1.3,3.2,3.7V31h-1.8l-0.2-0.9h0c-0.7,0.6-1.6,1.1-2.5,1.1C27.2,31.2,26.2,30.1,26.2,28.7z
								 M31,28.7V27c-2,0.3-2.7,0.8-2.7,1.6c0,0.7,0.5,0.9,1.1,0.9C30.1,29.5,30.5,29.2,31,28.7z"/>
							<path class="st4" d="M35.5,22.6h1.8l0.1,1.5h0.1c0.6-1.1,1.5-1.7,2.4-1.7c0.5,0,0.7,0.1,1,0.2l-0.4,1.9
								c-0.3-0.1-0.5-0.1-0.9-0.1c-0.7,0-1.5,0.4-1.9,1.7v5h-2.2V22.6z"/>
							<path class="st4" d="M41.3,32.5c0-0.7,0.4-1.3,1.2-1.7v-0.1c-0.4-0.3-0.8-0.7-0.8-1.4c0-0.6,0.4-1.2,0.9-1.6v-0.1
								c-0.6-0.4-1.1-1.2-1.1-2.2c0-2,1.6-3,3.4-3c0.5,0,0.9,0.1,1.3,0.2h3v1.6h-1.4c0.2,0.3,0.4,0.8,0.4,1.3c0,1.9-1.4,2.8-3.2,2.8
								c-0.3,0-0.7-0.1-1.1-0.2c-0.2,0.2-0.4,0.4-0.4,0.7c0,0.5,0.3,0.7,1.3,0.7h1.4c2,0,3.1,0.6,3.1,2.1c0,1.7-1.8,3-4.6,3
								C42.8,34.6,41.3,34,41.3,32.5z M47.3,32c0-0.6-0.5-0.8-1.4-0.8h-1c-0.5,0-0.9,0-1.2-0.1c-0.4,0.3-0.6,0.6-0.6,1
								c0,0.7,0.8,1.1,2,1.1C46.4,33.2,47.3,32.7,47.3,32z M46.3,25.4c0-1-0.6-1.5-1.3-1.5s-1.3,0.6-1.3,1.5c0,1,0.6,1.5,1.3,1.5
								S46.3,26.4,46.3,25.4z"/>
							<path class="st4" d="M50,26.8c0-2.7,1.9-4.4,3.9-4.4c2.3,0,3.5,1.7,3.5,4c0,0.4,0,0.8-0.1,1h-5.2c0.2,1.4,1.1,2.1,2.3,2.1
								c0.7,0,1.3-0.2,1.9-0.6l0.8,1.4c-0.8,0.6-1.9,0.9-2.9,0.9C51.8,31.2,50,29.6,50,26.8z M55.5,26c0-1.1-0.5-1.9-1.6-1.9
								c-0.9,0-1.7,0.6-1.8,1.9H55.5z"/>
							<path class="st4" d="M59.4,28.1v-3.7h-1.2v-1.6l1.3-0.1l0.3-2.2h1.8v2.2h2.1v1.7h-2.1v3.7c0,1,0.4,1.4,1.1,1.4
								c0.3,0,0.6-0.1,0.8-0.2l0.4,1.6c-0.5,0.2-1,0.3-1.8,0.3C60.1,31.2,59.4,30,59.4,28.1z"/>
							<path class="st4" d="M69,19.9h3c3.4,0,5.5,1.8,5.5,5.5c0,3.7-2.1,5.6-5.4,5.6H69V19.9z M71.9,29.2c2.1,0,3.4-1.1,3.4-3.8
								c0-2.7-1.3-3.7-3.4-3.7h-0.7v7.5H71.9z"/>
							<path class="st4" d="M79.3,20.1c0-0.7,0.6-1.2,1.3-1.2c0.8,0,1.3,0.5,1.3,1.2c0,0.7-0.6,1.2-1.3,1.2
								C79.8,21.2,79.3,20.7,79.3,20.1z M79.5,22.6h2.2V31h-2.2V22.6z"/>
							<path class="st4" d="M83.2,30l1-1.4c0.8,0.6,1.5,0.9,2.2,0.9c0.8,0,1.2-0.4,1.2-0.9c0-0.6-0.9-0.9-1.8-1.3
								c-1.1-0.4-2.3-1-2.3-2.4c0-1.5,1.2-2.6,3.1-2.6c1.2,0,2.2,0.5,2.9,1l-1,1.3c-0.6-0.4-1.2-0.7-1.8-0.7c-0.8,0-1.1,0.3-1.1,0.8
								c0,0.6,0.8,0.8,1.7,1.2c1.1,0.4,2.3,1,2.3,2.5c0,1.5-1.2,2.7-3.3,2.7C85.3,31.2,84.1,30.7,83.2,30z"/>
							<path class="st4" d="M90.9,26.8c0-2.7,1.9-4.4,3.9-4.4c2.3,0,3.5,1.7,3.5,4c0,0.4,0,0.8-0.1,1h-5.2c0.2,1.4,1.1,2.1,2.3,2.1
								c0.7,0,1.3-0.2,1.9-0.6l0.8,1.4c-0.8,0.6-1.9,0.9-2.9,0.9C92.8,31.2,90.9,29.6,90.9,26.8z M96.5,26c0-1.1-0.5-1.9-1.6-1.9
								c-0.9,0-1.7,0.6-1.8,1.9H96.5z"/>
							<path class="st4" d="M99.6,28.7c0-1.8,1.5-2.7,4.8-3.1c0-0.8-0.4-1.5-1.4-1.5c-0.8,0-1.5,0.3-2.3,0.8l-0.8-1.5
								c1-0.6,2.2-1.1,3.5-1.1c2.1,0,3.2,1.3,3.2,3.7V31h-1.8l-0.2-0.9h0c-0.7,0.6-1.6,1.1-2.5,1.1C100.5,31.2,99.6,30.1,99.6,28.7z
								 M104.4,28.7V27c-2,0.3-2.7,0.8-2.7,1.6c0,0.7,0.5,0.9,1.1,0.9C103.4,29.5,103.9,29.2,104.4,28.7z"/>
							<path class="st4" d="M108,30l1-1.4c0.8,0.6,1.5,0.9,2.2,0.9c0.8,0,1.2-0.4,1.2-0.9c0-0.6-0.9-0.9-1.8-1.3
								c-1.1-0.4-2.3-1-2.3-2.4c0-1.5,1.2-2.6,3.1-2.6c1.2,0,2.2,0.5,2.9,1l-1,1.3c-0.6-0.4-1.2-0.7-1.8-0.7c-0.8,0-1.1,0.3-1.1,0.8
								c0,0.6,0.8,0.8,1.7,1.2c1.1,0.4,2.3,1,2.3,2.5c0,1.5-1.2,2.7-3.3,2.7C110.1,31.2,108.9,30.7,108,30z"/>
							<path class="st4" d="M115.7,26.8c0-2.7,1.9-4.4,3.9-4.4c2.3,0,3.5,1.7,3.5,4c0,0.4,0,0.8-0.1,1h-5.2c0.2,1.4,1.1,2.1,2.3,2.1
								c0.7,0,1.3-0.2,1.9-0.6l0.8,1.4c-0.8,0.6-1.9,0.9-2.9,0.9C117.6,31.2,115.7,29.6,115.7,26.8z M121.3,26
								c0-1.1-0.5-1.9-1.6-1.9c-0.9,0-1.7,0.6-1.8,1.9H121.3z"/>
						</g>
					</g>
				</g>
				<g id="others" transform="translate(280.000000, 0.000000)">
					<g>
						<path class="st5" d="M8.8,0.8h132.5c4.4,0,8,3.6,8,8v32.5c0,4.4-3.6,8-8,8H8.8c-4.4,0-8-3.6-8-8V8.8C0.8,4.3,4.3,0.8,8.8,0.8z
							"/>
						<g class="st0">
							<path class="st4" d="M21.5,19.9h3.7c2.3,0,4,0.7,4,2.7c0,1-0.6,2.1-1.5,2.4v0.1c1.2,0.3,2.1,1.1,2.1,2.6
								c0,2.2-1.9,3.3-4.3,3.3h-4V19.9z M25,24.4c1.4,0,2-0.6,2-1.5c0-1-0.7-1.4-2-1.4h-1.3v2.8H25z M25.2,29.3
								c1.5,0,2.3-0.5,2.3-1.7c0-1.1-0.8-1.5-2.3-1.5h-1.5v3.2H25.2z"/>
							<path class="st4" d="M31.1,28.7c0-1.8,1.5-2.7,4.8-3.1c0-0.8-0.4-1.5-1.4-1.5c-0.8,0-1.5,0.3-2.3,0.8l-0.8-1.5
								c1-0.6,2.2-1.1,3.5-1.1c2.1,0,3.2,1.3,3.2,3.7V31h-1.8l-0.2-0.9h0c-0.7,0.6-1.6,1.1-2.5,1.1C32.1,31.2,31.1,30.1,31.1,28.7z
								 M35.9,28.7V27c-2,0.3-2.7,0.8-2.7,1.6c0,0.7,0.5,0.9,1.1,0.9C34.9,29.5,35.4,29.2,35.9,28.7z"/>
							<path class="st4" d="M39.6,30l1-1.4c0.8,0.6,1.5,0.9,2.2,0.9c0.8,0,1.2-0.4,1.2-0.9c0-0.6-0.9-0.9-1.8-1.3
								C41.2,27,40,26.4,40,25c0-1.5,1.2-2.6,3.1-2.6c1.2,0,2.2,0.5,2.9,1l-1,1.3c-0.6-0.4-1.2-0.7-1.8-0.7c-0.8,0-1.1,0.3-1.1,0.8
								c0,0.6,0.8,0.8,1.7,1.2c1.1,0.4,2.3,1,2.3,2.5c0,1.5-1.2,2.7-3.3,2.7C41.6,31.2,40.4,30.7,39.6,30z"/>
							<path class="st4" d="M47.6,20.1c0-0.7,0.6-1.2,1.3-1.2c0.8,0,1.3,0.5,1.3,1.2c0,0.7-0.6,1.2-1.3,1.2
								C48.1,21.2,47.6,20.7,47.6,20.1z M47.8,22.6H50V31h-2.2V22.6z"/>
							<path class="st4" d="M51.8,26.8c0-2.8,2-4.4,4.3-4.4c1,0,1.8,0.4,2.4,0.9l-1,1.4c-0.4-0.4-0.8-0.6-1.3-0.6
								c-1.3,0-2.1,1-2.1,2.6c0,1.6,0.9,2.6,2.1,2.6c0.6,0,1.2-0.3,1.6-0.7l0.9,1.5c-0.8,0.7-1.8,1-2.7,1
								C53.6,31.2,51.8,29.6,51.8,26.8z"/>
							<path class="st4" d="M69.9,31l-2.3-4.2h-1.5V31h-2.2V19.9h3.9c2.3,0,4.2,0.8,4.2,3.4c0,1.7-0.8,2.7-2.1,3.2l2.6,4.5H69.9z
								 M66.1,25h1.4c1.4,0,2.2-0.6,2.2-1.8c0-1.2-0.8-1.6-2.2-1.6h-1.4V25z"/>
							<path class="st4" d="M73.2,26.8c0-2.7,1.9-4.4,3.9-4.4c2.3,0,3.5,1.7,3.5,4c0,0.4,0,0.8-0.1,1h-5.2c0.2,1.4,1.1,2.1,2.3,2.1
								c0.7,0,1.3-0.2,1.9-0.6l0.8,1.4c-0.8,0.6-1.9,0.9-2.9,0.9C75,31.2,73.2,29.6,73.2,26.8z M78.7,26c0-1.1-0.5-1.9-1.6-1.9
								c-0.9,0-1.7,0.6-1.8,1.9H78.7z"/>
							<path class="st4" d="M81.6,30l1-1.4c0.8,0.6,1.5,0.9,2.2,0.9c0.8,0,1.2-0.4,1.2-0.9c0-0.6-0.9-0.9-1.8-1.3
								C83.3,27,82,26.4,82,25c0-1.5,1.2-2.6,3.1-2.6c1.2,0,2.2,0.5,2.9,1l-1,1.3c-0.6-0.4-1.2-0.7-1.8-0.7c-0.8,0-1.1,0.3-1.1,0.8
								c0,0.6,0.8,0.8,1.7,1.2c1.1,0.4,2.3,1,2.3,2.5c0,1.5-1.2,2.7-3.3,2.7C83.7,31.2,82.5,30.7,81.6,30z"/>
							<path class="st4" d="M89.3,26.8c0-2.7,1.9-4.4,3.9-4.4c2.3,0,3.5,1.7,3.5,4c0,0.4,0,0.8-0.1,1h-5.2c0.2,1.4,1.1,2.1,2.3,2.1
								c0.7,0,1.3-0.2,1.9-0.6l0.8,1.4c-0.8,0.6-1.9,0.9-2.9,0.9C91.2,31.2,89.3,29.6,89.3,26.8z M94.9,26c0-1.1-0.5-1.9-1.6-1.9
								c-0.9,0-1.7,0.6-1.8,1.9H94.9z"/>
							<path class="st4" d="M97.9,28.7c0-1.8,1.5-2.7,4.8-3.1c0-0.8-0.4-1.5-1.4-1.5c-0.8,0-1.5,0.3-2.3,0.8l-0.8-1.5
								c1-0.6,2.2-1.1,3.5-1.1c2.1,0,3.2,1.3,3.2,3.7V31h-1.8l-0.2-0.9h0c-0.7,0.6-1.6,1.1-2.5,1.1C98.9,31.2,97.9,30.1,97.9,28.7z
								 M102.8,28.7V27c-2,0.3-2.7,0.8-2.7,1.6c0,0.7,0.5,0.9,1.1,0.9C101.8,29.5,102.2,29.2,102.8,28.7z"/>
							<path class="st4" d="M107.2,22.6h1.8l0.1,1.5h0.1c0.6-1.1,1.5-1.7,2.4-1.7c0.5,0,0.7,0.1,1,0.2l-0.4,1.9
								c-0.3-0.1-0.5-0.1-0.9-0.1c-0.7,0-1.5,0.4-1.9,1.7v5h-2.2V22.6z"/>
							<path class="st4" d="M113.1,26.8c0-2.8,2-4.4,4.3-4.4c1,0,1.8,0.4,2.4,0.9l-1,1.4c-0.4-0.4-0.8-0.6-1.3-0.6
								c-1.3,0-2.1,1-2.1,2.6c0,1.6,0.9,2.6,2.1,2.6c0.6,0,1.2-0.3,1.6-0.7l0.9,1.5c-0.8,0.7-1.8,1-2.7,1
								C114.8,31.2,113.1,29.6,113.1,26.8z"/>
							<path class="st4" d="M121.5,19h2.2v3l-0.1,1.6c0.7-0.6,1.5-1.2,2.6-1.2c1.8,0,2.6,1.3,2.6,3.4V31h-2.2v-5
								c0-1.3-0.4-1.8-1.2-1.8c-0.7,0-1.1,0.3-1.8,0.9V31h-2.2V19z"/>
						</g>
					</g>
					<g transform="translate(317.000000, 0.000000)">
						<path class="st5" d="M8.8,0.8h132.5c4.4,0,8,3.6,8,8v32.5c0,4.4-3.6,8-8,8H8.8c-4.4,0-8-3.6-8-8V8.8C0.8,4.3,4.3,0.8,8.8,0.8z
							"/>
						<path class="st5" d="M58.8,0.8h32.5c4.4,0,8,3.6,8,8v32.5c0,4.4-3.6,8-8,8H58.8c-4.4,0-8-3.6-8-8V8.8
							C50.8,4.3,54.3,0.8,58.8,0.8z"/>
						<g class="st0">
							<path class="st4" d="M32.3,18.5c0-3.6,2.2-5.8,5-5.8c1.4,0,2.5,0.7,3.1,1.4l-0.9,1.1c-0.6-0.6-1.3-1-2.2-1
								c-1.9,0-3.2,1.6-3.2,4.2c0,2.6,1.2,4.2,3.2,4.2c1,0,1.8-0.4,2.4-1.2l0.9,1.1c-0.9,1-2,1.6-3.4,1.6
								C34.4,24.2,32.3,22.1,32.3,18.5z"/>
							<path class="st4" d="M42.4,22.1V12h1.7v10.1c0,0.5,0.2,0.6,0.4,0.6c0.1,0,0.1,0,0.3,0l0.2,1.3c-0.2,0.1-0.5,0.1-0.9,0.1
								C42.9,24.2,42.4,23.4,42.4,22.1z"/>
							<path class="st4" d="M46.7,13.2c0-0.6,0.5-1,1.1-1s1.1,0.4,1.1,1c0,0.6-0.5,1-1.1,1S46.7,13.8,46.7,13.2z M46.9,15.8h1.7V24
								h-1.7V15.8z"/>
							<path class="st4" d="M51.2,15.8h1.4l0.1,1.1h0c0.8-0.7,1.6-1.4,2.7-1.4c1.8,0,2.5,1.2,2.5,3.3V24h-1.7v-5c0-1.4-0.4-2-1.4-2
								c-0.8,0-1.3,0.4-2,1.1V24h-1.7V15.8z"/>
							<path class="st4" d="M60.3,13.2c0-0.6,0.5-1,1.1-1s1.1,0.4,1.1,1c0,0.6-0.5,1-1.1,1S60.3,13.8,60.3,13.2z M60.6,15.8h1.7V24
								h-1.7V15.8z"/>
							<path class="st4" d="M64.3,19.9c0-2.8,1.9-4.4,4.1-4.4c1,0,1.8,0.4,2.4,0.9l-0.9,1.1C69.5,17.2,69,17,68.4,17
								c-1.4,0-2.4,1.2-2.4,2.9c0,1.7,0.9,2.9,2.3,2.9c0.7,0,1.3-0.3,1.8-0.8l0.7,1.1c-0.8,0.7-1.7,1-2.7,1
								C66,24.2,64.3,22.6,64.3,19.9z"/>
							<path class="st4" d="M72,21.8c0-1.8,1.5-2.7,4.9-3.1c0-1-0.4-1.8-1.6-1.8c-0.9,0-1.7,0.4-2.4,0.8l-0.6-1.2
								c0.9-0.5,2-1.1,3.3-1.1c2.1,0,3,1.3,3,3.5v5h-1.4l-0.2-0.9h0c-0.8,0.6-1.6,1.1-2.6,1.1C73,24.2,72,23.3,72,21.8z M76.9,21.9
								v-2c-2.4,0.3-3.3,0.9-3.3,1.8c0,0.8,0.6,1.1,1.3,1.1C75.7,22.8,76.2,22.5,76.9,21.9z"/>
							<path class="st4" d="M81.1,22.1V12h1.7v10.1c0,0.5,0.2,0.6,0.4,0.6c0.1,0,0.1,0,0.3,0l0.2,1.3c-0.2,0.1-0.5,0.1-0.9,0.1
								C81.6,24.2,81.1,23.4,81.1,22.1z"/>
							<path class="st4" d="M91.3,14.4h-3.2V13h8.2v1.5h-3.3V24h-1.7V14.4z"/>
							<path class="st4" d="M97.3,15.8h1.4l0.1,1.5h0c0.6-1.1,1.5-1.7,2.3-1.7c0.4,0,0.7,0.1,0.9,0.2l-0.3,1.5
								c-0.3-0.1-0.5-0.1-0.8-0.1c-0.7,0-1.5,0.5-2,1.8V24h-1.7V15.8z"/>
							<path class="st4" d="M103.2,13.2c0-0.6,0.5-1,1.1-1c0.6,0,1.1,0.4,1.1,1c0,0.6-0.5,1-1.1,1C103.7,14.2,103.2,13.8,103.2,13.2
								z M103.5,15.8h1.7V24h-1.7V15.8z"/>
							<path class="st4" d="M107.3,21.8c0-1.8,1.5-2.7,4.9-3.1c0-1-0.4-1.8-1.6-1.8c-0.9,0-1.7,0.4-2.4,0.8l-0.6-1.2
								c0.9-0.5,2-1.1,3.3-1.1c2.1,0,3,1.3,3,3.5v5h-1.4l-0.1-0.9h0c-0.8,0.6-1.6,1.1-2.6,1.1C108.3,24.2,107.3,23.3,107.3,21.8z
								 M112.2,21.9v-2c-2.4,0.3-3.3,0.9-3.3,1.8c0,0.8,0.6,1.1,1.3,1.1C111,22.8,111.5,22.5,112.2,21.9z"/>
							<path class="st4" d="M116.4,22.1V12h1.7v10.1c0,0.5,0.2,0.6,0.4,0.6c0.1,0,0.1,0,0.3,0l0.2,1.3c-0.2,0.1-0.5,0.1-0.9,0.1
								C116.9,24.2,116.4,23.4,116.4,22.1z"/>
						</g>
						<g class="st0">
							<path class="st4" d="M21.3,33.6h2.2c1.6,0,2.8,0.6,2.8,2.2c0,1.6-1.2,2.3-2.8,2.3h-1.1V41h-1.2V33.6z M23.4,37.3
								c1.2,0,1.7-0.5,1.7-1.4c0-1-0.6-1.3-1.8-1.3h-1v2.7H23.4z"/>
							<path class="st4" d="M27.6,33h1.1v2.1l0,1.1c0.5-0.5,1-0.9,1.8-0.9c1.2,0,1.7,0.8,1.7,2.2V41h-1.1v-3.3
								c0-0.9-0.3-1.3-0.9-1.3c-0.5,0-0.9,0.3-1.3,0.8V41h-1.1V33z"/>
							<path class="st4" d="M33.8,40.1h1.6v-5.1h-1.3v-0.7c0.7-0.1,1.2-0.3,1.6-0.6h0.9v6.4H38V41h-4.2V40.1z"/>
						</g>
						<g class="st0">
							<path class="st4" d="M67.3,33.6h2.2c1.6,0,2.8,0.6,2.8,2.2c0,1.6-1.2,2.3-2.8,2.3h-1.1V41h-1.2V33.6z M69.4,37.3
								c1.2,0,1.7-0.5,1.7-1.4c0-1-0.6-1.3-1.8-1.3h-1v2.7H69.4z"/>
							<path class="st4" d="M73.6,33h1.1v2.1l0,1.1c0.5-0.5,1-0.9,1.8-0.9c1.2,0,1.7,0.8,1.7,2.2V41h-1.1v-3.3
								c0-0.9-0.3-1.3-0.9-1.3c-0.5,0-0.9,0.3-1.3,0.8V41h-1.1V33z"/>
							<path class="st4" d="M79.4,40.3c2.2-1.9,3.3-3.3,3.3-4.6c0-0.8-0.4-1.3-1.2-1.3c-0.6,0-1.1,0.4-1.4,0.8l-0.7-0.6
								c0.6-0.7,1.3-1.1,2.2-1.1c1.3,0,2.2,0.9,2.2,2.2c0,1.4-1.1,2.9-2.7,4.4c0.4,0,0.8-0.1,1.2-0.1h1.8v1h-4.7V40.3z"/>
						</g>
						<g class="st0">
							<path class="st4" d="M117.3,33.6h2.2c1.6,0,2.8,0.6,2.8,2.2c0,1.6-1.2,2.3-2.8,2.3h-1.1V41h-1.2V33.6z M119.4,37.3
								c1.2,0,1.7-0.5,1.7-1.4c0-1-0.6-1.3-1.8-1.3h-1v2.7H119.4z"/>
							<path class="st4" d="M123.6,33h1.1v2.1l0,1.1c0.5-0.5,1-0.9,1.8-0.9c1.2,0,1.7,0.8,1.7,2.2V41h-1.1v-3.3
								c0-0.9-0.3-1.3-0.9-1.3c-0.5,0-0.9,0.3-1.3,0.8V41h-1.1V33z"/>
							<path class="st4" d="M129.3,40.1l0.6-0.7c0.4,0.4,1,0.8,1.7,0.8c0.8,0,1.4-0.5,1.4-1.2c0-0.8-0.5-1.3-2.2-1.3v-0.8
								c1.4,0,1.9-0.5,1.9-1.3c0-0.7-0.4-1.1-1.1-1.1c-0.6,0-1,0.3-1.5,0.7l-0.6-0.7c0.6-0.5,1.3-0.9,2.1-0.9c1.3,0,2.2,0.7,2.2,1.9
								c0,0.8-0.5,1.4-1.3,1.7v0c0.8,0.2,1.5,0.8,1.5,1.8c0,1.3-1.1,2.1-2.5,2.1C130.5,41.1,129.8,40.7,129.3,40.1z"/>
						</g>
					</g>
					<g transform="translate(157.000000, 0.000000)">
						<path class="st5" d="M8.8,0.8h132.5c4.4,0,8,3.6,8,8v32.5c0,4.4-3.6,8-8,8H8.8c-4.4,0-8-3.6-8-8V8.8C0.8,4.3,4.3,0.8,8.8,0.8z
							"/>
						<g class="st0">
							<path class="st4" d="M34.1,19.9h3.6c2.5,0,4.3,0.9,4.3,3.5c0,2.5-1.9,3.7-4.3,3.7h-1.5V31h-2.2V19.9z M37.7,25.3
								c1.5,0,2.3-0.6,2.3-1.9c0-1.3-0.8-1.7-2.3-1.7h-1.3v3.6H37.7z"/>
							<path class="st4" d="M44,22.6h1.8l0.2,1.5H46c0.6-1.1,1.5-1.7,2.4-1.7c0.5,0,0.7,0.1,1,0.2L49,24.5c-0.3-0.1-0.5-0.1-0.9-0.1
								c-0.7,0-1.5,0.4-1.9,1.7v5H44V22.6z"/>
							<path class="st4" d="M49.8,26.8c0-2.7,1.9-4.4,3.9-4.4c2.3,0,3.5,1.7,3.5,4c0,0.4,0,0.8-0.1,1h-5.2c0.2,1.4,1.1,2.1,2.3,2.1
								c0.7,0,1.3-0.2,1.9-0.6l0.8,1.4c-0.8,0.6-1.9,0.9-2.9,0.9C51.6,31.2,49.8,29.6,49.8,26.8z M55.3,26c0-1.1-0.5-1.9-1.6-1.9
								c-0.9,0-1.7,0.6-1.8,1.9H55.3z"/>
							<path class="st4" d="M58.8,25.9h4.1v1.6h-4.1V25.9z"/>
							<path class="st4" d="M64.4,25.5c0-3.7,2.4-5.8,5.2-5.8c1.4,0,2.5,0.7,3.3,1.4l-1.2,1.4c-0.6-0.5-1.2-0.9-2-0.9
								c-1.7,0-2.9,1.4-2.9,3.8c0,2.4,1.1,3.9,2.9,3.9c0.9,0,1.7-0.5,2.3-1.1l1.2,1.4c-0.9,1.1-2.1,1.6-3.5,1.6
								C66.7,31.2,64.4,29.2,64.4,25.5z"/>
							<path class="st4" d="M74.6,28.6V19h2.2v9.7c0,0.5,0.2,0.7,0.5,0.7c0.1,0,0.1,0,0.3,0l0.3,1.6c-0.3,0.1-0.6,0.2-1.1,0.2
								C75.2,31.2,74.6,30.2,74.6,28.6z"/>
							<path class="st4" d="M79.1,20.1c0-0.7,0.6-1.2,1.3-1.2c0.8,0,1.3,0.5,1.3,1.2c0,0.7-0.6,1.2-1.3,1.2
								C79.7,21.2,79.1,20.7,79.1,20.1z M79.4,22.6h2.2V31h-2.2V22.6z"/>
							<path class="st4" d="M83.9,22.6h1.8l0.2,1.1h0.1c0.7-0.7,1.6-1.3,2.7-1.3c1.8,0,2.6,1.3,2.6,3.4V31H89v-5
								c0-1.3-0.4-1.8-1.2-1.8c-0.7,0-1.1,0.3-1.8,0.9V31h-2.2V22.6z"/>
							<path class="st4" d="M93.3,20.1c0-0.7,0.6-1.2,1.3-1.2c0.8,0,1.3,0.5,1.3,1.2c0,0.7-0.6,1.2-1.3,1.2
								C93.9,21.2,93.3,20.7,93.3,20.1z M93.5,22.6h2.2V31h-2.2V22.6z"/>
							<path class="st4" d="M97.6,26.8c0-2.8,2-4.4,4.3-4.4c1,0,1.8,0.4,2.4,0.9l-1,1.4c-0.4-0.4-0.8-0.6-1.3-0.6
								c-1.3,0-2.1,1-2.1,2.6c0,1.6,0.9,2.6,2.1,2.6c0.6,0,1.2-0.3,1.6-0.7l0.9,1.5c-0.8,0.7-1.8,1-2.7,1
								C99.3,31.2,97.6,29.6,97.6,26.8z"/>
							<path class="st4" d="M105.4,28.7c0-1.8,1.5-2.7,4.8-3.1c0-0.8-0.4-1.5-1.4-1.5c-0.8,0-1.5,0.3-2.3,0.8l-0.8-1.5
								c1-0.6,2.2-1.1,3.5-1.1c2.1,0,3.2,1.3,3.2,3.7V31h-1.8l-0.2-0.9h0c-0.7,0.6-1.6,1.1-2.5,1.1
								C106.4,31.2,105.4,30.1,105.4,28.7z M110.2,28.7V27c-2,0.3-2.7,0.8-2.7,1.6c0,0.7,0.5,0.9,1.1,0.9
								C109.2,29.5,109.7,29.2,110.2,28.7z"/>
							<path class="st4" d="M114.7,28.6V19h2.2v9.7c0,0.5,0.2,0.7,0.5,0.7c0.1,0,0.1,0,0.3,0l0.3,1.6c-0.3,0.1-0.6,0.2-1.1,0.2
								C115.2,31.2,114.7,30.2,114.7,28.6z"/>
						</g>
					</g>
					<g transform="translate(477.000000, 0.000000)">
						<path class="st5" d="M8.8,0.8h132.5c4.4,0,8,3.6,8,8v32.5c0,4.4-3.6,8-8,8H8.8c-4.4,0-8-3.6-8-8V8.8C0.8,4.3,4.3,0.8,8.8,0.8z
							"/>
						<g class="st0">
							<path class="st4" d="M13,19.9h2.5l1.9,5.2c0.2,0.7,0.4,1.4,0.7,2.1h0.1c0.2-0.7,0.4-1.5,0.7-2.1l1.8-5.2h2.5V31h-2v-4.6
								c0-1,0.2-2.6,0.3-3.6h-0.1l-0.9,2.6L18.7,30h-1.3l-1.7-4.7l-0.9-2.6h-0.1c0.1,1,0.3,2.6,0.3,3.6V31h-2V19.9z"/>
							<path class="st4" d="M25.2,28.7c0-1.8,1.5-2.7,4.8-3.1c0-0.8-0.4-1.5-1.4-1.5c-0.8,0-1.5,0.3-2.3,0.8l-0.8-1.5
								c1-0.6,2.2-1.1,3.5-1.1c2.1,0,3.2,1.3,3.2,3.7V31h-1.8l-0.2-0.9h0c-0.7,0.6-1.6,1.1-2.5,1.1C26.2,31.2,25.2,30.1,25.2,28.7z
								 M30.1,28.7V27c-2,0.3-2.7,0.8-2.7,1.6c0,0.7,0.5,0.9,1.1,0.9C29.1,29.5,29.5,29.2,30.1,28.7z"/>
							<path class="st4" d="M34.5,22.6h1.8l0.1,1.5h0.1c0.6-1.1,1.5-1.7,2.4-1.7c0.5,0,0.7,0.1,1,0.2l-0.4,1.9
								c-0.3-0.1-0.5-0.1-0.9-0.1c-0.7,0-1.5,0.4-1.9,1.7v5h-2.2V22.6z"/>
							<path class="st4" d="M41.1,19h2.1v7.2h0.1l2.9-3.6h2.4L45.7,26l3.2,5h-2.4l-2-3.5l-1.2,1.4V31h-2.1V19z"/>
							<path class="st4" d="M49.2,26.8c0-2.7,1.9-4.4,3.9-4.4c2.3,0,3.5,1.7,3.5,4c0,0.4,0,0.8-0.1,1h-5.2c0.2,1.4,1.1,2.1,2.3,2.1
								c0.7,0,1.3-0.2,1.9-0.6l0.8,1.4c-0.8,0.6-1.9,0.9-2.9,0.9C51,31.2,49.2,29.6,49.2,26.8z M54.7,26c0-1.1-0.5-1.9-1.6-1.9
								c-0.9,0-1.7,0.6-1.8,1.9H54.7z"/>
							<path class="st4" d="M58.6,28.1v-3.7h-1.2v-1.6l1.3-0.1l0.3-2.2h1.8v2.2h2.1v1.7h-2.1v3.7c0,1,0.4,1.4,1.1,1.4
								c0.3,0,0.6-0.1,0.8-0.2l0.4,1.6c-0.5,0.2-1,0.3-1.8,0.3C59.3,31.2,58.6,30,58.6,28.1z"/>
							<path class="st4" d="M68.1,19.9h2.2v9.2h4.5V31h-6.7V19.9z"/>
							<path class="st4" d="M76.2,28.7c0-1.8,1.5-2.7,4.8-3.1c0-0.8-0.4-1.5-1.4-1.5c-0.8,0-1.5,0.3-2.3,0.8l-0.8-1.5
								c1-0.6,2.2-1.1,3.5-1.1c2.1,0,3.2,1.3,3.2,3.7V31h-1.8l-0.2-0.9h0c-0.7,0.6-1.6,1.1-2.5,1.1C77.2,31.2,76.2,30.1,76.2,28.7z
								 M81,28.7V27c-2,0.3-2.7,0.8-2.7,1.6c0,0.7,0.5,0.9,1.1,0.9C80,29.5,80.5,29.2,81,28.7z"/>
							<path class="st4" d="M85.4,27.9v-5.2h2.2v5c0,1.3,0.4,1.8,1.2,1.8c0.7,0,1.1-0.3,1.7-1v-5.7h2.2V31h-1.8l-0.2-1.2h-0.1
								c-0.7,0.9-1.5,1.4-2.7,1.4C86.2,31.2,85.4,30,85.4,27.9z"/>
							<path class="st4" d="M95,22.6h1.8l0.1,1.1H97c0.7-0.7,1.6-1.3,2.7-1.3c1.8,0,2.6,1.3,2.6,3.4V31h-2.2v-5
								c0-1.3-0.4-1.8-1.2-1.8c-0.7,0-1.1,0.3-1.8,0.9V31H95V22.6z"/>
							<path class="st4" d="M104.1,26.8c0-2.8,2-4.4,4.3-4.4c1,0,1.8,0.4,2.4,0.9l-1,1.4c-0.4-0.4-0.8-0.6-1.3-0.6
								c-1.3,0-2.1,1-2.1,2.6c0,1.6,0.9,2.6,2.1,2.6c0.6,0,1.2-0.3,1.6-0.7l0.9,1.5c-0.8,0.7-1.8,1-2.7,1
								C105.9,31.2,104.1,29.6,104.1,26.8z"/>
							<path class="st4" d="M112.5,19h2.2v3l-0.1,1.6c0.7-0.6,1.5-1.2,2.6-1.2c1.8,0,2.6,1.3,2.6,3.4V31h-2.2v-5
								c0-1.3-0.4-1.8-1.2-1.8c-0.7,0-1.1,0.3-1.8,0.9V31h-2.2V19z"/>
							<path class="st4" d="M121.6,26.8c0-2.7,1.9-4.4,3.9-4.4c2.3,0,3.5,1.7,3.5,4c0,0.4,0,0.8-0.1,1h-5.2c0.2,1.4,1.1,2.1,2.3,2.1
								c0.7,0,1.3-0.2,1.9-0.6l0.8,1.4c-0.8,0.6-1.9,0.9-2.9,0.9C123.4,31.2,121.6,29.6,121.6,26.8z M127.2,26
								c0-1.1-0.5-1.9-1.6-1.9c-0.9,0-1.7,0.6-1.8,1.9H127.2z"/>
							<path class="st4" d="M130.4,26.8c0-2.7,1.7-4.4,3.5-4.4c0.9,0,1.5,0.4,2.1,0.9l-0.1-1.3v-3h2.2v12h-1.8l-0.2-0.9h0
								c-0.6,0.6-1.5,1.1-2.3,1.1C131.7,31.2,130.4,29.6,130.4,26.8z M135.9,28.5v-3.7c-0.5-0.5-1-0.6-1.6-0.6
								c-0.9,0-1.7,0.9-1.7,2.6c0,1.7,0.6,2.6,1.7,2.6C135,29.4,135.5,29.2,135.9,28.5z"/>
						</g>
					</g>
				</g>
				<g id="수직_divider" transform="translate(279.000000, 60.000000)">
					<path id="divider" class="st6" d="M1,0v122"/>
					<path class="st6" d="M159,0v122"/>
					<path class="st6" d="M319,0v122"/>
					<path class="st6" d="M369,0v122"/>
					<path class="st6" d="M419,0v122"/>
					<path class="st6" d="M479,0v122"/>
				</g>
				<path class="st7" d="M0,111.5h907"/>
				<g id="bars" transform="translate(289.000000, 60.000000)">
					<g id="bar1" transform="translate(0.000000, 66.000000)">
						<path id="bar" class="st8" d="M21,0.5h343c11.3,0,20.5,9.2,20.5,20.5l0,0c0,11.3-9.2,20.5-20.5,20.5H21
							C9.7,41.5,0.5,32.3,0.5,21l0,0C0.5,9.7,9.7,0.5,21,0.5z"/>
						<g id="text" transform="translate(142.000000, 13.000000)">
							<g class="st0">
								<path class="st4" d="M0.6,9.5c0-2.9,1.6-4.6,4-4.6c2.4,0,4,1.7,4,4.6c0,2.9-1.6,4.6-4,4.6C2.3,14.2,0.6,12.4,0.6,9.5z
									 M6.8,9.5c0-1.9-0.8-3-2.2-3c-1.3,0-2.2,1.1-2.2,3c0,1.9,0.8,3.1,2.2,3.1C5.9,12.6,6.8,11.4,6.8,9.5z"/>
								<path class="st4" d="M10.2,7.3h1.4l0.1,0.9h0c0.6-0.6,1.3-1.1,2.2-1.1c1.5,0,2.1,1,2.1,2.7V14h-1.8v-4c0-1-0.3-1.4-0.9-1.4
									c-0.6,0-0.9,0.3-1.4,0.8V14h-1.8V7.3z"/>
								<path class="st4" d="M17.4,15.2c0-0.6,0.3-1,1-1.4v-0.1c-0.3-0.2-0.6-0.6-0.6-1.1c0-0.5,0.3-1,0.7-1.3v0
									c-0.5-0.3-0.9-1-0.9-1.8c0-1.6,1.3-2.4,2.7-2.4c0.4,0,0.7,0.1,1,0.2h2.4v1.3h-1.2c0.2,0.2,0.3,0.6,0.3,1
									c0,1.5-1.2,2.3-2.6,2.3c-0.3,0-0.6-0.1-0.9-0.2c-0.2,0.2-0.3,0.3-0.3,0.6c0,0.4,0.3,0.6,1.1,0.6h1.1c1.6,0,2.5,0.5,2.5,1.7
									c0,1.4-1.4,2.4-3.6,2.4C18.7,16.9,17.4,16.4,17.4,15.2z M22.2,14.8c0-0.5-0.4-0.6-1.1-0.6h-0.8c-0.4,0-0.7,0-0.9-0.1
									c-0.3,0.2-0.4,0.5-0.4,0.8c0,0.6,0.6,0.9,1.6,0.9C21.5,15.8,22.2,15.4,22.2,14.8z M21.4,9.6c0-0.8-0.4-1.2-1-1.2
									s-1.1,0.4-1.1,1.2c0,0.8,0.5,1.2,1.1,1.2C20.9,10.8,21.4,10.3,21.4,9.6z"/>
								<path class="st4" d="M24.4,10.7c0-2.2,1.5-3.5,3.2-3.5c1.7,0,3.2,1.3,3.2,3.5c0,2.2-1.5,3.5-3.2,3.5
									C25.9,14.2,24.4,12.9,24.4,10.7z M29,10.7c0-1.3-0.5-2.1-1.4-2.1c-0.9,0-1.4,0.8-1.4,2.1c0,1.3,0.5,2.1,1.4,2.1
									C28.5,12.7,29,11.9,29,10.7z"/>
								<path class="st4" d="M32.2,5.2c0-0.6,0.4-1,1.1-1c0.6,0,1,0.4,1,1c0,0.6-0.4,1-1,1C32.6,6.2,32.2,5.8,32.2,5.2z M32.3,7.3
									h1.8V14h-1.8V7.3z"/>
								<path class="st4" d="M36,7.3h1.4l0.1,0.9h0c0.6-0.6,1.3-1.1,2.2-1.1c1.5,0,2.1,1,2.1,2.7V14h-1.8v-4c0-1-0.3-1.4-0.9-1.4
									c-0.6,0-0.9,0.3-1.4,0.8V14H36V7.3z"/>
								<path class="st4" d="M43.2,15.2c0-0.6,0.3-1,1-1.4v-0.1c-0.3-0.2-0.6-0.6-0.6-1.1c0-0.5,0.3-1,0.7-1.3v0
									c-0.5-0.3-0.9-1-0.9-1.8c0-1.6,1.3-2.4,2.7-2.4c0.4,0,0.7,0.1,1,0.2h2.4v1.3h-1.2c0.2,0.2,0.3,0.6,0.3,1
									c0,1.5-1.2,2.3-2.6,2.3c-0.3,0-0.6-0.1-0.9-0.2C45.1,11.9,45,12,45,12.3c0,0.4,0.3,0.6,1.1,0.6h1.1c1.6,0,2.5,0.5,2.5,1.7
									c0,1.4-1.4,2.4-3.6,2.4C44.4,16.9,43.2,16.4,43.2,15.2z M48,14.8c0-0.5-0.4-0.6-1.1-0.6h-0.8c-0.4,0-0.7,0-0.9-0.1
									c-0.3,0.2-0.4,0.5-0.4,0.8c0,0.6,0.6,0.9,1.6,0.9C47.3,15.8,48,15.4,48,14.8z M47.2,9.6c0-0.8-0.4-1.2-1-1.2
									s-1.1,0.4-1.1,1.2c0,0.8,0.5,1.2,1.1,1.2C46.7,10.8,47.2,10.3,47.2,9.6z"/>
								<path class="st4" d="M53.4,5.2c0-0.6,0.4-1,1.1-1c0.6,0,1,0.4,1,1c0,0.6-0.4,1-1,1C53.8,6.2,53.4,5.8,53.4,5.2z M53.6,7.3
									h1.8V14h-1.8V7.3z"/>
								<path class="st4" d="M57.2,7.3h1.4l0.1,0.9h0c0.6-0.6,1.3-1.1,2.2-1.1c1.5,0,2.1,1,2.1,2.7V14h-1.8v-4c0-1-0.3-1.4-0.9-1.4
									c-0.6,0-0.9,0.3-1.4,0.8V14h-1.8V7.3z"/>
								<path class="st4" d="M67.8,5.1h1.8V9h0l2.9-3.8h2l-2.7,3.5l3.2,5.4h-2l-2.3-4l-1.2,1.5V14h-1.8V5.1z"/>
								<path class="st4" d="M75.2,10.7c0-2.2,1.5-3.5,3.2-3.5c1.7,0,3.2,1.3,3.2,3.5c0,2.2-1.5,3.5-3.2,3.5
									C76.8,14.2,75.2,12.9,75.2,10.7z M79.9,10.7c0-1.3-0.5-2.1-1.4-2.1c-0.9,0-1.4,0.8-1.4,2.1c0,1.3,0.5,2.1,1.4,2.1
									C79.4,12.7,79.9,11.9,79.9,10.7z"/>
								<path class="st4" d="M83.2,7.3h1.4l0.1,1.2h0c0.5-0.9,1.2-1.4,1.9-1.4c0.4,0,0.6,0.1,0.8,0.1l-0.3,1.5
									c-0.2-0.1-0.4-0.1-0.7-0.1c-0.5,0-1.2,0.3-1.5,1.3v4h-1.8V7.3z"/>
								<path class="st4" d="M87.8,10.7c0-2.2,1.5-3.5,3.1-3.5c1.8,0,2.8,1.4,2.8,3.2c0,0.3,0,0.6-0.1,0.8h-4.1
									c0.1,1.1,0.9,1.7,1.9,1.7c0.6,0,1-0.2,1.5-0.5l0.6,1.1c-0.7,0.5-1.5,0.7-2.4,0.7C89.3,14.2,87.8,12.9,87.8,10.7z M92.3,10
									c0-0.9-0.4-1.5-1.3-1.5c-0.7,0-1.3,0.5-1.5,1.5H92.3z"/>
								<path class="st4" d="M94.7,12.2c0-1.4,1.2-2.2,3.9-2.5c0-0.7-0.3-1.2-1.1-1.2c-0.6,0-1.2,0.3-1.8,0.6L95,8
									c0.8-0.5,1.8-0.9,2.8-0.9c1.7,0,2.6,1,2.6,3V14h-1.4l-0.1-0.7h0c-0.6,0.5-1.3,0.9-2,0.9C95.5,14.2,94.7,13.3,94.7,12.2z
									 M98.6,12.1v-1.4C97,11,96.4,11.4,96.4,12c0,0.5,0.4,0.8,0.9,0.8C97.8,12.8,98.2,12.5,98.6,12.1z"/>
							</g>
						</g>
					</g>
					<g id="bar2">
						<path class="st8" d="M21,0.5h97c11.3,0,20.5,9.2,20.5,20.5l0,0c0,11.3-9.2,20.5-20.5,20.5H21C9.7,41.5,0.5,32.3,0.5,21l0,0
							C0.5,9.7,9.7,0.5,21,0.5z"/>
					</g>
				</g>
			</g>
		</g>
	</g>
</g>
</svg>
