<?xml version="1.0" encoding="utf-8"?>
<!-- Generator: Adobe Illustrator 23.0.4, SVG Export Plug-In . SVG Version: 6.00 Build 0)  -->
<svg version="1.1" id="레이어_1" xmlns="http://www.w3.org/2000/svg" xmlns:xlink="http://www.w3.org/1999/xlink" x="0px"
	 y="0px" viewBox="0 0 1000 533" style="enable-background:new 0 0 1000 533;" xml:space="preserve">
<style type="text/css">
	.st0{fill-rule:evenodd;clip-rule:evenodd;fill:#24A18A;fill-opacity:0.8;stroke:#158B76;stroke-width:2;}
	.st1{enable-background:new    ;}
	.st2{fill:#FFFFFF;}
	.st3{font-family:'NotoSansKR-Medium-KSCpc-EUC-H';}
	.st4{font-size:20px;}
	.st5{font-family:'NotoSansKR-Light-KSCpc-EUC-H';}
	.st6{font-size:18px;}
	.st7{fill:none;stroke:#0E0E0E;stroke-width:2;stroke-linecap:square;}
	.st8{fill:none;stroke:#0E0E0E;stroke-width:2;stroke-linecap:round;stroke-linejoin:round;}
	.st9{fill:none;stroke:#B54142;stroke-width:2;}
	.st10{fill:#333333;}
</style>
<title>table</title>
<desc>Created with Sketch.</desc>
<g id="Page-1">
	<g transform="translate(-220.000000, -520.000000)">
		<g id="third" transform="translate(190.000000, 420.000000)">
			<g id="table" transform="translate(30.000000, 100.000000)">
				<g id="box1">
					<path id="bg" class="st0" d="M9,1h982c4.4,0,8,3.6,8,8v235c0,4.4-3.6,8-8,8H9c-4.4,0-8-3.6-8-8V9C1,4.6,4.6,1,9,1z"/>
					<g class="st1">
						<path class="st2" d="M290.9,43.3h8.7v1.9h-6.4v4.1h5.4v2h-5.4V56h6.6v2h-8.9V43.3z"/>
						<path class="st2" d="M301.7,52.5c0-3.7,2.5-5.8,5.4-5.8c1.4,0,2.4,0.6,3.2,1.3l-1.1,1.5c-0.6-0.5-1.2-0.9-2-0.9
							c-1.8,0-3.2,1.6-3.2,3.9c0,2.3,1.3,3.9,3.1,3.9c0.9,0,1.7-0.4,2.4-1l0.9,1.5c-1,0.9-2.3,1.4-3.6,1.4
							C304,58.3,301.7,56.2,301.7,52.5z"/>
						<path class="st2" d="M311.6,52.5c0-3.7,2.5-5.8,5.2-5.8c2.7,0,5.2,2.1,5.2,5.8c0,3.6-2.5,5.7-5.2,5.7
							C314,58.3,311.6,56.2,311.6,52.5z M319.6,52.5c0-2.3-1.1-3.9-2.8-3.9c-1.7,0-2.8,1.6-2.8,3.9c0,2.3,1.1,3.9,2.8,3.9
							C318.5,56.4,319.6,54.8,319.6,52.5z"/>
						<path class="st2" d="M323.9,51.5h5.3v1.7h-5.3V51.5z"/>
						<path class="st2" d="M337.2,43.9c-0.4-0.2-0.8-0.3-1.2-0.3c-1,0-1.5,0.6-1.5,2V47h2.2v1.8h-2.2V58h-2.3v-9.2h-1.5v-1.7
							l1.5-0.1v-1.4c0-2.3,1-3.8,3.5-3.8c0.7,0,1.4,0.2,1.9,0.4L337.2,43.9z"/>
						<path class="st2" d="M338.8,47h1.9l0.2,2h0.1c0.8-1.4,1.9-2.3,3.1-2.3c0.5,0,0.9,0.1,1.2,0.2l-0.4,2c-0.4-0.1-0.7-0.2-1.1-0.2
							c-0.9,0-2,0.6-2.7,2.4V58h-2.3V47z"/>
						<path class="st2" d="M346.6,43.6c0-0.8,0.6-1.4,1.5-1.4c0.8,0,1.5,0.5,1.5,1.4c0,0.8-0.6,1.4-1.5,1.4
							C347.3,44.9,346.6,44.4,346.6,43.6z M347,47h2.3v11H347V47z"/>
						<path class="st2" d="M351.9,52.5c0-3.6,2.4-5.8,5-5.8c2.9,0,4.5,2.1,4.5,5.2c0,0.4,0,0.9-0.1,1.2h-7.1
							c0.2,2.1,1.5,3.4,3.4,3.4c1,0,1.8-0.3,2.6-0.8l0.8,1.5c-1,0.7-2.3,1.2-3.7,1.2C354.3,58.3,351.9,56.1,351.9,52.5z M359.4,51.5
							c0-1.9-0.9-3-2.5-3c-1.4,0-2.6,1.1-2.8,3H359.4z"/>
						<path class="st2" d="M364,47h1.9l0.2,1.5h0.1c1-1,2.1-1.8,3.6-1.8c2.3,0,3.4,1.6,3.4,4.4V58h-2.3v-6.6c0-1.9-0.6-2.7-1.9-2.7
							c-1,0-1.7,0.5-2.7,1.5V58H364V47z"/>
						<path class="st2" d="M375.7,52.5c0-3.6,2.3-5.8,4.7-5.8c1.3,0,2.1,0.5,3,1.2l-0.1-1.8v-4.1h2.3V58h-1.9l-0.2-1.2h-0.1
							c-0.8,0.8-2,1.5-3.2,1.5C377.5,58.3,375.7,56.2,375.7,52.5z M383.3,55v-5.4c-0.8-0.7-1.6-1-2.4-1c-1.5,0-2.8,1.5-2.8,3.8
							c0,2.5,1,3.9,2.7,3.9C381.7,56.4,382.5,55.9,383.3,55z"/>
						<path class="st2" d="M389.1,55.4V42.1h2.3v13.5c0,0.6,0.3,0.8,0.6,0.8c0.1,0,0.2,0,0.4,0l0.3,1.7c-0.3,0.1-0.7,0.2-1.2,0.2
							C389.7,58.3,389.1,57.2,389.1,55.4z"/>
						<path class="st2" d="M399.9,58.7c-0.9,2.4-2,3.9-4.3,3.9c-0.6,0-1-0.1-1.4-0.2l0.4-1.8c0.2,0.1,0.5,0.2,0.8,0.2
							c1.2,0,1.9-0.9,2.3-2.1l0.2-0.8L393.6,47h2.4l2,5.7c0.3,1,0.7,2.1,1,3.1h0.1l0.9-3.1l1.8-5.7h2.2L399.9,58.7z"/>
						<path class="st2" d="M409.6,52.5c0-3.7,2.5-5.8,5.4-5.8c1.4,0,2.4,0.6,3.2,1.3l-1.1,1.5c-0.6-0.5-1.2-0.9-2-0.9
							c-1.8,0-3.2,1.6-3.2,3.9c0,2.3,1.3,3.9,3.1,3.9c0.9,0,1.7-0.4,2.4-1l0.9,1.5c-1,0.9-2.3,1.4-3.6,1.4
							C411.9,58.3,409.6,56.2,409.6,52.5z"/>
						<path class="st2" d="M419.5,52.5c0-3.7,2.5-5.8,5.2-5.8c2.7,0,5.2,2.1,5.2,5.8c0,3.6-2.5,5.7-5.2,5.7
							C421.9,58.3,419.5,56.2,419.5,52.5z M427.5,52.5c0-2.3-1.1-3.9-2.8-3.9c-1.7,0-2.8,1.6-2.8,3.9c0,2.3,1.1,3.9,2.8,3.9
							C426.4,56.4,427.5,54.8,427.5,52.5z"/>
						<path class="st2" d="M431.3,56.7l1.1-1.5c1,0.8,1.9,1.3,3.1,1.3c1.3,0,1.9-0.6,1.9-1.5c0-1-1.2-1.4-2.4-1.9
							c-1.5-0.6-3.1-1.3-3.1-3.2c0-1.8,1.5-3.2,3.9-3.2c1.5,0,2.7,0.6,3.6,1.3l-1.1,1.4c-0.8-0.6-1.5-1-2.5-1
							c-1.2,0-1.8,0.6-1.8,1.4c0,0.9,1.1,1.3,2.3,1.7c1.5,0.6,3.2,1.3,3.2,3.3c0,1.8-1.5,3.3-4.2,3.3
							C433.9,58.3,432.4,57.6,431.3,56.7z"/>
						<path class="st2" d="M442.1,47h1.9l0.2,1.5h0.1c0.9-1,2-1.8,3.4-1.8c1.6,0,2.6,0.8,3,2c1.1-1.2,2.2-2,3.6-2
							c2.3,0,3.4,1.6,3.4,4.4V58h-2.3v-6.6c0-1.9-0.6-2.7-1.8-2.7c-0.8,0-1.6,0.5-2.5,1.5V58h-2.3v-6.6c0-1.9-0.6-2.7-1.8-2.7
							c-0.7,0-1.6,0.5-2.5,1.5V58h-2.3V47z"/>
						<path class="st2" d="M460.1,52.5c0-3.6,2.4-5.8,5-5.8c2.9,0,4.5,2.1,4.5,5.2c0,0.4,0,0.9-0.1,1.2h-7.1
							c0.2,2.1,1.5,3.4,3.4,3.4c1,0,1.8-0.3,2.6-0.8l0.8,1.5c-1,0.7-2.3,1.2-3.7,1.2C462.5,58.3,460.1,56.1,460.1,52.5z M467.6,51.5
							c0-1.9-0.9-3-2.5-3c-1.4,0-2.6,1.1-2.8,3H467.6z"/>
						<path class="st2" d="M471.4,52.5c0-3.7,2.5-5.8,5.4-5.8c1.4,0,2.4,0.6,3.2,1.3l-1.1,1.5c-0.6-0.5-1.2-0.9-2-0.9
							c-1.8,0-3.2,1.6-3.2,3.9c0,2.3,1.3,3.9,3.1,3.9c0.9,0,1.7-0.4,2.4-1l0.9,1.5c-1,0.9-2.3,1.4-3.6,1.4
							C473.7,58.3,471.4,56.2,471.4,52.5z"/>
						<path class="st2" d="M481.2,52.5c0-3.6,2.4-5.8,5-5.8c2.9,0,4.5,2.1,4.5,5.2c0,0.4,0,0.9-0.1,1.2h-7.1
							c0.2,2.1,1.5,3.4,3.4,3.4c1,0,1.8-0.3,2.6-0.8l0.8,1.5c-1,0.7-2.3,1.2-3.7,1.2C483.6,58.3,481.2,56.1,481.2,52.5z M488.8,51.5
							c0-1.9-0.9-3-2.5-3c-1.4,0-2.6,1.1-2.8,3H488.8z"/>
						<path class="st2" d="M493.2,53.9V47h2.3v6.6c0,1.9,0.5,2.6,1.8,2.6c1,0,1.7-0.5,2.6-1.6V47h2.3v11h-1.9l-0.2-1.7h-0.1
							c-1,1.2-2.1,1.9-3.6,1.9C494.2,58.3,493.2,56.7,493.2,53.9z"/>
						<path class="st2" d="M506.1,54.4v-5.6h-1.6v-1.7l1.7-0.1l0.3-3h1.9v3h2.9v1.8h-2.9v5.6c0,1.3,0.5,2,1.6,2
							c0.4,0,0.9-0.1,1.2-0.3l0.4,1.7c-0.6,0.2-1.4,0.4-2.2,0.4C506.9,58.3,506.1,56.7,506.1,54.4z"/>
						<path class="st2" d="M513.3,43.6c0-0.8,0.6-1.4,1.5-1.4c0.8,0,1.5,0.5,1.5,1.4c0,0.8-0.6,1.4-1.5,1.4
							C513.9,44.9,513.3,44.4,513.3,43.6z M513.6,47h2.3v11h-2.3V47z"/>
						<path class="st2" d="M518.6,52.5c0-3.7,2.5-5.8,5.4-5.8c1.4,0,2.4,0.6,3.2,1.3l-1.1,1.5c-0.6-0.5-1.2-0.9-2-0.9
							c-1.8,0-3.2,1.6-3.2,3.9c0,2.3,1.3,3.9,3.1,3.9c0.9,0,1.7-0.4,2.4-1l0.9,1.5c-1,0.9-2.3,1.4-3.6,1.4
							C520.9,58.3,518.6,56.2,518.6,52.5z"/>
						<path class="st2" d="M528.9,55.1c0-2.4,2-3.6,6.6-4.1c0-1.3-0.5-2.4-2.1-2.4c-1.2,0-2.2,0.5-3.2,1.1l-0.9-1.6
							c1.1-0.7,2.7-1.4,4.4-1.4c2.7,0,4,1.7,4,4.7V58h-1.9l-0.2-1.3h-0.1c-1,0.9-2.2,1.5-3.5,1.5C530.2,58.3,528.9,57,528.9,55.1z
							 M535.4,55.2v-2.7c-3.3,0.4-4.4,1.2-4.4,2.5c0,1.1,0.7,1.5,1.7,1.5C533.8,56.4,534.5,56,535.4,55.2z"/>
						<path class="st2" d="M541,55.4V42.1h2.3v13.5c0,0.6,0.3,0.8,0.6,0.8c0.1,0,0.2,0,0.4,0l0.3,1.7c-0.3,0.1-0.7,0.2-1.2,0.2
							C541.6,58.3,541,57.2,541,55.4z"/>
						<path class="st2" d="M545.8,56.7l1.1-1.5c1,0.8,1.9,1.3,3.1,1.3c1.3,0,1.9-0.6,1.9-1.5c0-1-1.2-1.4-2.4-1.9
							c-1.5-0.6-3.1-1.3-3.1-3.2c0-1.8,1.5-3.2,3.9-3.2c1.5,0,2.7,0.6,3.6,1.3l-1.1,1.4c-0.8-0.6-1.5-1-2.5-1
							c-1.2,0-1.8,0.6-1.8,1.4c0,0.9,1.1,1.3,2.3,1.7c1.5,0.6,3.2,1.3,3.2,3.3c0,1.8-1.5,3.3-4.2,3.3
							C548.4,58.3,546.9,57.6,545.8,56.7z"/>
						<path class="st2" d="M560.3,52.5c0-3.6,2.3-5.8,4.7-5.8c1.3,0,2.1,0.5,3,1.2l-0.1-1.8v-4.1h2.3V58h-1.9l-0.2-1.2h-0.1
							c-0.8,0.8-2,1.5-3.2,1.5C562.1,58.3,560.3,56.2,560.3,52.5z M567.9,55v-5.4c-0.8-0.7-1.6-1-2.4-1c-1.5,0-2.8,1.5-2.8,3.8
							c0,2.5,1,3.9,2.7,3.9C566.3,56.4,567.1,55.9,567.9,55z"/>
						<path class="st2" d="M572.9,52.5c0-3.6,2.4-5.8,5-5.8c2.9,0,4.5,2.1,4.5,5.2c0,0.4,0,0.9-0.1,1.2h-7.1
							c0.2,2.1,1.5,3.4,3.4,3.4c1,0,1.8-0.3,2.6-0.8l0.8,1.5c-1,0.7-2.3,1.2-3.7,1.2C575.3,58.3,572.9,56.1,572.9,52.5z M580.4,51.5
							c0-1.9-0.9-3-2.5-3c-1.4,0-2.6,1.1-2.8,3H580.4z"/>
						<path class="st2" d="M583.5,47h2.4l1.9,5.9c0.3,1.1,0.6,2.2,1,3.3h0.1c0.3-1.1,0.7-2.2,1-3.3l1.9-5.9h2.2L590,58h-2.7
							L583.5,47z"/>
						<path class="st2" d="M595,52.5c0-3.6,2.4-5.8,5-5.8c2.9,0,4.5,2.1,4.5,5.2c0,0.4,0,0.9-0.1,1.2h-7.1c0.2,2.1,1.5,3.4,3.4,3.4
							c1,0,1.8-0.3,2.6-0.8l0.8,1.5c-1,0.7-2.3,1.2-3.7,1.2C597.3,58.3,595,56.1,595,52.5z M602.5,51.5c0-1.9-0.9-3-2.5-3
							c-1.4,0-2.6,1.1-2.8,3H602.5z"/>
						<path class="st2" d="M607,55.4V42.1h2.3v13.5c0,0.6,0.3,0.8,0.6,0.8c0.1,0,0.2,0,0.4,0l0.3,1.7c-0.3,0.1-0.7,0.2-1.2,0.2
							C607.7,58.3,607,57.2,607,55.4z"/>
						<path class="st2" d="M612.2,52.5c0-3.7,2.5-5.8,5.2-5.8c2.7,0,5.2,2.1,5.2,5.8c0,3.6-2.5,5.7-5.2,5.7
							C614.7,58.3,612.2,56.2,612.2,52.5z M620.2,52.5c0-2.3-1.1-3.9-2.8-3.9c-1.7,0-2.8,1.6-2.8,3.9c0,2.3,1.1,3.9,2.8,3.9
							C619.1,56.4,620.2,54.8,620.2,52.5z"/>
						<path class="st2" d="M625.3,47h1.9l0.2,1.2h0.1c1-0.8,2.2-1.5,3.4-1.5c2.8,0,4.4,2.2,4.4,5.6c0,3.8-2.3,5.9-4.7,5.9
							c-1,0-2-0.4-2.9-1.2l0.1,1.9v3.6h-2.3V47z M632.8,52.4c0-2.3-0.7-3.7-2.6-3.7c-0.9,0-1.7,0.4-2.6,1.3v5.4c0.9,0.7,1.7,1,2.4,1
							C631.6,56.4,632.8,54.9,632.8,52.4z"/>
						<path class="st2" d="M637.1,52.5c0-3.6,2.4-5.8,5-5.8c2.9,0,4.5,2.1,4.5,5.2c0,0.4,0,0.9-0.1,1.2h-7.1
							c0.2,2.1,1.5,3.4,3.4,3.4c1,0,1.8-0.3,2.6-0.8l0.8,1.5c-1,0.7-2.3,1.2-3.7,1.2C639.5,58.3,637.1,56.1,637.1,52.5z M644.6,51.5
							c0-1.9-0.9-3-2.5-3c-1.4,0-2.6,1.1-2.8,3H644.6z"/>
						<path class="st2" d="M648.4,52.5c0-3.6,2.3-5.8,4.7-5.8c1.3,0,2.1,0.5,3,1.2l-0.1-1.8v-4.1h2.3V58h-1.9l-0.2-1.2h-0.1
							c-0.8,0.8-2,1.5-3.2,1.5C650.2,58.3,648.4,56.2,648.4,52.5z M656,55v-5.4c-0.8-0.7-1.6-1-2.4-1c-1.5,0-2.8,1.5-2.8,3.8
							c0,2.5,1,3.9,2.7,3.9C654.4,56.4,655.2,55.9,656,55z"/>
						<path class="st2" d="M671.6,43.9c-0.4-0.2-0.8-0.3-1.2-0.3c-1,0-1.5,0.6-1.5,2V47h2.2v1.8H669V58h-2.3v-9.2h-1.5v-1.7l1.5-0.1
							v-1.4c0-2.3,1-3.8,3.5-3.8c0.7,0,1.4,0.2,1.9,0.4L671.6,43.9z"/>
						<path class="st2" d="M673.2,47h1.9l0.2,2h0.1c0.8-1.4,1.9-2.3,3.1-2.3c0.5,0,0.9,0.1,1.2,0.2l-0.4,2c-0.4-0.1-0.7-0.2-1.1-0.2
							c-0.9,0-2,0.6-2.7,2.4V58h-2.3V47z"/>
						<path class="st2" d="M680.4,52.5c0-3.7,2.5-5.8,5.2-5.8s5.2,2.1,5.2,5.8c0,3.6-2.5,5.7-5.2,5.7S680.4,56.2,680.4,52.5z
							 M688.4,52.5c0-2.3-1.1-3.9-2.8-3.9c-1.7,0-2.8,1.6-2.8,3.9c0,2.3,1.1,3.9,2.8,3.9C687.3,56.4,688.4,54.8,688.4,52.5z"/>
						<path class="st2" d="M693.4,47h1.9l0.2,1.5h0.1c0.9-1,2-1.8,3.4-1.8c1.6,0,2.6,0.8,3,2c1.1-1.2,2.2-2,3.6-2
							c2.3,0,3.4,1.6,3.4,4.4V58h-2.3v-6.6c0-1.9-0.6-2.7-1.8-2.7c-0.8,0-1.6,0.5-2.5,1.5V58H700v-6.6c0-1.9-0.6-2.7-1.8-2.7
							c-0.7,0-1.6,0.5-2.5,1.5V58h-2.3V47z"/>
					</g>
					<text transform="matrix(1 0 0 1 710.5153 58)" class="st2 st3 st4"> </text>
					<g class="st1">
						<path class="st2" d="M289.6,85.7l1.1-1.5c1,0.8,1.9,1.3,3.1,1.3c1.3,0,1.9-0.6,1.9-1.5c0-1-1.2-1.4-2.4-1.9
							c-1.5-0.6-3.1-1.3-3.1-3.2c0-1.8,1.5-3.2,3.9-3.2c1.5,0,2.7,0.6,3.6,1.3l-1.1,1.4c-0.8-0.6-1.5-1-2.5-1
							c-1.2,0-1.8,0.6-1.8,1.4c0,0.9,1.1,1.3,2.3,1.7c1.5,0.6,3.2,1.3,3.2,3.3c0,1.8-1.5,3.3-4.2,3.3
							C292.2,87.3,290.6,86.6,289.6,85.7z"/>
						<path class="st2" d="M300.2,82.9V76h2.3v6.6c0,1.9,0.5,2.6,1.8,2.6c1,0,1.7-0.5,2.6-1.6V76h2.3v11h-1.9l-0.2-1.7h-0.1
							c-1,1.2-2.1,1.9-3.6,1.9C301.2,87.3,300.2,85.7,300.2,82.9z"/>
						<path class="st2" d="M311.6,85.7l1.1-1.5c1,0.8,1.9,1.3,3.1,1.3c1.3,0,1.9-0.6,1.9-1.5c0-1-1.2-1.4-2.4-1.9
							c-1.5-0.6-3.1-1.3-3.1-3.2c0-1.8,1.5-3.2,3.9-3.2c1.5,0,2.7,0.6,3.6,1.3l-1.1,1.4c-0.8-0.6-1.5-1-2.5-1
							c-1.2,0-1.8,0.6-1.8,1.4c0,0.9,1.1,1.3,2.3,1.7c1.5,0.6,3.2,1.3,3.2,3.3c0,1.8-1.5,3.3-4.2,3.3
							C314.2,87.3,312.6,86.6,311.6,85.7z"/>
						<path class="st2" d="M322.3,83.4v-5.6h-1.6v-1.7l1.7-0.1l0.3-3h1.9v3h2.9v1.8h-2.9v5.6c0,1.3,0.5,2,1.6,2
							c0.4,0,0.9-0.1,1.2-0.3l0.4,1.7c-0.6,0.2-1.4,0.4-2.2,0.4C323.1,87.3,322.3,85.7,322.3,83.4z"/>
						<path class="st2" d="M328.7,84.1c0-2.4,2-3.6,6.6-4.1c0-1.3-0.5-2.4-2.1-2.4c-1.2,0-2.2,0.5-3.2,1.1l-0.9-1.6
							c1.1-0.7,2.7-1.4,4.4-1.4c2.7,0,4,1.7,4,4.7V87h-1.9l-0.2-1.3h-0.1c-1,0.9-2.2,1.5-3.5,1.5C330,87.3,328.7,86,328.7,84.1z
							 M335.3,84.2v-2.7c-3.3,0.4-4.4,1.2-4.4,2.5c0,1.1,0.7,1.5,1.7,1.5C333.6,85.4,334.4,85,335.3,84.2z"/>
						<path class="st2" d="M340.5,72.6c0-0.8,0.6-1.4,1.5-1.4c0.8,0,1.5,0.5,1.5,1.4c0,0.8-0.6,1.4-1.5,1.4
							C341.1,73.9,340.5,73.4,340.5,72.6z M340.8,76h2.3v11h-2.3V76z"/>
						<path class="st2" d="M346.6,76h1.9l0.2,1.5h0.1c1-1,2.1-1.8,3.6-1.8c2.3,0,3.4,1.6,3.4,4.4V87h-2.3v-6.6
							c0-1.9-0.6-2.7-1.9-2.7c-1,0-1.7,0.5-2.7,1.5V87h-2.3V76z"/>
						<path class="st2" d="M358.4,84.1c0-2.4,2-3.6,6.6-4.1c0-1.3-0.5-2.4-2.1-2.4c-1.2,0-2.2,0.5-3.2,1.1l-0.9-1.6
							c1.1-0.7,2.7-1.4,4.4-1.4c2.7,0,4,1.7,4,4.7V87h-1.9l-0.2-1.3h-0.1c-1,0.9-2.2,1.5-3.5,1.5C359.8,87.3,358.4,86,358.4,84.1z
							 M365,84.2v-2.7c-3.3,0.4-4.4,1.2-4.4,2.5c0,1.1,0.7,1.5,1.7,1.5C363.3,85.4,364.1,85,365,84.2z"/>
						<path class="st2" d="M372.6,85.9L372.6,85.9l-0.3,1.1h-1.8V71.1h2.3v4.2l-0.1,1.9c0.9-0.8,2.1-1.4,3.3-1.4
							c2.8,0,4.4,2.2,4.4,5.6c0,3.8-2.3,5.9-4.7,5.9C374.7,87.3,373.6,86.8,372.6,85.9z M378,81.4c0-2.3-0.7-3.7-2.6-3.7
							c-0.9,0-1.7,0.4-2.6,1.3v5.4c0.8,0.7,1.7,1,2.4,1C376.8,85.4,378,83.9,378,81.4z"/>
						<path class="st2" d="M383.1,84.4V71.1h2.3v13.5c0,0.6,0.3,0.8,0.6,0.8c0.1,0,0.2,0,0.4,0l0.3,1.7c-0.3,0.1-0.7,0.2-1.2,0.2
							C383.8,87.3,383.1,86.2,383.1,84.4z"/>
						<path class="st2" d="M388.3,81.5c0-3.6,2.4-5.8,5-5.8c2.9,0,4.5,2.1,4.5,5.2c0,0.4,0,0.9-0.1,1.2h-7.1
							c0.2,2.1,1.5,3.4,3.4,3.4c1,0,1.8-0.3,2.6-0.8l0.8,1.5c-1,0.7-2.3,1.2-3.7,1.2C390.7,87.3,388.3,85.1,388.3,81.5z M395.8,80.5
							c0-1.9-0.9-3-2.5-3c-1.4,0-2.6,1.1-2.8,3H395.8z"/>
						<path class="st2" d="M404.9,76h1.9l0.2,1.5h0.1c1-1,2.1-1.8,3.6-1.8c2.3,0,3.4,1.6,3.4,4.4V87h-2.3v-6.6
							c0-1.9-0.6-2.7-1.9-2.7c-1,0-1.7,0.5-2.7,1.5V87h-2.3V76z"/>
						<path class="st2" d="M416.7,84.1c0-2.4,2-3.6,6.6-4.1c0-1.3-0.5-2.4-2.1-2.4c-1.2,0-2.2,0.5-3.2,1.1l-0.9-1.6
							c1.1-0.7,2.7-1.4,4.4-1.4c2.7,0,4,1.7,4,4.7V87h-1.9l-0.2-1.3h-0.1c-1,0.9-2.2,1.5-3.5,1.5C418.1,87.3,416.7,86,416.7,84.1z
							 M423.3,84.2v-2.7c-3.3,0.4-4.4,1.2-4.4,2.5c0,1.1,0.7,1.5,1.7,1.5C421.6,85.4,422.4,85,423.3,84.2z"/>
						<path class="st2" d="M428.9,83.4v-5.6h-1.6v-1.7L429,76l0.3-3h1.9v3h2.9v1.8h-2.9v5.6c0,1.3,0.5,2,1.6,2
							c0.4,0,0.9-0.1,1.2-0.3l0.4,1.7c-0.6,0.2-1.4,0.4-2.2,0.4C429.8,87.3,428.9,85.7,428.9,83.4z"/>
						<path class="st2" d="M436.3,82.9V76h2.3v6.6c0,1.9,0.5,2.6,1.8,2.6c1,0,1.7-0.5,2.6-1.6V76h2.3v11h-1.9l-0.2-1.7h-0.1
							c-1,1.2-2.1,1.9-3.6,1.9C437.3,87.3,436.3,85.7,436.3,82.9z"/>
						<path class="st2" d="M448.9,76h1.9l0.2,2h0.1c0.8-1.4,1.9-2.3,3.1-2.3c0.5,0,0.9,0.1,1.2,0.2l-0.4,2c-0.4-0.1-0.7-0.2-1.1-0.2
							c-0.9,0-2,0.6-2.7,2.4V87h-2.3V76z"/>
						<path class="st2" d="M455.8,84.1c0-2.4,2-3.6,6.6-4.1c0-1.3-0.5-2.4-2.1-2.4c-1.2,0-2.2,0.5-3.2,1.1l-0.9-1.6
							c1.1-0.7,2.7-1.4,4.4-1.4c2.7,0,4,1.7,4,4.7V87h-1.9l-0.2-1.3h-0.1c-1,0.9-2.2,1.5-3.5,1.5C457.2,87.3,455.8,86,455.8,84.1z
							 M462.4,84.2v-2.7c-3.3,0.4-4.4,1.2-4.4,2.5c0,1.1,0.7,1.5,1.7,1.5C460.7,85.4,461.5,85,462.4,84.2z"/>
						<path class="st2" d="M468,84.4V71.1h2.3v13.5c0,0.6,0.3,0.8,0.6,0.8c0.1,0,0.2,0,0.4,0l0.3,1.7c-0.3,0.1-0.7,0.2-1.2,0.2
							C468.6,87.3,468,86.2,468,84.4z"/>
						<path class="st2" d="M477.3,85.7l1.1-1.5c1,0.8,1.9,1.3,3.1,1.3c1.3,0,1.9-0.6,1.9-1.5c0-1-1.2-1.4-2.4-1.9
							c-1.5-0.6-3.1-1.3-3.1-3.2c0-1.8,1.5-3.2,3.9-3.2c1.5,0,2.7,0.6,3.6,1.3l-1.1,1.4c-0.8-0.6-1.5-1-2.5-1
							c-1.2,0-1.8,0.6-1.8,1.4c0,0.9,1.1,1.3,2.3,1.7c1.5,0.6,3.2,1.3,3.2,3.3c0,1.8-1.5,3.3-4.2,3.3
							C479.9,87.3,478.3,86.6,477.3,85.7z"/>
						<path class="st2" d="M487.3,81.5c0-3.7,2.5-5.8,5.2-5.8c2.7,0,5.2,2.1,5.2,5.8c0,3.6-2.5,5.7-5.2,5.7
							C489.7,87.3,487.3,85.2,487.3,81.5z M495.3,81.5c0-2.3-1.1-3.9-2.8-3.9c-1.7,0-2.8,1.6-2.8,3.9c0,2.3,1.1,3.9,2.8,3.9
							C494.2,85.4,495.3,83.8,495.3,81.5z"/>
						<path class="st2" d="M500.2,82.9V76h2.3v6.6c0,1.9,0.5,2.6,1.8,2.6c1,0,1.7-0.5,2.6-1.6V76h2.3v11h-1.9l-0.2-1.7h-0.1
							c-1,1.2-2.1,1.9-3.6,1.9C501.2,87.3,500.2,85.7,500.2,82.9z"/>
						<path class="st2" d="M512.7,76h1.9l0.2,2h0.1c0.8-1.4,1.9-2.3,3.1-2.3c0.5,0,0.9,0.1,1.2,0.2l-0.4,2c-0.4-0.1-0.7-0.2-1.1-0.2
							c-0.9,0-2,0.6-2.7,2.4V87h-2.3V76z"/>
						<path class="st2" d="M519.9,81.5c0-3.7,2.5-5.8,5.4-5.8c1.4,0,2.4,0.6,3.2,1.3l-1.1,1.5c-0.6-0.5-1.2-0.9-2-0.9
							c-1.8,0-3.2,1.6-3.2,3.9c0,2.3,1.3,3.9,3.1,3.9c0.9,0,1.7-0.4,2.4-1l0.9,1.5c-1,0.9-2.3,1.4-3.6,1.4
							C522.2,87.3,519.9,85.2,519.9,81.5z"/>
						<path class="st2" d="M529.7,81.5c0-3.6,2.4-5.8,5-5.8c2.9,0,4.5,2.1,4.5,5.2c0,0.4,0,0.9-0.1,1.2H532c0.2,2.1,1.5,3.4,3.4,3.4
							c1,0,1.8-0.3,2.6-0.8l0.8,1.5c-1,0.7-2.3,1.2-3.7,1.2C532.1,87.3,529.7,85.1,529.7,81.5z M537.2,80.5c0-1.9-0.9-3-2.5-3
							c-1.4,0-2.6,1.1-2.8,3H537.2z"/>
						<path class="st2" d="M540.6,85.7l1.1-1.5c1,0.8,1.9,1.3,3.1,1.3c1.3,0,1.9-0.6,1.9-1.5c0-1-1.2-1.4-2.4-1.9
							c-1.5-0.6-3.1-1.3-3.1-3.2c0-1.8,1.5-3.2,3.9-3.2c1.5,0,2.7,0.6,3.6,1.3l-1.1,1.4c-0.8-0.6-1.5-1-2.5-1
							c-1.2,0-1.8,0.6-1.8,1.4c0,0.9,1.1,1.3,2.3,1.7c1.5,0.6,3.2,1.3,3.2,3.3c0,1.8-1.5,3.3-4.2,3.3
							C543.3,87.3,541.7,86.6,540.6,85.7z"/>
					</g>
					<g class="st1">
						<path class="st2" d="M121.8,128.6h4.4v0.9h-4.4V128.6z"/>
						<path class="st2" d="M132.9,120.9h3.1c4,0,6,2.5,6,6.5c0,4-2,6.6-6,6.6h-3.1V120.9z M135.9,133.1c3.5,0,5-2.3,5-5.7
							c0-3.4-1.5-5.6-5-5.6H134v11.3H135.9z"/>
						<path class="st2" d="M144.1,129.2c0-3.1,2-5.1,4.2-5.1c2.3,0,3.7,1.7,3.7,4.5c0,0.3,0,0.5-0.1,0.8h-6.8c0.1,2.3,1.4,4,3.5,4
							c1,0,1.8-0.3,2.6-0.8l0.4,0.8c-0.8,0.5-1.7,0.9-3.1,0.9C146.1,134.2,144.1,132.4,144.1,129.2z M151.1,128.5
							c0-2.3-1.1-3.5-2.7-3.5c-1.6,0-3,1.3-3.2,3.5H151.1z"/>
						<path class="st2" d="M153.2,124.4h1.1l2.1,5.9c0.3,0.9,0.6,1.9,1,2.8h0.1c0.3-0.9,0.6-1.8,1-2.8l2.1-5.9h1.1L158,134h-1.2
							L153.2,124.4z"/>
						<path class="st2" d="M162.8,129.2c0-3.1,2-5.1,4.2-5.1c2.3,0,3.7,1.7,3.7,4.5c0,0.3,0,0.5-0.1,0.8h-6.8c0.1,2.3,1.4,4,3.5,4
							c1,0,1.8-0.3,2.6-0.8l0.4,0.8c-0.8,0.5-1.7,0.9-3.1,0.9C164.8,134.2,162.8,132.4,162.8,129.2z M169.7,128.5
							c0-2.3-1.1-3.5-2.7-3.5c-1.6,0-3,1.3-3.2,3.5H169.7z"/>
						<path class="st2" d="M173.3,132.6v-12.9h1v13c0,0.5,0.2,0.6,0.4,0.6c0.1,0,0.1,0,0.3,0l0.2,0.8c-0.2,0.1-0.4,0.1-0.7,0.1
							C173.7,134.2,173.3,133.7,173.3,132.6z"/>
						<path class="st2" d="M177.3,129.2c0-3.2,2-5.1,4.3-5.1s4.3,1.9,4.3,5.1c0,3.2-2,5-4.3,5S177.3,132.4,177.3,129.2z
							 M184.9,129.2c0-2.4-1.4-4.1-3.3-4.1s-3.2,1.7-3.2,4.1c0,2.4,1.4,4.1,3.2,4.1S184.9,131.7,184.9,129.2z"/>
						<path class="st2" d="M188.8,124.4h0.9l0.1,1.2h0c0.9-0.7,2-1.4,3.2-1.4c2.6,0,3.9,1.9,3.9,4.9c0,3.3-2,5.2-4.2,5.2
							c-0.9,0-1.9-0.4-2.8-1.2l0,1.8v3.5h-1V124.4z M195.7,129c0-2.3-0.8-4-2.9-4c-0.9,0-1.9,0.5-3,1.5v5.5c1,0.9,2,1.2,2.7,1.2
							C194.4,133.3,195.7,131.6,195.7,129z"/>
						<path class="st2" d="M202.8,129.2c0-3.2,2.1-5.1,4.4-5.1c1.3,0,2.1,0.6,2.8,1.2l-0.6,0.7c-0.6-0.6-1.3-1-2.2-1
							c-1.9,0-3.4,1.7-3.4,4.1c0,2.4,1.3,4.1,3.3,4.1c1,0,1.9-0.5,2.5-1.1l0.5,0.7c-0.8,0.7-1.9,1.2-3.1,1.2
							C204.7,134.2,202.8,132.4,202.8,129.2z"/>
						<path class="st2" d="M211.4,129.2c0-3.2,2-5.1,4.3-5.1s4.3,1.9,4.3,5.1c0,3.2-2,5-4.3,5S211.4,132.4,211.4,129.2z M219,129.2
							c0-2.4-1.4-4.1-3.3-4.1s-3.2,1.7-3.2,4.1c0,2.4,1.4,4.1,3.2,4.1S219,131.7,219,129.2z"/>
						<path class="st2" d="M221.8,132.9l0.6-0.8c0.8,0.7,1.7,1.2,3,1.2c1.5,0,2.2-0.8,2.2-1.8c0-1.1-1.2-1.7-2.3-2.1
							c-1.4-0.5-3-1.1-3-2.8c0-1.4,1.1-2.6,3.2-2.6c1,0,2.1,0.5,2.8,1l-0.5,0.7c-0.6-0.5-1.4-0.9-2.3-0.9c-1.4,0-2.1,0.8-2.1,1.7
							c0,1.1,1.1,1.5,2.2,1.9c1.5,0.6,3.1,1.1,3.1,2.9c0,1.5-1.2,2.7-3.3,2.7C223.9,134.2,222.6,133.6,221.8,132.9z"/>
						<path class="st2" d="M231.1,124.4h0.9l0.1,1.5h0c0.9-1,1.9-1.7,3-1.7c1.5,0,2.3,0.8,2.6,1.9c1.1-1.2,2.1-1.9,3.2-1.9
							c1.9,0,2.9,1.2,2.9,3.7v6.1h-1v-6c0-2-0.7-2.9-2.1-2.9c-0.9,0-1.7,0.6-2.8,1.7v7.2h-1v-6c0-2-0.6-2.9-2.1-2.9
							c-0.8,0-1.8,0.6-2.8,1.7v7.2h-1V124.4z"/>
						<path class="st2" d="M246.5,129.2c0-3.1,2-5.1,4.2-5.1c2.3,0,3.7,1.7,3.7,4.5c0,0.3,0,0.5-0.1,0.8h-6.8c0.1,2.3,1.4,4,3.5,4
							c1,0,1.8-0.3,2.6-0.8l0.4,0.8c-0.8,0.5-1.7,0.9-3.1,0.9C248.5,134.2,246.5,132.4,246.5,129.2z M253.5,128.5
							c0-2.3-1.1-3.5-2.7-3.5c-1.6,0-3,1.3-3.2,3.5H253.5z"/>
						<path class="st2" d="M256.2,129.2c0-3.2,2.1-5.1,4.4-5.1c1.3,0,2.1,0.6,2.8,1.2l-0.6,0.7c-0.6-0.6-1.3-1-2.2-1
							c-1.9,0-3.4,1.7-3.4,4.1c0,2.4,1.3,4.1,3.3,4.1c1,0,1.9-0.5,2.5-1.1l0.5,0.7c-0.8,0.7-1.9,1.2-3.1,1.2
							C258.1,134.2,256.2,132.4,256.2,129.2z"/>
						<path class="st2" d="M264.8,129.2c0-3.1,2-5.1,4.2-5.1c2.3,0,3.7,1.7,3.7,4.5c0,0.3,0,0.5-0.1,0.8h-6.8c0.1,2.3,1.4,4,3.5,4
							c1,0,1.8-0.3,2.6-0.8l0.4,0.8c-0.8,0.5-1.7,0.9-3.1,0.9C266.8,134.2,264.8,132.4,264.8,129.2z M271.8,128.5
							c0-2.3-1.1-3.5-2.7-3.5c-1.6,0-3,1.3-3.2,3.5H271.8z"/>
						<path class="st2" d="M275.2,130.5v-6.1h1v6c0,2,0.6,2.9,2.1,2.9c1.1,0,1.9-0.6,3-1.9v-7h1v9.6h-0.9l-0.1-1.6h-0.1
							c-0.9,1.1-1.9,1.8-3.2,1.8C276.1,134.2,275.2,133,275.2,130.5z"/>
						<path class="st2" d="M286.2,131.3v-6h-1.5v-0.8l1.5-0.1l0.1-2.8h0.9v2.8h2.8v0.9h-2.8v6c0,1.2,0.3,2,1.6,2
							c0.4,0,0.8-0.1,1.2-0.3l0.3,0.8c-0.6,0.2-1.2,0.4-1.6,0.4C286.7,134.2,286.2,133,286.2,131.3z"/>
						<path class="st2" d="M291.9,121.3c0-0.5,0.4-0.9,0.9-0.9c0.5,0,0.9,0.3,0.9,0.9c0,0.5-0.4,0.8-0.9,0.8
							C292.3,122.2,291.9,121.8,291.9,121.3z M292.3,124.4h1v9.6h-1V124.4z"/>
						<path class="st2" d="M296.1,129.2c0-3.2,2.1-5.1,4.4-5.1c1.3,0,2.1,0.6,2.8,1.2l-0.6,0.7c-0.6-0.6-1.3-1-2.2-1
							c-1.9,0-3.4,1.7-3.4,4.1c0,2.4,1.3,4.1,3.3,4.1c1,0,1.9-0.5,2.5-1.1l0.5,0.7c-0.8,0.7-1.9,1.2-3.1,1.2
							C298,134.2,296.1,132.4,296.1,129.2z"/>
						<path class="st2" d="M305,131.6c0-2.1,1.9-3.1,6.1-3.6c0-1.4-0.4-2.9-2.2-2.9c-1.3,0-2.4,0.6-3,1.1l-0.5-0.8
							c0.7-0.5,2.1-1.3,3.6-1.3c2.3,0,3.1,1.6,3.1,3.8v6.1h-0.9l-0.1-1.2h0c-1,0.8-2.1,1.5-3.3,1.5C306.3,134.2,305,133.4,305,131.6
							z M311.1,131.9v-3.1c-3.8,0.4-5.1,1.3-5.1,2.8c0,1.3,0.9,1.8,2,1.8C309.1,133.4,310,132.8,311.1,131.9z"/>
						<path class="st2" d="M315.5,132.6v-12.9h1v13c0,0.5,0.2,0.6,0.4,0.6c0.1,0,0.1,0,0.3,0l0.2,0.8c-0.2,0.1-0.4,0.1-0.7,0.1
							C315.9,134.2,315.5,133.7,315.5,132.6z"/>
						<path class="st2" d="M324.3,124.4h0.9l0.1,1.8h0c0.6-1.2,1.6-2,2.7-2c0.4,0,0.7,0.1,1,0.2l-0.2,0.9c-0.3-0.1-0.5-0.2-0.9-0.2
							c-0.8,0-1.9,0.6-2.6,2.4v6.4h-1V124.4z"/>
						<path class="st2" d="M329.7,131.6c0-2.1,1.9-3.1,6.1-3.6c0-1.4-0.4-2.9-2.2-2.9c-1.3,0-2.4,0.6-3,1.1l-0.5-0.8
							c0.7-0.5,2.1-1.3,3.6-1.3c2.3,0,3.1,1.6,3.1,3.8v6.1H336l-0.1-1.2h0c-1,0.8-2.1,1.5-3.3,1.5
							C330.9,134.2,329.7,133.4,329.7,131.6z M335.8,131.9v-3.1c-3.8,0.4-5.1,1.3-5.1,2.8c0,1.3,0.9,1.8,2,1.8
							C333.8,133.4,334.7,132.8,335.8,131.9z"/>
						<path class="st2" d="M338.9,124.4h1.1l1.7,6c0.2,0.9,0.4,1.7,0.6,2.6h0.1c0.2-0.9,0.5-1.7,0.7-2.6l1.7-6h1.2l1.7,6
							c0.2,0.9,0.5,1.7,0.7,2.6h0.1c0.2-0.9,0.4-1.7,0.7-2.6l1.6-6h1L349,134h-1.4l-1.6-5.8c-0.3-0.9-0.5-1.8-0.7-2.8h-0.1
							c-0.2,1-0.4,1.9-0.7,2.8l-1.6,5.7h-1.3L338.9,124.4z"/>
						<path class="st2" d="M358,124.4h0.9l0.1,1.5h0c0.9-1,1.9-1.7,3-1.7c1.5,0,2.3,0.8,2.6,1.9c1.1-1.2,2.1-1.9,3.2-1.9
							c1.9,0,2.9,1.2,2.9,3.7v6.1h-1v-6c0-2-0.7-2.9-2.1-2.9c-0.9,0-1.7,0.6-2.8,1.7v7.2h-1v-6c0-2-0.6-2.9-2.1-2.9
							c-0.8,0-1.8,0.6-2.8,1.7v7.2h-1V124.4z"/>
						<path class="st2" d="M373.6,131.6c0-2.1,1.9-3.1,6.1-3.6c0-1.4-0.4-2.9-2.2-2.9c-1.3,0-2.4,0.6-3,1.1l-0.5-0.8
							c0.7-0.5,2.1-1.3,3.6-1.3c2.3,0,3.1,1.6,3.1,3.8v6.1h-0.9l-0.1-1.2h0c-1,0.8-2.1,1.5-3.3,1.5
							C374.8,134.2,373.6,133.4,373.6,131.6z M379.7,131.9v-3.1c-3.8,0.4-5.1,1.3-5.1,2.8c0,1.3,0.9,1.8,2,1.8
							C377.7,133.4,378.6,132.8,379.7,131.9z"/>
						<path class="st2" d="M384.1,131.3v-6h-1.5v-0.8l1.5-0.1l0.1-2.8h0.9v2.8h2.8v0.9h-2.8v6c0,1.2,0.3,2,1.6,2
							c0.4,0,0.8-0.1,1.2-0.3l0.3,0.8c-0.6,0.2-1.2,0.4-1.6,0.4C384.7,134.2,384.1,133,384.1,131.3z"/>
						<path class="st2" d="M389.2,129.2c0-3.1,2-5.1,4.2-5.1c2.3,0,3.7,1.7,3.7,4.5c0,0.3,0,0.5-0.1,0.8h-6.8c0.1,2.3,1.4,4,3.5,4
							c1,0,1.8-0.3,2.6-0.8l0.4,0.8c-0.8,0.5-1.7,0.9-3.1,0.9C391.2,134.2,389.2,132.4,389.2,129.2z M396.1,128.5
							c0-2.3-1.1-3.5-2.7-3.5c-1.6,0-3,1.3-3.2,3.5H396.1z"/>
						<path class="st2" d="M399.7,124.4h0.9l0.1,1.8h0c0.6-1.2,1.6-2,2.7-2c0.4,0,0.7,0.1,1,0.2l-0.2,0.9c-0.3-0.1-0.5-0.2-0.9-0.2
							c-0.8,0-1.9,0.6-2.6,2.4v6.4h-1V124.4z"/>
						<path class="st2" d="M405.8,121.3c0-0.5,0.4-0.9,0.9-0.9c0.5,0,0.9,0.3,0.9,0.9c0,0.5-0.4,0.8-0.9,0.8
							C406.2,122.2,405.8,121.8,405.8,121.3z M406.1,124.4h1v9.6h-1V124.4z"/>
						<path class="st2" d="M410.1,131.6c0-2.1,1.9-3.1,6.1-3.6c0-1.4-0.4-2.9-2.2-2.9c-1.3,0-2.4,0.6-3,1.1l-0.5-0.8
							c0.7-0.5,2.1-1.3,3.6-1.3c2.3,0,3.1,1.6,3.1,3.8v6.1h-0.9l-0.1-1.2h0c-1,0.8-2.1,1.5-3.3,1.5
							C411.3,134.2,410.1,133.4,410.1,131.6z M416.2,131.9v-3.1c-3.8,0.4-5.1,1.3-5.1,2.8c0,1.3,0.9,1.8,2,1.8
							C414.1,133.4,415.1,132.8,416.2,131.9z"/>
						<path class="st2" d="M420.6,132.6v-12.9h1v13c0,0.5,0.2,0.6,0.4,0.6c0.1,0,0.1,0,0.3,0l0.2,0.8c-0.2,0.1-0.4,0.1-0.7,0.1
							C421,134.2,420.6,133.7,420.6,132.6z"/>
						<path class="st2" d="M424.2,132.9l0.6-0.8c0.8,0.7,1.7,1.2,3,1.2c1.5,0,2.2-0.8,2.2-1.8c0-1.1-1.2-1.7-2.3-2.1
							c-1.4-0.5-3-1.1-3-2.8c0-1.4,1.1-2.6,3.2-2.6c1,0,2.1,0.5,2.8,1l-0.5,0.7c-0.6-0.5-1.4-0.9-2.3-0.9c-1.4,0-2.1,0.8-2.1,1.7
							c0,1.1,1.1,1.5,2.2,1.9c1.5,0.6,3.1,1.1,3.1,2.9c0,1.5-1.2,2.7-3.3,2.7C426.3,134.2,425.1,133.6,424.2,132.9z"/>
						<path class="st2" d="M441.3,120.6c-0.4-0.2-0.8-0.3-1.1-0.3c-1,0-1.5,0.8-1.5,2.1v2h2.2v0.9h-2.2v8.7h-1v-8.7h-1.3v-0.8
							l1.3-0.1v-2c0-1.9,0.8-2.9,2.5-2.9c0.5,0,1,0.1,1.4,0.3L441.3,120.6z"/>
						<path class="st2" d="M442.9,124.4h0.9l0.1,1.8h0c0.6-1.2,1.6-2,2.7-2c0.4,0,0.7,0.1,1,0.2l-0.2,0.9c-0.3-0.1-0.5-0.2-0.9-0.2
							c-0.8,0-1.9,0.6-2.6,2.4v6.4h-1V124.4z"/>
						<path class="st2" d="M448.4,129.2c0-3.2,2-5.1,4.3-5.1s4.3,1.9,4.3,5.1c0,3.2-2,5-4.3,5S448.4,132.4,448.4,129.2z M456,129.2
							c0-2.4-1.4-4.1-3.3-4.1s-3.2,1.7-3.2,4.1c0,2.4,1.4,4.1,3.2,4.1S456,131.7,456,129.2z"/>
						<path class="st2" d="M459.8,124.4h0.9l0.1,1.5h0c0.9-1,1.9-1.7,3-1.7c1.5,0,2.3,0.8,2.6,1.9c1.1-1.2,2.1-1.9,3.2-1.9
							c1.9,0,2.9,1.2,2.9,3.7v6.1h-1v-6c0-2-0.7-2.9-2.1-2.9c-0.9,0-1.7,0.6-2.8,1.7v7.2h-1v-6c0-2-0.6-2.9-2.1-2.9
							c-0.8,0-1.8,0.6-2.8,1.7v7.2h-1V124.4z"/>
						<path class="st2" d="M479.3,129.2c0-3.1,2-5.1,4.2-5.1c2.3,0,3.7,1.7,3.7,4.5c0,0.3,0,0.5-0.1,0.8h-6.8c0.1,2.3,1.4,4,3.5,4
							c1,0,1.8-0.3,2.6-0.8l0.4,0.8c-0.8,0.5-1.7,0.9-3.1,0.9C481.3,134.2,479.3,132.4,479.3,129.2z M486.3,128.5
							c0-2.3-1.1-3.5-2.7-3.5c-1.6,0-3,1.3-3.2,3.5H486.3z"/>
						<path class="st2" d="M489,129.2c0-3.2,2.1-5.1,4.4-5.1c1.3,0,2.1,0.6,2.8,1.2l-0.6,0.7c-0.6-0.6-1.3-1-2.2-1
							c-1.9,0-3.4,1.7-3.4,4.1c0,2.4,1.3,4.1,3.3,4.1c1,0,1.9-0.5,2.5-1.1l0.5,0.7c-0.8,0.7-1.9,1.2-3.1,1.2
							C490.9,134.2,489,132.4,489,129.2z"/>
						<path class="st2" d="M497.6,129.2c0-3.2,2-5.1,4.3-5.1c2.3,0,4.3,1.9,4.3,5.1c0,3.2-2,5-4.3,5
							C499.6,134.2,497.6,132.4,497.6,129.2z M505.2,129.2c0-2.4-1.4-4.1-3.3-4.1s-3.2,1.7-3.2,4.1c0,2.4,1.4,4.1,3.2,4.1
							S505.2,131.7,505.2,129.2z"/>
						<path class="st2" d="M509.1,132.6v-12.9h1v13c0,0.5,0.2,0.6,0.4,0.6c0.1,0,0.1,0,0.3,0l0.2,0.8c-0.2,0.1-0.4,0.1-0.7,0.1
							C509.5,134.2,509.1,133.7,509.1,132.6z"/>
						<path class="st2" d="M513.1,129.2c0-3.2,2-5.1,4.3-5.1c2.3,0,4.3,1.9,4.3,5.1c0,3.2-2,5-4.3,5
							C515.1,134.2,513.1,132.4,513.1,129.2z M520.7,129.2c0-2.4-1.4-4.1-3.3-4.1c-1.9,0-3.2,1.7-3.2,4.1c0,2.4,1.4,4.1,3.2,4.1
							C519.3,133.3,520.7,131.7,520.7,129.2z"/>
						<path class="st2" d="M523.8,135.9c0-0.8,0.6-1.7,1.4-2.3v-0.1c-0.5-0.3-0.9-0.8-0.9-1.5c0-0.8,0.6-1.5,1.1-1.8v-0.1
							c-0.6-0.5-1.2-1.5-1.2-2.6c0-2,1.5-3.4,3.4-3.4c0.5,0,1,0.1,1.3,0.3h3.3v0.9H530c0.6,0.5,1,1.3,1,2.3c0,2-1.5,3.4-3.4,3.4
							c-0.5,0-1.1-0.1-1.5-0.4c-0.4,0.3-0.8,0.7-0.8,1.3c0,0.7,0.4,1.2,1.8,1.2h2c2.2,0,3.2,0.7,3.2,2.2c0,1.7-1.8,3.3-4.6,3.3
							C525.3,138.6,523.8,137.6,523.8,135.9z M531.3,135.5c0-1-0.8-1.4-2.2-1.4h-2c-0.2,0-0.7-0.1-1.2-0.2c-0.8,0.6-1.2,1.3-1.2,1.9
							c0,1.2,1.1,2,3.1,2C530,137.8,531.3,136.6,531.3,135.5z M530,127.6c0-1.6-1.1-2.6-2.4-2.6c-1.3,0-2.4,1-2.4,2.6
							c0,1.6,1.1,2.6,2.4,2.6C528.9,130.2,530,129.1,530,127.6z"/>
						<path class="st2" d="M534,121.3c0-0.5,0.4-0.9,0.9-0.9c0.5,0,0.9,0.3,0.9,0.9c0,0.5-0.4,0.8-0.9,0.8
							C534.4,122.2,534,121.8,534,121.3z M534.4,124.4h1v9.6h-1V124.4z"/>
						<path class="st2" d="M538.2,129.2c0-3.2,2.1-5.1,4.4-5.1c1.3,0,2.1,0.6,2.8,1.2l-0.6,0.7c-0.6-0.6-1.3-1-2.2-1
							c-1.9,0-3.4,1.7-3.4,4.1c0,2.4,1.3,4.1,3.3,4.1c1,0,1.9-0.5,2.5-1.1l0.5,0.7c-0.8,0.7-1.9,1.2-3.1,1.2
							C540.1,134.2,538.2,132.4,538.2,129.2z"/>
						<path class="st2" d="M547.1,131.6c0-2.1,1.9-3.1,6.1-3.6c0-1.4-0.4-2.9-2.2-2.9c-1.3,0-2.4,0.6-3,1.1l-0.5-0.8
							c0.7-0.5,2.1-1.3,3.6-1.3c2.3,0,3.1,1.6,3.1,3.8v6.1h-0.9l-0.1-1.2h0c-1,0.8-2.1,1.5-3.3,1.5
							C548.4,134.2,547.1,133.4,547.1,131.6z M553.2,131.9v-3.1c-3.8,0.4-5.1,1.3-5.1,2.8c0,1.3,0.9,1.8,2,1.8
							C551.2,133.4,552.1,132.8,553.2,131.9z"/>
						<path class="st2" d="M557.6,132.6v-12.9h1v13c0,0.5,0.2,0.6,0.4,0.6c0.1,0,0.1,0,0.3,0l0.2,0.8c-0.2,0.1-0.4,0.1-0.7,0.1
							C558,134.2,557.6,133.7,557.6,132.6z"/>
						<path class="st2" d="M562.4,132.6v-12.9h1v13c0,0.5,0.2,0.6,0.4,0.6c0.1,0,0.1,0,0.3,0l0.2,0.8c-0.2,0.1-0.4,0.1-0.7,0.1
							C562.8,134.2,562.4,133.7,562.4,132.6z"/>
						<path class="st2" d="M565.9,138.1l0.2-0.9c0.2,0.1,0.5,0.1,0.8,0.1c1.2,0,1.9-1,2.4-2.4l0.3-0.8l-3.9-9.7h1.1l2.2,5.9
							c0.3,0.8,0.7,1.8,1,2.7h0.1c0.3-0.9,0.6-1.9,0.9-2.7l2-5.9h1.1l-3.7,10.7c-0.6,1.7-1.5,3.2-3.3,3.2
							C566.6,138.3,566.2,138.2,565.9,138.1z"/>
						<path class="st2" d="M578.9,132.9l0.6-0.8c0.8,0.7,1.7,1.2,3,1.2c1.5,0,2.2-0.8,2.2-1.8c0-1.1-1.2-1.7-2.3-2.1
							c-1.4-0.5-3-1.1-3-2.8c0-1.4,1.1-2.6,3.2-2.6c1,0,2.1,0.5,2.8,1l-0.5,0.7c-0.6-0.5-1.4-0.9-2.3-0.9c-1.4,0-2.1,0.8-2.1,1.7
							c0,1.1,1.1,1.5,2.2,1.9c1.5,0.6,3.1,1.1,3.1,2.9c0,1.5-1.2,2.7-3.3,2.7C581,134.2,579.7,133.6,578.9,132.9z"/>
						<path class="st2" d="M588,130.5v-6.1h1v6c0,2,0.6,2.9,2.1,2.9c1.1,0,1.9-0.6,3-1.9v-7h1v9.6h-0.9l-0.1-1.6h-0.1
							c-0.9,1.1-1.9,1.8-3.2,1.8C588.9,134.2,588,133,588,130.5z"/>
						<path class="st2" d="M597.6,132.9l0.6-0.8c0.8,0.7,1.7,1.2,3,1.2c1.5,0,2.2-0.8,2.2-1.8c0-1.1-1.2-1.7-2.3-2.1
							c-1.4-0.5-3-1.1-3-2.8c0-1.4,1.1-2.6,3.2-2.6c1,0,2.1,0.5,2.8,1l-0.5,0.7c-0.6-0.5-1.4-0.9-2.3-0.9c-1.4,0-2.1,0.8-2.1,1.7
							c0,1.1,1.1,1.5,2.2,1.9c1.5,0.6,3.1,1.1,3.1,2.9c0,1.5-1.2,2.7-3.3,2.7C599.8,134.2,598.5,133.6,597.6,132.9z"/>
						<path class="st2" d="M606.8,131.3v-6h-1.5v-0.8l1.5-0.1l0.1-2.8h0.9v2.8h2.8v0.9h-2.8v6c0,1.2,0.3,2,1.6,2
							c0.4,0,0.8-0.1,1.2-0.3l0.3,0.8c-0.6,0.2-1.2,0.4-1.6,0.4C607.4,134.2,606.8,133,606.8,131.3z"/>
						<path class="st2" d="M611.8,131.6c0-2.1,1.9-3.1,6.1-3.6c0-1.4-0.4-2.9-2.2-2.9c-1.3,0-2.4,0.6-3,1.1l-0.5-0.8
							c0.7-0.5,2.1-1.3,3.6-1.3c2.3,0,3.1,1.6,3.1,3.8v6.1h-0.9l-0.1-1.2h0c-1,0.8-2.1,1.5-3.3,1.5
							C613,134.2,611.8,133.4,611.8,131.6z M617.9,131.9v-3.1c-3.8,0.4-5.1,1.3-5.1,2.8c0,1.3,0.9,1.8,2,1.8
							C615.9,133.4,616.8,132.8,617.9,131.9z"/>
						<path class="st2" d="M622,121.3c0-0.5,0.4-0.9,0.9-0.9c0.5,0,0.9,0.3,0.9,0.9c0,0.5-0.4,0.8-0.9,0.8
							C622.3,122.2,622,121.8,622,121.3z M622.3,124.4h1v9.6h-1V124.4z"/>
						<path class="st2" d="M626.9,124.4h0.9l0.1,1.5h0c1-1,2-1.7,3.3-1.7c2,0,2.9,1.2,2.9,3.7v6.1h-1v-6c0-2-0.6-2.9-2.1-2.9
							c-1.1,0-1.9,0.6-3,1.7v7.2h-1V124.4z"/>
						<path class="st2" d="M636.9,131.6c0-2.1,1.9-3.1,6.1-3.6c0-1.4-0.4-2.9-2.2-2.9c-1.3,0-2.4,0.6-3,1.1l-0.5-0.8
							c0.7-0.5,2.1-1.3,3.6-1.3c2.3,0,3.1,1.6,3.1,3.8v6.1h-0.9l-0.1-1.2h0c-1,0.8-2.1,1.5-3.3,1.5
							C638.2,134.2,636.9,133.4,636.9,131.6z M643,131.9v-3.1c-3.8,0.4-5.1,1.3-5.1,2.8c0,1.3,0.9,1.8,2,1.8
							C641,133.4,641.9,132.8,643,131.9z"/>
						<path class="st2" d="M648.4,133L648.4,133l-0.2,1h-0.8v-14.3h1v4.1l-0.1,1.8c1-0.8,2.1-1.5,3.2-1.5c2.6,0,3.9,1.9,3.9,4.9
							c0,3.3-2,5.2-4.2,5.2C650.4,134.2,649.3,133.8,648.4,133z M654.4,129c0-2.3-0.8-4-2.9-4c-0.9,0-1.9,0.5-3,1.5v5.5
							c1,0.9,2,1.2,2.7,1.2C653.1,133.3,654.4,131.6,654.4,129z"/>
						<path class="st2" d="M658.3,132.6v-12.9h1v13c0,0.5,0.2,0.6,0.4,0.6c0.1,0,0.1,0,0.3,0l0.2,0.8c-0.2,0.1-0.4,0.1-0.7,0.1
							C658.7,134.2,658.3,133.7,658.3,132.6z"/>
						<path class="st2" d="M662.3,129.2c0-3.1,2-5.1,4.2-5.1c2.3,0,3.7,1.7,3.7,4.5c0,0.3,0,0.5-0.1,0.8h-6.8c0.1,2.3,1.4,4,3.5,4
							c1,0,1.8-0.3,2.6-0.8l0.4,0.8c-0.8,0.5-1.7,0.9-3.1,0.9C664.3,134.2,662.3,132.4,662.3,129.2z M669.3,128.5
							c0-2.3-1.1-3.5-2.7-3.5c-1.6,0-3,1.3-3.2,3.5H669.3z"/>
						<path class="st2" d="M677.8,133L677.8,133l-0.2,1h-0.8v-14.3h1v4.1l-0.1,1.8c1-0.8,2.1-1.5,3.2-1.5c2.6,0,3.9,1.9,3.9,4.9
							c0,3.3-2,5.2-4.2,5.2C679.7,134.2,678.7,133.8,677.8,133z M683.7,129c0-2.3-0.8-4-2.9-4c-0.9,0-1.9,0.5-3,1.5v5.5
							c1,0.9,2,1.2,2.7,1.2C682.4,133.3,683.7,131.6,683.7,129z"/>
						<path class="st2" d="M686.8,129.2c0-3.2,2-5.1,4.3-5.1s4.3,1.9,4.3,5.1c0,3.2-2,5-4.3,5S686.8,132.4,686.8,129.2z
							 M694.4,129.2c0-2.4-1.4-4.1-3.3-4.1c-1.9,0-3.2,1.7-3.2,4.1c0,2.4,1.4,4.1,3.2,4.1C693.1,133.3,694.4,131.7,694.4,129.2z"/>
						<path class="st2" d="M698.3,131.3v-6h-1.5v-0.8l1.5-0.1l0.1-2.8h0.9v2.8h2.8v0.9h-2.8v6c0,1.2,0.3,2,1.6,2
							c0.4,0,0.8-0.1,1.2-0.3l0.3,0.8c-0.6,0.2-1.2,0.4-1.6,0.4C698.9,134.2,698.3,133,698.3,131.3z"/>
						<path class="st2" d="M703.3,131.6c0-2.1,1.9-3.1,6.1-3.6c0-1.4-0.4-2.9-2.2-2.9c-1.3,0-2.4,0.6-3,1.1l-0.5-0.8
							c0.7-0.5,2.1-1.3,3.6-1.3c2.3,0,3.1,1.6,3.1,3.8v6.1h-0.9l-0.1-1.2h0c-1,0.8-2.1,1.5-3.3,1.5
							C704.5,134.2,703.3,133.4,703.3,131.6z M709.4,131.9v-3.1c-3.8,0.4-5.1,1.3-5.1,2.8c0,1.3,0.9,1.8,2,1.8
							C707.4,133.4,708.3,132.8,709.4,131.9z"/>
						<path class="st2" d="M713.8,124.4h0.9l0.1,1.5h0c1-1,2-1.7,3.3-1.7c2,0,2.9,1.2,2.9,3.7v6.1h-1v-6c0-2-0.6-2.9-2.1-2.9
							c-1.1,0-1.9,0.6-3,1.7v7.2h-1V124.4z"/>
						<path class="st2" d="M724.1,121.3c0-0.5,0.4-0.9,0.9-0.9c0.5,0,0.9,0.3,0.9,0.9c0,0.5-0.4,0.8-0.9,0.8
							C724.5,122.2,724.1,121.8,724.1,121.3z M724.5,124.4h1v9.6h-1V124.4z"/>
						<path class="st2" d="M728.3,129.2c0-3.2,2.1-5.1,4.4-5.1c1.3,0,2.1,0.6,2.8,1.2L735,126c-0.6-0.6-1.3-1-2.2-1
							c-1.9,0-3.4,1.7-3.4,4.1c0,2.4,1.3,4.1,3.3,4.1c1,0,1.9-0.5,2.5-1.1l0.5,0.7c-0.8,0.7-1.9,1.2-3.1,1.2
							C730.2,134.2,728.3,132.4,728.3,129.2z"/>
						<path class="st2" d="M737.2,131.6c0-2.1,1.9-3.1,6.1-3.6c0-1.4-0.4-2.9-2.2-2.9c-1.3,0-2.4,0.6-3,1.1l-0.5-0.8
							c0.7-0.5,2.1-1.3,3.6-1.3c2.3,0,3.1,1.6,3.1,3.8v6.1h-0.9l-0.1-1.2h0c-1,0.8-2.1,1.5-3.3,1.5
							C738.5,134.2,737.2,133.4,737.2,131.6z M743.3,131.9v-3.1c-3.8,0.4-5.1,1.3-5.1,2.8c0,1.3,0.9,1.8,2,1.8
							C741.3,133.4,742.2,132.8,743.3,131.9z"/>
						<path class="st2" d="M747.7,132.6v-12.9h1v13c0,0.5,0.2,0.6,0.4,0.6c0.1,0,0.1,0,0.3,0l0.2,0.8c-0.2,0.1-0.4,0.1-0.7,0.1
							C748.2,134.2,747.7,133.7,747.7,132.6z"/>
						<path class="st2" d="M755.4,132.9l0.6-0.8c0.8,0.7,1.7,1.2,3,1.2c1.5,0,2.2-0.8,2.2-1.8c0-1.1-1.2-1.7-2.3-2.1
							c-1.4-0.5-3-1.1-3-2.8c0-1.4,1.1-2.6,3.2-2.6c1,0,2.1,0.5,2.8,1l-0.5,0.7c-0.6-0.5-1.4-0.9-2.3-0.9c-1.4,0-2.1,0.8-2.1,1.7
							c0,1.1,1.1,1.5,2.2,1.9c1.5,0.6,3.1,1.1,3.1,2.9c0,1.5-1.2,2.7-3.3,2.7C757.5,134.2,756.2,133.6,755.4,132.9z"/>
						<path class="st2" d="M763.9,129.2c0-3.2,2-5.1,4.3-5.1s4.3,1.9,4.3,5.1c0,3.2-2,5-4.3,5S763.9,132.4,763.9,129.2z
							 M771.5,129.2c0-2.4-1.4-4.1-3.3-4.1c-1.9,0-3.2,1.7-3.2,4.1c0,2.4,1.4,4.1,3.2,4.1C770.1,133.3,771.5,131.7,771.5,129.2z"/>
						<path class="st2" d="M775.2,130.5v-6.1h1v6c0,2,0.6,2.9,2.1,2.9c1.1,0,1.9-0.6,3-1.9v-7h1v9.6h-0.9l-0.1-1.6h-0.1
							c-0.9,1.1-1.9,1.8-3.2,1.8C776.1,134.2,775.2,133,775.2,130.5z"/>
						<path class="st2" d="M786,124.4h0.9l0.1,1.8h0c0.6-1.2,1.6-2,2.7-2c0.4,0,0.7,0.1,1,0.2l-0.2,0.9c-0.3-0.1-0.5-0.2-0.9-0.2
							c-0.8,0-1.9,0.6-2.6,2.4v6.4h-1V124.4z"/>
						<path class="st2" d="M791.5,129.2c0-3.2,2.1-5.1,4.4-5.1c1.3,0,2.1,0.6,2.8,1.2l-0.6,0.7c-0.6-0.6-1.3-1-2.2-1
							c-1.9,0-3.4,1.7-3.4,4.1c0,2.4,1.3,4.1,3.3,4.1c1,0,1.9-0.5,2.5-1.1l0.5,0.7c-0.8,0.7-1.9,1.2-3.1,1.2
							C793.3,134.2,791.5,132.4,791.5,129.2z"/>
						<path class="st2" d="M800.1,129.2c0-3.1,2-5.1,4.2-5.1c2.3,0,3.7,1.7,3.7,4.5c0,0.3,0,0.5-0.1,0.8h-6.8c0.1,2.3,1.4,4,3.5,4
							c1,0,1.8-0.3,2.6-0.8l0.4,0.8c-0.8,0.5-1.7,0.9-3.1,0.9C802.1,134.2,800.1,132.4,800.1,129.2z M807,128.5
							c0-2.3-1.1-3.5-2.7-3.5c-1.6,0-3,1.3-3.2,3.5H807z"/>
						<path class="st2" d="M809.4,132.9l0.6-0.8c0.8,0.7,1.7,1.2,3,1.2c1.5,0,2.2-0.8,2.2-1.8c0-1.1-1.2-1.7-2.3-2.1
							c-1.4-0.5-3-1.1-3-2.8c0-1.4,1.1-2.6,3.2-2.6c1,0,2.1,0.5,2.8,1l-0.5,0.7c-0.6-0.5-1.4-0.9-2.3-0.9c-1.4,0-2.1,0.8-2.1,1.7
							c0,1.1,1.1,1.5,2.2,1.9c1.5,0.6,3.1,1.1,3.1,2.9c0,1.5-1.2,2.7-3.3,2.7C811.5,134.2,810.2,133.6,809.4,132.9z"/>
					</g>
					<text transform="matrix(1 0 0 1 816.8724 134)" class="st2 st5 st6"> </text>
					<g class="st1">
						<path class="st2" d="M121.8,163.6h4.4v0.9h-4.4V163.6z"/>
						<path class="st2" d="M131.1,155.9h1.2l2.4,7.5c0.5,1.6,0.8,2.8,1.4,4.4h0.1c0.5-1.6,0.9-2.8,1.4-4.4l2.3-7.5h1.1l-4.3,13.1
							h-1.2L131.1,155.9z"/>
						<path class="st2" d="M141.6,164.2c0-3.1,2-5.1,4.2-5.1c2.3,0,3.7,1.7,3.7,4.5c0,0.3,0,0.5-0.1,0.8h-6.8c0.1,2.3,1.4,4,3.5,4
							c1,0,1.8-0.3,2.6-0.8l0.4,0.8c-0.8,0.5-1.7,0.9-3.1,0.9C143.6,169.2,141.6,167.4,141.6,164.2z M148.6,163.5
							c0-2.3-1.1-3.5-2.7-3.5c-1.6,0-3,1.3-3.2,3.5H148.6z"/>
						<path class="st2" d="M152.1,159.4h0.9l0.1,1.8h0c0.6-1.2,1.6-2,2.7-2c0.4,0,0.7,0.1,1,0.2l-0.2,0.9c-0.3-0.1-0.5-0.2-0.9-0.2
							c-0.8,0-1.9,0.6-2.6,2.4v6.4h-1V159.4z"/>
						<path class="st2" d="M158.2,156.3c0-0.5,0.4-0.9,0.9-0.9c0.5,0,0.9,0.3,0.9,0.9c0,0.5-0.4,0.8-0.9,0.8
							C158.6,157.2,158.2,156.8,158.2,156.3z M158.6,159.4h1v9.6h-1V159.4z"/>
						<path class="st2" d="M167,155.6c-0.4-0.2-0.8-0.3-1.1-0.3c-1,0-1.5,0.8-1.5,2.1v2h2.2v0.9h-2.2v8.7h-1v-8.7H162v-0.8l1.3-0.1
							v-2c0-1.9,0.8-2.9,2.5-2.9c0.5,0,1,0.1,1.4,0.3L167,155.6z"/>
						<path class="st2" d="M167.3,173.1l0.2-0.9c0.2,0.1,0.5,0.1,0.8,0.1c1.2,0,1.9-1,2.4-2.4l0.3-0.8l-3.9-9.7h1.1l2.2,5.9
							c0.3,0.8,0.7,1.8,1,2.7h0.1c0.3-0.9,0.6-1.9,0.9-2.7l2-5.9h1.1l-3.7,10.7c-0.6,1.7-1.5,3.2-3.3,3.2
							C167.9,173.3,167.5,173.2,167.3,173.1z"/>
						<path class="st2" d="M180.6,164.2c0-3.1,2-5.1,4.2-5.1c2.3,0,3.7,1.7,3.7,4.5c0,0.3,0,0.5-0.1,0.8h-6.8c0.1,2.3,1.4,4,3.5,4
							c1,0,1.8-0.3,2.6-0.8l0.4,0.8c-0.8,0.5-1.7,0.9-3.1,0.9C182.6,169.2,180.6,167.4,180.6,164.2z M187.5,163.5
							c0-2.3-1.1-3.5-2.7-3.5c-1.6,0-3,1.3-3.2,3.5H187.5z"/>
						<path class="st2" d="M200.3,155.6c-0.4-0.2-0.8-0.3-1.1-0.3c-1,0-1.5,0.8-1.5,2.1v2h2.2v0.9h-2.2v8.7h-1v-8.7h-4.4v8.7h-1
							v-8.7h-1.3v-0.8l1.3-0.1v-1.7c0-2,1-3.1,2.7-3.1c0.6,0,1.1,0.1,1.7,0.3l-0.3,0.8c-0.5-0.2-0.9-0.3-1.4-0.3
							c-1.1,0-1.7,0.8-1.7,2.3v1.6h4.4v-2c0-1.9,0.8-2.9,2.5-2.9c0.5,0,1,0.1,1.4,0.3L200.3,155.6z"/>
						<path class="st2" d="M200.8,164.2c0-3.1,2-5.1,4.2-5.1c2.3,0,3.7,1.7,3.7,4.5c0,0.3,0,0.5-0.1,0.8h-6.8c0.1,2.3,1.4,4,3.5,4
							c1,0,1.8-0.3,2.6-0.8l0.4,0.8c-0.8,0.5-1.7,0.9-3.1,0.9C202.8,169.2,200.8,167.4,200.8,164.2z M207.8,163.5
							c0-2.3-1.1-3.5-2.7-3.5c-1.6,0-3,1.3-3.2,3.5H207.8z"/>
						<path class="st2" d="M210.5,164.2c0-3.2,2.1-5.1,4.4-5.1c1.3,0,2.1,0.6,2.8,1.2l-0.6,0.7c-0.6-0.6-1.3-1-2.2-1
							c-1.9,0-3.4,1.7-3.4,4.1c0,2.4,1.3,4.1,3.3,4.1c1,0,1.9-0.5,2.5-1.1l0.5,0.7c-0.8,0.7-1.9,1.2-3.1,1.2
							C212.4,169.2,210.5,167.4,210.5,164.2z"/>
						<path class="st2" d="M220.3,166.3v-6h-1.5v-0.8l1.5-0.1l0.1-2.8h0.9v2.8h2.8v0.9h-2.8v6c0,1.2,0.3,2,1.6,2
							c0.4,0,0.8-0.1,1.2-0.3l0.3,0.8c-0.6,0.2-1.2,0.4-1.6,0.4C220.9,169.2,220.3,168,220.3,166.3z"/>
						<path class="st2" d="M225.1,167.9l0.6-0.8c0.8,0.7,1.7,1.2,3,1.2c1.5,0,2.2-0.8,2.2-1.8c0-1.1-1.2-1.7-2.3-2.1
							c-1.4-0.5-3-1.1-3-2.8c0-1.4,1.1-2.6,3.2-2.6c1,0,2.1,0.5,2.8,1l-0.5,0.7c-0.6-0.5-1.4-0.9-2.3-0.9c-1.4,0-2.1,0.8-2.1,1.7
							c0,1.1,1.1,1.5,2.2,1.9c1.5,0.6,3.1,1.1,3.1,2.9c0,1.5-1.2,2.7-3.3,2.7C227.2,169.2,225.9,168.6,225.1,167.9z"/>
						<path class="st2" d="M237,159.4h1.1l1.7,6c0.2,0.9,0.4,1.7,0.6,2.6h0.1c0.2-0.9,0.4-1.7,0.7-2.6l1.7-6h1.2l1.7,6
							c0.2,0.9,0.5,1.7,0.7,2.6h0.1c0.2-0.9,0.4-1.7,0.7-2.6l1.6-6h1l-2.7,9.6h-1.4l-1.6-5.8c-0.3-0.9-0.5-1.8-0.7-2.8h-0.1
							c-0.2,1-0.4,1.9-0.7,2.8l-1.6,5.7h-1.3L237,159.4z"/>
						<path class="st2" d="M251.8,156.3c0-0.5,0.4-0.9,0.9-0.9c0.5,0,0.9,0.3,0.9,0.9c0,0.5-0.4,0.8-0.9,0.8
							C252.2,157.2,251.8,156.8,251.8,156.3z M252.1,159.4h1v9.6h-1V159.4z"/>
						<path class="st2" d="M257,166.3v-6h-1.5v-0.8l1.5-0.1l0.1-2.8h0.9v2.8h2.8v0.9h-2.8v6c0,1.2,0.3,2,1.6,2
							c0.4,0,0.8-0.1,1.2-0.3l0.3,0.8c-0.6,0.2-1.2,0.4-1.6,0.4C257.6,169.2,257,168,257,166.3z"/>
						<path class="st2" d="M263.1,154.7h1v4.1l0,2.1c1-1,2-1.7,3.3-1.7c2,0,2.9,1.2,2.9,3.7v6.1h-1v-6c0-2-0.6-2.9-2.1-2.9
							c-1.1,0-1.9,0.6-3,1.7v7.2h-1V154.7z"/>
						<path class="st2" d="M276.9,164.2c0-3.2,2.1-5.1,4.4-5.1c1.3,0,2.1,0.6,2.8,1.2l-0.6,0.7c-0.6-0.6-1.3-1-2.2-1
							c-1.9,0-3.4,1.7-3.4,4.1c0,2.4,1.3,4.1,3.3,4.1c1,0,1.9-0.5,2.5-1.1l0.5,0.7c-0.8,0.7-1.9,1.2-3.1,1.2
							C278.8,169.2,276.9,167.4,276.9,164.2z"/>
						<path class="st2" d="M285.5,164.2c0-3.1,2-5.1,4.2-5.1c2.3,0,3.7,1.7,3.7,4.5c0,0.3,0,0.5-0.1,0.8h-6.8c0.1,2.3,1.4,4,3.5,4
							c1,0,1.8-0.3,2.6-0.8l0.4,0.8c-0.8,0.5-1.7,0.9-3.1,0.9C287.5,169.2,285.5,167.4,285.5,164.2z M292.5,163.5
							c0-2.3-1.1-3.5-2.7-3.5c-1.6,0-3,1.3-3.2,3.5H292.5z"/>
						<path class="st2" d="M296,167.6v-12.9h1v13c0,0.5,0.2,0.6,0.4,0.6c0.1,0,0.1,0,0.3,0l0.2,0.8c-0.2,0.1-0.4,0.1-0.7,0.1
							C296.4,169.2,296,168.7,296,167.6z"/>
						<path class="st2" d="M300.8,167.6v-12.9h1v13c0,0.5,0.2,0.6,0.4,0.6c0.1,0,0.1,0,0.3,0l0.2,0.8c-0.2,0.1-0.4,0.1-0.7,0.1
							C301.2,169.2,300.8,168.7,300.8,167.6z"/>
						<path class="st2" d="M309.9,154.8h0.9l-5.9,17.3H304L309.9,154.8z"/>
						<path class="st2" d="M311.6,166.6c0-2.1,1.9-3.1,6.1-3.6c0-1.4-0.4-2.9-2.2-2.9c-1.3,0-2.4,0.6-3,1.1l-0.5-0.8
							c0.7-0.5,2.1-1.3,3.6-1.3c2.3,0,3.1,1.6,3.1,3.8v6.1h-0.9l-0.1-1.2h0c-1,0.8-2.1,1.5-3.3,1.5
							C312.8,169.2,311.6,168.4,311.6,166.6z M317.7,166.9v-3.1c-3.8,0.4-5.1,1.3-5.1,2.8c0,1.3,0.9,1.8,2,1.8
							C315.7,168.4,316.6,167.8,317.7,166.9z"/>
						<path class="st2" d="M322.1,159.4h0.9l0.1,1.8h0c0.6-1.2,1.6-2,2.7-2c0.4,0,0.7,0.1,1,0.2l-0.2,0.9c-0.3-0.1-0.5-0.2-0.9-0.2
							c-0.8,0-1.9,0.6-2.6,2.4v6.4h-1V159.4z"/>
						<path class="st2" d="M328.8,166.3v-6h-1.5v-0.8l1.5-0.1l0.1-2.8h0.9v2.8h2.8v0.9h-2.8v6c0,1.2,0.3,2,1.6,2
							c0.4,0,0.8-0.1,1.2-0.3l0.3,0.8c-0.6,0.2-1.2,0.4-1.6,0.4C329.4,169.2,328.8,168,328.8,166.3z"/>
						<path class="st2" d="M334.6,156.3c0-0.5,0.4-0.9,0.9-0.9c0.5,0,0.9,0.3,0.9,0.9c0,0.5-0.4,0.8-0.9,0.8
							C335,157.2,334.6,156.8,334.6,156.3z M334.9,159.4h1v9.6h-1V159.4z"/>
						<path class="st2" d="M339.7,157.4c0-1.9,0.8-2.9,2.5-2.9c0.5,0,1,0.1,1.4,0.3l-0.3,0.8c-0.4-0.2-0.8-0.3-1.1-0.3
							c-1,0-1.5,0.8-1.5,2.1v2h2.2v0.9h-2.2v8.7h-1v-8.7h-1.3v-0.8l1.3-0.1V157.4z M346.7,156.3c0,0.5-0.4,0.8-0.9,0.8
							c-0.5,0-0.9-0.3-0.9-0.8c0-0.5,0.4-0.9,0.9-0.9C346.3,155.5,346.7,155.8,346.7,156.3z M345.3,159.4h1v9.6h-1V159.4z"/>
						<path class="st2" d="M349.1,164.2c0-3.2,2.1-5.1,4.4-5.1c1.3,0,2.1,0.6,2.8,1.2l-0.6,0.7c-0.6-0.6-1.3-1-2.2-1
							c-1.9,0-3.4,1.7-3.4,4.1c0,2.4,1.3,4.1,3.3,4.1c1,0,1.9-0.5,2.5-1.1l0.5,0.7c-0.8,0.7-1.9,1.2-3.1,1.2
							C351,169.2,349.1,167.4,349.1,164.2z"/>
						<path class="st2" d="M358.5,156.3c0-0.5,0.4-0.9,0.9-0.9c0.5,0,0.9,0.3,0.9,0.9c0,0.5-0.4,0.8-0.9,0.8
							C358.9,157.2,358.5,156.8,358.5,156.3z M358.9,159.4h1v9.6h-1V159.4z"/>
						<path class="st2" d="M362.8,166.6c0-2.1,1.9-3.1,6.1-3.6c0-1.4-0.4-2.9-2.2-2.9c-1.3,0-2.4,0.6-3,1.1l-0.5-0.8
							c0.7-0.5,2.1-1.3,3.6-1.3c2.3,0,3.1,1.6,3.1,3.8v6.1h-0.9l-0.1-1.2h0c-1,0.8-2.1,1.5-3.3,1.5
							C364.1,169.2,362.8,168.4,362.8,166.6z M368.9,166.9v-3.1c-3.8,0.4-5.1,1.3-5.1,2.8c0,1.3,0.9,1.8,2,1.8
							C366.9,168.4,367.8,167.8,368.9,166.9z"/>
						<path class="st2" d="M373.3,167.6v-12.9h1v13c0,0.5,0.2,0.6,0.4,0.6c0.1,0,0.1,0,0.3,0l0.2,0.8c-0.2,0.1-0.4,0.1-0.7,0.1
							C373.8,169.2,373.3,168.7,373.3,167.6z"/>
						<path class="st2" d="M381,167.9l0.6-0.8c0.8,0.7,1.7,1.2,3,1.2c1.5,0,2.2-0.8,2.2-1.8c0-1.1-1.2-1.7-2.3-2.1
							c-1.4-0.5-3-1.1-3-2.8c0-1.4,1.1-2.6,3.2-2.6c1,0,2.1,0.5,2.8,1l-0.5,0.7c-0.6-0.5-1.4-0.9-2.3-0.9c-1.4,0-2.1,0.8-2.1,1.7
							c0,1.1,1.1,1.5,2.2,1.9c1.5,0.6,3.1,1.1,3.1,2.9c0,1.5-1.2,2.7-3.3,2.7C383.1,169.2,381.8,168.6,381,167.9z"/>
						<path class="st2" d="M390.3,154.7h1v10.4h0l4.6-5.7h1.2l-3.1,3.8l3.6,5.8h-1.2l-3.1-5l-2.1,2.4v2.6h-1V154.7z"/>
						<path class="st2" d="M399.3,156.3c0-0.5,0.4-0.9,0.9-0.9c0.5,0,0.9,0.3,0.9,0.9c0,0.5-0.4,0.8-0.9,0.8
							C399.7,157.2,399.3,156.8,399.3,156.3z M399.7,159.4h1v9.6h-1V159.4z"/>
						<path class="st2" d="M404.3,159.4h0.9l0.1,1.5h0c1-1,2-1.7,3.3-1.7c2,0,2.9,1.2,2.9,3.7v6.1h-1v-6c0-2-0.6-2.9-2.1-2.9
							c-1.1,0-1.9,0.6-3,1.7v7.2h-1V159.4z"/>
						<path class="st2" d="M419.2,166.3v-6h-1.5v-0.8l1.5-0.1l0.1-2.8h0.9v2.8h2.8v0.9h-2.8v6c0,1.2,0.3,2,1.6,2
							c0.4,0,0.8-0.1,1.2-0.3l0.3,0.8c-0.6,0.2-1.2,0.4-1.6,0.4C419.8,169.2,419.2,168,419.2,166.3z"/>
						<path class="st2" d="M424.3,164.2c0-3.1,2-5.1,4.2-5.1c2.3,0,3.7,1.7,3.7,4.5c0,0.3,0,0.5-0.1,0.8h-6.8c0.1,2.3,1.4,4,3.5,4
							c1,0,1.8-0.3,2.6-0.8l0.4,0.8c-0.8,0.5-1.7,0.9-3.1,0.9C426.3,169.2,424.3,167.4,424.3,164.2z M431.2,163.5
							c0-2.3-1.1-3.5-2.7-3.5c-1.6,0-3,1.3-3.2,3.5H431.2z"/>
						<path class="st2" d="M433.6,167.9l0.6-0.8c0.8,0.7,1.7,1.2,3,1.2c1.5,0,2.2-0.8,2.2-1.8c0-1.1-1.2-1.7-2.3-2.1
							c-1.4-0.5-3-1.1-3-2.8c0-1.4,1.1-2.6,3.2-2.6c1,0,2.1,0.5,2.8,1l-0.5,0.7c-0.6-0.5-1.4-0.9-2.3-0.9c-1.4,0-2.1,0.8-2.1,1.7
							c0,1.1,1.1,1.5,2.2,1.9c1.5,0.6,3.1,1.1,3.1,2.9c0,1.5-1.2,2.7-3.3,2.7C435.7,169.2,434.4,168.6,433.6,167.9z"/>
						<path class="st2" d="M442.7,166.3v-6h-1.5v-0.8l1.5-0.1l0.1-2.8h0.9v2.8h2.8v0.9h-2.8v6c0,1.2,0.3,2,1.6,2
							c0.4,0,0.8-0.1,1.2-0.3l0.3,0.8c-0.6,0.2-1.2,0.4-1.6,0.4C443.3,169.2,442.7,168,442.7,166.3z"/>
						<path class="st2" d="M447.4,167.9l0.6-0.8c0.8,0.7,1.7,1.2,3,1.2c1.5,0,2.2-0.8,2.2-1.8c0-1.1-1.2-1.7-2.3-2.1
							c-1.4-0.5-3-1.1-3-2.8c0-1.4,1.1-2.6,3.2-2.6c1,0,2.1,0.5,2.8,1l-0.5,0.7c-0.6-0.5-1.4-0.9-2.3-0.9c-1.4,0-2.1,0.8-2.1,1.7
							c0,1.1,1.1,1.5,2.2,1.9c1.5,0.6,3.1,1.1,3.1,2.9c0,1.5-1.2,2.7-3.3,2.7C449.6,169.2,448.3,168.6,447.4,167.9z"/>
						<path class="st2" d="M460.7,163.5c0-3.5,1-6.4,2.6-9l0.6,0.3c-1.6,2.5-2.4,5.6-2.4,8.7c0,3.1,0.8,6.2,2.4,8.7l-0.6,0.3
							C461.7,169.8,460.7,167,460.7,163.5z"/>
						<path class="st2" d="M466.4,159.4h0.9l0.1,1.8h0c0.6-1.2,1.6-2,2.7-2c0.4,0,0.7,0.1,1,0.2l-0.2,0.9c-0.3-0.1-0.5-0.2-0.9-0.2
							c-0.8,0-1.9,0.6-2.6,2.4v6.4h-1V159.4z"/>
						<path class="st2" d="M471.9,164.2c0-3.1,2-5.1,4.2-5.1c2.3,0,3.7,1.7,3.7,4.5c0,0.3,0,0.5-0.1,0.8h-6.8c0.1,2.3,1.4,4,3.5,4
							c1,0,1.8-0.3,2.6-0.8l0.4,0.8c-0.8,0.5-1.7,0.9-3.1,0.9C473.9,169.2,471.9,167.4,471.9,164.2z M478.9,163.5
							c0-2.3-1.1-3.5-2.7-3.5c-1.6,0-3,1.3-3.2,3.5H478.9z"/>
						<path class="st2" d="M486.2,155.6c-0.4-0.2-0.8-0.3-1.1-0.3c-1,0-1.5,0.8-1.5,2.1v2h2.2v0.9h-2.2v8.7h-1v-8.7h-1.3v-0.8
							l1.3-0.1v-2c0-1.9,0.8-2.9,2.5-2.9c0.5,0,1,0.1,1.4,0.3L486.2,155.6z"/>
						<path class="st2" d="M487.7,159.4h0.9l0.1,1.8h0c0.6-1.2,1.6-2,2.7-2c0.4,0,0.7,0.1,1,0.2l-0.2,0.9c-0.3-0.1-0.5-0.2-0.9-0.2
							c-0.8,0-1.9,0.6-2.6,2.4v6.4h-1V159.4z"/>
						<path class="st2" d="M493.1,166.6c0-2.1,1.9-3.1,6.1-3.6c0-1.4-0.4-2.9-2.2-2.9c-1.3,0-2.4,0.6-3,1.1l-0.5-0.8
							c0.7-0.5,2.1-1.3,3.6-1.3c2.3,0,3.1,1.6,3.1,3.8v6.1h-0.9l-0.1-1.2h0c-1,0.8-2.1,1.5-3.3,1.5
							C494.3,169.2,493.1,168.4,493.1,166.6z M499.2,166.9v-3.1c-3.8,0.4-5.1,1.3-5.1,2.8c0,1.3,0.9,1.8,2,1.8
							C497.2,168.4,498.1,167.8,499.2,166.9z"/>
						<path class="st2" d="M503.3,156.3c0-0.5,0.4-0.9,0.9-0.9c0.5,0,0.9,0.3,0.9,0.9c0,0.5-0.4,0.8-0.9,0.8
							C503.7,157.2,503.3,156.8,503.3,156.3z M503.6,159.4h1v9.6h-1V159.4z"/>
						<path class="st2" d="M508.2,159.4h0.9l0.1,1.5h0c1-1,2-1.7,3.3-1.7c2,0,2.9,1.2,2.9,3.7v6.1h-1v-6c0-2-0.6-2.9-2.1-2.9
							c-1.1,0-1.9,0.6-3,1.7v7.2h-1V159.4z"/>
						<path class="st2" d="M526.7,155.6c-0.4-0.2-0.8-0.3-1.1-0.3c-1,0-1.5,0.8-1.5,2.1v2h2.2v0.9h-2.2v8.7h-1v-8.7h-1.3v-0.8
							l1.3-0.1v-2c0-1.9,0.8-2.9,2.5-2.9c0.5,0,1,0.1,1.4,0.3L526.7,155.6z"/>
						<path class="st2" d="M528.3,159.4h0.9l0.1,1.8h0c0.6-1.2,1.6-2,2.7-2c0.4,0,0.7,0.1,1,0.2l-0.2,0.9c-0.3-0.1-0.5-0.2-0.9-0.2
							c-0.8,0-1.9,0.6-2.6,2.4v6.4h-1V159.4z"/>
						<path class="st2" d="M533.7,164.2c0-3.2,2-5.1,4.3-5.1s4.3,1.9,4.3,5.1c0,3.2-2,5-4.3,5S533.7,167.4,533.7,164.2z
							 M541.3,164.2c0-2.4-1.4-4.1-3.3-4.1s-3.2,1.7-3.2,4.1c0,2.4,1.4,4.1,3.2,4.1S541.3,166.7,541.3,164.2z"/>
						<path class="st2" d="M545.2,159.4h0.9l0.1,1.5h0c0.9-1,1.9-1.7,3-1.7c1.5,0,2.3,0.8,2.6,1.9c1.1-1.2,2.1-1.9,3.2-1.9
							c1.9,0,2.9,1.2,2.9,3.7v6.1h-1v-6c0-2-0.7-2.9-2.1-2.9c-0.9,0-1.7,0.6-2.8,1.7v7.2h-1v-6c0-2-0.6-2.9-2.1-2.9
							c-0.8,0-1.8,0.6-2.8,1.7v7.2h-1V159.4z"/>
						<path class="st2" d="M565.3,165.5v-6.1h1v6c0,2,0.6,2.9,2.1,2.9c1.1,0,1.9-0.6,3-1.9v-7h1v9.6h-0.9l-0.1-1.6h-0.1
							c-0.9,1.1-1.9,1.8-3.2,1.8C566.2,169.2,565.3,168,565.3,165.5z"/>
						<path class="st2" d="M576.1,159.4h0.9l0.1,1.5h0c1-1,2-1.7,3.3-1.7c2,0,2.9,1.2,2.9,3.7v6.1h-1v-6c0-2-0.6-2.9-2.1-2.9
							c-1.1,0-1.9,0.6-3,1.7v7.2h-1V159.4z"/>
						<path class="st2" d="M586.8,159.4h0.9l0.1,1.5h0c1-1,2-1.7,3.3-1.7c2,0,2.9,1.2,2.9,3.7v6.1h-1v-6c0-2-0.6-2.9-2.1-2.9
							c-1.1,0-1.9,0.6-3,1.7v7.2h-1V159.4z"/>
						<path class="st2" d="M596.7,164.2c0-3.1,2-5.1,4.2-5.1c2.3,0,3.7,1.7,3.7,4.5c0,0.3,0,0.5-0.1,0.8h-6.8c0.1,2.3,1.4,4,3.5,4
							c1,0,1.8-0.3,2.6-0.8l0.4,0.8c-0.8,0.5-1.7,0.9-3.1,0.9C598.7,169.2,596.7,167.4,596.7,164.2z M603.6,163.5
							c0-2.3-1.1-3.5-2.7-3.5c-1.6,0-3,1.3-3.2,3.5H603.6z"/>
						<path class="st2" d="M606.3,164.2c0-3.2,2.1-5.1,4.4-5.1c1.3,0,2.1,0.6,2.8,1.2L613,161c-0.6-0.6-1.3-1-2.2-1
							c-1.9,0-3.4,1.7-3.4,4.1c0,2.4,1.3,4.1,3.3,4.1c1,0,1.9-0.5,2.5-1.1l0.5,0.7c-0.8,0.7-1.9,1.2-3.1,1.2
							C608.2,169.2,606.3,167.4,606.3,164.2z"/>
						<path class="st2" d="M614.9,164.2c0-3.1,2-5.1,4.2-5.1c2.3,0,3.7,1.7,3.7,4.5c0,0.3,0,0.5-0.1,0.8H616c0.1,2.3,1.4,4,3.5,4
							c1,0,1.8-0.3,2.6-0.8l0.4,0.8c-0.8,0.5-1.7,0.9-3.1,0.9C616.9,169.2,614.9,167.4,614.9,164.2z M621.9,163.5
							c0-2.3-1.1-3.5-2.7-3.5c-1.6,0-3,1.3-3.2,3.5H621.9z"/>
						<path class="st2" d="M624.3,167.9l0.6-0.8c0.8,0.7,1.7,1.2,3,1.2c1.5,0,2.2-0.8,2.2-1.8c0-1.1-1.2-1.7-2.3-2.1
							c-1.4-0.5-3-1.1-3-2.8c0-1.4,1.1-2.6,3.2-2.6c1,0,2.1,0.5,2.8,1l-0.5,0.7c-0.6-0.5-1.3-0.9-2.3-0.9c-1.4,0-2.1,0.8-2.1,1.7
							c0,1.1,1.1,1.5,2.2,1.9c1.5,0.6,3.1,1.1,3.1,2.9c0,1.5-1.2,2.7-3.3,2.7C626.4,169.2,625.1,168.6,624.3,167.9z"/>
						<path class="st2" d="M632.4,167.9l0.6-0.8c0.8,0.7,1.7,1.2,3,1.2c1.5,0,2.2-0.8,2.2-1.8c0-1.1-1.2-1.7-2.3-2.1
							c-1.4-0.5-3-1.1-3-2.8c0-1.4,1.1-2.6,3.2-2.6c1,0,2.1,0.5,2.8,1l-0.5,0.7c-0.6-0.5-1.4-0.9-2.3-0.9c-1.4,0-2.1,0.8-2.1,1.7
							c0,1.1,1.1,1.5,2.2,1.9c1.5,0.6,3.1,1.1,3.1,2.9c0,1.5-1.2,2.7-3.3,2.7C634.5,169.2,633.3,168.6,632.4,167.9z"/>
						<path class="st2" d="M641,166.6c0-2.1,1.9-3.1,6.1-3.6c0-1.4-0.4-2.9-2.2-2.9c-1.3,0-2.4,0.6-3,1.1l-0.5-0.8
							c0.7-0.5,2.1-1.3,3.6-1.3c2.3,0,3.1,1.6,3.1,3.8v6.1h-0.9l-0.1-1.2h0c-1,0.8-2.1,1.5-3.3,1.5C642.3,169.2,641,168.4,641,166.6
							z M647.2,166.9v-3.1c-3.8,0.4-5.1,1.3-5.1,2.8c0,1.3,0.9,1.8,2,1.8C645.1,168.4,646,167.8,647.2,166.9z"/>
						<path class="st2" d="M651.5,159.4h0.9l0.1,1.8h0c0.6-1.2,1.6-2,2.7-2c0.4,0,0.7,0.1,1,0.2l-0.2,0.9c-0.3-0.1-0.5-0.2-0.9-0.2
							c-0.8,0-1.9,0.6-2.6,2.4v6.4h-1V159.4z"/>
						<path class="st2" d="M657.4,173.1l0.2-0.9c0.2,0.1,0.5,0.1,0.8,0.1c1.2,0,1.9-1,2.4-2.4l0.3-0.8l-3.9-9.7h1.1l2.2,5.9
							c0.3,0.8,0.7,1.8,1,2.7h0.1c0.3-0.9,0.6-1.9,0.9-2.7l2-5.9h1.1l-3.7,10.7c-0.6,1.7-1.5,3.2-3.3,3.2
							C658,173.3,657.6,173.2,657.4,173.1z"/>
						<path class="st2" d="M670.8,166.6c0-2.1,1.9-3.1,6.1-3.6c0-1.4-0.4-2.9-2.2-2.9c-1.3,0-2.4,0.6-3,1.1l-0.5-0.8
							c0.7-0.5,2.1-1.3,3.6-1.3c2.3,0,3.1,1.6,3.1,3.8v6.1h-0.9l-0.1-1.2h0c-1,0.8-2.1,1.5-3.3,1.5
							C672.1,169.2,670.8,168.4,670.8,166.6z M676.9,166.9v-3.1c-3.8,0.4-5.1,1.3-5.1,2.8c0,1.3,0.9,1.8,2,1.8
							C674.9,168.4,675.8,167.8,676.9,166.9z"/>
						<path class="st2" d="M681.3,159.4h0.9l0.1,1.5h0c1-1,2-1.7,3.3-1.7c2,0,2.9,1.2,2.9,3.7v6.1h-1v-6c0-2-0.6-2.9-2.1-2.9
							c-1.1,0-1.9,0.6-3,1.7v7.2h-1V159.4z"/>
						<path class="st2" d="M691.7,156.3c0-0.5,0.4-0.9,0.9-0.9c0.5,0,0.9,0.3,0.9,0.9c0,0.5-0.4,0.8-0.9,0.8
							C692.1,157.2,691.7,156.8,691.7,156.3z M692,159.4h1v9.6h-1V159.4z"/>
						<path class="st2" d="M696.6,159.4h0.9l0.1,1.5h0c0.9-1,1.9-1.7,3-1.7c1.5,0,2.3,0.8,2.6,1.9c1.1-1.2,2.1-1.9,3.2-1.9
							c1.9,0,2.9,1.2,2.9,3.7v6.1h-1v-6c0-2-0.7-2.9-2.1-2.9c-0.9,0-1.7,0.6-2.8,1.7v7.2h-1v-6c0-2-0.6-2.9-2.1-2.9
							c-0.8,0-1.8,0.6-2.8,1.7v7.2h-1V159.4z"/>
						<path class="st2" d="M712.2,166.6c0-2.1,1.9-3.1,6.1-3.6c0-1.4-0.4-2.9-2.2-2.9c-1.3,0-2.4,0.6-3,1.1l-0.5-0.8
							c0.7-0.5,2.1-1.3,3.6-1.3c2.3,0,3.1,1.6,3.1,3.8v6.1h-0.9l-0.1-1.2h0c-1,0.8-2.1,1.5-3.3,1.5
							C713.5,169.2,712.2,168.4,712.2,166.6z M718.4,166.9v-3.1c-3.8,0.4-5.1,1.3-5.1,2.8c0,1.3,0.9,1.8,2,1.8
							C716.3,168.4,717.2,167.8,718.4,166.9z"/>
						<path class="st2" d="M722.7,167.6v-12.9h1v13c0,0.5,0.2,0.6,0.4,0.6c0.1,0,0.1,0,0.3,0l0.2,0.8c-0.2,0.1-0.4,0.1-0.7,0.1
							C723.2,169.2,722.7,168.7,722.7,167.6z"/>
						<path class="st2" d="M730.8,164.2c0-3.1,2-5.1,4.2-5.1c2.3,0,3.7,1.7,3.7,4.5c0,0.3,0,0.5-0.1,0.8h-6.8c0.1,2.3,1.4,4,3.5,4
							c1,0,1.8-0.3,2.6-0.8l0.4,0.8c-0.8,0.5-1.7,0.9-3.1,0.9C732.8,169.2,730.8,167.4,730.8,164.2z M737.7,163.5
							c0-2.3-1.1-3.5-2.7-3.5c-1.6,0-3,1.3-3.2,3.5H737.7z"/>
						<path class="st2" d="M742.9,164l-3-4.6h1.2l1.5,2.4c0.3,0.5,0.7,1.1,1,1.6h0.1c0.3-0.5,0.6-1,1-1.6l1.4-2.4h1.1l-3,4.7
							l3.2,4.9h-1.2l-1.6-2.5c-0.3-0.6-0.7-1.2-1.1-1.7h-0.1c-0.4,0.6-0.7,1.2-1.1,1.7l-1.5,2.5h-1.1L742.9,164z"/>
						<path class="st2" d="M749.4,159.4h0.9l0.1,1.2h0c0.9-0.7,2-1.4,3.2-1.4c2.6,0,3.9,1.9,3.9,4.9c0,3.3-2,5.2-4.2,5.2
							c-0.9,0-1.9-0.4-2.8-1.2l0,1.8v3.5h-1V159.4z M756.4,164c0-2.3-0.8-4-2.9-4c-0.9,0-1.9,0.5-3,1.5v5.5c1,0.9,2,1.2,2.7,1.2
							C755.1,168.3,756.4,166.6,756.4,164z"/>
						<path class="st2" d="M759.5,164.2c0-3.1,2-5.1,4.2-5.1c2.3,0,3.7,1.7,3.7,4.5c0,0.3,0,0.5-0.1,0.8h-6.8c0.1,2.3,1.4,4,3.5,4
							c1,0,1.8-0.3,2.6-0.8l0.4,0.8c-0.8,0.5-1.7,0.9-3.1,0.9C761.5,169.2,759.5,167.4,759.5,164.2z M766.5,163.5
							c0-2.3-1.1-3.5-2.7-3.5c-1.6,0-3,1.3-3.2,3.5H766.5z"/>
						<path class="st2" d="M770,159.4h0.9l0.1,1.8h0c0.6-1.2,1.6-2,2.7-2c0.4,0,0.7,0.1,1,0.2l-0.2,0.9c-0.3-0.1-0.5-0.2-0.9-0.2
							c-0.8,0-1.9,0.6-2.6,2.4v6.4h-1V159.4z"/>
						<path class="st2" d="M776.1,156.3c0-0.5,0.4-0.9,0.9-0.9c0.5,0,0.9,0.3,0.9,0.9c0,0.5-0.4,0.8-0.9,0.8
							C776.5,157.2,776.1,156.8,776.1,156.3z M776.5,159.4h1v9.6h-1V159.4z"/>
						<path class="st2" d="M781.1,159.4h0.9l0.1,1.5h0c0.9-1,1.9-1.7,3-1.7c1.5,0,2.3,0.8,2.6,1.9c1.1-1.2,2.1-1.9,3.2-1.9
							c1.9,0,2.9,1.2,2.9,3.7v6.1h-1v-6c0-2-0.7-2.9-2.1-2.9c-0.9,0-1.7,0.6-2.8,1.7v7.2h-1v-6c0-2-0.6-2.9-2.1-2.9
							c-0.8,0-1.8,0.6-2.8,1.7v7.2h-1V159.4z"/>
						<path class="st2" d="M796.6,164.2c0-3.1,2-5.1,4.2-5.1c2.3,0,3.7,1.7,3.7,4.5c0,0.3,0,0.5-0.1,0.8h-6.8c0.1,2.3,1.4,4,3.5,4
							c1,0,1.8-0.3,2.6-0.8l0.4,0.8c-0.8,0.5-1.7,0.9-3.1,0.9C798.6,169.2,796.6,167.4,796.6,164.2z M803.6,163.5
							c0-2.3-1.1-3.5-2.7-3.5c-1.6,0-3,1.3-3.2,3.5H803.6z"/>
						<path class="st2" d="M807.1,159.4h0.9l0.1,1.5h0c1-1,2-1.7,3.3-1.7c2,0,2.9,1.2,2.9,3.7v6.1h-1v-6c0-2-0.6-2.9-2.1-2.9
							c-1.1,0-1.9,0.6-3,1.7v7.2h-1V159.4z"/>
						<path class="st2" d="M818,166.3v-6h-1.5v-0.8l1.5-0.1l0.1-2.8h0.9v2.8h2.8v0.9H819v6c0,1.2,0.3,2,1.6,2c0.4,0,0.8-0.1,1.2-0.3
							l0.3,0.8c-0.6,0.2-1.2,0.4-1.6,0.4C818.5,169.2,818,168,818,166.3z"/>
						<path class="st2" d="M822.7,167.9l0.6-0.8c0.8,0.7,1.7,1.2,3,1.2c1.5,0,2.2-0.8,2.2-1.8c0-1.1-1.2-1.7-2.3-2.1
							c-1.4-0.5-3-1.1-3-2.8c0-1.4,1.1-2.6,3.2-2.6c1,0,2.1,0.5,2.8,1l-0.5,0.7c-0.6-0.5-1.3-0.9-2.3-0.9c-1.4,0-2.1,0.8-2.1,1.7
							c0,1.1,1.1,1.5,2.2,1.9c1.5,0.6,3.1,1.1,3.1,2.9c0,1.5-1.2,2.7-3.3,2.7C824.8,169.2,823.6,168.6,822.7,167.9z"/>
						<path class="st2" d="M835.9,163.5c0-3.5,1-6.4,2.6-9l0.6,0.3c-1.6,2.5-2.4,5.6-2.4,8.7c0,3.1,0.8,6.2,2.4,8.7l-0.6,0.3
							C836.9,169.8,835.9,167,835.9,163.5z"/>
						<path class="st2" d="M840.4,167.4l0.6-0.7c0.8,0.8,1.8,1.6,3.5,1.6c1.7,0,2.9-1.1,2.9-2.8c0-1.8-1.2-3-4.4-3v-0.9
							c2.9,0,3.9-1.2,3.9-2.8c0-1.4-1-2.4-2.5-2.4c-1.1,0-2.2,0.6-2.9,1.4l-0.6-0.7c0.9-0.8,2-1.5,3.5-1.5c2,0,3.5,1.2,3.5,3.2
							c0,1.7-1,2.8-2.4,3.2v0.1c1.6,0.3,2.9,1.5,2.9,3.4c0,2.3-1.7,3.7-4,3.7C842.5,169.2,841.3,168.3,840.4,167.4z"/>
						<path class="st2" d="M858.7,169l-3.5-5.9h-2.7v5.9h-1.1v-13.1h3.8c2.6,0,4.4,1,4.4,3.5c0,2.1-1.3,3.3-3.3,3.6l3.5,6H858.7z
							 M852.5,162.2h2.5c2.3,0,3.5-0.9,3.5-2.8c0-1.9-1.3-2.6-3.5-2.6h-2.5V162.2z"/>
						<path class="st2" d="M861.1,167.9l0.6-0.8c0.8,0.7,1.7,1.2,3,1.2c1.5,0,2.2-0.8,2.2-1.8c0-1.1-1.2-1.7-2.3-2.1
							c-1.4-0.5-3-1.1-3-2.8c0-1.4,1.1-2.6,3.2-2.6c1,0,2.1,0.5,2.8,1l-0.5,0.7c-0.6-0.5-1.3-0.9-2.3-0.9c-1.4,0-2.1,0.8-2.1,1.7
							c0,1.1,1.1,1.5,2.2,1.9c1.5,0.6,3.1,1.1,3.1,2.9c0,1.5-1.2,2.7-3.3,2.7C863.2,169.2,861.9,168.6,861.1,167.9z"/>
						<path class="st2" d="M869.2,172.2c1.6-2.5,2.4-5.6,2.4-8.7c0-3.1-0.8-6.2-2.4-8.7l0.6-0.3c1.6,2.6,2.6,5.5,2.6,9
							c0,3.5-1,6.4-2.6,9L869.2,172.2z"/>
						<path class="st2" d="M874.9,172.2c1.6-2.5,2.4-5.6,2.4-8.7c0-3.1-0.8-6.2-2.4-8.7l0.6-0.3c1.6,2.6,2.6,5.5,2.6,9
							c0,3.5-1,6.4-2.6,9L874.9,172.2z"/>
					</g>
					<text transform="matrix(1 0 0 1 879.5252 169)" class="st2 st5 st6"> </text>
					<g class="st1">
						<path class="st2" d="M121.8,198.6h4.4v0.9h-4.4V198.6z"/>
						<path class="st2" d="M138.8,199.6h-5.1l-1.5,4.4h-1.1l4.6-13.1h1.1l4.6,13.1h-1.2L138.8,199.6z M138.5,198.7l-0.8-2.4
							c-0.5-1.5-1-2.9-1.4-4.5h-0.1c-0.5,1.6-0.9,3-1.4,4.5l-0.8,2.4H138.5z"/>
						<path class="st2" d="M143.4,194.4h0.9l0.1,1.2h0c0.9-0.7,2-1.4,3.2-1.4c2.6,0,3.9,1.9,3.9,4.9c0,3.3-2,5.2-4.2,5.2
							c-0.9,0-1.9-0.4-2.8-1.2l0,1.8v3.5h-1V194.4z M150.3,199c0-2.3-0.8-4-2.9-4c-0.9,0-1.9,0.5-3,1.5v5.5c1,0.9,2,1.2,2.7,1.2
							C149,203.3,150.3,201.6,150.3,199z"/>
						<path class="st2" d="M154.2,194.4h0.9l0.1,1.2h0c0.9-0.7,2-1.4,3.2-1.4c2.6,0,3.9,1.9,3.9,4.9c0,3.3-2,5.2-4.2,5.2
							c-0.9,0-1.9-0.4-2.8-1.2l0,1.8v3.5h-1V194.4z M161.2,199c0-2.3-0.8-4-2.9-4c-0.9,0-1.9,0.5-3,1.5v5.5c1,0.9,2,1.2,2.7,1.2
							C159.9,203.3,161.2,201.6,161.2,199z"/>
						<path class="st2" d="M165.1,194.4h0.9l0.1,1.8h0c0.6-1.2,1.6-2,2.7-2c0.4,0,0.7,0.1,1,0.2l-0.2,0.9c-0.3-0.1-0.5-0.2-0.9-0.2
							c-0.8,0-1.9,0.6-2.6,2.4v6.4h-1V194.4z"/>
						<path class="st2" d="M170.6,199.2c0-3.2,2-5.1,4.3-5.1s4.3,1.9,4.3,5.1c0,3.2-2,5-4.3,5S170.6,202.4,170.6,199.2z
							 M178.2,199.2c0-2.4-1.4-4.1-3.3-4.1s-3.2,1.7-3.2,4.1c0,2.4,1.4,4.1,3.2,4.1S178.2,201.7,178.2,199.2z"/>
						<path class="st2" d="M181.1,201.6c0-2.1,1.9-3.1,6.1-3.6c0-1.4-0.4-2.9-2.2-2.9c-1.3,0-2.4,0.6-3,1.1l-0.5-0.8
							c0.7-0.5,2.1-1.3,3.6-1.3c2.3,0,3.1,1.6,3.1,3.8v6.1h-0.9l-0.1-1.2h0c-1,0.8-2.1,1.5-3.3,1.5
							C182.4,204.2,181.1,203.4,181.1,201.6z M187.2,201.9v-3.1c-3.8,0.4-5.1,1.3-5.1,2.8c0,1.3,0.9,1.8,2,1.8
							C185.2,203.4,186.1,202.8,187.2,201.9z"/>
						<path class="st2" d="M190.8,199.2c0-3.2,2.1-5.1,4.4-5.1c1.3,0,2.1,0.6,2.8,1.2l-0.6,0.7c-0.6-0.6-1.3-1-2.2-1
							c-1.9,0-3.4,1.7-3.4,4.1c0,2.4,1.3,4.1,3.3,4.1c1,0,1.9-0.5,2.5-1.1l0.5,0.7c-0.8,0.7-1.9,1.2-3.1,1.2
							C192.7,204.2,190.8,202.4,190.8,199.2z"/>
						<path class="st2" d="M200.6,189.7h1v4.1l0,2.1c1-1,2-1.7,3.3-1.7c2,0,2.9,1.2,2.9,3.7v6.1h-1v-6c0-2-0.6-2.9-2.1-2.9
							c-1.1,0-1.9,0.6-3,1.7v7.2h-1V189.7z"/>
						<path class="st2" d="M214.9,191.3c0-0.5,0.4-0.9,0.9-0.9c0.5,0,0.9,0.3,0.9,0.9c0,0.5-0.4,0.8-0.9,0.8
							C215.3,192.2,214.9,191.8,214.9,191.3z M215.2,194.4h1v9.6h-1V194.4z"/>
						<path class="st2" d="M219.8,194.4h0.9l0.1,1.5h0c1-1,2-1.7,3.3-1.7c2,0,2.9,1.2,2.9,3.7v6.1h-1v-6c0-2-0.6-2.9-2.1-2.9
							c-1.1,0-1.9,0.6-3,1.7v7.2h-1V194.4z"/>
						<path class="st2" d="M229.7,205.9c0-0.8,0.6-1.7,1.4-2.3v-0.1c-0.5-0.3-0.9-0.8-0.9-1.5c0-0.8,0.6-1.5,1.1-1.8v-0.1
							c-0.6-0.5-1.2-1.5-1.2-2.6c0-2,1.5-3.4,3.4-3.4c0.5,0,1,0.1,1.3,0.3h3.3v0.9h-2.2c0.6,0.5,1,1.3,1,2.3c0,2-1.5,3.4-3.4,3.4
							c-0.5,0-1.1-0.1-1.5-0.4c-0.4,0.3-0.8,0.7-0.8,1.3c0,0.7,0.4,1.2,1.8,1.2h2c2.2,0,3.2,0.7,3.2,2.2c0,1.7-1.8,3.3-4.6,3.3
							C231.3,208.6,229.7,207.6,229.7,205.9z M237.2,205.5c0-1-0.8-1.4-2.2-1.4h-2c-0.2,0-0.7-0.1-1.2-0.2c-0.8,0.6-1.2,1.3-1.2,1.9
							c0,1.2,1.1,2,3.1,2C235.9,207.8,237.2,206.6,237.2,205.5z M235.9,197.6c0-1.6-1.1-2.6-2.4-2.6c-1.3,0-2.4,1-2.4,2.6
							c0,1.6,1.1,2.6,2.4,2.6C234.8,200.2,235.9,199.1,235.9,197.6z"/>
						<path class="st2" d="M240.3,194.4h0.9l0.1,1.8h0c0.6-1.2,1.6-2,2.7-2c0.4,0,0.7,0.1,1,0.2l-0.2,0.9c-0.3-0.1-0.5-0.2-0.9-0.2
							c-0.8,0-1.9,0.6-2.6,2.4v6.4h-1V194.4z"/>
						<path class="st2" d="M245.8,199.2c0-3.1,2-5.1,4.2-5.1c2.3,0,3.7,1.7,3.7,4.5c0,0.3,0,0.5-0.1,0.8h-6.8c0.1,2.3,1.4,4,3.5,4
							c1,0,1.8-0.3,2.6-0.8l0.4,0.8c-0.8,0.5-1.7,0.9-3.1,0.9C247.8,204.2,245.8,202.4,245.8,199.2z M252.7,198.5
							c0-2.3-1.1-3.5-2.7-3.5c-1.6,0-3,1.3-3.2,3.5H252.7z"/>
						<path class="st2" d="M255.4,199.2c0-3.1,2-5.1,4.2-5.1c1.2,0,1.9,0.4,2.9,1.2l-0.1-1.7v-3.9h1V204h-0.9l-0.1-1.2h0
							c-0.8,0.8-1.8,1.4-3.1,1.4C257,204.2,255.4,202.4,255.4,199.2z M262.5,201.8v-5.5c-1-0.9-1.8-1.2-2.7-1.2
							c-1.8,0-3.2,1.8-3.2,4.1c0,2.5,1.1,4.1,3,4.1C260.6,203.3,261.5,202.8,262.5,201.8z"/>
						<path class="st2" d="M266.8,191.3c0-0.5,0.4-0.9,0.9-0.9c0.5,0,0.9,0.3,0.9,0.9c0,0.5-0.4,0.8-0.9,0.8
							C267.2,192.2,266.8,191.8,266.8,191.3z M267.1,194.4h1v9.6h-1V194.4z"/>
						<path class="st2" d="M271,199.2c0-3.1,2-5.1,4.2-5.1c2.3,0,3.7,1.7,3.7,4.5c0,0.3,0,0.5-0.1,0.8H272c0.1,2.3,1.4,4,3.5,4
							c1,0,1.8-0.3,2.6-0.8l0.4,0.8c-0.8,0.5-1.7,0.9-3.1,0.9C273,204.2,271,202.4,271,199.2z M277.9,198.5c0-2.3-1.1-3.5-2.7-3.5
							c-1.6,0-3,1.3-3.2,3.5H277.9z"/>
						<path class="st2" d="M281.4,194.4h0.9l0.1,1.5h0c1-1,2-1.7,3.3-1.7c2,0,2.9,1.2,2.9,3.7v6.1h-1v-6c0-2-0.6-2.9-2.1-2.9
							c-1.1,0-1.9,0.6-3,1.7v7.2h-1V194.4z"/>
						<path class="st2" d="M292.3,201.3v-6h-1.5v-0.8l1.5-0.1l0.1-2.8h0.9v2.8h2.8v0.9h-2.8v6c0,1.2,0.3,2,1.6,2
							c0.4,0,0.8-0.1,1.2-0.3l0.3,0.8c-0.6,0.2-1.2,0.4-1.6,0.4C292.9,204.2,292.3,203,292.3,201.3z"/>
						<path class="st2" d="M297.1,202.9l0.6-0.8c0.8,0.7,1.7,1.2,3,1.2c1.5,0,2.2-0.8,2.2-1.8c0-1.1-1.2-1.7-2.3-2.1
							c-1.4-0.5-3-1.1-3-2.8c0-1.4,1.1-2.6,3.2-2.6c1,0,2.1,0.5,2.8,1l-0.5,0.7c-0.6-0.5-1.4-0.9-2.3-0.9c-1.4,0-2.1,0.8-2.1,1.7
							c0,1.1,1.1,1.5,2.2,1.9c1.5,0.6,3.1,1.1,3.1,2.9c0,1.5-1.2,2.7-3.3,2.7C299.2,204.2,297.9,203.6,297.1,202.9z"/>
						<path class="st2" d="M309.7,201.6c0-2.1,1.9-3.1,6.1-3.6c0-1.4-0.4-2.9-2.2-2.9c-1.3,0-2.4,0.6-3,1.1l-0.5-0.8
							c0.7-0.5,2.1-1.3,3.6-1.3c2.3,0,3.1,1.6,3.1,3.8v6.1H316l-0.1-1.2h0c-1,0.8-2.1,1.5-3.3,1.5
							C311,204.2,309.7,203.4,309.7,201.6z M315.8,201.9v-3.1c-3.8,0.4-5.1,1.3-5.1,2.8c0,1.3,0.9,1.8,2,1.8
							C313.8,203.4,314.7,202.8,315.8,201.9z"/>
						<path class="st2" d="M320.2,194.4h0.9l0.1,1.5h0c1-1,2-1.7,3.3-1.7c2,0,2.9,1.2,2.9,3.7v6.1h-1v-6c0-2-0.6-2.9-2.1-2.9
							c-1.1,0-1.9,0.6-3,1.7v7.2h-1V194.4z"/>
						<path class="st2" d="M330.1,199.2c0-3.1,2-5.1,4.2-5.1c1.2,0,1.9,0.4,2.9,1.2l-0.1-1.7v-3.9h1V204h-0.9l-0.1-1.2h0
							c-0.8,0.8-1.8,1.4-3.1,1.4C331.7,204.2,330.1,202.4,330.1,199.2z M337.1,201.8v-5.5c-1-0.9-1.8-1.2-2.7-1.2
							c-1.8,0-3.2,1.8-3.2,4.1c0,2.5,1.1,4.1,3,4.1C335.3,203.3,336.2,202.8,337.1,201.8z"/>
						<path class="st2" d="M345,199.2c0-3.1,2-5.1,4.2-5.1c2.3,0,3.7,1.7,3.7,4.5c0,0.3,0,0.5-0.1,0.8h-6.8c0.1,2.3,1.4,4,3.5,4
							c1,0,1.8-0.3,2.6-0.8l0.4,0.8c-0.8,0.5-1.7,0.9-3.1,0.9C347,204.2,345,202.4,345,199.2z M352,198.5c0-2.3-1.1-3.5-2.7-3.5
							c-1.6,0-3,1.3-3.2,3.5H352z"/>
						<path class="st2" d="M361,192.4c0-1.9,0.8-2.9,2.5-2.9c0.5,0,1,0.1,1.4,0.3l-0.3,0.8c-0.4-0.2-0.8-0.3-1.1-0.3
							c-1,0-1.5,0.8-1.5,2.1v2h2.2v0.9h-2.2v8.7h-1v-8.7h-4.4v8.7h-1v-8.7h-1.3v-0.8l1.3-0.1v-1.7c0-2,1-3.1,2.7-3.1
							c0.6,0,1.1,0.1,1.7,0.3l-0.3,0.8c-0.5-0.2-0.9-0.3-1.4-0.3c-1.1,0-1.7,0.8-1.7,2.3v1.6h4.4V192.4z M367.6,191.3
							c0,0.5-0.4,0.8-0.9,0.8c-0.5,0-0.9-0.3-0.9-0.8c0-0.5,0.4-0.9,0.9-0.9C367.2,190.5,367.6,190.8,367.6,191.3z M366.2,194.4h1
							v9.6h-1V194.4z"/>
						<path class="st2" d="M370.1,199.2c0-3.2,2.1-5.1,4.4-5.1c1.3,0,2.1,0.6,2.8,1.2l-0.6,0.7c-0.6-0.6-1.3-1-2.2-1
							c-1.9,0-3.4,1.7-3.4,4.1c0,2.4,1.3,4.1,3.3,4.1c1,0,1.9-0.5,2.5-1.1l0.5,0.7c-0.8,0.7-1.9,1.2-3.1,1.2
							C372,204.2,370.1,202.4,370.1,199.2z"/>
						<path class="st2" d="M379,201.6c0-2.1,1.9-3.1,6.1-3.6c0-1.4-0.4-2.9-2.2-2.9c-1.3,0-2.4,0.6-3,1.1l-0.5-0.8
							c0.7-0.5,2.1-1.3,3.6-1.3c2.3,0,3.1,1.6,3.1,3.8v6.1h-0.9l-0.1-1.2h0c-1,0.8-2.1,1.5-3.3,1.5C380.2,204.2,379,203.4,379,201.6
							z M385.1,201.9v-3.1c-3.8,0.4-5.1,1.3-5.1,2.8c0,1.3,0.9,1.8,2,1.8C383,203.4,384,202.8,385.1,201.9z"/>
						<path class="st2" d="M388.7,199.2c0-3.2,2.1-5.1,4.4-5.1c1.3,0,2.1,0.6,2.8,1.2l-0.6,0.7c-0.6-0.6-1.3-1-2.2-1
							c-1.9,0-3.4,1.7-3.4,4.1c0,2.4,1.3,4.1,3.3,4.1c1,0,1.9-0.5,2.5-1.1l0.5,0.7c-0.8,0.7-1.9,1.2-3.1,1.2
							C390.6,204.2,388.7,202.4,388.7,199.2z"/>
						<path class="st2" d="M397.3,208.1l0.2-0.9c0.2,0.1,0.5,0.1,0.8,0.1c1.2,0,1.9-1,2.4-2.4l0.3-0.8l-3.9-9.7h1.1l2.2,5.9
							c0.3,0.8,0.7,1.8,1,2.7h0.1c0.3-0.9,0.6-1.9,0.9-2.7l2-5.9h1.1l-3.7,10.7c-0.6,1.7-1.5,3.2-3.3,3.2
							C398,208.3,397.6,208.2,397.3,208.1z"/>
						<path class="st2" d="M411.4,194.4h0.9l0.1,1.8h0c0.6-1.2,1.6-2,2.7-2c0.4,0,0.7,0.1,1,0.2l-0.2,0.9c-0.3-0.1-0.5-0.2-0.9-0.2
							c-0.8,0-1.9,0.6-2.6,2.4v6.4h-1V194.4z"/>
						<path class="st2" d="M416.9,199.2c0-3.1,2-5.1,4.2-5.1c2.3,0,3.7,1.7,3.7,4.5c0,0.3,0,0.5-0.1,0.8H418c0.1,2.3,1.4,4,3.5,4
							c1,0,1.8-0.3,2.6-0.8l0.4,0.8c-0.8,0.5-1.7,0.9-3.1,0.9C418.9,204.2,416.9,202.4,416.9,199.2z M423.9,198.5
							c0-2.3-1.1-3.5-2.7-3.5c-1.6,0-3,1.3-3.2,3.5H423.9z"/>
						<path class="st2" d="M426.2,202.9l0.6-0.8c0.8,0.7,1.7,1.2,3,1.2c1.5,0,2.2-0.8,2.2-1.8c0-1.1-1.2-1.7-2.3-2.1
							c-1.4-0.5-3-1.1-3-2.8c0-1.4,1.1-2.6,3.2-2.6c1,0,2.1,0.5,2.8,1l-0.5,0.7c-0.6-0.5-1.4-0.9-2.3-0.9c-1.4,0-2.1,0.8-2.1,1.7
							c0,1.1,1.1,1.5,2.2,1.9c1.5,0.6,3.1,1.1,3.1,2.9c0,1.5-1.2,2.7-3.3,2.7C428.3,204.2,427.1,203.6,426.2,202.9z"/>
						<path class="st2" d="M434.7,199.2c0-3.1,2-5.1,4.2-5.1c2.3,0,3.7,1.7,3.7,4.5c0,0.3,0,0.5-0.1,0.8h-6.8c0.1,2.3,1.4,4,3.5,4
							c1,0,1.8-0.3,2.6-0.8l0.4,0.8c-0.8,0.5-1.7,0.9-3.1,0.9C436.7,204.2,434.7,202.4,434.7,199.2z M441.7,198.5
							c0-2.3-1.1-3.5-2.7-3.5c-1.6,0-3,1.3-3.2,3.5H441.7z"/>
						<path class="st2" d="M444.2,201.6c0-2.1,1.9-3.1,6.1-3.6c0-1.4-0.4-2.9-2.2-2.9c-1.3,0-2.4,0.6-3,1.1l-0.5-0.8
							c0.7-0.5,2.1-1.3,3.6-1.3c2.3,0,3.1,1.6,3.1,3.8v6.1h-0.9l-0.1-1.2h0c-1,0.8-2.1,1.5-3.3,1.5
							C445.5,204.2,444.2,203.4,444.2,201.6z M450.4,201.9v-3.1c-3.8,0.4-5.1,1.3-5.1,2.8c0,1.3,0.9,1.8,2,1.8
							C448.3,203.4,449.2,202.8,450.4,201.9z"/>
						<path class="st2" d="M454.8,194.4h0.9l0.1,1.8h0c0.6-1.2,1.6-2,2.7-2c0.4,0,0.7,0.1,1,0.2l-0.2,0.9c-0.3-0.1-0.5-0.2-0.9-0.2
							c-0.8,0-1.9,0.6-2.6,2.4v6.4h-1V194.4z"/>
						<path class="st2" d="M460.2,199.2c0-3.2,2.1-5.1,4.4-5.1c1.3,0,2.1,0.6,2.8,1.2l-0.6,0.7c-0.6-0.6-1.3-1-2.2-1
							c-1.9,0-3.4,1.7-3.4,4.1c0,2.4,1.3,4.1,3.3,4.1c1,0,1.9-0.5,2.5-1.1l0.5,0.7c-0.8,0.7-1.9,1.2-3.1,1.2
							C462.1,204.2,460.2,202.4,460.2,199.2z"/>
						<path class="st2" d="M470,189.7h1v4.1l0,2.1c1-1,2-1.7,3.3-1.7c2,0,2.9,1.2,2.9,3.7v6.1h-1v-6c0-2-0.6-2.9-2.1-2.9
							c-1.1,0-1.9,0.6-3,1.7v7.2h-1V189.7z"/>
						<path class="st2" d="M488.4,190.6c-0.4-0.2-0.8-0.3-1.1-0.3c-1,0-1.5,0.8-1.5,2.1v2h2.2v0.9h-2.2v8.7h-1v-8.7h-1.3v-0.8
							l1.3-0.1v-2c0-1.9,0.8-2.9,2.5-2.9c0.5,0,1,0.1,1.4,0.3L488.4,190.6z"/>
						<path class="st2" d="M490,194.4h0.9l0.1,1.8h0c0.6-1.2,1.6-2,2.7-2c0.4,0,0.7,0.1,1,0.2l-0.2,0.9c-0.3-0.1-0.5-0.2-0.9-0.2
							c-0.8,0-1.9,0.6-2.6,2.4v6.4h-1V194.4z"/>
						<path class="st2" d="M495.4,199.2c0-3.2,2-5.1,4.3-5.1c2.3,0,4.3,1.9,4.3,5.1c0,3.2-2,5-4.3,5
							C497.4,204.2,495.4,202.4,495.4,199.2z M503,199.2c0-2.4-1.4-4.1-3.3-4.1c-1.9,0-3.2,1.7-3.2,4.1c0,2.4,1.4,4.1,3.2,4.1
							C501.6,203.3,503,201.7,503,199.2z"/>
						<path class="st2" d="M506.9,194.4h0.9l0.1,1.5h0c0.9-1,1.9-1.7,3-1.7c1.5,0,2.3,0.8,2.6,1.9c1.1-1.2,2.1-1.9,3.2-1.9
							c1.9,0,2.9,1.2,2.9,3.7v6.1h-1v-6c0-2-0.7-2.9-2.1-2.9c-0.9,0-1.7,0.6-2.8,1.7v7.2h-1v-6c0-2-0.6-2.9-2.1-2.9
							c-0.8,0-1.8,0.6-2.8,1.7v7.2h-1V194.4z"/>
						<path class="st2" d="M526.4,199.2c0-3.2,2.1-5.1,4.4-5.1c1.3,0,2.1,0.6,2.8,1.2l-0.6,0.7c-0.6-0.6-1.3-1-2.2-1
							c-1.9,0-3.4,1.7-3.4,4.1c0,2.4,1.3,4.1,3.3,4.1c1,0,1.9-0.5,2.5-1.1l0.5,0.7c-0.8,0.7-1.9,1.2-3.1,1.2
							C528.3,204.2,526.4,202.4,526.4,199.2z"/>
						<path class="st2" d="M535,199.2c0-3.2,2-5.1,4.3-5.1s4.3,1.9,4.3,5.1c0,3.2-2,5-4.3,5S535,202.4,535,199.2z M542.6,199.2
							c0-2.4-1.4-4.1-3.3-4.1s-3.2,1.7-3.2,4.1c0,2.4,1.4,4.1,3.2,4.1S542.6,201.7,542.6,199.2z"/>
						<path class="st2" d="M546.5,194.4h0.9l0.1,1.5h0c1-1,2-1.7,3.3-1.7c2,0,2.9,1.2,2.9,3.7v6.1h-1v-6c0-2-0.6-2.9-2.1-2.9
							c-1.1,0-1.9,0.6-3,1.7v7.2h-1V194.4z"/>
						<path class="st2" d="M556,202.9l0.6-0.8c0.8,0.7,1.7,1.2,3,1.2c1.5,0,2.2-0.8,2.2-1.8c0-1.1-1.2-1.7-2.3-2.1
							c-1.4-0.5-3-1.1-3-2.8c0-1.4,1.1-2.6,3.2-2.6c1,0,2.1,0.5,2.8,1l-0.5,0.7c-0.6-0.5-1.4-0.9-2.3-0.9c-1.4,0-2.1,0.8-2.1,1.7
							c0,1.1,1.1,1.5,2.2,1.9c1.5,0.6,3.1,1.1,3.1,2.9c0,1.5-1.2,2.7-3.3,2.7C558.1,204.2,556.8,203.6,556,202.9z"/>
						<path class="st2" d="M565.1,200.5v-6.1h1v6c0,2,0.6,2.9,2.1,2.9c1.1,0,1.9-0.6,3-1.9v-7h1v9.6h-0.9l-0.1-1.6h-0.1
							c-0.9,1.1-1.9,1.8-3.2,1.8C566,204.2,565.1,203,565.1,200.5z"/>
						<path class="st2" d="M575.9,194.4h0.9l0.1,1.5h0c0.9-1,1.9-1.7,3-1.7c1.5,0,2.3,0.8,2.6,1.9c1.1-1.2,2.1-1.9,3.2-1.9
							c1.9,0,2.9,1.2,2.9,3.7v6.1h-1v-6c0-2-0.7-2.9-2.1-2.9c-0.9,0-1.7,0.6-2.8,1.7v7.2h-1v-6c0-2-0.6-2.9-2.1-2.9
							c-0.8,0-1.8,0.6-2.8,1.7v7.2h-1V194.4z"/>
						<path class="st2" d="M591.4,199.2c0-3.1,2-5.1,4.2-5.1c2.3,0,3.7,1.7,3.7,4.5c0,0.3,0,0.5-0.1,0.8h-6.8c0.1,2.3,1.4,4,3.5,4
							c1,0,1.8-0.3,2.6-0.8l0.4,0.8c-0.8,0.5-1.7,0.9-3.1,0.9C593.4,204.2,591.4,202.4,591.4,199.2z M598.4,198.5
							c0-2.3-1.1-3.5-2.7-3.5c-1.6,0-3,1.3-3.2,3.5H598.4z"/>
						<path class="st2" d="M601.9,194.4h0.9l0.1,1.8h0c0.6-1.2,1.6-2,2.7-2c0.4,0,0.7,0.1,1,0.2l-0.2,0.9c-0.3-0.1-0.5-0.2-0.9-0.2
							c-0.8,0-1.9,0.6-2.6,2.4v6.4h-1V194.4z"/>
						<path class="st2" d="M608.3,194.2c0.9-0.7,1.3-1.4,1.4-2.5c-0.1,0-0.1,0-0.2,0c-0.4,0-0.8-0.3-0.8-0.8s0.3-0.9,0.8-0.9
							c0.6,0,1,0.5,1,1.4c0,1.5-0.7,2.5-1.8,3.2L608.3,194.2z"/>
						<path class="st2" d="M611.2,202.9l0.6-0.8c0.8,0.7,1.7,1.2,3,1.2c1.5,0,2.2-0.8,2.2-1.8c0-1.1-1.2-1.7-2.3-2.1
							c-1.4-0.5-3-1.1-3-2.8c0-1.4,1.1-2.6,3.2-2.6c1,0,2.1,0.5,2.8,1l-0.5,0.7c-0.6-0.5-1.3-0.9-2.3-0.9c-1.4,0-2.1,0.8-2.1,1.7
							c0,1.1,1.1,1.5,2.2,1.9c1.5,0.6,3.1,1.1,3.1,2.9c0,1.5-1.2,2.7-3.3,2.7C613.3,204.2,612,203.6,611.2,202.9z"/>
						<path class="st2" d="M624.5,194.4h0.9l0.1,1.2h0c0.9-0.7,2-1.4,3.2-1.4c2.6,0,3.9,1.9,3.9,4.9c0,3.3-2,5.2-4.2,5.2
							c-0.9,0-1.9-0.4-2.8-1.2l0,1.8v3.5h-1V194.4z M631.4,199c0-2.3-0.8-4-2.9-4c-0.9,0-1.9,0.5-3,1.5v5.5c1,0.9,2,1.2,2.7,1.2
							C630.1,203.3,631.4,201.6,631.4,199z"/>
						<path class="st2" d="M634.6,199.2c0-3.1,2-5.1,4.2-5.1c2.3,0,3.7,1.7,3.7,4.5c0,0.3,0,0.5-0.1,0.8h-6.8c0.1,2.3,1.4,4,3.5,4
							c1,0,1.8-0.3,2.6-0.8l0.4,0.8c-0.8,0.5-1.7,0.9-3.1,0.9C636.6,204.2,634.6,202.4,634.6,199.2z M641.5,198.5
							c0-2.3-1.1-3.5-2.7-3.5c-1.6,0-3,1.3-3.2,3.5H641.5z"/>
						<path class="st2" d="M645,194.4h0.9l0.1,1.8h0c0.6-1.2,1.6-2,2.7-2c0.4,0,0.7,0.1,1,0.2l-0.2,0.9c-0.3-0.1-0.5-0.2-0.9-0.2
							c-0.8,0-1.9,0.6-2.6,2.4v6.4h-1V194.4z"/>
						<path class="st2" d="M650.3,202.9l0.6-0.8c0.8,0.7,1.7,1.2,3,1.2c1.5,0,2.2-0.8,2.2-1.8c0-1.1-1.2-1.7-2.3-2.1
							c-1.4-0.5-3-1.1-3-2.8c0-1.4,1.1-2.6,3.2-2.6c1,0,2.1,0.5,2.8,1l-0.5,0.7c-0.6-0.5-1.4-0.9-2.3-0.9c-1.4,0-2.1,0.8-2.1,1.7
							c0,1.1,1.1,1.5,2.2,1.9c1.5,0.6,3.1,1.1,3.1,2.9c0,1.5-1.2,2.7-3.3,2.7C652.5,204.2,651.2,203.6,650.3,202.9z"/>
						<path class="st2" d="M659.6,194.4h0.9l0.1,1.2h0c0.9-0.7,2-1.4,3.2-1.4c2.6,0,3.9,1.9,3.9,4.9c0,3.3-2,5.2-4.2,5.2
							c-0.9,0-1.9-0.4-2.8-1.2l0,1.8v3.5h-1V194.4z M666.6,199c0-2.3-0.8-4-2.9-4c-0.9,0-1.9,0.5-3,1.5v5.5c1,0.9,2,1.2,2.7,1.2
							C665.3,203.3,666.6,201.6,666.6,199z"/>
						<path class="st2" d="M669.7,199.2c0-3.1,2-5.1,4.2-5.1c2.3,0,3.7,1.7,3.7,4.5c0,0.3,0,0.5-0.1,0.8h-6.8c0.1,2.3,1.4,4,3.5,4
							c1,0,1.8-0.3,2.6-0.8l0.4,0.8c-0.8,0.5-1.7,0.9-3.1,0.9C671.7,204.2,669.7,202.4,669.7,199.2z M676.7,198.5
							c0-2.3-1.1-3.5-2.7-3.5c-1.6,0-3,1.3-3.2,3.5H676.7z"/>
						<path class="st2" d="M679.4,199.2c0-3.2,2.1-5.1,4.4-5.1c1.3,0,2.1,0.6,2.8,1.2l-0.6,0.7c-0.6-0.6-1.3-1-2.2-1
							c-1.9,0-3.4,1.7-3.4,4.1c0,2.4,1.3,4.1,3.3,4.1c1,0,1.9-0.5,2.5-1.1l0.5,0.7c-0.8,0.7-1.9,1.2-3.1,1.2
							C681.3,204.2,679.4,202.4,679.4,199.2z"/>
						<path class="st2" d="M689.2,201.3v-6h-1.5v-0.8l1.5-0.1l0.1-2.8h0.9v2.8h2.8v0.9h-2.8v6c0,1.2,0.3,2,1.6,2
							c0.4,0,0.8-0.1,1.2-0.3l0.3,0.8c-0.6,0.2-1.2,0.4-1.6,0.4C689.8,204.2,689.2,203,689.2,201.3z"/>
						<path class="st2" d="M695,191.3c0-0.5,0.4-0.9,0.9-0.9c0.5,0,0.9,0.3,0.9,0.9c0,0.5-0.4,0.8-0.9,0.8
							C695.4,192.2,695,191.8,695,191.3z M695.3,194.4h1v9.6h-1V194.4z"/>
						<path class="st2" d="M698.4,194.4h1.1l2.1,5.9c0.3,0.9,0.6,1.9,1,2.8h0.1c0.3-0.9,0.6-1.8,1-2.8l2.1-5.9h1.1l-3.5,9.6H702
							L698.4,194.4z"/>
						<path class="st2" d="M708,199.2c0-3.1,2-5.1,4.2-5.1c2.3,0,3.7,1.7,3.7,4.5c0,0.3,0,0.5-0.1,0.8H709c0.1,2.3,1.4,4,3.5,4
							c1,0,1.8-0.3,2.6-0.8l0.4,0.8c-0.8,0.5-1.7,0.9-3.1,0.9C710,204.2,708,202.4,708,199.2z M714.9,198.5c0-2.3-1.1-3.5-2.7-3.5
							c-1.6,0-3,1.3-3.2,3.5H714.9z"/>
					</g>
				</g>
				
					<g id="arrow" transform="translate(500.000000, 318.000000) rotate(-270.000000) translate(-500.000000, -318.000000) translate(449.500000, 308.000000)">
					<path id="Line" class="st7" d="M0.5,10h100"/>
					<polyline id="Stroke-1" class="st8" points="90,0 101,10 90,20 					"/>
					<polyline class="st8" points="11,20 0,10 11,0 					"/>
				</g>
				<g id="box3" transform="translate(0.000000, 383.000000)">
					<path class="st9" d="M9,1h982c4.4,0,8,3.6,8,8v132c0,4.4-3.6,8-8,8H9c-4.4,0-8-3.6-8-8V9C1,4.6,4.6,1,9,1z"/>
					<g class="st1">
						<path class="st10" d="M324.1,50.7c0-4.8,3-7.7,6.9-7.7c2.1,0,3.5,0.9,4.4,1.9l-1.3,1.5c-0.7-0.7-1.6-1.3-3-1.3
							c-2.7,0-4.6,2.1-4.6,5.6c0,3.5,1.6,5.6,4.7,5.6c0.9,0,1.8-0.3,2.3-0.7v-3.5h-2.9v-1.9h5v6.4c-1,1-2.6,1.7-4.7,1.7
							C327,58.3,324.1,55.5,324.1,50.7z"/>
						<path class="st10" d="M338.8,55.4V42.1h2.3v13.5c0,0.6,0.3,0.8,0.6,0.8c0.1,0,0.2,0,0.4,0l0.3,1.7c-0.3,0.1-0.7,0.2-1.2,0.2
							C339.4,58.3,338.8,57.2,338.8,55.4z"/>
						<path class="st10" d="M343.9,52.5c0-3.7,2.5-5.8,5.2-5.8c2.7,0,5.2,2.1,5.2,5.8c0,3.6-2.5,5.7-5.2,5.7
							C346.4,58.3,343.9,56.2,343.9,52.5z M351.9,52.5c0-2.3-1.1-3.9-2.8-3.9c-1.7,0-2.8,1.6-2.8,3.9c0,2.3,1.1,3.9,2.8,3.9
							C350.9,56.4,351.9,54.8,351.9,52.5z"/>
						<path class="st10" d="M359.1,56.9L359.1,56.9l-0.3,1.1H357V42.1h2.3v4.2l-0.1,1.9c0.9-0.8,2.1-1.4,3.3-1.4
							c2.8,0,4.4,2.2,4.4,5.6c0,3.8-2.3,5.9-4.7,5.9C361.1,58.3,360,57.8,359.1,56.9z M364.5,52.4c0-2.3-0.7-3.7-2.6-3.7
							c-0.9,0-1.7,0.4-2.6,1.3v5.4c0.8,0.7,1.7,1,2.4,1C363.3,56.4,364.5,54.9,364.5,52.4z"/>
						<path class="st10" d="M368.6,55.1c0-2.4,2-3.6,6.6-4.1c0-1.3-0.5-2.4-2.1-2.4c-1.2,0-2.2,0.5-3.2,1.1l-0.9-1.6
							c1.1-0.7,2.7-1.4,4.4-1.4c2.7,0,4,1.7,4,4.7V58h-1.9l-0.2-1.3h-0.1c-1,0.9-2.2,1.5-3.5,1.5C370,58.3,368.6,57,368.6,55.1z
							 M375.2,55.2v-2.7c-3.3,0.4-4.4,1.2-4.4,2.5c0,1.1,0.7,1.5,1.7,1.5C373.5,56.4,374.3,56,375.2,55.2z"/>
						<path class="st10" d="M380.8,55.4V42.1h2.3v13.5c0,0.6,0.3,0.8,0.6,0.8c0.1,0,0.2,0,0.4,0l0.3,1.7c-0.3,0.1-0.7,0.2-1.2,0.2
							C381.4,58.3,380.8,57.2,380.8,55.4z"/>
						<path class="st10" d="M391.2,55.4V42.1h2.3v13.5c0,0.6,0.3,0.8,0.6,0.8c0.1,0,0.2,0,0.4,0l0.3,1.7c-0.3,0.1-0.7,0.2-1.2,0.2
							C391.9,58.3,391.2,57.2,391.2,55.4z"/>
						<path class="st10" d="M396.6,55.1c0-2.4,2-3.6,6.6-4.1c0-1.3-0.5-2.4-2.1-2.4c-1.2,0-2.2,0.5-3.2,1.1l-0.9-1.6
							c1.1-0.7,2.7-1.4,4.4-1.4c2.7,0,4,1.7,4,4.7V58h-1.9l-0.2-1.3h-0.1c-1,0.9-2.2,1.5-3.5,1.5C397.9,58.3,396.6,57,396.6,55.1z
							 M403.1,55.2v-2.7c-3.3,0.4-4.4,1.2-4.4,2.5c0,1.1,0.7,1.5,1.7,1.5C401.5,56.4,402.2,56,403.1,55.2z"/>
						<path class="st10" d="M408.6,53.9V47h2.3v6.6c0,1.9,0.5,2.6,1.8,2.6c1,0,1.7-0.5,2.6-1.6V47h2.3v11h-1.9l-0.2-1.7h-0.1
							c-1,1.2-2.1,1.9-3.6,1.9C409.6,58.3,408.6,56.7,408.6,53.9z"/>
						<path class="st10" d="M421.1,47h1.9l0.2,1.5h0.1c1-1,2.1-1.8,3.6-1.8c2.3,0,3.4,1.6,3.4,4.4V58h-2.3v-6.6
							c0-1.9-0.6-2.7-1.9-2.7c-1,0-1.7,0.5-2.7,1.5V58h-2.3V47z"/>
						<path class="st10" d="M432.8,52.5c0-3.7,2.5-5.8,5.4-5.8c1.4,0,2.4,0.6,3.2,1.3l-1.1,1.5c-0.6-0.5-1.2-0.9-2-0.9
							c-1.8,0-3.2,1.6-3.2,3.9c0,2.3,1.3,3.9,3.1,3.9c0.9,0,1.7-0.4,2.4-1l0.9,1.5c-1,0.9-2.3,1.4-3.6,1.4
							C435.1,58.3,432.8,56.2,432.8,52.5z"/>
						<path class="st10" d="M443.9,42.1h2.3v4.2l-0.1,2.2c1-0.9,2.1-1.7,3.6-1.7c2.3,0,3.4,1.6,3.4,4.4V58h-2.3v-6.6
							c0-1.9-0.6-2.7-1.9-2.7c-1,0-1.7,0.5-2.7,1.5V58h-2.3V42.1z"/>
						<path class="st10" d="M460.1,52.5c0-3.7,2.5-5.8,5.2-5.8c2.7,0,5.2,2.1,5.2,5.8c0,3.6-2.5,5.7-5.2,5.7
							C462.5,58.3,460.1,56.2,460.1,52.5z M468.1,52.5c0-2.3-1.1-3.9-2.8-3.9c-1.7,0-2.8,1.6-2.8,3.9c0,2.3,1.1,3.9,2.8,3.9
							C467,56.4,468.1,54.8,468.1,52.5z"/>
						<path class="st10" d="M478.4,43.9c-0.4-0.2-0.8-0.3-1.2-0.3c-1,0-1.5,0.6-1.5,2V47h2.2v1.8h-2.2V58h-2.3v-9.2h-1.5v-1.7
							l1.5-0.1v-1.4c0-2.3,1-3.8,3.5-3.8c0.7,0,1.4,0.2,1.9,0.4L478.4,43.9z"/>
						<path class="st10" d="M483.7,52.5c0-3.7,2.5-5.8,5.4-5.8c1.4,0,2.4,0.6,3.2,1.3l-1.1,1.5c-0.6-0.5-1.2-0.9-2-0.9
							c-1.8,0-3.2,1.6-3.2,3.9c0,2.3,1.3,3.9,3.1,3.9c0.9,0,1.7-0.4,2.4-1l0.9,1.5c-1,0.9-2.3,1.4-3.6,1.4
							C486,58.3,483.7,56.2,483.7,52.5z"/>
						<path class="st10" d="M493.5,52.5c0-3.7,2.5-5.8,5.2-5.8c2.7,0,5.2,2.1,5.2,5.8c0,3.6-2.5,5.7-5.2,5.7
							C496,58.3,493.5,56.2,493.5,52.5z M501.5,52.5c0-2.3-1.1-3.9-2.8-3.9c-1.7,0-2.8,1.6-2.8,3.9c0,2.3,1.1,3.9,2.8,3.9
							C500.4,56.4,501.5,54.8,501.5,52.5z"/>
						<path class="st10" d="M505.3,56.7l1.1-1.5c1,0.8,1.9,1.3,3.1,1.3c1.3,0,1.9-0.6,1.9-1.5c0-1-1.2-1.4-2.4-1.9
							c-1.5-0.6-3.1-1.3-3.1-3.2c0-1.8,1.5-3.2,3.9-3.2c1.5,0,2.7,0.6,3.6,1.3l-1.1,1.4c-0.8-0.6-1.5-1-2.5-1
							c-1.2,0-1.8,0.6-1.8,1.4c0,0.9,1.1,1.3,2.3,1.7c1.5,0.6,3.2,1.3,3.2,3.3c0,1.8-1.5,3.3-4.2,3.3
							C508,58.3,506.4,57.6,505.3,56.7z"/>
						<path class="st10" d="M516.1,47h1.9l0.2,1.5h0.1c0.9-1,2-1.8,3.4-1.8c1.6,0,2.6,0.8,3,2c1.1-1.2,2.2-2,3.6-2
							c2.3,0,3.4,1.6,3.4,4.4V58h-2.3v-6.6c0-1.9-0.6-2.7-1.8-2.7c-0.8,0-1.6,0.5-2.5,1.5V58h-2.3v-6.6c0-1.9-0.6-2.7-1.8-2.7
							c-0.7,0-1.6,0.5-2.5,1.5V58h-2.3V47z"/>
						<path class="st10" d="M534.2,52.5c0-3.6,2.4-5.8,5-5.8c2.9,0,4.5,2.1,4.5,5.2c0,0.4,0,0.9-0.1,1.2h-7.1
							c0.2,2.1,1.5,3.4,3.4,3.4c1,0,1.8-0.3,2.6-0.8l0.8,1.5c-1,0.7-2.3,1.2-3.7,1.2C536.5,58.3,534.2,56.1,534.2,52.5z M541.7,51.5
							c0-1.9-0.9-3-2.5-3c-1.4,0-2.6,1.1-2.8,3H541.7z"/>
						<path class="st10" d="M545.5,52.5c0-3.7,2.5-5.8,5.4-5.8c1.4,0,2.4,0.6,3.2,1.3l-1.1,1.5c-0.6-0.5-1.2-0.9-2-0.9
							c-1.8,0-3.2,1.6-3.2,3.9c0,2.3,1.3,3.9,3.1,3.9c0.9,0,1.7-0.4,2.4-1l0.9,1.5c-1,0.9-2.3,1.4-3.6,1.4
							C547.7,58.3,545.5,56.2,545.5,52.5z"/>
						<path class="st10" d="M555.3,52.5c0-3.6,2.4-5.8,5-5.8c2.9,0,4.5,2.1,4.5,5.2c0,0.4,0,0.9-0.1,1.2h-7.1
							c0.2,2.1,1.5,3.4,3.4,3.4c1,0,1.8-0.3,2.6-0.8l0.8,1.5c-1,0.7-2.3,1.2-3.7,1.2C557.7,58.3,555.3,56.1,555.3,52.5z M562.8,51.5
							c0-1.9-0.9-3-2.5-3c-1.4,0-2.6,1.1-2.8,3H562.8z"/>
						<path class="st10" d="M567.2,53.9V47h2.3v6.6c0,1.9,0.5,2.6,1.8,2.6c1,0,1.7-0.5,2.6-1.6V47h2.3v11h-1.9l-0.2-1.7h-0.1
							c-1,1.2-2.1,1.9-3.6,1.9C568.2,58.3,567.2,56.7,567.2,53.9z"/>
						<path class="st10" d="M580.1,54.4v-5.6h-1.6v-1.7l1.7-0.1l0.3-3h1.9v3h2.9v1.8h-2.9v5.6c0,1.3,0.5,2,1.6,2
							c0.4,0,0.9-0.1,1.2-0.3l0.4,1.7c-0.6,0.2-1.4,0.4-2.2,0.4C581,58.3,580.1,56.7,580.1,54.4z"/>
						<path class="st10" d="M587.4,43.6c0-0.8,0.6-1.4,1.5-1.4s1.5,0.5,1.5,1.4c0,0.8-0.6,1.4-1.5,1.4S587.4,44.4,587.4,43.6z
							 M587.7,47h2.3v11h-2.3V47z"/>
						<path class="st10" d="M592.6,52.5c0-3.7,2.5-5.8,5.4-5.8c1.4,0,2.4,0.6,3.2,1.3l-1.1,1.5c-0.6-0.5-1.2-0.9-2-0.9
							c-1.8,0-3.2,1.6-3.2,3.9c0,2.3,1.3,3.9,3.1,3.9c0.9,0,1.7-0.4,2.4-1l0.9,1.5c-1,0.9-2.3,1.4-3.6,1.4
							C594.9,58.3,592.6,56.2,592.6,52.5z"/>
						<path class="st10" d="M602.9,55.1c0-2.4,2-3.6,6.6-4.1c0-1.3-0.5-2.4-2.1-2.4c-1.2,0-2.2,0.5-3.2,1.1l-0.9-1.6
							c1.1-0.7,2.7-1.4,4.4-1.4c2.7,0,4,1.7,4,4.7V58h-1.9l-0.2-1.3h-0.1c-1,0.9-2.2,1.5-3.5,1.5C604.2,58.3,602.9,57,602.9,55.1z
							 M609.5,55.2v-2.7c-3.3,0.4-4.4,1.2-4.4,2.5c0,1.1,0.7,1.5,1.7,1.5C607.8,56.4,608.6,56,609.5,55.2z"/>
						<path class="st10" d="M615,55.4V42.1h2.3v13.5c0,0.6,0.3,0.8,0.6,0.8c0.1,0,0.2,0,0.4,0l0.3,1.7c-0.3,0.1-0.7,0.2-1.2,0.2
							C615.7,58.3,615,57.2,615,55.4z"/>
						<path class="st10" d="M619.8,56.7l1.1-1.5c1,0.8,1.9,1.3,3.1,1.3c1.3,0,1.9-0.6,1.9-1.5c0-1-1.2-1.4-2.4-1.9
							c-1.5-0.6-3.1-1.3-3.1-3.2c0-1.8,1.5-3.2,3.9-3.2c1.5,0,2.7,0.6,3.6,1.3l-1.1,1.4c-0.8-0.6-1.5-1-2.5-1
							c-1.2,0-1.8,0.6-1.8,1.4c0,0.9,1.1,1.3,2.3,1.7c1.5,0.6,3.2,1.3,3.2,3.3c0,1.8-1.5,3.3-4.2,3.3
							C622.5,58.3,620.9,57.6,619.8,56.7z"/>
						<path class="st10" d="M633.9,47h2.3l1.5,6c0.2,1.1,0.4,2.1,0.6,3.1h0.1c0.2-1,0.5-2.1,0.7-3.1l1.5-6h2.1l1.6,6
							c0.3,1.1,0.5,2.1,0.7,3.1h0.1c0.2-1,0.4-2.1,0.6-3.1l1.4-6h2.2l-2.8,11h-2.8l-1.4-5.4c-0.3-1-0.5-2-0.7-3.2h-0.1
							c-0.2,1.1-0.4,2.2-0.7,3.2l-1.3,5.4h-2.7L633.9,47z"/>
						<path class="st10" d="M651.3,43.6c0-0.8,0.6-1.4,1.5-1.4s1.5,0.5,1.5,1.4c0,0.8-0.6,1.4-1.5,1.4S651.3,44.4,651.3,43.6z
							 M651.7,47h2.3v11h-2.3V47z"/>
						<path class="st10" d="M657.8,54.4v-5.6h-1.6v-1.7l1.7-0.1l0.3-3h1.9v3h2.9v1.8h-2.9v5.6c0,1.3,0.5,2,1.6,2
							c0.4,0,0.9-0.1,1.2-0.3l0.4,1.7c-0.6,0.2-1.4,0.4-2.2,0.4C658.6,58.3,657.8,56.7,657.8,54.4z"/>
						<path class="st10" d="M665.3,42.1h2.3v4.2l-0.1,2.2c1-0.9,2.1-1.7,3.6-1.7c2.3,0,3.4,1.6,3.4,4.4V58h-2.3v-6.6
							c0-1.9-0.6-2.7-1.9-2.7c-1,0-1.7,0.5-2.7,1.5V58h-2.3V42.1z"/>
					</g>
					<text transform="matrix(1 0 0 1 675.996 58)" class="st10 st3 st4"> </text>
					<g class="st1">
						<path class="st10" d="M324.7,87h1.9l0.2,1.2h0.1c1-0.8,2.2-1.5,3.4-1.5c2.8,0,4.4,2.2,4.4,5.6c0,3.8-2.3,5.9-4.7,5.9
							c-1,0-2-0.4-2.9-1.2l0.1,1.9v3.6h-2.3V87z M332.2,92.4c0-2.3-0.7-3.7-2.6-3.7c-0.9,0-1.7,0.4-2.6,1.3v5.4c0.9,0.7,1.7,1,2.4,1
							C331,96.4,332.2,94.9,332.2,92.4z"/>
						<path class="st10" d="M336.6,92.5c0-3.7,2.5-5.8,5.2-5.8c2.7,0,5.2,2.1,5.2,5.8c0,3.6-2.5,5.7-5.2,5.7
							C339,98.3,336.6,96.2,336.6,92.5z M344.6,92.5c0-2.3-1.1-3.9-2.8-3.9c-1.7,0-2.8,1.6-2.8,3.9c0,2.3,1.1,3.9,2.8,3.9
							C343.5,96.4,344.6,94.8,344.6,92.5z"/>
						<path class="st10" d="M349.5,94.4v-5.6h-1.6v-1.7l1.7-0.1l0.3-3h1.9v3h2.9v1.8h-2.9v5.6c0,1.3,0.5,2,1.6,2
							c0.4,0,0.9-0.1,1.2-0.3l0.4,1.7c-0.6,0.2-1.4,0.4-2.2,0.4C350.4,98.3,349.5,96.7,349.5,94.4z"/>
						<path class="st10" d="M356,92.5c0-3.6,2.4-5.8,5-5.8c2.9,0,4.5,2.1,4.5,5.2c0,0.4,0,0.9-0.1,1.2h-7.1c0.2,2.1,1.5,3.4,3.4,3.4
							c1,0,1.8-0.3,2.6-0.8l0.8,1.5c-1,0.7-2.3,1.2-3.7,1.2C358.3,98.3,356,96.1,356,92.5z M363.5,91.5c0-1.9-0.9-3-2.5-3
							c-1.4,0-2.6,1.1-2.8,3H363.5z"/>
						<path class="st10" d="M368,87h1.9l0.2,1.5h0.1c1-1,2.1-1.8,3.6-1.8c2.3,0,3.4,1.6,3.4,4.4V98h-2.3v-6.6c0-1.9-0.6-2.7-1.9-2.7
							c-1,0-1.7,0.5-2.7,1.5V98H368V87z"/>
						<path class="st10" d="M380.9,94.4v-5.6h-1.6v-1.7L381,87l0.3-3h1.9v3h2.9v1.8h-2.9v5.6c0,1.3,0.5,2,1.6,2
							c0.4,0,0.9-0.1,1.2-0.3l0.4,1.7c-0.6,0.2-1.4,0.4-2.2,0.4C381.7,98.3,380.9,96.7,380.9,94.4z"/>
						<path class="st10" d="M392.9,87h1.9l0.2,1.2h0.1c1-0.8,2.2-1.5,3.4-1.5c2.8,0,4.4,2.2,4.4,5.6c0,3.8-2.3,5.9-4.7,5.9
							c-1,0-2-0.4-2.9-1.2l0.1,1.9v3.6h-2.3V87z M400.4,92.4c0-2.3-0.7-3.7-2.6-3.7c-0.9,0-1.7,0.4-2.6,1.3v5.4c0.9,0.7,1.7,1,2.4,1
							C399.2,96.4,400.4,94.9,400.4,92.4z"/>
						<path class="st10" d="M405.5,87h1.9l0.2,2h0.1c0.8-1.4,1.9-2.3,3.1-2.3c0.5,0,0.9,0.1,1.2,0.2l-0.4,2
							c-0.4-0.1-0.7-0.2-1.1-0.2c-0.9,0-2,0.6-2.7,2.4V98h-2.3V87z"/>
						<path class="st10" d="M412.7,92.5c0-3.7,2.5-5.8,5.2-5.8c2.7,0,5.2,2.1,5.2,5.8c0,3.6-2.5,5.7-5.2,5.7
							C415.2,98.3,412.7,96.2,412.7,92.5z M420.7,92.5c0-2.3-1.1-3.9-2.8-3.9c-1.7,0-2.8,1.6-2.8,3.9c0,2.3,1.1,3.9,2.8,3.9
							C419.6,96.4,420.7,94.8,420.7,92.5z"/>
						<path class="st10" d="M425.7,94.4v-5.6h-1.6v-1.7l1.7-0.1l0.3-3h1.9v3h2.9v1.8H428v5.6c0,1.3,0.5,2,1.6,2
							c0.4,0,0.9-0.1,1.2-0.3l0.4,1.7c-0.6,0.2-1.4,0.4-2.2,0.4C426.5,98.3,425.7,96.7,425.7,94.4z"/>
						<path class="st10" d="M432.1,92.5c0-3.6,2.4-5.8,5-5.8c2.9,0,4.5,2.1,4.5,5.2c0,0.4,0,0.9-0.1,1.2h-7.1
							c0.2,2.1,1.5,3.4,3.4,3.4c1,0,1.8-0.3,2.6-0.8l0.8,1.5c-1,0.7-2.3,1.2-3.7,1.2C434.5,98.3,432.1,96.1,432.1,92.5z M439.6,91.5
							c0-1.9-0.9-3-2.5-3c-1.4,0-2.6,1.1-2.8,3H439.6z"/>
						<path class="st10" d="M443.4,92.5c0-3.7,2.5-5.8,5.4-5.8c1.4,0,2.4,0.6,3.2,1.3l-1.1,1.5c-0.6-0.5-1.2-0.9-2-0.9
							c-1.8,0-3.2,1.6-3.2,3.9c0,2.3,1.3,3.9,3.1,3.9c0.9,0,1.7-0.4,2.4-1l0.9,1.5c-1,0.9-2.3,1.4-3.6,1.4
							C445.7,98.3,443.4,96.2,443.4,92.5z"/>
						<path class="st10" d="M454.7,94.4v-5.6h-1.6v-1.7l1.7-0.1l0.3-3h1.9v3h2.9v1.8H457v5.6c0,1.3,0.5,2,1.6,2
							c0.4,0,0.9-0.1,1.2-0.3l0.4,1.7c-0.6,0.2-1.4,0.4-2.2,0.4C455.5,98.3,454.7,96.7,454.7,94.4z"/>
						<path class="st10" d="M461.9,83.6c0-0.8,0.6-1.4,1.5-1.4c0.8,0,1.5,0.5,1.5,1.4c0,0.8-0.6,1.4-1.5,1.4
							C462.5,84.9,461.9,84.4,461.9,83.6z M462.2,87h2.3v11h-2.3V87z"/>
						<path class="st10" d="M466.5,87h2.4l1.9,5.9c0.3,1.1,0.6,2.2,1,3.3h0.1c0.3-1.1,0.7-2.2,1-3.3l1.9-5.9h2.2l-3.8,11h-2.7
							L466.5,87z"/>
						<path class="st10" d="M478,92.5c0-3.6,2.4-5.8,5-5.8c2.9,0,4.5,2.1,4.5,5.2c0,0.4,0,0.9-0.1,1.2h-7.1c0.2,2.1,1.5,3.4,3.4,3.4
							c1,0,1.8-0.3,2.6-0.8l0.8,1.5c-1,0.7-2.3,1.2-3.7,1.2C480.4,98.3,478,96.1,478,92.5z M485.5,91.5c0-1.9-0.9-3-2.5-3
							c-1.4,0-2.6,1.1-2.8,3H485.5z"/>
						<path class="st10" d="M494.1,82h1.6l-5.6,19.6h-1.6L494.1,82z"/>
						<path class="st10" d="M496.7,95.1c0-2.4,2-3.6,6.6-4.1c0-1.3-0.5-2.4-2.1-2.4c-1.2,0-2.2,0.5-3.2,1.1l-0.9-1.6
							c1.1-0.7,2.7-1.4,4.4-1.4c2.7,0,4,1.7,4,4.7V98h-1.9l-0.2-1.3h-0.1c-1,0.9-2.2,1.5-3.5,1.5C498,98.3,496.7,97,496.7,95.1z
							 M503.2,95.2v-2.7c-3.3,0.4-4.4,1.2-4.4,2.5c0,1.1,0.7,1.5,1.7,1.5C501.6,96.4,502.3,96,503.2,95.2z"/>
						<path class="st10" d="M508.8,87h1.9l0.2,1.5h0.1c1-1,2.1-1.8,3.6-1.8c2.3,0,3.4,1.6,3.4,4.4V98h-2.3v-6.6
							c0-1.9-0.6-2.7-1.9-2.7c-1,0-1.7,0.5-2.7,1.5V98h-2.3V87z"/>
						<path class="st10" d="M521.6,94.4v-5.6H520v-1.7l1.7-0.1l0.3-3h1.9v3h2.9v1.8h-2.9v5.6c0,1.3,0.5,2,1.6,2
							c0.4,0,0.9-0.1,1.2-0.3l0.4,1.7c-0.6,0.2-1.4,0.4-2.2,0.4C522.5,98.3,521.6,96.7,521.6,94.4z"/>
						<path class="st10" d="M528.9,83.6c0-0.8,0.6-1.4,1.5-1.4c0.8,0,1.5,0.5,1.5,1.4c0,0.8-0.6,1.4-1.5,1.4
							C529.5,84.9,528.9,84.4,528.9,83.6z M529.2,87h2.3v11h-2.3V87z"/>
						<path class="st10" d="M534.1,91.5h5.3v1.7h-5.3V91.5z"/>
						<path class="st10" d="M541.4,95.1c0-2.4,2-3.6,6.6-4.1c0-1.3-0.5-2.4-2.1-2.4c-1.2,0-2.2,0.5-3.2,1.1l-0.9-1.6
							c1.1-0.7,2.7-1.4,4.4-1.4c2.7,0,4,1.7,4,4.7V98h-1.9l-0.2-1.3h-0.1c-1,0.9-2.2,1.5-3.5,1.5C542.8,98.3,541.4,97,541.4,95.1z
							 M548,95.2v-2.7c-3.3,0.4-4.4,1.2-4.4,2.5c0,1.1,0.7,1.5,1.7,1.5C546.3,96.4,547.1,96,548,95.2z"/>
						<path class="st10" d="M552.8,100c0-0.9,0.6-1.8,1.6-2.4v-0.1c-0.6-0.3-1-0.9-1-1.8c0-0.9,0.6-1.6,1.2-2v-0.1
							c-0.7-0.6-1.4-1.6-1.4-2.9c0-2.5,2-4,4.3-4c0.6,0,1.2,0.1,1.6,0.3h3.9v1.7h-2.1c0.4,0.4,0.7,1.2,0.7,2c0,2.4-1.8,3.8-4.1,3.8
							c-0.5,0-1.1-0.1-1.5-0.3c-0.4,0.3-0.6,0.6-0.6,1.2c0,0.7,0.4,1.1,1.8,1.1h2c2.6,0,4,0.8,4,2.7c0,2.1-2.2,3.8-5.8,3.8
							C554.7,102.9,552.8,102,552.8,100z M560.9,99.5c0-0.9-0.7-1.2-2.1-1.2h-1.7c-0.5,0-1-0.1-1.5-0.2c-0.7,0.5-0.9,1-0.9,1.6
							c0,1.1,1.1,1.7,2.9,1.7C559.6,101.4,560.9,100.5,560.9,99.5z M559.5,90.7c0-1.5-0.9-2.3-2.1-2.3s-2.1,0.8-2.1,2.3
							c0,1.5,0.9,2.4,2.1,2.4C558.6,93,559.5,92.1,559.5,90.7z"/>
						<path class="st10" d="M564.8,83.6c0-0.8,0.6-1.4,1.5-1.4c0.8,0,1.5,0.5,1.5,1.4c0,0.8-0.6,1.4-1.5,1.4
							C565.4,84.9,564.8,84.4,564.8,83.6z M565.1,87h2.3v11h-2.3V87z"/>
						<path class="st10" d="M570.9,87h1.9l0.2,1.5h0.1c1-1,2.1-1.8,3.6-1.8c2.3,0,3.4,1.6,3.4,4.4V98h-2.3v-6.6
							c0-1.9-0.6-2.7-1.9-2.7c-1,0-1.7,0.5-2.7,1.5V98h-2.3V87z"/>
						<path class="st10" d="M582.6,100c0-0.9,0.6-1.8,1.6-2.4v-0.1c-0.6-0.3-1-0.9-1-1.8c0-0.9,0.6-1.6,1.2-2v-0.1
							c-0.7-0.6-1.4-1.6-1.4-2.9c0-2.5,2-4,4.3-4c0.6,0,1.2,0.1,1.6,0.3h3.9v1.7h-2.1c0.4,0.4,0.7,1.2,0.7,2c0,2.4-1.8,3.8-4.1,3.8
							c-0.5,0-1.1-0.1-1.5-0.3c-0.4,0.3-0.6,0.6-0.6,1.2c0,0.7,0.4,1.1,1.8,1.1h2c2.6,0,4,0.8,4,2.7c0,2.1-2.2,3.8-5.8,3.8
							C584.5,102.9,582.6,102,582.6,100z M590.7,99.5c0-0.9-0.7-1.2-2.1-1.2h-1.7c-0.5,0-1-0.1-1.5-0.2c-0.7,0.5-0.9,1-0.9,1.6
							c0,1.1,1.1,1.7,2.9,1.7C589.4,101.4,590.7,100.5,590.7,99.5z M589.3,90.7c0-1.5-0.9-2.3-2.1-2.3s-2.1,0.8-2.1,2.3
							c0,1.5,0.9,2.4,2.1,2.4C588.3,93,589.3,92.1,589.3,90.7z"/>
						<path class="st10" d="M598.6,92.5c0-3.6,2.4-5.8,5-5.8c2.9,0,4.5,2.1,4.5,5.2c0,0.4,0,0.9-0.1,1.2h-7.1
							c0.2,2.1,1.5,3.4,3.4,3.4c1,0,1.8-0.3,2.6-0.8l0.8,1.5c-1,0.7-2.3,1.2-3.7,1.2C601,98.3,598.6,96.1,598.6,92.5z M606.2,91.5
							c0-1.9-0.9-3-2.5-3c-1.4,0-2.6,1.1-2.8,3H606.2z"/>
						<path class="st10" d="M622.6,83.9c-0.4-0.2-0.8-0.3-1.2-0.3c-1,0-1.5,0.6-1.5,2V87h2.2v1.8H620V98h-2.3v-9.2h-4.3V98H611v-9.2
							h-1.5v-1.7L611,87v-1.2c0-2.3,1.1-3.8,3.6-3.8c0.8,0,1.6,0.2,2.1,0.4l-0.5,1.7c-0.4-0.2-0.9-0.3-1.4-0.3c-1,0-1.6,0.7-1.6,2
							V87h4.3v-1.4c0-2.3,1-3.8,3.5-3.8c0.8,0,1.5,0.2,2,0.4L622.6,83.9z"/>
						<path class="st10" d="M623.2,92.5c0-3.6,2.4-5.8,5-5.8c2.9,0,4.5,2.1,4.5,5.2c0,0.4,0,0.9-0.1,1.2h-7.1
							c0.2,2.1,1.5,3.4,3.4,3.4c1,0,1.8-0.3,2.6-0.8l0.8,1.5c-1,0.7-2.3,1.2-3.7,1.2C625.6,98.3,623.2,96.1,623.2,92.5z M630.7,91.5
							c0-1.9-0.9-3-2.5-3c-1.4,0-2.6,1.1-2.8,3H630.7z"/>
						<path class="st10" d="M634.5,92.5c0-3.7,2.5-5.8,5.4-5.8c1.4,0,2.4,0.6,3.2,1.3l-1.1,1.5c-0.6-0.5-1.2-0.9-2-0.9
							c-1.8,0-3.2,1.6-3.2,3.9c0,2.3,1.3,3.9,3.1,3.9c0.9,0,1.7-0.4,2.4-1l0.9,1.5c-1,0.9-2.3,1.4-3.6,1.4
							C636.8,98.3,634.5,96.2,634.5,92.5z"/>
						<path class="st10" d="M645.8,94.4v-5.6h-1.6v-1.7l1.7-0.1l0.3-3h1.9v3h2.9v1.8h-2.9v5.6c0,1.3,0.5,2,1.6,2
							c0.4,0,0.9-0.1,1.2-0.3l0.4,1.7c-0.6,0.2-1.4,0.4-2.2,0.4C646.6,98.3,645.8,96.7,645.8,94.4z"/>
						<path class="st10" d="M651.9,96.7l1.1-1.5c1,0.8,1.9,1.3,3.1,1.3c1.3,0,1.9-0.6,1.9-1.5c0-1-1.2-1.4-2.4-1.9
							c-1.5-0.6-3.1-1.3-3.1-3.2c0-1.8,1.5-3.2,3.9-3.2c1.5,0,2.7,0.6,3.6,1.3l-1.1,1.4c-0.8-0.6-1.5-1-2.5-1
							c-1.2,0-1.8,0.6-1.8,1.4c0,0.9,1.1,1.3,2.3,1.7c1.5,0.6,3.2,1.3,3.2,3.3c0,1.8-1.5,3.3-4.2,3.3
							C654.6,98.3,653,97.6,651.9,96.7z"/>
					</g>
				</g>
			</g>
		</g>
	</g>
</g>
</svg>
