<?xml version="1.0" encoding="utf-8"?>
<!-- Generator: Adobe Illustrator 23.0.1, SVG Export Plug-In . SVG Version: 6.00 Build 0)  -->
<svg version="1.1" id="Layer_1" xmlns="http://www.w3.org/2000/svg" xmlns:xlink="http://www.w3.org/1999/xlink" x="0px" y="0px"
	 viewBox="0 0 1000 533" style="enable-background:new 0 0 1000 533;" xml:space="preserve">
<style type="text/css">
	.st0{fill-rule:evenodd;clip-rule:evenodd;fill:#B54142;fill-opacity:0.8;stroke:#961C1D;stroke-width:2;}
	.st1{enable-background:new    ;}
	.st2{fill:#FFFFFF;}
	.st3{font-family:'NotoSansKR-Bold-KSCpc-EUC-H';}
	.st4{font-size:22px;}
	.st5{font-family:'NotoSansKR-Regular-KSCpc-EUC-H';}
	.st6{font-size:18px;}
	.st7{fill:none;stroke:#0E0E0E;stroke-width:2;stroke-linecap:square;}
	.st8{fill:none;stroke:#0E0E0E;stroke-width:2;stroke-linecap:round;stroke-linejoin:round;}
	.st9{fill:none;stroke:#B54142;stroke-width:2;}
	.st10{fill:#333333;}
</style>
<title>table</title>
<desc>Created with Sketch.</desc>
<g id="Page-1">
	<g transform="translate(-220.000000, -570.000000)">
		<g id="first" transform="translate(190.000000, 420.000000)">
			<g id="table" transform="translate(30.000000, 150.000000)">
				<g id="box1">
					<path id="bg" class="st0" d="M9,1h982c4.4,0,8,3.6,8,8v235c0,4.4-3.6,8-8,8H9c-4.4,0-8-3.6-8-8V9C1,4.6,4.6,1,9,1z"/>
					<g class="st1">
						<path class="st2" d="M203,41.7h3.3V58H203V41.7z"/>
						<path class="st2" d="M210,45.7h2.6l0.2,1.6h0.1c1.1-1.1,2.3-1.9,4-1.9c2.7,0,3.8,1.8,3.8,5V58h-3.2v-7.3
							c0-1.9-0.5-2.6-1.7-2.6c-1,0-1.6,0.5-2.6,1.4V58H210V45.7z"/>
						<path class="st2" d="M224.1,45.7h2.6l0.2,1.6h0.1c1.1-1.1,2.3-1.9,4-1.9c2.7,0,3.8,1.8,3.8,5V58h-3.2v-7.3
							c0-1.9-0.5-2.6-1.7-2.6c-1,0-1.6,0.5-2.6,1.4V58h-3.2V45.7z"/>
						<path class="st2" d="M237.4,51.9c0-4.1,2.8-6.5,5.9-6.5c3.1,0,5.9,2.4,5.9,6.5c0,4.1-2.8,6.4-5.9,6.4
							C240.3,58.3,237.4,55.9,237.4,51.9z M246,51.9c0-2.3-0.9-3.9-2.6-3.9c-1.7,0-2.6,1.5-2.6,3.9c0,2.3,0.9,3.8,2.6,3.8
							C245,55.7,246,54.2,246,51.9z"/>
						<path class="st2" d="M250.4,45.7h3.3l1.8,6.1c0.3,1.2,0.7,2.5,1,3.7h0.1c0.3-1.3,0.7-2.5,1-3.7l1.8-6.1h3.1L258.3,58h-3.7
							L250.4,45.7z"/>
						<path class="st2" d="M263.3,54.7c0-2.6,2.1-4,7.1-4.6c0-1.2-0.6-2.1-2.1-2.1c-1.1,0-2.2,0.5-3.4,1.2l-1.2-2.1
							c1.5-0.9,3.2-1.6,5.1-1.6c3.1,0,4.7,1.9,4.7,5.4V58H271l-0.2-1.3h-0.1c-1.1,0.9-2.3,1.6-3.7,1.6
							C264.8,58.3,263.3,56.7,263.3,54.7z M270.4,54.6v-2.5c-3,0.4-4,1.2-4,2.3c0,1,0.7,1.4,1.6,1.4C269,55.8,269.7,55.3,270.4,54.6
							z"/>
						<path class="st2" d="M277,53.7v-5.5h-1.7v-2.4l1.9-0.2l0.4-3.3h2.7v3.3h3v2.6h-3v5.5c0,1.4,0.6,2.1,1.7,2.1
							c0.4,0,0.9-0.1,1.2-0.3l0.5,2.4c-0.7,0.2-1.5,0.5-2.6,0.5C278.1,58.3,277,56.5,277,53.7z"/>
						<path class="st2" d="M285.5,41.9c0-1.1,0.8-1.8,1.9-1.8c1.1,0,1.9,0.7,1.9,1.8c0,1-0.8,1.8-1.9,1.8
							C286.3,43.7,285.5,43,285.5,41.9z M285.8,45.7h3.2V58h-3.2V45.7z"/>
						<path class="st2" d="M291,45.7h3.3l1.8,6.1c0.3,1.2,0.7,2.5,1,3.7h0.1c0.3-1.3,0.7-2.5,1-3.7l1.8-6.1h3.1L299,58h-3.7
							L291,45.7z"/>
						<path class="st2" d="M304.2,51.9c0-4,2.8-6.5,5.7-6.5c3.4,0,5.1,2.5,5.1,5.9c0,0.6-0.1,1.2-0.2,1.5h-7.6
							c0.3,2,1.6,3.1,3.4,3.1c1,0,1.9-0.3,2.8-0.9l1.1,2c-1.2,0.8-2.8,1.4-4.3,1.4C306.9,58.3,304.2,55.9,304.2,51.9z M312.3,50.6
							c0-1.7-0.7-2.7-2.3-2.7c-1.3,0-2.4,0.9-2.7,2.7H312.3z"/>
						<path class="st2" d="M322,51.9c0-4,2.5-6.5,5.2-6.5c1.4,0,2.2,0.5,3.1,1.3l-0.1-1.9v-4.3h3.2V58h-2.6l-0.3-1.3h-0.1
							c-0.9,0.9-2.1,1.6-3.4,1.6C324,58.3,322,55.9,322,51.9z M330.2,54.4V49c-0.7-0.7-1.5-0.9-2.3-0.9c-1.4,0-2.6,1.3-2.6,3.8
							c0,2.6,0.9,3.8,2.6,3.8C328.8,55.6,329.5,55.3,330.2,54.4z"/>
						<path class="st2" d="M336.9,45.7h2.6l0.2,2.2h0.1c0.9-1.6,2.2-2.5,3.5-2.5c0.7,0,1.1,0.1,1.5,0.3l-0.6,2.8
							c-0.4-0.1-0.8-0.2-1.3-0.2c-1,0-2.1,0.6-2.8,2.4V58h-3.2V45.7z"/>
						<path class="st2" d="M346.4,53.4v-7.7h3.2V53c0,1.9,0.5,2.6,1.7,2.6c1,0,1.7-0.4,2.5-1.5v-8.3h3.2V58h-2.6l-0.2-1.8h-0.1
							c-1.1,1.3-2.2,2.1-3.9,2.1C347.5,58.3,346.4,56.5,346.4,53.4z"/>
						<path class="st2" d="M359.7,60.2c0-1,0.6-1.9,1.8-2.6v-0.1c-0.6-0.4-1.1-1.1-1.1-2.1c0-0.9,0.6-1.8,1.4-2.3V53
							c-0.8-0.6-1.6-1.8-1.6-3.2c0-2.9,2.4-4.5,5-4.5c0.7,0,1.3,0.1,1.8,0.3h4.4v2.4h-2.1c0.3,0.4,0.6,1.1,0.6,1.9
							c0,2.8-2.1,4.2-4.8,4.2c-0.5,0-1.1-0.1-1.6-0.3c-0.4,0.3-0.5,0.6-0.5,1.1c0,0.7,0.5,1,1.9,1h2.1c3,0,4.6,0.9,4.6,3.1
							c0,2.5-2.6,4.4-6.7,4.4C362,63.3,359.7,62.4,359.7,60.2z M368.5,59.5c0-0.9-0.7-1.1-2-1.1h-1.5c-0.7,0-1.3-0.1-1.7-0.2
							c-0.6,0.4-0.8,0.9-0.8,1.4c0,1,1.1,1.6,2.9,1.6C367.2,61.3,368.5,60.5,368.5,59.5z M367,49.8c0-1.5-0.8-2.3-1.9-2.3
							s-1.9,0.8-1.9,2.3s0.9,2.3,1.9,2.3S367,51.3,367,49.8z"/>
						<path class="st2" d="M372.5,56.6l1.5-2c1.1,0.9,2.2,1.3,3.3,1.3c1.2,0,1.8-0.5,1.8-1.3c0-0.9-1.3-1.3-2.6-1.8
							c-1.6-0.6-3.4-1.5-3.4-3.6c0-2.2,1.8-3.8,4.6-3.8c1.8,0,3.2,0.7,4.2,1.5l-1.5,2c-0.9-0.6-1.7-1.1-2.7-1.1
							c-1.1,0-1.6,0.5-1.6,1.2c0,0.9,1.2,1.2,2.5,1.7c1.6,0.6,3.4,1.4,3.4,3.7c0,2.2-1.7,3.9-4.9,3.9
							C375.5,58.3,373.7,57.6,372.5,56.6z"/>
						<path class="st2" d="M388.8,51.9c0-4,2.5-6.5,5.2-6.5c1.4,0,2.2,0.5,3.1,1.3l-0.1-1.9v-4.3h3.2V58h-2.6l-0.3-1.3h-0.1
							c-0.9,0.9-2.1,1.6-3.4,1.6C390.8,58.3,388.8,55.9,388.8,51.9z M397,54.4V49c-0.7-0.7-1.5-0.9-2.3-0.9c-1.4,0-2.6,1.3-2.6,3.8
							c0,2.6,0.9,3.8,2.6,3.8C395.6,55.6,396.3,55.3,397,54.4z"/>
						<path class="st2" d="M402.9,51.9c0-4,2.8-6.5,5.7-6.5c3.4,0,5.1,2.5,5.1,5.9c0,0.6-0.1,1.2-0.2,1.5h-7.6
							c0.3,2,1.6,3.1,3.4,3.1c1,0,1.9-0.3,2.8-0.9l1.1,2c-1.2,0.8-2.8,1.4-4.3,1.4C405.6,58.3,402.9,55.9,402.9,51.9z M411.1,50.6
							c0-1.7-0.7-2.7-2.3-2.7c-1.3,0-2.4,0.9-2.7,2.7H411.1z"/>
						<path class="st2" d="M416.5,45.7h2.6l0.2,2.2h0.1c0.9-1.6,2.2-2.5,3.5-2.5c0.7,0,1.1,0.1,1.5,0.3l-0.6,2.8
							c-0.4-0.1-0.8-0.2-1.3-0.2c-1,0-2.1,0.6-2.8,2.4V58h-3.2V45.7z"/>
						<path class="st2" d="M425.8,41.9c0-1.1,0.8-1.8,1.9-1.8c1.1,0,1.9,0.7,1.9,1.8c0,1-0.8,1.8-1.9,1.8
							C426.6,43.7,425.8,43,425.8,41.9z M426.1,45.7h3.2V58h-3.2V45.7z"/>
						<path class="st2" d="M431.3,45.7h3.3l1.8,6.1c0.3,1.2,0.7,2.5,1,3.7h0.1c0.3-1.3,0.7-2.5,1-3.7l1.8-6.1h3.1L439.3,58h-3.7
							L431.3,45.7z"/>
						<path class="st2" d="M444.5,51.9c0-4,2.8-6.5,5.7-6.5c3.4,0,5.1,2.5,5.1,5.9c0,0.6-0.1,1.2-0.2,1.5h-7.6
							c0.3,2,1.6,3.1,3.4,3.1c1,0,1.9-0.3,2.8-0.9l1.1,2c-1.2,0.8-2.8,1.4-4.3,1.4C447.2,58.3,444.5,55.9,444.5,51.9z M452.6,50.6
							c0-1.7-0.7-2.7-2.3-2.7c-1.3,0-2.4,0.9-2.7,2.7H452.6z"/>
						<path class="st2" d="M457.3,51.9c0-4,2.5-6.5,5.2-6.5c1.4,0,2.2,0.5,3.1,1.3l-0.1-1.9v-4.3h3.2V58h-2.6l-0.3-1.3h-0.1
							c-0.9,0.9-2.1,1.6-3.4,1.6C459.3,58.3,457.3,55.9,457.3,51.9z M465.5,54.4V49c-0.7-0.7-1.5-0.9-2.3-0.9
							c-1.4,0-2.6,1.3-2.6,3.8c0,2.6,0.9,3.8,2.6,3.8C464.1,55.6,464.8,55.3,465.5,54.4z"/>
						<path class="st2" d="M483.8,43c-0.4-0.2-0.9-0.3-1.3-0.3c-1,0-1.5,0.6-1.5,1.9v1.1h2.3v2.6H481V58h-3.2v-9.8h-1.6v-2.4
							l1.6-0.1v-1c0-2.6,1.2-4.6,4.3-4.6c0.9,0,1.8,0.2,2.3,0.4L483.8,43z"/>
						<path class="st2" d="M485.4,45.7h2.6l0.2,2.2h0.1c0.9-1.6,2.2-2.5,3.5-2.5c0.7,0,1.1,0.1,1.5,0.3l-0.6,2.8
							c-0.4-0.1-0.8-0.2-1.3-0.2c-1,0-2.1,0.6-2.8,2.4V58h-3.2V45.7z"/>
						<path class="st2" d="M493.9,51.9c0-4.1,2.8-6.5,5.9-6.5s5.9,2.4,5.9,6.5c0,4.1-2.8,6.4-5.9,6.4S493.9,55.9,493.9,51.9z
							 M502.5,51.9c0-2.3-0.9-3.9-2.6-3.9s-2.6,1.5-2.6,3.9c0,2.3,0.9,3.8,2.6,3.8S502.5,54.2,502.5,51.9z"/>
						<path class="st2" d="M508.5,45.7h2.6l0.2,1.7h0.1c1-1.1,2.2-2,3.8-2c1.8,0,2.8,0.8,3.4,2.2c1.1-1.2,2.3-2.2,3.9-2.2
							c2.6,0,3.8,1.8,3.8,5V58h-3.2v-7.3c0-1.9-0.5-2.6-1.7-2.6c-0.7,0-1.5,0.5-2.4,1.4V58h-3.2v-7.3c0-1.9-0.6-2.6-1.7-2.6
							c-0.7,0-1.5,0.5-2.4,1.4V58h-3.2V45.7z"/>
						<path class="st2" d="M537.6,56.7L537.6,56.7l-0.4,1.3h-2.5V40.4h3.2v4.4l-0.1,2c1-0.9,2.2-1.5,3.4-1.5c3,0,4.9,2.5,4.9,6.2
							c0,4.2-2.5,6.7-5.2,6.7C539.8,58.3,538.6,57.7,537.6,56.7z M542.8,51.7c0-2.4-0.7-3.7-2.4-3.7c-0.8,0-1.6,0.4-2.4,1.3v5.4
							c0.8,0.7,1.6,0.9,2.2,0.9C541.6,55.6,542.8,54.4,542.8,51.7z"/>
						<path class="st2" d="M548.1,51.9c0-4.1,2.8-6.5,5.9-6.5s5.9,2.4,5.9,6.5c0,4.1-2.8,6.4-5.9,6.4S548.1,55.9,548.1,51.9z
							 M556.6,51.9c0-2.3-0.9-3.9-2.6-3.9s-2.6,1.5-2.6,3.9c0,2.3,0.9,3.8,2.6,3.8S556.6,54.2,556.6,51.9z"/>
						<path class="st2" d="M562.5,53.7v-5.5h-1.7v-2.4l1.9-0.2l0.4-3.3h2.7v3.3h3v2.6h-3v5.5c0,1.4,0.6,2.1,1.7,2.1
							c0.4,0,0.9-0.1,1.2-0.3l0.5,2.4c-0.7,0.2-1.5,0.5-2.6,0.5C563.6,58.3,562.5,56.5,562.5,53.7z"/>
						<path class="st2" d="M570.1,54.7c0-2.6,2.1-4,7.1-4.6c0-1.2-0.6-2.1-2.1-2.1c-1.1,0-2.2,0.5-3.4,1.2l-1.2-2.1
							c1.5-0.9,3.2-1.6,5.1-1.6c3.1,0,4.7,1.9,4.7,5.4V58h-2.6l-0.2-1.3h-0.1c-1.1,0.9-2.3,1.6-3.7,1.6
							C571.6,58.3,570.1,56.7,570.1,54.7z M577.2,54.6v-2.5c-3,0.4-4,1.2-4,2.3c0,1,0.7,1.4,1.6,1.4
							C575.8,55.8,576.4,55.3,577.2,54.6z"/>
						<path class="st2" d="M583.8,45.7h2.6l0.2,1.6h0.1c1.1-1.1,2.3-1.9,4-1.9c2.7,0,3.8,1.8,3.8,5V58h-3.2v-7.3
							c0-1.9-0.5-2.6-1.7-2.6c-1,0-1.7,0.5-2.6,1.4V58h-3.2V45.7z"/>
						<path class="st2" d="M597.5,41.9c0-1.1,0.8-1.8,1.9-1.8c1.1,0,1.9,0.7,1.9,1.8c0,1-0.8,1.8-1.9,1.8
							C598.4,43.7,597.5,43,597.5,41.9z M597.9,45.7h3.2V58h-3.2V45.7z"/>
						<path class="st2" d="M603.8,51.9c0-4.1,2.9-6.5,6.3-6.5c1.5,0,2.7,0.6,3.6,1.4l-1.5,2.1c-0.6-0.5-1.2-0.8-1.9-0.8
							c-1.9,0-3.1,1.5-3.1,3.9c0,2.3,1.3,3.8,3.1,3.8c0.9,0,1.7-0.4,2.4-1l1.3,2.1c-1.2,1-2.7,1.5-4,1.5
							C606.4,58.3,603.8,55.9,603.8,51.9z"/>
						<path class="st2" d="M615.3,54.7c0-2.6,2.1-4,7.1-4.6c0-1.2-0.6-2.1-2.1-2.1c-1.1,0-2.2,0.5-3.4,1.2l-1.2-2.1
							c1.5-0.9,3.2-1.6,5.1-1.6c3.1,0,4.7,1.9,4.7,5.4V58h-2.6l-0.2-1.3h-0.1c-1.1,0.9-2.3,1.6-3.7,1.6
							C616.7,58.3,615.3,56.7,615.3,54.7z M622.3,54.6v-2.5c-3,0.4-4,1.2-4,2.3c0,1,0.7,1.4,1.6,1.4
							C620.9,55.8,621.6,55.3,622.3,54.6z"/>
						<path class="st2" d="M628.9,54.5V40.4h3.2v14.3c0,0.7,0.4,1,0.7,1c0.1,0,0.2,0,0.4,0l0.4,2.4c-0.4,0.2-0.9,0.3-1.7,0.3
							C629.7,58.3,628.9,56.8,628.9,54.5z"/>
						<path class="st2" d="M639.6,56.6l1.5-2c1.1,0.9,2.2,1.3,3.3,1.3c1.2,0,1.8-0.5,1.8-1.3c0-0.9-1.3-1.3-2.6-1.8
							c-1.6-0.6-3.4-1.5-3.4-3.6c0-2.2,1.8-3.8,4.6-3.8c1.8,0,3.2,0.7,4.2,1.5l-1.5,2c-0.9-0.6-1.7-1.1-2.7-1.1
							c-1.1,0-1.6,0.5-1.6,1.2c0,0.9,1.2,1.2,2.5,1.7c1.6,0.6,3.4,1.4,3.4,3.7c0,2.2-1.7,3.9-4.9,3.9
							C642.7,58.3,640.8,57.6,639.6,56.6z"/>
						<path class="st2" d="M650.9,51.9c0-4.1,2.8-6.5,5.9-6.5s5.9,2.4,5.9,6.5c0,4.1-2.8,6.4-5.9,6.4S650.9,55.9,650.9,51.9z
							 M659.5,51.9c0-2.3-0.9-3.9-2.6-3.9s-2.6,1.5-2.6,3.9c0,2.3,0.9,3.8,2.6,3.8S659.5,54.2,659.5,51.9z"/>
						<path class="st2" d="M665.3,53.4v-7.7h3.2V53c0,1.9,0.5,2.6,1.7,2.6c1,0,1.7-0.4,2.5-1.5v-8.3h3.2V58h-2.6l-0.2-1.8H673
							c-1.1,1.3-2.2,2.1-3.9,2.1C666.5,58.3,665.3,56.5,665.3,53.4z"/>
						<path class="st2" d="M679.5,45.7h2.6l0.2,2.2h0.1c0.9-1.6,2.2-2.5,3.5-2.5c0.7,0,1.1,0.1,1.5,0.3l-0.6,2.8
							c-0.4-0.1-0.8-0.2-1.3-0.2c-1,0-2.1,0.6-2.8,2.4V58h-3.2V45.7z"/>
						<path class="st2" d="M688,51.9c0-4.1,2.9-6.5,6.3-6.5c1.5,0,2.7,0.6,3.6,1.4l-1.5,2.1c-0.6-0.5-1.2-0.8-1.9-0.8
							c-1.9,0-3.1,1.5-3.1,3.9c0,2.3,1.3,3.8,3.1,3.8c0.9,0,1.7-0.4,2.4-1l1.3,2.1c-1.2,1-2.7,1.5-4,1.5
							C690.6,58.3,688,55.9,688,51.9z"/>
						<path class="st2" d="M699,51.9c0-4,2.8-6.5,5.7-6.5c3.4,0,5.1,2.5,5.1,5.9c0,0.6-0.1,1.2-0.2,1.5h-7.6c0.3,2,1.6,3.1,3.4,3.1
							c1,0,1.9-0.3,2.8-0.9l1.1,2c-1.2,0.8-2.8,1.4-4.3,1.4C701.6,58.3,699,55.9,699,51.9z M707.1,50.6c0-1.7-0.7-2.7-2.3-2.7
							c-1.3,0-2.4,0.9-2.7,2.7H707.1z"/>
						<path class="st2" d="M711.3,56.6l1.5-2c1.1,0.9,2.2,1.3,3.3,1.3c1.2,0,1.8-0.5,1.8-1.3c0-0.9-1.3-1.3-2.6-1.8
							c-1.6-0.6-3.4-1.5-3.4-3.6c0-2.2,1.8-3.8,4.6-3.8c1.8,0,3.2,0.7,4.2,1.5l-1.5,2c-0.9-0.6-1.7-1.1-2.7-1.1
							c-1.1,0-1.6,0.5-1.6,1.2c0,0.9,1.2,1.2,2.5,1.7c1.6,0.6,3.4,1.4,3.4,3.7c0,2.2-1.7,3.9-4.9,3.9
							C714.4,58.3,712.6,57.6,711.3,56.6z"/>
						<path class="st2" d="M735,43c-0.4-0.2-0.9-0.3-1.3-0.3c-1,0-1.5,0.6-1.5,1.9v1.1h2.3v2.6h-2.3V58h-3.2v-9.8h-1.7v-2.4l1.7-0.1
							v-1c0-2.6,1.2-4.6,4.3-4.6c0.9,0,1.8,0.2,2.3,0.4L735,43z"/>
						<path class="st2" d="M735.5,51.9c0-4.1,2.8-6.5,5.9-6.5s5.9,2.4,5.9,6.5c0,4.1-2.8,6.4-5.9,6.4S735.5,55.9,735.5,51.9z
							 M744.1,51.9c0-2.3-0.9-3.9-2.6-3.9s-2.6,1.5-2.6,3.9c0,2.3,0.9,3.8,2.6,3.8S744.1,54.2,744.1,51.9z"/>
						<path class="st2" d="M750.1,45.7h2.6l0.2,2.2h0.1c0.9-1.6,2.2-2.5,3.5-2.5c0.7,0,1.1,0.1,1.5,0.3l-0.6,2.8
							c-0.4-0.1-0.8-0.2-1.3-0.2c-1,0-2.1,0.6-2.8,2.4V58h-3.2V45.7z"/>
						<path class="st2" d="M765.1,53.7v-5.5h-1.7v-2.4l1.9-0.2l0.4-3.3h2.7v3.3h3v2.6h-3v5.5c0,1.4,0.6,2.1,1.7,2.1
							c0.4,0,0.9-0.1,1.2-0.3l0.5,2.4c-0.7,0.2-1.5,0.5-2.6,0.5C766.3,58.3,765.1,56.5,765.1,53.7z"/>
						<path class="st2" d="M773.9,40.4h3.2v4.4l-0.1,2.3c1-0.9,2.2-1.8,3.9-1.8c2.7,0,3.8,1.8,3.8,5V58h-3.2v-7.3
							c0-1.9-0.5-2.6-1.7-2.6c-1,0-1.6,0.5-2.6,1.4V58h-3.2V40.4z"/>
						<path class="st2" d="M787.2,51.9c0-4,2.8-6.5,5.7-6.5c3.4,0,5.1,2.5,5.1,5.9c0,0.6-0.1,1.2-0.2,1.5h-7.6
							c0.3,2,1.6,3.1,3.4,3.1c1,0,1.9-0.3,2.8-0.9l1.1,2c-1.2,0.8-2.8,1.4-4.3,1.4C789.9,58.3,787.2,55.9,787.2,51.9z M795.3,50.6
							c0-1.7-0.7-2.7-2.3-2.7c-1.3,0-2.4,0.9-2.7,2.7H795.3z"/>
					</g>
					<text transform="matrix(1 0 0 1 799.0393 58)" class="st2 st3 st4"> </text>
					<g class="st1">
						<path class="st2" d="M203.2,86.7v-5.5h-1.7v-2.4l1.9-0.2l0.4-3.3h2.7v3.3h3v2.6h-3v5.5c0,1.4,0.6,2.1,1.7,2.1
							c0.4,0,0.9-0.1,1.2-0.3l0.5,2.4c-0.7,0.2-1.5,0.5-2.6,0.5C204.3,91.3,203.2,89.5,203.2,86.7z"/>
						<path class="st2" d="M212,78.7h2.6l0.2,2.2h0.1c0.9-1.6,2.2-2.5,3.5-2.5c0.7,0,1.1,0.1,1.5,0.3l-0.6,2.8
							c-0.4-0.1-0.8-0.2-1.3-0.2c-1,0-2.1,0.6-2.8,2.4V91H212V78.7z"/>
						<path class="st2" d="M220.5,84.9c0-4,2.8-6.5,5.7-6.5c3.4,0,5.1,2.5,5.1,5.9c0,0.6-0.1,1.2-0.2,1.5h-7.6
							c0.3,2,1.6,3.1,3.4,3.1c1,0,1.9-0.3,2.8-0.9l1.1,2c-1.2,0.8-2.8,1.4-4.3,1.4C223.2,91.3,220.5,88.9,220.5,84.9z M228.7,83.6
							c0-1.7-0.7-2.7-2.3-2.7c-1.3,0-2.4,0.9-2.7,2.7H228.7z"/>
						<path class="st2" d="M233.2,87.7c0-2.6,2.1-4,7.1-4.6c0-1.2-0.6-2.1-2.1-2.1c-1.1,0-2.2,0.5-3.4,1.2l-1.2-2.1
							c1.5-0.9,3.2-1.6,5.1-1.6c3.1,0,4.7,1.9,4.7,5.4V91h-2.6l-0.2-1.3h-0.1c-1.1,0.9-2.3,1.6-3.7,1.6
							C234.6,91.3,233.2,89.7,233.2,87.7z M240.2,87.6v-2.5c-3,0.4-4,1.2-4,2.3c0,1,0.7,1.4,1.6,1.4
							C238.8,88.8,239.5,88.3,240.2,87.6z"/>
						<path class="st2" d="M246.8,86.7v-5.5h-1.7v-2.4l1.9-0.2l0.4-3.3h2.7v3.3h3v2.6h-3v5.5c0,1.4,0.6,2.1,1.7,2.1
							c0.4,0,0.9-0.1,1.2-0.3l0.5,2.4c-0.7,0.2-1.5,0.5-2.6,0.5C247.9,91.3,246.8,89.5,246.8,86.7z"/>
						<path class="st2" d="M255.6,78.7h2.6l0.2,1.7h0.1c1-1.1,2.2-2,3.8-2c1.8,0,2.8,0.8,3.4,2.2c1.1-1.2,2.3-2.2,3.9-2.2
							c2.6,0,3.8,1.8,3.8,5V91h-3.2v-7.3c0-1.9-0.6-2.6-1.7-2.6c-0.7,0-1.5,0.5-2.4,1.4V91h-3.2v-7.3c0-1.9-0.6-2.6-1.7-2.6
							c-0.7,0-1.5,0.5-2.4,1.4V91h-3.2V78.7z"/>
						<path class="st2" d="M276,84.9c0-4,2.8-6.5,5.7-6.5c3.4,0,5.1,2.5,5.1,5.9c0,0.6-0.1,1.2-0.2,1.5h-7.6c0.3,2,1.6,3.1,3.4,3.1
							c1,0,1.9-0.3,2.8-0.9l1.1,2c-1.2,0.8-2.8,1.4-4.3,1.4C278.7,91.3,276,88.9,276,84.9z M284.2,83.6c0-1.7-0.7-2.7-2.3-2.7
							c-1.3,0-2.4,0.9-2.7,2.7H284.2z"/>
						<path class="st2" d="M289.6,78.7h2.6l0.2,1.6h0.1c1.1-1.1,2.3-1.9,4-1.9c2.7,0,3.8,1.8,3.8,5V91h-3.2v-7.3
							c0-1.9-0.5-2.6-1.7-2.6c-1,0-1.6,0.5-2.6,1.4V91h-3.2V78.7z"/>
						<path class="st2" d="M304.2,86.7v-5.5h-1.7v-2.4l1.9-0.2l0.4-3.3h2.7v3.3h3v2.6h-3v5.5c0,1.4,0.6,2.1,1.7,2.1
							c0.4,0,0.9-0.1,1.2-0.3l0.5,2.4c-0.7,0.2-1.5,0.5-2.6,0.5C305.3,91.3,304.2,89.5,304.2,86.7z"/>
						<path class="st2" d="M317.2,84.9c0-4.1,2.8-6.5,5.9-6.5c3.1,0,5.9,2.4,5.9,6.5c0,4.1-2.8,6.4-5.9,6.4
							C320,91.3,317.2,88.9,317.2,84.9z M325.7,84.9c0-2.3-0.9-3.9-2.6-3.9c-1.7,0-2.6,1.5-2.6,3.9c0,2.3,0.9,3.8,2.6,3.8
							C324.8,88.7,325.7,87.2,325.7,84.9z"/>
						<path class="st2" d="M338.2,76c-0.4-0.2-0.9-0.3-1.3-0.3c-1,0-1.5,0.6-1.5,1.9v1.1h2.3v2.6h-2.3V91h-3.2v-9.8h-1.7v-2.4
							l1.7-0.1v-1c0-2.6,1.2-4.6,4.3-4.6c0.9,0,1.8,0.2,2.3,0.4L338.2,76z"/>
						<path class="st2" d="M344.5,74.9c0-1.1,0.8-1.8,1.9-1.8c1.1,0,1.9,0.7,1.9,1.8c0,1-0.8,1.8-1.9,1.8
							C345.3,76.7,344.5,76,344.5,74.9z M344.8,78.7h3.2V91h-3.2V78.7z"/>
						<path class="st2" d="M351.5,78.7h2.6l0.2,1.6h0.1c1.1-1.1,2.3-1.9,4-1.9c2.7,0,3.8,1.8,3.8,5V91H359v-7.3
							c0-1.9-0.5-2.6-1.7-2.6c-1,0-1.6,0.5-2.6,1.4V91h-3.2V78.7z"/>
						<path class="st2" d="M366,86.7v-5.5h-1.7v-2.4l1.9-0.2l0.4-3.3h2.7v3.3h3v2.6h-3v5.5c0,1.4,0.6,2.1,1.7,2.1
							c0.4,0,0.9-0.1,1.2-0.3l0.5,2.4c-0.7,0.2-1.5,0.5-2.6,0.5C367.1,91.3,366,89.5,366,86.7z"/>
						<path class="st2" d="M374.8,78.7h2.6l0.2,2.2h0.1c0.9-1.6,2.2-2.5,3.5-2.5c0.7,0,1.1,0.1,1.5,0.3l-0.6,2.8
							c-0.4-0.1-0.8-0.2-1.3-0.2c-1,0-2.1,0.6-2.8,2.4V91h-3.2V78.7z"/>
						<path class="st2" d="M383.1,87.7c0-2.6,2.1-4,7.1-4.6c0-1.2-0.6-2.1-2.1-2.1c-1.1,0-2.2,0.5-3.4,1.2l-1.2-2.1
							c1.5-0.9,3.2-1.6,5.1-1.6c3.1,0,4.7,1.9,4.7,5.4V91h-2.6l-0.2-1.3h-0.1c-1.1,0.9-2.3,1.6-3.7,1.6
							C384.5,91.3,383.1,89.7,383.1,87.7z M390.2,87.6v-2.5c-3,0.4-4,1.2-4,2.3c0,1,0.7,1.4,1.6,1.4
							C388.7,88.8,389.4,88.3,390.2,87.6z"/>
						<path class="st2" d="M395.9,84.9c0-4.1,2.9-6.5,6.3-6.5c1.5,0,2.7,0.6,3.6,1.4l-1.5,2.1c-0.6-0.5-1.2-0.8-1.9-0.8
							c-1.9,0-3.1,1.5-3.1,3.9c0,2.3,1.3,3.8,3.1,3.8c0.9,0,1.7-0.4,2.4-1l1.3,2.1c-1.2,1-2.7,1.5-4,1.5
							C398.5,91.3,395.9,88.9,395.9,84.9z"/>
						<path class="st2" d="M408.5,86.7v-5.5h-1.7v-2.4l1.9-0.2l0.4-3.3h2.7v3.3h3v2.6h-3v5.5c0,1.4,0.6,2.1,1.7,2.1
							c0.4,0,0.9-0.1,1.2-0.3l0.5,2.4c-0.7,0.2-1.5,0.5-2.6,0.5C409.6,91.3,408.5,89.5,408.5,86.7z"/>
						<path class="st2" d="M416.2,87.7c0-2.6,2.1-4,7.1-4.6c0-1.2-0.6-2.1-2.1-2.1c-1.1,0-2.2,0.5-3.4,1.2l-1.2-2.1
							c1.5-0.9,3.2-1.6,5.1-1.6c3.1,0,4.7,1.9,4.7,5.4V91h-2.6l-0.2-1.3h-0.1c-1.1,0.9-2.3,1.6-3.7,1.6
							C417.6,91.3,416.2,89.7,416.2,87.7z M423.2,87.6v-2.5c-3,0.4-4,1.2-4,2.3c0,1,0.7,1.4,1.6,1.4
							C421.8,88.8,422.5,88.3,423.2,87.6z"/>
						<path class="st2" d="M432.7,89.7L432.7,89.7l-0.4,1.3h-2.5V73.4h3.2v4.4l-0.1,2c1-0.9,2.2-1.5,3.4-1.5c3,0,4.9,2.5,4.9,6.2
							c0,4.2-2.5,6.7-5.2,6.7C434.9,91.3,433.7,90.7,432.7,89.7z M437.9,84.7c0-2.4-0.7-3.7-2.4-3.7c-0.8,0-1.6,0.4-2.4,1.3v5.4
							c0.8,0.7,1.6,0.9,2.2,0.9C436.7,88.6,437.9,87.4,437.9,84.7z"/>
						<path class="st2" d="M443.9,87.5V73.4h3.2v14.3c0,0.7,0.4,1,0.7,1c0.1,0,0.2,0,0.4,0l0.4,2.4c-0.4,0.2-0.9,0.3-1.7,0.3
							C444.7,91.3,443.9,89.8,443.9,87.5z"/>
						<path class="st2" d="M450.1,84.9c0-4,2.8-6.5,5.7-6.5c3.4,0,5.1,2.5,5.1,5.9c0,0.6-0.1,1.2-0.2,1.5h-7.6
							c0.3,2,1.6,3.1,3.4,3.1c1,0,1.9-0.3,2.8-0.9l1.1,2c-1.2,0.8-2.8,1.4-4.3,1.4C452.8,91.3,450.1,88.9,450.1,84.9z M458.2,83.6
							c0-1.7-0.7-2.7-2.3-2.7c-1.3,0-2.4,0.9-2.7,2.7H458.2z"/>
						<path class="st2" d="M467.7,73.3h2.2L464.4,95h-2.2L467.7,73.3z"/>
						<path class="st2" d="M470.9,84.9c0-4.1,2.9-6.5,6.3-6.5c1.5,0,2.7,0.6,3.6,1.4l-1.5,2.1c-0.6-0.5-1.2-0.8-1.9-0.8
							c-1.9,0-3.1,1.5-3.1,3.9c0,2.3,1.3,3.8,3.1,3.8c0.9,0,1.7-0.4,2.4-1l1.3,2.1c-1.2,1-2.7,1.5-4,1.5
							C473.5,91.3,470.9,88.9,470.9,84.9z"/>
						<path class="st2" d="M483.3,73.4h3.2v4.4l-0.1,2.3c1-0.9,2.2-1.8,3.9-1.8c2.7,0,3.8,1.8,3.8,5V91h-3.2v-7.3
							c0-1.9-0.5-2.6-1.7-2.6c-1,0-1.6,0.5-2.6,1.4V91h-3.2V73.4z"/>
						<path class="st2" d="M497.4,78.7h2.6l0.2,2.2h0.1c0.9-1.6,2.2-2.5,3.5-2.5c0.7,0,1.1,0.1,1.5,0.3l-0.6,2.8
							c-0.4-0.1-0.8-0.2-1.3-0.2c-1,0-2.1,0.6-2.8,2.4V91h-3.2V78.7z"/>
						<path class="st2" d="M505.9,84.9c0-4.1,2.8-6.5,5.9-6.5s5.9,2.4,5.9,6.5c0,4.1-2.8,6.4-5.9,6.4S505.9,88.9,505.9,84.9z
							 M514.5,84.9c0-2.3-0.9-3.9-2.6-3.9s-2.6,1.5-2.6,3.9c0,2.3,0.9,3.8,2.6,3.8S514.5,87.2,514.5,84.9z"/>
						<path class="st2" d="M520.5,78.7h2.6l0.2,1.6h0.1c1.1-1.1,2.3-1.9,4-1.9c2.7,0,3.8,1.8,3.8,5V91H528v-7.3
							c0-1.9-0.5-2.6-1.7-2.6c-1,0-1.6,0.5-2.6,1.4V91h-3.2V78.7z"/>
						<path class="st2" d="M534.3,74.9c0-1.1,0.8-1.8,1.9-1.8c1.1,0,1.9,0.7,1.9,1.8c0,1-0.8,1.8-1.9,1.8
							C535.1,76.7,534.3,76,534.3,74.9z M534.6,78.7h3.2V91h-3.2V78.7z"/>
						<path class="st2" d="M540.5,84.9c0-4.1,2.9-6.5,6.3-6.5c1.5,0,2.7,0.6,3.6,1.4l-1.5,2.1c-0.6-0.5-1.2-0.8-1.9-0.8
							c-1.9,0-3.1,1.5-3.1,3.9c0,2.3,1.3,3.8,3.1,3.8c0.9,0,1.7-0.4,2.4-1l1.3,2.1c-1.2,1-2.7,1.5-4,1.5
							C543.1,91.3,540.5,88.9,540.5,84.9z"/>
						<path class="st2" d="M557.1,84.9c0-4,2.5-6.5,5.2-6.5c1.4,0,2.2,0.5,3.1,1.3l-0.1-1.9v-4.3h3.2V91h-2.6l-0.3-1.3h-0.1
							c-0.9,0.9-2.1,1.6-3.4,1.6C559.1,91.3,557.1,88.9,557.1,84.9z M565.3,87.4V82c-0.7-0.7-1.5-0.9-2.3-0.9
							c-1.4,0-2.6,1.3-2.6,3.8c0,2.6,0.9,3.8,2.6,3.8C563.9,88.6,564.6,88.3,565.3,87.4z"/>
						<path class="st2" d="M571.7,74.9c0-1.1,0.8-1.8,1.9-1.8c1.1,0,1.9,0.7,1.9,1.8c0,1-0.8,1.8-1.9,1.8
							C572.5,76.7,571.7,76,571.7,74.9z M572,78.7h3.2V91H572V78.7z"/>
						<path class="st2" d="M577.5,89.6l1.5-2c1.1,0.9,2.2,1.3,3.3,1.3c1.2,0,1.8-0.5,1.8-1.3c0-0.9-1.3-1.3-2.6-1.8
							c-1.6-0.6-3.4-1.5-3.4-3.6c0-2.2,1.8-3.8,4.6-3.8c1.8,0,3.2,0.7,4.2,1.5l-1.5,2c-0.9-0.6-1.7-1.1-2.7-1.1
							c-1.1,0-1.6,0.5-1.6,1.2c0,0.9,1.2,1.2,2.5,1.7c1.6,0.6,3.4,1.4,3.4,3.7c0,2.2-1.7,3.9-4.9,3.9
							C580.6,91.3,578.7,90.6,577.5,89.6z"/>
						<path class="st2" d="M588.8,84.9c0-4,2.8-6.5,5.7-6.5c3.4,0,5.1,2.5,5.1,5.9c0,0.6-0.1,1.2-0.2,1.5H592c0.3,2,1.6,3.1,3.4,3.1
							c1,0,1.9-0.3,2.8-0.9l1.1,2c-1.2,0.8-2.8,1.4-4.3,1.4C591.5,91.3,588.8,88.9,588.8,84.9z M596.9,83.6c0-1.7-0.7-2.7-2.3-2.7
							c-1.3,0-2.4,0.9-2.7,2.7H596.9z"/>
						<path class="st2" d="M601.4,87.7c0-2.6,2.1-4,7.1-4.6c0-1.2-0.6-2.1-2.1-2.1c-1.1,0-2.2,0.5-3.4,1.2l-1.2-2.1
							c1.5-0.9,3.2-1.6,5.1-1.6c3.1,0,4.7,1.9,4.7,5.4V91h-2.6l-0.2-1.3h-0.1c-1.1,0.9-2.3,1.6-3.7,1.6
							C602.9,91.3,601.4,89.7,601.4,87.7z M608.5,87.6v-2.5c-3,0.4-4,1.2-4,2.3c0,1,0.7,1.4,1.6,1.4
							C607.1,88.8,607.8,88.3,608.5,87.6z"/>
						<path class="st2" d="M613.9,89.6l1.5-2c1.1,0.9,2.2,1.3,3.3,1.3c1.2,0,1.8-0.5,1.8-1.3c0-0.9-1.3-1.3-2.6-1.8
							c-1.6-0.6-3.4-1.5-3.4-3.6c0-2.2,1.8-3.8,4.6-3.8c1.8,0,3.2,0.7,4.2,1.5l-1.5,2c-0.9-0.6-1.7-1.1-2.7-1.1
							c-1.1,0-1.6,0.5-1.6,1.2c0,0.9,1.2,1.2,2.5,1.7c1.6,0.6,3.4,1.4,3.4,3.7c0,2.2-1.7,3.9-4.9,3.9
							C616.9,91.3,615.1,90.6,613.9,89.6z"/>
						<path class="st2" d="M625.2,84.9c0-4,2.8-6.5,5.7-6.5c3.4,0,5.1,2.5,5.1,5.9c0,0.6-0.1,1.2-0.2,1.5h-7.6
							c0.3,2,1.6,3.1,3.4,3.1c1,0,1.9-0.3,2.8-0.9l1.1,2c-1.2,0.8-2.8,1.4-4.3,1.4C627.9,91.3,625.2,88.9,625.2,84.9z M633.3,83.6
							c0-1.7-0.7-2.7-2.3-2.7c-1.3,0-2.4,0.9-2.7,2.7H633.3z"/>
						<path class="st2" d="M637.6,89.6l1.5-2c1.1,0.9,2.2,1.3,3.3,1.3c1.2,0,1.8-0.5,1.8-1.3c0-0.9-1.3-1.3-2.6-1.8
							c-1.6-0.6-3.4-1.5-3.4-3.6c0-2.2,1.8-3.8,4.6-3.8c1.8,0,3.2,0.7,4.2,1.5l-1.5,2c-0.9-0.6-1.7-1.1-2.7-1.1
							c-1.1,0-1.6,0.5-1.6,1.2c0,0.9,1.2,1.2,2.5,1.7c1.6,0.6,3.4,1.4,3.4,3.7c0,2.2-1.7,3.9-4.9,3.9
							C640.6,91.3,638.8,90.6,637.6,89.6z"/>
					</g>
					<g class="st1">
						<path class="st2" d="M53.8,128.3h4.6v1.3h-4.6V128.3z"/>
						<path class="st2" d="M67.8,122.2h-4v-1.4h9.7v1.4h-4V134h-1.7V122.2z"/>
						<path class="st2" d="M73.6,131.5c0-2.1,1.9-3.2,6-3.7c0-1.3-0.4-2.5-2-2.5c-1.1,0-2.2,0.5-2.9,1l-0.6-1.1
							c0.9-0.6,2.3-1.3,3.9-1.3c2.4,0,3.4,1.6,3.4,4v6h-1.4l-0.1-1.2h-0.1c-0.9,0.8-2,1.4-3.2,1.4C74.9,134.2,73.6,133.2,73.6,131.5
							z M79.7,131.6v-2.7c-3.3,0.4-4.4,1.2-4.4,2.5c0,1.1,0.8,1.6,1.7,1.6C77.9,132.9,78.7,132.5,79.7,131.6z"/>
						<path class="st2" d="M84.4,124.2h1.4l0.1,1.8H86c0.7-1.2,1.7-2,2.8-2c0.4,0,0.7,0.1,1,0.2l-0.3,1.4c-0.3-0.1-0.6-0.2-1-0.2
							c-0.8,0-1.8,0.6-2.5,2.2v6.3h-1.6V124.2z"/>
						<path class="st2" d="M90.4,135.9c0-0.8,0.5-1.6,1.5-2.2v-0.1c-0.5-0.3-0.9-0.8-0.9-1.6c0-0.8,0.6-1.5,1.1-1.8v-0.1
							c-0.6-0.5-1.3-1.5-1.3-2.6c0-2.1,1.7-3.5,3.7-3.5c0.5,0,1,0.1,1.4,0.3h3.4v1.3h-2c0.5,0.5,0.8,1.2,0.8,2
							c0,2.1-1.6,3.4-3.6,3.4c-0.5,0-1-0.1-1.5-0.3c-0.4,0.3-0.6,0.6-0.6,1.2c0,0.6,0.4,1.1,1.7,1.1H96c2.3,0,3.4,0.7,3.4,2.3
							c0,1.8-1.9,3.4-4.9,3.4C92.1,138.5,90.4,137.6,90.4,135.9z M97.8,135.4c0-0.9-0.7-1.2-2-1.2h-1.7c-0.4,0-0.8-0.1-1.3-0.2
							c-0.7,0.5-1,1.1-1,1.7c0,1,1.1,1.7,2.8,1.7C96.6,137.4,97.8,136.4,97.8,135.4z M96.6,127.5c0-1.4-0.9-2.3-2.1-2.3
							s-2.1,0.8-2.1,2.3c0,1.4,1,2.3,2.1,2.3C95.6,129.8,96.6,128.9,96.6,127.5z"/>
						<path class="st2" d="M100.3,129.1c0-3.2,2.1-5.1,4.4-5.1c2.5,0,3.9,1.8,3.9,4.6c0,0.4,0,0.7-0.1,0.9H102
							c0.1,2.1,1.4,3.4,3.2,3.4c1,0,1.7-0.3,2.4-0.8l0.6,1.1c-0.9,0.6-1.9,1-3.2,1C102.4,134.2,100.3,132.3,100.3,129.1z
							 M107.2,128.3c0-2-0.9-3-2.4-3c-1.4,0-2.6,1.1-2.8,3H107.2z"/>
						<path class="st2" d="M111.1,131v-5.4h-1.5v-1.2l1.5-0.1l0.2-2.7h1.4v2.7h2.6v1.3h-2.6v5.5c0,1.2,0.4,1.9,1.5,1.9
							c0.3,0,0.8-0.1,1.1-0.3l0.3,1.2c-0.6,0.2-1.2,0.4-1.8,0.4C111.8,134.2,111.1,132.9,111.1,131z"/>
						<path class="st2" d="M121.7,124.2h1.4l0.1,1.4h0.1c0.9-0.9,1.9-1.7,3.3-1.7c2.1,0,3,1.3,3,3.8v6.2h-1.6v-6
							c0-1.8-0.6-2.6-1.9-2.6c-1,0-1.7,0.5-2.7,1.5v7.1h-1.6V124.2z"/>
						<path class="st2" d="M132.3,121.1c0-0.7,0.5-1.1,1.1-1.1c0.6,0,1.1,0.4,1.1,1.1c0,0.6-0.5,1.1-1.1,1.1
							C132.8,122.2,132.3,121.8,132.3,121.1z M132.6,124.2h1.6v9.8h-1.6V124.2z"/>
						<path class="st2" d="M136.9,129.1c0-3.3,2.2-5.1,4.7-5.1c1.3,0,2.2,0.5,2.9,1.2l-0.8,1.1c-0.6-0.5-1.2-0.9-2-0.9
							c-1.8,0-3.1,1.5-3.1,3.8c0,2.3,1.2,3.7,3,3.7c0.9,0,1.7-0.4,2.3-1l0.7,1.1c-0.9,0.8-2,1.2-3.2,1.2
							C138.9,134.2,136.9,132.4,136.9,129.1z"/>
						<path class="st2" d="M146.8,119.7h1.6v3.9l-0.1,2c0.9-0.9,1.9-1.6,3.2-1.6c2.1,0,3,1.3,3,3.8v6.2h-1.6v-6
							c0-1.8-0.6-2.6-1.9-2.6c-1,0-1.7,0.5-2.7,1.5v7.1h-1.6V119.7z"/>
						<path class="st2" d="M156.9,129.1c0-3.2,2.1-5.1,4.4-5.1c2.5,0,3.9,1.8,3.9,4.6c0,0.4,0,0.7-0.1,0.9h-6.6
							c0.1,2.1,1.4,3.4,3.2,3.4c1,0,1.7-0.3,2.4-0.8l0.6,1.1c-0.9,0.6-1.9,1-3.2,1C159,134.2,156.9,132.3,156.9,129.1z M163.8,128.3
							c0-2-0.9-3-2.4-3c-1.4,0-2.6,1.1-2.8,3H163.8z"/>
						<path class="st2" d="M171.7,124.2h1.4l0.1,1.4h0.1c0.8-0.9,1.9-1.7,3-1.7c1.5,0,2.3,0.7,2.7,1.9c1-1.1,2-1.9,3.2-1.9
							c2,0,3,1.3,3,3.8v6.2h-1.6v-6c0-1.8-0.6-2.6-1.8-2.6c-0.8,0-1.5,0.5-2.5,1.5v7.1h-1.6v-6c0-1.8-0.6-2.6-1.8-2.6
							c-0.7,0-1.6,0.5-2.5,1.5v7.1h-1.6V124.2z"/>
						<path class="st2" d="M187.7,131.5c0-2.1,1.9-3.2,6-3.7c0-1.3-0.4-2.5-2-2.5c-1.1,0-2.2,0.5-2.9,1l-0.6-1.1
							c0.9-0.6,2.3-1.3,3.9-1.3c2.4,0,3.4,1.6,3.4,4v6H194l-0.1-1.2h-0.1c-0.9,0.8-2,1.4-3.2,1.4C189,134.2,187.7,133.2,187.7,131.5
							z M193.8,131.6v-2.7c-3.3,0.4-4.4,1.2-4.4,2.5c0,1.1,0.8,1.6,1.7,1.6C192,132.9,192.8,132.5,193.8,131.6z"/>
						<path class="st2" d="M198.5,124.2h1.4l0.1,1.8h0.1c0.7-1.2,1.7-2,2.8-2c0.4,0,0.7,0.1,1,0.2l-0.3,1.4c-0.3-0.1-0.6-0.2-1-0.2
							c-0.8,0-1.8,0.6-2.5,2.2v6.3h-1.6V124.2z"/>
						<path class="st2" d="M205.5,119.7h1.6v9.7h0l4.2-5.2h1.8l-3.3,3.9l3.7,5.9h-1.8l-2.9-4.7l-1.8,2.1v2.6h-1.6V119.7z"/>
						<path class="st2" d="M214.3,129.1c0-3.2,2.1-5.1,4.4-5.1c2.5,0,3.9,1.8,3.9,4.6c0,0.4,0,0.7-0.1,0.9H216
							c0.1,2.1,1.4,3.4,3.2,3.4c1,0,1.7-0.3,2.4-0.8l0.6,1.1c-0.9,0.6-1.9,1-3.2,1C216.4,134.2,214.3,132.3,214.3,129.1z
							 M221.2,128.3c0-2-0.9-3-2.4-3c-1.4,0-2.6,1.1-2.8,3H221.2z"/>
						<path class="st2" d="M225.1,131v-5.4h-1.5v-1.2l1.5-0.1l0.2-2.7h1.4v2.7h2.6v1.3h-2.6v5.5c0,1.2,0.4,1.9,1.5,1.9
							c0.3,0,0.8-0.1,1.1-0.3l0.3,1.2c-0.6,0.2-1.2,0.4-1.8,0.4C225.8,134.2,225.1,132.9,225.1,131z"/>
						<path class="st2" d="M230.3,132.9l0.8-1.1c0.8,0.7,1.7,1.2,2.9,1.2c1.3,0,1.9-0.7,1.9-1.5c0-1-1.2-1.4-2.2-1.9
							c-1.4-0.5-2.9-1.2-2.9-2.8c0-1.5,1.2-2.8,3.4-2.8c1.2,0,2.3,0.5,3,1.1l-0.8,1.1c-0.7-0.5-1.4-0.9-2.3-0.9
							c-1.2,0-1.8,0.6-1.8,1.4c0,0.9,1.1,1.3,2.2,1.7c1.4,0.5,3,1.1,3,3c0,1.6-1.3,2.9-3.6,2.9C232.6,134.2,231.3,133.7,230.3,132.9
							z"/>
						<path class="st2" d="M239.2,136.4c1.1-0.5,1.8-1.4,1.8-2.4c-0.1,0-0.1,0-0.2,0c-0.6,0-1.2-0.4-1.2-1.2c0-0.7,0.6-1.2,1.2-1.2
							c0.9,0,1.4,0.7,1.4,1.9c0,1.7-1,3.1-2.6,3.8L239.2,136.4z"/>
						<path class="st2" d="M248.2,129.1c0-3.2,2.1-5.1,4.4-5.1c2.5,0,3.9,1.8,3.9,4.6c0,0.4,0,0.7-0.1,0.9h-6.6
							c0.1,2.1,1.4,3.4,3.2,3.4c1,0,1.7-0.3,2.4-0.8l0.6,1.1c-0.9,0.6-1.9,1-3.2,1C250.2,134.2,248.2,132.3,248.2,129.1z M255,128.3
							c0-2-0.9-3-2.4-3c-1.4,0-2.6,1.1-2.8,3H255z"/>
						<path class="st2" d="M257.8,132.9l0.8-1.1c0.8,0.7,1.7,1.2,2.9,1.2c1.3,0,1.9-0.7,1.9-1.5c0-1-1.2-1.4-2.2-1.9
							c-1.4-0.5-2.9-1.2-2.9-2.8c0-1.5,1.2-2.8,3.4-2.8c1.2,0,2.3,0.5,3,1.1l-0.8,1.1c-0.7-0.5-1.4-0.9-2.3-0.9
							c-1.2,0-1.8,0.6-1.8,1.4c0,0.9,1.1,1.3,2.2,1.7c1.4,0.5,3,1.1,3,3c0,1.6-1.3,2.9-3.6,2.9C260,134.2,258.7,133.7,257.8,132.9z"
							/>
						<path class="st2" d="M267.2,131v-5.4h-1.5v-1.2l1.5-0.1l0.2-2.7h1.4v2.7h2.6v1.3h-2.6v5.5c0,1.2,0.4,1.9,1.5,1.9
							c0.3,0,0.8-0.1,1.1-0.3l0.3,1.2c-0.6,0.2-1.2,0.4-1.8,0.4C267.9,134.2,267.2,132.9,267.2,131z"/>
						<path class="st2" d="M272.6,131.5c0-2.1,1.9-3.2,6-3.7c0-1.3-0.4-2.5-2-2.5c-1.1,0-2.2,0.5-2.9,1l-0.6-1.1
							c0.9-0.6,2.3-1.3,3.9-1.3c2.4,0,3.4,1.6,3.4,4v6h-1.4l-0.1-1.2h-0.1c-0.9,0.8-2,1.4-3.2,1.4
							C273.9,134.2,272.6,133.2,272.6,131.5z M278.6,131.6v-2.7c-3.3,0.4-4.4,1.2-4.4,2.5c0,1.1,0.8,1.6,1.7,1.6
							C276.9,132.9,277.7,132.5,278.6,131.6z"/>
						<path class="st2" d="M284.9,133L284.9,133l-0.2,1h-1.3v-14.3h1.6v3.9l-0.1,1.8c0.9-0.8,2-1.4,3.1-1.4c2.5,0,3.9,2,3.9,5
							c0,3.4-2,5.3-4.2,5.3C286.8,134.2,285.8,133.8,284.9,133z M290.2,129c0-2.2-0.7-3.6-2.6-3.6c-0.8,0-1.7,0.5-2.6,1.4v5.1
							c0.9,0.8,1.7,1,2.4,1C289.1,132.9,290.2,131.4,290.2,129z"/>
						<path class="st2" d="M294.5,132.1v-12.4h1.6v12.5c0,0.5,0.2,0.7,0.5,0.7c0.1,0,0.2,0,0.3,0l0.2,1.3c-0.2,0.1-0.5,0.1-1,0.1
							C295,134.2,294.5,133.4,294.5,132.1z"/>
						<path class="st2" d="M299.3,121.1c0-0.7,0.5-1.1,1.1-1.1c0.6,0,1.1,0.4,1.1,1.1c0,0.6-0.5,1.1-1.1,1.1
							C299.8,122.2,299.3,121.8,299.3,121.1z M299.7,124.2h1.6v9.8h-1.6V124.2z"/>
						<path class="st2" d="M303.5,132.9l0.8-1.1c0.8,0.7,1.7,1.2,2.9,1.2c1.3,0,1.9-0.7,1.9-1.5c0-1-1.2-1.4-2.2-1.9
							c-1.4-0.5-2.9-1.2-2.9-2.8c0-1.5,1.2-2.8,3.4-2.8c1.2,0,2.3,0.5,3,1.1l-0.8,1.1c-0.7-0.5-1.4-0.9-2.3-0.9
							c-1.2,0-1.8,0.6-1.8,1.4c0,0.9,1.1,1.3,2.2,1.7c1.4,0.5,3,1.1,3,3c0,1.6-1.3,2.9-3.6,2.9C305.8,134.2,304.4,133.7,303.5,132.9
							z"/>
						<path class="st2" d="M313,119.7h1.6v3.9l-0.1,2c0.9-0.9,1.9-1.6,3.2-1.6c2.1,0,3,1.3,3,3.8v6.2h-1.6v-6c0-1.8-0.6-2.6-1.9-2.6
							c-1,0-1.7,0.5-2.7,1.5v7.1H313V119.7z"/>
						<path class="st2" d="M327.2,129.1c0-3.3,2.1-5.1,4.5-5.1c2.4,0,4.5,1.9,4.5,5.1c0,3.2-2.1,5.1-4.5,5.1
							C329.4,134.2,327.2,132.4,327.2,129.1z M334.6,129.1c0-2.2-1.2-3.8-2.8-3.8s-2.8,1.5-2.8,3.8c0,2.3,1.1,3.7,2.8,3.7
							S334.6,131.4,334.6,129.1z"/>
						<path class="st2" d="M338.9,124.2h1.4l0.1,1.8h0.1c0.7-1.2,1.7-2,2.8-2c0.4,0,0.7,0.1,1,0.2l-0.3,1.4c-0.3-0.1-0.6-0.2-1-0.2
							c-0.8,0-1.8,0.6-2.5,2.2v6.3h-1.6V124.2z"/>
						<path class="st2" d="M345.6,121.1c0-0.7,0.5-1.1,1.1-1.1c0.6,0,1.1,0.4,1.1,1.1c0,0.6-0.5,1.1-1.1,1.1
							C346.1,122.2,345.6,121.8,345.6,121.1z M345.9,124.2h1.6v9.8h-1.6V124.2z"/>
						<path class="st2" d="M350.1,135.9c0-0.8,0.5-1.6,1.5-2.2v-0.1c-0.5-0.3-0.9-0.8-0.9-1.6c0-0.8,0.6-1.5,1.1-1.8v-0.1
							c-0.6-0.5-1.3-1.5-1.3-2.6c0-2.1,1.7-3.5,3.7-3.5c0.5,0,1,0.1,1.4,0.3h3.4v1.3h-2c0.5,0.5,0.8,1.2,0.8,2
							c0,2.1-1.6,3.4-3.6,3.4c-0.5,0-1-0.1-1.5-0.3c-0.4,0.3-0.6,0.6-0.6,1.2c0,0.6,0.4,1.1,1.7,1.1h1.9c2.3,0,3.4,0.7,3.4,2.3
							c0,1.8-1.9,3.4-4.9,3.4C351.7,138.5,350.1,137.6,350.1,135.9z M357.5,135.4c0-0.9-0.7-1.2-2-1.2h-1.7c-0.4,0-0.8-0.1-1.3-0.2
							c-0.7,0.5-1,1.1-1,1.7c0,1,1.1,1.7,2.8,1.7C356.2,137.4,357.5,136.4,357.5,135.4z M356.2,127.5c0-1.4-0.9-2.3-2.1-2.3
							s-2.1,0.8-2.1,2.3c0,1.4,1,2.3,2.1,2.3C355.2,129.8,356.2,128.9,356.2,127.5z"/>
						<path class="st2" d="M360.7,121.1c0-0.7,0.5-1.1,1.1-1.1c0.6,0,1.1,0.4,1.1,1.1c0,0.6-0.5,1.1-1.1,1.1
							C361.1,122.2,360.7,121.8,360.7,121.1z M361,124.2h1.6v9.8H361V124.2z"/>
						<path class="st2" d="M365.9,124.2h1.4l0.1,1.4h0.1c0.9-0.9,1.9-1.7,3.3-1.7c2.1,0,3,1.3,3,3.8v6.2h-1.6v-6
							c0-1.8-0.6-2.6-1.9-2.6c-1,0-1.7,0.5-2.7,1.5v7.1h-1.6V124.2z"/>
						<path class="st2" d="M376.3,131.5c0-2.1,1.9-3.2,6-3.7c0-1.3-0.4-2.5-2-2.5c-1.1,0-2.2,0.5-2.9,1l-0.6-1.1
							c0.9-0.6,2.3-1.3,3.9-1.3c2.4,0,3.4,1.6,3.4,4v6h-1.4l-0.1-1.2h-0.1c-0.9,0.8-2,1.4-3.2,1.4
							C377.5,134.2,376.3,133.2,376.3,131.5z M382.3,131.6v-2.7c-3.3,0.4-4.4,1.2-4.4,2.5c0,1.1,0.8,1.6,1.7,1.6
							C380.6,132.9,381.4,132.5,382.3,131.6z"/>
						<path class="st2" d="M387.1,132.1v-12.4h1.6v12.5c0,0.5,0.2,0.7,0.5,0.7c0.1,0,0.2,0,0.3,0l0.2,1.3c-0.2,0.1-0.5,0.1-1,0.1
							C387.6,134.2,387.1,133.4,387.1,132.1z"/>
						<path class="st2" d="M395.5,129.1c0-3.3,2.1-5.1,4.5-5.1s4.5,1.9,4.5,5.1c0,3.2-2.1,5.1-4.5,5.1S395.5,132.4,395.5,129.1z
							 M402.9,129.1c0-2.2-1.2-3.8-2.8-3.8s-2.8,1.5-2.8,3.8c0,2.3,1.1,3.7,2.8,3.7S402.9,131.4,402.9,129.1z"/>
						<path class="st2" d="M407.1,124.2h1.4l0.1,1.8h0.1c0.7-1.2,1.7-2,2.8-2c0.4,0,0.7,0.1,1,0.2l-0.3,1.4c-0.3-0.1-0.6-0.2-1-0.2
							c-0.8,0-1.8,0.6-2.5,2.2v6.3h-1.6V124.2z"/>
						<path class="st2" d="M418.1,124.2h1.4l0.1,1.1h0.1c0.9-0.7,2-1.4,3.1-1.4c2.5,0,3.9,2,3.9,5c0,3.3-2,5.3-4.2,5.3
							c-0.9,0-1.8-0.4-2.7-1.1l0,1.7v3.3h-1.6V124.2z M425,129c0-2.2-0.7-3.6-2.6-3.6c-0.8,0-1.7,0.5-2.6,1.4v5.1
							c0.9,0.8,1.7,1,2.4,1C423.8,132.9,425,131.4,425,129z"/>
						<path class="st2" d="M428.4,131.5c0-2.1,1.9-3.2,6-3.7c0-1.3-0.4-2.5-2-2.5c-1.1,0-2.2,0.5-2.9,1l-0.6-1.1
							c0.9-0.6,2.3-1.3,3.9-1.3c2.4,0,3.4,1.6,3.4,4v6h-1.4l-0.1-1.2h-0.1c-0.9,0.8-2,1.4-3.2,1.4
							C429.6,134.2,428.4,133.2,428.4,131.5z M434.4,131.6v-2.7c-3.3,0.4-4.4,1.2-4.4,2.5c0,1.1,0.8,1.6,1.7,1.6
							C432.7,132.9,433.5,132.5,434.4,131.6z"/>
						<path class="st2" d="M439.2,131v-5.4h-1.5v-1.2l1.5-0.1l0.2-2.7h1.4v2.7h2.6v1.3h-2.6v5.5c0,1.2,0.4,1.9,1.5,1.9
							c0.3,0,0.8-0.1,1.1-0.3l0.3,1.2c-0.6,0.2-1.2,0.4-1.8,0.4C439.9,134.2,439.2,132.9,439.2,131z"/>
						<path class="st2" d="M445.7,119.7h1.6v3.9l-0.1,2c0.9-0.9,1.9-1.6,3.2-1.6c2.1,0,3,1.3,3,3.8v6.2h-1.6v-6
							c0-1.8-0.6-2.6-1.9-2.6c-1,0-1.7,0.5-2.7,1.5v7.1h-1.6V119.7z"/>
						<path class="st2" d="M455.8,128.3h4.6v1.3h-4.6V128.3z"/>
						<path class="st2" d="M464.4,133L464.4,133l-0.2,1h-1.3v-14.3h1.6v3.9l-0.1,1.8c0.9-0.8,2-1.4,3.1-1.4c2.5,0,3.9,2,3.9,5
							c0,3.4-2,5.3-4.2,5.3C466.3,134.2,465.2,133.8,464.4,133z M469.7,129c0-2.2-0.7-3.6-2.6-3.6c-0.8,0-1.7,0.5-2.6,1.4v5.1
							c0.9,0.8,1.7,1,2.4,1C468.5,132.9,469.7,131.4,469.7,129z"/>
						<path class="st2" d="M474,124.2h1.4l0.1,1.8h0.1c0.7-1.2,1.7-2,2.8-2c0.4,0,0.7,0.1,1,0.2l-0.3,1.4c-0.3-0.1-0.6-0.2-1-0.2
							c-0.8,0-1.8,0.6-2.5,2.2v6.3H474V124.2z"/>
						<path class="st2" d="M480,129.1c0-3.2,2.1-5.1,4.4-5.1c2.5,0,3.9,1.8,3.9,4.6c0,0.4,0,0.7-0.1,0.9h-6.6
							c0.1,2.1,1.4,3.4,3.2,3.4c1,0,1.7-0.3,2.4-0.8l0.6,1.1c-0.9,0.6-1.9,1-3.2,1C482.1,134.2,480,132.3,480,129.1z M486.9,128.3
							c0-2-0.9-3-2.4-3c-1.4,0-2.6,1.1-2.8,3H486.9z"/>
						<path class="st2" d="M489.8,131.5c0-2.1,1.9-3.2,6-3.7c0-1.3-0.4-2.5-2-2.5c-1.1,0-2.2,0.5-2.9,1l-0.6-1.1
							c0.9-0.6,2.3-1.3,3.9-1.3c2.4,0,3.4,1.6,3.4,4v6h-1.4l-0.1-1.2h-0.1c-0.9,0.8-2,1.4-3.2,1.4
							C491.1,134.2,489.8,133.2,489.8,131.5z M495.9,131.6v-2.7c-3.3,0.4-4.4,1.2-4.4,2.5c0,1.1,0.8,1.6,1.7,1.6
							C494.1,132.9,494.9,132.5,495.9,131.6z"/>
						<path class="st2" d="M500.6,119.7h1.6v9.7h0l4.2-5.2h1.8l-3.3,3.9l3.7,5.9h-1.8l-2.9-4.7l-1.8,2.1v2.6h-1.6V119.7z"/>
						<path class="st2" d="M510.2,121.1c0-0.7,0.5-1.1,1.1-1.1s1.1,0.4,1.1,1.1c0,0.6-0.5,1.1-1.1,1.1S510.2,121.8,510.2,121.1z
							 M510.5,124.2h1.6v9.8h-1.6V124.2z"/>
						<path class="st2" d="M515.5,124.2h1.4l0.1,1.4h0.1c0.9-0.9,1.9-1.7,3.3-1.7c2.1,0,3,1.3,3,3.8v6.2h-1.6v-6
							c0-1.8-0.6-2.6-1.9-2.6c-1,0-1.7,0.5-2.7,1.5v7.1h-1.6V124.2z"/>
						<path class="st2" d="M525.7,135.9c0-0.8,0.5-1.6,1.5-2.2v-0.1c-0.5-0.3-0.9-0.8-0.9-1.6c0-0.8,0.6-1.5,1.1-1.8v-0.1
							c-0.6-0.5-1.3-1.5-1.3-2.6c0-2.1,1.7-3.5,3.7-3.5c0.5,0,1,0.1,1.4,0.3h3.4v1.3h-2c0.5,0.5,0.8,1.2,0.8,2
							c0,2.1-1.6,3.4-3.6,3.4c-0.5,0-1-0.1-1.5-0.3c-0.4,0.3-0.6,0.6-0.6,1.2c0,0.6,0.4,1.1,1.7,1.1h1.9c2.3,0,3.4,0.7,3.4,2.3
							c0,1.8-1.9,3.4-4.9,3.4C527.4,138.5,525.7,137.6,525.7,135.9z M533.1,135.4c0-0.9-0.7-1.2-2-1.2h-1.7c-0.4,0-0.8-0.1-1.3-0.2
							c-0.7,0.5-1,1.1-1,1.7c0,1,1.1,1.7,2.8,1.7C531.9,137.4,533.1,136.4,533.1,135.4z M531.8,127.5c0-1.4-0.9-2.3-2.1-2.3
							s-2.1,0.8-2.1,2.3c0,1.4,1,2.3,2.1,2.3C530.9,129.8,531.8,128.9,531.8,127.5z"/>
						<path class="st2" d="M540.9,131v-5.4h-1.5v-1.2l1.5-0.1l0.2-2.7h1.4v2.7h2.6v1.3h-2.6v5.5c0,1.2,0.4,1.9,1.5,1.9
							c0.3,0,0.8-0.1,1.1-0.3l0.3,1.2c-0.6,0.2-1.2,0.4-1.8,0.4C541.6,134.2,540.9,132.9,540.9,131z"/>
						<path class="st2" d="M546.4,129.1c0-3.2,2.1-5.1,4.4-5.1c2.5,0,3.9,1.8,3.9,4.6c0,0.4,0,0.7-0.1,0.9h-6.6
							c0.1,2.1,1.4,3.4,3.2,3.4c1,0,1.7-0.3,2.4-0.8l0.6,1.1c-0.9,0.6-1.9,1-3.2,1C548.5,134.2,546.4,132.3,546.4,129.1z
							 M553.3,128.3c0-2-0.9-3-2.4-3c-1.4,0-2.6,1.1-2.8,3H553.3z"/>
						<path class="st2" d="M556.4,129.1c0-3.3,2.2-5.1,4.7-5.1c1.3,0,2.2,0.5,2.9,1.2l-0.8,1.1c-0.6-0.5-1.2-0.9-2-0.9
							c-1.8,0-3.1,1.5-3.1,3.8c0,2.3,1.2,3.7,3,3.7c0.9,0,1.7-0.4,2.3-1l0.7,1.1c-0.9,0.8-2,1.2-3.2,1.2
							C558.4,134.2,556.4,132.4,556.4,129.1z"/>
						<path class="st2" d="M566.3,119.7h1.6v3.9l-0.1,2c0.9-0.9,1.9-1.6,3.2-1.6c2.1,0,3,1.3,3,3.8v6.2h-1.6v-6
							c0-1.8-0.6-2.6-1.9-2.6c-1,0-1.7,0.5-2.7,1.5v7.1h-1.6V119.7z"/>
						<path class="st2" d="M577.2,124.2h1.4l0.1,1.4h0.1c0.9-0.9,1.9-1.7,3.3-1.7c2.1,0,3,1.3,3,3.8v6.2h-1.6v-6
							c0-1.8-0.6-2.6-1.9-2.6c-1,0-1.7,0.5-2.7,1.5v7.1h-1.6V124.2z"/>
						<path class="st2" d="M587.5,129.1c0-3.3,2.1-5.1,4.5-5.1s4.5,1.9,4.5,5.1c0,3.2-2.1,5.1-4.5,5.1S587.5,132.4,587.5,129.1z
							 M594.9,129.1c0-2.2-1.2-3.8-2.8-3.8c-1.7,0-2.8,1.5-2.8,3.8c0,2.3,1.1,3.7,2.8,3.7C593.7,132.9,594.9,131.4,594.9,129.1z"/>
						<path class="st2" d="M599.1,132.1v-12.4h1.6v12.5c0,0.5,0.2,0.7,0.5,0.7c0.1,0,0.2,0,0.3,0l0.2,1.3c-0.2,0.1-0.5,0.1-1,0.1
							C599.6,134.2,599.1,133.4,599.1,132.1z"/>
						<path class="st2" d="M603.5,129.1c0-3.3,2.1-5.1,4.5-5.1s4.5,1.9,4.5,5.1c0,3.2-2.1,5.1-4.5,5.1S603.5,132.4,603.5,129.1z
							 M610.9,129.1c0-2.2-1.2-3.8-2.8-3.8c-1.7,0-2.8,1.5-2.8,3.8c0,2.3,1.1,3.7,2.8,3.7C609.8,132.9,610.9,131.4,610.9,129.1z"/>
						<path class="st2" d="M614.4,135.9c0-0.8,0.5-1.6,1.5-2.2v-0.1c-0.5-0.3-0.9-0.8-0.9-1.6c0-0.8,0.6-1.5,1.1-1.8v-0.1
							c-0.6-0.5-1.3-1.5-1.3-2.6c0-2.1,1.7-3.5,3.7-3.5c0.5,0,1,0.1,1.4,0.3h3.4v1.3h-2c0.5,0.5,0.8,1.2,0.8,2
							c0,2.1-1.6,3.4-3.6,3.4c-0.5,0-1-0.1-1.5-0.3c-0.4,0.3-0.6,0.6-0.6,1.2c0,0.6,0.4,1.1,1.7,1.1h1.9c2.3,0,3.4,0.7,3.4,2.3
							c0,1.8-1.9,3.4-4.9,3.4C616.1,138.5,614.4,137.6,614.4,135.9z M621.8,135.4c0-0.9-0.7-1.2-2-1.2h-1.7c-0.4,0-0.8-0.1-1.3-0.2
							c-0.7,0.5-1,1.1-1,1.7c0,1,1.1,1.7,2.8,1.7C620.6,137.4,621.8,136.4,621.8,135.4z M620.5,127.5c0-1.4-0.9-2.3-2.1-2.3
							s-2.1,0.8-2.1,2.3c0,1.4,1,2.3,2.1,2.3C619.6,129.8,620.5,128.9,620.5,127.5z"/>
						<path class="st2" d="M625,121.1c0-0.7,0.5-1.1,1.1-1.1s1.1,0.4,1.1,1.1c0,0.6-0.5,1.1-1.1,1.1S625,121.8,625,121.1z
							 M625.3,124.2h1.6v9.8h-1.6V124.2z"/>
						<path class="st2" d="M629.5,129.1c0-3.2,2.1-5.1,4.4-5.1c2.5,0,3.9,1.8,3.9,4.6c0,0.4,0,0.7-0.1,0.9h-6.6
							c0.1,2.1,1.4,3.4,3.2,3.4c1,0,1.7-0.3,2.4-0.8l0.6,1.1c-0.9,0.6-1.9,1-3.2,1C631.6,134.2,629.5,132.3,629.5,129.1z
							 M636.4,128.3c0-2-0.9-3-2.4-3c-1.4,0-2.6,1.1-2.8,3H636.4z"/>
						<path class="st2" d="M639.1,132.9l0.8-1.1c0.8,0.7,1.7,1.2,2.9,1.2c1.3,0,1.9-0.7,1.9-1.5c0-1-1.2-1.4-2.2-1.9
							c-1.4-0.5-2.9-1.2-2.9-2.8c0-1.5,1.2-2.8,3.4-2.8c1.2,0,2.3,0.5,3,1.1l-0.8,1.1c-0.7-0.5-1.4-0.9-2.3-0.9
							c-1.2,0-1.8,0.6-1.8,1.4c0,0.9,1.1,1.3,2.2,1.7c1.4,0.5,3,1.1,3,3c0,1.6-1.3,2.9-3.6,2.9C641.4,134.2,640.1,133.7,639.1,132.9
							z"/>
						<path class="st2" d="M651.5,124.2h1.7l1.5,5.7c0.2,0.9,0.4,1.8,0.6,2.7h0.1c0.2-0.9,0.4-1.8,0.7-2.7l1.5-5.7h1.6l1.5,5.7
							c0.2,0.9,0.5,1.8,0.7,2.7h0.1c0.2-0.9,0.4-1.8,0.6-2.7l1.4-5.7h1.5l-2.6,9.8h-2l-1.4-5.3c-0.3-0.9-0.4-1.8-0.7-2.8h-0.1
							c-0.2,1-0.4,1.9-0.7,2.8l-1.4,5.2h-1.9L651.5,124.2z"/>
						<path class="st2" d="M666.8,121.1c0-0.7,0.5-1.1,1.1-1.1c0.6,0,1.1,0.4,1.1,1.1c0,0.6-0.5,1.1-1.1,1.1
							C667.3,122.2,666.8,121.8,666.8,121.1z M667.1,124.2h1.6v9.8h-1.6V124.2z"/>
						<path class="st2" d="M672.4,131v-5.4h-1.5v-1.2l1.5-0.1l0.2-2.7h1.4v2.7h2.6v1.3H674v5.5c0,1.2,0.4,1.9,1.5,1.9
							c0.3,0,0.8-0.1,1.1-0.3l0.3,1.2c-0.6,0.2-1.2,0.4-1.8,0.4C673.1,134.2,672.4,132.9,672.4,131z"/>
						<path class="st2" d="M678.9,119.7h1.6v3.9l-0.1,2c0.9-0.9,1.9-1.6,3.2-1.6c2.1,0,3,1.3,3,3.8v6.2H685v-6
							c0-1.8-0.6-2.6-1.9-2.6c-1,0-1.7,0.5-2.7,1.5v7.1h-1.6V119.7z"/>
						<path class="st2" d="M693.1,135.9c0-0.8,0.5-1.6,1.5-2.2v-0.1c-0.5-0.3-0.9-0.8-0.9-1.6c0-0.8,0.6-1.5,1.1-1.8v-0.1
							c-0.6-0.5-1.3-1.5-1.3-2.6c0-2.1,1.7-3.5,3.7-3.5c0.5,0,1,0.1,1.4,0.3h3.4v1.3h-2c0.5,0.5,0.8,1.2,0.8,2
							c0,2.1-1.6,3.4-3.6,3.4c-0.5,0-1-0.1-1.5-0.3c-0.4,0.3-0.6,0.6-0.6,1.2c0,0.6,0.4,1.1,1.7,1.1h1.9c2.3,0,3.4,0.7,3.4,2.3
							c0,1.8-1.9,3.4-4.9,3.4C694.7,138.5,693.1,137.6,693.1,135.9z M700.5,135.4c0-0.9-0.7-1.2-2-1.2h-1.7c-0.4,0-0.8-0.1-1.3-0.2
							c-0.7,0.5-1,1.1-1,1.7c0,1,1.1,1.7,2.8,1.7C699.2,137.4,700.5,136.4,700.5,135.4z M699.2,127.5c0-1.4-0.9-2.3-2.1-2.3
							s-2.1,0.8-2.1,2.3c0,1.4,1,2.3,2.1,2.3C698.2,129.8,699.2,128.9,699.2,127.5z"/>
						<path class="st2" d="M703.9,132.1v-12.4h1.6v12.5c0,0.5,0.2,0.7,0.5,0.7c0.1,0,0.2,0,0.3,0l0.2,1.3c-0.2,0.1-0.5,0.1-1,0.1
							C704.4,134.2,703.9,133.4,703.9,132.1z"/>
						<path class="st2" d="M708.3,129.1c0-3.3,2.1-5.1,4.5-5.1s4.5,1.9,4.5,5.1c0,3.2-2.1,5.1-4.5,5.1S708.3,132.4,708.3,129.1z
							 M715.7,129.1c0-2.2-1.2-3.8-2.8-3.8c-1.7,0-2.8,1.5-2.8,3.8c0,2.3,1.1,3.7,2.8,3.7C714.6,132.9,715.7,131.4,715.7,129.1z"/>
						<path class="st2" d="M721.5,133L721.5,133l-0.2,1H720v-14.3h1.6v3.9l-0.1,1.8c0.9-0.8,2-1.4,3.1-1.4c2.5,0,3.9,2,3.9,5
							c0,3.4-2,5.3-4.2,5.3C723.4,134.2,722.4,133.8,721.5,133z M726.8,129c0-2.2-0.7-3.6-2.6-3.6c-0.8,0-1.7,0.5-2.6,1.4v5.1
							c0.9,0.8,1.7,1,2.4,1C725.6,132.9,726.8,131.4,726.8,129z"/>
						<path class="st2" d="M730.2,131.5c0-2.1,1.9-3.2,6-3.7c0-1.3-0.4-2.5-2-2.5c-1.1,0-2.2,0.5-2.9,1l-0.6-1.1
							c0.9-0.6,2.3-1.3,3.9-1.3c2.4,0,3.4,1.6,3.4,4v6h-1.4l-0.1-1.2h-0.1c-0.9,0.8-2,1.4-3.2,1.4
							C731.4,134.2,730.2,133.2,730.2,131.5z M736.2,131.6v-2.7c-3.3,0.4-4.4,1.2-4.4,2.5c0,1.1,0.8,1.6,1.7,1.6
							C734.5,132.9,735.3,132.5,736.2,131.6z"/>
						<path class="st2" d="M741,132.1v-12.4h1.6v12.5c0,0.5,0.2,0.7,0.5,0.7c0.1,0,0.2,0,0.3,0l0.2,1.3c-0.2,0.1-0.5,0.1-1,0.1
							C741.5,134.2,741,133.4,741,132.1z"/>
						<path class="st2" d="M749.4,129.1c0-3.3,2.2-5.1,4.7-5.1c1.3,0,2.2,0.5,2.9,1.2l-0.8,1.1c-0.6-0.5-1.2-0.9-2-0.9
							c-1.8,0-3.1,1.5-3.1,3.8c0,2.3,1.2,3.7,3,3.7c0.9,0,1.7-0.4,2.3-1l0.7,1.1c-0.9,0.8-2,1.2-3.2,1.2
							C751.4,134.2,749.4,132.4,749.4,129.1z"/>
						<path class="st2" d="M758.1,129.1c0-3.3,2.1-5.1,4.5-5.1s4.5,1.9,4.5,5.1c0,3.2-2.1,5.1-4.5,5.1S758.1,132.4,758.1,129.1z
							 M765.5,129.1c0-2.2-1.2-3.8-2.8-3.8c-1.7,0-2.8,1.5-2.8,3.8c0,2.3,1.1,3.7,2.8,3.7C764.4,132.9,765.5,131.4,765.5,129.1z"/>
						<path class="st2" d="M769.8,124.2h1.4l0.1,1.4h0.1c0.8-0.9,1.9-1.7,3-1.7c1.5,0,2.3,0.7,2.7,1.9c1-1.1,2-1.9,3.2-1.9
							c2,0,3,1.3,3,3.8v6.2h-1.6v-6c0-1.8-0.6-2.6-1.8-2.6c-0.8,0-1.5,0.5-2.5,1.5v7.1h-1.6v-6c0-1.8-0.6-2.6-1.8-2.6
							c-0.7,0-1.6,0.5-2.5,1.5v7.1h-1.6V124.2z"/>
						<path class="st2" d="M786.4,124.2h1.4l0.1,1.1h0.1c0.9-0.7,2-1.4,3.1-1.4c2.5,0,3.9,2,3.9,5c0,3.3-2,5.3-4.2,5.3
							c-0.9,0-1.8-0.4-2.7-1.1l0,1.7v3.3h-1.6V124.2z M793.3,129c0-2.2-0.7-3.6-2.6-3.6c-0.8,0-1.7,0.5-2.6,1.4v5.1
							c0.9,0.8,1.7,1,2.4,1C792.1,132.9,793.3,131.4,793.3,129z"/>
						<path class="st2" d="M796.9,129.1c0-3.2,2.1-5.1,4.4-5.1c2.5,0,3.9,1.8,3.9,4.6c0,0.4,0,0.7-0.1,0.9h-6.6
							c0.1,2.1,1.4,3.4,3.2,3.4c1,0,1.7-0.3,2.4-0.8l0.6,1.1c-0.9,0.6-1.9,1-3.2,1C798.9,134.2,796.9,132.3,796.9,129.1z
							 M803.7,128.3c0-2-0.9-3-2.4-3c-1.4,0-2.6,1.1-2.8,3H803.7z"/>
						<path class="st2" d="M807.7,131v-5.4h-1.5v-1.2l1.5-0.1l0.2-2.7h1.4v2.7h2.6v1.3h-2.6v5.5c0,1.2,0.4,1.9,1.5,1.9
							c0.3,0,0.8-0.1,1.1-0.3l0.3,1.2c-0.6,0.2-1.2,0.4-1.8,0.4C808.4,134.2,807.7,132.9,807.7,131z"/>
						<path class="st2" d="M813.9,121.1c0-0.7,0.5-1.1,1.1-1.1s1.1,0.4,1.1,1.1c0,0.6-0.5,1.1-1.1,1.1S813.9,121.8,813.9,121.1z
							 M814.2,124.2h1.6v9.8h-1.6V124.2z"/>
						<path class="st2" d="M819.4,131v-5.4h-1.5v-1.2l1.5-0.1l0.2-2.7h1.4v2.7h2.6v1.3H821v5.5c0,1.2,0.4,1.9,1.5,1.9
							c0.3,0,0.8-0.1,1.1-0.3l0.3,1.2c-0.6,0.2-1.2,0.4-1.8,0.4C820.1,134.2,819.4,132.9,819.4,131z"/>
						<path class="st2" d="M825.6,121.1c0-0.7,0.5-1.1,1.1-1.1s1.1,0.4,1.1,1.1c0,0.6-0.5,1.1-1.1,1.1S825.6,121.8,825.6,121.1z
							 M825.9,124.2h1.6v9.8h-1.6V124.2z"/>
						<path class="st2" d="M829.4,124.2h1.7l1.8,5.6c0.3,1,0.6,2,0.9,2.9h0.1c0.3-0.9,0.6-1.9,0.9-2.9l1.9-5.6h1.6l-3.5,9.8h-1.9
							L829.4,124.2z"/>
						<path class="st2" d="M839.4,129.1c0-3.2,2.1-5.1,4.4-5.1c2.5,0,3.9,1.8,3.9,4.6c0,0.4,0,0.7-0.1,0.9H841
							c0.1,2.1,1.4,3.4,3.2,3.4c1,0,1.7-0.3,2.4-0.8l0.6,1.1c-0.9,0.6-1.9,1-3.2,1C841.5,134.2,839.4,132.3,839.4,129.1z
							 M846.3,128.3c0-2-0.9-3-2.4-3c-1.4,0-2.6,1.1-2.8,3H846.3z"/>
						<path class="st2" d="M850.1,124.2h1.4l0.1,1.4h0.1c0.9-0.9,1.9-1.7,3.3-1.7c2.1,0,3,1.3,3,3.8v6.2h-1.6v-6
							c0-1.8-0.6-2.6-1.9-2.6c-1,0-1.7,0.5-2.7,1.5v7.1h-1.6V124.2z"/>
						<path class="st2" d="M860.4,129.1c0-3.2,2.1-5.1,4.4-5.1c2.5,0,3.9,1.8,3.9,4.6c0,0.4,0,0.7-0.1,0.9H862
							c0.1,2.1,1.4,3.4,3.2,3.4c1,0,1.7-0.3,2.4-0.8l0.6,1.1c-0.9,0.6-1.9,1-3.2,1C862.5,134.2,860.4,132.3,860.4,129.1z
							 M867.2,128.3c0-2-0.9-3-2.4-3c-1.4,0-2.6,1.1-2.8,3H867.2z"/>
						<path class="st2" d="M870,132.9l0.8-1.1c0.8,0.7,1.7,1.2,2.9,1.2c1.3,0,1.9-0.7,1.9-1.5c0-1-1.2-1.4-2.2-1.9
							c-1.4-0.5-2.9-1.2-2.9-2.8c0-1.5,1.2-2.8,3.4-2.8c1.2,0,2.3,0.5,3,1.1l-0.8,1.1c-0.7-0.5-1.4-0.9-2.3-0.9
							c-1.2,0-1.8,0.6-1.8,1.4c0,0.9,1.1,1.3,2.2,1.7c1.4,0.5,3,1.1,3,3c0,1.6-1.3,2.9-3.6,2.9C872.3,134.2,870.9,133.7,870,132.9z"
							/>
						<path class="st2" d="M878.4,132.9l0.8-1.1c0.8,0.7,1.7,1.2,2.9,1.2c1.3,0,1.9-0.7,1.9-1.5c0-1-1.2-1.4-2.2-1.9
							c-1.4-0.5-2.9-1.2-2.9-2.8c0-1.5,1.2-2.8,3.4-2.8c1.2,0,2.3,0.5,3,1.1l-0.8,1.1c-0.7-0.5-1.4-0.9-2.3-0.9
							c-1.2,0-1.8,0.6-1.8,1.4c0,0.9,1.1,1.3,2.2,1.7c1.4,0.5,3,1.1,3,3c0,1.6-1.3,2.9-3.6,2.9C880.7,134.2,879.4,133.7,878.4,132.9
							z"/>
					</g>
					<text transform="matrix(1 0 0 1 886.2809 134)" class="st2 st5 st6"> </text>
					<g class="st1">
						<path class="st2" d="M53.8,163.3h4.6v1.3h-4.6V163.3z"/>
						<path class="st2" d="M65,163.5v-7.7h1.7v7.8c0,3.2,1.4,4.2,3.1,4.2c1.8,0,3.2-1,3.2-4.2v-7.8h1.6v7.7c0,4.2-2.1,5.7-4.8,5.7
							C67.1,169.2,65,167.8,65,163.5z"/>
						<path class="st2" d="M78.2,166v-5.4h-1.5v-1.2l1.5-0.1l0.2-2.7h1.4v2.7h2.6v1.3h-2.6v5.5c0,1.2,0.4,1.9,1.5,1.9
							c0.3,0,0.8-0.1,1.1-0.3l0.3,1.2c-0.6,0.2-1.2,0.4-1.8,0.4C78.9,169.2,78.2,167.9,78.2,166z"/>
						<path class="st2" d="M84.4,156.1c0-0.7,0.5-1.1,1.1-1.1c0.6,0,1.1,0.4,1.1,1.1c0,0.6-0.5,1.1-1.1,1.1
							C84.9,157.2,84.4,156.8,84.4,156.1z M84.7,159.2h1.6v9.8h-1.6V159.2z"/>
						<path class="st2" d="M89.6,167.1v-12.4h1.6v12.5c0,0.5,0.2,0.7,0.5,0.7c0.1,0,0.2,0,0.3,0l0.2,1.3c-0.2,0.1-0.5,0.1-1,0.1
							C90.2,169.2,89.6,168.4,89.6,167.1z"/>
						<path class="st2" d="M94.5,156.1c0-0.7,0.5-1.1,1.1-1.1c0.6,0,1.1,0.4,1.1,1.1c0,0.6-0.5,1.1-1.1,1.1
							C95,157.2,94.5,156.8,94.5,156.1z M94.8,159.2h1.6v9.8h-1.6V159.2z"/>
						<path class="st2" d="M98.7,168.1l5.1-7.6h-4.6v-1.3h6.7v0.9l-5.1,7.6h5.3v1.3h-7.4V168.1z"/>
						<path class="st2" d="M107.3,164.1c0-3.2,2.1-5.1,4.4-5.1c2.5,0,3.9,1.8,3.9,4.6c0,0.4,0,0.7-0.1,0.9H109
							c0.1,2.1,1.4,3.4,3.2,3.4c1,0,1.7-0.3,2.4-0.8l0.6,1.1c-0.9,0.6-1.9,1-3.2,1C109.4,169.2,107.3,167.3,107.3,164.1z
							 M114.2,163.3c0-2-0.9-3-2.4-3c-1.4,0-2.6,1.1-2.8,3H114.2z"/>
						<path class="st2" d="M123.6,168L123.6,168l-0.2,1h-1.3v-14.3h1.6v3.9l-0.1,1.8c0.9-0.8,2-1.4,3.1-1.4c2.5,0,3.9,2,3.9,5
							c0,3.4-2,5.3-4.2,5.3C125.5,169.2,124.4,168.8,123.6,168z M128.9,164c0-2.2-0.7-3.6-2.6-3.6c-0.8,0-1.7,0.5-2.6,1.4v5.1
							c0.9,0.8,1.7,1,2.4,1C127.7,167.9,128.9,166.4,128.9,164z"/>
						<path class="st2" d="M132.9,156.1c0-0.7,0.5-1.1,1.1-1.1c0.6,0,1.1,0.4,1.1,1.1c0,0.6-0.5,1.1-1.1,1.1
							C133.4,157.2,132.9,156.8,132.9,156.1z M133.2,159.2h1.6v9.8h-1.6V159.2z"/>
						<path class="st2" d="M137.4,170.9c0-0.8,0.5-1.6,1.5-2.2v-0.1c-0.5-0.3-0.9-0.8-0.9-1.6c0-0.8,0.6-1.5,1.1-1.8v-0.1
							c-0.6-0.5-1.3-1.5-1.3-2.6c0-2.1,1.7-3.5,3.7-3.5c0.5,0,1,0.1,1.4,0.3h3.4v1.3h-2c0.5,0.5,0.8,1.2,0.8,2
							c0,2.1-1.6,3.4-3.6,3.4c-0.5,0-1-0.1-1.5-0.3c-0.4,0.3-0.6,0.6-0.6,1.2c0,0.6,0.4,1.1,1.7,1.1h1.9c2.3,0,3.4,0.7,3.4,2.3
							c0,1.8-1.9,3.4-4.9,3.4C139,173.5,137.4,172.6,137.4,170.9z M144.8,170.4c0-0.9-0.7-1.2-2-1.2h-1.7c-0.4,0-0.8-0.1-1.3-0.2
							c-0.7,0.5-1,1.1-1,1.7c0,1,1.1,1.7,2.8,1.7C143.5,172.4,144.8,171.4,144.8,170.4z M143.5,162.5c0-1.4-0.9-2.3-2.1-2.3
							s-2.1,0.8-2.1,2.3c0,1.4,1,2.3,2.1,2.3C142.6,164.8,143.5,163.9,143.5,162.5z"/>
						<path class="st2" d="M151.6,164.1c0-3.2,2-5.1,4.2-5.1c1.2,0,1.9,0.4,2.8,1.2l-0.1-1.7v-3.8h1.6V169h-1.3l-0.2-1.2h0
							c-0.8,0.8-1.8,1.4-3,1.4C153.2,169.2,151.6,167.4,151.6,164.1z M158.5,166.5v-5.1c-0.8-0.7-1.6-1-2.4-1
							c-1.6,0-2.8,1.5-2.8,3.7c0,2.4,1,3.8,2.7,3.8C156.9,167.9,157.7,167.4,158.5,166.5z"/>
						<path class="st2" d="M162.9,166.5c0-2.1,1.9-3.2,6-3.7c0-1.3-0.4-2.5-2-2.5c-1.1,0-2.2,0.5-2.9,1l-0.6-1.1
							c0.9-0.6,2.3-1.3,3.9-1.3c2.4,0,3.4,1.6,3.4,4v6h-1.4l-0.1-1.2H169c-0.9,0.8-2,1.4-3.2,1.4
							C164.1,169.2,162.9,168.2,162.9,166.5z M168.9,166.6v-2.7c-3.3,0.4-4.4,1.2-4.4,2.5c0,1.1,0.8,1.6,1.7,1.6
							C167.1,167.9,167.9,167.5,168.9,166.6z"/>
						<path class="st2" d="M173.6,166v-5.4h-1.5v-1.2l1.5-0.1l0.2-2.7h1.4v2.7h2.6v1.3h-2.6v5.5c0,1.2,0.4,1.9,1.5,1.9
							c0.3,0,0.8-0.1,1.1-0.3l0.3,1.2c-0.6,0.2-1.2,0.4-1.8,0.4C174.3,169.2,173.6,167.9,173.6,166z"/>
						<path class="st2" d="M179.1,166.5c0-2.1,1.9-3.2,6-3.7c0-1.3-0.4-2.5-2-2.5c-1.1,0-2.2,0.5-2.9,1l-0.6-1.1
							c0.9-0.6,2.3-1.3,3.9-1.3c2.4,0,3.4,1.6,3.4,4v6h-1.4l-0.1-1.2h-0.1c-0.9,0.8-2,1.4-3.2,1.4
							C180.3,169.2,179.1,168.2,179.1,166.5z M185.1,166.6v-2.7c-3.3,0.4-4.4,1.2-4.4,2.5c0,1.1,0.8,1.6,1.7,1.6
							C183.4,167.9,184.1,167.5,185.1,166.6z"/>
						<path class="st2" d="M194.2,166v-5.4h-1.5v-1.2l1.5-0.1l0.2-2.7h1.4v2.7h2.6v1.3h-2.6v5.5c0,1.2,0.4,1.9,1.5,1.9
							c0.3,0,0.8-0.1,1.1-0.3l0.3,1.2c-0.6,0.2-1.2,0.4-1.8,0.4C194.9,169.2,194.2,167.9,194.2,166z"/>
						<path class="st2" d="M199.7,164.1c0-3.3,2.1-5.1,4.5-5.1s4.5,1.9,4.5,5.1c0,3.2-2.1,5.1-4.5,5.1S199.7,167.4,199.7,164.1z
							 M207,164.1c0-2.2-1.2-3.8-2.8-3.8s-2.8,1.5-2.8,3.8c0,2.3,1.1,3.7,2.8,3.7S207,166.4,207,164.1z"/>
						<path class="st2" d="M215,156.1c0-0.7,0.5-1.1,1.1-1.1c0.6,0,1.1,0.4,1.1,1.1c0,0.6-0.5,1.1-1.1,1.1
							C215.5,157.2,215,156.8,215,156.1z M215.3,159.2h1.6v9.8h-1.6V159.2z"/>
						<path class="st2" d="M219.6,164.1c0-3.2,2-5.1,4.2-5.1c1.2,0,1.9,0.4,2.8,1.2l-0.1-1.7v-3.8h1.6V169h-1.3l-0.2-1.2h0
							c-0.8,0.8-1.8,1.4-3,1.4C221.2,169.2,219.6,167.4,219.6,164.1z M226.5,166.5v-5.1c-0.8-0.7-1.6-1-2.4-1
							c-1.6,0-2.8,1.5-2.8,3.7c0,2.4,1,3.8,2.7,3.8C224.9,167.9,225.7,167.4,226.5,166.5z"/>
						<path class="st2" d="M230.7,164.1c0-3.2,2.1-5.1,4.4-5.1c2.5,0,3.9,1.8,3.9,4.6c0,0.4,0,0.7-0.1,0.9h-6.6
							c0.1,2.1,1.4,3.4,3.2,3.4c1,0,1.7-0.3,2.4-0.8l0.6,1.1c-0.9,0.6-1.9,1-3.2,1C232.8,169.2,230.7,167.3,230.7,164.1z
							 M237.6,163.3c0-2-0.9-3-2.4-3c-1.4,0-2.6,1.1-2.8,3H237.6z"/>
						<path class="st2" d="M241.4,159.2h1.4l0.1,1.4h0.1c0.9-0.9,1.9-1.7,3.3-1.7c2.1,0,3,1.3,3,3.8v6.2h-1.6v-6
							c0-1.8-0.6-2.6-1.9-2.6c-1,0-1.7,0.5-2.7,1.5v7.1h-1.6V159.2z"/>
						<path class="st2" d="M252.7,166v-5.4h-1.5v-1.2l1.5-0.1l0.2-2.7h1.4v2.7h2.6v1.3h-2.6v5.5c0,1.2,0.4,1.9,1.5,1.9
							c0.3,0,0.8-0.1,1.1-0.3l0.3,1.2c-0.6,0.2-1.2,0.4-1.8,0.4C253.4,169.2,252.7,167.9,252.7,166z"/>
						<path class="st2" d="M258.9,156.1c0-0.7,0.5-1.1,1.1-1.1c0.6,0,1.1,0.4,1.1,1.1c0,0.6-0.5,1.1-1.1,1.1
							C259.4,157.2,258.9,156.8,258.9,156.1z M259.2,159.2h1.6v9.8h-1.6V159.2z"/>
						<path class="st2" d="M268.5,156c-0.4-0.2-0.8-0.3-1.1-0.3c-0.9,0-1.4,0.7-1.4,1.9v1.5h2.1v1.3h-2.1v8.4h-1.6v-8.4h-1.3v-1.2
							l1.3-0.1v-1.6c0-2,0.9-3.2,2.8-3.2c0.6,0,1.2,0.1,1.6,0.3L268.5,156z"/>
						<path class="st2" d="M269,173l0.3-1.3c0.2,0.1,0.5,0.2,0.7,0.2c1.1,0,1.8-0.9,2.2-2.1l0.2-0.7l-3.9-9.8h1.7l2,5.4
							c0.3,0.8,0.6,1.9,0.9,2.7h0.1c0.3-0.9,0.6-1.9,0.8-2.7l1.7-5.4h1.6l-3.7,10.6c-0.7,1.9-1.7,3.4-3.6,3.4
							C269.7,173.2,269.3,173.1,269,173z"/>
						<path class="st2" d="M283.6,155.8h2l2.5,7.1c0.3,0.9,0.6,1.8,0.9,2.8h0.1c0.3-0.9,0.6-1.8,0.9-2.8l2.5-7.1h2V169H293v-7.3
							c0-1.1,0.1-2.7,0.2-3.9h-0.1l-1,3l-2.5,6.9h-1.1l-2.5-6.9l-1-3h-0.1c0.1,1.2,0.2,2.8,0.2,3.9v7.3h-1.5V155.8z"/>
						<path class="st2" d="M297.9,165.4v-6.2h1.6v6c0,1.8,0.5,2.6,1.8,2.6c1,0,1.7-0.5,2.6-1.7v-6.9h1.6v9.8h-1.4l-0.1-1.5h-0.1
							c-0.9,1.1-1.9,1.8-3.2,1.8C298.8,169.2,297.9,167.9,297.9,165.4z"/>
						<path class="st2" d="M309,167.1v-12.4h1.6v12.5c0,0.5,0.2,0.7,0.5,0.7c0.1,0,0.2,0,0.3,0l0.2,1.3c-0.2,0.1-0.5,0.1-1,0.1
							C309.5,169.2,309,168.4,309,167.1z"/>
						<path class="st2" d="M314.4,166v-5.4h-1.5v-1.2l1.5-0.1l0.2-2.7h1.4v2.7h2.6v1.3H316v5.5c0,1.2,0.4,1.9,1.5,1.9
							c0.3,0,0.8-0.1,1.1-0.3l0.3,1.2c-0.6,0.2-1.2,0.4-1.8,0.4C315.1,169.2,314.4,167.9,314.4,166z"/>
						<path class="st2" d="M320.6,156.1c0-0.7,0.5-1.1,1.1-1.1c0.6,0,1.1,0.4,1.1,1.1c0,0.6-0.5,1.1-1.1,1.1
							C321.1,157.2,320.6,156.8,320.6,156.1z M320.9,159.2h1.6v9.8h-1.6V159.2z"/>
						<path class="st2" d="M325,163.3h4.6v1.3H325V163.3z"/>
						<path class="st2" d="M331.5,162.4c0-4.3,2.5-6.9,5.9-6.9c1.6,0,2.9,0.8,3.6,1.6l-0.9,1.1c-0.7-0.7-1.6-1.3-2.7-1.3
							c-2.5,0-4.2,2.1-4.2,5.3c0,3.3,1.6,5.4,4.1,5.4c1.3,0,2.2-0.6,3.1-1.5l0.9,1c-1,1.2-2.3,1.9-4.1,1.9
							C333.9,169.2,331.5,166.7,331.5,162.4z"/>
						<path class="st2" d="M342.8,164.1c0-3.3,2.1-5.1,4.5-5.1c2.4,0,4.5,1.9,4.5,5.1c0,3.2-2.1,5.1-4.5,5.1
							C345,169.2,342.8,167.4,342.8,164.1z M350.2,164.1c0-2.2-1.2-3.8-2.8-3.8s-2.8,1.5-2.8,3.8c0,2.3,1.1,3.7,2.8,3.7
							S350.2,166.4,350.2,164.1z"/>
						<path class="st2" d="M354.5,159.2h1.4l0.1,1.4h0.1c0.8-0.9,1.9-1.7,3-1.7c1.5,0,2.3,0.7,2.7,1.9c1-1.1,2-1.9,3.2-1.9
							c2,0,3,1.3,3,3.8v6.2h-1.6v-6c0-1.8-0.6-2.6-1.8-2.6c-0.8,0-1.5,0.5-2.5,1.5v7.1h-1.6v-6c0-1.8-0.6-2.6-1.8-2.6
							c-0.7,0-1.6,0.5-2.5,1.5v7.1h-1.6V159.2z"/>
						<path class="st2" d="M371.1,159.2h1.4l0.1,1.1h0.1c0.9-0.7,2-1.4,3.1-1.4c2.5,0,3.9,2,3.9,5c0,3.3-2,5.3-4.2,5.3
							c-0.9,0-1.8-0.4-2.7-1.1l0,1.7v3.3h-1.6V159.2z M378,164c0-2.2-0.7-3.6-2.6-3.6c-0.8,0-1.7,0.5-2.6,1.4v5.1
							c0.9,0.8,1.7,1,2.4,1C376.8,167.9,378,166.4,378,164z"/>
						<path class="st2" d="M381.6,164.1c0-3.3,2.1-5.1,4.5-5.1c2.4,0,4.5,1.9,4.5,5.1c0,3.2-2.1,5.1-4.5,5.1
							C383.7,169.2,381.6,167.4,381.6,164.1z M388.9,164.1c0-2.2-1.2-3.8-2.8-3.8s-2.8,1.5-2.8,3.8c0,2.3,1.1,3.7,2.8,3.7
							S388.9,166.4,388.9,164.1z"/>
						<path class="st2" d="M393.2,159.2h1.4l0.1,1.4h0.1c0.9-0.9,1.9-1.7,3.3-1.7c2.1,0,3,1.3,3,3.8v6.2h-1.6v-6
							c0-1.8-0.6-2.6-1.9-2.6c-1,0-1.7,0.5-2.7,1.5v7.1h-1.6V159.2z"/>
						<path class="st2" d="M403.5,164.1c0-3.2,2.1-5.1,4.4-5.1c2.5,0,3.9,1.8,3.9,4.6c0,0.4,0,0.7-0.1,0.9h-6.6
							c0.1,2.1,1.4,3.4,3.2,3.4c1,0,1.7-0.3,2.4-0.8l0.6,1.1c-0.9,0.6-1.9,1-3.2,1C405.5,169.2,403.5,167.3,403.5,164.1z
							 M410.3,163.3c0-2-0.9-3-2.4-3c-1.4,0-2.6,1.1-2.8,3H410.3z"/>
						<path class="st2" d="M414.2,159.2h1.4l0.1,1.4h0.1c0.9-0.9,1.9-1.7,3.3-1.7c2.1,0,3,1.3,3,3.8v6.2h-1.6v-6
							c0-1.8-0.6-2.6-1.9-2.6c-1,0-1.7,0.5-2.7,1.5v7.1h-1.6V159.2z"/>
						<path class="st2" d="M425.5,166v-5.4H424v-1.2l1.5-0.1l0.2-2.7h1.4v2.7h2.6v1.3h-2.6v5.5c0,1.2,0.4,1.9,1.5,1.9
							c0.3,0,0.8-0.1,1.1-0.3l0.3,1.2c-0.6,0.2-1.2,0.4-1.8,0.4C426.2,169.2,425.5,167.9,425.5,166z"/>
						<path class="st2" d="M436.1,154.7h1.2l-5.4,17.5h-1.2L436.1,154.7z"/>
						<path class="st2" d="M439.3,155.8h2l2.5,7.1c0.3,0.9,0.6,1.8,0.9,2.8h0.1c0.3-0.9,0.6-1.8,0.9-2.8l2.5-7.1h2V169h-1.6v-7.3
							c0-1.1,0.1-2.7,0.2-3.9h-0.1l-1,3l-2.5,6.9h-1.1l-2.5-6.9l-1-3h-0.1c0.1,1.2,0.2,2.8,0.2,3.9v7.3h-1.5V155.8z"/>
						<path class="st2" d="M453.7,165.4v-6.2h1.6v6c0,1.8,0.5,2.6,1.8,2.6c1,0,1.7-0.5,2.6-1.7v-6.9h1.6v9.8h-1.4l-0.1-1.5h-0.1
							c-0.9,1.1-1.9,1.8-3.2,1.8C454.6,169.2,453.7,167.9,453.7,165.4z"/>
						<path class="st2" d="M464.7,167.1v-12.4h1.6v12.5c0,0.5,0.2,0.7,0.5,0.7c0.1,0,0.2,0,0.3,0l0.2,1.3c-0.2,0.1-0.5,0.1-1,0.1
							C465.2,169.2,464.7,168.4,464.7,167.1z"/>
						<path class="st2" d="M470.2,166v-5.4h-1.5v-1.2l1.5-0.1l0.2-2.7h1.4v2.7h2.6v1.3h-2.6v5.5c0,1.2,0.4,1.9,1.5,1.9
							c0.3,0,0.8-0.1,1.1-0.3l0.3,1.2c-0.6,0.2-1.2,0.4-1.8,0.4C470.9,169.2,470.2,167.9,470.2,166z"/>
						<path class="st2" d="M476.4,156.1c0-0.7,0.5-1.1,1.1-1.1c0.6,0,1.1,0.4,1.1,1.1c0,0.6-0.5,1.1-1.1,1.1
							C476.8,157.2,476.4,156.8,476.4,156.1z M476.7,159.2h1.6v9.8h-1.6V159.2z"/>
						<path class="st2" d="M480.8,163.3h4.6v1.3h-4.6V163.3z"/>
						<path class="st2" d="M489.8,157.2h-4v-1.4h9.7v1.4h-4V169h-1.7V157.2z"/>
						<path class="st2" d="M495.6,166.5c0-2.1,1.9-3.2,6-3.7c0-1.3-0.4-2.5-2-2.5c-1.1,0-2.2,0.5-2.9,1l-0.6-1.1
							c0.9-0.6,2.3-1.3,3.9-1.3c2.4,0,3.4,1.6,3.4,4v6h-1.4l-0.1-1.2h-0.1c-0.9,0.8-2,1.4-3.2,1.4
							C496.8,169.2,495.6,168.2,495.6,166.5z M501.6,166.6v-2.7c-3.3,0.4-4.4,1.2-4.4,2.5c0,1.1,0.8,1.6,1.7,1.6
							C499.9,167.9,500.7,167.5,501.6,166.6z"/>
						<path class="st2" d="M506.4,159.2h1.3l0.1,1.8h0.1c0.7-1.2,1.7-2,2.8-2c0.4,0,0.7,0.1,1,0.2l-0.3,1.4c-0.3-0.1-0.6-0.2-1-0.2
							c-0.8,0-1.8,0.6-2.5,2.2v6.3h-1.6V159.2z"/>
						<path class="st2" d="M512.4,170.9c0-0.8,0.5-1.6,1.5-2.2v-0.1c-0.5-0.3-0.9-0.8-0.9-1.6c0-0.8,0.6-1.5,1.1-1.8v-0.1
							c-0.6-0.5-1.3-1.5-1.3-2.6c0-2.1,1.7-3.5,3.7-3.5c0.5,0,1,0.1,1.4,0.3h3.4v1.3h-2c0.5,0.5,0.8,1.2,0.8,2
							c0,2.1-1.6,3.4-3.6,3.4c-0.5,0-1-0.1-1.5-0.3c-0.4,0.3-0.6,0.6-0.6,1.2c0,0.6,0.4,1.1,1.7,1.1h1.9c2.3,0,3.4,0.7,3.4,2.3
							c0,1.8-1.9,3.4-4.9,3.4C514.1,173.5,512.4,172.6,512.4,170.9z M519.8,170.4c0-0.9-0.7-1.2-2-1.2h-1.7c-0.4,0-0.8-0.1-1.3-0.2
							c-0.7,0.5-1,1.1-1,1.7c0,1,1.1,1.7,2.8,1.7C518.6,172.4,519.8,171.4,519.8,170.4z M518.5,162.5c0-1.4-0.9-2.3-2.1-2.3
							s-2.1,0.8-2.1,2.3c0,1.4,1,2.3,2.1,2.3C517.6,164.8,518.5,163.9,518.5,162.5z"/>
						<path class="st2" d="M522.3,164.1c0-3.2,2.1-5.1,4.4-5.1c2.5,0,3.9,1.8,3.9,4.6c0,0.4,0,0.7-0.1,0.9h-6.6
							c0.1,2.1,1.4,3.4,3.2,3.4c1,0,1.7-0.3,2.4-0.8l0.6,1.1c-0.9,0.6-1.9,1-3.2,1C524.4,169.2,522.3,167.3,522.3,164.1z
							 M529.2,163.3c0-2-0.9-3-2.4-3c-1.4,0-2.6,1.1-2.8,3H529.2z"/>
						<path class="st2" d="M533.1,166v-5.4h-1.5v-1.2l1.5-0.1l0.2-2.7h1.4v2.7h2.6v1.3h-2.6v5.5c0,1.2,0.4,1.9,1.5,1.9
							c0.3,0,0.8-0.1,1.1-0.3l0.3,1.2c-0.6,0.2-1.2,0.4-1.8,0.4C533.8,169.2,533.1,167.9,533.1,166z"/>
						<path class="st2" d="M543.6,163.4c0-3.5,1-6.4,2.6-9.1l1,0.5c-1.6,2.6-2.3,5.6-2.3,8.7s0.7,6.1,2.3,8.7l-1,0.5
							C544.6,169.8,543.6,166.9,543.6,163.4z"/>
						<path class="st2" d="M549.8,155.8h2l2.5,7.1c0.3,0.9,0.6,1.8,0.9,2.8h0.1c0.3-0.9,0.6-1.8,0.9-2.8l2.5-7.1h2V169h-1.6v-7.3
							c0-1.1,0.1-2.7,0.2-3.9h-0.1l-1,3l-2.5,6.9h-1.1l-2.5-6.9l-1-3h-0.1c0.1,1.2,0.2,2.8,0.2,3.9v7.3h-1.5V155.8z"/>
						<path class="st2" d="M563.7,162.4c0-4.3,2.5-6.9,5.9-6.9c1.6,0,2.9,0.8,3.6,1.6l-0.9,1.1c-0.7-0.7-1.6-1.3-2.7-1.3
							c-2.5,0-4.2,2.1-4.2,5.3c0,3.3,1.6,5.4,4.1,5.4c1.3,0,2.2-0.6,3.1-1.5l0.9,1c-1,1.2-2.3,1.9-4.1,1.9
							C566.2,169.2,563.7,166.7,563.7,162.4z"/>
						<path class="st2" d="M579.7,154.7h1.2l-5.4,17.5h-1.2L579.7,154.7z"/>
						<path class="st2" d="M583,155.8h2l2.5,7.1c0.3,0.9,0.6,1.8,0.9,2.8h0.1c0.3-0.9,0.6-1.8,0.9-2.8l2.5-7.1h2V169h-1.6v-7.3
							c0-1.1,0.1-2.7,0.2-3.9h-0.1l-1,3l-2.5,6.9h-1.1l-2.5-6.9l-1-3h-0.1c0.1,1.2,0.2,2.8,0.2,3.9v7.3H583V155.8z"/>
						<path class="st2" d="M600.4,157.2h-4v-1.4h9.7v1.4h-4V169h-1.7V157.2z"/>
						<path class="st2" d="M607.4,172.1c1.5-2.6,2.3-5.6,2.3-8.7s-0.8-6.1-2.3-8.7l1-0.5c1.7,2.7,2.7,5.6,2.7,9.1
							c0,3.5-1,6.4-2.7,9.1L607.4,172.1z"/>
						<path class="st2" d="M617.7,164.1c0-3.2,2-5.1,4.2-5.1c1.2,0,1.9,0.4,2.8,1.2l-0.1-1.7v-3.8h1.6V169h-1.3l-0.2-1.2h0
							c-0.8,0.8-1.8,1.4-3,1.4C619.3,169.2,617.7,167.4,617.7,164.1z M624.6,166.5v-5.1c-0.8-0.7-1.6-1-2.4-1
							c-1.6,0-2.8,1.5-2.8,3.7c0,2.4,1,3.8,2.7,3.8C623,167.9,623.8,167.4,624.6,166.5z"/>
						<path class="st2" d="M629.5,159.2h1.4l0.1,1.8h0.1c0.7-1.2,1.7-2,2.8-2c0.4,0,0.7,0.1,1,0.2l-0.3,1.4c-0.3-0.1-0.6-0.2-1-0.2
							c-0.8,0-1.8,0.6-2.5,2.2v6.3h-1.6V159.2z"/>
						<path class="st2" d="M636.4,165.4v-6.2h1.6v6c0,1.8,0.5,2.6,1.8,2.6c1,0,1.7-0.5,2.6-1.7v-6.9h1.6v9.8h-1.4l-0.1-1.5h-0.1
							c-0.9,1.1-1.9,1.8-3.2,1.8C637.3,169.2,636.4,167.9,636.4,165.4z"/>
						<path class="st2" d="M646.7,170.9c0-0.8,0.5-1.6,1.5-2.2v-0.1c-0.5-0.3-0.9-0.8-0.9-1.6c0-0.8,0.6-1.5,1.1-1.8v-0.1
							c-0.6-0.5-1.3-1.5-1.3-2.6c0-2.1,1.7-3.5,3.7-3.5c0.5,0,1,0.1,1.4,0.3h3.4v1.3h-2c0.5,0.5,0.8,1.2,0.8,2
							c0,2.1-1.6,3.4-3.6,3.4c-0.5,0-1-0.1-1.5-0.3c-0.4,0.3-0.6,0.6-0.6,1.2c0,0.6,0.4,1.1,1.7,1.1h1.9c2.3,0,3.4,0.7,3.4,2.3
							c0,1.8-1.9,3.4-4.9,3.4C648.3,173.5,646.7,172.6,646.7,170.9z M654.1,170.4c0-0.9-0.7-1.2-2-1.2h-1.7c-0.4,0-0.8-0.1-1.3-0.2
							c-0.7,0.5-1,1.1-1,1.7c0,1,1.1,1.7,2.8,1.7C652.8,172.4,654.1,171.4,654.1,170.4z M652.8,162.5c0-1.4-0.9-2.3-2.1-2.3
							s-2.1,0.8-2.1,2.3c0,1.4,1,2.3,2.1,2.3C651.9,164.8,652.8,163.9,652.8,162.5z"/>
						<path class="st2" d="M660.9,164.1c0-3.3,2.2-5.1,4.7-5.1c1.3,0,2.2,0.5,2.9,1.2l-0.8,1.1c-0.6-0.5-1.2-0.9-2-0.9
							c-1.8,0-3.1,1.5-3.1,3.8c0,2.3,1.2,3.7,3,3.7c0.9,0,1.7-0.4,2.3-1l0.7,1.1c-0.9,0.8-2,1.2-3.2,1.2
							C662.9,169.2,660.9,167.4,660.9,164.1z"/>
						<path class="st2" d="M670,166.5c0-2.1,1.9-3.2,6-3.7c0-1.3-0.4-2.5-2-2.5c-1.1,0-2.2,0.5-2.9,1l-0.6-1.1
							c0.9-0.6,2.3-1.3,3.9-1.3c2.4,0,3.4,1.6,3.4,4v6h-1.3l-0.1-1.2h-0.1c-0.9,0.8-2,1.4-3.2,1.4C671.2,169.2,670,168.2,670,166.5z
							 M676,166.6v-2.7c-3.3,0.4-4.4,1.2-4.4,2.5c0,1.1,0.8,1.6,1.7,1.6C674.2,167.9,675,167.5,676,166.6z"/>
						<path class="st2" d="M680.7,159.2h1.4l0.1,1.4h0.1c0.9-0.9,1.9-1.7,3.3-1.7c2.1,0,3,1.3,3,3.8v6.2h-1.6v-6
							c0-1.8-0.6-2.6-1.9-2.6c-1,0-1.7,0.5-2.7,1.5v7.1h-1.6V159.2z"/>
						<path class="st2" d="M691,164.1c0-3.2,2-5.1,4.2-5.1c1.2,0,1.9,0.4,2.8,1.2l-0.1-1.7v-3.8h1.6V169h-1.3l-0.2-1.2h0
							c-0.8,0.8-1.8,1.4-3,1.4C692.6,169.2,691,167.4,691,164.1z M697.9,166.5v-5.1c-0.8-0.7-1.6-1-2.4-1c-1.6,0-2.8,1.5-2.8,3.7
							c0,2.4,1,3.8,2.7,3.8C696.3,167.9,697.1,167.4,697.9,166.5z"/>
						<path class="st2" d="M702.6,156.1c0-0.7,0.5-1.1,1.1-1.1s1.1,0.4,1.1,1.1c0,0.6-0.5,1.1-1.1,1.1S702.6,156.8,702.6,156.1z
							 M702.9,159.2h1.6v9.8h-1.6V159.2z"/>
						<path class="st2" d="M707.1,164.1c0-3.2,2-5.1,4.2-5.1c1.2,0,1.9,0.4,2.8,1.2l-0.1-1.7v-3.8h1.6V169h-1.3l-0.2-1.2h0
							c-0.8,0.8-1.8,1.4-3,1.4C708.7,169.2,707.1,167.4,707.1,164.1z M714,166.5v-5.1c-0.8-0.7-1.6-1-2.4-1c-1.6,0-2.8,1.5-2.8,3.7
							c0,2.4,1,3.8,2.7,3.8C712.4,167.9,713.2,167.4,714,166.5z"/>
						<path class="st2" d="M718.4,166.5c0-2.1,1.9-3.2,6-3.7c0-1.3-0.4-2.5-2-2.5c-1.1,0-2.2,0.5-2.9,1l-0.6-1.1
							c0.9-0.6,2.3-1.3,3.9-1.3c2.4,0,3.4,1.6,3.4,4v6h-1.4l-0.1-1.2h-0.1c-0.9,0.8-2,1.4-3.2,1.4
							C719.6,169.2,718.4,168.2,718.4,166.5z M724.4,166.6v-2.7c-3.3,0.4-4.4,1.2-4.4,2.5c0,1.1,0.8,1.6,1.7,1.6
							C722.7,167.9,723.4,167.5,724.4,166.6z"/>
						<path class="st2" d="M729.2,166v-5.4h-1.5v-1.2l1.5-0.1l0.2-2.7h1.4v2.7h2.6v1.3h-2.6v5.5c0,1.2,0.4,1.9,1.5,1.9
							c0.3,0,0.8-0.1,1.1-0.3l0.3,1.2c-0.6,0.2-1.2,0.4-1.8,0.4C729.9,169.2,729.2,167.9,729.2,166z"/>
						<path class="st2" d="M734.7,164.1c0-3.2,2.1-5.1,4.4-5.1c2.5,0,3.9,1.8,3.9,4.6c0,0.4,0,0.7-0.1,0.9h-6.6
							c0.1,2.1,1.4,3.4,3.2,3.4c1,0,1.7-0.3,2.4-0.8l0.6,1.1c-0.9,0.6-1.9,1-3.2,1C736.7,169.2,734.7,167.3,734.7,164.1z
							 M741.5,163.3c0-2-0.9-3-2.4-3c-1.4,0-2.6,1.1-2.8,3H741.5z"/>
						<path class="st2" d="M744.3,167.9l0.8-1.1c0.8,0.7,1.7,1.2,2.9,1.2c1.3,0,1.9-0.7,1.9-1.5c0-1-1.2-1.4-2.2-1.9
							c-1.4-0.5-2.9-1.2-2.9-2.8c0-1.5,1.2-2.8,3.4-2.8c1.2,0,2.3,0.5,3,1.1l-0.8,1.1c-0.7-0.5-1.4-0.9-2.3-0.9
							c-1.2,0-1.8,0.6-1.8,1.4c0,0.9,1.1,1.3,2.2,1.7c1.4,0.5,3,1.1,3,3c0,1.6-1.3,2.9-3.6,2.9C746.5,169.2,745.2,168.7,744.3,167.9
							z"/>
						<path class="st2" d="M762.2,156c-0.4-0.2-0.8-0.3-1.1-0.3c-0.9,0-1.4,0.7-1.4,1.9v1.5h2.1v1.3h-2.1v8.4h-1.6v-8.4h-1.3v-1.2
							l1.3-0.1v-1.6c0-2,0.9-3.2,2.8-3.2c0.6,0,1.2,0.1,1.6,0.3L762.2,156z"/>
						<path class="st2" d="M763.7,159.2h1.4l0.1,1.8h0.1c0.7-1.2,1.7-2,2.8-2c0.4,0,0.7,0.1,1,0.2l-0.3,1.4c-0.3-0.1-0.6-0.2-1-0.2
							c-0.8,0-1.8,0.6-2.5,2.2v6.3h-1.6V159.2z"/>
						<path class="st2" d="M769.7,164.1c0-3.3,2.1-5.1,4.5-5.1s4.5,1.9,4.5,5.1c0,3.2-2.1,5.1-4.5,5.1S769.7,167.4,769.7,164.1z
							 M777.1,164.1c0-2.2-1.2-3.8-2.8-3.8c-1.7,0-2.8,1.5-2.8,3.8c0,2.3,1.1,3.7,2.8,3.7C775.9,167.9,777.1,166.4,777.1,164.1z"/>
						<path class="st2" d="M781.4,159.2h1.4l0.1,1.4h0.1c0.8-0.9,1.9-1.7,3-1.7c1.5,0,2.3,0.7,2.7,1.9c1-1.1,2-1.9,3.2-1.9
							c2,0,3,1.3,3,3.8v6.2h-1.6v-6c0-1.8-0.6-2.6-1.8-2.6c-0.8,0-1.5,0.5-2.5,1.5v7.1h-1.6v-6c0-1.8-0.6-2.6-1.8-2.6
							c-0.7,0-1.6,0.5-2.5,1.5v7.1h-1.6V159.2z"/>
						<path class="st2" d="M803.6,168L803.6,168l-0.2,1h-1.3v-14.3h1.6v3.9l-0.1,1.8c0.9-0.8,2-1.4,3.1-1.4c2.5,0,3.9,2,3.9,5
							c0,3.4-2,5.3-4.2,5.3C805.5,169.2,804.4,168.8,803.6,168z M808.9,164c0-2.2-0.7-3.6-2.6-3.6c-0.8,0-1.7,0.5-2.6,1.4v5.1
							c0.9,0.8,1.7,1,2.4,1C807.7,167.9,808.9,166.4,808.9,164z"/>
						<path class="st2" d="M812.4,164.1c0-3.3,2.1-5.1,4.5-5.1c2.4,0,4.5,1.9,4.5,5.1c0,3.2-2.1,5.1-4.5,5.1
							C814.6,169.2,812.4,167.4,812.4,164.1z M819.8,164.1c0-2.2-1.2-3.8-2.8-3.8c-1.7,0-2.8,1.5-2.8,3.8c0,2.3,1.1,3.7,2.8,3.7
							C818.7,167.9,819.8,166.4,819.8,164.1z"/>
						<path class="st2" d="M824,166v-5.4h-1.5v-1.2l1.5-0.1l0.2-2.7h1.4v2.7h2.6v1.3h-2.6v5.5c0,1.2,0.4,1.9,1.5,1.9
							c0.3,0,0.8-0.1,1.1-0.3l0.3,1.2c-0.6,0.2-1.2,0.4-1.8,0.4C824.7,169.2,824,167.9,824,166z"/>
						<path class="st2" d="M829.5,166.5c0-2.1,1.9-3.2,6-3.7c0-1.3-0.4-2.5-2-2.5c-1.1,0-2.2,0.5-2.9,1l-0.6-1.1
							c0.9-0.6,2.3-1.3,3.9-1.3c2.4,0,3.4,1.6,3.4,4v6h-1.4l-0.1-1.2h-0.1c-0.9,0.8-2,1.4-3.2,1.4
							C830.7,169.2,829.5,168.2,829.5,166.5z M835.5,166.6v-2.7c-3.3,0.4-4.4,1.2-4.4,2.5c0,1.1,0.8,1.6,1.7,1.6
							C833.8,167.9,834.6,167.5,835.5,166.6z"/>
						<path class="st2" d="M840.3,159.2h1.4l0.1,1.4h0.1c0.9-0.9,1.9-1.7,3.3-1.7c2.1,0,3,1.3,3,3.8v6.2h-1.6v-6
							c0-1.8-0.6-2.6-1.9-2.6c-1,0-1.7,0.5-2.7,1.5v7.1h-1.6V159.2z"/>
						<path class="st2" d="M850.9,156.1c0-0.7,0.5-1.1,1.1-1.1s1.1,0.4,1.1,1.1c0,0.6-0.5,1.1-1.1,1.1S850.9,156.8,850.9,156.1z
							 M851.3,159.2h1.6v9.8h-1.6V159.2z"/>
						<path class="st2" d="M855.5,164.1c0-3.3,2.2-5.1,4.7-5.1c1.3,0,2.2,0.5,2.9,1.2l-0.8,1.1c-0.6-0.5-1.2-0.9-2-0.9
							c-1.8,0-3.1,1.5-3.1,3.8c0,2.3,1.2,3.7,3,3.7c0.9,0,1.7-0.4,2.3-1l0.7,1.1c-0.9,0.8-2,1.2-3.2,1.2
							C857.5,169.2,855.5,167.4,855.5,164.1z"/>
						<path class="st2" d="M864.6,166.5c0-2.1,1.9-3.2,6-3.7c0-1.3-0.4-2.5-2-2.5c-1.1,0-2.2,0.5-2.9,1l-0.6-1.1
							c0.9-0.6,2.3-1.3,3.9-1.3c2.4,0,3.4,1.6,3.4,4v6h-1.4l-0.1-1.2h-0.1c-0.9,0.8-2,1.4-3.2,1.4
							C865.8,169.2,864.6,168.2,864.6,166.5z M870.6,166.6v-2.7c-3.3,0.4-4.4,1.2-4.4,2.5c0,1.1,0.8,1.6,1.7,1.6
							C868.8,167.9,869.6,167.5,870.6,166.6z"/>
						<path class="st2" d="M875.3,167.1v-12.4h1.6v12.5c0,0.5,0.2,0.7,0.5,0.7c0.1,0,0.2,0,0.3,0l0.2,1.3c-0.2,0.1-0.5,0.1-1,0.1
							C875.8,169.2,875.3,168.4,875.3,167.1z"/>
						<path class="st2" d="M883.4,167.9l0.8-1.1c0.8,0.7,1.7,1.2,2.9,1.2c1.3,0,1.9-0.7,1.9-1.5c0-1-1.2-1.4-2.2-1.9
							c-1.4-0.5-2.9-1.2-2.9-2.8c0-1.5,1.2-2.8,3.4-2.8c1.2,0,2.3,0.5,3,1.1l-0.8,1.1c-0.7-0.5-1.4-0.9-2.3-0.9
							c-1.2,0-1.8,0.6-1.8,1.4c0,0.9,1.1,1.3,2.2,1.7c1.4,0.5,3,1.1,3,3c0,1.6-1.3,2.9-3.6,2.9C885.7,169.2,884.3,168.7,883.4,167.9
							z"/>
						<path class="st2" d="M892.2,164.1c0-3.3,2.1-5.1,4.5-5.1s4.5,1.9,4.5,5.1c0,3.2-2.1,5.1-4.5,5.1S892.2,167.4,892.2,164.1z
							 M899.6,164.1c0-2.2-1.2-3.8-2.8-3.8s-2.8,1.5-2.8,3.8c0,2.3,1.1,3.7,2.8,3.7S899.6,166.4,899.6,164.1z"/>
						<path class="st2" d="M903.7,165.4v-6.2h1.6v6c0,1.8,0.5,2.6,1.8,2.6c1,0,1.7-0.5,2.6-1.7v-6.9h1.6v9.8h-1.4l-0.1-1.5h-0.1
							c-0.9,1.1-1.9,1.8-3.2,1.8C904.6,169.2,903.7,167.9,903.7,165.4z"/>
						<path class="st2" d="M914.7,159.2h1.4l0.1,1.8h0.1c0.7-1.2,1.7-2,2.8-2c0.4,0,0.7,0.1,1,0.2l-0.3,1.4c-0.3-0.1-0.6-0.2-1-0.2
							c-0.8,0-1.8,0.6-2.5,2.2v6.3h-1.6V159.2z"/>
						<path class="st2" d="M920.8,164.1c0-3.3,2.2-5.1,4.7-5.1c1.3,0,2.2,0.5,2.9,1.2l-0.8,1.1c-0.6-0.5-1.2-0.9-2-0.9
							c-1.8,0-3.1,1.5-3.1,3.8c0,2.3,1.2,3.7,3,3.7c0.9,0,1.7-0.4,2.3-1l0.7,1.1c-0.9,0.8-2,1.2-3.2,1.2
							C922.8,169.2,920.8,167.4,920.8,164.1z"/>
						<path class="st2" d="M929.5,164.1c0-3.2,2.1-5.1,4.4-5.1c2.5,0,3.9,1.8,3.9,4.6c0,0.4,0,0.7-0.1,0.9h-6.6
							c0.1,2.1,1.4,3.4,3.2,3.4c1,0,1.7-0.3,2.4-0.8l0.6,1.1c-0.9,0.6-1.9,1-3.2,1C931.6,169.2,929.5,167.3,929.5,164.1z
							 M936.4,163.3c0-2-0.9-3-2.4-3c-1.4,0-2.6,1.1-2.8,3H936.4z"/>
						<path class="st2" d="M939.1,167.9l0.8-1.1c0.8,0.7,1.7,1.2,2.9,1.2c1.3,0,1.9-0.7,1.9-1.5c0-1-1.2-1.4-2.2-1.9
							c-1.4-0.5-2.9-1.2-2.9-2.8c0-1.5,1.2-2.8,3.4-2.8c1.2,0,2.3,0.5,3,1.1l-0.8,1.1c-0.7-0.5-1.4-0.9-2.3-0.9
							c-1.2,0-1.8,0.6-1.8,1.4c0,0.9,1.1,1.3,2.2,1.7c1.4,0.5,3,1.1,3,3c0,1.6-1.3,2.9-3.6,2.9C941.4,169.2,940.1,168.7,939.1,167.9
							z"/>
					</g>
					<text transform="matrix(1 0 0 1 946.9961 169)" class="st2 st5 st6"> </text>
					<g class="st1">
						<path class="st2" d="M53.8,198.3h4.6v1.3h-4.6V198.3z"/>
						<path class="st2" d="M65.1,190.8H69c2.7,0,4.5,0.9,4.5,3.2c0,1.3-0.7,2.5-1.9,2.9v0.1c1.6,0.3,2.7,1.4,2.7,3.2
							c0,2.6-2.1,3.9-5,3.9h-4.2V190.8z M68.7,196.4c2.3,0,3.2-0.8,3.2-2.2c0-1.5-1.1-2.1-3.1-2.1h-2v4.3H68.7z M69.1,202.7
							c2.3,0,3.6-0.8,3.6-2.6c0-1.6-1.3-2.4-3.6-2.4h-2.3v5H69.1z"/>
						<path class="st2" d="M76,199.1c0-3.2,2.1-5.1,4.4-5.1c2.5,0,3.9,1.8,3.9,4.6c0,0.4,0,0.7-0.1,0.9h-6.6
							c0.1,2.1,1.4,3.4,3.2,3.4c1,0,1.7-0.3,2.4-0.8l0.6,1.1c-0.9,0.6-1.9,1-3.2,1C78.1,204.2,76,202.3,76,199.1z M82.9,198.3
							c0-2-0.9-3-2.4-3c-1.4,0-2.6,1.1-2.8,3H82.9z"/>
						<path class="st2" d="M86,199.1c0-3.3,2.2-5.1,4.7-5.1c1.3,0,2.2,0.5,2.9,1.2l-0.8,1.1c-0.6-0.5-1.2-0.9-2-0.9
							c-1.8,0-3.1,1.5-3.1,3.8c0,2.3,1.2,3.7,3,3.7c0.9,0,1.7-0.4,2.3-1l0.7,1.1c-0.9,0.8-2,1.2-3.2,1.2C88,204.2,86,202.4,86,199.1
							z"/>
						<path class="st2" d="M94.7,199.1c0-3.3,2.1-5.1,4.5-5.1c2.4,0,4.5,1.9,4.5,5.1c0,3.2-2.1,5.1-4.5,5.1
							C96.9,204.2,94.7,202.4,94.7,199.1z M102.1,199.1c0-2.2-1.2-3.8-2.8-3.8s-2.8,1.5-2.8,3.8c0,2.3,1.1,3.7,2.8,3.7
							S102.1,201.4,102.1,199.1z"/>
						<path class="st2" d="M106.4,194.2h1.4l0.1,1.4h0.1c0.8-0.9,1.9-1.7,3-1.7c1.5,0,2.3,0.7,2.7,1.9c1-1.1,2-1.9,3.2-1.9
							c2,0,3,1.3,3,3.8v6.2h-1.6v-6c0-1.8-0.6-2.6-1.8-2.6c-0.8,0-1.5,0.5-2.5,1.5v7.1h-1.6v-6c0-1.8-0.6-2.6-1.8-2.6
							c-0.7,0-1.6,0.5-2.5,1.5v7.1h-1.6V194.2z"/>
						<path class="st2" d="M122.3,199.1c0-3.2,2.1-5.1,4.4-5.1c2.5,0,3.9,1.8,3.9,4.6c0,0.4,0,0.7-0.1,0.9h-6.6
							c0.1,2.1,1.4,3.4,3.2,3.4c1,0,1.7-0.3,2.4-0.8l0.6,1.1c-0.9,0.6-1.9,1-3.2,1C124.4,204.2,122.3,202.3,122.3,199.1z
							 M129.2,198.3c0-2-0.9-3-2.4-3c-1.4,0-2.6,1.1-2.8,3H129.2z"/>
						<path class="st2" d="M137.2,190.8h1.7v6.6h0.1l5.5-6.6h1.9l-4.1,5l4.8,8.2h-1.9l-3.9-6.9l-2.3,2.7v4.2h-1.7V190.8z"/>
						<path class="st2" d="M147.8,199.1c0-3.3,2.1-5.1,4.5-5.1s4.5,1.9,4.5,5.1c0,3.2-2.1,5.1-4.5,5.1S147.8,202.4,147.8,199.1z
							 M155.2,199.1c0-2.2-1.2-3.8-2.8-3.8s-2.8,1.5-2.8,3.8c0,2.3,1.1,3.7,2.8,3.7S155.2,201.4,155.2,199.1z"/>
						<path class="st2" d="M159.4,194.2h1.4l0.1,1.8h0.1c0.7-1.2,1.7-2,2.8-2c0.4,0,0.7,0.1,1,0.2l-0.3,1.4c-0.3-0.1-0.6-0.2-1-0.2
							c-0.8,0-1.8,0.6-2.5,2.2v6.3h-1.6V194.2z"/>
						<path class="st2" d="M165.5,199.1c0-3.2,2.1-5.1,4.4-5.1c2.5,0,3.9,1.8,3.9,4.6c0,0.4,0,0.7-0.1,0.9h-6.6
							c0.1,2.1,1.4,3.4,3.2,3.4c1,0,1.7-0.3,2.4-0.8l0.6,1.1c-0.9,0.6-1.9,1-3.2,1C167.6,204.2,165.5,202.3,165.5,199.1z
							 M172.3,198.3c0-2-0.9-3-2.4-3c-1.4,0-2.6,1.1-2.8,3H172.3z"/>
						<path class="st2" d="M175.3,201.5c0-2.1,1.9-3.2,6-3.7c0-1.3-0.4-2.5-2-2.5c-1.1,0-2.2,0.5-2.9,1l-0.6-1.1
							c0.9-0.6,2.3-1.3,3.9-1.3c2.4,0,3.4,1.6,3.4,4v6h-1.4l-0.1-1.2h-0.1c-0.9,0.8-2,1.4-3.2,1.4
							C176.5,204.2,175.3,203.2,175.3,201.5z M181.3,201.6v-2.7c-3.3,0.4-4.4,1.2-4.4,2.5c0,1.1,0.8,1.6,1.7,1.6
							C179.6,202.9,180.4,202.5,181.3,201.6z"/>
						<path class="st2" d="M185.3,194.5c1-0.7,1.5-1.3,1.5-2.5c-0.1,0-0.1,0-0.2,0c-0.5,0-1-0.4-1-1c0-0.7,0.4-1.1,1-1.1
							c0.8,0,1.3,0.7,1.3,1.8c0,1.6-0.8,2.8-2.1,3.6L185.3,194.5z"/>
						<path class="st2" d="M188.6,202.9l0.8-1.1c0.8,0.7,1.7,1.2,2.9,1.2c1.3,0,1.9-0.7,1.9-1.5c0-1-1.2-1.4-2.2-1.9
							c-1.4-0.5-2.9-1.2-2.9-2.8c0-1.5,1.2-2.8,3.4-2.8c1.2,0,2.3,0.5,3,1.1l-0.8,1.1c-0.7-0.5-1.4-0.9-2.3-0.9
							c-1.2,0-1.8,0.6-1.8,1.4c0,0.9,1.1,1.3,2.2,1.7c1.4,0.5,3,1.1,3,3c0,1.6-1.3,2.9-3.6,2.9C190.9,204.2,189.6,203.7,188.6,202.9
							z"/>
						<path class="st2" d="M202.5,201v-5.4H201v-1.2l1.5-0.1l0.2-2.7h1.4v2.7h2.6v1.3h-2.6v5.5c0,1.2,0.4,1.9,1.5,1.9
							c0.3,0,0.8-0.1,1.1-0.3l0.3,1.2c-0.6,0.2-1.2,0.4-1.8,0.4C203.2,204.2,202.5,202.9,202.5,201z"/>
						<path class="st2" d="M208,199.1c0-3.3,2.1-5.1,4.5-5.1c2.4,0,4.5,1.9,4.5,5.1c0,3.2-2.1,5.1-4.5,5.1
							C210.1,204.2,208,202.4,208,199.1z M215.4,199.1c0-2.2-1.2-3.8-2.8-3.8s-2.8,1.5-2.8,3.8c0,2.3,1.1,3.7,2.8,3.7
							S215.4,201.4,215.4,199.1z"/>
						<path class="st2" d="M219.6,194.2h1.4l0.1,1.1h0.1c0.9-0.7,2-1.4,3.1-1.4c2.5,0,3.9,2,3.9,5c0,3.3-2,5.3-4.2,5.3
							c-0.9,0-1.8-0.4-2.7-1.1l0,1.7v3.3h-1.6V194.2z M226.5,199c0-2.2-0.7-3.6-2.6-3.6c-0.8,0-1.7,0.5-2.6,1.4v5.1
							c0.9,0.8,1.7,1,2.4,1C225.3,202.9,226.5,201.4,226.5,199z"/>
						<path class="st2" d="M236.3,203L236.3,203l-0.2,1h-1.3v-14.3h1.6v3.9l-0.1,1.8c0.9-0.8,2-1.4,3.1-1.4c2.5,0,3.9,2,3.9,5
							c0,3.4-2,5.3-4.2,5.3C238.2,204.2,237.2,203.8,236.3,203z M241.7,199c0-2.2-0.7-3.6-2.6-3.6c-0.8,0-1.7,0.5-2.6,1.4v5.1
							c0.9,0.8,1.7,1,2.4,1C240.5,202.9,241.7,201.4,241.7,199z"/>
						<path class="st2" d="M245.2,199.1c0-3.3,2.1-5.1,4.5-5.1c2.4,0,4.5,1.9,4.5,5.1c0,3.2-2.1,5.1-4.5,5.1
							C247.3,204.2,245.2,202.4,245.2,199.1z M252.6,199.1c0-2.2-1.2-3.8-2.8-3.8s-2.8,1.5-2.8,3.8c0,2.3,1.1,3.7,2.8,3.7
							S252.6,201.4,252.6,199.1z"/>
						<path class="st2" d="M256.8,201v-5.4h-1.5v-1.2l1.5-0.1l0.2-2.7h1.4v2.7h2.6v1.3h-2.6v5.5c0,1.2,0.4,1.9,1.5,1.9
							c0.3,0,0.8-0.1,1.1-0.3l0.3,1.2c-0.6,0.2-1.2,0.4-1.8,0.4C257.5,204.2,256.8,202.9,256.8,201z"/>
						<path class="st2" d="M262.2,201.5c0-2.1,1.9-3.2,6-3.7c0-1.3-0.4-2.5-2-2.5c-1.1,0-2.2,0.5-2.9,1l-0.6-1.1
							c0.9-0.6,2.3-1.3,3.9-1.3c2.4,0,3.4,1.6,3.4,4v6h-1.4l-0.1-1.2h-0.1c-0.9,0.8-2,1.4-3.2,1.4
							C263.5,204.2,262.2,203.2,262.2,201.5z M268.3,201.6v-2.7c-3.3,0.4-4.4,1.2-4.4,2.5c0,1.1,0.8,1.6,1.7,1.6
							C266.5,202.9,267.3,202.5,268.3,201.6z"/>
						<path class="st2" d="M273,194.2h1.4l0.1,1.4h0.1c0.9-0.9,1.9-1.7,3.3-1.7c2.1,0,3,1.3,3,3.8v6.2h-1.6v-6
							c0-1.8-0.6-2.6-1.9-2.6c-1,0-1.7,0.5-2.7,1.5v7.1H273V194.2z"/>
						<path class="st2" d="M283.7,191.1c0-0.7,0.5-1.1,1.1-1.1c0.6,0,1.1,0.4,1.1,1.1c0,0.6-0.5,1.1-1.1,1.1
							C284.2,192.2,283.7,191.8,283.7,191.1z M284,194.2h1.6v9.8H284V194.2z"/>
						<path class="st2" d="M288.2,199.1c0-3.3,2.2-5.1,4.7-5.1c1.3,0,2.2,0.5,2.9,1.2l-0.8,1.1c-0.6-0.5-1.2-0.9-2-0.9
							c-1.8,0-3.1,1.5-3.1,3.8c0,2.3,1.2,3.7,3,3.7c0.9,0,1.7-0.4,2.3-1l0.7,1.1c-0.9,0.8-2,1.2-3.2,1.2
							C290.2,204.2,288.2,202.4,288.2,199.1z"/>
						<path class="st2" d="M297.3,201.5c0-2.1,1.9-3.2,6-3.7c0-1.3-0.4-2.5-2-2.5c-1.1,0-2.2,0.5-2.9,1l-0.6-1.1
							c0.9-0.6,2.3-1.3,3.9-1.3c2.4,0,3.4,1.6,3.4,4v6h-1.4l-0.1-1.2h-0.1c-0.9,0.8-2,1.4-3.2,1.4
							C298.5,204.2,297.3,203.2,297.3,201.5z M303.3,201.6v-2.7c-3.3,0.4-4.4,1.2-4.4,2.5c0,1.1,0.8,1.6,1.7,1.6
							C301.6,202.9,302.4,202.5,303.3,201.6z"/>
						<path class="st2" d="M308.1,202.1v-12.4h1.6v12.5c0,0.5,0.2,0.7,0.5,0.7c0.1,0,0.2,0,0.3,0l0.2,1.3c-0.2,0.1-0.5,0.1-1,0.1
							C308.6,204.2,308.1,203.4,308.1,202.1z"/>
						<path class="st2" d="M324.6,204l-3.2-5.6h-2.4v5.6h-1.7v-13.2h4.1c2.7,0,4.6,1,4.6,3.7c0,2.1-1.2,3.3-3,3.7l3.4,5.8H324.6z
							 M319.1,197h2.2c2.1,0,3.2-0.8,3.2-2.5c0-1.7-1.1-2.4-3.2-2.4h-2.2V197z"/>
						<path class="st2" d="M338.5,204.2c-0.9-0.3-1.9-0.8-3-1.5c-1,0.9-2.3,1.5-3.8,1.5c-2.4,0-4-1.5-4-3.7c0-1.8,1.2-2.9,2.6-3.8
							c-0.5-1.1-0.9-2.1-0.9-3.1c0-1.8,1.2-3.1,3-3.1c1.6,0,2.6,1.1,2.6,2.6c0,1.7-1.5,2.8-3,3.9c0.9,1.4,2.1,2.7,3.3,3.7
							c0.8-1.1,1.5-2.4,1.9-3.9h1.5c-0.5,1.7-1.3,3.3-2.3,4.7c0.9,0.6,1.7,1.1,2.5,1.3L338.5,204.2z M331.9,202.9
							c0.9,0,1.8-0.4,2.5-1.1c-1.3-1.1-2.5-2.5-3.5-3.9c-0.9,0.8-1.7,1.5-1.7,2.6C329.3,201.9,330.4,202.9,331.9,202.9z M331.4,196
							c1.2-0.8,2.3-1.6,2.3-2.8c0-0.8-0.4-1.5-1.3-1.5c-1,0-1.6,0.8-1.6,1.9C330.8,194.4,331,195.2,331.4,196z"/>
						<path class="st2" d="M341.1,190.8h3.3c4.1,0,6.2,2.4,6.2,6.6c0,4.2-2.2,6.6-6.2,6.6h-3.4V190.8z M344.2,202.6
							c3.1,0,4.6-1.9,4.6-5.3c0-3.3-1.5-5.2-4.6-5.2h-1.5v10.5H344.2z"/>
						<path class="st2" d="M356.6,199.1c0-3.3,2.2-5.1,4.7-5.1c1.3,0,2.2,0.5,2.9,1.2l-0.8,1.1c-0.6-0.5-1.2-0.9-2-0.9
							c-1.8,0-3.1,1.5-3.1,3.8c0,2.3,1.2,3.7,3,3.7c0.9,0,1.7-0.4,2.3-1l0.7,1.1c-0.9,0.8-2,1.2-3.2,1.2
							C358.6,204.2,356.6,202.4,356.6,199.1z"/>
						<path class="st2" d="M365.3,199.1c0-3.3,2.1-5.1,4.5-5.1s4.5,1.9,4.5,5.1c0,3.2-2.1,5.1-4.5,5.1S365.3,202.4,365.3,199.1z
							 M372.7,199.1c0-2.2-1.2-3.8-2.8-3.8s-2.8,1.5-2.8,3.8c0,2.3,1.1,3.7,2.8,3.7S372.7,201.4,372.7,199.1z"/>
						<path class="st2" d="M376.9,194.2h1.4l0.1,1.4h0.1c0.8-0.9,1.9-1.7,3-1.7c1.5,0,2.3,0.7,2.7,1.9c1-1.1,2-1.9,3.2-1.9
							c2,0,3,1.3,3,3.8v6.2h-1.6v-6c0-1.8-0.6-2.6-1.8-2.6c-0.8,0-1.5,0.5-2.5,1.5v7.1h-1.6v-6c0-1.8-0.6-2.6-1.8-2.6
							c-0.7,0-1.6,0.5-2.5,1.5v7.1h-1.6V194.2z"/>
						<path class="st2" d="M393.6,194.2h1.4l0.1,1.1h0.1c0.9-0.7,2-1.4,3.1-1.4c2.5,0,3.9,2,3.9,5c0,3.3-2,5.3-4.2,5.3
							c-0.9,0-1.8-0.4-2.7-1.1l0,1.7v3.3h-1.6V194.2z M400.5,199c0-2.2-0.7-3.6-2.6-3.6c-0.8,0-1.7,0.5-2.6,1.4v5.1
							c0.9,0.8,1.7,1,2.4,1C399.3,202.9,400.5,201.4,400.5,199z"/>
						<path class="st2" d="M403.9,201.5c0-2.1,1.9-3.2,6-3.7c0-1.3-0.4-2.5-2-2.5c-1.1,0-2.2,0.5-2.9,1l-0.6-1.1
							c0.9-0.6,2.3-1.3,3.9-1.3c2.4,0,3.4,1.6,3.4,4v6h-1.4l-0.1-1.2H410c-0.9,0.8-2,1.4-3.2,1.4
							C405.1,204.2,403.9,203.2,403.9,201.5z M409.9,201.6v-2.7c-3.3,0.4-4.4,1.2-4.4,2.5c0,1.1,0.8,1.6,1.7,1.6
							C408.2,202.9,408.9,202.5,409.9,201.6z"/>
						<path class="st2" d="M414.6,194.2h1.4l0.1,1.4h0.1c0.9-0.9,1.9-1.7,3.3-1.7c2.1,0,3,1.3,3,3.8v6.2h-1.6v-6
							c0-1.8-0.6-2.6-1.9-2.6c-1,0-1.7,0.5-2.7,1.5v7.1h-1.6V194.2z"/>
						<path class="st2" d="M424.6,208l0.3-1.3c0.2,0.1,0.5,0.2,0.7,0.2c1.1,0,1.8-0.9,2.2-2.1l0.2-0.7l-3.9-9.8h1.7l2,5.4
							c0.3,0.8,0.6,1.9,0.9,2.7h0.1c0.3-0.9,0.6-1.9,0.8-2.7l1.7-5.4h1.6l-3.7,10.6c-0.7,1.9-1.7,3.4-3.6,3.4
							C425.3,208.2,424.9,208.1,424.6,208z"/>
					</g>
				</g>
				
					<g id="arrow" transform="translate(500.000000, 318.000000) rotate(-270.000000) translate(-500.000000, -318.000000) translate(449.500000, 308.000000)">
					<path id="Line" class="st7" d="M0.5,10h100"/>
					<polyline id="Stroke-1" class="st8" points="90,0 101,10 90,20 					"/>
					<polyline class="st8" points="11,20 0,10 11,0 					"/>
				</g>
				<g id="box3" transform="translate(0.000000, 383.000000)">
					<path class="st9" d="M9,1h982c4.4,0,8,3.6,8,8v132c0,4.4-3.6,8-8,8H9c-4.4,0-8-3.6-8-8V9C1,4.6,4.6,1,9,1z"/>
					<g class="st1">
						<path class="st10" d="M303.9,43.3h3.8c4.5,0,7.1,2.5,7.1,7.3c0,4.8-2.6,7.4-7,7.4h-3.9V43.3z M307.6,56.1
							c3.2,0,4.9-1.9,4.9-5.5c0-3.7-1.7-5.4-4.9-5.4h-1.3v10.9H307.6z"/>
						<path class="st10" d="M317.4,43.6c0-0.8,0.6-1.4,1.5-1.4c0.8,0,1.5,0.5,1.5,1.4c0,0.8-0.6,1.4-1.5,1.4
							C318,44.9,317.4,44.4,317.4,43.6z M317.7,47h2.3v11h-2.3V47z"/>
						<path class="st10" d="M322.3,56.7l1.1-1.5c1,0.8,1.9,1.3,3.1,1.3c1.3,0,1.9-0.6,1.9-1.5c0-1-1.2-1.4-2.4-1.9
							c-1.5-0.6-3.1-1.3-3.1-3.2c0-1.8,1.5-3.2,3.9-3.2c1.5,0,2.7,0.6,3.6,1.3l-1.1,1.4c-0.8-0.6-1.5-1-2.5-1
							c-1.2,0-1.8,0.6-1.8,1.4c0,0.9,1.1,1.3,2.3,1.7c1.5,0.6,3.2,1.3,3.2,3.3c0,1.8-1.5,3.3-4.2,3.3
							C324.9,58.3,323.4,57.6,322.3,56.7z"/>
						<path class="st10" d="M332.3,52.5c0-3.6,2.4-5.8,5-5.8c2.9,0,4.5,2.1,4.5,5.2c0,0.4,0,0.9-0.1,1.2h-7.1
							c0.2,2.1,1.5,3.4,3.4,3.4c1,0,1.8-0.3,2.6-0.8l0.8,1.5c-1,0.7-2.3,1.2-3.7,1.2C334.7,58.3,332.3,56.1,332.3,52.5z M339.8,51.5
							c0-1.9-0.9-3-2.5-3c-1.4,0-2.6,1.1-2.8,3H339.8z"/>
						<path class="st10" d="M343.4,55.1c0-2.4,2-3.6,6.6-4.1c0-1.3-0.5-2.4-2.1-2.4c-1.2,0-2.2,0.5-3.2,1.1l-0.9-1.6
							c1.1-0.7,2.7-1.4,4.4-1.4c2.7,0,4,1.7,4,4.7V58h-1.9l-0.2-1.3h-0.1c-1,0.9-2.2,1.5-3.5,1.5C344.8,58.3,343.4,57,343.4,55.1z
							 M350,55.2v-2.7c-3.3,0.4-4.4,1.2-4.4,2.5c0,1.1,0.7,1.5,1.7,1.5C348.3,56.4,349.1,56,350,55.2z"/>
						<path class="st10" d="M354.4,56.7l1.1-1.5c1,0.8,1.9,1.3,3.1,1.3c1.3,0,1.9-0.6,1.9-1.5c0-1-1.2-1.4-2.4-1.9
							c-1.5-0.6-3.1-1.3-3.1-3.2c0-1.8,1.5-3.2,3.9-3.2c1.5,0,2.7,0.6,3.6,1.3l-1.1,1.4c-0.8-0.6-1.5-1-2.5-1
							c-1.2,0-1.8,0.6-1.8,1.4c0,0.9,1.1,1.3,2.3,1.7c1.5,0.6,3.2,1.3,3.2,3.3c0,1.8-1.5,3.3-4.2,3.3
							C357,58.3,355.5,57.6,354.4,56.7z"/>
						<path class="st10" d="M364.4,52.5c0-3.6,2.4-5.8,5-5.8c2.9,0,4.5,2.1,4.5,5.2c0,0.4,0,0.9-0.1,1.2h-7.1
							c0.2,2.1,1.5,3.4,3.4,3.4c1,0,1.8-0.3,2.6-0.8l0.8,1.5c-1,0.7-2.3,1.2-3.7,1.2C366.8,58.3,364.4,56.1,364.4,52.5z M371.9,51.5
							c0-1.9-0.9-3-2.5-3c-1.4,0-2.6,1.1-2.8,3H371.9z"/>
						<path class="st10" d="M375.9,51.5h5.3v1.7h-5.3V51.5z"/>
						<path class="st10" d="M383.8,47h1.9l0.2,1.5h0.1c0.9-1,2-1.8,3.4-1.8c1.6,0,2.6,0.8,3,2c1.1-1.2,2.2-2,3.6-2
							c2.3,0,3.4,1.6,3.4,4.4V58H397v-6.6c0-1.9-0.6-2.7-1.8-2.7c-0.8,0-1.6,0.5-2.5,1.5V58h-2.3v-6.6c0-1.9-0.6-2.7-1.8-2.7
							c-0.7,0-1.6,0.5-2.5,1.5V58h-2.3V47z"/>
						<path class="st10" d="M401.9,52.5c0-3.7,2.5-5.8,5.2-5.8c2.7,0,5.2,2.1,5.2,5.8c0,3.6-2.5,5.7-5.2,5.7
							C404.3,58.3,401.9,56.2,401.9,52.5z M409.9,52.5c0-2.3-1.1-3.9-2.8-3.9c-1.7,0-2.8,1.6-2.8,3.9c0,2.3,1.1,3.9,2.8,3.9
							C408.8,56.4,409.9,54.8,409.9,52.5z"/>
						<path class="st10" d="M414.2,52.5c0-3.6,2.3-5.8,4.7-5.8c1.3,0,2.1,0.5,3,1.2l-0.1-1.8v-4.1h2.3V58h-1.9l-0.2-1.2h-0.1
							c-0.8,0.8-2,1.5-3.2,1.5C416,58.3,414.2,56.2,414.2,52.5z M421.8,55v-5.4c-0.8-0.7-1.6-1-2.4-1c-1.5,0-2.8,1.5-2.8,3.8
							c0,2.5,1,3.9,2.7,3.9C420.2,56.4,421,55.9,421.8,55z"/>
						<path class="st10" d="M427.2,43.6c0-0.8,0.6-1.4,1.5-1.4c0.8,0,1.5,0.5,1.5,1.4c0,0.8-0.6,1.4-1.5,1.4
							C427.8,44.9,427.2,44.4,427.2,43.6z M427.5,47h2.3v11h-2.3V47z"/>
						<path class="st10" d="M438.6,43.9c-0.4-0.2-0.8-0.3-1.2-0.3c-1,0-1.5,0.6-1.5,2V47h2.2v1.8H436V58h-2.3v-9.2h-1.5v-1.7
							l1.5-0.1v-1.4c0-2.3,1-3.8,3.5-3.8c0.7,0,1.4,0.2,1.9,0.4L438.6,43.9z"/>
						<path class="st10" d="M445,58.7c-0.9,2.4-2,3.9-4.3,3.9c-0.6,0-1-0.1-1.4-0.2l0.4-1.8c0.2,0.1,0.5,0.2,0.8,0.2
							c1.2,0,1.9-0.9,2.3-2.1l0.2-0.8L438.7,47h2.4l2,5.7c0.3,1,0.7,2.1,1,3.1h0.1l0.9-3.1l1.8-5.7h2.2L445,58.7z"/>
						<path class="st10" d="M450.7,43.6c0-0.8,0.6-1.4,1.5-1.4c0.8,0,1.5,0.5,1.5,1.4c0,0.8-0.6,1.4-1.5,1.4
							C451.4,44.9,450.7,44.4,450.7,43.6z M451.1,47h2.3v11h-2.3V47z"/>
						<path class="st10" d="M456.8,47h1.9l0.2,1.5h0.1c1-1,2.1-1.8,3.6-1.8c2.3,0,3.4,1.6,3.4,4.4V58h-2.3v-6.6
							c0-1.9-0.6-2.7-1.9-2.7c-1,0-1.7,0.5-2.7,1.5V58h-2.3V47z"/>
						<path class="st10" d="M468.5,60c0-0.9,0.6-1.8,1.6-2.4v-0.1c-0.6-0.3-1-0.9-1-1.8c0-0.9,0.6-1.6,1.2-2v-0.1
							c-0.7-0.6-1.4-1.6-1.4-2.9c0-2.5,2-4,4.3-4c0.6,0,1.2,0.1,1.6,0.3h3.9v1.7h-2.1c0.4,0.4,0.7,1.2,0.7,2c0,2.4-1.8,3.8-4.1,3.8
							c-0.5,0-1.1-0.1-1.5-0.3c-0.4,0.3-0.6,0.6-0.6,1.2c0,0.7,0.4,1.1,1.8,1.1h2c2.6,0,4,0.8,4,2.7c0,2.1-2.2,3.8-5.8,3.8
							C470.4,62.9,468.5,62,468.5,60z M476.6,59.5c0-0.9-0.7-1.2-2.1-1.2h-1.7c-0.5,0-1-0.1-1.5-0.2c-0.7,0.5-0.9,1-0.9,1.6
							c0,1.1,1.1,1.7,2.9,1.7C475.3,61.4,476.6,60.5,476.6,59.5z M475.2,50.7c0-1.5-0.9-2.3-2.1-2.3s-2.1,0.8-2.1,2.3
							c0,1.5,0.9,2.4,2.1,2.4S475.2,52.1,475.2,50.7z"/>
						<path class="st10" d="M485.7,54.4v-5.6h-1.6v-1.7l1.7-0.1l0.3-3h1.9v3h2.9v1.8H488v5.6c0,1.3,0.5,2,1.6,2
							c0.4,0,0.9-0.1,1.2-0.3l0.4,1.7c-0.6,0.2-1.4,0.4-2.2,0.4C486.6,58.3,485.7,56.7,485.7,54.4z"/>
						<path class="st10" d="M493.3,42.1h2.3v4.2l-0.1,2.2c1-0.9,2.1-1.7,3.6-1.7c2.3,0,3.4,1.6,3.4,4.4V58h-2.3v-6.6
							c0-1.9-0.6-2.7-1.9-2.7c-1,0-1.7,0.5-2.7,1.5V58h-2.3V42.1z"/>
						<path class="st10" d="M504.9,52.5c0-3.6,2.4-5.8,5-5.8c2.9,0,4.5,2.1,4.5,5.2c0,0.4,0,0.9-0.1,1.2h-7.1
							c0.2,2.1,1.5,3.4,3.4,3.4c1,0,1.8-0.3,2.6-0.8l0.8,1.5c-1,0.7-2.3,1.2-3.7,1.2C507.3,58.3,504.9,56.1,504.9,52.5z M512.4,51.5
							c0-1.9-0.9-3-2.5-3c-1.4,0-2.6,1.1-2.8,3H512.4z"/>
						<path class="st10" d="M517,47h1.9l0.2,2h0.1c0.8-1.4,1.9-2.3,3.1-2.3c0.5,0,0.9,0.1,1.2,0.2l-0.4,2c-0.4-0.1-0.7-0.2-1.1-0.2
							c-0.9,0-2,0.6-2.7,2.4V58H517V47z"/>
						<path class="st10" d="M524,55.1c0-2.4,2-3.6,6.6-4.1c0-1.3-0.5-2.4-2.1-2.4c-1.2,0-2.2,0.5-3.2,1.1l-0.9-1.6
							c1.1-0.7,2.7-1.4,4.4-1.4c2.7,0,4,1.7,4,4.7V58H531l-0.2-1.3h-0.1c-1,0.9-2.2,1.5-3.5,1.5C525.3,58.3,524,57,524,55.1z
							 M530.5,55.2v-2.7c-3.3,0.4-4.4,1.2-4.4,2.5c0,1.1,0.7,1.5,1.7,1.5C528.9,56.4,529.6,56,530.5,55.2z"/>
						<path class="st10" d="M536.1,47h1.9l0.2,1.2h0.1c1-0.8,2.2-1.5,3.4-1.5c2.8,0,4.4,2.2,4.4,5.6c0,3.8-2.3,5.9-4.7,5.9
							c-1,0-2-0.4-2.9-1.2l0.1,1.9v3.6h-2.3V47z M543.6,52.4c0-2.3-0.7-3.7-2.6-3.7c-0.9,0-1.7,0.4-2.6,1.3v5.4c0.9,0.7,1.7,1,2.4,1
							C542.4,56.4,543.6,54.9,543.6,52.4z"/>
						<path class="st10" d="M553.4,58.7c-0.9,2.4-2,3.9-4.3,3.9c-0.6,0-1-0.1-1.4-0.2l0.4-1.8c0.2,0.1,0.5,0.2,0.8,0.2
							c1.2,0,1.9-0.9,2.3-2.1l0.2-0.8L547.1,47h2.4l2,5.7c0.3,1,0.7,2.1,1,3.1h0.1l0.9-3.1l1.8-5.7h2.2L553.4,58.7z"/>
						<path class="st10" d="M563.2,52.5c0-3.6,2.3-5.8,4.7-5.8c1.3,0,2.1,0.5,3,1.2l-0.1-1.8v-4.1h2.3V58h-1.9l-0.2-1.2H571
							c-0.8,0.8-2,1.5-3.2,1.5C565,58.3,563.2,56.2,563.2,52.5z M570.8,55v-5.4c-0.8-0.7-1.6-1-2.4-1c-1.5,0-2.8,1.5-2.8,3.8
							c0,2.5,1,3.9,2.7,3.9C569.2,56.4,570,55.9,570.8,55z"/>
						<path class="st10" d="M576.2,43.6c0-0.8,0.6-1.4,1.5-1.4s1.5,0.5,1.5,1.4c0,0.8-0.6,1.4-1.5,1.4S576.2,44.4,576.2,43.6z
							 M576.6,47h2.3v11h-2.3V47z"/>
						<path class="st10" d="M594.3,43.9c-0.4-0.2-0.8-0.3-1.2-0.3c-1,0-1.5,0.6-1.5,2V47h2.2v1.8h-2.2V58h-2.3v-9.2H585V58h-2.3
							v-9.2h-1.5v-1.7l1.5-0.1v-1.2c0-2.3,1.1-3.8,3.6-3.8c0.8,0,1.6,0.2,2.1,0.4l-0.5,1.7c-0.4-0.2-0.9-0.3-1.4-0.3
							c-1,0-1.6,0.7-1.6,2V47h4.3v-1.4c0-2.3,1-3.8,3.5-3.8c0.8,0,1.5,0.2,2,0.4L594.3,43.9z"/>
						<path class="st10" d="M594.8,52.5c0-3.6,2.4-5.8,5-5.8c2.9,0,4.5,2.1,4.5,5.2c0,0.4,0,0.9-0.1,1.2h-7.1
							c0.2,2.1,1.5,3.4,3.4,3.4c1,0,1.8-0.3,2.6-0.8l0.8,1.5c-1,0.7-2.3,1.2-3.7,1.2C597.2,58.3,594.8,56.1,594.8,52.5z M602.4,51.5
							c0-1.9-0.9-3-2.5-3c-1.4,0-2.6,1.1-2.8,3H602.4z"/>
						<path class="st10" d="M606.9,47h1.9l0.2,2h0.1c0.8-1.4,1.9-2.3,3.1-2.3c0.5,0,0.9,0.1,1.2,0.2l-0.4,2
							c-0.4-0.1-0.7-0.2-1.1-0.2c-0.9,0-2,0.6-2.7,2.4V58h-2.3V47z"/>
						<path class="st10" d="M614.1,52.5c0-3.6,2.4-5.8,5-5.8c2.9,0,4.5,2.1,4.5,5.2c0,0.4,0,0.9-0.1,1.2h-7.1
							c0.2,2.1,1.5,3.4,3.4,3.4c1,0,1.8-0.3,2.6-0.8l0.8,1.5c-1,0.7-2.3,1.2-3.7,1.2C616.5,58.3,614.1,56.1,614.1,52.5z M621.6,51.5
							c0-1.9-0.9-3-2.5-3c-1.4,0-2.6,1.1-2.8,3H621.6z"/>
						<path class="st10" d="M626.2,47h1.9l0.2,1.5h0.1c1-1,2.1-1.8,3.6-1.8c2.3,0,3.4,1.6,3.4,4.4V58H633v-6.6
							c0-1.9-0.6-2.7-1.9-2.7c-1,0-1.7,0.5-2.7,1.5V58h-2.3V47z"/>
						<path class="st10" d="M639,54.4v-5.6h-1.6v-1.7l1.7-0.1l0.3-3h1.9v3h2.9v1.8h-2.9v5.6c0,1.3,0.5,2,1.6,2
							c0.4,0,0.9-0.1,1.2-0.3l0.4,1.7c-0.6,0.2-1.4,0.4-2.2,0.4C639.9,58.3,639,56.7,639,54.4z"/>
						<path class="st10" d="M646.3,43.6c0-0.8,0.6-1.4,1.5-1.4s1.5,0.5,1.5,1.4c0,0.8-0.6,1.4-1.5,1.4S646.3,44.4,646.3,43.6z
							 M646.6,47h2.3v11h-2.3V47z"/>
						<path class="st10" d="M651.7,55.1c0-2.4,2-3.6,6.6-4.1c0-1.3-0.5-2.4-2.1-2.4c-1.2,0-2.2,0.5-3.2,1.1l-0.9-1.6
							c1.1-0.7,2.7-1.4,4.4-1.4c2.7,0,4,1.7,4,4.7V58h-1.9l-0.2-1.3h-0.1c-1,0.9-2.2,1.5-3.5,1.5C653,58.3,651.7,57,651.7,55.1z
							 M658.3,55.2v-2.7c-3.3,0.4-4.4,1.2-4.4,2.5c0,1.1,0.7,1.5,1.7,1.5C656.6,56.4,657.4,56,658.3,55.2z"/>
						<path class="st10" d="M663.8,54.4v-5.6h-1.6v-1.7l1.7-0.1l0.3-3h1.9v3h2.9v1.8h-2.9v5.6c0,1.3,0.5,2,1.6,2
							c0.4,0,0.9-0.1,1.2-0.3l0.4,1.7c-0.6,0.2-1.4,0.4-2.2,0.4C664.7,58.3,663.8,56.7,663.8,54.4z"/>
						<path class="st10" d="M670.3,52.5c0-3.6,2.4-5.8,5-5.8c2.9,0,4.5,2.1,4.5,5.2c0,0.4,0,0.9-0.1,1.2h-7.1
							c0.2,2.1,1.5,3.4,3.4,3.4c1,0,1.8-0.3,2.6-0.8l0.8,1.5c-1,0.7-2.3,1.2-3.7,1.2C672.7,58.3,670.3,56.1,670.3,52.5z M677.8,51.5
							c0-1.9-0.9-3-2.5-3c-1.4,0-2.6,1.1-2.8,3H677.8z"/>
						<path class="st10" d="M681.6,52.5c0-3.6,2.3-5.8,4.7-5.8c1.3,0,2.1,0.5,3,1.2l-0.1-1.8v-4.1h2.3V58h-1.9l-0.2-1.2h-0.1
							c-0.8,0.8-2,1.5-3.2,1.5C683.4,58.3,681.6,56.2,681.6,52.5z M689.2,55v-5.4c-0.8-0.7-1.6-1-2.4-1c-1.5,0-2.8,1.5-2.8,3.8
							c0,2.5,1,3.9,2.7,3.9C687.6,56.4,688.4,55.9,689.2,55z"/>
					</g>
					<g class="st1">
						<path class="st10" d="M309.1,83.9c-0.4-0.2-0.8-0.3-1.2-0.3c-1,0-1.5,0.6-1.5,2V87h2.2v1.8h-2.2V98h-2.3v-9.2h-1.5v-1.7
							l1.5-0.1v-1.4c0-2.3,1-3.8,3.5-3.8c0.7,0,1.4,0.2,1.9,0.4L309.1,83.9z"/>
						<path class="st10" d="M310.6,87h1.9l0.2,2h0.1c0.8-1.4,1.9-2.3,3.1-2.3c0.5,0,0.9,0.1,1.2,0.2l-0.4,2
							c-0.4-0.1-0.7-0.2-1.1-0.2c-0.9,0-2,0.6-2.7,2.4V98h-2.3V87z"/>
						<path class="st10" d="M317.8,92.5c0-3.7,2.5-5.8,5.2-5.8c2.7,0,5.2,2.1,5.2,5.8c0,3.6-2.5,5.7-5.2,5.7
							C320.3,98.3,317.8,96.2,317.8,92.5z M325.8,92.5c0-2.3-1.1-3.9-2.8-3.9c-1.7,0-2.8,1.6-2.8,3.9c0,2.3,1.1,3.9,2.8,3.9
							C324.7,96.4,325.8,94.8,325.8,92.5z"/>
						<path class="st10" d="M330.9,87h1.9l0.2,1.5h0.1c0.9-1,2-1.8,3.4-1.8c1.6,0,2.6,0.8,3,2c1.1-1.2,2.2-2,3.6-2
							c2.3,0,3.4,1.6,3.4,4.4V98h-2.3v-6.6c0-1.9-0.6-2.7-1.8-2.7c-0.8,0-1.6,0.5-2.5,1.5V98h-2.3v-6.6c0-1.9-0.6-2.7-1.8-2.7
							c-0.7,0-1.6,0.5-2.5,1.5V98h-2.3V87z"/>
						<path class="st10" d="M353.1,96.7l1.1-1.5c1,0.8,1.9,1.3,3.1,1.3c1.3,0,1.9-0.6,1.9-1.5c0-1-1.2-1.4-2.4-1.9
							c-1.5-0.6-3.1-1.3-3.1-3.2c0-1.8,1.5-3.2,3.9-3.2c1.5,0,2.7,0.6,3.6,1.3l-1.1,1.4c-0.8-0.6-1.5-1-2.5-1
							c-1.2,0-1.8,0.6-1.8,1.4c0,0.9,1.1,1.3,2.3,1.7c1.5,0.6,3.2,1.3,3.2,3.3c0,1.8-1.5,3.3-4.2,3.3
							C355.7,98.3,354.1,97.6,353.1,96.7z"/>
						<path class="st10" d="M363.5,83.6c0-0.8,0.6-1.4,1.5-1.4c0.8,0,1.5,0.5,1.5,1.4c0,0.8-0.6,1.4-1.5,1.4
							C364.1,84.9,363.5,84.4,363.5,83.6z M363.8,87h2.3v11h-2.3V87z"/>
						<path class="st10" d="M369.6,87h1.9l0.2,1.5h0.1c1-1,2.1-1.8,3.6-1.8c2.3,0,3.4,1.6,3.4,4.4V98h-2.3v-6.6
							c0-1.9-0.6-2.7-1.9-2.7c-1,0-1.7,0.5-2.7,1.5V98h-2.3V87z"/>
						<path class="st10" d="M381.2,100c0-0.9,0.6-1.8,1.6-2.4v-0.1c-0.6-0.3-1-0.9-1-1.8c0-0.9,0.6-1.6,1.2-2v-0.1
							c-0.7-0.6-1.4-1.6-1.4-2.9c0-2.5,2-4,4.3-4c0.6,0,1.2,0.1,1.6,0.3h3.9v1.7h-2.1c0.4,0.4,0.7,1.2,0.7,2c0,2.4-1.8,3.8-4.1,3.8
							c-0.5,0-1.1-0.1-1.5-0.3c-0.4,0.3-0.6,0.6-0.6,1.2c0,0.7,0.4,1.1,1.8,1.1h2c2.6,0,4,0.8,4,2.7c0,2.1-2.2,3.8-5.8,3.8
							C383.2,102.9,381.2,102,381.2,100z M389.3,99.5c0-0.9-0.7-1.2-2.1-1.2h-1.7c-0.5,0-1-0.1-1.5-0.2c-0.7,0.5-0.9,1-0.9,1.6
							c0,1.1,1.1,1.7,2.9,1.7C388.1,101.4,389.3,100.5,389.3,99.5z M388,90.7c0-1.5-0.9-2.3-2.1-2.3s-2.1,0.8-2.1,2.3
							c0,1.5,0.9,2.4,2.1,2.4C387,93,388,92.1,388,90.7z"/>
						<path class="st10" d="M393.6,95.4V82.1h2.3v13.5c0,0.6,0.3,0.8,0.6,0.8c0.1,0,0.2,0,0.4,0l0.3,1.7c-0.3,0.1-0.7,0.2-1.2,0.2
							C394.2,98.3,393.6,97.2,393.6,95.4z"/>
						<path class="st10" d="M398.8,92.5c0-3.6,2.4-5.8,5-5.8c2.9,0,4.5,2.1,4.5,5.2c0,0.4,0,0.9-0.1,1.2H401
							c0.2,2.1,1.5,3.4,3.4,3.4c1,0,1.8-0.3,2.6-0.8l0.8,1.5c-1,0.7-2.3,1.2-3.7,1.2C401.2,98.3,398.8,96.1,398.8,92.5z M406.3,91.5
							c0-1.9-0.9-3-2.5-3c-1.4,0-2.6,1.1-2.8,3H406.3z"/>
						<path class="st10" d="M410.3,91.5h5.3v1.7h-5.3V91.5z"/>
						<path class="st10" d="M418,94.4v-5.6h-1.6v-1.7l1.7-0.1l0.3-3h1.9v3h2.9v1.8h-2.9v5.6c0,1.3,0.5,2,1.6,2
							c0.4,0,0.9-0.1,1.2-0.3l0.4,1.7c-0.6,0.2-1.4,0.4-2.2,0.4C418.9,98.3,418,96.7,418,94.4z"/>
						<path class="st10" d="M424.5,95.1c0-2.4,2-3.6,6.6-4.1c0-1.3-0.5-2.4-2.1-2.4c-1.2,0-2.2,0.5-3.2,1.1l-0.9-1.6
							c1.1-0.7,2.7-1.4,4.4-1.4c2.7,0,4,1.7,4,4.7V98h-1.9l-0.2-1.3h-0.1c-1,0.9-2.2,1.5-3.5,1.5C425.8,98.3,424.5,97,424.5,95.1z
							 M431,95.2v-2.7c-3.3,0.4-4.4,1.2-4.4,2.5c0,1.1,0.7,1.5,1.7,1.5C429.4,96.4,430.1,96,431,95.2z"/>
						<path class="st10" d="M436.6,87h1.9l0.2,2h0.1c0.8-1.4,1.9-2.3,3.1-2.3c0.5,0,0.9,0.1,1.2,0.2l-0.4,2
							c-0.4-0.1-0.7-0.2-1.1-0.2c-0.9,0-2,0.6-2.7,2.4V98h-2.3V87z"/>
						<path class="st10" d="M443.8,100c0-0.9,0.6-1.8,1.6-2.4v-0.1c-0.6-0.3-1-0.9-1-1.8c0-0.9,0.6-1.6,1.2-2v-0.1
							c-0.7-0.6-1.4-1.6-1.4-2.9c0-2.5,2-4,4.3-4c0.6,0,1.2,0.1,1.6,0.3h3.9v1.7h-2.1c0.4,0.4,0.7,1.2,0.7,2c0,2.4-1.8,3.8-4.1,3.8
							c-0.5,0-1.1-0.1-1.5-0.3c-0.4,0.3-0.6,0.6-0.6,1.2c0,0.7,0.4,1.1,1.8,1.1h2c2.6,0,4,0.8,4,2.7c0,2.1-2.2,3.8-5.8,3.8
							C445.7,102.9,443.8,102,443.8,100z M451.9,99.5c0-0.9-0.7-1.2-2.1-1.2h-1.7c-0.5,0-1-0.1-1.5-0.2c-0.7,0.5-0.9,1-0.9,1.6
							c0,1.1,1.1,1.7,2.9,1.7C450.6,101.4,451.9,100.5,451.9,99.5z M450.5,90.7c0-1.5-0.9-2.3-2.1-2.3s-2.1,0.8-2.1,2.3
							c0,1.5,0.9,2.4,2.1,2.4C449.5,93,450.5,92.1,450.5,90.7z"/>
						<path class="st10" d="M455,92.5c0-3.6,2.4-5.8,5-5.8c2.9,0,4.5,2.1,4.5,5.2c0,0.4,0,0.9-0.1,1.2h-7.1c0.2,2.1,1.5,3.4,3.4,3.4
							c1,0,1.8-0.3,2.6-0.8l0.8,1.5c-1,0.7-2.3,1.2-3.7,1.2C457.4,98.3,455,96.1,455,92.5z M462.5,91.5c0-1.9-0.9-3-2.5-3
							c-1.4,0-2.6,1.1-2.8,3H462.5z"/>
						<path class="st10" d="M467.2,94.4v-5.6h-1.6v-1.7l1.7-0.1l0.3-3h1.9v3h2.9v1.8h-2.9v5.6c0,1.3,0.5,2,1.6,2
							c0.4,0,0.9-0.1,1.2-0.3l0.4,1.7c-0.6,0.2-1.4,0.4-2.2,0.4C468.1,98.3,467.2,96.7,467.2,94.4z"/>
						<path class="st10" d="M473.7,92.5c0-3.6,2.4-5.8,5-5.8c2.9,0,4.5,2.1,4.5,5.2c0,0.4,0,0.9-0.1,1.2h-7.1
							c0.2,2.1,1.5,3.4,3.4,3.4c1,0,1.8-0.3,2.6-0.8l0.8,1.5c-1,0.7-2.3,1.2-3.7,1.2C476,98.3,473.7,96.1,473.7,92.5z M481.2,91.5
							c0-1.9-0.9-3-2.5-3c-1.4,0-2.6,1.1-2.8,3H481.2z"/>
						<path class="st10" d="M485,92.5c0-3.6,2.3-5.8,4.7-5.8c1.3,0,2.1,0.5,3,1.2l-0.1-1.8v-4.1h2.3V98H493l-0.2-1.2h-0.1
							c-0.8,0.8-2,1.5-3.2,1.5C486.8,98.3,485,96.2,485,92.5z M492.6,95v-5.4c-0.8-0.7-1.6-1-2.4-1c-1.5,0-2.8,1.5-2.8,3.8
							c0,2.5,1,3.9,2.7,3.9C491,96.4,491.8,95.9,492.6,95z"/>
						<path class="st10" d="M503,83.3h2.4l4.9,8.6l1.5,3.1h0.1c-0.1-1.5-0.3-3.3-0.3-4.9v-6.9h2.2V98h-2.4l-4.9-8.7l-1.5-3.1h-0.1
							c0.1,1.5,0.3,3.2,0.3,4.8V98H503V83.3z"/>
						<path class="st10" d="M516.9,90.7c0-4.8,2.9-7.7,6.6-7.7c1.8,0,3.3,0.9,4.2,1.9l-1.3,1.5c-0.8-0.8-1.7-1.3-2.9-1.3
							c-2.5,0-4.3,2.1-4.3,5.6c0,3.5,1.6,5.6,4.2,5.6c1.3,0,2.4-0.6,3.3-1.6l1.2,1.5c-1.2,1.4-2.7,2.1-4.6,2.1
							C519.8,98.3,516.9,95.5,516.9,90.7z"/>
						<path class="st10" d="M530.6,83.3h8.7v1.9H533v4.1h5.4v2H533V96h6.6v2h-8.9V83.3z"/>
						<path class="st10" d="M546.2,92.5c0-3.7,2.5-5.8,5.2-5.8s5.2,2.1,5.2,5.8c0,3.6-2.5,5.7-5.2,5.7S546.2,96.2,546.2,92.5z
							 M554.2,92.5c0-2.3-1.1-3.9-2.8-3.9c-1.7,0-2.8,1.6-2.8,3.9c0,2.3,1.1,3.9,2.8,3.9C553.1,96.4,554.2,94.8,554.2,92.5z"/>
						<path class="st10" d="M559.2,87h1.9l0.2,2h0.1c0.8-1.4,1.9-2.3,3.1-2.3c0.5,0,0.9,0.1,1.2,0.2l-0.4,2
							c-0.4-0.1-0.7-0.2-1.1-0.2c-0.9,0-2,0.6-2.7,2.4V98h-2.3V87z"/>
						<path class="st10" d="M574,96.9L574,96.9l-0.3,1.1h-1.8V82.1h2.3v4.2l-0.1,1.9c0.9-0.8,2.1-1.4,3.3-1.4c2.8,0,4.4,2.2,4.4,5.6
							c0,3.8-2.3,5.9-4.7,5.9C576,98.3,574.9,97.8,574,96.9z M579.4,92.4c0-2.3-0.7-3.7-2.6-3.7c-0.9,0-1.7,0.4-2.6,1.3v5.4
							c0.8,0.7,1.7,1,2.4,1C578.2,96.4,579.4,94.9,579.4,92.4z"/>
						<path class="st10" d="M584.2,83.6c0-0.8,0.6-1.4,1.5-1.4s1.5,0.5,1.5,1.4c0,0.8-0.6,1.4-1.5,1.4S584.2,84.4,584.2,83.6z
							 M584.5,87h2.3v11h-2.3V87z"/>
						<path class="st10" d="M589.4,92.5c0-3.7,2.5-5.8,5.2-5.8s5.2,2.1,5.2,5.8c0,3.6-2.5,5.7-5.2,5.7S589.4,96.2,589.4,92.5z
							 M597.4,92.5c0-2.3-1.1-3.9-2.8-3.9c-1.7,0-2.8,1.6-2.8,3.9c0,2.3,1.1,3.9,2.8,3.9C596.4,96.4,597.4,94.8,597.4,92.5z"/>
						<path class="st10" d="M602.5,95.4V82.1h2.3v13.5c0,0.6,0.3,0.8,0.6,0.8c0.1,0,0.2,0,0.4,0l0.3,1.7c-0.3,0.1-0.7,0.2-1.2,0.2
							C603.1,98.3,602.5,97.2,602.5,95.4z"/>
						<path class="st10" d="M607.7,92.5c0-3.7,2.5-5.8,5.2-5.8s5.2,2.1,5.2,5.8c0,3.6-2.5,5.7-5.2,5.7S607.7,96.2,607.7,92.5z
							 M615.7,92.5c0-2.3-1.1-3.9-2.8-3.9c-1.7,0-2.8,1.6-2.8,3.9c0,2.3,1.1,3.9,2.8,3.9C614.6,96.4,615.7,94.8,615.7,92.5z"/>
						<path class="st10" d="M619.9,100c0-0.9,0.6-1.8,1.6-2.4v-0.1c-0.6-0.3-1-0.9-1-1.8c0-0.9,0.6-1.6,1.2-2v-0.1
							c-0.7-0.6-1.4-1.6-1.4-2.9c0-2.5,2-4,4.3-4c0.6,0,1.2,0.1,1.6,0.3h3.9v1.7H628c0.4,0.4,0.7,1.2,0.7,2c0,2.4-1.8,3.8-4.1,3.8
							c-0.5,0-1.1-0.1-1.5-0.3c-0.4,0.3-0.6,0.6-0.6,1.2c0,0.7,0.4,1.1,1.8,1.1h2c2.6,0,4,0.8,4,2.7c0,2.1-2.2,3.8-5.8,3.8
							C621.9,102.9,619.9,102,619.9,100z M628,99.5c0-0.9-0.7-1.2-2.1-1.2h-1.7c-0.5,0-1-0.1-1.5-0.2c-0.7,0.5-0.9,1-0.9,1.6
							c0,1.1,1.1,1.7,2.9,1.7C626.8,101.4,628,100.5,628,99.5z M626.7,90.7c0-1.5-0.9-2.3-2.1-2.3s-2.1,0.8-2.1,2.3
							c0,1.5,0.9,2.4,2.1,2.4C625.7,93,626.7,92.1,626.7,90.7z"/>
						<path class="st10" d="M632,83.6c0-0.8,0.6-1.4,1.5-1.4c0.8,0,1.5,0.5,1.5,1.4c0,0.8-0.6,1.4-1.5,1.4
							C632.6,84.9,632,84.4,632,83.6z M632.3,87h2.3v11h-2.3V87z"/>
						<path class="st10" d="M637.3,92.5c0-3.7,2.5-5.8,5.4-5.8c1.4,0,2.4,0.6,3.2,1.3l-1.1,1.5c-0.6-0.5-1.2-0.9-2-0.9
							c-1.8,0-3.2,1.6-3.2,3.9c0,2.3,1.3,3.9,3.1,3.9c0.9,0,1.7-0.4,2.4-1l0.9,1.5c-1,0.9-2.3,1.4-3.6,1.4
							C639.5,98.3,637.3,96.2,637.3,92.5z"/>
						<path class="st10" d="M647.2,96.7l1.1-1.5c1,0.8,1.9,1.3,3.1,1.3c1.3,0,1.9-0.6,1.9-1.5c0-1-1.2-1.4-2.4-1.9
							c-1.5-0.6-3.1-1.3-3.1-3.2c0-1.8,1.5-3.2,3.9-3.2c1.5,0,2.7,0.6,3.6,1.3l-1.1,1.4c-0.8-0.6-1.5-1-2.5-1
							c-1.2,0-1.8,0.6-1.8,1.4c0,0.9,1.1,1.3,2.3,1.7c1.5,0.6,3.2,1.3,3.2,3.3c0,1.8-1.5,3.3-4.2,3.3
							C649.8,98.3,648.3,97.6,647.2,96.7z"/>
					</g>
				</g>
			</g>
		</g>
	</g>
</g>
</svg>
