<?xml version="1.0" encoding="utf-8"?>
<!-- Generator: Adobe Illustrator 23.0.4, SVG Export Plug-In . SVG Version: 6.00 Build 0)  -->
<svg version="1.1" id="레이어_1" xmlns="http://www.w3.org/2000/svg" xmlns:xlink="http://www.w3.org/1999/xlink" x="0px"
	 y="0px" viewBox="0 0 334 797" style="enable-background:new 0 0 334 797;" xml:space="preserve">
<style type="text/css">
	.st0{fill-rule:evenodd;clip-rule:evenodd;fill:#24A18A;fill-opacity:0.8;stroke:#158B76;stroke-width:2;}
	.st1{enable-background:new    ;}
	.st2{fill:#FFFFFF;}
	.st3{font-family:'NotoSansKR-Medium-KSCpc-EUC-H';}
	.st4{font-size:15px;}
	.st5{font-family:'NotoSansKR-Light-KSCpc-EUC-H';}
	.st6{fill:none;stroke:#0E0E0E;stroke-width:2;stroke-linecap:square;}
	.st7{fill:none;stroke:#0E0E0E;stroke-width:2;stroke-linecap:round;stroke-linejoin:round;}
	.st8{fill:none;stroke:#B54142;stroke-width:2;}
	.st9{fill:#333333;}
</style>
<title>table3</title>
<desc>Created with Sketch.</desc>
<g id="Page-1">
	<g id="mobile1" transform="translate(-20.000000, -2802.000000)">
		<g id="table3" transform="translate(20.000000, 2802.000000)">
			<g id="box1">
				<path id="bg" class="st0" d="M9,1h316c4.4,0,8,3.6,8,8v488c0,4.4-3.6,8-8,8H9c-4.4,0-8-3.6-8-8V9C1,4.6,4.6,1,9,1z"/>
				<g class="st1">
					<path class="st2" d="M31.5,41H38v1.5h-4.8v3.1h4V47h-4v3.6h4.9V52h-6.7V41z"/>
					<path class="st2" d="M39.6,47.9c0-2.8,1.9-4.4,4.1-4.4c1,0,1.8,0.4,2.4,0.9l-0.9,1.1c-0.5-0.4-0.9-0.6-1.5-0.6
						c-1.4,0-2.4,1.2-2.4,2.9c0,1.7,0.9,2.9,2.3,2.9c0.7,0,1.3-0.3,1.8-0.8l0.7,1.1c-0.7,0.7-1.7,1-2.7,1
						C41.3,52.2,39.6,50.6,39.6,47.9z"/>
					<path class="st2" d="M46.9,47.9c0-2.8,1.8-4.4,3.9-4.4c2,0,3.9,1.6,3.9,4.4c0,2.7-1.8,4.3-3.9,4.3
						C48.8,52.2,46.9,50.6,46.9,47.9z M52.9,47.9c0-1.8-0.8-2.9-2.1-2.9c-1.3,0-2.1,1.2-2.1,2.9c0,1.7,0.8,2.9,2.1,2.9
						C52.1,50.8,52.9,49.6,52.9,47.9z"/>
					<path class="st2" d="M56.2,47.1h4v1.3h-4V47.1z"/>
					<path class="st2" d="M66.2,41.4c-0.3-0.1-0.6-0.2-0.9-0.2c-0.7,0-1.1,0.5-1.1,1.5v1h1.7v1.4h-1.7V52h-1.7v-6.9h-1.1v-1.3
						l1.1-0.1v-1c0-1.7,0.8-2.9,2.6-2.9c0.6,0,1.1,0.1,1.5,0.3L66.2,41.4z"/>
					<path class="st2" d="M67.3,43.8h1.4l0.1,1.5h0c0.6-1.1,1.5-1.7,2.3-1.7c0.4,0,0.7,0.1,0.9,0.2l-0.3,1.5
						c-0.3-0.1-0.5-0.1-0.8-0.1c-0.7,0-1.5,0.5-2,1.8V52h-1.7V43.8z"/>
					<path class="st2" d="M73.2,41.2c0-0.6,0.5-1,1.1-1c0.6,0,1.1,0.4,1.1,1c0,0.6-0.5,1-1.1,1C73.7,42.2,73.2,41.8,73.2,41.2z
						 M73.5,43.8h1.7V52h-1.7V43.8z"/>
					<path class="st2" d="M77.2,47.9c0-2.7,1.8-4.4,3.8-4.4c2.2,0,3.4,1.6,3.4,3.9c0,0.3,0,0.7-0.1,0.9h-5.4
						c0.1,1.6,1.1,2.5,2.5,2.5c0.7,0,1.4-0.2,2-0.6l0.6,1.1c-0.8,0.5-1.7,0.9-2.8,0.9C79,52.2,77.2,50.6,77.2,47.9z M82.8,47.1
						c0-1.4-0.6-2.2-1.8-2.2c-1,0-1.9,0.8-2.1,2.2H82.8z"/>
					<path class="st2" d="M86.2,43.8h1.4l0.1,1.1h0c0.8-0.7,1.6-1.4,2.7-1.4c1.8,0,2.5,1.2,2.5,3.3V52h-1.7v-5c0-1.4-0.4-2-1.4-2
						c-0.8,0-1.3,0.4-2,1.1V52h-1.7V43.8z"/>
					<path class="st2" d="M95.1,47.9c0-2.7,1.7-4.4,3.5-4.4c0.9,0,1.5,0.4,2.2,0.9l-0.1-1.4V40h1.7v12h-1.4l-0.1-0.9h0
						c-0.6,0.6-1.5,1.1-2.4,1.1C96.4,52.2,95.1,50.6,95.1,47.9z M100.7,49.8v-4c-0.6-0.6-1.2-0.8-1.8-0.8c-1.2,0-2.1,1.1-2.1,2.9
						c0,1.9,0.7,2.9,2,2.9C99.6,50.8,100.1,50.5,100.7,49.8z"/>
					<path class="st2" d="M105.1,50.1V40h1.7v10.1c0,0.5,0.2,0.6,0.4,0.6c0.1,0,0.1,0,0.3,0l0.2,1.3c-0.2,0.1-0.5,0.1-0.9,0.1
						C105.5,52.2,105.1,51.4,105.1,50.1z"/>
					<path class="st2" d="M113.2,52.5c-0.6,1.8-1.5,3-3.3,3c-0.4,0-0.8-0.1-1-0.2l0.3-1.4c0.1,0,0.4,0.1,0.6,0.1
						c0.9,0,1.4-0.7,1.7-1.5l0.2-0.6l-3.3-8.2h1.8l1.5,4.2c0.2,0.7,0.5,1.6,0.8,2.3h0.1l0.6-2.3l1.3-4.2h1.7L113.2,52.5z"/>
					<path class="st2" d="M120.5,47.9c0-2.8,1.9-4.4,4.1-4.4c1,0,1.8,0.4,2.4,0.9l-0.9,1.1c-0.5-0.4-0.9-0.6-1.5-0.6
						c-1.4,0-2.4,1.2-2.4,2.9c0,1.7,0.9,2.9,2.3,2.9c0.7,0,1.3-0.3,1.8-0.8l0.7,1.1c-0.7,0.7-1.7,1-2.7,1
						C122.2,52.2,120.5,50.6,120.5,47.9z"/>
					<path class="st2" d="M127.8,47.9c0-2.8,1.8-4.4,3.9-4.4c2,0,3.9,1.6,3.9,4.4c0,2.7-1.8,4.3-3.9,4.3
						C129.7,52.2,127.8,50.6,127.8,47.9z M133.8,47.9c0-1.8-0.8-2.9-2.1-2.9c-1.3,0-2.1,1.2-2.1,2.9c0,1.7,0.8,2.9,2.1,2.9
						C133,50.8,133.8,49.6,133.8,47.9z"/>
					<path class="st2" d="M136.7,51.1l0.8-1.1c0.7,0.6,1.5,0.9,2.3,0.9c1,0,1.5-0.5,1.5-1.1c0-0.8-0.9-1.1-1.8-1.4
						c-1.1-0.4-2.4-1-2.4-2.4c0-1.4,1.1-2.4,2.9-2.4c1.1,0,2,0.5,2.7,1l-0.8,1.1c-0.6-0.4-1.2-0.7-1.8-0.7c-0.9,0-1.3,0.5-1.3,1
						c0,0.7,0.9,1,1.8,1.3c1.2,0.4,2.4,0.9,2.4,2.5c0,1.4-1.1,2.5-3.1,2.5C138.7,52.2,137.5,51.7,136.7,51.1z"/>
					<path class="st2" d="M144.8,43.8h1.4l0.1,1.2h0c0.7-0.8,1.5-1.4,2.5-1.4c1.2,0,1.9,0.6,2.3,1.5c0.8-0.9,1.6-1.5,2.7-1.5
						c1.7,0,2.5,1.2,2.5,3.3V52h-1.7v-5c0-1.4-0.5-2-1.4-2c-0.6,0-1.2,0.4-1.9,1.1V52h-1.7v-5c0-1.4-0.4-2-1.4-2
						c-0.6,0-1.2,0.4-1.9,1.1V52h-1.7V43.8z"/>
					<path class="st2" d="M158.3,47.9c0-2.7,1.8-4.4,3.8-4.4c2.2,0,3.4,1.6,3.4,3.9c0,0.3,0,0.7-0.1,0.9H160
						c0.1,1.6,1.1,2.5,2.5,2.5c0.7,0,1.4-0.2,2-0.6l0.6,1.1c-0.8,0.5-1.7,0.9-2.8,0.9C160.1,52.2,158.3,50.6,158.3,47.9z M164,47.1
						c0-1.4-0.6-2.2-1.8-2.2c-1,0-1.9,0.8-2.1,2.2H164z"/>
					<path class="st2" d="M166.8,47.9c0-2.8,1.9-4.4,4.1-4.4c1,0,1.8,0.4,2.4,0.9l-0.9,1.1c-0.4-0.4-0.9-0.6-1.5-0.6
						c-1.4,0-2.4,1.2-2.4,2.9c0,1.7,0.9,2.9,2.3,2.9c0.7,0,1.3-0.3,1.8-0.8l0.7,1.1c-0.7,0.7-1.7,1-2.7,1
						C168.5,52.2,166.8,50.6,166.8,47.9z"/>
					<path class="st2" d="M174.2,47.9c0-2.7,1.8-4.4,3.8-4.4c2.2,0,3.4,1.6,3.4,3.9c0,0.3,0,0.7-0.1,0.9h-5.4
						c0.1,1.6,1.1,2.5,2.5,2.5c0.7,0,1.4-0.2,2-0.6l0.6,1.1c-0.8,0.5-1.7,0.9-2.8,0.9C176,52.2,174.2,50.6,174.2,47.9z M179.8,47.1
						c0-1.4-0.6-2.2-1.8-2.2c-1,0-2,0.8-2.1,2.2H179.8z"/>
					<path class="st2" d="M183.1,48.9v-5.2h1.7v5c0,1.4,0.4,2,1.4,2c0.8,0,1.3-0.4,2-1.2v-5.7h1.7V52h-1.4l-0.1-1.2h0
						c-0.8,0.9-1.6,1.4-2.7,1.4C183.9,52.2,183.1,51,183.1,48.9z"/>
					<path class="st2" d="M192.8,49.3v-4.2h-1.2v-1.3l1.3-0.1l0.2-2.3h1.5v2.3h2.1v1.4h-2.1v4.2c0,1,0.3,1.5,1.2,1.5
						c0.3,0,0.6-0.1,0.9-0.2l0.3,1.3c-0.5,0.2-1,0.3-1.6,0.3C193.5,52.2,192.8,51,192.8,49.3z"/>
					<path class="st2" d="M198.2,41.2c0-0.6,0.5-1,1.1-1s1.1,0.4,1.1,1c0,0.6-0.5,1-1.1,1S198.2,41.8,198.2,41.2z M198.5,43.8h1.7
						V52h-1.7V43.8z"/>
					<path class="st2" d="M202.2,47.9c0-2.8,1.9-4.4,4.1-4.4c1,0,1.8,0.4,2.4,0.9l-0.9,1.1c-0.4-0.4-0.9-0.6-1.5-0.6
						c-1.4,0-2.4,1.2-2.4,2.9c0,1.7,0.9,2.9,2.3,2.9c0.7,0,1.3-0.3,1.8-0.8l0.7,1.1c-0.7,0.7-1.7,1-2.7,1
						C203.9,52.2,202.2,50.6,202.2,47.9z"/>
					<path class="st2" d="M209.9,49.8c0-1.8,1.5-2.7,4.9-3.1c0-1-0.4-1.8-1.6-1.8c-0.9,0-1.7,0.4-2.4,0.8l-0.6-1.2
						c0.9-0.5,2-1.1,3.3-1.1c2.1,0,3,1.3,3,3.5v5h-1.4l-0.1-0.9h0c-0.8,0.6-1.6,1.1-2.6,1.1C210.9,52.2,209.9,51.3,209.9,49.8z
						 M214.8,49.9v-2c-2.4,0.3-3.3,0.9-3.3,1.8c0,0.8,0.6,1.1,1.3,1.1C213.6,50.8,214.2,50.5,214.8,49.9z"/>
					<path class="st2" d="M219,50.1V40h1.7v10.1c0,0.5,0.2,0.6,0.4,0.6c0.1,0,0.1,0,0.3,0l0.2,1.3c-0.2,0.1-0.5,0.1-0.9,0.1
						C219.5,52.2,219,51.4,219,50.1z"/>
					<path class="st2" d="M222.6,51.1l0.8-1.1c0.7,0.6,1.5,0.9,2.3,0.9c1,0,1.5-0.5,1.5-1.1c0-0.8-0.9-1.1-1.8-1.4
						c-1.1-0.4-2.4-1-2.4-2.4c0-1.4,1.1-2.4,2.9-2.4c1.1,0,2,0.5,2.7,1l-0.8,1.1c-0.6-0.4-1.2-0.7-1.8-0.7c-0.9,0-1.3,0.5-1.3,1
						c0,0.7,0.9,1,1.8,1.3c1.2,0.4,2.4,0.9,2.4,2.5c0,1.4-1.1,2.5-3.1,2.5C224.6,52.2,223.4,51.7,222.6,51.1z"/>
				</g>
				<text transform="matrix(1 0 0 1 229.3632 52)" class="st2 st3 st4"> </text>
				<g class="st1">
					<path class="st2" d="M30.8,69.9c0-2.7,1.7-4.4,3.5-4.4c0.9,0,1.5,0.4,2.2,0.9l-0.1-1.4V62h1.7v12h-1.4l-0.1-0.9h0
						c-0.6,0.6-1.5,1.1-2.4,1.1C32.1,74.2,30.8,72.6,30.8,69.9z M36.4,71.8v-4c-0.6-0.6-1.2-0.8-1.8-0.8c-1.2,0-2.1,1.1-2.1,2.9
						c0,1.9,0.7,2.9,2,2.9C35.2,72.8,35.8,72.5,36.4,71.8z"/>
					<path class="st2" d="M40.2,69.9c0-2.7,1.8-4.4,3.8-4.4c2.2,0,3.4,1.6,3.4,3.9c0,0.3,0,0.7-0.1,0.9h-5.4
						c0.1,1.6,1.1,2.5,2.5,2.5c0.7,0,1.4-0.2,2-0.6l0.6,1.1c-0.8,0.5-1.7,0.9-2.8,0.9C42,74.2,40.2,72.6,40.2,69.9z M45.8,69.1
						c0-1.4-0.6-2.2-1.8-2.2c-1,0-1.9,0.8-2.1,2.2H45.8z"/>
					<path class="st2" d="M48.1,65.8h1.8l1.4,4.4c0.2,0.8,0.5,1.6,0.7,2.5h0.1c0.2-0.8,0.5-1.7,0.7-2.5l1.4-4.4h1.7L53,74h-2
						L48.1,65.8z"/>
					<path class="st2" d="M56.7,69.9c0-2.7,1.8-4.4,3.8-4.4c2.2,0,3.4,1.6,3.4,3.9c0,0.3,0,0.7-0.1,0.9h-5.4
						c0.1,1.6,1.1,2.5,2.5,2.5c0.7,0,1.4-0.2,2-0.6l0.6,1.1c-0.8,0.5-1.7,0.9-2.8,0.9C58.5,74.2,56.7,72.6,56.7,69.9z M62.4,69.1
						c0-1.4-0.6-2.2-1.8-2.2c-1,0-1.9,0.8-2.1,2.2H62.4z"/>
					<path class="st2" d="M65.8,72.1V62h1.7v10.1c0,0.5,0.2,0.6,0.4,0.6c0.1,0,0.1,0,0.3,0l0.2,1.3c-0.2,0.1-0.5,0.1-0.9,0.1
						C66.3,74.2,65.8,73.4,65.8,72.1z"/>
					<path class="st2" d="M69.7,69.9c0-2.8,1.8-4.4,3.9-4.4c2,0,3.9,1.6,3.9,4.4c0,2.7-1.8,4.3-3.9,4.3
						C71.5,74.2,69.7,72.6,69.7,69.9z M75.7,69.9c0-1.8-0.8-2.9-2.1-2.9c-1.3,0-2.1,1.2-2.1,2.9c0,1.7,0.8,2.9,2.1,2.9
						C74.9,72.8,75.7,71.6,75.7,69.9z"/>
					<path class="st2" d="M79.5,65.8h1.4l0.1,0.9h0c0.7-0.6,1.6-1.1,2.5-1.1c2.1,0,3.3,1.7,3.3,4.2c0,2.8-1.7,4.5-3.6,4.5
						c-0.7,0-1.5-0.3-2.2-0.9l0,1.4v2.7h-1.7V65.8z M85.1,69.8c0-1.7-0.6-2.8-1.9-2.8c-0.6,0-1.3,0.3-2,1v4c0.6,0.6,1.3,0.8,1.8,0.8
						C84.2,72.8,85.1,71.7,85.1,69.8z"/>
					<path class="st2" d="M88.3,69.9c0-2.7,1.8-4.4,3.8-4.4c2.2,0,3.4,1.6,3.4,3.9c0,0.3,0,0.7-0.1,0.9H90c0.1,1.6,1.1,2.5,2.5,2.5
						c0.7,0,1.4-0.2,2-0.6l0.6,1.1c-0.8,0.5-1.7,0.9-2.8,0.9C90.1,74.2,88.3,72.6,88.3,69.9z M94,69.1c0-1.4-0.6-2.2-1.8-2.2
						c-1,0-1.9,0.8-2.1,2.2H94z"/>
					<path class="st2" d="M96.8,69.9c0-2.7,1.7-4.4,3.5-4.4c0.9,0,1.5,0.4,2.2,0.9l-0.1-1.4V62h1.7v12h-1.4l-0.1-0.9h0
						c-0.6,0.6-1.5,1.1-2.4,1.1C98.2,74.2,96.8,72.6,96.8,69.9z M102.5,71.8v-4c-0.6-0.6-1.2-0.8-1.8-0.8c-1.2,0-2.1,1.1-2.1,2.9
						c0,1.9,0.7,2.9,2,2.9C101.3,72.8,101.9,72.5,102.5,71.8z"/>
					<path class="st2" d="M114.2,63.4c-0.3-0.1-0.6-0.2-0.9-0.2c-0.7,0-1.1,0.5-1.1,1.5v1h1.7v1.4h-1.7V74h-1.7v-6.9h-1.1v-1.3
						l1.1-0.1v-1c0-1.7,0.8-2.9,2.6-2.9c0.6,0,1.1,0.1,1.5,0.3L114.2,63.4z"/>
					<path class="st2" d="M115.4,65.8h1.4l0.1,1.5h0c0.6-1.1,1.5-1.7,2.3-1.7c0.4,0,0.7,0.1,0.9,0.2l-0.3,1.5
						c-0.3-0.1-0.5-0.1-0.8-0.1c-0.7,0-1.5,0.5-2,1.8V74h-1.7V65.8z"/>
					<path class="st2" d="M120.8,69.9c0-2.8,1.8-4.4,3.9-4.4c2,0,3.9,1.6,3.9,4.4c0,2.7-1.8,4.3-3.9,4.3
						C122.6,74.2,120.8,72.6,120.8,69.9z M126.8,69.9c0-1.8-0.8-2.9-2.1-2.9c-1.3,0-2.1,1.2-2.1,2.9c0,1.7,0.8,2.9,2.1,2.9
						C126,72.8,126.8,71.6,126.8,69.9z"/>
					<path class="st2" d="M130.6,65.8h1.4l0.1,1.2h0c0.7-0.8,1.5-1.4,2.5-1.4c1.2,0,1.9,0.6,2.3,1.5c0.8-0.9,1.6-1.5,2.7-1.5
						c1.7,0,2.5,1.2,2.5,3.3V74h-1.7v-5c0-1.4-0.5-2-1.4-2c-0.6,0-1.2,0.4-1.9,1.1V74h-1.7v-5c0-1.4-0.4-2-1.4-2
						c-0.6,0-1.2,0.4-1.9,1.1V74h-1.7V65.8z"/>
				</g>
				<text transform="matrix(1 0 0 1 143.3984 74)" class="st2 st3 st4"> </text>
				<g class="st1">
					<path class="st2" d="M30.4,95.1l0.8-1.1c0.7,0.6,1.5,0.9,2.3,0.9c1,0,1.5-0.5,1.5-1.1c0-0.8-0.9-1.1-1.8-1.4
						c-1.1-0.4-2.4-1-2.4-2.4c0-1.4,1.1-2.4,2.9-2.4c1.1,0,2,0.5,2.7,1l-0.8,1.1c-0.6-0.4-1.2-0.7-1.8-0.7c-0.9,0-1.3,0.5-1.3,1
						c0,0.7,0.9,1,1.8,1.3c1.2,0.4,2.4,0.9,2.4,2.5c0,1.4-1.1,2.5-3.1,2.5C32.4,96.2,31.2,95.7,30.4,95.1z"/>
					<path class="st2" d="M38.4,92.9v-5.2h1.7v5c0,1.4,0.4,2,1.4,2c0.8,0,1.3-0.4,2-1.2v-5.7h1.7V96h-1.4l-0.1-1.2h0
						c-0.8,0.9-1.6,1.4-2.7,1.4C39.2,96.2,38.4,95,38.4,92.9z"/>
					<path class="st2" d="M46.9,95.1l0.8-1.1c0.7,0.6,1.5,0.9,2.3,0.9c1,0,1.5-0.5,1.5-1.1c0-0.8-0.9-1.1-1.8-1.4
						c-1.1-0.4-2.4-1-2.4-2.4c0-1.4,1.1-2.4,2.9-2.4c1.1,0,2,0.5,2.7,1l-0.8,1.1c-0.6-0.4-1.2-0.7-1.8-0.7c-0.9,0-1.3,0.5-1.3,1
						c0,0.7,0.9,1,1.8,1.3c1.2,0.4,2.4,0.9,2.4,2.5c0,1.4-1.1,2.5-3.1,2.5C48.9,96.2,47.7,95.7,46.9,95.1z"/>
					<path class="st2" d="M54.9,93.3v-4.2h-1.2v-1.3l1.3-0.1l0.2-2.3h1.5v2.3h2.1v1.4h-2.1v4.2c0,1,0.3,1.5,1.2,1.5
						c0.3,0,0.6-0.1,0.9-0.2l0.3,1.3c-0.5,0.2-1,0.3-1.6,0.3C55.6,96.2,54.9,95,54.9,93.3z"/>
					<path class="st2" d="M59.8,93.8c0-1.8,1.5-2.7,4.9-3.1c0-1-0.4-1.8-1.6-1.8c-0.9,0-1.7,0.4-2.4,0.8l-0.6-1.2
						c0.9-0.5,2-1.1,3.3-1.1c2.1,0,3,1.3,3,3.5v5H65l-0.1-0.9h0c-0.8,0.6-1.6,1.1-2.6,1.1C60.8,96.2,59.8,95.3,59.8,93.8z
						 M64.7,93.9v-2c-2.4,0.3-3.3,0.9-3.3,1.8c0,0.8,0.6,1.1,1.3,1.1C63.5,94.8,64,94.5,64.7,93.9z"/>
					<path class="st2" d="M68.6,85.2c0-0.6,0.5-1,1.1-1c0.6,0,1.1,0.4,1.1,1c0,0.6-0.5,1-1.1,1C69.1,86.2,68.6,85.8,68.6,85.2z
						 M68.9,87.8h1.7V96h-1.7V87.8z"/>
					<path class="st2" d="M73.2,87.8h1.4l0.1,1.1h0c0.8-0.7,1.6-1.4,2.7-1.4c1.8,0,2.5,1.2,2.5,3.3V96h-1.7v-5c0-1.4-0.4-2-1.4-2
						c-0.8,0-1.3,0.4-2,1.1V96h-1.7V87.8z"/>
					<path class="st2" d="M82.1,93.8c0-1.8,1.5-2.7,4.9-3.1c0-1-0.4-1.8-1.6-1.8c-0.9,0-1.7,0.4-2.4,0.8l-0.6-1.2
						c0.9-0.5,2-1.1,3.3-1.1c2.1,0,3,1.3,3,3.5v5h-1.4l-0.1-0.9h0c-0.8,0.6-1.6,1.1-2.6,1.1C83.1,96.2,82.1,95.3,82.1,93.8z
						 M87,93.9v-2c-2.4,0.3-3.3,0.9-3.3,1.8c0,0.8,0.6,1.1,1.3,1.1C85.7,94.8,86.3,94.5,87,93.9z"/>
					<path class="st2" d="M92.7,95.1L92.7,95.1L92.5,96h-1.3V84h1.7v3.2l0,1.4c0.7-0.6,1.6-1.1,2.5-1.1c2.1,0,3.3,1.7,3.3,4.2
						c0,2.8-1.7,4.5-3.6,4.5C94.3,96.2,93.4,95.8,92.7,95.1z M96.8,91.8c0-1.7-0.6-2.8-1.9-2.8c-0.6,0-1.3,0.3-2,1v4
						c0.6,0.6,1.3,0.8,1.8,0.8C95.9,94.8,96.8,93.7,96.8,91.8z"/>
					<path class="st2" d="M100.6,94.1V84h1.7v10.1c0,0.5,0.2,0.6,0.4,0.6c0.1,0,0.1,0,0.3,0l0.2,1.3c-0.2,0.1-0.5,0.1-0.9,0.1
						C101.1,96.2,100.6,95.4,100.6,94.1z"/>
					<path class="st2" d="M104.5,91.9c0-2.7,1.8-4.4,3.8-4.4c2.2,0,3.4,1.6,3.4,3.9c0,0.3,0,0.7-0.1,0.9h-5.4
						c0.1,1.6,1.1,2.5,2.5,2.5c0.7,0,1.4-0.2,2-0.6l0.6,1.1c-0.8,0.5-1.7,0.9-2.8,0.9C106.3,96.2,104.5,94.6,104.5,91.9z
						 M110.1,91.1c0-1.4-0.6-2.2-1.8-2.2c-1,0-1.9,0.8-2.1,2.2H110.1z"/>
					<path class="st2" d="M116.9,87.8h1.4l0.1,1.1h0c0.8-0.7,1.6-1.4,2.7-1.4c1.8,0,2.5,1.2,2.5,3.3V96h-1.7v-5c0-1.4-0.4-2-1.4-2
						c-0.8,0-1.3,0.4-2,1.1V96h-1.7V87.8z"/>
					<path class="st2" d="M125.8,93.8c0-1.8,1.5-2.7,4.9-3.1c0-1-0.4-1.8-1.6-1.8c-0.9,0-1.7,0.4-2.4,0.8l-0.6-1.2
						c0.9-0.5,2-1.1,3.3-1.1c2.1,0,3,1.3,3,3.5v5h-1.4l-0.1-0.9h0c-0.8,0.6-1.6,1.1-2.6,1.1C126.8,96.2,125.8,95.3,125.8,93.8z
						 M130.7,93.9v-2c-2.4,0.3-3.3,0.9-3.3,1.8c0,0.8,0.6,1.1,1.3,1.1C129.5,94.8,130.1,94.5,130.7,93.9z"/>
					<path class="st2" d="M134.9,93.3v-4.2h-1.2v-1.3l1.3-0.1l0.2-2.3h1.5v2.3h2.1v1.4h-2.1v4.2c0,1,0.3,1.5,1.2,1.5
						c0.3,0,0.6-0.1,0.9-0.2l0.3,1.3c-0.5,0.2-1,0.3-1.6,0.3C135.6,96.2,134.9,95,134.9,93.3z"/>
					<path class="st2" d="M140.5,92.9v-5.2h1.7v5c0,1.4,0.4,2,1.4,2c0.8,0,1.3-0.4,2-1.2v-5.7h1.7V96h-1.4l-0.1-1.2h0
						c-0.8,0.9-1.6,1.4-2.7,1.4C141.3,96.2,140.5,95,140.5,92.9z"/>
					<path class="st2" d="M149.9,87.8h1.4l0.1,1.5h0c0.6-1.1,1.5-1.7,2.3-1.7c0.4,0,0.7,0.1,0.9,0.2l-0.3,1.5
						c-0.3-0.1-0.5-0.1-0.8-0.1c-0.7,0-1.5,0.5-2,1.8V96h-1.7V87.8z"/>
					<path class="st2" d="M155.1,93.8c0-1.8,1.5-2.7,4.9-3.1c0-1-0.4-1.8-1.6-1.8c-0.9,0-1.7,0.4-2.4,0.8l-0.6-1.2
						c0.9-0.5,2-1.1,3.3-1.1c2.1,0,3,1.3,3,3.5v5h-1.4l-0.1-0.9h0c-0.8,0.6-1.6,1.1-2.6,1.1C156.1,96.2,155.1,95.3,155.1,93.8z
						 M160.1,93.9v-2c-2.4,0.3-3.3,0.9-3.3,1.8c0,0.8,0.6,1.1,1.3,1.1C158.8,94.8,159.4,94.5,160.1,93.9z"/>
					<path class="st2" d="M164.2,94.1V84h1.7v10.1c0,0.5,0.2,0.6,0.4,0.6c0.1,0,0.1,0,0.3,0l0.2,1.3c-0.2,0.1-0.5,0.1-0.9,0.1
						C164.7,96.2,164.2,95.4,164.2,94.1z"/>
					<path class="st2" d="M171.2,95.1l0.8-1.1c0.7,0.6,1.5,0.9,2.3,0.9c1,0,1.5-0.5,1.5-1.1c0-0.8-0.9-1.1-1.8-1.4
						c-1.1-0.4-2.4-1-2.4-2.4c0-1.4,1.1-2.4,2.9-2.4c1.1,0,2,0.5,2.7,1l-0.8,1.1c-0.6-0.4-1.2-0.7-1.8-0.7c-0.9,0-1.3,0.5-1.3,1
						c0,0.7,0.9,1,1.8,1.3c1.2,0.4,2.4,0.9,2.4,2.5c0,1.4-1.1,2.5-3.1,2.5C173.2,96.2,172,95.7,171.2,95.1z"/>
					<path class="st2" d="M178.7,91.9c0-2.8,1.8-4.4,3.9-4.4c2,0,3.9,1.6,3.9,4.4c0,2.7-1.8,4.3-3.9,4.3
						C180.5,96.2,178.7,94.6,178.7,91.9z M184.7,91.9c0-1.8-0.8-2.9-2.1-2.9c-1.3,0-2.1,1.2-2.1,2.9c0,1.7,0.8,2.9,2.1,2.9
						C183.9,94.8,184.7,93.6,184.7,91.9z"/>
					<path class="st2" d="M188.4,92.9v-5.2h1.7v5c0,1.4,0.4,2,1.4,2c0.8,0,1.3-0.4,2-1.2v-5.7h1.7V96h-1.4l-0.1-1.2h0
						c-0.8,0.9-1.6,1.4-2.7,1.4C189.1,96.2,188.4,95,188.4,92.9z"/>
					<path class="st2" d="M197.8,87.8h1.4l0.1,1.5h0c0.6-1.1,1.5-1.7,2.3-1.7c0.4,0,0.7,0.1,0.9,0.2l-0.3,1.5
						c-0.3-0.1-0.5-0.1-0.8-0.1c-0.7,0-1.5,0.5-2,1.8V96h-1.7V87.8z"/>
					<path class="st2" d="M203.2,91.9c0-2.8,1.9-4.4,4.1-4.4c1,0,1.8,0.4,2.4,0.9l-0.9,1.1c-0.5-0.4-0.9-0.6-1.5-0.6
						c-1.4,0-2.4,1.2-2.4,2.9c0,1.7,0.9,2.9,2.3,2.9c0.7,0,1.3-0.3,1.8-0.8l0.7,1.1c-0.7,0.7-1.7,1-2.7,1
						C204.9,96.2,203.2,94.6,203.2,91.9z"/>
					<path class="st2" d="M210.5,91.9c0-2.7,1.8-4.4,3.8-4.4c2.2,0,3.4,1.6,3.4,3.9c0,0.3,0,0.7-0.1,0.9h-5.4
						c0.1,1.6,1.1,2.5,2.5,2.5c0.7,0,1.4-0.2,2-0.6l0.6,1.1c-0.8,0.5-1.7,0.9-2.8,0.9C212.3,96.2,210.5,94.6,210.5,91.9z
						 M216.2,91.1c0-1.4-0.6-2.2-1.8-2.2c-1,0-2,0.8-2.1,2.2H216.2z"/>
					<path class="st2" d="M218.7,95.1l0.8-1.1c0.7,0.6,1.5,0.9,2.3,0.9c1,0,1.5-0.5,1.5-1.1c0-0.8-0.9-1.1-1.8-1.4
						c-1.1-0.4-2.4-1-2.4-2.4c0-1.4,1.1-2.4,2.9-2.4c1.1,0,2,0.5,2.7,1l-0.8,1.1c-0.6-0.4-1.2-0.7-1.8-0.7c-0.9,0-1.3,0.5-1.3,1
						c0,0.7,0.9,1,1.8,1.3c1.2,0.4,2.4,0.9,2.4,2.5c0,1.4-1.1,2.5-3.1,2.5C220.7,96.2,219.5,95.7,218.7,95.1z"/>
				</g>
				<g class="st1">
					<path class="st2" d="M30.7,133.5h3.7v0.7h-3.7V133.5z"/>
					<path class="st2" d="M39.9,127.1h2.6c3.4,0,5,2.1,5,5.4s-1.6,5.5-5,5.5h-2.6V127.1z M42.4,137.2c2.9,0,4.2-1.9,4.2-4.7
						s-1.3-4.7-4.2-4.7h-1.6v9.4H42.4z"/>
					<path class="st2" d="M49.2,134c0-2.6,1.7-4.2,3.5-4.2c1.9,0,3.1,1.4,3.1,3.7c0,0.2,0,0.4,0,0.6h-5.7c0,1.9,1.2,3.3,2.9,3.3
						c0.9,0,1.5-0.3,2.1-0.7l0.3,0.6c-0.6,0.4-1.4,0.8-2.5,0.8C50.9,138.2,49.2,136.6,49.2,134z M55,133.5c0-1.9-0.9-2.9-2.3-2.9
						c-1.3,0-2.5,1.1-2.6,2.9H55z"/>
					<path class="st2" d="M56.8,130h0.9l1.7,4.9c0.3,0.8,0.5,1.6,0.8,2.3h0.1c0.3-0.7,0.5-1.5,0.8-2.3l1.7-4.9h0.9l-2.9,8h-1
						L56.8,130z"/>
					<path class="st2" d="M64.8,134c0-2.6,1.7-4.2,3.5-4.2c1.9,0,3.1,1.4,3.1,3.7c0,0.2,0,0.4,0,0.6h-5.7c0,1.9,1.2,3.3,2.9,3.3
						c0.9,0,1.5-0.3,2.1-0.7l0.3,0.6c-0.6,0.4-1.4,0.8-2.5,0.8C66.5,138.2,64.8,136.6,64.8,134z M70.6,133.5c0-1.9-0.9-2.9-2.3-2.9
						c-1.3,0-2.5,1.1-2.6,2.9H70.6z"/>
					<path class="st2" d="M73.5,136.8v-10.7h0.9v10.8c0,0.4,0.1,0.5,0.4,0.5c0.1,0,0.1,0,0.3,0l0.1,0.7c-0.1,0-0.3,0.1-0.6,0.1
						C73.9,138.2,73.5,137.7,73.5,136.8z"/>
					<path class="st2" d="M76.9,134c0-2.7,1.7-4.2,3.6-4.2c1.9,0,3.6,1.5,3.6,4.2c0,2.7-1.7,4.2-3.6,4.2
						C78.6,138.2,76.9,136.7,76.9,134z M83.2,134c0-2-1.2-3.4-2.7-3.4c-1.6,0-2.7,1.4-2.7,3.4c0,2,1.1,3.4,2.7,3.4
						C82.1,137.4,83.2,136,83.2,134z"/>
					<path class="st2" d="M86.5,130h0.7l0.1,1h0c0.8-0.6,1.7-1.2,2.7-1.2c2.1,0,3.2,1.6,3.2,4.1c0,2.7-1.6,4.3-3.5,4.3
						c-0.8,0-1.5-0.3-2.4-1l0,1.5v2.9h-0.9V130z M92.3,133.9c0-1.9-0.7-3.3-2.4-3.3c-0.8,0-1.6,0.5-2.5,1.3v4.6c0.9,0.7,1.7,1,2.3,1
						C91.2,137.4,92.3,136,92.3,133.9z"/>
					<path class="st2" d="M98.2,134c0-2.7,1.7-4.2,3.7-4.2c1.1,0,1.8,0.5,2.3,1l-0.5,0.6c-0.5-0.5-1.1-0.8-1.8-0.8
						c-1.6,0-2.8,1.4-2.8,3.4c0,2,1.1,3.4,2.8,3.4c0.8,0,1.5-0.4,2.1-0.9l0.4,0.6c-0.7,0.6-1.5,1-2.5,1
						C99.8,138.2,98.2,136.7,98.2,134z"/>
					<path class="st2" d="M105.4,134c0-2.7,1.7-4.2,3.6-4.2c1.9,0,3.6,1.5,3.6,4.2c0,2.7-1.7,4.2-3.6,4.2
						C107.1,138.2,105.4,136.7,105.4,134z M111.7,134c0-2-1.2-3.4-2.7-3.4c-1.6,0-2.7,1.4-2.7,3.4c0,2,1.1,3.4,2.7,3.4
						C110.5,137.4,111.7,136,111.7,134z"/>
					<path class="st2" d="M114,137.1l0.5-0.6c0.7,0.6,1.4,1,2.5,1c1.2,0,1.8-0.7,1.8-1.5c0-0.9-1-1.4-1.9-1.7
						c-1.2-0.4-2.5-0.9-2.5-2.3c0-1.2,0.9-2.2,2.6-2.2c0.9,0,1.7,0.4,2.3,0.9l-0.4,0.6c-0.5-0.4-1.1-0.7-1.9-0.7
						c-1.2,0-1.7,0.7-1.7,1.4c0,0.9,0.9,1.2,1.9,1.6c1.2,0.5,2.6,0.9,2.6,2.4c0,1.2-1,2.3-2.7,2.3
						C115.7,138.2,114.7,137.7,114,137.1z"/>
					<path class="st2" d="M121.7,130h0.7l0.1,1.2h0c0.7-0.8,1.6-1.4,2.5-1.4c1.3,0,1.9,0.6,2.2,1.6c0.9-1,1.8-1.6,2.7-1.6
						c1.6,0,2.4,1,2.4,3.1v5.1h-0.9v-5c0-1.7-0.6-2.4-1.7-2.4c-0.7,0-1.5,0.5-2.3,1.4v6h-0.9v-5c0-1.7-0.5-2.4-1.7-2.4
						c-0.7,0-1.5,0.5-2.3,1.4v6h-0.9V130z"/>
					<path class="st2" d="M134.6,134c0-2.6,1.7-4.2,3.5-4.2c1.9,0,3.1,1.4,3.1,3.7c0,0.2,0,0.4,0,0.6h-5.7c0,1.9,1.2,3.3,2.9,3.3
						c0.9,0,1.5-0.3,2.1-0.7l0.3,0.6c-0.6,0.4-1.4,0.8-2.5,0.8C136.3,138.2,134.6,136.6,134.6,134z M140.4,133.5
						c0-1.9-0.9-2.9-2.3-2.9c-1.3,0-2.5,1.1-2.6,2.9H140.4z"/>
					<path class="st2" d="M142.7,134c0-2.7,1.7-4.2,3.7-4.2c1.1,0,1.8,0.5,2.3,1l-0.5,0.6c-0.5-0.5-1.1-0.8-1.8-0.8
						c-1.6,0-2.8,1.4-2.8,3.4c0,2,1.1,3.4,2.8,3.4c0.8,0,1.5-0.4,2.1-0.9l0.4,0.6c-0.7,0.6-1.5,1-2.5,1
						C144.3,138.2,142.7,136.7,142.7,134z"/>
					<path class="st2" d="M149.9,134c0-2.6,1.7-4.2,3.5-4.2c1.9,0,3.1,1.4,3.1,3.7c0,0.2,0,0.4,0,0.6h-5.7c0,1.9,1.2,3.3,2.9,3.3
						c0.9,0,1.5-0.3,2.1-0.7l0.3,0.6c-0.6,0.4-1.4,0.8-2.6,0.8C151.5,138.2,149.9,136.6,149.9,134z M155.7,133.5
						c0-1.9-0.9-2.9-2.3-2.9c-1.3,0-2.5,1.1-2.6,2.9H155.7z"/>
					<path class="st2" d="M158.5,135.1V130h0.9v5c0,1.6,0.5,2.4,1.7,2.4c0.9,0,1.6-0.5,2.5-1.6V130h0.9v8h-0.7l-0.1-1.3h0
						c-0.8,0.9-1.6,1.5-2.7,1.5C159.2,138.2,158.5,137.2,158.5,135.1z"/>
					<path class="st2" d="M167.6,135.7v-5h-1.2v-0.7l1.3-0.1l0.1-2.3h0.7v2.3h2.3v0.7h-2.3v5c0,1,0.3,1.7,1.3,1.7
						c0.3,0,0.7-0.1,1-0.2l0.2,0.7c-0.5,0.2-1,0.3-1.3,0.3C168.1,138.2,167.6,137.2,167.6,135.7z"/>
					<path class="st2" d="M172.4,127.4c0-0.5,0.3-0.7,0.7-0.7c0.4,0,0.7,0.3,0.7,0.7c0,0.4-0.3,0.7-0.7,0.7
						C172.8,128.1,172.4,127.8,172.4,127.4z M172.7,130h0.9v8h-0.9V130z"/>
					<path class="st2" d="M175.9,134c0-2.7,1.7-4.2,3.7-4.2c1.1,0,1.8,0.5,2.3,1l-0.5,0.6c-0.5-0.5-1.1-0.8-1.8-0.8
						c-1.6,0-2.8,1.4-2.8,3.4c0,2,1.1,3.4,2.8,3.4c0.8,0,1.5-0.4,2.1-0.9l0.4,0.6c-0.7,0.6-1.5,1-2.5,1
						C177.5,138.2,175.9,136.7,175.9,134z"/>
					<path class="st2" d="M183.3,136c0-1.8,1.6-2.6,5.1-3c0-1.2-0.3-2.4-1.8-2.4c-1.1,0-2,0.5-2.5,0.9l-0.4-0.6
						c0.6-0.4,1.7-1.1,3-1.1c1.9,0,2.6,1.4,2.6,3.1v5.1h-0.7l-0.1-1h0c-0.8,0.7-1.8,1.2-2.8,1.2C184.4,138.2,183.3,137.5,183.3,136z
						 M188.4,136.2v-2.6c-3.2,0.4-4.2,1.1-4.2,2.3c0,1.1,0.8,1.5,1.6,1.5S187.5,137,188.4,136.2z"/>
					<path class="st2" d="M192.1,136.8v-10.7h0.9v10.8c0,0.4,0.2,0.5,0.4,0.5c0.1,0,0.1,0,0.3,0l0.1,0.7c-0.1,0-0.3,0.1-0.6,0.1
						C192.4,138.2,192.1,137.7,192.1,136.8z"/>
					<path class="st2" d="M199.4,130h0.7l0.1,1.5h0c0.5-1,1.3-1.7,2.3-1.7c0.3,0,0.6,0,0.8,0.2l-0.2,0.8c-0.3-0.1-0.4-0.1-0.7-0.1
						c-0.7,0-1.6,0.5-2.1,2v5.4h-0.9V130z"/>
					<path class="st2" d="M203.9,136c0-1.8,1.6-2.6,5.1-3c0-1.2-0.3-2.4-1.8-2.4c-1,0-2,0.5-2.5,0.9l-0.4-0.6c0.6-0.4,1.7-1.1,3-1.1
						c1.9,0,2.6,1.4,2.6,3.1v5.1h-0.7l-0.1-1h0c-0.8,0.7-1.8,1.2-2.8,1.2C204.9,138.2,203.9,137.5,203.9,136z M209,136.2v-2.6
						c-3.2,0.4-4.2,1.1-4.2,2.3c0,1.1,0.8,1.5,1.6,1.5C207.3,137.5,208.1,137,209,136.2z"/>
					<path class="st2" d="M211.6,130h0.9l1.4,5c0.2,0.8,0.4,1.5,0.5,2.2h0.1c0.2-0.7,0.4-1.4,0.6-2.2l1.4-5h1l1.4,5
						c0.2,0.8,0.4,1.5,0.6,2.2h0.1c0.2-0.7,0.4-1.4,0.6-2.2l1.4-5h0.9l-2.2,8h-1.1l-1.3-4.8c-0.2-0.8-0.4-1.5-0.6-2.3h-0.1
						c-0.2,0.8-0.4,1.5-0.6,2.3l-1.3,4.8h-1L211.6,130z"/>
					<path class="st2" d="M227.5,130h0.7l0.1,1.2h0c0.7-0.8,1.6-1.4,2.5-1.4c1.3,0,1.9,0.6,2.2,1.6c0.9-1,1.8-1.6,2.7-1.6
						c1.6,0,2.4,1,2.4,3.1v5.1h-0.9v-5c0-1.7-0.6-2.4-1.7-2.4c-0.7,0-1.5,0.5-2.3,1.4v6h-0.9v-5c0-1.7-0.5-2.4-1.7-2.4
						c-0.7,0-1.5,0.5-2.3,1.4v6h-0.9V130z"/>
					<path class="st2" d="M240.5,136c0-1.8,1.6-2.6,5.1-3c0-1.2-0.3-2.4-1.8-2.4c-1,0-2,0.5-2.5,0.9l-0.4-0.6c0.6-0.4,1.7-1.1,3-1.1
						c1.9,0,2.6,1.4,2.6,3.1v5.1h-0.7l-0.1-1h0c-0.8,0.7-1.8,1.2-2.8,1.2C241.5,138.2,240.5,137.5,240.5,136z M245.6,136.2v-2.6
						c-3.1,0.4-4.2,1.1-4.2,2.3c0,1.1,0.8,1.5,1.6,1.5C243.9,137.5,244.6,137,245.6,136.2z"/>
					<path class="st2" d="M249.3,135.7v-5H248v-0.7l1.3-0.1l0.1-2.3h0.7v2.3h2.3v0.7h-2.3v5c0,1,0.3,1.7,1.3,1.7
						c0.3,0,0.7-0.1,1-0.2l0.2,0.7c-0.5,0.2-1,0.3-1.3,0.3C249.7,138.2,249.3,137.2,249.3,135.7z"/>
					<path class="st2" d="M253.5,134c0-2.6,1.7-4.2,3.5-4.2c1.9,0,3.1,1.4,3.1,3.7c0,0.2,0,0.4,0,0.6h-5.7c0,1.9,1.2,3.3,2.9,3.3
						c0.9,0,1.5-0.3,2.1-0.7l0.3,0.6c-0.6,0.4-1.4,0.8-2.5,0.8C255.1,138.2,253.5,136.6,253.5,134z M259.3,133.5
						c0-1.9-0.9-2.9-2.3-2.9c-1.3,0-2.5,1.1-2.6,2.9H259.3z"/>
					<path class="st2" d="M262.2,130h0.7l0.1,1.5h0c0.5-1,1.3-1.7,2.3-1.7c0.3,0,0.6,0,0.8,0.2l-0.2,0.8c-0.3-0.1-0.4-0.1-0.7-0.1
						c-0.7,0-1.6,0.5-2.1,2v5.4h-0.9V130z"/>
					<path class="st2" d="M267.3,127.4c0-0.5,0.3-0.7,0.7-0.7c0.4,0,0.7,0.3,0.7,0.7c0,0.4-0.3,0.7-0.7,0.7
						C267.6,128.1,267.3,127.8,267.3,127.4z M267.6,130h0.9v8h-0.9V130z"/>
					<path class="st2" d="M270.9,136c0-1.8,1.6-2.6,5.1-3c0-1.2-0.3-2.4-1.8-2.4c-1,0-2,0.5-2.5,0.9l-0.4-0.6c0.6-0.4,1.7-1.1,3-1.1
						c1.9,0,2.6,1.4,2.6,3.1v5.1h-0.7l-0.1-1h0c-0.8,0.7-1.8,1.2-2.8,1.2C271.9,138.2,270.9,137.5,270.9,136z M276,136.2v-2.6
						c-3.1,0.4-4.2,1.1-4.2,2.3c0,1.1,0.8,1.5,1.6,1.5S275.1,137,276,136.2z"/>
					<path class="st2" d="M279.7,136.8v-10.7h0.9v10.8c0,0.4,0.2,0.5,0.4,0.5c0.1,0,0.1,0,0.3,0l0.1,0.7c-0.1,0-0.3,0.1-0.6,0.1
						C280,138.2,279.7,137.7,279.7,136.8z"/>
					<path class="st2" d="M282.7,137.1l0.5-0.6c0.7,0.6,1.4,1,2.5,1c1.2,0,1.8-0.7,1.8-1.5c0-0.9-1-1.4-1.9-1.7
						c-1.2-0.4-2.5-0.9-2.5-2.3c0-1.2,0.9-2.2,2.6-2.2c0.9,0,1.7,0.4,2.3,0.9l-0.4,0.6c-0.5-0.4-1.1-0.7-1.9-0.7
						c-1.2,0-1.7,0.7-1.7,1.4c0,0.9,0.9,1.2,1.9,1.6c1.2,0.5,2.6,0.9,2.6,2.4c0,1.2-1,2.3-2.7,2.3
						C284.5,138.2,283.4,137.7,282.7,137.1z"/>
				</g>
				<g class="st1">
					<path class="st2" d="M34.7,161.8c-0.3-0.2-0.6-0.2-0.9-0.2c-0.9,0-1.2,0.6-1.2,1.8v1.6h1.8v0.7h-1.8v7.3h-0.9v-7.3h-1.1v-0.7
						l1.1-0.1v-1.7c0-1.6,0.7-2.4,2.1-2.4c0.4,0,0.8,0.1,1.2,0.3L34.7,161.8z"/>
					<path class="st2" d="M36,165h0.7l0.1,1.5h0c0.5-1,1.3-1.7,2.3-1.7c0.3,0,0.6,0,0.8,0.2l-0.2,0.8c-0.3-0.1-0.4-0.1-0.7-0.1
						c-0.7,0-1.6,0.5-2.1,2v5.4H36V165z"/>
					<path class="st2" d="M40.5,169c0-2.7,1.7-4.2,3.6-4.2c1.9,0,3.6,1.5,3.6,4.2c0,2.7-1.7,4.2-3.6,4.2
						C42.2,173.2,40.5,171.7,40.5,169z M46.9,169c0-2-1.2-3.4-2.7-3.4c-1.6,0-2.7,1.4-2.7,3.4c0,2,1.1,3.4,2.7,3.4
						C45.7,172.4,46.9,171,46.9,169z"/>
					<path class="st2" d="M50.1,165h0.7l0.1,1.2h0c0.7-0.8,1.6-1.4,2.5-1.4c1.3,0,1.9,0.6,2.2,1.6c0.9-1,1.8-1.6,2.7-1.6
						c1.6,0,2.4,1,2.4,3.1v5.1h-0.9v-5c0-1.7-0.6-2.4-1.7-2.4c-0.7,0-1.5,0.5-2.3,1.4v6H55v-5c0-1.7-0.5-2.4-1.7-2.4
						c-0.7,0-1.5,0.5-2.3,1.4v6h-0.9V165z"/>
					<path class="st2" d="M66.3,169c0-2.6,1.7-4.2,3.5-4.2c1.9,0,3.1,1.4,3.1,3.7c0,0.2,0,0.4,0,0.6h-5.7c0,1.9,1.2,3.3,2.9,3.3
						c0.9,0,1.5-0.3,2.1-0.7l0.3,0.6c-0.6,0.4-1.4,0.8-2.6,0.8C68,173.2,66.3,171.6,66.3,169z M72.1,168.5c0-1.9-0.9-2.9-2.3-2.9
						c-1.3,0-2.5,1.1-2.6,2.9H72.1z"/>
					<path class="st2" d="M74.4,169c0-2.7,1.7-4.2,3.7-4.2c1.1,0,1.8,0.5,2.3,1l-0.5,0.6c-0.5-0.5-1.1-0.8-1.8-0.8
						c-1.6,0-2.8,1.4-2.8,3.4c0,2,1.1,3.4,2.8,3.4c0.8,0,1.5-0.4,2.1-0.9l0.4,0.6c-0.7,0.6-1.5,1-2.5,1
						C76,173.2,74.4,171.7,74.4,169z"/>
					<path class="st2" d="M81.6,169c0-2.7,1.7-4.2,3.6-4.2c1.9,0,3.6,1.5,3.6,4.2c0,2.7-1.7,4.2-3.6,4.2
						C83.2,173.2,81.6,171.7,81.6,169z M87.9,169c0-2-1.2-3.4-2.7-3.4c-1.6,0-2.7,1.4-2.7,3.4c0,2,1.1,3.4,2.7,3.4
						C86.7,172.4,87.9,171,87.9,169z"/>
					<path class="st2" d="M91.1,171.8v-10.7H92v10.8c0,0.4,0.1,0.5,0.4,0.5c0.1,0,0.1,0,0.3,0l0.1,0.7c-0.1,0-0.3,0.1-0.6,0.1
						C91.5,173.2,91.1,172.7,91.1,171.8z"/>
					<path class="st2" d="M94.5,169c0-2.7,1.7-4.2,3.6-4.2c1.9,0,3.6,1.5,3.6,4.2c0,2.7-1.7,4.2-3.6,4.2
						C96.2,173.2,94.5,171.7,94.5,169z M100.8,169c0-2-1.2-3.4-2.7-3.4c-1.6,0-2.7,1.4-2.7,3.4c0,2,1.1,3.4,2.7,3.4
						C99.7,172.4,100.8,171,100.8,169z"/>
					<path class="st2" d="M103.4,174.6c0-0.7,0.5-1.4,1.2-1.9v-0.1c-0.4-0.2-0.7-0.7-0.7-1.3c0-0.7,0.5-1.2,0.9-1.5v-0.1
						c-0.5-0.4-1-1.2-1-2.2c0-1.7,1.3-2.8,2.9-2.8c0.4,0,0.8,0.1,1.1,0.2h2.7v0.7h-1.8c0.5,0.4,0.8,1.1,0.8,1.9
						c0,1.6-1.2,2.8-2.8,2.8c-0.4,0-0.9-0.1-1.3-0.3c-0.3,0.3-0.6,0.6-0.6,1.1c0,0.6,0.3,1,1.5,1h1.7c1.8,0,2.7,0.6,2.7,1.8
						c0,1.4-1.5,2.7-3.8,2.7C104.7,176.8,103.4,176,103.4,174.6z M109.6,174.2c0-0.9-0.6-1.2-1.8-1.2h-1.6c-0.2,0-0.6,0-1-0.1
						c-0.7,0.5-1,1.1-1,1.6c0,1,0.9,1.6,2.6,1.6C108.5,176.1,109.6,175.2,109.6,174.2z M108.6,167.6c0-1.3-0.9-2.1-2-2.1
						c-1.1,0-2,0.8-2,2.1c0,1.3,0.9,2.2,2,2.2C107.6,169.8,108.6,168.9,108.6,167.6z"/>
					<path class="st2" d="M111.9,162.4c0-0.5,0.3-0.7,0.7-0.7c0.4,0,0.7,0.3,0.7,0.7c0,0.4-0.3,0.7-0.7,0.7
						C112.2,163.1,111.9,162.8,111.9,162.4z M112.2,165h0.9v8h-0.9V165z"/>
					<path class="st2" d="M115.4,169c0-2.7,1.7-4.2,3.7-4.2c1.1,0,1.8,0.5,2.3,1l-0.5,0.6c-0.5-0.5-1.1-0.8-1.8-0.8
						c-1.6,0-2.8,1.4-2.8,3.4c0,2,1.1,3.4,2.8,3.4c0.8,0,1.5-0.4,2.1-0.9l0.4,0.6c-0.7,0.6-1.5,1-2.5,1
						C117,173.2,115.4,171.7,115.4,169z"/>
					<path class="st2" d="M122.8,171c0-1.8,1.6-2.6,5.1-3c0-1.2-0.3-2.4-1.8-2.4c-1,0-2,0.5-2.5,0.9l-0.4-0.6c0.6-0.4,1.7-1.1,3-1.1
						c1.9,0,2.6,1.4,2.6,3.1v5.1h-0.7l-0.1-1h0c-0.8,0.7-1.8,1.2-2.8,1.2C123.9,173.2,122.8,172.5,122.8,171z M127.9,171.2v-2.6
						c-3.1,0.4-4.2,1.1-4.2,2.3c0,1.1,0.8,1.5,1.6,1.5C126.2,172.5,127,172,127.9,171.2z"/>
					<path class="st2" d="M131.6,171.8v-10.7h0.9v10.8c0,0.4,0.1,0.5,0.4,0.5c0.1,0,0.1,0,0.3,0l0.1,0.7c-0.1,0-0.3,0.1-0.6,0.1
						C131.9,173.2,131.6,172.7,131.6,171.8z"/>
					<path class="st2" d="M135.6,171.8v-10.7h0.9v10.8c0,0.4,0.1,0.5,0.4,0.5c0.1,0,0.1,0,0.3,0l0.1,0.7c-0.1,0-0.3,0.1-0.6,0.1
						C135.9,173.2,135.6,172.7,135.6,171.8z"/>
					<path class="st2" d="M138.5,176.4l0.2-0.7c0.2,0.1,0.4,0.1,0.6,0.1c1,0,1.6-0.9,2-2l0.2-0.7l-3.3-8.1h0.9l1.9,4.9
						c0.3,0.7,0.6,1.5,0.8,2.2h0.1c0.2-0.7,0.5-1.6,0.7-2.2l1.6-4.9h0.9l-3.1,8.9c-0.5,1.4-1.3,2.7-2.8,2.7
						C139,176.6,138.7,176.5,138.5,176.4z"/>
					<path class="st2" d="M149.3,172.1l0.5-0.6c0.7,0.6,1.4,1,2.5,1c1.2,0,1.8-0.7,1.8-1.5c0-0.9-1-1.4-1.9-1.7
						c-1.2-0.4-2.5-0.9-2.5-2.3c0-1.2,0.9-2.2,2.6-2.2c0.9,0,1.7,0.4,2.3,0.9l-0.4,0.6c-0.5-0.4-1.1-0.7-1.9-0.7
						c-1.2,0-1.7,0.7-1.7,1.4c0,0.9,0.9,1.2,1.9,1.6c1.2,0.5,2.6,0.9,2.6,2.4c0,1.2-1,2.3-2.7,2.3
						C151.1,173.2,150,172.7,149.3,172.1z"/>
					<path class="st2" d="M156.9,170.1V165h0.9v5c0,1.6,0.5,2.4,1.7,2.4c0.9,0,1.6-0.5,2.5-1.6V165h0.9v8h-0.7l-0.1-1.3h0
						c-0.8,0.9-1.6,1.5-2.7,1.5C157.7,173.2,156.9,172.2,156.9,170.1z"/>
					<path class="st2" d="M164.9,172.1l0.5-0.6c0.7,0.6,1.4,1,2.5,1c1.2,0,1.8-0.7,1.8-1.5c0-0.9-1-1.4-1.9-1.7
						c-1.2-0.4-2.5-0.9-2.5-2.3c0-1.2,0.9-2.2,2.6-2.2c0.9,0,1.7,0.4,2.3,0.9l-0.4,0.6c-0.5-0.4-1.1-0.7-1.9-0.7
						c-1.2,0-1.7,0.7-1.7,1.4c0,0.9,0.9,1.2,1.9,1.6c1.2,0.5,2.6,0.9,2.6,2.4c0,1.2-1,2.3-2.7,2.3
						C166.7,173.2,165.6,172.7,164.9,172.1z"/>
					<path class="st2" d="M172.5,170.7v-5h-1.2v-0.7l1.3-0.1l0.1-2.3h0.7v2.3h2.3v0.7h-2.3v5c0,1,0.3,1.7,1.3,1.7
						c0.3,0,0.7-0.1,1-0.2l0.2,0.7c-0.5,0.2-1,0.3-1.3,0.3C173,173.2,172.5,172.2,172.5,170.7z"/>
					<path class="st2" d="M176.7,171c0-1.8,1.6-2.6,5.1-3c0-1.2-0.3-2.4-1.8-2.4c-1,0-2,0.5-2.5,0.9l-0.4-0.6c0.6-0.4,1.7-1.1,3-1.1
						c1.9,0,2.6,1.4,2.6,3.1v5.1h-0.7l-0.1-1h0c-0.8,0.7-1.8,1.2-2.8,1.2C177.7,173.2,176.7,172.5,176.7,171z M181.8,171.2v-2.6
						c-3.1,0.4-4.2,1.1-4.2,2.3c0,1.1,0.8,1.5,1.6,1.5S180.9,172,181.8,171.2z"/>
					<path class="st2" d="M185.2,162.4c0-0.5,0.3-0.7,0.7-0.7c0.4,0,0.7,0.3,0.7,0.7c0,0.4-0.3,0.7-0.7,0.7
						C185.5,163.1,185.2,162.8,185.2,162.4z M185.5,165h0.9v8h-0.9V165z"/>
					<path class="st2" d="M189.3,165h0.7l0.1,1.2h0c0.8-0.8,1.6-1.4,2.7-1.4c1.7,0,2.4,1,2.4,3.1v5.1h-0.9v-5c0-1.7-0.5-2.4-1.8-2.4
						c-0.9,0-1.6,0.5-2.5,1.4v6h-0.9V165z"/>
					<path class="st2" d="M197.7,171c0-1.8,1.6-2.6,5.1-3c0-1.2-0.3-2.4-1.8-2.4c-1,0-2,0.5-2.5,0.9l-0.4-0.6c0.6-0.4,1.7-1.1,3-1.1
						c1.9,0,2.6,1.4,2.6,3.1v5.1h-0.7l-0.1-1h0c-0.8,0.7-1.8,1.2-2.8,1.2C198.7,173.2,197.7,172.5,197.7,171z M202.8,171.2v-2.6
						c-3.1,0.4-4.2,1.1-4.2,2.3c0,1.1,0.8,1.5,1.6,1.5C201.1,172.5,201.8,172,202.8,171.2z"/>
					<path class="st2" d="M207.3,172.2L207.3,172.2l-0.1,0.8h-0.7v-11.9h0.9v3.4l0,1.5c0.8-0.7,1.7-1.2,2.7-1.2
						c2.1,0,3.2,1.6,3.2,4.1c0,2.7-1.6,4.3-3.5,4.3C208.9,173.2,208,172.8,207.3,172.2z M212.2,168.9c0-1.9-0.7-3.3-2.4-3.3
						c-0.8,0-1.6,0.5-2.5,1.3v4.6c0.8,0.7,1.7,1,2.3,1C211.1,172.4,212.2,171,212.2,168.9z"/>
					<path class="st2" d="M215.5,171.8v-10.7h0.9v10.8c0,0.4,0.1,0.5,0.4,0.5c0.1,0,0.1,0,0.3,0l0.1,0.7c-0.2,0-0.3,0.1-0.6,0.1
						C215.8,173.2,215.5,172.7,215.5,171.8z"/>
					<path class="st2" d="M218.8,169c0-2.6,1.7-4.2,3.5-4.2c1.9,0,3.1,1.4,3.1,3.7c0,0.2,0,0.4,0,0.6h-5.7c0,1.9,1.2,3.3,2.9,3.3
						c0.9,0,1.5-0.3,2.1-0.7l0.3,0.6c-0.6,0.4-1.4,0.8-2.5,0.8C220.5,173.2,218.8,171.6,218.8,169z M224.6,168.5
						c0-1.9-0.9-2.9-2.3-2.9c-1.3,0-2.5,1.1-2.6,2.9H224.6z"/>
					<path class="st2" d="M231.7,172.2L231.7,172.2l-0.1,0.8h-0.7v-11.9h0.9v3.4l0,1.5c0.8-0.7,1.7-1.2,2.7-1.2
						c2.1,0,3.2,1.6,3.2,4.1c0,2.7-1.7,4.3-3.5,4.3C233.3,173.2,232.5,172.8,231.7,172.2z M236.7,168.9c0-1.9-0.7-3.3-2.4-3.3
						c-0.8,0-1.6,0.5-2.5,1.3v4.6c0.8,0.7,1.7,1,2.3,1C235.6,172.4,236.7,171,236.7,168.9z"/>
					<path class="st2" d="M239.3,169c0-2.7,1.7-4.2,3.6-4.2c1.9,0,3.6,1.5,3.6,4.2c0,2.7-1.7,4.2-3.6,4.2
						C240.9,173.2,239.3,171.7,239.3,169z M245.6,169c0-2-1.2-3.4-2.7-3.4c-1.6,0-2.7,1.4-2.7,3.4c0,2,1.1,3.4,2.7,3.4
						C244.4,172.4,245.6,171,245.6,169z"/>
					<path class="st2" d="M248.8,170.7v-5h-1.2v-0.7l1.3-0.1l0.1-2.3h0.7v2.3h2.3v0.7h-2.3v5c0,1,0.3,1.7,1.3,1.7
						c0.3,0,0.7-0.1,1-0.2l0.2,0.7c-0.5,0.2-1,0.3-1.3,0.3C249.3,173.2,248.8,172.2,248.8,170.7z"/>
					<path class="st2" d="M253,171c0-1.8,1.6-2.6,5.1-3c0-1.2-0.3-2.4-1.8-2.4c-1,0-2,0.5-2.5,0.9l-0.4-0.6c0.6-0.4,1.7-1.1,3-1.1
						c1.9,0,2.6,1.4,2.6,3.1v5.1h-0.7l-0.1-1h0c-0.8,0.7-1.8,1.2-2.8,1.2C254,173.2,253,172.5,253,171z M258.1,171.2v-2.6
						c-3.1,0.4-4.2,1.1-4.2,2.3c0,1.1,0.8,1.5,1.6,1.5C256.4,172.5,257.1,172,258.1,171.2z"/>
					<path class="st2" d="M261.7,165h0.7l0.1,1.2h0c0.8-0.8,1.6-1.4,2.7-1.4c1.7,0,2.4,1,2.4,3.1v5.1h-0.9v-5c0-1.7-0.5-2.4-1.8-2.4
						c-0.9,0-1.6,0.5-2.5,1.4v6h-0.9V165z"/>
					<path class="st2" d="M270.3,162.4c0-0.5,0.3-0.7,0.7-0.7c0.4,0,0.7,0.3,0.7,0.7c0,0.4-0.3,0.7-0.7,0.7
						C270.7,163.1,270.3,162.8,270.3,162.4z M270.6,165h0.9v8h-0.9V165z"/>
					<path class="st2" d="M273.8,169c0-2.7,1.7-4.2,3.7-4.2c1.1,0,1.8,0.5,2.3,1l-0.5,0.6c-0.5-0.5-1.1-0.8-1.8-0.8
						c-1.6,0-2.8,1.4-2.8,3.4c0,2,1.1,3.4,2.8,3.4c0.8,0,1.5-0.4,2.1-0.9l0.4,0.6c-0.7,0.6-1.5,1-2.5,1
						C275.4,173.2,273.8,171.7,273.8,169z"/>
					<path class="st2" d="M281.2,171c0-1.8,1.6-2.6,5.1-3c0-1.2-0.3-2.4-1.8-2.4c-1.1,0-2,0.5-2.5,0.9l-0.4-0.6
						c0.6-0.4,1.7-1.1,3-1.1c1.9,0,2.6,1.4,2.6,3.1v5.1h-0.7l-0.1-1h0c-0.8,0.7-1.8,1.2-2.8,1.2C282.3,173.2,281.2,172.5,281.2,171z
						 M286.3,171.2v-2.6c-3.2,0.4-4.2,1.1-4.2,2.3c0,1.1,0.8,1.5,1.6,1.5S285.4,172,286.3,171.2z"/>
					<path class="st2" d="M290,171.8v-10.7h0.9v10.8c0,0.4,0.2,0.5,0.4,0.5c0.1,0,0.1,0,0.3,0l0.1,0.7c-0.1,0-0.3,0.1-0.6,0.1
						C290.4,173.2,290,172.7,290,171.8z"/>
				</g>
				<g class="st1">
					<path class="st2" d="M30.5,207.1l0.5-0.6c0.7,0.6,1.4,1,2.5,1c1.2,0,1.8-0.7,1.8-1.5c0-0.9-1-1.4-1.9-1.7
						c-1.2-0.4-2.5-0.9-2.5-2.3c0-1.2,0.9-2.2,2.6-2.2c0.9,0,1.7,0.4,2.3,0.9l-0.4,0.6c-0.5-0.4-1.1-0.7-1.9-0.7
						c-1.2,0-1.7,0.7-1.7,1.4c0,0.9,0.9,1.2,1.9,1.6c1.2,0.5,2.6,0.9,2.6,2.4c0,1.2-1,2.3-2.7,2.3C32.3,208.2,31.2,207.7,30.5,207.1
						z"/>
					<path class="st2" d="M37.6,204c0-2.7,1.7-4.2,3.6-4.2c1.9,0,3.6,1.5,3.6,4.2c0,2.7-1.7,4.2-3.6,4.2
						C39.3,208.2,37.6,206.7,37.6,204z M43.9,204c0-2-1.2-3.4-2.7-3.4c-1.6,0-2.7,1.4-2.7,3.4c0,2,1.1,3.4,2.7,3.4
						C42.8,207.4,43.9,206,43.9,204z"/>
					<path class="st2" d="M47.1,205.1V200h0.9v5c0,1.6,0.5,2.4,1.7,2.4c0.9,0,1.6-0.5,2.5-1.6V200H53v8h-0.7l-0.1-1.3h0
						c-0.8,0.9-1.6,1.5-2.7,1.5C47.8,208.2,47.1,207.2,47.1,205.1z"/>
					<path class="st2" d="M56,200h0.7l0.1,1.5h0c0.5-1,1.3-1.7,2.3-1.7c0.3,0,0.6,0,0.8,0.2l-0.2,0.8c-0.3-0.1-0.4-0.1-0.7-0.1
						c-0.7,0-1.6,0.5-2.1,2v5.4H56V200z"/>
					<path class="st2" d="M60.6,204c0-2.7,1.7-4.2,3.7-4.2c1.1,0,1.8,0.5,2.3,1l-0.5,0.6c-0.5-0.5-1.1-0.8-1.8-0.8
						c-1.6,0-2.8,1.4-2.8,3.4c0,2,1.1,3.4,2.8,3.4c0.8,0,1.5-0.4,2.1-0.9l0.4,0.6c-0.7,0.6-1.5,1-2.5,1
						C62.2,208.2,60.6,206.7,60.6,204z"/>
					<path class="st2" d="M67.8,204c0-2.6,1.7-4.2,3.5-4.2c1.9,0,3.1,1.4,3.1,3.7c0,0.2,0,0.4,0,0.6h-5.7c0,1.9,1.2,3.3,2.9,3.3
						c0.9,0,1.5-0.3,2.1-0.7l0.3,0.6c-0.6,0.4-1.4,0.8-2.6,0.8C69.4,208.2,67.8,206.6,67.8,204z M73.6,203.5c0-1.9-0.9-2.9-2.3-2.9
						c-1.3,0-2.5,1.1-2.6,2.9H73.6z"/>
					<path class="st2" d="M75.5,207.1l0.5-0.6c0.7,0.6,1.4,1,2.5,1c1.2,0,1.8-0.7,1.8-1.5c0-0.9-1-1.4-1.9-1.7
						c-1.2-0.4-2.5-0.9-2.5-2.3c0-1.2,0.9-2.2,2.6-2.2c0.9,0,1.7,0.4,2.3,0.9l-0.4,0.6c-0.5-0.4-1.1-0.7-1.9-0.7
						c-1.2,0-1.7,0.7-1.7,1.4c0,0.9,0.9,1.2,1.9,1.6c1.2,0.5,2.6,0.9,2.6,2.4c0,1.2-1,2.3-2.7,2.3C77.3,208.2,76.2,207.7,75.5,207.1
						z"/>
				</g>
				<text transform="matrix(1 0 0 1 81.7797 208)" class="st2 st5 st4"> </text>
				<g class="st1">
					<path class="st2" d="M30.7,273.5h3.7v0.7h-3.7V273.5z"/>
					<path class="st2" d="M38.4,267.1h1l2,6.3c0.4,1.3,0.7,2.3,1.1,3.7h0.1c0.4-1.3,0.7-2.3,1.2-3.7l2-6.3h0.9L43,278h-1L38.4,267.1
						z"/>
					<path class="st2" d="M47.2,274c0-2.6,1.7-4.2,3.5-4.2c1.9,0,3.1,1.4,3.1,3.7c0,0.2,0,0.4,0,0.6h-5.7c0,1.9,1.2,3.3,2.9,3.3
						c0.9,0,1.5-0.3,2.1-0.7l0.3,0.6c-0.6,0.4-1.4,0.8-2.6,0.8C48.9,278.2,47.2,276.6,47.2,274z M53,273.5c0-1.9-0.9-2.9-2.3-2.9
						c-1.3,0-2.5,1.1-2.6,2.9H53z"/>
					<path class="st2" d="M55.9,270h0.7l0.1,1.5h0c0.5-1,1.3-1.7,2.3-1.7c0.3,0,0.6,0,0.8,0.2l-0.2,0.8c-0.3-0.1-0.4-0.1-0.7-0.1
						c-0.7,0-1.6,0.5-2.1,2v5.4h-0.9V270z"/>
					<path class="st2" d="M61,267.4c0-0.5,0.3-0.7,0.7-0.7c0.4,0,0.7,0.3,0.7,0.7c0,0.4-0.3,0.7-0.7,0.7
						C61.3,268.1,61,267.8,61,267.4z M61.3,270h0.9v8h-0.9V270z"/>
					<path class="st2" d="M68.3,266.8c-0.3-0.2-0.6-0.2-0.9-0.2c-0.9,0-1.2,0.6-1.2,1.8v1.6H68v0.7h-1.8v7.3h-0.9v-7.3h-1.1v-0.7
						l1.1-0.1v-1.7c0-1.6,0.7-2.4,2.1-2.4c0.4,0,0.8,0.1,1.2,0.3L68.3,266.8z"/>
					<path class="st2" d="M68.5,281.4l0.2-0.7c0.2,0.1,0.4,0.1,0.6,0.1c1,0,1.6-0.9,2-2l0.2-0.7l-3.3-8.1h0.9l1.9,4.9
						c0.3,0.7,0.6,1.5,0.8,2.2H72c0.2-0.7,0.5-1.6,0.7-2.2l1.6-4.9h0.9l-3.1,8.9c-0.5,1.4-1.3,2.7-2.8,2.7
						C69.1,281.6,68.8,281.5,68.5,281.4z"/>
					<path class="st2" d="M79.6,274c0-2.6,1.7-4.2,3.5-4.2c1.9,0,3.1,1.4,3.1,3.7c0,0.2,0,0.4,0,0.6h-5.7c0,1.9,1.2,3.3,2.9,3.3
						c0.9,0,1.5-0.3,2.1-0.7l0.3,0.6c-0.6,0.4-1.4,0.8-2.6,0.8C81.3,278.2,79.6,276.6,79.6,274z M85.5,273.5c0-1.9-0.9-2.9-2.3-2.9
						c-1.3,0-2.5,1.1-2.6,2.9H85.5z"/>
					<path class="st2" d="M96.1,266.8c-0.3-0.2-0.6-0.2-0.9-0.2c-0.9,0-1.2,0.6-1.2,1.8v1.6h1.8v0.7h-1.8v7.3H93v-7.3h-3.6v7.3h-0.9
						v-7.3h-1.1v-0.7l1.1-0.1v-1.4c0-1.7,0.8-2.6,2.2-2.6c0.5,0,0.9,0.1,1.4,0.3l-0.2,0.7c-0.4-0.2-0.8-0.3-1.1-0.3
						c-0.9,0-1.4,0.7-1.4,1.9v1.3H93v-1.7c0-1.6,0.7-2.4,2.1-2.4c0.4,0,0.8,0.1,1.2,0.3L96.1,266.8z"/>
					<path class="st2" d="M96.5,274c0-2.6,1.7-4.2,3.5-4.2c1.9,0,3.1,1.4,3.1,3.7c0,0.2,0,0.4,0,0.6h-5.7c0,1.9,1.2,3.3,2.9,3.3
						c0.9,0,1.5-0.3,2.1-0.7l0.3,0.6c-0.6,0.4-1.4,0.8-2.6,0.8C98.2,278.2,96.5,276.6,96.5,274z M102.3,273.5c0-1.9-0.9-2.9-2.3-2.9
						c-1.3,0-2.5,1.1-2.6,2.9H102.3z"/>
					<path class="st2" d="M104.6,274c0-2.7,1.7-4.2,3.7-4.2c1.1,0,1.8,0.5,2.3,1l-0.5,0.6c-0.5-0.5-1.1-0.8-1.8-0.8
						c-1.6,0-2.8,1.4-2.8,3.4c0,2,1.1,3.4,2.8,3.4c0.8,0,1.5-0.4,2.1-0.9l0.4,0.6c-0.7,0.6-1.5,1-2.5,1
						C106.2,278.2,104.6,276.7,104.6,274z"/>
					<path class="st2" d="M112.8,275.7v-5h-1.2v-0.7l1.3-0.1l0.1-2.3h0.7v2.3h2.3v0.7h-2.3v5c0,1,0.3,1.7,1.3,1.7
						c0.3,0,0.7-0.1,1-0.2l0.2,0.7c-0.5,0.2-1,0.3-1.3,0.3C113.2,278.2,112.8,277.2,112.8,275.7z"/>
					<path class="st2" d="M116.7,277.1l0.5-0.6c0.7,0.6,1.4,1,2.5,1c1.2,0,1.8-0.7,1.8-1.5c0-0.9-1-1.4-1.9-1.7
						c-1.2-0.4-2.5-0.9-2.5-2.3c0-1.2,0.9-2.2,2.6-2.2c0.9,0,1.7,0.4,2.3,0.9l-0.4,0.6c-0.5-0.4-1.1-0.7-1.9-0.7
						c-1.2,0-1.7,0.7-1.7,1.4c0,0.9,0.9,1.2,1.9,1.6c1.2,0.5,2.6,0.9,2.6,2.4c0,1.2-1,2.3-2.7,2.3
						C118.5,278.2,117.4,277.7,116.7,277.1z"/>
					<path class="st2" d="M126.7,270h0.9l1.4,5c0.2,0.8,0.4,1.5,0.5,2.2h0.1c0.2-0.7,0.4-1.4,0.6-2.2l1.4-5h1l1.4,5
						c0.2,0.8,0.4,1.5,0.6,2.2h0.1c0.2-0.7,0.4-1.4,0.6-2.2l1.4-5h0.9l-2.2,8H134l-1.4-4.8c-0.2-0.8-0.4-1.5-0.6-2.3H132
						c-0.2,0.8-0.4,1.5-0.6,2.3l-1.3,4.8h-1L126.7,270z"/>
					<path class="st2" d="M139,267.4c0-0.5,0.3-0.7,0.7-0.7c0.4,0,0.7,0.3,0.7,0.7c0,0.4-0.3,0.7-0.7,0.7
						C139.3,268.1,139,267.8,139,267.4z M139.3,270h0.9v8h-0.9V270z"/>
					<path class="st2" d="M143.3,275.7v-5h-1.2v-0.7l1.3-0.1l0.1-2.3h0.7v2.3h2.3v0.7h-2.3v5c0,1,0.3,1.7,1.3,1.7
						c0.3,0,0.7-0.1,1-0.2l0.2,0.7c-0.5,0.2-1,0.3-1.3,0.3C143.8,278.2,143.3,277.2,143.3,275.7z"/>
					<path class="st2" d="M148.4,266.1h0.9v3.4l0,1.7c0.8-0.8,1.6-1.4,2.7-1.4c1.7,0,2.4,1,2.4,3.1v5.1h-0.9v-5
						c0-1.7-0.5-2.4-1.8-2.4c-0.9,0-1.6,0.5-2.5,1.4v6h-0.9V266.1z"/>
					<path class="st2" d="M159.9,274c0-2.7,1.7-4.2,3.7-4.2c1.1,0,1.8,0.5,2.3,1l-0.5,0.6c-0.5-0.5-1.1-0.8-1.8-0.8
						c-1.6,0-2.8,1.4-2.8,3.4c0,2,1.1,3.4,2.8,3.4c0.8,0,1.5-0.4,2.1-0.9l0.4,0.6c-0.7,0.6-1.5,1-2.5,1
						C161.5,278.2,159.9,276.7,159.9,274z"/>
					<path class="st2" d="M167.1,274c0-2.6,1.7-4.2,3.5-4.2c1.9,0,3.1,1.4,3.1,3.7c0,0.2,0,0.4,0,0.6H168c0,1.9,1.2,3.3,2.9,3.3
						c0.9,0,1.5-0.3,2.1-0.7l0.3,0.6c-0.6,0.4-1.4,0.8-2.5,0.8C168.8,278.2,167.1,276.6,167.1,274z M172.9,273.5
						c0-1.9-0.9-2.9-2.3-2.9c-1.3,0-2.5,1.1-2.6,2.9H172.9z"/>
					<path class="st2" d="M175.8,276.8v-10.7h0.9v10.8c0,0.4,0.2,0.5,0.4,0.5c0.1,0,0.1,0,0.3,0l0.1,0.7c-0.1,0-0.3,0.1-0.6,0.1
						C176.2,278.2,175.8,277.7,175.8,276.8z"/>
					<path class="st2" d="M179.8,276.8v-10.7h0.9v10.8c0,0.4,0.1,0.5,0.4,0.5c0.1,0,0.1,0,0.3,0l0.1,0.7c-0.2,0-0.3,0.1-0.6,0.1
						C180.2,278.2,179.8,277.7,179.8,276.8z"/>
					<path class="st2" d="M187.4,266.2h0.7l-5,14.4h-0.7L187.4,266.2z"/>
					<path class="st2" d="M188.8,276c0-1.8,1.6-2.6,5.1-3c0-1.2-0.3-2.4-1.8-2.4c-1,0-2,0.5-2.5,0.9l-0.4-0.6c0.6-0.4,1.7-1.1,3-1.1
						c1.9,0,2.6,1.4,2.6,3.1v5.1h-0.7l-0.1-1h0c-0.8,0.7-1.8,1.2-2.8,1.2C189.9,278.2,188.8,277.5,188.8,276z M193.9,276.2v-2.6
						c-3.1,0.4-4.2,1.1-4.2,2.3c0,1.1,0.8,1.5,1.6,1.5S193,277,193.9,276.2z"/>
					<path class="st2" d="M197.6,270h0.7l0.1,1.5h0c0.5-1,1.3-1.7,2.3-1.7c0.3,0,0.6,0,0.8,0.2l-0.2,0.8c-0.3-0.1-0.4-0.1-0.7-0.1
						c-0.7,0-1.6,0.5-2.1,2v5.4h-0.9V270z"/>
					<path class="st2" d="M203.2,275.7v-5h-1.2v-0.7l1.3-0.1l0.1-2.3h0.7v2.3h2.3v0.7H204v5c0,1,0.3,1.7,1.3,1.7
						c0.3,0,0.7-0.1,1-0.2l0.2,0.7c-0.5,0.2-1,0.3-1.3,0.3C203.7,278.2,203.2,277.2,203.2,275.7z"/>
					<path class="st2" d="M208,267.4c0-0.5,0.3-0.7,0.7-0.7c0.4,0,0.7,0.3,0.7,0.7c0,0.4-0.3,0.7-0.7,0.7
						C208.3,268.1,208,267.8,208,267.4z M208.3,270h0.9v8h-0.9V270z"/>
					<path class="st2" d="M212.2,268.3c0-1.6,0.7-2.4,2.1-2.4c0.4,0,0.8,0.1,1.2,0.3l-0.2,0.7c-0.3-0.2-0.6-0.2-0.9-0.2
						c-0.9,0-1.2,0.6-1.2,1.8v1.6h1.8v0.7h-1.8v7.3h-0.9v-7.3h-1.1v-0.7l1.1-0.1V268.3z M218.1,267.4c0,0.4-0.3,0.7-0.7,0.7
						c-0.4,0-0.7-0.3-0.7-0.7c0-0.5,0.3-0.7,0.7-0.7C217.7,266.7,218.1,267,218.1,267.4z M216.9,270h0.9v8h-0.9V270z"/>
					<path class="st2" d="M220.1,274c0-2.7,1.7-4.2,3.7-4.2c1.1,0,1.8,0.5,2.3,1l-0.5,0.6c-0.5-0.5-1.1-0.8-1.8-0.8
						c-1.6,0-2.8,1.4-2.8,3.4c0,2,1.1,3.4,2.8,3.4c0.8,0,1.5-0.4,2.1-0.9l0.4,0.6c-0.7,0.6-1.5,1-2.6,1
						C221.7,278.2,220.1,276.7,220.1,274z"/>
					<path class="st2" d="M227.9,267.4c0-0.5,0.3-0.7,0.7-0.7c0.4,0,0.7,0.3,0.7,0.7c0,0.4-0.3,0.7-0.7,0.7
						C228.3,268.1,227.9,267.8,227.9,267.4z M228.2,270h0.9v8h-0.9V270z"/>
					<path class="st2" d="M231.5,276c0-1.8,1.6-2.6,5.1-3c0-1.2-0.3-2.4-1.8-2.4c-1,0-2,0.5-2.5,0.9l-0.4-0.6c0.6-0.4,1.7-1.1,3-1.1
						c1.9,0,2.6,1.4,2.6,3.1v5.1h-0.7l-0.1-1h0c-0.8,0.7-1.8,1.2-2.8,1.2C232.6,278.2,231.5,277.5,231.5,276z M236.6,276.2v-2.6
						c-3.1,0.4-4.2,1.1-4.2,2.3c0,1.1,0.8,1.5,1.6,1.5C234.9,277.5,235.7,277,236.6,276.2z"/>
					<path class="st2" d="M240.3,276.8v-10.7h0.9v10.8c0,0.4,0.1,0.5,0.4,0.5c0.1,0,0.1,0,0.3,0l0.1,0.7c-0.2,0-0.3,0.1-0.6,0.1
						C240.6,278.2,240.3,277.7,240.3,276.8z"/>
					<path class="st2" d="M246.6,277.1l0.5-0.6c0.7,0.6,1.4,1,2.5,1c1.2,0,1.8-0.7,1.8-1.5c0-0.9-1-1.4-1.9-1.7
						c-1.2-0.4-2.5-0.9-2.5-2.3c0-1.2,0.9-2.2,2.6-2.2c0.9,0,1.7,0.4,2.3,0.9l-0.5,0.6c-0.5-0.4-1.1-0.7-1.9-0.7
						c-1.2,0-1.7,0.7-1.7,1.4c0,0.9,0.9,1.2,1.9,1.6c1.2,0.5,2.6,0.9,2.6,2.4c0,1.2-1,2.3-2.7,2.3
						C248.4,278.2,247.4,277.7,246.6,277.1z"/>
					<path class="st2" d="M254.4,266.1h0.9v8.6h0l3.8-4.7h1l-2.6,3.2l3,4.8h-1l-2.6-4.2l-1.7,2v2.2h-0.9V266.1z"/>
					<path class="st2" d="M261.9,267.4c0-0.5,0.3-0.7,0.7-0.7c0.4,0,0.7,0.3,0.7,0.7c0,0.4-0.3,0.7-0.7,0.7
						C262.3,268.1,261.9,267.8,261.9,267.4z M262.2,270h0.9v8h-0.9V270z"/>
					<path class="st2" d="M266.1,270h0.7l0.1,1.2h0c0.8-0.8,1.6-1.4,2.7-1.4c1.7,0,2.4,1,2.4,3.1v5.1h-0.9v-5c0-1.7-0.5-2.4-1.8-2.4
						c-0.9,0-1.6,0.5-2.5,1.4v6h-0.9V270z"/>
				</g>
				<g class="st1">
					<path class="st2" d="M31.7,310.7v-5h-1.2v-0.7l1.3-0.1l0.1-2.3h0.7v2.3h2.3v0.7h-2.3v5c0,1,0.3,1.7,1.3,1.7
						c0.3,0,0.7-0.1,1-0.2l0.2,0.7c-0.5,0.2-1,0.3-1.3,0.3C32.2,313.2,31.7,312.2,31.7,310.7z"/>
					<path class="st2" d="M35.9,309c0-2.6,1.7-4.2,3.5-4.2c1.9,0,3.1,1.4,3.1,3.7c0,0.2,0,0.4,0,0.6h-5.7c0,1.9,1.2,3.3,2.9,3.3
						c0.9,0,1.5-0.3,2.1-0.7l0.3,0.6c-0.6,0.4-1.4,0.8-2.6,0.8C37.6,313.2,35.9,311.6,35.9,309z M41.7,308.5c0-1.9-0.9-2.9-2.3-2.9
						c-1.3,0-2.5,1.1-2.6,2.9H41.7z"/>
					<path class="st2" d="M43.7,312.1l0.5-0.6c0.7,0.6,1.4,1,2.5,1c1.2,0,1.8-0.7,1.8-1.5c0-0.9-1-1.4-1.9-1.7
						c-1.2-0.4-2.5-0.9-2.5-2.3c0-1.2,0.9-2.2,2.6-2.2c0.9,0,1.7,0.4,2.3,0.9l-0.4,0.6c-0.5-0.4-1.1-0.7-1.9-0.7
						c-1.2,0-1.7,0.7-1.7,1.4c0,0.9,0.9,1.2,1.9,1.6c1.2,0.5,2.6,0.9,2.6,2.4c0,1.2-1,2.3-2.7,2.3C45.4,313.2,44.4,312.7,43.7,312.1
						z"/>
					<path class="st2" d="M51.3,310.7v-5h-1.2v-0.7l1.3-0.1l0.1-2.3h0.7v2.3h2.3v0.7h-2.3v5c0,1,0.3,1.7,1.3,1.7
						c0.3,0,0.7-0.1,1-0.2l0.2,0.7c-0.5,0.2-1,0.3-1.3,0.3C51.8,313.2,51.3,312.2,51.3,310.7z"/>
					<path class="st2" d="M55.2,312.1l0.5-0.6c0.7,0.6,1.4,1,2.5,1c1.2,0,1.8-0.7,1.8-1.5c0-0.9-1-1.4-1.9-1.7
						c-1.2-0.4-2.5-0.9-2.5-2.3c0-1.2,0.9-2.2,2.6-2.2c0.9,0,1.7,0.4,2.3,0.9l-0.4,0.6c-0.5-0.4-1.1-0.7-1.9-0.7
						c-1.2,0-1.7,0.7-1.7,1.4c0,0.9,0.9,1.2,1.9,1.6c1.2,0.5,2.6,0.9,2.6,2.4c0,1.2-1,2.3-2.7,2.3C57,313.2,56,312.7,55.2,312.1z"/>
					<path class="st2" d="M66.3,308.4c0-2.9,0.8-5.3,2.2-7.5l0.5,0.3c-1.3,2.1-2,4.6-2,7.2s0.7,5.1,2,7.2l-0.5,0.3
						C67.1,313.7,66.3,311.3,66.3,308.4z"/>
					<path class="st2" d="M71.1,305h0.7l0.1,1.5h0c0.5-1,1.3-1.7,2.3-1.7c0.3,0,0.6,0,0.8,0.2l-0.2,0.8c-0.3-0.1-0.4-0.1-0.7-0.1
						c-0.7,0-1.6,0.5-2.1,2v5.4h-0.9V305z"/>
					<path class="st2" d="M75.6,309c0-2.6,1.7-4.2,3.5-4.2c1.9,0,3.1,1.4,3.1,3.7c0,0.2,0,0.4,0,0.6h-5.7c0,1.9,1.2,3.3,2.9,3.3
						c0.9,0,1.5-0.3,2.1-0.7l0.3,0.6c-0.6,0.4-1.4,0.8-2.5,0.8C77.3,313.2,75.6,311.6,75.6,309z M81.4,308.5c0-1.9-0.9-2.9-2.3-2.9
						c-1.3,0-2.5,1.1-2.6,2.9H81.4z"/>
					<path class="st2" d="M87.5,301.8c-0.3-0.2-0.6-0.2-0.9-0.2c-0.9,0-1.2,0.6-1.2,1.8v1.6h1.8v0.7h-1.8v7.3h-0.9v-7.3h-1.1v-0.7
						l1.1-0.1v-1.7c0-1.6,0.7-2.4,2.1-2.4c0.4,0,0.8,0.1,1.2,0.3L87.5,301.8z"/>
					<path class="st2" d="M88.8,305h0.7l0.1,1.5h0c0.5-1,1.3-1.7,2.3-1.7c0.3,0,0.6,0,0.8,0.2l-0.2,0.8c-0.3-0.1-0.4-0.1-0.7-0.1
						c-0.7,0-1.6,0.5-2.1,2v5.4h-0.9V305z"/>
					<path class="st2" d="M93.3,311c0-1.8,1.6-2.6,5.1-3c0-1.2-0.3-2.4-1.8-2.4c-1,0-2,0.5-2.5,0.9l-0.4-0.6c0.6-0.4,1.7-1.1,3-1.1
						c1.9,0,2.6,1.4,2.6,3.1v5.1h-0.7l-0.1-1h0c-0.8,0.7-1.8,1.2-2.8,1.2C94.3,313.2,93.3,312.5,93.3,311z M98.4,311.2v-2.6
						c-3.1,0.4-4.2,1.1-4.2,2.3c0,1.1,0.8,1.5,1.6,1.5C96.7,312.5,97.4,312,98.4,311.2z"/>
					<path class="st2" d="M101.8,302.4c0-0.5,0.3-0.7,0.7-0.7c0.4,0,0.7,0.3,0.7,0.7c0,0.4-0.3,0.7-0.7,0.7
						C102.1,303.1,101.8,302.8,101.8,302.4z M102,305h0.9v8H102V305z"/>
					<path class="st2" d="M105.9,305h0.7l0.1,1.2h0c0.8-0.8,1.6-1.4,2.7-1.4c1.7,0,2.4,1,2.4,3.1v5.1H111v-5c0-1.7-0.5-2.4-1.8-2.4
						c-0.9,0-1.6,0.5-2.5,1.4v6h-0.9V305z"/>
					<path class="st2" d="M121.3,301.8c-0.3-0.2-0.6-0.2-0.9-0.2c-0.9,0-1.2,0.6-1.2,1.8v1.6h1.8v0.7h-1.8v7.3h-0.9v-7.3h-1.1v-0.7
						l1.1-0.1v-1.7c0-1.6,0.7-2.4,2.1-2.4c0.4,0,0.8,0.1,1.2,0.3L121.3,301.8z"/>
					<path class="st2" d="M122.6,305h0.7l0.1,1.5h0c0.5-1,1.3-1.7,2.3-1.7c0.3,0,0.6,0,0.8,0.2l-0.2,0.8c-0.3-0.1-0.4-0.1-0.7-0.1
						c-0.7,0-1.6,0.5-2.1,2v5.4h-0.9V305z"/>
					<path class="st2" d="M127.2,309c0-2.7,1.7-4.2,3.6-4.2c1.9,0,3.6,1.5,3.6,4.2c0,2.7-1.7,4.2-3.6,4.2
						C128.8,313.2,127.2,311.7,127.2,309z M133.5,309c0-2-1.2-3.4-2.7-3.4c-1.6,0-2.7,1.4-2.7,3.4c0,2,1.1,3.4,2.7,3.4
						C132.3,312.4,133.5,311,133.5,309z"/>
					<path class="st2" d="M136.7,305h0.7l0.1,1.2h0c0.7-0.8,1.6-1.4,2.5-1.4c1.3,0,1.9,0.6,2.2,1.6c0.9-1,1.8-1.6,2.7-1.6
						c1.6,0,2.4,1,2.4,3.1v5.1h-0.9v-5c0-1.7-0.6-2.4-1.7-2.4c-0.7,0-1.5,0.5-2.3,1.4v6h-0.9v-5c0-1.7-0.5-2.4-1.7-2.4
						c-0.7,0-1.5,0.5-2.3,1.4v6h-0.9V305z"/>
					<path class="st2" d="M153.5,310.1V305h0.9v5c0,1.6,0.5,2.4,1.7,2.4c0.9,0,1.6-0.5,2.5-1.6V305h0.9v8h-0.7l-0.1-1.3h0
						c-0.8,0.9-1.6,1.5-2.7,1.5C154.2,313.2,153.5,312.2,153.5,310.1z"/>
					<path class="st2" d="M162.5,305h0.7l0.1,1.2h0c0.8-0.8,1.6-1.4,2.7-1.4c1.7,0,2.4,1,2.4,3.1v5.1h-0.9v-5c0-1.7-0.5-2.4-1.8-2.4
						c-0.9,0-1.6,0.5-2.5,1.4v6h-0.9V305z"/>
					<path class="st2" d="M171.4,305h0.7l0.1,1.2h0c0.8-0.8,1.6-1.4,2.7-1.4c1.7,0,2.4,1,2.4,3.1v5.1h-0.9v-5c0-1.7-0.5-2.4-1.8-2.4
						c-0.9,0-1.6,0.5-2.5,1.4v6h-0.9V305z"/>
					<path class="st2" d="M179.6,309c0-2.6,1.7-4.2,3.5-4.2c1.9,0,3.1,1.4,3.1,3.7c0,0.2,0,0.4,0,0.6h-5.7c0,1.9,1.2,3.3,2.9,3.3
						c0.9,0,1.5-0.3,2.1-0.7l0.3,0.6c-0.6,0.4-1.4,0.8-2.6,0.8C181.3,313.2,179.6,311.6,179.6,309z M185.4,308.5
						c0-1.9-0.9-2.9-2.3-2.9c-1.3,0-2.5,1.1-2.6,2.9H185.4z"/>
					<path class="st2" d="M187.7,309c0-2.7,1.7-4.2,3.7-4.2c1.1,0,1.8,0.5,2.3,1l-0.5,0.6c-0.5-0.5-1.1-0.8-1.8-0.8
						c-1.6,0-2.8,1.4-2.8,3.4c0,2,1.1,3.4,2.8,3.4c0.8,0,1.5-0.4,2.1-0.9l0.4,0.6c-0.7,0.6-1.5,1-2.6,1
						C189.2,313.2,187.7,311.7,187.7,309z"/>
					<path class="st2" d="M194.8,309c0-2.6,1.7-4.2,3.5-4.2c1.9,0,3.1,1.4,3.1,3.7c0,0.2,0,0.4,0,0.6h-5.7c0,1.9,1.2,3.3,2.9,3.3
						c0.9,0,1.5-0.3,2.1-0.7l0.3,0.6c-0.6,0.4-1.4,0.8-2.6,0.8C196.5,313.2,194.8,311.6,194.8,309z M200.6,308.5
						c0-1.9-0.9-2.9-2.3-2.9c-1.3,0-2.5,1.1-2.6,2.9H200.6z"/>
					<path class="st2" d="M202.6,312.1l0.5-0.6c0.7,0.6,1.4,1,2.5,1c1.2,0,1.8-0.7,1.8-1.5c0-0.9-1-1.4-1.9-1.7
						c-1.2-0.4-2.5-0.9-2.5-2.3c0-1.2,0.9-2.2,2.6-2.2c0.9,0,1.7,0.4,2.3,0.9l-0.4,0.6c-0.5-0.4-1.1-0.7-1.9-0.7
						c-1.2,0-1.7,0.7-1.7,1.4c0,0.9,0.9,1.2,1.9,1.6c1.2,0.5,2.6,0.9,2.6,2.4c0,1.2-1,2.3-2.7,2.3
						C204.4,313.2,203.3,312.7,202.6,312.1z"/>
					<path class="st2" d="M209.4,312.1l0.5-0.6c0.7,0.6,1.4,1,2.5,1c1.2,0,1.8-0.7,1.8-1.5c0-0.9-1-1.4-1.9-1.7
						c-1.2-0.4-2.5-0.9-2.5-2.3c0-1.2,0.9-2.2,2.6-2.2c0.9,0,1.7,0.4,2.3,0.9l-0.5,0.6c-0.5-0.4-1.1-0.7-1.9-0.7
						c-1.2,0-1.7,0.7-1.7,1.4c0,0.9,0.9,1.2,1.9,1.6c1.2,0.5,2.6,0.9,2.6,2.4c0,1.2-1,2.3-2.7,2.3
						C211.1,313.2,210.1,312.7,209.4,312.1z"/>
					<path class="st2" d="M216.6,311c0-1.8,1.6-2.6,5.1-3c0-1.2-0.3-2.4-1.8-2.4c-1.1,0-2,0.5-2.5,0.9l-0.4-0.6
						c0.6-0.4,1.7-1.1,3-1.1c1.9,0,2.6,1.4,2.6,3.1v5.1h-0.7l-0.1-1h0c-0.8,0.7-1.8,1.2-2.8,1.2C217.6,313.2,216.6,312.5,216.6,311z
						 M221.7,311.2v-2.6c-3.2,0.4-4.2,1.1-4.2,2.3c0,1.1,0.8,1.5,1.6,1.5S220.7,312,221.7,311.2z"/>
					<path class="st2" d="M225.3,305h0.7l0.1,1.5h0c0.5-1,1.3-1.7,2.3-1.7c0.3,0,0.6,0,0.8,0.2l-0.2,0.8c-0.3-0.1-0.4-0.1-0.7-0.1
						c-0.7,0-1.6,0.5-2.1,2v5.4h-0.9V305z"/>
					<path class="st2" d="M230.2,316.4l0.2-0.7c0.2,0.1,0.4,0.1,0.6,0.1c1,0,1.6-0.9,2-2l0.2-0.7L230,305h0.9l1.9,4.9
						c0.3,0.7,0.6,1.5,0.8,2.2h0.1c0.2-0.7,0.5-1.6,0.7-2.2l1.6-4.9h0.9l-3.1,8.9c-0.5,1.4-1.3,2.7-2.8,2.7
						C230.7,316.6,230.4,316.5,230.2,316.4z"/>
					<path class="st2" d="M241.4,311c0-1.8,1.6-2.6,5.1-3c0-1.2-0.3-2.4-1.8-2.4c-1.1,0-2,0.5-2.5,0.9l-0.4-0.6
						c0.6-0.4,1.7-1.1,3-1.1c1.9,0,2.6,1.4,2.6,3.1v5.1h-0.7l-0.1-1h0c-0.8,0.7-1.8,1.2-2.8,1.2C242.4,313.2,241.4,312.5,241.4,311z
						 M246.5,311.2v-2.6c-3.2,0.4-4.2,1.1-4.2,2.3c0,1.1,0.8,1.5,1.6,1.5S245.5,312,246.5,311.2z"/>
					<path class="st2" d="M250.2,305h0.7l0.1,1.2h0c0.8-0.8,1.6-1.4,2.7-1.4c1.7,0,2.4,1,2.4,3.1v5.1h-0.9v-5c0-1.7-0.5-2.4-1.8-2.4
						c-0.9,0-1.6,0.5-2.5,1.4v6h-0.9V305z"/>
					<path class="st2" d="M258.8,302.4c0-0.5,0.3-0.7,0.7-0.7c0.4,0,0.7,0.3,0.7,0.7c0,0.4-0.3,0.7-0.7,0.7
						C259.1,303.1,258.8,302.8,258.8,302.4z M259,305h0.9v8H259V305z"/>
					<path class="st2" d="M262.9,305h0.7l0.1,1.2h0c0.7-0.8,1.6-1.4,2.5-1.4c1.3,0,1.9,0.6,2.2,1.6c0.9-1,1.8-1.6,2.7-1.6
						c1.6,0,2.4,1,2.4,3.1v5.1h-0.9v-5c0-1.7-0.6-2.4-1.7-2.4c-0.7,0-1.5,0.5-2.3,1.4v6h-0.9v-5c0-1.7-0.5-2.4-1.7-2.4
						c-0.7,0-1.5,0.5-2.3,1.4v6h-0.9V305z"/>
					<path class="st2" d="M275.9,311c0-1.8,1.6-2.6,5.1-3c0-1.2-0.3-2.4-1.8-2.4c-1,0-2,0.5-2.5,0.9l-0.4-0.6c0.6-0.4,1.7-1.1,3-1.1
						c1.9,0,2.6,1.4,2.6,3.1v5.1h-0.7l-0.1-1h0c-0.8,0.7-1.8,1.2-2.8,1.2C276.9,313.2,275.9,312.5,275.9,311z M281,311.2v-2.6
						c-3.1,0.4-4.2,1.1-4.2,2.3c0,1.1,0.8,1.5,1.6,1.5C279.3,312.5,280.1,312,281,311.2z"/>
					<path class="st2" d="M284.7,311.8v-10.7h0.9v10.8c0,0.4,0.1,0.5,0.4,0.5c0.1,0,0.1,0,0.3,0l0.1,0.7c-0.2,0-0.3,0.1-0.6,0.1
						C285,313.2,284.7,312.7,284.7,311.8z"/>
				</g>
				<g class="st1">
					<path class="st2" d="M30.8,344c0-2.6,1.7-4.2,3.5-4.2c1.9,0,3.1,1.4,3.1,3.7c0,0.2,0,0.4,0,0.6h-5.7c0,1.9,1.2,3.3,2.9,3.3
						c0.9,0,1.5-0.3,2.1-0.7l0.3,0.6c-0.6,0.4-1.4,0.8-2.6,0.8C32.5,348.2,30.8,346.6,30.8,344z M36.6,343.5c0-1.9-0.9-2.9-2.3-2.9
						c-1.3,0-2.5,1.1-2.6,2.9H36.6z"/>
					<path class="st2" d="M40.9,343.8l-2.5-3.8h1l1.2,2c0.3,0.4,0.6,0.9,0.9,1.3h0.1c0.3-0.4,0.5-0.9,0.8-1.3l1.2-2h0.9l-2.5,3.9
						l2.7,4.1h-1l-1.4-2.1c-0.3-0.5-0.6-1-0.9-1.5h-0.1c-0.3,0.5-0.6,1-0.9,1.5l-1.3,2.1h-0.9L40.9,343.8z"/>
					<path class="st2" d="M46.4,340h0.7l0.1,1h0c0.8-0.6,1.7-1.2,2.7-1.2c2.1,0,3.2,1.6,3.2,4.1c0,2.7-1.6,4.3-3.5,4.3
						c-0.8,0-1.5-0.3-2.4-1l0,1.5v2.9h-0.9V340z M52.2,343.9c0-1.9-0.7-3.3-2.4-3.3c-0.8,0-1.6,0.5-2.5,1.3v4.6c0.9,0.7,1.7,1,2.3,1
						C51.1,347.4,52.2,346,52.2,343.9z"/>
					<path class="st2" d="M54.8,344c0-2.6,1.7-4.2,3.5-4.2c1.9,0,3.1,1.4,3.1,3.7c0,0.2,0,0.4,0,0.6h-5.7c0,1.9,1.2,3.3,2.9,3.3
						c0.9,0,1.5-0.3,2.1-0.7l0.3,0.6c-0.6,0.4-1.4,0.8-2.5,0.8C56.5,348.2,54.8,346.6,54.8,344z M60.6,343.5c0-1.9-0.9-2.9-2.3-2.9
						c-1.3,0-2.5,1.1-2.6,2.9H60.6z"/>
					<path class="st2" d="M63.6,340h0.7l0.1,1.5h0c0.5-1,1.3-1.7,2.3-1.7c0.3,0,0.6,0,0.8,0.2l-0.2,0.8c-0.3-0.1-0.4-0.1-0.7-0.1
						c-0.7,0-1.6,0.5-2.1,2v5.4h-0.9V340z"/>
					<path class="st2" d="M68.7,337.4c0-0.5,0.3-0.7,0.7-0.7c0.4,0,0.7,0.3,0.7,0.7c0,0.4-0.3,0.7-0.7,0.7
						C69,338.1,68.7,337.8,68.7,337.4z M68.9,340h0.9v8h-0.9V340z"/>
					<path class="st2" d="M72.8,340h0.7l0.1,1.2h0c0.7-0.8,1.6-1.4,2.5-1.4c1.3,0,1.9,0.6,2.2,1.6c0.9-1,1.8-1.6,2.7-1.6
						c1.6,0,2.4,1,2.4,3.1v5.1h-0.9v-5c0-1.7-0.6-2.4-1.7-2.4c-0.7,0-1.5,0.5-2.3,1.4v6h-0.9v-5c0-1.7-0.5-2.4-1.7-2.4
						c-0.7,0-1.5,0.5-2.3,1.4v6h-0.9V340z"/>
					<path class="st2" d="M85.7,344c0-2.6,1.7-4.2,3.5-4.2c1.9,0,3.1,1.4,3.1,3.7c0,0.2,0,0.4,0,0.6h-5.7c0,1.9,1.2,3.3,2.9,3.3
						c0.9,0,1.5-0.3,2.1-0.7l0.3,0.6c-0.6,0.4-1.4,0.8-2.6,0.8C87.4,348.2,85.7,346.6,85.7,344z M91.5,343.5c0-1.9-0.9-2.9-2.3-2.9
						c-1.3,0-2.5,1.1-2.6,2.9H91.5z"/>
					<path class="st2" d="M94.4,340h0.7l0.1,1.2h0c0.8-0.8,1.6-1.4,2.7-1.4c1.7,0,2.4,1,2.4,3.1v5.1h-0.9v-5c0-1.7-0.5-2.4-1.8-2.4
						c-0.9,0-1.6,0.5-2.5,1.4v6h-0.9V340z"/>
					<path class="st2" d="M103.5,345.7v-5h-1.2v-0.7l1.3-0.1l0.1-2.3h0.7v2.3h2.3v0.7h-2.3v5c0,1,0.3,1.7,1.3,1.7
						c0.3,0,0.7-0.1,1-0.2l0.2,0.7c-0.5,0.2-1,0.3-1.3,0.3C104,348.2,103.5,347.2,103.5,345.7z"/>
					<path class="st2" d="M107.5,347.1l0.5-0.6c0.7,0.6,1.4,1,2.5,1c1.2,0,1.8-0.7,1.8-1.5c0-0.9-1-1.4-1.9-1.7
						c-1.2-0.4-2.5-0.9-2.5-2.3c0-1.2,0.9-2.2,2.6-2.2c0.9,0,1.7,0.4,2.3,0.9l-0.4,0.6c-0.5-0.4-1.1-0.7-1.9-0.7
						c-1.2,0-1.7,0.7-1.7,1.4c0,0.9,0.9,1.2,1.9,1.6c1.2,0.5,2.6,0.9,2.6,2.4c0,1.2-1,2.3-2.7,2.3
						C109.2,348.2,108.2,347.7,107.5,347.1z"/>
					<path class="st2" d="M118.5,343.4c0-2.9,0.8-5.3,2.2-7.5l0.5,0.3c-1.3,2.1-2,4.6-2,7.2s0.7,5.1,2,7.2l-0.5,0.3
						C119.3,348.7,118.5,346.3,118.5,343.4z"/>
					<path class="st2" d="M122.2,346.7l0.5-0.6c0.6,0.7,1.5,1.3,2.9,1.3c1.4,0,2.4-0.9,2.4-2.3c0-1.5-1-2.5-3.6-2.5v-0.7
						c2.4,0,3.2-1,3.2-2.3c0-1.2-0.8-2-2.1-2c-0.9,0-1.8,0.5-2.4,1.2l-0.5-0.6c0.8-0.7,1.7-1.3,2.9-1.3c1.7,0,3,1,3,2.7
						c0,1.4-0.8,2.3-2,2.7v0.1c1.3,0.3,2.4,1.3,2.4,2.8c0,1.9-1.4,3.1-3.3,3.1C123.9,348.2,122.9,347.4,122.2,346.7z"/>
					<path class="st2" d="M137.4,348l-2.9-4.9h-2.2v4.9h-0.9v-10.9h3.2c2.2,0,3.6,0.8,3.6,2.9c0,1.7-1.1,2.7-2.7,3l3,5H137.4z
						 M132.3,342.3h2.1c1.9,0,2.9-0.8,2.9-2.3c0-1.6-1-2.2-2.9-2.2h-2.1V342.3z"/>
					<path class="st2" d="M139.4,347.1l0.5-0.6c0.7,0.6,1.4,1,2.5,1c1.2,0,1.8-0.7,1.8-1.5c0-0.9-1-1.4-1.9-1.7
						c-1.2-0.4-2.5-0.9-2.5-2.3c0-1.2,0.9-2.2,2.6-2.2c0.9,0,1.7,0.4,2.3,0.9l-0.4,0.6c-0.5-0.4-1.1-0.7-1.9-0.7
						c-1.2,0-1.7,0.7-1.7,1.4c0,0.9,0.9,1.2,1.9,1.6c1.2,0.5,2.6,0.9,2.6,2.4c0,1.2-1,2.3-2.7,2.3
						C141.2,348.2,140.2,347.7,139.4,347.1z"/>
					<path class="st2" d="M146.2,350.6c1.3-2.1,2-4.7,2-7.2s-0.7-5.1-2-7.2l0.5-0.3c1.4,2.2,2.2,4.6,2.2,7.5s-0.8,5.3-2.2,7.5
						L146.2,350.6z"/>
					<path class="st2" d="M151,350.6c1.3-2.1,2-4.7,2-7.2s-0.7-5.1-2-7.2l0.5-0.3c1.4,2.2,2.2,4.6,2.2,7.5s-0.8,5.3-2.2,7.5
						L151,350.6z"/>
				</g>
				<text transform="matrix(1 0 0 1 155.1428 348)" class="st2 st5 st4"> </text>
				<g class="st1">
					<path class="st2" d="M30.7,413.5h3.7v0.7h-3.7V413.5z"/>
					<path class="st2" d="M44.8,414.3h-4.3l-1.2,3.7h-0.9l3.8-10.9h0.9L47,418h-1L44.8,414.3z M44.6,413.6l-0.7-2
						c-0.5-1.3-0.8-2.4-1.2-3.8h-0.1c-0.4,1.3-0.8,2.5-1.2,3.8l-0.7,2H44.6z"/>
					<path class="st2" d="M48.6,410h0.7l0.1,1h0c0.8-0.6,1.7-1.2,2.7-1.2c2.1,0,3.2,1.6,3.2,4.1c0,2.7-1.6,4.3-3.5,4.3
						c-0.8,0-1.5-0.3-2.4-1l0,1.5v2.9h-0.9V410z M54.4,413.9c0-1.9-0.7-3.3-2.4-3.3c-0.8,0-1.6,0.5-2.5,1.3v4.6c0.9,0.7,1.7,1,2.3,1
						C53.3,417.4,54.4,416,54.4,413.9z"/>
					<path class="st2" d="M57.7,410h0.7l0.1,1h0c0.8-0.6,1.7-1.2,2.7-1.2c2.1,0,3.2,1.6,3.2,4.1c0,2.7-1.6,4.3-3.5,4.3
						c-0.8,0-1.5-0.3-2.4-1l0,1.5v2.9h-0.9V410z M63.5,413.9c0-1.9-0.7-3.3-2.4-3.3c-0.8,0-1.6,0.5-2.5,1.3v4.6c0.9,0.7,1.7,1,2.3,1
						C62.4,417.4,63.5,416,63.5,413.9z"/>
					<path class="st2" d="M66.8,410h0.7l0.1,1.5h0c0.5-1,1.3-1.7,2.3-1.7c0.3,0,0.6,0,0.8,0.2l-0.2,0.8c-0.3-0.1-0.4-0.1-0.7-0.1
						c-0.7,0-1.6,0.5-2.1,2v5.4h-0.9V410z"/>
					<path class="st2" d="M71.3,414c0-2.7,1.7-4.2,3.6-4.2c1.9,0,3.6,1.5,3.6,4.2c0,2.7-1.7,4.2-3.6,4.2
						C73,418.2,71.3,416.7,71.3,414z M77.7,414c0-2-1.2-3.4-2.7-3.4c-1.6,0-2.7,1.4-2.7,3.4c0,2,1.1,3.4,2.7,3.4
						C76.5,417.4,77.7,416,77.7,414z"/>
					<path class="st2" d="M80.1,416c0-1.8,1.6-2.6,5.1-3c0-1.2-0.3-2.4-1.8-2.4c-1,0-2,0.5-2.5,0.9l-0.4-0.6c0.6-0.4,1.7-1.1,3-1.1
						c1.9,0,2.6,1.4,2.6,3.1v5.1h-0.7l-0.1-1h0c-0.8,0.7-1.8,1.2-2.8,1.2C81.1,418.2,80.1,417.5,80.1,416z M85.2,416.2v-2.6
						c-3.1,0.4-4.2,1.1-4.2,2.3c0,1.1,0.8,1.5,1.6,1.5C83.5,417.5,84.3,417,85.2,416.2z"/>
					<path class="st2" d="M88.2,414c0-2.7,1.7-4.2,3.7-4.2c1.1,0,1.8,0.5,2.3,1l-0.5,0.6c-0.5-0.5-1.1-0.8-1.8-0.8
						c-1.6,0-2.8,1.4-2.8,3.4c0,2,1.1,3.4,2.8,3.4c0.8,0,1.5-0.4,2.1-0.9l0.4,0.6c-0.7,0.6-1.5,1-2.5,1
						C89.8,418.2,88.2,416.7,88.2,414z"/>
					<path class="st2" d="M96.3,406.1h0.9v3.4l0,1.7c0.8-0.8,1.6-1.4,2.7-1.4c1.7,0,2.4,1,2.4,3.1v5.1h-0.9v-5
						c0-1.7-0.5-2.4-1.8-2.4c-0.9,0-1.6,0.5-2.5,1.4v6h-0.9V406.1z"/>
					<path class="st2" d="M108.2,407.4c0-0.5,0.3-0.7,0.7-0.7c0.4,0,0.7,0.3,0.7,0.7c0,0.4-0.3,0.7-0.7,0.7
						C108.6,408.1,108.2,407.8,108.2,407.4z M108.5,410h0.9v8h-0.9V410z"/>
					<path class="st2" d="M112.4,410h0.7l0.1,1.2h0c0.8-0.8,1.6-1.4,2.7-1.4c1.7,0,2.4,1,2.4,3.1v5.1h-0.9v-5c0-1.7-0.5-2.4-1.8-2.4
						c-0.9,0-1.6,0.5-2.5,1.4v6h-0.9V410z"/>
					<path class="st2" d="M120.6,419.6c0-0.7,0.5-1.4,1.2-1.9v-0.1c-0.4-0.2-0.7-0.7-0.7-1.3c0-0.7,0.5-1.2,0.9-1.5v-0.1
						c-0.5-0.4-1-1.2-1-2.2c0-1.7,1.3-2.8,2.9-2.8c0.4,0,0.8,0.1,1.1,0.2h2.7v0.7h-1.8c0.5,0.4,0.8,1.1,0.8,1.9
						c0,1.6-1.2,2.8-2.8,2.8c-0.4,0-0.9-0.1-1.3-0.3c-0.3,0.3-0.6,0.6-0.6,1.1c0,0.6,0.3,1,1.5,1h1.7c1.8,0,2.7,0.6,2.7,1.8
						c0,1.4-1.5,2.7-3.8,2.7C121.9,421.8,120.6,421,120.6,419.6z M126.9,419.2c0-0.9-0.6-1.2-1.8-1.2h-1.6c-0.2,0-0.6,0-1-0.1
						c-0.7,0.5-1,1.1-1,1.6c0,1,0.9,1.6,2.6,1.6C125.7,421.1,126.9,420.2,126.9,419.2z M125.8,412.6c0-1.3-0.9-2.1-2-2.1
						c-1.1,0-2,0.8-2,2.1c0,1.3,0.9,2.2,2,2.2C124.8,414.8,125.8,413.9,125.8,412.6z"/>
					<path class="st2" d="M129.4,410h0.7l0.1,1.5h0c0.5-1,1.3-1.7,2.3-1.7c0.3,0,0.6,0,0.8,0.2l-0.2,0.8c-0.3-0.1-0.4-0.1-0.7-0.1
						c-0.7,0-1.6,0.5-2.1,2v5.4h-0.9V410z"/>
					<path class="st2" d="M134,414c0-2.6,1.7-4.2,3.5-4.2c1.9,0,3.1,1.4,3.1,3.7c0,0.2,0,0.4,0,0.6h-5.7c0,1.9,1.2,3.3,2.9,3.3
						c0.9,0,1.5-0.3,2.1-0.7l0.3,0.6c-0.6,0.4-1.4,0.8-2.5,0.8C135.6,418.2,134,416.6,134,414z M139.8,413.5c0-1.9-0.9-2.9-2.3-2.9
						c-1.3,0-2.5,1.1-2.6,2.9H139.8z"/>
					<path class="st2" d="M142,414c0-2.6,1.6-4.2,3.5-4.2c1,0,1.6,0.4,2.4,1l-0.1-1.4v-3.3h0.9V418H148l-0.1-1h0
						c-0.6,0.6-1.5,1.2-2.6,1.2C143.3,418.2,142,416.7,142,414z M147.9,416.2v-4.6c-0.8-0.7-1.5-1-2.2-1c-1.5,0-2.7,1.5-2.7,3.4
						c0,2.1,0.9,3.4,2.5,3.4C146.4,417.4,147.1,417,147.9,416.2z"/>
					<path class="st2" d="M151.5,407.4c0-0.5,0.3-0.7,0.7-0.7c0.4,0,0.7,0.3,0.7,0.7c0,0.4-0.3,0.7-0.7,0.7
						C151.8,408.1,151.5,407.8,151.5,407.4z M151.8,410h0.9v8h-0.9V410z"/>
					<path class="st2" d="M155,414c0-2.6,1.7-4.2,3.5-4.2c1.9,0,3.1,1.4,3.1,3.7c0,0.2,0,0.4,0,0.6h-5.7c0,1.9,1.2,3.3,2.9,3.3
						c0.9,0,1.5-0.3,2.1-0.7l0.3,0.6c-0.6,0.4-1.4,0.8-2.5,0.8C156.6,418.2,155,416.6,155,414z M160.8,413.5c0-1.9-0.9-2.9-2.3-2.9
						c-1.3,0-2.5,1.1-2.6,2.9H160.8z"/>
					<path class="st2" d="M163.7,410h0.7l0.1,1.2h0c0.8-0.8,1.6-1.4,2.7-1.4c1.7,0,2.4,1,2.4,3.1v5.1h-0.9v-5c0-1.7-0.5-2.4-1.8-2.4
						c-0.9,0-1.6,0.5-2.5,1.4v6h-0.9V410z"/>
					<path class="st2" d="M172.8,415.7v-5h-1.2v-0.7l1.3-0.1l0.1-2.3h0.7v2.3h2.3v0.7h-2.3v5c0,1,0.3,1.7,1.3,1.7
						c0.3,0,0.7-0.1,1-0.2l0.2,0.7c-0.5,0.2-1,0.3-1.3,0.3C173.3,418.2,172.8,417.2,172.8,415.7z"/>
					<path class="st2" d="M176.7,417.1l0.5-0.6c0.7,0.6,1.4,1,2.5,1c1.2,0,1.8-0.7,1.8-1.5c0-0.9-1-1.4-1.9-1.7
						c-1.2-0.4-2.5-0.9-2.5-2.3c0-1.2,0.9-2.2,2.6-2.2c0.9,0,1.7,0.4,2.3,0.9l-0.4,0.6c-0.5-0.4-1.1-0.7-1.9-0.7
						c-1.2,0-1.7,0.7-1.7,1.4c0,0.9,0.9,1.2,1.9,1.6c1.2,0.5,2.6,0.9,2.6,2.4c0,1.2-1,2.3-2.7,2.3
						C178.5,418.2,177.4,417.7,176.7,417.1z"/>
					<path class="st2" d="M187.3,416c0-1.8,1.6-2.6,5.1-3c0-1.2-0.3-2.4-1.8-2.4c-1,0-2,0.5-2.5,0.9l-0.4-0.6c0.6-0.4,1.7-1.1,3-1.1
						c1.9,0,2.6,1.4,2.6,3.1v5.1h-0.7l-0.1-1h0c-0.8,0.7-1.8,1.2-2.8,1.2C188.3,418.2,187.3,417.5,187.3,416z M192.4,416.2v-2.6
						c-3.1,0.4-4.2,1.1-4.2,2.3c0,1.1,0.8,1.5,1.6,1.5C190.6,417.5,191.4,417,192.4,416.2z"/>
					<path class="st2" d="M196,410h0.7l0.1,1.2h0c0.8-0.8,1.6-1.4,2.7-1.4c1.7,0,2.4,1,2.4,3.1v5.1h-0.9v-5c0-1.7-0.5-2.4-1.8-2.4
						c-0.9,0-1.6,0.5-2.5,1.4v6H196V410z"/>
					<path class="st2" d="M204.3,414c0-2.6,1.7-4.2,3.5-4.2c1,0,1.6,0.4,2.4,1l-0.1-1.4v-3.3h0.9V418h-0.7l-0.1-1h0
						c-0.6,0.6-1.5,1.2-2.6,1.2C205.6,418.2,204.3,416.7,204.3,414z M210.1,416.2v-4.6c-0.8-0.7-1.5-1-2.2-1c-1.5,0-2.7,1.5-2.7,3.4
						c0,2.1,0.9,3.4,2.5,3.4C208.6,417.4,209.3,417,210.1,416.2z"/>
					<path class="st2" d="M216.7,414c0-2.6,1.7-4.2,3.5-4.2c1.9,0,3.1,1.4,3.1,3.7c0,0.2,0,0.4,0,0.6h-5.7c0,1.9,1.2,3.3,2.9,3.3
						c0.9,0,1.5-0.3,2.1-0.7l0.3,0.6c-0.6,0.4-1.4,0.8-2.6,0.8C218.3,418.2,216.7,416.6,216.7,414z M222.5,413.5
						c0-1.9-0.9-2.9-2.3-2.9c-1.3,0-2.5,1.1-2.6,2.9H222.5z"/>
					<path class="st2" d="M230,408.3c0-1.6,0.7-2.4,2.1-2.4c0.4,0,0.8,0.1,1.2,0.3l-0.2,0.7c-0.3-0.2-0.6-0.2-0.9-0.2
						c-0.9,0-1.2,0.6-1.2,1.8v1.6h1.8v0.7h-1.8v7.3H230v-7.3h-3.6v7.3h-0.9v-7.3h-1.1v-0.7l1.1-0.1v-1.4c0-1.7,0.8-2.6,2.2-2.6
						c0.5,0,0.9,0.1,1.4,0.3l-0.2,0.7c-0.4-0.2-0.8-0.3-1.1-0.3c-0.9,0-1.4,0.7-1.4,1.9v1.3h3.6V408.3z M235.5,407.4
						c0,0.4-0.3,0.7-0.7,0.7c-0.4,0-0.7-0.3-0.7-0.7c0-0.5,0.3-0.7,0.7-0.7C235.2,406.7,235.5,407,235.5,407.4z M234.4,410h0.9v8
						h-0.9V410z"/>
					<path class="st2" d="M237.6,414c0-2.7,1.7-4.2,3.7-4.2c1.1,0,1.8,0.5,2.3,1l-0.5,0.6c-0.5-0.5-1.1-0.8-1.8-0.8
						c-1.6,0-2.8,1.4-2.8,3.4c0,2,1.1,3.4,2.8,3.4c0.8,0,1.5-0.4,2.1-0.9l0.4,0.6c-0.7,0.6-1.5,1-2.5,1
						C239.1,418.2,237.6,416.7,237.6,414z"/>
					<path class="st2" d="M245,416c0-1.8,1.6-2.6,5.1-3c0-1.2-0.3-2.4-1.8-2.4c-1,0-2,0.5-2.5,0.9l-0.4-0.6c0.6-0.4,1.7-1.1,3-1.1
						c1.9,0,2.6,1.4,2.6,3.1v5.1h-0.7l-0.1-1h0c-0.8,0.7-1.8,1.2-2.8,1.2C246,418.2,245,417.5,245,416z M250.1,416.2v-2.6
						c-3.1,0.4-4.2,1.1-4.2,2.3c0,1.1,0.8,1.5,1.6,1.5S249.1,417,250.1,416.2z"/>
					<path class="st2" d="M253.1,414c0-2.7,1.7-4.2,3.7-4.2c1.1,0,1.8,0.5,2.3,1l-0.5,0.6c-0.5-0.5-1.1-0.8-1.8-0.8
						c-1.6,0-2.8,1.4-2.8,3.4c0,2,1.1,3.4,2.8,3.4c0.8,0,1.5-0.4,2.1-0.9l0.4,0.6c-0.7,0.6-1.5,1-2.5,1
						C254.7,418.2,253.1,416.7,253.1,414z"/>
					<path class="st2" d="M260.3,421.4l0.2-0.7c0.2,0.1,0.4,0.1,0.6,0.1c1,0,1.6-0.9,2-2l0.2-0.7l-3.3-8.1h0.9l1.9,4.9
						c0.3,0.7,0.6,1.5,0.8,2.2h0.1c0.2-0.7,0.5-1.6,0.7-2.2l1.6-4.9h0.9l-3.1,8.9c-0.5,1.4-1.3,2.7-2.8,2.7
						C260.8,421.6,260.5,421.5,260.3,421.4z"/>
				</g>
				<g class="st1">
					<path class="st2" d="M31.5,445h0.7l0.1,1.5h0c0.5-1,1.3-1.7,2.3-1.7c0.3,0,0.6,0,0.8,0.2l-0.2,0.8c-0.3-0.1-0.4-0.1-0.7-0.1
						c-0.7,0-1.6,0.5-2.1,2v5.4h-0.9V445z"/>
					<path class="st2" d="M36.1,449c0-2.6,1.7-4.2,3.5-4.2c1.9,0,3.1,1.4,3.1,3.7c0,0.2,0,0.4,0,0.6h-5.7c0,1.9,1.2,3.3,2.9,3.3
						c0.9,0,1.5-0.3,2.1-0.7l0.3,0.6c-0.6,0.4-1.4,0.8-2.5,0.8C37.7,453.2,36.1,451.6,36.1,449z M41.9,448.5c0-1.9-0.9-2.9-2.3-2.9
						c-1.3,0-2.5,1.1-2.6,2.9H41.9z"/>
					<path class="st2" d="M43.8,452.1l0.5-0.6c0.7,0.6,1.4,1,2.5,1c1.2,0,1.8-0.7,1.8-1.5c0-0.9-1-1.4-1.9-1.7
						c-1.2-0.4-2.5-0.9-2.5-2.3c0-1.2,0.9-2.2,2.6-2.2c0.9,0,1.7,0.4,2.3,0.9l-0.4,0.6c-0.5-0.4-1.1-0.7-1.9-0.7
						c-1.2,0-1.7,0.7-1.7,1.4c0,0.9,0.9,1.2,1.9,1.6c1.2,0.5,2.6,0.9,2.6,2.4c0,1.2-1,2.3-2.7,2.3C45.6,453.2,44.5,452.7,43.8,452.1
						z"/>
					<path class="st2" d="M50.9,449c0-2.6,1.7-4.2,3.5-4.2c1.9,0,3.1,1.4,3.1,3.7c0,0.2,0,0.4,0,0.6h-5.7c0,1.9,1.2,3.3,2.9,3.3
						c0.9,0,1.5-0.3,2.1-0.7l0.3,0.6c-0.6,0.4-1.4,0.8-2.5,0.8C52.6,453.2,50.9,451.6,50.9,449z M56.7,448.5c0-1.9-0.9-2.9-2.3-2.9
						c-1.3,0-2.5,1.1-2.6,2.9H56.7z"/>
					<path class="st2" d="M58.8,451c0-1.8,1.6-2.6,5.1-3c0-1.2-0.3-2.4-1.8-2.4c-1,0-2,0.5-2.5,0.9l-0.4-0.6c0.6-0.4,1.7-1.1,3-1.1
						c1.9,0,2.6,1.4,2.6,3.1v5.1h-0.7l-0.1-1h0c-0.8,0.7-1.8,1.2-2.8,1.2C59.9,453.2,58.8,452.5,58.8,451z M63.9,451.2v-2.6
						c-3.1,0.4-4.2,1.1-4.2,2.3c0,1.1,0.8,1.5,1.6,1.5C62.2,452.5,63,452,63.9,451.2z"/>
					<path class="st2" d="M67.6,445h0.7l0.1,1.5h0c0.5-1,1.3-1.7,2.3-1.7c0.3,0,0.6,0,0.8,0.2l-0.2,0.8c-0.3-0.1-0.4-0.1-0.7-0.1
						c-0.7,0-1.6,0.5-2.1,2v5.4h-0.9V445z"/>
					<path class="st2" d="M72.1,449c0-2.7,1.7-4.2,3.7-4.2c1.1,0,1.8,0.5,2.3,1l-0.5,0.6c-0.5-0.5-1.1-0.8-1.8-0.8
						c-1.6,0-2.8,1.4-2.8,3.4c0,2,1.1,3.4,2.8,3.4c0.8,0,1.5-0.4,2.1-0.9l0.4,0.6c-0.7,0.6-1.5,1-2.5,1
						C73.7,453.2,72.1,451.7,72.1,449z"/>
					<path class="st2" d="M80.3,441.1h0.9v3.4l0,1.7c0.8-0.8,1.6-1.4,2.7-1.4c1.7,0,2.4,1,2.4,3.1v5.1h-0.9v-5
						c0-1.7-0.5-2.4-1.8-2.4c-0.9,0-1.6,0.5-2.5,1.4v6h-0.9V441.1z"/>
					<path class="st2" d="M95.6,441.8c-0.3-0.2-0.6-0.2-0.9-0.2c-0.9,0-1.2,0.6-1.2,1.8v1.6h1.8v0.7h-1.8v7.3h-0.9v-7.3h-1.1v-0.7
						l1.1-0.1v-1.7c0-1.6,0.7-2.4,2.1-2.4c0.4,0,0.8,0.1,1.2,0.3L95.6,441.8z"/>
					<path class="st2" d="M96.9,445h0.7l0.1,1.5h0c0.5-1,1.3-1.7,2.3-1.7c0.3,0,0.6,0,0.8,0.2l-0.2,0.8c-0.3-0.1-0.4-0.1-0.7-0.1
						c-0.7,0-1.6,0.5-2.1,2v5.4h-0.9V445z"/>
					<path class="st2" d="M101.5,449c0-2.7,1.7-4.2,3.6-4.2c1.9,0,3.6,1.5,3.6,4.2c0,2.7-1.7,4.2-3.6,4.2
						C103.2,453.2,101.5,451.7,101.5,449z M107.8,449c0-2-1.2-3.4-2.7-3.4c-1.6,0-2.7,1.4-2.7,3.4c0,2,1.1,3.4,2.7,3.4
						C106.7,452.4,107.8,451,107.8,449z"/>
					<path class="st2" d="M111.1,445h0.7l0.1,1.2h0c0.7-0.8,1.6-1.4,2.5-1.4c1.3,0,1.9,0.6,2.2,1.6c0.9-1,1.8-1.6,2.7-1.6
						c1.6,0,2.4,1,2.4,3.1v5.1h-0.9v-5c0-1.7-0.6-2.4-1.7-2.4c-0.7,0-1.5,0.5-2.3,1.4v6H116v-5c0-1.7-0.5-2.4-1.7-2.4
						c-0.7,0-1.5,0.5-2.3,1.4v6h-0.9V445z"/>
					<path class="st2" d="M127.3,449c0-2.7,1.7-4.2,3.7-4.2c1.1,0,1.8,0.5,2.3,1l-0.5,0.6c-0.5-0.5-1.1-0.8-1.8-0.8
						c-1.6,0-2.8,1.4-2.8,3.4c0,2,1.1,3.4,2.8,3.4c0.8,0,1.5-0.4,2.1-0.9l0.4,0.6c-0.7,0.6-1.5,1-2.5,1
						C128.9,453.2,127.3,451.7,127.3,449z"/>
					<path class="st2" d="M134.5,449c0-2.7,1.7-4.2,3.6-4.2c1.9,0,3.6,1.5,3.6,4.2c0,2.7-1.7,4.2-3.6,4.2
						C136.1,453.2,134.5,451.7,134.5,449z M140.8,449c0-2-1.2-3.4-2.7-3.4c-1.6,0-2.7,1.4-2.7,3.4c0,2,1.1,3.4,2.7,3.4
						C139.6,452.4,140.8,451,140.8,449z"/>
					<path class="st2" d="M144,445h0.7l0.1,1.2h0c0.8-0.8,1.6-1.4,2.7-1.4c1.7,0,2.4,1,2.4,3.1v5.1h-0.9v-5c0-1.7-0.5-2.4-1.8-2.4
						c-0.9,0-1.6,0.5-2.5,1.4v6H144V445z"/>
					<path class="st2" d="M151.9,452.1l0.5-0.6c0.7,0.6,1.4,1,2.5,1c1.2,0,1.8-0.7,1.8-1.5c0-0.9-1-1.4-1.9-1.7
						c-1.2-0.4-2.5-0.9-2.5-2.3c0-1.2,0.9-2.2,2.6-2.2c0.9,0,1.7,0.4,2.3,0.9l-0.4,0.6c-0.5-0.4-1.1-0.7-1.9-0.7
						c-1.2,0-1.7,0.7-1.7,1.4c0,0.9,0.9,1.2,1.9,1.6c1.2,0.5,2.6,0.9,2.6,2.4c0,1.2-1,2.3-2.7,2.3
						C153.7,453.2,152.7,452.7,151.9,452.1z"/>
					<path class="st2" d="M159.6,450.1V445h0.9v5c0,1.6,0.5,2.4,1.7,2.4c0.9,0,1.6-0.5,2.5-1.6V445h0.9v8h-0.7l-0.1-1.3h0
						c-0.8,0.9-1.6,1.5-2.7,1.5C160.3,453.2,159.6,452.2,159.6,450.1z"/>
					<path class="st2" d="M168.6,445h0.7l0.1,1.2h0c0.7-0.8,1.6-1.4,2.5-1.4c1.3,0,1.9,0.6,2.2,1.6c0.9-1,1.8-1.6,2.7-1.6
						c1.6,0,2.4,1,2.4,3.1v5.1h-0.9v-5c0-1.7-0.6-2.4-1.7-2.4c-0.7,0-1.5,0.5-2.3,1.4v6h-0.9v-5c0-1.7-0.5-2.4-1.7-2.4
						c-0.7,0-1.5,0.5-2.3,1.4v6h-0.9V445z"/>
					<path class="st2" d="M181.5,449c0-2.6,1.7-4.2,3.5-4.2c1.9,0,3.1,1.4,3.1,3.7c0,0.2,0,0.4,0,0.6h-5.7c0,1.9,1.2,3.3,2.9,3.3
						c0.9,0,1.5-0.3,2.1-0.7l0.3,0.6c-0.6,0.4-1.4,0.8-2.5,0.8C183.1,453.2,181.5,451.6,181.5,449z M187.3,448.5
						c0-1.9-0.9-2.9-2.3-2.9c-1.3,0-2.5,1.1-2.6,2.9H187.3z"/>
					<path class="st2" d="M190.2,445h0.7l0.1,1.5h0c0.5-1,1.3-1.7,2.3-1.7c0.3,0,0.6,0,0.8,0.2l-0.2,0.8c-0.3-0.1-0.4-0.1-0.7-0.1
						c-0.7,0-1.6,0.5-2.1,2v5.4h-0.9V445z"/>
					<path class="st2" d="M195.6,444.8c0.7-0.6,1.1-1.1,1.1-2.1c0,0-0.1,0-0.1,0c-0.3,0-0.7-0.2-0.7-0.7s0.3-0.7,0.7-0.7
						c0.5,0,0.8,0.4,0.8,1.2c0,1.2-0.6,2.1-1.5,2.7L195.6,444.8z"/>
					<path class="st2" d="M197.9,452.1l0.5-0.6c0.7,0.6,1.4,1,2.5,1c1.2,0,1.8-0.7,1.8-1.5c0-0.9-1-1.4-1.9-1.7
						c-1.2-0.4-2.5-0.9-2.5-2.3c0-1.2,0.9-2.2,2.6-2.2c0.9,0,1.7,0.4,2.3,0.9l-0.5,0.6c-0.5-0.4-1.1-0.7-1.9-0.7
						c-1.2,0-1.7,0.7-1.7,1.4c0,0.9,0.9,1.2,1.9,1.6c1.2,0.5,2.6,0.9,2.6,2.4c0,1.2-1,2.3-2.7,2.3
						C199.7,453.2,198.7,452.7,197.9,452.1z"/>
					<path class="st2" d="M209,445h0.7l0.1,1h0c0.8-0.6,1.7-1.2,2.7-1.2c2.1,0,3.2,1.6,3.2,4.1c0,2.7-1.7,4.3-3.5,4.3
						c-0.8,0-1.5-0.3-2.4-1l0,1.5v2.9H209V445z M214.8,448.9c0-1.9-0.7-3.3-2.4-3.3c-0.8,0-1.6,0.5-2.5,1.3v4.6c0.9,0.7,1.7,1,2.3,1
						C213.7,452.4,214.8,451,214.8,448.9z"/>
					<path class="st2" d="M217.4,449c0-2.6,1.7-4.2,3.5-4.2c1.9,0,3.1,1.4,3.1,3.7c0,0.2,0,0.4,0,0.6h-5.7c0,1.9,1.2,3.3,2.9,3.3
						c0.9,0,1.5-0.3,2.1-0.7l0.3,0.6c-0.6,0.4-1.4,0.8-2.5,0.8C219.1,453.2,217.4,451.6,217.4,449z M223.2,448.5
						c0-1.9-0.9-2.9-2.3-2.9c-1.3,0-2.5,1.1-2.6,2.9H223.2z"/>
					<path class="st2" d="M226.2,445h0.7l0.1,1.5h0c0.5-1,1.3-1.7,2.3-1.7c0.3,0,0.6,0,0.8,0.2l-0.2,0.8c-0.3-0.1-0.4-0.1-0.7-0.1
						c-0.7,0-1.6,0.5-2.1,2v5.4h-0.9V445z"/>
					<path class="st2" d="M230.6,452.1l0.5-0.6c0.7,0.6,1.4,1,2.5,1c1.2,0,1.8-0.7,1.8-1.5c0-0.9-1-1.4-1.9-1.7
						c-1.2-0.4-2.5-0.9-2.5-2.3c0-1.2,0.9-2.2,2.6-2.2c0.9,0,1.7,0.4,2.3,0.9l-0.4,0.6c-0.5-0.4-1.1-0.7-1.9-0.7
						c-1.2,0-1.7,0.7-1.7,1.4c0,0.9,0.9,1.2,1.9,1.6c1.2,0.5,2.6,0.9,2.6,2.4c0,1.2-1,2.3-2.7,2.3
						C232.3,453.2,231.3,452.7,230.6,452.1z"/>
					<path class="st2" d="M238.3,445h0.7l0.1,1h0c0.8-0.6,1.7-1.2,2.7-1.2c2.1,0,3.2,1.6,3.2,4.1c0,2.7-1.6,4.3-3.5,4.3
						c-0.8,0-1.5-0.3-2.4-1l0,1.5v2.9h-0.9V445z M244.1,448.9c0-1.9-0.7-3.3-2.4-3.3c-0.8,0-1.6,0.5-2.5,1.3v4.6
						c0.9,0.7,1.7,1,2.3,1C243,452.4,244.1,451,244.1,448.9z"/>
					<path class="st2" d="M246.7,449c0-2.6,1.7-4.2,3.5-4.2c1.9,0,3.1,1.4,3.1,3.7c0,0.2,0,0.4,0,0.6h-5.7c0,1.9,1.2,3.3,2.9,3.3
						c0.9,0,1.5-0.3,2.1-0.7l0.3,0.6c-0.6,0.4-1.4,0.8-2.5,0.8C248.4,453.2,246.7,451.6,246.7,449z M252.6,448.5
						c0-1.9-0.9-2.9-2.3-2.9c-1.3,0-2.5,1.1-2.6,2.9H252.6z"/>
					<path class="st2" d="M254.8,449c0-2.7,1.7-4.2,3.7-4.2c1.1,0,1.8,0.5,2.3,1l-0.5,0.6c-0.5-0.5-1.1-0.8-1.8-0.8
						c-1.6,0-2.8,1.4-2.8,3.4c0,2,1.1,3.4,2.8,3.4c0.8,0,1.5-0.4,2.1-0.9l0.4,0.6c-0.7,0.6-1.5,1-2.5,1
						C256.4,453.2,254.8,451.7,254.8,449z"/>
					<path class="st2" d="M263,450.7v-5h-1.2v-0.7l1.3-0.1l0.1-2.3h0.7v2.3h2.3v0.7h-2.3v5c0,1,0.3,1.7,1.3,1.7c0.3,0,0.7-0.1,1-0.2
						l0.2,0.7c-0.5,0.2-1,0.3-1.3,0.3C263.5,453.2,263,452.2,263,450.7z"/>
					<path class="st2" d="M267.8,442.4c0-0.5,0.3-0.7,0.7-0.7c0.4,0,0.7,0.3,0.7,0.7c0,0.4-0.3,0.7-0.7,0.7
						C268.1,443.1,267.8,442.8,267.8,442.4z M268.1,445h0.9v8h-0.9V445z"/>
					<path class="st2" d="M270.6,445h0.9l1.7,4.9c0.3,0.8,0.5,1.6,0.8,2.3h0.1c0.3-0.7,0.5-1.5,0.8-2.3l1.7-4.9h0.9l-2.9,8h-1
						L270.6,445z"/>
					<path class="st2" d="M278.6,449c0-2.6,1.7-4.2,3.5-4.2c1.9,0,3.1,1.4,3.1,3.7c0,0.2,0,0.4,0,0.6h-5.7c0,1.9,1.2,3.3,2.9,3.3
						c0.9,0,1.5-0.3,2.1-0.7l0.3,0.6c-0.6,0.4-1.4,0.8-2.5,0.8C280.3,453.2,278.6,451.6,278.6,449z M284.4,448.5
						c0-1.9-0.9-2.9-2.3-2.9c-1.3,0-2.5,1.1-2.6,2.9H284.4z"/>
				</g>
			</g>
			
				<g id="arrow" transform="translate(167.500000, 576.500000) rotate(-270.000000) translate(-167.500000, -576.500000) translate(117.000000, 566.500000)">
				<path id="Line" class="st6" d="M0.5,10h100"/>
				<polyline id="Stroke-1" class="st7" points="90,0 101,10 90,20 				"/>
				<polyline class="st7" points="11,20 0,10 11,0 				"/>
			</g>
			<g id="box3" transform="translate(0.000000, 646.500000)">
				<path class="st8" d="M9,1h316c4.4,0,8,3.6,8,8v132c0,4.4-3.6,8-8,8H9c-4.4,0-8-3.6-8-8V9C1,4.6,4.6,1,9,1z"/>
				<g class="st1">
					<path class="st9" d="M36,53.7c0-3.6,2.2-5.8,5.1-5.8c1.6,0,2.6,0.7,3.3,1.4l-0.9,1.1c-0.5-0.6-1.2-1-2.3-1
						c-2.1,0-3.4,1.6-3.4,4.2c0,2.6,1.2,4.2,3.5,4.2c0.7,0,1.4-0.2,1.7-0.5v-2.6h-2.2v-1.4h3.8v4.8c-0.7,0.7-2,1.3-3.5,1.3
						C38.2,59.3,36,57.3,36,53.7z"/>
					<path class="st9" d="M47,57.2v-10h1.7v10.1c0,0.5,0.2,0.6,0.4,0.6c0.1,0,0.1,0,0.3,0l0.2,1.3c-0.2,0.1-0.5,0.1-0.9,0.1
						C47.5,59.3,47,58.6,47,57.2z"/>
					<path class="st9" d="M50.9,55c0-2.8,1.8-4.4,3.9-4.4c2,0,3.9,1.6,3.9,4.4c0,2.7-1.8,4.3-3.9,4.3C52.7,59.3,50.9,57.8,50.9,55z
						 M56.9,55c0-1.8-0.8-2.9-2.1-2.9c-1.3,0-2.1,1.2-2.1,2.9c0,1.7,0.8,2.9,2.1,2.9C56.1,57.9,56.9,56.8,56.9,55z"/>
					<path class="st9" d="M62.2,58.3L62.2,58.3L62,59.2h-1.3v-12h1.7v3.2l0,1.4c0.7-0.6,1.6-1.1,2.5-1.1c2.1,0,3.3,1.7,3.3,4.2
						c0,2.8-1.7,4.5-3.6,4.5C63.8,59.3,62.9,59,62.2,58.3z M66.3,54.9c0-1.7-0.6-2.8-1.9-2.8c-0.6,0-1.3,0.3-2,1v4
						c0.6,0.6,1.3,0.8,1.8,0.8C65.4,57.9,66.3,56.9,66.3,54.9z"/>
					<path class="st9" d="M69.4,57c0-1.8,1.5-2.7,4.9-3.1c0-1-0.4-1.8-1.6-1.8c-0.9,0-1.7,0.4-2.4,0.8l-0.6-1.2
						c0.9-0.5,2-1.1,3.3-1.1c2.1,0,3,1.3,3,3.5v5h-1.4l-0.1-0.9h0c-0.8,0.6-1.6,1.1-2.6,1.1C70.4,59.3,69.4,58.4,69.4,57z M74.3,57
						v-2c-2.4,0.3-3.3,0.9-3.3,1.8c0,0.8,0.6,1.1,1.3,1.1C73.1,58,73.7,57.6,74.3,57z"/>
					<path class="st9" d="M78.5,57.2v-10h1.7v10.1c0,0.5,0.2,0.6,0.4,0.6c0.1,0,0.1,0,0.3,0l0.2,1.3c-0.2,0.1-0.5,0.1-0.9,0.1
						C79,59.3,78.5,58.6,78.5,57.2z"/>
					<path class="st9" d="M86.4,57.2v-10h1.7v10.1c0,0.5,0.2,0.6,0.4,0.6c0.1,0,0.1,0,0.3,0l0.2,1.3c-0.2,0.1-0.5,0.1-0.9,0.1
						C86.8,59.3,86.4,58.6,86.4,57.2z"/>
					<path class="st9" d="M90.4,57c0-1.8,1.5-2.7,4.9-3.1c0-1-0.4-1.8-1.6-1.8c-0.9,0-1.7,0.4-2.4,0.8l-0.6-1.2
						c0.9-0.5,2-1.1,3.3-1.1c2.1,0,3,1.3,3,3.5v5h-1.4l-0.1-0.9h0c-0.8,0.6-1.6,1.1-2.6,1.1C91.4,59.3,90.4,58.4,90.4,57z M95.3,57
						v-2c-2.4,0.3-3.3,0.9-3.3,1.8c0,0.8,0.6,1.1,1.3,1.1C94,58,94.6,57.6,95.3,57z"/>
					<path class="st9" d="M99.4,56.1v-5.2h1.7v5c0,1.4,0.4,2,1.4,2c0.8,0,1.3-0.4,2-1.2v-5.7h1.7v8.2h-1.4l-0.1-1.2h0
						c-0.8,0.9-1.6,1.4-2.7,1.4C100.1,59.3,99.4,58.2,99.4,56.1z"/>
					<path class="st9" d="M108.8,50.9h1.4l0.1,1.1h0c0.8-0.7,1.6-1.4,2.7-1.4c1.8,0,2.5,1.2,2.5,3.3v5.2h-1.7v-5c0-1.4-0.4-2-1.4-2
						c-0.8,0-1.3,0.4-2,1.1v5.8h-1.7V50.9z"/>
					<path class="st9" d="M117.5,55c0-2.8,1.9-4.4,4.1-4.4c1,0,1.8,0.4,2.4,0.9l-0.9,1.1c-0.5-0.4-0.9-0.6-1.5-0.6
						c-1.4,0-2.4,1.2-2.4,2.9c0,1.7,0.9,2.9,2.3,2.9c0.7,0,1.3-0.3,1.8-0.8l0.7,1.1c-0.7,0.7-1.7,1-2.7,1
						C119.2,59.3,117.5,57.8,117.5,55z"/>
					<path class="st9" d="M125.9,47.2h1.7v3.2l-0.1,1.6c0.7-0.7,1.5-1.3,2.7-1.3c1.8,0,2.5,1.2,2.5,3.3v5.2H131v-5
						c0-1.4-0.4-2-1.4-2c-0.8,0-1.3,0.4-2,1.1v5.8h-1.7V47.2z"/>
					<path class="st9" d="M138,55c0-2.8,1.8-4.4,3.9-4.4c2,0,3.9,1.6,3.9,4.4c0,2.7-1.8,4.3-3.9,4.3C139.8,59.3,138,57.8,138,55z
						 M144,55c0-1.8-0.8-2.9-2.1-2.9c-1.3,0-2.1,1.2-2.1,2.9c0,1.7,0.8,2.9,2.1,2.9C143.2,57.9,144,56.8,144,55z"/>
					<path class="st9" d="M151.7,48.6c-0.3-0.1-0.6-0.2-0.9-0.2c-0.7,0-1.1,0.5-1.1,1.5v1h1.7v1.4h-1.7v6.9H148v-6.9h-1.1V51
						l1.1-0.1v-1c0-1.7,0.8-2.9,2.6-2.9c0.6,0,1.1,0.1,1.5,0.3L151.7,48.6z"/>
					<path class="st9" d="M155.7,55c0-2.8,1.9-4.4,4.1-4.4c1,0,1.8,0.4,2.4,0.9l-0.9,1.1c-0.5-0.4-0.9-0.6-1.5-0.6
						c-1.4,0-2.4,1.2-2.4,2.9c0,1.7,0.9,2.9,2.3,2.9c0.7,0,1.3-0.3,1.8-0.8l0.7,1.1c-0.7,0.7-1.7,1-2.7,1
						C157.4,59.3,155.7,57.8,155.7,55z"/>
					<path class="st9" d="M163.1,55c0-2.8,1.8-4.4,3.9-4.4c2,0,3.9,1.6,3.9,4.4c0,2.7-1.8,4.3-3.9,4.3
						C164.9,59.3,163.1,57.8,163.1,55z M169.1,55c0-1.8-0.8-2.9-2.1-2.9c-1.3,0-2.1,1.2-2.1,2.9c0,1.7,0.8,2.9,2.1,2.9
						C168.2,57.9,169.1,56.8,169.1,55z"/>
					<path class="st9" d="M171.9,58.2l0.8-1.1c0.7,0.6,1.5,0.9,2.3,0.9c1,0,1.5-0.5,1.5-1.1c0-0.8-0.9-1.1-1.8-1.4
						c-1.1-0.4-2.4-1-2.4-2.4c0-1.4,1.1-2.4,2.9-2.4c1.1,0,2,0.5,2.7,1l-0.8,1.1c-0.6-0.4-1.2-0.7-1.8-0.7c-0.9,0-1.3,0.5-1.3,1
						c0,0.7,0.9,1,1.8,1.3c1.2,0.4,2.4,0.9,2.4,2.5c0,1.4-1.1,2.5-3.1,2.5C173.9,59.3,172.7,58.9,171.9,58.2z"/>
					<path class="st9" d="M180,50.9h1.4l0.1,1.2h0c0.7-0.8,1.5-1.4,2.5-1.4c1.2,0,1.9,0.6,2.3,1.5c0.8-0.9,1.6-1.5,2.7-1.5
						c1.7,0,2.5,1.2,2.5,3.3v5.2h-1.7v-5c0-1.4-0.5-2-1.4-2c-0.6,0-1.2,0.4-1.9,1.1v5.8H185v-5c0-1.4-0.4-2-1.4-2
						c-0.6,0-1.2,0.4-1.9,1.1v5.8H180V50.9z"/>
					<path class="st9" d="M193.6,55c0-2.7,1.8-4.4,3.8-4.4c2.2,0,3.4,1.6,3.4,3.9c0,0.3,0,0.7-0.1,0.9h-5.4c0.1,1.6,1.1,2.5,2.5,2.5
						c0.7,0,1.4-0.2,2-0.6l0.6,1.1c-0.8,0.5-1.7,0.9-2.8,0.9C195.3,59.3,193.6,57.8,193.6,55z M199.2,54.3c0-1.4-0.6-2.2-1.8-2.2
						c-1,0-2,0.8-2.1,2.2H199.2z"/>
					<path class="st9" d="M202,55c0-2.8,1.9-4.4,4.1-4.4c1,0,1.8,0.4,2.4,0.9l-0.9,1.1c-0.4-0.4-0.9-0.6-1.5-0.6
						c-1.4,0-2.4,1.2-2.4,2.9c0,1.7,0.9,2.9,2.3,2.9c0.7,0,1.3-0.3,1.8-0.8l0.7,1.1c-0.7,0.7-1.7,1-2.7,1
						C203.7,59.3,202,57.8,202,55z"/>
					<path class="st9" d="M209.4,55c0-2.7,1.8-4.4,3.8-4.4c2.2,0,3.4,1.6,3.4,3.9c0,0.3,0,0.7-0.1,0.9h-5.4c0.1,1.6,1.1,2.5,2.5,2.5
						c0.7,0,1.4-0.2,2-0.6l0.6,1.1c-0.8,0.5-1.7,0.9-2.8,0.9C211.2,59.3,209.4,57.8,209.4,55z M215,54.3c0-1.4-0.6-2.2-1.8-2.2
						c-1,0-2,0.8-2.1,2.2H215z"/>
					<path class="st9" d="M218.3,56.1v-5.2h1.7v5c0,1.4,0.4,2,1.4,2c0.8,0,1.3-0.4,2-1.2v-5.7h1.7v8.2h-1.4l-0.1-1.2h0
						c-0.8,0.9-1.6,1.4-2.7,1.4C219.1,59.3,218.3,58.2,218.3,56.1z"/>
					<path class="st9" d="M228,56.5v-4.2h-1.2V51l1.3-0.1l0.2-2.3h1.5v2.3h2.1v1.4h-2.1v4.2c0,1,0.3,1.5,1.2,1.5
						c0.3,0,0.6-0.1,0.9-0.2l0.3,1.3c-0.5,0.2-1,0.3-1.6,0.3C228.7,59.3,228,58.2,228,56.5z"/>
					<path class="st9" d="M233.5,48.3c0-0.6,0.5-1,1.1-1c0.6,0,1.1,0.4,1.1,1c0,0.6-0.5,1-1.1,1C233.9,49.4,233.5,48.9,233.5,48.3z
						 M233.7,50.9h1.7v8.2h-1.7V50.9z"/>
					<path class="st9" d="M237.4,55c0-2.8,1.9-4.4,4.1-4.4c1,0,1.8,0.4,2.4,0.9l-0.9,1.1c-0.4-0.4-0.9-0.6-1.5-0.6
						c-1.4,0-2.4,1.2-2.4,2.9c0,1.7,0.9,2.9,2.3,2.9c0.7,0,1.3-0.3,1.8-0.8l0.7,1.1c-0.7,0.7-1.7,1-2.7,1
						C239.1,59.3,237.4,57.8,237.4,55z"/>
					<path class="st9" d="M245.1,57c0-1.8,1.5-2.7,4.9-3.1c0-1-0.4-1.8-1.6-1.8c-0.9,0-1.7,0.4-2.4,0.8l-0.6-1.2
						c0.9-0.5,2-1.1,3.3-1.1c2.1,0,3,1.3,3,3.5v5h-1.4l-0.1-0.9h0c-0.8,0.6-1.6,1.1-2.6,1.1C246.1,59.3,245.1,58.4,245.1,57z
						 M250,57v-2c-2.4,0.3-3.3,0.9-3.3,1.8c0,0.8,0.6,1.1,1.3,1.1C248.8,58,249.4,57.6,250,57z"/>
					<path class="st9" d="M254.2,57.2v-10h1.7v10.1c0,0.5,0.2,0.6,0.4,0.6c0.1,0,0.1,0,0.3,0l0.2,1.3c-0.2,0.1-0.5,0.1-0.9,0.1
						C254.7,59.3,254.2,58.6,254.2,57.2z"/>
					<path class="st9" d="M257.8,58.2l0.8-1.1c0.7,0.6,1.5,0.9,2.3,0.9c1,0,1.5-0.5,1.5-1.1c0-0.8-0.9-1.1-1.8-1.4
						c-1.1-0.4-2.4-1-2.4-2.4c0-1.4,1.1-2.4,2.9-2.4c1.1,0,2,0.5,2.7,1l-0.8,1.1c-0.6-0.4-1.2-0.7-1.8-0.7c-0.9,0-1.3,0.5-1.3,1
						c0,0.7,0.9,1,1.8,1.3c1.2,0.4,2.4,0.9,2.4,2.5c0,1.4-1.1,2.5-3.1,2.5C259.8,59.3,258.6,58.9,257.8,58.2z"/>
					<path class="st9" d="M268.4,50.9h1.7l1.1,4.5c0.2,0.8,0.3,1.6,0.4,2.3h0.1c0.2-0.8,0.3-1.6,0.5-2.3l1.2-4.5h1.6l1.2,4.5
						c0.2,0.8,0.4,1.6,0.6,2.3h0.1c0.2-0.8,0.3-1.5,0.5-2.3l1.1-4.5h1.6l-2.1,8.2h-2.1l-1-4.1c-0.2-0.8-0.3-1.5-0.5-2.4h-0.1
						c-0.2,0.9-0.3,1.6-0.5,2.4l-1,4.1h-2L268.4,50.9z"/>
					<path class="st9" d="M281.4,48.3c0-0.6,0.5-1,1.1-1c0.6,0,1.1,0.4,1.1,1c0,0.6-0.5,1-1.1,1C281.9,49.4,281.4,48.9,281.4,48.3z
						 M281.7,50.9h1.7v8.2h-1.7V50.9z"/>
					<path class="st9" d="M286.3,56.5v-4.2h-1.2V51l1.3-0.1l0.2-2.3h1.5v2.3h2.1v1.4H288v4.2c0,1,0.3,1.5,1.2,1.5
						c0.3,0,0.6-0.1,0.9-0.2l0.3,1.3c-0.5,0.2-1,0.3-1.6,0.3C286.9,59.3,286.3,58.2,286.3,56.5z"/>
					<path class="st9" d="M291.9,47.2h1.7v3.2l-0.1,1.6c0.7-0.7,1.5-1.3,2.7-1.3c1.8,0,2.5,1.2,2.5,3.3v5.2h-1.7v-5
						c0-1.4-0.4-2-1.4-2c-0.8,0-1.3,0.4-2,1.1v5.8h-1.7V47.2z"/>
				</g>
				<text transform="matrix(1 0 0 1 299.9315 59.1543)" class="st9 st3 st4"> </text>
				<g class="st1">
					<path class="st9" d="M42.1,90.9h1.4l0.1,0.9h0c0.7-0.6,1.6-1.1,2.5-1.1c2.1,0,3.3,1.7,3.3,4.2c0,2.8-1.7,4.5-3.6,4.5
						c-0.7,0-1.5-0.3-2.2-0.9l0,1.4v2.7h-1.7V90.9z M47.7,94.9c0-1.7-0.6-2.8-1.9-2.8c-0.6,0-1.3,0.3-2,1v4c0.6,0.6,1.3,0.8,1.8,0.8
						C46.8,97.9,47.7,96.9,47.7,94.9z"/>
					<path class="st9" d="M51,95c0-2.8,1.8-4.4,3.9-4.4c2,0,3.9,1.6,3.9,4.4c0,2.7-1.8,4.3-3.9,4.3C52.8,99.3,51,97.8,51,95z M57,95
						c0-1.8-0.8-2.9-2.1-2.9c-1.3,0-2.1,1.2-2.1,2.9c0,1.7,0.8,2.9,2.1,2.9C56.2,97.9,57,96.8,57,95z"/>
					<path class="st9" d="M60.7,96.5v-4.2h-1.2V91l1.3-0.1l0.2-2.3h1.5v2.3h2.1v1.4h-2.1v4.2c0,1,0.3,1.5,1.2,1.5
						c0.3,0,0.6-0.1,0.9-0.2l0.3,1.3c-0.5,0.2-1,0.3-1.6,0.3C61.4,99.3,60.7,98.2,60.7,96.5z"/>
					<path class="st9" d="M65.5,95c0-2.7,1.8-4.4,3.8-4.4c2.2,0,3.4,1.6,3.4,3.9c0,0.3,0,0.7-0.1,0.9h-5.4c0.1,1.6,1.1,2.5,2.5,2.5
						c0.7,0,1.4-0.2,2-0.6l0.6,1.1c-0.8,0.5-1.7,0.9-2.8,0.9C67.3,99.3,65.5,97.8,65.5,95z M71.2,94.3c0-1.4-0.6-2.2-1.8-2.2
						c-1,0-1.9,0.8-2.1,2.2H71.2z"/>
					<path class="st9" d="M74.6,90.9H76l0.1,1.1h0c0.8-0.7,1.6-1.4,2.7-1.4c1.8,0,2.5,1.2,2.5,3.3v5.2h-1.7v-5c0-1.4-0.4-2-1.4-2
						c-0.8,0-1.3,0.4-2,1.1v5.8h-1.7V90.9z"/>
					<path class="st9" d="M84.2,96.5v-4.2H83V91l1.3-0.1l0.2-2.3H86v2.3h2.1v1.4H86v4.2c0,1,0.3,1.5,1.2,1.5c0.3,0,0.6-0.1,0.9-0.2
						l0.3,1.3c-0.5,0.2-1,0.3-1.6,0.3C84.9,99.3,84.2,98.2,84.2,96.5z"/>
					<path class="st9" d="M93.3,90.9h1.4l0.1,0.9h0c0.7-0.6,1.6-1.1,2.5-1.1c2.1,0,3.3,1.7,3.3,4.2c0,2.8-1.7,4.5-3.6,4.5
						c-0.7,0-1.5-0.3-2.2-0.9l0,1.4v2.7h-1.7V90.9z M98.9,94.9c0-1.7-0.6-2.8-1.9-2.8c-0.6,0-1.3,0.3-2,1v4c0.6,0.6,1.3,0.8,1.8,0.8
						C98,97.9,98.9,96.9,98.9,94.9z"/>
					<path class="st9" d="M102.7,90.9h1.4l0.1,1.5h0c0.6-1.1,1.5-1.7,2.3-1.7c0.4,0,0.7,0.1,0.9,0.2l-0.3,1.5
						c-0.3-0.1-0.5-0.1-0.8-0.1c-0.7,0-1.5,0.5-2,1.8v5.1h-1.7V90.9z"/>
					<path class="st9" d="M108.1,95c0-2.8,1.8-4.4,3.9-4.4c2,0,3.9,1.6,3.9,4.4c0,2.7-1.8,4.3-3.9,4.3C110,99.3,108.1,97.8,108.1,95
						z M114.1,95c0-1.8-0.8-2.9-2.1-2.9c-1.3,0-2.1,1.2-2.1,2.9c0,1.7,0.8,2.9,2.1,2.9C113.3,97.9,114.1,96.8,114.1,95z"/>
					<path class="st9" d="M117.8,96.5v-4.2h-1.2V91l1.3-0.1l0.2-2.3h1.5v2.3h2.1v1.4h-2.1v4.2c0,1,0.3,1.5,1.2,1.5
						c0.3,0,0.6-0.1,0.9-0.2L122,99c-0.5,0.2-1,0.3-1.6,0.3C118.5,99.3,117.8,98.2,117.8,96.5z"/>
					<path class="st9" d="M122.7,95c0-2.7,1.8-4.4,3.8-4.4c2.2,0,3.4,1.6,3.4,3.9c0,0.3,0,0.7-0.1,0.9h-5.4c0.1,1.6,1.1,2.5,2.5,2.5
						c0.7,0,1.4-0.2,2-0.6l0.6,1.1c-0.8,0.5-1.7,0.9-2.8,0.9C124.4,99.3,122.7,97.8,122.7,95z M128.3,94.3c0-1.4-0.6-2.2-1.8-2.2
						c-1,0-1.9,0.8-2.1,2.2H128.3z"/>
					<path class="st9" d="M131.1,95c0-2.8,1.9-4.4,4.1-4.4c1,0,1.8,0.4,2.4,0.9l-0.9,1.1c-0.5-0.4-0.9-0.6-1.5-0.6
						c-1.4,0-2.4,1.2-2.4,2.9c0,1.7,0.9,2.9,2.3,2.9c0.7,0,1.3-0.3,1.8-0.8l0.7,1.1c-0.7,0.7-1.7,1-2.7,1
						C132.8,99.3,131.1,97.8,131.1,95z"/>
					<path class="st9" d="M139.6,96.5v-4.2h-1.2V91l1.3-0.1l0.2-2.3h1.5v2.3h2.1v1.4h-2.1v4.2c0,1,0.3,1.5,1.2,1.5
						c0.3,0,0.6-0.1,0.9-0.2l0.3,1.3c-0.5,0.2-1,0.3-1.6,0.3C140.2,99.3,139.6,98.2,139.6,96.5z"/>
					<path class="st9" d="M145,88.3c0-0.6,0.5-1,1.1-1c0.6,0,1.1,0.4,1.1,1c0,0.6-0.5,1-1.1,1C145.5,89.4,145,88.9,145,88.3z
						 M145.3,90.9h1.7v8.2h-1.7V90.9z"/>
					<path class="st9" d="M148.4,90.9h1.8l1.4,4.4c0.2,0.8,0.5,1.6,0.7,2.5h0.1c0.2-0.8,0.5-1.7,0.7-2.5l1.4-4.4h1.7l-2.9,8.2h-2
						L148.4,90.9z"/>
					<path class="st9" d="M157.1,95c0-2.7,1.8-4.4,3.8-4.4c2.2,0,3.4,1.6,3.4,3.9c0,0.3,0,0.7-0.1,0.9h-5.4c0.1,1.6,1.1,2.5,2.5,2.5
						c0.7,0,1.4-0.2,2-0.6l0.6,1.1c-0.8,0.5-1.7,0.9-2.8,0.9C158.8,99.3,157.1,97.8,157.1,95z M162.7,94.3c0-1.4-0.6-2.2-1.8-2.2
						c-1,0-1.9,0.8-2.1,2.2H162.7z"/>
					<path class="st9" d="M169.2,87.2h1.2l-4.2,14.7H165L169.2,87.2z"/>
					<path class="st9" d="M171.1,97c0-1.8,1.5-2.7,4.9-3.1c0-1-0.4-1.8-1.6-1.8c-0.9,0-1.7,0.4-2.4,0.8l-0.6-1.2
						c0.9-0.5,2-1.1,3.3-1.1c2.1,0,3,1.3,3,3.5v5h-1.4l-0.2-0.9h0c-0.8,0.6-1.6,1.1-2.6,1.1C172.1,99.3,171.1,98.4,171.1,97z
						 M176,97v-2c-2.4,0.3-3.3,0.9-3.3,1.8c0,0.8,0.6,1.1,1.3,1.1C174.7,98,175.3,97.6,176,97z"/>
					<path class="st9" d="M180.2,90.9h1.4l0.1,1.1h0c0.8-0.7,1.6-1.4,2.7-1.4c1.8,0,2.5,1.2,2.5,3.3v5.2h-1.7v-5c0-1.4-0.4-2-1.4-2
						c-0.8,0-1.3,0.4-2,1.1v5.8h-1.7V90.9z"/>
					<path class="st9" d="M189.8,96.5v-4.2h-1.2V91l1.3-0.1l0.2-2.3h1.5v2.3h2.1v1.4h-2.1v4.2c0,1,0.3,1.5,1.2,1.5
						c0.3,0,0.6-0.1,0.9-0.2l0.3,1.3c-0.5,0.2-1,0.3-1.6,0.3C190.4,99.3,189.8,98.2,189.8,96.5z"/>
					<path class="st9" d="M195.2,88.3c0-0.6,0.5-1,1.1-1s1.1,0.4,1.1,1c0,0.6-0.5,1-1.1,1S195.2,88.9,195.2,88.3z M195.5,90.9h1.7
						v8.2h-1.7V90.9z"/>
					<path class="st9" d="M199.2,94.3h4v1.3h-4V94.3z"/>
					<path class="st9" d="M204.7,97c0-1.8,1.5-2.7,4.9-3.1c0-1-0.4-1.8-1.6-1.8c-0.9,0-1.7,0.4-2.4,0.8l-0.6-1.2
						c0.9-0.5,2-1.1,3.3-1.1c2.1,0,3,1.3,3,3.5v5h-1.4l-0.1-0.9h0c-0.8,0.6-1.6,1.1-2.6,1.1C205.7,99.3,204.7,98.4,204.7,97z
						 M209.6,97v-2c-2.4,0.3-3.3,0.9-3.3,1.8c0,0.8,0.6,1.1,1.3,1.1C208.3,98,208.9,97.6,209.6,97z"/>
					<path class="st9" d="M213.2,100.7c0-0.7,0.4-1.3,1.2-1.8v-0.1c-0.4-0.3-0.8-0.7-0.8-1.4c0-0.6,0.5-1.2,0.9-1.5v-0.1
						c-0.6-0.4-1.1-1.2-1.1-2.2c0-1.9,1.5-3,3.2-3c0.5,0,0.9,0.1,1.2,0.2h2.9v1.3h-1.6c0.3,0.3,0.5,0.9,0.5,1.5
						c0,1.8-1.4,2.8-3.1,2.8c-0.4,0-0.8-0.1-1.2-0.3c-0.3,0.2-0.4,0.5-0.4,0.9c0,0.5,0.3,0.8,1.4,0.8h1.5c2,0,3,0.6,3,2
						c0,1.6-1.7,2.9-4.3,2.9C214.6,102.9,213.2,102.1,213.2,100.7z M219.2,100.2c0-0.7-0.5-0.9-1.5-0.9h-1.2c-0.4,0-0.8,0-1.1-0.1
						c-0.5,0.4-0.7,0.8-0.7,1.2c0,0.8,0.8,1.3,2.2,1.3C218.3,101.7,219.2,101,219.2,100.2z M218.2,93.7c0-1.1-0.7-1.8-1.6-1.8
						s-1.6,0.6-1.6,1.8c0,1.1,0.7,1.8,1.6,1.8S218.2,94.8,218.2,93.7z"/>
					<path class="st9" d="M222.2,88.3c0-0.6,0.5-1,1.1-1c0.6,0,1.1,0.4,1.1,1c0,0.6-0.5,1-1.1,1C222.7,89.4,222.2,88.9,222.2,88.3z
						 M222.4,90.9h1.7v8.2h-1.7V90.9z"/>
					<path class="st9" d="M226.7,90.9h1.4l0.1,1.1h0c0.8-0.7,1.6-1.4,2.7-1.4c1.8,0,2.5,1.2,2.5,3.3v5.2h-1.7v-5c0-1.4-0.4-2-1.4-2
						c-0.8,0-1.3,0.4-2,1.1v5.8h-1.7V90.9z"/>
					<path class="st9" d="M235.5,100.7c0-0.7,0.4-1.3,1.2-1.8v-0.1c-0.4-0.3-0.8-0.7-0.8-1.4c0-0.6,0.5-1.2,0.9-1.5v-0.1
						c-0.6-0.4-1.1-1.2-1.1-2.2c0-1.9,1.5-3,3.2-3c0.5,0,0.9,0.1,1.2,0.2h2.9v1.3h-1.6c0.3,0.3,0.5,0.9,0.5,1.5
						c0,1.8-1.4,2.8-3.1,2.8c-0.4,0-0.8-0.1-1.2-0.3c-0.3,0.2-0.5,0.5-0.5,0.9c0,0.5,0.3,0.8,1.4,0.8h1.5c2,0,3,0.6,3,2
						c0,1.6-1.7,2.9-4.3,2.9C236.9,102.9,235.5,102.1,235.5,100.7z M241.6,100.2c0-0.7-0.5-0.9-1.5-0.9h-1.2c-0.4,0-0.8,0-1.1-0.1
						c-0.5,0.4-0.7,0.8-0.7,1.2c0,0.8,0.8,1.3,2.2,1.3C240.6,101.7,241.6,101,241.6,100.2z M240.5,93.7c0-1.1-0.7-1.8-1.6-1.8
						c-0.9,0-1.6,0.6-1.6,1.8c0,1.1,0.7,1.8,1.6,1.8C239.8,95.4,240.5,94.8,240.5,93.7z"/>
					<path class="st9" d="M247.6,95c0-2.7,1.8-4.4,3.8-4.4c2.2,0,3.4,1.6,3.4,3.9c0,0.3,0,0.7-0.1,0.9h-5.4c0.1,1.6,1.1,2.5,2.5,2.5
						c0.7,0,1.4-0.2,2-0.6l0.6,1.1c-0.8,0.5-1.7,0.9-2.8,0.9C249.3,99.3,247.6,97.8,247.6,95z M253.2,94.3c0-1.4-0.6-2.2-1.8-2.2
						c-1,0-1.9,0.8-2.1,2.2H253.2z"/>
					<path class="st9" d="M265.6,88.6c-0.3-0.1-0.6-0.2-0.9-0.2c-0.7,0-1.1,0.5-1.1,1.5v1h1.7v1.4h-1.7v6.9h-1.7v-6.9h-3.2v6.9h-1.7
						v-6.9h-1.1V91l1.1-0.1V90c0-1.7,0.9-2.9,2.7-2.9c0.6,0,1.2,0.1,1.6,0.3l-0.3,1.3c-0.3-0.2-0.6-0.2-1.1-0.2
						c-0.7,0-1.2,0.5-1.2,1.5v0.9h3.2v-1c0-1.7,0.8-2.9,2.6-2.9c0.6,0,1.1,0.1,1.5,0.3L265.6,88.6z"/>
					<path class="st9" d="M266,95c0-2.7,1.8-4.4,3.8-4.4c2.2,0,3.4,1.6,3.4,3.9c0,0.3,0,0.7-0.1,0.9h-5.4c0.1,1.6,1.1,2.5,2.5,2.5
						c0.7,0,1.4-0.2,2-0.6l0.6,1.1c-0.8,0.5-1.7,0.9-2.8,0.9C267.8,99.3,266,97.8,266,95z M271.6,94.3c0-1.4-0.6-2.2-1.8-2.2
						c-1,0-1.9,0.8-2.1,2.2H271.6z"/>
					<path class="st9" d="M274.4,95c0-2.8,1.9-4.4,4.1-4.4c1,0,1.8,0.4,2.4,0.9l-0.9,1.1c-0.5-0.4-0.9-0.6-1.5-0.6
						c-1.4,0-2.4,1.2-2.4,2.9c0,1.7,0.9,2.9,2.3,2.9c0.7,0,1.3-0.3,1.8-0.8l0.7,1.1c-0.8,0.7-1.7,1-2.7,1
						C276.2,99.3,274.4,97.8,274.4,95z"/>
					<path class="st9" d="M282.9,96.5v-4.2h-1.2V91l1.3-0.1l0.2-2.3h1.5v2.3h2.1v1.4h-2.1v4.2c0,1,0.3,1.5,1.2,1.5
						c0.3,0,0.6-0.1,0.9-0.2L287,99c-0.5,0.2-1,0.3-1.6,0.3C283.5,99.3,282.9,98.2,282.9,96.5z"/>
					<path class="st9" d="M287.5,98.2l0.8-1.1c0.7,0.6,1.5,0.9,2.3,0.9c1,0,1.5-0.5,1.5-1.1c0-0.8-0.9-1.1-1.8-1.4
						c-1.1-0.4-2.4-1-2.4-2.4c0-1.4,1.1-2.4,2.9-2.4c1.1,0,2,0.5,2.7,1l-0.8,1.1c-0.6-0.4-1.2-0.7-1.8-0.7c-0.9,0-1.3,0.5-1.3,1
						c0,0.7,0.9,1,1.8,1.3c1.2,0.4,2.4,0.9,2.4,2.5c0,1.4-1.1,2.5-3.1,2.5C289.5,99.3,288.3,98.9,287.5,98.2z"/>
				</g>
			</g>
		</g>
	</g>
</g>
</svg>
