<?xml version="1.0" encoding="utf-8"?>
<!-- Generator: Adobe Illustrator 23.0.1, SVG Export Plug-In . SVG Version: 6.00 Build 0)  -->
<svg version="1.1" id="Layer_1" xmlns="http://www.w3.org/2000/svg" xmlns:xlink="http://www.w3.org/1999/xlink" x="0px" y="0px"
	 viewBox="0 0 334 670" style="enable-background:new 0 0 334 670;" xml:space="preserve">
<style type="text/css">
	.st0{fill-rule:evenodd;clip-rule:evenodd;fill:#91AF1E;fill-opacity:0.8;stroke:#819A1E;stroke-width:2;}
	.st1{enable-background:new    ;}
	.st2{fill:#FFFFFF;}
	.st3{font-family:'NotoSansKR-Bold-KSCpc-EUC-H';}
	.st4{font-size:15px;}
	.st5{font-family:'NotoSansKR-Regular-KSCpc-EUC-H';}
	.st6{fill:none;stroke:#0E0E0E;stroke-width:2;stroke-linecap:square;}
	.st7{fill:none;stroke:#0E0E0E;stroke-width:2;stroke-linecap:round;stroke-linejoin:round;}
	.st8{fill:none;stroke:#B54142;stroke-width:2;}
	.st9{fill:#333333;}
	.st10{font-family:'NotoSansKR-Medium-KSCpc-EUC-H';}
</style>
<title>table2</title>
<desc>Created with Sketch.</desc>
<g id="Page-1">
	<g id="mobile1" transform="translate(-20.000000, -2802.000000)">
		<g id="table2" transform="translate(20.000000, 2802.000000)">
			<g id="box1">
				<path id="bg" class="st0" d="M9,1h316c4.4,0,8,3.6,8,8v361c0,4.4-3.6,8-8,8H9c-4.4,0-8-3.6-8-8V9C1,4.6,4.6,1,9,1z"/>
				<g class="st1">
					<path class="st2" d="M46.4,40.9h2.3l3.2,5.9l1.1,2.4H53c-0.1-1.2-0.3-2.6-0.3-3.9v-4.4h2.1V52h-2.2l-3.2-5.9l-1.1-2.4h-0.1
						c0.1,1.2,0.3,2.6,0.3,3.9V52h-2.1V40.9z"/>
					<path class="st2" d="M57,49.7c0-1.8,1.5-2.7,4.8-3.1c0-0.8-0.4-1.5-1.4-1.5c-0.8,0-1.5,0.3-2.3,0.8l-0.8-1.5
						c1-0.6,2.2-1.1,3.5-1.1c2.1,0,3.2,1.3,3.2,3.7V52h-1.8l-0.2-0.9h0c-0.7,0.6-1.6,1.1-2.5,1.1C58,52.2,57,51.1,57,49.7z
						 M61.8,49.7V48c-2,0.3-2.7,0.8-2.7,1.6c0,0.7,0.5,0.9,1.1,0.9C60.8,50.5,61.3,50.2,61.8,49.7z"/>
					<path class="st2" d="M66.3,49.1v-3.7h-1.2v-1.6l1.3-0.1l0.3-2.2h1.8v2.2h2.1v1.7h-2.1v3.7c0,1,0.4,1.4,1.1,1.4
						c0.3,0,0.6-0.1,0.8-0.2l0.4,1.6c-0.5,0.2-1,0.3-1.8,0.3C67.1,52.2,66.3,51,66.3,49.1z"/>
					<path class="st2" d="M72.2,48.9v-5.2h2.2v5c0,1.3,0.4,1.8,1.2,1.8c0.7,0,1.1-0.3,1.7-1v-5.7h2.2V52h-1.8l-0.2-1.2h-0.1
						c-0.7,0.9-1.5,1.4-2.7,1.4C73,52.2,72.2,51,72.2,48.9z"/>
					<path class="st2" d="M81.9,43.6h1.8l0.1,1.5h0.1c0.6-1.1,1.5-1.7,2.4-1.7c0.5,0,0.7,0.1,1,0.2l-0.4,1.9
						c-0.3-0.1-0.5-0.1-0.9-0.1c-0.7,0-1.5,0.4-1.9,1.7v5h-2.2V43.6z"/>
					<path class="st2" d="M87.5,49.7c0-1.8,1.5-2.7,4.8-3.1c0-0.8-0.4-1.5-1.4-1.5c-0.8,0-1.5,0.3-2.3,0.8l-0.8-1.5
						c1-0.6,2.2-1.1,3.5-1.1c2.1,0,3.2,1.3,3.2,3.7V52h-1.8l-0.2-0.9h0c-0.7,0.6-1.6,1.1-2.5,1.1C88.5,52.2,87.5,51.1,87.5,49.7z
						 M92.3,49.7V48c-2,0.3-2.7,0.8-2.7,1.6c0,0.7,0.5,0.9,1.1,0.9C91.3,50.5,91.8,50.2,92.3,49.7z"/>
					<path class="st2" d="M96.8,49.6V40H99v9.7c0,0.5,0.2,0.7,0.4,0.7c0.1,0,0.1,0,0.3,0L100,52c-0.3,0.1-0.6,0.2-1.1,0.2
						C97.3,52.2,96.8,51.2,96.8,49.6z"/>
					<path class="st2" d="M104.9,43.6h1.8l0.1,1.5h0.1c0.6-1.1,1.5-1.7,2.4-1.7c0.5,0,0.7,0.1,1,0.2l-0.4,1.9
						c-0.3-0.1-0.5-0.1-0.9-0.1c-0.7,0-1.5,0.4-1.9,1.7v5h-2.2V43.6z"/>
					<path class="st2" d="M110.6,49.7c0-1.8,1.5-2.7,4.8-3.1c0-0.8-0.4-1.5-1.4-1.5c-0.8,0-1.5,0.3-2.3,0.8l-0.8-1.5
						c1-0.6,2.2-1.1,3.5-1.1c2.1,0,3.2,1.3,3.2,3.7V52h-1.8l-0.2-0.9h0c-0.7,0.6-1.6,1.1-2.5,1.1C111.6,52.2,110.6,51.1,110.6,49.7z
						 M115.4,49.7V48c-2,0.3-2.7,0.8-2.7,1.6c0,0.7,0.5,0.9,1.1,0.9C114.4,50.5,114.9,50.2,115.4,49.7z"/>
					<path class="st2" d="M119.1,43.6h2.2l0.9,4.2c0.2,0.8,0.3,1.6,0.4,2.4h0.1c0.2-0.8,0.3-1.7,0.5-2.4l1-4.2h2l1.1,4.2
						c0.2,0.8,0.3,1.6,0.5,2.4h0.1c0.2-0.8,0.3-1.6,0.4-2.4l0.9-4.2h2l-2.1,8.4h-2.6l-0.9-3.7c-0.2-0.8-0.3-1.6-0.5-2.4h-0.1
						c-0.2,0.9-0.3,1.7-0.5,2.4l-0.9,3.7h-2.5L119.1,43.6z"/>
					<path class="st2" d="M136.2,43.6h1.8l0.1,1.1h0.1c0.7-0.7,1.5-1.3,2.6-1.3c1.2,0,1.9,0.5,2.3,1.5c0.8-0.8,1.6-1.5,2.7-1.5
						c1.8,0,2.6,1.3,2.6,3.4V52h-2.2v-5c0-1.3-0.4-1.8-1.2-1.8c-0.5,0-1,0.3-1.6,0.9V52h-2.2v-5c0-1.3-0.4-1.8-1.2-1.8
						c-0.5,0-1,0.3-1.6,0.9V52h-2.2V43.6z"/>
					<path class="st2" d="M150.3,49.7c0-1.8,1.5-2.7,4.8-3.1c0-0.8-0.4-1.5-1.4-1.5c-0.8,0-1.5,0.3-2.3,0.8l-0.8-1.5
						c1-0.6,2.2-1.1,3.5-1.1c2.1,0,3.2,1.3,3.2,3.7V52h-1.8l-0.2-0.9h0c-0.7,0.6-1.6,1.1-2.5,1.1C151.2,52.2,150.3,51.1,150.3,49.7z
						 M155.1,49.7V48c-2,0.3-2.7,0.8-2.7,1.6c0,0.7,0.5,0.9,1.1,0.9C154.1,50.5,154.6,50.2,155.1,49.7z"/>
					<path class="st2" d="M159.6,49.1v-3.7h-1.2v-1.6l1.3-0.1l0.3-2.2h1.8v2.2h2.1v1.7h-2.1v3.7c0,1,0.4,1.4,1.1,1.4
						c0.3,0,0.6-0.1,0.8-0.2l0.4,1.6c-0.5,0.2-1,0.3-1.8,0.3C160.3,52.2,159.6,51,159.6,49.1z"/>
					<path class="st2" d="M164.7,47.8c0-2.7,1.9-4.4,3.9-4.4c2.3,0,3.5,1.7,3.5,4c0,0.4,0,0.8-0.1,1h-5.2c0.2,1.4,1.1,2.1,2.3,2.1
						c0.7,0,1.3-0.2,1.9-0.6l0.8,1.4c-0.8,0.6-1.9,0.9-2.9,0.9C166.6,52.2,164.7,50.6,164.7,47.8z M170.3,47c0-1.1-0.5-1.9-1.6-1.9
						c-0.9,0-1.7,0.6-1.8,1.9H170.3z"/>
					<path class="st2" d="M174,43.6h1.8l0.2,1.5h0.1c0.6-1.1,1.5-1.7,2.4-1.7c0.5,0,0.7,0.1,1,0.2l-0.4,1.9
						c-0.3-0.1-0.5-0.1-0.9-0.1c-0.7,0-1.5,0.4-1.9,1.7v5H174V43.6z"/>
					<path class="st2" d="M180.3,41.1c0-0.7,0.6-1.2,1.3-1.2c0.8,0,1.3,0.5,1.3,1.2c0,0.7-0.6,1.2-1.3,1.2
						C180.9,42.2,180.3,41.7,180.3,41.1z M180.5,43.6h2.2V52h-2.2V43.6z"/>
					<path class="st2" d="M184.7,49.7c0-1.8,1.5-2.7,4.8-3.1c0-0.8-0.4-1.5-1.4-1.5c-0.8,0-1.5,0.3-2.3,0.8l-0.8-1.5
						c1-0.6,2.2-1.1,3.5-1.1c2.1,0,3.2,1.3,3.2,3.7V52h-1.8l-0.2-0.9h0c-0.7,0.6-1.6,1.1-2.5,1.1C185.7,52.2,184.7,51.1,184.7,49.7z
						 M189.5,49.7V48c-2,0.3-2.7,0.8-2.7,1.6c0,0.7,0.5,0.9,1.1,0.9C188.5,50.5,189,50.2,189.5,49.7z"/>
					<path class="st2" d="M193.9,49.6V40h2.2v9.7c0,0.5,0.2,0.7,0.5,0.7c0.1,0,0.1,0,0.3,0l0.3,1.6c-0.3,0.1-0.6,0.2-1.1,0.2
						C194.5,52.2,193.9,51.2,193.9,49.6z"/>
					<path class="st2" d="M197.9,51l1-1.4c0.8,0.6,1.5,0.9,2.2,0.9c0.8,0,1.2-0.4,1.2-0.9c0-0.6-0.9-0.9-1.8-1.3
						c-1.1-0.4-2.3-1-2.3-2.4c0-1.5,1.2-2.6,3.1-2.6c1.2,0,2.2,0.5,2.9,1l-1,1.3c-0.6-0.4-1.2-0.7-1.8-0.7c-0.8,0-1.1,0.3-1.1,0.8
						c0,0.6,0.8,0.8,1.7,1.2c1.1,0.4,2.3,1,2.3,2.5c0,1.5-1.2,2.7-3.3,2.7C199.9,52.2,198.7,51.7,197.9,51z"/>
					<path class="st2" d="M208.5,43.6h2.2l1.2,4.2c0.2,0.8,0.5,1.7,0.7,2.5h0.1c0.2-0.9,0.5-1.7,0.7-2.5l1.2-4.2h2.1l-2.8,8.4h-2.5
						L208.5,43.6z"/>
					<path class="st2" d="M217.5,47.8c0-2.7,1.9-4.4,3.9-4.4c2.3,0,3.5,1.7,3.5,4c0,0.4,0,0.8-0.1,1h-5.2c0.2,1.4,1.1,2.1,2.3,2.1
						c0.7,0,1.3-0.2,1.9-0.6l0.8,1.4c-0.8,0.6-1.9,0.9-2.9,0.9C219.3,52.2,217.5,50.6,217.5,47.8z M223,47c0-1.1-0.5-1.9-1.6-1.9
						c-0.9,0-1.7,0.6-1.8,1.9H223z"/>
					<path class="st2" d="M226.7,43.6h1.8l0.2,1.5h0.1c0.6-1.1,1.5-1.7,2.4-1.7c0.5,0,0.7,0.1,1,0.2l-0.4,1.9
						c-0.3-0.1-0.5-0.1-0.9-0.1c-0.7,0-1.5,0.4-1.9,1.7v5h-2.2V43.6z"/>
					<path class="st2" d="M233.1,41.1c0-0.7,0.6-1.2,1.3-1.2c0.8,0,1.3,0.5,1.3,1.2c0,0.7-0.6,1.2-1.3,1.2
						C233.6,42.2,233.1,41.7,233.1,41.1z M233.3,43.6h2.2V52h-2.2V43.6z"/>
					<path class="st2" d="M238.2,42.9c0-1.8,0.8-3.1,2.9-3.1c0.6,0,1.2,0.2,1.6,0.3l-0.4,1.6c-0.3-0.1-0.6-0.2-0.9-0.2
						c-0.7,0-1,0.4-1,1.3v0.7h1.6v1.7h-1.6V52h-2.2v-6.7h-1.1v-1.6l1.1-0.1V42.9z M243.5,41.1c0-0.7,0.6-1.2,1.3-1.2
						c0.8,0,1.3,0.5,1.3,1.2c0,0.7-0.6,1.2-1.3,1.2C244.1,42.2,243.5,41.7,243.5,41.1z M243.7,43.6h2.2V52h-2.2V43.6z"/>
					<path class="st2" d="M247.8,47.8c0-2.7,1.9-4.4,3.9-4.4c2.3,0,3.5,1.7,3.5,4c0,0.4,0,0.8-0.1,1h-5.2c0.2,1.4,1.1,2.1,2.3,2.1
						c0.7,0,1.3-0.2,1.9-0.6l0.8,1.4c-0.8,0.6-1.9,0.9-2.9,0.9C249.6,52.2,247.8,50.6,247.8,47.8z M253.3,47c0-1.1-0.5-1.9-1.6-1.9
						c-0.9,0-1.7,0.6-1.8,1.9H253.3z"/>
					<path class="st2" d="M256.5,47.8c0-2.7,1.7-4.4,3.5-4.4c0.9,0,1.5,0.4,2.1,0.9l-0.1-1.3v-3h2.2v12h-1.8l-0.2-0.9h0
						c-0.6,0.6-1.5,1.1-2.3,1.1C257.9,52.2,256.5,50.6,256.5,47.8z M262.1,49.5v-3.7c-0.5-0.5-1-0.6-1.6-0.6c-0.9,0-1.7,0.9-1.7,2.6
						c0,1.7,0.6,2.6,1.7,2.6C261.1,50.4,261.6,50.2,262.1,49.5z"/>
					<path class="st2" d="M272,51.1L272,51.1l-0.2,0.9h-1.7V40h2.2v3l0,1.4c0.7-0.6,1.5-1,2.3-1c2.1,0,3.3,1.7,3.3,4.3
						c0,2.9-1.7,4.6-3.6,4.6C273.5,52.2,272.7,51.8,272,51.1z M275.6,47.7c0-1.6-0.5-2.5-1.7-2.5c-0.6,0-1.1,0.3-1.7,0.9v3.7
						c0.5,0.5,1.1,0.6,1.5,0.6C274.8,50.4,275.6,49.5,275.6,47.7z"/>
					<path class="st2" d="M279.2,55.2l0.4-1.7c0.1,0,0.4,0.1,0.6,0.1c0.9,0,1.3-0.5,1.6-1.3l0.1-0.5l-3.3-8.2h2.2l1.3,3.9
						c0.3,0.8,0.5,1.6,0.7,2.4h0.1c0.2-0.8,0.4-1.6,0.6-2.4l1.2-3.9h2.1l-3,8.7c-0.7,2-1.6,3.1-3.5,3.1
						C279.8,55.4,279.5,55.3,279.2,55.2z"/>
				</g>
				<text transform="matrix(1 0 0 1 286.7209 52)" class="st2 st3 st4"> </text>
				<g class="st1">
					<path class="st2" d="M45.8,71.7c0-1.8,1.5-2.7,4.8-3.1c0-0.8-0.4-1.5-1.4-1.5c-0.8,0-1.5,0.3-2.3,0.8l-0.8-1.5
						c1-0.6,2.2-1.1,3.5-1.1c2.1,0,3.2,1.3,3.2,3.7V74H51l-0.2-0.9h0c-0.7,0.6-1.6,1.1-2.5,1.1C46.8,74.2,45.8,73.1,45.8,71.7z
						 M50.6,71.7V70c-2,0.3-2.7,0.8-2.7,1.6c0,0.7,0.5,0.9,1.1,0.9C49.6,72.5,50.1,72.2,50.6,71.7z"/>
					<path class="st2" d="M54.6,69.8c0-2.7,1.7-4.4,3.5-4.4c0.9,0,1.5,0.4,2.1,0.9L60.1,65v-3h2.2v12h-1.8l-0.2-0.9h0
						c-0.6,0.6-1.5,1.1-2.3,1.1C55.9,74.2,54.6,72.6,54.6,69.8z M60.1,71.5v-3.7c-0.5-0.5-1-0.6-1.6-0.6c-0.9,0-1.7,0.9-1.7,2.6
						c0,1.7,0.6,2.6,1.7,2.6C59.2,72.4,59.7,72.2,60.1,71.5z"/>
					<path class="st2" d="M63.7,65.6H66l1.2,4.2c0.2,0.8,0.5,1.7,0.7,2.5h0.1c0.2-0.9,0.5-1.7,0.7-2.5l1.2-4.2H72L69.1,74h-2.6
						L63.7,65.6z"/>
					<path class="st2" d="M72.6,71.7c0-1.8,1.5-2.7,4.8-3.1c0-0.8-0.4-1.5-1.4-1.5c-0.8,0-1.5,0.3-2.3,0.8l-0.8-1.5
						c1-0.6,2.2-1.1,3.5-1.1c2.1,0,3.2,1.3,3.2,3.7V74h-1.8l-0.2-0.9h0c-0.7,0.6-1.6,1.1-2.5,1.1C73.6,74.2,72.6,73.1,72.6,71.7z
						 M77.4,71.7V70c-2,0.3-2.7,0.8-2.7,1.6c0,0.7,0.5,0.9,1.1,0.9C76.4,72.5,76.9,72.2,77.4,71.7z"/>
					<path class="st2" d="M81.9,65.6h1.8l0.1,1.1h0.1c0.7-0.7,1.6-1.3,2.7-1.3c1.8,0,2.6,1.3,2.6,3.4V74H87v-5
						c0-1.3-0.4-1.8-1.2-1.8c-0.7,0-1.1,0.3-1.8,0.9V74h-2.2V65.6z"/>
					<path class="st2" d="M91,69.8c0-2.8,2-4.4,4.3-4.4c1,0,1.8,0.4,2.4,0.9l-1,1.4c-0.4-0.4-0.8-0.6-1.3-0.6c-1.3,0-2.1,1-2.1,2.6
						c0,1.6,0.9,2.6,2.1,2.6c0.6,0,1.2-0.3,1.6-0.7l0.9,1.5c-0.8,0.7-1.8,1-2.7,1C92.7,74.2,91,72.6,91,69.8z"/>
					<path class="st2" d="M98.4,69.8c0-2.7,1.9-4.4,3.9-4.4c2.3,0,3.5,1.7,3.5,4c0,0.4,0,0.8-0.1,1h-5.2c0.2,1.4,1.1,2.1,2.3,2.1
						c0.7,0,1.3-0.2,1.9-0.6l0.8,1.4c-0.8,0.6-1.9,0.9-2.9,0.9C100.2,74.2,98.4,72.6,98.4,69.8z M103.9,69c0-1.1-0.5-1.9-1.6-1.9
						c-0.9,0-1.7,0.6-1.8,1.9H103.9z"/>
					<path class="st2" d="M107.2,69.8c0-2.7,1.7-4.4,3.5-4.4c0.9,0,1.5,0.4,2.1,0.9l-0.1-1.3v-3h2.2v12h-1.8l-0.2-0.9h0
						c-0.6,0.6-1.5,1.1-2.3,1.1C108.5,74.2,107.2,72.6,107.2,69.8z M112.7,71.5v-3.7c-0.5-0.5-1-0.6-1.6-0.6c-0.9,0-1.7,0.9-1.7,2.6
						c0,1.7,0.6,2.6,1.7,2.6C111.8,72.4,112.3,72.2,112.7,71.5z"/>
					<path class="st2" d="M122.7,73.1L122.7,73.1l-0.2,0.9h-1.7V62h2.2v3l0,1.4c0.7-0.6,1.5-1,2.3-1c2.1,0,3.3,1.7,3.3,4.3
						c0,2.9-1.7,4.6-3.6,4.6C124.2,74.2,123.4,73.8,122.7,73.1z M126.2,69.7c0-1.6-0.5-2.5-1.7-2.5c-0.6,0-1.1,0.3-1.7,0.9v3.7
						c0.5,0.5,1.1,0.6,1.5,0.6C125.5,72.4,126.2,71.5,126.2,69.7z"/>
					<path class="st2" d="M130.2,63.1c0-0.7,0.6-1.2,1.3-1.2c0.8,0,1.3,0.5,1.3,1.2c0,0.7-0.6,1.2-1.3,1.2
						C130.7,64.2,130.2,63.7,130.2,63.1z M130.4,65.6h2.2V74h-2.2V65.6z"/>
					<path class="st2" d="M134.4,69.8c0-2.8,1.9-4.4,4-4.4s4,1.6,4,4.4c0,2.8-1.9,4.4-4,4.4S134.4,72.6,134.4,69.8z M140.2,69.8
						c0-1.6-0.6-2.6-1.8-2.6s-1.8,1-1.8,2.6c0,1.6,0.6,2.6,1.8,2.6S140.2,71.4,140.2,69.8z"/>
					<path class="st2" d="M148,71.1v-3.7h-1.2v-1.6l1.3-0.1l0.3-2.2h1.8v2.2h2.1v1.7h-2.1v3.7c0,1,0.4,1.4,1.1,1.4
						c0.3,0,0.6-0.1,0.8-0.2l0.4,1.6c-0.5,0.2-1,0.3-1.8,0.3C148.8,74.2,148,73,148,71.1z"/>
					<path class="st2" d="M153.2,69.8c0-2.7,1.9-4.4,3.9-4.4c2.3,0,3.5,1.7,3.5,4c0,0.4,0,0.8-0.1,1h-5.2c0.2,1.4,1.1,2.1,2.3,2.1
						c0.7,0,1.3-0.2,1.9-0.6l0.8,1.4c-0.8,0.6-1.9,0.9-2.9,0.9C155.1,74.2,153.2,72.6,153.2,69.8z M158.8,69c0-1.1-0.5-1.9-1.6-1.9
						c-0.9,0-1.7,0.6-1.8,1.9H158.8z"/>
					<path class="st2" d="M161.9,69.8c0-2.8,2-4.4,4.3-4.4c1,0,1.8,0.4,2.4,0.9l-1,1.4c-0.4-0.4-0.8-0.6-1.3-0.6
						c-1.3,0-2.1,1-2.1,2.6c0,1.6,0.9,2.6,2.1,2.6c0.6,0,1.2-0.3,1.6-0.7l0.9,1.5c-0.8,0.7-1.8,1-2.7,1
						C163.7,74.2,161.9,72.6,161.9,69.8z"/>
					<path class="st2" d="M170.4,62h2.2v3l-0.1,1.6c0.7-0.6,1.5-1.2,2.6-1.2c1.8,0,2.6,1.3,2.6,3.4V74h-2.2v-5
						c0-1.3-0.4-1.8-1.2-1.8c-0.7,0-1.1,0.3-1.8,0.9V74h-2.2V62z"/>
					<path class="st2" d="M180,65.6h1.8l0.2,1.1h0.1c0.7-0.7,1.6-1.3,2.7-1.3c1.8,0,2.6,1.3,2.6,3.4V74h-2.2v-5
						c0-1.3-0.4-1.8-1.2-1.8c-0.7,0-1.1,0.3-1.8,0.9V74H180V65.6z"/>
					<path class="st2" d="M189.1,69.8c0-2.8,1.9-4.4,4-4.4s4,1.6,4,4.4c0,2.8-1.9,4.4-4,4.4S189.1,72.6,189.1,69.8z M194.9,69.8
						c0-1.6-0.6-2.6-1.8-2.6s-1.8,1-1.8,2.6c0,1.6,0.6,2.6,1.8,2.6S194.9,71.4,194.9,69.8z"/>
					<path class="st2" d="M199,71.6V62h2.2v9.7c0,0.5,0.2,0.7,0.5,0.7c0.1,0,0.1,0,0.3,0l0.3,1.6c-0.3,0.1-0.6,0.2-1.1,0.2
						C199.5,74.2,199,73.2,199,71.6z"/>
					<path class="st2" d="M203.2,69.8c0-2.8,1.9-4.4,4-4.4c2.1,0,4,1.6,4,4.4c0,2.8-1.9,4.4-4,4.4C205.1,74.2,203.2,72.6,203.2,69.8
						z M209,69.8c0-1.6-0.6-2.6-1.8-2.6c-1.1,0-1.8,1-1.8,2.6c0,1.6,0.6,2.6,1.8,2.6C208.3,72.4,209,71.4,209,69.8z"/>
					<path class="st2" d="M212.5,75.5c0-0.7,0.4-1.3,1.2-1.7v-0.1c-0.4-0.3-0.8-0.7-0.8-1.4c0-0.6,0.4-1.2,0.9-1.6v-0.1
						c-0.6-0.4-1.1-1.2-1.1-2.2c0-2,1.6-3,3.4-3c0.5,0,0.9,0.1,1.3,0.2h3v1.6H219c0.2,0.3,0.4,0.8,0.4,1.3c0,1.9-1.4,2.8-3.2,2.8
						c-0.3,0-0.7-0.1-1.1-0.2c-0.2,0.2-0.4,0.4-0.4,0.7c0,0.5,0.3,0.7,1.3,0.7h1.4c2,0,3.1,0.6,3.1,2.1c0,1.7-1.8,3-4.6,3
						C214.1,77.6,212.5,77,212.5,75.5z M218.5,75c0-0.6-0.5-0.8-1.4-0.8h-1c-0.5,0-0.9,0-1.2-0.1c-0.4,0.3-0.6,0.6-0.6,1
						c0,0.7,0.8,1.1,2,1.1C217.6,76.2,218.5,75.7,218.5,75z M217.5,68.4c0-1-0.6-1.5-1.3-1.5s-1.3,0.6-1.3,1.5c0,1,0.6,1.5,1.3,1.5
						S217.5,69.4,217.5,68.4z"/>
					<path class="st2" d="M221.8,63.1c0-0.7,0.6-1.2,1.3-1.2c0.8,0,1.3,0.5,1.3,1.2c0,0.7-0.6,1.2-1.3,1.2
						C222.4,64.2,221.8,63.7,221.8,63.1z M222,65.6h2.2V74H222V65.6z"/>
					<path class="st2" d="M226.1,69.8c0-2.7,1.9-4.4,3.9-4.4c2.3,0,3.5,1.7,3.5,4c0,0.4,0,0.8-0.1,1h-5.2c0.2,1.4,1.1,2.1,2.3,2.1
						c0.7,0,1.3-0.2,1.9-0.6l0.8,1.4c-0.8,0.6-1.9,0.9-2.9,0.9C227.9,74.2,226.1,72.6,226.1,69.8z M231.6,69c0-1.1-0.5-1.9-1.6-1.9
						c-0.9,0-1.7,0.6-1.8,1.9H231.6z"/>
					<path class="st2" d="M234.5,73l1-1.4c0.8,0.6,1.5,0.9,2.2,0.9c0.8,0,1.2-0.4,1.2-0.9c0-0.6-0.9-0.9-1.8-1.3
						c-1.1-0.4-2.3-1-2.3-2.4c0-1.5,1.2-2.6,3.1-2.6c1.2,0,2.2,0.5,2.9,1l-1,1.3c-0.6-0.4-1.2-0.7-1.8-0.7c-0.8,0-1.1,0.3-1.1,0.8
						c0,0.6,0.8,0.8,1.7,1.2c1.1,0.4,2.3,1,2.3,2.5c0,1.5-1.2,2.7-3.3,2.7C236.6,74.2,235.3,73.7,234.5,73z"/>
				</g>
				<g class="st1">
					<path class="st2" d="M30.7,111.3h3.8v1h-3.8V111.3z"/>
					<path class="st2" d="M39.3,114.6l0.8-0.9c0.8,0.8,1.9,1.4,3,1.4c1.4,0,2.3-0.7,2.3-1.8c0-1.1-0.8-1.5-1.8-1.9l-1.6-0.7
						c-1-0.4-2.2-1.2-2.2-2.8c0-1.7,1.5-2.9,3.5-2.9c1.3,0,2.5,0.6,3.2,1.4l-0.7,0.9c-0.7-0.6-1.5-1-2.5-1c-1.2,0-2.1,0.6-2.1,1.6
						c0,1.1,1,1.5,1.8,1.8l1.6,0.7c1.3,0.6,2.3,1.3,2.3,2.9c0,1.7-1.4,3.1-3.7,3.1C41.6,116.2,40.2,115.6,39.3,114.6z"/>
					<path class="st2" d="M48.3,111.9c0-2.6,1.8-4.3,3.7-4.3c2.1,0,3.2,1.5,3.2,3.8c0,0.3,0,0.6-0.1,0.8h-5.5
						c0.1,1.7,1.2,2.8,2.7,2.8c0.8,0,1.4-0.2,2-0.6l0.5,0.9c-0.7,0.5-1.6,0.8-2.7,0.8C50,116.2,48.3,114.6,48.3,111.9z M54,111.3
						c0-1.7-0.7-2.5-2-2.5c-1.2,0-2.2,0.9-2.3,2.5H54z"/>
					<path class="st2" d="M56.6,111.9c0-2.7,1.8-4.3,3.9-4.3c1.1,0,1.8,0.5,2.4,1l-0.7,0.9c-0.5-0.4-1-0.7-1.6-0.7
						c-1.5,0-2.5,1.3-2.5,3.2s1,3.1,2.5,3.1c0.8,0,1.4-0.3,1.9-0.8l0.6,0.9c-0.7,0.7-1.6,1-2.6,1C58.3,116.2,56.6,114.6,56.6,111.9z
						"/>
					<path class="st2" d="M64.7,113v-5.2h1.4v5c0,1.5,0.4,2.2,1.5,2.2c0.8,0,1.4-0.4,2.2-1.4v-5.8h1.4v8.1h-1.1l-0.1-1.3h0
						c-0.8,0.9-1.6,1.5-2.7,1.5C65.5,116.2,64.7,115.1,64.7,113z"/>
					<path class="st2" d="M73.9,107.9h1.1l0.1,1.5h0c0.6-1,1.4-1.7,2.3-1.7c0.4,0,0.6,0,0.9,0.2l-0.3,1.2c-0.3-0.1-0.5-0.1-0.8-0.1
						c-0.7,0-1.5,0.5-2.1,1.9v5.2h-1.4V107.9z"/>
					<path class="st2" d="M79,111.9c0-2.6,1.8-4.3,3.7-4.3c2.1,0,3.2,1.5,3.2,3.8c0,0.3,0,0.6-0.1,0.8h-5.5c0.1,1.7,1.2,2.8,2.7,2.8
						c0.8,0,1.4-0.2,2-0.6l0.5,0.9c-0.7,0.5-1.6,0.8-2.7,0.8C80.7,116.2,79,114.6,79,111.9z M84.7,111.3c0-1.7-0.8-2.5-2-2.5
						c-1.2,0-2.2,0.9-2.3,2.5H84.7z"/>
					<path class="st2" d="M90.4,115.1l0.7-0.9c0.7,0.6,1.4,1,2.4,1c1.1,0,1.6-0.6,1.6-1.3c0-0.8-1-1.2-1.9-1.5
						c-1.1-0.4-2.4-1-2.4-2.4c0-1.3,1-2.3,2.8-2.3c1,0,1.9,0.4,2.5,0.9l-0.7,0.9c-0.6-0.4-1.1-0.7-1.9-0.7c-1,0-1.5,0.5-1.5,1.2
						c0,0.8,0.9,1.1,1.8,1.4c1.2,0.4,2.5,0.9,2.5,2.5c0,1.3-1,2.4-3,2.4C92.2,116.2,91.1,115.7,90.4,115.1z"/>
					<path class="st2" d="M97.7,111.9c0-2.7,1.8-4.3,3.9-4.3c1.1,0,1.8,0.5,2.4,1l-0.7,0.9c-0.5-0.4-1-0.7-1.6-0.7
						c-1.5,0-2.5,1.3-2.5,3.2s1,3.1,2.5,3.1c0.8,0,1.4-0.3,1.9-0.8l0.6,0.9c-0.7,0.7-1.6,1-2.6,1C99.3,116.2,97.7,114.6,97.7,111.9z
						"/>
					<path class="st2" d="M105.7,105.3c0-0.6,0.4-0.9,0.9-0.9s0.9,0.3,0.9,0.9c0,0.5-0.4,0.9-0.9,0.9S105.7,105.8,105.7,105.3z
						 M105.9,107.9h1.4v8.1h-1.4V107.9z"/>
					<path class="st2" d="M109.4,111.9c0-2.6,1.8-4.3,3.7-4.3c2.1,0,3.2,1.5,3.2,3.8c0,0.3,0,0.6-0.1,0.8h-5.5
						c0.1,1.7,1.2,2.8,2.7,2.8c0.8,0,1.4-0.2,2-0.6l0.5,0.9c-0.7,0.5-1.6,0.8-2.7,0.8C111.2,116.2,109.4,114.6,109.4,111.9z
						 M115.2,111.3c0-1.7-0.8-2.5-2-2.5c-1.2,0-2.2,0.9-2.3,2.5H115.2z"/>
					<path class="st2" d="M118.4,107.9h1.1l0.1,1.2h0c0.8-0.8,1.6-1.4,2.7-1.4c1.7,0,2.5,1.1,2.5,3.2v5.2h-1.4v-5
						c0-1.5-0.5-2.2-1.5-2.2c-0.8,0-1.4,0.4-2.2,1.2v5.9h-1.4V107.9z"/>
					<path class="st2" d="M127.8,113.5V109h-1.2v-1l1.3-0.1l0.2-2.3h1.1v2.3h2.2v1.1h-2.2v4.5c0,1,0.3,1.6,1.3,1.6
						c0.3,0,0.7-0.1,0.9-0.2l0.3,1c-0.5,0.2-1,0.3-1.5,0.3C128.4,116.2,127.8,115.1,127.8,113.5z"/>
					<path class="st2" d="M132.9,105.3c0-0.6,0.4-0.9,0.9-0.9s0.9,0.3,0.9,0.9c0,0.5-0.4,0.9-0.9,0.9S132.9,105.8,132.9,105.3z
						 M133.2,107.9h1.4v8.1h-1.4V107.9z"/>
					<path class="st2" d="M137.5,106.6c0-1.7,0.8-2.7,2.4-2.7c0.5,0,1,0.1,1.4,0.3l-0.3,1c-0.3-0.1-0.6-0.2-0.9-0.2
						c-0.8,0-1.2,0.6-1.2,1.6v1.3h1.7v1.1h-1.7v7h-1.4v-7h-1.1v-1l1.1-0.1V106.6z M144.1,105.3c0,0.5-0.4,0.9-1,0.9
						c-0.5,0-0.9-0.4-0.9-0.9c0-0.6,0.4-0.9,0.9-0.9C143.7,104.4,144.1,104.7,144.1,105.3z M142.5,107.9h1.4v8.1h-1.4V107.9z"/>
					<path class="st2" d="M146,111.9c0-2.7,1.8-4.3,3.9-4.3c1.1,0,1.8,0.5,2.4,1l-0.7,0.9c-0.5-0.4-1-0.7-1.6-0.7
						c-1.5,0-2.5,1.3-2.5,3.2s1,3.1,2.5,3.1c0.8,0,1.4-0.3,1.9-0.8l0.6,0.9c-0.7,0.7-1.6,1-2.6,1C147.7,116.2,146,114.6,146,111.9z"
						/>
					<path class="st2" d="M157,111.9c0-2.7,1.8-4.3,3.9-4.3c1.1,0,1.8,0.5,2.4,1l-0.7,0.9c-0.5-0.4-1-0.7-1.6-0.7
						c-1.5,0-2.5,1.3-2.5,3.2s1,3.1,2.5,3.1c0.8,0,1.4-0.3,1.9-0.8l0.6,0.9c-0.7,0.7-1.6,1-2.6,1C158.7,116.2,157,114.6,157,111.9z"
						/>
					<path class="st2" d="M165.2,107.9h1.1l0.1,1.5h0c0.6-1,1.4-1.7,2.3-1.7c0.4,0,0.6,0,0.9,0.2l-0.3,1.2c-0.3-0.1-0.5-0.1-0.8-0.1
						c-0.7,0-1.5,0.5-2.1,1.9v5.2h-1.4V107.9z"/>
					<path class="st2" d="M170.3,111.9c0-2.6,1.8-4.3,3.7-4.3c2.1,0,3.2,1.5,3.2,3.8c0,0.3,0,0.6-0.1,0.8h-5.5
						c0.1,1.7,1.2,2.8,2.7,2.8c0.8,0,1.4-0.2,2-0.6l0.5,0.9c-0.7,0.5-1.6,0.8-2.7,0.8C172,116.2,170.3,114.6,170.3,111.9z
						 M176,111.3c0-1.7-0.8-2.5-2-2.5c-1.2,0-2.2,0.9-2.3,2.5H176z"/>
					<path class="st2" d="M178.6,111.9c0-2.6,1.7-4.3,3.5-4.3c1,0,1.6,0.4,2.3,1l-0.1-1.4v-3.1h1.4V116h-1.1l-0.1-1h0
						c-0.6,0.6-1.5,1.2-2.5,1.2C179.9,116.2,178.6,114.7,178.6,111.9z M184.4,113.9v-4.3c-0.7-0.6-1.3-0.9-2-0.9
						c-1.3,0-2.4,1.3-2.4,3.1c0,2,0.8,3.1,2.2,3.1C183,115.1,183.7,114.7,184.4,113.9z"/>
					<path class="st2" d="M188.2,105.3c0-0.6,0.4-0.9,0.9-0.9c0.5,0,0.9,0.3,0.9,0.9c0,0.5-0.4,0.9-0.9,0.9
						C188.7,106.2,188.2,105.8,188.2,105.3z M188.5,107.9h1.4v8.1h-1.4V107.9z"/>
					<path class="st2" d="M193.9,115.2L193.9,115.2l-0.2,0.8h-1.1v-11.9h1.4v3.3l0,1.5c0.7-0.6,1.6-1.2,2.5-1.2
						c2.1,0,3.3,1.6,3.3,4.1c0,2.8-1.7,4.4-3.5,4.4C195.5,116.2,194.6,115.8,193.9,115.2z M198.3,111.8c0-1.8-0.6-3-2.1-3
						c-0.7,0-1.4,0.4-2.2,1.1v4.3c0.7,0.6,1.5,0.9,2,0.9C197.3,115.1,198.3,113.8,198.3,111.8z"/>
					<path class="st2" d="M201.6,105.3c0-0.6,0.4-0.9,0.9-0.9s0.9,0.3,0.9,0.9c0,0.5-0.4,0.9-0.9,0.9S201.6,105.8,201.6,105.3z
						 M201.9,107.9h1.4v8.1h-1.4V107.9z"/>
					<path class="st2" d="M206,114.4v-10.3h1.4v10.4c0,0.4,0.2,0.6,0.4,0.6c0.1,0,0.1,0,0.3,0l0.2,1c-0.2,0.1-0.4,0.1-0.8,0.1
						C206.4,116.2,206,115.5,206,114.4z"/>
					<path class="st2" d="M210,105.3c0-0.6,0.4-0.9,0.9-0.9s0.9,0.3,0.9,0.9c0,0.5-0.4,0.9-0.9,0.9S210,105.8,210,105.3z
						 M210.3,107.9h1.4v8.1h-1.4V107.9z"/>
					<path class="st2" d="M214.7,113.5V109h-1.2v-1l1.3-0.1l0.2-2.3h1.1v2.3h2.2v1.1H216v4.5c0,1,0.3,1.6,1.3,1.6
						c0.3,0,0.7-0.1,0.9-0.2l0.3,1c-0.5,0.2-1,0.3-1.5,0.3C215.2,116.2,214.7,115.1,214.7,113.5z"/>
					<path class="st2" d="M219.3,119.3l0.3-1.1c0.2,0.1,0.4,0.1,0.6,0.1c0.9,0,1.5-0.8,1.8-1.8l0.2-0.6l-3.3-8.2h1.4l1.7,4.5
						c0.2,0.7,0.5,1.5,0.8,2.3h0.1c0.2-0.7,0.5-1.6,0.7-2.3l1.5-4.5h1.3l-3.1,8.8c-0.6,1.6-1.4,2.8-3,2.8
						C219.8,119.5,219.5,119.5,219.3,119.3z"/>
					<path class="st2" d="M231.5,113.5V109h-1.2v-1l1.3-0.1l0.2-2.3h1.1v2.3h2.2v1.1h-2.2v4.5c0,1,0.3,1.6,1.3,1.6
						c0.3,0,0.7-0.1,0.9-0.2l0.3,1c-0.5,0.2-1,0.3-1.5,0.3C232.1,116.2,231.5,115.1,231.5,113.5z"/>
					<path class="st2" d="M236.9,104.1h1.4v3.3l0,1.7c0.8-0.8,1.6-1.4,2.7-1.4c1.7,0,2.5,1.1,2.5,3.2v5.2h-1.4v-5
						c0-1.5-0.5-2.2-1.5-2.2c-0.8,0-1.4,0.4-2.2,1.2v5.9h-1.4V104.1z"/>
					<path class="st2" d="M246,107.9h1.1l0.1,1.5h0c0.6-1,1.4-1.7,2.3-1.7c0.4,0,0.6,0,0.9,0.2l-0.3,1.2c-0.3-0.1-0.5-0.1-0.8-0.1
						c-0.7,0-1.5,0.5-2.1,1.9v5.2H246V107.9z"/>
					<path class="st2" d="M251.1,111.9c0-2.7,1.8-4.3,3.8-4.3c2,0,3.8,1.6,3.8,4.3c0,2.7-1.8,4.3-3.8,4.3
						C252.8,116.2,251.1,114.6,251.1,111.9z M257.2,111.9c0-1.9-1-3.2-2.4-3.2c-1.4,0-2.4,1.3-2.4,3.2s0.9,3.1,2.4,3.1
						C256.2,115.1,257.2,113.8,257.2,111.9z"/>
					<path class="st2" d="M260.7,113v-5.2h1.4v5c0,1.5,0.5,2.2,1.5,2.2c0.8,0,1.4-0.4,2.2-1.4v-5.8h1.4v8.1H266l-0.1-1.3h0
						c-0.8,0.9-1.6,1.5-2.7,1.5C261.4,116.2,260.7,115.1,260.7,113z"/>
					<path class="st2" d="M269.2,117.6c0-0.7,0.5-1.3,1.2-1.8v-0.1c-0.4-0.3-0.8-0.7-0.8-1.3c0-0.7,0.5-1.2,0.9-1.5v-0.1
						c-0.5-0.4-1.1-1.2-1.1-2.2c0-1.8,1.4-2.9,3.1-2.9c0.5,0,0.9,0.1,1.1,0.2h2.8v1h-1.7c0.4,0.4,0.7,1,0.7,1.7c0,1.7-1.3,2.8-3,2.8
						c-0.4,0-0.9-0.1-1.2-0.3c-0.3,0.3-0.5,0.5-0.5,1c0,0.5,0.3,0.9,1.4,0.9h1.6c1.9,0,2.8,0.6,2.8,1.9c0,1.5-1.6,2.8-4.1,2.8
						C270.6,119.8,269.2,119,269.2,117.6z M275.4,117.1c0-0.8-0.6-1-1.7-1h-1.4c-0.3,0-0.7,0-1-0.1c-0.6,0.4-0.8,0.9-0.8,1.4
						c0,0.9,0.9,1.4,2.4,1.4C274.4,118.8,275.4,118,275.4,117.1z M274.3,110.6c0-1.2-0.8-1.9-1.7-1.9c-1,0-1.7,0.7-1.7,1.9
						c0,1.2,0.8,1.9,1.7,1.9C273.5,112.5,274.3,111.7,274.3,110.6z"/>
					<path class="st2" d="M278.3,104.1h1.4v3.3l0,1.7c0.8-0.8,1.6-1.4,2.7-1.4c1.7,0,2.5,1.1,2.5,3.2v5.2h-1.4v-5
						c0-1.5-0.5-2.2-1.5-2.2c-0.8,0-1.4,0.4-2.2,1.2v5.9h-1.4V104.1z"/>
				</g>
				<g class="st1">
					<path class="st2" d="M31.4,142.9h1.1l0.1,0.9h0c0.7-0.6,1.6-1.1,2.6-1.1c2.1,0,3.2,1.6,3.2,4.2c0,2.8-1.7,4.4-3.5,4.4
						c-0.7,0-1.5-0.3-2.2-0.9l0,1.4v2.8h-1.4V142.9z M37.1,146.8c0-1.8-0.6-3-2.1-3c-0.7,0-1.4,0.4-2.2,1.1v4.3
						c0.7,0.6,1.5,0.9,2,0.9C36.1,150.1,37.1,148.8,37.1,146.8z"/>
					<path class="st2" d="M40.6,148v-5.2h1.4v5c0,1.5,0.5,2.2,1.5,2.2c0.8,0,1.4-0.4,2.2-1.4v-5.8H47v8.1h-1.1l-0.1-1.3h0
						c-0.8,0.9-1.6,1.5-2.7,1.5C41.3,151.2,40.6,150.1,40.6,148z"/>
					<path class="st2" d="M51,150.2L51,150.2l-0.2,0.8h-1.1v-11.9h1.4v3.3l0,1.5c0.7-0.6,1.6-1.2,2.6-1.2c2.1,0,3.3,1.6,3.3,4.1
						c0,2.8-1.7,4.4-3.5,4.4C52.6,151.2,51.8,150.8,51,150.2z M55.5,146.8c0-1.8-0.6-3-2.1-3c-0.7,0-1.4,0.4-2.2,1.1v4.3
						c0.7,0.6,1.5,0.9,2,0.9C54.5,150.1,55.5,148.8,55.5,146.8z"/>
					<path class="st2" d="M59.1,149.4v-10.3h1.4v10.4c0,0.4,0.2,0.6,0.4,0.6c0.1,0,0.1,0,0.3,0l0.2,1c-0.2,0.1-0.4,0.1-0.8,0.1
						C59.5,151.2,59.1,150.5,59.1,149.4z"/>
					<path class="st2" d="M63.1,140.3c0-0.6,0.4-0.9,0.9-0.9s0.9,0.3,0.9,0.9c0,0.5-0.4,0.9-0.9,0.9S63.1,140.8,63.1,140.3z
						 M63.3,142.9h1.4v8.1h-1.4V142.9z"/>
					<path class="st2" d="M66.8,146.9c0-2.7,1.8-4.3,3.9-4.3c1.1,0,1.8,0.5,2.4,1l-0.7,0.9c-0.5-0.4-1-0.7-1.6-0.7
						c-1.5,0-2.5,1.3-2.5,3.2s1,3.1,2.5,3.1c0.8,0,1.4-0.3,1.9-0.8l0.6,0.9c-0.7,0.7-1.6,1-2.6,1C68.5,151.2,66.8,149.6,66.8,146.9z
						"/>
					<path class="st2" d="M74.4,148.9c0-1.8,1.5-2.7,5-3c0-1-0.3-2.1-1.7-2.1c-0.9,0-1.8,0.4-2.4,0.9l-0.5-0.9
						c0.8-0.5,1.9-1.1,3.2-1.1c2,0,2.8,1.3,2.8,3.3v5h-1.1l-0.1-1h0c-0.8,0.6-1.7,1.2-2.7,1.2C75.4,151.2,74.4,150.4,74.4,148.9z
						 M79.4,149v-2.3c-2.7,0.3-3.7,1-3.7,2.1c0,0.9,0.6,1.3,1.4,1.3C78,150.1,78.6,149.7,79.4,149z"/>
					<path class="st2" d="M83.4,148.5V144h-1.2v-1l1.3-0.1l0.2-2.3h1.1v2.3H87v1.1h-2.2v4.5c0,1,0.3,1.6,1.3,1.6
						c0.3,0,0.7-0.1,0.9-0.2l0.3,1c-0.5,0.2-1,0.3-1.5,0.3C84,151.2,83.4,150.1,83.4,148.5z"/>
					<path class="st2" d="M88.6,140.3c0-0.6,0.4-0.9,0.9-0.9s0.9,0.3,0.9,0.9c0,0.5-0.4,0.9-0.9,0.9S88.6,140.8,88.6,140.3z
						 M88.8,142.9h1.4v8.1h-1.4V142.9z"/>
					<path class="st2" d="M92.3,146.9c0-2.7,1.8-4.3,3.8-4.3c2,0,3.8,1.6,3.8,4.3c0,2.7-1.8,4.3-3.8,4.3
						C94.1,151.2,92.3,149.6,92.3,146.9z M98.5,146.9c0-1.9-1-3.2-2.4-3.2c-1.4,0-2.4,1.3-2.4,3.2s0.9,3.1,2.4,3.1
						C97.5,150.1,98.5,148.8,98.5,146.9z"/>
					<path class="st2" d="M102,142.9h1.1l0.1,1.2h0c0.8-0.8,1.6-1.4,2.7-1.4c1.7,0,2.5,1.1,2.5,3.2v5.2h-1.4v-5
						c0-1.5-0.5-2.2-1.5-2.2c-0.8,0-1.4,0.4-2.2,1.2v5.9H102V142.9z"/>
					<path class="st2" d="M114.3,140.3c0-0.6,0.4-0.9,0.9-0.9s0.9,0.3,0.9,0.9c0,0.5-0.4,0.9-0.9,0.9S114.3,140.8,114.3,140.3z
						 M114.6,142.9h1.4v8.1h-1.4V142.9z"/>
					<path class="st2" d="M118.7,142.9h1.1l0.1,1.2h0c0.8-0.8,1.6-1.4,2.7-1.4c1.7,0,2.5,1.1,2.5,3.2v5.2h-1.4v-5
						c0-1.5-0.5-2.2-1.5-2.2c-0.8,0-1.4,0.4-2.2,1.2v5.9h-1.4V142.9z"/>
					<path class="st2" d="M130.5,149.6l0.8-0.9c0.8,0.8,1.9,1.4,3,1.4c1.4,0,2.3-0.7,2.3-1.8c0-1.1-0.8-1.5-1.8-1.9l-1.6-0.7
						c-1-0.4-2.2-1.2-2.2-2.8c0-1.7,1.5-2.9,3.5-2.9c1.3,0,2.5,0.6,3.2,1.4L137,142c-0.7-0.6-1.5-1-2.5-1c-1.2,0-2.1,0.6-2.1,1.6
						c0,1.1,1,1.5,1.8,1.8l1.6,0.7c1.3,0.6,2.3,1.3,2.3,2.9c0,1.7-1.4,3.1-3.7,3.1C132.8,151.2,131.5,150.6,130.5,149.6z"/>
					<path class="st2" d="M139.6,145.5c0-3.6,2.1-5.7,4.9-5.7c1.3,0,2.4,0.7,3,1.4l-0.8,0.9c-0.6-0.6-1.3-1-2.2-1
						c-2.1,0-3.5,1.7-3.5,4.5c0,2.8,1.3,4.5,3.4,4.5c1,0,1.8-0.5,2.5-1.2l0.8,0.9c-0.9,1-2,1.6-3.4,1.6
						C141.7,151.2,139.6,149.1,139.6,145.5z"/>
					<path class="st2" d="M149.8,140h1.4v11h-1.4V140z"/>
					<path class="st2" d="M155.4,154.4l0.3-1c0.2,0.1,0.5,0.2,0.8,0.2c0.8,0,1-0.6,1-1.6v-9.1h1.4v9.1c0,1.7-0.6,2.7-2.2,2.7
						C156.1,154.6,155.7,154.5,155.4,154.4z M157.2,140.3c0-0.6,0.4-0.9,0.9-0.9c0.5,0,0.9,0.3,0.9,0.9c0,0.5-0.4,0.9-0.9,0.9
						C157.6,141.2,157.2,140.8,157.2,140.3z"/>
					<path class="st2" d="M161,146.9c0-2.7,1.8-4.3,3.8-4.3c2,0,3.8,1.6,3.8,4.3c0,2.7-1.8,4.3-3.8,4.3
						C162.8,151.2,161,149.6,161,146.9z M167.1,146.9c0-1.9-1-3.2-2.4-3.2c-1.4,0-2.4,1.3-2.4,3.2s0.9,3.1,2.4,3.1
						C166.2,150.1,167.1,148.8,167.1,146.9z"/>
					<path class="st2" d="M170.6,148v-5.2h1.4v5c0,1.5,0.5,2.2,1.5,2.2c0.8,0,1.4-0.4,2.2-1.4v-5.8h1.4v8.1h-1.1l-0.1-1.3h0
						c-0.8,0.9-1.6,1.5-2.7,1.5C171.4,151.2,170.6,150.1,170.6,148z"/>
					<path class="st2" d="M179.8,142.9h1.1l0.1,1.5h0c0.6-1,1.4-1.7,2.3-1.7c0.4,0,0.6,0,0.9,0.2L184,144c-0.3-0.1-0.5-0.1-0.8-0.1
						c-0.7,0-1.5,0.5-2.1,1.9v5.2h-1.4V142.9z"/>
					<path class="st2" d="M185.6,142.9h1.1l0.1,1.2h0c0.8-0.8,1.6-1.4,2.7-1.4c1.7,0,2.5,1.1,2.5,3.2v5.2h-1.4v-5
						c0-1.5-0.5-2.2-1.5-2.2c-0.8,0-1.4,0.4-2.2,1.2v5.9h-1.4V142.9z"/>
					<path class="st2" d="M194.3,148.9c0-1.8,1.5-2.7,5-3c0-1-0.3-2.1-1.7-2.1c-0.9,0-1.8,0.4-2.4,0.9l-0.5-0.9
						c0.8-0.5,1.9-1.1,3.2-1.1c2,0,2.8,1.3,2.8,3.3v5h-1.1l-0.1-1h0c-0.8,0.6-1.7,1.2-2.7,1.2C195.3,151.2,194.3,150.4,194.3,148.9z
						 M199.3,149v-2.3c-2.7,0.3-3.7,1-3.7,2.1c0,0.9,0.6,1.3,1.4,1.3C197.8,150.1,198.5,149.7,199.3,149z"/>
					<path class="st2" d="M203.2,149.4v-10.3h1.4v10.4c0,0.4,0.2,0.6,0.4,0.6c0.1,0,0.1,0,0.3,0l0.2,1c-0.2,0.1-0.4,0.1-0.8,0.1
						C203.7,151.2,203.2,150.5,203.2,149.4z"/>
					<path class="st2" d="M206.6,150.1l0.7-0.9c0.7,0.6,1.4,1,2.4,1c1.1,0,1.6-0.6,1.6-1.3c0-0.8-1-1.2-1.9-1.5
						c-1.1-0.4-2.4-1-2.4-2.4c0-1.3,1-2.3,2.8-2.3c1,0,1.9,0.4,2.5,0.9l-0.7,0.9c-0.6-0.4-1.1-0.7-1.9-0.7c-1,0-1.5,0.5-1.5,1.2
						c0,0.8,0.9,1.1,1.8,1.4c1.2,0.4,2.5,0.9,2.5,2.5c0,1.3-1,2.4-3,2.4C208.5,151.2,207.4,150.7,206.6,150.1z"/>
				</g>
				<text transform="matrix(1 0 0 1 213.1622 151)" class="st2 st5 st4"> </text>
				<g class="st1">
					<path class="st2" d="M30.7,216.3h3.8v1h-3.8V216.3z"/>
					<path class="st2" d="M39.3,219.6l0.8-0.9c0.8,0.8,1.9,1.4,3,1.4c1.4,0,2.3-0.7,2.3-1.8c0-1.1-0.8-1.5-1.8-1.9l-1.6-0.7
						c-1-0.4-2.2-1.2-2.2-2.8c0-1.7,1.5-2.9,3.5-2.9c1.3,0,2.5,0.6,3.2,1.4l-0.7,0.9c-0.7-0.6-1.5-1-2.5-1c-1.2,0-2.1,0.6-2.1,1.6
						c0,1.1,1,1.5,1.8,1.8l1.6,0.7c1.3,0.6,2.3,1.3,2.3,2.9c0,1.7-1.4,3.1-3.7,3.1C41.6,221.2,40.2,220.6,39.3,219.6z"/>
					<path class="st2" d="M48.7,218.5V214h-1.2v-1l1.3-0.1l0.2-2.3h1.1v2.3h2.2v1.1h-2.2v4.5c0,1,0.3,1.6,1.3,1.6
						c0.3,0,0.7-0.1,0.9-0.2l0.3,1c-0.5,0.2-1,0.3-1.5,0.3C49.3,221.2,48.7,220.1,48.7,218.5z"/>
					<path class="st2" d="M54.1,212.9h1.1l0.1,1.5h0c0.6-1,1.4-1.7,2.3-1.7c0.4,0,0.6,0,0.9,0.2l-0.3,1.2c-0.3-0.1-0.5-0.1-0.8-0.1
						c-0.7,0-1.5,0.5-2.1,1.9v5.2h-1.4V212.9z"/>
					<path class="st2" d="M59.7,210.3c0-0.6,0.4-0.9,0.9-0.9s0.9,0.3,0.9,0.9c0,0.5-0.4,0.9-0.9,0.9S59.7,210.8,59.7,210.3z
						 M60,212.9h1.4v8.1H60V212.9z"/>
					<path class="st2" d="M63.5,216.9c0-2.7,1.8-4.3,3.9-4.3c1.1,0,1.8,0.5,2.4,1l-0.7,0.9c-0.5-0.4-1-0.7-1.6-0.7
						c-1.5,0-2.5,1.3-2.5,3.2s1,3.1,2.5,3.1c0.8,0,1.4-0.3,1.9-0.8l0.6,0.9c-0.7,0.7-1.6,1-2.6,1C65.1,221.2,63.5,219.6,63.5,216.9z
						"/>
					<path class="st2" d="M71.8,218.5V214h-1.2v-1l1.3-0.1l0.2-2.3h1.1v2.3h2.2v1.1h-2.2v4.5c0,1,0.3,1.6,1.3,1.6
						c0.3,0,0.7-0.1,0.9-0.2l0.3,1c-0.5,0.2-1,0.3-1.5,0.3C72.4,221.2,71.8,220.1,71.8,218.5z"/>
					<path class="st2" d="M77.2,219.4v-10.3h1.4v10.4c0,0.4,0.2,0.6,0.4,0.6c0.1,0,0.1,0,0.3,0l0.2,1c-0.2,0.1-0.4,0.1-0.8,0.1
						C77.6,221.2,77.2,220.5,77.2,219.4z"/>
					<path class="st2" d="M80.7,224.3l0.3-1.1c0.2,0.1,0.4,0.1,0.6,0.1c0.9,0,1.5-0.8,1.8-1.8l0.2-0.6l-3.3-8.2h1.4l1.7,4.5
						c0.2,0.7,0.5,1.5,0.8,2.3h0.1c0.2-0.7,0.5-1.6,0.7-2.3l1.5-4.5h1.3l-3.1,8.8c-0.6,1.6-1.4,2.8-3,2.8
						C81.2,224.5,80.9,224.5,80.7,224.3z"/>
					<path class="st2" d="M92.7,212.9h1.1l0.1,1.2h0c0.7-0.8,1.6-1.4,2.5-1.4c1.2,0,1.9,0.6,2.2,1.6c0.8-0.9,1.7-1.6,2.7-1.6
						c1.7,0,2.5,1.1,2.5,3.2v5.2h-1.4v-5c0-1.5-0.5-2.2-1.5-2.2c-0.6,0-1.3,0.4-2.1,1.2v5.9h-1.4v-5c0-1.5-0.5-2.2-1.5-2.2
						c-0.6,0-1.3,0.4-2.1,1.2v5.9h-1.4V212.9z"/>
					<path class="st2" d="M106,218.9c0-1.8,1.5-2.7,5-3c0-1-0.3-2.1-1.7-2.1c-0.9,0-1.8,0.4-2.4,0.9l-0.5-0.9
						c0.8-0.5,1.9-1.1,3.2-1.1c2,0,2.8,1.3,2.8,3.3v5h-1.1l-0.1-1h0c-0.8,0.6-1.7,1.2-2.7,1.2C107.1,221.2,106,220.4,106,218.9z
						 M111.1,219v-2.3c-2.7,0.3-3.7,1-3.7,2.1c0,0.9,0.6,1.3,1.4,1.3C109.6,220.1,110.3,219.7,111.1,219z"/>
					<path class="st2" d="M115,212.9h1.1l0.1,1.2h0c0.8-0.8,1.6-1.4,2.7-1.4c1.7,0,2.5,1.1,2.5,3.2v5.2h-1.4v-5
						c0-1.5-0.5-2.2-1.5-2.2c-0.8,0-1.4,0.4-2.2,1.2v5.9H115V212.9z"/>
					<path class="st2" d="M123.7,218.9c0-1.8,1.5-2.7,5-3c0-1-0.3-2.1-1.7-2.1c-0.9,0-1.8,0.4-2.4,0.9l-0.5-0.9
						c0.8-0.5,1.9-1.1,3.2-1.1c2,0,2.8,1.3,2.8,3.3v5h-1.1l-0.1-1h0c-0.8,0.6-1.7,1.2-2.7,1.2C124.7,221.2,123.7,220.4,123.7,218.9z
						 M128.7,219v-2.3c-2.7,0.3-3.7,1-3.7,2.1c0,0.9,0.6,1.3,1.4,1.3C127.2,220.1,127.9,219.7,128.7,219z"/>
					<path class="st2" d="M132,222.6c0-0.7,0.5-1.3,1.2-1.8v-0.1c-0.4-0.3-0.8-0.7-0.8-1.3c0-0.7,0.5-1.2,0.9-1.5v-0.1
						c-0.5-0.4-1.1-1.2-1.1-2.2c0-1.8,1.4-2.9,3.1-2.9c0.4,0,0.9,0.1,1.1,0.2h2.8v1h-1.7c0.4,0.4,0.7,1,0.7,1.7c0,1.7-1.3,2.8-3,2.8
						c-0.4,0-0.9-0.1-1.2-0.3c-0.3,0.3-0.5,0.5-0.5,1c0,0.5,0.3,0.9,1.4,0.9h1.6c1.9,0,2.8,0.6,2.8,1.9c0,1.5-1.6,2.8-4.1,2.8
						C133.4,224.8,132,224,132,222.6z M138.2,222.1c0-0.8-0.6-1-1.7-1h-1.4c-0.3,0-0.7,0-1-0.1c-0.6,0.4-0.8,0.9-0.8,1.4
						c0,0.9,0.9,1.4,2.4,1.4C137.1,223.8,138.2,223,138.2,222.1z M137.1,215.6c0-1.2-0.8-1.9-1.7-1.9s-1.7,0.7-1.7,1.9
						c0,1.2,0.8,1.9,1.7,1.9C136.3,217.5,137.1,216.7,137.1,215.6z"/>
					<path class="st2" d="M140.2,216.9c0-2.6,1.8-4.3,3.7-4.3c2.1,0,3.2,1.5,3.2,3.8c0,0.3,0,0.6-0.1,0.8h-5.5
						c0.1,1.7,1.2,2.8,2.7,2.8c0.8,0,1.4-0.2,2-0.6l0.5,0.9c-0.7,0.5-1.6,0.8-2.7,0.8C142,221.2,140.2,219.6,140.2,216.9z
						 M146,216.3c0-1.7-0.7-2.5-2-2.5c-1.2,0-2.2,0.9-2.3,2.5H146z"/>
					<path class="st2" d="M157.7,221.5l0.1-1.5c-0.7,0.6-1.5,1.1-2.5,1.1c-2,0-3.4-1.5-3.4-4.3c0-2.6,1.7-4.3,3.5-4.3
						c0.9,0,1.6,0.3,2.3,1h0l0.1-0.8h1.1v11.6h-1.4V221.5z M157.7,218.9v-4.3c-0.7-0.6-1.3-0.9-2-0.9c-1.3,0-2.4,1.3-2.4,3.1
						c0,2,0.8,3.1,2.2,3.1C156.4,220.1,157,219.7,157.7,218.9z"/>
					<path class="st2" d="M161.7,218v-5.2h1.4v5c0,1.5,0.5,2.2,1.5,2.2c0.8,0,1.4-0.4,2.2-1.4v-5.8h1.4v8.1h-1.1l-0.1-1.3h0
						c-0.8,0.9-1.6,1.5-2.7,1.5C162.5,221.2,161.7,220.1,161.7,218z"/>
					<path class="st2" d="M170.4,218.9c0-1.8,1.5-2.7,5-3c0-1-0.3-2.1-1.7-2.1c-0.9,0-1.8,0.4-2.4,0.9l-0.5-0.9
						c0.8-0.5,1.9-1.1,3.2-1.1c2,0,2.8,1.3,2.8,3.3v5h-1.1l-0.1-1h0c-0.8,0.6-1.7,1.2-2.7,1.2C171.4,221.2,170.4,220.4,170.4,218.9z
						 M175.4,219v-2.3c-2.7,0.3-3.7,1-3.7,2.1c0,0.9,0.6,1.3,1.4,1.3C174,220.1,174.6,219.7,175.4,219z"/>
					<path class="st2" d="M179.4,219.4v-10.3h1.4v10.4c0,0.4,0.2,0.6,0.4,0.6c0.1,0,0.1,0,0.3,0l0.2,1c-0.2,0.1-0.4,0.1-0.8,0.1
						C179.8,221.2,179.4,220.5,179.4,219.4z"/>
					<path class="st2" d="M183.4,210.3c0-0.6,0.4-0.9,0.9-0.9c0.5,0,0.9,0.3,0.9,0.9c0,0.5-0.4,0.9-0.9,0.9
						C183.8,211.2,183.4,210.8,183.4,210.3z M183.7,212.9h1.4v8.1h-1.4V212.9z"/>
					<path class="st2" d="M188,218.5V214h-1.2v-1l1.3-0.1l0.2-2.3h1.1v2.3h2.2v1.1h-2.2v4.5c0,1,0.3,1.6,1.3,1.6
						c0.3,0,0.7-0.1,0.9-0.2l0.3,1c-0.5,0.2-1,0.3-1.5,0.3C188.6,221.2,188,220.1,188,218.5z"/>
					<path class="st2" d="M192.6,224.3l0.3-1.1c0.2,0.1,0.4,0.1,0.6,0.1c0.9,0,1.5-0.8,1.8-1.8l0.2-0.6l-3.3-8.2h1.4l1.7,4.5
						c0.2,0.7,0.5,1.5,0.8,2.3h0.1c0.2-0.7,0.5-1.6,0.7-2.3l1.5-4.5h1.3l-3.1,8.8c-0.6,1.6-1.4,2.8-3,2.8
						C193.2,224.5,192.9,224.5,192.6,224.3z"/>
					<path class="st2" d="M203.7,220.1l0.7-0.9c0.7,0.6,1.4,1,2.4,1c1.1,0,1.6-0.6,1.6-1.3c0-0.8-1-1.2-1.9-1.5
						c-1.1-0.4-2.4-1-2.4-2.4c0-1.3,1-2.3,2.8-2.3c1,0,1.9,0.4,2.5,0.9l-0.7,0.9c-0.6-0.4-1.1-0.7-1.9-0.7c-1,0-1.5,0.5-1.5,1.2
						c0,0.8,0.9,1.1,1.8,1.4c1.2,0.4,2.5,0.9,2.5,2.5c0,1.3-1,2.4-3,2.4C205.6,221.2,204.5,220.7,203.7,220.1z"/>
					<path class="st2" d="M211.6,212.9h1.1l0.1,0.9h0c0.7-0.6,1.7-1.1,2.6-1.1c2.1,0,3.2,1.6,3.2,4.2c0,2.8-1.7,4.4-3.5,4.4
						c-0.7,0-1.5-0.3-2.2-0.9l0,1.4v2.8h-1.4V212.9z M217.3,216.8c0-1.8-0.6-3-2.1-3c-0.7,0-1.4,0.4-2.2,1.1v4.3
						c0.7,0.6,1.5,0.9,2,0.9C216.4,220.1,217.3,218.8,217.3,216.8z"/>
					<path class="st2" d="M220.3,216.9c0-2.6,1.8-4.3,3.7-4.3c2.1,0,3.2,1.5,3.2,3.8c0,0.3,0,0.6-0.1,0.8h-5.5
						c0.1,1.7,1.2,2.8,2.7,2.8c0.8,0,1.4-0.2,2-0.6l0.5,0.9c-0.7,0.5-1.6,0.8-2.7,0.8C222.1,221.2,220.3,219.6,220.3,216.9z
						 M226,216.3c0-1.7-0.8-2.5-2-2.5c-1.2,0-2.2,0.9-2.3,2.5H226z"/>
					<path class="st2" d="M228.6,216.9c0-2.7,1.8-4.3,3.9-4.3c1.1,0,1.8,0.5,2.4,1l-0.7,0.9c-0.5-0.4-1-0.7-1.6-0.7
						c-1.5,0-2.5,1.3-2.5,3.2s1,3.1,2.5,3.1c0.8,0,1.4-0.3,1.9-0.8l0.6,0.9c-0.7,0.7-1.6,1-2.6,1
						C230.3,221.2,228.6,219.6,228.6,216.9z"/>
					<path class="st2" d="M236,220.1l0.7-0.9c0.7,0.6,1.4,1,2.4,1c1.1,0,1.6-0.6,1.6-1.3c0-0.8-1-1.2-1.9-1.5
						c-1.1-0.4-2.4-1-2.4-2.4c0-1.3,1-2.3,2.8-2.3c1,0,1.9,0.4,2.5,0.9l-0.7,0.9c-0.6-0.4-1.1-0.7-1.9-0.7c-1,0-1.5,0.5-1.5,1.2
						c0,0.8,0.9,1.1,1.8,1.4c1.2,0.4,2.5,0.9,2.5,2.5c0,1.3-1.1,2.4-3,2.4C237.9,221.2,236.8,220.7,236,220.1z"/>
				</g>
				<text transform="matrix(1 0 0 1 242.5319 221)" class="st2 st5 st4"> </text>
				<g class="st1">
					<path class="st2" d="M30.7,286.3h3.8v1h-3.8V286.3z"/>
					<path class="st2" d="M40.1,280h2.8c3.4,0,5.2,2,5.2,5.5c0,3.5-1.8,5.5-5.1,5.5h-2.8V280z M42.7,289.9c2.6,0,3.9-1.6,3.9-4.4
						c0-2.8-1.3-4.3-3.9-4.3h-1.2v8.7H42.7z"/>
					<path class="st2" d="M49.6,286.9c0-2.6,1.8-4.3,3.7-4.3c2.1,0,3.2,1.5,3.2,3.8c0,0.3,0,0.6-0.1,0.8H51c0.1,1.7,1.2,2.8,2.7,2.8
						c0.8,0,1.4-0.2,2-0.6l0.5,0.9c-0.7,0.5-1.6,0.8-2.7,0.8C51.4,291.2,49.6,289.6,49.6,286.9z M55.3,286.3c0-1.7-0.8-2.5-2-2.5
						c-1.2,0-2.2,0.9-2.3,2.5H55.3z"/>
					<path class="st2" d="M57.4,282.9h1.4l1.5,4.6c0.3,0.8,0.5,1.6,0.8,2.4h0.1c0.2-0.8,0.5-1.6,0.8-2.4l1.5-4.6h1.4L62,291h-1.6
						L57.4,282.9z"/>
					<path class="st2" d="M65.8,286.9c0-2.6,1.8-4.3,3.7-4.3c2.1,0,3.2,1.5,3.2,3.8c0,0.3,0,0.6-0.1,0.8h-5.5
						c0.1,1.7,1.2,2.8,2.7,2.8c0.8,0,1.4-0.2,2-0.6l0.5,0.9c-0.7,0.5-1.6,0.8-2.7,0.8C67.5,291.2,65.8,289.6,65.8,286.9z
						 M71.5,286.3c0-1.7-0.8-2.5-2-2.5c-1.2,0-2.2,0.9-2.3,2.5H71.5z"/>
					<path class="st2" d="M74.7,289.4v-10.3h1.4v10.4c0,0.4,0.2,0.6,0.4,0.6c0.1,0,0.1,0,0.3,0l0.2,1c-0.2,0.1-0.4,0.1-0.8,0.1
						C75.1,291.2,74.7,290.5,74.7,289.4z"/>
					<path class="st2" d="M78.4,286.9c0-2.7,1.8-4.3,3.8-4.3c2,0,3.8,1.6,3.8,4.3c0,2.7-1.8,4.3-3.8,4.3
						C80.1,291.2,78.4,289.6,78.4,286.9z M84.5,286.9c0-1.9-1-3.2-2.4-3.2c-1.4,0-2.4,1.3-2.4,3.2s0.9,3.1,2.4,3.1
						C83.5,290.1,84.5,288.8,84.5,286.9z"/>
					<path class="st2" d="M88.1,282.9h1.1l0.1,0.9h0c0.7-0.6,1.6-1.1,2.6-1.1c2.1,0,3.2,1.6,3.2,4.2c0,2.8-1.7,4.4-3.5,4.4
						c-0.7,0-1.5-0.3-2.2-0.9l0,1.4v2.8h-1.4V282.9z M93.8,286.8c0-1.8-0.6-3-2.1-3c-0.7,0-1.4,0.4-2.2,1.1v4.3
						c0.7,0.6,1.5,0.9,2,0.9C92.8,290.1,93.8,288.8,93.8,286.8z"/>
					<path class="st2" d="M100.1,286.9c0-2.6,1.7-4.3,3.5-4.3c1,0,1.6,0.4,2.3,1l-0.1-1.4v-3.1h1.4V291h-1.1l-0.1-1h0
						c-0.6,0.6-1.5,1.2-2.5,1.2C101.5,291.2,100.1,289.7,100.1,286.9z M105.9,288.9v-4.3c-0.7-0.6-1.3-0.9-2-0.9
						c-1.3,0-2.4,1.3-2.4,3.1c0,2,0.8,3.1,2.2,3.1C104.5,290.1,105.2,289.7,105.9,288.9z"/>
					<path class="st2" d="M109.8,280.3c0-0.6,0.4-0.9,0.9-0.9s0.9,0.3,0.9,0.9c0,0.5-0.4,0.9-0.9,0.9S109.8,280.8,109.8,280.3z
						 M110,282.9h1.4v8.1H110V282.9z"/>
					<path class="st2" d="M113.5,286.9c0-2.6,1.8-4.3,3.7-4.3c2.1,0,3.2,1.5,3.2,3.8c0,0.3,0,0.6-0.1,0.8h-5.5
						c0.1,1.7,1.2,2.8,2.7,2.8c0.8,0,1.4-0.2,2-0.6l0.5,0.9c-0.7,0.5-1.6,0.8-2.7,0.8C115.3,291.2,113.5,289.6,113.5,286.9z
						 M119.2,286.3c0-1.7-0.7-2.5-2-2.5c-1.2,0-2.2,0.9-2.3,2.5H119.2z"/>
					<path class="st2" d="M122.5,288.5V284h-1.2v-1l1.3-0.1l0.2-2.3h1.1v2.3h2.2v1.1h-2.2v4.5c0,1,0.3,1.6,1.3,1.6
						c0.3,0,0.7-0.1,0.9-0.2l0.3,1c-0.5,0.2-1,0.3-1.5,0.3C123.1,291.2,122.5,290.1,122.5,288.5z"/>
					<path class="st2" d="M127.1,288.9c0-1.8,1.5-2.7,5-3c0-1-0.3-2.1-1.7-2.1c-0.9,0-1.8,0.4-2.4,0.9l-0.5-0.9
						c0.8-0.5,1.9-1.1,3.2-1.1c2,0,2.8,1.3,2.8,3.3v5h-1.1l-0.1-1h0c-0.8,0.6-1.7,1.2-2.7,1.2C128.1,291.2,127.1,290.4,127.1,288.9z
						 M132.1,289v-2.3c-2.7,0.3-3.7,1-3.7,2.1c0,0.9,0.6,1.3,1.4,1.3C130.6,290.1,131.3,289.7,132.1,289z"/>
					<path class="st2" d="M136,282.9h1.1l0.1,1.5h0c0.6-1,1.4-1.7,2.3-1.7c0.4,0,0.6,0,0.9,0.2l-0.3,1.2c-0.3-0.1-0.5-0.1-0.8-0.1
						c-0.7,0-1.5,0.5-2.1,1.9v5.2H136V282.9z"/>
					<path class="st2" d="M141.5,294.3l0.3-1.1c0.2,0.1,0.4,0.1,0.6,0.1c0.9,0,1.5-0.8,1.8-1.8l0.2-0.6l-3.3-8.2h1.4l1.7,4.5
						c0.2,0.7,0.5,1.5,0.8,2.3h0.1c0.2-0.7,0.5-1.6,0.7-2.3l1.5-4.5h1.3l-3.1,8.8c-0.6,1.6-1.4,2.8-3,2.8
						C142,294.5,141.7,294.5,141.5,294.3z"/>
					<path class="st2" d="M153.2,280.3c0-0.6,0.4-0.9,0.9-0.9s0.9,0.3,0.9,0.9c0,0.5-0.4,0.9-0.9,0.9S153.2,280.8,153.2,280.3z
						 M153.5,282.9h1.4v8.1h-1.4V282.9z"/>
					<path class="st2" d="M157.6,282.9h1.1l0.1,1.2h0c0.8-0.8,1.6-1.4,2.7-1.4c1.7,0,2.5,1.1,2.5,3.2v5.2h-1.4v-5
						c0-1.5-0.5-2.2-1.5-2.2c-0.8,0-1.4,0.4-2.2,1.2v5.9h-1.4V282.9z"/>
					<path class="st2" d="M166.1,292.6c0-0.7,0.4-1.3,1.2-1.8v-0.1c-0.4-0.3-0.8-0.7-0.8-1.3c0-0.7,0.5-1.2,0.9-1.5v-0.1
						c-0.5-0.4-1.1-1.2-1.1-2.2c0-1.8,1.4-2.9,3.1-2.9c0.4,0,0.9,0.1,1.1,0.2h2.8v1h-1.7c0.4,0.4,0.7,1,0.7,1.7c0,1.7-1.3,2.8-3,2.8
						c-0.4,0-0.9-0.1-1.2-0.3c-0.3,0.3-0.5,0.5-0.5,1c0,0.5,0.3,0.9,1.4,0.9h1.6c1.9,0,2.8,0.6,2.8,1.9c0,1.5-1.6,2.8-4.1,2.8
						C167.5,294.8,166.1,294,166.1,292.6z M172.3,292.1c0-0.8-0.6-1-1.7-1h-1.4c-0.3,0-0.7,0-1.1-0.1c-0.6,0.4-0.8,0.9-0.8,1.4
						c0,0.9,0.9,1.4,2.4,1.4C171.3,293.8,172.3,293,172.3,292.1z M171.2,285.6c0-1.2-0.8-1.9-1.7-1.9c-1,0-1.7,0.7-1.7,1.9
						c0,1.2,0.8,1.9,1.7,1.9C170.4,287.5,171.2,286.7,171.2,285.6z"/>
					<path class="st2" d="M175.2,282.9h1.1l0.1,1.5h0c0.6-1,1.4-1.7,2.3-1.7c0.4,0,0.6,0,0.9,0.2l-0.3,1.2c-0.3-0.1-0.5-0.1-0.8-0.1
						c-0.7,0-1.5,0.5-2.1,1.9v5.2h-1.4V282.9z"/>
					<path class="st2" d="M180.3,286.9c0-2.6,1.8-4.3,3.7-4.3c2.1,0,3.2,1.5,3.2,3.8c0,0.3,0,0.6-0.1,0.8h-5.5
						c0.1,1.7,1.2,2.8,2.7,2.8c0.8,0,1.4-0.2,2-0.6l0.5,0.9c-0.7,0.5-1.6,0.8-2.7,0.8C182,291.2,180.3,289.6,180.3,286.9z
						 M186,286.3c0-1.7-0.8-2.5-2-2.5c-1.2,0-2.2,0.9-2.3,2.5H186z"/>
					<path class="st2" d="M188.6,286.9c0-2.6,1.7-4.3,3.5-4.3c1,0,1.6,0.4,2.3,1l-0.1-1.4v-3.1h1.4V291h-1.1l-0.1-1h0
						c-0.6,0.6-1.5,1.2-2.5,1.2C189.9,291.2,188.6,289.7,188.6,286.9z M194.3,288.9v-4.3c-0.7-0.6-1.3-0.9-2-0.9
						c-1.3,0-2.4,1.3-2.4,3.1c0,2,0.8,3.1,2.2,3.1C193,290.1,193.7,289.7,194.3,288.9z"/>
					<path class="st2" d="M198.2,280.3c0-0.6,0.4-0.9,0.9-0.9c0.5,0,0.9,0.3,0.9,0.9c0,0.5-0.4,0.9-0.9,0.9
						C198.6,281.2,198.2,280.8,198.2,280.3z M198.5,282.9h1.4v8.1h-1.4V282.9z"/>
					<path class="st2" d="M202,286.9c0-2.6,1.8-4.3,3.7-4.3c2.1,0,3.2,1.5,3.2,3.8c0,0.3,0,0.6-0.1,0.8h-5.5
						c0.1,1.7,1.2,2.8,2.7,2.8c0.8,0,1.4-0.2,2-0.6l0.5,0.9c-0.7,0.5-1.6,0.8-2.7,0.8C203.7,291.2,202,289.6,202,286.9z
						 M207.7,286.3c0-1.7-0.8-2.5-2-2.5c-1.2,0-2.2,0.9-2.3,2.5H207.7z"/>
					<path class="st2" d="M210.9,282.9h1.1l0.1,1.2h0c0.8-0.8,1.6-1.4,2.7-1.4c1.7,0,2.5,1.1,2.5,3.2v5.2h-1.4v-5
						c0-1.5-0.5-2.2-1.5-2.2c-0.8,0-1.4,0.4-2.2,1.2v5.9h-1.4V282.9z"/>
					<path class="st2" d="M220.3,288.5V284h-1.2v-1l1.3-0.1l0.2-2.3h1.1v2.3h2.2v1.1h-2.2v4.5c0,1,0.3,1.6,1.3,1.6
						c0.3,0,0.7-0.1,0.9-0.2l0.3,1c-0.5,0.2-1,0.3-1.5,0.3C220.9,291.2,220.3,290.1,220.3,288.5z"/>
					<path class="st2" d="M224.7,290.1l0.7-0.9c0.7,0.6,1.4,1,2.4,1c1.1,0,1.6-0.6,1.6-1.3c0-0.8-1-1.2-1.9-1.5
						c-1.1-0.4-2.4-1-2.4-2.4c0-1.3,1-2.3,2.8-2.3c1,0,1.9,0.4,2.5,0.9l-0.7,0.9c-0.6-0.4-1.1-0.7-1.9-0.7c-1,0-1.5,0.5-1.5,1.2
						c0,0.8,0.9,1.1,1.8,1.4c1.2,0.4,2.5,0.9,2.5,2.5c0,1.3-1,2.4-3,2.4C226.5,291.2,225.4,290.7,224.7,290.1z"/>
					<path class="st2" d="M239.6,280.2c-0.3-0.1-0.6-0.2-0.9-0.2c-0.8,0-1.2,0.6-1.2,1.6v1.3h1.7v1.1h-1.7v7h-1.4v-7h-1.1v-1
						l1.1-0.1v-1.3c0-1.7,0.8-2.7,2.4-2.7c0.5,0,1,0.1,1.4,0.3L239.6,280.2z"/>
					<path class="st2" d="M240,286.9c0-2.7,1.8-4.3,3.8-4.3c2,0,3.8,1.6,3.8,4.3c0,2.7-1.8,4.3-3.8,4.3
						C241.8,291.2,240,289.6,240,286.9z M246.2,286.9c0-1.9-1-3.2-2.4-3.2s-2.4,1.3-2.4,3.2s0.9,3.1,2.4,3.1
						S246.2,288.8,246.2,286.9z"/>
					<path class="st2" d="M249.7,282.9h1.1l0.1,1.5h0c0.6-1,1.4-1.7,2.3-1.7c0.4,0,0.6,0,0.9,0.2L254,284c-0.3-0.1-0.5-0.1-0.8-0.1
						c-0.7,0-1.5,0.5-2.1,1.9v5.2h-1.4V282.9z"/>
					<path class="st2" d="M260.2,290.2L260.2,290.2L260,291h-1.1v-11.9h1.4v3.3l0,1.5c0.7-0.6,1.7-1.2,2.6-1.2
						c2.1,0,3.3,1.6,3.3,4.1c0,2.8-1.7,4.4-3.5,4.4C261.8,291.2,260.9,290.8,260.2,290.2z M264.6,286.8c0-1.8-0.6-3-2.1-3
						c-0.7,0-1.4,0.4-2.2,1.1v4.3c0.7,0.6,1.5,0.9,2,0.9C263.6,290.1,264.6,288.8,264.6,286.8z"/>
					<path class="st2" d="M268.2,282.9h1.1l0.1,1.5h0c0.6-1,1.4-1.7,2.3-1.7c0.4,0,0.6,0,0.9,0.2l-0.3,1.2c-0.3-0.1-0.5-0.1-0.8-0.1
						c-0.7,0-1.5,0.5-2.1,1.9v5.2h-1.4V282.9z"/>
					<path class="st2" d="M273.1,288.9c0-1.8,1.5-2.7,5-3c0-1-0.3-2.1-1.7-2.1c-0.9,0-1.8,0.4-2.4,0.9l-0.5-0.9
						c0.8-0.5,1.9-1.1,3.2-1.1c2,0,2.8,1.3,2.8,3.3v5h-1.1l-0.1-1h0c-0.8,0.6-1.7,1.2-2.7,1.2C274.1,291.2,273.1,290.4,273.1,288.9z
						 M278.1,289v-2.3c-2.7,0.3-3.7,1-3.7,2.1c0,0.9,0.6,1.3,1.4,1.3C276.7,290.1,277.3,289.7,278.1,289z"/>
					<path class="st2" d="M281.8,280.3c0-0.6,0.4-0.9,0.9-0.9c0.5,0,0.9,0.3,0.9,0.9c0,0.5-0.4,0.9-0.9,0.9
						C282.2,281.2,281.8,280.8,281.8,280.3z M282.1,282.9h1.4v8.1h-1.4V282.9z"/>
					<path class="st2" d="M286.2,282.9h1.1l0.1,1.2h0c0.8-0.8,1.6-1.4,2.7-1.4c1.7,0,2.5,1.1,2.5,3.2v5.2h-1.4v-5
						c0-1.5-0.5-2.2-1.5-2.2c-0.8,0-1.4,0.4-2.2,1.2v5.9h-1.4V282.9z"/>
				</g>
				<g class="st1">
					<path class="st2" d="M35,315.2c-0.3-0.1-0.6-0.2-0.9-0.2c-0.8,0-1.2,0.6-1.2,1.6v1.3h1.7v1.1H33v7h-1.4v-7h-1.1v-1l1.1-0.1
						v-1.3c0-1.7,0.8-2.7,2.4-2.7c0.5,0,1,0.1,1.4,0.3L35,315.2z"/>
					<path class="st2" d="M36.1,323v-5.2h1.4v5c0,1.5,0.5,2.2,1.5,2.2c0.8,0,1.4-0.4,2.2-1.4v-5.8h1.4v8.1h-1.1l-0.1-1.3h0
						c-0.8,0.9-1.6,1.5-2.7,1.5C36.9,326.2,36.1,325.1,36.1,323z"/>
					<path class="st2" d="M45.4,317.9h1.1l0.1,1.2h0c0.8-0.8,1.6-1.4,2.7-1.4c1.7,0,2.5,1.1,2.5,3.2v5.2h-1.4v-5
						c0-1.5-0.5-2.2-1.5-2.2c-0.8,0-1.4,0.4-2.2,1.2v5.9h-1.4V317.9z"/>
					<path class="st2" d="M53.9,321.9c0-2.7,1.8-4.3,3.9-4.3c1.1,0,1.8,0.5,2.4,1l-0.7,0.9c-0.5-0.4-1-0.7-1.6-0.7
						c-1.5,0-2.5,1.3-2.5,3.2s1,3.1,2.5,3.1c0.8,0,1.4-0.3,1.9-0.8l0.6,0.9c-0.7,0.7-1.6,1-2.6,1C55.6,326.2,53.9,324.6,53.9,321.9z
						"/>
					<path class="st2" d="M62.2,323.5V319H61v-1l1.3-0.1l0.2-2.3h1.1v2.3h2.2v1.1h-2.2v4.5c0,1,0.3,1.6,1.3,1.6
						c0.3,0,0.7-0.1,0.9-0.2l0.3,1c-0.5,0.2-1,0.3-1.5,0.3C62.8,326.2,62.2,325.1,62.2,323.5z"/>
					<path class="st2" d="M67.4,315.3c0-0.6,0.4-0.9,0.9-0.9s0.9,0.3,0.9,0.9c0,0.5-0.4,0.9-0.9,0.9S67.4,315.8,67.4,315.3z
						 M67.6,317.9H69v8.1h-1.4V317.9z"/>
					<path class="st2" d="M71.2,321.9c0-2.7,1.8-4.3,3.8-4.3c2,0,3.8,1.6,3.8,4.3c0,2.7-1.8,4.3-3.8,4.3
						C72.9,326.2,71.2,324.6,71.2,321.9z M77.3,321.9c0-1.9-1-3.2-2.4-3.2c-1.4,0-2.4,1.3-2.4,3.2s0.9,3.1,2.4,3.1
						C76.3,325.1,77.3,323.8,77.3,321.9z"/>
					<path class="st2" d="M80.9,317.9H82l0.1,1.2h0c0.8-0.8,1.6-1.4,2.7-1.4c1.7,0,2.5,1.1,2.5,3.2v5.2H86v-5c0-1.5-0.5-2.2-1.5-2.2
						c-0.8,0-1.4,0.4-2.2,1.2v5.9h-1.4V317.9z"/>
					<path class="st2" d="M93.3,323v-5.2h1.4v5c0,1.5,0.4,2.2,1.5,2.2c0.8,0,1.4-0.4,2.2-1.4v-5.8h1.4v8.1h-1.1l-0.1-1.3h0
						c-0.8,0.9-1.6,1.5-2.7,1.5C94,326.2,93.3,325.1,93.3,323z"/>
					<path class="st2" d="M101.6,325.1l0.7-0.9c0.7,0.6,1.4,1,2.4,1c1.1,0,1.6-0.6,1.6-1.3c0-0.8-1-1.2-1.9-1.5
						c-1.1-0.4-2.4-1-2.4-2.4c0-1.3,1-2.3,2.8-2.3c1,0,1.9,0.4,2.5,0.9l-0.7,0.9c-0.6-0.4-1.1-0.7-1.9-0.7c-1,0-1.5,0.5-1.5,1.2
						c0,0.8,0.9,1.1,1.8,1.4c1.2,0.4,2.5,0.9,2.5,2.5c0,1.3-1,2.4-3,2.4C103.5,326.2,102.4,325.7,101.6,325.1z"/>
					<path class="st2" d="M109.3,315.3c0-0.6,0.4-0.9,0.9-0.9s0.9,0.3,0.9,0.9c0,0.5-0.4,0.9-0.9,0.9S109.3,315.8,109.3,315.3z
						 M109.5,317.9h1.4v8.1h-1.4V317.9z"/>
					<path class="st2" d="M113.6,317.9h1.1l0.1,1.2h0c0.8-0.8,1.6-1.4,2.7-1.4c1.7,0,2.5,1.1,2.5,3.2v5.2h-1.4v-5
						c0-1.5-0.5-2.2-1.5-2.2c-0.8,0-1.4,0.4-2.2,1.2v5.9h-1.4V317.9z"/>
					<path class="st2" d="M122.2,327.6c0-0.7,0.5-1.3,1.2-1.8v-0.1c-0.4-0.3-0.8-0.7-0.8-1.3c0-0.7,0.5-1.2,0.9-1.5v-0.1
						c-0.5-0.4-1.1-1.2-1.1-2.2c0-1.8,1.4-2.9,3.1-2.9c0.4,0,0.9,0.1,1.1,0.2h2.8v1h-1.7c0.4,0.4,0.7,1,0.7,1.7c0,1.7-1.3,2.8-3,2.8
						c-0.4,0-0.9-0.1-1.2-0.3c-0.3,0.3-0.5,0.5-0.5,1c0,0.5,0.3,0.9,1.4,0.9h1.6c1.9,0,2.8,0.6,2.8,1.9c0,1.5-1.6,2.8-4.1,2.8
						C123.6,329.8,122.2,329,122.2,327.6z M128.3,327.1c0-0.8-0.6-1-1.7-1h-1.4c-0.3,0-0.7,0-1-0.1c-0.6,0.4-0.8,0.9-0.8,1.4
						c0,0.9,0.9,1.4,2.4,1.4C127.3,328.8,128.3,328,128.3,327.1z M127.3,320.6c0-1.2-0.8-1.9-1.7-1.9s-1.7,0.7-1.7,1.9
						c0,1.2,0.8,1.9,1.7,1.9C126.5,322.5,127.3,321.7,127.3,320.6z"/>
					<path class="st2" d="M134.6,317.9h1.1l0.1,1.2h0c0.7-0.8,1.6-1.4,2.5-1.4c1.2,0,1.9,0.6,2.2,1.6c0.8-0.9,1.7-1.6,2.7-1.6
						c1.7,0,2.5,1.1,2.5,3.2v5.2h-1.4v-5c0-1.5-0.5-2.2-1.5-2.2c-0.6,0-1.3,0.4-2.1,1.2v5.9h-1.4v-5c0-1.5-0.5-2.2-1.5-2.2
						c-0.6,0-1.3,0.4-2.1,1.2v5.9h-1.4V317.9z"/>
					<path class="st2" d="M148.2,315.3c0-0.6,0.4-0.9,0.9-0.9s0.9,0.3,0.9,0.9c0,0.5-0.4,0.9-0.9,0.9S148.2,315.8,148.2,315.3z
						 M148.5,317.9h1.4v8.1h-1.4V317.9z"/>
					<path class="st2" d="M152,321.9c0-2.7,1.8-4.3,3.9-4.3c1.1,0,1.8,0.5,2.4,1l-0.7,0.9c-0.5-0.4-1-0.7-1.6-0.7
						c-1.5,0-2.5,1.3-2.5,3.2s1,3.1,2.5,3.1c0.8,0,1.4-0.3,1.9-0.8l0.6,0.9c-0.7,0.7-1.6,1-2.6,1C153.7,326.2,152,324.6,152,321.9z"
						/>
					<path class="st2" d="M160.3,317.9h1.1l0.1,1.5h0c0.6-1,1.4-1.7,2.3-1.7c0.4,0,0.6,0,0.9,0.2l-0.3,1.2c-0.3-0.1-0.5-0.1-0.8-0.1
						c-0.7,0-1.5,0.5-2.1,1.9v5.2h-1.4V317.9z"/>
					<path class="st2" d="M165.3,321.9c0-2.7,1.8-4.3,3.8-4.3c2,0,3.8,1.6,3.8,4.3c0,2.7-1.8,4.3-3.8,4.3
						C167.1,326.2,165.3,324.6,165.3,321.9z M171.4,321.9c0-1.9-1-3.2-2.4-3.2s-2.4,1.3-2.4,3.2s0.9,3.1,2.4,3.1
						S171.4,323.8,171.4,321.9z"/>
					<path class="st2" d="M176.3,325.2L176.3,325.2l-0.2,0.8H175v-11.9h1.4v3.3l0,1.5c0.7-0.6,1.7-1.2,2.6-1.2
						c2.1,0,3.3,1.6,3.3,4.1c0,2.8-1.7,4.4-3.5,4.4C177.8,326.2,177,325.8,176.3,325.2z M180.7,321.8c0-1.8-0.6-3-2.1-3
						c-0.7,0-1.4,0.4-2.2,1.1v4.3c0.7,0.6,1.5,0.9,2,0.9C179.7,325.1,180.7,323.8,180.7,321.8z"/>
					<path class="st2" d="M184,315.3c0-0.6,0.4-0.9,0.9-0.9s0.9,0.3,0.9,0.9c0,0.5-0.4,0.9-0.9,0.9S184,315.8,184,315.3z
						 M184.3,317.9h1.4v8.1h-1.4V317.9z"/>
					<path class="st2" d="M187.8,321.9c0-2.7,1.8-4.3,3.8-4.3c2,0,3.8,1.6,3.8,4.3c0,2.7-1.8,4.3-3.8,4.3
						C189.6,326.2,187.8,324.6,187.8,321.9z M193.9,321.9c0-1.9-1-3.2-2.4-3.2s-2.4,1.3-2.4,3.2s0.9,3.1,2.4,3.1
						S193.9,323.8,193.9,321.9z"/>
					<path class="st2" d="M197.5,317.9h1.1l0.1,1.2h0c0.7-0.8,1.6-1.4,2.5-1.4c1.2,0,1.9,0.6,2.2,1.6c0.8-0.9,1.7-1.6,2.7-1.6
						c1.7,0,2.5,1.1,2.5,3.2v5.2h-1.4v-5c0-1.5-0.5-2.2-1.5-2.2c-0.6,0-1.3,0.4-2.1,1.2v5.9h-1.4v-5c0-1.5-0.5-2.2-1.5-2.2
						c-0.6,0-1.3,0.4-2.1,1.2v5.9h-1.4V317.9z"/>
					<path class="st2" d="M210.8,321.9c0-2.6,1.8-4.3,3.7-4.3c2.1,0,3.2,1.5,3.2,3.8c0,0.3,0,0.6-0.1,0.8h-5.5
						c0.1,1.7,1.2,2.8,2.7,2.8c0.8,0,1.4-0.2,2-0.6l0.5,0.9c-0.7,0.5-1.6,0.8-2.7,0.8C212.5,326.2,210.8,324.6,210.8,321.9z
						 M216.5,321.3c0-1.7-0.8-2.5-2-2.5c-1.2,0-2.2,0.9-2.3,2.5H216.5z"/>
				</g>
			</g>
			
				<g id="arrow" transform="translate(167.500000, 449.500000) rotate(-270.000000) translate(-167.500000, -449.500000) translate(117.000000, 439.500000)">
				<path id="Line" class="st6" d="M0.5,10h100"/>
				<polyline id="Stroke-1" class="st7" points="90,0 101,10 90,20 				"/>
				<polyline class="st7" points="11,20 0,10 11,0 				"/>
			</g>
			<g id="box3" transform="translate(0.000000, 519.500000)">
				<path class="st8" d="M9,1h316c4.4,0,8,3.6,8,8v132c0,4.4-3.6,8-8,8H9c-4.4,0-8-3.6-8-8V9C1,4.6,4.6,1,9,1z"/>
				<g class="st1">
					<path class="st9" d="M20.6,53.5c0-3.6,2.2-5.8,5.1-5.8c1.6,0,2.6,0.7,3.3,1.4l-0.9,1.1c-0.5-0.6-1.2-1-2.3-1
						c-2.1,0-3.4,1.6-3.4,4.2c0,2.6,1.2,4.2,3.5,4.2c0.7,0,1.4-0.2,1.7-0.5v-2.6h-2.2v-1.4h3.8v4.8c-0.7,0.7-2,1.3-3.5,1.3
						C22.7,59.2,20.6,57.1,20.6,53.5z"/>
					<path class="st9" d="M31.5,57.1V47h1.7v10.1c0,0.5,0.2,0.6,0.4,0.6c0.1,0,0.1,0,0.3,0l0.2,1.3c-0.2,0.1-0.5,0.1-0.9,0.1
						C32,59.2,31.5,58.4,31.5,57.1z"/>
					<path class="st9" d="M35.4,54.9c0-2.8,1.8-4.4,3.9-4.4s3.9,1.6,3.9,4.4c0,2.7-1.8,4.3-3.9,4.3S35.4,57.6,35.4,54.9z M41.4,54.9
						c0-1.8-0.8-2.9-2.1-2.9c-1.3,0-2.1,1.2-2.1,2.9c0,1.7,0.8,2.9,2.1,2.9C40.6,57.8,41.4,56.6,41.4,54.9z"/>
					<path class="st9" d="M46.8,58.1L46.8,58.1L46.6,59h-1.3V47h1.7v3.2l0,1.4c0.7-0.6,1.6-1.1,2.5-1.1c2.1,0,3.3,1.7,3.3,4.2
						c0,2.8-1.7,4.5-3.6,4.5C48.3,59.2,47.5,58.8,46.8,58.1z M50.8,54.8c0-1.7-0.6-2.8-1.9-2.8c-0.6,0-1.3,0.3-2,1v4
						c0.6,0.6,1.3,0.8,1.8,0.8C49.9,57.8,50.8,56.7,50.8,54.8z"/>
					<path class="st9" d="M54,56.8c0-1.8,1.5-2.7,4.9-3.1c0-1-0.4-1.8-1.6-1.8c-0.9,0-1.7,0.4-2.4,0.8l-0.6-1.2
						c0.9-0.5,2-1.1,3.3-1.1c2.1,0,3,1.3,3,3.5v5h-1.4L59,58.1h0c-0.8,0.6-1.6,1.1-2.6,1.1C55,59.2,54,58.3,54,56.8z M58.9,56.9v-2
						c-2.4,0.3-3.3,0.9-3.3,1.8c0,0.8,0.6,1.1,1.3,1.1C57.6,57.8,58.2,57.5,58.9,56.9z"/>
					<path class="st9" d="M63.1,57.1V47h1.7v10.1c0,0.5,0.2,0.6,0.4,0.6c0.1,0,0.1,0,0.3,0l0.2,1.3c-0.2,0.1-0.5,0.1-0.9,0.1
						C63.5,59.2,63.1,58.4,63.1,57.1z"/>
					<path class="st9" d="M70.6,47h1.2l-4.2,14.7h-1.2L70.6,47z"/>
					<path class="st9" d="M73.5,48h1.7v5.2h0l4.2-5.2h1.9L78,52.2l4,6.8h-1.9L77,53.6l-1.7,2.1V59h-1.7V48z"/>
					<path class="st9" d="M82.6,54.9c0-2.8,1.8-4.4,3.9-4.4s3.9,1.6,3.9,4.4c0,2.7-1.8,4.3-3.9,4.3S82.6,57.6,82.6,54.9z M88.6,54.9
						c0-1.8-0.8-2.9-2.1-2.9c-1.3,0-2.1,1.2-2.1,2.9c0,1.7,0.8,2.9,2.1,2.9C87.8,57.8,88.6,56.6,88.6,54.9z"/>
					<path class="st9" d="M92.4,50.8h1.4l0.1,1.5h0c0.6-1.1,1.5-1.7,2.3-1.7c0.4,0,0.7,0.1,0.9,0.2l-0.3,1.5
						c-0.3-0.1-0.5-0.1-0.8-0.1c-0.7,0-1.5,0.5-2,1.8V59h-1.7V50.8z"/>
					<path class="st9" d="M97.7,54.9c0-2.7,1.8-4.4,3.8-4.4c2.2,0,3.4,1.6,3.4,3.9c0,0.3,0,0.7-0.1,0.9h-5.4
						c0.1,1.6,1.1,2.5,2.5,2.5c0.7,0,1.4-0.2,2-0.6l0.6,1.1c-0.8,0.5-1.7,0.9-2.8,0.9C99.5,59.2,97.7,57.6,97.7,54.9z M103.4,54.1
						c0-1.4-0.6-2.2-1.8-2.2c-1,0-1.9,0.8-2.1,2.2H103.4z"/>
					<path class="st9" d="M106.1,56.8c0-1.8,1.5-2.7,4.9-3.1c0-1-0.4-1.8-1.6-1.8c-0.9,0-1.7,0.4-2.4,0.8l-0.6-1.2
						c0.9-0.5,2-1.1,3.3-1.1c2.1,0,3,1.3,3,3.5v5h-1.4l-0.2-0.9h0c-0.8,0.6-1.6,1.1-2.6,1.1C107.1,59.2,106.1,58.3,106.1,56.8z
						 M111,56.9v-2c-2.4,0.3-3.3,0.9-3.3,1.8c0,0.8,0.6,1.1,1.3,1.1C109.8,57.8,110.4,57.5,111,56.9z"/>
					<path class="st9" d="M115.2,50.8h1.4l0.1,1.1h0c0.8-0.7,1.6-1.4,2.7-1.4c1.8,0,2.5,1.2,2.5,3.3V59h-1.7v-5c0-1.4-0.4-2-1.4-2
						c-0.8,0-1.3,0.4-2,1.1V59h-1.7V50.8z"/>
					<path class="st9" d="M127.9,50.8h1.4l0.1,1.2h0c0.7-0.8,1.5-1.4,2.5-1.4c1.2,0,1.9,0.6,2.3,1.5c0.8-0.9,1.7-1.5,2.7-1.5
						c1.7,0,2.5,1.2,2.5,3.3V59h-1.7v-5c0-1.4-0.5-2-1.4-2c-0.6,0-1.2,0.4-1.9,1.1V59h-1.7v-5c0-1.4-0.4-2-1.4-2
						c-0.6,0-1.2,0.4-1.9,1.1V59h-1.7V50.8z"/>
					<path class="st9" d="M141.6,56.8c0-1.8,1.5-2.7,4.9-3.1c0-1-0.4-1.8-1.6-1.8c-0.9,0-1.7,0.4-2.4,0.8l-0.6-1.2
						c0.9-0.5,2-1.1,3.3-1.1c2.1,0,3,1.3,3,3.5v5h-1.4l-0.2-0.9h0c-0.8,0.6-1.6,1.1-2.6,1.1C142.6,59.2,141.6,58.3,141.6,56.8z
						 M146.5,56.9v-2c-2.4,0.3-3.3,0.9-3.3,1.8c0,0.8,0.6,1.1,1.3,1.1C145.3,57.8,145.9,57.5,146.5,56.9z"/>
					<path class="st9" d="M150.7,50.8h1.4l0.1,1.5h0c0.6-1.1,1.5-1.7,2.3-1.7c0.4,0,0.7,0.1,0.9,0.2l-0.3,1.5
						c-0.3-0.1-0.5-0.1-0.8-0.1c-0.7,0-1.5,0.5-2,1.8V59h-1.7V50.8z"/>
					<path class="st9" d="M156.8,47h1.7v7.7h0l3.2-4h1.9l-2.8,3.3L164,59h-1.9l-2.2-3.7l-1.4,1.6V59h-1.7V47z"/>
					<path class="st9" d="M164.5,54.9c0-2.7,1.8-4.4,3.8-4.4c2.2,0,3.4,1.6,3.4,3.9c0,0.3,0,0.7-0.1,0.9h-5.4
						c0.1,1.6,1.1,2.5,2.5,2.5c0.7,0,1.4-0.2,2-0.6l0.6,1.1c-0.8,0.5-1.7,0.9-2.8,0.9C166.3,59.2,164.5,57.6,164.5,54.9z
						 M170.2,54.1c0-1.4-0.6-2.2-1.8-2.2c-1,0-1.9,0.8-2.1,2.2H170.2z"/>
					<path class="st9" d="M173.7,56.3v-4.2h-1.2v-1.3l1.3-0.1l0.2-2.3h1.5v2.3h2.1v1.4h-2.1v4.2c0,1,0.3,1.5,1.2,1.5
						c0.3,0,0.6-0.1,0.9-0.2l0.3,1.3c-0.5,0.2-1,0.3-1.6,0.3C174.3,59.2,173.7,58,173.7,56.3z"/>
					<path class="st9" d="M182.7,57.1V47h1.7v10.1c0,0.5,0.2,0.6,0.4,0.6c0.1,0,0.1,0,0.3,0l0.2,1.3c-0.2,0.1-0.5,0.1-0.9,0.1
						C183.2,59.2,182.7,58.4,182.7,57.1z"/>
					<path class="st9" d="M186.7,56.8c0-1.8,1.5-2.7,4.9-3.1c0-1-0.4-1.8-1.6-1.8c-0.9,0-1.7,0.4-2.4,0.8l-0.6-1.2
						c0.9-0.5,2-1.1,3.3-1.1c2.1,0,3,1.3,3,3.5v5H192l-0.1-0.9h0c-0.8,0.6-1.6,1.1-2.6,1.1C187.7,59.2,186.7,58.3,186.7,56.8z
						 M191.6,56.9v-2c-2.4,0.3-3.3,0.9-3.3,1.8c0,0.8,0.6,1.1,1.3,1.1C190.4,57.8,191,57.5,191.6,56.9z"/>
					<path class="st9" d="M195.7,55.9v-5.2h1.7v5c0,1.4,0.4,2,1.4,2c0.8,0,1.3-0.4,2-1.2v-5.7h1.7V59h-1.4l-0.1-1.2h0
						c-0.8,0.9-1.6,1.4-2.7,1.4C196.5,59.2,195.7,58,195.7,55.9z"/>
					<path class="st9" d="M205.1,50.8h1.4l0.1,1.1h0c0.8-0.7,1.6-1.4,2.7-1.4c1.8,0,2.5,1.2,2.5,3.3V59h-1.7v-5c0-1.4-0.4-2-1.4-2
						c-0.8,0-1.3,0.4-2,1.1V59h-1.7V50.8z"/>
					<path class="st9" d="M213.9,54.9c0-2.8,1.9-4.4,4.1-4.4c1,0,1.8,0.4,2.4,0.9l-0.9,1.1c-0.5-0.4-0.9-0.6-1.5-0.6
						c-1.4,0-2.4,1.2-2.4,2.9c0,1.7,0.9,2.9,2.3,2.9c0.7,0,1.3-0.3,1.8-0.8l0.7,1.1c-0.7,0.7-1.7,1-2.7,1
						C215.6,59.2,213.9,57.6,213.9,54.9z"/>
					<path class="st9" d="M222.2,47h1.7v3.2l-0.1,1.6c0.7-0.7,1.5-1.3,2.7-1.3c1.8,0,2.5,1.2,2.5,3.3V59h-1.7v-5c0-1.4-0.4-2-1.4-2
						c-0.8,0-1.3,0.4-2,1.1V59h-1.7V47z"/>
					<path class="st9" d="M234.3,54.9c0-2.8,1.8-4.4,3.9-4.4s3.9,1.6,3.9,4.4c0,2.7-1.8,4.3-3.9,4.3S234.3,57.6,234.3,54.9z
						 M240.3,54.9c0-1.8-0.8-2.9-2.1-2.9c-1.3,0-2.1,1.2-2.1,2.9c0,1.7,0.8,2.9,2.1,2.9C239.5,57.8,240.3,56.6,240.3,54.9z"/>
					<path class="st9" d="M248.1,48.4c-0.3-0.1-0.6-0.2-0.9-0.2c-0.7,0-1.1,0.5-1.1,1.5v1h1.7v1.4h-1.7V59h-1.7v-6.9h-1.1v-1.3
						l1.1-0.1v-1c0-1.7,0.8-2.9,2.6-2.9c0.6,0,1.1,0.1,1.5,0.3L248.1,48.4z"/>
					<path class="st9" d="M252.6,50.8h1.4l0.1,0.9h0c0.7-0.6,1.6-1.1,2.5-1.1c2.1,0,3.3,1.7,3.3,4.2c0,2.8-1.7,4.5-3.6,4.5
						c-0.7,0-1.5-0.3-2.2-0.9l0,1.4v2.7h-1.7V50.8z M258.2,54.8c0-1.7-0.6-2.8-1.9-2.8c-0.6,0-1.3,0.3-2,1v4
						c0.6,0.6,1.3,0.8,1.8,0.8C257.3,57.8,258.2,56.7,258.2,54.8z"/>
					<path class="st9" d="M262.1,50.8h1.4l0.1,1.5h0c0.6-1.1,1.5-1.7,2.3-1.7c0.4,0,0.7,0.1,0.9,0.2l-0.3,1.5
						c-0.3-0.1-0.5-0.1-0.8-0.1c-0.7,0-1.5,0.5-2,1.8V59h-1.7V50.8z"/>
					<path class="st9" d="M267.5,54.9c0-2.8,1.8-4.4,3.9-4.4s3.9,1.6,3.9,4.4c0,2.7-1.8,4.3-3.9,4.3S267.5,57.6,267.5,54.9z
						 M273.5,54.9c0-1.8-0.8-2.9-2.1-2.9c-1.3,0-2.1,1.2-2.1,2.9c0,1.7,0.8,2.9,2.1,2.9C272.7,57.8,273.5,56.6,273.5,54.9z"/>
					<path class="st9" d="M276.7,54.9c0-2.7,1.7-4.4,3.5-4.4c0.9,0,1.5,0.4,2.2,0.9l-0.1-1.4V47h1.7v12h-1.4l-0.1-0.9h0
						c-0.6,0.6-1.5,1.1-2.4,1.1C278,59.2,276.7,57.6,276.7,54.9z M282.4,56.8v-4c-0.6-0.6-1.2-0.8-1.8-0.8c-1.2,0-2.1,1.1-2.1,2.9
						c0,1.9,0.7,2.9,2,2.9C281.2,57.8,281.8,57.5,282.4,56.8z"/>
					<path class="st9" d="M286.6,55.9v-5.2h1.7v5c0,1.4,0.4,2,1.4,2c0.8,0,1.3-0.4,2-1.2v-5.7h1.7V59H292l-0.1-1.2h0
						c-0.8,0.9-1.6,1.4-2.7,1.4C287.4,59.2,286.6,58,286.6,55.9z"/>
					<path class="st9" d="M295.4,54.9c0-2.8,1.9-4.4,4.1-4.4c1,0,1.8,0.4,2.4,0.9l-0.9,1.1c-0.5-0.4-0.9-0.6-1.5-0.6
						c-1.4,0-2.4,1.2-2.4,2.9c0,1.7,0.9,2.9,2.3,2.9c0.7,0,1.3-0.3,1.8-0.8l0.7,1.1c-0.7,0.7-1.7,1-2.7,1
						C297.1,59.2,295.4,57.6,295.4,54.9z"/>
					<path class="st9" d="M303.9,56.3v-4.2h-1.2v-1.3l1.3-0.1l0.2-2.3h1.5v2.3h2.1v1.4h-2.1v4.2c0,1,0.3,1.5,1.2,1.5
						c0.3,0,0.6-0.1,0.9-0.2l0.3,1.3c-0.5,0.2-1,0.3-1.6,0.3C304.5,59.2,303.9,58,303.9,56.3z"/>
					<path class="st9" d="M308.5,58.1l0.8-1.1c0.7,0.6,1.5,0.9,2.3,0.9c1,0,1.5-0.5,1.5-1.1c0-0.8-0.9-1.1-1.8-1.4
						c-1.1-0.4-2.4-1-2.4-2.4c0-1.4,1.1-2.4,2.9-2.4c1.1,0,2,0.5,2.7,1l-0.8,1.1c-0.6-0.4-1.2-0.7-1.8-0.7c-0.9,0-1.3,0.5-1.3,1
						c0,0.7,0.9,1,1.8,1.3c1.2,0.4,2.4,0.9,2.4,2.5c0,1.4-1.1,2.5-3.1,2.5C310.5,59.2,309.3,58.7,308.5,58.1z"/>
				</g>
				<text transform="matrix(1 0 0 1 315.2778 52)" class="st9 st10 st4"> </text>
				<g class="st1">
					<path class="st9" d="M80.9,90.8h1.7l1.1,4.5c0.2,0.8,0.3,1.6,0.5,2.3h0.1c0.2-0.8,0.3-1.6,0.5-2.3l1.2-4.5h1.6l1.2,4.5
						c0.2,0.8,0.4,1.6,0.6,2.3h0.1c0.2-0.8,0.3-1.5,0.5-2.3l1.1-4.5h1.6L90.4,99h-2.1l-1-4.1c-0.2-0.8-0.3-1.5-0.5-2.4h-0.1
						c-0.2,0.9-0.3,1.6-0.5,2.4l-1,4.1h-2L80.9,90.8z"/>
					<path class="st9" d="M94,88.2c0-0.6,0.5-1,1.1-1c0.6,0,1.1,0.4,1.1,1c0,0.6-0.5,1-1.1,1C94.4,89.2,94,88.8,94,88.2z M94.2,90.8
						h1.7V99h-1.7V90.8z"/>
					<path class="st9" d="M98.8,96.3v-4.2h-1.2v-1.3l1.3-0.1l0.2-2.3h1.5v2.3h2.1v1.4h-2.1v4.2c0,1,0.3,1.5,1.2,1.5
						c0.3,0,0.6-0.1,0.9-0.2l0.3,1.3c-0.5,0.2-1,0.3-1.6,0.3C99.4,99.2,98.8,98,98.8,96.3z"/>
					<path class="st9" d="M104.5,87h1.7v3.2l-0.1,1.6c0.7-0.7,1.5-1.3,2.7-1.3c1.8,0,2.5,1.2,2.5,3.3V99h-1.7v-5c0-1.4-0.4-2-1.4-2
						c-0.8,0-1.3,0.4-2,1.1V99h-1.7V87z"/>
					<path class="st9" d="M117.2,90.8h1.4l0.1,1.1h0c0.8-0.7,1.6-1.4,2.7-1.4c1.8,0,2.5,1.2,2.5,3.3V99h-1.7v-5c0-1.4-0.4-2-1.4-2
						c-0.8,0-1.3,0.4-2,1.1V99h-1.7V90.8z"/>
					<path class="st9" d="M125.9,94.9c0-2.8,1.8-4.4,3.9-4.4c2,0,3.9,1.6,3.9,4.4c0,2.7-1.8,4.3-3.9,4.3
						C127.8,99.2,125.9,97.6,125.9,94.9z M131.9,94.9c0-1.8-0.8-2.9-2.1-2.9c-1.3,0-2.1,1.2-2.1,2.9c0,1.7,0.8,2.9,2.1,2.9
						C131.1,97.8,131.9,96.6,131.9,94.9z"/>
					<path class="st9" d="M134.5,90.8h1.8l1.4,4.4c0.2,0.8,0.5,1.6,0.7,2.5h0.1c0.2-0.8,0.5-1.7,0.7-2.5l1.4-4.4h1.7l-2.9,8.2h-2
						L134.5,90.8z"/>
					<path class="st9" d="M143.1,94.9c0-2.7,1.8-4.4,3.8-4.4c2.2,0,3.4,1.6,3.4,3.9c0,0.3,0,0.7-0.1,0.9h-5.4
						c0.1,1.6,1.1,2.5,2.5,2.5c0.7,0,1.4-0.2,2-0.6l0.6,1.1c-0.8,0.5-1.7,0.9-2.8,0.9C144.9,99.2,143.1,97.6,143.1,94.9z
						 M148.8,94.1c0-1.4-0.6-2.2-1.8-2.2c-1,0-1.9,0.8-2.1,2.2H148.8z"/>
					<path class="st9" d="M152.2,97.1V87h1.7v10.1c0,0.5,0.2,0.6,0.4,0.6c0.1,0,0.1,0,0.3,0l0.2,1.3c-0.2,0.1-0.5,0.1-0.9,0.1
						C152.7,99.2,152.2,98.4,152.2,97.1z"/>
					<path class="st9" d="M160,87h1.7v3.2l-0.1,1.6c0.7-0.7,1.5-1.3,2.7-1.3c1.8,0,2.5,1.2,2.5,3.3V99h-1.7v-5c0-1.4-0.4-2-1.4-2
						c-0.8,0-1.3,0.4-2,1.1V99H160V87z"/>
					<path class="st9" d="M168.8,94.9c0-2.7,1.8-4.4,3.8-4.4c2.2,0,3.4,1.6,3.4,3.9c0,0.3,0,0.7-0.1,0.9h-5.4
						c0.1,1.6,1.1,2.5,2.5,2.5c0.7,0,1.4-0.2,2-0.6l0.6,1.1c-0.8,0.5-1.7,0.9-2.8,0.9C170.6,99.2,168.8,97.6,168.8,94.9z
						 M174.4,94.1c0-1.4-0.6-2.2-1.8-2.2c-1,0-1.9,0.8-2.1,2.2H174.4z"/>
					<path class="st9" d="M177.1,96.8c0-1.8,1.5-2.7,4.9-3.1c0-1-0.4-1.8-1.6-1.8c-0.9,0-1.7,0.4-2.4,0.8l-0.6-1.2
						c0.9-0.5,2-1.1,3.3-1.1c2.1,0,3,1.3,3,3.5v5h-1.4l-0.1-0.9h0c-0.8,0.6-1.6,1.1-2.6,1.1C178.1,99.2,177.1,98.3,177.1,96.8z
						 M182.1,96.9v-2c-2.4,0.3-3.3,0.9-3.3,1.8c0,0.8,0.6,1.1,1.3,1.1C180.8,97.8,181.4,97.5,182.1,96.9z"/>
					<path class="st9" d="M186.2,97.1V87h1.7v10.1c0,0.5,0.2,0.6,0.4,0.6c0.1,0,0.1,0,0.3,0l0.2,1.3c-0.2,0.1-0.5,0.1-0.9,0.1
						C186.7,99.2,186.2,98.4,186.2,97.1z"/>
					<path class="st9" d="M191,96.3v-4.2h-1.2v-1.3l1.3-0.1l0.2-2.3h1.5v2.3h2.1v1.4h-2.1v4.2c0,1,0.3,1.5,1.2,1.5
						c0.3,0,0.6-0.1,0.9-0.2l0.3,1.3c-0.5,0.2-1,0.3-1.6,0.3C191.6,99.2,191,98,191,96.3z"/>
					<path class="st9" d="M196.6,87h1.7v3.2l-0.1,1.6c0.7-0.7,1.5-1.3,2.7-1.3c1.8,0,2.5,1.2,2.5,3.3V99h-1.7v-5c0-1.4-0.4-2-1.4-2
						c-0.8,0-1.3,0.4-2,1.1V99h-1.7V87z"/>
					<path class="st9" d="M208.7,94.9c0-2.8,1.9-4.4,4.1-4.4c1,0,1.8,0.4,2.4,0.9l-0.9,1.1c-0.5-0.4-0.9-0.6-1.5-0.6
						c-1.4,0-2.4,1.2-2.4,2.9c0,1.7,0.9,2.9,2.3,2.9c0.7,0,1.3-0.3,1.8-0.8l0.7,1.1c-0.7,0.7-1.7,1-2.7,1
						C210.5,99.2,208.7,97.6,208.7,94.9z"/>
					<path class="st9" d="M217.1,97.1V87h1.7v10.1c0,0.5,0.2,0.6,0.4,0.6c0.1,0,0.1,0,0.3,0l0.2,1.3c-0.2,0.1-0.5,0.1-0.9,0.1
						C217.5,99.2,217.1,98.4,217.1,97.1z"/>
					<path class="st9" d="M221.1,96.8c0-1.8,1.5-2.7,4.9-3.1c0-1-0.4-1.8-1.6-1.8c-0.9,0-1.7,0.4-2.4,0.8l-0.6-1.2
						c0.9-0.5,2-1.1,3.3-1.1c2.1,0,3,1.3,3,3.5v5h-1.4l-0.1-0.9h0c-0.8,0.6-1.6,1.1-2.6,1.1C222.1,99.2,221.1,98.3,221.1,96.8z
						 M226,96.9v-2c-2.4,0.3-3.3,0.9-3.3,1.8c0,0.8,0.6,1.1,1.3,1.1C224.7,97.8,225.3,97.5,226,96.9z"/>
					<path class="st9" d="M229.9,88.2c0-0.6,0.5-1,1.1-1c0.6,0,1.1,0.4,1.1,1c0,0.6-0.5,1-1.1,1C230.4,89.2,229.9,88.8,229.9,88.2z
						 M230.2,90.8h1.7V99h-1.7V90.8z"/>
					<path class="st9" d="M234.5,90.8h1.4l0.1,1.2h0c0.7-0.8,1.5-1.4,2.5-1.4c1.2,0,1.9,0.6,2.3,1.5c0.8-0.9,1.6-1.5,2.7-1.5
						c1.7,0,2.5,1.2,2.5,3.3V99h-1.7v-5c0-1.4-0.5-2-1.4-2c-0.6,0-1.2,0.4-1.9,1.1V99h-1.7v-5c0-1.4-0.4-2-1.4-2
						c-0.6,0-1.2,0.4-1.9,1.1V99h-1.7V90.8z"/>
					<path class="st9" d="M247.7,98.1l0.8-1.1c0.7,0.6,1.5,0.9,2.3,0.9c1,0,1.5-0.5,1.5-1.1c0-0.8-0.9-1.1-1.8-1.4
						c-1.1-0.4-2.4-1-2.4-2.4c0-1.4,1.1-2.4,2.9-2.4c1.1,0,2,0.5,2.7,1l-0.8,1.1c-0.6-0.4-1.2-0.7-1.8-0.7c-0.9,0-1.3,0.5-1.3,1
						c0,0.7,0.9,1,1.8,1.3c1.2,0.4,2.4,0.9,2.4,2.5c0,1.4-1.1,2.5-3.1,2.5C249.7,99.2,248.5,98.7,247.7,98.1z"/>
				</g>
			</g>
		</g>
	</g>
</g>
</svg>
