<?xml version="1.0" encoding="utf-8"?>
<!-- Generator: Adobe Illustrator 23.0.1, SVG Export Plug-In . SVG Version: 6.00 Build 0)  -->
<svg version="1.1" id="Layer_1" xmlns="http://www.w3.org/2000/svg" xmlns:xlink="http://www.w3.org/1999/xlink" x="0px" y="0px"
	 viewBox="0 0 1000 533" style="enable-background:new 0 0 1000 533;" xml:space="preserve">
<style type="text/css">
	.st0{fill-rule:evenodd;clip-rule:evenodd;fill:#24A18A;fill-opacity:0.8;stroke:#158B76;stroke-width:2;}
	.st1{enable-background:new    ;}
	.st2{fill:#FFFFFF;}
	.st3{font-family:'NotoSansKR-Bold-KSCpc-EUC-H';}
	.st4{font-size:22px;}
	.st5{font-family:'NotoSansKR-Regular-KSCpc-EUC-H';}
	.st6{font-size:18px;}
	.st7{fill:none;stroke:#0E0E0E;stroke-width:2;stroke-linecap:square;}
	.st8{fill:none;stroke:#0E0E0E;stroke-width:2;stroke-linecap:round;stroke-linejoin:round;}
	.st9{fill:none;stroke:#B54142;stroke-width:2;}
	.st10{fill:#333333;}
	.st11{font-family:'NotoSansKR-Medium-KSCpc-EUC-H';}
	.st12{font-size:20px;}
</style>
<title>table</title>
<desc>Created with Sketch.</desc>
<g id="Page-1">
	<g transform="translate(-220.000000, -520.000000)">
		<g id="third" transform="translate(190.000000, 420.000000)">
			<g id="table" transform="translate(30.000000, 100.000000)">
				<g id="box1">
					<path id="bg" class="st0" d="M9,1h982c4.4,0,8,3.6,8,8v235c0,4.4-3.6,8-8,8H9c-4.4,0-8-3.6-8-8V9C1,4.6,4.6,1,9,1z"/>
					<g class="st1">
						<path class="st2" d="M263,41.7h10v2.7h-6.7v3.8h5.7v2.7h-5.7v4.4h7V58H263V41.7z"/>
						<path class="st2" d="M275.2,51.9c0-4.1,2.9-6.5,6.3-6.5c1.5,0,2.7,0.6,3.6,1.4l-1.5,2.1c-0.6-0.5-1.2-0.8-1.9-0.8
							c-1.9,0-3.1,1.5-3.1,3.9c0,2.3,1.3,3.8,3.1,3.8c0.9,0,1.7-0.4,2.4-1l1.3,2.1c-1.2,1-2.7,1.5-4,1.5
							C277.8,58.3,275.2,55.9,275.2,51.9z"/>
						<path class="st2" d="M286.2,51.9c0-4.1,2.8-6.5,5.9-6.5c3.1,0,5.9,2.4,5.9,6.5c0,4.1-2.8,6.4-5.9,6.4
							C289,58.3,286.2,55.9,286.2,51.9z M294.7,51.9c0-2.3-0.9-3.9-2.6-3.9c-1.7,0-2.6,1.5-2.6,3.9c0,2.3,0.9,3.8,2.6,3.8
							C293.8,55.7,294.7,54.2,294.7,51.9z"/>
						<path class="st2" d="M300.1,50.5h6v2.3h-6V50.5z"/>
						<path class="st2" d="M315.5,43c-0.4-0.2-0.9-0.3-1.3-0.3c-1,0-1.5,0.6-1.5,1.9v1.1h2.3v2.6h-2.3V58h-3.2v-9.8h-1.7v-2.4
							l1.7-0.1v-1c0-2.6,1.2-4.6,4.3-4.6c0.9,0,1.8,0.2,2.3,0.4L315.5,43z"/>
						<path class="st2" d="M317.1,45.7h2.6l0.2,2.2h0.1c0.9-1.6,2.2-2.5,3.5-2.5c0.7,0,1.1,0.1,1.5,0.3l-0.6,2.8
							c-0.4-0.1-0.8-0.2-1.3-0.2c-1,0-2.1,0.6-2.8,2.4V58h-3.2V45.7z"/>
						<path class="st2" d="M326.4,41.9c0-1.1,0.8-1.8,1.9-1.8c1.1,0,1.9,0.7,1.9,1.8c0,1-0.8,1.8-1.9,1.8
							C327.2,43.7,326.4,43,326.4,41.9z M326.7,45.7h3.2V58h-3.2V45.7z"/>
						<path class="st2" d="M332.6,51.9c0-4,2.8-6.5,5.7-6.5c3.4,0,5.1,2.5,5.1,5.9c0,0.6-0.1,1.2-0.2,1.5h-7.6
							c0.3,2,1.6,3.1,3.4,3.1c1,0,1.9-0.3,2.8-0.9l1.1,2c-1.2,0.8-2.8,1.4-4.3,1.4C335.3,58.3,332.6,55.9,332.6,51.9z M340.7,50.6
							c0-1.7-0.7-2.7-2.3-2.7c-1.3,0-2.4,0.9-2.7,2.7H340.7z"/>
						<path class="st2" d="M346.2,45.7h2.6l0.2,1.6h0.1c1.1-1.1,2.3-1.9,4-1.9c2.7,0,3.8,1.8,3.8,5V58h-3.2v-7.3
							c0-1.9-0.5-2.6-1.7-2.6c-1,0-1.6,0.5-2.6,1.4V58h-3.2V45.7z"/>
						<path class="st2" d="M359.6,51.9c0-4,2.5-6.5,5.2-6.5c1.4,0,2.2,0.5,3.1,1.3l-0.1-1.9v-4.3h3.2V58h-2.6l-0.3-1.3H368
							c-0.9,0.9-2.1,1.6-3.4,1.6C361.5,58.3,359.6,55.9,359.6,51.9z M367.7,54.4V49c-0.7-0.7-1.5-0.9-2.3-0.9
							c-1.4,0-2.6,1.3-2.6,3.8c0,2.6,0.9,3.8,2.6,3.8C366.3,55.6,367,55.3,367.7,54.4z"/>
						<path class="st2" d="M374.4,54.5V40.4h3.2v14.3c0,0.7,0.4,1,0.7,1c0.1,0,0.2,0,0.4,0l0.4,2.4c-0.4,0.2-0.9,0.3-1.7,0.3
							C375.2,58.3,374.4,56.8,374.4,54.5z"/>
						<path class="st2" d="M380.7,62.7l0.6-2.5c0.2,0.1,0.6,0.2,0.9,0.2c1.3,0,2-0.8,2.3-1.9l0.2-0.7l-4.8-12.1h3.3l2,5.7
							c0.4,1.1,0.7,2.3,1,3.5h0.1c0.3-1.1,0.6-2.3,0.9-3.5l1.7-5.7h3.1l-4.4,12.7c-1.1,2.9-2.4,4.6-5.1,4.6
							C381.7,63,381.2,62.9,380.7,62.7z"/>
						<path class="st2" d="M398.2,51.9c0-4.1,2.9-6.5,6.3-6.5c1.5,0,2.7,0.6,3.6,1.4l-1.5,2.1c-0.6-0.5-1.2-0.8-1.9-0.8
							c-1.9,0-3.1,1.5-3.1,3.9c0,2.3,1.3,3.8,3.1,3.8c0.9,0,1.7-0.4,2.4-1l1.3,2.1c-1.2,1-2.7,1.5-4,1.5
							C400.8,58.3,398.2,55.9,398.2,51.9z"/>
						<path class="st2" d="M409.1,51.9c0-4.1,2.8-6.5,5.9-6.5c3.1,0,5.9,2.4,5.9,6.5c0,4.1-2.8,6.4-5.9,6.4
							C412,58.3,409.1,55.9,409.1,51.9z M417.7,51.9c0-2.3-0.9-3.9-2.6-3.9c-1.7,0-2.6,1.5-2.6,3.9c0,2.3,0.9,3.8,2.6,3.8
							C416.7,55.7,417.7,54.2,417.7,51.9z"/>
						<path class="st2" d="M422.4,56.6l1.5-2c1.1,0.9,2.2,1.3,3.3,1.3c1.2,0,1.8-0.5,1.8-1.3c0-0.9-1.3-1.3-2.6-1.8
							c-1.6-0.6-3.4-1.5-3.4-3.6c0-2.2,1.8-3.8,4.6-3.8c1.8,0,3.2,0.7,4.2,1.5l-1.5,2c-0.9-0.6-1.7-1.1-2.7-1.1
							c-1.1,0-1.6,0.5-1.6,1.2c0,0.9,1.2,1.2,2.5,1.7c1.6,0.6,3.4,1.4,3.4,3.7c0,2.2-1.7,3.9-4.9,3.9
							C425.4,58.3,423.6,57.6,422.4,56.6z"/>
						<path class="st2" d="M434.5,45.7h2.6l0.2,1.7h0.1c1-1.1,2.2-2,3.8-2c1.8,0,2.8,0.8,3.4,2.2c1.1-1.2,2.3-2.2,3.9-2.2
							c2.6,0,3.8,1.8,3.8,5V58h-3.2v-7.3c0-1.9-0.5-2.6-1.7-2.6c-0.7,0-1.5,0.5-2.4,1.4V58h-3.2v-7.3c0-1.9-0.6-2.6-1.7-2.6
							c-0.7,0-1.5,0.5-2.4,1.4V58h-3.2V45.7z"/>
						<path class="st2" d="M454.9,51.9c0-4,2.8-6.5,5.7-6.5c3.4,0,5.1,2.5,5.1,5.9c0,0.6-0.1,1.2-0.2,1.5h-7.6
							c0.3,2,1.6,3.1,3.4,3.1c1,0,1.9-0.3,2.8-0.9l1.1,2c-1.2,0.8-2.8,1.4-4.3,1.4C457.6,58.3,454.9,55.9,454.9,51.9z M463,50.6
							c0-1.7-0.7-2.7-2.3-2.7c-1.3,0-2.4,0.9-2.7,2.7H463z"/>
						<path class="st2" d="M467.7,51.9c0-4.1,2.9-6.5,6.3-6.5c1.5,0,2.7,0.6,3.6,1.4l-1.5,2.1c-0.6-0.5-1.2-0.8-1.9-0.8
							c-1.9,0-3.1,1.5-3.1,3.9c0,2.3,1.3,3.8,3.1,3.8c0.9,0,1.7-0.4,2.4-1l1.3,2.1c-1.2,1-2.7,1.5-4,1.5
							C470.3,58.3,467.7,55.9,467.7,51.9z"/>
						<path class="st2" d="M478.6,51.9c0-4,2.8-6.5,5.7-6.5c3.4,0,5.1,2.5,5.1,5.9c0,0.6-0.1,1.2-0.2,1.5h-7.6
							c0.3,2,1.6,3.1,3.4,3.1c1,0,1.9-0.3,2.8-0.9l1.1,2c-1.2,0.8-2.8,1.4-4.3,1.4C481.3,58.3,478.6,55.9,478.6,51.9z M486.7,50.6
							c0-1.7-0.7-2.7-2.3-2.7c-1.3,0-2.4,0.9-2.7,2.7H486.7z"/>
						<path class="st2" d="M492,53.4v-7.7h3.2V53c0,1.9,0.5,2.6,1.7,2.6c1,0,1.7-0.4,2.5-1.5v-8.3h3.2V58h-2.6l-0.2-1.8h-0.1
							c-1.1,1.3-2.2,2.1-3.9,2.1C493.2,58.3,492,56.5,492,53.4z"/>
						<path class="st2" d="M506.6,53.7v-5.5h-1.7v-2.4l1.9-0.2l0.4-3.3h2.7v3.3h3v2.6h-3v5.5c0,1.4,0.6,2.1,1.7,2.1
							c0.4,0,0.9-0.1,1.2-0.3l0.5,2.4c-0.7,0.2-1.5,0.5-2.6,0.5C507.8,58.3,506.6,56.5,506.6,53.7z"/>
						<path class="st2" d="M515.1,41.9c0-1.1,0.8-1.8,1.9-1.8c1.1,0,1.9,0.7,1.9,1.8c0,1-0.8,1.8-1.9,1.8
							C515.9,43.7,515.1,43,515.1,41.9z M515.4,45.7h3.2V58h-3.2V45.7z"/>
						<path class="st2" d="M521.3,51.9c0-4.1,2.9-6.5,6.3-6.5c1.5,0,2.7,0.6,3.6,1.4l-1.5,2.1c-0.6-0.5-1.2-0.8-1.9-0.8
							c-1.9,0-3.1,1.5-3.1,3.9c0,2.3,1.3,3.8,3.1,3.8c0.9,0,1.7-0.4,2.4-1l1.3,2.1c-1.2,1-2.7,1.5-4,1.5
							C523.9,58.3,521.3,55.9,521.3,51.9z"/>
						<path class="st2" d="M532.8,54.7c0-2.6,2.1-4,7.1-4.6c0-1.2-0.6-2.1-2.1-2.1c-1.1,0-2.2,0.5-3.4,1.2l-1.2-2.1
							c1.5-0.9,3.2-1.6,5.1-1.6c3.1,0,4.7,1.9,4.7,5.4V58h-2.6l-0.2-1.3h-0.1c-1.1,0.9-2.3,1.6-3.7,1.6
							C534.3,58.3,532.8,56.7,532.8,54.7z M539.9,54.6v-2.5c-3,0.4-4,1.2-4,2.3c0,1,0.7,1.4,1.6,1.4
							C538.5,55.8,539.1,55.3,539.9,54.6z"/>
						<path class="st2" d="M546.4,54.5V40.4h3.2v14.3c0,0.7,0.4,1,0.7,1c0.1,0,0.2,0,0.4,0l0.4,2.4c-0.4,0.2-0.9,0.3-1.7,0.3
							C547.2,58.3,546.4,56.8,546.4,54.5z"/>
						<path class="st2" d="M552.2,56.6l1.5-2c1.1,0.9,2.2,1.3,3.3,1.3c1.2,0,1.8-0.5,1.8-1.3c0-0.9-1.3-1.3-2.6-1.8
							c-1.6-0.6-3.4-1.5-3.4-3.6c0-2.2,1.8-3.8,4.6-3.8c1.8,0,3.2,0.7,4.2,1.5l-1.5,2c-0.9-0.6-1.7-1.1-2.7-1.1
							c-1.1,0-1.6,0.5-1.6,1.2c0,0.9,1.2,1.2,2.5,1.7c1.6,0.6,3.4,1.4,3.4,3.7c0,2.2-1.7,3.9-4.9,3.9
							C555.2,58.3,553.4,57.6,552.2,56.6z"/>
						<path class="st2" d="M568.6,51.9c0-4,2.5-6.5,5.2-6.5c1.4,0,2.2,0.5,3.1,1.3l-0.1-1.9v-4.3h3.2V58h-2.6l-0.3-1.3H577
							c-0.9,0.9-2.1,1.6-3.4,1.6C570.5,58.3,568.6,55.9,568.6,51.9z M576.7,54.4V49c-0.7-0.7-1.5-0.9-2.3-0.9
							c-1.4,0-2.6,1.3-2.6,3.8c0,2.6,0.9,3.8,2.6,3.8C575.3,55.6,576,55.3,576.7,54.4z"/>
						<path class="st2" d="M582.7,51.9c0-4,2.8-6.5,5.7-6.5c3.4,0,5.1,2.5,5.1,5.9c0,0.6-0.1,1.2-0.2,1.5h-7.6
							c0.3,2,1.6,3.1,3.4,3.1c1,0,1.9-0.3,2.8-0.9l1.1,2c-1.2,0.8-2.8,1.4-4.3,1.4C585.3,58.3,582.7,55.9,582.7,51.9z M590.8,50.6
							c0-1.7-0.7-2.7-2.3-2.7c-1.3,0-2.4,0.9-2.7,2.7H590.8z"/>
						<path class="st2" d="M594.7,45.7h3.3l1.8,6.1c0.3,1.2,0.7,2.5,1,3.7h0.1c0.3-1.3,0.7-2.5,1-3.7l1.8-6.1h3.1L602.6,58h-3.7
							L594.7,45.7z"/>
						<path class="st2" d="M607.8,51.9c0-4,2.8-6.5,5.7-6.5c3.4,0,5.1,2.5,5.1,5.9c0,0.6-0.1,1.2-0.2,1.5H611c0.3,2,1.6,3.1,3.4,3.1
							c1,0,1.9-0.3,2.8-0.9l1.1,2c-1.2,0.8-2.8,1.4-4.3,1.4C610.5,58.3,607.8,55.9,607.8,51.9z M616,50.6c0-1.7-0.7-2.7-2.3-2.7
							c-1.3,0-2.4,0.9-2.7,2.7H616z"/>
						<path class="st2" d="M621.4,54.5V40.4h3.2v14.3c0,0.7,0.4,1,0.7,1c0.1,0,0.2,0,0.4,0l0.4,2.4c-0.4,0.2-0.9,0.3-1.7,0.3
							C622.2,58.3,621.4,56.8,621.4,54.5z"/>
						<path class="st2" d="M627.6,51.9c0-4.1,2.8-6.5,5.9-6.5c3.1,0,5.9,2.4,5.9,6.5c0,4.1-2.8,6.4-5.9,6.4
							C630.4,58.3,627.6,55.9,627.6,51.9z M636.1,51.9c0-2.3-0.9-3.9-2.6-3.9c-1.7,0-2.6,1.5-2.6,3.9c0,2.3,0.9,3.8,2.6,3.8
							C635.1,55.7,636.1,54.2,636.1,51.9z"/>
						<path class="st2" d="M642.1,45.7h2.6L645,47h0.1c1-0.9,2.3-1.6,3.6-1.6c3,0,4.8,2.5,4.8,6.3c0,4.2-2.5,6.7-5.2,6.7
							c-1.1,0-2.1-0.5-3.1-1.3l0.1,2v3.7h-3.2V45.7z M650.2,51.7c0-2.4-0.7-3.7-2.4-3.7c-0.8,0-1.6,0.4-2.4,1.3v5.4
							c0.8,0.7,1.6,0.9,2.2,0.9C649.1,55.6,650.2,54.4,650.2,51.7z"/>
						<path class="st2" d="M655.5,51.9c0-4,2.8-6.5,5.7-6.5c3.4,0,5.1,2.5,5.1,5.9c0,0.6-0.1,1.2-0.2,1.5h-7.6
							c0.3,2,1.6,3.1,3.4,3.1c1,0,1.9-0.3,2.8-0.9l1.1,2c-1.2,0.8-2.8,1.4-4.3,1.4C658.2,58.3,655.5,55.9,655.5,51.9z M663.6,50.6
							c0-1.7-0.7-2.7-2.3-2.7c-1.3,0-2.4,0.9-2.7,2.7H663.6z"/>
						<path class="st2" d="M668.3,51.9c0-4,2.5-6.5,5.2-6.5c1.4,0,2.2,0.5,3.1,1.3l-0.1-1.9v-4.3h3.2V58h-2.6l-0.3-1.3h-0.1
							c-0.9,0.9-2.1,1.6-3.4,1.6C670.3,58.3,668.3,55.9,668.3,51.9z M676.5,54.4V49c-0.7-0.7-1.5-0.9-2.3-0.9
							c-1.4,0-2.6,1.3-2.6,3.8c0,2.6,0.9,3.8,2.6,3.8C675.1,55.6,675.8,55.3,676.5,54.4z"/>
						<path class="st2" d="M694.8,43c-0.4-0.2-0.9-0.3-1.3-0.3c-1,0-1.5,0.6-1.5,1.9v1.1h2.3v2.6H692V58h-3.2v-9.8h-1.7v-2.4
							l1.7-0.1v-1c0-2.6,1.2-4.6,4.3-4.6c0.9,0,1.8,0.2,2.3,0.4L694.8,43z"/>
						<path class="st2" d="M696.4,45.7h2.6l0.2,2.2h0.1c0.9-1.6,2.2-2.5,3.5-2.5c0.7,0,1.1,0.1,1.5,0.3l-0.6,2.8
							c-0.4-0.1-0.8-0.2-1.3-0.2c-1,0-2.1,0.6-2.8,2.4V58h-3.2V45.7z"/>
						<path class="st2" d="M705,51.9c0-4.1,2.8-6.5,5.9-6.5s5.9,2.4,5.9,6.5c0,4.1-2.8,6.4-5.9,6.4S705,55.9,705,51.9z M713.5,51.9
							c0-2.3-0.9-3.9-2.6-3.9s-2.6,1.5-2.6,3.9c0,2.3,0.9,3.8,2.6,3.8S713.5,54.2,713.5,51.9z"/>
						<path class="st2" d="M719.5,45.7h2.6l0.2,1.7h0.1c1-1.1,2.2-2,3.8-2c1.8,0,2.8,0.8,3.4,2.2c1.1-1.2,2.3-2.2,3.9-2.2
							c2.6,0,3.8,1.8,3.8,5V58h-3.2v-7.3c0-1.9-0.5-2.6-1.7-2.6c-0.7,0-1.5,0.5-2.4,1.4V58h-3.2v-7.3c0-1.9-0.6-2.6-1.7-2.6
							c-0.7,0-1.5,0.5-2.4,1.4V58h-3.2V45.7z"/>
					</g>
					<text transform="matrix(1 0 0 1 738.9653 58)" class="st2 st3 st4"> </text>
					<g class="st1">
						<path class="st2" d="M261.6,89.6l1.5-2c1.1,0.9,2.2,1.3,3.3,1.3c1.2,0,1.8-0.5,1.8-1.3c0-0.9-1.3-1.3-2.6-1.8
							c-1.6-0.6-3.4-1.5-3.4-3.6c0-2.2,1.8-3.8,4.6-3.8c1.8,0,3.2,0.7,4.2,1.5l-1.5,2c-0.9-0.6-1.7-1.1-2.7-1.1
							c-1.1,0-1.6,0.5-1.6,1.2c0,0.9,1.2,1.2,2.5,1.7c1.6,0.6,3.4,1.4,3.4,3.7c0,2.2-1.7,3.9-4.9,3.9
							C264.6,91.3,262.8,90.6,261.6,89.6z"/>
						<path class="st2" d="M273.5,86.4v-7.7h3.2V86c0,1.9,0.5,2.6,1.7,2.6c1,0,1.7-0.4,2.5-1.5v-8.3h3.2V91h-2.6l-0.2-1.8h-0.1
							c-1.1,1.3-2.2,2.1-3.9,2.1C274.6,91.3,273.5,89.5,273.5,86.4z"/>
						<path class="st2" d="M286.5,89.6l1.5-2c1.1,0.9,2.2,1.3,3.3,1.3c1.2,0,1.8-0.5,1.8-1.3c0-0.9-1.3-1.3-2.6-1.8
							c-1.6-0.6-3.4-1.5-3.4-3.6c0-2.2,1.8-3.8,4.6-3.8c1.8,0,3.2,0.7,4.2,1.5l-1.5,2c-0.9-0.6-1.7-1.1-2.7-1.1
							c-1.1,0-1.6,0.5-1.6,1.2c0,0.9,1.2,1.2,2.5,1.7c1.6,0.6,3.4,1.4,3.4,3.7c0,2.2-1.7,3.9-4.9,3.9
							C289.5,91.3,287.7,90.6,286.5,89.6z"/>
						<path class="st2" d="M298.5,86.7v-5.5h-1.7v-2.4l1.9-0.2l0.4-3.3h2.7v3.3h3v2.6h-3v5.5c0,1.4,0.6,2.1,1.7,2.1
							c0.4,0,0.9-0.1,1.2-0.3l0.5,2.4c-0.7,0.2-1.5,0.5-2.6,0.5C299.6,91.3,298.5,89.5,298.5,86.7z"/>
						<path class="st2" d="M306.1,87.7c0-2.6,2.1-4,7.1-4.6c0-1.2-0.6-2.1-2.1-2.1c-1.1,0-2.2,0.5-3.4,1.2l-1.2-2.1
							c1.5-0.9,3.2-1.6,5.1-1.6c3.1,0,4.7,1.9,4.7,5.4V91h-2.6l-0.2-1.3h-0.1c-1.1,0.9-2.3,1.6-3.7,1.6
							C307.6,91.3,306.1,89.7,306.1,87.7z M313.2,87.6v-2.5c-3,0.4-4,1.2-4,2.3c0,1,0.7,1.4,1.6,1.4
							C311.8,88.8,312.5,88.3,313.2,87.6z"/>
						<path class="st2" d="M319.5,74.9c0-1.1,0.8-1.8,1.9-1.8c1.1,0,1.9,0.7,1.9,1.8c0,1-0.8,1.8-1.9,1.8
							C320.3,76.7,319.5,76,319.5,74.9z M319.8,78.7h3.2V91h-3.2V78.7z"/>
						<path class="st2" d="M326.4,78.7h2.6l0.2,1.6h0.1c1.1-1.1,2.3-1.9,4-1.9c2.7,0,3.8,1.8,3.8,5V91H334v-7.3
							c0-1.9-0.5-2.6-1.7-2.6c-1,0-1.6,0.5-2.6,1.4V91h-3.2V78.7z"/>
						<path class="st2" d="M339.9,87.7c0-2.6,2.1-4,7.1-4.6c0-1.2-0.6-2.1-2.1-2.1c-1.1,0-2.2,0.5-3.4,1.2l-1.2-2.1
							c1.5-0.9,3.2-1.6,5.1-1.6c3.1,0,4.7,1.9,4.7,5.4V91h-2.6l-0.2-1.3h-0.1c-1.1,0.9-2.3,1.6-3.7,1.6
							C341.4,91.3,339.9,89.7,339.9,87.7z M347,87.6v-2.5c-3,0.4-4,1.2-4,2.3c0,1,0.7,1.4,1.6,1.4C345.6,88.8,346.2,88.3,347,87.6z"
							/>
						<path class="st2" d="M356.4,89.7L356.4,89.7l-0.4,1.3h-2.5V73.4h3.2v4.4l-0.1,2c1-0.9,2.2-1.5,3.4-1.5c3,0,4.9,2.5,4.9,6.2
							c0,4.2-2.5,6.7-5.2,6.7C358.6,91.3,357.4,90.7,356.4,89.7z M361.7,84.7c0-2.4-0.7-3.7-2.4-3.7c-0.8,0-1.6,0.4-2.4,1.3v5.4
							c0.8,0.7,1.6,0.9,2.2,0.9C360.5,88.6,361.7,87.4,361.7,84.7z"/>
						<path class="st2" d="M367.7,87.5V73.4h3.2v14.3c0,0.7,0.4,1,0.7,1c0.1,0,0.2,0,0.4,0l0.4,2.4c-0.4,0.2-0.9,0.3-1.7,0.3
							C368.5,91.3,367.7,89.8,367.7,87.5z"/>
						<path class="st2" d="M373.9,84.9c0-4,2.8-6.5,5.7-6.5c3.4,0,5.1,2.5,5.1,5.9c0,0.6-0.1,1.2-0.2,1.5H377c0.3,2,1.6,3.1,3.4,3.1
							c1,0,1.9-0.3,2.8-0.9l1.1,2c-1.2,0.8-2.8,1.4-4.3,1.4C376.6,91.3,373.9,88.9,373.9,84.9z M382,83.6c0-1.7-0.7-2.7-2.3-2.7
							c-1.3,0-2.4,0.9-2.7,2.7H382z"/>
						<path class="st2" d="M392.4,78.7h2.6l0.2,1.6h0.1c1.1-1.1,2.3-1.9,4-1.9c2.7,0,3.8,1.8,3.8,5V91H400v-7.3
							c0-1.9-0.5-2.6-1.7-2.6c-1,0-1.6,0.5-2.6,1.4V91h-3.2V78.7z"/>
						<path class="st2" d="M405.9,87.7c0-2.6,2.1-4,7.1-4.6c0-1.2-0.6-2.1-2.1-2.1c-1.1,0-2.2,0.5-3.4,1.2l-1.2-2.1
							c1.5-0.9,3.2-1.6,5.1-1.6c3.1,0,4.7,1.9,4.7,5.4V91h-2.6l-0.2-1.3h-0.1c-1.1,0.9-2.3,1.6-3.7,1.6
							C407.4,91.3,405.9,89.7,405.9,87.7z M413,87.6v-2.5c-3,0.4-4,1.2-4,2.3c0,1,0.7,1.4,1.6,1.4C411.5,88.8,412.2,88.3,413,87.6z"
							/>
						<path class="st2" d="M419.6,86.7v-5.5h-1.7v-2.4l1.9-0.2l0.4-3.3h2.7v3.3h3v2.6h-3v5.5c0,1.4,0.6,2.1,1.7,2.1
							c0.4,0,0.9-0.1,1.2-0.3l0.5,2.4c-0.7,0.2-1.5,0.5-2.6,0.5C420.7,91.3,419.6,89.5,419.6,86.7z"/>
						<path class="st2" d="M428.2,86.4v-7.7h3.2V86c0,1.9,0.5,2.6,1.7,2.6c1,0,1.7-0.4,2.5-1.5v-8.3h3.2V91h-2.6l-0.2-1.8h-0.1
							c-1.1,1.3-2.2,2.1-3.9,2.1C429.4,91.3,428.2,89.5,428.2,86.4z"/>
						<path class="st2" d="M442.4,78.7h2.6l0.2,2.2h0.1c0.9-1.6,2.2-2.5,3.5-2.5c0.7,0,1.1,0.1,1.5,0.3l-0.6,2.8
							c-0.4-0.1-0.8-0.2-1.3-0.2c-1,0-2.1,0.6-2.8,2.4V91h-3.2V78.7z"/>
						<path class="st2" d="M450.7,87.7c0-2.6,2.1-4,7.1-4.6c0-1.2-0.6-2.1-2.1-2.1c-1.1,0-2.2,0.5-3.4,1.2l-1.2-2.1
							c1.5-0.9,3.2-1.6,5.1-1.6c3.1,0,4.7,1.9,4.7,5.4V91h-2.6l-0.2-1.3H458c-1.1,0.9-2.3,1.6-3.7,1.6
							C452.1,91.3,450.7,89.7,450.7,87.7z M457.7,87.6v-2.5c-3,0.4-4,1.2-4,2.3c0,1,0.7,1.4,1.6,1.4C456.3,88.8,457,88.3,457.7,87.6
							z"/>
						<path class="st2" d="M464.3,87.5V73.4h3.2v14.3c0,0.7,0.4,1,0.7,1c0.1,0,0.2,0,0.4,0L469,91c-0.4,0.2-0.9,0.3-1.7,0.3
							C465.1,91.3,464.3,89.8,464.3,87.5z"/>
						<path class="st2" d="M475,89.6l1.5-2c1.1,0.9,2.2,1.3,3.3,1.3c1.2,0,1.8-0.5,1.8-1.3c0-0.9-1.3-1.3-2.6-1.8
							c-1.6-0.6-3.4-1.5-3.4-3.6c0-2.2,1.8-3.8,4.6-3.8c1.8,0,3.2,0.7,4.2,1.5l-1.5,2c-0.9-0.6-1.7-1.1-2.7-1.1
							c-1.1,0-1.6,0.5-1.6,1.2c0,0.9,1.2,1.2,2.5,1.7c1.6,0.6,3.4,1.4,3.4,3.7c0,2.2-1.7,3.9-4.9,3.9
							C478.1,91.3,476.2,90.6,475,89.6z"/>
						<path class="st2" d="M486.3,84.9c0-4.1,2.8-6.5,5.9-6.5c3.1,0,5.9,2.4,5.9,6.5c0,4.1-2.8,6.4-5.9,6.4
							C489.2,91.3,486.3,88.9,486.3,84.9z M494.9,84.9c0-2.3-0.9-3.9-2.6-3.9c-1.7,0-2.6,1.5-2.6,3.9c0,2.3,0.9,3.8,2.6,3.8
							C493.9,88.7,494.9,87.2,494.9,84.9z"/>
						<path class="st2" d="M500.7,86.4v-7.7h3.2V86c0,1.9,0.5,2.6,1.7,2.6c1,0,1.7-0.4,2.5-1.5v-8.3h3.2V91h-2.6l-0.2-1.8h-0.1
							c-1.1,1.3-2.2,2.1-3.9,2.1C501.9,91.3,500.7,89.5,500.7,86.4z"/>
						<path class="st2" d="M514.9,78.7h2.6l0.2,2.2h0.1c0.9-1.6,2.2-2.5,3.5-2.5c0.7,0,1.1,0.1,1.5,0.3l-0.6,2.8
							c-0.4-0.1-0.8-0.2-1.3-0.2c-1,0-2.1,0.6-2.8,2.4V91h-3.2V78.7z"/>
						<path class="st2" d="M523.4,84.9c0-4.1,2.9-6.5,6.3-6.5c1.5,0,2.7,0.6,3.6,1.4l-1.5,2.1c-0.6-0.5-1.2-0.8-1.9-0.8
							c-1.9,0-3.1,1.5-3.1,3.9c0,2.3,1.3,3.8,3.1,3.8c0.9,0,1.7-0.4,2.4-1l1.3,2.1c-1.2,1-2.7,1.5-4,1.5
							C526,91.3,523.4,88.9,523.4,84.9z"/>
						<path class="st2" d="M534.4,84.9c0-4,2.8-6.5,5.7-6.5c3.4,0,5.1,2.5,5.1,5.9c0,0.6-0.1,1.2-0.2,1.5h-7.6
							c0.3,2,1.6,3.1,3.4,3.1c1,0,1.9-0.3,2.8-0.9l1.1,2c-1.2,0.8-2.8,1.4-4.3,1.4C537.1,91.3,534.4,88.9,534.4,84.9z M542.5,83.6
							c0-1.7-0.7-2.7-2.3-2.7c-1.3,0-2.4,0.9-2.7,2.7H542.5z"/>
						<path class="st2" d="M546.8,89.6l1.5-2c1.1,0.9,2.2,1.3,3.3,1.3c1.2,0,1.8-0.5,1.8-1.3c0-0.9-1.3-1.3-2.6-1.8
							c-1.6-0.6-3.4-1.5-3.4-3.6c0-2.2,1.8-3.8,4.6-3.8c1.8,0,3.2,0.7,4.2,1.5l-1.5,2c-0.9-0.6-1.7-1.1-2.7-1.1
							c-1.1,0-1.6,0.5-1.6,1.2c0,0.9,1.2,1.2,2.5,1.7c1.6,0.6,3.4,1.4,3.4,3.7c0,2.2-1.7,3.9-4.9,3.9
							C549.8,91.3,548,90.6,546.8,89.6z"/>
					</g>
					<g class="st1">
						<path class="st2" d="M105.8,128.3h4.6v1.3h-4.6V128.3z"/>
						<path class="st2" d="M117.1,120.8h3.3c4.1,0,6.2,2.4,6.2,6.6c0,4.2-2.2,6.6-6.2,6.6h-3.4V120.8z M120.2,132.6
							c3.1,0,4.6-1.9,4.6-5.3c0-3.3-1.5-5.2-4.6-5.2h-1.5v10.5H120.2z"/>
						<path class="st2" d="M128.6,129.1c0-3.2,2.1-5.1,4.4-5.1c2.5,0,3.9,1.8,3.9,4.6c0,0.4,0,0.7-0.1,0.9h-6.6
							c0.1,2.1,1.4,3.4,3.2,3.4c1,0,1.7-0.3,2.4-0.8l0.6,1.1c-0.9,0.6-1.9,1-3.2,1C130.7,134.2,128.6,132.3,128.6,129.1z
							 M135.4,128.3c0-2-0.9-3-2.4-3c-1.4,0-2.6,1.1-2.8,3H135.4z"/>
						<path class="st2" d="M137.9,124.2h1.7l1.8,5.6c0.3,1,0.6,2,0.9,2.9h0.1c0.3-0.9,0.6-1.9,0.9-2.9l1.9-5.6h1.6l-3.5,9.8h-1.9
							L137.9,124.2z"/>
						<path class="st2" d="M147.9,129.1c0-3.2,2.1-5.1,4.4-5.1c2.5,0,3.9,1.8,3.9,4.6c0,0.4,0,0.7-0.1,0.9h-6.6
							c0.1,2.1,1.4,3.4,3.2,3.4c1,0,1.7-0.3,2.4-0.8l0.6,1.1c-0.9,0.6-1.9,1-3.2,1C150,134.2,147.9,132.3,147.9,129.1z M154.8,128.3
							c0-2-0.9-3-2.4-3c-1.4,0-2.6,1.1-2.8,3H154.8z"/>
						<path class="st2" d="M158.6,132.1v-12.4h1.6v12.5c0,0.5,0.2,0.7,0.5,0.7c0.1,0,0.2,0,0.3,0l0.2,1.3c-0.2,0.1-0.5,0.1-1,0.1
							C159.1,134.2,158.6,133.4,158.6,132.1z"/>
						<path class="st2" d="M163,129.1c0-3.3,2.1-5.1,4.5-5.1s4.5,1.9,4.5,5.1c0,3.2-2.1,5.1-4.5,5.1S163,132.4,163,129.1z
							 M170.4,129.1c0-2.2-1.2-3.8-2.8-3.8s-2.8,1.5-2.8,3.8c0,2.3,1.1,3.7,2.8,3.7S170.4,131.4,170.4,129.1z"/>
						<path class="st2" d="M174.7,124.2h1.4l0.1,1.1h0.1c0.9-0.7,2-1.4,3.1-1.4c2.5,0,3.9,2,3.9,5c0,3.3-2,5.3-4.2,5.3
							c-0.9,0-1.8-0.4-2.7-1.1l0,1.7v3.3h-1.6V124.2z M181.5,129c0-2.2-0.7-3.6-2.6-3.6c-0.8,0-1.7,0.5-2.6,1.4v5.1
							c0.9,0.8,1.7,1,2.4,1C180.3,132.9,181.5,131.4,181.5,129z"/>
						<path class="st2" d="M189.1,129.1c0-3.3,2.2-5.1,4.7-5.1c1.3,0,2.2,0.5,2.9,1.2l-0.8,1.1c-0.6-0.5-1.2-0.9-2-0.9
							c-1.8,0-3.1,1.5-3.1,3.8c0,2.3,1.2,3.7,3,3.7c0.9,0,1.7-0.4,2.3-1l0.7,1.1c-0.9,0.8-2,1.2-3.2,1.2
							C191.1,134.2,189.1,132.4,189.1,129.1z"/>
						<path class="st2" d="M197.9,129.1c0-3.3,2.1-5.1,4.5-5.1c2.4,0,4.5,1.9,4.5,5.1c0,3.2-2.1,5.1-4.5,5.1
							C200,134.2,197.9,132.4,197.9,129.1z M205.2,129.1c0-2.2-1.2-3.8-2.8-3.8s-2.8,1.5-2.8,3.8c0,2.3,1.1,3.7,2.8,3.7
							S205.2,131.4,205.2,129.1z"/>
						<path class="st2" d="M208.4,132.9l0.8-1.1c0.8,0.7,1.7,1.2,2.9,1.2c1.3,0,1.9-0.7,1.9-1.5c0-1-1.2-1.4-2.2-1.9
							c-1.4-0.5-2.9-1.2-2.9-2.8c0-1.5,1.2-2.8,3.4-2.8c1.2,0,2.3,0.5,3,1.1l-0.8,1.1c-0.7-0.5-1.4-0.9-2.3-0.9
							c-1.2,0-1.8,0.6-1.8,1.4c0,0.9,1.1,1.3,2.2,1.7c1.4,0.5,3,1.1,3,3c0,1.6-1.3,2.9-3.6,2.9C210.7,134.2,209.3,133.7,208.4,132.9
							z"/>
						<path class="st2" d="M217.9,124.2h1.4l0.1,1.4h0.1c0.8-0.9,1.9-1.7,3-1.7c1.5,0,2.3,0.7,2.7,1.9c1-1.1,2-1.9,3.2-1.9
							c2,0,3,1.3,3,3.8v6.2h-1.6v-6c0-1.8-0.6-2.6-1.8-2.6c-0.8,0-1.5,0.5-2.5,1.5v7.1h-1.6v-6c0-1.8-0.6-2.6-1.8-2.6
							c-0.7,0-1.6,0.5-2.5,1.5v7.1h-1.6V124.2z"/>
						<path class="st2" d="M233.9,129.1c0-3.2,2.1-5.1,4.4-5.1c2.5,0,3.9,1.8,3.9,4.6c0,0.4,0,0.7-0.1,0.9h-6.6
							c0.1,2.1,1.4,3.4,3.2,3.4c1,0,1.7-0.3,2.4-0.8l0.6,1.1c-0.9,0.6-1.9,1-3.2,1C235.9,134.2,233.9,132.3,233.9,129.1z
							 M240.7,128.3c0-2-0.9-3-2.4-3c-1.4,0-2.6,1.1-2.8,3H240.7z"/>
						<path class="st2" d="M243.8,129.1c0-3.3,2.2-5.1,4.7-5.1c1.3,0,2.2,0.5,2.9,1.2l-0.8,1.1c-0.6-0.5-1.2-0.9-2-0.9
							c-1.8,0-3.1,1.5-3.1,3.8c0,2.3,1.2,3.7,3,3.7c0.9,0,1.7-0.4,2.3-1l0.7,1.1c-0.9,0.8-2,1.2-3.2,1.2
							C245.8,134.2,243.8,132.4,243.8,129.1z"/>
						<path class="st2" d="M252.6,129.1c0-3.2,2.1-5.1,4.4-5.1c2.5,0,3.9,1.8,3.9,4.6c0,0.4,0,0.7-0.1,0.9h-6.6
							c0.1,2.1,1.4,3.4,3.2,3.4c1,0,1.7-0.3,2.4-0.8l0.6,1.1c-0.9,0.6-1.9,1-3.2,1C254.7,134.2,252.6,132.3,252.6,129.1z
							 M259.4,128.3c0-2-0.9-3-2.4-3c-1.4,0-2.6,1.1-2.8,3H259.4z"/>
						<path class="st2" d="M263.1,130.4v-6.2h1.6v6c0,1.8,0.5,2.6,1.8,2.6c1,0,1.7-0.5,2.6-1.7v-6.9h1.6v9.8h-1.4l-0.1-1.5h-0.1
							c-0.9,1.1-1.9,1.8-3.2,1.8C264.1,134.2,263.1,132.9,263.1,130.4z"/>
						<path class="st2" d="M274.5,131v-5.4H273v-1.2l1.5-0.1l0.2-2.7h1.4v2.7h2.6v1.3h-2.6v5.5c0,1.2,0.4,1.9,1.5,1.9
							c0.3,0,0.8-0.1,1.1-0.3l0.3,1.2c-0.6,0.2-1.2,0.4-1.8,0.4C275.2,134.2,274.5,132.9,274.5,131z"/>
						<path class="st2" d="M280.7,121.1c0-0.7,0.5-1.1,1.1-1.1c0.6,0,1.1,0.4,1.1,1.1c0,0.6-0.5,1.1-1.1,1.1
							C281.2,122.2,280.7,121.8,280.7,121.1z M281,124.2h1.6v9.8H281V124.2z"/>
						<path class="st2" d="M285.2,129.1c0-3.3,2.2-5.1,4.7-5.1c1.3,0,2.2,0.5,2.9,1.2l-0.8,1.1c-0.6-0.5-1.2-0.9-2-0.9
							c-1.8,0-3.1,1.5-3.1,3.8c0,2.3,1.2,3.7,3,3.7c0.9,0,1.7-0.4,2.3-1l0.7,1.1c-0.9,0.8-2,1.2-3.2,1.2
							C287.2,134.2,285.2,132.4,285.2,129.1z"/>
						<path class="st2" d="M294.3,131.5c0-2.1,1.9-3.2,6-3.7c0-1.3-0.4-2.5-2-2.5c-1.1,0-2.2,0.5-2.9,1l-0.6-1.1
							c0.9-0.6,2.3-1.3,3.9-1.3c2.4,0,3.4,1.6,3.4,4v6h-1.4l-0.1-1.2h-0.1c-0.9,0.8-2,1.4-3.2,1.4
							C295.5,134.2,294.3,133.2,294.3,131.5z M300.3,131.6v-2.7c-3.3,0.4-4.4,1.2-4.4,2.5c0,1.1,0.8,1.6,1.7,1.6
							C298.6,132.9,299.3,132.5,300.3,131.6z"/>
						<path class="st2" d="M305,132.1v-12.4h1.6v12.5c0,0.5,0.2,0.7,0.5,0.7c0.1,0,0.2,0,0.3,0l0.2,1.3c-0.2,0.1-0.5,0.1-1,0.1
							C305.6,134.2,305,133.4,305,132.1z"/>
						<path class="st2" d="M313.1,132.9l0.8-1.1c0.8,0.7,1.7,1.2,2.9,1.2c1.3,0,1.9-0.7,1.9-1.5c0-1-1.2-1.4-2.2-1.9
							c-1.4-0.5-2.9-1.2-2.9-2.8c0-1.5,1.2-2.8,3.4-2.8c1.2,0,2.3,0.5,3,1.1l-0.8,1.1c-0.7-0.5-1.4-0.9-2.3-0.9
							c-1.2,0-1.8,0.6-1.8,1.4c0,0.9,1.1,1.3,2.2,1.7c1.4,0.5,3,1.1,3,3c0,1.6-1.3,2.9-3.6,2.9C315.4,134.2,314,133.7,313.1,132.9z"
							/>
						<path class="st2" d="M322.5,130.4v-6.2h1.6v6c0,1.8,0.5,2.6,1.8,2.6c1,0,1.7-0.5,2.6-1.7v-6.9h1.6v9.8h-1.4l-0.1-1.5h-0.1
							c-0.9,1.1-1.9,1.8-3.2,1.8C323.4,134.2,322.5,132.9,322.5,130.4z"/>
						<path class="st2" d="M335.1,133L335.1,133l-0.2,1h-1.3v-14.3h1.6v3.9l-0.1,1.8c0.9-0.8,2-1.4,3.1-1.4c2.5,0,3.9,2,3.9,5
							c0,3.4-2,5.3-4.2,5.3C337,134.2,335.9,133.8,335.1,133z M340.4,129c0-2.2-0.7-3.6-2.6-3.6c-0.8,0-1.7,0.5-2.6,1.4v5.1
							c0.9,0.8,1.7,1,2.4,1C339.2,132.9,340.4,131.4,340.4,129z"/>
						<path class="st2" d="M343.6,132.9l0.8-1.1c0.8,0.7,1.7,1.2,2.9,1.2c1.3,0,1.9-0.7,1.9-1.5c0-1-1.2-1.4-2.2-1.9
							c-1.4-0.5-2.9-1.2-2.9-2.8c0-1.5,1.2-2.8,3.4-2.8c1.2,0,2.3,0.5,3,1.1l-0.8,1.1c-0.7-0.5-1.4-0.9-2.3-0.9
							c-1.2,0-1.8,0.6-1.8,1.4c0,0.9,1.1,1.3,2.2,1.7c1.4,0.5,3,1.1,3,3c0,1.6-1.3,2.9-3.6,2.9C345.9,134.2,344.5,133.7,343.6,132.9
							z"/>
						<path class="st2" d="M353,131v-5.4h-1.5v-1.2l1.5-0.1l0.2-2.7h1.4v2.7h2.6v1.3h-2.6v5.5c0,1.2,0.4,1.9,1.5,1.9
							c0.3,0,0.8-0.1,1.1-0.3l0.3,1.2c-0.6,0.2-1.2,0.4-1.8,0.4C353.7,134.2,353,132.9,353,131z"/>
						<path class="st2" d="M358.5,131.5c0-2.1,1.9-3.2,6-3.7c0-1.3-0.4-2.5-2-2.5c-1.1,0-2.2,0.5-2.9,1l-0.6-1.1
							c0.9-0.6,2.3-1.3,3.9-1.3c2.4,0,3.4,1.6,3.4,4v6h-1.4l-0.1-1.2h-0.1c-0.9,0.8-2,1.4-3.2,1.4
							C359.7,134.2,358.5,133.2,358.5,131.5z M364.5,131.6v-2.7c-3.3,0.4-4.4,1.2-4.4,2.5c0,1.1,0.8,1.6,1.7,1.6
							C362.7,132.9,363.5,132.5,364.5,131.6z"/>
						<path class="st2" d="M369.2,124.2h1.4l0.1,1.4h0.1c0.9-0.9,1.9-1.7,3.3-1.7c2.1,0,3,1.3,3,3.8v6.2h-1.6v-6
							c0-1.8-0.6-2.6-1.9-2.6c-1,0-1.7,0.5-2.7,1.5v7.1h-1.6V124.2z"/>
						<path class="st2" d="M379.5,129.1c0-3.3,2.2-5.1,4.7-5.1c1.3,0,2.2,0.5,2.9,1.2l-0.8,1.1c-0.6-0.5-1.2-0.9-2-0.9
							c-1.8,0-3.1,1.5-3.1,3.8c0,2.3,1.2,3.7,3,3.7c0.9,0,1.7-0.4,2.3-1l0.7,1.1c-0.9,0.8-2,1.2-3.2,1.2
							C381.5,134.2,379.5,132.4,379.5,129.1z"/>
						<path class="st2" d="M388.2,129.1c0-3.2,2.1-5.1,4.4-5.1c2.5,0,3.9,1.8,3.9,4.6c0,0.4,0,0.7-0.1,0.9h-6.6
							c0.1,2.1,1.4,3.4,3.2,3.4c1,0,1.7-0.3,2.4-0.8l0.6,1.1c-0.9,0.6-1.9,1-3.2,1C390.3,134.2,388.2,132.3,388.2,129.1z
							 M395.1,128.3c0-2-0.9-3-2.4-3c-1.4,0-2.6,1.1-2.8,3H395.1z"/>
						<path class="st2" d="M407.3,121c-0.4-0.2-0.8-0.3-1.1-0.3c-0.9,0-1.4,0.7-1.4,1.9v1.5h2.1v1.3h-2.1v8.4h-1.6v-8.4h-1.3v-1.2
							l1.3-0.1v-1.6c0-2,0.9-3.2,2.8-3.2c0.6,0,1.2,0.1,1.6,0.3L407.3,121z"/>
						<path class="st2" d="M408.8,124.2h1.4l0.1,1.8h0.1c0.7-1.2,1.7-2,2.8-2c0.4,0,0.7,0.1,1,0.2l-0.3,1.4c-0.3-0.1-0.6-0.2-1-0.2
							c-0.8,0-1.8,0.6-2.5,2.2v6.3h-1.6V124.2z"/>
						<path class="st2" d="M414.8,129.1c0-3.3,2.1-5.1,4.5-5.1s4.5,1.9,4.5,5.1c0,3.2-2.1,5.1-4.5,5.1S414.8,132.4,414.8,129.1z
							 M422.2,129.1c0-2.2-1.2-3.8-2.8-3.8s-2.8,1.5-2.8,3.8c0,2.3,1.1,3.7,2.8,3.7S422.2,131.4,422.2,129.1z"/>
						<path class="st2" d="M426.5,124.2h1.4l0.1,1.4h0.1c0.8-0.9,1.9-1.7,3-1.7c1.5,0,2.3,0.7,2.7,1.9c1-1.1,2-1.9,3.2-1.9
							c2,0,3,1.3,3,3.8v6.2h-1.6v-6c0-1.8-0.6-2.6-1.8-2.6c-0.8,0-1.5,0.5-2.5,1.5v7.1h-1.6v-6c0-1.8-0.6-2.6-1.8-2.6
							c-0.7,0-1.6,0.5-2.5,1.5v7.1h-1.6V124.2z"/>
						<path class="st2" d="M446.5,129.1c0-3.2,2.1-5.1,4.4-5.1c2.5,0,3.9,1.8,3.9,4.6c0,0.4,0,0.7-0.1,0.9h-6.6
							c0.1,2.1,1.4,3.4,3.2,3.4c1,0,1.7-0.3,2.4-0.8l0.6,1.1c-0.9,0.6-1.9,1-3.2,1C448.5,134.2,446.5,132.3,446.5,129.1z
							 M453.3,128.3c0-2-0.9-3-2.4-3c-1.4,0-2.6,1.1-2.8,3H453.3z"/>
						<path class="st2" d="M456.4,129.1c0-3.3,2.2-5.1,4.7-5.1c1.3,0,2.2,0.5,2.9,1.2l-0.8,1.1c-0.6-0.5-1.2-0.9-2-0.9
							c-1.8,0-3.1,1.5-3.1,3.8c0,2.3,1.2,3.7,3,3.7c0.9,0,1.7-0.4,2.3-1l0.7,1.1c-0.9,0.8-2,1.2-3.2,1.2
							C458.4,134.2,456.4,132.4,456.4,129.1z"/>
						<path class="st2" d="M465.2,129.1c0-3.3,2.1-5.1,4.5-5.1c2.4,0,4.5,1.9,4.5,5.1c0,3.2-2.1,5.1-4.5,5.1
							C467.3,134.2,465.2,132.4,465.2,129.1z M472.5,129.1c0-2.2-1.2-3.8-2.8-3.8s-2.8,1.5-2.8,3.8c0,2.3,1.1,3.7,2.8,3.7
							S472.5,131.4,472.5,129.1z"/>
						<path class="st2" d="M476.8,132.1v-12.4h1.6v12.5c0,0.5,0.2,0.7,0.5,0.7c0.1,0,0.2,0,0.3,0l0.2,1.3c-0.2,0.1-0.5,0.1-1,0.1
							C477.3,134.2,476.8,133.4,476.8,132.1z"/>
						<path class="st2" d="M481.2,129.1c0-3.3,2.1-5.1,4.5-5.1s4.5,1.9,4.5,5.1c0,3.2-2.1,5.1-4.5,5.1S481.2,132.4,481.2,129.1z
							 M488.6,129.1c0-2.2-1.2-3.8-2.8-3.8s-2.8,1.5-2.8,3.8c0,2.3,1.1,3.7,2.8,3.7S488.6,131.4,488.6,129.1z"/>
						<path class="st2" d="M492.1,135.9c0-0.8,0.5-1.6,1.5-2.2v-0.1c-0.5-0.3-0.9-0.8-0.9-1.6c0-0.8,0.6-1.5,1.1-1.8v-0.1
							c-0.6-0.5-1.3-1.5-1.3-2.6c0-2.1,1.7-3.5,3.7-3.5c0.5,0,1,0.1,1.4,0.3h3.4v1.3h-2c0.5,0.5,0.8,1.2,0.8,2
							c0,2.1-1.6,3.4-3.6,3.4c-0.5,0-1-0.1-1.5-0.3c-0.4,0.3-0.6,0.6-0.6,1.2c0,0.6,0.4,1.1,1.7,1.1h1.9c2.3,0,3.4,0.7,3.4,2.3
							c0,1.8-1.9,3.4-4.9,3.4C493.7,138.5,492.1,137.6,492.1,135.9z M499.5,135.4c0-0.9-0.7-1.2-2-1.2h-1.7c-0.4,0-0.8-0.1-1.3-0.2
							c-0.7,0.5-1,1.1-1,1.7c0,1,1.1,1.7,2.8,1.7C498.2,137.4,499.5,136.4,499.5,135.4z M498.2,127.5c0-1.4-0.9-2.3-2.1-2.3
							s-2.1,0.8-2.1,2.3c0,1.4,1,2.3,2.1,2.3C497.3,129.8,498.2,128.9,498.2,127.5z"/>
						<path class="st2" d="M502.7,121.1c0-0.7,0.5-1.1,1.1-1.1s1.1,0.4,1.1,1.1c0,0.6-0.5,1.1-1.1,1.1S502.7,121.8,502.7,121.1z
							 M503,124.2h1.6v9.8H503V124.2z"/>
						<path class="st2" d="M507.2,129.1c0-3.3,2.2-5.1,4.7-5.1c1.3,0,2.2,0.5,2.9,1.2l-0.8,1.1c-0.6-0.5-1.2-0.9-2-0.9
							c-1.8,0-3.1,1.5-3.1,3.8c0,2.3,1.2,3.7,3,3.7c0.9,0,1.7-0.4,2.3-1l0.7,1.1c-0.9,0.8-2,1.2-3.2,1.2
							C509.2,134.2,507.2,132.4,507.2,129.1z"/>
						<path class="st2" d="M516.3,131.5c0-2.1,1.9-3.2,6-3.7c0-1.3-0.4-2.5-2-2.5c-1.1,0-2.2,0.5-2.9,1l-0.6-1.1
							c0.9-0.6,2.3-1.3,3.9-1.3c2.4,0,3.4,1.6,3.4,4v6h-1.4l-0.1-1.2h-0.1c-0.9,0.8-2,1.4-3.2,1.4
							C517.5,134.2,516.3,133.2,516.3,131.5z M522.3,131.6v-2.7c-3.3,0.4-4.4,1.2-4.4,2.5c0,1.1,0.8,1.6,1.7,1.6
							C520.6,132.9,521.3,132.5,522.3,131.6z"/>
						<path class="st2" d="M527,132.1v-12.4h1.6v12.5c0,0.5,0.2,0.7,0.5,0.7c0.1,0,0.2,0,0.3,0l0.2,1.3c-0.2,0.1-0.5,0.1-1,0.1
							C527.5,134.2,527,133.4,527,132.1z"/>
						<path class="st2" d="M532.2,132.1v-12.4h1.6v12.5c0,0.5,0.2,0.7,0.5,0.7c0.1,0,0.2,0,0.3,0l0.2,1.3c-0.2,0.1-0.5,0.1-1,0.1
							C532.7,134.2,532.2,133.4,532.2,132.1z"/>
						<path class="st2" d="M536.3,138l0.3-1.3c0.2,0.1,0.5,0.2,0.7,0.2c1.1,0,1.8-0.9,2.2-2.1l0.2-0.7l-3.9-9.8h1.7l2,5.4
							c0.3,0.8,0.6,1.9,0.9,2.7h0.1c0.3-0.9,0.6-1.9,0.8-2.7l1.7-5.4h1.6l-3.7,10.6c-0.7,1.9-1.7,3.4-3.6,3.4
							C537,138.2,536.6,138.1,536.3,138z"/>
						<path class="st2" d="M549.6,132.9l0.8-1.1c0.8,0.7,1.7,1.2,2.9,1.2c1.3,0,1.9-0.7,1.9-1.5c0-1-1.2-1.4-2.2-1.9
							c-1.4-0.5-2.9-1.2-2.9-2.8c0-1.5,1.2-2.8,3.4-2.8c1.2,0,2.3,0.5,3,1.1l-0.8,1.1c-0.7-0.5-1.4-0.9-2.3-0.9
							c-1.2,0-1.8,0.6-1.8,1.4c0,0.9,1.1,1.3,2.2,1.7c1.4,0.5,3,1.1,3,3c0,1.6-1.3,2.9-3.6,2.9C551.9,134.2,550.5,133.7,549.6,132.9
							z"/>
						<path class="st2" d="M559,130.4v-6.2h1.6v6c0,1.8,0.5,2.6,1.8,2.6c1,0,1.7-0.5,2.6-1.7v-6.9h1.6v9.8h-1.4l-0.1-1.5h-0.1
							c-0.9,1.1-1.9,1.8-3.2,1.8C559.9,134.2,559,132.9,559,130.4z"/>
						<path class="st2" d="M569,132.9l0.8-1.1c0.8,0.7,1.7,1.2,2.9,1.2c1.3,0,1.9-0.7,1.9-1.5c0-1-1.2-1.4-2.2-1.9
							c-1.4-0.5-2.9-1.2-2.9-2.8c0-1.5,1.2-2.8,3.4-2.8c1.2,0,2.3,0.5,3,1.1l-0.8,1.1c-0.7-0.5-1.4-0.9-2.3-0.9
							c-1.2,0-1.8,0.6-1.8,1.4c0,0.9,1.1,1.3,2.2,1.7c1.4,0.5,3,1.1,3,3c0,1.6-1.3,2.9-3.6,2.9C571.2,134.2,569.9,133.7,569,132.9z"
							/>
						<path class="st2" d="M578.4,131v-5.4h-1.5v-1.2l1.5-0.1l0.2-2.7h1.4v2.7h2.6v1.3H580v5.5c0,1.2,0.4,1.9,1.5,1.9
							c0.3,0,0.8-0.1,1.1-0.3l0.3,1.2c-0.6,0.2-1.2,0.4-1.8,0.4C579.1,134.2,578.4,132.9,578.4,131z"/>
						<path class="st2" d="M583.8,131.5c0-2.1,1.9-3.2,6-3.7c0-1.3-0.4-2.5-2-2.5c-1.1,0-2.2,0.5-2.9,1l-0.6-1.1
							c0.9-0.6,2.3-1.3,3.9-1.3c2.4,0,3.4,1.6,3.4,4v6h-1.4l-0.1-1.2h-0.1c-0.9,0.8-2,1.4-3.2,1.4
							C585.1,134.2,583.8,133.2,583.8,131.5z M589.8,131.6v-2.7c-3.3,0.4-4.4,1.2-4.4,2.5c0,1.1,0.8,1.6,1.7,1.6
							C588.1,132.9,588.9,132.5,589.8,131.6z"/>
						<path class="st2" d="M594.3,121.1c0-0.7,0.5-1.1,1.1-1.1s1.1,0.4,1.1,1.1c0,0.6-0.5,1.1-1.1,1.1S594.3,121.8,594.3,121.1z
							 M594.6,124.2h1.6v9.8h-1.6V124.2z"/>
						<path class="st2" d="M599.5,124.2h1.4l0.1,1.4h0.1c0.9-0.9,1.9-1.7,3.3-1.7c2.1,0,3,1.3,3,3.8v6.2h-1.6v-6
							c0-1.8-0.6-2.6-1.9-2.6c-1,0-1.7,0.5-2.7,1.5v7.1h-1.6V124.2z"/>
						<path class="st2" d="M609.9,131.5c0-2.1,1.9-3.2,6-3.7c0-1.3-0.4-2.5-2-2.5c-1.1,0-2.2,0.5-2.9,1l-0.6-1.1
							c0.9-0.6,2.3-1.3,3.9-1.3c2.4,0,3.4,1.6,3.4,4v6h-1.4l-0.1-1.2H616c-0.9,0.8-2,1.4-3.2,1.4
							C611.2,134.2,609.9,133.2,609.9,131.5z M615.9,131.6v-2.7c-3.3,0.4-4.4,1.2-4.4,2.5c0,1.1,0.8,1.6,1.7,1.6
							C614.2,132.9,615,132.5,615.9,131.6z"/>
						<path class="st2" d="M622.2,133L622.2,133l-0.2,1h-1.3v-14.3h1.6v3.9l-0.1,1.8c0.9-0.8,2-1.4,3.1-1.4c2.5,0,3.9,2,3.9,5
							c0,3.4-2,5.3-4.2,5.3C624.1,134.2,623.1,133.8,622.2,133z M627.5,129c0-2.2-0.7-3.6-2.6-3.6c-0.8,0-1.7,0.5-2.6,1.4v5.1
							c0.9,0.8,1.7,1,2.4,1C626.3,132.9,627.5,131.4,627.5,129z"/>
						<path class="st2" d="M631.8,132.1v-12.4h1.6v12.5c0,0.5,0.2,0.7,0.5,0.7c0.1,0,0.2,0,0.3,0l0.2,1.3c-0.2,0.1-0.5,0.1-1,0.1
							C632.3,134.2,631.8,133.4,631.8,132.1z"/>
						<path class="st2" d="M636.2,129.1c0-3.2,2.1-5.1,4.4-5.1c2.5,0,3.9,1.8,3.9,4.6c0,0.4,0,0.7-0.1,0.9h-6.6
							c0.1,2.1,1.4,3.4,3.2,3.4c1,0,1.7-0.3,2.4-0.8l0.6,1.1c-0.9,0.6-1.9,1-3.2,1C638.3,134.2,636.2,132.3,636.2,129.1z
							 M643.1,128.3c0-2-0.9-3-2.4-3c-1.4,0-2.6,1.1-2.8,3H643.1z"/>
						<path class="st2" d="M652.5,133L652.5,133l-0.2,1H651v-14.3h1.6v3.9l-0.1,1.8c0.9-0.8,2-1.4,3.1-1.4c2.5,0,3.9,2,3.9,5
							c0,3.4-2,5.3-4.2,5.3C654.4,134.2,653.3,133.8,652.5,133z M657.8,129c0-2.2-0.7-3.6-2.6-3.6c-0.8,0-1.7,0.5-2.6,1.4v5.1
							c0.9,0.8,1.7,1,2.4,1C656.6,132.9,657.8,131.4,657.8,129z"/>
						<path class="st2" d="M661.3,129.1c0-3.3,2.1-5.1,4.5-5.1s4.5,1.9,4.5,5.1c0,3.2-2.1,5.1-4.5,5.1S661.3,132.4,661.3,129.1z
							 M668.7,129.1c0-2.2-1.2-3.8-2.8-3.8c-1.7,0-2.8,1.5-2.8,3.8c0,2.3,1.1,3.7,2.8,3.7C667.6,132.9,668.7,131.4,668.7,129.1z"/>
						<path class="st2" d="M672.9,131v-5.4h-1.5v-1.2l1.5-0.1l0.2-2.7h1.4v2.7h2.6v1.3h-2.6v5.5c0,1.2,0.4,1.9,1.5,1.9
							c0.3,0,0.8-0.1,1.1-0.3l0.3,1.2c-0.6,0.2-1.2,0.4-1.8,0.4C673.6,134.2,672.9,132.9,672.9,131z"/>
						<path class="st2" d="M678.4,131.5c0-2.1,1.9-3.2,6-3.7c0-1.3-0.4-2.5-2-2.5c-1.1,0-2.2,0.5-2.9,1l-0.6-1.1
							c0.9-0.6,2.3-1.3,3.9-1.3c2.4,0,3.4,1.6,3.4,4v6h-1.3l-0.1-1.2h-0.1c-0.9,0.8-2,1.4-3.2,1.4
							C679.6,134.2,678.4,133.2,678.4,131.5z M684.4,131.6v-2.7c-3.3,0.4-4.4,1.2-4.4,2.5c0,1.1,0.8,1.6,1.7,1.6
							C682.7,132.9,683.4,132.5,684.4,131.6z"/>
						<path class="st2" d="M689.1,124.2h1.4l0.1,1.4h0.1c0.9-0.9,1.9-1.7,3.3-1.7c2.1,0,3,1.3,3,3.8v6.2h-1.6v-6
							c0-1.8-0.6-2.6-1.9-2.6c-1,0-1.7,0.5-2.7,1.5v7.1h-1.6V124.2z"/>
						<path class="st2" d="M699.8,121.1c0-0.7,0.5-1.1,1.1-1.1c0.6,0,1.1,0.4,1.1,1.1c0,0.6-0.5,1.1-1.1,1.1
							C700.3,122.2,699.8,121.8,699.8,121.1z M700.1,124.2h1.6v9.8h-1.6V124.2z"/>
						<path class="st2" d="M704.4,129.1c0-3.3,2.2-5.1,4.7-5.1c1.3,0,2.2,0.5,2.9,1.2l-0.8,1.1c-0.6-0.5-1.2-0.9-2-0.9
							c-1.8,0-3.1,1.5-3.1,3.8c0,2.3,1.2,3.7,3,3.7c0.9,0,1.7-0.4,2.3-1l0.7,1.1c-0.9,0.8-2,1.2-3.2,1.2
							C706.4,134.2,704.4,132.4,704.4,129.1z"/>
						<path class="st2" d="M713.4,131.5c0-2.1,1.9-3.2,6-3.7c0-1.3-0.4-2.5-2-2.5c-1.1,0-2.2,0.5-2.9,1l-0.6-1.1
							c0.9-0.6,2.3-1.3,3.9-1.3c2.4,0,3.4,1.6,3.4,4v6h-1.4l-0.1-1.2h-0.1c-0.9,0.8-2,1.4-3.2,1.4
							C714.7,134.2,713.4,133.2,713.4,131.5z M719.5,131.6v-2.7c-3.3,0.4-4.4,1.2-4.4,2.5c0,1.1,0.8,1.6,1.7,1.6
							C717.7,132.9,718.5,132.5,719.5,131.6z"/>
						<path class="st2" d="M724.2,132.1v-12.4h1.6v12.5c0,0.5,0.2,0.7,0.5,0.7c0.1,0,0.2,0,0.3,0l0.2,1.3c-0.2,0.1-0.5,0.1-1,0.1
							C724.7,134.2,724.2,133.4,724.2,132.1z"/>
						<path class="st2" d="M732.3,132.9l0.8-1.1c0.8,0.7,1.7,1.2,2.9,1.2c1.3,0,1.9-0.7,1.9-1.5c0-1-1.2-1.4-2.2-1.9
							c-1.4-0.5-2.9-1.2-2.9-2.8c0-1.5,1.2-2.8,3.4-2.8c1.2,0,2.3,0.5,3,1.1l-0.8,1.1c-0.7-0.5-1.4-0.9-2.3-0.9
							c-1.2,0-1.8,0.6-1.8,1.4c0,0.9,1.1,1.3,2.2,1.7c1.4,0.5,3,1.1,3,3c0,1.6-1.3,2.9-3.6,2.9C734.5,134.2,733.2,133.7,732.3,132.9
							z"/>
						<path class="st2" d="M741.1,129.1c0-3.3,2.1-5.1,4.5-5.1s4.5,1.9,4.5,5.1c0,3.2-2.1,5.1-4.5,5.1S741.1,132.4,741.1,129.1z
							 M748.4,129.1c0-2.2-1.2-3.8-2.8-3.8s-2.8,1.5-2.8,3.8c0,2.3,1.1,3.7,2.8,3.7S748.4,131.4,748.4,129.1z"/>
						<path class="st2" d="M752.6,130.4v-6.2h1.6v6c0,1.8,0.5,2.6,1.8,2.6c1,0,1.7-0.5,2.6-1.7v-6.9h1.6v9.8H759l-0.1-1.5h-0.1
							c-0.9,1.1-1.9,1.8-3.2,1.8C753.5,134.2,752.6,132.9,752.6,130.4z"/>
						<path class="st2" d="M763.6,124.2h1.4l0.1,1.8h0.1c0.7-1.2,1.7-2,2.8-2c0.4,0,0.7,0.1,1,0.2l-0.3,1.4c-0.3-0.1-0.6-0.2-1-0.2
							c-0.8,0-1.8,0.6-2.5,2.2v6.3h-1.6V124.2z"/>
						<path class="st2" d="M769.7,129.1c0-3.3,2.2-5.1,4.7-5.1c1.3,0,2.2,0.5,2.9,1.2l-0.8,1.1c-0.6-0.5-1.2-0.9-2-0.9
							c-1.8,0-3.1,1.5-3.1,3.8c0,2.3,1.2,3.7,3,3.7c0.9,0,1.7-0.4,2.3-1l0.7,1.1c-0.9,0.8-2,1.2-3.2,1.2
							C771.7,134.2,769.7,132.4,769.7,129.1z"/>
						<path class="st2" d="M778.4,129.1c0-3.2,2.1-5.1,4.4-5.1c2.5,0,3.9,1.8,3.9,4.6c0,0.4,0,0.7-0.1,0.9H780
							c0.1,2.1,1.4,3.4,3.2,3.4c1,0,1.7-0.3,2.4-0.8l0.6,1.1c-0.9,0.6-1.9,1-3.2,1C780.5,134.2,778.4,132.3,778.4,129.1z
							 M785.3,128.3c0-2-0.9-3-2.4-3c-1.4,0-2.6,1.1-2.8,3H785.3z"/>
						<path class="st2" d="M788,132.9l0.8-1.1c0.8,0.7,1.7,1.2,2.9,1.2c1.3,0,1.9-0.7,1.9-1.5c0-1-1.2-1.4-2.2-1.9
							c-1.4-0.5-2.9-1.2-2.9-2.8c0-1.5,1.2-2.8,3.4-2.8c1.2,0,2.3,0.5,3,1.1l-0.8,1.1c-0.7-0.5-1.4-0.9-2.2-0.9
							c-1.2,0-1.8,0.6-1.8,1.4c0,0.9,1.1,1.3,2.2,1.7c1.4,0.5,3,1.1,3,3c0,1.6-1.3,2.9-3.6,2.9C790.3,134.2,789,133.7,788,132.9z"/>
					</g>
					<text transform="matrix(1 0 0 1 795.8855 134)" class="st2 st5 st6"> </text>
					<g class="st1">
						<path class="st2" d="M105.8,163.3h4.6v1.3h-4.6V163.3z"/>
						<path class="st2" d="M115.3,155.8h1.7l2.1,7.1c0.5,1.5,0.8,2.8,1.3,4.4h0.1c0.5-1.5,0.8-2.8,1.3-4.4l2.1-7.1h1.7l-4.2,13.2
							h-1.9L115.3,155.8z"/>
						<path class="st2" d="M126.2,164.1c0-3.2,2.1-5.1,4.4-5.1c2.5,0,3.9,1.8,3.9,4.6c0,0.4,0,0.7-0.1,0.9h-6.6
							c0.1,2.1,1.4,3.4,3.2,3.4c1,0,1.7-0.3,2.4-0.8l0.6,1.1c-0.9,0.6-1.9,1-3.2,1C128.3,169.2,126.2,167.3,126.2,164.1z
							 M133.1,163.3c0-2-0.9-3-2.4-3c-1.4,0-2.6,1.1-2.8,3H133.1z"/>
						<path class="st2" d="M137,159.2h1.4l0.1,1.8h0.1c0.7-1.2,1.7-2,2.8-2c0.4,0,0.7,0.1,1,0.2l-0.3,1.4c-0.3-0.1-0.6-0.2-1-0.2
							c-0.8,0-1.8,0.6-2.5,2.2v6.3H137V159.2z"/>
						<path class="st2" d="M143.6,156.1c0-0.7,0.5-1.1,1.1-1.1c0.6,0,1.1,0.4,1.1,1.1c0,0.6-0.5,1.1-1.1,1.1
							C144.1,157.2,143.6,156.8,143.6,156.1z M143.9,159.2h1.6v9.8h-1.6V159.2z"/>
						<path class="st2" d="M153.3,156c-0.4-0.2-0.8-0.3-1.1-0.3c-0.9,0-1.4,0.7-1.4,1.9v1.5h2.1v1.3h-2.1v8.4h-1.6v-8.4h-1.3v-1.2
							l1.3-0.1v-1.6c0-2,0.9-3.2,2.8-3.2c0.6,0,1.2,0.1,1.6,0.3L153.3,156z"/>
						<path class="st2" d="M153.7,173l0.3-1.3c0.2,0.1,0.5,0.2,0.7,0.2c1.1,0,1.8-0.9,2.2-2.1l0.2-0.7l-3.9-9.8h1.7l2,5.4
							c0.3,0.8,0.6,1.9,0.9,2.7h0.1c0.3-0.9,0.6-1.9,0.8-2.7l1.7-5.4h1.6l-3.7,10.6c-0.7,1.9-1.7,3.4-3.6,3.4
							C154.4,173.2,154,173.1,153.7,173z"/>
						<path class="st2" d="M167.4,164.1c0-3.2,2.1-5.1,4.4-5.1c2.5,0,3.9,1.8,3.9,4.6c0,0.4,0,0.7-0.1,0.9H169
							c0.1,2.1,1.4,3.4,3.2,3.4c1,0,1.7-0.3,2.4-0.8l0.6,1.1c-0.9,0.6-1.9,1-3.2,1C169.5,169.2,167.4,167.3,167.4,164.1z
							 M174.3,163.3c0-2-0.9-3-2.4-3c-1.4,0-2.6,1.1-2.8,3H174.3z"/>
						<path class="st2" d="M188.2,156c-0.4-0.2-0.8-0.3-1.1-0.3c-0.9,0-1.4,0.7-1.4,1.9v1.5h2.1v1.3h-2.1v8.4h-1.6v-8.4H180v8.4
							h-1.6v-8.4h-1.3v-1.2l1.3-0.1v-1.3c0-2,1-3.3,3-3.3c0.6,0,1.3,0.1,1.8,0.3l-0.3,1.3c-0.4-0.2-0.8-0.3-1.3-0.3
							c-1,0-1.5,0.7-1.5,2v1.3h4.1v-1.6c0-2,0.9-3.2,2.9-3.2c0.6,0,1.2,0.1,1.6,0.3L188.2,156z"/>
						<path class="st2" d="M188.8,164.1c0-3.2,2.1-5.1,4.4-5.1c2.5,0,3.9,1.8,3.9,4.6c0,0.4,0,0.7-0.1,0.9h-6.6
							c0.1,2.1,1.4,3.4,3.2,3.4c1,0,1.7-0.3,2.4-0.8l0.6,1.1c-0.9,0.6-1.9,1-3.2,1C190.8,169.2,188.8,167.3,188.8,164.1z
							 M195.6,163.3c0-2-0.9-3-2.4-3c-1.4,0-2.6,1.1-2.8,3H195.6z"/>
						<path class="st2" d="M198.7,164.1c0-3.3,2.2-5.1,4.7-5.1c1.3,0,2.2,0.5,2.9,1.2l-0.8,1.1c-0.6-0.5-1.2-0.9-2-0.9
							c-1.8,0-3.1,1.5-3.1,3.8c0,2.3,1.2,3.7,3,3.7c0.9,0,1.7-0.4,2.3-1l0.7,1.1c-0.9,0.8-2,1.2-3.2,1.2
							C200.7,169.2,198.7,167.4,198.7,164.1z"/>
						<path class="st2" d="M208.7,166v-5.4h-1.5v-1.2l1.5-0.1l0.2-2.7h1.4v2.7h2.6v1.3h-2.6v5.5c0,1.2,0.4,1.9,1.5,1.9
							c0.3,0,0.8-0.1,1.1-0.3l0.3,1.2c-0.6,0.2-1.2,0.4-1.8,0.4C209.4,169.2,208.7,167.9,208.7,166z"/>
						<path class="st2" d="M213.9,167.9l0.8-1.1c0.8,0.7,1.7,1.2,2.9,1.2c1.3,0,1.9-0.7,1.9-1.5c0-1-1.2-1.4-2.2-1.9
							c-1.4-0.5-2.9-1.2-2.9-2.8c0-1.5,1.2-2.8,3.4-2.8c1.2,0,2.3,0.5,3,1.1l-0.8,1.1c-0.7-0.5-1.4-0.9-2.3-0.9
							c-1.2,0-1.8,0.6-1.8,1.4c0,0.9,1.1,1.3,2.2,1.7c1.4,0.5,3,1.1,3,3c0,1.6-1.3,2.9-3.6,2.9C216.2,169.2,214.9,168.7,213.9,167.9
							z"/>
						<path class="st2" d="M226.3,159.2h1.7l1.5,5.7c0.2,0.9,0.4,1.8,0.6,2.7h0.1c0.2-0.9,0.4-1.8,0.7-2.7l1.5-5.7h1.6l1.5,5.7
							c0.2,0.9,0.5,1.8,0.7,2.7h0.1c0.2-0.9,0.4-1.8,0.6-2.7l1.4-5.7h1.5l-2.6,9.8h-2l-1.4-5.3c-0.3-0.9-0.4-1.8-0.7-2.8H233
							c-0.2,1-0.4,1.9-0.7,2.8l-1.4,5.2H229L226.3,159.2z"/>
						<path class="st2" d="M241.6,156.1c0-0.7,0.5-1.1,1.1-1.1c0.6,0,1.1,0.4,1.1,1.1c0,0.6-0.5,1.1-1.1,1.1
							C242.1,157.2,241.6,156.8,241.6,156.1z M241.9,159.2h1.6v9.8h-1.6V159.2z"/>
						<path class="st2" d="M247.1,166v-5.4h-1.5v-1.2l1.5-0.1l0.2-2.7h1.4v2.7h2.6v1.3h-2.6v5.5c0,1.2,0.4,1.9,1.5,1.9
							c0.3,0,0.8-0.1,1.1-0.3l0.3,1.2c-0.6,0.2-1.2,0.4-1.8,0.4C247.8,169.2,247.1,167.9,247.1,166z"/>
						<path class="st2" d="M253.6,154.7h1.6v3.9l-0.1,2c0.9-0.9,1.9-1.6,3.2-1.6c2.1,0,3,1.3,3,3.8v6.2h-1.6v-6
							c0-1.8-0.6-2.6-1.9-2.6c-1,0-1.7,0.5-2.7,1.5v7.1h-1.6V154.7z"/>
						<path class="st2" d="M267.9,164.1c0-3.3,2.2-5.1,4.7-5.1c1.3,0,2.2,0.5,2.9,1.2l-0.8,1.1c-0.6-0.5-1.2-0.9-2-0.9
							c-1.8,0-3.1,1.5-3.1,3.8c0,2.3,1.2,3.7,3,3.7c0.9,0,1.7-0.4,2.3-1l0.7,1.1c-0.9,0.8-2,1.2-3.2,1.2
							C269.9,169.2,267.9,167.4,267.9,164.1z"/>
						<path class="st2" d="M276.6,164.1c0-3.2,2.1-5.1,4.4-5.1c2.5,0,3.9,1.8,3.9,4.6c0,0.4,0,0.7-0.1,0.9h-6.6
							c0.1,2.1,1.4,3.4,3.2,3.4c1,0,1.7-0.3,2.4-0.8l0.6,1.1c-0.9,0.6-1.9,1-3.2,1C278.7,169.2,276.6,167.3,276.6,164.1z
							 M283.5,163.3c0-2-0.9-3-2.4-3c-1.4,0-2.6,1.1-2.8,3H283.5z"/>
						<path class="st2" d="M287.3,167.1v-12.4h1.6v12.5c0,0.5,0.2,0.7,0.5,0.7c0.1,0,0.2,0,0.3,0l0.2,1.3c-0.2,0.1-0.5,0.1-1,0.1
							C287.8,169.2,287.3,168.4,287.3,167.1z"/>
						<path class="st2" d="M292.4,167.1v-12.4h1.6v12.5c0,0.5,0.2,0.7,0.5,0.7c0.1,0,0.2,0,0.3,0l0.2,1.3c-0.2,0.1-0.5,0.1-1,0.1
							C292.9,169.2,292.4,168.4,292.4,167.1z"/>
						<path class="st2" d="M301.5,154.7h1.2l-5.4,17.5h-1.2L301.5,154.7z"/>
						<path class="st2" d="M303.5,166.5c0-2.1,1.9-3.2,6-3.7c0-1.3-0.4-2.5-2-2.5c-1.1,0-2.2,0.5-2.9,1l-0.6-1.1
							c0.9-0.6,2.3-1.3,3.9-1.3c2.4,0,3.4,1.6,3.4,4v6h-1.4l-0.1-1.2h-0.1c-0.9,0.8-2,1.4-3.2,1.4
							C304.7,169.2,303.5,168.2,303.5,166.5z M309.5,166.6v-2.7c-3.3,0.4-4.4,1.2-4.4,2.5c0,1.1,0.8,1.6,1.7,1.6
							C307.8,167.9,308.6,167.5,309.5,166.6z"/>
						<path class="st2" d="M314.3,159.2h1.4l0.1,1.8h0.1c0.7-1.2,1.7-2,2.8-2c0.4,0,0.7,0.1,1,0.2l-0.3,1.4c-0.3-0.1-0.6-0.2-1-0.2
							c-0.8,0-1.8,0.6-2.5,2.2v6.3h-1.6V159.2z"/>
						<path class="st2" d="M321.6,166v-5.4h-1.5v-1.2l1.5-0.1l0.2-2.7h1.4v2.7h2.6v1.3h-2.6v5.5c0,1.2,0.4,1.9,1.5,1.9
							c0.3,0,0.8-0.1,1.1-0.3l0.3,1.2c-0.6,0.2-1.2,0.4-1.8,0.4C322.3,169.2,321.6,167.9,321.6,166z"/>
						<path class="st2" d="M327.7,156.1c0-0.7,0.5-1.1,1.1-1.1c0.6,0,1.1,0.4,1.1,1.1c0,0.6-0.5,1.1-1.1,1.1
							C328.2,157.2,327.7,156.8,327.7,156.1z M328.1,159.2h1.6v9.8h-1.6V159.2z"/>
						<path class="st2" d="M333.3,157.7c0-2,0.9-3.2,2.8-3.2c0.6,0,1.2,0.1,1.6,0.3l-0.4,1.2c-0.4-0.2-0.8-0.3-1.1-0.3
							c-0.9,0-1.4,0.7-1.4,1.9v1.5h2.1v1.3h-2.1v8.4h-1.6v-8.4h-1.3v-1.2l1.3-0.1V157.7z M341.2,156.1c0,0.6-0.5,1.1-1.2,1.1
							c-0.6,0-1.1-0.5-1.1-1.1c0-0.7,0.5-1.1,1.1-1.1C340.7,155.1,341.2,155.5,341.2,156.1z M339.2,159.2h1.7v9.8h-1.7V159.2z"/>
						<path class="st2" d="M343.4,164.1c0-3.3,2.2-5.1,4.7-5.1c1.3,0,2.2,0.5,2.9,1.2l-0.8,1.1c-0.6-0.5-1.2-0.9-2-0.9
							c-1.8,0-3.1,1.5-3.1,3.8c0,2.3,1.2,3.7,3,3.7c0.9,0,1.7-0.4,2.3-1l0.7,1.1c-0.9,0.8-2,1.2-3.2,1.2
							C345.4,169.2,343.4,167.4,343.4,164.1z"/>
						<path class="st2" d="M353,156.1c0-0.7,0.5-1.1,1.1-1.1c0.6,0,1.1,0.4,1.1,1.1c0,0.6-0.5,1.1-1.1,1.1
							C353.5,157.2,353,156.8,353,156.1z M353.3,159.2h1.6v9.8h-1.6V159.2z"/>
						<path class="st2" d="M357.7,166.5c0-2.1,1.9-3.2,6-3.7c0-1.3-0.4-2.5-2-2.5c-1.1,0-2.2,0.5-2.9,1l-0.6-1.1
							c0.9-0.6,2.3-1.3,3.9-1.3c2.4,0,3.4,1.6,3.4,4v6H364l-0.1-1.2h-0.1c-0.9,0.8-2,1.4-3.2,1.4
							C358.9,169.2,357.7,168.2,357.7,166.5z M363.7,166.6v-2.7c-3.3,0.4-4.4,1.2-4.4,2.5c0,1.1,0.8,1.6,1.7,1.6
							C361.9,167.9,362.7,167.5,363.7,166.6z"/>
						<path class="st2" d="M368.4,167.1v-12.4h1.6v12.5c0,0.5,0.2,0.7,0.5,0.7c0.1,0,0.2,0,0.3,0l0.2,1.3c-0.2,0.1-0.5,0.1-1,0.1
							C368.9,169.2,368.4,168.4,368.4,167.1z"/>
						<path class="st2" d="M376.5,167.9l0.8-1.1c0.8,0.7,1.7,1.2,2.9,1.2c1.3,0,1.9-0.7,1.9-1.5c0-1-1.2-1.4-2.2-1.9
							c-1.4-0.5-2.9-1.2-2.9-2.8c0-1.5,1.2-2.8,3.4-2.8c1.2,0,2.3,0.5,3,1.1l-0.8,1.1c-0.7-0.5-1.4-0.9-2.3-0.9
							c-1.2,0-1.8,0.6-1.8,1.4c0,0.9,1.1,1.3,2.2,1.7c1.4,0.5,3,1.1,3,3c0,1.6-1.3,2.9-3.6,2.9C378.8,169.2,377.4,168.7,376.5,167.9
							z"/>
						<path class="st2" d="M386,154.7h1.6v9.7h0l4.2-5.2h1.8l-3.3,3.9l3.7,5.9h-1.8l-2.9-4.7l-1.8,2.1v2.6H386V154.7z"/>
						<path class="st2" d="M395.6,156.1c0-0.7,0.5-1.1,1.1-1.1c0.6,0,1.1,0.4,1.1,1.1c0,0.6-0.5,1.1-1.1,1.1
							C396.1,157.2,395.6,156.8,395.6,156.1z M395.9,159.2h1.6v9.8h-1.6V159.2z"/>
						<path class="st2" d="M400.9,159.2h1.4l0.1,1.4h0.1c0.9-0.9,1.9-1.7,3.3-1.7c2.1,0,3,1.3,3,3.8v6.2h-1.6v-6
							c0-1.8-0.6-2.6-1.9-2.6c-1,0-1.7,0.5-2.7,1.5v7.1h-1.6V159.2z"/>
						<path class="st2" d="M416.2,166v-5.4h-1.5v-1.2l1.5-0.1l0.2-2.7h1.4v2.7h2.6v1.3h-2.6v5.5c0,1.2,0.4,1.9,1.5,1.9
							c0.3,0,0.8-0.1,1.1-0.3l0.3,1.2c-0.6,0.2-1.2,0.4-1.8,0.4C416.9,169.2,416.2,167.9,416.2,166z"/>
						<path class="st2" d="M421.7,164.1c0-3.2,2.1-5.1,4.4-5.1c2.5,0,3.9,1.8,3.9,4.6c0,0.4,0,0.7-0.1,0.9h-6.6
							c0.1,2.1,1.4,3.4,3.2,3.4c1,0,1.7-0.3,2.4-0.8l0.6,1.1c-0.9,0.6-1.9,1-3.2,1C423.8,169.2,421.7,167.3,421.7,164.1z
							 M428.6,163.3c0-2-0.9-3-2.4-3c-1.4,0-2.6,1.1-2.8,3H428.6z"/>
						<path class="st2" d="M431.3,167.9l0.8-1.1c0.8,0.7,1.7,1.2,2.9,1.2c1.3,0,1.9-0.7,1.9-1.5c0-1-1.2-1.4-2.2-1.9
							c-1.4-0.5-2.9-1.2-2.9-2.8c0-1.5,1.2-2.8,3.4-2.8c1.2,0,2.3,0.5,3,1.1l-0.8,1.1c-0.7-0.5-1.4-0.9-2.3-0.9
							c-1.2,0-1.8,0.6-1.8,1.4c0,0.9,1.1,1.3,2.2,1.7c1.4,0.5,3,1.1,3,3c0,1.6-1.3,2.9-3.6,2.9C433.6,169.2,432.3,168.7,431.3,167.9
							z"/>
						<path class="st2" d="M440.7,166v-5.4h-1.5v-1.2l1.5-0.1l0.2-2.7h1.4v2.7h2.6v1.3h-2.6v5.5c0,1.2,0.4,1.9,1.5,1.9
							c0.3,0,0.8-0.1,1.1-0.3l0.3,1.2c-0.6,0.2-1.2,0.4-1.8,0.4C441.4,169.2,440.7,167.9,440.7,166z"/>
						<path class="st2" d="M445.9,167.9l0.8-1.1c0.8,0.7,1.7,1.2,2.9,1.2c1.3,0,1.9-0.7,1.9-1.5c0-1-1.2-1.4-2.2-1.9
							c-1.4-0.5-2.9-1.2-2.9-2.8c0-1.5,1.2-2.8,3.4-2.8c1.2,0,2.3,0.5,3,1.1l-0.8,1.1c-0.7-0.5-1.4-0.9-2.3-0.9
							c-1.2,0-1.8,0.6-1.8,1.4c0,0.9,1.1,1.3,2.2,1.7c1.4,0.5,3,1.1,3,3c0,1.6-1.3,2.9-3.6,2.9C448.2,169.2,446.9,168.7,445.9,167.9
							z"/>
						<path class="st2" d="M459.5,163.4c0-3.5,1-6.4,2.6-9.1l1,0.5c-1.6,2.6-2.3,5.6-2.3,8.7s0.7,6.1,2.3,8.7l-1,0.5
							C460.5,169.8,459.5,166.9,459.5,163.4z"/>
						<path class="st2" d="M465.6,159.2h1.4l0.1,1.8h0.1c0.7-1.2,1.7-2,2.8-2c0.4,0,0.7,0.1,1,0.2l-0.3,1.4c-0.3-0.1-0.6-0.2-1-0.2
							c-0.8,0-1.8,0.6-2.5,2.2v6.3h-1.6V159.2z"/>
						<path class="st2" d="M471.6,164.1c0-3.2,2.1-5.1,4.4-5.1c2.5,0,3.9,1.8,3.9,4.6c0,0.4,0,0.7-0.1,0.9h-6.6
							c0.1,2.1,1.4,3.4,3.2,3.4c1,0,1.7-0.3,2.4-0.8l0.6,1.1c-0.9,0.6-1.9,1-3.2,1C473.7,169.2,471.6,167.3,471.6,164.1z
							 M478.5,163.3c0-2-0.9-3-2.4-3c-1.4,0-2.6,1.1-2.8,3H478.5z"/>
						<path class="st2" d="M486.7,156c-0.4-0.2-0.8-0.3-1.1-0.3c-0.9,0-1.4,0.7-1.4,1.9v1.5h2.1v1.3h-2.1v8.4h-1.6v-8.4h-1.3v-1.2
							l1.3-0.1v-1.6c0-2,0.9-3.2,2.8-3.2c0.6,0,1.2,0.1,1.6,0.3L486.7,156z"/>
						<path class="st2" d="M488.2,159.2h1.4l0.1,1.8h0.1c0.7-1.2,1.7-2,2.8-2c0.4,0,0.7,0.1,1,0.2l-0.3,1.4c-0.3-0.1-0.6-0.2-1-0.2
							c-0.8,0-1.8,0.6-2.5,2.2v6.3h-1.6V159.2z"/>
						<path class="st2" d="M494.1,166.5c0-2.1,1.9-3.2,6-3.7c0-1.3-0.4-2.5-2-2.5c-1.1,0-2.2,0.5-2.9,1l-0.6-1.1
							c0.9-0.6,2.3-1.3,3.9-1.3c2.4,0,3.4,1.6,3.4,4v6h-1.4l-0.1-1.2h-0.1c-0.9,0.8-2,1.4-3.2,1.4
							C495.3,169.2,494.1,168.2,494.1,166.5z M500.1,166.6v-2.7c-3.3,0.4-4.4,1.2-4.4,2.5c0,1.1,0.8,1.6,1.7,1.6
							C498.4,167.9,499.1,167.5,500.1,166.6z"/>
						<path class="st2" d="M504.5,156.1c0-0.7,0.5-1.1,1.1-1.1c0.6,0,1.1,0.4,1.1,1.1c0,0.6-0.5,1.1-1.1,1.1
							C505,157.2,504.5,156.8,504.5,156.1z M504.8,159.2h1.6v9.8h-1.6V159.2z"/>
						<path class="st2" d="M509.8,159.2h1.3l0.1,1.4h0.1c0.9-0.9,1.9-1.7,3.3-1.7c2.1,0,3,1.3,3,3.8v6.2H516v-6
							c0-1.8-0.6-2.6-1.9-2.6c-1,0-1.7,0.5-2.7,1.5v7.1h-1.6V159.2z"/>
						<path class="st2" d="M529.2,156c-0.4-0.2-0.8-0.3-1.1-0.3c-0.9,0-1.4,0.7-1.4,1.9v1.5h2.1v1.3h-2.1v8.4h-1.6v-8.4h-1.3v-1.2
							l1.3-0.1v-1.6c0-2,0.9-3.2,2.8-3.2c0.6,0,1.2,0.1,1.6,0.3L529.2,156z"/>
						<path class="st2" d="M530.7,159.2h1.4l0.1,1.8h0.1c0.7-1.2,1.7-2,2.8-2c0.4,0,0.7,0.1,1,0.2l-0.3,1.4c-0.3-0.1-0.6-0.2-1-0.2
							c-0.8,0-1.8,0.6-2.5,2.2v6.3h-1.6V159.2z"/>
						<path class="st2" d="M536.7,164.1c0-3.3,2.1-5.1,4.5-5.1s4.5,1.9,4.5,5.1c0,3.2-2.1,5.1-4.5,5.1S536.7,167.4,536.7,164.1z
							 M544.1,164.1c0-2.2-1.2-3.8-2.8-3.8c-1.7,0-2.8,1.5-2.8,3.8c0,2.3,1.1,3.7,2.8,3.7C542.9,167.9,544.1,166.4,544.1,164.1z"/>
						<path class="st2" d="M548.4,159.2h1.4l0.1,1.4h0.1c0.8-0.9,1.9-1.7,3-1.7c1.5,0,2.3,0.7,2.7,1.9c1-1.1,2-1.9,3.2-1.9
							c2,0,3,1.3,3,3.8v6.2h-1.6v-6c0-1.8-0.6-2.6-1.8-2.6c-0.8,0-1.5,0.5-2.5,1.5v7.1h-1.6v-6c0-1.8-0.6-2.6-1.8-2.6
							c-0.7,0-1.6,0.5-2.5,1.5v7.1h-1.6V159.2z"/>
						<path class="st2" d="M568.9,165.4v-6.2h1.6v6c0,1.8,0.5,2.6,1.8,2.6c1,0,1.7-0.5,2.6-1.7v-6.9h1.6v9.8h-1.4l-0.1-1.5h-0.1
							c-0.9,1.1-1.9,1.8-3.2,1.8C569.8,169.2,568.9,167.9,568.9,165.4z"/>
						<path class="st2" d="M580,159.2h1.3l0.1,1.4h0.1c0.9-0.9,1.9-1.7,3.3-1.7c2.1,0,3,1.3,3,3.8v6.2h-1.6v-6
							c0-1.8-0.6-2.6-1.9-2.6c-1,0-1.7,0.5-2.7,1.5v7.1H580V159.2z"/>
						<path class="st2" d="M591,159.2h1.3l0.1,1.4h0.1c0.9-0.9,1.9-1.7,3.3-1.7c2.1,0,3,1.3,3,3.8v6.2h-1.6v-6
							c0-1.8-0.6-2.6-1.9-2.6c-1,0-1.7,0.5-2.7,1.5v7.1H591V159.2z"/>
						<path class="st2" d="M601.2,164.1c0-3.2,2.1-5.1,4.4-5.1c2.5,0,3.9,1.8,3.9,4.6c0,0.4,0,0.7-0.1,0.9h-6.6
							c0.1,2.1,1.4,3.4,3.2,3.4c1,0,1.7-0.3,2.4-0.8l0.6,1.1c-0.9,0.6-1.9,1-3.2,1C603.3,169.2,601.2,167.3,601.2,164.1z
							 M608.1,163.3c0-2-0.9-3-2.4-3c-1.4,0-2.6,1.1-2.8,3H608.1z"/>
						<path class="st2" d="M611.2,164.1c0-3.3,2.2-5.1,4.7-5.1c1.3,0,2.2,0.5,2.9,1.2l-0.8,1.1c-0.6-0.5-1.2-0.9-2-0.9
							c-1.8,0-3.1,1.5-3.1,3.8c0,2.3,1.2,3.7,3,3.7c0.9,0,1.7-0.4,2.3-1l0.7,1.1c-0.9,0.8-2,1.2-3.2,1.2
							C613.2,169.2,611.2,167.4,611.2,164.1z"/>
						<path class="st2" d="M619.9,164.1c0-3.2,2.1-5.1,4.4-5.1c2.5,0,3.9,1.8,3.9,4.6c0,0.4,0,0.7-0.1,0.9h-6.6
							c0.1,2.1,1.4,3.4,3.2,3.4c1,0,1.7-0.3,2.4-0.8l0.6,1.1c-0.9,0.6-1.9,1-3.2,1C622,169.2,619.9,167.3,619.9,164.1z M626.8,163.3
							c0-2-0.9-3-2.4-3c-1.4,0-2.6,1.1-2.8,3H626.8z"/>
						<path class="st2" d="M629.5,167.9l0.8-1.1c0.8,0.7,1.7,1.2,2.9,1.2c1.3,0,1.9-0.7,1.9-1.5c0-1-1.2-1.4-2.2-1.9
							c-1.4-0.5-2.9-1.2-2.9-2.8c0-1.5,1.2-2.8,3.4-2.8c1.2,0,2.3,0.5,3,1.1l-0.8,1.1c-0.7-0.5-1.4-0.9-2.3-0.9
							c-1.2,0-1.8,0.6-1.8,1.4c0,0.9,1.1,1.3,2.2,1.7c1.4,0.5,3,1.1,3,3c0,1.6-1.3,2.9-3.6,2.9C631.8,169.2,630.5,168.7,629.5,167.9
							z"/>
						<path class="st2" d="M638,167.9l0.8-1.1c0.8,0.7,1.7,1.2,2.9,1.2c1.3,0,1.9-0.7,1.9-1.5c0-1-1.2-1.4-2.2-1.9
							c-1.4-0.5-2.9-1.2-2.9-2.8c0-1.5,1.2-2.8,3.4-2.8c1.2,0,2.3,0.5,3,1.1l-0.8,1.1c-0.7-0.5-1.4-0.9-2.3-0.9
							c-1.2,0-1.8,0.6-1.8,1.4c0,0.9,1.1,1.3,2.2,1.7c1.4,0.5,3,1.1,3,3c0,1.6-1.3,2.9-3.6,2.9C640.2,169.2,638.9,168.7,638,167.9z"
							/>
						<path class="st2" d="M646.9,166.5c0-2.1,1.9-3.2,6-3.7c0-1.3-0.4-2.5-2-2.5c-1.1,0-2.2,0.5-2.9,1l-0.6-1.1
							c0.9-0.6,2.3-1.3,3.9-1.3c2.4,0,3.4,1.6,3.4,4v6h-1.4l-0.1-1.2H653c-0.9,0.8-2,1.4-3.2,1.4
							C648.1,169.2,646.9,168.2,646.9,166.5z M652.9,166.6v-2.7c-3.3,0.4-4.4,1.2-4.4,2.5c0,1.1,0.8,1.6,1.7,1.6
							C651.2,167.9,651.9,167.5,652.9,166.6z"/>
						<path class="st2" d="M657.6,159.2h1.4l0.1,1.8h0.1c0.7-1.2,1.7-2,2.8-2c0.4,0,0.7,0.1,1,0.2l-0.3,1.4c-0.3-0.1-0.6-0.2-1-0.2
							c-0.8,0-1.8,0.6-2.5,2.2v6.3h-1.6V159.2z"/>
						<path class="st2" d="M664.2,173l0.3-1.3c0.2,0.1,0.5,0.2,0.7,0.2c1.1,0,1.8-0.9,2.2-2.1l0.2-0.7l-3.9-9.8h1.7l2,5.4
							c0.3,0.8,0.6,1.9,0.9,2.7h0.1c0.3-0.9,0.6-1.9,0.8-2.7l1.7-5.4h1.6l-3.7,10.6c-0.7,1.9-1.7,3.4-3.6,3.4
							C664.8,173.2,664.5,173.1,664.2,173z"/>
						<path class="st2" d="M678,166.5c0-2.1,1.9-3.2,6-3.7c0-1.3-0.4-2.5-2-2.5c-1.1,0-2.2,0.5-2.9,1l-0.6-1.1
							c0.9-0.6,2.3-1.3,3.9-1.3c2.4,0,3.4,1.6,3.4,4v6h-1.4l-0.1-1.2h-0.1c-0.9,0.8-2,1.4-3.2,1.4C679.2,169.2,678,168.2,678,166.5z
							 M684,166.6v-2.7c-3.3,0.4-4.4,1.2-4.4,2.5c0,1.1,0.8,1.6,1.7,1.6C682.2,167.9,683,167.5,684,166.6z"/>
						<path class="st2" d="M688.7,159.2h1.3l0.1,1.4h0.1c0.9-0.9,1.9-1.7,3.3-1.7c2.1,0,3,1.3,3,3.8v6.2h-1.6v-6
							c0-1.8-0.6-2.6-1.9-2.6c-1,0-1.7,0.5-2.7,1.5v7.1h-1.6V159.2z"/>
						<path class="st2" d="M699.4,156.1c0-0.7,0.5-1.1,1.1-1.1c0.6,0,1.1,0.4,1.1,1.1c0,0.6-0.5,1.1-1.1,1.1
							C699.9,157.2,699.4,156.8,699.4,156.1z M699.7,159.2h1.6v9.8h-1.6V159.2z"/>
						<path class="st2" d="M704.7,159.2h1.4l0.1,1.4h0.1c0.8-0.9,1.9-1.7,3-1.7c1.5,0,2.3,0.7,2.7,1.9c1-1.1,2-1.9,3.2-1.9
							c2,0,3,1.3,3,3.8v6.2h-1.6v-6c0-1.8-0.6-2.6-1.8-2.6c-0.8,0-1.5,0.5-2.5,1.5v7.1h-1.6v-6c0-1.8-0.6-2.6-1.8-2.6
							c-0.7,0-1.6,0.5-2.5,1.5v7.1h-1.6V159.2z"/>
						<path class="st2" d="M720.7,166.5c0-2.1,1.9-3.2,6-3.7c0-1.3-0.4-2.5-2-2.5c-1.1,0-2.2,0.5-2.9,1l-0.6-1.1
							c0.9-0.6,2.3-1.3,3.9-1.3c2.4,0,3.4,1.6,3.4,4v6H727l-0.1-1.2h-0.1c-0.9,0.8-2,1.4-3.2,1.4
							C721.9,169.2,720.7,168.2,720.7,166.5z M726.7,166.6v-2.7c-3.3,0.4-4.4,1.2-4.4,2.5c0,1.1,0.8,1.6,1.7,1.6
							C725,167.9,725.8,167.5,726.7,166.6z"/>
						<path class="st2" d="M731.5,167.1v-12.4h1.6v12.5c0,0.5,0.2,0.7,0.5,0.7c0.1,0,0.2,0,0.3,0l0.2,1.3c-0.2,0.1-0.5,0.1-1,0.1
							C732,169.2,731.5,168.4,731.5,167.1z"/>
						<path class="st2" d="M739.9,164.1c0-3.2,2.1-5.1,4.4-5.1c2.5,0,3.9,1.8,3.9,4.6c0,0.4,0,0.7-0.1,0.9h-6.6
							c0.1,2.1,1.4,3.4,3.2,3.4c1,0,1.7-0.3,2.4-0.8l0.6,1.1c-0.9,0.6-1.9,1-3.2,1C742,169.2,739.9,167.3,739.9,164.1z M746.8,163.3
							c0-2-0.9-3-2.4-3c-1.4,0-2.6,1.1-2.8,3H746.8z"/>
						<path class="st2" d="M752.3,163.9l-3-4.7h1.8l1.3,2.2c0.3,0.5,0.6,1.1,1,1.6h0.1c0.3-0.5,0.6-1.1,0.9-1.6l1.2-2.2h1.7l-3,4.8
							l3.2,4.9h-1.8l-1.4-2.3c-0.3-0.6-0.7-1.2-1-1.7h-0.1c-0.3,0.6-0.7,1.2-1,1.7l-1.3,2.3h-1.7L752.3,163.9z"/>
						<path class="st2" d="M759.4,159.2h1.3l0.1,1.1h0.1c0.9-0.7,2-1.4,3.1-1.4c2.5,0,3.9,2,3.9,5c0,3.3-2,5.3-4.2,5.3
							c-0.9,0-1.8-0.4-2.7-1.1l0,1.7v3.3h-1.6V159.2z M766.3,164c0-2.2-0.7-3.6-2.6-3.6c-0.8,0-1.7,0.5-2.6,1.4v5.1
							c0.9,0.8,1.7,1,2.4,1C765.1,167.9,766.3,166.4,766.3,164z"/>
						<path class="st2" d="M769.9,164.1c0-3.2,2.1-5.1,4.4-5.1c2.5,0,3.9,1.8,3.9,4.6c0,0.4,0,0.7-0.1,0.9h-6.6
							c0.1,2.1,1.4,3.4,3.2,3.4c1,0,1.7-0.3,2.4-0.8l0.6,1.1c-0.9,0.6-1.9,1-3.2,1C771.9,169.2,769.9,167.3,769.9,164.1z
							 M776.7,163.3c0-2-0.9-3-2.4-3c-1.4,0-2.6,1.1-2.8,3H776.7z"/>
						<path class="st2" d="M780.6,159.2h1.4l0.1,1.8h0.1c0.7-1.2,1.7-2,2.8-2c0.4,0,0.7,0.1,1,0.2l-0.3,1.4c-0.3-0.1-0.6-0.2-1-0.2
							c-0.8,0-1.8,0.6-2.5,2.2v6.3h-1.6V159.2z"/>
						<path class="st2" d="M787.2,156.1c0-0.7,0.5-1.1,1.1-1.1s1.1,0.4,1.1,1.1c0,0.6-0.5,1.1-1.1,1.1S787.2,156.8,787.2,156.1z
							 M787.6,159.2h1.6v9.8h-1.6V159.2z"/>
						<path class="st2" d="M792.5,159.2h1.4l0.1,1.4h0.1c0.8-0.9,1.9-1.7,3-1.7c1.5,0,2.3,0.7,2.7,1.9c1-1.1,2-1.9,3.2-1.9
							c2,0,3,1.3,3,3.8v6.2h-1.6v-6c0-1.8-0.6-2.6-1.8-2.6c-0.8,0-1.5,0.5-2.5,1.5v7.1h-1.6v-6c0-1.8-0.6-2.6-1.8-2.6
							c-0.7,0-1.6,0.5-2.5,1.5v7.1h-1.6V159.2z"/>
						<path class="st2" d="M808.4,164.1c0-3.2,2.1-5.1,4.4-5.1c2.5,0,3.9,1.8,3.9,4.6c0,0.4,0,0.7-0.1,0.9h-6.6
							c0.1,2.1,1.4,3.4,3.2,3.4c1,0,1.7-0.3,2.4-0.8l0.6,1.1c-0.9,0.6-1.9,1-3.2,1C810.5,169.2,808.4,167.3,808.4,164.1z
							 M815.3,163.3c0-2-0.9-3-2.4-3c-1.4,0-2.6,1.1-2.8,3H815.3z"/>
						<path class="st2" d="M819.1,159.2h1.3l0.1,1.4h0.1c0.9-0.9,1.9-1.7,3.3-1.7c2.1,0,3,1.3,3,3.8v6.2h-1.6v-6
							c0-1.8-0.6-2.6-1.9-2.6c-1,0-1.7,0.5-2.7,1.5v7.1h-1.6V159.2z"/>
						<path class="st2" d="M830.4,166v-5.4H829v-1.2l1.5-0.1l0.2-2.7h1.4v2.7h2.6v1.3h-2.6v5.5c0,1.2,0.4,1.9,1.5,1.9
							c0.3,0,0.8-0.1,1.1-0.3l0.3,1.2c-0.6,0.2-1.2,0.4-1.8,0.4C831.1,169.2,830.4,167.9,830.4,166z"/>
						<path class="st2" d="M835.6,167.9l0.8-1.1c0.8,0.7,1.7,1.2,2.9,1.2c1.3,0,1.9-0.7,1.9-1.5c0-1-1.2-1.4-2.2-1.9
							c-1.4-0.5-2.9-1.2-2.9-2.8c0-1.5,1.2-2.8,3.4-2.8c1.2,0,2.3,0.5,3,1.1l-0.8,1.1c-0.7-0.5-1.4-0.9-2.3-0.9
							c-1.2,0-1.8,0.6-1.8,1.4c0,0.9,1.1,1.3,2.2,1.7c1.4,0.5,3,1.1,3,3c0,1.6-1.3,2.9-3.6,2.9C837.9,169.2,836.6,168.7,835.6,167.9
							z"/>
						<path class="st2" d="M849.2,163.4c0-3.5,1-6.4,2.6-9.1l1,0.5c-1.6,2.6-2.3,5.6-2.3,8.7s0.7,6.1,2.3,8.7l-1,0.5
							C850.2,169.8,849.2,166.9,849.2,163.4z"/>
						<path class="st2" d="M854.1,167.4l0.8-1.1c0.8,0.8,1.8,1.5,3.3,1.5c1.6,0,2.7-0.9,2.7-2.4c0-1.6-1.1-2.6-4.1-2.6v-1.3
							c2.7,0,3.7-1.1,3.7-2.5c0-1.3-0.9-2.1-2.2-2.1c-1.1,0-2,0.6-2.7,1.3l-0.9-1c1-0.9,2.2-1.6,3.7-1.6c2.2,0,3.8,1.2,3.8,3.3
							c0,1.6-1,2.7-2.4,3.2v0.1c1.6,0.4,2.8,1.5,2.8,3.3c0,2.4-1.9,3.8-4.2,3.8C856.3,169.2,855,168.4,854.1,167.4z"/>
						<path class="st2" d="M872.7,169l-3.2-5.6h-2.4v5.6h-1.7v-13.2h4.1c2.7,0,4.6,1,4.6,3.7c0,2.1-1.2,3.3-3,3.7l3.4,5.8H872.7z
							 M867.1,162h2.2c2.1,0,3.2-0.8,3.2-2.5c0-1.7-1.1-2.4-3.2-2.4h-2.2V162z"/>
						<path class="st2" d="M875.6,167.9l0.8-1.1c0.8,0.7,1.7,1.2,2.9,1.2c1.3,0,1.9-0.7,1.9-1.5c0-1-1.2-1.4-2.2-1.9
							c-1.4-0.5-2.9-1.2-2.9-2.8c0-1.5,1.2-2.8,3.4-2.8c1.2,0,2.3,0.5,3,1.1l-0.8,1.1c-0.7-0.5-1.4-0.9-2.3-0.9
							c-1.2,0-1.8,0.6-1.8,1.4c0,0.9,1.1,1.3,2.2,1.7c1.4,0.5,3,1.1,3,3c0,1.6-1.3,2.9-3.6,2.9C877.9,169.2,876.5,168.7,875.6,167.9
							z"/>
						<path class="st2" d="M884.2,172.1c1.5-2.6,2.3-5.6,2.3-8.7s-0.8-6.1-2.3-8.7l1-0.5c1.7,2.7,2.7,5.6,2.7,9.1
							c0,3.5-1,6.4-2.7,9.1L884.2,172.1z"/>
						<path class="st2" d="M890.3,172.1c1.5-2.6,2.3-5.6,2.3-8.7s-0.8-6.1-2.3-8.7l1-0.5c1.7,2.7,2.7,5.6,2.7,9.1
							c0,3.5-1,6.4-2.7,9.1L890.3,172.1z"/>
					</g>
					<text transform="matrix(1 0 0 1 895.3872 169)" class="st2 st5 st6"> </text>
					<g class="st1">
						<path class="st2" d="M105.8,198.3h4.6v1.3h-4.6V198.3z"/>
						<path class="st2" d="M123.1,200h-4.8l-1.3,4h-1.7l4.5-13.2h1.9l4.5,13.2h-1.8L123.1,200z M122.7,198.6l-0.6-2
							c-0.5-1.5-0.9-2.9-1.3-4.5h-0.1c-0.4,1.5-0.8,3-1.3,4.5l-0.6,2H122.7z"/>
						<path class="st2" d="M127.9,194.2h1.4l0.1,1.1h0.1c0.9-0.7,2-1.4,3.1-1.4c2.5,0,3.9,2,3.9,5c0,3.3-2,5.3-4.2,5.3
							c-0.9,0-1.8-0.4-2.7-1.1l0,1.7v3.3h-1.6V194.2z M134.7,199c0-2.2-0.7-3.6-2.6-3.6c-0.8,0-1.7,0.5-2.6,1.4v5.1
							c0.9,0.8,1.7,1,2.4,1C133.5,202.9,134.7,201.4,134.7,199z"/>
						<path class="st2" d="M139,194.2h1.4l0.1,1.1h0.1c0.9-0.7,2-1.4,3.1-1.4c2.5,0,3.9,2,3.9,5c0,3.3-2,5.3-4.2,5.3
							c-0.9,0-1.8-0.4-2.7-1.1l0,1.7v3.3H139V194.2z M145.9,199c0-2.2-0.7-3.6-2.6-3.6c-0.8,0-1.7,0.5-2.6,1.4v5.1
							c0.9,0.8,1.7,1,2.4,1C144.7,202.9,145.9,201.4,145.9,199z"/>
						<path class="st2" d="M150.2,194.2h1.4l0.1,1.8h0.1c0.7-1.2,1.7-2,2.8-2c0.4,0,0.7,0.1,1,0.2l-0.3,1.4c-0.3-0.1-0.6-0.2-1-0.2
							c-0.8,0-1.8,0.6-2.5,2.2v6.3h-1.6V194.2z"/>
						<path class="st2" d="M156.2,199.1c0-3.3,2.1-5.1,4.5-5.1c2.4,0,4.5,1.9,4.5,5.1c0,3.2-2.1,5.1-4.5,5.1
							C158.4,204.2,156.2,202.4,156.2,199.1z M163.6,199.1c0-2.2-1.2-3.8-2.8-3.8s-2.8,1.5-2.8,3.8c0,2.3,1.1,3.7,2.8,3.7
							S163.6,201.4,163.6,199.1z"/>
						<path class="st2" d="M167,201.5c0-2.1,1.9-3.2,6-3.7c0-1.3-0.4-2.5-2-2.5c-1.1,0-2.2,0.5-2.9,1l-0.6-1.1
							c0.9-0.6,2.3-1.3,3.9-1.3c2.4,0,3.4,1.6,3.4,4v6h-1.4l-0.1-1.2h-0.1c-0.9,0.8-2,1.4-3.2,1.4C168.2,204.2,167,203.2,167,201.5z
							 M173,201.6v-2.7c-3.3,0.4-4.4,1.2-4.4,2.5c0,1.1,0.8,1.6,1.7,1.6C171.3,202.9,172,202.5,173,201.6z"/>
						<path class="st2" d="M177,199.1c0-3.3,2.2-5.1,4.7-5.1c1.3,0,2.2,0.5,2.9,1.2l-0.8,1.1c-0.6-0.5-1.2-0.9-2-0.9
							c-1.8,0-3.1,1.5-3.1,3.8c0,2.3,1.2,3.7,3,3.7c0.9,0,1.7-0.4,2.3-1l0.7,1.1c-0.9,0.8-2,1.2-3.2,1.2
							C179,204.2,177,202.4,177,199.1z"/>
						<path class="st2" d="M186.9,189.7h1.6v3.9l-0.1,2c0.9-0.9,1.9-1.6,3.2-1.6c2.1,0,3,1.3,3,3.8v6.2h-1.6v-6
							c0-1.8-0.6-2.6-1.9-2.6c-1,0-1.7,0.5-2.7,1.5v7.1h-1.6V189.7z"/>
						<path class="st2" d="M201.6,191.1c0-0.7,0.5-1.1,1.1-1.1c0.6,0,1.1,0.4,1.1,1.1c0,0.6-0.5,1.1-1.1,1.1
							C202,192.2,201.6,191.8,201.6,191.1z M201.9,194.2h1.6v9.8h-1.6V194.2z"/>
						<path class="st2" d="M206.8,194.2h1.4l0.1,1.4h0.1c0.9-0.9,1.9-1.7,3.3-1.7c2.1,0,3,1.3,3,3.8v6.2H213v-6
							c0-1.8-0.6-2.6-1.9-2.6c-1,0-1.7,0.5-2.7,1.5v7.1h-1.6V194.2z"/>
						<path class="st2" d="M217,205.9c0-0.8,0.5-1.6,1.5-2.2v-0.1c-0.5-0.3-0.9-0.8-0.9-1.6c0-0.8,0.6-1.5,1.1-1.8v-0.1
							c-0.6-0.5-1.3-1.5-1.3-2.6c0-2.1,1.7-3.5,3.7-3.5c0.5,0,1,0.1,1.4,0.3h3.4v1.3h-2c0.5,0.5,0.8,1.2,0.8,2
							c0,2.1-1.6,3.4-3.6,3.4c-0.5,0-1-0.1-1.5-0.3c-0.4,0.3-0.6,0.6-0.6,1.2c0,0.6,0.4,1.1,1.7,1.1h1.9c2.3,0,3.4,0.7,3.4,2.3
							c0,1.8-1.9,3.4-4.9,3.4C218.7,208.5,217,207.6,217,205.9z M224.4,205.4c0-0.9-0.7-1.2-2-1.2h-1.7c-0.4,0-0.8-0.1-1.3-0.2
							c-0.7,0.5-1,1.1-1,1.7c0,1,1.1,1.7,2.8,1.7C223.2,207.4,224.4,206.4,224.4,205.4z M223.2,197.5c0-1.4-0.9-2.3-2.1-2.3
							s-2.1,0.8-2.1,2.3c0,1.4,1,2.3,2.1,2.3C222.2,199.8,223.2,198.9,223.2,197.5z"/>
						<path class="st2" d="M227.9,194.2h1.4l0.1,1.8h0.1c0.7-1.2,1.7-2,2.8-2c0.4,0,0.7,0.1,1,0.2l-0.3,1.4c-0.3-0.1-0.6-0.2-1-0.2
							c-0.8,0-1.8,0.6-2.5,2.2v6.3h-1.6V194.2z"/>
						<path class="st2" d="M234,199.1c0-3.2,2.1-5.1,4.4-5.1c2.5,0,3.9,1.8,3.9,4.6c0,0.4,0,0.7-0.1,0.9h-6.6
							c0.1,2.1,1.4,3.4,3.2,3.4c1,0,1.7-0.3,2.4-0.8l0.6,1.1c-0.9,0.6-1.9,1-3.2,1C236.1,204.2,234,202.3,234,199.1z M240.8,198.3
							c0-2-0.9-3-2.4-3c-1.4,0-2.6,1.1-2.8,3H240.8z"/>
						<path class="st2" d="M244,199.1c0-3.2,2-5.1,4.2-5.1c1.2,0,1.9,0.4,2.8,1.2l-0.1-1.7v-3.8h1.6V204h-1.3l-0.2-1.2h0
							c-0.8,0.8-1.8,1.4-3,1.4C245.6,204.2,244,202.4,244,199.1z M250.9,201.5v-5.1c-0.8-0.7-1.6-1-2.4-1c-1.6,0-2.8,1.5-2.8,3.7
							c0,2.4,1,3.8,2.7,3.8C249.3,202.9,250.1,202.4,250.9,201.5z"/>
						<path class="st2" d="M255.6,191.1c0-0.7,0.5-1.1,1.1-1.1c0.6,0,1.1,0.4,1.1,1.1c0,0.6-0.5,1.1-1.1,1.1
							C256,192.2,255.6,191.8,255.6,191.1z M255.9,194.2h1.6v9.8h-1.6V194.2z"/>
						<path class="st2" d="M260.1,199.1c0-3.2,2.1-5.1,4.4-5.1c2.5,0,3.9,1.8,3.9,4.6c0,0.4,0,0.7-0.1,0.9h-6.6
							c0.1,2.1,1.4,3.4,3.2,3.4c1,0,1.7-0.3,2.4-0.8l0.6,1.1c-0.9,0.6-1.9,1-3.2,1C262.2,204.2,260.1,202.3,260.1,199.1z
							 M266.9,198.3c0-2-0.9-3-2.4-3c-1.4,0-2.6,1.1-2.8,3H266.9z"/>
						<path class="st2" d="M270.8,194.2h1.4l0.1,1.4h0.1c0.9-0.9,1.9-1.7,3.3-1.7c2.1,0,3,1.3,3,3.8v6.2H277v-6
							c0-1.8-0.6-2.6-1.9-2.6c-1,0-1.7,0.5-2.7,1.5v7.1h-1.6V194.2z"/>
						<path class="st2" d="M282.1,201v-5.4h-1.5v-1.2l1.5-0.1l0.2-2.7h1.4v2.7h2.6v1.3h-2.6v5.5c0,1.2,0.4,1.9,1.5,1.9
							c0.3,0,0.8-0.1,1.1-0.3l0.3,1.2c-0.6,0.2-1.2,0.4-1.8,0.4C282.8,204.2,282.1,202.9,282.1,201z"/>
						<path class="st2" d="M287.3,202.9l0.8-1.1c0.8,0.7,1.7,1.2,2.9,1.2c1.3,0,1.9-0.7,1.9-1.5c0-1-1.2-1.4-2.2-1.9
							c-1.4-0.5-2.9-1.2-2.9-2.8c0-1.5,1.2-2.8,3.4-2.8c1.2,0,2.3,0.5,3,1.1l-0.8,1.1c-0.7-0.5-1.4-0.9-2.3-0.9
							c-1.2,0-1.8,0.6-1.8,1.4c0,0.9,1.1,1.3,2.2,1.7c1.4,0.5,3,1.1,3,3c0,1.6-1.3,2.9-3.6,2.9C289.5,204.2,288.2,203.7,287.3,202.9
							z"/>
						<path class="st2" d="M300.2,201.5c0-2.1,1.9-3.2,6-3.7c0-1.3-0.4-2.5-2-2.5c-1.1,0-2.2,0.5-2.9,1l-0.6-1.1
							c0.9-0.6,2.3-1.3,3.9-1.3c2.4,0,3.4,1.6,3.4,4v6h-1.4l-0.1-1.2h-0.1c-0.9,0.8-2,1.4-3.2,1.4
							C301.4,204.2,300.2,203.2,300.2,201.5z M306.2,201.6v-2.7c-3.3,0.4-4.4,1.2-4.4,2.5c0,1.1,0.8,1.6,1.7,1.6
							C304.5,202.9,305.3,202.5,306.2,201.6z"/>
						<path class="st2" d="M311,194.2h1.4l0.1,1.4h0.1c0.9-0.9,1.9-1.7,3.3-1.7c2.1,0,3,1.3,3,3.8v6.2h-1.6v-6
							c0-1.8-0.6-2.6-1.9-2.6c-1,0-1.7,0.5-2.7,1.5v7.1H311V194.2z"/>
						<path class="st2" d="M321.3,199.1c0-3.2,2-5.1,4.2-5.1c1.2,0,1.9,0.4,2.8,1.2l-0.1-1.7v-3.8h1.6V204h-1.3l-0.2-1.2h0
							c-0.8,0.8-1.8,1.4-3,1.4C322.9,204.2,321.3,202.4,321.3,199.1z M328.2,201.5v-5.1c-0.8-0.7-1.6-1-2.4-1
							c-1.6,0-2.8,1.5-2.8,3.7c0,2.4,1,3.8,2.7,3.8C326.6,202.9,327.4,202.4,328.2,201.5z"/>
						<path class="st2" d="M336.4,199.1c0-3.2,2.1-5.1,4.4-5.1c2.5,0,3.9,1.8,3.9,4.6c0,0.4,0,0.7-0.1,0.9h-6.6
							c0.1,2.1,1.4,3.4,3.2,3.4c1,0,1.7-0.3,2.4-0.8l0.6,1.1c-0.9,0.6-1.9,1-3.2,1C338.5,204.2,336.4,202.3,336.4,199.1z
							 M343.3,198.3c0-2-0.9-3-2.4-3c-1.4,0-2.6,1.1-2.8,3H343.3z"/>
						<path class="st2" d="M353.1,192.7c0-2,0.9-3.2,2.9-3.2c0.6,0,1.2,0.1,1.6,0.3l-0.4,1.2c-0.4-0.2-0.8-0.3-1.1-0.3
							c-0.9,0-1.4,0.7-1.4,1.9v1.5h2.1v1.3h-2.1v8.4h-1.6v-8.4H349v8.4h-1.6v-8.4h-1.3v-1.2l1.3-0.1v-1.3c0-2,1-3.3,3-3.3
							c0.6,0,1.3,0.1,1.8,0.3l-0.3,1.3c-0.4-0.2-0.8-0.3-1.3-0.3c-1,0-1.5,0.7-1.5,2v1.3h4.1V192.7z M360.7,191.1
							c0,0.6-0.5,1.1-1.2,1.1c-0.6,0-1.1-0.5-1.1-1.1c0-0.7,0.5-1.1,1.1-1.1C360.2,190.1,360.7,190.5,360.7,191.1z M358.7,194.2h1.6
							v9.8h-1.6V194.2z"/>
						<path class="st2" d="M362.9,199.1c0-3.3,2.2-5.1,4.7-5.1c1.3,0,2.2,0.5,2.9,1.2l-0.8,1.1c-0.6-0.5-1.2-0.9-2-0.9
							c-1.8,0-3.1,1.5-3.1,3.8c0,2.3,1.2,3.7,3,3.7c0.9,0,1.7-0.4,2.3-1l0.7,1.1c-0.9,0.8-2,1.2-3.2,1.2
							C364.9,204.2,362.9,202.4,362.9,199.1z"/>
						<path class="st2" d="M372,201.5c0-2.1,1.9-3.2,6-3.7c0-1.3-0.4-2.5-2-2.5c-1.1,0-2.2,0.5-2.9,1l-0.6-1.1
							c0.9-0.6,2.3-1.3,3.9-1.3c2.4,0,3.4,1.6,3.4,4v6h-1.4l-0.1-1.2h-0.1c-0.9,0.8-2,1.4-3.2,1.4C373.2,204.2,372,203.2,372,201.5z
							 M378,201.6v-2.7c-3.3,0.4-4.4,1.2-4.4,2.5c0,1.1,0.8,1.6,1.7,1.6C376.3,202.9,377.1,202.5,378,201.6z"/>
						<path class="st2" d="M382,199.1c0-3.3,2.2-5.1,4.7-5.1c1.3,0,2.2,0.5,2.9,1.2l-0.8,1.1c-0.6-0.5-1.2-0.9-2-0.9
							c-1.8,0-3.1,1.5-3.1,3.8c0,2.3,1.2,3.7,3,3.7c0.9,0,1.7-0.4,2.3-1l0.7,1.1c-0.9,0.8-2,1.2-3.2,1.2
							C384,204.2,382,202.4,382,199.1z"/>
						<path class="st2" d="M391.1,208l0.3-1.3c0.2,0.1,0.5,0.2,0.7,0.2c1.1,0,1.8-0.9,2.2-2.1l0.2-0.7l-3.9-9.8h1.7l2,5.4
							c0.3,0.8,0.6,1.9,0.9,2.7h0.1c0.3-0.9,0.6-1.9,0.8-2.7l1.7-5.4h1.6l-3.7,10.6c-0.7,1.9-1.7,3.4-3.6,3.4
							C391.8,208.2,391.4,208.1,391.1,208z"/>
						<path class="st2" d="M405.5,194.2h1.4l0.1,1.8h0.1c0.7-1.2,1.7-2,2.8-2c0.4,0,0.7,0.1,1,0.2l-0.3,1.4c-0.3-0.1-0.6-0.2-1-0.2
							c-0.8,0-1.8,0.6-2.5,2.2v6.3h-1.6V194.2z"/>
						<path class="st2" d="M411.5,199.1c0-3.2,2.1-5.1,4.4-5.1c2.5,0,3.9,1.8,3.9,4.6c0,0.4,0,0.7-0.1,0.9h-6.6
							c0.1,2.1,1.4,3.4,3.2,3.4c1,0,1.7-0.3,2.4-0.8l0.6,1.1c-0.9,0.6-1.9,1-3.2,1C413.6,204.2,411.5,202.3,411.5,199.1z
							 M418.4,198.3c0-2-0.9-3-2.4-3c-1.4,0-2.6,1.1-2.8,3H418.4z"/>
						<path class="st2" d="M421.1,202.9l0.8-1.1c0.8,0.7,1.7,1.2,2.9,1.2c1.3,0,1.9-0.7,1.9-1.5c0-1-1.2-1.4-2.2-1.9
							c-1.4-0.5-2.9-1.2-2.9-2.8c0-1.5,1.2-2.8,3.4-2.8c1.2,0,2.3,0.5,3,1.1l-0.8,1.1c-0.7-0.5-1.4-0.9-2.3-0.9
							c-1.2,0-1.8,0.6-1.8,1.4c0,0.9,1.1,1.3,2.2,1.7c1.4,0.5,3,1.1,3,3c0,1.6-1.3,2.9-3.6,2.9C423.4,204.2,422.1,203.7,421.1,202.9
							z"/>
						<path class="st2" d="M429.9,199.1c0-3.2,2.1-5.1,4.4-5.1c2.5,0,3.9,1.8,3.9,4.6c0,0.4,0,0.7-0.1,0.9h-6.6
							c0.1,2.1,1.4,3.4,3.2,3.4c1,0,1.7-0.3,2.4-0.8l0.6,1.1c-0.9,0.6-1.9,1-3.2,1C432,204.2,429.9,202.3,429.9,199.1z M436.8,198.3
							c0-2-0.9-3-2.4-3c-1.4,0-2.6,1.1-2.8,3H436.8z"/>
						<path class="st2" d="M439.7,201.5c0-2.1,1.9-3.2,6-3.7c0-1.3-0.4-2.5-2-2.5c-1.1,0-2.2,0.5-2.9,1l-0.6-1.1
							c0.9-0.6,2.3-1.3,3.9-1.3c2.4,0,3.4,1.6,3.4,4v6H446l-0.1-1.2h-0.1c-0.9,0.8-2,1.4-3.2,1.4
							C440.9,204.2,439.7,203.2,439.7,201.5z M445.7,201.6v-2.7c-3.3,0.4-4.4,1.2-4.4,2.5c0,1.1,0.8,1.6,1.7,1.6
							C444,202.9,444.8,202.5,445.7,201.6z"/>
						<path class="st2" d="M450.5,194.2h1.4l0.1,1.8h0.1c0.7-1.2,1.7-2,2.8-2c0.4,0,0.7,0.1,1,0.2l-0.3,1.4c-0.3-0.1-0.6-0.2-1-0.2
							c-0.8,0-1.8,0.6-2.5,2.2v6.3h-1.6V194.2z"/>
						<path class="st2" d="M456.5,199.1c0-3.3,2.2-5.1,4.7-5.1c1.3,0,2.2,0.5,2.9,1.2l-0.8,1.1c-0.6-0.5-1.2-0.9-2-0.9
							c-1.8,0-3.1,1.5-3.1,3.8c0,2.3,1.2,3.7,3,3.7c0.9,0,1.7-0.4,2.3-1l0.7,1.1c-0.9,0.8-2,1.2-3.2,1.2
							C458.5,204.2,456.5,202.4,456.5,199.1z"/>
						<path class="st2" d="M466.4,189.7h1.6v3.9l-0.1,2c0.9-0.9,1.9-1.6,3.2-1.6c2.1,0,3,1.3,3,3.8v6.2h-1.6v-6
							c0-1.8-0.6-2.6-1.9-2.6c-1,0-1.7,0.5-2.7,1.5v7.1h-1.6V189.7z"/>
						<path class="st2" d="M485.8,191c-0.4-0.2-0.8-0.3-1.1-0.3c-0.9,0-1.4,0.7-1.4,1.9v1.5h2.1v1.3h-2.1v8.4h-1.6v-8.4h-1.3v-1.2
							l1.3-0.1v-1.6c0-2,0.9-3.2,2.8-3.2c0.6,0,1.2,0.1,1.6,0.3L485.8,191z"/>
						<path class="st2" d="M487.2,194.2h1.4l0.1,1.8h0.1c0.7-1.2,1.7-2,2.8-2c0.4,0,0.7,0.1,1,0.2l-0.3,1.4c-0.3-0.1-0.6-0.2-1-0.2
							c-0.8,0-1.8,0.6-2.5,2.2v6.3h-1.6V194.2z"/>
						<path class="st2" d="M493.3,199.1c0-3.3,2.1-5.1,4.5-5.1c2.4,0,4.5,1.9,4.5,5.1c0,3.2-2.1,5.1-4.5,5.1
							C495.4,204.2,493.3,202.4,493.3,199.1z M500.7,199.1c0-2.2-1.2-3.8-2.8-3.8s-2.8,1.5-2.8,3.8c0,2.3,1.1,3.7,2.8,3.7
							S500.7,201.4,500.7,199.1z"/>
						<path class="st2" d="M504.9,194.2h1.4l0.1,1.4h0.1c0.8-0.9,1.9-1.7,3-1.7c1.5,0,2.3,0.7,2.7,1.9c1-1.1,2-1.9,3.2-1.9
							c2,0,3,1.3,3,3.8v6.2h-1.6v-6c0-1.8-0.6-2.6-1.8-2.6c-0.8,0-1.5,0.5-2.5,1.5v7.1h-1.6v-6c0-1.8-0.6-2.6-1.8-2.6
							c-0.7,0-1.6,0.5-2.5,1.5v7.1h-1.6V194.2z"/>
						<path class="st2" d="M524.9,199.1c0-3.3,2.2-5.1,4.7-5.1c1.3,0,2.2,0.5,2.9,1.2l-0.8,1.1c-0.6-0.5-1.2-0.9-2-0.9
							c-1.8,0-3.1,1.5-3.1,3.8c0,2.3,1.2,3.7,3,3.7c0.9,0,1.7-0.4,2.3-1l0.7,1.1c-0.9,0.8-2,1.2-3.2,1.2
							C526.9,204.2,524.9,202.4,524.9,199.1z"/>
						<path class="st2" d="M533.6,199.1c0-3.3,2.1-5.1,4.5-5.1c2.4,0,4.5,1.9,4.5,5.1c0,3.2-2.1,5.1-4.5,5.1
							C535.8,204.2,533.6,202.4,533.6,199.1z M541,199.1c0-2.2-1.2-3.8-2.8-3.8c-1.7,0-2.8,1.5-2.8,3.8c0,2.3,1.1,3.7,2.8,3.7
							C539.9,202.9,541,201.4,541,199.1z"/>
						<path class="st2" d="M545.3,194.2h1.3l0.1,1.4h0.1c0.9-0.9,1.9-1.7,3.3-1.7c2.1,0,3,1.3,3,3.8v6.2h-1.6v-6
							c0-1.8-0.6-2.6-1.9-2.6c-1,0-1.7,0.5-2.7,1.5v7.1h-1.6V194.2z"/>
						<path class="st2" d="M555.2,202.9l0.8-1.1c0.8,0.7,1.7,1.2,2.9,1.2c1.3,0,1.9-0.7,1.9-1.5c0-1-1.2-1.4-2.2-1.9
							c-1.4-0.5-2.9-1.2-2.9-2.8c0-1.5,1.2-2.8,3.4-2.8c1.2,0,2.3,0.5,3,1.1l-0.8,1.1c-0.7-0.5-1.4-0.9-2.3-0.9
							c-1.2,0-1.8,0.6-1.8,1.4c0,0.9,1.1,1.3,2.2,1.7c1.4,0.5,3,1.1,3,3c0,1.6-1.3,2.9-3.6,2.9C557.4,204.2,556.1,203.7,555.2,202.9
							z"/>
						<path class="st2" d="M564.6,200.4v-6.2h1.6v6c0,1.8,0.5,2.6,1.8,2.6c1,0,1.7-0.5,2.6-1.7v-6.9h1.6v9.8H571l-0.1-1.5h-0.1
							c-0.9,1.1-1.9,1.8-3.2,1.8C565.5,204.2,564.6,202.9,564.6,200.4z"/>
						<path class="st2" d="M575.6,194.2h1.3l0.1,1.4h0.1c0.8-0.9,1.9-1.7,3-1.7c1.5,0,2.3,0.7,2.7,1.9c1-1.1,2-1.9,3.2-1.9
							c2,0,3,1.3,3,3.8v6.2h-1.6v-6c0-1.8-0.6-2.6-1.8-2.6c-0.8,0-1.5,0.5-2.5,1.5v7.1h-1.6v-6c0-1.8-0.6-2.6-1.8-2.6
							c-0.7,0-1.6,0.5-2.5,1.5v7.1h-1.6V194.2z"/>
						<path class="st2" d="M591.6,199.1c0-3.2,2.1-5.1,4.4-5.1c2.5,0,3.9,1.8,3.9,4.6c0,0.4,0,0.7-0.1,0.9h-6.6
							c0.1,2.1,1.4,3.4,3.2,3.4c1,0,1.7-0.3,2.4-0.8l0.6,1.1c-0.9,0.6-1.9,1-3.2,1C593.6,204.2,591.6,202.3,591.6,199.1z
							 M598.4,198.3c0-2-0.9-3-2.4-3c-1.4,0-2.6,1.1-2.8,3H598.4z"/>
						<path class="st2" d="M602.3,194.2h1.4l0.1,1.8h0.1c0.7-1.2,1.7-2,2.8-2c0.4,0,0.7,0.1,1,0.2l-0.3,1.4c-0.3-0.1-0.6-0.2-1-0.2
							c-0.8,0-1.8,0.6-2.5,2.2v6.3h-1.6V194.2z"/>
						<path class="st2" d="M609.2,194.5c1-0.7,1.5-1.3,1.5-2.5c-0.1,0-0.1,0-0.2,0c-0.5,0-1-0.4-1-1c0-0.7,0.4-1.1,1-1.1
							c0.8,0,1.3,0.7,1.3,1.8c0,1.6-0.8,2.8-2.1,3.6L609.2,194.5z"/>
						<path class="st2" d="M612.5,202.9l0.8-1.1c0.8,0.7,1.7,1.2,2.9,1.2c1.3,0,1.9-0.7,1.9-1.5c0-1-1.2-1.4-2.2-1.9
							c-1.4-0.5-2.9-1.2-2.9-2.8c0-1.5,1.2-2.8,3.4-2.8c1.2,0,2.3,0.5,3,1.1l-0.8,1.1c-0.7-0.5-1.4-0.9-2.2-0.9
							c-1.2,0-1.8,0.6-1.8,1.4c0,0.9,1.1,1.3,2.2,1.7c1.4,0.5,3,1.1,3,3c0,1.6-1.3,2.9-3.6,2.9C614.8,204.2,613.5,203.7,612.5,202.9
							z"/>
						<path class="st2" d="M626.1,194.2h1.3l0.1,1.1h0.1c0.9-0.7,2-1.4,3.1-1.4c2.5,0,3.9,2,3.9,5c0,3.3-2,5.3-4.2,5.3
							c-0.9,0-1.8-0.4-2.7-1.1l0,1.7v3.3h-1.6V194.2z M632.9,199c0-2.2-0.7-3.6-2.6-3.6c-0.8,0-1.7,0.5-2.6,1.4v5.1
							c0.9,0.8,1.7,1,2.4,1C631.7,202.9,632.9,201.4,632.9,199z"/>
						<path class="st2" d="M636.5,199.1c0-3.2,2.1-5.1,4.4-5.1c2.5,0,3.9,1.8,3.9,4.6c0,0.4,0,0.7-0.1,0.9h-6.6
							c0.1,2.1,1.4,3.4,3.2,3.4c1,0,1.7-0.3,2.4-0.8l0.6,1.1c-0.9,0.6-1.9,1-3.2,1C638.6,204.2,636.5,202.3,636.5,199.1z
							 M643.4,198.3c0-2-0.9-3-2.4-3c-1.4,0-2.6,1.1-2.8,3H643.4z"/>
						<path class="st2" d="M647.2,194.2h1.4l0.1,1.8h0.1c0.7-1.2,1.7-2,2.8-2c0.4,0,0.7,0.1,1,0.2l-0.3,1.4c-0.3-0.1-0.6-0.2-1-0.2
							c-0.8,0-1.8,0.6-2.5,2.2v6.3h-1.6V194.2z"/>
						<path class="st2" d="M653,202.9l0.8-1.1c0.8,0.7,1.7,1.2,2.9,1.2c1.3,0,1.9-0.7,1.9-1.5c0-1-1.2-1.4-2.2-1.9
							c-1.4-0.5-2.9-1.2-2.9-2.8c0-1.5,1.2-2.8,3.4-2.8c1.2,0,2.3,0.5,3,1.1l-0.8,1.1c-0.7-0.5-1.4-0.9-2.3-0.9
							c-1.2,0-1.8,0.6-1.8,1.4c0,0.9,1.1,1.3,2.2,1.7c1.4,0.5,3,1.1,3,3c0,1.6-1.3,2.9-3.6,2.9C655.3,204.2,654,203.7,653,202.9z"/>
						<path class="st2" d="M662.5,194.2h1.4l0.1,1.1h0.1c0.9-0.7,2-1.4,3.1-1.4c2.5,0,3.9,2,3.9,5c0,3.3-2,5.3-4.2,5.3
							c-0.9,0-1.8-0.4-2.7-1.1l0,1.7v3.3h-1.6V194.2z M669.4,199c0-2.2-0.7-3.6-2.6-3.6c-0.8,0-1.7,0.5-2.6,1.4v5.1
							c0.9,0.8,1.7,1,2.4,1C668.2,202.9,669.4,201.4,669.4,199z"/>
						<path class="st2" d="M673,199.1c0-3.2,2.1-5.1,4.4-5.1c2.5,0,3.9,1.8,3.9,4.6c0,0.4,0,0.7-0.1,0.9h-6.6
							c0.1,2.1,1.4,3.4,3.2,3.4c1,0,1.7-0.3,2.4-0.8l0.6,1.1c-0.9,0.6-1.9,1-3.2,1C675.1,204.2,673,202.3,673,199.1z M679.8,198.3
							c0-2-0.9-3-2.4-3c-1.4,0-2.6,1.1-2.8,3H679.8z"/>
						<path class="st2" d="M682.9,199.1c0-3.3,2.2-5.1,4.7-5.1c1.3,0,2.2,0.5,2.9,1.2l-0.8,1.1c-0.6-0.5-1.2-0.9-2-0.9
							c-1.8,0-3.1,1.5-3.1,3.8c0,2.3,1.2,3.7,3,3.7c0.9,0,1.7-0.4,2.3-1l0.7,1.1c-0.9,0.8-2,1.2-3.2,1.2
							C684.9,204.2,682.9,202.4,682.9,199.1z"/>
						<path class="st2" d="M692.9,201v-5.4h-1.5v-1.2l1.5-0.1l0.2-2.7h1.4v2.7h2.6v1.3h-2.6v5.5c0,1.2,0.4,1.9,1.5,1.9
							c0.3,0,0.8-0.1,1.1-0.3l0.3,1.2c-0.6,0.2-1.2,0.4-1.8,0.4C693.6,204.2,692.9,202.9,692.9,201z"/>
						<path class="st2" d="M699.1,191.1c0-0.7,0.5-1.1,1.1-1.1c0.6,0,1.1,0.4,1.1,1.1c0,0.6-0.5,1.1-1.1,1.1
							C699.6,192.2,699.1,191.8,699.1,191.1z M699.4,194.2h1.6v9.8h-1.6V194.2z"/>
						<path class="st2" d="M703,194.2h1.7l1.8,5.6c0.3,1,0.6,2,0.9,2.9h0.1c0.3-0.9,0.6-1.9,0.9-2.9l1.9-5.6h1.6l-3.5,9.8h-1.9
							L703,194.2z"/>
						<path class="st2" d="M712.9,199.1c0-3.2,2.1-5.1,4.4-5.1c2.5,0,3.9,1.8,3.9,4.6c0,0.4,0,0.7-0.1,0.9h-6.6
							c0.1,2.1,1.4,3.4,3.2,3.4c1,0,1.7-0.3,2.4-0.8l0.6,1.1c-0.9,0.6-1.9,1-3.2,1C715,204.2,712.9,202.3,712.9,199.1z M719.8,198.3
							c0-2-0.9-3-2.4-3c-1.4,0-2.6,1.1-2.8,3H719.8z"/>
					</g>
				</g>
				
					<g id="arrow" transform="translate(500.000000, 318.000000) rotate(-270.000000) translate(-500.000000, -318.000000) translate(449.500000, 308.000000)">
					<path id="Line" class="st7" d="M0.5,10h100"/>
					<polyline id="Stroke-1" class="st8" points="90,0 101,10 90,20 					"/>
					<polyline class="st8" points="11,20 0,10 11,0 					"/>
				</g>
				<g id="box3" transform="translate(0.000000, 383.000000)">
					<path class="st9" d="M9,1h982c4.4,0,8,3.6,8,8v132c0,4.4-3.6,8-8,8H9c-4.4,0-8-3.6-8-8V9C1,4.6,4.6,1,9,1z"/>
					<g class="st1">
						<path class="st10" d="M324.1,50.7c0-4.8,3-7.7,6.9-7.7c2.1,0,3.5,0.9,4.4,1.9l-1.3,1.5c-0.7-0.7-1.6-1.3-3-1.3
							c-2.7,0-4.6,2.1-4.6,5.6c0,3.5,1.6,5.6,4.7,5.6c0.9,0,1.8-0.3,2.3-0.7v-3.5h-2.9v-1.9h5v6.4c-1,1-2.6,1.7-4.7,1.7
							C327,58.3,324.1,55.5,324.1,50.7z"/>
						<path class="st10" d="M338.8,55.4V42.1h2.3v13.5c0,0.6,0.3,0.8,0.6,0.8c0.1,0,0.2,0,0.4,0l0.3,1.7c-0.3,0.1-0.7,0.2-1.2,0.2
							C339.4,58.3,338.8,57.2,338.8,55.4z"/>
						<path class="st10" d="M343.9,52.5c0-3.7,2.5-5.8,5.2-5.8c2.7,0,5.2,2.1,5.2,5.8c0,3.6-2.5,5.7-5.2,5.7
							C346.4,58.3,343.9,56.2,343.9,52.5z M351.9,52.5c0-2.3-1.1-3.9-2.8-3.9c-1.7,0-2.8,1.6-2.8,3.9c0,2.3,1.1,3.9,2.8,3.9
							C350.9,56.4,351.9,54.8,351.9,52.5z"/>
						<path class="st10" d="M359.1,56.9L359.1,56.9l-0.3,1.1H357V42.1h2.3v4.2l-0.1,1.9c0.9-0.8,2.1-1.4,3.3-1.4
							c2.8,0,4.4,2.2,4.4,5.6c0,3.8-2.3,5.9-4.7,5.9C361.1,58.3,360,57.8,359.1,56.9z M364.5,52.4c0-2.3-0.7-3.7-2.6-3.7
							c-0.9,0-1.7,0.4-2.6,1.3v5.4c0.8,0.7,1.7,1,2.4,1C363.3,56.4,364.5,54.9,364.5,52.4z"/>
						<path class="st10" d="M368.6,55.1c0-2.4,2-3.6,6.6-4.1c0-1.3-0.5-2.4-2.1-2.4c-1.2,0-2.2,0.5-3.2,1.1l-0.9-1.6
							c1.1-0.7,2.7-1.4,4.4-1.4c2.7,0,4,1.7,4,4.7V58h-1.9l-0.2-1.3h-0.1c-1,0.9-2.2,1.5-3.5,1.5C370,58.3,368.6,57,368.6,55.1z
							 M375.2,55.2v-2.7c-3.3,0.4-4.4,1.2-4.4,2.5c0,1.1,0.7,1.5,1.7,1.5C373.5,56.4,374.3,56,375.2,55.2z"/>
						<path class="st10" d="M380.8,55.4V42.1h2.3v13.5c0,0.6,0.3,0.8,0.6,0.8c0.1,0,0.2,0,0.4,0l0.3,1.7c-0.3,0.1-0.7,0.2-1.2,0.2
							C381.4,58.3,380.8,57.2,380.8,55.4z"/>
						<path class="st10" d="M391.2,55.4V42.1h2.3v13.5c0,0.6,0.3,0.8,0.6,0.8c0.1,0,0.2,0,0.4,0l0.3,1.7c-0.3,0.1-0.7,0.2-1.2,0.2
							C391.9,58.3,391.2,57.2,391.2,55.4z"/>
						<path class="st10" d="M396.6,55.1c0-2.4,2-3.6,6.6-4.1c0-1.3-0.5-2.4-2.1-2.4c-1.2,0-2.2,0.5-3.2,1.1l-0.9-1.6
							c1.1-0.7,2.7-1.4,4.4-1.4c2.7,0,4,1.7,4,4.7V58h-1.9l-0.2-1.3h-0.1c-1,0.9-2.2,1.5-3.5,1.5C397.9,58.3,396.6,57,396.6,55.1z
							 M403.1,55.2v-2.7c-3.3,0.4-4.4,1.2-4.4,2.5c0,1.1,0.7,1.5,1.7,1.5C401.5,56.4,402.2,56,403.1,55.2z"/>
						<path class="st10" d="M408.6,53.9V47h2.3v6.6c0,1.9,0.5,2.6,1.8,2.6c1,0,1.7-0.5,2.6-1.6V47h2.3v11h-1.9l-0.2-1.7h-0.1
							c-1,1.2-2.1,1.9-3.6,1.9C409.6,58.3,408.6,56.7,408.6,53.9z"/>
						<path class="st10" d="M421.1,47h1.9l0.2,1.5h0.1c1-1,2.1-1.8,3.6-1.8c2.3,0,3.4,1.6,3.4,4.4V58h-2.3v-6.6
							c0-1.9-0.6-2.7-1.9-2.7c-1,0-1.7,0.5-2.7,1.5V58h-2.3V47z"/>
						<path class="st10" d="M432.8,52.5c0-3.7,2.5-5.8,5.4-5.8c1.4,0,2.4,0.6,3.2,1.3l-1.1,1.5c-0.6-0.5-1.2-0.9-2-0.9
							c-1.8,0-3.2,1.6-3.2,3.9c0,2.3,1.3,3.9,3.1,3.9c0.9,0,1.7-0.4,2.4-1l0.9,1.5c-1,0.9-2.3,1.4-3.6,1.4
							C435.1,58.3,432.8,56.2,432.8,52.5z"/>
						<path class="st10" d="M443.9,42.1h2.3v4.2l-0.1,2.2c1-0.9,2.1-1.7,3.6-1.7c2.3,0,3.4,1.6,3.4,4.4V58h-2.3v-6.6
							c0-1.9-0.6-2.7-1.9-2.7c-1,0-1.7,0.5-2.7,1.5V58h-2.3V42.1z"/>
						<path class="st10" d="M460.1,52.5c0-3.7,2.5-5.8,5.2-5.8c2.7,0,5.2,2.1,5.2,5.8c0,3.6-2.5,5.7-5.2,5.7
							C462.5,58.3,460.1,56.2,460.1,52.5z M468.1,52.5c0-2.3-1.1-3.9-2.8-3.9c-1.7,0-2.8,1.6-2.8,3.9c0,2.3,1.1,3.9,2.8,3.9
							C467,56.4,468.1,54.8,468.1,52.5z"/>
						<path class="st10" d="M478.4,43.9c-0.4-0.2-0.8-0.3-1.2-0.3c-1,0-1.5,0.6-1.5,2V47h2.2v1.8h-2.2V58h-2.3v-9.2h-1.5v-1.7
							l1.5-0.1v-1.4c0-2.3,1-3.8,3.5-3.8c0.7,0,1.4,0.2,1.9,0.4L478.4,43.9z"/>
						<path class="st10" d="M483.7,52.5c0-3.7,2.5-5.8,5.4-5.8c1.4,0,2.4,0.6,3.2,1.3l-1.1,1.5c-0.6-0.5-1.2-0.9-2-0.9
							c-1.8,0-3.2,1.6-3.2,3.9c0,2.3,1.3,3.9,3.1,3.9c0.9,0,1.7-0.4,2.4-1l0.9,1.5c-1,0.9-2.3,1.4-3.6,1.4
							C486,58.3,483.7,56.2,483.7,52.5z"/>
						<path class="st10" d="M493.5,52.5c0-3.7,2.5-5.8,5.2-5.8c2.7,0,5.2,2.1,5.2,5.8c0,3.6-2.5,5.7-5.2,5.7
							C496,58.3,493.5,56.2,493.5,52.5z M501.5,52.5c0-2.3-1.1-3.9-2.8-3.9c-1.7,0-2.8,1.6-2.8,3.9c0,2.3,1.1,3.9,2.8,3.9
							C500.4,56.4,501.5,54.8,501.5,52.5z"/>
						<path class="st10" d="M505.3,56.7l1.1-1.5c1,0.8,1.9,1.3,3.1,1.3c1.3,0,1.9-0.6,1.9-1.5c0-1-1.2-1.4-2.4-1.9
							c-1.5-0.6-3.1-1.3-3.1-3.2c0-1.8,1.5-3.2,3.9-3.2c1.5,0,2.7,0.6,3.6,1.3l-1.1,1.4c-0.8-0.6-1.5-1-2.5-1
							c-1.2,0-1.8,0.6-1.8,1.4c0,0.9,1.1,1.3,2.3,1.7c1.5,0.6,3.2,1.3,3.2,3.3c0,1.8-1.5,3.3-4.2,3.3
							C508,58.3,506.4,57.6,505.3,56.7z"/>
						<path class="st10" d="M516.1,47h1.9l0.2,1.5h0.1c0.9-1,2-1.8,3.4-1.8c1.6,0,2.6,0.8,3,2c1.1-1.2,2.2-2,3.6-2
							c2.3,0,3.4,1.6,3.4,4.4V58h-2.3v-6.6c0-1.9-0.6-2.7-1.8-2.7c-0.8,0-1.6,0.5-2.5,1.5V58h-2.3v-6.6c0-1.9-0.6-2.7-1.8-2.7
							c-0.7,0-1.6,0.5-2.5,1.5V58h-2.3V47z"/>
						<path class="st10" d="M534.2,52.5c0-3.6,2.4-5.8,5-5.8c2.9,0,4.5,2.1,4.5,5.2c0,0.4,0,0.9-0.1,1.2h-7.1
							c0.2,2.1,1.5,3.4,3.4,3.4c1,0,1.8-0.3,2.6-0.8l0.8,1.5c-1,0.7-2.3,1.2-3.7,1.2C536.5,58.3,534.2,56.1,534.2,52.5z M541.7,51.5
							c0-1.9-0.9-3-2.5-3c-1.4,0-2.6,1.1-2.8,3H541.7z"/>
						<path class="st10" d="M545.5,52.5c0-3.7,2.5-5.8,5.4-5.8c1.4,0,2.4,0.6,3.2,1.3l-1.1,1.5c-0.6-0.5-1.2-0.9-2-0.9
							c-1.8,0-3.2,1.6-3.2,3.9c0,2.3,1.3,3.9,3.1,3.9c0.9,0,1.7-0.4,2.4-1l0.9,1.5c-1,0.9-2.3,1.4-3.6,1.4
							C547.7,58.3,545.5,56.2,545.5,52.5z"/>
						<path class="st10" d="M555.3,52.5c0-3.6,2.4-5.8,5-5.8c2.9,0,4.5,2.1,4.5,5.2c0,0.4,0,0.9-0.1,1.2h-7.1
							c0.2,2.1,1.5,3.4,3.4,3.4c1,0,1.8-0.3,2.6-0.8l0.8,1.5c-1,0.7-2.3,1.2-3.7,1.2C557.7,58.3,555.3,56.1,555.3,52.5z M562.8,51.5
							c0-1.9-0.9-3-2.5-3c-1.4,0-2.6,1.1-2.8,3H562.8z"/>
						<path class="st10" d="M567.2,53.9V47h2.3v6.6c0,1.9,0.5,2.6,1.8,2.6c1,0,1.7-0.5,2.6-1.6V47h2.3v11h-1.9l-0.2-1.7h-0.1
							c-1,1.2-2.1,1.9-3.6,1.9C568.2,58.3,567.2,56.7,567.2,53.9z"/>
						<path class="st10" d="M580.1,54.4v-5.6h-1.6v-1.7l1.7-0.1l0.3-3h1.9v3h2.9v1.8h-2.9v5.6c0,1.3,0.5,2,1.6,2
							c0.4,0,0.9-0.1,1.2-0.3l0.4,1.7c-0.6,0.2-1.4,0.4-2.2,0.4C581,58.3,580.1,56.7,580.1,54.4z"/>
						<path class="st10" d="M587.4,43.6c0-0.8,0.6-1.4,1.5-1.4s1.5,0.5,1.5,1.4c0,0.8-0.6,1.4-1.5,1.4S587.4,44.4,587.4,43.6z
							 M587.7,47h2.3v11h-2.3V47z"/>
						<path class="st10" d="M592.6,52.5c0-3.7,2.5-5.8,5.4-5.8c1.4,0,2.4,0.6,3.2,1.3l-1.1,1.5c-0.6-0.5-1.2-0.9-2-0.9
							c-1.8,0-3.2,1.6-3.2,3.9c0,2.3,1.3,3.9,3.1,3.9c0.9,0,1.7-0.4,2.4-1l0.9,1.5c-1,0.9-2.3,1.4-3.6,1.4
							C594.9,58.3,592.6,56.2,592.6,52.5z"/>
						<path class="st10" d="M602.9,55.1c0-2.4,2-3.6,6.6-4.1c0-1.3-0.5-2.4-2.1-2.4c-1.2,0-2.2,0.5-3.2,1.1l-0.9-1.6
							c1.1-0.7,2.7-1.4,4.4-1.4c2.7,0,4,1.7,4,4.7V58h-1.9l-0.2-1.3h-0.1c-1,0.9-2.2,1.5-3.5,1.5C604.2,58.3,602.9,57,602.9,55.1z
							 M609.5,55.2v-2.7c-3.3,0.4-4.4,1.2-4.4,2.5c0,1.1,0.7,1.5,1.7,1.5C607.8,56.4,608.6,56,609.5,55.2z"/>
						<path class="st10" d="M615,55.4V42.1h2.3v13.5c0,0.6,0.3,0.8,0.6,0.8c0.1,0,0.2,0,0.4,0l0.3,1.7c-0.3,0.1-0.7,0.2-1.2,0.2
							C615.7,58.3,615,57.2,615,55.4z"/>
						<path class="st10" d="M619.8,56.7l1.1-1.5c1,0.8,1.9,1.3,3.1,1.3c1.3,0,1.9-0.6,1.9-1.5c0-1-1.2-1.4-2.4-1.9
							c-1.5-0.6-3.1-1.3-3.1-3.2c0-1.8,1.5-3.2,3.9-3.2c1.5,0,2.7,0.6,3.6,1.3l-1.1,1.4c-0.8-0.6-1.5-1-2.5-1
							c-1.2,0-1.8,0.6-1.8,1.4c0,0.9,1.1,1.3,2.3,1.7c1.5,0.6,3.2,1.3,3.2,3.3c0,1.8-1.5,3.3-4.2,3.3
							C622.5,58.3,620.9,57.6,619.8,56.7z"/>
						<path class="st10" d="M633.9,47h2.3l1.5,6c0.2,1.1,0.4,2.1,0.6,3.1h0.1c0.2-1,0.5-2.1,0.7-3.1l1.5-6h2.1l1.6,6
							c0.3,1.1,0.5,2.1,0.7,3.1h0.1c0.2-1,0.4-2.1,0.6-3.1l1.4-6h2.2l-2.8,11h-2.8l-1.4-5.4c-0.3-1-0.5-2-0.7-3.2h-0.1
							c-0.2,1.1-0.4,2.2-0.7,3.2l-1.3,5.4h-2.7L633.9,47z"/>
						<path class="st10" d="M651.3,43.6c0-0.8,0.6-1.4,1.5-1.4s1.5,0.5,1.5,1.4c0,0.8-0.6,1.4-1.5,1.4S651.3,44.4,651.3,43.6z
							 M651.7,47h2.3v11h-2.3V47z"/>
						<path class="st10" d="M657.8,54.4v-5.6h-1.6v-1.7l1.7-0.1l0.3-3h1.9v3h2.9v1.8h-2.9v5.6c0,1.3,0.5,2,1.6,2
							c0.4,0,0.9-0.1,1.2-0.3l0.4,1.7c-0.6,0.2-1.4,0.4-2.2,0.4C658.6,58.3,657.8,56.7,657.8,54.4z"/>
						<path class="st10" d="M665.3,42.1h2.3v4.2l-0.1,2.2c1-0.9,2.1-1.7,3.6-1.7c2.3,0,3.4,1.6,3.4,4.4V58h-2.3v-6.6
							c0-1.9-0.6-2.7-1.9-2.7c-1,0-1.7,0.5-2.7,1.5V58h-2.3V42.1z"/>
					</g>
					<text transform="matrix(1 0 0 1 675.996 58)" class="st10 st11 st12"> </text>
					<g class="st1">
						<path class="st10" d="M324.7,87h1.9l0.2,1.2h0.1c1-0.8,2.2-1.5,3.4-1.5c2.8,0,4.4,2.2,4.4,5.6c0,3.8-2.3,5.9-4.7,5.9
							c-1,0-2-0.4-2.9-1.2l0.1,1.9v3.6h-2.3V87z M332.2,92.4c0-2.3-0.7-3.7-2.6-3.7c-0.9,0-1.7,0.4-2.6,1.3v5.4c0.9,0.7,1.7,1,2.4,1
							C331,96.4,332.2,94.9,332.2,92.4z"/>
						<path class="st10" d="M336.6,92.5c0-3.7,2.5-5.8,5.2-5.8c2.7,0,5.2,2.1,5.2,5.8c0,3.6-2.5,5.7-5.2,5.7
							C339,98.3,336.6,96.2,336.6,92.5z M344.6,92.5c0-2.3-1.1-3.9-2.8-3.9c-1.7,0-2.8,1.6-2.8,3.9c0,2.3,1.1,3.9,2.8,3.9
							C343.5,96.4,344.6,94.8,344.6,92.5z"/>
						<path class="st10" d="M349.5,94.4v-5.6h-1.6v-1.7l1.7-0.1l0.3-3h1.9v3h2.9v1.8h-2.9v5.6c0,1.3,0.5,2,1.6,2
							c0.4,0,0.9-0.1,1.2-0.3l0.4,1.7c-0.6,0.2-1.4,0.4-2.2,0.4C350.4,98.3,349.5,96.7,349.5,94.4z"/>
						<path class="st10" d="M356,92.5c0-3.6,2.4-5.8,5-5.8c2.9,0,4.5,2.1,4.5,5.2c0,0.4,0,0.9-0.1,1.2h-7.1c0.2,2.1,1.5,3.4,3.4,3.4
							c1,0,1.8-0.3,2.6-0.8l0.8,1.5c-1,0.7-2.3,1.2-3.7,1.2C358.3,98.3,356,96.1,356,92.5z M363.5,91.5c0-1.9-0.9-3-2.5-3
							c-1.4,0-2.6,1.1-2.8,3H363.5z"/>
						<path class="st10" d="M368,87h1.9l0.2,1.5h0.1c1-1,2.1-1.8,3.6-1.8c2.3,0,3.4,1.6,3.4,4.4V98h-2.3v-6.6c0-1.9-0.6-2.7-1.9-2.7
							c-1,0-1.7,0.5-2.7,1.5V98H368V87z"/>
						<path class="st10" d="M380.9,94.4v-5.6h-1.6v-1.7L381,87l0.3-3h1.9v3h2.9v1.8h-2.9v5.6c0,1.3,0.5,2,1.6,2
							c0.4,0,0.9-0.1,1.2-0.3l0.4,1.7c-0.6,0.2-1.4,0.4-2.2,0.4C381.7,98.3,380.9,96.7,380.9,94.4z"/>
						<path class="st10" d="M392.9,87h1.9l0.2,1.2h0.1c1-0.8,2.2-1.5,3.4-1.5c2.8,0,4.4,2.2,4.4,5.6c0,3.8-2.3,5.9-4.7,5.9
							c-1,0-2-0.4-2.9-1.2l0.1,1.9v3.6h-2.3V87z M400.4,92.4c0-2.3-0.7-3.7-2.6-3.7c-0.9,0-1.7,0.4-2.6,1.3v5.4c0.9,0.7,1.7,1,2.4,1
							C399.2,96.4,400.4,94.9,400.4,92.4z"/>
						<path class="st10" d="M405.5,87h1.9l0.2,2h0.1c0.8-1.4,1.9-2.3,3.1-2.3c0.5,0,0.9,0.1,1.2,0.2l-0.4,2
							c-0.4-0.1-0.7-0.2-1.1-0.2c-0.9,0-2,0.6-2.7,2.4V98h-2.3V87z"/>
						<path class="st10" d="M412.7,92.5c0-3.7,2.5-5.8,5.2-5.8c2.7,0,5.2,2.1,5.2,5.8c0,3.6-2.5,5.7-5.2,5.7
							C415.2,98.3,412.7,96.2,412.7,92.5z M420.7,92.5c0-2.3-1.1-3.9-2.8-3.9c-1.7,0-2.8,1.6-2.8,3.9c0,2.3,1.1,3.9,2.8,3.9
							C419.6,96.4,420.7,94.8,420.7,92.5z"/>
						<path class="st10" d="M425.7,94.4v-5.6h-1.6v-1.7l1.7-0.1l0.3-3h1.9v3h2.9v1.8H428v5.6c0,1.3,0.5,2,1.6,2
							c0.4,0,0.9-0.1,1.2-0.3l0.4,1.7c-0.6,0.2-1.4,0.4-2.2,0.4C426.5,98.3,425.7,96.7,425.7,94.4z"/>
						<path class="st10" d="M432.1,92.5c0-3.6,2.4-5.8,5-5.8c2.9,0,4.5,2.1,4.5,5.2c0,0.4,0,0.9-0.1,1.2h-7.1
							c0.2,2.1,1.5,3.4,3.4,3.4c1,0,1.8-0.3,2.6-0.8l0.8,1.5c-1,0.7-2.3,1.2-3.7,1.2C434.5,98.3,432.1,96.1,432.1,92.5z M439.6,91.5
							c0-1.9-0.9-3-2.5-3c-1.4,0-2.6,1.1-2.8,3H439.6z"/>
						<path class="st10" d="M443.4,92.5c0-3.7,2.5-5.8,5.4-5.8c1.4,0,2.4,0.6,3.2,1.3l-1.1,1.5c-0.6-0.5-1.2-0.9-2-0.9
							c-1.8,0-3.2,1.6-3.2,3.9c0,2.3,1.3,3.9,3.1,3.9c0.9,0,1.7-0.4,2.4-1l0.9,1.5c-1,0.9-2.3,1.4-3.6,1.4
							C445.7,98.3,443.4,96.2,443.4,92.5z"/>
						<path class="st10" d="M454.7,94.4v-5.6h-1.6v-1.7l1.7-0.1l0.3-3h1.9v3h2.9v1.8H457v5.6c0,1.3,0.5,2,1.6,2
							c0.4,0,0.9-0.1,1.2-0.3l0.4,1.7c-0.6,0.2-1.4,0.4-2.2,0.4C455.5,98.3,454.7,96.7,454.7,94.4z"/>
						<path class="st10" d="M461.9,83.6c0-0.8,0.6-1.4,1.5-1.4c0.8,0,1.5,0.5,1.5,1.4c0,0.8-0.6,1.4-1.5,1.4
							C462.5,84.9,461.9,84.4,461.9,83.6z M462.2,87h2.3v11h-2.3V87z"/>
						<path class="st10" d="M466.5,87h2.4l1.9,5.9c0.3,1.1,0.6,2.2,1,3.3h0.1c0.3-1.1,0.7-2.2,1-3.3l1.9-5.9h2.2l-3.8,11h-2.7
							L466.5,87z"/>
						<path class="st10" d="M478,92.5c0-3.6,2.4-5.8,5-5.8c2.9,0,4.5,2.1,4.5,5.2c0,0.4,0,0.9-0.1,1.2h-7.1c0.2,2.1,1.5,3.4,3.4,3.4
							c1,0,1.8-0.3,2.6-0.8l0.8,1.5c-1,0.7-2.3,1.2-3.7,1.2C480.4,98.3,478,96.1,478,92.5z M485.5,91.5c0-1.9-0.9-3-2.5-3
							c-1.4,0-2.6,1.1-2.8,3H485.5z"/>
						<path class="st10" d="M494.1,82h1.6l-5.6,19.6h-1.6L494.1,82z"/>
						<path class="st10" d="M496.7,95.1c0-2.4,2-3.6,6.6-4.1c0-1.3-0.5-2.4-2.1-2.4c-1.2,0-2.2,0.5-3.2,1.1l-0.9-1.6
							c1.1-0.7,2.7-1.4,4.4-1.4c2.7,0,4,1.7,4,4.7V98h-1.9l-0.2-1.3h-0.1c-1,0.9-2.2,1.5-3.5,1.5C498,98.3,496.7,97,496.7,95.1z
							 M503.2,95.2v-2.7c-3.3,0.4-4.4,1.2-4.4,2.5c0,1.1,0.7,1.5,1.7,1.5C501.6,96.4,502.3,96,503.2,95.2z"/>
						<path class="st10" d="M508.8,87h1.9l0.2,1.5h0.1c1-1,2.1-1.8,3.6-1.8c2.3,0,3.4,1.6,3.4,4.4V98h-2.3v-6.6
							c0-1.9-0.6-2.7-1.9-2.7c-1,0-1.7,0.5-2.7,1.5V98h-2.3V87z"/>
						<path class="st10" d="M521.6,94.4v-5.6H520v-1.7l1.7-0.1l0.3-3h1.9v3h2.9v1.8h-2.9v5.6c0,1.3,0.5,2,1.6,2
							c0.4,0,0.9-0.1,1.2-0.3l0.4,1.7c-0.6,0.2-1.4,0.4-2.2,0.4C522.5,98.3,521.6,96.7,521.6,94.4z"/>
						<path class="st10" d="M528.9,83.6c0-0.8,0.6-1.4,1.5-1.4c0.8,0,1.5,0.5,1.5,1.4c0,0.8-0.6,1.4-1.5,1.4
							C529.5,84.9,528.9,84.4,528.9,83.6z M529.2,87h2.3v11h-2.3V87z"/>
						<path class="st10" d="M534.1,91.5h5.3v1.7h-5.3V91.5z"/>
						<path class="st10" d="M541.4,95.1c0-2.4,2-3.6,6.6-4.1c0-1.3-0.5-2.4-2.1-2.4c-1.2,0-2.2,0.5-3.2,1.1l-0.9-1.6
							c1.1-0.7,2.7-1.4,4.4-1.4c2.7,0,4,1.7,4,4.7V98h-1.9l-0.2-1.3h-0.1c-1,0.9-2.2,1.5-3.5,1.5C542.8,98.3,541.4,97,541.4,95.1z
							 M548,95.2v-2.7c-3.3,0.4-4.4,1.2-4.4,2.5c0,1.1,0.7,1.5,1.7,1.5C546.3,96.4,547.1,96,548,95.2z"/>
						<path class="st10" d="M552.8,100c0-0.9,0.6-1.8,1.6-2.4v-0.1c-0.6-0.3-1-0.9-1-1.8c0-0.9,0.6-1.6,1.2-2v-0.1
							c-0.7-0.6-1.4-1.6-1.4-2.9c0-2.5,2-4,4.3-4c0.6,0,1.2,0.1,1.6,0.3h3.9v1.7h-2.1c0.4,0.4,0.7,1.2,0.7,2c0,2.4-1.8,3.8-4.1,3.8
							c-0.5,0-1.1-0.1-1.5-0.3c-0.4,0.3-0.6,0.6-0.6,1.2c0,0.7,0.4,1.1,1.8,1.1h2c2.6,0,4,0.8,4,2.7c0,2.1-2.2,3.8-5.8,3.8
							C554.7,102.9,552.8,102,552.8,100z M560.9,99.5c0-0.9-0.7-1.2-2.1-1.2h-1.7c-0.5,0-1-0.1-1.5-0.2c-0.7,0.5-0.9,1-0.9,1.6
							c0,1.1,1.1,1.7,2.9,1.7C559.6,101.4,560.9,100.5,560.9,99.5z M559.5,90.7c0-1.5-0.9-2.3-2.1-2.3s-2.1,0.8-2.1,2.3
							c0,1.5,0.9,2.4,2.1,2.4C558.6,93,559.5,92.1,559.5,90.7z"/>
						<path class="st10" d="M564.8,83.6c0-0.8,0.6-1.4,1.5-1.4c0.8,0,1.5,0.5,1.5,1.4c0,0.8-0.6,1.4-1.5,1.4
							C565.4,84.9,564.8,84.4,564.8,83.6z M565.1,87h2.3v11h-2.3V87z"/>
						<path class="st10" d="M570.9,87h1.9l0.2,1.5h0.1c1-1,2.1-1.8,3.6-1.8c2.3,0,3.4,1.6,3.4,4.4V98h-2.3v-6.6
							c0-1.9-0.6-2.7-1.9-2.7c-1,0-1.7,0.5-2.7,1.5V98h-2.3V87z"/>
						<path class="st10" d="M582.6,100c0-0.9,0.6-1.8,1.6-2.4v-0.1c-0.6-0.3-1-0.9-1-1.8c0-0.9,0.6-1.6,1.2-2v-0.1
							c-0.7-0.6-1.4-1.6-1.4-2.9c0-2.5,2-4,4.3-4c0.6,0,1.2,0.1,1.6,0.3h3.9v1.7h-2.1c0.4,0.4,0.7,1.2,0.7,2c0,2.4-1.8,3.8-4.1,3.8
							c-0.5,0-1.1-0.1-1.5-0.3c-0.4,0.3-0.6,0.6-0.6,1.2c0,0.7,0.4,1.1,1.8,1.1h2c2.6,0,4,0.8,4,2.7c0,2.1-2.2,3.8-5.8,3.8
							C584.5,102.9,582.6,102,582.6,100z M590.7,99.5c0-0.9-0.7-1.2-2.1-1.2h-1.7c-0.5,0-1-0.1-1.5-0.2c-0.7,0.5-0.9,1-0.9,1.6
							c0,1.1,1.1,1.7,2.9,1.7C589.4,101.4,590.7,100.5,590.7,99.5z M589.3,90.7c0-1.5-0.9-2.3-2.1-2.3s-2.1,0.8-2.1,2.3
							c0,1.5,0.9,2.4,2.1,2.4C588.3,93,589.3,92.1,589.3,90.7z"/>
						<path class="st10" d="M598.6,92.5c0-3.6,2.4-5.8,5-5.8c2.9,0,4.5,2.1,4.5,5.2c0,0.4,0,0.9-0.1,1.2h-7.1
							c0.2,2.1,1.5,3.4,3.4,3.4c1,0,1.8-0.3,2.6-0.8l0.8,1.5c-1,0.7-2.3,1.2-3.7,1.2C601,98.3,598.6,96.1,598.6,92.5z M606.2,91.5
							c0-1.9-0.9-3-2.5-3c-1.4,0-2.6,1.1-2.8,3H606.2z"/>
						<path class="st10" d="M622.6,83.9c-0.4-0.2-0.8-0.3-1.2-0.3c-1,0-1.5,0.6-1.5,2V87h2.2v1.8H620V98h-2.3v-9.2h-4.3V98H611v-9.2
							h-1.5v-1.7L611,87v-1.2c0-2.3,1.1-3.8,3.6-3.8c0.8,0,1.6,0.2,2.1,0.4l-0.5,1.7c-0.4-0.2-0.9-0.3-1.4-0.3c-1,0-1.6,0.7-1.6,2
							V87h4.3v-1.4c0-2.3,1-3.8,3.5-3.8c0.8,0,1.5,0.2,2,0.4L622.6,83.9z"/>
						<path class="st10" d="M623.2,92.5c0-3.6,2.4-5.8,5-5.8c2.9,0,4.5,2.1,4.5,5.2c0,0.4,0,0.9-0.1,1.2h-7.1
							c0.2,2.1,1.5,3.4,3.4,3.4c1,0,1.8-0.3,2.6-0.8l0.8,1.5c-1,0.7-2.3,1.2-3.7,1.2C625.6,98.3,623.2,96.1,623.2,92.5z M630.7,91.5
							c0-1.9-0.9-3-2.5-3c-1.4,0-2.6,1.1-2.8,3H630.7z"/>
						<path class="st10" d="M634.5,92.5c0-3.7,2.5-5.8,5.4-5.8c1.4,0,2.4,0.6,3.2,1.3l-1.1,1.5c-0.6-0.5-1.2-0.9-2-0.9
							c-1.8,0-3.2,1.6-3.2,3.9c0,2.3,1.3,3.9,3.1,3.9c0.9,0,1.7-0.4,2.4-1l0.9,1.5c-1,0.9-2.3,1.4-3.6,1.4
							C636.8,98.3,634.5,96.2,634.5,92.5z"/>
						<path class="st10" d="M645.8,94.4v-5.6h-1.6v-1.7l1.7-0.1l0.3-3h1.9v3h2.9v1.8h-2.9v5.6c0,1.3,0.5,2,1.6,2
							c0.4,0,0.9-0.1,1.2-0.3l0.4,1.7c-0.6,0.2-1.4,0.4-2.2,0.4C646.6,98.3,645.8,96.7,645.8,94.4z"/>
						<path class="st10" d="M651.9,96.7l1.1-1.5c1,0.8,1.9,1.3,3.1,1.3c1.3,0,1.9-0.6,1.9-1.5c0-1-1.2-1.4-2.4-1.9
							c-1.5-0.6-3.1-1.3-3.1-3.2c0-1.8,1.5-3.2,3.9-3.2c1.5,0,2.7,0.6,3.6,1.3l-1.1,1.4c-0.8-0.6-1.5-1-2.5-1
							c-1.2,0-1.8,0.6-1.8,1.4c0,0.9,1.1,1.3,2.3,1.7c1.5,0.6,3.2,1.3,3.2,3.3c0,1.8-1.5,3.3-4.2,3.3
							C654.6,98.3,653,97.6,651.9,96.7z"/>
					</g>
				</g>
			</g>
		</g>
	</g>
</g>
</svg>
