<?xml version="1.0" encoding="utf-8"?>
<!-- Generator: Adobe Illustrator 23.0.4, SVG Export Plug-In . SVG Version: 6.00 Build 0)  -->
<svg version="1.1" id="레이어_1" xmlns="http://www.w3.org/2000/svg" xmlns:xlink="http://www.w3.org/1999/xlink" x="0px"
	 y="0px" viewBox="0 0 334 670" style="enable-background:new 0 0 334 670;" xml:space="preserve">
<style type="text/css">
	.st0{fill-rule:evenodd;clip-rule:evenodd;fill:#91AF1E;fill-opacity:0.8;stroke:#819A1E;stroke-width:2;}
	.st1{enable-background:new    ;}
	.st2{fill:#FFFFFF;}
	.st3{font-family:'NotoSansKR-Medium-KSCpc-EUC-H';}
	.st4{font-size:15px;}
	.st5{font-family:'NotoSansKR-Light-KSCpc-EUC-H';}
	.st6{fill:none;stroke:#0E0E0E;stroke-width:2;stroke-linecap:square;}
	.st7{fill:none;stroke:#0E0E0E;stroke-width:2;stroke-linecap:round;stroke-linejoin:round;}
	.st8{fill:none;stroke:#B54142;stroke-width:2;}
	.st9{fill:#333333;}
</style>
<title>table2</title>
<desc>Created with Sketch.</desc>
<g id="Page-1">
	<g id="mobile1" transform="translate(-20.000000, -2802.000000)">
		<g id="table2" transform="translate(20.000000, 2802.000000)">
			<g id="box1">
				<path id="bg" class="st0" d="M9,1h316c4.4,0,8,3.6,8,8v361c0,4.4-3.6,8-8,8H9c-4.4,0-8-3.6-8-8V9C1,4.6,4.6,1,9,1z"/>
				<g class="st1">
					<path class="st2" d="M31.5,41h1.8l3.7,6.5l1.2,2.3h0.1c-0.1-1.1-0.2-2.5-0.2-3.7V41h1.6v11h-1.8l-3.7-6.5L33,43.2h-0.1
						c0.1,1.1,0.2,2.4,0.2,3.6V52h-1.6C31.5,52,31.5,41,31.5,41z"/>
					<path class="st2" d="M41.8,49.8c0-1.8,1.5-2.7,4.9-3.1c0-1-0.4-1.8-1.6-1.8c-0.9,0-1.7,0.4-2.4,0.8l-0.6-1.2
						c0.9-0.5,2-1.1,3.3-1.1c2.1,0,3,1.3,3,3.5v5H47L46.9,51l0,0c-0.8,0.6-1.6,1.1-2.6,1.1C42.8,52.2,41.8,51.3,41.8,49.8z
						 M46.8,49.9v-2c-2.4,0.3-3.3,0.9-3.3,1.8c0,0.8,0.6,1.1,1.3,1.1S46.1,50.5,46.8,49.9z"/>
					<path class="st2" d="M51,49.3v-4.2h-1.2v-1.3l1.3-0.1l0.2-2.3h1.5v2.3h2.1v1.4h-2.1v4.2c0,1,0.3,1.5,1.2,1.5
						c0.3,0,0.6-0.1,0.9-0.2l0.3,1.3c-0.5,0.2-1,0.3-1.6,0.3C51.6,52.2,51,51,51,49.3z"/>
					<path class="st2" d="M56.5,48.9v-5.2h1.7v5c0,1.4,0.4,2,1.4,2c0.8,0,1.3-0.4,2-1.2v-5.7h1.7V52h-1.4l-0.1-1.2l0,0
						c-0.8,0.9-1.6,1.4-2.7,1.4C57.3,52.2,56.5,51,56.5,48.9z"/>
					<path class="st2" d="M65.9,43.8h1.4l0.1,1.5l0,0c0.6-1.1,1.5-1.7,2.3-1.7c0.4,0,0.7,0.1,0.9,0.2l-0.3,1.5
						c-0.3-0.1-0.5-0.1-0.8-0.1c-0.7,0-1.5,0.5-2,1.8v5h-1.7L65.9,43.8L65.9,43.8z"/>
					<path class="st2" d="M71.2,49.8c0-1.8,1.5-2.7,4.9-3.1c0-1-0.4-1.8-1.6-1.8c-0.9,0-1.7,0.4-2.4,0.8l-0.6-1.2
						c0.9-0.5,2-1.1,3.3-1.1c2.1,0,3,1.3,3,3.5v5h-1.4L76.3,51l0,0c-0.8,0.6-1.6,1.1-2.6,1.1C72.2,52.2,71.2,51.3,71.2,49.8z
						 M76.1,49.9v-2c-2.4,0.3-3.3,0.9-3.3,1.8c0,0.8,0.6,1.1,1.3,1.1S75.4,50.5,76.1,49.9z"/>
					<path class="st2" d="M80.3,50.1V40H82v10.1c0,0.5,0.2,0.6,0.4,0.6c0.1,0,0.1,0,0.3,0l0.2,1.3c-0.2,0.1-0.5,0.1-0.9,0.1
						C80.7,52.2,80.3,51.4,80.3,50.1z"/>
					<path class="st2" d="M88.1,43.8h1.4l0.1,1.5l0,0c0.6-1.1,1.5-1.7,2.3-1.7c0.4,0,0.7,0.1,0.9,0.2l-0.3,1.5
						c-0.3-0.1-0.5-0.1-0.8-0.1c-0.7,0-1.5,0.5-2,1.8v5H88L88.1,43.8L88.1,43.8z"/>
					<path class="st2" d="M93.3,49.8c0-1.8,1.5-2.7,4.9-3.1c0-1-0.4-1.8-1.6-1.8c-0.9,0-1.7,0.4-2.4,0.8l-0.6-1.2
						c0.9-0.5,2-1.1,3.3-1.1c2.1,0,3,1.3,3,3.5v5h-1.4L98.4,51l0,0c-0.8,0.6-1.6,1.1-2.6,1.1C94.3,52.2,93.3,51.3,93.3,49.8z
						 M98.3,49.9v-2c-2.4,0.3-3.3,0.9-3.3,1.8c0,0.8,0.6,1.1,1.3,1.1C97,50.8,97.6,50.5,98.3,49.9z"/>
					<path class="st2" d="M101.5,43.8h1.7l1.1,4.5c0.2,0.8,0.3,1.6,0.5,2.3h0.1c0.2-0.8,0.3-1.6,0.5-2.3l1.2-4.5h1.6l1.2,4.5
						c0.2,0.8,0.4,1.6,0.6,2.3h0.1c0.2-0.8,0.3-1.5,0.5-2.3l1.1-4.5h1.6L111,52h-2l-1-4.1c-0.2-0.8-0.3-1.5-0.5-2.4h-0.1
						c-0.2,0.9-0.3,1.6-0.5,2.4l-1,4.1h-2L101.5,43.8z"/>
					<path class="st2" d="M118.2,43.8h1.4l0.1,1.2l0,0c0.7-0.8,1.5-1.4,2.5-1.4c1.2,0,1.9,0.6,2.3,1.5c0.8-0.9,1.6-1.5,2.7-1.5
						c1.7,0,2.5,1.2,2.5,3.3V52H128v-5c0-1.4-0.5-2-1.4-2c-0.6,0-1.2,0.4-1.9,1.1V52H123v-5c0-1.4-0.4-2-1.4-2
						c-0.6,0-1.2,0.4-1.9,1.1V52H118v-8.2H118.2z"/>
					<path class="st2" d="M131.9,49.8c0-1.8,1.5-2.7,4.9-3.1c0-1-0.4-1.8-1.6-1.8c-0.9,0-1.7,0.4-2.4,0.8l-0.6-1.2
						c0.9-0.5,2-1.1,3.3-1.1c2.1,0,3,1.3,3,3.5v5h-1.4L137,51l0,0c-0.8,0.6-1.6,1.1-2.6,1.1C132.9,52.2,131.9,51.3,131.9,49.8z
						 M136.8,49.9v-2c-2.4,0.3-3.3,0.9-3.3,1.8c0,0.8,0.6,1.1,1.3,1.1C135.6,50.8,136.2,50.5,136.8,49.9z"/>
					<path class="st2" d="M141,49.3v-4.2h-1.2v-1.3l1.3-0.1l0.2-2.3h1.5v2.3h2.1v1.4h-2.1v4.2c0,1,0.3,1.5,1.2,1.5
						c0.3,0,0.6-0.1,0.9-0.2l0.3,1.3c-0.5,0.2-1,0.3-1.6,0.3C141.7,52.2,141,51,141,49.3z"/>
					<path class="st2" d="M145.8,47.9c0-2.7,1.8-4.4,3.8-4.4c2.2,0,3.4,1.6,3.4,3.9c0,0.3,0,0.7-0.1,0.9h-5.4
						c0.1,1.6,1.1,2.5,2.5,2.5c0.7,0,1.4-0.2,2-0.6l0.6,1.1c-0.8,0.5-1.7,0.9-2.8,0.9C147.6,52.2,145.8,50.6,145.8,47.9z
						 M151.5,47.1c0-1.4-0.6-2.2-1.8-2.2c-1,0-1.9,0.8-2.1,2.2H151.5z"/>
					<path class="st2" d="M154.9,43.8h1.4l0.1,1.5l0,0c0.6-1.1,1.5-1.7,2.3-1.7c0.4,0,0.7,0.1,0.9,0.2l-0.3,1.5
						c-0.3-0.1-0.5-0.1-0.8-0.1c-0.7,0-1.5,0.5-2,1.8v5h-1.7v-8.2H154.9z"/>
					<path class="st2" d="M160.8,41.2c0-0.6,0.5-1,1.1-1s1.1,0.4,1.1,1s-0.5,1-1.1,1S160.8,41.8,160.8,41.2z M161,43.8h1.7V52H161
						V43.8z"/>
					<path class="st2" d="M164.9,49.8c0-1.8,1.5-2.7,4.9-3.1c0-1-0.4-1.8-1.6-1.8c-0.9,0-1.7,0.4-2.4,0.8l-0.6-1.2
						c0.9-0.5,2-1.1,3.3-1.1c2.1,0,3,1.3,3,3.5v5h-1.4l-0.2-0.9l0,0c-0.8,0.6-1.6,1.1-2.6,1.1C165.9,52.2,164.9,51.3,164.9,49.8z
						 M169.8,49.9v-2c-2.4,0.3-3.3,0.9-3.3,1.8c0,0.8,0.6,1.1,1.3,1.1S169.1,50.5,169.8,49.9z"/>
					<path class="st2" d="M174,50.1V40h1.7v10.1c0,0.5,0.2,0.6,0.4,0.6c0.1,0,0.1,0,0.3,0l0.2,1.3c-0.2,0.1-0.5,0.1-0.9,0.1
						C174.4,52.2,174,51.4,174,50.1z"/>
					<path class="st2" d="M177.6,51.1l0.8-1.1c0.7,0.6,1.5,0.9,2.3,0.9c1,0,1.5-0.5,1.5-1.1c0-0.8-0.9-1.1-1.8-1.4
						c-1.1-0.4-2.4-1-2.4-2.4s1.1-2.4,2.9-2.4c1.1,0,2,0.5,2.7,1l-0.8,1.1c-0.6-0.4-1.2-0.7-1.8-0.7c-0.9,0-1.3,0.5-1.3,1
						c0,0.7,0.9,1,1.8,1.3c1.2,0.4,2.4,0.9,2.4,2.5c0,1.4-1.1,2.5-3.1,2.5C179.5,52.2,178.4,51.7,177.6,51.1z"/>
					<path class="st2" d="M187.9,43.8h1.8l1.4,4.4c0.2,0.8,0.5,1.6,0.7,2.5h0.1c0.2-0.8,0.5-1.7,0.7-2.5l1.4-4.4h1.7l-2.9,8.2h-2
						L187.9,43.8z"/>
					<path class="st2" d="M196.5,47.9c0-2.7,1.8-4.4,3.8-4.4c2.2,0,3.4,1.6,3.4,3.9c0,0.3,0,0.7-0.1,0.9h-5.4
						c0.1,1.6,1.1,2.5,2.5,2.5c0.7,0,1.4-0.2,2-0.6l0.6,1.1c-0.8,0.5-1.7,0.9-2.8,0.9C198.3,52.2,196.5,50.6,196.5,47.9z
						 M202.2,47.1c0-1.4-0.6-2.2-1.8-2.2c-1,0-2,0.8-2.1,2.2H202.2z"/>
					<path class="st2" d="M205.6,43.8h1.4l0.1,1.5l0,0c0.6-1.1,1.5-1.7,2.3-1.7c0.4,0,0.7,0.1,0.9,0.2l-0.3,1.5
						c-0.3-0.1-0.5-0.1-0.8-0.1c-0.7,0-1.5,0.5-2,1.8v5h-1.7v-8.2H205.6z"/>
					<path class="st2" d="M211.5,41.2c0-0.6,0.5-1,1.1-1s1.1,0.4,1.1,1s-0.5,1-1.1,1C211.9,42.2,211.5,41.8,211.5,41.2z M211.7,43.8
						h1.7V52h-1.7V43.8z"/>
					<path class="st2" d="M216.3,42.7c0-1.7,0.8-2.9,2.6-2.9c0.6,0,1.1,0.1,1.5,0.3l-0.3,1.3c-0.3-0.1-0.6-0.2-0.9-0.2
						c-0.7,0-1.1,0.5-1.1,1.5v1h1.7v1.4H218V52h-1.7v-6.9h-1.1v-1.3l1.1-0.1V42.7z M221.2,41.2c0-0.6,0.5-1,1.1-1s1.1,0.4,1.1,1
						s-0.5,1-1.1,1S221.2,41.8,221.2,41.2z M221.5,43.8h1.7V52h-1.7V43.8z"/>
					<path class="st2" d="M225.2,47.9c0-2.7,1.8-4.4,3.8-4.4c2.2,0,3.4,1.6,3.4,3.9c0,0.3,0,0.7-0.1,0.9h-5.4
						c0.1,1.6,1.1,2.5,2.5,2.5c0.7,0,1.4-0.2,2-0.6l0.6,1.1c-0.8,0.5-1.7,0.9-2.8,0.9C227,52.2,225.2,50.6,225.2,47.9z M230.9,47.1
						c0-1.4-0.6-2.2-1.8-2.2c-1,0-2,0.8-2.1,2.2H230.9z"/>
					<path class="st2" d="M233.7,47.9c0-2.7,1.7-4.4,3.5-4.4c0.9,0,1.5,0.4,2.2,0.9l-0.1-1.4v-3h1.7v12h-1.4l-0.2-0.9l0,0
						c-0.6,0.6-1.5,1.1-2.4,1.1C235.1,52.2,233.7,50.6,233.7,47.9z M239.4,49.8v-4c-0.6-0.6-1.2-0.8-1.8-0.8c-1.2,0-2.1,1.1-2.1,2.9
						c0,1.9,0.7,2.9,2,2.9C238.2,50.8,238.8,50.5,239.4,49.8z"/>
					<path class="st2" d="M248.7,51.1L248.7,51.1l-0.2,0.9h-1.3V40h1.7v3.2v1.4c0.7-0.6,1.6-1.1,2.5-1.1c2.1,0,3.3,1.7,3.3,4.2
						c0,2.8-1.7,4.5-3.6,4.5C250.2,52.2,249.4,51.8,248.7,51.1z M252.7,47.8c0-1.7-0.6-2.8-1.9-2.8c-0.6,0-1.3,0.3-2,1v4
						c0.6,0.6,1.3,0.8,1.8,0.8C251.8,50.8,252.7,49.7,252.7,47.8z"/>
					<path class="st2" d="M260.1,52.5c-0.6,1.8-1.5,3-3.3,3c-0.4,0-0.8-0.1-1-0.2l0.3-1.4c0.1,0,0.4,0.1,0.6,0.1
						c0.9,0,1.4-0.7,1.7-1.5l0.2-0.6l-3.3-8.2h1.8l1.5,4.2c0.2,0.7,0.5,1.6,0.8,2.3h0.1l0.6-2.3l1.3-4.2h1.7L260.1,52.5z"/>
				</g>
				<text transform="matrix(1 0 0 1 262.9914 52)" class="st2 st3 st4"> </text>
				<g class="st1">
					<path class="st2" d="M30.8,71.8c0-1.8,1.5-2.7,4.9-3.1c0-1-0.4-1.8-1.6-1.8c-0.9,0-1.7,0.4-2.4,0.8l-0.6-1.2
						c0.9-0.5,2-1.1,3.3-1.1c2.1,0,3,1.3,3,3.5v5H36L35.9,73l0,0c-0.8,0.6-1.6,1.1-2.6,1.1C31.8,74.2,30.8,73.3,30.8,71.8z
						 M35.8,71.9v-2c-2.4,0.3-3.3,0.9-3.3,1.8c0,0.8,0.6,1.1,1.3,1.1S35.1,72.5,35.8,71.9z"/>
					<path class="st2" d="M39.4,69.9c0-2.7,1.7-4.4,3.5-4.4c0.9,0,1.5,0.4,2.2,0.9L45,65v-3h1.7v12h-1.4l-0.1-0.9l0,0
						c-0.6,0.6-1.5,1.1-2.4,1.1C40.7,74.2,39.4,72.6,39.4,69.9z M45.1,71.8v-4c-0.6-0.6-1.2-0.8-1.8-0.8c-1.2,0-2.1,1.1-2.1,2.9
						c0,1.9,0.7,2.9,2,2.9C43.9,72.8,44.5,72.5,45.1,71.8z"/>
					<path class="st2" d="M48.3,65.8H50l1.4,4.4c0.2,0.8,0.5,1.6,0.7,2.5h0.1c0.2-0.8,0.5-1.7,0.7-2.5l1.4-4.4H56L53.2,74h-2
						L48.3,65.8z"/>
					<path class="st2" d="M56.7,71.8c0-1.8,1.5-2.7,4.9-3.1c0-1-0.4-1.8-1.6-1.8c-0.9,0-1.7,0.4-2.4,0.8L57,66.5
						c0.9-0.5,2-1.1,3.3-1.1c2.1,0,3,1.3,3,3.5v5H62L61.9,73l0,0c-0.8,0.6-1.6,1.1-2.6,1.1C57.8,74.2,56.7,73.3,56.7,71.8z
						 M61.7,71.9v-2c-2.4,0.3-3.3,0.9-3.3,1.8c0,0.8,0.6,1.1,1.3,1.1S61,72.5,61.7,71.9z"/>
					<path class="st2" d="M65.9,65.8h1.4l0.1,1.1l0,0c0.8-0.7,1.6-1.4,2.7-1.4c1.8,0,2.5,1.2,2.5,3.3V74H71v-5c0-1.4-0.4-2-1.4-2
						c-0.8,0-1.3,0.4-2,1.1V74h-1.7V65.8z"/>
					<path class="st2" d="M74.6,69.9c0-2.8,1.9-4.4,4.1-4.4c1,0,1.8,0.4,2.4,0.9l-0.9,1.1c-0.5-0.4-0.9-0.6-1.5-0.6
						c-1.4,0-2.4,1.2-2.4,2.9c0,1.7,0.9,2.9,2.3,2.9c0.7,0,1.3-0.3,1.8-0.8l0.7,1.1c-0.7,0.7-1.7,1-2.7,1
						C76.3,74.2,74.6,72.6,74.6,69.9z"/>
					<path class="st2" d="M82,69.9c0-2.7,1.8-4.4,3.8-4.4c2.2,0,3.4,1.6,3.4,3.9c0,0.3,0,0.7-0.1,0.9h-5.4c0.1,1.6,1.1,2.5,2.5,2.5
						c0.7,0,1.4-0.2,2-0.6l0.6,1.1c-0.8,0.5-1.7,0.9-2.8,0.9C83.8,74.2,82,72.6,82,69.9z M87.6,69.1c0-1.4-0.6-2.2-1.8-2.2
						c-1,0-1.9,0.8-2.1,2.2H87.6z"/>
					<path class="st2" d="M90.5,69.9c0-2.7,1.7-4.4,3.5-4.4c0.9,0,1.5,0.4,2.2,0.9L96.1,65v-3h1.7v12h-1.4l-0.1-0.9l0,0
						c-0.6,0.6-1.5,1.1-2.4,1.1C91.8,74.2,90.5,72.6,90.5,69.9z M96.2,71.8v-4C95.6,67.2,95,67,94.4,67c-1.2,0-2.1,1.1-2.1,2.9
						c0,1.9,0.7,2.9,2,2.9C95,72.8,95.6,72.5,96.2,71.8z"/>
					<path class="st2" d="M105.4,73.1L105.4,73.1l-0.2,0.9h-1.3V62h1.7v3.2v1.4c0.7-0.6,1.6-1.1,2.5-1.1c2.1,0,3.3,1.7,3.3,4.2
						c0,2.8-1.7,4.5-3.6,4.5C107,74.2,106.1,73.8,105.4,73.1z M109.5,69.8c0-1.7-0.6-2.8-1.9-2.8c-0.6,0-1.3,0.3-2,1v4
						c0.6,0.6,1.3,0.8,1.8,0.8C108.6,72.8,109.5,71.7,109.5,69.8z"/>
					<path class="st2" d="M113.1,63.2c0-0.6,0.5-1,1.1-1s1.1,0.4,1.1,1s-0.5,1-1.1,1C113.5,64.2,113.1,63.8,113.1,63.2z M113.3,65.8
						h1.7V74h-1.7V65.8z"/>
					<path class="st2" d="M117,69.9c0-2.8,1.8-4.4,3.9-4.4c2,0,3.9,1.6,3.9,4.4c0,2.7-1.8,4.3-3.9,4.3C118.9,74.2,117,72.6,117,69.9
						z M123,69.9c0-1.8-0.8-2.9-2.1-2.9c-1.3,0-2.1,1.2-2.1,2.9c0,1.7,0.8,2.9,2.1,2.9S123,71.6,123,69.9z"/>
					<path class="st2" d="M130.5,71.3v-4.2h-1.2v-1.3l1.3-0.1l0.2-2.3h1.5v2.3h2.1v1.4h-2.1v4.2c0,1,0.3,1.5,1.2,1.5
						c0.3,0,0.6-0.1,0.9-0.2l0.3,1.3c-0.5,0.2-1,0.3-1.6,0.3C131.1,74.2,130.5,73,130.5,71.3z"/>
					<path class="st2" d="M135.3,69.9c0-2.7,1.8-4.4,3.8-4.4c2.2,0,3.4,1.6,3.4,3.9c0,0.3,0,0.7-0.1,0.9H137
						c0.1,1.6,1.1,2.5,2.5,2.5c0.7,0,1.4-0.2,2-0.6l0.6,1.1c-0.8,0.5-1.7,0.9-2.8,0.9C137.1,74.2,135.3,72.6,135.3,69.9z
						 M140.9,69.1c0-1.4-0.6-2.2-1.8-2.2c-1,0-1.9,0.8-2.1,2.2H140.9z"/>
					<path class="st2" d="M143.8,69.9c0-2.8,1.9-4.4,4.1-4.4c1,0,1.8,0.4,2.4,0.9l-0.9,1.1c-0.5-0.4-0.9-0.6-1.5-0.6
						c-1.4,0-2.4,1.2-2.4,2.9c0,1.7,0.9,2.9,2.3,2.9c0.7,0,1.3-0.3,1.8-0.8l0.7,1.1c-0.7,0.7-1.7,1-2.7,1
						C145.5,74.2,143.8,72.6,143.8,69.9z"/>
					<path class="st2" d="M152.1,62h1.7v3.2l-0.1,1.6c0.7-0.7,1.5-1.3,2.7-1.3c1.8,0,2.5,1.2,2.5,3.3V74h-1.7v-5c0-1.4-0.4-2-1.4-2
						c-0.8,0-1.3,0.4-2,1.1V74h-1.7V62z"/>
					<path class="st2" d="M161.4,65.8h1.4l0.1,1.1l0,0c0.8-0.7,1.6-1.4,2.7-1.4c1.8,0,2.5,1.2,2.5,3.3V74h-1.7v-5c0-1.4-0.4-2-1.4-2
						c-0.8,0-1.3,0.4-2,1.1V74h-1.7L161.4,65.8L161.4,65.8z"/>
					<path class="st2" d="M170.2,69.9c0-2.8,1.8-4.4,3.9-4.4c2,0,3.9,1.6,3.9,4.4c0,2.7-1.8,4.3-3.9,4.3
						C172,74.2,170.2,72.6,170.2,69.9z M176.2,69.9c0-1.8-0.8-2.9-2.1-2.9s-2.1,1.2-2.1,2.9c0,1.7,0.8,2.9,2.1,2.9
						S176.2,71.6,176.2,69.9z"/>
					<path class="st2" d="M180,72.1V62h1.7v10.1c0,0.5,0.2,0.6,0.4,0.6c0.1,0,0.1,0,0.3,0l0.2,1.3c-0.2,0.1-0.5,0.1-0.9,0.1
						C180.5,74.2,180,73.4,180,72.1z"/>
					<path class="st2" d="M183.9,69.9c0-2.8,1.8-4.4,3.9-4.4s3.9,1.6,3.9,4.4c0,2.7-1.8,4.3-3.9,4.3S183.9,72.6,183.9,69.9z
						 M189.9,69.9c0-1.8-0.8-2.9-2.1-2.9s-2.1,1.2-2.1,2.9c0,1.7,0.8,2.9,2.1,2.9C189.1,72.8,189.9,71.6,189.9,69.9z"/>
					<path class="st2" d="M193.1,75.5c0-0.7,0.4-1.3,1.2-1.8v-0.1c-0.4-0.3-0.8-0.7-0.8-1.4c0-0.6,0.5-1.2,0.9-1.5v-0.1
						c-0.6-0.4-1.1-1.2-1.1-2.2c0-1.9,1.5-3,3.2-3c0.5,0,0.9,0.1,1.2,0.2h2.9V67H199c0.3,0.3,0.5,0.9,0.5,1.5c0,1.8-1.4,2.8-3.1,2.8
						c-0.4,0-0.8-0.1-1.2-0.3c-0.3,0.2-0.5,0.5-0.5,0.9c0,0.5,0.3,0.8,1.4,0.8h1.5c2,0,3,0.6,3,2c0,1.6-1.7,2.9-4.3,2.9
						C194.5,77.7,193.1,77,193.1,75.5z M199.2,75.1c0-0.7-0.5-0.9-1.5-0.9h-1.2c-0.4,0-0.8,0-1.1-0.1c-0.5,0.4-0.7,0.8-0.7,1.2
						c0,0.8,0.8,1.3,2.2,1.3C198.2,76.6,199.2,75.9,199.2,75.1z M198.1,68.5c0-1.1-0.7-1.8-1.6-1.8c-0.9,0-1.6,0.6-1.6,1.8
						c0,1.1,0.7,1.8,1.6,1.8C197.4,70.3,198.1,69.6,198.1,68.5z"/>
					<path class="st2" d="M202.1,63.2c0-0.6,0.5-1,1.1-1s1.1,0.4,1.1,1s-0.5,1-1.1,1S202.1,63.8,202.1,63.2z M202.3,65.8h1.7V74
						h-1.7V65.8z"/>
					<path class="st2" d="M206.1,69.9c0-2.7,1.8-4.4,3.8-4.4c2.2,0,3.4,1.6,3.4,3.9c0,0.3,0,0.7-0.1,0.9h-5.4
						c0.1,1.6,1.1,2.5,2.5,2.5c0.7,0,1.4-0.2,2-0.6l0.6,1.1c-0.8,0.5-1.7,0.9-2.8,0.9C207.9,74.2,206.1,72.6,206.1,69.9z
						 M211.7,69.1c0-1.4-0.6-2.2-1.8-2.2c-1,0-2,0.8-2.1,2.2H211.7z"/>
					<path class="st2" d="M214.3,73.1l0.8-1.1c0.7,0.6,1.5,0.9,2.3,0.9c1,0,1.5-0.5,1.5-1.1c0-0.8-0.9-1.1-1.8-1.4
						c-1.1-0.4-2.4-1-2.4-2.4s1.1-2.4,2.9-2.4c1.1,0,2,0.5,2.7,1l-0.8,1.1c-0.6-0.4-1.2-0.7-1.8-0.7c-0.9,0-1.3,0.5-1.3,1
						c0,0.7,0.9,1,1.8,1.3c1.2,0.4,2.4,0.9,2.4,2.5c0,1.4-1.1,2.5-3.1,2.5C216.2,74.2,215.1,73.7,214.3,73.1z"/>
				</g>
				<g class="st1">
					<path class="st2" d="M30.7,111.5h3.7v0.7h-3.7V111.5z"/>
					<path class="st2" d="M39.1,114.6l0.6-0.6c0.8,0.9,1.9,1.5,3.2,1.5c1.6,0,2.6-0.9,2.6-2.1c0-1.3-0.9-1.7-1.9-2.2l-1.6-0.7
						c-1-0.4-2.2-1.1-2.2-2.7s1.4-2.7,3.2-2.7c1.3,0,2.4,0.6,3.1,1.3l-0.5,0.6c-0.6-0.7-1.5-1.1-2.6-1.1c-1.4,0-2.3,0.7-2.3,1.9
						c0,1.2,1.1,1.7,1.9,2.1l1.6,0.7c1.2,0.6,2.3,1.2,2.3,2.9c0,1.7-1.4,3-3.5,3C41.2,116.2,40,115.5,39.1,114.6z"/>
					<path class="st2" d="M47.9,112c0-2.6,1.7-4.2,3.5-4.2c1.9,0,3.1,1.4,3.1,3.7c0,0.2,0,0.4,0,0.6h-5.7c0,1.9,1.2,3.3,2.9,3.3
						c0.9,0,1.5-0.3,2.1-0.7l0.3,0.6c-0.6,0.4-1.4,0.8-2.6,0.8C49.5,116.2,47.9,114.6,47.9,112z M53.7,111.5c0-1.9-0.9-2.9-2.3-2.9
						c-1.3,0-2.5,1.1-2.6,2.9H53.7z"/>
					<path class="st2" d="M55.9,112c0-2.7,1.7-4.2,3.7-4.2c1.1,0,1.8,0.5,2.3,1l-0.5,0.6c-0.5-0.5-1.1-0.8-1.8-0.8
						c-1.6,0-2.8,1.4-2.8,3.4s1.1,3.4,2.8,3.4c0.8,0,1.5-0.4,2.1-0.9l0.4,0.6c-0.7,0.6-1.5,1-2.5,1C57.5,116.2,55.9,114.7,55.9,112z
						"/>
					<path class="st2" d="M64,113.1V108h0.9v5c0,1.6,0.5,2.4,1.7,2.4c0.9,0,1.6-0.5,2.5-1.6V108H70v8h-0.7l-0.1-1.3l0,0
						c-0.8,0.9-1.6,1.5-2.7,1.5C64.7,116.2,64,115.2,64,113.1z"/>
					<path class="st2" d="M72.9,108h0.7l0.1,1.5l0,0c0.5-1,1.3-1.7,2.3-1.7c0.3,0,0.6,0,0.8,0.2l-0.2,0.8c-0.3-0.1-0.4-0.1-0.7-0.1
						c-0.7,0-1.6,0.5-2.1,2v5.4h-0.9C72.9,116.1,72.9,108,72.9,108z"/>
					<path class="st2" d="M77.5,112c0-2.6,1.7-4.2,3.5-4.2c1.9,0,3.1,1.4,3.1,3.7c0,0.2,0,0.4,0,0.6h-5.7c0,1.9,1.2,3.3,2.9,3.3
						c0.9,0,1.5-0.3,2.1-0.7l0.3,0.6c-0.6,0.4-1.4,0.8-2.6,0.8C79.2,116.2,77.5,114.6,77.5,112z M83.3,111.5c0-1.9-0.9-2.9-2.3-2.9
						c-1.3,0-2.5,1.1-2.6,2.9H83.3z"/>
					<path class="st2" d="M88.6,115.1l0.5-0.6c0.7,0.6,1.4,1,2.5,1c1.2,0,1.8-0.7,1.8-1.5c0-0.9-1-1.4-1.9-1.7
						c-1.2-0.4-2.5-0.9-2.5-2.3c0-1.2,0.9-2.2,2.6-2.2c0.9,0,1.7,0.4,2.3,0.9l-0.4,0.6c-0.5-0.4-1.1-0.7-1.9-0.7
						c-1.2,0-1.7,0.7-1.7,1.4c0,0.9,0.9,1.2,1.9,1.6c1.2,0.5,2.6,0.9,2.6,2.4c0,1.2-1,2.3-2.7,2.3C90.3,116.2,89.3,115.7,88.6,115.1
						z"/>
					<path class="st2" d="M95.7,112c0-2.7,1.7-4.2,3.7-4.2c1.1,0,1.8,0.5,2.3,1l-0.5,0.6c-0.5-0.5-1.1-0.8-1.8-0.8
						c-1.6,0-2.8,1.4-2.8,3.4s1.1,3.4,2.8,3.4c0.8,0,1.5-0.4,2.1-0.9l0.4,0.6c-0.7,0.6-1.5,1-2.5,1C97.2,116.2,95.7,114.7,95.7,112z
						"/>
					<path class="st2" d="M103.5,105.4c0-0.5,0.3-0.7,0.7-0.7c0.4,0,0.7,0.3,0.7,0.7c0,0.4-0.3,0.7-0.7,0.7
						C103.9,106.1,103.5,105.8,103.5,105.4z M103.8,108h0.9v8h-0.9V108z"/>
					<path class="st2" d="M107,112c0-2.6,1.7-4.2,3.5-4.2c1.9,0,3.1,1.4,3.1,3.7c0,0.2,0,0.4,0,0.6h-5.7c0,1.9,1.2,3.3,2.9,3.3
						c0.9,0,1.5-0.3,2.1-0.7l0.3,0.6c-0.6,0.4-1.4,0.8-2.5,0.8C108.7,116.2,107,114.6,107,112z M112.8,111.5c0-1.9-0.9-2.9-2.3-2.9
						c-1.3,0-2.5,1.1-2.6,2.9H112.8z"/>
					<path class="st2" d="M115.7,108h0.7l0.1,1.2l0,0c0.8-0.8,1.6-1.4,2.7-1.4c1.7,0,2.4,1,2.4,3.1v5.1h-0.9v-5
						c0-1.7-0.5-2.4-1.8-2.4c-0.9,0-1.6,0.5-2.5,1.4v6h-0.9v-8H115.7z"/>
					<path class="st2" d="M124.8,113.7v-5h-1.2V108l1.3-0.1l0.1-2.3h0.7v2.3h2.3v0.7h-2.3v5c0,1,0.3,1.7,1.3,1.7
						c0.3,0,0.7-0.1,1-0.2l0.2,0.7c-0.5,0.2-1,0.3-1.3,0.3C125.3,116.2,124.8,115.2,124.8,113.7z"/>
					<path class="st2" d="M129.6,105.4c0-0.5,0.3-0.7,0.7-0.7s0.7,0.3,0.7,0.7c0,0.4-0.3,0.7-0.7,0.7
						C130,106.1,129.6,105.8,129.6,105.4z M129.9,108h0.9v8h-0.9V108z"/>
					<path class="st2" d="M133.9,106.3c0-1.6,0.7-2.4,2.1-2.4c0.4,0,0.8,0.1,1.2,0.3l-0.2,0.7c-0.3-0.2-0.6-0.2-0.9-0.2
						c-0.9,0-1.2,0.6-1.2,1.8v1.6h1.8v0.7h-1.8v7.3H134v-7.3h-1.1v-0.7l1.1-0.1v-1.7H133.9z M139.7,105.4c0,0.4-0.3,0.7-0.7,0.7
						s-0.7-0.3-0.7-0.7c0-0.5,0.3-0.7,0.7-0.7C139.4,104.7,139.7,105,139.7,105.4z M138.5,108h0.9v8h-0.9V108z"/>
					<path class="st2" d="M141.7,112c0-2.7,1.7-4.2,3.7-4.2c1.1,0,1.8,0.5,2.3,1l-0.5,0.6c-0.5-0.5-1.1-0.8-1.8-0.8
						c-1.6,0-2.8,1.4-2.8,3.4s1.1,3.4,2.8,3.4c0.8,0,1.5-0.4,2.1-0.9l0.4,0.6c-0.7,0.6-1.5,1-2.5,1
						C143.3,116.2,141.7,114.7,141.7,112z"/>
					<path class="st2" d="M152.5,112c0-2.7,1.7-4.2,3.7-4.2c1.1,0,1.8,0.5,2.3,1l-0.5,0.6c-0.5-0.5-1.1-0.8-1.8-0.8
						c-1.6,0-2.8,1.4-2.8,3.4s1.1,3.4,2.8,3.4c0.8,0,1.5-0.4,2.1-0.9l0.4,0.6c-0.7,0.6-1.5,1-2.5,1
						C154.1,116.2,152.5,114.7,152.5,112z"/>
					<path class="st2" d="M160.7,108h0.7l0.1,1.5l0,0c0.5-1,1.3-1.7,2.3-1.7c0.3,0,0.6,0,0.8,0.2l-0.2,0.8c-0.3-0.1-0.4-0.1-0.7-0.1
						c-0.7,0-1.6,0.5-2.1,2v5.4h-0.9L160.7,108L160.7,108z"/>
					<path class="st2" d="M165.3,112c0-2.6,1.7-4.2,3.5-4.2c1.9,0,3.1,1.4,3.1,3.7c0,0.2,0,0.4,0,0.6h-5.7c0,1.9,1.2,3.3,2.9,3.3
						c0.9,0,1.5-0.3,2.1-0.7l0.3,0.6c-0.6,0.4-1.4,0.8-2.5,0.8C166.9,116.2,165.3,114.6,165.3,112z M171.1,111.5
						c0-1.9-0.9-2.9-2.3-2.9c-1.3,0-2.5,1.1-2.6,2.9H171.1z"/>
					<path class="st2" d="M173.3,112c0-2.6,1.7-4.2,3.5-4.2c1,0,1.6,0.4,2.4,1l-0.1-1.4v-3.3h0.9V116h-0.7l-0.1-1l0,0
						c-0.6,0.6-1.5,1.2-2.6,1.2C174.6,116.2,173.3,114.7,173.3,112z M179.2,114.2v-4.6c-0.8-0.7-1.5-1-2.2-1c-1.5,0-2.7,1.5-2.7,3.4
						c0,2.1,0.9,3.4,2.5,3.4C177.6,115.4,178.4,115,179.2,114.2z"/>
					<path class="st2" d="M182.8,105.4c0-0.5,0.3-0.7,0.7-0.7s0.7,0.3,0.7,0.7c0,0.4-0.3,0.7-0.7,0.7S182.8,105.8,182.8,105.4z
						 M183.1,108h0.9v8h-0.9V108z"/>
					<path class="st2" d="M187.8,115.2L187.8,115.2l-0.1,0.8H187v-11.9h0.9v3.4v1.5c0.8-0.7,1.7-1.2,2.7-1.2c2.1,0,3.2,1.6,3.2,4.1
						c0,2.7-1.6,4.3-3.5,4.3C189.4,116.2,188.5,115.8,187.8,115.2z M192.7,111.9c0-1.9-0.7-3.3-2.4-3.3c-0.8,0-1.6,0.5-2.5,1.3v4.6
						c0.8,0.7,1.7,1,2.3,1C191.6,115.4,192.7,114,192.7,111.9z"/>
					<path class="st2" d="M195.7,105.4c0-0.5,0.3-0.7,0.7-0.7s0.7,0.3,0.7,0.7c0,0.4-0.3,0.7-0.7,0.7S195.7,105.8,195.7,105.4z
						 M196,108h0.9v8H196V108z"/>
					<path class="st2" d="M199.8,114.8v-10.7h0.9v10.8c0,0.4,0.2,0.5,0.4,0.5c0.1,0,0.1,0,0.3,0l0.1,0.7c-0.1,0-0.3,0.1-0.6,0.1
						C200.2,116.2,199.8,115.7,199.8,114.8z"/>
					<path class="st2" d="M203.5,105.4c0-0.5,0.3-0.7,0.7-0.7s0.7,0.3,0.7,0.7c0,0.4-0.3,0.7-0.7,0.7
						C203.9,106.1,203.5,105.8,203.5,105.4z M203.8,108h0.9v8h-0.9V108z"/>
					<path class="st2" d="M207.9,113.7v-5h-1.2V108l1.3-0.1l0.1-2.3h0.7v2.3h2.3v0.7h-2.3v5c0,1,0.3,1.7,1.3,1.7
						c0.3,0,0.7-0.1,1-0.2l0.2,0.7c-0.5,0.2-1,0.3-1.3,0.3C208.3,116.2,207.9,115.2,207.9,113.7z"/>
					<path class="st2" d="M211.9,119.4l0.2-0.7c0.2,0.1,0.4,0.1,0.6,0.1c1,0,1.6-0.9,2-2l0.2-0.7l-3.3-8.1h0.9l1.9,4.9
						c0.3,0.7,0.6,1.5,0.8,2.2h0.1c0.2-0.7,0.5-1.6,0.7-2.2l1.6-4.9h0.9l-3.1,8.9c-0.5,1.4-1.3,2.7-2.8,2.7
						C212.4,119.6,212.1,119.5,211.9,119.4z"/>
					<path class="st2" d="M223.8,113.7v-5h-1.2V108l1.3-0.1l0.1-2.3h0.7v2.3h2.3v0.7h-2.3v5c0,1,0.3,1.7,1.3,1.7
						c0.3,0,0.7-0.1,1-0.2l0.2,0.7c-0.5,0.2-1,0.3-1.3,0.3C224.3,116.2,223.8,115.2,223.8,113.7z"/>
					<path class="st2" d="M228.9,104.1h0.9v3.4v1.7c0.8-0.8,1.6-1.4,2.7-1.4c1.7,0,2.4,1,2.4,3.1v5.1H234v-5c0-1.7-0.5-2.4-1.8-2.4
						c-0.9,0-1.6,0.5-2.5,1.4v6h-0.9v-11.9H228.9z"/>
					<path class="st2" d="M237.7,108h0.7l0.1,1.5l0,0c0.5-1,1.3-1.7,2.3-1.7c0.3,0,0.6,0,0.8,0.2l-0.2,0.8c-0.3-0.1-0.4-0.1-0.7-0.1
						c-0.7,0-1.6,0.5-2.1,2v5.4h-0.9L237.7,108L237.7,108z"/>
					<path class="st2" d="M242.3,112c0-2.7,1.7-4.2,3.6-4.2s3.6,1.5,3.6,4.2s-1.7,4.2-3.6,4.2S242.3,114.7,242.3,112z M248.6,112
						c0-2-1.2-3.4-2.7-3.4s-2.7,1.4-2.7,3.4s1.1,3.4,2.7,3.4S248.6,114,248.6,112z"/>
					<path class="st2" d="M251.8,113.1V108h0.9v5c0,1.6,0.5,2.4,1.7,2.4c0.9,0,1.6-0.5,2.5-1.6V108h0.9v8H257l-0.1-1.3l0,0
						c-0.8,0.9-1.6,1.5-2.7,1.5C252.5,116.2,251.8,115.2,251.8,113.1z"/>
					<path class="st2" d="M260.1,117.6c0-0.7,0.5-1.4,1.2-1.9v-0.1c-0.4-0.2-0.7-0.7-0.7-1.3c0-0.7,0.5-1.2,0.9-1.5v-0.1
						c-0.5-0.4-1-1.2-1-2.2c0-1.7,1.3-2.8,2.9-2.8c0.4,0,0.8,0.1,1.1,0.2h2.7v0.7h-1.8c0.5,0.4,0.8,1.1,0.8,1.9
						c0,1.6-1.2,2.8-2.8,2.8c-0.4,0-0.9-0.1-1.3-0.3c-0.3,0.3-0.6,0.6-0.6,1.1c0,0.6,0.3,1,1.5,1h1.7c1.8,0,2.7,0.6,2.7,1.8
						c0,1.4-1.5,2.7-3.8,2.7C261.4,119.8,260.1,119,260.1,117.6z M266.3,117.2c0-0.9-0.6-1.2-1.8-1.2h-1.6c-0.2,0-0.6,0-1-0.1
						c-0.7,0.5-1,1.1-1,1.6c0,1,0.9,1.6,2.6,1.6S266.3,118.2,266.3,117.2z M265.2,110.6c0-1.3-0.9-2.1-2-2.1s-2,0.8-2,2.1
						c0,1.3,0.9,2.2,2,2.2C264.3,112.8,265.2,111.9,265.2,110.6z"/>
					<path class="st2" d="M268.9,104.1h0.9v3.4v1.7c0.8-0.8,1.6-1.4,2.7-1.4c1.7,0,2.4,1,2.4,3.1v5.1H274v-5c0-1.7-0.5-2.4-1.8-2.4
						c-0.9,0-1.6,0.5-2.5,1.4v6h-0.9L268.9,104.1L268.9,104.1z"/>
				</g>
				<g class="st1">
					<path class="st2" d="M31.5,143h0.7l0.1,1l0,0c0.8-0.6,1.7-1.2,2.7-1.2c2.1,0,3.2,1.6,3.2,4.1c0,2.7-1.6,4.3-3.5,4.3
						c-0.8,0-1.5-0.3-2.4-1v1.5v2.9h-0.9V143H31.5z M37.3,146.9c0-1.9-0.7-3.3-2.4-3.3c-0.8,0-1.6,0.5-2.5,1.3v4.6
						c0.9,0.7,1.7,1,2.3,1C36.2,150.4,37.3,149,37.3,146.9z"/>
					<path class="st2" d="M40.5,148.1V143h0.9v5c0,1.6,0.5,2.4,1.7,2.4c0.9,0,1.6-0.5,2.5-1.6V143h0.9v8h-0.7l-0.1-1.3l0,0
						c-0.8,0.9-1.6,1.5-2.7,1.5C41.2,151.2,40.5,150.2,40.5,148.1z"/>
					<path class="st2" d="M50.3,150.2L50.3,150.2l-0.1,0.8h-0.7v-11.9h0.9v3.4v1.5c0.8-0.7,1.7-1.2,2.7-1.2c2.1,0,3.2,1.6,3.2,4.1
						c0,2.7-1.6,4.3-3.5,4.3C51.9,151.2,51,150.8,50.3,150.2z M55.2,146.9c0-1.9-0.7-3.3-2.4-3.3c-0.8,0-1.6,0.5-2.5,1.3v4.6
						c0.8,0.7,1.7,1,2.3,1C54.1,150.4,55.2,149,55.2,146.9z"/>
					<path class="st2" d="M58.5,149.8v-10.7h0.9v10.8c0,0.4,0.1,0.5,0.4,0.5c0.1,0,0.1,0,0.3,0l0.1,0.7c-0.1,0-0.3,0.1-0.6,0.1
						C58.8,151.2,58.5,150.7,58.5,149.8z"/>
					<path class="st2" d="M62.2,140.4c0-0.5,0.3-0.7,0.7-0.7s0.7,0.3,0.7,0.7s-0.3,0.7-0.7,0.7C62.5,141.1,62.2,140.8,62.2,140.4z
						 M62.5,143h0.9v8h-0.9V143z"/>
					<path class="st2" d="M65.7,147c0-2.7,1.7-4.2,3.7-4.2c1.1,0,1.8,0.5,2.3,1l-0.5,0.6c-0.5-0.5-1.1-0.8-1.8-0.8
						c-1.6,0-2.8,1.4-2.8,3.4s1.1,3.4,2.8,3.4c0.8,0,1.5-0.4,2.1-0.9l0.4,0.6c-0.7,0.6-1.5,1-2.5,1C67.2,151.2,65.7,149.7,65.7,147z
						"/>
					<path class="st2" d="M73.1,149c0-1.8,1.6-2.6,5.1-3c0-1.2-0.3-2.4-1.8-2.4c-1,0-2,0.5-2.5,0.9l-0.4-0.6c0.6-0.4,1.7-1.1,3-1.1
						c1.9,0,2.6,1.4,2.6,3.1v5.1h-0.7l-0.1-1l0,0c-0.8,0.7-1.8,1.2-2.8,1.2C74.1,151.2,73.1,150.5,73.1,149z M78.2,149.2v-2.6
						c-3.1,0.4-4.2,1.1-4.2,2.3c0,1.1,0.8,1.5,1.6,1.5C76.5,150.5,77.2,150,78.2,149.2z"/>
					<path class="st2" d="M81.9,148.7v-5h-1.2V143l1.3-0.1l0.1-2.3h0.7v2.3H85v0.7h-2.3v5c0,1,0.3,1.7,1.3,1.7c0.3,0,0.7-0.1,1-0.2
						l0.2,0.7c-0.5,0.2-1,0.3-1.3,0.3C82.3,151.2,81.9,150.2,81.9,148.7z"/>
					<path class="st2" d="M86.7,140.4c0-0.5,0.3-0.7,0.7-0.7c0.4,0,0.7,0.3,0.7,0.7s-0.3,0.7-0.7,0.7
						C87,141.1,86.7,140.8,86.7,140.4z M86.9,143h0.9v8h-0.9V143z"/>
					<path class="st2" d="M90.1,147c0-2.7,1.7-4.2,3.6-4.2s3.6,1.5,3.6,4.2s-1.7,4.2-3.6,4.2C91.8,151.2,90.1,149.7,90.1,147z
						 M96.5,147c0-2-1.2-3.4-2.7-3.4c-1.6,0-2.7,1.4-2.7,3.4s1.1,3.4,2.7,3.4C95.3,150.4,96.5,149,96.5,147z"/>
					<path class="st2" d="M99.7,143h0.7l0.1,1.2l0,0c0.8-0.8,1.6-1.4,2.7-1.4c1.7,0,2.4,1,2.4,3.1v5.1h-0.9v-5
						c0-1.7-0.5-2.4-1.8-2.4c-0.9,0-1.6,0.5-2.5,1.4v6h-0.9v-8H99.7z"/>
					<path class="st2" d="M111.6,140.4c0-0.5,0.3-0.7,0.7-0.7c0.4,0,0.7,0.3,0.7,0.7s-0.3,0.7-0.7,0.7
						C112,141.1,111.6,140.8,111.6,140.4z M111.9,143h0.9v8h-0.9V143z"/>
					<path class="st2" d="M115.8,143h0.7l0.1,1.2l0,0c0.8-0.8,1.6-1.4,2.7-1.4c1.7,0,2.4,1,2.4,3.1v5.1h-0.9v-5
						c0-1.7-0.5-2.4-1.8-2.4c-0.9,0-1.6,0.5-2.5,1.4v6h-0.9v-8H115.8z"/>
					<path class="st2" d="M127.3,149.6l0.6-0.6c0.8,0.9,1.9,1.5,3.2,1.5c1.6,0,2.6-0.9,2.6-2.1c0-1.3-0.9-1.7-1.9-2.2l-1.6-0.7
						c-1-0.4-2.2-1.1-2.2-2.7c0-1.6,1.4-2.7,3.2-2.7c1.3,0,2.4,0.6,3.1,1.3l-0.5,0.6c-0.6-0.7-1.5-1.1-2.6-1.1
						c-1.4,0-2.3,0.7-2.3,1.9s1.1,1.7,1.9,2.1l1.6,0.7c1.2,0.6,2.3,1.2,2.3,2.9s-1.4,3-3.5,3C129.4,151.2,128.1,150.5,127.3,149.6z"
						/>
					<path class="st2" d="M136.1,145.5c0-3.5,1.9-5.7,4.7-5.7c1.3,0,2.3,0.6,2.9,1.3l-0.5,0.6c-0.6-0.7-1.4-1.1-2.4-1.1
						c-2.3,0-3.8,1.9-3.8,4.8c0,3,1.4,4.9,3.7,4.9c1.1,0,1.9-0.5,2.7-1.3l0.5,0.6c-0.8,1-1.9,1.6-3.3,1.6
						C138,151.2,136.1,149,136.1,145.5z"/>
					<path class="st2" d="M146.2,140.1h0.9V151h-0.9V140.1z"/>
					<path class="st2" d="M151.5,154.6l0.2-0.7c0.2,0.1,0.5,0.2,0.8,0.2c0.9,0,1-0.7,1-1.7V143h0.9v9.3c0,1.6-0.6,2.4-1.9,2.4
						C152.1,154.8,151.7,154.7,151.5,154.6z M153.3,140.4c0-0.5,0.3-0.7,0.7-0.7s0.7,0.3,0.7,0.7s-0.3,0.7-0.7,0.7
						C153.6,141.1,153.3,140.8,153.3,140.4z"/>
					<path class="st2" d="M156.7,147c0-2.7,1.7-4.2,3.6-4.2c1.9,0,3.6,1.5,3.6,4.2s-1.7,4.2-3.6,4.2S156.7,149.7,156.7,147z
						 M163.1,147c0-2-1.2-3.4-2.7-3.4c-1.6,0-2.7,1.4-2.7,3.4s1.1,3.4,2.7,3.4C161.9,150.4,163.1,149,163.1,147z"/>
					<path class="st2" d="M166.2,148.1V143h0.9v5c0,1.6,0.5,2.4,1.7,2.4c0.9,0,1.6-0.5,2.5-1.6V143h0.9v8h-0.7l-0.1-1.3l0,0
						c-0.8,0.9-1.6,1.5-2.7,1.5C166.9,151.2,166.2,150.2,166.2,148.1z"/>
					<path class="st2" d="M175.2,143h0.7l0.1,1.5l0,0c0.5-1,1.3-1.7,2.3-1.7c0.3,0,0.6,0,0.8,0.2l-0.2,0.8c-0.3-0.1-0.4-0.1-0.7-0.1
						c-0.7,0-1.6,0.5-2.1,2v5.4h-0.9L175.2,143L175.2,143z"/>
					<path class="st2" d="M180.5,143h0.7l0.1,1.2l0,0c0.8-0.8,1.6-1.4,2.7-1.4c1.7,0,2.4,1,2.4,3.1v5.1h-0.9v-5
						c0-1.7-0.5-2.4-1.8-2.4c-0.9,0-1.6,0.5-2.5,1.4v6h-0.9v-8H180.5z"/>
					<path class="st2" d="M188.9,149c0-1.8,1.6-2.6,5.1-3c0-1.2-0.3-2.4-1.8-2.4c-1,0-2,0.5-2.5,0.9l-0.4-0.6c0.6-0.4,1.7-1.1,3-1.1
						c1.9,0,2.6,1.4,2.6,3.1v5.1h-0.7l-0.1-1l0,0c-0.8,0.7-1.8,1.2-2.8,1.2C189.9,151.2,188.9,150.5,188.9,149z M194,149.2v-2.6
						c-3.1,0.4-4.2,1.1-4.2,2.3c0,1.1,0.8,1.5,1.6,1.5C192.3,150.5,193,150,194,149.2z"/>
					<path class="st2" d="M197.6,149.8v-10.7h0.9v10.8c0,0.4,0.1,0.5,0.4,0.5c0.1,0,0.1,0,0.3,0l0.1,0.7c-0.2,0-0.3,0.1-0.6,0.1
						C198,151.2,197.6,150.7,197.6,149.8z"/>
					<path class="st2" d="M200.7,150.1l0.5-0.6c0.7,0.6,1.4,1,2.5,1c1.2,0,1.8-0.7,1.8-1.5c0-0.9-1-1.4-1.9-1.7
						c-1.2-0.4-2.5-0.9-2.5-2.3c0-1.2,0.9-2.2,2.6-2.2c0.9,0,1.7,0.4,2.3,0.9l-0.5,0.6c-0.5-0.4-1.1-0.7-1.9-0.7
						c-1.2,0-1.7,0.7-1.7,1.4c0,0.9,0.9,1.2,1.9,1.6c1.2,0.5,2.6,0.9,2.6,2.4c0,1.2-1,2.3-2.7,2.3
						C202.4,151.2,201.4,150.7,200.7,150.1z"/>
				</g>
				<text transform="matrix(1 0 0 1 206.9222 151)" class="st2 st5 st4"> </text>
				<g class="st1">
					<path class="st2" d="M30.7,216.5h3.7v0.7h-3.7V216.5z"/>
					<path class="st2" d="M39.1,219.6l0.6-0.6c0.8,0.9,1.9,1.5,3.2,1.5c1.6,0,2.6-0.9,2.6-2.1c0-1.3-0.9-1.7-1.9-2.2l-1.6-0.7
						c-1-0.4-2.2-1.1-2.2-2.7c0-1.6,1.4-2.7,3.2-2.7c1.3,0,2.4,0.6,3.1,1.3l-0.5,0.6c-0.6-0.7-1.5-1.1-2.6-1.1
						c-1.4,0-2.3,0.7-2.3,1.9s1.1,1.7,1.9,2.1l1.6,0.7c1.2,0.6,2.3,1.2,2.3,2.9s-1.4,3-3.5,3C41.2,221.2,40,220.5,39.1,219.6z"/>
					<path class="st2" d="M48.4,218.7v-5h-1.2V213l1.3-0.1l0.1-2.3h0.7v2.3h2.3v0.7h-2.3v5c0,1,0.3,1.7,1.3,1.7c0.3,0,0.7-0.1,1-0.2
						l0.2,0.7c-0.5,0.2-1,0.3-1.3,0.3C48.8,221.2,48.4,220.2,48.4,218.7z"/>
					<path class="st2" d="M53.4,213h0.7l0.1,1.5l0,0c0.5-1,1.3-1.7,2.3-1.7c0.3,0,0.6,0,0.8,0.2l-0.2,0.8c-0.3-0.1-0.4-0.1-0.7-0.1
						c-0.7,0-1.6,0.5-2.1,2v5.4h-0.9C53.4,221.1,53.4,213,53.4,213z"/>
					<path class="st2" d="M58.5,210.4c0-0.5,0.3-0.7,0.7-0.7s0.7,0.3,0.7,0.7s-0.3,0.7-0.7,0.7C58.9,211.1,58.5,210.8,58.5,210.4z
						 M58.8,213h0.9v8h-0.9V213z"/>
					<path class="st2" d="M62,217c0-2.7,1.7-4.2,3.7-4.2c1.1,0,1.8,0.5,2.3,1l-0.5,0.6c-0.5-0.5-1.1-0.8-1.8-0.8
						c-1.6,0-2.8,1.4-2.8,3.4s1.1,3.4,2.8,3.4c0.8,0,1.5-0.4,2.1-0.9l0.4,0.6c-0.7,0.6-1.5,1-2.5,1C63.6,221.2,62,219.7,62,217z"/>
					<path class="st2" d="M70.2,218.7v-5H69V213l1.3-0.1l0.1-2.3h0.7v2.3h2.3v0.7h-2.3v5c0,1,0.3,1.7,1.3,1.7c0.3,0,0.7-0.1,1-0.2
						l0.2,0.7c-0.5,0.2-1,0.3-1.3,0.3C70.7,221.2,70.2,220.2,70.2,218.7z"/>
					<path class="st2" d="M75.3,219.8v-10.7h0.9v10.8c0,0.4,0.1,0.5,0.4,0.5c0.1,0,0.1,0,0.3,0l0.1,0.7c-0.1,0-0.3,0.1-0.6,0.1
						C75.6,221.2,75.3,220.7,75.3,219.8z"/>
					<path class="st2" d="M78.2,224.4l0.2-0.7c0.2,0.1,0.4,0.1,0.6,0.1c1,0,1.6-0.9,2-2l0.2-0.7L78,213h0.9l1.9,4.9
						c0.3,0.7,0.6,1.5,0.8,2.2h0.1c0.2-0.7,0.5-1.6,0.7-2.2L84,213h0.9l-3.1,8.9c-0.5,1.4-1.3,2.7-2.8,2.7
						C78.7,224.6,78.4,224.5,78.2,224.4z"/>
					<path class="st2" d="M90,213h0.7l0.1,1.2l0,0c0.7-0.8,1.6-1.4,2.5-1.4c1.3,0,1.9,0.6,2.2,1.6c0.9-1,1.8-1.6,2.7-1.6
						c1.6,0,2.4,1,2.4,3.1v5.1h-0.9v-5c0-1.7-0.6-2.4-1.7-2.4c-0.7,0-1.5,0.5-2.3,1.4v6h-0.9v-5c0-1.7-0.5-2.4-1.7-2.4
						c-0.7,0-1.5,0.5-2.3,1.4v6H90V213z"/>
					<path class="st2" d="M103,219c0-1.8,1.6-2.6,5.1-3c0-1.2-0.3-2.4-1.8-2.4c-1,0-2,0.5-2.5,0.9l-0.4-0.6c0.6-0.4,1.7-1.1,3-1.1
						c1.9,0,2.6,1.4,2.6,3.1v5.1h-0.7l-0.1-1l0,0c-0.8,0.7-1.8,1.2-2.8,1.2C104,221.2,103,220.5,103,219z M108.1,219.2v-2.6
						c-3.1,0.4-4.2,1.1-4.2,2.3c0,1.1,0.8,1.5,1.6,1.5C106.4,220.5,107.1,220,108.1,219.2z"/>
					<path class="st2" d="M111.7,213h0.7l0.1,1.2l0,0c0.8-0.8,1.6-1.4,2.7-1.4c1.7,0,2.4,1,2.4,3.1v5.1h-0.9v-5
						c0-1.7-0.5-2.4-1.8-2.4c-0.9,0-1.6,0.5-2.5,1.4v6h-0.9v-8H111.7z"/>
					<path class="st2" d="M120.1,219c0-1.8,1.6-2.6,5.1-3c0-1.2-0.3-2.4-1.8-2.4c-1,0-2,0.5-2.5,0.9l-0.4-0.6c0.6-0.4,1.7-1.1,3-1.1
						c1.9,0,2.6,1.4,2.6,3.1v5.1h-0.7l-0.1-1l0,0c-0.8,0.7-1.8,1.2-2.8,1.2C121.1,221.2,120.1,220.5,120.1,219z M125.2,219.2v-2.6
						c-3.1,0.4-4.2,1.1-4.2,2.3c0,1.1,0.8,1.5,1.6,1.5C123.5,220.5,124.2,220,125.2,219.2z"/>
					<path class="st2" d="M128.2,222.6c0-0.7,0.5-1.4,1.2-1.9v-0.1c-0.4-0.2-0.7-0.7-0.7-1.3c0-0.7,0.5-1.2,0.9-1.5v-0.1
						c-0.5-0.4-1-1.2-1-2.2c0-1.7,1.3-2.8,2.9-2.8c0.4,0,0.8,0.1,1.1,0.2h2.7v0.7h-1.8c0.5,0.4,0.8,1.1,0.8,1.9
						c0,1.6-1.2,2.8-2.8,2.8c-0.4,0-0.9-0.1-1.3-0.3c-0.3,0.3-0.6,0.6-0.6,1.1c0,0.6,0.3,1,1.5,1h1.7c1.8,0,2.7,0.6,2.7,1.8
						c0,1.4-1.5,2.7-3.8,2.7C129.5,224.8,128.2,224,128.2,222.6z M134.4,222.2c0-0.9-0.6-1.2-1.8-1.2H131c-0.2,0-0.6,0-1-0.1
						c-0.7,0.5-1,1.1-1,1.6c0,1,0.9,1.6,2.6,1.6C133.3,224.1,134.4,223.2,134.4,222.2z M133.3,215.6c0-1.3-0.9-2.1-2-2.1
						s-2,0.8-2,2.1s0.9,2.2,2,2.2C132.4,217.8,133.3,216.9,133.3,215.6z"/>
					<path class="st2" d="M136.1,217c0-2.6,1.7-4.2,3.5-4.2c1.9,0,3.1,1.4,3.1,3.7c0,0.2,0,0.4,0,0.6H137c0,1.9,1.2,3.3,2.9,3.3
						c0.9,0,1.5-0.3,2.1-0.7l0.3,0.6c-0.6,0.4-1.4,0.8-2.5,0.8C137.8,221.2,136.1,219.6,136.1,217z M141.9,216.5
						c0-1.9-0.9-2.9-2.3-2.9c-1.3,0-2.5,1.1-2.6,2.9H141.9z"/>
					<path class="st2" d="M153.4,221.5l0.1-1.6c-0.7,0.7-1.6,1.2-2.6,1.2c-2,0-3.3-1.5-3.3-4.2c0-2.6,1.6-4.2,3.5-4.2
						c1,0,1.6,0.4,2.4,1l0,0l0.1-0.8h0.7v11.6h-0.9V221.5z M153.4,219.2v-4.6c-0.8-0.7-1.5-1-2.2-1c-1.5,0-2.7,1.5-2.7,3.4
						c0,2.1,0.9,3.4,2.5,3.4C151.8,220.4,152.6,220,153.4,219.2z"/>
					<path class="st2" d="M157.1,218.1V213h0.9v5c0,1.6,0.5,2.4,1.7,2.4c0.9,0,1.6-0.5,2.5-1.6V213h0.9v8h-0.7l-0.1-1.3l0,0
						c-0.8,0.9-1.6,1.5-2.7,1.5C157.9,221.2,157.1,220.2,157.1,218.1z"/>
					<path class="st2" d="M165.6,219c0-1.8,1.6-2.6,5.1-3c0-1.2-0.3-2.4-1.8-2.4c-1,0-2,0.5-2.5,0.9l-0.4-0.6c0.6-0.4,1.7-1.1,3-1.1
						c1.9,0,2.6,1.4,2.6,3.1v5.1h-0.7l-0.1-1l0,0c-0.8,0.7-1.8,1.2-2.8,1.2C166.6,221.2,165.6,220.5,165.6,219z M170.7,219.2v-2.6
						c-3.1,0.4-4.2,1.1-4.2,2.3c0,1.1,0.8,1.5,1.6,1.5C168.9,220.5,169.7,220,170.7,219.2z"/>
					<path class="st2" d="M174.3,219.8v-10.7h0.9v10.8c0,0.4,0.1,0.5,0.4,0.5c0.1,0,0.1,0,0.3,0l0.1,0.7c-0.2,0-0.3,0.1-0.6,0.1
						C174.7,221.2,174.3,220.7,174.3,219.8z"/>
					<path class="st2" d="M178,210.4c0-0.5,0.3-0.7,0.7-0.7s0.7,0.3,0.7,0.7s-0.3,0.7-0.7,0.7C178.4,211.1,178,210.8,178,210.4z
						 M178.3,213h0.9v8h-0.9V213z"/>
					<path class="st2" d="M182.4,218.7v-5h-1.2V213l1.3-0.1l0.1-2.3h0.7v2.3h2.3v0.7h-2.3v5c0,1,0.3,1.7,1.3,1.7
						c0.3,0,0.7-0.1,1-0.2l0.2,0.7c-0.5,0.2-1,0.3-1.3,0.3C182.8,221.2,182.4,220.2,182.4,218.7z"/>
					<path class="st2" d="M186.4,224.4l0.2-0.7c0.2,0.1,0.4,0.1,0.6,0.1c1,0,1.6-0.9,2-2l0.2-0.7l-3.3-8.1h0.9l1.9,4.9
						c0.3,0.7,0.6,1.5,0.8,2.2h0.1c0.2-0.7,0.5-1.6,0.7-2.2l1.6-4.9h0.9l-3.1,8.9c-0.5,1.4-1.3,2.7-2.8,2.7
						C186.9,224.6,186.6,224.5,186.4,224.4z"/>
					<path class="st2" d="M197.2,220.1l0.5-0.6c0.7,0.6,1.4,1,2.5,1c1.2,0,1.8-0.7,1.8-1.5c0-0.9-1-1.4-1.9-1.7
						c-1.2-0.4-2.5-0.9-2.5-2.3c0-1.2,0.9-2.2,2.6-2.2c0.9,0,1.7,0.4,2.3,0.9l-0.5,0.6c-0.5-0.4-1.1-0.7-1.9-0.7
						c-1.2,0-1.7,0.7-1.7,1.4c0,0.9,0.9,1.2,1.9,1.6c1.2,0.5,2.6,0.9,2.6,2.4c0,1.2-1,2.3-2.7,2.3
						C198.9,221.2,197.9,220.7,197.2,220.1z"/>
					<path class="st2" d="M204.9,213h0.7l0.1,1l0,0c0.8-0.6,1.7-1.2,2.7-1.2c2.1,0,3.2,1.6,3.2,4.1c0,2.7-1.6,4.3-3.5,4.3
						c-0.8,0-1.5-0.3-2.4-1v1.5v2.9h-0.9L204.9,213L204.9,213z M210.7,216.9c0-1.9-0.7-3.3-2.4-3.3c-0.8,0-1.6,0.5-2.5,1.3v4.6
						c0.9,0.7,1.7,1,2.3,1C209.6,220.4,210.7,219,210.7,216.9z"/>
					<path class="st2" d="M213.3,217c0-2.6,1.7-4.2,3.5-4.2c1.9,0,3.1,1.4,3.1,3.7c0,0.2,0,0.4,0,0.6h-5.7c0,1.9,1.2,3.3,2.9,3.3
						c0.9,0,1.5-0.3,2.1-0.7l0.3,0.6c-0.6,0.4-1.4,0.8-2.6,0.8C215,221.2,213.3,219.6,213.3,217z M219.1,216.5
						c0-1.9-0.9-2.9-2.3-2.9c-1.3,0-2.5,1.1-2.6,2.9H219.1z"/>
					<path class="st2" d="M221.4,217c0-2.7,1.7-4.2,3.7-4.2c1.1,0,1.8,0.5,2.3,1l-0.5,0.6c-0.5-0.5-1.1-0.8-1.8-0.8
						c-1.6,0-2.8,1.4-2.8,3.4s1.1,3.4,2.8,3.4c0.8,0,1.5-0.4,2.1-0.9l0.4,0.6c-0.7,0.6-1.5,1-2.6,1C223,221.2,221.4,219.7,221.4,217
						z"/>
					<path class="st2" d="M228.6,220.1l0.5-0.6c0.7,0.6,1.4,1,2.5,1c1.2,0,1.8-0.7,1.8-1.5c0-0.9-1-1.4-1.9-1.7
						c-1.2-0.4-2.5-0.9-2.5-2.3c0-1.2,0.9-2.2,2.6-2.2c0.9,0,1.7,0.4,2.3,0.9l-0.5,0.6c-0.5-0.4-1.1-0.7-1.9-0.7
						c-1.2,0-1.7,0.7-1.7,1.4c0,0.9,0.9,1.2,1.9,1.6c1.2,0.5,2.6,0.9,2.6,2.4c0,1.2-1,2.3-2.7,2.3
						C230.3,221.2,229.3,220.7,228.6,220.1z"/>
				</g>
				<text transform="matrix(1 0 0 1 234.822 221)" class="st2 st5 st4"> </text>
				<g class="st1">
					<path class="st2" d="M30.7,286.5h3.7v0.7h-3.7V286.5z"/>
					<path class="st2" d="M39.9,280.1h2.6c3.4,0,5,2.1,5,5.4s-1.6,5.5-5,5.5h-2.6V280.1z M42.4,290.2c2.9,0,4.2-1.9,4.2-4.7
						s-1.3-4.7-4.2-4.7h-1.6v9.4L42.4,290.2L42.4,290.2z"/>
					<path class="st2" d="M49.2,287c0-2.6,1.7-4.2,3.5-4.2c1.9,0,3.1,1.4,3.1,3.7c0,0.2,0,0.4,0,0.6h-5.7c0,1.9,1.2,3.3,2.9,3.3
						c0.9,0,1.5-0.3,2.1-0.7l0.3,0.6c-0.6,0.4-1.4,0.8-2.5,0.8C50.9,291.2,49.2,289.6,49.2,287z M55,286.5c0-1.9-0.9-2.9-2.3-2.9
						c-1.3,0-2.5,1.1-2.6,2.9H55z"/>
					<path class="st2" d="M56.8,283h0.9l1.7,4.9c0.3,0.8,0.5,1.6,0.8,2.3h0.1c0.3-0.7,0.5-1.5,0.8-2.3l1.7-4.9h0.9l-2.9,8h-1
						L56.8,283z"/>
					<path class="st2" d="M64.8,287c0-2.6,1.7-4.2,3.5-4.2c1.9,0,3.1,1.4,3.1,3.7c0,0.2,0,0.4,0,0.6h-5.7c0,1.9,1.2,3.3,2.9,3.3
						c0.9,0,1.5-0.3,2.1-0.7l0.3,0.6c-0.6,0.4-1.4,0.8-2.5,0.8C66.5,291.2,64.8,289.6,64.8,287z M70.6,286.5c0-1.9-0.9-2.9-2.3-2.9
						c-1.3,0-2.5,1.1-2.6,2.9H70.6z"/>
					<path class="st2" d="M73.5,289.8v-10.7h0.9v10.8c0,0.4,0.1,0.5,0.4,0.5c0.1,0,0.1,0,0.3,0l0.1,0.7c-0.1,0-0.3,0.1-0.6,0.1
						C73.9,291.2,73.5,290.7,73.5,289.8z"/>
					<path class="st2" d="M76.9,287c0-2.7,1.7-4.2,3.6-4.2s3.6,1.5,3.6,4.2s-1.7,4.2-3.6,4.2S76.9,289.7,76.9,287z M83.2,287
						c0-2-1.2-3.4-2.7-3.4c-1.6,0-2.7,1.4-2.7,3.4s1.1,3.4,2.7,3.4S83.2,289,83.2,287z"/>
					<path class="st2" d="M86.5,283h0.7l0.1,1l0,0c0.8-0.6,1.7-1.2,2.7-1.2c2.1,0,3.2,1.6,3.2,4.1c0,2.7-1.6,4.3-3.5,4.3
						c-0.8,0-1.5-0.3-2.4-1v1.5v2.9h-0.9V283H86.5z M92.3,286.9c0-1.9-0.7-3.3-2.4-3.3c-0.8,0-1.6,0.5-2.5,1.3v4.6
						c0.9,0.7,1.7,1,2.3,1C91.2,290.4,92.3,289,92.3,286.9z"/>
					<path class="st2" d="M98.9,283h0.7l0.1,1.2l0,0c0.7-0.8,1.6-1.4,2.5-1.4c1.3,0,1.9,0.6,2.2,1.6c0.9-1,1.8-1.6,2.7-1.6
						c1.6,0,2.4,1,2.4,3.1v5.1h-0.9v-5c0-1.7-0.6-2.4-1.7-2.4c-0.7,0-1.5,0.5-2.3,1.4v6h-0.9v-5c0-1.7-0.5-2.4-1.7-2.4
						c-0.7,0-1.5,0.5-2.3,1.4v6h-0.9v-8H98.9z"/>
					<path class="st2" d="M111.9,289c0-1.8,1.6-2.6,5.1-3c0-1.2-0.3-2.4-1.8-2.4c-1,0-2,0.5-2.5,0.9l-0.4-0.6c0.6-0.4,1.7-1.1,3-1.1
						c1.9,0,2.6,1.4,2.6,3.1v5.1h-0.7l-0.1-1l0,0c-0.8,0.7-1.8,1.2-2.8,1.2C112.9,291.2,111.9,290.5,111.9,289z M117,289.2v-2.6
						c-3.1,0.4-4.2,1.1-4.2,2.3c0,1.1,0.8,1.5,1.6,1.5C115.3,290.5,116,290,117,289.2z"/>
					<path class="st2" d="M120.6,288.7v-5h-1.2V283l1.3-0.1l0.1-2.3h0.7v2.3h2.3v0.7h-2.3v5c0,1,0.3,1.7,1.3,1.7
						c0.3,0,0.7-0.1,1-0.2l0.2,0.7c-0.5,0.2-1,0.3-1.3,0.3C121.1,291.2,120.6,290.2,120.6,288.7z"/>
					<path class="st2" d="M124.9,287c0-2.6,1.7-4.2,3.5-4.2c1.9,0,3.1,1.4,3.1,3.7c0,0.2,0,0.4,0,0.6h-5.7c0,1.9,1.2,3.3,2.9,3.3
						c0.9,0,1.5-0.3,2.1-0.7l0.3,0.6c-0.6,0.4-1.4,0.8-2.5,0.8C126.5,291.2,124.9,289.6,124.9,287z M130.7,286.5
						c0-1.9-0.9-2.9-2.3-2.9c-1.3,0-2.5,1.1-2.6,2.9H130.7z"/>
					<path class="st2" d="M133.6,283h0.7l0.1,1.5l0,0c0.5-1,1.3-1.7,2.3-1.7c0.3,0,0.6,0,0.8,0.2l-0.2,0.8c-0.3-0.1-0.4-0.1-0.7-0.1
						c-0.7,0-1.6,0.5-2.1,2v5.4h-0.9L133.6,283L133.6,283z"/>
					<path class="st2" d="M138.7,280.4c0-0.5,0.3-0.7,0.7-0.7s0.7,0.3,0.7,0.7c0,0.4-0.3,0.7-0.7,0.7S138.7,280.8,138.7,280.4z
						 M139,283h0.9v8H139V283z"/>
					<path class="st2" d="M142.3,289c0-1.8,1.6-2.6,5.1-3c0-1.2-0.3-2.4-1.8-2.4c-1,0-2,0.5-2.5,0.9l-0.4-0.6c0.6-0.4,1.7-1.1,3-1.1
						c1.9,0,2.6,1.4,2.6,3.1v5.1h-0.7l-0.1-1l0,0c-0.8,0.7-1.8,1.2-2.8,1.2C143.3,291.2,142.3,290.5,142.3,289z M147.4,289.2v-2.6
						c-3.1,0.4-4.2,1.1-4.2,2.3c0,1.1,0.8,1.5,1.6,1.5C145.7,290.5,146.4,290,147.4,289.2z"/>
					<path class="st2" d="M151,289.8v-10.7h0.9v10.8c0,0.4,0.1,0.5,0.4,0.5c0.1,0,0.1,0,0.3,0l0.1,0.7c-0.1,0-0.3,0.1-0.6,0.1
						C151.4,291.2,151,290.7,151,289.8z"/>
					<path class="st2" d="M161.5,279.8c-0.3-0.2-0.6-0.2-0.9-0.2c-0.9,0-1.2,0.6-1.2,1.8v1.6h1.8v0.7h-1.8v7.3h-0.9v-7.3h-1.1V283
						l1.1-0.1v-1.7c0-1.6,0.7-2.4,2.1-2.4c0.4,0,0.8,0.1,1.2,0.3L161.5,279.8z"/>
					<path class="st2" d="M162,287c0-2.7,1.7-4.2,3.6-4.2c1.9,0,3.6,1.5,3.6,4.2s-1.7,4.2-3.6,4.2S162,289.7,162,287z M168.3,287
						c0-2-1.2-3.4-2.7-3.4c-1.6,0-2.7,1.4-2.7,3.4s1.1,3.4,2.7,3.4S168.3,289,168.3,287z"/>
					<path class="st2" d="M171.6,283h0.7l0.1,1.5l0,0c0.5-1,1.3-1.7,2.3-1.7c0.3,0,0.6,0,0.8,0.2l-0.2,0.8c-0.3-0.1-0.4-0.1-0.7-0.1
						c-0.7,0-1.6,0.5-2.1,2v5.4h-0.9L171.6,283L171.6,283z"/>
					<path class="st2" d="M181.1,290.2L181.1,290.2L181,291h-0.7v-11.9h0.9v3.4v1.5c0.8-0.7,1.7-1.2,2.7-1.2c2.1,0,3.2,1.6,3.2,4.1
						c0,2.7-1.7,4.3-3.5,4.3C182.8,291.2,181.9,290.8,181.1,290.2z M186.1,286.9c0-1.9-0.7-3.3-2.4-3.3c-0.8,0-1.6,0.5-2.5,1.3v4.6
						c0.8,0.7,1.7,1,2.3,1C185,290.4,186.1,289,186.1,286.9z"/>
					<path class="st2" d="M189.3,283h0.7l0.1,1.5l0,0c0.5-1,1.3-1.7,2.3-1.7c0.3,0,0.6,0,0.8,0.2l-0.2,0.8c-0.3-0.1-0.4-0.1-0.7-0.1
						c-0.7,0-1.6,0.5-2.1,2v5.4h-0.9L189.3,283L189.3,283z"/>
					<path class="st2" d="M193.8,289c0-1.8,1.6-2.6,5.1-3c0-1.2-0.3-2.4-1.8-2.4c-1,0-2,0.5-2.5,0.9l-0.4-0.6c0.6-0.4,1.7-1.1,3-1.1
						c1.9,0,2.6,1.4,2.6,3.1v5.1H199l-0.1-1l0,0c-0.8,0.7-1.8,1.2-2.8,1.2C194.8,291.2,193.8,290.5,193.8,289z M198.9,289.2v-2.6
						c-3.1,0.4-4.2,1.1-4.2,2.3c0,1.1,0.8,1.5,1.6,1.5S198,290,198.9,289.2z"/>
					<path class="st2" d="M202.3,280.4c0-0.5,0.3-0.7,0.7-0.7s0.7,0.3,0.7,0.7c0,0.4-0.3,0.7-0.7,0.7S202.3,280.8,202.3,280.4z
						 M202.6,283h0.9v8h-0.9V283z"/>
					<path class="st2" d="M206.4,283h0.7l0.1,1.2l0,0c0.8-0.8,1.6-1.4,2.7-1.4c1.7,0,2.4,1,2.4,3.1v5.1h-0.9v-5
						c0-1.7-0.5-2.4-1.8-2.4c-0.9,0-1.6,0.5-2.5,1.4v6h-0.9v-8H206.4z"/>
					<path class="st2" d="M221.8,279.8c-0.3-0.2-0.6-0.2-0.9-0.2c-0.9,0-1.2,0.6-1.2,1.8v1.6h1.8v0.7h-1.8v7.3h-0.9v-7.3h-1.1V283
						l1.1-0.1v-1.7c0-1.6,0.7-2.4,2.1-2.4c0.4,0,0.8,0.1,1.2,0.3L221.8,279.8z"/>
					<path class="st2" d="M223,288.1V283h0.9v5c0,1.6,0.5,2.4,1.7,2.4c0.9,0,1.6-0.5,2.5-1.6V283h0.9v8h-0.7l-0.1-1.3l0,0
						c-0.8,0.9-1.6,1.5-2.7,1.5C223.8,291.2,223,290.2,223,288.1z"/>
					<path class="st2" d="M232,283h0.7l0.1,1.2l0,0c0.8-0.8,1.6-1.4,2.7-1.4c1.7,0,2.4,1,2.4,3.1v5.1H237v-5c0-1.7-0.5-2.4-1.8-2.4
						c-0.9,0-1.6,0.5-2.5,1.4v6H232V283z"/>
					<path class="st2" d="M240.2,287c0-2.7,1.7-4.2,3.7-4.2c1.1,0,1.8,0.5,2.3,1l-0.5,0.6c-0.5-0.5-1.1-0.8-1.8-0.8
						c-1.6,0-2.8,1.4-2.8,3.4s1.1,3.4,2.8,3.4c0.8,0,1.5-0.4,2.1-0.9l0.4,0.6c-0.7,0.6-1.5,1-2.5,1
						C241.8,291.2,240.2,289.7,240.2,287z"/>
					<path class="st2" d="M248.4,288.7v-5h-1.2V283l1.3-0.1l0.1-2.3h0.7v2.3h2.3v0.7h-2.3v5c0,1,0.3,1.7,1.3,1.7
						c0.3,0,0.7-0.1,1-0.2l0.2,0.7c-0.5,0.2-1,0.3-1.3,0.3C248.9,291.2,248.4,290.2,248.4,288.7z"/>
					<path class="st2" d="M253.2,280.4c0-0.5,0.3-0.7,0.7-0.7s0.7,0.3,0.7,0.7c0,0.4-0.3,0.7-0.7,0.7S253.2,280.8,253.2,280.4z
						 M253.5,283h0.9v8h-0.9V283z"/>
					<path class="st2" d="M256.7,287c0-2.7,1.7-4.2,3.6-4.2s3.6,1.5,3.6,4.2s-1.7,4.2-3.6,4.2S256.7,289.7,256.7,287z M263,287
						c0-2-1.2-3.4-2.7-3.4s-2.7,1.4-2.7,3.4s1.1,3.4,2.7,3.4S263,289,263,287z"/>
					<path class="st2" d="M266.2,283h0.7l0.1,1.2l0,0c0.8-0.8,1.6-1.4,2.7-1.4c1.7,0,2.4,1,2.4,3.1v5.1h-0.9v-5
						c0-1.7-0.5-2.4-1.8-2.4c-0.9,0-1.6,0.5-2.5,1.4v6H266v-8H266.2z"/>
				</g>
				<g class="st1">
					<path class="st2" d="M31.4,323.1V318h0.9v5c0,1.6,0.5,2.4,1.7,2.4c0.9,0,1.6-0.5,2.5-1.6V318h0.9v8h-0.7l-0.1-1.3l0,0
						c-0.8,0.9-1.6,1.5-2.7,1.5C32.1,326.2,31.4,325.2,31.4,323.1z"/>
					<path class="st2" d="M39.4,325.1l0.5-0.6c0.7,0.6,1.4,1,2.5,1c1.2,0,1.8-0.7,1.8-1.5c0-0.9-1-1.4-1.9-1.7
						c-1.2-0.4-2.5-0.9-2.5-2.3c0-1.2,0.9-2.2,2.6-2.2c0.9,0,1.7,0.4,2.3,0.9l-0.4,0.6c-0.5-0.4-1.1-0.7-1.9-0.7
						c-1.2,0-1.7,0.7-1.7,1.4c0,0.9,0.9,1.2,1.9,1.6c1.2,0.5,2.6,0.9,2.6,2.4c0,1.2-1,2.3-2.7,2.3C41.1,326.2,40.1,325.7,39.4,325.1
						z"/>
					<path class="st2" d="M46.8,315.4c0-0.5,0.3-0.7,0.7-0.7s0.7,0.3,0.7,0.7c0,0.4-0.3,0.7-0.7,0.7
						C47.2,316.1,46.8,315.8,46.8,315.4z M47.1,318H48v8h-0.9V318z"/>
					<path class="st2" d="M51,318h0.7l0.1,1.2l0,0c0.8-0.8,1.6-1.4,2.7-1.4c1.7,0,2.4,1,2.4,3.1v5.1H56v-5c0-1.7-0.5-2.4-1.8-2.4
						c-0.9,0-1.6,0.5-2.5,1.4v6H51V318z"/>
					<path class="st2" d="M59.2,327.6c0-0.7,0.5-1.4,1.2-1.9v-0.1c-0.4-0.2-0.7-0.7-0.7-1.3c0-0.7,0.5-1.2,0.9-1.5v-0.1
						c-0.5-0.4-1-1.2-1-2.2c0-1.7,1.3-2.8,2.9-2.8c0.4,0,0.8,0.1,1.1,0.2h2.7v0.7h-1.8c0.5,0.4,0.8,1.1,0.8,1.9
						c0,1.6-1.2,2.8-2.8,2.8c-0.4,0-0.9-0.1-1.3-0.3c-0.3,0.3-0.6,0.6-0.6,1.1c0,0.6,0.3,1,1.5,1h1.7c1.8,0,2.7,0.6,2.7,1.8
						c0,1.4-1.5,2.7-3.8,2.7C60.5,329.8,59.2,329,59.2,327.6z M65.5,327.2c0-0.9-0.6-1.2-1.8-1.2H62c-0.2,0-0.6,0-1-0.1
						c-0.7,0.5-1,1.1-1,1.6c0,1,0.9,1.6,2.6,1.6C64.3,329.1,65.5,328.2,65.5,327.2z M64.4,320.6c0-1.3-0.9-2.1-2-2.1s-2,0.8-2,2.1
						c0,1.3,0.9,2.2,2,2.2C63.5,322.8,64.4,321.9,64.4,320.6z"/>
					<path class="st2" d="M71.4,318h0.7l0.1,1.2l0,0c0.7-0.8,1.6-1.4,2.5-1.4c1.3,0,1.9,0.6,2.2,1.6c0.9-1,1.8-1.6,2.7-1.6
						c1.6,0,2.4,1,2.4,3.1v5.1h-0.9v-5c0-1.7-0.6-2.4-1.7-2.4c-0.7,0-1.5,0.5-2.3,1.4v6h-0.9v-5c0-1.7-0.5-2.4-1.7-2.4
						c-0.7,0-1.5,0.5-2.3,1.4v6h-0.9v-8H71.4z"/>
					<path class="st2" d="M84.6,315.4c0-0.5,0.3-0.7,0.7-0.7c0.4,0,0.7,0.3,0.7,0.7c0,0.4-0.3,0.7-0.7,0.7
						C85,316.1,84.6,315.8,84.6,315.4z M84.9,318h0.9v8h-0.9V318z"/>
					<path class="st2" d="M88.1,322c0-2.7,1.7-4.2,3.7-4.2c1.1,0,1.8,0.5,2.3,1l-0.5,0.6c-0.5-0.5-1.1-0.8-1.8-0.8
						c-1.6,0-2.8,1.4-2.8,3.4s1.1,3.4,2.8,3.4c0.8,0,1.5-0.4,2.1-0.9l0.4,0.6c-0.7,0.6-1.5,1-2.5,1C89.7,326.2,88.1,324.7,88.1,322z
						"/>
					<path class="st2" d="M96.3,318H97l0.1,1.5l0,0c0.5-1,1.3-1.7,2.3-1.7c0.3,0,0.6,0,0.8,0.2l-0.2,0.8c-0.3-0.1-0.4-0.1-0.7-0.1
						c-0.7,0-1.6,0.5-2.1,2v5.4h-0.9C96.3,326.1,96.3,318,96.3,318z"/>
					<path class="st2" d="M100.8,322c0-2.7,1.7-4.2,3.6-4.2s3.6,1.5,3.6,4.2s-1.7,4.2-3.6,4.2S100.8,324.7,100.8,322z M107.1,322
						c0-2-1.2-3.4-2.7-3.4c-1.6,0-2.7,1.4-2.7,3.4s1.1,3.4,2.7,3.4S107.1,324,107.1,322z"/>
					<path class="st2" d="M111.2,325.2L111.2,325.2l-0.1,0.8h-0.7v-11.9h0.9v3.4v1.5c0.8-0.7,1.7-1.2,2.7-1.2c2.1,0,3.2,1.6,3.2,4.1
						c0,2.7-1.6,4.3-3.5,4.3C112.8,326.2,112,325.8,111.2,325.2z M116.2,321.9c0-1.9-0.7-3.3-2.4-3.3c-0.8,0-1.6,0.5-2.5,1.3v4.6
						c0.8,0.7,1.7,1,2.3,1C115.1,325.4,116.2,324,116.2,321.9z"/>
					<path class="st2" d="M119.1,315.4c0-0.5,0.3-0.7,0.7-0.7c0.4,0,0.7,0.3,0.7,0.7c0,0.4-0.3,0.7-0.7,0.7
						C119.5,316.1,119.1,315.8,119.1,315.4z M119.4,318h0.9v8h-0.9V318z"/>
					<path class="st2" d="M122.6,322c0-2.7,1.7-4.2,3.6-4.2c1.9,0,3.6,1.5,3.6,4.2s-1.7,4.2-3.6,4.2S122.6,324.7,122.6,322z
						 M129,322c0-2-1.2-3.4-2.7-3.4c-1.6,0-2.7,1.4-2.7,3.4s1.1,3.4,2.7,3.4C127.8,325.4,129,324,129,322z"/>
					<path class="st2" d="M132.2,318h0.7l0.1,1.2l0,0c0.7-0.8,1.6-1.4,2.5-1.4c1.3,0,1.9,0.6,2.2,1.6c0.9-1,1.8-1.6,2.7-1.6
						c1.6,0,2.4,1,2.4,3.1v5.1H142v-5c0-1.7-0.6-2.4-1.7-2.4c-0.7,0-1.5,0.5-2.3,1.4v6h-0.9v-5c0-1.7-0.5-2.4-1.7-2.4
						c-0.7,0-1.5,0.5-2.3,1.4v6h-0.9L132.2,318L132.2,318z"/>
					<path class="st2" d="M145.1,322c0-2.6,1.7-4.2,3.5-4.2c1.9,0,3.1,1.4,3.1,3.7c0,0.2,0,0.4,0,0.6H146c0,1.9,1.2,3.3,2.9,3.3
						c0.9,0,1.5-0.3,2.1-0.7l0.3,0.6c-0.6,0.4-1.4,0.8-2.5,0.8C146.8,326.2,145.1,324.6,145.1,322z M150.9,321.5
						c0-1.9-0.9-2.9-2.3-2.9c-1.3,0-2.5,1.1-2.6,2.9H150.9z"/>
				</g>
			</g>
			
				<g id="arrow" transform="translate(167.500000, 449.500000) rotate(-270.000000) translate(-167.500000, -449.500000) translate(117.000000, 439.500000)">
				<path id="Line" class="st6" d="M0.5,10h100"/>
				<polyline id="Stroke-1" class="st7" points="90,0 101,10 90,20 				"/>
				<polyline class="st7" points="11,20 0,10 11,0 				"/>
			</g>
			<g id="box3" transform="translate(0.000000, 519.500000)">
				<path class="st8" d="M9,1.5h316c4.4,0,8,3.6,8,8v132c0,4.4-3.6,8-8,8H9c-4.4,0-8-3.6-8-8V9.5C1,5.1,4.6,1.5,9,1.5z"/>
				<g class="st1">
					<path class="st9" d="M20.6,56.5c0-3.6,2.2-5.8,5.1-5.8c1.6,0,2.6,0.7,3.3,1.4l-0.9,1.1c-0.5-0.6-1.2-1-2.3-1
						c-2.1,0-3.4,1.6-3.4,4.2c0,2.6,1.2,4.2,3.5,4.2c0.7,0,1.4-0.2,1.7-0.5v-2.6h-2.2v-1.4h3.8v4.8c-0.7,0.7-2,1.3-3.5,1.3
						C22.7,62.2,20.6,60.1,20.6,56.5z"/>
					<path class="st9" d="M31.5,60.1V50h1.7v10.1c0,0.5,0.2,0.6,0.4,0.6c0.1,0,0.1,0,0.3,0l0.2,1.3c-0.2,0.1-0.5,0.1-0.9,0.1
						C32,62.2,31.5,61.4,31.5,60.1z"/>
					<path class="st9" d="M35.4,57.9c0-2.8,1.8-4.4,3.9-4.4c2,0,3.9,1.6,3.9,4.4c0,2.7-1.8,4.3-3.9,4.3
						C37.3,62.2,35.4,60.6,35.4,57.9z M41.4,57.9c0-1.8-0.8-2.9-2.1-2.9s-2.1,1.2-2.1,2.9s0.8,2.9,2.1,2.9
						C40.6,60.8,41.4,59.6,41.4,57.9z"/>
					<path class="st9" d="M46.8,61.1L46.8,61.1L46.6,62h-1.3V50H47v3.2v1.4c0.7-0.6,1.6-1.1,2.5-1.1c2.1,0,3.3,1.7,3.3,4.2
						c0,2.8-1.7,4.5-3.6,4.5C48.3,62.2,47.5,61.8,46.8,61.1z M50.8,57.8c0-1.7-0.6-2.8-1.9-2.8c-0.6,0-1.3,0.3-2,1v4
						c0.6,0.6,1.3,0.8,1.8,0.8C49.9,60.8,50.8,59.7,50.8,57.8z"/>
					<path class="st9" d="M54,59.8c0-1.8,1.5-2.7,4.9-3.1c0-1-0.4-1.8-1.6-1.8c-0.9,0-1.7,0.4-2.4,0.8l-0.6-1.2
						c0.9-0.5,2-1.1,3.3-1.1c2.1,0,3,1.3,3,3.5v5h-1.4L59,61.1l0,0c-0.8,0.6-1.6,1.1-2.6,1.1C55,62.2,54,61.3,54,59.8z M58.9,59.9
						v-2c-2.4,0.3-3.3,0.9-3.3,1.8c0,0.8,0.6,1.1,1.3,1.1C57.6,60.8,58.2,60.5,58.9,59.9z"/>
					<path class="st9" d="M63.1,60.1V50h1.7v10.1c0,0.5,0.2,0.6,0.4,0.6c0.1,0,0.1,0,0.3,0l0.2,1.3c-0.2,0.1-0.5,0.1-0.9,0.1
						C63.5,62.2,63.1,61.4,63.1,60.1z"/>
					<path class="st9" d="M70.6,50h1.2l-4.2,14.7h-1.2L70.6,50z"/>
					<path class="st9" d="M73.5,51h1.7v5.2l0,0l4.2-5.2h1.9L78,55.2l4,6.8h-1.9L77,56.6l-1.7,2.1V62h-1.7V51H73.5z"/>
					<path class="st9" d="M82.6,57.9c0-2.8,1.8-4.4,3.9-4.4c2,0,3.9,1.6,3.9,4.4c0,2.7-1.8,4.3-3.9,4.3S82.6,60.6,82.6,57.9z
						 M88.6,57.9c0-1.8-0.8-2.9-2.1-2.9c-1.3,0-2.1,1.2-2.1,2.9s0.8,2.9,2.1,2.9C87.8,60.8,88.6,59.6,88.6,57.9z"/>
					<path class="st9" d="M92.4,53.8h1.4l0.1,1.5l0,0c0.6-1.1,1.5-1.7,2.3-1.7c0.4,0,0.7,0.1,0.9,0.2l-0.3,1.5
						c-0.3-0.1-0.5-0.1-0.8-0.1c-0.7,0-1.5,0.5-2,1.8v5h-1.7L92.4,53.8L92.4,53.8z"/>
					<path class="st9" d="M97.7,57.9c0-2.7,1.8-4.4,3.8-4.4c2.2,0,3.4,1.6,3.4,3.9c0,0.3,0,0.7-0.1,0.9h-5.4
						c0.1,1.6,1.1,2.5,2.5,2.5c0.7,0,1.4-0.2,2-0.6l0.6,1.1c-0.8,0.5-1.7,0.9-2.8,0.9C99.5,62.2,97.7,60.6,97.7,57.9z M103.4,57.1
						c0-1.4-0.6-2.2-1.8-2.2c-1,0-1.9,0.8-2.1,2.2H103.4z"/>
					<path class="st9" d="M106.1,59.8c0-1.8,1.5-2.7,4.9-3.1c0-1-0.4-1.8-1.6-1.8c-0.9,0-1.7,0.4-2.4,0.8l-0.6-1.2
						c0.9-0.5,2-1.1,3.3-1.1c2.1,0,3,1.3,3,3.5v5h-1.4l-0.1-0.9l0,0c-0.8,0.6-1.6,1.1-2.6,1.1C107.1,62.2,106.1,61.3,106.1,59.8z
						 M111,59.9v-2c-2.4,0.3-3.3,0.9-3.3,1.8c0,0.8,0.6,1.1,1.3,1.1C109.8,60.8,110.4,60.5,111,59.9z"/>
					<path class="st9" d="M115.2,53.8h1.4l0.1,1.1l0,0c0.8-0.7,1.6-1.4,2.7-1.4c1.8,0,2.5,1.2,2.5,3.3V62h-1.7v-5c0-1.4-0.4-2-1.4-2
						c-0.8,0-1.3,0.4-2,1.1V62h-1.7L115.2,53.8L115.2,53.8z"/>
					<path class="st9" d="M127.9,53.8h1.4l0.1,1.2l0,0c0.7-0.8,1.5-1.4,2.5-1.4c1.2,0,1.9,0.6,2.3,1.5c0.8-0.9,1.6-1.5,2.7-1.5
						c1.7,0,2.5,1.2,2.5,3.3V62h-1.7v-5c0-1.4-0.5-2-1.4-2c-0.6,0-1.2,0.4-1.9,1.1V62h-1.7v-5c0-1.4-0.4-2-1.4-2
						c-0.6,0-1.2,0.4-1.9,1.1V62h-1.7v-8.2H127.9z"/>
					<path class="st9" d="M141.6,59.8c0-1.8,1.5-2.7,4.9-3.1c0-1-0.4-1.8-1.6-1.8c-0.9,0-1.7,0.4-2.4,0.8l-0.6-1.2
						c0.9-0.5,2-1.1,3.3-1.1c2.1,0,3,1.3,3,3.5v5h-1.4l-0.1-0.9l0,0c-0.8,0.6-1.6,1.1-2.6,1.1C142.6,62.2,141.6,61.3,141.6,59.8z
						 M146.5,59.9v-2c-2.4,0.3-3.3,0.9-3.3,1.8c0,0.8,0.6,1.1,1.3,1.1C145.3,60.8,145.9,60.5,146.5,59.9z"/>
					<path class="st9" d="M150.7,53.8h1.4l0.1,1.5l0,0c0.6-1.1,1.5-1.7,2.3-1.7c0.4,0,0.7,0.1,0.9,0.2l-0.3,1.5
						c-0.3-0.1-0.5-0.1-0.8-0.1c-0.7,0-1.5,0.5-2,1.8v5h-1.7v-8.2H150.7z"/>
					<path class="st9" d="M156.8,50h1.7v7.7l0,0l3.2-4h1.9l-2.8,3.3l3.2,5h-1.9l-2.2-3.7l-1.4,1.6V62h-1.7L156.8,50L156.8,50z"/>
					<path class="st9" d="M164.5,57.9c0-2.7,1.8-4.4,3.8-4.4c2.2,0,3.4,1.6,3.4,3.9c0,0.3,0,0.7-0.1,0.9h-5.4
						c0.1,1.6,1.1,2.5,2.5,2.5c0.7,0,1.4-0.2,2-0.6l0.6,1.1c-0.8,0.5-1.7,0.9-2.8,0.9C166.3,62.2,164.5,60.6,164.5,57.9z
						 M170.2,57.1c0-1.4-0.6-2.2-1.8-2.2c-1,0-1.9,0.8-2.1,2.2H170.2z"/>
					<path class="st9" d="M173.7,59.3v-4.2h-1.2v-1.3l1.3-0.1l0.2-2.3h1.5v2.3h2.1v1.4h-2.1v4.2c0,1,0.3,1.5,1.2,1.5
						c0.3,0,0.6-0.1,0.9-0.2l0.3,1.3c-0.5,0.2-1,0.3-1.6,0.3C174.3,62.2,173.7,61,173.7,59.3z"/>
					<path class="st9" d="M182.7,60.1V50h1.7v10.1c0,0.5,0.2,0.6,0.4,0.6c0.1,0,0.1,0,0.3,0l0.2,1.3c-0.2,0.1-0.5,0.1-0.9,0.1
						C183.2,62.2,182.7,61.4,182.7,60.1z"/>
					<path class="st9" d="M186.7,59.8c0-1.8,1.5-2.7,4.9-3.1c0-1-0.4-1.8-1.6-1.8c-0.9,0-1.7,0.4-2.4,0.8l-0.6-1.2
						c0.9-0.5,2-1.1,3.3-1.1c2.1,0,3,1.3,3,3.5v5H192l-0.1-0.9l0,0c-0.8,0.6-1.6,1.1-2.6,1.1C187.7,62.2,186.7,61.3,186.7,59.8z
						 M191.6,59.9v-2c-2.4,0.3-3.3,0.9-3.3,1.8c0,0.8,0.6,1.1,1.3,1.1C190.4,60.8,191,60.5,191.6,59.9z"/>
					<path class="st9" d="M195.7,58.9v-5.2h1.7v5c0,1.4,0.4,2,1.4,2c0.8,0,1.3-0.4,2-1.2v-5.7h1.7V62h-1.4l-0.1-1.2l0,0
						c-0.8,0.9-1.6,1.4-2.7,1.4C196.5,62.2,195.7,61,195.7,58.9z"/>
					<path class="st9" d="M205.1,53.8h1.4l0.1,1.1l0,0c0.8-0.7,1.6-1.4,2.7-1.4c1.8,0,2.5,1.2,2.5,3.3V62h-1.7v-5c0-1.4-0.4-2-1.4-2
						c-0.8,0-1.3,0.4-2,1.1V62H205L205.1,53.8L205.1,53.8z"/>
					<path class="st9" d="M213.9,57.9c0-2.8,1.9-4.4,4.1-4.4c1,0,1.8,0.4,2.4,0.9l-0.9,1.1c-0.5-0.4-0.9-0.6-1.5-0.6
						c-1.4,0-2.4,1.2-2.4,2.9s0.9,2.9,2.3,2.9c0.7,0,1.3-0.3,1.8-0.8l0.7,1.1c-0.7,0.7-1.7,1-2.7,1
						C215.6,62.2,213.9,60.6,213.9,57.9z"/>
					<path class="st9" d="M222.2,50h1.7v3.2l-0.1,1.6c0.7-0.7,1.5-1.3,2.7-1.3c1.8,0,2.5,1.2,2.5,3.3V62h-1.7v-5c0-1.4-0.4-2-1.4-2
						c-0.8,0-1.3,0.4-2,1.1V62h-1.7V50z"/>
					<path class="st9" d="M234.3,57.9c0-2.8,1.8-4.4,3.9-4.4s3.9,1.6,3.9,4.4c0,2.7-1.8,4.3-3.9,4.3S234.3,60.6,234.3,57.9z
						 M240.3,57.9c0-1.8-0.8-2.9-2.1-2.9s-2.1,1.2-2.1,2.9s0.8,2.9,2.1,2.9C239.5,60.8,240.3,59.6,240.3,57.9z"/>
					<path class="st9" d="M248.1,51.4c-0.3-0.1-0.6-0.2-0.9-0.2c-0.7,0-1.1,0.5-1.1,1.5v1h1.7v1.4h-1.7V62h-1.7v-6.9h-1.1v-1.3
						l1.1-0.1v-1c0-1.7,0.8-2.9,2.6-2.9c0.6,0,1.1,0.1,1.5,0.3L248.1,51.4z"/>
					<path class="st9" d="M252.6,53.8h1.4l0.1,0.9l0,0c0.7-0.6,1.6-1.1,2.5-1.1c2.1,0,3.3,1.7,3.3,4.2c0,2.8-1.7,4.5-3.6,4.5
						c-0.7,0-1.5-0.3-2.2-0.9v1.4v2.7h-1.7V53.8H252.6z M258.2,57.8c0-1.7-0.6-2.8-1.9-2.8c-0.6,0-1.3,0.3-2,1v4
						c0.6,0.6,1.3,0.8,1.8,0.8C257.3,60.8,258.2,59.7,258.2,57.8z"/>
					<path class="st9" d="M262.1,53.8h1.4l0.1,1.5l0,0c0.6-1.1,1.5-1.7,2.3-1.7c0.4,0,0.7,0.1,0.9,0.2l-0.3,1.5
						c-0.3-0.1-0.5-0.1-0.8-0.1c-0.7,0-1.5,0.5-2,1.8v5H262v-8.2H262.1z"/>
					<path class="st9" d="M267.5,57.9c0-2.8,1.8-4.4,3.9-4.4s3.9,1.6,3.9,4.4c0,2.7-1.8,4.3-3.9,4.3S267.5,60.6,267.5,57.9z
						 M273.5,57.9c0-1.8-0.8-2.9-2.1-2.9c-1.3,0-2.1,1.2-2.1,2.9s0.8,2.9,2.1,2.9C272.7,60.8,273.5,59.6,273.5,57.9z"/>
					<path class="st9" d="M276.7,57.9c0-2.7,1.7-4.4,3.5-4.4c0.9,0,1.5,0.4,2.2,0.9l-0.1-1.4v-3h1.7v12h-1.4l-0.1-0.9l0,0
						c-0.6,0.6-1.5,1.1-2.4,1.1C278,62.2,276.7,60.6,276.7,57.9z M282.4,59.8v-4c-0.6-0.6-1.2-0.8-1.8-0.8c-1.2,0-2.1,1.1-2.1,2.9
						c0,1.9,0.7,2.9,2,2.9C281.2,60.8,281.8,60.5,282.4,59.8z"/>
					<path class="st9" d="M286.6,58.9v-5.2h1.7v5c0,1.4,0.4,2,1.4,2c0.8,0,1.3-0.4,2-1.2v-5.7h1.7V62H292l-0.1-1.2l0,0
						c-0.8,0.9-1.6,1.4-2.7,1.4C287.4,62.2,286.6,61,286.6,58.9z"/>
					<path class="st9" d="M295.4,57.9c0-2.8,1.9-4.4,4.1-4.4c1,0,1.8,0.4,2.4,0.9l-0.9,1.1c-0.5-0.4-0.9-0.6-1.5-0.6
						c-1.4,0-2.4,1.2-2.4,2.9s0.9,2.9,2.3,2.9c0.7,0,1.3-0.3,1.8-0.8l0.7,1.1c-0.7,0.7-1.7,1-2.7,1
						C297.1,62.2,295.4,60.6,295.4,57.9z"/>
					<path class="st9" d="M303.9,59.3v-4.2h-1.2v-1.3l1.3-0.1l0.2-2.3h1.5v2.3h2.1v1.4h-2.1v4.2c0,1,0.3,1.5,1.2,1.5
						c0.3,0,0.6-0.1,0.9-0.2l0.3,1.3c-0.5,0.2-1,0.3-1.6,0.3C304.5,62.2,303.9,61,303.9,59.3z"/>
					<path class="st9" d="M308.5,61.1l0.8-1.1c0.7,0.6,1.5,0.9,2.3,0.9c1,0,1.5-0.5,1.5-1.1c0-0.8-0.9-1.1-1.8-1.4
						c-1.1-0.4-2.4-1-2.4-2.4s1.1-2.4,2.9-2.4c1.1,0,2,0.5,2.7,1l-0.8,1.1c-0.6-0.4-1.2-0.7-1.8-0.7c-0.9,0-1.3,0.5-1.3,1
						c0,0.7,0.9,1,1.8,1.3c1.2,0.4,2.4,0.9,2.4,2.5c0,1.4-1.1,2.5-3.1,2.5C310.5,62.2,309.3,61.7,308.5,61.1z"/>
				</g>
				<text transform="matrix(1 0 0 1 315.2779 62.0027)" class="st9 st3 st4"> </text>
				<g class="st1">
					<path class="st9" d="M80.9,93.8h1.7l1.1,4.5c0.2,0.8,0.3,1.6,0.5,2.3h0.1c0.2-0.8,0.3-1.6,0.5-2.3l1.2-4.5h1.6l1.2,4.5
						c0.2,0.8,0.4,1.6,0.6,2.3h0.1c0.2-0.8,0.3-1.5,0.5-2.3l1.1-4.5h1.6l-2.1,8.2h-2.1l-1-4.1c-0.2-0.8-0.3-1.5-0.5-2.4h-0.1
						c-0.2,0.9-0.3,1.6-0.5,2.4l-1,4.1h-2L80.9,93.8z"/>
					<path class="st9" d="M94,91.2c0-0.6,0.5-1,1.1-1s1.1,0.4,1.1,1s-0.5,1-1.1,1C94.4,92.2,94,91.8,94,91.2z M94.2,93.8h1.7v8.2
						h-1.7V93.8z"/>
					<path class="st9" d="M98.8,99.3v-4.2h-1.2v-1.3l1.3-0.1l0.2-2.3h1.5v2.3h2.1v1.4h-2.1v4.2c0,1,0.3,1.5,1.2,1.5
						c0.3,0,0.6-0.1,0.9-0.2l0.3,1.3c-0.5,0.2-1,0.3-1.6,0.3C99.4,102.2,98.8,101,98.8,99.3z"/>
					<path class="st9" d="M104.5,90h1.7v3.2l-0.1,1.6c0.7-0.7,1.5-1.3,2.7-1.3c1.8,0,2.5,1.2,2.5,3.3v5.2h-1.7v-5c0-1.4-0.4-2-1.4-2
						c-0.8,0-1.3,0.4-2,1.1v5.8h-1.7V90z"/>
					<path class="st9" d="M117.2,93.8h1.4l0.1,1.1l0,0c0.8-0.7,1.6-1.4,2.7-1.4c1.8,0,2.5,1.2,2.5,3.3v5.2h-1.7v-5
						c0-1.4-0.4-2-1.4-2c-0.8,0-1.3,0.4-2,1.1v5.8h-1.7L117.2,93.8L117.2,93.8z"/>
					<path class="st9" d="M125.9,97.9c0-2.8,1.8-4.4,3.9-4.4c2,0,3.9,1.6,3.9,4.4c0,2.7-1.8,4.3-3.9,4.3
						C127.8,102.2,125.9,100.6,125.9,97.9z M131.9,97.9c0-1.8-0.8-2.9-2.1-2.9s-2.1,1.2-2.1,2.9c0,1.7,0.8,2.9,2.1,2.9
						C131.1,100.8,131.9,99.6,131.9,97.9z"/>
					<path class="st9" d="M134.5,93.8h1.8l1.4,4.4c0.2,0.8,0.5,1.6,0.7,2.5h0.1c0.2-0.8,0.5-1.7,0.7-2.5l1.4-4.4h1.7l-2.9,8.2h-2
						L134.5,93.8z"/>
					<path class="st9" d="M143.1,97.9c0-2.7,1.8-4.4,3.8-4.4c2.2,0,3.4,1.6,3.4,3.9c0,0.3,0,0.7-0.1,0.9h-5.4
						c0.1,1.6,1.1,2.5,2.5,2.5c0.7,0,1.4-0.2,2-0.6l0.6,1.1c-0.8,0.5-1.7,0.9-2.8,0.9C144.9,102.2,143.1,100.6,143.1,97.9z
						 M148.8,97.1c0-1.4-0.6-2.2-1.8-2.2c-1,0-1.9,0.8-2.1,2.2H148.8z"/>
					<path class="st9" d="M152.2,100.1V90h1.7v10.1c0,0.5,0.2,0.6,0.4,0.6c0.1,0,0.1,0,0.3,0l0.2,1.3c-0.2,0.1-0.5,0.1-0.9,0.1
						C152.7,102.2,152.2,101.4,152.2,100.1z"/>
					<path class="st9" d="M160,90h1.7v3.2l-0.1,1.6c0.7-0.7,1.5-1.3,2.7-1.3c1.8,0,2.5,1.2,2.5,3.3v5.2h-1.7v-5c0-1.4-0.4-2-1.4-2
						c-0.8,0-1.3,0.4-2,1.1v5.8H160V90z"/>
					<path class="st9" d="M168.8,97.9c0-2.7,1.8-4.4,3.8-4.4c2.2,0,3.4,1.6,3.4,3.9c0,0.3,0,0.7-0.1,0.9h-5.4
						c0.1,1.6,1.1,2.5,2.5,2.5c0.7,0,1.4-0.2,2-0.6l0.6,1.1c-0.8,0.5-1.7,0.9-2.8,0.9C170.6,102.2,168.8,100.6,168.8,97.9z
						 M174.4,97.1c0-1.4-0.6-2.2-1.8-2.2c-1,0-1.9,0.8-2.1,2.2H174.4z"/>
					<path class="st9" d="M177.1,99.8c0-1.8,1.5-2.7,4.9-3.1c0-1-0.4-1.8-1.6-1.8c-0.9,0-1.7,0.4-2.4,0.8l-0.6-1.2
						c0.9-0.5,2-1.1,3.3-1.1c2.1,0,3,1.3,3,3.5v5h-1.4l-0.1-0.9l0,0c-0.8,0.6-1.6,1.1-2.6,1.1C178.1,102.2,177.1,101.3,177.1,99.8z
						 M182.1,99.9v-2c-2.4,0.3-3.3,0.9-3.3,1.8c0,0.8,0.6,1.1,1.3,1.1S181.4,100.5,182.1,99.9z"/>
					<path class="st9" d="M186.2,100.1V90h1.7v10.1c0,0.5,0.2,0.6,0.4,0.6c0.1,0,0.1,0,0.3,0l0.2,1.3c-0.2,0.1-0.5,0.1-0.9,0.1
						C186.7,102.2,186.2,101.4,186.2,100.1z"/>
					<path class="st9" d="M191,99.3v-4.2h-1.2v-1.3l1.3-0.1l0.2-2.3h1.5v2.3h2.1v1.4h-2.1v4.2c0,1,0.3,1.5,1.2,1.5
						c0.3,0,0.6-0.1,0.9-0.2l0.3,1.3c-0.5,0.2-1,0.3-1.6,0.3C191.6,102.2,191,101,191,99.3z"/>
					<path class="st9" d="M196.6,90h1.7v3.2l-0.1,1.6c0.7-0.7,1.5-1.3,2.7-1.3c1.8,0,2.5,1.2,2.5,3.3v5.2h-1.7v-5c0-1.4-0.4-2-1.4-2
						c-0.8,0-1.3,0.4-2,1.1v5.8h-1.7V90z"/>
					<path class="st9" d="M208.7,97.9c0-2.8,1.9-4.4,4.1-4.4c1,0,1.8,0.4,2.4,0.9l-0.9,1.1c-0.5-0.4-0.9-0.6-1.5-0.6
						c-1.4,0-2.4,1.2-2.4,2.9c0,1.7,0.9,2.9,2.3,2.9c0.7,0,1.3-0.3,1.8-0.8l0.7,1.1c-0.7,0.7-1.7,1-2.7,1
						C210.5,102.2,208.7,100.6,208.7,97.9z"/>
					<path class="st9" d="M217.1,100.1V90h1.7v10.1c0,0.5,0.2,0.6,0.4,0.6c0.1,0,0.1,0,0.3,0l0.2,1.3c-0.2,0.1-0.5,0.1-0.9,0.1
						C217.5,102.2,217.1,101.4,217.1,100.1z"/>
					<path class="st9" d="M221.1,99.8c0-1.8,1.5-2.7,4.9-3.1c0-1-0.4-1.8-1.6-1.8c-0.9,0-1.7,0.4-2.4,0.8l-0.6-1.2
						c0.9-0.5,2-1.1,3.3-1.1c2.1,0,3,1.3,3,3.5v5h-1.4l-0.1-0.9l0,0c-0.8,0.6-1.6,1.1-2.6,1.1C222.1,102.2,221.1,101.3,221.1,99.8z
						 M226,99.9v-2c-2.4,0.3-3.3,0.9-3.3,1.8c0,0.8,0.6,1.1,1.3,1.1S225.3,100.5,226,99.9z"/>
					<path class="st9" d="M229.9,91.2c0-0.6,0.5-1,1.1-1s1.1,0.4,1.1,1s-0.5,1-1.1,1S229.9,91.8,229.9,91.2z M230.2,93.8h1.7v8.2
						h-1.7V93.8z"/>
					<path class="st9" d="M234.5,93.8h1.4L236,95l0,0c0.7-0.8,1.5-1.4,2.5-1.4c1.2,0,1.9,0.6,2.3,1.5c0.8-0.9,1.6-1.5,2.7-1.5
						c1.7,0,2.5,1.2,2.5,3.3v5.2h-1.7v-5c0-1.4-0.5-2-1.4-2c-0.6,0-1.2,0.4-1.9,1.1v5.8h-1.7v-5c0-1.4-0.4-2-1.4-2
						c-0.6,0-1.2,0.4-1.9,1.1v5.8h-1.7v-8.1H234.5z"/>
					<path class="st9" d="M247.7,101.1l0.8-1.1c0.7,0.6,1.5,0.9,2.3,0.9c1,0,1.5-0.5,1.5-1.1c0-0.8-0.9-1.1-1.8-1.4
						c-1.1-0.4-2.4-1-2.4-2.4s1.1-2.4,2.9-2.4c1.1,0,2,0.5,2.7,1l-0.8,1.1c-0.6-0.4-1.2-0.7-1.8-0.7c-0.9,0-1.3,0.5-1.3,1
						c0,0.7,0.9,1,1.8,1.3c1.2,0.4,2.4,0.9,2.4,2.5c0,1.4-1.1,2.5-3.1,2.5C249.7,102.2,248.5,101.7,247.7,101.1z"/>
				</g>
			</g>
		</g>
	</g>
</g>
</svg>
