<?xml version="1.0" encoding="utf-8"?>
<!-- Generator: Adobe Illustrator 23.0.1, SVG Export Plug-In . SVG Version: 6.00 Build 0)  -->
<svg version="1.1" id="Layer_1" xmlns="http://www.w3.org/2000/svg" xmlns:xlink="http://www.w3.org/1999/xlink" x="0px" y="0px"
	 viewBox="0 0 1000 505" style="enable-background:new 0 0 1000 505;" xml:space="preserve">
<style type="text/css">
	.st0{fill-rule:evenodd;clip-rule:evenodd;fill:#91AF1E;fill-opacity:0.8;stroke:#819A1E;stroke-width:2;}
	.st1{enable-background:new    ;}
	.st2{fill:#FFFFFF;}
	.st3{font-family:'NotoSansKR-Regular-KSCpc-EUC-H';}
	.st4{font-size:18px;}
	.st5{fill:none;stroke:#0E0E0E;stroke-width:2;stroke-linecap:square;}
	.st6{fill:none;stroke:#0E0E0E;stroke-width:2;stroke-linecap:round;stroke-linejoin:round;}
	.st7{fill-rule:evenodd;clip-rule:evenodd;fill:#FFFFFF;fill-opacity:0.8;stroke:#B54142;stroke-width:2;}
	.st8{fill:#333333;}
	.st9{font-family:'NotoSansKR-Medium-KSCpc-EUC-H';}
	.st10{font-size:20px;}
</style>
<title>table</title>
<desc>Created with Sketch.</desc>
<g id="Page-1">
	<g transform="translate(-220.000000, -520.000000)">
		<g id="second" transform="translate(190.000000, 420.000000)">
			<g id="table" transform="translate(30.000000, 100.000000)">
				<g id="box1">
					<path id="bg" class="st0" d="M9,1h982c4.4,0,8,3.6,8,8v206c0,4.4-3.6,8-8,8H9c-4.4,0-8-3.6-8-8V9C1,4.6,4.6,1,9,1z"/>
					<g class="st1">
						<path class="st2" d="M150,41.7h3.3l4.7,8.7l1.6,3.5h0.1c-0.2-1.7-0.4-3.9-0.4-5.7v-6.5h3.1V58h-3.3l-4.7-8.7l-1.6-3.5h-0.1
							c0.2,1.8,0.4,3.8,0.4,5.7V58H150V41.7z"/>
						<path class="st2" d="M165.6,54.7c0-2.6,2.1-4,7.1-4.6c0-1.2-0.6-2.1-2.1-2.1c-1.1,0-2.2,0.5-3.4,1.2L166,47
							c1.5-0.9,3.2-1.6,5.1-1.6c3.1,0,4.7,1.9,4.7,5.4V58h-2.6l-0.2-1.3H173c-1.1,0.9-2.3,1.6-3.7,1.6
							C167.1,58.3,165.6,56.7,165.6,54.7z M172.7,54.6v-2.5c-3,0.4-4,1.2-4,2.3c0,1,0.7,1.4,1.6,1.4
							C171.2,55.8,171.9,55.3,172.7,54.6z"/>
						<path class="st2" d="M179.3,53.7v-5.5h-1.7v-2.4l1.9-0.2l0.4-3.3h2.7v3.3h3v2.6h-3v5.5c0,1.4,0.6,2.1,1.7,2.1
							c0.4,0,0.9-0.1,1.2-0.3l0.5,2.4c-0.7,0.2-1.5,0.5-2.6,0.5C180.4,58.3,179.3,56.5,179.3,53.7z"/>
						<path class="st2" d="M187.9,53.4v-7.7h3.2V53c0,1.9,0.5,2.6,1.7,2.6c1,0,1.7-0.4,2.5-1.5v-8.3h3.2V58H196l-0.2-1.8h-0.1
							c-1.1,1.3-2.2,2.1-3.9,2.1C189.1,58.3,187.9,56.5,187.9,53.4z"/>
						<path class="st2" d="M202.1,45.7h2.6l0.2,2.2h0.1c0.9-1.6,2.2-2.5,3.5-2.5c0.7,0,1.1,0.1,1.5,0.3l-0.6,2.8
							c-0.4-0.1-0.8-0.2-1.3-0.2c-1,0-2.1,0.6-2.8,2.4V58h-3.2V45.7z"/>
						<path class="st2" d="M210.3,54.7c0-2.6,2.1-4,7.1-4.6c0-1.2-0.6-2.1-2.1-2.1c-1.1,0-2.2,0.5-3.4,1.2l-1.2-2.1
							c1.5-0.9,3.2-1.6,5.1-1.6c3.1,0,4.7,1.9,4.7,5.4V58H218l-0.2-1.3h-0.1c-1.1,0.9-2.3,1.6-3.7,1.6
							C211.8,58.3,210.3,56.7,210.3,54.7z M217.4,54.6v-2.5c-3,0.4-4,1.2-4,2.3c0,1,0.7,1.4,1.6,1.4C216,55.8,216.7,55.3,217.4,54.6
							z"/>
						<path class="st2" d="M224,54.5V40.4h3.2v14.3c0,0.7,0.4,1,0.7,1c0.1,0,0.2,0,0.4,0l0.4,2.4c-0.4,0.2-0.9,0.3-1.7,0.3
							C224.8,58.3,224,56.8,224,54.5z"/>
						<path class="st2" d="M235.2,51.9c0-4,2.5-6.5,5.2-6.5c1.4,0,2.2,0.5,3.1,1.3l-0.1-1.9v-4.3h3.2V58H244l-0.3-1.3h-0.1
							c-0.9,0.9-2.1,1.6-3.4,1.6C237.2,58.3,235.2,55.9,235.2,51.9z M243.3,54.4V49c-0.7-0.7-1.5-0.9-2.3-0.9
							c-1.4,0-2.6,1.3-2.6,3.8c0,2.6,0.9,3.8,2.6,3.8C241.9,55.6,242.6,55.3,243.3,54.4z"/>
						<path class="st2" d="M249.7,41.9c0-1.1,0.8-1.8,1.9-1.8c1.1,0,1.9,0.7,1.9,1.8c0,1-0.8,1.8-1.9,1.8
							C250.6,43.7,249.7,43,249.7,41.9z M250.1,45.7h3.2V58h-3.2V45.7z"/>
						<path class="st2" d="M256,51.9c0-4,2.8-6.5,5.7-6.5c3.4,0,5.1,2.5,5.1,5.9c0,0.6-0.1,1.2-0.2,1.5h-7.6c0.3,2,1.6,3.1,3.4,3.1
							c1,0,1.9-0.3,2.8-0.9l1.1,2c-1.2,0.8-2.8,1.4-4.3,1.4C258.7,58.3,256,55.9,256,51.9z M264.1,50.6c0-1.7-0.7-2.7-2.3-2.7
							c-1.3,0-2.4,0.9-2.7,2.7H264.1z"/>
						<path class="st2" d="M269.7,53.7v-5.5H268v-2.4l1.9-0.2l0.4-3.3h2.7v3.3h3v2.6h-3v5.5c0,1.4,0.6,2.1,1.7,2.1
							c0.4,0,0.9-0.1,1.2-0.3l0.5,2.4c-0.7,0.2-1.5,0.5-2.6,0.5C270.8,58.3,269.7,56.5,269.7,53.7z"/>
						<path class="st2" d="M277.4,54.7c0-2.6,2.1-4,7.1-4.6c0-1.2-0.6-2.1-2.1-2.1c-1.1,0-2.2,0.5-3.4,1.2l-1.2-2.1
							c1.5-0.9,3.2-1.6,5.1-1.6c3.1,0,4.7,1.9,4.7,5.4V58h-2.6l-0.2-1.3h-0.1c-1.1,0.9-2.3,1.6-3.7,1.6
							C278.8,58.3,277.4,56.7,277.4,54.7z M284.5,54.6v-2.5c-3,0.4-4,1.2-4,2.3c0,1,0.7,1.4,1.6,1.4C283,55.8,283.7,55.3,284.5,54.6
							z"/>
						<path class="st2" d="M291,45.7h2.6l0.2,2.2h0.1c0.9-1.6,2.2-2.5,3.5-2.5c0.7,0,1.1,0.1,1.5,0.3l-0.6,2.8
							c-0.4-0.1-0.8-0.2-1.3-0.2c-1,0-2.1,0.6-2.8,2.4V58H291V45.7z"/>
						<path class="st2" d="M300.3,62.7l0.6-2.5c0.2,0.1,0.6,0.2,0.9,0.2c1.3,0,2-0.8,2.3-1.9l0.2-0.7l-4.8-12.1h3.3l2,5.7
							c0.4,1.1,0.7,2.3,1,3.5h0.1c0.3-1.1,0.6-2.3,0.9-3.5l1.7-5.7h3.1l-4.4,12.7c-1.1,2.9-2.4,4.6-5.1,4.6
							C301.2,63,300.8,62.9,300.3,62.7z"/>
						<path class="st2" d="M318.2,41.9c0-1.1,0.8-1.8,1.9-1.8c1.1,0,1.9,0.7,1.9,1.8c0,1-0.8,1.8-1.9,1.8
							C319,43.7,318.2,43,318.2,41.9z M318.5,45.7h3.2V58h-3.2V45.7z"/>
						<path class="st2" d="M325.2,45.7h2.6l0.2,1.6h0.1c1.1-1.1,2.3-1.9,4-1.9c2.7,0,3.8,1.8,3.8,5V58h-3.2v-7.3
							c0-1.9-0.5-2.6-1.7-2.6c-1,0-1.6,0.5-2.6,1.4V58h-3.2V45.7z"/>
						<path class="st2" d="M338.5,60.2c0-1,0.6-1.9,1.8-2.6v-0.1c-0.6-0.4-1.1-1.1-1.1-2.1c0-0.9,0.6-1.8,1.4-2.3V53
							c-0.8-0.6-1.6-1.8-1.6-3.2c0-2.9,2.4-4.5,5-4.5c0.7,0,1.3,0.1,1.8,0.3h4.4v2.4H348c0.3,0.4,0.6,1.1,0.6,1.9
							c0,2.8-2.1,4.2-4.8,4.2c-0.5,0-1.1-0.1-1.6-0.3c-0.4,0.3-0.5,0.6-0.5,1.1c0,0.7,0.5,1,1.9,1h2.1c3,0,4.6,0.9,4.6,3.1
							c0,2.5-2.6,4.4-6.7,4.4C340.7,63.3,338.5,62.4,338.5,60.2z M347.3,59.5c0-0.9-0.7-1.1-2-1.1h-1.5c-0.7,0-1.3-0.1-1.7-0.2
							c-0.6,0.4-0.8,0.9-0.8,1.4c0,1,1.1,1.6,2.9,1.6C346,61.3,347.3,60.5,347.3,59.5z M345.8,49.8c0-1.5-0.8-2.3-1.9-2.3
							s-1.9,0.8-1.9,2.3s0.9,2.3,1.9,2.3S345.8,51.3,345.8,49.8z"/>
						<path class="st2" d="M352.4,45.7h2.6l0.2,2.2h0.1c0.9-1.6,2.2-2.5,3.5-2.5c0.7,0,1.1,0.1,1.5,0.3l-0.6,2.8
							c-0.4-0.1-0.8-0.2-1.3-0.2c-1,0-2.1,0.6-2.8,2.4V58h-3.2V45.7z"/>
						<path class="st2" d="M361,51.9c0-4,2.8-6.5,5.7-6.5c3.4,0,5.1,2.5,5.1,5.9c0,0.6-0.1,1.2-0.2,1.5h-7.6c0.3,2,1.6,3.1,3.4,3.1
							c1,0,1.9-0.3,2.8-0.9l1.1,2c-1.2,0.8-2.8,1.4-4.3,1.4C363.7,58.3,361,55.9,361,51.9z M369.1,50.6c0-1.7-0.7-2.7-2.3-2.7
							c-1.3,0-2.4,0.9-2.7,2.7H369.1z"/>
						<path class="st2" d="M373.8,51.9c0-4,2.5-6.5,5.2-6.5c1.4,0,2.2,0.5,3.1,1.3l-0.1-1.9v-4.3h3.2V58h-2.6l-0.3-1.3h-0.1
							c-0.9,0.9-2.1,1.6-3.4,1.6C375.8,58.3,373.8,55.9,373.8,51.9z M382,54.4V49c-0.7-0.7-1.5-0.9-2.3-0.9c-1.4,0-2.6,1.3-2.6,3.8
							c0,2.6,0.9,3.8,2.6,3.8C380.6,55.6,381.3,55.3,382,54.4z"/>
						<path class="st2" d="M388.4,41.9c0-1.1,0.8-1.8,1.9-1.8c1.1,0,1.9,0.7,1.9,1.8c0,1-0.8,1.8-1.9,1.8
							C389.2,43.7,388.4,43,388.4,41.9z M388.7,45.7h3.2V58h-3.2V45.7z"/>
						<path class="st2" d="M394.6,51.9c0-4,2.8-6.5,5.7-6.5c3.4,0,5.1,2.5,5.1,5.9c0,0.6-0.1,1.2-0.2,1.5h-7.6
							c0.3,2,1.6,3.1,3.4,3.1c1,0,1.9-0.3,2.8-0.9l1.1,2c-1.2,0.8-2.8,1.4-4.3,1.4C397.3,58.3,394.6,55.9,394.6,51.9z M402.8,50.6
							c0-1.7-0.7-2.7-2.3-2.7c-1.3,0-2.4,0.9-2.7,2.7H402.8z"/>
						<path class="st2" d="M408.2,45.7h2.6l0.2,1.6h0.1c1.1-1.1,2.3-1.9,4-1.9c2.7,0,3.8,1.8,3.8,5V58h-3.2v-7.3
							c0-1.9-0.5-2.6-1.7-2.6c-1,0-1.6,0.5-2.6,1.4V58h-3.2V45.7z"/>
						<path class="st2" d="M422.8,53.7v-5.5H421v-2.4l1.9-0.2l0.4-3.3h2.7v3.3h3v2.6h-3v5.5c0,1.4,0.6,2.1,1.7,2.1
							c0.4,0,0.9-0.1,1.2-0.3l0.5,2.4c-0.7,0.2-1.5,0.5-2.6,0.5C423.9,58.3,422.8,56.5,422.8,53.7z"/>
						<path class="st2" d="M430.1,56.6l1.5-2c1.1,0.9,2.2,1.3,3.3,1.3c1.2,0,1.8-0.5,1.8-1.3c0-0.9-1.3-1.3-2.6-1.8
							c-1.6-0.6-3.4-1.5-3.4-3.6c0-2.2,1.8-3.8,4.6-3.8c1.8,0,3.2,0.7,4.2,1.5l-1.5,2c-0.9-0.6-1.7-1.1-2.7-1.1
							c-1.1,0-1.6,0.5-1.6,1.2c0,0.9,1.2,1.2,2.5,1.7c1.6,0.6,3.4,1.4,3.4,3.7c0,2.2-1.7,3.9-4.9,3.9
							C433.1,58.3,431.3,57.6,430.1,56.6z"/>
						<path class="st2" d="M445.7,45.7h3.3l1.8,6.1c0.3,1.2,0.7,2.5,1,3.7h0.1c0.3-1.3,0.7-2.5,1-3.7l1.8-6.1h3.1L453.7,58h-3.7
							L445.7,45.7z"/>
						<path class="st2" d="M458.9,51.9c0-4,2.8-6.5,5.7-6.5c3.4,0,5.1,2.5,5.1,5.9c0,0.6-0.1,1.2-0.2,1.5H462c0.3,2,1.6,3.1,3.4,3.1
							c1,0,1.9-0.3,2.8-0.9l1.1,2c-1.2,0.8-2.8,1.4-4.3,1.4C461.6,58.3,458.9,55.9,458.9,51.9z M467,50.6c0-1.7-0.7-2.7-2.3-2.7
							c-1.3,0-2.4,0.9-2.7,2.7H467z"/>
						<path class="st2" d="M472.4,45.7h2.6l0.2,2.2h0.1c0.9-1.6,2.2-2.5,3.5-2.5c0.7,0,1.1,0.1,1.5,0.3l-0.6,2.8
							c-0.4-0.1-0.8-0.2-1.3-0.2c-1,0-2.1,0.6-2.8,2.4V58h-3.2V45.7z"/>
						<path class="st2" d="M481.7,41.9c0-1.1,0.8-1.8,1.9-1.8c1.1,0,1.9,0.7,1.9,1.8c0,1-0.8,1.8-1.9,1.8
							C482.5,43.7,481.7,43,481.7,41.9z M482,45.7h3.2V58H482V45.7z"/>
						<path class="st2" d="M489.3,44.7c0-2.6,1.2-4.6,4.3-4.6c0.9,0,1.8,0.2,2.3,0.4l-0.6,2.4c-0.4-0.2-0.9-0.3-1.3-0.3
							c-1,0-1.5,0.6-1.5,1.9v1.1h2.3v2.6h-2.3V58h-3.2v-9.8h-1.7v-2.4l1.7-0.1V44.7z M497,41.9c0-1.1,0.8-1.8,1.9-1.8
							c1.1,0,2,0.7,2,1.8c0,1-0.8,1.8-2,1.8C497.8,43.7,497,43,497,41.9z M497.3,45.7h3.2V58h-3.2V45.7z"/>
						<path class="st2" d="M503.2,51.9c0-4,2.8-6.5,5.7-6.5c3.4,0,5.1,2.5,5.1,5.9c0,0.6-0.1,1.2-0.2,1.5h-7.6
							c0.3,2,1.6,3.1,3.4,3.1c1,0,1.9-0.3,2.8-0.9l1.1,2c-1.2,0.8-2.8,1.4-4.3,1.4C505.9,58.3,503.2,55.9,503.2,51.9z M511.4,50.6
							c0-1.7-0.7-2.7-2.3-2.7c-1.3,0-2.4,0.9-2.7,2.7H511.4z"/>
						<path class="st2" d="M516.1,51.9c0-4,2.5-6.5,5.2-6.5c1.4,0,2.2,0.5,3.1,1.3l-0.1-1.9v-4.3h3.2V58h-2.6l-0.3-1.3h-0.1
							c-0.9,0.9-2.1,1.6-3.4,1.6C518.1,58.3,516.1,55.9,516.1,51.9z M524.3,54.4V49c-0.7-0.7-1.5-0.9-2.3-0.9
							c-1.4,0-2.6,1.3-2.6,3.8c0,2.6,0.9,3.8,2.6,3.8C522.8,55.6,523.6,55.3,524.3,54.4z"/>
						<path class="st2" d="M538.8,56.7L538.8,56.7l-0.4,1.3H536V40.4h3.2v4.4l-0.1,2c1-0.9,2.2-1.5,3.4-1.5c3,0,4.9,2.5,4.9,6.2
							c0,4.2-2.5,6.7-5.2,6.7C541,58.3,539.9,57.7,538.8,56.7z M544.1,51.7c0-2.4-0.7-3.7-2.4-3.7c-0.8,0-1.6,0.4-2.4,1.3v5.4
							c0.8,0.7,1.6,0.9,2.2,0.9C542.9,55.6,544.1,54.4,544.1,51.7z"/>
						<path class="st2" d="M549.3,62.7l0.6-2.5c0.2,0.1,0.6,0.2,0.9,0.2c1.3,0,2-0.8,2.3-1.9l0.2-0.7l-4.8-12.1h3.3l2,5.7
							c0.4,1.1,0.7,2.3,1,3.5h0.1c0.3-1.1,0.6-2.3,0.9-3.5l1.7-5.7h3.1l-4.4,12.7c-1.1,2.9-2.4,4.6-5.1,4.6
							C550.3,63,549.8,62.9,549.3,62.7z"/>
						<path class="st2" d="M567,54.7c0-2.6,2.1-4,7.1-4.6c0-1.2-0.6-2.1-2.1-2.1c-1.1,0-2.2,0.5-3.4,1.2l-1.2-2.1
							c1.5-0.9,3.2-1.6,5.1-1.6c3.1,0,4.7,1.9,4.7,5.4V58h-2.6l-0.2-1.3h-0.1c-1.1,0.9-2.3,1.6-3.7,1.6
							C568.4,58.3,567,56.7,567,54.7z M574,54.6v-2.5c-3,0.4-4,1.2-4,2.3c0,1,0.7,1.4,1.6,1.4C572.6,55.8,573.3,55.3,574,54.6z"/>
						<path class="st2" d="M579.9,51.9c0-4,2.5-6.5,5.2-6.5c1.4,0,2.2,0.5,3.1,1.3l-0.1-1.9v-4.3h3.2V58h-2.6l-0.3-1.3h-0.1
							c-0.9,0.9-2.1,1.6-3.4,1.6C581.9,58.3,579.9,55.9,579.9,51.9z M588,54.4V49c-0.7-0.7-1.5-0.9-2.3-0.9c-1.4,0-2.6,1.3-2.6,3.8
							c0,2.6,0.9,3.8,2.6,3.8C586.6,55.6,587.3,55.3,588,54.4z"/>
						<path class="st2" d="M593.3,45.7h3.3l1.8,6.1c0.3,1.2,0.7,2.5,1,3.7h0.1c0.3-1.3,0.7-2.5,1-3.7l1.8-6.1h3.1L601.3,58h-3.7
							L593.3,45.7z"/>
						<path class="st2" d="M606.3,54.7c0-2.6,2.1-4,7.1-4.6c0-1.2-0.6-2.1-2.1-2.1c-1.1,0-2.2,0.5-3.4,1.2l-1.2-2.1
							c1.5-0.9,3.2-1.6,5.1-1.6c3.1,0,4.7,1.9,4.7,5.4V58H614l-0.2-1.3h-0.1c-1.1,0.9-2.3,1.6-3.7,1.6
							C607.8,58.3,606.3,56.7,606.3,54.7z M613.4,54.6v-2.5c-3,0.4-4,1.2-4,2.3c0,1,0.7,1.4,1.6,1.4
							C611.9,55.8,612.6,55.3,613.4,54.6z"/>
						<path class="st2" d="M619.9,45.7h2.6l0.2,1.6h0.1c1.1-1.1,2.3-1.9,4-1.9c2.7,0,3.8,1.8,3.8,5V58h-3.2v-7.3
							c0-1.9-0.5-2.6-1.7-2.6c-1,0-1.6,0.5-2.6,1.4V58h-3.2V45.7z"/>
						<path class="st2" d="M633.2,51.9c0-4.1,2.9-6.5,6.3-6.5c1.5,0,2.7,0.6,3.6,1.4l-1.5,2.1c-0.6-0.5-1.2-0.8-1.9-0.8
							c-1.9,0-3.1,1.5-3.1,3.9c0,2.3,1.3,3.8,3.1,3.8c0.9,0,1.7-0.4,2.4-1l1.3,2.1c-1.2,1-2.7,1.5-4,1.5
							C635.8,58.3,633.2,55.9,633.2,51.9z"/>
						<path class="st2" d="M644.2,51.9c0-4,2.8-6.5,5.7-6.5c3.4,0,5.1,2.5,5.1,5.9c0,0.6-0.1,1.2-0.2,1.5h-7.6
							c0.3,2,1.6,3.1,3.4,3.1c1,0,1.9-0.3,2.8-0.9l1.1,2c-1.2,0.8-2.8,1.4-4.3,1.4C646.9,58.3,644.2,55.9,644.2,51.9z M652.3,50.6
							c0-1.7-0.7-2.7-2.3-2.7c-1.3,0-2.4,0.9-2.7,2.7H652.3z"/>
						<path class="st2" d="M657,51.9c0-4,2.5-6.5,5.2-6.5c1.4,0,2.2,0.5,3.1,1.3l-0.1-1.9v-4.3h3.2V58h-2.6l-0.3-1.3h-0.1
							c-0.9,0.9-2.1,1.6-3.4,1.6C659,58.3,657,55.9,657,51.9z M665.2,54.4V49c-0.7-0.7-1.5-0.9-2.3-0.9c-1.4,0-2.6,1.3-2.6,3.8
							c0,2.6,0.9,3.8,2.6,3.8C663.8,55.6,664.5,55.3,665.2,54.4z"/>
						<path class="st2" d="M679.8,56.7L679.8,56.7l-0.4,1.3h-2.5V40.4h3.2v4.4l-0.1,2c1-0.9,2.2-1.5,3.4-1.5c3,0,4.9,2.5,4.9,6.2
							c0,4.2-2.5,6.7-5.2,6.7C682,58.3,680.8,57.7,679.8,56.7z M685,51.7c0-2.4-0.7-3.7-2.4-3.7c-0.8,0-1.6,0.4-2.4,1.3v5.4
							c0.8,0.7,1.6,0.9,2.2,0.9C683.8,55.6,685,54.4,685,51.7z"/>
						<path class="st2" d="M690.8,41.9c0-1.1,0.8-1.8,1.9-1.8c1.1,0,1.9,0.7,1.9,1.8c0,1-0.8,1.8-1.9,1.8
							C691.6,43.7,690.8,43,690.8,41.9z M691.1,45.7h3.2V58h-3.2V45.7z"/>
						<path class="st2" d="M697,51.9c0-4.1,2.8-6.5,5.9-6.5s5.9,2.4,5.9,6.5c0,4.1-2.8,6.4-5.9,6.4S697,55.9,697,51.9z M705.5,51.9
							c0-2.3-0.9-3.9-2.6-3.9s-2.6,1.5-2.6,3.9c0,2.3,0.9,3.8,2.6,3.8S705.5,54.2,705.5,51.9z"/>
						<path class="st2" d="M711.4,53.7v-5.5h-1.7v-2.4l1.9-0.2l0.4-3.3h2.7v3.3h3v2.6h-3v5.5c0,1.4,0.6,2.1,1.7,2.1
							c0.4,0,0.9-0.1,1.2-0.3l0.5,2.4c-0.7,0.2-1.5,0.5-2.6,0.5C712.5,58.3,711.4,56.5,711.4,53.7z"/>
						<path class="st2" d="M719,51.9c0-4,2.8-6.5,5.7-6.5c3.4,0,5.1,2.5,5.1,5.9c0,0.6-0.1,1.2-0.2,1.5h-7.6c0.3,2,1.6,3.1,3.4,3.1
							c1,0,1.9-0.3,2.8-0.9l1.1,2c-1.2,0.8-2.8,1.4-4.3,1.4C721.6,58.3,719,55.9,719,51.9z M727.1,50.6c0-1.7-0.7-2.7-2.3-2.7
							c-1.3,0-2.4,0.9-2.7,2.7H727.1z"/>
						<path class="st2" d="M731.7,51.9c0-4.1,2.9-6.5,6.3-6.5c1.5,0,2.7,0.6,3.6,1.4l-1.5,2.1c-0.6-0.5-1.2-0.8-1.9-0.8
							c-1.9,0-3.1,1.5-3.1,3.9c0,2.3,1.3,3.8,3.1,3.8c0.9,0,1.7-0.4,2.4-1l1.3,2.1c-1.2,1-2.7,1.5-4,1.5
							C734.3,58.3,731.7,55.9,731.7,51.9z"/>
						<path class="st2" d="M744.1,40.4h3.2v4.4l-0.1,2.3c1-0.9,2.2-1.8,3.9-1.8c2.7,0,3.8,1.8,3.8,5V58h-3.2v-7.3
							c0-1.9-0.5-2.6-1.7-2.6c-1,0-1.7,0.5-2.6,1.4V58h-3.2V40.4z"/>
						<path class="st2" d="M758.2,45.7h2.6l0.2,1.6h0.1c1.1-1.1,2.3-1.9,4-1.9c2.7,0,3.8,1.8,3.8,5V58h-3.2v-7.3
							c0-1.9-0.5-2.6-1.7-2.6c-1,0-1.7,0.5-2.6,1.4V58h-3.2V45.7z"/>
						<path class="st2" d="M771.5,51.9c0-4.1,2.8-6.5,5.9-6.5s5.9,2.4,5.9,6.5c0,4.1-2.8,6.4-5.9,6.4S771.5,55.9,771.5,51.9z
							 M780.1,51.9c0-2.3-0.9-3.9-2.6-3.9s-2.6,1.5-2.6,3.9c0,2.3,0.9,3.8,2.6,3.8S780.1,54.2,780.1,51.9z"/>
						<path class="st2" d="M786.1,54.5V40.4h3.2v14.3c0,0.7,0.4,1,0.7,1c0.1,0,0.2,0,0.4,0l0.4,2.4c-0.4,0.2-0.9,0.3-1.7,0.3
							C786.8,58.3,786.1,56.8,786.1,54.5z"/>
						<path class="st2" d="M792.2,51.9c0-4.1,2.8-6.5,5.9-6.5c3.1,0,5.9,2.4,5.9,6.5c0,4.1-2.8,6.4-5.9,6.4
							C795.1,58.3,792.2,55.9,792.2,51.9z M800.8,51.9c0-2.3-0.9-3.9-2.6-3.9c-1.7,0-2.6,1.5-2.6,3.9c0,2.3,0.9,3.8,2.6,3.8
							C799.8,55.7,800.8,54.2,800.8,51.9z"/>
						<path class="st2" d="M805.9,60.2c0-1,0.6-1.9,1.8-2.6v-0.1c-0.6-0.4-1.1-1.1-1.1-2.1c0-0.9,0.6-1.8,1.4-2.3V53
							c-0.8-0.6-1.6-1.8-1.6-3.2c0-2.9,2.4-4.5,5-4.5c0.7,0,1.3,0.1,1.8,0.3h4.4v2.4h-2.1c0.3,0.4,0.6,1.1,0.6,1.9
							c0,2.8-2.1,4.2-4.8,4.2c-0.5,0-1.1-0.1-1.6-0.3c-0.4,0.3-0.5,0.6-0.5,1.1c0,0.7,0.5,1,1.9,1h2.1c3,0,4.6,0.9,4.6,3.1
							c0,2.5-2.6,4.4-6.7,4.4C808.2,63.3,805.9,62.4,805.9,60.2z M814.7,59.5c0-0.9-0.7-1.1-2-1.1h-1.5c-0.7,0-1.3-0.1-1.7-0.2
							c-0.6,0.4-0.8,0.9-0.8,1.4c0,1,1.1,1.6,2.9,1.6C813.4,61.3,814.7,60.5,814.7,59.5z M813.2,49.8c0-1.5-0.8-2.3-1.9-2.3
							c-1.1,0-1.9,0.8-1.9,2.3s0.9,2.3,1.9,2.3S813.2,51.3,813.2,49.8z"/>
						<path class="st2" d="M819.6,41.9c0-1.1,0.8-1.8,1.9-1.8c1.1,0,1.9,0.7,1.9,1.8c0,1-0.8,1.8-1.9,1.8
							C820.4,43.7,819.6,43,819.6,41.9z M819.9,45.7h3.2V58h-3.2V45.7z"/>
						<path class="st2" d="M825.8,51.9c0-4,2.8-6.5,5.7-6.5c3.4,0,5.1,2.5,5.1,5.9c0,0.6-0.1,1.2-0.2,1.5H829c0.3,2,1.6,3.1,3.4,3.1
							c1,0,1.9-0.3,2.8-0.9l1.1,2c-1.2,0.8-2.8,1.4-4.3,1.4C828.5,58.3,825.8,55.9,825.8,51.9z M833.9,50.6c0-1.7-0.7-2.7-2.3-2.7
							c-1.3,0-2.4,0.9-2.7,2.7H833.9z"/>
						<path class="st2" d="M838.2,56.6l1.5-2c1.1,0.9,2.2,1.3,3.3,1.3c1.2,0,1.8-0.5,1.8-1.3c0-0.9-1.3-1.3-2.6-1.8
							c-1.6-0.6-3.4-1.5-3.4-3.6c0-2.2,1.8-3.8,4.6-3.8c1.8,0,3.2,0.7,4.2,1.5l-1.5,2c-0.9-0.6-1.7-1.1-2.7-1.1
							c-1.1,0-1.6,0.5-1.6,1.2c0,0.9,1.2,1.2,2.5,1.7c1.6,0.6,3.4,1.4,3.4,3.7c0,2.2-1.7,3.9-4.9,3.9
							C841.2,58.3,839.4,57.6,838.2,56.6z"/>
					</g>
					<g class="st1">
						<path class="st2" d="M227.8,99.3h4.6v1.3h-4.6V99.3z"/>
						<path class="st2" d="M238.1,103.3l1-1.1c1,1,2.3,1.6,3.7,1.6c1.7,0,2.8-0.9,2.8-2.2c0-1.4-1-1.8-2.2-2.3l-1.9-0.8
							c-1.2-0.5-2.7-1.5-2.7-3.4c0-2,1.8-3.5,4.2-3.5c1.6,0,3,0.7,3.9,1.6l-0.9,1.1c-0.8-0.8-1.8-1.2-3-1.2c-1.5,0-2.5,0.8-2.5,1.9
							c0,1.3,1.2,1.8,2.2,2.2l1.9,0.8c1.5,0.7,2.7,1.6,2.7,3.5c0,2.1-1.7,3.7-4.5,3.7C240.9,105.2,239.3,104.5,238.1,103.3z"/>
						<path class="st2" d="M248.9,100.1c0-3.2,2.1-5.1,4.4-5.1c2.5,0,3.9,1.8,3.9,4.6c0,0.4,0,0.7-0.1,0.9h-6.6
							c0.1,2.1,1.4,3.4,3.2,3.4c1,0,1.7-0.3,2.4-0.8l0.6,1.1c-0.9,0.6-1.9,1-3.2,1C251,105.2,248.9,103.3,248.9,100.1z M255.8,99.3
							c0-2-0.9-3-2.4-3c-1.4,0-2.6,1.1-2.8,3H255.8z"/>
						<path class="st2" d="M258.9,100.1c0-3.3,2.2-5.1,4.7-5.1c1.3,0,2.2,0.5,2.9,1.2l-0.8,1.1c-0.6-0.5-1.2-0.9-2-0.9
							c-1.8,0-3.1,1.5-3.1,3.8c0,2.3,1.2,3.7,3,3.7c0.9,0,1.7-0.4,2.3-1l0.7,1.1c-0.9,0.8-2,1.2-3.2,1.2
							C260.9,105.2,258.9,103.4,258.9,100.1z"/>
						<path class="st2" d="M268.7,101.4v-6.2h1.6v6c0,1.8,0.5,2.6,1.8,2.6c1,0,1.7-0.5,2.6-1.7v-6.9h1.6v9.8h-1.4l-0.1-1.5h-0.1
							c-0.9,1.1-1.9,1.8-3.2,1.8C269.6,105.2,268.7,103.9,268.7,101.4z"/>
						<path class="st2" d="M279.7,95.2h1.4l0.1,1.8h0.1c0.7-1.2,1.7-2,2.8-2c0.4,0,0.7,0.1,1,0.2l-0.3,1.4c-0.3-0.1-0.6-0.2-1-0.2
							c-0.8,0-1.8,0.6-2.5,2.2v6.3h-1.6V95.2z"/>
						<path class="st2" d="M285.8,100.1c0-3.2,2.1-5.1,4.4-5.1c2.5,0,3.9,1.8,3.9,4.6c0,0.4,0,0.7-0.1,0.9h-6.6
							c0.1,2.1,1.4,3.4,3.2,3.4c1,0,1.7-0.3,2.4-0.8l0.6,1.1c-0.9,0.6-1.9,1-3.2,1C287.9,105.2,285.8,103.3,285.8,100.1z
							 M292.6,99.3c0-2-0.9-3-2.4-3c-1.4,0-2.6,1.1-2.8,3H292.6z"/>
						<path class="st2" d="M299.4,103.9l0.8-1.1c0.8,0.7,1.7,1.2,2.9,1.2c1.3,0,1.9-0.7,1.9-1.5c0-1-1.2-1.4-2.2-1.9
							c-1.4-0.5-2.9-1.2-2.9-2.8c0-1.5,1.2-2.8,3.4-2.8c1.2,0,2.3,0.5,3,1.1l-0.8,1.1c-0.7-0.5-1.4-0.9-2.3-0.9
							c-1.2,0-1.8,0.6-1.8,1.4c0,0.9,1.1,1.3,2.2,1.7c1.4,0.5,3,1.1,3,3c0,1.6-1.3,2.9-3.6,2.9C301.7,105.2,300.4,104.7,299.4,103.9
							z"/>
						<path class="st2" d="M308.2,100.1c0-3.3,2.2-5.1,4.7-5.1c1.3,0,2.2,0.5,2.9,1.2l-0.8,1.1c-0.6-0.5-1.2-0.9-2-0.9
							c-1.8,0-3.1,1.5-3.1,3.8c0,2.3,1.2,3.7,3,3.7c0.9,0,1.7-0.4,2.3-1l0.7,1.1c-0.9,0.8-2,1.2-3.2,1.2
							C310.2,105.2,308.2,103.4,308.2,100.1z"/>
						<path class="st2" d="M317.8,92.1c0-0.7,0.5-1.1,1.1-1.1c0.6,0,1.1,0.4,1.1,1.1c0,0.6-0.5,1.1-1.1,1.1
							C318.3,93.2,317.8,92.8,317.8,92.1z M318.1,95.2h1.6v9.8h-1.6V95.2z"/>
						<path class="st2" d="M322.3,100.1c0-3.2,2.1-5.1,4.4-5.1c2.5,0,3.9,1.8,3.9,4.6c0,0.4,0,0.7-0.1,0.9H324
							c0.1,2.1,1.4,3.4,3.2,3.4c1,0,1.7-0.3,2.4-0.8l0.6,1.1c-0.9,0.6-1.9,1-3.2,1C324.4,105.2,322.3,103.3,322.3,100.1z
							 M329.2,99.3c0-2-0.9-3-2.4-3c-1.4,0-2.6,1.1-2.8,3H329.2z"/>
						<path class="st2" d="M333,95.2h1.4l0.1,1.4h0.1c0.9-0.9,1.9-1.7,3.3-1.7c2.1,0,3,1.3,3,3.8v6.2h-1.6v-6c0-1.8-0.6-2.6-1.9-2.6
							c-1,0-1.7,0.5-2.7,1.5v7.1H333V95.2z"/>
						<path class="st2" d="M344.3,102v-5.4h-1.5v-1.2l1.5-0.1l0.2-2.7h1.4v2.7h2.6v1.3H346v5.5c0,1.2,0.4,1.9,1.5,1.9
							c0.3,0,0.8-0.1,1.1-0.3l0.3,1.2c-0.6,0.2-1.2,0.4-1.8,0.4C345,105.2,344.3,103.9,344.3,102z"/>
						<path class="st2" d="M350.5,92.1c0-0.7,0.5-1.1,1.1-1.1c0.6,0,1.1,0.4,1.1,1.1c0,0.6-0.5,1.1-1.1,1.1
							C351,93.2,350.5,92.8,350.5,92.1z M350.8,95.2h1.6v9.8h-1.6V95.2z"/>
						<path class="st2" d="M356,93.7c0-2,0.9-3.2,2.8-3.2c0.6,0,1.2,0.1,1.6,0.3l-0.4,1.2c-0.4-0.2-0.8-0.3-1.1-0.3
							c-0.9,0-1.4,0.7-1.4,1.9v1.5h2.1v1.3h-2.1v8.4H356v-8.4h-1.3v-1.2l1.3-0.1V93.7z M364,92.1c0,0.6-0.5,1.1-1.2,1.1
							c-0.6,0-1.1-0.5-1.1-1.1c0-0.7,0.5-1.1,1.1-1.1C363.5,91.1,364,91.5,364,92.1z M362,95.2h1.7v9.8H362V95.2z"/>
						<path class="st2" d="M366.2,100.1c0-3.3,2.2-5.1,4.7-5.1c1.3,0,2.2,0.5,2.9,1.2l-0.8,1.1c-0.6-0.5-1.2-0.9-2-0.9
							c-1.8,0-3.1,1.5-3.1,3.8c0,2.3,1.2,3.7,3,3.7c0.9,0,1.7-0.4,2.3-1l0.7,1.1c-0.9,0.8-2,1.2-3.2,1.2
							C368.2,105.2,366.2,103.4,366.2,100.1z"/>
						<path class="st2" d="M379.4,100.1c0-3.3,2.2-5.1,4.7-5.1c1.3,0,2.2,0.5,2.9,1.2l-0.8,1.1c-0.6-0.5-1.2-0.9-2-0.9
							c-1.8,0-3.1,1.5-3.1,3.8c0,2.3,1.2,3.7,3,3.7c0.9,0,1.7-0.4,2.3-1l0.7,1.1c-0.9,0.8-2,1.2-3.2,1.2
							C381.4,105.2,379.4,103.4,379.4,100.1z"/>
						<path class="st2" d="M389.3,95.2h1.4l0.1,1.8h0.1c0.7-1.2,1.7-2,2.8-2c0.4,0,0.7,0.1,1,0.2l-0.3,1.4c-0.3-0.1-0.6-0.2-1-0.2
							c-0.8,0-1.8,0.6-2.5,2.2v6.3h-1.6V95.2z"/>
						<path class="st2" d="M395.3,100.1c0-3.2,2.1-5.1,4.4-5.1c2.5,0,3.9,1.8,3.9,4.6c0,0.4,0,0.7-0.1,0.9H397
							c0.1,2.1,1.4,3.4,3.2,3.4c1,0,1.7-0.3,2.4-0.8l0.6,1.1c-0.9,0.6-1.9,1-3.2,1C397.4,105.2,395.3,103.3,395.3,100.1z
							 M402.2,99.3c0-2-0.9-3-2.4-3c-1.4,0-2.6,1.1-2.8,3H402.2z"/>
						<path class="st2" d="M405.3,100.1c0-3.2,2-5.1,4.2-5.1c1.2,0,1.9,0.4,2.8,1.2l-0.1-1.7v-3.8h1.6V105h-1.3l-0.2-1.2h0
							c-0.8,0.8-1.8,1.4-3,1.4C406.9,105.2,405.3,103.4,405.3,100.1z M412.2,102.5v-5.1c-0.8-0.7-1.6-1-2.4-1
							c-1.6,0-2.8,1.5-2.8,3.7c0,2.4,1,3.8,2.7,3.8C410.6,103.9,411.4,103.4,412.2,102.5z"/>
						<path class="st2" d="M416.9,92.1c0-0.7,0.5-1.1,1.1-1.1c0.6,0,1.1,0.4,1.1,1.1c0,0.6-0.5,1.1-1.1,1.1
							C417.4,93.2,416.9,92.8,416.9,92.1z M417.2,95.2h1.6v9.8h-1.6V95.2z"/>
						<path class="st2" d="M423.7,104L423.7,104l-0.2,1h-1.3V90.7h1.6v3.9l-0.1,1.8c0.9-0.8,2-1.4,3.1-1.4c2.5,0,3.9,2,3.9,5
							c0,3.4-2,5.3-4.2,5.3C425.6,105.2,424.5,104.8,423.7,104z M429,100c0-2.2-0.7-3.6-2.6-3.6c-0.8,0-1.7,0.5-2.6,1.4v5.1
							c0.9,0.8,1.7,1,2.4,1C427.8,103.9,429,102.4,429,100z"/>
						<path class="st2" d="M433,92.1c0-0.7,0.5-1.1,1.1-1.1c0.6,0,1.1,0.4,1.1,1.1c0,0.6-0.5,1.1-1.1,1.1
							C433.5,93.2,433,92.8,433,92.1z M433.3,95.2h1.6v9.8h-1.6V95.2z"/>
						<path class="st2" d="M438.2,103.1V90.7h1.6v12.5c0,0.5,0.2,0.7,0.5,0.7c0.1,0,0.2,0,0.3,0l0.2,1.3c-0.2,0.1-0.5,0.1-1,0.1
							C438.7,105.2,438.2,104.4,438.2,103.1z"/>
						<path class="st2" d="M443.1,92.1c0-0.7,0.5-1.1,1.1-1.1c0.6,0,1.1,0.4,1.1,1.1c0,0.6-0.5,1.1-1.1,1.1
							C443.5,93.2,443.1,92.8,443.1,92.1z M443.4,95.2h1.6v9.8h-1.6V95.2z"/>
						<path class="st2" d="M448.6,102v-5.4h-1.5v-1.2l1.5-0.1l0.2-2.7h1.4v2.7h2.6v1.3h-2.6v5.5c0,1.2,0.4,1.9,1.5,1.9
							c0.3,0,0.8-0.1,1.1-0.3l0.3,1.2c-0.6,0.2-1.2,0.4-1.8,0.4C449.3,105.2,448.6,103.9,448.6,102z"/>
						<path class="st2" d="M454.1,109l0.3-1.3c0.2,0.1,0.5,0.2,0.7,0.2c1.1,0,1.8-0.9,2.2-2.1l0.2-0.7l-3.9-9.8h1.7l2,5.4
							c0.3,0.8,0.6,1.9,0.9,2.7h0.1c0.3-0.9,0.6-1.9,0.8-2.7l1.7-5.4h1.6l-3.7,10.6c-0.7,1.9-1.7,3.4-3.6,3.4
							C454.8,109.2,454.4,109.1,454.1,109z"/>
						<path class="st2" d="M468.8,102v-5.4h-1.5v-1.2l1.5-0.1l0.2-2.7h1.4v2.7h2.6v1.3h-2.6v5.5c0,1.2,0.4,1.9,1.5,1.9
							c0.3,0,0.8-0.1,1.1-0.3l0.3,1.2c-0.6,0.2-1.2,0.4-1.8,0.4C469.5,105.2,468.8,103.9,468.8,102z"/>
						<path class="st2" d="M475.3,90.7h1.6v3.9l-0.1,2c0.9-0.9,1.9-1.6,3.2-1.6c2.1,0,3,1.3,3,3.8v6.2h-1.6v-6
							c0-1.8-0.6-2.6-1.9-2.6c-1,0-1.7,0.5-2.7,1.5v7.1h-1.6V90.7z"/>
						<path class="st2" d="M486.2,95.2h1.4l0.1,1.8h0.1c0.7-1.2,1.7-2,2.8-2c0.4,0,0.7,0.1,1,0.2l-0.3,1.4c-0.3-0.1-0.6-0.2-1-0.2
							c-0.8,0-1.8,0.6-2.5,2.2v6.3h-1.6V95.2z"/>
						<path class="st2" d="M492.3,100.1c0-3.3,2.1-5.1,4.5-5.1c2.4,0,4.5,1.9,4.5,5.1c0,3.2-2.1,5.1-4.5,5.1
							C494.4,105.2,492.3,103.4,492.3,100.1z M499.6,100.1c0-2.2-1.2-3.8-2.8-3.8s-2.8,1.5-2.8,3.8c0,2.3,1.1,3.7,2.8,3.7
							S499.6,102.4,499.6,100.1z"/>
						<path class="st2" d="M503.8,101.4v-6.2h1.6v6c0,1.8,0.5,2.6,1.8,2.6c1,0,1.7-0.5,2.6-1.7v-6.9h1.6v9.8h-1.4l-0.1-1.5H510
							c-0.9,1.1-1.9,1.8-3.2,1.8C504.7,105.2,503.8,103.9,503.8,101.4z"/>
						<path class="st2" d="M514.1,106.9c0-0.8,0.5-1.6,1.5-2.2v-0.1c-0.5-0.3-0.9-0.8-0.9-1.6c0-0.8,0.6-1.5,1.1-1.8v-0.1
							c-0.6-0.5-1.3-1.5-1.3-2.6c0-2.1,1.7-3.5,3.7-3.5c0.5,0,1,0.1,1.4,0.3h3.4v1.3h-2c0.5,0.5,0.8,1.2,0.8,2
							c0,2.1-1.6,3.4-3.6,3.4c-0.5,0-1-0.1-1.5-0.3c-0.4,0.3-0.6,0.6-0.6,1.2c0,0.6,0.4,1.1,1.7,1.1h1.9c2.3,0,3.4,0.7,3.4,2.3
							c0,1.8-1.9,3.4-4.9,3.4C515.7,109.5,514.1,108.6,514.1,106.9z M521.5,106.4c0-0.9-0.7-1.2-2-1.2h-1.7c-0.4,0-0.8-0.1-1.3-0.2
							c-0.7,0.5-1,1.1-1,1.7c0,1,1.1,1.7,2.8,1.7C520.2,108.4,521.5,107.4,521.5,106.4z M520.2,98.5c0-1.4-0.9-2.3-2.1-2.3
							S516,97,516,98.5c0,1.4,1,2.3,2.1,2.3C519.2,100.8,520.2,99.9,520.2,98.5z"/>
						<path class="st2" d="M525,90.7h1.6v3.9l-0.1,2c0.9-0.9,1.9-1.6,3.2-1.6c2.1,0,3,1.3,3,3.8v6.2h-1.6v-6c0-1.8-0.6-2.6-1.9-2.6
							c-1,0-1.7,0.5-2.7,1.5v7.1H525V90.7z"/>
						<path class="st2" d="M539.9,95.2h1.3l0.1,1.1h0.1c0.9-0.7,2-1.4,3.1-1.4c2.5,0,3.9,2,3.9,5c0,3.3-2,5.3-4.2,5.3
							c-0.9,0-1.8-0.4-2.7-1.1l0,1.7v3.3h-1.6V95.2z M546.8,100c0-2.2-0.7-3.6-2.6-3.6c-0.8,0-1.7,0.5-2.6,1.4v5.1
							c0.9,0.8,1.7,1,2.4,1C545.6,103.9,546.8,102.4,546.8,100z"/>
						<path class="st2" d="M551,101.4v-6.2h1.6v6c0,1.8,0.5,2.6,1.8,2.6c1,0,1.7-0.5,2.6-1.7v-6.9h1.6v9.8h-1.4l-0.1-1.5h-0.1
							c-0.9,1.1-1.9,1.8-3.2,1.8C551.9,105.2,551,103.9,551,101.4z"/>
						<path class="st2" d="M563.5,104L563.5,104l-0.2,1H562V90.7h1.6v3.9l-0.1,1.8c0.9-0.8,2-1.4,3.1-1.4c2.5,0,3.9,2,3.9,5
							c0,3.4-2,5.3-4.2,5.3C565.4,105.2,564.4,104.8,563.5,104z M568.9,100c0-2.2-0.7-3.6-2.6-3.6c-0.8,0-1.7,0.5-2.6,1.4v5.1
							c0.9,0.8,1.7,1,2.4,1C567.7,103.9,568.9,102.4,568.9,100z"/>
						<path class="st2" d="M573.1,103.1V90.7h1.6v12.5c0,0.5,0.2,0.7,0.5,0.7c0.1,0,0.2,0,0.3,0l0.2,1.3c-0.2,0.1-0.5,0.1-1,0.1
							C573.6,105.2,573.1,104.4,573.1,103.1z"/>
						<path class="st2" d="M578,92.1c0-0.7,0.5-1.1,1.1-1.1c0.6,0,1.1,0.4,1.1,1.1c0,0.6-0.5,1.1-1.1,1.1
							C578.4,93.2,578,92.8,578,92.1z M578.3,95.2h1.6v9.8h-1.6V95.2z"/>
						<path class="st2" d="M582.5,100.1c0-3.3,2.2-5.1,4.7-5.1c1.3,0,2.2,0.5,2.9,1.2l-0.8,1.1c-0.6-0.5-1.2-0.9-2-0.9
							c-1.8,0-3.1,1.5-3.1,3.8c0,2.3,1.2,3.7,3,3.7c0.9,0,1.7-0.4,2.3-1l0.7,1.1c-0.9,0.8-2,1.2-3.2,1.2
							C584.5,105.2,582.5,103.4,582.5,100.1z"/>
						<path class="st2" d="M591.6,102.5c0-2.1,1.9-3.2,6-3.7c0-1.3-0.4-2.5-2-2.5c-1.1,0-2.2,0.5-2.9,1l-0.6-1.1
							c0.9-0.6,2.3-1.3,3.9-1.3c2.4,0,3.4,1.6,3.4,4v6h-1.3l-0.1-1.2h-0.1c-0.9,0.8-2,1.4-3.2,1.4
							C592.8,105.2,591.6,104.2,591.6,102.5z M597.6,102.6v-2.7c-3.3,0.4-4.4,1.2-4.4,2.5c0,1.1,0.8,1.6,1.7,1.6
							C595.9,103.9,596.6,103.5,597.6,102.6z"/>
						<path class="st2" d="M602.3,102v-5.4h-1.5v-1.2l1.5-0.1l0.2-2.7h1.4v2.7h2.6v1.3H604v5.5c0,1.2,0.4,1.9,1.5,1.9
							c0.3,0,0.8-0.1,1.1-0.3l0.3,1.2c-0.6,0.2-1.2,0.4-1.8,0.4C603.1,105.2,602.3,103.9,602.3,102z"/>
						<path class="st2" d="M608.5,92.1c0-0.7,0.5-1.1,1.1-1.1c0.6,0,1.1,0.4,1.1,1.1c0,0.6-0.5,1.1-1.1,1.1
							C609,93.2,608.5,92.8,608.5,92.1z M608.8,95.2h1.6v9.8h-1.6V95.2z"/>
						<path class="st2" d="M613.1,100.1c0-3.3,2.1-5.1,4.5-5.1s4.5,1.9,4.5,5.1c0,3.2-2.1,5.1-4.5,5.1S613.1,103.4,613.1,100.1z
							 M620.4,100.1c0-2.2-1.2-3.8-2.8-3.8s-2.8,1.5-2.8,3.8c0,2.3,1.1,3.7,2.8,3.7S620.4,102.4,620.4,100.1z"/>
						<path class="st2" d="M624.7,95.2h1.4l0.1,1.4h0.1c0.9-0.9,1.9-1.7,3.3-1.7c2.1,0,3,1.3,3,3.8v6.2h-1.6v-6
							c0-1.8-0.6-2.6-1.9-2.6c-1,0-1.7,0.5-2.7,1.5v7.1h-1.6V95.2z"/>
						<path class="st2" d="M639.4,92.1c0-0.7,0.5-1.1,1.1-1.1s1.1,0.4,1.1,1.1c0,0.6-0.5,1.1-1.1,1.1S639.4,92.8,639.4,92.1z
							 M639.7,95.2h1.6v9.8h-1.6V95.2z"/>
						<path class="st2" d="M644.7,95.2h1.4l0.1,1.4h0.1c0.9-0.9,1.9-1.7,3.3-1.7c2.1,0,3,1.3,3,3.8v6.2h-1.6v-6
							c0-1.8-0.6-2.6-1.9-2.6c-1,0-1.7,0.5-2.7,1.5v7.1h-1.6V95.2z"/>
						<path class="st2" d="M658.9,103.3l1-1.1c1,1,2.3,1.6,3.7,1.6c1.7,0,2.8-0.9,2.8-2.2c0-1.4-1-1.8-2.2-2.3l-1.9-0.8
							c-1.2-0.5-2.7-1.5-2.7-3.4c0-2,1.8-3.5,4.2-3.5c1.6,0,3,0.7,3.9,1.6l-0.9,1.1c-0.8-0.8-1.8-1.2-3-1.2c-1.5,0-2.5,0.8-2.5,1.9
							c0,1.3,1.2,1.8,2.2,2.2l1.9,0.8c1.5,0.7,2.7,1.6,2.7,3.5c0,2.1-1.7,3.7-4.5,3.7C661.7,105.2,660.1,104.5,658.9,103.3z"/>
						<path class="st2" d="M669.8,98.4c0-4.3,2.5-6.9,5.9-6.9c1.6,0,2.9,0.8,3.6,1.6l-0.9,1.1c-0.7-0.7-1.6-1.3-2.7-1.3
							c-2.5,0-4.2,2.1-4.2,5.3c0,3.3,1.6,5.4,4.1,5.4c1.3,0,2.2-0.6,3.1-1.5l0.9,1c-1,1.2-2.3,1.9-4.1,1.9
							C672.3,105.2,669.8,102.7,669.8,98.4z"/>
						<path class="st2" d="M682.1,91.8h1.7V105h-1.7V91.8z"/>
						<path class="st2" d="M688.8,109.1l0.3-1.3c0.3,0.1,0.6,0.2,0.9,0.2c1,0,1.2-0.7,1.2-1.9V95.2h1.6v10.9c0,2-0.7,3.3-2.7,3.3
							C689.6,109.4,689.1,109.2,688.8,109.1z M691,92.1c0-0.7,0.5-1.1,1.1-1.1c0.6,0,1.1,0.4,1.1,1.1c0,0.6-0.5,1.1-1.1,1.1
							C691.4,93.2,691,92.8,691,92.1z"/>
						<path class="st2" d="M695.5,100.1c0-3.3,2.1-5.1,4.5-5.1c2.4,0,4.5,1.9,4.5,5.1c0,3.2-2.1,5.1-4.5,5.1
							C697.6,105.2,695.5,103.4,695.5,100.1z M702.8,100.1c0-2.2-1.2-3.8-2.8-3.8c-1.7,0-2.8,1.5-2.8,3.8c0,2.3,1.1,3.7,2.8,3.7
							C701.7,103.9,702.8,102.4,702.8,100.1z"/>
						<path class="st2" d="M707,101.4v-6.2h1.6v6c0,1.8,0.5,2.6,1.8,2.6c1,0,1.7-0.5,2.6-1.7v-6.9h1.6v9.8h-1.4l-0.1-1.5h-0.1
							c-0.9,1.1-1.9,1.8-3.2,1.8C707.9,105.2,707,103.9,707,101.4z"/>
						<path class="st2" d="M718,95.2h1.3l0.1,1.8h0.1c0.7-1.2,1.7-2,2.8-2c0.4,0,0.7,0.1,1,0.2l-0.3,1.4c-0.3-0.1-0.6-0.2-1-0.2
							c-0.8,0-1.8,0.6-2.5,2.2v6.3H718V95.2z"/>
						<path class="st2" d="M725,95.2h1.4l0.1,1.4h0.1c0.9-0.9,1.9-1.7,3.3-1.7c2.1,0,3,1.3,3,3.8v6.2h-1.6v-6c0-1.8-0.6-2.6-1.9-2.6
							c-1,0-1.7,0.5-2.7,1.5v7.1H725V95.2z"/>
						<path class="st2" d="M735.4,102.5c0-2.1,1.9-3.2,6-3.7c0-1.3-0.4-2.5-2-2.5c-1.1,0-2.2,0.5-2.9,1l-0.6-1.1
							c0.9-0.6,2.3-1.3,3.9-1.3c2.4,0,3.4,1.6,3.4,4v6h-1.3l-0.1-1.2h-0.1c-0.9,0.8-2,1.4-3.2,1.4
							C736.6,105.2,735.4,104.2,735.4,102.5z M741.4,102.6v-2.7c-3.3,0.4-4.4,1.2-4.4,2.5c0,1.1,0.8,1.6,1.7,1.6
							C739.7,103.9,740.5,103.5,741.4,102.6z"/>
						<path class="st2" d="M746.2,103.1V90.7h1.6v12.5c0,0.5,0.2,0.7,0.5,0.7c0.1,0,0.2,0,0.3,0l0.2,1.3c-0.2,0.1-0.5,0.1-1,0.1
							C746.7,105.2,746.2,104.4,746.2,103.1z"/>
						<path class="st2" d="M750.2,103.9l0.8-1.1c0.8,0.7,1.7,1.2,2.9,1.2c1.3,0,1.9-0.7,1.9-1.5c0-1-1.2-1.4-2.2-1.9
							c-1.4-0.5-2.9-1.2-2.9-2.8c0-1.5,1.2-2.8,3.4-2.8c1.2,0,2.3,0.5,3,1.1l-0.8,1.1c-0.7-0.5-1.4-0.9-2.3-0.9
							c-1.2,0-1.8,0.6-1.8,1.4c0,0.9,1.1,1.3,2.2,1.7c1.4,0.5,3,1.1,3,3c0,1.6-1.3,2.9-3.6,2.9C752.5,105.2,751.1,104.7,750.2,103.9
							z"/>
					</g>
					<text transform="matrix(1 0 0 1 757.7037 105)" class="st2 st3 st4"> </text>
					<g class="st1">
						<path class="st2" d="M227.8,134.3h4.6v1.3h-4.6V134.3z"/>
						<path class="st2" d="M238.1,138.3l1-1.1c1,1,2.3,1.6,3.7,1.6c1.7,0,2.8-0.9,2.8-2.2c0-1.4-1-1.8-2.2-2.3l-1.9-0.8
							c-1.2-0.5-2.7-1.5-2.7-3.4c0-2,1.8-3.5,4.2-3.5c1.6,0,3,0.7,3.9,1.6l-0.9,1.1c-0.8-0.8-1.8-1.2-3-1.2c-1.5,0-2.5,0.8-2.5,1.9
							c0,1.3,1.2,1.8,2.2,2.2l1.9,0.8c1.5,0.7,2.7,1.6,2.7,3.5c0,2.1-1.7,3.7-4.5,3.7C240.9,140.2,239.3,139.5,238.1,138.3z"/>
						<path class="st2" d="M249.5,137v-5.4H248v-1.2l1.5-0.1l0.2-2.7h1.4v2.7h2.6v1.3h-2.6v5.5c0,1.2,0.4,1.9,1.5,1.9
							c0.3,0,0.8-0.1,1.1-0.3l0.3,1.2c-0.6,0.2-1.2,0.4-1.8,0.4C250.2,140.2,249.5,138.9,249.5,137z"/>
						<path class="st2" d="M256,130.2h1.4l0.1,1.8h0.1c0.7-1.2,1.7-2,2.8-2c0.4,0,0.7,0.1,1,0.2l-0.3,1.4c-0.3-0.1-0.6-0.2-1-0.2
							c-0.8,0-1.8,0.6-2.5,2.2v6.3H256V130.2z"/>
						<path class="st2" d="M262.7,127.1c0-0.7,0.5-1.1,1.1-1.1c0.6,0,1.1,0.4,1.1,1.1c0,0.6-0.5,1.1-1.1,1.1
							C263.1,128.2,262.7,127.8,262.7,127.1z M263,130.2h1.6v9.8H263V130.2z"/>
						<path class="st2" d="M267.2,135.1c0-3.3,2.2-5.1,4.7-5.1c1.3,0,2.2,0.5,2.9,1.2l-0.8,1.1c-0.6-0.5-1.2-0.9-2-0.9
							c-1.8,0-3.1,1.5-3.1,3.8c0,2.3,1.2,3.7,3,3.7c0.9,0,1.7-0.4,2.3-1l0.7,1.1c-0.9,0.8-2,1.2-3.2,1.2
							C269.2,140.2,267.2,138.4,267.2,135.1z"/>
						<path class="st2" d="M277.2,137v-5.4h-1.5v-1.2l1.5-0.1l0.2-2.7h1.4v2.7h2.6v1.3h-2.6v5.5c0,1.2,0.4,1.9,1.5,1.9
							c0.3,0,0.8-0.1,1.1-0.3l0.3,1.2c-0.6,0.2-1.2,0.4-1.8,0.4C277.9,140.2,277.2,138.9,277.2,137z"/>
						<path class="st2" d="M283.7,138.1v-12.4h1.6v12.5c0,0.5,0.2,0.7,0.5,0.7c0.1,0,0.2,0,0.3,0l0.2,1.3c-0.2,0.1-0.5,0.1-1,0.1
							C284.2,140.2,283.7,139.4,283.7,138.1z"/>
						<path class="st2" d="M287.8,144l0.3-1.3c0.2,0.1,0.5,0.2,0.7,0.2c1.1,0,1.8-0.9,2.2-2.1l0.2-0.7l-3.9-9.8h1.7l2,5.4
							c0.3,0.8,0.6,1.9,0.9,2.7h0.1c0.3-0.9,0.6-1.9,0.8-2.7l1.7-5.4h1.6l-3.7,10.6c-0.7,1.9-1.7,3.4-3.6,3.4
							C288.5,144.2,288.1,144.1,287.8,144z"/>
						<path class="st2" d="M302.2,130.2h1.4l0.1,1.4h0.1c0.8-0.9,1.9-1.7,3-1.7c1.5,0,2.3,0.7,2.7,1.9c1-1.1,2-1.9,3.2-1.9
							c2,0,3,1.3,3,3.8v6.2h-1.6v-6c0-1.8-0.6-2.6-1.8-2.6c-0.8,0-1.5,0.5-2.5,1.5v7.1h-1.6v-6c0-1.8-0.6-2.6-1.8-2.6
							c-0.7,0-1.6,0.5-2.5,1.5v7.1h-1.6V130.2z"/>
						<path class="st2" d="M318.3,137.5c0-2.1,1.9-3.2,6-3.7c0-1.3-0.4-2.5-2-2.5c-1.1,0-2.2,0.5-2.9,1l-0.6-1.1
							c0.9-0.6,2.3-1.3,3.9-1.3c2.4,0,3.4,1.6,3.4,4v6h-1.4l-0.1-1.2h-0.1c-0.9,0.8-2,1.4-3.2,1.4
							C319.5,140.2,318.3,139.2,318.3,137.5z M324.3,137.6v-2.7c-3.3,0.4-4.4,1.2-4.4,2.5c0,1.1,0.8,1.6,1.7,1.6
							C322.5,138.9,323.3,138.5,324.3,137.6z"/>
						<path class="st2" d="M329,130.2h1.4l0.1,1.4h0.1c0.9-0.9,1.9-1.7,3.3-1.7c2.1,0,3,1.3,3,3.8v6.2h-1.6v-6
							c0-1.8-0.6-2.6-1.9-2.6c-1,0-1.7,0.5-2.7,1.5v7.1H329V130.2z"/>
						<path class="st2" d="M339.4,137.5c0-2.1,1.9-3.2,6-3.7c0-1.3-0.4-2.5-2-2.5c-1.1,0-2.2,0.5-2.9,1l-0.6-1.1
							c0.9-0.6,2.3-1.3,3.9-1.3c2.4,0,3.4,1.6,3.4,4v6h-1.4l-0.1-1.2h-0.1c-0.9,0.8-2,1.4-3.2,1.4
							C340.6,140.2,339.4,139.2,339.4,137.5z M345.4,137.6v-2.7c-3.3,0.4-4.4,1.2-4.4,2.5c0,1.1,0.8,1.6,1.7,1.6
							C343.7,138.9,344.5,138.5,345.4,137.6z"/>
						<path class="st2" d="M349.4,141.9c0-0.8,0.5-1.6,1.5-2.2v-0.1c-0.5-0.3-0.9-0.8-0.9-1.6c0-0.8,0.6-1.5,1.1-1.8v-0.1
							c-0.6-0.5-1.3-1.5-1.3-2.6c0-2.1,1.7-3.5,3.7-3.5c0.5,0,1,0.1,1.4,0.3h3.4v1.3h-2c0.5,0.5,0.8,1.2,0.8,2
							c0,2.1-1.6,3.4-3.6,3.4c-0.5,0-1-0.1-1.5-0.3c-0.4,0.3-0.6,0.6-0.6,1.2c0,0.6,0.4,1.1,1.7,1.1h1.9c2.3,0,3.4,0.7,3.4,2.3
							c0,1.8-1.9,3.4-4.9,3.4C351.1,144.5,349.4,143.6,349.4,141.9z M356.8,141.4c0-0.9-0.7-1.2-2-1.2h-1.7c-0.4,0-0.8-0.1-1.3-0.2
							c-0.7,0.5-1,1.1-1,1.7c0,1,1.1,1.7,2.8,1.7C355.6,143.4,356.8,142.4,356.8,141.4z M355.5,133.5c0-1.4-0.9-2.3-2.1-2.3
							s-2.1,0.8-2.1,2.3c0,1.4,1,2.3,2.1,2.3C354.6,135.8,355.5,134.9,355.5,133.5z"/>
						<path class="st2" d="M359.3,135.1c0-3.2,2.1-5.1,4.4-5.1c2.5,0,3.9,1.8,3.9,4.6c0,0.4,0,0.7-0.1,0.9h-6.6
							c0.1,2.1,1.4,3.4,3.2,3.4c1,0,1.7-0.3,2.4-0.8l0.6,1.1c-0.9,0.6-1.9,1-3.2,1C361.4,140.2,359.3,138.3,359.3,135.1z
							 M366.2,134.3c0-2-0.9-3-2.4-3c-1.4,0-2.6,1.1-2.8,3H366.2z"/>
						<path class="st2" d="M380.2,140.6l0.1-1.8c-0.8,0.8-1.8,1.4-3,1.4c-2.4,0-4-1.9-4-5.1c0-3.2,2-5.1,4.2-5.1
							c1.1,0,1.9,0.4,2.8,1.2h0.1l0.2-0.9h1.3v13.9h-1.6V140.6z M380.2,137.5v-5.1c-0.8-0.7-1.6-1-2.4-1c-1.6,0-2.8,1.5-2.8,3.7
							c0,2.4,1,3.8,2.7,3.8C378.6,138.9,379.4,138.4,380.2,137.5z"/>
						<path class="st2" d="M385.1,136.4v-6.2h1.6v6c0,1.8,0.5,2.6,1.8,2.6c1,0,1.7-0.5,2.6-1.7v-6.9h1.6v9.8h-1.4l-0.1-1.5h-0.1
							c-0.9,1.1-1.9,1.8-3.2,1.8C386,140.2,385.1,138.9,385.1,136.4z"/>
						<path class="st2" d="M395.5,137.5c0-2.1,1.9-3.2,6-3.7c0-1.3-0.4-2.5-2-2.5c-1.1,0-2.2,0.5-2.9,1l-0.6-1.1
							c0.9-0.6,2.3-1.3,3.9-1.3c2.4,0,3.4,1.6,3.4,4v6h-1.4l-0.1-1.2h-0.1c-0.9,0.8-2,1.4-3.2,1.4
							C396.7,140.2,395.5,139.2,395.5,137.5z M401.5,137.6v-2.7c-3.3,0.4-4.4,1.2-4.4,2.5c0,1.1,0.8,1.6,1.7,1.6
							C399.8,138.9,400.6,138.5,401.5,137.6z"/>
						<path class="st2" d="M406.3,138.1v-12.4h1.6v12.5c0,0.5,0.2,0.7,0.5,0.7c0.1,0,0.2,0,0.3,0l0.2,1.3c-0.2,0.1-0.5,0.1-1,0.1
							C406.8,140.2,406.3,139.4,406.3,138.1z"/>
						<path class="st2" d="M411.1,127.1c0-0.7,0.5-1.1,1.1-1.1c0.6,0,1.1,0.4,1.1,1.1c0,0.6-0.5,1.1-1.1,1.1
							C411.6,128.2,411.1,127.8,411.1,127.1z M411.4,130.2h1.6v9.8h-1.6V130.2z"/>
						<path class="st2" d="M416.6,137v-5.4h-1.5v-1.2l1.5-0.1l0.2-2.7h1.4v2.7h2.6v1.3h-2.6v5.5c0,1.2,0.4,1.9,1.5,1.9
							c0.3,0,0.8-0.1,1.1-0.3l0.3,1.2c-0.6,0.2-1.2,0.4-1.8,0.4C417.3,140.2,416.6,138.9,416.6,137z"/>
						<path class="st2" d="M422.2,144l0.3-1.3c0.2,0.1,0.5,0.2,0.7,0.2c1.1,0,1.8-0.9,2.2-2.1l0.2-0.7l-3.9-9.8h1.7l2,5.4
							c0.3,0.8,0.6,1.9,0.9,2.7h0.1c0.3-0.9,0.6-1.9,0.8-2.7l1.7-5.4h1.6l-3.7,10.6c-0.7,1.9-1.7,3.4-3.6,3.4
							C422.8,144.2,422.5,144.1,422.2,144z"/>
						<path class="st2" d="M435.5,138.9l0.8-1.1c0.8,0.7,1.7,1.2,2.9,1.2c1.3,0,1.9-0.7,1.9-1.5c0-1-1.2-1.4-2.2-1.9
							c-1.4-0.5-2.9-1.2-2.9-2.8c0-1.5,1.2-2.8,3.4-2.8c1.2,0,2.3,0.5,3,1.1l-0.8,1.1c-0.7-0.5-1.4-0.9-2.3-0.9
							c-1.2,0-1.8,0.6-1.8,1.4c0,0.9,1.1,1.3,2.2,1.7c1.4,0.5,3,1.1,3,3c0,1.6-1.3,2.9-3.6,2.9C437.7,140.2,436.4,139.7,435.5,138.9
							z"/>
						<path class="st2" d="M445,130.2h1.4l0.1,1.1h0.1c0.9-0.7,2-1.4,3.1-1.4c2.5,0,3.9,2,3.9,5c0,3.3-2,5.3-4.2,5.3
							c-0.9,0-1.8-0.4-2.7-1.1l0,1.7v3.3H445V130.2z M451.8,135c0-2.2-0.7-3.6-2.6-3.6c-0.8,0-1.7,0.5-2.6,1.4v5.1
							c0.9,0.8,1.7,1,2.4,1C450.6,138.9,451.8,137.4,451.8,135z"/>
						<path class="st2" d="M455.4,135.1c0-3.2,2.1-5.1,4.4-5.1c2.5,0,3.9,1.8,3.9,4.6c0,0.4,0,0.7-0.1,0.9H457
							c0.1,2.1,1.4,3.4,3.2,3.4c1,0,1.7-0.3,2.4-0.8l0.6,1.1c-0.9,0.6-1.9,1-3.2,1C457.5,140.2,455.4,138.3,455.4,135.1z
							 M462.3,134.3c0-2-0.9-3-2.4-3c-1.4,0-2.6,1.1-2.8,3H462.3z"/>
						<path class="st2" d="M465.4,135.1c0-3.3,2.2-5.1,4.7-5.1c1.3,0,2.2,0.5,2.9,1.2l-0.8,1.1c-0.6-0.5-1.2-0.9-2-0.9
							c-1.8,0-3.1,1.5-3.1,3.8c0,2.3,1.2,3.7,3,3.7c0.9,0,1.7-0.4,2.3-1l0.7,1.1c-0.9,0.8-2,1.2-3.2,1.2
							C467.4,140.2,465.4,138.4,465.4,135.1z"/>
						<path class="st2" d="M474.2,138.9l0.8-1.1c0.8,0.7,1.7,1.2,2.9,1.2c1.3,0,1.9-0.7,1.9-1.5c0-1-1.2-1.4-2.2-1.9
							c-1.4-0.5-2.9-1.2-2.9-2.8c0-1.5,1.2-2.8,3.4-2.8c1.2,0,2.3,0.5,3,1.1l-0.8,1.1c-0.7-0.5-1.4-0.9-2.3-0.9
							c-1.2,0-1.8,0.6-1.8,1.4c0,0.9,1.1,1.3,2.2,1.7c1.4,0.5,3,1.1,3,3c0,1.6-1.3,2.9-3.6,2.9C476.4,140.2,475.1,139.7,474.2,138.9
							z"/>
					</g>
					<text transform="matrix(1 0 0 1 482.0383 140)" class="st2 st3 st4"> </text>
					<g class="st1">
						<path class="st2" d="M227.8,169.3h4.6v1.3h-4.6V169.3z"/>
						<path class="st2" d="M239.1,161.8h3.3c4.1,0,6.2,2.4,6.2,6.6c0,4.2-2.2,6.6-6.2,6.6h-3.4V161.8z M242.2,173.6
							c3.1,0,4.6-1.9,4.6-5.3c0-3.3-1.5-5.2-4.6-5.2h-1.5v10.5H242.2z"/>
						<path class="st2" d="M250.6,170.1c0-3.2,2.1-5.1,4.4-5.1c2.5,0,3.9,1.8,3.9,4.6c0,0.4,0,0.7-0.1,0.9h-6.6
							c0.1,2.1,1.4,3.4,3.2,3.4c1,0,1.7-0.3,2.4-0.8l0.6,1.1c-0.9,0.6-1.9,1-3.2,1C252.7,175.2,250.6,173.3,250.6,170.1z
							 M257.4,169.3c0-2-0.9-3-2.4-3c-1.4,0-2.6,1.1-2.8,3H257.4z"/>
						<path class="st2" d="M259.9,165.2h1.7l1.8,5.6c0.3,1,0.6,2,0.9,2.9h0.1c0.3-0.9,0.6-1.9,0.9-2.9l1.9-5.6h1.6l-3.5,9.8h-1.9
							L259.9,165.2z"/>
						<path class="st2" d="M269.9,170.1c0-3.2,2.1-5.1,4.4-5.1c2.5,0,3.9,1.8,3.9,4.6c0,0.4,0,0.7-0.1,0.9h-6.6
							c0.1,2.1,1.4,3.4,3.2,3.4c1,0,1.7-0.3,2.4-0.8l0.6,1.1c-0.9,0.6-1.9,1-3.2,1C272,175.2,269.9,173.3,269.9,170.1z M276.8,169.3
							c0-2-0.9-3-2.4-3c-1.4,0-2.6,1.1-2.8,3H276.8z"/>
						<path class="st2" d="M280.6,173.1v-12.4h1.6v12.5c0,0.5,0.2,0.7,0.5,0.7c0.1,0,0.2,0,0.3,0l0.2,1.3c-0.2,0.1-0.5,0.1-1,0.1
							C281.1,175.2,280.6,174.4,280.6,173.1z"/>
						<path class="st2" d="M285,170.1c0-3.3,2.1-5.1,4.5-5.1s4.5,1.9,4.5,5.1c0,3.2-2.1,5.1-4.5,5.1S285,173.4,285,170.1z
							 M292.4,170.1c0-2.2-1.2-3.8-2.8-3.8s-2.8,1.5-2.8,3.8c0,2.3,1.1,3.7,2.8,3.7S292.4,172.4,292.4,170.1z"/>
						<path class="st2" d="M296.7,165.2h1.4l0.1,1.1h0.1c0.9-0.7,2-1.4,3.1-1.4c2.5,0,3.9,2,3.9,5c0,3.3-2,5.3-4.2,5.3
							c-0.9,0-1.8-0.4-2.7-1.1l0,1.7v3.3h-1.6V165.2z M303.5,170c0-2.2-0.7-3.6-2.6-3.6c-0.8,0-1.7,0.5-2.6,1.4v5.1
							c0.9,0.8,1.7,1,2.4,1C302.3,173.9,303.5,172.4,303.5,170z"/>
						<path class="st2" d="M311.2,170.1c0-3.2,2-5.1,4.2-5.1c1.2,0,1.9,0.4,2.8,1.2l-0.1-1.7v-3.8h1.6V175h-1.3l-0.2-1.2h0
							c-0.8,0.8-1.8,1.4-3,1.4C312.8,175.2,311.2,173.4,311.2,170.1z M318.1,172.5v-5.1c-0.8-0.7-1.6-1-2.4-1
							c-1.6,0-2.8,1.5-2.8,3.7c0,2.4,1,3.8,2.7,3.8C316.5,173.9,317.3,173.4,318.1,172.5z"/>
						<path class="st2" d="M322.7,162.1c0-0.7,0.5-1.1,1.1-1.1c0.6,0,1.1,0.4,1.1,1.1c0,0.6-0.5,1.1-1.1,1.1
							C323.2,163.2,322.7,162.8,322.7,162.1z M323,165.2h1.6v9.8H323V165.2z"/>
						<path class="st2" d="M327.2,170.1c0-3.2,2.1-5.1,4.4-5.1c2.5,0,3.9,1.8,3.9,4.6c0,0.4,0,0.7-0.1,0.9h-6.6
							c0.1,2.1,1.4,3.4,3.2,3.4c1,0,1.7-0.3,2.4-0.8l0.6,1.1c-0.9,0.6-1.9,1-3.2,1C329.3,175.2,327.2,173.3,327.2,170.1z
							 M334.1,169.3c0-2-0.9-3-2.4-3c-1.4,0-2.6,1.1-2.8,3H334.1z"/>
						<path class="st2" d="M338,172v-5.4h-1.5v-1.2l1.5-0.1l0.2-2.7h1.4v2.7h2.6v1.3h-2.6v5.5c0,1.2,0.4,1.9,1.5,1.9
							c0.3,0,0.8-0.1,1.1-0.3l0.3,1.2c-0.6,0.2-1.2,0.4-1.8,0.4C338.7,175.2,338,173.9,338,172z"/>
						<path class="st2" d="M343.5,172.5c0-2.1,1.9-3.2,6-3.7c0-1.3-0.4-2.5-2-2.5c-1.1,0-2.2,0.5-2.9,1l-0.6-1.1
							c0.9-0.6,2.3-1.3,3.9-1.3c2.4,0,3.4,1.6,3.4,4v6h-1.4l-0.1-1.2h-0.1c-0.9,0.8-2,1.4-3.2,1.4
							C344.7,175.2,343.5,174.2,343.5,172.5z M349.5,172.6v-2.7c-3.3,0.4-4.4,1.2-4.4,2.5c0,1.1,0.8,1.6,1.7,1.6
							C347.8,173.9,348.6,173.5,349.5,172.6z"/>
						<path class="st2" d="M354.3,165.2h1.4l0.1,1.8h0.1c0.7-1.2,1.7-2,2.8-2c0.4,0,0.7,0.1,1,0.2l-0.3,1.4c-0.3-0.1-0.6-0.2-1-0.2
							c-0.8,0-1.8,0.6-2.5,2.2v6.3h-1.6V165.2z"/>
						<path class="st2" d="M360.8,179l0.3-1.3c0.2,0.1,0.5,0.2,0.7,0.2c1.1,0,1.8-0.9,2.2-2.1l0.2-0.7l-3.9-9.8h1.7l2,5.4
							c0.3,0.8,0.6,1.9,0.9,2.7h0.1c0.3-0.9,0.6-1.9,0.8-2.7l1.7-5.4h1.6l-3.7,10.6c-0.7,1.9-1.7,3.4-3.6,3.4
							C361.5,179.2,361.1,179.1,360.8,179z"/>
						<path class="st2" d="M374.9,162.1c0-0.7,0.5-1.1,1.1-1.1c0.6,0,1.1,0.4,1.1,1.1c0,0.6-0.5,1.1-1.1,1.1
							C375.4,163.2,374.9,162.8,374.9,162.1z M375.2,165.2h1.6v9.8h-1.6V165.2z"/>
						<path class="st2" d="M380.1,165.2h1.4l0.1,1.4h0.1c0.9-0.9,1.9-1.7,3.3-1.7c2.1,0,3,1.3,3,3.8v6.2h-1.6v-6
							c0-1.8-0.6-2.6-1.9-2.6c-1,0-1.7,0.5-2.7,1.5v7.1h-1.6V165.2z"/>
						<path class="st2" d="M390.4,176.9c0-0.8,0.5-1.6,1.5-2.2v-0.1c-0.5-0.3-0.9-0.8-0.9-1.6c0-0.8,0.6-1.5,1.1-1.8v-0.1
							c-0.6-0.5-1.3-1.5-1.3-2.6c0-2.1,1.7-3.5,3.7-3.5c0.5,0,1,0.1,1.4,0.3h3.4v1.3h-2c0.5,0.5,0.8,1.2,0.8,2
							c0,2.1-1.6,3.4-3.6,3.4c-0.5,0-1-0.1-1.5-0.3c-0.4,0.3-0.6,0.6-0.6,1.2c0,0.6,0.4,1.1,1.7,1.1h1.9c2.3,0,3.4,0.7,3.4,2.3
							c0,1.8-1.9,3.4-4.9,3.4C392,179.5,390.4,178.6,390.4,176.9z M397.8,176.4c0-0.9-0.7-1.2-2-1.2h-1.7c-0.4,0-0.8-0.1-1.3-0.2
							c-0.7,0.5-1,1.1-1,1.7c0,1,1.1,1.7,2.8,1.7C396.5,178.4,397.8,177.4,397.8,176.4z M396.5,168.5c0-1.4-0.9-2.3-2.1-2.3
							s-2.1,0.8-2.1,2.3c0,1.4,1,2.3,2.1,2.3C395.5,170.8,396.5,169.9,396.5,168.5z"/>
						<path class="st2" d="M401.3,165.2h1.4l0.1,1.8h0.1c0.7-1.2,1.7-2,2.8-2c0.4,0,0.7,0.1,1,0.2l-0.3,1.4c-0.3-0.1-0.6-0.2-1-0.2
							c-0.8,0-1.8,0.6-2.5,2.2v6.3h-1.6V165.2z"/>
						<path class="st2" d="M407.3,170.1c0-3.2,2.1-5.1,4.4-5.1c2.5,0,3.9,1.8,3.9,4.6c0,0.4,0,0.7-0.1,0.9h-6.6
							c0.1,2.1,1.4,3.4,3.2,3.4c1,0,1.7-0.3,2.4-0.8l0.6,1.1c-0.9,0.6-1.9,1-3.2,1C409.4,175.2,407.3,173.3,407.3,170.1z
							 M414.2,169.3c0-2-0.9-3-2.4-3c-1.4,0-2.6,1.1-2.8,3H414.2z"/>
						<path class="st2" d="M417.3,170.1c0-3.2,2-5.1,4.2-5.1c1.2,0,1.9,0.4,2.8,1.2l-0.1-1.7v-3.8h1.6V175h-1.3l-0.2-1.2h0
							c-0.8,0.8-1.8,1.4-3,1.4C418.9,175.2,417.3,173.4,417.3,170.1z M424.2,172.5v-5.1c-0.8-0.7-1.6-1-2.4-1
							c-1.6,0-2.8,1.5-2.8,3.7c0,2.4,1,3.8,2.7,3.8C422.6,173.9,423.4,173.4,424.2,172.5z"/>
						<path class="st2" d="M428.9,162.1c0-0.7,0.5-1.1,1.1-1.1c0.6,0,1.1,0.4,1.1,1.1c0,0.6-0.5,1.1-1.1,1.1
							C429.4,163.2,428.9,162.8,428.9,162.1z M429.2,165.2h1.6v9.8h-1.6V165.2z"/>
						<path class="st2" d="M433.4,170.1c0-3.2,2.1-5.1,4.4-5.1c2.5,0,3.9,1.8,3.9,4.6c0,0.4,0,0.7-0.1,0.9H435
							c0.1,2.1,1.4,3.4,3.2,3.4c1,0,1.7-0.3,2.4-0.8l0.6,1.1c-0.9,0.6-1.9,1-3.2,1C435.5,175.2,433.4,173.3,433.4,170.1z
							 M440.2,169.3c0-2-0.9-3-2.4-3c-1.4,0-2.6,1.1-2.8,3H440.2z"/>
						<path class="st2" d="M444.1,165.2h1.4l0.1,1.4h0.1c0.9-0.9,1.9-1.7,3.3-1.7c2.1,0,3,1.3,3,3.8v6.2h-1.6v-6
							c0-1.8-0.6-2.6-1.9-2.6c-1,0-1.7,0.5-2.7,1.5v7.1h-1.6V165.2z"/>
						<path class="st2" d="M455.4,172v-5.4h-1.5v-1.2l1.5-0.1l0.2-2.7h1.4v2.7h2.6v1.3H457v5.5c0,1.2,0.4,1.9,1.5,1.9
							c0.3,0,0.8-0.1,1.1-0.3l0.3,1.2c-0.6,0.2-1.2,0.4-1.8,0.4C456.1,175.2,455.4,173.9,455.4,172z"/>
						<path class="st2" d="M460.6,173.9l0.8-1.1c0.8,0.7,1.7,1.2,2.9,1.2c1.3,0,1.9-0.7,1.9-1.5c0-1-1.2-1.4-2.2-1.9
							c-1.4-0.5-2.9-1.2-2.9-2.8c0-1.5,1.2-2.8,3.4-2.8c1.2,0,2.3,0.5,3,1.1l-0.8,1.1c-0.7-0.5-1.4-0.9-2.3-0.9
							c-1.2,0-1.8,0.6-1.8,1.4c0,0.9,1.1,1.3,2.2,1.7c1.4,0.5,3,1.1,3,3c0,1.6-1.3,2.9-3.6,2.9C462.9,175.2,461.5,174.7,460.6,173.9
							z"/>
						<path class="st2" d="M478.5,162c-0.4-0.2-0.8-0.3-1.1-0.3c-0.9,0-1.4,0.7-1.4,1.9v1.5h2.1v1.3H476v8.4h-1.6v-8.4h-1.3v-1.2
							l1.3-0.1v-1.6c0-2,0.9-3.2,2.8-3.2c0.6,0,1.2,0.1,1.6,0.3L478.5,162z"/>
						<path class="st2" d="M479.1,170.1c0-3.3,2.1-5.1,4.5-5.1c2.4,0,4.5,1.9,4.5,5.1c0,3.2-2.1,5.1-4.5,5.1
							C481.2,175.2,479.1,173.4,479.1,170.1z M486.4,170.1c0-2.2-1.2-3.8-2.8-3.8s-2.8,1.5-2.8,3.8c0,2.3,1.1,3.7,2.8,3.7
							S486.4,172.4,486.4,170.1z"/>
						<path class="st2" d="M490.7,165.2h1.4l0.1,1.8h0.1c0.7-1.2,1.7-2,2.8-2c0.4,0,0.7,0.1,1,0.2l-0.3,1.4c-0.3-0.1-0.6-0.2-1-0.2
							c-0.8,0-1.8,0.6-2.5,2.2v6.3h-1.6V165.2z"/>
						<path class="st2" d="M503.2,174L503.2,174l-0.2,1h-1.3v-14.3h1.6v3.9l-0.1,1.8c0.9-0.8,2-1.4,3.1-1.4c2.5,0,3.9,2,3.9,5
							c0,3.4-2,5.3-4.2,5.3C505.1,175.2,504.1,174.8,503.2,174z M508.6,170c0-2.2-0.7-3.6-2.6-3.6c-0.8,0-1.7,0.5-2.6,1.4v5.1
							c0.9,0.8,1.7,1,2.4,1C507.4,173.9,508.6,172.4,508.6,170z"/>
						<path class="st2" d="M512.8,165.2h1.4l0.1,1.8h0.1c0.7-1.2,1.7-2,2.8-2c0.4,0,0.7,0.1,1,0.2l-0.3,1.4c-0.3-0.1-0.6-0.2-1-0.2
							c-0.8,0-1.8,0.6-2.5,2.2v6.3h-1.6V165.2z"/>
						<path class="st2" d="M518.7,172.5c0-2.1,1.9-3.2,6-3.7c0-1.3-0.4-2.5-2-2.5c-1.1,0-2.2,0.5-2.9,1l-0.6-1.1
							c0.9-0.6,2.3-1.3,3.9-1.3c2.4,0,3.4,1.6,3.4,4v6H525l-0.1-1.2h-0.1c-0.9,0.8-2,1.4-3.2,1.4
							C519.9,175.2,518.7,174.2,518.7,172.5z M524.7,172.6v-2.7c-3.3,0.4-4.4,1.2-4.4,2.5c0,1.1,0.8,1.6,1.7,1.6
							C523,173.9,523.8,173.5,524.7,172.6z"/>
						<path class="st2" d="M529.2,162.1c0-0.7,0.5-1.1,1.1-1.1s1.1,0.4,1.1,1.1c0,0.6-0.5,1.1-1.1,1.1S529.2,162.8,529.2,162.1z
							 M529.5,165.2h1.6v9.8h-1.6V165.2z"/>
						<path class="st2" d="M534.4,165.2h1.4l0.1,1.4h0.1c0.9-0.9,1.9-1.7,3.3-1.7c2.1,0,3,1.3,3,3.8v6.2h-1.6v-6
							c0-1.8-0.6-2.6-1.9-2.6c-1,0-1.7,0.5-2.7,1.5v7.1h-1.6V165.2z"/>
						<path class="st2" d="M553.9,162c-0.4-0.2-0.8-0.3-1.1-0.3c-0.9,0-1.4,0.7-1.4,1.9v1.5h2.1v1.3h-2.1v8.4h-1.6v-8.4h-1.3v-1.2
							l1.3-0.1v-1.6c0-2,0.9-3.2,2.8-3.2c0.6,0,1.2,0.1,1.6,0.3L553.9,162z"/>
						<path class="st2" d="M555.2,171.4v-6.2h1.6v6c0,1.8,0.5,2.6,1.8,2.6c1,0,1.7-0.5,2.6-1.7v-6.9h1.6v9.8h-1.4l-0.1-1.5h-0.1
							c-0.9,1.1-1.9,1.8-3.2,1.8C556.1,175.2,555.2,173.9,555.2,171.4z"/>
						<path class="st2" d="M566.2,165.2h1.3l0.1,1.4h0.1c0.9-0.9,1.9-1.7,3.3-1.7c2.1,0,3,1.3,3,3.8v6.2h-1.6v-6
							c0-1.8-0.6-2.6-1.9-2.6c-1,0-1.7,0.5-2.7,1.5v7.1h-1.6V165.2z"/>
						<path class="st2" d="M576.5,170.1c0-3.3,2.2-5.1,4.7-5.1c1.3,0,2.2,0.5,2.9,1.2l-0.8,1.1c-0.6-0.5-1.2-0.9-2-0.9
							c-1.8,0-3.1,1.5-3.1,3.8c0,2.3,1.2,3.7,3,3.7c0.9,0,1.7-0.4,2.3-1l0.7,1.1c-0.9,0.8-2,1.2-3.2,1.2
							C578.5,175.2,576.5,173.4,576.5,170.1z"/>
						<path class="st2" d="M586.5,172v-5.4H585v-1.2l1.5-0.1l0.2-2.7h1.4v2.7h2.6v1.3h-2.6v5.5c0,1.2,0.4,1.9,1.5,1.9
							c0.3,0,0.8-0.1,1.1-0.3l0.3,1.2c-0.6,0.2-1.2,0.4-1.8,0.4C587.2,175.2,586.5,173.9,586.5,172z"/>
						<path class="st2" d="M592.7,162.1c0-0.7,0.5-1.1,1.1-1.1s1.1,0.4,1.1,1.1c0,0.6-0.5,1.1-1.1,1.1S592.7,162.8,592.7,162.1z
							 M593,165.2h1.6v9.8H593V165.2z"/>
						<path class="st2" d="M597.2,170.1c0-3.3,2.1-5.1,4.5-5.1c2.4,0,4.5,1.9,4.5,5.1c0,3.2-2.1,5.1-4.5,5.1
							C599.3,175.2,597.2,173.4,597.2,170.1z M604.6,170.1c0-2.2-1.2-3.8-2.8-3.8c-1.7,0-2.8,1.5-2.8,3.8c0,2.3,1.1,3.7,2.8,3.7
							C603.4,173.9,604.6,172.4,604.6,170.1z"/>
						<path class="st2" d="M608.8,165.2h1.3l0.1,1.4h0.1c0.9-0.9,1.9-1.7,3.3-1.7c2.1,0,3,1.3,3,3.8v6.2H615v-6
							c0-1.8-0.6-2.6-1.9-2.6c-1,0-1.7,0.5-2.7,1.5v7.1h-1.6V165.2z"/>
						<path class="st2" d="M623.8,171.4v-6.2h1.6v6c0,1.8,0.5,2.6,1.8,2.6c1,0,1.7-0.5,2.6-1.7v-6.9h1.6v9.8h-1.4l-0.1-1.5H630
							c-0.9,1.1-1.9,1.8-3.2,1.8C624.7,175.2,623.8,173.9,623.8,171.4z"/>
						<path class="st2" d="M633.7,173.9l0.8-1.1c0.8,0.7,1.7,1.2,2.9,1.2c1.3,0,1.9-0.7,1.9-1.5c0-1-1.2-1.4-2.2-1.9
							c-1.4-0.5-2.9-1.2-2.9-2.8c0-1.5,1.2-2.8,3.4-2.8c1.2,0,2.3,0.5,3,1.1l-0.8,1.1c-0.7-0.5-1.4-0.9-2.3-0.9
							c-1.2,0-1.8,0.6-1.8,1.4c0,0.9,1.1,1.3,2.2,1.7c1.4,0.5,3,1.1,3,3c0,1.6-1.3,2.9-3.6,2.9C636,175.2,634.6,174.7,633.7,173.9z"
							/>
						<path class="st2" d="M642.9,162.1c0-0.7,0.5-1.1,1.1-1.1s1.1,0.4,1.1,1.1c0,0.6-0.5,1.1-1.1,1.1S642.9,162.8,642.9,162.1z
							 M643.2,165.2h1.6v9.8h-1.6V165.2z"/>
						<path class="st2" d="M648.2,165.2h1.4l0.1,1.4h0.1c0.9-0.9,1.9-1.7,3.3-1.7c2.1,0,3,1.3,3,3.8v6.2h-1.6v-6
							c0-1.8-0.6-2.6-1.9-2.6c-1,0-1.7,0.5-2.7,1.5v7.1h-1.6V165.2z"/>
						<path class="st2" d="M658.4,176.9c0-0.8,0.5-1.6,1.5-2.2v-0.1c-0.5-0.3-0.9-0.8-0.9-1.6c0-0.8,0.6-1.5,1.1-1.8v-0.1
							c-0.6-0.5-1.3-1.5-1.3-2.6c0-2.1,1.7-3.5,3.7-3.5c0.5,0,1,0.1,1.4,0.3h3.4v1.3h-2c0.5,0.5,0.8,1.2,0.8,2
							c0,2.1-1.6,3.4-3.6,3.4c-0.5,0-1-0.1-1.5-0.3c-0.4,0.3-0.6,0.6-0.6,1.2c0,0.6,0.4,1.1,1.7,1.1h1.9c2.3,0,3.4,0.7,3.4,2.3
							c0,1.8-1.9,3.4-4.9,3.4C660.1,179.5,658.4,178.6,658.4,176.9z M665.8,176.4c0-0.9-0.7-1.2-2-1.2h-1.7c-0.4,0-0.8-0.1-1.3-0.2
							c-0.7,0.5-1,1.1-1,1.7c0,1,1.1,1.7,2.8,1.7C664.6,178.4,665.8,177.4,665.8,176.4z M664.5,168.5c0-1.4-0.9-2.3-2.1-2.3
							s-2.1,0.8-2.1,2.3c0,1.4,1,2.3,2.1,2.3C663.6,170.8,664.5,169.9,664.5,168.5z"/>
						<path class="st2" d="M673.3,165.2h1.4l0.1,1.4h0.1c0.8-0.9,1.9-1.7,3-1.7c1.5,0,2.3,0.7,2.7,1.9c1-1.1,2-1.9,3.2-1.9
							c2,0,3,1.3,3,3.8v6.2h-1.6v-6c0-1.8-0.6-2.6-1.8-2.6c-0.8,0-1.5,0.5-2.5,1.5v7.1h-1.6v-6c0-1.8-0.6-2.6-1.8-2.6
							c-0.7,0-1.6,0.5-2.5,1.5v7.1h-1.6V165.2z"/>
						<path class="st2" d="M689.7,162.1c0-0.7,0.5-1.1,1.1-1.1c0.6,0,1.1,0.4,1.1,1.1c0,0.6-0.5,1.1-1.1,1.1
							C690.2,163.2,689.7,162.8,689.7,162.1z M690,165.2h1.6v9.8H690V165.2z"/>
						<path class="st2" d="M694.2,170.1c0-3.3,2.2-5.1,4.7-5.1c1.3,0,2.2,0.5,2.9,1.2l-0.8,1.1c-0.6-0.5-1.2-0.9-2-0.9
							c-1.8,0-3.1,1.5-3.1,3.8c0,2.3,1.2,3.7,3,3.7c0.9,0,1.7-0.4,2.3-1l0.7,1.1c-0.9,0.8-2,1.2-3.2,1.2
							C696.2,175.2,694.2,173.4,694.2,170.1z"/>
						<path class="st2" d="M704.1,165.2h1.4l0.1,1.8h0.1c0.7-1.2,1.7-2,2.8-2c0.4,0,0.7,0.1,1,0.2l-0.3,1.4c-0.3-0.1-0.6-0.2-1-0.2
							c-0.8,0-1.8,0.6-2.5,2.2v6.3h-1.6V165.2z"/>
						<path class="st2" d="M710.2,170.1c0-3.3,2.1-5.1,4.5-5.1s4.5,1.9,4.5,5.1c0,3.2-2.1,5.1-4.5,5.1S710.2,173.4,710.2,170.1z
							 M717.5,170.1c0-2.2-1.2-3.8-2.8-3.8s-2.8,1.5-2.8,3.8c0,2.3,1.1,3.7,2.8,3.7S717.5,172.4,717.5,170.1z"/>
						<path class="st2" d="M723.3,174L723.3,174l-0.2,1h-1.3v-14.3h1.6v3.9l-0.1,1.8c0.9-0.8,2-1.4,3.1-1.4c2.5,0,3.9,2,3.9,5
							c0,3.4-2,5.3-4.2,5.3C725.2,175.2,724.2,174.8,723.3,174z M728.7,170c0-2.2-0.7-3.6-2.6-3.6c-0.8,0-1.7,0.5-2.6,1.4v5.1
							c0.9,0.8,1.7,1,2.4,1C727.5,173.9,728.7,172.4,728.7,170z"/>
						<path class="st2" d="M732.6,162.1c0-0.7,0.5-1.1,1.1-1.1s1.1,0.4,1.1,1.1c0,0.6-0.5,1.1-1.1,1.1S732.6,162.8,732.6,162.1z
							 M732.9,165.2h1.6v9.8h-1.6V165.2z"/>
						<path class="st2" d="M737.1,170.1c0-3.3,2.1-5.1,4.5-5.1s4.5,1.9,4.5,5.1c0,3.2-2.1,5.1-4.5,5.1S737.1,173.4,737.1,170.1z
							 M744.5,170.1c0-2.2-1.2-3.8-2.8-3.8s-2.8,1.5-2.8,3.8c0,2.3,1.1,3.7,2.8,3.7S744.5,172.4,744.5,170.1z"/>
						<path class="st2" d="M748.8,165.2h1.4l0.1,1.4h0.1c0.8-0.9,1.9-1.7,3-1.7c1.5,0,2.3,0.7,2.7,1.9c1-1.1,2-1.9,3.2-1.9
							c2,0,3,1.3,3,3.8v6.2h-1.6v-6c0-1.8-0.6-2.6-1.8-2.6c-0.8,0-1.5,0.5-2.5,1.5v7.1h-1.6v-6c0-1.8-0.6-2.6-1.8-2.6
							c-0.7,0-1.6,0.5-2.5,1.5v7.1h-1.6V165.2z"/>
						<path class="st2" d="M764.7,170.1c0-3.2,2.1-5.1,4.4-5.1c2.5,0,3.9,1.8,3.9,4.6c0,0.4,0,0.7-0.1,0.9h-6.6
							c0.1,2.1,1.4,3.4,3.2,3.4c1,0,1.7-0.3,2.4-0.8l0.6,1.1c-0.9,0.6-1.9,1-3.2,1C766.8,175.2,764.7,173.3,764.7,170.1z
							 M771.6,169.3c0-2-0.9-3-2.4-3c-1.4,0-2.6,1.1-2.8,3H771.6z"/>
					</g>
				</g>
				
					<g id="arrow" transform="translate(500.000000, 289.500000) rotate(-270.000000) translate(-500.000000, -289.500000) translate(449.500000, 279.500000)">
					<path id="Line" class="st5" d="M0.5,10h100"/>
					<polyline id="Stroke-1" class="st6" points="90,0 101,10 90,20 					"/>
					<polyline class="st6" points="11,20 0,10 11,0 					"/>
				</g>
				<g id="box3" transform="translate(0.000000, 354.500000)">
					<path class="st7" d="M9,1h982c4.4,0,8,3.6,8,8v132c0,4.4-3.6,8-8,8H9c-4.4,0-8-3.6-8-8V9C1,4.6,4.6,1,9,1z"/>
					<g class="st1">
						<path class="st8" d="M304.1,50.7c0-4.8,3-7.7,6.9-7.7c2.1,0,3.5,0.9,4.4,1.9l-1.3,1.5c-0.7-0.7-1.6-1.3-3-1.3
							c-2.7,0-4.6,2.1-4.6,5.6c0,3.5,1.6,5.6,4.7,5.6c0.9,0,1.8-0.3,2.3-0.7v-3.5h-2.9v-1.9h5v6.4c-1,1-2.6,1.7-4.7,1.7
							C307,58.3,304.1,55.5,304.1,50.7z"/>
						<path class="st8" d="M318.8,55.4V42.1h2.3v13.5c0,0.6,0.3,0.8,0.6,0.8c0.1,0,0.2,0,0.4,0l0.3,1.7c-0.3,0.1-0.7,0.2-1.2,0.2
							C319.4,58.3,318.8,57.2,318.8,55.4z"/>
						<path class="st8" d="M323.9,52.5c0-3.7,2.5-5.8,5.2-5.8c2.7,0,5.2,2.1,5.2,5.8c0,3.6-2.5,5.7-5.2,5.7
							C326.4,58.3,323.9,56.2,323.9,52.5z M331.9,52.5c0-2.3-1.1-3.9-2.8-3.9c-1.7,0-2.8,1.6-2.8,3.9c0,2.3,1.1,3.9,2.8,3.9
							C330.9,56.4,331.9,54.8,331.9,52.5z"/>
						<path class="st8" d="M339.1,56.9L339.1,56.9l-0.3,1.1H337V42.1h2.3v4.2l-0.1,1.9c0.9-0.8,2.1-1.4,3.3-1.4
							c2.8,0,4.4,2.2,4.4,5.6c0,3.8-2.3,5.9-4.7,5.9C341.1,58.3,340,57.8,339.1,56.9z M344.5,52.4c0-2.3-0.7-3.7-2.6-3.7
							c-0.9,0-1.7,0.4-2.6,1.3v5.4c0.8,0.7,1.7,1,2.4,1C343.3,56.4,344.5,54.9,344.5,52.4z"/>
						<path class="st8" d="M348.6,55.1c0-2.4,2-3.6,6.6-4.1c0-1.3-0.5-2.4-2.1-2.4c-1.2,0-2.2,0.5-3.2,1.1l-0.9-1.6
							c1.1-0.7,2.7-1.4,4.4-1.4c2.7,0,4,1.7,4,4.7V58h-1.9l-0.2-1.3h-0.1c-1,0.9-2.2,1.5-3.5,1.5C350,58.3,348.6,57,348.6,55.1z
							 M355.2,55.2v-2.7c-3.3,0.4-4.4,1.2-4.4,2.5c0,1.1,0.7,1.5,1.7,1.5C353.5,56.4,354.3,56,355.2,55.2z"/>
						<path class="st8" d="M360.8,55.4V42.1h2.3v13.5c0,0.6,0.3,0.8,0.6,0.8c0.1,0,0.2,0,0.4,0l0.3,1.7c-0.3,0.1-0.7,0.2-1.2,0.2
							C361.4,58.3,360.8,57.2,360.8,55.4z"/>
						<path class="st8" d="M370.8,42h1.6l-5.6,19.6h-1.6L370.8,42z"/>
						<path class="st8" d="M374.7,43.3h2.3v7h0.1l5.6-7h2.6l-4.6,5.7l5.3,9h-2.6l-4.2-7.2l-2.3,2.8V58h-2.3V43.3z"/>
						<path class="st8" d="M386.8,52.5c0-3.7,2.5-5.8,5.2-5.8c2.7,0,5.2,2.1,5.2,5.8c0,3.6-2.5,5.7-5.2,5.7
							C389.3,58.3,386.8,56.2,386.8,52.5z M394.8,52.5c0-2.3-1.1-3.9-2.8-3.9c-1.7,0-2.8,1.6-2.8,3.9c0,2.3,1.1,3.9,2.8,3.9
							C393.7,56.4,394.8,54.8,394.8,52.5z"/>
						<path class="st8" d="M399.9,47h1.9l0.2,2h0.1c0.8-1.4,1.9-2.3,3.1-2.3c0.5,0,0.9,0.1,1.2,0.2l-0.4,2c-0.4-0.1-0.7-0.2-1.1-0.2
							c-0.9,0-2,0.6-2.7,2.4V58h-2.3V47z"/>
						<path class="st8" d="M407,52.5c0-3.6,2.4-5.8,5-5.8c2.9,0,4.5,2.1,4.5,5.2c0,0.4,0,0.9-0.1,1.2h-7.1c0.2,2.1,1.5,3.4,3.4,3.4
							c1,0,1.8-0.3,2.6-0.8l0.8,1.5c-1,0.7-2.3,1.2-3.7,1.2C409.4,58.3,407,56.1,407,52.5z M414.6,51.5c0-1.9-0.9-3-2.5-3
							c-1.4,0-2.6,1.1-2.8,3H414.6z"/>
						<path class="st8" d="M418.2,55.1c0-2.4,2-3.6,6.6-4.1c0-1.3-0.5-2.4-2.1-2.4c-1.2,0-2.2,0.5-3.2,1.1l-0.9-1.6
							c1.1-0.7,2.7-1.4,4.4-1.4c2.7,0,4,1.7,4,4.7V58h-1.9l-0.2-1.3h-0.1c-1,0.9-2.2,1.5-3.5,1.5C419.5,58.3,418.2,57,418.2,55.1z
							 M424.8,55.2v-2.7c-3.3,0.4-4.4,1.2-4.4,2.5c0,1.1,0.7,1.5,1.7,1.5C423.1,56.4,423.9,56,424.8,55.2z"/>
						<path class="st8" d="M430.3,47h1.9l0.2,1.5h0.1c1-1,2.1-1.8,3.6-1.8c2.3,0,3.4,1.6,3.4,4.4V58h-2.3v-6.6
							c0-1.9-0.6-2.7-1.9-2.7c-1,0-1.7,0.5-2.7,1.5V58h-2.3V47z"/>
						<path class="st8" d="M447.3,47h1.9l0.2,1.5h0.1c0.9-1,2-1.8,3.4-1.8c1.6,0,2.6,0.8,3,2c1.1-1.2,2.2-2,3.6-2
							c2.3,0,3.4,1.6,3.4,4.4V58h-2.3v-6.6c0-1.9-0.6-2.7-1.8-2.7c-0.8,0-1.6,0.5-2.5,1.5V58h-2.3v-6.6c0-1.9-0.6-2.7-1.8-2.7
							c-0.7,0-1.6,0.5-2.5,1.5V58h-2.3V47z"/>
						<path class="st8" d="M465.5,55.1c0-2.4,2-3.6,6.6-4.1c0-1.3-0.5-2.4-2.1-2.4c-1.2,0-2.2,0.5-3.2,1.1l-0.9-1.6
							c1.1-0.7,2.7-1.4,4.4-1.4c2.7,0,4,1.7,4,4.7V58h-1.9l-0.2-1.3h-0.1c-1,0.9-2.2,1.5-3.5,1.5C466.8,58.3,465.5,57,465.5,55.1z
							 M472.1,55.2v-2.7c-3.3,0.4-4.4,1.2-4.4,2.5c0,1.1,0.7,1.5,1.7,1.5C470.4,56.4,471.2,56,472.1,55.2z"/>
						<path class="st8" d="M477.6,47h1.9l0.2,2h0.1c0.8-1.4,1.9-2.3,3.1-2.3c0.5,0,0.9,0.1,1.2,0.2l-0.4,2c-0.4-0.1-0.7-0.2-1.1-0.2
							c-0.9,0-2,0.6-2.7,2.4V58h-2.3V47z"/>
						<path class="st8" d="M485.8,42.1h2.2v10.3h0.1l4.3-5.3h2.5l-3.7,4.5l4.2,6.5h-2.5l-3-5l-1.9,2.1V58h-2.2V42.1z"/>
						<path class="st8" d="M496.1,52.5c0-3.6,2.4-5.8,5-5.8c2.9,0,4.5,2.1,4.5,5.2c0,0.4,0,0.9-0.1,1.2h-7.1
							c0.2,2.1,1.5,3.4,3.4,3.4c1,0,1.8-0.3,2.6-0.8l0.8,1.5c-1,0.7-2.3,1.2-3.7,1.2C498.4,58.3,496.1,56.1,496.1,52.5z M503.6,51.5
							c0-1.9-0.9-3-2.5-3c-1.4,0-2.6,1.1-2.8,3H503.6z"/>
						<path class="st8" d="M508.3,54.4v-5.6h-1.6v-1.7l1.7-0.1l0.3-3h1.9v3h2.9v1.8h-2.9v5.6c0,1.3,0.5,2,1.6,2
							c0.4,0,0.9-0.1,1.2-0.3l0.4,1.7c-0.6,0.2-1.4,0.4-2.2,0.4C509.1,58.3,508.3,56.7,508.3,54.4z"/>
						<path class="st8" d="M520.3,55.4V42.1h2.3v13.5c0,0.6,0.3,0.8,0.6,0.8c0.1,0,0.2,0,0.4,0l0.3,1.7c-0.3,0.1-0.7,0.2-1.2,0.2
							C521,58.3,520.3,57.2,520.3,55.4z"/>
						<path class="st8" d="M525.7,55.1c0-2.4,2-3.6,6.6-4.1c0-1.3-0.5-2.4-2.1-2.4c-1.2,0-2.2,0.5-3.2,1.1l-0.9-1.6
							c1.1-0.7,2.7-1.4,4.4-1.4c2.7,0,4,1.7,4,4.7V58h-1.9l-0.2-1.3h-0.1c-1,0.9-2.2,1.5-3.5,1.5C527,58.3,525.7,57,525.7,55.1z
							 M532.2,55.2v-2.7c-3.3,0.4-4.4,1.2-4.4,2.5c0,1.1,0.7,1.5,1.7,1.5C530.6,56.4,531.3,56,532.2,55.2z"/>
						<path class="st8" d="M537.7,53.9V47h2.3v6.6c0,1.9,0.5,2.6,1.8,2.6c1,0,1.7-0.5,2.6-1.6V47h2.3v11h-1.9l-0.2-1.7h-0.1
							c-1,1.2-2.1,1.9-3.6,1.9C538.7,58.3,537.7,56.7,537.7,53.9z"/>
						<path class="st8" d="M550.2,47h1.9l0.2,1.5h0.1c1-1,2.1-1.8,3.6-1.8c2.3,0,3.4,1.6,3.4,4.4V58H557v-6.6c0-1.9-0.6-2.7-1.9-2.7
							c-1,0-1.7,0.5-2.7,1.5V58h-2.3V47z"/>
						<path class="st8" d="M561.9,52.5c0-3.7,2.5-5.8,5.4-5.8c1.4,0,2.4,0.6,3.2,1.3l-1.1,1.5c-0.6-0.5-1.2-0.9-2-0.9
							c-1.8,0-3.2,1.6-3.2,3.9c0,2.3,1.3,3.9,3.1,3.9c0.9,0,1.7-0.4,2.4-1l0.9,1.5c-1,0.9-2.3,1.4-3.6,1.4
							C564.2,58.3,561.9,56.2,561.9,52.5z"/>
						<path class="st8" d="M573,42.1h2.3v4.2l-0.1,2.2c1-0.9,2.1-1.7,3.6-1.7c2.3,0,3.4,1.6,3.4,4.4V58h-2.3v-6.6
							c0-1.9-0.6-2.7-1.9-2.7c-1,0-1.7,0.5-2.7,1.5V58H573V42.1z"/>
						<path class="st8" d="M589.2,52.5c0-3.7,2.5-5.8,5.2-5.8c2.7,0,5.2,2.1,5.2,5.8c0,3.6-2.5,5.7-5.2,5.7
							C591.6,58.3,589.2,56.2,589.2,52.5z M597.2,52.5c0-2.3-1.1-3.9-2.8-3.9c-1.7,0-2.8,1.6-2.8,3.9c0,2.3,1.1,3.9,2.8,3.9
							C596.1,56.4,597.2,54.8,597.2,52.5z"/>
						<path class="st8" d="M607.5,43.9c-0.4-0.2-0.8-0.3-1.2-0.3c-1,0-1.5,0.6-1.5,2V47h2.2v1.8h-2.2V58h-2.3v-9.2H601v-1.7l1.5-0.1
							v-1.4c0-2.3,1-3.8,3.5-3.8c0.7,0,1.4,0.2,1.9,0.4L607.5,43.9z"/>
						<path class="st8" d="M613.6,47h1.9l0.2,1.2h0.1c1-0.8,2.2-1.5,3.4-1.5c2.8,0,4.4,2.2,4.4,5.6c0,3.8-2.3,5.9-4.7,5.9
							c-1,0-2-0.4-2.9-1.2l0.1,1.9v3.6h-2.3V47z M621,52.4c0-2.3-0.7-3.7-2.6-3.7c-0.9,0-1.7,0.4-2.6,1.3v5.4c0.9,0.7,1.7,1,2.4,1
							C619.8,56.4,621,54.9,621,52.4z"/>
						<path class="st8" d="M626.2,47h1.9l0.2,2h0.1c0.8-1.4,1.9-2.3,3.1-2.3c0.5,0,0.9,0.1,1.2,0.2l-0.4,2c-0.4-0.1-0.7-0.2-1.1-0.2
							c-0.9,0-2,0.6-2.7,2.4V58h-2.3V47z"/>
						<path class="st8" d="M633.3,52.5c0-3.7,2.5-5.8,5.2-5.8c2.7,0,5.2,2.1,5.2,5.8c0,3.6-2.5,5.7-5.2,5.7
							C635.8,58.3,633.3,56.2,633.3,52.5z M641.3,52.5c0-2.3-1.1-3.9-2.8-3.9c-1.7,0-2.8,1.6-2.8,3.9c0,2.3,1.1,3.9,2.8,3.9
							C640.3,56.4,641.3,54.8,641.3,52.5z"/>
						<path class="st8" d="M645.7,52.5c0-3.6,2.3-5.8,4.7-5.8c1.3,0,2.1,0.5,3,1.2l-0.1-1.8v-4.1h2.3V58h-1.9l-0.2-1.2h-0.1
							c-0.8,0.8-2,1.5-3.2,1.5C647.4,58.3,645.7,56.2,645.7,52.5z M653.2,55v-5.4c-0.8-0.7-1.6-1-2.4-1c-1.5,0-2.8,1.5-2.8,3.8
							c0,2.5,1,3.9,2.7,3.9C651.7,56.4,652.4,55.9,653.2,55z"/>
						<path class="st8" d="M658.9,53.9V47h2.3v6.6c0,1.9,0.5,2.6,1.8,2.6c1,0,1.7-0.5,2.6-1.6V47h2.3v11h-1.9l-0.2-1.7h-0.1
							c-1,1.2-2.1,1.9-3.6,1.9C659.9,58.3,658.9,56.7,658.9,53.9z"/>
						<path class="st8" d="M670.6,52.5c0-3.7,2.5-5.8,5.4-5.8c1.4,0,2.4,0.6,3.2,1.3l-1.1,1.5c-0.6-0.5-1.2-0.9-2-0.9
							c-1.8,0-3.2,1.6-3.2,3.9c0,2.3,1.3,3.9,3.1,3.9c0.9,0,1.7-0.4,2.4-1l0.9,1.5c-1,0.9-2.3,1.4-3.6,1.4
							C672.9,58.3,670.6,56.2,670.6,52.5z"/>
						<path class="st8" d="M681.9,54.4v-5.6h-1.6v-1.7L682,47l0.3-3h1.9v3h2.9v1.8h-2.9v5.6c0,1.3,0.5,2,1.6,2
							c0.4,0,0.9-0.1,1.2-0.3l0.4,1.7c-0.6,0.2-1.4,0.4-2.2,0.4C682.7,58.3,681.9,56.7,681.9,54.4z"/>
						<path class="st8" d="M688.1,56.7l1.1-1.5c1,0.8,1.9,1.3,3.1,1.3c1.3,0,1.9-0.6,1.9-1.5c0-1-1.2-1.4-2.4-1.9
							c-1.5-0.6-3.1-1.3-3.1-3.2c0-1.8,1.5-3.2,3.9-3.2c1.5,0,2.7,0.6,3.6,1.3l-1.1,1.4c-0.8-0.6-1.5-1-2.5-1
							c-1.2,0-1.8,0.6-1.8,1.4c0,0.9,1.1,1.3,2.3,1.7c1.5,0.6,3.2,1.3,3.2,3.3c0,1.8-1.5,3.3-4.2,3.3
							C690.7,58.3,689.1,57.6,688.1,56.7z"/>
					</g>
					<text transform="matrix(1 0 0 1 697.0771 58)" class="st8 st9 st10"> </text>
					<g class="st1">
						<path class="st8" d="M303.5,87h2.3l1.5,6c0.2,1.1,0.4,2.1,0.6,3.1h0.1c0.2-1,0.5-2.1,0.7-3.1l1.5-6h2.1l1.6,6
							c0.3,1.1,0.5,2.1,0.7,3.1h0.1c0.2-1,0.4-2.1,0.6-3.1l1.4-6h2.2l-2.8,11h-2.8l-1.4-5.4c-0.3-1-0.5-2-0.7-3.2h-0.1
							c-0.2,1.1-0.4,2.2-0.7,3.2l-1.3,5.4h-2.7L303.5,87z"/>
						<path class="st8" d="M321,83.6c0-0.8,0.6-1.4,1.5-1.4c0.8,0,1.5,0.5,1.5,1.4c0,0.8-0.6,1.4-1.5,1.4
							C321.6,84.9,321,84.4,321,83.6z M321.3,87h2.3v11h-2.3V87z"/>
						<path class="st8" d="M327.4,94.4v-5.6h-1.6v-1.7l1.7-0.1l0.3-3h1.9v3h2.9v1.8h-2.9v5.6c0,1.3,0.5,2,1.6,2
							c0.4,0,0.9-0.1,1.2-0.3l0.4,1.7c-0.6,0.2-1.4,0.4-2.2,0.4C328.3,98.3,327.4,96.7,327.4,94.4z"/>
						<path class="st8" d="M335,82.1h2.3v4.2l-0.1,2.2c1-0.9,2.1-1.7,3.6-1.7c2.3,0,3.4,1.6,3.4,4.4V98h-2.3v-6.6
							c0-1.9-0.6-2.7-1.9-2.7c-1,0-1.7,0.5-2.7,1.5V98H335V82.1z"/>
						<path class="st8" d="M351.9,87h1.9l0.2,1.5h0.1c1-1,2.1-1.8,3.6-1.8c2.3,0,3.4,1.6,3.4,4.4V98h-2.3v-6.6
							c0-1.9-0.6-2.7-1.9-2.7c-1,0-1.7,0.5-2.7,1.5V98h-2.3V87z"/>
						<path class="st8" d="M363.6,92.5c0-3.7,2.5-5.8,5.2-5.8c2.7,0,5.2,2.1,5.2,5.8c0,3.6-2.5,5.7-5.2,5.7
							C366,98.3,363.6,96.2,363.6,92.5z M371.6,92.5c0-2.3-1.1-3.9-2.8-3.9c-1.7,0-2.8,1.6-2.8,3.9c0,2.3,1.1,3.9,2.8,3.9
							C370.5,96.4,371.6,94.8,371.6,92.5z"/>
						<path class="st8" d="M375,87h2.4l1.9,5.9c0.3,1.1,0.6,2.2,1,3.3h0.1c0.3-1.1,0.7-2.2,1-3.3l1.9-5.9h2.2l-3.8,11h-2.7L375,87z"
							/>
						<path class="st8" d="M386.5,92.5c0-3.6,2.4-5.8,5-5.8c2.9,0,4.5,2.1,4.5,5.2c0,0.4,0,0.9-0.1,1.2h-7.1
							c0.2,2.1,1.5,3.4,3.4,3.4c1,0,1.8-0.3,2.6-0.8l0.8,1.5c-1,0.7-2.3,1.2-3.7,1.2C388.9,98.3,386.5,96.1,386.5,92.5z M394,91.5
							c0-1.9-0.9-3-2.5-3c-1.4,0-2.6,1.1-2.8,3H394z"/>
						<path class="st8" d="M398.6,95.4V82.1h2.3v13.5c0,0.6,0.3,0.8,0.6,0.8c0.1,0,0.2,0,0.4,0l0.3,1.7c-0.3,0.1-0.7,0.2-1.2,0.2
							C399.2,98.3,398.6,97.2,398.6,95.4z"/>
						<path class="st8" d="M409.1,82.1h2.3v4.2l-0.1,2.2c1-0.9,2.1-1.7,3.6-1.7c2.3,0,3.4,1.6,3.4,4.4V98h-2.3v-6.6
							c0-1.9-0.6-2.7-1.9-2.7c-1,0-1.7,0.5-2.7,1.5V98h-2.3V82.1z"/>
						<path class="st8" d="M420.7,92.5c0-3.6,2.4-5.8,5-5.8c2.9,0,4.5,2.1,4.5,5.2c0,0.4,0,0.9-0.1,1.2H423c0.2,2.1,1.5,3.4,3.4,3.4
							c1,0,1.8-0.3,2.6-0.8l0.8,1.5c-1,0.7-2.3,1.2-3.7,1.2C423.1,98.3,420.7,96.1,420.7,92.5z M428.2,91.5c0-1.9-0.9-3-2.5-3
							c-1.4,0-2.6,1.1-2.8,3H428.2z"/>
						<path class="st8" d="M431.8,95.1c0-2.4,2-3.6,6.6-4.1c0-1.3-0.5-2.4-2.1-2.4c-1.2,0-2.2,0.5-3.2,1.1l-0.9-1.6
							c1.1-0.7,2.7-1.4,4.4-1.4c2.7,0,4,1.7,4,4.7V98h-1.9l-0.2-1.3h-0.1c-1,0.9-2.2,1.5-3.5,1.5C433.2,98.3,431.8,97,431.8,95.1z
							 M438.4,95.2v-2.7c-3.3,0.4-4.4,1.2-4.4,2.5c0,1.1,0.7,1.5,1.7,1.5C436.7,96.4,437.5,96,438.4,95.2z"/>
						<path class="st8" d="M444,95.4V82.1h2.3v13.5c0,0.6,0.3,0.8,0.6,0.8c0.1,0,0.2,0,0.4,0l0.3,1.7c-0.3,0.1-0.7,0.2-1.2,0.2
							C444.6,98.3,444,97.2,444,95.4z"/>
						<path class="st8" d="M450.3,94.4v-5.6h-1.6v-1.7l1.7-0.1l0.3-3h1.9v3h2.9v1.8h-2.9v5.6c0,1.3,0.5,2,1.6,2
							c0.4,0,0.9-0.1,1.2-0.3l0.4,1.7c-0.6,0.2-1.4,0.4-2.2,0.4C451.2,98.3,450.3,96.7,450.3,94.4z"/>
						<path class="st8" d="M457.9,82.1h2.3v4.2l-0.1,2.2c1-0.9,2.1-1.7,3.6-1.7c2.3,0,3.4,1.6,3.4,4.4V98h-2.3v-6.6
							c0-1.9-0.6-2.7-1.9-2.7c-1,0-1.7,0.5-2.7,1.5V98h-2.3V82.1z"/>
						<path class="st8" d="M474,92.5c0-3.7,2.5-5.8,5.4-5.8c1.4,0,2.4,0.6,3.2,1.3l-1.1,1.5c-0.6-0.5-1.2-0.9-2-0.9
							c-1.8,0-3.2,1.6-3.2,3.9c0,2.3,1.3,3.9,3.1,3.9c0.9,0,1.7-0.4,2.4-1l0.9,1.5c-1,0.9-2.3,1.4-3.6,1.4
							C476.3,98.3,474,96.2,474,92.5z"/>
						<path class="st8" d="M485.1,95.4V82.1h2.3v13.5c0,0.6,0.3,0.8,0.6,0.8c0.1,0,0.2,0,0.4,0l0.3,1.7c-0.3,0.1-0.7,0.2-1.2,0.2
							C485.7,98.3,485.1,97.2,485.1,95.4z"/>
						<path class="st8" d="M490.4,95.1c0-2.4,2-3.6,6.6-4.1c0-1.3-0.5-2.4-2.1-2.4c-1.2,0-2.2,0.5-3.2,1.1l-0.9-1.6
							c1.1-0.7,2.7-1.4,4.4-1.4c2.7,0,4,1.7,4,4.7V98h-1.9l-0.2-1.3h-0.1c-1,0.9-2.2,1.5-3.5,1.5C491.8,98.3,490.4,97,490.4,95.1z
							 M497,95.2v-2.7c-3.3,0.4-4.4,1.2-4.4,2.5c0,1.1,0.7,1.5,1.7,1.5C495.3,96.4,496.1,96,497,95.2z"/>
						<path class="st8" d="M502.3,83.6c0-0.8,0.6-1.4,1.5-1.4s1.5,0.5,1.5,1.4c0,0.8-0.6,1.4-1.5,1.4S502.3,84.4,502.3,83.6z
							 M502.6,87h2.3v11h-2.3V87z"/>
						<path class="st8" d="M508.3,87h1.9l0.2,1.5h0.1c0.9-1,2-1.8,3.4-1.8c1.6,0,2.6,0.8,3,2c1.1-1.2,2.2-2,3.6-2
							c2.3,0,3.4,1.6,3.4,4.4V98h-2.3v-6.6c0-1.9-0.6-2.7-1.8-2.7c-0.8,0-1.6,0.5-2.5,1.5V98h-2.3v-6.6c0-1.9-0.6-2.7-1.8-2.7
							c-0.7,0-1.6,0.5-2.5,1.5V98h-2.3V87z"/>
						<path class="st8" d="M526,96.7l1.1-1.5c1,0.8,1.9,1.3,3.1,1.3c1.3,0,1.9-0.6,1.9-1.5c0-1-1.2-1.4-2.4-1.9
							c-1.5-0.6-3.1-1.3-3.1-3.2c0-1.8,1.5-3.2,3.9-3.2c1.5,0,2.7,0.6,3.6,1.3l-1.1,1.4c-0.8-0.6-1.5-1-2.5-1
							c-1.2,0-1.8,0.6-1.8,1.4c0,0.9,1.1,1.3,2.3,1.7c1.5,0.6,3.2,1.3,3.2,3.3c0,1.8-1.5,3.3-4.2,3.3
							C528.6,98.3,527.1,97.6,526,96.7z"/>
					</g>
				</g>
			</g>
		</g>
	</g>
</g>
</svg>
