<?xml version="1.0" encoding="utf-8"?>
<!-- Generator: Adobe Illustrator 23.0.1, SVG Export Plug-In . SVG Version: 6.00 Build 0)  -->
<svg version="1.1" id="Layer_1" xmlns="http://www.w3.org/2000/svg" xmlns:xlink="http://www.w3.org/1999/xlink" x="0px" y="0px"
	 viewBox="0 0 334 670" style="enable-background:new 0 0 334 670;" xml:space="preserve">
<style type="text/css">
	.st0{fill-rule:evenodd;clip-rule:evenodd;fill:#91AF1E;fill-opacity:0.8;stroke:#819A1E;stroke-width:2;}
	.st1{enable-background:new    ;}
	.st2{fill:#FFFFFF;}
	.st3{font-family:'NotoSansKR-Bold-KSCpc-EUC-H';}
	.st4{font-size:15px;}
	.st5{font-family:'NotoSansKR-Regular-KSCpc-EUC-H';}
	.st6{fill:none;stroke:#0E0E0E;stroke-width:2;stroke-linecap:square;}
	.st7{fill:none;stroke:#0E0E0E;stroke-width:2;stroke-linecap:round;stroke-linejoin:round;}
	.st8{fill:none;stroke:#B54142;stroke-width:2;}
	.st9{fill:#333333;}
	.st10{font-family:'NotoSansKR-Medium-KSCpc-EUC-H';}
</style>
<title>table2</title>
<desc>Created with Sketch.</desc>
<g id="Page-1">
	<g id="mobile1" transform="translate(-20.000000, -2802.000000)">
		<g id="table2" transform="translate(20.000000, 2802.000000)">
			<g id="box1">
				<path id="bg" class="st0" d="M9,1h316c4.4,0,8,3.6,8,8v361c0,4.4-3.6,8-8,8H9c-4.4,0-8-3.6-8-8V9C1,4.6,4.6,1,9,1z"/>
				<g class="st1">
					<path class="st2" d="M27.4,40.9h2.3l3.2,5.9l1.1,2.4H34c-0.1-1.2-0.3-2.6-0.3-3.9v-4.4h2.1V52h-2.2l-3.2-5.9l-1.1-2.4h-0.1
						c0.1,1.2,0.3,2.6,0.3,3.9V52h-2.1V40.9z"/>
					<path class="st2" d="M38,49.7c0-1.8,1.5-2.7,4.8-3.1c0-0.8-0.4-1.5-1.4-1.5c-0.8,0-1.5,0.3-2.3,0.8l-0.8-1.5
						c1-0.6,2.2-1.1,3.5-1.1c2.1,0,3.2,1.3,3.2,3.7V52h-1.8l-0.2-0.9h0c-0.7,0.6-1.6,1.1-2.5,1.1C39,52.2,38,51.1,38,49.7z
						 M42.8,49.7V48c-2,0.3-2.7,0.8-2.7,1.6c0,0.7,0.5,0.9,1.1,0.9C41.8,50.5,42.3,50.2,42.8,49.7z"/>
					<path class="st2" d="M47.3,49.1v-3.7h-1.2v-1.6l1.3-0.1l0.3-2.2h1.8v2.2h2.1v1.7h-2.1v3.7c0,1,0.4,1.4,1.1,1.4
						c0.3,0,0.6-0.1,0.8-0.2l0.4,1.6c-0.5,0.2-1,0.3-1.8,0.3C48.1,52.2,47.3,51,47.3,49.1z"/>
					<path class="st2" d="M53.2,48.9v-5.2h2.2v5c0,1.3,0.4,1.8,1.2,1.8c0.7,0,1.1-0.3,1.7-1v-5.7h2.2V52h-1.8l-0.2-1.2h-0.1
						c-0.7,0.9-1.5,1.4-2.7,1.4C54,52.2,53.2,51,53.2,48.9z"/>
					<path class="st2" d="M62.9,43.6h1.8l0.1,1.5h0.1c0.6-1.1,1.5-1.7,2.4-1.7c0.5,0,0.7,0.1,1,0.2l-0.4,1.9
						c-0.3-0.1-0.5-0.1-0.9-0.1c-0.7,0-1.5,0.4-1.9,1.7v5h-2.2V43.6z"/>
					<path class="st2" d="M68.5,49.7c0-1.8,1.5-2.7,4.8-3.1c0-0.8-0.4-1.5-1.4-1.5c-0.8,0-1.5,0.3-2.3,0.8l-0.8-1.5
						c1-0.6,2.2-1.1,3.5-1.1c2.1,0,3.2,1.3,3.2,3.7V52h-1.8l-0.2-0.9h0c-0.7,0.6-1.6,1.1-2.5,1.1C69.5,52.2,68.5,51.1,68.5,49.7z
						 M73.3,49.7V48c-2,0.3-2.7,0.8-2.7,1.6c0,0.7,0.5,0.9,1.1,0.9C72.3,50.5,72.8,50.2,73.3,49.7z"/>
					<path class="st2" d="M77.8,49.6V40H80v9.7c0,0.5,0.2,0.7,0.4,0.7c0.1,0,0.1,0,0.3,0L81,52c-0.3,0.1-0.6,0.2-1.1,0.2
						C78.3,52.2,77.8,51.2,77.8,49.6z"/>
					<path class="st2" d="M85.4,47.8c0-2.7,1.7-4.4,3.5-4.4c0.9,0,1.5,0.4,2.1,0.9L91,43v-3h2.2v12h-1.8l-0.2-0.9h0
						c-0.6,0.6-1.5,1.1-2.3,1.1C86.8,52.2,85.4,50.6,85.4,47.8z M91,49.5v-3.7c-0.5-0.5-1-0.6-1.6-0.6c-0.9,0-1.7,0.9-1.7,2.6
						c0,1.7,0.6,2.6,1.7,2.6C90,50.4,90.5,50.2,91,49.5z"/>
					<path class="st2" d="M95.4,41.1c0-0.7,0.6-1.2,1.3-1.2c0.8,0,1.3,0.5,1.3,1.2c0,0.7-0.6,1.2-1.3,1.2
						C95.9,42.2,95.4,41.7,95.4,41.1z M95.6,43.6h2.2V52h-2.2V43.6z"/>
					<path class="st2" d="M99.6,47.8c0-2.7,1.9-4.4,3.9-4.4c2.3,0,3.5,1.7,3.5,4c0,0.4,0,0.8-0.1,1h-5.2c0.2,1.4,1.1,2.1,2.3,2.1
						c0.7,0,1.3-0.2,1.9-0.6l0.8,1.4c-0.8,0.6-1.9,0.9-2.9,0.9C101.4,52.2,99.6,50.6,99.6,47.8z M105.2,47c0-1.1-0.5-1.9-1.6-1.9
						c-0.9,0-1.7,0.6-1.8,1.9H105.2z"/>
					<path class="st2" d="M109,49.1v-3.7h-1.2v-1.6l1.3-0.1l0.3-2.2h1.8v2.2h2.1v1.7h-2.1v3.7c0,1,0.4,1.4,1.1,1.4
						c0.3,0,0.6-0.1,0.8-0.2l0.4,1.6c-0.5,0.2-1,0.3-1.8,0.3C109.8,52.2,109,51,109,49.1z"/>
					<path class="st2" d="M114.2,49.7c0-1.8,1.5-2.7,4.8-3.1c0-0.8-0.4-1.5-1.4-1.5c-0.8,0-1.5,0.3-2.3,0.8l-0.8-1.5
						c1-0.6,2.2-1.1,3.5-1.1c2.1,0,3.2,1.3,3.2,3.7V52h-1.8l-0.2-0.9h0c-0.7,0.6-1.6,1.1-2.5,1.1C115.2,52.2,114.2,51.1,114.2,49.7z
						 M119,49.7V48c-2,0.3-2.7,0.8-2.7,1.6c0,0.7,0.5,0.9,1.1,0.9C118.1,50.5,118.5,50.2,119,49.7z"/>
					<path class="st2" d="M123.5,43.6h1.8l0.1,1.5h0.1c0.6-1.1,1.5-1.7,2.4-1.7c0.5,0,0.7,0.1,1,0.2l-0.4,1.9
						c-0.3-0.1-0.5-0.1-0.9-0.1c-0.7,0-1.5,0.4-1.9,1.7v5h-2.2V43.6z"/>
					<path class="st2" d="M129.8,55.2l0.4-1.7c0.1,0,0.4,0.1,0.6,0.1c0.9,0,1.3-0.5,1.6-1.3l0.1-0.5l-3.3-8.2h2.2l1.3,3.9
						c0.3,0.8,0.5,1.6,0.7,2.4h0.1c0.2-0.8,0.4-1.6,0.6-2.4l1.2-3.9h2.1l-3,8.7c-0.7,2-1.6,3.1-3.5,3.1
						C130.5,55.4,130.2,55.3,129.8,55.2z"/>
					<path class="st2" d="M142.1,41.1c0-0.7,0.6-1.2,1.3-1.2c0.8,0,1.3,0.5,1.3,1.2c0,0.7-0.6,1.2-1.3,1.2
						C142.6,42.2,142.1,41.7,142.1,41.1z M142.3,43.6h2.2V52h-2.2V43.6z"/>
					<path class="st2" d="M146.8,43.6h1.8l0.1,1.1h0.1c0.7-0.7,1.6-1.3,2.7-1.3c1.8,0,2.6,1.3,2.6,3.4V52H152v-5
						c0-1.3-0.4-1.8-1.2-1.8c-0.7,0-1.1,0.3-1.8,0.9V52h-2.2V43.6z"/>
					<path class="st2" d="M155.9,53.5c0-0.7,0.4-1.3,1.2-1.7v-0.1c-0.4-0.3-0.8-0.7-0.8-1.4c0-0.6,0.4-1.2,0.9-1.6v-0.1
						c-0.6-0.4-1.1-1.2-1.1-2.2c0-2,1.6-3,3.4-3c0.5,0,0.9,0.1,1.3,0.2h3v1.6h-1.4c0.2,0.3,0.4,0.8,0.4,1.3c0,1.9-1.4,2.8-3.2,2.8
						c-0.3,0-0.7-0.1-1.1-0.2c-0.2,0.2-0.4,0.4-0.4,0.7c0,0.5,0.3,0.7,1.3,0.7h1.4c2,0,3.1,0.6,3.1,2.1c0,1.7-1.8,3-4.6,3
						C157.4,55.6,155.9,55,155.9,53.5z M161.9,53c0-0.6-0.5-0.8-1.4-0.8h-1c-0.5,0-0.9,0-1.2-0.1c-0.4,0.3-0.6,0.6-0.6,1
						c0,0.7,0.8,1.1,2,1.1C161,54.2,161.9,53.7,161.9,53z M160.8,46.4c0-1-0.6-1.5-1.3-1.5s-1.3,0.6-1.3,1.5c0,1,0.6,1.5,1.3,1.5
						S160.8,47.4,160.8,46.4z"/>
					<path class="st2" d="M165.4,43.6h1.8l0.1,1.5h0.1c0.6-1.1,1.5-1.7,2.4-1.7c0.5,0,0.7,0.1,1,0.2l-0.4,1.9
						c-0.3-0.1-0.5-0.1-0.9-0.1c-0.7,0-1.5,0.4-1.9,1.7v5h-2.2V43.6z"/>
					<path class="st2" d="M171.2,47.8c0-2.7,1.9-4.4,3.9-4.4c2.3,0,3.5,1.7,3.5,4c0,0.4,0,0.8-0.1,1h-5.2c0.2,1.4,1.1,2.1,2.3,2.1
						c0.7,0,1.3-0.2,1.9-0.6l0.8,1.4c-0.8,0.6-1.9,0.9-2.9,0.9C173.1,52.2,171.2,50.6,171.2,47.8z M176.8,47c0-1.1-0.5-1.9-1.6-1.9
						c-0.9,0-1.7,0.6-1.8,1.9H176.8z"/>
					<path class="st2" d="M180,47.8c0-2.7,1.7-4.4,3.5-4.4c0.9,0,1.5,0.4,2.1,0.9l-0.1-1.3v-3h2.2v12H186l-0.2-0.9h0
						c-0.6,0.6-1.5,1.1-2.3,1.1C181.3,52.2,180,50.6,180,47.8z M185.6,49.5v-3.7c-0.5-0.5-1-0.6-1.6-0.6c-0.9,0-1.7,0.9-1.7,2.6
						c0,1.7,0.6,2.6,1.7,2.6C184.6,50.4,185.1,50.2,185.6,49.5z"/>
					<path class="st2" d="M189.9,41.1c0-0.7,0.6-1.2,1.3-1.2c0.8,0,1.3,0.5,1.3,1.2c0,0.7-0.6,1.2-1.3,1.2
						C190.5,42.2,189.9,41.7,189.9,41.1z M190.1,43.6h2.2V52h-2.2V43.6z"/>
					<path class="st2" d="M194.2,47.8c0-2.7,1.9-4.4,3.9-4.4c2.3,0,3.5,1.7,3.5,4c0,0.4,0,0.8-0.1,1h-5.2c0.2,1.4,1.1,2.1,2.3,2.1
						c0.7,0,1.3-0.2,1.9-0.6l0.8,1.4c-0.8,0.6-1.9,0.9-2.9,0.9C196,52.2,194.2,50.6,194.2,47.8z M199.7,47c0-1.1-0.5-1.9-1.6-1.9
						c-0.9,0-1.7,0.6-1.8,1.9H199.7z"/>
					<path class="st2" d="M203.4,43.6h1.8l0.2,1.1h0.1c0.7-0.7,1.6-1.3,2.7-1.3c1.8,0,2.6,1.3,2.6,3.4V52h-2.2v-5
						c0-1.3-0.4-1.8-1.2-1.8c-0.7,0-1.1,0.3-1.8,0.9V52h-2.2V43.6z"/>
					<path class="st2" d="M213.3,49.1v-3.7h-1.2v-1.6l1.3-0.1l0.3-2.2h1.8v2.2h2.1v1.7h-2.1v3.7c0,1,0.4,1.4,1.1,1.4
						c0.3,0,0.6-0.1,0.8-0.2l0.4,1.6c-0.4,0.2-1,0.3-1.8,0.3C214.1,52.2,213.3,51,213.3,49.1z"/>
					<path class="st2" d="M218.3,51l1-1.4c0.8,0.6,1.5,0.9,2.2,0.9c0.8,0,1.2-0.4,1.2-0.9c0-0.6-0.9-0.9-1.8-1.3
						c-1.1-0.4-2.3-1-2.3-2.4c0-1.5,1.2-2.6,3.1-2.6c1.2,0,2.2,0.5,2.9,1l-1,1.3c-0.6-0.4-1.2-0.7-1.8-0.7c-0.8,0-1.1,0.3-1.1,0.8
						c0,0.6,0.8,0.8,1.7,1.2c1.1,0.4,2.3,1,2.3,2.5c0,1.5-1.2,2.7-3.3,2.7C220.4,52.2,219.2,51.7,218.3,51z"/>
					<path class="st2" d="M229,43.6h2.2l1.2,4.2c0.2,0.8,0.5,1.7,0.7,2.5h0.1c0.2-0.9,0.5-1.7,0.7-2.5l1.2-4.2h2.1l-2.8,8.4h-2.5
						L229,43.6z"/>
					<path class="st2" d="M238,47.8c0-2.7,1.9-4.4,3.9-4.4c2.3,0,3.5,1.7,3.5,4c0,0.4,0,0.8-0.1,1h-5.2c0.2,1.4,1.1,2.1,2.3,2.1
						c0.7,0,1.3-0.2,1.9-0.6l0.8,1.4c-0.8,0.6-1.9,0.9-2.9,0.9C239.8,52.2,238,50.6,238,47.8z M243.5,47c0-1.1-0.5-1.9-1.6-1.9
						c-0.9,0-1.7,0.6-1.8,1.9H243.5z"/>
					<path class="st2" d="M247.2,43.6h1.8l0.1,1.5h0.1c0.6-1.1,1.5-1.7,2.4-1.7c0.5,0,0.7,0.1,1,0.2l-0.4,1.9
						c-0.3-0.1-0.5-0.1-0.9-0.1c-0.7,0-1.5,0.4-1.9,1.7v5h-2.2V43.6z"/>
					<path class="st2" d="M253.5,41.1c0-0.7,0.6-1.2,1.3-1.2c0.8,0,1.3,0.5,1.3,1.2c0,0.7-0.6,1.2-1.3,1.2
						C254.1,42.2,253.5,41.7,253.5,41.1z M253.7,43.6h2.2V52h-2.2V43.6z"/>
					<path class="st2" d="M258.7,42.9c0-1.8,0.8-3.1,2.9-3.1c0.6,0,1.2,0.2,1.6,0.3l-0.4,1.6c-0.3-0.1-0.6-0.2-0.9-0.2
						c-0.7,0-1,0.4-1,1.3v0.7h1.6v1.7h-1.6V52h-2.2v-6.7h-1.1v-1.6l1.1-0.1V42.9z M264,41.1c0-0.7,0.6-1.2,1.3-1.2
						c0.8,0,1.3,0.5,1.3,1.2c0,0.7-0.6,1.2-1.3,1.2C264.5,42.2,264,41.7,264,41.1z M264.2,43.6h2.2V52h-2.2V43.6z"/>
					<path class="st2" d="M268.2,47.8c0-2.7,1.9-4.4,3.9-4.4c2.3,0,3.5,1.7,3.5,4c0,0.4,0,0.8-0.1,1h-5.2c0.2,1.4,1.1,2.1,2.3,2.1
						c0.7,0,1.3-0.2,1.9-0.6l0.8,1.4c-0.8,0.6-1.9,0.9-2.9,0.9C270,52.2,268.2,50.6,268.2,47.8z M273.8,47c0-1.1-0.5-1.9-1.6-1.9
						c-0.9,0-1.7,0.6-1.8,1.9H273.8z"/>
					<path class="st2" d="M277,47.8c0-2.7,1.7-4.4,3.5-4.4c0.9,0,1.5,0.4,2.1,0.9l-0.1-1.3v-3h2.2v12H283l-0.2-0.9h0
						c-0.6,0.6-1.5,1.1-2.3,1.1C278.3,52.2,277,50.6,277,47.8z M282.5,49.5v-3.7c-0.5-0.5-1-0.6-1.6-0.6c-0.9,0-1.7,0.9-1.7,2.6
						c0,1.7,0.6,2.6,1.7,2.6C281.6,50.4,282.1,50.2,282.5,49.5z"/>
					<path class="st2" d="M292.5,51.1L292.5,51.1l-0.2,0.9h-1.7V40h2.2v3l0,1.4c0.7-0.6,1.5-1,2.3-1c2.1,0,3.3,1.7,3.3,4.3
						c0,2.9-1.7,4.6-3.6,4.6C294,52.2,293.2,51.8,292.5,51.1z M296,47.7c0-1.6-0.5-2.5-1.7-2.5c-0.6,0-1.1,0.3-1.7,0.9v3.7
						c0.5,0.5,1.1,0.6,1.5,0.6C295.3,50.4,296,49.5,296,47.7z"/>
					<path class="st2" d="M299.6,55.2l0.4-1.7c0.1,0,0.4,0.1,0.6,0.1c0.9,0,1.3-0.5,1.6-1.3l0.1-0.5l-3.3-8.2h2.2l1.3,3.9
						c0.3,0.8,0.5,1.6,0.7,2.4h0.1c0.2-0.8,0.4-1.6,0.6-2.4l1.2-3.9h2.1l-3,8.7c-0.7,2-1.6,3.1-3.5,3.1
						C300.3,55.4,300,55.3,299.6,55.2z"/>
				</g>
				<text transform="matrix(1 0 0 1 307.1855 52)" class="st2 st3 st4"> </text>
				<g class="st1">
					<path class="st2" d="M26.8,71.7c0-1.8,1.5-2.7,4.8-3.1c0-0.8-0.4-1.5-1.4-1.5c-0.8,0-1.5,0.3-2.3,0.8l-0.8-1.5
						c1-0.6,2.2-1.1,3.5-1.1c2.1,0,3.2,1.3,3.2,3.7V74H32l-0.2-0.9h0c-0.7,0.6-1.6,1.1-2.5,1.1C27.8,74.2,26.8,73.1,26.8,71.7z
						 M31.6,71.7V70c-2,0.3-2.7,0.8-2.7,1.6c0,0.7,0.5,0.9,1.1,0.9C30.6,72.5,31.1,72.2,31.6,71.7z"/>
					<path class="st2" d="M35.6,69.8c0-2.7,1.7-4.4,3.5-4.4c0.9,0,1.5,0.4,2.1,0.9L41.1,65v-3h2.2v12h-1.8l-0.2-0.9h0
						c-0.6,0.6-1.5,1.1-2.3,1.1C36.9,74.2,35.6,72.6,35.6,69.8z M41.1,71.5v-3.7c-0.5-0.5-1-0.6-1.6-0.6c-0.9,0-1.7,0.9-1.7,2.6
						c0,1.7,0.6,2.6,1.7,2.6C40.2,72.4,40.7,72.2,41.1,71.5z"/>
					<path class="st2" d="M44.7,65.6H47l1.2,4.2c0.2,0.8,0.5,1.7,0.7,2.5h0.1c0.2-0.9,0.5-1.7,0.7-2.5l1.2-4.2H53L50.1,74h-2.6
						L44.7,65.6z"/>
					<path class="st2" d="M53.6,71.7c0-1.8,1.5-2.7,4.8-3.1c0-0.8-0.4-1.5-1.4-1.5c-0.8,0-1.5,0.3-2.3,0.8l-0.8-1.5
						c1-0.6,2.2-1.1,3.5-1.1c2.1,0,3.2,1.3,3.2,3.7V74h-1.8l-0.2-0.9h0c-0.7,0.6-1.6,1.1-2.5,1.1C54.6,74.2,53.6,73.1,53.6,71.7z
						 M58.4,71.7V70c-2,0.3-2.7,0.8-2.7,1.6c0,0.7,0.5,0.9,1.1,0.9C57.4,72.5,57.9,72.2,58.4,71.7z"/>
					<path class="st2" d="M62.9,65.6h1.8l0.1,1.1h0.1c0.7-0.7,1.6-1.3,2.7-1.3c1.8,0,2.6,1.3,2.6,3.4V74H68v-5
						c0-1.3-0.4-1.8-1.2-1.8c-0.7,0-1.1,0.3-1.8,0.9V74h-2.2V65.6z"/>
					<path class="st2" d="M72,69.8c0-2.8,2-4.4,4.3-4.4c1,0,1.8,0.4,2.4,0.9l-1,1.4c-0.4-0.4-0.8-0.6-1.3-0.6c-1.3,0-2.1,1-2.1,2.6
						c0,1.6,0.9,2.6,2.1,2.6c0.6,0,1.2-0.3,1.6-0.7l0.9,1.5c-0.8,0.7-1.8,1-2.7,1C73.7,74.2,72,72.6,72,69.8z"/>
					<path class="st2" d="M79.4,69.8c0-2.7,1.9-4.4,3.9-4.4c2.3,0,3.5,1.7,3.5,4c0,0.4,0,0.8-0.1,1h-5.2c0.2,1.4,1.1,2.1,2.3,2.1
						c0.7,0,1.3-0.2,1.9-0.6l0.8,1.4c-0.8,0.6-1.9,0.9-2.9,0.9C81.2,74.2,79.4,72.6,79.4,69.8z M84.9,69c0-1.1-0.5-1.9-1.6-1.9
						c-0.9,0-1.7,0.6-1.8,1.9H84.9z"/>
					<path class="st2" d="M88.2,69.8c0-2.7,1.7-4.4,3.5-4.4c0.9,0,1.5,0.4,2.1,0.9L93.7,65v-3h2.2v12h-1.8L94,73.1h0
						c-0.6,0.6-1.5,1.1-2.3,1.1C89.5,74.2,88.2,72.6,88.2,69.8z M93.7,71.5v-3.7c-0.5-0.5-1-0.6-1.6-0.6c-0.9,0-1.7,0.9-1.7,2.6
						c0,1.7,0.6,2.6,1.7,2.6C92.8,72.4,93.3,72.2,93.7,71.5z"/>
					<path class="st2" d="M103.7,73.1L103.7,73.1l-0.2,0.9h-1.7V62h2.2v3l0,1.4c0.7-0.6,1.5-1,2.3-1c2.1,0,3.3,1.7,3.3,4.3
						c0,2.9-1.7,4.6-3.6,4.6C105.2,74.2,104.4,73.8,103.7,73.1z M107.2,69.7c0-1.6-0.5-2.5-1.7-2.5c-0.6,0-1.1,0.3-1.7,0.9v3.7
						c0.5,0.5,1.1,0.6,1.5,0.6C106.5,72.4,107.2,71.5,107.2,69.7z"/>
					<path class="st2" d="M111.2,63.1c0-0.7,0.6-1.2,1.3-1.2c0.8,0,1.3,0.5,1.3,1.2c0,0.7-0.6,1.2-1.3,1.2
						C111.7,64.2,111.2,63.7,111.2,63.1z M111.4,65.6h2.2V74h-2.2V65.6z"/>
					<path class="st2" d="M115.4,69.8c0-2.8,1.9-4.4,4-4.4s4,1.6,4,4.4c0,2.8-1.9,4.4-4,4.4S115.4,72.6,115.4,69.8z M121.2,69.8
						c0-1.6-0.6-2.6-1.8-2.6s-1.8,1-1.8,2.6c0,1.6,0.6,2.6,1.8,2.6S121.2,71.4,121.2,69.8z"/>
					<path class="st2" d="M125.2,71.1v-3.7H124v-1.6l1.3-0.1l0.3-2.2h1.8v2.2h2.1v1.7h-2.1v3.7c0,1,0.4,1.4,1.1,1.4
						c0.3,0,0.6-0.1,0.8-0.2l0.4,1.6c-0.5,0.2-1,0.3-1.8,0.3C126,74.2,125.2,73,125.2,71.1z"/>
					<path class="st2" d="M130.4,69.8c0-2.7,1.9-4.4,3.9-4.4c2.3,0,3.5,1.7,3.5,4c0,0.4,0,0.8-0.1,1h-5.2c0.2,1.4,1.1,2.1,2.3,2.1
						c0.7,0,1.3-0.2,1.9-0.6l0.8,1.4c-0.8,0.6-1.9,0.9-2.9,0.9C132.2,74.2,130.4,72.6,130.4,69.8z M135.9,69c0-1.1-0.5-1.9-1.6-1.9
						c-0.9,0-1.7,0.6-1.8,1.9H135.9z"/>
					<path class="st2" d="M139.1,69.8c0-2.8,2-4.4,4.3-4.4c1,0,1.8,0.4,2.4,0.9l-1,1.4c-0.4-0.4-0.8-0.6-1.3-0.6
						c-1.3,0-2.1,1-2.1,2.6c0,1.6,0.9,2.6,2.1,2.6c0.6,0,1.2-0.3,1.6-0.7l0.9,1.5c-0.8,0.7-1.8,1-2.7,1
						C140.9,74.2,139.1,72.6,139.1,69.8z"/>
					<path class="st2" d="M147.5,62h2.2v3l-0.1,1.6c0.7-0.6,1.5-1.2,2.6-1.2c1.8,0,2.6,1.3,2.6,3.4V74h-2.2v-5
						c0-1.3-0.4-1.8-1.2-1.8c-0.7,0-1.1,0.3-1.8,0.9V74h-2.2V62z"/>
					<path class="st2" d="M157.1,65.6h1.8l0.1,1.1h0.1c0.7-0.7,1.6-1.3,2.7-1.3c1.8,0,2.6,1.3,2.6,3.4V74h-2.2v-5
						c0-1.3-0.4-1.8-1.2-1.8c-0.7,0-1.1,0.3-1.8,0.9V74h-2.2V65.6z"/>
					<path class="st2" d="M166.2,69.8c0-2.8,1.9-4.4,4-4.4c2.1,0,4,1.6,4,4.4c0,2.8-1.9,4.4-4,4.4C168.2,74.2,166.2,72.6,166.2,69.8
						z M172.1,69.8c0-1.6-0.6-2.6-1.8-2.6c-1.1,0-1.8,1-1.8,2.6c0,1.6,0.6,2.6,1.8,2.6C171.4,72.4,172.1,71.4,172.1,69.8z"/>
					<path class="st2" d="M176.1,71.6V62h2.2v9.7c0,0.5,0.2,0.7,0.5,0.7c0.1,0,0.1,0,0.3,0l0.3,1.6c-0.3,0.1-0.6,0.2-1.1,0.2
						C176.7,74.2,176.1,73.2,176.1,71.6z"/>
					<path class="st2" d="M180.3,69.8c0-2.8,1.9-4.4,4-4.4s4,1.6,4,4.4c0,2.8-1.9,4.4-4,4.4S180.3,72.6,180.3,69.8z M186.2,69.8
						c0-1.6-0.6-2.6-1.8-2.6s-1.8,1-1.8,2.6c0,1.6,0.6,2.6,1.8,2.6S186.2,71.4,186.2,69.8z"/>
					<path class="st2" d="M189.7,75.5c0-0.7,0.4-1.3,1.2-1.7v-0.1c-0.4-0.3-0.8-0.7-0.8-1.4c0-0.6,0.4-1.2,0.9-1.6v-0.1
						c-0.6-0.4-1.1-1.2-1.1-2.2c0-2,1.6-3,3.4-3c0.5,0,0.9,0.1,1.3,0.2h3v1.6h-1.4c0.2,0.3,0.4,0.8,0.4,1.3c0,1.9-1.4,2.8-3.2,2.8
						c-0.3,0-0.7-0.1-1.1-0.2c-0.2,0.2-0.4,0.4-0.4,0.7c0,0.5,0.3,0.7,1.3,0.7h1.4c2,0,3.1,0.6,3.1,2.1c0,1.7-1.8,3-4.6,3
						C191.2,77.6,189.7,77,189.7,75.5z M195.7,75c0-0.6-0.5-0.8-1.4-0.8h-1c-0.5,0-0.9,0-1.2-0.1c-0.4,0.3-0.6,0.6-0.6,1
						c0,0.7,0.8,1.1,2,1.1C194.8,76.2,195.7,75.7,195.7,75z M194.7,68.4c0-1-0.6-1.5-1.3-1.5s-1.3,0.6-1.3,1.5c0,1,0.6,1.5,1.3,1.5
						S194.7,69.4,194.7,68.4z"/>
					<path class="st2" d="M199,63.1c0-0.7,0.6-1.2,1.3-1.2c0.8,0,1.3,0.5,1.3,1.2c0,0.7-0.6,1.2-1.3,1.2
						C199.6,64.2,199,63.7,199,63.1z M199.2,65.6h2.2V74h-2.2V65.6z"/>
					<path class="st2" d="M203.3,69.8c0-2.7,1.9-4.4,3.9-4.4c2.3,0,3.5,1.7,3.5,4c0,0.4,0,0.8-0.1,1h-5.2c0.2,1.4,1.1,2.1,2.3,2.1
						c0.7,0,1.3-0.2,1.9-0.6l0.8,1.4c-0.8,0.6-1.9,0.9-2.9,0.9C205.1,74.2,203.3,72.6,203.3,69.8z M208.8,69c0-1.1-0.5-1.9-1.6-1.9
						c-0.9,0-1.7,0.6-1.8,1.9H208.8z"/>
					<path class="st2" d="M211.7,73l1-1.4c0.8,0.6,1.5,0.9,2.2,0.9c0.8,0,1.2-0.4,1.2-0.9c0-0.6-0.9-0.9-1.8-1.3
						c-1.1-0.4-2.3-1-2.3-2.4c0-1.5,1.2-2.6,3.1-2.6c1.2,0,2.2,0.5,2.9,1l-1,1.3c-0.6-0.4-1.2-0.7-1.8-0.7c-0.8,0-1.1,0.3-1.1,0.8
						c0,0.6,0.8,0.8,1.7,1.2c1.1,0.4,2.3,1,2.3,2.5c0,1.5-1.2,2.7-3.3,2.7C213.8,74.2,212.5,73.7,211.7,73z"/>
				</g>
				<g class="st1">
					<path class="st2" d="M30.7,111.3h3.8v1h-3.8V111.3z"/>
					<path class="st2" d="M39.3,114.6l0.8-0.9c0.8,0.8,1.9,1.4,3,1.4c1.4,0,2.3-0.7,2.3-1.8c0-1.1-0.8-1.5-1.8-1.9l-1.6-0.7
						c-1-0.4-2.2-1.2-2.2-2.8c0-1.7,1.5-2.9,3.5-2.9c1.3,0,2.5,0.6,3.2,1.4l-0.7,0.9c-0.7-0.6-1.5-1-2.5-1c-1.2,0-2.1,0.6-2.1,1.6
						c0,1.1,1,1.5,1.8,1.8l1.6,0.7c1.3,0.6,2.3,1.3,2.3,2.9c0,1.7-1.4,3.1-3.7,3.1C41.6,116.2,40.2,115.6,39.3,114.6z"/>
					<path class="st2" d="M48.3,111.9c0-2.6,1.8-4.3,3.7-4.3c2.1,0,3.2,1.5,3.2,3.8c0,0.3,0,0.6-0.1,0.8h-5.5
						c0.1,1.7,1.2,2.8,2.7,2.8c0.8,0,1.4-0.2,2-0.6l0.5,0.9c-0.7,0.5-1.6,0.8-2.7,0.8C50,116.2,48.3,114.6,48.3,111.9z M54,111.3
						c0-1.7-0.7-2.5-2-2.5c-1.2,0-2.2,0.9-2.3,2.5H54z"/>
					<path class="st2" d="M56.6,111.9c0-2.7,1.8-4.3,3.9-4.3c1.1,0,1.8,0.5,2.4,1l-0.7,0.9c-0.5-0.4-1-0.7-1.6-0.7
						c-1.5,0-2.5,1.3-2.5,3.2s1,3.1,2.5,3.1c0.8,0,1.4-0.3,1.9-0.8l0.6,0.9c-0.7,0.7-1.6,1-2.6,1C58.3,116.2,56.6,114.6,56.6,111.9z
						"/>
					<path class="st2" d="M64.7,113v-5.2h1.4v5c0,1.5,0.4,2.2,1.5,2.2c0.8,0,1.4-0.4,2.2-1.4v-5.8h1.4v8.1h-1.1l-0.1-1.3h0
						c-0.8,0.9-1.6,1.5-2.7,1.5C65.5,116.2,64.7,115.1,64.7,113z"/>
					<path class="st2" d="M73.9,107.9h1.1l0.1,1.5h0c0.6-1,1.4-1.7,2.3-1.7c0.4,0,0.6,0,0.9,0.2l-0.3,1.2c-0.3-0.1-0.5-0.1-0.8-0.1
						c-0.7,0-1.5,0.5-2.1,1.9v5.2h-1.4V107.9z"/>
					<path class="st2" d="M79,111.9c0-2.6,1.8-4.3,3.7-4.3c2.1,0,3.2,1.5,3.2,3.8c0,0.3,0,0.6-0.1,0.8h-5.5c0.1,1.7,1.2,2.8,2.7,2.8
						c0.8,0,1.4-0.2,2-0.6l0.5,0.9c-0.7,0.5-1.6,0.8-2.7,0.8C80.7,116.2,79,114.6,79,111.9z M84.7,111.3c0-1.7-0.8-2.5-2-2.5
						c-1.2,0-2.2,0.9-2.3,2.5H84.7z"/>
					<path class="st2" d="M90.4,115.1l0.7-0.9c0.7,0.6,1.4,1,2.4,1c1.1,0,1.6-0.6,1.6-1.3c0-0.8-1-1.2-1.9-1.5
						c-1.1-0.4-2.4-1-2.4-2.4c0-1.3,1-2.3,2.8-2.3c1,0,1.9,0.4,2.5,0.9l-0.7,0.9c-0.6-0.4-1.1-0.7-1.9-0.7c-1,0-1.5,0.5-1.5,1.2
						c0,0.8,0.9,1.1,1.8,1.4c1.2,0.4,2.5,0.9,2.5,2.5c0,1.3-1,2.4-3,2.4C92.2,116.2,91.1,115.7,90.4,115.1z"/>
					<path class="st2" d="M97.7,111.9c0-2.7,1.8-4.3,3.9-4.3c1.1,0,1.8,0.5,2.4,1l-0.7,0.9c-0.5-0.4-1-0.7-1.6-0.7
						c-1.5,0-2.5,1.3-2.5,3.2s1,3.1,2.5,3.1c0.8,0,1.4-0.3,1.9-0.8l0.6,0.9c-0.7,0.7-1.6,1-2.6,1C99.3,116.2,97.7,114.6,97.7,111.9z
						"/>
					<path class="st2" d="M105.7,105.3c0-0.6,0.4-0.9,0.9-0.9s0.9,0.3,0.9,0.9c0,0.5-0.4,0.9-0.9,0.9S105.7,105.8,105.7,105.3z
						 M105.9,107.9h1.4v8.1h-1.4V107.9z"/>
					<path class="st2" d="M109.4,111.9c0-2.6,1.8-4.3,3.7-4.3c2.1,0,3.2,1.5,3.2,3.8c0,0.3,0,0.6-0.1,0.8h-5.5
						c0.1,1.7,1.2,2.8,2.7,2.8c0.8,0,1.4-0.2,2-0.6l0.5,0.9c-0.7,0.5-1.6,0.8-2.7,0.8C111.2,116.2,109.4,114.6,109.4,111.9z
						 M115.2,111.3c0-1.7-0.8-2.5-2-2.5c-1.2,0-2.2,0.9-2.3,2.5H115.2z"/>
					<path class="st2" d="M118.4,107.9h1.1l0.1,1.2h0c0.8-0.8,1.6-1.4,2.7-1.4c1.7,0,2.5,1.1,2.5,3.2v5.2h-1.4v-5
						c0-1.5-0.5-2.2-1.5-2.2c-0.8,0-1.4,0.4-2.2,1.2v5.9h-1.4V107.9z"/>
					<path class="st2" d="M127.8,113.5V109h-1.2v-1l1.3-0.1l0.2-2.3h1.1v2.3h2.2v1.1h-2.2v4.5c0,1,0.3,1.6,1.3,1.6
						c0.3,0,0.7-0.1,0.9-0.2l0.3,1c-0.5,0.2-1,0.3-1.5,0.3C128.4,116.2,127.8,115.1,127.8,113.5z"/>
					<path class="st2" d="M132.9,105.3c0-0.6,0.4-0.9,0.9-0.9s0.9,0.3,0.9,0.9c0,0.5-0.4,0.9-0.9,0.9S132.9,105.8,132.9,105.3z
						 M133.2,107.9h1.4v8.1h-1.4V107.9z"/>
					<path class="st2" d="M137.5,106.6c0-1.7,0.8-2.7,2.4-2.7c0.5,0,1,0.1,1.4,0.3l-0.3,1c-0.3-0.1-0.6-0.2-0.9-0.2
						c-0.8,0-1.2,0.6-1.2,1.6v1.3h1.7v1.1h-1.7v7h-1.4v-7h-1.1v-1l1.1-0.1V106.6z M144.1,105.3c0,0.5-0.4,0.9-1,0.9
						c-0.5,0-0.9-0.4-0.9-0.9c0-0.6,0.4-0.9,0.9-0.9C143.7,104.4,144.1,104.7,144.1,105.3z M142.5,107.9h1.4v8.1h-1.4V107.9z"/>
					<path class="st2" d="M146,111.9c0-2.7,1.8-4.3,3.9-4.3c1.1,0,1.8,0.5,2.4,1l-0.7,0.9c-0.5-0.4-1-0.7-1.6-0.7
						c-1.5,0-2.5,1.3-2.5,3.2s1,3.1,2.5,3.1c0.8,0,1.4-0.3,1.9-0.8l0.6,0.9c-0.7,0.7-1.6,1-2.6,1C147.7,116.2,146,114.6,146,111.9z"
						/>
					<path class="st2" d="M157,111.9c0-2.7,1.8-4.3,3.9-4.3c1.1,0,1.8,0.5,2.4,1l-0.7,0.9c-0.5-0.4-1-0.7-1.6-0.7
						c-1.5,0-2.5,1.3-2.5,3.2s1,3.1,2.5,3.1c0.8,0,1.4-0.3,1.9-0.8l0.6,0.9c-0.7,0.7-1.6,1-2.6,1C158.7,116.2,157,114.6,157,111.9z"
						/>
					<path class="st2" d="M165.2,107.9h1.1l0.1,1.5h0c0.6-1,1.4-1.7,2.3-1.7c0.4,0,0.6,0,0.9,0.2l-0.3,1.2c-0.3-0.1-0.5-0.1-0.8-0.1
						c-0.7,0-1.5,0.5-2.1,1.9v5.2h-1.4V107.9z"/>
					<path class="st2" d="M170.3,111.9c0-2.6,1.8-4.3,3.7-4.3c2.1,0,3.2,1.5,3.2,3.8c0,0.3,0,0.6-0.1,0.8h-5.5
						c0.1,1.7,1.2,2.8,2.7,2.8c0.8,0,1.4-0.2,2-0.6l0.5,0.9c-0.7,0.5-1.6,0.8-2.7,0.8C172,116.2,170.3,114.6,170.3,111.9z
						 M176,111.3c0-1.7-0.8-2.5-2-2.5c-1.2,0-2.2,0.9-2.3,2.5H176z"/>
					<path class="st2" d="M178.6,111.9c0-2.6,1.7-4.3,3.5-4.3c1,0,1.6,0.4,2.3,1l-0.1-1.4v-3.1h1.4V116h-1.1l-0.1-1h0
						c-0.6,0.6-1.5,1.2-2.5,1.2C179.9,116.2,178.6,114.7,178.6,111.9z M184.4,113.9v-4.3c-0.7-0.6-1.3-0.9-2-0.9
						c-1.3,0-2.4,1.3-2.4,3.1c0,2,0.8,3.1,2.2,3.1C183,115.1,183.7,114.7,184.4,113.9z"/>
					<path class="st2" d="M188.2,105.3c0-0.6,0.4-0.9,0.9-0.9c0.5,0,0.9,0.3,0.9,0.9c0,0.5-0.4,0.9-0.9,0.9
						C188.7,106.2,188.2,105.8,188.2,105.3z M188.5,107.9h1.4v8.1h-1.4V107.9z"/>
					<path class="st2" d="M193.9,115.2L193.9,115.2l-0.2,0.8h-1.1v-11.9h1.4v3.3l0,1.5c0.7-0.6,1.6-1.2,2.5-1.2
						c2.1,0,3.3,1.6,3.3,4.1c0,2.8-1.7,4.4-3.5,4.4C195.5,116.2,194.6,115.8,193.9,115.2z M198.3,111.8c0-1.8-0.6-3-2.1-3
						c-0.7,0-1.4,0.4-2.2,1.1v4.3c0.7,0.6,1.5,0.9,2,0.9C197.3,115.1,198.3,113.8,198.3,111.8z"/>
					<path class="st2" d="M201.6,105.3c0-0.6,0.4-0.9,0.9-0.9s0.9,0.3,0.9,0.9c0,0.5-0.4,0.9-0.9,0.9S201.6,105.8,201.6,105.3z
						 M201.9,107.9h1.4v8.1h-1.4V107.9z"/>
					<path class="st2" d="M206,114.4v-10.3h1.4v10.4c0,0.4,0.2,0.6,0.4,0.6c0.1,0,0.1,0,0.3,0l0.2,1c-0.2,0.1-0.4,0.1-0.8,0.1
						C206.4,116.2,206,115.5,206,114.4z"/>
					<path class="st2" d="M210,105.3c0-0.6,0.4-0.9,0.9-0.9s0.9,0.3,0.9,0.9c0,0.5-0.4,0.9-0.9,0.9S210,105.8,210,105.3z
						 M210.3,107.9h1.4v8.1h-1.4V107.9z"/>
					<path class="st2" d="M214.7,113.5V109h-1.2v-1l1.3-0.1l0.2-2.3h1.1v2.3h2.2v1.1H216v4.5c0,1,0.3,1.6,1.3,1.6
						c0.3,0,0.7-0.1,0.9-0.2l0.3,1c-0.5,0.2-1,0.3-1.5,0.3C215.2,116.2,214.7,115.1,214.7,113.5z"/>
					<path class="st2" d="M219.3,119.3l0.3-1.1c0.2,0.1,0.4,0.1,0.6,0.1c0.9,0,1.5-0.8,1.8-1.8l0.2-0.6l-3.3-8.2h1.4l1.7,4.5
						c0.2,0.7,0.5,1.5,0.8,2.3h0.1c0.2-0.7,0.5-1.6,0.7-2.3l1.5-4.5h1.3l-3.1,8.8c-0.6,1.6-1.4,2.8-3,2.8
						C219.8,119.5,219.5,119.5,219.3,119.3z"/>
					<path class="st2" d="M231.5,113.5V109h-1.2v-1l1.3-0.1l0.2-2.3h1.1v2.3h2.2v1.1h-2.2v4.5c0,1,0.3,1.6,1.3,1.6
						c0.3,0,0.7-0.1,0.9-0.2l0.3,1c-0.5,0.2-1,0.3-1.5,0.3C232.1,116.2,231.5,115.1,231.5,113.5z"/>
					<path class="st2" d="M236.9,104.1h1.4v3.3l0,1.7c0.8-0.8,1.6-1.4,2.7-1.4c1.7,0,2.5,1.1,2.5,3.2v5.2h-1.4v-5
						c0-1.5-0.5-2.2-1.5-2.2c-0.8,0-1.4,0.4-2.2,1.2v5.9h-1.4V104.1z"/>
					<path class="st2" d="M246,107.9h1.1l0.1,1.5h0c0.6-1,1.4-1.7,2.3-1.7c0.4,0,0.6,0,0.9,0.2l-0.3,1.2c-0.3-0.1-0.5-0.1-0.8-0.1
						c-0.7,0-1.5,0.5-2.1,1.9v5.2H246V107.9z"/>
					<path class="st2" d="M251.1,111.9c0-2.7,1.8-4.3,3.8-4.3c2,0,3.8,1.6,3.8,4.3c0,2.7-1.8,4.3-3.8,4.3
						C252.8,116.2,251.1,114.6,251.1,111.9z M257.2,111.9c0-1.9-1-3.2-2.4-3.2c-1.4,0-2.4,1.3-2.4,3.2s0.9,3.1,2.4,3.1
						C256.2,115.1,257.2,113.8,257.2,111.9z"/>
					<path class="st2" d="M260.7,113v-5.2h1.4v5c0,1.5,0.5,2.2,1.5,2.2c0.8,0,1.4-0.4,2.2-1.4v-5.8h1.4v8.1H266l-0.1-1.3h0
						c-0.8,0.9-1.6,1.5-2.7,1.5C261.4,116.2,260.7,115.1,260.7,113z"/>
					<path class="st2" d="M269.2,117.6c0-0.7,0.5-1.3,1.2-1.8v-0.1c-0.4-0.3-0.8-0.7-0.8-1.3c0-0.7,0.5-1.2,0.9-1.5v-0.1
						c-0.5-0.4-1.1-1.2-1.1-2.2c0-1.8,1.4-2.9,3.1-2.9c0.5,0,0.9,0.1,1.1,0.2h2.8v1h-1.7c0.4,0.4,0.7,1,0.7,1.7c0,1.7-1.3,2.8-3,2.8
						c-0.4,0-0.9-0.1-1.2-0.3c-0.3,0.3-0.5,0.5-0.5,1c0,0.5,0.3,0.9,1.4,0.9h1.6c1.9,0,2.8,0.6,2.8,1.9c0,1.5-1.6,2.8-4.1,2.8
						C270.6,119.8,269.2,119,269.2,117.6z M275.4,117.1c0-0.8-0.6-1-1.7-1h-1.4c-0.3,0-0.7,0-1-0.1c-0.6,0.4-0.8,0.9-0.8,1.4
						c0,0.9,0.9,1.4,2.4,1.4C274.4,118.8,275.4,118,275.4,117.1z M274.3,110.6c0-1.2-0.8-1.9-1.7-1.9c-1,0-1.7,0.7-1.7,1.9
						c0,1.2,0.8,1.9,1.7,1.9C273.5,112.5,274.3,111.7,274.3,110.6z"/>
					<path class="st2" d="M278.3,104.1h1.4v3.3l0,1.7c0.8-0.8,1.6-1.4,2.7-1.4c1.7,0,2.5,1.1,2.5,3.2v5.2h-1.4v-5
						c0-1.5-0.5-2.2-1.5-2.2c-0.8,0-1.4,0.4-2.2,1.2v5.9h-1.4V104.1z"/>
				</g>
				<g class="st1">
					<path class="st2" d="M31.4,142.9h1.1l0.1,0.9h0c0.7-0.6,1.6-1.1,2.6-1.1c2.1,0,3.2,1.6,3.2,4.2c0,2.8-1.7,4.4-3.5,4.4
						c-0.7,0-1.5-0.3-2.2-0.9l0,1.4v2.8h-1.4V142.9z M37.1,146.8c0-1.8-0.6-3-2.1-3c-0.7,0-1.4,0.4-2.2,1.1v4.3
						c0.7,0.6,1.5,0.9,2,0.9C36.1,150.1,37.1,148.8,37.1,146.8z"/>
					<path class="st2" d="M40.6,148v-5.2h1.4v5c0,1.5,0.5,2.2,1.5,2.2c0.8,0,1.4-0.4,2.2-1.4v-5.8H47v8.1h-1.1l-0.1-1.3h0
						c-0.8,0.9-1.6,1.5-2.7,1.5C41.3,151.2,40.6,150.1,40.6,148z"/>
					<path class="st2" d="M51,150.2L51,150.2l-0.2,0.8h-1.1v-11.9h1.4v3.3l0,1.5c0.7-0.6,1.6-1.2,2.6-1.2c2.1,0,3.3,1.6,3.3,4.1
						c0,2.8-1.7,4.4-3.5,4.4C52.6,151.2,51.8,150.8,51,150.2z M55.5,146.8c0-1.8-0.6-3-2.1-3c-0.7,0-1.4,0.4-2.2,1.1v4.3
						c0.7,0.6,1.5,0.9,2,0.9C54.5,150.1,55.5,148.8,55.5,146.8z"/>
					<path class="st2" d="M59.1,149.4v-10.3h1.4v10.4c0,0.4,0.2,0.6,0.4,0.6c0.1,0,0.1,0,0.3,0l0.2,1c-0.2,0.1-0.4,0.1-0.8,0.1
						C59.5,151.2,59.1,150.5,59.1,149.4z"/>
					<path class="st2" d="M63.1,140.3c0-0.6,0.4-0.9,0.9-0.9s0.9,0.3,0.9,0.9c0,0.5-0.4,0.9-0.9,0.9S63.1,140.8,63.1,140.3z
						 M63.3,142.9h1.4v8.1h-1.4V142.9z"/>
					<path class="st2" d="M66.8,146.9c0-2.7,1.8-4.3,3.9-4.3c1.1,0,1.8,0.5,2.4,1l-0.7,0.9c-0.5-0.4-1-0.7-1.6-0.7
						c-1.5,0-2.5,1.3-2.5,3.2s1,3.1,2.5,3.1c0.8,0,1.4-0.3,1.9-0.8l0.6,0.9c-0.7,0.7-1.6,1-2.6,1C68.5,151.2,66.8,149.6,66.8,146.9z
						"/>
					<path class="st2" d="M74.4,148.9c0-1.8,1.5-2.7,5-3c0-1-0.3-2.1-1.7-2.1c-0.9,0-1.8,0.4-2.4,0.9l-0.5-0.9
						c0.8-0.5,1.9-1.1,3.2-1.1c2,0,2.8,1.3,2.8,3.3v5h-1.1l-0.1-1h0c-0.8,0.6-1.7,1.2-2.7,1.2C75.4,151.2,74.4,150.4,74.4,148.9z
						 M79.4,149v-2.3c-2.7,0.3-3.7,1-3.7,2.1c0,0.9,0.6,1.3,1.4,1.3C78,150.1,78.6,149.7,79.4,149z"/>
					<path class="st2" d="M83.4,148.5V144h-1.2v-1l1.3-0.1l0.2-2.3h1.1v2.3H87v1.1h-2.2v4.5c0,1,0.3,1.6,1.3,1.6
						c0.3,0,0.7-0.1,0.9-0.2l0.3,1c-0.5,0.2-1,0.3-1.5,0.3C84,151.2,83.4,150.1,83.4,148.5z"/>
					<path class="st2" d="M88.6,140.3c0-0.6,0.4-0.9,0.9-0.9s0.9,0.3,0.9,0.9c0,0.5-0.4,0.9-0.9,0.9S88.6,140.8,88.6,140.3z
						 M88.8,142.9h1.4v8.1h-1.4V142.9z"/>
					<path class="st2" d="M92.3,146.9c0-2.7,1.8-4.3,3.8-4.3c2,0,3.8,1.6,3.8,4.3c0,2.7-1.8,4.3-3.8,4.3
						C94.1,151.2,92.3,149.6,92.3,146.9z M98.5,146.9c0-1.9-1-3.2-2.4-3.2c-1.4,0-2.4,1.3-2.4,3.2s0.9,3.1,2.4,3.1
						C97.5,150.1,98.5,148.8,98.5,146.9z"/>
					<path class="st2" d="M102,142.9h1.1l0.1,1.2h0c0.8-0.8,1.6-1.4,2.7-1.4c1.7,0,2.5,1.1,2.5,3.2v5.2h-1.4v-5
						c0-1.5-0.5-2.2-1.5-2.2c-0.8,0-1.4,0.4-2.2,1.2v5.9H102V142.9z"/>
					<path class="st2" d="M114.3,140.3c0-0.6,0.4-0.9,0.9-0.9s0.9,0.3,0.9,0.9c0,0.5-0.4,0.9-0.9,0.9S114.3,140.8,114.3,140.3z
						 M114.6,142.9h1.4v8.1h-1.4V142.9z"/>
					<path class="st2" d="M118.7,142.9h1.1l0.1,1.2h0c0.8-0.8,1.6-1.4,2.7-1.4c1.7,0,2.5,1.1,2.5,3.2v5.2h-1.4v-5
						c0-1.5-0.5-2.2-1.5-2.2c-0.8,0-1.4,0.4-2.2,1.2v5.9h-1.4V142.9z"/>
					<path class="st2" d="M130.5,149.6l0.8-0.9c0.8,0.8,1.9,1.4,3,1.4c1.4,0,2.3-0.7,2.3-1.8c0-1.1-0.8-1.5-1.8-1.9l-1.6-0.7
						c-1-0.4-2.2-1.2-2.2-2.8c0-1.7,1.5-2.9,3.5-2.9c1.3,0,2.5,0.6,3.2,1.4L137,142c-0.7-0.6-1.5-1-2.5-1c-1.2,0-2.1,0.6-2.1,1.6
						c0,1.1,1,1.5,1.8,1.8l1.6,0.7c1.3,0.6,2.3,1.3,2.3,2.9c0,1.7-1.4,3.1-3.7,3.1C132.8,151.2,131.5,150.6,130.5,149.6z"/>
					<path class="st2" d="M139.6,145.5c0-3.6,2.1-5.7,4.9-5.7c1.3,0,2.4,0.7,3,1.4l-0.8,0.9c-0.6-0.6-1.3-1-2.2-1
						c-2.1,0-3.5,1.7-3.5,4.5c0,2.8,1.3,4.5,3.4,4.5c1,0,1.8-0.5,2.5-1.2l0.8,0.9c-0.9,1-2,1.6-3.4,1.6
						C141.7,151.2,139.6,149.1,139.6,145.5z"/>
					<path class="st2" d="M149.8,140h1.4v11h-1.4V140z"/>
					<path class="st2" d="M155.4,154.4l0.3-1c0.2,0.1,0.5,0.2,0.8,0.2c0.8,0,1-0.6,1-1.6v-9.1h1.4v9.1c0,1.7-0.6,2.7-2.2,2.7
						C156.1,154.6,155.7,154.5,155.4,154.4z M157.2,140.3c0-0.6,0.4-0.9,0.9-0.9c0.5,0,0.9,0.3,0.9,0.9c0,0.5-0.4,0.9-0.9,0.9
						C157.6,141.2,157.2,140.8,157.2,140.3z"/>
					<path class="st2" d="M161,146.9c0-2.7,1.8-4.3,3.8-4.3c2,0,3.8,1.6,3.8,4.3c0,2.7-1.8,4.3-3.8,4.3
						C162.8,151.2,161,149.6,161,146.9z M167.1,146.9c0-1.9-1-3.2-2.4-3.2c-1.4,0-2.4,1.3-2.4,3.2s0.9,3.1,2.4,3.1
						C166.2,150.1,167.1,148.8,167.1,146.9z"/>
					<path class="st2" d="M170.6,148v-5.2h1.4v5c0,1.5,0.5,2.2,1.5,2.2c0.8,0,1.4-0.4,2.2-1.4v-5.8h1.4v8.1h-1.1l-0.1-1.3h0
						c-0.8,0.9-1.6,1.5-2.7,1.5C171.4,151.2,170.6,150.1,170.6,148z"/>
					<path class="st2" d="M179.8,142.9h1.1l0.1,1.5h0c0.6-1,1.4-1.7,2.3-1.7c0.4,0,0.6,0,0.9,0.2L184,144c-0.3-0.1-0.5-0.1-0.8-0.1
						c-0.7,0-1.5,0.5-2.1,1.9v5.2h-1.4V142.9z"/>
					<path class="st2" d="M185.6,142.9h1.1l0.1,1.2h0c0.8-0.8,1.6-1.4,2.7-1.4c1.7,0,2.5,1.1,2.5,3.2v5.2h-1.4v-5
						c0-1.5-0.5-2.2-1.5-2.2c-0.8,0-1.4,0.4-2.2,1.2v5.9h-1.4V142.9z"/>
					<path class="st2" d="M194.3,148.9c0-1.8,1.5-2.7,5-3c0-1-0.3-2.1-1.7-2.1c-0.9,0-1.8,0.4-2.4,0.9l-0.5-0.9
						c0.8-0.5,1.9-1.1,3.2-1.1c2,0,2.8,1.3,2.8,3.3v5h-1.1l-0.1-1h0c-0.8,0.6-1.7,1.2-2.7,1.2C195.3,151.2,194.3,150.4,194.3,148.9z
						 M199.3,149v-2.3c-2.7,0.3-3.7,1-3.7,2.1c0,0.9,0.6,1.3,1.4,1.3C197.8,150.1,198.5,149.7,199.3,149z"/>
					<path class="st2" d="M203.2,149.4v-10.3h1.4v10.4c0,0.4,0.2,0.6,0.4,0.6c0.1,0,0.1,0,0.3,0l0.2,1c-0.2,0.1-0.4,0.1-0.8,0.1
						C203.7,151.2,203.2,150.5,203.2,149.4z"/>
					<path class="st2" d="M206.6,150.1l0.7-0.9c0.7,0.6,1.4,1,2.4,1c1.1,0,1.6-0.6,1.6-1.3c0-0.8-1-1.2-1.9-1.5
						c-1.1-0.4-2.4-1-2.4-2.4c0-1.3,1-2.3,2.8-2.3c1,0,1.9,0.4,2.5,0.9l-0.7,0.9c-0.6-0.4-1.1-0.7-1.9-0.7c-1,0-1.5,0.5-1.5,1.2
						c0,0.8,0.9,1.1,1.8,1.4c1.2,0.4,2.5,0.9,2.5,2.5c0,1.3-1,2.4-3,2.4C208.5,151.2,207.4,150.7,206.6,150.1z"/>
				</g>
				<text transform="matrix(1 0 0 1 213.1622 151)" class="st2 st5 st4"> </text>
				<g class="st1">
					<path class="st2" d="M30.7,216.3h3.8v1h-3.8V216.3z"/>
					<path class="st2" d="M39.3,219.6l0.8-0.9c0.8,0.8,1.9,1.4,3,1.4c1.4,0,2.3-0.7,2.3-1.8c0-1.1-0.8-1.5-1.8-1.9l-1.6-0.7
						c-1-0.4-2.2-1.2-2.2-2.8c0-1.7,1.5-2.9,3.5-2.9c1.3,0,2.5,0.6,3.2,1.4l-0.7,0.9c-0.7-0.6-1.5-1-2.5-1c-1.2,0-2.1,0.6-2.1,1.6
						c0,1.1,1,1.5,1.8,1.8l1.6,0.7c1.3,0.6,2.3,1.3,2.3,2.9c0,1.7-1.4,3.1-3.7,3.1C41.6,221.2,40.2,220.6,39.3,219.6z"/>
					<path class="st2" d="M48.7,218.5V214h-1.2v-1l1.3-0.1l0.2-2.3h1.1v2.3h2.2v1.1h-2.2v4.5c0,1,0.3,1.6,1.3,1.6
						c0.3,0,0.7-0.1,0.9-0.2l0.3,1c-0.5,0.2-1,0.3-1.5,0.3C49.3,221.2,48.7,220.1,48.7,218.5z"/>
					<path class="st2" d="M54.1,212.9h1.1l0.1,1.5h0c0.6-1,1.4-1.7,2.3-1.7c0.4,0,0.6,0,0.9,0.2l-0.3,1.2c-0.3-0.1-0.5-0.1-0.8-0.1
						c-0.7,0-1.5,0.5-2.1,1.9v5.2h-1.4V212.9z"/>
					<path class="st2" d="M59.7,210.3c0-0.6,0.4-0.9,0.9-0.9s0.9,0.3,0.9,0.9c0,0.5-0.4,0.9-0.9,0.9S59.7,210.8,59.7,210.3z
						 M60,212.9h1.4v8.1H60V212.9z"/>
					<path class="st2" d="M63.5,216.9c0-2.7,1.8-4.3,3.9-4.3c1.1,0,1.8,0.5,2.4,1l-0.7,0.9c-0.5-0.4-1-0.7-1.6-0.7
						c-1.5,0-2.5,1.3-2.5,3.2s1,3.1,2.5,3.1c0.8,0,1.4-0.3,1.9-0.8l0.6,0.9c-0.7,0.7-1.6,1-2.6,1C65.1,221.2,63.5,219.6,63.5,216.9z
						"/>
					<path class="st2" d="M71.8,218.5V214h-1.2v-1l1.3-0.1l0.2-2.3h1.1v2.3h2.2v1.1h-2.2v4.5c0,1,0.3,1.6,1.3,1.6
						c0.3,0,0.7-0.1,0.9-0.2l0.3,1c-0.5,0.2-1,0.3-1.5,0.3C72.4,221.2,71.8,220.1,71.8,218.5z"/>
					<path class="st2" d="M77.2,219.4v-10.3h1.4v10.4c0,0.4,0.2,0.6,0.4,0.6c0.1,0,0.1,0,0.3,0l0.2,1c-0.2,0.1-0.4,0.1-0.8,0.1
						C77.6,221.2,77.2,220.5,77.2,219.4z"/>
					<path class="st2" d="M80.7,224.3l0.3-1.1c0.2,0.1,0.4,0.1,0.6,0.1c0.9,0,1.5-0.8,1.8-1.8l0.2-0.6l-3.3-8.2h1.4l1.7,4.5
						c0.2,0.7,0.5,1.5,0.8,2.3h0.1c0.2-0.7,0.5-1.6,0.7-2.3l1.5-4.5h1.3l-3.1,8.8c-0.6,1.6-1.4,2.8-3,2.8
						C81.2,224.5,80.9,224.5,80.7,224.3z"/>
					<path class="st2" d="M92.7,212.9h1.1l0.1,1.2h0c0.7-0.8,1.6-1.4,2.5-1.4c1.2,0,1.9,0.6,2.2,1.6c0.8-0.9,1.7-1.6,2.7-1.6
						c1.7,0,2.5,1.1,2.5,3.2v5.2h-1.4v-5c0-1.5-0.5-2.2-1.5-2.2c-0.6,0-1.3,0.4-2.1,1.2v5.9h-1.4v-5c0-1.5-0.5-2.2-1.5-2.2
						c-0.6,0-1.3,0.4-2.1,1.2v5.9h-1.4V212.9z"/>
					<path class="st2" d="M106,218.9c0-1.8,1.5-2.7,5-3c0-1-0.3-2.1-1.7-2.1c-0.9,0-1.8,0.4-2.4,0.9l-0.5-0.9
						c0.8-0.5,1.9-1.1,3.2-1.1c2,0,2.8,1.3,2.8,3.3v5h-1.1l-0.1-1h0c-0.8,0.6-1.7,1.2-2.7,1.2C107.1,221.2,106,220.4,106,218.9z
						 M111.1,219v-2.3c-2.7,0.3-3.7,1-3.7,2.1c0,0.9,0.6,1.3,1.4,1.3C109.6,220.1,110.3,219.7,111.1,219z"/>
					<path class="st2" d="M115,212.9h1.1l0.1,1.2h0c0.8-0.8,1.6-1.4,2.7-1.4c1.7,0,2.5,1.1,2.5,3.2v5.2h-1.4v-5
						c0-1.5-0.5-2.2-1.5-2.2c-0.8,0-1.4,0.4-2.2,1.2v5.9H115V212.9z"/>
					<path class="st2" d="M123.7,218.9c0-1.8,1.5-2.7,5-3c0-1-0.3-2.1-1.7-2.1c-0.9,0-1.8,0.4-2.4,0.9l-0.5-0.9
						c0.8-0.5,1.9-1.1,3.2-1.1c2,0,2.8,1.3,2.8,3.3v5h-1.1l-0.1-1h0c-0.8,0.6-1.7,1.2-2.7,1.2C124.7,221.2,123.7,220.4,123.7,218.9z
						 M128.7,219v-2.3c-2.7,0.3-3.7,1-3.7,2.1c0,0.9,0.6,1.3,1.4,1.3C127.2,220.1,127.9,219.7,128.7,219z"/>
					<path class="st2" d="M132,222.6c0-0.7,0.5-1.3,1.2-1.8v-0.1c-0.4-0.3-0.8-0.7-0.8-1.3c0-0.7,0.5-1.2,0.9-1.5v-0.1
						c-0.5-0.4-1.1-1.2-1.1-2.2c0-1.8,1.4-2.9,3.1-2.9c0.4,0,0.9,0.1,1.1,0.2h2.8v1h-1.7c0.4,0.4,0.7,1,0.7,1.7c0,1.7-1.3,2.8-3,2.8
						c-0.4,0-0.9-0.1-1.2-0.3c-0.3,0.3-0.5,0.5-0.5,1c0,0.5,0.3,0.9,1.4,0.9h1.6c1.9,0,2.8,0.6,2.8,1.9c0,1.5-1.6,2.8-4.1,2.8
						C133.4,224.8,132,224,132,222.6z M138.2,222.1c0-0.8-0.6-1-1.7-1h-1.4c-0.3,0-0.7,0-1-0.1c-0.6,0.4-0.8,0.9-0.8,1.4
						c0,0.9,0.9,1.4,2.4,1.4C137.1,223.8,138.2,223,138.2,222.1z M137.1,215.6c0-1.2-0.8-1.9-1.7-1.9s-1.7,0.7-1.7,1.9
						c0,1.2,0.8,1.9,1.7,1.9C136.3,217.5,137.1,216.7,137.1,215.6z"/>
					<path class="st2" d="M140.2,216.9c0-2.6,1.8-4.3,3.7-4.3c2.1,0,3.2,1.5,3.2,3.8c0,0.3,0,0.6-0.1,0.8h-5.5
						c0.1,1.7,1.2,2.8,2.7,2.8c0.8,0,1.4-0.2,2-0.6l0.5,0.9c-0.7,0.5-1.6,0.8-2.7,0.8C142,221.2,140.2,219.6,140.2,216.9z
						 M146,216.3c0-1.7-0.7-2.5-2-2.5c-1.2,0-2.2,0.9-2.3,2.5H146z"/>
					<path class="st2" d="M157.7,221.5l0.1-1.5c-0.7,0.6-1.5,1.1-2.5,1.1c-2,0-3.4-1.5-3.4-4.3c0-2.6,1.7-4.3,3.5-4.3
						c0.9,0,1.6,0.3,2.3,1h0l0.1-0.8h1.1v11.6h-1.4V221.5z M157.7,218.9v-4.3c-0.7-0.6-1.3-0.9-2-0.9c-1.3,0-2.4,1.3-2.4,3.1
						c0,2,0.8,3.1,2.2,3.1C156.4,220.1,157,219.7,157.7,218.9z"/>
					<path class="st2" d="M161.7,218v-5.2h1.4v5c0,1.5,0.5,2.2,1.5,2.2c0.8,0,1.4-0.4,2.2-1.4v-5.8h1.4v8.1h-1.1l-0.1-1.3h0
						c-0.8,0.9-1.6,1.5-2.7,1.5C162.5,221.2,161.7,220.1,161.7,218z"/>
					<path class="st2" d="M170.4,218.9c0-1.8,1.5-2.7,5-3c0-1-0.3-2.1-1.7-2.1c-0.9,0-1.8,0.4-2.4,0.9l-0.5-0.9
						c0.8-0.5,1.9-1.1,3.2-1.1c2,0,2.8,1.3,2.8,3.3v5h-1.1l-0.1-1h0c-0.8,0.6-1.7,1.2-2.7,1.2C171.4,221.2,170.4,220.4,170.4,218.9z
						 M175.4,219v-2.3c-2.7,0.3-3.7,1-3.7,2.1c0,0.9,0.6,1.3,1.4,1.3C174,220.1,174.6,219.7,175.4,219z"/>
					<path class="st2" d="M179.4,219.4v-10.3h1.4v10.4c0,0.4,0.2,0.6,0.4,0.6c0.1,0,0.1,0,0.3,0l0.2,1c-0.2,0.1-0.4,0.1-0.8,0.1
						C179.8,221.2,179.4,220.5,179.4,219.4z"/>
					<path class="st2" d="M183.4,210.3c0-0.6,0.4-0.9,0.9-0.9c0.5,0,0.9,0.3,0.9,0.9c0,0.5-0.4,0.9-0.9,0.9
						C183.8,211.2,183.4,210.8,183.4,210.3z M183.7,212.9h1.4v8.1h-1.4V212.9z"/>
					<path class="st2" d="M188,218.5V214h-1.2v-1l1.3-0.1l0.2-2.3h1.1v2.3h2.2v1.1h-2.2v4.5c0,1,0.3,1.6,1.3,1.6
						c0.3,0,0.7-0.1,0.9-0.2l0.3,1c-0.5,0.2-1,0.3-1.5,0.3C188.6,221.2,188,220.1,188,218.5z"/>
					<path class="st2" d="M192.6,224.3l0.3-1.1c0.2,0.1,0.4,0.1,0.6,0.1c0.9,0,1.5-0.8,1.8-1.8l0.2-0.6l-3.3-8.2h1.4l1.7,4.5
						c0.2,0.7,0.5,1.5,0.8,2.3h0.1c0.2-0.7,0.5-1.6,0.7-2.3l1.5-4.5h1.3l-3.1,8.8c-0.6,1.6-1.4,2.8-3,2.8
						C193.2,224.5,192.9,224.5,192.6,224.3z"/>
					<path class="st2" d="M203.7,220.1l0.7-0.9c0.7,0.6,1.4,1,2.4,1c1.1,0,1.6-0.6,1.6-1.3c0-0.8-1-1.2-1.9-1.5
						c-1.1-0.4-2.4-1-2.4-2.4c0-1.3,1-2.3,2.8-2.3c1,0,1.9,0.4,2.5,0.9l-0.7,0.9c-0.6-0.4-1.1-0.7-1.9-0.7c-1,0-1.5,0.5-1.5,1.2
						c0,0.8,0.9,1.1,1.8,1.4c1.2,0.4,2.5,0.9,2.5,2.5c0,1.3-1,2.4-3,2.4C205.6,221.2,204.5,220.7,203.7,220.1z"/>
					<path class="st2" d="M211.6,212.9h1.1l0.1,0.9h0c0.7-0.6,1.7-1.1,2.6-1.1c2.1,0,3.2,1.6,3.2,4.2c0,2.8-1.7,4.4-3.5,4.4
						c-0.7,0-1.5-0.3-2.2-0.9l0,1.4v2.8h-1.4V212.9z M217.3,216.8c0-1.8-0.6-3-2.1-3c-0.7,0-1.4,0.4-2.2,1.1v4.3
						c0.7,0.6,1.5,0.9,2,0.9C216.4,220.1,217.3,218.8,217.3,216.8z"/>
					<path class="st2" d="M220.3,216.9c0-2.6,1.8-4.3,3.7-4.3c2.1,0,3.2,1.5,3.2,3.8c0,0.3,0,0.6-0.1,0.8h-5.5
						c0.1,1.7,1.2,2.8,2.7,2.8c0.8,0,1.4-0.2,2-0.6l0.5,0.9c-0.7,0.5-1.6,0.8-2.7,0.8C222.1,221.2,220.3,219.6,220.3,216.9z
						 M226,216.3c0-1.7-0.8-2.5-2-2.5c-1.2,0-2.2,0.9-2.3,2.5H226z"/>
					<path class="st2" d="M228.6,216.9c0-2.7,1.8-4.3,3.9-4.3c1.1,0,1.8,0.5,2.4,1l-0.7,0.9c-0.5-0.4-1-0.7-1.6-0.7
						c-1.5,0-2.5,1.3-2.5,3.2s1,3.1,2.5,3.1c0.8,0,1.4-0.3,1.9-0.8l0.6,0.9c-0.7,0.7-1.6,1-2.6,1
						C230.3,221.2,228.6,219.6,228.6,216.9z"/>
					<path class="st2" d="M236,220.1l0.7-0.9c0.7,0.6,1.4,1,2.4,1c1.1,0,1.6-0.6,1.6-1.3c0-0.8-1-1.2-1.9-1.5
						c-1.1-0.4-2.4-1-2.4-2.4c0-1.3,1-2.3,2.8-2.3c1,0,1.9,0.4,2.5,0.9l-0.7,0.9c-0.6-0.4-1.1-0.7-1.9-0.7c-1,0-1.5,0.5-1.5,1.2
						c0,0.8,0.9,1.1,1.8,1.4c1.2,0.4,2.5,0.9,2.5,2.5c0,1.3-1.1,2.4-3,2.4C237.9,221.2,236.8,220.7,236,220.1z"/>
				</g>
				<text transform="matrix(1 0 0 1 242.5319 221)" class="st2 st5 st4"> </text>
				<g class="st1">
					<path class="st2" d="M30.7,286.3h3.8v1h-3.8V286.3z"/>
					<path class="st2" d="M40.1,280h2.8c3.4,0,5.2,2,5.2,5.5c0,3.5-1.8,5.5-5.1,5.5h-2.8V280z M42.7,289.9c2.6,0,3.9-1.6,3.9-4.4
						c0-2.8-1.3-4.3-3.9-4.3h-1.2v8.7H42.7z"/>
					<path class="st2" d="M49.6,286.9c0-2.6,1.8-4.3,3.7-4.3c2.1,0,3.2,1.5,3.2,3.8c0,0.3,0,0.6-0.1,0.8H51c0.1,1.7,1.2,2.8,2.7,2.8
						c0.8,0,1.4-0.2,2-0.6l0.5,0.9c-0.7,0.5-1.6,0.8-2.7,0.8C51.4,291.2,49.6,289.6,49.6,286.9z M55.3,286.3c0-1.7-0.8-2.5-2-2.5
						c-1.2,0-2.2,0.9-2.3,2.5H55.3z"/>
					<path class="st2" d="M57.4,282.9h1.4l1.5,4.6c0.3,0.8,0.5,1.6,0.8,2.4h0.1c0.2-0.8,0.5-1.6,0.8-2.4l1.5-4.6h1.4L62,291h-1.6
						L57.4,282.9z"/>
					<path class="st2" d="M65.8,286.9c0-2.6,1.8-4.3,3.7-4.3c2.1,0,3.2,1.5,3.2,3.8c0,0.3,0,0.6-0.1,0.8h-5.5
						c0.1,1.7,1.2,2.8,2.7,2.8c0.8,0,1.4-0.2,2-0.6l0.5,0.9c-0.7,0.5-1.6,0.8-2.7,0.8C67.5,291.2,65.8,289.6,65.8,286.9z
						 M71.5,286.3c0-1.7-0.8-2.5-2-2.5c-1.2,0-2.2,0.9-2.3,2.5H71.5z"/>
					<path class="st2" d="M74.7,289.4v-10.3h1.4v10.4c0,0.4,0.2,0.6,0.4,0.6c0.1,0,0.1,0,0.3,0l0.2,1c-0.2,0.1-0.4,0.1-0.8,0.1
						C75.1,291.2,74.7,290.5,74.7,289.4z"/>
					<path class="st2" d="M78.4,286.9c0-2.7,1.8-4.3,3.8-4.3c2,0,3.8,1.6,3.8,4.3c0,2.7-1.8,4.3-3.8,4.3
						C80.1,291.2,78.4,289.6,78.4,286.9z M84.5,286.9c0-1.9-1-3.2-2.4-3.2c-1.4,0-2.4,1.3-2.4,3.2s0.9,3.1,2.4,3.1
						C83.5,290.1,84.5,288.8,84.5,286.9z"/>
					<path class="st2" d="M88.1,282.9h1.1l0.1,0.9h0c0.7-0.6,1.6-1.1,2.6-1.1c2.1,0,3.2,1.6,3.2,4.2c0,2.8-1.7,4.4-3.5,4.4
						c-0.7,0-1.5-0.3-2.2-0.9l0,1.4v2.8h-1.4V282.9z M93.8,286.8c0-1.8-0.6-3-2.1-3c-0.7,0-1.4,0.4-2.2,1.1v4.3
						c0.7,0.6,1.5,0.9,2,0.9C92.8,290.1,93.8,288.8,93.8,286.8z"/>
					<path class="st2" d="M100.1,286.9c0-2.6,1.7-4.3,3.5-4.3c1,0,1.6,0.4,2.3,1l-0.1-1.4v-3.1h1.4V291h-1.1l-0.1-1h0
						c-0.6,0.6-1.5,1.2-2.5,1.2C101.5,291.2,100.1,289.7,100.1,286.9z M105.9,288.9v-4.3c-0.7-0.6-1.3-0.9-2-0.9
						c-1.3,0-2.4,1.3-2.4,3.1c0,2,0.8,3.1,2.2,3.1C104.5,290.1,105.2,289.7,105.9,288.9z"/>
					<path class="st2" d="M109.8,280.3c0-0.6,0.4-0.9,0.9-0.9s0.9,0.3,0.9,0.9c0,0.5-0.4,0.9-0.9,0.9S109.8,280.8,109.8,280.3z
						 M110,282.9h1.4v8.1H110V282.9z"/>
					<path class="st2" d="M113.5,286.9c0-2.6,1.8-4.3,3.7-4.3c2.1,0,3.2,1.5,3.2,3.8c0,0.3,0,0.6-0.1,0.8h-5.5
						c0.1,1.7,1.2,2.8,2.7,2.8c0.8,0,1.4-0.2,2-0.6l0.5,0.9c-0.7,0.5-1.6,0.8-2.7,0.8C115.3,291.2,113.5,289.6,113.5,286.9z
						 M119.2,286.3c0-1.7-0.7-2.5-2-2.5c-1.2,0-2.2,0.9-2.3,2.5H119.2z"/>
					<path class="st2" d="M122.5,288.5V284h-1.2v-1l1.3-0.1l0.2-2.3h1.1v2.3h2.2v1.1h-2.2v4.5c0,1,0.3,1.6,1.3,1.6
						c0.3,0,0.7-0.1,0.9-0.2l0.3,1c-0.5,0.2-1,0.3-1.5,0.3C123.1,291.2,122.5,290.1,122.5,288.5z"/>
					<path class="st2" d="M127.1,288.9c0-1.8,1.5-2.7,5-3c0-1-0.3-2.1-1.7-2.1c-0.9,0-1.8,0.4-2.4,0.9l-0.5-0.9
						c0.8-0.5,1.9-1.1,3.2-1.1c2,0,2.8,1.3,2.8,3.3v5h-1.1l-0.1-1h0c-0.8,0.6-1.7,1.2-2.7,1.2C128.1,291.2,127.1,290.4,127.1,288.9z
						 M132.1,289v-2.3c-2.7,0.3-3.7,1-3.7,2.1c0,0.9,0.6,1.3,1.4,1.3C130.6,290.1,131.3,289.7,132.1,289z"/>
					<path class="st2" d="M136,282.9h1.1l0.1,1.5h0c0.6-1,1.4-1.7,2.3-1.7c0.4,0,0.6,0,0.9,0.2l-0.3,1.2c-0.3-0.1-0.5-0.1-0.8-0.1
						c-0.7,0-1.5,0.5-2.1,1.9v5.2H136V282.9z"/>
					<path class="st2" d="M141.5,294.3l0.3-1.1c0.2,0.1,0.4,0.1,0.6,0.1c0.9,0,1.5-0.8,1.8-1.8l0.2-0.6l-3.3-8.2h1.4l1.7,4.5
						c0.2,0.7,0.5,1.5,0.8,2.3h0.1c0.2-0.7,0.5-1.6,0.7-2.3l1.5-4.5h1.3l-3.1,8.8c-0.6,1.6-1.4,2.8-3,2.8
						C142,294.5,141.7,294.5,141.5,294.3z"/>
					<path class="st2" d="M153.2,280.3c0-0.6,0.4-0.9,0.9-0.9s0.9,0.3,0.9,0.9c0,0.5-0.4,0.9-0.9,0.9S153.2,280.8,153.2,280.3z
						 M153.5,282.9h1.4v8.1h-1.4V282.9z"/>
					<path class="st2" d="M157.6,282.9h1.1l0.1,1.2h0c0.8-0.8,1.6-1.4,2.7-1.4c1.7,0,2.5,1.1,2.5,3.2v5.2h-1.4v-5
						c0-1.5-0.5-2.2-1.5-2.2c-0.8,0-1.4,0.4-2.2,1.2v5.9h-1.4V282.9z"/>
					<path class="st2" d="M166.1,292.6c0-0.7,0.4-1.3,1.2-1.8v-0.1c-0.4-0.3-0.8-0.7-0.8-1.3c0-0.7,0.5-1.2,0.9-1.5v-0.1
						c-0.5-0.4-1.1-1.2-1.1-2.2c0-1.8,1.4-2.9,3.1-2.9c0.4,0,0.9,0.1,1.1,0.2h2.8v1h-1.7c0.4,0.4,0.7,1,0.7,1.7c0,1.7-1.3,2.8-3,2.8
						c-0.4,0-0.9-0.1-1.2-0.3c-0.3,0.3-0.5,0.5-0.5,1c0,0.5,0.3,0.9,1.4,0.9h1.6c1.9,0,2.8,0.6,2.8,1.9c0,1.5-1.6,2.8-4.1,2.8
						C167.5,294.8,166.1,294,166.1,292.6z M172.3,292.1c0-0.8-0.6-1-1.7-1h-1.4c-0.3,0-0.7,0-1.1-0.1c-0.6,0.4-0.8,0.9-0.8,1.4
						c0,0.9,0.9,1.4,2.4,1.4C171.3,293.8,172.3,293,172.3,292.1z M171.2,285.6c0-1.2-0.8-1.9-1.7-1.9c-1,0-1.7,0.7-1.7,1.9
						c0,1.2,0.8,1.9,1.7,1.9C170.4,287.5,171.2,286.7,171.2,285.6z"/>
					<path class="st2" d="M175.2,282.9h1.1l0.1,1.5h0c0.6-1,1.4-1.7,2.3-1.7c0.4,0,0.6,0,0.9,0.2l-0.3,1.2c-0.3-0.1-0.5-0.1-0.8-0.1
						c-0.7,0-1.5,0.5-2.1,1.9v5.2h-1.4V282.9z"/>
					<path class="st2" d="M180.3,286.9c0-2.6,1.8-4.3,3.7-4.3c2.1,0,3.2,1.5,3.2,3.8c0,0.3,0,0.6-0.1,0.8h-5.5
						c0.1,1.7,1.2,2.8,2.7,2.8c0.8,0,1.4-0.2,2-0.6l0.5,0.9c-0.7,0.5-1.6,0.8-2.7,0.8C182,291.2,180.3,289.6,180.3,286.9z
						 M186,286.3c0-1.7-0.8-2.5-2-2.5c-1.2,0-2.2,0.9-2.3,2.5H186z"/>
					<path class="st2" d="M188.6,286.9c0-2.6,1.7-4.3,3.5-4.3c1,0,1.6,0.4,2.3,1l-0.1-1.4v-3.1h1.4V291h-1.1l-0.1-1h0
						c-0.6,0.6-1.5,1.2-2.5,1.2C189.9,291.2,188.6,289.7,188.6,286.9z M194.3,288.9v-4.3c-0.7-0.6-1.3-0.9-2-0.9
						c-1.3,0-2.4,1.3-2.4,3.1c0,2,0.8,3.1,2.2,3.1C193,290.1,193.7,289.7,194.3,288.9z"/>
					<path class="st2" d="M198.2,280.3c0-0.6,0.4-0.9,0.9-0.9c0.5,0,0.9,0.3,0.9,0.9c0,0.5-0.4,0.9-0.9,0.9
						C198.6,281.2,198.2,280.8,198.2,280.3z M198.5,282.9h1.4v8.1h-1.4V282.9z"/>
					<path class="st2" d="M202,286.9c0-2.6,1.8-4.3,3.7-4.3c2.1,0,3.2,1.5,3.2,3.8c0,0.3,0,0.6-0.1,0.8h-5.5
						c0.1,1.7,1.2,2.8,2.7,2.8c0.8,0,1.4-0.2,2-0.6l0.5,0.9c-0.7,0.5-1.6,0.8-2.7,0.8C203.7,291.2,202,289.6,202,286.9z
						 M207.7,286.3c0-1.7-0.8-2.5-2-2.5c-1.2,0-2.2,0.9-2.3,2.5H207.7z"/>
					<path class="st2" d="M210.9,282.9h1.1l0.1,1.2h0c0.8-0.8,1.6-1.4,2.7-1.4c1.7,0,2.5,1.1,2.5,3.2v5.2h-1.4v-5
						c0-1.5-0.5-2.2-1.5-2.2c-0.8,0-1.4,0.4-2.2,1.2v5.9h-1.4V282.9z"/>
					<path class="st2" d="M220.3,288.5V284h-1.2v-1l1.3-0.1l0.2-2.3h1.1v2.3h2.2v1.1h-2.2v4.5c0,1,0.3,1.6,1.3,1.6
						c0.3,0,0.7-0.1,0.9-0.2l0.3,1c-0.5,0.2-1,0.3-1.5,0.3C220.9,291.2,220.3,290.1,220.3,288.5z"/>
					<path class="st2" d="M224.7,290.1l0.7-0.9c0.7,0.6,1.4,1,2.4,1c1.1,0,1.6-0.6,1.6-1.3c0-0.8-1-1.2-1.9-1.5
						c-1.1-0.4-2.4-1-2.4-2.4c0-1.3,1-2.3,2.8-2.3c1,0,1.9,0.4,2.5,0.9l-0.7,0.9c-0.6-0.4-1.1-0.7-1.9-0.7c-1,0-1.5,0.5-1.5,1.2
						c0,0.8,0.9,1.1,1.8,1.4c1.2,0.4,2.5,0.9,2.5,2.5c0,1.3-1,2.4-3,2.4C226.5,291.2,225.4,290.7,224.7,290.1z"/>
					<path class="st2" d="M239.6,280.2c-0.3-0.1-0.6-0.2-0.9-0.2c-0.8,0-1.2,0.6-1.2,1.6v1.3h1.7v1.1h-1.7v7h-1.4v-7h-1.1v-1
						l1.1-0.1v-1.3c0-1.7,0.8-2.7,2.4-2.7c0.5,0,1,0.1,1.4,0.3L239.6,280.2z"/>
					<path class="st2" d="M240,286.9c0-2.7,1.8-4.3,3.8-4.3c2,0,3.8,1.6,3.8,4.3c0,2.7-1.8,4.3-3.8,4.3
						C241.8,291.2,240,289.6,240,286.9z M246.2,286.9c0-1.9-1-3.2-2.4-3.2s-2.4,1.3-2.4,3.2s0.9,3.1,2.4,3.1
						S246.2,288.8,246.2,286.9z"/>
					<path class="st2" d="M249.7,282.9h1.1l0.1,1.5h0c0.6-1,1.4-1.7,2.3-1.7c0.4,0,0.6,0,0.9,0.2L254,284c-0.3-0.1-0.5-0.1-0.8-0.1
						c-0.7,0-1.5,0.5-2.1,1.9v5.2h-1.4V282.9z"/>
					<path class="st2" d="M260.2,290.2L260.2,290.2L260,291h-1.1v-11.9h1.4v3.3l0,1.5c0.7-0.6,1.7-1.2,2.6-1.2
						c2.1,0,3.3,1.6,3.3,4.1c0,2.8-1.7,4.4-3.5,4.4C261.8,291.2,260.9,290.8,260.2,290.2z M264.6,286.8c0-1.8-0.6-3-2.1-3
						c-0.7,0-1.4,0.4-2.2,1.1v4.3c0.7,0.6,1.5,0.9,2,0.9C263.6,290.1,264.6,288.8,264.6,286.8z"/>
					<path class="st2" d="M268.2,282.9h1.1l0.1,1.5h0c0.6-1,1.4-1.7,2.3-1.7c0.4,0,0.6,0,0.9,0.2l-0.3,1.2c-0.3-0.1-0.5-0.1-0.8-0.1
						c-0.7,0-1.5,0.5-2.1,1.9v5.2h-1.4V282.9z"/>
					<path class="st2" d="M273.1,288.9c0-1.8,1.5-2.7,5-3c0-1-0.3-2.1-1.7-2.1c-0.9,0-1.8,0.4-2.4,0.9l-0.5-0.9
						c0.8-0.5,1.9-1.1,3.2-1.1c2,0,2.8,1.3,2.8,3.3v5h-1.1l-0.1-1h0c-0.8,0.6-1.7,1.2-2.7,1.2C274.1,291.2,273.1,290.4,273.1,288.9z
						 M278.1,289v-2.3c-2.7,0.3-3.7,1-3.7,2.1c0,0.9,0.6,1.3,1.4,1.3C276.7,290.1,277.3,289.7,278.1,289z"/>
					<path class="st2" d="M281.8,280.3c0-0.6,0.4-0.9,0.9-0.9c0.5,0,0.9,0.3,0.9,0.9c0,0.5-0.4,0.9-0.9,0.9
						C282.2,281.2,281.8,280.8,281.8,280.3z M282.1,282.9h1.4v8.1h-1.4V282.9z"/>
					<path class="st2" d="M286.2,282.9h1.1l0.1,1.2h0c0.8-0.8,1.6-1.4,2.7-1.4c1.7,0,2.5,1.1,2.5,3.2v5.2h-1.4v-5
						c0-1.5-0.5-2.2-1.5-2.2c-0.8,0-1.4,0.4-2.2,1.2v5.9h-1.4V282.9z"/>
				</g>
				<g class="st1">
					<path class="st2" d="M35,315.2c-0.3-0.1-0.6-0.2-0.9-0.2c-0.8,0-1.2,0.6-1.2,1.6v1.3h1.7v1.1H33v7h-1.4v-7h-1.1v-1l1.1-0.1
						v-1.3c0-1.7,0.8-2.7,2.4-2.7c0.5,0,1,0.1,1.4,0.3L35,315.2z"/>
					<path class="st2" d="M36.1,323v-5.2h1.4v5c0,1.5,0.5,2.2,1.5,2.2c0.8,0,1.4-0.4,2.2-1.4v-5.8h1.4v8.1h-1.1l-0.1-1.3h0
						c-0.8,0.9-1.6,1.5-2.7,1.5C36.9,326.2,36.1,325.1,36.1,323z"/>
					<path class="st2" d="M45.4,317.9h1.1l0.1,1.2h0c0.8-0.8,1.6-1.4,2.7-1.4c1.7,0,2.5,1.1,2.5,3.2v5.2h-1.4v-5
						c0-1.5-0.5-2.2-1.5-2.2c-0.8,0-1.4,0.4-2.2,1.2v5.9h-1.4V317.9z"/>
					<path class="st2" d="M53.9,321.9c0-2.7,1.8-4.3,3.9-4.3c1.1,0,1.8,0.5,2.4,1l-0.7,0.9c-0.5-0.4-1-0.7-1.6-0.7
						c-1.5,0-2.5,1.3-2.5,3.2s1,3.1,2.5,3.1c0.8,0,1.4-0.3,1.9-0.8l0.6,0.9c-0.7,0.7-1.6,1-2.6,1C55.6,326.2,53.9,324.6,53.9,321.9z
						"/>
					<path class="st2" d="M62.2,323.5V319H61v-1l1.3-0.1l0.2-2.3h1.1v2.3h2.2v1.1h-2.2v4.5c0,1,0.3,1.6,1.3,1.6
						c0.3,0,0.7-0.1,0.9-0.2l0.3,1c-0.5,0.2-1,0.3-1.5,0.3C62.8,326.2,62.2,325.1,62.2,323.5z"/>
					<path class="st2" d="M67.4,315.3c0-0.6,0.4-0.9,0.9-0.9s0.9,0.3,0.9,0.9c0,0.5-0.4,0.9-0.9,0.9S67.4,315.8,67.4,315.3z
						 M67.6,317.9H69v8.1h-1.4V317.9z"/>
					<path class="st2" d="M71.2,321.9c0-2.7,1.8-4.3,3.8-4.3c2,0,3.8,1.6,3.8,4.3c0,2.7-1.8,4.3-3.8,4.3
						C72.9,326.2,71.2,324.6,71.2,321.9z M77.3,321.9c0-1.9-1-3.2-2.4-3.2c-1.4,0-2.4,1.3-2.4,3.2s0.9,3.1,2.4,3.1
						C76.3,325.1,77.3,323.8,77.3,321.9z"/>
					<path class="st2" d="M80.9,317.9H82l0.1,1.2h0c0.8-0.8,1.6-1.4,2.7-1.4c1.7,0,2.5,1.1,2.5,3.2v5.2H86v-5c0-1.5-0.5-2.2-1.5-2.2
						c-0.8,0-1.4,0.4-2.2,1.2v5.9h-1.4V317.9z"/>
					<path class="st2" d="M93.3,323v-5.2h1.4v5c0,1.5,0.4,2.2,1.5,2.2c0.8,0,1.4-0.4,2.2-1.4v-5.8h1.4v8.1h-1.1l-0.1-1.3h0
						c-0.8,0.9-1.6,1.5-2.7,1.5C94,326.2,93.3,325.1,93.3,323z"/>
					<path class="st2" d="M101.6,325.1l0.7-0.9c0.7,0.6,1.4,1,2.4,1c1.1,0,1.6-0.6,1.6-1.3c0-0.8-1-1.2-1.9-1.5
						c-1.1-0.4-2.4-1-2.4-2.4c0-1.3,1-2.3,2.8-2.3c1,0,1.9,0.4,2.5,0.9l-0.7,0.9c-0.6-0.4-1.1-0.7-1.9-0.7c-1,0-1.5,0.5-1.5,1.2
						c0,0.8,0.9,1.1,1.8,1.4c1.2,0.4,2.5,0.9,2.5,2.5c0,1.3-1,2.4-3,2.4C103.5,326.2,102.4,325.7,101.6,325.1z"/>
					<path class="st2" d="M109.3,315.3c0-0.6,0.4-0.9,0.9-0.9s0.9,0.3,0.9,0.9c0,0.5-0.4,0.9-0.9,0.9S109.3,315.8,109.3,315.3z
						 M109.5,317.9h1.4v8.1h-1.4V317.9z"/>
					<path class="st2" d="M113.6,317.9h1.1l0.1,1.2h0c0.8-0.8,1.6-1.4,2.7-1.4c1.7,0,2.5,1.1,2.5,3.2v5.2h-1.4v-5
						c0-1.5-0.5-2.2-1.5-2.2c-0.8,0-1.4,0.4-2.2,1.2v5.9h-1.4V317.9z"/>
					<path class="st2" d="M122.2,327.6c0-0.7,0.5-1.3,1.2-1.8v-0.1c-0.4-0.3-0.8-0.7-0.8-1.3c0-0.7,0.5-1.2,0.9-1.5v-0.1
						c-0.5-0.4-1.1-1.2-1.1-2.2c0-1.8,1.4-2.9,3.1-2.9c0.4,0,0.9,0.1,1.1,0.2h2.8v1h-1.7c0.4,0.4,0.7,1,0.7,1.7c0,1.7-1.3,2.8-3,2.8
						c-0.4,0-0.9-0.1-1.2-0.3c-0.3,0.3-0.5,0.5-0.5,1c0,0.5,0.3,0.9,1.4,0.9h1.6c1.9,0,2.8,0.6,2.8,1.9c0,1.5-1.6,2.8-4.1,2.8
						C123.6,329.8,122.2,329,122.2,327.6z M128.3,327.1c0-0.8-0.6-1-1.7-1h-1.4c-0.3,0-0.7,0-1-0.1c-0.6,0.4-0.8,0.9-0.8,1.4
						c0,0.9,0.9,1.4,2.4,1.4C127.3,328.8,128.3,328,128.3,327.1z M127.3,320.6c0-1.2-0.8-1.9-1.7-1.9s-1.7,0.7-1.7,1.9
						c0,1.2,0.8,1.9,1.7,1.9C126.5,322.5,127.3,321.7,127.3,320.6z"/>
					<path class="st2" d="M134.6,317.9h1.1l0.1,1.2h0c0.7-0.8,1.6-1.4,2.5-1.4c1.2,0,1.9,0.6,2.2,1.6c0.8-0.9,1.7-1.6,2.7-1.6
						c1.7,0,2.5,1.1,2.5,3.2v5.2h-1.4v-5c0-1.5-0.5-2.2-1.5-2.2c-0.6,0-1.3,0.4-2.1,1.2v5.9h-1.4v-5c0-1.5-0.5-2.2-1.5-2.2
						c-0.6,0-1.3,0.4-2.1,1.2v5.9h-1.4V317.9z"/>
					<path class="st2" d="M148.2,315.3c0-0.6,0.4-0.9,0.9-0.9s0.9,0.3,0.9,0.9c0,0.5-0.4,0.9-0.9,0.9S148.2,315.8,148.2,315.3z
						 M148.5,317.9h1.4v8.1h-1.4V317.9z"/>
					<path class="st2" d="M152,321.9c0-2.7,1.8-4.3,3.9-4.3c1.1,0,1.8,0.5,2.4,1l-0.7,0.9c-0.5-0.4-1-0.7-1.6-0.7
						c-1.5,0-2.5,1.3-2.5,3.2s1,3.1,2.5,3.1c0.8,0,1.4-0.3,1.9-0.8l0.6,0.9c-0.7,0.7-1.6,1-2.6,1C153.7,326.2,152,324.6,152,321.9z"
						/>
					<path class="st2" d="M160.3,317.9h1.1l0.1,1.5h0c0.6-1,1.4-1.7,2.3-1.7c0.4,0,0.6,0,0.9,0.2l-0.3,1.2c-0.3-0.1-0.5-0.1-0.8-0.1
						c-0.7,0-1.5,0.5-2.1,1.9v5.2h-1.4V317.9z"/>
					<path class="st2" d="M165.3,321.9c0-2.7,1.8-4.3,3.8-4.3c2,0,3.8,1.6,3.8,4.3c0,2.7-1.8,4.3-3.8,4.3
						C167.1,326.2,165.3,324.6,165.3,321.9z M171.4,321.9c0-1.9-1-3.2-2.4-3.2s-2.4,1.3-2.4,3.2s0.9,3.1,2.4,3.1
						S171.4,323.8,171.4,321.9z"/>
					<path class="st2" d="M176.3,325.2L176.3,325.2l-0.2,0.8H175v-11.9h1.4v3.3l0,1.5c0.7-0.6,1.7-1.2,2.6-1.2
						c2.1,0,3.3,1.6,3.3,4.1c0,2.8-1.7,4.4-3.5,4.4C177.8,326.2,177,325.8,176.3,325.2z M180.7,321.8c0-1.8-0.6-3-2.1-3
						c-0.7,0-1.4,0.4-2.2,1.1v4.3c0.7,0.6,1.5,0.9,2,0.9C179.7,325.1,180.7,323.8,180.7,321.8z"/>
					<path class="st2" d="M184,315.3c0-0.6,0.4-0.9,0.9-0.9s0.9,0.3,0.9,0.9c0,0.5-0.4,0.9-0.9,0.9S184,315.8,184,315.3z
						 M184.3,317.9h1.4v8.1h-1.4V317.9z"/>
					<path class="st2" d="M187.8,321.9c0-2.7,1.8-4.3,3.8-4.3c2,0,3.8,1.6,3.8,4.3c0,2.7-1.8,4.3-3.8,4.3
						C189.6,326.2,187.8,324.6,187.8,321.9z M193.9,321.9c0-1.9-1-3.2-2.4-3.2s-2.4,1.3-2.4,3.2s0.9,3.1,2.4,3.1
						S193.9,323.8,193.9,321.9z"/>
					<path class="st2" d="M197.5,317.9h1.1l0.1,1.2h0c0.7-0.8,1.6-1.4,2.5-1.4c1.2,0,1.9,0.6,2.2,1.6c0.8-0.9,1.7-1.6,2.7-1.6
						c1.7,0,2.5,1.1,2.5,3.2v5.2h-1.4v-5c0-1.5-0.5-2.2-1.5-2.2c-0.6,0-1.3,0.4-2.1,1.2v5.9h-1.4v-5c0-1.5-0.5-2.2-1.5-2.2
						c-0.6,0-1.3,0.4-2.1,1.2v5.9h-1.4V317.9z"/>
					<path class="st2" d="M210.8,321.9c0-2.6,1.8-4.3,3.7-4.3c2.1,0,3.2,1.5,3.2,3.8c0,0.3,0,0.6-0.1,0.8h-5.5
						c0.1,1.7,1.2,2.8,2.7,2.8c0.8,0,1.4-0.2,2-0.6l0.5,0.9c-0.7,0.5-1.6,0.8-2.7,0.8C212.5,326.2,210.8,324.6,210.8,321.9z
						 M216.5,321.3c0-1.7-0.8-2.5-2-2.5c-1.2,0-2.2,0.9-2.3,2.5H216.5z"/>
				</g>
			</g>
			
				<g id="arrow" transform="translate(167.500000, 449.500000) rotate(-270.000000) translate(-167.500000, -449.500000) translate(117.000000, 439.500000)">
				<path id="Line" class="st6" d="M0.5,10h100"/>
				<polyline id="Stroke-1" class="st7" points="90,0 101,10 90,20 				"/>
				<polyline class="st7" points="11,20 0,10 11,0 				"/>
			</g>
			<g id="box3" transform="translate(0.000000, 519.500000)">
				<path class="st8" d="M9,1h316c4.4,0,8,3.6,8,8v132c0,4.4-3.6,8-8,8H9c-4.4,0-8-3.6-8-8V9C1,4.6,4.6,1,9,1z"/>
				<g class="st1">
					<path class="st9" d="M20.6,52.7c0-3.6,2.2-5.8,5.1-5.8c1.6,0,2.6,0.7,3.3,1.4l-0.9,1.1c-0.5-0.6-1.2-1-2.3-1
						c-2.1,0-3.4,1.6-3.4,4.2c0,2.6,1.2,4.2,3.5,4.2c0.7,0,1.4-0.2,1.7-0.5v-2.6h-2.2v-1.4h3.8v4.8c-0.7,0.7-2,1.3-3.5,1.3
						C22.7,58.4,20.6,56.3,20.6,52.7z"/>
					<path class="st9" d="M31.5,56.3v-10h1.7v10.1c0,0.5,0.2,0.6,0.4,0.6c0.1,0,0.1,0,0.3,0l0.2,1.3c-0.2,0.1-0.5,0.1-0.9,0.1
						C32,58.4,31.5,57.6,31.5,56.3z"/>
					<path class="st9" d="M35.4,54.1c0-2.8,1.8-4.4,3.9-4.4s3.9,1.6,3.9,4.4c0,2.7-1.8,4.3-3.9,4.3S35.4,56.8,35.4,54.1z M41.4,54.1
						c0-1.8-0.8-2.9-2.1-2.9c-1.3,0-2.1,1.2-2.1,2.9c0,1.7,0.8,2.9,2.1,2.9C40.6,57,41.4,55.8,41.4,54.1z"/>
					<path class="st9" d="M46.8,57.3L46.8,57.3l-0.2,0.9h-1.3v-12h1.7v3.2l0,1.4c0.7-0.6,1.6-1.1,2.5-1.1c2.1,0,3.3,1.7,3.3,4.2
						c0,2.8-1.7,4.5-3.6,4.5C48.3,58.4,47.5,58,46.8,57.3z M50.8,54c0-1.7-0.6-2.8-1.9-2.8c-0.6,0-1.3,0.3-2,1v4
						c0.6,0.6,1.3,0.8,1.8,0.8C49.9,57,50.8,55.9,50.8,54z"/>
					<path class="st9" d="M54,56c0-1.8,1.5-2.7,4.9-3.1c0-1-0.4-1.8-1.6-1.8c-0.9,0-1.7,0.4-2.4,0.8l-0.6-1.2c0.9-0.5,2-1.1,3.3-1.1
						c2.1,0,3,1.3,3,3.5v5h-1.4L59,57.2h0c-0.8,0.6-1.6,1.1-2.6,1.1C55,58.4,54,57.5,54,56z M58.9,56.1v-2c-2.4,0.3-3.3,0.9-3.3,1.8
						c0,0.8,0.6,1.1,1.3,1.1C57.6,57,58.2,56.7,58.9,56.1z"/>
					<path class="st9" d="M63.1,56.3v-10h1.7v10.1c0,0.5,0.2,0.6,0.4,0.6c0.1,0,0.1,0,0.3,0l0.2,1.3c-0.2,0.1-0.5,0.1-0.9,0.1
						C63.5,58.4,63.1,57.6,63.1,56.3z"/>
					<path class="st9" d="M70.6,46.2h1.2l-4.2,14.7h-1.2L70.6,46.2z"/>
					<path class="st9" d="M73.5,47.2h1.7v5.2h0l4.2-5.2h1.9L78,51.4l4,6.8h-1.9L77,52.8l-1.7,2.1v3.3h-1.7V47.2z"/>
					<path class="st9" d="M82.6,54.1c0-2.8,1.8-4.4,3.9-4.4s3.9,1.6,3.9,4.4c0,2.7-1.8,4.3-3.9,4.3S82.6,56.8,82.6,54.1z M88.6,54.1
						c0-1.8-0.8-2.9-2.1-2.9c-1.3,0-2.1,1.2-2.1,2.9c0,1.7,0.8,2.9,2.1,2.9C87.8,57,88.6,55.8,88.6,54.1z"/>
					<path class="st9" d="M92.4,49.9h1.4l0.1,1.5h0c0.6-1.1,1.5-1.7,2.3-1.7c0.4,0,0.7,0.1,0.9,0.2l-0.3,1.5
						c-0.3-0.1-0.5-0.1-0.8-0.1c-0.7,0-1.5,0.5-2,1.8v5.1h-1.7V49.9z"/>
					<path class="st9" d="M97.7,54.1c0-2.7,1.8-4.4,3.8-4.4c2.2,0,3.4,1.6,3.4,3.9c0,0.3,0,0.7-0.1,0.9h-5.4
						c0.1,1.6,1.1,2.5,2.5,2.5c0.7,0,1.4-0.2,2-0.6l0.6,1.1c-0.8,0.5-1.7,0.9-2.8,0.9C99.5,58.4,97.7,56.8,97.7,54.1z M103.4,53.3
						c0-1.4-0.6-2.2-1.8-2.2c-1,0-1.9,0.8-2.1,2.2H103.4z"/>
					<path class="st9" d="M106.1,56c0-1.8,1.5-2.7,4.9-3.1c0-1-0.4-1.8-1.6-1.8c-0.9,0-1.7,0.4-2.4,0.8l-0.6-1.2
						c0.9-0.5,2-1.1,3.3-1.1c2.1,0,3,1.3,3,3.5v5h-1.4l-0.2-0.9h0c-0.8,0.6-1.6,1.1-2.6,1.1C107.1,58.4,106.1,57.5,106.1,56z
						 M111,56.1v-2c-2.4,0.3-3.3,0.9-3.3,1.8c0,0.8,0.6,1.1,1.3,1.1C109.8,57,110.4,56.7,111,56.1z"/>
					<path class="st9" d="M115.2,49.9h1.4l0.1,1.1h0c0.8-0.7,1.6-1.4,2.7-1.4c1.8,0,2.5,1.2,2.5,3.3v5.2h-1.7v-5c0-1.4-0.4-2-1.4-2
						c-0.8,0-1.3,0.4-2,1.1v5.8h-1.7V49.9z"/>
					<path class="st9" d="M127.9,49.9h1.4l0.1,1.2h0c0.7-0.8,1.5-1.4,2.5-1.4c1.2,0,1.9,0.6,2.3,1.5c0.8-0.9,1.7-1.5,2.7-1.5
						c1.7,0,2.5,1.2,2.5,3.3v5.2h-1.7v-5c0-1.4-0.5-2-1.4-2c-0.6,0-1.2,0.4-1.9,1.1v5.8h-1.7v-5c0-1.4-0.4-2-1.4-2
						c-0.6,0-1.2,0.4-1.9,1.1v5.8h-1.7V49.9z"/>
					<path class="st9" d="M141.6,56c0-1.8,1.5-2.7,4.9-3.1c0-1-0.4-1.8-1.6-1.8c-0.9,0-1.7,0.4-2.4,0.8l-0.6-1.2
						c0.9-0.5,2-1.1,3.3-1.1c2.1,0,3,1.3,3,3.5v5h-1.4l-0.2-0.9h0c-0.8,0.6-1.6,1.1-2.6,1.1C142.6,58.4,141.6,57.5,141.6,56z
						 M146.5,56.1v-2c-2.4,0.3-3.3,0.9-3.3,1.8c0,0.8,0.6,1.1,1.3,1.1C145.3,57,145.9,56.7,146.5,56.1z"/>
					<path class="st9" d="M150.7,49.9h1.4l0.1,1.5h0c0.6-1.1,1.5-1.7,2.3-1.7c0.4,0,0.7,0.1,0.9,0.2l-0.3,1.5
						c-0.3-0.1-0.5-0.1-0.8-0.1c-0.7,0-1.5,0.5-2,1.8v5.1h-1.7V49.9z"/>
					<path class="st9" d="M156.8,46.2h1.7V54h0l3.2-4h1.9l-2.8,3.3l3.1,4.9h-1.9l-2.2-3.7l-1.4,1.6v2.1h-1.7V46.2z"/>
					<path class="st9" d="M164.5,54.1c0-2.7,1.8-4.4,3.8-4.4c2.2,0,3.4,1.6,3.4,3.9c0,0.3,0,0.7-0.1,0.9h-5.4
						c0.1,1.6,1.1,2.5,2.5,2.5c0.7,0,1.4-0.2,2-0.6l0.6,1.1c-0.8,0.5-1.7,0.9-2.8,0.9C166.3,58.4,164.5,56.8,164.5,54.1z
						 M170.2,53.3c0-1.4-0.6-2.2-1.8-2.2c-1,0-1.9,0.8-2.1,2.2H170.2z"/>
					<path class="st9" d="M173.7,55.5v-4.2h-1.2V50l1.3-0.1l0.2-2.3h1.5v2.3h2.1v1.4h-2.1v4.2c0,1,0.3,1.5,1.2,1.5
						c0.3,0,0.6-0.1,0.9-0.2l0.3,1.3c-0.5,0.2-1,0.3-1.6,0.3C174.3,58.4,173.7,57.2,173.7,55.5z"/>
					<path class="st9" d="M182.7,56.3v-10h1.7v10.1c0,0.5,0.2,0.6,0.4,0.6c0.1,0,0.1,0,0.3,0l0.2,1.3c-0.2,0.1-0.5,0.1-0.9,0.1
						C183.2,58.4,182.7,57.6,182.7,56.3z"/>
					<path class="st9" d="M186.7,56c0-1.8,1.5-2.7,4.9-3.1c0-1-0.4-1.8-1.6-1.8c-0.9,0-1.7,0.4-2.4,0.8l-0.6-1.2
						c0.9-0.5,2-1.1,3.3-1.1c2.1,0,3,1.3,3,3.5v5H192l-0.1-0.9h0c-0.8,0.6-1.6,1.1-2.6,1.1C187.7,58.4,186.7,57.5,186.7,56z
						 M191.6,56.1v-2c-2.4,0.3-3.3,0.9-3.3,1.8c0,0.8,0.6,1.1,1.3,1.1C190.4,57,191,56.7,191.6,56.1z"/>
					<path class="st9" d="M195.7,55.1v-5.2h1.7v5c0,1.4,0.4,2,1.4,2c0.8,0,1.3-0.4,2-1.2v-5.7h1.7v8.2h-1.4L201,57h0
						c-0.8,0.9-1.6,1.4-2.7,1.4C196.5,58.4,195.7,57.2,195.7,55.1z"/>
					<path class="st9" d="M205.1,49.9h1.4l0.1,1.1h0c0.8-0.7,1.6-1.4,2.7-1.4c1.8,0,2.5,1.2,2.5,3.3v5.2h-1.7v-5c0-1.4-0.4-2-1.4-2
						c-0.8,0-1.3,0.4-2,1.1v5.8h-1.7V49.9z"/>
					<path class="st9" d="M213.9,54.1c0-2.8,1.9-4.4,4.1-4.4c1,0,1.8,0.4,2.4,0.9l-0.9,1.1c-0.5-0.4-0.9-0.6-1.5-0.6
						c-1.4,0-2.4,1.2-2.4,2.9c0,1.7,0.9,2.9,2.3,2.9c0.7,0,1.3-0.3,1.8-0.8l0.7,1.1c-0.7,0.7-1.7,1-2.7,1
						C215.6,58.4,213.9,56.8,213.9,54.1z"/>
					<path class="st9" d="M222.2,46.2h1.7v3.2l-0.1,1.6c0.7-0.7,1.5-1.3,2.7-1.3c1.8,0,2.5,1.2,2.5,3.3v5.2h-1.7v-5
						c0-1.4-0.4-2-1.4-2c-0.8,0-1.3,0.4-2,1.1v5.8h-1.7V46.2z"/>
					<path class="st9" d="M234.3,54.1c0-2.8,1.8-4.4,3.9-4.4s3.9,1.6,3.9,4.4c0,2.7-1.8,4.3-3.9,4.3S234.3,56.8,234.3,54.1z
						 M240.3,54.1c0-1.8-0.8-2.9-2.1-2.9c-1.3,0-2.1,1.2-2.1,2.9c0,1.7,0.8,2.9,2.1,2.9C239.5,57,240.3,55.8,240.3,54.1z"/>
					<path class="st9" d="M248.1,47.6c-0.3-0.1-0.6-0.2-0.9-0.2c-0.7,0-1.1,0.5-1.1,1.5v1h1.7v1.4h-1.7v6.9h-1.7v-6.9h-1.1V50
						l1.1-0.1v-1c0-1.7,0.8-2.9,2.6-2.9c0.6,0,1.1,0.1,1.5,0.3L248.1,47.6z"/>
					<path class="st9" d="M252.6,49.9h1.4l0.1,0.9h0c0.7-0.6,1.6-1.1,2.5-1.1c2.1,0,3.3,1.7,3.3,4.2c0,2.8-1.7,4.5-3.6,4.5
						c-0.7,0-1.5-0.3-2.2-0.9l0,1.4v2.7h-1.7V49.9z M258.2,54c0-1.7-0.6-2.8-1.9-2.8c-0.6,0-1.3,0.3-2,1v4c0.6,0.6,1.3,0.8,1.8,0.8
						C257.3,57,258.2,55.9,258.2,54z"/>
					<path class="st9" d="M262.1,49.9h1.4l0.1,1.5h0c0.6-1.1,1.5-1.7,2.3-1.7c0.4,0,0.7,0.1,0.9,0.2l-0.3,1.5
						c-0.3-0.1-0.5-0.1-0.8-0.1c-0.7,0-1.5,0.5-2,1.8v5.1h-1.7V49.9z"/>
					<path class="st9" d="M267.5,54.1c0-2.8,1.8-4.4,3.9-4.4s3.9,1.6,3.9,4.4c0,2.7-1.8,4.3-3.9,4.3S267.5,56.8,267.5,54.1z
						 M273.5,54.1c0-1.8-0.8-2.9-2.1-2.9c-1.3,0-2.1,1.2-2.1,2.9c0,1.7,0.8,2.9,2.1,2.9C272.7,57,273.5,55.8,273.5,54.1z"/>
					<path class="st9" d="M276.7,54.1c0-2.7,1.7-4.4,3.5-4.4c0.9,0,1.5,0.4,2.2,0.9l-0.1-1.4v-3.1h1.7v12h-1.4l-0.1-0.9h0
						c-0.6,0.6-1.5,1.1-2.4,1.1C278,58.4,276.7,56.8,276.7,54.1z M282.4,56v-4c-0.6-0.6-1.2-0.8-1.8-0.8c-1.2,0-2.1,1.1-2.1,2.9
						c0,1.9,0.7,2.9,2,2.9C281.2,57,281.8,56.7,282.4,56z"/>
					<path class="st9" d="M286.6,55.1v-5.2h1.7v5c0,1.4,0.4,2,1.4,2c0.8,0,1.3-0.4,2-1.2v-5.7h1.7v8.2H292l-0.1-1.2h0
						c-0.8,0.9-1.6,1.4-2.7,1.4C287.4,58.4,286.6,57.2,286.6,55.1z"/>
					<path class="st9" d="M295.4,54.1c0-2.8,1.9-4.4,4.1-4.4c1,0,1.8,0.4,2.4,0.9l-0.9,1.1c-0.5-0.4-0.9-0.6-1.5-0.6
						c-1.4,0-2.4,1.2-2.4,2.9c0,1.7,0.9,2.9,2.3,2.9c0.7,0,1.3-0.3,1.8-0.8l0.7,1.1c-0.7,0.7-1.7,1-2.7,1
						C297.1,58.4,295.4,56.8,295.4,54.1z"/>
					<path class="st9" d="M303.9,55.5v-4.2h-1.2V50l1.3-0.1l0.2-2.3h1.5v2.3h2.1v1.4h-2.1v4.2c0,1,0.3,1.5,1.2,1.5
						c0.3,0,0.6-0.1,0.9-0.2l0.3,1.3c-0.5,0.2-1,0.3-1.6,0.3C304.5,58.4,303.9,57.2,303.9,55.5z"/>
					<path class="st9" d="M308.5,57.2l0.8-1.1c0.7,0.6,1.5,0.9,2.3,0.9c1,0,1.5-0.5,1.5-1.1c0-0.8-0.9-1.1-1.8-1.4
						c-1.1-0.4-2.4-1-2.4-2.4c0-1.4,1.1-2.4,2.9-2.4c1.1,0,2,0.5,2.7,1l-0.8,1.1c-0.6-0.4-1.2-0.7-1.8-0.7c-0.9,0-1.3,0.5-1.3,1
						c0,0.7,0.9,1,1.8,1.3c1.2,0.4,2.4,0.9,2.4,2.5c0,1.4-1.1,2.5-3.1,2.5C310.5,58.4,309.3,57.9,308.5,57.2z"/>
				</g>
				<text transform="matrix(1 0 0 1 315.2779 58.1953)" class="st9 st10 st4"> </text>
				<g class="st1">
					<path class="st9" d="M80.9,89.9h1.7l1.1,4.5c0.2,0.8,0.3,1.6,0.5,2.3h0.1c0.2-0.8,0.3-1.6,0.5-2.3l1.2-4.5h1.6l1.2,4.5
						c0.2,0.8,0.4,1.6,0.6,2.3h0.1c0.2-0.8,0.3-1.5,0.5-2.3l1.1-4.5h1.6l-2.1,8.2h-2.1l-1-4.1c-0.2-0.8-0.3-1.5-0.5-2.4h-0.1
						c-0.2,0.9-0.3,1.6-0.5,2.4l-1,4.1h-2L80.9,89.9z"/>
					<path class="st9" d="M94,87.4c0-0.6,0.5-1,1.1-1c0.6,0,1.1,0.4,1.1,1c0,0.6-0.5,1-1.1,1C94.4,88.4,94,88,94,87.4z M94.2,89.9
						h1.7v8.2h-1.7V89.9z"/>
					<path class="st9" d="M98.8,95.5v-4.2h-1.2V90l1.3-0.1l0.2-2.3h1.5v2.3h2.1v1.4h-2.1v4.2c0,1,0.3,1.5,1.2,1.5
						c0.3,0,0.6-0.1,0.9-0.2l0.3,1.3c-0.5,0.2-1,0.3-1.6,0.3C99.4,98.4,98.8,97.2,98.8,95.5z"/>
					<path class="st9" d="M104.5,86.2h1.7v3.2l-0.1,1.6c0.7-0.7,1.5-1.3,2.7-1.3c1.8,0,2.5,1.2,2.5,3.3v5.2h-1.7v-5
						c0-1.4-0.4-2-1.4-2c-0.8,0-1.3,0.4-2,1.1v5.8h-1.7V86.2z"/>
					<path class="st9" d="M117.2,89.9h1.4l0.1,1.1h0c0.8-0.7,1.6-1.4,2.7-1.4c1.8,0,2.5,1.2,2.5,3.3v5.2h-1.7v-5c0-1.4-0.4-2-1.4-2
						c-0.8,0-1.3,0.4-2,1.1v5.8h-1.7V89.9z"/>
					<path class="st9" d="M125.9,94.1c0-2.8,1.8-4.4,3.9-4.4c2,0,3.9,1.6,3.9,4.4c0,2.7-1.8,4.3-3.9,4.3
						C127.8,98.4,125.9,96.8,125.9,94.1z M131.9,94.1c0-1.8-0.8-2.9-2.1-2.9c-1.3,0-2.1,1.2-2.1,2.9c0,1.7,0.8,2.9,2.1,2.9
						C131.1,97,131.9,95.8,131.9,94.1z"/>
					<path class="st9" d="M134.5,89.9h1.8l1.4,4.4c0.2,0.8,0.5,1.6,0.7,2.5h0.1c0.2-0.8,0.5-1.7,0.7-2.5l1.4-4.4h1.7l-2.9,8.2h-2
						L134.5,89.9z"/>
					<path class="st9" d="M143.1,94.1c0-2.7,1.8-4.4,3.8-4.4c2.2,0,3.4,1.6,3.4,3.9c0,0.3,0,0.7-0.1,0.9h-5.4
						c0.1,1.6,1.1,2.5,2.5,2.5c0.7,0,1.4-0.2,2-0.6l0.6,1.1c-0.8,0.5-1.7,0.9-2.8,0.9C144.9,98.4,143.1,96.8,143.1,94.1z
						 M148.8,93.3c0-1.4-0.6-2.2-1.8-2.2c-1,0-1.9,0.8-2.1,2.2H148.8z"/>
					<path class="st9" d="M152.2,96.3v-10h1.7v10.1c0,0.5,0.2,0.6,0.4,0.6c0.1,0,0.1,0,0.3,0l0.2,1.3c-0.2,0.1-0.5,0.1-0.9,0.1
						C152.7,98.4,152.2,97.6,152.2,96.3z"/>
					<path class="st9" d="M160,86.2h1.7v3.2l-0.1,1.6c0.7-0.7,1.5-1.3,2.7-1.3c1.8,0,2.5,1.2,2.5,3.3v5.2h-1.7v-5c0-1.4-0.4-2-1.4-2
						c-0.8,0-1.3,0.4-2,1.1v5.8H160V86.2z"/>
					<path class="st9" d="M168.8,94.1c0-2.7,1.8-4.4,3.8-4.4c2.2,0,3.4,1.6,3.4,3.9c0,0.3,0,0.7-0.1,0.9h-5.4
						c0.1,1.6,1.1,2.5,2.5,2.5c0.7,0,1.4-0.2,2-0.6l0.6,1.1c-0.8,0.5-1.7,0.9-2.8,0.9C170.6,98.4,168.8,96.8,168.8,94.1z
						 M174.4,93.3c0-1.4-0.6-2.2-1.8-2.2c-1,0-1.9,0.8-2.1,2.2H174.4z"/>
					<path class="st9" d="M177.1,96c0-1.8,1.5-2.7,4.9-3.1c0-1-0.4-1.8-1.6-1.8c-0.9,0-1.7,0.4-2.4,0.8l-0.6-1.2
						c0.9-0.5,2-1.1,3.3-1.1c2.1,0,3,1.3,3,3.5v5h-1.4l-0.1-0.9h0c-0.8,0.6-1.6,1.1-2.6,1.1C178.1,98.4,177.1,97.5,177.1,96z
						 M182.1,96.1v-2c-2.4,0.3-3.3,0.9-3.3,1.8c0,0.8,0.6,1.1,1.3,1.1C180.8,97,181.4,96.7,182.1,96.1z"/>
					<path class="st9" d="M186.2,96.3v-10h1.7v10.1c0,0.5,0.2,0.6,0.4,0.6c0.1,0,0.1,0,0.3,0l0.2,1.3c-0.2,0.1-0.5,0.1-0.9,0.1
						C186.7,98.4,186.2,97.6,186.2,96.3z"/>
					<path class="st9" d="M191,95.5v-4.2h-1.2V90l1.3-0.1l0.2-2.3h1.5v2.3h2.1v1.4h-2.1v4.2c0,1,0.3,1.5,1.2,1.5
						c0.3,0,0.6-0.1,0.9-0.2l0.3,1.3c-0.5,0.2-1,0.3-1.6,0.3C191.6,98.4,191,97.2,191,95.5z"/>
					<path class="st9" d="M196.6,86.2h1.7v3.2l-0.1,1.6c0.7-0.7,1.5-1.3,2.7-1.3c1.8,0,2.5,1.2,2.5,3.3v5.2h-1.7v-5
						c0-1.4-0.4-2-1.4-2c-0.8,0-1.3,0.4-2,1.1v5.8h-1.7V86.2z"/>
					<path class="st9" d="M208.7,94.1c0-2.8,1.9-4.4,4.1-4.4c1,0,1.8,0.4,2.4,0.9l-0.9,1.1c-0.5-0.4-0.9-0.6-1.5-0.6
						c-1.4,0-2.4,1.2-2.4,2.9c0,1.7,0.9,2.9,2.3,2.9c0.7,0,1.3-0.3,1.8-0.8l0.7,1.1c-0.7,0.7-1.7,1-2.7,1
						C210.5,98.4,208.7,96.8,208.7,94.1z"/>
					<path class="st9" d="M217.1,96.3v-10h1.7v10.1c0,0.5,0.2,0.6,0.4,0.6c0.1,0,0.1,0,0.3,0l0.2,1.3c-0.2,0.1-0.5,0.1-0.9,0.1
						C217.5,98.4,217.1,97.6,217.1,96.3z"/>
					<path class="st9" d="M221.1,96c0-1.8,1.5-2.7,4.9-3.1c0-1-0.4-1.8-1.6-1.8c-0.9,0-1.7,0.4-2.4,0.8l-0.6-1.2
						c0.9-0.5,2-1.1,3.3-1.1c2.1,0,3,1.3,3,3.5v5h-1.4l-0.1-0.9h0c-0.8,0.6-1.6,1.1-2.6,1.1C222.1,98.4,221.1,97.5,221.1,96z
						 M226,96.1v-2c-2.4,0.3-3.3,0.9-3.3,1.8c0,0.8,0.6,1.1,1.3,1.1C224.7,97,225.3,96.7,226,96.1z"/>
					<path class="st9" d="M229.9,87.4c0-0.6,0.5-1,1.1-1c0.6,0,1.1,0.4,1.1,1c0,0.6-0.5,1-1.1,1C230.4,88.4,229.9,88,229.9,87.4z
						 M230.2,89.9h1.7v8.2h-1.7V89.9z"/>
					<path class="st9" d="M234.5,89.9h1.4l0.1,1.2h0c0.7-0.8,1.5-1.4,2.5-1.4c1.2,0,1.9,0.6,2.3,1.5c0.8-0.9,1.6-1.5,2.7-1.5
						c1.7,0,2.5,1.2,2.5,3.3v5.2h-1.7v-5c0-1.4-0.5-2-1.4-2c-0.6,0-1.2,0.4-1.9,1.1v5.8h-1.7v-5c0-1.4-0.4-2-1.4-2
						c-0.6,0-1.2,0.4-1.9,1.1v5.8h-1.7V89.9z"/>
					<path class="st9" d="M247.7,97.2l0.8-1.1c0.7,0.6,1.5,0.9,2.3,0.9c1,0,1.5-0.5,1.5-1.1c0-0.8-0.9-1.1-1.8-1.4
						c-1.1-0.4-2.4-1-2.4-2.4c0-1.4,1.1-2.4,2.9-2.4c1.1,0,2,0.5,2.7,1l-0.8,1.1c-0.6-0.4-1.2-0.7-1.8-0.7c-0.9,0-1.3,0.5-1.3,1
						c0,0.7,0.9,1,1.8,1.3c1.2,0.4,2.4,0.9,2.4,2.5c0,1.4-1.1,2.5-3.1,2.5C249.7,98.4,248.5,97.9,247.7,97.2z"/>
				</g>
			</g>
		</g>
	</g>
</g>
</svg>
