<?xml version="1.0" encoding="utf-8"?>
<!-- Generator: Adobe Illustrator 23.0.4, SVG Export Plug-In . SVG Version: 6.00 Build 0)  -->
<svg version="1.1" id="레이어_1" xmlns="http://www.w3.org/2000/svg" xmlns:xlink="http://www.w3.org/1999/xlink" x="0px"
	 y="0px" viewBox="0 0 334 797" style="enable-background:new 0 0 334 797;" xml:space="preserve">
<style type="text/css">
	.st0{fill-rule:evenodd;clip-rule:evenodd;fill:#B54142;fill-opacity:0.8;stroke:#961C1D;stroke-width:2;}
	.st1{enable-background:new    ;}
	.st2{fill:#FFFFFF;}
	.st3{font-family:'NotoSansKR-Medium-KSCpc-EUC-H';}
	.st4{font-size:15px;}
	.st5{font-family:'NotoSansKR-Light-KSCpc-EUC-H';}
	.st6{fill:none;stroke:#0E0E0E;stroke-width:2;stroke-linecap:square;}
	.st7{fill:none;stroke:#0E0E0E;stroke-width:2;stroke-linecap:round;stroke-linejoin:round;}
	.st8{fill:none;stroke:#B54142;stroke-width:2;}
	.st9{fill:#333333;}
</style>
<title>table1</title>
<desc>Created with Sketch.</desc>
<g id="Page-1">
	<g id="mobile1" transform="translate(-20.000000, -2802.000000)">
		<g id="table1" transform="translate(20.000000, 2802.000000)">
			<g id="box1">
				<path id="bg" class="st0" d="M9,1h316c4.4,0,8,3.6,8,8v488c0,4.4-3.6,8-8,8H9c-4.4,0-8-3.6-8-8V9C1,4.6,4.6,1,9,1z"/>
				<g class="st1">
					<path class="st2" d="M31.5,41h1.7v11h-1.7V41z"/>
					<path class="st2" d="M35.9,43.8h1.4l0.1,1.1h0c0.8-0.7,1.6-1.4,2.7-1.4c1.8,0,2.5,1.2,2.5,3.3V52h-1.7v-5c0-1.4-0.4-2-1.4-2
						c-0.8,0-1.3,0.4-2,1.1V52h-1.7V43.8z"/>
					<path class="st2" d="M45.3,43.8h1.4l0.1,1.1h0c0.8-0.7,1.6-1.4,2.7-1.4c1.8,0,2.5,1.2,2.5,3.3V52h-1.7v-5c0-1.4-0.4-2-1.4-2
						c-0.8,0-1.3,0.4-2,1.1V52h-1.7V43.8z"/>
					<path class="st2" d="M54.1,47.9c0-2.8,1.8-4.4,3.9-4.4c2,0,3.9,1.6,3.9,4.4c0,2.7-1.8,4.3-3.9,4.3
						C55.9,52.2,54.1,50.6,54.1,47.9z M60.1,47.9c0-1.8-0.8-2.9-2.1-2.9c-1.3,0-2.1,1.2-2.1,2.9c0,1.7,0.8,2.9,2.1,2.9
						C59.3,50.8,60.1,49.6,60.1,47.9z"/>
					<path class="st2" d="M62.7,43.8h1.8l1.4,4.4c0.2,0.8,0.5,1.6,0.7,2.5h0.1c0.2-0.8,0.5-1.7,0.7-2.5l1.4-4.4h1.7L67.6,52h-2
						L62.7,43.8z"/>
					<path class="st2" d="M71.1,49.8c0-1.8,1.5-2.7,4.9-3.1c0-1-0.4-1.8-1.6-1.8c-0.9,0-1.7,0.4-2.4,0.8l-0.6-1.2
						c0.9-0.5,2-1.1,3.3-1.1c2.1,0,3,1.3,3,3.5v5h-1.4l-0.1-0.9h0c-0.8,0.6-1.6,1.1-2.6,1.1C72.1,52.2,71.1,51.3,71.1,49.8z
						 M76.1,49.9v-2c-2.4,0.3-3.3,0.9-3.3,1.8c0,0.8,0.6,1.1,1.3,1.1C74.8,50.8,75.4,50.5,76.1,49.9z"/>
					<path class="st2" d="M80.3,49.3v-4.2h-1.2v-1.3l1.3-0.1l0.2-2.3H82v2.3h2.1v1.4H82v4.2c0,1,0.3,1.5,1.2,1.5
						c0.3,0,0.6-0.1,0.9-0.2l0.3,1.3c-0.5,0.2-1,0.3-1.6,0.3C80.9,52.2,80.3,51,80.3,49.3z"/>
					<path class="st2" d="M85.7,41.2c0-0.6,0.5-1,1.1-1c0.6,0,1.1,0.4,1.1,1c0,0.6-0.5,1-1.1,1C86.2,42.2,85.7,41.8,85.7,41.2z
						 M85.9,43.8h1.7V52h-1.7V43.8z"/>
					<path class="st2" d="M89.1,43.8h1.8l1.4,4.4c0.2,0.8,0.5,1.6,0.7,2.5h0.1c0.2-0.8,0.5-1.7,0.7-2.5l1.4-4.4h1.7L94,52h-2
						L89.1,43.8z"/>
					<path class="st2" d="M97.7,47.9c0-2.7,1.8-4.4,3.8-4.4c2.2,0,3.4,1.6,3.4,3.9c0,0.3,0,0.7-0.1,0.9h-5.4
						c0.1,1.6,1.1,2.5,2.5,2.5c0.7,0,1.4-0.2,2-0.6l0.6,1.1c-0.8,0.5-1.7,0.9-2.8,0.9C99.5,52.2,97.7,50.6,97.7,47.9z M103.4,47.1
						c0-1.4-0.6-2.2-1.8-2.2c-1,0-1.9,0.8-2.1,2.2H103.4z"/>
					<path class="st2" d="M109.6,47.9c0-2.7,1.7-4.4,3.5-4.4c0.9,0,1.5,0.4,2.2,0.9l-0.1-1.4V40h1.7v12h-1.4l-0.1-0.9h0
						c-0.6,0.6-1.5,1.1-2.4,1.1C111,52.2,109.6,50.6,109.6,47.9z M115.3,49.8v-4c-0.6-0.6-1.2-0.8-1.8-0.8c-1.2,0-2.1,1.1-2.1,2.9
						c0,1.9,0.7,2.9,2,2.9C114.1,50.8,114.7,50.5,115.3,49.8z"/>
					<path class="st2" d="M119.6,43.8h1.4l0.1,1.5h0c0.6-1.1,1.5-1.7,2.3-1.7c0.4,0,0.7,0.1,0.9,0.2l-0.3,1.5
						c-0.3-0.1-0.5-0.1-0.8-0.1c-0.7,0-1.5,0.5-2,1.8V52h-1.7V43.8z"/>
					<path class="st2" d="M125.7,48.9v-5.2h1.7v5c0,1.4,0.4,2,1.4,2c0.8,0,1.3-0.4,2-1.2v-5.7h1.7V52h-1.4l-0.1-1.2h0
						c-0.8,0.9-1.6,1.4-2.7,1.4C126.4,52.2,125.7,51,125.7,48.9z"/>
					<path class="st2" d="M134.5,53.5c0-0.7,0.4-1.3,1.2-1.8v-0.1c-0.4-0.3-0.8-0.7-0.8-1.4c0-0.6,0.5-1.2,0.9-1.5v-0.1
						c-0.6-0.4-1.1-1.2-1.1-2.2c0-1.9,1.5-3,3.2-3c0.5,0,0.9,0.1,1.2,0.2h2.9V45h-1.6c0.3,0.3,0.5,0.9,0.5,1.5
						c0,1.8-1.4,2.8-3.1,2.8c-0.4,0-0.8-0.1-1.2-0.3c-0.3,0.2-0.4,0.5-0.4,0.9c0,0.5,0.3,0.8,1.4,0.8h1.5c2,0,3,0.6,3,2
						c0,1.6-1.7,2.9-4.3,2.9C135.9,55.7,134.5,55,134.5,53.5z M140.5,53.1c0-0.7-0.5-0.9-1.5-0.9h-1.2c-0.4,0-0.8,0-1.1-0.1
						c-0.5,0.4-0.7,0.8-0.7,1.2c0,0.8,0.8,1.3,2.2,1.3C139.6,54.6,140.5,53.9,140.5,53.1z M139.5,46.5c0-1.1-0.7-1.8-1.6-1.8
						c-0.9,0-1.6,0.6-1.6,1.8c0,1.1,0.7,1.8,1.6,1.8S139.5,47.6,139.5,46.5z"/>
					<path class="st2" d="M142.9,51.1l0.8-1.1c0.7,0.6,1.5,0.9,2.3,0.9c1,0,1.5-0.5,1.5-1.1c0-0.8-0.9-1.1-1.8-1.4
						c-1.1-0.4-2.4-1-2.4-2.4c0-1.4,1.1-2.4,2.9-2.4c1.1,0,2,0.5,2.7,1l-0.8,1.1c-0.6-0.4-1.2-0.7-1.8-0.7c-0.9,0-1.3,0.5-1.3,1
						c0,0.7,0.9,1,1.8,1.3c1.2,0.4,2.4,0.9,2.4,2.5c0,1.4-1.1,2.5-3.1,2.5C144.8,52.2,143.7,51.7,142.9,51.1z"/>
					<path class="st2" d="M153.7,47.9c0-2.7,1.7-4.4,3.5-4.4c0.9,0,1.5,0.4,2.2,0.9l-0.1-1.4V40h1.7v12h-1.4l-0.1-0.9h0
						c-0.6,0.6-1.5,1.1-2.4,1.1C155.1,52.2,153.7,50.6,153.7,47.9z M159.4,49.8v-4c-0.6-0.6-1.2-0.8-1.8-0.8c-1.2,0-2.1,1.1-2.1,2.9
						c0,1.9,0.7,2.9,2,2.9C158.2,50.8,158.8,50.5,159.4,49.8z"/>
					<path class="st2" d="M163.2,47.9c0-2.7,1.8-4.4,3.8-4.4c2.2,0,3.4,1.6,3.4,3.9c0,0.3,0,0.7-0.1,0.9h-5.4
						c0.1,1.6,1.1,2.5,2.5,2.5c0.7,0,1.4-0.2,2-0.6l0.6,1.1c-0.8,0.5-1.7,0.9-2.8,0.9C165,52.2,163.2,50.6,163.2,47.9z M168.8,47.1
						c0-1.4-0.6-2.2-1.8-2.2c-1,0-1.9,0.8-2.1,2.2H168.8z"/>
					<path class="st2" d="M172.2,43.8h1.4l0.1,1.5h0c0.6-1.1,1.5-1.7,2.3-1.7c0.4,0,0.7,0.1,0.9,0.2l-0.3,1.5
						c-0.3-0.1-0.5-0.1-0.8-0.1c-0.7,0-1.5,0.5-2,1.8V52h-1.7V43.8z"/>
					<path class="st2" d="M178.1,41.2c0-0.6,0.5-1,1.1-1s1.1,0.4,1.1,1c0,0.6-0.5,1-1.1,1S178.1,41.8,178.1,41.2z M178.4,43.8h1.7
						V52h-1.7V43.8z"/>
					<path class="st2" d="M181.6,43.8h1.8l1.4,4.4c0.2,0.8,0.5,1.6,0.7,2.5h0.1c0.2-0.8,0.5-1.7,0.7-2.5l1.4-4.4h1.7l-2.9,8.2h-2
						L181.6,43.8z"/>
					<path class="st2" d="M190.2,47.9c0-2.7,1.8-4.4,3.8-4.4c2.2,0,3.4,1.6,3.4,3.9c0,0.3,0,0.7-0.1,0.9h-5.4
						c0.1,1.6,1.1,2.5,2.5,2.5c0.7,0,1.4-0.2,2-0.6l0.6,1.1c-0.8,0.5-1.7,0.9-2.8,0.9C192,52.2,190.2,50.6,190.2,47.9z M195.8,47.1
						c0-1.4-0.6-2.2-1.8-2.2c-1,0-1.9,0.8-2.1,2.2H195.8z"/>
					<path class="st2" d="M198.7,47.9c0-2.7,1.7-4.4,3.5-4.4c0.9,0,1.5,0.4,2.2,0.9l-0.1-1.4V40h1.7v12h-1.4l-0.1-0.9h0
						c-0.6,0.6-1.5,1.1-2.4,1.1C200,52.2,198.7,50.6,198.7,47.9z M204.4,49.8v-4c-0.6-0.6-1.2-0.8-1.8-0.8c-1.2,0-2.1,1.1-2.1,2.9
						c0,1.9,0.7,2.9,2,2.9C203.2,50.8,203.8,50.5,204.4,49.8z"/>
					<path class="st2" d="M216.1,41.4c-0.3-0.1-0.6-0.2-0.9-0.2c-0.7,0-1.1,0.5-1.1,1.5v1h1.7v1.4h-1.7V52h-1.7v-6.9h-1.1v-1.3
						l1.1-0.1v-1c0-1.7,0.8-2.9,2.6-2.9c0.6,0,1.1,0.1,1.5,0.3L216.1,41.4z"/>
					<path class="st2" d="M217.2,43.8h1.4l0.1,1.5h0c0.6-1.1,1.5-1.7,2.3-1.7c0.4,0,0.7,0.1,0.9,0.2l-0.3,1.5
						c-0.3-0.1-0.5-0.1-0.8-0.1c-0.7,0-1.5,0.5-2,1.8V52h-1.7V43.8z"/>
					<path class="st2" d="M222.6,47.9c0-2.8,1.8-4.4,3.9-4.4c2,0,3.9,1.6,3.9,4.4c0,2.7-1.8,4.3-3.9,4.3
						C224.5,52.2,222.6,50.6,222.6,47.9z M228.6,47.9c0-1.8-0.8-2.9-2.1-2.9c-1.3,0-2.1,1.2-2.1,2.9c0,1.7,0.8,2.9,2.1,2.9
						C227.8,50.8,228.6,49.6,228.6,47.9z"/>
					<path class="st2" d="M232.4,43.8h1.4l0.1,1.2h0c0.7-0.8,1.5-1.4,2.5-1.4c1.2,0,1.9,0.6,2.3,1.5c0.8-0.9,1.6-1.5,2.7-1.5
						c1.7,0,2.5,1.2,2.5,3.3V52h-1.7v-5c0-1.4-0.5-2-1.4-2c-0.6,0-1.2,0.4-1.9,1.1V52h-1.7v-5c0-1.4-0.4-2-1.4-2
						c-0.6,0-1.2,0.4-1.9,1.1V52h-1.7V43.8z"/>
					<path class="st2" d="M251.5,51.1L251.5,51.1l-0.2,0.9h-1.3V40h1.7v3.2l0,1.4c0.7-0.6,1.6-1.1,2.5-1.1c2.1,0,3.3,1.7,3.3,4.2
						c0,2.8-1.7,4.5-3.6,4.5C253,52.2,252.2,51.8,251.5,51.1z M255.5,47.8c0-1.7-0.6-2.8-1.9-2.8c-0.6,0-1.3,0.3-2,1v4
						c0.6,0.6,1.3,0.8,1.8,0.8C254.6,50.8,255.5,49.7,255.5,47.8z"/>
					<path class="st2" d="M258.8,47.9c0-2.8,1.8-4.4,3.9-4.4c2,0,3.9,1.6,3.9,4.4c0,2.7-1.8,4.3-3.9,4.3
						C260.6,52.2,258.8,50.6,258.8,47.9z M264.8,47.9c0-1.8-0.8-2.9-2.1-2.9c-1.3,0-2.1,1.2-2.1,2.9c0,1.7,0.8,2.9,2.1,2.9
						C264,50.8,264.8,49.6,264.8,47.9z"/>
					<path class="st2" d="M268.5,49.3v-4.2h-1.2v-1.3l1.3-0.1l0.2-2.3h1.5v2.3h2.1v1.4h-2.1v4.2c0,1,0.3,1.5,1.2,1.5
						c0.3,0,0.6-0.1,0.9-0.2l0.3,1.3c-0.5,0.2-1,0.3-1.6,0.3C269.1,52.2,268.5,51,268.5,49.3z"/>
					<path class="st2" d="M273.3,49.8c0-1.8,1.5-2.7,4.9-3.1c0-1-0.4-1.8-1.6-1.8c-0.9,0-1.7,0.4-2.4,0.8l-0.6-1.2
						c0.9-0.5,2-1.1,3.3-1.1c2.1,0,3,1.3,3,3.5v5h-1.4l-0.2-0.9h0c-0.8,0.6-1.6,1.1-2.6,1.1C274.3,52.2,273.3,51.3,273.3,49.8z
						 M278.2,49.9v-2c-2.4,0.3-3.3,0.9-3.3,1.8c0,0.8,0.6,1.1,1.3,1.1C277,50.8,277.6,50.5,278.2,49.9z"/>
					<path class="st2" d="M282.4,43.8h1.4l0.1,1.1h0c0.8-0.7,1.6-1.4,2.7-1.4c1.8,0,2.5,1.2,2.5,3.3V52h-1.7v-5c0-1.4-0.4-2-1.4-2
						c-0.8,0-1.3,0.4-2,1.1V52h-1.7V43.8z"/>
					<path class="st2" d="M291.5,41.2c0-0.6,0.5-1,1.1-1s1.1,0.4,1.1,1c0,0.6-0.5,1-1.1,1S291.5,41.8,291.5,41.2z M291.8,43.8h1.7
						V52h-1.7V43.8z"/>
					<path class="st2" d="M295.5,47.9c0-2.8,1.9-4.4,4.1-4.4c1.1,0,1.8,0.4,2.4,0.9l-0.9,1.1c-0.5-0.4-0.9-0.6-1.5-0.6
						c-1.4,0-2.4,1.2-2.4,2.9c0,1.7,0.9,2.9,2.3,2.9c0.7,0,1.3-0.3,1.8-0.8l0.7,1.1c-0.8,0.7-1.7,1-2.7,1
						C297.2,52.2,295.5,50.6,295.5,47.9z"/>
					<path class="st2" d="M303.2,49.8c0-1.8,1.5-2.7,4.9-3.1c0-1-0.4-1.8-1.6-1.8c-0.9,0-1.7,0.4-2.4,0.8l-0.6-1.2
						c0.9-0.5,2-1.1,3.3-1.1c2.1,0,3,1.3,3,3.5v5h-1.4l-0.1-0.9h0c-0.8,0.6-1.6,1.1-2.6,1.1C304.2,52.2,303.2,51.3,303.2,49.8z
						 M308.1,49.9v-2c-2.4,0.3-3.3,0.9-3.3,1.8c0,0.8,0.6,1.1,1.3,1.1C306.9,50.8,307.5,50.5,308.1,49.9z"/>
					<path class="st2" d="M312.3,50.1V40h1.7v10.1c0,0.5,0.2,0.6,0.4,0.6c0.1,0,0.1,0,0.3,0l0.2,1.3c-0.2,0.1-0.5,0.1-0.9,0.1
						C312.8,52.2,312.3,51.4,312.3,50.1z"/>
				</g>
				<text transform="matrix(1 0 0 1 315.4619 52)" class="st2 st3 st4"> </text>
				<g class="st1">
					<path class="st2" d="M30.4,73.1l0.8-1.1c0.7,0.6,1.5,0.9,2.3,0.9c1,0,1.5-0.5,1.5-1.1c0-0.8-0.9-1.1-1.8-1.4
						c-1.1-0.4-2.4-1-2.4-2.4c0-1.4,1.1-2.4,2.9-2.4c1.1,0,2,0.5,2.7,1l-0.8,1.1c-0.6-0.4-1.2-0.7-1.8-0.7c-0.9,0-1.3,0.5-1.3,1
						c0,0.7,0.9,1,1.8,1.3c1.2,0.4,2.4,0.9,2.4,2.5c0,1.4-1.1,2.5-3.1,2.5C32.4,74.2,31.2,73.7,30.4,73.1z"/>
					<path class="st2" d="M37.9,69.9c0-2.8,1.8-4.4,3.9-4.4c2,0,3.9,1.6,3.9,4.4c0,2.7-1.8,4.3-3.9,4.3
						C39.8,74.2,37.9,72.6,37.9,69.9z M43.9,69.9c0-1.8-0.8-2.9-2.1-2.9c-1.3,0-2.1,1.2-2.1,2.9c0,1.7,0.8,2.9,2.1,2.9
						C43.1,72.8,43.9,71.6,43.9,69.9z"/>
					<path class="st2" d="M47.6,70.9v-5.2h1.7v5c0,1.4,0.4,2,1.4,2c0.8,0,1.3-0.4,2-1.2v-5.7h1.7V74H53l-0.1-1.2h0
						c-0.8,0.9-1.6,1.4-2.7,1.4C48.4,74.2,47.6,73,47.6,70.9z"/>
					<path class="st2" d="M57,65.8h1.4l0.1,1.5h0c0.6-1.1,1.5-1.7,2.3-1.7c0.4,0,0.7,0.1,0.9,0.2l-0.3,1.5c-0.3-0.1-0.5-0.1-0.8-0.1
						c-0.7,0-1.5,0.5-2,1.8V74H57V65.8z"/>
					<path class="st2" d="M62.4,69.9c0-2.8,1.9-4.4,4.1-4.4c1,0,1.8,0.4,2.4,0.9L68,67.6c-0.5-0.4-0.9-0.6-1.5-0.6
						c-1.4,0-2.4,1.2-2.4,2.9c0,1.7,0.9,2.9,2.3,2.9c0.7,0,1.3-0.3,1.8-0.8l0.7,1.1c-0.7,0.7-1.7,1-2.7,1
						C64.1,74.2,62.4,72.6,62.4,69.9z"/>
					<path class="st2" d="M69.8,69.9c0-2.7,1.8-4.4,3.8-4.4c2.2,0,3.4,1.6,3.4,3.9c0,0.3,0,0.7-0.1,0.9h-5.4
						c0.1,1.6,1.1,2.5,2.5,2.5c0.7,0,1.4-0.2,2-0.6l0.6,1.1c-0.8,0.5-1.7,0.9-2.8,0.9C71.6,74.2,69.8,72.6,69.8,69.9z M75.4,69.1
						c0-1.4-0.6-2.2-1.8-2.2c-1,0-1.9,0.8-2.1,2.2H75.4z"/>
					<path class="st2" d="M78,73.1l0.8-1.1c0.7,0.6,1.5,0.9,2.3,0.9c1,0,1.5-0.5,1.5-1.1c0-0.8-0.9-1.1-1.8-1.4
						c-1.1-0.4-2.4-1-2.4-2.4c0-1.4,1.1-2.4,2.9-2.4c1.1,0,2,0.5,2.7,1l-0.8,1.1c-0.6-0.4-1.2-0.7-1.8-0.7c-0.9,0-1.3,0.5-1.3,1
						c0,0.7,0.9,1,1.8,1.3c1.2,0.4,2.4,0.9,2.4,2.5c0,1.4-1.1,2.5-3.1,2.5C79.9,74.2,78.8,73.7,78,73.1z"/>
					<path class="st2" d="M93.4,63.4c-0.3-0.1-0.6-0.2-0.9-0.2c-0.7,0-1.1,0.5-1.1,1.5v1h1.7v1.4h-1.7V74h-1.7v-6.9h-1.1v-1.3
						l1.1-0.1v-1c0-1.7,0.8-2.9,2.6-2.9c0.6,0,1.1,0.1,1.5,0.3L93.4,63.4z"/>
					<path class="st2" d="M93.8,69.9c0-2.8,1.8-4.4,3.9-4.4c2,0,3.9,1.6,3.9,4.4c0,2.7-1.8,4.3-3.9,4.3
						C95.7,74.2,93.8,72.6,93.8,69.9z M99.8,69.9c0-1.8-0.8-2.9-2.1-2.9c-1.3,0-2.1,1.2-2.1,2.9c0,1.7,0.8,2.9,2.1,2.9
						C99,72.8,99.8,71.6,99.8,69.9z"/>
					<path class="st2" d="M103.6,65.8h1.4l0.1,1.5h0c0.6-1.1,1.5-1.7,2.3-1.7c0.4,0,0.7,0.1,0.9,0.2l-0.3,1.5
						c-0.3-0.1-0.5-0.1-0.8-0.1c-0.7,0-1.5,0.5-2,1.8V74h-1.7V65.8z"/>
					<path class="st2" d="M113.4,71.3v-4.2h-1.2v-1.3l1.3-0.1l0.2-2.3h1.5v2.3h2.1v1.4h-2.1v4.2c0,1,0.3,1.5,1.2,1.5
						c0.3,0,0.6-0.1,0.9-0.2l0.3,1.3c-0.5,0.2-1,0.3-1.6,0.3C114,74.2,113.4,73,113.4,71.3z"/>
					<path class="st2" d="M119.1,62h1.7v3.2l-0.1,1.6c0.7-0.7,1.5-1.3,2.7-1.3c1.8,0,2.5,1.2,2.5,3.3V74h-1.7v-5c0-1.4-0.4-2-1.4-2
						c-0.8,0-1.3,0.4-2,1.1V74h-1.7V62z"/>
					<path class="st2" d="M127.8,69.9c0-2.7,1.8-4.4,3.8-4.4c2.2,0,3.4,1.6,3.4,3.9c0,0.3,0,0.7-0.1,0.9h-5.4
						c0.1,1.6,1.1,2.5,2.5,2.5c0.7,0,1.4-0.2,2-0.6l0.6,1.1c-0.8,0.5-1.7,0.9-2.8,0.9C129.6,74.2,127.8,72.6,127.8,69.9z
						 M133.4,69.1c0-1.4-0.6-2.2-1.8-2.2c-1,0-1.9,0.8-2.1,2.2H133.4z"/>
					<path class="st2" d="M140.5,71.3v-4.2h-1.2v-1.3l1.3-0.1l0.2-2.3h1.5v2.3h2.1v1.4h-2.1v4.2c0,1,0.3,1.5,1.2,1.5
						c0.3,0,0.6-0.1,0.9-0.2l0.3,1.3c-0.5,0.2-1,0.3-1.6,0.3C141.1,74.2,140.5,73,140.5,71.3z"/>
					<path class="st2" d="M146.2,65.8h1.4l0.1,1.5h0c0.6-1.1,1.5-1.7,2.3-1.7c0.4,0,0.7,0.1,0.9,0.2l-0.3,1.5
						c-0.3-0.1-0.5-0.1-0.8-0.1c-0.7,0-1.5,0.5-2,1.8V74h-1.7V65.8z"/>
					<path class="st2" d="M151.6,69.9c0-2.7,1.8-4.4,3.8-4.4c2.2,0,3.4,1.6,3.4,3.9c0,0.3,0,0.7-0.1,0.9h-5.4
						c0.1,1.6,1.1,2.5,2.5,2.5c0.7,0,1.4-0.2,2-0.6l0.6,1.1c-0.8,0.5-1.7,0.9-2.8,0.9C153.3,74.2,151.6,72.6,151.6,69.9z
						 M157.2,69.1c0-1.4-0.6-2.2-1.8-2.2c-1,0-1.9,0.8-2.1,2.2H157.2z"/>
					<path class="st2" d="M159.9,71.8c0-1.8,1.5-2.7,4.9-3.1c0-1-0.4-1.8-1.6-1.8c-0.9,0-1.7,0.4-2.4,0.8l-0.6-1.2
						c0.9-0.5,2-1.1,3.3-1.1c2.1,0,3,1.3,3,3.5v5h-1.4l-0.1-0.9h0c-0.8,0.6-1.6,1.1-2.6,1.1C160.9,74.2,159.9,73.3,159.9,71.8z
						 M164.8,71.9v-2c-2.4,0.3-3.3,0.9-3.3,1.8c0,0.8,0.6,1.1,1.3,1.1C163.6,72.8,164.2,72.5,164.8,71.9z"/>
					<path class="st2" d="M169,71.3v-4.2h-1.2v-1.3l1.3-0.1l0.2-2.3h1.5v2.3h2.1v1.4h-2.1v4.2c0,1,0.3,1.5,1.2,1.5
						c0.3,0,0.6-0.1,0.9-0.2l0.3,1.3c-0.5,0.2-1,0.3-1.6,0.3C169.7,74.2,169,73,169,71.3z"/>
					<path class="st2" d="M174.7,65.8h1.4l0.1,1.2h0c0.7-0.8,1.5-1.4,2.5-1.4c1.2,0,1.9,0.6,2.3,1.5c0.8-0.9,1.7-1.5,2.7-1.5
						c1.7,0,2.5,1.2,2.5,3.3V74h-1.7v-5c0-1.4-0.5-2-1.4-2c-0.6,0-1.2,0.4-1.9,1.1V74h-1.7v-5c0-1.4-0.4-2-1.4-2
						c-0.6,0-1.2,0.4-1.9,1.1V74h-1.7V65.8z"/>
					<path class="st2" d="M188.2,69.9c0-2.7,1.8-4.4,3.8-4.4c2.2,0,3.4,1.6,3.4,3.9c0,0.3,0,0.7-0.1,0.9h-5.4
						c0.1,1.6,1.1,2.5,2.6,2.5c0.7,0,1.4-0.2,2-0.6l0.6,1.1c-0.8,0.5-1.7,0.9-2.8,0.9C190,74.2,188.2,72.6,188.2,69.9z M193.9,69.1
						c0-1.4-0.6-2.2-1.8-2.2c-1,0-1.9,0.8-2.1,2.2H193.9z"/>
					<path class="st2" d="M197.3,65.8h1.4l0.1,1.1h0c0.8-0.7,1.6-1.4,2.7-1.4c1.8,0,2.5,1.2,2.5,3.3V74h-1.7v-5c0-1.4-0.4-2-1.4-2
						c-0.8,0-1.3,0.4-2,1.1V74h-1.7V65.8z"/>
					<path class="st2" d="M206.9,71.3v-4.2h-1.2v-1.3l1.3-0.1l0.2-2.3h1.5v2.3h2.1v1.4h-2.1v4.2c0,1,0.3,1.5,1.2,1.5
						c0.3,0,0.6-0.1,0.9-0.2l0.3,1.3c-0.5,0.2-1,0.3-1.6,0.3C207.6,74.2,206.9,73,206.9,71.3z"/>
					<path class="st2" d="M215.4,69.9c0-2.8,1.8-4.4,3.9-4.4c2,0,3.9,1.6,3.9,4.4c0,2.7-1.8,4.3-3.9,4.3
						C217.2,74.2,215.4,72.6,215.4,69.9z M221.4,69.9c0-1.8-0.8-2.9-2.1-2.9c-1.3,0-2.1,1.2-2.1,2.9c0,1.7,0.8,2.9,2.1,2.9
						C220.6,72.8,221.4,71.6,221.4,69.9z"/>
					<path class="st2" d="M229.2,63.4c-0.3-0.1-0.6-0.2-0.9-0.2c-0.7,0-1.1,0.5-1.1,1.5v1h1.7v1.4h-1.7V74h-1.7v-6.9h-1.1v-1.3
						l1.1-0.1v-1c0-1.7,0.8-2.9,2.6-2.9c0.6,0,1.1,0.1,1.5,0.3L229.2,63.4z"/>
				</g>
				<text transform="matrix(1 0 0 1 229.018 74)" class="st2 st3 st4"> </text>
				<g class="st1">
					<path class="st2" d="M31.1,85.2c0-0.6,0.5-1,1.1-1c0.6,0,1.1,0.4,1.1,1c0,0.6-0.5,1-1.1,1C31.5,86.2,31.1,85.8,31.1,85.2z
						 M31.3,87.8H33V96h-1.7V87.8z"/>
					<path class="st2" d="M35.6,87.8H37l0.1,1.1h0c0.8-0.7,1.6-1.4,2.7-1.4c1.8,0,2.5,1.2,2.5,3.3V96h-1.7v-5c0-1.4-0.4-2-1.4-2
						c-0.8,0-1.3,0.4-2,1.1V96h-1.7V87.8z"/>
					<path class="st2" d="M45.2,93.3v-4.2H44v-1.3l1.3-0.1l0.2-2.3H47v2.3h2.1v1.4H47v4.2c0,1,0.3,1.5,1.2,1.5
						c0.3,0,0.6-0.1,0.9-0.2l0.3,1.3c-0.5,0.2-1,0.3-1.6,0.3C45.9,96.2,45.2,95,45.2,93.3z"/>
					<path class="st2" d="M50.9,87.8h1.4l0.1,1.5h0c0.6-1.1,1.5-1.7,2.3-1.7c0.4,0,0.7,0.1,0.9,0.2l-0.3,1.5
						c-0.3-0.1-0.5-0.1-0.8-0.1c-0.7,0-1.5,0.5-2,1.8V96h-1.7V87.8z"/>
					<path class="st2" d="M56.1,93.8c0-1.8,1.5-2.7,4.9-3.1c0-1-0.4-1.8-1.6-1.8c-0.9,0-1.7,0.4-2.4,0.8l-0.6-1.2
						c0.9-0.5,2-1.1,3.3-1.1c2.1,0,3,1.3,3,3.5v5h-1.4l-0.1-0.9h0c-0.8,0.6-1.6,1.1-2.6,1.1C57.1,96.2,56.1,95.3,56.1,93.8z
						 M61.1,93.9v-2c-2.4,0.3-3.3,0.9-3.3,1.8c0,0.8,0.6,1.1,1.3,1.1C59.8,94.8,60.4,94.5,61.1,93.9z"/>
					<path class="st2" d="M64.7,91.9c0-2.8,1.9-4.4,4.1-4.4c1,0,1.8,0.4,2.4,0.9l-0.9,1.1c-0.5-0.4-0.9-0.6-1.5-0.6
						c-1.4,0-2.4,1.2-2.4,2.9c0,1.7,0.9,2.9,2.3,2.9c0.7,0,1.3-0.3,1.8-0.8l0.7,1.1c-0.7,0.7-1.7,1-2.7,1
						C66.4,96.2,64.7,94.6,64.7,91.9z"/>
					<path class="st2" d="M73.1,93.3v-4.2h-1.2v-1.3l1.3-0.1l0.2-2.3h1.5v2.3H77v1.4h-2.1v4.2c0,1,0.3,1.5,1.2,1.5
						c0.3,0,0.6-0.1,0.9-0.2l0.3,1.3c-0.5,0.2-1,0.3-1.6,0.3C73.8,96.2,73.1,95,73.1,93.3z"/>
					<path class="st2" d="M77.9,93.8c0-1.8,1.5-2.7,4.9-3.1c0-1-0.4-1.8-1.6-1.8c-0.9,0-1.7,0.4-2.4,0.8l-0.6-1.2
						c0.9-0.5,2-1.1,3.3-1.1c2.1,0,3,1.3,3,3.5v5h-1.4L83,95.1h0c-0.8,0.6-1.6,1.1-2.6,1.1C78.9,96.2,77.9,95.3,77.9,93.8z
						 M82.9,93.9v-2c-2.4,0.3-3.3,0.9-3.3,1.8c0,0.8,0.6,1.1,1.3,1.1C81.6,94.8,82.2,94.5,82.9,93.9z"/>
					<path class="st2" d="M88.6,95.1L88.6,95.1L88.4,96H87V84h1.7v3.2l0,1.4c0.7-0.6,1.6-1.1,2.5-1.1c2.1,0,3.3,1.7,3.3,4.2
						c0,2.8-1.7,4.5-3.6,4.5C90.1,96.2,89.3,95.8,88.6,95.1z M92.7,91.8c0-1.7-0.6-2.8-1.9-2.8c-0.6,0-1.3,0.3-2,1v4
						c0.6,0.6,1.3,0.8,1.8,0.8C91.8,94.8,92.7,93.7,92.7,91.8z"/>
					<path class="st2" d="M96.5,94.1V84h1.7v10.1c0,0.5,0.2,0.6,0.4,0.6c0.1,0,0.1,0,0.3,0l0.2,1.3c-0.2,0.1-0.5,0.1-0.9,0.1
						C96.9,96.2,96.5,95.4,96.5,94.1z"/>
					<path class="st2" d="M100.4,91.9c0-2.7,1.8-4.4,3.8-4.4c2.2,0,3.4,1.6,3.4,3.9c0,0.3,0,0.7-0.1,0.9h-5.4
						c0.1,1.6,1.1,2.5,2.5,2.5c0.7,0,1.4-0.2,2-0.6l0.6,1.1c-0.8,0.5-1.7,0.9-2.8,0.9C102.1,96.2,100.4,94.6,100.4,91.9z M106,91.1
						c0-1.4-0.6-2.2-1.8-2.2c-1,0-1.9,0.8-2.1,2.2H106z"/>
					<path class="st2" d="M112.5,84h1.2l-4.2,14.7h-1.2L112.5,84z"/>
					<path class="st2" d="M114.2,91.9c0-2.8,1.9-4.4,4.1-4.4c1,0,1.8,0.4,2.4,0.9l-0.9,1.1c-0.5-0.4-0.9-0.6-1.5-0.6
						c-1.4,0-2.4,1.2-2.4,2.9c0,1.7,0.9,2.9,2.3,2.9c0.7,0,1.3-0.3,1.8-0.8l0.7,1.1c-0.7,0.7-1.7,1-2.7,1
						C115.9,96.2,114.2,94.6,114.2,91.9z"/>
					<path class="st2" d="M122.6,84h1.7v3.2l-0.1,1.6c0.7-0.7,1.5-1.3,2.7-1.3c1.8,0,2.5,1.2,2.5,3.3V96h-1.7v-5c0-1.4-0.4-2-1.4-2
						c-0.8,0-1.3,0.4-2,1.1V96h-1.7V84z"/>
					<path class="st2" d="M131.9,87.8h1.4l0.1,1.5h0c0.6-1.1,1.5-1.7,2.3-1.7c0.4,0,0.7,0.1,0.9,0.2l-0.3,1.5
						c-0.3-0.1-0.5-0.1-0.8-0.1c-0.7,0-1.5,0.5-2,1.8V96h-1.7V87.8z"/>
					<path class="st2" d="M137.3,91.9c0-2.8,1.8-4.4,3.9-4.4c2,0,3.9,1.6,3.9,4.4c0,2.7-1.8,4.3-3.9,4.3
						C139.1,96.2,137.3,94.6,137.3,91.9z M143.3,91.9c0-1.8-0.8-2.9-2.1-2.9c-1.3,0-2.1,1.2-2.1,2.9c0,1.7,0.8,2.9,2.1,2.9
						C142.5,94.8,143.3,93.6,143.3,91.9z"/>
					<path class="st2" d="M147.1,87.8h1.4l0.1,1.1h0c0.8-0.7,1.6-1.4,2.7-1.4c1.8,0,2.5,1.2,2.5,3.3V96h-1.7v-5c0-1.4-0.4-2-1.4-2
						c-0.8,0-1.3,0.4-2,1.1V96h-1.7V87.8z"/>
					<path class="st2" d="M156.2,85.2c0-0.6,0.5-1,1.1-1c0.6,0,1.1,0.4,1.1,1c0,0.6-0.5,1-1.1,1C156.7,86.2,156.2,85.8,156.2,85.2z
						 M156.4,87.8h1.7V96h-1.7V87.8z"/>
					<path class="st2" d="M160.2,91.9c0-2.8,1.9-4.4,4.1-4.4c1,0,1.8,0.4,2.4,0.9l-0.9,1.1c-0.5-0.4-0.9-0.6-1.5-0.6
						c-1.4,0-2.4,1.2-2.4,2.9c0,1.7,0.9,2.9,2.3,2.9c0.7,0,1.3-0.3,1.8-0.8l0.7,1.1c-0.7,0.7-1.7,1-2.7,1
						C161.9,96.2,160.2,94.6,160.2,91.9z"/>
					<path class="st2" d="M171.3,91.9c0-2.7,1.7-4.4,3.5-4.4c0.9,0,1.5,0.4,2.2,0.9l-0.1-1.4V84h1.7v12h-1.4l-0.1-0.9h0
						c-0.6,0.6-1.5,1.1-2.4,1.1C172.6,96.2,171.3,94.6,171.3,91.9z M177,93.8v-4c-0.6-0.6-1.2-0.8-1.8-0.8c-1.2,0-2.1,1.1-2.1,2.9
						c0,1.9,0.7,2.9,2,2.9C175.8,94.8,176.4,94.5,177,93.8z"/>
					<path class="st2" d="M181.1,85.2c0-0.6,0.5-1,1.1-1c0.6,0,1.1,0.4,1.1,1c0,0.6-0.5,1-1.1,1C181.5,86.2,181.1,85.8,181.1,85.2z
						 M181.3,87.8h1.7V96h-1.7V87.8z"/>
					<path class="st2" d="M184.8,95.1l0.8-1.1c0.7,0.6,1.5,0.9,2.3,0.9c1,0,1.5-0.5,1.5-1.1c0-0.8-0.9-1.1-1.8-1.4
						c-1.1-0.4-2.4-1-2.4-2.4c0-1.4,1.1-2.4,2.9-2.4c1.1,0,2,0.5,2.7,1l-0.8,1.1c-0.6-0.4-1.2-0.7-1.8-0.7c-0.9,0-1.3,0.5-1.3,1
						c0,0.7,0.9,1,1.8,1.3c1.2,0.4,2.4,0.9,2.4,2.5c0,1.4-1.1,2.5-3.1,2.5C186.7,96.2,185.5,95.7,184.8,95.1z"/>
					<path class="st2" d="M192.2,91.9c0-2.7,1.8-4.4,3.8-4.4c2.2,0,3.4,1.6,3.4,3.9c0,0.3,0,0.7-0.1,0.9h-5.4
						c0.1,1.6,1.1,2.5,2.5,2.5c0.7,0,1.4-0.2,2-0.6l0.6,1.1c-0.8,0.5-1.7,0.9-2.8,0.9C194,96.2,192.2,94.6,192.2,91.9z M197.9,91.1
						c0-1.4-0.6-2.2-1.8-2.2c-1,0-1.9,0.8-2.1,2.2H197.9z"/>
					<path class="st2" d="M200.6,93.8c0-1.8,1.5-2.7,4.9-3.1c0-1-0.4-1.8-1.6-1.8c-0.9,0-1.7,0.4-2.4,0.8l-0.6-1.2
						c0.9-0.5,2-1.1,3.3-1.1c2.1,0,3,1.3,3,3.5v5h-1.4l-0.1-0.9h0c-0.8,0.6-1.6,1.1-2.6,1.1C201.6,96.2,200.6,95.3,200.6,93.8z
						 M205.5,93.9v-2c-2.4,0.3-3.3,0.9-3.3,1.8c0,0.8,0.6,1.1,1.3,1.1C204.3,94.8,204.9,94.5,205.5,93.9z"/>
					<path class="st2" d="M208.8,95.1l0.8-1.1c0.7,0.6,1.5,0.9,2.3,0.9c1,0,1.5-0.5,1.5-1.1c0-0.8-0.9-1.1-1.8-1.4
						c-1.1-0.4-2.4-1-2.4-2.4c0-1.4,1.1-2.4,2.9-2.4c1.1,0,2,0.5,2.7,1l-0.8,1.1c-0.6-0.4-1.2-0.7-1.8-0.7c-0.9,0-1.3,0.5-1.3,1
						c0,0.7,0.9,1,1.8,1.3c1.2,0.4,2.4,0.9,2.4,2.5c0,1.4-1.1,2.5-3.1,2.5C210.8,96.2,209.6,95.7,208.8,95.1z"/>
					<path class="st2" d="M216.3,91.9c0-2.7,1.8-4.4,3.8-4.4c2.2,0,3.4,1.6,3.4,3.9c0,0.3,0,0.7-0.1,0.9H218
						c0.1,1.6,1.1,2.5,2.6,2.5c0.7,0,1.4-0.2,2-0.6l0.6,1.1c-0.8,0.5-1.7,0.9-2.8,0.9C218.1,96.2,216.3,94.6,216.3,91.9z M222,91.1
						c0-1.4-0.6-2.2-1.8-2.2c-1,0-1.9,0.8-2.1,2.2H222z"/>
					<path class="st2" d="M224.5,95.1l0.8-1.1c0.7,0.6,1.5,0.9,2.3,0.9c1,0,1.5-0.5,1.5-1.1c0-0.8-0.9-1.1-1.8-1.4
						c-1.1-0.4-2.4-1-2.4-2.4c0-1.4,1.1-2.4,2.9-2.4c1.1,0,2,0.5,2.7,1l-0.8,1.1c-0.6-0.4-1.2-0.7-1.8-0.7c-0.9,0-1.3,0.5-1.3,1
						c0,0.7,0.9,1,1.8,1.3c1.2,0.4,2.4,0.9,2.4,2.5c0,1.4-1.1,2.5-3.1,2.5C226.5,96.2,225.3,95.7,224.5,95.1z"/>
				</g>
				<g class="st1">
					<path class="st2" d="M30.7,133.5h3.7v0.7h-3.7V133.5z"/>
					<path class="st2" d="M42.2,127.8h-3.4v-0.8h7.8v0.8h-3.5V138h-0.9V127.8z"/>
					<path class="st2" d="M46.8,136c0-1.8,1.6-2.6,5.1-3c0-1.2-0.3-2.4-1.8-2.4c-1,0-2,0.5-2.5,0.9l-0.4-0.6c0.6-0.4,1.7-1.1,3-1.1
						c1.9,0,2.6,1.4,2.6,3.1v5.1H52l-0.1-1h0c-0.8,0.7-1.8,1.2-2.8,1.2C47.8,138.2,46.8,137.5,46.8,136z M51.9,136.2v-2.6
						c-3.1,0.4-4.2,1.1-4.2,2.3c0,1.1,0.8,1.5,1.6,1.5C50.1,137.5,50.9,137,51.9,136.2z"/>
					<path class="st2" d="M55.5,130h0.7l0.1,1.5h0c0.5-1,1.3-1.7,2.3-1.7c0.3,0,0.6,0,0.8,0.2l-0.2,0.8c-0.3-0.1-0.4-0.1-0.7-0.1
						c-0.7,0-1.6,0.5-2.1,2v5.4h-0.9V130z"/>
					<path class="st2" d="M60.1,139.6c0-0.7,0.5-1.4,1.2-1.9v-0.1c-0.4-0.2-0.7-0.7-0.7-1.3c0-0.7,0.5-1.2,0.9-1.5v-0.1
						c-0.5-0.4-1-1.2-1-2.2c0-1.7,1.3-2.8,2.9-2.8c0.4,0,0.8,0.1,1.1,0.2h2.7v0.7h-1.8c0.5,0.4,0.8,1.1,0.8,1.9
						c0,1.6-1.2,2.8-2.8,2.8c-0.4,0-0.9-0.1-1.3-0.3c-0.3,0.3-0.6,0.6-0.6,1.1c0,0.6,0.3,1,1.5,1h1.7c1.8,0,2.7,0.6,2.7,1.8
						c0,1.4-1.5,2.7-3.8,2.7C61.4,141.8,60.1,141,60.1,139.6z M66.3,139.2c0-0.9-0.6-1.2-1.8-1.2h-1.6c-0.2,0-0.6,0-1-0.1
						c-0.7,0.5-1,1.1-1,1.6c0,1,0.9,1.6,2.6,1.6C65.2,141.1,66.3,140.2,66.3,139.2z M65.2,132.6c0-1.3-0.9-2.1-2-2.1
						c-1.1,0-2,0.8-2,2.1c0,1.3,0.9,2.2,2,2.2C64.3,134.8,65.2,133.9,65.2,132.6z"/>
					<path class="st2" d="M68,134c0-2.6,1.7-4.2,3.5-4.2c1.9,0,3.1,1.4,3.1,3.7c0,0.2,0,0.4,0,0.6h-5.7c0,1.9,1.2,3.3,2.9,3.3
						c0.9,0,1.5-0.3,2.1-0.7l0.3,0.6c-0.6,0.4-1.4,0.8-2.5,0.8C69.7,138.2,68,136.6,68,134z M73.8,133.5c0-1.9-0.9-2.9-2.3-2.9
						c-1.3,0-2.5,1.1-2.6,2.9H73.8z"/>
					<path class="st2" d="M76.8,135.7v-5h-1.2v-0.7l1.3-0.1l0.1-2.3h0.7v2.3H80v0.7h-2.3v5c0,1,0.3,1.7,1.3,1.7c0.3,0,0.7-0.1,1-0.2
						l0.2,0.7c-0.5,0.2-1,0.3-1.3,0.3C77.3,138.2,76.8,137.2,76.8,135.7z"/>
					<path class="st2" d="M85.2,130h0.7l0.1,1.2h0c0.8-0.8,1.6-1.4,2.7-1.4c1.7,0,2.4,1,2.4,3.1v5.1h-0.9v-5c0-1.7-0.5-2.4-1.8-2.4
						c-0.9,0-1.6,0.5-2.5,1.4v6h-0.9V130z"/>
					<path class="st2" d="M93.8,127.4c0-0.5,0.3-0.7,0.7-0.7c0.4,0,0.7,0.3,0.7,0.7c0,0.4-0.3,0.7-0.7,0.7
						C94.1,128.1,93.8,127.8,93.8,127.4z M94.1,130H95v8h-0.9V130z"/>
					<path class="st2" d="M97.3,134c0-2.7,1.7-4.2,3.7-4.2c1.1,0,1.8,0.5,2.3,1l-0.5,0.6c-0.5-0.5-1.1-0.8-1.8-0.8
						c-1.6,0-2.8,1.4-2.8,3.4c0,2,1.1,3.4,2.8,3.4c0.8,0,1.5-0.4,2.1-0.9l0.4,0.6c-0.7,0.6-1.5,1-2.5,1
						C98.9,138.2,97.3,136.7,97.3,134z"/>
					<path class="st2" d="M105.4,126.1h0.9v3.4l0,1.7c0.8-0.8,1.6-1.4,2.7-1.4c1.7,0,2.4,1,2.4,3.1v5.1h-0.9v-5
						c0-1.7-0.5-2.4-1.8-2.4c-0.9,0-1.6,0.5-2.5,1.4v6h-0.9V126.1z"/>
					<path class="st2" d="M113.6,134c0-2.6,1.7-4.2,3.5-4.2c1.9,0,3.1,1.4,3.1,3.7c0,0.2,0,0.4,0,0.6h-5.7c0,1.9,1.2,3.3,2.9,3.3
						c0.9,0,1.5-0.3,2.1-0.7l0.3,0.6c-0.6,0.4-1.4,0.8-2.5,0.8C115.3,138.2,113.6,136.6,113.6,134z M119.4,133.5
						c0-1.9-0.9-2.9-2.3-2.9c-1.3,0-2.5,1.1-2.6,2.9H119.4z"/>
					<path class="st2" d="M125.7,130h0.7l0.1,1.2h0c0.7-0.8,1.6-1.4,2.5-1.4c1.3,0,1.9,0.6,2.2,1.6c0.9-1,1.8-1.6,2.7-1.6
						c1.6,0,2.4,1,2.4,3.1v5.1h-0.9v-5c0-1.7-0.6-2.4-1.7-2.4c-0.7,0-1.5,0.5-2.3,1.4v6h-0.9v-5c0-1.7-0.5-2.4-1.7-2.4
						c-0.7,0-1.5,0.5-2.3,1.4v6h-0.9V130z"/>
					<path class="st2" d="M138.7,136c0-1.8,1.6-2.6,5.1-3c0-1.2-0.3-2.4-1.8-2.4c-1,0-2,0.5-2.5,0.9l-0.4-0.6c0.6-0.4,1.7-1.1,3-1.1
						c1.9,0,2.6,1.4,2.6,3.1v5.1h-0.7l-0.1-1h0c-0.8,0.7-1.8,1.2-2.8,1.2C139.7,138.2,138.7,137.5,138.7,136z M143.8,136.2v-2.6
						c-3.1,0.4-4.2,1.1-4.2,2.3c0,1.1,0.8,1.5,1.6,1.5C142.1,137.5,142.8,137,143.8,136.2z"/>
					<path class="st2" d="M147.4,130h0.7l0.1,1.5h0c0.5-1,1.3-1.7,2.3-1.7c0.3,0,0.6,0,0.8,0.2l-0.2,0.8c-0.3-0.1-0.4-0.1-0.7-0.1
						c-0.7,0-1.6,0.5-2.1,2v5.4h-0.9V130z"/>
					<path class="st2" d="M152.8,126.1h0.9v8.6h0l3.8-4.7h1l-2.6,3.2l3,4.8h-1l-2.6-4.2l-1.7,2v2.2h-0.9V126.1z"/>
					<path class="st2" d="M159.7,134c0-2.6,1.7-4.2,3.5-4.2c1.9,0,3.1,1.4,3.1,3.7c0,0.2,0,0.4,0,0.6h-5.7c0,1.9,1.2,3.3,2.9,3.3
						c0.9,0,1.5-0.3,2.1-0.7l0.3,0.6c-0.6,0.4-1.4,0.8-2.5,0.8C161.4,138.2,159.7,136.6,159.7,134z M165.6,133.5
						c0-1.9-0.9-2.9-2.3-2.9c-1.3,0-2.5,1.1-2.6,2.9H165.6z"/>
					<path class="st2" d="M168.5,135.7v-5h-1.2v-0.7l1.3-0.1l0.1-2.3h0.7v2.3h2.3v0.7h-2.3v5c0,1,0.3,1.7,1.3,1.7
						c0.3,0,0.7-0.1,1-0.2l0.2,0.7c-0.5,0.2-1,0.3-1.3,0.3C169,138.2,168.5,137.2,168.5,135.7z"/>
					<path class="st2" d="M172.5,137.1l0.5-0.6c0.7,0.6,1.4,1,2.5,1c1.2,0,1.8-0.7,1.8-1.5c0-0.9-1-1.4-1.9-1.7
						c-1.2-0.4-2.5-0.9-2.5-2.3c0-1.2,0.9-2.2,2.6-2.2c0.9,0,1.7,0.4,2.3,0.9l-0.5,0.6c-0.5-0.4-1.1-0.7-1.9-0.7
						c-1.2,0-1.7,0.7-1.7,1.4c0,0.9,0.9,1.2,1.9,1.6c1.2,0.5,2.6,0.9,2.6,2.4c0,1.2-1,2.3-2.7,2.3
						C174.2,138.2,173.2,137.7,172.5,137.1z"/>
					<path class="st2" d="M179.5,140.1c0.8-0.4,1.3-1.1,1.3-2c-0.1,0-0.1,0-0.2,0c-0.4,0-0.8-0.3-0.8-0.8c0-0.5,0.4-0.7,0.8-0.7
						c0.5,0,0.9,0.5,0.9,1.3c0,1.2-0.7,2.2-1.8,2.8L179.5,140.1z"/>
					<path class="st2" d="M186.6,134c0-2.6,1.7-4.2,3.5-4.2c1.9,0,3.1,1.4,3.1,3.7c0,0.2,0,0.4,0,0.6h-5.7c0,1.9,1.2,3.3,2.9,3.3
						c0.9,0,1.5-0.3,2.1-0.7l0.3,0.6c-0.6,0.4-1.4,0.8-2.5,0.8C188.3,138.2,186.6,136.6,186.6,134z M192.4,133.5
						c0-1.9-0.9-2.9-2.3-2.9c-1.3,0-2.5,1.1-2.6,2.9H192.4z"/>
					<path class="st2" d="M194.4,137.1l0.5-0.6c0.7,0.6,1.4,1,2.5,1c1.2,0,1.8-0.7,1.8-1.5c0-0.9-1-1.4-1.9-1.7
						c-1.2-0.4-2.5-0.9-2.5-2.3c0-1.2,0.9-2.2,2.6-2.2c0.9,0,1.7,0.4,2.3,0.9l-0.5,0.6c-0.5-0.4-1.1-0.7-1.9-0.7
						c-1.2,0-1.7,0.7-1.7,1.4c0,0.9,0.9,1.2,1.9,1.6c1.2,0.5,2.6,0.9,2.6,2.4c0,1.2-1,2.3-2.7,2.3
						C196.2,138.2,195.1,137.7,194.4,137.1z"/>
					<path class="st2" d="M202,135.7v-5h-1.2v-0.7l1.3-0.1l0.1-2.3h0.7v2.3h2.3v0.7h-2.3v5c0,1,0.3,1.7,1.3,1.7c0.3,0,0.7-0.1,1-0.2
						l0.2,0.7c-0.5,0.2-1,0.3-1.3,0.3C202.5,138.2,202,137.2,202,135.7z"/>
					<path class="st2" d="M206.2,136c0-1.8,1.6-2.6,5.1-3c0-1.2-0.3-2.4-1.8-2.4c-1,0-2,0.5-2.5,0.9l-0.4-0.6c0.6-0.4,1.7-1.1,3-1.1
						c1.9,0,2.6,1.4,2.6,3.1v5.1h-0.7l-0.1-1h0c-0.8,0.7-1.8,1.2-2.8,1.2C207.2,138.2,206.2,137.5,206.2,136z M211.3,136.2v-2.6
						c-3.2,0.4-4.2,1.1-4.2,2.3c0,1.1,0.8,1.5,1.6,1.5C209.6,137.5,210.3,137,211.3,136.2z"/>
					<path class="st2" d="M215.8,137.2L215.8,137.2l-0.1,0.8h-0.7v-11.9h0.9v3.4l0,1.5c0.8-0.7,1.7-1.2,2.7-1.2
						c2.1,0,3.2,1.6,3.2,4.1c0,2.7-1.6,4.3-3.5,4.3C217.4,138.2,216.5,137.8,215.8,137.2z M220.7,133.9c0-1.9-0.7-3.3-2.4-3.3
						c-0.8,0-1.6,0.5-2.5,1.3v4.6c0.8,0.7,1.7,1,2.3,1C219.6,137.4,220.7,136,220.7,133.9z"/>
					<path class="st2" d="M224,136.8v-10.7h0.9v10.8c0,0.4,0.1,0.5,0.4,0.5c0.1,0,0.1,0,0.3,0l0.1,0.7c-0.2,0-0.3,0.1-0.6,0.1
						C224.3,138.2,224,137.7,224,136.8z"/>
					<path class="st2" d="M227.7,127.4c0-0.5,0.3-0.7,0.7-0.7c0.4,0,0.7,0.3,0.7,0.7c0,0.4-0.3,0.7-0.7,0.7
						C228,128.1,227.7,127.8,227.7,127.4z M228,130h0.9v8H228V130z"/>
					<path class="st2" d="M230.9,137.1l0.5-0.6c0.7,0.6,1.4,1,2.5,1c1.2,0,1.8-0.7,1.8-1.5c0-0.9-1-1.4-1.9-1.7
						c-1.2-0.4-2.5-0.9-2.5-2.3c0-1.2,0.9-2.2,2.6-2.2c0.9,0,1.7,0.4,2.3,0.9l-0.4,0.6c-0.5-0.4-1.1-0.7-1.9-0.7
						c-1.2,0-1.7,0.7-1.7,1.4c0,0.9,0.9,1.2,1.9,1.6c1.2,0.5,2.6,0.9,2.6,2.4c0,1.2-1,2.3-2.7,2.3
						C232.6,138.2,231.6,137.7,230.9,137.1z"/>
					<path class="st2" d="M238.6,126.1h0.9v3.4l0,1.7c0.8-0.8,1.6-1.4,2.7-1.4c1.7,0,2.4,1,2.4,3.1v5.1h-0.9v-5
						c0-1.7-0.5-2.4-1.8-2.4c-0.9,0-1.6,0.5-2.5,1.4v6h-0.9V126.1z"/>
					<path class="st2" d="M250.1,134c0-2.7,1.7-4.2,3.6-4.2s3.6,1.5,3.6,4.2c0,2.7-1.7,4.2-3.6,4.2S250.1,136.7,250.1,134z
						 M256.5,134c0-2-1.2-3.4-2.7-3.4S251,132,251,134c0,2,1.1,3.4,2.7,3.4S256.5,136,256.5,134z"/>
					<path class="st2" d="M259.7,130h0.7l0.1,1.5h0c0.5-1,1.3-1.7,2.3-1.7c0.3,0,0.6,0,0.8,0.2l-0.2,0.8c-0.3-0.1-0.4-0.1-0.7-0.1
						c-0.7,0-1.6,0.5-2.1,2v5.4h-0.9V130z"/>
					<path class="st2" d="M264.8,127.4c0-0.5,0.3-0.7,0.7-0.7c0.4,0,0.7,0.3,0.7,0.7c0,0.4-0.3,0.7-0.7,0.7
						C265.1,128.1,264.8,127.8,264.8,127.4z M265.1,130h0.9v8h-0.9V130z"/>
					<path class="st2" d="M268.3,139.6c0-0.7,0.5-1.4,1.2-1.9v-0.1c-0.4-0.2-0.7-0.7-0.7-1.3c0-0.7,0.5-1.2,0.9-1.5v-0.1
						c-0.5-0.4-1-1.2-1-2.2c0-1.7,1.3-2.8,2.9-2.8c0.4,0,0.8,0.1,1.1,0.2h2.7v0.7h-1.8c0.5,0.4,0.8,1.1,0.8,1.9
						c0,1.6-1.2,2.8-2.8,2.8c-0.4,0-0.9-0.1-1.3-0.3c-0.3,0.3-0.6,0.6-0.6,1.1c0,0.6,0.3,1,1.5,1h1.7c1.8,0,2.7,0.6,2.7,1.8
						c0,1.4-1.5,2.7-3.8,2.7C269.6,141.8,268.3,141,268.3,139.6z M274.5,139.2c0-0.9-0.6-1.2-1.8-1.2h-1.6c-0.2,0-0.6,0-1-0.1
						c-0.7,0.5-1,1.1-1,1.6c0,1,0.9,1.6,2.6,1.6C273.4,141.1,274.5,140.2,274.5,139.2z M273.4,132.6c0-1.3-0.9-2.1-2-2.1
						c-1.1,0-2,0.8-2,2.1c0,1.3,0.9,2.2,2,2.2C272.5,134.8,273.4,133.9,273.4,132.6z"/>
					<path class="st2" d="M276.8,127.4c0-0.5,0.3-0.7,0.7-0.7c0.4,0,0.7,0.3,0.7,0.7c0,0.4-0.3,0.7-0.7,0.7
						C277.1,128.1,276.8,127.8,276.8,127.4z M277.1,130h0.9v8h-0.9V130z"/>
					<path class="st2" d="M280.9,130h0.7l0.1,1.2h0c0.8-0.8,1.6-1.4,2.7-1.4c1.7,0,2.4,1,2.4,3.1v5.1h-0.9v-5c0-1.7-0.5-2.4-1.8-2.4
						c-0.9,0-1.6,0.5-2.5,1.4v6h-0.9V130z"/>
					<path class="st2" d="M289.3,136c0-1.8,1.6-2.6,5.1-3c0-1.2-0.3-2.4-1.8-2.4c-1,0-2,0.5-2.5,0.9l-0.4-0.6c0.6-0.4,1.7-1.1,3-1.1
						c1.9,0,2.6,1.4,2.6,3.1v5.1h-0.7l-0.1-1h0c-0.8,0.7-1.8,1.2-2.8,1.2C290.3,138.2,289.3,137.5,289.3,136z M294.4,136.2v-2.6
						c-3.1,0.4-4.2,1.1-4.2,2.3c0,1.1,0.8,1.5,1.6,1.5S293.4,137,294.4,136.2z"/>
					<path class="st2" d="M298,136.8v-10.7h0.9v10.8c0,0.4,0.2,0.5,0.4,0.5c0.1,0,0.1,0,0.3,0l0.1,0.7c-0.1,0-0.3,0.1-0.6,0.1
						C298.4,138.2,298,137.7,298,136.8z"/>
				</g>
				<g class="st1">
					<path class="st2" d="M30.8,169c0-2.7,1.7-4.2,3.6-4.2c1.9,0,3.6,1.5,3.6,4.2c0,2.7-1.7,4.2-3.6,4.2
						C32.5,173.2,30.8,171.7,30.8,169z M37.2,169c0-2-1.2-3.4-2.7-3.4c-1.6,0-2.7,1.4-2.7,3.4c0,2,1.1,3.4,2.7,3.4
						C36,172.4,37.2,171,37.2,169z"/>
					<path class="st2" d="M40.4,165h0.7l0.1,1.5h0c0.5-1,1.3-1.7,2.3-1.7c0.3,0,0.6,0,0.8,0.2l-0.2,0.8c-0.3-0.1-0.4-0.1-0.7-0.1
						c-0.7,0-1.6,0.5-2.1,2v5.4h-0.9V165z"/>
					<path class="st2" d="M49.1,165h0.7l0.1,1h0c0.8-0.6,1.7-1.2,2.7-1.2c2.1,0,3.2,1.6,3.2,4.1c0,2.7-1.6,4.3-3.5,4.3
						c-0.8,0-1.5-0.3-2.4-1l0,1.5v2.9h-0.9V165z M54.9,168.9c0-1.9-0.7-3.3-2.4-3.3c-0.8,0-1.6,0.5-2.5,1.3v4.6c0.9,0.7,1.7,1,2.3,1
						C53.8,172.4,54.9,171,54.9,168.9z"/>
					<path class="st2" d="M57.4,171c0-1.8,1.6-2.6,5.1-3c0-1.2-0.3-2.4-1.8-2.4c-1,0-2,0.5-2.5,0.9l-0.4-0.6c0.6-0.4,1.7-1.1,3-1.1
						c1.9,0,2.6,1.4,2.6,3.1v5.1h-0.7l-0.1-1h0c-0.8,0.7-1.8,1.2-2.8,1.2C58.4,173.2,57.4,172.5,57.4,171z M62.5,171.2v-2.6
						c-3.1,0.4-4.2,1.1-4.2,2.3c0,1.1,0.8,1.5,1.6,1.5C60.8,172.5,61.5,172,62.5,171.2z"/>
					<path class="st2" d="M66.1,170.7v-5h-1.2v-0.7l1.3-0.1l0.1-2.3H67v2.3h2.3v0.7H67v5c0,1,0.3,1.7,1.3,1.7c0.3,0,0.7-0.1,1-0.2
						l0.2,0.7c-0.5,0.2-1,0.3-1.3,0.3C66.6,173.2,66.1,172.2,66.1,170.7z"/>
					<path class="st2" d="M71.2,161.1h0.9v3.4l0,1.7c0.8-0.8,1.6-1.4,2.7-1.4c1.7,0,2.4,1,2.4,3.1v5.1h-0.9v-5
						c0-1.7-0.5-2.4-1.8-2.4c-0.9,0-1.6,0.5-2.5,1.4v6h-0.9V161.1z"/>
					<path class="st2" d="M79.2,168.5h3.7v0.7h-3.7V168.5z"/>
					<path class="st2" d="M85.9,172.2L85.9,172.2l-0.1,0.8h-0.7v-11.9h0.9v3.4l0,1.5c0.8-0.7,1.7-1.2,2.7-1.2c2.1,0,3.2,1.6,3.2,4.1
						c0,2.7-1.6,4.3-3.5,4.3C87.5,173.2,86.6,172.8,85.9,172.2z M90.9,168.9c0-1.9-0.7-3.3-2.4-3.3c-0.8,0-1.6,0.5-2.5,1.3v4.6
						c0.8,0.7,1.7,1,2.3,1C89.8,172.4,90.9,171,90.9,168.9z"/>
					<path class="st2" d="M94.1,165h0.7l0.1,1.5h0c0.5-1,1.3-1.7,2.3-1.7c0.3,0,0.6,0,0.8,0.2l-0.2,0.8c-0.3-0.1-0.4-0.1-0.7-0.1
						c-0.7,0-1.6,0.5-2.1,2v5.4h-0.9V165z"/>
					<path class="st2" d="M98.7,169c0-2.6,1.7-4.2,3.5-4.2c1.9,0,3.1,1.4,3.1,3.7c0,0.2,0,0.4,0,0.6h-5.7c0,1.9,1.2,3.3,2.9,3.3
						c0.9,0,1.5-0.3,2.1-0.7l0.3,0.6c-0.6,0.4-1.4,0.8-2.5,0.8C100.3,173.2,98.7,171.6,98.7,169z M104.5,168.5
						c0-1.9-0.9-2.9-2.3-2.9c-1.3,0-2.5,1.1-2.6,2.9H104.5z"/>
					<path class="st2" d="M106.6,171c0-1.8,1.6-2.6,5.1-3c0-1.2-0.3-2.4-1.8-2.4c-1,0-2,0.5-2.5,0.9l-0.4-0.6c0.6-0.4,1.7-1.1,3-1.1
						c1.9,0,2.6,1.4,2.6,3.1v5.1h-0.7l-0.1-1h0c-0.8,0.7-1.8,1.2-2.8,1.2C107.6,173.2,106.6,172.5,106.6,171z M111.7,171.2v-2.6
						c-3.1,0.4-4.2,1.1-4.2,2.3c0,1.1,0.8,1.5,1.6,1.5C110,172.5,110.7,172,111.7,171.2z"/>
					<path class="st2" d="M115.3,161.1h0.9v8.6h0l3.8-4.7h1l-2.6,3.2l3,4.8h-1l-2.6-4.2l-1.7,2v2.2h-0.9V161.1z"/>
					<path class="st2" d="M122.9,162.4c0-0.5,0.3-0.7,0.7-0.7c0.4,0,0.7,0.3,0.7,0.7c0,0.4-0.3,0.7-0.7,0.7
						C123.2,163.1,122.9,162.8,122.9,162.4z M123.2,165h0.9v8h-0.9V165z"/>
					<path class="st2" d="M127,165h0.7l0.1,1.2h0c0.8-0.8,1.6-1.4,2.7-1.4c1.7,0,2.4,1,2.4,3.1v5.1h-0.9v-5c0-1.7-0.5-2.4-1.8-2.4
						c-0.9,0-1.6,0.5-2.5,1.4v6H127V165z"/>
					<path class="st2" d="M135.2,174.6c0-0.7,0.5-1.4,1.2-1.9v-0.1c-0.4-0.2-0.7-0.7-0.7-1.3c0-0.7,0.5-1.2,0.9-1.5v-0.1
						c-0.5-0.4-1-1.2-1-2.2c0-1.7,1.3-2.8,2.9-2.8c0.4,0,0.8,0.1,1.1,0.2h2.7v0.7h-1.8c0.5,0.4,0.8,1.1,0.8,1.9
						c0,1.6-1.2,2.8-2.8,2.8c-0.4,0-0.9-0.1-1.3-0.3c-0.3,0.3-0.6,0.6-0.6,1.1c0,0.6,0.3,1,1.5,1h1.7c1.8,0,2.7,0.6,2.7,1.8
						c0,1.4-1.5,2.7-3.8,2.7C136.5,176.8,135.2,176,135.2,174.6z M141.5,174.2c0-0.9-0.6-1.2-1.8-1.2h-1.6c-0.2,0-0.6,0-1-0.1
						c-0.7,0.5-1,1.1-1,1.6c0,1,0.9,1.6,2.6,1.6C140.4,176.1,141.5,175.2,141.5,174.2z M140.4,167.6c0-1.3-0.9-2.1-2-2.1
						c-1.1,0-2,0.8-2,2.1c0,1.3,0.9,2.2,2,2.2C139.5,169.8,140.4,168.9,140.4,167.6z"/>
					<path class="st2" d="M147.6,170.7v-5h-1.2v-0.7l1.3-0.1l0.1-2.3h0.7v2.3h2.3v0.7h-2.3v5c0,1,0.3,1.7,1.3,1.7
						c0.3,0,0.7-0.1,1-0.2l0.2,0.7c-0.5,0.2-1,0.3-1.3,0.3C148.1,173.2,147.6,172.2,147.6,170.7z"/>
					<path class="st2" d="M151.8,169c0-2.6,1.7-4.2,3.5-4.2c1.9,0,3.1,1.4,3.1,3.7c0,0.2,0,0.4,0,0.6h-5.7c0,1.9,1.2,3.3,2.9,3.3
						c0.9,0,1.5-0.3,2.1-0.7l0.3,0.6c-0.6,0.4-1.4,0.8-2.6,0.8C153.5,173.2,151.8,171.6,151.8,169z M157.6,168.5
						c0-1.9-0.9-2.9-2.3-2.9c-1.3,0-2.5,1.1-2.6,2.9H157.6z"/>
					<path class="st2" d="M159.9,169c0-2.7,1.7-4.2,3.7-4.2c1.1,0,1.8,0.5,2.3,1l-0.5,0.6c-0.5-0.5-1.1-0.8-1.8-0.8
						c-1.6,0-2.8,1.4-2.8,3.4c0,2,1.1,3.4,2.8,3.4c0.8,0,1.5-0.4,2.1-0.9l0.4,0.6c-0.7,0.6-1.5,1-2.5,1
						C161.5,173.2,159.9,171.7,159.9,169z"/>
					<path class="st2" d="M168,161.1h0.9v3.4l0,1.7c0.8-0.8,1.6-1.4,2.7-1.4c1.7,0,2.4,1,2.4,3.1v5.1h-0.9v-5c0-1.7-0.5-2.4-1.8-2.4
						c-0.9,0-1.6,0.5-2.5,1.4v6H168V161.1z"/>
					<path class="st2" d="M176.9,165h0.7l0.1,1.2h0c0.8-0.8,1.6-1.4,2.7-1.4c1.7,0,2.4,1,2.4,3.1v5.1H182v-5c0-1.7-0.5-2.4-1.8-2.4
						c-0.9,0-1.6,0.5-2.5,1.4v6h-0.9V165z"/>
					<path class="st2" d="M185.1,169c0-2.7,1.7-4.2,3.6-4.2c1.9,0,3.6,1.5,3.6,4.2c0,2.7-1.7,4.2-3.6,4.2
						C186.8,173.2,185.1,171.7,185.1,169z M191.4,169c0-2-1.2-3.4-2.7-3.4c-1.6,0-2.7,1.4-2.7,3.4c0,2,1.1,3.4,2.7,3.4
						C190.3,172.4,191.4,171,191.4,169z"/>
					<path class="st2" d="M194.7,171.8v-10.7h0.9v10.8c0,0.4,0.1,0.5,0.4,0.5c0.1,0,0.1,0,0.3,0l0.1,0.7c-0.2,0-0.3,0.1-0.6,0.1
						C195,173.2,194.7,172.7,194.7,171.8z"/>
					<path class="st2" d="M198,169c0-2.7,1.7-4.2,3.6-4.2c1.9,0,3.6,1.5,3.6,4.2c0,2.7-1.7,4.2-3.6,4.2
						C199.7,173.2,198,171.7,198,169z M204.3,169c0-2-1.2-3.4-2.7-3.4c-1.6,0-2.7,1.4-2.7,3.4c0,2,1.1,3.4,2.7,3.4
						C203.2,172.4,204.3,171,204.3,169z"/>
					<path class="st2" d="M206.9,174.6c0-0.7,0.5-1.4,1.2-1.9v-0.1c-0.4-0.2-0.7-0.7-0.7-1.3c0-0.7,0.5-1.2,0.9-1.5v-0.1
						c-0.5-0.4-1-1.2-1-2.2c0-1.7,1.3-2.8,2.9-2.8c0.4,0,0.8,0.1,1.1,0.2h2.7v0.7h-1.8c0.5,0.4,0.8,1.1,0.8,1.9
						c0,1.6-1.2,2.8-2.8,2.8c-0.4,0-0.9-0.1-1.3-0.3c-0.3,0.3-0.6,0.6-0.6,1.1c0,0.6,0.3,1,1.5,1h1.7c1.8,0,2.7,0.6,2.7,1.8
						c0,1.4-1.5,2.7-3.8,2.7C208.2,176.8,206.9,176,206.9,174.6z M213.2,174.2c0-0.9-0.6-1.2-1.8-1.2h-1.6c-0.2,0-0.6,0-1-0.1
						c-0.7,0.5-1,1.1-1,1.6c0,1,0.9,1.6,2.6,1.6C212.1,176.1,213.2,175.2,213.2,174.2z M212.1,167.6c0-1.3-0.9-2.1-2-2.1
						c-1.1,0-2,0.8-2,2.1c0,1.3,0.9,2.2,2,2.2C211.2,169.8,212.1,168.9,212.1,167.6z"/>
					<path class="st2" d="M215.4,162.4c0-0.5,0.3-0.7,0.7-0.7c0.4,0,0.7,0.3,0.7,0.7c0,0.4-0.3,0.7-0.7,0.7
						C215.8,163.1,215.4,162.8,215.4,162.4z M215.7,165h0.9v8h-0.9V165z"/>
					<path class="st2" d="M218.9,169c0-2.6,1.7-4.2,3.5-4.2c1.9,0,3.1,1.4,3.1,3.7c0,0.2,0,0.4,0,0.6h-5.7c0,1.9,1.2,3.3,2.9,3.3
						c0.9,0,1.5-0.3,2.1-0.7l0.3,0.6c-0.6,0.4-1.4,0.8-2.5,0.8C220.6,173.2,218.9,171.6,218.9,169z M224.7,168.5
						c0-1.9-0.9-2.9-2.3-2.9c-1.3,0-2.5,1.1-2.6,2.9H224.7z"/>
					<path class="st2" d="M226.7,172.1l0.5-0.6c0.7,0.6,1.4,1,2.5,1c1.2,0,1.8-0.7,1.8-1.5c0-0.9-1-1.4-1.9-1.7
						c-1.2-0.4-2.5-0.9-2.5-2.3c0-1.2,0.9-2.2,2.6-2.2c0.9,0,1.7,0.4,2.3,0.9l-0.4,0.6c-0.5-0.4-1.1-0.7-1.9-0.7
						c-1.2,0-1.7,0.7-1.7,1.4c0,0.9,0.9,1.2,1.9,1.6c1.2,0.5,2.6,0.9,2.6,2.4c0,1.2-1,2.3-2.7,2.3
						C228.4,173.2,227.4,172.7,226.7,172.1z"/>
					<path class="st2" d="M236.7,165h0.9l1.4,5c0.2,0.8,0.4,1.5,0.5,2.2h0.1c0.2-0.7,0.4-1.4,0.6-2.2l1.4-5h1l1.4,5
						c0.2,0.8,0.4,1.5,0.6,2.2h0.1c0.2-0.7,0.4-1.4,0.6-2.2l1.4-5h0.9l-2.2,8H244l-1.3-4.8c-0.2-0.8-0.4-1.5-0.6-2.3H242
						c-0.2,0.8-0.4,1.5-0.6,2.3L240,173h-1L236.7,165z"/>
					<path class="st2" d="M249,162.4c0-0.5,0.3-0.7,0.7-0.7c0.4,0,0.7,0.3,0.7,0.7c0,0.4-0.3,0.7-0.7,0.7
						C249.3,163.1,249,162.8,249,162.4z M249.3,165h0.9v8h-0.9V165z"/>
					<path class="st2" d="M253.3,170.7v-5h-1.2v-0.7l1.3-0.1l0.1-2.3h0.7v2.3h2.3v0.7h-2.3v5c0,1,0.3,1.7,1.3,1.7
						c0.3,0,0.7-0.1,1-0.2l0.2,0.7c-0.5,0.2-1,0.3-1.3,0.3C253.8,173.2,253.3,172.2,253.3,170.7z"/>
					<path class="st2" d="M258.4,161.1h0.9v3.4l0,1.7c0.8-0.8,1.6-1.4,2.7-1.4c1.7,0,2.4,1,2.4,3.1v5.1h-0.9v-5
						c0-1.7-0.5-2.4-1.8-2.4c-0.9,0-1.6,0.5-2.5,1.4v6h-0.9V161.1z"/>
				</g>
				<g class="st1">
					<path class="st2" d="M30.8,209.6c0-0.7,0.5-1.4,1.2-1.9v-0.1c-0.4-0.2-0.7-0.7-0.7-1.3c0-0.7,0.5-1.2,0.9-1.5v-0.1
						c-0.5-0.4-1-1.2-1-2.2c0-1.7,1.3-2.8,2.9-2.8c0.4,0,0.8,0.1,1.1,0.2h2.7v0.7H36c0.5,0.4,0.8,1.1,0.8,1.9c0,1.6-1.2,2.8-2.8,2.8
						c-0.4,0-0.9-0.1-1.3-0.3c-0.3,0.3-0.6,0.6-0.6,1.1c0,0.6,0.3,1,1.5,1h1.7c1.8,0,2.7,0.6,2.7,1.8c0,1.4-1.5,2.7-3.8,2.7
						C32.1,211.8,30.8,211,30.8,209.6z M37.1,209.2c0-0.9-0.6-1.2-1.8-1.2h-1.6c-0.2,0-0.6,0-1-0.1c-0.7,0.5-1,1.1-1,1.6
						c0,1,0.9,1.6,2.6,1.6C36,211.1,37.1,210.2,37.1,209.2z M36,202.6c0-1.3-0.9-2.1-2-2.1c-1.1,0-2,0.8-2,2.1c0,1.3,0.9,2.2,2,2.2
						C35.1,204.8,36,203.9,36,202.6z"/>
					<path class="st2" d="M39.6,206.8v-10.7h0.9v10.8c0,0.4,0.1,0.5,0.4,0.5c0.1,0,0.1,0,0.3,0l0.1,0.7c-0.1,0-0.3,0.1-0.6,0.1
						C40,208.2,39.6,207.7,39.6,206.8z"/>
					<path class="st2" d="M43,204c0-2.7,1.7-4.2,3.6-4.2c1.9,0,3.6,1.5,3.6,4.2c0,2.7-1.7,4.2-3.6,4.2C44.7,208.2,43,206.7,43,204z
						 M49.3,204c0-2-1.2-3.4-2.7-3.4c-1.6,0-2.7,1.4-2.7,3.4c0,2,1.1,3.4,2.7,3.4C48.2,207.4,49.3,206,49.3,204z"/>
					<path class="st2" d="M53.4,207.2L53.4,207.2l-0.1,0.8h-0.7v-11.9h0.9v3.4l0,1.5c0.8-0.7,1.7-1.2,2.7-1.2c2.1,0,3.2,1.6,3.2,4.1
						c0,2.7-1.6,4.3-3.5,4.3C55,208.2,54.1,207.8,53.4,207.2z M58.4,203.9c0-1.9-0.7-3.3-2.4-3.3c-0.8,0-1.6,0.5-2.5,1.3v4.6
						c0.8,0.7,1.7,1,2.3,1C57.3,207.4,58.4,206,58.4,203.9z"/>
					<path class="st2" d="M60.8,206c0-1.8,1.6-2.6,5.1-3c0-1.2-0.3-2.4-1.8-2.4c-1,0-2,0.5-2.5,0.9l-0.4-0.6c0.6-0.4,1.7-1.1,3-1.1
						c1.9,0,2.6,1.4,2.6,3.1v5.1H66l-0.1-1h0c-0.8,0.7-1.8,1.2-2.8,1.2C61.8,208.2,60.8,207.5,60.8,206z M65.9,206.2v-2.6
						c-3.1,0.4-4.2,1.1-4.2,2.3c0,1.1,0.8,1.5,1.6,1.5C64.2,207.5,64.9,207,65.9,206.2z"/>
					<path class="st2" d="M69.6,206.8v-10.7h0.9v10.8c0,0.4,0.1,0.5,0.4,0.5c0.1,0,0.1,0,0.3,0l0.1,0.7c-0.1,0-0.3,0.1-0.6,0.1
						C69.9,208.2,69.6,207.7,69.6,206.8z"/>
					<path class="st2" d="M76.2,204c0-2.7,1.7-4.2,3.7-4.2c1.1,0,1.8,0.5,2.3,1l-0.5,0.6c-0.5-0.5-1.1-0.8-1.8-0.8
						c-1.6,0-2.8,1.4-2.8,3.4c0,2,1.1,3.4,2.8,3.4c0.8,0,1.5-0.4,2.1-0.9l0.4,0.6c-0.7,0.6-1.5,1-2.5,1
						C77.8,208.2,76.2,206.7,76.2,204z"/>
					<path class="st2" d="M83.4,204c0-2.7,1.7-4.2,3.6-4.2c1.9,0,3.6,1.5,3.6,4.2c0,2.7-1.7,4.2-3.6,4.2
						C85.1,208.2,83.4,206.7,83.4,204z M89.7,204c0-2-1.2-3.4-2.7-3.4c-1.6,0-2.7,1.4-2.7,3.4c0,2,1.1,3.4,2.7,3.4
						C88.6,207.4,89.7,206,89.7,204z"/>
					<path class="st2" d="M93,200h0.7l0.1,1.2h0c0.7-0.8,1.6-1.4,2.5-1.4c1.3,0,1.9,0.6,2.2,1.6c0.9-1,1.8-1.6,2.7-1.6
						c1.6,0,2.4,1,2.4,3.1v5.1h-0.9v-5c0-1.7-0.6-2.4-1.7-2.4c-0.7,0-1.5,0.5-2.3,1.4v6h-0.9v-5c0-1.7-0.5-2.4-1.7-2.4
						c-0.7,0-1.5,0.5-2.3,1.4v6H93V200z"/>
					<path class="st2" d="M106.5,200h0.7l0.1,1h0c0.8-0.6,1.7-1.2,2.7-1.2c2.1,0,3.2,1.6,3.2,4.1c0,2.7-1.6,4.3-3.5,4.3
						c-0.8,0-1.5-0.3-2.4-1l0,1.5v2.9h-0.9V200z M112.3,203.9c0-1.9-0.7-3.3-2.4-3.3c-0.8,0-1.6,0.5-2.5,1.3v4.6
						c0.9,0.7,1.7,1,2.3,1C111.2,207.4,112.3,206,112.3,203.9z"/>
					<path class="st2" d="M114.9,204c0-2.6,1.7-4.2,3.5-4.2c1.9,0,3.1,1.4,3.1,3.7c0,0.2,0,0.4,0,0.6h-5.7c0,1.9,1.2,3.3,2.9,3.3
						c0.9,0,1.5-0.3,2.1-0.7l0.3,0.6c-0.6,0.4-1.4,0.8-2.5,0.8C116.6,208.2,114.9,206.6,114.9,204z M120.7,203.5
						c0-1.9-0.9-2.9-2.3-2.9c-1.3,0-2.5,1.1-2.6,2.9H120.7z"/>
					<path class="st2" d="M123.7,205.7v-5h-1.2v-0.7l1.3-0.1l0.1-2.3h0.7v2.3h2.3v0.7h-2.3v5c0,1,0.3,1.7,1.3,1.7
						c0.3,0,0.7-0.1,1-0.2l0.2,0.7c-0.5,0.2-1,0.3-1.3,0.3C124.2,208.2,123.7,207.2,123.7,205.7z"/>
					<path class="st2" d="M128.5,197.4c0-0.5,0.3-0.7,0.7-0.7c0.4,0,0.7,0.3,0.7,0.7c0,0.4-0.3,0.7-0.7,0.7
						C128.8,198.1,128.5,197.8,128.5,197.4z M128.8,200h0.9v8h-0.9V200z"/>
					<path class="st2" d="M132.8,205.7v-5h-1.2v-0.7l1.3-0.1l0.1-2.3h0.7v2.3h2.3v0.7h-2.3v5c0,1,0.3,1.7,1.3,1.7
						c0.3,0,0.7-0.1,1-0.2l0.2,0.7c-0.5,0.2-1,0.3-1.3,0.3C133.3,208.2,132.8,207.2,132.8,205.7z"/>
					<path class="st2" d="M137.6,197.4c0-0.5,0.3-0.7,0.7-0.7c0.4,0,0.7,0.3,0.7,0.7c0,0.4-0.3,0.7-0.7,0.7
						C138,198.1,137.6,197.8,137.6,197.4z M137.9,200h0.9v8h-0.9V200z"/>
					<path class="st2" d="M140.5,200h0.9l1.7,4.9c0.3,0.8,0.5,1.6,0.8,2.3h0.1c0.3-0.7,0.5-1.5,0.8-2.3l1.7-4.9h0.9l-2.9,8h-1
						L140.5,200z"/>
					<path class="st2" d="M148.5,204c0-2.6,1.7-4.2,3.5-4.2c1.9,0,3.1,1.4,3.1,3.7c0,0.2,0,0.4,0,0.6h-5.7c0,1.9,1.2,3.3,2.9,3.3
						c0.9,0,1.5-0.3,2.1-0.7l0.3,0.6c-0.6,0.4-1.4,0.8-2.5,0.8C150.1,208.2,148.5,206.6,148.5,204z M154.3,203.5
						c0-1.9-0.9-2.9-2.3-2.9c-1.3,0-2.5,1.1-2.6,2.9H154.3z"/>
					<path class="st2" d="M157.2,200h0.7l0.1,1.2h0c0.8-0.8,1.6-1.4,2.7-1.4c1.7,0,2.4,1,2.4,3.1v5.1h-0.9v-5c0-1.7-0.5-2.4-1.8-2.4
						c-0.9,0-1.6,0.5-2.5,1.4v6h-0.9V200z"/>
					<path class="st2" d="M165.4,204c0-2.6,1.7-4.2,3.5-4.2c1.9,0,3.1,1.4,3.1,3.7c0,0.2,0,0.4,0,0.6h-5.7c0,1.9,1.2,3.3,2.9,3.3
						c0.9,0,1.5-0.3,2.1-0.7l0.3,0.6c-0.6,0.4-1.4,0.8-2.5,0.8C167.1,208.2,165.4,206.6,165.4,204z M171.2,203.5
						c0-1.9-0.9-2.9-2.3-2.9c-1.3,0-2.5,1.1-2.6,2.9H171.2z"/>
					<path class="st2" d="M173.2,207.1l0.5-0.6c0.7,0.6,1.4,1,2.5,1c1.2,0,1.8-0.7,1.8-1.5c0-0.9-1-1.4-1.9-1.7
						c-1.2-0.4-2.5-0.9-2.5-2.3c0-1.2,0.9-2.2,2.6-2.2c0.9,0,1.7,0.4,2.3,0.9l-0.4,0.6c-0.5-0.4-1.1-0.7-1.9-0.7
						c-1.2,0-1.7,0.7-1.7,1.4c0,0.9,0.9,1.2,1.9,1.6c1.2,0.5,2.6,0.9,2.6,2.4c0,1.2-1,2.3-2.7,2.3
						C174.9,208.2,173.9,207.7,173.2,207.1z"/>
					<path class="st2" d="M180,207.1l0.5-0.6c0.7,0.6,1.4,1,2.5,1c1.2,0,1.8-0.7,1.8-1.5c0-0.9-1-1.4-1.9-1.7
						c-1.2-0.4-2.5-0.9-2.5-2.3c0-1.2,0.9-2.2,2.6-2.2c0.9,0,1.7,0.4,2.3,0.9l-0.4,0.6c-0.5-0.4-1.1-0.7-1.9-0.7
						c-1.2,0-1.7,0.7-1.7,1.4c0,0.9,0.9,1.2,1.9,1.6c1.2,0.5,2.6,0.9,2.6,2.4c0,1.2-1,2.3-2.7,2.3
						C181.7,208.2,180.7,207.7,180,207.1z"/>
				</g>
				<text transform="matrix(1 0 0 1 186.2082 208)" class="st2 st5 st4"> </text>
				<g class="st1">
					<path class="st2" d="M30.7,273.5h3.7v0.7h-3.7V273.5z"/>
					<path class="st2" d="M39.9,273.7v-6.7h0.9v6.6c0,2.9,1.3,3.7,2.8,3.7c1.5,0,2.9-0.9,2.9-3.7v-6.6h0.9v6.7
						c0,3.4-1.8,4.5-3.8,4.5S39.9,277.2,39.9,273.7z"/>
					<path class="st2" d="M50.6,275.7v-5h-1.2v-0.7l1.3-0.1l0.1-2.3h0.7v2.3h2.3v0.7h-2.3v5c0,1,0.3,1.7,1.3,1.7
						c0.3,0,0.7-0.1,1-0.2l0.2,0.7c-0.5,0.2-1,0.3-1.3,0.3C51.1,278.2,50.6,277.2,50.6,275.7z"/>
					<path class="st2" d="M55.4,267.4c0-0.5,0.3-0.7,0.7-0.7c0.4,0,0.7,0.3,0.7,0.7c0,0.4-0.3,0.7-0.7,0.7
						C55.7,268.1,55.4,267.8,55.4,267.4z M55.7,270h0.9v8h-0.9V270z"/>
					<path class="st2" d="M59.5,276.8v-10.7h0.9v10.8c0,0.4,0.1,0.5,0.4,0.5c0.1,0,0.1,0,0.3,0l0.1,0.7c-0.1,0-0.3,0.1-0.6,0.1
						C59.9,278.2,59.5,277.7,59.5,276.8z"/>
					<path class="st2" d="M63.3,267.4c0-0.5,0.3-0.7,0.7-0.7c0.4,0,0.7,0.3,0.7,0.7c0,0.4-0.3,0.7-0.7,0.7
						C63.6,268.1,63.3,267.8,63.3,267.4z M63.5,270h0.9v8h-0.9V270z"/>
					<path class="st2" d="M66.4,277.5l4.6-6.8h-4.1V270h5.2v0.5l-4.6,6.8h4.8v0.8h-5.9V277.5z"/>
					<path class="st2" d="M73.4,274c0-2.6,1.7-4.2,3.5-4.2c1.9,0,3.1,1.4,3.1,3.7c0,0.2,0,0.4,0,0.6h-5.7c0,1.9,1.2,3.3,2.9,3.3
						c0.9,0,1.5-0.3,2.1-0.7l0.3,0.6c-0.6,0.4-1.4,0.8-2.5,0.8C75,278.2,73.4,276.6,73.4,274z M79.2,273.5c0-1.9-0.9-2.9-2.3-2.9
						c-1.3,0-2.5,1.1-2.6,2.9H79.2z"/>
					<path class="st2" d="M86.3,277.2L86.3,277.2l-0.1,0.8h-0.7v-11.9h0.9v3.4l0,1.5c0.8-0.7,1.7-1.2,2.7-1.2c2.1,0,3.2,1.6,3.2,4.1
						c0,2.7-1.6,4.3-3.5,4.3C87.9,278.2,87,277.8,86.3,277.2z M91.2,273.9c0-1.9-0.7-3.3-2.4-3.3c-0.8,0-1.6,0.5-2.5,1.3v4.6
						c0.8,0.7,1.7,1,2.3,1C90.1,277.4,91.2,276,91.2,273.9z"/>
					<path class="st2" d="M94.2,267.4c0-0.5,0.3-0.7,0.7-0.7c0.4,0,0.7,0.3,0.7,0.7c0,0.4-0.3,0.7-0.7,0.7
						C94.5,268.1,94.2,267.8,94.2,267.4z M94.5,270h0.9v8h-0.9V270z"/>
					<path class="st2" d="M97.6,279.6c0-0.7,0.5-1.4,1.2-1.9v-0.1c-0.4-0.2-0.7-0.7-0.7-1.3c0-0.7,0.5-1.2,0.9-1.5v-0.1
						c-0.5-0.4-1-1.2-1-2.2c0-1.7,1.3-2.8,2.9-2.8c0.4,0,0.8,0.1,1.1,0.2h2.7v0.7h-1.8c0.5,0.4,0.8,1.1,0.8,1.9
						c0,1.6-1.2,2.8-2.8,2.8c-0.4,0-0.9-0.1-1.3-0.3c-0.3,0.3-0.6,0.6-0.6,1.1c0,0.6,0.3,1,1.5,1h1.7c1.8,0,2.7,0.6,2.7,1.8
						c0,1.4-1.5,2.7-3.8,2.7C99,281.8,97.6,281,97.6,279.6z M103.9,279.2c0-0.9-0.6-1.2-1.8-1.2h-1.6c-0.2,0-0.6,0-1-0.1
						c-0.7,0.5-1,1.1-1,1.6c0,1,0.9,1.6,2.6,1.6C102.8,281.1,103.9,280.2,103.9,279.2z M102.8,272.6c0-1.3-0.9-2.1-2-2.1
						c-1.1,0-2,0.8-2,2.1c0,1.3,0.9,2.2,2,2.2C101.9,274.8,102.8,273.9,102.8,272.6z"/>
					<path class="st2" d="M109.1,274c0-2.6,1.6-4.2,3.5-4.2c1,0,1.6,0.4,2.4,1l-0.1-1.4v-3.3h0.9V278h-0.7l-0.1-1h0
						c-0.6,0.6-1.5,1.2-2.6,1.2C110.4,278.2,109.1,276.7,109.1,274z M115,276.2v-4.6c-0.8-0.7-1.5-1-2.2-1c-1.5,0-2.7,1.5-2.7,3.4
						c0,2.1,0.9,3.4,2.5,3.4C113.5,277.4,114.2,277,115,276.2z"/>
					<path class="st2" d="M118.3,276c0-1.8,1.6-2.6,5.1-3c0-1.2-0.3-2.4-1.8-2.4c-1,0-2,0.5-2.5,0.9l-0.4-0.6c0.6-0.4,1.7-1.1,3-1.1
						c1.9,0,2.6,1.4,2.6,3.1v5.1h-0.7l-0.1-1h0c-0.8,0.7-1.8,1.2-2.8,1.2C119.4,278.2,118.3,277.5,118.3,276z M123.4,276.2v-2.6
						c-3.1,0.4-4.2,1.1-4.2,2.3c0,1.1,0.8,1.5,1.6,1.5C121.7,277.5,122.5,277,123.4,276.2z"/>
					<path class="st2" d="M127.1,275.7v-5h-1.2v-0.7l1.3-0.1l0.1-2.3h0.7v2.3h2.3v0.7h-2.3v5c0,1,0.3,1.7,1.3,1.7
						c0.3,0,0.7-0.1,1-0.2l0.2,0.7c-0.5,0.2-1,0.3-1.3,0.3C127.6,278.2,127.1,277.2,127.1,275.7z"/>
					<path class="st2" d="M131.2,276c0-1.8,1.6-2.6,5.1-3c0-1.2-0.3-2.4-1.8-2.4c-1,0-2,0.5-2.5,0.9l-0.4-0.6c0.6-0.4,1.7-1.1,3-1.1
						c1.9,0,2.6,1.4,2.6,3.1v5.1h-0.7l-0.1-1h0c-0.8,0.7-1.8,1.2-2.8,1.2C132.3,278.2,131.2,277.5,131.2,276z M136.3,276.2v-2.6
						c-3.1,0.4-4.2,1.1-4.2,2.3c0,1.1,0.8,1.5,1.6,1.5C134.6,277.5,135.4,277,136.3,276.2z"/>
					<path class="st2" d="M143.5,275.7v-5h-1.2v-0.7l1.3-0.1l0.1-2.3h0.7v2.3h2.3v0.7h-2.3v5c0,1,0.3,1.7,1.3,1.7
						c0.3,0,0.7-0.1,1-0.2l0.2,0.7c-0.5,0.2-1,0.3-1.3,0.3C144,278.2,143.5,277.2,143.5,275.7z"/>
					<path class="st2" d="M147.8,274c0-2.7,1.7-4.2,3.6-4.2c1.9,0,3.6,1.5,3.6,4.2c0,2.7-1.7,4.2-3.6,4.2
						C149.4,278.2,147.8,276.7,147.8,274z M154.1,274c0-2-1.2-3.4-2.7-3.4c-1.6,0-2.7,1.4-2.7,3.4c0,2,1.1,3.4,2.7,3.4
						C152.9,277.4,154.1,276,154.1,274z"/>
					<path class="st2" d="M160.4,267.4c0-0.5,0.3-0.7,0.7-0.7c0.4,0,0.7,0.3,0.7,0.7c0,0.4-0.3,0.7-0.7,0.7
						C160.7,268.1,160.4,267.8,160.4,267.4z M160.7,270h0.9v8h-0.9V270z"/>
					<path class="st2" d="M163.9,274c0-2.6,1.6-4.2,3.5-4.2c1,0,1.6,0.4,2.4,1l-0.1-1.4v-3.3h0.9V278h-0.7l-0.1-1h0
						c-0.6,0.6-1.5,1.2-2.6,1.2C165.2,278.2,163.9,276.7,163.9,274z M169.7,276.2v-4.6c-0.8-0.7-1.5-1-2.2-1c-1.5,0-2.7,1.5-2.7,3.4
						c0,2.1,0.9,3.4,2.5,3.4C168.2,277.4,168.9,277,169.7,276.2z"/>
					<path class="st2" d="M172.9,274c0-2.6,1.7-4.2,3.5-4.2c1.9,0,3.1,1.4,3.1,3.7c0,0.2,0,0.4,0,0.6h-5.7c0,1.9,1.2,3.3,2.9,3.3
						c0.9,0,1.5-0.3,2.1-0.7l0.3,0.6c-0.6,0.4-1.4,0.8-2.6,0.8C174.6,278.2,172.9,276.6,172.9,274z M178.7,273.5
						c0-1.9-0.9-2.9-2.3-2.9c-1.3,0-2.5,1.1-2.6,2.9H178.7z"/>
					<path class="st2" d="M181.7,270h0.7l0.1,1.2h0c0.8-0.8,1.6-1.4,2.7-1.4c1.7,0,2.4,1,2.4,3.1v5.1h-0.9v-5c0-1.7-0.5-2.4-1.8-2.4
						c-0.9,0-1.6,0.5-2.5,1.4v6h-0.9V270z"/>
					<path class="st2" d="M190.8,275.7v-5h-1.2v-0.7l1.3-0.1l0.1-2.3h0.7v2.3h2.3v0.7h-2.3v5c0,1,0.3,1.7,1.3,1.7
						c0.3,0,0.7-0.1,1-0.2l0.2,0.7c-0.5,0.2-1,0.3-1.3,0.3C191.2,278.2,190.8,277.2,190.8,275.7z"/>
					<path class="st2" d="M195.6,267.4c0-0.5,0.3-0.7,0.7-0.7c0.4,0,0.7,0.3,0.7,0.7c0,0.4-0.3,0.7-0.7,0.7
						C195.9,268.1,195.6,267.8,195.6,267.4z M195.8,270h0.9v8h-0.9V270z"/>
					<path class="st2" d="M202.9,266.8c-0.3-0.2-0.6-0.2-0.9-0.2c-0.9,0-1.2,0.6-1.2,1.8v1.6h1.8v0.7h-1.8v7.3h-0.9v-7.3h-1.1v-0.7
						l1.1-0.1v-1.7c0-1.6,0.7-2.4,2.1-2.4c0.4,0,0.8,0.1,1.2,0.3L202.9,266.8z"/>
					<path class="st2" d="M203.1,281.4l0.2-0.7c0.2,0.1,0.4,0.1,0.6,0.1c1,0,1.6-0.9,2-2l0.2-0.7l-3.3-8.1h0.9l1.9,4.9
						c0.3,0.7,0.6,1.5,0.8,2.2h0.1c0.2-0.7,0.5-1.6,0.7-2.2l1.6-4.9h0.9l-3.1,8.9c-0.5,1.4-1.3,2.7-2.8,2.7
						C203.6,281.6,203.3,281.5,203.1,281.4z"/>
					<path class="st2" d="M214.9,267.1h1.2l2.2,6.3l0.9,2.4h0.1c0.3-0.8,0.5-1.6,0.8-2.4l2.2-6.3h1.2V278h-0.9v-6.9
						c0-0.9,0.1-2.1,0.1-3h-0.1l-0.9,2.4l-2.3,6.3h-0.7l-2.3-6.3l-0.9-2.4h-0.1c0,0.9,0.1,2.1,0.1,3v6.9h-0.8V267.1z"/>
					<path class="st2" d="M226.5,275.1V270h0.9v5c0,1.6,0.5,2.4,1.7,2.4c0.9,0,1.6-0.5,2.5-1.6V270h0.9v8h-0.7l-0.1-1.3h0
						c-0.8,0.9-1.6,1.5-2.7,1.5C227.3,278.2,226.5,277.2,226.5,275.1z"/>
					<path class="st2" d="M235.5,276.8v-10.7h0.9v10.8c0,0.4,0.1,0.5,0.4,0.5c0.1,0,0.1,0,0.3,0l0.1,0.7c-0.2,0-0.3,0.1-0.6,0.1
						C235.8,278.2,235.5,277.7,235.5,276.8z"/>
					<path class="st2" d="M239.7,275.7v-5h-1.2v-0.7l1.3-0.1l0.1-2.3h0.7v2.3h2.3v0.7h-2.3v5c0,1,0.3,1.7,1.3,1.7
						c0.3,0,0.7-0.1,1-0.2l0.2,0.7c-0.5,0.2-1,0.3-1.3,0.3C240.2,278.2,239.7,277.2,239.7,275.7z"/>
					<path class="st2" d="M244.5,267.4c0-0.5,0.3-0.7,0.7-0.7c0.4,0,0.7,0.3,0.7,0.7c0,0.4-0.3,0.7-0.7,0.7
						C244.8,268.1,244.5,267.8,244.5,267.4z M244.8,270h0.9v8h-0.9V270z"/>
					<path class="st2" d="M247.8,273.5h3.7v0.7h-3.7V273.5z"/>
				</g>
				<text transform="matrix(1 0 0 1 252.1307 278)" class="st2 st5 st4"> </text>
				<g class="st1">
					<path class="st2" d="M30.9,307.5c0-3.5,1.9-5.7,4.7-5.7c1.3,0,2.3,0.6,2.9,1.3l-0.5,0.6c-0.6-0.7-1.4-1.1-2.4-1.1
						c-2.3,0-3.8,1.9-3.8,4.8c0,3,1.4,4.9,3.7,4.9c1.1,0,1.9-0.5,2.7-1.3l0.5,0.6c-0.8,1-1.9,1.6-3.3,1.6
						C32.8,313.2,30.9,311,30.9,307.5z"/>
					<path class="st2" d="M40.2,309c0-2.7,1.7-4.2,3.6-4.2c1.9,0,3.6,1.5,3.6,4.2c0,2.7-1.7,4.2-3.6,4.2
						C41.9,313.2,40.2,311.7,40.2,309z M46.6,309c0-2-1.2-3.4-2.7-3.4c-1.6,0-2.7,1.4-2.7,3.4c0,2,1.1,3.4,2.7,3.4
						C45.4,312.4,46.6,311,46.6,309z"/>
					<path class="st2" d="M49.8,305h0.7l0.1,1.2h0c0.7-0.8,1.6-1.4,2.5-1.4c1.3,0,1.9,0.6,2.2,1.6c0.9-1,1.8-1.6,2.7-1.6
						c1.6,0,2.4,1,2.4,3.1v5.1h-0.9v-5c0-1.7-0.6-2.4-1.7-2.4c-0.7,0-1.5,0.5-2.3,1.4v6h-0.9v-5c0-1.7-0.5-2.4-1.7-2.4
						c-0.7,0-1.5,0.5-2.3,1.4v6h-0.9V305z"/>
					<path class="st2" d="M63.4,305h0.7l0.1,1h0c0.8-0.6,1.7-1.2,2.7-1.2c2.1,0,3.2,1.6,3.2,4.1c0,2.7-1.6,4.3-3.5,4.3
						c-0.8,0-1.5-0.3-2.4-1l0,1.5v2.9h-0.9V305z M69.2,308.9c0-1.9-0.7-3.3-2.4-3.3c-0.8,0-1.6,0.5-2.5,1.3v4.6c0.9,0.7,1.7,1,2.3,1
						C68.1,312.4,69.2,311,69.2,308.9z"/>
					<path class="st2" d="M71.8,309c0-2.7,1.7-4.2,3.6-4.2c1.9,0,3.6,1.5,3.6,4.2c0,2.7-1.7,4.2-3.6,4.2
						C73.5,313.2,71.8,311.7,71.8,309z M78.1,309c0-2-1.2-3.4-2.7-3.4c-1.6,0-2.7,1.4-2.7,3.4c0,2,1.1,3.4,2.7,3.4
						C77,312.4,78.1,311,78.1,309z"/>
					<path class="st2" d="M81.4,305h0.7l0.1,1.2h0c0.8-0.8,1.6-1.4,2.7-1.4c1.7,0,2.4,1,2.4,3.1v5.1h-0.9v-5c0-1.7-0.5-2.4-1.8-2.4
						c-0.9,0-1.6,0.5-2.5,1.4v6h-0.9V305z"/>
					<path class="st2" d="M89.6,309c0-2.6,1.7-4.2,3.5-4.2c1.9,0,3.1,1.4,3.1,3.7c0,0.2,0,0.4,0,0.6h-5.7c0,1.9,1.2,3.3,2.9,3.3
						c0.9,0,1.5-0.3,2.1-0.7l0.3,0.6c-0.6,0.4-1.4,0.8-2.5,0.8C91.3,313.2,89.6,311.6,89.6,309z M95.4,308.5c0-1.9-0.9-2.9-2.3-2.9
						c-1.3,0-2.5,1.1-2.6,2.9H95.4z"/>
					<path class="st2" d="M98.3,305H99l0.1,1.2h0c0.8-0.8,1.6-1.4,2.7-1.4c1.7,0,2.4,1,2.4,3.1v5.1h-0.9v-5c0-1.7-0.5-2.4-1.8-2.4
						c-0.9,0-1.6,0.5-2.5,1.4v6h-0.9V305z"/>
					<path class="st2" d="M107.4,310.7v-5h-1.2v-0.7l1.3-0.1l0.1-2.3h0.7v2.3h2.3v0.7h-2.3v5c0,1,0.3,1.7,1.3,1.7
						c0.3,0,0.7-0.1,1-0.2l0.2,0.7c-0.5,0.2-1,0.3-1.3,0.3C107.9,313.2,107.4,312.2,107.4,310.7z"/>
					<path class="st2" d="M116.4,301.2h0.7l-4.9,14.4h-0.7L116.4,301.2z"/>
					<path class="st2" d="M118.8,302.1h1.2l2.2,6.3l0.9,2.4h0.1c0.3-0.8,0.5-1.6,0.8-2.4l2.2-6.3h1.2V313h-0.9v-6.9
						c0-0.9,0.1-2.1,0.1-3h-0.1l-0.9,2.4l-2.3,6.3h-0.7l-2.3-6.3l-0.9-2.4h-0.1c0,0.9,0.1,2.1,0.1,3v6.9h-0.8V302.1z"/>
					<path class="st2" d="M130.4,310.1V305h0.9v5c0,1.6,0.5,2.4,1.7,2.4c0.9,0,1.6-0.5,2.5-1.6V305h0.9v8h-0.7l-0.1-1.3h0
						c-0.8,0.9-1.6,1.5-2.7,1.5C131.1,313.2,130.4,312.2,130.4,310.1z"/>
					<path class="st2" d="M139.3,311.8v-10.7h0.9v10.8c0,0.4,0.1,0.5,0.4,0.5c0.1,0,0.1,0,0.3,0l0.1,0.7c-0.1,0-0.3,0.1-0.6,0.1
						C139.7,313.2,139.3,312.7,139.3,311.8z"/>
					<path class="st2" d="M143.5,310.7v-5h-1.2v-0.7l1.3-0.1l0.1-2.3h0.7v2.3h2.3v0.7h-2.3v5c0,1,0.3,1.7,1.3,1.7
						c0.3,0,0.7-0.1,1-0.2l0.2,0.7c-0.5,0.2-1,0.3-1.3,0.3C144,313.2,143.5,312.2,143.5,310.7z"/>
					<path class="st2" d="M148.3,302.4c0-0.5,0.3-0.7,0.7-0.7c0.4,0,0.7,0.3,0.7,0.7c0,0.4-0.3,0.7-0.7,0.7
						C148.7,303.1,148.3,302.8,148.3,302.4z M148.6,305h0.9v8h-0.9V305z"/>
					<path class="st2" d="M151.6,308.5h3.7v0.7h-3.7V308.5z"/>
					<path class="st2" d="M159.2,302.8h-3.4v-0.8h7.8v0.8h-3.5V313h-0.9V302.8z"/>
					<path class="st2" d="M163.7,311c0-1.8,1.6-2.6,5.1-3c0-1.2-0.3-2.4-1.8-2.4c-1,0-2,0.5-2.5,0.9l-0.4-0.6c0.6-0.4,1.7-1.1,3-1.1
						c1.9,0,2.6,1.4,2.6,3.1v5.1h-0.7l-0.1-1h0c-0.8,0.7-1.8,1.2-2.8,1.2C164.7,313.2,163.7,312.5,163.7,311z M168.8,311.2v-2.6
						c-3.1,0.4-4.2,1.1-4.2,2.3c0,1.1,0.8,1.5,1.6,1.5C167.1,312.5,167.8,312,168.8,311.2z"/>
					<path class="st2" d="M172.4,305h0.7l0.1,1.5h0c0.5-1,1.3-1.7,2.3-1.7c0.3,0,0.6,0,0.8,0.2l-0.2,0.8c-0.3-0.1-0.4-0.1-0.7-0.1
						c-0.7,0-1.6,0.5-2.1,2v5.4h-0.9V305z"/>
					<path class="st2" d="M177,314.6c0-0.7,0.5-1.4,1.2-1.9v-0.1c-0.4-0.2-0.7-0.7-0.7-1.3c0-0.7,0.5-1.2,0.9-1.5v-0.1
						c-0.5-0.4-1-1.2-1-2.2c0-1.7,1.3-2.8,2.9-2.8c0.4,0,0.8,0.1,1.1,0.2h2.7v0.7h-1.8c0.5,0.4,0.8,1.1,0.8,1.9
						c0,1.6-1.2,2.8-2.8,2.8c-0.4,0-0.9-0.1-1.3-0.3c-0.3,0.3-0.6,0.6-0.6,1.1c0,0.6,0.3,1,1.5,1h1.7c1.8,0,2.7,0.6,2.7,1.8
						c0,1.4-1.5,2.7-3.8,2.7C178.3,316.8,177,316,177,314.6z M183.3,314.2c0-0.9-0.6-1.2-1.8-1.2h-1.6c-0.2,0-0.6,0-1-0.1
						c-0.7,0.5-1,1.1-1,1.6c0,1,0.9,1.6,2.6,1.6C182.1,316.1,183.3,315.2,183.3,314.2z M182.2,307.6c0-1.3-0.9-2.1-2-2.1
						c-1.1,0-2,0.8-2,2.1c0,1.3,0.9,2.2,2,2.2C181.2,309.8,182.2,308.9,182.2,307.6z"/>
					<path class="st2" d="M184.9,309c0-2.6,1.7-4.2,3.5-4.2c1.9,0,3.1,1.4,3.1,3.7c0,0.2,0,0.4,0,0.6h-5.7c0,1.9,1.2,3.3,2.9,3.3
						c0.9,0,1.5-0.3,2.1-0.7l0.3,0.6c-0.6,0.4-1.4,0.8-2.5,0.8C186.6,313.2,184.9,311.6,184.9,309z M190.8,308.5
						c0-1.9-0.9-2.9-2.3-2.9c-1.3,0-2.5,1.1-2.6,2.9H190.8z"/>
					<path class="st2" d="M193.7,310.7v-5h-1.2v-0.7l1.3-0.1l0.1-2.3h0.7v2.3h2.3v0.7h-2.3v5c0,1,0.3,1.7,1.3,1.7
						c0.3,0,0.7-0.1,1-0.2l0.2,0.7c-0.5,0.2-1,0.3-1.3,0.3C194.2,313.2,193.7,312.2,193.7,310.7z"/>
					<path class="st2" d="M202.1,308.4c0-2.9,0.8-5.3,2.2-7.5l0.5,0.3c-1.3,2.1-2,4.6-2,7.2s0.7,5.1,2,7.2l-0.5,0.3
						C202.9,313.7,202.1,311.3,202.1,308.4z"/>
					<path class="st2" d="M206.9,302.1h1.2l2.2,6.3l0.9,2.4h0.1c0.3-0.8,0.5-1.6,0.8-2.4l2.2-6.3h1.2V313h-0.9v-6.9
						c0-0.9,0.1-2.1,0.1-3h-0.1l-0.9,2.4l-2.3,6.3h-0.7l-2.3-6.3l-0.9-2.4h-0.1c0,0.9,0.1,2.1,0.1,3v6.9h-0.8V302.1z"/>
					<path class="st2" d="M218.1,307.5c0-3.5,1.9-5.7,4.7-5.7c1.3,0,2.3,0.6,2.9,1.3l-0.5,0.6c-0.6-0.7-1.4-1.1-2.4-1.1
						c-2.3,0-3.8,1.9-3.8,4.8c0,3,1.4,4.9,3.7,4.9c1.1,0,1.9-0.5,2.7-1.3l0.5,0.6c-0.8,1-1.9,1.6-3.3,1.6
						C220,313.2,218.1,311,218.1,307.5z"/>
					<path class="st2" d="M231.6,301.2h0.7l-5,14.4h-0.7L231.6,301.2z"/>
					<path class="st2" d="M234.1,302.1h1.2l2.2,6.3l0.9,2.4h0.1c0.3-0.8,0.5-1.6,0.8-2.4l2.2-6.3h1.2V313h-0.9v-6.9
						c0-0.9,0.1-2.1,0.1-3h-0.1l-0.9,2.4l-2.3,6.3H238l-2.3-6.3l-0.9-2.4h-0.1c0,0.9,0.1,2.1,0.1,3v6.9h-0.8V302.1z"/>
					<path class="st2" d="M248.2,302.8h-3.4v-0.8h7.8v0.8h-3.5V313h-0.9V302.8z"/>
					<path class="st2" d="M253.6,315.6c1.3-2.1,2-4.7,2-7.2s-0.7-5.1-2-7.2l0.5-0.3c1.4,2.2,2.2,4.6,2.2,7.5s-0.8,5.3-2.2,7.5
						L253.6,315.6z"/>
					<path class="st2" d="M261.9,309c0-2.6,1.6-4.2,3.5-4.2c1,0,1.6,0.4,2.4,1l-0.1-1.4v-3.3h0.9V313h-0.7l-0.1-1h0
						c-0.6,0.6-1.5,1.2-2.6,1.2C263.2,313.2,261.9,311.7,261.9,309z M267.8,311.2v-4.6c-0.8-0.7-1.5-1-2.2-1c-1.5,0-2.7,1.5-2.7,3.4
						c0,2.1,0.9,3.4,2.5,3.4C266.2,312.4,267,312,267.8,311.2z"/>
					<path class="st2" d="M271.7,305h0.7l0.1,1.5h0c0.5-1,1.3-1.7,2.3-1.7c0.3,0,0.6,0,0.8,0.2l-0.2,0.8c-0.3-0.1-0.4-0.1-0.7-0.1
						c-0.7,0-1.6,0.5-2.1,2v5.4h-0.9V305z"/>
					<path class="st2" d="M276.9,310.1V305h0.9v5c0,1.6,0.5,2.4,1.7,2.4c0.9,0,1.6-0.5,2.5-1.6V305h0.9v8h-0.7l-0.1-1.3h0
						c-0.8,0.9-1.6,1.5-2.7,1.5C277.7,313.2,276.9,312.2,276.9,310.1z"/>
					<path class="st2" d="M285.2,314.6c0-0.7,0.5-1.4,1.2-1.9v-0.1c-0.4-0.2-0.7-0.7-0.7-1.3c0-0.7,0.5-1.2,0.9-1.5v-0.1
						c-0.5-0.4-1-1.2-1-2.2c0-1.7,1.3-2.8,2.9-2.8c0.4,0,0.8,0.1,1.1,0.2h2.7v0.7h-1.8c0.5,0.4,0.8,1.1,0.8,1.9
						c0,1.6-1.2,2.8-2.8,2.8c-0.4,0-0.9-0.1-1.3-0.3c-0.3,0.3-0.6,0.6-0.6,1.1c0,0.6,0.3,1,1.5,1h1.7c1.8,0,2.7,0.6,2.7,1.8
						c0,1.4-1.5,2.7-3.8,2.7C286.5,316.8,285.2,316,285.2,314.6z M291.5,314.2c0-0.9-0.6-1.2-1.8-1.2H288c-0.2,0-0.6,0-1-0.1
						c-0.7,0.5-1,1.1-1,1.6c0,1,0.9,1.6,2.6,1.6C290.4,316.1,291.5,315.2,291.5,314.2z M290.4,307.6c0-1.3-0.9-2.1-2-2.1
						c-1.1,0-2,0.8-2,2.1c0,1.3,0.9,2.2,2,2.2C289.5,309.8,290.4,308.9,290.4,307.6z"/>
				</g>
				<g class="st1">
					<path class="st2" d="M30.8,344c0-2.7,1.7-4.2,3.7-4.2c1.1,0,1.8,0.5,2.3,1l-0.5,0.6c-0.5-0.5-1.1-0.8-1.8-0.8
						c-1.6,0-2.8,1.4-2.8,3.4c0,2,1.1,3.4,2.8,3.4c0.8,0,1.5-0.4,2.1-0.9l0.4,0.6c-0.7,0.6-1.5,1-2.5,1
						C32.4,348.2,30.8,346.7,30.8,344z"/>
					<path class="st2" d="M38.3,346c0-1.8,1.6-2.6,5.1-3c0-1.2-0.3-2.4-1.8-2.4c-1,0-2,0.5-2.5,0.9l-0.4-0.6c0.6-0.4,1.7-1.1,3-1.1
						c1.9,0,2.6,1.4,2.6,3.1v5.1h-0.7l-0.1-1h0c-0.8,0.7-1.8,1.2-2.8,1.2C39.3,348.2,38.3,347.5,38.3,346z M43.4,346.2v-2.6
						c-3.1,0.4-4.2,1.1-4.2,2.3c0,1.1,0.8,1.5,1.6,1.5C41.7,347.5,42.4,347,43.4,346.2z"/>
					<path class="st2" d="M47,340h0.7l0.1,1.2h0c0.8-0.8,1.6-1.4,2.7-1.4c1.7,0,2.4,1,2.4,3.1v5.1h-0.9v-5c0-1.7-0.5-2.4-1.8-2.4
						c-0.9,0-1.6,0.5-2.5,1.4v6H47V340z"/>
					<path class="st2" d="M55.3,344c0-2.6,1.6-4.2,3.5-4.2c1,0,1.6,0.4,2.4,1l-0.1-1.4v-3.3H62V348h-0.7l-0.1-1h0
						c-0.6,0.6-1.5,1.2-2.6,1.2C56.6,348.2,55.3,346.7,55.3,344z M61.1,346.2v-4.6c-0.8-0.7-1.5-1-2.2-1c-1.5,0-2.7,1.5-2.7,3.4
						c0,2.1,0.9,3.4,2.5,3.4C59.6,347.4,60.3,347,61.1,346.2z"/>
					<path class="st2" d="M64.7,337.4c0-0.5,0.3-0.7,0.7-0.7c0.4,0,0.7,0.3,0.7,0.7c0,0.4-0.3,0.7-0.7,0.7
						C65,338.1,64.7,337.8,64.7,337.4z M65,340h0.9v8H65V340z"/>
					<path class="st2" d="M68.2,344c0-2.6,1.6-4.2,3.5-4.2c1,0,1.6,0.4,2.4,1l-0.1-1.4v-3.3h0.9V348h-0.7l-0.1-1h0
						c-0.6,0.6-1.5,1.2-2.6,1.2C69.5,348.2,68.2,346.7,68.2,344z M74.1,346.2v-4.6c-0.8-0.7-1.5-1-2.2-1c-1.5,0-2.7,1.5-2.7,3.4
						c0,2.1,0.9,3.4,2.5,3.4C72.5,347.4,73.3,347,74.1,346.2z"/>
					<path class="st2" d="M77.4,346c0-1.8,1.6-2.6,5.1-3c0-1.2-0.3-2.4-1.8-2.4c-1,0-2,0.5-2.5,0.9l-0.4-0.6c0.6-0.4,1.7-1.1,3-1.1
						c1.9,0,2.6,1.4,2.6,3.1v5.1h-0.7l-0.1-1h0c-0.8,0.7-1.8,1.2-2.8,1.2C78.4,348.2,77.4,347.5,77.4,346z M82.5,346.2v-2.6
						c-3.1,0.4-4.2,1.1-4.2,2.3c0,1.1,0.8,1.5,1.6,1.5C80.8,347.5,81.5,347,82.5,346.2z"/>
					<path class="st2" d="M86.1,345.7v-5h-1.2v-0.7l1.3-0.1l0.1-2.3H87v2.3h2.3v0.7H87v5c0,1,0.3,1.7,1.3,1.7c0.3,0,0.7-0.1,1-0.2
						l0.2,0.7c-0.5,0.2-1,0.3-1.3,0.3C86.6,348.2,86.1,347.2,86.1,345.7z"/>
					<path class="st2" d="M90.4,344c0-2.6,1.7-4.2,3.5-4.2c1.9,0,3.1,1.4,3.1,3.7c0,0.2,0,0.4,0,0.6h-5.7c0,1.9,1.2,3.3,2.9,3.3
						c0.9,0,1.5-0.3,2.1-0.7l0.3,0.6c-0.6,0.4-1.4,0.8-2.5,0.8C92,348.2,90.4,346.6,90.4,344z M96.2,343.5c0-1.9-0.9-2.9-2.3-2.9
						c-1.3,0-2.5,1.1-2.6,2.9H96.2z"/>
					<path class="st2" d="M98.1,347.1l0.5-0.6c0.7,0.6,1.4,1,2.5,1c1.2,0,1.8-0.7,1.8-1.5c0-0.9-1-1.4-1.9-1.7
						c-1.2-0.4-2.5-0.9-2.5-2.3c0-1.2,0.9-2.2,2.6-2.2c0.9,0,1.7,0.4,2.3,0.9l-0.4,0.6c-0.5-0.4-1.1-0.7-1.9-0.7
						c-1.2,0-1.7,0.7-1.7,1.4c0,0.9,0.9,1.2,1.9,1.6c1.2,0.5,2.6,0.9,2.6,2.4c0,1.2-1,2.3-2.7,2.3C99.9,348.2,98.8,347.7,98.1,347.1
						z"/>
					<path class="st2" d="M112.4,336.8c-0.3-0.2-0.6-0.2-0.9-0.2c-0.9,0-1.2,0.6-1.2,1.8v1.6h1.8v0.7h-1.8v7.3h-0.9v-7.3h-1.1v-0.7
						l1.1-0.1v-1.7c0-1.6,0.7-2.4,2.1-2.4c0.4,0,0.8,0.1,1.2,0.3L112.4,336.8z"/>
					<path class="st2" d="M113.7,340h0.7l0.1,1.5h0c0.5-1,1.3-1.7,2.3-1.7c0.3,0,0.6,0,0.8,0.2l-0.2,0.8c-0.3-0.1-0.4-0.1-0.7-0.1
						c-0.7,0-1.6,0.5-2.1,2v5.4h-0.9V340z"/>
					<path class="st2" d="M118.2,344c0-2.7,1.7-4.2,3.6-4.2c1.9,0,3.6,1.5,3.6,4.2c0,2.7-1.7,4.2-3.6,4.2
						C119.9,348.2,118.2,346.7,118.2,344z M124.6,344c0-2-1.2-3.4-2.7-3.4c-1.6,0-2.7,1.4-2.7,3.4c0,2,1.1,3.4,2.7,3.4
						C123.4,347.4,124.6,346,124.6,344z"/>
					<path class="st2" d="M127.8,340h0.7l0.1,1.2h0c0.7-0.8,1.6-1.4,2.5-1.4c1.3,0,1.9,0.6,2.2,1.6c0.9-1,1.8-1.6,2.7-1.6
						c1.6,0,2.4,1,2.4,3.1v5.1h-0.9v-5c0-1.7-0.6-2.4-1.7-2.4c-0.7,0-1.5,0.5-2.3,1.4v6h-0.9v-5c0-1.7-0.5-2.4-1.7-2.4
						c-0.7,0-1.5,0.5-2.3,1.4v6h-0.9V340z"/>
					<path class="st2" d="M145.5,347.2L145.5,347.2l-0.1,0.8h-0.7v-11.9h0.9v3.4l0,1.5c0.8-0.7,1.7-1.2,2.7-1.2
						c2.1,0,3.2,1.6,3.2,4.1c0,2.7-1.6,4.3-3.5,4.3C147.1,348.2,146.3,347.8,145.5,347.2z M150.5,343.9c0-1.9-0.7-3.3-2.4-3.3
						c-0.8,0-1.6,0.5-2.5,1.3v4.6c0.8,0.7,1.7,1,2.3,1C149.4,347.4,150.5,346,150.5,343.9z"/>
					<path class="st2" d="M153.1,344c0-2.7,1.7-4.2,3.6-4.2c1.9,0,3.6,1.5,3.6,4.2c0,2.7-1.7,4.2-3.6,4.2
						C154.8,348.2,153.1,346.7,153.1,344z M159.4,344c0-2-1.2-3.4-2.7-3.4c-1.6,0-2.7,1.4-2.7,3.4c0,2,1.1,3.4,2.7,3.4
						C158.2,347.4,159.4,346,159.4,344z"/>
					<path class="st2" d="M162.6,345.7v-5h-1.2v-0.7l1.3-0.1l0.1-2.3h0.7v2.3h2.3v0.7h-2.3v5c0,1,0.3,1.7,1.3,1.7
						c0.3,0,0.7-0.1,1-0.2l0.2,0.7c-0.5,0.2-1,0.3-1.3,0.3C163.1,348.2,162.6,347.2,162.6,345.7z"/>
					<path class="st2" d="M166.8,346c0-1.8,1.6-2.6,5.1-3c0-1.2-0.3-2.4-1.8-2.4c-1,0-2,0.5-2.5,0.9l-0.4-0.6c0.6-0.4,1.7-1.1,3-1.1
						c1.9,0,2.6,1.4,2.6,3.1v5.1H172l-0.1-1h0c-0.8,0.7-1.8,1.2-2.8,1.2C167.8,348.2,166.8,347.5,166.8,346z M171.9,346.2v-2.6
						c-3.1,0.4-4.2,1.1-4.2,2.3c0,1.1,0.8,1.5,1.6,1.5S170.9,347,171.9,346.2z"/>
					<path class="st2" d="M175.5,340h0.7l0.1,1.2h0c0.8-0.8,1.6-1.4,2.7-1.4c1.7,0,2.4,1,2.4,3.1v5.1h-0.9v-5c0-1.7-0.5-2.4-1.8-2.4
						c-0.9,0-1.6,0.5-2.5,1.4v6h-0.9V340z"/>
					<path class="st2" d="M184.2,337.4c0-0.5,0.3-0.7,0.7-0.7c0.4,0,0.7,0.3,0.7,0.7c0,0.4-0.3,0.7-0.7,0.7
						C184.5,338.1,184.2,337.8,184.2,337.4z M184.4,340h0.9v8h-0.9V340z"/>
					<path class="st2" d="M187.6,344c0-2.7,1.7-4.2,3.7-4.2c1.1,0,1.8,0.5,2.3,1l-0.5,0.6c-0.5-0.5-1.1-0.8-1.8-0.8
						c-1.6,0-2.8,1.4-2.8,3.4c0,2,1.1,3.4,2.8,3.4c0.8,0,1.5-0.4,2.1-0.9l0.4,0.6c-0.7,0.6-1.5,1-2.6,1
						C189.2,348.2,187.6,346.7,187.6,344z"/>
					<path class="st2" d="M195.1,346c0-1.8,1.6-2.6,5.1-3c0-1.2-0.3-2.4-1.8-2.4c-1,0-2,0.5-2.5,0.9l-0.4-0.6c0.6-0.4,1.7-1.1,3-1.1
						c1.9,0,2.6,1.4,2.6,3.1v5.1h-0.7l-0.1-1h0c-0.8,0.7-1.8,1.2-2.8,1.2C196.1,348.2,195.1,347.5,195.1,346z M200.2,346.2v-2.6
						c-3.1,0.4-4.2,1.1-4.2,2.3c0,1.1,0.8,1.5,1.6,1.5C198.4,347.5,199.2,347,200.2,346.2z"/>
					<path class="st2" d="M203.8,346.8v-10.7h0.9v10.8c0,0.4,0.1,0.5,0.4,0.5c0.1,0,0.1,0,0.3,0l0.1,0.7c-0.2,0-0.3,0.1-0.6,0.1
						C204.2,348.2,203.8,347.7,203.8,346.8z"/>
					<path class="st2" d="M210.2,347.1l0.5-0.6c0.7,0.6,1.4,1,2.5,1c1.2,0,1.8-0.7,1.8-1.5c0-0.9-1-1.4-1.9-1.7
						c-1.2-0.4-2.5-0.9-2.5-2.3c0-1.2,0.9-2.2,2.6-2.2c0.9,0,1.7,0.4,2.3,0.9l-0.5,0.6c-0.5-0.4-1.1-0.7-1.9-0.7
						c-1.2,0-1.7,0.7-1.7,1.4c0,0.9,0.9,1.2,1.9,1.6c1.2,0.5,2.6,0.9,2.6,2.4c0,1.2-1,2.3-2.7,2.3
						C211.9,348.2,210.9,347.7,210.2,347.1z"/>
					<path class="st2" d="M217.3,344c0-2.7,1.7-4.2,3.6-4.2s3.6,1.5,3.6,4.2c0,2.7-1.7,4.2-3.6,4.2S217.3,346.7,217.3,344z
						 M223.6,344c0-2-1.2-3.4-2.7-3.4s-2.7,1.4-2.7,3.4c0,2,1.1,3.4,2.7,3.4S223.6,346,223.6,344z"/>
					<path class="st2" d="M226.7,345.1V340h0.9v5c0,1.6,0.5,2.4,1.7,2.4c0.9,0,1.6-0.5,2.5-1.6V340h0.9v8H232l-0.1-1.3h0
						c-0.8,0.9-1.6,1.5-2.7,1.5C227.5,348.2,226.7,347.2,226.7,345.1z"/>
					<path class="st2" d="M235.7,340h0.7l0.1,1.5h0c0.5-1,1.3-1.7,2.3-1.7c0.3,0,0.6,0,0.8,0.2l-0.2,0.8c-0.3-0.1-0.4-0.1-0.7-0.1
						c-0.7,0-1.6,0.5-2.1,2v5.4h-0.9V340z"/>
					<path class="st2" d="M240.3,344c0-2.7,1.7-4.2,3.7-4.2c1.1,0,1.8,0.5,2.3,1l-0.5,0.6c-0.5-0.5-1.1-0.8-1.8-0.8
						c-1.6,0-2.8,1.4-2.8,3.4c0,2,1.1,3.4,2.8,3.4c0.8,0,1.5-0.4,2.1-0.9l0.4,0.6c-0.7,0.6-1.5,1-2.5,1
						C241.8,348.2,240.3,346.7,240.3,344z"/>
					<path class="st2" d="M247.4,344c0-2.6,1.7-4.2,3.5-4.2c1.9,0,3.1,1.4,3.1,3.7c0,0.2,0,0.4,0,0.6h-5.7c0,1.9,1.2,3.3,2.9,3.3
						c0.9,0,1.5-0.3,2.1-0.7l0.3,0.6c-0.6,0.4-1.4,0.8-2.6,0.8C249.1,348.2,247.4,346.6,247.4,344z M253.2,343.5
						c0-1.9-0.9-2.9-2.3-2.9c-1.3,0-2.5,1.1-2.6,2.9H253.2z"/>
					<path class="st2" d="M255.2,347.1l0.5-0.6c0.7,0.6,1.4,1,2.5,1c1.2,0,1.8-0.7,1.8-1.5c0-0.9-1-1.4-1.9-1.7
						c-1.2-0.4-2.5-0.9-2.5-2.3c0-1.2,0.9-2.2,2.6-2.2c0.9,0,1.7,0.4,2.3,0.9l-0.4,0.6c-0.5-0.4-1.1-0.7-1.9-0.7
						c-1.2,0-1.7,0.7-1.7,1.4c0,0.9,0.9,1.2,1.9,1.6c1.2,0.5,2.6,0.9,2.6,2.4c0,1.2-1,2.3-2.7,2.3
						C256.9,348.2,255.9,347.7,255.2,347.1z"/>
				</g>
				<text transform="matrix(1 0 0 1 261.433 348)" class="st2 st5 st4"> </text>
				<g class="st1">
					<path class="st2" d="M30.7,413.5h3.7v0.7h-3.7V413.5z"/>
					<path class="st2" d="M39.9,407.1h3c2.2,0,3.6,0.8,3.6,2.7c0,1.1-0.6,2.1-1.7,2.4v0.1c1.4,0.2,2.3,1.1,2.3,2.6
						c0,2.1-1.6,3.2-4.1,3.2h-3.2V407.1z M42.6,411.8c2.2,0,3-0.8,3-2c0-1.5-1-2-2.9-2h-1.9v4H42.6z M42.9,417.2
						c2.1,0,3.4-0.8,3.4-2.4c0-1.5-1.2-2.2-3.4-2.2h-2.1v4.7H42.9z"/>
					<path class="st2" d="M48.8,414c0-2.6,1.7-4.2,3.5-4.2c1.9,0,3.1,1.4,3.1,3.7c0,0.2,0,0.4,0,0.6h-5.7c0,1.9,1.2,3.3,2.9,3.3
						c0.9,0,1.5-0.3,2.1-0.7l0.3,0.6c-0.6,0.4-1.4,0.8-2.5,0.8C50.5,418.2,48.8,416.6,48.8,414z M54.6,413.5c0-1.9-0.9-2.9-2.3-2.9
						c-1.3,0-2.5,1.1-2.6,2.9H54.6z"/>
					<path class="st2" d="M56.9,414c0-2.7,1.7-4.2,3.7-4.2c1.1,0,1.8,0.5,2.3,1l-0.5,0.6c-0.5-0.5-1.1-0.8-1.8-0.8
						c-1.6,0-2.8,1.4-2.8,3.4c0,2,1.1,3.4,2.8,3.4c0.8,0,1.5-0.4,2.1-0.9l0.4,0.6c-0.7,0.6-1.5,1-2.5,1
						C58.4,418.2,56.9,416.7,56.9,414z"/>
					<path class="st2" d="M64,414c0-2.7,1.7-4.2,3.6-4.2c1.9,0,3.6,1.5,3.6,4.2c0,2.7-1.7,4.2-3.6,4.2C65.7,418.2,64,416.7,64,414z
						 M70.4,414c0-2-1.2-3.4-2.7-3.4c-1.6,0-2.7,1.4-2.7,3.4c0,2,1.1,3.4,2.7,3.4C69.2,417.4,70.4,416,70.4,414z"/>
					<path class="st2" d="M73.6,410h0.7l0.1,1.2h0c0.7-0.8,1.6-1.4,2.5-1.4c1.3,0,1.9,0.6,2.2,1.6c0.9-1,1.8-1.6,2.7-1.6
						c1.6,0,2.4,1,2.4,3.1v5.1h-0.9v-5c0-1.7-0.6-2.4-1.7-2.4c-0.7,0-1.5,0.5-2.3,1.4v6h-0.9v-5c0-1.7-0.5-2.4-1.7-2.4
						c-0.7,0-1.5,0.5-2.3,1.4v6h-0.9V410z"/>
					<path class="st2" d="M86.5,414c0-2.6,1.7-4.2,3.5-4.2c1.9,0,3.1,1.4,3.1,3.7c0,0.2,0,0.4,0,0.6h-5.7c0,1.9,1.2,3.3,2.9,3.3
						c0.9,0,1.5-0.3,2.1-0.7l0.3,0.6c-0.6,0.4-1.4,0.8-2.6,0.8C88.2,418.2,86.5,416.6,86.5,414z M92.3,413.5c0-1.9-0.9-2.9-2.3-2.9
						c-1.3,0-2.5,1.1-2.6,2.9H92.3z"/>
					<path class="st2" d="M98.7,407.1h0.9v5.9h0l5.1-5.9h1.1l-3.5,4.1l4,6.9h-1l-3.5-6.2l-2.1,2.5v3.7h-0.9V407.1z"/>
					<path class="st2" d="M107.2,414c0-2.7,1.7-4.2,3.6-4.2c1.9,0,3.6,1.5,3.6,4.2c0,2.7-1.7,4.2-3.6,4.2
						C108.9,418.2,107.2,416.7,107.2,414z M113.5,414c0-2-1.2-3.4-2.7-3.4c-1.6,0-2.7,1.4-2.7,3.4c0,2,1.1,3.4,2.7,3.4
						C112.4,417.4,113.5,416,113.5,414z"/>
					<path class="st2" d="M116.8,410h0.7l0.1,1.5h0c0.5-1,1.3-1.7,2.3-1.7c0.3,0,0.6,0,0.8,0.2l-0.2,0.8c-0.3-0.1-0.4-0.1-0.7-0.1
						c-0.7,0-1.6,0.5-2.1,2v5.4h-0.9V410z"/>
					<path class="st2" d="M121.3,414c0-2.6,1.7-4.2,3.5-4.2c1.9,0,3.1,1.4,3.1,3.7c0,0.2,0,0.4,0,0.6h-5.7c0,1.9,1.2,3.3,2.9,3.3
						c0.9,0,1.5-0.3,2.1-0.7l0.3,0.6c-0.6,0.4-1.4,0.8-2.5,0.8C123,418.2,121.3,416.6,121.3,414z M127.1,413.5
						c0-1.9-0.9-2.9-2.3-2.9c-1.3,0-2.5,1.1-2.6,2.9H127.1z"/>
					<path class="st2" d="M129.2,416c0-1.8,1.6-2.6,5.1-3c0-1.2-0.3-2.4-1.8-2.4c-1,0-2,0.5-2.5,0.9l-0.4-0.6c0.6-0.4,1.7-1.1,3-1.1
						c1.9,0,2.6,1.4,2.6,3.1v5.1h-0.7l-0.1-1h0c-0.8,0.7-1.8,1.2-2.8,1.2C130.3,418.2,129.2,417.5,129.2,416z M134.3,416.2v-2.6
						c-3.1,0.4-4.2,1.1-4.2,2.3c0,1.1,0.8,1.5,1.6,1.5C132.6,417.5,133.4,417,134.3,416.2z"/>
					<path class="st2" d="M137.3,409.8c0.7-0.6,1.1-1.1,1.1-2.1c0,0-0.1,0-0.1,0c-0.3,0-0.7-0.2-0.7-0.7s0.3-0.7,0.7-0.7
						c0.5,0,0.8,0.4,0.8,1.2c0,1.2-0.6,2.1-1.5,2.7L137.3,409.8z"/>
					<path class="st2" d="M139.7,417.1l0.5-0.6c0.7,0.6,1.4,1,2.5,1c1.2,0,1.8-0.7,1.8-1.5c0-0.9-1-1.4-1.9-1.7
						c-1.2-0.4-2.5-0.9-2.5-2.3c0-1.2,0.9-2.2,2.6-2.2c0.9,0,1.7,0.4,2.3,0.9l-0.4,0.6c-0.5-0.4-1.1-0.7-1.9-0.7
						c-1.2,0-1.7,0.7-1.7,1.4c0,0.9,0.9,1.2,1.9,1.6c1.2,0.5,2.6,0.9,2.6,2.4c0,1.2-1,2.3-2.7,2.3
						C141.4,418.2,140.4,417.7,139.7,417.1z"/>
					<path class="st2" d="M150.9,415.7v-5h-1.2v-0.7l1.3-0.1l0.1-2.3h0.7v2.3h2.3v0.7h-2.3v5c0,1,0.3,1.7,1.3,1.7
						c0.3,0,0.7-0.1,1-0.2l0.2,0.7c-0.5,0.2-1,0.3-1.3,0.3C151.4,418.2,150.9,417.2,150.9,415.7z"/>
					<path class="st2" d="M155.2,414c0-2.7,1.7-4.2,3.6-4.2c1.9,0,3.6,1.5,3.6,4.2c0,2.7-1.7,4.2-3.6,4.2
						C156.9,418.2,155.2,416.7,155.2,414z M161.5,414c0-2-1.2-3.4-2.7-3.4c-1.6,0-2.7,1.4-2.7,3.4c0,2,1.1,3.4,2.7,3.4
						C160.3,417.4,161.5,416,161.5,414z"/>
					<path class="st2" d="M164.7,410h0.7l0.1,1h0c0.8-0.6,1.7-1.2,2.7-1.2c2.1,0,3.2,1.6,3.2,4.1c0,2.7-1.7,4.3-3.5,4.3
						c-0.8,0-1.5-0.3-2.4-1l0,1.5v2.9h-0.9V410z M170.5,413.9c0-1.9-0.7-3.3-2.4-3.3c-0.8,0-1.6,0.5-2.5,1.3v4.6
						c0.9,0.7,1.7,1,2.3,1C169.4,417.4,170.5,416,170.5,413.9z"/>
					<path class="st2" d="M178,417.2L178,417.2l-0.1,0.8h-0.7v-11.9h0.9v3.4l0,1.5c0.8-0.7,1.7-1.2,2.7-1.2c2.1,0,3.2,1.6,3.2,4.1
						c0,2.7-1.6,4.3-3.5,4.3C179.6,418.2,178.7,417.8,178,417.2z M183,413.9c0-1.9-0.7-3.3-2.4-3.3c-0.8,0-1.6,0.5-2.5,1.3v4.6
						c0.8,0.7,1.7,1,2.3,1C181.8,417.4,183,416,183,413.9z"/>
					<path class="st2" d="M185.5,414c0-2.7,1.7-4.2,3.6-4.2c1.9,0,3.6,1.5,3.6,4.2c0,2.7-1.7,4.2-3.6,4.2
						C187.2,418.2,185.5,416.7,185.5,414z M191.9,414c0-2-1.2-3.4-2.7-3.4c-1.6,0-2.7,1.4-2.7,3.4c0,2,1.1,3.4,2.7,3.4
						C190.7,417.4,191.9,416,191.9,414z"/>
					<path class="st2" d="M195.1,415.7v-5h-1.2v-0.7l1.3-0.1l0.1-2.3h0.7v2.3h2.3v0.7h-2.3v5c0,1,0.3,1.7,1.3,1.7
						c0.3,0,0.7-0.1,1-0.2l0.2,0.7c-0.5,0.2-1,0.3-1.3,0.3C195.6,418.2,195.1,417.2,195.1,415.7z"/>
					<path class="st2" d="M199.2,416c0-1.8,1.6-2.6,5.1-3c0-1.2-0.3-2.4-1.8-2.4c-1.1,0-2,0.5-2.5,0.9l-0.4-0.6
						c0.6-0.4,1.7-1.1,3-1.1c1.9,0,2.6,1.4,2.6,3.1v5.1h-0.7l-0.1-1h0c-0.8,0.7-1.8,1.2-2.8,1.2C200.3,418.2,199.2,417.5,199.2,416z
						 M204.3,416.2v-2.6c-3.2,0.4-4.2,1.1-4.2,2.3c0,1.1,0.8,1.5,1.6,1.5S203.4,417,204.3,416.2z"/>
					<path class="st2" d="M208,410h0.7l0.1,1.2h0c0.8-0.8,1.6-1.4,2.7-1.4c1.7,0,2.4,1,2.4,3.1v5.1h-0.9v-5c0-1.7-0.5-2.4-1.8-2.4
						c-0.9,0-1.6,0.5-2.5,1.4v6H208V410z"/>
					<path class="st2" d="M216.6,407.4c0-0.5,0.3-0.7,0.7-0.7c0.4,0,0.7,0.3,0.7,0.7c0,0.4-0.3,0.7-0.7,0.7
						C216.9,408.1,216.6,407.8,216.6,407.4z M216.9,410h0.9v8h-0.9V410z"/>
					<path class="st2" d="M220.1,414c0-2.7,1.7-4.2,3.7-4.2c1.1,0,1.8,0.5,2.3,1l-0.5,0.6c-0.5-0.5-1.1-0.8-1.8-0.8
						c-1.6,0-2.8,1.4-2.8,3.4c0,2,1.1,3.4,2.8,3.4c0.8,0,1.5-0.4,2.1-0.9l0.4,0.6c-0.7,0.6-1.5,1-2.5,1
						C221.7,418.2,220.1,416.7,220.1,414z"/>
					<path class="st2" d="M227.5,416c0-1.8,1.6-2.6,5.1-3c0-1.2-0.3-2.4-1.8-2.4c-1,0-2,0.5-2.5,0.9l-0.4-0.6c0.6-0.4,1.7-1.1,3-1.1
						c1.9,0,2.6,1.4,2.6,3.1v5.1h-0.7l-0.1-1h0c-0.8,0.7-1.8,1.2-2.8,1.2C228.6,418.2,227.5,417.5,227.5,416z M232.6,416.2v-2.6
						c-3.1,0.4-4.2,1.1-4.2,2.3c0,1.1,0.8,1.5,1.6,1.5S231.7,417,232.6,416.2z"/>
					<path class="st2" d="M236.3,416.8v-10.7h0.9v10.8c0,0.4,0.1,0.5,0.4,0.5c0.1,0,0.1,0,0.3,0l0.1,0.7c-0.2,0-0.3,0.1-0.6,0.1
						C236.6,418.2,236.3,417.7,236.3,416.8z"/>
					<path class="st2" d="M249.7,418l-2.9-4.9h-2.2v4.9h-0.9v-10.9h3.2c2.2,0,3.6,0.8,3.6,2.9c0,1.7-1.1,2.7-2.7,3l3,5H249.7z
						 M244.6,412.3h2.1c1.9,0,2.9-0.8,2.9-2.3c0-1.6-1-2.2-2.9-2.2h-2.1V412.3z"/>
					<path class="st2" d="M260.4,418.2c-0.7-0.2-1.5-0.7-2.4-1.3c-0.8,0.8-1.8,1.3-3,1.3c-1.8,0-3.2-1.2-3.2-3
						c0-1.4,1.1-2.4,2.2-3.2c-0.4-0.9-0.7-1.8-0.7-2.7c0-1.4,0.9-2.5,2.3-2.5c1.2,0,1.9,0.9,1.9,2c0,1.4-1.3,2.4-2.5,3.3
						c0.8,1.3,1.9,2.6,3,3.6c0.8-1,1.3-2.2,1.7-3.5h0.8c-0.4,1.5-1.1,2.9-1.9,4c0.8,0.6,1.5,1,2.1,1.2L260.4,418.2z M255.1,417.5
						c0.9,0,1.7-0.4,2.4-1.1c-1.2-1-2.3-2.4-3.1-3.7c-0.9,0.7-1.7,1.5-1.7,2.5C252.7,416.5,253.8,417.5,255.1,417.5z M254.7,411.5
						c1.1-0.8,2.1-1.5,2.1-2.6c0-0.7-0.3-1.4-1.2-1.4c-0.9,0-1.5,0.8-1.5,1.8C254.1,410,254.3,410.8,254.7,411.5z"/>
					<path class="st2" d="M262.5,407.1h2.6c3.4,0,5,2.1,5,5.4s-1.6,5.5-5,5.5h-2.6V407.1z M265,417.2c2.9,0,4.2-1.9,4.2-4.7
						s-1.3-4.7-4.2-4.7h-1.6v9.4H265z"/>
				</g>
				<g class="st1">
					<path class="st2" d="M30.8,449c0-2.7,1.7-4.2,3.7-4.2c1.1,0,1.8,0.5,2.3,1l-0.5,0.6c-0.5-0.5-1.1-0.8-1.8-0.8
						c-1.6,0-2.8,1.4-2.8,3.4c0,2,1.1,3.4,2.8,3.4c0.8,0,1.5-0.4,2.1-0.9l0.4,0.6c-0.7,0.6-1.5,1-2.5,1
						C32.4,453.2,30.8,451.7,30.8,449z"/>
					<path class="st2" d="M38,449c0-2.7,1.7-4.2,3.6-4.2c1.9,0,3.6,1.5,3.6,4.2c0,2.7-1.7,4.2-3.6,4.2C39.7,453.2,38,451.7,38,449z
						 M44.3,449c0-2-1.2-3.4-2.7-3.4c-1.6,0-2.7,1.4-2.7,3.4c0,2,1.1,3.4,2.7,3.4C43.2,452.4,44.3,451,44.3,449z"/>
					<path class="st2" d="M47.6,445h0.7l0.1,1.2h0c0.7-0.8,1.6-1.4,2.5-1.4c1.3,0,1.9,0.6,2.2,1.6c0.9-1,1.8-1.6,2.7-1.6
						c1.6,0,2.4,1,2.4,3.1v5.1h-0.9v-5c0-1.7-0.6-2.4-1.7-2.4c-0.7,0-1.5,0.5-2.3,1.4v6h-0.9v-5c0-1.7-0.5-2.4-1.7-2.4
						c-0.7,0-1.5,0.5-2.3,1.4v6h-0.9V445z"/>
					<path class="st2" d="M61.1,445h0.7l0.1,1h0c0.8-0.6,1.7-1.2,2.7-1.2c2.1,0,3.2,1.6,3.2,4.1c0,2.7-1.6,4.3-3.5,4.3
						c-0.8,0-1.5-0.3-2.4-1l0,1.5v2.9h-0.9V445z M66.9,448.9c0-1.9-0.7-3.3-2.4-3.3c-0.8,0-1.6,0.5-2.5,1.3v4.6c0.9,0.7,1.7,1,2.3,1
						C65.8,452.4,66.9,451,66.9,448.9z"/>
					<path class="st2" d="M69.4,451c0-1.8,1.6-2.6,5.1-3c0-1.2-0.3-2.4-1.8-2.4c-1,0-2,0.5-2.5,0.9l-0.4-0.6c0.6-0.4,1.7-1.1,3-1.1
						c1.9,0,2.6,1.4,2.6,3.1v5.1h-0.7l-0.1-1h0c-0.8,0.7-1.8,1.2-2.8,1.2C70.4,453.2,69.4,452.5,69.4,451z M74.5,451.2v-2.6
						c-3.1,0.4-4.2,1.1-4.2,2.3c0,1.1,0.8,1.5,1.6,1.5C72.8,452.5,73.6,452,74.5,451.2z"/>
					<path class="st2" d="M78.2,445h0.7l0.1,1.2h0c0.8-0.8,1.6-1.4,2.7-1.4c1.7,0,2.4,1,2.4,3.1v5.1h-0.9v-5c0-1.7-0.5-2.4-1.8-2.4
						c-0.9,0-1.6,0.5-2.5,1.4v6h-0.9V445z"/>
					<path class="st2" d="M86,456.4l0.2-0.7c0.2,0.1,0.4,0.1,0.6,0.1c1,0,1.6-0.9,2-2l0.2-0.7l-3.3-8.1h0.9l1.9,4.9
						c0.3,0.7,0.6,1.5,0.8,2.2h0.1c0.2-0.7,0.5-1.6,0.7-2.2l1.6-4.9h0.9l-3.1,8.9c-0.5,1.4-1.3,2.7-2.8,2.7
						C86.5,456.6,86.2,456.5,86,456.4z"/>
				</g>
			</g>
			
				<g id="arrow" transform="translate(167.500000, 576.500000) rotate(-270.000000) translate(-167.500000, -576.500000) translate(117.000000, 566.500000)">
				<path id="Line" class="st6" d="M0.5,10h100"/>
				<polyline id="Stroke-1" class="st7" points="90,0 101,10 90,20 				"/>
				<polyline class="st7" points="11,20 0,10 11,0 				"/>
			</g>
			<g id="box3" transform="translate(0.000000, 646.500000)">
				<path class="st8" d="M9,1h316c4.4,0,8,3.6,8,8v132c0,4.4-3.6,8-8,8H9c-4.4,0-8-3.6-8-8V9C1,4.6,4.6,1,9,1z"/>
				<g class="st1">
					<path class="st9" d="M22.2,48.3h2.9c3.4,0,5.3,1.9,5.3,5.5c0,3.6-1.9,5.6-5.2,5.6h-3V48.3z M25,57.9c2.4,0,3.6-1.4,3.6-4.1
						c0-2.8-1.3-4.1-3.6-4.1h-1v8.2H25z"/>
					<path class="st9" d="M32.3,48.5c0-0.6,0.5-1,1.1-1c0.6,0,1.1,0.4,1.1,1c0,0.6-0.5,1-1.1,1C32.8,49.5,32.3,49.1,32.3,48.5z
						 M32.6,51h1.7v8.2h-1.7V51z"/>
					<path class="st9" d="M36,58.3l0.8-1.1c0.7,0.6,1.5,0.9,2.3,0.9c1,0,1.5-0.5,1.5-1.1c0-0.8-0.9-1.1-1.8-1.4
						c-1.1-0.4-2.4-1-2.4-2.4c0-1.4,1.1-2.4,2.9-2.4c1.1,0,2,0.5,2.7,1l-0.8,1.1c-0.6-0.4-1.2-0.7-1.8-0.7c-0.9,0-1.3,0.5-1.3,1
						c0,0.7,0.9,1,1.8,1.3c1.2,0.4,2.4,0.9,2.4,2.5c0,1.4-1.1,2.5-3.1,2.5C38,59.5,36.8,59,36,58.3z"/>
					<path class="st9" d="M43.5,55.2c0-2.7,1.8-4.4,3.8-4.4c2.2,0,3.4,1.6,3.4,3.9c0,0.3,0,0.7-0.1,0.9h-5.4
						c0.1,1.6,1.1,2.5,2.5,2.5c0.7,0,1.4-0.2,2-0.6l0.6,1.1c-0.8,0.5-1.7,0.9-2.8,0.9C45.3,59.5,43.5,57.9,43.5,55.2z M49.1,54.4
						c0-1.4-0.6-2.2-1.8-2.2c-1,0-1.9,0.8-2.1,2.2H49.1z"/>
					<path class="st9" d="M51.9,57.1c0-1.8,1.5-2.7,4.9-3.1c0-1-0.4-1.8-1.6-1.8c-0.9,0-1.7,0.4-2.4,0.8l-0.6-1.2
						c0.9-0.5,2-1.1,3.3-1.1c2.1,0,3,1.3,3,3.5v5h-1.4L57,58.3h0c-0.8,0.6-1.6,1.1-2.6,1.1C52.9,59.5,51.9,58.6,51.9,57.1z
						 M56.8,57.2v-2c-2.4,0.3-3.3,0.9-3.3,1.8c0,0.8,0.6,1.1,1.3,1.1C55.5,58.1,56.1,57.8,56.8,57.2z"/>
					<path class="st9" d="M60.1,58.3l0.8-1.1c0.7,0.6,1.5,0.9,2.3,0.9c1,0,1.5-0.5,1.5-1.1c0-0.8-0.9-1.1-1.8-1.4
						c-1.1-0.4-2.4-1-2.4-2.4c0-1.4,1.1-2.4,2.9-2.4c1.1,0,2,0.5,2.7,1l-0.8,1.1c-0.6-0.4-1.2-0.7-1.8-0.7c-0.9,0-1.3,0.5-1.3,1
						c0,0.7,0.9,1,1.8,1.3c1.2,0.4,2.4,0.9,2.4,2.5c0,1.4-1.1,2.5-3.1,2.5C62.1,59.5,60.9,59,60.1,58.3z"/>
					<path class="st9" d="M67.6,55.2c0-2.7,1.8-4.4,3.8-4.4c2.2,0,3.4,1.6,3.4,3.9c0,0.3,0,0.7-0.1,0.9h-5.4
						c0.1,1.6,1.1,2.5,2.5,2.5c0.7,0,1.4-0.2,2-0.6l0.6,1.1c-0.8,0.5-1.7,0.9-2.8,0.9C69.4,59.5,67.6,57.9,67.6,55.2z M73.2,54.4
						c0-1.4-0.6-2.2-1.8-2.2c-1,0-1.9,0.8-2.1,2.2H73.2z"/>
					<path class="st9" d="M76.2,54.4h4v1.3h-4V54.4z"/>
					<path class="st9" d="M82.2,51h1.4l0.1,1.2h0c0.7-0.8,1.5-1.4,2.5-1.4c1.2,0,1.9,0.6,2.3,1.5c0.8-0.9,1.6-1.5,2.7-1.5
						c1.7,0,2.5,1.2,2.5,3.3v5.2h-1.7v-5c0-1.4-0.5-2-1.4-2c-0.6,0-1.2,0.4-1.9,1.1v5.8h-1.7v-5c0-1.4-0.4-2-1.4-2
						c-0.6,0-1.2,0.4-1.9,1.1v5.8h-1.7V51z"/>
					<path class="st9" d="M95.7,55.2c0-2.8,1.8-4.4,3.9-4.4c2,0,3.9,1.6,3.9,4.4c0,2.7-1.8,4.3-3.9,4.3
						C97.5,59.5,95.7,57.9,95.7,55.2z M101.7,55.2c0-1.8-0.8-2.9-2.1-2.9c-1.3,0-2.1,1.2-2.1,2.9c0,1.7,0.8,2.9,2.1,2.9
						C100.9,58.1,101.7,56.9,101.7,55.2z"/>
					<path class="st9" d="M104.9,55.2c0-2.7,1.7-4.4,3.5-4.4c0.9,0,1.5,0.4,2.2,0.9l-0.1-1.4v-3.1h1.7v12h-1.4l-0.1-0.9h0
						c-0.6,0.6-1.5,1.1-2.4,1.1C106.3,59.5,104.9,57.9,104.9,55.2z M110.6,57.1v-4c-0.6-0.6-1.2-0.8-1.8-0.8c-1.2,0-2.1,1.1-2.1,2.9
						c0,1.9,0.7,2.9,2,2.9C109.4,58.1,110,57.7,110.6,57.1z"/>
					<path class="st9" d="M114.7,48.5c0-0.6,0.5-1,1.1-1c0.6,0,1.1,0.4,1.1,1c0,0.6-0.5,1-1.1,1C115.2,49.5,114.7,49.1,114.7,48.5z
						 M114.9,51h1.7v8.2h-1.7V51z"/>
					<path class="st9" d="M123.3,48.7c-0.3-0.1-0.6-0.2-0.9-0.2c-0.7,0-1.1,0.5-1.1,1.5v1h1.7v1.4h-1.7v6.9h-1.7v-6.9h-1.1v-1.3
						l1.1-0.1v-1c0-1.7,0.8-2.9,2.6-2.9c0.6,0,1.1,0.1,1.5,0.3L123.3,48.7z"/>
					<path class="st9" d="M128.1,59.8c-0.6,1.8-1.5,3-3.3,3c-0.4,0-0.7-0.1-1-0.2l0.3-1.4c0.1,0,0.4,0.1,0.6,0.1
						c0.9,0,1.4-0.7,1.7-1.5l0.2-0.6l-3.3-8.2h1.8l1.5,4.2c0.2,0.7,0.5,1.6,0.8,2.3h0.1l0.6-2.3l1.3-4.2h1.7L128.1,59.8z"/>
					<path class="st9" d="M132.3,48.5c0-0.6,0.5-1,1.1-1c0.6,0,1.1,0.4,1.1,1c0,0.6-0.5,1-1.1,1C132.8,49.5,132.3,49.1,132.3,48.5z
						 M132.6,51h1.7v8.2h-1.7V51z"/>
					<path class="st9" d="M136.9,51h1.4l0.1,1.1h0c0.8-0.7,1.6-1.4,2.7-1.4c1.8,0,2.5,1.2,2.5,3.3v5.2H142v-5c0-1.4-0.4-2-1.4-2
						c-0.8,0-1.3,0.4-2,1.1v5.8h-1.7V51z"/>
					<path class="st9" d="M145.7,60.8c0-0.7,0.4-1.3,1.2-1.8v-0.1c-0.4-0.3-0.8-0.7-0.8-1.4c0-0.6,0.5-1.2,0.9-1.5V56
						c-0.6-0.4-1.1-1.2-1.1-2.2c0-1.9,1.5-3,3.2-3c0.5,0,0.9,0.1,1.2,0.2h2.9v1.3h-1.6c0.3,0.3,0.5,0.9,0.5,1.5
						c0,1.8-1.4,2.8-3.1,2.8c-0.4,0-0.8-0.1-1.2-0.3c-0.3,0.2-0.4,0.5-0.4,0.9c0,0.5,0.3,0.8,1.4,0.8h1.5c2,0,3,0.6,3,2
						c0,1.6-1.7,2.9-4.3,2.9C147.1,63,145.7,62.3,145.7,60.8z M151.7,60.4c0-0.7-0.5-0.9-1.5-0.9h-1.2c-0.4,0-0.8,0-1.1-0.1
						c-0.5,0.4-0.7,0.8-0.7,1.2c0,0.8,0.8,1.3,2.2,1.3C150.8,61.9,151.7,61.2,151.7,60.4z M150.7,53.8c0-1.1-0.7-1.8-1.6-1.8
						c-0.9,0-1.6,0.6-1.6,1.8c0,1.1,0.7,1.8,1.6,1.8C150,55.6,150.7,54.9,150.7,53.8z"/>
					<path class="st9" d="M158.6,56.6v-4.2h-1.2v-1.3l1.3-0.1l0.2-2.3h1.5V51h2.1v1.4h-2.1v4.2c0,1,0.3,1.5,1.2,1.5
						c0.3,0,0.6-0.1,0.9-0.2l0.3,1.3c-0.5,0.2-1,0.3-1.6,0.3C159.2,59.5,158.6,58.3,158.6,56.6z"/>
					<path class="st9" d="M164.2,47.3h1.7v3.2l-0.1,1.6c0.7-0.7,1.5-1.3,2.7-1.3c1.8,0,2.5,1.2,2.5,3.3v5.2h-1.7v-5
						c0-1.4-0.4-2-1.4-2c-0.8,0-1.3,0.4-2,1.1v5.8h-1.7V47.3z"/>
					<path class="st9" d="M173,55.2c0-2.7,1.8-4.4,3.8-4.4c2.2,0,3.4,1.6,3.4,3.9c0,0.3,0,0.7-0.1,0.9h-5.4c0.1,1.6,1.1,2.5,2.5,2.5
						c0.7,0,1.4-0.2,2-0.6l0.6,1.1c-0.8,0.5-1.7,0.9-2.8,0.9C174.8,59.5,173,57.9,173,55.2z M178.6,54.4c0-1.4-0.6-2.2-1.8-2.2
						c-1,0-2,0.8-2.1,2.2H178.6z"/>
					<path class="st9" d="M182,51h1.4l0.1,1.5h0c0.6-1.1,1.5-1.7,2.3-1.7c0.4,0,0.7,0.1,0.9,0.2l-0.3,1.5c-0.3-0.1-0.5-0.1-0.8-0.1
						c-0.7,0-1.5,0.5-2,1.8v5.1H182V51z"/>
					<path class="st9" d="M187.3,57.1c0-1.8,1.5-2.7,4.9-3.1c0-1-0.4-1.8-1.6-1.8c-0.9,0-1.7,0.4-2.4,0.8l-0.6-1.2
						c0.9-0.5,2-1.1,3.3-1.1c2.1,0,3,1.3,3,3.5v5h-1.4l-0.1-0.9h0c-0.8,0.6-1.6,1.1-2.6,1.1C188.3,59.5,187.3,58.6,187.3,57.1z
						 M192.2,57.2v-2c-2.4,0.3-3.3,0.9-3.3,1.8c0,0.8,0.6,1.1,1.3,1.1C190.9,58.1,191.5,57.8,192.2,57.2z"/>
					<path class="st9" d="M196.4,51h1.4l0.1,0.9h0c0.7-0.6,1.6-1.1,2.5-1.1c2.1,0,3.3,1.7,3.3,4.2c0,2.8-1.7,4.5-3.6,4.5
						c-0.7,0-1.5-0.3-2.2-0.9l0,1.4v2.7h-1.7V51z M202,55.1c0-1.7-0.6-2.8-1.9-2.8c-0.6,0-1.3,0.3-2,1v4c0.6,0.6,1.3,0.8,1.8,0.8
						C201.1,58.1,202,57,202,55.1z"/>
					<path class="st9" d="M209.4,59.8c-0.6,1.8-1.5,3-3.3,3c-0.4,0-0.8-0.1-1-0.2l0.3-1.4c0.1,0,0.4,0.1,0.6,0.1
						c0.9,0,1.4-0.7,1.7-1.5l0.2-0.6l-3.3-8.2h1.8l1.5,4.2c0.2,0.7,0.5,1.6,0.8,2.3h0.1l0.6-2.3l1.3-4.2h1.7L209.4,59.8z"/>
					<path class="st9" d="M216.7,55.2c0-2.7,1.7-4.4,3.5-4.4c0.9,0,1.5,0.4,2.2,0.9l-0.1-1.4v-3.1h1.7v12h-1.4l-0.1-0.9h0
						c-0.6,0.6-1.5,1.1-2.4,1.1C218,59.5,216.7,57.9,216.7,55.2z M222.4,57.1v-4c-0.6-0.6-1.2-0.8-1.8-0.8c-1.2,0-2.1,1.1-2.1,2.9
						c0,1.9,0.7,2.9,2,2.9C221.2,58.1,221.8,57.7,222.4,57.1z"/>
					<path class="st9" d="M226.5,48.5c0-0.6,0.5-1,1.1-1c0.6,0,1.1,0.4,1.1,1c0,0.6-0.5,1-1.1,1C226.9,49.5,226.5,49.1,226.5,48.5z
						 M226.7,51h1.7v8.2h-1.7V51z"/>
					<path class="st9" d="M240,48.7c-0.3-0.1-0.6-0.2-0.9-0.2c-0.7,0-1.1,0.5-1.1,1.5v1h1.7v1.4H238v6.9h-1.7v-6.9H233v6.9h-1.7
						v-6.9h-1.1v-1.3l1.1-0.1v-0.9c0-1.7,0.9-2.9,2.7-2.9c0.6,0,1.2,0.1,1.6,0.3l-0.3,1.3c-0.3-0.2-0.6-0.2-1.1-0.2
						c-0.7,0-1.2,0.5-1.2,1.5V51h3.2v-1c0-1.7,0.8-2.9,2.6-2.9c0.6,0,1.1,0.1,1.5,0.3L240,48.7z"/>
					<path class="st9" d="M240.4,55.2c0-2.7,1.8-4.4,3.8-4.4c2.2,0,3.4,1.6,3.4,3.9c0,0.3,0,0.7-0.1,0.9h-5.4
						c0.1,1.6,1.1,2.5,2.5,2.5c0.7,0,1.4-0.2,2-0.6l0.6,1.1c-0.8,0.5-1.7,0.9-2.8,0.9C242.2,59.5,240.4,57.9,240.4,55.2z
						 M246.1,54.4c0-1.4-0.6-2.2-1.8-2.2c-1,0-2,0.8-2.1,2.2H246.1z"/>
					<path class="st9" d="M249.5,51h1.4l0.1,1.5h0c0.6-1.1,1.5-1.7,2.3-1.7c0.4,0,0.7,0.1,0.9,0.2l-0.3,1.5
						c-0.3-0.1-0.5-0.1-0.8-0.1c-0.7,0-1.5,0.5-2,1.8v5.1h-1.7V51z"/>
					<path class="st9" d="M254.9,55.2c0-2.7,1.8-4.4,3.8-4.4c2.2,0,3.4,1.6,3.4,3.9c0,0.3,0,0.7-0.1,0.9h-5.4
						c0.1,1.6,1.1,2.5,2.5,2.5c0.7,0,1.4-0.2,2-0.6l0.6,1.1c-0.8,0.5-1.7,0.9-2.8,0.9C256.6,59.5,254.9,57.9,254.9,55.2z
						 M260.5,54.4c0-1.4-0.6-2.2-1.8-2.2c-1,0-1.9,0.8-2.1,2.2H260.5z"/>
					<path class="st9" d="M263.9,51h1.4l0.1,1.1h0c0.8-0.7,1.6-1.4,2.7-1.4c1.8,0,2.5,1.2,2.5,3.3v5.2h-1.7v-5c0-1.4-0.4-2-1.4-2
						c-0.8,0-1.3,0.4-2,1.1v5.8h-1.7V51z"/>
					<path class="st9" d="M273.6,56.6v-4.2h-1.2v-1.3l1.3-0.1l0.2-2.3h1.5V51h2.1v1.4h-2.1v4.2c0,1,0.3,1.5,1.2,1.5
						c0.3,0,0.6-0.1,0.9-0.2l0.3,1.3c-0.5,0.2-1,0.3-1.6,0.3C274.2,59.5,273.6,58.3,273.6,56.6z"/>
					<path class="st9" d="M279,48.5c0-0.6,0.5-1,1.1-1s1.1,0.4,1.1,1c0,0.6-0.5,1-1.1,1S279,49.1,279,48.5z M279.2,51h1.7v8.2h-1.7
						V51z"/>
					<path class="st9" d="M283,57.1c0-1.8,1.5-2.7,4.9-3.1c0-1-0.4-1.8-1.6-1.8c-0.9,0-1.7,0.4-2.4,0.8l-0.6-1.2
						c0.9-0.5,2-1.1,3.3-1.1c2.1,0,3,1.3,3,3.5v5h-1.4l-0.1-0.9h0c-0.8,0.6-1.6,1.1-2.6,1.1C284.1,59.5,283,58.6,283,57.1z
						 M288,57.2v-2c-2.4,0.3-3.3,0.9-3.3,1.8c0,0.8,0.6,1.1,1.3,1.1C286.7,58.1,287.3,57.8,288,57.2z"/>
					<path class="st9" d="M292.2,56.6v-4.2H291v-1.3l1.3-0.1l0.2-2.3h1.5V51h2.1v1.4h-2.1v4.2c0,1,0.3,1.5,1.2,1.5
						c0.3,0,0.6-0.1,0.9-0.2l0.3,1.3c-0.5,0.2-1,0.3-1.6,0.3C292.8,59.5,292.2,58.3,292.2,56.6z"/>
					<path class="st9" d="M297,55.2c0-2.7,1.8-4.4,3.8-4.4c2.2,0,3.4,1.6,3.4,3.9c0,0.3,0,0.7-0.1,0.9h-5.4c0.1,1.6,1.1,2.5,2.5,2.5
						c0.7,0,1.4-0.2,2-0.6l0.6,1.1c-0.8,0.5-1.7,0.9-2.8,0.9C298.8,59.5,297,57.9,297,55.2z M302.6,54.4c0-1.4-0.6-2.2-1.8-2.2
						c-1,0-2,0.8-2.1,2.2H302.6z"/>
					<path class="st9" d="M305.5,55.2c0-2.7,1.7-4.4,3.5-4.4c0.9,0,1.5,0.4,2.2,0.9l-0.1-1.4v-3.1h1.7v12h-1.4l-0.1-0.9h0
						c-0.6,0.6-1.5,1.1-2.4,1.1C306.8,59.5,305.5,57.9,305.5,55.2z M311.2,57.1v-4c-0.6-0.6-1.2-0.8-1.8-0.8c-1.2,0-2.1,1.1-2.1,2.9
						c0,1.9,0.7,2.9,2,2.9C310,58.1,310.6,57.7,311.2,57.1z"/>
				</g>
				<g class="st1">
					<path class="st9" d="M40,88.7c-0.3-0.1-0.6-0.2-0.9-0.2C38.3,88.5,38,89,38,90v1h1.7v1.4H38v6.9h-1.7v-6.9h-1.1v-1.3l1.1-0.1
						v-1c0-1.7,0.8-2.9,2.6-2.9c0.6,0,1.1,0.1,1.5,0.3L40,88.7z"/>
					<path class="st9" d="M41.1,91h1.4l0.1,1.5h0c0.6-1.1,1.5-1.7,2.3-1.7c0.4,0,0.7,0.1,0.9,0.2l-0.3,1.5c-0.3-0.1-0.5-0.1-0.8-0.1
						c-0.7,0-1.5,0.5-2,1.8v5.1h-1.7V91z"/>
					<path class="st9" d="M46.5,95.2c0-2.8,1.8-4.4,3.9-4.4c2,0,3.9,1.6,3.9,4.4c0,2.7-1.8,4.3-3.9,4.3
						C48.4,99.5,46.5,97.9,46.5,95.2z M52.5,95.2c0-1.8-0.8-2.9-2.1-2.9c-1.3,0-2.1,1.2-2.1,2.9c0,1.7,0.8,2.9,2.1,2.9
						C51.7,98.1,52.5,96.9,52.5,95.2z"/>
					<path class="st9" d="M56.3,91h1.4l0.1,1.2h0c0.7-0.8,1.5-1.4,2.5-1.4c1.2,0,1.9,0.6,2.3,1.5c0.8-0.9,1.6-1.5,2.7-1.5
						c1.7,0,2.5,1.2,2.5,3.3v5.2h-1.7v-5c0-1.4-0.5-2-1.4-2c-0.6,0-1.2,0.4-1.9,1.1v5.8h-1.7v-5c0-1.4-0.4-2-1.4-2
						c-0.6,0-1.2,0.4-1.9,1.1v5.8h-1.7V91z"/>
					<path class="st9" d="M73,98.3l0.8-1.1c0.7,0.6,1.5,0.9,2.3,0.9c1,0,1.5-0.5,1.5-1.1c0-0.8-0.9-1.1-1.8-1.4
						c-1.1-0.4-2.4-1-2.4-2.4c0-1.4,1.1-2.4,2.9-2.4c1.1,0,2,0.5,2.7,1l-0.8,1.1c-0.6-0.4-1.2-0.7-1.8-0.7c-0.9,0-1.3,0.5-1.3,1
						c0,0.7,0.9,1,1.8,1.3c1.2,0.4,2.4,0.9,2.4,2.5c0,1.4-1.1,2.5-3.1,2.5C74.9,99.5,73.7,99,73,98.3z"/>
					<path class="st9" d="M80.8,88.5c0-0.6,0.5-1,1.1-1c0.6,0,1.1,0.4,1.1,1c0,0.6-0.5,1-1.1,1C81.2,89.5,80.8,89.1,80.8,88.5z
						 M81,91h1.7v8.2H81V91z"/>
					<path class="st9" d="M85.3,91h1.4l0.1,1.1h0c0.8-0.7,1.6-1.4,2.7-1.4c1.8,0,2.5,1.2,2.5,3.3v5.2h-1.7v-5c0-1.4-0.4-2-1.4-2
						c-0.8,0-1.3,0.4-2,1.1v5.8h-1.7V91z"/>
					<path class="st9" d="M94.1,100.8c0-0.7,0.4-1.3,1.2-1.8v-0.1c-0.4-0.3-0.8-0.7-0.8-1.4c0-0.6,0.5-1.2,0.9-1.5V96
						c-0.6-0.4-1.1-1.2-1.1-2.2c0-1.9,1.5-3,3.2-3c0.5,0,0.9,0.1,1.2,0.2h2.9v1.3h-1.6c0.3,0.3,0.5,0.9,0.5,1.5
						c0,1.8-1.4,2.8-3.1,2.8c-0.4,0-0.8-0.1-1.2-0.3c-0.3,0.2-0.4,0.5-0.4,0.9c0,0.5,0.3,0.8,1.4,0.8h1.5c2,0,3,0.6,3,2
						c0,1.6-1.7,2.9-4.3,2.9C95.5,103,94.1,102.3,94.1,100.8z M100.2,100.4c0-0.7-0.5-0.9-1.5-0.9h-1.2c-0.4,0-0.8,0-1.1-0.1
						c-0.5,0.4-0.7,0.8-0.7,1.2c0,0.8,0.8,1.3,2.2,1.3C99.2,101.9,100.2,101.2,100.2,100.4z M99.1,93.8c0-1.1-0.7-1.8-1.6-1.8
						c-0.9,0-1.6,0.6-1.6,1.8c0,1.1,0.7,1.8,1.6,1.8C98.4,95.6,99.1,94.9,99.1,93.8z"/>
					<path class="st9" d="M103.4,97.4v-10h1.7v10.1c0,0.5,0.2,0.6,0.4,0.6c0.1,0,0.1,0,0.3,0l0.2,1.3c-0.2,0.1-0.5,0.1-0.9,0.1
						C103.8,99.5,103.4,98.7,103.4,97.4z"/>
					<path class="st9" d="M107.2,95.2c0-2.7,1.8-4.4,3.8-4.4c2.2,0,3.4,1.6,3.4,3.9c0,0.3,0,0.7-0.1,0.9h-5.4
						c0.1,1.6,1.1,2.5,2.5,2.5c0.7,0,1.4-0.2,2-0.6l0.6,1.1c-0.8,0.5-1.7,0.9-2.8,0.9C109,99.5,107.2,97.9,107.2,95.2z M112.9,94.4
						c0-1.4-0.6-2.2-1.8-2.2c-1,0-1.9,0.8-2.1,2.2H112.9z"/>
					<path class="st9" d="M115.9,94.4h4v1.3h-4V94.4z"/>
					<path class="st9" d="M121.7,96.6v-4.2h-1.2v-1.3l1.3-0.1l0.2-2.3h1.5V91h2.1v1.4h-2.1v4.2c0,1,0.3,1.5,1.2,1.5
						c0.3,0,0.6-0.1,0.9-0.2l0.3,1.3c-0.5,0.2-1,0.3-1.6,0.3C122.3,99.5,121.7,98.3,121.7,96.6z"/>
					<path class="st9" d="M126.5,97.1c0-1.8,1.5-2.7,4.9-3.1c0-1-0.4-1.8-1.6-1.8c-0.9,0-1.7,0.4-2.4,0.8l-0.6-1.2
						c0.9-0.5,2-1.1,3.3-1.1c2.1,0,3,1.3,3,3.5v5h-1.4l-0.1-0.9h0c-0.8,0.6-1.6,1.1-2.6,1.1C127.5,99.5,126.5,98.6,126.5,97.1z
						 M131.4,97.2v-2c-2.4,0.3-3.3,0.9-3.3,1.8c0,0.8,0.6,1.1,1.3,1.1C130.2,98.1,130.8,97.8,131.4,97.2z"/>
					<path class="st9" d="M135.6,91h1.4l0.1,1.5h0c0.6-1.1,1.5-1.7,2.3-1.7c0.4,0,0.7,0.1,0.9,0.2l-0.3,1.5
						c-0.3-0.1-0.5-0.1-0.8-0.1c-0.7,0-1.5,0.5-2,1.8v5.1h-1.7V91z"/>
					<path class="st9" d="M141,100.8c0-0.7,0.4-1.3,1.2-1.8v-0.1c-0.4-0.3-0.8-0.7-0.8-1.4c0-0.6,0.5-1.2,0.9-1.5V96
						c-0.6-0.4-1.1-1.2-1.1-2.2c0-1.9,1.5-3,3.2-3c0.5,0,0.9,0.1,1.2,0.2h2.9v1.3H147c0.3,0.3,0.5,0.9,0.5,1.5
						c0,1.8-1.4,2.8-3.1,2.8c-0.4,0-0.8-0.1-1.2-0.3c-0.3,0.2-0.4,0.5-0.4,0.9c0,0.5,0.3,0.8,1.4,0.8h1.5c2,0,3,0.6,3,2
						c0,1.6-1.7,2.9-4.3,2.9C142.4,103,141,102.3,141,100.8z M147.1,100.4c0-0.7-0.5-0.9-1.5-0.9h-1.2c-0.4,0-0.8,0-1.1-0.1
						c-0.5,0.4-0.7,0.8-0.7,1.2c0,0.8,0.8,1.3,2.2,1.3C146.1,101.9,147.1,101.2,147.1,100.4z M146,93.8c0-1.1-0.7-1.8-1.6-1.8
						c-0.9,0-1.6,0.6-1.6,1.8c0,1.1,0.7,1.8,1.6,1.8C145.3,95.6,146,94.9,146,93.8z"/>
					<path class="st9" d="M149.4,95.2c0-2.7,1.8-4.4,3.8-4.4c2.2,0,3.4,1.6,3.4,3.9c0,0.3,0,0.7-0.1,0.9h-5.4
						c0.1,1.6,1.1,2.5,2.5,2.5c0.7,0,1.4-0.2,2-0.6l0.6,1.1c-0.8,0.5-1.7,0.9-2.8,0.9C151.2,99.5,149.4,97.9,149.4,95.2z M155,94.4
						c0-1.4-0.6-2.2-1.8-2.2c-1,0-1.9,0.8-2.1,2.2H155z"/>
					<path class="st9" d="M158.6,96.6v-4.2h-1.2v-1.3l1.3-0.1l0.2-2.3h1.5V91h2.1v1.4h-2.1v4.2c0,1,0.3,1.5,1.2,1.5
						c0.3,0,0.6-0.1,0.9-0.2l0.3,1.3c-0.5,0.2-1,0.3-1.6,0.3C159.2,99.5,158.6,98.3,158.6,96.6z"/>
					<path class="st9" d="M163.4,95.2c0-2.7,1.8-4.4,3.8-4.4c2.2,0,3.4,1.6,3.4,3.9c0,0.3,0,0.7-0.1,0.9h-5.4
						c0.1,1.6,1.1,2.5,2.5,2.5c0.7,0,1.4-0.2,2-0.6l0.6,1.1c-0.8,0.5-1.7,0.9-2.8,0.9C165.2,99.5,163.4,97.9,163.4,95.2z M169,94.4
						c0-1.4-0.6-2.2-1.8-2.2c-1,0-1.9,0.8-2.1,2.2H169z"/>
					<path class="st9" d="M171.9,95.2c0-2.7,1.7-4.4,3.5-4.4c0.9,0,1.5,0.4,2.2,0.9l-0.1-1.4v-3.1h1.7v12h-1.4l-0.1-0.9h0
						c-0.6,0.6-1.5,1.1-2.4,1.1C173.2,99.5,171.9,97.9,171.9,95.2z M177.6,97.1v-4c-0.6-0.6-1.2-0.8-1.8-0.8c-1.2,0-2.1,1.1-2.1,2.9
						c0,1.9,0.7,2.9,2,2.9C176.4,98.1,177,97.7,177.6,97.1z"/>
					<path class="st9" d="M185.4,88.3h1.8l3.7,6.5l1.2,2.3h0.1c-0.1-1.1-0.2-2.5-0.2-3.7v-5.1h1.6v11h-1.8l-3.7-6.5l-1.2-2.3h-0.1
						c0.1,1.1,0.2,2.4,0.2,3.6v5.2h-1.7V88.3z"/>
					<path class="st9" d="M195.8,93.8c0-3.6,2.2-5.8,5-5.8c1.4,0,2.5,0.7,3.1,1.4l-0.9,1.1c-0.6-0.6-1.3-1-2.2-1
						c-1.9,0-3.2,1.6-3.2,4.2c0,2.6,1.2,4.2,3.2,4.2c1,0,1.8-0.4,2.4-1.2l0.9,1.1c-0.9,1-2,1.6-3.4,1.6
						C198,99.5,195.8,97.4,195.8,93.8z"/>
					<path class="st9" d="M206.1,88.3h6.5v1.5h-4.8v3.1h4v1.5h-4v3.6h4.9v1.5h-6.7V88.3z"/>
					<path class="st9" d="M217.8,95.2c0-2.8,1.8-4.4,3.9-4.4s3.9,1.6,3.9,4.4c0,2.7-1.8,4.3-3.9,4.3S217.8,97.9,217.8,95.2z
						 M223.8,95.2c0-1.8-0.8-2.9-2.1-2.9c-1.3,0-2.1,1.2-2.1,2.9c0,1.7,0.8,2.9,2.1,2.9C223,98.1,223.8,96.9,223.8,95.2z"/>
					<path class="st9" d="M227.6,91h1.4l0.1,1.5h0c0.6-1.1,1.5-1.7,2.3-1.7c0.4,0,0.7,0.1,0.9,0.2l-0.3,1.5
						c-0.3-0.1-0.5-0.1-0.8-0.1c-0.7,0-1.5,0.5-2,1.8v5.1h-1.7V91z"/>
					<path class="st9" d="M238.6,98.4L238.6,98.4l-0.2,0.9h-1.3v-12h1.7v3.2l0,1.4c0.7-0.6,1.6-1.1,2.5-1.1c2.1,0,3.3,1.7,3.3,4.2
						c0,2.8-1.7,4.5-3.6,4.5C240.2,99.5,239.3,99.1,238.6,98.4z M242.7,95.1c0-1.7-0.6-2.8-1.9-2.8c-0.6,0-1.3,0.3-2,1v4
						c0.6,0.6,1.3,0.8,1.8,0.8C241.8,98.1,242.7,97,242.7,95.1z"/>
					<path class="st9" d="M246.3,88.5c0-0.6,0.5-1,1.1-1s1.1,0.4,1.1,1c0,0.6-0.5,1-1.1,1S246.3,89.1,246.3,88.5z M246.5,91h1.7v8.2
						h-1.7V91z"/>
					<path class="st9" d="M250.2,95.2c0-2.8,1.8-4.4,3.9-4.4c2,0,3.9,1.6,3.9,4.4c0,2.7-1.8,4.3-3.9,4.3
						C252.1,99.5,250.2,97.9,250.2,95.2z M256.2,95.2c0-1.8-0.8-2.9-2.1-2.9c-1.3,0-2.1,1.2-2.1,2.9c0,1.7,0.8,2.9,2.1,2.9
						C255.4,98.1,256.2,96.9,256.2,95.2z"/>
					<path class="st9" d="M260,97.4v-10h1.7v10.1c0,0.5,0.2,0.6,0.4,0.6c0.1,0,0.1,0,0.3,0l0.2,1.3c-0.2,0.1-0.5,0.1-0.9,0.1
						C260.5,99.5,260,98.7,260,97.4z"/>
					<path class="st9" d="M263.9,95.2c0-2.8,1.8-4.4,3.9-4.4s3.9,1.6,3.9,4.4c0,2.7-1.8,4.3-3.9,4.3S263.9,97.9,263.9,95.2z
						 M269.9,95.2c0-1.8-0.8-2.9-2.1-2.9c-1.3,0-2.1,1.2-2.1,2.9c0,1.7,0.8,2.9,2.1,2.9C269.1,98.1,269.9,96.9,269.9,95.2z"/>
					<path class="st9" d="M273.1,100.8c0-0.7,0.4-1.3,1.2-1.8v-0.1c-0.4-0.3-0.8-0.7-0.8-1.4c0-0.6,0.5-1.2,0.9-1.5V96
						c-0.6-0.4-1.1-1.2-1.1-2.2c0-1.9,1.5-3,3.2-3c0.5,0,0.9,0.1,1.2,0.2h2.9v1.3h-1.6c0.3,0.3,0.5,0.9,0.5,1.5
						c0,1.8-1.4,2.8-3.1,2.8c-0.4,0-0.8-0.1-1.2-0.3c-0.3,0.2-0.4,0.5-0.4,0.9c0,0.5,0.3,0.8,1.4,0.8h1.5c2,0,3,0.6,3,2
						c0,1.6-1.7,2.9-4.3,2.9C274.6,103,273.1,102.3,273.1,100.8z M279.2,100.4c0-0.7-0.5-0.9-1.5-0.9h-1.2c-0.4,0-0.8,0-1.1-0.1
						c-0.5,0.4-0.7,0.8-0.7,1.2c0,0.8,0.8,1.3,2.2,1.3C278.2,101.9,279.2,101.2,279.2,100.4z M278.2,93.8c0-1.1-0.7-1.8-1.6-1.8
						s-1.6,0.6-1.6,1.8c0,1.1,0.7,1.8,1.6,1.8C277.4,95.6,278.2,94.9,278.2,93.8z"/>
					<path class="st9" d="M282.1,88.5c0-0.6,0.5-1,1.1-1s1.1,0.4,1.1,1c0,0.6-0.5,1-1.1,1S282.1,89.1,282.1,88.5z M282.4,91h1.7v8.2
						h-1.7V91z"/>
					<path class="st9" d="M286.1,95.2c0-2.8,1.9-4.4,4.1-4.4c1,0,1.8,0.4,2.4,0.9l-0.9,1.1c-0.5-0.4-0.9-0.6-1.5-0.6
						c-1.4,0-2.4,1.2-2.4,2.9c0,1.7,0.9,2.9,2.3,2.9c0.7,0,1.3-0.3,1.8-0.8l0.7,1.1c-0.7,0.7-1.7,1-2.7,1
						C287.8,99.5,286.1,97.9,286.1,95.2z"/>
					<path class="st9" d="M293.6,98.3l0.8-1.1c0.7,0.6,1.5,0.9,2.3,0.9c1,0,1.5-0.5,1.5-1.1c0-0.8-0.9-1.1-1.8-1.4
						c-1.1-0.4-2.4-1-2.4-2.4c0-1.4,1.1-2.4,2.9-2.4c1.1,0,2,0.5,2.7,1l-0.8,1.1c-0.6-0.4-1.2-0.7-1.8-0.7c-0.9,0-1.3,0.5-1.3,1
						c0,0.7,0.9,1,1.8,1.3c1.2,0.4,2.4,0.9,2.4,2.5c0,1.4-1.1,2.5-3.1,2.5C295.5,99.5,294.4,99,293.6,98.3z"/>
				</g>
			</g>
		</g>
	</g>
</g>
</svg>
