<?xml version="1.0" encoding="utf-8"?>
<!-- Generator: Adobe Illustrator 23.0.1, SVG Export Plug-In . SVG Version: 6.00 Build 0)  -->
<svg version="1.1" id="Layer_1" xmlns="http://www.w3.org/2000/svg" xmlns:xlink="http://www.w3.org/1999/xlink" x="0px" y="0px"
	 viewBox="0 0 334 797" style="enable-background:new 0 0 334 797;" xml:space="preserve">
<style type="text/css">
	.st0{fill-rule:evenodd;clip-rule:evenodd;fill:#24A18A;fill-opacity:0.8;stroke:#158B76;stroke-width:2;}
	.st1{enable-background:new    ;}
	.st2{fill:#FFFFFF;}
	.st3{font-family:'NotoSansKR-Bold-KSCpc-EUC-H';}
	.st4{font-size:15px;}
	.st5{font-family:'NotoSansKR-Regular-KSCpc-EUC-H';}
	.st6{fill:none;stroke:#0E0E0E;stroke-width:2;stroke-linecap:square;}
	.st7{fill:none;stroke:#0E0E0E;stroke-width:2;stroke-linecap:round;stroke-linejoin:round;}
	.st8{fill:none;stroke:#B54142;stroke-width:2;}
	.st9{fill:#333333;}
	.st10{font-family:'NotoSansKR-Medium-KSCpc-EUC-H';}
</style>
<title>table3</title>
<desc>Created with Sketch.</desc>
<g id="Page-1">
	<g id="mobile1" transform="translate(-20.000000, -2802.000000)">
		<g id="table3" transform="translate(20.000000, 2802.000000)">
			<g id="box1">
				<path id="bg" class="st0" d="M9,1h316c4.4,0,8,3.6,8,8v488c0,4.4-3.6,8-8,8H9c-4.4,0-8-3.6-8-8V9C1,4.6,4.6,1,9,1z"/>
				<g class="st1">
					<path class="st2" d="M66.4,40.9h6.8v1.8h-4.6v2.6h3.9v1.9h-3.9v3h4.8V52h-7V40.9z"/>
					<path class="st2" d="M74.7,47.8c0-2.8,2-4.4,4.3-4.4c1,0,1.8,0.4,2.4,0.9l-1,1.4c-0.4-0.4-0.8-0.6-1.3-0.6
						c-1.3,0-2.1,1-2.1,2.6c0,1.6,0.9,2.6,2.1,2.6c0.6,0,1.2-0.3,1.6-0.7l0.9,1.5c-0.8,0.7-1.8,1-2.7,1
						C76.5,52.2,74.7,50.6,74.7,47.8z"/>
					<path class="st2" d="M82.2,47.8c0-2.8,1.9-4.4,4-4.4s4,1.6,4,4.4c0,2.8-1.9,4.4-4,4.4S82.2,50.6,82.2,47.8z M88,47.8
						c0-1.6-0.6-2.6-1.8-2.6s-1.8,1-1.8,2.6c0,1.6,0.6,2.6,1.8,2.6S88,49.4,88,47.8z"/>
					<path class="st2" d="M91.7,46.9h4.1v1.6h-4.1V46.9z"/>
					<path class="st2" d="M102.2,41.7c-0.3-0.1-0.6-0.2-0.9-0.2c-0.7,0-1,0.4-1,1.3v0.7h1.6v1.7h-1.6V52H98v-6.7h-1.1v-1.6l1.1-0.1
						v-0.7c0-1.8,0.8-3.1,2.9-3.1c0.6,0,1.2,0.2,1.6,0.3L102.2,41.7z"/>
					<path class="st2" d="M103.2,43.6h1.8l0.1,1.5h0.1c0.6-1.1,1.5-1.7,2.4-1.7c0.5,0,0.7,0.1,1,0.2l-0.4,1.9
						c-0.3-0.1-0.5-0.1-0.9-0.1c-0.7,0-1.5,0.4-1.9,1.7v5h-2.2V43.6z"/>
					<path class="st2" d="M109.6,41.1c0-0.7,0.6-1.2,1.3-1.2c0.8,0,1.3,0.5,1.3,1.2c0,0.7-0.6,1.2-1.3,1.2
						C110.1,42.2,109.6,41.7,109.6,41.1z M109.8,43.6h2.2V52h-2.2V43.6z"/>
					<path class="st2" d="M113.8,47.8c0-2.7,1.9-4.4,3.9-4.4c2.3,0,3.5,1.7,3.5,4c0,0.4,0,0.8-0.1,1H116c0.2,1.4,1.1,2.1,2.3,2.1
						c0.7,0,1.3-0.2,1.9-0.6l0.8,1.4c-0.8,0.6-1.9,0.9-2.9,0.9C115.7,52.2,113.8,50.6,113.8,47.8z M119.4,47c0-1.1-0.5-1.9-1.6-1.9
						c-0.9,0-1.7,0.6-1.8,1.9H119.4z"/>
					<path class="st2" d="M123.1,43.6h1.8l0.1,1.1h0.1c0.7-0.7,1.6-1.3,2.7-1.3c1.8,0,2.6,1.3,2.6,3.4V52h-2.2v-5
						c0-1.3-0.4-1.8-1.2-1.8c-0.7,0-1.1,0.3-1.8,0.9V52h-2.2V43.6z"/>
					<path class="st2" d="M132.2,47.8c0-2.7,1.7-4.4,3.5-4.4c0.9,0,1.5,0.4,2.1,0.9l-0.1-1.3v-3h2.2v12h-1.8l-0.2-0.9h0
						c-0.6,0.6-1.5,1.1-2.3,1.1C133.5,52.2,132.2,50.6,132.2,47.8z M137.8,49.5v-3.7c-0.5-0.5-1-0.6-1.6-0.6c-0.9,0-1.7,0.9-1.7,2.6
						c0,1.7,0.6,2.6,1.7,2.6C136.8,50.4,137.3,50.2,137.8,49.5z"/>
					<path class="st2" d="M142.3,49.6V40h2.2v9.7c0,0.5,0.2,0.7,0.4,0.7c0.1,0,0.1,0,0.3,0l0.3,1.6c-0.3,0.1-0.6,0.2-1.1,0.2
						C142.9,52.2,142.3,51.2,142.3,49.6z"/>
					<path class="st2" d="M146.6,55.2l0.4-1.7c0.1,0,0.4,0.1,0.6,0.1c0.9,0,1.3-0.5,1.6-1.3l0.1-0.5l-3.3-8.2h2.2l1.3,3.9
						c0.3,0.8,0.5,1.6,0.7,2.4h0.1c0.2-0.8,0.4-1.6,0.6-2.4l1.2-3.9h2.1l-3,8.7c-0.7,2-1.6,3.1-3.5,3.1
						C147.3,55.4,147,55.3,146.6,55.2z"/>
					<path class="st2" d="M158.6,47.8c0-2.8,2-4.4,4.3-4.4c1,0,1.8,0.4,2.4,0.9l-1,1.4c-0.4-0.4-0.8-0.6-1.3-0.6
						c-1.3,0-2.1,1-2.1,2.6c0,1.6,0.9,2.6,2.1,2.6c0.6,0,1.2-0.3,1.6-0.7l0.9,1.5c-0.8,0.7-1.8,1-2.7,1
						C160.3,52.2,158.6,50.6,158.6,47.8z"/>
					<path class="st2" d="M166,47.8c0-2.8,1.9-4.4,4-4.4c2.1,0,4,1.6,4,4.4c0,2.8-1.9,4.4-4,4.4C167.9,52.2,166,50.6,166,47.8z
						 M171.8,47.8c0-1.6-0.6-2.6-1.8-2.6s-1.8,1-1.8,2.6c0,1.6,0.6,2.6,1.8,2.6S171.8,49.4,171.8,47.8z"/>
					<path class="st2" d="M175.1,51l1-1.4c0.8,0.6,1.5,0.9,2.2,0.9c0.8,0,1.2-0.4,1.2-0.9c0-0.6-0.9-0.9-1.8-1.3
						c-1.1-0.4-2.3-1-2.3-2.4c0-1.5,1.2-2.6,3.1-2.6c1.2,0,2.2,0.5,2.9,1l-1,1.3c-0.6-0.4-1.2-0.7-1.8-0.7c-0.8,0-1.1,0.3-1.1,0.8
						c0,0.6,0.8,0.8,1.7,1.2c1.1,0.4,2.3,1,2.3,2.5c0,1.5-1.2,2.7-3.3,2.7C177.1,52.2,175.9,51.7,175.1,51z"/>
					<path class="st2" d="M183.3,43.6h1.8l0.1,1.1h0.1c0.7-0.7,1.5-1.3,2.6-1.3c1.2,0,1.9,0.5,2.3,1.5c0.8-0.8,1.6-1.5,2.7-1.5
						c1.8,0,2.6,1.3,2.6,3.4V52h-2.2v-5c0-1.3-0.4-1.8-1.2-1.8c-0.5,0-1,0.3-1.6,0.9V52h-2.2v-5c0-1.3-0.4-1.8-1.2-1.8
						c-0.5,0-1,0.3-1.6,0.9V52h-2.2V43.6z"/>
					<path class="st2" d="M197.2,47.8c0-2.7,1.9-4.4,3.9-4.4c2.3,0,3.5,1.7,3.5,4c0,0.4,0,0.8-0.1,1h-5.2c0.2,1.4,1.1,2.1,2.3,2.1
						c0.7,0,1.3-0.2,1.9-0.6l0.8,1.4c-0.8,0.6-1.9,0.9-2.9,0.9C199,52.2,197.2,50.6,197.2,47.8z M202.7,47c0-1.1-0.5-1.9-1.6-1.9
						c-0.9,0-1.7,0.6-1.8,1.9H202.7z"/>
					<path class="st2" d="M205.9,47.8c0-2.8,2-4.4,4.3-4.4c1,0,1.8,0.4,2.4,0.9l-1,1.4c-0.4-0.4-0.8-0.6-1.3-0.6
						c-1.3,0-2.1,1-2.1,2.6c0,1.6,0.9,2.6,2.1,2.6c0.6,0,1.2-0.3,1.6-0.7l0.9,1.5c-0.8,0.7-1.8,1-2.7,1
						C207.7,52.2,205.9,50.6,205.9,47.8z"/>
					<path class="st2" d="M213.4,47.8c0-2.7,1.9-4.4,3.9-4.4c2.3,0,3.5,1.7,3.5,4c0,0.4,0,0.8-0.1,1h-5.2c0.2,1.4,1.1,2.1,2.3,2.1
						c0.7,0,1.3-0.2,1.9-0.6l0.8,1.4c-0.8,0.6-1.9,0.9-2.9,0.9C215.2,52.2,213.4,50.6,213.4,47.8z M218.9,47c0-1.1-0.5-1.9-1.6-1.9
						c-0.9,0-1.7,0.6-1.8,1.9H218.9z"/>
					<path class="st2" d="M222.5,48.9v-5.2h2.2v5c0,1.3,0.4,1.8,1.2,1.8c0.7,0,1.1-0.3,1.7-1v-5.7h2.2V52H228l-0.2-1.2h-0.1
						c-0.7,0.9-1.5,1.4-2.7,1.4C223.3,52.2,222.5,51,222.5,48.9z"/>
					<path class="st2" d="M232.5,49.1v-3.7h-1.2v-1.6l1.3-0.1l0.3-2.2h1.8v2.2h2.1v1.7h-2.1v3.7c0,1,0.4,1.4,1.1,1.4
						c0.3,0,0.6-0.1,0.8-0.2l0.4,1.6c-0.5,0.2-1,0.3-1.8,0.3C233.3,52.2,232.5,51,232.5,49.1z"/>
					<path class="st2" d="M238.3,41.1c0-0.7,0.6-1.2,1.3-1.2c0.8,0,1.3,0.5,1.3,1.2c0,0.7-0.6,1.2-1.3,1.2
						C238.8,42.2,238.3,41.7,238.3,41.1z M238.5,43.6h2.2V52h-2.2V43.6z"/>
					<path class="st2" d="M242.5,47.8c0-2.8,2-4.4,4.3-4.4c1,0,1.8,0.4,2.4,0.9l-1.1,1.4c-0.4-0.4-0.8-0.6-1.3-0.6
						c-1.3,0-2.1,1-2.1,2.6c0,1.6,0.9,2.6,2.1,2.6c0.6,0,1.2-0.3,1.6-0.7l0.9,1.5c-0.8,0.7-1.8,1-2.7,1
						C244.3,52.2,242.5,50.6,242.5,47.8z"/>
					<path class="st2" d="M250.3,49.7c0-1.8,1.5-2.7,4.8-3.1c0-0.8-0.4-1.5-1.4-1.5c-0.8,0-1.5,0.3-2.3,0.8l-0.8-1.5
						c1-0.6,2.2-1.1,3.5-1.1c2.1,0,3.2,1.3,3.2,3.7V52h-1.8l-0.2-0.9h0c-0.7,0.6-1.6,1.1-2.5,1.1C251.3,52.2,250.3,51.1,250.3,49.7z
						 M255.2,49.7V48c-2,0.3-2.7,0.8-2.7,1.6c0,0.7,0.5,0.9,1.1,0.9C254.2,50.5,254.6,50.2,255.2,49.7z"/>
					<path class="st2" d="M259.6,49.6V40h2.2v9.7c0,0.5,0.2,0.7,0.4,0.7c0.1,0,0.2,0,0.3,0l0.3,1.6c-0.3,0.1-0.6,0.2-1.1,0.2
						C260.2,52.2,259.6,51.2,259.6,49.6z"/>
					<path class="st2" d="M263.6,51l1-1.4c0.8,0.6,1.5,0.9,2.2,0.9c0.8,0,1.2-0.4,1.2-0.9c0-0.6-0.9-0.9-1.8-1.3
						c-1.1-0.4-2.3-1-2.3-2.4c0-1.5,1.2-2.6,3.1-2.6c1.2,0,2.2,0.5,2.9,1l-1,1.3c-0.6-0.4-1.2-0.7-1.8-0.7c-0.8,0-1.1,0.3-1.1,0.8
						c0,0.6,0.8,0.8,1.7,1.2c1.1,0.4,2.3,1,2.3,2.5c0,1.5-1.2,2.7-3.3,2.7C265.6,52.2,264.4,51.7,263.6,51z"/>
				</g>
				<text transform="matrix(1 0 0 1 270.5869 52)" class="st2 st3 st4"> </text>
				<g class="st1">
					<path class="st2" d="M65.7,69.8c0-2.7,1.7-4.4,3.5-4.4c0.9,0,1.5,0.4,2.1,0.9L71.3,65v-3h2.2v12h-1.8l-0.2-0.9h0
						c-0.6,0.6-1.5,1.1-2.3,1.1C67.1,74.2,65.7,72.6,65.7,69.8z M71.3,71.5v-3.7c-0.5-0.5-1-0.6-1.6-0.6c-0.9,0-1.7,0.9-1.7,2.6
						c0,1.7,0.6,2.6,1.7,2.6C70.3,72.4,70.8,72.2,71.3,71.5z"/>
					<path class="st2" d="M75.3,69.8c0-2.7,1.9-4.4,3.9-4.4c2.3,0,3.5,1.7,3.5,4c0,0.4,0,0.8-0.1,1h-5.2c0.2,1.4,1.1,2.1,2.3,2.1
						c0.7,0,1.3-0.2,1.9-0.6l0.8,1.4c-0.8,0.6-1.9,0.9-2.9,0.9C77.1,74.2,75.3,72.6,75.3,69.8z M80.9,69c0-1.1-0.5-1.9-1.6-1.9
						c-0.9,0-1.7,0.6-1.8,1.9H80.9z"/>
					<path class="st2" d="M83.5,65.6h2.2l1.2,4.2c0.2,0.8,0.5,1.7,0.7,2.5h0.1c0.2-0.9,0.5-1.7,0.7-2.5l1.2-4.2h2.1L88.9,74h-2.6
						L83.5,65.6z"/>
					<path class="st2" d="M92.5,69.8c0-2.7,1.9-4.4,3.9-4.4c2.3,0,3.5,1.7,3.5,4c0,0.4,0,0.8-0.1,1h-5.2c0.2,1.4,1.1,2.1,2.3,2.1
						c0.7,0,1.3-0.2,1.9-0.6l0.8,1.4c-0.8,0.6-1.9,0.9-2.9,0.9C94.3,74.2,92.5,72.6,92.5,69.8z M98,69c0-1.1-0.5-1.9-1.6-1.9
						c-0.9,0-1.7,0.6-1.8,1.9H98z"/>
					<path class="st2" d="M101.7,71.6V62h2.2v9.7c0,0.5,0.2,0.7,0.4,0.7c0.1,0,0.1,0,0.3,0l0.3,1.6c-0.3,0.1-0.6,0.2-1.1,0.2
						C102.3,74.2,101.7,73.2,101.7,71.6z"/>
					<path class="st2" d="M105.9,69.8c0-2.8,1.9-4.4,4-4.4s4,1.6,4,4.4c0,2.8-1.9,4.4-4,4.4S105.9,72.6,105.9,69.8z M111.8,69.8
						c0-1.6-0.6-2.6-1.8-2.6s-1.8,1-1.8,2.6c0,1.6,0.6,2.6,1.8,2.6S111.8,71.4,111.8,69.8z"/>
					<path class="st2" d="M115.8,65.6h1.8l0.1,0.9h0.1c0.7-0.6,1.6-1.1,2.5-1.1c2.1,0,3.3,1.7,3.3,4.3c0,2.9-1.7,4.5-3.6,4.5
						c-0.7,0-1.4-0.3-2.1-0.9l0.1,1.4v2.5h-2.2V65.6z M121.4,69.7c0-1.6-0.5-2.5-1.7-2.5c-0.6,0-1.1,0.3-1.7,0.9v3.7
						c0.5,0.5,1.1,0.6,1.5,0.6C120.6,72.4,121.4,71.5,121.4,69.7z"/>
					<path class="st2" d="M125,69.8c0-2.7,1.9-4.4,3.9-4.4c2.3,0,3.5,1.7,3.5,4c0,0.4,0,0.8-0.1,1h-5.2c0.2,1.4,1.1,2.1,2.3,2.1
						c0.7,0,1.3-0.2,1.9-0.6l0.8,1.4c-0.8,0.6-1.9,0.9-2.9,0.9C126.8,74.2,125,72.6,125,69.8z M130.5,69c0-1.1-0.5-1.9-1.6-1.9
						c-0.9,0-1.7,0.6-1.8,1.9H130.5z"/>
					<path class="st2" d="M133.7,69.8c0-2.7,1.7-4.4,3.5-4.4c0.9,0,1.5,0.4,2.1,0.9l-0.1-1.3v-3h2.2v12h-1.8l-0.2-0.9h0
						c-0.6,0.6-1.5,1.1-2.3,1.1C135.1,74.2,133.7,72.6,133.7,69.8z M139.3,71.5v-3.7c-0.5-0.5-1-0.6-1.6-0.6c-0.9,0-1.7,0.9-1.7,2.6
						c0,1.7,0.6,2.6,1.7,2.6C138.3,72.4,138.8,72.2,139.3,71.5z"/>
					<path class="st2" d="M151.8,63.7c-0.3-0.1-0.6-0.2-0.9-0.2c-0.7,0-1,0.4-1,1.3v0.7h1.6v1.7h-1.6V74h-2.2v-6.7h-1.1v-1.6
						l1.1-0.1v-0.7c0-1.8,0.8-3.1,2.9-3.1c0.6,0,1.2,0.2,1.6,0.3L151.8,63.7z"/>
					<path class="st2" d="M152.9,65.6h1.8l0.1,1.5h0.1c0.6-1.1,1.5-1.7,2.4-1.7c0.5,0,0.7,0.1,1,0.2l-0.4,1.9
						c-0.3-0.1-0.5-0.1-0.9-0.1c-0.7,0-1.5,0.4-1.9,1.7v5h-2.2V65.6z"/>
					<path class="st2" d="M158.7,69.8c0-2.8,1.9-4.4,4-4.4s4,1.6,4,4.4c0,2.8-1.9,4.4-4,4.4S158.7,72.6,158.7,69.8z M164.5,69.8
						c0-1.6-0.6-2.6-1.8-2.6s-1.8,1-1.8,2.6c0,1.6,0.6,2.6,1.8,2.6S164.5,71.4,164.5,69.8z"/>
					<path class="st2" d="M168.6,65.6h1.8l0.2,1.1h0.1c0.7-0.7,1.5-1.3,2.6-1.3c1.2,0,1.9,0.5,2.3,1.5c0.8-0.8,1.6-1.5,2.7-1.5
						c1.8,0,2.6,1.3,2.6,3.4V74h-2.2v-5c0-1.3-0.4-1.8-1.2-1.8c-0.5,0-1,0.3-1.6,0.9V74h-2.2v-5c0-1.3-0.4-1.8-1.2-1.8
						c-0.5,0-1,0.3-1.6,0.9V74h-2.2V65.6z"/>
				</g>
				<text transform="matrix(1 0 0 1 181.8936 74)" class="st2 st3 st4"> </text>
				<g class="st1">
					<path class="st2" d="M65.4,95l1-1.4c0.8,0.6,1.5,0.9,2.2,0.9c0.8,0,1.2-0.4,1.2-0.9c0-0.6-0.9-0.9-1.8-1.3
						c-1.1-0.4-2.3-1-2.3-2.4c0-1.5,1.2-2.6,3.1-2.6c1.2,0,2.2,0.5,2.9,1l-1,1.3C70.2,89.3,69.6,89,69,89c-0.8,0-1.1,0.3-1.1,0.8
						c0,0.6,0.8,0.8,1.7,1.2c1.1,0.4,2.3,1,2.3,2.5c0,1.5-1.2,2.7-3.3,2.7C67.5,96.2,66.2,95.7,65.4,95z"/>
					<path class="st2" d="M73.5,92.9v-5.2h2.2v5c0,1.3,0.4,1.8,1.2,1.8c0.7,0,1.1-0.3,1.7-1v-5.7h2.2V96H79l-0.2-1.2h-0.1
						c-0.7,0.9-1.5,1.4-2.7,1.4C74.3,96.2,73.5,95,73.5,92.9z"/>
					<path class="st2" d="M82.4,95l1-1.4c0.8,0.6,1.5,0.9,2.2,0.9c0.8,0,1.2-0.4,1.2-0.9c0-0.6-0.9-0.9-1.8-1.3
						c-1.1-0.4-2.3-1-2.3-2.4c0-1.5,1.2-2.6,3.1-2.6c1.2,0,2.2,0.5,2.9,1l-1,1.3C87.2,89.3,86.6,89,86,89c-0.8,0-1.1,0.3-1.1,0.8
						c0,0.6,0.8,0.8,1.7,1.2c1.1,0.4,2.3,1,2.3,2.5c0,1.5-1.2,2.7-3.3,2.7C84.4,96.2,83.2,95.7,82.4,95z"/>
					<path class="st2" d="M90.6,93.1v-3.7h-1.2v-1.6l1.3-0.1l0.3-2.2h1.8v2.2h2.1v1.7h-2.1v3.7c0,1,0.4,1.4,1.1,1.4
						c0.3,0,0.6-0.1,0.8-0.2l0.4,1.6c-0.5,0.2-1,0.3-1.8,0.3C91.3,96.2,90.6,95,90.6,93.1z"/>
					<path class="st2" d="M95.8,93.7c0-1.8,1.5-2.7,4.8-3.1c0-0.8-0.4-1.5-1.4-1.5c-0.8,0-1.5,0.3-2.3,0.8l-0.8-1.5
						c1-0.6,2.2-1.1,3.5-1.1c2.1,0,3.2,1.3,3.2,3.7V96H101l-0.2-0.9h0c-0.7,0.6-1.6,1.1-2.5,1.1C96.8,96.2,95.8,95.1,95.8,93.7z
						 M100.6,93.7V92c-2,0.3-2.7,0.8-2.7,1.6c0,0.7,0.5,0.9,1.1,0.9C99.6,94.5,100.1,94.2,100.6,93.7z"/>
					<path class="st2" d="M104.9,85.1c0-0.7,0.6-1.2,1.3-1.2c0.8,0,1.3,0.5,1.3,1.2c0,0.7-0.6,1.2-1.3,1.2
						C105.4,86.2,104.9,85.7,104.9,85.1z M105.1,87.6h2.2V96h-2.2V87.6z"/>
					<path class="st2" d="M109.6,87.6h1.8l0.1,1.1h0.1c0.7-0.7,1.6-1.3,2.7-1.3c1.8,0,2.6,1.3,2.6,3.4V96h-2.2v-5
						c0-1.3-0.4-1.8-1.2-1.8c-0.7,0-1.1,0.3-1.8,0.9V96h-2.2V87.6z"/>
					<path class="st2" d="M118.8,93.7c0-1.8,1.5-2.7,4.8-3.1c0-0.8-0.4-1.5-1.4-1.5c-0.8,0-1.5,0.3-2.3,0.8l-0.8-1.5
						c1-0.6,2.2-1.1,3.5-1.1c2.1,0,3.2,1.3,3.2,3.7V96h-1.8l-0.2-0.9h0c-0.7,0.6-1.6,1.1-2.5,1.1C119.8,96.2,118.8,95.1,118.8,93.7z
						 M123.6,93.7V92c-2,0.3-2.7,0.8-2.7,1.6c0,0.7,0.5,0.9,1.1,0.9C122.7,94.5,123.1,94.2,123.6,93.7z"/>
					<path class="st2" d="M130.1,95.1L130.1,95.1l-0.2,0.9h-1.7V84h2.2v3l0,1.4c0.7-0.6,1.5-1,2.3-1c2.1,0,3.3,1.7,3.3,4.3
						c0,2.9-1.7,4.6-3.6,4.6C131.6,96.2,130.8,95.8,130.1,95.1z M133.6,91.7c0-1.6-0.5-2.5-1.7-2.5c-0.6,0-1.1,0.3-1.7,0.9v3.7
						c0.5,0.5,1.1,0.6,1.5,0.6C132.8,94.4,133.6,93.5,133.6,91.7z"/>
					<path class="st2" d="M137.8,93.6V84h2.2v9.7c0,0.5,0.2,0.7,0.4,0.7c0.1,0,0.1,0,0.3,0L141,96c-0.3,0.1-0.6,0.2-1.1,0.2
						C138.3,96.2,137.8,95.2,137.8,93.6z"/>
					<path class="st2" d="M142,91.8c0-2.7,1.9-4.4,3.9-4.4c2.3,0,3.5,1.7,3.5,4c0,0.4,0,0.8-0.1,1h-5.2c0.2,1.4,1.1,2.1,2.3,2.1
						c0.7,0,1.3-0.2,1.9-0.6l0.8,1.4c-0.8,0.6-1.9,0.9-2.9,0.9C143.8,96.2,142,94.6,142,91.8z M147.5,91c0-1.1-0.5-1.9-1.6-1.9
						c-0.9,0-1.7,0.6-1.8,1.9H147.5z"/>
					<path class="st2" d="M154.6,87.6h1.8l0.1,1.1h0.1c0.7-0.7,1.6-1.3,2.7-1.3c1.8,0,2.6,1.3,2.6,3.4V96h-2.2v-5
						c0-1.3-0.4-1.8-1.2-1.8c-0.7,0-1.1,0.3-1.8,0.9V96h-2.2V87.6z"/>
					<path class="st2" d="M163.8,93.7c0-1.8,1.5-2.7,4.8-3.1c0-0.8-0.4-1.5-1.4-1.5c-0.8,0-1.5,0.3-2.3,0.8l-0.8-1.5
						c1-0.6,2.2-1.1,3.5-1.1c2.1,0,3.2,1.3,3.2,3.7V96H169l-0.2-0.9h0c-0.7,0.6-1.6,1.1-2.5,1.1C164.8,96.2,163.8,95.1,163.8,93.7z
						 M168.6,93.7V92c-2,0.3-2.7,0.8-2.7,1.6c0,0.7,0.5,0.9,1.1,0.9C167.6,94.5,168.1,94.2,168.6,93.7z"/>
					<path class="st2" d="M173.1,93.1v-3.7h-1.2v-1.6l1.3-0.1l0.3-2.2h1.8v2.2h2.1v1.7h-2.1v3.7c0,1,0.4,1.4,1.1,1.4
						c0.3,0,0.6-0.1,0.8-0.2l0.4,1.6c-0.5,0.2-1,0.3-1.8,0.3C173.9,96.2,173.1,95,173.1,93.1z"/>
					<path class="st2" d="M179,92.9v-5.2h2.2v5c0,1.3,0.4,1.8,1.2,1.8c0.7,0,1.1-0.3,1.7-1v-5.7h2.2V96h-1.8l-0.2-1.2h-0.1
						c-0.7,0.9-1.5,1.4-2.7,1.4C179.8,96.2,179,95,179,92.9z"/>
					<path class="st2" d="M188.7,87.6h1.8l0.1,1.5h0.1c0.6-1.1,1.5-1.7,2.4-1.7c0.5,0,0.7,0.1,1,0.2l-0.4,1.9
						c-0.3-0.1-0.5-0.1-0.9-0.1c-0.7,0-1.5,0.4-1.9,1.7v5h-2.2V87.6z"/>
					<path class="st2" d="M194.3,93.7c0-1.8,1.5-2.7,4.8-3.1c0-0.8-0.4-1.5-1.4-1.5c-0.8,0-1.5,0.3-2.3,0.8l-0.8-1.5
						c1-0.6,2.2-1.1,3.5-1.1c2.1,0,3.2,1.3,3.2,3.7V96h-1.8l-0.2-0.9h0c-0.7,0.6-1.6,1.1-2.5,1.1C195.3,96.2,194.3,95.1,194.3,93.7z
						 M199.1,93.7V92c-2,0.3-2.7,0.8-2.7,1.6c0,0.7,0.5,0.9,1.1,0.9C198.2,94.5,198.6,94.2,199.1,93.7z"/>
					<path class="st2" d="M203.6,93.6V84h2.2v9.7c0,0.5,0.2,0.7,0.5,0.7c0.1,0,0.1,0,0.3,0l0.3,1.6c-0.3,0.1-0.6,0.2-1.1,0.2
						C204.1,96.2,203.6,95.2,203.6,93.6z"/>
					<path class="st2" d="M210.9,95l1-1.4c0.8,0.6,1.5,0.9,2.2,0.9c0.8,0,1.2-0.4,1.2-0.9c0-0.6-0.9-0.9-1.8-1.3
						c-1.1-0.4-2.3-1-2.3-2.4c0-1.5,1.2-2.6,3.1-2.6c1.2,0,2.2,0.5,2.9,1l-1,1.3c-0.6-0.4-1.2-0.7-1.8-0.7c-0.8,0-1.1,0.3-1.1,0.8
						c0,0.6,0.8,0.8,1.7,1.2c1.1,0.4,2.3,1,2.3,2.5c0,1.5-1.2,2.7-3.3,2.7C213,96.2,211.8,95.7,210.9,95z"/>
					<path class="st2" d="M218.6,91.8c0-2.8,1.9-4.4,4-4.4c2.1,0,4,1.6,4,4.4c0,2.8-1.9,4.4-4,4.4C220.6,96.2,218.6,94.6,218.6,91.8
						z M224.4,91.8c0-1.6-0.6-2.6-1.8-2.6c-1.1,0-1.8,1-1.8,2.6c0,1.6,0.6,2.6,1.8,2.6C223.8,94.4,224.4,93.4,224.4,91.8z"/>
					<path class="st2" d="M228.5,92.9v-5.2h2.2v5c0,1.3,0.4,1.8,1.2,1.8c0.7,0,1.1-0.3,1.7-1v-5.7h2.2V96h-1.8l-0.2-1.2h-0.1
						c-0.7,0.9-1.5,1.4-2.7,1.4C229.2,96.2,228.5,95,228.5,92.9z"/>
					<path class="st2" d="M238.1,87.6h1.8l0.1,1.5h0.1c0.6-1.1,1.5-1.7,2.4-1.7c0.5,0,0.7,0.1,1,0.2l-0.4,1.9
						c-0.3-0.1-0.5-0.1-0.9-0.1c-0.7,0-1.5,0.4-1.9,1.7v5h-2.2V87.6z"/>
					<path class="st2" d="M243.9,91.8c0-2.8,2-4.4,4.3-4.4c1,0,1.8,0.4,2.4,0.9l-1,1.4c-0.4-0.4-0.8-0.6-1.3-0.6
						c-1.3,0-2.1,1-2.1,2.6c0,1.6,0.9,2.6,2.1,2.6c0.6,0,1.2-0.3,1.6-0.7l0.9,1.5c-0.8,0.7-1.8,1-2.7,1
						C245.7,96.2,243.9,94.6,243.9,91.8z"/>
					<path class="st2" d="M251.4,91.8c0-2.7,1.9-4.4,3.9-4.4c2.3,0,3.5,1.7,3.5,4c0,0.4,0,0.8-0.1,1h-5.2c0.2,1.4,1.1,2.1,2.3,2.1
						c0.7,0,1.3-0.2,1.9-0.6l0.8,1.4c-0.8,0.6-1.9,0.9-2.9,0.9C253.2,96.2,251.4,94.6,251.4,91.8z M256.9,91c0-1.1-0.5-1.9-1.6-1.9
						c-0.9,0-1.7,0.6-1.8,1.9H256.9z"/>
					<path class="st2" d="M259.8,95l1-1.4c0.8,0.6,1.5,0.9,2.2,0.9c0.8,0,1.2-0.4,1.2-0.9c0-0.6-0.9-0.9-1.8-1.3
						c-1.1-0.4-2.3-1-2.3-2.4c0-1.5,1.2-2.6,3.1-2.6c1.2,0,2.2,0.5,2.9,1l-1,1.3c-0.6-0.4-1.2-0.7-1.8-0.7c-0.8,0-1.1,0.3-1.1,0.8
						c0,0.6,0.8,0.8,1.7,1.2c1.1,0.4,2.3,1,2.3,2.5c0,1.5-1.2,2.7-3.3,2.7C261.9,96.2,260.7,95.7,259.8,95z"/>
				</g>
				<g class="st1">
					<path class="st2" d="M30.7,133.3h3.8v1h-3.8V133.3z"/>
					<path class="st2" d="M40.1,127h2.8c3.4,0,5.2,2,5.2,5.5c0,3.5-1.8,5.5-5.1,5.5h-2.8V127z M42.7,136.9c2.6,0,3.9-1.6,3.9-4.4
						c0-2.8-1.3-4.3-3.9-4.3h-1.2v8.7H42.7z"/>
					<path class="st2" d="M49.6,133.9c0-2.6,1.8-4.3,3.7-4.3c2.1,0,3.2,1.5,3.2,3.8c0,0.3,0,0.6-0.1,0.8H51c0.1,1.7,1.2,2.8,2.7,2.8
						c0.8,0,1.4-0.2,2-0.6l0.5,0.9c-0.7,0.5-1.6,0.8-2.7,0.8C51.4,138.2,49.6,136.6,49.6,133.9z M55.3,133.3c0-1.7-0.8-2.5-2-2.5
						c-1.2,0-2.2,0.9-2.3,2.5H55.3z"/>
					<path class="st2" d="M57.4,129.9h1.4l1.5,4.6c0.3,0.8,0.5,1.6,0.8,2.4h0.1c0.2-0.8,0.5-1.6,0.8-2.4l1.5-4.6h1.4L62,138h-1.6
						L57.4,129.9z"/>
					<path class="st2" d="M65.8,133.9c0-2.6,1.8-4.3,3.7-4.3c2.1,0,3.2,1.5,3.2,3.8c0,0.3,0,0.6-0.1,0.8h-5.5
						c0.1,1.7,1.2,2.8,2.7,2.8c0.8,0,1.4-0.2,2-0.6l0.5,0.9c-0.7,0.5-1.6,0.8-2.7,0.8C67.5,138.2,65.8,136.6,65.8,133.9z
						 M71.5,133.3c0-1.7-0.8-2.5-2-2.5c-1.2,0-2.2,0.9-2.3,2.5H71.5z"/>
					<path class="st2" d="M74.7,136.4v-10.3h1.4v10.4c0,0.4,0.2,0.6,0.4,0.6c0.1,0,0.1,0,0.3,0l0.2,1c-0.2,0.1-0.4,0.1-0.8,0.1
						C75.1,138.2,74.7,137.5,74.7,136.4z"/>
					<path class="st2" d="M78.4,133.9c0-2.7,1.8-4.3,3.8-4.3c2,0,3.8,1.6,3.8,4.3c0,2.7-1.8,4.3-3.8,4.3
						C80.1,138.2,78.4,136.6,78.4,133.9z M84.5,133.9c0-1.9-1-3.2-2.4-3.2c-1.4,0-2.4,1.3-2.4,3.2s0.9,3.1,2.4,3.1
						C83.5,137.1,84.5,135.8,84.5,133.9z"/>
					<path class="st2" d="M88.1,129.9h1.1l0.1,0.9h0c0.7-0.6,1.6-1.1,2.6-1.1c2.1,0,3.2,1.6,3.2,4.2c0,2.8-1.7,4.4-3.5,4.4
						c-0.7,0-1.5-0.3-2.2-0.9l0,1.4v2.8h-1.4V129.9z M93.8,133.8c0-1.8-0.6-3-2.1-3c-0.7,0-1.4,0.4-2.2,1.1v4.3
						c0.7,0.6,1.5,0.9,2,0.9C92.8,137.1,93.8,135.8,93.8,133.8z"/>
					<path class="st2" d="M100.1,133.9c0-2.7,1.8-4.3,3.9-4.3c1.1,0,1.8,0.5,2.4,1l-0.7,0.9c-0.5-0.4-1-0.7-1.6-0.7
						c-1.5,0-2.5,1.3-2.5,3.2s1,3.1,2.5,3.1c0.8,0,1.4-0.3,1.9-0.8l0.6,0.9c-0.7,0.7-1.6,1-2.6,1
						C101.8,138.2,100.1,136.6,100.1,133.9z"/>
					<path class="st2" d="M107.4,133.9c0-2.7,1.8-4.3,3.8-4.3c2,0,3.8,1.6,3.8,4.3c0,2.7-1.8,4.3-3.8,4.3
						C109.2,138.2,107.4,136.6,107.4,133.9z M113.5,133.9c0-1.9-1-3.2-2.4-3.2c-1.4,0-2.4,1.3-2.4,3.2s0.9,3.1,2.4,3.1
						C112.6,137.1,113.5,135.8,113.5,133.9z"/>
					<path class="st2" d="M116.2,137.1l0.7-0.9c0.7,0.6,1.4,1,2.4,1c1.1,0,1.6-0.6,1.6-1.3c0-0.8-1-1.2-1.9-1.5
						c-1.1-0.4-2.4-1-2.4-2.4c0-1.3,1-2.3,2.8-2.3c1,0,1.9,0.4,2.5,0.9l-0.7,0.9c-0.6-0.4-1.1-0.7-1.9-0.7c-1,0-1.5,0.5-1.5,1.2
						c0,0.8,0.9,1.1,1.8,1.4c1.2,0.4,2.5,0.9,2.5,2.5c0,1.3-1.1,2.4-3,2.4C118.1,138.2,117,137.7,116.2,137.1z"/>
					<path class="st2" d="M124.1,129.9h1.1l0.1,1.2h0c0.7-0.8,1.6-1.4,2.5-1.4c1.2,0,1.9,0.6,2.2,1.6c0.8-0.9,1.7-1.6,2.7-1.6
						c1.7,0,2.5,1.1,2.5,3.2v5.2H134v-5c0-1.5-0.5-2.2-1.5-2.2c-0.6,0-1.3,0.4-2.1,1.2v5.9H129v-5c0-1.5-0.5-2.2-1.5-2.2
						c-0.6,0-1.3,0.4-2.1,1.2v5.9h-1.4V129.9z"/>
					<path class="st2" d="M137.4,133.9c0-2.6,1.8-4.3,3.7-4.3c2.1,0,3.2,1.5,3.2,3.8c0,0.3,0,0.6-0.1,0.8h-5.5
						c0.1,1.7,1.2,2.8,2.7,2.8c0.8,0,1.4-0.2,2-0.6l0.5,0.9c-0.7,0.5-1.6,0.8-2.7,0.8C139.1,138.2,137.4,136.6,137.4,133.9z
						 M143.1,133.3c0-1.7-0.7-2.5-2-2.5c-1.2,0-2.2,0.9-2.3,2.5H143.1z"/>
					<path class="st2" d="M145.7,133.9c0-2.7,1.8-4.3,3.9-4.3c1.1,0,1.8,0.5,2.4,1l-0.7,0.9c-0.5-0.4-1-0.7-1.6-0.7
						c-1.5,0-2.5,1.3-2.5,3.2s1,3.1,2.5,3.1c0.8,0,1.4-0.3,1.9-0.8l0.6,0.9c-0.7,0.7-1.6,1-2.6,1
						C147.4,138.2,145.7,136.6,145.7,133.9z"/>
					<path class="st2" d="M153,133.9c0-2.6,1.8-4.3,3.7-4.3c2.1,0,3.2,1.5,3.2,3.8c0,0.3,0,0.6-0.1,0.8h-5.5
						c0.1,1.7,1.2,2.8,2.7,2.8c0.8,0,1.4-0.2,2-0.6l0.5,0.9c-0.7,0.5-1.6,0.8-2.7,0.8C154.7,138.2,153,136.6,153,133.9z
						 M158.7,133.3c0-1.7-0.7-2.5-2-2.5c-1.2,0-2.2,0.9-2.3,2.5H158.7z"/>
					<path class="st2" d="M161.8,135v-5.2h1.4v5c0,1.5,0.5,2.2,1.5,2.2c0.8,0,1.4-0.4,2.2-1.4v-5.8h1.4v8.1h-1.1l-0.1-1.3h0
						c-0.8,0.9-1.6,1.5-2.7,1.5C162.6,138.2,161.8,137.1,161.8,135z"/>
					<path class="st2" d="M171.2,135.5V131H170v-1l1.3-0.1l0.2-2.3h1.1v2.3h2.2v1.1h-2.2v4.5c0,1,0.3,1.6,1.3,1.6
						c0.3,0,0.7-0.1,0.9-0.2l0.3,1c-0.5,0.2-1,0.3-1.5,0.3C171.8,138.2,171.2,137.1,171.2,135.5z"/>
					<path class="st2" d="M176.4,127.3c0-0.6,0.4-0.9,0.9-0.9c0.5,0,0.9,0.3,0.9,0.9c0,0.5-0.4,0.9-0.9,0.9
						C176.8,128.2,176.4,127.8,176.4,127.3z M176.7,129.9h1.4v8.1h-1.4V129.9z"/>
					<path class="st2" d="M180.2,133.9c0-2.7,1.8-4.3,3.9-4.3c1.1,0,1.8,0.5,2.4,1l-0.7,0.9c-0.5-0.4-1-0.7-1.6-0.7
						c-1.5,0-2.5,1.3-2.5,3.2s1,3.1,2.5,3.1c0.8,0,1.4-0.3,1.9-0.8l0.6,0.9c-0.7,0.7-1.6,1-2.6,1
						C181.8,138.2,180.2,136.6,180.2,133.9z"/>
					<path class="st2" d="M187.7,135.9c0-1.8,1.5-2.7,5-3c0-1-0.3-2.1-1.7-2.1c-0.9,0-1.8,0.4-2.4,0.9l-0.5-0.9
						c0.8-0.5,1.9-1.1,3.2-1.1c2,0,2.8,1.3,2.8,3.3v5H193l-0.1-1h0c-0.8,0.6-1.7,1.2-2.7,1.2C188.8,138.2,187.7,137.4,187.7,135.9z
						 M192.7,136v-2.3c-2.7,0.3-3.7,1-3.7,2.1c0,0.9,0.6,1.3,1.4,1.3C191.3,137.1,192,136.7,192.7,136z"/>
					<path class="st2" d="M196.7,136.4v-10.3h1.4v10.4c0,0.4,0.2,0.6,0.4,0.6c0.1,0,0.1,0,0.3,0l0.2,1c-0.2,0.1-0.4,0.1-0.8,0.1
						C197.1,138.2,196.7,137.5,196.7,136.4z"/>
					<path class="st2" d="M203.4,137.1l0.7-0.9c0.7,0.6,1.4,1,2.4,1c1.1,0,1.6-0.6,1.6-1.3c0-0.8-1-1.2-1.9-1.5
						c-1.1-0.4-2.4-1-2.4-2.4c0-1.3,1-2.3,2.8-2.3c1,0,1.9,0.4,2.5,0.9l-0.7,0.9c-0.6-0.4-1.1-0.7-1.9-0.7c-1,0-1.5,0.5-1.5,1.2
						c0,0.8,0.9,1.1,1.8,1.4c1.2,0.4,2.5,0.9,2.5,2.5c0,1.3-1,2.4-3,2.4C205.3,138.2,204.2,137.7,203.4,137.1z"/>
					<path class="st2" d="M211.3,135v-5.2h1.4v5c0,1.5,0.5,2.2,1.5,2.2c0.8,0,1.4-0.4,2.2-1.4v-5.8h1.4v8.1h-1.1l-0.1-1.3h0
						c-0.8,0.9-1.6,1.5-2.7,1.5C212,138.2,211.3,137.1,211.3,135z"/>
					<path class="st2" d="M221.7,137.2L221.7,137.2l-0.2,0.8h-1.1v-11.9h1.4v3.3l0,1.5c0.7-0.6,1.6-1.2,2.5-1.2
						c2.1,0,3.3,1.6,3.3,4.1c0,2.8-1.7,4.4-3.5,4.4C223.3,138.2,222.4,137.8,221.7,137.2z M226.2,133.8c0-1.8-0.6-3-2.1-3
						c-0.7,0-1.4,0.4-2.2,1.1v4.3c0.7,0.6,1.5,0.9,2,0.9C225.2,137.1,226.2,135.8,226.2,133.8z"/>
					<path class="st2" d="M228.8,137.1l0.7-0.9c0.7,0.6,1.4,1,2.4,1c1.1,0,1.6-0.6,1.6-1.3c0-0.8-1-1.2-1.9-1.5
						c-1.1-0.4-2.4-1-2.4-2.4c0-1.3,1-2.3,2.8-2.3c1,0,1.9,0.4,2.5,0.9l-0.7,0.9c-0.6-0.4-1.1-0.7-1.9-0.7c-1,0-1.5,0.5-1.5,1.2
						c0,0.8,0.9,1.1,1.8,1.4c1.2,0.4,2.5,0.9,2.5,2.5c0,1.3-1,2.4-3,2.4C230.7,138.2,229.6,137.7,228.8,137.1z"/>
					<path class="st2" d="M236.7,135.5V131h-1.2v-1l1.3-0.1l0.2-2.3h1.1v2.3h2.2v1.1H238v4.5c0,1,0.3,1.6,1.3,1.6
						c0.3,0,0.7-0.1,0.9-0.2l0.3,1c-0.5,0.2-1,0.3-1.5,0.3C237.3,138.2,236.7,137.1,236.7,135.5z"/>
					<path class="st2" d="M241.2,135.9c0-1.8,1.5-2.7,5-3c0-1-0.3-2.1-1.7-2.1c-0.9,0-1.8,0.4-2.4,0.9l-0.5-0.9
						c0.8-0.5,1.9-1.1,3.2-1.1c2,0,2.8,1.3,2.8,3.3v5h-1.1l-0.1-1h0c-0.8,0.6-1.7,1.2-2.7,1.2C242.2,138.2,241.2,137.4,241.2,135.9z
						 M246.2,136v-2.3c-2.7,0.3-3.7,1-3.7,2.1c0,0.9,0.6,1.3,1.4,1.3C244.8,137.1,245.4,136.7,246.2,136z"/>
					<path class="st2" d="M250.2,129.9h1.1l0.1,1.2h0c0.8-0.8,1.6-1.4,2.7-1.4c1.7,0,2.5,1.1,2.5,3.2v5.2h-1.4v-5
						c0-1.5-0.5-2.2-1.5-2.2c-0.8,0-1.4,0.4-2.2,1.2v5.9h-1.4V129.9z"/>
					<path class="st2" d="M258.7,133.9c0-2.7,1.8-4.3,3.9-4.3c1.1,0,1.8,0.5,2.4,1l-0.7,0.9c-0.5-0.4-1-0.7-1.6-0.7
						c-1.5,0-2.6,1.3-2.6,3.2s1,3.1,2.5,3.1c0.8,0,1.4-0.3,1.9-0.8l0.6,0.9c-0.7,0.7-1.7,1-2.6,1
						C260.4,138.2,258.7,136.6,258.7,133.9z"/>
					<path class="st2" d="M266,133.9c0-2.6,1.8-4.3,3.7-4.3c2.1,0,3.2,1.5,3.2,3.8c0,0.3,0,0.6-0.1,0.8h-5.5
						c0.1,1.7,1.2,2.8,2.7,2.8c0.8,0,1.4-0.2,2-0.6l0.5,0.9c-0.7,0.5-1.6,0.8-2.7,0.8C267.7,138.2,266,136.6,266,133.9z
						 M271.7,133.3c0-1.7-0.7-2.5-2-2.5c-1.2,0-2.2,0.9-2.3,2.5H271.7z"/>
				</g>
				<g class="st1">
					<path class="st2" d="M35,162.2c-0.3-0.1-0.6-0.2-0.9-0.2c-0.8,0-1.2,0.6-1.2,1.6v1.3h1.7v1.1H33v7h-1.4v-7h-1.1v-1l1.1-0.1
						v-1.3c0-1.7,0.8-2.7,2.4-2.7c0.5,0,1,0.1,1.4,0.3L35,162.2z"/>
					<path class="st2" d="M36.3,164.9h1.1l0.1,1.5h0c0.6-1,1.4-1.7,2.3-1.7c0.4,0,0.6,0,0.9,0.2l-0.3,1.2c-0.3-0.1-0.5-0.1-0.8-0.1
						c-0.7,0-1.5,0.5-2.1,1.9v5.2h-1.4V164.9z"/>
					<path class="st2" d="M41.3,168.9c0-2.7,1.8-4.3,3.8-4.3c2,0,3.8,1.6,3.8,4.3c0,2.7-1.8,4.3-3.8,4.3
						C43.1,173.2,41.3,171.6,41.3,168.9z M47.4,168.9c0-1.9-1-3.2-2.4-3.2c-1.4,0-2.4,1.3-2.4,3.2s0.9,3.1,2.4,3.1
						C46.5,172.1,47.4,170.8,47.4,168.9z"/>
					<path class="st2" d="M51,164.9h1.1l0.1,1.2h0c0.7-0.8,1.6-1.4,2.5-1.4c1.2,0,1.9,0.6,2.2,1.6c0.8-0.9,1.7-1.6,2.7-1.6
						c1.7,0,2.5,1.1,2.5,3.2v5.2h-1.4v-5c0-1.5-0.5-2.2-1.5-2.2c-0.6,0-1.3,0.4-2.1,1.2v5.9h-1.4v-5c0-1.5-0.5-2.2-1.5-2.2
						c-0.6,0-1.3,0.4-2.1,1.2v5.9H51V164.9z"/>
					<path class="st2" d="M67.6,168.9c0-2.6,1.8-4.3,3.7-4.3c2.1,0,3.2,1.5,3.2,3.8c0,0.3,0,0.6-0.1,0.8H69c0.1,1.7,1.2,2.8,2.7,2.8
						c0.8,0,1.4-0.2,2-0.6l0.5,0.9c-0.7,0.5-1.6,0.8-2.7,0.8C69.4,173.2,67.6,171.6,67.6,168.9z M73.3,168.3c0-1.7-0.8-2.5-2-2.5
						c-1.2,0-2.2,0.9-2.3,2.5H73.3z"/>
					<path class="st2" d="M75.9,168.9c0-2.7,1.8-4.3,3.9-4.3c1.1,0,1.8,0.5,2.4,1l-0.7,0.9c-0.5-0.4-1-0.7-1.6-0.7
						c-1.5,0-2.5,1.3-2.5,3.2s1,3.1,2.5,3.1c0.8,0,1.4-0.3,1.9-0.8l0.6,0.9c-0.7,0.7-1.6,1-2.6,1C77.6,173.2,75.9,171.6,75.9,168.9z
						"/>
					<path class="st2" d="M83.2,168.9c0-2.7,1.8-4.3,3.8-4.3c2,0,3.8,1.6,3.8,4.3c0,2.7-1.8,4.3-3.8,4.3
						C85,173.2,83.2,171.6,83.2,168.9z M89.4,168.9c0-1.9-1-3.2-2.4-3.2c-1.4,0-2.4,1.3-2.4,3.2s0.9,3.1,2.4,3.1
						C88.4,172.1,89.4,170.8,89.4,168.9z"/>
					<path class="st2" d="M92.9,171.4v-10.3h1.4v10.4c0,0.4,0.2,0.6,0.4,0.6c0.1,0,0.1,0,0.3,0l0.2,1c-0.2,0.1-0.4,0.1-0.8,0.1
						C93.3,173.2,92.9,172.5,92.9,171.4z"/>
					<path class="st2" d="M96.6,168.9c0-2.7,1.8-4.3,3.8-4.3c2,0,3.8,1.6,3.8,4.3c0,2.7-1.8,4.3-3.8,4.3
						C98.4,173.2,96.6,171.6,96.6,168.9z M102.7,168.9c0-1.9-1-3.2-2.4-3.2c-1.4,0-2.4,1.3-2.4,3.2s0.9,3.1,2.4,3.1
						C101.8,172.1,102.7,170.8,102.7,168.9z"/>
					<path class="st2" d="M105.7,174.6c0-0.7,0.4-1.3,1.2-1.8v-0.1c-0.4-0.3-0.8-0.7-0.8-1.3c0-0.7,0.5-1.2,0.9-1.5v-0.1
						c-0.5-0.4-1.1-1.2-1.1-2.2c0-1.8,1.4-2.9,3.1-2.9c0.4,0,0.9,0.1,1.1,0.2h2.8v1h-1.7c0.4,0.4,0.7,1,0.7,1.7c0,1.7-1.3,2.8-3,2.8
						c-0.4,0-0.9-0.1-1.2-0.3c-0.3,0.3-0.5,0.5-0.5,1c0,0.5,0.3,0.9,1.4,0.9h1.6c1.9,0,2.8,0.6,2.8,1.9c0,1.5-1.6,2.8-4.1,2.8
						C107,176.8,105.7,176,105.7,174.6z M111.8,174.1c0-0.8-0.6-1-1.7-1h-1.4c-0.3,0-0.7,0-1-0.1c-0.6,0.4-0.8,0.9-0.8,1.4
						c0,0.9,0.9,1.4,2.4,1.4C110.8,175.8,111.8,175,111.8,174.1z M110.8,167.6c0-1.2-0.8-1.9-1.7-1.9s-1.7,0.7-1.7,1.9
						c0,1.2,0.8,1.9,1.7,1.9C110,169.5,110.8,168.7,110.8,167.6z"/>
					<path class="st2" d="M114.5,162.3c0-0.6,0.4-0.9,0.9-0.9s0.9,0.3,0.9,0.9c0,0.5-0.4,0.9-0.9,0.9S114.5,162.8,114.5,162.3z
						 M114.7,164.9h1.4v8.1h-1.4V164.9z"/>
					<path class="st2" d="M118.2,168.9c0-2.7,1.8-4.3,3.9-4.3c1.1,0,1.8,0.5,2.4,1l-0.7,0.9c-0.5-0.4-1-0.7-1.6-0.7
						c-1.5,0-2.5,1.3-2.5,3.2s1,3.1,2.5,3.1c0.8,0,1.4-0.3,1.9-0.8l0.6,0.9c-0.7,0.7-1.6,1-2.6,1
						C119.9,173.2,118.2,171.6,118.2,168.9z"/>
					<path class="st2" d="M125.8,170.9c0-1.8,1.5-2.7,5-3c0-1-0.3-2.1-1.7-2.1c-0.9,0-1.8,0.4-2.4,0.9l-0.5-0.9
						c0.8-0.5,1.9-1.1,3.2-1.1c2,0,2.8,1.3,2.8,3.3v5h-1.1l-0.1-1h0c-0.8,0.6-1.7,1.2-2.7,1.2C126.8,173.2,125.8,172.4,125.8,170.9z
						 M130.8,171v-2.3c-2.7,0.3-3.7,1-3.7,2.1c0,0.9,0.6,1.3,1.4,1.3C129.4,172.1,130,171.7,130.8,171z"/>
					<path class="st2" d="M134.8,171.4v-10.3h1.4v10.4c0,0.4,0.2,0.6,0.4,0.6c0.1,0,0.1,0,0.3,0l0.2,1c-0.2,0.1-0.4,0.1-0.8,0.1
						C135.2,173.2,134.8,172.5,134.8,171.4z"/>
					<path class="st2" d="M139.1,171.4v-10.3h1.4v10.4c0,0.4,0.2,0.6,0.4,0.6c0.1,0,0.1,0,0.3,0l0.2,1c-0.2,0.1-0.4,0.1-0.8,0.1
						C139.5,173.2,139.1,172.5,139.1,171.4z"/>
					<path class="st2" d="M142.5,176.3l0.3-1.1c0.2,0.1,0.4,0.1,0.6,0.1c0.9,0,1.5-0.8,1.8-1.8l0.2-0.6l-3.3-8.2h1.4l1.7,4.5
						c0.2,0.7,0.5,1.5,0.8,2.3h0.1c0.2-0.7,0.5-1.6,0.7-2.3l1.5-4.5h1.3l-3.1,8.8c-0.6,1.6-1.4,2.8-3,2.8
						C143.1,176.5,142.8,176.5,142.5,176.3z"/>
					<path class="st2" d="M153.6,172.1l0.7-0.9c0.7,0.6,1.4,1,2.4,1c1.1,0,1.6-0.6,1.6-1.3c0-0.8-1-1.2-1.9-1.5
						c-1.1-0.4-2.4-1-2.4-2.4c0-1.3,1-2.3,2.8-2.3c1,0,1.9,0.4,2.5,0.9l-0.7,0.9c-0.6-0.4-1.1-0.7-1.9-0.7c-1,0-1.5,0.5-1.5,1.2
						c0,0.8,0.9,1.1,1.8,1.4c1.2,0.4,2.5,0.9,2.5,2.5c0,1.3-1.1,2.4-3,2.4C155.5,173.2,154.4,172.7,153.6,172.1z"/>
					<path class="st2" d="M161.4,170v-5.2h1.4v5c0,1.5,0.4,2.2,1.5,2.2c0.8,0,1.4-0.4,2.2-1.4v-5.8h1.4v8.1h-1.1l-0.1-1.3h0
						c-0.8,0.9-1.6,1.5-2.7,1.5C162.2,173.2,161.4,172.1,161.4,170z"/>
					<path class="st2" d="M169.7,172.1l0.7-0.9c0.7,0.6,1.4,1,2.4,1c1.1,0,1.6-0.6,1.6-1.3c0-0.8-1-1.2-1.9-1.5
						c-1.1-0.4-2.4-1-2.4-2.4c0-1.3,1-2.3,2.8-2.3c1,0,1.9,0.4,2.5,0.9l-0.7,0.9c-0.6-0.4-1.1-0.7-1.9-0.7c-1,0-1.5,0.5-1.5,1.2
						c0,0.8,0.9,1.1,1.8,1.4c1.2,0.4,2.5,0.9,2.5,2.5c0,1.3-1,2.4-3,2.4C171.6,173.2,170.5,172.7,169.7,172.1z"/>
					<path class="st2" d="M177.6,170.5V166h-1.2v-1l1.3-0.1l0.2-2.3h1.1v2.3h2.2v1.1h-2.2v4.5c0,1,0.3,1.6,1.3,1.6
						c0.3,0,0.7-0.1,0.9-0.2l0.3,1c-0.5,0.2-1,0.3-1.5,0.3C178.2,173.2,177.6,172.1,177.6,170.5z"/>
					<path class="st2" d="M182.1,170.9c0-1.8,1.5-2.7,5-3c0-1-0.3-2.1-1.7-2.1c-0.9,0-1.8,0.4-2.4,0.9l-0.5-0.9
						c0.8-0.5,1.9-1.1,3.2-1.1c2,0,2.8,1.3,2.8,3.3v5h-1.1l-0.1-1h0c-0.8,0.6-1.7,1.2-2.7,1.2C183.1,173.2,182.1,172.4,182.1,170.9z
						 M187.1,171v-2.3c-2.7,0.3-3.7,1-3.7,2.1c0,0.9,0.6,1.3,1.4,1.3C185.7,172.1,186.3,171.7,187.1,171z"/>
					<path class="st2" d="M190.8,162.3c0-0.6,0.4-0.9,0.9-0.9c0.5,0,0.9,0.3,0.9,0.9c0,0.5-0.4,0.9-0.9,0.9
						C191.2,163.2,190.8,162.8,190.8,162.3z M191.1,164.9h1.4v8.1h-1.4V164.9z"/>
					<path class="st2" d="M195.2,164.9h1.1l0.1,1.2h0c0.8-0.8,1.6-1.4,2.7-1.4c1.7,0,2.5,1.1,2.5,3.2v5.2h-1.4v-5
						c0-1.5-0.5-2.2-1.5-2.2c-0.8,0-1.4,0.4-2.2,1.2v5.9h-1.4V164.9z"/>
					<path class="st2" d="M203.9,170.9c0-1.8,1.5-2.7,5-3c0-1-0.3-2.1-1.7-2.1c-0.9,0-1.8,0.4-2.4,0.9l-0.5-0.9
						c0.8-0.5,1.9-1.1,3.2-1.1c2,0,2.8,1.3,2.8,3.3v5h-1.1l-0.1-1h0c-0.8,0.6-1.7,1.2-2.7,1.2C204.9,173.2,203.9,172.4,203.9,170.9z
						 M208.9,171v-2.3c-2.7,0.3-3.7,1-3.7,2.1c0,0.9,0.6,1.3,1.4,1.3C207.4,172.1,208.1,171.7,208.9,171z"/>
					<path class="st2" d="M214.1,172.2L214.1,172.2l-0.2,0.8h-1.1v-11.9h1.4v3.3l0,1.5c0.7-0.6,1.7-1.2,2.6-1.2
						c2.1,0,3.3,1.6,3.3,4.1c0,2.8-1.7,4.4-3.5,4.4C215.7,173.2,214.8,172.8,214.1,172.2z M218.5,168.8c0-1.8-0.6-3-2.1-3
						c-0.7,0-1.4,0.4-2.2,1.1v4.3c0.7,0.6,1.5,0.9,2,0.9C217.5,172.1,218.5,170.8,218.5,168.8z"/>
					<path class="st2" d="M222.1,171.4v-10.3h1.4v10.4c0,0.4,0.2,0.6,0.4,0.6c0.1,0,0.1,0,0.3,0l0.2,1c-0.2,0.1-0.4,0.1-0.8,0.1
						C222.5,173.2,222.1,172.5,222.1,171.4z"/>
					<path class="st2" d="M225.8,168.9c0-2.6,1.8-4.3,3.7-4.3c2.1,0,3.2,1.5,3.2,3.8c0,0.3,0,0.6-0.1,0.8h-5.5
						c0.1,1.7,1.2,2.8,2.7,2.8c0.8,0,1.4-0.2,2-0.6l0.5,0.9c-0.7,0.5-1.6,0.8-2.7,0.8C227.5,173.2,225.8,171.6,225.8,168.9z
						 M231.5,168.3c0-1.7-0.8-2.5-2-2.5c-1.2,0-2.2,0.9-2.3,2.5H231.5z"/>
					<path class="st2" d="M239.3,172.2L239.3,172.2l-0.2,0.8H238v-11.9h1.4v3.3l0,1.5c0.7-0.6,1.7-1.2,2.6-1.2
						c2.1,0,3.3,1.6,3.3,4.1c0,2.8-1.7,4.4-3.5,4.4C240.9,173.2,240,172.8,239.3,172.2z M243.7,168.8c0-1.8-0.6-3-2.1-3
						c-0.7,0-1.4,0.4-2.2,1.1v4.3c0.7,0.6,1.5,0.9,2,0.9C242.8,172.1,243.7,170.8,243.7,168.8z"/>
					<path class="st2" d="M246.7,168.9c0-2.7,1.8-4.3,3.8-4.3c2,0,3.8,1.6,3.8,4.3c0,2.7-1.8,4.3-3.8,4.3
						C248.5,173.2,246.7,171.6,246.7,168.9z M252.9,168.9c0-1.9-1-3.2-2.4-3.2c-1.4,0-2.4,1.3-2.4,3.2s0.9,3.1,2.4,3.1
						C251.9,172.1,252.9,170.8,252.9,168.9z"/>
					<path class="st2" d="M256.4,170.5V166h-1.2v-1l1.3-0.1l0.2-2.3h1.1v2.3h2.2v1.1h-2.2v4.5c0,1,0.3,1.6,1.3,1.6
						c0.3,0,0.7-0.1,0.9-0.2l0.3,1c-0.5,0.2-1,0.3-1.5,0.3C256.9,173.2,256.4,172.1,256.4,170.5z"/>
					<path class="st2" d="M260.9,170.9c0-1.8,1.5-2.7,5-3c0-1-0.3-2.1-1.7-2.1c-0.9,0-1.8,0.4-2.4,0.9l-0.5-0.9
						c0.8-0.5,1.9-1.1,3.2-1.1c2,0,2.8,1.3,2.8,3.3v5h-1.1l-0.1-1h0c-0.8,0.6-1.7,1.2-2.7,1.2C261.9,173.2,260.9,172.4,260.9,170.9z
						 M265.9,171v-2.3c-2.7,0.3-3.7,1-3.7,2.1c0,0.9,0.6,1.3,1.4,1.3C264.5,172.1,265.1,171.7,265.9,171z"/>
					<path class="st2" d="M269.9,164.9h1.1l0.1,1.2h0c0.8-0.8,1.6-1.4,2.7-1.4c1.7,0,2.5,1.1,2.5,3.2v5.2H275v-5
						c0-1.5-0.5-2.2-1.5-2.2c-0.8,0-1.4,0.4-2.2,1.2v5.9h-1.4V164.9z"/>
					<path class="st2" d="M278.8,162.3c0-0.6,0.4-0.9,0.9-0.9c0.5,0,0.9,0.3,0.9,0.9c0,0.5-0.4,0.9-0.9,0.9
						C279.2,163.2,278.8,162.8,278.8,162.3z M279,164.9h1.4v8.1H279V164.9z"/>
					<path class="st2" d="M282.6,168.9c0-2.7,1.8-4.3,3.9-4.3c1.1,0,1.8,0.5,2.4,1l-0.7,0.9c-0.5-0.4-1-0.7-1.6-0.7
						c-1.5,0-2.6,1.3-2.6,3.2s1,3.1,2.5,3.1c0.8,0,1.4-0.3,1.9-0.8l0.6,0.9c-0.7,0.7-1.7,1-2.6,1
						C284.2,173.2,282.6,171.6,282.6,168.9z"/>
					<path class="st2" d="M290.1,170.9c0-1.8,1.5-2.7,5-3c0-1-0.3-2.1-1.7-2.1c-0.9,0-1.8,0.4-2.4,0.9l-0.5-0.9
						c0.8-0.5,1.9-1.1,3.2-1.1c2,0,2.8,1.3,2.8,3.3v5h-1.1l-0.1-1h0c-0.8,0.6-1.7,1.2-2.7,1.2C291.1,173.2,290.1,172.4,290.1,170.9z
						 M295.1,171v-2.3c-2.7,0.3-3.7,1-3.7,2.1c0,0.9,0.6,1.3,1.4,1.3C293.7,172.1,294.3,171.7,295.1,171z"/>
					<path class="st2" d="M299.1,171.4v-10.3h1.4v10.4c0,0.4,0.2,0.6,0.4,0.6c0.1,0,0.1,0,0.3,0l0.2,1c-0.2,0.1-0.4,0.1-0.8,0.1
						C299.5,173.2,299.1,172.5,299.1,171.4z"/>
				</g>
				<g class="st1">
					<path class="st2" d="M30.5,207.1l0.7-0.9c0.7,0.6,1.4,1,2.4,1c1.1,0,1.6-0.6,1.6-1.3c0-0.8-1-1.2-1.9-1.5
						c-1.1-0.4-2.4-1-2.4-2.4c0-1.3,1-2.3,2.8-2.3c1,0,1.9,0.4,2.5,0.9l-0.7,0.9c-0.6-0.4-1.1-0.7-1.9-0.7c-1,0-1.5,0.5-1.5,1.2
						c0,0.8,0.9,1.1,1.8,1.4c1.2,0.4,2.5,0.9,2.5,2.5c0,1.3-1,2.4-3,2.4C32.4,208.2,31.2,207.7,30.5,207.1z"/>
					<path class="st2" d="M37.8,203.9c0-2.7,1.8-4.3,3.8-4.3c2,0,3.8,1.6,3.8,4.3c0,2.7-1.8,4.3-3.8,4.3
						C39.6,208.2,37.8,206.6,37.8,203.9z M43.9,203.9c0-1.9-1-3.2-2.4-3.2c-1.4,0-2.4,1.3-2.4,3.2s0.9,3.1,2.4,3.1
						C43,207.1,43.9,205.8,43.9,203.9z"/>
					<path class="st2" d="M47.4,205v-5.2h1.4v5c0,1.5,0.5,2.2,1.5,2.2c0.8,0,1.4-0.4,2.2-1.4v-5.8h1.4v8.1h-1.1l-0.1-1.3h0
						c-0.8,0.9-1.6,1.5-2.7,1.5C48.1,208.2,47.4,207.1,47.4,205z"/>
					<path class="st2" d="M56.6,199.9h1.1l0.1,1.5h0c0.6-1,1.4-1.7,2.3-1.7c0.4,0,0.6,0,0.9,0.2l-0.3,1.2c-0.3-0.1-0.5-0.1-0.8-0.1
						c-0.7,0-1.5,0.5-2.1,1.9v5.2h-1.4V199.9z"/>
					<path class="st2" d="M61.6,203.9c0-2.7,1.8-4.3,3.9-4.3c1.1,0,1.8,0.5,2.4,1l-0.7,0.9c-0.5-0.4-1-0.7-1.6-0.7
						c-1.5,0-2.5,1.3-2.5,3.2s1,3.1,2.5,3.1c0.8,0,1.4-0.3,1.9-0.8l0.6,0.9c-0.7,0.7-1.6,1-2.6,1C63.3,208.2,61.6,206.6,61.6,203.9z
						"/>
					<path class="st2" d="M68.9,203.9c0-2.6,1.8-4.3,3.7-4.3c2.1,0,3.2,1.5,3.2,3.8c0,0.3,0,0.6-0.1,0.8h-5.5
						c0.1,1.7,1.2,2.8,2.7,2.8c0.8,0,1.4-0.2,2-0.6l0.5,0.9c-0.7,0.5-1.6,0.8-2.7,0.8C70.6,208.2,68.9,206.6,68.9,203.9z
						 M74.6,203.3c0-1.7-0.7-2.5-2-2.5c-1.2,0-2.2,0.9-2.3,2.5H74.6z"/>
					<path class="st2" d="M76.9,207.1l0.7-0.9c0.7,0.6,1.4,1,2.4,1c1.1,0,1.6-0.6,1.6-1.3c0-0.8-1-1.2-1.9-1.5
						c-1.1-0.4-2.4-1-2.4-2.4c0-1.3,1-2.3,2.8-2.3c1,0,1.9,0.4,2.5,0.9l-0.7,0.9c-0.6-0.4-1.1-0.7-1.9-0.7c-1,0-1.5,0.5-1.5,1.2
						c0,0.8,0.9,1.1,1.8,1.4c1.2,0.4,2.5,0.9,2.5,2.5c0,1.3-1,2.4-3,2.4C78.8,208.2,77.7,207.7,76.9,207.1z"/>
				</g>
				<text transform="matrix(1 0 0 1 83.4741 208)" class="st2 st5 st4"> </text>
				<g class="st1">
					<path class="st2" d="M30.7,273.3h3.8v1h-3.8V273.3z"/>
					<path class="st2" d="M38.6,267H40l1.8,6c0.4,1.3,0.6,2.3,1.1,3.6h0.1c0.4-1.3,0.7-2.3,1.1-3.6l1.8-6h1.4l-3.5,11h-1.6L38.6,267
						z"/>
					<path class="st2" d="M47.7,273.9c0-2.6,1.8-4.3,3.7-4.3c2.1,0,3.2,1.5,3.2,3.8c0,0.3,0,0.6-0.1,0.8h-5.5
						c0.1,1.7,1.2,2.8,2.7,2.8c0.8,0,1.4-0.2,2-0.6l0.5,0.9c-0.7,0.5-1.6,0.8-2.7,0.8C49.4,278.2,47.7,276.6,47.7,273.9z
						 M53.4,273.3c0-1.7-0.7-2.5-2-2.5c-1.2,0-2.2,0.9-2.3,2.5H53.4z"/>
					<path class="st2" d="M56.6,269.9h1.1l0.1,1.5h0c0.6-1,1.4-1.7,2.3-1.7c0.4,0,0.6,0,0.9,0.2l-0.3,1.2c-0.3-0.1-0.5-0.1-0.8-0.1
						c-0.7,0-1.5,0.5-2.1,1.9v5.2h-1.4V269.9z"/>
					<path class="st2" d="M62.2,267.3c0-0.6,0.4-0.9,0.9-0.9s0.9,0.3,0.9,0.9c0,0.5-0.4,0.9-0.9,0.9S62.2,267.8,62.2,267.3z
						 M62.4,269.9h1.4v8.1h-1.4V269.9z"/>
					<path class="st2" d="M70.2,267.2c-0.3-0.1-0.6-0.2-0.9-0.2c-0.8,0-1.2,0.6-1.2,1.6v1.3h1.7v1.1h-1.7v7h-1.4v-7h-1.1v-1l1.1-0.1
						v-1.3c0-1.7,0.8-2.7,2.4-2.7c0.5,0,1,0.1,1.4,0.3L70.2,267.2z"/>
					<path class="st2" d="M70.6,281.3l0.3-1.1c0.2,0.1,0.4,0.1,0.6,0.1c0.9,0,1.5-0.8,1.8-1.8l0.2-0.6l-3.3-8.2h1.4l1.7,4.5
						c0.2,0.7,0.5,1.5,0.8,2.3h0.1c0.2-0.7,0.5-1.6,0.7-2.3l1.5-4.5h1.3l-3.1,8.8c-0.6,1.6-1.4,2.8-3,2.8
						C71.2,281.5,70.9,281.5,70.6,281.3z"/>
					<path class="st2" d="M82,273.9c0-2.6,1.8-4.3,3.7-4.3c2.1,0,3.2,1.5,3.2,3.8c0,0.3,0,0.6-0.1,0.8h-5.5c0.1,1.7,1.2,2.8,2.7,2.8
						c0.8,0,1.4-0.2,2-0.6l0.5,0.9c-0.7,0.5-1.6,0.8-2.7,0.8C83.7,278.2,82,276.6,82,273.9z M87.7,273.3c0-1.7-0.7-2.5-2-2.5
						c-1.2,0-2.2,0.9-2.3,2.5H87.7z"/>
					<path class="st2" d="M99.4,267.2c-0.3-0.1-0.6-0.2-0.9-0.2c-0.8,0-1.2,0.6-1.2,1.6v1.3H99v1.1h-1.7v7h-1.4v-7h-3.4v7h-1.4v-7
						H90v-1l1.1-0.1v-1.1c0-1.7,0.8-2.7,2.5-2.7c0.5,0,1.1,0.1,1.5,0.3l-0.3,1c-0.4-0.2-0.7-0.2-1.1-0.2c-0.8,0-1.3,0.6-1.3,1.7v1
						h3.4v-1.3c0-1.7,0.8-2.7,2.4-2.7c0.5,0,1,0.1,1.3,0.3L99.4,267.2z"/>
					<path class="st2" d="M99.8,273.9c0-2.6,1.8-4.3,3.7-4.3c2.1,0,3.2,1.5,3.2,3.8c0,0.3,0,0.6-0.1,0.8h-5.5
						c0.1,1.7,1.2,2.8,2.7,2.8c0.8,0,1.4-0.2,2-0.6l0.5,0.9c-0.7,0.5-1.6,0.8-2.7,0.8C101.5,278.2,99.8,276.6,99.8,273.9z
						 M105.5,273.3c0-1.7-0.8-2.5-2-2.5c-1.2,0-2.2,0.9-2.3,2.5H105.5z"/>
					<path class="st2" d="M108.1,273.9c0-2.7,1.8-4.3,3.9-4.3c1.1,0,1.8,0.5,2.4,1l-0.7,0.9c-0.5-0.4-1-0.7-1.6-0.7
						c-1.5,0-2.5,1.3-2.5,3.2s1,3.1,2.5,3.1c0.8,0,1.4-0.3,1.9-0.8l0.6,0.9c-0.7,0.7-1.6,1-2.6,1
						C109.8,278.2,108.1,276.6,108.1,273.9z"/>
					<path class="st2" d="M116.4,275.5V271h-1.2v-1l1.3-0.1l0.2-2.3h1.1v2.3h2.2v1.1h-2.2v4.5c0,1,0.3,1.6,1.3,1.6
						c0.3,0,0.7-0.1,0.9-0.2l0.3,1c-0.5,0.2-1,0.3-1.5,0.3C117,278.2,116.4,277.1,116.4,275.5z"/>
					<path class="st2" d="M120.8,277.1l0.7-0.9c0.7,0.6,1.4,1,2.4,1c1.1,0,1.6-0.6,1.6-1.3c0-0.8-1-1.2-1.9-1.5
						c-1.1-0.4-2.4-1-2.4-2.4c0-1.3,1-2.3,2.8-2.3c1,0,1.9,0.4,2.5,0.9l-0.7,0.9c-0.6-0.4-1.1-0.7-1.9-0.7c-1,0-1.5,0.5-1.5,1.2
						c0,0.8,0.9,1.1,1.8,1.4c1.2,0.4,2.5,0.9,2.5,2.5c0,1.3-1,2.4-3,2.4C122.7,278.2,121.5,277.7,120.8,277.1z"/>
					<path class="st2" d="M131.1,269.9h1.4l1.2,4.7c0.2,0.8,0.3,1.5,0.5,2.3h0.1c0.2-0.8,0.3-1.5,0.6-2.3l1.3-4.7h1.3l1.3,4.7
						c0.2,0.8,0.4,1.5,0.6,2.3h0.1c0.2-0.8,0.3-1.5,0.5-2.3l1.2-4.7h1.3l-2.2,8.1h-1.6l-1.2-4.4c-0.2-0.8-0.4-1.5-0.6-2.3h-0.1
						c-0.2,0.8-0.3,1.6-0.6,2.4L135,278h-1.6L131.1,269.9z"/>
					<path class="st2" d="M143.8,267.3c0-0.6,0.4-0.9,0.9-0.9s0.9,0.3,0.9,0.9c0,0.5-0.4,0.9-0.9,0.9S143.8,267.8,143.8,267.3z
						 M144.1,269.9h1.4v8.1h-1.4V269.9z"/>
					<path class="st2" d="M148.5,275.5V271h-1.2v-1l1.3-0.1l0.2-2.3h1.1v2.3h2.2v1.1h-2.2v4.5c0,1,0.3,1.6,1.3,1.6
						c0.3,0,0.7-0.1,0.9-0.2l0.3,1c-0.5,0.2-1,0.3-1.5,0.3C149,278.2,148.5,277.1,148.5,275.5z"/>
					<path class="st2" d="M153.9,266.1h1.4v3.3l0,1.7c0.8-0.8,1.6-1.4,2.7-1.4c1.7,0,2.5,1.1,2.5,3.2v5.2H159v-5
						c0-1.5-0.5-2.2-1.5-2.2c-0.8,0-1.4,0.4-2.2,1.2v5.9h-1.4V266.1z"/>
					<path class="st2" d="M165.7,273.9c0-2.7,1.8-4.3,3.9-4.3c1.1,0,1.8,0.5,2.4,1l-0.7,0.9c-0.5-0.4-1-0.7-1.6-0.7
						c-1.5,0-2.6,1.3-2.6,3.2s1,3.1,2.5,3.1c0.8,0,1.4-0.3,1.9-0.8l0.6,0.9c-0.7,0.7-1.7,1-2.6,1
						C167.4,278.2,165.7,276.6,165.7,273.9z"/>
					<path class="st2" d="M173,273.9c0-2.6,1.8-4.3,3.7-4.3c2.1,0,3.2,1.5,3.2,3.8c0,0.3,0,0.6-0.1,0.8h-5.5
						c0.1,1.7,1.2,2.8,2.7,2.8c0.8,0,1.4-0.2,2-0.6l0.5,0.9c-0.7,0.5-1.6,0.8-2.7,0.8C174.7,278.2,173,276.6,173,273.9z
						 M178.7,273.3c0-1.7-0.7-2.5-2-2.5c-1.2,0-2.2,0.9-2.3,2.5H178.7z"/>
					<path class="st2" d="M181.9,276.4v-10.3h1.4v10.4c0,0.4,0.2,0.6,0.4,0.6c0.1,0,0.1,0,0.3,0l0.2,1c-0.2,0.1-0.4,0.1-0.8,0.1
						C182.3,278.2,181.9,277.5,181.9,276.4z"/>
					<path class="st2" d="M186.2,276.4v-10.3h1.4v10.4c0,0.4,0.2,0.6,0.4,0.6c0.1,0,0.1,0,0.3,0l0.2,1c-0.2,0.1-0.4,0.1-0.8,0.1
						C186.6,278.2,186.2,277.5,186.2,276.4z"/>
					<path class="st2" d="M193.8,266.1h1l-4.5,14.6h-1L193.8,266.1z"/>
					<path class="st2" d="M195.4,275.9c0-1.8,1.5-2.7,5-3c0-1-0.3-2.1-1.7-2.1c-0.9,0-1.8,0.4-2.4,0.9l-0.5-0.9
						c0.8-0.5,1.9-1.1,3.2-1.1c2,0,2.8,1.3,2.8,3.3v5h-1.1l-0.1-1h0c-0.8,0.6-1.7,1.2-2.7,1.2C196.5,278.2,195.4,277.4,195.4,275.9z
						 M200.4,276v-2.3c-2.7,0.3-3.7,1-3.7,2.1c0,0.9,0.6,1.3,1.4,1.3C199,277.1,199.6,276.7,200.4,276z"/>
					<path class="st2" d="M204.4,269.9h1.1l0.1,1.5h0c0.6-1,1.4-1.7,2.3-1.7c0.4,0,0.6,0,0.9,0.2l-0.3,1.2c-0.3-0.1-0.5-0.1-0.8-0.1
						c-0.7,0-1.5,0.5-2.1,1.9v5.2h-1.4V269.9z"/>
					<path class="st2" d="M210.5,275.5V271h-1.2v-1l1.3-0.1l0.2-2.3h1.1v2.3h2.2v1.1h-2.2v4.5c0,1,0.3,1.6,1.3,1.6
						c0.3,0,0.7-0.1,0.9-0.2l0.3,1c-0.5,0.2-1,0.3-1.5,0.3C211,278.2,210.5,277.1,210.5,275.5z"/>
					<path class="st2" d="M215.6,267.3c0-0.6,0.4-0.9,0.9-0.9s0.9,0.3,0.9,0.9c0,0.5-0.4,0.9-0.9,0.9S215.6,267.8,215.6,267.3z
						 M215.9,269.9h1.4v8.1h-1.4V269.9z"/>
					<path class="st2" d="M220.2,268.6c0-1.7,0.8-2.7,2.4-2.7c0.5,0,1,0.1,1.4,0.3l-0.3,1c-0.3-0.1-0.6-0.2-0.9-0.2
						c-0.8,0-1.2,0.6-1.2,1.6v1.3h1.7v1.1h-1.7v7h-1.4v-7h-1.1v-1l1.1-0.1V268.6z M226.8,267.3c0,0.5-0.4,0.9-1,0.9
						c-0.5,0-0.9-0.4-0.9-0.9c0-0.6,0.4-0.9,0.9-0.9C226.4,266.4,226.8,266.7,226.8,267.3z M225.2,269.9h1.4v8.1h-1.4V269.9z"/>
					<path class="st2" d="M228.7,273.9c0-2.7,1.8-4.3,3.9-4.3c1.1,0,1.8,0.5,2.4,1l-0.7,0.9c-0.5-0.4-1-0.7-1.6-0.7
						c-1.5,0-2.5,1.3-2.5,3.2s1,3.1,2.5,3.1c0.8,0,1.4-0.3,1.9-0.8l0.6,0.9c-0.7,0.7-1.6,1-2.6,1
						C230.4,278.2,228.7,276.6,228.7,273.9z"/>
					<path class="st2" d="M236.7,267.3c0-0.6,0.4-0.9,0.9-0.9s0.9,0.3,0.9,0.9c0,0.5-0.4,0.9-0.9,0.9S236.7,267.8,236.7,267.3z
						 M236.9,269.9h1.4v8.1h-1.4V269.9z"/>
					<path class="st2" d="M240.6,275.9c0-1.8,1.5-2.7,5-3c0-1-0.3-2.1-1.7-2.1c-0.9,0-1.8,0.4-2.4,0.9l-0.5-0.9
						c0.8-0.5,1.9-1.1,3.2-1.1c2,0,2.8,1.3,2.8,3.3v5h-1.1l-0.1-1h0c-0.8,0.6-1.7,1.2-2.7,1.2C241.6,278.2,240.6,277.4,240.6,275.9z
						 M245.6,276v-2.3c-2.7,0.3-3.7,1-3.7,2.1c0,0.9,0.6,1.3,1.4,1.3C244.1,277.1,244.8,276.7,245.6,276z"/>
					<path class="st2" d="M249.5,276.4v-10.3h1.4v10.4c0,0.4,0.2,0.6,0.4,0.6c0.1,0,0.1,0,0.3,0l0.2,1c-0.2,0.1-0.4,0.1-0.8,0.1
						C249.9,278.2,249.5,277.5,249.5,276.4z"/>
					<path class="st2" d="M256.2,277.1l0.7-0.9c0.7,0.6,1.4,1,2.4,1c1.1,0,1.6-0.6,1.6-1.3c0-0.8-1-1.2-1.9-1.5
						c-1.1-0.4-2.4-1-2.4-2.4c0-1.3,1-2.3,2.8-2.3c1,0,1.9,0.4,2.5,0.9l-0.7,0.9c-0.6-0.4-1.1-0.7-1.9-0.7c-1,0-1.5,0.5-1.5,1.2
						c0,0.8,0.9,1.1,1.8,1.4c1.2,0.4,2.5,0.9,2.5,2.5c0,1.3-1,2.4-3,2.4C258.1,278.2,257,277.7,256.2,277.1z"/>
					<path class="st2" d="M264.2,266.1h1.4v8.1h0l3.5-4.3h1.5l-2.7,3.3l3.1,4.9h-1.5l-2.4-3.9l-1.5,1.8v2.1h-1.4V266.1z"/>
					<path class="st2" d="M272.2,267.3c0-0.6,0.4-0.9,0.9-0.9s0.9,0.3,0.9,0.9c0,0.5-0.4,0.9-0.9,0.9S272.2,267.8,272.2,267.3z
						 M272.5,269.9h1.4v8.1h-1.4V269.9z"/>
					<path class="st2" d="M276.6,269.9h1.1l0.1,1.2h0c0.8-0.8,1.6-1.4,2.7-1.4c1.7,0,2.5,1.1,2.5,3.2v5.2h-1.4v-5
						c0-1.5-0.5-2.2-1.5-2.2c-0.8,0-1.4,0.4-2.2,1.2v5.9h-1.4V269.9z"/>
				</g>
				<g class="st1">
					<path class="st2" d="M31.6,310.5V306h-1.2v-1l1.3-0.1l0.2-2.3H33v2.3h2.2v1.1H33v4.5c0,1,0.3,1.6,1.3,1.6
						c0.3,0,0.7-0.1,0.9-0.2l0.3,1c-0.5,0.2-1,0.3-1.5,0.3C32.2,313.2,31.6,312.1,31.6,310.5z"/>
					<path class="st2" d="M36.2,308.9c0-2.6,1.8-4.3,3.7-4.3c2.1,0,3.2,1.5,3.2,3.8c0,0.3,0,0.6-0.1,0.8h-5.5
						c0.1,1.7,1.2,2.8,2.7,2.8c0.8,0,1.4-0.2,2-0.6l0.5,0.9c-0.7,0.5-1.6,0.8-2.7,0.8C37.9,313.2,36.2,311.6,36.2,308.9z
						 M41.9,308.3c0-1.7-0.8-2.5-2-2.5c-1.2,0-2.2,0.9-2.3,2.5H41.9z"/>
					<path class="st2" d="M44.2,312.1l0.7-0.9c0.7,0.6,1.4,1,2.4,1c1.1,0,1.6-0.6,1.6-1.3c0-0.8-1-1.2-1.9-1.5
						c-1.1-0.4-2.4-1-2.4-2.4c0-1.3,1-2.3,2.8-2.3c1,0,1.9,0.4,2.5,0.9l-0.7,0.9c-0.6-0.4-1.1-0.7-1.9-0.7c-1,0-1.5,0.5-1.5,1.2
						c0,0.8,0.9,1.1,1.8,1.4c1.2,0.4,2.5,0.9,2.5,2.5c0,1.3-1.1,2.4-3,2.4C46.1,313.2,45,312.7,44.2,312.1z"/>
					<path class="st2" d="M52,310.5V306h-1.2v-1l1.3-0.1l0.2-2.3h1.1v2.3h2.2v1.1h-2.2v4.5c0,1,0.3,1.6,1.3,1.6
						c0.3,0,0.7-0.1,0.9-0.2l0.3,1c-0.5,0.2-1,0.3-1.5,0.3C52.6,313.2,52,312.1,52,310.5z"/>
					<path class="st2" d="M56.4,312.1l0.7-0.9c0.7,0.6,1.4,1,2.4,1c1.1,0,1.6-0.6,1.6-1.3c0-0.8-1-1.2-1.9-1.5
						c-1.1-0.4-2.4-1-2.4-2.4c0-1.3,1-2.3,2.8-2.3c1,0,1.9,0.4,2.5,0.9l-0.7,0.9c-0.6-0.4-1.1-0.7-1.9-0.7c-1,0-1.5,0.5-1.5,1.2
						c0,0.8,0.9,1.1,1.8,1.4c1.2,0.4,2.5,0.9,2.5,2.5c0,1.3-1,2.4-3,2.4C58.3,313.2,57.2,312.7,56.4,312.1z"/>
					<path class="st2" d="M67.7,308.3c0-2.9,0.8-5.4,2.2-7.6l0.9,0.4c-1.3,2.1-1.9,4.7-1.9,7.2s0.6,5.1,1.9,7.2l-0.9,0.4
						C68.5,313.7,67.7,311.3,67.7,308.3z"/>
					<path class="st2" d="M72.7,304.9h1.1l0.1,1.5h0c0.6-1,1.4-1.7,2.3-1.7c0.4,0,0.6,0,0.9,0.2L77,306c-0.3-0.1-0.5-0.1-0.8-0.1
						c-0.7,0-1.5,0.5-2.1,1.9v5.2h-1.4V304.9z"/>
					<path class="st2" d="M77.8,308.9c0-2.6,1.8-4.3,3.7-4.3c2.1,0,3.2,1.5,3.2,3.8c0,0.3,0,0.6-0.1,0.8h-5.5
						c0.1,1.7,1.2,2.8,2.7,2.8c0.8,0,1.4-0.2,2-0.6l0.5,0.9c-0.7,0.5-1.6,0.8-2.7,0.8C79.5,313.2,77.8,311.6,77.8,308.9z
						 M83.5,308.3c0-1.7-0.8-2.5-2-2.5c-1.2,0-2.2,0.9-2.3,2.5H83.5z"/>
					<path class="st2" d="M90.4,302.2c-0.3-0.1-0.6-0.2-0.9-0.2c-0.8,0-1.2,0.6-1.2,1.6v1.3H90v1.1h-1.7v7h-1.4v-7h-1.1v-1l1.1-0.1
						v-1.3c0-1.7,0.8-2.7,2.4-2.7c0.5,0,1,0.1,1.4,0.3L90.4,302.2z"/>
					<path class="st2" d="M91.6,304.9h1.1l0.1,1.5h0c0.6-1,1.4-1.7,2.3-1.7c0.4,0,0.6,0,0.9,0.2l-0.3,1.2c-0.3-0.1-0.5-0.1-0.8-0.1
						c-0.7,0-1.5,0.5-2.1,1.9v5.2h-1.4V304.9z"/>
					<path class="st2" d="M96.5,310.9c0-1.8,1.5-2.7,5-3c0-1-0.3-2.1-1.7-2.1c-0.9,0-1.8,0.4-2.4,0.9l-0.5-0.9
						c0.8-0.5,1.9-1.1,3.2-1.1c2,0,2.8,1.3,2.8,3.3v5h-1.1l-0.1-1h0c-0.8,0.6-1.7,1.2-2.7,1.2C97.5,313.2,96.5,312.4,96.5,310.9z
						 M101.5,311v-2.3c-2.7,0.3-3.7,1-3.7,2.1c0,0.9,0.6,1.3,1.4,1.3C100.1,312.1,100.7,311.7,101.5,311z"/>
					<path class="st2" d="M105.2,302.3c0-0.6,0.4-0.9,0.9-0.9s0.9,0.3,0.9,0.9c0,0.5-0.4,0.9-0.9,0.9S105.2,302.8,105.2,302.3z
						 M105.5,304.9h1.4v8.1h-1.4V304.9z"/>
					<path class="st2" d="M109.6,304.9h1.1l0.1,1.2h0c0.8-0.8,1.6-1.4,2.7-1.4c1.7,0,2.5,1.1,2.5,3.2v5.2h-1.4v-5
						c0-1.5-0.5-2.2-1.5-2.2c-0.8,0-1.4,0.4-2.2,1.2v5.9h-1.4V304.9z"/>
					<path class="st2" d="M125.8,302.2c-0.3-0.1-0.6-0.2-0.9-0.2c-0.8,0-1.2,0.6-1.2,1.6v1.3h1.7v1.1h-1.7v7h-1.4v-7h-1.1v-1
						l1.1-0.1v-1.3c0-1.7,0.8-2.7,2.4-2.7c0.5,0,1,0.1,1.4,0.3L125.8,302.2z"/>
					<path class="st2" d="M127,304.9h1.1l0.1,1.5h0c0.6-1,1.4-1.7,2.3-1.7c0.4,0,0.6,0,0.9,0.2l-0.3,1.2c-0.3-0.1-0.5-0.1-0.8-0.1
						c-0.7,0-1.5,0.5-2.1,1.9v5.2H127V304.9z"/>
					<path class="st2" d="M132,308.9c0-2.7,1.8-4.3,3.8-4.3c2,0,3.8,1.6,3.8,4.3c0,2.7-1.8,4.3-3.8,4.3
						C133.8,313.2,132,311.6,132,308.9z M138.2,308.9c0-1.9-1-3.2-2.4-3.2c-1.4,0-2.4,1.3-2.4,3.2s0.9,3.1,2.4,3.1
						C137.2,312.1,138.2,310.8,138.2,308.9z"/>
					<path class="st2" d="M141.7,304.9h1.1l0.1,1.2h0c0.7-0.8,1.6-1.4,2.5-1.4c1.2,0,1.9,0.6,2.2,1.6c0.8-0.9,1.7-1.6,2.7-1.6
						c1.7,0,2.5,1.1,2.5,3.2v5.2h-1.4v-5c0-1.5-0.5-2.2-1.5-2.2c-0.6,0-1.3,0.4-2.1,1.2v5.9h-1.4v-5c0-1.5-0.5-2.2-1.5-2.2
						c-0.6,0-1.3,0.4-2.1,1.2v5.9h-1.4V304.9z"/>
					<path class="st2" d="M158.9,310v-5.2h1.4v5c0,1.5,0.5,2.2,1.5,2.2c0.8,0,1.4-0.4,2.2-1.4v-5.8h1.4v8.1h-1.1l-0.1-1.3h0
						c-0.8,0.9-1.6,1.5-2.7,1.5C159.6,313.2,158.9,312.1,158.9,310z"/>
					<path class="st2" d="M168.1,304.9h1.1l0.1,1.2h0c0.8-0.8,1.6-1.4,2.7-1.4c1.7,0,2.5,1.1,2.5,3.2v5.2h-1.4v-5
						c0-1.5-0.5-2.2-1.5-2.2c-0.8,0-1.4,0.4-2.2,1.2v5.9h-1.4V304.9z"/>
					<path class="st2" d="M177.3,304.9h1.1l0.1,1.2h0c0.8-0.8,1.6-1.4,2.7-1.4c1.7,0,2.5,1.1,2.5,3.2v5.2h-1.4v-5
						c0-1.5-0.5-2.2-1.5-2.2c-0.8,0-1.4,0.4-2.2,1.2v5.9h-1.4V304.9z"/>
					<path class="st2" d="M185.8,308.9c0-2.6,1.8-4.3,3.7-4.3c2.1,0,3.2,1.5,3.2,3.8c0,0.3,0,0.6-0.1,0.8h-5.5
						c0.1,1.7,1.2,2.8,2.7,2.8c0.8,0,1.4-0.2,2-0.6l0.5,0.9c-0.7,0.5-1.6,0.8-2.7,0.8C187.5,313.2,185.8,311.6,185.8,308.9z
						 M191.5,308.3c0-1.7-0.8-2.5-2-2.5c-1.2,0-2.2,0.9-2.3,2.5H191.5z"/>
					<path class="st2" d="M194.1,308.9c0-2.7,1.8-4.3,3.9-4.3c1.1,0,1.8,0.5,2.4,1l-0.7,0.9c-0.5-0.4-1-0.7-1.6-0.7
						c-1.5,0-2.5,1.3-2.5,3.2s1,3.1,2.5,3.1c0.8,0,1.4-0.3,1.9-0.8l0.6,0.9c-0.7,0.7-1.6,1-2.6,1
						C195.8,313.2,194.1,311.6,194.1,308.9z"/>
					<path class="st2" d="M201.4,308.9c0-2.6,1.8-4.3,3.7-4.3c2.1,0,3.2,1.5,3.2,3.8c0,0.3,0,0.6-0.1,0.8h-5.5
						c0.1,1.7,1.2,2.8,2.7,2.8c0.8,0,1.4-0.2,2-0.6l0.5,0.9c-0.7,0.5-1.6,0.8-2.7,0.8C203.1,313.2,201.4,311.6,201.4,308.9z
						 M207.1,308.3c0-1.7-0.7-2.5-2-2.5c-1.2,0-2.2,0.9-2.3,2.5H207.1z"/>
					<path class="st2" d="M209.4,312.1l0.7-0.9c0.7,0.6,1.4,1,2.4,1c1.1,0,1.6-0.6,1.6-1.3c0-0.8-1-1.2-1.9-1.5
						c-1.1-0.4-2.4-1-2.4-2.4c0-1.3,1-2.3,2.8-2.3c1,0,1.9,0.4,2.5,0.9l-0.7,0.9c-0.6-0.4-1.1-0.7-1.9-0.7c-1,0-1.5,0.5-1.5,1.2
						c0,0.8,0.9,1.1,1.8,1.4c1.2,0.4,2.5,0.9,2.5,2.5c0,1.3-1,2.4-3,2.4C211.3,313.2,210.2,312.7,209.4,312.1z"/>
					<path class="st2" d="M216.4,312.1l0.7-0.9c0.7,0.6,1.4,1,2.4,1c1.1,0,1.6-0.6,1.6-1.3c0-0.8-1-1.2-1.9-1.5
						c-1.1-0.4-2.4-1-2.4-2.4c0-1.3,1-2.3,2.8-2.3c1,0,1.9,0.4,2.5,0.9l-0.7,0.9c-0.6-0.4-1.1-0.7-1.9-0.7c-1,0-1.5,0.5-1.5,1.2
						c0,0.8,0.9,1.1,1.8,1.4c1.2,0.4,2.5,0.9,2.5,2.5c0,1.3-1,2.4-3,2.4C218.3,313.2,217.2,312.7,216.4,312.1z"/>
					<path class="st2" d="M223.8,310.9c0-1.8,1.5-2.7,5-3c0-1-0.3-2.1-1.7-2.1c-0.9,0-1.8,0.4-2.4,0.9l-0.5-0.9
						c0.8-0.5,1.9-1.1,3.2-1.1c2,0,2.8,1.3,2.8,3.3v5h-1.1l-0.1-1h0c-0.8,0.6-1.7,1.2-2.7,1.2C224.9,313.2,223.8,312.4,223.8,310.9z
						 M228.9,311v-2.3c-2.7,0.3-3.7,1-3.7,2.1c0,0.9,0.6,1.3,1.4,1.3C227.4,312.1,228.1,311.7,228.9,311z"/>
					<path class="st2" d="M232.8,304.9h1.1l0.1,1.5h0c0.6-1,1.4-1.7,2.3-1.7c0.4,0,0.6,0,0.9,0.2L237,306c-0.3-0.1-0.5-0.1-0.8-0.1
						c-0.7,0-1.5,0.5-2.1,1.9v5.2h-1.4V304.9z"/>
					<path class="st2" d="M238.2,316.3l0.3-1.1c0.2,0.1,0.4,0.1,0.6,0.1c0.9,0,1.5-0.8,1.8-1.8l0.2-0.6l-3.3-8.2h1.4l1.7,4.5
						c0.2,0.7,0.5,1.5,0.8,2.3h0.1c0.2-0.7,0.5-1.6,0.7-2.3l1.5-4.5h1.3l-3.1,8.8c-0.6,1.6-1.4,2.8-3,2.8
						C238.8,316.5,238.5,316.5,238.2,316.3z"/>
					<path class="st2" d="M249.7,310.9c0-1.8,1.5-2.7,5-3c0-1-0.3-2.1-1.7-2.1c-0.9,0-1.8,0.4-2.4,0.9l-0.5-0.9
						c0.8-0.5,1.9-1.1,3.2-1.1c2,0,2.8,1.3,2.8,3.3v5H255l-0.1-1h0c-0.8,0.6-1.7,1.2-2.7,1.2C250.8,313.2,249.7,312.4,249.7,310.9z
						 M254.7,311v-2.3c-2.7,0.3-3.7,1-3.7,2.1c0,0.9,0.6,1.3,1.4,1.3C253.3,312.1,253.9,311.7,254.7,311z"/>
					<path class="st2" d="M258.7,304.9h1.1l0.1,1.2h0c0.8-0.8,1.6-1.4,2.7-1.4c1.7,0,2.5,1.1,2.5,3.2v5.2h-1.4v-5
						c0-1.5-0.5-2.2-1.5-2.2c-0.8,0-1.4,0.4-2.2,1.2v5.9h-1.4V304.9z"/>
					<path class="st2" d="M267.6,302.3c0-0.6,0.4-0.9,0.9-0.9s0.9,0.3,0.9,0.9c0,0.5-0.4,0.9-0.9,0.9S267.6,302.8,267.6,302.3z
						 M267.9,304.9h1.4v8.1h-1.4V304.9z"/>
					<path class="st2" d="M272,304.9h1.1l0.1,1.2h0c0.7-0.8,1.6-1.4,2.5-1.4c1.2,0,1.9,0.6,2.2,1.6c0.8-0.9,1.7-1.6,2.7-1.6
						c1.7,0,2.5,1.1,2.5,3.2v5.2h-1.4v-5c0-1.5-0.5-2.2-1.5-2.2c-0.6,0-1.3,0.4-2.1,1.2v5.9h-1.4v-5c0-1.5-0.5-2.2-1.5-2.2
						c-0.6,0-1.3,0.4-2.1,1.2v5.9H272V304.9z"/>
					<path class="st2" d="M285.4,310.9c0-1.8,1.5-2.7,5-3c0-1-0.3-2.1-1.7-2.1c-0.9,0-1.8,0.4-2.4,0.9l-0.5-0.9
						c0.8-0.5,1.9-1.1,3.2-1.1c2,0,2.8,1.3,2.8,3.3v5h-1.1l-0.1-1h0c-0.8,0.6-1.7,1.2-2.7,1.2C286.4,313.2,285.4,312.4,285.4,310.9z
						 M290.4,311v-2.3c-2.7,0.3-3.7,1-3.7,2.1c0,0.9,0.6,1.3,1.4,1.3C288.9,312.1,289.6,311.7,290.4,311z"/>
					<path class="st2" d="M294.3,311.4v-10.3h1.4v10.4c0,0.4,0.2,0.6,0.4,0.6c0.1,0,0.1,0,0.3,0l0.2,1c-0.2,0.1-0.4,0.1-0.8,0.1
						C294.8,313.2,294.3,312.5,294.3,311.4z"/>
				</g>
				<g class="st1">
					<path class="st2" d="M30.8,343.9c0-2.6,1.8-4.3,3.7-4.3c2.1,0,3.2,1.5,3.2,3.8c0,0.3,0,0.6-0.1,0.8h-5.5
						c0.1,1.7,1.2,2.8,2.7,2.8c0.8,0,1.4-0.2,2-0.6l0.5,0.9c-0.7,0.5-1.6,0.8-2.7,0.8C32.5,348.2,30.8,346.6,30.8,343.9z
						 M36.5,343.3c0-1.7-0.7-2.5-2-2.5c-1.2,0-2.2,0.9-2.3,2.5H36.5z"/>
					<path class="st2" d="M41.1,343.8l-2.5-3.9h1.5l1.1,1.8c0.3,0.5,0.5,0.9,0.8,1.3h0.1c0.3-0.4,0.5-0.9,0.7-1.3l1-1.8h1.4l-2.5,4
						l2.7,4.1h-1.5l-1.2-1.9c-0.3-0.5-0.6-1-0.9-1.5h-0.1c-0.3,0.5-0.6,1-0.8,1.5l-1.1,1.9h-1.4L41.1,343.8z"/>
					<path class="st2" d="M47,339.9h1.1l0.1,0.9h0c0.7-0.6,1.6-1.1,2.6-1.1c2.1,0,3.2,1.6,3.2,4.2c0,2.8-1.7,4.4-3.5,4.4
						c-0.7,0-1.5-0.3-2.2-0.9l0,1.4v2.8H47V339.9z M52.7,343.8c0-1.8-0.6-3-2.1-3c-0.7,0-1.4,0.4-2.2,1.1v4.3c0.7,0.6,1.5,0.9,2,0.9
						C51.7,347.1,52.7,345.8,52.7,343.8z"/>
					<path class="st2" d="M55.7,343.9c0-2.6,1.8-4.3,3.7-4.3c2.1,0,3.2,1.5,3.2,3.8c0,0.3,0,0.6-0.1,0.8h-5.5
						c0.1,1.7,1.2,2.8,2.7,2.8c0.8,0,1.4-0.2,2-0.6l0.5,0.9c-0.7,0.5-1.6,0.8-2.7,0.8C57.5,348.2,55.7,346.6,55.7,343.9z
						 M61.4,343.3c0-1.7-0.8-2.5-2-2.5c-1.2,0-2.2,0.9-2.3,2.5H61.4z"/>
					<path class="st2" d="M64.6,339.9h1.1l0.1,1.5h0c0.6-1,1.4-1.7,2.3-1.7c0.4,0,0.6,0,0.9,0.2l-0.3,1.2c-0.3-0.1-0.5-0.1-0.8-0.1
						c-0.7,0-1.5,0.5-2.1,1.9v5.2h-1.4V339.9z"/>
					<path class="st2" d="M70.2,337.3c0-0.6,0.4-0.9,0.9-0.9s0.9,0.3,0.9,0.9c0,0.5-0.4,0.9-0.9,0.9S70.2,337.8,70.2,337.3z
						 M70.5,339.9h1.4v8.1h-1.4V339.9z"/>
					<path class="st2" d="M74.6,339.9h1.1l0.1,1.2h0c0.7-0.8,1.6-1.4,2.5-1.4c1.2,0,1.9,0.6,2.2,1.6c0.8-0.9,1.7-1.6,2.7-1.6
						c1.7,0,2.5,1.1,2.5,3.2v5.2h-1.4v-5c0-1.5-0.5-2.2-1.5-2.2c-0.6,0-1.3,0.4-2.1,1.2v5.9h-1.4v-5c0-1.5-0.5-2.2-1.5-2.2
						c-0.6,0-1.3,0.4-2.1,1.2v5.9h-1.4V339.9z"/>
					<path class="st2" d="M87.9,343.9c0-2.6,1.8-4.3,3.7-4.3c2.1,0,3.2,1.5,3.2,3.8c0,0.3,0,0.6-0.1,0.8h-5.5
						c0.1,1.7,1.2,2.8,2.7,2.8c0.8,0,1.4-0.2,2-0.6l0.5,0.9c-0.7,0.5-1.6,0.8-2.7,0.8C89.6,348.2,87.9,346.6,87.9,343.9z
						 M93.6,343.3c0-1.7-0.8-2.5-2-2.5c-1.2,0-2.2,0.9-2.3,2.5H93.6z"/>
					<path class="st2" d="M96.8,339.9h1.1L98,341h0c0.8-0.8,1.6-1.4,2.7-1.4c1.7,0,2.5,1.1,2.5,3.2v5.2h-1.4v-5
						c0-1.5-0.5-2.2-1.5-2.2c-0.8,0-1.4,0.4-2.2,1.2v5.9h-1.4V339.9z"/>
					<path class="st2" d="M106.2,345.5V341H105v-1l1.3-0.1l0.2-2.3h1.1v2.3h2.2v1.1h-2.2v4.5c0,1,0.3,1.6,1.3,1.6
						c0.3,0,0.7-0.1,0.9-0.2l0.3,1c-0.5,0.2-1,0.3-1.5,0.3C106.8,348.2,106.2,347.1,106.2,345.5z"/>
					<path class="st2" d="M110.5,347.1l0.7-0.9c0.7,0.6,1.4,1,2.4,1c1.1,0,1.6-0.6,1.6-1.3c0-0.8-1-1.2-1.9-1.5
						c-1.1-0.4-2.4-1-2.4-2.4c0-1.3,1-2.3,2.8-2.3c1,0,1.9,0.4,2.5,0.9l-0.7,0.9c-0.6-0.4-1.1-0.7-1.9-0.7c-1,0-1.5,0.5-1.5,1.2
						c0,0.8,0.9,1.1,1.8,1.4c1.2,0.4,2.5,0.9,2.5,2.5c0,1.3-1.1,2.4-3,2.4C112.4,348.2,111.3,347.7,110.5,347.1z"/>
					<path class="st2" d="M121.8,343.3c0-2.9,0.8-5.4,2.2-7.6l0.9,0.4c-1.3,2.1-1.9,4.7-1.9,7.2s0.6,5.1,1.9,7.2L124,351
						C122.7,348.7,121.8,346.3,121.8,343.3z"/>
					<path class="st2" d="M126,346.7l0.7-0.9c0.6,0.7,1.5,1.3,2.7,1.3c1.3,0,2.2-0.8,2.2-2c0-1.3-0.9-2.2-3.4-2.2v-1.1
						c2.3,0,3-0.9,3-2.1c0-1.1-0.7-1.7-1.9-1.8c-0.9,0-1.7,0.5-2.3,1.1l-0.7-0.9c0.8-0.8,1.8-1.3,3.1-1.3c1.8,0,3.2,1,3.2,2.8
						c0,1.3-0.8,2.2-2,2.7v0.1c1.3,0.3,2.3,1.3,2.3,2.8c0,2-1.6,3.1-3.5,3.1C127.8,348.2,126.7,347.5,126,346.7z"/>
					<path class="st2" d="M141.4,348l-2.7-4.7h-2v4.7h-1.4v-11h3.4c2.2,0,3.8,0.8,3.8,3.1c0,1.7-1,2.7-2.5,3.1l2.8,4.8H141.4z
						 M136.7,342.2h1.8c1.7,0,2.7-0.7,2.7-2.1c0-1.5-0.9-2-2.7-2h-1.8V342.2z"/>
					<path class="st2" d="M143.8,347.1l0.7-0.9c0.7,0.6,1.4,1,2.4,1c1.1,0,1.6-0.6,1.6-1.3c0-0.8-1-1.2-1.9-1.5
						c-1.1-0.4-2.4-1-2.4-2.4c0-1.3,1-2.3,2.8-2.3c1,0,1.9,0.4,2.5,0.9l-0.7,0.9c-0.6-0.4-1.1-0.7-1.9-0.7c-1,0-1.5,0.5-1.5,1.2
						c0,0.8,0.9,1.1,1.8,1.4c1.2,0.4,2.5,0.9,2.5,2.5c0,1.3-1,2.4-3,2.4C145.7,348.2,144.6,347.7,143.8,347.1z"/>
					<path class="st2" d="M151,350.5c1.3-2.1,1.9-4.7,1.9-7.2s-0.6-5.1-1.9-7.2l0.8-0.4c1.4,2.2,2.2,4.7,2.2,7.6
						c0,3-0.8,5.4-2.2,7.6L151,350.5z"/>
					<path class="st2" d="M156.1,350.5c1.3-2.1,1.9-4.7,1.9-7.2s-0.6-5.1-1.9-7.2l0.8-0.4c1.4,2.2,2.2,4.7,2.2,7.6
						c0,3-0.8,5.4-2.2,7.6L156.1,350.5z"/>
				</g>
				<text transform="matrix(1 0 0 1 160.5281 348)" class="st2 st5 st4"> </text>
				<g class="st1">
					<path class="st2" d="M30.7,413.3h3.8v1h-3.8V413.3z"/>
					<path class="st2" d="M45.1,414.6h-4L40,418h-1.4l3.7-11h1.5l3.7,11h-1.5L45.1,414.6z M44.8,413.5l-0.5-1.7
						c-0.4-1.2-0.8-2.4-1.1-3.7h-0.1c-0.3,1.3-0.7,2.5-1.1,3.7l-0.5,1.7H44.8z"/>
					<path class="st2" d="M49,409.9h1.1l0.1,0.9h0c0.7-0.6,1.6-1.1,2.6-1.1c2.1,0,3.2,1.6,3.2,4.2c0,2.8-1.7,4.4-3.5,4.4
						c-0.7,0-1.5-0.3-2.2-0.9l0,1.4v2.8H49V409.9z M54.7,413.8c0-1.8-0.6-3-2.1-3c-0.7,0-1.4,0.4-2.2,1.1v4.3c0.7,0.6,1.5,0.9,2,0.9
						C53.8,417.1,54.7,415.8,54.7,413.8z"/>
					<path class="st2" d="M58.3,409.9h1.1l0.1,0.9h0c0.7-0.6,1.6-1.1,2.6-1.1c2.1,0,3.2,1.6,3.2,4.2c0,2.8-1.7,4.4-3.5,4.4
						c-0.7,0-1.5-0.3-2.2-0.9l0,1.4v2.8h-1.4V409.9z M64,413.8c0-1.8-0.6-3-2.1-3c-0.7,0-1.4,0.4-2.2,1.1v4.3c0.7,0.6,1.5,0.9,2,0.9
						C63.1,417.1,64,415.8,64,413.8z"/>
					<path class="st2" d="M67.6,409.9h1.1l0.1,1.5h0c0.6-1,1.4-1.7,2.3-1.7c0.4,0,0.6,0,0.9,0.2l-0.3,1.2c-0.3-0.1-0.5-0.1-0.8-0.1
						c-0.7,0-1.5,0.5-2.1,1.9v5.2h-1.4V409.9z"/>
					<path class="st2" d="M72.7,413.9c0-2.7,1.8-4.3,3.8-4.3c2,0,3.8,1.6,3.8,4.3c0,2.7-1.8,4.3-3.8,4.3
						C74.5,418.2,72.7,416.6,72.7,413.9z M78.8,413.9c0-1.9-1-3.2-2.4-3.2c-1.4,0-2.4,1.3-2.4,3.2s0.9,3.1,2.4,3.1
						C77.9,417.1,78.8,415.8,78.8,413.9z"/>
					<path class="st2" d="M81.6,415.9c0-1.8,1.5-2.7,5-3c0-1-0.3-2.1-1.7-2.1c-0.9,0-1.8,0.4-2.4,0.9l-0.5-0.9
						c0.8-0.5,1.9-1.1,3.2-1.1c2,0,2.8,1.3,2.8,3.3v5h-1.1l-0.1-1h0c-0.8,0.6-1.7,1.2-2.7,1.2C82.7,418.2,81.6,417.4,81.6,415.9z
						 M86.7,416v-2.3c-2.7,0.3-3.7,1-3.7,2.1c0,0.9,0.6,1.3,1.4,1.3C85.2,417.1,85.9,416.7,86.7,416z"/>
					<path class="st2" d="M90,413.9c0-2.7,1.8-4.3,3.9-4.3c1.1,0,1.8,0.5,2.4,1l-0.7,0.9c-0.5-0.4-1-0.7-1.6-0.7
						c-1.5,0-2.5,1.3-2.5,3.2s1,3.1,2.5,3.1c0.8,0,1.4-0.3,1.9-0.8l0.6,0.9c-0.7,0.7-1.6,1-2.6,1C91.7,418.2,90,416.6,90,413.9z"/>
					<path class="st2" d="M98.2,406.1h1.4v3.3l0,1.7c0.8-0.8,1.6-1.4,2.7-1.4c1.7,0,2.5,1.1,2.5,3.2v5.2h-1.4v-5
						c0-1.5-0.5-2.2-1.5-2.2c-0.8,0-1.4,0.4-2.2,1.2v5.9h-1.4V406.1z"/>
					<path class="st2" d="M110.5,407.3c0-0.6,0.4-0.9,0.9-0.9s0.9,0.3,0.9,0.9c0,0.5-0.4,0.9-0.9,0.9S110.5,407.8,110.5,407.3z
						 M110.7,409.9h1.4v8.1h-1.4V409.9z"/>
					<path class="st2" d="M114.8,409.9h1.1l0.1,1.2h0c0.8-0.8,1.6-1.4,2.7-1.4c1.7,0,2.5,1.1,2.5,3.2v5.2H120v-5
						c0-1.5-0.5-2.2-1.5-2.2c-0.8,0-1.4,0.4-2.2,1.2v5.9h-1.4V409.9z"/>
					<path class="st2" d="M123.4,419.6c0-0.7,0.5-1.3,1.2-1.8v-0.1c-0.4-0.3-0.8-0.7-0.8-1.3c0-0.7,0.5-1.2,0.9-1.5v-0.1
						c-0.5-0.4-1.1-1.2-1.1-2.2c0-1.8,1.4-2.9,3.1-2.9c0.4,0,0.9,0.1,1.1,0.2h2.8v1h-1.7c0.4,0.4,0.7,1,0.7,1.7c0,1.7-1.3,2.8-3,2.8
						c-0.4,0-0.9-0.1-1.2-0.3c-0.3,0.3-0.5,0.5-0.5,1c0,0.5,0.3,0.9,1.4,0.9h1.6c1.9,0,2.8,0.6,2.8,1.9c0,1.5-1.6,2.8-4.1,2.8
						C124.8,421.8,123.4,421,123.4,419.6z M129.5,419.1c0-0.8-0.6-1-1.7-1h-1.4c-0.3,0-0.7,0-1-0.1c-0.6,0.4-0.8,0.9-0.8,1.4
						c0,0.9,0.9,1.4,2.4,1.4C128.5,420.8,129.5,420,129.5,419.1z M128.5,412.6c0-1.2-0.8-1.9-1.7-1.9s-1.7,0.7-1.7,1.9
						c0,1.2,0.8,1.9,1.7,1.9C127.7,414.5,128.5,413.7,128.5,412.6z"/>
					<path class="st2" d="M132.4,409.9h1.1l0.1,1.5h0c0.6-1,1.4-1.7,2.3-1.7c0.4,0,0.6,0,0.9,0.2l-0.3,1.2c-0.3-0.1-0.5-0.1-0.8-0.1
						c-0.7,0-1.5,0.5-2.1,1.9v5.2h-1.4V409.9z"/>
					<path class="st2" d="M137.5,413.9c0-2.6,1.8-4.3,3.7-4.3c2.1,0,3.2,1.5,3.2,3.8c0,0.3,0,0.6-0.1,0.8h-5.5
						c0.1,1.7,1.2,2.8,2.7,2.8c0.8,0,1.4-0.2,2-0.6l0.5,0.9c-0.7,0.5-1.6,0.8-2.7,0.8C139.2,418.2,137.5,416.6,137.5,413.9z
						 M143.2,413.3c0-1.7-0.7-2.5-2-2.5c-1.2,0-2.2,0.9-2.3,2.5H143.2z"/>
					<path class="st2" d="M145.8,413.9c0-2.6,1.7-4.3,3.5-4.3c1,0,1.6,0.4,2.3,1l-0.1-1.4v-3.1h1.4V418h-1.1l-0.1-1h0
						c-0.6,0.6-1.5,1.2-2.5,1.2C147.1,418.2,145.8,416.7,145.8,413.9z M151.6,415.9v-4.3c-0.7-0.6-1.3-0.9-2-0.9
						c-1.3,0-2.4,1.3-2.4,3.1c0,2,0.8,3.1,2.2,3.1C150.2,417.1,150.9,416.7,151.6,415.9z"/>
					<path class="st2" d="M155.5,407.3c0-0.6,0.4-0.9,0.9-0.9s0.9,0.3,0.9,0.9c0,0.5-0.4,0.9-0.9,0.9S155.5,407.8,155.5,407.3z
						 M155.7,409.9h1.4v8.1h-1.4V409.9z"/>
					<path class="st2" d="M159.2,413.9c0-2.6,1.8-4.3,3.7-4.3c2.1,0,3.2,1.5,3.2,3.8c0,0.3,0,0.6-0.1,0.8h-5.5
						c0.1,1.7,1.2,2.8,2.7,2.8c0.8,0,1.4-0.2,2-0.6l0.5,0.9c-0.7,0.5-1.6,0.8-2.7,0.8C161,418.2,159.2,416.6,159.2,413.9z
						 M164.9,413.3c0-1.7-0.8-2.5-2-2.5c-1.2,0-2.2,0.9-2.3,2.5H164.9z"/>
					<path class="st2" d="M168.1,409.9h1.1l0.1,1.2h0c0.8-0.8,1.6-1.4,2.7-1.4c1.7,0,2.5,1.1,2.5,3.2v5.2h-1.4v-5
						c0-1.5-0.5-2.2-1.5-2.2c-0.8,0-1.4,0.4-2.2,1.2v5.9h-1.4V409.9z"/>
					<path class="st2" d="M177.6,415.5V411h-1.2v-1l1.3-0.1l0.2-2.3h1.1v2.3h2.2v1.1h-2.2v4.5c0,1,0.3,1.6,1.3,1.6
						c0.3,0,0.7-0.1,0.9-0.2l0.3,1c-0.5,0.2-1,0.3-1.5,0.3C178.1,418.2,177.6,417.1,177.6,415.5z"/>
					<path class="st2" d="M181.9,417.1l0.7-0.9c0.7,0.6,1.4,1,2.4,1c1.1,0,1.6-0.6,1.6-1.3c0-0.8-1-1.2-1.9-1.5
						c-1.1-0.4-2.4-1-2.4-2.4c0-1.3,1-2.3,2.8-2.3c1,0,1.9,0.4,2.5,0.9l-0.7,0.9c-0.6-0.4-1.1-0.7-1.9-0.7c-1,0-1.5,0.5-1.5,1.2
						c0,0.8,0.9,1.1,1.8,1.4c1.2,0.4,2.5,0.9,2.5,2.5c0,1.3-1,2.4-3,2.4C183.8,418.2,182.7,417.7,181.9,417.1z"/>
					<path class="st2" d="M192.7,415.9c0-1.8,1.5-2.7,5-3c0-1-0.3-2.1-1.7-2.1c-0.9,0-1.8,0.4-2.4,0.9l-0.5-0.9
						c0.8-0.5,1.9-1.1,3.2-1.1c2,0,2.8,1.3,2.8,3.3v5h-1.1l-0.1-1h0c-0.8,0.6-1.7,1.2-2.7,1.2C193.7,418.2,192.7,417.4,192.7,415.9z
						 M197.7,416v-2.3c-2.7,0.3-3.7,1-3.7,2.1c0,0.9,0.6,1.3,1.4,1.3C196.2,417.1,196.9,416.7,197.7,416z"/>
					<path class="st2" d="M201.6,409.9h1.1l0.1,1.2h0c0.8-0.8,1.6-1.4,2.7-1.4c1.7,0,2.5,1.1,2.5,3.2v5.2h-1.4v-5
						c0-1.5-0.5-2.2-1.5-2.2c-0.8,0-1.4,0.4-2.2,1.2v5.9h-1.4V409.9z"/>
					<path class="st2" d="M210.2,413.9c0-2.6,1.7-4.3,3.5-4.3c1,0,1.6,0.4,2.3,1l-0.1-1.4v-3.1h1.4V418h-1.1l-0.1-1h0
						c-0.6,0.6-1.5,1.2-2.5,1.2C211.5,418.2,210.2,416.7,210.2,413.9z M216,415.9v-4.3c-0.7-0.6-1.3-0.9-2-0.9
						c-1.3,0-2.4,1.3-2.4,3.1c0,2,0.8,3.1,2.2,3.1C214.6,417.1,215.3,416.7,216,415.9z"/>
					<path class="st2" d="M222.9,413.9c0-2.6,1.8-4.3,3.7-4.3c2.1,0,3.2,1.5,3.2,3.8c0,0.3,0,0.6-0.1,0.8h-5.5
						c0.1,1.7,1.2,2.8,2.7,2.8c0.8,0,1.4-0.2,2-0.6l0.5,0.9c-0.7,0.5-1.6,0.8-2.7,0.8C224.6,418.2,222.9,416.6,222.9,413.9z
						 M228.6,413.3c0-1.7-0.7-2.5-2-2.5c-1.2,0-2.2,0.9-2.3,2.5H228.6z"/>
					<path class="st2" d="M236.8,408.6c0-1.7,0.8-2.7,2.4-2.7c0.5,0,1,0.1,1.3,0.3l-0.3,1c-0.3-0.1-0.6-0.2-0.9-0.2
						c-0.8,0-1.2,0.6-1.2,1.6v1.3h1.7v1.1h-1.7v7h-1.4v-7h-3.4v7H232v-7h-1.1v-1l1.1-0.1v-1.1c0-1.7,0.8-2.7,2.5-2.7
						c0.5,0,1.1,0.1,1.5,0.3l-0.3,1c-0.4-0.2-0.7-0.2-1.1-0.2c-0.8,0-1.3,0.6-1.3,1.7v1h3.4V408.6z M243.1,407.3
						c0,0.5-0.4,0.9-1,0.9c-0.5,0-0.9-0.4-0.9-0.9c0-0.6,0.4-0.9,0.9-0.9C242.7,406.4,243.1,406.7,243.1,407.3z M241.4,409.9h1.4
						v8.1h-1.4V409.9z"/>
					<path class="st2" d="M244.9,413.9c0-2.7,1.8-4.3,3.9-4.3c1.1,0,1.8,0.5,2.4,1l-0.7,0.9c-0.5-0.4-1-0.7-1.6-0.7
						c-1.5,0-2.5,1.3-2.5,3.2s1,3.1,2.5,3.1c0.8,0,1.4-0.3,1.9-0.8l0.6,0.9c-0.7,0.7-1.7,1-2.6,1
						C246.6,418.2,244.9,416.6,244.9,413.9z"/>
					<path class="st2" d="M252.5,415.9c0-1.8,1.5-2.7,5-3c0-1-0.3-2.1-1.7-2.1c-0.9,0-1.8,0.4-2.4,0.9l-0.5-0.9
						c0.8-0.5,1.9-1.1,3.2-1.1c2,0,2.8,1.3,2.8,3.3v5h-1.1l-0.1-1h0c-0.8,0.6-1.7,1.2-2.7,1.2C253.5,418.2,252.5,417.4,252.5,415.9z
						 M257.5,416v-2.3c-2.7,0.3-3.7,1-3.7,2.1c0,0.9,0.6,1.3,1.4,1.3C256.1,417.1,256.7,416.7,257.5,416z"/>
					<path class="st2" d="M260.9,413.9c0-2.7,1.8-4.3,3.9-4.3c1.1,0,1.8,0.5,2.4,1l-0.7,0.9c-0.5-0.4-1-0.7-1.6-0.7
						c-1.5,0-2.6,1.3-2.6,3.2s1,3.1,2.5,3.1c0.8,0,1.4-0.3,1.9-0.8l0.6,0.9c-0.7,0.7-1.7,1-2.6,1
						C262.5,418.2,260.9,416.6,260.9,413.9z"/>
					<path class="st2" d="M268.4,421.3l0.3-1.1c0.2,0.1,0.4,0.1,0.6,0.1c0.9,0,1.5-0.8,1.8-1.8l0.2-0.6l-3.3-8.2h1.4l1.7,4.5
						c0.2,0.7,0.5,1.5,0.8,2.3h0.1c0.2-0.7,0.5-1.6,0.7-2.3l1.5-4.5h1.3l-3.1,8.8c-0.6,1.6-1.4,2.8-3,2.8
						C269,421.5,268.6,421.5,268.4,421.3z"/>
				</g>
				<g class="st1">
					<path class="st2" d="M31.4,444.9h1.1l0.1,1.5h0c0.6-1,1.4-1.7,2.3-1.7c0.4,0,0.6,0,0.9,0.2l-0.3,1.2c-0.3-0.1-0.5-0.1-0.8-0.1
						c-0.7,0-1.5,0.5-2.1,1.9v5.2h-1.4V444.9z"/>
					<path class="st2" d="M36.4,448.9c0-2.6,1.8-4.3,3.7-4.3c2.1,0,3.2,1.5,3.2,3.8c0,0.3,0,0.6-0.1,0.8h-5.5
						c0.1,1.7,1.2,2.8,2.7,2.8c0.8,0,1.4-0.2,2-0.6l0.5,0.9c-0.7,0.5-1.6,0.8-2.7,0.8C38.2,453.2,36.4,451.6,36.4,448.9z
						 M42.1,448.3c0-1.7-0.8-2.5-2-2.5c-1.2,0-2.2,0.9-2.3,2.5H42.1z"/>
					<path class="st2" d="M44.4,452.1l0.7-0.9c0.7,0.6,1.4,1,2.4,1c1.1,0,1.6-0.6,1.6-1.3c0-0.8-1-1.2-1.9-1.5
						c-1.1-0.4-2.4-1-2.4-2.4c0-1.3,1-2.3,2.8-2.3c1,0,1.9,0.4,2.5,0.9l-0.7,0.9c-0.6-0.4-1.1-0.7-1.9-0.7c-1,0-1.5,0.5-1.5,1.2
						c0,0.8,0.9,1.1,1.8,1.4c1.2,0.4,2.5,0.9,2.5,2.5c0,1.3-1,2.4-3,2.4C46.3,453.2,45.2,452.7,44.4,452.1z"/>
					<path class="st2" d="M51.7,448.9c0-2.6,1.8-4.3,3.7-4.3c2.1,0,3.2,1.5,3.2,3.8c0,0.3,0,0.6-0.1,0.8h-5.5
						c0.1,1.7,1.2,2.8,2.7,2.8c0.8,0,1.4-0.2,2-0.6l0.5,0.9c-0.7,0.5-1.6,0.8-2.7,0.8C53.5,453.2,51.7,451.6,51.7,448.9z
						 M57.5,448.3c0-1.7-0.7-2.5-2-2.5c-1.2,0-2.2,0.9-2.3,2.5H57.5z"/>
					<path class="st2" d="M59.9,450.9c0-1.8,1.5-2.7,5-3c0-1-0.3-2.1-1.7-2.1c-0.9,0-1.8,0.4-2.4,0.9l-0.5-0.9
						c0.8-0.5,1.9-1.1,3.2-1.1c2,0,2.8,1.3,2.8,3.3v5h-1.1l-0.1-1h0c-0.8,0.6-1.7,1.2-2.7,1.2C60.9,453.2,59.9,452.4,59.9,450.9z
						 M64.9,451v-2.3c-2.7,0.3-3.7,1-3.7,2.1c0,0.9,0.6,1.3,1.4,1.3C63.5,452.1,64.1,451.7,64.9,451z"/>
					<path class="st2" d="M68.9,444.9H70l0.1,1.5h0c0.6-1,1.4-1.7,2.3-1.7c0.4,0,0.6,0,0.9,0.2l-0.3,1.2c-0.3-0.1-0.5-0.1-0.8-0.1
						c-0.7,0-1.5,0.5-2.1,1.9v5.2h-1.4V444.9z"/>
					<path class="st2" d="M73.9,448.9c0-2.7,1.8-4.3,3.9-4.3c1.1,0,1.8,0.5,2.4,1l-0.7,0.9c-0.5-0.4-1-0.7-1.6-0.7
						c-1.5,0-2.5,1.3-2.5,3.2s1,3.1,2.5,3.1c0.8,0,1.4-0.3,1.9-0.8l0.6,0.9c-0.7,0.7-1.6,1-2.6,1C75.6,453.2,73.9,451.6,73.9,448.9z
						"/>
					<path class="st2" d="M82.2,441.1h1.4v3.3l0,1.7c0.8-0.8,1.6-1.4,2.7-1.4c1.7,0,2.5,1.1,2.5,3.2v5.2h-1.4v-5
						c0-1.5-0.5-2.2-1.5-2.2c-0.8,0-1.4,0.4-2.2,1.2v5.9h-1.4V441.1z"/>
					<path class="st2" d="M98.3,442.2c-0.3-0.1-0.6-0.2-0.9-0.2c-0.8,0-1.2,0.6-1.2,1.6v1.3H98v1.1h-1.7v7h-1.4v-7h-1.1v-1l1.1-0.1
						v-1.3c0-1.7,0.8-2.7,2.4-2.7c0.5,0,1,0.1,1.4,0.3L98.3,442.2z"/>
					<path class="st2" d="M99.5,444.9h1.1l0.1,1.5h0c0.6-1,1.4-1.7,2.3-1.7c0.4,0,0.6,0,0.9,0.2l-0.3,1.2c-0.3-0.1-0.5-0.1-0.8-0.1
						c-0.7,0-1.5,0.5-2.1,1.9v5.2h-1.4V444.9z"/>
					<path class="st2" d="M104.6,448.9c0-2.7,1.8-4.3,3.8-4.3c2,0,3.8,1.6,3.8,4.3c0,2.7-1.8,4.3-3.8,4.3
						C106.3,453.2,104.6,451.6,104.6,448.9z M110.7,448.9c0-1.9-1-3.2-2.4-3.2c-1.4,0-2.4,1.3-2.4,3.2s0.9,3.1,2.4,3.1
						C109.8,452.1,110.7,450.8,110.7,448.9z"/>
					<path class="st2" d="M114.3,444.9h1.1l0.1,1.2h0c0.7-0.8,1.6-1.4,2.5-1.4c1.2,0,1.9,0.6,2.2,1.6c0.8-0.9,1.7-1.6,2.7-1.6
						c1.7,0,2.5,1.1,2.5,3.2v5.2h-1.4v-5c0-1.5-0.5-2.2-1.5-2.2c-0.6,0-1.3,0.4-2.1,1.2v5.9h-1.4v-5c0-1.5-0.5-2.2-1.5-2.2
						c-0.6,0-1.3,0.4-2.1,1.2v5.9h-1.4V444.9z"/>
					<path class="st2" d="M130.9,448.9c0-2.7,1.8-4.3,3.9-4.3c1.1,0,1.8,0.5,2.4,1l-0.7,0.9c-0.5-0.4-1-0.7-1.6-0.7
						c-1.5,0-2.5,1.3-2.5,3.2s1,3.1,2.5,3.1c0.8,0,1.4-0.3,1.9-0.8l0.6,0.9c-0.7,0.7-1.6,1-2.6,1
						C132.6,453.2,130.9,451.6,130.9,448.9z"/>
					<path class="st2" d="M138.2,448.9c0-2.7,1.8-4.3,3.8-4.3c2,0,3.8,1.6,3.8,4.3c0,2.7-1.8,4.3-3.8,4.3
						C140,453.2,138.2,451.6,138.2,448.9z M144.3,448.9c0-1.9-1-3.2-2.4-3.2c-1.4,0-2.4,1.3-2.4,3.2s0.9,3.1,2.4,3.1
						C143.4,452.1,144.3,450.8,144.3,448.9z"/>
					<path class="st2" d="M147.9,444.9h1.1l0.1,1.2h0c0.8-0.8,1.6-1.4,2.7-1.4c1.7,0,2.5,1.1,2.5,3.2v5.2H153v-5
						c0-1.5-0.5-2.2-1.5-2.2c-0.8,0-1.4,0.4-2.2,1.2v5.9h-1.4V444.9z"/>
					<path class="st2" d="M156.1,452.1l0.7-0.9c0.7,0.6,1.4,1,2.4,1c1.1,0,1.6-0.6,1.6-1.3c0-0.8-1-1.2-1.9-1.5
						c-1.1-0.4-2.4-1-2.4-2.4c0-1.3,1-2.3,2.8-2.3c1,0,1.9,0.4,2.5,0.9l-0.7,0.9c-0.6-0.4-1.1-0.7-1.9-0.7c-1,0-1.5,0.5-1.5,1.2
						c0,0.8,0.9,1.1,1.8,1.4c1.2,0.4,2.5,0.9,2.5,2.5c0,1.3-1.1,2.4-3,2.4C158,453.2,156.9,452.7,156.1,452.1z"/>
					<path class="st2" d="M164,450v-5.2h1.4v5c0,1.5,0.5,2.2,1.5,2.2c0.8,0,1.4-0.4,2.2-1.4v-5.8h1.4v8.1h-1.1l-0.1-1.3h0
						c-0.8,0.9-1.6,1.5-2.7,1.5C164.7,453.2,164,452.1,164,450z"/>
					<path class="st2" d="M173.2,444.9h1.1l0.1,1.2h0c0.7-0.8,1.6-1.4,2.5-1.4c1.2,0,1.9,0.6,2.2,1.6c0.8-0.9,1.7-1.6,2.7-1.6
						c1.7,0,2.5,1.1,2.5,3.2v5.2H183v-5c0-1.5-0.5-2.2-1.5-2.2c-0.6,0-1.3,0.4-2.1,1.2v5.9h-1.4v-5c0-1.5-0.5-2.2-1.5-2.2
						c-0.6,0-1.3,0.4-2.1,1.2v5.9h-1.4V444.9z"/>
					<path class="st2" d="M186.4,448.9c0-2.6,1.8-4.3,3.7-4.3c2.1,0,3.2,1.5,3.2,3.8c0,0.3,0,0.6-0.1,0.8h-5.5
						c0.1,1.7,1.2,2.8,2.7,2.8c0.8,0,1.4-0.2,2-0.6l0.5,0.9c-0.7,0.5-1.6,0.8-2.7,0.8C188.2,453.2,186.4,451.6,186.4,448.9z
						 M192.2,448.3c0-1.7-0.8-2.5-2-2.5c-1.2,0-2.2,0.9-2.3,2.5H192.2z"/>
					<path class="st2" d="M195.4,444.9h1.1l0.1,1.5h0c0.6-1,1.4-1.7,2.3-1.7c0.4,0,0.6,0,0.9,0.2l-0.3,1.2c-0.3-0.1-0.5-0.1-0.8-0.1
						c-0.7,0-1.5,0.5-2.1,1.9v5.2h-1.4V444.9z"/>
					<path class="st2" d="M201.2,445.1c0.8-0.6,1.2-1.1,1.3-2.1c0,0-0.1,0-0.1,0c-0.5,0-0.9-0.3-0.9-0.9c0-0.6,0.4-0.9,0.9-0.9
						c0.7,0,1.1,0.6,1.1,1.5c0,1.3-0.6,2.3-1.8,3L201.2,445.1z"/>
					<path class="st2" d="M203.9,452.1l0.7-0.9c0.7,0.6,1.4,1,2.4,1c1.1,0,1.6-0.6,1.6-1.3c0-0.8-1-1.2-1.9-1.5
						c-1.1-0.4-2.4-1-2.4-2.4c0-1.3,1-2.3,2.8-2.3c1,0,1.9,0.4,2.5,0.9l-0.7,0.9c-0.6-0.4-1.1-0.7-1.9-0.7c-1,0-1.5,0.5-1.5,1.2
						c0,0.8,0.9,1.1,1.8,1.4c1.2,0.4,2.5,0.9,2.5,2.5c0,1.3-1.1,2.4-3,2.4C205.8,453.2,204.7,452.7,203.9,452.1z"/>
					<path class="st2" d="M215.2,444.9h1.1l0.1,0.9h0c0.7-0.6,1.6-1.1,2.6-1.1c2.1,0,3.2,1.6,3.2,4.2c0,2.8-1.7,4.4-3.5,4.4
						c-0.7,0-1.5-0.3-2.2-0.9l0,1.4v2.8h-1.4V444.9z M220.9,448.8c0-1.8-0.6-3-2.1-3c-0.7,0-1.4,0.4-2.2,1.1v4.3
						c0.7,0.6,1.5,0.9,2,0.9C219.9,452.1,220.9,450.8,220.9,448.8z"/>
					<path class="st2" d="M223.9,448.9c0-2.6,1.8-4.3,3.7-4.3c2.1,0,3.2,1.5,3.2,3.8c0,0.3,0,0.6-0.1,0.8h-5.5
						c0.1,1.7,1.2,2.8,2.7,2.8c0.8,0,1.4-0.2,2-0.6l0.5,0.9c-0.7,0.5-1.6,0.8-2.7,0.8C225.6,453.2,223.9,451.6,223.9,448.9z
						 M229.6,448.3c0-1.7-0.8-2.5-2-2.5c-1.2,0-2.2,0.9-2.3,2.5H229.6z"/>
					<path class="st2" d="M232.8,444.9h1.1l0.1,1.5h0c0.6-1,1.4-1.7,2.3-1.7c0.4,0,0.6,0,0.9,0.2L237,446c-0.3-0.1-0.5-0.1-0.8-0.1
						c-0.7,0-1.5,0.5-2.1,1.9v5.2h-1.4V444.9z"/>
					<path class="st2" d="M237.7,452.1l0.7-0.9c0.7,0.6,1.4,1,2.4,1c1.1,0,1.6-0.6,1.6-1.3c0-0.8-1-1.2-1.9-1.5
						c-1.1-0.4-2.4-1-2.4-2.4c0-1.3,1-2.3,2.8-2.3c1,0,1.9,0.4,2.5,0.9l-0.7,0.9c-0.6-0.4-1.1-0.7-1.9-0.7c-1,0-1.5,0.5-1.5,1.2
						c0,0.8,0.9,1.1,1.8,1.4c1.2,0.4,2.5,0.9,2.5,2.5c0,1.3-1,2.4-3,2.4C239.6,453.2,238.5,452.7,237.7,452.1z"/>
					<path class="st2" d="M245.6,444.9h1.1l0.1,0.9h0c0.7-0.6,1.7-1.1,2.6-1.1c2.1,0,3.2,1.6,3.2,4.2c0,2.8-1.7,4.4-3.5,4.4
						c-0.7,0-1.5-0.3-2.2-0.9l0,1.4v2.8h-1.4V444.9z M251.3,448.8c0-1.8-0.6-3-2.1-3c-0.7,0-1.4,0.4-2.2,1.1v4.3
						c0.7,0.6,1.5,0.9,2,0.9C250.3,452.1,251.3,450.8,251.3,448.8z"/>
					<path class="st2" d="M254.3,448.9c0-2.6,1.8-4.3,3.7-4.3c2.1,0,3.2,1.5,3.2,3.8c0,0.3,0,0.6-0.1,0.8h-5.5
						c0.1,1.7,1.2,2.8,2.7,2.8c0.8,0,1.4-0.2,2-0.6l0.5,0.9c-0.7,0.5-1.6,0.8-2.7,0.8C256,453.2,254.3,451.6,254.3,448.9z
						 M260,448.3c0-1.7-0.8-2.5-2-2.5c-1.2,0-2.2,0.9-2.3,2.5H260z"/>
					<path class="st2" d="M262.6,448.9c0-2.7,1.8-4.3,3.9-4.3c1.1,0,1.8,0.5,2.4,1l-0.7,0.9c-0.5-0.4-1-0.7-1.6-0.7
						c-1.5,0-2.5,1.3-2.5,3.2s1,3.1,2.5,3.1c0.8,0,1.4-0.3,1.9-0.8l0.6,0.9c-0.7,0.7-1.6,1-2.6,1
						C264.3,453.2,262.6,451.6,262.6,448.9z"/>
					<path class="st2" d="M270.9,450.5V446h-1.2v-1l1.3-0.1l0.2-2.3h1.1v2.3h2.2v1.1h-2.2v4.5c0,1,0.3,1.6,1.3,1.6
						c0.3,0,0.7-0.1,0.9-0.2l0.3,1c-0.5,0.2-1,0.3-1.5,0.3C271.5,453.2,270.9,452.1,270.9,450.5z"/>
					<path class="st2" d="M276.1,442.3c0-0.6,0.4-0.9,0.9-0.9s0.9,0.3,0.9,0.9c0,0.5-0.4,0.9-0.9,0.9S276.1,442.8,276.1,442.3z
						 M276.3,444.9h1.4v8.1h-1.4V444.9z"/>
					<path class="st2" d="M279.3,444.9h1.4l1.5,4.6c0.3,0.8,0.5,1.6,0.8,2.4h0.1c0.2-0.8,0.5-1.6,0.8-2.4l1.5-4.6h1.4l-2.9,8.1h-1.6
						L279.3,444.9z"/>
					<path class="st2" d="M287.6,448.9c0-2.6,1.8-4.3,3.7-4.3c2.1,0,3.2,1.5,3.2,3.8c0,0.3,0,0.6-0.1,0.8H289
						c0.1,1.7,1.2,2.8,2.7,2.8c0.8,0,1.4-0.2,2-0.6l0.5,0.9c-0.7,0.5-1.6,0.8-2.7,0.8C289.3,453.2,287.6,451.6,287.6,448.9z
						 M293.3,448.3c0-1.7-0.8-2.5-2-2.5c-1.2,0-2.2,0.9-2.3,2.5H293.3z"/>
				</g>
			</g>
			
				<g id="arrow" transform="translate(167.500000, 576.500000) rotate(-270.000000) translate(-167.500000, -576.500000) translate(117.000000, 566.500000)">
				<path id="Line" class="st6" d="M0.5,10h100"/>
				<polyline id="Stroke-1" class="st7" points="90,0 101,10 90,20 				"/>
				<polyline class="st7" points="11,20 0,10 11,0 				"/>
			</g>
			<g id="box3" transform="translate(0.000000, 646.500000)">
				<path class="st8" d="M9,1h316c4.4,0,8,3.6,8,8v132c0,4.4-3.6,8-8,8H9c-4.4,0-8-3.6-8-8V9C1,4.6,4.6,1,9,1z"/>
				<g class="st1">
					<path class="st9" d="M36,55.5c0-3.6,2.2-5.8,5.1-5.8c1.6,0,2.6,0.7,3.3,1.4l-0.9,1.1c-0.5-0.6-1.2-1-2.3-1
						c-2.1,0-3.4,1.6-3.4,4.2c0,2.6,1.2,4.2,3.5,4.2c0.7,0,1.4-0.2,1.7-0.5v-2.6h-2.2v-1.4h3.8v4.8c-0.7,0.7-2,1.3-3.5,1.3
						C38.1,61.2,36,59.1,36,55.5z"/>
					<path class="st9" d="M46.9,59.1V49h1.7v10.1c0,0.5,0.2,0.6,0.4,0.6c0.1,0,0.1,0,0.3,0l0.2,1.3c-0.2,0.1-0.5,0.1-0.9,0.1
						C47.4,61.2,46.9,60.4,46.9,59.1z"/>
					<path class="st9" d="M50.8,56.9c0-2.8,1.8-4.4,3.9-4.4c2,0,3.9,1.6,3.9,4.4c0,2.7-1.8,4.3-3.9,4.3
						C52.7,61.2,50.8,59.6,50.8,56.9z M56.8,56.9c0-1.8-0.8-2.9-2.1-2.9c-1.3,0-2.1,1.2-2.1,2.9c0,1.7,0.8,2.9,2.1,2.9
						C56,59.8,56.8,58.6,56.8,56.9z"/>
					<path class="st9" d="M62.2,60.1L62.2,60.1L62,61h-1.3V49h1.7v3.2l0,1.4c0.7-0.6,1.6-1.1,2.5-1.1c2.1,0,3.3,1.7,3.3,4.2
						c0,2.8-1.7,4.5-3.6,4.5C63.7,61.2,62.9,60.8,62.2,60.1z M66.2,56.8c0-1.7-0.6-2.8-1.9-2.8c-0.6,0-1.3,0.3-2,1v4
						c0.6,0.6,1.3,0.8,1.8,0.8C65.3,59.8,66.2,58.7,66.2,56.8z"/>
					<path class="st9" d="M69.4,58.8c0-1.8,1.5-2.7,4.9-3.1c0-1-0.4-1.8-1.6-1.8c-0.9,0-1.7,0.4-2.4,0.8l-0.6-1.2
						c0.9-0.5,2-1.1,3.3-1.1c2.1,0,3,1.3,3,3.5v5h-1.4l-0.1-0.9h0c-0.8,0.6-1.6,1.1-2.6,1.1C70.4,61.2,69.4,60.3,69.4,58.8z
						 M74.3,58.9v-2c-2.4,0.3-3.3,0.9-3.3,1.8c0,0.8,0.6,1.1,1.3,1.1C73,59.8,73.6,59.5,74.3,58.9z"/>
					<path class="st9" d="M78.5,59.1V49h1.7v10.1c0,0.5,0.2,0.6,0.4,0.6c0.1,0,0.1,0,0.3,0l0.2,1.3c-0.2,0.1-0.5,0.1-0.9,0.1
						C78.9,61.2,78.5,60.4,78.5,59.1z"/>
					<path class="st9" d="M86.3,59.1V49H88v10.1c0,0.5,0.2,0.6,0.4,0.6c0.1,0,0.1,0,0.3,0l0.2,1.3c-0.2,0.1-0.5,0.1-0.9,0.1
						C86.8,61.2,86.3,60.4,86.3,59.1z"/>
					<path class="st9" d="M90.3,58.8c0-1.8,1.5-2.7,4.9-3.1c0-1-0.4-1.8-1.6-1.8c-0.9,0-1.7,0.4-2.4,0.8l-0.6-1.2
						c0.9-0.5,2-1.1,3.3-1.1c2.1,0,3,1.3,3,3.5v5h-1.4l-0.1-0.9h0c-0.8,0.6-1.6,1.1-2.6,1.1C91.3,61.2,90.3,60.3,90.3,58.8z
						 M95.2,58.9v-2c-2.4,0.3-3.3,0.9-3.3,1.8c0,0.8,0.6,1.1,1.3,1.1C94,59.8,94.6,59.5,95.2,58.9z"/>
					<path class="st9" d="M99.3,57.9v-5.2h1.7v5c0,1.4,0.4,2,1.4,2c0.8,0,1.3-0.4,2-1.2v-5.7h1.7V61h-1.4l-0.1-1.2h0
						c-0.8,0.9-1.6,1.4-2.7,1.4C100.1,61.2,99.3,60,99.3,57.9z"/>
					<path class="st9" d="M108.7,52.8h1.4l0.1,1.1h0c0.8-0.7,1.6-1.4,2.7-1.4c1.8,0,2.5,1.2,2.5,3.3V61h-1.7v-5c0-1.4-0.4-2-1.4-2
						c-0.8,0-1.3,0.4-2,1.1V61h-1.7V52.8z"/>
					<path class="st9" d="M117.5,56.9c0-2.8,1.9-4.4,4.1-4.4c1,0,1.8,0.4,2.4,0.9l-0.9,1.1c-0.5-0.4-0.9-0.6-1.5-0.6
						c-1.4,0-2.4,1.2-2.4,2.9c0,1.7,0.9,2.9,2.3,2.9c0.7,0,1.3-0.3,1.8-0.8l0.7,1.1c-0.7,0.7-1.7,1-2.7,1
						C119.2,61.2,117.5,59.6,117.5,56.9z"/>
					<path class="st9" d="M125.8,49h1.7v3.2l-0.1,1.6c0.7-0.7,1.5-1.3,2.7-1.3c1.8,0,2.5,1.2,2.5,3.3V61h-1.7v-5c0-1.4-0.4-2-1.4-2
						c-0.8,0-1.3,0.4-2,1.1V61h-1.7V49z"/>
					<path class="st9" d="M137.9,56.9c0-2.8,1.8-4.4,3.9-4.4c2,0,3.9,1.6,3.9,4.4c0,2.7-1.8,4.3-3.9,4.3
						C139.8,61.2,137.9,59.6,137.9,56.9z M143.9,56.9c0-1.8-0.8-2.9-2.1-2.9c-1.3,0-2.1,1.2-2.1,2.9c0,1.7,0.8,2.9,2.1,2.9
						C143.1,59.8,143.9,58.6,143.9,56.9z"/>
					<path class="st9" d="M151.7,50.4c-0.3-0.1-0.6-0.2-0.9-0.2c-0.7,0-1.1,0.5-1.1,1.5v1h1.7v1.4h-1.7V61H148v-6.9h-1.1v-1.3
						l1.1-0.1v-1c0-1.7,0.8-2.9,2.6-2.9c0.6,0,1.1,0.1,1.5,0.3L151.7,50.4z"/>
					<path class="st9" d="M155.6,56.9c0-2.8,1.9-4.4,4.1-4.4c1,0,1.8,0.4,2.4,0.9l-0.9,1.1c-0.5-0.4-0.9-0.6-1.5-0.6
						c-1.4,0-2.4,1.2-2.4,2.9c0,1.7,0.9,2.9,2.3,2.9c0.7,0,1.3-0.3,1.8-0.8l0.7,1.1c-0.7,0.7-1.7,1-2.7,1
						C157.3,61.2,155.6,59.6,155.6,56.9z"/>
					<path class="st9" d="M163,56.9c0-2.8,1.8-4.4,3.9-4.4c2,0,3.9,1.6,3.9,4.4c0,2.7-1.8,4.3-3.9,4.3C164.8,61.2,163,59.6,163,56.9
						z M169,56.9c0-1.8-0.8-2.9-2.1-2.9c-1.3,0-2.1,1.2-2.1,2.9c0,1.7,0.8,2.9,2.1,2.9C168.2,59.8,169,58.6,169,56.9z"/>
					<path class="st9" d="M171.9,60.1l0.8-1.1c0.7,0.6,1.5,0.9,2.3,0.9c1,0,1.5-0.5,1.5-1.1c0-0.8-0.9-1.1-1.8-1.4
						c-1.1-0.4-2.4-1-2.4-2.4c0-1.4,1.1-2.4,2.9-2.4c1.1,0,2,0.5,2.7,1l-0.8,1.1c-0.6-0.4-1.2-0.7-1.8-0.7c-0.9,0-1.3,0.5-1.3,1
						c0,0.7,0.9,1,1.8,1.3c1.2,0.4,2.4,0.9,2.4,2.5c0,1.4-1.1,2.5-3.1,2.5C173.8,61.2,172.7,60.7,171.9,60.1z"/>
					<path class="st9" d="M179.9,52.8h1.4l0.1,1.2h0c0.7-0.8,1.5-1.4,2.5-1.4c1.2,0,1.9,0.6,2.3,1.5c0.8-0.9,1.6-1.5,2.7-1.5
						c1.7,0,2.5,1.2,2.5,3.3V61h-1.7v-5c0-1.4-0.5-2-1.4-2c-0.6,0-1.2,0.4-1.9,1.1V61h-1.7v-5c0-1.4-0.4-2-1.4-2
						c-0.6,0-1.2,0.4-1.9,1.1V61h-1.7V52.8z"/>
					<path class="st9" d="M193.5,56.9c0-2.7,1.8-4.4,3.8-4.4c2.2,0,3.4,1.6,3.4,3.9c0,0.3,0,0.7-0.1,0.9h-5.4
						c0.1,1.6,1.1,2.5,2.5,2.5c0.7,0,1.4-0.2,2-0.6l0.6,1.1c-0.8,0.5-1.7,0.9-2.8,0.9C195.3,61.2,193.5,59.6,193.5,56.9z
						 M199.1,56.1c0-1.4-0.6-2.2-1.8-2.2c-1,0-2,0.8-2.1,2.2H199.1z"/>
					<path class="st9" d="M202,56.9c0-2.8,1.9-4.4,4.1-4.4c1,0,1.8,0.4,2.4,0.9l-0.9,1.1c-0.4-0.4-0.9-0.6-1.5-0.6
						c-1.4,0-2.4,1.2-2.4,2.9c0,1.7,0.9,2.9,2.3,2.9c0.7,0,1.3-0.3,1.8-0.8l0.7,1.1c-0.7,0.7-1.7,1-2.7,1
						C203.7,61.2,202,59.6,202,56.9z"/>
					<path class="st9" d="M209.3,56.9c0-2.7,1.8-4.4,3.8-4.4c2.2,0,3.4,1.6,3.4,3.9c0,0.3,0,0.7-0.1,0.9H211
						c0.1,1.6,1.1,2.5,2.5,2.5c0.7,0,1.4-0.2,2-0.6l0.6,1.1c-0.8,0.5-1.7,0.9-2.8,0.9C211.1,61.2,209.3,59.6,209.3,56.9z M215,56.1
						c0-1.4-0.6-2.2-1.8-2.2c-1,0-2,0.8-2.1,2.2H215z"/>
					<path class="st9" d="M218.3,57.9v-5.2h1.7v5c0,1.4,0.4,2,1.4,2c0.8,0,1.3-0.4,2-1.2v-5.7h1.7V61h-1.4l-0.1-1.2h0
						c-0.8,0.9-1.6,1.4-2.7,1.4C219.1,61.2,218.3,60,218.3,57.9z"/>
					<path class="st9" d="M228,58.3v-4.2h-1.2v-1.3l1.3-0.1l0.2-2.3h1.5v2.3h2.1v1.4h-2.1v4.2c0,1,0.3,1.5,1.2,1.5
						c0.3,0,0.6-0.1,0.9-0.2l0.3,1.3c-0.5,0.2-1,0.3-1.6,0.3C228.6,61.2,228,60,228,58.3z"/>
					<path class="st9" d="M233.4,50.2c0-0.6,0.5-1,1.1-1c0.6,0,1.1,0.4,1.1,1c0,0.6-0.5,1-1.1,1C233.9,51.2,233.4,50.8,233.4,50.2z
						 M233.6,52.8h1.7V61h-1.7V52.8z"/>
					<path class="st9" d="M237.4,56.9c0-2.8,1.9-4.4,4.1-4.4c1,0,1.8,0.4,2.4,0.9l-0.9,1.1c-0.4-0.4-0.9-0.6-1.5-0.6
						c-1.4,0-2.4,1.2-2.4,2.9c0,1.7,0.9,2.9,2.3,2.9c0.7,0,1.3-0.3,1.8-0.8l0.7,1.1c-0.7,0.7-1.7,1-2.7,1
						C239.1,61.2,237.4,59.6,237.4,56.9z"/>
					<path class="st9" d="M245,58.8c0-1.8,1.5-2.7,4.9-3.1c0-1-0.4-1.8-1.6-1.8c-0.9,0-1.7,0.4-2.4,0.8l-0.6-1.2
						c0.9-0.5,2-1.1,3.3-1.1c2.1,0,3,1.3,3,3.5v5h-1.4l-0.1-0.9h0c-0.8,0.6-1.6,1.1-2.6,1.1C246.1,61.2,245,60.3,245,58.8z
						 M250,58.9v-2c-2.4,0.3-3.3,0.9-3.3,1.8c0,0.8,0.6,1.1,1.3,1.1C248.7,59.8,249.3,59.5,250,58.9z"/>
					<path class="st9" d="M254.2,59.1V49h1.7v10.1c0,0.5,0.2,0.6,0.4,0.6c0.1,0,0.1,0,0.3,0l0.2,1.3c-0.2,0.1-0.5,0.1-0.9,0.1
						C254.6,61.2,254.2,60.4,254.2,59.1z"/>
					<path class="st9" d="M257.8,60.1l0.8-1.1c0.7,0.6,1.5,0.9,2.3,0.9c1,0,1.5-0.5,1.5-1.1c0-0.8-0.9-1.1-1.8-1.4
						c-1.1-0.4-2.4-1-2.4-2.4c0-1.4,1.1-2.4,2.9-2.4c1.1,0,2,0.5,2.7,1l-0.8,1.1c-0.6-0.4-1.2-0.7-1.8-0.7c-0.9,0-1.3,0.5-1.3,1
						c0,0.7,0.9,1,1.8,1.3c1.2,0.4,2.4,0.9,2.4,2.5c0,1.4-1.1,2.5-3.1,2.5C259.7,61.2,258.5,60.7,257.8,60.1z"/>
					<path class="st9" d="M268.3,52.8h1.7l1.1,4.5c0.2,0.8,0.3,1.6,0.4,2.3h0.1c0.2-0.8,0.3-1.6,0.5-2.3l1.2-4.5h1.6l1.2,4.5
						c0.2,0.8,0.4,1.6,0.6,2.3h0.1c0.2-0.8,0.3-1.5,0.5-2.3l1.1-4.5h1.6l-2.1,8.2h-2.1l-1-4.1c-0.2-0.8-0.3-1.5-0.5-2.4h-0.1
						c-0.2,0.9-0.3,1.6-0.5,2.4l-1,4.1h-2L268.3,52.8z"/>
					<path class="st9" d="M281.4,50.2c0-0.6,0.5-1,1.1-1c0.6,0,1.1,0.4,1.1,1c0,0.6-0.5,1-1.1,1C281.8,51.2,281.4,50.8,281.4,50.2z
						 M281.6,52.8h1.7V61h-1.7V52.8z"/>
					<path class="st9" d="M286.2,58.3v-4.2H285v-1.3l1.3-0.1l0.2-2.3h1.5v2.3h2.1v1.4h-2.1v4.2c0,1,0.3,1.5,1.2,1.5
						c0.3,0,0.6-0.1,0.9-0.2l0.3,1.3c-0.5,0.2-1,0.3-1.6,0.3C286.8,61.2,286.2,60,286.2,58.3z"/>
					<path class="st9" d="M291.9,49h1.7v3.2l-0.1,1.6c0.7-0.7,1.5-1.3,2.7-1.3c1.8,0,2.5,1.2,2.5,3.3V61H297v-5c0-1.4-0.4-2-1.4-2
						c-0.8,0-1.3,0.4-2,1.1V61h-1.7V49z"/>
				</g>
				<text transform="matrix(1 0 0 1 299.8719 52)" class="st9 st10 st4"> </text>
				<g class="st1">
					<path class="st9" d="M42.1,92.8h1.4l0.1,0.9h0c0.7-0.6,1.6-1.1,2.5-1.1c2.1,0,3.3,1.7,3.3,4.2c0,2.8-1.7,4.5-3.6,4.5
						c-0.7,0-1.5-0.3-2.2-0.9l0,1.4v2.7h-1.7V92.8z M47.7,96.8c0-1.7-0.6-2.8-1.9-2.8c-0.6,0-1.3,0.3-2,1v4c0.6,0.6,1.3,0.8,1.8,0.8
						C46.8,99.8,47.7,98.7,47.7,96.8z"/>
					<path class="st9" d="M50.9,96.9c0-2.8,1.8-4.4,3.9-4.4c2,0,3.9,1.6,3.9,4.4c0,2.7-1.8,4.3-3.9,4.3
						C52.8,101.2,50.9,99.6,50.9,96.9z M56.9,96.9c0-1.8-0.8-2.9-2.1-2.9c-1.3,0-2.1,1.2-2.1,2.9c0,1.7,0.8,2.9,2.1,2.9
						C56.1,99.8,56.9,98.6,56.9,96.9z"/>
					<path class="st9" d="M60.7,98.3v-4.2h-1.2v-1.3l1.3-0.1l0.2-2.3h1.5v2.3h2.1v1.4h-2.1v4.2c0,1,0.3,1.5,1.2,1.5
						c0.3,0,0.6-0.1,0.9-0.2l0.3,1.3c-0.5,0.2-1,0.3-1.6,0.3C61.3,101.2,60.7,100,60.7,98.3z"/>
					<path class="st9" d="M65.5,96.9c0-2.7,1.8-4.4,3.8-4.4c2.2,0,3.4,1.6,3.4,3.9c0,0.3,0,0.7-0.1,0.9h-5.4
						c0.1,1.6,1.1,2.5,2.5,2.5c0.7,0,1.4-0.2,2-0.6l0.6,1.1c-0.8,0.5-1.7,0.9-2.8,0.9C67.3,101.2,65.5,99.6,65.5,96.9z M71.1,96.1
						c0-1.4-0.6-2.2-1.8-2.2c-1,0-1.9,0.8-2.1,2.2H71.1z"/>
					<path class="st9" d="M74.5,92.8H76l0.1,1.1h0c0.8-0.7,1.6-1.4,2.7-1.4c1.8,0,2.5,1.2,2.5,3.3v5.2h-1.7v-5c0-1.4-0.4-2-1.4-2
						c-0.8,0-1.3,0.4-2,1.1v5.8h-1.7V92.8z"/>
					<path class="st9" d="M84.2,98.3v-4.2H83v-1.3l1.3-0.1l0.2-2.3h1.5v2.3H88v1.4h-2.1v4.2c0,1,0.3,1.5,1.2,1.5
						c0.3,0,0.6-0.1,0.9-0.2l0.3,1.3c-0.5,0.2-1,0.3-1.6,0.3C84.8,101.2,84.2,100,84.2,98.3z"/>
					<path class="st9" d="M93.2,92.8h1.4l0.1,0.9h0c0.7-0.6,1.6-1.1,2.5-1.1c2.1,0,3.3,1.7,3.3,4.2c0,2.8-1.7,4.5-3.6,4.5
						c-0.7,0-1.5-0.3-2.2-0.9l0,1.4v2.7h-1.7V92.8z M98.8,96.8c0-1.7-0.6-2.8-1.9-2.8c-0.6,0-1.3,0.3-2,1v4c0.6,0.6,1.3,0.8,1.8,0.8
						C97.9,99.8,98.8,98.7,98.8,96.8z"/>
					<path class="st9" d="M102.7,92.8h1.4l0.1,1.5h0c0.6-1.1,1.5-1.7,2.3-1.7c0.4,0,0.7,0.1,0.9,0.2l-0.3,1.5
						c-0.3-0.1-0.5-0.1-0.8-0.1c-0.7,0-1.5,0.5-2,1.8v5.1h-1.7V92.8z"/>
					<path class="st9" d="M108.1,96.9c0-2.8,1.8-4.4,3.9-4.4c2,0,3.9,1.6,3.9,4.4c0,2.7-1.8,4.3-3.9,4.3
						C109.9,101.2,108.1,99.6,108.1,96.9z M114.1,96.9c0-1.8-0.8-2.9-2.1-2.9c-1.3,0-2.1,1.2-2.1,2.9c0,1.7,0.8,2.9,2.1,2.9
						C113.2,99.8,114.1,98.6,114.1,96.9z"/>
					<path class="st9" d="M117.8,98.3v-4.2h-1.2v-1.3l1.3-0.1l0.2-2.3h1.5v2.3h2.1v1.4h-2.1v4.2c0,1,0.3,1.5,1.2,1.5
						c0.3,0,0.6-0.1,0.9-0.2l0.3,1.3c-0.5,0.2-1,0.3-1.6,0.3C118.4,101.2,117.8,100,117.8,98.3z"/>
					<path class="st9" d="M122.6,96.9c0-2.7,1.8-4.4,3.8-4.4c2.2,0,3.4,1.6,3.4,3.9c0,0.3,0,0.7-0.1,0.9h-5.4
						c0.1,1.6,1.1,2.5,2.5,2.5c0.7,0,1.4-0.2,2-0.6l0.6,1.1c-0.8,0.5-1.7,0.9-2.8,0.9C124.4,101.2,122.6,99.6,122.6,96.9z
						 M128.2,96.1c0-1.4-0.6-2.2-1.8-2.2c-1,0-1.9,0.8-2.1,2.2H128.2z"/>
					<path class="st9" d="M131.1,96.9c0-2.8,1.9-4.4,4.1-4.4c1,0,1.8,0.4,2.4,0.9l-0.9,1.1c-0.5-0.4-0.9-0.6-1.5-0.6
						c-1.4,0-2.4,1.2-2.4,2.9c0,1.7,0.9,2.9,2.3,2.9c0.7,0,1.3-0.3,1.8-0.8l0.7,1.1c-0.7,0.7-1.7,1-2.7,1
						C132.8,101.2,131.1,99.6,131.1,96.9z"/>
					<path class="st9" d="M139.5,98.3v-4.2h-1.2v-1.3l1.3-0.1l0.2-2.3h1.5v2.3h2.1v1.4h-2.1v4.2c0,1,0.3,1.5,1.2,1.5
						c0.3,0,0.6-0.1,0.9-0.2l0.3,1.3c-0.5,0.2-1,0.3-1.6,0.3C140.2,101.2,139.5,100,139.5,98.3z"/>
					<path class="st9" d="M145,90.2c0-0.6,0.5-1,1.1-1c0.6,0,1.1,0.4,1.1,1c0,0.6-0.5,1-1.1,1C145.4,91.2,145,90.8,145,90.2z
						 M145.2,92.8h1.7v8.2h-1.7V92.8z"/>
					<path class="st9" d="M148.4,92.8h1.8l1.4,4.4c0.2,0.8,0.5,1.6,0.7,2.5h0.1c0.2-0.8,0.5-1.7,0.7-2.5l1.4-4.4h1.7l-2.9,8.2h-2
						L148.4,92.8z"/>
					<path class="st9" d="M157,96.9c0-2.7,1.8-4.4,3.8-4.4c2.2,0,3.4,1.6,3.4,3.9c0,0.3,0,0.7-0.1,0.9h-5.4c0.1,1.6,1.1,2.5,2.5,2.5
						c0.7,0,1.4-0.2,2-0.6l0.6,1.1c-0.8,0.5-1.7,0.9-2.8,0.9C158.8,101.2,157,99.6,157,96.9z M162.6,96.1c0-1.4-0.6-2.2-1.8-2.2
						c-1,0-1.9,0.8-2.1,2.2H162.6z"/>
					<path class="st9" d="M169.1,89h1.2l-4.2,14.7h-1.2L169.1,89z"/>
					<path class="st9" d="M171,98.8c0-1.8,1.5-2.7,4.9-3.1c0-1-0.4-1.8-1.6-1.8c-0.9,0-1.7,0.4-2.4,0.8l-0.6-1.2
						c0.9-0.5,2-1.1,3.3-1.1c2.1,0,3,1.3,3,3.5v5h-1.4l-0.2-0.9h0c-0.8,0.6-1.6,1.1-2.6,1.1C172,101.2,171,100.3,171,98.8z
						 M175.9,98.9v-2c-2.4,0.3-3.3,0.9-3.3,1.8c0,0.8,0.6,1.1,1.3,1.1C174.7,99.8,175.3,99.5,175.9,98.9z"/>
					<path class="st9" d="M180.1,92.8h1.4l0.1,1.1h0c0.8-0.7,1.6-1.4,2.7-1.4c1.8,0,2.5,1.2,2.5,3.3v5.2h-1.7v-5c0-1.4-0.4-2-1.4-2
						c-0.8,0-1.3,0.4-2,1.1v5.8h-1.7V92.8z"/>
					<path class="st9" d="M189.7,98.3v-4.2h-1.2v-1.3l1.3-0.1l0.2-2.3h1.5v2.3h2.1v1.4h-2.1v4.2c0,1,0.3,1.5,1.2,1.5
						c0.3,0,0.6-0.1,0.9-0.2l0.3,1.3c-0.5,0.2-1,0.3-1.6,0.3C190.4,101.2,189.7,100,189.7,98.3z"/>
					<path class="st9" d="M195.2,90.2c0-0.6,0.5-1,1.1-1s1.1,0.4,1.1,1c0,0.6-0.5,1-1.1,1S195.2,90.8,195.2,90.2z M195.4,92.8h1.7
						v8.2h-1.7V92.8z"/>
					<path class="st9" d="M199.1,96.1h4v1.3h-4V96.1z"/>
					<path class="st9" d="M204.6,98.8c0-1.8,1.5-2.7,4.9-3.1c0-1-0.4-1.8-1.6-1.8c-0.9,0-1.7,0.4-2.4,0.8l-0.6-1.2
						c0.9-0.5,2-1.1,3.3-1.1c2.1,0,3,1.3,3,3.5v5h-1.4l-0.1-0.9h0c-0.8,0.6-1.6,1.1-2.6,1.1C205.6,101.2,204.6,100.3,204.6,98.8z
						 M209.5,98.9v-2c-2.4,0.3-3.3,0.9-3.3,1.8c0,0.8,0.6,1.1,1.3,1.1C208.3,99.8,208.9,99.5,209.5,98.9z"/>
					<path class="st9" d="M213.1,102.5c0-0.7,0.4-1.3,1.2-1.8v-0.1c-0.4-0.3-0.8-0.7-0.8-1.4c0-0.6,0.5-1.2,0.9-1.5v-0.1
						c-0.6-0.4-1.1-1.2-1.1-2.2c0-1.9,1.5-3,3.2-3c0.5,0,0.9,0.1,1.2,0.2h2.9V94h-1.6c0.3,0.3,0.5,0.9,0.5,1.5
						c0,1.8-1.4,2.8-3.1,2.8c-0.4,0-0.8-0.1-1.2-0.3c-0.3,0.2-0.4,0.5-0.4,0.9c0,0.5,0.3,0.8,1.4,0.8h1.5c2,0,3,0.6,3,2
						c0,1.6-1.7,2.9-4.3,2.9C214.5,104.7,213.1,104,213.1,102.5z M219.2,102.1c0-0.7-0.5-0.9-1.5-0.9h-1.2c-0.4,0-0.8,0-1.1-0.1
						c-0.5,0.4-0.7,0.8-0.7,1.2c0,0.8,0.8,1.3,2.2,1.3C218.2,103.6,219.2,102.9,219.2,102.1z M218.1,95.5c0-1.1-0.7-1.8-1.6-1.8
						s-1.6,0.6-1.6,1.8c0,1.1,0.7,1.8,1.6,1.8S218.1,96.6,218.1,95.5z"/>
					<path class="st9" d="M222.1,90.2c0-0.6,0.5-1,1.1-1c0.6,0,1.1,0.4,1.1,1c0,0.6-0.5,1-1.1,1C222.6,91.2,222.1,90.8,222.1,90.2z
						 M222.4,92.8h1.7v8.2h-1.7V92.8z"/>
					<path class="st9" d="M226.7,92.8h1.4l0.1,1.1h0c0.8-0.7,1.6-1.4,2.7-1.4c1.8,0,2.5,1.2,2.5,3.3v5.2h-1.7v-5c0-1.4-0.4-2-1.4-2
						c-0.8,0-1.3,0.4-2,1.1v5.8h-1.7V92.8z"/>
					<path class="st9" d="M235.4,102.5c0-0.7,0.4-1.3,1.2-1.8v-0.1c-0.4-0.3-0.8-0.7-0.8-1.4c0-0.6,0.5-1.2,0.9-1.5v-0.1
						c-0.6-0.4-1.1-1.2-1.1-2.2c0-1.9,1.5-3,3.2-3c0.5,0,0.9,0.1,1.2,0.2h2.9V94h-1.6c0.3,0.3,0.5,0.9,0.5,1.5
						c0,1.8-1.4,2.8-3.1,2.8c-0.4,0-0.8-0.1-1.2-0.3c-0.3,0.2-0.5,0.5-0.5,0.9c0,0.5,0.3,0.8,1.4,0.8h1.5c2,0,3,0.6,3,2
						c0,1.6-1.7,2.9-4.3,2.9C236.9,104.7,235.4,104,235.4,102.5z M241.5,102.1c0-0.7-0.5-0.9-1.5-0.9h-1.2c-0.4,0-0.8,0-1.1-0.1
						c-0.5,0.4-0.7,0.8-0.7,1.2c0,0.8,0.8,1.3,2.2,1.3C240.5,103.6,241.5,102.9,241.5,102.1z M240.5,95.5c0-1.1-0.7-1.8-1.6-1.8
						c-0.9,0-1.6,0.6-1.6,1.8c0,1.1,0.7,1.8,1.6,1.8C239.8,97.3,240.5,96.6,240.5,95.5z"/>
					<path class="st9" d="M247.5,96.9c0-2.7,1.8-4.4,3.8-4.4c2.2,0,3.4,1.6,3.4,3.9c0,0.3,0,0.7-0.1,0.9h-5.4
						c0.1,1.6,1.1,2.5,2.5,2.5c0.7,0,1.4-0.2,2-0.6l0.6,1.1c-0.8,0.5-1.7,0.9-2.8,0.9C249.3,101.2,247.5,99.6,247.5,96.9z
						 M253.1,96.1c0-1.4-0.6-2.2-1.8-2.2c-1,0-1.9,0.8-2.1,2.2H253.1z"/>
					<path class="st9" d="M265.5,90.4c-0.3-0.1-0.6-0.2-0.9-0.2c-0.7,0-1.1,0.5-1.1,1.5v1h1.7v1.4h-1.7v6.9h-1.7v-6.9h-3.2v6.9h-1.7
						v-6.9h-1.1v-1.3l1.1-0.1v-0.9c0-1.7,0.9-2.9,2.7-2.9c0.6,0,1.2,0.1,1.6,0.3l-0.3,1.3c-0.3-0.2-0.6-0.2-1.1-0.2
						c-0.7,0-1.2,0.5-1.2,1.5v0.9h3.2v-1c0-1.7,0.8-2.9,2.6-2.9c0.6,0,1.1,0.1,1.5,0.3L265.5,90.4z"/>
					<path class="st9" d="M265.9,96.9c0-2.7,1.8-4.4,3.8-4.4c2.2,0,3.4,1.6,3.4,3.9c0,0.3,0,0.7-0.1,0.9h-5.4
						c0.1,1.6,1.1,2.5,2.5,2.5c0.7,0,1.4-0.2,2-0.6l0.6,1.1c-0.8,0.5-1.7,0.9-2.8,0.9C267.7,101.2,265.9,99.6,265.9,96.9z
						 M271.6,96.1c0-1.4-0.6-2.2-1.8-2.2c-1,0-1.9,0.8-2.1,2.2H271.6z"/>
					<path class="st9" d="M274.4,96.9c0-2.8,1.9-4.4,4.1-4.4c1,0,1.8,0.4,2.4,0.9l-0.9,1.1c-0.5-0.4-0.9-0.6-1.5-0.6
						c-1.4,0-2.4,1.2-2.4,2.9c0,1.7,0.9,2.9,2.3,2.9c0.7,0,1.3-0.3,1.8-0.8l0.7,1.1c-0.8,0.7-1.7,1-2.7,1
						C276.1,101.2,274.4,99.6,274.4,96.9z"/>
					<path class="st9" d="M282.8,98.3v-4.2h-1.2v-1.3l1.3-0.1l0.2-2.3h1.5v2.3h2.1v1.4h-2.1v4.2c0,1,0.3,1.5,1.2,1.5
						c0.3,0,0.6-0.1,0.9-0.2l0.3,1.3c-0.5,0.2-1,0.3-1.6,0.3C283.5,101.2,282.8,100,282.8,98.3z"/>
					<path class="st9" d="M287.5,100.1l0.8-1.1c0.7,0.6,1.5,0.9,2.3,0.9c1,0,1.5-0.5,1.5-1.1c0-0.8-0.9-1.1-1.8-1.4
						c-1.1-0.4-2.4-1-2.4-2.4c0-1.4,1.1-2.4,2.9-2.4c1.1,0,2,0.5,2.7,1l-0.8,1.1c-0.6-0.4-1.2-0.7-1.8-0.7c-0.9,0-1.3,0.5-1.3,1
						c0,0.7,0.9,1,1.8,1.3c1.2,0.4,2.4,0.9,2.4,2.5c0,1.4-1.1,2.5-3.1,2.5C289.4,101.2,288.3,100.7,287.5,100.1z"/>
				</g>
			</g>
		</g>
	</g>
</g>
</svg>
