<?xml version="1.0" encoding="utf-8"?>
<!-- Generator: Adobe Illustrator 23.0.4, SVG Export Plug-In . SVG Version: 6.00 Build 0)  -->
<svg version="1.1" id="레이어_1" xmlns="http://www.w3.org/2000/svg" xmlns:xlink="http://www.w3.org/1999/xlink" x="0px"
	 y="0px" viewBox="0 0 1000 533" style="enable-background:new 0 0 1000 533;" xml:space="preserve">
<style type="text/css">
	.st0{fill-rule:evenodd;clip-rule:evenodd;fill:#B54142;fill-opacity:0.8;stroke:#961C1D;stroke-width:2;}
	.st1{enable-background:new    ;}
	.st2{fill:#FFFFFF;}
	.st3{font-family:'NotoSansKR-Medium-KSCpc-EUC-H';}
	.st4{font-size:20px;}
	.st5{font-family:'NotoSansKR-Light-KSCpc-EUC-H';}
	.st6{font-size:18px;}
	.st7{fill:none;stroke:#0E0E0E;stroke-width:2;stroke-linecap:square;}
	.st8{fill:none;stroke:#0E0E0E;stroke-width:2;stroke-linecap:round;stroke-linejoin:round;}
	.st9{fill:none;stroke:#B54142;stroke-width:2;}
	.st10{fill:#333333;}
</style>
<title>table</title>
<desc>Created with Sketch.</desc>
<g id="Page-1">
	<g transform="translate(-220.000000, -570.000000)">
		<g id="first" transform="translate(190.000000, 420.000000)">
			<g id="table" transform="translate(30.000000, 150.000000)">
				<g id="box1">
					<path id="bg" class="st0" d="M9,1h982c4.4,0,8,3.6,8,8v235c0,4.4-3.6,8-8,8H9c-4.4,0-8-3.6-8-8V9C1,4.6,4.6,1,9,1z"/>
					<g class="st1">
						<path class="st2" d="M238.9,43.3h2.3V58h-2.3V43.3z"/>
						<path class="st2" d="M244.9,47h1.9l0.2,1.5h0.1c1-1,2.1-1.8,3.6-1.8c2.3,0,3.4,1.6,3.4,4.4V58h-2.3v-6.6
							c0-1.9-0.6-2.7-1.9-2.7c-1,0-1.7,0.5-2.7,1.5V58h-2.3V47z"/>
						<path class="st2" d="M257.4,47h1.9l0.2,1.5h0.1c1-1,2.1-1.8,3.6-1.8c2.3,0,3.4,1.6,3.4,4.4V58h-2.3v-6.6
							c0-1.9-0.6-2.7-1.9-2.7c-1,0-1.7,0.5-2.7,1.5V58h-2.3V47z"/>
						<path class="st2" d="M269.1,52.5c0-3.7,2.5-5.8,5.2-5.8c2.7,0,5.2,2.1,5.2,5.8c0,3.6-2.5,5.7-5.2,5.7
							C271.6,58.3,269.1,56.2,269.1,52.5z M277.1,52.5c0-2.3-1.1-3.9-2.8-3.9c-1.7,0-2.8,1.6-2.8,3.9c0,2.3,1.1,3.9,2.8,3.9
							C276,56.4,277.1,54.8,277.1,52.5z"/>
						<path class="st2" d="M280.6,47h2.4l1.9,5.9c0.3,1.1,0.6,2.2,1,3.3h0.1c0.3-1.1,0.7-2.2,1-3.3l1.9-5.9h2.2l-3.8,11h-2.7
							L280.6,47z"/>
						<path class="st2" d="M291.9,55.1c0-2.4,2-3.6,6.6-4.1c0-1.3-0.5-2.4-2.1-2.4c-1.2,0-2.2,0.5-3.2,1.1l-0.9-1.6
							c1.1-0.7,2.7-1.4,4.4-1.4c2.7,0,4,1.7,4,4.7V58h-1.9l-0.2-1.3h-0.1c-1,0.9-2.2,1.5-3.5,1.5C293.2,58.3,291.9,57,291.9,55.1z
							 M298.4,55.2v-2.7c-3.3,0.4-4.4,1.2-4.4,2.5c0,1.1,0.7,1.5,1.7,1.5C296.8,56.4,297.5,56,298.4,55.2z"/>
						<path class="st2" d="M304,54.4v-5.6h-1.6v-1.7l1.7-0.1l0.3-3h1.9v3h2.9v1.8h-2.9v5.6c0,1.3,0.5,2,1.6,2c0.4,0,0.9-0.1,1.2-0.3
							l0.4,1.7c-0.6,0.2-1.4,0.4-2.2,0.4C304.9,58.3,304,56.7,304,54.4z"/>
						<path class="st2" d="M311.3,43.6c0-0.8,0.6-1.4,1.5-1.4c0.8,0,1.5,0.5,1.5,1.4c0,0.8-0.6,1.4-1.5,1.4
							C311.9,44.9,311.3,44.4,311.3,43.6z M311.6,47h2.3v11h-2.3V47z"/>
						<path class="st2" d="M315.8,47h2.4l1.9,5.9c0.3,1.1,0.6,2.2,1,3.3h0.1c0.3-1.1,0.7-2.2,1-3.3L324,47h2.2l-3.8,11h-2.7
							L315.8,47z"/>
						<path class="st2" d="M327.3,52.5c0-3.6,2.4-5.8,5-5.8c2.9,0,4.5,2.1,4.5,5.2c0,0.4,0,0.9-0.1,1.2h-7.1
							c0.2,2.1,1.5,3.4,3.4,3.4c1,0,1.8-0.3,2.6-0.8l0.8,1.5c-1,0.7-2.3,1.2-3.7,1.2C329.7,58.3,327.3,56.1,327.3,52.5z M334.8,51.5
							c0-1.9-0.9-3-2.5-3c-1.4,0-2.6,1.1-2.8,3H334.8z"/>
						<path class="st2" d="M343.2,52.5c0-3.6,2.3-5.8,4.7-5.8c1.3,0,2.1,0.5,3,1.2l-0.1-1.8v-4.1h2.3V58h-1.9l-0.2-1.2h-0.1
							c-0.8,0.8-2,1.5-3.2,1.5C344.9,58.3,343.2,56.2,343.2,52.5z M350.7,55v-5.4c-0.8-0.7-1.6-1-2.4-1c-1.5,0-2.8,1.5-2.8,3.8
							c0,2.5,1,3.9,2.7,3.9C349.2,56.4,349.9,55.9,350.7,55z"/>
						<path class="st2" d="M356.5,47h1.9l0.2,2h0.1c0.8-1.4,1.9-2.3,3.1-2.3c0.5,0,0.9,0.1,1.2,0.2l-0.4,2c-0.4-0.1-0.7-0.2-1.1-0.2
							c-0.9,0-2,0.6-2.7,2.4V58h-2.3V47z"/>
						<path class="st2" d="M364.5,53.9V47h2.3v6.6c0,1.9,0.5,2.6,1.8,2.6c1,0,1.7-0.5,2.6-1.6V47h2.3v11h-1.9l-0.2-1.7h-0.1
							c-1,1.2-2.1,1.9-3.6,1.9C365.6,58.3,364.5,56.7,364.5,53.9z"/>
						<path class="st2" d="M376.3,60c0-0.9,0.6-1.8,1.6-2.4v-0.1c-0.6-0.3-1-0.9-1-1.8c0-0.9,0.6-1.6,1.2-2v-0.1
							c-0.7-0.6-1.4-1.6-1.4-2.9c0-2.5,2-4,4.3-4c0.6,0,1.2,0.1,1.6,0.3h3.9v1.7h-2.1c0.4,0.4,0.7,1.2,0.7,2c0,2.4-1.8,3.8-4.1,3.8
							c-0.5,0-1.1-0.1-1.5-0.3c-0.4,0.3-0.6,0.6-0.6,1.2c0,0.7,0.4,1.1,1.8,1.1h2c2.6,0,4,0.8,4,2.7c0,2.1-2.2,3.8-5.8,3.8
							C378.2,62.9,376.3,62,376.3,60z M384.4,59.5c0-0.9-0.7-1.2-2.1-1.2h-1.7c-0.5,0-1-0.1-1.5-0.2c-0.7,0.5-0.9,1-0.9,1.6
							c0,1.1,1.1,1.7,2.9,1.7C383.1,61.4,384.4,60.5,384.4,59.5z M383,50.7c0-1.5-0.9-2.3-2.1-2.3s-2.1,0.8-2.1,2.3
							c0,1.5,0.9,2.4,2.1,2.4C382.1,53,383,52.1,383,50.7z"/>
						<path class="st2" d="M387.5,56.7l1.1-1.5c1,0.8,1.9,1.3,3.1,1.3c1.3,0,1.9-0.6,1.9-1.5c0-1-1.2-1.4-2.4-1.9
							c-1.5-0.6-3.1-1.3-3.1-3.2c0-1.8,1.5-3.2,3.9-3.2c1.5,0,2.7,0.6,3.6,1.3l-1.1,1.4c-0.8-0.6-1.5-1-2.5-1
							c-1.2,0-1.8,0.6-1.8,1.4c0,0.9,1.1,1.3,2.3,1.7c1.5,0.6,3.2,1.3,3.2,3.3c0,1.8-1.5,3.3-4.2,3.3
							C390.1,58.3,388.5,57.6,387.5,56.7z"/>
						<path class="st2" d="M402,52.5c0-3.6,2.3-5.8,4.7-5.8c1.3,0,2.1,0.5,3,1.2l-0.1-1.8v-4.1h2.3V58H410l-0.2-1.2h-0.1
							c-0.8,0.8-2,1.5-3.2,1.5C403.8,58.3,402,56.2,402,52.5z M409.6,55v-5.4c-0.8-0.7-1.6-1-2.4-1c-1.5,0-2.8,1.5-2.8,3.8
							c0,2.5,1,3.9,2.7,3.9C408,56.4,408.8,55.9,409.6,55z"/>
						<path class="st2" d="M414.6,52.5c0-3.6,2.4-5.8,5-5.8c2.9,0,4.5,2.1,4.5,5.2c0,0.4,0,0.9-0.1,1.2h-7.1
							c0.2,2.1,1.5,3.4,3.4,3.4c1,0,1.8-0.3,2.6-0.8l0.8,1.5c-1,0.7-2.3,1.2-3.7,1.2C416.9,58.3,414.6,56.1,414.6,52.5z M422.1,51.5
							c0-1.9-0.9-3-2.5-3c-1.4,0-2.6,1.1-2.8,3H422.1z"/>
						<path class="st2" d="M426.6,47h1.9l0.2,2h0.1c0.8-1.4,1.9-2.3,3.1-2.3c0.5,0,0.9,0.1,1.2,0.2l-0.4,2c-0.4-0.1-0.7-0.2-1.1-0.2
							c-0.9,0-2,0.6-2.7,2.4V58h-2.3V47z"/>
						<path class="st2" d="M434.5,43.6c0-0.8,0.6-1.4,1.5-1.4c0.8,0,1.5,0.5,1.5,1.4c0,0.8-0.6,1.4-1.5,1.4
							C435.1,44.9,434.5,44.4,434.5,43.6z M434.8,47h2.3v11h-2.3V47z"/>
						<path class="st2" d="M439.1,47h2.4l1.9,5.9c0.3,1.1,0.6,2.2,1,3.3h0.1c0.3-1.1,0.7-2.2,1-3.3l1.9-5.9h2.2l-3.8,11H443
							L439.1,47z"/>
						<path class="st2" d="M450.6,52.5c0-3.6,2.4-5.8,5-5.8c2.9,0,4.5,2.1,4.5,5.2c0,0.4,0,0.9-0.1,1.2h-7.1
							c0.2,2.1,1.5,3.4,3.4,3.4c1,0,1.8-0.3,2.6-0.8l0.8,1.5c-1,0.7-2.3,1.2-3.7,1.2C452.9,58.3,450.6,56.1,450.6,52.5z M458.1,51.5
							c0-1.9-0.9-3-2.5-3c-1.4,0-2.6,1.1-2.8,3H458.1z"/>
						<path class="st2" d="M461.9,52.5c0-3.6,2.3-5.8,4.7-5.8c1.3,0,2.1,0.5,3,1.2l-0.1-1.8v-4.1h2.3V58h-1.9l-0.2-1.2h-0.1
							c-0.8,0.8-2,1.5-3.2,1.5C463.7,58.3,461.9,56.2,461.9,52.5z M469.5,55v-5.4c-0.8-0.7-1.6-1-2.4-1c-1.5,0-2.8,1.5-2.8,3.8
							c0,2.5,1,3.9,2.7,3.9C467.9,56.4,468.7,55.9,469.5,55z"/>
						<path class="st2" d="M485.1,43.9c-0.4-0.2-0.8-0.3-1.2-0.3c-1,0-1.5,0.6-1.5,2V47h2.2v1.8h-2.2V58h-2.3v-9.2h-1.5v-1.7
							l1.5-0.1v-1.4c0-2.3,1-3.8,3.5-3.8c0.7,0,1.4,0.2,1.9,0.4L485.1,43.9z"/>
						<path class="st2" d="M486.6,47h1.9l0.2,2h0.1c0.8-1.4,1.9-2.3,3.1-2.3c0.5,0,0.9,0.1,1.2,0.2l-0.4,2c-0.4-0.1-0.7-0.2-1.1-0.2
							c-0.9,0-2,0.6-2.7,2.4V58h-2.3V47z"/>
						<path class="st2" d="M493.8,52.5c0-3.7,2.5-5.8,5.2-5.8c2.7,0,5.2,2.1,5.2,5.8c0,3.6-2.5,5.7-5.2,5.7
							C496.3,58.3,493.8,56.2,493.8,52.5z M501.8,52.5c0-2.3-1.1-3.9-2.8-3.9c-1.7,0-2.8,1.6-2.8,3.9c0,2.3,1.1,3.9,2.8,3.9
							C500.7,56.4,501.8,54.8,501.8,52.5z"/>
						<path class="st2" d="M506.9,47h1.9l0.2,1.5h0.1c0.9-1,2-1.8,3.4-1.8c1.6,0,2.6,0.8,3,2c1.1-1.2,2.2-2,3.6-2
							c2.3,0,3.4,1.6,3.4,4.4V58h-2.3v-6.6c0-1.9-0.6-2.7-1.8-2.7c-0.8,0-1.6,0.5-2.5,1.5V58h-2.3v-6.6c0-1.9-0.6-2.7-1.8-2.7
							c-0.7,0-1.6,0.5-2.5,1.5V58h-2.3V47z"/>
						<path class="st2" d="M532.3,56.9L532.3,56.9L532,58h-1.8V42.1h2.3v4.2l-0.1,1.9c0.9-0.8,2.1-1.4,3.3-1.4
							c2.8,0,4.4,2.2,4.4,5.6c0,3.8-2.3,5.9-4.7,5.9C534.3,58.3,533.2,57.8,532.3,56.9z M537.7,52.4c0-2.3-0.7-3.7-2.6-3.7
							c-0.9,0-1.7,0.4-2.6,1.3v5.4c0.8,0.7,1.7,1,2.4,1C536.5,56.4,537.7,54.9,537.7,52.4z"/>
						<path class="st2" d="M542,52.5c0-3.7,2.5-5.8,5.2-5.8s5.2,2.1,5.2,5.8c0,3.6-2.5,5.7-5.2,5.7S542,56.2,542,52.5z M550,52.5
							c0-2.3-1.1-3.9-2.8-3.9c-1.7,0-2.8,1.6-2.8,3.9c0,2.3,1.1,3.9,2.8,3.9C548.9,56.4,550,54.8,550,52.5z"/>
						<path class="st2" d="M555,54.4v-5.6h-1.6v-1.7l1.7-0.1l0.3-3h1.9v3h2.9v1.8h-2.9v5.6c0,1.3,0.5,2,1.6,2c0.4,0,0.9-0.1,1.2-0.3
							l0.4,1.7c-0.6,0.2-1.4,0.4-2.2,0.4C555.8,58.3,555,56.7,555,54.4z"/>
						<path class="st2" d="M561.4,55.1c0-2.4,2-3.6,6.6-4.1c0-1.3-0.5-2.4-2.1-2.4c-1.2,0-2.2,0.5-3.2,1.1l-0.9-1.6
							c1.1-0.7,2.7-1.4,4.4-1.4c2.7,0,4,1.7,4,4.7V58h-1.9l-0.2-1.3h-0.1c-1,0.9-2.2,1.5-3.5,1.5C562.8,58.3,561.4,57,561.4,55.1z
							 M568,55.2v-2.7c-3.3,0.4-4.4,1.2-4.4,2.5c0,1.1,0.7,1.5,1.7,1.5C566.3,56.4,567.1,56,568,55.2z"/>
						<path class="st2" d="M573.6,47h1.9l0.2,1.5h0.1c1-1,2.1-1.8,3.6-1.8c2.3,0,3.4,1.6,3.4,4.4V58h-2.3v-6.6
							c0-1.9-0.6-2.7-1.9-2.7c-1,0-1.7,0.5-2.7,1.5V58h-2.3V47z"/>
						<path class="st2" d="M585.7,43.6c0-0.8,0.6-1.4,1.5-1.4c0.8,0,1.5,0.5,1.5,1.4c0,0.8-0.6,1.4-1.5,1.4
							C586.3,44.9,585.7,44.4,585.7,43.6z M586,47h2.3v11H586V47z"/>
						<path class="st2" d="M591,52.5c0-3.7,2.5-5.8,5.4-5.8c1.4,0,2.4,0.6,3.2,1.3l-1.1,1.5c-0.6-0.5-1.2-0.9-2-0.9
							c-1.8,0-3.2,1.6-3.2,3.9c0,2.3,1.3,3.9,3.1,3.9c0.9,0,1.7-0.4,2.4-1l0.9,1.5c-1,0.9-2.3,1.4-3.6,1.4
							C593.3,58.3,591,56.2,591,52.5z"/>
						<path class="st2" d="M601.3,55.1c0-2.4,2-3.6,6.6-4.1c0-1.3-0.5-2.4-2.1-2.4c-1.2,0-2.2,0.5-3.2,1.1l-0.9-1.6
							c1.1-0.7,2.7-1.4,4.4-1.4c2.7,0,4,1.7,4,4.7V58h-1.9l-0.2-1.3H608c-1,0.9-2.2,1.5-3.5,1.5C602.6,58.3,601.3,57,601.3,55.1z
							 M607.8,55.2v-2.7c-3.3,0.4-4.4,1.2-4.4,2.5c0,1.1,0.7,1.5,1.7,1.5C606.2,56.4,606.9,56,607.8,55.2z"/>
						<path class="st2" d="M613.4,55.4V42.1h2.3v13.5c0,0.6,0.3,0.8,0.6,0.8c0.1,0,0.2,0,0.4,0l0.3,1.7c-0.3,0.1-0.7,0.2-1.2,0.2
							C614,58.3,613.4,57.2,613.4,55.4z"/>
						<path class="st2" d="M622.7,56.7l1.1-1.5c1,0.8,1.9,1.3,3.1,1.3c1.3,0,1.9-0.6,1.9-1.5c0-1-1.2-1.4-2.4-1.9
							c-1.5-0.6-3.1-1.3-3.1-3.2c0-1.8,1.5-3.2,3.9-3.2c1.5,0,2.7,0.6,3.6,1.3l-1.1,1.4c-0.8-0.6-1.5-1-2.5-1
							c-1.2,0-1.8,0.6-1.8,1.4c0,0.9,1.1,1.3,2.3,1.7c1.5,0.6,3.2,1.3,3.2,3.3c0,1.8-1.5,3.3-4.2,3.3
							C625.3,58.3,623.8,57.6,622.7,56.7z"/>
						<path class="st2" d="M632.7,52.5c0-3.7,2.5-5.8,5.2-5.8s5.2,2.1,5.2,5.8c0,3.6-2.5,5.7-5.2,5.7S632.7,56.2,632.7,52.5z
							 M640.7,52.5c0-2.3-1.1-3.9-2.8-3.9c-1.7,0-2.8,1.6-2.8,3.9c0,2.3,1.1,3.9,2.8,3.9C639.6,56.4,640.7,54.8,640.7,52.5z"/>
						<path class="st2" d="M645.6,53.9V47h2.3v6.6c0,1.9,0.5,2.6,1.8,2.6c1,0,1.7-0.5,2.6-1.6V47h2.3v11h-1.9l-0.2-1.7h-0.1
							c-1,1.2-2.1,1.9-3.6,1.9C646.6,58.3,645.6,56.7,645.6,53.9z"/>
						<path class="st2" d="M658.1,47h1.9l0.2,2h0.1c0.8-1.4,1.9-2.3,3.1-2.3c0.5,0,0.9,0.1,1.2,0.2l-0.4,2c-0.4-0.1-0.7-0.2-1.1-0.2
							c-0.9,0-2,0.6-2.7,2.4V58h-2.3V47z"/>
						<path class="st2" d="M665.3,52.5c0-3.7,2.5-5.8,5.4-5.8c1.4,0,2.4,0.6,3.2,1.3l-1.1,1.5c-0.6-0.5-1.2-0.9-2-0.9
							c-1.8,0-3.2,1.6-3.2,3.9c0,2.3,1.3,3.9,3.1,3.9c0.9,0,1.7-0.4,2.4-1l0.9,1.5c-1,0.9-2.3,1.4-3.6,1.4
							C667.6,58.3,665.3,56.2,665.3,52.5z"/>
						<path class="st2" d="M675.1,52.5c0-3.6,2.4-5.8,5-5.8c2.9,0,4.5,2.1,4.5,5.2c0,0.4,0,0.9-0.1,1.2h-7.1
							c0.2,2.1,1.5,3.4,3.4,3.4c1,0,1.8-0.3,2.6-0.8l0.8,1.5c-1,0.7-2.3,1.2-3.7,1.2C677.5,58.3,675.1,56.1,675.1,52.5z M682.7,51.5
							c0-1.9-0.9-3-2.5-3c-1.4,0-2.6,1.1-2.8,3H682.7z"/>
						<path class="st2" d="M686.1,56.7l1.1-1.5c1,0.8,1.9,1.3,3.1,1.3c1.3,0,1.9-0.6,1.9-1.5c0-1-1.2-1.4-2.4-1.9
							c-1.5-0.6-3.1-1.3-3.1-3.2c0-1.8,1.5-3.2,3.9-3.2c1.5,0,2.7,0.6,3.6,1.3l-1.1,1.4c-0.8-0.6-1.5-1-2.5-1
							c-1.2,0-1.8,0.6-1.8,1.4c0,0.9,1.1,1.3,2.3,1.7c1.5,0.6,3.2,1.3,3.2,3.3c0,1.8-1.5,3.3-4.2,3.3
							C688.7,58.3,687.1,57.6,686.1,56.7z"/>
						<path class="st2" d="M706.7,43.9c-0.4-0.2-0.8-0.3-1.2-0.3c-1,0-1.5,0.6-1.5,2V47h2.2v1.8H704V58h-2.3v-9.2h-1.5v-1.7l1.5-0.1
							v-1.4c0-2.3,1-3.8,3.5-3.8c0.7,0,1.4,0.2,1.9,0.4L706.7,43.9z"/>
						<path class="st2" d="M707.2,52.5c0-3.7,2.5-5.8,5.2-5.8s5.2,2.1,5.2,5.8c0,3.6-2.5,5.7-5.2,5.7S707.2,56.2,707.2,52.5z
							 M715.2,52.5c0-2.3-1.1-3.9-2.8-3.9c-1.7,0-2.8,1.6-2.8,3.9c0,2.3,1.1,3.9,2.8,3.9C714.1,56.4,715.2,54.8,715.2,52.5z"/>
						<path class="st2" d="M720.3,47h1.9l0.2,2h0.1c0.8-1.4,1.9-2.3,3.1-2.3c0.5,0,0.9,0.1,1.2,0.2l-0.4,2c-0.4-0.1-0.7-0.2-1.1-0.2
							c-0.9,0-2,0.6-2.7,2.4V58h-2.3V47z"/>
						<path class="st2" d="M733.3,54.4v-5.6h-1.6v-1.7l1.7-0.1l0.3-3h1.9v3h2.9v1.8h-2.9v5.6c0,1.3,0.5,2,1.6,2
							c0.4,0,0.9-0.1,1.2-0.3l0.4,1.7c-0.6,0.2-1.4,0.4-2.2,0.4C734.2,58.3,733.3,56.7,733.3,54.4z"/>
						<path class="st2" d="M740.9,42.1h2.3v4.2l-0.1,2.2c1-0.9,2.1-1.7,3.6-1.7c2.3,0,3.4,1.6,3.4,4.4V58h-2.3v-6.6
							c0-1.9-0.6-2.7-1.9-2.7c-1,0-1.7,0.5-2.7,1.5V58h-2.3V42.1z"/>
						<path class="st2" d="M752.5,52.5c0-3.6,2.4-5.8,5-5.8c2.9,0,4.5,2.1,4.5,5.2c0,0.4,0,0.9-0.1,1.2h-7.1
							c0.2,2.1,1.5,3.4,3.4,3.4c1,0,1.8-0.3,2.6-0.8l0.8,1.5c-1,0.7-2.3,1.2-3.7,1.2C754.9,58.3,752.5,56.1,752.5,52.5z M760,51.5
							c0-1.9-0.9-3-2.5-3c-1.4,0-2.6,1.1-2.8,3H760z"/>
					</g>
					<text transform="matrix(1 0 0 1 762.8546 58)" class="st2 st3 st4"> </text>
					<g class="st1">
						<path class="st2" d="M239.1,83.4v-5.6h-1.6v-1.7l1.7-0.1l0.3-3h1.9v3h2.9v1.8h-2.9v5.6c0,1.3,0.5,2,1.6,2
							c0.4,0,0.9-0.1,1.2-0.3l0.4,1.7c-0.6,0.2-1.4,0.4-2.2,0.4C240,87.3,239.1,85.7,239.1,83.4z"/>
						<path class="st2" d="M246.7,76h1.9l0.2,2h0.1c0.8-1.4,1.9-2.3,3.1-2.3c0.5,0,0.9,0.1,1.2,0.2l-0.4,2c-0.4-0.1-0.7-0.2-1.1-0.2
							c-0.9,0-2,0.6-2.7,2.4V87h-2.3V76z"/>
						<path class="st2" d="M253.8,81.5c0-3.6,2.4-5.8,5-5.8c2.9,0,4.5,2.1,4.5,5.2c0,0.4,0,0.9-0.1,1.2h-7.1
							c0.2,2.1,1.5,3.4,3.4,3.4c1,0,1.8-0.3,2.6-0.8l0.8,1.5c-1,0.7-2.3,1.2-3.7,1.2C256.2,87.3,253.8,85.1,253.8,81.5z M261.4,80.5
							c0-1.9-0.9-3-2.5-3c-1.4,0-2.6,1.1-2.8,3H261.4z"/>
						<path class="st2" d="M265,84.1c0-2.4,2-3.6,6.6-4.1c0-1.3-0.5-2.4-2.1-2.4c-1.2,0-2.2,0.5-3.2,1.1l-0.9-1.6
							c1.1-0.7,2.7-1.4,4.4-1.4c2.7,0,4,1.7,4,4.7V87H272l-0.2-1.3h-0.1c-1,0.9-2.2,1.5-3.5,1.5C266.3,87.3,265,86,265,84.1z
							 M271.6,84.2v-2.7c-3.3,0.4-4.4,1.2-4.4,2.5c0,1.1,0.7,1.5,1.7,1.5C269.9,85.4,270.7,85,271.6,84.2z"/>
						<path class="st2" d="M277.1,83.4v-5.6h-1.6v-1.7l1.7-0.1l0.3-3h1.9v3h2.9v1.8h-2.9v5.6c0,1.3,0.5,2,1.6,2
							c0.4,0,0.9-0.1,1.2-0.3l0.4,1.7c-0.6,0.2-1.4,0.4-2.2,0.4C278,87.3,277.1,85.7,277.1,83.4z"/>
						<path class="st2" d="M284.7,76h1.9l0.2,1.5h0.1c0.9-1,2-1.8,3.4-1.8c1.6,0,2.6,0.8,3,2c1.1-1.2,2.2-2,3.6-2
							c2.3,0,3.4,1.6,3.4,4.4V87h-2.3v-6.6c0-1.9-0.6-2.7-1.8-2.7c-0.8,0-1.6,0.5-2.5,1.5V87h-2.3v-6.6c0-1.9-0.6-2.7-1.8-2.7
							c-0.7,0-1.6,0.5-2.5,1.5V87h-2.3V76z"/>
						<path class="st2" d="M302.8,81.5c0-3.6,2.4-5.8,5-5.8c2.9,0,4.5,2.1,4.5,5.2c0,0.4,0,0.9-0.1,1.2H305c0.2,2.1,1.5,3.4,3.4,3.4
							c1,0,1.8-0.3,2.6-0.8l0.8,1.5c-1,0.7-2.3,1.2-3.7,1.2C305.1,87.3,302.8,85.1,302.8,81.5z M310.3,80.5c0-1.9-0.9-3-2.5-3
							c-1.4,0-2.6,1.1-2.8,3H310.3z"/>
						<path class="st2" d="M314.8,76h1.9l0.2,1.5h0.1c1-1,2.1-1.8,3.6-1.8c2.3,0,3.4,1.6,3.4,4.4V87h-2.3v-6.6
							c0-1.9-0.6-2.7-1.9-2.7c-1,0-1.7,0.5-2.7,1.5V87h-2.3V76z"/>
						<path class="st2" d="M327.7,83.4v-5.6h-1.6v-1.7l1.7-0.1l0.3-3h1.9v3h2.9v1.8H330v5.6c0,1.3,0.5,2,1.6,2
							c0.4,0,0.9-0.1,1.2-0.3l0.4,1.7c-0.6,0.2-1.4,0.4-2.2,0.4C328.5,87.3,327.7,85.7,327.7,83.4z"/>
						<path class="st2" d="M339,81.5c0-3.7,2.5-5.8,5.2-5.8c2.7,0,5.2,2.1,5.2,5.8c0,3.6-2.5,5.7-5.2,5.7
							C341.4,87.3,339,85.2,339,81.5z M347,81.5c0-2.3-1.1-3.9-2.8-3.9c-1.7,0-2.8,1.6-2.8,3.9c0,2.3,1.1,3.9,2.8,3.9
							C345.9,85.4,347,83.8,347,81.5z"/>
						<path class="st2" d="M357.3,72.9c-0.4-0.2-0.8-0.3-1.2-0.3c-1,0-1.5,0.6-1.5,2V76h2.2v1.8h-2.2V87h-2.3v-9.2h-1.5v-1.7
							l1.5-0.1v-1.4c0-2.3,1-3.8,3.5-3.8c0.7,0,1.4,0.2,1.9,0.4L357.3,72.9z"/>
						<path class="st2" d="M363,72.6c0-0.8,0.6-1.4,1.5-1.4c0.8,0,1.5,0.5,1.5,1.4c0,0.8-0.6,1.4-1.5,1.4
							C363.7,73.9,363,73.4,363,72.6z M363.4,76h2.3v11h-2.3V76z"/>
						<path class="st2" d="M369.1,76h1.9l0.2,1.5h0.1c1-1,2.1-1.8,3.6-1.8c2.3,0,3.4,1.6,3.4,4.4V87h-2.3v-6.6
							c0-1.9-0.6-2.7-1.9-2.7c-1,0-1.7,0.5-2.7,1.5V87h-2.3V76z"/>
						<path class="st2" d="M381.9,83.4v-5.6h-1.6v-1.7L382,76l0.3-3h1.9v3h2.9v1.8h-2.9v5.6c0,1.3,0.5,2,1.6,2
							c0.4,0,0.9-0.1,1.2-0.3l0.4,1.7c-0.6,0.2-1.4,0.4-2.2,0.4C382.8,87.3,381.9,85.7,381.9,83.4z"/>
						<path class="st2" d="M389.5,76h1.9l0.2,2h0.1c0.8-1.4,1.9-2.3,3.1-2.3c0.5,0,0.9,0.1,1.2,0.2l-0.4,2c-0.4-0.1-0.7-0.2-1.1-0.2
							c-0.9,0-2,0.6-2.7,2.4V87h-2.3V76z"/>
						<path class="st2" d="M396.5,84.1c0-2.4,2-3.6,6.6-4.1c0-1.3-0.5-2.4-2.1-2.4c-1.2,0-2.2,0.5-3.2,1.1l-0.9-1.6
							c1.1-0.7,2.7-1.4,4.4-1.4c2.7,0,4,1.7,4,4.7V87h-1.9l-0.2-1.3h-0.1c-1,0.9-2.2,1.5-3.5,1.5C397.8,87.3,396.5,86,396.5,84.1z
							 M403.1,84.2v-2.7c-3.3,0.4-4.4,1.2-4.4,2.5c0,1.1,0.7,1.5,1.7,1.5C401.4,85.4,402.2,85,403.1,84.2z"/>
						<path class="st2" d="M407.8,81.5c0-3.7,2.5-5.8,5.4-5.8c1.4,0,2.4,0.6,3.2,1.3l-1.1,1.5c-0.6-0.5-1.2-0.9-2-0.9
							c-1.8,0-3.2,1.6-3.2,3.9c0,2.3,1.3,3.9,3.1,3.9c0.9,0,1.7-0.4,2.4-1l0.9,1.5c-1,0.9-2.3,1.4-3.6,1.4
							C410.1,87.3,407.8,85.2,407.8,81.5z"/>
						<path class="st2" d="M419.1,83.4v-5.6h-1.6v-1.7l1.7-0.1l0.3-3h1.9v3h2.9v1.8h-2.9v5.6c0,1.3,0.5,2,1.6,2
							c0.4,0,0.9-0.1,1.2-0.3l0.4,1.7c-0.6,0.2-1.4,0.4-2.2,0.4C420,87.3,419.1,85.7,419.1,83.4z"/>
						<path class="st2" d="M425.5,84.1c0-2.4,2-3.6,6.6-4.1c0-1.3-0.5-2.4-2.1-2.4c-1.2,0-2.2,0.5-3.2,1.1l-0.9-1.6
							c1.1-0.7,2.7-1.4,4.4-1.4c2.7,0,4,1.7,4,4.7V87h-1.9l-0.2-1.3h-0.1c-1,0.9-2.2,1.5-3.5,1.5C426.9,87.3,425.5,86,425.5,84.1z
							 M432.1,84.2v-2.7c-3.3,0.4-4.4,1.2-4.4,2.5c0,1.1,0.7,1.5,1.7,1.5C430.4,85.4,431.2,85,432.1,84.2z"/>
						<path class="st2" d="M439.8,85.9L439.8,85.9l-0.3,1.1h-1.8V71.1h2.3v4.2l-0.1,1.9c0.9-0.8,2.1-1.4,3.3-1.4
							c2.8,0,4.4,2.2,4.4,5.6c0,3.8-2.3,5.9-4.7,5.9C441.8,87.3,440.7,86.8,439.8,85.9z M445.2,81.4c0-2.3-0.7-3.7-2.6-3.7
							c-0.9,0-1.7,0.4-2.6,1.3v5.4c0.8,0.7,1.7,1,2.4,1C444,85.4,445.2,83.9,445.2,81.4z"/>
						<path class="st2" d="M450.3,84.4V71.1h2.3v13.5c0,0.6,0.3,0.8,0.6,0.8c0.1,0,0.2,0,0.4,0l0.3,1.7c-0.3,0.1-0.7,0.2-1.2,0.2
							C450.9,87.3,450.3,86.2,450.3,84.4z"/>
						<path class="st2" d="M455.4,81.5c0-3.6,2.4-5.8,5-5.8c2.9,0,4.5,2.1,4.5,5.2c0,0.4,0,0.9-0.1,1.2h-7.1
							c0.2,2.1,1.5,3.4,3.4,3.4c1,0,1.8-0.3,2.6-0.8l0.8,1.5c-1,0.7-2.3,1.2-3.7,1.2C457.8,87.3,455.4,85.1,455.4,81.5z M463,80.5
							c0-1.9-0.9-3-2.5-3c-1.4,0-2.6,1.1-2.8,3H463z"/>
						<path class="st2" d="M471.6,71h1.6l-5.6,19.6H466L471.6,71z"/>
						<path class="st2" d="M473.9,81.5c0-3.7,2.5-5.8,5.4-5.8c1.4,0,2.4,0.6,3.2,1.3l-1.1,1.5c-0.6-0.5-1.2-0.9-2-0.9
							c-1.8,0-3.2,1.6-3.2,3.9c0,2.3,1.3,3.9,3.1,3.9c0.9,0,1.7-0.4,2.4-1l0.9,1.5c-1,0.9-2.3,1.4-3.6,1.4
							C476.2,87.3,473.9,85.2,473.9,81.5z"/>
						<path class="st2" d="M485.1,71.1h2.3v4.2l-0.1,2.2c1-0.9,2.1-1.7,3.6-1.7c2.3,0,3.4,1.6,3.4,4.4V87h-2.3v-6.6
							c0-1.9-0.6-2.7-1.9-2.7c-1,0-1.7,0.5-2.7,1.5V87h-2.3V71.1z"/>
						<path class="st2" d="M497.5,76h1.9l0.2,2h0.1c0.8-1.4,1.9-2.3,3.1-2.3c0.5,0,0.9,0.1,1.2,0.2l-0.4,2c-0.4-0.1-0.7-0.2-1.1-0.2
							c-0.9,0-2,0.6-2.7,2.4V87h-2.3V76z"/>
						<path class="st2" d="M504.7,81.5c0-3.7,2.5-5.8,5.2-5.8c2.7,0,5.2,2.1,5.2,5.8c0,3.6-2.5,5.7-5.2,5.7
							C507.1,87.3,504.7,85.2,504.7,81.5z M512.7,81.5c0-2.3-1.1-3.9-2.8-3.9c-1.7,0-2.8,1.6-2.8,3.9c0,2.3,1.1,3.9,2.8,3.9
							C511.6,85.4,512.7,83.8,512.7,81.5z"/>
						<path class="st2" d="M517.7,76h1.9l0.2,1.5h0.1c1-1,2.1-1.8,3.6-1.8c2.3,0,3.4,1.6,3.4,4.4V87h-2.3v-6.6
							c0-1.9-0.6-2.7-1.9-2.7c-1,0-1.7,0.5-2.7,1.5V87h-2.3V76z"/>
						<path class="st2" d="M529.9,72.6c0-0.8,0.6-1.4,1.5-1.4s1.5,0.5,1.5,1.4c0,0.8-0.6,1.4-1.5,1.4S529.9,73.4,529.9,72.6z
							 M530.2,76h2.3v11h-2.3V76z"/>
						<path class="st2" d="M535.2,81.5c0-3.7,2.5-5.8,5.4-5.8c1.4,0,2.4,0.6,3.2,1.3l-1.1,1.5c-0.6-0.5-1.2-0.9-2-0.9
							c-1.8,0-3.2,1.6-3.2,3.9c0,2.3,1.3,3.9,3.1,3.9c0.9,0,1.7-0.4,2.4-1l0.9,1.5c-1,0.9-2.3,1.4-3.6,1.4
							C537.4,87.3,535.2,85.2,535.2,81.5z"/>
						<path class="st2" d="M550,81.5c0-3.6,2.3-5.8,4.7-5.8c1.3,0,2.1,0.5,3,1.2l-0.1-1.8v-4.1h2.3V87H558l-0.2-1.2h-0.1
							c-0.8,0.8-2,1.5-3.2,1.5C551.8,87.3,550,85.2,550,81.5z M557.6,84v-5.4c-0.8-0.7-1.6-1-2.4-1c-1.5,0-2.8,1.5-2.8,3.8
							c0,2.5,1,3.9,2.7,3.9C556,85.4,556.8,84.9,557.6,84z"/>
						<path class="st2" d="M563.1,72.6c0-0.8,0.6-1.4,1.5-1.4s1.5,0.5,1.5,1.4c0,0.8-0.6,1.4-1.5,1.4S563.1,73.4,563.1,72.6z
							 M563.4,76h2.3v11h-2.3V76z"/>
						<path class="st2" d="M568,85.7l1.1-1.5c1,0.8,1.9,1.3,3.1,1.3c1.3,0,1.9-0.6,1.9-1.5c0-1-1.2-1.4-2.4-1.9
							c-1.5-0.6-3.1-1.3-3.1-3.2c0-1.8,1.5-3.2,3.9-3.2c1.5,0,2.7,0.6,3.6,1.3l-1.1,1.4c-0.8-0.6-1.5-1-2.5-1
							c-1.2,0-1.8,0.6-1.8,1.4c0,0.9,1.1,1.3,2.3,1.7c1.5,0.6,3.2,1.3,3.2,3.3c0,1.8-1.5,3.3-4.2,3.3C570.6,87.3,569,86.6,568,85.7z
							"/>
						<path class="st2" d="M577.9,81.5c0-3.6,2.4-5.8,5-5.8c2.9,0,4.5,2.1,4.5,5.2c0,0.4,0,0.9-0.1,1.2h-7.1
							c0.2,2.1,1.5,3.4,3.4,3.4c1,0,1.8-0.3,2.6-0.8l0.8,1.5c-1,0.7-2.3,1.2-3.7,1.2C580.3,87.3,577.9,85.1,577.9,81.5z M585.5,80.5
							c0-1.9-0.9-3-2.5-3c-1.4,0-2.6,1.1-2.8,3H585.5z"/>
						<path class="st2" d="M589.1,84.1c0-2.4,2-3.6,6.6-4.1c0-1.3-0.5-2.4-2.1-2.4c-1.2,0-2.2,0.5-3.2,1.1l-0.9-1.6
							c1.1-0.7,2.7-1.4,4.4-1.4c2.7,0,4,1.7,4,4.7V87h-1.9l-0.2-1.3h-0.1c-1,0.9-2.2,1.5-3.5,1.5C590.4,87.3,589.1,86,589.1,84.1z
							 M595.7,84.2v-2.7c-3.3,0.4-4.4,1.2-4.4,2.5c0,1.1,0.7,1.5,1.7,1.5C594,85.4,594.8,85,595.7,84.2z"/>
						<path class="st2" d="M600.1,85.7l1.1-1.5c1,0.8,1.9,1.3,3.1,1.3c1.3,0,1.9-0.6,1.9-1.5c0-1-1.2-1.4-2.4-1.9
							c-1.5-0.6-3.1-1.3-3.1-3.2c0-1.8,1.5-3.2,3.9-3.2c1.5,0,2.7,0.6,3.6,1.3l-1.1,1.4c-0.8-0.6-1.5-1-2.5-1
							c-1.2,0-1.8,0.6-1.8,1.4c0,0.9,1.1,1.3,2.3,1.7c1.5,0.6,3.2,1.3,3.2,3.3c0,1.8-1.5,3.3-4.2,3.3
							C602.7,87.3,601.1,86.6,600.1,85.7z"/>
						<path class="st2" d="M610,81.5c0-3.6,2.4-5.8,5-5.8c2.9,0,4.5,2.1,4.5,5.2c0,0.4,0,0.9-0.1,1.2h-7.1c0.2,2.1,1.5,3.4,3.4,3.4
							c1,0,1.8-0.3,2.6-0.8l0.8,1.5c-1,0.7-2.3,1.2-3.7,1.2C612.4,87.3,610,85.1,610,81.5z M617.6,80.5c0-1.9-0.9-3-2.5-3
							c-1.4,0-2.6,1.1-2.8,3H617.6z"/>
						<path class="st2" d="M621,85.7l1.1-1.5c1,0.8,1.9,1.3,3.1,1.3c1.3,0,1.9-0.6,1.9-1.5c0-1-1.2-1.4-2.4-1.9
							c-1.5-0.6-3.1-1.3-3.1-3.2c0-1.8,1.5-3.2,3.9-3.2c1.5,0,2.7,0.6,3.6,1.3l-1.1,1.4c-0.8-0.6-1.5-1-2.5-1
							c-1.2,0-1.8,0.6-1.8,1.4c0,0.9,1.1,1.3,2.3,1.7c1.5,0.6,3.2,1.3,3.2,3.3c0,1.8-1.5,3.3-4.2,3.3C623.6,87.3,622,86.6,621,85.7z
							"/>
					</g>
					<g class="st1">
						<path class="st2" d="M71.8,128.6h4.4v0.9h-4.4V128.6z"/>
						<path class="st2" d="M85.7,121.8h-4.1v-0.9h9.4v0.9h-4.1V134h-1.1V121.8z"/>
						<path class="st2" d="M91.1,131.6c0-2.1,1.9-3.1,6.1-3.6c0-1.4-0.4-2.9-2.2-2.9c-1.3,0-2.4,0.6-3,1.1l-0.5-0.8
							c0.7-0.5,2.1-1.3,3.6-1.3c2.3,0,3.1,1.6,3.1,3.8v6.1h-0.9l-0.1-1.2h0c-1,0.8-2.1,1.5-3.3,1.5
							C92.3,134.2,91.1,133.4,91.1,131.6z M97.2,131.9v-3.1c-3.8,0.4-5.1,1.3-5.1,2.8c0,1.3,0.9,1.8,2,1.8
							C95.2,133.4,96.1,132.8,97.2,131.9z"/>
						<path class="st2" d="M101.6,124.4h0.9l0.1,1.8h0c0.6-1.2,1.6-2,2.7-2c0.4,0,0.7,0.1,1,0.2l-0.2,0.9c-0.3-0.1-0.5-0.2-0.9-0.2
							c-0.8,0-1.9,0.6-2.6,2.4v6.4h-1V124.4z"/>
						<path class="st2" d="M107.1,135.9c0-0.8,0.6-1.7,1.4-2.3v-0.1c-0.5-0.3-0.9-0.8-0.9-1.5c0-0.8,0.6-1.5,1.1-1.8v-0.1
							c-0.6-0.5-1.2-1.5-1.2-2.6c0-2,1.5-3.4,3.4-3.4c0.5,0,1,0.1,1.3,0.3h3.3v0.9h-2.2c0.6,0.5,1,1.3,1,2.3c0,2-1.5,3.4-3.4,3.4
							c-0.5,0-1.1-0.1-1.5-0.4c-0.4,0.3-0.8,0.7-0.8,1.3c0,0.7,0.4,1.2,1.8,1.2h2c2.2,0,3.2,0.7,3.2,2.2c0,1.7-1.8,3.3-4.6,3.3
							C108.6,138.6,107.1,137.6,107.1,135.9z M114.6,135.5c0-1-0.8-1.4-2.2-1.4h-2c-0.2,0-0.7-0.1-1.2-0.2c-0.8,0.6-1.2,1.3-1.2,1.9
							c0,1.2,1.1,2,3.1,2C113.2,137.8,114.6,136.6,114.6,135.5z M113.3,127.6c0-1.6-1.1-2.6-2.4-2.6c-1.3,0-2.4,1-2.4,2.6
							c0,1.6,1.1,2.6,2.4,2.6C112.2,130.2,113.3,129.1,113.3,127.6z"/>
						<path class="st2" d="M116.6,129.2c0-3.1,2-5.1,4.2-5.1c2.3,0,3.7,1.7,3.7,4.5c0,0.3,0,0.5-0.1,0.8h-6.8c0.1,2.3,1.4,4,3.5,4
							c1,0,1.8-0.3,2.6-0.8l0.4,0.8c-0.8,0.5-1.7,0.9-3.1,0.9C118.6,134.2,116.6,132.4,116.6,129.2z M123.6,128.5
							c0-2.3-1.1-3.5-2.7-3.5c-1.6,0-3,1.3-3.2,3.5H123.6z"/>
						<path class="st2" d="M127.1,131.3v-6h-1.5v-0.8l1.5-0.1l0.1-2.8h0.9v2.8h2.8v0.9h-2.8v6c0,1.2,0.3,2,1.6,2
							c0.4,0,0.8-0.1,1.2-0.3l0.3,0.8c-0.6,0.2-1.2,0.4-1.6,0.4C127.7,134.2,127.1,133,127.1,131.3z"/>
						<path class="st2" d="M137.2,124.4h0.9l0.1,1.5h0c1-1,2-1.7,3.3-1.7c2,0,2.9,1.2,2.9,3.7v6.1h-1v-6c0-2-0.6-2.9-2.1-2.9
							c-1.1,0-1.9,0.6-3,1.7v7.2h-1V124.4z"/>
						<path class="st2" d="M147.6,121.3c0-0.5,0.4-0.9,0.9-0.9c0.5,0,0.9,0.3,0.9,0.9c0,0.5-0.4,0.8-0.9,0.8
							C148,122.2,147.6,121.8,147.6,121.3z M147.9,124.4h1v9.6h-1V124.4z"/>
						<path class="st2" d="M151.7,129.2c0-3.2,2.1-5.1,4.4-5.1c1.3,0,2.1,0.6,2.8,1.2l-0.6,0.7c-0.6-0.6-1.3-1-2.2-1
							c-1.9,0-3.4,1.7-3.4,4.1c0,2.4,1.3,4.1,3.3,4.1c1,0,1.9-0.5,2.5-1.1l0.5,0.7c-0.8,0.7-1.9,1.2-3.1,1.2
							C153.6,134.2,151.7,132.4,151.7,129.2z"/>
						<path class="st2" d="M161.5,119.7h1v4.1l0,2.1c1-1,2-1.7,3.3-1.7c2,0,2.9,1.2,2.9,3.7v6.1h-1v-6c0-2-0.6-2.9-2.1-2.9
							c-1.1,0-1.9,0.6-3,1.7v7.2h-1V119.7z"/>
						<path class="st2" d="M171.3,129.2c0-3.1,2-5.1,4.2-5.1c2.3,0,3.7,1.7,3.7,4.5c0,0.3,0,0.5-0.1,0.8h-6.8c0.1,2.3,1.4,4,3.5,4
							c1,0,1.8-0.3,2.6-0.8l0.4,0.8c-0.8,0.5-1.7,0.9-3.1,0.9C173.3,134.2,171.3,132.4,171.3,129.2z M178.3,128.5
							c0-2.3-1.1-3.5-2.7-3.5c-1.6,0-3,1.3-3.2,3.5H178.3z"/>
						<path class="st2" d="M185.8,124.4h0.9l0.1,1.5h0c0.9-1,1.9-1.7,3-1.7c1.5,0,2.3,0.8,2.6,1.9c1.1-1.2,2.1-1.9,3.2-1.9
							c1.9,0,2.9,1.2,2.9,3.7v6.1h-1v-6c0-2-0.7-2.9-2.1-2.9c-0.9,0-1.7,0.6-2.8,1.7v7.2h-1v-6c0-2-0.6-2.9-2.1-2.9
							c-0.8,0-1.8,0.6-2.8,1.7v7.2h-1V124.4z"/>
						<path class="st2" d="M201.4,131.6c0-2.1,1.9-3.1,6.1-3.6c0-1.4-0.4-2.9-2.2-2.9c-1.3,0-2.4,0.6-3,1.1l-0.5-0.8
							c0.7-0.5,2.1-1.3,3.6-1.3c2.3,0,3.1,1.6,3.1,3.8v6.1h-0.9l-0.1-1.2h0c-1,0.8-2.1,1.5-3.3,1.5
							C202.7,134.2,201.4,133.4,201.4,131.6z M207.5,131.9v-3.1c-3.8,0.4-5.1,1.3-5.1,2.8c0,1.3,0.9,1.8,2,1.8
							C205.5,133.4,206.4,132.8,207.5,131.9z"/>
						<path class="st2" d="M211.9,124.4h0.9l0.1,1.8h0c0.6-1.2,1.6-2,2.7-2c0.4,0,0.7,0.1,1,0.2l-0.2,0.9c-0.3-0.1-0.5-0.2-0.9-0.2
							c-0.8,0-1.9,0.6-2.6,2.4v6.4h-1V124.4z"/>
						<path class="st2" d="M218.4,119.7h1v10.4h0l4.6-5.7h1.2l-3.1,3.8l3.6,5.8h-1.2l-3.1-5l-2.1,2.4v2.6h-1V119.7z"/>
						<path class="st2" d="M226.7,129.2c0-3.1,2-5.1,4.2-5.1c2.3,0,3.7,1.7,3.7,4.5c0,0.3,0,0.5-0.1,0.8h-6.8c0.1,2.3,1.4,4,3.5,4
							c1,0,1.8-0.3,2.6-0.8l0.4,0.8c-0.8,0.5-1.7,0.9-3.1,0.9C228.7,134.2,226.7,132.4,226.7,129.2z M233.7,128.5
							c0-2.3-1.1-3.5-2.7-3.5c-1.6,0-3,1.3-3.2,3.5H233.7z"/>
						<path class="st2" d="M237.2,131.3v-6h-1.5v-0.8l1.5-0.1l0.1-2.8h0.9v2.8h2.8v0.9h-2.8v6c0,1.2,0.3,2,1.6,2
							c0.4,0,0.8-0.1,1.2-0.3l0.3,0.8c-0.6,0.2-1.2,0.4-1.6,0.4C237.8,134.2,237.2,133,237.2,131.3z"/>
						<path class="st2" d="M241.9,132.9l0.6-0.8c0.8,0.7,1.7,1.2,3,1.2c1.5,0,2.2-0.8,2.2-1.8c0-1.1-1.2-1.7-2.3-2.1
							c-1.4-0.5-3-1.1-3-2.8c0-1.4,1.1-2.6,3.2-2.6c1,0,2.1,0.5,2.8,1l-0.5,0.7c-0.6-0.5-1.4-0.9-2.3-0.9c-1.4,0-2.1,0.8-2.1,1.7
							c0,1.1,1.1,1.5,2.2,1.9c1.5,0.6,3.1,1.1,3.1,2.9c0,1.5-1.2,2.7-3.3,2.7C244.1,134.2,242.8,133.6,241.9,132.9z"/>
						<path class="st2" d="M250.4,136.5c0.9-0.5,1.6-1.3,1.6-2.4c-0.1,0-0.1,0-0.2,0c-0.5,0-0.9-0.3-0.9-0.9c0-0.6,0.5-0.9,1-0.9
							c0.6,0,1.1,0.6,1.1,1.5c0,1.5-0.9,2.7-2.2,3.3L250.4,136.5z"/>
						<path class="st2" d="M259,129.2c0-3.1,2-5.1,4.2-5.1c2.3,0,3.7,1.7,3.7,4.5c0,0.3,0,0.5-0.1,0.8H260c0.1,2.3,1.4,4,3.5,4
							c1,0,1.8-0.3,2.6-0.8l0.4,0.8c-0.8,0.5-1.7,0.9-3.1,0.9C261,134.2,259,132.4,259,129.2z M265.9,128.5c0-2.3-1.1-3.5-2.7-3.5
							c-1.6,0-3,1.3-3.2,3.5H265.9z"/>
						<path class="st2" d="M268.3,132.9l0.6-0.8c0.8,0.7,1.7,1.2,3,1.2c1.5,0,2.2-0.8,2.2-1.8c0-1.1-1.2-1.7-2.3-2.1
							c-1.4-0.5-3-1.1-3-2.8c0-1.4,1.1-2.6,3.2-2.6c1,0,2.1,0.5,2.8,1l-0.5,0.7c-0.6-0.5-1.4-0.9-2.3-0.9c-1.4,0-2.1,0.8-2.1,1.7
							c0,1.1,1.1,1.5,2.2,1.9c1.5,0.6,3.1,1.1,3.1,2.9c0,1.5-1.2,2.7-3.3,2.7C270.4,134.2,269.1,133.6,268.3,132.9z"/>
						<path class="st2" d="M277.4,131.3v-6h-1.5v-0.8l1.5-0.1l0.1-2.8h0.9v2.8h2.8v0.9h-2.8v6c0,1.2,0.3,2,1.6,2
							c0.4,0,0.8-0.1,1.2-0.3l0.3,0.8c-0.6,0.2-1.2,0.4-1.6,0.4C278,134.2,277.4,133,277.4,131.3z"/>
						<path class="st2" d="M282.4,131.6c0-2.1,1.9-3.1,6.1-3.6c0-1.4-0.4-2.9-2.2-2.9c-1.3,0-2.4,0.6-3,1.1l-0.5-0.8
							c0.7-0.5,2.1-1.3,3.6-1.3c2.3,0,3.1,1.6,3.1,3.8v6.1h-0.9l-0.1-1.2h0c-1,0.8-2.1,1.5-3.3,1.5
							C283.7,134.2,282.4,133.4,282.4,131.6z M288.5,131.9v-3.1c-3.8,0.4-5.1,1.3-5.1,2.8c0,1.3,0.9,1.8,2,1.8
							C286.5,133.4,287.4,132.8,288.5,131.9z"/>
						<path class="st2" d="M293.9,133L293.9,133l-0.2,1h-0.8v-14.3h1v4.1l-0.1,1.8c1-0.8,2.1-1.5,3.2-1.5c2.6,0,3.9,1.9,3.9,4.9
							c0,3.3-2,5.2-4.2,5.2C295.9,134.2,294.8,133.8,293.9,133z M299.9,129c0-2.3-0.8-4-2.9-4c-0.9,0-1.9,0.5-3,1.5v5.5
							c1,0.9,2,1.2,2.7,1.2C298.6,133.3,299.9,131.6,299.9,129z"/>
						<path class="st2" d="M303.8,132.6v-12.9h1v13c0,0.5,0.2,0.6,0.4,0.6c0.1,0,0.1,0,0.3,0l0.2,0.8c-0.2,0.1-0.4,0.1-0.7,0.1
							C304.2,134.2,303.8,133.7,303.8,132.6z"/>
						<path class="st2" d="M308.2,121.3c0-0.5,0.4-0.9,0.9-0.9c0.5,0,0.9,0.3,0.9,0.9c0,0.5-0.4,0.8-0.9,0.8
							C308.6,122.2,308.2,121.8,308.2,121.3z M308.6,124.4h1v9.6h-1V124.4z"/>
						<path class="st2" d="M312,132.9l0.6-0.8c0.8,0.7,1.7,1.2,3,1.2c1.5,0,2.2-0.8,2.2-1.8c0-1.1-1.2-1.7-2.3-2.1
							c-1.4-0.5-3-1.1-3-2.8c0-1.4,1.1-2.6,3.2-2.6c1,0,2.1,0.5,2.8,1l-0.5,0.7c-0.6-0.5-1.4-0.9-2.3-0.9c-1.4,0-2.1,0.8-2.1,1.7
							c0,1.1,1.1,1.5,2.2,1.9c1.5,0.6,3.1,1.1,3.1,2.9c0,1.5-1.2,2.7-3.3,2.7C314.2,134.2,312.9,133.6,312,132.9z"/>
						<path class="st2" d="M321.3,119.7h1v4.1l0,2.1c1-1,2-1.7,3.3-1.7c2,0,2.9,1.2,2.9,3.7v6.1h-1v-6c0-2-0.6-2.9-2.1-2.9
							c-1.1,0-1.9,0.6-3,1.7v7.2h-1V119.7z"/>
						<path class="st2" d="M335.1,129.2c0-3.2,2-5.1,4.3-5.1s4.3,1.9,4.3,5.1c0,3.2-2,5-4.3,5S335.1,132.4,335.1,129.2z
							 M342.7,129.2c0-2.4-1.4-4.1-3.3-4.1s-3.2,1.7-3.2,4.1c0,2.4,1.4,4.1,3.2,4.1S342.7,131.7,342.7,129.2z"/>
						<path class="st2" d="M346.6,124.4h0.9l0.1,1.8h0c0.6-1.2,1.6-2,2.7-2c0.4,0,0.7,0.1,1,0.2l-0.2,0.9c-0.3-0.1-0.5-0.2-0.9-0.2
							c-0.8,0-1.9,0.6-2.6,2.4v6.4h-1V124.4z"/>
						<path class="st2" d="M352.8,121.3c0-0.5,0.4-0.9,0.9-0.9c0.5,0,0.9,0.3,0.9,0.9c0,0.5-0.4,0.8-0.9,0.8
							C353.1,122.2,352.8,121.8,352.8,121.3z M353.1,124.4h1v9.6h-1V124.4z"/>
						<path class="st2" d="M356.9,135.9c0-0.8,0.6-1.7,1.4-2.3v-0.1c-0.5-0.3-0.9-0.8-0.9-1.5c0-0.8,0.6-1.5,1.1-1.8v-0.1
							c-0.6-0.5-1.2-1.5-1.2-2.6c0-2,1.5-3.4,3.4-3.4c0.5,0,1,0.1,1.3,0.3h3.3v0.9h-2.2c0.6,0.5,1,1.3,1,2.3c0,2-1.5,3.4-3.4,3.4
							c-0.5,0-1.1-0.1-1.5-0.4c-0.4,0.3-0.8,0.7-0.8,1.3c0,0.7,0.4,1.2,1.8,1.2h2c2.2,0,3.2,0.7,3.2,2.2c0,1.7-1.8,3.3-4.6,3.3
							C358.5,138.6,356.9,137.6,356.9,135.9z M364.4,135.5c0-1-0.8-1.4-2.2-1.4h-2c-0.2,0-0.7-0.1-1.2-0.2c-0.8,0.6-1.2,1.3-1.2,1.9
							c0,1.2,1.1,2,3.1,2C363.1,137.8,364.4,136.6,364.4,135.5z M363.1,127.6c0-1.6-1.1-2.6-2.4-2.6c-1.3,0-2.4,1-2.4,2.6
							c0,1.6,1.1,2.6,2.4,2.6C362,130.2,363.1,129.1,363.1,127.6z"/>
						<path class="st2" d="M367.2,121.3c0-0.5,0.4-0.9,0.9-0.9c0.5,0,0.9,0.3,0.9,0.9c0,0.5-0.4,0.8-0.9,0.8
							C367.5,122.2,367.2,121.8,367.2,121.3z M367.5,124.4h1v9.6h-1V124.4z"/>
						<path class="st2" d="M372.1,124.4h0.9l0.1,1.5h0c1-1,2-1.7,3.3-1.7c2,0,2.9,1.2,2.9,3.7v6.1h-1v-6c0-2-0.6-2.9-2.1-2.9
							c-1.1,0-1.9,0.6-3,1.7v7.2h-1V124.4z"/>
						<path class="st2" d="M382.1,131.6c0-2.1,1.9-3.1,6.1-3.6c0-1.4-0.4-2.9-2.2-2.9c-1.3,0-2.4,0.6-3,1.1l-0.5-0.8
							c0.7-0.5,2.1-1.3,3.6-1.3c2.3,0,3.1,1.6,3.1,3.8v6.1h-0.9l-0.1-1.2h0c-1,0.8-2.1,1.5-3.3,1.5
							C383.4,134.2,382.1,133.4,382.1,131.6z M388.2,131.9v-3.1c-3.8,0.4-5.1,1.3-5.1,2.8c0,1.3,0.9,1.8,2,1.8
							C386.2,133.4,387.1,132.8,388.2,131.9z"/>
						<path class="st2" d="M392.6,132.6v-12.9h1v13c0,0.5,0.2,0.6,0.4,0.6c0.1,0,0.1,0,0.3,0l0.2,0.8c-0.2,0.1-0.4,0.1-0.7,0.1
							C393.1,134.2,392.6,133.7,392.6,132.6z"/>
						<path class="st2" d="M400.6,129.2c0-3.2,2-5.1,4.3-5.1s4.3,1.9,4.3,5.1c0,3.2-2,5-4.3,5S400.6,132.4,400.6,129.2z
							 M408.2,129.2c0-2.4-1.4-4.1-3.3-4.1s-3.2,1.7-3.2,4.1c0,2.4,1.4,4.1,3.2,4.1S408.2,131.7,408.2,129.2z"/>
						<path class="st2" d="M412.1,124.4h0.9l0.1,1.8h0c0.6-1.2,1.6-2,2.7-2c0.4,0,0.7,0.1,1,0.2l-0.2,0.9c-0.3-0.1-0.5-0.2-0.9-0.2
							c-0.8,0-1.9,0.6-2.6,2.4v6.4h-1V124.4z"/>
						<path class="st2" d="M422.6,124.4h0.9l0.1,1.2h0c0.9-0.7,2-1.4,3.2-1.4c2.6,0,3.9,1.9,3.9,4.9c0,3.3-2,5.2-4.2,5.2
							c-0.9,0-1.9-0.4-2.8-1.2l0,1.8v3.5h-1V124.4z M429.6,129c0-2.3-0.8-4-2.9-4c-0.9,0-1.9,0.5-3,1.5v5.5c1,0.9,2,1.2,2.7,1.2
							C428.2,133.3,429.6,131.6,429.6,129z"/>
						<path class="st2" d="M432.5,131.6c0-2.1,1.9-3.1,6.1-3.6c0-1.4-0.4-2.9-2.2-2.9c-1.3,0-2.4,0.6-3,1.1l-0.5-0.8
							c0.7-0.5,2.1-1.3,3.6-1.3c2.3,0,3.1,1.6,3.1,3.8v6.1h-0.9l-0.1-1.2h0c-1,0.8-2.1,1.5-3.3,1.5
							C433.8,134.2,432.5,133.4,432.5,131.6z M438.6,131.9v-3.1c-3.8,0.4-5.1,1.3-5.1,2.8c0,1.3,0.9,1.8,2,1.8
							C436.6,133.4,437.5,132.8,438.6,131.9z"/>
						<path class="st2" d="M443,131.3v-6h-1.5v-0.8l1.5-0.1l0.1-2.8h0.9v2.8h2.8v0.9h-2.8v6c0,1.2,0.3,2,1.6,2
							c0.4,0,0.8-0.1,1.2-0.3l0.3,0.8c-0.6,0.2-1.2,0.4-1.6,0.4C443.6,134.2,443,133,443,131.3z"/>
						<path class="st2" d="M449.1,119.7h1v4.1l0,2.1c1-1,2-1.7,3.3-1.7c2,0,2.9,1.2,2.9,3.7v6.1h-1v-6c0-2-0.6-2.9-2.1-2.9
							c-1.1,0-1.9,0.6-3,1.7v7.2h-1V119.7z"/>
						<path class="st2" d="M458.7,128.6h4.4v0.9h-4.4V128.6z"/>
						<path class="st2" d="M466.7,133L466.7,133l-0.2,1h-0.8v-14.3h1v4.1l-0.1,1.8c1-0.8,2.1-1.5,3.2-1.5c2.6,0,3.9,1.9,3.9,4.9
							c0,3.3-2,5.2-4.2,5.2C468.7,134.2,467.6,133.8,466.7,133z M472.7,129c0-2.3-0.8-4-2.9-4c-0.9,0-1.9,0.5-3,1.5v5.5
							c1,0.9,2,1.2,2.7,1.2C471.4,133.3,472.7,131.6,472.7,129z"/>
						<path class="st2" d="M476.6,124.4h0.9l0.1,1.8h0c0.6-1.2,1.6-2,2.7-2c0.4,0,0.7,0.1,1,0.2l-0.2,0.9c-0.3-0.1-0.5-0.2-0.9-0.2
							c-0.8,0-1.9,0.6-2.6,2.4v6.4h-1V124.4z"/>
						<path class="st2" d="M482,129.2c0-3.1,2-5.1,4.2-5.1c2.3,0,3.7,1.7,3.7,4.5c0,0.3,0,0.5-0.1,0.8h-6.8c0.1,2.3,1.4,4,3.5,4
							c1,0,1.8-0.3,2.6-0.8l0.4,0.8c-0.8,0.5-1.7,0.9-3.1,0.9C484,134.2,482,132.4,482,129.2z M489,128.5c0-2.3-1.1-3.5-2.7-3.5
							c-1.6,0-3,1.3-3.2,3.5H489z"/>
						<path class="st2" d="M491.5,131.6c0-2.1,1.9-3.1,6.1-3.6c0-1.4-0.4-2.9-2.2-2.9c-1.3,0-2.4,0.6-3,1.1l-0.5-0.8
							c0.7-0.5,2.1-1.3,3.6-1.3c2.3,0,3.1,1.6,3.1,3.8v6.1h-0.9l-0.1-1.2h0c-1,0.8-2.1,1.5-3.3,1.5
							C492.8,134.2,491.5,133.4,491.5,131.6z M497.7,131.9v-3.1c-3.8,0.4-5.1,1.3-5.1,2.8c0,1.3,0.9,1.8,2,1.8
							C495.6,133.4,496.5,132.8,497.7,131.9z"/>
						<path class="st2" d="M502.1,119.7h1v10.4h0l4.6-5.7h1.2l-3.1,3.8l3.6,5.8h-1.2l-3.1-5l-2.1,2.4v2.6h-1V119.7z"/>
						<path class="st2" d="M511.1,121.3c0-0.5,0.4-0.9,0.9-0.9c0.5,0,0.9,0.3,0.9,0.9c0,0.5-0.4,0.8-0.9,0.8
							C511.5,122.2,511.1,121.8,511.1,121.3z M511.4,124.4h1v9.6h-1V124.4z"/>
						<path class="st2" d="M516.1,124.4h0.9l0.1,1.5h0c1-1,2-1.7,3.3-1.7c2,0,2.9,1.2,2.9,3.7v6.1h-1v-6c0-2-0.6-2.9-2.1-2.9
							c-1.1,0-1.9,0.6-3,1.7v7.2h-1V124.4z"/>
						<path class="st2" d="M525.9,135.9c0-0.8,0.6-1.7,1.4-2.3v-0.1c-0.5-0.3-0.9-0.8-0.9-1.5c0-0.8,0.6-1.5,1.1-1.8v-0.1
							c-0.6-0.5-1.2-1.5-1.2-2.6c0-2,1.5-3.4,3.4-3.4c0.5,0,1,0.1,1.3,0.3h3.3v0.9h-2.2c0.6,0.5,1,1.3,1,2.3c0,2-1.5,3.4-3.4,3.4
							c-0.5,0-1.1-0.1-1.5-0.4c-0.4,0.3-0.8,0.7-0.8,1.3c0,0.7,0.4,1.2,1.8,1.2h2c2.2,0,3.2,0.7,3.2,2.2c0,1.7-1.8,3.3-4.6,3.3
							C527.5,138.6,525.9,137.6,525.9,135.9z M533.5,135.5c0-1-0.8-1.4-2.2-1.4h-2c-0.2,0-0.7-0.1-1.2-0.2c-0.8,0.6-1.2,1.3-1.2,1.9
							c0,1.2,1.1,2,3.1,2C532.1,137.8,533.5,136.6,533.5,135.5z M532.2,127.6c0-1.6-1.1-2.6-2.4-2.6c-1.3,0-2.4,1-2.4,2.6
							c0,1.6,1.1,2.6,2.4,2.6C531,130.2,532.2,129.1,532.2,127.6z"/>
						<path class="st2" d="M540.7,131.3v-6h-1.5v-0.8l1.5-0.1l0.1-2.8h0.9v2.8h2.8v0.9h-2.8v6c0,1.2,0.3,2,1.6,2
							c0.4,0,0.8-0.1,1.2-0.3l0.3,0.8c-0.6,0.2-1.2,0.4-1.6,0.4C541.3,134.2,540.7,133,540.7,131.3z"/>
						<path class="st2" d="M545.8,129.2c0-3.1,2-5.1,4.2-5.1c2.3,0,3.7,1.7,3.7,4.5c0,0.3,0,0.5-0.1,0.8h-6.8c0.1,2.3,1.4,4,3.5,4
							c1,0,1.8-0.3,2.6-0.8l0.4,0.8c-0.8,0.5-1.7,0.9-3.1,0.9C547.8,134.2,545.8,132.4,545.8,129.2z M552.8,128.5
							c0-2.3-1.1-3.5-2.7-3.5c-1.6,0-3,1.3-3.2,3.5H552.8z"/>
						<path class="st2" d="M555.5,129.2c0-3.2,2.1-5.1,4.4-5.1c1.3,0,2.1,0.6,2.8,1.2l-0.6,0.7c-0.6-0.6-1.3-1-2.2-1
							c-1.9,0-3.4,1.7-3.4,4.1c0,2.4,1.3,4.1,3.3,4.1c1,0,1.9-0.5,2.5-1.1l0.5,0.7c-0.8,0.7-1.9,1.2-3.1,1.2
							C557.4,134.2,555.5,132.4,555.5,129.2z"/>
						<path class="st2" d="M565.3,119.7h1v4.1l0,2.1c1-1,2-1.7,3.3-1.7c2,0,2.9,1.2,2.9,3.7v6.1h-1v-6c0-2-0.6-2.9-2.1-2.9
							c-1.1,0-1.9,0.6-3,1.7v7.2h-1V119.7z"/>
						<path class="st2" d="M575.9,124.4h0.9l0.1,1.5h0c1-1,2-1.7,3.3-1.7c2,0,2.9,1.2,2.9,3.7v6.1h-1v-6c0-2-0.6-2.9-2.1-2.9
							c-1.1,0-1.9,0.6-3,1.7v7.2h-1V124.4z"/>
						<path class="st2" d="M585.8,129.2c0-3.2,2-5.1,4.3-5.1s4.3,1.9,4.3,5.1c0,3.2-2,5-4.3,5S585.8,132.4,585.8,129.2z
							 M593.4,129.2c0-2.4-1.4-4.1-3.3-4.1c-1.9,0-3.2,1.7-3.2,4.1c0,2.4,1.4,4.1,3.2,4.1C592,133.3,593.4,131.7,593.4,129.2z"/>
						<path class="st2" d="M597.2,132.6v-12.9h1v13c0,0.5,0.2,0.6,0.4,0.6c0.1,0,0.1,0,0.3,0l0.2,0.8c-0.2,0.1-0.4,0.1-0.7,0.1
							C597.7,134.2,597.2,133.7,597.2,132.6z"/>
						<path class="st2" d="M601.3,129.2c0-3.2,2-5.1,4.3-5.1s4.3,1.9,4.3,5.1c0,3.2-2,5-4.3,5S601.3,132.4,601.3,129.2z
							 M608.9,129.2c0-2.4-1.4-4.1-3.3-4.1c-1.9,0-3.2,1.7-3.2,4.1c0,2.4,1.4,4.1,3.2,4.1C607.5,133.3,608.9,131.7,608.9,129.2z"/>
						<path class="st2" d="M611.9,135.9c0-0.8,0.6-1.7,1.4-2.3v-0.1c-0.5-0.3-0.9-0.8-0.9-1.5c0-0.8,0.6-1.5,1.1-1.8v-0.1
							c-0.6-0.5-1.2-1.5-1.2-2.6c0-2,1.5-3.4,3.4-3.4c0.5,0,1,0.1,1.3,0.3h3.3v0.9h-2.2c0.6,0.5,1,1.3,1,2.3c0,2-1.5,3.4-3.4,3.4
							c-0.5,0-1.1-0.1-1.5-0.4c-0.4,0.3-0.8,0.7-0.8,1.3c0,0.7,0.4,1.2,1.8,1.2h2c2.2,0,3.2,0.7,3.2,2.2c0,1.7-1.8,3.3-4.6,3.3
							C613.5,138.6,611.9,137.6,611.9,135.9z M619.5,135.5c0-1-0.8-1.4-2.2-1.4h-2c-0.2,0-0.7-0.1-1.2-0.2c-0.8,0.6-1.2,1.3-1.2,1.9
							c0,1.2,1.1,2,3.1,2C618.1,137.8,619.5,136.6,619.5,135.5z M618.2,127.6c0-1.6-1.1-2.6-2.4-2.6c-1.3,0-2.4,1-2.4,2.6
							c0,1.6,1.1,2.6,2.4,2.6C617,130.2,618.2,129.1,618.2,127.6z"/>
						<path class="st2" d="M622.2,121.3c0-0.5,0.4-0.9,0.9-0.9c0.5,0,0.9,0.3,0.9,0.9c0,0.5-0.4,0.8-0.9,0.8
							C622.6,122.2,622.2,121.8,622.2,121.3z M622.5,124.4h1v9.6h-1V124.4z"/>
						<path class="st2" d="M626.3,129.2c0-3.1,2-5.1,4.2-5.1c2.3,0,3.7,1.7,3.7,4.5c0,0.3,0,0.5-0.1,0.8h-6.8c0.1,2.3,1.4,4,3.5,4
							c1,0,1.8-0.3,2.6-0.8l0.4,0.8c-0.8,0.5-1.7,0.9-3.1,0.9C628.3,134.2,626.3,132.4,626.3,129.2z M633.3,128.5
							c0-2.3-1.1-3.5-2.7-3.5c-1.6,0-3,1.3-3.2,3.5H633.3z"/>
						<path class="st2" d="M635.7,132.9l0.6-0.8c0.8,0.7,1.7,1.2,3,1.2c1.5,0,2.2-0.8,2.2-1.8c0-1.1-1.2-1.7-2.3-2.1
							c-1.4-0.5-3-1.1-3-2.8c0-1.4,1.1-2.6,3.2-2.6c1,0,2.1,0.5,2.8,1l-0.5,0.7c-0.6-0.5-1.4-0.9-2.3-0.9c-1.4,0-2.1,0.8-2.1,1.7
							c0,1.1,1.1,1.5,2.2,1.9c1.5,0.6,3.1,1.1,3.1,2.9c0,1.5-1.2,2.7-3.3,2.7C637.8,134.2,636.5,133.6,635.7,132.9z"/>
						<path class="st2" d="M647.6,124.4h1.1l1.7,6c0.2,0.9,0.4,1.7,0.6,2.6h0.1c0.2-0.9,0.5-1.7,0.7-2.6l1.7-6h1.2l1.7,6
							c0.2,0.9,0.5,1.7,0.7,2.6h0.1c0.2-0.9,0.4-1.7,0.7-2.6l1.6-6h1l-2.7,9.6h-1.4l-1.6-5.8c-0.3-0.9-0.5-1.8-0.7-2.8H654
							c-0.2,1-0.4,1.9-0.7,2.8l-1.6,5.7h-1.3L647.6,124.4z"/>
						<path class="st2" d="M662.4,121.3c0-0.5,0.4-0.9,0.9-0.9c0.5,0,0.9,0.3,0.9,0.9c0,0.5-0.4,0.8-0.9,0.8
							C662.8,122.2,662.4,121.8,662.4,121.3z M662.7,124.4h1v9.6h-1V124.4z"/>
						<path class="st2" d="M667.6,131.3v-6h-1.5v-0.8l1.5-0.1l0.1-2.8h0.9v2.8h2.8v0.9h-2.8v6c0,1.2,0.3,2,1.6,2
							c0.4,0,0.8-0.1,1.2-0.3l0.3,0.8c-0.6,0.2-1.2,0.4-1.6,0.4C668.2,134.2,667.6,133,667.6,131.3z"/>
						<path class="st2" d="M673.7,119.7h1v4.1l0,2.1c1-1,2-1.7,3.3-1.7c2,0,2.9,1.2,2.9,3.7v6.1h-1v-6c0-2-0.6-2.9-2.1-2.9
							c-1.1,0-1.9,0.6-3,1.7v7.2h-1V119.7z"/>
						<path class="st2" d="M687.5,135.9c0-0.8,0.6-1.7,1.4-2.3v-0.1c-0.5-0.3-0.9-0.8-0.9-1.5c0-0.8,0.6-1.5,1.1-1.8v-0.1
							c-0.6-0.5-1.2-1.5-1.2-2.6c0-2,1.5-3.4,3.4-3.4c0.5,0,1,0.1,1.3,0.3h3.3v0.9h-2.2c0.6,0.5,1,1.3,1,2.3c0,2-1.5,3.4-3.4,3.4
							c-0.5,0-1.1-0.1-1.5-0.4c-0.4,0.3-0.8,0.7-0.8,1.3c0,0.7,0.4,1.2,1.8,1.2h2c2.2,0,3.2,0.7,3.2,2.2c0,1.7-1.8,3.3-4.6,3.3
							C689.1,138.6,687.5,137.6,687.5,135.9z M695,135.5c0-1-0.8-1.4-2.2-1.4h-2c-0.2,0-0.7-0.1-1.2-0.2c-0.8,0.6-1.2,1.3-1.2,1.9
							c0,1.2,1.1,2,3.1,2C693.7,137.8,695,136.6,695,135.5z M693.7,127.6c0-1.6-1.1-2.6-2.4-2.6c-1.3,0-2.4,1-2.4,2.6
							c0,1.6,1.1,2.6,2.4,2.6C692.6,130.2,693.7,129.1,693.7,127.6z"/>
						<path class="st2" d="M698.1,132.6v-12.9h1v13c0,0.5,0.2,0.6,0.4,0.6c0.1,0,0.1,0,0.3,0l0.2,0.8c-0.2,0.1-0.4,0.1-0.7,0.1
							C698.5,134.2,698.1,133.7,698.1,132.6z"/>
						<path class="st2" d="M702.1,129.2c0-3.2,2-5.1,4.3-5.1s4.3,1.9,4.3,5.1c0,3.2-2,5-4.3,5S702.1,132.4,702.1,129.2z
							 M709.7,129.2c0-2.4-1.4-4.1-3.3-4.1c-1.9,0-3.2,1.7-3.2,4.1c0,2.4,1.4,4.1,3.2,4.1C708.3,133.3,709.7,131.7,709.7,129.2z"/>
						<path class="st2" d="M714.6,133L714.6,133l-0.2,1h-0.8v-14.3h1v4.1l-0.1,1.8c1-0.8,2.1-1.5,3.2-1.5c2.6,0,3.9,1.9,3.9,4.9
							c0,3.3-2,5.2-4.2,5.2C716.5,134.2,715.5,133.8,714.6,133z M720.5,129c0-2.3-0.8-4-2.9-4c-0.9,0-1.9,0.5-3,1.5v5.5
							c1,0.9,2,1.2,2.7,1.2C719.2,133.3,720.5,131.6,720.5,129z"/>
						<path class="st2" d="M723.5,131.6c0-2.1,1.9-3.1,6.1-3.6c0-1.4-0.4-2.9-2.2-2.9c-1.3,0-2.4,0.6-3,1.1l-0.5-0.8
							c0.7-0.5,2.1-1.3,3.6-1.3c2.3,0,3.1,1.6,3.1,3.8v6.1h-0.9l-0.1-1.2h0c-1,0.8-2.1,1.5-3.3,1.5
							C724.7,134.2,723.5,133.4,723.5,131.6z M729.6,131.9v-3.1c-3.8,0.4-5.1,1.3-5.1,2.8c0,1.3,0.9,1.8,2,1.8
							C727.5,133.4,728.4,132.8,729.6,131.9z"/>
						<path class="st2" d="M734,132.6v-12.9h1v13c0,0.5,0.2,0.6,0.4,0.6c0.1,0,0.1,0,0.3,0l0.2,0.8c-0.2,0.1-0.4,0.1-0.7,0.1
							C734.4,134.2,734,133.7,734,132.6z"/>
						<path class="st2" d="M742,129.2c0-3.2,2.1-5.1,4.4-5.1c1.3,0,2.1,0.6,2.8,1.2l-0.6,0.7c-0.6-0.6-1.3-1-2.2-1
							c-1.9,0-3.4,1.7-3.4,4.1c0,2.4,1.3,4.1,3.3,4.1c1,0,1.9-0.5,2.5-1.1l0.5,0.7c-0.8,0.7-1.9,1.2-3.1,1.2
							C743.9,134.2,742,132.4,742,129.2z"/>
						<path class="st2" d="M750.6,129.2c0-3.2,2-5.1,4.3-5.1c2.3,0,4.3,1.9,4.3,5.1c0,3.2-2,5-4.3,5
							C752.6,134.2,750.6,132.4,750.6,129.2z M758.2,129.2c0-2.4-1.4-4.1-3.3-4.1c-1.9,0-3.2,1.7-3.2,4.1c0,2.4,1.4,4.1,3.2,4.1
							C756.8,133.3,758.2,131.7,758.2,129.2z"/>
						<path class="st2" d="M762.1,124.4h0.9l0.1,1.5h0c0.9-1,1.9-1.7,3-1.7c1.5,0,2.3,0.8,2.6,1.9c1.1-1.2,2.1-1.9,3.2-1.9
							c1.9,0,2.9,1.2,2.9,3.7v6.1h-1v-6c0-2-0.7-2.9-2.1-2.9c-0.9,0-1.7,0.6-2.8,1.7v7.2h-1v-6c0-2-0.6-2.9-2.1-2.9
							c-0.8,0-1.8,0.6-2.8,1.7v7.2h-1V124.4z"/>
						<path class="st2" d="M778.3,124.4h0.9l0.1,1.2h0c0.9-0.7,2-1.4,3.2-1.4c2.6,0,3.9,1.9,3.9,4.9c0,3.3-2,5.2-4.2,5.2
							c-0.9,0-1.9-0.4-2.8-1.2l0,1.8v3.5h-1V124.4z M785.3,129c0-2.3-0.8-4-2.9-4c-0.9,0-1.9,0.5-3,1.5v5.5c1,0.9,2,1.2,2.7,1.2
							C784,133.3,785.3,131.6,785.3,129z"/>
						<path class="st2" d="M788.4,129.2c0-3.1,2-5.1,4.2-5.1c2.3,0,3.7,1.7,3.7,4.5c0,0.3,0,0.5-0.1,0.8h-6.8c0.1,2.3,1.4,4,3.5,4
							c1,0,1.8-0.3,2.6-0.8l0.4,0.8c-0.8,0.5-1.7,0.9-3.1,0.9C790.4,134.2,788.4,132.4,788.4,129.2z M795.4,128.5
							c0-2.3-1.1-3.5-2.7-3.5c-1.6,0-3,1.3-3.2,3.5H795.4z"/>
						<path class="st2" d="M798.9,131.3v-6h-1.5v-0.8l1.5-0.1l0.1-2.8h0.9v2.8h2.8v0.9H800v6c0,1.2,0.3,2,1.6,2
							c0.4,0,0.8-0.1,1.2-0.3l0.3,0.8c-0.6,0.2-1.2,0.4-1.6,0.4C799.5,134.2,798.9,133,798.9,131.3z"/>
						<path class="st2" d="M804.7,121.3c0-0.5,0.4-0.9,0.9-0.9c0.5,0,0.9,0.3,0.9,0.9c0,0.5-0.4,0.8-0.9,0.8
							C805.1,122.2,804.7,121.8,804.7,121.3z M805,124.4h1v9.6h-1V124.4z"/>
						<path class="st2" d="M809.9,131.3v-6h-1.5v-0.8l1.5-0.1l0.1-2.8h0.9v2.8h2.8v0.9H811v6c0,1.2,0.3,2,1.6,2
							c0.4,0,0.8-0.1,1.2-0.3l0.3,0.8c-0.6,0.2-1.2,0.4-1.6,0.4C810.5,134.2,809.9,133,809.9,131.3z"/>
						<path class="st2" d="M815.7,121.3c0-0.5,0.4-0.9,0.9-0.9c0.5,0,0.9,0.3,0.9,0.9c0,0.5-0.4,0.8-0.9,0.8
							C816.1,122.2,815.7,121.8,815.7,121.3z M816,124.4h1v9.6h-1V124.4z"/>
						<path class="st2" d="M819.1,124.4h1.1l2.1,5.9c0.3,0.9,0.6,1.9,1,2.8h0.1c0.3-0.9,0.6-1.8,1-2.8l2.1-5.9h1.1l-3.5,9.6h-1.2
							L819.1,124.4z"/>
						<path class="st2" d="M828.6,129.2c0-3.1,2-5.1,4.2-5.1c2.3,0,3.7,1.7,3.7,4.5c0,0.3,0,0.5-0.1,0.8h-6.8c0.1,2.3,1.4,4,3.5,4
							c1,0,1.8-0.3,2.6-0.8l0.4,0.8c-0.8,0.5-1.7,0.9-3.1,0.9C830.6,134.2,828.6,132.4,828.6,129.2z M835.6,128.5
							c0-2.3-1.1-3.5-2.7-3.5c-1.6,0-3,1.3-3.2,3.5H835.6z"/>
						<path class="st2" d="M839.1,124.4h0.9l0.1,1.5h0c1-1,2-1.7,3.3-1.7c2,0,2.9,1.2,2.9,3.7v6.1h-1v-6c0-2-0.6-2.9-2.1-2.9
							c-1.1,0-1.9,0.6-3,1.7v7.2h-1V124.4z"/>
						<path class="st2" d="M849,129.2c0-3.1,2-5.1,4.2-5.1c2.3,0,3.7,1.7,3.7,4.5c0,0.3,0,0.5-0.1,0.8h-6.8c0.1,2.3,1.4,4,3.5,4
							c1,0,1.8-0.3,2.6-0.8l0.4,0.8c-0.8,0.5-1.7,0.9-3.1,0.9C851,134.2,849,132.4,849,129.2z M856,128.5c0-2.3-1.1-3.5-2.7-3.5
							c-1.6,0-3,1.3-3.2,3.5H856z"/>
						<path class="st2" d="M858.3,132.9l0.6-0.8c0.8,0.7,1.7,1.2,3,1.2c1.5,0,2.2-0.8,2.2-1.8c0-1.1-1.2-1.7-2.3-2.1
							c-1.4-0.5-3-1.1-3-2.8c0-1.4,1.1-2.6,3.2-2.6c1,0,2.1,0.5,2.8,1l-0.5,0.7c-0.6-0.5-1.4-0.9-2.3-0.9c-1.4,0-2.1,0.8-2.1,1.7
							c0,1.1,1.1,1.5,2.2,1.9c1.5,0.6,3.1,1.1,3.1,2.9c0,1.5-1.2,2.7-3.3,2.7C860.4,134.2,859.2,133.6,858.3,132.9z"/>
						<path class="st2" d="M866.4,132.9l0.6-0.8c0.8,0.7,1.7,1.2,3,1.2c1.5,0,2.2-0.8,2.2-1.8c0-1.1-1.2-1.7-2.3-2.1
							c-1.4-0.5-3-1.1-3-2.8c0-1.4,1.1-2.6,3.2-2.6c1,0,2.1,0.5,2.8,1l-0.5,0.7c-0.6-0.5-1.3-0.9-2.3-0.9c-1.4,0-2.1,0.8-2.1,1.7
							c0,1.1,1.1,1.5,2.2,1.9c1.5,0.6,3.1,1.1,3.1,2.9c0,1.5-1.2,2.7-3.3,2.7C868.6,134.2,867.3,133.6,866.4,132.9z"/>
					</g>
					<text transform="matrix(1 0 0 1 873.9518 134)" class="st2 st5 st6"> </text>
					<g class="st1">
						<path class="st2" d="M71.8,163.6h4.4v0.9h-4.4V163.6z"/>
						<path class="st2" d="M82.8,163.9v-8h1.1v7.9c0,3.4,1.6,4.4,3.4,4.4c1.9,0,3.5-1,3.5-4.4v-7.9h1v8c0,4.1-2.1,5.4-4.5,5.4
							S82.8,168,82.8,163.9z"/>
						<path class="st2" d="M95.7,166.3v-6h-1.5v-0.8l1.5-0.1l0.1-2.8h0.9v2.8h2.8v0.9h-2.8v6c0,1.2,0.3,2,1.6,2
							c0.4,0,0.8-0.1,1.2-0.3l0.3,0.8c-0.6,0.2-1.2,0.4-1.6,0.4C96.3,169.2,95.7,168,95.7,166.3z"/>
						<path class="st2" d="M101.5,156.3c0-0.5,0.4-0.9,0.9-0.9c0.5,0,0.9,0.3,0.9,0.9c0,0.5-0.4,0.8-0.9,0.8
							C101.9,157.2,101.5,156.8,101.5,156.3z M101.8,159.4h1v9.6h-1V159.4z"/>
						<path class="st2" d="M106.4,167.6v-12.9h1v13c0,0.5,0.2,0.6,0.4,0.6c0.1,0,0.1,0,0.3,0l0.2,0.8c-0.2,0.1-0.4,0.1-0.7,0.1
							C106.9,169.2,106.4,168.7,106.4,167.6z"/>
						<path class="st2" d="M110.9,156.3c0-0.5,0.4-0.9,0.9-0.9c0.5,0,0.9,0.3,0.9,0.9c0,0.5-0.4,0.8-0.9,0.8
							C111.3,157.2,110.9,156.8,110.9,156.3z M111.2,159.4h1v9.6h-1V159.4z"/>
						<path class="st2" d="M114.6,168.4l5.5-8.2h-4.9v-0.9h6.3v0.6l-5.5,8.1h5.7v0.9h-7.1V168.4z"/>
						<path class="st2" d="M123,164.2c0-3.1,2-5.1,4.2-5.1c2.3,0,3.7,1.7,3.7,4.5c0,0.3,0,0.5-0.1,0.8h-6.8c0.1,2.3,1.4,4,3.5,4
							c1,0,1.8-0.3,2.6-0.8l0.4,0.8c-0.8,0.5-1.7,0.9-3.1,0.9C125,169.2,123,167.4,123,164.2z M130,163.5c0-2.3-1.1-3.5-2.7-3.5
							c-1.6,0-3,1.3-3.2,3.5H130z"/>
						<path class="st2" d="M138.5,168L138.5,168l-0.2,1h-0.8v-14.3h1v4.1l-0.1,1.8c1-0.8,2.1-1.5,3.2-1.5c2.6,0,3.9,1.9,3.9,4.9
							c0,3.3-2,5.2-4.2,5.2C140.5,169.2,139.4,168.8,138.5,168z M144.5,164c0-2.3-0.8-4-2.9-4c-0.9,0-1.9,0.5-3,1.5v5.5
							c1,0.9,2,1.2,2.7,1.2C143.1,168.3,144.5,166.6,144.5,164z"/>
						<path class="st2" d="M148,156.3c0-0.5,0.4-0.9,0.9-0.9c0.5,0,0.9,0.3,0.9,0.9c0,0.5-0.4,0.8-0.9,0.8
							C148.4,157.2,148,156.8,148,156.3z M148.4,159.4h1v9.6h-1V159.4z"/>
						<path class="st2" d="M152.2,170.9c0-0.8,0.6-1.7,1.4-2.3v-0.1c-0.5-0.3-0.9-0.8-0.9-1.5c0-0.8,0.6-1.5,1.1-1.8v-0.1
							c-0.6-0.5-1.2-1.5-1.2-2.6c0-2,1.5-3.4,3.4-3.4c0.5,0,1,0.1,1.3,0.3h3.3v0.9h-2.2c0.6,0.5,1,1.3,1,2.3c0,2-1.5,3.4-3.4,3.4
							c-0.5,0-1.1-0.1-1.5-0.4c-0.4,0.3-0.8,0.7-0.8,1.3c0,0.7,0.4,1.2,1.8,1.2h2c2.2,0,3.2,0.7,3.2,2.2c0,1.7-1.8,3.3-4.6,3.3
							C153.7,173.6,152.2,172.6,152.2,170.9z M159.7,170.5c0-1-0.8-1.4-2.2-1.4h-2c-0.2,0-0.7-0.1-1.2-0.2c-0.8,0.6-1.2,1.3-1.2,1.9
							c0,1.2,1.1,2,3.1,2C158.4,172.8,159.7,171.6,159.7,170.5z M158.4,162.6c0-1.6-1.1-2.6-2.4-2.6c-1.3,0-2.4,1-2.4,2.6
							c0,1.6,1.1,2.6,2.4,2.6C157.3,165.2,158.4,164.1,158.4,162.6z"/>
						<path class="st2" d="M166,164.2c0-3.1,2-5.1,4.2-5.1c1.2,0,1.9,0.4,2.9,1.2l-0.1-1.7v-3.9h1V169h-0.9l-0.1-1.2h0
							c-0.8,0.8-1.8,1.4-3.1,1.4C167.5,169.2,166,167.4,166,164.2z M173,166.8v-5.5c-1-0.9-1.8-1.2-2.7-1.2c-1.8,0-3.2,1.8-3.2,4.1
							c0,2.5,1.1,4.1,3,4.1C171.2,168.3,172.1,167.8,173,166.8z"/>
						<path class="st2" d="M177,166.6c0-2.1,1.9-3.1,6.1-3.6c0-1.4-0.4-2.9-2.2-2.9c-1.3,0-2.4,0.6-3,1.1l-0.5-0.8
							c0.7-0.5,2.1-1.3,3.6-1.3c2.3,0,3.1,1.6,3.1,3.8v6.1h-0.9l-0.1-1.2h0c-1,0.8-2.1,1.5-3.3,1.5C178.2,169.2,177,168.4,177,166.6
							z M183.1,166.9v-3.1c-3.8,0.4-5.1,1.3-5.1,2.8c0,1.3,0.9,1.8,2,1.8C181.1,168.4,182,167.8,183.1,166.9z"/>
						<path class="st2" d="M187.5,166.3v-6H186v-0.8l1.5-0.1l0.1-2.8h0.9v2.8h2.8v0.9h-2.8v6c0,1.2,0.3,2,1.6,2
							c0.4,0,0.8-0.1,1.2-0.3l0.3,0.8c-0.6,0.2-1.2,0.4-1.6,0.4C188.1,169.2,187.5,168,187.5,166.3z"/>
						<path class="st2" d="M192.5,166.6c0-2.1,1.9-3.1,6.1-3.6c0-1.4-0.4-2.9-2.2-2.9c-1.3,0-2.4,0.6-3,1.1l-0.5-0.8
							c0.7-0.5,2.1-1.3,3.6-1.3c2.3,0,3.1,1.6,3.1,3.8v6.1h-0.9l-0.1-1.2h0c-1,0.8-2.1,1.5-3.3,1.5
							C193.7,169.2,192.5,168.4,192.5,166.6z M198.6,166.9v-3.1c-3.8,0.4-5.1,1.3-5.1,2.8c0,1.3,0.9,1.8,2,1.8
							C196.6,168.4,197.5,167.8,198.6,166.9z"/>
						<path class="st2" d="M207.2,166.3v-6h-1.5v-0.8l1.5-0.1l0.1-2.8h0.9v2.8h2.8v0.9h-2.8v6c0,1.2,0.3,2,1.6,2
							c0.4,0,0.8-0.1,1.2-0.3l0.3,0.8c-0.6,0.2-1.2,0.4-1.6,0.4C207.8,169.2,207.2,168,207.2,166.3z"/>
						<path class="st2" d="M212.3,164.2c0-3.2,2-5.1,4.3-5.1s4.3,1.9,4.3,5.1c0,3.2-2,5-4.3,5S212.3,167.4,212.3,164.2z
							 M219.9,164.2c0-2.4-1.4-4.1-3.3-4.1s-3.2,1.7-3.2,4.1c0,2.4,1.4,4.1,3.2,4.1S219.9,166.7,219.9,164.2z"/>
						<path class="st2" d="M227.5,156.3c0-0.5,0.4-0.9,0.9-0.9c0.5,0,0.9,0.3,0.9,0.9c0,0.5-0.4,0.8-0.9,0.8
							C227.9,157.2,227.5,156.8,227.5,156.3z M227.8,159.4h1v9.6h-1V159.4z"/>
						<path class="st2" d="M231.6,164.2c0-3.1,2-5.1,4.2-5.1c1.2,0,1.9,0.4,2.9,1.2l-0.1-1.7v-3.9h1V169h-0.9l-0.1-1.2h0
							c-0.8,0.8-1.8,1.4-3.1,1.4C233.2,169.2,231.6,167.4,231.6,164.2z M238.7,166.8v-5.5c-1-0.9-1.8-1.2-2.7-1.2
							c-1.8,0-3.2,1.8-3.2,4.1c0,2.5,1.1,4.1,3,4.1C236.8,168.3,237.7,167.8,238.7,166.8z"/>
						<path class="st2" d="M242.5,164.2c0-3.1,2-5.1,4.2-5.1c2.3,0,3.7,1.7,3.7,4.5c0,0.3,0,0.5-0.1,0.8h-6.8c0.1,2.3,1.4,4,3.5,4
							c1,0,1.8-0.3,2.6-0.8l0.4,0.8c-0.8,0.5-1.7,0.9-3.1,0.9C244.5,169.2,242.5,167.4,242.5,164.2z M249.5,163.5
							c0-2.3-1.1-3.5-2.7-3.5c-1.6,0-3,1.3-3.2,3.5H249.5z"/>
						<path class="st2" d="M253,159.4h0.9l0.1,1.5h0c1-1,2-1.7,3.3-1.7c2,0,2.9,1.2,2.9,3.7v6.1h-1v-6c0-2-0.6-2.9-2.1-2.9
							c-1.1,0-1.9,0.6-3,1.7v7.2h-1V159.4z"/>
						<path class="st2" d="M263.9,166.3v-6h-1.5v-0.8l1.5-0.1l0.1-2.8h0.9v2.8h2.8v0.9h-2.8v6c0,1.2,0.3,2,1.6,2
							c0.4,0,0.8-0.1,1.2-0.3l0.3,0.8c-0.6,0.2-1.2,0.4-1.6,0.4C264.5,169.2,263.9,168,263.9,166.3z"/>
						<path class="st2" d="M269.7,156.3c0-0.5,0.4-0.9,0.9-0.9c0.5,0,0.9,0.3,0.9,0.9c0,0.5-0.4,0.8-0.9,0.8
							C270.1,157.2,269.7,156.8,269.7,156.3z M270,159.4h1v9.6h-1V159.4z"/>
						<path class="st2" d="M278.4,155.6c-0.4-0.2-0.8-0.3-1.1-0.3c-1,0-1.5,0.8-1.5,2.1v2h2.2v0.9h-2.2v8.7h-1v-8.7h-1.3v-0.8
							l1.3-0.1v-2c0-1.9,0.8-2.9,2.5-2.9c0.5,0,1,0.1,1.4,0.3L278.4,155.6z"/>
						<path class="st2" d="M278.7,173.1l0.2-0.9c0.2,0.1,0.5,0.1,0.8,0.1c1.2,0,1.9-1,2.4-2.4l0.3-0.8l-3.9-9.7h1.1l2.2,5.9
							c0.3,0.8,0.7,1.8,1,2.7h0.1c0.3-0.9,0.6-1.9,0.9-2.7l2-5.9h1.1l-3.7,10.7c-0.6,1.7-1.5,3.2-3.3,3.2
							C279.3,173.3,279,173.2,278.7,173.1z"/>
						<path class="st2" d="M292.9,155.9h1.4l2.7,7.5l1,2.9h0.1c0.3-1,0.6-1.9,1-2.9l2.7-7.5h1.4V169h-1v-8.3c0-1.1,0.1-2.5,0.1-3.6
							h-0.1l-1,2.9l-2.8,7.6h-0.9l-2.8-7.6l-1-2.9h-0.1c0.1,1.1,0.1,2.5,0.1,3.6v8.3h-1V155.9z"/>
						<path class="st2" d="M306.8,165.5v-6.1h1v6c0,2,0.6,2.9,2.1,2.9c1.1,0,1.9-0.6,3-1.9v-7h1v9.6h-0.9l-0.1-1.6H313
							c-0.9,1.1-1.9,1.8-3.2,1.8C307.7,169.2,306.8,168,306.8,165.5z"/>
						<path class="st2" d="M317.6,167.6v-12.9h1v13c0,0.5,0.2,0.6,0.4,0.6c0.1,0,0.1,0,0.3,0l0.2,0.8c-0.2,0.1-0.4,0.1-0.7,0.1
							C318,169.2,317.6,168.7,317.6,167.6z"/>
						<path class="st2" d="M322.6,166.3v-6h-1.5v-0.8l1.5-0.1l0.1-2.8h0.9v2.8h2.8v0.9h-2.8v6c0,1.2,0.3,2,1.6,2
							c0.4,0,0.8-0.1,1.2-0.3l0.3,0.8c-0.6,0.2-1.2,0.4-1.6,0.4C323.2,169.2,322.6,168,322.6,166.3z"/>
						<path class="st2" d="M328.4,156.3c0-0.5,0.4-0.9,0.9-0.9c0.5,0,0.9,0.3,0.9,0.9c0,0.5-0.4,0.8-0.9,0.8
							C328.8,157.2,328.4,156.8,328.4,156.3z M328.7,159.4h1v9.6h-1V159.4z"/>
						<path class="st2" d="M332.4,163.6h4.4v0.9h-4.4V163.6z"/>
						<path class="st2" d="M338.6,162.4c0-4.2,2.3-6.8,5.7-6.8c1.5,0,2.8,0.8,3.5,1.6l-0.6,0.7c-0.7-0.8-1.6-1.3-2.8-1.3
							c-2.8,0-4.5,2.2-4.5,5.8c0,3.6,1.7,5.9,4.5,5.9c1.3,0,2.3-0.6,3.3-1.6l0.6,0.7c-1,1.2-2.2,1.9-3.9,1.9
							C340.9,169.2,338.6,166.6,338.6,162.4z"/>
						<path class="st2" d="M349.9,164.2c0-3.2,2-5.1,4.3-5.1s4.3,1.9,4.3,5.1c0,3.2-2,5-4.3,5S349.9,167.4,349.9,164.2z
							 M357.4,164.2c0-2.4-1.4-4.1-3.3-4.1s-3.2,1.7-3.2,4.1c0,2.4,1.4,4.1,3.2,4.1S357.4,166.7,357.4,164.2z"/>
						<path class="st2" d="M361.3,159.4h0.9l0.1,1.5h0c0.9-1,1.9-1.7,3-1.7c1.5,0,2.3,0.8,2.6,1.9c1.1-1.2,2.1-1.9,3.2-1.9
							c1.9,0,2.9,1.2,2.9,3.7v6.1h-1v-6c0-2-0.7-2.9-2.1-2.9c-0.9,0-1.7,0.6-2.8,1.7v7.2h-1v-6c0-2-0.6-2.9-2.1-2.9
							c-0.8,0-1.8,0.6-2.8,1.7v7.2h-1V159.4z"/>
						<path class="st2" d="M377.6,159.4h0.9l0.1,1.2h0c0.9-0.7,2-1.4,3.2-1.4c2.6,0,3.9,1.9,3.9,4.9c0,3.3-2,5.2-4.2,5.2
							c-0.9,0-1.9-0.4-2.8-1.2l0,1.8v3.5h-1V159.4z M384.6,164c0-2.3-0.8-4-2.9-4c-0.9,0-1.9,0.5-3,1.5v5.5c1,0.9,2,1.2,2.7,1.2
							C383.2,168.3,384.6,166.6,384.6,164z"/>
						<path class="st2" d="M387.7,164.2c0-3.2,2-5.1,4.3-5.1s4.3,1.9,4.3,5.1c0,3.2-2,5-4.3,5S387.7,167.4,387.7,164.2z
							 M395.3,164.2c0-2.4-1.4-4.1-3.3-4.1s-3.2,1.7-3.2,4.1c0,2.4,1.4,4.1,3.2,4.1S395.3,166.7,395.3,164.2z"/>
						<path class="st2" d="M399.2,159.4h0.9l0.1,1.5h0c1-1,2-1.7,3.3-1.7c2,0,2.9,1.2,2.9,3.7v6.1h-1v-6c0-2-0.6-2.9-2.1-2.9
							c-1.1,0-1.9,0.6-3,1.7v7.2h-1V159.4z"/>
						<path class="st2" d="M409.1,164.2c0-3.1,2-5.1,4.2-5.1c2.3,0,3.7,1.7,3.7,4.5c0,0.3,0,0.5-0.1,0.8h-6.8c0.1,2.3,1.4,4,3.5,4
							c1,0,1.8-0.3,2.6-0.8l0.4,0.8c-0.8,0.5-1.7,0.9-3.1,0.9C411.1,169.2,409.1,167.4,409.1,164.2z M416,163.5
							c0-2.3-1.1-3.5-2.7-3.5c-1.6,0-3,1.3-3.2,3.5H416z"/>
						<path class="st2" d="M419.5,159.4h0.9l0.1,1.5h0c1-1,2-1.7,3.3-1.7c2,0,2.9,1.2,2.9,3.7v6.1h-1v-6c0-2-0.6-2.9-2.1-2.9
							c-1.1,0-1.9,0.6-3,1.7v7.2h-1V159.4z"/>
						<path class="st2" d="M430.5,166.3v-6H429v-0.8l1.5-0.1l0.1-2.8h0.9v2.8h2.8v0.9h-2.8v6c0,1.2,0.3,2,1.6,2
							c0.4,0,0.8-0.1,1.2-0.3l0.3,0.8c-0.6,0.2-1.2,0.4-1.6,0.4C431,169.2,430.5,168,430.5,166.3z"/>
						<path class="st2" d="M441.2,154.8h0.9l-5.9,17.3h-0.8L441.2,154.8z"/>
						<path class="st2" d="M444.1,155.9h1.4l2.7,7.5l1,2.9h0.1c0.3-1,0.6-1.9,1-2.9l2.7-7.5h1.4V169h-1v-8.3c0-1.1,0.1-2.5,0.1-3.6
							h-0.1l-1,2.9l-2.8,7.6h-0.9L446,160l-1-2.9h-0.1c0.1,1.1,0.1,2.5,0.1,3.6v8.3h-1V155.9z"/>
						<path class="st2" d="M458,165.5v-6.1h1v6c0,2,0.6,2.9,2.1,2.9c1.1,0,1.9-0.6,3-1.9v-7h1v9.6h-0.9l-0.1-1.6h-0.1
							c-0.9,1.1-1.9,1.8-3.2,1.8C458.9,169.2,458,168,458,165.5z"/>
						<path class="st2" d="M468.8,167.6v-12.9h1v13c0,0.5,0.2,0.6,0.4,0.6c0.1,0,0.1,0,0.3,0l0.2,0.8c-0.2,0.1-0.4,0.1-0.7,0.1
							C469.2,169.2,468.8,168.7,468.8,167.6z"/>
						<path class="st2" d="M473.8,166.3v-6h-1.5v-0.8l1.5-0.1l0.1-2.8h0.9v2.8h2.8v0.9h-2.8v6c0,1.2,0.3,2,1.6,2
							c0.4,0,0.8-0.1,1.2-0.3l0.3,0.8c-0.6,0.2-1.2,0.4-1.6,0.4C474.4,169.2,473.8,168,473.8,166.3z"/>
						<path class="st2" d="M479.6,156.3c0-0.5,0.4-0.9,0.9-0.9c0.5,0,0.9,0.3,0.9,0.9c0,0.5-0.4,0.8-0.9,0.8
							C480,157.2,479.6,156.8,479.6,156.3z M479.9,159.4h1v9.6h-1V159.4z"/>
						<path class="st2" d="M483.5,163.6h4.4v0.9h-4.4V163.6z"/>
						<path class="st2" d="M492.6,156.8h-4.1v-0.9h9.4v0.9h-4.1V169h-1.1V156.8z"/>
						<path class="st2" d="M498,166.6c0-2.1,1.9-3.1,6.1-3.6c0-1.4-0.4-2.9-2.2-2.9c-1.3,0-2.4,0.6-3,1.1l-0.5-0.8
							c0.7-0.5,2.1-1.3,3.6-1.3c2.3,0,3.1,1.6,3.1,3.8v6.1h-0.9l-0.1-1.2h0c-1,0.8-2.1,1.5-3.3,1.5C499.2,169.2,498,168.4,498,166.6
							z M504.1,166.9v-3.1c-3.8,0.4-5.1,1.3-5.1,2.8c0,1.3,0.9,1.8,2,1.8S503,167.8,504.1,166.9z"/>
						<path class="st2" d="M508.5,159.4h0.9l0.1,1.8h0c0.6-1.2,1.6-2,2.7-2c0.4,0,0.7,0.1,1,0.2l-0.2,0.9c-0.3-0.1-0.5-0.2-0.9-0.2
							c-0.8,0-1.9,0.6-2.6,2.4v6.4h-1V159.4z"/>
						<path class="st2" d="M513.9,170.9c0-0.8,0.6-1.7,1.4-2.3v-0.1c-0.5-0.3-0.9-0.8-0.9-1.5c0-0.8,0.6-1.5,1.1-1.8v-0.1
							c-0.6-0.5-1.2-1.5-1.2-2.6c0-2,1.5-3.4,3.4-3.4c0.5,0,1,0.1,1.3,0.3h3.3v0.9h-2.2c0.6,0.5,1,1.3,1,2.3c0,2-1.5,3.4-3.4,3.4
							c-0.5,0-1.1-0.1-1.5-0.4c-0.4,0.3-0.8,0.7-0.8,1.3c0,0.7,0.4,1.2,1.8,1.2h2c2.2,0,3.2,0.7,3.2,2.2c0,1.7-1.8,3.3-4.6,3.3
							C515.5,173.6,513.9,172.6,513.9,170.9z M521.5,170.5c0-1-0.8-1.4-2.2-1.4h-2c-0.2,0-0.7-0.1-1.2-0.2c-0.8,0.6-1.2,1.3-1.2,1.9
							c0,1.2,1.1,2,3.1,2C520.1,172.8,521.5,171.6,521.5,170.5z M520.2,162.6c0-1.6-1.1-2.6-2.4-2.6c-1.3,0-2.4,1-2.4,2.6
							c0,1.6,1.1,2.6,2.4,2.6C519.1,165.2,520.2,164.1,520.2,162.6z"/>
						<path class="st2" d="M523.5,164.2c0-3.1,2-5.1,4.2-5.1c2.3,0,3.7,1.7,3.7,4.5c0,0.3,0,0.5-0.1,0.8h-6.8c0.1,2.3,1.4,4,3.5,4
							c1,0,1.8-0.3,2.6-0.8l0.4,0.8c-0.8,0.5-1.7,0.9-3.1,0.9C525.5,169.2,523.5,167.4,523.5,164.2z M530.5,163.5
							c0-2.3-1.1-3.5-2.7-3.5c-1.6,0-3,1.3-3.2,3.5H530.5z"/>
						<path class="st2" d="M534,166.3v-6h-1.5v-0.8l1.5-0.1l0.1-2.8h0.9v2.8h2.8v0.9h-2.8v6c0,1.2,0.3,2,1.6,2
							c0.4,0,0.8-0.1,1.2-0.3l0.3,0.8c-0.6,0.2-1.2,0.4-1.6,0.4C534.6,169.2,534,168,534,166.3z"/>
						<path class="st2" d="M544,163.5c0-3.5,1-6.4,2.6-9l0.6,0.3c-1.6,2.5-2.4,5.6-2.4,8.7c0,3.1,0.8,6.2,2.4,8.7l-0.6,0.3
							C545,169.8,544,167,544,163.5z"/>
						<path class="st2" d="M549.9,155.9h1.4l2.7,7.5l1,2.9h0.1c0.3-1,0.6-1.9,1-2.9l2.7-7.5h1.4V169h-1v-8.3c0-1.1,0.1-2.5,0.1-3.6
							h-0.1l-1,2.9l-2.8,7.6h-0.9l-2.8-7.6l-1-2.9h-0.1c0.1,1.1,0.1,2.5,0.1,3.6v8.3h-1V155.9z"/>
						<path class="st2" d="M563.2,162.4c0-4.2,2.3-6.8,5.7-6.8c1.5,0,2.8,0.8,3.5,1.6l-0.6,0.7c-0.7-0.8-1.6-1.3-2.8-1.3
							c-2.8,0-4.5,2.2-4.5,5.8c0,3.6,1.7,5.9,4.5,5.9c1.3,0,2.3-0.6,3.3-1.6l0.6,0.7c-1,1.2-2.2,1.9-3.9,1.9
							C565.5,169.2,563.2,166.6,563.2,162.4z"/>
						<path class="st2" d="M579.5,154.8h0.9l-5.9,17.3h-0.8L579.5,154.8z"/>
						<path class="st2" d="M582.4,155.9h1.4l2.7,7.5l1,2.9h0.1c0.3-1,0.6-1.9,1-2.9l2.7-7.5h1.4V169h-1v-8.3c0-1.1,0.1-2.5,0.1-3.6
							h-0.1l-1,2.9l-2.8,7.6h-0.9l-2.8-7.6l-1-2.9h-0.1c0.1,1.1,0.1,2.5,0.1,3.6v8.3h-1V155.9z"/>
						<path class="st2" d="M599.4,156.8h-4.1v-0.9h9.4v0.9h-4.1V169h-1.1V156.8z"/>
						<path class="st2" d="M605.9,172.2c1.6-2.5,2.4-5.6,2.4-8.7c0-3.1-0.8-6.2-2.4-8.7l0.6-0.3c1.6,2.6,2.6,5.5,2.6,9
							c0,3.5-1,6.4-2.6,9L605.9,172.2z"/>
						<path class="st2" d="M615.9,164.2c0-3.1,2-5.1,4.2-5.1c1.2,0,1.9,0.4,2.9,1.2l-0.1-1.7v-3.9h1V169h-0.9l-0.1-1.2h0
							c-0.8,0.8-1.8,1.4-3.1,1.4C617.4,169.2,615.9,167.4,615.9,164.2z M622.9,166.8v-5.5c-1-0.9-1.8-1.2-2.7-1.2
							c-1.8,0-3.2,1.8-3.2,4.1c0,2.5,1.1,4.1,3,4.1C621.1,168.3,622,167.8,622.9,166.8z"/>
						<path class="st2" d="M627.6,159.4h0.9l0.1,1.8h0c0.6-1.2,1.6-2,2.7-2c0.4,0,0.7,0.1,1,0.2l-0.2,0.9c-0.3-0.1-0.5-0.2-0.9-0.2
							c-0.8,0-1.9,0.6-2.6,2.4v6.4h-1V159.4z"/>
						<path class="st2" d="M633.9,165.5v-6.1h1v6c0,2,0.6,2.9,2.1,2.9c1.1,0,1.9-0.6,3-1.9v-7h1v9.6h-0.9l-0.1-1.6H640
							c-0.9,1.1-1.9,1.8-3.2,1.8C634.8,169.2,633.9,168,633.9,165.5z"/>
						<path class="st2" d="M643.8,170.9c0-0.8,0.6-1.7,1.4-2.3v-0.1c-0.5-0.3-0.9-0.8-0.9-1.5c0-0.8,0.6-1.5,1.1-1.8v-0.1
							c-0.6-0.5-1.2-1.5-1.2-2.6c0-2,1.5-3.4,3.4-3.4c0.5,0,1,0.1,1.3,0.3h3.3v0.9h-2.2c0.6,0.5,1,1.3,1,2.3c0,2-1.5,3.4-3.4,3.4
							c-0.5,0-1.1-0.1-1.5-0.4c-0.4,0.3-0.8,0.7-0.8,1.3c0,0.7,0.4,1.2,1.8,1.2h2c2.2,0,3.2,0.7,3.2,2.2c0,1.7-1.8,3.3-4.6,3.3
							C645.4,173.6,643.8,172.6,643.8,170.9z M651.3,170.5c0-1-0.8-1.4-2.2-1.4h-2c-0.2,0-0.7-0.1-1.2-0.2c-0.8,0.6-1.2,1.3-1.2,1.9
							c0,1.2,1.1,2,3.1,2C650,172.8,651.3,171.6,651.3,170.5z M650.1,162.6c0-1.6-1.1-2.6-2.4-2.6c-1.3,0-2.4,1-2.4,2.6
							c0,1.6,1.1,2.6,2.4,2.6C648.9,165.2,650.1,164.1,650.1,162.6z"/>
						<path class="st2" d="M657.6,164.2c0-3.2,2.1-5.1,4.4-5.1c1.3,0,2.1,0.6,2.8,1.2l-0.6,0.7c-0.6-0.6-1.3-1-2.2-1
							c-1.9,0-3.4,1.7-3.4,4.1c0,2.4,1.3,4.1,3.3,4.1c1,0,1.9-0.5,2.5-1.1l0.5,0.7c-0.8,0.7-1.9,1.2-3.1,1.2
							C659.5,169.2,657.6,167.4,657.6,164.2z"/>
						<path class="st2" d="M666.5,166.6c0-2.1,1.9-3.1,6.1-3.6c0-1.4-0.4-2.9-2.2-2.9c-1.3,0-2.4,0.6-3,1.1l-0.5-0.8
							c0.7-0.5,2.1-1.3,3.6-1.3c2.3,0,3.1,1.6,3.1,3.8v6.1h-0.9l-0.1-1.2h0c-1,0.8-2.1,1.5-3.3,1.5
							C667.8,169.2,666.5,168.4,666.5,166.6z M672.6,166.9v-3.1c-3.8,0.4-5.1,1.3-5.1,2.8c0,1.3,0.9,1.8,2,1.8
							C670.6,168.4,671.5,167.8,672.6,166.9z"/>
						<path class="st2" d="M677,159.4h0.9l0.1,1.5h0c1-1,2-1.7,3.3-1.7c2,0,2.9,1.2,2.9,3.7v6.1h-1v-6c0-2-0.6-2.9-2.1-2.9
							c-1.1,0-1.9,0.6-3,1.7v7.2h-1V159.4z"/>
						<path class="st2" d="M686.9,164.2c0-3.1,2-5.1,4.2-5.1c1.2,0,1.9,0.4,2.9,1.2l-0.1-1.7v-3.9h1V169h-0.9l-0.1-1.2h0
							c-0.8,0.8-1.8,1.4-3.1,1.4C688.5,169.2,686.9,167.4,686.9,164.2z M694,166.8v-5.5c-1-0.9-1.8-1.2-2.7-1.2
							c-1.8,0-3.2,1.8-3.2,4.1c0,2.5,1.1,4.1,3,4.1C692.1,168.3,693,167.8,694,166.8z"/>
						<path class="st2" d="M698.3,156.3c0-0.5,0.4-0.9,0.9-0.9c0.5,0,0.9,0.3,0.9,0.9c0,0.5-0.4,0.8-0.9,0.8
							C698.7,157.2,698.3,156.8,698.3,156.3z M698.6,159.4h1v9.6h-1V159.4z"/>
						<path class="st2" d="M702.4,164.2c0-3.1,2-5.1,4.2-5.1c1.2,0,1.9,0.4,2.9,1.2l-0.1-1.7v-3.9h1V169h-0.9l-0.1-1.2h0
							c-0.8,0.8-1.8,1.4-3.1,1.4C704,169.2,702.4,167.4,702.4,164.2z M709.5,166.8v-5.5c-1-0.9-1.8-1.2-2.7-1.2
							c-1.8,0-3.2,1.8-3.2,4.1c0,2.5,1.1,4.1,3,4.1C707.6,168.3,708.5,167.8,709.5,166.8z"/>
						<path class="st2" d="M713.4,166.6c0-2.1,1.9-3.1,6.1-3.6c0-1.4-0.4-2.9-2.2-2.9c-1.3,0-2.4,0.6-3,1.1l-0.5-0.8
							c0.7-0.5,2.1-1.3,3.6-1.3c2.3,0,3.1,1.6,3.1,3.8v6.1h-0.9l-0.1-1.2h0c-1,0.8-2.1,1.5-3.3,1.5
							C714.7,169.2,713.4,168.4,713.4,166.6z M719.6,166.9v-3.1c-3.8,0.4-5.1,1.3-5.1,2.8c0,1.3,0.9,1.8,2,1.8
							C717.5,168.4,718.4,167.8,719.6,166.9z"/>
						<path class="st2" d="M724,166.3v-6h-1.5v-0.8l1.5-0.1l0.1-2.8h0.9v2.8h2.8v0.9H725v6c0,1.2,0.3,2,1.6,2c0.4,0,0.8-0.1,1.2-0.3
							l0.3,0.8c-0.6,0.2-1.2,0.4-1.6,0.4C724.5,169.2,724,168,724,166.3z"/>
						<path class="st2" d="M729,164.2c0-3.1,2-5.1,4.2-5.1c2.3,0,3.7,1.7,3.7,4.5c0,0.3,0,0.5-0.1,0.8h-6.8c0.1,2.3,1.4,4,3.5,4
							c1,0,1.8-0.3,2.6-0.8l0.4,0.8c-0.8,0.5-1.7,0.9-3.1,0.9C731,169.2,729,167.4,729,164.2z M736,163.5c0-2.3-1.1-3.5-2.7-3.5
							c-1.6,0-3,1.3-3.2,3.5H736z"/>
						<path class="st2" d="M738.3,167.9l0.6-0.8c0.8,0.7,1.7,1.2,3,1.2c1.5,0,2.2-0.8,2.2-1.8c0-1.1-1.2-1.7-2.3-2.1
							c-1.4-0.5-3-1.1-3-2.8c0-1.4,1.1-2.6,3.2-2.6c1,0,2.1,0.5,2.8,1l-0.5,0.7c-0.6-0.5-1.4-0.9-2.3-0.9c-1.4,0-2.1,0.8-2.1,1.7
							c0,1.1,1.1,1.5,2.2,1.9c1.5,0.6,3.1,1.1,3.1,2.9c0,1.5-1.2,2.7-3.3,2.7C740.5,169.2,739.2,168.6,738.3,167.9z"/>
						<path class="st2" d="M755.5,155.6c-0.4-0.2-0.8-0.3-1.1-0.3c-1,0-1.5,0.8-1.5,2.1v2h2.2v0.9h-2.2v8.7h-1v-8.7h-1.3v-0.8
							l1.3-0.1v-2c0-1.9,0.8-2.9,2.5-2.9c0.5,0,1,0.1,1.4,0.3L755.5,155.6z"/>
						<path class="st2" d="M757,159.4h0.9l0.1,1.8h0c0.6-1.2,1.6-2,2.7-2c0.4,0,0.7,0.1,1,0.2l-0.2,0.9c-0.3-0.1-0.5-0.2-0.9-0.2
							c-0.8,0-1.9,0.6-2.6,2.4v6.4h-1V159.4z"/>
						<path class="st2" d="M762.5,164.2c0-3.2,2-5.1,4.3-5.1s4.3,1.9,4.3,5.1c0,3.2-2,5-4.3,5S762.5,167.4,762.5,164.2z
							 M770.1,164.2c0-2.4-1.4-4.1-3.3-4.1c-1.9,0-3.2,1.7-3.2,4.1c0,2.4,1.4,4.1,3.2,4.1C768.7,168.3,770.1,166.7,770.1,164.2z"/>
						<path class="st2" d="M774,159.4h0.9l0.1,1.5h0c0.9-1,1.9-1.7,3-1.7c1.5,0,2.3,0.8,2.6,1.9c1.1-1.2,2.1-1.9,3.2-1.9
							c1.9,0,2.9,1.2,2.9,3.7v6.1h-1v-6c0-2-0.7-2.9-2.1-2.9c-0.9,0-1.7,0.6-2.8,1.7v7.2h-1v-6c0-2-0.6-2.9-2.1-2.9
							c-0.8,0-1.8,0.6-2.8,1.7v7.2h-1V159.4z"/>
						<path class="st2" d="M795.2,168L795.2,168l-0.2,1h-0.8v-14.3h1v4.1l-0.1,1.8c1-0.8,2.1-1.5,3.2-1.5c2.6,0,3.9,1.9,3.9,4.9
							c0,3.3-2,5.2-4.2,5.2C797.2,169.2,796.1,168.8,795.2,168z M801.2,164c0-2.3-0.8-4-2.9-4c-0.9,0-1.9,0.5-3,1.5v5.5
							c1,0.9,2,1.2,2.7,1.2C799.9,168.3,801.2,166.6,801.2,164z"/>
						<path class="st2" d="M804.3,164.2c0-3.2,2-5.1,4.3-5.1c2.3,0,4.3,1.9,4.3,5.1c0,3.2-2,5-4.3,5
							C806.3,169.2,804.3,167.4,804.3,164.2z M811.9,164.2c0-2.4-1.4-4.1-3.3-4.1c-1.9,0-3.2,1.7-3.2,4.1c0,2.4,1.4,4.1,3.2,4.1
							C810.5,168.3,811.9,166.7,811.9,164.2z"/>
						<path class="st2" d="M815.7,166.3v-6h-1.5v-0.8l1.5-0.1l0.1-2.8h0.9v2.8h2.8v0.9h-2.8v6c0,1.2,0.3,2,1.6,2
							c0.4,0,0.8-0.1,1.2-0.3l0.3,0.8c-0.6,0.2-1.2,0.4-1.6,0.4C816.3,169.2,815.7,168,815.7,166.3z"/>
						<path class="st2" d="M820.7,166.6c0-2.1,1.9-3.1,6.1-3.6c0-1.4-0.4-2.9-2.2-2.9c-1.3,0-2.4,0.6-3,1.1l-0.5-0.8
							c0.7-0.5,2.1-1.3,3.6-1.3c2.3,0,3.1,1.6,3.1,3.8v6.1H827l-0.1-1.2h0c-1,0.8-2.1,1.5-3.3,1.5
							C822,169.2,820.7,168.4,820.7,166.6z M826.9,166.9v-3.1c-3.8,0.4-5.1,1.3-5.1,2.8c0,1.3,0.9,1.8,2,1.8
							C824.8,168.4,825.7,167.8,826.9,166.9z"/>
						<path class="st2" d="M831.3,159.4h0.9l0.1,1.5h0c1-1,2-1.7,3.3-1.7c2,0,2.9,1.2,2.9,3.7v6.1h-1v-6c0-2-0.6-2.9-2.1-2.9
							c-1.1,0-1.9,0.6-3,1.7v7.2h-1V159.4z"/>
						<path class="st2" d="M841.6,156.3c0-0.5,0.4-0.9,0.9-0.9c0.5,0,0.9,0.3,0.9,0.9c0,0.5-0.4,0.8-0.9,0.8
							C842,157.2,841.6,156.8,841.6,156.3z M841.9,159.4h1v9.6h-1V159.4z"/>
						<path class="st2" d="M845.8,164.2c0-3.2,2.1-5.1,4.4-5.1c1.3,0,2.1,0.6,2.8,1.2l-0.6,0.7c-0.6-0.6-1.3-1-2.2-1
							c-1.9,0-3.4,1.7-3.4,4.1c0,2.4,1.3,4.1,3.3,4.1c1,0,1.9-0.5,2.5-1.1l0.5,0.7c-0.8,0.7-1.9,1.2-3.1,1.2
							C847.7,169.2,845.8,167.4,845.8,164.2z"/>
						<path class="st2" d="M854.7,166.6c0-2.1,1.9-3.1,6.1-3.6c0-1.4-0.4-2.9-2.2-2.9c-1.3,0-2.4,0.6-3,1.1l-0.5-0.8
							c0.7-0.5,2.1-1.3,3.6-1.3c2.3,0,3.1,1.6,3.1,3.8v6.1H861l-0.1-1.2h0c-1,0.8-2.1,1.5-3.3,1.5
							C855.9,169.2,854.7,168.4,854.7,166.6z M860.8,166.9v-3.1c-3.8,0.4-5.1,1.3-5.1,2.8c0,1.3,0.9,1.8,2,1.8
							C858.7,168.4,859.7,167.8,860.8,166.9z"/>
						<path class="st2" d="M865.2,167.6v-12.9h1v13c0,0.5,0.2,0.6,0.4,0.6c0.1,0,0.1,0,0.3,0l0.2,0.8c-0.2,0.1-0.4,0.1-0.7,0.1
							C865.6,169.2,865.2,168.7,865.2,167.6z"/>
						<path class="st2" d="M872.8,167.9l0.6-0.8c0.8,0.7,1.7,1.2,3,1.2c1.5,0,2.2-0.8,2.2-1.8c0-1.1-1.2-1.7-2.3-2.1
							c-1.4-0.5-3-1.1-3-2.8c0-1.4,1.1-2.6,3.2-2.6c1,0,2.1,0.5,2.8,1l-0.5,0.7c-0.6-0.5-1.4-0.9-2.3-0.9c-1.4,0-2.1,0.8-2.1,1.7
							c0,1.1,1.1,1.5,2.2,1.9c1.5,0.6,3.1,1.1,3.1,2.9c0,1.5-1.2,2.7-3.3,2.7C874.9,169.2,873.7,168.6,872.8,167.9z"/>
						<path class="st2" d="M881.3,164.2c0-3.2,2-5.1,4.3-5.1c2.3,0,4.3,1.9,4.3,5.1c0,3.2-2,5-4.3,5
							C883.3,169.2,881.3,167.4,881.3,164.2z M888.9,164.2c0-2.4-1.4-4.1-3.3-4.1c-1.9,0-3.2,1.7-3.2,4.1c0,2.4,1.4,4.1,3.2,4.1
							C887.5,168.3,888.9,166.7,888.9,164.2z"/>
						<path class="st2" d="M892.7,165.5v-6.1h1v6c0,2,0.6,2.9,2.1,2.9c1.1,0,1.9-0.6,3-1.9v-7h1v9.6H899l-0.1-1.6h-0.1
							c-0.9,1.1-1.9,1.8-3.2,1.8C893.6,169.2,892.7,168,892.7,165.5z"/>
						<path class="st2" d="M903.4,159.4h0.9l0.1,1.8h0c0.6-1.2,1.6-2,2.7-2c0.4,0,0.7,0.1,1,0.2l-0.2,0.9c-0.3-0.1-0.5-0.2-0.9-0.2
							c-0.8,0-1.9,0.6-2.6,2.4v6.4h-1V159.4z"/>
						<path class="st2" d="M908.9,164.2c0-3.2,2.1-5.1,4.4-5.1c1.3,0,2.1,0.6,2.8,1.2l-0.6,0.7c-0.6-0.6-1.3-1-2.2-1
							c-1.9,0-3.4,1.7-3.4,4.1c0,2.4,1.3,4.1,3.3,4.1c1,0,1.9-0.5,2.5-1.1l0.5,0.7c-0.8,0.7-1.9,1.2-3.1,1.2
							C910.8,169.2,908.9,167.4,908.9,164.2z"/>
						<path class="st2" d="M917.5,164.2c0-3.1,2-5.1,4.2-5.1c2.3,0,3.7,1.7,3.7,4.5c0,0.3,0,0.5-0.1,0.8h-6.8c0.1,2.3,1.4,4,3.5,4
							c1,0,1.8-0.3,2.6-0.8l0.4,0.8c-0.8,0.5-1.7,0.9-3.1,0.9C919.5,169.2,917.5,167.4,917.5,164.2z M924.5,163.5
							c0-2.3-1.1-3.5-2.7-3.5c-1.6,0-3,1.3-3.2,3.5H924.5z"/>
						<path class="st2" d="M926.8,167.9l0.6-0.8c0.8,0.7,1.7,1.2,3,1.2c1.5,0,2.2-0.8,2.2-1.8c0-1.1-1.2-1.7-2.3-2.1
							c-1.4-0.5-3-1.1-3-2.8c0-1.4,1.1-2.6,3.2-2.6c1,0,2.1,0.5,2.8,1l-0.5,0.7c-0.6-0.5-1.3-0.9-2.3-0.9c-1.4,0-2.1,0.8-2.1,1.7
							c0,1.1,1.1,1.5,2.2,1.9c1.5,0.6,3.1,1.1,3.1,2.9c0,1.5-1.2,2.7-3.3,2.7C928.9,169.2,927.7,168.6,926.8,167.9z"/>
					</g>
					<text transform="matrix(1 0 0 1 934.3229 169)" class="st2 st5 st6"> </text>
					<g class="st1">
						<path class="st2" d="M71.8,198.6h4.4v0.9h-4.4V198.6z"/>
						<path class="st2" d="M82.9,190.9h3.6c2.6,0,4.4,1,4.4,3.2c0,1.4-0.7,2.5-2,2.9v0.1c1.7,0.3,2.8,1.4,2.8,3.2
							c0,2.5-1.9,3.8-4.9,3.8h-3.9V190.9z M86.2,196.6c2.6,0,3.6-0.9,3.6-2.4c0-1.8-1.2-2.4-3.5-2.4H84v4.8H86.2z M86.5,203.1
							c2.5,0,4.1-0.9,4.1-2.9c0-1.8-1.5-2.7-4.1-2.7H84v5.6H86.5z"/>
						<path class="st2" d="M93.6,199.2c0-3.1,2-5.1,4.2-5.1c2.3,0,3.7,1.7,3.7,4.5c0,0.3,0,0.5-0.1,0.8h-6.8c0.1,2.3,1.4,4,3.5,4
							c1,0,1.8-0.3,2.6-0.8l0.4,0.8c-0.8,0.5-1.7,0.9-3.1,0.9C95.6,204.2,93.6,202.4,93.6,199.2z M100.5,198.5
							c0-2.3-1.1-3.5-2.7-3.5c-1.6,0-3,1.3-3.2,3.5H100.5z"/>
						<path class="st2" d="M103.2,199.2c0-3.2,2.1-5.1,4.4-5.1c1.3,0,2.1,0.6,2.8,1.2l-0.6,0.7c-0.6-0.6-1.3-1-2.2-1
							c-1.9,0-3.4,1.7-3.4,4.1c0,2.4,1.3,4.1,3.3,4.1c1,0,1.9-0.5,2.5-1.1l0.5,0.7c-0.8,0.7-1.9,1.2-3.1,1.2
							C105.1,204.2,103.2,202.4,103.2,199.2z"/>
						<path class="st2" d="M111.8,199.2c0-3.2,2-5.1,4.3-5.1s4.3,1.9,4.3,5.1c0,3.2-2,5-4.3,5S111.8,202.4,111.8,199.2z
							 M119.4,199.2c0-2.4-1.4-4.1-3.3-4.1s-3.2,1.7-3.2,4.1c0,2.4,1.4,4.1,3.2,4.1S119.4,201.7,119.4,199.2z"/>
						<path class="st2" d="M123.3,194.4h0.9l0.1,1.5h0c0.9-1,1.9-1.7,3-1.7c1.5,0,2.3,0.8,2.6,1.9c1.1-1.2,2.1-1.9,3.2-1.9
							c1.9,0,2.9,1.2,2.9,3.7v6.1h-1v-6c0-2-0.7-2.9-2.1-2.9c-0.9,0-1.7,0.6-2.8,1.7v7.2h-1v-6c0-2-0.6-2.9-2.1-2.9
							c-0.8,0-1.8,0.6-2.8,1.7v7.2h-1V194.4z"/>
						<path class="st2" d="M138.8,199.2c0-3.1,2-5.1,4.2-5.1c2.3,0,3.7,1.7,3.7,4.5c0,0.3,0,0.5-0.1,0.8h-6.8c0.1,2.3,1.4,4,3.5,4
							c1,0,1.8-0.3,2.6-0.8l0.4,0.8c-0.8,0.5-1.7,0.9-3.1,0.9C140.8,204.2,138.8,202.4,138.8,199.2z M145.8,198.5
							c0-2.3-1.1-3.5-2.7-3.5c-1.6,0-3,1.3-3.2,3.5H145.8z"/>
						<path class="st2" d="M153.4,190.9h1.1v7.1h0l6.2-7.1h1.3l-4.2,4.9l4.8,8.2h-1.2l-4.2-7.4l-2.6,3v4.4h-1.1V190.9z"/>
						<path class="st2" d="M163.6,199.2c0-3.2,2-5.1,4.3-5.1s4.3,1.9,4.3,5.1c0,3.2-2,5-4.3,5S163.6,202.4,163.6,199.2z
							 M171.2,199.2c0-2.4-1.4-4.1-3.3-4.1s-3.2,1.7-3.2,4.1c0,2.4,1.4,4.1,3.2,4.1S171.2,201.7,171.2,199.2z"/>
						<path class="st2" d="M175.1,194.4h0.9l0.1,1.8h0c0.6-1.2,1.6-2,2.7-2c0.4,0,0.7,0.1,1,0.2l-0.2,0.9c-0.3-0.1-0.5-0.2-0.9-0.2
							c-0.8,0-1.9,0.6-2.6,2.4v6.4h-1V194.4z"/>
						<path class="st2" d="M180.6,199.2c0-3.1,2-5.1,4.2-5.1c2.3,0,3.7,1.7,3.7,4.5c0,0.3,0,0.5-0.1,0.8h-6.8c0.1,2.3,1.4,4,3.5,4
							c1,0,1.8-0.3,2.6-0.8l0.4,0.8c-0.8,0.5-1.7,0.9-3.1,0.9C182.6,204.2,180.6,202.4,180.6,199.2z M187.6,198.5
							c0-2.3-1.1-3.5-2.7-3.5c-1.6,0-3,1.3-3.2,3.5H187.6z"/>
						<path class="st2" d="M190.1,201.6c0-2.1,1.9-3.1,6.1-3.6c0-1.4-0.4-2.9-2.2-2.9c-1.3,0-2.4,0.6-3,1.1l-0.5-0.8
							c0.7-0.5,2.1-1.3,3.6-1.3c2.3,0,3.1,1.6,3.1,3.8v6.1h-0.9l-0.1-1.2h0c-1,0.8-2.1,1.5-3.3,1.5
							C191.3,204.2,190.1,203.4,190.1,201.6z M196.2,201.9v-3.1c-3.8,0.4-5.1,1.3-5.1,2.8c0,1.3,0.9,1.8,2,1.8
							C194.2,203.4,195.1,202.8,196.2,201.9z"/>
						<path class="st2" d="M199.8,194.2c0.9-0.7,1.4-1.4,1.4-2.5c-0.1,0-0.1,0-0.2,0c-0.4,0-0.8-0.3-0.8-0.8s0.3-0.9,0.8-0.9
							c0.6,0,1,0.5,1,1.4c0,1.5-0.7,2.5-1.8,3.2L199.8,194.2z"/>
						<path class="st2" d="M202.6,202.9l0.6-0.8c0.8,0.7,1.7,1.2,3,1.2c1.5,0,2.2-0.8,2.2-1.8c0-1.1-1.2-1.7-2.3-2.1
							c-1.4-0.5-3-1.1-3-2.8c0-1.4,1.1-2.6,3.2-2.6c1,0,2.1,0.5,2.8,1l-0.5,0.7c-0.6-0.5-1.4-0.9-2.3-0.9c-1.4,0-2.1,0.8-2.1,1.7
							c0,1.1,1.1,1.5,2.2,1.9c1.5,0.6,3.1,1.1,3.1,2.9c0,1.5-1.2,2.7-3.3,2.7C204.7,204.2,203.5,203.6,202.6,202.9z"/>
						<path class="st2" d="M216.1,201.3v-6h-1.5v-0.8l1.5-0.1l0.1-2.8h0.9v2.8h2.8v0.9h-2.8v6c0,1.2,0.3,2,1.6,2
							c0.4,0,0.8-0.1,1.2-0.3l0.3,0.8c-0.6,0.2-1.2,0.4-1.6,0.4C216.7,204.2,216.1,203,216.1,201.3z"/>
						<path class="st2" d="M221.2,199.2c0-3.2,2-5.1,4.3-5.1s4.3,1.9,4.3,5.1c0,3.2-2,5-4.3,5S221.2,202.4,221.2,199.2z
							 M228.8,199.2c0-2.4-1.4-4.1-3.3-4.1s-3.2,1.7-3.2,4.1c0,2.4,1.4,4.1,3.2,4.1S228.8,201.7,228.8,199.2z"/>
						<path class="st2" d="M232.7,194.4h0.9l0.1,1.2h0c0.9-0.7,2-1.4,3.2-1.4c2.6,0,3.9,1.9,3.9,4.9c0,3.3-2,5.2-4.2,5.2
							c-0.9,0-1.9-0.4-2.8-1.2l0,1.8v3.5h-1V194.4z M239.7,199c0-2.3-0.8-4-2.9-4c-0.9,0-1.9,0.5-3,1.5v5.5c1,0.9,2,1.2,2.7,1.2
							C238.3,203.3,239.7,201.6,239.7,199z"/>
						<path class="st2" d="M248.6,203L248.6,203l-0.2,1h-0.8v-14.3h1v4.1l-0.1,1.8c1-0.8,2.1-1.5,3.2-1.5c2.6,0,3.9,1.9,3.9,4.9
							c0,3.3-2,5.2-4.2,5.2C250.5,204.2,249.5,203.8,248.6,203z M254.5,199c0-2.3-0.8-4-2.9-4c-0.9,0-1.9,0.5-3,1.5v5.5
							c1,0.9,2,1.2,2.7,1.2C253.2,203.3,254.5,201.6,254.5,199z"/>
						<path class="st2" d="M257.6,199.2c0-3.2,2-5.1,4.3-5.1s4.3,1.9,4.3,5.1c0,3.2-2,5-4.3,5S257.6,202.4,257.6,199.2z
							 M265.2,199.2c0-2.4-1.4-4.1-3.3-4.1s-3.2,1.7-3.2,4.1c0,2.4,1.4,4.1,3.2,4.1S265.2,201.7,265.2,199.2z"/>
						<path class="st2" d="M269.1,201.3v-6h-1.5v-0.8l1.5-0.1l0.1-2.8h0.9v2.8h2.8v0.9h-2.8v6c0,1.2,0.3,2,1.6,2
							c0.4,0,0.8-0.1,1.2-0.3l0.3,0.8c-0.6,0.2-1.2,0.4-1.6,0.4C269.7,204.2,269.1,203,269.1,201.3z"/>
						<path class="st2" d="M274.1,201.6c0-2.1,1.9-3.1,6.1-3.6c0-1.4-0.4-2.9-2.2-2.9c-1.3,0-2.4,0.6-3,1.1l-0.5-0.8
							c0.7-0.5,2.1-1.3,3.6-1.3c2.3,0,3.1,1.6,3.1,3.8v6.1h-0.9l-0.1-1.2h0c-1,0.8-2.1,1.5-3.3,1.5
							C275.3,204.2,274.1,203.4,274.1,201.6z M280.2,201.9v-3.1c-3.8,0.4-5.1,1.3-5.1,2.8c0,1.3,0.9,1.8,2,1.8
							C278.2,203.4,279.1,202.8,280.2,201.9z"/>
						<path class="st2" d="M284.6,194.4h0.9l0.1,1.5h0c1-1,2-1.7,3.3-1.7c2,0,2.9,1.2,2.9,3.7v6.1h-1v-6c0-2-0.6-2.9-2.1-2.9
							c-1.1,0-1.9,0.6-3,1.7v7.2h-1V194.4z"/>
						<path class="st2" d="M294.9,191.3c0-0.5,0.4-0.9,0.9-0.9c0.5,0,0.9,0.3,0.9,0.9c0,0.5-0.4,0.8-0.9,0.8
							C295.3,192.2,294.9,191.8,294.9,191.3z M295.3,194.4h1v9.6h-1V194.4z"/>
						<path class="st2" d="M299.1,199.2c0-3.2,2.1-5.1,4.4-5.1c1.3,0,2.1,0.6,2.8,1.2l-0.6,0.7c-0.6-0.6-1.3-1-2.2-1
							c-1.9,0-3.4,1.7-3.4,4.1c0,2.4,1.3,4.1,3.3,4.1c1,0,1.9-0.5,2.5-1.1l0.5,0.7c-0.8,0.7-1.9,1.2-3.1,1.2
							C301,204.2,299.1,202.4,299.1,199.2z"/>
						<path class="st2" d="M308,201.6c0-2.1,1.9-3.1,6.1-3.6c0-1.4-0.4-2.9-2.2-2.9c-1.3,0-2.4,0.6-3,1.1l-0.5-0.8
							c0.7-0.5,2.1-1.3,3.6-1.3c2.3,0,3.1,1.6,3.1,3.8v6.1h-0.9l-0.1-1.2h0c-1,0.8-2.1,1.5-3.3,1.5C309.3,204.2,308,203.4,308,201.6
							z M314.1,201.9v-3.1c-3.8,0.4-5.1,1.3-5.1,2.8c0,1.3,0.9,1.8,2,1.8C312.1,203.4,313,202.8,314.1,201.9z"/>
						<path class="st2" d="M318.5,202.6v-12.9h1v13c0,0.5,0.2,0.6,0.4,0.6c0.1,0,0.1,0,0.3,0l0.2,0.8c-0.2,0.1-0.4,0.1-0.7,0.1
							C318.9,204.2,318.5,203.7,318.5,202.6z"/>
						<path class="st2" d="M334.7,204l-3.5-5.9h-2.7v5.9h-1.1v-13.1h3.8c2.6,0,4.4,1,4.4,3.5c0,2.1-1.3,3.3-3.3,3.6l3.5,6H334.7z
							 M328.5,197.2h2.5c2.3,0,3.5-0.9,3.5-2.8c0-1.9-1.3-2.6-3.5-2.6h-2.5V197.2z"/>
						<path class="st2" d="M347.5,204.2c-0.8-0.3-1.8-0.8-2.8-1.6c-1,1-2.1,1.6-3.6,1.6c-2.2,0-3.8-1.4-3.8-3.6
							c0-1.7,1.3-2.8,2.7-3.8c-0.5-1.1-0.9-2.2-0.9-3.2c0-1.7,1.1-3,2.8-3c1.5,0,2.3,1,2.3,2.4c0,1.7-1.5,2.8-3,3.9
							c0.9,1.6,2.3,3.2,3.6,4.3c0.9-1.2,1.6-2.6,2-4.2h1c-0.5,1.8-1.3,3.4-2.3,4.8c0.9,0.7,1.8,1.2,2.5,1.4L347.5,204.2z
							 M341.1,203.4c1,0,2-0.5,2.8-1.3c-1.4-1.2-2.7-2.8-3.7-4.5c-1.1,0.9-2,1.8-2,3C338.2,202.3,339.5,203.4,341.1,203.4z
							 M340.6,196.3c1.3-0.9,2.5-1.8,2.5-3.2c0-0.8-0.4-1.6-1.4-1.6c-1.1,0-1.8,0.9-1.8,2.1C339.9,194.4,340.2,195.3,340.6,196.3z"
							/>
						<path class="st2" d="M350,190.9h3.1c4,0,6,2.5,6,6.5c0,4-2,6.6-6,6.6H350V190.9z M353,203.1c3.5,0,5-2.3,5-5.7
							c0-3.4-1.5-5.6-5-5.6h-1.9v11.3H353z"/>
						<path class="st2" d="M365.2,199.2c0-3.2,2.1-5.1,4.4-5.1c1.3,0,2.1,0.6,2.8,1.2l-0.6,0.7c-0.6-0.6-1.3-1-2.2-1
							c-1.9,0-3.4,1.7-3.4,4.1c0,2.4,1.3,4.1,3.3,4.1c1,0,1.9-0.5,2.5-1.1l0.5,0.7c-0.8,0.7-1.9,1.2-3.1,1.2
							C367.1,204.2,365.2,202.4,365.2,199.2z"/>
						<path class="st2" d="M373.8,199.2c0-3.2,2-5.1,4.3-5.1s4.3,1.9,4.3,5.1c0,3.2-2,5-4.3,5S373.8,202.4,373.8,199.2z
							 M381.4,199.2c0-2.4-1.4-4.1-3.3-4.1s-3.2,1.7-3.2,4.1c0,2.4,1.4,4.1,3.2,4.1S381.4,201.7,381.4,199.2z"/>
						<path class="st2" d="M385.3,194.4h0.9l0.1,1.5h0c0.9-1,1.9-1.7,3-1.7c1.5,0,2.3,0.8,2.6,1.9c1.1-1.2,2.1-1.9,3.2-1.9
							c1.9,0,2.9,1.2,2.9,3.7v6.1h-1v-6c0-2-0.7-2.9-2.1-2.9c-0.9,0-1.7,0.6-2.8,1.7v7.2h-1v-6c0-2-0.6-2.9-2.1-2.9
							c-0.8,0-1.8,0.6-2.8,1.7v7.2h-1V194.4z"/>
						<path class="st2" d="M401.5,194.4h0.9l0.1,1.2h0c0.9-0.7,2-1.4,3.2-1.4c2.6,0,3.9,1.9,3.9,4.9c0,3.3-2,5.2-4.2,5.2
							c-0.9,0-1.9-0.4-2.8-1.2l0,1.8v3.5h-1V194.4z M408.5,199c0-2.3-0.8-4-2.9-4c-0.9,0-1.9,0.5-3,1.5v5.5c1,0.9,2,1.2,2.7,1.2
							C407.2,203.3,408.5,201.6,408.5,199z"/>
						<path class="st2" d="M411.5,201.6c0-2.1,1.9-3.1,6.1-3.6c0-1.4-0.4-2.9-2.2-2.9c-1.3,0-2.4,0.6-3,1.1l-0.5-0.8
							c0.7-0.5,2.1-1.3,3.6-1.3c2.3,0,3.1,1.6,3.1,3.8v6.1h-0.9l-0.1-1.2h0c-1,0.8-2.1,1.5-3.3,1.5
							C412.7,204.2,411.5,203.4,411.5,201.6z M417.6,201.9v-3.1c-3.8,0.4-5.1,1.3-5.1,2.8c0,1.3,0.9,1.8,2,1.8
							C415.5,203.4,416.5,202.8,417.6,201.9z"/>
						<path class="st2" d="M422,194.4h0.9l0.1,1.5h0c1-1,2-1.7,3.3-1.7c2,0,2.9,1.2,2.9,3.7v6.1h-1v-6c0-2-0.6-2.9-2.1-2.9
							c-1.1,0-1.9,0.6-3,1.7v7.2h-1V194.4z"/>
						<path class="st2" d="M431.4,208.1l0.2-0.9c0.2,0.1,0.5,0.1,0.8,0.1c1.2,0,1.9-1,2.4-2.4l0.3-0.8l-3.9-9.7h1.1l2.2,5.9
							c0.3,0.8,0.7,1.8,1,2.7h0.1c0.3-0.9,0.6-1.9,0.9-2.7l2-5.9h1.1l-3.7,10.7c-0.6,1.7-1.5,3.2-3.3,3.2
							C432,208.3,431.6,208.2,431.4,208.1z"/>
					</g>
				</g>
				
					<g id="arrow" transform="translate(500.000000, 318.000000) rotate(-270.000000) translate(-500.000000, -318.000000) translate(449.500000, 308.000000)">
					<path id="Line" class="st7" d="M0.5,10h100"/>
					<polyline id="Stroke-1" class="st8" points="90,0 101,10 90,20 					"/>
					<polyline class="st8" points="11,20 0,10 11,0 					"/>
				</g>
				<g id="box3" transform="translate(0.000000, 383.000000)">
					<path class="st9" d="M9,1h982c4.4,0,8,3.6,8,8v132c0,4.4-3.6,8-8,8H9c-4.4,0-8-3.6-8-8V9C1,4.6,4.6,1,9,1z"/>
					<g class="st1">
						<path class="st10" d="M303.9,43.3h3.8c4.5,0,7.1,2.5,7.1,7.3c0,4.8-2.6,7.4-7,7.4h-3.9V43.3z M307.6,56.1
							c3.2,0,4.9-1.9,4.9-5.5c0-3.7-1.7-5.4-4.9-5.4h-1.3v10.9H307.6z"/>
						<path class="st10" d="M317.4,43.6c0-0.8,0.6-1.4,1.5-1.4c0.8,0,1.5,0.5,1.5,1.4c0,0.8-0.6,1.4-1.5,1.4
							C318,44.9,317.4,44.4,317.4,43.6z M317.7,47h2.3v11h-2.3V47z"/>
						<path class="st10" d="M322.3,56.7l1.1-1.5c1,0.8,1.9,1.3,3.1,1.3c1.3,0,1.9-0.6,1.9-1.5c0-1-1.2-1.4-2.4-1.9
							c-1.5-0.6-3.1-1.3-3.1-3.2c0-1.8,1.5-3.2,3.9-3.2c1.5,0,2.7,0.6,3.6,1.3l-1.1,1.4c-0.8-0.6-1.5-1-2.5-1
							c-1.2,0-1.8,0.6-1.8,1.4c0,0.9,1.1,1.3,2.3,1.7c1.5,0.6,3.2,1.3,3.2,3.3c0,1.8-1.5,3.3-4.2,3.3
							C324.9,58.3,323.4,57.6,322.3,56.7z"/>
						<path class="st10" d="M332.3,52.5c0-3.6,2.4-5.8,5-5.8c2.9,0,4.5,2.1,4.5,5.2c0,0.4,0,0.9-0.1,1.2h-7.1
							c0.2,2.1,1.5,3.4,3.4,3.4c1,0,1.8-0.3,2.6-0.8l0.8,1.5c-1,0.7-2.3,1.2-3.7,1.2C334.7,58.3,332.3,56.1,332.3,52.5z M339.8,51.5
							c0-1.9-0.9-3-2.5-3c-1.4,0-2.6,1.1-2.8,3H339.8z"/>
						<path class="st10" d="M343.4,55.1c0-2.4,2-3.6,6.6-4.1c0-1.3-0.5-2.4-2.1-2.4c-1.2,0-2.2,0.5-3.2,1.1l-0.9-1.6
							c1.1-0.7,2.7-1.4,4.4-1.4c2.7,0,4,1.7,4,4.7V58h-1.9l-0.2-1.3h-0.1c-1,0.9-2.2,1.5-3.5,1.5C344.8,58.3,343.4,57,343.4,55.1z
							 M350,55.2v-2.7c-3.3,0.4-4.4,1.2-4.4,2.5c0,1.1,0.7,1.5,1.7,1.5C348.3,56.4,349.1,56,350,55.2z"/>
						<path class="st10" d="M354.4,56.7l1.1-1.5c1,0.8,1.9,1.3,3.1,1.3c1.3,0,1.9-0.6,1.9-1.5c0-1-1.2-1.4-2.4-1.9
							c-1.5-0.6-3.1-1.3-3.1-3.2c0-1.8,1.5-3.2,3.9-3.2c1.5,0,2.7,0.6,3.6,1.3l-1.1,1.4c-0.8-0.6-1.5-1-2.5-1
							c-1.2,0-1.8,0.6-1.8,1.4c0,0.9,1.1,1.3,2.3,1.7c1.5,0.6,3.2,1.3,3.2,3.3c0,1.8-1.5,3.3-4.2,3.3
							C357,58.3,355.5,57.6,354.4,56.7z"/>
						<path class="st10" d="M364.4,52.5c0-3.6,2.4-5.8,5-5.8c2.9,0,4.5,2.1,4.5,5.2c0,0.4,0,0.9-0.1,1.2h-7.1
							c0.2,2.1,1.5,3.4,3.4,3.4c1,0,1.8-0.3,2.6-0.8l0.8,1.5c-1,0.7-2.3,1.2-3.7,1.2C366.8,58.3,364.4,56.1,364.4,52.5z M371.9,51.5
							c0-1.9-0.9-3-2.5-3c-1.4,0-2.6,1.1-2.8,3H371.9z"/>
						<path class="st10" d="M375.9,51.5h5.3v1.7h-5.3V51.5z"/>
						<path class="st10" d="M383.8,47h1.9l0.2,1.5h0.1c0.9-1,2-1.8,3.4-1.8c1.6,0,2.6,0.8,3,2c1.1-1.2,2.2-2,3.6-2
							c2.3,0,3.4,1.6,3.4,4.4V58H397v-6.6c0-1.9-0.6-2.7-1.8-2.7c-0.8,0-1.6,0.5-2.5,1.5V58h-2.3v-6.6c0-1.9-0.6-2.7-1.8-2.7
							c-0.7,0-1.6,0.5-2.5,1.5V58h-2.3V47z"/>
						<path class="st10" d="M401.9,52.5c0-3.7,2.5-5.8,5.2-5.8c2.7,0,5.2,2.1,5.2,5.8c0,3.6-2.5,5.7-5.2,5.7
							C404.3,58.3,401.9,56.2,401.9,52.5z M409.9,52.5c0-2.3-1.1-3.9-2.8-3.9c-1.7,0-2.8,1.6-2.8,3.9c0,2.3,1.1,3.9,2.8,3.9
							C408.8,56.4,409.9,54.8,409.9,52.5z"/>
						<path class="st10" d="M414.2,52.5c0-3.6,2.3-5.8,4.7-5.8c1.3,0,2.1,0.5,3,1.2l-0.1-1.8v-4.1h2.3V58h-1.9l-0.2-1.2h-0.1
							c-0.8,0.8-2,1.5-3.2,1.5C416,58.3,414.2,56.2,414.2,52.5z M421.8,55v-5.4c-0.8-0.7-1.6-1-2.4-1c-1.5,0-2.8,1.5-2.8,3.8
							c0,2.5,1,3.9,2.7,3.9C420.2,56.4,421,55.9,421.8,55z"/>
						<path class="st10" d="M427.2,43.6c0-0.8,0.6-1.4,1.5-1.4c0.8,0,1.5,0.5,1.5,1.4c0,0.8-0.6,1.4-1.5,1.4
							C427.8,44.9,427.2,44.4,427.2,43.6z M427.5,47h2.3v11h-2.3V47z"/>
						<path class="st10" d="M438.6,43.9c-0.4-0.2-0.8-0.3-1.2-0.3c-1,0-1.5,0.6-1.5,2V47h2.2v1.8H436V58h-2.3v-9.2h-1.5v-1.7
							l1.5-0.1v-1.4c0-2.3,1-3.8,3.5-3.8c0.7,0,1.4,0.2,1.9,0.4L438.6,43.9z"/>
						<path class="st10" d="M445,58.7c-0.9,2.4-2,3.9-4.3,3.9c-0.6,0-1-0.1-1.4-0.2l0.4-1.8c0.2,0.1,0.5,0.2,0.8,0.2
							c1.2,0,1.9-0.9,2.3-2.1l0.2-0.8L438.7,47h2.4l2,5.7c0.3,1,0.7,2.1,1,3.1h0.1l0.9-3.1l1.8-5.7h2.2L445,58.7z"/>
						<path class="st10" d="M450.7,43.6c0-0.8,0.6-1.4,1.5-1.4c0.8,0,1.5,0.5,1.5,1.4c0,0.8-0.6,1.4-1.5,1.4
							C451.4,44.9,450.7,44.4,450.7,43.6z M451.1,47h2.3v11h-2.3V47z"/>
						<path class="st10" d="M456.8,47h1.9l0.2,1.5h0.1c1-1,2.1-1.8,3.6-1.8c2.3,0,3.4,1.6,3.4,4.4V58h-2.3v-6.6
							c0-1.9-0.6-2.7-1.9-2.7c-1,0-1.7,0.5-2.7,1.5V58h-2.3V47z"/>
						<path class="st10" d="M468.5,60c0-0.9,0.6-1.8,1.6-2.4v-0.1c-0.6-0.3-1-0.9-1-1.8c0-0.9,0.6-1.6,1.2-2v-0.1
							c-0.7-0.6-1.4-1.6-1.4-2.9c0-2.5,2-4,4.3-4c0.6,0,1.2,0.1,1.6,0.3h3.9v1.7h-2.1c0.4,0.4,0.7,1.2,0.7,2c0,2.4-1.8,3.8-4.1,3.8
							c-0.5,0-1.1-0.1-1.5-0.3c-0.4,0.3-0.6,0.6-0.6,1.2c0,0.7,0.4,1.1,1.8,1.1h2c2.6,0,4,0.8,4,2.7c0,2.1-2.2,3.8-5.8,3.8
							C470.4,62.9,468.5,62,468.5,60z M476.6,59.5c0-0.9-0.7-1.2-2.1-1.2h-1.7c-0.5,0-1-0.1-1.5-0.2c-0.7,0.5-0.9,1-0.9,1.6
							c0,1.1,1.1,1.7,2.9,1.7C475.3,61.4,476.6,60.5,476.6,59.5z M475.2,50.7c0-1.5-0.9-2.3-2.1-2.3s-2.1,0.8-2.1,2.3
							c0,1.5,0.9,2.4,2.1,2.4S475.2,52.1,475.2,50.7z"/>
						<path class="st10" d="M485.7,54.4v-5.6h-1.6v-1.7l1.7-0.1l0.3-3h1.9v3h2.9v1.8H488v5.6c0,1.3,0.5,2,1.6,2
							c0.4,0,0.9-0.1,1.2-0.3l0.4,1.7c-0.6,0.2-1.4,0.4-2.2,0.4C486.6,58.3,485.7,56.7,485.7,54.4z"/>
						<path class="st10" d="M493.3,42.1h2.3v4.2l-0.1,2.2c1-0.9,2.1-1.7,3.6-1.7c2.3,0,3.4,1.6,3.4,4.4V58h-2.3v-6.6
							c0-1.9-0.6-2.7-1.9-2.7c-1,0-1.7,0.5-2.7,1.5V58h-2.3V42.1z"/>
						<path class="st10" d="M504.9,52.5c0-3.6,2.4-5.8,5-5.8c2.9,0,4.5,2.1,4.5,5.2c0,0.4,0,0.9-0.1,1.2h-7.1
							c0.2,2.1,1.5,3.4,3.4,3.4c1,0,1.8-0.3,2.6-0.8l0.8,1.5c-1,0.7-2.3,1.2-3.7,1.2C507.3,58.3,504.9,56.1,504.9,52.5z M512.4,51.5
							c0-1.9-0.9-3-2.5-3c-1.4,0-2.6,1.1-2.8,3H512.4z"/>
						<path class="st10" d="M517,47h1.9l0.2,2h0.1c0.8-1.4,1.9-2.3,3.1-2.3c0.5,0,0.9,0.1,1.2,0.2l-0.4,2c-0.4-0.1-0.7-0.2-1.1-0.2
							c-0.9,0-2,0.6-2.7,2.4V58H517V47z"/>
						<path class="st10" d="M524,55.1c0-2.4,2-3.6,6.6-4.1c0-1.3-0.5-2.4-2.1-2.4c-1.2,0-2.2,0.5-3.2,1.1l-0.9-1.6
							c1.1-0.7,2.7-1.4,4.4-1.4c2.7,0,4,1.7,4,4.7V58H531l-0.2-1.3h-0.1c-1,0.9-2.2,1.5-3.5,1.5C525.3,58.3,524,57,524,55.1z
							 M530.5,55.2v-2.7c-3.3,0.4-4.4,1.2-4.4,2.5c0,1.1,0.7,1.5,1.7,1.5C528.9,56.4,529.6,56,530.5,55.2z"/>
						<path class="st10" d="M536.1,47h1.9l0.2,1.2h0.1c1-0.8,2.2-1.5,3.4-1.5c2.8,0,4.4,2.2,4.4,5.6c0,3.8-2.3,5.9-4.7,5.9
							c-1,0-2-0.4-2.9-1.2l0.1,1.9v3.6h-2.3V47z M543.6,52.4c0-2.3-0.7-3.7-2.6-3.7c-0.9,0-1.7,0.4-2.6,1.3v5.4c0.9,0.7,1.7,1,2.4,1
							C542.4,56.4,543.6,54.9,543.6,52.4z"/>
						<path class="st10" d="M553.4,58.7c-0.9,2.4-2,3.9-4.3,3.9c-0.6,0-1-0.1-1.4-0.2l0.4-1.8c0.2,0.1,0.5,0.2,0.8,0.2
							c1.2,0,1.9-0.9,2.3-2.1l0.2-0.8L547.1,47h2.4l2,5.7c0.3,1,0.7,2.1,1,3.1h0.1l0.9-3.1l1.8-5.7h2.2L553.4,58.7z"/>
						<path class="st10" d="M563.2,52.5c0-3.6,2.3-5.8,4.7-5.8c1.3,0,2.1,0.5,3,1.2l-0.1-1.8v-4.1h2.3V58h-1.9l-0.2-1.2H571
							c-0.8,0.8-2,1.5-3.2,1.5C565,58.3,563.2,56.2,563.2,52.5z M570.8,55v-5.4c-0.8-0.7-1.6-1-2.4-1c-1.5,0-2.8,1.5-2.8,3.8
							c0,2.5,1,3.9,2.7,3.9C569.2,56.4,570,55.9,570.8,55z"/>
						<path class="st10" d="M576.2,43.6c0-0.8,0.6-1.4,1.5-1.4s1.5,0.5,1.5,1.4c0,0.8-0.6,1.4-1.5,1.4S576.2,44.4,576.2,43.6z
							 M576.6,47h2.3v11h-2.3V47z"/>
						<path class="st10" d="M594.3,43.9c-0.4-0.2-0.8-0.3-1.2-0.3c-1,0-1.5,0.6-1.5,2V47h2.2v1.8h-2.2V58h-2.3v-9.2H585V58h-2.3
							v-9.2h-1.5v-1.7l1.5-0.1v-1.2c0-2.3,1.1-3.8,3.6-3.8c0.8,0,1.6,0.2,2.1,0.4l-0.5,1.7c-0.4-0.2-0.9-0.3-1.4-0.3
							c-1,0-1.6,0.7-1.6,2V47h4.3v-1.4c0-2.3,1-3.8,3.5-3.8c0.8,0,1.5,0.2,2,0.4L594.3,43.9z"/>
						<path class="st10" d="M594.8,52.5c0-3.6,2.4-5.8,5-5.8c2.9,0,4.5,2.1,4.5,5.2c0,0.4,0,0.9-0.1,1.2h-7.1
							c0.2,2.1,1.5,3.4,3.4,3.4c1,0,1.8-0.3,2.6-0.8l0.8,1.5c-1,0.7-2.3,1.2-3.7,1.2C597.2,58.3,594.8,56.1,594.8,52.5z M602.4,51.5
							c0-1.9-0.9-3-2.5-3c-1.4,0-2.6,1.1-2.8,3H602.4z"/>
						<path class="st10" d="M606.9,47h1.9l0.2,2h0.1c0.8-1.4,1.9-2.3,3.1-2.3c0.5,0,0.9,0.1,1.2,0.2l-0.4,2
							c-0.4-0.1-0.7-0.2-1.1-0.2c-0.9,0-2,0.6-2.7,2.4V58h-2.3V47z"/>
						<path class="st10" d="M614.1,52.5c0-3.6,2.4-5.8,5-5.8c2.9,0,4.5,2.1,4.5,5.2c0,0.4,0,0.9-0.1,1.2h-7.1
							c0.2,2.1,1.5,3.4,3.4,3.4c1,0,1.8-0.3,2.6-0.8l0.8,1.5c-1,0.7-2.3,1.2-3.7,1.2C616.5,58.3,614.1,56.1,614.1,52.5z M621.6,51.5
							c0-1.9-0.9-3-2.5-3c-1.4,0-2.6,1.1-2.8,3H621.6z"/>
						<path class="st10" d="M626.2,47h1.9l0.2,1.5h0.1c1-1,2.1-1.8,3.6-1.8c2.3,0,3.4,1.6,3.4,4.4V58H633v-6.6
							c0-1.9-0.6-2.7-1.9-2.7c-1,0-1.7,0.5-2.7,1.5V58h-2.3V47z"/>
						<path class="st10" d="M639,54.4v-5.6h-1.6v-1.7l1.7-0.1l0.3-3h1.9v3h2.9v1.8h-2.9v5.6c0,1.3,0.5,2,1.6,2
							c0.4,0,0.9-0.1,1.2-0.3l0.4,1.7c-0.6,0.2-1.4,0.4-2.2,0.4C639.9,58.3,639,56.7,639,54.4z"/>
						<path class="st10" d="M646.3,43.6c0-0.8,0.6-1.4,1.5-1.4s1.5,0.5,1.5,1.4c0,0.8-0.6,1.4-1.5,1.4S646.3,44.4,646.3,43.6z
							 M646.6,47h2.3v11h-2.3V47z"/>
						<path class="st10" d="M651.7,55.1c0-2.4,2-3.6,6.6-4.1c0-1.3-0.5-2.4-2.1-2.4c-1.2,0-2.2,0.5-3.2,1.1l-0.9-1.6
							c1.1-0.7,2.7-1.4,4.4-1.4c2.7,0,4,1.7,4,4.7V58h-1.9l-0.2-1.3h-0.1c-1,0.9-2.2,1.5-3.5,1.5C653,58.3,651.7,57,651.7,55.1z
							 M658.3,55.2v-2.7c-3.3,0.4-4.4,1.2-4.4,2.5c0,1.1,0.7,1.5,1.7,1.5C656.6,56.4,657.4,56,658.3,55.2z"/>
						<path class="st10" d="M663.8,54.4v-5.6h-1.6v-1.7l1.7-0.1l0.3-3h1.9v3h2.9v1.8h-2.9v5.6c0,1.3,0.5,2,1.6,2
							c0.4,0,0.9-0.1,1.2-0.3l0.4,1.7c-0.6,0.2-1.4,0.4-2.2,0.4C664.7,58.3,663.8,56.7,663.8,54.4z"/>
						<path class="st10" d="M670.3,52.5c0-3.6,2.4-5.8,5-5.8c2.9,0,4.5,2.1,4.5,5.2c0,0.4,0,0.9-0.1,1.2h-7.1
							c0.2,2.1,1.5,3.4,3.4,3.4c1,0,1.8-0.3,2.6-0.8l0.8,1.5c-1,0.7-2.3,1.2-3.7,1.2C672.7,58.3,670.3,56.1,670.3,52.5z M677.8,51.5
							c0-1.9-0.9-3-2.5-3c-1.4,0-2.6,1.1-2.8,3H677.8z"/>
						<path class="st10" d="M681.6,52.5c0-3.6,2.3-5.8,4.7-5.8c1.3,0,2.1,0.5,3,1.2l-0.1-1.8v-4.1h2.3V58h-1.9l-0.2-1.2h-0.1
							c-0.8,0.8-2,1.5-3.2,1.5C683.4,58.3,681.6,56.2,681.6,52.5z M689.2,55v-5.4c-0.8-0.7-1.6-1-2.4-1c-1.5,0-2.8,1.5-2.8,3.8
							c0,2.5,1,3.9,2.7,3.9C687.6,56.4,688.4,55.9,689.2,55z"/>
					</g>
					<g class="st1">
						<path class="st10" d="M309.1,83.9c-0.4-0.2-0.8-0.3-1.2-0.3c-1,0-1.5,0.6-1.5,2V87h2.2v1.8h-2.2V98h-2.3v-9.2h-1.5v-1.7
							l1.5-0.1v-1.4c0-2.3,1-3.8,3.5-3.8c0.7,0,1.4,0.2,1.9,0.4L309.1,83.9z"/>
						<path class="st10" d="M310.6,87h1.9l0.2,2h0.1c0.8-1.4,1.9-2.3,3.1-2.3c0.5,0,0.9,0.1,1.2,0.2l-0.4,2
							c-0.4-0.1-0.7-0.2-1.1-0.2c-0.9,0-2,0.6-2.7,2.4V98h-2.3V87z"/>
						<path class="st10" d="M317.8,92.5c0-3.7,2.5-5.8,5.2-5.8c2.7,0,5.2,2.1,5.2,5.8c0,3.6-2.5,5.7-5.2,5.7
							C320.3,98.3,317.8,96.2,317.8,92.5z M325.8,92.5c0-2.3-1.1-3.9-2.8-3.9c-1.7,0-2.8,1.6-2.8,3.9c0,2.3,1.1,3.9,2.8,3.9
							C324.7,96.4,325.8,94.8,325.8,92.5z"/>
						<path class="st10" d="M330.9,87h1.9l0.2,1.5h0.1c0.9-1,2-1.8,3.4-1.8c1.6,0,2.6,0.8,3,2c1.1-1.2,2.2-2,3.6-2
							c2.3,0,3.4,1.6,3.4,4.4V98h-2.3v-6.6c0-1.9-0.6-2.7-1.8-2.7c-0.8,0-1.6,0.5-2.5,1.5V98h-2.3v-6.6c0-1.9-0.6-2.7-1.8-2.7
							c-0.7,0-1.6,0.5-2.5,1.5V98h-2.3V87z"/>
						<path class="st10" d="M353.1,96.7l1.1-1.5c1,0.8,1.9,1.3,3.1,1.3c1.3,0,1.9-0.6,1.9-1.5c0-1-1.2-1.4-2.4-1.9
							c-1.5-0.6-3.1-1.3-3.1-3.2c0-1.8,1.5-3.2,3.9-3.2c1.5,0,2.7,0.6,3.6,1.3l-1.1,1.4c-0.8-0.6-1.5-1-2.5-1
							c-1.2,0-1.8,0.6-1.8,1.4c0,0.9,1.1,1.3,2.3,1.7c1.5,0.6,3.2,1.3,3.2,3.3c0,1.8-1.5,3.3-4.2,3.3
							C355.7,98.3,354.1,97.6,353.1,96.7z"/>
						<path class="st10" d="M363.5,83.6c0-0.8,0.6-1.4,1.5-1.4c0.8,0,1.5,0.5,1.5,1.4c0,0.8-0.6,1.4-1.5,1.4
							C364.1,84.9,363.5,84.4,363.5,83.6z M363.8,87h2.3v11h-2.3V87z"/>
						<path class="st10" d="M369.6,87h1.9l0.2,1.5h0.1c1-1,2.1-1.8,3.6-1.8c2.3,0,3.4,1.6,3.4,4.4V98h-2.3v-6.6
							c0-1.9-0.6-2.7-1.9-2.7c-1,0-1.7,0.5-2.7,1.5V98h-2.3V87z"/>
						<path class="st10" d="M381.2,100c0-0.9,0.6-1.8,1.6-2.4v-0.1c-0.6-0.3-1-0.9-1-1.8c0-0.9,0.6-1.6,1.2-2v-0.1
							c-0.7-0.6-1.4-1.6-1.4-2.9c0-2.5,2-4,4.3-4c0.6,0,1.2,0.1,1.6,0.3h3.9v1.7h-2.1c0.4,0.4,0.7,1.2,0.7,2c0,2.4-1.8,3.8-4.1,3.8
							c-0.5,0-1.1-0.1-1.5-0.3c-0.4,0.3-0.6,0.6-0.6,1.2c0,0.7,0.4,1.1,1.8,1.1h2c2.6,0,4,0.8,4,2.7c0,2.1-2.2,3.8-5.8,3.8
							C383.2,102.9,381.2,102,381.2,100z M389.3,99.5c0-0.9-0.7-1.2-2.1-1.2h-1.7c-0.5,0-1-0.1-1.5-0.2c-0.7,0.5-0.9,1-0.9,1.6
							c0,1.1,1.1,1.7,2.9,1.7C388.1,101.4,389.3,100.5,389.3,99.5z M388,90.7c0-1.5-0.9-2.3-2.1-2.3s-2.1,0.8-2.1,2.3
							c0,1.5,0.9,2.4,2.1,2.4C387,93,388,92.1,388,90.7z"/>
						<path class="st10" d="M393.6,95.4V82.1h2.3v13.5c0,0.6,0.3,0.8,0.6,0.8c0.1,0,0.2,0,0.4,0l0.3,1.7c-0.3,0.1-0.7,0.2-1.2,0.2
							C394.2,98.3,393.6,97.2,393.6,95.4z"/>
						<path class="st10" d="M398.8,92.5c0-3.6,2.4-5.8,5-5.8c2.9,0,4.5,2.1,4.5,5.2c0,0.4,0,0.9-0.1,1.2H401
							c0.2,2.1,1.5,3.4,3.4,3.4c1,0,1.8-0.3,2.6-0.8l0.8,1.5c-1,0.7-2.3,1.2-3.7,1.2C401.2,98.3,398.8,96.1,398.8,92.5z M406.3,91.5
							c0-1.9-0.9-3-2.5-3c-1.4,0-2.6,1.1-2.8,3H406.3z"/>
						<path class="st10" d="M410.3,91.5h5.3v1.7h-5.3V91.5z"/>
						<path class="st10" d="M418,94.4v-5.6h-1.6v-1.7l1.7-0.1l0.3-3h1.9v3h2.9v1.8h-2.9v5.6c0,1.3,0.5,2,1.6,2
							c0.4,0,0.9-0.1,1.2-0.3l0.4,1.7c-0.6,0.2-1.4,0.4-2.2,0.4C418.9,98.3,418,96.7,418,94.4z"/>
						<path class="st10" d="M424.5,95.1c0-2.4,2-3.6,6.6-4.1c0-1.3-0.5-2.4-2.1-2.4c-1.2,0-2.2,0.5-3.2,1.1l-0.9-1.6
							c1.1-0.7,2.7-1.4,4.4-1.4c2.7,0,4,1.7,4,4.7V98h-1.9l-0.2-1.3h-0.1c-1,0.9-2.2,1.5-3.5,1.5C425.8,98.3,424.5,97,424.5,95.1z
							 M431,95.2v-2.7c-3.3,0.4-4.4,1.2-4.4,2.5c0,1.1,0.7,1.5,1.7,1.5C429.4,96.4,430.1,96,431,95.2z"/>
						<path class="st10" d="M436.6,87h1.9l0.2,2h0.1c0.8-1.4,1.9-2.3,3.1-2.3c0.5,0,0.9,0.1,1.2,0.2l-0.4,2
							c-0.4-0.1-0.7-0.2-1.1-0.2c-0.9,0-2,0.6-2.7,2.4V98h-2.3V87z"/>
						<path class="st10" d="M443.8,100c0-0.9,0.6-1.8,1.6-2.4v-0.1c-0.6-0.3-1-0.9-1-1.8c0-0.9,0.6-1.6,1.2-2v-0.1
							c-0.7-0.6-1.4-1.6-1.4-2.9c0-2.5,2-4,4.3-4c0.6,0,1.2,0.1,1.6,0.3h3.9v1.7h-2.1c0.4,0.4,0.7,1.2,0.7,2c0,2.4-1.8,3.8-4.1,3.8
							c-0.5,0-1.1-0.1-1.5-0.3c-0.4,0.3-0.6,0.6-0.6,1.2c0,0.7,0.4,1.1,1.8,1.1h2c2.6,0,4,0.8,4,2.7c0,2.1-2.2,3.8-5.8,3.8
							C445.7,102.9,443.8,102,443.8,100z M451.9,99.5c0-0.9-0.7-1.2-2.1-1.2h-1.7c-0.5,0-1-0.1-1.5-0.2c-0.7,0.5-0.9,1-0.9,1.6
							c0,1.1,1.1,1.7,2.9,1.7C450.6,101.4,451.9,100.5,451.9,99.5z M450.5,90.7c0-1.5-0.9-2.3-2.1-2.3s-2.1,0.8-2.1,2.3
							c0,1.5,0.9,2.4,2.1,2.4C449.5,93,450.5,92.1,450.5,90.7z"/>
						<path class="st10" d="M455,92.5c0-3.6,2.4-5.8,5-5.8c2.9,0,4.5,2.1,4.5,5.2c0,0.4,0,0.9-0.1,1.2h-7.1c0.2,2.1,1.5,3.4,3.4,3.4
							c1,0,1.8-0.3,2.6-0.8l0.8,1.5c-1,0.7-2.3,1.2-3.7,1.2C457.4,98.3,455,96.1,455,92.5z M462.5,91.5c0-1.9-0.9-3-2.5-3
							c-1.4,0-2.6,1.1-2.8,3H462.5z"/>
						<path class="st10" d="M467.2,94.4v-5.6h-1.6v-1.7l1.7-0.1l0.3-3h1.9v3h2.9v1.8h-2.9v5.6c0,1.3,0.5,2,1.6,2
							c0.4,0,0.9-0.1,1.2-0.3l0.4,1.7c-0.6,0.2-1.4,0.4-2.2,0.4C468.1,98.3,467.2,96.7,467.2,94.4z"/>
						<path class="st10" d="M473.7,92.5c0-3.6,2.4-5.8,5-5.8c2.9,0,4.5,2.1,4.5,5.2c0,0.4,0,0.9-0.1,1.2h-7.1
							c0.2,2.1,1.5,3.4,3.4,3.4c1,0,1.8-0.3,2.6-0.8l0.8,1.5c-1,0.7-2.3,1.2-3.7,1.2C476,98.3,473.7,96.1,473.7,92.5z M481.2,91.5
							c0-1.9-0.9-3-2.5-3c-1.4,0-2.6,1.1-2.8,3H481.2z"/>
						<path class="st10" d="M485,92.5c0-3.6,2.3-5.8,4.7-5.8c1.3,0,2.1,0.5,3,1.2l-0.1-1.8v-4.1h2.3V98H493l-0.2-1.2h-0.1
							c-0.8,0.8-2,1.5-3.2,1.5C486.8,98.3,485,96.2,485,92.5z M492.6,95v-5.4c-0.8-0.7-1.6-1-2.4-1c-1.5,0-2.8,1.5-2.8,3.8
							c0,2.5,1,3.9,2.7,3.9C491,96.4,491.8,95.9,492.6,95z"/>
						<path class="st10" d="M503,83.3h2.4l4.9,8.6l1.5,3.1h0.1c-0.1-1.5-0.3-3.3-0.3-4.9v-6.9h2.2V98h-2.4l-4.9-8.7l-1.5-3.1h-0.1
							c0.1,1.5,0.3,3.2,0.3,4.8V98H503V83.3z"/>
						<path class="st10" d="M516.9,90.7c0-4.8,2.9-7.7,6.6-7.7c1.8,0,3.3,0.9,4.2,1.9l-1.3,1.5c-0.8-0.8-1.7-1.3-2.9-1.3
							c-2.5,0-4.3,2.1-4.3,5.6c0,3.5,1.6,5.6,4.2,5.6c1.3,0,2.4-0.6,3.3-1.6l1.2,1.5c-1.2,1.4-2.7,2.1-4.6,2.1
							C519.8,98.3,516.9,95.5,516.9,90.7z"/>
						<path class="st10" d="M530.6,83.3h8.7v1.9H533v4.1h5.4v2H533V96h6.6v2h-8.9V83.3z"/>
						<path class="st10" d="M546.2,92.5c0-3.7,2.5-5.8,5.2-5.8s5.2,2.1,5.2,5.8c0,3.6-2.5,5.7-5.2,5.7S546.2,96.2,546.2,92.5z
							 M554.2,92.5c0-2.3-1.1-3.9-2.8-3.9c-1.7,0-2.8,1.6-2.8,3.9c0,2.3,1.1,3.9,2.8,3.9C553.1,96.4,554.2,94.8,554.2,92.5z"/>
						<path class="st10" d="M559.2,87h1.9l0.2,2h0.1c0.8-1.4,1.9-2.3,3.1-2.3c0.5,0,0.9,0.1,1.2,0.2l-0.4,2
							c-0.4-0.1-0.7-0.2-1.1-0.2c-0.9,0-2,0.6-2.7,2.4V98h-2.3V87z"/>
						<path class="st10" d="M574,96.9L574,96.9l-0.3,1.1h-1.8V82.1h2.3v4.2l-0.1,1.9c0.9-0.8,2.1-1.4,3.3-1.4c2.8,0,4.4,2.2,4.4,5.6
							c0,3.8-2.3,5.9-4.7,5.9C576,98.3,574.9,97.8,574,96.9z M579.4,92.4c0-2.3-0.7-3.7-2.6-3.7c-0.9,0-1.7,0.4-2.6,1.3v5.4
							c0.8,0.7,1.7,1,2.4,1C578.2,96.4,579.4,94.9,579.4,92.4z"/>
						<path class="st10" d="M584.2,83.6c0-0.8,0.6-1.4,1.5-1.4s1.5,0.5,1.5,1.4c0,0.8-0.6,1.4-1.5,1.4S584.2,84.4,584.2,83.6z
							 M584.5,87h2.3v11h-2.3V87z"/>
						<path class="st10" d="M589.4,92.5c0-3.7,2.5-5.8,5.2-5.8s5.2,2.1,5.2,5.8c0,3.6-2.5,5.7-5.2,5.7S589.4,96.2,589.4,92.5z
							 M597.4,92.5c0-2.3-1.1-3.9-2.8-3.9c-1.7,0-2.8,1.6-2.8,3.9c0,2.3,1.1,3.9,2.8,3.9C596.4,96.4,597.4,94.8,597.4,92.5z"/>
						<path class="st10" d="M602.5,95.4V82.1h2.3v13.5c0,0.6,0.3,0.8,0.6,0.8c0.1,0,0.2,0,0.4,0l0.3,1.7c-0.3,0.1-0.7,0.2-1.2,0.2
							C603.1,98.3,602.5,97.2,602.5,95.4z"/>
						<path class="st10" d="M607.7,92.5c0-3.7,2.5-5.8,5.2-5.8s5.2,2.1,5.2,5.8c0,3.6-2.5,5.7-5.2,5.7S607.7,96.2,607.7,92.5z
							 M615.7,92.5c0-2.3-1.1-3.9-2.8-3.9c-1.7,0-2.8,1.6-2.8,3.9c0,2.3,1.1,3.9,2.8,3.9C614.6,96.4,615.7,94.8,615.7,92.5z"/>
						<path class="st10" d="M619.9,100c0-0.9,0.6-1.8,1.6-2.4v-0.1c-0.6-0.3-1-0.9-1-1.8c0-0.9,0.6-1.6,1.2-2v-0.1
							c-0.7-0.6-1.4-1.6-1.4-2.9c0-2.5,2-4,4.3-4c0.6,0,1.2,0.1,1.6,0.3h3.9v1.7H628c0.4,0.4,0.7,1.2,0.7,2c0,2.4-1.8,3.8-4.1,3.8
							c-0.5,0-1.1-0.1-1.5-0.3c-0.4,0.3-0.6,0.6-0.6,1.2c0,0.7,0.4,1.1,1.8,1.1h2c2.6,0,4,0.8,4,2.7c0,2.1-2.2,3.8-5.8,3.8
							C621.9,102.9,619.9,102,619.9,100z M628,99.5c0-0.9-0.7-1.2-2.1-1.2h-1.7c-0.5,0-1-0.1-1.5-0.2c-0.7,0.5-0.9,1-0.9,1.6
							c0,1.1,1.1,1.7,2.9,1.7C626.8,101.4,628,100.5,628,99.5z M626.7,90.7c0-1.5-0.9-2.3-2.1-2.3s-2.1,0.8-2.1,2.3
							c0,1.5,0.9,2.4,2.1,2.4C625.7,93,626.7,92.1,626.7,90.7z"/>
						<path class="st10" d="M632,83.6c0-0.8,0.6-1.4,1.5-1.4c0.8,0,1.5,0.5,1.5,1.4c0,0.8-0.6,1.4-1.5,1.4
							C632.6,84.9,632,84.4,632,83.6z M632.3,87h2.3v11h-2.3V87z"/>
						<path class="st10" d="M637.3,92.5c0-3.7,2.5-5.8,5.4-5.8c1.4,0,2.4,0.6,3.2,1.3l-1.1,1.5c-0.6-0.5-1.2-0.9-2-0.9
							c-1.8,0-3.2,1.6-3.2,3.9c0,2.3,1.3,3.9,3.1,3.9c0.9,0,1.7-0.4,2.4-1l0.9,1.5c-1,0.9-2.3,1.4-3.6,1.4
							C639.5,98.3,637.3,96.2,637.3,92.5z"/>
						<path class="st10" d="M647.2,96.7l1.1-1.5c1,0.8,1.9,1.3,3.1,1.3c1.3,0,1.9-0.6,1.9-1.5c0-1-1.2-1.4-2.4-1.9
							c-1.5-0.6-3.1-1.3-3.1-3.2c0-1.8,1.5-3.2,3.9-3.2c1.5,0,2.7,0.6,3.6,1.3l-1.1,1.4c-0.8-0.6-1.5-1-2.5-1
							c-1.2,0-1.8,0.6-1.8,1.4c0,0.9,1.1,1.3,2.3,1.7c1.5,0.6,3.2,1.3,3.2,3.3c0,1.8-1.5,3.3-4.2,3.3
							C649.8,98.3,648.3,97.6,647.2,96.7z"/>
					</g>
				</g>
			</g>
		</g>
	</g>
</g>
</svg>
