<?xml version="1.0" encoding="utf-8"?>
<!-- Generator: Adobe Illustrator 23.0.1, SVG Export Plug-In . SVG Version: 6.00 Build 0)  -->
<svg version="1.1" id="Layer_1" xmlns="http://www.w3.org/2000/svg" xmlns:xlink="http://www.w3.org/1999/xlink" x="0px" y="0px"
	 viewBox="0 0 334 797" style="enable-background:new 0 0 334 797;" xml:space="preserve">
<style type="text/css">
	.st0{fill-rule:evenodd;clip-rule:evenodd;fill:#B54142;fill-opacity:0.8;stroke:#961C1D;stroke-width:2;}
	.st1{enable-background:new    ;}
	.st2{fill:#FFFFFF;}
	.st3{font-family:'NotoSansKR-Bold-KSCpc-EUC-H';}
	.st4{font-size:15px;}
	.st5{font-family:'NotoSansKR-Regular-KSCpc-EUC-H';}
	.st6{fill:none;stroke:#0E0E0E;stroke-width:2;stroke-linecap:square;}
	.st7{fill:none;stroke:#0E0E0E;stroke-width:2;stroke-linecap:round;stroke-linejoin:round;}
	.st8{fill:none;stroke:#B54142;stroke-width:2;}
	.st9{fill:#333333;}
</style>
<title>table1</title>
<desc>Created with Sketch.</desc>
<g id="Page-1">
	<g id="mobile1" transform="translate(-20.000000, -2802.000000)">
		<g id="table1" transform="translate(20.000000, 2802.000000)">
			<g id="box1">
				<path id="bg" class="st0" d="M9,1h316c4.4,0,8,3.6,8,8v488c0,4.4-3.6,8-8,8H9c-4.4,0-8-3.6-8-8V9C1,4.6,4.6,1,9,1z"/>
				<g class="st1">
					<path class="st2" d="M21.4,40.9h2.2V52h-2.2V40.9z"/>
					<path class="st2" d="M26.1,43.6h1.8l0.1,1.1h0.1c0.7-0.7,1.6-1.3,2.7-1.3c1.8,0,2.6,1.3,2.6,3.4V52h-2.2v-5
						c0-1.3-0.4-1.8-1.2-1.8c-0.7,0-1.1,0.3-1.8,0.9V52h-2.2V43.6z"/>
					<path class="st2" d="M35.7,43.6h1.8l0.1,1.1h0.1c0.7-0.7,1.6-1.3,2.7-1.3c1.8,0,2.6,1.3,2.6,3.4V52h-2.2v-5
						c0-1.3-0.4-1.8-1.2-1.8c-0.7,0-1.1,0.3-1.8,0.9V52h-2.2V43.6z"/>
					<path class="st2" d="M44.8,47.8c0-2.8,1.9-4.4,4-4.4s4,1.6,4,4.4c0,2.8-1.9,4.4-4,4.4S44.8,50.6,44.8,47.8z M50.7,47.8
						c0-1.6-0.6-2.6-1.8-2.6s-1.8,1-1.8,2.6c0,1.6,0.6,2.6,1.8,2.6S50.7,49.4,50.7,47.8z"/>
					<path class="st2" d="M53.7,43.6h2.2l1.2,4.2c0.2,0.8,0.5,1.7,0.7,2.5h0.1c0.2-0.9,0.5-1.7,0.7-2.5l1.2-4.2h2.1L59.1,52h-2.6
						L53.7,43.6z"/>
					<path class="st2" d="M62.5,49.7c0-1.8,1.5-2.7,4.8-3.1c0-0.8-0.4-1.5-1.4-1.5c-0.8,0-1.5,0.3-2.3,0.8l-0.8-1.5
						c1-0.6,2.2-1.1,3.5-1.1c2.1,0,3.2,1.3,3.2,3.7V52h-1.8l-0.2-0.9h0c-0.7,0.6-1.6,1.1-2.5,1.1C63.5,52.2,62.5,51.1,62.5,49.7z
						 M67.3,49.7V48c-2,0.3-2.7,0.8-2.7,1.6c0,0.7,0.5,0.9,1.1,0.9C66.3,50.5,66.8,50.2,67.3,49.7z"/>
					<path class="st2" d="M71.8,49.1v-3.7h-1.2v-1.6l1.3-0.1l0.3-2.2H74v2.2h2.1v1.7H74v3.7c0,1,0.4,1.4,1.1,1.4
						c0.3,0,0.6-0.1,0.8-0.2l0.4,1.6c-0.5,0.2-1,0.3-1.8,0.3C72.6,52.2,71.8,51,71.8,49.1z"/>
					<path class="st2" d="M77.6,41.1c0-0.7,0.6-1.2,1.3-1.2c0.8,0,1.3,0.5,1.3,1.2c0,0.7-0.6,1.2-1.3,1.2
						C78.2,42.2,77.6,41.7,77.6,41.1z M77.8,43.6H80V52h-2.2V43.6z"/>
					<path class="st2" d="M81.4,43.6h2.2l1.2,4.2c0.2,0.8,0.5,1.7,0.7,2.5h0.1c0.2-0.9,0.5-1.7,0.7-2.5l1.2-4.2h2.1L86.8,52h-2.6
						L81.4,43.6z"/>
					<path class="st2" d="M90.4,47.8c0-2.7,1.9-4.4,3.9-4.4c2.3,0,3.5,1.7,3.5,4c0,0.4,0,0.8-0.1,1h-5.2c0.2,1.4,1.1,2.1,2.3,2.1
						c0.7,0,1.3-0.2,1.9-0.6l0.8,1.4c-0.8,0.6-1.9,0.9-2.9,0.9C92.2,52.2,90.4,50.6,90.4,47.8z M95.9,47c0-1.1-0.5-1.9-1.6-1.9
						c-0.9,0-1.7,0.6-1.8,1.9H95.9z"/>
					<path class="st2" d="M102.5,47.8c0-2.7,1.7-4.4,3.5-4.4c0.9,0,1.5,0.4,2.1,0.9l-0.1-1.3v-3h2.2v12h-1.8l-0.2-0.9h0
						c-0.6,0.6-1.5,1.1-2.3,1.1C103.9,52.2,102.5,50.6,102.5,47.8z M108.1,49.5v-3.7c-0.5-0.5-1-0.6-1.6-0.6c-0.9,0-1.7,0.9-1.7,2.6
						c0,1.7,0.6,2.6,1.7,2.6C107.1,50.4,107.6,50.2,108.1,49.5z"/>
					<path class="st2" d="M112.7,43.6h1.8l0.1,1.5h0.1c0.6-1.1,1.5-1.7,2.4-1.7c0.5,0,0.7,0.1,1,0.2l-0.4,1.9
						c-0.3-0.1-0.5-0.1-0.9-0.1c-0.7,0-1.5,0.4-1.9,1.7v5h-2.2V43.6z"/>
					<path class="st2" d="M119.1,48.9v-5.2h2.2v5c0,1.3,0.4,1.8,1.2,1.8c0.7,0,1.1-0.3,1.7-1v-5.7h2.2V52h-1.8l-0.2-1.2h-0.1
						c-0.7,0.9-1.5,1.4-2.7,1.4C119.9,52.2,119.1,51,119.1,48.9z"/>
					<path class="st2" d="M128.2,53.5c0-0.7,0.4-1.3,1.2-1.7v-0.1c-0.4-0.3-0.8-0.7-0.8-1.4c0-0.6,0.4-1.2,0.9-1.6v-0.1
						c-0.6-0.4-1.1-1.2-1.1-2.2c0-2,1.6-3,3.4-3c0.5,0,0.9,0.1,1.3,0.2h3v1.6h-1.4c0.2,0.3,0.4,0.8,0.4,1.3c0,1.9-1.4,2.8-3.2,2.8
						c-0.3,0-0.7-0.1-1.1-0.2c-0.2,0.2-0.4,0.4-0.4,0.7c0,0.5,0.3,0.7,1.3,0.7h1.4c2,0,3.1,0.6,3.1,2.1c0,1.7-1.8,3-4.6,3
						C129.7,55.6,128.2,55,128.2,53.5z M134.2,53c0-0.6-0.5-0.8-1.4-0.8h-1c-0.5,0-0.9,0-1.2-0.1c-0.4,0.3-0.6,0.6-0.6,1
						c0,0.7,0.8,1.1,2,1.1C133.3,54.2,134.2,53.7,134.2,53z M133.2,46.4c0-1-0.6-1.5-1.3-1.5s-1.3,0.6-1.3,1.5c0,1,0.6,1.5,1.3,1.5
						S133.2,47.4,133.2,46.4z"/>
					<path class="st2" d="M136.9,51l1-1.4c0.8,0.6,1.5,0.9,2.2,0.9c0.8,0,1.2-0.4,1.2-0.9c0-0.6-0.9-0.9-1.8-1.3
						c-1.1-0.4-2.3-1-2.3-2.4c0-1.5,1.2-2.6,3.1-2.6c1.2,0,2.2,0.5,2.9,1l-1,1.3c-0.6-0.4-1.2-0.7-1.8-0.7c-0.8,0-1.1,0.3-1.1,0.8
						c0,0.6,0.8,0.8,1.7,1.2c1.1,0.4,2.3,1,2.3,2.5c0,1.5-1.2,2.7-3.3,2.7C139,52.2,137.7,51.7,136.9,51z"/>
					<path class="st2" d="M148.1,47.8c0-2.7,1.7-4.4,3.5-4.4c0.9,0,1.5,0.4,2.1,0.9l-0.1-1.3v-3h2.2v12h-1.8l-0.2-0.9h0
						c-0.6,0.6-1.5,1.1-2.3,1.1C149.4,52.2,148.1,50.6,148.1,47.8z M153.6,49.5v-3.7c-0.5-0.5-1-0.6-1.6-0.6c-0.9,0-1.7,0.9-1.7,2.6
						c0,1.7,0.6,2.6,1.7,2.6C152.7,50.4,153.2,50.2,153.6,49.5z"/>
					<path class="st2" d="M157.7,47.8c0-2.7,1.9-4.4,3.9-4.4c2.3,0,3.5,1.7,3.5,4c0,0.4,0,0.8-0.1,1h-5.2c0.2,1.4,1.1,2.1,2.3,2.1
						c0.7,0,1.3-0.2,1.9-0.6l0.8,1.4c-0.8,0.6-1.9,0.9-2.9,0.9C159.5,52.2,157.7,50.6,157.7,47.8z M163.2,47c0-1.1-0.5-1.9-1.6-1.9
						c-0.9,0-1.7,0.6-1.8,1.9H163.2z"/>
					<path class="st2" d="M166.9,43.6h1.8l0.2,1.5h0.1c0.6-1.1,1.5-1.7,2.4-1.7c0.5,0,0.7,0.1,1,0.2l-0.4,1.9
						c-0.3-0.1-0.5-0.1-0.9-0.1c-0.7,0-1.5,0.4-1.9,1.7v5h-2.2V43.6z"/>
					<path class="st2" d="M173.3,41.1c0-0.7,0.6-1.2,1.3-1.2c0.8,0,1.3,0.5,1.3,1.2c0,0.7-0.6,1.2-1.3,1.2
						C173.8,42.2,173.3,41.7,173.3,41.1z M173.5,43.6h2.2V52h-2.2V43.6z"/>
					<path class="st2" d="M177,43.6h2.2l1.2,4.2c0.2,0.8,0.5,1.7,0.7,2.5h0.1c0.2-0.9,0.5-1.7,0.7-2.5l1.2-4.2h2.1l-2.8,8.4h-2.6
						L177,43.6z"/>
					<path class="st2" d="M186,47.8c0-2.7,1.9-4.4,3.9-4.4c2.3,0,3.5,1.7,3.5,4c0,0.4,0,0.8-0.1,1h-5.2c0.2,1.4,1.1,2.1,2.3,2.1
						c0.7,0,1.3-0.2,1.9-0.6l0.8,1.4c-0.8,0.6-1.9,0.9-2.9,0.9C187.8,52.2,186,50.6,186,47.8z M191.6,47c0-1.1-0.5-1.9-1.6-1.9
						c-0.9,0-1.7,0.6-1.8,1.9H191.6z"/>
					<path class="st2" d="M194.8,47.8c0-2.7,1.7-4.4,3.5-4.4c0.9,0,1.5,0.4,2.1,0.9l-0.1-1.3v-3h2.2v12h-1.8l-0.2-0.9h0
						c-0.6,0.6-1.5,1.1-2.3,1.1C196.1,52.2,194.8,50.6,194.8,47.8z M200.3,49.5v-3.7c-0.5-0.5-1-0.6-1.6-0.6c-0.9,0-1.7,0.9-1.7,2.6
						c0,1.7,0.6,2.6,1.7,2.6C199.4,50.4,199.9,50.2,200.3,49.5z"/>
					<path class="st2" d="M212.8,41.7c-0.3-0.1-0.6-0.2-0.9-0.2c-0.7,0-1,0.4-1,1.3v0.7h1.6v1.7h-1.6V52h-2.2v-6.7h-1.1v-1.6
						l1.1-0.1v-0.7c0-1.8,0.8-3.1,2.9-3.1c0.6,0,1.2,0.2,1.6,0.3L212.8,41.7z"/>
					<path class="st2" d="M213.9,43.6h1.8l0.2,1.5h0.1c0.6-1.1,1.5-1.7,2.4-1.7c0.5,0,0.7,0.1,1,0.2l-0.4,1.9
						c-0.3-0.1-0.5-0.1-0.9-0.1c-0.7,0-1.5,0.4-1.9,1.7v5h-2.2V43.6z"/>
					<path class="st2" d="M219.7,47.8c0-2.8,1.9-4.4,4-4.4s4,1.6,4,4.4c0,2.8-1.9,4.4-4,4.4S219.7,50.6,219.7,47.8z M225.6,47.8
						c0-1.6-0.6-2.6-1.8-2.6s-1.8,1-1.8,2.6c0,1.6,0.6,2.6,1.8,2.6S225.6,49.4,225.6,47.8z"/>
					<path class="st2" d="M229.7,43.6h1.8l0.2,1.1h0.1c0.7-0.7,1.5-1.3,2.6-1.3c1.2,0,1.9,0.5,2.3,1.5c0.8-0.8,1.6-1.5,2.7-1.5
						c1.8,0,2.6,1.3,2.6,3.4V52h-2.2v-5c0-1.3-0.4-1.8-1.2-1.8c-0.5,0-1,0.3-1.6,0.9V52h-2.2v-5c0-1.3-0.4-1.8-1.2-1.8
						c-0.5,0-1,0.3-1.6,0.9V52h-2.2V43.6z"/>
					<path class="st2" d="M249.5,51.1L249.5,51.1l-0.2,0.9h-1.7V40h2.2v3l0,1.4c0.7-0.6,1.5-1,2.3-1c2.1,0,3.3,1.7,3.3,4.3
						c0,2.9-1.7,4.6-3.6,4.6C251,52.2,250.2,51.8,249.5,51.1z M253,47.7c0-1.6-0.5-2.5-1.7-2.5c-0.6,0-1.1,0.3-1.7,0.9v3.7
						c0.5,0.5,1.1,0.6,1.5,0.6C252.3,50.4,253,49.5,253,47.7z"/>
					<path class="st2" d="M256.7,47.8c0-2.8,1.9-4.4,4-4.4c2.1,0,4,1.6,4,4.4c0,2.8-1.9,4.4-4,4.4C258.6,52.2,256.7,50.6,256.7,47.8
						z M262.5,47.8c0-1.6-0.6-2.6-1.8-2.6c-1.1,0-1.8,1-1.8,2.6c0,1.6,0.6,2.6,1.8,2.6C261.8,50.4,262.5,49.4,262.5,47.8z"/>
					<path class="st2" d="M266.5,49.1v-3.7h-1.2v-1.6l1.3-0.1l0.3-2.2h1.8v2.2h2.1v1.7h-2.1v3.7c0,1,0.4,1.4,1.1,1.4
						c0.3,0,0.6-0.1,0.8-0.2l0.4,1.6c-0.5,0.2-1,0.3-1.8,0.3C267.2,52.2,266.5,51,266.5,49.1z"/>
					<path class="st2" d="M271.7,49.7c0-1.8,1.5-2.7,4.8-3.1c0-0.8-0.4-1.5-1.4-1.5c-0.8,0-1.5,0.3-2.3,0.8l-0.8-1.5
						c1-0.6,2.2-1.1,3.5-1.1c2.1,0,3.2,1.3,3.2,3.7V52h-1.8l-0.2-0.9h0c-0.7,0.6-1.6,1.1-2.5,1.1C272.7,52.2,271.7,51.1,271.7,49.7z
						 M276.5,49.7V48c-2,0.3-2.7,0.8-2.7,1.6c0,0.7,0.5,0.9,1.1,0.9C275.5,50.5,276,50.2,276.5,49.7z"/>
					<path class="st2" d="M281,43.6h1.8l0.2,1.1h0.1c0.7-0.7,1.6-1.3,2.7-1.3c1.8,0,2.6,1.3,2.6,3.4V52h-2.2v-5
						c0-1.3-0.4-1.8-1.2-1.8c-0.7,0-1.1,0.3-1.8,0.9V52H281V43.6z"/>
					<path class="st2" d="M290.4,41.1c0-0.7,0.6-1.2,1.3-1.2c0.8,0,1.3,0.5,1.3,1.2c0,0.7-0.6,1.2-1.3,1.2
						C290.9,42.2,290.4,41.7,290.4,41.1z M290.6,43.6h2.2V52h-2.2V43.6z"/>
					<path class="st2" d="M294.6,47.8c0-2.8,2-4.4,4.3-4.4c1,0,1.8,0.4,2.4,0.9l-1,1.4c-0.4-0.4-0.8-0.6-1.3-0.6
						c-1.3,0-2.1,1-2.1,2.6c0,1.6,0.9,2.6,2.1,2.6c0.6,0,1.2-0.3,1.6-0.7l0.9,1.5c-0.8,0.7-1.8,1-2.7,1
						C296.4,52.2,294.6,50.6,294.6,47.8z"/>
					<path class="st2" d="M302.4,49.7c0-1.8,1.5-2.7,4.8-3.1c0-0.8-0.4-1.5-1.4-1.5c-0.8,0-1.5,0.3-2.3,0.8l-0.8-1.5
						c1-0.6,2.2-1.1,3.5-1.1c2.1,0,3.2,1.3,3.2,3.7V52h-1.8l-0.2-0.9h0c-0.7,0.6-1.6,1.1-2.5,1.1C303.4,52.2,302.4,51.1,302.4,49.7z
						 M307.3,49.7V48c-2,0.3-2.7,0.8-2.7,1.6c0,0.7,0.5,0.9,1.1,0.9C306.3,50.5,306.8,50.2,307.3,49.7z"/>
					<path class="st2" d="M311.7,49.6V40h2.2v9.7c0,0.5,0.2,0.7,0.5,0.7c0.1,0,0.1,0,0.3,0l0.3,1.6c-0.3,0.1-0.6,0.2-1.1,0.2
						C312.3,52.2,311.7,51.2,311.7,49.6z"/>
				</g>
				<text transform="matrix(1 0 0 1 315.2704 52)" class="st2 st3 st4"> </text>
				<g class="st1">
					<path class="st2" d="M20.4,73l1-1.4c0.8,0.6,1.5,0.9,2.2,0.9c0.8,0,1.2-0.4,1.2-0.9c0-0.6-0.9-0.9-1.8-1.3
						c-1.1-0.4-2.3-1-2.3-2.4c0-1.5,1.2-2.6,3.1-2.6c1.2,0,2.2,0.5,2.9,1l-1,1.3C25.2,67.3,24.6,67,24,67c-0.8,0-1.1,0.3-1.1,0.8
						c0,0.6,0.8,0.8,1.7,1.2c1.1,0.4,2.3,1,2.3,2.5c0,1.5-1.2,2.7-3.3,2.7C22.5,74.2,21.2,73.7,20.4,73z"/>
					<path class="st2" d="M28.1,69.8c0-2.8,1.9-4.4,4-4.4s4,1.6,4,4.4c0,2.8-1.9,4.4-4,4.4S28.1,72.6,28.1,69.8z M33.9,69.8
						c0-1.6-0.6-2.6-1.8-2.6s-1.8,1-1.8,2.6c0,1.6,0.6,2.6,1.8,2.6S33.9,71.4,33.9,69.8z"/>
					<path class="st2" d="M37.9,70.9v-5.2h2.2v5c0,1.3,0.4,1.8,1.2,1.8c0.7,0,1.1-0.3,1.7-1v-5.7h2.2V74h-1.8l-0.2-1.2h-0.1
						c-0.7,0.9-1.5,1.4-2.7,1.4C38.7,74.2,37.9,73,37.9,70.9z"/>
					<path class="st2" d="M47.6,65.6h1.8l0.1,1.5h0.1c0.6-1.1,1.5-1.7,2.4-1.7c0.5,0,0.7,0.1,1,0.2l-0.4,1.9
						c-0.3-0.1-0.5-0.1-0.9-0.1c-0.7,0-1.5,0.4-1.9,1.7v5h-2.2V65.6z"/>
					<path class="st2" d="M53.4,69.8c0-2.8,2-4.4,4.3-4.4c1,0,1.8,0.4,2.4,0.9l-1,1.4c-0.4-0.4-0.8-0.6-1.3-0.6
						c-1.3,0-2.1,1-2.1,2.6c0,1.6,0.9,2.6,2.1,2.6c0.6,0,1.2-0.3,1.6-0.7l0.9,1.5c-0.8,0.7-1.8,1-2.7,1
						C55.2,74.2,53.4,72.6,53.4,69.8z"/>
					<path class="st2" d="M60.8,69.8c0-2.7,1.9-4.4,3.9-4.4c2.3,0,3.5,1.7,3.5,4c0,0.4,0,0.8-0.1,1H63c0.2,1.4,1.1,2.1,2.3,2.1
						c0.7,0,1.3-0.2,1.9-0.6l0.8,1.4c-0.8,0.6-1.9,0.9-2.9,0.9C62.7,74.2,60.8,72.6,60.8,69.8z M66.4,69c0-1.1-0.5-1.9-1.6-1.9
						c-0.9,0-1.7,0.6-1.8,1.9H66.4z"/>
					<path class="st2" d="M69.3,73l1-1.4c0.8,0.6,1.5,0.9,2.2,0.9c0.8,0,1.2-0.4,1.2-0.9c0-0.6-0.9-0.9-1.8-1.3
						c-1.1-0.4-2.3-1-2.3-2.4c0-1.5,1.2-2.6,3.1-2.6c1.2,0,2.2,0.5,2.9,1l-1,1.3c-0.6-0.4-1.2-0.7-1.8-0.7c-0.8,0-1.1,0.3-1.1,0.8
						c0,0.6,0.8,0.8,1.7,1.2c1.1,0.4,2.3,1,2.3,2.5c0,1.5-1.2,2.7-3.3,2.7C71.4,74.2,70.1,73.7,69.3,73z"/>
					<path class="st2" d="M85.4,63.7c-0.3-0.1-0.6-0.2-0.9-0.2c-0.7,0-1,0.4-1,1.3v0.7h1.6v1.7h-1.6V74h-2.2v-6.7h-1.1v-1.6l1.1-0.1
						v-0.7c0-1.8,0.8-3.1,2.9-3.1c0.6,0,1.2,0.2,1.6,0.3L85.4,63.7z"/>
					<path class="st2" d="M85.8,69.8c0-2.8,1.9-4.4,4-4.4s4,1.6,4,4.4c0,2.8-1.9,4.4-4,4.4S85.8,72.6,85.8,69.8z M91.6,69.8
						c0-1.6-0.6-2.6-1.8-2.6s-1.8,1-1.8,2.6c0,1.6,0.6,2.6,1.8,2.6S91.6,71.4,91.6,69.8z"/>
					<path class="st2" d="M95.7,65.6h1.8l0.1,1.5h0.1c0.6-1.1,1.5-1.7,2.4-1.7c0.5,0,0.7,0.1,1,0.2l-0.4,1.9
						c-0.3-0.1-0.5-0.1-0.9-0.1c-0.7,0-1.5,0.4-1.9,1.7v5h-2.2V65.6z"/>
					<path class="st2" d="M106,71.1v-3.7h-1.2v-1.6l1.3-0.1l0.3-2.2h1.8v2.2h2.1v1.7h-2.1v3.7c0,1,0.4,1.4,1.1,1.4
						c0.3,0,0.6-0.1,0.8-0.2l0.4,1.6c-0.5,0.2-1,0.3-1.8,0.3C106.7,74.2,106,73,106,71.1z"/>
					<path class="st2" d="M111.9,62h2.2v3l-0.1,1.6c0.7-0.6,1.5-1.2,2.6-1.2c1.8,0,2.6,1.3,2.6,3.4V74h-2.2v-5
						c0-1.3-0.4-1.8-1.2-1.8c-0.7,0-1.1,0.3-1.8,0.9V74h-2.2V62z"/>
					<path class="st2" d="M121,69.8c0-2.7,1.9-4.4,3.9-4.4c2.3,0,3.5,1.7,3.5,4c0,0.4,0,0.8-0.1,1h-5.2c0.2,1.4,1.1,2.1,2.3,2.1
						c0.7,0,1.3-0.2,1.9-0.6l0.8,1.4c-0.8,0.6-1.9,0.9-2.9,0.9C122.9,74.2,121,72.6,121,69.8z M126.6,69c0-1.1-0.5-1.9-1.6-1.9
						c-0.9,0-1.7,0.6-1.8,1.9H126.6z"/>
					<path class="st2" d="M134,71.1v-3.7h-1.2v-1.6l1.3-0.1l0.3-2.2h1.8v2.2h2.1v1.7h-2.1v3.7c0,1,0.4,1.4,1.1,1.4
						c0.3,0,0.6-0.1,0.8-0.2l0.4,1.6c-0.5,0.2-1,0.3-1.8,0.3C134.7,74.2,134,73,134,71.1z"/>
					<path class="st2" d="M140,65.6h1.8l0.1,1.5h0.1c0.6-1.1,1.5-1.7,2.4-1.7c0.5,0,0.7,0.1,1,0.2l-0.4,1.9
						c-0.3-0.1-0.5-0.1-0.9-0.1c-0.7,0-1.5,0.4-1.9,1.7v5H140V65.6z"/>
					<path class="st2" d="M145.8,69.8c0-2.7,1.9-4.4,3.9-4.4c2.3,0,3.5,1.7,3.5,4c0,0.4,0,0.8-0.1,1h-5.2c0.2,1.4,1.1,2.1,2.3,2.1
						c0.7,0,1.3-0.2,1.9-0.6l0.8,1.4c-0.8,0.6-1.9,0.9-2.9,0.9C147.6,74.2,145.8,72.6,145.8,69.8z M151.3,69c0-1.1-0.5-1.9-1.6-1.9
						c-0.9,0-1.7,0.6-1.8,1.9H151.3z"/>
					<path class="st2" d="M154.4,71.7c0-1.8,1.5-2.7,4.8-3.1c0-0.8-0.4-1.5-1.4-1.5c-0.8,0-1.5,0.3-2.3,0.8l-0.8-1.5
						c1-0.6,2.2-1.1,3.5-1.1c2.1,0,3.2,1.3,3.2,3.7V74h-1.8l-0.2-0.9h0c-0.7,0.6-1.6,1.1-2.5,1.1C155.4,74.2,154.4,73.1,154.4,71.7z
						 M159.2,71.7V70c-2,0.3-2.7,0.8-2.7,1.6c0,0.7,0.5,0.9,1.1,0.9C158.3,72.5,158.7,72.2,159.2,71.7z"/>
					<path class="st2" d="M163.7,71.1v-3.7h-1.2v-1.6l1.3-0.1l0.3-2.2h1.8v2.2h2.1v1.7h-2.1v3.7c0,1,0.4,1.4,1.1,1.4
						c0.3,0,0.6-0.1,0.8-0.2l0.4,1.6c-0.4,0.2-1,0.3-1.8,0.3C164.5,74.2,163.7,73,163.7,71.1z"/>
					<path class="st2" d="M169.7,65.6h1.8l0.1,1.1h0.1c0.7-0.7,1.5-1.3,2.6-1.3c1.2,0,1.9,0.5,2.3,1.5c0.8-0.8,1.6-1.5,2.7-1.5
						c1.8,0,2.6,1.3,2.6,3.4V74h-2.2v-5c0-1.3-0.4-1.8-1.2-1.8c-0.5,0-1,0.3-1.6,0.9V74h-2.2v-5c0-1.3-0.4-1.8-1.2-1.8
						c-0.5,0-1,0.3-1.6,0.9V74h-2.2V65.6z"/>
					<path class="st2" d="M183.6,69.8c0-2.7,1.9-4.4,3.9-4.4c2.3,0,3.5,1.7,3.5,4c0,0.4,0,0.8-0.1,1h-5.2c0.2,1.4,1.1,2.1,2.3,2.1
						c0.7,0,1.3-0.2,1.9-0.6l0.8,1.4c-0.8,0.6-1.9,0.9-2.9,0.9C185.5,74.2,183.6,72.6,183.6,69.8z M189.2,69c0-1.1-0.5-1.9-1.6-1.9
						c-0.9,0-1.7,0.6-1.8,1.9H189.2z"/>
					<path class="st2" d="M192.9,65.6h1.8l0.2,1.1h0.1c0.7-0.7,1.6-1.3,2.7-1.3c1.8,0,2.6,1.3,2.6,3.4V74H198v-5
						c0-1.3-0.4-1.8-1.2-1.8c-0.7,0-1.1,0.3-1.8,0.9V74h-2.2V65.6z"/>
					<path class="st2" d="M202.8,71.1v-3.7h-1.2v-1.6l1.3-0.1l0.3-2.2h1.8v2.2h2.1v1.7H205v3.7c0,1,0.4,1.4,1.1,1.4
						c0.3,0,0.6-0.1,0.8-0.2l0.4,1.6c-0.5,0.2-1,0.3-1.8,0.3C203.6,74.2,202.8,73,202.8,71.1z"/>
					<path class="st2" d="M211.7,69.8c0-2.8,1.9-4.4,4-4.4s4,1.6,4,4.4c0,2.8-1.9,4.4-4,4.4S211.7,72.6,211.7,69.8z M217.5,69.8
						c0-1.6-0.6-2.6-1.8-2.6s-1.8,1-1.8,2.6c0,1.6,0.6,2.6,1.8,2.6S217.5,71.4,217.5,69.8z"/>
					<path class="st2" d="M226,63.7c-0.3-0.1-0.6-0.2-0.9-0.2c-0.7,0-1,0.4-1,1.3v0.7h1.6v1.7h-1.6V74h-2.2v-6.7h-1.1v-1.6l1.1-0.1
						v-0.7c0-1.8,0.8-3.1,2.9-3.1c0.6,0,1.2,0.2,1.6,0.3L226,63.7z"/>
				</g>
				<text transform="matrix(1 0 0 1 225.9177 74)" class="st2 st3 st4"> </text>
				<g class="st1">
					<path class="st2" d="M21,85.1c0-0.7,0.6-1.2,1.3-1.2c0.8,0,1.3,0.5,1.3,1.2c0,0.7-0.6,1.2-1.3,1.2C21.5,86.2,21,85.7,21,85.1z
						 M21.2,87.6h2.2V96h-2.2V87.6z"/>
					<path class="st2" d="M25.7,87.6h1.8l0.1,1.1h0.1c0.7-0.7,1.6-1.3,2.7-1.3c1.8,0,2.6,1.3,2.6,3.4V96h-2.2v-5
						c0-1.3-0.4-1.8-1.2-1.8c-0.7,0-1.1,0.3-1.8,0.9V96h-2.2V87.6z"/>
					<path class="st2" d="M35.7,93.1v-3.7h-1.2v-1.6l1.3-0.1l0.3-2.2h1.8v2.2h2.1v1.7h-2.1v3.7c0,1,0.4,1.4,1.1,1.4
						c0.3,0,0.6-0.1,0.8-0.2l0.4,1.6c-0.5,0.2-1,0.3-1.8,0.3C36.4,96.2,35.7,95,35.7,93.1z"/>
					<path class="st2" d="M41.7,87.6h1.8l0.1,1.5h0.1c0.6-1.1,1.5-1.7,2.4-1.7c0.5,0,0.7,0.1,1,0.2l-0.4,1.9
						c-0.3-0.1-0.5-0.1-0.9-0.1c-0.7,0-1.5,0.4-1.9,1.7v5h-2.2V87.6z"/>
					<path class="st2" d="M47.3,93.7c0-1.8,1.5-2.7,4.8-3.1c0-0.8-0.4-1.5-1.4-1.5c-0.8,0-1.5,0.3-2.3,0.8l-0.8-1.5
						c1-0.6,2.2-1.1,3.5-1.1c2.1,0,3.2,1.3,3.2,3.7V96h-1.8l-0.2-0.9h0c-0.7,0.6-1.6,1.1-2.5,1.1C48.3,96.2,47.3,95.1,47.3,93.7z
						 M52.1,93.7V92c-2,0.3-2.7,0.8-2.7,1.6c0,0.7,0.5,0.9,1.1,0.9C51.2,94.5,51.6,94.2,52.1,93.7z"/>
					<path class="st2" d="M56.1,91.8c0-2.8,2-4.4,4.3-4.4c1,0,1.8,0.4,2.4,0.9l-1,1.4c-0.4-0.4-0.8-0.6-1.3-0.6
						c-1.3,0-2.1,1-2.1,2.6c0,1.6,0.9,2.6,2.1,2.6c0.6,0,1.2-0.3,1.6-0.7l0.9,1.5c-0.8,0.7-1.8,1-2.7,1
						C57.8,96.2,56.1,94.6,56.1,91.8z"/>
					<path class="st2" d="M64.6,93.1v-3.7h-1.2v-1.6l1.3-0.1l0.3-2.2h1.8v2.2h2.1v1.7h-2.1v3.7c0,1,0.4,1.4,1.1,1.4
						c0.3,0,0.6-0.1,0.8-0.2l0.4,1.6c-0.5,0.2-1,0.3-1.8,0.3C65.4,96.2,64.6,95,64.6,93.1z"/>
					<path class="st2" d="M69.9,93.7c0-1.8,1.5-2.7,4.8-3.1c0-0.8-0.4-1.5-1.4-1.5c-0.8,0-1.5,0.3-2.3,0.8l-0.8-1.5
						c1-0.6,2.2-1.1,3.5-1.1c2.1,0,3.2,1.3,3.2,3.7V96h-1.8l-0.2-0.9h0c-0.7,0.6-1.6,1.1-2.5,1.1C70.8,96.2,69.9,95.1,69.9,93.7z
						 M74.7,93.7V92c-2,0.3-2.7,0.8-2.7,1.6c0,0.7,0.5,0.9,1.1,0.9C73.7,94.5,74.2,94.2,74.7,93.7z"/>
					<path class="st2" d="M81.1,95.1L81.1,95.1L80.9,96h-1.7V84h2.2v3l0,1.4c0.7-0.6,1.5-1,2.3-1c2.1,0,3.3,1.7,3.3,4.3
						c0,2.9-1.7,4.6-3.6,4.6C82.6,96.2,81.8,95.8,81.1,95.1z M84.7,91.7c0-1.6-0.5-2.5-1.7-2.5c-0.6,0-1.1,0.3-1.7,0.9v3.7
						c0.5,0.5,1.1,0.6,1.5,0.6C83.9,94.4,84.7,93.5,84.7,91.7z"/>
					<path class="st2" d="M88.8,93.6V84H91v9.7c0,0.5,0.2,0.7,0.4,0.7c0.1,0,0.1,0,0.3,0L92,96c-0.3,0.1-0.6,0.2-1.1,0.2
						C89.3,96.2,88.8,95.2,88.8,93.6z"/>
					<path class="st2" d="M93,91.8c0-2.7,1.9-4.4,3.9-4.4c2.3,0,3.5,1.7,3.5,4c0,0.4,0,0.8-0.1,1h-5.2c0.2,1.4,1.1,2.1,2.3,2.1
						c0.7,0,1.3-0.2,1.9-0.6l0.8,1.4c-0.8,0.6-1.9,0.9-2.9,0.9C94.8,96.2,93,94.6,93,91.8z M98.5,91c0-1.1-0.5-1.9-1.6-1.9
						c-0.9,0-1.7,0.6-1.8,1.9H98.5z"/>
					<path class="st2" d="M105,83.9h1.5l-3.7,14.8h-1.5L105,83.9z"/>
					<path class="st2" d="M107.2,91.8c0-2.8,2-4.4,4.3-4.4c1,0,1.8,0.4,2.4,0.9l-1,1.4c-0.4-0.4-0.8-0.6-1.3-0.6
						c-1.3,0-2.1,1-2.1,2.6c0,1.6,0.9,2.6,2.1,2.6c0.6,0,1.2-0.3,1.6-0.7l0.9,1.5c-0.8,0.7-1.8,1-2.7,1
						C109,96.2,107.2,94.6,107.2,91.8z"/>
					<path class="st2" d="M115.6,84h2.2v3l-0.1,1.6c0.7-0.6,1.5-1.2,2.6-1.2c1.8,0,2.6,1.3,2.6,3.4V96h-2.2v-5
						c0-1.3-0.4-1.8-1.2-1.8c-0.7,0-1.1,0.3-1.8,0.9V96h-2.2V84z"/>
					<path class="st2" d="M125.2,87.6h1.8l0.1,1.5h0.1c0.6-1.1,1.5-1.7,2.4-1.7c0.5,0,0.7,0.1,1,0.2l-0.4,1.9
						c-0.3-0.1-0.5-0.1-0.9-0.1c-0.7,0-1.5,0.4-1.9,1.7v5h-2.2V87.6z"/>
					<path class="st2" d="M131.1,91.8c0-2.8,1.9-4.4,4-4.4s4,1.6,4,4.4c0,2.8-1.9,4.4-4,4.4S131.1,94.6,131.1,91.8z M136.9,91.8
						c0-1.6-0.6-2.6-1.8-2.6s-1.8,1-1.8,2.6c0,1.6,0.6,2.6,1.8,2.6S136.9,93.4,136.9,91.8z"/>
					<path class="st2" d="M141,87.6h1.8l0.1,1.1h0.1c0.7-0.7,1.6-1.3,2.7-1.3c1.8,0,2.6,1.3,2.6,3.4V96h-2.2v-5
						c0-1.3-0.4-1.8-1.2-1.8c-0.7,0-1.1,0.3-1.8,0.9V96H141V87.6z"/>
					<path class="st2" d="M150.4,85.1c0-0.7,0.6-1.2,1.3-1.2c0.8,0,1.3,0.5,1.3,1.2c0,0.7-0.6,1.2-1.3,1.2
						C150.9,86.2,150.4,85.7,150.4,85.1z M150.6,87.6h2.2V96h-2.2V87.6z"/>
					<path class="st2" d="M154.6,91.8c0-2.8,2-4.4,4.3-4.4c1,0,1.8,0.4,2.4,0.9l-1,1.4c-0.4-0.4-0.8-0.6-1.3-0.6
						c-1.3,0-2.1,1-2.1,2.6c0,1.6,0.9,2.6,2.1,2.6c0.6,0,1.2-0.3,1.6-0.7l0.9,1.5c-0.8,0.7-1.8,1-2.7,1
						C156.4,96.2,154.6,94.6,154.6,91.8z"/>
					<path class="st2" d="M166,91.8c0-2.7,1.7-4.4,3.5-4.4c0.9,0,1.5,0.4,2.1,0.9l-0.1-1.3v-3h2.2v12H172l-0.2-0.9h0
						c-0.6,0.6-1.5,1.1-2.3,1.1C167.3,96.2,166,94.6,166,91.8z M171.5,93.5v-3.7c-0.5-0.5-1-0.6-1.6-0.6c-0.9,0-1.7,0.9-1.7,2.6
						c0,1.7,0.6,2.6,1.7,2.6C170.6,94.4,171.1,94.2,171.5,93.5z"/>
					<path class="st2" d="M175.9,85.1c0-0.7,0.6-1.2,1.3-1.2c0.8,0,1.3,0.5,1.3,1.2c0,0.7-0.6,1.2-1.3,1.2
						C176.5,86.2,175.9,85.7,175.9,85.1z M176.1,87.6h2.2V96h-2.2V87.6z"/>
					<path class="st2" d="M179.9,95l1-1.4c0.8,0.6,1.5,0.9,2.2,0.9c0.8,0,1.2-0.4,1.2-0.9c0-0.6-0.9-0.9-1.8-1.3
						c-1.1-0.4-2.3-1-2.3-2.4c0-1.5,1.2-2.6,3.1-2.6c1.2,0,2.2,0.5,2.9,1l-1,1.3c-0.6-0.4-1.2-0.7-1.8-0.7c-0.8,0-1.1,0.3-1.1,0.8
						c0,0.6,0.8,0.8,1.7,1.2c1.1,0.4,2.3,1,2.3,2.5c0,1.5-1.2,2.7-3.3,2.7C182,96.2,180.7,95.7,179.9,95z"/>
					<path class="st2" d="M187.6,91.8c0-2.7,1.9-4.4,3.9-4.4c2.3,0,3.5,1.7,3.5,4c0,0.4,0,0.8-0.1,1h-5.2c0.2,1.4,1.1,2.1,2.3,2.1
						c0.7,0,1.3-0.2,1.9-0.6l0.8,1.4c-0.8,0.6-1.9,0.9-2.9,0.9C189.4,96.2,187.6,94.6,187.6,91.8z M193.1,91c0-1.1-0.5-1.9-1.6-1.9
						c-0.9,0-1.7,0.6-1.8,1.9H193.1z"/>
					<path class="st2" d="M196.2,93.7c0-1.8,1.5-2.7,4.8-3.1c0-0.8-0.4-1.5-1.4-1.5c-0.8,0-1.5,0.3-2.3,0.8l-0.8-1.5
						c1-0.6,2.2-1.1,3.5-1.1c2.1,0,3.2,1.3,3.2,3.7V96h-1.8l-0.2-0.9h0c-0.7,0.6-1.6,1.1-2.5,1.1C197.2,96.2,196.2,95.1,196.2,93.7z
						 M201,93.7V92c-2,0.3-2.7,0.8-2.7,1.6c0,0.7,0.5,0.9,1.1,0.9C200,94.5,200.5,94.2,201,93.7z"/>
					<path class="st2" d="M204.7,95l1-1.4c0.8,0.6,1.5,0.9,2.2,0.9c0.8,0,1.2-0.4,1.2-0.9c0-0.6-0.9-0.9-1.8-1.3
						c-1.1-0.4-2.3-1-2.3-2.4c0-1.5,1.2-2.6,3.1-2.6c1.2,0,2.2,0.5,2.9,1l-1,1.3c-0.6-0.4-1.2-0.7-1.8-0.7c-0.8,0-1.1,0.3-1.1,0.8
						c0,0.6,0.8,0.8,1.7,1.2c1.1,0.4,2.3,1,2.3,2.5c0,1.5-1.2,2.7-3.3,2.7C206.7,96.2,205.5,95.7,204.7,95z"/>
					<path class="st2" d="M212.4,91.8c0-2.7,1.9-4.4,3.9-4.4c2.3,0,3.5,1.7,3.5,4c0,0.4,0,0.8-0.1,1h-5.2c0.2,1.4,1.1,2.1,2.3,2.1
						c0.7,0,1.3-0.2,1.9-0.6l0.8,1.4c-0.8,0.6-1.9,0.9-2.9,0.9C214.2,96.2,212.4,94.6,212.4,91.8z M217.9,91c0-1.1-0.5-1.9-1.6-1.9
						c-0.9,0-1.7,0.6-1.8,1.9H217.9z"/>
					<path class="st2" d="M220.8,95l1-1.4c0.8,0.6,1.5,0.9,2.2,0.9c0.8,0,1.2-0.4,1.2-0.9c0-0.6-0.9-0.9-1.8-1.3
						c-1.1-0.4-2.3-1-2.3-2.4c0-1.5,1.2-2.6,3.1-2.6c1.2,0,2.2,0.5,2.9,1l-1,1.3c-0.6-0.4-1.2-0.7-1.8-0.7c-0.8,0-1.1,0.3-1.1,0.8
						c0,0.6,0.8,0.8,1.7,1.2c1.1,0.4,2.3,1,2.3,2.5c0,1.5-1.2,2.7-3.3,2.7C222.9,96.2,221.6,95.7,220.8,95z"/>
				</g>
				<g class="st1">
					<path class="st2" d="M30.7,133.3h3.8v1h-3.8V133.3z"/>
					<path class="st2" d="M42.4,128.2H39V127h8.1v1.2h-3.3v9.8h-1.4V128.2z"/>
					<path class="st2" d="M47.2,135.9c0-1.8,1.5-2.7,5-3c0-1-0.3-2.1-1.7-2.1c-0.9,0-1.8,0.4-2.4,0.9l-0.5-0.9
						c0.8-0.5,1.9-1.1,3.2-1.1c2,0,2.8,1.3,2.8,3.3v5h-1.1l-0.1-1h0c-0.8,0.6-1.7,1.2-2.7,1.2C48.2,138.2,47.2,137.4,47.2,135.9z
						 M52.2,136v-2.3c-2.7,0.3-3.7,1-3.7,2.1c0,0.9,0.6,1.3,1.4,1.3C50.8,137.1,51.4,136.7,52.2,136z"/>
					<path class="st2" d="M56.2,129.9h1.1l0.1,1.5h0c0.6-1,1.4-1.7,2.3-1.7c0.4,0,0.6,0,0.9,0.2l-0.3,1.2c-0.3-0.1-0.5-0.1-0.8-0.1
						c-0.7,0-1.5,0.5-2.1,1.9v5.2h-1.4V129.9z"/>
					<path class="st2" d="M61.2,139.6c0-0.7,0.4-1.3,1.2-1.8v-0.1c-0.4-0.3-0.8-0.7-0.8-1.3c0-0.7,0.5-1.2,0.9-1.5v-0.1
						c-0.5-0.4-1.1-1.2-1.1-2.2c0-1.8,1.4-2.9,3.1-2.9c0.4,0,0.9,0.1,1.1,0.2h2.8v1h-1.7c0.4,0.4,0.7,1,0.7,1.7c0,1.7-1.3,2.8-3,2.8
						c-0.4,0-0.9-0.1-1.2-0.3c-0.3,0.3-0.5,0.5-0.5,1c0,0.5,0.3,0.9,1.4,0.9h1.6c1.9,0,2.8,0.6,2.8,1.9c0,1.5-1.6,2.8-4.1,2.8
						C62.6,141.8,61.2,141,61.2,139.6z M67.4,139.1c0-0.8-0.6-1-1.7-1h-1.4c-0.3,0-0.7,0-1-0.1c-0.6,0.4-0.8,0.9-0.8,1.4
						c0,0.9,0.9,1.4,2.4,1.4C66.3,140.8,67.4,140,67.4,139.1z M66.3,132.6c0-1.2-0.8-1.9-1.7-1.9s-1.7,0.7-1.7,1.9
						c0,1.2,0.8,1.9,1.7,1.9C65.5,134.5,66.3,133.7,66.3,132.6z"/>
					<path class="st2" d="M69.4,133.9c0-2.6,1.8-4.3,3.7-4.3c2.1,0,3.2,1.5,3.2,3.8c0,0.3,0,0.6-0.1,0.8h-5.5
						c0.1,1.7,1.2,2.8,2.7,2.8c0.8,0,1.4-0.2,2-0.6l0.5,0.9c-0.7,0.5-1.6,0.8-2.7,0.8C71.2,138.2,69.4,136.6,69.4,133.9z
						 M75.1,133.3c0-1.7-0.8-2.5-2-2.5c-1.2,0-2.2,0.9-2.3,2.5H75.1z"/>
					<path class="st2" d="M78.4,135.5V131h-1.2v-1l1.3-0.1l0.2-2.3h1.1v2.3H82v1.1h-2.2v4.5c0,1,0.3,1.6,1.3,1.6
						c0.3,0,0.7-0.1,0.9-0.2l0.3,1c-0.5,0.2-1,0.3-1.5,0.3C79,138.2,78.4,137.1,78.4,135.5z"/>
					<path class="st2" d="M87.2,129.9h1.1l0.1,1.2h0c0.8-0.8,1.6-1.4,2.7-1.4c1.7,0,2.5,1.1,2.5,3.2v5.2h-1.4v-5
						c0-1.5-0.5-2.2-1.5-2.2c-0.8,0-1.4,0.4-2.2,1.2v5.9h-1.4V129.9z"/>
					<path class="st2" d="M96.1,127.3c0-0.6,0.4-0.9,0.9-0.9s0.9,0.3,0.9,0.9c0,0.5-0.4,0.9-0.9,0.9S96.1,127.8,96.1,127.3z
						 M96.4,129.9h1.4v8.1h-1.4V129.9z"/>
					<path class="st2" d="M99.9,133.9c0-2.7,1.8-4.3,3.9-4.3c1.1,0,1.8,0.5,2.4,1l-0.7,0.9c-0.5-0.4-1-0.7-1.6-0.7
						c-1.5,0-2.5,1.3-2.5,3.2s1,3.1,2.5,3.1c0.8,0,1.4-0.3,1.9-0.8l0.6,0.9c-0.7,0.7-1.6,1-2.6,1C101.5,138.2,99.9,136.6,99.9,133.9
						z"/>
					<path class="st2" d="M108.1,126.1h1.4v3.3l0,1.7c0.8-0.8,1.6-1.4,2.7-1.4c1.7,0,2.5,1.1,2.5,3.2v5.2h-1.4v-5
						c0-1.5-0.5-2.2-1.5-2.2c-0.8,0-1.4,0.4-2.2,1.2v5.9h-1.4V126.1z"/>
					<path class="st2" d="M116.6,133.9c0-2.6,1.8-4.3,3.7-4.3c2.1,0,3.2,1.5,3.2,3.8c0,0.3,0,0.6-0.1,0.8H118
						c0.1,1.7,1.2,2.8,2.7,2.8c0.8,0,1.4-0.2,2-0.6l0.5,0.9c-0.7,0.5-1.6,0.8-2.7,0.8C118.4,138.2,116.6,136.6,116.6,133.9z
						 M122.3,133.3c0-1.7-0.8-2.5-2-2.5c-1.2,0-2.2,0.9-2.3,2.5H122.3z"/>
					<path class="st2" d="M128.9,129.9h1.1l0.1,1.2h0c0.7-0.8,1.6-1.4,2.5-1.4c1.2,0,1.9,0.6,2.2,1.6c0.8-0.9,1.7-1.6,2.7-1.6
						c1.7,0,2.5,1.1,2.5,3.2v5.2h-1.4v-5c0-1.5-0.5-2.2-1.5-2.2c-0.6,0-1.3,0.4-2.1,1.2v5.9h-1.4v-5c0-1.5-0.5-2.2-1.5-2.2
						c-0.6,0-1.3,0.4-2.1,1.2v5.9h-1.4V129.9z"/>
					<path class="st2" d="M142.3,135.9c0-1.8,1.5-2.7,5-3c0-1-0.3-2.1-1.7-2.1c-0.9,0-1.8,0.4-2.4,0.9l-0.5-0.9
						c0.8-0.5,1.9-1.1,3.2-1.1c2,0,2.8,1.3,2.8,3.3v5h-1.1l-0.1-1h0c-0.8,0.6-1.7,1.2-2.7,1.2C143.3,138.2,142.3,137.4,142.3,135.9z
						 M147.3,136v-2.3c-2.7,0.3-3.7,1-3.7,2.1c0,0.9,0.6,1.3,1.4,1.3C145.9,137.1,146.5,136.7,147.3,136z"/>
					<path class="st2" d="M151.3,129.9h1.1l0.1,1.5h0c0.6-1,1.4-1.7,2.3-1.7c0.4,0,0.6,0,0.9,0.2l-0.3,1.2c-0.3-0.1-0.5-0.1-0.8-0.1
						c-0.7,0-1.5,0.5-2.1,1.9v5.2h-1.4V129.9z"/>
					<path class="st2" d="M157.1,126.1h1.4v8.1h0l3.5-4.3h1.5l-2.7,3.3l3.1,4.9h-1.5l-2.4-3.9l-1.5,1.8v2.1h-1.4V126.1z"/>
					<path class="st2" d="M164.4,133.9c0-2.6,1.8-4.3,3.7-4.3c2.1,0,3.2,1.5,3.2,3.8c0,0.3,0,0.6-0.1,0.8h-5.5
						c0.1,1.7,1.2,2.8,2.7,2.8c0.8,0,1.4-0.2,2-0.6l0.5,0.9c-0.7,0.5-1.6,0.8-2.7,0.8C166.2,138.2,164.4,136.6,164.4,133.9z
						 M170.2,133.3c0-1.7-0.8-2.5-2-2.5c-1.2,0-2.2,0.9-2.3,2.5H170.2z"/>
					<path class="st2" d="M173.4,135.5V131h-1.2v-1l1.3-0.1l0.2-2.3h1.1v2.3h2.2v1.1h-2.2v4.5c0,1,0.3,1.6,1.3,1.6
						c0.3,0,0.7-0.1,0.9-0.2l0.3,1c-0.5,0.2-1,0.3-1.5,0.3C174,138.2,173.4,137.1,173.4,135.5z"/>
					<path class="st2" d="M177.8,137.1l0.7-0.9c0.7,0.6,1.4,1,2.4,1c1.1,0,1.6-0.6,1.6-1.3c0-0.8-1-1.2-1.9-1.5
						c-1.1-0.4-2.4-1-2.4-2.4c0-1.3,1-2.3,2.8-2.3c1,0,1.9,0.4,2.5,0.9l-0.7,0.9c-0.6-0.4-1.1-0.7-1.9-0.7c-1,0-1.5,0.5-1.5,1.2
						c0,0.8,0.9,1.1,1.8,1.4c1.2,0.4,2.5,0.9,2.5,2.5c0,1.3-1,2.4-3,2.4C179.7,138.2,178.6,137.7,177.8,137.1z"/>
					<path class="st2" d="M185.1,140c0.9-0.4,1.5-1.1,1.5-2c-0.1,0-0.1,0-0.2,0c-0.5,0-1-0.3-1-1c0-0.6,0.5-1,1-1
						c0.7,0,1.2,0.6,1.2,1.6c0,1.4-0.8,2.6-2.2,3.1L185.1,140z"/>
					<path class="st2" d="M192.6,133.9c0-2.6,1.8-4.3,3.7-4.3c2.1,0,3.2,1.5,3.2,3.8c0,0.3,0,0.6-0.1,0.8H194
						c0.1,1.7,1.2,2.8,2.7,2.8c0.8,0,1.4-0.2,2-0.6l0.5,0.9c-0.7,0.5-1.6,0.8-2.7,0.8C194.4,138.2,192.6,136.6,192.6,133.9z
						 M198.3,133.3c0-1.7-0.7-2.5-2-2.5c-1.2,0-2.2,0.9-2.3,2.5H198.3z"/>
					<path class="st2" d="M200.6,137.1l0.7-0.9c0.7,0.6,1.4,1,2.4,1c1.1,0,1.6-0.6,1.6-1.3c0-0.8-1-1.2-1.9-1.5
						c-1.1-0.4-2.4-1-2.4-2.4c0-1.3,1-2.3,2.8-2.3c1,0,1.9,0.4,2.5,0.9l-0.7,0.9c-0.6-0.4-1.1-0.7-1.9-0.7c-1,0-1.5,0.5-1.5,1.2
						c0,0.8,0.9,1.1,1.8,1.4c1.2,0.4,2.5,0.9,2.5,2.5c0,1.3-1,2.4-3,2.4C202.5,138.2,201.4,137.7,200.6,137.1z"/>
					<path class="st2" d="M208.5,135.5V131h-1.2v-1l1.3-0.1l0.2-2.3h1.1v2.3h2.2v1.1h-2.2v4.5c0,1,0.3,1.6,1.3,1.6
						c0.3,0,0.7-0.1,0.9-0.2l0.3,1c-0.5,0.2-1,0.3-1.5,0.3C209.1,138.2,208.5,137.1,208.5,135.5z"/>
					<path class="st2" d="M213,135.9c0-1.8,1.5-2.7,5-3c0-1-0.3-2.1-1.7-2.1c-0.9,0-1.8,0.4-2.4,0.9l-0.5-0.9
						c0.8-0.5,1.9-1.1,3.2-1.1c2,0,2.8,1.3,2.8,3.3v5h-1.1l-0.1-1h0c-0.8,0.6-1.7,1.2-2.7,1.2C214,138.2,213,137.4,213,135.9z
						 M218,136v-2.3c-2.7,0.3-3.7,1-3.7,2.1c0,0.9,0.6,1.3,1.4,1.3C216.6,137.1,217.2,136.7,218,136z"/>
					<path class="st2" d="M223.3,137.2L223.3,137.2l-0.2,0.8H222v-11.9h1.4v3.3l0,1.5c0.7-0.6,1.6-1.2,2.5-1.2
						c2.1,0,3.3,1.6,3.3,4.1c0,2.8-1.7,4.4-3.5,4.4C224.8,138.2,224,137.8,223.3,137.2z M227.7,133.8c0-1.8-0.6-3-2.1-3
						c-0.7,0-1.4,0.4-2.2,1.1v4.3c0.7,0.6,1.5,0.9,2,0.9C226.7,137.1,227.7,135.8,227.7,133.8z"/>
					<path class="st2" d="M231.3,136.4v-10.3h1.4v10.4c0,0.4,0.2,0.6,0.4,0.6c0.1,0,0.1,0,0.3,0l0.2,1c-0.2,0.1-0.4,0.1-0.8,0.1
						C231.7,138.2,231.3,137.5,231.3,136.4z"/>
					<path class="st2" d="M235.3,127.3c0-0.6,0.4-0.9,0.9-0.9c0.5,0,0.9,0.3,0.9,0.9c0,0.5-0.4,0.9-0.9,0.9
						C235.7,128.2,235.3,127.8,235.3,127.3z M235.5,129.9h1.4v8.1h-1.4V129.9z"/>
					<path class="st2" d="M238.8,137.1l0.7-0.9c0.7,0.6,1.4,1,2.4,1c1.1,0,1.6-0.6,1.6-1.3c0-0.8-1-1.2-1.9-1.5
						c-1.1-0.4-2.4-1-2.4-2.4c0-1.3,1-2.3,2.8-2.3c1,0,1.9,0.4,2.5,0.9l-0.7,0.9c-0.6-0.4-1.1-0.7-1.9-0.7c-1,0-1.5,0.5-1.5,1.2
						c0,0.8,0.9,1.1,1.8,1.4c1.2,0.4,2.5,0.9,2.5,2.5c0,1.3-1,2.4-3,2.4C240.6,138.2,239.5,137.7,238.8,137.1z"/>
					<path class="st2" d="M246.7,126.1h1.4v3.3l0,1.7c0.8-0.8,1.6-1.4,2.7-1.4c1.7,0,2.5,1.1,2.5,3.2v5.2h-1.4v-5
						c0-1.5-0.5-2.2-1.5-2.2c-0.8,0-1.4,0.4-2.2,1.2v5.9h-1.4V126.1z"/>
				</g>
				<g class="st1">
					<path class="st2" d="M30.8,168.9c0-2.7,1.8-4.3,3.8-4.3c2,0,3.8,1.6,3.8,4.3c0,2.7-1.8,4.3-3.8,4.3
						C32.5,173.2,30.8,171.6,30.8,168.9z M36.9,168.9c0-1.9-1-3.2-2.4-3.2c-1.4,0-2.4,1.3-2.4,3.2s0.9,3.1,2.4,3.1
						C36,172.1,36.9,170.8,36.9,168.9z"/>
					<path class="st2" d="M40.5,164.9h1.1l0.1,1.5h0c0.6-1,1.4-1.7,2.3-1.7c0.4,0,0.6,0,0.9,0.2l-0.3,1.2c-0.3-0.1-0.5-0.1-0.8-0.1
						c-0.7,0-1.5,0.5-2.1,1.9v5.2h-1.4V164.9z"/>
					<path class="st2" d="M46,162.3c0-0.6,0.4-0.9,0.9-0.9s0.9,0.3,0.9,0.9c0,0.5-0.4,0.9-0.9,0.9S46,162.8,46,162.3z M46.3,164.9
						h1.4v8.1h-1.4V164.9z"/>
					<path class="st2" d="M49.8,174.6c0-0.7,0.4-1.3,1.2-1.8v-0.1c-0.4-0.3-0.8-0.7-0.8-1.3c0-0.7,0.5-1.2,0.9-1.5v-0.1
						c-0.5-0.4-1.1-1.2-1.1-2.2c0-1.8,1.4-2.9,3.1-2.9c0.4,0,0.9,0.1,1.1,0.2h2.8v1h-1.7c0.4,0.4,0.7,1,0.7,1.7c0,1.7-1.3,2.8-3,2.8
						c-0.4,0-0.9-0.1-1.2-0.3c-0.3,0.3-0.5,0.5-0.5,1c0,0.5,0.3,0.9,1.4,0.9h1.6c1.9,0,2.8,0.6,2.8,1.9c0,1.5-1.6,2.8-4.1,2.8
						C51.2,176.8,49.8,176,49.8,174.6z M55.9,174.1c0-0.8-0.6-1-1.7-1h-1.4c-0.3,0-0.7,0-1-0.1c-0.6,0.4-0.8,0.9-0.8,1.4
						c0,0.9,0.9,1.4,2.4,1.4C54.9,175.8,55.9,175,55.9,174.1z M54.9,167.6c0-1.2-0.8-1.9-1.7-1.9s-1.7,0.7-1.7,1.9
						c0,1.2,0.8,1.9,1.7,1.9C54.1,169.5,54.9,168.7,54.9,167.6z"/>
					<path class="st2" d="M58.6,162.3c0-0.6,0.4-0.9,0.9-0.9s0.9,0.3,0.9,0.9c0,0.5-0.4,0.9-0.9,0.9S58.6,162.8,58.6,162.3z
						 M58.9,164.9h1.4v8.1h-1.4V164.9z"/>
					<path class="st2" d="M63,164.9h1.1l0.1,1.2h0c0.8-0.8,1.6-1.4,2.7-1.4c1.7,0,2.5,1.1,2.5,3.2v5.2h-1.4v-5
						c0-1.5-0.5-2.2-1.5-2.2c-0.8,0-1.4,0.4-2.2,1.2v5.9H63V164.9z"/>
					<path class="st2" d="M71.6,170.9c0-1.8,1.5-2.7,5-3c0-1-0.3-2.1-1.7-2.1c-0.9,0-1.8,0.4-2.4,0.9l-0.5-0.9
						c0.8-0.5,1.9-1.1,3.2-1.1c2,0,2.8,1.3,2.8,3.3v5h-1.1l-0.1-1h0c-0.8,0.6-1.7,1.2-2.7,1.2C72.7,173.2,71.6,172.4,71.6,170.9z
						 M76.6,171v-2.3c-2.7,0.3-3.7,1-3.7,2.1c0,0.9,0.6,1.3,1.4,1.3C75.2,172.1,75.9,171.7,76.6,171z"/>
					<path class="st2" d="M80.6,171.4v-10.3H82v10.4c0,0.4,0.2,0.6,0.4,0.6c0.1,0,0.1,0,0.3,0l0.2,1c-0.2,0.1-0.4,0.1-0.8,0.1
						C81,173.2,80.6,172.5,80.6,171.4z"/>
					<path class="st2" d="M87.6,168.9c0-2.7,1.8-4.3,3.8-4.3c2,0,3.8,1.6,3.8,4.3c0,2.7-1.8,4.3-3.8,4.3
						C89.4,173.2,87.6,171.6,87.6,168.9z M93.8,168.9c0-1.9-1-3.2-2.4-3.2c-1.4,0-2.4,1.3-2.4,3.2s0.9,3.1,2.4,3.1
						C92.8,172.1,93.8,170.8,93.8,168.9z"/>
					<path class="st2" d="M97.3,164.9h1.1l0.1,1.5h0c0.6-1,1.4-1.7,2.3-1.7c0.4,0,0.6,0,0.9,0.2l-0.3,1.2c-0.3-0.1-0.5-0.1-0.8-0.1
						c-0.7,0-1.5,0.5-2.1,1.9v5.2h-1.4V164.9z"/>
					<path class="st2" d="M106.5,164.9h1.1l0.1,0.9h0c0.7-0.6,1.6-1.1,2.6-1.1c2.1,0,3.2,1.6,3.2,4.2c0,2.8-1.7,4.4-3.5,4.4
						c-0.7,0-1.5-0.3-2.2-0.9l0,1.4v2.8h-1.4V164.9z M112.2,168.8c0-1.8-0.6-3-2.1-3c-0.7,0-1.4,0.4-2.2,1.1v4.3
						c0.7,0.6,1.5,0.9,2,0.9C111.2,172.1,112.2,170.8,112.2,168.8z"/>
					<path class="st2" d="M115.1,170.9c0-1.8,1.5-2.7,5-3c0-1-0.3-2.1-1.7-2.1c-0.9,0-1.8,0.4-2.4,0.9l-0.5-0.9
						c0.8-0.5,1.9-1.1,3.2-1.1c2,0,2.8,1.3,2.8,3.3v5h-1.1l-0.1-1h0c-0.8,0.6-1.7,1.2-2.7,1.2C116.1,173.2,115.1,172.4,115.1,170.9z
						 M120.1,171v-2.3c-2.7,0.3-3.7,1-3.7,2.1c0,0.9,0.6,1.3,1.4,1.3C118.6,172.1,119.3,171.7,120.1,171z"/>
					<path class="st2" d="M124,170.5V166h-1.2v-1l1.3-0.1l0.2-2.3h1.1v2.3h2.2v1.1h-2.2v4.5c0,1,0.3,1.6,1.3,1.6
						c0.3,0,0.7-0.1,0.9-0.2l0.3,1c-0.5,0.2-1,0.3-1.5,0.3C124.6,173.2,124,172.1,124,170.5z"/>
					<path class="st2" d="M129.5,161.1h1.4v3.3l0,1.7c0.8-0.8,1.6-1.4,2.7-1.4c1.7,0,2.5,1.1,2.5,3.2v5.2h-1.4v-5
						c0-1.5-0.5-2.2-1.5-2.2c-0.8,0-1.4,0.4-2.2,1.2v5.9h-1.4V161.1z"/>
					<path class="st2" d="M137.9,168.3h3.8v1h-3.8V168.3z"/>
					<path class="st2" d="M145,172.2L145,172.2l-0.2,0.8h-1.1v-11.9h1.4v3.3l0,1.5c0.7-0.6,1.6-1.2,2.6-1.2c2.1,0,3.3,1.6,3.3,4.1
						c0,2.8-1.7,4.4-3.5,4.4C146.6,173.2,145.8,172.8,145,172.2z M149.5,168.8c0-1.8-0.6-3-2.1-3c-0.7,0-1.4,0.4-2.2,1.1v4.3
						c0.7,0.6,1.5,0.9,2,0.9C148.5,172.1,149.5,170.8,149.5,168.8z"/>
					<path class="st2" d="M153,164.9h1.1l0.1,1.5h0c0.6-1,1.4-1.7,2.3-1.7c0.4,0,0.6,0,0.9,0.2l-0.3,1.2c-0.3-0.1-0.5-0.1-0.8-0.1
						c-0.7,0-1.5,0.5-2.1,1.9v5.2H153V164.9z"/>
					<path class="st2" d="M158.1,168.9c0-2.6,1.8-4.3,3.7-4.3c2.1,0,3.2,1.5,3.2,3.8c0,0.3,0,0.6-0.1,0.8h-5.5
						c0.1,1.7,1.2,2.8,2.7,2.8c0.8,0,1.4-0.2,2-0.6l0.5,0.9c-0.7,0.5-1.6,0.8-2.7,0.8C159.8,173.2,158.1,171.6,158.1,168.9z
						 M163.8,168.3c0-1.7-0.8-2.5-2-2.5c-1.2,0-2.2,0.9-2.3,2.5H163.8z"/>
					<path class="st2" d="M166.3,170.9c0-1.8,1.5-2.7,5-3c0-1-0.3-2.1-1.7-2.1c-0.9,0-1.8,0.4-2.4,0.9l-0.5-0.9
						c0.8-0.5,1.9-1.1,3.2-1.1c2,0,2.8,1.3,2.8,3.3v5h-1.1l-0.1-1h0c-0.8,0.6-1.7,1.2-2.7,1.2C167.3,173.2,166.3,172.4,166.3,170.9z
						 M171.3,171v-2.3c-2.7,0.3-3.7,1-3.7,2.1c0,0.9,0.6,1.3,1.4,1.3C169.8,172.1,170.5,171.7,171.3,171z"/>
					<path class="st2" d="M175.2,161.1h1.4v8.1h0l3.5-4.3h1.5l-2.7,3.3l3.1,4.9h-1.5l-2.4-3.9l-1.5,1.8v2.1h-1.4V161.1z"/>
					<path class="st2" d="M183.3,162.3c0-0.6,0.4-0.9,0.9-0.9c0.5,0,0.9,0.3,0.9,0.9c0,0.5-0.4,0.9-0.9,0.9
						C183.7,163.2,183.3,162.8,183.3,162.3z M183.5,164.9h1.4v8.1h-1.4V164.9z"/>
					<path class="st2" d="M187.6,164.9h1.1l0.1,1.2h0c0.8-0.8,1.6-1.4,2.7-1.4c1.7,0,2.5,1.1,2.5,3.2v5.2h-1.4v-5
						c0-1.5-0.5-2.2-1.5-2.2c-0.8,0-1.4,0.4-2.2,1.2v5.9h-1.4V164.9z"/>
					<path class="st2" d="M196.2,174.6c0-0.7,0.4-1.3,1.2-1.8v-0.1c-0.4-0.3-0.8-0.7-0.8-1.3c0-0.7,0.5-1.2,0.9-1.5v-0.1
						c-0.5-0.4-1.1-1.2-1.1-2.2c0-1.8,1.4-2.9,3.1-2.9c0.4,0,0.9,0.1,1.1,0.2h2.8v1h-1.7c0.4,0.4,0.7,1,0.7,1.7c0,1.7-1.3,2.8-3,2.8
						c-0.4,0-0.9-0.1-1.2-0.3c-0.3,0.3-0.5,0.5-0.5,1c0,0.5,0.3,0.9,1.4,0.9h1.6c1.9,0,2.8,0.6,2.8,1.9c0,1.5-1.6,2.8-4.1,2.8
						C197.5,176.8,196.2,176,196.2,174.6z M202.3,174.1c0-0.8-0.6-1-1.7-1h-1.4c-0.3,0-0.7,0-1.1-0.1c-0.6,0.4-0.8,0.9-0.8,1.4
						c0,0.9,0.9,1.4,2.4,1.4C201.3,175.8,202.3,175,202.3,174.1z M201.3,167.6c0-1.2-0.8-1.9-1.7-1.9c-1,0-1.7,0.7-1.7,1.9
						c0,1.2,0.8,1.9,1.7,1.9C200.5,169.5,201.3,168.7,201.3,167.6z"/>
					<path class="st2" d="M208.8,170.5V166h-1.2v-1l1.3-0.1l0.2-2.3h1.1v2.3h2.2v1.1h-2.2v4.5c0,1,0.3,1.6,1.3,1.6
						c0.3,0,0.7-0.1,0.9-0.2l0.3,1c-0.5,0.2-1,0.3-1.5,0.3C209.4,173.2,208.8,172.1,208.8,170.5z"/>
					<path class="st2" d="M213.4,168.9c0-2.6,1.8-4.3,3.7-4.3c2.1,0,3.2,1.5,3.2,3.8c0,0.3,0,0.6-0.1,0.8h-5.5
						c0.1,1.7,1.2,2.8,2.7,2.8c0.8,0,1.4-0.2,2-0.6l0.5,0.9c-0.7,0.5-1.6,0.8-2.7,0.8C215.2,173.2,213.4,171.6,213.4,168.9z
						 M219.1,168.3c0-1.7-0.7-2.5-2-2.5c-1.2,0-2.2,0.9-2.3,2.5H219.1z"/>
					<path class="st2" d="M221.7,168.9c0-2.7,1.8-4.3,3.9-4.3c1.1,0,1.8,0.5,2.4,1l-0.7,0.9c-0.5-0.4-1-0.7-1.6-0.7
						c-1.5,0-2.5,1.3-2.5,3.2s1,3.1,2.5,3.1c0.8,0,1.4-0.3,1.9-0.8l0.6,0.9c-0.7,0.7-1.6,1-2.6,1
						C223.4,173.2,221.7,171.6,221.7,168.9z"/>
					<path class="st2" d="M230,161.1h1.4v3.3l0,1.7c0.8-0.8,1.6-1.4,2.7-1.4c1.7,0,2.5,1.1,2.5,3.2v5.2h-1.4v-5
						c0-1.5-0.5-2.2-1.5-2.2c-0.8,0-1.4,0.4-2.2,1.2v5.9H230V161.1z"/>
					<path class="st2" d="M239.1,164.9h1.1l0.1,1.2h0c0.8-0.8,1.6-1.4,2.7-1.4c1.7,0,2.5,1.1,2.5,3.2v5.2h-1.4v-5
						c0-1.5-0.5-2.2-1.5-2.2c-0.8,0-1.4,0.4-2.2,1.2v5.9h-1.4V164.9z"/>
					<path class="st2" d="M247.6,168.9c0-2.7,1.8-4.3,3.8-4.3c2,0,3.8,1.6,3.8,4.3c0,2.7-1.8,4.3-3.8,4.3
						C249.4,173.2,247.6,171.6,247.6,168.9z M253.8,168.9c0-1.9-1-3.2-2.4-3.2c-1.4,0-2.4,1.3-2.4,3.2s0.9,3.1,2.4,3.1
						C252.8,172.1,253.8,170.8,253.8,168.9z"/>
					<path class="st2" d="M257.3,171.4v-10.3h1.4v10.4c0,0.4,0.2,0.6,0.4,0.6c0.1,0,0.1,0,0.3,0l0.2,1c-0.2,0.1-0.4,0.1-0.8,0.1
						C257.8,173.2,257.3,172.5,257.3,171.4z"/>
					<path class="st2" d="M261,168.9c0-2.7,1.8-4.3,3.8-4.3s3.8,1.6,3.8,4.3c0,2.7-1.8,4.3-3.8,4.3S261,171.6,261,168.9z
						 M267.1,168.9c0-1.9-1-3.2-2.4-3.2c-1.4,0-2.4,1.3-2.4,3.2s0.9,3.1,2.4,3.1C266.2,172.1,267.1,170.8,267.1,168.9z"/>
					<path class="st2" d="M270.1,174.6c0-0.7,0.5-1.3,1.2-1.8v-0.1c-0.4-0.3-0.8-0.7-0.8-1.3c0-0.7,0.5-1.2,0.9-1.5v-0.1
						c-0.5-0.4-1.1-1.2-1.1-2.2c0-1.8,1.4-2.9,3.1-2.9c0.5,0,0.9,0.1,1.1,0.2h2.8v1h-1.7c0.4,0.4,0.7,1,0.7,1.7c0,1.7-1.3,2.8-3,2.8
						c-0.4,0-0.9-0.1-1.2-0.3c-0.3,0.3-0.5,0.5-0.5,1c0,0.5,0.3,0.9,1.4,0.9h1.6c1.9,0,2.8,0.6,2.8,1.9c0,1.5-1.6,2.8-4.1,2.8
						C271.5,176.8,270.1,176,270.1,174.6z M276.2,174.1c0-0.8-0.6-1-1.7-1h-1.4c-0.3,0-0.7,0-1-0.1c-0.6,0.4-0.8,0.9-0.8,1.4
						c0,0.9,0.9,1.4,2.4,1.4C275.2,175.8,276.2,175,276.2,174.1z M275.2,167.6c0-1.2-0.8-1.9-1.7-1.9s-1.7,0.7-1.7,1.9
						c0,1.2,0.8,1.9,1.7,1.9C274.4,169.5,275.2,168.7,275.2,167.6z"/>
					<path class="st2" d="M278.9,162.3c0-0.6,0.4-0.9,0.9-0.9s0.9,0.3,0.9,0.9c0,0.5-0.4,0.9-0.9,0.9S278.9,162.8,278.9,162.3z
						 M279.1,164.9h1.4v8.1h-1.4V164.9z"/>
					<path class="st2" d="M282.7,168.9c0-2.6,1.8-4.3,3.7-4.3c2.1,0,3.2,1.5,3.2,3.8c0,0.3,0,0.6-0.1,0.8H284
						c0.1,1.7,1.2,2.8,2.7,2.8c0.8,0,1.4-0.2,2-0.6l0.5,0.9c-0.7,0.5-1.6,0.8-2.7,0.8C284.4,173.2,282.7,171.6,282.7,168.9z
						 M288.4,168.3c0-1.7-0.7-2.5-2-2.5c-1.2,0-2.2,0.9-2.3,2.5H288.4z"/>
					<path class="st2" d="M290.7,172.1l0.7-0.9c0.7,0.6,1.4,1,2.4,1c1.1,0,1.6-0.6,1.6-1.3c0-0.8-1-1.2-1.9-1.5
						c-1.1-0.4-2.4-1-2.4-2.4c0-1.3,1-2.3,2.8-2.3c1,0,1.9,0.4,2.5,0.9l-0.7,0.9c-0.6-0.4-1.1-0.7-1.9-0.7c-1,0-1.5,0.5-1.5,1.2
						c0,0.8,0.9,1.1,1.8,1.4c1.2,0.4,2.5,0.9,2.5,2.5c0,1.3-1,2.4-3,2.4C292.6,173.2,291.4,172.7,290.7,172.1z"/>
				</g>
				<g class="st1">
					<path class="st2" d="M30.4,199.9h1.4l1.2,4.7c0.2,0.8,0.3,1.5,0.5,2.3h0.1c0.2-0.8,0.3-1.5,0.6-2.3l1.3-4.7h1.3l1.3,4.7
						c0.2,0.8,0.4,1.5,0.6,2.3h0.1c0.2-0.8,0.3-1.5,0.5-2.3l1.2-4.7h1.3l-2.2,8.1h-1.6l-1.2-4.4c-0.2-0.8-0.4-1.5-0.6-2.3H36
						c-0.2,0.8-0.3,1.6-0.6,2.4l-1.1,4.4h-1.6L30.4,199.9z"/>
					<path class="st2" d="M43.2,197.3c0-0.6,0.4-0.9,0.9-0.9s0.9,0.3,0.9,0.9c0,0.5-0.4,0.9-0.9,0.9S43.2,197.8,43.2,197.3z
						 M43.4,199.9h1.4v8.1h-1.4V199.9z"/>
					<path class="st2" d="M47.8,205.5V201h-1.2v-1l1.3-0.1l0.2-2.3h1.1v2.3h2.2v1.1h-2.2v4.5c0,1,0.3,1.6,1.3,1.6
						c0.3,0,0.7-0.1,0.9-0.2l0.3,1c-0.5,0.2-1,0.3-1.5,0.3C48.4,208.2,47.8,207.1,47.8,205.5z"/>
					<path class="st2" d="M53.2,196.1h1.4v3.3l0,1.7c0.8-0.8,1.6-1.4,2.7-1.4c1.7,0,2.5,1.1,2.5,3.2v5.2h-1.4v-5
						c0-1.5-0.5-2.2-1.5-2.2c-0.8,0-1.4,0.4-2.2,1.2v5.9h-1.4V196.1z"/>
					<path class="st2" d="M65,209.6c0-0.7,0.5-1.3,1.2-1.8v-0.1c-0.4-0.3-0.8-0.7-0.8-1.3c0-0.7,0.5-1.2,0.9-1.5v-0.1
						c-0.5-0.4-1.1-1.2-1.1-2.2c0-1.8,1.4-2.9,3.1-2.9c0.4,0,0.9,0.1,1.1,0.2h2.8v1h-1.7c0.4,0.4,0.7,1,0.7,1.7c0,1.7-1.3,2.8-3,2.8
						c-0.4,0-0.9-0.1-1.2-0.3c-0.3,0.3-0.5,0.5-0.5,1c0,0.5,0.3,0.9,1.4,0.9h1.6c1.9,0,2.8,0.6,2.8,1.9c0,1.5-1.6,2.8-4.1,2.8
						C66.4,211.8,65,211,65,209.6z M71.2,209.1c0-0.8-0.6-1-1.7-1h-1.4c-0.3,0-0.7,0-1-0.1c-0.6,0.4-0.8,0.9-0.8,1.4
						c0,0.9,0.9,1.4,2.4,1.4C70.2,210.8,71.2,210,71.2,209.1z M70.1,202.6c0-1.2-0.8-1.9-1.7-1.9s-1.7,0.7-1.7,1.9
						c0,1.2,0.8,1.9,1.7,1.9C69.3,204.5,70.1,203.7,70.1,202.6z"/>
					<path class="st2" d="M74.1,206.4v-10.3h1.4v10.4c0,0.4,0.2,0.6,0.4,0.6c0.1,0,0.1,0,0.3,0l0.2,1c-0.2,0.1-0.4,0.1-0.8,0.1
						C74.5,208.2,74.1,207.5,74.1,206.4z"/>
					<path class="st2" d="M77.8,203.9c0-2.7,1.8-4.3,3.8-4.3c2,0,3.8,1.6,3.8,4.3c0,2.7-1.8,4.3-3.8,4.3
						C79.5,208.2,77.8,206.6,77.8,203.9z M83.9,203.9c0-1.9-1-3.2-2.4-3.2c-1.4,0-2.4,1.3-2.4,3.2s0.9,3.1,2.4,3.1
						C82.9,207.1,83.9,205.8,83.9,203.9z"/>
					<path class="st2" d="M88.7,207.2L88.7,207.2l-0.2,0.8h-1.1v-11.9h1.4v3.3l0,1.5c0.7-0.6,1.6-1.2,2.6-1.2c2.1,0,3.3,1.6,3.3,4.1
						c0,2.8-1.7,4.4-3.5,4.4C90.3,208.2,89.4,207.8,88.7,207.2z M93.2,203.8c0-1.8-0.6-3-2.1-3c-0.7,0-1.4,0.4-2.2,1.1v4.3
						c0.7,0.6,1.5,0.9,2,0.9C92.2,207.1,93.2,205.8,93.2,203.8z"/>
					<path class="st2" d="M96,205.9c0-1.8,1.5-2.7,5-3c0-1-0.3-2.1-1.7-2.1c-0.9,0-1.8,0.4-2.4,0.9l-0.5-0.9
						c0.8-0.5,1.9-1.1,3.2-1.1c2,0,2.8,1.3,2.8,3.3v5h-1.1l-0.1-1h0c-0.8,0.6-1.7,1.2-2.7,1.2C97,208.2,96,207.4,96,205.9z M101,206
						v-2.3c-2.7,0.3-3.7,1-3.7,2.1c0,0.9,0.6,1.3,1.4,1.3C99.6,207.1,100.2,206.7,101,206z"/>
					<path class="st2" d="M105,206.4v-10.3h1.4v10.4c0,0.4,0.2,0.6,0.4,0.6c0.1,0,0.1,0,0.3,0l0.2,1c-0.2,0.1-0.4,0.1-0.8,0.1
						C105.4,208.2,105,207.5,105,206.4z"/>
					<path class="st2" d="M112,203.9c0-2.7,1.8-4.3,3.9-4.3c1.1,0,1.8,0.5,2.4,1l-0.7,0.9c-0.5-0.4-1-0.7-1.6-0.7
						c-1.5,0-2.5,1.3-2.5,3.2s1,3.1,2.5,3.1c0.8,0,1.4-0.3,1.9-0.8l0.6,0.9c-0.7,0.7-1.6,1-2.6,1C113.6,208.2,112,206.6,112,203.9z"
						/>
					<path class="st2" d="M119.2,203.9c0-2.7,1.8-4.3,3.8-4.3c2,0,3.8,1.6,3.8,4.3c0,2.7-1.8,4.3-3.8,4.3
						C121,208.2,119.2,206.6,119.2,203.9z M125.4,203.9c0-1.9-1-3.2-2.4-3.2c-1.4,0-2.4,1.3-2.4,3.2s0.9,3.1,2.4,3.1
						C124.4,207.1,125.4,205.8,125.4,203.9z"/>
					<path class="st2" d="M129,199.9h1.1l0.1,1.2h0c0.7-0.8,1.6-1.4,2.5-1.4c1.2,0,1.9,0.6,2.2,1.6c0.8-0.9,1.7-1.6,2.7-1.6
						c1.7,0,2.5,1.1,2.5,3.2v5.2h-1.4v-5c0-1.5-0.5-2.2-1.5-2.2c-0.6,0-1.3,0.4-2.1,1.2v5.9h-1.4v-5c0-1.5-0.5-2.2-1.5-2.2
						c-0.6,0-1.3,0.4-2.1,1.2v5.9H129V199.9z"/>
					<path class="st2" d="M142.8,199.9h1.1l0.1,0.9h0c0.7-0.6,1.6-1.1,2.6-1.1c2.1,0,3.2,1.6,3.2,4.2c0,2.8-1.7,4.4-3.5,4.4
						c-0.7,0-1.5-0.3-2.2-0.9l0,1.4v2.8h-1.4V199.9z M148.5,203.8c0-1.8-0.6-3-2.1-3c-0.7,0-1.4,0.4-2.2,1.1v4.3
						c0.7,0.6,1.5,0.9,2,0.9C147.6,207.1,148.5,205.8,148.5,203.8z"/>
					<path class="st2" d="M151.5,203.9c0-2.6,1.8-4.3,3.7-4.3c2.1,0,3.2,1.5,3.2,3.8c0,0.3,0,0.6-0.1,0.8h-5.5
						c0.1,1.7,1.2,2.8,2.7,2.8c0.8,0,1.4-0.2,2-0.6l0.5,0.9c-0.7,0.5-1.6,0.8-2.7,0.8C153.3,208.2,151.5,206.6,151.5,203.9z
						 M157.2,203.3c0-1.7-0.7-2.5-2-2.5c-1.2,0-2.2,0.9-2.3,2.5H157.2z"/>
					<path class="st2" d="M160.5,205.5V201h-1.2v-1l1.3-0.1l0.2-2.3h1.1v2.3h2.2v1.1h-2.2v4.5c0,1,0.3,1.6,1.3,1.6
						c0.3,0,0.7-0.1,0.9-0.2l0.3,1c-0.5,0.2-1,0.3-1.5,0.3C161.1,208.2,160.5,207.1,160.5,205.5z"/>
					<path class="st2" d="M165.7,197.3c0-0.6,0.4-0.9,0.9-0.9s0.9,0.3,0.9,0.9c0,0.5-0.4,0.9-0.9,0.9S165.7,197.8,165.7,197.3z
						 M165.9,199.9h1.4v8.1h-1.4V199.9z"/>
					<path class="st2" d="M170.3,205.5V201h-1.2v-1l1.3-0.1l0.2-2.3h1.1v2.3h2.2v1.1h-2.2v4.5c0,1,0.3,1.6,1.3,1.6
						c0.3,0,0.7-0.1,0.9-0.2l0.3,1c-0.5,0.2-1,0.3-1.5,0.3C170.9,208.2,170.3,207.1,170.3,205.5z"/>
					<path class="st2" d="M175.5,197.3c0-0.6,0.4-0.9,0.9-0.9s0.9,0.3,0.9,0.9c0,0.5-0.4,0.9-0.9,0.9S175.5,197.8,175.5,197.3z
						 M175.7,199.9h1.4v8.1h-1.4V199.9z"/>
					<path class="st2" d="M178.7,199.9h1.4l1.5,4.6c0.3,0.8,0.5,1.6,0.8,2.4h0.1c0.2-0.8,0.5-1.6,0.8-2.4l1.5-4.6h1.3l-2.9,8.1h-1.6
						L178.7,199.9z"/>
					<path class="st2" d="M187,203.9c0-2.6,1.8-4.3,3.7-4.3c2.1,0,3.2,1.5,3.2,3.8c0,0.3,0,0.6-0.1,0.8h-5.5
						c0.1,1.7,1.2,2.8,2.7,2.8c0.8,0,1.4-0.2,2-0.6l0.5,0.9c-0.7,0.5-1.6,0.8-2.7,0.8C188.7,208.2,187,206.6,187,203.9z
						 M192.7,203.3c0-1.7-0.8-2.5-2-2.5c-1.2,0-2.2,0.9-2.3,2.5H192.7z"/>
					<path class="st2" d="M195.9,199.9h1.1l0.1,1.2h0c0.8-0.8,1.6-1.4,2.7-1.4c1.7,0,2.5,1.1,2.5,3.2v5.2h-1.4v-5
						c0-1.5-0.5-2.2-1.5-2.2c-0.8,0-1.4,0.4-2.2,1.2v5.9h-1.4V199.9z"/>
					<path class="st2" d="M204.5,203.9c0-2.6,1.8-4.3,3.7-4.3c2.1,0,3.2,1.5,3.2,3.8c0,0.3,0,0.6-0.1,0.8h-5.5
						c0.1,1.7,1.2,2.8,2.7,2.8c0.8,0,1.4-0.2,2-0.6l0.5,0.9c-0.7,0.5-1.6,0.8-2.7,0.8C206.2,208.2,204.5,206.6,204.5,203.9z
						 M210.2,203.3c0-1.7-0.8-2.5-2-2.5c-1.2,0-2.2,0.9-2.3,2.5H210.2z"/>
					<path class="st2" d="M212.5,207.1l0.7-0.9c0.7,0.6,1.4,1,2.4,1c1.1,0,1.6-0.6,1.6-1.3c0-0.8-1-1.2-1.9-1.5
						c-1.1-0.4-2.4-1-2.4-2.4c0-1.3,1-2.3,2.8-2.3c1,0,1.9,0.4,2.5,0.9l-0.7,0.9c-0.6-0.4-1.1-0.7-1.9-0.7c-1,0-1.5,0.5-1.5,1.2
						c0,0.8,0.9,1.1,1.8,1.4c1.2,0.4,2.5,0.9,2.5,2.5c0,1.3-1,2.4-3,2.4C214.4,208.2,213.3,207.7,212.5,207.1z"/>
					<path class="st2" d="M219.5,207.1l0.7-0.9c0.7,0.6,1.4,1,2.4,1c1.1,0,1.6-0.6,1.6-1.3c0-0.8-1-1.2-1.9-1.5
						c-1.1-0.4-2.4-1-2.4-2.4c0-1.3,1-2.3,2.8-2.3c1,0,1.9,0.4,2.5,0.9l-0.7,0.9c-0.6-0.4-1.1-0.7-1.9-0.7c-1,0-1.5,0.5-1.5,1.2
						c0,0.8,0.9,1.1,1.8,1.4c1.2,0.4,2.5,0.9,2.5,2.5c0,1.3-1,2.4-3,2.4C221.4,208.2,220.3,207.7,219.5,207.1z"/>
				</g>
				<text transform="matrix(1 0 0 1 226.0474 208)" class="st2 st5 st4"> </text>
				<g class="st1">
					<path class="st2" d="M30.7,273.3h3.8v1h-3.8V273.3z"/>
					<path class="st2" d="M40,273.5V267h1.4v6.5c0,2.7,1.1,3.5,2.5,3.5c1.5,0,2.6-0.8,2.6-3.5V267h1.3v6.4c0,3.5-1.7,4.7-4,4.7
						C41.7,278.2,40,277,40,273.5z"/>
					<path class="st2" d="M51,275.5V271h-1.2v-1l1.3-0.1l0.2-2.3h1.1v2.3h2.2v1.1h-2.2v4.5c0,1,0.3,1.6,1.3,1.6
						c0.3,0,0.7-0.1,0.9-0.2l0.3,1c-0.5,0.2-1,0.3-1.5,0.3C51.6,278.2,51,277.1,51,275.5z"/>
					<path class="st2" d="M56.2,267.3c0-0.6,0.4-0.9,0.9-0.9s0.9,0.3,0.9,0.9c0,0.5-0.4,0.9-0.9,0.9S56.2,267.8,56.2,267.3z
						 M56.4,269.9h1.4v8.1h-1.4V269.9z"/>
					<path class="st2" d="M60.5,276.4v-10.3h1.4v10.4c0,0.4,0.2,0.6,0.4,0.6c0.1,0,0.1,0,0.3,0l0.2,1c-0.2,0.1-0.4,0.1-0.8,0.1
						C61,278.2,60.5,277.5,60.5,276.4z"/>
					<path class="st2" d="M64.6,267.3c0-0.6,0.4-0.9,0.9-0.9s0.9,0.3,0.9,0.9c0,0.5-0.4,0.9-0.9,0.9S64.6,267.8,64.6,267.3z
						 M64.8,269.9h1.4v8.1h-1.4V269.9z"/>
					<path class="st2" d="M68.1,277.3l4.3-6.3h-3.8v-1.1h5.5v0.7l-4.3,6.3h4.4v1.1h-6.2V277.3z"/>
					<path class="st2" d="M75.3,273.9c0-2.6,1.8-4.3,3.7-4.3c2.1,0,3.2,1.5,3.2,3.8c0,0.3,0,0.6-0.1,0.8h-5.5
						c0.1,1.7,1.2,2.8,2.7,2.8c0.8,0,1.4-0.2,2-0.6l0.5,0.9c-0.7,0.5-1.6,0.8-2.7,0.8C77,278.2,75.3,276.6,75.3,273.9z M81,273.3
						c0-1.7-0.8-2.5-2-2.5c-1.2,0-2.2,0.9-2.3,2.5H81z"/>
					<path class="st2" d="M88.8,277.2L88.8,277.2l-0.2,0.8h-1.1v-11.9h1.4v3.3l0,1.5c0.7-0.6,1.6-1.2,2.6-1.2c2.1,0,3.3,1.6,3.3,4.1
						c0,2.8-1.7,4.4-3.5,4.4C90.4,278.2,89.5,277.8,88.8,277.2z M93.3,273.8c0-1.8-0.6-3-2.1-3c-0.7,0-1.4,0.4-2.2,1.1v4.3
						c0.7,0.6,1.5,0.9,2,0.9C92.3,277.1,93.3,275.8,93.3,273.8z"/>
					<path class="st2" d="M96.6,267.3c0-0.6,0.4-0.9,0.9-0.9s0.9,0.3,0.9,0.9c0,0.5-0.4,0.9-0.9,0.9S96.6,267.8,96.6,267.3z
						 M96.8,269.9h1.4v8.1h-1.4V269.9z"/>
					<path class="st2" d="M100.3,279.6c0-0.7,0.5-1.3,1.2-1.8v-0.1c-0.4-0.3-0.8-0.7-0.8-1.3c0-0.7,0.5-1.2,0.9-1.5v-0.1
						c-0.5-0.4-1.1-1.2-1.1-2.2c0-1.8,1.4-2.9,3.1-2.9c0.4,0,0.9,0.1,1.1,0.2h2.8v1H106c0.4,0.4,0.7,1,0.7,1.7c0,1.7-1.3,2.8-3,2.8
						c-0.4,0-0.9-0.1-1.2-0.3c-0.3,0.3-0.5,0.5-0.5,1c0,0.5,0.3,0.9,1.4,0.9h1.6c1.9,0,2.8,0.6,2.8,1.9c0,1.5-1.6,2.8-4.1,2.8
						C101.7,281.8,100.3,281,100.3,279.6z M106.5,279.1c0-0.8-0.6-1-1.7-1h-1.4c-0.3,0-0.7,0-1-0.1c-0.6,0.4-0.8,0.9-0.8,1.4
						c0,0.9,0.9,1.4,2.4,1.4C105.4,280.8,106.5,280,106.5,279.1z M105.4,272.6c0-1.2-0.8-1.9-1.7-1.9s-1.7,0.7-1.7,1.9
						c0,1.2,0.8,1.9,1.7,1.9C104.6,274.5,105.4,273.7,105.4,272.6z"/>
					<path class="st2" d="M112.2,273.9c0-2.6,1.7-4.3,3.5-4.3c1,0,1.6,0.4,2.3,1l-0.1-1.4v-3.1h1.4V278h-1.1l-0.1-1h0
						c-0.6,0.6-1.5,1.2-2.5,1.2C113.5,278.2,112.2,276.7,112.2,273.9z M117.9,275.9v-4.3c-0.7-0.6-1.3-0.9-2-0.9
						c-1.3,0-2.4,1.3-2.4,3.1c0,2,0.8,3.1,2.2,3.1C116.6,277.1,117.2,276.7,117.9,275.9z"/>
					<path class="st2" d="M121.5,275.9c0-1.8,1.5-2.7,5-3c0-1-0.3-2.1-1.7-2.1c-0.9,0-1.8,0.4-2.4,0.9l-0.5-0.9
						c0.8-0.5,1.9-1.1,3.2-1.1c2,0,2.8,1.3,2.8,3.3v5h-1.1l-0.1-1h0c-0.8,0.6-1.7,1.2-2.7,1.2C122.6,278.2,121.5,277.4,121.5,275.9z
						 M126.6,276v-2.3c-2.7,0.3-3.7,1-3.7,2.1c0,0.9,0.6,1.3,1.4,1.3C125.1,277.1,125.8,276.7,126.6,276z"/>
					<path class="st2" d="M130.5,275.5V271h-1.2v-1l1.3-0.1l0.2-2.3h1.1v2.3h2.2v1.1h-2.2v4.5c0,1,0.3,1.6,1.3,1.6
						c0.3,0,0.7-0.1,0.9-0.2l0.3,1c-0.5,0.2-1,0.3-1.5,0.3C131.1,278.2,130.5,277.1,130.5,275.5z"/>
					<path class="st2" d="M135.1,275.9c0-1.8,1.5-2.7,5-3c0-1-0.3-2.1-1.7-2.1c-0.9,0-1.8,0.4-2.4,0.9l-0.5-0.9
						c0.8-0.5,1.9-1.1,3.2-1.1c2,0,2.8,1.3,2.8,3.3v5h-1.1l-0.1-1h0c-0.8,0.6-1.7,1.2-2.7,1.2C136.1,278.2,135.1,277.4,135.1,275.9z
						 M140.1,276v-2.3c-2.7,0.3-3.7,1-3.7,2.1c0,0.9,0.6,1.3,1.4,1.3C138.6,277.1,139.3,276.7,140.1,276z"/>
					<path class="st2" d="M147.6,275.5V271h-1.2v-1l1.3-0.1l0.2-2.3h1.1v2.3h2.2v1.1H149v4.5c0,1,0.3,1.6,1.3,1.6
						c0.3,0,0.7-0.1,0.9-0.2l0.3,1c-0.5,0.2-1,0.3-1.5,0.3C148.2,278.2,147.6,277.1,147.6,275.5z"/>
					<path class="st2" d="M152.2,273.9c0-2.7,1.8-4.3,3.8-4.3c2,0,3.8,1.6,3.8,4.3c0,2.7-1.8,4.3-3.8,4.3
						C154,278.2,152.2,276.6,152.2,273.9z M158.4,273.9c0-1.9-1-3.2-2.4-3.2c-1.4,0-2.4,1.3-2.4,3.2s0.9,3.1,2.4,3.1
						C157.4,277.1,158.4,275.8,158.4,273.9z"/>
					<path class="st2" d="M165,267.3c0-0.6,0.4-0.9,0.9-0.9s0.9,0.3,0.9,0.9c0,0.5-0.4,0.9-0.9,0.9S165,267.8,165,267.3z
						 M165.3,269.9h1.4v8.1h-1.4V269.9z"/>
					<path class="st2" d="M168.8,273.9c0-2.6,1.7-4.3,3.5-4.3c1,0,1.6,0.4,2.3,1l-0.1-1.4v-3.1h1.4V278h-1.1l-0.1-1h0
						c-0.6,0.6-1.5,1.2-2.5,1.2C170.1,278.2,168.8,276.7,168.8,273.9z M174.6,275.9v-4.3c-0.7-0.6-1.3-0.9-2-0.9
						c-1.3,0-2.4,1.3-2.4,3.1c0,2,0.8,3.1,2.2,3.1C173.2,277.1,173.9,276.7,174.6,275.9z"/>
					<path class="st2" d="M178.1,273.9c0-2.6,1.8-4.3,3.7-4.3c2.1,0,3.2,1.5,3.2,3.8c0,0.3,0,0.6-0.1,0.8h-5.5
						c0.1,1.7,1.2,2.8,2.7,2.8c0.8,0,1.4-0.2,2-0.6l0.5,0.9c-0.7,0.5-1.6,0.8-2.7,0.8C179.8,278.2,178.1,276.6,178.1,273.9z
						 M183.8,273.3c0-1.7-0.8-2.5-2-2.5c-1.2,0-2.2,0.9-2.3,2.5H183.8z"/>
					<path class="st2" d="M187,269.9h1.1l0.1,1.2h0c0.8-0.8,1.6-1.4,2.7-1.4c1.7,0,2.5,1.1,2.5,3.2v5.2h-1.4v-5
						c0-1.5-0.5-2.2-1.5-2.2c-0.8,0-1.4,0.4-2.2,1.2v5.9H187V269.9z"/>
					<path class="st2" d="M196.4,275.5V271h-1.2v-1l1.3-0.1l0.2-2.3h1.1v2.3h2.2v1.1h-2.2v4.5c0,1,0.3,1.6,1.3,1.6
						c0.3,0,0.7-0.1,0.9-0.2l0.3,1c-0.5,0.2-1,0.3-1.5,0.3C197,278.2,196.4,277.1,196.4,275.5z"/>
					<path class="st2" d="M201.6,267.3c0-0.6,0.4-0.9,0.9-0.9c0.5,0,0.9,0.3,0.9,0.9c0,0.5-0.4,0.9-0.9,0.9
						C202,268.2,201.6,267.8,201.6,267.3z M201.8,269.9h1.4v8.1h-1.4V269.9z"/>
					<path class="st2" d="M209.6,267.2c-0.3-0.1-0.6-0.2-0.9-0.2c-0.8,0-1.2,0.6-1.2,1.6v1.3h1.7v1.1h-1.7v7h-1.4v-7h-1.1v-1
						l1.1-0.1v-1.3c0-1.7,0.8-2.7,2.4-2.7c0.5,0,1,0.1,1.4,0.3L209.6,267.2z"/>
					<path class="st2" d="M210,281.3l0.3-1.1c0.2,0.1,0.4,0.1,0.6,0.1c0.9,0,1.5-0.8,1.8-1.8l0.2-0.6l-3.3-8.2h1.4l1.7,4.5
						c0.2,0.7,0.5,1.5,0.8,2.3h0.1c0.2-0.7,0.5-1.6,0.7-2.3l1.5-4.5h1.3l-3.1,8.8c-0.6,1.6-1.4,2.8-3,2.8
						C210.6,281.5,210.3,281.5,210,281.3z"/>
					<path class="st2" d="M222.1,267h1.7l2.1,5.9c0.3,0.8,0.5,1.5,0.8,2.3h0.1c0.3-0.8,0.5-1.5,0.8-2.3l2.1-5.9h1.7v11H230v-6.1
						c0-0.9,0.1-2.3,0.2-3.2h-0.1l-0.9,2.5l-2.1,5.7h-0.9l-2.1-5.7l-0.9-2.5h-0.1c0.1,1,0.2,2.3,0.2,3.2v6.1h-1.3V267z"/>
					<path class="st2" d="M234.1,275v-5.2h1.4v5c0,1.5,0.4,2.2,1.5,2.2c0.8,0,1.4-0.4,2.2-1.4v-5.8h1.4v8.1h-1.1l-0.1-1.3h0
						c-0.8,0.9-1.6,1.5-2.7,1.5C234.9,278.2,234.1,277.1,234.1,275z"/>
					<path class="st2" d="M243.3,276.4v-10.3h1.4v10.4c0,0.4,0.2,0.6,0.4,0.6c0.1,0,0.1,0,0.3,0l0.2,1c-0.2,0.1-0.4,0.1-0.8,0.1
						C243.7,278.2,243.3,277.5,243.3,276.4z"/>
					<path class="st2" d="M247.8,275.5V271h-1.2v-1l1.3-0.1l0.2-2.3h1.1v2.3h2.2v1.1h-2.2v4.5c0,1,0.3,1.6,1.3,1.6
						c0.3,0,0.7-0.1,0.9-0.2l0.3,1c-0.5,0.2-1,0.3-1.5,0.3C248.4,278.2,247.8,277.1,247.8,275.5z"/>
					<path class="st2" d="M253,267.3c0-0.6,0.4-0.9,0.9-0.9c0.5,0,0.9,0.3,0.9,0.9c0,0.5-0.4,0.9-0.9,0.9
						C253.4,268.2,253,267.8,253,267.3z M253.2,269.9h1.4v8.1h-1.4V269.9z"/>
					<path class="st2" d="M256.7,273.3h3.8v1h-3.8V273.3z"/>
				</g>
				<text transform="matrix(1 0 0 1 261.1772 278)" class="st2 st5 st4"> </text>
				<g class="st1">
					<path class="st2" d="M30.9,307.5c0-3.6,2.1-5.7,4.9-5.7c1.3,0,2.4,0.7,3,1.4l-0.8,0.9c-0.6-0.6-1.3-1-2.2-1
						c-2.1,0-3.5,1.7-3.5,4.5c0,2.8,1.3,4.5,3.4,4.5c1,0,1.8-0.5,2.5-1.2l0.8,0.9c-0.9,1-2,1.6-3.4,1.6
						C32.9,313.2,30.9,311.1,30.9,307.5z"/>
					<path class="st2" d="M40.3,308.9c0-2.7,1.8-4.3,3.8-4.3c2,0,3.8,1.6,3.8,4.3c0,2.7-1.8,4.3-3.8,4.3
						C42.1,313.2,40.3,311.6,40.3,308.9z M46.5,308.9c0-1.9-1-3.2-2.4-3.2c-1.4,0-2.4,1.3-2.4,3.2s0.9,3.1,2.4,3.1
						C45.5,312.1,46.5,310.8,46.5,308.9z"/>
					<path class="st2" d="M50,304.9h1.1l0.1,1.2h0c0.7-0.8,1.6-1.4,2.5-1.4c1.2,0,1.9,0.6,2.2,1.6c0.8-0.9,1.7-1.6,2.7-1.6
						c1.7,0,2.5,1.1,2.5,3.2v5.2h-1.4v-5c0-1.5-0.5-2.2-1.5-2.2c-0.6,0-1.3,0.4-2.1,1.2v5.9H55v-5c0-1.5-0.5-2.2-1.5-2.2
						c-0.6,0-1.3,0.4-2.1,1.2v5.9H50V304.9z"/>
					<path class="st2" d="M63.9,304.9h1.1l0.1,0.9h0c0.7-0.6,1.6-1.1,2.6-1.1c2.1,0,3.2,1.6,3.2,4.2c0,2.8-1.7,4.4-3.5,4.4
						c-0.7,0-1.5-0.3-2.2-0.9l0,1.4v2.8h-1.4V304.9z M69.6,308.8c0-1.8-0.6-3-2.1-3c-0.7,0-1.4,0.4-2.2,1.1v4.3
						c0.7,0.6,1.5,0.9,2,0.9C68.6,312.1,69.6,310.8,69.6,308.8z"/>
					<path class="st2" d="M72.6,308.9c0-2.7,1.8-4.3,3.8-4.3c2,0,3.8,1.6,3.8,4.3c0,2.7-1.8,4.3-3.8,4.3
						C74.4,313.2,72.6,311.6,72.6,308.9z M78.8,308.9c0-1.9-1-3.2-2.4-3.2c-1.4,0-2.4,1.3-2.4,3.2s0.9,3.1,2.4,3.1
						C77.8,312.1,78.8,310.8,78.8,308.9z"/>
					<path class="st2" d="M82.3,304.9h1.1l0.1,1.2h0c0.8-0.8,1.6-1.4,2.7-1.4c1.7,0,2.5,1.1,2.5,3.2v5.2h-1.4v-5
						c0-1.5-0.5-2.2-1.5-2.2c-0.8,0-1.4,0.4-2.2,1.2v5.9h-1.4V304.9z"/>
					<path class="st2" d="M90.9,308.9c0-2.6,1.8-4.3,3.7-4.3c2.1,0,3.2,1.5,3.2,3.8c0,0.3,0,0.6-0.1,0.8h-5.5
						c0.1,1.7,1.2,2.8,2.7,2.8c0.8,0,1.4-0.2,2-0.6l0.5,0.9c-0.7,0.5-1.6,0.8-2.7,0.8C92.6,313.2,90.9,311.6,90.9,308.9z
						 M96.6,308.3c0-1.7-0.8-2.5-2-2.5c-1.2,0-2.2,0.9-2.3,2.5H96.6z"/>
					<path class="st2" d="M99.8,304.9h1.1l0.1,1.2h0c0.8-0.8,1.6-1.4,2.7-1.4c1.7,0,2.5,1.1,2.5,3.2v5.2h-1.4v-5
						c0-1.5-0.5-2.2-1.5-2.2c-0.8,0-1.4,0.4-2.2,1.2v5.9h-1.4V304.9z"/>
					<path class="st2" d="M109.2,310.5V306H108v-1l1.3-0.1l0.2-2.3h1.1v2.3h2.2v1.1h-2.2v4.5c0,1,0.3,1.6,1.3,1.6
						c0.3,0,0.7-0.1,0.9-0.2l0.3,1c-0.5,0.2-1,0.3-1.5,0.3C109.8,313.2,109.2,312.1,109.2,310.5z"/>
					<path class="st2" d="M118.1,301.1h1l-4.5,14.6h-1L118.1,301.1z"/>
					<path class="st2" d="M120.8,302h1.7l2.1,5.9c0.3,0.8,0.5,1.5,0.8,2.3h0.1c0.3-0.8,0.5-1.5,0.8-2.3l2.1-5.9h1.7v11h-1.3v-6.1
						c0-0.9,0.1-2.3,0.2-3.2h-0.1l-0.9,2.5l-2.1,5.7h-0.9l-2.1-5.7l-0.9-2.5h-0.1c0.1,1,0.2,2.3,0.2,3.2v6.1h-1.3V302z"/>
					<path class="st2" d="M132.7,310v-5.2h1.4v5c0,1.5,0.4,2.2,1.5,2.2c0.8,0,1.4-0.4,2.2-1.4v-5.8h1.4v8.1h-1.1l-0.1-1.3h0
						c-0.8,0.9-1.6,1.5-2.7,1.5C133.5,313.2,132.7,312.1,132.7,310z"/>
					<path class="st2" d="M141.9,311.4v-10.3h1.4v10.4c0,0.4,0.2,0.6,0.4,0.6c0.1,0,0.1,0,0.3,0l0.2,1c-0.2,0.1-0.4,0.1-0.8,0.1
						C142.4,313.2,141.9,312.5,141.9,311.4z"/>
					<path class="st2" d="M146.5,310.5V306h-1.2v-1l1.3-0.1l0.2-2.3h1.1v2.3h2.2v1.1h-2.2v4.5c0,1,0.3,1.6,1.3,1.6
						c0.3,0,0.7-0.1,0.9-0.2l0.3,1c-0.5,0.2-1,0.3-1.5,0.3C147,313.2,146.5,312.1,146.5,310.5z"/>
					<path class="st2" d="M151.6,302.3c0-0.6,0.4-0.9,0.9-0.9s0.9,0.3,0.9,0.9c0,0.5-0.4,0.9-0.9,0.9S151.6,302.8,151.6,302.3z
						 M151.9,304.9h1.4v8.1h-1.4V304.9z"/>
					<path class="st2" d="M155.3,308.3h3.8v1h-3.8V308.3z"/>
					<path class="st2" d="M162.8,303.2h-3.3V302h8.1v1.2h-3.3v9.8h-1.4V303.2z"/>
					<path class="st2" d="M167.7,310.9c0-1.8,1.5-2.7,5-3c0-1-0.3-2.1-1.7-2.1c-0.9,0-1.8,0.4-2.4,0.9l-0.5-0.9
						c0.8-0.5,1.9-1.1,3.2-1.1c2,0,2.8,1.3,2.8,3.3v5h-1.1l-0.1-1h0c-0.8,0.6-1.7,1.2-2.7,1.2C168.7,313.2,167.7,312.4,167.7,310.9z
						 M172.7,311v-2.3c-2.7,0.3-3.7,1-3.7,2.1c0,0.9,0.6,1.3,1.4,1.3C171.2,312.1,171.9,311.7,172.7,311z"/>
					<path class="st2" d="M176.6,304.9h1.1l0.1,1.5h0c0.6-1,1.4-1.7,2.3-1.7c0.4,0,0.6,0,0.9,0.2l-0.3,1.2c-0.3-0.1-0.5-0.1-0.8-0.1
						c-0.7,0-1.5,0.5-2.1,1.9v5.2h-1.4V304.9z"/>
					<path class="st2" d="M181.7,314.6c0-0.7,0.5-1.3,1.2-1.8v-0.1c-0.4-0.3-0.8-0.7-0.8-1.3c0-0.7,0.5-1.2,0.9-1.5v-0.1
						c-0.5-0.4-1.1-1.2-1.1-2.2c0-1.8,1.4-2.9,3.1-2.9c0.5,0,0.9,0.1,1.1,0.2h2.8v1h-1.7c0.4,0.4,0.7,1,0.7,1.7c0,1.7-1.3,2.8-3,2.8
						c-0.4,0-0.9-0.1-1.2-0.3c-0.3,0.3-0.5,0.5-0.5,1c0,0.5,0.3,0.9,1.4,0.9h1.6c1.9,0,2.8,0.6,2.8,1.9c0,1.5-1.6,2.8-4.1,2.8
						C183,316.8,181.7,316,181.7,314.6z M187.8,314.1c0-0.8-0.6-1-1.7-1h-1.4c-0.3,0-0.7,0-1-0.1c-0.6,0.4-0.8,0.9-0.8,1.4
						c0,0.9,0.9,1.4,2.4,1.4C186.8,315.8,187.8,315,187.8,314.1z M186.8,307.6c0-1.2-0.8-1.9-1.7-1.9s-1.7,0.7-1.7,1.9
						c0,1.2,0.8,1.9,1.7,1.9C186,309.5,186.8,308.7,186.8,307.6z"/>
					<path class="st2" d="M189.9,308.9c0-2.6,1.8-4.3,3.7-4.3c2.1,0,3.2,1.5,3.2,3.8c0,0.3,0,0.6-0.1,0.8h-5.5
						c0.1,1.7,1.2,2.8,2.7,2.8c0.8,0,1.4-0.2,2-0.6l0.5,0.9c-0.7,0.5-1.6,0.8-2.7,0.8C191.6,313.2,189.9,311.6,189.9,308.9z
						 M195.6,308.3c0-1.7-0.7-2.5-2-2.5c-1.2,0-2.2,0.9-2.3,2.5H195.6z"/>
					<path class="st2" d="M198.9,310.5V306h-1.2v-1l1.3-0.1l0.2-2.3h1.1v2.3h2.2v1.1h-2.2v4.5c0,1,0.3,1.6,1.3,1.6
						c0.3,0,0.7-0.1,0.9-0.2l0.3,1c-0.5,0.2-1,0.3-1.5,0.3C199.5,313.2,198.9,312.1,198.9,310.5z"/>
					<path class="st2" d="M207.7,308.3c0-2.9,0.8-5.4,2.2-7.6l0.9,0.4c-1.3,2.1-1.9,4.7-1.9,7.2s0.6,5.1,1.9,7.2l-0.9,0.4
						C208.5,313.7,207.7,311.3,207.7,308.3z"/>
					<path class="st2" d="M212.9,302h1.7l2.1,5.9c0.3,0.8,0.5,1.5,0.8,2.3h0.1c0.3-0.8,0.5-1.5,0.8-2.3l2.1-5.9h1.7v11h-1.3v-6.1
						c0-0.9,0.1-2.3,0.2-3.2h-0.1l-0.9,2.5l-2.1,5.7H217l-2.1-5.7l-0.9-2.5H214c0.1,1,0.2,2.3,0.2,3.2v6.1h-1.3V302z"/>
					<path class="st2" d="M224.4,307.5c0-3.6,2.1-5.7,4.9-5.7c1.3,0,2.4,0.7,3,1.4l-0.8,0.9c-0.6-0.6-1.3-1-2.2-1
						c-2.1,0-3.5,1.7-3.5,4.5c0,2.8,1.3,4.5,3.4,4.5c1,0,1.8-0.5,2.5-1.2l0.8,0.9c-0.9,1-2,1.6-3.4,1.6
						C226.5,313.2,224.4,311.1,224.4,307.5z"/>
					<path class="st2" d="M237.8,301.1h1l-4.5,14.6h-1L237.8,301.1z"/>
					<path class="st2" d="M240.5,302h1.7l2.1,5.9c0.3,0.8,0.5,1.5,0.8,2.3h0.1c0.3-0.8,0.5-1.5,0.8-2.3l2.1-5.9h1.7v11h-1.3v-6.1
						c0-0.9,0.1-2.3,0.2-3.2h-0.1l-0.9,2.5l-2.1,5.7h-0.9l-2.1-5.7l-0.9-2.5h-0.1c0.1,1,0.2,2.3,0.2,3.2v6.1h-1.3V302z"/>
					<path class="st2" d="M255,303.2h-3.3V302h8.1v1.2h-3.3v9.8H255V303.2z"/>
					<path class="st2" d="M260.8,315.5c1.3-2.1,1.9-4.7,1.9-7.2s-0.6-5.1-1.9-7.2l0.8-0.4c1.4,2.2,2.2,4.7,2.2,7.6
						c0,3-0.8,5.4-2.2,7.6L260.8,315.5z"/>
					<path class="st2" d="M269.4,308.9c0-2.6,1.7-4.3,3.5-4.3c1,0,1.6,0.4,2.3,1l-0.1-1.4v-3.1h1.4V313h-1.1l-0.1-1h0
						c-0.6,0.6-1.5,1.2-2.5,1.2C270.7,313.2,269.4,311.7,269.4,308.9z M275.1,310.9v-4.3c-0.7-0.6-1.3-0.9-2-0.9
						c-1.3,0-2.4,1.3-2.4,3.1c0,2,0.8,3.1,2.2,3.1C273.8,312.1,274.5,311.7,275.1,310.9z"/>
					<path class="st2" d="M279.3,304.9h1.1l0.1,1.5h0c0.6-1,1.4-1.7,2.3-1.7c0.4,0,0.6,0,0.9,0.2l-0.3,1.2c-0.3-0.1-0.5-0.1-0.8-0.1
						c-0.7,0-1.5,0.5-2.1,1.9v5.2h-1.4V304.9z"/>
					<path class="st2" d="M285,310v-5.2h1.4v5c0,1.5,0.5,2.2,1.5,2.2c0.8,0,1.4-0.4,2.2-1.4v-5.8h1.4v8.1h-1.1l-0.1-1.3h0
						c-0.8,0.9-1.6,1.5-2.7,1.5C285.7,313.2,285,312.1,285,310z"/>
					<path class="st2" d="M293.6,314.6c0-0.7,0.4-1.3,1.2-1.8v-0.1c-0.4-0.3-0.8-0.7-0.8-1.3c0-0.7,0.5-1.2,0.9-1.5v-0.1
						c-0.5-0.4-1.1-1.2-1.1-2.2c0-1.8,1.4-2.9,3.1-2.9c0.4,0,0.9,0.1,1.1,0.2h2.8v1h-1.7c0.4,0.4,0.7,1,0.7,1.7c0,1.7-1.3,2.8-3,2.8
						c-0.4,0-0.9-0.1-1.2-0.3c-0.3,0.3-0.5,0.5-0.5,1c0,0.5,0.3,0.9,1.4,0.9h1.6c1.9,0,2.8,0.6,2.8,1.9c0,1.5-1.6,2.8-4.1,2.8
						C294.9,316.8,293.6,316,293.6,314.6z M299.7,314.1c0-0.8-0.6-1-1.7-1h-1.4c-0.3,0-0.7,0-1.1-0.1c-0.6,0.4-0.8,0.9-0.8,1.4
						c0,0.9,0.9,1.4,2.4,1.4C298.7,315.8,299.7,315,299.7,314.1z M298.7,307.6c0-1.2-0.8-1.9-1.7-1.9c-1,0-1.7,0.7-1.7,1.9
						c0,1.2,0.8,1.9,1.7,1.9C297.9,309.5,298.7,308.7,298.7,307.6z"/>
				</g>
				<g class="st1">
					<path class="st2" d="M30.8,343.9c0-2.7,1.8-4.3,3.9-4.3c1.1,0,1.8,0.5,2.4,1l-0.7,0.9c-0.5-0.4-1-0.7-1.6-0.7
						c-1.5,0-2.5,1.3-2.5,3.2s1,3.1,2.5,3.1c0.8,0,1.4-0.3,1.9-0.8l0.6,0.9c-0.7,0.7-1.6,1-2.6,1C32.4,348.2,30.8,346.6,30.8,343.9z
						"/>
					<path class="st2" d="M38.3,345.9c0-1.8,1.5-2.7,5-3c0-1-0.3-2.1-1.7-2.1c-0.9,0-1.8,0.4-2.4,0.9l-0.5-0.9
						c0.8-0.5,1.9-1.1,3.2-1.1c2,0,2.8,1.3,2.8,3.3v5h-1.1l-0.1-1h0c-0.8,0.6-1.7,1.2-2.7,1.2C39.4,348.2,38.3,347.4,38.3,345.9z
						 M43.4,346v-2.3c-2.7,0.3-3.7,1-3.7,2.1c0,0.9,0.6,1.3,1.4,1.3C41.9,347.1,42.6,346.7,43.4,346z"/>
					<path class="st2" d="M47.3,339.9h1.1l0.1,1.2h0c0.8-0.8,1.6-1.4,2.7-1.4c1.7,0,2.5,1.1,2.5,3.2v5.2h-1.4v-5
						c0-1.5-0.5-2.2-1.5-2.2c-0.8,0-1.4,0.4-2.2,1.2v5.9h-1.4V339.9z"/>
					<path class="st2" d="M55.9,343.9c0-2.6,1.7-4.3,3.5-4.3c1,0,1.6,0.4,2.3,1l-0.1-1.4v-3.1H63V348h-1.1l-0.1-1h0
						c-0.6,0.6-1.5,1.2-2.5,1.2C57.2,348.2,55.9,346.7,55.9,343.9z M61.6,345.9v-4.3c-0.7-0.6-1.3-0.9-2-0.9c-1.3,0-2.4,1.3-2.4,3.1
						c0,2,0.8,3.1,2.2,3.1C60.3,347.1,61,346.7,61.6,345.9z"/>
					<path class="st2" d="M65.5,337.3c0-0.6,0.4-0.9,0.9-0.9s0.9,0.3,0.9,0.9c0,0.5-0.4,0.9-0.9,0.9S65.5,337.8,65.5,337.3z
						 M65.8,339.9h1.4v8.1h-1.4V339.9z"/>
					<path class="st2" d="M69.3,343.9c0-2.6,1.7-4.3,3.5-4.3c1,0,1.6,0.4,2.3,1l-0.1-1.4v-3.1h1.4V348h-1.1l-0.1-1h0
						c-0.6,0.6-1.5,1.2-2.5,1.2C70.6,348.2,69.3,346.7,69.3,343.9z M75.1,345.9v-4.3c-0.7-0.6-1.3-0.9-2-0.9c-1.3,0-2.4,1.3-2.4,3.1
						c0,2,0.8,3.1,2.2,3.1C73.7,347.1,74.4,346.7,75.1,345.9z"/>
					<path class="st2" d="M78.7,345.9c0-1.8,1.5-2.7,5-3c0-1-0.3-2.1-1.7-2.1c-0.9,0-1.8,0.4-2.4,0.9l-0.5-0.9
						c0.8-0.5,1.9-1.1,3.2-1.1c2,0,2.8,1.3,2.8,3.3v5h-1.1l-0.1-1h0c-0.8,0.6-1.7,1.2-2.7,1.2C79.7,348.2,78.7,347.4,78.7,345.9z
						 M83.7,346v-2.3c-2.7,0.3-3.7,1-3.7,2.1c0,0.9,0.6,1.3,1.4,1.3C82.3,347.1,82.9,346.7,83.7,346z"/>
					<path class="st2" d="M87.7,345.5V341h-1.2v-1l1.3-0.1l0.2-2.3H89v2.3h2.2v1.1H89v4.5c0,1,0.3,1.6,1.3,1.6
						c0.3,0,0.7-0.1,0.9-0.2l0.3,1c-0.5,0.2-1,0.3-1.5,0.3C88.3,348.2,87.7,347.1,87.7,345.5z"/>
					<path class="st2" d="M92.2,343.9c0-2.6,1.8-4.3,3.7-4.3c2.1,0,3.2,1.5,3.2,3.8c0,0.3,0,0.6-0.1,0.8h-5.5
						c0.1,1.7,1.2,2.8,2.7,2.8c0.8,0,1.4-0.2,2-0.6l0.5,0.9c-0.7,0.5-1.6,0.8-2.7,0.8C94,348.2,92.2,346.6,92.2,343.9z M98,343.3
						c0-1.7-0.7-2.5-2-2.5c-1.2,0-2.2,0.9-2.3,2.5H98z"/>
					<path class="st2" d="M100.3,347.1l0.7-0.9c0.7,0.6,1.4,1,2.4,1c1.1,0,1.6-0.6,1.6-1.3c0-0.8-1-1.2-1.9-1.5
						c-1.1-0.4-2.4-1-2.4-2.4c0-1.3,1-2.3,2.8-2.3c1,0,1.9,0.4,2.5,0.9l-0.7,0.9c-0.6-0.4-1.1-0.7-1.9-0.7c-1,0-1.5,0.5-1.5,1.2
						c0,0.8,0.9,1.1,1.8,1.4c1.2,0.4,2.5,0.9,2.5,2.5c0,1.3-1.1,2.4-3,2.4C102.1,348.2,101,347.7,100.3,347.1z"/>
					<path class="st2" d="M115.2,337.2c-0.3-0.1-0.6-0.2-0.9-0.2c-0.8,0-1.2,0.6-1.2,1.6v1.3h1.7v1.1h-1.7v7h-1.4v-7h-1.1v-1
						l1.1-0.1v-1.3c0-1.7,0.8-2.7,2.4-2.7c0.5,0,1,0.1,1.4,0.3L115.2,337.2z"/>
					<path class="st2" d="M116.4,339.9h1.1l0.1,1.5h0c0.6-1,1.4-1.7,2.3-1.7c0.4,0,0.6,0,0.9,0.2l-0.3,1.2c-0.3-0.1-0.5-0.1-0.8-0.1
						c-0.7,0-1.5,0.5-2.1,1.9v5.2h-1.4V339.9z"/>
					<path class="st2" d="M121.5,343.9c0-2.7,1.8-4.3,3.8-4.3c2,0,3.8,1.6,3.8,4.3c0,2.7-1.8,4.3-3.8,4.3
						C123.3,348.2,121.5,346.6,121.5,343.9z M127.6,343.9c0-1.9-1-3.2-2.4-3.2c-1.4,0-2.4,1.3-2.4,3.2s0.9,3.1,2.4,3.1
						C126.7,347.1,127.6,345.8,127.6,343.9z"/>
					<path class="st2" d="M131.2,339.9h1.1l0.1,1.2h0c0.7-0.8,1.6-1.4,2.5-1.4c1.2,0,1.9,0.6,2.2,1.6c0.8-0.9,1.7-1.6,2.7-1.6
						c1.7,0,2.5,1.1,2.5,3.2v5.2H141v-5c0-1.5-0.5-2.2-1.5-2.2c-0.6,0-1.3,0.4-2.1,1.2v5.9h-1.4v-5c0-1.5-0.5-2.2-1.5-2.2
						c-0.6,0-1.3,0.4-2.1,1.2v5.9h-1.4V339.9z"/>
					<path class="st2" d="M149.7,347.2L149.7,347.2l-0.2,0.8h-1.1v-11.9h1.4v3.3l0,1.5c0.7-0.6,1.6-1.2,2.6-1.2
						c2.1,0,3.3,1.6,3.3,4.1c0,2.8-1.7,4.4-3.5,4.4C151.3,348.2,150.4,347.8,149.7,347.2z M154.1,343.8c0-1.8-0.6-3-2.1-3
						c-0.7,0-1.4,0.4-2.2,1.1v4.3c0.7,0.6,1.5,0.9,2,0.9C153.1,347.1,154.1,345.8,154.1,343.8z"/>
					<path class="st2" d="M157.1,343.9c0-2.7,1.8-4.3,3.8-4.3c2,0,3.8,1.6,3.8,4.3c0,2.7-1.8,4.3-3.8,4.3
						C158.9,348.2,157.1,346.6,157.1,343.9z M163.2,343.9c0-1.9-1-3.2-2.4-3.2c-1.4,0-2.4,1.3-2.4,3.2s0.9,3.1,2.4,3.1
						C162.3,347.1,163.2,345.8,163.2,343.9z"/>
					<path class="st2" d="M166.7,345.5V341h-1.2v-1l1.3-0.1l0.2-2.3h1.1v2.3h2.2v1.1h-2.2v4.5c0,1,0.3,1.6,1.3,1.6
						c0.3,0,0.7-0.1,0.9-0.2l0.3,1c-0.5,0.2-1,0.3-1.5,0.3C167.3,348.2,166.7,347.1,166.7,345.5z"/>
					<path class="st2" d="M171.3,345.9c0-1.8,1.5-2.7,5-3c0-1-0.3-2.1-1.7-2.1c-0.9,0-1.8,0.4-2.4,0.9l-0.5-0.9
						c0.8-0.5,1.9-1.1,3.2-1.1c2,0,2.8,1.3,2.8,3.3v5h-1.1l-0.1-1h0c-0.8,0.6-1.7,1.2-2.7,1.2C172.3,348.2,171.3,347.4,171.3,345.9z
						 M176.3,346v-2.3c-2.7,0.3-3.7,1-3.7,2.1c0,0.9,0.6,1.3,1.4,1.3C174.9,347.1,175.5,346.7,176.3,346z"/>
					<path class="st2" d="M180.3,339.9h1.1l0.1,1.2h0c0.8-0.8,1.6-1.4,2.7-1.4c1.7,0,2.5,1.1,2.5,3.2v5.2h-1.4v-5
						c0-1.5-0.5-2.2-1.5-2.2c-0.8,0-1.4,0.4-2.2,1.2v5.9h-1.4V339.9z"/>
					<path class="st2" d="M189.2,337.3c0-0.6,0.4-0.9,0.9-0.9s0.9,0.3,0.9,0.9c0,0.5-0.4,0.9-0.9,0.9S189.2,337.8,189.2,337.3z
						 M189.4,339.9h1.4v8.1h-1.4V339.9z"/>
					<path class="st2" d="M192.9,343.9c0-2.7,1.8-4.3,3.9-4.3c1.1,0,1.8,0.5,2.4,1l-0.7,0.9c-0.5-0.4-1-0.7-1.6-0.7
						c-1.5,0-2.5,1.3-2.5,3.2s1,3.1,2.5,3.1c0.8,0,1.4-0.3,1.9-0.8l0.6,0.9c-0.7,0.7-1.7,1-2.6,1
						C194.6,348.2,192.9,346.6,192.9,343.9z"/>
					<path class="st2" d="M200.5,345.9c0-1.8,1.5-2.7,5-3c0-1-0.3-2.1-1.7-2.1c-0.9,0-1.8,0.4-2.4,0.9l-0.5-0.9
						c0.8-0.5,1.9-1.1,3.2-1.1c2,0,2.8,1.3,2.8,3.3v5h-1.1l-0.1-1h0c-0.8,0.6-1.7,1.2-2.7,1.2C201.5,348.2,200.5,347.4,200.5,345.9z
						 M205.5,346v-2.3c-2.7,0.3-3.7,1-3.7,2.1c0,0.9,0.6,1.3,1.4,1.3C204.1,347.1,204.7,346.7,205.5,346z"/>
					<path class="st2" d="M209.5,346.4v-10.3h1.4v10.4c0,0.4,0.2,0.6,0.4,0.6c0.1,0,0.1,0,0.3,0l0.2,1c-0.2,0.1-0.4,0.1-0.8,0.1
						C209.9,348.2,209.5,347.5,209.5,346.4z"/>
					<path class="st2" d="M216.2,347.1l0.7-0.9c0.7,0.6,1.4,1,2.4,1c1.1,0,1.6-0.6,1.6-1.3c0-0.8-1-1.2-1.9-1.5
						c-1.1-0.4-2.4-1-2.4-2.4c0-1.3,1-2.3,2.8-2.3c1,0,1.9,0.4,2.5,0.9l-0.7,0.9c-0.6-0.4-1.1-0.7-1.9-0.7c-1,0-1.5,0.5-1.5,1.2
						c0,0.8,0.9,1.1,1.8,1.4c1.2,0.4,2.5,0.9,2.5,2.5c0,1.3-1,2.4-3,2.4C218.1,348.2,217,347.7,216.2,347.1z"/>
					<path class="st2" d="M223.5,343.9c0-2.7,1.8-4.3,3.8-4.3c2,0,3.8,1.6,3.8,4.3c0,2.7-1.8,4.3-3.8,4.3
						C225.3,348.2,223.5,346.6,223.5,343.9z M229.7,343.9c0-1.9-1-3.2-2.4-3.2s-2.4,1.3-2.4,3.2s0.9,3.1,2.4,3.1
						S229.7,345.8,229.7,343.9z"/>
					<path class="st2" d="M233.1,345v-5.2h1.4v5c0,1.5,0.5,2.2,1.5,2.2c0.8,0,1.4-0.4,2.2-1.4v-5.8h1.4v8.1h-1.1l-0.1-1.3h0
						c-0.8,0.9-1.6,1.5-2.7,1.5C233.9,348.2,233.1,347.1,233.1,345z"/>
					<path class="st2" d="M242.3,339.9h1.1l0.1,1.5h0c0.6-1,1.4-1.7,2.3-1.7c0.4,0,0.6,0,0.9,0.2l-0.3,1.2c-0.3-0.1-0.5-0.1-0.8-0.1
						c-0.7,0-1.5,0.5-2.1,1.9v5.2h-1.4V339.9z"/>
					<path class="st2" d="M247.4,343.9c0-2.7,1.8-4.3,3.9-4.3c1.1,0,1.8,0.5,2.4,1l-0.7,0.9c-0.5-0.4-1-0.7-1.6-0.7
						c-1.5,0-2.6,1.3-2.6,3.2s1,3.1,2.5,3.1c0.8,0,1.4-0.3,1.9-0.8l0.6,0.9c-0.7,0.7-1.7,1-2.6,1C249,348.2,247.4,346.6,247.4,343.9
						z"/>
					<path class="st2" d="M254.6,343.9c0-2.6,1.8-4.3,3.7-4.3c2.1,0,3.2,1.5,3.2,3.8c0,0.3,0,0.6-0.1,0.8H256
						c0.1,1.7,1.2,2.8,2.7,2.8c0.8,0,1.4-0.2,2-0.6l0.5,0.9c-0.7,0.5-1.6,0.8-2.7,0.8C256.4,348.2,254.6,346.6,254.6,343.9z
						 M260.4,343.3c0-1.7-0.8-2.5-2-2.5c-1.2,0-2.2,0.9-2.3,2.5H260.4z"/>
					<path class="st2" d="M262.6,347.1l0.7-0.9c0.7,0.6,1.4,1,2.4,1c1.1,0,1.6-0.6,1.6-1.3c0-0.8-1-1.2-1.9-1.5
						c-1.1-0.4-2.4-1-2.4-2.4c0-1.3,1-2.3,2.8-2.3c1,0,1.9,0.4,2.5,0.9l-0.7,0.9c-0.6-0.4-1.1-0.7-1.9-0.7c-1,0-1.5,0.5-1.5,1.2
						c0,0.8,0.9,1.1,1.8,1.4c1.2,0.4,2.5,0.9,2.5,2.5c0,1.3-1,2.4-3,2.4C264.5,348.2,263.4,347.7,262.6,347.1z"/>
				</g>
				<text transform="matrix(1 0 0 1 269.2024 348)" class="st2 st5 st4"> </text>
				<g class="st1">
					<path class="st2" d="M30.7,413.3h3.8v1h-3.8V413.3z"/>
					<path class="st2" d="M40.1,407h3.3c2.2,0,3.8,0.8,3.8,2.7c0,1.1-0.6,2.1-1.6,2.4v0.1c1.3,0.3,2.2,1.1,2.2,2.6
						c0,2.2-1.7,3.2-4.2,3.2h-3.5V407z M43.1,411.7c1.9,0,2.7-0.7,2.7-1.8c0-1.3-0.9-1.8-2.6-1.8h-1.7v3.6H43.1z M43.4,416.9
						c1.9,0,3-0.7,3-2.2c0-1.4-1.1-2-3-2h-1.9v4.1H43.4z"/>
					<path class="st2" d="M49.2,413.9c0-2.6,1.8-4.3,3.7-4.3c2.1,0,3.2,1.5,3.2,3.8c0,0.3,0,0.6-0.1,0.8h-5.5
						c0.1,1.7,1.2,2.8,2.7,2.8c0.8,0,1.4-0.2,2-0.6l0.5,0.9c-0.7,0.5-1.6,0.8-2.7,0.8C50.9,418.2,49.2,416.6,49.2,413.9z
						 M54.9,413.3c0-1.7-0.7-2.5-2-2.5c-1.2,0-2.2,0.9-2.3,2.5H54.9z"/>
					<path class="st2" d="M57.5,413.9c0-2.7,1.8-4.3,3.9-4.3c1.1,0,1.8,0.5,2.4,1l-0.7,0.9c-0.5-0.4-1-0.7-1.6-0.7
						c-1.5,0-2.5,1.3-2.5,3.2s1,3.1,2.5,3.1c0.8,0,1.4-0.3,1.9-0.8l0.6,0.9c-0.7,0.7-1.6,1-2.6,1C59.2,418.2,57.5,416.6,57.5,413.9z
						"/>
					<path class="st2" d="M64.8,413.9c0-2.7,1.8-4.3,3.8-4.3c2,0,3.8,1.6,3.8,4.3c0,2.7-1.8,4.3-3.8,4.3
						C66.6,418.2,64.8,416.6,64.8,413.9z M70.9,413.9c0-1.9-1-3.2-2.4-3.2c-1.4,0-2.4,1.3-2.4,3.2s0.9,3.1,2.4,3.1
						C70,417.1,70.9,415.8,70.9,413.9z"/>
					<path class="st2" d="M74.5,409.9h1.1l0.1,1.2h0c0.7-0.8,1.6-1.4,2.5-1.4c1.2,0,1.9,0.6,2.2,1.6c0.8-0.9,1.7-1.6,2.7-1.6
						c1.7,0,2.5,1.1,2.5,3.2v5.2h-1.4v-5c0-1.5-0.5-2.2-1.5-2.2c-0.6,0-1.3,0.4-2.1,1.2v5.9h-1.4v-5c0-1.5-0.5-2.2-1.5-2.2
						c-0.6,0-1.3,0.4-2.1,1.2v5.9h-1.4V409.9z"/>
					<path class="st2" d="M87.7,413.9c0-2.6,1.8-4.3,3.7-4.3c2.1,0,3.2,1.5,3.2,3.8c0,0.3,0,0.6-0.1,0.8h-5.5
						c0.1,1.7,1.2,2.8,2.7,2.8c0.8,0,1.4-0.2,2-0.6l0.5,0.9c-0.7,0.5-1.6,0.8-2.7,0.8C89.5,418.2,87.7,416.6,87.7,413.9z
						 M93.5,413.3c0-1.7-0.7-2.5-2-2.5c-1.2,0-2.2,0.9-2.3,2.5H93.5z"/>
					<path class="st2" d="M100.2,407h1.4v5.5h0l4.6-5.5h1.6l-3.4,4.2l4,6.8h-1.6l-3.3-5.7l-1.9,2.2v3.5h-1.4V407z"/>
					<path class="st2" d="M109,413.9c0-2.7,1.8-4.3,3.8-4.3c2,0,3.8,1.6,3.8,4.3c0,2.7-1.8,4.3-3.8,4.3
						C110.8,418.2,109,416.6,109,413.9z M115.1,413.9c0-1.9-1-3.2-2.4-3.2c-1.4,0-2.4,1.3-2.4,3.2s0.9,3.1,2.4,3.1
						C114.2,417.1,115.1,415.8,115.1,413.9z"/>
					<path class="st2" d="M118.7,409.9h1.1l0.1,1.5h0c0.6-1,1.4-1.7,2.3-1.7c0.4,0,0.6,0,0.9,0.2l-0.3,1.2c-0.3-0.1-0.5-0.1-0.8-0.1
						c-0.7,0-1.5,0.5-2.1,1.9v5.2h-1.4V409.9z"/>
					<path class="st2" d="M123.7,413.9c0-2.6,1.8-4.3,3.7-4.3c2.1,0,3.2,1.5,3.2,3.8c0,0.3,0,0.6-0.1,0.8h-5.5
						c0.1,1.7,1.2,2.8,2.7,2.8c0.8,0,1.4-0.2,2-0.6l0.5,0.9c-0.7,0.5-1.6,0.8-2.7,0.8C125.5,418.2,123.7,416.6,123.7,413.9z
						 M129.4,413.3c0-1.7-0.7-2.5-2-2.5c-1.2,0-2.2,0.9-2.3,2.5H129.4z"/>
					<path class="st2" d="M131.9,415.9c0-1.8,1.5-2.7,5-3c0-1-0.3-2.1-1.7-2.1c-0.9,0-1.8,0.4-2.4,0.9l-0.5-0.9
						c0.8-0.5,1.9-1.1,3.2-1.1c2,0,2.8,1.3,2.8,3.3v5h-1.1l-0.1-1h0c-0.8,0.6-1.7,1.2-2.7,1.2C132.9,418.2,131.9,417.4,131.9,415.9z
						 M136.9,416v-2.3c-2.7,0.3-3.7,1-3.7,2.1c0,0.9,0.6,1.3,1.4,1.3C135.5,417.1,136.1,416.7,136.9,416z"/>
					<path class="st2" d="M140.3,410.1c0.8-0.6,1.2-1.1,1.3-2.1c0,0-0.1,0-0.2,0c-0.4,0-0.9-0.3-0.9-0.9c0-0.6,0.4-0.9,0.9-0.9
						c0.7,0,1.1,0.6,1.1,1.5c0,1.3-0.6,2.3-1.8,3L140.3,410.1z"/>
					<path class="st2" d="M143,417.1l0.7-0.9c0.7,0.6,1.4,1,2.4,1c1.1,0,1.6-0.6,1.6-1.3c0-0.8-1-1.2-1.9-1.5
						c-1.1-0.4-2.4-1-2.4-2.4c0-1.3,1-2.3,2.8-2.3c1,0,1.9,0.4,2.5,0.9l-0.7,0.9c-0.6-0.4-1.1-0.7-1.9-0.7c-1,0-1.5,0.5-1.5,1.2
						c0,0.8,0.9,1.1,1.8,1.4c1.2,0.4,2.5,0.9,2.5,2.5c0,1.3-1.1,2.4-3,2.4C144.9,418.2,143.8,417.7,143,417.1z"/>
					<path class="st2" d="M154.6,415.5V411h-1.2v-1l1.3-0.1l0.2-2.3h1.1v2.3h2.2v1.1h-2.2v4.5c0,1,0.3,1.6,1.3,1.6
						c0.3,0,0.7-0.1,0.9-0.2l0.3,1c-0.5,0.2-1,0.3-1.5,0.3C155.2,418.2,154.6,417.1,154.6,415.5z"/>
					<path class="st2" d="M159.1,413.9c0-2.7,1.8-4.3,3.8-4.3c2,0,3.8,1.6,3.8,4.3c0,2.7-1.8,4.3-3.8,4.3
						C160.9,418.2,159.1,416.6,159.1,413.9z M165.3,413.9c0-1.9-1-3.2-2.4-3.2c-1.4,0-2.4,1.3-2.4,3.2s0.9,3.1,2.4,3.1
						C164.3,417.1,165.3,415.8,165.3,413.9z"/>
					<path class="st2" d="M168.9,409.9h1.1l0.1,0.9h0c0.7-0.6,1.6-1.1,2.6-1.1c2.1,0,3.2,1.6,3.2,4.2c0,2.8-1.7,4.4-3.5,4.4
						c-0.7,0-1.5-0.3-2.2-0.9l0,1.4v2.8h-1.4V409.9z M174.6,413.8c0-1.8-0.6-3-2.1-3c-0.7,0-1.4,0.4-2.2,1.1v4.3
						c0.7,0.6,1.5,0.9,2,0.9C173.6,417.1,174.6,415.8,174.6,413.8z"/>
					<path class="st2" d="M182.8,417.2L182.8,417.2l-0.2,0.8h-1.1v-11.9h1.4v3.3l0,1.5c0.7-0.6,1.6-1.2,2.5-1.2
						c2.1,0,3.3,1.6,3.3,4.1c0,2.8-1.7,4.4-3.5,4.4C184.3,418.2,183.5,417.8,182.8,417.2z M187.2,413.8c0-1.8-0.6-3-2.1-3
						c-0.7,0-1.4,0.4-2.2,1.1v4.3c0.7,0.6,1.5,0.9,2,0.9C186.2,417.1,187.2,415.8,187.2,413.8z"/>
					<path class="st2" d="M190.2,413.9c0-2.7,1.8-4.3,3.8-4.3s3.8,1.6,3.8,4.3c0,2.7-1.8,4.3-3.8,4.3S190.2,416.6,190.2,413.9z
						 M196.3,413.9c0-1.9-1-3.2-2.4-3.2c-1.4,0-2.4,1.3-2.4,3.2s0.9,3.1,2.4,3.1C195.4,417.1,196.3,415.8,196.3,413.9z"/>
					<path class="st2" d="M199.8,415.5V411h-1.2v-1l1.3-0.1l0.2-2.3h1.1v2.3h2.2v1.1h-2.2v4.5c0,1,0.3,1.6,1.3,1.6
						c0.3,0,0.7-0.1,0.9-0.2l0.3,1c-0.5,0.2-1,0.3-1.5,0.3C200.4,418.2,199.8,417.1,199.8,415.5z"/>
					<path class="st2" d="M204.4,415.9c0-1.8,1.5-2.7,5-3c0-1-0.3-2.1-1.7-2.1c-0.9,0-1.8,0.4-2.4,0.9l-0.5-0.9
						c0.8-0.5,1.9-1.1,3.2-1.1c2,0,2.8,1.3,2.8,3.3v5h-1.1l-0.1-1h0c-0.8,0.6-1.7,1.2-2.7,1.2C205.4,418.2,204.4,417.4,204.4,415.9z
						 M209.4,416v-2.3c-2.7,0.3-3.7,1-3.7,2.1c0,0.9,0.6,1.3,1.4,1.3C207.9,417.1,208.6,416.7,209.4,416z"/>
					<path class="st2" d="M213.3,409.9h1.1l0.1,1.2h0c0.8-0.8,1.6-1.4,2.7-1.4c1.7,0,2.5,1.1,2.5,3.2v5.2h-1.4v-5
						c0-1.5-0.5-2.2-1.5-2.2c-0.8,0-1.4,0.4-2.2,1.2v5.9h-1.4V409.9z"/>
					<path class="st2" d="M222.3,407.3c0-0.6,0.4-0.9,0.9-0.9s0.9,0.3,0.9,0.9c0,0.5-0.4,0.9-0.9,0.9S222.3,407.8,222.3,407.3z
						 M222.5,409.9h1.4v8.1h-1.4V409.9z"/>
					<path class="st2" d="M226,413.9c0-2.7,1.8-4.3,3.9-4.3c1.1,0,1.8,0.5,2.4,1l-0.7,0.9c-0.5-0.4-1-0.7-1.6-0.7
						c-1.5,0-2.5,1.3-2.5,3.2s1,3.1,2.5,3.1c0.8,0,1.4-0.3,1.9-0.8l0.6,0.9c-0.7,0.7-1.6,1-2.6,1C227.7,418.2,226,416.6,226,413.9z"
						/>
					<path class="st2" d="M233.6,415.9c0-1.8,1.5-2.7,5-3c0-1-0.3-2.1-1.7-2.1c-0.9,0-1.8,0.4-2.4,0.9l-0.5-0.9
						c0.8-0.5,1.9-1.1,3.2-1.1c2,0,2.8,1.3,2.8,3.3v5h-1.1l-0.1-1h0c-0.8,0.6-1.7,1.2-2.7,1.2C234.6,418.2,233.6,417.4,233.6,415.9z
						 M238.6,416v-2.3c-2.7,0.3-3.7,1-3.7,2.1c0,0.9,0.6,1.3,1.4,1.3C237.2,417.1,237.8,416.7,238.6,416z"/>
					<path class="st2" d="M242.6,416.4v-10.3h1.4v10.4c0,0.4,0.2,0.6,0.4,0.6c0.1,0,0.1,0,0.3,0l0.2,1c-0.2,0.1-0.4,0.1-0.8,0.1
						C243,418.2,242.6,417.5,242.6,416.4z"/>
					<path class="st2" d="M256.4,418l-2.7-4.7h-2v4.7h-1.4v-11h3.4c2.2,0,3.8,0.8,3.8,3.1c0,1.7-1,2.7-2.5,3.1l2.8,4.8H256.4z
						 M251.7,412.2h1.8c1.7,0,2.7-0.7,2.7-2.1c0-1.5-0.9-2-2.7-2h-1.8V412.2z"/>
					<path class="st2" d="M267.9,418.2c-0.8-0.2-1.6-0.6-2.5-1.3c-0.8,0.8-1.9,1.3-3.2,1.3c-2,0-3.3-1.3-3.3-3c0-1.5,1-2.4,2.2-3.2
						c-0.5-0.9-0.7-1.8-0.7-2.6c0-1.5,1-2.6,2.5-2.6c1.4,0,2.2,0.9,2.2,2.2c0,1.4-1.3,2.4-2.5,3.3c0.7,1.1,1.7,2.2,2.8,3.1
						c0.7-0.9,1.2-2,1.6-3.3h1.3c-0.4,1.5-1,2.8-1.9,3.9c0.7,0.5,1.4,0.9,2.1,1L267.9,418.2z M262.4,417.1c0.8,0,1.5-0.3,2.1-0.9
						c-1.1-0.9-2.1-2.1-2.9-3.3c-0.8,0.6-1.4,1.3-1.4,2.1C260.2,416.3,261.2,417.1,262.4,417.1z M262,411.3c1-0.7,1.9-1.3,1.9-2.3
						c0-0.6-0.3-1.2-1.1-1.2c-0.8,0-1.3,0.7-1.3,1.6C261.5,410,261.7,410.7,262,411.3z"/>
					<path class="st2" d="M270,407h2.8c3.4,0,5.2,2,5.2,5.5c0,3.5-1.8,5.5-5.1,5.5H270V407z M272.7,416.9c2.6,0,3.9-1.6,3.9-4.4
						c0-2.8-1.3-4.3-3.9-4.3h-1.2v8.7H272.7z"/>
				</g>
				<g class="st1">
					<path class="st2" d="M30.8,448.9c0-2.7,1.8-4.3,3.9-4.3c1.1,0,1.8,0.5,2.4,1l-0.7,0.9c-0.5-0.4-1-0.7-1.6-0.7
						c-1.5,0-2.5,1.3-2.5,3.2s1,3.1,2.5,3.1c0.8,0,1.4-0.3,1.9-0.8l0.6,0.9c-0.7,0.7-1.6,1-2.6,1C32.4,453.2,30.8,451.6,30.8,448.9z
						"/>
					<path class="st2" d="M38,448.9c0-2.7,1.8-4.3,3.8-4.3c2,0,3.8,1.6,3.8,4.3c0,2.7-1.8,4.3-3.8,4.3C39.8,453.2,38,451.6,38,448.9
						z M44.2,448.9c0-1.9-1-3.2-2.4-3.2c-1.4,0-2.4,1.3-2.4,3.2s0.9,3.1,2.4,3.1C43.2,452.1,44.2,450.8,44.2,448.9z"/>
					<path class="st2" d="M47.7,444.9h1.1L49,446h0c0.7-0.8,1.6-1.4,2.5-1.4c1.2,0,1.9,0.6,2.2,1.6c0.8-0.9,1.7-1.6,2.7-1.6
						c1.7,0,2.5,1.1,2.5,3.2v5.2h-1.4v-5c0-1.5-0.5-2.2-1.5-2.2c-0.6,0-1.3,0.4-2.1,1.2v5.9h-1.4v-5c0-1.5-0.5-2.2-1.5-2.2
						c-0.6,0-1.3,0.4-2.1,1.2v5.9h-1.4V444.9z"/>
					<path class="st2" d="M61.6,444.9h1.1l0.1,0.9h0c0.7-0.6,1.6-1.1,2.6-1.1c2.1,0,3.2,1.6,3.2,4.2c0,2.8-1.7,4.4-3.5,4.4
						c-0.7,0-1.5-0.3-2.2-0.9l0,1.4v2.8h-1.4V444.9z M67.3,448.8c0-1.8-0.6-3-2.1-3c-0.7,0-1.4,0.4-2.2,1.1v4.3
						c0.7,0.6,1.5,0.9,2,0.9C66.3,452.1,67.3,450.8,67.3,448.8z"/>
					<path class="st2" d="M70.2,450.9c0-1.8,1.5-2.7,5-3c0-1-0.3-2.1-1.7-2.1c-0.9,0-1.8,0.4-2.4,0.9l-0.5-0.9
						c0.8-0.5,1.9-1.1,3.2-1.1c2,0,2.8,1.3,2.8,3.3v5h-1.1l-0.1-1h0c-0.8,0.6-1.7,1.2-2.7,1.2C71.2,453.2,70.2,452.4,70.2,450.9z
						 M75.2,451v-2.3c-2.7,0.3-3.7,1-3.7,2.1c0,0.9,0.6,1.3,1.4,1.3C73.8,452.1,74.4,451.7,75.2,451z"/>
					<path class="st2" d="M79.2,444.9h1.1l0.1,1.2h0c0.8-0.8,1.6-1.4,2.7-1.4c1.7,0,2.5,1.1,2.5,3.2v5.2h-1.4v-5
						c0-1.5-0.5-2.2-1.5-2.2c-0.8,0-1.4,0.4-2.2,1.2v5.9h-1.4V444.9z"/>
					<path class="st2" d="M87.5,456.3l0.3-1.1c0.2,0.1,0.4,0.1,0.6,0.1c0.9,0,1.5-0.8,1.8-1.8l0.2-0.6l-3.3-8.2h1.4l1.7,4.5
						c0.2,0.7,0.5,1.5,0.8,2.3h0.1c0.2-0.7,0.5-1.6,0.7-2.3l1.5-4.5h1.3l-3.1,8.8c-0.6,1.6-1.4,2.8-3,2.8
						C88.1,456.5,87.7,456.5,87.5,456.3z"/>
				</g>
			</g>
			
				<g id="arrow" transform="translate(167.500000, 576.500000) rotate(-270.000000) translate(-167.500000, -576.500000) translate(117.000000, 566.500000)">
				<path id="Line" class="st6" d="M0.5,10h100"/>
				<polyline id="Stroke-1" class="st7" points="90,0 101,10 90,20 				"/>
				<polyline class="st7" points="11,20 0,10 11,0 				"/>
			</g>
			<g id="box3" transform="translate(0.000000, 646.500000)">
				<path class="st8" d="M9,1h316c4.4,0,8,3.6,8,8v132c0,4.4-3.6,8-8,8H9c-4.4,0-8-3.6-8-8V9C1,4.6,4.6,1,9,1z"/>
				<g class="st1">
					<path class="st9" d="M22.2,45h2.9c3.4,0,5.3,1.9,5.3,5.5c0,3.6-1.9,5.6-5.2,5.6h-3V45z M25,54.6c2.4,0,3.6-1.4,3.6-4.1
						c0-2.8-1.3-4.1-3.6-4.1h-1v8.2H25z"/>
					<path class="st9" d="M32.3,45.2c0-0.6,0.5-1,1.1-1c0.6,0,1.1,0.4,1.1,1c0,0.6-0.5,1-1.1,1C32.8,46.2,32.3,45.8,32.3,45.2z
						 M32.6,47.8h1.7V56h-1.7V47.8z"/>
					<path class="st9" d="M36,55.1l0.8-1.1c0.7,0.6,1.5,0.9,2.3,0.9c1,0,1.5-0.5,1.5-1.1c0-0.8-0.9-1.1-1.8-1.4
						c-1.1-0.4-2.4-1-2.4-2.4c0-1.4,1.1-2.4,2.9-2.4c1.1,0,2,0.5,2.7,1l-0.8,1.1c-0.6-0.4-1.2-0.7-1.8-0.7c-0.9,0-1.3,0.5-1.3,1
						c0,0.7,0.9,1,1.8,1.3c1.2,0.4,2.4,0.9,2.4,2.5c0,1.4-1.1,2.5-3.1,2.5C38,56.2,36.8,55.7,36,55.1z"/>
					<path class="st9" d="M43.5,51.9c0-2.7,1.8-4.4,3.8-4.4c2.2,0,3.4,1.6,3.4,3.9c0,0.3,0,0.7-0.1,0.9h-5.4
						c0.1,1.6,1.1,2.5,2.5,2.5c0.7,0,1.4-0.2,2-0.6l0.6,1.1c-0.8,0.5-1.7,0.9-2.8,0.9C45.3,56.2,43.5,54.6,43.5,51.9z M49.1,51.1
						c0-1.4-0.6-2.2-1.8-2.2c-1,0-1.9,0.8-2.1,2.2H49.1z"/>
					<path class="st9" d="M51.9,53.8c0-1.8,1.5-2.7,4.9-3.1c0-1-0.4-1.8-1.6-1.8c-0.9,0-1.7,0.4-2.4,0.8l-0.6-1.2
						c0.9-0.5,2-1.1,3.3-1.1c2.1,0,3,1.3,3,3.5v5h-1.4L57,55.1h0c-0.8,0.6-1.6,1.1-2.6,1.1C52.9,56.2,51.9,55.3,51.9,53.8z
						 M56.8,53.9v-2c-2.4,0.3-3.3,0.9-3.3,1.8c0,0.8,0.6,1.1,1.3,1.1C55.5,54.8,56.1,54.5,56.8,53.9z"/>
					<path class="st9" d="M60.1,55.1l0.8-1.1c0.7,0.6,1.5,0.9,2.3,0.9c1,0,1.5-0.5,1.5-1.1c0-0.8-0.9-1.1-1.8-1.4
						c-1.1-0.4-2.4-1-2.4-2.4c0-1.4,1.1-2.4,2.9-2.4c1.1,0,2,0.5,2.7,1l-0.8,1.1c-0.6-0.4-1.2-0.7-1.8-0.7c-0.9,0-1.3,0.5-1.3,1
						c0,0.7,0.9,1,1.8,1.3c1.2,0.4,2.4,0.9,2.4,2.5c0,1.4-1.1,2.5-3.1,2.5C62.1,56.2,60.9,55.7,60.1,55.1z"/>
					<path class="st9" d="M67.6,51.9c0-2.7,1.8-4.4,3.8-4.4c2.2,0,3.4,1.6,3.4,3.9c0,0.3,0,0.7-0.1,0.9h-5.4
						c0.1,1.6,1.1,2.5,2.5,2.5c0.7,0,1.4-0.2,2-0.6l0.6,1.1c-0.8,0.5-1.7,0.9-2.8,0.9C69.4,56.2,67.6,54.6,67.6,51.9z M73.2,51.1
						c0-1.4-0.6-2.2-1.8-2.2c-1,0-1.9,0.8-2.1,2.2H73.2z"/>
					<path class="st9" d="M76.2,51.1h4v1.3h-4V51.1z"/>
					<path class="st9" d="M82.2,47.8h1.4l0.1,1.2h0c0.7-0.8,1.5-1.4,2.5-1.4c1.2,0,1.9,0.6,2.3,1.5c0.8-0.9,1.6-1.5,2.7-1.5
						c1.7,0,2.5,1.2,2.5,3.3V56h-1.7v-5c0-1.4-0.5-2-1.4-2c-0.6,0-1.2,0.4-1.9,1.1V56h-1.7v-5c0-1.4-0.4-2-1.4-2
						c-0.6,0-1.2,0.4-1.9,1.1V56h-1.7V47.8z"/>
					<path class="st9" d="M95.7,51.9c0-2.8,1.8-4.4,3.9-4.4c2,0,3.9,1.6,3.9,4.4c0,2.7-1.8,4.3-3.9,4.3
						C97.5,56.2,95.7,54.6,95.7,51.9z M101.7,51.9c0-1.8-0.8-2.9-2.1-2.9c-1.3,0-2.1,1.2-2.1,2.9c0,1.7,0.8,2.9,2.1,2.9
						C100.9,54.8,101.7,53.6,101.7,51.9z"/>
					<path class="st9" d="M104.9,51.9c0-2.7,1.7-4.4,3.5-4.4c0.9,0,1.5,0.4,2.2,0.9l-0.1-1.4V44h1.7v12h-1.4l-0.1-0.9h0
						c-0.6,0.6-1.5,1.1-2.4,1.1C106.3,56.2,104.9,54.6,104.9,51.9z M110.6,53.8v-4c-0.6-0.6-1.2-0.8-1.8-0.8c-1.2,0-2.1,1.1-2.1,2.9
						c0,1.9,0.7,2.9,2,2.9C109.4,54.8,110,54.5,110.6,53.8z"/>
					<path class="st9" d="M114.7,45.2c0-0.6,0.5-1,1.1-1c0.6,0,1.1,0.4,1.1,1c0,0.6-0.5,1-1.1,1C115.2,46.2,114.7,45.8,114.7,45.2z
						 M114.9,47.8h1.7V56h-1.7V47.8z"/>
					<path class="st9" d="M123.3,45.4c-0.3-0.1-0.6-0.2-0.9-0.2c-0.7,0-1.1,0.5-1.1,1.5v1h1.7v1.4h-1.7V56h-1.7v-6.9h-1.1v-1.3
						l1.1-0.1v-1c0-1.7,0.8-2.9,2.6-2.9c0.6,0,1.1,0.1,1.5,0.3L123.3,45.4z"/>
					<path class="st9" d="M128.1,56.5c-0.6,1.8-1.5,3-3.3,3c-0.4,0-0.7-0.1-1-0.2l0.3-1.4c0.1,0,0.4,0.1,0.6,0.1
						c0.9,0,1.4-0.7,1.7-1.5l0.2-0.6l-3.3-8.2h1.8l1.5,4.2c0.2,0.7,0.5,1.6,0.8,2.3h0.1l0.6-2.3l1.3-4.2h1.7L128.1,56.5z"/>
					<path class="st9" d="M132.3,45.2c0-0.6,0.5-1,1.1-1c0.6,0,1.1,0.4,1.1,1c0,0.6-0.5,1-1.1,1C132.8,46.2,132.3,45.8,132.3,45.2z
						 M132.6,47.8h1.7V56h-1.7V47.8z"/>
					<path class="st9" d="M136.9,47.8h1.4l0.1,1.1h0c0.8-0.7,1.6-1.4,2.7-1.4c1.8,0,2.5,1.2,2.5,3.3V56H142v-5c0-1.4-0.4-2-1.4-2
						c-0.8,0-1.3,0.4-2,1.1V56h-1.7V47.8z"/>
					<path class="st9" d="M145.7,57.5c0-0.7,0.4-1.3,1.2-1.8v-0.1c-0.4-0.3-0.8-0.7-0.8-1.4c0-0.6,0.5-1.2,0.9-1.5v-0.1
						c-0.6-0.4-1.1-1.2-1.1-2.2c0-1.9,1.5-3,3.2-3c0.5,0,0.9,0.1,1.2,0.2h2.9V49h-1.6c0.3,0.3,0.5,0.9,0.5,1.5
						c0,1.8-1.4,2.8-3.1,2.8c-0.4,0-0.8-0.1-1.2-0.3c-0.3,0.2-0.4,0.5-0.4,0.9c0,0.5,0.3,0.8,1.4,0.8h1.5c2,0,3,0.6,3,2
						c0,1.6-1.7,2.9-4.3,2.9C147.1,59.7,145.7,59,145.7,57.5z M151.7,57.1c0-0.7-0.5-0.9-1.5-0.9h-1.2c-0.4,0-0.8,0-1.1-0.1
						c-0.5,0.4-0.7,0.8-0.7,1.2c0,0.8,0.8,1.3,2.2,1.3C150.8,58.6,151.7,57.9,151.7,57.1z M150.7,50.5c0-1.1-0.7-1.8-1.6-1.8
						c-0.9,0-1.6,0.6-1.6,1.8c0,1.1,0.7,1.8,1.6,1.8C150,52.3,150.7,51.6,150.7,50.5z"/>
					<path class="st9" d="M158.6,53.3v-4.2h-1.2v-1.3l1.3-0.1l0.2-2.3h1.5v2.3h2.1v1.4h-2.1v4.2c0,1,0.3,1.5,1.2,1.5
						c0.3,0,0.6-0.1,0.9-0.2l0.3,1.3c-0.5,0.2-1,0.3-1.6,0.3C159.2,56.2,158.6,55,158.6,53.3z"/>
					<path class="st9" d="M164.2,44h1.7v3.2l-0.1,1.6c0.7-0.7,1.5-1.3,2.7-1.3c1.8,0,2.5,1.2,2.5,3.3V56h-1.7v-5c0-1.4-0.4-2-1.4-2
						c-0.8,0-1.3,0.4-2,1.1V56h-1.7V44z"/>
					<path class="st9" d="M173,51.9c0-2.7,1.8-4.4,3.8-4.4c2.2,0,3.4,1.6,3.4,3.9c0,0.3,0,0.7-0.1,0.9h-5.4c0.1,1.6,1.1,2.5,2.5,2.5
						c0.7,0,1.4-0.2,2-0.6l0.6,1.1c-0.8,0.5-1.7,0.9-2.8,0.9C174.8,56.2,173,54.6,173,51.9z M178.6,51.1c0-1.4-0.6-2.2-1.8-2.2
						c-1,0-2,0.8-2.1,2.2H178.6z"/>
					<path class="st9" d="M182,47.8h1.4l0.1,1.5h0c0.6-1.1,1.5-1.7,2.3-1.7c0.4,0,0.7,0.1,0.9,0.2l-0.3,1.5
						c-0.3-0.1-0.5-0.1-0.8-0.1c-0.7,0-1.5,0.5-2,1.8V56H182V47.8z"/>
					<path class="st9" d="M187.3,53.8c0-1.8,1.5-2.7,4.9-3.1c0-1-0.4-1.8-1.6-1.8c-0.9,0-1.7,0.4-2.4,0.8l-0.6-1.2
						c0.9-0.5,2-1.1,3.3-1.1c2.1,0,3,1.3,3,3.5v5h-1.4l-0.1-0.9h0c-0.8,0.6-1.6,1.1-2.6,1.1C188.3,56.2,187.3,55.3,187.3,53.8z
						 M192.2,53.9v-2c-2.4,0.3-3.3,0.9-3.3,1.8c0,0.8,0.6,1.1,1.3,1.1C190.9,54.8,191.5,54.5,192.2,53.9z"/>
					<path class="st9" d="M196.4,47.8h1.4l0.1,0.9h0c0.7-0.6,1.6-1.1,2.5-1.1c2.1,0,3.3,1.7,3.3,4.2c0,2.8-1.7,4.5-3.6,4.5
						c-0.7,0-1.5-0.3-2.2-0.9l0,1.4v2.7h-1.7V47.8z M202,51.8c0-1.7-0.6-2.8-1.9-2.8c-0.6,0-1.3,0.3-2,1v4c0.6,0.6,1.3,0.8,1.8,0.8
						C201.1,54.8,202,53.7,202,51.8z"/>
					<path class="st9" d="M209.4,56.5c-0.6,1.8-1.5,3-3.3,3c-0.4,0-0.8-0.1-1-0.2l0.3-1.4c0.1,0,0.4,0.1,0.6,0.1
						c0.9,0,1.4-0.7,1.7-1.5l0.2-0.6l-3.3-8.2h1.8l1.5,4.2c0.2,0.7,0.5,1.6,0.8,2.3h0.1l0.6-2.3l1.3-4.2h1.7L209.4,56.5z"/>
					<path class="st9" d="M216.7,51.9c0-2.7,1.7-4.4,3.5-4.4c0.9,0,1.5,0.4,2.2,0.9l-0.1-1.4V44h1.7v12h-1.4l-0.2-0.9h0
						c-0.6,0.6-1.5,1.1-2.4,1.1C218,56.2,216.7,54.6,216.7,51.9z M222.4,53.8v-4c-0.6-0.6-1.2-0.8-1.8-0.8c-1.2,0-2.1,1.1-2.1,2.9
						c0,1.9,0.7,2.9,2,2.9C221.2,54.8,221.8,54.5,222.4,53.8z"/>
					<path class="st9" d="M226.5,45.2c0-0.6,0.5-1,1.1-1c0.6,0,1.1,0.4,1.1,1c0,0.6-0.5,1-1.1,1C226.9,46.2,226.5,45.8,226.5,45.2z
						 M226.7,47.8h1.7V56h-1.7V47.8z"/>
					<path class="st9" d="M240,45.4c-0.3-0.1-0.6-0.2-0.9-0.2c-0.7,0-1.1,0.5-1.1,1.5v1h1.7v1.4H238V56h-1.7v-6.9H233V56h-1.7v-6.9
						h-1.1v-1.3l1.1-0.1v-0.9c0-1.7,0.9-2.9,2.7-2.9c0.6,0,1.2,0.1,1.6,0.3l-0.3,1.3c-0.3-0.2-0.6-0.2-1.1-0.2
						c-0.7,0-1.2,0.5-1.2,1.5v0.9h3.2v-1c0-1.7,0.8-2.9,2.6-2.9c0.6,0,1.1,0.1,1.5,0.3L240,45.4z"/>
					<path class="st9" d="M240.4,51.9c0-2.7,1.8-4.4,3.8-4.4c2.2,0,3.4,1.6,3.4,3.9c0,0.3,0,0.7-0.1,0.9h-5.4
						c0.1,1.6,1.1,2.5,2.6,2.5c0.7,0,1.4-0.2,2-0.6l0.6,1.1c-0.8,0.5-1.7,0.9-2.8,0.9C242.2,56.2,240.4,54.6,240.4,51.9z
						 M246.1,51.1c0-1.4-0.6-2.2-1.8-2.2c-1,0-1.9,0.8-2.1,2.2H246.1z"/>
					<path class="st9" d="M249.5,47.8h1.4l0.1,1.5h0c0.6-1.1,1.5-1.7,2.3-1.7c0.4,0,0.7,0.1,0.9,0.2l-0.3,1.5
						c-0.3-0.1-0.5-0.1-0.8-0.1c-0.7,0-1.5,0.5-2,1.8V56h-1.7V47.8z"/>
					<path class="st9" d="M254.9,51.9c0-2.7,1.8-4.4,3.8-4.4c2.2,0,3.4,1.6,3.4,3.9c0,0.3,0,0.7-0.1,0.9h-5.4
						c0.1,1.6,1.1,2.5,2.5,2.5c0.7,0,1.4-0.2,2-0.6l0.6,1.1c-0.8,0.5-1.7,0.9-2.8,0.9C256.6,56.2,254.9,54.6,254.9,51.9z
						 M260.5,51.1c0-1.4-0.6-2.2-1.8-2.2c-1,0-1.9,0.8-2.1,2.2H260.5z"/>
					<path class="st9" d="M263.9,47.8h1.4l0.1,1.1h0c0.8-0.7,1.6-1.4,2.7-1.4c1.8,0,2.5,1.2,2.5,3.3V56h-1.7v-5c0-1.4-0.4-2-1.4-2
						c-0.8,0-1.3,0.4-2,1.1V56h-1.7V47.8z"/>
					<path class="st9" d="M273.6,53.3v-4.2h-1.2v-1.3l1.3-0.1l0.2-2.3h1.5v2.3h2.1v1.4h-2.1v4.2c0,1,0.3,1.5,1.2,1.5
						c0.3,0,0.6-0.1,0.9-0.2l0.3,1.3c-0.5,0.2-1,0.3-1.6,0.3C274.2,56.2,273.6,55,273.6,53.3z"/>
					<path class="st9" d="M279,45.2c0-0.6,0.5-1,1.1-1c0.6,0,1.1,0.4,1.1,1c0,0.6-0.5,1-1.1,1C279.4,46.2,279,45.8,279,45.2z
						 M279.2,47.8h1.7V56h-1.7V47.8z"/>
					<path class="st9" d="M283,53.8c0-1.8,1.5-2.7,4.9-3.1c0-1-0.4-1.8-1.6-1.8c-0.9,0-1.7,0.4-2.4,0.8l-0.6-1.2
						c0.9-0.5,2-1.1,3.3-1.1c2.1,0,3,1.3,3,3.5v5h-1.4l-0.1-0.9h0c-0.8,0.6-1.6,1.1-2.6,1.1C284.1,56.2,283,55.3,283,53.8z
						 M288,53.9v-2c-2.4,0.3-3.3,0.9-3.3,1.8c0,0.8,0.6,1.1,1.3,1.1C286.7,54.8,287.3,54.5,288,53.9z"/>
					<path class="st9" d="M292.2,53.3v-4.2H291v-1.3l1.3-0.1l0.2-2.3h1.5v2.3h2.1v1.4h-2.1v4.2c0,1,0.3,1.5,1.2,1.5
						c0.3,0,0.6-0.1,0.9-0.2l0.3,1.3c-0.5,0.2-1,0.3-1.6,0.3C292.8,56.2,292.2,55,292.2,53.3z"/>
					<path class="st9" d="M297,51.9c0-2.7,1.8-4.4,3.8-4.4c2.2,0,3.4,1.6,3.4,3.9c0,0.3,0,0.7-0.1,0.9h-5.4c0.1,1.6,1.1,2.5,2.5,2.5
						c0.7,0,1.4-0.2,2-0.6l0.6,1.1c-0.8,0.5-1.7,0.9-2.8,0.9C298.8,56.2,297,54.6,297,51.9z M302.6,51.1c0-1.4-0.6-2.2-1.8-2.2
						c-1,0-2,0.8-2.1,2.2H302.6z"/>
					<path class="st9" d="M305.5,51.9c0-2.7,1.7-4.4,3.5-4.4c0.9,0,1.5,0.4,2.2,0.9l-0.1-1.4V44h1.7v12h-1.4l-0.2-0.9h0
						c-0.6,0.6-1.5,1.1-2.4,1.1C306.8,56.2,305.5,54.6,305.5,51.9z M311.2,53.8v-4c-0.6-0.6-1.2-0.8-1.8-0.8c-1.2,0-2.1,1.1-2.1,2.9
						c0,1.9,0.7,2.9,2,2.9C310,54.8,310.6,54.5,311.2,53.8z"/>
				</g>
				<g class="st1">
					<path class="st9" d="M40,85.4c-0.3-0.1-0.6-0.2-0.9-0.2c-0.7,0-1.1,0.5-1.1,1.5v1h1.7v1.4H38V96h-1.7v-6.9h-1.1v-1.3l1.1-0.1
						v-1c0-1.7,0.8-2.9,2.6-2.9c0.6,0,1.1,0.1,1.5,0.3L40,85.4z"/>
					<path class="st9" d="M41.1,87.8h1.4l0.1,1.5h0c0.6-1.1,1.5-1.7,2.3-1.7c0.4,0,0.7,0.1,0.9,0.2l-0.3,1.5
						c-0.3-0.1-0.5-0.1-0.8-0.1c-0.7,0-1.5,0.5-2,1.8V96h-1.7V87.8z"/>
					<path class="st9" d="M46.5,91.9c0-2.8,1.8-4.4,3.9-4.4c2,0,3.9,1.6,3.9,4.4c0,2.7-1.8,4.3-3.9,4.3
						C48.4,96.2,46.5,94.6,46.5,91.9z M52.5,91.9c0-1.8-0.8-2.9-2.1-2.9c-1.3,0-2.1,1.2-2.1,2.9c0,1.7,0.8,2.9,2.1,2.9
						C51.7,94.8,52.5,93.6,52.5,91.9z"/>
					<path class="st9" d="M56.3,87.8h1.4l0.1,1.2h0c0.7-0.8,1.5-1.4,2.5-1.4c1.2,0,1.9,0.6,2.3,1.5c0.8-0.9,1.6-1.5,2.7-1.5
						c1.7,0,2.5,1.2,2.5,3.3V96h-1.7v-5c0-1.4-0.5-2-1.4-2c-0.6,0-1.2,0.4-1.9,1.1V96h-1.7v-5c0-1.4-0.4-2-1.4-2
						c-0.6,0-1.2,0.4-1.9,1.1V96h-1.7V87.8z"/>
					<path class="st9" d="M73,95.1l0.8-1.1c0.7,0.6,1.5,0.9,2.3,0.9c1,0,1.5-0.5,1.5-1.1c0-0.8-0.9-1.1-1.8-1.4
						c-1.1-0.4-2.4-1-2.4-2.4c0-1.4,1.1-2.4,2.9-2.4c1.1,0,2,0.5,2.7,1l-0.8,1.1c-0.6-0.4-1.2-0.7-1.8-0.7c-0.9,0-1.3,0.5-1.3,1
						c0,0.7,0.9,1,1.8,1.3c1.2,0.4,2.4,0.9,2.4,2.5c0,1.4-1.1,2.5-3.1,2.5C74.9,96.2,73.7,95.7,73,95.1z"/>
					<path class="st9" d="M80.8,85.2c0-0.6,0.5-1,1.1-1c0.6,0,1.1,0.4,1.1,1c0,0.6-0.5,1-1.1,1C81.2,86.2,80.8,85.8,80.8,85.2z
						 M81,87.8h1.7V96H81V87.8z"/>
					<path class="st9" d="M85.3,87.8h1.4l0.1,1.1h0c0.8-0.7,1.6-1.4,2.7-1.4c1.8,0,2.5,1.2,2.5,3.3V96h-1.7v-5c0-1.4-0.4-2-1.4-2
						c-0.8,0-1.3,0.4-2,1.1V96h-1.7V87.8z"/>
					<path class="st9" d="M94.1,97.5c0-0.7,0.4-1.3,1.2-1.8v-0.1c-0.4-0.3-0.8-0.7-0.8-1.4c0-0.6,0.5-1.2,0.9-1.5v-0.1
						c-0.6-0.4-1.1-1.2-1.1-2.2c0-1.9,1.5-3,3.2-3c0.5,0,0.9,0.1,1.2,0.2h2.9V89h-1.6c0.3,0.3,0.5,0.9,0.5,1.5
						c0,1.8-1.4,2.8-3.1,2.8c-0.4,0-0.8-0.1-1.2-0.3C96.1,93.4,96,93.6,96,94c0,0.5,0.3,0.8,1.4,0.8h1.5c2,0,3,0.6,3,2
						c0,1.6-1.7,2.9-4.3,2.9C95.5,99.7,94.1,99,94.1,97.5z M100.2,97.1c0-0.7-0.5-0.9-1.5-0.9h-1.2c-0.4,0-0.8,0-1.1-0.1
						c-0.5,0.4-0.7,0.8-0.7,1.2c0,0.8,0.8,1.3,2.2,1.3C99.2,98.6,100.2,97.9,100.2,97.1z M99.1,90.5c0-1.1-0.7-1.8-1.6-1.8
						c-0.9,0-1.6,0.6-1.6,1.8c0,1.1,0.7,1.8,1.6,1.8C98.4,92.3,99.1,91.6,99.1,90.5z"/>
					<path class="st9" d="M103.4,94.1V84h1.7v10.1c0,0.5,0.2,0.6,0.4,0.6c0.1,0,0.1,0,0.3,0l0.2,1.3c-0.2,0.1-0.5,0.1-0.9,0.1
						C103.8,96.2,103.4,95.4,103.4,94.1z"/>
					<path class="st9" d="M107.2,91.9c0-2.7,1.8-4.4,3.8-4.4c2.2,0,3.4,1.6,3.4,3.9c0,0.3,0,0.7-0.1,0.9h-5.4
						c0.1,1.6,1.1,2.5,2.5,2.5c0.7,0,1.4-0.2,2-0.6l0.6,1.1c-0.8,0.5-1.7,0.9-2.8,0.9C109,96.2,107.2,94.6,107.2,91.9z M112.9,91.1
						c0-1.4-0.6-2.2-1.8-2.2c-1,0-1.9,0.8-2.1,2.2H112.9z"/>
					<path class="st9" d="M115.9,91.1h4v1.3h-4V91.1z"/>
					<path class="st9" d="M121.7,93.3v-4.2h-1.2v-1.3l1.3-0.1l0.2-2.3h1.5v2.3h2.1v1.4h-2.1v4.2c0,1,0.3,1.5,1.2,1.5
						c0.3,0,0.6-0.1,0.9-0.2l0.3,1.3c-0.5,0.2-1,0.3-1.6,0.3C122.3,96.2,121.7,95,121.7,93.3z"/>
					<path class="st9" d="M126.5,93.8c0-1.8,1.5-2.7,4.9-3.1c0-1-0.4-1.8-1.6-1.8c-0.9,0-1.7,0.4-2.4,0.8l-0.6-1.2
						c0.9-0.5,2-1.1,3.3-1.1c2.1,0,3,1.3,3,3.5v5h-1.4l-0.1-0.9h0c-0.8,0.6-1.6,1.1-2.6,1.1C127.5,96.2,126.5,95.3,126.5,93.8z
						 M131.4,93.9v-2c-2.4,0.3-3.3,0.9-3.3,1.8c0,0.8,0.6,1.1,1.3,1.1C130.2,94.8,130.8,94.5,131.4,93.9z"/>
					<path class="st9" d="M135.6,87.8h1.4l0.1,1.5h0c0.6-1.1,1.5-1.7,2.3-1.7c0.4,0,0.7,0.1,0.9,0.2l-0.3,1.5
						c-0.3-0.1-0.5-0.1-0.8-0.1c-0.7,0-1.5,0.5-2,1.8V96h-1.7V87.8z"/>
					<path class="st9" d="M141,97.5c0-0.7,0.4-1.3,1.2-1.8v-0.1c-0.4-0.3-0.8-0.7-0.8-1.4c0-0.6,0.5-1.2,0.9-1.5v-0.1
						c-0.6-0.4-1.1-1.2-1.1-2.2c0-1.9,1.5-3,3.2-3c0.5,0,0.9,0.1,1.2,0.2h2.9V89H147c0.3,0.3,0.5,0.9,0.5,1.5c0,1.8-1.4,2.8-3.1,2.8
						c-0.4,0-0.8-0.1-1.2-0.3c-0.3,0.2-0.4,0.5-0.4,0.9c0,0.5,0.3,0.8,1.4,0.8h1.5c2,0,3,0.6,3,2c0,1.6-1.7,2.9-4.3,2.9
						C142.4,99.7,141,99,141,97.5z M147.1,97.1c0-0.7-0.5-0.9-1.5-0.9h-1.2c-0.4,0-0.8,0-1.1-0.1c-0.5,0.4-0.7,0.8-0.7,1.2
						c0,0.8,0.8,1.3,2.2,1.3C146.1,98.6,147.1,97.9,147.1,97.1z M146,90.5c0-1.1-0.7-1.8-1.6-1.8c-0.9,0-1.6,0.6-1.6,1.8
						c0,1.1,0.7,1.8,1.6,1.8C145.3,92.3,146,91.6,146,90.5z"/>
					<path class="st9" d="M149.4,91.9c0-2.7,1.8-4.4,3.8-4.4c2.2,0,3.4,1.6,3.4,3.9c0,0.3,0,0.7-0.1,0.9h-5.4
						c0.1,1.6,1.1,2.5,2.5,2.5c0.7,0,1.4-0.2,2-0.6l0.6,1.1c-0.8,0.5-1.7,0.9-2.8,0.9C151.2,96.2,149.4,94.6,149.4,91.9z M155,91.1
						c0-1.4-0.6-2.2-1.8-2.2c-1,0-1.9,0.8-2.1,2.2H155z"/>
					<path class="st9" d="M158.6,93.3v-4.2h-1.2v-1.3l1.3-0.1l0.2-2.3h1.5v2.3h2.1v1.4h-2.1v4.2c0,1,0.3,1.5,1.2,1.5
						c0.3,0,0.6-0.1,0.9-0.2l0.3,1.3c-0.5,0.2-1,0.3-1.6,0.3C159.2,96.2,158.6,95,158.6,93.3z"/>
					<path class="st9" d="M163.4,91.9c0-2.7,1.8-4.4,3.8-4.4c2.2,0,3.4,1.6,3.4,3.9c0,0.3,0,0.7-0.1,0.9h-5.4
						c0.1,1.6,1.1,2.5,2.5,2.5c0.7,0,1.4-0.2,2-0.6l0.6,1.1c-0.8,0.5-1.7,0.9-2.8,0.9C165.2,96.2,163.4,94.6,163.4,91.9z M169,91.1
						c0-1.4-0.6-2.2-1.8-2.2c-1,0-1.9,0.8-2.1,2.2H169z"/>
					<path class="st9" d="M171.9,91.9c0-2.7,1.7-4.4,3.5-4.4c0.9,0,1.5,0.4,2.2,0.9l-0.1-1.4V84h1.7v12h-1.4l-0.1-0.9h0
						c-0.6,0.6-1.5,1.1-2.4,1.1C173.2,96.2,171.9,94.6,171.9,91.9z M177.6,93.8v-4c-0.6-0.6-1.2-0.8-1.8-0.8c-1.2,0-2.1,1.1-2.1,2.9
						c0,1.9,0.7,2.9,2,2.9C176.4,94.8,177,94.5,177.6,93.8z"/>
					<path class="st9" d="M185.4,85h1.8l3.7,6.5l1.2,2.3h0.1c-0.1-1.1-0.2-2.5-0.2-3.7V85h1.6v11h-1.8l-3.7-6.5l-1.2-2.3h-0.1
						c0.1,1.1,0.2,2.4,0.2,3.6V96h-1.7V85z"/>
					<path class="st9" d="M195.8,90.5c0-3.6,2.2-5.8,5-5.8c1.4,0,2.5,0.7,3.1,1.4l-0.9,1.1c-0.6-0.6-1.3-1-2.2-1
						c-1.9,0-3.2,1.6-3.2,4.2c0,2.6,1.2,4.2,3.2,4.2c1,0,1.8-0.4,2.4-1.2l0.9,1.1c-0.9,1-2,1.6-3.4,1.6
						C198,96.2,195.8,94.1,195.8,90.5z"/>
					<path class="st9" d="M206.1,85h6.5v1.5h-4.8v3.1h4V91h-4v3.6h4.9V96h-6.7V85z"/>
					<path class="st9" d="M217.8,91.9c0-2.8,1.8-4.4,3.9-4.4s3.9,1.6,3.9,4.4c0,2.7-1.8,4.3-3.9,4.3S217.8,94.6,217.8,91.9z
						 M223.8,91.9c0-1.8-0.8-2.9-2.1-2.9c-1.3,0-2.1,1.2-2.1,2.9c0,1.7,0.8,2.9,2.1,2.9C223,94.8,223.8,93.6,223.8,91.9z"/>
					<path class="st9" d="M227.6,87.8h1.4l0.1,1.5h0c0.6-1.1,1.5-1.7,2.3-1.7c0.4,0,0.7,0.1,0.9,0.2l-0.3,1.5
						c-0.3-0.1-0.5-0.1-0.8-0.1c-0.7,0-1.5,0.5-2,1.8V96h-1.7V87.8z"/>
					<path class="st9" d="M238.6,95.1L238.6,95.1l-0.2,0.9h-1.3V84h1.7v3.2l0,1.4c0.7-0.6,1.6-1.1,2.5-1.1c2.1,0,3.3,1.7,3.3,4.2
						c0,2.8-1.7,4.5-3.6,4.5C240.2,96.2,239.3,95.8,238.6,95.1z M242.7,91.8c0-1.7-0.6-2.8-1.9-2.8c-0.6,0-1.3,0.3-2,1v4
						c0.6,0.6,1.3,0.8,1.8,0.8C241.8,94.8,242.7,93.7,242.7,91.8z"/>
					<path class="st9" d="M246.3,85.2c0-0.6,0.5-1,1.1-1s1.1,0.4,1.1,1c0,0.6-0.5,1-1.1,1S246.3,85.8,246.3,85.2z M246.5,87.8h1.7
						V96h-1.7V87.8z"/>
					<path class="st9" d="M250.2,91.9c0-2.8,1.8-4.4,3.9-4.4c2,0,3.9,1.6,3.9,4.4c0,2.7-1.8,4.3-3.9,4.3
						C252.1,96.2,250.2,94.6,250.2,91.9z M256.2,91.9c0-1.8-0.8-2.9-2.1-2.9c-1.3,0-2.1,1.2-2.1,2.9c0,1.7,0.8,2.9,2.1,2.9
						C255.4,94.8,256.2,93.6,256.2,91.9z"/>
					<path class="st9" d="M260,94.1V84h1.7v10.1c0,0.5,0.2,0.6,0.4,0.6c0.1,0,0.1,0,0.3,0l0.2,1.3c-0.2,0.1-0.5,0.1-0.9,0.1
						C260.5,96.2,260,95.4,260,94.1z"/>
					<path class="st9" d="M263.9,91.9c0-2.8,1.8-4.4,3.9-4.4s3.9,1.6,3.9,4.4c0,2.7-1.8,4.3-3.9,4.3S263.9,94.6,263.9,91.9z
						 M269.9,91.9c0-1.8-0.8-2.9-2.1-2.9c-1.3,0-2.1,1.2-2.1,2.9c0,1.7,0.8,2.9,2.1,2.9C269.1,94.8,269.9,93.6,269.9,91.9z"/>
					<path class="st9" d="M273.1,97.5c0-0.7,0.4-1.3,1.2-1.8v-0.1c-0.4-0.3-0.8-0.7-0.8-1.4c0-0.6,0.5-1.2,0.9-1.5v-0.1
						c-0.6-0.4-1.1-1.2-1.1-2.2c0-1.9,1.5-3,3.2-3c0.5,0,0.9,0.1,1.2,0.2h2.9V89h-1.6c0.3,0.3,0.5,0.9,0.5,1.5
						c0,1.8-1.4,2.8-3.1,2.8c-0.4,0-0.8-0.1-1.2-0.3c-0.3,0.2-0.4,0.5-0.4,0.9c0,0.5,0.3,0.8,1.4,0.8h1.5c2,0,3,0.6,3,2
						c0,1.6-1.7,2.9-4.3,2.9C274.6,99.7,273.1,99,273.1,97.5z M279.2,97.1c0-0.7-0.5-0.9-1.5-0.9h-1.2c-0.4,0-0.8,0-1.1-0.1
						c-0.5,0.4-0.7,0.8-0.7,1.2c0,0.8,0.8,1.3,2.2,1.3C278.2,98.6,279.2,97.9,279.2,97.1z M278.2,90.5c0-1.1-0.7-1.8-1.6-1.8
						s-1.6,0.6-1.6,1.8c0,1.1,0.7,1.8,1.6,1.8C277.4,92.3,278.2,91.6,278.2,90.5z"/>
					<path class="st9" d="M282.1,85.2c0-0.6,0.5-1,1.1-1s1.1,0.4,1.1,1c0,0.6-0.5,1-1.1,1S282.1,85.8,282.1,85.2z M282.4,87.8h1.7
						V96h-1.7V87.8z"/>
					<path class="st9" d="M286.1,91.9c0-2.8,1.9-4.4,4.1-4.4c1,0,1.8,0.4,2.4,0.9l-0.9,1.1c-0.5-0.4-0.9-0.6-1.5-0.6
						c-1.4,0-2.4,1.2-2.4,2.9c0,1.7,0.9,2.9,2.3,2.9c0.7,0,1.3-0.3,1.8-0.8l0.7,1.1c-0.7,0.7-1.7,1-2.7,1
						C287.8,96.2,286.1,94.6,286.1,91.9z"/>
					<path class="st9" d="M293.6,95.1l0.8-1.1c0.7,0.6,1.5,0.9,2.3,0.9c1,0,1.5-0.5,1.5-1.1c0-0.8-0.9-1.1-1.8-1.4
						c-1.1-0.4-2.4-1-2.4-2.4c0-1.4,1.1-2.4,2.9-2.4c1.1,0,2,0.5,2.7,1l-0.8,1.1c-0.6-0.4-1.2-0.7-1.8-0.7c-0.9,0-1.3,0.5-1.3,1
						c0,0.7,0.9,1,1.8,1.3c1.2,0.4,2.4,0.9,2.4,2.5c0,1.4-1.1,2.5-3.1,2.5C295.5,96.2,294.4,95.7,293.6,95.1z"/>
				</g>
			</g>
		</g>
	</g>
</g>
</svg>
