<?xml version="1.0" encoding="utf-8"?>
<!-- Generator: Adobe Illustrator 23.0.4, SVG Export Plug-In . SVG Version: 6.00 Build 0)  -->
<svg version="1.1" id="레이어_1" xmlns="http://www.w3.org/2000/svg" xmlns:xlink="http://www.w3.org/1999/xlink" x="0px"
	 y="0px" viewBox="0 0 1000 505" style="enable-background:new 0 0 1000 505;" xml:space="preserve">
<style type="text/css">
	.st0{fill-rule:evenodd;clip-rule:evenodd;fill:#91AF1E;fill-opacity:0.8;stroke:#819A1E;stroke-width:2;}
	.st1{enable-background:new    ;}
	.st2{fill:#FFFFFF;}
	.st3{font-family:'NotoSansKR-Light-KSCpc-EUC-H';}
	.st4{font-size:18px;}
	.st5{fill:none;stroke:#0E0E0E;stroke-width:2;stroke-linecap:square;}
	.st6{fill:none;stroke:#0E0E0E;stroke-width:2;stroke-linecap:round;stroke-linejoin:round;}
	.st7{fill-rule:evenodd;clip-rule:evenodd;fill:#FFFFFF;fill-opacity:0.8;stroke:#B54142;stroke-width:2;}
	.st8{fill:#333333;}
	.st9{font-family:'NotoSansKR-Medium-KSCpc-EUC-H';}
	.st10{font-size:20px;}
</style>
<title>table</title>
<desc>Created with Sketch.</desc>
<g id="Page-1">
	<g transform="translate(-220.000000, -520.000000)">
		<g id="second" transform="translate(190.000000, 420.000000)">
			<g id="table" transform="translate(30.000000, 100.000000)">
				<g id="box1">
					<path id="bg" class="st0" d="M9,1h982c4.4,0,8,3.6,8,8v206c0,4.4-3.6,8-8,8H9c-4.4,0-8-3.6-8-8V9C1,4.6,4.6,1,9,1z"/>
					<g class="st1">
						<path class="st2" d="M211.9,43.3h2.4l4.9,8.6l1.5,3.1h0.1c-0.1-1.5-0.3-3.3-0.3-4.9v-6.9h2.2V58h-2.4l-4.9-8.7l-1.5-3.1h-0.1
							c0.1,1.5,0.3,3.2,0.3,4.8V58h-2.2V43.3z"/>
						<path class="st2" d="M225.8,55.1c0-2.4,2-3.6,6.6-4.1c0-1.3-0.5-2.4-2.1-2.4c-1.2,0-2.2,0.5-3.2,1.1l-0.9-1.6
							c1.1-0.7,2.7-1.4,4.4-1.4c2.7,0,4,1.7,4,4.7V58h-1.9l-0.2-1.3h-0.1c-1,0.9-2.2,1.5-3.5,1.5C227.1,58.3,225.8,57,225.8,55.1z
							 M232.4,55.2v-2.7c-3.3,0.4-4.4,1.2-4.4,2.5c0,1.1,0.7,1.5,1.7,1.5C230.7,56.4,231.5,56,232.4,55.2z"/>
						<path class="st2" d="M237.9,54.4v-5.6h-1.6v-1.7L238,47l0.3-3h1.9v3h2.9v1.8h-2.9v5.6c0,1.3,0.5,2,1.6,2
							c0.4,0,0.9-0.1,1.2-0.3l0.4,1.7c-0.6,0.2-1.4,0.4-2.2,0.4C238.8,58.3,237.9,56.7,237.9,54.4z"/>
						<path class="st2" d="M245.4,53.9V47h2.3v6.6c0,1.9,0.5,2.6,1.8,2.6c1,0,1.7-0.5,2.6-1.6V47h2.3v11h-1.9l-0.2-1.7h-0.1
							c-1,1.2-2.1,1.9-3.6,1.9C246.4,58.3,245.4,56.7,245.4,53.9z"/>
						<path class="st2" d="M257.9,47h1.9l0.2,2h0.1c0.8-1.4,1.9-2.3,3.1-2.3c0.5,0,0.9,0.1,1.2,0.2l-0.4,2c-0.4-0.1-0.7-0.2-1.1-0.2
							c-0.9,0-2,0.6-2.7,2.4V58h-2.3V47z"/>
						<path class="st2" d="M264.9,55.1c0-2.4,2-3.6,6.6-4.1c0-1.3-0.5-2.4-2.1-2.4c-1.2,0-2.2,0.5-3.2,1.1l-0.9-1.6
							c1.1-0.7,2.7-1.4,4.4-1.4c2.7,0,4,1.7,4,4.7V58h-1.9l-0.2-1.3h-0.1c-1,0.9-2.2,1.5-3.5,1.5C266.2,58.3,264.9,57,264.9,55.1z
							 M271.5,55.2v-2.7c-3.3,0.4-4.4,1.2-4.4,2.5c0,1.1,0.7,1.5,1.7,1.5C269.8,56.4,270.6,56,271.5,55.2z"/>
						<path class="st2" d="M277,55.4V42.1h2.3v13.5c0,0.6,0.3,0.8,0.6,0.8c0.1,0,0.2,0,0.4,0l0.3,1.7c-0.3,0.1-0.7,0.2-1.2,0.2
							C277.6,58.3,277,57.2,277,55.4z"/>
						<path class="st2" d="M287.5,47h1.9l0.2,2h0.1c0.8-1.4,1.9-2.3,3.1-2.3c0.5,0,0.9,0.1,1.2,0.2l-0.4,2c-0.4-0.1-0.7-0.2-1.1-0.2
							c-0.9,0-2,0.6-2.7,2.4V58h-2.3V47z"/>
						<path class="st2" d="M294.5,55.1c0-2.4,2-3.6,6.6-4.1c0-1.3-0.5-2.4-2.1-2.4c-1.2,0-2.2,0.5-3.2,1.1l-0.9-1.6
							c1.1-0.7,2.7-1.4,4.4-1.4c2.7,0,4,1.7,4,4.7V58h-1.9l-0.2-1.3h-0.1c-1,0.9-2.2,1.5-3.5,1.5C295.8,58.3,294.5,57,294.5,55.1z
							 M301,55.2v-2.7c-3.3,0.4-4.4,1.2-4.4,2.5c0,1.1,0.7,1.5,1.7,1.5C299.4,56.4,300.1,56,301,55.2z"/>
						<path class="st2" d="M305.4,47h2.3l1.5,6c0.2,1.1,0.4,2.1,0.6,3.1h0.1c0.2-1,0.5-2.1,0.7-3.1l1.5-6h2.1l1.6,6
							c0.3,1.1,0.5,2.1,0.7,3.1h0.1c0.2-1,0.4-2.1,0.6-3.1l1.4-6h2.2L318,58h-2.8l-1.4-5.4c-0.3-1-0.5-2-0.7-3.2h-0.1
							c-0.2,1.1-0.4,2.2-0.7,3.2L311,58h-2.7L305.4,47z"/>
						<path class="st2" d="M327.7,47h1.9l0.2,1.5h0.1c0.9-1,2-1.8,3.4-1.8c1.6,0,2.6,0.8,3,2c1.1-1.2,2.2-2,3.6-2
							c2.3,0,3.4,1.6,3.4,4.4V58h-2.3v-6.6c0-1.9-0.6-2.7-1.8-2.7c-0.8,0-1.6,0.5-2.5,1.5V58h-2.3v-6.6c0-1.9-0.6-2.7-1.8-2.7
							c-0.7,0-1.6,0.5-2.5,1.5V58h-2.3V47z"/>
						<path class="st2" d="M345.9,55.1c0-2.4,2-3.6,6.6-4.1c0-1.3-0.5-2.4-2.1-2.4c-1.2,0-2.2,0.5-3.2,1.1l-0.9-1.6
							c1.1-0.7,2.7-1.4,4.4-1.4c2.7,0,4,1.7,4,4.7V58h-1.9l-0.2-1.3h-0.1c-1,0.9-2.2,1.5-3.5,1.5C347.2,58.3,345.9,57,345.9,55.1z
							 M352.4,55.2v-2.7c-3.3,0.4-4.4,1.2-4.4,2.5c0,1.1,0.7,1.5,1.7,1.5C350.8,56.4,351.5,56,352.4,55.2z"/>
						<path class="st2" d="M358,54.4v-5.6h-1.6v-1.7l1.7-0.1l0.3-3h1.9v3h2.9v1.8h-2.9v5.6c0,1.3,0.5,2,1.6,2c0.4,0,0.9-0.1,1.2-0.3
							l0.4,1.7c-0.6,0.2-1.4,0.4-2.2,0.4C358.9,58.3,358,56.7,358,54.4z"/>
						<path class="st2" d="M364.5,52.5c0-3.6,2.4-5.8,5-5.8c2.9,0,4.5,2.1,4.5,5.2c0,0.4,0,0.9-0.1,1.2h-7.1
							c0.2,2.1,1.5,3.4,3.4,3.4c1,0,1.8-0.3,2.6-0.8l0.8,1.5c-1,0.7-2.3,1.2-3.7,1.2C366.8,58.3,364.5,56.1,364.5,52.5z M372,51.5
							c0-1.9-0.9-3-2.5-3c-1.4,0-2.6,1.1-2.8,3H372z"/>
						<path class="st2" d="M376.5,47h1.9l0.2,2h0.1c0.8-1.4,1.9-2.3,3.1-2.3c0.5,0,0.9,0.1,1.2,0.2l-0.4,2c-0.4-0.1-0.7-0.2-1.1-0.2
							c-0.9,0-2,0.6-2.7,2.4V58h-2.3V47z"/>
						<path class="st2" d="M384.4,43.6c0-0.8,0.6-1.4,1.5-1.4c0.8,0,1.5,0.5,1.5,1.4c0,0.8-0.6,1.4-1.5,1.4
							C385,44.9,384.4,44.4,384.4,43.6z M384.7,47h2.3v11h-2.3V47z"/>
						<path class="st2" d="M389.8,55.1c0-2.4,2-3.6,6.6-4.1c0-1.3-0.5-2.4-2.1-2.4c-1.2,0-2.2,0.5-3.2,1.1l-0.9-1.6
							c1.1-0.7,2.7-1.4,4.4-1.4c2.7,0,4,1.7,4,4.7V58h-1.9l-0.2-1.3h-0.1c-1,0.9-2.2,1.5-3.5,1.5C391.2,58.3,389.8,57,389.8,55.1z
							 M396.4,55.2v-2.7c-3.3,0.4-4.4,1.2-4.4,2.5c0,1.1,0.7,1.5,1.7,1.5C394.7,56.4,395.5,56,396.4,55.2z"/>
						<path class="st2" d="M402,55.4V42.1h2.3v13.5c0,0.6,0.3,0.8,0.6,0.8c0.1,0,0.2,0,0.4,0l0.3,1.7c-0.3,0.1-0.7,0.2-1.2,0.2
							C402.6,58.3,402,57.2,402,55.4z"/>
						<path class="st2" d="M406.8,56.7l1.1-1.5c1,0.8,1.9,1.3,3.1,1.3c1.3,0,1.9-0.6,1.9-1.5c0-1-1.2-1.4-2.4-1.9
							c-1.5-0.6-3.1-1.3-3.1-3.2c0-1.8,1.5-3.2,3.9-3.2c1.5,0,2.7,0.6,3.6,1.3l-1.1,1.4c-0.8-0.6-1.5-1-2.5-1
							c-1.2,0-1.8,0.6-1.8,1.4c0,0.9,1.1,1.3,2.3,1.7c1.5,0.6,3.2,1.3,3.2,3.3c0,1.8-1.5,3.3-4.2,3.3
							C409.4,58.3,407.8,57.6,406.8,56.7z"/>
						<path class="st2" d="M420.5,47h2.4l1.9,5.9c0.3,1.1,0.6,2.2,1,3.3h0.1c0.3-1.1,0.7-2.2,1-3.3l1.9-5.9h2.2l-3.8,11h-2.7
							L420.5,47z"/>
						<path class="st2" d="M432,52.5c0-3.6,2.4-5.8,5-5.8c2.9,0,4.5,2.1,4.5,5.2c0,0.4,0,0.9-0.1,1.2h-7.1c0.2,2.1,1.5,3.4,3.4,3.4
							c1,0,1.8-0.3,2.6-0.8l0.8,1.5c-1,0.7-2.3,1.2-3.7,1.2C434.4,58.3,432,56.1,432,52.5z M439.5,51.5c0-1.9-0.9-3-2.5-3
							c-1.4,0-2.6,1.1-2.8,3H439.5z"/>
						<path class="st2" d="M444.1,47h1.9l0.2,2h0.1c0.8-1.4,1.9-2.3,3.1-2.3c0.5,0,0.9,0.1,1.2,0.2l-0.4,2c-0.4-0.1-0.7-0.2-1.1-0.2
							c-0.9,0-2,0.6-2.7,2.4V58h-2.3V47z"/>
						<path class="st2" d="M452,43.6c0-0.8,0.6-1.4,1.5-1.4c0.8,0,1.5,0.5,1.5,1.4c0,0.8-0.6,1.4-1.5,1.4
							C452.6,44.9,452,44.4,452,43.6z M452.3,47h2.3v11h-2.3V47z"/>
						<path class="st2" d="M458.4,45.6c0-2.3,1-3.8,3.5-3.8c0.7,0,1.4,0.2,1.9,0.4l-0.5,1.7c-0.4-0.2-0.8-0.3-1.2-0.3
							c-1,0-1.5,0.6-1.5,2V47h2.2v1.8h-2.2V58h-2.3v-9.2h-1.5v-1.7l1.5-0.1V45.6z M465,43.6c0-0.8,0.6-1.4,1.5-1.4s1.5,0.5,1.5,1.4
							c0,0.8-0.6,1.4-1.5,1.4S465,44.4,465,43.6z M465.3,47h2.3v11h-2.3V47z"/>
						<path class="st2" d="M470.3,52.5c0-3.6,2.4-5.8,5-5.8c2.9,0,4.5,2.1,4.5,5.2c0,0.4,0,0.9-0.1,1.2h-7.1
							c0.2,2.1,1.5,3.4,3.4,3.4c1,0,1.8-0.3,2.6-0.8l0.8,1.5c-1,0.7-2.3,1.2-3.7,1.2C472.7,58.3,470.3,56.1,470.3,52.5z M477.8,51.5
							c0-1.9-0.9-3-2.5-3c-1.4,0-2.6,1.1-2.8,3H477.8z"/>
						<path class="st2" d="M481.6,52.5c0-3.6,2.3-5.8,4.7-5.8c1.3,0,2.1,0.5,3,1.2l-0.1-1.8v-4.1h2.3V58h-1.9l-0.2-1.2h-0.1
							c-0.8,0.8-2,1.5-3.2,1.5C483.4,58.3,481.6,56.2,481.6,52.5z M489.2,55v-5.4c-0.8-0.7-1.6-1-2.4-1c-1.5,0-2.8,1.5-2.8,3.8
							c0,2.5,1,3.9,2.7,3.9C487.6,56.4,488.4,55.9,489.2,55z"/>
						<path class="st2" d="M501.6,56.9L501.6,56.9l-0.3,1.1h-1.8V42.1h2.3v4.2l-0.1,1.9c0.9-0.8,2.1-1.4,3.3-1.4
							c2.8,0,4.4,2.2,4.4,5.6c0,3.8-2.3,5.9-4.7,5.9C503.6,58.3,502.5,57.8,501.6,56.9z M507,52.4c0-2.3-0.7-3.7-2.6-3.7
							c-0.9,0-1.7,0.4-2.6,1.3v5.4c0.8,0.7,1.7,1,2.4,1C505.8,56.4,507,54.9,507,52.4z"/>
						<path class="st2" d="M516.8,58.7c-0.9,2.4-2,3.9-4.3,3.9c-0.6,0-1-0.1-1.4-0.2l0.4-1.8c0.2,0.1,0.5,0.2,0.8,0.2
							c1.2,0,1.9-0.9,2.3-2.1l0.2-0.8L510.5,47h2.4l2,5.7c0.3,1,0.7,2.1,1,3.1h0.1l0.9-3.1l1.8-5.7h2.2L516.8,58.7z"/>
						<path class="st2" d="M526.7,55.1c0-2.4,2-3.6,6.6-4.1c0-1.3-0.5-2.4-2.1-2.4c-1.2,0-2.2,0.5-3.2,1.1l-0.9-1.6
							c1.1-0.7,2.7-1.4,4.4-1.4c2.7,0,4,1.7,4,4.7V58h-1.9l-0.2-1.3h-0.1c-1,0.9-2.2,1.5-3.5,1.5C528,58.3,526.7,57,526.7,55.1z
							 M533.3,55.2v-2.7c-3.3,0.4-4.4,1.2-4.4,2.5c0,1.1,0.7,1.5,1.7,1.5C531.6,56.4,532.4,56,533.3,55.2z"/>
						<path class="st2" d="M538.1,52.5c0-3.6,2.3-5.8,4.7-5.8c1.3,0,2.1,0.5,3,1.2l-0.1-1.8v-4.1h2.3V58h-1.9l-0.2-1.2h-0.1
							c-0.8,0.8-2,1.5-3.2,1.5C539.9,58.3,538.1,56.2,538.1,52.5z M545.7,55v-5.4c-0.8-0.7-1.6-1-2.4-1c-1.5,0-2.8,1.5-2.8,3.8
							c0,2.5,1,3.9,2.7,3.9C544.1,56.4,544.9,55.9,545.7,55z"/>
						<path class="st2" d="M549.9,47h2.4l1.9,5.9c0.3,1.1,0.6,2.2,1,3.3h0.1c0.3-1.1,0.7-2.2,1-3.3l1.9-5.9h2.2l-3.8,11h-2.7
							L549.9,47z"/>
						<path class="st2" d="M561.2,55.1c0-2.4,2-3.6,6.6-4.1c0-1.3-0.5-2.4-2.1-2.4c-1.2,0-2.2,0.5-3.2,1.1l-0.9-1.6
							c1.1-0.7,2.7-1.4,4.4-1.4c2.7,0,4,1.7,4,4.7V58h-1.9l-0.2-1.3H568c-1,0.9-2.2,1.5-3.5,1.5C562.6,58.3,561.2,57,561.2,55.1z
							 M567.8,55.2v-2.7c-3.3,0.4-4.4,1.2-4.4,2.5c0,1.1,0.7,1.5,1.7,1.5C566.1,56.4,566.9,56,567.8,55.2z"/>
						<path class="st2" d="M573.4,47h1.9l0.2,1.5h0.1c1-1,2.1-1.8,3.6-1.8c2.3,0,3.4,1.6,3.4,4.4V58h-2.3v-6.6
							c0-1.9-0.6-2.7-1.9-2.7c-1,0-1.7,0.5-2.7,1.5V58h-2.3V47z"/>
						<path class="st2" d="M585.1,52.5c0-3.7,2.5-5.8,5.4-5.8c1.4,0,2.4,0.6,3.2,1.3l-1.1,1.5c-0.6-0.5-1.2-0.9-2-0.9
							c-1.8,0-3.2,1.6-3.2,3.9c0,2.3,1.3,3.9,3.1,3.9c0.9,0,1.7-0.4,2.4-1l0.9,1.5c-1,0.9-2.3,1.4-3.6,1.4
							C587.4,58.3,585.1,56.2,585.1,52.5z"/>
						<path class="st2" d="M594.9,52.5c0-3.6,2.4-5.8,5-5.8c2.9,0,4.5,2.1,4.5,5.2c0,0.4,0,0.9-0.1,1.2h-7.1
							c0.2,2.1,1.5,3.4,3.4,3.4c1,0,1.8-0.3,2.6-0.8l0.8,1.5c-1,0.7-2.3,1.2-3.7,1.2C597.3,58.3,594.9,56.1,594.9,52.5z M602.4,51.5
							c0-1.9-0.9-3-2.5-3c-1.4,0-2.6,1.1-2.8,3H602.4z"/>
						<path class="st2" d="M606.2,52.5c0-3.6,2.3-5.8,4.7-5.8c1.3,0,2.1,0.5,3,1.2l-0.1-1.8v-4.1h2.3V58h-1.9l-0.2-1.2H614
							c-0.8,0.8-2,1.5-3.2,1.5C608,58.3,606.2,56.2,606.2,52.5z M613.8,55v-5.4c-0.8-0.7-1.6-1-2.4-1c-1.5,0-2.8,1.5-2.8,3.8
							c0,2.5,1,3.9,2.7,3.9C612.2,56.4,613,55.9,613.8,55z"/>
						<path class="st2" d="M626.2,56.9L626.2,56.9l-0.3,1.1h-1.8V42.1h2.3v4.2l-0.1,1.9c0.9-0.8,2.1-1.4,3.3-1.4
							c2.8,0,4.4,2.2,4.4,5.6c0,3.8-2.3,5.9-4.7,5.9C628.2,58.3,627.1,57.8,626.2,56.9z M631.6,52.4c0-2.3-0.7-3.7-2.6-3.7
							c-0.9,0-1.7,0.4-2.6,1.3v5.4c0.8,0.7,1.7,1,2.4,1C630.4,56.4,631.6,54.9,631.6,52.4z"/>
						<path class="st2" d="M636.3,43.6c0-0.8,0.6-1.4,1.5-1.4c0.8,0,1.5,0.5,1.5,1.4c0,0.8-0.6,1.4-1.5,1.4
							C637,44.9,636.3,44.4,636.3,43.6z M636.7,47h2.3v11h-2.3V47z"/>
						<path class="st2" d="M641.6,52.5c0-3.7,2.5-5.8,5.2-5.8c2.7,0,5.2,2.1,5.2,5.8c0,3.6-2.5,5.7-5.2,5.7
							C644.1,58.3,641.6,56.2,641.6,52.5z M649.6,52.5c0-2.3-1.1-3.9-2.8-3.9c-1.7,0-2.8,1.6-2.8,3.9c0,2.3,1.1,3.9,2.8,3.9
							C648.5,56.4,649.6,54.8,649.6,52.5z"/>
						<path class="st2" d="M659.5,54.4v-5.6h-1.6v-1.7l1.7-0.1l0.3-3h1.9v3h2.9v1.8h-2.9v5.6c0,1.3,0.5,2,1.6,2
							c0.4,0,0.9-0.1,1.2-0.3l0.4,1.7c-0.6,0.2-1.4,0.4-2.2,0.4C660.4,58.3,659.5,56.7,659.5,54.4z"/>
						<path class="st2" d="M666,52.5c0-3.6,2.4-5.8,5-5.8c2.9,0,4.5,2.1,4.5,5.2c0,0.4,0,0.9-0.1,1.2h-7.1c0.2,2.1,1.5,3.4,3.4,3.4
							c1,0,1.8-0.3,2.6-0.8l0.8,1.5c-1,0.7-2.3,1.2-3.7,1.2C668.4,58.3,666,56.1,666,52.5z M673.5,51.5c0-1.9-0.9-3-2.5-3
							c-1.4,0-2.6,1.1-2.8,3H673.5z"/>
						<path class="st2" d="M677.3,52.5c0-3.7,2.5-5.8,5.4-5.8c1.4,0,2.4,0.6,3.2,1.3l-1.1,1.5c-0.6-0.5-1.2-0.9-2-0.9
							c-1.8,0-3.2,1.6-3.2,3.9c0,2.3,1.3,3.9,3.1,3.9c0.9,0,1.7-0.4,2.4-1l0.9,1.5c-1,0.9-2.3,1.4-3.6,1.4
							C679.6,58.3,677.3,56.2,677.3,52.5z"/>
						<path class="st2" d="M688.4,42.1h2.3v4.2l-0.1,2.2c1-0.9,2.1-1.7,3.6-1.7c2.3,0,3.4,1.6,3.4,4.4V58h-2.3v-6.6
							c0-1.9-0.6-2.7-1.9-2.7c-1,0-1.7,0.5-2.7,1.5V58h-2.3V42.1z"/>
						<path class="st2" d="M700.8,47h1.9l0.2,1.5h0.1c1-1,2.1-1.8,3.6-1.8c2.3,0,3.4,1.6,3.4,4.4V58h-2.3v-6.6
							c0-1.9-0.6-2.7-1.9-2.7c-1,0-1.7,0.5-2.7,1.5V58h-2.3V47z"/>
						<path class="st2" d="M712.5,52.5c0-3.7,2.5-5.8,5.2-5.8s5.2,2.1,5.2,5.8c0,3.6-2.5,5.7-5.2,5.7S712.5,56.2,712.5,52.5z
							 M720.5,52.5c0-2.3-1.1-3.9-2.8-3.9c-1.7,0-2.8,1.6-2.8,3.9c0,2.3,1.1,3.9,2.8,3.9C719.4,56.4,720.5,54.8,720.5,52.5z"/>
						<path class="st2" d="M725.6,55.4V42.1h2.3v13.5c0,0.6,0.3,0.8,0.6,0.8c0.1,0,0.2,0,0.4,0l0.3,1.7c-0.3,0.1-0.7,0.2-1.2,0.2
							C726.2,58.3,725.6,57.2,725.6,55.4z"/>
						<path class="st2" d="M730.8,52.5c0-3.7,2.5-5.8,5.2-5.8s5.2,2.1,5.2,5.8c0,3.6-2.5,5.7-5.2,5.7S730.8,56.2,730.8,52.5z
							 M738.8,52.5c0-2.3-1.1-3.9-2.8-3.9c-1.7,0-2.8,1.6-2.8,3.9c0,2.3,1.1,3.9,2.8,3.9C737.7,56.4,738.8,54.8,738.8,52.5z"/>
						<path class="st2" d="M743,60c0-0.9,0.6-1.8,1.6-2.4v-0.1c-0.6-0.3-1-0.9-1-1.8c0-0.9,0.6-1.6,1.2-2v-0.1
							c-0.7-0.6-1.4-1.6-1.4-2.9c0-2.5,2-4,4.3-4c0.6,0,1.2,0.1,1.6,0.3h3.9v1.7h-2.1c0.4,0.4,0.7,1.2,0.7,2c0,2.4-1.8,3.8-4.1,3.8
							c-0.5,0-1.1-0.1-1.5-0.3c-0.4,0.3-0.6,0.6-0.6,1.2c0,0.7,0.4,1.1,1.8,1.1h2c2.6,0,4,0.8,4,2.7c0,2.1-2.2,3.8-5.8,3.8
							C744.9,62.9,743,62,743,60z M751.1,59.5c0-0.9-0.7-1.2-2.1-1.2h-1.7c-0.5,0-1-0.1-1.5-0.2c-0.7,0.5-0.9,1-0.9,1.6
							c0,1.1,1.1,1.7,2.9,1.7C749.8,61.4,751.1,60.5,751.1,59.5z M749.7,50.7c0-1.5-0.9-2.3-2.1-2.3s-2.1,0.8-2.1,2.3
							c0,1.5,0.9,2.4,2.1,2.4C748.8,53,749.7,52.1,749.7,50.7z"/>
						<path class="st2" d="M755.1,43.6c0-0.8,0.6-1.4,1.5-1.4c0.8,0,1.5,0.5,1.5,1.4c0,0.8-0.6,1.4-1.5,1.4
							C755.7,44.9,755.1,44.4,755.1,43.6z M755.4,47h2.3v11h-2.3V47z"/>
						<path class="st2" d="M760.3,52.5c0-3.6,2.4-5.8,5-5.8c2.9,0,4.5,2.1,4.5,5.2c0,0.4,0,0.9-0.1,1.2h-7.1
							c0.2,2.1,1.5,3.4,3.4,3.4c1,0,1.8-0.3,2.6-0.8l0.8,1.5c-1,0.7-2.3,1.2-3.7,1.2C762.7,58.3,760.3,56.1,760.3,52.5z M767.9,51.5
							c0-1.9-0.9-3-2.5-3c-1.4,0-2.6,1.1-2.8,3H767.9z"/>
						<path class="st2" d="M771.3,56.7l1.1-1.5c1,0.8,1.9,1.3,3.1,1.3c1.3,0,1.9-0.6,1.9-1.5c0-1-1.2-1.4-2.4-1.9
							c-1.5-0.6-3.1-1.3-3.1-3.2c0-1.8,1.5-3.2,3.9-3.2c1.5,0,2.7,0.6,3.6,1.3l-1.1,1.4c-0.8-0.6-1.5-1-2.5-1
							c-1.2,0-1.8,0.6-1.8,1.4c0,0.9,1.1,1.3,2.3,1.7c1.5,0.6,3.2,1.3,3.2,3.3c0,1.8-1.5,3.3-4.2,3.3
							C773.9,58.3,772.3,57.6,771.3,56.7z"/>
					</g>
					<g class="st1">
						<path class="st2" d="M244.8,99.6h4.4v0.9h-4.4V99.6z"/>
						<path class="st2" d="M254.9,103.3l0.7-0.8c1,1.1,2.3,1.7,3.8,1.7c1.9,0,3.2-1,3.2-2.5c0-1.6-1-2.1-2.3-2.7l-2-0.9
							c-1.2-0.5-2.7-1.4-2.7-3.3c0-1.9,1.7-3.3,3.9-3.3c1.6,0,2.9,0.7,3.7,1.6l-0.6,0.7c-0.8-0.8-1.8-1.3-3.1-1.3
							c-1.7,0-2.8,0.9-2.8,2.2c0,1.5,1.3,2.1,2.2,2.5l2,0.9c1.5,0.7,2.8,1.5,2.8,3.5c0,2-1.7,3.6-4.2,3.6
							C257.5,105.2,256,104.4,254.9,103.3z"/>
						<path class="st2" d="M265.4,100.2c0-3.1,2-5.1,4.2-5.1c2.3,0,3.7,1.7,3.7,4.5c0,0.3,0,0.5-0.1,0.8h-6.8c0.1,2.3,1.4,4,3.5,4
							c1,0,1.8-0.3,2.6-0.8l0.4,0.8c-0.8,0.5-1.7,0.9-3.1,0.9C267.4,105.2,265.4,103.4,265.4,100.2z M272.4,99.5
							c0-2.3-1.1-3.5-2.7-3.5c-1.6,0-3,1.3-3.2,3.5H272.4z"/>
						<path class="st2" d="M275.1,100.2c0-3.2,2.1-5.1,4.4-5.1c1.3,0,2.1,0.6,2.8,1.2l-0.6,0.7c-0.6-0.6-1.3-1-2.2-1
							c-1.9,0-3.4,1.7-3.4,4.1c0,2.4,1.3,4.1,3.3,4.1c1,0,1.9-0.5,2.5-1.1l0.5,0.7c-0.8,0.7-1.9,1.2-3.1,1.2
							C277,105.2,275.1,103.4,275.1,100.2z"/>
						<path class="st2" d="M284.8,101.5v-6.1h1v6c0,2,0.6,2.9,2.1,2.9c1.1,0,1.9-0.6,3-1.9v-7h1v9.6H291l-0.1-1.6h-0.1
							c-0.9,1.1-1.9,1.8-3.2,1.8C285.7,105.2,284.8,104,284.8,101.5z"/>
						<path class="st2" d="M295.5,95.4h0.9l0.1,1.8h0c0.6-1.2,1.6-2,2.7-2c0.4,0,0.7,0.1,1,0.2l-0.2,0.9c-0.3-0.1-0.5-0.2-0.9-0.2
							c-0.8,0-1.9,0.6-2.6,2.4v6.4h-1V95.4z"/>
						<path class="st2" d="M301,100.2c0-3.1,2-5.1,4.2-5.1c2.3,0,3.7,1.7,3.7,4.5c0,0.3,0,0.5-0.1,0.8H302c0.1,2.3,1.4,4,3.5,4
							c1,0,1.8-0.3,2.6-0.8l0.4,0.8c-0.8,0.5-1.7,0.9-3.1,0.9C303,105.2,301,103.4,301,100.2z M308,99.5c0-2.3-1.1-3.5-2.7-3.5
							c-1.6,0-3,1.3-3.2,3.5H308z"/>
						<path class="st2" d="M314.3,103.9l0.6-0.8c0.8,0.7,1.7,1.2,3,1.2c1.5,0,2.2-0.8,2.2-1.8c0-1.1-1.2-1.7-2.3-2.1
							c-1.4-0.5-3-1.1-3-2.8c0-1.4,1.1-2.6,3.2-2.6c1,0,2.1,0.5,2.8,1l-0.5,0.7c-0.6-0.5-1.4-0.9-2.3-0.9c-1.4,0-2.1,0.8-2.1,1.7
							c0,1.1,1.1,1.5,2.2,1.9c1.5,0.6,3.1,1.1,3.1,2.9c0,1.5-1.2,2.7-3.3,2.7C316.4,105.2,315.2,104.6,314.3,103.9z"/>
						<path class="st2" d="M322.8,100.2c0-3.2,2.1-5.1,4.4-5.1c1.3,0,2.1,0.6,2.8,1.2l-0.6,0.7c-0.6-0.6-1.3-1-2.2-1
							c-1.9,0-3.4,1.7-3.4,4.1c0,2.4,1.3,4.1,3.3,4.1c1,0,1.9-0.5,2.5-1.1l0.5,0.7c-0.8,0.7-1.9,1.2-3.1,1.2
							C324.7,105.2,322.8,103.4,322.8,100.2z"/>
						<path class="st2" d="M332.2,92.3c0-0.5,0.4-0.9,0.9-0.9c0.5,0,0.9,0.3,0.9,0.9c0,0.5-0.4,0.8-0.9,0.8
							C332.6,93.2,332.2,92.8,332.2,92.3z M332.6,95.4h1v9.6h-1V95.4z"/>
						<path class="st2" d="M336.4,100.2c0-3.1,2-5.1,4.2-5.1c2.3,0,3.7,1.7,3.7,4.5c0,0.3,0,0.5-0.1,0.8h-6.8c0.1,2.3,1.4,4,3.5,4
							c1,0,1.8-0.3,2.6-0.8l0.4,0.8c-0.8,0.5-1.7,0.9-3.1,0.9C338.4,105.2,336.4,103.4,336.4,100.2z M343.4,99.5
							c0-2.3-1.1-3.5-2.7-3.5c-1.6,0-3,1.3-3.2,3.5H343.4z"/>
						<path class="st2" d="M346.9,95.4h0.9l0.1,1.5h0c1-1,2-1.7,3.3-1.7c2,0,2.9,1.2,2.9,3.7v6.1h-1v-6c0-2-0.6-2.9-2.1-2.9
							c-1.1,0-1.9,0.6-3,1.7v7.2h-1V95.4z"/>
						<path class="st2" d="M357.8,102.3v-6h-1.5v-0.8l1.5-0.1l0.1-2.8h0.9v2.8h2.8v0.9h-2.8v6c0,1.2,0.3,2,1.6,2
							c0.4,0,0.8-0.1,1.2-0.3l0.3,0.8c-0.6,0.2-1.2,0.4-1.6,0.4C358.4,105.2,357.8,104,357.8,102.3z"/>
						<path class="st2" d="M363.6,92.3c0-0.5,0.4-0.9,0.9-0.9c0.5,0,0.9,0.3,0.9,0.9c0,0.5-0.4,0.8-0.9,0.8
							C364,93.2,363.6,92.8,363.6,92.3z M363.9,95.4h1v9.6h-1V95.4z"/>
						<path class="st2" d="M368.7,93.4c0-1.9,0.8-2.9,2.5-2.9c0.5,0,1,0.1,1.4,0.3l-0.3,0.8c-0.4-0.2-0.8-0.3-1.1-0.3
							c-1,0-1.5,0.8-1.5,2.1v2h2.2v0.9h-2.2v8.7h-1v-8.7h-1.3v-0.8l1.3-0.1V93.4z M375.7,92.3c0,0.5-0.4,0.8-0.9,0.8
							c-0.5,0-0.9-0.3-0.9-0.8c0-0.5,0.4-0.9,0.9-0.9C375.3,91.5,375.7,91.8,375.7,92.3z M374.2,95.4h1v9.6h-1V95.4z"/>
						<path class="st2" d="M378.1,100.2c0-3.2,2.1-5.1,4.4-5.1c1.3,0,2.1,0.6,2.8,1.2l-0.6,0.7c-0.6-0.6-1.3-1-2.2-1
							c-1.9,0-3.4,1.7-3.4,4.1c0,2.4,1.3,4.1,3.3,4.1c1,0,1.9-0.5,2.5-1.1l0.5,0.7c-0.8,0.7-1.9,1.2-3.1,1.2
							C380,105.2,378.1,103.4,378.1,100.2z"/>
						<path class="st2" d="M391.1,100.2c0-3.2,2.1-5.1,4.4-5.1c1.3,0,2.1,0.6,2.8,1.2l-0.6,0.7c-0.6-0.6-1.3-1-2.2-1
							c-1.9,0-3.4,1.7-3.4,4.1c0,2.4,1.3,4.1,3.3,4.1c1,0,1.9-0.5,2.5-1.1l0.5,0.7c-0.8,0.7-1.9,1.2-3.1,1.2
							C392.9,105.2,391.1,103.4,391.1,100.2z"/>
						<path class="st2" d="M400.8,95.4h0.9l0.1,1.8h0c0.6-1.2,1.6-2,2.7-2c0.4,0,0.7,0.1,1,0.2l-0.2,0.9c-0.3-0.1-0.5-0.2-0.9-0.2
							c-0.8,0-1.9,0.6-2.6,2.4v6.4h-1V95.4z"/>
						<path class="st2" d="M406.3,100.2c0-3.1,2-5.1,4.2-5.1c2.3,0,3.7,1.7,3.7,4.5c0,0.3,0,0.5-0.1,0.8h-6.8c0.1,2.3,1.4,4,3.5,4
							c1,0,1.8-0.3,2.6-0.8l0.4,0.8c-0.8,0.5-1.7,0.9-3.1,0.9C408.3,105.2,406.3,103.4,406.3,100.2z M413.3,99.5
							c0-2.3-1.1-3.5-2.7-3.5c-1.6,0-3,1.3-3.2,3.5H413.3z"/>
						<path class="st2" d="M416,100.2c0-3.1,2-5.1,4.2-5.1c1.2,0,1.9,0.4,2.9,1.2l-0.1-1.7v-3.9h1V105h-0.9l-0.1-1.2h0
							c-0.8,0.8-1.8,1.4-3.1,1.4C417.6,105.2,416,103.4,416,100.2z M423,102.8v-5.5c-1-0.9-1.8-1.2-2.7-1.2c-1.8,0-3.2,1.8-3.2,4.1
							c0,2.5,1.1,4.1,3,4.1C421.2,104.3,422.1,103.8,423,102.8z"/>
						<path class="st2" d="M427.3,92.3c0-0.5,0.4-0.9,0.9-0.9c0.5,0,0.9,0.3,0.9,0.9c0,0.5-0.4,0.8-0.9,0.8
							C427.7,93.2,427.3,92.8,427.3,92.3z M427.7,95.4h1v9.6h-1V95.4z"/>
						<path class="st2" d="M433.3,104L433.3,104l-0.2,1h-0.8V90.7h1v4.1l-0.1,1.8c1-0.8,2.1-1.5,3.2-1.5c2.6,0,3.9,1.9,3.9,4.9
							c0,3.3-2,5.2-4.2,5.2C435.2,105.2,434.2,104.8,433.3,104z M439.3,100c0-2.3-0.8-4-2.9-4c-0.9,0-1.9,0.5-3,1.5v5.5
							c1,0.9,2,1.2,2.7,1.2C437.9,104.3,439.3,102.6,439.3,100z"/>
						<path class="st2" d="M442.8,92.3c0-0.5,0.4-0.9,0.9-0.9c0.5,0,0.9,0.3,0.9,0.9c0,0.5-0.4,0.8-0.9,0.8
							C443.2,93.2,442.8,92.8,442.8,92.3z M443.1,95.4h1v9.6h-1V95.4z"/>
						<path class="st2" d="M447.8,103.6V90.7h1v13c0,0.5,0.2,0.6,0.4,0.6c0.1,0,0.1,0,0.3,0l0.2,0.8c-0.2,0.1-0.4,0.1-0.7,0.1
							C448.2,105.2,447.8,104.7,447.8,103.6z"/>
						<path class="st2" d="M452.2,92.3c0-0.5,0.4-0.9,0.9-0.9c0.5,0,0.9,0.3,0.9,0.9c0,0.5-0.4,0.8-0.9,0.8
							C452.6,93.2,452.2,92.8,452.2,92.3z M452.6,95.4h1v9.6h-1V95.4z"/>
						<path class="st2" d="M457.4,102.3v-6h-1.5v-0.8l1.5-0.1l0.1-2.8h0.9v2.8h2.8v0.9h-2.8v6c0,1.2,0.3,2,1.6,2
							c0.4,0,0.8-0.1,1.2-0.3l0.3,0.8c-0.6,0.2-1.2,0.4-1.6,0.4C458,105.2,457.4,104,457.4,102.3z"/>
						<path class="st2" d="M462.2,109.1l0.2-0.9c0.2,0.1,0.5,0.1,0.8,0.1c1.2,0,1.9-1,2.4-2.4l0.3-0.8l-3.9-9.7h1.1l2.2,5.9
							c0.3,0.8,0.7,1.8,1,2.7h0.1c0.3-0.9,0.6-1.9,0.9-2.7l2-5.9h1.1l-3.7,10.7c-0.6,1.7-1.5,3.2-3.3,3.2
							C462.9,109.3,462.5,109.2,462.2,109.1z"/>
						<path class="st2" d="M476.6,102.3v-6h-1.5v-0.8l1.5-0.1l0.1-2.8h0.9v2.8h2.8v0.9h-2.8v6c0,1.2,0.3,2,1.6,2
							c0.4,0,0.8-0.1,1.2-0.3l0.3,0.8c-0.6,0.2-1.2,0.4-1.6,0.4C477.2,105.2,476.6,104,476.6,102.3z"/>
						<path class="st2" d="M482.7,90.7h1v4.1l0,2.1c1-1,2-1.7,3.3-1.7c2,0,2.9,1.2,2.9,3.7v6.1h-1v-6c0-2-0.6-2.9-2.1-2.9
							c-1.1,0-1.9,0.6-3,1.7v7.2h-1V90.7z"/>
						<path class="st2" d="M493.3,95.4h0.9l0.1,1.8h0c0.6-1.2,1.6-2,2.7-2c0.4,0,0.7,0.1,1,0.2l-0.2,0.9c-0.3-0.1-0.5-0.2-0.9-0.2
							c-0.8,0-1.9,0.6-2.6,2.4v6.4h-1V95.4z"/>
						<path class="st2" d="M498.8,100.2c0-3.2,2-5.1,4.3-5.1c2.3,0,4.3,1.9,4.3,5.1c0,3.2-2,5-4.3,5
							C500.8,105.2,498.8,103.4,498.8,100.2z M506.4,100.2c0-2.4-1.4-4.1-3.3-4.1c-1.9,0-3.2,1.7-3.2,4.1c0,2.4,1.4,4.1,3.2,4.1
							C505,104.3,506.4,102.7,506.4,100.2z"/>
						<path class="st2" d="M510.1,101.5v-6.1h1v6c0,2,0.6,2.9,2.1,2.9c1.1,0,1.9-0.6,3-1.9v-7h1v9.6h-0.9l-0.1-1.6h-0.1
							c-0.9,1.1-1.9,1.8-3.2,1.8C511,105.2,510.1,104,510.1,101.5z"/>
						<path class="st2" d="M520.1,106.9c0-0.8,0.6-1.7,1.4-2.3v-0.1c-0.5-0.3-0.9-0.8-0.9-1.5c0-0.8,0.6-1.5,1.1-1.8v-0.1
							c-0.6-0.5-1.2-1.5-1.2-2.6c0-2,1.5-3.4,3.4-3.4c0.5,0,1,0.1,1.3,0.3h3.3v0.9h-2.2c0.6,0.5,1,1.3,1,2.3c0,2-1.5,3.4-3.4,3.4
							c-0.5,0-1.1-0.1-1.5-0.4c-0.4,0.3-0.8,0.7-0.8,1.3c0,0.7,0.4,1.2,1.8,1.2h2c2.2,0,3.2,0.7,3.2,2.2c0,1.7-1.8,3.3-4.6,3.3
							C521.6,109.6,520.1,108.6,520.1,106.9z M527.6,106.5c0-1-0.8-1.4-2.2-1.4h-2c-0.2,0-0.7-0.1-1.2-0.2c-0.8,0.6-1.2,1.3-1.2,1.9
							c0,1.2,1.1,2,3.1,2C526.2,108.8,527.6,107.6,527.6,106.5z M526.3,98.6c0-1.6-1.1-2.6-2.4-2.6c-1.3,0-2.4,1-2.4,2.6
							c0,1.6,1.1,2.6,2.4,2.6C525.2,101.2,526.3,100.1,526.3,98.6z"/>
						<path class="st2" d="M530.6,90.7h1v4.1l0,2.1c1-1,2-1.7,3.3-1.7c2,0,2.9,1.2,2.9,3.7v6.1h-1v-6c0-2-0.6-2.9-2.1-2.9
							c-1.1,0-1.9,0.6-3,1.7v7.2h-1V90.7z"/>
						<path class="st2" d="M545.2,95.4h0.9l0.1,1.2h0c0.9-0.7,2-1.4,3.2-1.4c2.6,0,3.9,1.9,3.9,4.9c0,3.3-2,5.2-4.2,5.2
							c-0.9,0-1.9-0.4-2.8-1.2l0,1.8v3.5h-1V95.4z M552.2,100c0-2.3-0.8-4-2.9-4c-0.9,0-1.9,0.5-3,1.5v5.5c1,0.9,2,1.2,2.7,1.2
							C550.9,104.3,552.2,102.6,552.2,100z"/>
						<path class="st2" d="M556,101.5v-6.1h1v6c0,2,0.6,2.9,2.1,2.9c1.1,0,1.9-0.6,3-1.9v-7h1v9.6h-0.9l-0.1-1.6h-0.1
							c-0.9,1.1-1.9,1.8-3.2,1.8C556.9,105.2,556,104,556,101.5z"/>
						<path class="st2" d="M567.8,104L567.8,104l-0.2,1h-0.8V90.7h1v4.1l-0.1,1.8c1-0.8,2.1-1.5,3.2-1.5c2.6,0,3.9,1.9,3.9,4.9
							c0,3.3-2,5.2-4.2,5.2C569.7,105.2,568.6,104.8,567.8,104z M573.7,100c0-2.3-0.8-4-2.9-4c-0.9,0-1.9,0.5-3,1.5v5.5
							c1,0.9,2,1.2,2.7,1.2C572.4,104.3,573.7,102.6,573.7,100z"/>
						<path class="st2" d="M577.6,103.6V90.7h1v13c0,0.5,0.2,0.6,0.4,0.6c0.1,0,0.1,0,0.3,0l0.2,0.8c-0.2,0.1-0.4,0.1-0.7,0.1
							C578,105.2,577.6,104.7,577.6,103.6z"/>
						<path class="st2" d="M582.1,92.3c0-0.5,0.4-0.9,0.9-0.9c0.5,0,0.9,0.3,0.9,0.9c0,0.5-0.4,0.8-0.9,0.8
							C582.5,93.2,582.1,92.8,582.1,92.3z M582.4,95.4h1v9.6h-1V95.4z"/>
						<path class="st2" d="M586.2,100.2c0-3.2,2.1-5.1,4.4-5.1c1.3,0,2.1,0.6,2.8,1.2l-0.6,0.7c-0.6-0.6-1.3-1-2.2-1
							c-1.9,0-3.4,1.7-3.4,4.1c0,2.4,1.3,4.1,3.3,4.1c1,0,1.9-0.5,2.5-1.1l0.5,0.7c-0.8,0.7-1.9,1.2-3.1,1.2
							C588.1,105.2,586.2,103.4,586.2,100.2z"/>
						<path class="st2" d="M595.2,102.6c0-2.1,1.9-3.1,6.1-3.6c0-1.4-0.4-2.9-2.2-2.9c-1.3,0-2.4,0.6-3,1.1l-0.5-0.8
							c0.7-0.5,2.1-1.3,3.6-1.3c2.3,0,3.1,1.6,3.1,3.8v6.1h-0.9l-0.1-1.2h0c-1,0.8-2.1,1.5-3.3,1.5
							C596.4,105.2,595.2,104.4,595.2,102.6z M601.3,102.9v-3.1c-3.8,0.4-5.1,1.3-5.1,2.8c0,1.3,0.9,1.8,2,1.8
							S600.1,103.8,601.3,102.9z"/>
						<path class="st2" d="M605.7,102.3v-6h-1.5v-0.8l1.5-0.1l0.1-2.8h0.9v2.8h2.8v0.9h-2.8v6c0,1.2,0.3,2,1.6,2
							c0.4,0,0.8-0.1,1.2-0.3l0.3,0.8c-0.6,0.2-1.2,0.4-1.6,0.4C606.2,105.2,605.7,104,605.7,102.3z"/>
						<path class="st2" d="M611.4,92.3c0-0.5,0.4-0.9,0.9-0.9c0.5,0,0.9,0.3,0.9,0.9c0,0.5-0.4,0.8-0.9,0.8
							C611.8,93.2,611.4,92.8,611.4,92.3z M611.8,95.4h1v9.6h-1V95.4z"/>
						<path class="st2" d="M615.6,100.2c0-3.2,2-5.1,4.3-5.1c2.3,0,4.3,1.9,4.3,5.1c0,3.2-2,5-4.3,5
							C617.6,105.2,615.6,103.4,615.6,100.2z M623.2,100.2c0-2.4-1.4-4.1-3.3-4.1c-1.9,0-3.2,1.7-3.2,4.1c0,2.4,1.4,4.1,3.2,4.1
							C621.8,104.3,623.2,102.7,623.2,100.2z"/>
						<path class="st2" d="M627.1,95.4h0.9l0.1,1.5h0c1-1,2-1.7,3.3-1.7c2,0,2.9,1.2,2.9,3.7v6.1h-1v-6c0-2-0.6-2.9-2.1-2.9
							c-1.1,0-1.9,0.6-3,1.7v7.2h-1V95.4z"/>
						<path class="st2" d="M641.4,92.3c0-0.5,0.4-0.9,0.9-0.9c0.5,0,0.9,0.3,0.9,0.9c0,0.5-0.4,0.8-0.9,0.8
							C641.8,93.2,641.4,92.8,641.4,92.3z M641.8,95.4h1v9.6h-1V95.4z"/>
						<path class="st2" d="M646.4,95.4h0.9l0.1,1.5h0c1-1,2-1.7,3.3-1.7c2,0,2.9,1.2,2.9,3.7v6.1h-1v-6c0-2-0.6-2.9-2.1-2.9
							c-1.1,0-1.9,0.6-3,1.7v7.2h-1V95.4z"/>
						<path class="st2" d="M660.2,103.3l0.7-0.8c1,1.1,2.3,1.7,3.8,1.7c1.9,0,3.2-1,3.2-2.5c0-1.6-1-2.1-2.3-2.7l-2-0.9
							c-1.2-0.5-2.7-1.4-2.7-3.3c0-1.9,1.7-3.3,3.9-3.3c1.6,0,2.9,0.7,3.7,1.6l-0.6,0.7c-0.8-0.8-1.8-1.3-3.1-1.3
							c-1.7,0-2.8,0.9-2.8,2.2c0,1.5,1.3,2.1,2.2,2.5l2,0.9c1.5,0.7,2.8,1.5,2.8,3.5c0,2-1.7,3.6-4.2,3.6
							C662.7,105.2,661.2,104.4,660.2,103.3z"/>
						<path class="st2" d="M670.8,98.4c0-4.2,2.3-6.8,5.7-6.8c1.5,0,2.8,0.8,3.5,1.6l-0.6,0.7c-0.7-0.8-1.6-1.3-2.8-1.3
							c-2.8,0-4.5,2.2-4.5,5.8c0,3.6,1.7,5.9,4.5,5.9c1.3,0,2.3-0.6,3.3-1.6l0.6,0.7c-1,1.2-2.2,1.9-3.9,1.9
							C673.1,105.2,670.8,102.6,670.8,98.4z"/>
						<path class="st2" d="M682.9,91.9h1.1V105h-1.1V91.9z"/>
						<path class="st2" d="M689.2,109.3l0.2-0.8c0.3,0.1,0.6,0.2,1,0.2c1.1,0,1.3-0.8,1.3-2.1V95.4h1.1v11.2c0,1.9-0.7,2.9-2.3,2.9
							C690,109.5,689.5,109.4,689.2,109.3z M691.3,92.3c0-0.5,0.4-0.9,0.9-0.9s0.9,0.3,0.9,0.9c0,0.5-0.4,0.8-0.9,0.8
							S691.3,92.8,691.3,92.3z"/>
						<path class="st2" d="M695.5,100.2c0-3.2,2-5.1,4.3-5.1c2.3,0,4.3,1.9,4.3,5.1c0,3.2-2,5-4.3,5
							C697.5,105.2,695.5,103.4,695.5,100.2z M703.1,100.2c0-2.4-1.4-4.1-3.3-4.1c-1.9,0-3.2,1.7-3.2,4.1c0,2.4,1.4,4.1,3.2,4.1
							C701.7,104.3,703.1,102.7,703.1,100.2z"/>
						<path class="st2" d="M706.9,101.5v-6.1h1v6c0,2,0.6,2.9,2.1,2.9c1.1,0,1.9-0.6,3-1.9v-7h1v9.6h-0.9l-0.1-1.6H713
							c-0.9,1.1-1.9,1.8-3.2,1.8C707.8,105.2,706.9,104,706.9,101.5z"/>
						<path class="st2" d="M717.6,95.4h0.9l0.1,1.8h0c0.6-1.2,1.6-2,2.7-2c0.4,0,0.7,0.1,1,0.2l-0.2,0.9c-0.3-0.1-0.5-0.2-0.9-0.2
							c-0.8,0-1.9,0.6-2.6,2.4v6.4h-1V95.4z"/>
						<path class="st2" d="M724.1,95.4h0.9l0.1,1.5h0c1-1,2-1.7,3.3-1.7c2,0,2.9,1.2,2.9,3.7v6.1h-1v-6c0-2-0.6-2.9-2.1-2.9
							c-1.1,0-1.9,0.6-3,1.7v7.2h-1V95.4z"/>
						<path class="st2" d="M734.1,102.6c0-2.1,1.9-3.1,6.1-3.6c0-1.4-0.4-2.9-2.2-2.9c-1.3,0-2.4,0.6-3,1.1l-0.5-0.8
							c0.7-0.5,2.1-1.3,3.6-1.3c2.3,0,3.1,1.6,3.1,3.8v6.1h-0.9l-0.1-1.2h0c-1,0.8-2.1,1.5-3.3,1.5
							C735.3,105.2,734.1,104.4,734.1,102.6z M740.2,102.9v-3.1c-3.8,0.4-5.1,1.3-5.1,2.8c0,1.3,0.9,1.8,2,1.8
							C738.2,104.4,739.1,103.8,740.2,102.9z"/>
						<path class="st2" d="M744.6,103.6V90.7h1v13c0,0.5,0.2,0.6,0.4,0.6c0.1,0,0.1,0,0.3,0l0.2,0.8c-0.2,0.1-0.4,0.1-0.7,0.1
							C745,105.2,744.6,104.7,744.6,103.6z"/>
						<path class="st2" d="M748.2,103.9l0.6-0.8c0.8,0.7,1.7,1.2,3,1.2c1.5,0,2.2-0.8,2.2-1.8c0-1.1-1.2-1.7-2.3-2.1
							c-1.4-0.5-3-1.1-3-2.8c0-1.4,1.1-2.6,3.2-2.6c1,0,2.1,0.5,2.8,1l-0.5,0.7c-0.6-0.5-1.4-0.9-2.3-0.9c-1.4,0-2.1,0.8-2.1,1.7
							c0,1.1,1.1,1.5,2.2,1.9c1.5,0.6,3.1,1.1,3.1,2.9c0,1.5-1.2,2.7-3.3,2.7C750.4,105.2,749.1,104.6,748.2,103.9z"/>
					</g>
					<text transform="matrix(1 0 0 1 755.3892 105)" class="st2 st3 st4"> </text>
					<g class="st1">
						<path class="st2" d="M244.8,134.6h4.4v0.9h-4.4V134.6z"/>
						<path class="st2" d="M254.9,138.3l0.7-0.8c1,1.1,2.3,1.7,3.8,1.7c1.9,0,3.2-1,3.2-2.5c0-1.6-1-2.1-2.3-2.7l-2-0.9
							c-1.2-0.5-2.7-1.4-2.7-3.3c0-1.9,1.7-3.3,3.9-3.3c1.6,0,2.9,0.7,3.7,1.6l-0.6,0.7c-0.8-0.8-1.8-1.3-3.1-1.3
							c-1.7,0-2.8,0.9-2.8,2.2c0,1.5,1.3,2.1,2.2,2.5l2,0.9c1.5,0.7,2.8,1.5,2.8,3.5c0,2-1.7,3.6-4.2,3.6
							C257.5,140.2,256,139.4,254.9,138.3z"/>
						<path class="st2" d="M266,137.3v-6h-1.5v-0.8l1.5-0.1l0.1-2.8h0.9v2.8h2.8v0.9h-2.8v6c0,1.2,0.3,2,1.6,2
							c0.4,0,0.8-0.1,1.2-0.3l0.3,0.8c-0.6,0.2-1.2,0.4-1.6,0.4C266.6,140.2,266,139,266,137.3z"/>
						<path class="st2" d="M272.1,130.4h0.9l0.1,1.8h0c0.6-1.2,1.6-2,2.7-2c0.4,0,0.7,0.1,1,0.2l-0.2,0.9c-0.3-0.1-0.5-0.2-0.9-0.2
							c-0.8,0-1.9,0.6-2.6,2.4v6.4h-1V130.4z"/>
						<path class="st2" d="M278.3,127.3c0-0.5,0.4-0.9,0.9-0.9c0.5,0,0.9,0.3,0.9,0.9c0,0.5-0.4,0.8-0.9,0.8
							C278.6,128.2,278.3,127.8,278.3,127.3z M278.6,130.4h1v9.6h-1V130.4z"/>
						<path class="st2" d="M282.4,135.2c0-3.2,2.1-5.1,4.4-5.1c1.3,0,2.1,0.6,2.8,1.2l-0.6,0.7c-0.6-0.6-1.3-1-2.2-1
							c-1.9,0-3.4,1.7-3.4,4.1c0,2.4,1.3,4.1,3.3,4.1c1,0,1.9-0.5,2.5-1.1l0.5,0.7c-0.8,0.7-1.9,1.2-3.1,1.2
							C284.3,140.2,282.4,138.4,282.4,135.2z"/>
						<path class="st2" d="M292.2,137.3v-6h-1.5v-0.8l1.5-0.1l0.1-2.8h0.9v2.8h2.8v0.9h-2.8v6c0,1.2,0.3,2,1.6,2
							c0.4,0,0.8-0.1,1.2-0.3l0.3,0.8c-0.6,0.2-1.2,0.4-1.6,0.4C292.8,140.2,292.2,139,292.2,137.3z"/>
						<path class="st2" d="M298.3,138.6v-12.9h1v13c0,0.5,0.2,0.6,0.4,0.6c0.1,0,0.1,0,0.3,0l0.2,0.8c-0.2,0.1-0.4,0.1-0.7,0.1
							C298.8,140.2,298.3,139.7,298.3,138.6z"/>
						<path class="st2" d="M301.9,144.1l0.2-0.9c0.2,0.1,0.5,0.1,0.8,0.1c1.2,0,1.9-1,2.4-2.4l0.3-0.8l-3.9-9.7h1.1l2.2,5.9
							c0.3,0.8,0.7,1.8,1,2.7h0.1c0.3-0.9,0.6-1.9,0.9-2.7l2-5.9h1.1l-3.7,10.7c-0.6,1.7-1.5,3.2-3.3,3.2
							C302.5,144.3,302.1,144.2,301.9,144.1z"/>
						<path class="st2" d="M316,130.4h0.9l0.1,1.5h0c0.9-1,1.9-1.7,3-1.7c1.5,0,2.3,0.8,2.6,1.9c1.1-1.2,2.1-1.9,3.2-1.9
							c1.9,0,2.9,1.2,2.9,3.7v6.1h-1v-6c0-2-0.7-2.9-2.1-2.9c-0.9,0-1.7,0.6-2.8,1.7v7.2h-1v-6c0-2-0.6-2.9-2.1-2.9
							c-0.8,0-1.8,0.6-2.8,1.7v7.2h-1V130.4z"/>
						<path class="st2" d="M331.6,137.6c0-2.1,1.9-3.1,6.1-3.6c0-1.4-0.4-2.9-2.2-2.9c-1.3,0-2.4,0.6-3,1.1l-0.5-0.8
							c0.7-0.5,2.1-1.3,3.6-1.3c2.3,0,3.1,1.6,3.1,3.8v6.1h-0.9l-0.1-1.2h0c-1,0.8-2.1,1.5-3.3,1.5
							C332.8,140.2,331.6,139.4,331.6,137.6z M337.7,137.9v-3.1c-3.8,0.4-5.1,1.3-5.1,2.8c0,1.3,0.9,1.8,2,1.8
							C335.6,139.4,336.6,138.8,337.7,137.9z"/>
						<path class="st2" d="M342.1,130.4h0.9l0.1,1.5h0c1-1,2-1.7,3.3-1.7c2,0,2.9,1.2,2.9,3.7v6.1h-1v-6c0-2-0.6-2.9-2.1-2.9
							c-1.1,0-1.9,0.6-3,1.7v7.2h-1V130.4z"/>
						<path class="st2" d="M352.1,137.6c0-2.1,1.9-3.1,6.1-3.6c0-1.4-0.4-2.9-2.2-2.9c-1.3,0-2.4,0.6-3,1.1l-0.5-0.8
							c0.7-0.5,2.1-1.3,3.6-1.3c2.3,0,3.1,1.6,3.1,3.8v6.1h-0.9l-0.1-1.2h0c-1,0.8-2.1,1.5-3.3,1.5
							C353.3,140.2,352.1,139.4,352.1,137.6z M358.2,137.9v-3.1c-3.8,0.4-5.1,1.3-5.1,2.8c0,1.3,0.9,1.8,2,1.8
							C356.2,139.4,357.1,138.8,358.2,137.9z"/>
						<path class="st2" d="M361.8,141.9c0-0.8,0.6-1.7,1.4-2.3v-0.1c-0.5-0.3-0.9-0.8-0.9-1.5c0-0.8,0.6-1.5,1.1-1.8v-0.1
							c-0.6-0.5-1.2-1.5-1.2-2.6c0-2,1.5-3.4,3.4-3.4c0.5,0,1,0.1,1.3,0.3h3.3v0.9H368c0.6,0.5,1,1.3,1,2.3c0,2-1.5,3.4-3.4,3.4
							c-0.5,0-1.1-0.1-1.5-0.4c-0.4,0.3-0.8,0.7-0.8,1.3c0,0.7,0.4,1.2,1.8,1.2h2c2.2,0,3.2,0.7,3.2,2.2c0,1.7-1.8,3.3-4.6,3.3
							C363.4,144.6,361.8,143.6,361.8,141.9z M369.3,141.5c0-1-0.8-1.4-2.2-1.4h-2c-0.2,0-0.7-0.1-1.2-0.2c-0.8,0.6-1.2,1.3-1.2,1.9
							c0,1.2,1.1,2,3.1,2C368,143.8,369.3,142.6,369.3,141.5z M368,133.6c0-1.6-1.1-2.6-2.4-2.6c-1.3,0-2.4,1-2.4,2.6
							c0,1.6,1.1,2.6,2.4,2.6C366.9,136.2,368,135.1,368,133.6z"/>
						<path class="st2" d="M371.3,135.2c0-3.1,2-5.1,4.2-5.1c2.3,0,3.7,1.7,3.7,4.5c0,0.3,0,0.5-0.1,0.8h-6.8c0.1,2.3,1.4,4,3.5,4
							c1,0,1.8-0.3,2.6-0.8l0.4,0.8c-0.8,0.5-1.7,0.9-3.1,0.9C373.3,140.2,371.3,138.4,371.3,135.2z M378.3,134.5
							c0-2.3-1.1-3.5-2.7-3.5c-1.6,0-3,1.3-3.2,3.5H378.3z"/>
						<path class="st2" d="M392.1,140.6l0.1-1.9c-0.8,0.8-1.9,1.5-3.1,1.5c-2.4,0-4-1.8-4-5c0-3.1,2-5.1,4.2-5.1
							c1.2,0,1.9,0.4,2.8,1.2h0l0.1-0.9h0.8v13.9h-1V140.6z M392.1,137.8v-5.5c-1-0.9-1.8-1.2-2.7-1.2c-1.8,0-3.2,1.8-3.2,4.1
							c0,2.5,1.1,4.1,3,4.1C390.2,139.3,391.1,138.8,392.1,137.8z"/>
						<path class="st2" d="M396.6,136.5v-6.1h1v6c0,2,0.6,2.9,2.1,2.9c1.1,0,1.9-0.6,3-1.9v-7h1v9.6h-0.9l-0.1-1.6h-0.1
							c-0.9,1.1-1.9,1.8-3.2,1.8C397.5,140.2,396.6,139,396.6,136.5z"/>
						<path class="st2" d="M406.7,137.6c0-2.1,1.9-3.1,6.1-3.6c0-1.4-0.4-2.9-2.2-2.9c-1.3,0-2.4,0.6-3,1.1l-0.5-0.8
							c0.7-0.5,2.1-1.3,3.6-1.3c2.3,0,3.1,1.6,3.1,3.8v6.1h-0.9l-0.1-1.2h0c-1,0.8-2.1,1.5-3.3,1.5
							C407.9,140.2,406.7,139.4,406.7,137.6z M412.8,137.9v-3.1c-3.8,0.4-5.1,1.3-5.1,2.8c0,1.3,0.9,1.8,2,1.8
							C410.7,139.4,411.7,138.8,412.8,137.9z"/>
						<path class="st2" d="M417.2,138.6v-12.9h1v13c0,0.5,0.2,0.6,0.4,0.6c0.1,0,0.1,0,0.3,0l0.2,0.8c-0.2,0.1-0.4,0.1-0.7,0.1
							C417.6,140.2,417.2,139.7,417.2,138.6z"/>
						<path class="st2" d="M421.6,127.3c0-0.5,0.4-0.9,0.9-0.9c0.5,0,0.9,0.3,0.9,0.9c0,0.5-0.4,0.8-0.9,0.8
							C422,128.2,421.6,127.8,421.6,127.3z M422,130.4h1v9.6h-1V130.4z"/>
						<path class="st2" d="M426.8,137.3v-6h-1.5v-0.8l1.5-0.1l0.1-2.8h0.9v2.8h2.8v0.9h-2.8v6c0,1.2,0.3,2,1.6,2
							c0.4,0,0.8-0.1,1.2-0.3l0.3,0.8c-0.6,0.2-1.2,0.4-1.6,0.4C427.4,140.2,426.8,139,426.8,137.3z"/>
						<path class="st2" d="M431.6,144.1l0.2-0.9c0.2,0.1,0.5,0.1,0.8,0.1c1.2,0,1.9-1,2.4-2.4l0.3-0.8l-3.9-9.7h1.1l2.2,5.9
							c0.3,0.8,0.7,1.8,1,2.7h0.1c0.3-0.9,0.6-1.9,0.9-2.7l2-5.9h1.1l-3.7,10.7c-0.6,1.7-1.5,3.2-3.3,3.2
							C432.3,144.3,431.9,144.2,431.6,144.1z"/>
						<path class="st2" d="M444.6,138.9l0.6-0.8c0.8,0.7,1.7,1.2,3,1.2c1.5,0,2.2-0.8,2.2-1.8c0-1.1-1.2-1.7-2.3-2.1
							c-1.4-0.5-3-1.1-3-2.8c0-1.4,1.1-2.6,3.2-2.6c1,0,2.1,0.5,2.8,1l-0.5,0.7c-0.6-0.5-1.4-0.9-2.3-0.9c-1.4,0-2.1,0.8-2.1,1.7
							c0,1.1,1.1,1.5,2.2,1.9c1.5,0.6,3.1,1.1,3.1,2.9c0,1.5-1.2,2.7-3.3,2.7C446.7,140.2,445.5,139.6,444.6,138.9z"/>
						<path class="st2" d="M453.9,130.4h0.9l0.1,1.2h0c0.9-0.7,2-1.4,3.2-1.4c2.6,0,3.9,1.9,3.9,4.9c0,3.3-2,5.2-4.2,5.2
							c-0.9,0-1.9-0.4-2.8-1.2l0,1.8v3.5h-1V130.4z M460.9,135c0-2.3-0.8-4-2.9-4c-0.9,0-1.9,0.5-3,1.5v5.5c1,0.9,2,1.2,2.7,1.2
							C459.5,139.3,460.9,137.6,460.9,135z"/>
						<path class="st2" d="M464,135.2c0-3.1,2-5.1,4.2-5.1c2.3,0,3.7,1.7,3.7,4.5c0,0.3,0,0.5-0.1,0.8h-6.8c0.1,2.3,1.4,4,3.5,4
							c1,0,1.8-0.3,2.6-0.8l0.4,0.8c-0.8,0.5-1.7,0.9-3.1,0.9C466,140.2,464,138.4,464,135.2z M471,134.5c0-2.3-1.1-3.5-2.7-3.5
							c-1.6,0-3,1.3-3.2,3.5H471z"/>
						<path class="st2" d="M473.7,135.2c0-3.2,2.1-5.1,4.4-5.1c1.3,0,2.1,0.6,2.8,1.2l-0.6,0.7c-0.6-0.6-1.3-1-2.2-1
							c-1.9,0-3.4,1.7-3.4,4.1c0,2.4,1.3,4.1,3.3,4.1c1,0,1.9-0.5,2.5-1.1l0.5,0.7c-0.8,0.7-1.9,1.2-3.1,1.2
							C475.6,140.2,473.7,138.4,473.7,135.2z"/>
						<path class="st2" d="M482.3,138.9l0.6-0.8c0.8,0.7,1.7,1.2,3,1.2c1.5,0,2.2-0.8,2.2-1.8c0-1.1-1.2-1.7-2.3-2.1
							c-1.4-0.5-3-1.1-3-2.8c0-1.4,1.1-2.6,3.2-2.6c1,0,2.1,0.5,2.8,1l-0.5,0.7c-0.6-0.5-1.4-0.9-2.3-0.9c-1.4,0-2.1,0.8-2.1,1.7
							c0,1.1,1.1,1.5,2.2,1.9c1.5,0.6,3.1,1.1,3.1,2.9c0,1.5-1.2,2.7-3.3,2.7C484.4,140.2,483.1,139.6,482.3,138.9z"/>
					</g>
					<text transform="matrix(1 0 0 1 489.7864 140)" class="st2 st3 st4"> </text>
					<g class="st1">
						<path class="st2" d="M244.8,169.6h4.4v0.9h-4.4V169.6z"/>
						<path class="st2" d="M255.9,161.9h3.1c4,0,6,2.5,6,6.5c0,4-2,6.6-6,6.6h-3.1V161.9z M258.9,174.1c3.5,0,5-2.3,5-5.7
							c0-3.4-1.5-5.6-5-5.6H257v11.3H258.9z"/>
						<path class="st2" d="M267.1,170.2c0-3.1,2-5.1,4.2-5.1c2.3,0,3.7,1.7,3.7,4.5c0,0.3,0,0.5-0.1,0.8h-6.8c0.1,2.3,1.4,4,3.5,4
							c1,0,1.8-0.3,2.6-0.8l0.4,0.8c-0.8,0.5-1.7,0.9-3.1,0.9C269.1,175.2,267.1,173.4,267.1,170.2z M274.1,169.5
							c0-2.3-1.1-3.5-2.7-3.5c-1.6,0-3,1.3-3.2,3.5H274.1z"/>
						<path class="st2" d="M276.2,165.4h1.1l2.1,5.9c0.3,0.9,0.6,1.9,1,2.8h0.1c0.3-0.9,0.6-1.8,1-2.8l2.1-5.9h1.1L281,175h-1.2
							L276.2,165.4z"/>
						<path class="st2" d="M285.8,170.2c0-3.1,2-5.1,4.2-5.1c2.3,0,3.7,1.7,3.7,4.5c0,0.3,0,0.5-0.1,0.8h-6.8c0.1,2.3,1.4,4,3.5,4
							c1,0,1.8-0.3,2.6-0.8l0.4,0.8c-0.8,0.5-1.7,0.9-3.1,0.9C287.8,175.2,285.8,173.4,285.8,170.2z M292.7,169.5
							c0-2.3-1.1-3.5-2.7-3.5c-1.6,0-3,1.3-3.2,3.5H292.7z"/>
						<path class="st2" d="M296.3,173.6v-12.9h1v13c0,0.5,0.2,0.6,0.4,0.6c0.1,0,0.1,0,0.3,0l0.2,0.8c-0.2,0.1-0.4,0.1-0.7,0.1
							C296.7,175.2,296.3,174.7,296.3,173.6z"/>
						<path class="st2" d="M300.3,170.2c0-3.2,2-5.1,4.3-5.1s4.3,1.9,4.3,5.1c0,3.2-2,5-4.3,5S300.3,173.4,300.3,170.2z
							 M307.9,170.2c0-2.4-1.4-4.1-3.3-4.1s-3.2,1.7-3.2,4.1c0,2.4,1.4,4.1,3.2,4.1S307.9,172.7,307.9,170.2z"/>
						<path class="st2" d="M311.8,165.4h0.9l0.1,1.2h0c0.9-0.7,2-1.4,3.2-1.4c2.6,0,3.9,1.9,3.9,4.9c0,3.3-2,5.2-4.2,5.2
							c-0.9,0-1.9-0.4-2.8-1.2l0,1.8v3.5h-1V165.4z M318.7,170c0-2.3-0.8-4-2.9-4c-0.9,0-1.9,0.5-3,1.5v5.5c1,0.9,2,1.2,2.7,1.2
							C317.4,174.3,318.7,172.6,318.7,170z"/>
						<path class="st2" d="M326.6,165.4h0.9l0.1,1.5h0c0.9-1,1.9-1.7,3-1.7c1.5,0,2.3,0.8,2.6,1.9c1.1-1.2,2.1-1.9,3.2-1.9
							c1.9,0,2.9,1.2,2.9,3.7v6.1h-1v-6c0-2-0.7-2.9-2.1-2.9c-0.9,0-1.7,0.6-2.8,1.7v7.2h-1v-6c0-2-0.6-2.9-2.1-2.9
							c-0.8,0-1.8,0.6-2.8,1.7v7.2h-1V165.4z"/>
						<path class="st2" d="M342.2,172.6c0-2.1,1.9-3.1,6.1-3.6c0-1.4-0.4-2.9-2.2-2.9c-1.3,0-2.4,0.6-3,1.1l-0.5-0.8
							c0.7-0.5,2.1-1.3,3.6-1.3c2.3,0,3.1,1.6,3.1,3.8v6.1h-0.9l-0.1-1.2h0c-1,0.8-2.1,1.5-3.3,1.5
							C343.5,175.2,342.2,174.4,342.2,172.6z M348.4,172.9v-3.1c-3.8,0.4-5.1,1.3-5.1,2.8c0,1.3,0.9,1.8,2,1.8
							C346.3,174.4,347.2,173.8,348.4,172.9z"/>
						<path class="st2" d="M352.8,172.3v-6h-1.5v-0.8l1.5-0.1l0.1-2.8h0.9v2.8h2.8v0.9h-2.8v6c0,1.2,0.3,2,1.6,2
							c0.4,0,0.8-0.1,1.2-0.3l0.3,0.8c-0.6,0.2-1.2,0.4-1.6,0.4C353.3,175.2,352.8,174,352.8,172.3z"/>
						<path class="st2" d="M357.8,170.2c0-3.1,2-5.1,4.2-5.1c2.3,0,3.7,1.7,3.7,4.5c0,0.3,0,0.5-0.1,0.8h-6.8c0.1,2.3,1.4,4,3.5,4
							c1,0,1.8-0.3,2.6-0.8l0.4,0.8c-0.8,0.5-1.7,0.9-3.1,0.9C359.8,175.2,357.8,173.4,357.8,170.2z M364.8,169.5
							c0-2.3-1.1-3.5-2.7-3.5c-1.6,0-3,1.3-3.2,3.5H364.8z"/>
						<path class="st2" d="M368.3,165.4h0.9l0.1,1.8h0c0.6-1.2,1.6-2,2.7-2c0.4,0,0.7,0.1,1,0.2l-0.2,0.9c-0.3-0.1-0.5-0.2-0.9-0.2
							c-0.8,0-1.9,0.6-2.6,2.4v6.4h-1V165.4z"/>
						<path class="st2" d="M374.4,162.3c0-0.5,0.4-0.9,0.9-0.9c0.5,0,0.9,0.3,0.9,0.9c0,0.5-0.4,0.8-0.9,0.8
							C374.8,163.2,374.4,162.8,374.4,162.3z M374.8,165.4h1v9.6h-1V165.4z"/>
						<path class="st2" d="M378.7,172.6c0-2.1,1.9-3.1,6.1-3.6c0-1.4-0.4-2.9-2.2-2.9c-1.3,0-2.4,0.6-3,1.1l-0.5-0.8
							c0.7-0.5,2.1-1.3,3.6-1.3c2.3,0,3.1,1.6,3.1,3.8v6.1H385l-0.1-1.2h0c-1,0.8-2.1,1.5-3.3,1.5
							C380,175.2,378.7,174.4,378.7,172.6z M384.9,172.9v-3.1c-3.8,0.4-5.1,1.3-5.1,2.8c0,1.3,0.9,1.8,2,1.8
							C382.8,174.4,383.7,173.8,384.9,172.9z"/>
						<path class="st2" d="M389.2,173.6v-12.9h1v13c0,0.5,0.2,0.6,0.4,0.6c0.1,0,0.1,0,0.3,0l0.2,0.8c-0.2,0.1-0.4,0.1-0.7,0.1
							C389.7,175.2,389.2,174.7,389.2,173.6z"/>
						<path class="st2" d="M401.9,161.6c-0.4-0.2-0.8-0.3-1.1-0.3c-1,0-1.5,0.8-1.5,2.1v2h2.2v0.9h-2.2v8.7h-1v-8.7h-1.3v-0.8
							l1.3-0.1v-2c0-1.9,0.8-2.9,2.5-2.9c0.5,0,1,0.1,1.4,0.3L401.9,161.6z"/>
						<path class="st2" d="M402.4,170.2c0-3.2,2-5.1,4.3-5.1s4.3,1.9,4.3,5.1c0,3.2-2,5-4.3,5S402.4,173.4,402.4,170.2z M410,170.2
							c0-2.4-1.4-4.1-3.3-4.1s-3.2,1.7-3.2,4.1c0,2.4,1.4,4.1,3.2,4.1S410,172.7,410,170.2z"/>
						<path class="st2" d="M413.9,165.4h0.9l0.1,1.8h0c0.6-1.2,1.6-2,2.7-2c0.4,0,0.7,0.1,1,0.2l-0.2,0.9c-0.3-0.1-0.5-0.2-0.9-0.2
							c-0.8,0-1.9,0.6-2.6,2.4v6.4h-1V165.4z"/>
						<path class="st2" d="M425.4,174L425.4,174l-0.2,1h-0.8v-14.3h1v4.1l-0.1,1.8c1-0.8,2.1-1.5,3.2-1.5c2.6,0,3.9,1.9,3.9,4.9
							c0,3.3-2,5.2-4.2,5.2C427.3,175.2,426.2,174.8,425.4,174z M431.3,170c0-2.3-0.8-4-2.9-4c-0.9,0-1.9,0.5-3,1.5v5.5
							c1,0.9,2,1.2,2.7,1.2C430,174.3,431.3,172.6,431.3,170z"/>
						<path class="st2" d="M435.2,165.4h0.9l0.1,1.8h0c0.6-1.2,1.6-2,2.7-2c0.4,0,0.7,0.1,1,0.2l-0.2,0.9c-0.3-0.1-0.5-0.2-0.9-0.2
							c-0.8,0-1.9,0.6-2.6,2.4v6.4h-1V165.4z"/>
						<path class="st2" d="M440.6,172.6c0-2.1,1.9-3.1,6.1-3.6c0-1.4-0.4-2.9-2.2-2.9c-1.3,0-2.4,0.6-3,1.1l-0.5-0.8
							c0.7-0.5,2.1-1.3,3.6-1.3c2.3,0,3.1,1.6,3.1,3.8v6.1h-0.9l-0.1-1.2h0c-1,0.8-2.1,1.5-3.3,1.5
							C441.8,175.2,440.6,174.4,440.6,172.6z M446.7,172.9v-3.1c-3.8,0.4-5.1,1.3-5.1,2.8c0,1.3,0.9,1.8,2,1.8
							C444.6,174.4,445.6,173.8,446.7,172.9z"/>
						<path class="st2" d="M450.7,162.3c0-0.5,0.4-0.9,0.9-0.9c0.5,0,0.9,0.3,0.9,0.9c0,0.5-0.4,0.8-0.9,0.8
							C451.1,163.2,450.7,162.8,450.7,162.3z M451.1,165.4h1v9.6h-1V165.4z"/>
						<path class="st2" d="M455.7,165.4h0.9l0.1,1.5h0c1-1,2-1.7,3.3-1.7c2,0,2.9,1.2,2.9,3.7v6.1h-1v-6c0-2-0.6-2.9-2.1-2.9
							c-1.1,0-1.9,0.6-3,1.7v7.2h-1V165.4z"/>
						<path class="st2" d="M474.2,161.6c-0.4-0.2-0.8-0.3-1.1-0.3c-1,0-1.5,0.8-1.5,2.1v2h2.2v0.9h-2.2v8.7h-1v-8.7h-1.3v-0.8
							l1.3-0.1v-2c0-1.9,0.8-2.9,2.5-2.9c0.5,0,1,0.1,1.4,0.3L474.2,161.6z"/>
						<path class="st2" d="M475.6,171.5v-6.1h1v6c0,2,0.6,2.9,2.1,2.9c1.1,0,1.9-0.6,3-1.9v-7h1v9.6h-0.9l-0.1-1.6h-0.1
							c-0.9,1.1-1.9,1.8-3.2,1.8C476.5,175.2,475.6,174,475.6,171.5z"/>
						<path class="st2" d="M486.4,165.4h0.9l0.1,1.5h0c1-1,2-1.7,3.3-1.7c2,0,2.9,1.2,2.9,3.7v6.1h-1v-6c0-2-0.6-2.9-2.1-2.9
							c-1.1,0-1.9,0.6-3,1.7v7.2h-1V165.4z"/>
						<path class="st2" d="M496.2,170.2c0-3.2,2.1-5.1,4.4-5.1c1.3,0,2.1,0.6,2.8,1.2l-0.6,0.7c-0.6-0.6-1.3-1-2.2-1
							c-1.9,0-3.4,1.7-3.4,4.1c0,2.4,1.3,4.1,3.3,4.1c1,0,1.9-0.5,2.5-1.1l0.5,0.7c-0.8,0.7-1.9,1.2-3.1,1.2
							C498.1,175.2,496.2,173.4,496.2,170.2z"/>
						<path class="st2" d="M506.1,172.3v-6h-1.5v-0.8l1.5-0.1l0.1-2.8h0.9v2.8h2.8v0.9h-2.8v6c0,1.2,0.3,2,1.6,2
							c0.4,0,0.8-0.1,1.2-0.3l0.3,0.8c-0.6,0.2-1.2,0.4-1.6,0.4C506.6,175.2,506.1,174,506.1,172.3z"/>
						<path class="st2" d="M511.8,162.3c0-0.5,0.4-0.9,0.9-0.9c0.5,0,0.9,0.3,0.9,0.9c0,0.5-0.4,0.8-0.9,0.8
							C512.2,163.2,511.8,162.8,511.8,162.3z M512.2,165.4h1v9.6h-1V165.4z"/>
						<path class="st2" d="M516,170.2c0-3.2,2-5.1,4.3-5.1c2.3,0,4.3,1.9,4.3,5.1c0,3.2-2,5-4.3,5C518,175.2,516,173.4,516,170.2z
							 M523.6,170.2c0-2.4-1.4-4.1-3.3-4.1c-1.9,0-3.2,1.7-3.2,4.1c0,2.4,1.4,4.1,3.2,4.1C522.2,174.3,523.6,172.7,523.6,170.2z"/>
						<path class="st2" d="M527.5,165.4h0.9l0.1,1.5h0c1-1,2-1.7,3.3-1.7c2,0,2.9,1.2,2.9,3.7v6.1h-1v-6c0-2-0.6-2.9-2.1-2.9
							c-1.1,0-1.9,0.6-3,1.7v7.2h-1V165.4z"/>
						<path class="st2" d="M542,171.5v-6.1h1v6c0,2,0.6,2.9,2.1,2.9c1.1,0,1.9-0.6,3-1.9v-7h1v9.6h-0.9l-0.1-1.6h-0.1
							c-0.9,1.1-1.9,1.8-3.2,1.8C542.9,175.2,542,174,542,171.5z"/>
						<path class="st2" d="M551.6,173.9l0.6-0.8c0.8,0.7,1.7,1.2,3,1.2c1.5,0,2.2-0.8,2.2-1.8c0-1.1-1.2-1.7-2.3-2.1
							c-1.4-0.5-3-1.1-3-2.8c0-1.4,1.1-2.6,3.2-2.6c1,0,2.1,0.5,2.8,1l-0.5,0.7c-0.6-0.5-1.4-0.9-2.3-0.9c-1.4,0-2.1,0.8-2.1,1.7
							c0,1.1,1.1,1.5,2.2,1.9c1.5,0.6,3.1,1.1,3.1,2.9c0,1.5-1.2,2.7-3.3,2.7C553.7,175.2,552.5,174.6,551.6,173.9z"/>
						<path class="st2" d="M560.6,162.3c0-0.5,0.4-0.9,0.9-0.9c0.5,0,0.9,0.3,0.9,0.9c0,0.5-0.4,0.8-0.9,0.8
							C561,163.2,560.6,162.8,560.6,162.3z M560.9,165.4h1v9.6h-1V165.4z"/>
						<path class="st2" d="M565.5,165.4h0.9l0.1,1.5h0c1-1,2-1.7,3.3-1.7c2,0,2.9,1.2,2.9,3.7v6.1h-1v-6c0-2-0.6-2.9-2.1-2.9
							c-1.1,0-1.9,0.6-3,1.7v7.2h-1V165.4z"/>
						<path class="st2" d="M575.4,176.9c0-0.8,0.6-1.7,1.4-2.3v-0.1c-0.5-0.3-0.9-0.8-0.9-1.5c0-0.8,0.6-1.5,1.1-1.8v-0.1
							c-0.6-0.5-1.2-1.5-1.2-2.6c0-2,1.5-3.4,3.4-3.4c0.5,0,1,0.1,1.3,0.3h3.3v0.9h-2.2c0.6,0.5,1,1.3,1,2.3c0,2-1.5,3.4-3.4,3.4
							c-0.5,0-1.1-0.1-1.5-0.4c-0.4,0.3-0.8,0.7-0.8,1.3c0,0.7,0.4,1.2,1.8,1.2h2c2.2,0,3.2,0.7,3.2,2.2c0,1.7-1.8,3.3-4.6,3.3
							C577,179.6,575.4,178.6,575.4,176.9z M582.9,176.5c0-1-0.8-1.4-2.2-1.4h-2c-0.2,0-0.7-0.1-1.2-0.2c-0.8,0.6-1.2,1.3-1.2,1.9
							c0,1.2,1.1,2,3.1,2C581.6,178.8,582.9,177.6,582.9,176.5z M581.6,168.6c0-1.6-1.1-2.6-2.4-2.6c-1.3,0-2.4,1-2.4,2.6
							c0,1.6,1.1,2.6,2.4,2.6C580.5,171.2,581.6,170.1,581.6,168.6z"/>
						<path class="st2" d="M590,165.4h0.9l0.1,1.5h0c0.9-1,1.9-1.7,3-1.7c1.5,0,2.3,0.8,2.6,1.9c1.1-1.2,2.1-1.9,3.2-1.9
							c1.9,0,2.9,1.2,2.9,3.7v6.1h-1v-6c0-2-0.7-2.9-2.1-2.9c-0.9,0-1.7,0.6-2.8,1.7v7.2h-1v-6c0-2-0.6-2.9-2.1-2.9
							c-0.8,0-1.8,0.6-2.8,1.7v7.2h-1V165.4z"/>
						<path class="st2" d="M605.9,162.3c0-0.5,0.4-0.9,0.9-0.9c0.5,0,0.9,0.3,0.9,0.9c0,0.5-0.4,0.8-0.9,0.8
							C606.3,163.2,605.9,162.8,605.9,162.3z M606.2,165.4h1v9.6h-1V165.4z"/>
						<path class="st2" d="M610.1,170.2c0-3.2,2.1-5.1,4.4-5.1c1.3,0,2.1,0.6,2.8,1.2l-0.6,0.7c-0.6-0.6-1.3-1-2.2-1
							c-1.9,0-3.4,1.7-3.4,4.1c0,2.4,1.3,4.1,3.3,4.1c1,0,1.9-0.5,2.5-1.1l0.5,0.7c-0.8,0.7-1.9,1.2-3.1,1.2
							C612,175.2,610.1,173.4,610.1,170.2z"/>
						<path class="st2" d="M619.9,165.4h0.9l0.1,1.8h0c0.6-1.2,1.6-2,2.7-2c0.4,0,0.7,0.1,1,0.2l-0.2,0.9c-0.3-0.1-0.5-0.2-0.9-0.2
							c-0.8,0-1.9,0.6-2.6,2.4v6.4h-1V165.4z"/>
						<path class="st2" d="M625.3,170.2c0-3.2,2-5.1,4.3-5.1s4.3,1.9,4.3,5.1c0,3.2-2,5-4.3,5S625.3,173.4,625.3,170.2z
							 M632.9,170.2c0-2.4-1.4-4.1-3.3-4.1s-3.2,1.7-3.2,4.1c0,2.4,1.4,4.1,3.2,4.1S632.9,172.7,632.9,170.2z"/>
						<path class="st2" d="M637.8,174L637.8,174l-0.2,1h-0.8v-14.3h1v4.1l-0.1,1.8c1-0.8,2.1-1.5,3.2-1.5c2.6,0,3.9,1.9,3.9,4.9
							c0,3.3-2,5.2-4.2,5.2C639.8,175.2,638.7,174.8,637.8,174z M643.8,170c0-2.3-0.8-4-2.9-4c-0.9,0-1.9,0.5-3,1.5v5.5
							c1,0.9,2,1.2,2.7,1.2C642.4,174.3,643.8,172.6,643.8,170z"/>
						<path class="st2" d="M647.3,162.3c0-0.5,0.4-0.9,0.9-0.9c0.5,0,0.9,0.3,0.9,0.9c0,0.5-0.4,0.8-0.9,0.8
							C647.7,163.2,647.3,162.8,647.3,162.3z M647.7,165.4h1v9.6h-1V165.4z"/>
						<path class="st2" d="M651.5,170.2c0-3.2,2-5.1,4.3-5.1c2.3,0,4.3,1.9,4.3,5.1c0,3.2-2,5-4.3,5
							C653.5,175.2,651.5,173.4,651.5,170.2z M659.1,170.2c0-2.4-1.4-4.1-3.3-4.1c-1.9,0-3.2,1.7-3.2,4.1c0,2.4,1.4,4.1,3.2,4.1
							C657.7,174.3,659.1,172.7,659.1,170.2z"/>
						<path class="st2" d="M663,165.4h0.9l0.1,1.5h0c0.9-1,1.9-1.7,3-1.7c1.5,0,2.3,0.8,2.6,1.9c1.1-1.2,2.1-1.9,3.2-1.9
							c1.9,0,2.9,1.2,2.9,3.7v6.1h-1v-6c0-2-0.7-2.9-2.1-2.9c-0.9,0-1.7,0.6-2.8,1.7v7.2h-1v-6c0-2-0.6-2.9-2.1-2.9
							c-0.8,0-1.8,0.6-2.8,1.7v7.2h-1V165.4z"/>
						<path class="st2" d="M678.5,170.2c0-3.1,2-5.1,4.2-5.1c2.3,0,3.7,1.7,3.7,4.5c0,0.3,0,0.5-0.1,0.8h-6.8c0.1,2.3,1.4,4,3.5,4
							c1,0,1.8-0.3,2.6-0.8l0.4,0.8c-0.8,0.5-1.7,0.9-3.1,0.9C680.5,175.2,678.5,173.4,678.5,170.2z M685.4,169.5
							c0-2.3-1.1-3.5-2.7-3.5c-1.6,0-3,1.3-3.2,3.5H685.4z"/>
					</g>
				</g>
				
					<g id="arrow" transform="translate(500.000000, 289.500000) rotate(-270.000000) translate(-500.000000, -289.500000) translate(449.500000, 279.500000)">
					<path id="Line" class="st5" d="M0.5,10h100"/>
					<polyline id="Stroke-1" class="st6" points="90,0 101,10 90,20 					"/>
					<polyline class="st6" points="11,20 0,10 11,0 					"/>
				</g>
				<g id="box3" transform="translate(0.000000, 354.500000)">
					<path class="st7" d="M9,1h982c4.4,0,8,3.6,8,8v132c0,4.4-3.6,8-8,8H9c-4.4,0-8-3.6-8-8V9C1,4.6,4.6,1,9,1z"/>
					<g class="st1">
						<path class="st8" d="M304.1,50.7c0-4.8,3-7.7,6.9-7.7c2.1,0,3.5,0.9,4.4,1.9l-1.3,1.5c-0.7-0.7-1.6-1.3-3-1.3
							c-2.7,0-4.6,2.1-4.6,5.6c0,3.5,1.6,5.6,4.7,5.6c0.9,0,1.8-0.3,2.3-0.7v-3.5h-2.9v-1.9h5v6.4c-1,1-2.6,1.7-4.7,1.7
							C307,58.3,304.1,55.5,304.1,50.7z"/>
						<path class="st8" d="M318.8,55.4V42.1h2.3v13.5c0,0.6,0.3,0.8,0.6,0.8c0.1,0,0.2,0,0.4,0l0.3,1.7c-0.3,0.1-0.7,0.2-1.2,0.2
							C319.4,58.3,318.8,57.2,318.8,55.4z"/>
						<path class="st8" d="M323.9,52.5c0-3.7,2.5-5.8,5.2-5.8c2.7,0,5.2,2.1,5.2,5.8c0,3.6-2.5,5.7-5.2,5.7
							C326.4,58.3,323.9,56.2,323.9,52.5z M331.9,52.5c0-2.3-1.1-3.9-2.8-3.9c-1.7,0-2.8,1.6-2.8,3.9c0,2.3,1.1,3.9,2.8,3.9
							C330.9,56.4,331.9,54.8,331.9,52.5z"/>
						<path class="st8" d="M339.1,56.9L339.1,56.9l-0.3,1.1H337V42.1h2.3v4.2l-0.1,1.9c0.9-0.8,2.1-1.4,3.3-1.4
							c2.8,0,4.4,2.2,4.4,5.6c0,3.8-2.3,5.9-4.7,5.9C341.1,58.3,340,57.8,339.1,56.9z M344.5,52.4c0-2.3-0.7-3.7-2.6-3.7
							c-0.9,0-1.7,0.4-2.6,1.3v5.4c0.8,0.7,1.7,1,2.4,1C343.3,56.4,344.5,54.9,344.5,52.4z"/>
						<path class="st8" d="M348.6,55.1c0-2.4,2-3.6,6.6-4.1c0-1.3-0.5-2.4-2.1-2.4c-1.2,0-2.2,0.5-3.2,1.1l-0.9-1.6
							c1.1-0.7,2.7-1.4,4.4-1.4c2.7,0,4,1.7,4,4.7V58h-1.9l-0.2-1.3h-0.1c-1,0.9-2.2,1.5-3.5,1.5C350,58.3,348.6,57,348.6,55.1z
							 M355.2,55.2v-2.7c-3.3,0.4-4.4,1.2-4.4,2.5c0,1.1,0.7,1.5,1.7,1.5C353.5,56.4,354.3,56,355.2,55.2z"/>
						<path class="st8" d="M360.8,55.4V42.1h2.3v13.5c0,0.6,0.3,0.8,0.6,0.8c0.1,0,0.2,0,0.4,0l0.3,1.7c-0.3,0.1-0.7,0.2-1.2,0.2
							C361.4,58.3,360.8,57.2,360.8,55.4z"/>
						<path class="st8" d="M370.8,42h1.6l-5.6,19.6h-1.6L370.8,42z"/>
						<path class="st8" d="M374.7,43.3h2.3v7h0.1l5.6-7h2.6l-4.6,5.7l5.3,9h-2.6l-4.2-7.2l-2.3,2.8V58h-2.3V43.3z"/>
						<path class="st8" d="M386.8,52.5c0-3.7,2.5-5.8,5.2-5.8c2.7,0,5.2,2.1,5.2,5.8c0,3.6-2.5,5.7-5.2,5.7
							C389.3,58.3,386.8,56.2,386.8,52.5z M394.8,52.5c0-2.3-1.1-3.9-2.8-3.9c-1.7,0-2.8,1.6-2.8,3.9c0,2.3,1.1,3.9,2.8,3.9
							C393.7,56.4,394.8,54.8,394.8,52.5z"/>
						<path class="st8" d="M399.9,47h1.9l0.2,2h0.1c0.8-1.4,1.9-2.3,3.1-2.3c0.5,0,0.9,0.1,1.2,0.2l-0.4,2c-0.4-0.1-0.7-0.2-1.1-0.2
							c-0.9,0-2,0.6-2.7,2.4V58h-2.3V47z"/>
						<path class="st8" d="M407,52.5c0-3.6,2.4-5.8,5-5.8c2.9,0,4.5,2.1,4.5,5.2c0,0.4,0,0.9-0.1,1.2h-7.1c0.2,2.1,1.5,3.4,3.4,3.4
							c1,0,1.8-0.3,2.6-0.8l0.8,1.5c-1,0.7-2.3,1.2-3.7,1.2C409.4,58.3,407,56.1,407,52.5z M414.6,51.5c0-1.9-0.9-3-2.5-3
							c-1.4,0-2.6,1.1-2.8,3H414.6z"/>
						<path class="st8" d="M418.2,55.1c0-2.4,2-3.6,6.6-4.1c0-1.3-0.5-2.4-2.1-2.4c-1.2,0-2.2,0.5-3.2,1.1l-0.9-1.6
							c1.1-0.7,2.7-1.4,4.4-1.4c2.7,0,4,1.7,4,4.7V58h-1.9l-0.2-1.3h-0.1c-1,0.9-2.2,1.5-3.5,1.5C419.5,58.3,418.2,57,418.2,55.1z
							 M424.8,55.2v-2.7c-3.3,0.4-4.4,1.2-4.4,2.5c0,1.1,0.7,1.5,1.7,1.5C423.1,56.4,423.9,56,424.8,55.2z"/>
						<path class="st8" d="M430.3,47h1.9l0.2,1.5h0.1c1-1,2.1-1.8,3.6-1.8c2.3,0,3.4,1.6,3.4,4.4V58h-2.3v-6.6
							c0-1.9-0.6-2.7-1.9-2.7c-1,0-1.7,0.5-2.7,1.5V58h-2.3V47z"/>
						<path class="st8" d="M447.3,47h1.9l0.2,1.5h0.1c0.9-1,2-1.8,3.4-1.8c1.6,0,2.6,0.8,3,2c1.1-1.2,2.2-2,3.6-2
							c2.3,0,3.4,1.6,3.4,4.4V58h-2.3v-6.6c0-1.9-0.6-2.7-1.8-2.7c-0.8,0-1.6,0.5-2.5,1.5V58h-2.3v-6.6c0-1.9-0.6-2.7-1.8-2.7
							c-0.7,0-1.6,0.5-2.5,1.5V58h-2.3V47z"/>
						<path class="st8" d="M465.5,55.1c0-2.4,2-3.6,6.6-4.1c0-1.3-0.5-2.4-2.1-2.4c-1.2,0-2.2,0.5-3.2,1.1l-0.9-1.6
							c1.1-0.7,2.7-1.4,4.4-1.4c2.7,0,4,1.7,4,4.7V58h-1.9l-0.2-1.3h-0.1c-1,0.9-2.2,1.5-3.5,1.5C466.8,58.3,465.5,57,465.5,55.1z
							 M472.1,55.2v-2.7c-3.3,0.4-4.4,1.2-4.4,2.5c0,1.1,0.7,1.5,1.7,1.5C470.4,56.4,471.2,56,472.1,55.2z"/>
						<path class="st8" d="M477.6,47h1.9l0.2,2h0.1c0.8-1.4,1.9-2.3,3.1-2.3c0.5,0,0.9,0.1,1.2,0.2l-0.4,2c-0.4-0.1-0.7-0.2-1.1-0.2
							c-0.9,0-2,0.6-2.7,2.4V58h-2.3V47z"/>
						<path class="st8" d="M485.8,42.1h2.2v10.3h0.1l4.3-5.3h2.5l-3.7,4.5l4.2,6.5h-2.5l-3-5l-1.9,2.1V58h-2.2V42.1z"/>
						<path class="st8" d="M496.1,52.5c0-3.6,2.4-5.8,5-5.8c2.9,0,4.5,2.1,4.5,5.2c0,0.4,0,0.9-0.1,1.2h-7.1
							c0.2,2.1,1.5,3.4,3.4,3.4c1,0,1.8-0.3,2.6-0.8l0.8,1.5c-1,0.7-2.3,1.2-3.7,1.2C498.4,58.3,496.1,56.1,496.1,52.5z M503.6,51.5
							c0-1.9-0.9-3-2.5-3c-1.4,0-2.6,1.1-2.8,3H503.6z"/>
						<path class="st8" d="M508.3,54.4v-5.6h-1.6v-1.7l1.7-0.1l0.3-3h1.9v3h2.9v1.8h-2.9v5.6c0,1.3,0.5,2,1.6,2
							c0.4,0,0.9-0.1,1.2-0.3l0.4,1.7c-0.6,0.2-1.4,0.4-2.2,0.4C509.1,58.3,508.3,56.7,508.3,54.4z"/>
						<path class="st8" d="M520.3,55.4V42.1h2.3v13.5c0,0.6,0.3,0.8,0.6,0.8c0.1,0,0.2,0,0.4,0l0.3,1.7c-0.3,0.1-0.7,0.2-1.2,0.2
							C521,58.3,520.3,57.2,520.3,55.4z"/>
						<path class="st8" d="M525.7,55.1c0-2.4,2-3.6,6.6-4.1c0-1.3-0.5-2.4-2.1-2.4c-1.2,0-2.2,0.5-3.2,1.1l-0.9-1.6
							c1.1-0.7,2.7-1.4,4.4-1.4c2.7,0,4,1.7,4,4.7V58h-1.9l-0.2-1.3h-0.1c-1,0.9-2.2,1.5-3.5,1.5C527,58.3,525.7,57,525.7,55.1z
							 M532.2,55.2v-2.7c-3.3,0.4-4.4,1.2-4.4,2.5c0,1.1,0.7,1.5,1.7,1.5C530.6,56.4,531.3,56,532.2,55.2z"/>
						<path class="st8" d="M537.7,53.9V47h2.3v6.6c0,1.9,0.5,2.6,1.8,2.6c1,0,1.7-0.5,2.6-1.6V47h2.3v11h-1.9l-0.2-1.7h-0.1
							c-1,1.2-2.1,1.9-3.6,1.9C538.7,58.3,537.7,56.7,537.7,53.9z"/>
						<path class="st8" d="M550.2,47h1.9l0.2,1.5h0.1c1-1,2.1-1.8,3.6-1.8c2.3,0,3.4,1.6,3.4,4.4V58H557v-6.6c0-1.9-0.6-2.7-1.9-2.7
							c-1,0-1.7,0.5-2.7,1.5V58h-2.3V47z"/>
						<path class="st8" d="M561.9,52.5c0-3.7,2.5-5.8,5.4-5.8c1.4,0,2.4,0.6,3.2,1.3l-1.1,1.5c-0.6-0.5-1.2-0.9-2-0.9
							c-1.8,0-3.2,1.6-3.2,3.9c0,2.3,1.3,3.9,3.1,3.9c0.9,0,1.7-0.4,2.4-1l0.9,1.5c-1,0.9-2.3,1.4-3.6,1.4
							C564.2,58.3,561.9,56.2,561.9,52.5z"/>
						<path class="st8" d="M573,42.1h2.3v4.2l-0.1,2.2c1-0.9,2.1-1.7,3.6-1.7c2.3,0,3.4,1.6,3.4,4.4V58h-2.3v-6.6
							c0-1.9-0.6-2.7-1.9-2.7c-1,0-1.7,0.5-2.7,1.5V58H573V42.1z"/>
						<path class="st8" d="M589.2,52.5c0-3.7,2.5-5.8,5.2-5.8c2.7,0,5.2,2.1,5.2,5.8c0,3.6-2.5,5.7-5.2,5.7
							C591.6,58.3,589.2,56.2,589.2,52.5z M597.2,52.5c0-2.3-1.1-3.9-2.8-3.9c-1.7,0-2.8,1.6-2.8,3.9c0,2.3,1.1,3.9,2.8,3.9
							C596.1,56.4,597.2,54.8,597.2,52.5z"/>
						<path class="st8" d="M607.5,43.9c-0.4-0.2-0.8-0.3-1.2-0.3c-1,0-1.5,0.6-1.5,2V47h2.2v1.8h-2.2V58h-2.3v-9.2H601v-1.7l1.5-0.1
							v-1.4c0-2.3,1-3.8,3.5-3.8c0.7,0,1.4,0.2,1.9,0.4L607.5,43.9z"/>
						<path class="st8" d="M613.6,47h1.9l0.2,1.2h0.1c1-0.8,2.2-1.5,3.4-1.5c2.8,0,4.4,2.2,4.4,5.6c0,3.8-2.3,5.9-4.7,5.9
							c-1,0-2-0.4-2.9-1.2l0.1,1.9v3.6h-2.3V47z M621,52.4c0-2.3-0.7-3.7-2.6-3.7c-0.9,0-1.7,0.4-2.6,1.3v5.4c0.9,0.7,1.7,1,2.4,1
							C619.8,56.4,621,54.9,621,52.4z"/>
						<path class="st8" d="M626.2,47h1.9l0.2,2h0.1c0.8-1.4,1.9-2.3,3.1-2.3c0.5,0,0.9,0.1,1.2,0.2l-0.4,2c-0.4-0.1-0.7-0.2-1.1-0.2
							c-0.9,0-2,0.6-2.7,2.4V58h-2.3V47z"/>
						<path class="st8" d="M633.3,52.5c0-3.7,2.5-5.8,5.2-5.8c2.7,0,5.2,2.1,5.2,5.8c0,3.6-2.5,5.7-5.2,5.7
							C635.8,58.3,633.3,56.2,633.3,52.5z M641.3,52.5c0-2.3-1.1-3.9-2.8-3.9c-1.7,0-2.8,1.6-2.8,3.9c0,2.3,1.1,3.9,2.8,3.9
							C640.3,56.4,641.3,54.8,641.3,52.5z"/>
						<path class="st8" d="M645.7,52.5c0-3.6,2.3-5.8,4.7-5.8c1.3,0,2.1,0.5,3,1.2l-0.1-1.8v-4.1h2.3V58h-1.9l-0.2-1.2h-0.1
							c-0.8,0.8-2,1.5-3.2,1.5C647.4,58.3,645.7,56.2,645.7,52.5z M653.2,55v-5.4c-0.8-0.7-1.6-1-2.4-1c-1.5,0-2.8,1.5-2.8,3.8
							c0,2.5,1,3.9,2.7,3.9C651.7,56.4,652.4,55.9,653.2,55z"/>
						<path class="st8" d="M658.9,53.9V47h2.3v6.6c0,1.9,0.5,2.6,1.8,2.6c1,0,1.7-0.5,2.6-1.6V47h2.3v11h-1.9l-0.2-1.7h-0.1
							c-1,1.2-2.1,1.9-3.6,1.9C659.9,58.3,658.9,56.7,658.9,53.9z"/>
						<path class="st8" d="M670.6,52.5c0-3.7,2.5-5.8,5.4-5.8c1.4,0,2.4,0.6,3.2,1.3l-1.1,1.5c-0.6-0.5-1.2-0.9-2-0.9
							c-1.8,0-3.2,1.6-3.2,3.9c0,2.3,1.3,3.9,3.1,3.9c0.9,0,1.7-0.4,2.4-1l0.9,1.5c-1,0.9-2.3,1.4-3.6,1.4
							C672.9,58.3,670.6,56.2,670.6,52.5z"/>
						<path class="st8" d="M681.9,54.4v-5.6h-1.6v-1.7L682,47l0.3-3h1.9v3h2.9v1.8h-2.9v5.6c0,1.3,0.5,2,1.6,2
							c0.4,0,0.9-0.1,1.2-0.3l0.4,1.7c-0.6,0.2-1.4,0.4-2.2,0.4C682.7,58.3,681.9,56.7,681.9,54.4z"/>
						<path class="st8" d="M688.1,56.7l1.1-1.5c1,0.8,1.9,1.3,3.1,1.3c1.3,0,1.9-0.6,1.9-1.5c0-1-1.2-1.4-2.4-1.9
							c-1.5-0.6-3.1-1.3-3.1-3.2c0-1.8,1.5-3.2,3.9-3.2c1.5,0,2.7,0.6,3.6,1.3l-1.1,1.4c-0.8-0.6-1.5-1-2.5-1
							c-1.2,0-1.8,0.6-1.8,1.4c0,0.9,1.1,1.3,2.3,1.7c1.5,0.6,3.2,1.3,3.2,3.3c0,1.8-1.5,3.3-4.2,3.3
							C690.7,58.3,689.1,57.6,688.1,56.7z"/>
					</g>
					<text transform="matrix(1 0 0 1 697.0771 58)" class="st8 st9 st10"> </text>
					<g class="st1">
						<path class="st8" d="M303.5,87h2.3l1.5,6c0.2,1.1,0.4,2.1,0.6,3.1h0.1c0.2-1,0.5-2.1,0.7-3.1l1.5-6h2.1l1.6,6
							c0.3,1.1,0.5,2.1,0.7,3.1h0.1c0.2-1,0.4-2.1,0.6-3.1l1.4-6h2.2l-2.8,11h-2.8l-1.4-5.4c-0.3-1-0.5-2-0.7-3.2h-0.1
							c-0.2,1.1-0.4,2.2-0.7,3.2l-1.3,5.4h-2.7L303.5,87z"/>
						<path class="st8" d="M321,83.6c0-0.8,0.6-1.4,1.5-1.4c0.8,0,1.5,0.5,1.5,1.4c0,0.8-0.6,1.4-1.5,1.4
							C321.6,84.9,321,84.4,321,83.6z M321.3,87h2.3v11h-2.3V87z"/>
						<path class="st8" d="M327.4,94.4v-5.6h-1.6v-1.7l1.7-0.1l0.3-3h1.9v3h2.9v1.8h-2.9v5.6c0,1.3,0.5,2,1.6,2
							c0.4,0,0.9-0.1,1.2-0.3l0.4,1.7c-0.6,0.2-1.4,0.4-2.2,0.4C328.3,98.3,327.4,96.7,327.4,94.4z"/>
						<path class="st8" d="M335,82.1h2.3v4.2l-0.1,2.2c1-0.9,2.1-1.7,3.6-1.7c2.3,0,3.4,1.6,3.4,4.4V98h-2.3v-6.6
							c0-1.9-0.6-2.7-1.9-2.7c-1,0-1.7,0.5-2.7,1.5V98H335V82.1z"/>
						<path class="st8" d="M351.9,87h1.9l0.2,1.5h0.1c1-1,2.1-1.8,3.6-1.8c2.3,0,3.4,1.6,3.4,4.4V98h-2.3v-6.6
							c0-1.9-0.6-2.7-1.9-2.7c-1,0-1.7,0.5-2.7,1.5V98h-2.3V87z"/>
						<path class="st8" d="M363.6,92.5c0-3.7,2.5-5.8,5.2-5.8c2.7,0,5.2,2.1,5.2,5.8c0,3.6-2.5,5.7-5.2,5.7
							C366,98.3,363.6,96.2,363.6,92.5z M371.6,92.5c0-2.3-1.1-3.9-2.8-3.9c-1.7,0-2.8,1.6-2.8,3.9c0,2.3,1.1,3.9,2.8,3.9
							C370.5,96.4,371.6,94.8,371.6,92.5z"/>
						<path class="st8" d="M375,87h2.4l1.9,5.9c0.3,1.1,0.6,2.2,1,3.3h0.1c0.3-1.1,0.7-2.2,1-3.3l1.9-5.9h2.2l-3.8,11h-2.7L375,87z"
							/>
						<path class="st8" d="M386.5,92.5c0-3.6,2.4-5.8,5-5.8c2.9,0,4.5,2.1,4.5,5.2c0,0.4,0,0.9-0.1,1.2h-7.1
							c0.2,2.1,1.5,3.4,3.4,3.4c1,0,1.8-0.3,2.6-0.8l0.8,1.5c-1,0.7-2.3,1.2-3.7,1.2C388.9,98.3,386.5,96.1,386.5,92.5z M394,91.5
							c0-1.9-0.9-3-2.5-3c-1.4,0-2.6,1.1-2.8,3H394z"/>
						<path class="st8" d="M398.6,95.4V82.1h2.3v13.5c0,0.6,0.3,0.8,0.6,0.8c0.1,0,0.2,0,0.4,0l0.3,1.7c-0.3,0.1-0.7,0.2-1.2,0.2
							C399.2,98.3,398.6,97.2,398.6,95.4z"/>
						<path class="st8" d="M409.1,82.1h2.3v4.2l-0.1,2.2c1-0.9,2.1-1.7,3.6-1.7c2.3,0,3.4,1.6,3.4,4.4V98h-2.3v-6.6
							c0-1.9-0.6-2.7-1.9-2.7c-1,0-1.7,0.5-2.7,1.5V98h-2.3V82.1z"/>
						<path class="st8" d="M420.7,92.5c0-3.6,2.4-5.8,5-5.8c2.9,0,4.5,2.1,4.5,5.2c0,0.4,0,0.9-0.1,1.2H423c0.2,2.1,1.5,3.4,3.4,3.4
							c1,0,1.8-0.3,2.6-0.8l0.8,1.5c-1,0.7-2.3,1.2-3.7,1.2C423.1,98.3,420.7,96.1,420.7,92.5z M428.2,91.5c0-1.9-0.9-3-2.5-3
							c-1.4,0-2.6,1.1-2.8,3H428.2z"/>
						<path class="st8" d="M431.8,95.1c0-2.4,2-3.6,6.6-4.1c0-1.3-0.5-2.4-2.1-2.4c-1.2,0-2.2,0.5-3.2,1.1l-0.9-1.6
							c1.1-0.7,2.7-1.4,4.4-1.4c2.7,0,4,1.7,4,4.7V98h-1.9l-0.2-1.3h-0.1c-1,0.9-2.2,1.5-3.5,1.5C433.2,98.3,431.8,97,431.8,95.1z
							 M438.4,95.2v-2.7c-3.3,0.4-4.4,1.2-4.4,2.5c0,1.1,0.7,1.5,1.7,1.5C436.7,96.4,437.5,96,438.4,95.2z"/>
						<path class="st8" d="M444,95.4V82.1h2.3v13.5c0,0.6,0.3,0.8,0.6,0.8c0.1,0,0.2,0,0.4,0l0.3,1.7c-0.3,0.1-0.7,0.2-1.2,0.2
							C444.6,98.3,444,97.2,444,95.4z"/>
						<path class="st8" d="M450.3,94.4v-5.6h-1.6v-1.7l1.7-0.1l0.3-3h1.9v3h2.9v1.8h-2.9v5.6c0,1.3,0.5,2,1.6,2
							c0.4,0,0.9-0.1,1.2-0.3l0.4,1.7c-0.6,0.2-1.4,0.4-2.2,0.4C451.2,98.3,450.3,96.7,450.3,94.4z"/>
						<path class="st8" d="M457.9,82.1h2.3v4.2l-0.1,2.2c1-0.9,2.1-1.7,3.6-1.7c2.3,0,3.4,1.6,3.4,4.4V98h-2.3v-6.6
							c0-1.9-0.6-2.7-1.9-2.7c-1,0-1.7,0.5-2.7,1.5V98h-2.3V82.1z"/>
						<path class="st8" d="M474,92.5c0-3.7,2.5-5.8,5.4-5.8c1.4,0,2.4,0.6,3.2,1.3l-1.1,1.5c-0.6-0.5-1.2-0.9-2-0.9
							c-1.8,0-3.2,1.6-3.2,3.9c0,2.3,1.3,3.9,3.1,3.9c0.9,0,1.7-0.4,2.4-1l0.9,1.5c-1,0.9-2.3,1.4-3.6,1.4
							C476.3,98.3,474,96.2,474,92.5z"/>
						<path class="st8" d="M485.1,95.4V82.1h2.3v13.5c0,0.6,0.3,0.8,0.6,0.8c0.1,0,0.2,0,0.4,0l0.3,1.7c-0.3,0.1-0.7,0.2-1.2,0.2
							C485.7,98.3,485.1,97.2,485.1,95.4z"/>
						<path class="st8" d="M490.4,95.1c0-2.4,2-3.6,6.6-4.1c0-1.3-0.5-2.4-2.1-2.4c-1.2,0-2.2,0.5-3.2,1.1l-0.9-1.6
							c1.1-0.7,2.7-1.4,4.4-1.4c2.7,0,4,1.7,4,4.7V98h-1.9l-0.2-1.3h-0.1c-1,0.9-2.2,1.5-3.5,1.5C491.8,98.3,490.4,97,490.4,95.1z
							 M497,95.2v-2.7c-3.3,0.4-4.4,1.2-4.4,2.5c0,1.1,0.7,1.5,1.7,1.5C495.3,96.4,496.1,96,497,95.2z"/>
						<path class="st8" d="M502.3,83.6c0-0.8,0.6-1.4,1.5-1.4s1.5,0.5,1.5,1.4c0,0.8-0.6,1.4-1.5,1.4S502.3,84.4,502.3,83.6z
							 M502.6,87h2.3v11h-2.3V87z"/>
						<path class="st8" d="M508.3,87h1.9l0.2,1.5h0.1c0.9-1,2-1.8,3.4-1.8c1.6,0,2.6,0.8,3,2c1.1-1.2,2.2-2,3.6-2
							c2.3,0,3.4,1.6,3.4,4.4V98h-2.3v-6.6c0-1.9-0.6-2.7-1.8-2.7c-0.8,0-1.6,0.5-2.5,1.5V98h-2.3v-6.6c0-1.9-0.6-2.7-1.8-2.7
							c-0.7,0-1.6,0.5-2.5,1.5V98h-2.3V87z"/>
						<path class="st8" d="M526,96.7l1.1-1.5c1,0.8,1.9,1.3,3.1,1.3c1.3,0,1.9-0.6,1.9-1.5c0-1-1.2-1.4-2.4-1.9
							c-1.5-0.6-3.1-1.3-3.1-3.2c0-1.8,1.5-3.2,3.9-3.2c1.5,0,2.7,0.6,3.6,1.3l-1.1,1.4c-0.8-0.6-1.5-1-2.5-1
							c-1.2,0-1.8,0.6-1.8,1.4c0,0.9,1.1,1.3,2.3,1.7c1.5,0.6,3.2,1.3,3.2,3.3c0,1.8-1.5,3.3-4.2,3.3
							C528.6,98.3,527.1,97.6,526,96.7z"/>
					</g>
				</g>
			</g>
		</g>
	</g>
</g>
</svg>
