<?xml version="1.0" encoding="utf-8"?>
<!-- Generator: Adobe Illustrator 23.0.4, SVG Export Plug-In . SVG Version: 6.00 Build 0)  -->
<svg version="1.1" id="레이어_1" xmlns="http://www.w3.org/2000/svg" xmlns:xlink="http://www.w3.org/1999/xlink" x="0px"
	 y="0px" viewBox="0 0 1002 224" style="enable-background:new 0 0 1002 224;" xml:space="preserve">
<style type="text/css">
	.st0{fill-rule:evenodd;clip-rule:evenodd;}
	.st1{enable-background:new    ;}
	.st2{fill:#FFFFFF;}
	.st3{fill:none;stroke:#979797;stroke-linecap:square;}
</style>
<title>표</title>
<desc>Created with Sketch.</desc>
<g id="Page-1">
	<g transform="translate(-189.000000, -930.000000)">
		<g id="first" transform="translate(190.000000, 420.000000)">
			<g id="표" transform="translate(0.000000, 510.000000)">
				<g id="head">
					<g>
						<path id="bg" class="st0" d="M8,0h234c4.4,0,8,3.6,8,8v34c0,4.4-3.6,8-8,8H8c-4.4,0-8-3.6-8-8V8C0,3.6,3.6,0,8,0z"/>
						<g class="st1">
							<path class="st2" d="M94.4,19.9H98c2.5,0,4.3,0.9,4.3,3.5c0,2.5-1.9,3.7-4.3,3.7h-1.5V31h-2.2L94.4,19.9L94.4,19.9z
								 M97.9,25.3c1.5,0,2.3-0.6,2.3-1.9s-0.8-1.7-2.3-1.7h-1.3v3.6H97.9z"/>
							<path class="st2" d="M104.2,22.6h1.8l0.1,1.5h0.1c0.6-1.1,1.5-1.7,2.4-1.7c0.5,0,0.7,0.1,1,0.2l-0.4,1.9
								c-0.3-0.1-0.5-0.1-0.9-0.1c-0.7,0-1.5,0.4-1.9,1.7v5h-2.2V22.6z"/>
							<path class="st2" d="M110,26.8c0-2.8,1.9-4.4,4-4.4s4,1.6,4,4.4s-1.9,4.4-4,4.4S110,29.6,110,26.8z M115.8,26.8
								c0-1.6-0.6-2.6-1.8-2.6s-1.8,1-1.8,2.6s0.6,2.6,1.8,2.6S115.8,28.4,115.8,26.8z"/>
							<path class="st2" d="M119.4,32.5c0-0.7,0.4-1.3,1.2-1.7v-0.1c-0.4-0.3-0.8-0.7-0.8-1.4c0-0.6,0.4-1.2,0.9-1.6v-0.1
								c-0.6-0.4-1.1-1.2-1.1-2.2c0-2,1.6-3,3.4-3c0.5,0,0.9,0.1,1.3,0.2h3v1.6h-1.4c0.2,0.3,0.4,0.8,0.4,1.3c0,1.9-1.4,2.8-3.2,2.8
								c-0.3,0-0.7-0.1-1.1-0.2c-0.2,0.2-0.4,0.4-0.4,0.7c0,0.5,0.3,0.7,1.3,0.7h1.4c2,0,3.1,0.6,3.1,2.1c0,1.7-1.8,3-4.6,3
								C120.9,34.6,119.4,34,119.4,32.5z M125.4,32c0-0.6-0.5-0.8-1.4-0.8h-1c-0.5,0-0.9,0-1.2-0.1c-0.4,0.3-0.6,0.6-0.6,1
								c0,0.7,0.8,1.1,2,1.1C124.5,33.2,125.4,32.7,125.4,32z M124.3,25.4c0-1-0.6-1.5-1.3-1.5s-1.3,0.6-1.3,1.5
								c0,1,0.6,1.5,1.3,1.5S124.3,26.4,124.3,25.4z"/>
							<path class="st2" d="M128.9,22.6h1.8l0.1,1.5h0.1c0.6-1.1,1.5-1.7,2.4-1.7c0.5,0,0.7,0.1,1,0.2l-0.4,1.9
								c-0.3-0.1-0.5-0.1-0.9-0.1c-0.7,0-1.5,0.4-1.9,1.7v5h-2.2L128.9,22.6L128.9,22.6z"/>
							<path class="st2" d="M134.5,28.7c0-1.8,1.5-2.7,4.8-3.1c0-0.8-0.4-1.5-1.4-1.5c-0.8,0-1.5,0.3-2.3,0.8l-0.8-1.5
								c1-0.6,2.2-1.1,3.5-1.1c2.1,0,3.2,1.3,3.2,3.7v5h-1.8l-0.2-0.9l0,0c-0.7,0.6-1.6,1.1-2.5,1.1
								C135.5,31.2,134.5,30.1,134.5,28.7z M139.4,28.7V27c-2,0.3-2.7,0.8-2.7,1.6c0,0.7,0.5,0.9,1.1,0.9
								C138.4,29.5,138.9,29.2,139.4,28.7z"/>
							<path class="st2" d="M143.8,22.6h1.8l0.1,1.1h0.1c0.7-0.7,1.5-1.3,2.6-1.3c1.2,0,1.9,0.5,2.3,1.5c0.8-0.8,1.6-1.5,2.7-1.5
								c1.8,0,2.6,1.3,2.6,3.4V31h-2.2v-5c0-1.3-0.4-1.8-1.2-1.8c-0.5,0-1,0.3-1.6,0.9V31h-2.2v-5c0-1.3-0.4-1.8-1.2-1.8
								c-0.5,0-1,0.3-1.6,0.9V31h-2.2L143.8,22.6L143.8,22.6z"/>
						</g>
					</g>
					<g transform="translate(260.000000, 0.000000)">
						<path class="st0" d="M8,0h724c4.4,0,8,3.6,8,8v34c0,4.4-3.6,8-8,8H8c-4.4,0-8-3.6-8-8V8C0,3.6,3.6,0,8,0z"/>
						<g class="st1">
							<path class="st2" d="M310.6,21.7h-3.1v-1.8h8.5v1.8h-3.2V31h-2.2L310.6,21.7L310.6,21.7z"/>
							<path class="st2" d="M317.6,19h2.2v3l-0.1,1.6c0.7-0.6,1.5-1.2,2.6-1.2c1.8,0,2.6,1.3,2.6,3.4V31h-2.2v-5
								c0-1.3-0.4-1.8-1.2-1.8c-0.7,0-1.1,0.3-1.8,0.9V31h-2.2V19H317.6z"/>
							<path class="st2" d="M326.6,26.8c0-2.7,1.9-4.4,3.9-4.4c2.3,0,3.5,1.7,3.5,4c0,0.4,0,0.8-0.1,1h-5.2c0.2,1.4,1.1,2.1,2.3,2.1
								c0.7,0,1.3-0.2,1.9-0.6l0.8,1.4c-0.8,0.6-1.9,0.9-2.9,0.9C328.5,31.2,326.6,29.6,326.6,26.8z M332.2,26
								c0-1.1-0.5-1.9-1.6-1.9c-0.9,0-1.7,0.6-1.8,1.9H332.2z"/>
							<path class="st2" d="M335.9,22.6h1.8l0.1,1.5h0.1c0.6-1.1,1.5-1.7,2.4-1.7c0.5,0,0.7,0.1,1,0.2l-0.4,1.9
								c-0.3-0.1-0.5-0.1-0.9-0.1c-0.7,0-1.5,0.4-1.9,1.7v5h-2.2V22.6z"/>
							<path class="st2" d="M341.5,28.7c0-1.8,1.5-2.7,4.8-3.1c0-0.8-0.4-1.5-1.4-1.5c-0.8,0-1.5,0.3-2.3,0.8l-0.8-1.5
								c1-0.6,2.2-1.1,3.5-1.1c2.1,0,3.2,1.3,3.2,3.7v5h-1.8l-0.2-0.9l0,0c-0.7,0.6-1.6,1.1-2.5,1.1
								C342.5,31.2,341.5,30.1,341.5,28.7z M346.4,28.7V27c-2,0.3-2.7,0.8-2.7,1.6c0,0.7,0.5,0.9,1.1,0.9S345.8,29.2,346.4,28.7z"/>
							<path class="st2" d="M350.8,22.6h1.8l0.1,0.9h0.1c0.7-0.6,1.6-1.1,2.5-1.1c2.1,0,3.3,1.7,3.3,4.3c0,2.9-1.7,4.5-3.6,4.5
								c-0.7,0-1.4-0.3-2.1-0.9l0.1,1.4v2.5h-2.2L350.8,22.6L350.8,22.6z M356.3,26.7c0-1.6-0.5-2.5-1.7-2.5c-0.6,0-1.1,0.3-1.7,0.9
								v3.7c0.5,0.5,1.1,0.6,1.5,0.6C355.6,29.4,356.3,28.5,356.3,26.7z"/>
							<path class="st2" d="M359.9,26.8c0-2.7,1.9-4.4,3.9-4.4c2.3,0,3.5,1.7,3.5,4c0,0.4,0,0.8-0.1,1H362c0.2,1.4,1.1,2.1,2.3,2.1
								c0.7,0,1.3-0.2,1.9-0.6l0.8,1.4c-0.8,0.6-1.9,0.9-2.9,0.9C361.8,31.2,359.9,29.6,359.9,26.8z M365.5,26
								c0-1.1-0.5-1.9-1.6-1.9c-0.9,0-1.7,0.6-1.8,1.9H365.5z"/>
							<path class="st2" d="M369.1,27.9v-5.2h2.2v5c0,1.3,0.4,1.8,1.2,1.8c0.7,0,1.1-0.3,1.7-1v-5.7h2.2V31h-1.8l-0.2-1.2h-0.1
								c-0.7,0.9-1.5,1.4-2.7,1.4C369.9,31.2,369.1,30,369.1,27.9z"/>
							<path class="st2" d="M379.1,28.1v-3.7h-1.2v-1.6l1.3-0.1l0.3-2.2h1.8v2.2h2.1v1.7h-2.1v3.7c0,1,0.4,1.4,1.1,1.4
								c0.3,0,0.6-0.1,0.8-0.2l0.4,1.6c-0.5,0.2-1,0.3-1.8,0.3C379.8,31.2,379.1,30,379.1,28.1z"/>
							<path class="st2" d="M384.8,20.1c0-0.7,0.6-1.2,1.3-1.2c0.8,0,1.3,0.5,1.3,1.2s-0.6,1.2-1.3,1.2
								C385.4,21.2,384.8,20.7,384.8,20.1z M385,22.6h2.2V31H385V22.6z"/>
							<path class="st2" d="M389.1,26.8c0-2.8,2-4.4,4.3-4.4c1,0,1.8,0.4,2.4,0.9l-1.1,1.4c-0.4-0.4-0.8-0.6-1.3-0.6
								c-1.3,0-2.1,1-2.1,2.6s0.9,2.6,2.1,2.6c0.6,0,1.2-0.3,1.6-0.7l0.9,1.5c-0.8,0.7-1.8,1-2.7,1
								C390.8,31.2,389.1,29.6,389.1,26.8z"/>
							<path class="st2" d="M406.3,28.2h-3.6l-0.8,2.8h-2.2l3.6-11.1h2.6l3.6,11.1h-2.3L406.3,28.2z M405.8,26.4l-0.3-1.2
								c-0.3-1.2-0.6-2.4-1-3.6h-0.1c-0.3,1.2-0.6,2.5-0.9,3.6l-0.3,1.2H405.8z"/>
							<path class="st2" d="M410.5,22.6h1.8l0.2,1.5h0.1c0.6-1.1,1.5-1.7,2.4-1.7c0.5,0,0.7,0.1,1,0.2l-0.4,1.9
								c-0.3-0.1-0.5-0.1-0.9-0.1c-0.7,0-1.5,0.4-1.9,1.7v5h-2.2v-8.5H410.5z"/>
							<path class="st2" d="M416.4,26.8c0-2.7,1.9-4.4,3.9-4.4c2.3,0,3.5,1.7,3.5,4c0,0.4,0,0.8-0.1,1h-5.2c0.2,1.4,1.1,2.1,2.3,2.1
								c0.7,0,1.3-0.2,1.9-0.6l0.8,1.4c-0.8,0.6-1.9,0.9-2.9,0.9C418.2,31.2,416.4,29.6,416.4,26.8z M421.9,26
								c0-1.1-0.5-1.9-1.6-1.9c-0.9,0-1.7,0.6-1.8,1.9H421.9z"/>
							<path class="st2" d="M425,28.7c0-1.8,1.5-2.7,4.8-3.1c0-0.8-0.4-1.5-1.4-1.5c-0.8,0-1.5,0.3-2.3,0.8l-0.8-1.5
								c1-0.6,2.2-1.1,3.5-1.1c2.1,0,3.2,1.3,3.2,3.7v5h-1.8l-0.2-0.9l0,0c-0.7,0.6-1.6,1.1-2.5,1.1C426,31.2,425,30.1,425,28.7z
								 M429.8,28.7V27c-2,0.3-2.7,0.8-2.7,1.6c0,0.7,0.5,0.9,1.1,0.9S429.3,29.2,429.8,28.7z"/>
						</g>
					</g>
				</g>
				<g id="cell1" transform="translate(0.000000, 65.000000)">
					<g class="st1">
						<path d="M104.4,10.9h2.2l0.2,1h0.1c0.8-0.7,1.9-1.3,3-1.3c2.5,0,4,2,4,5.1c0,3.5-2.1,5.5-4.3,5.5c-0.9,0-1.7-0.4-2.5-1.1
							l0.1,1.7v3.1h-2.6v-14H104.4z M111,15.8c0-1.9-0.6-3-2-3c-0.7,0-1.3,0.3-2,1v4.4c0.6,0.6,1.3,0.8,1.8,0.8
							C110.1,19.1,111,18,111,15.8z"/>
						<path d="M116.2,7.7h2.7V21h-2.7V7.7z"/>
						<path d="M122.2,7.7h2.7v5.8h0.1l4.4-5.8h2.9l-4.1,5.2L133,21h-3l-3.4-6l-1.7,2.2V21h-2.7C122.2,21,122.2,7.7,122.2,7.7z"/>
						<path d="M133.3,14.3c0-4.3,2.4-6.9,6-6.9c3.5,0,6,2.5,6,6.9s-2.4,7-6,7C135.8,21.3,133.3,18.6,133.3,14.3z M142.5,14.3
							c0-2.9-1.3-4.6-3.2-4.6s-3.2,1.7-3.2,4.6c0,2.8,1.3,4.7,3.2,4.7S142.5,17.1,142.5,14.3z"/>
					</g>
					<g class="st1">
						<path d="M285.9,16.1c0-3.3,2.3-5.2,4.9-5.2c1.3,0,2.2,0.5,2.9,1.1l-1,1.4c-0.5-0.5-1.1-0.8-1.8-0.8c-1.7,0-2.8,1.4-2.8,3.5
							s1.1,3.5,2.8,3.5c0.8,0,1.6-0.4,2.2-0.9l0.8,1.4c-0.9,0.8-2.1,1.2-3.2,1.2C287.9,21.2,285.9,19.3,285.9,16.1z"/>
						<path d="M295.9,6.6h2.1v3.8l-0.1,2c0.9-0.8,1.9-1.6,3.2-1.6c2.1,0,3,1.4,3,3.9V21H302v-6c0-1.7-0.5-2.4-1.7-2.4
							c-0.9,0-1.5,0.5-2.4,1.3v7h-2.1V6.6H295.9z"/>
						<path d="M307.1,11.1h1.7l0.2,1.8h0.1c0.7-1.3,1.7-2,2.8-2c0.5,0,0.8,0.1,1.1,0.2l-0.4,1.8c-0.3-0.1-0.6-0.2-1-0.2
							c-0.8,0-1.8,0.6-2.4,2.1V21h-2.1L307.1,11.1L307.1,11.1z"/>
						<path d="M313.5,16.1c0-3.3,2.2-5.2,4.7-5.2s4.7,1.9,4.7,5.2s-2.2,5.2-4.7,5.2S313.5,19.3,313.5,16.1z M320.7,16.1
							c0-2.1-1-3.5-2.5-3.5s-2.5,1.4-2.5,3.5s1,3.5,2.5,3.5C319.7,19.5,320.7,18.2,320.7,16.1z"/>
						<path d="M325.3,11.1h1.7l0.2,1.4h0.1c0.9-0.9,1.9-1.6,3.3-1.6c2.1,0,3,1.4,3,3.9V21h-2.1v-6c0-1.7-0.5-2.4-1.7-2.4
							c-0.9,0-1.5,0.5-2.4,1.3v7h-2.1V11.1z"/>
						<path d="M336.2,8c0-0.7,0.6-1.2,1.3-1.2s1.3,0.5,1.3,1.2s-0.6,1.2-1.3,1.2S336.2,8.7,336.2,8z M336.5,11.1h2.1V21h-2.1V11.1z"
							/>
						<path d="M341,16.1c0-3.3,2.3-5.2,4.9-5.2c1.3,0,2.2,0.5,2.9,1.1l-1,1.4c-0.5-0.5-1.1-0.8-1.8-0.8c-1.7,0-2.8,1.4-2.8,3.5
							s1.1,3.5,2.8,3.5c0.8,0,1.6-0.4,2.2-0.9l0.8,1.4c-0.9,0.8-2.1,1.2-3.2,1.2C343,21.2,341,19.3,341,16.1z"/>
						<path d="M353.9,11.1h2.1l1.3,5.4c0.2,1,0.4,1.9,0.5,2.8h0.1c0.2-0.9,0.4-1.9,0.6-2.8l1.4-5.4h1.9l1.4,5.4
							c0.2,1,0.4,1.9,0.7,2.8h0.1c0.2-0.9,0.4-1.9,0.6-2.8l1.3-5.4h1.9l-2.6,9.9h-2.5l-1.3-4.9c-0.2-0.9-0.4-1.8-0.6-2.9h-0.1
							c-0.2,1-0.4,1.9-0.6,2.9L359,21h-2.4L353.9,11.1z"/>
						<path d="M369.1,16.1c0-3.3,2.2-5.2,4.7-5.2s4.7,1.9,4.7,5.2s-2.2,5.2-4.7,5.2S369.1,19.3,369.1,16.1z M376.3,16.1
							c0-2.1-1-3.5-2.5-3.5s-2.5,1.4-2.5,3.5s1,3.5,2.5,3.5C375.3,19.5,376.3,18.2,376.3,16.1z"/>
						<path d="M380.7,17.3v-6.2h2.1v6c0,1.7,0.5,2.4,1.7,2.4c0.9,0,1.5-0.4,2.4-1.5v-6.9h2.1V21h-1.7l-0.2-1.5H387
							c-0.9,1-1.9,1.7-3.2,1.7C381.7,21.2,380.7,19.8,380.7,17.3z"/>
						<path d="M392,11.1h1.7l0.2,1.4h0.1c0.9-0.9,1.9-1.6,3.3-1.6c2.1,0,3,1.4,3,3.9V21h-2.1v-6c0-1.7-0.5-2.4-1.7-2.4
							c-0.9,0-1.5,0.5-2.4,1.3v7H392V11.1z"/>
						<path d="M402.6,16.1c0-3.2,2-5.2,4.2-5.2c1.1,0,1.9,0.4,2.7,1.1l-0.1-1.6V6.6h2.1V21h-1.7l-0.2-1.1h-0.1
							c-0.7,0.8-1.8,1.4-2.9,1.4C404.2,21.2,402.6,19.3,402.6,16.1z M409.4,18.3v-4.8c-0.7-0.7-1.4-0.9-2.2-0.9
							c-1.4,0-2.5,1.3-2.5,3.5c0,2.3,0.9,3.5,2.4,3.5C408,19.5,408.7,19.1,409.4,18.3z"/>
						<path d="M414,23.4c1.2-0.5,1.9-1.4,2-2.5c-0.1,0-0.1,0-0.2,0c-0.7,0-1.4-0.5-1.4-1.3s0.6-1.3,1.4-1.3c1,0,1.6,0.8,1.6,2.2
							c0,1.9-1.1,3.3-3,4.1L414,23.4z"/>
						<path d="M424,11.1h1.7l0.2,1.1h0.1c0.9-0.7,1.9-1.3,3-1.3c2.5,0,3.9,2,3.9,5c0,3.4-2,5.3-4.3,5.3c-0.9,0-1.8-0.4-2.6-1.1
							l0.1,1.7V25H424V11.1z M430.7,15.9c0-2.1-0.7-3.3-2.3-3.3c-0.8,0-1.5,0.4-2.4,1.2v4.8c0.8,0.7,1.5,0.9,2.2,0.9
							C429.7,19.5,430.7,18.2,430.7,15.9z"/>
						<path d="M434.7,16.1c0-3.2,2.2-5.2,4.5-5.2c2.6,0,4,1.9,4,4.7c0,0.4,0,0.8-0.1,1h-6.4c0.2,1.9,1.4,3,3.1,3
							c0.9,0,1.6-0.3,2.4-0.7l0.7,1.3c-0.9,0.6-2.1,1-3.3,1C436.8,21.2,434.7,19.3,434.7,16.1z M441.4,15.2c0-1.7-0.8-2.7-2.2-2.7
							c-1.2,0-2.3,1-2.5,2.7H441.4z"/>
						<path d="M445.5,11.1h1.7l0.2,1.8h0.1c0.7-1.3,1.7-2,2.8-2c0.5,0,0.8,0.1,1.1,0.2l-0.4,1.8c-0.3-0.1-0.6-0.2-1-0.2
							c-0.8,0-1.8,0.6-2.4,2.1V21h-2.1L445.5,11.1L445.5,11.1z"/>
						<path d="M452.6,8c0-0.7,0.6-1.2,1.3-1.2s1.3,0.5,1.3,1.2s-0.6,1.2-1.3,1.2S452.6,8.7,452.6,8z M452.9,11.1h2.1V21h-2.1V11.1z"
							/>
						<path d="M458.1,11.1h1.7l0.2,1.1h0.1c0.9-0.7,1.9-1.3,3-1.3c2.5,0,3.9,2,3.9,5c0,3.4-2,5.3-4.3,5.3c-0.9,0-1.8-0.4-2.6-1.1
							l0.1,1.7V25h-2.1L458.1,11.1L458.1,11.1z M464.8,15.9c0-2.1-0.7-3.3-2.3-3.3c-0.8,0-1.5,0.4-2.4,1.2v4.8
							c0.8,0.7,1.5,0.9,2.2,0.9C463.7,19.5,464.8,18.2,464.8,15.9z"/>
						<path d="M469.4,6.6h2.1v3.8l-0.1,2c0.9-0.8,1.9-1.6,3.2-1.6c2.1,0,3,1.4,3,3.9V21h-2.1v-6c0-1.7-0.5-2.4-1.7-2.4
							c-0.9,0-1.5,0.5-2.4,1.3v7h-2.1V6.6H469.4z"/>
						<path d="M479.9,16.1c0-3.2,2.2-5.2,4.5-5.2c2.6,0,4,1.9,4,4.7c0,0.4,0,0.8-0.1,1h-6.4c0.2,1.9,1.4,3,3.1,3
							c0.9,0,1.6-0.3,2.4-0.7l0.7,1.3c-0.9,0.6-2.1,1-3.3,1C482,21.2,479.9,19.3,479.9,16.1z M486.6,15.2c0-1.7-0.8-2.7-2.2-2.7
							c-1.2,0-2.3,1-2.5,2.7H486.6z"/>
						<path d="M490.7,11.1h1.7l0.2,1.8h0.1c0.7-1.3,1.7-2,2.8-2c0.5,0,0.8,0.1,1.1,0.2l-0.4,1.8c-0.3-0.1-0.6-0.2-1-0.2
							c-0.8,0-1.8,0.6-2.4,2.1V21h-2.1L490.7,11.1L490.7,11.1z"/>
						<path d="M497,18.4c0-2.1,1.8-3.2,5.9-3.7c0-1.2-0.4-2.2-1.9-2.2c-1,0-2,0.5-2.9,1l-0.8-1.4c1-0.6,2.4-1.3,4-1.3
							c2.5,0,3.6,1.6,3.6,4.2v6h-1.7l-0.2-1.1h-0.1c-0.9,0.8-2,1.4-3.2,1.4C498.2,21.2,497,20.1,497,18.4z M502.9,18.4V16
							c-2.9,0.4-3.9,1.1-3.9,2.2c0,1,0.7,1.4,1.5,1.4C501.4,19.6,502.1,19.2,502.9,18.4z"/>
						<path d="M507.9,18.7v-12h2.1v12.1c0,0.6,0.3,0.8,0.5,0.8c0.1,0,0.2,0,0.3,0l0.3,1.6c-0.3,0.1-0.6,0.2-1.1,0.2
							C508.5,21.2,507.9,20.3,507.9,18.7z"/>
						<path d="M516.8,18.4c0-2.1,1.8-3.2,5.9-3.7c0-1.2-0.4-2.2-1.9-2.2c-1,0-2,0.5-2.9,1l-0.8-1.4c1-0.6,2.4-1.3,4-1.3
							c2.5,0,3.6,1.6,3.6,4.2v6H523l-0.2-1.1h-0.1c-0.9,0.8-2,1.4-3.2,1.4C518,21.2,516.8,20.1,516.8,18.4z M522.7,18.4V16
							c-2.9,0.4-3.9,1.1-3.9,2.2c0,1,0.7,1.4,1.5,1.4C521.2,19.6,521.9,19.2,522.7,18.4z"/>
						<path d="M527.7,11.1h1.7l0.2,1.8h0.1c0.7-1.3,1.7-2,2.8-2c0.5,0,0.8,0.1,1.1,0.2l-0.4,1.8c-0.3-0.1-0.6-0.2-1-0.2
							c-0.8,0-1.8,0.6-2.4,2.1V21h-2.1L527.7,11.1L527.7,11.1z"/>
						<path d="M535.4,17.8v-5H534v-1.5l1.5-0.1l0.2-2.7h1.7v2.7h2.6v1.7h-2.6v5c0,1.2,0.4,1.8,1.4,1.8c0.3,0,0.8-0.1,1.1-0.2
							l0.4,1.5c-0.6,0.2-1.2,0.4-1.9,0.4C536.2,21.2,535.4,19.8,535.4,17.8z"/>
						<path d="M541.2,16.1c0-3.2,2.2-5.2,4.5-5.2c2.6,0,4,1.9,4,4.7c0,0.4,0,0.8-0.1,1h-6.4c0.2,1.9,1.4,3,3.1,3
							c0.9,0,1.6-0.3,2.4-0.7l0.7,1.3c-0.9,0.6-2.1,1-3.3,1C543.3,21.2,541.2,19.3,541.2,16.1z M548,15.2c0-1.7-0.8-2.7-2.2-2.7
							c-1.2,0-2.3,1-2.5,2.7H548z"/>
						<path d="M552.1,11.1h1.7l0.2,1.8h0.1c0.7-1.3,1.7-2,2.8-2c0.5,0,0.8,0.1,1.1,0.2l-0.4,1.8c-0.3-0.1-0.6-0.2-1-0.2
							c-0.8,0-1.8,0.6-2.4,2.1V21h-2.1L552.1,11.1L552.1,11.1z"/>
						<path d="M559.1,8c0-0.7,0.6-1.2,1.3-1.2c0.8,0,1.3,0.5,1.3,1.2s-0.6,1.2-1.3,1.2C559.7,9.2,559.1,8.7,559.1,8z M559.4,11.1
							h2.1V21h-2.1V11.1z"/>
						<path d="M564,18.4c0-2.1,1.8-3.2,5.9-3.7c0-1.2-0.4-2.2-1.9-2.2c-1,0-2,0.5-2.9,1l-0.8-1.4c1-0.6,2.4-1.3,4-1.3
							c2.5,0,3.6,1.6,3.6,4.2v6h-1.7l-0.2-1.1h-0.1c-0.9,0.8-2,1.4-3.2,1.4C565.2,21.2,564,20.1,564,18.4z M569.9,18.4V16
							c-2.9,0.4-3.9,1.1-3.9,2.2c0,1,0.7,1.4,1.5,1.4C568.4,19.6,569.1,19.2,569.9,18.4z"/>
						<path d="M574.9,18.7v-12h2.1v12.1c0,0.6,0.3,0.8,0.5,0.8c0.1,0,0.2,0,0.3,0l0.3,1.6c-0.3,0.1-0.6,0.2-1.1,0.2
							C575.5,21.2,574.9,20.3,574.9,18.7z"/>
						<path d="M583.7,16.1c0-3.2,2-5.2,4.2-5.2c1.1,0,1.9,0.4,2.7,1.1l-0.1-1.6V6.6h2.1V21h-1.7l-0.2-1.1h-0.1
							c-0.7,0.8-1.8,1.4-2.9,1.4C585.3,21.2,583.7,19.3,583.7,16.1z M590.5,18.3v-4.8c-0.7-0.7-1.4-0.9-2.2-0.9
							c-1.4,0-2.5,1.3-2.5,3.5c0,2.3,0.9,3.5,2.4,3.5C589.1,19.5,589.8,19.1,590.5,18.3z"/>
						<path d="M595.4,8c0-0.7,0.6-1.2,1.3-1.2c0.8,0,1.3,0.5,1.3,1.2s-0.6,1.2-1.3,1.2S595.4,8.7,595.4,8z M595.7,11.1h2.1V21h-2.1
							V11.1z"/>
						<path d="M599.8,19.9l1-1.3c0.9,0.7,1.7,1.1,2.8,1.1c1.2,0,1.7-0.6,1.7-1.3c0-0.9-1.1-1.3-2.2-1.7c-1.3-0.5-2.8-1.2-2.8-2.9
							s1.3-2.9,3.5-2.9c1.3,0,2.4,0.5,3.2,1.2l-1,1.3c-0.7-0.5-1.4-0.9-2.2-0.9c-1.1,0-1.6,0.5-1.6,1.2c0,0.8,1,1.2,2.1,1.6
							c1.4,0.5,2.9,1.1,2.9,3c0,1.7-1.3,3-3.8,3C602.2,21.2,600.8,20.7,599.8,19.9z"/>
						<path d="M608.8,16.1c0-3.2,2.2-5.2,4.5-5.2c2.6,0,4,1.9,4,4.7c0,0.4,0,0.8-0.1,1h-6.4c0.2,1.9,1.4,3,3.1,3
							c0.9,0,1.6-0.3,2.4-0.7l0.7,1.3c-0.9,0.6-2.1,1-3.3,1C610.9,21.2,608.8,19.3,608.8,16.1z M615.6,15.2c0-1.7-0.8-2.7-2.2-2.7
							c-1.2,0-2.3,1-2.5,2.7H615.6z"/>
						<path d="M618.8,18.4c0-2.1,1.8-3.2,5.9-3.7c0-1.2-0.4-2.2-1.9-2.2c-1,0-2,0.5-2.9,1l-0.8-1.4c1-0.6,2.4-1.3,4-1.3
							c2.5,0,3.6,1.6,3.6,4.2v6H625l-0.2-1.1h-0.1c-0.9,0.8-2,1.4-3.2,1.4C620,21.2,618.8,20.1,618.8,18.4z M624.7,18.4V16
							c-2.9,0.4-3.9,1.1-3.9,2.2c0,1,0.7,1.4,1.5,1.4C623.2,19.6,623.9,19.2,624.7,18.4z"/>
						<path d="M628.7,19.9l1-1.3c0.9,0.7,1.7,1.1,2.8,1.1c1.2,0,1.7-0.6,1.7-1.3c0-0.9-1.1-1.3-2.2-1.7c-1.3-0.5-2.8-1.2-2.8-2.9
							s1.3-2.9,3.5-2.9c1.3,0,2.4,0.5,3.2,1.2l-1,1.3c-0.7-0.5-1.4-0.9-2.2-0.9c-1.1,0-1.6,0.5-1.6,1.2c0,0.8,1,1.2,2.1,1.6
							c1.4,0.5,2.9,1.1,2.9,3c0,1.7-1.3,3-3.8,3C631.1,21.2,629.7,20.7,628.7,19.9z"/>
						<path d="M637.7,16.1c0-3.2,2.2-5.2,4.5-5.2c2.6,0,4,1.9,4,4.7c0,0.4,0,0.8-0.1,1h-6.4c0.2,1.9,1.4,3,3.1,3
							c0.9,0,1.6-0.3,2.4-0.7l0.7,1.3c-0.9,0.6-2.1,1-3.3,1C639.8,21.2,637.7,19.3,637.7,16.1z M644.5,15.2c0-1.7-0.8-2.7-2.2-2.7
							c-1.2,0-2.3,1-2.5,2.7H644.5z"/>
						<path d="M647.9,23.4c1.2-0.5,1.9-1.4,2-2.5c-0.1,0-0.1,0-0.2,0c-0.7,0-1.4-0.5-1.4-1.3s0.6-1.3,1.4-1.3c1,0,1.6,0.8,1.6,2.2
							c0,1.9-1.1,3.3-3,4.1L647.9,23.4z"/>
						<path d="M657.3,16.1c0-3.3,2.3-5.2,4.9-5.2c1.3,0,2.2,0.5,2.9,1.1l-1,1.4c-0.5-0.5-1.1-0.8-1.8-0.8c-1.7,0-2.8,1.4-2.8,3.5
							s1.1,3.5,2.8,3.5c0.8,0,1.6-0.4,2.2-0.9l0.8,1.4c-0.9,0.8-2.1,1.2-3.2,1.2C659.3,21.2,657.3,19.3,657.3,16.1z"/>
						<path d="M667.3,18.7v-12h2.1v12.1c0,0.6,0.3,0.8,0.5,0.8c0.1,0,0.2,0,0.3,0l0.3,1.6c-0.3,0.1-0.6,0.2-1.1,0.2
							C667.8,21.2,667.3,20.3,667.3,18.7z"/>
						<path d="M672.1,18.4c0-2.1,1.8-3.2,5.9-3.7c0-1.2-0.4-2.2-1.9-2.2c-1,0-2,0.5-2.9,1l-0.8-1.4c1-0.6,2.4-1.3,4-1.3
							c2.5,0,3.6,1.6,3.6,4.2v6h-1.7l-0.2-1.1H678c-0.9,0.8-2,1.4-3.2,1.4C673.3,21.2,672.1,20.1,672.1,18.4z M678,18.4V16
							c-2.9,0.4-3.9,1.1-3.9,2.2c0,1,0.7,1.4,1.5,1.4C676.5,19.6,677.2,19.2,678,18.4z"/>
						<path d="M682.9,17.3v-6.2h2.1v6c0,1.7,0.5,2.4,1.7,2.4c0.9,0,1.5-0.4,2.4-1.5v-6.9h2.1V21h-1.7l-0.2-1.5h-0.1
							c-0.9,1-1.9,1.7-3.2,1.7C683.8,21.2,682.9,19.8,682.9,17.3z"/>
						<path d="M693.5,16.1c0-3.2,2-5.2,4.2-5.2c1.1,0,1.9,0.4,2.7,1.1l-0.1-1.6V6.6h2.1V21h-1.7l-0.2-1.1h-0.1
							c-0.7,0.8-1.8,1.4-2.9,1.4C695.1,21.2,693.5,19.3,693.5,16.1z M700.3,18.3v-4.8c-0.7-0.7-1.4-0.9-2.2-0.9
							c-1.4,0-2.5,1.3-2.5,3.5c0,2.3,0.9,3.5,2.4,3.5C698.9,19.5,699.6,19.1,700.3,18.3z"/>
						<path d="M705.2,8c0-0.7,0.6-1.2,1.3-1.2c0.8,0,1.3,0.5,1.3,1.2s-0.6,1.2-1.3,1.2S705.2,8.7,705.2,8z M705.5,11.1h2.1V21h-2.1
							V11.1z"/>
						<path d="M710,16.1c0-3.3,2.3-5.2,4.9-5.2c1.3,0,2.2,0.5,2.9,1.1l-1,1.4c-0.5-0.5-1.1-0.8-1.8-0.8c-1.7,0-2.8,1.4-2.8,3.5
							s1.1,3.5,2.8,3.5c0.8,0,1.6-0.4,2.2-0.9l0.8,1.4c-0.9,0.8-2.1,1.2-3.2,1.2C712,21.2,710,19.3,710,16.1z"/>
						<path d="M719.2,18.4c0-2.1,1.8-3.2,5.9-3.7c0-1.2-0.4-2.2-1.9-2.2c-1,0-2,0.5-2.9,1l-0.8-1.4c1-0.6,2.4-1.3,4-1.3
							c2.5,0,3.6,1.6,3.6,4.2v6h-1.7l-0.2-1.1h-0.1c-0.9,0.8-2,1.4-3.2,1.4C720.4,21.2,719.2,20.1,719.2,18.4z M725.1,18.4V16
							c-2.9,0.4-3.9,1.1-3.9,2.2c0,1,0.7,1.4,1.5,1.4C723.6,19.6,724.3,19.2,725.1,18.4z"/>
						<path d="M730.1,17.8v-5h-1.4v-1.5l1.5-0.1l0.2-2.7h1.7v2.7h2.6v1.7h-2.6v5c0,1.2,0.4,1.8,1.4,1.8c0.3,0,0.8-0.1,1.1-0.2
							L735,21c-0.6,0.2-1.2,0.4-1.9,0.4C730.9,21.2,730.1,19.8,730.1,17.8z"/>
						<path d="M736.6,8c0-0.7,0.6-1.2,1.3-1.2s1.3,0.5,1.3,1.2s-0.6,1.2-1.3,1.2S736.6,8.7,736.6,8z M736.9,11.1h2.1V21h-2.1V11.1z"
							/>
						<path d="M741.4,16.1c0-3.3,2.2-5.2,4.7-5.2c2.4,0,4.7,1.9,4.7,5.2s-2.2,5.2-4.7,5.2C743.6,21.2,741.4,19.3,741.4,16.1z
							 M748.6,16.1c0-2.1-1-3.5-2.5-3.5s-2.5,1.4-2.5,3.5s1,3.5,2.5,3.5C747.6,19.5,748.6,18.2,748.6,16.1z"/>
						<path d="M753.2,11.1h1.7l0.2,1.4h0.1c0.9-0.9,1.9-1.6,3.3-1.6c2.1,0,3,1.4,3,3.9V21h-2.1v-6c0-1.7-0.5-2.4-1.7-2.4
							c-0.9,0-1.5,0.5-2.4,1.3v7h-2.1V11.1z"/>
						<path d="M763.8,23.4c1.2-0.5,1.9-1.4,2-2.5c-0.1,0-0.1,0-0.2,0c-0.7,0-1.4-0.5-1.4-1.3s0.6-1.3,1.4-1.3c1,0,1.6,0.8,1.6,2.2
							c0,1.9-1.1,3.3-3,4.1L763.8,23.4z"/>
						<path d="M773.1,16.1c0-3.3,2.3-5.2,4.9-5.2c1.3,0,2.2,0.5,2.9,1.1l-1,1.4c-0.5-0.5-1.1-0.8-1.8-0.8c-1.7,0-2.8,1.4-2.8,3.5
							s1.1,3.5,2.8,3.5c0.8,0,1.6-0.4,2.2-0.9L781,20c-0.9,0.8-2.1,1.2-3.2,1.2C775.2,21.2,773.1,19.3,773.1,16.1z"/>
						<path d="M781.9,16.1c0-3.3,2.2-5.2,4.7-5.2s4.7,1.9,4.7,5.2s-2.2,5.2-4.7,5.2S781.9,19.3,781.9,16.1z M789.1,16.1
							c0-2.1-1-3.5-2.5-3.5s-2.5,1.4-2.5,3.5s1,3.5,2.5,3.5C788.2,19.5,789.1,18.2,789.1,16.1z"/>
						<path d="M793.7,11.1h1.7l0.2,1.8h0.1c0.7-1.3,1.7-2,2.8-2c0.5,0,0.8,0.1,1.1,0.2l-0.4,1.8c-0.3-0.1-0.6-0.2-1-0.2
							c-0.8,0-1.8,0.6-2.4,2.1V21h-2.1L793.7,11.1L793.7,11.1z"/>
						<path d="M800.2,16.1c0-3.3,2.2-5.2,4.7-5.2c2.4,0,4.7,1.9,4.7,5.2s-2.2,5.2-4.7,5.2C802.4,21.2,800.2,19.3,800.2,16.1z
							 M807.4,16.1c0-2.1-1-3.5-2.5-3.5s-2.5,1.4-2.5,3.5s1,3.5,2.5,3.5C806.4,19.5,807.4,18.2,807.4,16.1z"/>
						<path d="M811.9,11.1h1.7l0.2,1.4h0.1c0.9-0.9,1.9-1.6,3.3-1.6c2.1,0,3,1.4,3,3.9V21h-2.1v-6c0-1.7-0.5-2.4-1.7-2.4
							c-0.9,0-1.5,0.5-2.4,1.3v7h-2.1V11.1z"/>
						<path d="M822.6,18.4c0-2.1,1.8-3.2,5.9-3.7c0-1.2-0.4-2.2-1.9-2.2c-1,0-2,0.5-2.9,1l-0.8-1.4c1-0.6,2.4-1.3,4-1.3
							c2.5,0,3.6,1.6,3.6,4.2v6h-1.7l-0.2-1.1h-0.1c-0.9,0.8-2,1.4-3.2,1.4C823.8,21.2,822.6,20.1,822.6,18.4z M828.5,18.4V16
							c-2.9,0.4-3.9,1.1-3.9,2.2c0,1,0.7,1.4,1.5,1.4C827,19.6,827.7,19.2,828.5,18.4z"/>
						<path d="M833.5,11.1h1.7l0.2,1.8h0.1c0.7-1.3,1.7-2,2.8-2c0.5,0,0.8,0.1,1.1,0.2l-0.4,1.8c-0.3-0.1-0.6-0.2-1-0.2
							c-0.8,0-1.8,0.6-2.4,2.1V21h-2.1L833.5,11.1L833.5,11.1z"/>
						<path d="M845.6,21.6c-0.8,2.1-1.8,3.5-3.9,3.5c-0.5,0-0.9-0.1-1.2-0.2l0.4-1.6c0.2,0.1,0.5,0.1,0.7,0.1c1.1,0,1.7-0.8,2.1-1.9
							l0.2-0.7L840,11h2.1l1.8,5.1c0.3,0.9,0.6,1.9,0.9,2.8h0.1l0.8-2.8l1.6-5.1h2L845.6,21.6z"/>
						<path d="M854.5,18.4c0-2.1,1.8-3.2,5.9-3.7c0-1.2-0.4-2.2-1.9-2.2c-1,0-2,0.5-2.9,1l-0.8-1.4c1-0.6,2.4-1.3,4-1.3
							c2.5,0,3.6,1.6,3.6,4.2v6h-1.7l-0.2-1.1h-0.1c-0.9,0.8-2,1.4-3.2,1.4C855.7,21.2,854.5,20.1,854.5,18.4z M860.4,18.4V16
							c-2.9,0.4-3.9,1.1-3.9,2.2c0,1,0.7,1.4,1.5,1.4C858.9,19.6,859.6,19.2,860.4,18.4z"/>
						<path d="M865.4,11.1h1.7l0.2,1.8h0.1c0.7-1.3,1.7-2,2.8-2c0.5,0,0.8,0.1,1.1,0.2l-0.4,1.8c-0.3-0.1-0.6-0.2-1-0.2
							c-0.8,0-1.8,0.6-2.4,2.1V21h-2.1L865.4,11.1L865.4,11.1z"/>
						<path d="M873.1,17.8v-5h-1.4v-1.5l1.5-0.1l0.2-2.7h1.7v2.7h2.6v1.7h-2.6v5c0,1.2,0.4,1.8,1.4,1.8c0.3,0,0.8-0.1,1.1-0.2
							L878,21c-0.6,0.2-1.2,0.4-1.9,0.4C873.9,21.2,873.1,19.8,873.1,17.8z"/>
						<path d="M878.9,16.1c0-3.2,2.2-5.2,4.5-5.2c2.6,0,4,1.9,4,4.7c0,0.4,0,0.8-0.1,1H881c0.2,1.9,1.4,3,3.1,3
							c0.9,0,1.6-0.3,2.4-0.7l0.7,1.3c-0.9,0.6-2.1,1-3.3,1C881.1,21.2,878.9,19.3,878.9,16.1z M885.7,15.2c0-1.7-0.8-2.7-2.2-2.7
							c-1.2,0-2.3,1-2.5,2.7H885.7z"/>
						<path d="M889.8,11.1h1.7l0.2,1.8h0.1c0.7-1.3,1.7-2,2.8-2c0.5,0,0.8,0.1,1.1,0.2l-0.4,1.8c-0.3-0.1-0.6-0.2-1-0.2
							c-0.8,0-1.8,0.6-2.4,2.1V21h-2.1L889.8,11.1L889.8,11.1z"/>
						<path d="M901.9,21.6c-0.8,2.1-1.8,3.5-3.9,3.5c-0.5,0-0.9-0.1-1.2-0.2l0.4-1.6c0.2,0.1,0.5,0.1,0.7,0.1c1.1,0,1.7-0.8,2.1-1.9
							l0.2-0.7l-3.9-9.8h2.1l1.8,5.1c0.3,0.9,0.6,1.9,0.9,2.8h0.1l0.8-2.8l1.6-5.1h2L901.9,21.6z"/>
						<path d="M910.7,16.1c0-3.2,2-5.2,4.2-5.2c1.1,0,1.9,0.4,2.7,1.1l-0.1-1.6V6.6h2.1V21h-1.7l-0.2-1.1h-0.1
							c-0.7,0.8-1.8,1.4-2.9,1.4C912.3,21.2,910.7,19.3,910.7,16.1z M917.5,18.3v-4.8c-0.7-0.7-1.4-0.9-2.2-0.9
							c-1.4,0-2.5,1.3-2.5,3.5c0,2.3,0.9,3.5,2.4,3.5C916.1,19.5,916.8,19.1,917.5,18.3z"/>
						<path d="M922.4,8c0-0.7,0.6-1.2,1.3-1.2S925,7.3,925,8s-0.6,1.2-1.3,1.2S922.4,8.7,922.4,8z M922.7,11.1h2.1V21h-2.1V11.1z"/>
						<path d="M926.9,19.9l1-1.3c0.9,0.7,1.7,1.1,2.8,1.1c1.2,0,1.7-0.6,1.7-1.3c0-0.9-1.1-1.3-2.2-1.7c-1.3-0.5-2.8-1.2-2.8-2.9
							s1.3-2.9,3.5-2.9c1.3,0,2.4,0.5,3.2,1.2l-1,1.3c-0.7-0.5-1.4-0.9-2.2-0.9c-1.1,0-1.6,0.5-1.6,1.2c0,0.8,1,1.2,2.1,1.6
							c1.4,0.5,2.9,1.1,2.9,3c0,1.7-1.3,3-3.8,3C929.2,21.2,927.8,20.7,926.9,19.9z"/>
						<path d="M935.8,16.1c0-3.2,2.2-5.2,4.5-5.2c2.6,0,4,1.9,4,4.7c0,0.4,0,0.8-0.1,1h-6.4c0.2,1.9,1.4,3,3.1,3
							c0.9,0,1.6-0.3,2.4-0.7l0.7,1.3c-0.9,0.6-2.1,1-3.3,1C938,21.2,935.8,19.3,935.8,16.1z M942.6,15.2c0-1.7-0.8-2.7-2.2-2.7
							c-1.2,0-2.3,1-2.5,2.7H942.6z"/>
						<path d="M945.9,18.4c0-2.1,1.8-3.2,5.9-3.7c0-1.2-0.4-2.2-1.9-2.2c-1,0-2,0.5-2.9,1l-0.8-1.4c1-0.6,2.4-1.3,4-1.3
							c2.5,0,3.6,1.6,3.6,4.2v6h-1.7l-0.2-1.1h-0.1c-0.9,0.8-2,1.4-3.2,1.4C947.1,21.2,945.9,20.1,945.9,18.4z M951.8,18.4V16
							c-2.9,0.4-3.9,1.1-3.9,2.2c0,1,0.7,1.4,1.5,1.4C950.3,19.6,951,19.2,951.8,18.4z"/>
						<path d="M955.7,19.9l1-1.3c0.9,0.7,1.7,1.1,2.8,1.1c1.2,0,1.7-0.6,1.7-1.3c0-0.9-1.1-1.3-2.2-1.7c-1.3-0.5-2.8-1.2-2.8-2.9
							s1.3-2.9,3.5-2.9c1.3,0,2.4,0.5,3.2,1.2l-1,1.3c-0.7-0.5-1.4-0.9-2.2-0.9c-1.1,0-1.6,0.5-1.6,1.2c0,0.8,1,1.2,2.1,1.6
							c1.4,0.5,2.9,1.1,2.9,3c0,1.7-1.3,3-3.8,3C958.1,21.2,956.7,20.7,955.7,19.9z"/>
						<path d="M964.7,16.1c0-3.2,2.2-5.2,4.5-5.2c2.6,0,4,1.9,4,4.7c0,0.4,0,0.8-0.1,1h-6.4c0.2,1.9,1.4,3,3.1,3
							c0.9,0,1.6-0.3,2.4-0.7l0.7,1.3c-0.9,0.6-2.1,1-3.3,1C966.9,21.2,964.7,19.3,964.7,16.1z M971.5,15.2c0-1.7-0.8-2.7-2.2-2.7
							c-1.2,0-2.3,1-2.5,2.7H971.5z"/>
					</g>
					<path id="divider" class="st3" d="M0,42.5h1000"/>
				</g>
				<g id="cell2" transform="translate(0.000000, 123.000000)">
					<g class="st1">
						<path d="M99.5,10.9h2.2l0.2,1h0.1c0.8-0.7,1.9-1.3,3-1.3c2.5,0,4,2,4,5.1c0,3.5-2.1,5.5-4.3,5.5c-0.9,0-1.7-0.4-2.5-1.1
							l0.1,1.7v3.1h-2.6v-14H99.5z M106.1,15.8c0-1.9-0.6-3-2-3c-0.7,0-1.3,0.3-2,1v4.4c0.6,0.6,1.3,0.8,1.8,0.8
							C105.2,19.1,106.1,18,106.1,15.8z"/>
						<path d="M111.3,7.7h3l2.3,6.2c0.3,0.8,0.5,1.7,0.8,2.6h0.1c0.3-0.9,0.5-1.7,0.8-2.6l2.2-6.2h3V21h-2.4v-5.6
							c0-1.3,0.2-3.1,0.3-4.4h-0.1l-1.1,3.1l-2.1,5.6h-1.5l-2.1-5.6l-1.1-3.1h-0.1c0.1,1.3,0.3,3.1,0.3,4.4V21h-2.4L111.3,7.7
							L111.3,7.7z"/>
						<path d="M126.6,15V7.7h2.7v7.6c0,2.8,1,3.7,2.5,3.7c1.6,0,2.6-0.9,2.6-3.7V7.7h2.6V15c0,4.4-1.9,6.2-5.1,6.2
							C128.5,21.3,126.6,19.4,126.6,15z"/>
						<path d="M140.1,7.7h2.7l3.9,7.1l1.3,2.9h0.1c-0.1-1.4-0.3-3.2-0.3-4.7V7.7h2.5V21h-2.7l-3.9-7.1l-1.4-2.9h-0.1
							c0.1,1.4,0.3,3.1,0.3,4.6V21H140L140.1,7.7L140.1,7.7z"/>
					</g>
					<g class="st1">
						<path d="M403.7,11.1h1.7l0.2,1.4h0.1c0.8-0.9,1.8-1.6,3.1-1.6c1.5,0,2.3,0.7,2.7,1.8c1-1,2-1.8,3.2-1.8c2.1,0,3,1.4,3,3.9V21
							h-2.1v-6c0-1.7-0.5-2.4-1.7-2.4c-0.7,0-1.4,0.5-2.2,1.3v7h-2.1v-6c0-1.7-0.5-2.4-1.7-2.4c-0.7,0-1.4,0.5-2.2,1.3v7h-2.1v-9.7
							H403.7z"/>
						<path d="M420.5,17.3v-6.2h2.1v6c0,1.7,0.5,2.4,1.7,2.4c0.9,0,1.5-0.4,2.4-1.5v-6.9h2.1V21H427l-0.2-1.5h-0.1
							c-0.9,1-1.9,1.7-3.2,1.7C421.4,21.2,420.5,19.8,420.5,17.3z"/>
						<path d="M430.7,19.9l1-1.3c0.9,0.7,1.7,1.1,2.8,1.1c1.2,0,1.7-0.6,1.7-1.3c0-0.9-1.1-1.3-2.2-1.7c-1.3-0.5-2.8-1.2-2.8-2.9
							s1.3-2.9,3.5-2.9c1.3,0,2.4,0.5,3.2,1.2l-1,1.3c-0.7-0.5-1.4-0.9-2.2-0.9c-1.1,0-1.6,0.5-1.6,1.2c0,0.8,1,1.2,2.1,1.6
							c1.4,0.5,2.9,1.1,2.9,3c0,1.7-1.3,3-3.8,3C433.1,21.2,431.7,20.7,430.7,19.9z"/>
						<path d="M439.7,16.1c0-3.3,2.3-5.2,4.9-5.2c1.3,0,2.2,0.5,2.9,1.1l-1,1.4c-0.5-0.5-1.1-0.8-1.8-0.8c-1.7,0-2.8,1.4-2.8,3.5
							s1.1,3.5,2.8,3.5c0.8,0,1.6-0.4,2.2-0.9l0.8,1.4c-0.9,0.8-2.1,1.2-3.2,1.2C441.8,21.2,439.7,19.3,439.7,16.1z"/>
						<path d="M449.6,17.3v-6.2h2.1v6c0,1.7,0.5,2.4,1.7,2.4c0.9,0,1.5-0.4,2.4-1.5v-6.9h2.1V21h-1.7l-0.2-1.5h-0.1
							c-0.9,1-1.9,1.7-3.2,1.7C450.5,21.2,449.6,19.8,449.6,17.3z"/>
						<path d="M460.9,18.7v-12h2.1v12.1c0,0.6,0.3,0.8,0.5,0.8c0.1,0,0.2,0,0.3,0l0.3,1.6c-0.3,0.1-0.6,0.2-1.1,0.2
							C461.4,21.2,460.9,20.3,460.9,18.7z"/>
						<path d="M465.7,18.4c0-2.1,1.8-3.2,5.9-3.7c0-1.2-0.4-2.2-1.9-2.2c-1,0-2,0.5-2.9,1l-0.8-1.4c1-0.6,2.4-1.3,4-1.3
							c2.5,0,3.6,1.6,3.6,4.2v6H472l-0.2-1.1h-0.1c-0.9,0.8-2,1.4-3.2,1.4C466.9,21.2,465.7,20.1,465.7,18.4z M471.6,18.4V16
							c-2.9,0.4-3.9,1.1-3.9,2.2c0,1,0.7,1.4,1.5,1.4C470.1,19.6,470.8,19.2,471.6,18.4z"/>
						<path d="M476.6,11.1h1.7l0.2,1.8h0.1c0.7-1.3,1.7-2,2.8-2c0.5,0,0.8,0.1,1.1,0.2l-0.4,1.8c-0.3-0.1-0.6-0.2-1-0.2
							c-0.8,0-1.8,0.6-2.4,2.1V21h-2.1L476.6,11.1L476.6,11.1z"/>
						<path d="M487.4,18.4c0-2.1,1.8-3.2,5.9-3.7c0-1.2-0.4-2.2-1.9-2.2c-1,0-2,0.5-2.9,1l-0.8-1.4c1-0.6,2.4-1.3,4-1.3
							c2.5,0,3.6,1.6,3.6,4.2v6h-1.7l-0.2-1.1h-0.1c-0.9,0.8-2,1.4-3.2,1.4C488.6,21.2,487.4,20.1,487.4,18.4z M493.3,18.4V16
							c-2.9,0.4-3.9,1.1-3.9,2.2c0,1,0.7,1.4,1.5,1.4C491.8,19.6,492.5,19.2,493.3,18.4z"/>
						<path d="M498.4,17.8v-5H497v-1.5l1.5-0.1l0.2-2.7h1.7v2.7h2.6v1.7h-2.6v5c0,1.2,0.4,1.8,1.4,1.8c0.3,0,0.8-0.1,1.1-0.2
							l0.4,1.5c-0.6,0.2-1.2,0.4-1.9,0.4C499.1,21.2,498.4,19.8,498.4,17.8z"/>
						<path d="M505.2,11.1h1.7l0.2,1.8h0.1c0.7-1.3,1.7-2,2.8-2c0.5,0,0.8,0.1,1.1,0.2l-0.4,1.8c-0.3-0.1-0.6-0.2-1-0.2
							c-0.8,0-1.8,0.6-2.4,2.1V21h-2.1L505.2,11.1L505.2,11.1z"/>
						<path d="M511.6,16.1c0-3.3,2.2-5.2,4.7-5.2c2.4,0,4.7,1.9,4.7,5.2s-2.2,5.2-4.7,5.2C513.8,21.2,511.6,19.3,511.6,16.1z
							 M518.8,16.1c0-2.1-1-3.5-2.5-3.5s-2.5,1.4-2.5,3.5s1,3.5,2.5,3.5C517.9,19.5,518.8,18.2,518.8,16.1z"/>
						<path d="M523.4,11.1h1.7l0.2,1.1h0.1c0.9-0.7,1.9-1.3,3-1.3c2.5,0,3.9,2,3.9,5c0,3.4-2,5.3-4.3,5.3c-0.9,0-1.8-0.4-2.6-1.1
							l0.1,1.7V25h-2.1L523.4,11.1L523.4,11.1z M530.1,15.9c0-2.1-0.7-3.3-2.3-3.3c-0.8,0-1.5,0.4-2.4,1.2v4.8
							c0.8,0.7,1.5,0.9,2.2,0.9C529,19.5,530.1,18.2,530.1,15.9z"/>
						<path d="M534.7,6.6h2.1v3.8l-0.1,2c0.9-0.8,1.9-1.6,3.2-1.6c2.1,0,3,1.4,3,3.9V21h-2.1v-6c0-1.7-0.5-2.4-1.7-2.4
							c-0.9,0-1.5,0.5-2.4,1.3v7h-2.1L534.7,6.6L534.7,6.6z"/>
						<path d="M550.3,21.6c-0.8,2.1-1.8,3.5-3.9,3.5c-0.5,0-0.9-0.1-1.2-0.2l0.4-1.6c0.2,0.1,0.5,0.1,0.7,0.1c1.1,0,1.7-0.8,2.1-1.9
							l0.2-0.7l-3.9-9.8h2.1l1.8,5.1c0.3,0.9,0.6,1.9,0.9,2.8h0.1l0.8-2.8L552,11h2L550.3,21.6z"/>
						<path d="M554.2,23.4c1.2-0.5,1.9-1.4,2-2.5c-0.1,0-0.1,0-0.2,0c-0.7,0-1.4-0.5-1.4-1.3s0.6-1.3,1.4-1.3c1,0,1.6,0.8,1.6,2.2
							c0,1.9-1.1,3.3-3,4.1L554.2,23.4z"/>
						<path d="M563.2,19.9l1-1.3c0.9,0.7,1.7,1.1,2.8,1.1c1.2,0,1.7-0.6,1.7-1.3c0-0.9-1.1-1.3-2.2-1.7c-1.3-0.5-2.8-1.2-2.8-2.9
							s1.3-2.9,3.5-2.9c1.3,0,2.4,0.5,3.2,1.2l-1,1.3c-0.7-0.5-1.4-0.9-2.2-0.9c-1.1,0-1.6,0.5-1.6,1.2c0,0.8,1,1.2,2.1,1.6
							c1.4,0.5,2.9,1.1,2.9,3c0,1.7-1.3,3-3.8,3C565.6,21.2,564.2,20.7,563.2,19.9z"/>
						<path d="M572.3,18.4c0-2.1,1.8-3.2,5.9-3.7c0-1.2-0.4-2.2-1.9-2.2c-1,0-2,0.5-2.9,1l-0.8-1.4c1-0.6,2.4-1.3,4-1.3
							c2.5,0,3.6,1.6,3.6,4.2v6h-1.7l-0.2-1.1h-0.1c-0.9,0.8-2,1.4-3.2,1.4C573.5,21.2,572.3,20.1,572.3,18.4z M578.2,18.4V16
							c-2.9,0.4-3.9,1.1-3.9,2.2c0,1,0.7,1.4,1.5,1.4C576.7,19.6,577.4,19.2,578.2,18.4z"/>
						<path d="M583.2,11.1h1.7l0.2,1.8h0.1c0.7-1.3,1.7-2,2.8-2c0.5,0,0.8,0.1,1.1,0.2l-0.4,1.8c-0.3-0.1-0.6-0.2-1-0.2
							c-0.8,0-1.8,0.6-2.4,2.1V21h-2.1L583.2,11.1L583.2,11.1z"/>
						<path d="M589.7,16.1c0-3.3,2.3-5.2,4.9-5.2c1.3,0,2.2,0.5,2.9,1.1l-1,1.4c-0.5-0.5-1.1-0.8-1.8-0.8c-1.7,0-2.8,1.4-2.8,3.5
							s1.1,3.5,2.8,3.5c0.8,0,1.6-0.4,2.2-0.9l0.8,1.4c-0.9,0.8-2.1,1.2-3.2,1.2C591.8,21.2,589.7,19.3,589.7,16.1z"/>
						<path d="M598.5,16.1c0-3.3,2.2-5.2,4.7-5.2c2.4,0,4.7,1.9,4.7,5.2s-2.2,5.2-4.7,5.2C600.8,21.2,598.5,19.3,598.5,16.1z
							 M605.7,16.1c0-2.1-1-3.5-2.5-3.5s-2.5,1.4-2.5,3.5s1,3.5,2.5,3.5C604.8,19.5,605.7,18.2,605.7,16.1z"/>
						<path d="M610.3,11.1h1.7l0.2,1.1h0.1c0.9-0.7,1.9-1.3,3-1.3c2.5,0,3.9,2,3.9,5c0,3.4-2,5.3-4.3,5.3c-0.9,0-1.8-0.4-2.6-1.1
							l0.1,1.7V25h-2.1L610.3,11.1L610.3,11.1z M617,15.9c0-2.1-0.7-3.3-2.3-3.3c-0.8,0-1.5,0.4-2.4,1.2v4.8
							c0.8,0.7,1.5,0.9,2.2,0.9C615.9,19.5,617,18.2,617,15.9z"/>
						<path d="M620.9,16.1c0-3.2,2.2-5.2,4.5-5.2c2.6,0,4,1.9,4,4.7c0,0.4,0,0.8-0.1,1H623c0.2,1.9,1.3,3,3.1,3
							c0.9,0,1.6-0.3,2.4-0.7l0.7,1.3c-0.9,0.6-2.1,1-3.3,1C623.1,21.2,620.9,19.3,620.9,16.1z M627.7,15.2c0-1.7-0.8-2.7-2.2-2.7
							c-1.2,0-2.3,1-2.5,2.7H627.7z"/>
						<path d="M631.8,11.1h1.7l0.2,1.4h0.1c0.9-0.9,1.9-1.6,3.3-1.6c2.1,0,3,1.4,3,3.9V21H638v-6c0-1.7-0.5-2.4-1.7-2.4
							c-0.9,0-1.5,0.5-2.4,1.3v7h-2.1V11.1z"/>
						<path d="M642.7,8c0-0.7,0.6-1.2,1.3-1.2c0.8,0,1.3,0.5,1.3,1.2s-0.6,1.2-1.3,1.2S642.7,8.7,642.7,8z M643,11.1h2.1V21H643
							V11.1z"/>
						<path d="M647.6,18.4c0-2.1,1.8-3.2,5.9-3.7c0-1.2-0.4-2.2-1.9-2.2c-1,0-2,0.5-2.9,1l-0.8-1.4c1-0.6,2.4-1.3,4-1.3
							c2.5,0,3.6,1.6,3.6,4.2v6h-1.7l-0.2-1.1h-0.1c-0.9,0.8-2,1.4-3.2,1.4C648.8,21.2,647.6,20.1,647.6,18.4z M653.5,18.4V16
							c-2.9,0.4-3.9,1.1-3.9,2.2c0,1,0.7,1.4,1.5,1.4C652,19.6,652.7,19.2,653.5,18.4z"/>
						<path d="M657.9,23.4c1.2-0.5,1.9-1.4,2-2.5c-0.1,0-0.1,0-0.2,0c-0.7,0-1.4-0.5-1.4-1.3s0.6-1.3,1.4-1.3c1,0,1.6,0.8,1.6,2.2
							c0,1.9-1.1,3.3-3,4.1L657.9,23.4z"/>
						<path d="M668.3,17.8v-5h-1.4v-1.5l1.5-0.1l0.2-2.7h1.7v2.7h2.6v1.7h-2.6v5c0,1.2,0.4,1.8,1.4,1.8c0.3,0,0.8-0.1,1.1-0.2
							l0.4,1.5c-0.6,0.2-1.2,0.4-1.9,0.4C669.1,21.2,668.3,19.8,668.3,17.8z"/>
						<path d="M675.1,11.1h1.7l0.2,1.8h0.1c0.7-1.3,1.7-2,2.8-2c0.5,0,0.8,0.1,1.1,0.2l-0.4,1.8c-0.3-0.1-0.6-0.2-1-0.2
							c-0.8,0-1.8,0.6-2.4,2.1V21h-2.1L675.1,11.1L675.1,11.1z"/>
						<path d="M681.4,18.4c0-2.1,1.8-3.2,5.9-3.7c0-1.2-0.4-2.2-1.9-2.2c-1,0-2,0.5-2.9,1l-0.8-1.4c1-0.6,2.4-1.3,4-1.3
							c2.5,0,3.6,1.6,3.6,4.2v6h-1.7l-0.2-1.1h-0.1c-0.9,0.8-2,1.4-3.2,1.4C682.6,21.2,681.4,20.1,681.4,18.4z M687.3,18.4V16
							c-2.9,0.4-3.9,1.1-3.9,2.2c0,1,0.7,1.4,1.5,1.4C685.8,19.6,686.5,19.2,687.3,18.4z"/>
						<path d="M692.2,17.3v-6.2h2.1v6c0,1.7,0.5,2.4,1.7,2.4c0.9,0,1.5-0.4,2.4-1.5v-6.9h2.1V21h-1.7l-0.2-1.5h-0.1
							c-0.9,1-1.9,1.7-3.2,1.7C693.1,21.2,692.2,19.8,692.2,17.3z"/>
						<path d="M703.5,11.1h1.7l0.2,1.4h0.1c0.8-0.9,1.8-1.6,3.1-1.6c1.5,0,2.3,0.7,2.7,1.8c1-1,2-1.8,3.2-1.8c2.1,0,3,1.4,3,3.9V21
							h-2.1v-6c0-1.7-0.5-2.4-1.7-2.4c-0.7,0-1.4,0.5-2.2,1.3v7h-2.1v-6c0-1.7-0.5-2.4-1.7-2.4c-0.7,0-1.4,0.5-2.2,1.3v7h-2.1
							L703.5,11.1L703.5,11.1z"/>
						<path d="M719.8,18.4c0-2.1,1.8-3.2,5.9-3.7c0-1.2-0.4-2.2-1.9-2.2c-1,0-2,0.5-2.9,1l-0.8-1.4c1-0.6,2.4-1.3,4-1.3
							c2.5,0,3.6,1.6,3.6,4.2v6H726l-0.2-1.1h-0.1c-0.9,0.8-2,1.4-3.2,1.4C721,21.2,719.8,20.1,719.8,18.4z M725.8,18.4V16
							c-2.9,0.4-3.9,1.1-3.9,2.2c0,1,0.7,1.4,1.5,1.4C724.2,19.6,724.9,19.2,725.8,18.4z"/>
						<path d="M730.8,17.8v-5h-1.4v-1.5l1.5-0.1l0.2-2.7h1.7v2.7h2.6v1.7h-2.6v5c0,1.2,0.4,1.8,1.4,1.8c0.3,0,0.8-0.1,1.1-0.2
							l0.4,1.5c-0.6,0.2-1.2,0.4-1.9,0.4C731.6,21.2,730.8,19.8,730.8,17.8z"/>
						<path d="M737.3,8c0-0.7,0.6-1.2,1.3-1.2c0.8,0,1.3,0.5,1.3,1.2s-0.6,1.2-1.3,1.2C737.9,9.2,737.3,8.7,737.3,8z M737.6,11.1
							h2.1V21h-2.1V11.1z"/>
						<path d="M742,16.1c0-3.3,2.3-5.2,4.9-5.2c1.3,0,2.2,0.5,2.9,1.1l-1,1.4c-0.5-0.5-1.1-0.8-1.8-0.8c-1.7,0-2.8,1.4-2.8,3.5
							s1.1,3.5,2.8,3.5c0.8,0,1.6-0.4,2.2-0.9L750,20c-0.9,0.8-2.1,1.2-3.2,1.2C744.1,21.2,742,19.3,742,16.1z"/>
						<path d="M756.1,11.1h1.7l0.2,1.4h0.1c0.9-0.9,1.9-1.6,3.3-1.6c2.1,0,3,1.4,3,3.9V21h-2.1v-6c0-1.7-0.5-2.4-1.7-2.4
							c-0.9,0-1.5,0.5-2.4,1.3v7h-2.1V11.1z"/>
						<path d="M766.6,16.1c0-3.2,2.2-5.2,4.5-5.2c2.6,0,4,1.9,4,4.7c0,0.4,0,0.8-0.1,1h-6.4c0.2,1.9,1.4,3,3.1,3
							c0.9,0,1.6-0.3,2.4-0.7l0.7,1.3c-0.9,0.6-2.1,1-3.3,1C768.8,21.2,766.6,19.3,766.6,16.1z M773.4,15.2c0-1.7-0.8-2.7-2.2-2.7
							c-1.2,0-2.3,1-2.5,2.7H773.4z"/>
						<path d="M777.5,11.1h1.7l0.2,1.8h0.1c0.7-1.3,1.7-2,2.8-2c0.5,0,0.8,0.1,1.1,0.2l-0.4,1.8c-0.3-0.1-0.6-0.2-1-0.2
							c-0.8,0-1.8,0.6-2.4,2.1V21h-2.1L777.5,11.1L777.5,11.1z"/>
						<path d="M783.9,11.1h2.1l1.7,5.3c0.3,1,0.6,2,0.9,3h0.1c0.3-1,0.6-2,0.9-3l1.7-5.3h2l-3.4,9.9h-2.4L783.9,11.1z"/>
						<path d="M794.3,16.1c0-3.2,2.2-5.2,4.5-5.2c2.6,0,4,1.9,4,4.7c0,0.4,0,0.8-0.1,1h-6.4c0.2,1.9,1.4,3,3.1,3
							c0.9,0,1.6-0.3,2.4-0.7l0.7,1.3c-0.9,0.6-2.1,1-3.3,1C796.4,21.2,794.3,19.3,794.3,16.1z M801,15.2c0-1.7-0.8-2.7-2.2-2.7
							c-1.2,0-2.3,1-2.5,2.7H801z"/>
						<path d="M808.9,8c0-0.7,0.6-1.2,1.3-1.2c0.8,0,1.3,0.5,1.3,1.2s-0.6,1.2-1.3,1.2S808.9,8.7,808.9,8z M809.2,11.1h2.1V21h-2.1
							V11.1z"/>
						<path d="M814.4,11.1h1.7l0.2,1.4h0.1c0.9-0.9,1.9-1.6,3.3-1.6c2.1,0,3,1.4,3,3.9V21h-2.1v-6c0-1.7-0.5-2.4-1.7-2.4
							c-0.9,0-1.5,0.5-2.4,1.3v7h-2.1V11.1z"/>
						<path d="M823.2,25l0.4-1.5c0.3,0.1,0.6,0.2,0.9,0.2c0.9,0,1.2-0.7,1.2-1.8V11.1h2.1v10.6c0,2.1-0.8,3.5-3,3.5
							C824,25.3,823.5,25.1,823.2,25z M825.3,8c0-0.7,0.6-1.2,1.3-1.2c0.8,0,1.3,0.5,1.3,1.2s-0.6,1.2-1.3,1.2
							C825.9,9.2,825.3,8.7,825.3,8z"/>
						<path d="M830.6,17.3v-6.2h2.1v6c0,1.7,0.5,2.4,1.7,2.4c0.9,0,1.5-0.4,2.4-1.5v-6.9h2.1V21h-1.7l-0.2-1.5h-0.1
							c-0.9,1-1.9,1.7-3.2,1.7C831.6,21.2,830.6,19.8,830.6,17.3z"/>
						<path d="M841.9,11.1h1.7l0.2,1.8h0.1c0.7-1.3,1.7-2,2.8-2c0.5,0,0.8,0.1,1.1,0.2l-0.4,1.8c-0.3-0.1-0.6-0.2-1-0.2
							c-0.8,0-1.8,0.6-2.4,2.1V21h-2.1L841.9,11.1L841.9,11.1z"/>
						<path d="M854,21.6c-0.8,2.1-1.8,3.5-3.9,3.5c-0.5,0-0.9-0.1-1.2-0.2l0.4-1.6c0.2,0.1,0.5,0.1,0.7,0.1c1.1,0,1.7-0.8,2.1-1.9
							l0.2-0.7l-3.9-9.8h2.1l1.8,5.1c0.3,0.9,0.6,1.9,0.9,2.8h0.1l0.8-2.8l1.6-5.1h2L854,21.6z"/>
					</g>
					<path class="st3" d="M0,42.5h1000"/>
				</g>
				<g id="cell3" transform="translate(0.000000, 181.000000)">
					<g class="st1">
						<path d="M304,17.2h-4.6l-1.1,3.8h-2.1l4.4-13.3h2.4l4.4,13.3h-2.2L304,17.2z M303.5,15.6l-0.5-1.8c-0.4-1.4-0.8-2.9-1.3-4.4
							h-0.1c-0.4,1.5-0.8,3-1.2,4.4l-0.5,1.8C299.9,15.6,303.5,15.6,303.5,15.6z"/>
						<path d="M309.1,7.7h2.1v11.5h5.6V21h-7.7V7.7z"/>
						<path d="M317.7,19.3l1.2-1.4c1,1,2.3,1.6,3.5,1.6c1.6,0,2.5-0.8,2.5-1.9c0-1.2-0.9-1.6-2.1-2.1l-1.8-0.8
							c-1.3-0.5-2.7-1.5-2.7-3.5c0-2.1,1.8-3.7,4.4-3.7c1.5,0,3,0.6,4,1.7l-1.1,1.3c-0.8-0.7-1.7-1.2-2.9-1.2
							c-1.4,0-2.2,0.6-2.2,1.7s1.1,1.6,2.1,2l1.8,0.8c1.6,0.7,2.7,1.6,2.7,3.6c0,2.1-1.8,3.9-4.7,3.9
							C320.6,21.2,318.9,20.5,317.7,19.3z"/>
						<path d="M328.8,23.4c1.2-0.5,1.9-1.4,2-2.5c-0.1,0-0.1,0-0.2,0c-0.7,0-1.4-0.5-1.4-1.3s0.6-1.3,1.4-1.3c1,0,1.6,0.8,1.6,2.2
							c0,1.9-1.1,3.3-3,4.1L328.8,23.4z"/>
						<path d="M337.7,19.9l1-1.3c0.9,0.7,1.7,1.1,2.8,1.1c1.2,0,1.7-0.6,1.7-1.3c0-0.9-1.1-1.3-2.2-1.7c-1.3-0.5-2.8-1.2-2.8-2.9
							s1.3-2.9,3.5-2.9c1.3,0,2.4,0.5,3.2,1.2l-1,1.3c-0.7-0.5-1.4-0.9-2.2-0.9c-1.1,0-1.6,0.5-1.6,1.2c0,0.8,1,1.2,2.1,1.6
							c1.4,0.5,2.9,1.1,2.9,3c0,1.7-1.3,3-3.8,3C340.1,21.2,338.7,20.7,337.7,19.9z"/>
						<path d="M347.4,11.1h1.7l0.2,1.1h0.1c0.9-0.7,1.9-1.3,3-1.3c2.5,0,3.9,2,3.9,5c0,3.4-2,5.3-4.3,5.3c-0.9,0-1.8-0.4-2.6-1.1
							l0.1,1.7V25h-2.1L347.4,11.1L347.4,11.1z M354.2,15.9c0-2.1-0.7-3.3-2.3-3.3c-0.8,0-1.5,0.4-2.4,1.2v4.8
							c0.8,0.7,1.5,0.9,2.2,0.9C353.1,19.5,354.2,18.2,354.2,15.9z"/>
						<path d="M358.5,8c0-0.7,0.6-1.2,1.3-1.2s1.3,0.5,1.3,1.2s-0.6,1.2-1.3,1.2S358.5,8.7,358.5,8z M358.8,11.1h2.1V21h-2.1V11.1z"
							/>
						<path d="M363.9,11.1h1.7l0.2,1.4h0.1c0.9-0.9,1.9-1.6,3.3-1.6c2.1,0,3,1.4,3,3.9V21h-2.1v-6c0-1.7-0.5-2.4-1.7-2.4
							c-0.9,0-1.5,0.5-2.4,1.3v7h-2.1V11.1z"/>
						<path d="M374.6,18.4c0-2.1,1.8-3.2,5.9-3.7c0-1.2-0.4-2.2-1.9-2.2c-1,0-2,0.5-2.9,1l-0.8-1.4c1-0.6,2.4-1.3,4-1.3
							c2.5,0,3.6,1.6,3.6,4.2v6h-1.7l-0.2-1.1h-0.1c-0.9,0.8-2,1.4-3.2,1.4C375.8,21.2,374.6,20.1,374.6,18.4z M380.5,18.4V16
							c-2.9,0.4-3.9,1.1-3.9,2.2c0,1,0.7,1.4,1.5,1.4C379,19.6,379.7,19.2,380.5,18.4z"/>
						<path d="M385.5,18.7v-12h2.1v12.1c0,0.6,0.3,0.8,0.5,0.8c0.1,0,0.2,0,0.3,0l0.3,1.6c-0.3,0.1-0.6,0.2-1.1,0.2
							C386.1,21.2,385.5,20.3,385.5,18.7z"/>
						<path d="M394.2,16.1c0-3.3,2.3-5.2,4.9-5.2c1.3,0,2.2,0.5,2.9,1.1l-1,1.4c-0.5-0.5-1.1-0.8-1.8-0.8c-1.7,0-2.8,1.4-2.8,3.5
							s1.1,3.5,2.8,3.5c0.8,0,1.6-0.4,2.2-0.9l0.8,1.4c-0.9,0.8-2.1,1.2-3.2,1.2C396.3,21.2,394.2,19.3,394.2,16.1z"/>
						<path d="M403.1,16.1c0-3.3,2.2-5.2,4.7-5.2s4.7,1.9,4.7,5.2s-2.2,5.2-4.7,5.2S403.1,19.3,403.1,16.1z M410.3,16.1
							c0-2.1-1-3.5-2.5-3.5s-2.5,1.4-2.5,3.5s1,3.5,2.5,3.5C409.3,19.5,410.3,18.2,410.3,16.1z"/>
						<path d="M414.8,11.1h1.7l0.2,1.8h0.1c0.7-1.3,1.7-2,2.8-2c0.5,0,0.8,0.1,1.1,0.2l-0.4,1.8c-0.3-0.1-0.6-0.2-1-0.2
							c-0.8,0-1.8,0.6-2.4,2.1V21h-2.1L414.8,11.1L414.8,11.1z"/>
						<path d="M421.3,16.1c0-3.2,2-5.2,4.2-5.2c1.1,0,1.9,0.4,2.7,1.1l-0.1-1.6V6.6h2.1V21h-1.7l-0.2-1.1h-0.1
							c-0.7,0.8-1.8,1.4-2.9,1.4C422.9,21.2,421.3,19.3,421.3,16.1z M428.1,18.3v-4.8c-0.7-0.7-1.4-0.9-2.2-0.9
							c-1.4,0-2.5,1.3-2.5,3.5c0,2.3,0.9,3.5,2.4,3.5C426.7,19.5,427.4,19.1,428.1,18.3z"/>
						<path d="M437.1,8c0-0.7,0.6-1.2,1.3-1.2s1.3,0.5,1.3,1.2s-0.6,1.2-1.3,1.2S437.1,8.7,437.1,8z M437.4,11.1h2.1V21h-2.1V11.1z"
							/>
						<path d="M442.5,11.1h1.7l0.2,1.4h0.1c0.9-0.9,1.9-1.6,3.3-1.6c2.1,0,3,1.4,3,3.9V21h-2.1v-6c0-1.7-0.5-2.4-1.7-2.4
							c-0.9,0-1.5,0.5-2.4,1.3v7h-2.1V11.1z"/>
						<path d="M451.3,25l0.4-1.5c0.3,0.1,0.6,0.2,0.9,0.2c0.9,0,1.2-0.7,1.2-1.8V11.1h2.1v10.6c0,2.1-0.8,3.5-3,3.5
							C452.2,25.3,451.7,25.1,451.3,25z M453.5,8c0-0.7,0.6-1.2,1.3-1.2s1.3,0.5,1.3,1.2s-0.6,1.2-1.3,1.2S453.5,8.7,453.5,8z"/>
						<path d="M458.8,17.3v-6.2h2.1v6c0,1.7,0.5,2.4,1.7,2.4c0.9,0,1.5-0.4,2.4-1.5v-6.9h2.1V21h-1.7l-0.2-1.5h-0.1
							c-0.9,1-1.9,1.7-3.2,1.7C459.7,21.2,458.8,19.8,458.8,17.3z"/>
						<path d="M470.1,11.1h1.7l0.2,1.8h0.1c0.7-1.3,1.7-2,2.8-2c0.5,0,0.8,0.1,1.1,0.2l-0.4,1.8c-0.3-0.1-0.6-0.2-1-0.2
							c-0.8,0-1.8,0.6-2.4,2.1V21h-2.1L470.1,11.1L470.1,11.1z"/>
						<path d="M482.2,21.6c-0.8,2.1-1.8,3.5-3.9,3.5c-0.5,0-0.9-0.1-1.2-0.2l0.4-1.6c0.2,0.1,0.5,0.1,0.7,0.1c1.1,0,1.7-0.8,2.1-1.9
							l0.2-0.7l-3.9-9.8h2.1l1.8,5.1c0.3,0.9,0.6,1.9,0.9,2.8h0.1l0.8-2.8l1.6-5.1h2L482.2,21.6z"/>
						<path d="M486.2,23.4c1.2-0.5,1.9-1.4,2-2.5c-0.1,0-0.1,0-0.2,0c-0.7,0-1.4-0.5-1.4-1.3s0.6-1.3,1.4-1.3c1,0,1.6,0.8,1.6,2.2
							c0,1.9-1.1,3.3-3,4.1L486.2,23.4z"/>
						<path d="M496.6,9.9c0-2,0.9-3.4,3.1-3.4c0.7,0,1.3,0.1,1.7,0.3L501,8.3c-0.4-0.2-0.7-0.3-1.1-0.3c-0.9,0-1.3,0.6-1.3,1.8v1.3
							h2v1.7h-2V21h-2.1v-8.2h-1.4v-1.5l1.4-0.1V9.9H496.6z M502.5,8c0-0.7,0.6-1.2,1.3-1.2c0.8,0,1.3,0.5,1.3,1.2s-0.6,1.2-1.3,1.2
							S502.5,8.7,502.5,8z M502.8,11.1h2.1V21h-2.1V11.1z"/>
						<path d="M509.8,20L509.8,20l-0.3,1H508V6.6h2.1v3.8l-0.1,1.7c0.8-0.7,1.9-1.3,3-1.3c2.5,0,3.9,2,3.9,5c0,3.4-2,5.3-4.3,5.3
							C511.7,21.2,510.7,20.8,509.8,20z M514.7,15.9c0-2.1-0.7-3.3-2.3-3.3c-0.8,0-1.5,0.4-2.4,1.2v4.8c0.8,0.7,1.5,0.9,2.2,0.9
							C513.6,19.5,514.7,18.2,514.7,15.9z"/>
						<path d="M519.3,11.1h1.7l0.2,1.8h0.1c0.7-1.3,1.7-2,2.8-2c0.5,0,0.8,0.1,1.1,0.2l-0.4,1.8c-0.3-0.1-0.6-0.2-1-0.2
							c-0.8,0-1.8,0.6-2.4,2.1V21h-2.1L519.3,11.1L519.3,11.1z"/>
						<path d="M525.8,16.1c0-3.3,2.2-5.2,4.7-5.2c2.4,0,4.7,1.9,4.7,5.2s-2.2,5.2-4.7,5.2C528,21.2,525.8,19.3,525.8,16.1z
							 M533,16.1c0-2.1-1-3.5-2.5-3.5S528,14,528,16.1s1,3.5,2.5,3.5C532,19.5,533,18.2,533,16.1z"/>
						<path d="M537.5,11.1h1.7l0.2,1.4h0.1c0.8-0.9,1.8-1.6,3.1-1.6c1.5,0,2.3,0.7,2.7,1.8c1-1,2-1.8,3.2-1.8c2.1,0,3,1.4,3,3.9V21
							h-2.1v-6c0-1.7-0.5-2.4-1.7-2.4c-0.7,0-1.4,0.5-2.2,1.3v7h-2.1v-6c0-1.7-0.5-2.4-1.7-2.4c-0.7,0-1.4,0.5-2.2,1.3v7h-2.1
							L537.5,11.1L537.5,11.1z"/>
						<path d="M558.8,21.6c-0.8,2.1-1.8,3.5-3.9,3.5c-0.5,0-0.9-0.1-1.2-0.2l0.4-1.6c0.2,0.1,0.5,0.1,0.7,0.1c1.1,0,1.7-0.8,2.1-1.9
							l0.2-0.7l-3.9-9.8h2.1l1.8,5.1c0.3,0.9,0.6,1.9,0.9,2.8h0.1l0.8-2.8l1.6-5.1h2L558.8,21.6z"/>
						<path d="M563.3,18.4c0-2.1,1.8-3.2,5.9-3.7c0-1.2-0.4-2.2-1.9-2.2c-1,0-2,0.5-2.9,1l-0.8-1.4c1-0.6,2.4-1.3,4-1.3
							c2.5,0,3.6,1.6,3.6,4.2v6h-1.7l-0.2-1.1h-0.1c-0.9,0.8-2,1.4-3.2,1.4C564.5,21.2,563.3,20.1,563.3,18.4z M569.2,18.4V16
							c-2.9,0.4-3.9,1.1-3.9,2.2c0,1,0.7,1.4,1.5,1.4C567.7,19.6,568.4,19.2,569.2,18.4z"/>
						<path d="M574.2,18.7v-12h2.1v12.1c0,0.6,0.3,0.8,0.5,0.8c0.1,0,0.2,0,0.3,0l0.3,1.6c-0.3,0.1-0.6,0.2-1.1,0.2
							C574.8,21.2,574.2,20.3,574.2,18.7z"/>
						<path d="M578.9,22.8c0-0.8,0.5-1.6,1.4-2.2v-0.1c-0.5-0.3-0.9-0.8-0.9-1.6c0-0.8,0.6-1.4,1.1-1.8V17c-0.7-0.5-1.3-1.5-1.3-2.6
							c0-2.3,1.8-3.6,3.8-3.6c0.6,0,1.1,0.1,1.4,0.3h3.5v1.5H586c0.4,0.4,0.6,1.1,0.6,1.8c0,2.2-1.6,3.4-3.7,3.4
							c-0.5,0-1-0.1-1.4-0.3c-0.3,0.3-0.5,0.6-0.5,1c0,0.6,0.4,1,1.7,1h1.8c2.3,0,3.6,0.7,3.6,2.4c0,1.9-2,3.5-5.2,3.5
							C580.6,25.4,578.9,24.6,578.9,22.8z M586.1,22.3c0-0.8-0.6-1.1-1.9-1.1h-1.5c-0.5,0-0.9-0.1-1.3-0.1c-0.6,0.4-0.8,0.9-0.8,1.4
							c0,1,1,1.5,2.6,1.5C585,24.1,586.1,23.2,586.1,22.3z M584.9,14.4c0-1.3-0.8-2.1-1.9-2.1c-1,0-1.9,0.8-1.9,2.1s0.8,2.1,1.9,2.1
							S584.9,15.7,584.9,14.4z"/>
						<path d="M589.7,8c0-0.7,0.6-1.2,1.3-1.2c0.8,0,1.3,0.5,1.3,1.2s-0.6,1.2-1.3,1.2C590.2,9.2,589.7,8.7,589.7,8z M590,11.1h2.1
							V21H590V11.1z"/>
						<path d="M594.6,18.4c0-2.1,1.8-3.2,5.9-3.7c0-1.2-0.4-2.2-1.9-2.2c-1,0-2,0.5-2.9,1l-0.8-1.4c1-0.6,2.4-1.3,4-1.3
							c2.5,0,3.6,1.6,3.6,4.2v6h-1.7l-0.2-1.1h-0.1c-0.9,0.8-2,1.4-3.2,1.4C595.8,21.2,594.6,20.1,594.6,18.4z M600.5,18.4V16
							c-2.9,0.4-3.9,1.1-3.9,2.2c0,1,0.7,1.4,1.5,1.4C599,19.6,599.7,19.2,600.5,18.4z"/>
						<path d="M604.9,23.4c1.2-0.5,1.9-1.4,2-2.5c-0.1,0-0.1,0-0.2,0c-0.7,0-1.4-0.5-1.4-1.3s0.6-1.3,1.4-1.3c1,0,1.6,0.8,1.6,2.2
							c0,1.9-1.1,3.3-3,4.1L604.9,23.4z"/>
						<path d="M615.2,17.8v-5h-1.4v-1.5l1.5-0.1l0.2-2.7h1.7v2.7h2.6v1.7h-2.6v5c0,1.2,0.4,1.8,1.4,1.8c0.3,0,0.8-0.1,1.1-0.2
							l0.4,1.5c-0.6,0.2-1.2,0.4-1.9,0.4C616,21.2,615.2,19.8,615.2,17.8z"/>
						<path d="M622,11.1h1.7l0.2,1.8h0.1c0.7-1.3,1.7-2,2.8-2c0.5,0,0.8,0.1,1.1,0.2l-0.4,1.8c-0.3-0.1-0.6-0.2-1-0.2
							c-0.8,0-1.8,0.6-2.4,2.1V21H622V11.1z"/>
						<path d="M628.3,18.4c0-2.1,1.8-3.2,5.9-3.7c0-1.2-0.4-2.2-1.9-2.2c-1,0-2,0.5-2.9,1l-0.8-1.4c1-0.6,2.4-1.3,4-1.3
							c2.5,0,3.6,1.6,3.6,4.2v6h-1.7l-0.2-1.1h-0.1c-0.9,0.8-2,1.4-3.2,1.4C629.5,21.2,628.3,20.1,628.3,18.4z M634.2,18.4V16
							c-2.9,0.4-3.9,1.1-3.9,2.2c0,1,0.7,1.4,1.5,1.4C632.7,19.6,633.4,19.2,634.2,18.4z"/>
						<path d="M639.1,17.3v-6.2h2.1v6c0,1.7,0.5,2.4,1.7,2.4c0.9,0,1.5-0.4,2.4-1.5v-6.9h2.1V21h-1.7l-0.2-1.5h-0.1
							c-0.9,1-1.9,1.7-3.2,1.7C640,21.2,639.1,19.8,639.1,17.3z"/>
						<path d="M650.4,11.1h1.7l0.2,1.4h0.1c0.8-0.9,1.8-1.6,3.1-1.6c1.5,0,2.3,0.7,2.7,1.8c1-1,2-1.8,3.2-1.8c2.1,0,3,1.4,3,3.9V21
							h-2.1v-6c0-1.7-0.5-2.4-1.7-2.4c-0.7,0-1.4,0.5-2.2,1.3v7h-2.1v-6c0-1.7-0.5-2.4-1.7-2.4c-0.7,0-1.4,0.5-2.2,1.3v7h-2.1
							L650.4,11.1L650.4,11.1z"/>
						<path d="M666.8,18.4c0-2.1,1.8-3.2,5.9-3.7c0-1.2-0.4-2.2-1.9-2.2c-1,0-2,0.5-2.9,1l-0.8-1.4c1-0.6,2.4-1.3,4-1.3
							c2.5,0,3.6,1.6,3.6,4.2v6H673l-0.2-1.1h-0.1c-0.9,0.8-2,1.4-3.2,1.4C668,21.2,666.8,20.1,666.8,18.4z M672.7,18.4V16
							c-2.9,0.4-3.9,1.1-3.9,2.2c0,1,0.7,1.4,1.5,1.4C671.2,19.6,671.9,19.2,672.7,18.4z"/>
						<path d="M677.7,17.8v-5h-1.4v-1.5l1.5-0.1l0.2-2.7h1.7v2.7h2.6v1.7h-2.6v5c0,1.2,0.4,1.8,1.4,1.8c0.3,0,0.8-0.1,1.1-0.2
							l0.4,1.5c-0.6,0.2-1.2,0.4-1.9,0.4C678.5,21.2,677.7,19.8,677.7,17.8z"/>
						<path d="M684.2,8c0-0.7,0.6-1.2,1.3-1.2c0.8,0,1.3,0.5,1.3,1.2s-0.6,1.2-1.3,1.2S684.2,8.7,684.2,8z M684.5,11.1h2.1V21h-2.1
							V11.1z"/>
						<path d="M689,16.1c0-3.3,2.3-5.2,4.9-5.2c1.3,0,2.2,0.5,2.9,1.1l-1,1.4c-0.5-0.5-1.1-0.8-1.8-0.8c-1.7,0-2.8,1.4-2.8,3.5
							s1.1,3.5,2.8,3.5c0.8,0,1.6-0.4,2.2-0.9l0.8,1.4c-0.9,0.8-2.1,1.2-3.2,1.2C691,21.2,689,19.3,689,16.1z"/>
						<path d="M703,11.1h1.7l0.2,1.4h0.1c0.8-0.9,1.8-1.6,3.1-1.6c1.5,0,2.3,0.7,2.7,1.8c1-1,2-1.8,3.2-1.8c2.1,0,3,1.4,3,3.9V21h-2
							v-6c0-1.7-0.5-2.4-1.7-2.4c-0.7,0-1.4,0.5-2.2,1.3v7H709v-6c0-1.7-0.5-2.4-1.7-2.4c-0.7,0-1.4,0.5-2.2,1.3v7H703V11.1z"/>
						<path d="M719.9,17.3v-6.2h2.1v6c0,1.7,0.5,2.4,1.7,2.4c0.9,0,1.5-0.4,2.4-1.5v-6.9h2.1V21h-1.7l-0.2-1.5h-0.1
							c-0.9,1-1.9,1.7-3.2,1.7C720.8,21.2,719.9,19.8,719.9,17.3z"/>
						<path d="M730.1,19.9l1-1.3c0.9,0.7,1.7,1.1,2.8,1.1c1.2,0,1.7-0.6,1.7-1.3c0-0.9-1.1-1.3-2.2-1.7c-1.3-0.5-2.8-1.2-2.8-2.9
							s1.3-2.9,3.5-2.9c1.3,0,2.4,0.5,3.2,1.2l-1,1.3c-0.7-0.5-1.4-0.9-2.2-0.9c-1.1,0-1.6,0.5-1.6,1.2c0,0.8,1,1.2,2.1,1.6
							c1.4,0.5,2.9,1.1,2.9,3c0,1.7-1.3,3-3.8,3C732.5,21.2,731.1,20.7,730.1,19.9z"/>
						<path d="M739.1,16.1c0-3.3,2.3-5.2,4.9-5.2c1.3,0,2.2,0.5,2.9,1.1l-1,1.4c-0.5-0.5-1.1-0.8-1.8-0.8c-1.7,0-2.8,1.4-2.8,3.5
							s1.1,3.5,2.8,3.5c0.8,0,1.6-0.4,2.2-0.9L747,20c-0.9,0.8-2.1,1.2-3.2,1.2C741.2,21.2,739.1,19.3,739.1,16.1z"/>
						<path d="M749.1,18.7v-12h2.1v12.1c0,0.6,0.3,0.8,0.5,0.8c0.1,0,0.2,0,0.3,0l0.3,1.6c-0.3,0.1-0.6,0.2-1.1,0.2
							C749.7,21.2,749.1,20.3,749.1,18.7z"/>
						<path d="M753.8,16.1c0-3.2,2.2-5.2,4.5-5.2c2.6,0,4,1.9,4,4.7c0,0.4,0,0.8-0.1,1h-6.4c0.2,1.9,1.3,3,3.1,3
							c0.9,0,1.6-0.3,2.4-0.7l0.7,1.3c-0.9,0.6-2.1,1-3.3,1C755.9,21.2,753.8,19.3,753.8,16.1z M760.5,15.2c0-1.7-0.8-2.7-2.2-2.7
							c-1.2,0-2.3,1-2.5,2.7H760.5z"/>
						<path d="M768.4,8c0-0.7,0.6-1.2,1.3-1.2c0.8,0,1.3,0.5,1.3,1.2s-0.6,1.2-1.3,1.2S768.4,8.7,768.4,8z M768.7,11.1h2.1V21h-2.1
							V11.1z"/>
						<path d="M773.9,11.1h1.7l0.2,1.4h0.1c0.9-0.9,1.9-1.6,3.3-1.6c2.1,0,3,1.4,3,3.9V21H780v-6c0-1.7-0.5-2.4-1.7-2.4
							c-0.9,0-1.5,0.5-2.4,1.3v7h-2.1v-9.8H773.9z"/>
						<path d="M782.7,25l0.4-1.5c0.3,0.1,0.6,0.2,0.9,0.2c0.9,0,1.2-0.7,1.2-1.8V11.1h2.1v10.6c0,2.1-0.8,3.5-3,3.5
							C783.5,25.3,783,25.1,782.7,25z M784.8,8c0-0.7,0.6-1.2,1.3-1.2c0.8,0,1.3,0.5,1.3,1.2s-0.6,1.2-1.3,1.2
							C785.4,9.2,784.8,8.7,784.8,8z"/>
						<path d="M790.1,17.3v-6.2h2.1v6c0,1.7,0.5,2.4,1.7,2.4c0.9,0,1.5-0.4,2.4-1.5v-6.9h2.1V21h-1.7l-0.2-1.5h-0.1
							c-0.9,1-1.9,1.7-3.2,1.7C791.1,21.2,790.1,19.8,790.1,17.3z"/>
						<path d="M801.4,11.1h1.7l0.2,1.8h0.1c0.7-1.3,1.7-2,2.8-2c0.5,0,0.8,0.1,1.1,0.2l-0.4,1.8c-0.3-0.1-0.6-0.2-1-0.2
							c-0.8,0-1.8,0.6-2.4,2.1V21h-2.1L801.4,11.1L801.4,11.1z"/>
						<path d="M813.5,21.6c-0.8,2.1-1.8,3.5-3.9,3.5c-0.5,0-0.9-0.1-1.2-0.2l0.4-1.6c0.2,0.1,0.5,0.1,0.7,0.1c1.1,0,1.7-0.8,2.1-1.9
							l0.2-0.7l-3.9-9.8h2.1l1.8,5.1c0.3,0.9,0.6,1.9,0.9,2.8h0.1l0.8-2.8l1.6-5.1h2L813.5,21.6z"/>
						<path d="M817.5,23.4c1.2-0.5,1.9-1.4,2-2.5c-0.1,0-0.1,0-0.2,0c-0.7,0-1.4-0.5-1.4-1.3s0.6-1.3,1.4-1.3c1,0,1.6,0.8,1.6,2.2
							c0,1.9-1.1,3.3-3,4.1L817.5,23.4z"/>
						<path d="M827.5,11.1h1.7l0.2,1.8h0.1c0.7-1.3,1.7-2,2.8-2c0.5,0,0.8,0.1,1.1,0.2l-0.4,1.8c-0.3-0.1-0.6-0.2-1-0.2
							c-0.8,0-1.8,0.6-2.4,2.1V21h-2.1L827.5,11.1L827.5,11.1z"/>
						<path d="M834.9,6.6h2.1v3.8l-0.1,2c0.9-0.8,1.9-1.6,3.2-1.6c2.1,0,3,1.4,3,3.9V21H841v-6c0-1.7-0.5-2.4-1.7-2.4
							c-0.9,0-1.5,0.5-2.4,1.3v7h-2.1L834.9,6.6L834.9,6.6z"/>
						<path d="M845.5,18.4c0-2.1,1.8-3.2,5.9-3.7c0-1.2-0.4-2.2-1.9-2.2c-1,0-2,0.5-2.9,1l-0.8-1.4c1-0.6,2.4-1.3,4-1.3
							c2.5,0,3.6,1.6,3.6,4.2v6h-1.7l-0.2-1.1h-0.1c-0.9,0.8-2,1.4-3.2,1.4C846.7,21.2,845.5,20.1,845.5,18.4z M851.4,18.4V16
							c-2.9,0.4-3.9,1.1-3.9,2.2c0,1,0.7,1.4,1.5,1.4C849.9,19.6,850.6,19.2,851.4,18.4z"/>
						<path d="M858.3,20L858.3,20l-0.3,1h-1.6V6.6h2.1v3.8l-0.1,1.7c0.8-0.7,1.9-1.3,3-1.3c2.5,0,3.9,2,3.9,5c0,3.4-2,5.3-4.3,5.3
							C860.1,21.2,859.1,20.8,858.3,20z M863.2,15.9c0-2.1-0.7-3.3-2.3-3.3c-0.8,0-1.5,0.4-2.4,1.2v4.8c0.8,0.7,1.5,0.9,2.2,0.9
							C862.1,19.5,863.2,18.2,863.2,15.9z"/>
						<path d="M867.1,16.1c0-3.2,2-5.2,4.2-5.2c1.1,0,1.9,0.4,2.7,1.1l-0.1-1.6V6.6h2.1V21h-1.7l-0.2-1.1H874
							c-0.7,0.8-1.8,1.4-2.9,1.4C868.7,21.2,867.1,19.3,867.1,16.1z M873.9,18.3v-4.8c-0.7-0.7-1.4-0.9-2.2-0.9
							c-1.4,0-2.5,1.3-2.5,3.5c0,2.3,0.9,3.5,2.4,3.5C872.5,19.5,873.2,19.1,873.9,18.3z"/>
						<path d="M878.4,16.1c0-3.3,2.2-5.2,4.7-5.2c2.4,0,4.7,1.9,4.7,5.2s-2.2,5.2-4.7,5.2C880.6,21.2,878.4,19.3,878.4,16.1z
							 M885.6,16.1c0-2.1-1-3.5-2.5-3.5s-2.5,1.4-2.5,3.5s1,3.5,2.5,3.5C884.6,19.5,885.6,18.2,885.6,16.1z"/>
						<path d="M890.1,11.1h1.7l0.2,1.4h0.1c0.8-0.9,1.8-1.6,3.1-1.6c1.5,0,2.3,0.7,2.7,1.8c1-1,2-1.8,3.2-1.8c2.1,0,3,1.4,3,3.9V21
							H902v-6c0-1.7-0.5-2.4-1.7-2.4c-0.7,0-1.4,0.5-2.2,1.3v7H896v-6c0-1.7-0.5-2.4-1.7-2.4c-0.7,0-1.4,0.5-2.2,1.3v7H890
							L890.1,11.1L890.1,11.1z"/>
						<path d="M911.5,21.6c-0.8,2.1-1.8,3.5-3.9,3.5c-0.5,0-0.9-0.1-1.2-0.2l0.4-1.6c0.2,0.1,0.5,0.1,0.7,0.1c1.1,0,1.7-0.8,2.1-1.9
							l0.2-0.7l-3.9-9.8h2.1l1.8,5.1c0.3,0.9,0.6,1.9,0.9,2.8h0.1l0.8-2.8l1.6-5.1h2L911.5,21.6z"/>
						<path d="M916.1,16.1c0-3.3,2.2-5.2,4.7-5.2c2.4,0,4.7,1.9,4.7,5.2s-2.2,5.2-4.7,5.2C918.3,21.2,916.1,19.3,916.1,16.1z
							 M923.3,16.1c0-2.1-1-3.5-2.5-3.5s-2.5,1.4-2.5,3.5s1,3.5,2.5,3.5C922.3,19.5,923.3,18.2,923.3,16.1z"/>
						<path d="M927.8,18.7v-12h2.1v12.1c0,0.6,0.3,0.8,0.5,0.8c0.1,0,0.2,0,0.3,0l0.3,1.6c-0.3,0.1-0.6,0.2-1.1,0.2
							C928.4,21.2,927.8,20.3,927.8,18.7z"/>
						<path d="M937.5,21.6c-0.8,2.1-1.8,3.5-3.9,3.5c-0.5,0-0.9-0.1-1.2-0.2l0.4-1.6c0.2,0.1,0.5,0.1,0.7,0.1c1.1,0,1.7-0.8,2.1-1.9
							l0.2-0.7l-3.9-9.8h2.1l1.8,5.1c0.3,0.9,0.6,1.9,0.9,2.8h0.1l0.8-2.8l1.6-5.1h2L937.5,21.6z"/>
						<path d="M941.9,19.9l1-1.3c0.9,0.7,1.7,1.1,2.8,1.1c1.2,0,1.7-0.6,1.7-1.3c0-0.9-1.1-1.3-2.2-1.7c-1.3-0.5-2.8-1.2-2.8-2.9
							s1.3-2.9,3.5-2.9c1.3,0,2.4,0.5,3.2,1.2l-1,1.3c-0.7-0.5-1.4-0.9-2.2-0.9c-1.1,0-1.6,0.5-1.6,1.2c0,0.8,1,1.2,2.1,1.6
							c1.4,0.5,2.9,1.1,2.9,3c0,1.7-1.3,3-3.8,3C944.3,21.2,942.9,20.7,941.9,19.9z"/>
						<path d="M951.3,8c0-0.7,0.6-1.2,1.3-1.2S954,7.3,954,8s-0.6,1.2-1.3,1.2S951.3,8.7,951.3,8z M951.6,11.1h2.1V21h-2.1V11.1z"/>
						<path d="M955.7,19.9l1-1.3c0.9,0.7,1.7,1.1,2.8,1.1c1.2,0,1.7-0.6,1.7-1.3c0-0.9-1.1-1.3-2.2-1.7c-1.3-0.5-2.8-1.2-2.8-2.9
							s1.3-2.9,3.5-2.9c1.3,0,2.4,0.5,3.2,1.2l-1,1.3c-0.7-0.5-1.4-0.9-2.2-0.9c-1.1,0-1.6,0.5-1.6,1.2c0,0.8,1,1.2,2.1,1.6
							c1.4,0.5,2.9,1.1,2.9,3c0,1.7-1.3,3-3.8,3C958.1,21.2,956.7,20.7,955.7,19.9z"/>
					</g>
					<path class="st3" d="M0,42.5h1000"/>
					<g>
						<path d="M64,7.7h2.8l1.8,6.5c0.4,1.5,0.7,2.8,1.1,4.3h0.1c0.4-1.5,0.7-2.8,1.1-4.3l1.7-6.5h2.7l-4.1,13.4h-3.2L64,7.7z"/>
						<path d="M76.9,7.7h3l2.3,6.3c0.3,0.8,0.5,1.7,0.8,2.6h0.1c0.3-0.9,0.5-1.8,0.8-2.6l2.2-6.3h3v13.4h-2.4v-5.6
							c0-1.3,0.2-3.1,0.3-4.4h-0.1l-1.1,3.1l-2.1,5.6h-1.5l-2.1-5.6L79,11.1H79c0.1,1.3,0.3,3.1,0.3,4.4v5.6h-2.4V7.7z"/>
						<path d="M91.2,19.5l1.2-1.7c0.8,0.8,1.8,1.4,3,1.4c1.4,0,2.3-0.7,2.3-1.9c0-1.3-0.8-2.1-3.7-2.1v-1.9c2.5,0,3.3-0.9,3.3-2
							c0-1-0.7-1.7-1.8-1.7c-1,0-1.7,0.5-2.5,1.2l-1.4-1.6c1.2-1,2.4-1.6,4-1.6c2.6,0,4.3,1.3,4.3,3.6c0,1.4-0.8,2.5-2.2,3.1v0.1
							c1.5,0.4,2.7,1.5,2.7,3.3c0,2.5-2.2,3.9-4.7,3.9C93.6,21.3,92.1,20.6,91.2,19.5z"/>
						<path d="M102.2,14.3c0-4.6,1.8-6.9,4.5-6.9c2.7,0,4.5,2.3,4.5,6.9s-1.8,7-4.5,7C104,21.3,102.2,19,102.2,14.3z M108.7,14.3
							c0-3.7-0.9-4.8-2-4.8c-1.2,0-2,1.1-2,4.8c0,3.8,0.9,4.9,2,4.9C107.9,19.3,108.7,18.1,108.7,14.3z"/>
						<path d="M113.5,18.9h2.9v-8.5H114V8.8c1.3-0.3,2.3-0.6,3.1-1.1h2v11.2h2.5v2.2h-8.1V18.9z"/>
						<path d="M123.6,15h4.9v1.9h-4.9V15z"/>
						<path d="M141.5,17.7h-4.3l-0.9,3.4h-2.7l4.3-13.4h3.1l4.3,13.4h-2.8L141.5,17.7z M140.9,15.6l-0.4-1.5
							c-0.4-1.4-0.8-2.9-1.2-4.4h-0.1c-0.3,1.5-0.7,3-1.1,4.4l-0.4,1.5H140.9z"/>
						<path d="M144.7,7.7h2.8l1.8,6.5c0.4,1.5,0.7,2.8,1.1,4.3h0.1c0.4-1.5,0.7-2.8,1.1-4.3l1.7-6.5h2.7L152,21.1h-3.2L144.7,7.7z"
							/>
						<path d="M157.5,18.9h2.9v-8.5h-2.4V8.8c1.3-0.3,2.3-0.6,3.1-1.1h2v11.2h2.5v2.2h-8.1V18.9z"/>
						<path d="M168.3,7.7h2.7V13h5.1V7.7h2.7v13.4h-2.7v-5.8H171v5.8h-2.7V7.7z"/>
					</g>
				</g>
			</g>
		</g>
	</g>
</g>
</svg>
