<?xml version="1.0" encoding="utf-8"?>
<!-- Generator: Adobe Illustrator 23.0.4, SVG Export Plug-In . SVG Version: 6.00 Build 0)  -->
<svg version="1.1" id="레이어_1" xmlns="http://www.w3.org/2000/svg" xmlns:xlink="http://www.w3.org/1999/xlink" x="0px"
	 y="0px" viewBox="0 0 336 754" style="enable-background:new 0 0 336 754;" xml:space="preserve">
<style type="text/css">
	.st0{fill-rule:evenodd;clip-rule:evenodd;}
	.st1{enable-background:new    ;}
	.st2{fill:#FFFFFF;}
	.st3{font-family:'NotoSansKR-Medium-KSCpc-EUC-H';}
	.st4{font-size:15px;}
	.st5{fill:none;stroke:#979797;stroke-linecap:square;}
</style>
<title>table</title>
<desc>Created with Sketch.</desc>
<g id="Page-1">
	<g id="mobile1" transform="translate(-19.000000, -198.000000)">
		<g id="table" transform="translate(20.000000, 198.000000)">
			<g id="table1">
				<g id="cell1">
					<g>
						<path id="bg" class="st0" d="M8,0h318c4.4,0,8,3.6,8,8v34c0,4.4-3.6,8-8,8H8c-4.4,0-8-3.6-8-8V8C0,3.6,3.6,0,8,0z"/>
						<g class="st1">
							<path class="st2" d="M136.4,19.9h3.6c2.5,0,4.3,0.9,4.3,3.5c0,2.5-1.9,3.7-4.3,3.7h-1.5V31h-2.2L136.4,19.9L136.4,19.9z
								 M139.9,25.3c1.5,0,2.3-0.6,2.3-1.9s-0.8-1.7-2.3-1.7h-1.3v3.6H139.9z"/>
							<path class="st2" d="M146.2,22.6h1.8l0.1,1.5h0.1c0.6-1.1,1.5-1.7,2.4-1.7c0.5,0,0.7,0.1,1,0.2l-0.4,1.9
								c-0.3-0.1-0.5-0.1-0.9-0.1c-0.7,0-1.5,0.4-1.9,1.7v5h-2.2L146.2,22.6L146.2,22.6z"/>
							<path class="st2" d="M152,26.8c0-2.8,1.9-4.4,4-4.4s4,1.6,4,4.4s-1.9,4.4-4,4.4S152,29.6,152,26.8z M157.8,26.8
								c0-1.6-0.6-2.6-1.8-2.6s-1.8,1-1.8,2.6s0.6,2.6,1.8,2.6S157.8,28.4,157.8,26.8z"/>
							<path class="st2" d="M161.4,32.5c0-0.7,0.4-1.3,1.2-1.7v-0.1c-0.4-0.3-0.8-0.7-0.8-1.4c0-0.6,0.4-1.2,0.9-1.6v-0.1
								c-0.6-0.4-1.1-1.2-1.1-2.2c0-2,1.6-3,3.4-3c0.5,0,0.9,0.1,1.3,0.2h3v1.6h-1.4c0.2,0.3,0.4,0.8,0.4,1.3c0,1.9-1.4,2.8-3.2,2.8
								c-0.3,0-0.7-0.1-1.1-0.2c-0.2,0.2-0.4,0.4-0.4,0.7c0,0.5,0.3,0.7,1.3,0.7h1.4c2,0,3.1,0.6,3.1,2.1c0,1.7-1.8,3-4.6,3
								C162.9,34.6,161.4,34,161.4,32.5z M167.4,32c0-0.6-0.5-0.8-1.4-0.8h-1c-0.5,0-0.9,0-1.2-0.1c-0.4,0.3-0.6,0.6-0.6,1
								c0,0.7,0.8,1.1,2,1.1C166.5,33.2,167.4,32.7,167.4,32z M166.3,25.4c0-1-0.6-1.5-1.3-1.5s-1.3,0.6-1.3,1.5
								c0,1,0.6,1.5,1.3,1.5S166.3,26.4,166.3,25.4z"/>
							<path class="st2" d="M170.9,22.6h1.8l0.1,1.5h0.1c0.6-1.1,1.5-1.7,2.4-1.7c0.5,0,0.7,0.1,1,0.2l-0.4,1.9
								c-0.3-0.1-0.5-0.1-0.9-0.1c-0.7,0-1.5,0.4-1.9,1.7v5h-2.2L170.9,22.6L170.9,22.6z"/>
							<path class="st2" d="M176.5,28.7c0-1.8,1.5-2.7,4.8-3.1c0-0.8-0.4-1.5-1.4-1.5c-0.8,0-1.5,0.3-2.3,0.8l-0.8-1.5
								c1-0.6,2.2-1.1,3.5-1.1c2.1,0,3.2,1.3,3.2,3.7v5h-1.8l-0.2-0.9l0,0c-0.7,0.6-1.6,1.1-2.5,1.1
								C177.5,31.2,176.5,30.1,176.5,28.7z M181.4,28.7V27c-2,0.3-2.7,0.8-2.7,1.6c0,0.7,0.5,0.9,1.1,0.9
								C180.4,29.5,180.9,29.2,181.4,28.7z"/>
							<path class="st2" d="M185.8,22.6h1.8l0.1,1.1h0.1c0.7-0.7,1.5-1.3,2.6-1.3c1.2,0,1.9,0.5,2.3,1.5c0.8-0.8,1.6-1.5,2.7-1.5
								c1.8,0,2.6,1.3,2.6,3.4V31h-2.2v-5c0-1.3-0.4-1.8-1.2-1.8c-0.5,0-1,0.3-1.6,0.9V31h-2.2v-5c0-1.3-0.4-1.8-1.2-1.8
								c-0.5,0-1,0.3-1.6,0.9V31h-2.2L185.8,22.6L185.8,22.6z"/>
						</g>
					</g>
					<g transform="translate(0.000000, 102.000000)">
						<path class="st0" d="M8,0h318c4.4,0,8,3.6,8,8v34c0,4.4-3.6,8-8,8H8c-4.4,0-8-3.6-8-8V8C0,3.6,3.6,0,8,0z"/>
						<g class="st1">
							<path class="st2" d="M107.6,21.7h-3.1v-1.8h8.5v1.8h-3.1V31h-2.2v-9.3H107.6z"/>
							<path class="st2" d="M114.6,19h2.2v3l-0.1,1.6c0.7-0.6,1.5-1.2,2.6-1.2c1.8,0,2.6,1.3,2.6,3.4V31h-2.2v-5
								c0-1.3-0.4-1.8-1.2-1.8c-0.7,0-1.1,0.3-1.8,0.9V31h-2.2L114.6,19L114.6,19z"/>
							<path class="st2" d="M123.6,26.8c0-2.7,1.9-4.4,3.9-4.4c2.3,0,3.5,1.7,3.5,4c0,0.4,0,0.8-0.1,1h-5.2c0.2,1.4,1.1,2.1,2.3,2.1
								c0.7,0,1.3-0.2,1.9-0.6l0.8,1.4c-0.8,0.6-1.9,0.9-2.9,0.9C125.5,31.2,123.6,29.6,123.6,26.8z M129.2,26
								c0-1.1-0.5-1.9-1.6-1.9c-0.9,0-1.7,0.6-1.8,1.9H129.2z"/>
							<path class="st2" d="M132.9,22.6h1.8l0.1,1.5h0.1c0.6-1.1,1.5-1.7,2.4-1.7c0.5,0,0.7,0.1,1,0.2l-0.4,1.9
								c-0.3-0.1-0.5-0.1-0.9-0.1c-0.7,0-1.5,0.4-1.9,1.7v5h-2.2L132.9,22.6L132.9,22.6z"/>
							<path class="st2" d="M138.5,28.7c0-1.8,1.5-2.7,4.8-3.1c0-0.8-0.4-1.5-1.4-1.5c-0.8,0-1.5,0.3-2.3,0.8l-0.8-1.5
								c1-0.6,2.2-1.1,3.5-1.1c2.1,0,3.2,1.3,3.2,3.7v5h-1.8l-0.2-0.9l0,0c-0.7,0.6-1.6,1.1-2.5,1.1
								C139.5,31.2,138.5,30.1,138.5,28.7z M143.4,28.7V27c-2,0.3-2.7,0.8-2.7,1.6c0,0.7,0.5,0.9,1.1,0.9
								C142.4,29.5,142.8,29.2,143.4,28.7z"/>
							<path class="st2" d="M147.8,22.6h1.8l0.1,0.9h0.1c0.7-0.6,1.6-1.1,2.5-1.1c2.1,0,3.3,1.7,3.3,4.3c0,2.9-1.7,4.5-3.6,4.5
								c-0.7,0-1.4-0.3-2.1-0.9l0.1,1.4v2.5h-2.2L147.8,22.6L147.8,22.6z M153.3,26.7c0-1.6-0.5-2.5-1.7-2.5c-0.6,0-1.1,0.3-1.7,0.9
								v3.7c0.5,0.5,1.1,0.6,1.5,0.6C152.6,29.4,153.3,28.5,153.3,26.7z"/>
							<path class="st2" d="M156.9,26.8c0-2.7,1.9-4.4,3.9-4.4c2.3,0,3.5,1.7,3.5,4c0,0.4,0,0.8-0.1,1H159c0.2,1.4,1.1,2.1,2.3,2.1
								c0.7,0,1.3-0.2,1.9-0.6l0.8,1.4c-0.8,0.6-1.9,0.9-2.9,0.9C158.8,31.2,156.9,29.6,156.9,26.8z M162.5,26
								c0-1.1-0.5-1.9-1.6-1.9c-0.9,0-1.7,0.6-1.8,1.9H162.5z"/>
							<path class="st2" d="M166.1,27.9v-5.2h2.2v5c0,1.3,0.4,1.8,1.2,1.8c0.7,0,1.1-0.3,1.7-1v-5.7h2.2V31h-1.8l-0.2-1.2h-0.1
								c-0.7,0.9-1.5,1.4-2.7,1.4C166.9,31.2,166.1,30,166.1,27.9z"/>
							<path class="st2" d="M176.1,28.1v-3.7h-1.2v-1.6l1.3-0.1l0.3-2.2h1.8v2.2h2.1v1.7h-2.1v3.7c0,1,0.4,1.4,1.1,1.4
								c0.3,0,0.6-0.1,0.8-0.2l0.4,1.6c-0.5,0.2-1,0.3-1.8,0.3C176.8,31.2,176.1,30,176.1,28.1z"/>
							<path class="st2" d="M181.8,20.1c0-0.7,0.6-1.2,1.3-1.2c0.8,0,1.3,0.5,1.3,1.2s-0.6,1.2-1.3,1.2
								C182.4,21.2,181.8,20.7,181.8,20.1z M182,22.6h2.2V31H182V22.6z"/>
							<path class="st2" d="M186.1,26.8c0-2.8,2-4.4,4.3-4.4c1,0,1.8,0.4,2.4,0.9l-1.1,1.4c-0.4-0.4-0.8-0.6-1.3-0.6
								c-1.3,0-2.1,1-2.1,2.6s0.9,2.6,2.1,2.6c0.6,0,1.2-0.3,1.6-0.7l0.9,1.5c-0.8,0.7-1.8,1-2.7,1
								C187.8,31.2,186.1,29.6,186.1,26.8z"/>
							<path class="st2" d="M203.3,28.2h-3.6l-0.8,2.8h-2.2l3.6-11.1h2.6l3.6,11.1h-2.3L203.3,28.2z M202.8,26.4l-0.3-1.2
								c-0.3-1.2-0.6-2.4-1-3.6h-0.1c-0.3,1.2-0.6,2.5-0.9,3.6l-0.3,1.2H202.8z"/>
							<path class="st2" d="M207.5,22.6h1.8l0.2,1.5h0.1c0.6-1.1,1.5-1.7,2.4-1.7c0.5,0,0.7,0.1,1,0.2l-0.4,1.9
								c-0.3-0.1-0.5-0.1-0.9-0.1c-0.7,0-1.5,0.4-1.9,1.7v5h-2.2v-8.5H207.5z"/>
							<path class="st2" d="M213.4,26.8c0-2.7,1.9-4.4,3.9-4.4c2.3,0,3.5,1.7,3.5,4c0,0.4,0,0.8-0.1,1h-5.2c0.2,1.4,1.1,2.1,2.3,2.1
								c0.7,0,1.3-0.2,1.9-0.6l0.8,1.4c-0.8,0.6-1.9,0.9-2.9,0.9C215.2,31.2,213.4,29.6,213.4,26.8z M218.9,26
								c0-1.1-0.5-1.9-1.6-1.9c-0.9,0-1.7,0.6-1.8,1.9H218.9z"/>
							<path class="st2" d="M222,28.7c0-1.8,1.5-2.7,4.8-3.1c0-0.8-0.4-1.5-1.4-1.5c-0.8,0-1.5,0.3-2.3,0.8l-0.8-1.5
								c1-0.6,2.2-1.1,3.5-1.1c2.1,0,3.2,1.3,3.2,3.7v5h-1.8l-0.2-0.9l0,0c-0.7,0.6-1.6,1.1-2.5,1.1C223,31.2,222,30.1,222,28.7z
								 M226.8,28.7V27c-2,0.3-2.7,0.8-2.7,1.6c0,0.7,0.5,0.9,1.1,0.9C225.8,29.5,226.3,29.2,226.8,28.7z"/>
						</g>
					</g>
					<g class="st1">
						<path d="M15.2,179.9c0-2.8,1.9-4.4,4.1-4.4c1,0,1.8,0.4,2.4,0.9l-0.9,1.1c-0.5-0.4-0.9-0.6-1.5-0.6c-1.4,0-2.4,1.2-2.4,2.9
							s0.9,2.9,2.3,2.9c0.7,0,1.3-0.3,1.8-0.8l0.7,1.1c-0.7,0.7-1.7,1-2.7,1C16.9,184.2,15.2,182.6,15.2,179.9z"/>
						<path d="M23.5,172h1.7v3.2l-0.1,1.6c0.7-0.7,1.5-1.3,2.7-1.3c1.8,0,2.5,1.2,2.5,3.3v5.2h-1.7v-5c0-1.4-0.4-2-1.4-2
							c-0.8,0-1.3,0.4-2,1.1v5.8h-1.7V172z"/>
						<path d="M32.8,175.8h1.4l0.1,1.5l0,0c0.6-1.1,1.5-1.7,2.3-1.7c0.4,0,0.7,0.1,0.9,0.2l-0.3,1.5c-0.3-0.1-0.5-0.1-0.8-0.1
							c-0.7,0-1.5,0.5-2,1.8v5.1h-1.7L32.8,175.8L32.8,175.8z"/>
						<path d="M38.2,179.9c0-2.8,1.8-4.4,3.9-4.4c2,0,3.9,1.6,3.9,4.4c0,2.7-1.8,4.3-3.9,4.3S38.2,182.6,38.2,179.9z M44.2,179.9
							c0-1.8-0.8-2.9-2.1-2.9s-2.1,1.2-2.1,2.9s0.8,2.9,2.1,2.9C43.4,182.8,44.2,181.6,44.2,179.9z"/>
						<path d="M48,175.8h1.4l0.1,1.1l0,0c0.8-0.7,1.6-1.4,2.7-1.4c1.8,0,2.5,1.2,2.5,3.3v5.2H53v-5c0-1.4-0.4-2-1.4-2
							c-0.8,0-1.3,0.4-2,1.1v5.8H48V175.8z"/>
						<path d="M57.1,173.2c0-0.6,0.5-1,1.1-1s1.1,0.4,1.1,1s-0.5,1-1.1,1S57.1,173.8,57.1,173.2z M57.3,175.8H59v8.2h-1.7V175.8z"/>
						<path d="M61.1,179.9c0-2.8,1.9-4.4,4.1-4.4c1,0,1.8,0.4,2.4,0.9l-0.9,1.1c-0.5-0.4-0.9-0.6-1.5-0.6c-1.4,0-2.4,1.2-2.4,2.9
							s0.9,2.9,2.3,2.9c0.7,0,1.3-0.3,1.8-0.8l0.7,1.1c-0.7,0.7-1.7,1-2.7,1C62.8,184.2,61.1,182.6,61.1,179.9z"/>
						<path d="M71.9,175.8h1.7l1.1,4.5c0.2,0.8,0.3,1.6,0.5,2.3h0.1c0.2-0.8,0.3-1.6,0.5-2.3l1.2-4.5h1.6l1.2,4.5
							c0.2,0.8,0.4,1.6,0.6,2.3h0.1c0.2-0.8,0.3-1.5,0.5-2.3l1.1-4.5h1.6l-2.1,8.2h-2.1l-1-4.1c-0.2-0.8-0.3-1.5-0.5-2.4h-0.1
							c-0.2,0.9-0.3,1.6-0.5,2.4l-1,4.1h-2L71.9,175.8z"/>
						<path d="M84.5,179.9c0-2.8,1.8-4.4,3.9-4.4c2,0,3.9,1.6,3.9,4.4c0,2.7-1.8,4.3-3.9,4.3C86.4,184.2,84.5,182.6,84.5,179.9z
							 M90.5,179.9c0-1.8-0.8-2.9-2.1-2.9c-1.3,0-2.1,1.2-2.1,2.9s0.8,2.9,2.1,2.9C89.7,182.8,90.5,181.6,90.5,179.9z"/>
						<path d="M94.2,180.9v-5.2h1.7v5c0,1.4,0.4,2,1.4,2c0.8,0,1.3-0.4,2-1.2v-5.7h1.7v8.2h-1.4l-0.1-1.2l0,0
							c-0.8,0.9-1.6,1.4-2.7,1.4C95,184.2,94.2,183,94.2,180.9z"/>
						<path d="M103.6,175.8h1.4l0.1,1.1l0,0c0.8-0.7,1.6-1.4,2.7-1.4c1.8,0,2.5,1.2,2.5,3.3v5.2h-1.7v-5c0-1.4-0.4-2-1.4-2
							c-0.8,0-1.3,0.4-2,1.1v5.8h-1.7L103.6,175.8L103.6,175.8z"/>
						<path d="M112.4,179.9c0-2.7,1.7-4.4,3.5-4.4c0.9,0,1.5,0.4,2.2,0.9L118,175v-3h1.7v12h-1.4l-0.1-0.9l0,0
							c-0.6,0.6-1.5,1.1-2.4,1.1C113.8,184.2,112.4,182.6,112.4,179.9z M118.1,181.8v-4c-0.6-0.6-1.2-0.8-1.8-0.8
							c-1.2,0-2.1,1.1-2.1,2.9c0,1.9,0.7,2.9,2,2.9C116.9,182.8,117.5,182.5,118.1,181.8z"/>
						<path d="M121.9,186c1-0.4,1.6-1.2,1.6-2.1c-0.1,0-0.1,0-0.2,0c-0.6,0-1.2-0.4-1.2-1.1c0-0.7,0.5-1.1,1.2-1.1
							c0.8,0,1.3,0.7,1.3,1.9c0,1.6-0.9,2.8-2.5,3.4L121.9,186z"/>
						<path d="M130.3,175.8h1.4l0.1,0.9l0,0c0.7-0.6,1.6-1.1,2.5-1.1c2.1,0,3.3,1.7,3.3,4.2c0,2.8-1.7,4.5-3.6,4.5
							c-0.7,0-1.5-0.3-2.2-0.9v1.4v2.7h-1.7v-11.7H130.3z M135.9,179.8c0-1.7-0.6-2.8-1.9-2.8c-0.6,0-1.3,0.3-2,1v4
							c0.6,0.6,1.3,0.8,1.8,0.8C135,182.8,135.9,181.7,135.9,179.8z"/>
						<path d="M139.1,179.9c0-2.7,1.8-4.4,3.8-4.4c2.2,0,3.4,1.6,3.4,3.9c0,0.3,0,0.7-0.1,0.9h-5.4c0.1,1.6,1.1,2.5,2.5,2.5
							c0.7,0,1.4-0.2,2-0.6l0.6,1.1c-0.8,0.5-1.7,0.9-2.8,0.9C140.9,184.2,139.1,182.6,139.1,179.9z M144.8,179.1
							c0-1.4-0.6-2.2-1.8-2.2c-1,0-1.9,0.8-2.1,2.2H144.8z"/>
						<path d="M148.2,175.8h1.4l0.1,1.5l0,0c0.6-1.1,1.5-1.7,2.3-1.7c0.4,0,0.7,0.1,0.9,0.2l-0.3,1.5c-0.3-0.1-0.5-0.1-0.8-0.1
							c-0.7,0-1.5,0.5-2,1.8v5.1h-1.7v-8.3H148.2z"/>
						<path d="M154.1,173.2c0-0.6,0.5-1,1.1-1s1.1,0.4,1.1,1s-0.5,1-1.1,1S154.1,173.8,154.1,173.2z M154.3,175.8h1.7v8.2h-1.7
							V175.8z"/>
						<path d="M158.6,175.8h1.4l0.1,0.9l0,0c0.7-0.6,1.6-1.1,2.5-1.1c2.1,0,3.3,1.7,3.3,4.2c0,2.8-1.7,4.5-3.6,4.5
							c-0.7,0-1.5-0.3-2.2-0.9v1.4v2.7h-1.7v-11.7H158.6z M164.2,179.8c0-1.7-0.6-2.8-1.9-2.8c-0.6,0-1.3,0.3-2,1v4
							c0.6,0.6,1.3,0.8,1.8,0.8C163.4,182.8,164.2,181.7,164.2,179.8z"/>
						<path d="M168.1,172h1.7v3.2l-0.1,1.6c0.7-0.7,1.5-1.3,2.7-1.3c1.8,0,2.5,1.2,2.5,3.3v5.2h-1.7v-5c0-1.4-0.4-2-1.4-2
							c-0.8,0-1.3,0.4-2,1.1v5.8h-1.7V172z"/>
						<path d="M176.8,179.9c0-2.7,1.8-4.4,3.8-4.4c2.2,0,3.4,1.6,3.4,3.9c0,0.3,0,0.7-0.1,0.9h-5.4c0.1,1.6,1.1,2.5,2.5,2.5
							c0.7,0,1.4-0.2,2-0.6l0.6,1.1c-0.8,0.5-1.7,0.9-2.8,0.9C178.6,184.2,176.8,182.6,176.8,179.9z M182.5,179.1
							c0-1.4-0.6-2.2-1.8-2.2c-1,0-1.9,0.8-2.1,2.2H182.5z"/>
						<path d="M185.9,175.8h1.4l0.1,1.5l0,0c0.6-1.1,1.5-1.7,2.3-1.7c0.4,0,0.7,0.1,0.9,0.2l-0.3,1.5c-0.3-0.1-0.5-0.1-0.8-0.1
							c-0.7,0-1.5,0.5-2,1.8v5.1h-1.7v-8.3H185.9z"/>
						<path d="M191.1,181.8c0-1.8,1.5-2.7,4.9-3.1c0-1-0.4-1.8-1.6-1.8c-0.9,0-1.7,0.4-2.4,0.8l-0.6-1.2c0.9-0.5,2-1.1,3.3-1.1
							c2.1,0,3,1.3,3,3.5v5h-1.4l-0.1-0.9l0,0c-0.8,0.6-1.6,1.1-2.6,1.1C192.1,184.2,191.1,183.3,191.1,181.8z M196,181.9v-2
							c-2.4,0.3-3.3,0.9-3.3,1.8c0,0.8,0.6,1.1,1.3,1.1C194.8,182.8,195.4,182.5,196,181.9z"/>
						<path d="M200.2,182.1v-10h1.7v10.1c0,0.5,0.2,0.6,0.4,0.6c0.1,0,0.1,0,0.3,0l0.2,1.3c-0.2,0.1-0.5,0.1-0.9,0.1
							C200.7,184.2,200.2,183.4,200.2,182.1z"/>
						<path d="M207.6,181.8c0-1.8,1.5-2.7,4.9-3.1c0-1-0.4-1.8-1.6-1.8c-0.9,0-1.7,0.4-2.4,0.8l-0.6-1.2c0.9-0.5,2-1.1,3.3-1.1
							c2.1,0,3,1.3,3,3.5v5h-1.4l-0.1-0.9l0,0c-0.8,0.6-1.6,1.1-2.6,1.1C208.6,184.2,207.6,183.3,207.6,181.8z M212.5,181.9v-2
							c-2.4,0.3-3.3,0.9-3.3,1.8c0,0.8,0.6,1.1,1.3,1.1C211.3,182.8,211.8,182.5,212.5,181.9z"/>
						<path d="M216.7,175.8h1.4l0.1,1.5l0,0c0.6-1.1,1.5-1.7,2.3-1.7c0.4,0,0.7,0.1,0.9,0.2l-0.3,1.5c-0.3-0.1-0.5-0.1-0.8-0.1
							c-0.7,0-1.5,0.5-2,1.8v5.1h-1.7v-8.3H216.7z"/>
						<path d="M223.1,181.3v-4.2h-1.2v-1.3l1.3-0.1l0.2-2.3h1.5v2.3h2.1v1.4h-2.1v4.2c0,1,0.3,1.5,1.2,1.5c0.3,0,0.6-0.1,0.9-0.2
							l0.3,1.3c-0.5,0.2-1,0.3-1.6,0.3C223.7,184.2,223.1,183,223.1,181.3z"/>
						<path d="M227.9,179.9c0-2.7,1.8-4.4,3.8-4.4c2.2,0,3.4,1.6,3.4,3.9c0,0.3,0,0.7-0.1,0.9h-5.4c0.1,1.6,1.1,2.5,2.5,2.5
							c0.7,0,1.4-0.2,2-0.6l0.6,1.1c-0.8,0.5-1.7,0.9-2.8,0.9C229.7,184.2,227.9,182.6,227.9,179.9z M233.6,179.1
							c0-1.4-0.6-2.2-1.8-2.2c-1,0-1.9,0.8-2.1,2.2H233.6z"/>
						<path d="M237,175.8h1.4l0.1,1.5l0,0c0.6-1.1,1.5-1.7,2.3-1.7c0.4,0,0.7,0.1,0.9,0.2l-0.3,1.5c-0.3-0.1-0.5-0.1-0.8-0.1
							c-0.7,0-1.5,0.5-2,1.8v5.1H237V175.8z"/>
						<path d="M242.9,173.2c0-0.6,0.5-1,1.1-1s1.1,0.4,1.1,1s-0.5,1-1.1,1C243.3,174.2,242.9,173.8,242.9,173.2z M243.1,175.8h1.7
							v8.2h-1.7V175.8z"/>
						<path d="M246.9,181.8c0-1.8,1.5-2.7,4.9-3.1c0-1-0.4-1.8-1.6-1.8c-0.9,0-1.7,0.4-2.4,0.8l-0.6-1.2c0.9-0.5,2-1.1,3.3-1.1
							c2.1,0,3,1.3,3,3.5v5h-1.4L252,183l0,0c-0.8,0.6-1.6,1.1-2.6,1.1C247.9,184.2,246.9,183.3,246.9,181.8z M251.9,181.9v-2
							c-2.4,0.3-3.3,0.9-3.3,1.8c0,0.8,0.6,1.1,1.3,1.1C250.6,182.8,251.2,182.5,251.9,181.9z"/>
						<path d="M256,182.1v-10h1.7v10.1c0,0.5,0.2,0.6,0.4,0.6c0.1,0,0.1,0,0.3,0l0.2,1.3c-0.2,0.1-0.5,0.1-0.9,0.1
							C256.5,184.2,256,183.4,256,182.1z"/>
						<path d="M263.3,179.9c0-2.7,1.7-4.4,3.5-4.4c0.9,0,1.5,0.4,2.2,0.9l-0.1-1.4v-3h1.7v12h-1.4l-0.1-0.9l0,0
							c-0.6,0.6-1.5,1.1-2.4,1.1C264.7,184.2,263.3,182.6,263.3,179.9z M269,181.8v-4c-0.6-0.6-1.2-0.8-1.8-0.8
							c-1.2,0-2.1,1.1-2.1,2.9c0,1.9,0.7,2.9,2,2.9C267.8,182.8,268.4,182.5,269,181.8z"/>
						<path d="M273.1,173.2c0-0.6,0.5-1,1.1-1s1.1,0.4,1.1,1s-0.5,1-1.1,1S273.1,173.8,273.1,173.2z M273.3,175.8h1.7v8.2h-1.7
							V175.8z"/>
						<path d="M276.8,183.1l0.8-1.1c0.7,0.6,1.5,0.9,2.3,0.9c1,0,1.5-0.5,1.5-1.1c0-0.8-0.9-1.1-1.8-1.4c-1.1-0.4-2.4-1-2.4-2.4
							s1.1-2.4,2.9-2.4c1.1,0,2,0.5,2.7,1l-0.8,1.1c-0.6-0.4-1.2-0.7-1.8-0.7c-0.9,0-1.3,0.5-1.3,1c0,0.7,0.9,1,1.8,1.3
							c1.2,0.4,2.4,0.9,2.4,2.5c0,1.4-1.1,2.5-3.1,2.5C278.7,184.2,277.6,183.7,276.8,183.1z"/>
						<path d="M284.3,179.9c0-2.7,1.8-4.4,3.8-4.4c2.2,0,3.4,1.6,3.4,3.9c0,0.3,0,0.7-0.1,0.9H286c0.1,1.6,1.1,2.5,2.5,2.5
							c0.7,0,1.4-0.2,2-0.6l0.6,1.1c-0.8,0.5-1.7,0.9-2.8,0.9C286,184.2,284.3,182.6,284.3,179.9z M289.9,179.1
							c0-1.4-0.6-2.2-1.8-2.2c-1,0-1.9,0.8-2.1,2.2H289.9z"/>
						<path d="M292.6,181.8c0-1.8,1.5-2.7,4.9-3.1c0-1-0.4-1.8-1.6-1.8c-0.9,0-1.7,0.4-2.4,0.8l-0.6-1.2c0.9-0.5,2-1.1,3.3-1.1
							c2.1,0,3,1.3,3,3.5v5h-1.4l-0.1-0.9l0,0c-0.8,0.6-1.6,1.1-2.6,1.1C293.6,184.2,292.6,183.3,292.6,181.8z M297.6,181.9v-2
							c-2.4,0.3-3.3,0.9-3.3,1.8c0,0.8,0.6,1.1,1.3,1.1S296.9,182.5,297.6,181.9z"/>
						<path d="M300.9,183.1l0.8-1.1c0.7,0.6,1.5,0.9,2.3,0.9c1,0,1.5-0.5,1.5-1.1c0-0.8-0.9-1.1-1.8-1.4c-1.1-0.4-2.4-1-2.4-2.4
							s1.1-2.4,2.9-2.4c1.1,0,2,0.5,2.7,1l-0.8,1.1c-0.6-0.4-1.2-0.7-1.8-0.7c-0.9,0-1.3,0.5-1.3,1c0,0.7,0.9,1,1.8,1.3
							c1.2,0.4,2.4,0.9,2.4,2.5c0,1.4-1.1,2.5-3.1,2.5C302.8,184.2,301.6,183.7,300.9,183.1z"/>
						<path d="M308.3,179.9c0-2.7,1.8-4.4,3.8-4.4c2.2,0,3.4,1.6,3.4,3.9c0,0.3,0,0.7-0.1,0.9H310c0.1,1.6,1.1,2.5,2.5,2.5
							c0.7,0,1.4-0.2,2-0.6l0.6,1.1c-0.8,0.5-1.7,0.9-2.8,0.9C310.1,184.2,308.3,182.6,308.3,179.9z M314,179.1
							c0-1.4-0.6-2.2-1.8-2.2c-1,0-2,0.8-2.1,2.2H314z"/>
						<path d="M316.9,186c1-0.4,1.6-1.2,1.6-2.1c-0.1,0-0.1,0-0.2,0c-0.6,0-1.2-0.4-1.2-1.1c0-0.7,0.5-1.1,1.2-1.1
							c0.8,0,1.3,0.7,1.3,1.9c0,1.6-0.9,2.8-2.5,3.4L316.9,186z"/>
					</g>
					<text transform="matrix(1 0 0 1 320.5627 183.9999)" class="st3 st4"> </text>
					<g class="st1">
						<path d="M35.9,201.9c0-2.8,1.9-4.4,4.1-4.4c1,0,1.8,0.4,2.4,0.9l-0.9,1.1c-0.5-0.4-0.9-0.6-1.5-0.6c-1.4,0-2.4,1.2-2.4,2.9
							s0.9,2.9,2.3,2.9c0.7,0,1.3-0.3,1.8-0.8l0.7,1.1c-0.7,0.7-1.7,1-2.7,1C37.6,206.2,35.9,204.6,35.9,201.9z"/>
						<path d="M44.2,204.1v-10h1.7v10.1c0,0.5,0.2,0.6,0.4,0.6c0.1,0,0.1,0,0.3,0l0.2,1.3c-0.2,0.1-0.5,0.1-0.9,0.1
							C44.7,206.2,44.2,205.4,44.2,204.1z"/>
						<path d="M48.2,203.8c0-1.8,1.5-2.7,4.9-3.1c0-1-0.4-1.8-1.6-1.8c-0.9,0-1.7,0.4-2.4,0.8l-0.6-1.2c0.9-0.5,2-1.1,3.3-1.1
							c2.1,0,3,1.3,3,3.5v5h-1.4l-0.1-0.9l0,0c-0.8,0.6-1.6,1.1-2.6,1.1C49.2,206.2,48.2,205.3,48.2,203.8z M53.1,203.9v-2
							c-2.4,0.3-3.3,0.9-3.3,1.8c0,0.8,0.6,1.1,1.3,1.1C51.9,204.8,52.5,204.5,53.1,203.9z"/>
						<path d="M57.2,202.9v-5.2h1.7v5c0,1.4,0.4,2,1.4,2c0.8,0,1.3-0.4,2-1.2v-5.7H64v8.2h-1.4l-0.1-1.2l0,0
							c-0.8,0.9-1.6,1.4-2.7,1.4C58,206.2,57.2,205,57.2,202.9z"/>
						<path d="M66.1,201.9c0-2.7,1.7-4.4,3.5-4.4c0.9,0,1.5,0.4,2.2,0.9l-0.1-1.4v-3h1.7v12H72l-0.1-0.9l0,0
							c-0.6,0.6-1.5,1.1-2.4,1.1C67.4,206.2,66.1,204.6,66.1,201.9z M71.7,203.8v-4c-0.6-0.6-1.2-0.8-1.8-0.8
							c-1.2,0-2.1,1.1-2.1,2.9c0,1.9,0.7,2.9,2,2.9C70.6,204.8,71.1,204.5,71.7,203.8z"/>
						<path d="M75.8,195.2c0-0.6,0.5-1,1.1-1s1.1,0.4,1.1,1s-0.5,1-1.1,1S75.8,195.8,75.8,195.2z M76.1,197.8h1.7v8.2h-1.7V197.8z"
							/>
						<path d="M79.8,201.9c0-2.8,1.9-4.4,4.1-4.4c1,0,1.8,0.4,2.4,0.9l-0.9,1.1c-0.5-0.4-0.9-0.6-1.5-0.6c-1.4,0-2.4,1.2-2.4,2.9
							s0.9,2.9,2.3,2.9c0.7,0,1.3-0.3,1.8-0.8l0.7,1.1c-0.7,0.7-1.7,1-2.7,1C81.5,206.2,79.8,204.6,79.8,201.9z"/>
						<path d="M87.5,203.8c0-1.8,1.5-2.7,4.9-3.1c0-1-0.4-1.8-1.6-1.8c-0.9,0-1.7,0.4-2.4,0.8l-0.6-1.2c0.9-0.5,2-1.1,3.3-1.1
							c2.1,0,3,1.3,3,3.5v5h-1.4l-0.1-0.9l0,0c-0.8,0.6-1.6,1.1-2.6,1.1C88.5,206.2,87.5,205.3,87.5,203.8z M92.4,203.9v-2
							c-2.4,0.3-3.3,0.9-3.3,1.8c0,0.8,0.6,1.1,1.3,1.1C91.1,204.8,91.7,204.5,92.4,203.9z"/>
						<path d="M96.6,203.3v-4.2h-1.2v-1.3l1.3-0.1l0.2-2.3h1.5v2.3h2.1v1.4h-2.1v4.2c0,1,0.3,1.5,1.2,1.5c0.3,0,0.6-0.1,0.9-0.2
							l0.3,1.3c-0.5,0.2-1,0.3-1.6,0.3C97.2,206.2,96.6,205,96.6,203.3z"/>
						<path d="M102,195.2c0-0.6,0.5-1,1.1-1s1.1,0.4,1.1,1s-0.5,1-1.1,1S102,195.8,102,195.2z M102.3,197.8h1.7v8.2h-1.7V197.8z"/>
						<path d="M106,201.9c0-2.8,1.8-4.4,3.9-4.4c2,0,3.9,1.6,3.9,4.4c0,2.7-1.8,4.3-3.9,4.3S106,204.6,106,201.9z M112,201.9
							c0-1.8-0.8-2.9-2.1-2.9c-1.3,0-2.1,1.2-2.1,2.9s0.8,2.9,2.1,2.9C111.2,204.8,112,203.6,112,201.9z"/>
						<path d="M115.8,197.8h1.4l0.1,1.1l0,0c0.8-0.7,1.6-1.4,2.7-1.4c1.8,0,2.5,1.2,2.5,3.3v5.2h-1.7v-5c0-1.4-0.4-2-1.4-2
							c-0.8,0-1.3,0.4-2,1.1v5.8h-1.7L115.8,197.8L115.8,197.8z"/>
						<path d="M124.6,208c1-0.4,1.6-1.2,1.6-2.1c-0.1,0-0.1,0-0.2,0c-0.6,0-1.2-0.4-1.2-1.1c0-0.7,0.5-1.1,1.2-1.1
							c0.8,0,1.3,0.7,1.3,1.9c0,1.6-0.9,2.8-2.5,3.4L124.6,208z"/>
						<path d="M132.4,201.9c0-2.8,1.9-4.4,4.1-4.4c1,0,1.8,0.4,2.4,0.9l-0.9,1.1c-0.5-0.4-0.9-0.6-1.5-0.6c-1.4,0-2.4,1.2-2.4,2.9
							s0.9,2.9,2.3,2.9c0.7,0,1.3-0.3,1.8-0.8l0.7,1.1c-0.7,0.7-1.7,1-2.7,1C134.1,206.2,132.4,204.6,132.4,201.9z"/>
						<path d="M139.8,201.9c0-2.8,1.8-4.4,3.9-4.4c2,0,3.9,1.6,3.9,4.4c0,2.7-1.8,4.3-3.9,4.3S139.8,204.6,139.8,201.9z
							 M145.8,201.9c0-1.8-0.8-2.9-2.1-2.9s-2.1,1.2-2.1,2.9s0.8,2.9,2.1,2.9C145,204.8,145.8,203.6,145.8,201.9z"/>
						<path d="M149.6,197.8h1.4l0.1,1.5l0,0c0.6-1.1,1.5-1.7,2.3-1.7c0.4,0,0.7,0.1,0.9,0.2l-0.3,1.5c-0.3-0.1-0.5-0.1-0.8-0.1
							c-0.7,0-1.5,0.5-2,1.8v5.1h-1.7v-8.3H149.6z"/>
						<path d="M154.9,201.9c0-2.8,1.8-4.4,3.9-4.4c2,0,3.9,1.6,3.9,4.4c0,2.7-1.8,4.3-3.9,4.3C156.8,206.2,154.9,204.6,154.9,201.9z
							 M160.9,201.9c0-1.8-0.8-2.9-2.1-2.9s-2.1,1.2-2.1,2.9s0.8,2.9,2.1,2.9C160.1,204.8,160.9,203.6,160.9,201.9z"/>
						<path d="M164.7,197.8h1.4l0.1,1.1l0,0c0.8-0.7,1.6-1.4,2.7-1.4c1.8,0,2.5,1.2,2.5,3.3v5.2h-1.7v-5c0-1.4-0.4-2-1.4-2
							c-0.8,0-1.3,0.4-2,1.1v5.8h-1.7L164.7,197.8L164.7,197.8z"/>
						<path d="M173.6,203.8c0-1.8,1.5-2.7,4.9-3.1c0-1-0.4-1.8-1.6-1.8c-0.9,0-1.7,0.4-2.4,0.8l-0.6-1.2c0.9-0.5,2-1.1,3.3-1.1
							c2.1,0,3,1.3,3,3.5v5h-1.4l-0.2-0.9l0,0c-0.8,0.6-1.6,1.1-2.6,1.1C174.6,206.2,173.6,205.3,173.6,203.8z M178.6,203.9v-2
							c-2.4,0.3-3.3,0.9-3.3,1.8c0,0.8,0.6,1.1,1.3,1.1S177.9,204.5,178.6,203.9z"/>
						<path d="M182.7,197.8h1.4l0.1,1.5l0,0c0.6-1.1,1.5-1.7,2.3-1.7c0.4,0,0.7,0.1,0.9,0.2l-0.3,1.5c-0.3-0.1-0.5-0.1-0.8-0.1
							c-0.7,0-1.5,0.5-2,1.8v5.1h-1.7v-8.3H182.7z"/>
						<path d="M192.8,206.5c-0.6,1.8-1.5,3-3.3,3c-0.4,0-0.8-0.1-1-0.2l0.3-1.4c0.2,0,0.4,0.1,0.6,0.1c0.9,0,1.4-0.7,1.7-1.5
							l0.2-0.6l-3.3-8.2h1.8l1.5,4.2c0.2,0.7,0.5,1.6,0.8,2.3h0.1l0.6-2.3l1.3-4.2h1.7L192.8,206.5z"/>
						<path d="M200.2,203.8c0-1.8,1.5-2.7,4.9-3.1c0-1-0.4-1.8-1.6-1.8c-0.9,0-1.7,0.4-2.4,0.8l-0.6-1.2c0.9-0.5,2-1.1,3.3-1.1
							c2.1,0,3,1.3,3,3.5v5h-1.4l-0.1-0.9l0,0c-0.8,0.6-1.6,1.1-2.6,1.1C201.2,206.2,200.2,205.3,200.2,203.8z M205.2,203.9v-2
							c-2.4,0.3-3.3,0.9-3.3,1.8c0,0.8,0.6,1.1,1.3,1.1S204.5,204.5,205.2,203.9z"/>
						<path d="M209.3,197.8h1.4l0.1,1.5l0,0c0.6-1.1,1.5-1.7,2.3-1.7c0.4,0,0.7,0.1,0.9,0.2l-0.3,1.5c-0.3-0.1-0.5-0.1-0.8-0.1
							c-0.7,0-1.5,0.5-2,1.8v5.1h-1.7v-8.3H209.3z"/>
						<path d="M215.8,203.3v-4.2h-1.2v-1.3l1.3-0.1l0.2-2.3h1.5v2.3h2.1v1.4h-2.1v4.2c0,1,0.3,1.5,1.2,1.5c0.3,0,0.6-0.1,0.9-0.2
							l0.3,1.3c-0.5,0.2-1,0.3-1.6,0.3C216.4,206.2,215.8,205,215.8,203.3z"/>
						<path d="M220.6,201.9c0-2.7,1.8-4.4,3.8-4.4c2.2,0,3.4,1.6,3.4,3.9c0,0.3,0,0.7-0.1,0.9h-5.4c0.1,1.6,1.1,2.5,2.5,2.5
							c0.7,0,1.4-0.2,2-0.6l0.6,1.1c-0.8,0.5-1.7,0.9-2.8,0.9C222.4,206.2,220.6,204.6,220.6,201.9z M226.2,201.1
							c0-1.4-0.6-2.2-1.8-2.2c-1,0-1.9,0.8-2.1,2.2H226.2z"/>
						<path d="M229.6,197.8h1.4l0.1,1.5l0,0c0.6-1.1,1.5-1.7,2.3-1.7c0.4,0,0.7,0.1,0.9,0.2l-0.3,1.5c-0.3-0.1-0.5-0.1-0.8-0.1
							c-0.7,0-1.5,0.5-2,1.8v5.1h-1.7v-8.3H229.6z"/>
						<path d="M239.7,206.5c-0.6,1.8-1.5,3-3.3,3c-0.4,0-0.8-0.1-1-0.2l0.3-1.4c0.1,0,0.4,0.1,0.6,0.1c0.9,0,1.4-0.7,1.7-1.5
							l0.2-0.6l-3.3-8.2h1.8l1.5,4.2c0.2,0.7,0.5,1.6,0.8,2.3h0.1l0.6-2.3l1.3-4.2h1.7L239.7,206.5z"/>
						<path d="M247.1,201.9c0-2.7,1.7-4.4,3.5-4.4c0.9,0,1.5,0.4,2.2,0.9l-0.1-1.4v-3h1.7v12H253l-0.1-0.9l0,0
							c-0.6,0.6-1.5,1.1-2.4,1.1C248.4,206.2,247.1,204.6,247.1,201.9z M252.8,203.8v-4c-0.6-0.6-1.2-0.8-1.8-0.8
							c-1.2,0-2.1,1.1-2.1,2.9c0,1.9,0.7,2.9,2,2.9C251.6,204.8,252.2,204.5,252.8,203.8z"/>
						<path d="M256.9,195.2c0-0.6,0.5-1,1.1-1s1.1,0.4,1.1,1s-0.5,1-1.1,1S256.9,195.8,256.9,195.2z M257.1,197.8h1.7v8.2h-1.7
							V197.8z"/>
						<path d="M260.5,205.1l0.8-1.1c0.7,0.6,1.5,0.9,2.3,0.9c1,0,1.5-0.5,1.5-1.1c0-0.8-0.9-1.1-1.8-1.4c-1.1-0.4-2.4-1-2.4-2.4
							s1.1-2.4,2.9-2.4c1.1,0,2,0.5,2.7,1l-0.8,1.1c-0.6-0.4-1.2-0.7-1.8-0.7c-0.9,0-1.3,0.5-1.3,1c0,0.7,0.9,1,1.8,1.3
							c1.2,0.4,2.4,0.9,2.4,2.5c0,1.4-1.1,2.5-3.1,2.5C262.5,206.2,261.3,205.7,260.5,205.1z"/>
						<path d="M268,201.9c0-2.7,1.8-4.4,3.8-4.4c2.2,0,3.4,1.6,3.4,3.9c0,0.3,0,0.7-0.1,0.9h-5.4c0.1,1.6,1.1,2.5,2.5,2.5
							c0.7,0,1.4-0.2,2-0.6l0.6,1.1c-0.8,0.5-1.7,0.9-2.8,0.9C269.8,206.2,268,204.6,268,201.9z M273.7,201.1c0-1.4-0.6-2.2-1.8-2.2
							c-1,0-1.9,0.8-2.1,2.2H273.7z"/>
						<path d="M276.4,203.8c0-1.8,1.5-2.7,4.9-3.1c0-1-0.4-1.8-1.6-1.8c-0.9,0-1.7,0.4-2.4,0.8l-0.6-1.2c0.9-0.5,2-1.1,3.3-1.1
							c2.1,0,3,1.3,3,3.5v5h-1.4l-0.2-0.9l0,0c-0.8,0.6-1.6,1.1-2.6,1.1C277.4,206.2,276.4,205.3,276.4,203.8z M281.3,203.9v-2
							c-2.4,0.3-3.3,0.9-3.3,1.8c0,0.8,0.6,1.1,1.3,1.1C280,204.8,280.6,204.5,281.3,203.9z"/>
						<path d="M284.6,205.1l0.8-1.1c0.7,0.6,1.5,0.9,2.3,0.9c1,0,1.5-0.5,1.5-1.1c0-0.8-0.9-1.1-1.8-1.4c-1.1-0.4-2.4-1-2.4-2.4
							s1.1-2.4,2.9-2.4c1.1,0,2,0.5,2.7,1l-0.8,1.1c-0.6-0.4-1.2-0.7-1.8-0.7c-0.9,0-1.3,0.5-1.3,1c0,0.7,0.9,1,1.8,1.3
							c1.2,0.4,2.4,0.9,2.4,2.5c0,1.4-1.1,2.5-3.1,2.5C286.6,206.2,285.4,205.7,284.6,205.1z"/>
						<path d="M292.1,201.9c0-2.7,1.8-4.4,3.8-4.4c2.2,0,3.4,1.6,3.4,3.9c0,0.3,0,0.7-0.1,0.9h-5.4c0.1,1.6,1.1,2.5,2.5,2.5
							c0.7,0,1.4-0.2,2-0.6l0.6,1.1c-0.8,0.5-1.7,0.9-2.8,0.9C293.9,206.2,292.1,204.6,292.1,201.9z M297.7,201.1
							c0-1.4-0.6-2.2-1.8-2.2c-1,0-2,0.8-2.1,2.2H297.7z"/>
					</g>
					<g class="st1">
						<path d="M150.2,73.6h1.8l0.1,0.9h0.1c0.7-0.6,1.6-1.1,2.5-1.1c2.1,0,3.3,1.7,3.3,4.3c0,2.9-1.7,4.5-3.6,4.5
							c-0.7,0-1.4-0.3-2.1-0.9l0.1,1.4v2.5h-2.2L150.2,73.6L150.2,73.6z M155.7,77.7c0-1.6-0.5-2.5-1.7-2.5c-0.6,0-1.1,0.3-1.7,0.9
							v3.7c0.5,0.5,1.1,0.6,1.5,0.6C154.9,80.4,155.7,79.5,155.7,77.7z"/>
						<path d="M160,70.9h2.2V82H160V70.9z"/>
						<path d="M165,70.9h2.2v4.8l0,0l3.7-4.8h2.4l-3.4,4.4l4,6.7h-2.4l-2.9-5l-1.5,1.9V82H165V70.9z"/>
						<path d="M174.3,76.4c0-3.6,2-5.7,5-5.7c2.9,0,5,2.1,5,5.7s-2,5.8-5,5.8C176.3,82.2,174.3,80,174.3,76.4z M181.9,76.4
							c0-2.4-1-3.8-2.7-3.8s-2.7,1.4-2.7,3.8s1.1,3.9,2.7,3.9C180.9,80.3,181.9,78.8,181.9,76.4z"/>
					</g>
					<path id="divider" class="st5" d="M0,241h334"/>
				</g>
				<g id="cell2" transform="translate(0.000000, 272.000000)">
					<g>
						<path class="st0" d="M8,0h318c4.4,0,8,3.6,8,8v34c0,4.4-3.6,8-8,8H8c-4.4,0-8-3.6-8-8V8C0,3.6,3.6,0,8,0z"/>
						<g class="st1">
							<path class="st2" d="M136.4,19.9h3.6c2.5,0,4.3,0.9,4.3,3.5c0,2.5-1.9,3.7-4.3,3.7h-1.5V31h-2.2L136.4,19.9L136.4,19.9z
								 M139.9,25.3c1.5,0,2.3-0.6,2.3-1.9s-0.8-1.7-2.3-1.7h-1.3v3.6H139.9z"/>
							<path class="st2" d="M146.2,22.6h1.8l0.1,1.5h0.1c0.6-1.1,1.5-1.7,2.4-1.7c0.5,0,0.7,0.1,1,0.2l-0.4,1.9
								c-0.3-0.1-0.5-0.1-0.9-0.1c-0.7,0-1.5,0.4-1.9,1.7v5h-2.2L146.2,22.6L146.2,22.6z"/>
							<path class="st2" d="M152,26.8c0-2.8,1.9-4.4,4-4.4s4,1.6,4,4.4s-1.9,4.4-4,4.4S152,29.6,152,26.8z M157.8,26.8
								c0-1.6-0.6-2.6-1.8-2.6s-1.8,1-1.8,2.6s0.6,2.6,1.8,2.6S157.8,28.4,157.8,26.8z"/>
							<path class="st2" d="M161.4,32.5c0-0.7,0.4-1.3,1.2-1.7v-0.1c-0.4-0.3-0.8-0.7-0.8-1.4c0-0.6,0.4-1.2,0.9-1.6v-0.1
								c-0.6-0.4-1.1-1.2-1.1-2.2c0-2,1.6-3,3.4-3c0.5,0,0.9,0.1,1.3,0.2h3v1.6h-1.4c0.2,0.3,0.4,0.8,0.4,1.3c0,1.9-1.4,2.8-3.2,2.8
								c-0.3,0-0.7-0.1-1.1-0.2c-0.2,0.2-0.4,0.4-0.4,0.7c0,0.5,0.3,0.7,1.3,0.7h1.4c2,0,3.1,0.6,3.1,2.1c0,1.7-1.8,3-4.6,3
								C162.9,34.6,161.4,34,161.4,32.5z M167.4,32c0-0.6-0.5-0.8-1.4-0.8h-1c-0.5,0-0.9,0-1.2-0.1c-0.4,0.3-0.6,0.6-0.6,1
								c0,0.7,0.8,1.1,2,1.1C166.5,33.2,167.4,32.7,167.4,32z M166.3,25.4c0-1-0.6-1.5-1.3-1.5s-1.3,0.6-1.3,1.5
								c0,1,0.6,1.5,1.3,1.5S166.3,26.4,166.3,25.4z"/>
							<path class="st2" d="M170.9,22.6h1.8l0.1,1.5h0.1c0.6-1.1,1.5-1.7,2.4-1.7c0.5,0,0.7,0.1,1,0.2l-0.4,1.9
								c-0.3-0.1-0.5-0.1-0.9-0.1c-0.7,0-1.5,0.4-1.9,1.7v5h-2.2L170.9,22.6L170.9,22.6z"/>
							<path class="st2" d="M176.5,28.7c0-1.8,1.5-2.7,4.8-3.1c0-0.8-0.4-1.5-1.4-1.5c-0.8,0-1.5,0.3-2.3,0.8l-0.8-1.5
								c1-0.6,2.2-1.1,3.5-1.1c2.1,0,3.2,1.3,3.2,3.7v5h-1.8l-0.2-0.9l0,0c-0.7,0.6-1.6,1.1-2.5,1.1
								C177.5,31.2,176.5,30.1,176.5,28.7z M181.4,28.7V27c-2,0.3-2.7,0.8-2.7,1.6c0,0.7,0.5,0.9,1.1,0.9
								C180.4,29.5,180.9,29.2,181.4,28.7z"/>
							<path class="st2" d="M185.8,22.6h1.8l0.1,1.1h0.1c0.7-0.7,1.5-1.3,2.6-1.3c1.2,0,1.9,0.5,2.3,1.5c0.8-0.8,1.6-1.5,2.7-1.5
								c1.8,0,2.6,1.3,2.6,3.4V31h-2.2v-5c0-1.3-0.4-1.8-1.2-1.8c-0.5,0-1,0.3-1.6,0.9V31h-2.2v-5c0-1.3-0.4-1.8-1.2-1.8
								c-0.5,0-1,0.3-1.6,0.9V31h-2.2L185.8,22.6L185.8,22.6z"/>
						</g>
					</g>
					<g transform="translate(0.000000, 102.000000)">
						<path class="st0" d="M8,0h318c4.4,0,8,3.6,8,8v34c0,4.4-3.6,8-8,8H8c-4.4,0-8-3.6-8-8V8C0,3.6,3.6,0,8,0z"/>
						<g class="st1">
							<path class="st2" d="M107.6,21.7h-3.1v-1.8h8.5v1.8h-3.1V31h-2.2v-9.3H107.6z"/>
							<path class="st2" d="M114.6,19h2.2v3l-0.1,1.6c0.7-0.6,1.5-1.2,2.6-1.2c1.8,0,2.6,1.3,2.6,3.4V31h-2.2v-5
								c0-1.3-0.4-1.8-1.2-1.8c-0.7,0-1.1,0.3-1.8,0.9V31h-2.2L114.6,19L114.6,19z"/>
							<path class="st2" d="M123.6,26.8c0-2.7,1.9-4.4,3.9-4.4c2.3,0,3.5,1.7,3.5,4c0,0.4,0,0.8-0.1,1h-5.2c0.2,1.4,1.1,2.1,2.3,2.1
								c0.7,0,1.3-0.2,1.9-0.6l0.8,1.4c-0.8,0.6-1.9,0.9-2.9,0.9C125.5,31.2,123.6,29.6,123.6,26.8z M129.2,26
								c0-1.1-0.5-1.9-1.6-1.9c-0.9,0-1.7,0.6-1.8,1.9H129.2z"/>
							<path class="st2" d="M132.9,22.6h1.8l0.1,1.5h0.1c0.6-1.1,1.5-1.7,2.4-1.7c0.5,0,0.7,0.1,1,0.2l-0.4,1.9
								c-0.3-0.1-0.5-0.1-0.9-0.1c-0.7,0-1.5,0.4-1.9,1.7v5h-2.2L132.9,22.6L132.9,22.6z"/>
							<path class="st2" d="M138.5,28.7c0-1.8,1.5-2.7,4.8-3.1c0-0.8-0.4-1.5-1.4-1.5c-0.8,0-1.5,0.3-2.3,0.8l-0.8-1.5
								c1-0.6,2.2-1.1,3.5-1.1c2.1,0,3.2,1.3,3.2,3.7v5h-1.8l-0.2-0.9l0,0c-0.7,0.6-1.6,1.1-2.5,1.1
								C139.5,31.2,138.5,30.1,138.5,28.7z M143.4,28.7V27c-2,0.3-2.7,0.8-2.7,1.6c0,0.7,0.5,0.9,1.1,0.9
								C142.4,29.5,142.8,29.2,143.4,28.7z"/>
							<path class="st2" d="M147.8,22.6h1.8l0.1,0.9h0.1c0.7-0.6,1.6-1.1,2.5-1.1c2.1,0,3.3,1.7,3.3,4.3c0,2.9-1.7,4.5-3.6,4.5
								c-0.7,0-1.4-0.3-2.1-0.9l0.1,1.4v2.5h-2.2L147.8,22.6L147.8,22.6z M153.3,26.7c0-1.6-0.5-2.5-1.7-2.5c-0.6,0-1.1,0.3-1.7,0.9
								v3.7c0.5,0.5,1.1,0.6,1.5,0.6C152.6,29.4,153.3,28.5,153.3,26.7z"/>
							<path class="st2" d="M156.9,26.8c0-2.7,1.9-4.4,3.9-4.4c2.3,0,3.5,1.7,3.5,4c0,0.4,0,0.8-0.1,1H159c0.2,1.4,1.1,2.1,2.3,2.1
								c0.7,0,1.3-0.2,1.9-0.6l0.8,1.4c-0.8,0.6-1.9,0.9-2.9,0.9C158.8,31.2,156.9,29.6,156.9,26.8z M162.5,26
								c0-1.1-0.5-1.9-1.6-1.9c-0.9,0-1.7,0.6-1.8,1.9H162.5z"/>
							<path class="st2" d="M166.1,27.9v-5.2h2.2v5c0,1.3,0.4,1.8,1.2,1.8c0.7,0,1.1-0.3,1.7-1v-5.7h2.2V31h-1.8l-0.2-1.2h-0.1
								c-0.7,0.9-1.5,1.4-2.7,1.4C166.9,31.2,166.1,30,166.1,27.9z"/>
							<path class="st2" d="M176.1,28.1v-3.7h-1.2v-1.6l1.3-0.1l0.3-2.2h1.8v2.2h2.1v1.7h-2.1v3.7c0,1,0.4,1.4,1.1,1.4
								c0.3,0,0.6-0.1,0.8-0.2l0.4,1.6c-0.5,0.2-1,0.3-1.8,0.3C176.8,31.2,176.1,30,176.1,28.1z"/>
							<path class="st2" d="M181.8,20.1c0-0.7,0.6-1.2,1.3-1.2c0.8,0,1.3,0.5,1.3,1.2s-0.6,1.2-1.3,1.2
								C182.4,21.2,181.8,20.7,181.8,20.1z M182,22.6h2.2V31H182V22.6z"/>
							<path class="st2" d="M186.1,26.8c0-2.8,2-4.4,4.3-4.4c1,0,1.8,0.4,2.4,0.9l-1.1,1.4c-0.4-0.4-0.8-0.6-1.3-0.6
								c-1.3,0-2.1,1-2.1,2.6s0.9,2.6,2.1,2.6c0.6,0,1.2-0.3,1.6-0.7l0.9,1.5c-0.8,0.7-1.8,1-2.7,1
								C187.8,31.2,186.1,29.6,186.1,26.8z"/>
							<path class="st2" d="M203.3,28.2h-3.6l-0.8,2.8h-2.2l3.6-11.1h2.6l3.6,11.1h-2.3L203.3,28.2z M202.8,26.4l-0.3-1.2
								c-0.3-1.2-0.6-2.4-1-3.6h-0.1c-0.3,1.2-0.6,2.5-0.9,3.6l-0.3,1.2H202.8z"/>
							<path class="st2" d="M207.5,22.6h1.8l0.2,1.5h0.1c0.6-1.1,1.5-1.7,2.4-1.7c0.5,0,0.7,0.1,1,0.2l-0.4,1.9
								c-0.3-0.1-0.5-0.1-0.9-0.1c-0.7,0-1.5,0.4-1.9,1.7v5h-2.2v-8.5H207.5z"/>
							<path class="st2" d="M213.4,26.8c0-2.7,1.9-4.4,3.9-4.4c2.3,0,3.5,1.7,3.5,4c0,0.4,0,0.8-0.1,1h-5.2c0.2,1.4,1.1,2.1,2.3,2.1
								c0.7,0,1.3-0.2,1.9-0.6l0.8,1.4c-0.8,0.6-1.9,0.9-2.9,0.9C215.2,31.2,213.4,29.6,213.4,26.8z M218.9,26
								c0-1.1-0.5-1.9-1.6-1.9c-0.9,0-1.7,0.6-1.8,1.9H218.9z"/>
							<path class="st2" d="M222,28.7c0-1.8,1.5-2.7,4.8-3.1c0-0.8-0.4-1.5-1.4-1.5c-0.8,0-1.5,0.3-2.3,0.8l-0.8-1.5
								c1-0.6,2.2-1.1,3.5-1.1c2.1,0,3.2,1.3,3.2,3.7v5h-1.8l-0.2-0.9l0,0c-0.7,0.6-1.6,1.1-2.5,1.1C223,31.2,222,30.1,222,28.7z
								 M226.8,28.7V27c-2,0.3-2.7,0.8-2.7,1.6c0,0.7,0.5,0.9,1.1,0.9C225.8,29.5,226.3,29.2,226.8,28.7z"/>
						</g>
					</g>
					<g class="st1">
						<path d="M60.4,175.8h1.4l0.1,1.2l0,0c0.7-0.8,1.5-1.4,2.5-1.4c1.2,0,1.9,0.6,2.3,1.5c0.8-0.9,1.6-1.5,2.7-1.5
							c1.7,0,2.5,1.2,2.5,3.3v5.2h-1.7v-5c0-1.4-0.5-2-1.4-2c-0.6,0-1.2,0.4-1.9,1.1v5.8h-1.7v-5c0-1.4-0.4-2-1.4-2
							c-0.6,0-1.2,0.4-1.9,1.1v5.8h-1.7v-8.1H60.4z"/>
						<path d="M74.4,180.9v-5.2h1.7v5c0,1.4,0.4,2,1.4,2c0.8,0,1.3-0.4,2-1.2v-5.7h1.7v8.2h-1.4l-0.1-1.2l0,0
							c-0.8,0.9-1.6,1.4-2.7,1.4C75.2,184.2,74.4,183,74.4,180.9z"/>
						<path d="M82.9,183.1l0.8-1.1c0.7,0.6,1.5,0.9,2.3,0.9c1,0,1.5-0.5,1.5-1.1c0-0.8-0.9-1.1-1.8-1.4c-1.1-0.4-2.4-1-2.4-2.4
							s1.1-2.4,2.9-2.4c1.1,0,2,0.5,2.7,1l-0.8,1.1c-0.6-0.4-1.2-0.7-1.8-0.7c-0.9,0-1.3,0.5-1.3,1c0,0.7,0.9,1,1.8,1.3
							c1.2,0.4,2.4,0.9,2.4,2.5c0,1.4-1.1,2.5-3.1,2.5C84.9,184.2,83.7,183.7,82.9,183.1z"/>
						<path d="M90.4,179.9c0-2.8,1.9-4.4,4.1-4.4c1,0,1.8,0.4,2.4,0.9l-0.9,1.1c-0.5-0.4-0.9-0.6-1.5-0.6c-1.4,0-2.4,1.2-2.4,2.9
							s0.9,2.9,2.3,2.9c0.7,0,1.3-0.3,1.8-0.8l0.7,1.1c-0.7,0.7-1.7,1-2.7,1C92.1,184.2,90.4,182.6,90.4,179.9z"/>
						<path d="M98.6,180.9v-5.2h1.7v5c0,1.4,0.4,2,1.4,2c0.8,0,1.3-0.4,2-1.2v-5.7h1.7v8.2H104l-0.1-1.2l0,0
							c-0.8,0.9-1.6,1.4-2.7,1.4C99.4,184.2,98.6,183,98.6,180.9z"/>
						<path d="M108,182.1v-10h1.7v10.1c0,0.5,0.2,0.6,0.4,0.6c0.1,0,0.1,0,0.3,0l0.2,1.3c-0.2,0.1-0.5,0.1-0.9,0.1
							C108.5,184.2,108,183.4,108,182.1z"/>
						<path d="M112,181.8c0-1.8,1.5-2.7,4.9-3.1c0-1-0.4-1.8-1.6-1.8c-0.9,0-1.7,0.4-2.4,0.8l-0.6-1.2c0.9-0.5,2-1.1,3.3-1.1
							c2.1,0,3,1.3,3,3.5v5h-1.4l-0.1-0.9l0,0c-0.8,0.6-1.6,1.1-2.6,1.1C113,184.2,112,183.3,112,181.8z M117,181.9v-2
							c-2.4,0.3-3.3,0.9-3.3,1.8c0,0.8,0.6,1.1,1.3,1.1C115.7,182.8,116.3,182.5,117,181.9z"/>
						<path d="M121.1,175.8h1.4l0.1,1.5l0,0c0.6-1.1,1.5-1.7,2.3-1.7c0.4,0,0.7,0.1,0.9,0.2l-0.3,1.5c-0.3-0.1-0.5-0.1-0.8-0.1
							c-0.7,0-1.5,0.5-2,1.8v5.1H121L121.1,175.8L121.1,175.8z"/>
						<path d="M130.2,181.8c0-1.8,1.5-2.7,4.9-3.1c0-1-0.4-1.8-1.6-1.8c-0.9,0-1.7,0.4-2.4,0.8l-0.6-1.2c0.9-0.5,2-1.1,3.3-1.1
							c2.1,0,3,1.3,3,3.5v5h-1.4l-0.1-0.9l0,0c-0.8,0.6-1.6,1.1-2.6,1.1C131.2,184.2,130.2,183.3,130.2,181.8z M135.1,181.9v-2
							c-2.4,0.3-3.3,0.9-3.3,1.8c0,0.8,0.6,1.1,1.3,1.1S134.4,182.5,135.1,181.9z"/>
						<path d="M139.3,181.3v-4.2h-1.2v-1.3l1.3-0.1l0.2-2.3h1.5v2.3h2.1v1.4H141v4.2c0,1,0.3,1.5,1.2,1.5c0.3,0,0.6-0.1,0.9-0.2
							l0.3,1.3c-0.5,0.2-1,0.3-1.6,0.3C139.9,184.2,139.3,183,139.3,181.3z"/>
						<path d="M145,175.8h1.4l0.1,1.5l0,0c0.6-1.1,1.5-1.7,2.3-1.7c0.4,0,0.7,0.1,0.9,0.2l-0.3,1.5c-0.3-0.1-0.5-0.1-0.8-0.1
							c-0.7,0-1.5,0.5-2,1.8v5.1H145V175.8z"/>
						<path d="M150.3,179.9c0-2.8,1.8-4.4,3.9-4.4c2,0,3.9,1.6,3.9,4.4c0,2.7-1.8,4.3-3.9,4.3C152.2,184.2,150.3,182.6,150.3,179.9z
							 M156.3,179.9c0-1.8-0.8-2.9-2.1-2.9s-2.1,1.2-2.1,2.9s0.8,2.9,2.1,2.9C155.5,182.8,156.3,181.6,156.3,179.9z"/>
						<path d="M160.1,175.8h1.4l0.1,0.9l0,0c0.7-0.6,1.6-1.1,2.5-1.1c2.1,0,3.3,1.7,3.3,4.2c0,2.8-1.7,4.5-3.6,4.5
							c-0.7,0-1.5-0.3-2.2-0.9v1.4v2.7h-1.7v-11.7H160.1z M165.8,179.8c0-1.7-0.6-2.8-1.9-2.8c-0.6,0-1.3,0.3-2,1v4
							c0.6,0.6,1.3,0.8,1.8,0.8C164.9,182.8,165.8,181.7,165.8,179.8z"/>
						<path d="M169.6,172h1.7v3.2l-0.1,1.6c0.7-0.7,1.5-1.3,2.7-1.3c1.8,0,2.5,1.2,2.5,3.3v5.2h-1.7v-5c0-1.4-0.4-2-1.4-2
							c-0.8,0-1.3,0.4-2,1.1v5.8h-1.7V172z"/>
						<path d="M182.5,184.5c-0.6,1.8-1.5,3-3.3,3c-0.4,0-0.8-0.1-1-0.2l0.3-1.4c0.2,0,0.4,0.1,0.6,0.1c0.9,0,1.4-0.7,1.7-1.5
							l0.2-0.6l-3.3-8.2h1.8l1.5,4.2c0.2,0.7,0.5,1.6,0.8,2.3h0.1l0.6-2.3l1.3-4.2h1.7L182.5,184.5z"/>
						<path d="M185.8,186c1-0.4,1.6-1.2,1.6-2.1c-0.1,0-0.1,0-0.2,0c-0.6,0-1.2-0.4-1.2-1.1c0-0.7,0.5-1.1,1.2-1.1
							c0.8,0,1.3,0.7,1.3,1.9c0,1.6-0.9,2.8-2.5,3.4L185.8,186z"/>
						<path d="M193.3,183.1l0.8-1.1c0.7,0.6,1.5,0.9,2.3,0.9c1,0,1.5-0.5,1.5-1.1c0-0.8-0.9-1.1-1.8-1.4c-1.1-0.4-2.4-1-2.4-2.4
							s1.1-2.4,2.9-2.4c1.1,0,2,0.5,2.7,1l-0.8,1.1c-0.6-0.4-1.2-0.7-1.8-0.7c-0.9,0-1.3,0.5-1.3,1c0,0.7,0.9,1,1.8,1.3
							c1.2,0.4,2.4,0.9,2.4,2.5c0,1.4-1.1,2.5-3.1,2.5C195.3,184.2,194.1,183.7,193.3,183.1z"/>
						<path d="M200.9,181.8c0-1.8,1.5-2.7,4.9-3.1c0-1-0.4-1.8-1.6-1.8c-0.9,0-1.7,0.4-2.4,0.8l-0.6-1.2c0.9-0.5,2-1.1,3.3-1.1
							c2.1,0,3,1.3,3,3.5v5h-1.4L206,183l0,0c-0.8,0.6-1.6,1.1-2.6,1.1C201.9,184.2,200.9,183.3,200.9,181.8z M205.8,181.9v-2
							c-2.4,0.3-3.3,0.9-3.3,1.8c0,0.8,0.6,1.1,1.3,1.1C204.6,182.8,205.2,182.5,205.8,181.9z"/>
						<path d="M210,175.8h1.4l0.1,1.5l0,0c0.6-1.1,1.5-1.7,2.3-1.7c0.4,0,0.7,0.1,0.9,0.2l-0.3,1.5c-0.3-0.1-0.5-0.1-0.8-0.1
							c-0.7,0-1.5,0.5-2,1.8v5.1H210V175.8z"/>
						<path d="M215.4,179.9c0-2.8,1.9-4.4,4.1-4.4c1,0,1.8,0.4,2.4,0.9l-0.9,1.1c-0.5-0.4-0.9-0.6-1.5-0.6c-1.4,0-2.4,1.2-2.4,2.9
							s0.9,2.9,2.3,2.9c0.7,0,1.3-0.3,1.8-0.8l0.7,1.1c-0.8,0.7-1.7,1-2.7,1C217.1,184.2,215.4,182.6,215.4,179.9z"/>
						<path d="M222.8,179.9c0-2.8,1.8-4.4,3.9-4.4c2,0,3.9,1.6,3.9,4.4c0,2.7-1.8,4.3-3.9,4.3S222.8,182.6,222.8,179.9z
							 M228.8,179.9c0-1.8-0.8-2.9-2.1-2.9s-2.1,1.2-2.1,2.9s0.8,2.9,2.1,2.9C228,182.8,228.8,181.6,228.8,179.9z"/>
						<path d="M232.6,175.8h1.4l0.1,0.9l0,0c0.7-0.6,1.6-1.1,2.5-1.1c2.1,0,3.3,1.7,3.3,4.2c0,2.8-1.7,4.5-3.6,4.5
							c-0.7,0-1.5-0.3-2.2-0.9v1.4v2.7h-1.7v-11.7H232.6z M238.2,179.8c0-1.7-0.6-2.8-1.9-2.8c-0.6,0-1.3,0.3-2,1v4
							c0.6,0.6,1.3,0.8,1.8,0.8C237.3,182.8,238.2,181.7,238.2,179.8z"/>
						<path d="M241.4,179.9c0-2.7,1.8-4.4,3.8-4.4c2.2,0,3.4,1.6,3.4,3.9c0,0.3,0,0.7-0.1,0.9h-5.4c0.1,1.6,1.1,2.5,2.5,2.5
							c0.7,0,1.4-0.2,2-0.6l0.6,1.1c-0.8,0.5-1.7,0.9-2.8,0.9C243.2,184.2,241.4,182.6,241.4,179.9z M247.1,179.1
							c0-1.4-0.6-2.2-1.8-2.2c-1,0-2,0.8-2.1,2.2H247.1z"/>
						<path d="M250.5,175.8h1.4l0.1,1.1l0,0c0.8-0.7,1.6-1.4,2.7-1.4c1.8,0,2.5,1.2,2.5,3.3v5.2h-1.7v-5c0-1.4-0.4-2-1.4-2
							c-0.8,0-1.3,0.4-2,1.1v5.8h-1.7L250.5,175.8L250.5,175.8z"/>
						<path d="M259.6,173.2c0-0.6,0.5-1,1.1-1s1.1,0.4,1.1,1s-0.5,1-1.1,1S259.6,173.8,259.6,173.2z M259.8,175.8h1.7v8.2h-1.7
							V175.8z"/>
						<path d="M263.7,181.8c0-1.8,1.5-2.7,4.9-3.1c0-1-0.4-1.8-1.6-1.8c-0.9,0-1.7,0.4-2.4,0.8l-0.6-1.2c0.9-0.5,2-1.1,3.3-1.1
							c2.1,0,3,1.3,3,3.5v5h-1.4l-0.1-0.9l0,0c-0.8,0.6-1.6,1.1-2.6,1.1C264.7,184.2,263.7,183.3,263.7,181.8z M268.6,181.9v-2
							c-2.4,0.3-3.3,0.9-3.3,1.8c0,0.8,0.6,1.1,1.3,1.1S267.9,182.5,268.6,181.9z"/>
						<path d="M272.3,186c1-0.4,1.6-1.2,1.6-2.1c-0.1,0-0.1,0-0.2,0c-0.6,0-1.2-0.4-1.2-1.1c0-0.7,0.5-1.1,1.2-1.1
							c0.8,0,1.3,0.7,1.3,1.9c0,1.6-0.9,2.8-2.5,3.4L272.3,186z"/>
					</g>
					<text transform="matrix(1 0 0 1 275.9404 183.9999)" class="st3 st4"> </text>
					<g class="st1">
						<path d="M89.3,203.3v-4.2h-1.2v-1.3l1.3-0.1l0.2-2.3H91v2.3h2.1v1.4H91v4.2c0,1,0.3,1.5,1.2,1.5c0.3,0,0.6-0.1,0.9-0.2
							l0.3,1.3c-0.5,0.2-1,0.3-1.6,0.3C89.9,206.2,89.3,205,89.3,203.3z"/>
						<path d="M94.9,197.8h1.4l0.1,1.5l0,0c0.6-1.1,1.5-1.7,2.3-1.7c0.4,0,0.7,0.1,0.9,0.2l-0.3,1.5c-0.3-0.1-0.5-0.1-0.8-0.1
							c-0.7,0-1.5,0.5-2,1.8v5.1h-1.7L94.9,197.8L94.9,197.8z"/>
						<path d="M100.2,203.8c0-1.8,1.5-2.7,4.9-3.1c0-1-0.4-1.8-1.6-1.8c-0.9,0-1.7,0.4-2.4,0.8l-0.6-1.2c0.9-0.5,2-1.1,3.3-1.1
							c2.1,0,3,1.3,3,3.5v5h-1.4l-0.1-0.9l0,0c-0.8,0.6-1.6,1.1-2.6,1.1C101.2,206.2,100.2,205.3,100.2,203.8z M105.1,203.9v-2
							c-2.4,0.3-3.3,0.9-3.3,1.8c0,0.8,0.6,1.1,1.3,1.1C103.9,204.8,104.4,204.5,105.1,203.9z"/>
						<path d="M109.2,202.9v-5.2h1.7v5c0,1.4,0.4,2,1.4,2c0.8,0,1.3-0.4,2-1.2v-5.7h1.7v8.2h-1.4l-0.1-1.2l0,0
							c-0.8,0.9-1.6,1.4-2.7,1.4C109.9,206.2,109.2,205,109.2,202.9z"/>
						<path d="M118.6,197.8h1.4l0.1,1.2l0,0c0.7-0.8,1.5-1.4,2.5-1.4c1.2,0,1.9,0.6,2.3,1.5c0.8-0.9,1.6-1.5,2.7-1.5
							c1.7,0,2.5,1.2,2.5,3.3v5.2h-1.7v-5c0-1.4-0.5-2-1.4-2c-0.6,0-1.2,0.4-1.9,1.1v5.8h-1.7v-5c0-1.4-0.4-2-1.4-2
							c-0.6,0-1.2,0.4-1.9,1.1v5.8h-1.7v-8.1H118.6z"/>
						<path d="M132.2,203.8c0-1.8,1.5-2.7,4.9-3.1c0-1-0.4-1.8-1.6-1.8c-0.9,0-1.7,0.4-2.4,0.8l-0.6-1.2c0.9-0.5,2-1.1,3.3-1.1
							c2.1,0,3,1.3,3,3.5v5h-1.4l-0.1-0.9l0,0c-0.8,0.6-1.6,1.1-2.6,1.1C133.2,206.2,132.2,205.3,132.2,203.8z M137.2,203.9v-2
							c-2.4,0.3-3.3,0.9-3.3,1.8c0,0.8,0.6,1.1,1.3,1.1S136.5,204.5,137.2,203.9z"/>
						<path d="M141.4,203.3v-4.2h-1.2v-1.3l1.3-0.1l0.2-2.3h1.5v2.3h2.1v1.4h-2.1v4.2c0,1,0.3,1.5,1.2,1.5c0.3,0,0.6-0.1,0.9-0.2
							l0.3,1.3c-0.5,0.2-1,0.3-1.6,0.3C142,206.2,141.4,205,141.4,203.3z"/>
						<path d="M146.8,195.2c0-0.6,0.5-1,1.1-1s1.1,0.4,1.1,1s-0.5,1-1.1,1C147.2,196.2,146.8,195.8,146.8,195.2z M147,197.8h1.7v8.2
							H147V197.8z"/>
						<path d="M150.7,201.9c0-2.8,1.9-4.4,4.1-4.4c1,0,1.8,0.4,2.4,0.9l-0.9,1.1c-0.5-0.4-0.9-0.6-1.5-0.6c-1.4,0-2.4,1.2-2.4,2.9
							s0.9,2.9,2.3,2.9c0.7,0,1.3-0.3,1.8-0.8l0.7,1.1c-0.7,0.7-1.7,1-2.7,1C152.5,206.2,150.7,204.6,150.7,201.9z"/>
						<path d="M162.5,197.8h1.4l0.1,1.1l0,0c0.8-0.7,1.6-1.4,2.7-1.4c1.8,0,2.5,1.2,2.5,3.3v5.2h-1.7v-5c0-1.4-0.4-2-1.4-2
							c-0.8,0-1.3,0.4-2,1.1v5.8h-1.7L162.5,197.8L162.5,197.8z"/>
						<path d="M171.2,201.9c0-2.7,1.8-4.4,3.8-4.4c2.2,0,3.4,1.6,3.4,3.9c0,0.3,0,0.7-0.1,0.9h-5.4c0.1,1.6,1.1,2.5,2.5,2.5
							c0.7,0,1.4-0.2,2-0.6l0.6,1.1c-0.8,0.5-1.7,0.9-2.8,0.9C173,206.2,171.2,204.6,171.2,201.9z M176.9,201.1
							c0-1.4-0.6-2.2-1.8-2.2c-1,0-1.9,0.8-2.1,2.2H176.9z"/>
						<path d="M180.3,197.8h1.4l0.1,1.5l0,0c0.6-1.1,1.5-1.7,2.3-1.7c0.4,0,0.7,0.1,0.9,0.2l-0.3,1.5c-0.3-0.1-0.5-0.1-0.8-0.1
							c-0.7,0-1.5,0.5-2,1.8v5.1h-1.7v-8.3H180.3z"/>
						<path d="M185.6,197.8h1.8l1.4,4.4c0.2,0.8,0.5,1.6,0.7,2.5h0.1c0.2-0.8,0.5-1.7,0.7-2.5l1.4-4.4h1.7l-2.8,8.2h-2L185.6,197.8z
							"/>
						<path d="M194.3,201.9c0-2.7,1.8-4.4,3.8-4.4c2.2,0,3.4,1.6,3.4,3.9c0,0.3,0,0.7-0.1,0.9H196c0.1,1.6,1.1,2.5,2.5,2.5
							c0.7,0,1.4-0.2,2-0.6l0.6,1.1c-0.8,0.5-1.7,0.9-2.8,0.9C196,206.2,194.3,204.6,194.3,201.9z M199.9,201.1
							c0-1.4-0.6-2.2-1.8-2.2c-1,0-2,0.8-2.1,2.2H199.9z"/>
						<path d="M206.5,195.2c0-0.6,0.5-1,1.1-1s1.1,0.4,1.1,1s-0.5,1-1.1,1C206.9,196.2,206.5,195.8,206.5,195.2z M206.7,197.8h1.7
							v8.2h-1.7V197.8z"/>
						<path d="M211,197.8h1.4l0.1,1.1l0,0c0.8-0.7,1.6-1.4,2.7-1.4c1.8,0,2.5,1.2,2.5,3.3v5.2H216v-5c0-1.4-0.4-2-1.4-2
							c-0.8,0-1.3,0.4-2,1.1v5.8H211V197.8z"/>
						<path d="M218.3,209.3l0.3-1.3c0.2,0.1,0.5,0.1,0.7,0.1c0.8,0,1-0.6,1-1.5v-8.9h1.7v8.9c0,1.7-0.7,2.9-2.5,2.9
							C219.1,209.6,218.6,209.5,218.3,209.3z M220.1,195.2c0-0.6,0.5-1,1.1-1s1.1,0.4,1.1,1s-0.5,1-1.1,1S220.1,195.8,220.1,195.2z"
							/>
						<path d="M224.6,202.9v-5.2h1.7v5c0,1.4,0.4,2,1.4,2c0.8,0,1.3-0.4,2-1.2v-5.7h1.7v8.2H230l-0.1-1.2l0,0
							c-0.8,0.9-1.6,1.4-2.7,1.4C225.3,206.2,224.6,205,224.6,202.9z"/>
						<path d="M234,197.8h1.4l0.1,1.5l0,0c0.6-1.1,1.5-1.7,2.3-1.7c0.4,0,0.7,0.1,0.9,0.2l-0.3,1.5c-0.3-0.1-0.5-0.1-0.8-0.1
							c-0.7,0-1.5,0.5-2,1.8v5.1H234V197.8z"/>
						<path d="M244.1,206.5c-0.6,1.8-1.5,3-3.3,3c-0.4,0-0.8-0.1-1-0.2l0.3-1.4c0.2,0,0.4,0.1,0.6,0.1c0.9,0,1.4-0.7,1.7-1.5
							l0.2-0.6l-3.3-8.2h1.8l1.5,4.2c0.2,0.7,0.5,1.6,0.8,2.3h0.1l0.6-2.3l1.3-4.2h1.7L244.1,206.5z"/>
					</g>
					<g class="st1">
						<path d="M146.2,73.6h1.8l0.1,0.9h0.1c0.7-0.6,1.6-1.1,2.5-1.1c2.1,0,3.3,1.7,3.3,4.3c0,2.9-1.7,4.5-3.6,4.5
							c-0.7,0-1.4-0.3-2.1-0.9l0.1,1.4v2.5h-2.2L146.2,73.6L146.2,73.6z M151.7,77.7c0-1.6-0.5-2.5-1.7-2.5c-0.6,0-1.1,0.3-1.7,0.9
							v3.7c0.5,0.5,1.1,0.6,1.5,0.6C151,80.4,151.7,79.5,151.7,77.7z"/>
						<path d="M156.1,70.9h2.5l1.9,5.2c0.2,0.7,0.4,1.4,0.7,2.1h0.1c0.2-0.7,0.4-1.5,0.7-2.1l1.8-5.2h2.5V82h-2v-4.6
							c0-1,0.2-2.6,0.3-3.6h-0.1l-0.9,2.6l-1.7,4.7h-1.3l-1.7-4.7l-0.9-2.6h-0.1c0.1,1,0.3,2.6,0.3,3.6V82h-2V70.9H156.1z"/>
						<path d="M168.8,77v-6.1h2.2v6.3c0,2.3,0.8,3.1,2.1,3.1s2.2-0.8,2.2-3.1v-6.3h2.1V77c0,3.7-1.6,5.2-4.3,5.2
							C170.4,82.2,168.8,80.7,168.8,77z"/>
						<path d="M180.1,70.9h2.3l3.2,5.9l1.1,2.4h0.1c-0.1-1.2-0.3-2.6-0.3-3.9v-4.4h2.1V82h-2.2l-3.2-5.9l-1.1-2.4H182
							c0.1,1.2,0.3,2.6,0.3,3.9V82h-2.1V70.9H180.1z"/>
					</g>
					<path class="st5" d="M0,241h334"/>
				</g>
				<g id="cell3" transform="translate(0.000000, 544.000000)">
					<g>
						<path class="st0" d="M8,0h318c4.4,0,8,3.6,8,8v34c0,4.4-3.6,8-8,8H8c-4.4,0-8-3.6-8-8V8C0,3.6,3.6,0,8,0z"/>
						<g class="st1">
							<path class="st2" d="M136.4,19.9h3.6c2.5,0,4.3,0.9,4.3,3.5c0,2.5-1.9,3.7-4.3,3.7h-1.5V31h-2.2L136.4,19.9L136.4,19.9z
								 M139.9,25.3c1.5,0,2.3-0.6,2.3-1.9s-0.8-1.7-2.3-1.7h-1.3v3.6H139.9z"/>
							<path class="st2" d="M146.2,22.6h1.8l0.1,1.5h0.1c0.6-1.1,1.5-1.7,2.4-1.7c0.5,0,0.7,0.1,1,0.2l-0.4,1.9
								c-0.3-0.1-0.5-0.1-0.9-0.1c-0.7,0-1.5,0.4-1.9,1.7v5h-2.2L146.2,22.6L146.2,22.6z"/>
							<path class="st2" d="M152,26.8c0-2.8,1.9-4.4,4-4.4s4,1.6,4,4.4s-1.9,4.4-4,4.4S152,29.6,152,26.8z M157.8,26.8
								c0-1.6-0.6-2.6-1.8-2.6s-1.8,1-1.8,2.6s0.6,2.6,1.8,2.6S157.8,28.4,157.8,26.8z"/>
							<path class="st2" d="M161.4,32.5c0-0.7,0.4-1.3,1.2-1.7v-0.1c-0.4-0.3-0.8-0.7-0.8-1.4c0-0.6,0.4-1.2,0.9-1.6v-0.1
								c-0.6-0.4-1.1-1.2-1.1-2.2c0-2,1.6-3,3.4-3c0.5,0,0.9,0.1,1.3,0.2h3v1.6h-1.4c0.2,0.3,0.4,0.8,0.4,1.3c0,1.9-1.4,2.8-3.2,2.8
								c-0.3,0-0.7-0.1-1.1-0.2c-0.2,0.2-0.4,0.4-0.4,0.7c0,0.5,0.3,0.7,1.3,0.7h1.4c2,0,3.1,0.6,3.1,2.1c0,1.7-1.8,3-4.6,3
								C162.9,34.6,161.4,34,161.4,32.5z M167.4,32c0-0.6-0.5-0.8-1.4-0.8h-1c-0.5,0-0.9,0-1.2-0.1c-0.4,0.3-0.6,0.6-0.6,1
								c0,0.7,0.8,1.1,2,1.1C166.5,33.2,167.4,32.7,167.4,32z M166.3,25.4c0-1-0.6-1.5-1.3-1.5s-1.3,0.6-1.3,1.5
								c0,1,0.6,1.5,1.3,1.5S166.3,26.4,166.3,25.4z"/>
							<path class="st2" d="M170.9,22.6h1.8l0.1,1.5h0.1c0.6-1.1,1.5-1.7,2.4-1.7c0.5,0,0.7,0.1,1,0.2l-0.4,1.9
								c-0.3-0.1-0.5-0.1-0.9-0.1c-0.7,0-1.5,0.4-1.9,1.7v5h-2.2L170.9,22.6L170.9,22.6z"/>
							<path class="st2" d="M176.5,28.7c0-1.8,1.5-2.7,4.8-3.1c0-0.8-0.4-1.5-1.4-1.5c-0.8,0-1.5,0.3-2.3,0.8l-0.8-1.5
								c1-0.6,2.2-1.1,3.5-1.1c2.1,0,3.2,1.3,3.2,3.7v5h-1.8l-0.2-0.9l0,0c-0.7,0.6-1.6,1.1-2.5,1.1
								C177.5,31.2,176.5,30.1,176.5,28.7z M181.4,28.7V27c-2,0.3-2.7,0.8-2.7,1.6c0,0.7,0.5,0.9,1.1,0.9
								C180.4,29.5,180.9,29.2,181.4,28.7z"/>
							<path class="st2" d="M185.8,22.6h1.8l0.1,1.1h0.1c0.7-0.7,1.5-1.3,2.6-1.3c1.2,0,1.9,0.5,2.3,1.5c0.8-0.8,1.6-1.5,2.7-1.5
								c1.8,0,2.6,1.3,2.6,3.4V31h-2.2v-5c0-1.3-0.4-1.8-1.2-1.8c-0.5,0-1,0.3-1.6,0.9V31h-2.2v-5c0-1.3-0.4-1.8-1.2-1.8
								c-0.5,0-1,0.3-1.6,0.9V31h-2.2L185.8,22.6L185.8,22.6z"/>
						</g>
					</g>
					<g transform="translate(0.000000, 102.000000)">
						<path class="st0" d="M8,0h318c4.4,0,8,3.6,8,8v34c0,4.4-3.6,8-8,8H8c-4.4,0-8-3.6-8-8V8C0,3.6,3.6,0,8,0z"/>
						<g class="st1">
							<path class="st2" d="M107.6,21.7h-3.1v-1.8h8.5v1.8h-3.1V31h-2.2v-9.3H107.6z"/>
							<path class="st2" d="M114.6,19h2.2v3l-0.1,1.6c0.7-0.6,1.5-1.2,2.6-1.2c1.8,0,2.6,1.3,2.6,3.4V31h-2.2v-5
								c0-1.3-0.4-1.8-1.2-1.8c-0.7,0-1.1,0.3-1.8,0.9V31h-2.2L114.6,19L114.6,19z"/>
							<path class="st2" d="M123.6,26.8c0-2.7,1.9-4.4,3.9-4.4c2.3,0,3.5,1.7,3.5,4c0,0.4,0,0.8-0.1,1h-5.2c0.2,1.4,1.1,2.1,2.3,2.1
								c0.7,0,1.3-0.2,1.9-0.6l0.8,1.4c-0.8,0.6-1.9,0.9-2.9,0.9C125.5,31.2,123.6,29.6,123.6,26.8z M129.2,26
								c0-1.1-0.5-1.9-1.6-1.9c-0.9,0-1.7,0.6-1.8,1.9H129.2z"/>
							<path class="st2" d="M132.9,22.6h1.8l0.1,1.5h0.1c0.6-1.1,1.5-1.7,2.4-1.7c0.5,0,0.7,0.1,1,0.2l-0.4,1.9
								c-0.3-0.1-0.5-0.1-0.9-0.1c-0.7,0-1.5,0.4-1.9,1.7v5h-2.2L132.9,22.6L132.9,22.6z"/>
							<path class="st2" d="M138.5,28.7c0-1.8,1.5-2.7,4.8-3.1c0-0.8-0.4-1.5-1.4-1.5c-0.8,0-1.5,0.3-2.3,0.8l-0.8-1.5
								c1-0.6,2.2-1.1,3.5-1.1c2.1,0,3.2,1.3,3.2,3.7v5h-1.8l-0.2-0.9l0,0c-0.7,0.6-1.6,1.1-2.5,1.1
								C139.5,31.2,138.5,30.1,138.5,28.7z M143.4,28.7V27c-2,0.3-2.7,0.8-2.7,1.6c0,0.7,0.5,0.9,1.1,0.9
								C142.4,29.5,142.8,29.2,143.4,28.7z"/>
							<path class="st2" d="M147.8,22.6h1.8l0.1,0.9h0.1c0.7-0.6,1.6-1.1,2.5-1.1c2.1,0,3.3,1.7,3.3,4.3c0,2.9-1.7,4.5-3.6,4.5
								c-0.7,0-1.4-0.3-2.1-0.9l0.1,1.4v2.5h-2.2L147.8,22.6L147.8,22.6z M153.3,26.7c0-1.6-0.5-2.5-1.7-2.5c-0.6,0-1.1,0.3-1.7,0.9
								v3.7c0.5,0.5,1.1,0.6,1.5,0.6C152.6,29.4,153.3,28.5,153.3,26.7z"/>
							<path class="st2" d="M156.9,26.8c0-2.7,1.9-4.4,3.9-4.4c2.3,0,3.5,1.7,3.5,4c0,0.4,0,0.8-0.1,1H159c0.2,1.4,1.1,2.1,2.3,2.1
								c0.7,0,1.3-0.2,1.9-0.6l0.8,1.4c-0.8,0.6-1.9,0.9-2.9,0.9C158.8,31.2,156.9,29.6,156.9,26.8z M162.5,26
								c0-1.1-0.5-1.9-1.6-1.9c-0.9,0-1.7,0.6-1.8,1.9H162.5z"/>
							<path class="st2" d="M166.1,27.9v-5.2h2.2v5c0,1.3,0.4,1.8,1.2,1.8c0.7,0,1.1-0.3,1.7-1v-5.7h2.2V31h-1.8l-0.2-1.2h-0.1
								c-0.7,0.9-1.5,1.4-2.7,1.4C166.9,31.2,166.1,30,166.1,27.9z"/>
							<path class="st2" d="M176.1,28.1v-3.7h-1.2v-1.6l1.3-0.1l0.3-2.2h1.8v2.2h2.1v1.7h-2.1v3.7c0,1,0.4,1.4,1.1,1.4
								c0.3,0,0.6-0.1,0.8-0.2l0.4,1.6c-0.5,0.2-1,0.3-1.8,0.3C176.8,31.2,176.1,30,176.1,28.1z"/>
							<path class="st2" d="M181.8,20.1c0-0.7,0.6-1.2,1.3-1.2c0.8,0,1.3,0.5,1.3,1.2s-0.6,1.2-1.3,1.2
								C182.4,21.2,181.8,20.7,181.8,20.1z M182,22.6h2.2V31H182V22.6z"/>
							<path class="st2" d="M186.1,26.8c0-2.8,2-4.4,4.3-4.4c1,0,1.8,0.4,2.4,0.9l-1.1,1.4c-0.4-0.4-0.8-0.6-1.3-0.6
								c-1.3,0-2.1,1-2.1,2.6s0.9,2.6,2.1,2.6c0.6,0,1.2-0.3,1.6-0.7l0.9,1.5c-0.8,0.7-1.8,1-2.7,1
								C187.8,31.2,186.1,29.6,186.1,26.8z"/>
							<path class="st2" d="M203.3,28.2h-3.6l-0.8,2.8h-2.2l3.6-11.1h2.6l3.6,11.1h-2.3L203.3,28.2z M202.8,26.4l-0.3-1.2
								c-0.3-1.2-0.6-2.4-1-3.6h-0.1c-0.3,1.2-0.6,2.5-0.9,3.6l-0.3,1.2H202.8z"/>
							<path class="st2" d="M207.5,22.6h1.8l0.2,1.5h0.1c0.6-1.1,1.5-1.7,2.4-1.7c0.5,0,0.7,0.1,1,0.2l-0.4,1.9
								c-0.3-0.1-0.5-0.1-0.9-0.1c-0.7,0-1.5,0.4-1.9,1.7v5h-2.2v-8.5H207.5z"/>
							<path class="st2" d="M213.4,26.8c0-2.7,1.9-4.4,3.9-4.4c2.3,0,3.5,1.7,3.5,4c0,0.4,0,0.8-0.1,1h-5.2c0.2,1.4,1.1,2.1,2.3,2.1
								c0.7,0,1.3-0.2,1.9-0.6l0.8,1.4c-0.8,0.6-1.9,0.9-2.9,0.9C215.2,31.2,213.4,29.6,213.4,26.8z M218.9,26
								c0-1.1-0.5-1.9-1.6-1.9c-0.9,0-1.7,0.6-1.8,1.9H218.9z"/>
							<path class="st2" d="M222,28.7c0-1.8,1.5-2.7,4.8-3.1c0-0.8-0.4-1.5-1.4-1.5c-0.8,0-1.5,0.3-2.3,0.8l-0.8-1.5
								c1-0.6,2.2-1.1,3.5-1.1c2.1,0,3.2,1.3,3.2,3.7v5h-1.8l-0.2-0.9l0,0c-0.7,0.6-1.6,1.1-2.5,1.1C223,31.2,222,30.1,222,28.7z
								 M226.8,28.7V27c-2,0.3-2.7,0.8-2.7,1.6c0,0.7,0.5,0.9,1.1,0.9C225.8,29.5,226.3,29.2,226.8,28.7z"/>
						</g>
					</g>
					<g class="st1">
						<path d="M43.6,180.9h-3.8l-0.9,3.1H37l3.7-11h2l3.7,11h-1.8L43.6,180.9z M43.1,179.5l-0.4-1.5c-0.4-1.2-0.7-2.4-1-3.7h-0.1
							c-0.3,1.3-0.7,2.5-1,3.7l-0.4,1.5H43.1z"/>
						<path d="M47.8,173h1.7v9.6h4.7v1.5h-6.4V173z"/>
						<path d="M55,182.6l1-1.2c0.8,0.8,1.9,1.3,2.9,1.3c1.3,0,2.1-0.6,2.1-1.6s-0.8-1.3-1.8-1.8l-1.5-0.7c-1.1-0.5-2.2-1.3-2.2-2.9
							c0-1.7,1.5-3,3.6-3c1.3,0,2.5,0.5,3.3,1.4l-0.9,1.1c-0.7-0.6-1.5-1-2.4-1c-1.1,0-1.9,0.5-1.9,1.4s0.9,1.3,1.8,1.7l1.5,0.6
							c1.3,0.6,2.2,1.4,2.2,3c0,1.8-1.5,3.2-3.9,3.2C57.4,184.2,56,183.6,55,182.6z"/>
						<path d="M64.2,186c1-0.4,1.6-1.2,1.6-2.1c-0.1,0-0.1,0-0.2,0c-0.6,0-1.2-0.4-1.2-1.1c0-0.7,0.5-1.1,1.2-1.1
							c0.8,0,1.3,0.7,1.3,1.9c0,1.6-0.9,2.8-2.5,3.4L64.2,186z"/>
						<path d="M71.7,183.1l0.8-1.1c0.7,0.6,1.5,0.9,2.3,0.9c1,0,1.5-0.5,1.5-1.1c0-0.8-0.9-1.1-1.8-1.4c-1.1-0.4-2.4-1-2.4-2.4
							s1.1-2.4,2.9-2.4c1.1,0,2,0.5,2.7,1l-0.8,1.1c-0.6-0.4-1.2-0.7-1.8-0.7c-0.9,0-1.3,0.5-1.3,1c0,0.7,0.9,1,1.8,1.3
							c1.2,0.4,2.4,0.9,2.4,2.5c0,1.4-1.1,2.5-3.1,2.5C73.7,184.2,72.5,183.7,71.7,183.1z"/>
						<path d="M79.8,175.8h1.4l0.1,0.9l0,0c0.7-0.6,1.6-1.1,2.5-1.1c2.1,0,3.3,1.7,3.3,4.2c0,2.8-1.7,4.5-3.6,4.5
							c-0.7,0-1.5-0.3-2.2-0.9v1.4v2.7h-1.7v-11.7H79.8z M85.4,179.8c0-1.7-0.6-2.8-1.9-2.8c-0.6,0-1.3,0.3-2,1v4
							c0.6,0.6,1.3,0.8,1.8,0.8C84.5,182.8,85.4,181.7,85.4,179.8z"/>
						<path d="M89,173.2c0-0.6,0.5-1,1.1-1s1.1,0.4,1.1,1s-0.5,1-1.1,1C89.4,174.2,89,173.8,89,173.2z M89.2,175.8h1.7v8.2h-1.7
							V175.8z"/>
						<path d="M93.5,175.8h1.4l0.1,1.1l0,0c0.8-0.7,1.6-1.4,2.7-1.4c1.8,0,2.5,1.2,2.5,3.3v5.2h-1.7v-5c0-1.4-0.4-2-1.4-2
							c-0.8,0-1.3,0.4-2,1.1v5.8h-1.7L93.5,175.8L93.5,175.8z"/>
						<path d="M102.4,181.8c0-1.8,1.5-2.7,4.9-3.1c0-1-0.4-1.8-1.6-1.8c-0.9,0-1.7,0.4-2.4,0.8l-0.6-1.2c0.9-0.5,2-1.1,3.3-1.1
							c2.1,0,3,1.3,3,3.5v5h-1.4l-0.1-0.9l0,0c-0.8,0.6-1.6,1.1-2.6,1.1C103.4,184.2,102.4,183.3,102.4,181.8z M107.3,181.9v-2
							c-2.4,0.3-3.3,0.9-3.3,1.8c0,0.8,0.6,1.1,1.3,1.1C106.1,182.8,106.7,182.5,107.3,181.9z"/>
						<path d="M111.5,182.1v-10h1.7v10.1c0,0.5,0.2,0.6,0.4,0.6c0.1,0,0.1,0,0.3,0l0.2,1.3c-0.2,0.1-0.5,0.1-0.9,0.1
							C112,184.2,111.5,183.4,111.5,182.1z"/>
						<path d="M118.8,179.9c0-2.8,1.9-4.4,4.1-4.4c1,0,1.8,0.4,2.4,0.9l-0.9,1.1c-0.5-0.4-0.9-0.6-1.5-0.6c-1.4,0-2.4,1.2-2.4,2.9
							s0.9,2.9,2.3,2.9c0.7,0,1.3-0.3,1.8-0.8l0.7,1.1c-0.7,0.7-1.7,1-2.7,1C120.5,184.2,118.8,182.6,118.8,179.9z"/>
						<path d="M126.1,179.9c0-2.8,1.8-4.4,3.9-4.4c2,0,3.9,1.6,3.9,4.4c0,2.7-1.8,4.3-3.9,4.3C128,184.2,126.1,182.6,126.1,179.9z
							 M132.1,179.9c0-1.8-0.8-2.9-2.1-2.9s-2.1,1.2-2.1,2.9s0.8,2.9,2.1,2.9C131.3,182.8,132.1,181.6,132.1,179.9z"/>
						<path d="M135.9,175.8h1.4l0.1,1.5l0,0c0.6-1.1,1.5-1.7,2.3-1.7c0.4,0,0.7,0.1,0.9,0.2l-0.3,1.5c-0.3-0.1-0.5-0.1-0.8-0.1
							c-0.7,0-1.5,0.5-2,1.8v5.1h-1.7v-8.3H135.9z"/>
						<path d="M141.3,179.9c0-2.7,1.7-4.4,3.5-4.4c0.9,0,1.5,0.4,2.2,0.9l-0.1-1.4v-3h1.7v12h-1.4l-0.1-0.9l0,0
							c-0.6,0.6-1.5,1.1-2.4,1.1C142.7,184.2,141.3,182.6,141.3,179.9z M147,181.8v-4c-0.6-0.6-1.2-0.8-1.8-0.8
							c-1.2,0-2.1,1.1-2.1,2.9c0,1.9,0.7,2.9,2,2.9C145.8,182.8,146.4,182.5,147,181.8z"/>
						<path d="M154.5,173.2c0-0.6,0.5-1,1.1-1s1.1,0.4,1.1,1s-0.5,1-1.1,1C154.9,174.2,154.5,173.8,154.5,173.2z M154.7,175.8h1.7
							v8.2h-1.7V175.8z"/>
						<path d="M159,175.8h1.4l0.1,1.1l0,0c0.8-0.7,1.6-1.4,2.7-1.4c1.8,0,2.5,1.2,2.5,3.3v5.2H164v-5c0-1.4-0.4-2-1.4-2
							c-0.8,0-1.3,0.4-2,1.1v5.8H159V175.8z"/>
						<path d="M166.4,187.3l0.3-1.3c0.2,0.1,0.5,0.1,0.7,0.1c0.8,0,1-0.6,1-1.5v-8.9h1.7v8.9c0,1.7-0.7,2.9-2.5,2.9
							C167.1,187.6,166.7,187.5,166.4,187.3z M168.2,173.2c0-0.6,0.5-1,1.1-1s1.1,0.4,1.1,1s-0.5,1-1.1,1S168.2,173.8,168.2,173.2z"
							/>
						<path d="M172.6,180.9v-5.2h1.7v5c0,1.4,0.4,2,1.4,2c0.8,0,1.3-0.4,2-1.2v-5.7h1.7v8.2H178l-0.1-1.2l0,0
							c-0.8,0.9-1.6,1.4-2.7,1.4C173.4,184.2,172.6,183,172.6,180.9z"/>
						<path d="M182,175.8h1.4l0.1,1.5l0,0c0.6-1.1,1.5-1.7,2.3-1.7c0.4,0,0.7,0.1,0.9,0.2l-0.3,1.5c-0.3-0.1-0.5-0.1-0.8-0.1
							c-0.7,0-1.5,0.5-2,1.8v5.1H182V175.8z"/>
						<path d="M192.1,184.5c-0.6,1.8-1.5,3-3.3,3c-0.4,0-0.8-0.1-1-0.2l0.3-1.4c0.2,0,0.4,0.1,0.6,0.1c0.9,0,1.4-0.7,1.7-1.5
							l0.2-0.6l-3.3-8.2h1.8l1.5,4.2c0.2,0.7,0.5,1.6,0.8,2.3h0.1l0.6-2.3l1.3-4.2h1.7L192.1,184.5z"/>
						<path d="M195.4,186c1-0.4,1.6-1.2,1.6-2.1c-0.1,0-0.1,0-0.2,0c-0.6,0-1.2-0.4-1.2-1.1c0-0.7,0.5-1.1,1.2-1.1
							c0.8,0,1.3,0.7,1.3,1.9c0,1.6-0.9,2.8-2.5,3.4L195.4,186z"/>
						<path d="M204,174.7c0-1.7,0.8-2.9,2.6-2.9c0.6,0,1.1,0.1,1.5,0.3l-0.3,1.3c-0.3-0.1-0.6-0.2-0.9-0.2c-0.7,0-1.1,0.5-1.1,1.5v1
							h1.7v1.4h-1.7v6.9H204v-6.9h-1.1v-1.3l1.1-0.1V174.7z M209,173.2c0-0.6,0.5-1,1.1-1s1.1,0.4,1.1,1s-0.5,1-1.1,1
							S209,173.8,209,173.2z M209.2,175.8h1.7v8.2h-1.7V175.8z"/>
						<path d="M215.1,183.1L215.1,183.1l-0.2,0.9h-1.3v-12h1.7v3.2v1.4c0.7-0.6,1.6-1.1,2.5-1.1c2.1,0,3.3,1.7,3.3,4.2
							c0,2.8-1.7,4.5-3.6,4.5C216.6,184.2,215.8,183.8,215.1,183.1z M219.2,179.8c0-1.7-0.6-2.8-1.9-2.8c-0.6,0-1.3,0.3-2,1v4
							c0.6,0.6,1.3,0.8,1.8,0.8C218.3,182.8,219.2,181.7,219.2,179.8z"/>
						<path d="M223,175.8h1.4l0.1,1.5l0,0c0.6-1.1,1.5-1.7,2.3-1.7c0.4,0,0.7,0.1,0.9,0.2l-0.3,1.5c-0.3-0.1-0.5-0.1-0.8-0.1
							c-0.7,0-1.5,0.5-2,1.8v5.1H223V175.8z"/>
						<path d="M228.4,179.9c0-2.8,1.8-4.4,3.9-4.4c2,0,3.9,1.6,3.9,4.4c0,2.7-1.8,4.3-3.9,4.3S228.4,182.6,228.4,179.9z
							 M234.4,179.9c0-1.8-0.8-2.9-2.1-2.9s-2.1,1.2-2.1,2.9s0.8,2.9,2.1,2.9C233.6,182.8,234.4,181.6,234.4,179.9z"/>
						<path d="M238.2,175.8h1.4l0.1,1.2l0,0c0.7-0.8,1.5-1.4,2.5-1.4c1.2,0,1.9,0.6,2.3,1.5c0.8-0.9,1.7-1.5,2.7-1.5
							c1.7,0,2.5,1.2,2.5,3.3v5.2H248v-5c0-1.4-0.5-2-1.4-2c-0.6,0-1.2,0.4-1.9,1.1v5.8H243v-5c0-1.4-0.4-2-1.4-2
							c-0.6,0-1.2,0.4-1.9,1.1v5.8H238v-8.1H238.2z"/>
						<path d="M255.9,184.5c-0.6,1.8-1.5,3-3.3,3c-0.4,0-0.7-0.1-1-0.2l0.3-1.4c0.1,0,0.4,0.1,0.6,0.1c0.9,0,1.4-0.7,1.7-1.5
							l0.2-0.6l-3.3-8.2h1.8l1.5,4.2c0.2,0.7,0.5,1.6,0.8,2.3h0.1l0.6-2.3l1.3-4.2h1.7L255.9,184.5z"/>
						<path d="M259.6,181.8c0-1.8,1.5-2.7,4.9-3.1c0-1-0.4-1.8-1.6-1.8c-0.9,0-1.7,0.4-2.4,0.8l-0.6-1.2c0.9-0.5,2-1.1,3.3-1.1
							c2.1,0,3,1.3,3,3.5v5h-1.4l-0.2-0.9l0,0c-0.8,0.6-1.6,1.1-2.6,1.1C260.6,184.2,259.6,183.3,259.6,181.8z M264.6,181.9v-2
							c-2.4,0.3-3.3,0.9-3.3,1.8c0,0.8,0.6,1.1,1.3,1.1S263.9,182.5,264.6,181.9z"/>
						<path d="M268.7,182.1v-10h1.7v10.1c0,0.5,0.2,0.6,0.4,0.6c0.1,0,0.1,0,0.3,0l0.2,1.3c-0.2,0.1-0.5,0.1-0.9,0.1
							C269.2,184.2,268.7,183.4,268.7,182.1z"/>
						<path d="M272.6,185.5c0-0.7,0.4-1.3,1.2-1.8v-0.1c-0.4-0.3-0.8-0.7-0.8-1.4c0-0.6,0.5-1.2,0.9-1.5v-0.1
							c-0.6-0.4-1.1-1.2-1.1-2.2c0-1.9,1.5-3,3.2-3c0.5,0,0.9,0.1,1.2,0.2h2.9v1.3h-1.6c0.3,0.3,0.5,0.9,0.5,1.5
							c0,1.8-1.4,2.8-3.1,2.8c-0.4,0-0.8-0.1-1.2-0.3c-0.3,0.2-0.5,0.5-0.5,0.9c0,0.5,0.3,0.8,1.4,0.8h1.5c2,0,3,0.6,3,2
							c0,1.6-1.7,2.9-4.3,2.9C274.1,187.7,272.6,187,272.6,185.5z M278.7,185.1c0-0.7-0.5-0.9-1.5-0.9H276c-0.4,0-0.8,0-1.1-0.1
							c-0.5,0.4-0.7,0.8-0.7,1.2c0,0.8,0.8,1.3,2.2,1.3C277.7,186.6,278.7,185.9,278.7,185.1z M277.7,178.5c0-1.1-0.7-1.8-1.6-1.8
							s-1.6,0.6-1.6,1.8c0,1.1,0.7,1.8,1.6,1.8S277.7,179.6,277.7,178.5z"/>
						<path d="M281.6,173.2c0-0.6,0.5-1,1.1-1s1.1,0.4,1.1,1s-0.5,1-1.1,1S281.6,173.8,281.6,173.2z M281.9,175.8h1.7v8.2h-1.7
							V175.8z"/>
						<path d="M285.7,181.8c0-1.8,1.5-2.7,4.9-3.1c0-1-0.4-1.8-1.6-1.8c-0.9,0-1.7,0.4-2.4,0.8l-0.6-1.2c0.9-0.5,2-1.1,3.3-1.1
							c2.1,0,3,1.3,3,3.5v5H291l-0.2-0.9l0,0c-0.8,0.6-1.6,1.1-2.6,1.1C286.7,184.2,285.7,183.3,285.7,181.8z M290.6,181.9v-2
							c-2.4,0.3-3.3,0.9-3.3,1.8c0,0.8,0.6,1.1,1.3,1.1C289.4,182.8,290,182.5,290.6,181.9z"/>
						<path d="M294.3,186c1-0.4,1.6-1.2,1.6-2.1c-0.1,0-0.1,0-0.2,0c-0.6,0-1.2-0.4-1.2-1.1c0-0.7,0.5-1.1,1.2-1.1
							c0.8,0,1.3,0.7,1.3,1.9c0,1.6-0.9,2.8-2.5,3.4L294.3,186z"/>
					</g>
					<text transform="matrix(1 0 0 1 297.6663 183.9999)" class="st3 st4"> </text>
					<g class="st1">
						<path d="M23,203.3v-4.2h-1.2v-1.3l1.3-0.1l0.2-2.3h1.5v2.3h2.1v1.4h-2.1v4.2c0,1,0.3,1.5,1.2,1.5c0.3,0,0.6-0.1,0.9-0.2
							l0.3,1.3c-0.5,0.2-1,0.3-1.6,0.3C23.7,206.2,23,205,23,203.3z"/>
						<path d="M28.7,197.8h1.4l0.1,1.5l0,0c0.6-1.1,1.5-1.7,2.3-1.7c0.4,0,0.7,0.1,0.9,0.2l-0.3,1.5c-0.3-0.1-0.5-0.1-0.8-0.1
							c-0.7,0-1.5,0.5-2,1.8v5.1h-1.7L28.7,197.8L28.7,197.8z"/>
						<path d="M33.9,203.8c0-1.8,1.5-2.7,4.9-3.1c0-1-0.4-1.8-1.6-1.8c-0.9,0-1.7,0.4-2.4,0.8l-0.6-1.2c0.9-0.5,2-1.1,3.3-1.1
							c2.1,0,3,1.3,3,3.5v5h-1.4L39,205l0,0c-0.8,0.6-1.6,1.1-2.6,1.1C34.9,206.2,33.9,205.3,33.9,203.8z M38.9,203.9v-2
							c-2.4,0.3-3.3,0.9-3.3,1.8c0,0.8,0.6,1.1,1.3,1.1C37.6,204.8,38.2,204.5,38.9,203.9z"/>
						<path d="M42.9,202.9v-5.2h1.7v5c0,1.4,0.4,2,1.4,2c0.8,0,1.3-0.4,2-1.2v-5.7h1.7v8.2h-1.4l-0.1-1.2l0,0
							c-0.8,0.9-1.6,1.4-2.7,1.4C43.7,206.2,42.9,205,42.9,202.9z"/>
						<path d="M52.3,197.8h1.4l0.1,1.2l0,0c0.7-0.8,1.5-1.4,2.5-1.4c1.2,0,1.9,0.6,2.3,1.5c0.8-0.9,1.6-1.5,2.7-1.5
							c1.7,0,2.5,1.2,2.5,3.3v5.2h-1.7v-5c0-1.4-0.5-2-1.4-2c-0.6,0-1.2,0.4-1.9,1.1v5.8h-1.7v-5c0-1.4-0.4-2-1.4-2
							c-0.6,0-1.2,0.4-1.9,1.1v5.8h-1.7v-8.1H52.3z"/>
						<path d="M66,203.8c0-1.8,1.5-2.7,4.9-3.1c0-1-0.4-1.8-1.6-1.8c-0.9,0-1.7,0.4-2.4,0.8l-0.6-1.2c0.9-0.5,2-1.1,3.3-1.1
							c2.1,0,3,1.3,3,3.5v5h-1.4l-0.1-0.9l0,0c-0.8,0.6-1.6,1.1-2.6,1.1C67,206.2,66,205.3,66,203.8z M70.9,203.9v-2
							c-2.4,0.3-3.3,0.9-3.3,1.8c0,0.8,0.6,1.1,1.3,1.1C69.7,204.8,70.2,204.5,70.9,203.9z"/>
						<path d="M75.1,203.3v-4.2h-1.2v-1.3l1.3-0.1l0.2-2.3h1.5v2.3H79v1.4h-2.1v4.2c0,1,0.3,1.5,1.2,1.5c0.3,0,0.6-0.1,0.9-0.2
							l0.3,1.3c-0.5,0.2-1,0.3-1.6,0.3C75.7,206.2,75.1,205,75.1,203.3z"/>
						<path d="M80.5,195.2c0-0.6,0.5-1,1.1-1s1.1,0.4,1.1,1s-0.5,1-1.1,1S80.5,195.8,80.5,195.2z M80.8,197.8h1.7v8.2h-1.7V197.8z"
							/>
						<path d="M84.5,201.9c0-2.8,1.9-4.4,4.1-4.4c1,0,1.8,0.4,2.4,0.9l-0.9,1.1c-0.5-0.4-0.9-0.6-1.5-0.6c-1.4,0-2.4,1.2-2.4,2.9
							s0.9,2.9,2.3,2.9c0.7,0,1.3-0.3,1.8-0.8L91,205c-0.7,0.7-1.7,1-2.7,1C86.2,206.2,84.5,204.6,84.5,201.9z"/>
						<path d="M96.2,197.8h1.4l0.1,1.2l0,0c0.7-0.8,1.5-1.4,2.5-1.4c1.2,0,1.9,0.6,2.3,1.5c0.8-0.9,1.6-1.5,2.7-1.5
							c1.7,0,2.5,1.2,2.5,3.3v5.2H106v-5c0-1.4-0.5-2-1.4-2c-0.6,0-1.2,0.4-1.9,1.1v5.8H101v-5c0-1.4-0.4-2-1.4-2
							c-0.6,0-1.2,0.4-1.9,1.1v5.8H96v-8.1H96.2z"/>
						<path d="M110.2,202.9v-5.2h1.7v5c0,1.4,0.4,2,1.4,2c0.8,0,1.3-0.4,2-1.2v-5.7h1.7v8.2h-1.4l-0.1-1.2l0,0
							c-0.8,0.9-1.6,1.4-2.7,1.4C111,206.2,110.2,205,110.2,202.9z"/>
						<path d="M118.8,205.1l0.8-1.1c0.7,0.6,1.5,0.9,2.3,0.9c1,0,1.5-0.5,1.5-1.1c0-0.8-0.9-1.1-1.8-1.4c-1.1-0.4-2.4-1-2.4-2.4
							s1.1-2.4,2.9-2.4c1.1,0,2,0.5,2.7,1l-0.8,1.1c-0.6-0.4-1.2-0.7-1.8-0.7c-0.9,0-1.3,0.5-1.3,1c0,0.7,0.9,1,1.8,1.3
							c1.2,0.4,2.4,0.9,2.4,2.5c0,1.4-1.1,2.5-3.1,2.5C120.7,206.2,119.6,205.7,118.8,205.1z"/>
						<path d="M126.2,201.9c0-2.8,1.9-4.4,4.1-4.4c1,0,1.8,0.4,2.4,0.9l-0.9,1.1c-0.5-0.4-0.9-0.6-1.5-0.6c-1.4,0-2.4,1.2-2.4,2.9
							s0.9,2.9,2.3,2.9c0.7,0,1.3-0.3,1.8-0.8l0.7,1.1c-0.7,0.7-1.7,1-2.7,1C128,206.2,126.2,204.6,126.2,201.9z"/>
						<path d="M134.6,204.1v-10h1.7v10.1c0,0.5,0.2,0.6,0.4,0.6c0.1,0,0.1,0,0.3,0l0.2,1.3c-0.2,0.1-0.5,0.1-0.9,0.1
							C135.1,206.2,134.6,205.4,134.6,204.1z"/>
						<path d="M138.5,201.9c0-2.7,1.8-4.4,3.8-4.4c2.2,0,3.4,1.6,3.4,3.9c0,0.3,0,0.7-0.1,0.9h-5.4c0.1,1.6,1.1,2.5,2.5,2.5
							c0.7,0,1.4-0.2,2-0.6l0.6,1.1c-0.8,0.5-1.7,0.9-2.8,0.9C140.3,206.2,138.5,204.6,138.5,201.9z M144.1,201.1
							c0-1.4-0.6-2.2-1.8-2.2c-1,0-1.9,0.8-2.1,2.2H144.1z"/>
						<path d="M150.7,195.2c0-0.6,0.5-1,1.1-1s1.1,0.4,1.1,1s-0.5,1-1.1,1C151.1,196.2,150.7,195.8,150.7,195.2z M150.9,197.8h1.7
							v8.2h-1.7V197.8z"/>
						<path d="M155.2,197.8h1.4l0.1,1.1l0,0c0.8-0.7,1.6-1.4,2.7-1.4c1.8,0,2.5,1.2,2.5,3.3v5.2h-1.7v-5c0-1.4-0.4-2-1.4-2
							c-0.8,0-1.3,0.4-2,1.1v5.8h-1.7L155.2,197.8L155.2,197.8z"/>
						<path d="M162.5,209.3l0.3-1.3c0.2,0.1,0.5,0.1,0.7,0.1c0.8,0,1-0.6,1-1.5v-8.9h1.7v8.9c0,1.7-0.7,2.9-2.5,2.9
							C163.3,209.6,162.8,209.5,162.5,209.3z M164.3,195.2c0-0.6,0.5-1,1.1-1s1.1,0.4,1.1,1s-0.5,1-1.1,1S164.3,195.8,164.3,195.2z"
							/>
						<path d="M168.8,202.9v-5.2h1.7v5c0,1.4,0.4,2,1.4,2c0.8,0,1.3-0.4,2-1.2v-5.7h1.7v8.2h-1.4l-0.1-1.2l0,0
							c-0.8,0.9-1.6,1.4-2.7,1.4C169.6,206.2,168.8,205,168.8,202.9z"/>
						<path d="M178.2,197.8h1.4l0.1,1.5l0,0c0.6-1.1,1.5-1.7,2.3-1.7c0.4,0,0.7,0.1,0.9,0.2l-0.3,1.5c-0.3-0.1-0.5-0.1-0.8-0.1
							c-0.7,0-1.5,0.5-2,1.8v5.1h-1.7v-8.3H178.2z"/>
						<path d="M188.3,206.5c-0.6,1.8-1.5,3-3.3,3c-0.4,0-0.8-0.1-1-0.2l0.3-1.4c0.1,0,0.4,0.1,0.6,0.1c0.9,0,1.4-0.7,1.7-1.5
							l0.2-0.6l-3.3-8.2h1.8l1.5,4.2c0.2,0.7,0.5,1.6,0.8,2.3h0.1l0.6-2.3l1.3-4.2h1.7L188.3,206.5z"/>
						<path d="M191.6,208c1-0.4,1.6-1.2,1.6-2.1c-0.1,0-0.1,0-0.2,0c-0.6,0-1.2-0.4-1.2-1.1c0-0.7,0.5-1.1,1.2-1.1
							c0.8,0,1.3,0.7,1.3,1.9c0,1.6-0.9,2.8-2.5,3.4L191.6,208z"/>
						<path d="M199.9,197.8h1.4l0.1,1.5l0,0c0.6-1.1,1.5-1.7,2.3-1.7c0.4,0,0.7,0.1,0.9,0.2l-0.3,1.5c-0.3-0.1-0.5-0.1-0.8-0.1
							c-0.7,0-1.5,0.5-2,1.8v5.1h-1.7v-8.3H199.9z"/>
						<path d="M206.1,194h1.7v3.2l-0.1,1.6c0.7-0.7,1.5-1.3,2.7-1.3c1.8,0,2.5,1.2,2.5,3.3v5.2h-1.7v-5c0-1.4-0.4-2-1.4-2
							c-0.8,0-1.3,0.4-2,1.1v5.8h-1.7V194z"/>
						<path d="M214.9,203.8c0-1.8,1.5-2.7,4.9-3.1c0-1-0.4-1.8-1.6-1.8c-0.9,0-1.7,0.4-2.4,0.8l-0.6-1.2c0.9-0.5,2-1.1,3.3-1.1
							c2.1,0,3,1.3,3,3.5v5h-1.4l-0.2-0.9l0,0c-0.8,0.6-1.6,1.1-2.6,1.1C215.9,206.2,214.9,205.3,214.9,203.8z M219.8,203.9v-2
							c-2.4,0.3-3.3,0.9-3.3,1.8c0,0.8,0.6,1.1,1.3,1.1C218.6,204.8,219.2,204.5,219.8,203.9z"/>
						<path d="M225.6,205.1L225.6,205.1l-0.2,0.9H224v-12h1.7v3.2v1.4c0.7-0.6,1.6-1.1,2.5-1.1c2.1,0,3.3,1.7,3.3,4.2
							c0,2.8-1.7,4.5-3.6,4.5C227.1,206.2,226.3,205.8,225.6,205.1z M229.6,201.8c0-1.7-0.6-2.8-1.9-2.8c-0.6,0-1.3,0.3-2,1v4
							c0.6,0.6,1.3,0.8,1.8,0.8C228.7,204.8,229.6,203.7,229.6,201.8z"/>
						<path d="M232.9,201.9c0-2.7,1.7-4.4,3.5-4.4c0.9,0,1.5,0.4,2.2,0.9l-0.1-1.4v-3h1.7v12h-1.4l-0.1-0.9l0,0
							c-0.6,0.6-1.5,1.1-2.4,1.1C234.2,206.2,232.9,204.6,232.9,201.9z M238.6,203.8v-4c-0.6-0.6-1.2-0.8-1.8-0.8
							c-1.2,0-2.1,1.1-2.1,2.9c0,1.9,0.7,2.9,2,2.9C237.4,204.8,238,204.5,238.6,203.8z"/>
						<path d="M242.3,201.9c0-2.8,1.8-4.4,3.9-4.4c2,0,3.9,1.6,3.9,4.4c0,2.7-1.8,4.3-3.9,4.3C244.2,206.2,242.3,204.6,242.3,201.9z
							 M248.3,201.9c0-1.8-0.8-2.9-2.1-2.9s-2.1,1.2-2.1,2.9s0.8,2.9,2.1,2.9C247.5,204.8,248.3,203.6,248.3,201.9z"/>
						<path d="M252.1,197.8h1.4l0.1,1.2l0,0c0.7-0.8,1.5-1.4,2.5-1.4c1.2,0,1.9,0.6,2.3,1.5c0.8-0.9,1.7-1.5,2.7-1.5
							c1.7,0,2.5,1.2,2.5,3.3v5.2H262v-5c0-1.4-0.5-2-1.4-2c-0.6,0-1.2,0.4-1.9,1.1v5.8H257v-5c0-1.4-0.4-2-1.4-2
							c-0.6,0-1.2,0.4-1.9,1.1v5.8H252L252.1,197.8L252.1,197.8z"/>
						<path d="M269.9,206.5c-0.6,1.8-1.5,3-3.3,3c-0.4,0-0.8-0.1-1-0.2l0.3-1.4c0.1,0,0.4,0.1,0.6,0.1c0.9,0,1.4-0.7,1.7-1.5
							l0.2-0.6l-3.3-8.2h1.8l1.5,4.2c0.2,0.7,0.5,1.6,0.8,2.3h0.1l0.6-2.3l1.3-4.2h1.7L269.9,206.5z"/>
						<path d="M273.7,201.9c0-2.8,1.8-4.4,3.9-4.4s3.9,1.6,3.9,4.4c0,2.7-1.8,4.3-3.9,4.3S273.7,204.6,273.7,201.9z M279.7,201.9
							c0-1.8-0.8-2.9-2.1-2.9c-1.3,0-2.1,1.2-2.1,2.9s0.8,2.9,2.1,2.9C278.9,204.8,279.7,203.6,279.7,201.9z"/>
						<path d="M283.5,204.1v-10h1.7v10.1c0,0.5,0.2,0.6,0.4,0.6c0.1,0,0.1,0,0.3,0l0.2,1.3c-0.2,0.1-0.5,0.1-0.9,0.1
							C284,206.2,283.5,205.4,283.5,204.1z"/>
						<path d="M291.6,206.5c-0.6,1.8-1.5,3-3.3,3c-0.4,0-0.8-0.1-1-0.2l0.3-1.4c0.2,0,0.4,0.1,0.6,0.1c0.9,0,1.4-0.7,1.7-1.5
							l0.2-0.6l-3.3-8.2h1.8l1.5,4.2c0.2,0.7,0.5,1.6,0.8,2.3h0.1l0.6-2.3l1.3-4.2h1.7L291.6,206.5z"/>
						<path d="M295.3,205.1l0.8-1.1c0.7,0.6,1.5,0.9,2.3,0.9c1,0,1.5-0.5,1.5-1.1c0-0.8-0.9-1.1-1.8-1.4c-1.1-0.4-2.4-1-2.4-2.4
							s1.1-2.4,2.9-2.4c1.1,0,2,0.5,2.7,1l-0.8,1.1c-0.6-0.4-1.2-0.7-1.8-0.7c-0.9,0-1.3,0.5-1.3,1c0,0.7,0.9,1,1.8,1.3
							c1.2,0.4,2.4,0.9,2.4,2.5c0,1.4-1.1,2.5-3.1,2.5C297.2,206.2,296.1,205.7,295.3,205.1z"/>
						<path d="M303.1,195.2c0-0.6,0.5-1,1.1-1s1.1,0.4,1.1,1s-0.5,1-1.1,1S303.1,195.8,303.1,195.2z M303.4,197.8h1.7v8.2h-1.7
							V197.8z"/>
						<path d="M306.8,205.1l0.8-1.1c0.7,0.6,1.5,0.9,2.3,0.9c1,0,1.5-0.5,1.5-1.1c0-0.8-0.9-1.1-1.8-1.4c-1.1-0.4-2.4-1-2.4-2.4
							s1.1-2.4,2.9-2.4c1.1,0,2,0.5,2.7,1l-0.8,1.1c-0.6-0.4-1.2-0.7-1.8-0.7c-0.9,0-1.3,0.5-1.3,1c0,0.7,0.9,1,1.8,1.3
							c1.2,0.4,2.4,0.9,2.4,2.5c0,1.4-1.1,2.5-3.1,2.5C308.8,206.2,307.6,205.7,306.8,205.1z"/>
					</g>
					<g>
						<path d="M117.5,70.5h2.3l1.5,5.4c0.3,1.2,0.6,2.3,0.9,3.6h0.1c0.3-1.2,0.6-2.4,0.9-3.6l1.4-5.4h2.2l-3.4,11.1h-2.6L117.5,70.5
							z"/>
						<path d="M128.2,70.5h2.5l1.9,5.2c0.2,0.7,0.4,1.4,0.7,2.1h0.1c0.2-0.7,0.4-1.5,0.7-2.1l1.8-5.2h2.5v11.1h-2V77
							c0-1,0.2-2.6,0.3-3.6h-0.1l-0.9,2.6l-1.7,4.7h-1.3l-1.7-4.7l-0.9-2.6h-0.1c0.1,1,0.3,2.6,0.3,3.6v4.6h-2V70.5z"/>
						<path d="M140.1,80.3l1-1.4c0.7,0.6,1.5,1.1,2.5,1.1c1.1,0,1.9-0.6,1.9-1.5c0-1.1-0.6-1.8-3.1-1.8v-1.6c2,0,2.7-0.7,2.7-1.7
							c0-0.9-0.5-1.4-1.5-1.4c-0.8,0-1.4,0.4-2.1,1l-1.1-1.3c1-0.8,2-1.4,3.3-1.4c2.1,0,3.6,1,3.6,2.9c0,1.2-0.7,2.1-1.9,2.5v0.1
							c1.3,0.3,2.2,1.3,2.2,2.7c0,2-1.8,3.2-3.9,3.2C142,81.8,140.8,81.1,140.1,80.3z"/>
						<path d="M149.2,76c0-3.8,1.5-5.7,3.8-5.7c2.2,0,3.7,1.9,3.7,5.7s-1.5,5.8-3.7,5.8C150.6,81.8,149.2,79.8,149.2,76z M154.6,76
							c0-3.1-0.7-4-1.7-4c-1,0-1.7,0.9-1.7,4c0,3.1,0.7,4.1,1.7,4.1C153.9,80.1,154.6,79.1,154.6,76z"/>
						<path d="M158.5,79.8h2.4v-7h-2v-1.4c1.1-0.2,1.9-0.5,2.6-0.9h1.6v9.3h2.1v1.8h-6.7V79.8z"/>
						<path d="M166.9,76.5h4.1v1.6h-4.1V76.5z"/>
						<path d="M181.6,78.7H178l-0.8,2.8H175l3.5-11.1h2.6l3.6,11.1h-2.3L181.6,78.7z M181.2,77l-0.3-1.2c-0.3-1.2-0.6-2.4-1-3.6
							h-0.1c-0.3,1.2-0.6,2.5-0.9,3.6l-0.3,1.2H181.2z"/>
						<path d="M184.3,70.5h2.3l1.5,5.4c0.3,1.2,0.6,2.3,0.9,3.6h0.1c0.3-1.2,0.6-2.4,0.9-3.6l1.4-5.4h2.2l-3.4,11.1h-2.6L184.3,70.5
							z"/>
						<path d="M194.9,79.8h2.4v-7h-2v-1.4c1.1-0.2,1.9-0.5,2.6-0.9h1.6v9.3h2.1v1.8h-6.7V79.8z"/>
						<path d="M203.8,70.5h2.2v4.4h4.2v-4.4h2.2v11.1h-2.2v-4.8h-4.2v4.8h-2.2V70.5z"/>
					</g>
				</g>
			</g>
		</g>
	</g>
</g>
</svg>
