<?xml version="1.0" encoding="utf-8"?>
<!-- Generator: Adobe Illustrator 23.0.4, SVG Export Plug-In . SVG Version: 6.00 Build 0)  -->
<svg version="1.1" id="레이어_1" xmlns="http://www.w3.org/2000/svg" xmlns:xlink="http://www.w3.org/1999/xlink" x="0px"
	 y="0px" viewBox="0 0 1002 166" style="enable-background:new 0 0 1002 166;" xml:space="preserve">
<style type="text/css">
	.st0{fill-rule:evenodd;clip-rule:evenodd;}
	.st1{enable-background:new    ;}
	.st2{fill:#FFFFFF;}
	.st3{fill:none;stroke:#979797;stroke-linecap:square;}
</style>
<title>표</title>
<desc>Created with Sketch.</desc>
<g id="Page-1">
	<g transform="translate(-189.000000, -2551.000000)">
		<g id="third" transform="translate(190.000000, 2041.000000)">
			<g id="표" transform="translate(0.000000, 510.000000)">
				<g id="head">
					<g>
						<path id="bg" class="st0" d="M8,0h234c4.4,0,8,3.6,8,8v34c0,4.4-3.6,8-8,8H8c-4.4,0-8-3.6-8-8V8C0,3.6,3.6,0,8,0z"/>
						<g class="st1">
							<path class="st2" d="M94.4,19.9H98c2.5,0,4.3,0.9,4.3,3.5c0,2.5-1.9,3.7-4.3,3.7h-1.5V31h-2.2V19.9z M97.9,25.3
								c1.5,0,2.3-0.6,2.3-1.9c0-1.3-0.8-1.7-2.3-1.7h-1.3v3.6H97.9z"/>
							<path class="st2" d="M104.2,22.6h1.8l0.1,1.5h0.1c0.6-1.1,1.5-1.7,2.4-1.7c0.5,0,0.7,0.1,1,0.2l-0.4,1.9
								c-0.3-0.1-0.5-0.1-0.9-0.1c-0.7,0-1.5,0.4-1.9,1.7v5h-2.2V22.6z"/>
							<path class="st2" d="M110,26.8c0-2.8,1.9-4.4,4-4.4s4,1.6,4,4.4c0,2.8-1.9,4.4-4,4.4S110,29.6,110,26.8z M115.8,26.8
								c0-1.6-0.6-2.6-1.8-2.6s-1.8,1-1.8,2.6c0,1.6,0.6,2.6,1.8,2.6S115.8,28.4,115.8,26.8z"/>
							<path class="st2" d="M119.4,32.5c0-0.7,0.4-1.3,1.2-1.7v-0.1c-0.4-0.3-0.8-0.7-0.8-1.4c0-0.6,0.4-1.2,0.9-1.6v-0.1
								c-0.6-0.4-1.1-1.2-1.1-2.2c0-2,1.6-3,3.4-3c0.5,0,0.9,0.1,1.3,0.2h3v1.6h-1.4c0.2,0.3,0.4,0.8,0.4,1.3c0,1.9-1.4,2.8-3.2,2.8
								c-0.3,0-0.7-0.1-1.1-0.2c-0.2,0.2-0.4,0.4-0.4,0.7c0,0.5,0.3,0.7,1.3,0.7h1.4c2,0,3.1,0.6,3.1,2.1c0,1.7-1.8,3-4.6,3
								C120.9,34.6,119.4,34,119.4,32.5z M125.4,32c0-0.6-0.5-0.8-1.4-0.8h-1c-0.5,0-0.9,0-1.2-0.1c-0.4,0.3-0.6,0.6-0.6,1
								c0,0.7,0.8,1.1,2,1.1C124.5,33.2,125.4,32.7,125.4,32z M124.3,25.4c0-1-0.6-1.5-1.3-1.5s-1.3,0.6-1.3,1.5
								c0,1,0.6,1.5,1.3,1.5S124.3,26.4,124.3,25.4z"/>
							<path class="st2" d="M128.9,22.6h1.8l0.1,1.5h0.1c0.6-1.1,1.5-1.7,2.4-1.7c0.5,0,0.7,0.1,1,0.2l-0.4,1.9
								c-0.3-0.1-0.5-0.1-0.9-0.1c-0.7,0-1.5,0.4-1.9,1.7v5h-2.2V22.6z"/>
							<path class="st2" d="M134.5,28.7c0-1.8,1.5-2.7,4.8-3.1c0-0.8-0.4-1.5-1.4-1.5c-0.8,0-1.5,0.3-2.3,0.8l-0.8-1.5
								c1-0.6,2.2-1.1,3.5-1.1c2.1,0,3.2,1.3,3.2,3.7V31h-1.8l-0.2-0.9h0c-0.7,0.6-1.6,1.1-2.5,1.1
								C135.5,31.2,134.5,30.1,134.5,28.7z M139.4,28.7V27c-2,0.3-2.7,0.8-2.7,1.6c0,0.7,0.5,0.9,1.1,0.9
								C138.4,29.5,138.9,29.2,139.4,28.7z"/>
							<path class="st2" d="M143.8,22.6h1.8l0.1,1.1h0.1c0.7-0.7,1.5-1.3,2.6-1.3c1.2,0,1.9,0.5,2.3,1.5c0.8-0.8,1.6-1.5,2.7-1.5
								c1.8,0,2.6,1.3,2.6,3.4V31h-2.2v-5c0-1.3-0.4-1.8-1.2-1.8c-0.5,0-1,0.3-1.6,0.9V31h-2.2v-5c0-1.3-0.4-1.8-1.2-1.8
								c-0.5,0-1,0.3-1.6,0.9V31h-2.2V22.6z"/>
						</g>
					</g>
					<g transform="translate(260.000000, 0.000000)">
						<path class="st0" d="M8,0h724c4.4,0,8,3.6,8,8v34c0,4.4-3.6,8-8,8H8c-4.4,0-8-3.6-8-8V8C0,3.6,3.6,0,8,0z"/>
						<g class="st1">
							<path class="st2" d="M310.6,21.7h-3.1v-1.8h8.5v1.8h-3.2V31h-2.2V21.7z"/>
							<path class="st2" d="M317.6,19h2.2v3l-0.1,1.6c0.7-0.6,1.5-1.2,2.6-1.2c1.8,0,2.6,1.3,2.6,3.4V31h-2.2v-5
								c0-1.3-0.4-1.8-1.2-1.8c-0.7,0-1.1,0.3-1.8,0.9V31h-2.2V19z"/>
							<path class="st2" d="M326.6,26.8c0-2.7,1.9-4.4,3.9-4.4c2.3,0,3.5,1.7,3.5,4c0,0.4,0,0.8-0.1,1h-5.2c0.2,1.4,1.1,2.1,2.3,2.1
								c0.7,0,1.3-0.2,1.9-0.6l0.8,1.4c-0.8,0.6-1.9,0.9-2.9,0.9C328.5,31.2,326.6,29.6,326.6,26.8z M332.2,26
								c0-1.1-0.5-1.9-1.6-1.9c-0.9,0-1.7,0.6-1.8,1.9H332.2z"/>
							<path class="st2" d="M335.9,22.6h1.8l0.1,1.5h0.1c0.6-1.1,1.5-1.7,2.4-1.7c0.5,0,0.7,0.1,1,0.2l-0.4,1.9
								c-0.3-0.1-0.5-0.1-0.9-0.1c-0.7,0-1.5,0.4-1.9,1.7v5h-2.2V22.6z"/>
							<path class="st2" d="M341.5,28.7c0-1.8,1.5-2.7,4.8-3.1c0-0.8-0.4-1.5-1.4-1.5c-0.8,0-1.5,0.3-2.3,0.8l-0.8-1.5
								c1-0.6,2.2-1.1,3.5-1.1c2.1,0,3.2,1.3,3.2,3.7V31h-1.8l-0.2-0.9h0c-0.7,0.6-1.6,1.1-2.5,1.1
								C342.5,31.2,341.5,30.1,341.5,28.7z M346.4,28.7V27c-2,0.3-2.7,0.8-2.7,1.6c0,0.7,0.5,0.9,1.1,0.9
								C345.4,29.5,345.8,29.2,346.4,28.7z"/>
							<path class="st2" d="M350.8,22.6h1.8l0.1,0.9h0.1c0.7-0.6,1.6-1.1,2.5-1.1c2.1,0,3.3,1.7,3.3,4.3c0,2.9-1.7,4.5-3.6,4.5
								c-0.7,0-1.4-0.3-2.1-0.9l0.1,1.4v2.5h-2.2V22.6z M356.3,26.7c0-1.6-0.5-2.5-1.7-2.5c-0.6,0-1.1,0.3-1.7,0.9v3.7
								c0.5,0.5,1.1,0.6,1.5,0.6C355.6,29.4,356.3,28.5,356.3,26.7z"/>
							<path class="st2" d="M359.9,26.8c0-2.7,1.9-4.4,3.9-4.4c2.3,0,3.5,1.7,3.5,4c0,0.4,0,0.8-0.1,1h-5.2c0.2,1.4,1.1,2.1,2.3,2.1
								c0.7,0,1.3-0.2,1.9-0.6l0.8,1.4c-0.8,0.6-1.9,0.9-2.9,0.9C361.8,31.2,359.9,29.6,359.9,26.8z M365.5,26
								c0-1.1-0.5-1.9-1.6-1.9c-0.9,0-1.7,0.6-1.8,1.9H365.5z"/>
							<path class="st2" d="M369.1,27.9v-5.2h2.2v5c0,1.3,0.4,1.8,1.2,1.8c0.7,0,1.1-0.3,1.7-1v-5.7h2.2V31h-1.8l-0.2-1.2h-0.1
								c-0.7,0.9-1.5,1.4-2.7,1.4C369.9,31.2,369.1,30,369.1,27.9z"/>
							<path class="st2" d="M379.1,28.1v-3.7h-1.2v-1.6l1.3-0.1l0.3-2.2h1.8v2.2h2.1v1.7h-2.1v3.7c0,1,0.4,1.4,1.1,1.4
								c0.3,0,0.6-0.1,0.8-0.2l0.4,1.6c-0.5,0.2-1,0.3-1.8,0.3C379.8,31.2,379.1,30,379.1,28.1z"/>
							<path class="st2" d="M384.8,20.1c0-0.7,0.6-1.2,1.3-1.2c0.8,0,1.3,0.5,1.3,1.2c0,0.7-0.6,1.2-1.3,1.2
								C385.4,21.2,384.8,20.7,384.8,20.1z M385,22.6h2.2V31H385V22.6z"/>
							<path class="st2" d="M389.1,26.8c0-2.8,2-4.4,4.3-4.4c1,0,1.8,0.4,2.4,0.9l-1.1,1.4c-0.4-0.4-0.8-0.6-1.3-0.6
								c-1.3,0-2.1,1-2.1,2.6c0,1.6,0.9,2.6,2.1,2.6c0.6,0,1.2-0.3,1.6-0.7l0.9,1.5c-0.8,0.7-1.8,1-2.7,1
								C390.8,31.2,389.1,29.6,389.1,26.8z"/>
							<path class="st2" d="M406.3,28.2h-3.6l-0.8,2.8h-2.2l3.6-11.1h2.6l3.6,11.1h-2.3L406.3,28.2z M405.8,26.4l-0.3-1.2
								c-0.3-1.2-0.6-2.4-1-3.6h-0.1c-0.3,1.2-0.6,2.5-0.9,3.6l-0.3,1.2H405.8z"/>
							<path class="st2" d="M410.5,22.6h1.8l0.2,1.5h0.1c0.6-1.1,1.5-1.7,2.4-1.7c0.5,0,0.7,0.1,1,0.2l-0.4,1.9
								c-0.3-0.1-0.5-0.1-0.9-0.1c-0.7,0-1.5,0.4-1.9,1.7v5h-2.2V22.6z"/>
							<path class="st2" d="M416.4,26.8c0-2.7,1.9-4.4,3.9-4.4c2.3,0,3.5,1.7,3.5,4c0,0.4,0,0.8-0.1,1h-5.2c0.2,1.4,1.1,2.1,2.3,2.1
								c0.7,0,1.3-0.2,1.9-0.6l0.8,1.4c-0.8,0.6-1.9,0.9-2.9,0.9C418.2,31.2,416.4,29.6,416.4,26.8z M421.9,26
								c0-1.1-0.5-1.9-1.6-1.9c-0.9,0-1.7,0.6-1.8,1.9H421.9z"/>
							<path class="st2" d="M425,28.7c0-1.8,1.5-2.7,4.8-3.1c0-0.8-0.4-1.5-1.4-1.5c-0.8,0-1.5,0.3-2.3,0.8l-0.8-1.5
								c1-0.6,2.2-1.1,3.5-1.1c2.1,0,3.2,1.3,3.2,3.7V31h-1.8l-0.2-0.9h0c-0.7,0.6-1.6,1.1-2.5,1.1C426,31.2,425,30.1,425,28.7z
								 M429.8,28.7V27c-2,0.3-2.7,0.8-2.7,1.6c0,0.7,0.5,0.9,1.1,0.9C428.8,29.5,429.3,29.2,429.8,28.7z"/>
						</g>
					</g>
				</g>
				<g id="cell1" transform="translate(0.000000, 65.000000)">
					<g class="st1">
						<path d="M95.8,7.7h2.8l1.8,6.5c0.4,1.5,0.7,2.8,1.1,4.3h0.1c0.4-1.5,0.7-2.8,1.1-4.3l1.7-6.5h2.7L103,21h-3.2L95.8,7.7z"/>
						<path d="M108.6,7.7h3l2.3,6.2c0.3,0.8,0.5,1.7,0.8,2.6h0.1c0.3-0.9,0.5-1.7,0.8-2.6l2.2-6.2h3V21h-2.4v-5.6
							c0-1.3,0.2-3.1,0.3-4.4h-0.1l-1.1,3.1l-2.1,5.6h-1.5l-2.1-5.6l-1.1-3.1h-0.1c0.1,1.3,0.3,3.1,0.3,4.4V21h-2.4V7.7z"/>
						<path d="M123.1,19.5c3.6-3.2,5.8-5.7,5.8-7.8c0-1.3-0.7-2.2-2-2.2c-1,0-1.8,0.6-2.4,1.4L123,9.4c1.2-1.3,2.4-2,4.2-2
							c2.5,0,4.2,1.6,4.2,4.1c0,2.4-2,5-4.4,7.4c0.7-0.1,1.5-0.1,2.2-0.1h2.9V21h-8.9V19.5z"/>
						<path d="M133.7,14.3c0-4.6,1.8-6.9,4.5-6.9c2.7,0,4.5,2.3,4.5,6.9c0,4.6-1.8,7-4.5,7C135.5,21.3,133.7,18.9,133.7,14.3z
							 M140.3,14.3c0-3.7-0.9-4.8-2-4.8c-1.2,0-2,1.1-2,4.8c0,3.7,0.9,4.9,2,4.9C139.4,19.2,140.3,18,140.3,14.3z"/>
						<path d="M151.8,10.5c-0.5-0.5-1.3-1-2.1-1c-1.5,0-2.8,1.2-2.9,4.5c0.7-0.9,1.9-1.4,2.7-1.4c2.2,0,3.8,1.3,3.8,4.2
							c0,2.7-1.9,4.4-4.2,4.4c-2.5,0-4.8-2-4.8-6.7c0-5,2.5-7.1,5.1-7.1c1.6,0,2.8,0.7,3.6,1.5L151.8,10.5z M151,16.8
							c0-1.6-0.7-2.3-1.9-2.3c-0.7,0-1.5,0.4-2.2,1.4c0.3,2.4,1.2,3.4,2.3,3.4C150.2,19.3,151,18.4,151,16.8z"/>
					</g>
					<g class="st1">
						<path d="M457,7.7h4.1c2.7,0,4.7,0.9,4.7,3.3c0,1.3-0.7,2.5-1.9,2.9V14c1.5,0.3,2.6,1.4,2.6,3.2c0,2.6-2.1,3.9-5.1,3.9H457V7.7
							z M460.8,13.3c2,0,2.9-0.8,2.9-2c0-1.4-0.9-1.9-2.8-1.9h-1.8v3.9H460.8z M461.2,19.4c2.1,0,3.3-0.7,3.3-2.4
							c0-1.5-1.2-2.1-3.3-2.1h-2.1v4.5H461.2z"/>
						<path d="M468.8,11.1h1.7l0.2,1.8h0.1c0.7-1.3,1.7-2,2.8-2c0.5,0,0.8,0.1,1.1,0.2l-0.4,1.8c-0.3-0.1-0.6-0.2-1-0.2
							c-0.8,0-1.8,0.6-2.4,2.1V21h-2.1V11.1z"/>
						<path d="M475.3,16.1c0-3.2,2.2-5.2,4.5-5.2c2.6,0,4,1.9,4,4.7c0,0.4,0,0.8-0.1,1h-6.4c0.2,1.9,1.4,3,3.1,3
							c0.9,0,1.6-0.3,2.4-0.7l0.7,1.3c-0.9,0.6-2.1,1-3.3,1C477.4,21.2,475.3,19.3,475.3,16.1z M482,15.2c0-1.7-0.8-2.7-2.2-2.7
							c-1.2,0-2.3,1-2.5,2.7H482z"/>
						<path d="M485.3,18.4c0-2.1,1.8-3.2,5.9-3.7c0-1.2-0.4-2.2-1.9-2.2c-1,0-2,0.5-2.9,1l-0.8-1.4c1-0.6,2.4-1.3,4-1.3
							c2.5,0,3.6,1.6,3.6,4.2v6h-1.7l-0.2-1.1h-0.1c-0.9,0.8-2,1.4-3.2,1.4C486.5,21.2,485.3,20.1,485.3,18.4z M491.2,18.4V16
							c-2.9,0.4-3.9,1.1-3.9,2.2c0,1,0.7,1.4,1.5,1.4C489.7,19.6,490.4,19.2,491.2,18.4z"/>
						<path d="M495.2,19.9l1-1.3c0.9,0.7,1.7,1.1,2.8,1.1c1.2,0,1.7-0.6,1.7-1.3c0-0.9-1.1-1.3-2.2-1.7c-1.3-0.5-2.8-1.2-2.8-2.9
							c0-1.7,1.3-2.9,3.5-2.9c1.3,0,2.4,0.5,3.2,1.2l-1,1.3c-0.7-0.5-1.4-0.9-2.2-0.9c-1.1,0-1.6,0.5-1.6,1.2c0,0.8,1,1.2,2.1,1.6
							c1.4,0.5,2.9,1.1,2.9,3c0,1.7-1.3,3-3.8,3C497.5,21.2,496.1,20.7,495.2,19.9z"/>
						<path d="M504.8,17.8v-5h-1.4v-1.5l1.5-0.1l0.2-2.7h1.7v2.7h2.6v1.7h-2.6v5c0,1.2,0.4,1.8,1.4,1.8c0.3,0,0.8-0.1,1.1-0.2
							l0.4,1.5c-0.6,0.2-1.2,0.4-1.9,0.4C505.6,21.2,504.8,19.8,504.8,17.8z"/>
						<path d="M514.9,16.1c0-3.3,2.3-5.2,4.9-5.2c1.3,0,2.2,0.5,2.9,1.1l-1,1.4c-0.5-0.5-1.1-0.8-1.8-0.8c-1.7,0-2.8,1.4-2.8,3.5
							c0,2.1,1.1,3.5,2.8,3.5c0.8,0,1.6-0.4,2.2-0.9l0.8,1.4c-0.9,0.8-2.1,1.2-3.2,1.2C517,21.2,514.9,19.3,514.9,16.1z"/>
						<path d="M524.2,18.4c0-2.1,1.8-3.2,5.9-3.7c0-1.2-0.4-2.2-1.9-2.2c-1,0-2,0.5-2.9,1l-0.8-1.4c1-0.6,2.4-1.3,4-1.3
							c2.5,0,3.6,1.6,3.6,4.2v6h-1.7l-0.2-1.1h-0.1c-0.9,0.8-2,1.4-3.2,1.4C525.4,21.2,524.2,20.1,524.2,18.4z M530.1,18.4V16
							c-2.9,0.4-3.9,1.1-3.9,2.2c0,1,0.7,1.4,1.5,1.4C528.6,19.6,529.3,19.2,530.1,18.4z"/>
						<path d="M535.1,11.1h1.7l0.2,1.4h0.1c0.9-0.9,1.9-1.6,3.3-1.6c2.1,0,3,1.4,3,3.9V21h-2.1v-6c0-1.7-0.5-2.4-1.7-2.4
							c-0.9,0-1.5,0.5-2.4,1.3v7h-2.1V11.1z"/>
						<path d="M545.6,16.1c0-3.3,2.3-5.2,4.9-5.2c1.3,0,2.2,0.5,2.9,1.1l-1,1.4c-0.5-0.5-1.1-0.8-1.8-0.8c-1.7,0-2.8,1.4-2.8,3.5
							c0,2.1,1.1,3.5,2.8,3.5c0.8,0,1.6-0.4,2.2-0.9l0.8,1.4c-0.9,0.8-2.1,1.2-3.2,1.2C547.7,21.2,545.6,19.3,545.6,16.1z"/>
						<path d="M554.5,16.1c0-3.2,2.2-5.2,4.5-5.2c2.6,0,4,1.9,4,4.7c0,0.4,0,0.8-0.1,1h-6.4c0.2,1.9,1.3,3,3.1,3
							c0.9,0,1.6-0.3,2.4-0.7l0.7,1.3c-0.9,0.6-2.1,1-3.3,1C556.6,21.2,554.5,19.3,554.5,16.1z M561.2,15.2c0-1.7-0.8-2.7-2.2-2.7
							c-1.2,0-2.3,1-2.5,2.7H561.2z"/>
						<path d="M565.3,11.1h1.7l0.2,1.8h0.1c0.7-1.3,1.7-2,2.8-2c0.5,0,0.8,0.1,1.1,0.2l-0.4,1.8c-0.3-0.1-0.6-0.2-1-0.2
							c-0.8,0-1.8,0.6-2.4,2.1V21h-2.1V11.1z"/>
						<path d="M577.1,17.8v-5h-1.4v-1.5l1.5-0.1l0.2-2.7h1.7v2.7h2.6v1.7h-2.6v5c0,1.2,0.4,1.8,1.4,1.8c0.3,0,0.8-0.1,1.1-0.2
							l0.4,1.5c-0.6,0.2-1.2,0.4-1.9,0.4C577.8,21.2,577.1,19.8,577.1,17.8z"/>
						<path d="M583.9,6.6h2.1v3.8l-0.1,2c0.9-0.8,1.9-1.6,3.2-1.6c2.1,0,3,1.4,3,3.9V21H590v-6c0-1.7-0.5-2.4-1.7-2.4
							c-0.9,0-1.5,0.5-2.4,1.3v7h-2.1V6.6z"/>
						<path d="M594.4,16.1c0-3.2,2.2-5.2,4.5-5.2c2.6,0,4,1.9,4,4.7c0,0.4,0,0.8-0.1,1h-6.4c0.2,1.9,1.4,3,3.1,3
							c0.9,0,1.6-0.3,2.4-0.7l0.7,1.3c-0.9,0.6-2.1,1-3.3,1C596.5,21.2,594.4,19.3,594.4,16.1z M601.1,15.2c0-1.7-0.8-2.7-2.2-2.7
							c-1.2,0-2.3,1-2.5,2.7H601.1z"/>
						<path d="M605.2,11.1h1.7l0.2,1.8h0.1c0.7-1.3,1.7-2,2.8-2c0.5,0,0.8,0.1,1.1,0.2l-0.4,1.8c-0.3-0.1-0.6-0.2-1-0.2
							c-0.8,0-1.8,0.6-2.4,2.1V21h-2.1V11.1z"/>
						<path d="M611.5,18.4c0-2.1,1.8-3.2,5.9-3.7c0-1.2-0.4-2.2-1.9-2.2c-1,0-2,0.5-2.9,1l-0.8-1.4c1-0.6,2.4-1.3,4-1.3
							c2.5,0,3.6,1.6,3.6,4.2v6h-1.7l-0.2-1.1h-0.1c-0.9,0.8-2,1.4-3.2,1.4C612.7,21.2,611.5,20.1,611.5,18.4z M617.4,18.4V16
							c-2.9,0.4-3.9,1.1-3.9,2.2c0,1,0.7,1.4,1.5,1.4C615.9,19.6,616.6,19.2,617.4,18.4z"/>
						<path d="M622.4,11.1h1.7l0.2,1.1h0.1c0.9-0.7,1.9-1.3,3-1.3c2.5,0,3.9,2,3.9,5c0,3.4-2,5.3-4.3,5.3c-0.9,0-1.8-0.4-2.6-1.1
							l0.1,1.7V25h-2.1V11.1z M629.2,15.9c0-2.1-0.7-3.3-2.3-3.3c-0.8,0-1.5,0.4-2.4,1.2v4.8c0.8,0.7,1.5,0.9,2.2,0.9
							C628.1,19.5,629.2,18.2,629.2,15.9z"/>
						<path d="M633.1,16.1c0-3.2,2.2-5.2,4.5-5.2c2.6,0,4,1.9,4,4.7c0,0.4,0,0.8-0.1,1h-6.4c0.2,1.9,1.4,3,3.1,3
							c0.9,0,1.6-0.3,2.4-0.7l0.7,1.3c-0.9,0.6-2.1,1-3.3,1C635.2,21.2,633.1,19.3,633.1,16.1z M639.8,15.2c0-1.7-0.8-2.7-2.2-2.7
							c-1.2,0-2.3,1-2.5,2.7H639.8z"/>
						<path d="M643.8,17.3v-6.2h2.1v6c0,1.7,0.5,2.4,1.7,2.4c0.9,0,1.5-0.4,2.4-1.5v-6.9h2.1V21h-1.7l-0.2-1.5h-0.1
							c-0.9,1-1.9,1.7-3.2,1.7C644.7,21.2,643.8,19.8,643.8,17.3z"/>
						<path d="M655.4,17.8v-5H654v-1.5l1.5-0.1l0.2-2.7h1.7v2.7h2.6v1.7h-2.6v5c0,1.2,0.4,1.8,1.4,1.8c0.3,0,0.8-0.1,1.1-0.2
							l0.4,1.5c-0.6,0.2-1.2,0.4-1.9,0.4C656.2,21.2,655.4,19.8,655.4,17.8z"/>
						<path d="M661.9,8c0-0.7,0.6-1.2,1.3-1.2s1.3,0.5,1.3,1.2c0,0.7-0.6,1.2-1.3,1.2S661.9,8.7,661.9,8z M662.2,11.1h2.1V21h-2.1
							V11.1z"/>
						<path d="M666.7,16.1c0-3.3,2.3-5.2,4.9-5.2c1.3,0,2.2,0.5,2.9,1.1l-1,1.4c-0.5-0.5-1.1-0.8-1.8-0.8c-1.7,0-2.8,1.4-2.8,3.5
							c0,2.1,1.1,3.5,2.8,3.5c0.8,0,1.6-0.4,2.2-0.9l0.8,1.4c-0.9,0.8-2.1,1.2-3.2,1.2C668.7,21.2,666.7,19.3,666.7,16.1z"/>
						<path d="M680,16.1c0-3.3,2.3-5.2,4.9-5.2c1.3,0,2.2,0.5,2.9,1.1l-1,1.4c-0.5-0.5-1.1-0.8-1.8-0.8c-1.7,0-2.8,1.4-2.8,3.5
							c0,2.1,1.1,3.5,2.8,3.5c0.8,0,1.6-0.4,2.2-0.9L688,20c-0.9,0.8-2.1,1.2-3.2,1.2C682.1,21.2,680,19.3,680,16.1z"/>
						<path d="M689.3,18.4c0-2.1,1.8-3.2,5.9-3.7c0-1.2-0.4-2.2-1.9-2.2c-1,0-2,0.5-2.9,1l-0.8-1.4c1-0.6,2.4-1.3,4-1.3
							c2.5,0,3.6,1.6,3.6,4.2v6h-1.7l-0.2-1.1h-0.1c-0.9,0.8-2,1.4-3.2,1.4C690.5,21.2,689.3,20.1,689.3,18.4z M695.2,18.4V16
							c-2.9,0.4-3.9,1.1-3.9,2.2c0,1,0.7,1.4,1.5,1.4C693.7,19.6,694.4,19.2,695.2,18.4z"/>
						<path d="M700.2,11.1h1.7l0.2,1.4h0.1c0.9-0.9,1.9-1.6,3.3-1.6c2.1,0,3,1.4,3,3.9V21h-2.1v-6c0-1.7-0.5-2.4-1.7-2.4
							c-0.9,0-1.5,0.5-2.4,1.3v7h-2.1V11.1z"/>
						<path d="M710.7,16.1c0-3.3,2.3-5.2,4.9-5.2c1.3,0,2.2,0.5,2.9,1.1l-1,1.4c-0.5-0.5-1.1-0.8-1.8-0.8c-1.7,0-2.8,1.4-2.8,3.5
							c0,2.1,1.1,3.5,2.8,3.5c0.8,0,1.6-0.4,2.2-0.9l0.8,1.4c-0.9,0.8-2.1,1.2-3.2,1.2C712.8,21.2,710.7,19.3,710.7,16.1z"/>
						<path d="M719.6,16.1c0-3.2,2.2-5.2,4.5-5.2c2.6,0,4,1.9,4,4.7c0,0.4,0,0.8-0.1,1h-6.4c0.2,1.9,1.4,3,3.1,3
							c0.9,0,1.6-0.3,2.4-0.7l0.7,1.3c-0.9,0.6-2.1,1-3.3,1C721.7,21.2,719.6,19.3,719.6,16.1z M726.3,15.2c0-1.7-0.8-2.7-2.2-2.7
							c-1.2,0-2.3,1-2.5,2.7H726.3z"/>
						<path d="M730.4,11.1h1.7l0.2,1.8h0.1c0.7-1.3,1.7-2,2.8-2c0.5,0,0.8,0.1,1.1,0.2l-0.4,1.8c-0.3-0.1-0.6-0.2-1-0.2
							c-0.8,0-1.8,0.6-2.4,2.1V21h-2.1V11.1z"/>
						<path d="M740.5,11.1h2.1l1.7,5.3c0.3,1,0.6,2,0.9,3h0.1c0.3-1,0.6-2,0.9-3l1.7-5.3h2l-3.4,9.9H744L740.5,11.1z"/>
						<path d="M750.7,18.4c0-2.1,1.8-3.2,5.9-3.7c0-1.2-0.4-2.2-1.9-2.2c-1,0-2,0.5-2.9,1l-0.8-1.4c1-0.6,2.4-1.3,4-1.3
							c2.5,0,3.6,1.6,3.6,4.2v6H757l-0.2-1.1h-0.1c-0.9,0.8-2,1.4-3.2,1.4C751.9,21.2,750.7,20.1,750.7,18.4z M756.6,18.4V16
							c-2.9,0.4-3.9,1.1-3.9,2.2c0,1,0.7,1.4,1.5,1.4C755.1,19.6,755.8,19.2,756.6,18.4z"/>
						<path d="M760.9,16.1c0-3.3,2.3-5.2,4.9-5.2c1.3,0,2.2,0.5,2.9,1.1l-1,1.4c-0.5-0.5-1.1-0.8-1.8-0.8c-1.7,0-2.8,1.4-2.8,3.5
							c0,2.1,1.1,3.5,2.8,3.5c0.8,0,1.6-0.4,2.2-0.9l0.8,1.4c-0.9,0.8-2.1,1.2-3.2,1.2C763,21.2,760.9,19.3,760.9,16.1z"/>
						<path d="M769.8,16.1c0-3.3,2.3-5.2,4.9-5.2c1.3,0,2.2,0.5,2.9,1.1l-1,1.4c-0.5-0.5-1.1-0.8-1.8-0.8c-1.7,0-2.8,1.4-2.8,3.5
							c0,2.1,1.1,3.5,2.8,3.5c0.8,0,1.6-0.4,2.2-0.9l0.8,1.4c-0.9,0.8-2.1,1.2-3.2,1.2C771.8,21.2,769.8,19.3,769.8,16.1z"/>
						<path d="M779.5,8c0-0.7,0.6-1.2,1.3-1.2s1.3,0.5,1.3,1.2c0,0.7-0.6,1.2-1.3,1.2S779.5,8.7,779.5,8z M779.8,11.1h2.1V21h-2.1
							V11.1z"/>
						<path d="M784.9,11.1h1.7l0.2,1.4h0.1c0.9-0.9,1.9-1.6,3.3-1.6c2.1,0,3,1.4,3,3.9V21h-2.1v-6c0-1.7-0.5-2.4-1.7-2.4
							c-0.9,0-1.5,0.5-2.4,1.3v7h-2.1V11.1z"/>
						<path d="M795.5,16.1c0-3.2,2.2-5.2,4.5-5.2c2.6,0,4,1.9,4,4.7c0,0.4,0,0.8-0.1,1h-6.4c0.2,1.9,1.3,3,3.1,3
							c0.9,0,1.6-0.3,2.4-0.7l0.7,1.3c-0.9,0.6-2.1,1-3.3,1C797.6,21.2,795.5,19.3,795.5,16.1z M802.2,15.2c0-1.7-0.8-2.7-2.2-2.7
							c-1.2,0-2.3,1-2.5,2.7H802.2z"/>
					</g>
					<path id="divider" class="st3" d="M0,42.5h1000"/>
				</g>
				<g id="cell2" transform="translate(0.000000, 123.000000)">
					<g class="st1">
						<path d="M95.8,7.7h2.8l1.8,6.5c0.4,1.5,0.7,2.8,1.1,4.3h0.1c0.4-1.5,0.7-2.8,1.1-4.3l1.7-6.5h2.7L103,21h-3.2L95.8,7.7z"/>
						<path d="M108.6,7.7h3l2.3,6.2c0.3,0.8,0.5,1.7,0.8,2.6h0.1c0.3-0.9,0.5-1.7,0.8-2.6l2.2-6.2h3V21h-2.4v-5.6
							c0-1.3,0.2-3.1,0.3-4.4h-0.1l-1.1,3.1l-2.1,5.6h-1.5l-2.1-5.6l-1.1-3.1h-0.1c0.1,1.3,0.3,3.1,0.3,4.4V21h-2.4V7.7z"/>
						<path d="M122.8,19.4l1.2-1.7c0.8,0.7,1.7,1.4,2.9,1.4c1.4,0,2.4-0.9,2.4-2.4c0-1.5-0.9-2.4-2.3-2.4c-0.8,0-1.2,0.2-2,0.7
							l-1.2-0.8l0.4-6.5h7.1v2.2h-4.8l-0.3,2.8c0.5-0.3,1-0.4,1.6-0.4c2.2,0,4.1,1.3,4.1,4.2c0,3-2.2,4.7-4.7,4.7
							C125.2,21.3,123.8,20.4,122.8,19.4z"/>
						<path d="M133.7,14.3c0-4.6,1.8-6.9,4.5-6.9c2.7,0,4.5,2.3,4.5,6.9c0,4.6-1.8,7-4.5,7C135.5,21.3,133.7,18.9,133.7,14.3z
							 M140.3,14.3c0-3.7-0.9-4.8-2-4.8c-1.2,0-2,1.1-2,4.8c0,3.7,0.9,4.9,2,4.9C139.4,19.2,140.3,18,140.3,14.3z"/>
						<path d="M145,18.9h2.9v-8.4h-2.4V8.8c1.3-0.3,2.3-0.6,3.1-1.1h2v11.2h2.5V21h-8V18.9z"/>
					</g>
					<g class="st1">
						<path d="M425.6,14.4c0-4.3,2.6-6.9,6-6.9c1.7,0,3,0.8,3.8,1.7l-1.1,1.3c-0.7-0.7-1.5-1.2-2.6-1.2c-2.3,0-3.9,1.9-3.9,5
							c0,3.2,1.5,5.1,3.8,5.1c1.2,0,2.1-0.5,2.9-1.4l1.1,1.3c-1.1,1.2-2.4,1.9-4.1,1.9C428.2,21.2,425.6,18.7,425.6,14.4z"/>
						<path d="M437.8,6.6h2.1v3.8l-0.1,2c0.9-0.8,1.9-1.6,3.2-1.6c2.1,0,3,1.4,3,3.9V21h-2.1v-6c0-1.7-0.5-2.4-1.7-2.4
							c-0.9,0-1.5,0.5-2.4,1.3v7h-2.1V6.6z"/>
						<path d="M448.3,16.1c0-3.2,2.2-5.2,4.5-5.2c2.6,0,4,1.9,4,4.7c0,0.4,0,0.8-0.1,1h-6.4c0.2,1.9,1.4,3,3.1,3
							c0.9,0,1.6-0.3,2.4-0.7l0.7,1.3c-0.9,0.6-2.1,1-3.3,1C450.4,21.2,448.3,19.3,448.3,16.1z M455,15.2c0-1.7-0.8-2.7-2.2-2.7
							c-1.2,0-2.3,1-2.5,2.7H455z"/>
						<path d="M459.1,11.1h1.7l0.2,1.4h0.1c0.8-0.9,1.8-1.6,3.1-1.6c1.5,0,2.3,0.7,2.7,1.8c1-1,2-1.8,3.2-1.8c2.1,0,3,1.4,3,3.9V21
							H471v-6c0-1.7-0.5-2.4-1.7-2.4c-0.7,0-1.4,0.5-2.2,1.3v7h-2.1v-6c0-1.7-0.5-2.4-1.7-2.4c-0.7,0-1.4,0.5-2.2,1.3v7h-2.1V11.1z"
							/>
						<path d="M475.4,16.1c0-3.3,2.2-5.2,4.7-5.2s4.7,1.9,4.7,5.2c0,3.3-2.2,5.2-4.7,5.2S475.4,19.3,475.4,16.1z M482.6,16.1
							c0-2.1-1-3.5-2.5-3.5c-1.5,0-2.5,1.4-2.5,3.5c0,2.1,1,3.5,2.5,3.5C481.6,19.5,482.6,18.2,482.6,16.1z"/>
						<path d="M487.1,17.8v-5h-1.4v-1.5l1.5-0.1l0.2-2.7h1.7v2.7h2.6v1.7h-2.6v5c0,1.2,0.4,1.8,1.4,1.8c0.3,0,0.8-0.1,1.1-0.2
							l0.4,1.5c-0.6,0.2-1.2,0.4-1.9,0.4C487.8,21.2,487.1,19.8,487.1,17.8z"/>
						<path d="M493.9,6.6h2.1v3.8l-0.1,2c0.9-0.8,1.9-1.6,3.2-1.6c2.1,0,3,1.4,3,3.9V21H500v-6c0-1.7-0.5-2.4-1.7-2.4
							c-0.9,0-1.5,0.5-2.4,1.3v7h-2.1V6.6z"/>
						<path d="M504.3,16.1c0-3.2,2.2-5.2,4.5-5.2c2.6,0,4,1.9,4,4.7c0,0.4,0,0.8-0.1,1h-6.4c0.2,1.9,1.3,3,3.1,3
							c0.9,0,1.6-0.3,2.4-0.7l0.7,1.3c-0.9,0.6-2.1,1-3.3,1C506.5,21.2,504.3,19.3,504.3,16.1z M511.1,15.2c0-1.7-0.8-2.7-2.2-2.7
							c-1.2,0-2.3,1-2.5,2.7H511.1z"/>
						<path d="M515.2,11.1h1.7l0.2,1.8h0.1c0.7-1.3,1.7-2,2.8-2c0.5,0,0.8,0.1,1.1,0.2l-0.4,1.8c-0.3-0.1-0.6-0.2-1-0.2
							c-0.8,0-1.8,0.6-2.4,2.1V21h-2.1V11.1z"/>
						<path d="M521.5,18.4c0-2.1,1.8-3.2,5.9-3.7c0-1.2-0.4-2.2-1.9-2.2c-1,0-2,0.5-2.9,1l-0.8-1.4c1-0.6,2.4-1.3,4-1.3
							c2.5,0,3.6,1.6,3.6,4.2v6h-1.7l-0.2-1.1h-0.1c-0.9,0.8-2,1.4-3.2,1.4C522.7,21.2,521.5,20.1,521.5,18.4z M527.4,18.4V16
							c-2.9,0.4-3.9,1.1-3.9,2.2c0,1,0.7,1.4,1.5,1.4C525.9,19.6,526.6,19.2,527.4,18.4z"/>
						<path d="M532.4,11.1h1.7l0.2,1.1h0.1c0.9-0.7,1.9-1.3,3-1.3c2.5,0,3.9,2,3.9,5c0,3.4-2,5.3-4.3,5.3c-0.9,0-1.8-0.4-2.6-1.1
							l0.1,1.7V25h-2.1V11.1z M539.1,15.9c0-2.1-0.7-3.3-2.3-3.3c-0.8,0-1.5,0.4-2.4,1.2v4.8c0.8,0.7,1.5,0.9,2.2,0.9
							C538.1,19.5,539.1,18.2,539.1,15.9z"/>
						<path d="M548,21.6c-0.8,2.1-1.8,3.5-3.9,3.5c-0.5,0-0.9-0.1-1.2-0.2l0.4-1.6c0.2,0.1,0.5,0.1,0.7,0.1c1.1,0,1.7-0.8,2.1-1.9
							l0.2-0.7l-3.9-9.8h2.1l1.8,5.1c0.3,0.9,0.6,1.9,0.9,2.8h0.1l0.8-2.8l1.6-5.1h2L548,21.6z"/>
						<path d="M557.2,8c0-0.7,0.6-1.2,1.3-1.2c0.8,0,1.3,0.5,1.3,1.2c0,0.7-0.6,1.2-1.3,1.2C557.8,9.2,557.2,8.7,557.2,8z
							 M557.5,11.1h2.1V21h-2.1V11.1z"/>
						<path d="M562.7,11.1h1.7l0.2,1.4h0.1c0.9-0.9,1.9-1.6,3.3-1.6c2.1,0,3,1.4,3,3.9V21h-2.1v-6c0-1.7-0.5-2.4-1.7-2.4
							c-0.9,0-1.5,0.5-2.4,1.3v7h-2.1V11.1z"/>
						<path d="M573.2,16.1c0-3.2,2-5.2,4.2-5.2c1.1,0,1.9,0.4,2.7,1.1l-0.1-1.6V6.6h2.1V21h-1.7l-0.2-1.1h-0.1
							c-0.7,0.8-1.8,1.4-2.9,1.4C574.8,21.2,573.2,19.3,573.2,16.1z M580,18.3v-4.8c-0.7-0.7-1.4-0.9-2.2-0.9
							c-1.4,0-2.5,1.3-2.5,3.5c0,2.3,0.9,3.5,2.4,3.5C578.6,19.5,579.3,19.1,580,18.3z"/>
						<path d="M585.1,17.3v-6.2h2.1v6c0,1.7,0.5,2.4,1.7,2.4c0.9,0,1.5-0.4,2.4-1.5v-6.9h2.1V21h-1.7l-0.2-1.5h-0.1
							c-0.9,1-1.9,1.7-3.2,1.7C586,21.2,585.1,19.8,585.1,17.3z"/>
						<path d="M595.7,16.1c0-3.3,2.3-5.2,4.9-5.2c1.3,0,2.2,0.5,2.9,1.1l-1,1.4c-0.5-0.5-1.1-0.8-1.8-0.8c-1.7,0-2.8,1.4-2.8,3.5
							c0,2.1,1.1,3.5,2.8,3.5c0.8,0,1.6-0.4,2.2-0.9l0.8,1.4c-0.9,0.8-2.1,1.2-3.2,1.2C597.7,21.2,595.7,19.3,595.7,16.1z"/>
						<path d="M604.5,16.1c0-3.2,2.2-5.2,4.5-5.2c2.6,0,4,1.9,4,4.7c0,0.4,0,0.8-0.1,1h-6.4c0.2,1.9,1.3,3,3.1,3
							c0.9,0,1.6-0.3,2.4-0.7l0.7,1.3c-0.9,0.6-2.1,1-3.3,1C606.7,21.2,604.5,19.3,604.5,16.1z M611.3,15.2c0-1.7-0.8-2.7-2.2-2.7
							c-1.2,0-2.3,1-2.5,2.7H611.3z"/>
						<path d="M614.7,16.1c0-3.2,2-5.2,4.2-5.2c1.1,0,1.9,0.4,2.7,1.1l-0.1-1.6V6.6h2.1V21h-1.7l-0.2-1.1h-0.1
							c-0.7,0.8-1.8,1.4-2.9,1.4C616.3,21.2,614.7,19.3,614.7,16.1z M621.5,18.3v-4.8c-0.7-0.7-1.4-0.9-2.2-0.9
							c-1.4,0-2.5,1.3-2.5,3.5c0,2.3,0.9,3.5,2.4,3.5C620.1,19.5,620.8,19.1,621.5,18.3z"/>
						<path d="M631.1,17.8v-5h-1.4v-1.5l1.5-0.1l0.2-2.7h1.7v2.7h2.6v1.7h-2.6v5c0,1.2,0.4,1.8,1.4,1.8c0.3,0,0.8-0.1,1.1-0.2
							l0.4,1.5c-0.6,0.2-1.2,0.4-1.9,0.4C631.9,21.2,631.1,19.8,631.1,17.8z"/>
						<path d="M637.9,6.6h2.1v3.8l-0.1,2c0.9-0.8,1.9-1.6,3.2-1.6c2.1,0,3,1.4,3,3.9V21h-2.1v-6c0-1.7-0.5-2.4-1.7-2.4
							c-0.9,0-1.5,0.5-2.4,1.3v7h-2.1V6.6z"/>
						<path d="M649.1,11.1h1.7l0.2,1.8h0.1c0.7-1.3,1.7-2,2.8-2c0.5,0,0.8,0.1,1.1,0.2l-0.4,1.8c-0.3-0.1-0.6-0.2-1-0.2
							c-0.8,0-1.8,0.6-2.4,2.1V21h-2.1V11.1z"/>
						<path d="M655.5,16.1c0-3.3,2.2-5.2,4.7-5.2c2.4,0,4.7,1.9,4.7,5.2c0,3.3-2.2,5.2-4.7,5.2C657.8,21.2,655.5,19.3,655.5,16.1z
							 M662.8,16.1c0-2.1-1-3.5-2.5-3.5c-1.5,0-2.5,1.4-2.5,3.5c0,2.1,1,3.5,2.5,3.5C661.8,19.5,662.8,18.2,662.8,16.1z"/>
						<path d="M667.3,11.1h1.7l0.2,1.4h0.1c0.8-0.9,1.8-1.6,3.1-1.6c1.5,0,2.3,0.7,2.7,1.8c1-1,2-1.8,3.2-1.8c2.1,0,3,1.4,3,3.9V21
							h-2.1v-6c0-1.7-0.5-2.4-1.7-2.4c-0.7,0-1.4,0.5-2.2,1.3v7h-2.1v-6c0-1.7-0.5-2.4-1.7-2.4c-0.7,0-1.4,0.5-2.2,1.3v7h-2.1V11.1z
							"/>
						<path d="M686.1,20L686.1,20l-0.3,1h-1.6V6.6h2.1v3.8l-0.1,1.7c0.8-0.7,1.9-1.3,3-1.3c2.5,0,3.9,2,3.9,5c0,3.4-2,5.3-4.3,5.3
							C688,21.2,687,20.8,686.1,20z M691,15.9c0-2.1-0.7-3.3-2.3-3.3c-0.8,0-1.5,0.4-2.4,1.2v4.8c0.8,0.7,1.5,0.9,2.2,0.9
							C689.9,19.5,691,18.2,691,15.9z"/>
						<path d="M694.9,16.1c0-3.3,2.2-5.2,4.7-5.2c2.4,0,4.7,1.9,4.7,5.2c0,3.3-2.2,5.2-4.7,5.2C697.1,21.2,694.9,19.3,694.9,16.1z
							 M702.1,16.1c0-2.1-1-3.5-2.5-3.5c-1.5,0-2.5,1.4-2.5,3.5c0,2.1,1,3.5,2.5,3.5C701.1,19.5,702.1,18.2,702.1,16.1z"/>
						<path d="M705.9,16.1c0-3.3,2.3-5.2,4.9-5.2c1.3,0,2.2,0.5,2.9,1.1l-1,1.4c-0.5-0.5-1.1-0.8-1.8-0.8c-1.7,0-2.8,1.4-2.8,3.5
							c0,2.1,1.1,3.5,2.8,3.5c0.8,0,1.6-0.4,2.2-0.9l0.8,1.4c-0.9,0.8-2.1,1.2-3.2,1.2C708,21.2,705.9,19.3,705.9,16.1z"/>
						<path d="M720.4,21.6c-0.8,2.1-1.8,3.5-3.9,3.5c-0.5,0-0.9-0.1-1.2-0.2l0.4-1.6c0.2,0.1,0.5,0.1,0.7,0.1c1.1,0,1.7-0.8,2.1-1.9
							l0.2-0.7l-3.9-9.8h2.1l1.8,5.1c0.3,0.9,0.6,1.9,0.9,2.8h0.1l0.8-2.8l1.6-5.1h2L720.4,21.6z"/>
						<path d="M726.2,17.8v-5h-1.4v-1.5l1.5-0.1l0.2-2.7h1.7v2.7h2.6v1.7h-2.6v5c0,1.2,0.4,1.8,1.4,1.8c0.3,0,0.8-0.1,1.1-0.2
							l0.4,1.5c-0.6,0.2-1.2,0.4-1.9,0.4C726.9,21.2,726.2,19.8,726.2,17.8z"/>
						<path d="M732,16.1c0-3.3,2.2-5.2,4.7-5.2c2.4,0,4.7,1.9,4.7,5.2c0,3.3-2.2,5.2-4.7,5.2C734.2,21.2,732,19.3,732,16.1z
							 M739.2,16.1c0-2.1-1-3.5-2.5-3.5c-1.5,0-2.5,1.4-2.5,3.5c0,2.1,1,3.5,2.5,3.5C738.2,19.5,739.2,18.2,739.2,16.1z"/>
						<path d="M743.7,11.1h1.7l0.2,1.1h0.1c0.9-0.7,1.9-1.3,3-1.3c2.5,0,3.9,2,3.9,5c0,3.4-2,5.3-4.3,5.3c-0.9,0-1.8-0.4-2.6-1.1
							l0.1,1.7V25h-2.1V11.1z M750.4,15.9c0-2.1-0.7-3.3-2.3-3.3c-0.8,0-1.5,0.4-2.4,1.2v4.8c0.8,0.7,1.5,0.9,2.2,0.9
							C749.4,19.5,750.4,18.2,750.4,15.9z"/>
						<path d="M754.3,16.1c0-3.2,2.2-5.2,4.5-5.2c2.6,0,4,1.9,4,4.7c0,0.4,0,0.8-0.1,1h-6.4c0.2,1.9,1.4,3,3.1,3
							c0.9,0,1.6-0.3,2.4-0.7l0.7,1.3c-0.9,0.6-2.1,1-3.3,1C756.5,21.2,754.3,19.3,754.3,16.1z M761.1,15.2c0-1.7-0.8-2.7-2.2-2.7
							c-1.2,0-2.3,1-2.5,2.7H761.1z"/>
						<path d="M765.2,11.1h1.7l0.2,1.4h0.1c0.9-0.9,1.9-1.6,3.3-1.6c2.1,0,3,1.4,3,3.9V21h-2.1v-6c0-1.7-0.5-2.4-1.7-2.4
							c-0.9,0-1.5,0.5-2.4,1.3v7h-2.1V11.1z"/>
						<path d="M776.2,8c0-0.7,0.6-1.2,1.3-1.2c0.8,0,1.3,0.5,1.3,1.2c0,0.7-0.6,1.2-1.3,1.2C776.7,9.2,776.2,8.7,776.2,8z
							 M776.5,11.1h2.1V21h-2.1V11.1z"/>
						<path d="M781,18.4c0-2.1,1.8-3.2,5.9-3.7c0-1.2-0.4-2.2-1.9-2.2c-1,0-2,0.5-2.9,1l-0.8-1.4c1-0.6,2.4-1.3,4-1.3
							c2.5,0,3.6,1.6,3.6,4.2v6h-1.7l-0.2-1.1h-0.1c-0.9,0.8-2,1.4-3.2,1.4C782.2,21.2,781,20.1,781,18.4z M787,18.4V16
							c-2.9,0.4-3.9,1.1-3.9,2.2c0,1,0.7,1.4,1.5,1.4C785.5,19.6,786.2,19.2,787,18.4z"/>
						<path d="M796.1,15.4c0-3.5,1-6.5,2.7-9.2l1.3,0.6c-1.5,2.6-2.3,5.6-2.3,8.6c0,3,0.7,6.1,2.3,8.6l-1.3,0.6
							C797,21.8,796.1,18.9,796.1,15.4z"/>
						<path d="M801.9,14.4c0-4.3,2.6-6.9,6-6.9c1.7,0,3,0.8,3.8,1.7l-1.1,1.3c-0.7-0.7-1.5-1.2-2.6-1.2c-2.3,0-3.9,1.9-3.9,5
							c0,3.2,1.5,5.1,3.8,5.1c1.2,0,2.1-0.5,2.9-1.4l1.1,1.3c-1.1,1.2-2.4,1.9-4.1,1.9C804.4,21.2,801.9,18.7,801.9,14.4z"/>
						<path d="M814.2,7.7h2.1V21h-2.1V7.7z"/>
						<path d="M822.5,9.5h-3.9V7.7h9.9v1.7h-3.9V21h-2.1V9.5z"/>
						<path d="M829.8,24c1.5-2.6,2.3-5.6,2.3-8.6c0-3-0.7-6-2.3-8.6l1.3-0.6c1.7,2.7,2.7,5.7,2.7,9.2c0,3.6-1,6.5-2.7,9.2L829.8,24z
							"/>
					</g>
					<path class="st3" d="M0,42.5h1000"/>
				</g>
			</g>
		</g>
	</g>
</g>
</svg>
