<?xml version="1.0" encoding="utf-8"?>
<!-- Generator: Adobe Illustrator 23.0.6, SVG Export Plug-In . SVG Version: 6.00 Build 0)  -->
<svg version="1.1" id="레이어_1" xmlns="http://www.w3.org/2000/svg" xmlns:xlink="http://www.w3.org/1999/xlink" x="0px"
	 y="0px" viewBox="0 0 1002 166" style="enable-background:new 0 0 1002 166;" xml:space="preserve">
<style type="text/css">
	.st0{fill-rule:evenodd;clip-rule:evenodd;}
	.st1{enable-background:new    ;}
	.st2{fill:#FFFFFF;}
	.st3{fill:none;stroke:#979797;stroke-linecap:square;}
</style>
<title>표</title>
<desc>Created with Sketch.</desc>
<g id="Page-1">
	<g transform="translate(-189.000000, -2551.000000)">
		<g id="third" transform="translate(190.000000, 2041.000000)">
			<g id="표" transform="translate(0.000000, 510.000000)">
				<g id="head">
					<g>
						<path id="bg" class="st0" d="M8,0h234c4.4,0,8,3.6,8,8v34c0,4.4-3.6,8-8,8H8c-4.4,0-8-3.6-8-8V8C0,3.6,3.6,0,8,0z"/>
						<g class="st1">
							<path class="st2" d="M94.4,19.9H98c2.5,0,4.3,0.9,4.3,3.5c0,2.5-1.9,3.7-4.3,3.7h-1.5V31h-2.2L94.4,19.9L94.4,19.9z
								 M97.9,25.3c1.5,0,2.3-0.6,2.3-1.9s-0.8-1.7-2.3-1.7h-1.3v3.6H97.9z"/>
							<path class="st2" d="M104.2,22.6h1.8l0.1,1.5h0.1c0.6-1.1,1.5-1.7,2.4-1.7c0.5,0,0.7,0.1,1,0.2l-0.4,1.9
								c-0.3-0.1-0.5-0.1-0.9-0.1c-0.7,0-1.5,0.4-1.9,1.7v5h-2.2V22.6z"/>
							<path class="st2" d="M110,26.8c0-2.8,1.9-4.4,4-4.4s4,1.6,4,4.4s-1.9,4.4-4,4.4S110,29.6,110,26.8z M115.8,26.8
								c0-1.6-0.6-2.6-1.8-2.6s-1.8,1-1.8,2.6s0.6,2.6,1.8,2.6S115.8,28.4,115.8,26.8z"/>
							<path class="st2" d="M119.4,32.5c0-0.7,0.4-1.3,1.2-1.7v-0.1c-0.4-0.3-0.8-0.7-0.8-1.4c0-0.6,0.4-1.2,0.9-1.6v-0.1
								c-0.6-0.4-1.1-1.2-1.1-2.2c0-2,1.6-3,3.4-3c0.5,0,0.9,0.1,1.3,0.2h3v1.6h-1.4c0.2,0.3,0.4,0.8,0.4,1.3c0,1.9-1.4,2.8-3.2,2.8
								c-0.3,0-0.7-0.1-1.1-0.2c-0.2,0.2-0.4,0.4-0.4,0.7c0,0.5,0.3,0.7,1.3,0.7h1.4c2,0,3.1,0.6,3.1,2.1c0,1.7-1.8,3-4.6,3
								C120.9,34.6,119.4,34,119.4,32.5z M125.4,32c0-0.6-0.5-0.8-1.4-0.8h-1c-0.5,0-0.9,0-1.2-0.1c-0.4,0.3-0.6,0.6-0.6,1
								c0,0.7,0.8,1.1,2,1.1C124.5,33.2,125.4,32.7,125.4,32z M124.3,25.4c0-1-0.6-1.5-1.3-1.5s-1.3,0.6-1.3,1.5
								c0,1,0.6,1.5,1.3,1.5S124.3,26.4,124.3,25.4z"/>
							<path class="st2" d="M128.9,22.6h1.8l0.1,1.5h0.1c0.6-1.1,1.5-1.7,2.4-1.7c0.5,0,0.7,0.1,1,0.2l-0.4,1.9
								c-0.3-0.1-0.5-0.1-0.9-0.1c-0.7,0-1.5,0.4-1.9,1.7v5h-2.2L128.9,22.6L128.9,22.6z"/>
							<path class="st2" d="M134.5,28.7c0-1.8,1.5-2.7,4.8-3.1c0-0.8-0.4-1.5-1.4-1.5c-0.8,0-1.5,0.3-2.3,0.8l-0.8-1.5
								c1-0.6,2.2-1.1,3.5-1.1c2.1,0,3.2,1.3,3.2,3.7v5h-1.8l-0.2-0.9l0,0c-0.7,0.6-1.6,1.1-2.5,1.1
								C135.5,31.2,134.5,30.1,134.5,28.7z M139.4,28.7V27c-2,0.3-2.7,0.8-2.7,1.6c0,0.7,0.5,0.9,1.1,0.9
								C138.4,29.5,138.9,29.2,139.4,28.7z"/>
							<path class="st2" d="M143.8,22.6h1.8l0.1,1.1h0.1c0.7-0.7,1.5-1.3,2.6-1.3c1.2,0,1.9,0.5,2.3,1.5c0.8-0.8,1.6-1.5,2.7-1.5
								c1.8,0,2.6,1.3,2.6,3.4V31h-2.2v-5c0-1.3-0.4-1.8-1.2-1.8c-0.5,0-1,0.3-1.6,0.9V31h-2.2v-5c0-1.3-0.4-1.8-1.2-1.8
								c-0.5,0-1,0.3-1.6,0.9V31h-2.2L143.8,22.6L143.8,22.6z"/>
						</g>
					</g>
					<g transform="translate(260.000000, 0.000000)">
						<path class="st0" d="M8,0h724c4.4,0,8,3.6,8,8v34c0,4.4-3.6,8-8,8H8c-4.4,0-8-3.6-8-8V8C0,3.6,3.6,0,8,0z"/>
						<g class="st1">
							<path class="st2" d="M310.6,21.7h-3.1v-1.8h8.5v1.8h-3.2V31h-2.2L310.6,21.7L310.6,21.7z"/>
							<path class="st2" d="M317.6,19h2.2v3l-0.1,1.6c0.7-0.6,1.5-1.2,2.6-1.2c1.8,0,2.6,1.3,2.6,3.4V31h-2.2v-5
								c0-1.3-0.4-1.8-1.2-1.8c-0.7,0-1.1,0.3-1.8,0.9V31h-2.2V19H317.6z"/>
							<path class="st2" d="M326.6,26.8c0-2.7,1.9-4.4,3.9-4.4c2.3,0,3.5,1.7,3.5,4c0,0.4,0,0.8-0.1,1h-5.2c0.2,1.4,1.1,2.1,2.3,2.1
								c0.7,0,1.3-0.2,1.9-0.6l0.8,1.4c-0.8,0.6-1.9,0.9-2.9,0.9C328.5,31.2,326.6,29.6,326.6,26.8z M332.2,26
								c0-1.1-0.5-1.9-1.6-1.9c-0.9,0-1.7,0.6-1.8,1.9H332.2z"/>
							<path class="st2" d="M335.9,22.6h1.8l0.1,1.5h0.1c0.6-1.1,1.5-1.7,2.4-1.7c0.5,0,0.7,0.1,1,0.2l-0.4,1.9
								c-0.3-0.1-0.5-0.1-0.9-0.1c-0.7,0-1.5,0.4-1.9,1.7v5h-2.2V22.6z"/>
							<path class="st2" d="M341.5,28.7c0-1.8,1.5-2.7,4.8-3.1c0-0.8-0.4-1.5-1.4-1.5c-0.8,0-1.5,0.3-2.3,0.8l-0.8-1.5
								c1-0.6,2.2-1.1,3.5-1.1c2.1,0,3.2,1.3,3.2,3.7v5h-1.8l-0.2-0.9l0,0c-0.7,0.6-1.6,1.1-2.5,1.1
								C342.5,31.2,341.5,30.1,341.5,28.7z M346.4,28.7V27c-2,0.3-2.7,0.8-2.7,1.6c0,0.7,0.5,0.9,1.1,0.9S345.8,29.2,346.4,28.7z"/>
							<path class="st2" d="M350.8,22.6h1.8l0.1,0.9h0.1c0.7-0.6,1.6-1.1,2.5-1.1c2.1,0,3.3,1.7,3.3,4.3c0,2.9-1.7,4.5-3.6,4.5
								c-0.7,0-1.4-0.3-2.1-0.9l0.1,1.4v2.5h-2.2L350.8,22.6L350.8,22.6z M356.3,26.7c0-1.6-0.5-2.5-1.7-2.5c-0.6,0-1.1,0.3-1.7,0.9
								v3.7c0.5,0.5,1.1,0.6,1.5,0.6C355.6,29.4,356.3,28.5,356.3,26.7z"/>
							<path class="st2" d="M359.9,26.8c0-2.7,1.9-4.4,3.9-4.4c2.3,0,3.5,1.7,3.5,4c0,0.4,0,0.8-0.1,1H362c0.2,1.4,1.1,2.1,2.3,2.1
								c0.7,0,1.3-0.2,1.9-0.6l0.8,1.4c-0.8,0.6-1.9,0.9-2.9,0.9C361.8,31.2,359.9,29.6,359.9,26.8z M365.5,26
								c0-1.1-0.5-1.9-1.6-1.9c-0.9,0-1.7,0.6-1.8,1.9H365.5z"/>
							<path class="st2" d="M369.1,27.9v-5.2h2.2v5c0,1.3,0.4,1.8,1.2,1.8c0.7,0,1.1-0.3,1.7-1v-5.7h2.2V31h-1.8l-0.2-1.2h-0.1
								c-0.7,0.9-1.5,1.4-2.7,1.4C369.9,31.2,369.1,30,369.1,27.9z"/>
							<path class="st2" d="M379.1,28.1v-3.7h-1.2v-1.6l1.3-0.1l0.3-2.2h1.8v2.2h2.1v1.7h-2.1v3.7c0,1,0.4,1.4,1.1,1.4
								c0.3,0,0.6-0.1,0.8-0.2l0.4,1.6c-0.5,0.2-1,0.3-1.8,0.3C379.8,31.2,379.1,30,379.1,28.1z"/>
							<path class="st2" d="M384.8,20.1c0-0.7,0.6-1.2,1.3-1.2c0.8,0,1.3,0.5,1.3,1.2s-0.6,1.2-1.3,1.2
								C385.4,21.2,384.8,20.7,384.8,20.1z M385,22.6h2.2V31H385V22.6z"/>
							<path class="st2" d="M389.1,26.8c0-2.8,2-4.4,4.3-4.4c1,0,1.8,0.4,2.4,0.9l-1.1,1.4c-0.4-0.4-0.8-0.6-1.3-0.6
								c-1.3,0-2.1,1-2.1,2.6s0.9,2.6,2.1,2.6c0.6,0,1.2-0.3,1.6-0.7l0.9,1.5c-0.8,0.7-1.8,1-2.7,1
								C390.8,31.2,389.1,29.6,389.1,26.8z"/>
							<path class="st2" d="M406.3,28.2h-3.6l-0.8,2.8h-2.2l3.6-11.1h2.6l3.6,11.1h-2.3L406.3,28.2z M405.8,26.4l-0.3-1.2
								c-0.3-1.2-0.6-2.4-1-3.6h-0.1c-0.3,1.2-0.6,2.5-0.9,3.6l-0.3,1.2H405.8z"/>
							<path class="st2" d="M410.5,22.6h1.8l0.2,1.5h0.1c0.6-1.1,1.5-1.7,2.4-1.7c0.5,0,0.7,0.1,1,0.2l-0.4,1.9
								c-0.3-0.1-0.5-0.1-0.9-0.1c-0.7,0-1.5,0.4-1.9,1.7v5h-2.2v-8.5H410.5z"/>
							<path class="st2" d="M416.4,26.8c0-2.7,1.9-4.4,3.9-4.4c2.3,0,3.5,1.7,3.5,4c0,0.4,0,0.8-0.1,1h-5.2c0.2,1.4,1.1,2.1,2.3,2.1
								c0.7,0,1.3-0.2,1.9-0.6l0.8,1.4c-0.8,0.6-1.9,0.9-2.9,0.9C418.2,31.2,416.4,29.6,416.4,26.8z M421.9,26
								c0-1.1-0.5-1.9-1.6-1.9c-0.9,0-1.7,0.6-1.8,1.9H421.9z"/>
							<path class="st2" d="M425,28.7c0-1.8,1.5-2.7,4.8-3.1c0-0.8-0.4-1.5-1.4-1.5c-0.8,0-1.5,0.3-2.3,0.8l-0.8-1.5
								c1-0.6,2.2-1.1,3.5-1.1c2.1,0,3.2,1.3,3.2,3.7v5h-1.8l-0.2-0.9l0,0c-0.7,0.6-1.6,1.1-2.5,1.1C426,31.2,425,30.1,425,28.7z
								 M429.8,28.7V27c-2,0.3-2.7,0.8-2.7,1.6c0,0.7,0.5,0.9,1.1,0.9S429.3,29.2,429.8,28.7z"/>
						</g>
					</g>
				</g>
				<g id="cell1" transform="translate(0.000000, 65.000000)">
					<g class="st1">
						<path d="M95.8,7.7h2.8l1.8,6.5c0.4,1.5,0.7,2.8,1.1,4.3h0.1c0.4-1.5,0.7-2.8,1.1-4.3l1.7-6.5h2.7L103,21h-3.2L95.8,7.7z"/>
						<path d="M108.6,7.7h3l2.3,6.2c0.3,0.8,0.5,1.7,0.8,2.6h0.1c0.3-0.9,0.5-1.7,0.8-2.6l2.2-6.2h3V21h-2.4v-5.6
							c0-1.3,0.2-3.1,0.3-4.4h-0.1l-1.1,3.1l-2.1,5.6h-1.5l-2.1-5.6l-1.1-3.1h-0.1c0.1,1.3,0.3,3.1,0.3,4.4V21h-2.4L108.6,7.7
							L108.6,7.7z"/>
						<path d="M123.1,19.5c3.6-3.2,5.8-5.7,5.8-7.8c0-1.3-0.7-2.2-2-2.2c-1,0-1.8,0.6-2.4,1.4L123,9.4c1.2-1.3,2.4-2,4.2-2
							c2.5,0,4.2,1.6,4.2,4.1c0,2.4-2,5-4.4,7.4c0.7-0.1,1.5-0.1,2.2-0.1h2.9V21h-8.9L123.1,19.5L123.1,19.5z"/>
						<path d="M133.7,14.3c0-4.6,1.8-6.9,4.5-6.9s4.5,2.3,4.5,6.9s-1.8,7-4.5,7S133.7,18.9,133.7,14.3z M140.3,14.3
							c0-3.7-0.9-4.8-2-4.8c-1.2,0-2,1.1-2,4.8s0.9,4.9,2,4.9C139.4,19.2,140.3,18,140.3,14.3z"/>
						<path d="M151.8,10.5c-0.5-0.5-1.3-1-2.1-1c-1.5,0-2.8,1.2-2.9,4.5c0.7-0.9,1.9-1.4,2.7-1.4c2.2,0,3.8,1.3,3.8,4.2
							c0,2.7-1.9,4.4-4.2,4.4c-2.5,0-4.8-2-4.8-6.7c0-5,2.5-7.1,5.1-7.1c1.6,0,2.8,0.7,3.6,1.5L151.8,10.5z M151,16.8
							c0-1.6-0.7-2.3-1.9-2.3c-0.7,0-1.5,0.4-2.2,1.4c0.3,2.4,1.2,3.4,2.3,3.4C150.2,19.3,151,18.4,151,16.8z"/>
					</g>
					<g class="st1">
						<path d="M286,7.7h4.1c2.7,0,4.7,0.9,4.7,3.3c0,1.3-0.7,2.5-1.9,2.9V14c1.5,0.3,2.6,1.4,2.6,3.2c0,2.6-2.1,3.9-5.1,3.9H286V7.7
							z M289.8,13.3c2,0,2.9-0.8,2.9-2c0-1.4-0.9-1.9-2.8-1.9h-1.8v3.9C288.1,13.3,289.8,13.3,289.8,13.3z M290.2,19.4
							c2.1,0,3.3-0.7,3.3-2.4c0-1.5-1.2-2.1-3.3-2.1h-2.1v4.5H290.2z"/>
						<path d="M297.8,11.1h1.7l0.2,1.8h0.1c0.7-1.3,1.7-2,2.8-2c0.5,0,0.8,0.1,1.1,0.2l-0.4,1.8c-0.3-0.1-0.6-0.2-1-0.2
							c-0.8,0-1.8,0.6-2.4,2.1V21h-2.1L297.8,11.1L297.8,11.1z"/>
						<path d="M304.3,16.1c0-3.2,2.2-5.2,4.5-5.2c2.6,0,4,1.9,4,4.7c0,0.4,0,0.8-0.1,1h-6.4c0.2,1.9,1.4,3,3.1,3
							c0.9,0,1.6-0.3,2.4-0.7l0.7,1.3c-0.9,0.6-2.1,1-3.3,1C306.4,21.2,304.3,19.3,304.3,16.1z M311,15.2c0-1.7-0.8-2.7-2.2-2.7
							c-1.2,0-2.3,1-2.5,2.7H311z"/>
						<path d="M314.3,18.4c0-2.1,1.8-3.2,5.9-3.7c0-1.2-0.4-2.2-1.9-2.2c-1,0-2,0.5-2.9,1l-0.8-1.4c1-0.6,2.4-1.3,4-1.3
							c2.5,0,3.6,1.6,3.6,4.2v6h-1.7l-0.2-1.1h-0.1c-0.9,0.8-2,1.4-3.2,1.4C315.5,21.2,314.3,20.1,314.3,18.4z M320.2,18.4V16
							c-2.9,0.4-3.9,1.1-3.9,2.2c0,1,0.7,1.4,1.5,1.4C318.7,19.6,319.4,19.2,320.2,18.4z"/>
						<path d="M324.2,19.9l1-1.3c0.9,0.7,1.7,1.1,2.8,1.1c1.2,0,1.7-0.6,1.7-1.3c0-0.9-1.1-1.3-2.2-1.7c-1.3-0.5-2.8-1.2-2.8-2.9
							s1.3-2.9,3.5-2.9c1.3,0,2.4,0.5,3.2,1.2l-1,1.3c-0.7-0.5-1.4-0.9-2.2-0.9c-1.1,0-1.6,0.5-1.6,1.2c0,0.8,1,1.2,2.1,1.6
							c1.4,0.5,2.9,1.1,2.9,3c0,1.7-1.3,3-3.8,3C326.5,21.2,325.1,20.7,324.2,19.9z"/>
						<path d="M333.8,17.8v-5h-1.4v-1.5l1.5-0.1l0.2-2.7h1.7v2.7h2.6v1.7h-2.6v5c0,1.2,0.4,1.8,1.4,1.8c0.3,0,0.8-0.1,1.1-0.2
							l0.4,1.5c-0.6,0.2-1.2,0.4-1.9,0.4C334.6,21.2,333.8,19.8,333.8,17.8z"/>
						<path d="M343.9,16.1c0-3.3,2.3-5.2,4.9-5.2c1.3,0,2.2,0.5,2.9,1.1l-1,1.4c-0.5-0.5-1.1-0.8-1.8-0.8c-1.7,0-2.8,1.4-2.8,3.5
							s1.1,3.5,2.8,3.5c0.8,0,1.6-0.4,2.2-0.9l0.8,1.4c-0.9,0.8-2.1,1.2-3.2,1.2C346,21.2,343.9,19.3,343.9,16.1z"/>
						<path d="M353.2,18.4c0-2.1,1.8-3.2,5.9-3.7c0-1.2-0.4-2.2-1.9-2.2c-1,0-2,0.5-2.9,1l-0.8-1.4c1-0.6,2.4-1.3,4-1.3
							c2.5,0,3.6,1.6,3.6,4.2v6h-1.7l-0.2-1.1h-0.1c-0.9,0.8-2,1.4-3.2,1.4C354.4,21.2,353.2,20.1,353.2,18.4z M359.1,18.4V16
							c-2.9,0.4-3.9,1.1-3.9,2.2c0,1,0.7,1.4,1.5,1.4C357.6,19.6,358.3,19.2,359.1,18.4z"/>
						<path d="M364.1,11.1h1.7l0.2,1.4h0.1c0.9-0.9,1.9-1.6,3.3-1.6c2.1,0,3,1.4,3,3.9V21h-2.1v-6c0-1.7-0.5-2.4-1.7-2.4
							c-0.9,0-1.5,0.5-2.4,1.3v7h-2.1V11.1z"/>
						<path d="M374.6,16.1c0-3.3,2.3-5.2,4.9-5.2c1.3,0,2.2,0.5,2.9,1.1l-1,1.4c-0.5-0.5-1.1-0.8-1.8-0.8c-1.7,0-2.8,1.4-2.8,3.5
							s1.1,3.5,2.8,3.5c0.8,0,1.6-0.4,2.2-0.9l0.8,1.4c-0.9,0.8-2.1,1.2-3.2,1.2C376.7,21.2,374.6,19.3,374.6,16.1z"/>
						<path d="M383.5,16.1c0-3.2,2.2-5.2,4.5-5.2c2.6,0,4,1.9,4,4.7c0,0.4,0,0.8-0.1,1h-6.4c0.2,1.9,1.3,3,3.1,3
							c0.9,0,1.6-0.3,2.4-0.7l0.7,1.3c-0.9,0.6-2.1,1-3.3,1C385.6,21.2,383.5,19.3,383.5,16.1z M390.2,15.2c0-1.7-0.8-2.7-2.2-2.7
							c-1.2,0-2.3,1-2.5,2.7H390.2z"/>
						<path d="M394.3,11.1h1.7l0.2,1.8h0.1c0.7-1.3,1.7-2,2.8-2c0.5,0,0.8,0.1,1.1,0.2l-0.4,1.8c-0.3-0.1-0.6-0.2-1-0.2
							c-0.8,0-1.8,0.6-2.4,2.1V21h-2.1L394.3,11.1L394.3,11.1z"/>
						<path d="M406.1,17.8v-5h-1.4v-1.5l1.5-0.1l0.2-2.7h1.7v2.7h2.6v1.7h-2.6v5c0,1.2,0.4,1.8,1.4,1.8c0.3,0,0.8-0.1,1.1-0.2
							L411,21c-0.6,0.2-1.2,0.4-1.9,0.4C406.8,21.2,406.1,19.8,406.1,17.8z"/>
						<path d="M412.9,6.6h2.1v3.8l-0.1,2c0.9-0.8,1.9-1.6,3.2-1.6c2.1,0,3,1.4,3,3.9V21H419v-6c0-1.7-0.5-2.4-1.7-2.4
							c-0.9,0-1.5,0.5-2.4,1.3v7h-2.1V6.6H412.9z"/>
						<path d="M423.4,16.1c0-3.2,2.2-5.2,4.5-5.2c2.6,0,4,1.9,4,4.7c0,0.4,0,0.8-0.1,1h-6.4c0.2,1.9,1.4,3,3.1,3
							c0.9,0,1.6-0.3,2.4-0.7l0.7,1.3c-0.9,0.6-2.1,1-3.3,1C425.5,21.2,423.4,19.3,423.4,16.1z M430.1,15.2c0-1.7-0.8-2.7-2.2-2.7
							c-1.2,0-2.3,1-2.5,2.7H430.1z"/>
						<path d="M434.2,11.1h1.7l0.2,1.8h0.1c0.7-1.3,1.7-2,2.8-2c0.5,0,0.8,0.1,1.1,0.2l-0.4,1.8c-0.3-0.1-0.6-0.2-1-0.2
							c-0.8,0-1.8,0.6-2.4,2.1V21h-2.1L434.2,11.1L434.2,11.1z"/>
						<path d="M440.5,18.4c0-2.1,1.8-3.2,5.9-3.7c0-1.2-0.4-2.2-1.9-2.2c-1,0-2,0.5-2.9,1l-0.8-1.4c1-0.6,2.4-1.3,4-1.3
							c2.5,0,3.6,1.6,3.6,4.2v6h-1.7l-0.2-1.1h-0.1c-0.9,0.8-2,1.4-3.2,1.4C441.7,21.2,440.5,20.1,440.5,18.4z M446.4,18.4V16
							c-2.9,0.4-3.9,1.1-3.9,2.2c0,1,0.7,1.4,1.5,1.4C444.9,19.6,445.6,19.2,446.4,18.4z"/>
						<path d="M451.4,11.1h1.7l0.2,1.1h0.1c0.9-0.7,1.9-1.3,3-1.3c2.5,0,3.9,2,3.9,5c0,3.4-2,5.3-4.3,5.3c-0.9,0-1.8-0.4-2.6-1.1
							l0.1,1.7V25h-2.1L451.4,11.1L451.4,11.1z M458.2,15.9c0-2.1-0.7-3.3-2.3-3.3c-0.8,0-1.5,0.4-2.4,1.2v4.8
							c0.8,0.7,1.5,0.9,2.2,0.9C457.1,19.5,458.2,18.2,458.2,15.9z"/>
						<path d="M462.1,16.1c0-3.2,2.2-5.2,4.5-5.2c2.6,0,4,1.9,4,4.7c0,0.4,0,0.8-0.1,1h-6.4c0.2,1.9,1.4,3,3.1,3
							c0.9,0,1.6-0.3,2.4-0.7l0.7,1.3c-0.9,0.6-2.1,1-3.3,1C464.2,21.2,462.1,19.3,462.1,16.1z M468.8,15.2c0-1.7-0.8-2.7-2.2-2.7
							c-1.2,0-2.3,1-2.5,2.7H468.8z"/>
						<path d="M472.8,17.3v-6.2h2.1v6c0,1.7,0.5,2.4,1.7,2.4c0.9,0,1.5-0.4,2.4-1.5v-6.9h2.1V21h-1.7l-0.2-1.5h-0.1
							c-0.9,1-1.9,1.7-3.2,1.7C473.7,21.2,472.8,19.8,472.8,17.3z"/>
						<path d="M484.4,17.8v-5H483v-1.5l1.5-0.1l0.2-2.7h1.7v2.7h2.6v1.7h-2.6v5c0,1.2,0.4,1.8,1.4,1.8c0.3,0,0.8-0.1,1.1-0.2
							l0.4,1.5c-0.6,0.2-1.2,0.4-1.9,0.4C485.2,21.2,484.4,19.8,484.4,17.8z"/>
						<path d="M490.9,8c0-0.7,0.6-1.2,1.3-1.2s1.3,0.5,1.3,1.2s-0.6,1.2-1.3,1.2S490.9,8.7,490.9,8z M491.2,11.1h2.1V21h-2.1V11.1z"
							/>
						<path d="M495.7,16.1c0-3.3,2.3-5.2,4.9-5.2c1.3,0,2.2,0.5,2.9,1.1l-1,1.4c-0.5-0.5-1.1-0.8-1.8-0.8c-1.7,0-2.8,1.4-2.8,3.5
							s1.1,3.5,2.8,3.5c0.8,0,1.6-0.4,2.2-0.9l0.8,1.4c-0.9,0.8-2.1,1.2-3.2,1.2C497.7,21.2,495.7,19.3,495.7,16.1z"/>
						<path d="M509,16.1c0-3.3,2.3-5.2,4.9-5.2c1.3,0,2.2,0.5,2.9,1.1l-1,1.4c-0.5-0.5-1.1-0.8-1.8-0.8c-1.7,0-2.8,1.4-2.8,3.5
							s1.1,3.5,2.8,3.5c0.8,0,1.6-0.4,2.2-0.9L517,20c-0.9,0.8-2.1,1.2-3.2,1.2C511.1,21.2,509,19.3,509,16.1z"/>
						<path d="M518.3,18.4c0-2.1,1.8-3.2,5.9-3.7c0-1.2-0.4-2.2-1.9-2.2c-1,0-2,0.5-2.9,1l-0.8-1.4c1-0.6,2.4-1.3,4-1.3
							c2.5,0,3.6,1.6,3.6,4.2v6h-1.7l-0.2-1.1h-0.1c-0.9,0.8-2,1.4-3.2,1.4C519.5,21.2,518.3,20.1,518.3,18.4z M524.2,18.4V16
							c-2.9,0.4-3.9,1.1-3.9,2.2c0,1,0.7,1.4,1.5,1.4C522.7,19.6,523.4,19.2,524.2,18.4z"/>
						<path d="M529.2,11.1h1.7l0.2,1.4h0.1c0.9-0.9,1.9-1.6,3.3-1.6c2.1,0,3,1.4,3,3.9V21h-2.1v-6c0-1.7-0.5-2.4-1.7-2.4
							c-0.9,0-1.5,0.5-2.4,1.3v7h-2.1V11.1z"/>
						<path d="M539.7,16.1c0-3.3,2.3-5.2,4.9-5.2c1.3,0,2.2,0.5,2.9,1.1l-1,1.4c-0.5-0.5-1.1-0.8-1.8-0.8c-1.7,0-2.8,1.4-2.8,3.5
							s1.1,3.5,2.8,3.5c0.8,0,1.6-0.4,2.2-0.9l0.8,1.4c-0.9,0.8-2.1,1.2-3.2,1.2C541.8,21.2,539.7,19.3,539.7,16.1z"/>
						<path d="M548.6,16.1c0-3.2,2.2-5.2,4.5-5.2c2.6,0,4,1.9,4,4.7c0,0.4,0,0.8-0.1,1h-6.4c0.2,1.9,1.4,3,3.1,3
							c0.9,0,1.6-0.3,2.4-0.7l0.7,1.3c-0.9,0.6-2.1,1-3.3,1C550.7,21.2,548.6,19.3,548.6,16.1z M555.3,15.2c0-1.7-0.8-2.7-2.2-2.7
							c-1.2,0-2.3,1-2.5,2.7H555.3z"/>
						<path d="M559.4,11.1h1.7l0.2,1.8h0.1c0.7-1.3,1.7-2,2.8-2c0.5,0,0.8,0.1,1.1,0.2l-0.4,1.8c-0.3-0.1-0.6-0.2-1-0.2
							c-0.8,0-1.8,0.6-2.4,2.1V21h-2.1L559.4,11.1L559.4,11.1z"/>
						<path d="M569.5,11.1h2.1l1.7,5.3c0.3,1,0.6,2,0.9,3h0.1c0.3-1,0.6-2,0.9-3l1.7-5.3h2l-3.4,9.9H573L569.5,11.1z"/>
						<path d="M579.7,18.4c0-2.1,1.8-3.2,5.9-3.7c0-1.2-0.4-2.2-1.9-2.2c-1,0-2,0.5-2.9,1l-0.8-1.4c1-0.6,2.4-1.3,4-1.3
							c2.5,0,3.6,1.6,3.6,4.2v6H586l-0.2-1.1h-0.1c-0.9,0.8-2,1.4-3.2,1.4C580.9,21.2,579.7,20.1,579.7,18.4z M585.6,18.4V16
							c-2.9,0.4-3.9,1.1-3.9,2.2c0,1,0.7,1.4,1.5,1.4C584.1,19.6,584.8,19.2,585.6,18.4z"/>
						<path d="M589.9,16.1c0-3.3,2.3-5.2,4.9-5.2c1.3,0,2.2,0.5,2.9,1.1l-1,1.4c-0.5-0.5-1.1-0.8-1.8-0.8c-1.7,0-2.8,1.4-2.8,3.5
							s1.1,3.5,2.8,3.5c0.8,0,1.6-0.4,2.2-0.9l0.8,1.4c-0.9,0.8-2.1,1.2-3.2,1.2C592,21.2,589.9,19.3,589.9,16.1z"/>
						<path d="M598.8,16.1c0-3.3,2.3-5.2,4.9-5.2c1.3,0,2.2,0.5,2.9,1.1l-1,1.4c-0.5-0.5-1.1-0.8-1.8-0.8c-1.7,0-2.8,1.4-2.8,3.5
							s1.1,3.5,2.8,3.5c0.8,0,1.6-0.4,2.2-0.9l0.8,1.4c-0.9,0.8-2.1,1.2-3.2,1.2C600.8,21.2,598.8,19.3,598.8,16.1z"/>
						<path d="M608.5,8c0-0.7,0.6-1.2,1.3-1.2s1.3,0.5,1.3,1.2s-0.6,1.2-1.3,1.2S608.5,8.7,608.5,8z M608.8,11.1h2.1V21h-2.1V11.1z"
							/>
						<path d="M613.9,11.1h1.7l0.2,1.4h0.1c0.9-0.9,1.9-1.6,3.3-1.6c2.1,0,3,1.4,3,3.9V21h-2.1v-6c0-1.7-0.5-2.4-1.7-2.4
							c-0.9,0-1.5,0.5-2.4,1.3v7h-2.1V11.1z"/>
						<path d="M624.5,16.1c0-3.2,2.2-5.2,4.5-5.2c2.6,0,4,1.9,4,4.7c0,0.4,0,0.8-0.1,1h-6.4c0.2,1.9,1.3,3,3.1,3
							c0.9,0,1.6-0.3,2.4-0.7l0.7,1.3c-0.9,0.6-2.1,1-3.3,1C626.6,21.2,624.5,19.3,624.5,16.1z M631.2,15.2c0-1.7-0.8-2.7-2.2-2.7
							c-1.2,0-2.3,1-2.5,2.7H631.2z"/>
					</g>
					<path id="divider" class="st3" d="M0,42.5h1000"/>
				</g>
				<g id="cell2" transform="translate(0.000000, 123.000000)">
					<g class="st1">
						<path d="M95.8,7.7h2.8l1.8,6.5c0.4,1.5,0.7,2.8,1.1,4.3h0.1c0.4-1.5,0.7-2.8,1.1-4.3l1.7-6.5h2.7L103,21h-3.2L95.8,7.7z"/>
						<path d="M108.6,7.7h3l2.3,6.2c0.3,0.8,0.5,1.7,0.8,2.6h0.1c0.3-0.9,0.5-1.7,0.8-2.6l2.2-6.2h3V21h-2.4v-5.6
							c0-1.3,0.2-3.1,0.3-4.4h-0.1l-1.1,3.1l-2.1,5.6h-1.5l-2.1-5.6l-1.1-3.1h-0.1c0.1,1.3,0.3,3.1,0.3,4.4V21h-2.4L108.6,7.7
							L108.6,7.7z"/>
						<path d="M122.8,19.4l1.2-1.7c0.8,0.7,1.7,1.4,2.9,1.4c1.4,0,2.4-0.9,2.4-2.4s-0.9-2.4-2.3-2.4c-0.8,0-1.2,0.2-2,0.7l-1.2-0.8
							l0.4-6.5h7.1v2.2h-4.8l-0.3,2.8c0.5-0.3,1-0.4,1.6-0.4c2.2,0,4.1,1.3,4.1,4.2c0,3-2.2,4.7-4.7,4.7
							C125.2,21.3,123.8,20.4,122.8,19.4z"/>
						<path d="M133.7,14.3c0-4.6,1.8-6.9,4.5-6.9s4.5,2.3,4.5,6.9s-1.8,7-4.5,7S133.7,18.9,133.7,14.3z M140.3,14.3
							c0-3.7-0.9-4.8-2-4.8c-1.2,0-2,1.1-2,4.8s0.9,4.9,2,4.9C139.4,19.2,140.3,18,140.3,14.3z"/>
						<path d="M145,18.9h2.9v-8.4h-2.4V8.8c1.3-0.3,2.3-0.6,3.1-1.1h2v11.2h2.5V21h-8v-2.1H145z"/>
					</g>
					<g class="st1">
						<path d="M285.9,14.4c0-4.3,2.6-6.9,6-6.9c1.7,0,3,0.8,3.8,1.7l-1.1,1.3c-0.7-0.7-1.5-1.2-2.6-1.2c-2.3,0-3.9,1.9-3.9,5
							c0,3.2,1.5,5.1,3.8,5.1c1.2,0,2.1-0.5,2.9-1.4l1.1,1.3c-1.1,1.2-2.4,1.9-4.1,1.9C288.5,21.2,285.9,18.7,285.9,14.4z"/>
						<path d="M298.1,6.6h2.1v3.8l-0.1,2c0.9-0.8,1.9-1.6,3.2-1.6c2.1,0,3,1.4,3,3.9V21h-2.1v-6c0-1.7-0.5-2.4-1.7-2.4
							c-0.9,0-1.5,0.5-2.4,1.3v7H298V6.6H298.1z"/>
						<path d="M308.6,16.1c0-3.2,2.2-5.2,4.5-5.2c2.6,0,4,1.9,4,4.7c0,0.4,0,0.8-0.1,1h-6.4c0.2,1.9,1.4,3,3.1,3
							c0.9,0,1.6-0.3,2.4-0.7l0.7,1.3c-0.9,0.6-2.1,1-3.3,1C310.7,21.2,308.6,19.3,308.6,16.1z M315.3,15.2c0-1.7-0.8-2.7-2.2-2.7
							c-1.2,0-2.3,1-2.5,2.7H315.3z"/>
						<path d="M319.4,11.1h1.7l0.2,1.4h0.1c0.8-0.9,1.8-1.6,3.1-1.6c1.5,0,2.3,0.7,2.7,1.8c1-1,2-1.8,3.2-1.8c2.1,0,3,1.4,3,3.9V21
							h-2.1v-6c0-1.7-0.5-2.4-1.7-2.4c-0.7,0-1.4,0.5-2.2,1.3v7h-2.1v-6c0-1.7-0.5-2.4-1.7-2.4c-0.7,0-1.4,0.5-2.2,1.3v7h-2.1v-9.7
							H319.4z"/>
						<path d="M335.7,16.1c0-3.3,2.2-5.2,4.7-5.2s4.7,1.9,4.7,5.2s-2.2,5.2-4.7,5.2S335.7,19.3,335.7,16.1z M342.9,16.1
							c0-2.1-1-3.5-2.5-3.5s-2.5,1.4-2.5,3.5s1,3.5,2.5,3.5C341.9,19.5,342.9,18.2,342.9,16.1z"/>
						<path d="M347.4,17.8v-5H346v-1.5l1.5-0.1l0.2-2.7h1.7v2.7h2.6v1.7h-2.6v5c0,1.2,0.4,1.8,1.4,1.8c0.3,0,0.8-0.1,1.1-0.2
							l0.4,1.5c-0.6,0.2-1.2,0.4-1.9,0.4C348.1,21.2,347.4,19.8,347.4,17.8z"/>
						<path d="M354.2,6.6h2.1v3.8l-0.1,2c0.9-0.8,1.9-1.6,3.2-1.6c2.1,0,3,1.4,3,3.9V21h-2.1v-6c0-1.7-0.5-2.4-1.7-2.4
							c-0.9,0-1.5,0.5-2.4,1.3v7h-2.1V6.6H354.2z"/>
						<path d="M364.6,16.1c0-3.2,2.2-5.2,4.5-5.2c2.6,0,4,1.9,4,4.7c0,0.4,0,0.8-0.1,1h-6.4c0.2,1.9,1.3,3,3.1,3
							c0.9,0,1.6-0.3,2.4-0.7l0.7,1.3c-0.9,0.6-2.1,1-3.3,1C366.8,21.2,364.6,19.3,364.6,16.1z M371.4,15.2c0-1.7-0.8-2.7-2.2-2.7
							c-1.2,0-2.3,1-2.5,2.7H371.4z"/>
						<path d="M375.5,11.1h1.7l0.2,1.8h0.1c0.7-1.3,1.7-2,2.8-2c0.5,0,0.8,0.1,1.1,0.2l-0.4,1.8c-0.3-0.1-0.6-0.2-1-0.2
							c-0.8,0-1.8,0.6-2.4,2.1V21h-2.1L375.5,11.1L375.5,11.1z"/>
						<path d="M381.8,18.4c0-2.1,1.8-3.2,5.9-3.7c0-1.2-0.4-2.2-1.9-2.2c-1,0-2,0.5-2.9,1l-0.8-1.4c1-0.6,2.4-1.3,4-1.3
							c2.5,0,3.6,1.6,3.6,4.2v6H388l-0.2-1.1h-0.1c-0.9,0.8-2,1.4-3.2,1.4C383,21.2,381.8,20.1,381.8,18.4z M387.7,18.4V16
							c-2.9,0.4-3.9,1.1-3.9,2.2c0,1,0.7,1.4,1.5,1.4C386.2,19.6,386.9,19.2,387.7,18.4z"/>
						<path d="M392.7,11.1h1.7l0.2,1.1h0.1c0.9-0.7,1.9-1.3,3-1.3c2.5,0,3.9,2,3.9,5c0,3.4-2,5.3-4.3,5.3c-0.9,0-1.8-0.4-2.6-1.1
							l0.1,1.7V25h-2.1L392.7,11.1L392.7,11.1z M399.4,15.9c0-2.1-0.7-3.3-2.3-3.3c-0.8,0-1.5,0.4-2.4,1.2v4.8
							c0.8,0.7,1.5,0.9,2.2,0.9C398.4,19.5,399.4,18.2,399.4,15.9z"/>
						<path d="M408.3,21.6c-0.8,2.1-1.8,3.5-3.9,3.5c-0.5,0-0.9-0.1-1.2-0.2l0.4-1.6c0.2,0.1,0.5,0.1,0.7,0.1c1.1,0,1.7-0.8,2.1-1.9
							l0.2-0.7l-3.9-9.8h2.1l1.8,5.1c0.3,0.9,0.6,1.9,0.9,2.8h0.1l0.8-2.8L410,11h2L408.3,21.6z"/>
						<path d="M417.5,8c0-0.7,0.6-1.2,1.3-1.2c0.8,0,1.3,0.5,1.3,1.2s-0.6,1.2-1.3,1.2S417.5,8.7,417.5,8z M417.8,11.1h2.1V21h-2.1
							V11.1z"/>
						<path d="M423,11.1h1.7l0.2,1.4h0.1c0.9-0.9,1.9-1.6,3.3-1.6c2.1,0,3,1.4,3,3.9V21h-2.1v-6c0-1.7-0.5-2.4-1.7-2.4
							c-0.9,0-1.5,0.5-2.4,1.3v7H423V11.1z"/>
						<path d="M433.5,16.1c0-3.2,2-5.2,4.2-5.2c1.1,0,1.9,0.4,2.7,1.1l-0.1-1.6V6.6h2.1V21h-1.7l-0.2-1.1h-0.1
							c-0.7,0.8-1.8,1.4-2.9,1.4C435.1,21.2,433.5,19.3,433.5,16.1z M440.3,18.3v-4.8c-0.7-0.7-1.4-0.9-2.2-0.9
							c-1.4,0-2.5,1.3-2.5,3.5c0,2.3,0.9,3.5,2.4,3.5C438.9,19.5,439.6,19.1,440.3,18.3z"/>
						<path d="M445.4,17.3v-6.2h2.1v6c0,1.7,0.5,2.4,1.7,2.4c0.9,0,1.5-0.4,2.4-1.5v-6.9h2.1V21H452l-0.2-1.5h-0.1
							c-0.9,1-1.9,1.7-3.2,1.7C446.3,21.2,445.4,19.8,445.4,17.3z"/>
						<path d="M456,16.1c0-3.3,2.3-5.2,4.9-5.2c1.3,0,2.2,0.5,2.9,1.1l-1,1.4c-0.5-0.5-1.1-0.8-1.8-0.8c-1.7,0-2.8,1.4-2.8,3.5
							s1.1,3.5,2.8,3.5c0.8,0,1.6-0.4,2.2-0.9l0.8,1.4c-0.9,0.8-2.1,1.2-3.2,1.2C458,21.2,456,19.3,456,16.1z"/>
						<path d="M464.8,16.1c0-3.2,2.2-5.2,4.5-5.2c2.6,0,4,1.9,4,4.7c0,0.4,0,0.8-0.1,1h-6.4c0.2,1.9,1.3,3,3.1,3
							c0.9,0,1.6-0.3,2.4-0.7l0.7,1.3c-0.9,0.6-2.1,1-3.3,1C467,21.2,464.8,19.3,464.8,16.1z M471.6,15.2c0-1.7-0.8-2.7-2.2-2.7
							c-1.2,0-2.3,1-2.5,2.7H471.6z"/>
						<path d="M475,16.1c0-3.2,2-5.2,4.2-5.2c1.1,0,1.9,0.4,2.7,1.1l-0.1-1.6V6.6h2.1V21h-1.7l-0.2-1.1h-0.1
							c-0.7,0.8-1.8,1.4-2.9,1.4C476.6,21.2,475,19.3,475,16.1z M481.8,18.3v-4.8c-0.7-0.7-1.4-0.9-2.2-0.9c-1.4,0-2.5,1.3-2.5,3.5
							c0,2.3,0.9,3.5,2.4,3.5C480.4,19.5,481.1,19.1,481.8,18.3z"/>
						<path d="M491.4,17.8v-5H490v-1.5l1.5-0.1l0.2-2.7h1.7v2.7h2.6v1.7h-2.6v5c0,1.2,0.4,1.8,1.4,1.8c0.3,0,0.8-0.1,1.1-0.2
							l0.4,1.5c-0.6,0.2-1.2,0.4-1.9,0.4C492.2,21.2,491.4,19.8,491.4,17.8z"/>
						<path d="M498.2,6.6h2.1v3.8l-0.1,2c0.9-0.8,1.9-1.6,3.2-1.6c2.1,0,3,1.4,3,3.9V21h-2.1v-6c0-1.7-0.5-2.4-1.7-2.4
							c-0.9,0-1.5,0.5-2.4,1.3v7h-2.1L498.2,6.6L498.2,6.6z"/>
						<path d="M509.4,11.1h1.7l0.2,1.8h0.1c0.7-1.3,1.7-2,2.8-2c0.5,0,0.8,0.1,1.1,0.2l-0.4,1.8c-0.3-0.1-0.6-0.2-1-0.2
							c-0.8,0-1.8,0.6-2.4,2.1V21h-2.1L509.4,11.1L509.4,11.1z"/>
						<path d="M515.8,16.1c0-3.3,2.2-5.2,4.7-5.2c2.4,0,4.7,1.9,4.7,5.2s-2.2,5.2-4.7,5.2C518.1,21.2,515.8,19.3,515.8,16.1z
							 M523.1,16.1c0-2.1-1-3.5-2.5-3.5s-2.5,1.4-2.5,3.5s1,3.5,2.5,3.5C522.1,19.5,523.1,18.2,523.1,16.1z"/>
						<path d="M527.6,11.1h1.7l0.2,1.4h0.1c0.8-0.9,1.8-1.6,3.1-1.6c1.5,0,2.3,0.7,2.7,1.8c1-1,2-1.8,3.2-1.8c2.1,0,3,1.4,3,3.9V21
							h-2.1v-6c0-1.7-0.5-2.4-1.7-2.4c-0.7,0-1.4,0.5-2.2,1.3v7h-2.1v-6c0-1.7-0.5-2.4-1.7-2.4c-0.7,0-1.4,0.5-2.2,1.3v7h-2.1
							L527.6,11.1L527.6,11.1z"/>
						<path d="M546.4,20L546.4,20l-0.3,1h-1.6V6.6h2.1v3.8l-0.1,1.7c0.8-0.7,1.9-1.3,3-1.3c2.5,0,3.9,2,3.9,5c0,3.4-2,5.3-4.3,5.3
							C548.3,21.2,547.3,20.8,546.4,20z M551.3,15.9c0-2.1-0.7-3.3-2.3-3.3c-0.8,0-1.5,0.4-2.4,1.2v4.8c0.8,0.7,1.5,0.9,2.2,0.9
							C550.2,19.5,551.3,18.2,551.3,15.9z"/>
						<path d="M555.2,16.1c0-3.3,2.2-5.2,4.7-5.2c2.4,0,4.7,1.9,4.7,5.2s-2.2,5.2-4.7,5.2C557.4,21.2,555.2,19.3,555.2,16.1z
							 M562.4,16.1c0-2.1-1-3.5-2.5-3.5s-2.5,1.4-2.5,3.5s1,3.5,2.5,3.5C561.4,19.5,562.4,18.2,562.4,16.1z"/>
						<path d="M566.2,16.1c0-3.3,2.3-5.2,4.9-5.2c1.3,0,2.2,0.5,2.9,1.1l-1,1.4c-0.5-0.5-1.1-0.8-1.8-0.8c-1.7,0-2.8,1.4-2.8,3.5
							s1.1,3.5,2.8,3.5c0.8,0,1.6-0.4,2.2-0.9l0.8,1.4c-0.9,0.8-2.1,1.2-3.2,1.2C568.3,21.2,566.2,19.3,566.2,16.1z"/>
						<path d="M580.7,21.6c-0.8,2.1-1.8,3.5-3.9,3.5c-0.5,0-0.9-0.1-1.2-0.2l0.4-1.6c0.2,0.1,0.5,0.1,0.7,0.1c1.1,0,1.7-0.8,2.1-1.9
							l0.2-0.7l-3.9-9.8h2.1l1.8,5.1c0.3,0.9,0.6,1.9,0.9,2.8h0.1l0.8-2.8l1.6-5.1h2L580.7,21.6z"/>
						<path d="M586.5,17.8v-5h-1.4v-1.5l1.5-0.1l0.2-2.7h1.7v2.7h2.6v1.7h-2.6v5c0,1.2,0.4,1.8,1.4,1.8c0.3,0,0.8-0.1,1.1-0.2
							l0.4,1.5c-0.6,0.2-1.2,0.4-1.9,0.4C587.2,21.2,586.5,19.8,586.5,17.8z"/>
						<path d="M592.3,16.1c0-3.3,2.2-5.2,4.7-5.2c2.4,0,4.7,1.9,4.7,5.2s-2.2,5.2-4.7,5.2C594.5,21.2,592.3,19.3,592.3,16.1z
							 M599.5,16.1c0-2.1-1-3.5-2.5-3.5s-2.5,1.4-2.5,3.5s1,3.5,2.5,3.5C598.5,19.5,599.5,18.2,599.5,16.1z"/>
						<path d="M604,11.1h1.7l0.2,1.1h0.1c0.9-0.7,1.9-1.3,3-1.3c2.5,0,3.9,2,3.9,5c0,3.4-2,5.3-4.3,5.3c-0.9,0-1.8-0.4-2.6-1.1
							l0.1,1.7V25H604L604,11.1L604,11.1z M610.7,15.9c0-2.1-0.7-3.3-2.3-3.3c-0.8,0-1.5,0.4-2.4,1.2v4.8c0.8,0.7,1.5,0.9,2.2,0.9
							C609.7,19.5,610.7,18.2,610.7,15.9z"/>
						<path d="M614.6,16.1c0-3.2,2.2-5.2,4.5-5.2c2.6,0,4,1.9,4,4.7c0,0.4,0,0.8-0.1,1h-6.4c0.2,1.9,1.4,3,3.1,3
							c0.9,0,1.6-0.3,2.4-0.7l0.7,1.3c-0.9,0.6-2.1,1-3.3,1C616.8,21.2,614.6,19.3,614.6,16.1z M621.4,15.2c0-1.7-0.8-2.7-2.2-2.7
							c-1.2,0-2.3,1-2.5,2.7H621.4z"/>
						<path d="M625.5,11.1h1.7l0.2,1.4h0.1c0.9-0.9,1.9-1.6,3.3-1.6c2.1,0,3,1.4,3,3.9V21h-2.1v-6c0-1.7-0.5-2.4-1.7-2.4
							c-0.9,0-1.5,0.5-2.4,1.3v7h-2.1V11.1z"/>
						<path d="M636.5,8c0-0.7,0.6-1.2,1.3-1.2c0.8,0,1.3,0.5,1.3,1.2s-0.6,1.2-1.3,1.2C637,9.2,636.5,8.7,636.5,8z M636.8,11.1h2.1
							V21h-2.1V11.1z"/>
						<path d="M641.3,18.4c0-2.1,1.8-3.2,5.9-3.7c0-1.2-0.4-2.2-1.9-2.2c-1,0-2,0.5-2.9,1l-0.8-1.4c1-0.6,2.4-1.3,4-1.3
							c2.5,0,3.6,1.6,3.6,4.2v6h-1.7l-0.2-1.1h-0.1c-0.9,0.8-2,1.4-3.2,1.4C642.5,21.2,641.3,20.1,641.3,18.4z M647.3,18.4V16
							c-2.9,0.4-3.9,1.1-3.9,2.2c0,1,0.7,1.4,1.5,1.4C645.8,19.6,646.5,19.2,647.3,18.4z"/>
						<path d="M656.4,15.4c0-3.5,1-6.5,2.7-9.2l1.3,0.6c-1.5,2.6-2.3,5.6-2.3,8.6s0.7,6.1,2.3,8.6l-1.3,0.6
							C657.3,21.8,656.4,18.9,656.4,15.4z"/>
						<path d="M662.2,14.4c0-4.3,2.6-6.9,6-6.9c1.7,0,3,0.8,3.8,1.7l-1.1,1.3c-0.7-0.7-1.5-1.2-2.6-1.2c-2.3,0-3.9,1.9-3.9,5
							c0,3.2,1.5,5.1,3.8,5.1c1.2,0,2.1-0.5,2.9-1.4l1.1,1.3c-1.1,1.2-2.4,1.9-4.1,1.9C664.7,21.2,662.2,18.7,662.2,14.4z"/>
						<path d="M674.5,7.7h2.1V21h-2.1V7.7z"/>
						<path d="M682.8,9.5h-3.9V7.7h9.9v1.7h-3.9V21h-2.1V9.5z"/>
						<path d="M690.1,24c1.5-2.6,2.3-5.6,2.3-8.6s-0.7-6-2.3-8.6l1.3-0.6c1.7,2.7,2.7,5.7,2.7,9.2c0,3.6-1,6.5-2.7,9.2L690.1,24z"/>
					</g>
					<path class="st3" d="M0,42.5h1000"/>
				</g>
			</g>
		</g>
	</g>
</g>
</svg>
