<?xml version="1.0" encoding="utf-8"?>
<!-- Generator: Adobe Illustrator 23.0.4, SVG Export Plug-In . SVG Version: 6.00 Build 0)  -->
<svg version="1.1" id="레이어_1" xmlns="http://www.w3.org/2000/svg" xmlns:xlink="http://www.w3.org/1999/xlink" x="0px"
	 y="0px" viewBox="0 0 336 1025" style="enable-background:new 0 0 336 1025;" xml:space="preserve">
<style type="text/css">
	.st0{fill-rule:evenodd;clip-rule:evenodd;}
	.st1{enable-background:new    ;}
	.st2{fill:#FFFFFF;}
	.st3{font-family:'NotoSansKR-Medium-KSCpc-EUC-H';}
	.st4{font-size:15px;}
	.st5{fill:none;stroke:#979797;stroke-linecap:square;}
</style>
<title>table2</title>
<desc>Created with Sketch.</desc>
<g id="Page-1">
	<g id="mobile1" transform="translate(-19.000000, -1074.000000)">
		<g id="table2" transform="translate(20.000000, 1074.000000)">
			<g id="table1">
				<g id="cell1">
					<g>
						<path id="bg" class="st0" d="M8,0h318c4.4,0,8,3.6,8,8v34c0,4.4-3.6,8-8,8H8c-4.4,0-8-3.6-8-8V8C0,3.6,3.6,0,8,0z"/>
						<g class="st1">
							<path class="st2" d="M136.4,19.9h3.6c2.5,0,4.3,0.9,4.3,3.5c0,2.5-1.9,3.7-4.3,3.7h-1.5V31h-2.2V19.9z M139.9,25.3
								c1.5,0,2.3-0.6,2.3-1.9c0-1.3-0.8-1.7-2.3-1.7h-1.3v3.6H139.9z"/>
							<path class="st2" d="M146.2,22.6h1.8l0.1,1.5h0.1c0.6-1.1,1.5-1.7,2.4-1.7c0.5,0,0.7,0.1,1,0.2l-0.4,1.9
								c-0.3-0.1-0.5-0.1-0.9-0.1c-0.7,0-1.5,0.4-1.9,1.7v5h-2.2V22.6z"/>
							<path class="st2" d="M152,26.8c0-2.8,1.9-4.4,4-4.4s4,1.6,4,4.4c0,2.8-1.9,4.4-4,4.4S152,29.6,152,26.8z M157.8,26.8
								c0-1.6-0.6-2.6-1.8-2.6s-1.8,1-1.8,2.6c0,1.6,0.6,2.6,1.8,2.6S157.8,28.4,157.8,26.8z"/>
							<path class="st2" d="M161.4,32.5c0-0.7,0.4-1.3,1.2-1.7v-0.1c-0.4-0.3-0.8-0.7-0.8-1.4c0-0.6,0.4-1.2,0.9-1.6v-0.1
								c-0.6-0.4-1.1-1.2-1.1-2.2c0-2,1.6-3,3.4-3c0.5,0,0.9,0.1,1.3,0.2h3v1.6h-1.4c0.2,0.3,0.4,0.8,0.4,1.3c0,1.9-1.4,2.8-3.2,2.8
								c-0.3,0-0.7-0.1-1.1-0.2c-0.2,0.2-0.4,0.4-0.4,0.7c0,0.5,0.3,0.7,1.3,0.7h1.4c2,0,3.1,0.6,3.1,2.1c0,1.7-1.8,3-4.6,3
								C162.9,34.6,161.4,34,161.4,32.5z M167.4,32c0-0.6-0.5-0.8-1.4-0.8h-1c-0.5,0-0.9,0-1.2-0.1c-0.4,0.3-0.6,0.6-0.6,1
								c0,0.7,0.8,1.1,2,1.1C166.5,33.2,167.4,32.7,167.4,32z M166.3,25.4c0-1-0.6-1.5-1.3-1.5s-1.3,0.6-1.3,1.5
								c0,1,0.6,1.5,1.3,1.5S166.3,26.4,166.3,25.4z"/>
							<path class="st2" d="M170.9,22.6h1.8l0.1,1.5h0.1c0.6-1.1,1.5-1.7,2.4-1.7c0.5,0,0.7,0.1,1,0.2l-0.4,1.9
								c-0.3-0.1-0.5-0.1-0.9-0.1c-0.7,0-1.5,0.4-1.9,1.7v5h-2.2V22.6z"/>
							<path class="st2" d="M176.5,28.7c0-1.8,1.5-2.7,4.8-3.1c0-0.8-0.4-1.5-1.4-1.5c-0.8,0-1.5,0.3-2.3,0.8l-0.8-1.5
								c1-0.6,2.2-1.1,3.5-1.1c2.1,0,3.2,1.3,3.2,3.7V31h-1.8l-0.2-0.9h0c-0.7,0.6-1.6,1.1-2.5,1.1
								C177.5,31.2,176.5,30.1,176.5,28.7z M181.4,28.7V27c-2,0.3-2.7,0.8-2.7,1.6c0,0.7,0.5,0.9,1.1,0.9
								C180.4,29.5,180.9,29.2,181.4,28.7z"/>
							<path class="st2" d="M185.8,22.6h1.8l0.1,1.1h0.1c0.7-0.7,1.5-1.3,2.6-1.3c1.2,0,1.9,0.5,2.3,1.5c0.8-0.8,1.6-1.5,2.7-1.5
								c1.8,0,2.6,1.3,2.6,3.4V31h-2.2v-5c0-1.3-0.4-1.8-1.2-1.8c-0.5,0-1,0.3-1.6,0.9V31h-2.2v-5c0-1.3-0.4-1.8-1.2-1.8
								c-0.5,0-1,0.3-1.6,0.9V31h-2.2V22.6z"/>
						</g>
					</g>
					<g transform="translate(0.000000, 102.000000)">
						<path class="st0" d="M8,0h318c4.4,0,8,3.6,8,8v34c0,4.4-3.6,8-8,8H8c-4.4,0-8-3.6-8-8V8C0,3.6,3.6,0,8,0z"/>
						<g class="st1">
							<path class="st2" d="M107.6,21.7h-3.1v-1.8h8.5v1.8h-3.1V31h-2.2V21.7z"/>
							<path class="st2" d="M114.6,19h2.2v3l-0.1,1.6c0.7-0.6,1.5-1.2,2.6-1.2c1.8,0,2.6,1.3,2.6,3.4V31h-2.2v-5
								c0-1.3-0.4-1.8-1.2-1.8c-0.7,0-1.1,0.3-1.8,0.9V31h-2.2V19z"/>
							<path class="st2" d="M123.6,26.8c0-2.7,1.9-4.4,3.9-4.4c2.3,0,3.5,1.7,3.5,4c0,0.4,0,0.8-0.1,1h-5.2c0.2,1.4,1.1,2.1,2.3,2.1
								c0.7,0,1.3-0.2,1.9-0.6l0.8,1.4c-0.8,0.6-1.9,0.9-2.9,0.9C125.5,31.2,123.6,29.6,123.6,26.8z M129.2,26
								c0-1.1-0.5-1.9-1.6-1.9c-0.9,0-1.7,0.6-1.8,1.9H129.2z"/>
							<path class="st2" d="M132.9,22.6h1.8l0.1,1.5h0.1c0.6-1.1,1.5-1.7,2.4-1.7c0.5,0,0.7,0.1,1,0.2l-0.4,1.9
								c-0.3-0.1-0.5-0.1-0.9-0.1c-0.7,0-1.5,0.4-1.9,1.7v5h-2.2V22.6z"/>
							<path class="st2" d="M138.5,28.7c0-1.8,1.5-2.7,4.8-3.1c0-0.8-0.4-1.5-1.4-1.5c-0.8,0-1.5,0.3-2.3,0.8l-0.8-1.5
								c1-0.6,2.2-1.1,3.5-1.1c2.1,0,3.2,1.3,3.2,3.7V31h-1.8l-0.2-0.9h0c-0.7,0.6-1.6,1.1-2.5,1.1
								C139.5,31.2,138.5,30.1,138.5,28.7z M143.4,28.7V27c-2,0.3-2.7,0.8-2.7,1.6c0,0.7,0.5,0.9,1.1,0.9
								C142.4,29.5,142.8,29.2,143.4,28.7z"/>
							<path class="st2" d="M147.8,22.6h1.8l0.1,0.9h0.1c0.7-0.6,1.6-1.1,2.5-1.1c2.1,0,3.3,1.7,3.3,4.3c0,2.9-1.7,4.5-3.6,4.5
								c-0.7,0-1.4-0.3-2.1-0.9l0.1,1.4v2.5h-2.2V22.6z M153.3,26.7c0-1.6-0.5-2.5-1.7-2.5c-0.6,0-1.1,0.3-1.7,0.9v3.7
								c0.5,0.5,1.1,0.6,1.5,0.6C152.6,29.4,153.3,28.5,153.3,26.7z"/>
							<path class="st2" d="M156.9,26.8c0-2.7,1.9-4.4,3.9-4.4c2.3,0,3.5,1.7,3.5,4c0,0.4,0,0.8-0.1,1h-5.2c0.2,1.4,1.1,2.1,2.3,2.1
								c0.7,0,1.3-0.2,1.9-0.6l0.8,1.4c-0.8,0.6-1.9,0.9-2.9,0.9C158.8,31.2,156.9,29.6,156.9,26.8z M162.5,26
								c0-1.1-0.5-1.9-1.6-1.9c-0.9,0-1.7,0.6-1.8,1.9H162.5z"/>
							<path class="st2" d="M166.1,27.9v-5.2h2.2v5c0,1.3,0.4,1.8,1.2,1.8c0.7,0,1.1-0.3,1.7-1v-5.7h2.2V31h-1.8l-0.2-1.2h-0.1
								c-0.7,0.9-1.5,1.4-2.7,1.4C166.9,31.2,166.1,30,166.1,27.9z"/>
							<path class="st2" d="M176.1,28.1v-3.7h-1.2v-1.6l1.3-0.1l0.3-2.2h1.8v2.2h2.1v1.7h-2.1v3.7c0,1,0.4,1.4,1.1,1.4
								c0.3,0,0.6-0.1,0.8-0.2l0.4,1.6c-0.5,0.2-1,0.3-1.8,0.3C176.8,31.2,176.1,30,176.1,28.1z"/>
							<path class="st2" d="M181.8,20.1c0-0.7,0.6-1.2,1.3-1.2c0.8,0,1.3,0.5,1.3,1.2c0,0.7-0.6,1.2-1.3,1.2
								C182.4,21.2,181.8,20.7,181.8,20.1z M182,22.6h2.2V31H182V22.6z"/>
							<path class="st2" d="M186.1,26.8c0-2.8,2-4.4,4.3-4.4c1,0,1.8,0.4,2.4,0.9l-1.1,1.4c-0.4-0.4-0.8-0.6-1.3-0.6
								c-1.3,0-2.1,1-2.1,2.6c0,1.6,0.9,2.6,2.1,2.6c0.6,0,1.2-0.3,1.6-0.7l0.9,1.5c-0.8,0.7-1.8,1-2.7,1
								C187.8,31.2,186.1,29.6,186.1,26.8z"/>
							<path class="st2" d="M203.3,28.2h-3.6l-0.8,2.8h-2.2l3.6-11.1h2.6l3.6,11.1h-2.3L203.3,28.2z M202.8,26.4l-0.3-1.2
								c-0.3-1.2-0.6-2.4-1-3.6h-0.1c-0.3,1.2-0.6,2.5-0.9,3.6l-0.3,1.2H202.8z"/>
							<path class="st2" d="M207.5,22.6h1.8l0.2,1.5h0.1c0.6-1.1,1.5-1.7,2.4-1.7c0.5,0,0.7,0.1,1,0.2l-0.4,1.9
								c-0.3-0.1-0.5-0.1-0.9-0.1c-0.7,0-1.5,0.4-1.9,1.7v5h-2.2V22.6z"/>
							<path class="st2" d="M213.4,26.8c0-2.7,1.9-4.4,3.9-4.4c2.3,0,3.5,1.7,3.5,4c0,0.4,0,0.8-0.1,1h-5.2c0.2,1.4,1.1,2.1,2.3,2.1
								c0.7,0,1.3-0.2,1.9-0.6l0.8,1.4c-0.8,0.6-1.9,0.9-2.9,0.9C215.2,31.2,213.4,29.6,213.4,26.8z M218.9,26
								c0-1.1-0.5-1.9-1.6-1.9c-0.9,0-1.7,0.6-1.8,1.9H218.9z"/>
							<path class="st2" d="M222,28.7c0-1.8,1.5-2.7,4.8-3.1c0-0.8-0.4-1.5-1.4-1.5c-0.8,0-1.5,0.3-2.3,0.8l-0.8-1.5
								c1-0.6,2.2-1.1,3.5-1.1c2.1,0,3.2,1.3,3.2,3.7V31h-1.8l-0.2-0.9h0c-0.7,0.6-1.6,1.1-2.5,1.1C223,31.2,222,30.1,222,28.7z
								 M226.8,28.7V27c-2,0.3-2.7,0.8-2.7,1.6c0,0.7,0.5,0.9,1.1,0.9C225.8,29.5,226.3,29.2,226.8,28.7z"/>
						</g>
					</g>
					<g class="st1">
						<path d="M49.8,179.9c0-2.8,1.8-4.4,3.9-4.4s3.9,1.6,3.9,4.4c0,2.7-1.8,4.3-3.9,4.3S49.8,182.6,49.8,179.9z M55.8,179.9
							c0-1.8-0.8-2.9-2.1-2.9c-1.3,0-2.1,1.2-2.1,2.9c0,1.7,0.8,2.9,2.1,2.9C55,182.8,55.8,181.6,55.8,179.9z"/>
						<path d="M58.4,175.8h1.8l1.4,4.4c0.2,0.8,0.5,1.6,0.7,2.5h0.1c0.2-0.8,0.5-1.7,0.7-2.5l1.4-4.4h1.7l-2.9,8.2h-2L58.4,175.8z"
							/>
						<path d="M66.8,181.8c0-1.8,1.5-2.7,4.9-3.1c0-1-0.4-1.8-1.6-1.8c-0.9,0-1.7,0.4-2.4,0.8l-0.6-1.2c0.9-0.5,2-1.1,3.3-1.1
							c2.1,0,3,1.3,3,3.5v5h-1.4l-0.2-0.9h0c-0.8,0.6-1.6,1.1-2.6,1.1C67.8,184.2,66.8,183.3,66.8,181.8z M71.8,181.9v-2
							c-2.4,0.3-3.3,0.9-3.3,1.8c0,0.8,0.6,1.1,1.3,1.1C70.5,182.8,71.1,182.5,71.8,181.9z"/>
						<path d="M75.9,175.8h1.4l0.1,1.5h0c0.6-1.1,1.5-1.7,2.3-1.7c0.4,0,0.7,0.1,0.9,0.2l-0.3,1.5c-0.3-0.1-0.5-0.1-0.8-0.1
							c-0.7,0-1.5,0.5-2,1.8v5.1h-1.7V175.8z"/>
						<path d="M81.8,173.2c0-0.6,0.5-1,1.1-1s1.1,0.4,1.1,1c0,0.6-0.5,1-1.1,1S81.8,173.8,81.8,173.2z M82.1,175.8h1.7v8.2h-1.7
							V175.8z"/>
						<path d="M85.9,181.8c0-1.8,1.5-2.7,4.9-3.1c0-1-0.4-1.8-1.6-1.8c-0.9,0-1.7,0.4-2.4,0.8l-0.6-1.2c0.9-0.5,2-1.1,3.3-1.1
							c2.1,0,3,1.3,3,3.5v5h-1.4l-0.2-0.9h0c-0.8,0.6-1.6,1.1-2.6,1.1C86.9,184.2,85.9,183.3,85.9,181.8z M90.8,181.9v-2
							c-2.4,0.3-3.3,0.9-3.3,1.8c0,0.8,0.6,1.1,1.3,1.1C89.6,182.8,90.2,182.5,90.8,181.9z"/>
						<path d="M95,175.8h1.4l0.1,1.1h0c0.8-0.7,1.6-1.4,2.7-1.4c1.8,0,2.5,1.2,2.5,3.3v5.2h-1.7v-5c0-1.4-0.4-2-1.4-2
							c-0.8,0-1.3,0.4-2,1.1v5.8H95V175.8z"/>
						<path d="M107.2,179.9c0-2.8,1.9-4.4,4.1-4.4c1,0,1.8,0.4,2.4,0.9l-0.9,1.1c-0.5-0.4-0.9-0.6-1.5-0.6c-1.4,0-2.4,1.2-2.4,2.9
							c0,1.7,0.9,2.9,2.3,2.9c0.7,0,1.3-0.3,1.8-0.8l0.7,1.1c-0.7,0.7-1.7,1-2.7,1C108.9,184.2,107.2,182.6,107.2,179.9z"/>
						<path d="M114.9,181.8c0-1.8,1.5-2.7,4.9-3.1c0-1-0.4-1.8-1.6-1.8c-0.9,0-1.7,0.4-2.4,0.8l-0.6-1.2c0.9-0.5,2-1.1,3.3-1.1
							c2.1,0,3,1.3,3,3.5v5h-1.4l-0.2-0.9h0c-0.8,0.6-1.6,1.1-2.6,1.1C115.9,184.2,114.9,183.3,114.9,181.8z M119.8,181.9v-2
							c-2.4,0.3-3.3,0.9-3.3,1.8c0,0.8,0.6,1.1,1.3,1.1C118.5,182.8,119.1,182.5,119.8,181.9z"/>
						<path d="M124,175.8h1.4l0.1,1.1h0c0.8-0.7,1.6-1.4,2.7-1.4c1.8,0,2.5,1.2,2.5,3.3v5.2h-1.7v-5c0-1.4-0.4-2-1.4-2
							c-0.8,0-1.3,0.4-2,1.1v5.8H124V175.8z"/>
						<path d="M132.7,179.9c0-2.8,1.9-4.4,4.1-4.4c1,0,1.8,0.4,2.4,0.9l-0.9,1.1c-0.5-0.4-0.9-0.6-1.5-0.6c-1.4,0-2.4,1.2-2.4,2.9
							c0,1.7,0.9,2.9,2.3,2.9c0.7,0,1.3-0.3,1.8-0.8l0.7,1.1c-0.7,0.7-1.7,1-2.7,1C134.4,184.2,132.7,182.6,132.7,179.9z"/>
						<path d="M140.1,179.9c0-2.7,1.8-4.4,3.8-4.4c2.2,0,3.4,1.6,3.4,3.9c0,0.3,0,0.7-0.1,0.9h-5.4c0.1,1.6,1.1,2.5,2.5,2.5
							c0.7,0,1.4-0.2,2-0.6l0.6,1.1c-0.8,0.5-1.7,0.9-2.8,0.9C141.9,184.2,140.1,182.6,140.1,179.9z M145.7,179.1
							c0-1.4-0.6-2.2-1.8-2.2c-1,0-1.9,0.8-2.1,2.2H145.7z"/>
						<path d="M149.2,175.8h1.4l0.1,1.5h0c0.6-1.1,1.5-1.7,2.3-1.7c0.4,0,0.7,0.1,0.9,0.2l-0.3,1.5c-0.3-0.1-0.5-0.1-0.8-0.1
							c-0.7,0-1.5,0.5-2,1.8v5.1h-1.7V175.8z"/>
						<path d="M153.7,186c1-0.4,1.6-1.2,1.6-2.1c-0.1,0-0.1,0-0.2,0c-0.6,0-1.2-0.4-1.2-1.1c0-0.7,0.5-1.1,1.2-1.1
							c0.8,0,1.3,0.7,1.3,1.9c0,1.6-0.9,2.8-2.5,3.4L153.7,186z"/>
						<path d="M161.4,179.9c0-2.8,1.9-4.4,4.1-4.4c1,0,1.8,0.4,2.4,0.9l-0.9,1.1c-0.5-0.4-0.9-0.6-1.5-0.6c-1.4,0-2.4,1.2-2.4,2.9
							c0,1.7,0.9,2.9,2.3,2.9c0.7,0,1.3-0.3,1.8-0.8l0.7,1.1c-0.7,0.7-1.7,1-2.7,1C163.1,184.2,161.4,182.6,161.4,179.9z"/>
						<path d="M168.8,179.9c0-2.8,1.8-4.4,3.9-4.4s3.9,1.6,3.9,4.4c0,2.7-1.8,4.3-3.9,4.3S168.8,182.6,168.8,179.9z M174.8,179.9
							c0-1.8-0.8-2.9-2.1-2.9c-1.3,0-2.1,1.2-2.1,2.9c0,1.7,0.8,2.9,2.1,2.9C174,182.8,174.8,181.6,174.8,179.9z"/>
						<path d="M178.6,182.1v-10h1.7v10.1c0,0.5,0.2,0.6,0.4,0.6c0.1,0,0.1,0,0.3,0l0.2,1.3c-0.2,0.1-0.5,0.1-0.9,0.1
							C179.1,184.2,178.6,183.4,178.6,182.1z"/>
						<path d="M182.5,179.9c0-2.8,1.8-4.4,3.9-4.4s3.9,1.6,3.9,4.4c0,2.7-1.8,4.3-3.9,4.3S182.5,182.6,182.5,179.9z M188.5,179.9
							c0-1.8-0.8-2.9-2.1-2.9c-1.3,0-2.1,1.2-2.1,2.9c0,1.7,0.8,2.9,2.1,2.9C187.7,182.8,188.5,181.6,188.5,179.9z"/>
						<path d="M192.3,175.8h1.4l0.1,1.5h0c0.6-1.1,1.5-1.7,2.3-1.7c0.4,0,0.7,0.1,0.9,0.2l-0.3,1.5c-0.3-0.1-0.5-0.1-0.8-0.1
							c-0.7,0-1.5,0.5-2,1.8v5.1h-1.7V175.8z"/>
						<path d="M197.7,179.9c0-2.7,1.8-4.4,3.8-4.4c2.2,0,3.4,1.6,3.4,3.9c0,0.3,0,0.7-0.1,0.9h-5.4c0.1,1.6,1.1,2.5,2.5,2.5
							c0.7,0,1.4-0.2,2-0.6l0.6,1.1c-0.8,0.5-1.7,0.9-2.8,0.9C199.4,184.2,197.7,182.6,197.7,179.9z M203.3,179.1
							c0-1.4-0.6-2.2-1.8-2.2c-1,0-1.9,0.8-2.1,2.2H203.3z"/>
						<path d="M206.1,179.9c0-2.8,1.9-4.4,4.1-4.4c1,0,1.8,0.4,2.4,0.9l-0.9,1.1c-0.5-0.4-0.9-0.6-1.5-0.6c-1.4,0-2.4,1.2-2.4,2.9
							c0,1.7,0.9,2.9,2.3,2.9c0.7,0,1.3-0.3,1.8-0.8l0.7,1.1c-0.7,0.7-1.7,1-2.7,1C207.8,184.2,206.1,182.6,206.1,179.9z"/>
						<path d="M214.6,181.3v-4.2h-1.2v-1.3l1.3-0.1l0.2-2.3h1.5v2.3h2.1v1.4h-2.1v4.2c0,1,0.3,1.5,1.2,1.5c0.3,0,0.6-0.1,0.9-0.2
							l0.3,1.3c-0.5,0.2-1,0.3-1.6,0.3C215.2,184.2,214.6,183,214.6,181.3z"/>
						<path d="M219.4,181.8c0-1.8,1.5-2.7,4.9-3.1c0-1-0.4-1.8-1.6-1.8c-0.9,0-1.7,0.4-2.4,0.8l-0.6-1.2c0.9-0.5,2-1.1,3.3-1.1
							c2.1,0,3,1.3,3,3.5v5h-1.4l-0.2-0.9h0c-0.8,0.6-1.6,1.1-2.6,1.1C220.4,184.2,219.4,183.3,219.4,181.8z M224.3,181.9v-2
							c-2.4,0.3-3.3,0.9-3.3,1.8c0,0.8,0.6,1.1,1.3,1.1C223.1,182.8,223.7,182.5,224.3,181.9z"/>
						<path d="M228.5,182.1v-10h1.7v10.1c0,0.5,0.2,0.6,0.4,0.6c0.1,0,0.1,0,0.3,0l0.2,1.3c-0.2,0.1-0.5,0.1-0.9,0.1
							C229,184.2,228.5,183.4,228.5,182.1z"/>
						<path d="M235.8,179.9c0-2.8,1.9-4.4,4.1-4.4c1,0,1.8,0.4,2.4,0.9l-0.9,1.1c-0.5-0.4-0.9-0.6-1.5-0.6c-1.4,0-2.4,1.2-2.4,2.9
							c0,1.7,0.9,2.9,2.3,2.9c0.7,0,1.3-0.3,1.8-0.8l0.7,1.1c-0.7,0.7-1.7,1-2.7,1C237.5,184.2,235.8,182.6,235.8,179.9z"/>
						<path d="M243.5,181.8c0-1.8,1.5-2.7,4.9-3.1c0-1-0.4-1.8-1.6-1.8c-0.9,0-1.7,0.4-2.4,0.8l-0.6-1.2c0.9-0.5,2-1.1,3.3-1.1
							c2.1,0,3,1.3,3,3.5v5h-1.4l-0.2-0.9h0c-0.8,0.6-1.6,1.1-2.6,1.1C244.5,184.2,243.5,183.3,243.5,181.8z M248.4,181.9v-2
							c-2.4,0.3-3.3,0.9-3.3,1.8c0,0.8,0.6,1.1,1.3,1.1C247.1,182.8,247.7,182.5,248.4,181.9z"/>
						<path d="M252.6,175.8h1.4l0.1,1.1h0c0.8-0.7,1.6-1.4,2.7-1.4c1.8,0,2.5,1.2,2.5,3.3v5.2h-1.7v-5c0-1.4-0.4-2-1.4-2
							c-0.8,0-1.3,0.4-2,1.1v5.8h-1.7V175.8z"/>
						<path d="M261.3,179.9c0-2.8,1.9-4.4,4.1-4.4c1,0,1.8,0.4,2.4,0.9l-0.9,1.1c-0.5-0.4-0.9-0.6-1.5-0.6c-1.4,0-2.4,1.2-2.4,2.9
							c0,1.7,0.9,2.9,2.3,2.9c0.7,0,1.3-0.3,1.8-0.8l0.7,1.1c-0.7,0.7-1.7,1-2.7,1C263.1,184.2,261.3,182.6,261.3,179.9z"/>
						<path d="M268.7,179.9c0-2.7,1.8-4.4,3.8-4.4c2.2,0,3.4,1.6,3.4,3.9c0,0.3,0,0.7-0.1,0.9h-5.4c0.1,1.6,1.1,2.5,2.5,2.5
							c0.7,0,1.4-0.2,2-0.6l0.6,1.1c-0.8,0.5-1.7,0.9-2.8,0.9C270.5,184.2,268.7,182.6,268.7,179.9z M274.4,179.1
							c0-1.4-0.6-2.2-1.8-2.2c-1,0-2,0.8-2.1,2.2H274.4z"/>
						<path d="M277.8,175.8h1.4l0.1,1.5h0c0.6-1.1,1.5-1.7,2.3-1.7c0.4,0,0.7,0.1,0.9,0.2l-0.3,1.5c-0.3-0.1-0.5-0.1-0.8-0.1
							c-0.7,0-1.5,0.5-2,1.8v5.1h-1.7V175.8z"/>
						<path d="M282.3,186c1-0.4,1.6-1.2,1.6-2.1c-0.1,0-0.1,0-0.2,0c-0.6,0-1.2-0.4-1.2-1.1c0-0.7,0.5-1.1,1.2-1.1
							c0.8,0,1.3,0.7,1.3,1.9c0,1.6-0.9,2.8-2.5,3.4L282.3,186z"/>
					</g>
					<text transform="matrix(1 0 0 1 285.9465 184)" class="st3 st4"> </text>
					<g class="st1">
						<path d="M33.1,197.8h1.4l0.1,0.9h0c0.7-0.6,1.6-1.1,2.5-1.1c2.1,0,3.3,1.7,3.3,4.2c0,2.8-1.7,4.5-3.6,4.5
							c-0.7,0-1.5-0.3-2.2-0.9l0,1.4v2.7h-1.7V197.8z M38.7,201.8c0-1.7-0.6-2.8-1.9-2.8c-0.6,0-1.3,0.3-2,1v4
							c0.6,0.6,1.3,0.8,1.8,0.8C37.8,204.8,38.7,203.7,38.7,201.8z"/>
						<path d="M42.6,197.8H44l0.1,1.5h0c0.6-1.1,1.5-1.7,2.3-1.7c0.4,0,0.7,0.1,0.9,0.2l-0.3,1.5c-0.3-0.1-0.5-0.1-0.8-0.1
							c-0.7,0-1.5,0.5-2,1.8v5.1h-1.7V197.8z"/>
						<path d="M48,201.9c0-2.8,1.8-4.4,3.9-4.4c2,0,3.9,1.6,3.9,4.4c0,2.7-1.8,4.3-3.9,4.3C49.8,206.2,48,204.6,48,201.9z M54,201.9
							c0-1.8-0.8-2.9-2.1-2.9c-1.3,0-2.1,1.2-2.1,2.9c0,1.7,0.8,2.9,2.1,2.9C53.1,204.8,54,203.6,54,201.9z"/>
						<path d="M56.8,205.1l0.8-1.1c0.7,0.6,1.5,0.9,2.3,0.9c1,0,1.5-0.5,1.5-1.1c0-0.8-0.9-1.1-1.8-1.4c-1.1-0.4-2.4-1-2.4-2.4
							c0-1.4,1.1-2.4,2.9-2.4c1.1,0,2,0.5,2.7,1l-0.8,1.1c-0.6-0.4-1.2-0.7-1.8-0.7c-0.9,0-1.3,0.5-1.3,1c0,0.7,0.9,1,1.8,1.3
							c1.2,0.4,2.4,0.9,2.4,2.5c0,1.4-1.1,2.5-3.1,2.5C58.8,206.2,57.6,205.7,56.8,205.1z"/>
						<path d="M64.8,203.3v-4.2h-1.2v-1.3l1.3-0.1l0.2-2.3h1.5v2.3h2.1v1.4h-2.1v4.2c0,1,0.3,1.5,1.2,1.5c0.3,0,0.6-0.1,0.9-0.2
							l0.3,1.3c-0.5,0.2-1,0.3-1.6,0.3C65.5,206.2,64.8,205,64.8,203.3z"/>
						<path d="M69.7,203.8c0-1.8,1.5-2.7,4.9-3.1c0-1-0.4-1.8-1.6-1.8c-0.9,0-1.7,0.4-2.4,0.8l-0.6-1.2c0.9-0.5,2-1.1,3.3-1.1
							c2.1,0,3,1.3,3,3.5v5h-1.4l-0.1-0.9h0c-0.8,0.6-1.6,1.1-2.6,1.1C70.7,206.2,69.7,205.3,69.7,203.8z M74.6,203.9v-2
							c-2.4,0.3-3.3,0.9-3.3,1.8c0,0.8,0.6,1.1,1.3,1.1C73.4,204.8,73.9,204.5,74.6,203.9z"/>
						<path d="M78.8,203.3v-4.2h-1.2v-1.3l1.3-0.1l0.2-2.3h1.5v2.3h2.1v1.4h-2.1v4.2c0,1,0.3,1.5,1.2,1.5c0.3,0,0.6-0.1,0.9-0.2
							l0.3,1.3c-0.5,0.2-1,0.3-1.6,0.3C79.4,206.2,78.8,205,78.8,203.3z"/>
						<path d="M83.6,201.9c0-2.7,1.8-4.4,3.8-4.4c2.2,0,3.4,1.6,3.4,3.9c0,0.3,0,0.7-0.1,0.9h-5.4c0.1,1.6,1.1,2.5,2.5,2.5
							c0.7,0,1.4-0.2,2-0.6l0.6,1.1c-0.8,0.5-1.7,0.9-2.8,0.9C85.4,206.2,83.6,204.6,83.6,201.9z M89.3,201.1c0-1.4-0.6-2.2-1.8-2.2
							c-1,0-1.9,0.8-2.1,2.2H89.3z"/>
						<path d="M95.5,201.9c0-2.8,1.9-4.4,4.1-4.4c1,0,1.8,0.4,2.4,0.9l-0.9,1.1c-0.5-0.4-0.9-0.6-1.5-0.6c-1.4,0-2.4,1.2-2.4,2.9
							c0,1.7,0.9,2.9,2.3,2.9c0.7,0,1.3-0.3,1.8-0.8l0.7,1.1c-0.7,0.7-1.7,1-2.7,1C97.2,206.2,95.5,204.6,95.5,201.9z"/>
						<path d="M103.2,203.8c0-1.8,1.5-2.7,4.9-3.1c0-1-0.4-1.8-1.6-1.8c-0.9,0-1.7,0.4-2.4,0.8l-0.6-1.2c0.9-0.5,2-1.1,3.3-1.1
							c2.1,0,3,1.3,3,3.5v5h-1.4l-0.1-0.9h0c-0.8,0.6-1.6,1.1-2.6,1.1C104.2,206.2,103.2,205.3,103.2,203.8z M108.1,203.9v-2
							c-2.4,0.3-3.3,0.9-3.3,1.8c0,0.8,0.6,1.1,1.3,1.1C106.8,204.8,107.4,204.5,108.1,203.9z"/>
						<path d="M112.3,197.8h1.4l0.1,1.1h0c0.8-0.7,1.6-1.4,2.7-1.4c1.8,0,2.5,1.2,2.5,3.3v5.2h-1.7v-5c0-1.4-0.4-2-1.4-2
							c-0.8,0-1.3,0.4-2,1.1v5.8h-1.7V197.8z"/>
						<path d="M121.1,201.9c0-2.8,1.9-4.4,4.1-4.4c1,0,1.8,0.4,2.4,0.9l-0.9,1.1c-0.5-0.4-0.9-0.6-1.5-0.6c-1.4,0-2.4,1.2-2.4,2.9
							c0,1.7,0.9,2.9,2.3,2.9c0.7,0,1.3-0.3,1.8-0.8l0.7,1.1c-0.7,0.7-1.7,1-2.7,1C122.8,206.2,121.1,204.6,121.1,201.9z"/>
						<path d="M128.4,201.9c0-2.7,1.8-4.4,3.8-4.4c2.2,0,3.4,1.6,3.4,3.9c0,0.3,0,0.7-0.1,0.9h-5.4c0.1,1.6,1.1,2.5,2.5,2.5
							c0.7,0,1.4-0.2,2-0.6l0.6,1.1c-0.8,0.5-1.7,0.9-2.8,0.9C130.2,206.2,128.4,204.6,128.4,201.9z M134.1,201.1
							c0-1.4-0.6-2.2-1.8-2.2c-1,0-1.9,0.8-2.1,2.2H134.1z"/>
						<path d="M137.5,197.8h1.4l0.1,1.5h0c0.6-1.1,1.5-1.7,2.3-1.7c0.4,0,0.7,0.1,0.9,0.2l-0.3,1.5c-0.3-0.1-0.5-0.1-0.8-0.1
							c-0.7,0-1.5,0.5-2,1.8v5.1h-1.7V197.8z"/>
						<path d="M142,208c1-0.4,1.6-1.2,1.6-2.1c-0.1,0-0.1,0-0.2,0c-0.6,0-1.2-0.4-1.2-1.1c0-0.7,0.5-1.1,1.2-1.1
							c0.8,0,1.3,0.7,1.3,1.9c0,1.6-0.9,2.8-2.5,3.4L142,208z"/>
						<path d="M150.5,195h1.8l3.7,6.5l1.2,2.3h0.1c-0.1-1.1-0.2-2.5-0.2-3.7V195h1.6v11h-1.8l-3.7-6.5l-1.2-2.3h-0.1
							c0.1,1.1,0.2,2.4,0.2,3.6v5.2h-1.6V195z"/>
						<path d="M160.7,204.6l1-1.2c0.8,0.8,1.9,1.3,2.9,1.3c1.3,0,2.1-0.6,2.1-1.6c0-1-0.8-1.3-1.8-1.8l-1.5-0.7
							c-1.1-0.5-2.2-1.3-2.2-2.9c0-1.7,1.5-3,3.6-3c1.3,0,2.5,0.5,3.3,1.4l-0.9,1.1c-0.7-0.6-1.5-1-2.4-1c-1.1,0-1.9,0.5-1.9,1.4
							c0,0.9,0.9,1.3,1.8,1.7l1.5,0.6c1.3,0.6,2.3,1.4,2.3,3c0,1.8-1.5,3.2-3.9,3.2C163.1,206.2,161.7,205.6,160.7,204.6z"/>
						<path d="M170,200.5c0-3.6,2.2-5.8,5-5.8c1.4,0,2.5,0.7,3.1,1.4l-0.9,1.1c-0.6-0.6-1.3-1-2.2-1c-1.9,0-3.2,1.6-3.2,4.2
							c0,2.6,1.2,4.2,3.2,4.2c1,0,1.8-0.4,2.4-1.2l0.9,1.1c-0.9,1-2,1.6-3.4,1.6C172.1,206.2,170,204.1,170,200.5z"/>
						<path d="M180.3,195h1.7v9.6h4.7v1.5h-6.4V195z"/>
						<path d="M187.6,200.5c0-3.6,2.2-5.8,5-5.8c1.4,0,2.5,0.7,3.1,1.4l-0.9,1.1c-0.6-0.6-1.3-1-2.2-1c-1.9,0-3.2,1.6-3.2,4.2
							c0,2.6,1.2,4.2,3.2,4.2c1,0,1.8-0.4,2.4-1.2l0.9,1.1c-0.9,1-2,1.6-3.4,1.6C189.7,206.2,187.6,204.1,187.6,200.5z"/>
						<path d="M197.2,208c1-0.4,1.6-1.2,1.6-2.1c-0.1,0-0.1,0-0.2,0c-0.6,0-1.2-0.4-1.2-1.1c0-0.7,0.5-1.1,1.2-1.1
							c0.8,0,1.3,0.7,1.3,1.9c0,1.6-0.9,2.8-2.5,3.4L197.2,208z"/>
						<path d="M204.9,207.5c0-0.7,0.4-1.3,1.2-1.8v-0.1c-0.4-0.3-0.8-0.7-0.8-1.4c0-0.6,0.5-1.2,0.9-1.5v-0.1
							c-0.6-0.4-1.1-1.2-1.1-2.2c0-1.9,1.5-3,3.2-3c0.5,0,0.9,0.1,1.2,0.2h2.9v1.3H211c0.3,0.3,0.5,0.9,0.5,1.5
							c0,1.8-1.4,2.8-3.1,2.8c-0.4,0-0.8-0.1-1.2-0.3c-0.3,0.2-0.5,0.5-0.5,0.9c0,0.5,0.3,0.8,1.4,0.8h1.5c2,0,3,0.6,3,2
							c0,1.6-1.7,2.9-4.3,2.9C206.4,209.7,204.9,209,204.9,207.5z M211,207.1c0-0.7-0.5-0.9-1.5-0.9h-1.2c-0.4,0-0.8,0-1.1-0.1
							c-0.5,0.4-0.7,0.8-0.7,1.2c0,0.8,0.8,1.3,2.2,1.3C210.1,208.6,211,207.9,211,207.1z M210,200.5c0-1.1-0.7-1.8-1.6-1.8
							c-0.9,0-1.6,0.6-1.6,1.8c0,1.1,0.7,1.8,1.6,1.8C209.3,202.3,210,201.6,210,200.5z"/>
						<path d="M213.5,203.8c0-1.8,1.5-2.7,4.9-3.1c0-1-0.4-1.8-1.6-1.8c-0.9,0-1.7,0.4-2.4,0.8l-0.6-1.2c0.9-0.5,2-1.1,3.3-1.1
							c2.1,0,3,1.3,3,3.5v5h-1.4l-0.1-0.9h0c-0.8,0.6-1.6,1.1-2.6,1.1C214.5,206.2,213.5,205.3,213.5,203.8z M218.4,203.9v-2
							c-2.4,0.3-3.3,0.9-3.3,1.8c0,0.8,0.6,1.1,1.3,1.1C217.1,204.8,217.7,204.5,218.4,203.9z"/>
						<path d="M221.7,205.1l0.8-1.1c0.7,0.6,1.5,0.9,2.3,0.9c1,0,1.5-0.5,1.5-1.1c0-0.8-0.9-1.1-1.8-1.4c-1.1-0.4-2.4-1-2.4-2.4
							c0-1.4,1.1-2.4,2.9-2.4c1.1,0,2,0.5,2.7,1l-0.8,1.1c-0.6-0.4-1.2-0.7-1.8-0.7c-0.9,0-1.3,0.5-1.3,1c0,0.7,0.9,1,1.8,1.3
							c1.2,0.4,2.4,0.9,2.4,2.5c0,1.4-1.1,2.5-3.1,2.5C223.7,206.2,222.5,205.7,221.7,205.1z"/>
						<path d="M229.7,203.3v-4.2h-1.2v-1.3l1.3-0.1l0.2-2.3h1.5v2.3h2.1v1.4h-2.1v4.2c0,1,0.3,1.5,1.2,1.5c0.3,0,0.6-0.1,0.9-0.2
							l0.3,1.3c-0.5,0.2-1,0.3-1.6,0.3C230.3,206.2,229.7,205,229.7,203.3z"/>
						<path d="M235.4,197.8h1.4l0.1,1.5h0c0.6-1.1,1.5-1.7,2.3-1.7c0.4,0,0.7,0.1,0.9,0.2l-0.3,1.5c-0.3-0.1-0.5-0.1-0.8-0.1
							c-0.7,0-1.5,0.5-2,1.8v5.1h-1.7V197.8z"/>
						<path d="M241.3,195.2c0-0.6,0.5-1,1.1-1s1.1,0.4,1.1,1c0,0.6-0.5,1-1.1,1S241.3,195.8,241.3,195.2z M241.5,197.8h1.7v8.2h-1.7
							V197.8z"/>
						<path d="M245.2,201.9c0-2.8,1.9-4.4,4.1-4.4c1,0,1.8,0.4,2.4,0.9l-0.9,1.1c-0.5-0.4-0.9-0.6-1.5-0.6c-1.4,0-2.4,1.2-2.4,2.9
							c0,1.7,0.9,2.9,2.3,2.9c0.7,0,1.3-0.3,1.8-0.8l0.7,1.1c-0.8,0.7-1.7,1-2.7,1C246.9,206.2,245.2,204.6,245.2,201.9z"/>
						<path d="M256.4,201.9c0-2.8,1.9-4.4,4.1-4.4c1,0,1.8,0.4,2.4,0.9l-0.9,1.1c-0.5-0.4-0.9-0.6-1.5-0.6c-1.4,0-2.4,1.2-2.4,2.9
							c0,1.7,0.9,2.9,2.3,2.9c0.7,0,1.3-0.3,1.8-0.8l0.7,1.1c-0.8,0.7-1.7,1-2.7,1C258.1,206.2,256.4,204.6,256.4,201.9z"/>
						<path d="M264,203.8c0-1.8,1.5-2.7,4.9-3.1c0-1-0.4-1.8-1.6-1.8c-0.9,0-1.7,0.4-2.4,0.8l-0.6-1.2c0.9-0.5,2-1.1,3.3-1.1
							c2.1,0,3,1.3,3,3.5v5h-1.4l-0.1-0.9h0c-0.8,0.6-1.6,1.1-2.6,1.1C265.1,206.2,264,205.3,264,203.8z M269,203.9v-2
							c-2.4,0.3-3.3,0.9-3.3,1.8c0,0.8,0.6,1.1,1.3,1.1C267.7,204.8,268.3,204.5,269,203.9z"/>
						<path d="M273.2,197.8h1.4l0.1,1.1h0c0.8-0.7,1.6-1.4,2.7-1.4c1.8,0,2.5,1.2,2.5,3.3v5.2h-1.7v-5c0-1.4-0.4-2-1.4-2
							c-0.8,0-1.3,0.4-2,1.1v5.8h-1.7V197.8z"/>
						<path d="M281.9,201.9c0-2.8,1.9-4.4,4.1-4.4c1,0,1.8,0.4,2.4,0.9l-0.9,1.1c-0.5-0.4-0.9-0.6-1.5-0.6c-1.4,0-2.4,1.2-2.4,2.9
							c0,1.7,0.9,2.9,2.3,2.9c0.7,0,1.3-0.3,1.8-0.8l0.7,1.1c-0.8,0.7-1.7,1-2.7,1C283.6,206.2,281.9,204.6,281.9,201.9z"/>
						<path d="M289.3,201.9c0-2.7,1.8-4.4,3.8-4.4c2.2,0,3.4,1.6,3.4,3.9c0,0.3,0,0.7-0.1,0.9H291c0.1,1.6,1.1,2.5,2.5,2.5
							c0.7,0,1.4-0.2,2-0.6l0.6,1.1c-0.8,0.5-1.7,0.9-2.8,0.9C291.1,206.2,289.3,204.6,289.3,201.9z M294.9,201.1
							c0-1.4-0.6-2.2-1.8-2.2c-1,0-1.9,0.8-2.1,2.2H294.9z"/>
						<path d="M298.4,197.8h1.4l0.1,1.5h0c0.6-1.1,1.5-1.7,2.3-1.7c0.4,0,0.7,0.1,0.9,0.2l-0.3,1.5c-0.3-0.1-0.5-0.1-0.8-0.1
							c-0.7,0-1.5,0.5-2,1.8v5.1h-1.7V197.8z"/>
					</g>
					<g class="st1">
						<path d="M143.1,70.9h2.3l1.5,5.4c0.3,1.2,0.6,2.3,0.9,3.6h0.1c0.3-1.2,0.6-2.4,0.9-3.6l1.4-5.4h2.2L149.2,82h-2.6L143.1,70.9z
							"/>
						<path d="M153.8,70.9h2.5l1.9,5.2c0.2,0.7,0.4,1.4,0.7,2.1h0.1c0.2-0.7,0.4-1.5,0.7-2.1l1.8-5.2h2.5V82h-2v-4.6
							c0-1,0.2-2.6,0.3-3.6h-0.1l-0.9,2.6l-1.7,4.7h-1.3l-1.7-4.7l-0.9-2.6h-0.1c0.1,1,0.3,2.6,0.3,3.6V82h-2V70.9z"/>
						<path d="M166,79.2c0-1.4,0.9-2.3,1.9-2.9v-0.1c-0.9-0.6-1.5-1.5-1.5-2.6c0-1.8,1.4-2.9,3.3-2.9c2,0,3.2,1.2,3.2,3
							c0,1.1-0.7,2-1.4,2.5v0.1c1,0.6,1.9,1.5,1.9,3c0,1.7-1.5,3-3.7,3C167.6,82.2,166,81,166,79.2z M171.4,79.2
							c0-1.2-1-1.6-2.5-2.2c-0.6,0.5-1,1.2-1,2.1c0,1,0.8,1.7,1.9,1.7C170.7,80.7,171.4,80.1,171.4,79.2z M171.2,73.8
							c0-0.9-0.5-1.5-1.5-1.5c-0.8,0-1.3,0.5-1.3,1.4c0,1.1,0.9,1.6,2,2C170.9,75.1,171.2,74.5,171.2,73.8z"/>
						<path d="M174.8,76.4c0-3.8,1.5-5.7,3.8-5.7c2.2,0,3.8,1.9,3.8,5.7s-1.5,5.8-3.8,5.8C176.3,82.2,174.8,80.2,174.8,76.4z
							 M180.2,76.4c0-3.1-0.7-4-1.7-4c-1,0-1.7,0.9-1.7,4c0,3.1,0.7,4.1,1.7,4.1C179.5,80.5,180.2,79.5,180.2,76.4z"/>
						<path d="M184.2,80.2h2.4v-7h-2v-1.4c1.1-0.2,1.9-0.5,2.6-0.9h1.6v9.3h2.1V82h-6.7V80.2z"/>
					</g>
					<path id="divider" class="st5" d="M0,241h334"/>
				</g>
				<g id="cell2" transform="translate(0.000000, 272.000000)">
					<g>
						<path class="st0" d="M8,0h318c4.4,0,8,3.6,8,8v34c0,4.4-3.6,8-8,8H8c-4.4,0-8-3.6-8-8V8C0,3.6,3.6,0,8,0z"/>
						<g class="st1">
							<path class="st2" d="M136.4,19.9h3.6c2.5,0,4.3,0.9,4.3,3.5c0,2.5-1.9,3.7-4.3,3.7h-1.5V31h-2.2V19.9z M139.9,25.3
								c1.5,0,2.3-0.6,2.3-1.9c0-1.3-0.8-1.7-2.3-1.7h-1.3v3.6H139.9z"/>
							<path class="st2" d="M146.2,22.6h1.8l0.1,1.5h0.1c0.6-1.1,1.5-1.7,2.4-1.7c0.5,0,0.7,0.1,1,0.2l-0.4,1.9
								c-0.3-0.1-0.5-0.1-0.9-0.1c-0.7,0-1.5,0.4-1.9,1.7v5h-2.2V22.6z"/>
							<path class="st2" d="M152,26.8c0-2.8,1.9-4.4,4-4.4s4,1.6,4,4.4c0,2.8-1.9,4.4-4,4.4S152,29.6,152,26.8z M157.8,26.8
								c0-1.6-0.6-2.6-1.8-2.6s-1.8,1-1.8,2.6c0,1.6,0.6,2.6,1.8,2.6S157.8,28.4,157.8,26.8z"/>
							<path class="st2" d="M161.4,32.5c0-0.7,0.4-1.3,1.2-1.7v-0.1c-0.4-0.3-0.8-0.7-0.8-1.4c0-0.6,0.4-1.2,0.9-1.6v-0.1
								c-0.6-0.4-1.1-1.2-1.1-2.2c0-2,1.6-3,3.4-3c0.5,0,0.9,0.1,1.3,0.2h3v1.6h-1.4c0.2,0.3,0.4,0.8,0.4,1.3c0,1.9-1.4,2.8-3.2,2.8
								c-0.3,0-0.7-0.1-1.1-0.2c-0.2,0.2-0.4,0.4-0.4,0.7c0,0.5,0.3,0.7,1.3,0.7h1.4c2,0,3.1,0.6,3.1,2.1c0,1.7-1.8,3-4.6,3
								C162.9,34.6,161.4,34,161.4,32.5z M167.4,32c0-0.6-0.5-0.8-1.4-0.8h-1c-0.5,0-0.9,0-1.2-0.1c-0.4,0.3-0.6,0.6-0.6,1
								c0,0.7,0.8,1.1,2,1.1C166.5,33.2,167.4,32.7,167.4,32z M166.3,25.4c0-1-0.6-1.5-1.3-1.5s-1.3,0.6-1.3,1.5
								c0,1,0.6,1.5,1.3,1.5S166.3,26.4,166.3,25.4z"/>
							<path class="st2" d="M170.9,22.6h1.8l0.1,1.5h0.1c0.6-1.1,1.5-1.7,2.4-1.7c0.5,0,0.7,0.1,1,0.2l-0.4,1.9
								c-0.3-0.1-0.5-0.1-0.9-0.1c-0.7,0-1.5,0.4-1.9,1.7v5h-2.2V22.6z"/>
							<path class="st2" d="M176.5,28.7c0-1.8,1.5-2.7,4.8-3.1c0-0.8-0.4-1.5-1.4-1.5c-0.8,0-1.5,0.3-2.3,0.8l-0.8-1.5
								c1-0.6,2.2-1.1,3.5-1.1c2.1,0,3.2,1.3,3.2,3.7V31h-1.8l-0.2-0.9h0c-0.7,0.6-1.6,1.1-2.5,1.1
								C177.5,31.2,176.5,30.1,176.5,28.7z M181.4,28.7V27c-2,0.3-2.7,0.8-2.7,1.6c0,0.7,0.5,0.9,1.1,0.9
								C180.4,29.5,180.9,29.2,181.4,28.7z"/>
							<path class="st2" d="M185.8,22.6h1.8l0.1,1.1h0.1c0.7-0.7,1.5-1.3,2.6-1.3c1.2,0,1.9,0.5,2.3,1.5c0.8-0.8,1.6-1.5,2.7-1.5
								c1.8,0,2.6,1.3,2.6,3.4V31h-2.2v-5c0-1.3-0.4-1.8-1.2-1.8c-0.5,0-1,0.3-1.6,0.9V31h-2.2v-5c0-1.3-0.4-1.8-1.2-1.8
								c-0.5,0-1,0.3-1.6,0.9V31h-2.2V22.6z"/>
						</g>
					</g>
					<g transform="translate(0.000000, 102.000000)">
						<path class="st0" d="M8,0h318c4.4,0,8,3.6,8,8v34c0,4.4-3.6,8-8,8H8c-4.4,0-8-3.6-8-8V8C0,3.6,3.6,0,8,0z"/>
						<g class="st1">
							<path class="st2" d="M107.6,21.7h-3.1v-1.8h8.5v1.8h-3.1V31h-2.2V21.7z"/>
							<path class="st2" d="M114.6,19h2.2v3l-0.1,1.6c0.7-0.6,1.5-1.2,2.6-1.2c1.8,0,2.6,1.3,2.6,3.4V31h-2.2v-5
								c0-1.3-0.4-1.8-1.2-1.8c-0.7,0-1.1,0.3-1.8,0.9V31h-2.2V19z"/>
							<path class="st2" d="M123.6,26.8c0-2.7,1.9-4.4,3.9-4.4c2.3,0,3.5,1.7,3.5,4c0,0.4,0,0.8-0.1,1h-5.2c0.2,1.4,1.1,2.1,2.3,2.1
								c0.7,0,1.3-0.2,1.9-0.6l0.8,1.4c-0.8,0.6-1.9,0.9-2.9,0.9C125.5,31.2,123.6,29.6,123.6,26.8z M129.2,26
								c0-1.1-0.5-1.9-1.6-1.9c-0.9,0-1.7,0.6-1.8,1.9H129.2z"/>
							<path class="st2" d="M132.9,22.6h1.8l0.1,1.5h0.1c0.6-1.1,1.5-1.7,2.4-1.7c0.5,0,0.7,0.1,1,0.2l-0.4,1.9
								c-0.3-0.1-0.5-0.1-0.9-0.1c-0.7,0-1.5,0.4-1.9,1.7v5h-2.2V22.6z"/>
							<path class="st2" d="M138.5,28.7c0-1.8,1.5-2.7,4.8-3.1c0-0.8-0.4-1.5-1.4-1.5c-0.8,0-1.5,0.3-2.3,0.8l-0.8-1.5
								c1-0.6,2.2-1.1,3.5-1.1c2.1,0,3.2,1.3,3.2,3.7V31h-1.8l-0.2-0.9h0c-0.7,0.6-1.6,1.1-2.5,1.1
								C139.5,31.2,138.5,30.1,138.5,28.7z M143.4,28.7V27c-2,0.3-2.7,0.8-2.7,1.6c0,0.7,0.5,0.9,1.1,0.9
								C142.4,29.5,142.8,29.2,143.4,28.7z"/>
							<path class="st2" d="M147.8,22.6h1.8l0.1,0.9h0.1c0.7-0.6,1.6-1.1,2.5-1.1c2.1,0,3.3,1.7,3.3,4.3c0,2.9-1.7,4.5-3.6,4.5
								c-0.7,0-1.4-0.3-2.1-0.9l0.1,1.4v2.5h-2.2V22.6z M153.3,26.7c0-1.6-0.5-2.5-1.7-2.5c-0.6,0-1.1,0.3-1.7,0.9v3.7
								c0.5,0.5,1.1,0.6,1.5,0.6C152.6,29.4,153.3,28.5,153.3,26.7z"/>
							<path class="st2" d="M156.9,26.8c0-2.7,1.9-4.4,3.9-4.4c2.3,0,3.5,1.7,3.5,4c0,0.4,0,0.8-0.1,1h-5.2c0.2,1.4,1.1,2.1,2.3,2.1
								c0.7,0,1.3-0.2,1.9-0.6l0.8,1.4c-0.8,0.6-1.9,0.9-2.9,0.9C158.8,31.2,156.9,29.6,156.9,26.8z M162.5,26
								c0-1.1-0.5-1.9-1.6-1.9c-0.9,0-1.7,0.6-1.8,1.9H162.5z"/>
							<path class="st2" d="M166.1,27.9v-5.2h2.2v5c0,1.3,0.4,1.8,1.2,1.8c0.7,0,1.1-0.3,1.7-1v-5.7h2.2V31h-1.8l-0.2-1.2h-0.1
								c-0.7,0.9-1.5,1.4-2.7,1.4C166.9,31.2,166.1,30,166.1,27.9z"/>
							<path class="st2" d="M176.1,28.1v-3.7h-1.2v-1.6l1.3-0.1l0.3-2.2h1.8v2.2h2.1v1.7h-2.1v3.7c0,1,0.4,1.4,1.1,1.4
								c0.3,0,0.6-0.1,0.8-0.2l0.4,1.6c-0.5,0.2-1,0.3-1.8,0.3C176.8,31.2,176.1,30,176.1,28.1z"/>
							<path class="st2" d="M181.8,20.1c0-0.7,0.6-1.2,1.3-1.2c0.8,0,1.3,0.5,1.3,1.2c0,0.7-0.6,1.2-1.3,1.2
								C182.4,21.2,181.8,20.7,181.8,20.1z M182,22.6h2.2V31H182V22.6z"/>
							<path class="st2" d="M186.1,26.8c0-2.8,2-4.4,4.3-4.4c1,0,1.8,0.4,2.4,0.9l-1.1,1.4c-0.4-0.4-0.8-0.6-1.3-0.6
								c-1.3,0-2.1,1-2.1,2.6c0,1.6,0.9,2.6,2.1,2.6c0.6,0,1.2-0.3,1.6-0.7l0.9,1.5c-0.8,0.7-1.8,1-2.7,1
								C187.8,31.2,186.1,29.6,186.1,26.8z"/>
							<path class="st2" d="M203.3,28.2h-3.6l-0.8,2.8h-2.2l3.6-11.1h2.6l3.6,11.1h-2.3L203.3,28.2z M202.8,26.4l-0.3-1.2
								c-0.3-1.2-0.6-2.4-1-3.6h-0.1c-0.3,1.2-0.6,2.5-0.9,3.6l-0.3,1.2H202.8z"/>
							<path class="st2" d="M207.5,22.6h1.8l0.2,1.5h0.1c0.6-1.1,1.5-1.7,2.4-1.7c0.5,0,0.7,0.1,1,0.2l-0.4,1.9
								c-0.3-0.1-0.5-0.1-0.9-0.1c-0.7,0-1.5,0.4-1.9,1.7v5h-2.2V22.6z"/>
							<path class="st2" d="M213.4,26.8c0-2.7,1.9-4.4,3.9-4.4c2.3,0,3.5,1.7,3.5,4c0,0.4,0,0.8-0.1,1h-5.2c0.2,1.4,1.1,2.1,2.3,2.1
								c0.7,0,1.3-0.2,1.9-0.6l0.8,1.4c-0.8,0.6-1.9,0.9-2.9,0.9C215.2,31.2,213.4,29.6,213.4,26.8z M218.9,26
								c0-1.1-0.5-1.9-1.6-1.9c-0.9,0-1.7,0.6-1.8,1.9H218.9z"/>
							<path class="st2" d="M222,28.7c0-1.8,1.5-2.7,4.8-3.1c0-0.8-0.4-1.5-1.4-1.5c-0.8,0-1.5,0.3-2.3,0.8l-0.8-1.5
								c1-0.6,2.2-1.1,3.5-1.1c2.1,0,3.2,1.3,3.2,3.7V31h-1.8l-0.2-0.9h0c-0.7,0.6-1.6,1.1-2.5,1.1C223,31.2,222,30.1,222,28.7z
								 M226.8,28.7V27c-2,0.3-2.7,0.8-2.7,1.6c0,0.7,0.5,0.9,1.1,0.9C225.8,29.5,226.3,29.2,226.8,28.7z"/>
						</g>
					</g>
					<g class="st1">
						<path d="M49.8,179.9c0-2.8,1.8-4.4,3.9-4.4s3.9,1.6,3.9,4.4c0,2.7-1.8,4.3-3.9,4.3S49.8,182.6,49.8,179.9z M55.8,179.9
							c0-1.8-0.8-2.9-2.1-2.9c-1.3,0-2.1,1.2-2.1,2.9c0,1.7,0.8,2.9,2.1,2.9C55,182.8,55.8,181.6,55.8,179.9z"/>
						<path d="M58.4,175.8h1.8l1.4,4.4c0.2,0.8,0.5,1.6,0.7,2.5h0.1c0.2-0.8,0.5-1.7,0.7-2.5l1.4-4.4h1.7l-2.9,8.2h-2L58.4,175.8z"
							/>
						<path d="M66.8,181.8c0-1.8,1.5-2.7,4.9-3.1c0-1-0.4-1.8-1.6-1.8c-0.9,0-1.7,0.4-2.4,0.8l-0.6-1.2c0.9-0.5,2-1.1,3.3-1.1
							c2.1,0,3,1.3,3,3.5v5h-1.4l-0.2-0.9h0c-0.8,0.6-1.6,1.1-2.6,1.1C67.8,184.2,66.8,183.3,66.8,181.8z M71.8,181.9v-2
							c-2.4,0.3-3.3,0.9-3.3,1.8c0,0.8,0.6,1.1,1.3,1.1C70.5,182.8,71.1,182.5,71.8,181.9z"/>
						<path d="M75.9,175.8h1.4l0.1,1.5h0c0.6-1.1,1.5-1.7,2.3-1.7c0.4,0,0.7,0.1,0.9,0.2l-0.3,1.5c-0.3-0.1-0.5-0.1-0.8-0.1
							c-0.7,0-1.5,0.5-2,1.8v5.1h-1.7V175.8z"/>
						<path d="M81.8,173.2c0-0.6,0.5-1,1.1-1s1.1,0.4,1.1,1c0,0.6-0.5,1-1.1,1S81.8,173.8,81.8,173.2z M82.1,175.8h1.7v8.2h-1.7
							V175.8z"/>
						<path d="M85.9,181.8c0-1.8,1.5-2.7,4.9-3.1c0-1-0.4-1.8-1.6-1.8c-0.9,0-1.7,0.4-2.4,0.8l-0.6-1.2c0.9-0.5,2-1.1,3.3-1.1
							c2.1,0,3,1.3,3,3.5v5h-1.4l-0.2-0.9h0c-0.8,0.6-1.6,1.1-2.6,1.1C86.9,184.2,85.9,183.3,85.9,181.8z M90.8,181.9v-2
							c-2.4,0.3-3.3,0.9-3.3,1.8c0,0.8,0.6,1.1,1.3,1.1C89.6,182.8,90.2,182.5,90.8,181.9z"/>
						<path d="M95,175.8h1.4l0.1,1.1h0c0.8-0.7,1.6-1.4,2.7-1.4c1.8,0,2.5,1.2,2.5,3.3v5.2h-1.7v-5c0-1.4-0.4-2-1.4-2
							c-0.8,0-1.3,0.4-2,1.1v5.8H95V175.8z"/>
						<path d="M107.2,179.9c0-2.8,1.9-4.4,4.1-4.4c1,0,1.8,0.4,2.4,0.9l-0.9,1.1c-0.5-0.4-0.9-0.6-1.5-0.6c-1.4,0-2.4,1.2-2.4,2.9
							c0,1.7,0.9,2.9,2.3,2.9c0.7,0,1.3-0.3,1.8-0.8l0.7,1.1c-0.7,0.7-1.7,1-2.7,1C108.9,184.2,107.2,182.6,107.2,179.9z"/>
						<path d="M114.9,181.8c0-1.8,1.5-2.7,4.9-3.1c0-1-0.4-1.8-1.6-1.8c-0.9,0-1.7,0.4-2.4,0.8l-0.6-1.2c0.9-0.5,2-1.1,3.3-1.1
							c2.1,0,3,1.3,3,3.5v5h-1.4l-0.2-0.9h0c-0.8,0.6-1.6,1.1-2.6,1.1C115.9,184.2,114.9,183.3,114.9,181.8z M119.8,181.9v-2
							c-2.4,0.3-3.3,0.9-3.3,1.8c0,0.8,0.6,1.1,1.3,1.1C118.5,182.8,119.1,182.5,119.8,181.9z"/>
						<path d="M124,175.8h1.4l0.1,1.1h0c0.8-0.7,1.6-1.4,2.7-1.4c1.8,0,2.5,1.2,2.5,3.3v5.2h-1.7v-5c0-1.4-0.4-2-1.4-2
							c-0.8,0-1.3,0.4-2,1.1v5.8H124V175.8z"/>
						<path d="M132.7,179.9c0-2.8,1.9-4.4,4.1-4.4c1,0,1.8,0.4,2.4,0.9l-0.9,1.1c-0.5-0.4-0.9-0.6-1.5-0.6c-1.4,0-2.4,1.2-2.4,2.9
							c0,1.7,0.9,2.9,2.3,2.9c0.7,0,1.3-0.3,1.8-0.8l0.7,1.1c-0.7,0.7-1.7,1-2.7,1C134.4,184.2,132.7,182.6,132.7,179.9z"/>
						<path d="M140.1,179.9c0-2.7,1.8-4.4,3.8-4.4c2.2,0,3.4,1.6,3.4,3.9c0,0.3,0,0.7-0.1,0.9h-5.4c0.1,1.6,1.1,2.5,2.5,2.5
							c0.7,0,1.4-0.2,2-0.6l0.6,1.1c-0.8,0.5-1.7,0.9-2.8,0.9C141.9,184.2,140.1,182.6,140.1,179.9z M145.7,179.1
							c0-1.4-0.6-2.2-1.8-2.2c-1,0-1.9,0.8-2.1,2.2H145.7z"/>
						<path d="M149.2,175.8h1.4l0.1,1.5h0c0.6-1.1,1.5-1.7,2.3-1.7c0.4,0,0.7,0.1,0.9,0.2l-0.3,1.5c-0.3-0.1-0.5-0.1-0.8-0.1
							c-0.7,0-1.5,0.5-2,1.8v5.1h-1.7V175.8z"/>
						<path d="M153.7,186c1-0.4,1.6-1.2,1.6-2.1c-0.1,0-0.1,0-0.2,0c-0.6,0-1.2-0.4-1.2-1.1c0-0.7,0.5-1.1,1.2-1.1
							c0.8,0,1.3,0.7,1.3,1.9c0,1.6-0.9,2.8-2.5,3.4L153.7,186z"/>
						<path d="M161.4,179.9c0-2.8,1.9-4.4,4.1-4.4c1,0,1.8,0.4,2.4,0.9l-0.9,1.1c-0.5-0.4-0.9-0.6-1.5-0.6c-1.4,0-2.4,1.2-2.4,2.9
							c0,1.7,0.9,2.9,2.3,2.9c0.7,0,1.3-0.3,1.8-0.8l0.7,1.1c-0.7,0.7-1.7,1-2.7,1C163.1,184.2,161.4,182.6,161.4,179.9z"/>
						<path d="M168.8,179.9c0-2.8,1.8-4.4,3.9-4.4s3.9,1.6,3.9,4.4c0,2.7-1.8,4.3-3.9,4.3S168.8,182.6,168.8,179.9z M174.8,179.9
							c0-1.8-0.8-2.9-2.1-2.9c-1.3,0-2.1,1.2-2.1,2.9c0,1.7,0.8,2.9,2.1,2.9C174,182.8,174.8,181.6,174.8,179.9z"/>
						<path d="M178.6,182.1v-10h1.7v10.1c0,0.5,0.2,0.6,0.4,0.6c0.1,0,0.1,0,0.3,0l0.2,1.3c-0.2,0.1-0.5,0.1-0.9,0.1
							C179.1,184.2,178.6,183.4,178.6,182.1z"/>
						<path d="M182.5,179.9c0-2.8,1.8-4.4,3.9-4.4s3.9,1.6,3.9,4.4c0,2.7-1.8,4.3-3.9,4.3S182.5,182.6,182.5,179.9z M188.5,179.9
							c0-1.8-0.8-2.9-2.1-2.9c-1.3,0-2.1,1.2-2.1,2.9c0,1.7,0.8,2.9,2.1,2.9C187.7,182.8,188.5,181.6,188.5,179.9z"/>
						<path d="M192.3,175.8h1.4l0.1,1.5h0c0.6-1.1,1.5-1.7,2.3-1.7c0.4,0,0.7,0.1,0.9,0.2l-0.3,1.5c-0.3-0.1-0.5-0.1-0.8-0.1
							c-0.7,0-1.5,0.5-2,1.8v5.1h-1.7V175.8z"/>
						<path d="M197.7,179.9c0-2.7,1.8-4.4,3.8-4.4c2.2,0,3.4,1.6,3.4,3.9c0,0.3,0,0.7-0.1,0.9h-5.4c0.1,1.6,1.1,2.5,2.5,2.5
							c0.7,0,1.4-0.2,2-0.6l0.6,1.1c-0.8,0.5-1.7,0.9-2.8,0.9C199.4,184.2,197.7,182.6,197.7,179.9z M203.3,179.1
							c0-1.4-0.6-2.2-1.8-2.2c-1,0-1.9,0.8-2.1,2.2H203.3z"/>
						<path d="M206.1,179.9c0-2.8,1.9-4.4,4.1-4.4c1,0,1.8,0.4,2.4,0.9l-0.9,1.1c-0.5-0.4-0.9-0.6-1.5-0.6c-1.4,0-2.4,1.2-2.4,2.9
							c0,1.7,0.9,2.9,2.3,2.9c0.7,0,1.3-0.3,1.8-0.8l0.7,1.1c-0.7,0.7-1.7,1-2.7,1C207.8,184.2,206.1,182.6,206.1,179.9z"/>
						<path d="M214.6,181.3v-4.2h-1.2v-1.3l1.3-0.1l0.2-2.3h1.5v2.3h2.1v1.4h-2.1v4.2c0,1,0.3,1.5,1.2,1.5c0.3,0,0.6-0.1,0.9-0.2
							l0.3,1.3c-0.5,0.2-1,0.3-1.6,0.3C215.2,184.2,214.6,183,214.6,181.3z"/>
						<path d="M219.4,181.8c0-1.8,1.5-2.7,4.9-3.1c0-1-0.4-1.8-1.6-1.8c-0.9,0-1.7,0.4-2.4,0.8l-0.6-1.2c0.9-0.5,2-1.1,3.3-1.1
							c2.1,0,3,1.3,3,3.5v5h-1.4l-0.2-0.9h0c-0.8,0.6-1.6,1.1-2.6,1.1C220.4,184.2,219.4,183.3,219.4,181.8z M224.3,181.9v-2
							c-2.4,0.3-3.3,0.9-3.3,1.8c0,0.8,0.6,1.1,1.3,1.1C223.1,182.8,223.7,182.5,224.3,181.9z"/>
						<path d="M228.5,182.1v-10h1.7v10.1c0,0.5,0.2,0.6,0.4,0.6c0.1,0,0.1,0,0.3,0l0.2,1.3c-0.2,0.1-0.5,0.1-0.9,0.1
							C229,184.2,228.5,183.4,228.5,182.1z"/>
						<path d="M235.8,179.9c0-2.8,1.9-4.4,4.1-4.4c1,0,1.8,0.4,2.4,0.9l-0.9,1.1c-0.5-0.4-0.9-0.6-1.5-0.6c-1.4,0-2.4,1.2-2.4,2.9
							c0,1.7,0.9,2.9,2.3,2.9c0.7,0,1.3-0.3,1.8-0.8l0.7,1.1c-0.7,0.7-1.7,1-2.7,1C237.5,184.2,235.8,182.6,235.8,179.9z"/>
						<path d="M243.5,181.8c0-1.8,1.5-2.7,4.9-3.1c0-1-0.4-1.8-1.6-1.8c-0.9,0-1.7,0.4-2.4,0.8l-0.6-1.2c0.9-0.5,2-1.1,3.3-1.1
							c2.1,0,3,1.3,3,3.5v5h-1.4l-0.2-0.9h0c-0.8,0.6-1.6,1.1-2.6,1.1C244.5,184.2,243.5,183.3,243.5,181.8z M248.4,181.9v-2
							c-2.4,0.3-3.3,0.9-3.3,1.8c0,0.8,0.6,1.1,1.3,1.1C247.1,182.8,247.7,182.5,248.4,181.9z"/>
						<path d="M252.6,175.8h1.4l0.1,1.1h0c0.8-0.7,1.6-1.4,2.7-1.4c1.8,0,2.5,1.2,2.5,3.3v5.2h-1.7v-5c0-1.4-0.4-2-1.4-2
							c-0.8,0-1.3,0.4-2,1.1v5.8h-1.7V175.8z"/>
						<path d="M261.3,179.9c0-2.8,1.9-4.4,4.1-4.4c1,0,1.8,0.4,2.4,0.9l-0.9,1.1c-0.5-0.4-0.9-0.6-1.5-0.6c-1.4,0-2.4,1.2-2.4,2.9
							c0,1.7,0.9,2.9,2.3,2.9c0.7,0,1.3-0.3,1.8-0.8l0.7,1.1c-0.7,0.7-1.7,1-2.7,1C263.1,184.2,261.3,182.6,261.3,179.9z"/>
						<path d="M268.7,179.9c0-2.7,1.8-4.4,3.8-4.4c2.2,0,3.4,1.6,3.4,3.9c0,0.3,0,0.7-0.1,0.9h-5.4c0.1,1.6,1.1,2.5,2.5,2.5
							c0.7,0,1.4-0.2,2-0.6l0.6,1.1c-0.8,0.5-1.7,0.9-2.8,0.9C270.5,184.2,268.7,182.6,268.7,179.9z M274.4,179.1
							c0-1.4-0.6-2.2-1.8-2.2c-1,0-2,0.8-2.1,2.2H274.4z"/>
						<path d="M277.8,175.8h1.4l0.1,1.5h0c0.6-1.1,1.5-1.7,2.3-1.7c0.4,0,0.7,0.1,0.9,0.2l-0.3,1.5c-0.3-0.1-0.5-0.1-0.8-0.1
							c-0.7,0-1.5,0.5-2,1.8v5.1h-1.7V175.8z"/>
						<path d="M282.3,186c1-0.4,1.6-1.2,1.6-2.1c-0.1,0-0.1,0-0.2,0c-0.6,0-1.2-0.4-1.2-1.1c0-0.7,0.5-1.1,1.2-1.1
							c0.8,0,1.3,0.7,1.3,1.9c0,1.6-0.9,2.8-2.5,3.4L282.3,186z"/>
					</g>
					<text transform="matrix(1 0 0 1 285.9465 184)" class="st3 st4"> </text>
					<g class="st1">
						<path d="M47,197.8h1.4l0.1,0.9h0c0.7-0.6,1.6-1.1,2.5-1.1c2.1,0,3.3,1.7,3.3,4.2c0,2.8-1.7,4.5-3.6,4.5
							c-0.7,0-1.5-0.3-2.2-0.9l0,1.4v2.7H47V197.8z M52.6,201.8c0-1.7-0.6-2.8-1.9-2.8c-0.6,0-1.3,0.3-2,1v4
							c0.6,0.6,1.3,0.8,1.8,0.8C51.7,204.8,52.6,203.7,52.6,201.8z"/>
						<path d="M56.4,197.8h1.4l0.1,1.5h0c0.6-1.1,1.5-1.7,2.3-1.7c0.4,0,0.7,0.1,0.9,0.2l-0.3,1.5c-0.3-0.1-0.5-0.1-0.8-0.1
							c-0.7,0-1.5,0.5-2,1.8v5.1h-1.7V197.8z"/>
						<path d="M61.8,201.9c0-2.8,1.8-4.4,3.9-4.4c2,0,3.9,1.6,3.9,4.4c0,2.7-1.8,4.3-3.9,4.3C63.6,206.2,61.8,204.6,61.8,201.9z
							 M67.8,201.9c0-1.8-0.8-2.9-2.1-2.9c-1.3,0-2.1,1.2-2.1,2.9c0,1.7,0.8,2.9,2.1,2.9C67,204.8,67.8,203.6,67.8,201.9z"/>
						<path d="M70.7,205.1l0.8-1.1c0.7,0.6,1.5,0.9,2.3,0.9c1,0,1.5-0.5,1.5-1.1c0-0.8-0.9-1.1-1.8-1.4c-1.1-0.4-2.4-1-2.4-2.4
							c0-1.4,1.1-2.4,2.9-2.4c1.1,0,2,0.5,2.7,1l-0.8,1.1c-0.6-0.4-1.2-0.7-1.8-0.7c-0.9,0-1.3,0.5-1.3,1c0,0.7,0.9,1,1.8,1.3
							c1.2,0.4,2.4,0.9,2.4,2.5c0,1.4-1.1,2.5-3.1,2.5C72.6,206.2,71.5,205.7,70.7,205.1z"/>
						<path d="M78.7,203.3v-4.2h-1.2v-1.3l1.3-0.1l0.2-2.3h1.5v2.3h2.1v1.4h-2.1v4.2c0,1,0.3,1.5,1.2,1.5c0.3,0,0.6-0.1,0.9-0.2
							l0.3,1.3c-0.5,0.2-1,0.3-1.6,0.3C79.3,206.2,78.7,205,78.7,203.3z"/>
						<path d="M83.5,203.8c0-1.8,1.5-2.7,4.9-3.1c0-1-0.4-1.8-1.6-1.8c-0.9,0-1.7,0.4-2.4,0.8l-0.6-1.2c0.9-0.5,2-1.1,3.3-1.1
							c2.1,0,3,1.3,3,3.5v5h-1.4l-0.1-0.9h0c-0.8,0.6-1.6,1.1-2.6,1.1C84.5,206.2,83.5,205.3,83.5,203.8z M88.4,203.9v-2
							c-2.4,0.3-3.3,0.9-3.3,1.8c0,0.8,0.6,1.1,1.3,1.1C87.2,204.8,87.8,204.5,88.4,203.9z"/>
						<path d="M92.6,203.3v-4.2h-1.2v-1.3l1.3-0.1l0.2-2.3h1.5v2.3h2.1v1.4h-2.1v4.2c0,1,0.3,1.5,1.2,1.5c0.3,0,0.6-0.1,0.9-0.2
							l0.3,1.3c-0.5,0.2-1,0.3-1.6,0.3C93.3,206.2,92.6,205,92.6,203.3z"/>
						<path d="M97.5,201.9c0-2.7,1.8-4.4,3.8-4.4c2.2,0,3.4,1.6,3.4,3.9c0,0.3,0,0.7-0.1,0.9h-5.4c0.1,1.6,1.1,2.5,2.5,2.5
							c0.7,0,1.4-0.2,2-0.6l0.6,1.1c-0.8,0.5-1.7,0.9-2.8,0.9C99.2,206.2,97.5,204.6,97.5,201.9z M103.1,201.1
							c0-1.4-0.6-2.2-1.8-2.2c-1,0-1.9,0.8-2.1,2.2H103.1z"/>
						<path d="M109.3,201.9c0-2.8,1.9-4.4,4.1-4.4c1,0,1.8,0.4,2.4,0.9l-0.9,1.1c-0.5-0.4-0.9-0.6-1.5-0.6c-1.4,0-2.4,1.2-2.4,2.9
							c0,1.7,0.9,2.9,2.3,2.9c0.7,0,1.3-0.3,1.8-0.8l0.7,1.1c-0.7,0.7-1.7,1-2.7,1C111,206.2,109.3,204.6,109.3,201.9z"/>
						<path d="M117,203.8c0-1.8,1.5-2.7,4.9-3.1c0-1-0.4-1.8-1.6-1.8c-0.9,0-1.7,0.4-2.4,0.8l-0.6-1.2c0.9-0.5,2-1.1,3.3-1.1
							c2.1,0,3,1.3,3,3.5v5h-1.4l-0.1-0.9h0c-0.8,0.6-1.6,1.1-2.6,1.1C118,206.2,117,205.3,117,203.8z M121.9,203.9v-2
							c-2.4,0.3-3.3,0.9-3.3,1.8c0,0.8,0.6,1.1,1.3,1.1C120.7,204.8,121.3,204.5,121.9,203.9z"/>
						<path d="M126.1,197.8h1.4l0.1,1.1h0c0.8-0.7,1.6-1.4,2.7-1.4c1.8,0,2.5,1.2,2.5,3.3v5.2h-1.7v-5c0-1.4-0.4-2-1.4-2
							c-0.8,0-1.3,0.4-2,1.1v5.8h-1.7V197.8z"/>
						<path d="M134.9,201.9c0-2.8,1.9-4.4,4.1-4.4c1,0,1.8,0.4,2.4,0.9l-0.9,1.1c-0.5-0.4-0.9-0.6-1.5-0.6c-1.4,0-2.4,1.2-2.4,2.9
							c0,1.7,0.9,2.9,2.3,2.9c0.7,0,1.3-0.3,1.8-0.8l0.7,1.1c-0.7,0.7-1.7,1-2.7,1C136.6,206.2,134.9,204.6,134.9,201.9z"/>
						<path d="M142.3,201.9c0-2.7,1.8-4.4,3.8-4.4c2.2,0,3.4,1.6,3.4,3.9c0,0.3,0,0.7-0.1,0.9H144c0.1,1.6,1.1,2.5,2.5,2.5
							c0.7,0,1.4-0.2,2-0.6l0.6,1.1c-0.8,0.5-1.7,0.9-2.8,0.9C144,206.2,142.3,204.6,142.3,201.9z M147.9,201.1
							c0-1.4-0.6-2.2-1.8-2.2c-1,0-1.9,0.8-2.1,2.2H147.9z"/>
						<path d="M151.3,197.8h1.4l0.1,1.5h0c0.6-1.1,1.5-1.7,2.3-1.7c0.4,0,0.7,0.1,0.9,0.2l-0.3,1.5c-0.3-0.1-0.5-0.1-0.8-0.1
							c-0.7,0-1.5,0.5-2,1.8v5.1h-1.7V197.8z"/>
						<path d="M155.8,208c1-0.4,1.6-1.2,1.6-2.1c-0.1,0-0.1,0-0.2,0c-0.6,0-1.2-0.4-1.2-1.1c0-0.7,0.5-1.1,1.2-1.1
							c0.8,0,1.3,0.7,1.3,1.9c0,1.6-0.9,2.8-2.5,3.4L155.8,208z"/>
						<path d="M164.2,197.8h1.4l0.1,0.9h0c0.7-0.6,1.6-1.1,2.5-1.1c2.1,0,3.3,1.7,3.3,4.2c0,2.8-1.7,4.5-3.6,4.5
							c-0.7,0-1.5-0.3-2.2-0.9l0,1.4v2.7h-1.7V197.8z M169.8,201.8c0-1.7-0.6-2.8-1.9-2.8c-0.6,0-1.3,0.3-2,1v4
							c0.6,0.6,1.3,0.8,1.8,0.8C168.9,204.8,169.8,203.7,169.8,201.8z"/>
						<path d="M172.9,203.8c0-1.8,1.5-2.7,4.9-3.1c0-1-0.4-1.8-1.6-1.8c-0.9,0-1.7,0.4-2.4,0.8l-0.6-1.2c0.9-0.5,2-1.1,3.3-1.1
							c2.1,0,3,1.3,3,3.5v5h-1.4l-0.1-0.9h0c-0.8,0.6-1.6,1.1-2.6,1.1C173.9,206.2,172.9,205.3,172.9,203.8z M177.8,203.9v-2
							c-2.4,0.3-3.3,0.9-3.3,1.8c0,0.8,0.6,1.1,1.3,1.1C176.6,204.8,177.2,204.5,177.8,203.9z"/>
						<path d="M182,197.8h1.4l0.1,1.1h0c0.8-0.7,1.6-1.4,2.7-1.4c1.8,0,2.5,1.2,2.5,3.3v5.2h-1.7v-5c0-1.4-0.4-2-1.4-2
							c-0.8,0-1.3,0.4-2,1.1v5.8H182V197.8z"/>
						<path d="M190.8,201.9c0-2.8,1.9-4.4,4.1-4.4c1,0,1.8,0.4,2.4,0.9l-0.9,1.1c-0.5-0.4-0.9-0.6-1.5-0.6c-1.4,0-2.4,1.2-2.4,2.9
							c0,1.7,0.9,2.9,2.3,2.9c0.7,0,1.3-0.3,1.8-0.8l0.7,1.1c-0.8,0.7-1.7,1-2.7,1C192.5,206.2,190.8,204.6,190.8,201.9z"/>
						<path d="M199.1,197.8h1.4l0.1,1.5h0c0.6-1.1,1.5-1.7,2.3-1.7c0.4,0,0.7,0.1,0.9,0.2l-0.3,1.5c-0.3-0.1-0.5-0.1-0.8-0.1
							c-0.7,0-1.5,0.5-2,1.8v5.1h-1.7V197.8z"/>
						<path d="M204.5,201.9c0-2.7,1.8-4.4,3.8-4.4c2.2,0,3.4,1.6,3.4,3.9c0,0.3,0,0.7-0.1,0.9h-5.4c0.1,1.6,1.1,2.5,2.5,2.5
							c0.7,0,1.4-0.2,2-0.6l0.6,1.1c-0.8,0.5-1.7,0.9-2.8,0.9C206.3,206.2,204.5,204.6,204.5,201.9z M210.2,201.1
							c0-1.4-0.6-2.2-1.8-2.2c-1,0-2,0.8-2.1,2.2H210.2z"/>
						<path d="M212.9,203.8c0-1.8,1.5-2.7,4.9-3.1c0-1-0.4-1.8-1.6-1.8c-0.9,0-1.7,0.4-2.4,0.8l-0.6-1.2c0.9-0.5,2-1.1,3.3-1.1
							c2.1,0,3,1.3,3,3.5v5h-1.4l-0.1-0.9h0c-0.8,0.6-1.6,1.1-2.6,1.1C213.9,206.2,212.9,205.3,212.9,203.8z M217.8,203.9v-2
							c-2.4,0.3-3.3,0.9-3.3,1.8c0,0.8,0.6,1.1,1.3,1.1C216.5,204.8,217.1,204.5,217.8,203.9z"/>
						<path d="M222,203.3v-4.2h-1.2v-1.3l1.3-0.1l0.2-2.3h1.5v2.3h2.1v1.4h-2.1v4.2c0,1,0.3,1.5,1.2,1.5c0.3,0,0.6-0.1,0.9-0.2
							l0.3,1.3c-0.5,0.2-1,0.3-1.6,0.3C222.6,206.2,222,205,222,203.3z"/>
						<path d="M227.4,195.2c0-0.6,0.5-1,1.1-1c0.6,0,1.1,0.4,1.1,1c0,0.6-0.5,1-1.1,1C227.9,196.2,227.4,195.8,227.4,195.2z
							 M227.7,197.8h1.7v8.2h-1.7V197.8z"/>
						<path d="M231.4,201.9c0-2.8,1.9-4.4,4.1-4.4c1,0,1.8,0.4,2.4,0.9l-0.9,1.1c-0.5-0.4-0.9-0.6-1.5-0.6c-1.4,0-2.4,1.2-2.4,2.9
							c0,1.7,0.9,2.9,2.3,2.9c0.7,0,1.3-0.3,1.8-0.8l0.7,1.1c-0.8,0.7-1.7,1-2.7,1C233.1,206.2,231.4,204.6,231.4,201.9z"/>
						<path d="M242.5,201.9c0-2.8,1.9-4.4,4.1-4.4c1,0,1.8,0.4,2.4,0.9l-0.9,1.1c-0.5-0.4-0.9-0.6-1.5-0.6c-1.4,0-2.4,1.2-2.4,2.9
							c0,1.7,0.9,2.9,2.3,2.9c0.7,0,1.3-0.3,1.8-0.8l0.7,1.1c-0.7,0.7-1.7,1-2.7,1C244.2,206.2,242.5,204.6,242.5,201.9z"/>
						<path d="M250.2,203.8c0-1.8,1.5-2.7,4.9-3.1c0-1-0.4-1.8-1.6-1.8c-0.9,0-1.7,0.4-2.4,0.8l-0.6-1.2c0.9-0.5,2-1.1,3.3-1.1
							c2.1,0,3,1.3,3,3.5v5h-1.4l-0.2-0.9h0c-0.8,0.6-1.6,1.1-2.6,1.1C251.2,206.2,250.2,205.3,250.2,203.8z M255.1,203.9v-2
							c-2.4,0.3-3.3,0.9-3.3,1.8c0,0.8,0.6,1.1,1.3,1.1C253.9,204.8,254.5,204.5,255.1,203.9z"/>
						<path d="M259.3,197.8h1.4l0.1,1.1h0c0.8-0.7,1.6-1.4,2.7-1.4c1.8,0,2.5,1.2,2.5,3.3v5.2h-1.7v-5c0-1.4-0.4-2-1.4-2
							c-0.8,0-1.3,0.4-2,1.1v5.8h-1.7V197.8z"/>
						<path d="M268.1,201.9c0-2.8,1.9-4.4,4.1-4.4c1,0,1.8,0.4,2.4,0.9l-0.9,1.1c-0.5-0.4-0.9-0.6-1.5-0.6c-1.4,0-2.4,1.2-2.4,2.9
							c0,1.7,0.9,2.9,2.3,2.9c0.7,0,1.3-0.3,1.8-0.8l0.7,1.1c-0.7,0.7-1.7,1-2.7,1C269.8,206.2,268.1,204.6,268.1,201.9z"/>
						<path d="M275.5,201.9c0-2.7,1.8-4.4,3.8-4.4c2.2,0,3.4,1.6,3.4,3.9c0,0.3,0,0.7-0.1,0.9h-5.4c0.1,1.6,1.1,2.5,2.5,2.5
							c0.7,0,1.4-0.2,2-0.6l0.6,1.1c-0.8,0.5-1.7,0.9-2.8,0.9C277.2,206.2,275.5,204.6,275.5,201.9z M281.1,201.1
							c0-1.4-0.6-2.2-1.8-2.2c-1,0-2,0.8-2.1,2.2H281.1z"/>
						<path d="M284.5,197.8h1.4l0.1,1.5h0c0.6-1.1,1.5-1.7,2.3-1.7c0.4,0,0.7,0.1,0.9,0.2l-0.3,1.5c-0.3-0.1-0.5-0.1-0.8-0.1
							c-0.7,0-1.5,0.5-2,1.8v5.1h-1.7V197.8z"/>
					</g>
					<g class="st1">
						<path d="M143.1,70.9h2.3l1.5,5.4c0.3,1.2,0.6,2.3,0.9,3.6h0.1c0.3-1.2,0.6-2.4,0.9-3.6l1.4-5.4h2.2L149.2,82h-2.6L143.1,70.9z
							"/>
						<path d="M153.8,70.9h2.5l1.9,5.2c0.2,0.7,0.4,1.4,0.7,2.1h0.1c0.2-0.7,0.4-1.5,0.7-2.1l1.8-5.2h2.5V82h-2v-4.6
							c0-1,0.2-2.6,0.3-3.6h-0.1l-0.9,2.6l-1.7,4.7h-1.3l-1.7-4.7l-0.9-2.6h-0.1c0.1,1,0.3,2.6,0.3,3.6V82h-2V70.9z"/>
						<path d="M166,79.2c0-1.4,0.9-2.3,1.9-2.9v-0.1c-0.9-0.6-1.5-1.5-1.5-2.6c0-1.8,1.4-2.9,3.3-2.9c2,0,3.2,1.2,3.2,3
							c0,1.1-0.7,2-1.4,2.5v0.1c1,0.6,1.9,1.5,1.9,3c0,1.7-1.5,3-3.7,3C167.6,82.2,166,81,166,79.2z M171.4,79.2
							c0-1.2-1-1.6-2.5-2.2c-0.6,0.5-1,1.2-1,2.1c0,1,0.8,1.7,1.9,1.7C170.7,80.7,171.4,80.1,171.4,79.2z M171.2,73.8
							c0-0.9-0.5-1.5-1.5-1.5c-0.8,0-1.3,0.5-1.3,1.4c0,1.1,0.9,1.6,2,2C170.9,75.1,171.2,74.5,171.2,73.8z"/>
						<path d="M174.8,76.4c0-3.8,1.5-5.7,3.8-5.7c2.2,0,3.8,1.9,3.8,5.7s-1.5,5.8-3.8,5.8C176.3,82.2,174.8,80.2,174.8,76.4z
							 M180.2,76.4c0-3.1-0.7-4-1.7-4c-1,0-1.7,0.9-1.7,4c0,3.1,0.7,4.1,1.7,4.1C179.5,80.5,180.2,79.5,180.2,76.4z"/>
						<path d="M183.3,80.7l1-1.4c0.7,0.6,1.5,1.1,2.5,1.1c1.1,0,1.9-0.6,1.9-1.5c0-1.1-0.6-1.8-3.1-1.8v-1.6c2,0,2.7-0.7,2.7-1.7
							c0-0.9-0.5-1.4-1.5-1.4c-0.8,0-1.4,0.4-2.1,1l-1.1-1.3c1-0.8,2-1.4,3.3-1.4c2.1,0,3.6,1,3.6,3c0,1.2-0.7,2.1-1.9,2.5v0.1
							c1.3,0.3,2.2,1.3,2.2,2.7c0,2-1.8,3.2-3.9,3.2C185.3,82.2,184.1,81.5,183.3,80.7z"/>
					</g>
					<path class="st5" d="M0,241h334"/>
				</g>
				<g id="cell3" transform="translate(0.000000, 544.000000)">
					<g>
						<path class="st0" d="M8,0h318c4.4,0,8,3.6,8,8v34c0,4.4-3.6,8-8,8H8c-4.4,0-8-3.6-8-8V8C0,3.6,3.6,0,8,0z"/>
						<g class="st1">
							<path class="st2" d="M136.4,19.9h3.6c2.5,0,4.3,0.9,4.3,3.5c0,2.5-1.9,3.7-4.3,3.7h-1.5V31h-2.2V19.9z M139.9,25.3
								c1.5,0,2.3-0.6,2.3-1.9c0-1.3-0.8-1.7-2.3-1.7h-1.3v3.6H139.9z"/>
							<path class="st2" d="M146.2,22.6h1.8l0.1,1.5h0.1c0.6-1.1,1.5-1.7,2.4-1.7c0.5,0,0.7,0.1,1,0.2l-0.4,1.9
								c-0.3-0.1-0.5-0.1-0.9-0.1c-0.7,0-1.5,0.4-1.9,1.7v5h-2.2V22.6z"/>
							<path class="st2" d="M152,26.8c0-2.8,1.9-4.4,4-4.4s4,1.6,4,4.4c0,2.8-1.9,4.4-4,4.4S152,29.6,152,26.8z M157.8,26.8
								c0-1.6-0.6-2.6-1.8-2.6s-1.8,1-1.8,2.6c0,1.6,0.6,2.6,1.8,2.6S157.8,28.4,157.8,26.8z"/>
							<path class="st2" d="M161.4,32.5c0-0.7,0.4-1.3,1.2-1.7v-0.1c-0.4-0.3-0.8-0.7-0.8-1.4c0-0.6,0.4-1.2,0.9-1.6v-0.1
								c-0.6-0.4-1.1-1.2-1.1-2.2c0-2,1.6-3,3.4-3c0.5,0,0.9,0.1,1.3,0.2h3v1.6h-1.4c0.2,0.3,0.4,0.8,0.4,1.3c0,1.9-1.4,2.8-3.2,2.8
								c-0.3,0-0.7-0.1-1.1-0.2c-0.2,0.2-0.4,0.4-0.4,0.7c0,0.5,0.3,0.7,1.3,0.7h1.4c2,0,3.1,0.6,3.1,2.1c0,1.7-1.8,3-4.6,3
								C162.9,34.6,161.4,34,161.4,32.5z M167.4,32c0-0.6-0.5-0.8-1.4-0.8h-1c-0.5,0-0.9,0-1.2-0.1c-0.4,0.3-0.6,0.6-0.6,1
								c0,0.7,0.8,1.1,2,1.1C166.5,33.2,167.4,32.7,167.4,32z M166.3,25.4c0-1-0.6-1.5-1.3-1.5s-1.3,0.6-1.3,1.5
								c0,1,0.6,1.5,1.3,1.5S166.3,26.4,166.3,25.4z"/>
							<path class="st2" d="M170.9,22.6h1.8l0.1,1.5h0.1c0.6-1.1,1.5-1.7,2.4-1.7c0.5,0,0.7,0.1,1,0.2l-0.4,1.9
								c-0.3-0.1-0.5-0.1-0.9-0.1c-0.7,0-1.5,0.4-1.9,1.7v5h-2.2V22.6z"/>
							<path class="st2" d="M176.5,28.7c0-1.8,1.5-2.7,4.8-3.1c0-0.8-0.4-1.5-1.4-1.5c-0.8,0-1.5,0.3-2.3,0.8l-0.8-1.5
								c1-0.6,2.2-1.1,3.5-1.1c2.1,0,3.2,1.3,3.2,3.7V31h-1.8l-0.2-0.9h0c-0.7,0.6-1.6,1.1-2.5,1.1
								C177.5,31.2,176.5,30.1,176.5,28.7z M181.4,28.7V27c-2,0.3-2.7,0.8-2.7,1.6c0,0.7,0.5,0.9,1.1,0.9
								C180.4,29.5,180.9,29.2,181.4,28.7z"/>
							<path class="st2" d="M185.8,22.6h1.8l0.1,1.1h0.1c0.7-0.7,1.5-1.3,2.6-1.3c1.2,0,1.9,0.5,2.3,1.5c0.8-0.8,1.6-1.5,2.7-1.5
								c1.8,0,2.6,1.3,2.6,3.4V31h-2.2v-5c0-1.3-0.4-1.8-1.2-1.8c-0.5,0-1,0.3-1.6,0.9V31h-2.2v-5c0-1.3-0.4-1.8-1.2-1.8
								c-0.5,0-1,0.3-1.6,0.9V31h-2.2V22.6z"/>
						</g>
					</g>
					<g transform="translate(0.000000, 102.000000)">
						<path class="st0" d="M8,0h318c4.4,0,8,3.6,8,8v34c0,4.4-3.6,8-8,8H8c-4.4,0-8-3.6-8-8V8C0,3.6,3.6,0,8,0z"/>
						<g class="st1">
							<path class="st2" d="M107.6,21.7h-3.1v-1.8h8.5v1.8h-3.1V31h-2.2V21.7z"/>
							<path class="st2" d="M114.6,19h2.2v3l-0.1,1.6c0.7-0.6,1.5-1.2,2.6-1.2c1.8,0,2.6,1.3,2.6,3.4V31h-2.2v-5
								c0-1.3-0.4-1.8-1.2-1.8c-0.7,0-1.1,0.3-1.8,0.9V31h-2.2V19z"/>
							<path class="st2" d="M123.6,26.8c0-2.7,1.9-4.4,3.9-4.4c2.3,0,3.5,1.7,3.5,4c0,0.4,0,0.8-0.1,1h-5.2c0.2,1.4,1.1,2.1,2.3,2.1
								c0.7,0,1.3-0.2,1.9-0.6l0.8,1.4c-0.8,0.6-1.9,0.9-2.9,0.9C125.5,31.2,123.6,29.6,123.6,26.8z M129.2,26
								c0-1.1-0.5-1.9-1.6-1.9c-0.9,0-1.7,0.6-1.8,1.9H129.2z"/>
							<path class="st2" d="M132.9,22.6h1.8l0.1,1.5h0.1c0.6-1.1,1.5-1.7,2.4-1.7c0.5,0,0.7,0.1,1,0.2l-0.4,1.9
								c-0.3-0.1-0.5-0.1-0.9-0.1c-0.7,0-1.5,0.4-1.9,1.7v5h-2.2V22.6z"/>
							<path class="st2" d="M138.5,28.7c0-1.8,1.5-2.7,4.8-3.1c0-0.8-0.4-1.5-1.4-1.5c-0.8,0-1.5,0.3-2.3,0.8l-0.8-1.5
								c1-0.6,2.2-1.1,3.5-1.1c2.1,0,3.2,1.3,3.2,3.7V31h-1.8l-0.2-0.9h0c-0.7,0.6-1.6,1.1-2.5,1.1
								C139.5,31.2,138.5,30.1,138.5,28.7z M143.4,28.7V27c-2,0.3-2.7,0.8-2.7,1.6c0,0.7,0.5,0.9,1.1,0.9
								C142.4,29.5,142.8,29.2,143.4,28.7z"/>
							<path class="st2" d="M147.8,22.6h1.8l0.1,0.9h0.1c0.7-0.6,1.6-1.1,2.5-1.1c2.1,0,3.3,1.7,3.3,4.3c0,2.9-1.7,4.5-3.6,4.5
								c-0.7,0-1.4-0.3-2.1-0.9l0.1,1.4v2.5h-2.2V22.6z M153.3,26.7c0-1.6-0.5-2.5-1.7-2.5c-0.6,0-1.1,0.3-1.7,0.9v3.7
								c0.5,0.5,1.1,0.6,1.5,0.6C152.6,29.4,153.3,28.5,153.3,26.7z"/>
							<path class="st2" d="M156.9,26.8c0-2.7,1.9-4.4,3.9-4.4c2.3,0,3.5,1.7,3.5,4c0,0.4,0,0.8-0.1,1h-5.2c0.2,1.4,1.1,2.1,2.3,2.1
								c0.7,0,1.3-0.2,1.9-0.6l0.8,1.4c-0.8,0.6-1.9,0.9-2.9,0.9C158.8,31.2,156.9,29.6,156.9,26.8z M162.5,26
								c0-1.1-0.5-1.9-1.6-1.9c-0.9,0-1.7,0.6-1.8,1.9H162.5z"/>
							<path class="st2" d="M166.1,27.9v-5.2h2.2v5c0,1.3,0.4,1.8,1.2,1.8c0.7,0,1.1-0.3,1.7-1v-5.7h2.2V31h-1.8l-0.2-1.2h-0.1
								c-0.7,0.9-1.5,1.4-2.7,1.4C166.9,31.2,166.1,30,166.1,27.9z"/>
							<path class="st2" d="M176.1,28.1v-3.7h-1.2v-1.6l1.3-0.1l0.3-2.2h1.8v2.2h2.1v1.7h-2.1v3.7c0,1,0.4,1.4,1.1,1.4
								c0.3,0,0.6-0.1,0.8-0.2l0.4,1.6c-0.5,0.2-1,0.3-1.8,0.3C176.8,31.2,176.1,30,176.1,28.1z"/>
							<path class="st2" d="M181.8,20.1c0-0.7,0.6-1.2,1.3-1.2c0.8,0,1.3,0.5,1.3,1.2c0,0.7-0.6,1.2-1.3,1.2
								C182.4,21.2,181.8,20.7,181.8,20.1z M182,22.6h2.2V31H182V22.6z"/>
							<path class="st2" d="M186.1,26.8c0-2.8,2-4.4,4.3-4.4c1,0,1.8,0.4,2.4,0.9l-1.1,1.4c-0.4-0.4-0.8-0.6-1.3-0.6
								c-1.3,0-2.1,1-2.1,2.6c0,1.6,0.9,2.6,2.1,2.6c0.6,0,1.2-0.3,1.6-0.7l0.9,1.5c-0.8,0.7-1.8,1-2.7,1
								C187.8,31.2,186.1,29.6,186.1,26.8z"/>
							<path class="st2" d="M203.3,28.2h-3.6l-0.8,2.8h-2.2l3.6-11.1h2.6l3.6,11.1h-2.3L203.3,28.2z M202.8,26.4l-0.3-1.2
								c-0.3-1.2-0.6-2.4-1-3.6h-0.1c-0.3,1.2-0.6,2.5-0.9,3.6l-0.3,1.2H202.8z"/>
							<path class="st2" d="M207.5,22.6h1.8l0.2,1.5h0.1c0.6-1.1,1.5-1.7,2.4-1.7c0.5,0,0.7,0.1,1,0.2l-0.4,1.9
								c-0.3-0.1-0.5-0.1-0.9-0.1c-0.7,0-1.5,0.4-1.9,1.7v5h-2.2V22.6z"/>
							<path class="st2" d="M213.4,26.8c0-2.7,1.9-4.4,3.9-4.4c2.3,0,3.5,1.7,3.5,4c0,0.4,0,0.8-0.1,1h-5.2c0.2,1.4,1.1,2.1,2.3,2.1
								c0.7,0,1.3-0.2,1.9-0.6l0.8,1.4c-0.8,0.6-1.9,0.9-2.9,0.9C215.2,31.2,213.4,29.6,213.4,26.8z M218.9,26
								c0-1.1-0.5-1.9-1.6-1.9c-0.9,0-1.7,0.6-1.8,1.9H218.9z"/>
							<path class="st2" d="M222,28.7c0-1.8,1.5-2.7,4.8-3.1c0-0.8-0.4-1.5-1.4-1.5c-0.8,0-1.5,0.3-2.3,0.8l-0.8-1.5
								c1-0.6,2.2-1.1,3.5-1.1c2.1,0,3.2,1.3,3.2,3.7V31h-1.8l-0.2-0.9h0c-0.7,0.6-1.6,1.1-2.5,1.1C223,31.2,222,30.1,222,28.7z
								 M226.8,28.7V27c-2,0.3-2.7,0.8-2.7,1.6c0,0.7,0.5,0.9,1.1,0.9C225.8,29.5,226.3,29.2,226.8,28.7z"/>
						</g>
					</g>
					<g class="st1">
						<path d="M67.2,175.8h1.4l0.1,1.1h0c0.8-0.7,1.6-1.4,2.7-1.4c1.8,0,2.5,1.2,2.5,3.3v5.2h-1.7v-5c0-1.4-0.4-2-1.4-2
							c-0.8,0-1.3,0.4-2,1.1v5.8h-1.7V175.8z"/>
						<path d="M75.9,179.9c0-2.7,1.8-4.4,3.8-4.4c2.2,0,3.4,1.6,3.4,3.9c0,0.3,0,0.7-0.1,0.9h-5.4c0.1,1.6,1.1,2.5,2.5,2.5
							c0.7,0,1.4-0.2,2-0.6l0.6,1.1c-0.8,0.5-1.7,0.9-2.8,0.9C77.7,184.2,75.9,182.6,75.9,179.9z M81.6,179.1c0-1.4-0.6-2.2-1.8-2.2
							c-1,0-1.9,0.8-2.1,2.2H81.6z"/>
						<path d="M84.9,180.9v-5.2h1.7v5c0,1.4,0.4,2,1.4,2c0.8,0,1.3-0.4,2-1.2v-5.7h1.7v8.2h-1.4l-0.1-1.2h0
							c-0.8,0.9-1.6,1.4-2.7,1.4C85.7,184.2,84.9,183,84.9,180.9z"/>
						<path d="M94.3,175.8h1.4l0.1,1.5h0c0.6-1.1,1.5-1.7,2.3-1.7c0.4,0,0.7,0.1,0.9,0.2l-0.3,1.5c-0.3-0.1-0.5-0.1-0.8-0.1
							c-0.7,0-1.5,0.5-2,1.8v5.1h-1.7V175.8z"/>
						<path d="M99.7,179.9c0-2.8,1.8-4.4,3.9-4.4c2,0,3.9,1.6,3.9,4.4c0,2.7-1.8,4.3-3.9,4.3C101.5,184.2,99.7,182.6,99.7,179.9z
							 M105.7,179.9c0-1.8-0.8-2.9-2.1-2.9c-1.3,0-2.1,1.2-2.1,2.9c0,1.7,0.8,2.9,2.1,2.9C104.9,182.8,105.7,181.6,105.7,179.9z"/>
						<path d="M111,183.1L111,183.1l-0.2,0.9h-1.3v-12h1.7v3.2l0,1.4c0.7-0.6,1.6-1.1,2.5-1.1c2.1,0,3.3,1.7,3.3,4.2
							c0,2.8-1.7,4.5-3.6,4.5C112.6,184.2,111.7,183.8,111,183.1z M115.1,179.8c0-1.7-0.6-2.8-1.9-2.8c-0.6,0-1.3,0.3-2,1v4
							c0.6,0.6,1.3,0.8,1.8,0.8C114.2,182.8,115.1,181.7,115.1,179.8z"/>
						<path d="M118.9,182.1v-10h1.7v10.1c0,0.5,0.2,0.6,0.4,0.6c0.1,0,0.1,0,0.3,0l0.2,1.3c-0.2,0.1-0.5,0.1-0.9,0.1
							C119.4,184.2,118.9,183.4,118.9,182.1z"/>
						<path d="M122.9,181.8c0-1.8,1.5-2.7,4.9-3.1c0-1-0.4-1.8-1.6-1.8c-0.9,0-1.7,0.4-2.4,0.8l-0.6-1.2c0.9-0.5,2-1.1,3.3-1.1
							c2.1,0,3,1.3,3,3.5v5h-1.4l-0.1-0.9h0c-0.8,0.6-1.6,1.1-2.6,1.1C123.9,184.2,122.9,183.3,122.9,181.8z M127.8,181.9v-2
							c-2.4,0.3-3.3,0.9-3.3,1.8c0,0.8,0.6,1.1,1.3,1.1C126.6,182.8,127.2,182.5,127.8,181.9z"/>
						<path d="M131.1,183.1l0.8-1.1c0.7,0.6,1.5,0.9,2.3,0.9c1,0,1.5-0.5,1.5-1.1c0-0.8-0.9-1.1-1.8-1.4c-1.1-0.4-2.4-1-2.4-2.4
							c0-1.4,1.1-2.4,2.9-2.4c1.1,0,2,0.5,2.7,1l-0.8,1.1c-0.6-0.4-1.2-0.7-1.8-0.7c-0.9,0-1.3,0.5-1.3,1c0,0.7,0.9,1,1.8,1.3
							c1.2,0.4,2.4,0.9,2.4,2.5c0,1.4-1.1,2.5-3.1,2.5C133.1,184.2,131.9,183.7,131.1,183.1z"/>
						<path d="M139.1,181.3v-4.2h-1.2v-1.3l1.3-0.1l0.2-2.3h1.5v2.3h2.1v1.4h-2.1v4.2c0,1,0.3,1.5,1.2,1.5c0.3,0,0.6-0.1,0.9-0.2
							l0.3,1.3c-0.5,0.2-1,0.3-1.6,0.3C139.8,184.2,139.1,183,139.1,181.3z"/>
						<path d="M144,179.9c0-2.8,1.8-4.4,3.9-4.4c2,0,3.9,1.6,3.9,4.4c0,2.7-1.8,4.3-3.9,4.3C145.8,184.2,144,182.6,144,179.9z
							 M150,179.9c0-1.8-0.8-2.9-2.1-2.9c-1.3,0-2.1,1.2-2.1,2.9c0,1.7,0.8,2.9,2.1,2.9C149.2,182.8,150,181.6,150,179.9z"/>
						<path d="M153.8,175.8h1.4l0.1,1.2h0c0.7-0.8,1.5-1.4,2.5-1.4c1.2,0,1.9,0.6,2.3,1.5c0.8-0.9,1.6-1.5,2.7-1.5
							c1.7,0,2.5,1.2,2.5,3.3v5.2h-1.7v-5c0-1.4-0.5-2-1.4-2c-0.6,0-1.2,0.4-1.9,1.1v5.8h-1.7v-5c0-1.4-0.4-2-1.4-2
							c-0.6,0-1.2,0.4-1.9,1.1v5.8h-1.7V175.8z"/>
						<path d="M167.4,181.8c0-1.8,1.5-2.7,4.9-3.1c0-1-0.4-1.8-1.6-1.8c-0.9,0-1.7,0.4-2.4,0.8l-0.6-1.2c0.9-0.5,2-1.1,3.3-1.1
							c2.1,0,3,1.3,3,3.5v5h-1.4l-0.1-0.9h0c-0.8,0.6-1.6,1.1-2.6,1.1C168.4,184.2,167.4,183.3,167.4,181.8z M172.4,181.9v-2
							c-2.4,0.3-3.3,0.9-3.3,1.8c0,0.8,0.6,1.1,1.3,1.1C171.1,182.8,171.7,182.5,172.4,181.9z"/>
						<path d="M176,186c1-0.4,1.6-1.2,1.6-2.1c-0.1,0-0.1,0-0.2,0c-0.6,0-1.2-0.4-1.2-1.1c0-0.7,0.5-1.1,1.2-1.1
							c0.8,0,1.3,0.7,1.3,1.9c0,1.6-0.9,2.8-2.5,3.4L176,186z"/>
						<path d="M184.4,182.1v-10h1.7v10.1c0,0.5,0.2,0.6,0.4,0.6c0.1,0,0.1,0,0.3,0l0.2,1.3c-0.2,0.1-0.5,0.1-0.9,0.1
							C184.8,184.2,184.4,183.4,184.4,182.1z"/>
						<path d="M188.7,180.9v-5.2h1.7v5c0,1.4,0.4,2,1.4,2c0.8,0,1.3-0.4,2-1.2v-5.7h1.7v8.2h-1.4l-0.1-1.2h0
							c-0.8,0.9-1.6,1.4-2.7,1.4C189.5,184.2,188.7,183,188.7,180.9z"/>
						<path d="M198.1,175.8h1.4l0.1,1.1h0c0.8-0.7,1.6-1.4,2.7-1.4c1.8,0,2.5,1.2,2.5,3.3v5.2h-1.7v-5c0-1.4-0.4-2-1.4-2
							c-0.8,0-1.3,0.4-2,1.1v5.8h-1.7V175.8z"/>
						<path d="M206.9,185.5c0-0.7,0.4-1.3,1.2-1.8v-0.1c-0.4-0.3-0.8-0.7-0.8-1.4c0-0.6,0.5-1.2,0.9-1.5v-0.1
							c-0.6-0.4-1.1-1.2-1.1-2.2c0-1.9,1.5-3,3.2-3c0.5,0,0.9,0.1,1.2,0.2h2.9v1.3h-1.6c0.3,0.3,0.5,0.9,0.5,1.5
							c0,1.8-1.4,2.8-3.1,2.8c-0.4,0-0.8-0.1-1.2-0.3c-0.3,0.2-0.4,0.5-0.4,0.9c0,0.5,0.3,0.8,1.4,0.8h1.5c2,0,3,0.6,3,2
							c0,1.6-1.7,2.9-4.3,2.9C208.3,187.7,206.9,187,206.9,185.5z M213,185.1c0-0.7-0.5-0.9-1.5-0.9h-1.2c-0.4,0-0.8,0-1.1-0.1
							c-0.5,0.4-0.7,0.8-0.7,1.2c0,0.8,0.8,1.3,2.2,1.3C212,186.6,213,185.9,213,185.1z M211.9,178.5c0-1.1-0.7-1.8-1.6-1.8
							s-1.6,0.6-1.6,1.8c0,1.1,0.7,1.8,1.6,1.8C211.2,180.3,211.9,179.6,211.9,178.5z"/>
						<path d="M219,179.9c0-2.8,1.9-4.4,4.1-4.4c1,0,1.8,0.4,2.4,0.9l-0.9,1.1c-0.5-0.4-0.9-0.6-1.5-0.6c-1.4,0-2.4,1.2-2.4,2.9
							c0,1.7,0.9,2.9,2.3,2.9c0.7,0,1.3-0.3,1.8-0.8l0.7,1.1c-0.8,0.7-1.7,1-2.7,1C220.7,184.2,219,182.6,219,179.9z"/>
						<path d="M226.7,181.8c0-1.8,1.5-2.7,4.9-3.1c0-1-0.4-1.8-1.6-1.8c-0.9,0-1.7,0.4-2.4,0.8l-0.6-1.2c0.9-0.5,2-1.1,3.3-1.1
							c2.1,0,3,1.3,3,3.5v5h-1.4l-0.1-0.9h0c-0.8,0.6-1.6,1.1-2.6,1.1C227.7,184.2,226.7,183.3,226.7,181.8z M231.6,181.9v-2
							c-2.4,0.3-3.3,0.9-3.3,1.8c0,0.8,0.6,1.1,1.3,1.1C230.3,182.8,230.9,182.5,231.6,181.9z"/>
						<path d="M235.8,175.8h1.4l0.1,1.1h0c0.8-0.7,1.6-1.4,2.7-1.4c1.8,0,2.5,1.2,2.5,3.3v5.2h-1.7v-5c0-1.4-0.4-2-1.4-2
							c-0.8,0-1.3,0.4-2,1.1v5.8h-1.7V175.8z"/>
						<path d="M244.5,179.9c0-2.8,1.9-4.4,4.1-4.4c1,0,1.8,0.4,2.4,0.9l-0.9,1.1c-0.5-0.4-0.9-0.6-1.5-0.6c-1.4,0-2.4,1.2-2.4,2.9
							c0,1.7,0.9,2.9,2.3,2.9c0.7,0,1.3-0.3,1.8-0.8l0.7,1.1c-0.8,0.7-1.7,1-2.7,1C246.2,184.2,244.5,182.6,244.5,179.9z"/>
						<path d="M251.9,179.9c0-2.7,1.8-4.4,3.8-4.4c2.2,0,3.4,1.6,3.4,3.9c0,0.3,0,0.7-0.1,0.9h-5.4c0.1,1.6,1.1,2.5,2.5,2.5
							c0.7,0,1.4-0.2,2-0.6l0.6,1.1c-0.8,0.5-1.7,0.9-2.8,0.9C253.7,184.2,251.9,182.6,251.9,179.9z M257.5,179.1
							c0-1.4-0.6-2.2-1.8-2.2c-1,0-1.9,0.8-2.1,2.2H257.5z"/>
						<path d="M261,175.8h1.4l0.1,1.5h0c0.6-1.1,1.5-1.7,2.3-1.7c0.4,0,0.7,0.1,0.9,0.2l-0.3,1.5c-0.3-0.1-0.5-0.1-0.8-0.1
							c-0.7,0-1.5,0.5-2,1.8v5.1H261V175.8z"/>
						<path d="M265.5,186c1-0.4,1.6-1.2,1.6-2.1c-0.1,0-0.1,0-0.2,0c-0.6,0-1.2-0.4-1.2-1.1c0-0.7,0.5-1.1,1.2-1.1
							c0.8,0,1.3,0.7,1.3,1.9c0,1.6-0.9,2.8-2.5,3.4L265.5,186z"/>
					</g>
					<text transform="matrix(1 0 0 1 269.1382 184)" class="st3 st4"> </text>
					<g class="st1">
						<path d="M58.3,197.8h1.4l0.1,0.9h0c0.7-0.6,1.6-1.1,2.5-1.1c2.1,0,3.3,1.7,3.3,4.2c0,2.8-1.7,4.5-3.6,4.5
							c-0.7,0-1.5-0.3-2.2-0.9l0,1.4v2.7h-1.7V197.8z M63.9,201.8c0-1.7-0.6-2.8-1.9-2.8c-0.6,0-1.3,0.3-2,1v4
							c0.6,0.6,1.3,0.8,1.8,0.8C63,204.8,63.9,203.7,63.9,201.8z"/>
						<path d="M67,203.8c0-1.8,1.5-2.7,4.9-3.1c0-1-0.4-1.8-1.6-1.8c-0.9,0-1.7,0.4-2.4,0.8l-0.6-1.2c0.9-0.5,2-1.1,3.3-1.1
							c2.1,0,3,1.3,3,3.5v5h-1.4l-0.1-0.9h0c-0.8,0.6-1.6,1.1-2.6,1.1C68,206.2,67,205.3,67,203.8z M72,203.9v-2
							c-2.4,0.3-3.3,0.9-3.3,1.8c0,0.8,0.6,1.1,1.3,1.1C70.7,204.8,71.3,204.5,72,203.9z"/>
						<path d="M76.1,197.8h1.4l0.1,1.1h0c0.8-0.7,1.6-1.4,2.7-1.4c1.8,0,2.5,1.2,2.5,3.3v5.2h-1.7v-5c0-1.4-0.4-2-1.4-2
							c-0.8,0-1.3,0.4-2,1.1v5.8h-1.7V197.8z"/>
						<path d="M84.9,201.9c0-2.8,1.9-4.4,4.1-4.4c1,0,1.8,0.4,2.4,0.9l-0.9,1.1c-0.5-0.4-0.9-0.6-1.5-0.6c-1.4,0-2.4,1.2-2.4,2.9
							c0,1.7,0.9,2.9,2.3,2.9c0.7,0,1.3-0.3,1.8-0.8l0.7,1.1c-0.7,0.7-1.7,1-2.7,1C86.6,206.2,84.9,204.6,84.9,201.9z"/>
						<path d="M93.3,197.8h1.4l0.1,1.5h0c0.6-1.1,1.5-1.7,2.3-1.7c0.4,0,0.7,0.1,0.9,0.2l-0.3,1.5c-0.3-0.1-0.5-0.1-0.8-0.1
							c-0.7,0-1.5,0.5-2,1.8v5.1h-1.7V197.8z"/>
						<path d="M98.6,201.9c0-2.7,1.8-4.4,3.8-4.4c2.2,0,3.4,1.6,3.4,3.9c0,0.3,0,0.7-0.1,0.9h-5.4c0.1,1.6,1.1,2.5,2.5,2.5
							c0.7,0,1.4-0.2,2-0.6l0.6,1.1c-0.8,0.5-1.7,0.9-2.8,0.9C100.4,206.2,98.6,204.6,98.6,201.9z M104.3,201.1
							c0-1.4-0.6-2.2-1.8-2.2c-1,0-1.9,0.8-2.1,2.2H104.3z"/>
						<path d="M107,203.8c0-1.8,1.5-2.7,4.9-3.1c0-1-0.4-1.8-1.6-1.8c-0.9,0-1.7,0.4-2.4,0.8l-0.6-1.2c0.9-0.5,2-1.1,3.3-1.1
							c2.1,0,3,1.3,3,3.5v5h-1.4l-0.1-0.9h0c-0.8,0.6-1.6,1.1-2.6,1.1C108,206.2,107,205.3,107,203.8z M111.9,203.9v-2
							c-2.4,0.3-3.3,0.9-3.3,1.8c0,0.8,0.6,1.1,1.3,1.1C110.7,204.8,111.3,204.5,111.9,203.9z"/>
						<path d="M116.1,203.3v-4.2h-1.2v-1.3l1.3-0.1l0.2-2.3h1.5v2.3h2.1v1.4h-2.1v4.2c0,1,0.3,1.5,1.2,1.5c0.3,0,0.6-0.1,0.9-0.2
							l0.3,1.3c-0.5,0.2-1,0.3-1.6,0.3C116.8,206.2,116.1,205,116.1,203.3z"/>
						<path d="M121.5,195.2c0-0.6,0.5-1,1.1-1c0.6,0,1.1,0.4,1.1,1c0,0.6-0.5,1-1.1,1C122,196.2,121.5,195.8,121.5,195.2z
							 M121.8,197.8h1.7v8.2h-1.7V197.8z"/>
						<path d="M125.5,201.9c0-2.8,1.9-4.4,4.1-4.4c1,0,1.8,0.4,2.4,0.9l-0.9,1.1c-0.5-0.4-0.9-0.6-1.5-0.6c-1.4,0-2.4,1.2-2.4,2.9
							c0,1.7,0.9,2.9,2.3,2.9c0.7,0,1.3-0.3,1.8-0.8l0.7,1.1c-0.7,0.7-1.7,1-2.7,1C127.2,206.2,125.5,204.6,125.5,201.9z"/>
						<path d="M136.6,201.9c0-2.8,1.9-4.4,4.1-4.4c1,0,1.8,0.4,2.4,0.9l-0.9,1.1c-0.5-0.4-0.9-0.6-1.5-0.6c-1.4,0-2.4,1.2-2.4,2.9
							c0,1.7,0.9,2.9,2.3,2.9c0.7,0,1.3-0.3,1.8-0.8l0.7,1.1c-0.7,0.7-1.7,1-2.7,1C138.3,206.2,136.6,204.6,136.6,201.9z"/>
						<path d="M144.3,203.8c0-1.8,1.5-2.7,4.9-3.1c0-1-0.4-1.8-1.6-1.8c-0.9,0-1.7,0.4-2.4,0.8l-0.6-1.2c0.9-0.5,2-1.1,3.3-1.1
							c2.1,0,3,1.3,3,3.5v5h-1.4l-0.1-0.9h0c-0.8,0.6-1.6,1.1-2.6,1.1C145.3,206.2,144.3,205.3,144.3,203.8z M149.3,203.9v-2
							c-2.4,0.3-3.3,0.9-3.3,1.8c0,0.8,0.6,1.1,1.3,1.1C148,204.8,148.6,204.5,149.3,203.9z"/>
						<path d="M153.4,197.8h1.4l0.1,1.1h0c0.8-0.7,1.6-1.4,2.7-1.4c1.8,0,2.5,1.2,2.5,3.3v5.2h-1.7v-5c0-1.4-0.4-2-1.4-2
							c-0.8,0-1.3,0.4-2,1.1v5.8h-1.7V197.8z"/>
						<path d="M162.2,201.9c0-2.8,1.9-4.4,4.1-4.4c1,0,1.8,0.4,2.4,0.9l-0.9,1.1c-0.5-0.4-0.9-0.6-1.5-0.6c-1.4,0-2.4,1.2-2.4,2.9
							c0,1.7,0.9,2.9,2.3,2.9c0.7,0,1.3-0.3,1.8-0.8l0.7,1.1c-0.7,0.7-1.7,1-2.7,1C163.9,206.2,162.2,204.6,162.2,201.9z"/>
						<path d="M169.6,201.9c0-2.7,1.8-4.4,3.8-4.4c2.2,0,3.4,1.6,3.4,3.9c0,0.3,0,0.7-0.1,0.9h-5.4c0.1,1.6,1.1,2.5,2.5,2.5
							c0.7,0,1.4-0.2,2-0.6l0.6,1.1c-0.8,0.5-1.7,0.9-2.8,0.9C171.4,206.2,169.6,204.6,169.6,201.9z M175.2,201.1
							c0-1.4-0.6-2.2-1.8-2.2c-1,0-2,0.8-2.1,2.2H175.2z"/>
						<path d="M178.6,197.8h1.4l0.1,1.5h0c0.6-1.1,1.5-1.7,2.3-1.7c0.4,0,0.7,0.1,0.9,0.2l-0.3,1.5c-0.3-0.1-0.5-0.1-0.8-0.1
							c-0.7,0-1.5,0.5-2,1.8v5.1h-1.7V197.8z"/>
						<path d="M183.1,208c1-0.4,1.6-1.2,1.6-2.1c-0.1,0-0.1,0-0.2,0c-0.6,0-1.2-0.4-1.2-1.1c0-0.7,0.5-1.1,1.2-1.1
							c0.8,0,1.3,0.7,1.3,1.9c0,1.6-0.9,2.8-2.5,3.4L183.1,208z"/>
						<path d="M191.5,197.8h1.4l0.1,1.5h0c0.6-1.1,1.5-1.7,2.3-1.7c0.4,0,0.7,0.1,0.9,0.2l-0.3,1.5c-0.3-0.1-0.5-0.1-0.8-0.1
							c-0.7,0-1.5,0.5-2,1.8v5.1h-1.7V197.8z"/>
						<path d="M196.9,201.9c0-2.7,1.8-4.4,3.8-4.4c2.2,0,3.4,1.6,3.4,3.9c0,0.3,0,0.7-0.1,0.9h-5.4c0.1,1.6,1.1,2.5,2.5,2.5
							c0.7,0,1.4-0.2,2-0.6l0.6,1.1c-0.8,0.5-1.7,0.9-2.8,0.9C198.7,206.2,196.9,204.6,196.9,201.9z M202.5,201.1
							c0-1.4-0.6-2.2-1.8-2.2c-1,0-1.9,0.8-2.1,2.2H202.5z"/>
						<path d="M205.9,197.8h1.4l0.1,1.1h0c0.8-0.7,1.6-1.4,2.7-1.4c1.8,0,2.5,1.2,2.5,3.3v5.2h-1.7v-5c0-1.4-0.4-2-1.4-2
							c-0.8,0-1.3,0.4-2,1.1v5.8h-1.7V197.8z"/>
						<path d="M214.8,203.8c0-1.8,1.5-2.7,4.9-3.1c0-1-0.4-1.8-1.6-1.8c-0.9,0-1.7,0.4-2.4,0.8l-0.6-1.2c0.9-0.5,2-1.1,3.3-1.1
							c2.1,0,3,1.3,3,3.5v5h-1.4l-0.2-0.9h0c-0.8,0.6-1.6,1.1-2.6,1.1C215.8,206.2,214.8,205.3,214.8,203.8z M219.8,203.9v-2
							c-2.4,0.3-3.3,0.9-3.3,1.8c0,0.8,0.6,1.1,1.3,1.1C218.5,204.8,219.1,204.5,219.8,203.9z"/>
						<path d="M223.9,204.1v-10h1.7v10.1c0,0.5,0.2,0.6,0.4,0.6c0.1,0,0.1,0,0.3,0l0.2,1.3c-0.2,0.1-0.5,0.1-0.9,0.1
							C224.4,206.2,223.9,205.4,223.9,204.1z"/>
						<path d="M231.2,201.9c0-2.8,1.9-4.4,4.1-4.4c1,0,1.8,0.4,2.4,0.9l-0.9,1.1c-0.5-0.4-0.9-0.6-1.5-0.6c-1.4,0-2.4,1.2-2.4,2.9
							c0,1.7,0.9,2.9,2.3,2.9c0.7,0,1.3-0.3,1.8-0.8l0.7,1.1c-0.8,0.7-1.7,1-2.7,1C232.9,206.2,231.2,204.6,231.2,201.9z"/>
						<path d="M238.9,203.8c0-1.8,1.5-2.7,4.9-3.1c0-1-0.4-1.8-1.6-1.8c-0.9,0-1.7,0.4-2.4,0.8l-0.6-1.2c0.9-0.5,2-1.1,3.3-1.1
							c2.1,0,3,1.3,3,3.5v5h-1.4l-0.2-0.9h0c-0.8,0.6-1.6,1.1-2.6,1.1C239.9,206.2,238.9,205.3,238.9,203.8z M243.8,203.9v-2
							c-2.4,0.3-3.3,0.9-3.3,1.8c0,0.8,0.6,1.1,1.3,1.1C242.6,204.8,243.1,204.5,243.8,203.9z"/>
						<path d="M248,197.8h1.4l0.1,1.1h0c0.8-0.7,1.6-1.4,2.7-1.4c1.8,0,2.5,1.2,2.5,3.3v5.2h-1.7v-5c0-1.4-0.4-2-1.4-2
							c-0.8,0-1.3,0.4-2,1.1v5.8H248V197.8z"/>
						<path d="M256.8,201.9c0-2.8,1.9-4.4,4.1-4.4c1,0,1.8,0.4,2.4,0.9l-0.9,1.1c-0.5-0.4-0.9-0.6-1.5-0.6c-1.4,0-2.4,1.2-2.4,2.9
							c0,1.7,0.9,2.9,2.3,2.9c0.7,0,1.3-0.3,1.8-0.8l0.7,1.1c-0.7,0.7-1.7,1-2.7,1C258.5,206.2,256.8,204.6,256.8,201.9z"/>
						<path d="M264.1,201.9c0-2.7,1.8-4.4,3.8-4.4c2.2,0,3.4,1.6,3.4,3.9c0,0.3,0,0.7-0.1,0.9h-5.4c0.1,1.6,1.1,2.5,2.5,2.5
							c0.7,0,1.4-0.2,2-0.6l0.6,1.1c-0.8,0.5-1.7,0.9-2.8,0.9C265.9,206.2,264.1,204.6,264.1,201.9z M269.8,201.1
							c0-1.4-0.6-2.2-1.8-2.2c-1,0-2,0.8-2.1,2.2H269.8z"/>
						<path d="M273.2,197.8h1.4l0.1,1.5h0c0.6-1.1,1.5-1.7,2.3-1.7c0.4,0,0.7,0.1,0.9,0.2l-0.3,1.5c-0.3-0.1-0.5-0.1-0.8-0.1
							c-0.7,0-1.5,0.5-2,1.8v5.1h-1.7V197.8z"/>
					</g>
					<g class="st1">
						<path d="M143.1,70.9h2.3l1.5,5.4c0.3,1.2,0.6,2.3,0.9,3.6h0.1c0.3-1.2,0.6-2.4,0.9-3.6l1.4-5.4h2.2L149.2,82h-2.6L143.1,70.9z
							"/>
						<path d="M153.8,70.9h2.5l1.9,5.2c0.2,0.7,0.4,1.4,0.7,2.1h0.1c0.2-0.7,0.4-1.5,0.7-2.1l1.8-5.2h2.5V82h-2v-4.6
							c0-1,0.2-2.6,0.3-3.6h-0.1l-0.9,2.6l-1.7,4.7h-1.3l-1.7-4.7l-0.9-2.6h-0.1c0.1,1,0.3,2.6,0.3,3.6V82h-2V70.9z"/>
						<path d="M166,79.2c0-1.4,0.9-2.3,1.9-2.9v-0.1c-0.9-0.6-1.5-1.5-1.5-2.6c0-1.8,1.4-2.9,3.3-2.9c2,0,3.2,1.2,3.2,3
							c0,1.1-0.7,2-1.4,2.5v0.1c1,0.6,1.9,1.5,1.9,3c0,1.7-1.5,3-3.7,3C167.6,82.2,166,81,166,79.2z M171.4,79.2
							c0-1.2-1-1.6-2.5-2.2c-0.6,0.5-1,1.2-1,2.1c0,1,0.8,1.7,1.9,1.7C170.7,80.7,171.4,80.1,171.4,79.2z M171.2,73.8
							c0-0.9-0.5-1.5-1.5-1.5c-0.8,0-1.3,0.5-1.3,1.4c0,1.1,0.9,1.6,2,2C170.9,75.1,171.2,74.5,171.2,73.8z"/>
						<path d="M174.8,76.4c0-3.8,1.5-5.7,3.8-5.7c2.2,0,3.8,1.9,3.8,5.7s-1.5,5.8-3.8,5.8C176.3,82.2,174.8,80.2,174.8,76.4z
							 M180.2,76.4c0-3.1-0.7-4-1.7-4c-1,0-1.7,0.9-1.7,4c0,3.1,0.7,4.1,1.7,4.1C179.5,80.5,180.2,79.5,180.2,76.4z"/>
						<path d="M191.4,79.1h-1.3V82H188v-2.9h-4.7v-1.5l4.1-6.7h2.6v6.5h1.3V79.1z M188,77.4v-2.3c0-0.6,0.1-1.6,0.1-2.3H188
							c-0.3,0.6-0.6,1.2-0.9,1.8l-1.7,2.8H188z"/>
					</g>
					<path class="st5" d="M0,241h334"/>
				</g>
				<g transform="translate(0.000000, 816.000000)">
					<g>
						<path class="st0" d="M8,0h318c4.4,0,8,3.6,8,8v34c0,4.4-3.6,8-8,8H8c-4.4,0-8-3.6-8-8V8C0,3.6,3.6,0,8,0z"/>
						<g class="st1">
							<path class="st2" d="M136.4,19.9h3.6c2.5,0,4.3,0.9,4.3,3.5c0,2.5-1.9,3.7-4.3,3.7h-1.5V31h-2.2V19.9z M139.9,25.3
								c1.5,0,2.3-0.6,2.3-1.9c0-1.3-0.8-1.7-2.3-1.7h-1.3v3.6H139.9z"/>
							<path class="st2" d="M146.2,22.6h1.8l0.1,1.5h0.1c0.6-1.1,1.5-1.7,2.4-1.7c0.5,0,0.7,0.1,1,0.2l-0.4,1.9
								c-0.3-0.1-0.5-0.1-0.9-0.1c-0.7,0-1.5,0.4-1.9,1.7v5h-2.2V22.6z"/>
							<path class="st2" d="M152,26.8c0-2.8,1.9-4.4,4-4.4s4,1.6,4,4.4c0,2.8-1.9,4.4-4,4.4S152,29.6,152,26.8z M157.8,26.8
								c0-1.6-0.6-2.6-1.8-2.6s-1.8,1-1.8,2.6c0,1.6,0.6,2.6,1.8,2.6S157.8,28.4,157.8,26.8z"/>
							<path class="st2" d="M161.4,32.5c0-0.7,0.4-1.3,1.2-1.7v-0.1c-0.4-0.3-0.8-0.7-0.8-1.4c0-0.6,0.4-1.2,0.9-1.6v-0.1
								c-0.6-0.4-1.1-1.2-1.1-2.2c0-2,1.6-3,3.4-3c0.5,0,0.9,0.1,1.3,0.2h3v1.6h-1.4c0.2,0.3,0.4,0.8,0.4,1.3c0,1.9-1.4,2.8-3.2,2.8
								c-0.3,0-0.7-0.1-1.1-0.2c-0.2,0.2-0.4,0.4-0.4,0.7c0,0.5,0.3,0.7,1.3,0.7h1.4c2,0,3.1,0.6,3.1,2.1c0,1.7-1.8,3-4.6,3
								C162.9,34.6,161.4,34,161.4,32.5z M167.4,32c0-0.6-0.5-0.8-1.4-0.8h-1c-0.5,0-0.9,0-1.2-0.1c-0.4,0.3-0.6,0.6-0.6,1
								c0,0.7,0.8,1.1,2,1.1C166.5,33.2,167.4,32.7,167.4,32z M166.3,25.4c0-1-0.6-1.5-1.3-1.5s-1.3,0.6-1.3,1.5
								c0,1,0.6,1.5,1.3,1.5S166.3,26.4,166.3,25.4z"/>
							<path class="st2" d="M170.9,22.6h1.8l0.1,1.5h0.1c0.6-1.1,1.5-1.7,2.4-1.7c0.5,0,0.7,0.1,1,0.2l-0.4,1.9
								c-0.3-0.1-0.5-0.1-0.9-0.1c-0.7,0-1.5,0.4-1.9,1.7v5h-2.2V22.6z"/>
							<path class="st2" d="M176.5,28.7c0-1.8,1.5-2.7,4.8-3.1c0-0.8-0.4-1.5-1.4-1.5c-0.8,0-1.5,0.3-2.3,0.8l-0.8-1.5
								c1-0.6,2.2-1.1,3.5-1.1c2.1,0,3.2,1.3,3.2,3.7V31h-1.8l-0.2-0.9h0c-0.7,0.6-1.6,1.1-2.5,1.1
								C177.5,31.2,176.5,30.1,176.5,28.7z M181.4,28.7V27c-2,0.3-2.7,0.8-2.7,1.6c0,0.7,0.5,0.9,1.1,0.9
								C180.4,29.5,180.9,29.2,181.4,28.7z"/>
							<path class="st2" d="M185.8,22.6h1.8l0.1,1.1h0.1c0.7-0.7,1.5-1.3,2.6-1.3c1.2,0,1.9,0.5,2.3,1.5c0.8-0.8,1.6-1.5,2.7-1.5
								c1.8,0,2.6,1.3,2.6,3.4V31h-2.2v-5c0-1.3-0.4-1.8-1.2-1.8c-0.5,0-1,0.3-1.6,0.9V31h-2.2v-5c0-1.3-0.4-1.8-1.2-1.8
								c-0.5,0-1,0.3-1.6,0.9V31h-2.2V22.6z"/>
						</g>
					</g>
					<g transform="translate(0.000000, 102.000000)">
						<path class="st0" d="M8,0h318c4.4,0,8,3.6,8,8v34c0,4.4-3.6,8-8,8H8c-4.4,0-8-3.6-8-8V8C0,3.6,3.6,0,8,0z"/>
						<g class="st1">
							<path class="st2" d="M107.6,21.7h-3.1v-1.8h8.5v1.8h-3.1V31h-2.2V21.7z"/>
							<path class="st2" d="M114.6,19h2.2v3l-0.1,1.6c0.7-0.6,1.5-1.2,2.6-1.2c1.8,0,2.6,1.3,2.6,3.4V31h-2.2v-5
								c0-1.3-0.4-1.8-1.2-1.8c-0.7,0-1.1,0.3-1.8,0.9V31h-2.2V19z"/>
							<path class="st2" d="M123.6,26.8c0-2.7,1.9-4.4,3.9-4.4c2.3,0,3.5,1.7,3.5,4c0,0.4,0,0.8-0.1,1h-5.2c0.2,1.4,1.1,2.1,2.3,2.1
								c0.7,0,1.3-0.2,1.9-0.6l0.8,1.4c-0.8,0.6-1.9,0.9-2.9,0.9C125.5,31.2,123.6,29.6,123.6,26.8z M129.2,26
								c0-1.1-0.5-1.9-1.6-1.9c-0.9,0-1.7,0.6-1.8,1.9H129.2z"/>
							<path class="st2" d="M132.9,22.6h1.8l0.1,1.5h0.1c0.6-1.1,1.5-1.7,2.4-1.7c0.5,0,0.7,0.1,1,0.2l-0.4,1.9
								c-0.3-0.1-0.5-0.1-0.9-0.1c-0.7,0-1.5,0.4-1.9,1.7v5h-2.2V22.6z"/>
							<path class="st2" d="M138.5,28.7c0-1.8,1.5-2.7,4.8-3.1c0-0.8-0.4-1.5-1.4-1.5c-0.8,0-1.5,0.3-2.3,0.8l-0.8-1.5
								c1-0.6,2.2-1.1,3.5-1.1c2.1,0,3.2,1.3,3.2,3.7V31h-1.8l-0.2-0.9h0c-0.7,0.6-1.6,1.1-2.5,1.1
								C139.5,31.2,138.5,30.1,138.5,28.7z M143.4,28.7V27c-2,0.3-2.7,0.8-2.7,1.6c0,0.7,0.5,0.9,1.1,0.9
								C142.4,29.5,142.8,29.2,143.4,28.7z"/>
							<path class="st2" d="M147.8,22.6h1.8l0.1,0.9h0.1c0.7-0.6,1.6-1.1,2.5-1.1c2.1,0,3.3,1.7,3.3,4.3c0,2.9-1.7,4.5-3.6,4.5
								c-0.7,0-1.4-0.3-2.1-0.9l0.1,1.4v2.5h-2.2V22.6z M153.3,26.7c0-1.6-0.5-2.5-1.7-2.5c-0.6,0-1.1,0.3-1.7,0.9v3.7
								c0.5,0.5,1.1,0.6,1.5,0.6C152.6,29.4,153.3,28.5,153.3,26.7z"/>
							<path class="st2" d="M156.9,26.8c0-2.7,1.9-4.4,3.9-4.4c2.3,0,3.5,1.7,3.5,4c0,0.4,0,0.8-0.1,1h-5.2c0.2,1.4,1.1,2.1,2.3,2.1
								c0.7,0,1.3-0.2,1.9-0.6l0.8,1.4c-0.8,0.6-1.9,0.9-2.9,0.9C158.8,31.2,156.9,29.6,156.9,26.8z M162.5,26
								c0-1.1-0.5-1.9-1.6-1.9c-0.9,0-1.7,0.6-1.8,1.9H162.5z"/>
							<path class="st2" d="M166.1,27.9v-5.2h2.2v5c0,1.3,0.4,1.8,1.2,1.8c0.7,0,1.1-0.3,1.7-1v-5.7h2.2V31h-1.8l-0.2-1.2h-0.1
								c-0.7,0.9-1.5,1.4-2.7,1.4C166.9,31.2,166.1,30,166.1,27.9z"/>
							<path class="st2" d="M176.1,28.1v-3.7h-1.2v-1.6l1.3-0.1l0.3-2.2h1.8v2.2h2.1v1.7h-2.1v3.7c0,1,0.4,1.4,1.1,1.4
								c0.3,0,0.6-0.1,0.8-0.2l0.4,1.6c-0.5,0.2-1,0.3-1.8,0.3C176.8,31.2,176.1,30,176.1,28.1z"/>
							<path class="st2" d="M181.8,20.1c0-0.7,0.6-1.2,1.3-1.2c0.8,0,1.3,0.5,1.3,1.2c0,0.7-0.6,1.2-1.3,1.2
								C182.4,21.2,181.8,20.7,181.8,20.1z M182,22.6h2.2V31H182V22.6z"/>
							<path class="st2" d="M186.1,26.8c0-2.8,2-4.4,4.3-4.4c1,0,1.8,0.4,2.4,0.9l-1.1,1.4c-0.4-0.4-0.8-0.6-1.3-0.6
								c-1.3,0-2.1,1-2.1,2.6c0,1.6,0.9,2.6,2.1,2.6c0.6,0,1.2-0.3,1.6-0.7l0.9,1.5c-0.8,0.7-1.8,1-2.7,1
								C187.8,31.2,186.1,29.6,186.1,26.8z"/>
							<path class="st2" d="M203.3,28.2h-3.6l-0.8,2.8h-2.2l3.6-11.1h2.6l3.6,11.1h-2.3L203.3,28.2z M202.8,26.4l-0.3-1.2
								c-0.3-1.2-0.6-2.4-1-3.6h-0.1c-0.3,1.2-0.6,2.5-0.9,3.6l-0.3,1.2H202.8z"/>
							<path class="st2" d="M207.5,22.6h1.8l0.2,1.5h0.1c0.6-1.1,1.5-1.7,2.4-1.7c0.5,0,0.7,0.1,1,0.2l-0.4,1.9
								c-0.3-0.1-0.5-0.1-0.9-0.1c-0.7,0-1.5,0.4-1.9,1.7v5h-2.2V22.6z"/>
							<path class="st2" d="M213.4,26.8c0-2.7,1.9-4.4,3.9-4.4c2.3,0,3.5,1.7,3.5,4c0,0.4,0,0.8-0.1,1h-5.2c0.2,1.4,1.1,2.1,2.3,2.1
								c0.7,0,1.3-0.2,1.9-0.6l0.8,1.4c-0.8,0.6-1.9,0.9-2.9,0.9C215.2,31.2,213.4,29.6,213.4,26.8z M218.9,26
								c0-1.1-0.5-1.9-1.6-1.9c-0.9,0-1.7,0.6-1.8,1.9H218.9z"/>
							<path class="st2" d="M222,28.7c0-1.8,1.5-2.7,4.8-3.1c0-0.8-0.4-1.5-1.4-1.5c-0.8,0-1.5,0.3-2.3,0.8l-0.8-1.5
								c1-0.6,2.2-1.1,3.5-1.1c2.1,0,3.2,1.3,3.2,3.7V31h-1.8l-0.2-0.9h0c-0.7,0.6-1.6,1.1-2.5,1.1C223,31.2,222,30.1,222,28.7z
								 M226.8,28.7V27c-2,0.3-2.7,0.8-2.7,1.6c0,0.7,0.5,0.9,1.1,0.9C225.8,29.5,226.3,29.2,226.8,28.7z"/>
						</g>
					</g>
					<g class="st1">
						<path d="M15.5,173h1.7v9.6h4.7v1.5h-6.4V173z"/>
						<path d="M23.4,173.2c0-0.6,0.5-1,1.1-1c0.6,0,1.1,0.4,1.1,1c0,0.6-0.5,1-1.1,1C23.9,174.2,23.4,173.8,23.4,173.2z M23.7,175.8
							h1.7v8.2h-1.7V175.8z"/>
						<path d="M26.9,175.8h1.8l1.4,4.4c0.2,0.8,0.5,1.6,0.7,2.5h0.1c0.2-0.8,0.5-1.7,0.7-2.5l1.4-4.4h1.7l-2.9,8.2h-2L26.9,175.8z"
							/>
						<path d="M35.5,179.9c0-2.7,1.8-4.4,3.8-4.4c2.2,0,3.4,1.6,3.4,3.9c0,0.3,0,0.7-0.1,0.9h-5.4c0.1,1.6,1.1,2.5,2.5,2.5
							c0.7,0,1.4-0.2,2-0.6l0.6,1.1c-0.8,0.5-1.7,0.9-2.8,0.9C37.3,184.2,35.5,182.6,35.5,179.9z M41.1,179.1c0-1.4-0.6-2.2-1.8-2.2
							c-1,0-1.9,0.8-2.1,2.2H41.1z"/>
						<path d="M44.6,175.8H46l0.1,1.5h0c0.6-1.1,1.5-1.7,2.3-1.7c0.4,0,0.7,0.1,0.9,0.2l-0.3,1.5c-0.3-0.1-0.5-0.1-0.8-0.1
							c-0.7,0-1.5,0.5-2,1.8v5.1h-1.7V175.8z"/>
						<path d="M53.5,179.9c0-2.8,1.9-4.4,4.1-4.4c1,0,1.8,0.4,2.4,0.9l-0.9,1.1c-0.5-0.4-0.9-0.6-1.5-0.6c-1.4,0-2.4,1.2-2.4,2.9
							c0,1.7,0.9,2.9,2.3,2.9c0.7,0,1.3-0.3,1.8-0.8l0.7,1.1c-0.7,0.7-1.7,1-2.7,1C55.2,184.2,53.5,182.6,53.5,179.9z"/>
						<path d="M61.2,181.8c0-1.8,1.5-2.7,4.9-3.1c0-1-0.4-1.8-1.6-1.8c-0.9,0-1.7,0.4-2.4,0.8l-0.6-1.2c0.9-0.5,2-1.1,3.3-1.1
							c2.1,0,3,1.3,3,3.5v5h-1.4l-0.1-0.9h0c-0.8,0.6-1.6,1.1-2.6,1.1C62.2,184.2,61.2,183.3,61.2,181.8z M66.1,181.9v-2
							c-2.4,0.3-3.3,0.9-3.3,1.8c0,0.8,0.6,1.1,1.3,1.1C64.8,182.8,65.4,182.5,66.1,181.9z"/>
						<path d="M70.3,175.8h1.4l0.1,1.1h0c0.8-0.7,1.6-1.4,2.7-1.4c1.8,0,2.5,1.2,2.5,3.3v5.2h-1.7v-5c0-1.4-0.4-2-1.4-2
							c-0.8,0-1.3,0.4-2,1.1v5.8h-1.7V175.8z"/>
						<path d="M79.1,179.9c0-2.8,1.9-4.4,4.1-4.4c1,0,1.8,0.4,2.4,0.9l-0.9,1.1c-0.5-0.4-0.9-0.6-1.5-0.6c-1.4,0-2.4,1.2-2.4,2.9
							c0,1.7,0.9,2.9,2.3,2.9c0.7,0,1.3-0.3,1.8-0.8l0.7,1.1c-0.7,0.7-1.7,1-2.7,1C80.8,184.2,79.1,182.6,79.1,179.9z"/>
						<path d="M86.4,179.9c0-2.7,1.8-4.4,3.8-4.4c2.2,0,3.4,1.6,3.4,3.9c0,0.3,0,0.7-0.1,0.9h-5.4c0.1,1.6,1.1,2.5,2.5,2.5
							c0.7,0,1.4-0.2,2-0.6l0.6,1.1c-0.8,0.5-1.7,0.9-2.8,0.9C88.2,184.2,86.4,182.6,86.4,179.9z M92.1,179.1c0-1.4-0.6-2.2-1.8-2.2
							c-1,0-1.9,0.8-2.1,2.2H92.1z"/>
						<path d="M95.5,175.8h1.4l0.1,1.5h0c0.6-1.1,1.5-1.7,2.3-1.7c0.4,0,0.7,0.1,0.9,0.2l-0.3,1.5c-0.3-0.1-0.5-0.1-0.8-0.1
							c-0.7,0-1.5,0.5-2,1.8v5.1h-1.7V175.8z"/>
						<path d="M100,186c1-0.4,1.6-1.2,1.6-2.1c-0.1,0-0.1,0-0.2,0c-0.6,0-1.2-0.4-1.2-1.1c0-0.7,0.5-1.1,1.2-1.1
							c0.8,0,1.3,0.7,1.3,1.9c0,1.6-0.9,2.8-2.5,3.4L100,186z"/>
						<path d="M107.7,185.5c0-0.7,0.4-1.3,1.2-1.8v-0.1c-0.4-0.3-0.8-0.7-0.8-1.4c0-0.6,0.5-1.2,0.9-1.5v-0.1
							c-0.6-0.4-1.1-1.2-1.1-2.2c0-1.9,1.5-3,3.2-3c0.5,0,0.9,0.1,1.2,0.2h2.9v1.3h-1.6c0.3,0.3,0.5,0.9,0.5,1.5
							c0,1.8-1.4,2.8-3.1,2.8c-0.4,0-0.8-0.1-1.2-0.3c-0.3,0.2-0.4,0.5-0.4,0.9c0,0.5,0.3,0.8,1.4,0.8h1.5c2,0,3,0.6,3,2
							c0,1.6-1.7,2.9-4.3,2.9C109.2,187.7,107.7,187,107.7,185.5z M113.8,185.1c0-0.7-0.5-0.9-1.5-0.9H111c-0.4,0-0.8,0-1.1-0.1
							c-0.5,0.4-0.7,0.8-0.7,1.2c0,0.8,0.8,1.3,2.2,1.3C112.8,186.6,113.8,185.9,113.8,185.1z M112.8,178.5c0-1.1-0.7-1.8-1.6-1.8
							c-0.9,0-1.6,0.6-1.6,1.8c0,1.1,0.7,1.8,1.6,1.8S112.8,179.6,112.8,178.5z"/>
						<path d="M116.2,181.8c0-1.8,1.5-2.7,4.9-3.1c0-1-0.4-1.8-1.6-1.8c-0.9,0-1.7,0.4-2.4,0.8l-0.6-1.2c0.9-0.5,2-1.1,3.3-1.1
							c2.1,0,3,1.3,3,3.5v5h-1.4l-0.1-0.9h0c-0.8,0.6-1.6,1.1-2.6,1.1C117.2,184.2,116.2,183.3,116.2,181.8z M121.2,181.9v-2
							c-2.4,0.3-3.3,0.9-3.3,1.8c0,0.8,0.6,1.1,1.3,1.1C119.9,182.8,120.5,182.5,121.2,181.9z"/>
						<path d="M124.5,183.1l0.8-1.1c0.7,0.6,1.5,0.9,2.3,0.9c1,0,1.5-0.5,1.5-1.1c0-0.8-0.9-1.1-1.8-1.4c-1.1-0.4-2.4-1-2.4-2.4
							c0-1.4,1.1-2.4,2.9-2.4c1.1,0,2,0.5,2.7,1l-0.8,1.1c-0.6-0.4-1.2-0.7-1.8-0.7c-0.9,0-1.3,0.5-1.3,1c0,0.7,0.9,1,1.8,1.3
							c1.2,0.4,2.4,0.9,2.4,2.5c0,1.4-1.1,2.5-3.1,2.5C126.4,184.2,125.3,183.7,124.5,183.1z"/>
						<path d="M132.5,181.3v-4.2h-1.2v-1.3l1.3-0.1l0.2-2.3h1.5v2.3h2.1v1.4h-2.1v4.2c0,1,0.3,1.5,1.2,1.5c0.3,0,0.6-0.1,0.9-0.2
							l0.3,1.3c-0.5,0.2-1,0.3-1.6,0.3C133.1,184.2,132.5,183,132.5,181.3z"/>
						<path d="M138.2,175.8h1.4l0.1,1.5h0c0.6-1.1,1.5-1.7,2.3-1.7c0.4,0,0.7,0.1,0.9,0.2l-0.3,1.5c-0.3-0.1-0.5-0.1-0.8-0.1
							c-0.7,0-1.5,0.5-2,1.8v5.1h-1.7V175.8z"/>
						<path d="M144,173.2c0-0.6,0.5-1,1.1-1c0.6,0,1.1,0.4,1.1,1c0,0.6-0.5,1-1.1,1C144.5,174.2,144,173.8,144,173.2z M144.3,175.8
							h1.7v8.2h-1.7V175.8z"/>
						<path d="M148,179.9c0-2.8,1.9-4.4,4.1-4.4c1,0,1.8,0.4,2.4,0.9l-0.9,1.1c-0.5-0.4-0.9-0.6-1.5-0.6c-1.4,0-2.4,1.2-2.4,2.9
							c0,1.7,0.9,2.9,2.3,2.9c0.7,0,1.3-0.3,1.8-0.8l0.7,1.1c-0.7,0.7-1.7,1-2.7,1C149.7,184.2,148,182.6,148,179.9z"/>
						<path d="M159.1,179.9c0-2.8,1.9-4.4,4.1-4.4c1,0,1.8,0.4,2.4,0.9l-0.9,1.1c-0.5-0.4-0.9-0.6-1.5-0.6c-1.4,0-2.4,1.2-2.4,2.9
							c0,1.7,0.9,2.9,2.3,2.9c0.7,0,1.3-0.3,1.8-0.8l0.7,1.1c-0.7,0.7-1.7,1-2.7,1C160.8,184.2,159.1,182.6,159.1,179.9z"/>
						<path d="M166.8,181.8c0-1.8,1.5-2.7,4.9-3.1c0-1-0.4-1.8-1.6-1.8c-0.9,0-1.7,0.4-2.4,0.8l-0.6-1.2c0.9-0.5,2-1.1,3.3-1.1
							c2.1,0,3,1.3,3,3.5v5h-1.4l-0.2-0.9h0c-0.8,0.6-1.6,1.1-2.6,1.1C167.8,184.2,166.8,183.3,166.8,181.8z M171.8,181.9v-2
							c-2.4,0.3-3.3,0.9-3.3,1.8c0,0.8,0.6,1.1,1.3,1.1C170.5,182.8,171.1,182.5,171.8,181.9z"/>
						<path d="M175.9,175.8h1.4l0.1,1.1h0c0.8-0.7,1.6-1.4,2.7-1.4c1.8,0,2.5,1.2,2.5,3.3v5.2h-1.7v-5c0-1.4-0.4-2-1.4-2
							c-0.8,0-1.3,0.4-2,1.1v5.8h-1.7V175.8z"/>
						<path d="M184.7,179.9c0-2.8,1.9-4.4,4.1-4.4c1,0,1.8,0.4,2.4,0.9l-0.9,1.1c-0.5-0.4-0.9-0.6-1.5-0.6c-1.4,0-2.4,1.2-2.4,2.9
							c0,1.7,0.9,2.9,2.3,2.9c0.7,0,1.3-0.3,1.8-0.8l0.7,1.1c-0.7,0.7-1.7,1-2.7,1C186.4,184.2,184.7,182.6,184.7,179.9z"/>
						<path d="M192.1,179.9c0-2.7,1.8-4.4,3.8-4.4c2.2,0,3.4,1.6,3.4,3.9c0,0.3,0,0.7-0.1,0.9h-5.4c0.1,1.6,1.1,2.5,2.5,2.5
							c0.7,0,1.4-0.2,2-0.6l0.6,1.1c-0.8,0.5-1.7,0.9-2.8,0.9C193.9,184.2,192.1,182.6,192.1,179.9z M197.7,179.1
							c0-1.4-0.6-2.2-1.8-2.2c-1,0-2,0.8-2.1,2.2H197.7z"/>
						<path d="M201.1,175.8h1.4l0.1,1.5h0c0.6-1.1,1.5-1.7,2.3-1.7c0.4,0,0.7,0.1,0.9,0.2l-0.3,1.5c-0.3-0.1-0.5-0.1-0.8-0.1
							c-0.7,0-1.5,0.5-2,1.8v5.1h-1.7V175.8z"/>
						<path d="M205.6,186c1-0.4,1.6-1.2,1.6-2.1c-0.1,0-0.1,0-0.2,0c-0.6,0-1.2-0.4-1.2-1.1c0-0.7,0.5-1.1,1.2-1.1
							c0.8,0,1.3,0.7,1.3,1.9c0,1.6-0.9,2.8-2.5,3.4L205.6,186z"/>
						<path d="M213.4,179.9c0-2.8,1.8-4.4,3.9-4.4c2,0,3.9,1.6,3.9,4.4c0,2.7-1.8,4.3-3.9,4.3C215.3,184.2,213.4,182.6,213.4,179.9z
							 M219.4,179.9c0-1.8-0.8-2.9-2.1-2.9c-1.3,0-2.1,1.2-2.1,2.9c0,1.7,0.8,2.9,2.1,2.9C218.6,182.8,219.4,181.6,219.4,179.9z"/>
						<path d="M222,175.8h1.8l1.4,4.4c0.2,0.8,0.5,1.6,0.7,2.5h0.1c0.2-0.8,0.5-1.7,0.7-2.5l1.4-4.4h1.7l-2.8,8.2h-2L222,175.8z"/>
						<path d="M230.5,181.8c0-1.8,1.5-2.7,4.9-3.1c0-1-0.4-1.8-1.6-1.8c-0.9,0-1.7,0.4-2.4,0.8l-0.6-1.2c0.9-0.5,2-1.1,3.3-1.1
							c2.1,0,3,1.3,3,3.5v5h-1.4l-0.1-0.9h0c-0.8,0.6-1.6,1.1-2.6,1.1C231.5,184.2,230.5,183.3,230.5,181.8z M235.4,181.9v-2
							c-2.4,0.3-3.3,0.9-3.3,1.8c0,0.8,0.6,1.1,1.3,1.1C234.2,182.8,234.7,182.5,235.4,181.9z"/>
						<path d="M239.6,175.8h1.4l0.1,1.5h0c0.6-1.1,1.5-1.7,2.3-1.7c0.4,0,0.7,0.1,0.9,0.2l-0.3,1.5c-0.3-0.1-0.5-0.1-0.8-0.1
							c-0.7,0-1.5,0.5-2,1.8v5.1h-1.7V175.8z"/>
						<path d="M245.5,173.2c0-0.6,0.5-1,1.1-1c0.6,0,1.1,0.4,1.1,1c0,0.6-0.5,1-1.1,1C245.9,174.2,245.5,173.8,245.5,173.2z
							 M245.7,175.8h1.7v8.2h-1.7V175.8z"/>
						<path d="M249.5,181.8c0-1.8,1.5-2.7,4.9-3.1c0-1-0.4-1.8-1.6-1.8c-0.9,0-1.7,0.4-2.4,0.8l-0.6-1.2c0.9-0.5,2-1.1,3.3-1.1
							c2.1,0,3,1.3,3,3.5v5h-1.4l-0.1-0.9h0c-0.8,0.6-1.6,1.1-2.6,1.1C250.5,184.2,249.5,183.3,249.5,181.8z M254.5,181.9v-2
							c-2.4,0.3-3.3,0.9-3.3,1.8c0,0.8,0.6,1.1,1.3,1.1C253.2,182.8,253.8,182.5,254.5,181.9z"/>
						<path d="M258.6,175.8h1.4l0.1,1.1h0c0.8-0.7,1.6-1.4,2.7-1.4c1.8,0,2.5,1.2,2.5,3.3v5.2h-1.7v-5c0-1.4-0.4-2-1.4-2
							c-0.8,0-1.3,0.4-2,1.1v5.8h-1.7V175.8z"/>
						<path d="M270.8,179.9c0-2.8,1.9-4.4,4.1-4.4c1,0,1.8,0.4,2.4,0.9l-0.9,1.1c-0.5-0.4-0.9-0.6-1.5-0.6c-1.4,0-2.4,1.2-2.4,2.9
							c0,1.7,0.9,2.9,2.3,2.9c0.7,0,1.3-0.3,1.8-0.8l0.7,1.1c-0.8,0.7-1.7,1-2.7,1C272.5,184.2,270.8,182.6,270.8,179.9z"/>
						<path d="M278.5,181.8c0-1.8,1.5-2.7,4.9-3.1c0-1-0.4-1.8-1.6-1.8c-0.9,0-1.7,0.4-2.4,0.8l-0.6-1.2c0.9-0.5,2-1.1,3.3-1.1
							c2.1,0,3,1.3,3,3.5v5h-1.4l-0.1-0.9h0c-0.8,0.6-1.6,1.1-2.6,1.1C279.5,184.2,278.5,183.3,278.5,181.8z M283.4,181.9v-2
							c-2.4,0.3-3.3,0.9-3.3,1.8c0,0.8,0.6,1.1,1.3,1.1C282.2,182.8,282.8,182.5,283.4,181.9z"/>
						<path d="M287.6,175.8h1.4l0.1,1.1h0c0.8-0.7,1.6-1.4,2.7-1.4c1.8,0,2.5,1.2,2.5,3.3v5.2h-1.7v-5c0-1.4-0.4-2-1.4-2
							c-0.8,0-1.3,0.4-2,1.1v5.8h-1.7V175.8z"/>
						<path d="M296.4,179.9c0-2.8,1.9-4.4,4.1-4.4c1,0,1.8,0.4,2.4,0.9l-0.9,1.1c-0.5-0.4-0.9-0.6-1.5-0.6c-1.4,0-2.4,1.2-2.4,2.9
							c0,1.7,0.9,2.9,2.3,2.9c0.7,0,1.3-0.3,1.8-0.8l0.7,1.1c-0.8,0.7-1.7,1-2.7,1C298.1,184.2,296.4,182.6,296.4,179.9z"/>
						<path d="M303.7,179.9c0-2.7,1.8-4.4,3.8-4.4c2.2,0,3.4,1.6,3.4,3.9c0,0.3,0,0.7-0.1,0.9h-5.4c0.1,1.6,1.1,2.5,2.5,2.5
							c0.7,0,1.4-0.2,2-0.6l0.6,1.1c-0.8,0.5-1.7,0.9-2.8,0.9C305.5,184.2,303.7,182.6,303.7,179.9z M309.4,179.1
							c0-1.4-0.6-2.2-1.8-2.2c-1,0-1.9,0.8-2.1,2.2H309.4z"/>
						<path d="M312.8,175.8h1.4l0.1,1.5h0c0.6-1.1,1.5-1.7,2.3-1.7c0.4,0,0.7,0.1,0.9,0.2l-0.3,1.5c-0.3-0.1-0.5-0.1-0.8-0.1
							c-0.7,0-1.5,0.5-2,1.8v5.1h-1.7V175.8z"/>
						<path d="M317.3,186c1-0.4,1.6-1.2,1.6-2.1c-0.1,0-0.1,0-0.2,0c-0.6,0-1.2-0.4-1.2-1.1c0-0.7,0.5-1.1,1.2-1.1
							c0.8,0,1.3,0.7,1.3,1.9c0,1.6-0.9,2.8-2.5,3.4L317.3,186z"/>
					</g>
					<text transform="matrix(1 0 0 1 320.9702 184)" class="st3 st4"> </text>
					<g class="st1">
						<path d="M55.9,201.9c0-2.8,1.9-4.4,4.1-4.4c1,0,1.8,0.4,2.4,0.9l-0.9,1.1c-0.5-0.4-0.9-0.6-1.5-0.6c-1.4,0-2.4,1.2-2.4,2.9
							c0,1.7,0.9,2.9,2.3,2.9c0.7,0,1.3-0.3,1.8-0.8l0.7,1.1c-0.7,0.7-1.7,1-2.7,1C57.6,206.2,55.9,204.6,55.9,201.9z"/>
						<path d="M63.3,201.9c0-2.8,1.8-4.4,3.9-4.4c2,0,3.9,1.6,3.9,4.4c0,2.7-1.8,4.3-3.9,4.3C65.1,206.2,63.3,204.6,63.3,201.9z
							 M69.3,201.9c0-1.8-0.8-2.9-2.1-2.9c-1.3,0-2.1,1.2-2.1,2.9c0,1.7,0.8,2.9,2.1,2.9C68.5,204.8,69.3,203.6,69.3,201.9z"/>
						<path d="M73.1,204.1v-10h1.7v10.1c0,0.5,0.2,0.6,0.4,0.6c0.1,0,0.1,0,0.3,0l0.2,1.3c-0.2,0.1-0.5,0.1-0.9,0.1
							C73.5,206.2,73.1,205.4,73.1,204.1z"/>
						<path d="M77,201.9c0-2.8,1.8-4.4,3.9-4.4c2,0,3.9,1.6,3.9,4.4c0,2.7-1.8,4.3-3.9,4.3C78.8,206.2,77,204.6,77,201.9z M83,201.9
							c0-1.8-0.8-2.9-2.1-2.9c-1.3,0-2.1,1.2-2.1,2.9c0,1.7,0.8,2.9,2.1,2.9C82.1,204.8,83,203.6,83,201.9z"/>
						<path d="M86.7,197.8h1.4l0.1,1.5h0c0.6-1.1,1.5-1.7,2.3-1.7c0.4,0,0.7,0.1,0.9,0.2l-0.3,1.5c-0.3-0.1-0.5-0.1-0.8-0.1
							c-0.7,0-1.5,0.5-2,1.8v5.1h-1.7V197.8z"/>
						<path d="M92.1,201.9c0-2.7,1.8-4.4,3.8-4.4c2.2,0,3.4,1.6,3.4,3.9c0,0.3,0,0.7-0.1,0.9h-5.4c0.1,1.6,1.1,2.5,2.5,2.5
							c0.7,0,1.4-0.2,2-0.6l0.6,1.1c-0.8,0.5-1.7,0.9-2.8,0.9C93.9,206.2,92.1,204.6,92.1,201.9z M97.8,201.1c0-1.4-0.6-2.2-1.8-2.2
							c-1,0-1.9,0.8-2.1,2.2H97.8z"/>
						<path d="M100.6,201.9c0-2.8,1.9-4.4,4.1-4.4c1,0,1.8,0.4,2.4,0.9l-0.9,1.1c-0.5-0.4-0.9-0.6-1.5-0.6c-1.4,0-2.4,1.2-2.4,2.9
							c0,1.7,0.9,2.9,2.3,2.9c0.7,0,1.3-0.3,1.8-0.8l0.7,1.1c-0.7,0.7-1.7,1-2.7,1C102.3,206.2,100.6,204.6,100.6,201.9z"/>
						<path d="M109.1,203.3v-4.2h-1.2v-1.3l1.3-0.1l0.2-2.3h1.5v2.3h2.1v1.4h-2.1v4.2c0,1,0.3,1.5,1.2,1.5c0.3,0,0.6-0.1,0.9-0.2
							l0.3,1.3c-0.5,0.2-1,0.3-1.6,0.3C109.7,206.2,109.1,205,109.1,203.3z"/>
						<path d="M113.9,203.8c0-1.8,1.5-2.7,4.9-3.1c0-1-0.4-1.8-1.6-1.8c-0.9,0-1.7,0.4-2.4,0.8l-0.6-1.2c0.9-0.5,2-1.1,3.3-1.1
							c2.1,0,3,1.3,3,3.5v5h-1.4l-0.1-0.9h0c-0.8,0.6-1.6,1.1-2.6,1.1C114.9,206.2,113.9,205.3,113.9,203.8z M118.8,203.9v-2
							c-2.4,0.3-3.3,0.9-3.3,1.8c0,0.8,0.6,1.1,1.3,1.1C117.6,204.8,118.1,204.5,118.8,203.9z"/>
						<path d="M123,204.1v-10h1.7v10.1c0,0.5,0.2,0.6,0.4,0.6c0.1,0,0.1,0,0.3,0l0.2,1.3c-0.2,0.1-0.5,0.1-0.9,0.1
							C123.5,206.2,123,205.4,123,204.1z"/>
						<path d="M130.2,201.9c0-2.8,1.9-4.4,4.1-4.4c1,0,1.8,0.4,2.4,0.9l-0.9,1.1c-0.5-0.4-0.9-0.6-1.5-0.6c-1.4,0-2.4,1.2-2.4,2.9
							c0,1.7,0.9,2.9,2.3,2.9c0.7,0,1.3-0.3,1.8-0.8l0.7,1.1c-0.7,0.7-1.7,1-2.7,1C132,206.2,130.2,204.6,130.2,201.9z"/>
						<path d="M137.9,203.8c0-1.8,1.5-2.7,4.9-3.1c0-1-0.4-1.8-1.6-1.8c-0.9,0-1.7,0.4-2.4,0.8l-0.6-1.2c0.9-0.5,2-1.1,3.3-1.1
							c2.1,0,3,1.3,3,3.5v5h-1.4l-0.1-0.9h0c-0.8,0.6-1.6,1.1-2.6,1.1C138.9,206.2,137.9,205.3,137.9,203.8z M142.9,203.9v-2
							c-2.4,0.3-3.3,0.9-3.3,1.8c0,0.8,0.6,1.1,1.3,1.1C141.6,204.8,142.2,204.5,142.9,203.9z"/>
						<path d="M147,197.8h1.4l0.1,1.1h0c0.8-0.7,1.6-1.4,2.7-1.4c1.8,0,2.5,1.2,2.5,3.3v5.2h-1.7v-5c0-1.4-0.4-2-1.4-2
							c-0.8,0-1.3,0.4-2,1.1v5.8H147V197.8z"/>
						<path d="M155.8,201.9c0-2.8,1.9-4.4,4.1-4.4c1,0,1.8,0.4,2.4,0.9l-0.9,1.1c-0.5-0.4-0.9-0.6-1.5-0.6c-1.4,0-2.4,1.2-2.4,2.9
							c0,1.7,0.9,2.9,2.3,2.9c0.7,0,1.3-0.3,1.8-0.8l0.7,1.1c-0.7,0.7-1.7,1-2.7,1C157.5,206.2,155.8,204.6,155.8,201.9z"/>
						<path d="M163.2,201.9c0-2.7,1.8-4.4,3.8-4.4c2.2,0,3.4,1.6,3.4,3.9c0,0.3,0,0.7-0.1,0.9h-5.4c0.1,1.6,1.1,2.5,2.5,2.5
							c0.7,0,1.4-0.2,2-0.6l0.6,1.1c-0.8,0.5-1.7,0.9-2.8,0.9C165,206.2,163.2,204.6,163.2,201.9z M168.8,201.1
							c0-1.4-0.6-2.2-1.8-2.2c-1,0-1.9,0.8-2.1,2.2H168.8z"/>
						<path d="M172.2,197.8h1.4l0.1,1.5h0c0.6-1.1,1.5-1.7,2.3-1.7c0.4,0,0.7,0.1,0.9,0.2l-0.3,1.5c-0.3-0.1-0.5-0.1-0.8-0.1
							c-0.7,0-1.5,0.5-2,1.8v5.1h-1.7V197.8z"/>
						<path d="M176.7,208c1-0.4,1.6-1.2,1.6-2.1c-0.1,0-0.1,0-0.2,0c-0.6,0-1.2-0.4-1.2-1.1c0-0.7,0.5-1.1,1.2-1.1
							c0.8,0,1.3,0.7,1.3,1.9c0,1.6-0.9,2.8-2.5,3.4L176.7,208z"/>
						<path d="M186.7,205.1L186.7,205.1l-0.2,0.9h-1.3v-12h1.7v3.2l0,1.4c0.7-0.6,1.6-1.1,2.5-1.1c2.1,0,3.3,1.7,3.3,4.2
							c0,2.8-1.7,4.5-3.6,4.5C188.2,206.2,187.4,205.8,186.7,205.1z M190.7,201.8c0-1.7-0.6-2.8-1.9-2.8c-0.6,0-1.3,0.3-2,1v4
							c0.6,0.6,1.3,0.8,1.8,0.8C189.8,204.8,190.7,203.7,190.7,201.8z"/>
						<path d="M194.5,197.8h1.4l0.1,1.5h0c0.6-1.1,1.5-1.7,2.3-1.7c0.4,0,0.7,0.1,0.9,0.2l-0.3,1.5c-0.3-0.1-0.5-0.1-0.8-0.1
							c-0.7,0-1.5,0.5-2,1.8v5.1h-1.7V197.8z"/>
						<path d="M199.9,201.9c0-2.7,1.8-4.4,3.8-4.4c2.2,0,3.4,1.6,3.4,3.9c0,0.3,0,0.7-0.1,0.9h-5.4c0.1,1.6,1.1,2.5,2.5,2.5
							c0.7,0,1.4-0.2,2-0.6l0.6,1.1c-0.8,0.5-1.7,0.9-2.8,0.9C201.7,206.2,199.9,204.6,199.9,201.9z M205.6,201.1
							c0-1.4-0.6-2.2-1.8-2.2c-1,0-1.9,0.8-2.1,2.2H205.6z"/>
						<path d="M208.3,203.8c0-1.8,1.5-2.7,4.9-3.1c0-1-0.4-1.8-1.6-1.8c-0.9,0-1.7,0.4-2.4,0.8l-0.6-1.2c0.9-0.5,2-1.1,3.3-1.1
							c2.1,0,3,1.3,3,3.5v5h-1.4l-0.2-0.9h0c-0.8,0.6-1.6,1.1-2.6,1.1C209.3,206.2,208.3,205.3,208.3,203.8z M213.2,203.9v-2
							c-2.4,0.3-3.3,0.9-3.3,1.8c0,0.8,0.6,1.1,1.3,1.1C212,204.8,212.5,204.5,213.2,203.9z"/>
						<path d="M216.5,205.1l0.8-1.1c0.7,0.6,1.5,0.9,2.3,0.9c1,0,1.5-0.5,1.5-1.1c0-0.8-0.9-1.1-1.8-1.4c-1.1-0.4-2.4-1-2.4-2.4
							c0-1.4,1.1-2.4,2.9-2.4c1.1,0,2,0.5,2.7,1l-0.8,1.1c-0.6-0.4-1.2-0.7-1.8-0.7c-0.9,0-1.3,0.5-1.3,1c0,0.7,0.9,1,1.8,1.3
							c1.2,0.4,2.4,0.9,2.4,2.5c0,1.4-1.1,2.5-3.1,2.5C218.5,206.2,217.3,205.7,216.5,205.1z"/>
						<path d="M224.5,203.3v-4.2h-1.2v-1.3l1.3-0.1l0.2-2.3h1.5v2.3h2.1v1.4h-2.1v4.2c0,1,0.3,1.5,1.2,1.5c0.3,0,0.6-0.1,0.9-0.2
							l0.3,1.3c-0.5,0.2-1,0.3-1.6,0.3C225.2,206.2,224.5,205,224.5,203.3z"/>
						<path d="M233,201.9c0-2.8,1.9-4.4,4.1-4.4c1,0,1.8,0.4,2.4,0.9l-0.9,1.1c-0.4-0.4-0.9-0.6-1.5-0.6c-1.4,0-2.4,1.2-2.4,2.9
							c0,1.7,0.9,2.9,2.3,2.9c0.7,0,1.3-0.3,1.8-0.8l0.7,1.1c-0.7,0.7-1.7,1-2.7,1C234.7,206.2,233,204.6,233,201.9z"/>
						<path d="M240.7,203.8c0-1.8,1.5-2.7,4.9-3.1c0-1-0.4-1.8-1.6-1.8c-0.9,0-1.7,0.4-2.4,0.8l-0.6-1.2c0.9-0.5,2-1.1,3.3-1.1
							c2.1,0,3,1.3,3,3.5v5h-1.4l-0.1-0.9h0c-0.8,0.6-1.6,1.1-2.6,1.1C241.7,206.2,240.7,205.3,240.7,203.8z M245.6,203.9v-2
							c-2.4,0.3-3.3,0.9-3.3,1.8c0,0.8,0.6,1.1,1.3,1.1C244.4,204.8,244.9,204.5,245.6,203.9z"/>
						<path d="M249.8,197.8h1.4l0.1,1.1h0c0.8-0.7,1.6-1.4,2.7-1.4c1.8,0,2.5,1.2,2.5,3.3v5.2h-1.7v-5c0-1.4-0.4-2-1.4-2
							c-0.8,0-1.3,0.4-2,1.1v5.8h-1.7V197.8z"/>
						<path d="M258.6,201.9c0-2.8,1.9-4.4,4.1-4.4c1,0,1.8,0.4,2.4,0.9l-0.9,1.1c-0.5-0.4-0.9-0.6-1.5-0.6c-1.4,0-2.4,1.2-2.4,2.9
							c0,1.7,0.9,2.9,2.3,2.9c0.7,0,1.3-0.3,1.8-0.8l0.7,1.1c-0.8,0.7-1.7,1-2.7,1C260.3,206.2,258.6,204.6,258.6,201.9z"/>
						<path d="M265.9,201.9c0-2.7,1.8-4.4,3.8-4.4c2.2,0,3.4,1.6,3.4,3.9c0,0.3,0,0.7-0.1,0.9h-5.4c0.1,1.6,1.1,2.5,2.5,2.5
							c0.7,0,1.4-0.2,2-0.6l0.6,1.1c-0.8,0.5-1.7,0.9-2.8,0.9C267.7,206.2,265.9,204.6,265.9,201.9z M271.6,201.1
							c0-1.4-0.6-2.2-1.8-2.2c-1,0-1.9,0.8-2.1,2.2H271.6z"/>
						<path d="M275,197.8h1.4l0.1,1.5h0c0.6-1.1,1.5-1.7,2.3-1.7c0.4,0,0.7,0.1,0.9,0.2l-0.3,1.5c-0.3-0.1-0.5-0.1-0.8-0.1
							c-0.7,0-1.5,0.5-2,1.8v5.1H275V197.8z"/>
					</g>
					<g class="st1">
						<path d="M143.1,70.9h2.3l1.5,5.4c0.3,1.2,0.6,2.3,0.9,3.6h0.1c0.3-1.2,0.6-2.4,0.9-3.6l1.4-5.4h2.2L149.2,82h-2.6L143.1,70.9z
							"/>
						<path d="M153.8,70.9h2.5l1.9,5.2c0.2,0.7,0.4,1.4,0.7,2.1h0.1c0.2-0.7,0.4-1.5,0.7-2.1l1.8-5.2h2.5V82h-2v-4.6
							c0-1,0.2-2.6,0.3-3.6h-0.1l-0.9,2.6l-1.7,4.7h-1.3l-1.7-4.7l-0.9-2.6h-0.1c0.1,1,0.3,2.6,0.3,3.6V82h-2V70.9z"/>
						<path d="M166,79.2c0-1.4,0.9-2.3,1.9-2.9v-0.1c-0.9-0.6-1.5-1.5-1.5-2.6c0-1.8,1.4-2.9,3.3-2.9c2,0,3.2,1.2,3.2,3
							c0,1.1-0.7,2-1.4,2.5v0.1c1,0.6,1.9,1.5,1.9,3c0,1.7-1.5,3-3.7,3C167.6,82.2,166,81,166,79.2z M171.4,79.2
							c0-1.2-1-1.6-2.5-2.2c-0.6,0.5-1,1.2-1,2.1c0,1,0.8,1.7,1.9,1.7C170.7,80.7,171.4,80.1,171.4,79.2z M171.2,73.8
							c0-0.9-0.5-1.5-1.5-1.5c-0.8,0-1.3,0.5-1.3,1.4c0,1.1,0.9,1.6,2,2C170.9,75.1,171.2,74.5,171.2,73.8z"/>
						<path d="M174.8,76.4c0-3.8,1.5-5.7,3.8-5.7c2.2,0,3.8,1.9,3.8,5.7s-1.5,5.8-3.8,5.8C176.3,82.2,174.8,80.2,174.8,76.4z
							 M180.2,76.4c0-3.1-0.7-4-1.7-4c-1,0-1.7,0.9-1.7,4c0,3.1,0.7,4.1,1.7,4.1C179.5,80.5,180.2,79.5,180.2,76.4z"/>
						<path d="M183.3,80.7l1-1.4c0.6,0.6,1.4,1.1,2.4,1.1c1.2,0,2-0.7,2-2c0-1.3-0.8-2-1.9-2c-0.7,0-1,0.2-1.7,0.6l-1-0.7l0.3-5.4
							h5.9v1.8h-4l-0.2,2.4c0.4-0.2,0.8-0.3,1.3-0.3c1.9,0,3.4,1.1,3.4,3.5c0,2.5-1.8,3.9-3.9,3.9C185.3,82.2,184.2,81.5,183.3,80.7
							z"/>
					</g>
				</g>
			</g>
		</g>
	</g>
</g>
</svg>
