<?xml version="1.0" encoding="utf-8"?>
<!-- Generator: Adobe Illustrator 23.0.6, SVG Export Plug-In . SVG Version: 6.00 Build 0)  -->
<svg version="1.1" id="레이어_1" xmlns="http://www.w3.org/2000/svg" xmlns:xlink="http://www.w3.org/1999/xlink" x="0px"
	 y="0px" viewBox="0 0 1002 282" style="enable-background:new 0 0 1002 282;" xml:space="preserve">
<style type="text/css">
	.st0{fill-rule:evenodd;clip-rule:evenodd;}
	.st1{enable-background:new    ;}
	.st2{fill:#FFFFFF;}
	.st3{fill:none;stroke:#979797;stroke-linecap:square;}
</style>
<title>표</title>
<desc>Created with Sketch.</desc>
<g id="Page-1">
	<g transform="translate(-189.000000, -1608.000000)">
		<g id="second" transform="translate(190.000000, 1301.000000)">
			<g id="표" transform="translate(0.000000, 307.000000)">
				<g id="head">
					<g>
						<path id="bg" class="st0" d="M8,0h234c4.4,0,8,3.6,8,8v34c0,4.4-3.6,8-8,8H8c-4.4,0-8-3.6-8-8V8C0,3.6,3.6,0,8,0z"/>
						<g class="st1">
							<path class="st2" d="M94.4,19.9H98c2.5,0,4.3,0.9,4.3,3.5c0,2.5-1.9,3.7-4.3,3.7h-1.5V31h-2.2L94.4,19.9L94.4,19.9z
								 M97.9,25.3c1.5,0,2.3-0.6,2.3-1.9s-0.8-1.7-2.3-1.7h-1.3v3.6H97.9z"/>
							<path class="st2" d="M104.2,22.6h1.8l0.1,1.5h0.1c0.6-1.1,1.5-1.7,2.4-1.7c0.5,0,0.7,0.1,1,0.2l-0.4,1.9
								c-0.3-0.1-0.5-0.1-0.9-0.1c-0.7,0-1.5,0.4-1.9,1.7v5h-2.2V22.6z"/>
							<path class="st2" d="M110,26.8c0-2.8,1.9-4.4,4-4.4s4,1.6,4,4.4s-1.9,4.4-4,4.4S110,29.6,110,26.8z M115.8,26.8
								c0-1.6-0.6-2.6-1.8-2.6s-1.8,1-1.8,2.6s0.6,2.6,1.8,2.6S115.8,28.4,115.8,26.8z"/>
							<path class="st2" d="M119.4,32.5c0-0.7,0.4-1.3,1.2-1.7v-0.1c-0.4-0.3-0.8-0.7-0.8-1.4c0-0.6,0.4-1.2,0.9-1.6v-0.1
								c-0.6-0.4-1.1-1.2-1.1-2.2c0-2,1.6-3,3.4-3c0.5,0,0.9,0.1,1.3,0.2h3v1.6h-1.4c0.2,0.3,0.4,0.8,0.4,1.3c0,1.9-1.4,2.8-3.2,2.8
								c-0.3,0-0.7-0.1-1.1-0.2c-0.2,0.2-0.4,0.4-0.4,0.7c0,0.5,0.3,0.7,1.3,0.7h1.4c2,0,3.1,0.6,3.1,2.1c0,1.7-1.8,3-4.6,3
								C120.9,34.6,119.4,34,119.4,32.5z M125.4,32c0-0.6-0.5-0.8-1.4-0.8h-1c-0.5,0-0.9,0-1.2-0.1c-0.4,0.3-0.6,0.6-0.6,1
								c0,0.7,0.8,1.1,2,1.1C124.5,33.2,125.4,32.7,125.4,32z M124.3,25.4c0-1-0.6-1.5-1.3-1.5s-1.3,0.6-1.3,1.5
								c0,1,0.6,1.5,1.3,1.5S124.3,26.4,124.3,25.4z"/>
							<path class="st2" d="M128.9,22.6h1.8l0.1,1.5h0.1c0.6-1.1,1.5-1.7,2.4-1.7c0.5,0,0.7,0.1,1,0.2l-0.4,1.9
								c-0.3-0.1-0.5-0.1-0.9-0.1c-0.7,0-1.5,0.4-1.9,1.7v5h-2.2L128.9,22.6L128.9,22.6z"/>
							<path class="st2" d="M134.5,28.7c0-1.8,1.5-2.7,4.8-3.1c0-0.8-0.4-1.5-1.4-1.5c-0.8,0-1.5,0.3-2.3,0.8l-0.8-1.5
								c1-0.6,2.2-1.1,3.5-1.1c2.1,0,3.2,1.3,3.2,3.7v5h-1.8l-0.2-0.9l0,0c-0.7,0.6-1.6,1.1-2.5,1.1
								C135.5,31.2,134.5,30.1,134.5,28.7z M139.4,28.7V27c-2,0.3-2.7,0.8-2.7,1.6c0,0.7,0.5,0.9,1.1,0.9
								C138.4,29.5,138.9,29.2,139.4,28.7z"/>
							<path class="st2" d="M143.8,22.6h1.8l0.1,1.1h0.1c0.7-0.7,1.5-1.3,2.6-1.3c1.2,0,1.9,0.5,2.3,1.5c0.8-0.8,1.6-1.5,2.7-1.5
								c1.8,0,2.6,1.3,2.6,3.4V31h-2.2v-5c0-1.3-0.4-1.8-1.2-1.8c-0.5,0-1,0.3-1.6,0.9V31h-2.2v-5c0-1.3-0.4-1.8-1.2-1.8
								c-0.5,0-1,0.3-1.6,0.9V31h-2.2L143.8,22.6L143.8,22.6z"/>
						</g>
					</g>
					<g transform="translate(260.000000, 0.000000)">
						<path class="st0" d="M8,0h724c4.4,0,8,3.6,8,8v34c0,4.4-3.6,8-8,8H8c-4.4,0-8-3.6-8-8V8C0,3.6,3.6,0,8,0z"/>
						<g class="st1">
							<path class="st2" d="M310.6,21.7h-3.1v-1.8h8.5v1.8h-3.2V31h-2.2L310.6,21.7L310.6,21.7z"/>
							<path class="st2" d="M317.6,19h2.2v3l-0.1,1.6c0.7-0.6,1.5-1.2,2.6-1.2c1.8,0,2.6,1.3,2.6,3.4V31h-2.2v-5
								c0-1.3-0.4-1.8-1.2-1.8c-0.7,0-1.1,0.3-1.8,0.9V31h-2.2V19H317.6z"/>
							<path class="st2" d="M326.6,26.8c0-2.7,1.9-4.4,3.9-4.4c2.3,0,3.5,1.7,3.5,4c0,0.4,0,0.8-0.1,1h-5.2c0.2,1.4,1.1,2.1,2.3,2.1
								c0.7,0,1.3-0.2,1.9-0.6l0.8,1.4c-0.8,0.6-1.9,0.9-2.9,0.9C328.5,31.2,326.6,29.6,326.6,26.8z M332.2,26
								c0-1.1-0.5-1.9-1.6-1.9c-0.9,0-1.7,0.6-1.8,1.9H332.2z"/>
							<path class="st2" d="M335.9,22.6h1.8l0.1,1.5h0.1c0.6-1.1,1.5-1.7,2.4-1.7c0.5,0,0.7,0.1,1,0.2l-0.4,1.9
								c-0.3-0.1-0.5-0.1-0.9-0.1c-0.7,0-1.5,0.4-1.9,1.7v5h-2.2V22.6z"/>
							<path class="st2" d="M341.5,28.7c0-1.8,1.5-2.7,4.8-3.1c0-0.8-0.4-1.5-1.4-1.5c-0.8,0-1.5,0.3-2.3,0.8l-0.8-1.5
								c1-0.6,2.2-1.1,3.5-1.1c2.1,0,3.2,1.3,3.2,3.7v5h-1.8l-0.2-0.9l0,0c-0.7,0.6-1.6,1.1-2.5,1.1
								C342.5,31.2,341.5,30.1,341.5,28.7z M346.4,28.7V27c-2,0.3-2.7,0.8-2.7,1.6c0,0.7,0.5,0.9,1.1,0.9S345.8,29.2,346.4,28.7z"/>
							<path class="st2" d="M350.8,22.6h1.8l0.1,0.9h0.1c0.7-0.6,1.6-1.1,2.5-1.1c2.1,0,3.3,1.7,3.3,4.3c0,2.9-1.7,4.5-3.6,4.5
								c-0.7,0-1.4-0.3-2.1-0.9l0.1,1.4v2.5h-2.2L350.8,22.6L350.8,22.6z M356.3,26.7c0-1.6-0.5-2.5-1.7-2.5c-0.6,0-1.1,0.3-1.7,0.9
								v3.7c0.5,0.5,1.1,0.6,1.5,0.6C355.6,29.4,356.3,28.5,356.3,26.7z"/>
							<path class="st2" d="M359.9,26.8c0-2.7,1.9-4.4,3.9-4.4c2.3,0,3.5,1.7,3.5,4c0,0.4,0,0.8-0.1,1H362c0.2,1.4,1.1,2.1,2.3,2.1
								c0.7,0,1.3-0.2,1.9-0.6l0.8,1.4c-0.8,0.6-1.9,0.9-2.9,0.9C361.8,31.2,359.9,29.6,359.9,26.8z M365.5,26
								c0-1.1-0.5-1.9-1.6-1.9c-0.9,0-1.7,0.6-1.8,1.9H365.5z"/>
							<path class="st2" d="M369.1,27.9v-5.2h2.2v5c0,1.3,0.4,1.8,1.2,1.8c0.7,0,1.1-0.3,1.7-1v-5.7h2.2V31h-1.8l-0.2-1.2h-0.1
								c-0.7,0.9-1.5,1.4-2.7,1.4C369.9,31.2,369.1,30,369.1,27.9z"/>
							<path class="st2" d="M379.1,28.1v-3.7h-1.2v-1.6l1.3-0.1l0.3-2.2h1.8v2.2h2.1v1.7h-2.1v3.7c0,1,0.4,1.4,1.1,1.4
								c0.3,0,0.6-0.1,0.8-0.2l0.4,1.6c-0.5,0.2-1,0.3-1.8,0.3C379.8,31.2,379.1,30,379.1,28.1z"/>
							<path class="st2" d="M384.8,20.1c0-0.7,0.6-1.2,1.3-1.2c0.8,0,1.3,0.5,1.3,1.2s-0.6,1.2-1.3,1.2
								C385.4,21.2,384.8,20.7,384.8,20.1z M385,22.6h2.2V31H385V22.6z"/>
							<path class="st2" d="M389.1,26.8c0-2.8,2-4.4,4.3-4.4c1,0,1.8,0.4,2.4,0.9l-1.1,1.4c-0.4-0.4-0.8-0.6-1.3-0.6
								c-1.3,0-2.1,1-2.1,2.6s0.9,2.6,2.1,2.6c0.6,0,1.2-0.3,1.6-0.7l0.9,1.5c-0.8,0.7-1.8,1-2.7,1
								C390.8,31.2,389.1,29.6,389.1,26.8z"/>
							<path class="st2" d="M406.3,28.2h-3.6l-0.8,2.8h-2.2l3.6-11.1h2.6l3.6,11.1h-2.3L406.3,28.2z M405.8,26.4l-0.3-1.2
								c-0.3-1.2-0.6-2.4-1-3.6h-0.1c-0.3,1.2-0.6,2.5-0.9,3.6l-0.3,1.2H405.8z"/>
							<path class="st2" d="M410.5,22.6h1.8l0.2,1.5h0.1c0.6-1.1,1.5-1.7,2.4-1.7c0.5,0,0.7,0.1,1,0.2l-0.4,1.9
								c-0.3-0.1-0.5-0.1-0.9-0.1c-0.7,0-1.5,0.4-1.9,1.7v5h-2.2v-8.5H410.5z"/>
							<path class="st2" d="M416.4,26.8c0-2.7,1.9-4.4,3.9-4.4c2.3,0,3.5,1.7,3.5,4c0,0.4,0,0.8-0.1,1h-5.2c0.2,1.4,1.1,2.1,2.3,2.1
								c0.7,0,1.3-0.2,1.9-0.6l0.8,1.4c-0.8,0.6-1.9,0.9-2.9,0.9C418.2,31.2,416.4,29.6,416.4,26.8z M421.9,26
								c0-1.1-0.5-1.9-1.6-1.9c-0.9,0-1.7,0.6-1.8,1.9H421.9z"/>
							<path class="st2" d="M425,28.7c0-1.8,1.5-2.7,4.8-3.1c0-0.8-0.4-1.5-1.4-1.5c-0.8,0-1.5,0.3-2.3,0.8l-0.8-1.5
								c1-0.6,2.2-1.1,3.5-1.1c2.1,0,3.2,1.3,3.2,3.7v5h-1.8l-0.2-0.9l0,0c-0.7,0.6-1.6,1.1-2.5,1.1C426,31.2,425,30.1,425,28.7z
								 M429.8,28.7V27c-2,0.3-2.7,0.8-2.7,1.6c0,0.7,0.5,0.9,1.1,0.9S429.3,29.2,429.8,28.7z"/>
						</g>
					</g>
				</g>
				<g id="cell1" transform="translate(0.000000, 65.000000)">
					<g class="st1">
						<path d="M95.8,7.7h2.8l1.8,6.5c0.4,1.5,0.7,2.8,1.1,4.3h0.1c0.4-1.5,0.7-2.8,1.1-4.3l1.7-6.5h2.7L103,21h-3.2L95.8,7.7z"/>
						<path d="M108.6,7.7h3l2.3,6.2c0.3,0.8,0.5,1.7,0.8,2.6h0.1c0.3-0.9,0.5-1.7,0.8-2.6l2.2-6.2h3V21h-2.4v-5.6
							c0-1.3,0.2-3.1,0.3-4.4h-0.1l-1.1,3.1l-2.1,5.6h-1.5l-2.1-5.6l-1.1-3.1h-0.1c0.1,1.3,0.3,3.1,0.3,4.4V21h-2.4L108.6,7.7
							L108.6,7.7z"/>
						<path d="M123.2,17.7c0-1.7,1-2.8,2.3-3.5v-0.1c-1-0.7-1.8-1.7-1.8-3.2c0-2.1,1.7-3.5,4-3.5c2.4,0,3.9,1.4,3.9,3.5
							c0,1.3-0.8,2.4-1.7,3V14c1.2,0.7,2.2,1.7,2.2,3.6c0,2-1.8,3.6-4.5,3.6C125.1,21.3,123.2,19.8,123.2,17.7z M129.7,17.6
							c0-1.4-1.2-2-3-2.7c-0.7,0.6-1.2,1.5-1.2,2.5c0,1.2,1,2,2.2,2C128.8,19.4,129.7,18.7,129.7,17.6z M129.4,11.2
							c0-1.1-0.6-1.9-1.8-1.9c-0.9,0-1.6,0.6-1.6,1.7c0,1.3,1,1.9,2.4,2.4C129.1,12.7,129.4,11.9,129.4,11.2z"/>
						<path d="M133.7,14.3c0-4.6,1.8-6.9,4.5-6.9s4.5,2.3,4.5,6.9s-1.8,7-4.5,7S133.7,18.9,133.7,14.3z M140.3,14.3
							c0-3.7-0.9-4.8-2-4.8c-1.2,0-2,1.1-2,4.8s0.9,4.9,2,4.9C139.4,19.2,140.3,18,140.3,14.3z"/>
						<path d="M145,18.9h2.9v-8.4h-2.4V8.8c1.3-0.3,2.3-0.6,3.1-1.1h2v11.2h2.5V21h-8v-2.1H145z"/>
					</g>
					<g class="st1">
						<path d="M285.9,16.1c0-3.3,2.2-5.2,4.7-5.2s4.7,1.9,4.7,5.2s-2.2,5.2-4.7,5.2S285.9,19.3,285.9,16.1z M293.1,16.1
							c0-2.1-1-3.5-2.5-3.5s-2.5,1.4-2.5,3.5s1,3.5,2.5,3.5C292.1,19.5,293.1,18.2,293.1,16.1z"/>
						<path d="M296.2,11.1h2.1l1.7,5.3c0.3,1,0.6,2,0.9,3h0.1c0.3-1,0.6-2,0.9-3l1.7-5.3h2l-3.4,9.9h-2.4L296.2,11.1z"/>
						<path d="M306.4,18.4c0-2.1,1.8-3.2,5.9-3.7c0-1.2-0.4-2.2-1.9-2.2c-1,0-2,0.5-2.9,1l-0.8-1.4c1-0.6,2.4-1.3,4-1.3
							c2.5,0,3.6,1.6,3.6,4.2v6h-1.7l-0.2-1.1h-0.1c-0.9,0.8-2,1.4-3.2,1.4C307.6,21.2,306.4,20.1,306.4,18.4z M312.3,18.4V16
							c-2.9,0.4-3.9,1.1-3.9,2.2c0,1,0.7,1.4,1.5,1.4C310.8,19.6,311.5,19.2,312.3,18.4z"/>
						<path d="M317.3,11.1h1.7l0.2,1.8h0.1c0.7-1.3,1.7-2,2.8-2c0.5,0,0.8,0.1,1.1,0.2l-0.4,1.8c-0.3-0.1-0.6-0.2-1-0.2
							c-0.8,0-1.8,0.6-2.4,2.1V21h-2.1L317.3,11.1L317.3,11.1z"/>
						<path d="M324.4,8c0-0.7,0.6-1.2,1.3-1.2S327,7.3,327,8s-0.6,1.2-1.3,1.2S324.4,8.7,324.4,8z M324.7,11.1h2.1V21h-2.1V11.1z"/>
						<path d="M329.2,18.4c0-2.1,1.8-3.2,5.9-3.7c0-1.2-0.4-2.2-1.9-2.2c-1,0-2,0.5-2.9,1l-0.8-1.4c1-0.6,2.4-1.3,4-1.3
							c2.5,0,3.6,1.6,3.6,4.2v6h-1.7l-0.2-1.1h-0.1c-0.9,0.8-2,1.4-3.2,1.4C330.5,21.2,329.2,20.1,329.2,18.4z M335.2,18.4V16
							c-2.9,0.4-3.9,1.1-3.9,2.2c0,1,0.7,1.4,1.5,1.4C333.7,19.6,334.4,19.2,335.2,18.4z"/>
						<path d="M340.2,11.1h1.7l0.2,1.4h0.1c0.9-0.9,1.9-1.6,3.3-1.6c2.1,0,3,1.4,3,3.9V21h-2.1v-6c0-1.7-0.5-2.4-1.7-2.4
							c-0.9,0-1.5,0.5-2.4,1.3v7h-2.1V11.1z"/>
						<path d="M354.8,16.1c0-3.3,2.3-5.2,4.9-5.2c1.3,0,2.2,0.5,2.9,1.1l-1,1.4c-0.5-0.5-1.1-0.8-1.8-0.8c-1.7,0-2.8,1.4-2.8,3.5
							s1.1,3.5,2.8,3.5c0.8,0,1.6-0.4,2.2-0.9l0.8,1.4c-0.9,0.8-2.1,1.2-3.2,1.2C356.8,21.2,354.8,19.3,354.8,16.1z"/>
						<path d="M364,18.4c0-2.1,1.8-3.2,5.9-3.7c0-1.2-0.4-2.2-1.9-2.2c-1,0-2,0.5-2.9,1l-0.8-1.4c1-0.6,2.4-1.3,4-1.3
							c2.5,0,3.6,1.6,3.6,4.2v6h-1.7l-0.2-1.1h-0.1c-0.9,0.8-2,1.4-3.2,1.4C365.2,21.2,364,20.1,364,18.4z M369.9,18.4V16
							c-2.9,0.4-3.9,1.1-3.9,2.2c0,1,0.7,1.4,1.5,1.4C368.4,19.6,369.1,19.2,369.9,18.4z"/>
						<path d="M374.9,11.1h1.7l0.2,1.4h0.1c0.9-0.9,1.9-1.6,3.3-1.6c2.1,0,3,1.4,3,3.9V21h-2.1v-6c0-1.7-0.5-2.4-1.7-2.4
							c-0.9,0-1.5,0.5-2.4,1.3v7h-2.1V11.1z"/>
						<path d="M385.4,16.1c0-3.3,2.3-5.2,4.9-5.2c1.3,0,2.2,0.5,2.9,1.1l-1,1.4c-0.5-0.5-1.1-0.8-1.8-0.8c-1.7,0-2.8,1.4-2.8,3.5
							s1.1,3.5,2.8,3.5c0.8,0,1.6-0.4,2.2-0.9l0.8,1.4c-0.9,0.8-2.1,1.2-3.2,1.2C387.5,21.2,385.4,19.3,385.4,16.1z"/>
						<path d="M394.3,16.1c0-3.2,2.2-5.2,4.5-5.2c2.6,0,4,1.9,4,4.7c0,0.4,0,0.8-0.1,1h-6.4c0.2,1.9,1.4,3,3.1,3
							c0.9,0,1.6-0.3,2.4-0.7l0.7,1.3c-0.9,0.6-2.1,1-3.3,1C396.4,21.2,394.3,19.3,394.3,16.1z M401,15.2c0-1.7-0.8-2.7-2.2-2.7
							c-1.2,0-2.3,1-2.5,2.7H401z"/>
						<path d="M405.2,11.1h1.7l0.2,1.8h0.1c0.7-1.3,1.7-2,2.8-2c0.5,0,0.8,0.1,1.1,0.2l-0.4,1.8c-0.3-0.1-0.6-0.2-1-0.2
							c-0.8,0-1.8,0.6-2.4,2.1V21h-2.1L405.2,11.1L405.2,11.1z"/>
						<path d="M410.6,23.4c1.2-0.5,1.9-1.4,2-2.5c-0.1,0-0.1,0-0.2,0c-0.7,0-1.4-0.5-1.4-1.3s0.6-1.3,1.4-1.3c1,0,1.6,0.8,1.6,2.2
							c0,1.9-1.1,3.3-3,4.1L410.6,23.4z"/>
						<path d="M419.9,16.1c0-3.3,2.3-5.2,4.9-5.2c1.3,0,2.2,0.5,2.9,1.1l-1,1.4c-0.5-0.5-1.1-0.8-1.8-0.8c-1.7,0-2.8,1.4-2.8,3.5
							s1.1,3.5,2.8,3.5c0.8,0,1.6-0.4,2.2-0.9l0.8,1.4c-0.9,0.8-2.1,1.2-3.2,1.2C421.9,21.2,419.9,19.3,419.9,16.1z"/>
						<path d="M428.7,16.1c0-3.3,2.2-5.2,4.7-5.2s4.7,1.9,4.7,5.2s-2.2,5.2-4.7,5.2S428.7,19.3,428.7,16.1z M435.9,16.1
							c0-2.1-1-3.5-2.5-3.5s-2.5,1.4-2.5,3.5s1,3.5,2.5,3.5C434.9,19.5,435.9,18.2,435.9,16.1z"/>
						<path d="M440.5,18.7v-12h2.1v12.1c0,0.6,0.3,0.8,0.5,0.8c0.1,0,0.2,0,0.3,0l0.3,1.6c-0.3,0.1-0.6,0.2-1.1,0.2
							C441,21.2,440.5,20.3,440.5,18.7z"/>
						<path d="M445.1,16.1c0-3.3,2.2-5.2,4.7-5.2s4.7,1.9,4.7,5.2s-2.2,5.2-4.7,5.2S445.1,19.3,445.1,16.1z M452.3,16.1
							c0-2.1-1-3.5-2.5-3.5s-2.5,1.4-2.5,3.5s1,3.5,2.5,3.5C451.4,19.5,452.3,18.2,452.3,16.1z"/>
						<path d="M456.9,11.1h1.7l0.2,1.8h0.1c0.7-1.3,1.7-2,2.8-2c0.5,0,0.8,0.1,1.1,0.2l-0.4,1.8c-0.3-0.1-0.6-0.2-1-0.2
							c-0.8,0-1.8,0.6-2.4,2.1V21h-2.1L456.9,11.1L456.9,11.1z"/>
						<path d="M463.3,16.1c0-3.2,2.2-5.2,4.5-5.2c2.6,0,4,1.9,4,4.7c0,0.4,0,0.8-0.1,1h-6.4c0.2,1.9,1.4,3,3.1,3
							c0.9,0,1.6-0.3,2.4-0.7l0.7,1.3c-0.9,0.6-2.1,1-3.3,1C465.5,21.2,463.3,19.3,463.3,16.1z M470.1,15.2c0-1.7-0.8-2.7-2.2-2.7
							c-1.2,0-2.3,1-2.5,2.7H470.1z"/>
						<path d="M473.5,16.1c0-3.3,2.3-5.2,4.9-5.2c1.3,0,2.2,0.5,2.9,1.1l-1,1.4c-0.5-0.5-1.1-0.8-1.8-0.8c-1.7,0-2.8,1.4-2.8,3.5
							s1.1,3.5,2.8,3.5c0.8,0,1.6-0.4,2.2-0.9l0.8,1.4c-0.9,0.8-2.1,1.2-3.2,1.2C475.6,21.2,473.5,19.3,473.5,16.1z"/>
						<path d="M483.6,17.8v-5h-1.4v-1.5l1.5-0.1l0.2-2.7h1.7v2.7h2.6v1.7h-2.6v5c0,1.2,0.4,1.8,1.4,1.8c0.3,0,0.8-0.1,1.1-0.2
							l0.4,1.5c-0.6,0.2-1.2,0.4-1.9,0.4C484.4,21.2,483.6,19.8,483.6,17.8z"/>
						<path d="M489.4,18.4c0-2.1,1.8-3.2,5.9-3.7c0-1.2-0.4-2.2-1.9-2.2c-1,0-2,0.5-2.9,1l-0.8-1.4c1-0.6,2.4-1.3,4-1.3
							c2.5,0,3.6,1.6,3.6,4.2v6h-1.7l-0.2-1.1h-0.1c-0.9,0.8-2,1.4-3.2,1.4C490.7,21.2,489.4,20.1,489.4,18.4z M495.4,18.4V16
							c-2.9,0.4-3.9,1.1-3.9,2.2c0,1,0.7,1.4,1.5,1.4C493.9,19.6,494.6,19.2,495.4,18.4z"/>
						<path d="M500.4,18.7v-12h2.1v12.1c0,0.6,0.3,0.8,0.5,0.8c0.1,0,0.2,0,0.3,0l0.3,1.6c-0.3,0.1-0.6,0.2-1.1,0.2
							C500.9,21.2,500.4,20.3,500.4,18.7z"/>
						<path d="M509.1,16.1c0-3.3,2.3-5.2,4.9-5.2c1.3,0,2.2,0.5,2.9,1.1l-1,1.4c-0.5-0.5-1.1-0.8-1.8-0.8c-1.7,0-2.8,1.4-2.8,3.5
							s1.1,3.5,2.8,3.5c0.8,0,1.6-0.4,2.2-0.9L517,20c-0.9,0.8-2.1,1.2-3.2,1.2C511.1,21.2,509.1,19.3,509.1,16.1z"/>
						<path d="M518.3,18.4c0-2.1,1.8-3.2,5.9-3.7c0-1.2-0.4-2.2-1.9-2.2c-1,0-2,0.5-2.9,1l-0.8-1.4c1-0.6,2.4-1.3,4-1.3
							c2.5,0,3.6,1.6,3.6,4.2v6h-1.7l-0.2-1.1h-0.1c-0.9,0.8-2,1.4-3.2,1.4C519.5,21.2,518.3,20.1,518.3,18.4z M524.2,18.4V16
							c-2.9,0.4-3.9,1.1-3.9,2.2c0,1,0.7,1.4,1.5,1.4C522.7,19.6,523.4,19.2,524.2,18.4z"/>
						<path d="M529.2,11.1h1.7l0.2,1.4h0.1c0.9-0.9,1.9-1.6,3.3-1.6c2.1,0,3,1.4,3,3.9V21h-2.1v-6c0-1.7-0.5-2.4-1.7-2.4
							c-0.9,0-1.5,0.5-2.4,1.3v7h-2.1V11.1z"/>
						<path d="M539.8,16.1c0-3.3,2.3-5.2,4.9-5.2c1.3,0,2.2,0.5,2.9,1.1l-1,1.4c-0.5-0.5-1.1-0.8-1.8-0.8c-1.7,0-2.8,1.4-2.8,3.5
							s1.1,3.5,2.8,3.5c0.8,0,1.6-0.4,2.2-0.9l0.8,1.4c-0.9,0.8-2.1,1.2-3.2,1.2C541.8,21.2,539.8,19.3,539.8,16.1z"/>
						<path d="M548.6,16.1c0-3.2,2.2-5.2,4.5-5.2c2.6,0,4,1.9,4,4.7c0,0.4,0,0.8-0.1,1h-6.4c0.2,1.9,1.3,3,3.1,3
							c0.9,0,1.6-0.3,2.4-0.7l0.7,1.3c-0.9,0.6-2.1,1-3.3,1C550.8,21.2,548.6,19.3,548.6,16.1z M555.4,15.2c0-1.7-0.8-2.7-2.2-2.7
							c-1.2,0-2.3,1-2.5,2.7H555.4z"/>
						<path d="M559.5,11.1h1.7l0.2,1.8h0.1c0.7-1.3,1.7-2,2.8-2c0.5,0,0.8,0.1,1.1,0.2l-0.4,1.8c-0.3-0.1-0.6-0.2-1-0.2
							c-0.8,0-1.8,0.6-2.4,2.1V21h-2.1L559.5,11.1L559.5,11.1z"/>
						<path d="M564.9,23.4c1.2-0.5,1.9-1.4,2-2.5c-0.1,0-0.1,0-0.2,0c-0.7,0-1.4-0.5-1.4-1.3s0.6-1.3,1.4-1.3c1,0,1.6,0.8,1.6,2.2
							c0,1.9-1.1,3.3-3,4.1L564.9,23.4z"/>
						<path d="M574.9,11.1h1.7l0.2,1.1h0.1c0.9-0.7,1.9-1.3,3-1.3c2.5,0,3.9,2,3.9,5c0,3.4-2,5.3-4.3,5.3c-0.9,0-1.8-0.4-2.6-1.1
							l0.1,1.7V25h-2.1L574.9,11.1L574.9,11.1z M581.6,15.9c0-2.1-0.7-3.3-2.3-3.3c-0.8,0-1.5,0.4-2.4,1.2v4.8
							c0.8,0.7,1.5,0.9,2.2,0.9C580.6,19.5,581.6,18.2,581.6,15.9z"/>
						<path d="M586.2,11.1h1.7l0.2,1.8h0.1c0.7-1.3,1.7-2,2.8-2c0.5,0,0.8,0.1,1.1,0.2l-0.4,1.8c-0.3-0.1-0.6-0.2-1-0.2
							c-0.8,0-1.8,0.6-2.4,2.1V21h-2.1L586.2,11.1L586.2,11.1z"/>
						<path d="M592.7,16.1c0-3.3,2.2-5.2,4.7-5.2c2.4,0,4.7,1.9,4.7,5.2s-2.2,5.2-4.7,5.2C594.9,21.2,592.7,19.3,592.7,16.1z
							 M599.9,16.1c0-2.1-1-3.5-2.5-3.5s-2.5,1.4-2.5,3.5s1,3.5,2.5,3.5C598.9,19.5,599.9,18.2,599.9,16.1z"/>
						<path d="M603.4,19.9l1-1.3c0.9,0.7,1.7,1.1,2.8,1.1c1.2,0,1.7-0.6,1.7-1.3c0-0.9-1.1-1.3-2.2-1.7c-1.3-0.5-2.8-1.2-2.8-2.9
							s1.3-2.9,3.5-2.9c1.3,0,2.4,0.5,3.2,1.2l-1,1.3c-0.7-0.5-1.4-0.9-2.2-0.9c-1.1,0-1.6,0.5-1.6,1.2c0,0.8,1,1.2,2.1,1.6
							c1.4,0.5,2.9,1.1,2.9,3c0,1.7-1.3,3-3.8,3C605.7,21.2,604.3,20.7,603.4,19.9z"/>
						<path d="M613,17.8v-5h-1.4v-1.5l1.5-0.1l0.2-2.7h1.7v2.7h2.6v1.7H615v5c0,1.2,0.4,1.8,1.4,1.8c0.3,0,0.8-0.1,1.1-0.2l0.4,1.5
							c-0.6,0.2-1.2,0.4-1.9,0.4C613.8,21.2,613,19.8,613,17.8z"/>
						<path d="M618.8,18.4c0-2.1,1.8-3.2,5.9-3.7c0-1.2-0.4-2.2-1.9-2.2c-1,0-2,0.5-2.9,1l-0.8-1.4c1-0.6,2.4-1.3,4-1.3
							c2.5,0,3.6,1.6,3.6,4.2v6H625l-0.2-1.1h-0.1c-0.9,0.8-2,1.4-3.2,1.4C620,21.2,618.8,20.1,618.8,18.4z M624.7,18.4V16
							c-2.9,0.4-3.9,1.1-3.9,2.2c0,1,0.7,1.4,1.5,1.4C623.2,19.6,623.9,19.2,624.7,18.4z"/>
						<path d="M629.7,17.8v-5h-1.4v-1.5l1.5-0.1l0.2-2.7h1.7v2.7h2.6v1.7h-2.6v5c0,1.2,0.4,1.8,1.4,1.8c0.3,0,0.8-0.1,1.1-0.2
							l0.4,1.5c-0.6,0.2-1.2,0.4-1.9,0.4C630.5,21.2,629.7,19.8,629.7,17.8z"/>
						<path d="M635.5,16.1c0-3.2,2.2-5.2,4.5-5.2c2.6,0,4,1.9,4,4.7c0,0.4,0,0.8-0.1,1h-6.4c0.2,1.9,1.3,3,3.1,3
							c0.9,0,1.6-0.3,2.4-0.7l0.7,1.3c-0.9,0.6-2.1,1-3.3,1C637.7,21.2,635.5,19.3,635.5,16.1z M642.3,15.2c0-1.7-0.8-2.7-2.2-2.7
							c-1.2,0-2.3,1-2.5,2.7H642.3z"/>
						<path d="M649.7,16.1c0-3.3,2.3-5.2,4.9-5.2c1.3,0,2.2,0.5,2.9,1.1l-1,1.4c-0.5-0.5-1.1-0.8-1.8-0.8c-1.7,0-2.8,1.4-2.8,3.5
							s1.1,3.5,2.8,3.5c0.8,0,1.6-0.4,2.2-0.9l0.8,1.4c-0.9,0.8-2.1,1.2-3.2,1.2C651.8,21.2,649.7,19.3,649.7,16.1z"/>
						<path d="M659,18.4c0-2.1,1.8-3.2,5.9-3.7c0-1.2-0.4-2.2-1.9-2.2c-1,0-2,0.5-2.9,1l-0.8-1.4c1-0.6,2.4-1.3,4-1.3
							c2.5,0,3.6,1.6,3.6,4.2v6h-1.7l-0.2-1.1h0c-0.9,0.8-2,1.4-3.2,1.4C660.2,21.2,659,20.1,659,18.4z M664.9,18.4V16
							c-2.9,0.4-3.9,1.1-3.9,2.2c0,1,0.7,1.4,1.5,1.4C663.4,19.6,664.1,19.2,664.9,18.4z"/>
						<path d="M669.9,11.1h1.7l0.2,1.4h0.1c0.9-0.9,1.9-1.6,3.3-1.6c2.1,0,3,1.4,3,3.9V21h-2.1v-6c0-1.7-0.5-2.4-1.7-2.4
							c-0.9,0-1.5,0.5-2.4,1.3v7h-2.1V11.1z"/>
						<path d="M680.4,16.1c0-3.3,2.3-5.2,4.9-5.2c1.3,0,2.2,0.5,2.9,1.1l-1,1.4c-0.5-0.5-1.1-0.8-1.8-0.8c-1.7,0-2.8,1.4-2.8,3.5
							s1.1,3.5,2.8,3.5c0.8,0,1.6-0.4,2.2-0.9l0.8,1.4c-0.9,0.8-2.1,1.2-3.2,1.2C682.5,21.2,680.4,19.3,680.4,16.1z"/>
						<path d="M689.3,16.1c0-3.2,2.2-5.2,4.5-5.2c2.6,0,4,1.9,4,4.7c0,0.4,0,0.8-0.1,1h-6.4c0.2,1.9,1.3,3,3.1,3
							c0.9,0,1.6-0.3,2.4-0.7l0.7,1.3c-0.9,0.6-2.1,1-3.3,1C691.4,21.2,689.3,19.3,689.3,16.1z M696,15.2c0-1.7-0.8-2.7-2.2-2.7
							c-1.2,0-2.3,1-2.5,2.7H696z"/>
						<path d="M700.1,11.1h1.7l0.2,1.8h0.1c0.7-1.3,1.7-2,2.8-2c0.5,0,0.8,0.1,1.1,0.2l-0.4,1.8c-0.3-0.1-0.6-0.2-1-0.2
							c-0.8,0-1.8,0.6-2.4,2.1V21h-2.1L700.1,11.1L700.1,11.1z"/>
						<path d="M705.5,23.4c1.2-0.5,1.9-1.4,2-2.5c-0.1,0-0.1,0-0.2,0c-0.7,0-1.4-0.5-1.4-1.3s0.6-1.3,1.4-1.3c1,0,1.6,0.8,1.6,2.2
							c0,1.9-1.1,3.3-3,4.1L705.5,23.4z"/>
						<path d="M715.7,7.7h2.1l4.4,7.8l1.4,2.8h0.1c-0.1-1.4-0.3-3-0.3-4.4V7.7h2V21h-2.1l-4.4-7.8l-1.4-2.8h-0.1
							c0.1,1.4,0.3,2.9,0.3,4.3V21h-2V7.7z"/>
						<path d="M728,19.3l1.2-1.4c1,1,2.3,1.6,3.5,1.6c1.6,0,2.5-0.8,2.5-1.9c0-1.2-0.9-1.6-2.1-2.1l-1.8-0.8
							c-1.3-0.5-2.7-1.5-2.7-3.5c0-2.1,1.8-3.7,4.4-3.7c1.5,0,3,0.6,4,1.7l-1.1,1.3c-0.8-0.7-1.7-1.2-2.9-1.2
							c-1.4,0-2.2,0.6-2.2,1.7s1.1,1.6,2.1,2l1.8,0.8c1.6,0.7,2.7,1.6,2.7,3.6c0,2.1-1.8,3.9-4.7,3.9
							C730.9,21.2,729.2,20.5,728,19.3z"/>
						<path d="M739.2,14.4c0-4.3,2.6-6.9,6-6.9c1.7,0,3,0.8,3.8,1.7l-1.1,1.3c-0.7-0.7-1.5-1.2-2.6-1.2c-2.3,0-3.9,1.9-3.9,5
							c0,3.2,1.5,5.1,3.8,5.1c1.2,0,2.1-0.5,2.9-1.4l1.1,1.3c-1.1,1.2-2.4,1.9-4.1,1.9C741.7,21.2,739.2,18.7,739.2,14.4z"/>
						<path d="M751.5,7.7h2.1v11.5h5.6V21h-7.7L751.5,7.7L751.5,7.7z"/>
						<path d="M760.2,14.4c0-4.3,2.6-6.9,6-6.9c1.7,0,3,0.8,3.8,1.7l-1.1,1.3c-0.7-0.7-1.5-1.2-2.6-1.2c-2.3,0-3.9,1.9-3.9,5
							c0,3.2,1.5,5.1,3.8,5.1c1.2,0,2.1-0.5,2.9-1.4l1.1,1.3c-1.1,1.2-2.4,1.9-4.1,1.9C762.8,21.2,760.2,18.7,760.2,14.4z"/>
						<path d="M771.8,23.4c1.2-0.5,1.9-1.4,2-2.5c-0.1,0-0.1,0-0.2,0c-0.7,0-1.4-0.5-1.4-1.3s0.6-1.3,1.4-1.3c1,0,1.6,0.8,1.6,2.2
							c0,1.9-1.1,3.3-3,4.1L771.8,23.4z"/>
						<path d="M781.1,22.8c0-0.8,0.5-1.6,1.4-2.2v-0.1c-0.5-0.3-0.9-0.8-0.9-1.6c0-0.8,0.6-1.4,1.1-1.8V17c-0.7-0.5-1.3-1.5-1.3-2.6
							c0-2.3,1.8-3.6,3.8-3.6c0.6,0,1.1,0.1,1.4,0.3h3.5v1.5h-1.9c0.4,0.4,0.6,1.1,0.6,1.8c0,2.2-1.6,3.4-3.7,3.4
							c-0.5,0-1-0.1-1.4-0.3c-0.3,0.3-0.5,0.6-0.5,1c0,0.6,0.4,1,1.7,1h1.8c2.3,0,3.6,0.7,3.6,2.4c0,1.9-2,3.5-5.2,3.5
							C782.8,25.4,781.1,24.6,781.1,22.8z M788.4,22.3c0-0.8-0.6-1.1-1.9-1.1H785c-0.5,0-0.9-0.1-1.3-0.1c-0.6,0.4-0.8,0.9-0.8,1.4
							c0,1,1,1.5,2.6,1.5C787.2,24.1,788.4,23.2,788.4,22.3z M787.1,14.4c0-1.3-0.8-2.1-1.9-2.1s-1.9,0.8-1.9,2.1s0.8,2.1,1.9,2.1
							S787.1,15.7,787.1,14.4z"/>
						<path d="M791.3,18.4c0-2.1,1.8-3.2,5.9-3.7c0-1.2-0.4-2.2-1.9-2.2c-1,0-2,0.5-2.9,1l-0.8-1.4c1-0.6,2.4-1.3,4-1.3
							c2.5,0,3.6,1.6,3.6,4.2v6h-1.7l-0.2-1.1h-0.1c-0.9,0.8-2,1.4-3.2,1.4C792.5,21.2,791.3,20.1,791.3,18.4z M797.2,18.4V16
							c-2.9,0.4-3.9,1.1-3.9,2.2c0,1,0.7,1.4,1.5,1.4C795.7,19.6,796.4,19.2,797.2,18.4z"/>
						<path d="M801.2,19.9l1-1.3c0.9,0.7,1.7,1.1,2.8,1.1c1.2,0,1.7-0.6,1.7-1.3c0-0.9-1.1-1.3-2.2-1.7c-1.3-0.5-2.8-1.2-2.8-2.9
							s1.3-2.9,3.5-2.9c1.3,0,2.4,0.5,3.2,1.2l-1,1.3c-0.7-0.5-1.4-0.9-2.2-0.9c-1.1,0-1.6,0.5-1.6,1.2c0,0.8,1,1.2,2.1,1.6
							c1.4,0.5,2.9,1.1,2.9,3c0,1.7-1.3,3-3.8,3C803.5,21.2,802.1,20.7,801.2,19.9z"/>
						<path d="M810.8,17.8v-5h-1.4v-1.5l1.5-0.1l0.2-2.7h1.7v2.7h2.6v1.7h-2.6v5c0,1.2,0.4,1.8,1.4,1.8c0.3,0,0.8-0.1,1.1-0.2
							l0.4,1.5c-0.6,0.2-1.2,0.4-1.9,0.4C811.6,21.2,810.8,19.8,810.8,17.8z"/>
						<path d="M817.6,11.1h1.7l0.2,1.8h0.1c0.7-1.3,1.7-2,2.8-2c0.5,0,0.8,0.1,1.1,0.2l-0.4,1.8c-0.3-0.1-0.6-0.2-1-0.2
							c-0.8,0-1.8,0.6-2.4,2.1V21h-2.1L817.6,11.1L817.6,11.1z"/>
						<path d="M824.7,8c0-0.7,0.6-1.2,1.3-1.2s1.3,0.5,1.3,1.2s-0.6,1.2-1.3,1.2S824.7,8.7,824.7,8z M825,11.1h2.1V21H825V11.1z"/>
						<path d="M829.4,16.1c0-3.3,2.3-5.2,4.9-5.2c1.3,0,2.2,0.5,2.9,1.1l-1,1.4c-0.5-0.5-1.1-0.8-1.8-0.8c-1.7,0-2.8,1.4-2.8,3.5
							s1.1,3.5,2.8,3.5c0.8,0,1.6-0.4,2.2-0.9l0.8,1.4c-0.9,0.8-2.1,1.2-3.2,1.2C831.5,21.2,829.4,19.3,829.4,16.1z"/>
						<path d="M842.8,16.1c0-3.3,2.3-5.2,4.9-5.2c1.3,0,2.2,0.5,2.9,1.1l-1,1.4c-0.5-0.5-1.1-0.8-1.8-0.8c-1.7,0-2.8,1.4-2.8,3.5
							s1.1,3.5,2.8,3.5c0.8,0,1.6-0.4,2.2-0.9l0.8,1.4c-0.9,0.8-2.1,1.2-3.2,1.2C844.8,21.2,842.8,19.3,842.8,16.1z"/>
						<path d="M852,18.4c0-2.1,1.8-3.2,5.9-3.7c0-1.2-0.4-2.2-1.9-2.2c-1,0-2,0.5-2.9,1l-0.8-1.4c1-0.6,2.4-1.3,4-1.3
							c2.5,0,3.6,1.6,3.6,4.2v6h-1.7l-0.2-1.1h-0.1c-0.9,0.8-2,1.4-3.2,1.4C853.2,21.2,852,20.1,852,18.4z M857.9,18.4V16
							c-2.9,0.4-3.9,1.1-3.9,2.2c0,1,0.7,1.4,1.5,1.4C856.4,19.6,857.1,19.2,857.9,18.4z"/>
						<path d="M862.9,11.1h1.7l0.2,1.4h0.1c0.9-0.9,1.9-1.6,3.3-1.6c2.1,0,3,1.4,3,3.9V21h-2.1v-6c0-1.7-0.5-2.4-1.7-2.4
							c-0.9,0-1.5,0.5-2.4,1.3v7h-2.1V11.1z"/>
						<path d="M873.5,16.1c0-3.3,2.3-5.2,4.9-5.2c1.3,0,2.2,0.5,2.9,1.1l-1,1.4c-0.5-0.5-1.1-0.8-1.8-0.8c-1.7,0-2.8,1.4-2.8,3.5
							s1.1,3.5,2.8,3.5c0.8,0,1.6-0.4,2.2-0.9l0.8,1.4c-0.9,0.8-2.1,1.2-3.2,1.2C875.5,21.2,873.5,19.3,873.5,16.1z"/>
						<path d="M882.3,16.1c0-3.2,2.2-5.2,4.5-5.2c2.6,0,4,1.9,4,4.7c0,0.4,0,0.8-0.1,1h-6.4c0.2,1.9,1.4,3,3.1,3
							c0.9,0,1.6-0.3,2.4-0.7l0.7,1.3c-0.9,0.6-2.1,1-3.3,1C884.5,21.2,882.3,19.3,882.3,16.1z M889.1,15.2c0-1.7-0.8-2.7-2.2-2.7
							c-1.2,0-2.3,1-2.5,2.7H889.1z"/>
						<path d="M893.2,11.1h1.7l0.2,1.8h0.1c0.7-1.3,1.7-2,2.8-2c0.5,0,0.8,0.1,1.1,0.2l-0.4,1.8c-0.3-0.1-0.6-0.2-1-0.2
							c-0.8,0-1.8,0.6-2.4,2.1V21h-2.1L893.2,11.1L893.2,11.1z"/>
					</g>
					<path id="divider" class="st3" d="M0,42.5h1000"/>
				</g>
				<g id="cell2" transform="translate(0.000000, 123.000000)">
					<g class="st1">
						<path d="M95.8,7.7h2.8l1.8,6.5c0.4,1.5,0.7,2.8,1.1,4.3h0.1c0.4-1.5,0.7-2.8,1.1-4.3l1.7-6.5h2.7L103,21h-3.2L95.8,7.7z"/>
						<path d="M108.6,7.7h3l2.3,6.2c0.3,0.8,0.5,1.7,0.8,2.6h0.1c0.3-0.9,0.5-1.7,0.8-2.6l2.2-6.2h3V21h-2.4v-5.6
							c0-1.3,0.2-3.1,0.3-4.4h-0.1l-1.1,3.1l-2.1,5.6h-1.5l-2.1-5.6l-1.1-3.1h-0.1c0.1,1.3,0.3,3.1,0.3,4.4V21h-2.4L108.6,7.7
							L108.6,7.7z"/>
						<path d="M123.2,17.7c0-1.7,1-2.8,2.3-3.5v-0.1c-1-0.7-1.8-1.7-1.8-3.2c0-2.1,1.7-3.5,4-3.5c2.4,0,3.9,1.4,3.9,3.5
							c0,1.3-0.8,2.4-1.7,3V14c1.2,0.7,2.2,1.7,2.2,3.6c0,2-1.8,3.6-4.5,3.6C125.1,21.3,123.2,19.8,123.2,17.7z M129.7,17.6
							c0-1.4-1.2-2-3-2.7c-0.7,0.6-1.2,1.5-1.2,2.5c0,1.2,1,2,2.2,2C128.8,19.4,129.7,18.7,129.7,17.6z M129.4,11.2
							c0-1.1-0.6-1.9-1.8-1.9c-0.9,0-1.6,0.6-1.6,1.7c0,1.3,1,1.9,2.4,2.4C129.1,12.7,129.4,11.9,129.4,11.2z"/>
						<path d="M133.7,14.3c0-4.6,1.8-6.9,4.5-6.9s4.5,2.3,4.5,6.9s-1.8,7-4.5,7S133.7,18.9,133.7,14.3z M140.3,14.3
							c0-3.7-0.9-4.8-2-4.8c-1.2,0-2,1.1-2,4.8s0.9,4.9,2,4.9C139.4,19.2,140.3,18,140.3,14.3z"/>
						<path d="M144,19.4l1.2-1.7c0.8,0.8,1.8,1.4,3,1.4c1.4,0,2.3-0.7,2.3-1.9c0-1.3-0.8-2.1-3.7-2.1v-1.9c2.4,0,3.2-0.8,3.2-2
							c0-1-0.6-1.7-1.8-1.7c-1,0-1.7,0.5-2.5,1.2l-1.4-1.6c1.2-1,2.4-1.6,4-1.6c2.6,0,4.3,1.3,4.3,3.5c0,1.4-0.8,2.5-2.2,3v0.1
							c1.5,0.4,2.7,1.5,2.7,3.3c0,2.4-2.1,3.9-4.7,3.9C146.4,21.3,145,20.5,144,19.4z"/>
					</g>
					<g class="st1">
						<path d="M286.5,16.1c0-3.3,2.2-5.2,4.7-5.2s4.7,1.9,4.7,5.2s-2.2,5.2-4.7,5.2S286.5,19.3,286.5,16.1z M293.7,16.1
							c0-2.1-1-3.5-2.5-3.5s-2.5,1.4-2.5,3.5s1,3.5,2.5,3.5C292.7,19.5,293.7,18.2,293.7,16.1z"/>
						<path d="M296.8,11.1h2.1l1.7,5.3c0.3,1,0.6,2,0.9,3h0.1c0.3-1,0.6-2,0.9-3l1.7-5.3h2l-3.4,9.9h-2.4L296.8,11.1z"/>
						<path d="M307,18.4c0-2.1,1.8-3.2,5.9-3.7c0-1.2-0.4-2.2-1.9-2.2c-1,0-2,0.5-2.9,1l-0.8-1.4c1-0.6,2.4-1.3,4-1.3
							c2.5,0,3.6,1.6,3.6,4.2v6h-1.7l-0.2-1.1l0,0c-0.9,0.8-2,1.4-3.2,1.4C308.2,21.2,307,20.1,307,18.4z M312.9,18.4V16
							c-2.9,0.4-3.9,1.1-3.9,2.2c0,1,0.7,1.4,1.5,1.4C311.4,19.6,312.1,19.2,312.9,18.4z"/>
						<path d="M317.9,11.1h1.7l0.2,1.8h0.1c0.7-1.3,1.7-2,2.8-2c0.5,0,0.8,0.1,1.1,0.2l-0.4,1.8c-0.3-0.1-0.6-0.2-1-0.2
							c-0.8,0-1.8,0.6-2.4,2.1V21h-2.1L317.9,11.1L317.9,11.1z"/>
						<path d="M325,8c0-0.7,0.6-1.2,1.3-1.2s1.3,0.5,1.3,1.2s-0.6,1.2-1.3,1.2S325,8.7,325,8z M325.3,11.1h2.1V21h-2.1V11.1z"/>
						<path d="M329.9,18.4c0-2.1,1.8-3.2,5.9-3.7c0-1.2-0.4-2.2-1.9-2.2c-1,0-2,0.5-2.9,1l-0.8-1.4c1-0.6,2.4-1.3,4-1.3
							c2.5,0,3.6,1.6,3.6,4.2v6h-1.7l-0.2-1.1h-0.1c-0.9,0.8-2,1.4-3.2,1.4C331.1,21.2,329.9,20.1,329.9,18.4z M335.8,18.4V16
							c-2.9,0.4-3.9,1.1-3.9,2.2c0,1,0.7,1.4,1.5,1.4C334.3,19.6,335,19.2,335.8,18.4z"/>
						<path d="M340.8,11.1h1.7l0.2,1.4h0.1c0.9-0.9,1.9-1.6,3.3-1.6c2.1,0,3,1.4,3,3.9V21H347v-6c0-1.7-0.5-2.4-1.7-2.4
							c-0.9,0-1.5,0.5-2.4,1.3v7h-2.1V11.1z"/>
						<path d="M355.4,16.1c0-3.3,2.3-5.2,4.9-5.2c1.3,0,2.2,0.5,2.9,1.1l-1,1.4c-0.5-0.5-1.1-0.8-1.8-0.8c-1.7,0-2.8,1.4-2.8,3.5
							s1.1,3.5,2.8,3.5c0.8,0,1.6-0.4,2.2-0.9l0.8,1.4c-0.9,0.8-2.1,1.2-3.2,1.2C357.4,21.2,355.4,19.3,355.4,16.1z"/>
						<path d="M364.6,18.4c0-2.1,1.8-3.2,5.9-3.7c0-1.2-0.4-2.2-1.9-2.2c-1,0-2,0.5-2.9,1l-0.8-1.4c1-0.6,2.4-1.3,4-1.3
							c2.5,0,3.6,1.6,3.6,4.2v6h-1.7l-0.2-1.1h-0.1c-0.9,0.8-2,1.4-3.2,1.4C365.8,21.2,364.6,20.1,364.6,18.4z M370.5,18.4V16
							c-2.9,0.4-3.9,1.1-3.9,2.2c0,1,0.7,1.4,1.5,1.4C369,19.6,369.7,19.2,370.5,18.4z"/>
						<path d="M375.5,11.1h1.7l0.2,1.4h0.1c0.9-0.9,1.9-1.6,3.3-1.6c2.1,0,3,1.4,3,3.9V21h-2.1v-6c0-1.7-0.5-2.4-1.7-2.4
							c-0.9,0-1.5,0.5-2.4,1.3v7h-2.1V11.1z"/>
						<path d="M386,16.1c0-3.3,2.3-5.2,4.9-5.2c1.3,0,2.2,0.5,2.9,1.1l-1,1.4c-0.5-0.5-1.1-0.8-1.8-0.8c-1.7,0-2.8,1.4-2.8,3.5
							s1.1,3.5,2.8,3.5c0.8,0,1.6-0.4,2.2-0.9L394,20c-0.9,0.8-2.1,1.2-3.2,1.2C388.1,21.2,386,19.3,386,16.1z"/>
						<path d="M394.9,16.1c0-3.2,2.2-5.2,4.5-5.2c2.6,0,4,1.9,4,4.7c0,0.4,0,0.8-0.1,1h-6.4c0.2,1.9,1.4,3,3.1,3
							c0.9,0,1.6-0.3,2.4-0.7l0.7,1.3c-0.9,0.6-2.1,1-3.3,1C397,21.2,394.9,19.3,394.9,16.1z M401.7,15.2c0-1.7-0.8-2.7-2.2-2.7
							c-1.2,0-2.3,1-2.5,2.7H401.7z"/>
						<path d="M405.8,11.1h1.7l0.2,1.8h0.1c0.7-1.3,1.7-2,2.8-2c0.5,0,0.8,0.1,1.1,0.2l-0.4,1.8c-0.3-0.1-0.6-0.2-1-0.2
							c-0.8,0-1.8,0.6-2.4,2.1V21h-2.1L405.8,11.1L405.8,11.1z"/>
						<path d="M411.2,23.4c1.2-0.5,1.9-1.4,2-2.5c-0.1,0-0.1,0-0.2,0c-0.7,0-1.4-0.5-1.4-1.3s0.6-1.3,1.4-1.3c1,0,1.6,0.8,1.6,2.2
							c0,1.9-1.1,3.3-3,4.1L411.2,23.4z"/>
						<path d="M420.5,16.1c0-3.3,2.3-5.2,4.9-5.2c1.3,0,2.2,0.5,2.9,1.1l-1,1.4c-0.5-0.5-1.1-0.8-1.8-0.8c-1.7,0-2.8,1.4-2.8,3.5
							s1.1,3.5,2.8,3.5c0.8,0,1.6-0.4,2.2-0.9l0.8,1.4c-0.9,0.8-2.1,1.2-3.2,1.2C422.5,21.2,420.5,19.3,420.5,16.1z"/>
						<path d="M429.3,16.1c0-3.3,2.2-5.2,4.7-5.2s4.7,1.9,4.7,5.2s-2.2,5.2-4.7,5.2S429.3,19.3,429.3,16.1z M436.5,16.1
							c0-2.1-1-3.5-2.5-3.5s-2.5,1.4-2.5,3.5s1,3.5,2.5,3.5C435.5,19.5,436.5,18.2,436.5,16.1z"/>
						<path d="M441.1,18.7v-12h2.1v12.1c0,0.6,0.3,0.8,0.5,0.8c0.1,0,0.2,0,0.3,0l0.3,1.6c-0.3,0.1-0.6,0.2-1.1,0.2
							C441.6,21.2,441.1,20.3,441.1,18.7z"/>
						<path d="M445.7,16.1c0-3.3,2.2-5.2,4.7-5.2c2.4,0,4.7,1.9,4.7,5.2s-2.2,5.2-4.7,5.2C447.9,21.2,445.7,19.3,445.7,16.1z
							 M452.9,16.1c0-2.1-1-3.5-2.5-3.5s-2.5,1.4-2.5,3.5s1,3.5,2.5,3.5C452,19.5,452.9,18.2,452.9,16.1z"/>
						<path d="M457.5,11.1h1.7l0.2,1.8h0.1c0.7-1.3,1.7-2,2.8-2c0.5,0,0.8,0.1,1.1,0.2l-0.4,1.8c-0.3-0.1-0.6-0.2-1-0.2
							c-0.8,0-1.8,0.6-2.4,2.1V21h-2.1L457.5,11.1L457.5,11.1z"/>
						<path d="M463.9,16.1c0-3.2,2.2-5.2,4.5-5.2c2.6,0,4,1.9,4,4.7c0,0.4,0,0.8-0.1,1H466c0.2,1.9,1.4,3,3.1,3
							c0.9,0,1.6-0.3,2.4-0.7l0.7,1.3c-0.9,0.6-2.1,1-3.3,1C466.1,21.2,463.9,19.3,463.9,16.1z M470.7,15.2c0-1.7-0.8-2.7-2.2-2.7
							c-1.2,0-2.3,1-2.5,2.7H470.7z"/>
						<path d="M474.1,16.1c0-3.3,2.3-5.2,4.9-5.2c1.3,0,2.2,0.5,2.9,1.1l-1,1.4c-0.5-0.5-1.1-0.8-1.8-0.8c-1.7,0-2.8,1.4-2.8,3.5
							s1.1,3.5,2.8,3.5c0.8,0,1.6-0.4,2.2-0.9l0.8,1.4c-0.9,0.8-2.1,1.2-3.2,1.2C476.2,21.2,474.1,19.3,474.1,16.1z"/>
						<path d="M484.3,17.8v-5h-1.4v-1.5l1.5-0.1l0.2-2.7h1.7v2.7h2.6v1.7h-2.6v5c0,1.2,0.4,1.8,1.4,1.8c0.3,0,0.8-0.1,1.1-0.2
							l0.4,1.5c-0.6,0.2-1.2,0.4-1.9,0.4C485,21.2,484.3,19.8,484.3,17.8z"/>
						<path d="M490,18.4c0-2.1,1.8-3.2,5.9-3.7c0-1.2-0.4-2.2-1.9-2.2c-1,0-2,0.5-2.9,1l-0.8-1.4c1-0.6,2.4-1.3,4-1.3
							c2.5,0,3.6,1.6,3.6,4.2v6h-1.7l-0.2-1.1h-0.1c-0.9,0.8-2,1.4-3.2,1.4C491.3,21.2,490,20.1,490,18.4z M496,18.4V16
							c-2.9,0.4-3.9,1.1-3.9,2.2c0,1,0.7,1.4,1.5,1.4C494.5,19.6,495.2,19.2,496,18.4z"/>
						<path d="M501,18.7v-12h2.1v12.1c0,0.6,0.3,0.8,0.5,0.8c0.1,0,0.2,0,0.3,0l0.3,1.6c-0.3,0.1-0.6,0.2-1.1,0.2
							C501.5,21.2,501,20.3,501,18.7z"/>
						<path d="M509.7,16.1c0-3.3,2.3-5.2,4.9-5.2c1.3,0,2.2,0.5,2.9,1.1l-1,1.4c-0.5-0.5-1.1-0.8-1.8-0.8c-1.7,0-2.8,1.4-2.8,3.5
							s1.1,3.5,2.8,3.5c0.8,0,1.6-0.4,2.2-0.9l0.8,1.4c-0.9,0.8-2.1,1.2-3.2,1.2C511.7,21.2,509.7,19.3,509.7,16.1z"/>
						<path d="M518.9,18.4c0-2.1,1.8-3.2,5.9-3.7c0-1.2-0.4-2.2-1.9-2.2c-1,0-2,0.5-2.9,1l-0.8-1.4c1-0.6,2.4-1.3,4-1.3
							c2.5,0,3.6,1.6,3.6,4.2v6h-1.7l-0.2-1.1h0.1c-0.9,0.8-2,1.4-3.2,1.4C520.1,21.2,518.9,20.1,518.9,18.4z M524.8,18.4V16
							c-2.9,0.4-3.9,1.1-3.9,2.2c0,1,0.7,1.4,1.5,1.4C523.3,19.6,524,19.2,524.8,18.4z"/>
						<path d="M529.8,11.1h1.7l0.2,1.4h0.1c0.9-0.9,1.9-1.6,3.3-1.6c2.1,0,3,1.4,3,3.9V21H536v-6c0-1.7-0.5-2.4-1.7-2.4
							c-0.9,0-1.5,0.5-2.4,1.3v7h-2.1V11.1z"/>
						<path d="M540.4,16.1c0-3.3,2.3-5.2,4.9-5.2c1.3,0,2.2,0.5,2.9,1.1l-1,1.4c-0.5-0.5-1.1-0.8-1.8-0.8c-1.7,0-2.8,1.4-2.8,3.5
							s1.1,3.5,2.8,3.5c0.8,0,1.6-0.4,2.2-0.9l0.8,1.4c-0.9,0.8-2.1,1.2-3.2,1.2C542.4,21.2,540.4,19.3,540.4,16.1z"/>
						<path d="M549.2,16.1c0-3.2,2.2-5.2,4.5-5.2c2.6,0,4,1.9,4,4.7c0,0.4,0,0.8-0.1,1h-6.4c0.2,1.9,1.4,3,3.1,3
							c0.9,0,1.6-0.3,2.4-0.7l0.7,1.3c-0.9,0.6-2.1,1-3.3,1C551.4,21.2,549.2,19.3,549.2,16.1z M556,15.2c0-1.7-0.8-2.7-2.2-2.7
							c-1.2,0-2.3,1-2.5,2.7H556z"/>
						<path d="M560.1,11.1h1.7l0.2,1.8h0.1c0.7-1.3,1.7-2,2.8-2c0.5,0,0.8,0.1,1.1,0.2l-0.4,1.8c-0.3-0.1-0.6-0.2-1-0.2
							c-0.8,0-1.8,0.6-2.4,2.1V21h-2.1L560.1,11.1L560.1,11.1z"/>
						<path d="M565.5,23.4c1.2-0.5,1.9-1.4,2-2.5c-0.1,0-0.1,0-0.2,0c-0.7,0-1.4-0.5-1.4-1.3s0.6-1.3,1.4-1.3c1,0,1.6,0.8,1.6,2.2
							c0,1.9-1.1,3.3-3,4.1L565.5,23.4z"/>
						<path d="M575.5,11.1h1.7l0.2,1.1h0.1c0.9-0.7,1.9-1.3,3-1.3c2.5,0,3.9,2,3.9,5c0,3.4-2,5.3-4.3,5.3c-0.9,0-1.8-0.4-2.6-1.1
							l0.1,1.7V25h-2.1L575.5,11.1L575.5,11.1z M582.2,15.9c0-2.1-0.7-3.3-2.3-3.3c-0.8,0-1.5,0.4-2.4,1.2v4.8
							c0.8,0.7,1.5,0.9,2.2,0.9C581.2,19.5,582.2,18.2,582.2,15.9z"/>
						<path d="M586.9,11.1h1.7l0.2,1.8h0.1c0.7-1.3,1.7-2,2.8-2c0.5,0,0.8,0.1,1.1,0.2l-0.4,1.8c-0.3-0.1-0.6-0.2-1-0.2
							c-0.8,0-1.8,0.6-2.4,2.1V21h-2.1L586.9,11.1L586.9,11.1z"/>
						<path d="M593.3,16.1c0-3.3,2.2-5.2,4.7-5.2c2.4,0,4.7,1.9,4.7,5.2s-2.2,5.2-4.7,5.2C595.5,21.2,593.3,19.3,593.3,16.1z
							 M600.5,16.1c0-2.1-1-3.5-2.5-3.5s-2.5,1.4-2.5,3.5s1,3.5,2.5,3.5C599.5,19.5,600.5,18.2,600.5,16.1z"/>
						<path d="M604,19.9l1-1.3c0.9,0.7,1.7,1.1,2.8,1.1c1.2,0,1.7-0.6,1.7-1.3c0-0.9-1.1-1.3-2.2-1.7c-1.3-0.5-2.8-1.2-2.8-2.9
							s1.3-2.9,3.5-2.9c1.3,0,2.4,0.5,3.2,1.2l-1,1.3c-0.7-0.5-1.4-0.9-2.2-0.9c-1.1,0-1.6,0.5-1.6,1.2c0,0.8,1,1.2,2.1,1.6
							c1.4,0.5,2.9,1.1,2.9,3c0,1.7-1.3,3-3.8,3C606.3,21.2,604.9,20.7,604,19.9z"/>
						<path d="M613.6,17.8v-5h-1.4v-1.5l1.5-0.1l0.2-2.7h1.7v2.7h2.6v1.7h-2.6v5c0,1.2,0.4,1.8,1.4,1.8c0.3,0,0.8-0.1,1.1-0.2
							l0.4,1.5c-0.6,0.2-1.2,0.4-1.9,0.4C614.4,21.2,613.6,19.8,613.6,17.8z"/>
						<path d="M619.4,18.4c0-2.1,1.8-3.2,5.9-3.7c0-1.2-0.4-2.2-1.9-2.2c-1,0-2,0.5-2.9,1l-0.8-1.4c1-0.6,2.4-1.3,4-1.3
							c2.5,0,3.6,1.6,3.6,4.2v6h-1.7l-0.2-1.1h-0.1c-0.9,0.8-2,1.4-3.2,1.4C620.6,21.2,619.4,20.1,619.4,18.4z M625.3,18.4V16
							c-2.9,0.4-3.9,1.1-3.9,2.2c0,1,0.7,1.4,1.5,1.4C623.8,19.6,624.5,19.2,625.3,18.4z"/>
						<path d="M630.3,17.8v-5h-1.4v-1.5l1.5-0.1l0.2-2.7h1.7v2.7h2.6v1.7h-2.6v5c0,1.2,0.4,1.8,1.4,1.8c0.3,0,0.8-0.1,1.1-0.2
							l0.4,1.5c-0.6,0.2-1.2,0.4-1.9,0.4C631.1,21.2,630.3,19.8,630.3,17.8z"/>
						<path d="M636.1,16.1c0-3.2,2.2-5.2,4.5-5.2c2.6,0,4,1.9,4,4.7c0,0.4,0,0.8-0.1,1h-6.4c0.2,1.9,1.4,3,3.1,3
							c0.9,0,1.6-0.3,2.4-0.7l0.7,1.3c-0.9,0.6-2.1,1-3.3,1C638.3,21.2,636.1,19.3,636.1,16.1z M642.9,15.2c0-1.7-0.8-2.7-2.2-2.7
							c-1.2,0-2.3,1-2.5,2.7H642.9z"/>
						<path d="M650.3,16.1c0-3.3,2.3-5.2,4.9-5.2c1.3,0,2.2,0.5,2.9,1.1l-1,1.4c-0.5-0.5-1.1-0.8-1.8-0.8c-1.7,0-2.8,1.4-2.8,3.5
							s1.1,3.5,2.8,3.5c0.8,0,1.6-0.4,2.2-0.9l0.8,1.4c-0.9,0.8-2.1,1.2-3.2,1.2C652.4,21.2,650.3,19.3,650.3,16.1z"/>
						<path d="M659.6,18.4c0-2.1,1.8-3.2,5.9-3.7c0-1.2-0.4-2.2-1.9-2.2c-1,0-2,0.5-2.9,1l-0.8-1.4c1-0.6,2.4-1.3,4-1.3
							c2.5,0,3.6,1.6,3.6,4.2v6h-1.7l-0.2-1.1h-0.1c-0.9,0.8-2,1.4-3.2,1.4C660.8,21.2,659.6,20.1,659.6,18.4z M665.5,18.4V16
							c-2.9,0.4-3.9,1.1-3.9,2.2c0,1,0.7,1.4,1.5,1.4C664,19.6,664.7,19.2,665.5,18.4z"/>
						<path d="M670.5,11.1h1.7l0.2,1.4h0.1c0.9-0.9,1.9-1.6,3.3-1.6c2.1,0,3,1.4,3,3.9V21h-2.1v-6c0-1.7-0.5-2.4-1.7-2.4
							c-0.9,0-1.5,0.5-2.4,1.3v7h-2.1V11.1z"/>
						<path d="M681,16.1c0-3.3,2.3-5.2,4.9-5.2c1.3,0,2.2,0.5,2.9,1.1l-1,1.4c-0.5-0.5-1.1-0.8-1.8-0.8c-1.7,0-2.8,1.4-2.8,3.5
							s1.1,3.5,2.8,3.5c0.8,0,1.6-0.4,2.2-0.9L689,20c-0.9,0.8-2.1,1.2-3.2,1.2C683.1,21.2,681,19.3,681,16.1z"/>
						<path d="M689.9,16.1c0-3.2,2.2-5.2,4.5-5.2c2.6,0,4,1.9,4,4.7c0,0.4,0,0.8-0.1,1h-6.4c0.2,1.9,1.4,3,3.1,3
							c0.9,0,1.6-0.3,2.4-0.7l0.7,1.3c-0.9,0.6-2.1,1-3.3,1C692,21.2,689.9,19.3,689.9,16.1z M696.6,15.2c0-1.7-0.8-2.7-2.2-2.7
							c-1.2,0-2.3,1-2.5,2.7H696.6z"/>
						<path d="M700.7,11.1h1.7l0.2,1.8h0.1c0.7-1.3,1.7-2,2.8-2c0.5,0,0.8,0.1,1.1,0.2l-0.4,1.8c-0.3-0.1-0.6-0.2-1-0.2
							c-0.8,0-1.8,0.6-2.4,2.1V21h-2.1L700.7,11.1L700.7,11.1z"/>
						<path d="M706.1,23.4c1.2-0.5,1.9-1.4,2-2.5c-0.1,0-0.1,0-0.2,0c-0.7,0-1.4-0.5-1.4-1.3s0.6-1.3,1.4-1.3c1,0,1.6,0.8,1.6,2.2
							c0,1.9-1.1,3.3-3,4.1L706.1,23.4z"/>
						<path d="M716.2,11.1h1.7l0.2,1.1h0.1c0.9-0.7,1.9-1.3,3-1.3c2.5,0,3.9,2,3.9,5c0,3.4-2,5.3-4.3,5.3c-0.9,0-1.8-0.4-2.6-1.1
							l0.1,1.7V25h-2.1L716.2,11.1L716.2,11.1z M722.9,15.9c0-2.1-0.7-3.3-2.3-3.3c-0.8,0-1.5,0.4-2.4,1.2v4.8
							c0.8,0.7,1.5,0.9,2.2,0.9C721.8,19.5,722.9,18.2,722.9,15.9z"/>
						<path d="M726.7,18.4c0-2.1,1.8-3.2,5.9-3.7c0-1.2-0.4-2.2-1.9-2.2c-1,0-2,0.5-2.9,1l-0.8-1.4c1-0.6,2.4-1.3,4-1.3
							c2.5,0,3.6,1.6,3.6,4.2v6H733l-0.2-1.1h-0.1c-0.9,0.8-2,1.4-3.2,1.4C727.9,21.2,726.7,20.1,726.7,18.4z M732.6,18.4V16
							c-2.9,0.4-3.9,1.1-3.9,2.2c0,1,0.7,1.4,1.5,1.4C731.1,19.6,731.8,19.2,732.6,18.4z"/>
						<path d="M737.6,11.1h1.7l0.2,1.4h0.1c0.9-0.9,1.9-1.6,3.3-1.6c2.1,0,3,1.4,3,3.9V21h-2.1v-6c0-1.7-0.5-2.4-1.7-2.4
							c-0.9,0-1.5,0.5-2.4,1.3v7h-2.1V11.1z"/>
						<path d="M748.1,16.1c0-3.3,2.3-5.2,4.9-5.2c1.3,0,2.2,0.5,2.9,1.1l-1,1.4c-0.5-0.5-1.1-0.8-1.8-0.8c-1.7,0-2.8,1.4-2.8,3.5
							s1.1,3.5,2.8,3.5c0.8,0,1.6-0.4,2.2-0.9l0.8,1.4c-0.9,0.8-2.1,1.2-3.2,1.2C750.2,21.2,748.1,19.3,748.1,16.1z"/>
						<path d="M758.1,11.1h1.7l0.2,1.8h0.1c0.7-1.3,1.7-2,2.8-2c0.5,0,0.8,0.1,1.1,0.2l-0.4,1.8c-0.3-0.1-0.6-0.2-1-0.2
							c-0.8,0-1.8,0.6-2.4,2.1V21h-2.1L758.1,11.1L758.1,11.1z"/>
						<path d="M764.6,16.1c0-3.2,2.2-5.2,4.5-5.2c2.6,0,4,1.9,4,4.7c0,0.4,0,0.8-0.1,1h-6.4c0.2,1.9,1.4,3,3.1,3
							c0.9,0,1.6-0.3,2.4-0.7l0.7,1.3c-0.9,0.6-2.1,1-3.3,1C766.7,21.2,764.6,19.3,764.6,16.1z M771.4,15.2c0-1.7-0.8-2.7-2.2-2.7
							c-1.2,0-2.3,1-2.5,2.7H771.4z"/>
						<path d="M774.6,18.4c0-2.1,1.8-3.2,5.9-3.7c0-1.2-0.4-2.2-1.9-2.2c-1,0-2,0.5-2.9,1l-0.8-1.4c1-0.6,2.4-1.3,4-1.3
							c2.5,0,3.6,1.6,3.6,4.2v6h-1.7l-0.2-1.1h-0.1c-0.9,0.8-2,1.4-3.2,1.4C775.8,21.2,774.6,20.1,774.6,18.4z M780.5,18.4V16
							c-2.9,0.4-3.9,1.1-3.9,2.2c0,1,0.7,1.4,1.5,1.4C779,19.6,779.7,19.2,780.5,18.4z"/>
						<path d="M785.6,17.8v-5h-1.4v-1.5l1.5-0.1l0.2-2.7h1.7v2.7h2.6v1.7h-2.6v5c0,1.2,0.4,1.8,1.4,1.8c0.3,0,0.8-0.1,1.1-0.2
							l0.4,1.5c-0.6,0.2-1.2,0.4-1.9,0.4C786.3,21.2,785.6,19.8,785.6,17.8z"/>
						<path d="M792.1,8c0-0.7,0.6-1.2,1.3-1.2s1.3,0.5,1.3,1.2s-0.6,1.2-1.3,1.2S792.1,8.7,792.1,8z M792.4,11.1h2.1V21h-2.1V11.1z"
							/>
						<path d="M796.8,16.1c0-3.3,2.3-5.2,4.9-5.2c1.3,0,2.2,0.5,2.9,1.1l-1,1.4c-0.5-0.5-1.1-0.8-1.8-0.8c-1.7,0-2.8,1.4-2.8,3.5
							s1.1,3.5,2.8,3.5c0.8,0,1.6-0.4,2.2-0.9l0.8,1.4c-0.9,0.8-2.1,1.2-3.2,1.2C798.9,21.2,796.8,19.3,796.8,16.1z"/>
						<path d="M810.2,16.1c0-3.3,2.3-5.2,4.9-5.2c1.3,0,2.2,0.5,2.9,1.1l-1,1.4c-0.5-0.5-1.1-0.8-1.8-0.8c-1.7,0-2.8,1.4-2.8,3.5
							s1.1,3.5,2.8,3.5c0.8,0,1.6-0.4,2.2-0.9l0.8,1.4c-0.9,0.8-2.1,1.2-3.2,1.2C812.2,21.2,810.2,19.3,810.2,16.1z"/>
						<path d="M819.4,18.4c0-2.1,1.8-3.2,5.9-3.7c0-1.2-0.4-2.2-1.9-2.2c-1,0-2,0.5-2.9,1l-0.8-1.4c1-0.6,2.4-1.3,4-1.3
							c2.5,0,3.6,1.6,3.6,4.2v6h-1.7l-0.2-1.1h-0.1c-0.9,0.8-2,1.4-3.2,1.4C820.6,21.2,819.4,20.1,819.4,18.4z M825.3,18.4V16
							c-2.9,0.4-3.9,1.1-3.9,2.2c0,1,0.7,1.4,1.5,1.4C823.8,19.6,824.5,19.2,825.3,18.4z"/>
						<path d="M830.3,11.1h1.7l0.2,1.4h0.1c0.9-0.9,1.9-1.6,3.3-1.6c2.1,0,3,1.4,3,3.9V21h-2.1v-6c0-1.7-0.5-2.4-1.7-2.4
							c-0.9,0-1.5,0.5-2.4,1.3v7h-2.1V11.1z"/>
						<path d="M840.9,16.1c0-3.3,2.3-5.2,4.9-5.2c1.3,0,2.2,0.5,2.9,1.1l-1,1.4c-0.5-0.5-1.1-0.8-1.8-0.8c-1.7,0-2.8,1.4-2.8,3.5
							s1.1,3.5,2.8,3.5c0.8,0,1.6-0.4,2.2-0.9l0.8,1.4c-0.9,0.8-2.1,1.2-3.2,1.2C842.9,21.2,840.9,19.3,840.9,16.1z"/>
						<path d="M849.7,16.1c0-3.2,2.2-5.2,4.5-5.2c2.6,0,4,1.9,4,4.7c0,0.4,0,0.8-0.1,1h-6.4c0.2,1.9,1.4,3,3.1,3
							c0.9,0,1.6-0.3,2.4-0.7l0.7,1.3c-0.9,0.6-2.1,1-3.3,1C851.8,21.2,849.7,19.3,849.7,16.1z M856.5,15.2c0-1.7-0.8-2.7-2.2-2.7
							c-1.2,0-2.3,1-2.5,2.7H856.5z"/>
						<path d="M860.6,11.1h1.7l0.2,1.8h0.1c0.7-1.3,1.7-2,2.8-2c0.5,0,0.8,0.1,1.1,0.2l-0.4,1.8c-0.3-0.1-0.6-0.2-1-0.2
							c-0.8,0-1.8,0.6-2.4,2.1V21h-2.1L860.6,11.1L860.6,11.1z"/>
					</g>
					<path class="st3" d="M0,42.5h1000"/>
				</g>
				<g id="cell3" transform="translate(0.000000, 181.000000)">
					<g class="st1">
						<path d="M95.8,7.7h2.8l1.8,6.5c0.4,1.5,0.7,2.8,1.1,4.3h0.1c0.4-1.5,0.7-2.8,1.1-4.3l1.7-6.5h2.7L103,21h-3.2L95.8,7.7z"/>
						<path d="M108.6,7.7h3l2.3,6.2c0.3,0.8,0.5,1.7,0.8,2.6h0.1c0.3-0.9,0.5-1.7,0.8-2.6l2.2-6.2h3V21h-2.4v-5.6
							c0-1.3,0.2-3.1,0.3-4.4h-0.1l-1.1,3.1l-2.1,5.6h-1.5l-2.1-5.6l-1.1-3.1h-0.1c0.1,1.3,0.3,3.1,0.3,4.4V21h-2.4L108.6,7.7
							L108.6,7.7z"/>
						<path d="M123.2,17.7c0-1.7,1-2.8,2.3-3.5v-0.1c-1-0.7-1.8-1.7-1.8-3.2c0-2.1,1.7-3.5,4-3.5c2.4,0,3.9,1.4,3.9,3.5
							c0,1.3-0.8,2.4-1.7,3V14c1.2,0.7,2.2,1.7,2.2,3.6c0,2-1.8,3.6-4.5,3.6C125.1,21.3,123.2,19.8,123.2,17.7z M129.7,17.6
							c0-1.4-1.2-2-3-2.7c-0.7,0.6-1.2,1.5-1.2,2.5c0,1.2,1,2,2.2,2C128.8,19.4,129.7,18.7,129.7,17.6z M129.4,11.2
							c0-1.1-0.6-1.9-1.8-1.9c-0.9,0-1.6,0.6-1.6,1.7c0,1.3,1,1.9,2.4,2.4C129.1,12.7,129.4,11.9,129.4,11.2z"/>
						<path d="M133.7,14.3c0-4.6,1.8-6.9,4.5-6.9s4.5,2.3,4.5,6.9s-1.8,7-4.5,7S133.7,18.9,133.7,14.3z M140.3,14.3
							c0-3.7-0.9-4.8-2-4.8c-1.2,0-2,1.1-2,4.8s0.9,4.9,2,4.9C139.4,19.2,140.3,18,140.3,14.3z"/>
						<path d="M153.6,17.5H152V21h-2.5v-3.5h-5.7v-1.8l5-8.1h3.2v7.9h1.6V17.5z M149.6,15.5v-2.7c0-0.8,0.1-2,0.1-2.8h-0.1
							c-0.3,0.7-0.7,1.4-1.1,2.2l-2.1,3.3H149.6z"/>
					</g>
					<g class="st1">
						<path d="M286,11.1h1.7l0.2,1.4h0.1c0.9-0.9,1.9-1.6,3.3-1.6c2.1,0,3,1.4,3,3.9V21h-2.1v-6c0-1.7-0.5-2.4-1.7-2.4
							c-0.9,0-1.5,0.5-2.4,1.3v7H286V11.1z"/>
						<path d="M296.5,16.1c0-3.2,2.2-5.2,4.5-5.2c2.6,0,4,1.9,4,4.7c0,0.4,0,0.8-0.1,1h-6.4c0.2,1.9,1.4,3,3.1,3
							c0.9,0,1.6-0.3,2.4-0.7l0.7,1.3c-0.9,0.6-2.1,1-3.3,1C298.6,21.2,296.5,19.3,296.5,16.1z M303.3,15.2c0-1.7-0.8-2.7-2.2-2.7
							c-1.2,0-2.3,1-2.5,2.7H303.3z"/>
						<path d="M307.2,17.3v-6.2h2.1v6c0,1.7,0.5,2.4,1.7,2.4c0.9,0,1.5-0.4,2.4-1.5v-6.9h2.1V21h-1.7l-0.2-1.5h-0.1
							c-0.9,1-1.9,1.7-3.2,1.7C308.2,21.2,307.2,19.8,307.2,17.3z"/>
						<path d="M318.5,11.1h1.7l0.2,1.8h0.1c0.7-1.3,1.7-2,2.8-2c0.5,0,0.8,0.1,1.1,0.2l-0.4,1.8c-0.3-0.1-0.6-0.2-1-0.2
							c-0.8,0-1.8,0.6-2.4,2.1V21h-2.1L318.5,11.1L318.5,11.1z"/>
						<path d="M325,16.1c0-3.3,2.2-5.2,4.7-5.2s4.7,1.9,4.7,5.2s-2.2,5.2-4.7,5.2S325,19.3,325,16.1z M332.2,16.1
							c0-2.1-1-3.5-2.5-3.5s-2.5,1.4-2.5,3.5s1,3.5,2.5,3.5C331.2,19.5,332.2,18.2,332.2,16.1z"/>
						<path d="M338.6,20L338.6,20l-0.3,1h-1.6V6.6h2.1v3.8l-0.1,1.7c0.8-0.7,1.9-1.3,3-1.3c2.5,0,3.9,2,3.9,5c0,3.4-2,5.3-4.3,5.3
							C340.4,21.2,339.5,20.8,338.6,20z M343.5,15.9c0-2.1-0.7-3.3-2.3-3.3c-0.8,0-1.5,0.4-2.4,1.2v4.8c0.8,0.7,1.5,0.9,2.2,0.9
							C342.4,19.5,343.5,18.2,343.5,15.9z"/>
						<path d="M348.1,18.7v-12h2.1v12.1c0,0.6,0.3,0.8,0.5,0.8c0.1,0,0.2,0,0.3,0l0.3,1.6c-0.3,0.1-0.6,0.2-1.1,0.2
							C348.6,21.2,348.1,20.3,348.1,18.7z"/>
						<path d="M352.8,18.4c0-2.1,1.8-3.2,5.9-3.7c0-1.2-0.4-2.2-1.9-2.2c-1,0-2,0.5-2.9,1l-0.8-1.4c1-0.6,2.4-1.3,4-1.3
							c2.5,0,3.6,1.6,3.6,4.2v6H359l-0.2-1.1h-0.1c-0.9,0.8-2,1.4-3.2,1.4C354.1,21.2,352.8,20.1,352.8,18.4z M358.8,18.4V16
							c-2.9,0.4-3.9,1.1-3.9,2.2c0,1,0.7,1.4,1.5,1.4C357.3,19.6,358,19.2,358.8,18.4z"/>
						<path d="M362.7,19.9l1-1.3c0.9,0.7,1.7,1.1,2.8,1.1c1.2,0,1.7-0.6,1.7-1.3c0-0.9-1.1-1.3-2.2-1.7c-1.3-0.5-2.8-1.2-2.8-2.9
							s1.3-2.9,3.5-2.9c1.3,0,2.4,0.5,3.2,1.2l-1,1.3c-0.7-0.5-1.4-0.9-2.2-0.9c-1.1,0-1.6,0.5-1.6,1.2c0,0.8,1,1.2,2.1,1.6
							c1.4,0.5,2.9,1.1,2.9,3c0,1.7-1.3,3-3.8,3C365.1,21.2,363.7,20.7,362.7,19.9z"/>
						<path d="M372.3,17.8v-5h-1.4v-1.5l1.5-0.1l0.2-2.7h1.7v2.7h2.6v1.7h-2.6v5c0,1.2,0.4,1.8,1.4,1.8c0.3,0,0.8-0.1,1.1-0.2
							l0.4,1.5c-0.6,0.2-1.2,0.4-1.9,0.4C373.1,21.2,372.3,19.8,372.3,17.8z"/>
						<path d="M378.1,16.1c0-3.3,2.2-5.2,4.7-5.2s4.7,1.9,4.7,5.2s-2.2,5.2-4.7,5.2S378.1,19.3,378.1,16.1z M385.3,16.1
							c0-2.1-1-3.5-2.5-3.5s-2.5,1.4-2.5,3.5s1,3.5,2.5,3.5C384.4,19.5,385.3,18.2,385.3,16.1z"/>
						<path d="M389.9,11.1h1.7l0.2,1.4h0.1c0.8-0.9,1.8-1.6,3.1-1.6c1.5,0,2.3,0.7,2.7,1.8c1-1,2-1.8,3.2-1.8c2.1,0,3,1.4,3,3.9V21
							h-2.1v-6c0-1.7-0.5-2.4-1.7-2.4c-0.7,0-1.4,0.5-2.2,1.3v7h-2.1v-6c0-1.7-0.5-2.4-1.7-2.4c-0.7,0-1.4,0.5-2.2,1.3v7h-2.1v-9.7
							H389.9z"/>
						<path d="M406.3,18.4c0-2.1,1.8-3.2,5.9-3.7c0-1.2-0.4-2.2-1.9-2.2c-1,0-2,0.5-2.9,1l-0.8-1.4c1-0.6,2.4-1.3,4-1.3
							c2.5,0,3.6,1.6,3.6,4.2v6h-1.7l-0.2-1.1h-0.1c-0.9,0.8-2,1.4-3.2,1.4C407.5,21.2,406.3,20.1,406.3,18.4z M412.2,18.4V16
							c-2.9,0.4-3.9,1.1-3.9,2.2c0,1,0.7,1.4,1.5,1.4C410.7,19.6,411.4,19.2,412.2,18.4z"/>
						<path d="M416.6,23.4c1.2-0.5,1.9-1.4,2-2.5c-0.1,0-0.1,0-0.2,0c-0.7,0-1.4-0.5-1.4-1.3s0.6-1.3,1.4-1.3c1,0,1.6,0.8,1.6,2.2
							c0,1.9-1.1,3.3-3,4.1L416.6,23.4z"/>
						<path d="M426.6,18.7v-12h2.1v12.1c0,0.6,0.3,0.8,0.5,0.8c0.1,0,0.2,0,0.3,0l0.3,1.6c-0.3,0.1-0.6,0.2-1.1,0.2
							C427.2,21.2,426.6,20.3,426.6,18.7z"/>
						<path d="M431.8,17.3v-6.2h2.1v6c0,1.7,0.5,2.4,1.7,2.4c0.9,0,1.5-0.4,2.4-1.5v-6.9h2.1V21h-1.7l-0.2-1.5h-0.1
							c-0.9,1-1.9,1.7-3.2,1.7C432.8,21.2,431.8,19.8,431.8,17.3z"/>
						<path d="M443.1,11.1h1.7l0.2,1.4h0.1c0.9-0.9,1.9-1.6,3.3-1.6c2.1,0,3,1.4,3,3.9V21h-2.1v-6c0-1.7-0.5-2.4-1.7-2.4
							c-0.9,0-1.5,0.5-2.4,1.3v7h-2.1V11.1z"/>
						<path d="M453.6,22.8c0-0.8,0.5-1.6,1.4-2.2v-0.1c-0.5-0.3-0.9-0.8-0.9-1.6c0-0.8,0.6-1.4,1.1-1.8V17c-0.7-0.5-1.3-1.5-1.3-2.6
							c0-2.3,1.8-3.6,3.8-3.6c0.6,0,1.1,0.1,1.4,0.3h3.5v1.5h-1.9c0.4,0.4,0.6,1.1,0.6,1.8c0,2.2-1.6,3.4-3.7,3.4
							c-0.5,0-1-0.1-1.4-0.3c-0.3,0.3-0.5,0.6-0.5,1c0,0.6,0.4,1,1.7,1h1.8c2.3,0,3.6,0.7,3.6,2.4c0,1.9-2,3.5-5.2,3.5
							C455.4,25.4,453.6,24.6,453.6,22.8z M460.9,22.3c0-0.8-0.6-1.1-1.9-1.1h-1.5c-0.5,0-0.9-0.1-1.3-0.1c-0.6,0.4-0.8,0.9-0.8,1.4
							c0,1,1,1.5,2.6,1.5C459.8,24.1,460.9,23.2,460.9,22.3z M459.7,14.4c0-1.3-0.8-2.1-1.9-2.1c-1,0-1.9,0.8-1.9,2.1
							s0.8,2.1,1.9,2.1S459.7,15.7,459.7,14.4z"/>
						<path d="M468.1,16.1c0-3.3,2.3-5.2,4.9-5.2c1.3,0,2.2,0.5,2.9,1.1l-1,1.4c-0.5-0.5-1.1-0.8-1.8-0.8c-1.7,0-2.8,1.4-2.8,3.5
							s1.1,3.5,2.8,3.5c0.8,0,1.6-0.4,2.2-0.9l0.8,1.4c-0.9,0.8-2.1,1.2-3.2,1.2C470.2,21.2,468.1,19.3,468.1,16.1z"/>
						<path d="M477.4,18.4c0-2.1,1.8-3.2,5.9-3.7c0-1.2-0.4-2.2-1.9-2.2c-1,0-2,0.5-2.9,1l-0.8-1.4c1-0.6,2.4-1.3,4-1.3
							c2.5,0,3.6,1.6,3.6,4.2v6h-1.7l-0.2-1.1h-0.1c-0.9,0.8-2,1.4-3.2,1.4C478.6,21.2,477.4,20.1,477.4,18.4z M483.3,18.4V16
							c-2.9,0.4-3.9,1.1-3.9,2.2c0,1,0.7,1.4,1.5,1.4C481.8,19.6,482.5,19.2,483.3,18.4z"/>
						<path d="M488.3,11.1h1.7l0.2,1.4h0.1c0.9-0.9,1.9-1.6,3.3-1.6c2.1,0,3,1.4,3,3.9V21h-2.1v-6c0-1.7-0.5-2.4-1.7-2.4
							c-0.9,0-1.5,0.5-2.4,1.3v7h-2.1V11.1z"/>
						<path d="M498.8,16.1c0-3.3,2.3-5.2,4.9-5.2c1.3,0,2.2,0.5,2.9,1.1l-1,1.4c-0.5-0.5-1.1-0.8-1.8-0.8c-1.7,0-2.8,1.4-2.8,3.5
							s1.1,3.5,2.8,3.5c0.8,0,1.6-0.4,2.2-0.9l0.8,1.4c-0.9,0.8-2.1,1.2-3.2,1.2C500.9,21.2,498.8,19.3,498.8,16.1z"/>
						<path d="M507.6,16.1c0-3.2,2.2-5.2,4.5-5.2c2.6,0,4,1.9,4,4.7c0,0.4,0,0.8-0.1,1h-6.4c0.2,1.9,1.4,3,3.1,3
							c0.9,0,1.6-0.3,2.4-0.7l0.7,1.3c-0.9,0.6-2.1,1-3.3,1C509.8,21.2,507.6,19.3,507.6,16.1z M514.4,15.2c0-1.7-0.8-2.7-2.2-2.7
							c-1.2,0-2.3,1-2.5,2.7H514.4z"/>
						<path d="M518.5,11.1h1.7l0.2,1.8h0.1c0.7-1.3,1.7-2,2.8-2c0.5,0,0.8,0.1,1.1,0.2l-0.4,1.8c-0.3-0.1-0.6-0.2-1-0.2
							c-0.8,0-1.8,0.6-2.4,2.1V21h-2.1L518.5,11.1L518.5,11.1z"/>
						<path d="M523.9,23.4c1.2-0.5,1.9-1.4,2-2.5c-0.1,0-0.1,0-0.2,0c-0.7,0-1.4-0.5-1.4-1.3s0.6-1.3,1.4-1.3c1,0,1.6,0.8,1.6,2.2
							c0,1.9-1.1,3.3-3,4.1L523.9,23.4z"/>
						<path d="M533.9,11.1h1.7l0.2,1.1h0.1c0.9-0.7,1.9-1.3,3-1.3c2.5,0,3.9,2,3.9,5c0,3.4-2,5.3-4.3,5.3c-0.9,0-1.8-0.4-2.6-1.1
							l0.1,1.7V25h-2.1L533.9,11.1L533.9,11.1z M540.7,15.9c0-2.1-0.7-3.3-2.3-3.3c-0.8,0-1.5,0.4-2.4,1.2v4.8
							c0.8,0.7,1.5,0.9,2.2,0.9C539.6,19.5,540.7,18.2,540.7,15.9z"/>
						<path d="M544.4,18.4c0-2.1,1.8-3.2,5.9-3.7c0-1.2-0.4-2.2-1.9-2.2c-1,0-2,0.5-2.9,1l-0.8-1.4c1-0.6,2.4-1.3,4-1.3
							c2.5,0,3.6,1.6,3.6,4.2v6h-1.7l-0.2-1.1h-0.1c-0.9,0.8-2,1.4-3.2,1.4C545.6,21.2,544.4,20.1,544.4,18.4z M550.4,18.4V16
							c-2.9,0.4-3.9,1.1-3.9,2.2c0,1,0.7,1.4,1.5,1.4S549.5,19.2,550.4,18.4z"/>
						<path d="M555.4,11.1h1.7l0.2,1.4h0.1c0.9-0.9,1.9-1.6,3.3-1.6c2.1,0,3,1.4,3,3.9V21h-2.1v-6c0-1.7-0.5-2.4-1.7-2.4
							c-0.9,0-1.5,0.5-2.4,1.3v7h-2.1V11.1z"/>
						<path d="M565.9,16.1c0-3.3,2.3-5.2,4.9-5.2c1.3,0,2.2,0.5,2.9,1.1l-1,1.4c-0.5-0.5-1.1-0.8-1.8-0.8c-1.7,0-2.8,1.4-2.8,3.5
							s1.1,3.5,2.8,3.5c0.8,0,1.6-0.4,2.2-0.9l0.8,1.4c-0.9,0.8-2.1,1.2-3.2,1.2C567.9,21.2,565.9,19.3,565.9,16.1z"/>
						<path d="M575.9,11.1h1.7l0.2,1.8h0.1c0.7-1.3,1.7-2,2.8-2c0.5,0,0.8,0.1,1.1,0.2l-0.4,1.8c-0.3-0.1-0.6-0.2-1-0.2
							c-0.8,0-1.8,0.6-2.4,2.1V21h-2.1L575.9,11.1L575.9,11.1z"/>
						<path d="M582.4,16.1c0-3.2,2.2-5.2,4.5-5.2c2.6,0,4,1.9,4,4.7c0,0.4,0,0.8-0.1,1h-6.4c0.2,1.9,1.3,3,3.1,3
							c0.9,0,1.6-0.3,2.4-0.7l0.7,1.3c-0.9,0.6-2.1,1-3.3,1C584.5,21.2,582.4,19.3,582.4,16.1z M589.1,15.2c0-1.7-0.8-2.7-2.2-2.7
							c-1.2,0-2.3,1-2.5,2.7H589.1z"/>
						<path d="M592.4,18.4c0-2.1,1.8-3.2,5.9-3.7c0-1.2-0.4-2.2-1.9-2.2c-1,0-2,0.5-2.9,1l-0.8-1.4c1-0.6,2.4-1.3,4-1.3
							c2.5,0,3.6,1.6,3.6,4.2v6h-1.7l-0.2-1.1h-0.1c-0.9,0.8-2,1.4-3.2,1.4C593.6,21.2,592.4,20.1,592.4,18.4z M598.3,18.4V16
							c-2.9,0.4-3.9,1.1-3.9,2.2c0,1,0.7,1.4,1.5,1.4C596.8,19.6,597.5,19.2,598.3,18.4z"/>
						<path d="M603.3,17.8v-5h-1.4v-1.5l1.5-0.1l0.2-2.7h1.7v2.7h2.6v1.7h-2.6v5c0,1.2,0.4,1.8,1.4,1.8c0.3,0,0.8-0.1,1.1-0.2
							l0.4,1.5c-0.6,0.2-1.2,0.4-1.9,0.4C604.1,21.2,603.3,19.8,603.3,17.8z"/>
						<path d="M609.8,8c0-0.7,0.6-1.2,1.3-1.2c0.8,0,1.3,0.5,1.3,1.2s-0.6,1.2-1.3,1.2C610.4,9.2,609.8,8.7,609.8,8z M610.1,11.1
							h2.1V21h-2.1V11.1z"/>
						<path d="M614.6,16.1c0-3.3,2.3-5.2,4.9-5.2c1.3,0,2.2,0.5,2.9,1.1l-1,1.4c-0.5-0.5-1.1-0.8-1.8-0.8c-1.7,0-2.8,1.4-2.8,3.5
							s1.1,3.5,2.8,3.5c0.8,0,1.6-0.4,2.2-0.9l0.8,1.4c-0.9,0.8-2.1,1.2-3.2,1.2C616.7,21.2,614.6,19.3,614.6,16.1z"/>
						<path d="M628,16.1c0-3.3,2.3-5.2,4.9-5.2c1.3,0,2.2,0.5,2.9,1.1l-1,1.4c-0.5-0.5-1.1-0.8-1.8-0.8c-1.7,0-2.8,1.4-2.8,3.5
							s1.1,3.5,2.8,3.5c0.8,0,1.6-0.4,2.2-0.9l0.8,1.4c-0.9,0.8-2.1,1.2-3.2,1.2C630,21.2,628,19.3,628,16.1z"/>
						<path d="M637.2,18.4c0-2.1,1.8-3.2,5.9-3.7c0-1.2-0.4-2.2-1.9-2.2c-1,0-2,0.5-2.9,1l-0.8-1.4c1-0.6,2.4-1.3,4-1.3
							c2.5,0,3.6,1.6,3.6,4.2v6h-1.7l-0.2-1.1h-0.1c-0.9,0.8-2,1.4-3.2,1.4C638.4,21.2,637.2,20.1,637.2,18.4z M643.1,18.4V16
							c-2.9,0.4-3.9,1.1-3.9,2.2c0,1,0.7,1.4,1.5,1.4C641.6,19.6,642.3,19.2,643.1,18.4z"/>
						<path d="M648.1,11.1h1.7l0.2,1.4h0.1c0.9-0.9,1.9-1.6,3.3-1.6c2.1,0,3,1.4,3,3.9V21h-2.1v-6c0-1.7-0.5-2.4-1.7-2.4
							c-0.9,0-1.5,0.5-2.4,1.3v7h-2.1V11.1z"/>
						<path d="M658.6,16.1c0-3.3,2.3-5.2,4.9-5.2c1.3,0,2.2,0.5,2.9,1.1l-1,1.4c-0.5-0.5-1.1-0.8-1.8-0.8c-1.7,0-2.8,1.4-2.8,3.5
							s1.1,3.5,2.8,3.5c0.8,0,1.6-0.4,2.2-0.9l0.8,1.4c-0.9,0.8-2.1,1.2-3.2,1.2C660.7,21.2,658.6,19.3,658.6,16.1z"/>
						<path d="M667.5,16.1c0-3.2,2.2-5.2,4.5-5.2c2.6,0,4,1.9,4,4.7c0,0.4,0,0.8-0.1,1h-6.4c0.2,1.9,1.4,3,3.1,3
							c0.9,0,1.6-0.3,2.4-0.7l0.7,1.3c-0.9,0.6-2.1,1-3.3,1C669.6,21.2,667.5,19.3,667.5,16.1z M674.3,15.2c0-1.7-0.8-2.7-2.2-2.7
							c-1.2,0-2.3,1-2.5,2.7H674.3z"/>
						<path d="M678.4,11.1h1.7l0.2,1.8h0.1c0.7-1.3,1.7-2,2.8-2c0.5,0,0.8,0.1,1.1,0.2l-0.4,1.8c-0.3-0.1-0.6-0.2-1-0.2
							c-0.8,0-1.8,0.6-2.4,2.1V21h-2.1L678.4,11.1L678.4,11.1z"/>
						<path d="M683.8,23.4c1.2-0.5,1.9-1.4,2-2.5c-0.1,0-0.1,0-0.2,0c-0.7,0-1.4-0.5-1.4-1.3s0.6-1.3,1.4-1.3c1,0,1.6,0.8,1.6,2.2
							c0,1.9-1.1,3.3-3,4.1L683.8,23.4z"/>
						<path d="M693.8,11.1h1.7l0.2,1.8h0.1c0.7-1.3,1.7-2,2.8-2c0.5,0,0.8,0.1,1.1,0.2l-0.4,1.8c-0.3-0.1-0.6-0.2-1-0.2
							c-0.8,0-1.8,0.6-2.4,2.1V21h-2.1L693.8,11.1L693.8,11.1z"/>
						<path d="M700.2,16.1c0-3.2,2.2-5.2,4.5-5.2c2.6,0,4,1.9,4,4.7c0,0.4,0,0.8-0.1,1h-6.4c0.2,1.9,1.3,3,3.1,3
							c0.9,0,1.6-0.3,2.4-0.7l0.7,1.3c-0.9,0.6-2.1,1-3.3,1C702.4,21.2,700.2,19.3,700.2,16.1z M707,15.2c0-1.7-0.8-2.7-2.2-2.7
							c-1.2,0-2.3,1-2.5,2.7H707z"/>
						<path d="M711.1,11.1h1.7l0.2,1.4h0.1c0.9-0.9,1.9-1.6,3.3-1.6c2.1,0,3,1.4,3,3.9V21h-2.1v-6c0-1.7-0.5-2.4-1.7-2.4
							c-0.9,0-1.5,0.5-2.4,1.3v7h-2.1V11.1z"/>
						<path d="M721.8,18.4c0-2.1,1.8-3.2,5.9-3.7c0-1.2-0.4-2.2-1.9-2.2c-1,0-2,0.5-2.9,1l-0.8-1.4c1-0.6,2.4-1.3,4-1.3
							c2.5,0,3.6,1.6,3.6,4.2v6H728l-0.2-1.1h-0.1c-0.9,0.8-2,1.4-3.2,1.4C723,21.2,721.8,20.1,721.8,18.4z M727.7,18.4V16
							c-2.9,0.4-3.9,1.1-3.9,2.2c0,1,0.7,1.4,1.5,1.4C726.2,19.6,726.9,19.2,727.7,18.4z"/>
						<path d="M732.7,18.7v-12h2.1v12.1c0,0.6,0.3,0.8,0.5,0.8c0.1,0,0.2,0,0.3,0l0.3,1.6c-0.3,0.1-0.6,0.2-1.1,0.2
							C733.3,21.2,732.7,20.3,732.7,18.7z"/>
						<path d="M741.4,16.1c0-3.3,2.3-5.2,4.9-5.2c1.3,0,2.2,0.5,2.9,1.1l-1,1.4c-0.5-0.5-1.1-0.8-1.8-0.8c-1.7,0-2.8,1.4-2.8,3.5
							s1.1,3.5,2.8,3.5c0.8,0,1.6-0.4,2.2-0.9l0.8,1.4c-0.9,0.8-2.1,1.2-3.2,1.2C743.5,21.2,741.4,19.3,741.4,16.1z"/>
						<path d="M750.6,18.4c0-2.1,1.8-3.2,5.9-3.7c0-1.2-0.4-2.2-1.9-2.2c-1,0-2,0.5-2.9,1l-0.8-1.4c1-0.6,2.4-1.3,4-1.3
							c2.5,0,3.6,1.6,3.6,4.2v6h-1.7l-0.2-1.1h-0.1c-0.9,0.8-2,1.4-3.2,1.4C751.8,21.2,750.6,20.1,750.6,18.4z M756.6,18.4V16
							c-2.9,0.4-3.9,1.1-3.9,2.2c0,1,0.7,1.4,1.5,1.4C755.1,19.6,755.8,19.2,756.6,18.4z"/>
						<path d="M761.6,11.1h1.7l0.2,1.4h0.1c0.9-0.9,1.9-1.6,3.3-1.6c2.1,0,3,1.4,3,3.9V21h-2.1v-6c0-1.7-0.5-2.4-1.7-2.4
							c-0.9,0-1.5,0.5-2.4,1.3v7h-2.1V11.1z"/>
						<path d="M772.1,16.1c0-3.3,2.3-5.2,4.9-5.2c1.3,0,2.2,0.5,2.9,1.1l-1,1.4c-0.5-0.5-1.1-0.8-1.8-0.8c-1.7,0-2.8,1.4-2.8,3.5
							s1.1,3.5,2.8,3.5c0.8,0,1.6-0.4,2.2-0.9L780,20c-0.9,0.8-2.1,1.2-3.2,1.2C774.2,21.2,772.1,19.3,772.1,16.1z"/>
						<path d="M780.9,16.1c0-3.2,2.2-5.2,4.5-5.2c2.6,0,4,1.9,4,4.7c0,0.4,0,0.8-0.1,1H783c0.2,1.9,1.4,3,3.1,3
							c0.9,0,1.6-0.3,2.4-0.7l0.7,1.3c-0.9,0.6-2.1,1-3.3,1C783.1,21.2,780.9,19.3,780.9,16.1z M787.7,15.2c0-1.7-0.8-2.7-2.2-2.7
							c-1.2,0-2.3,1-2.5,2.7H787.7z"/>
						<path d="M791.8,11.1h1.7l0.2,1.8h0.1c0.7-1.3,1.7-2,2.8-2c0.5,0,0.8,0.1,1.1,0.2l-0.4,1.8c-0.3-0.1-0.6-0.2-1-0.2
							c-0.8,0-1.8,0.6-2.4,2.1V21h-2.1L791.8,11.1L791.8,11.1z"/>
					</g>
					<path class="st3" d="M0,42.5h1000"/>
				</g>
				<g id="cell4" transform="translate(0.000000, 239.000000)">
					<g class="st1">
						<path d="M95.8,7.7h2.8l1.8,6.5c0.4,1.5,0.7,2.8,1.1,4.3h0.1c0.4-1.5,0.7-2.8,1.1-4.3l1.7-6.5h2.7L103,21h-3.2L95.8,7.7z"/>
						<path d="M108.6,7.7h3l2.3,6.2c0.3,0.8,0.5,1.7,0.8,2.6h0.1c0.3-0.9,0.5-1.7,0.8-2.6l2.2-6.2h3V21h-2.4v-5.6
							c0-1.3,0.2-3.1,0.3-4.4h-0.1l-1.1,3.1l-2.1,5.6h-1.5l-2.1-5.6l-1.1-3.1h-0.1c0.1,1.3,0.3,3.1,0.3,4.4V21h-2.4L108.6,7.7
							L108.6,7.7z"/>
						<path d="M123.2,17.7c0-1.7,1-2.8,2.3-3.5v-0.1c-1-0.7-1.8-1.7-1.8-3.2c0-2.1,1.7-3.5,4-3.5c2.4,0,3.9,1.4,3.9,3.5
							c0,1.3-0.8,2.4-1.7,3V14c1.2,0.7,2.2,1.7,2.2,3.6c0,2-1.8,3.6-4.5,3.6C125.1,21.3,123.2,19.8,123.2,17.7z M129.7,17.6
							c0-1.4-1.2-2-3-2.7c-0.7,0.6-1.2,1.5-1.2,2.5c0,1.2,1,2,2.2,2C128.8,19.4,129.7,18.7,129.7,17.6z M129.4,11.2
							c0-1.1-0.6-1.9-1.8-1.9c-0.9,0-1.6,0.6-1.6,1.7c0,1.3,1,1.9,2.4,2.4C129.1,12.7,129.4,11.9,129.4,11.2z"/>
						<path d="M133.7,14.3c0-4.6,1.8-6.9,4.5-6.9s4.5,2.3,4.5,6.9s-1.8,7-4.5,7S133.7,18.9,133.7,14.3z M140.3,14.3
							c0-3.7-0.9-4.8-2-4.8c-1.2,0-2,1.1-2,4.8s0.9,4.9,2,4.9C139.4,19.2,140.3,18,140.3,14.3z"/>
						<path d="M144,19.4l1.2-1.7c0.8,0.7,1.7,1.4,2.9,1.4c1.4,0,2.4-0.9,2.4-2.4s-0.9-2.4-2.3-2.4c-0.8,0-1.2,0.2-2,0.7l-1.2-0.8
							l0.4-6.5h7.1v2.2h-4.8l-0.3,2.8c0.5-0.3,1-0.4,1.6-0.4c2.2,0,4.1,1.3,4.1,4.2c0,3-2.2,4.7-4.7,4.7
							C146.4,21.3,145,20.4,144,19.4z"/>
					</g>
					<g class="st1">
						<path d="M286.8,7.7h2.1v11.5h5.6V21h-7.7V7.7z"/>
						<path d="M296.3,8c0-0.7,0.6-1.2,1.3-1.2S299,7.3,299,8s-0.6,1.2-1.3,1.2S296.3,8.7,296.3,8z M296.6,11.1h2.1V21h-2.1V11.1z"/>
						<path d="M300.5,11.1h2.1l1.7,5.3c0.3,1,0.6,2,0.9,3h0.1c0.3-1,0.6-2,0.9-3l1.7-5.3h2l-3.4,9.9H304L300.5,11.1z"/>
						<path d="M310.8,16.1c0-3.2,2.2-5.2,4.5-5.2c2.6,0,4,1.9,4,4.7c0,0.4,0,0.8-0.1,1h-6.4c0.2,1.9,1.4,3,3.1,3
							c0.9,0,1.6-0.3,2.4-0.7l0.7,1.3c-0.9,0.6-2.1,1-3.3,1C312.9,21.2,310.8,19.3,310.8,16.1z M317.6,15.2c0-1.7-0.8-2.7-2.2-2.7
							c-1.2,0-2.3,1-2.5,2.7H317.6z"/>
						<path d="M321.7,11.1h1.7l0.2,1.8h0.1c0.7-1.3,1.7-2,2.8-2c0.5,0,0.8,0.1,1.1,0.2l-0.4,1.8c-0.3-0.1-0.6-0.2-1-0.2
							c-0.8,0-1.8,0.6-2.4,2.1V21h-2.1L321.7,11.1L321.7,11.1z"/>
						<path d="M332.4,16.1c0-3.3,2.3-5.2,4.9-5.2c1.3,0,2.2,0.5,2.9,1.1l-1,1.4c-0.5-0.5-1.1-0.8-1.8-0.8c-1.7,0-2.8,1.4-2.8,3.5
							s1.1,3.5,2.8,3.5c0.8,0,1.6-0.4,2.2-0.9l0.8,1.4c-0.9,0.8-2.1,1.2-3.2,1.2C334.4,21.2,332.4,19.3,332.4,16.1z"/>
						<path d="M341.6,18.4c0-2.1,1.8-3.2,5.9-3.7c0-1.2-0.4-2.2-1.9-2.2c-1,0-2,0.5-2.9,1l-0.8-1.4c1-0.6,2.4-1.3,4-1.3
							c2.5,0,3.6,1.6,3.6,4.2v6h-1.7l-0.2-1.1h-0.1c-0.9,0.8-2,1.4-3.2,1.4C342.8,21.2,341.6,20.1,341.6,18.4z M347.5,18.4V16
							c-2.9,0.4-3.9,1.1-3.9,2.2c0,1,0.7,1.4,1.5,1.4C346,19.6,346.7,19.2,347.5,18.4z"/>
						<path d="M352.5,11.1h1.7l0.2,1.4h0.1c0.9-0.9,1.9-1.6,3.3-1.6c2.1,0,3,1.4,3,3.9V21h-2.1v-6c0-1.7-0.5-2.4-1.7-2.4
							c-0.9,0-1.5,0.5-2.4,1.3v7h-2.1V11.1z"/>
						<path d="M363.1,16.1c0-3.3,2.3-5.2,4.9-5.2c1.3,0,2.2,0.5,2.9,1.1l-1,1.4c-0.5-0.5-1.1-0.8-1.8-0.8c-1.7,0-2.8,1.4-2.8,3.5
							s1.1,3.5,2.8,3.5c0.8,0,1.6-0.4,2.2-0.9L371,20c-0.9,0.8-2.1,1.2-3.2,1.2C365.1,21.2,363.1,19.3,363.1,16.1z"/>
						<path d="M371.9,16.1c0-3.2,2.2-5.2,4.5-5.2c2.6,0,4,1.9,4,4.7c0,0.4,0,0.8-0.1,1h-6.4c0.2,1.9,1.4,3,3.1,3
							c0.9,0,1.6-0.3,2.4-0.7l0.7,1.3c-0.9,0.6-2.1,1-3.3,1C374,21.2,371.9,19.3,371.9,16.1z M378.7,15.2c0-1.7-0.8-2.7-2.2-2.7
							c-1.2,0-2.3,1-2.5,2.7H378.7z"/>
						<path d="M382.8,11.1h1.7l0.2,1.8h0.1c0.7-1.3,1.7-2,2.8-2c0.5,0,0.8,0.1,1.1,0.2l-0.4,1.8c-0.3-0.1-0.6-0.2-1-0.2
							c-0.8,0-1.8,0.6-2.4,2.1V21h-2.1L382.8,11.1L382.8,11.1z"/>
						<path d="M388.2,23.4c1.2-0.5,1.9-1.4,2-2.5c-0.1,0-0.1,0-0.2,0c-0.7,0-1.4-0.5-1.4-1.3s0.6-1.3,1.4-1.3c1,0,1.6,0.8,1.6,2.2
							c0,1.9-1.1,3.3-3,4.1L388.2,23.4z"/>
						<path d="M397.5,22.8c0-0.8,0.5-1.6,1.4-2.2v-0.1c-0.5-0.3-0.9-0.8-0.9-1.6c0-0.8,0.6-1.4,1.1-1.8V17c-0.7-0.5-1.3-1.5-1.3-2.6
							c0-2.3,1.8-3.6,3.8-3.6c0.6,0,1.1,0.1,1.4,0.3h3.5v1.5h-1.9c0.4,0.4,0.6,1.1,0.6,1.8c0,2.2-1.6,3.4-3.7,3.4
							c-0.5,0-1-0.1-1.4-0.3c-0.3,0.3-0.5,0.6-0.5,1c0,0.6,0.4,1,1.7,1h1.8c2.3,0,3.6,0.7,3.6,2.4c0,1.9-2,3.5-5.2,3.5
							C399.2,25.4,397.5,24.6,397.5,22.8z M404.8,22.3c0-0.8-0.6-1.1-1.9-1.1h-1.5c-0.5,0-0.9-0.1-1.3-0.1c-0.6,0.4-0.8,0.9-0.8,1.4
							c0,1,1,1.5,2.6,1.5C403.6,24.1,404.8,23.2,404.8,22.3z M403.5,14.4c0-1.3-0.8-2.1-1.9-2.1s-1.9,0.8-1.9,2.1s0.8,2.1,1.9,2.1
							S403.5,15.7,403.5,14.4z"/>
						<path d="M407.7,18.4c0-2.1,1.8-3.2,5.9-3.7c0-1.2-0.4-2.2-1.9-2.2c-1,0-2,0.5-2.9,1l-0.8-1.4c1-0.6,2.4-1.3,4-1.3
							c2.5,0,3.6,1.6,3.6,4.2v6H414l-0.2-1.1h-0.1c-0.9,0.8-2,1.4-3.2,1.4C408.9,21.2,407.7,20.1,407.7,18.4z M413.6,18.4V16
							c-2.9,0.4-3.9,1.1-3.9,2.2c0,1,0.7,1.4,1.5,1.4C412.1,19.6,412.8,19.2,413.6,18.4z"/>
						<path d="M417.6,19.9l1-1.3c0.9,0.7,1.7,1.1,2.8,1.1c1.2,0,1.7-0.6,1.7-1.3c0-0.9-1.1-1.3-2.2-1.7c-1.3-0.5-2.8-1.2-2.8-2.9
							s1.3-2.9,3.5-2.9c1.3,0,2.4,0.5,3.2,1.2l-1,1.3c-0.7-0.5-1.4-0.9-2.2-0.9c-1.1,0-1.6,0.5-1.6,1.2c0,0.8,1,1.2,2.1,1.6
							c1.4,0.5,2.9,1.1,2.9,3c0,1.7-1.3,3-3.8,3C419.9,21.2,418.5,20.7,417.6,19.9z"/>
						<path d="M427.2,17.8v-5h-1.4v-1.5l1.5-0.1l0.2-2.7h1.7v2.7h2.6v1.7h-2.6v5c0,1.2,0.4,1.8,1.4,1.8c0.3,0,0.8-0.1,1.1-0.2
							l0.4,1.5c-0.6,0.2-1.2,0.4-1.9,0.4C428,21.2,427.2,19.8,427.2,17.8z"/>
						<path d="M434,11.1h1.7l0.2,1.8h0.1c0.7-1.3,1.7-2,2.8-2c0.5,0,0.8,0.1,1.1,0.2l-0.4,1.8c-0.3-0.1-0.6-0.2-1-0.2
							c-0.8,0-1.8,0.6-2.4,2.1V21H434V11.1z"/>
						<path d="M441.1,8c0-0.7,0.6-1.2,1.3-1.2s1.3,0.5,1.3,1.2s-0.6,1.2-1.3,1.2S441.1,8.7,441.1,8z M441.3,11.1h2.1V21h-2.1V11.1z"
							/>
						<path d="M445.8,16.1c0-3.3,2.3-5.2,4.9-5.2c1.3,0,2.2,0.5,2.9,1.1l-1,1.4c-0.5-0.5-1.1-0.8-1.8-0.8c-1.7,0-2.8,1.4-2.8,3.5
							s1.1,3.5,2.8,3.5c0.8,0,1.6-0.4,2.2-0.9l0.8,1.4c-0.9,0.8-2.1,1.2-3.2,1.2C447.9,21.2,445.8,19.3,445.8,16.1z"/>
						<path d="M459.2,16.1c0-3.3,2.3-5.2,4.9-5.2c1.3,0,2.2,0.5,2.9,1.1l-1,1.4c-0.5-0.5-1.1-0.8-1.8-0.8c-1.7,0-2.8,1.4-2.8,3.5
							s1.1,3.5,2.8,3.5c0.8,0,1.6-0.4,2.2-0.9l0.8,1.4c-0.9,0.8-2.1,1.2-3.2,1.2C461.2,21.2,459.2,19.3,459.2,16.1z"/>
						<path d="M468.4,18.4c0-2.1,1.8-3.2,5.9-3.7c0-1.2-0.4-2.2-1.9-2.2c-1,0-2,0.5-2.9,1l-0.8-1.4c1-0.6,2.4-1.3,4-1.3
							c2.5,0,3.6,1.6,3.6,4.2v6h-1.7l-0.2-1.1h-0.1c-0.9,0.8-2,1.4-3.2,1.4C469.6,21.2,468.4,20.1,468.4,18.4z M474.3,18.4V16
							c-2.9,0.4-3.9,1.1-3.9,2.2c0,1,0.7,1.4,1.5,1.4C472.8,19.6,473.5,19.2,474.3,18.4z"/>
						<path d="M479.3,11.1h1.7l0.2,1.4h0.1c0.9-0.9,1.9-1.6,3.3-1.6c2.1,0,3,1.4,3,3.9V21h-2.1v-6c0-1.7-0.5-2.4-1.7-2.4
							c-0.9,0-1.5,0.5-2.4,1.3v7h-2.1V11.1z"/>
						<path d="M489.9,16.1c0-3.3,2.3-5.2,4.9-5.2c1.3,0,2.2,0.5,2.9,1.1l-1,1.4c-0.5-0.5-1.1-0.8-1.8-0.8c-1.7,0-2.8,1.4-2.8,3.5
							s1.1,3.5,2.8,3.5c0.8,0,1.6-0.4,2.2-0.9l0.8,1.4c-0.9,0.8-2.1,1.2-3.2,1.2C491.9,21.2,489.9,19.3,489.9,16.1z"/>
						<path d="M498.7,16.1c0-3.2,2.2-5.2,4.5-5.2c2.6,0,4,1.9,4,4.7c0,0.4,0,0.8-0.1,1h-6.4c0.2,1.9,1.4,3,3.1,3
							c0.9,0,1.6-0.3,2.4-0.7l0.7,1.3c-0.9,0.6-2.1,1-3.3,1C500.8,21.2,498.7,19.3,498.7,16.1z M505.5,15.2c0-1.7-0.8-2.7-2.2-2.7
							c-1.2,0-2.3,1-2.5,2.7H505.5z"/>
						<path d="M509.6,11.1h1.7l0.2,1.8h0.1c0.7-1.3,1.7-2,2.8-2c0.5,0,0.8,0.1,1.1,0.2l-0.4,1.8c-0.3-0.1-0.6-0.2-1-0.2
							c-0.8,0-1.8,0.6-2.4,2.1V21h-2.1L509.6,11.1L509.6,11.1z"/>
						<path d="M515,23.4c1.2-0.5,1.9-1.4,2-2.5c-0.1,0-0.1,0-0.2,0c-0.7,0-1.4-0.5-1.4-1.3s0.6-1.3,1.4-1.3c1,0,1.6,0.8,1.6,2.2
							c0,1.9-1.1,3.3-3,4.1L515,23.4z"/>
						<path d="M524.3,16.1c0-3.3,2.2-5.2,4.7-5.2c2.4,0,4.7,1.9,4.7,5.2s-2.2,5.2-4.7,5.2C526.5,21.2,524.3,19.3,524.3,16.1z
							 M531.5,16.1c0-2.1-1-3.5-2.5-3.5s-2.5,1.4-2.5,3.5s1,3.5,2.5,3.5C530.5,19.5,531.5,18.2,531.5,16.1z"/>
						<path d="M534.6,11.1h2.1l1.7,5.3c0.3,1,0.6,2,0.9,3h0.1c0.3-1,0.6-2,0.9-3l1.7-5.3h2l-3.4,9.9h-2.4L534.6,11.1z"/>
						<path d="M544.8,18.4c0-2.1,1.8-3.2,5.9-3.7c0-1.2-0.4-2.2-1.9-2.2c-1,0-2,0.5-2.9,1l-0.8-1.4c1-0.6,2.4-1.3,4-1.3
							c2.5,0,3.6,1.6,3.6,4.2v6H551l-0.2-1.1h-0.1c-0.9,0.8-2,1.4-3.2,1.4C546,21.2,544.8,20.1,544.8,18.4z M550.7,18.4V16
							c-2.9,0.4-3.9,1.1-3.9,2.2c0,1,0.7,1.4,1.5,1.4C549.2,19.6,549.9,19.2,550.7,18.4z"/>
						<path d="M555.7,11.1h1.7l0.2,1.8h0.1c0.7-1.3,1.7-2,2.8-2c0.5,0,0.8,0.1,1.1,0.2l-0.4,1.8c-0.3-0.1-0.6-0.2-1-0.2
							c-0.8,0-1.8,0.6-2.4,2.1V21h-2.1L555.7,11.1L555.7,11.1z"/>
						<path d="M562.8,8c0-0.7,0.6-1.2,1.3-1.2c0.8,0,1.3,0.5,1.3,1.2s-0.6,1.2-1.3,1.2C563.3,9.2,562.8,8.7,562.8,8z M563.1,11.1
							h2.1V21h-2.1V11.1z"/>
						<path d="M567.6,18.4c0-2.1,1.8-3.2,5.9-3.7c0-1.2-0.4-2.2-1.9-2.2c-1,0-2,0.5-2.9,1l-0.8-1.4c1-0.6,2.4-1.3,4-1.3
							c2.5,0,3.6,1.6,3.6,4.2v6H574l-0.2-1.1h-0.1c-0.9,0.8-2,1.4-3.2,1.4C568.9,21.2,567.6,20.1,567.6,18.4z M573.6,18.4V16
							c-2.9,0.4-3.9,1.1-3.9,2.2c0,1,0.7,1.4,1.5,1.4C572.1,19.6,572.8,19.2,573.6,18.4z"/>
						<path d="M578.6,11.1h1.7l0.2,1.4h0.1c0.9-0.9,1.9-1.6,3.3-1.6c2.1,0,3,1.4,3,3.9V21h-2.1v-6c0-1.7-0.5-2.4-1.7-2.4
							c-0.9,0-1.5,0.5-2.4,1.3v7h-2.1V11.1z"/>
						<path d="M593.2,16.1c0-3.3,2.3-5.2,4.9-5.2c1.3,0,2.2,0.5,2.9,1.1l-1,1.4c-0.5-0.5-1.1-0.8-1.8-0.8c-1.7,0-2.8,1.4-2.8,3.5
							s1.1,3.5,2.8,3.5c0.8,0,1.6-0.4,2.2-0.9l0.8,1.4c-0.9,0.8-2.1,1.2-3.2,1.2C595.2,21.2,593.2,19.3,593.2,16.1z"/>
						<path d="M602.4,18.4c0-2.1,1.8-3.2,5.9-3.7c0-1.2-0.4-2.2-1.9-2.2c-1,0-2,0.5-2.9,1l-0.8-1.4c1-0.6,2.4-1.3,4-1.3
							c2.5,0,3.6,1.6,3.6,4.2v6h-1.7l-0.2-1.1h-0.1c-0.9,0.8-2,1.4-3.2,1.4C603.6,21.2,602.4,20.1,602.4,18.4z M608.3,18.4V16
							c-2.9,0.4-3.9,1.1-3.9,2.2c0,1,0.7,1.4,1.5,1.4C606.8,19.6,607.5,19.2,608.3,18.4z"/>
						<path d="M613.3,11.1h1.7l0.2,1.4h0.1c0.9-0.9,1.9-1.6,3.3-1.6c2.1,0,3,1.4,3,3.9V21h-2.1v-6c0-1.7-0.5-2.4-1.7-2.4
							c-0.9,0-1.5,0.5-2.4,1.3v7h-2.1V11.1z"/>
						<path d="M623.8,16.1c0-3.3,2.3-5.2,4.9-5.2c1.3,0,2.2,0.5,2.9,1.1l-1,1.4c-0.5-0.5-1.1-0.8-1.8-0.8c-1.7,0-2.8,1.4-2.8,3.5
							s1.1,3.5,2.8,3.5c0.8,0,1.6-0.4,2.2-0.9l0.8,1.4c-0.9,0.8-2.1,1.2-3.2,1.2C625.9,21.2,623.8,19.3,623.8,16.1z"/>
						<path d="M632.7,16.1c0-3.2,2.2-5.2,4.5-5.2c2.6,0,4,1.9,4,4.7c0,0.4,0,0.8-0.1,1h-6.4c0.2,1.9,1.4,3,3.1,3
							c0.9,0,1.6-0.3,2.4-0.7l0.7,1.3c-0.9,0.6-2.1,1-3.3,1C634.8,21.2,632.7,19.3,632.7,16.1z M639.5,15.2c0-1.7-0.8-2.7-2.2-2.7
							c-1.2,0-2.3,1-2.5,2.7H639.5z"/>
						<path d="M643.6,11.1h1.7l0.2,1.8h0.1c0.7-1.3,1.7-2,2.8-2c0.5,0,0.8,0.1,1.1,0.2l-0.4,1.8c-0.3-0.1-0.6-0.2-1-0.2
							c-0.8,0-1.8,0.6-2.4,2.1V21h-2.1L643.6,11.1L643.6,11.1z"/>
						<path d="M649,23.4c1.2-0.5,1.9-1.4,2-2.5c-0.1,0-0.1,0-0.2,0c-0.7,0-1.4-0.5-1.4-1.3s0.6-1.3,1.4-1.3c1,0,1.6,0.8,1.6,2.2
							c0,1.9-1.1,3.3-3,4.1L649,23.4z"/>
						<path d="M658.3,16.1c0-3.3,2.3-5.2,4.9-5.2c1.3,0,2.2,0.5,2.9,1.1l-1,1.4c-0.5-0.5-1.1-0.8-1.8-0.8c-1.7,0-2.8,1.4-2.8,3.5
							s1.1,3.5,2.8,3.5c0.8,0,1.6-0.4,2.2-0.9l0.8,1.4c-0.9,0.8-2.1,1.2-3.2,1.2C660.3,21.2,658.3,19.3,658.3,16.1z"/>
						<path d="M667.1,16.1c0-3.3,2.2-5.2,4.7-5.2c2.4,0,4.7,1.9,4.7,5.2s-2.2,5.2-4.7,5.2C669.3,21.2,667.1,19.3,667.1,16.1z
							 M674.3,16.1c0-2.1-1-3.5-2.5-3.5s-2.5,1.4-2.5,3.5s1,3.5,2.5,3.5C673.3,19.5,674.3,18.2,674.3,16.1z"/>
						<path d="M678.9,18.7v-12h2.1v12.1c0,0.6,0.3,0.8,0.5,0.8c0.1,0,0.2,0,0.3,0l0.3,1.6c-0.3,0.1-0.6,0.2-1.1,0.2
							C679.4,21.2,678.9,20.3,678.9,18.7z"/>
						<path d="M683.5,16.1c0-3.3,2.2-5.2,4.7-5.2c2.4,0,4.7,1.9,4.7,5.2s-2.2,5.2-4.7,5.2C685.7,21.2,683.5,19.3,683.5,16.1z
							 M690.7,16.1c0-2.1-1-3.5-2.5-3.5s-2.5,1.4-2.5,3.5s1,3.5,2.5,3.5C689.8,19.5,690.7,18.2,690.7,16.1z"/>
						<path d="M695.3,11.1h1.7l0.2,1.8h0.1c0.7-1.3,1.7-2,2.8-2c0.5,0,0.8,0.1,1.1,0.2l-0.4,1.8c-0.3-0.1-0.6-0.2-1-0.2
							c-0.8,0-1.8,0.6-2.4,2.1V21h-2.1L695.3,11.1L695.3,11.1z"/>
						<path d="M701.7,16.1c0-3.2,2.2-5.2,4.5-5.2c2.6,0,4,1.9,4,4.7c0,0.4,0,0.8-0.1,1h-6.4c0.2,1.9,1.4,3,3.1,3
							c0.9,0,1.6-0.3,2.4-0.7l0.7,1.3c-0.9,0.6-2.1,1-3.3,1C703.9,21.2,701.7,19.3,701.7,16.1z M708.5,15.2c0-1.7-0.8-2.7-2.2-2.7
							c-1.2,0-2.3,1-2.5,2.7H708.5z"/>
						<path d="M711.9,16.1c0-3.3,2.3-5.2,4.9-5.2c1.3,0,2.2,0.5,2.9,1.1l-1,1.4c-0.5-0.5-1.1-0.8-1.8-0.8c-1.7,0-2.8,1.4-2.8,3.5
							s1.1,3.5,2.8,3.5c0.8,0,1.6-0.4,2.2-0.9l0.8,1.4c-0.9,0.8-2.1,1.2-3.2,1.2C714,21.2,711.9,19.3,711.9,16.1z"/>
						<path d="M722.1,17.8v-5h-1.4v-1.5l1.5-0.1l0.2-2.7h1.7v2.7h2.6v1.7h-2.6v5c0,1.2,0.4,1.8,1.4,1.8c0.3,0,0.8-0.1,1.1-0.2
							L727,21c-0.6,0.2-1.2,0.4-1.9,0.4C722.8,21.2,722.1,19.8,722.1,17.8z"/>
						<path d="M727.8,18.4c0-2.1,1.8-3.2,5.9-3.7c0-1.2-0.4-2.2-1.9-2.2c-1,0-2,0.5-2.9,1l-0.8-1.4c1-0.6,2.4-1.3,4-1.3
							c2.5,0,3.6,1.6,3.6,4.2v6H734l-0.2-1.1h-0.1c-0.9,0.8-2,1.4-3.2,1.4C729.1,21.2,727.8,20.1,727.8,18.4z M733.8,18.4V16
							c-2.9,0.4-3.9,1.1-3.9,2.2c0,1,0.7,1.4,1.5,1.4C732.3,19.6,733,19.2,733.8,18.4z"/>
						<path d="M738.8,18.7v-12h2.1v12.1c0,0.6,0.3,0.8,0.5,0.8c0.1,0,0.2,0,0.3,0l0.3,1.6c-0.3,0.1-0.6,0.2-1.1,0.2
							C739.3,21.2,738.8,20.3,738.8,18.7z"/>
						<path d="M747.5,16.1c0-3.3,2.3-5.2,4.9-5.2c1.3,0,2.2,0.5,2.9,1.1l-1,1.4c-0.5-0.5-1.1-0.8-1.8-0.8c-1.7,0-2.8,1.4-2.8,3.5
							s1.1,3.5,2.8,3.5c0.8,0,1.6-0.4,2.2-0.9l0.8,1.4c-0.9,0.8-2.1,1.2-3.2,1.2C749.5,21.2,747.5,19.3,747.5,16.1z"/>
						<path d="M756.7,18.4c0-2.1,1.8-3.2,5.9-3.7c0-1.2-0.4-2.2-1.9-2.2c-1,0-2,0.5-2.9,1l-0.8-1.4c1-0.6,2.4-1.3,4-1.3
							c2.5,0,3.6,1.6,3.6,4.2v6H763l-0.2-1.1h-0.1c-0.9,0.8-2,1.4-3.2,1.4C757.9,21.2,756.7,20.1,756.7,18.4z M762.6,18.4V16
							c-2.9,0.4-3.9,1.1-3.9,2.2c0,1,0.7,1.4,1.5,1.4C761.1,19.6,761.8,19.2,762.6,18.4z"/>
						<path d="M767.6,11.1h1.7l0.2,1.4h0.1c0.9-0.9,1.9-1.6,3.3-1.6c2.1,0,3,1.4,3,3.9V21h-2.1v-6c0-1.7-0.5-2.4-1.7-2.4
							c-0.9,0-1.5,0.5-2.4,1.3v7h-2.1V11.1z"/>
						<path d="M778.2,16.1c0-3.3,2.3-5.2,4.9-5.2c1.3,0,2.2,0.5,2.9,1.1l-1,1.4c-0.5-0.5-1.1-0.8-1.8-0.8c-1.7,0-2.8,1.4-2.8,3.5
							s1.1,3.5,2.8,3.5c0.8,0,1.6-0.4,2.2-0.9l0.8,1.4c-0.9,0.8-2.1,1.2-3.2,1.2C780.2,21.2,778.2,19.3,778.2,16.1z"/>
						<path d="M787,16.1c0-3.2,2.2-5.2,4.5-5.2c2.6,0,4,1.9,4,4.7c0,0.4,0,0.8-0.1,1H789c0.2,1.9,1.4,3,3.1,3c0.9,0,1.6-0.3,2.4-0.7
							l0.7,1.3c-0.9,0.6-2.1,1-3.3,1C789.2,21.2,787,19.3,787,16.1z M793.8,15.2c0-1.7-0.8-2.7-2.2-2.7c-1.2,0-2.3,1-2.5,2.7H793.8z
							"/>
						<path d="M797.9,11.1h1.7l0.2,1.8h0.1c0.7-1.3,1.7-2,2.8-2c0.5,0,0.8,0.1,1.1,0.2l-0.4,1.8c-0.3-0.1-0.6-0.2-1-0.2
							c-0.8,0-1.8,0.6-2.4,2.1V21h-2.1L797.9,11.1L797.9,11.1z"/>
						<path d="M803.3,23.4c1.2-0.5,1.9-1.4,2-2.5c-0.1,0-0.1,0-0.2,0c-0.7,0-1.4-0.5-1.4-1.3s0.6-1.3,1.4-1.3c1,0,1.6,0.8,1.6,2.2
							c0,1.9-1.1,3.3-3,4.1L803.3,23.4z"/>
						<path d="M815.2,20L815.2,20l-0.3,1h-1.6V6.6h2.1v3.8l-0.1,1.7c0.8-0.7,1.9-1.3,3-1.3c2.5,0,3.9,2,3.9,5c0,3.4-2,5.3-4.3,5.3
							C817,21.2,816,20.8,815.2,20z M820,15.9c0-2.1-0.7-3.3-2.3-3.3c-0.8,0-1.5,0.4-2.4,1.2v4.8c0.8,0.7,1.5,0.9,2.2,0.9
							C819,19.5,820,18.2,820,15.9z"/>
						<path d="M824.6,11.1h1.7l0.2,1.8h0.1c0.7-1.3,1.7-2,2.8-2c0.5,0,0.8,0.1,1.1,0.2l-0.4,1.8c-0.3-0.1-0.6-0.2-1-0.2
							c-0.8,0-1.8,0.6-2.4,2.1V21h-2.1L824.6,11.1L824.6,11.1z"/>
						<path d="M831.1,16.1c0-3.2,2.2-5.2,4.5-5.2c2.6,0,4,1.9,4,4.7c0,0.4,0,0.8-0.1,1h-6.4c0.2,1.9,1.4,3,3.1,3
							c0.9,0,1.6-0.3,2.4-0.7l0.7,1.3c-0.9,0.6-2.1,1-3.3,1C833.2,21.2,831.1,19.3,831.1,16.1z M837.9,15.2c0-1.7-0.8-2.7-2.2-2.7
							c-1.2,0-2.3,1-2.5,2.7H837.9z"/>
						<path d="M841.1,18.4c0-2.1,1.8-3.2,5.9-3.7c0-1.2-0.4-2.2-1.9-2.2c-1,0-2,0.5-2.9,1l-0.8-1.4c1-0.6,2.4-1.3,4-1.3
							c2.5,0,3.6,1.6,3.6,4.2v6h-1.7l-0.2-1.1H847c-0.9,0.8-2,1.4-3.2,1.4C842.3,21.2,841.1,20.1,841.1,18.4z M847,18.4V16
							c-2.9,0.4-3.9,1.1-3.9,2.2c0,1,0.7,1.4,1.5,1.4C845.5,19.6,846.2,19.2,847,18.4z"/>
						<path d="M851,19.9l1-1.3c0.9,0.7,1.7,1.1,2.8,1.1c1.2,0,1.7-0.6,1.7-1.3c0-0.9-1.1-1.3-2.2-1.7c-1.3-0.5-2.8-1.2-2.8-2.9
							s1.3-2.9,3.5-2.9c1.3,0,2.4,0.5,3.2,1.2l-1,1.3c-0.7-0.5-1.4-0.9-2.2-0.9c-1.1,0-1.6,0.5-1.6,1.2c0,0.8,1,1.2,2.1,1.6
							c1.4,0.5,2.9,1.1,2.9,3c0,1.7-1.3,3-3.8,3C853.4,21.2,852,20.7,851,19.9z"/>
						<path d="M860.6,17.8v-5h-1.4v-1.5l1.5-0.1l0.2-2.7h1.7v2.7h2.6v1.7h-2.6v5c0,1.2,0.4,1.8,1.4,1.8c0.3,0,0.8-0.1,1.1-0.2
							l0.4,1.5c-0.6,0.2-1.2,0.4-1.9,0.4C861.4,21.2,860.6,19.8,860.6,17.8z"/>
						<path d="M870.8,16.1c0-3.3,2.3-5.2,4.9-5.2c1.3,0,2.2,0.5,2.9,1.1l-1,1.4c-0.5-0.5-1.1-0.8-1.8-0.8c-1.7,0-2.8,1.4-2.8,3.5
							s1.1,3.5,2.8,3.5c0.8,0,1.6-0.4,2.2-0.9l0.8,1.4c-0.9,0.8-2.1,1.2-3.2,1.2C872.8,21.2,870.8,19.3,870.8,16.1z"/>
						<path d="M880,18.4c0-2.1,1.8-3.2,5.9-3.7c0-1.2-0.4-2.2-1.9-2.2c-1,0-2,0.5-2.9,1l-0.8-1.4c1-0.6,2.4-1.3,4-1.3
							c2.5,0,3.6,1.6,3.6,4.2v6h-1.7l-0.2-1.1h-0.1c-0.9,0.8-2,1.4-3.2,1.4C881.2,21.2,880,20.1,880,18.4z M885.9,18.4V16
							c-2.9,0.4-3.9,1.1-3.9,2.2c0,1,0.7,1.4,1.5,1.4C884.4,19.6,885.1,19.2,885.9,18.4z"/>
						<path d="M890.9,11.1h1.7l0.2,1.4h0.1c0.9-0.9,1.9-1.6,3.3-1.6c2.1,0,3,1.4,3,3.9V21h-2.1v-6c0-1.7-0.5-2.4-1.7-2.4
							c-0.9,0-1.5,0.5-2.4,1.3v7h-2.1V11.1z"/>
						<path d="M901.5,16.1c0-3.3,2.3-5.2,4.9-5.2c1.3,0,2.2,0.5,2.9,1.1l-1,1.4c-0.5-0.5-1.1-0.8-1.8-0.8c-1.7,0-2.8,1.4-2.8,3.5
							s1.1,3.5,2.8,3.5c0.8,0,1.6-0.4,2.2-0.9l0.8,1.4c-0.9,0.8-2.1,1.2-3.2,1.2C903.5,21.2,901.5,19.3,901.5,16.1z"/>
						<path d="M910.3,16.1c0-3.2,2.2-5.2,4.5-5.2c2.6,0,4,1.9,4,4.7c0,0.4,0,0.8-0.1,1h-6.4c0.2,1.9,1.4,3,3.1,3
							c0.9,0,1.6-0.3,2.4-0.7l0.7,1.3c-0.9,0.6-2.1,1-3.3,1C912.4,21.2,910.3,19.3,910.3,16.1z M917.1,15.2c0-1.7-0.8-2.7-2.2-2.7
							c-1.2,0-2.3,1-2.5,2.7H917.1z"/>
						<path d="M921.2,11.1h1.7l0.2,1.8h0.1c0.7-1.3,1.7-2,2.8-2c0.5,0,0.8,0.1,1.1,0.2l-0.4,1.8c-0.3-0.1-0.6-0.2-1-0.2
							c-0.8,0-1.8,0.6-2.4,2.1V21h-2.1L921.2,11.1L921.2,11.1z"/>
					</g>
					<path class="st3" d="M0,42.5h1000"/>
				</g>
			</g>
		</g>
	</g>
</g>
</svg>
