<?xml version="1.0" encoding="utf-8"?>
<!-- Generator: Adobe Illustrator 23.0.6, SVG Export Plug-In . SVG Version: 6.00 Build 0)  -->
<svg version="1.1" id="레이어_1" xmlns="http://www.w3.org/2000/svg" xmlns:xlink="http://www.w3.org/1999/xlink" x="0px"
	 y="0px" viewBox="0 0 1002 224" style="enable-background:new 0 0 1002 224;" xml:space="preserve">
<style type="text/css">
	.st0{fill-rule:evenodd;clip-rule:evenodd;}
	.st1{enable-background:new    ;}
	.st2{fill:#FFFFFF;}
	.st3{fill:none;stroke:#979797;stroke-linecap:square;}
</style>
<title>표</title>
<desc>Created with Sketch.</desc>
<g id="Page-1">
	<g transform="translate(-189.000000, -930.000000)">
		<g id="first" transform="translate(190.000000, 420.000000)">
			<g id="표" transform="translate(0.000000, 510.000000)">
				<g id="head">
					<g>
						<path id="bg" class="st0" d="M8,0h234c4.4,0,8,3.6,8,8v34c0,4.4-3.6,8-8,8H8c-4.4,0-8-3.6-8-8V8C0,3.6,3.6,0,8,0z"/>
						<g class="st1">
							<path class="st2" d="M94.4,19.9H98c2.5,0,4.3,0.9,4.3,3.5c0,2.5-1.9,3.7-4.3,3.7h-1.5V31h-2.2L94.4,19.9L94.4,19.9z
								 M97.9,25.3c1.5,0,2.3-0.6,2.3-1.9s-0.8-1.7-2.3-1.7h-1.3v3.6H97.9z"/>
							<path class="st2" d="M104.2,22.6h1.8l0.1,1.5h0.1c0.6-1.1,1.5-1.7,2.4-1.7c0.5,0,0.7,0.1,1,0.2l-0.4,1.9
								c-0.3-0.1-0.5-0.1-0.9-0.1c-0.7,0-1.5,0.4-1.9,1.7v5h-2.2V22.6z"/>
							<path class="st2" d="M110,26.8c0-2.8,1.9-4.4,4-4.4s4,1.6,4,4.4s-1.9,4.4-4,4.4S110,29.6,110,26.8z M115.8,26.8
								c0-1.6-0.6-2.6-1.8-2.6s-1.8,1-1.8,2.6s0.6,2.6,1.8,2.6S115.8,28.4,115.8,26.8z"/>
							<path class="st2" d="M119.4,32.5c0-0.7,0.4-1.3,1.2-1.7v-0.1c-0.4-0.3-0.8-0.7-0.8-1.4c0-0.6,0.4-1.2,0.9-1.6v-0.1
								c-0.6-0.4-1.1-1.2-1.1-2.2c0-2,1.6-3,3.4-3c0.5,0,0.9,0.1,1.3,0.2h3v1.6h-1.4c0.2,0.3,0.4,0.8,0.4,1.3c0,1.9-1.4,2.8-3.2,2.8
								c-0.3,0-0.7-0.1-1.1-0.2c-0.2,0.2-0.4,0.4-0.4,0.7c0,0.5,0.3,0.7,1.3,0.7h1.4c2,0,3.1,0.6,3.1,2.1c0,1.7-1.8,3-4.6,3
								C120.9,34.6,119.4,34,119.4,32.5z M125.4,32c0-0.6-0.5-0.8-1.4-0.8h-1c-0.5,0-0.9,0-1.2-0.1c-0.4,0.3-0.6,0.6-0.6,1
								c0,0.7,0.8,1.1,2,1.1C124.5,33.2,125.4,32.7,125.4,32z M124.3,25.4c0-1-0.6-1.5-1.3-1.5s-1.3,0.6-1.3,1.5
								c0,1,0.6,1.5,1.3,1.5S124.3,26.4,124.3,25.4z"/>
							<path class="st2" d="M128.9,22.6h1.8l0.1,1.5h0.1c0.6-1.1,1.5-1.7,2.4-1.7c0.5,0,0.7,0.1,1,0.2l-0.4,1.9
								c-0.3-0.1-0.5-0.1-0.9-0.1c-0.7,0-1.5,0.4-1.9,1.7v5h-2.2L128.9,22.6L128.9,22.6z"/>
							<path class="st2" d="M134.5,28.7c0-1.8,1.5-2.7,4.8-3.1c0-0.8-0.4-1.5-1.4-1.5c-0.8,0-1.5,0.3-2.3,0.8l-0.8-1.5
								c1-0.6,2.2-1.1,3.5-1.1c2.1,0,3.2,1.3,3.2,3.7v5h-1.8l-0.2-0.9l0,0c-0.7,0.6-1.6,1.1-2.5,1.1
								C135.5,31.2,134.5,30.1,134.5,28.7z M139.4,28.7V27c-2,0.3-2.7,0.8-2.7,1.6c0,0.7,0.5,0.9,1.1,0.9
								C138.4,29.5,138.9,29.2,139.4,28.7z"/>
							<path class="st2" d="M143.8,22.6h1.8l0.1,1.1h0.1c0.7-0.7,1.5-1.3,2.6-1.3c1.2,0,1.9,0.5,2.3,1.5c0.8-0.8,1.6-1.5,2.7-1.5
								c1.8,0,2.6,1.3,2.6,3.4V31h-2.2v-5c0-1.3-0.4-1.8-1.2-1.8c-0.5,0-1,0.3-1.6,0.9V31h-2.2v-5c0-1.3-0.4-1.8-1.2-1.8
								c-0.5,0-1,0.3-1.6,0.9V31h-2.2L143.8,22.6L143.8,22.6z"/>
						</g>
					</g>
					<g transform="translate(260.000000, 0.000000)">
						<path class="st0" d="M8,0h724c4.4,0,8,3.6,8,8v34c0,4.4-3.6,8-8,8H8c-4.4,0-8-3.6-8-8V8C0,3.6,3.6,0,8,0z"/>
						<g class="st1">
							<path class="st2" d="M310.6,21.7h-3.1v-1.8h8.5v1.8h-3.2V31h-2.2L310.6,21.7L310.6,21.7z"/>
							<path class="st2" d="M317.6,19h2.2v3l-0.1,1.6c0.7-0.6,1.5-1.2,2.6-1.2c1.8,0,2.6,1.3,2.6,3.4V31h-2.2v-5
								c0-1.3-0.4-1.8-1.2-1.8c-0.7,0-1.1,0.3-1.8,0.9V31h-2.2V19H317.6z"/>
							<path class="st2" d="M326.6,26.8c0-2.7,1.9-4.4,3.9-4.4c2.3,0,3.5,1.7,3.5,4c0,0.4,0,0.8-0.1,1h-5.2c0.2,1.4,1.1,2.1,2.3,2.1
								c0.7,0,1.3-0.2,1.9-0.6l0.8,1.4c-0.8,0.6-1.9,0.9-2.9,0.9C328.5,31.2,326.6,29.6,326.6,26.8z M332.2,26
								c0-1.1-0.5-1.9-1.6-1.9c-0.9,0-1.7,0.6-1.8,1.9H332.2z"/>
							<path class="st2" d="M335.9,22.6h1.8l0.1,1.5h0.1c0.6-1.1,1.5-1.7,2.4-1.7c0.5,0,0.7,0.1,1,0.2l-0.4,1.9
								c-0.3-0.1-0.5-0.1-0.9-0.1c-0.7,0-1.5,0.4-1.9,1.7v5h-2.2V22.6z"/>
							<path class="st2" d="M341.5,28.7c0-1.8,1.5-2.7,4.8-3.1c0-0.8-0.4-1.5-1.4-1.5c-0.8,0-1.5,0.3-2.3,0.8l-0.8-1.5
								c1-0.6,2.2-1.1,3.5-1.1c2.1,0,3.2,1.3,3.2,3.7v5h-1.8l-0.2-0.9l0,0c-0.7,0.6-1.6,1.1-2.5,1.1
								C342.5,31.2,341.5,30.1,341.5,28.7z M346.4,28.7V27c-2,0.3-2.7,0.8-2.7,1.6c0,0.7,0.5,0.9,1.1,0.9S345.8,29.2,346.4,28.7z"/>
							<path class="st2" d="M350.8,22.6h1.8l0.1,0.9h0.1c0.7-0.6,1.6-1.1,2.5-1.1c2.1,0,3.3,1.7,3.3,4.3c0,2.9-1.7,4.5-3.6,4.5
								c-0.7,0-1.4-0.3-2.1-0.9l0.1,1.4v2.5h-2.2L350.8,22.6L350.8,22.6z M356.3,26.7c0-1.6-0.5-2.5-1.7-2.5c-0.6,0-1.1,0.3-1.7,0.9
								v3.7c0.5,0.5,1.1,0.6,1.5,0.6C355.6,29.4,356.3,28.5,356.3,26.7z"/>
							<path class="st2" d="M359.9,26.8c0-2.7,1.9-4.4,3.9-4.4c2.3,0,3.5,1.7,3.5,4c0,0.4,0,0.8-0.1,1H362c0.2,1.4,1.1,2.1,2.3,2.1
								c0.7,0,1.3-0.2,1.9-0.6l0.8,1.4c-0.8,0.6-1.9,0.9-2.9,0.9C361.8,31.2,359.9,29.6,359.9,26.8z M365.5,26
								c0-1.1-0.5-1.9-1.6-1.9c-0.9,0-1.7,0.6-1.8,1.9H365.5z"/>
							<path class="st2" d="M369.1,27.9v-5.2h2.2v5c0,1.3,0.4,1.8,1.2,1.8c0.7,0,1.1-0.3,1.7-1v-5.7h2.2V31h-1.8l-0.2-1.2h-0.1
								c-0.7,0.9-1.5,1.4-2.7,1.4C369.9,31.2,369.1,30,369.1,27.9z"/>
							<path class="st2" d="M379.1,28.1v-3.7h-1.2v-1.6l1.3-0.1l0.3-2.2h1.8v2.2h2.1v1.7h-2.1v3.7c0,1,0.4,1.4,1.1,1.4
								c0.3,0,0.6-0.1,0.8-0.2l0.4,1.6c-0.5,0.2-1,0.3-1.8,0.3C379.8,31.2,379.1,30,379.1,28.1z"/>
							<path class="st2" d="M384.8,20.1c0-0.7,0.6-1.2,1.3-1.2c0.8,0,1.3,0.5,1.3,1.2s-0.6,1.2-1.3,1.2
								C385.4,21.2,384.8,20.7,384.8,20.1z M385,22.6h2.2V31H385V22.6z"/>
							<path class="st2" d="M389.1,26.8c0-2.8,2-4.4,4.3-4.4c1,0,1.8,0.4,2.4,0.9l-1.1,1.4c-0.4-0.4-0.8-0.6-1.3-0.6
								c-1.3,0-2.1,1-2.1,2.6s0.9,2.6,2.1,2.6c0.6,0,1.2-0.3,1.6-0.7l0.9,1.5c-0.8,0.7-1.8,1-2.7,1
								C390.8,31.2,389.1,29.6,389.1,26.8z"/>
							<path class="st2" d="M406.3,28.2h-3.6l-0.8,2.8h-2.2l3.6-11.1h2.6l3.6,11.1h-2.3L406.3,28.2z M405.8,26.4l-0.3-1.2
								c-0.3-1.2-0.6-2.4-1-3.6h-0.1c-0.3,1.2-0.6,2.5-0.9,3.6l-0.3,1.2H405.8z"/>
							<path class="st2" d="M410.5,22.6h1.8l0.2,1.5h0.1c0.6-1.1,1.5-1.7,2.4-1.7c0.5,0,0.7,0.1,1,0.2l-0.4,1.9
								c-0.3-0.1-0.5-0.1-0.9-0.1c-0.7,0-1.5,0.4-1.9,1.7v5h-2.2v-8.5H410.5z"/>
							<path class="st2" d="M416.4,26.8c0-2.7,1.9-4.4,3.9-4.4c2.3,0,3.5,1.7,3.5,4c0,0.4,0,0.8-0.1,1h-5.2c0.2,1.4,1.1,2.1,2.3,2.1
								c0.7,0,1.3-0.2,1.9-0.6l0.8,1.4c-0.8,0.6-1.9,0.9-2.9,0.9C418.2,31.2,416.4,29.6,416.4,26.8z M421.9,26
								c0-1.1-0.5-1.9-1.6-1.9c-0.9,0-1.7,0.6-1.8,1.9H421.9z"/>
							<path class="st2" d="M425,28.7c0-1.8,1.5-2.7,4.8-3.1c0-0.8-0.4-1.5-1.4-1.5c-0.8,0-1.5,0.3-2.3,0.8l-0.8-1.5
								c1-0.6,2.2-1.1,3.5-1.1c2.1,0,3.2,1.3,3.2,3.7v5h-1.8l-0.2-0.9l0,0c-0.7,0.6-1.6,1.1-2.5,1.1C426,31.2,425,30.1,425,28.7z
								 M429.8,28.7V27c-2,0.3-2.7,0.8-2.7,1.6c0,0.7,0.5,0.9,1.1,0.9S429.3,29.2,429.8,28.7z"/>
						</g>
					</g>
				</g>
				<g id="cell1" transform="translate(0.000000, 65.000000)">
					<g class="st1">
						<path d="M104.4,10.9h2.2l0.2,1h0.1c0.8-0.7,1.9-1.3,3-1.3c2.5,0,4,2,4,5.1c0,3.5-2.1,5.5-4.3,5.5c-0.9,0-1.7-0.4-2.5-1.1
							l0.1,1.7v3.1h-2.6v-14H104.4z M111,15.8c0-1.9-0.6-3-2-3c-0.7,0-1.3,0.3-2,1v4.4c0.6,0.6,1.3,0.8,1.8,0.8
							C110.1,19.1,111,18,111,15.8z"/>
						<path d="M116.2,7.7h2.7V21h-2.7V7.7z"/>
						<path d="M122.2,7.7h2.7v5.8h0.1l4.4-5.8h2.9l-4.1,5.2L133,21h-3l-3.4-6l-1.7,2.2V21h-2.7C122.2,21,122.2,7.7,122.2,7.7z"/>
						<path d="M133.3,14.3c0-4.3,2.4-6.9,6-6.9c3.5,0,6,2.5,6,6.9s-2.4,7-6,7C135.8,21.3,133.3,18.6,133.3,14.3z M142.5,14.3
							c0-2.9-1.3-4.6-3.2-4.6s-3.2,1.7-3.2,4.6c0,2.8,1.3,4.7,3.2,4.7S142.5,17.1,142.5,14.3z"/>
					</g>
					<g class="st1">
						<path d="M285.9,16.1c0-3.3,2.3-5.2,4.9-5.2c1.3,0,2.2,0.5,2.9,1.1l-1,1.4c-0.5-0.5-1.1-0.8-1.8-0.8c-1.7,0-2.8,1.4-2.8,3.5
							s1.1,3.5,2.8,3.5c0.8,0,1.6-0.4,2.2-0.9l0.8,1.4c-0.9,0.8-2.1,1.2-3.2,1.2C287.9,21.2,285.9,19.3,285.9,16.1z"/>
						<path d="M295.9,6.6h2.1v3.8l-0.1,2c0.9-0.8,1.9-1.6,3.2-1.6c2.1,0,3,1.4,3,3.9V21H302v-6c0-1.7-0.5-2.4-1.7-2.4
							c-0.9,0-1.5,0.5-2.4,1.3v7h-2.1V6.6H295.9z"/>
						<path d="M307.1,11.1h1.7l0.2,1.8h0.1c0.7-1.3,1.7-2,2.8-2c0.5,0,0.8,0.1,1.1,0.2l-0.4,1.8c-0.3-0.1-0.6-0.2-1-0.2
							c-0.8,0-1.8,0.6-2.4,2.1V21h-2.1L307.1,11.1L307.1,11.1z"/>
						<path d="M313.5,16.1c0-3.3,2.2-5.2,4.7-5.2s4.7,1.9,4.7,5.2s-2.2,5.2-4.7,5.2S313.5,19.3,313.5,16.1z M320.7,16.1
							c0-2.1-1-3.5-2.5-3.5s-2.5,1.4-2.5,3.5s1,3.5,2.5,3.5C319.7,19.5,320.7,18.2,320.7,16.1z"/>
						<path d="M325.3,11.1h1.7l0.2,1.4h0.1c0.9-0.9,1.9-1.6,3.3-1.6c2.1,0,3,1.4,3,3.9V21h-2.1v-6c0-1.7-0.5-2.4-1.7-2.4
							c-0.9,0-1.5,0.5-2.4,1.3v7h-2.1V11.1z"/>
						<path d="M336.2,8c0-0.7,0.6-1.2,1.3-1.2s1.3,0.5,1.3,1.2s-0.6,1.2-1.3,1.2S336.2,8.7,336.2,8z M336.5,11.1h2.1V21h-2.1V11.1z"
							/>
						<path d="M341,16.1c0-3.3,2.3-5.2,4.9-5.2c1.3,0,2.2,0.5,2.9,1.1l-1,1.4c-0.5-0.5-1.1-0.8-1.8-0.8c-1.7,0-2.8,1.4-2.8,3.5
							s1.1,3.5,2.8,3.5c0.8,0,1.6-0.4,2.2-0.9l0.8,1.4c-0.9,0.8-2.1,1.2-3.2,1.2C343,21.2,341,19.3,341,16.1z"/>
						<path d="M353.9,11.1h2.1l1.3,5.4c0.2,1,0.4,1.9,0.5,2.8h0.1c0.2-0.9,0.4-1.9,0.6-2.8l1.4-5.4h1.9l1.4,5.4
							c0.2,1,0.4,1.9,0.7,2.8h0.1c0.2-0.9,0.4-1.9,0.6-2.8l1.3-5.4h1.9l-2.6,9.9h-2.5l-1.3-4.9c-0.2-0.9-0.4-1.8-0.6-2.9h-0.1
							c-0.2,1-0.4,1.9-0.6,2.9L359,21h-2.4L353.9,11.1z"/>
						<path d="M369.1,16.1c0-3.3,2.2-5.2,4.7-5.2s4.7,1.9,4.7,5.2s-2.2,5.2-4.7,5.2S369.1,19.3,369.1,16.1z M376.3,16.1
							c0-2.1-1-3.5-2.5-3.5s-2.5,1.4-2.5,3.5s1,3.5,2.5,3.5C375.3,19.5,376.3,18.2,376.3,16.1z"/>
						<path d="M380.7,17.3v-6.2h2.1v6c0,1.7,0.5,2.4,1.7,2.4c0.9,0,1.5-0.4,2.4-1.5v-6.9h2.1V21h-1.7l-0.2-1.5H387
							c-0.9,1-1.9,1.7-3.2,1.7C381.7,21.2,380.7,19.8,380.7,17.3z"/>
						<path d="M392,11.1h1.7l0.2,1.4h0.1c0.9-0.9,1.9-1.6,3.3-1.6c2.1,0,3,1.4,3,3.9V21h-2.1v-6c0-1.7-0.5-2.4-1.7-2.4
							c-0.9,0-1.5,0.5-2.4,1.3v7H392V11.1z"/>
						<path d="M402.6,16.1c0-3.2,2-5.2,4.2-5.2c1.1,0,1.9,0.4,2.7,1.1l-0.1-1.6V6.6h2.1V21h-1.7l-0.2-1.1h-0.1
							c-0.7,0.8-1.8,1.4-2.9,1.4C404.2,21.2,402.6,19.3,402.6,16.1z M409.4,18.3v-4.8c-0.7-0.7-1.4-0.9-2.2-0.9
							c-1.4,0-2.5,1.3-2.5,3.5c0,2.3,0.9,3.5,2.4,3.5C408,19.5,408.7,19.1,409.4,18.3z"/>
						<path d="M414,23.4c1.2-0.5,1.9-1.4,2-2.5c-0.1,0-0.1,0-0.2,0c-0.7,0-1.4-0.5-1.4-1.3s0.6-1.3,1.4-1.3c1,0,1.6,0.8,1.6,2.2
							c0,1.9-1.1,3.3-3,4.1L414,23.4z"/>
						<path d="M424,11.1h1.7l0.2,1.1h0.1c0.9-0.7,1.9-1.3,3-1.3c2.5,0,3.9,2,3.9,5c0,3.4-2,5.3-4.3,5.3c-0.9,0-1.8-0.4-2.6-1.1
							l0.1,1.7V25H424V11.1z M430.7,15.9c0-2.1-0.7-3.3-2.3-3.3c-0.8,0-1.5,0.4-2.4,1.2v4.8c0.8,0.7,1.5,0.9,2.2,0.9
							C429.7,19.5,430.7,18.2,430.7,15.9z"/>
						<path d="M434.7,16.1c0-3.2,2.2-5.2,4.5-5.2c2.6,0,4,1.9,4,4.7c0,0.4,0,0.8-0.1,1h-6.4c0.2,1.9,1.4,3,3.1,3
							c0.9,0,1.6-0.3,2.4-0.7l0.7,1.3c-0.9,0.6-2.1,1-3.3,1C436.8,21.2,434.7,19.3,434.7,16.1z M441.4,15.2c0-1.7-0.8-2.7-2.2-2.7
							c-1.2,0-2.3,1-2.5,2.7H441.4z"/>
						<path d="M445.5,11.1h1.7l0.2,1.8h0.1c0.7-1.3,1.7-2,2.8-2c0.5,0,0.8,0.1,1.1,0.2l-0.4,1.8c-0.3-0.1-0.6-0.2-1-0.2
							c-0.8,0-1.8,0.6-2.4,2.1V21h-2.1L445.5,11.1L445.5,11.1z"/>
						<path d="M452.6,8c0-0.7,0.6-1.2,1.3-1.2s1.3,0.5,1.3,1.2s-0.6,1.2-1.3,1.2S452.6,8.7,452.6,8z M452.9,11.1h2.1V21h-2.1V11.1z"
							/>
						<path d="M458.1,11.1h1.7l0.2,1.1h0.1c0.9-0.7,1.9-1.3,3-1.3c2.5,0,3.9,2,3.9,5c0,3.4-2,5.3-4.3,5.3c-0.9,0-1.8-0.4-2.6-1.1
							l0.1,1.7V25h-2.1L458.1,11.1L458.1,11.1z M464.8,15.9c0-2.1-0.7-3.3-2.3-3.3c-0.8,0-1.5,0.4-2.4,1.2v4.8
							c0.8,0.7,1.5,0.9,2.2,0.9C463.7,19.5,464.8,18.2,464.8,15.9z"/>
						<path d="M469.4,6.6h2.1v3.8l-0.1,2c0.9-0.8,1.9-1.6,3.2-1.6c2.1,0,3,1.4,3,3.9V21h-2.1v-6c0-1.7-0.5-2.4-1.7-2.4
							c-0.9,0-1.5,0.5-2.4,1.3v7h-2.1V6.6H469.4z"/>
						<path d="M479.9,16.1c0-3.2,2.2-5.2,4.5-5.2c2.6,0,4,1.9,4,4.7c0,0.4,0,0.8-0.1,1h-6.4c0.2,1.9,1.4,3,3.1,3
							c0.9,0,1.6-0.3,2.4-0.7l0.7,1.3c-0.9,0.6-2.1,1-3.3,1C482,21.2,479.9,19.3,479.9,16.1z M486.6,15.2c0-1.7-0.8-2.7-2.2-2.7
							c-1.2,0-2.3,1-2.5,2.7H486.6z"/>
						<path d="M490.7,11.1h1.7l0.2,1.8h0.1c0.7-1.3,1.7-2,2.8-2c0.5,0,0.8,0.1,1.1,0.2l-0.4,1.8c-0.3-0.1-0.6-0.2-1-0.2
							c-0.8,0-1.8,0.6-2.4,2.1V21h-2.1L490.7,11.1L490.7,11.1z"/>
						<path d="M497,18.4c0-2.1,1.8-3.2,5.9-3.7c0-1.2-0.4-2.2-1.9-2.2c-1,0-2,0.5-2.9,1l-0.8-1.4c1-0.6,2.4-1.3,4-1.3
							c2.5,0,3.6,1.6,3.6,4.2v6h-1.7l-0.2-1.1h-0.1c-0.9,0.8-2,1.4-3.2,1.4C498.2,21.2,497,20.1,497,18.4z M502.9,18.4V16
							c-2.9,0.4-3.9,1.1-3.9,2.2c0,1,0.7,1.4,1.5,1.4C501.4,19.6,502.1,19.2,502.9,18.4z"/>
						<path d="M507.9,18.7v-12h2.1v12.1c0,0.6,0.3,0.8,0.5,0.8c0.1,0,0.2,0,0.3,0l0.3,1.6c-0.3,0.1-0.6,0.2-1.1,0.2
							C508.5,21.2,507.9,20.3,507.9,18.7z"/>
						<path d="M516.8,18.4c0-2.1,1.8-3.2,5.9-3.7c0-1.2-0.4-2.2-1.9-2.2c-1,0-2,0.5-2.9,1l-0.8-1.4c1-0.6,2.4-1.3,4-1.3
							c2.5,0,3.6,1.6,3.6,4.2v6H523l-0.2-1.1h-0.1c-0.9,0.8-2,1.4-3.2,1.4C518,21.2,516.8,20.1,516.8,18.4z M522.7,18.4V16
							c-2.9,0.4-3.9,1.1-3.9,2.2c0,1,0.7,1.4,1.5,1.4C521.2,19.6,521.9,19.2,522.7,18.4z"/>
						<path d="M527.7,11.1h1.7l0.2,1.8h0.1c0.7-1.3,1.7-2,2.8-2c0.5,0,0.8,0.1,1.1,0.2l-0.4,1.8c-0.3-0.1-0.6-0.2-1-0.2
							c-0.8,0-1.8,0.6-2.4,2.1V21h-2.1L527.7,11.1L527.7,11.1z"/>
						<path d="M535.4,17.8v-5H534v-1.5l1.5-0.1l0.2-2.7h1.7v2.7h2.6v1.7h-2.6v5c0,1.2,0.4,1.8,1.4,1.8c0.3,0,0.8-0.1,1.1-0.2
							l0.4,1.5c-0.6,0.2-1.2,0.4-1.9,0.4C536.2,21.2,535.4,19.8,535.4,17.8z"/>
						<path d="M541.2,16.1c0-3.2,2.2-5.2,4.5-5.2c2.6,0,4,1.9,4,4.7c0,0.4,0,0.8-0.1,1h-6.4c0.2,1.9,1.4,3,3.1,3
							c0.9,0,1.6-0.3,2.4-0.7l0.7,1.3c-0.9,0.6-2.1,1-3.3,1C543.3,21.2,541.2,19.3,541.2,16.1z M548,15.2c0-1.7-0.8-2.7-2.2-2.7
							c-1.2,0-2.3,1-2.5,2.7H548z"/>
						<path d="M552.1,11.1h1.7l0.2,1.8h0.1c0.7-1.3,1.7-2,2.8-2c0.5,0,0.8,0.1,1.1,0.2l-0.4,1.8c-0.3-0.1-0.6-0.2-1-0.2
							c-0.8,0-1.8,0.6-2.4,2.1V21h-2.1L552.1,11.1L552.1,11.1z"/>
						<path d="M559.1,8c0-0.7,0.6-1.2,1.3-1.2c0.8,0,1.3,0.5,1.3,1.2s-0.6,1.2-1.3,1.2C559.7,9.2,559.1,8.7,559.1,8z M559.4,11.1
							h2.1V21h-2.1V11.1z"/>
						<path d="M564,18.4c0-2.1,1.8-3.2,5.9-3.7c0-1.2-0.4-2.2-1.9-2.2c-1,0-2,0.5-2.9,1l-0.8-1.4c1-0.6,2.4-1.3,4-1.3
							c2.5,0,3.6,1.6,3.6,4.2v6h-1.7l-0.2-1.1h-0.1c-0.9,0.8-2,1.4-3.2,1.4C565.2,21.2,564,20.1,564,18.4z M569.9,18.4V16
							c-2.9,0.4-3.9,1.1-3.9,2.2c0,1,0.7,1.4,1.5,1.4C568.4,19.6,569.1,19.2,569.9,18.4z"/>
						<path d="M574.9,18.7v-12h2.1v12.1c0,0.6,0.3,0.8,0.5,0.8c0.1,0,0.2,0,0.3,0l0.3,1.6c-0.3,0.1-0.6,0.2-1.1,0.2
							C575.5,21.2,574.9,20.3,574.9,18.7z"/>
						<path d="M583.7,16.1c0-3.2,2-5.2,4.2-5.2c1.1,0,1.9,0.4,2.7,1.1l-0.1-1.6V6.6h2.1V21h-1.7l-0.2-1.1h-0.1
							c-0.7,0.8-1.8,1.4-2.9,1.4C585.3,21.2,583.7,19.3,583.7,16.1z M590.5,18.3v-4.8c-0.7-0.7-1.4-0.9-2.2-0.9
							c-1.4,0-2.5,1.3-2.5,3.5c0,2.3,0.9,3.5,2.4,3.5C589.1,19.5,589.8,19.1,590.5,18.3z"/>
						<path d="M595.4,8c0-0.7,0.6-1.2,1.3-1.2c0.8,0,1.3,0.5,1.3,1.2s-0.6,1.2-1.3,1.2S595.4,8.7,595.4,8z M595.7,11.1h2.1V21h-2.1
							V11.1z"/>
						<path d="M599.8,19.9l1-1.3c0.9,0.7,1.7,1.1,2.8,1.1c1.2,0,1.7-0.6,1.7-1.3c0-0.9-1.1-1.3-2.2-1.7c-1.3-0.5-2.8-1.2-2.8-2.9
							s1.3-2.9,3.5-2.9c1.3,0,2.4,0.5,3.2,1.2l-1,1.3c-0.7-0.5-1.4-0.9-2.2-0.9c-1.1,0-1.6,0.5-1.6,1.2c0,0.8,1,1.2,2.1,1.6
							c1.4,0.5,2.9,1.1,2.9,3c0,1.7-1.3,3-3.8,3C602.2,21.2,600.8,20.7,599.8,19.9z"/>
						<path d="M608.8,16.1c0-3.2,2.2-5.2,4.5-5.2c2.6,0,4,1.9,4,4.7c0,0.4,0,0.8-0.1,1h-6.4c0.2,1.9,1.4,3,3.1,3
							c0.9,0,1.6-0.3,2.4-0.7l0.7,1.3c-0.9,0.6-2.1,1-3.3,1C610.9,21.2,608.8,19.3,608.8,16.1z M615.6,15.2c0-1.7-0.8-2.7-2.2-2.7
							c-1.2,0-2.3,1-2.5,2.7H615.6z"/>
						<path d="M618.8,18.4c0-2.1,1.8-3.2,5.9-3.7c0-1.2-0.4-2.2-1.9-2.2c-1,0-2,0.5-2.9,1l-0.8-1.4c1-0.6,2.4-1.3,4-1.3
							c2.5,0,3.6,1.6,3.6,4.2v6H625l-0.2-1.1h-0.1c-0.9,0.8-2,1.4-3.2,1.4C620,21.2,618.8,20.1,618.8,18.4z M624.7,18.4V16
							c-2.9,0.4-3.9,1.1-3.9,2.2c0,1,0.7,1.4,1.5,1.4C623.2,19.6,623.9,19.2,624.7,18.4z"/>
						<path d="M628.7,19.9l1-1.3c0.9,0.7,1.7,1.1,2.8,1.1c1.2,0,1.7-0.6,1.7-1.3c0-0.9-1.1-1.3-2.2-1.7c-1.3-0.5-2.8-1.2-2.8-2.9
							s1.3-2.9,3.5-2.9c1.3,0,2.4,0.5,3.2,1.2l-1,1.3c-0.7-0.5-1.4-0.9-2.2-0.9c-1.1,0-1.6,0.5-1.6,1.2c0,0.8,1,1.2,2.1,1.6
							c1.4,0.5,2.9,1.1,2.9,3c0,1.7-1.3,3-3.8,3C631.1,21.2,629.7,20.7,628.7,19.9z"/>
						<path d="M637.7,16.1c0-3.2,2.2-5.2,4.5-5.2c2.6,0,4,1.9,4,4.7c0,0.4,0,0.8-0.1,1h-6.4c0.2,1.9,1.4,3,3.1,3
							c0.9,0,1.6-0.3,2.4-0.7l0.7,1.3c-0.9,0.6-2.1,1-3.3,1C639.8,21.2,637.7,19.3,637.7,16.1z M644.5,15.2c0-1.7-0.8-2.7-2.2-2.7
							c-1.2,0-2.3,1-2.5,2.7H644.5z"/>
						<path d="M647.9,23.4c1.2-0.5,1.9-1.4,2-2.5c-0.1,0-0.1,0-0.2,0c-0.7,0-1.4-0.5-1.4-1.3s0.6-1.3,1.4-1.3c1,0,1.6,0.8,1.6,2.2
							c0,1.9-1.1,3.3-3,4.1L647.9,23.4z"/>
						<path d="M657.3,16.1c0-3.3,2.3-5.2,4.9-5.2c1.3,0,2.2,0.5,2.9,1.1l-1,1.4c-0.5-0.5-1.1-0.8-1.8-0.8c-1.7,0-2.8,1.4-2.8,3.5
							s1.1,3.5,2.8,3.5c0.8,0,1.6-0.4,2.2-0.9l0.8,1.4c-0.9,0.8-2.1,1.2-3.2,1.2C659.3,21.2,657.3,19.3,657.3,16.1z"/>
						<path d="M667.3,18.7v-12h2.1v12.1c0,0.6,0.3,0.8,0.5,0.8c0.1,0,0.2,0,0.3,0l0.3,1.6c-0.3,0.1-0.6,0.2-1.1,0.2
							C667.8,21.2,667.3,20.3,667.3,18.7z"/>
						<path d="M672.1,18.4c0-2.1,1.8-3.2,5.9-3.7c0-1.2-0.4-2.2-1.9-2.2c-1,0-2,0.5-2.9,1l-0.8-1.4c1-0.6,2.4-1.3,4-1.3
							c2.5,0,3.6,1.6,3.6,4.2v6h-1.7l-0.2-1.1H678c-0.9,0.8-2,1.4-3.2,1.4C673.3,21.2,672.1,20.1,672.1,18.4z M678,18.4V16
							c-2.9,0.4-3.9,1.1-3.9,2.2c0,1,0.7,1.4,1.5,1.4C676.5,19.6,677.2,19.2,678,18.4z"/>
						<path d="M682.9,17.3v-6.2h2.1v6c0,1.7,0.5,2.4,1.7,2.4c0.9,0,1.5-0.4,2.4-1.5v-6.9h2.1V21h-1.7l-0.2-1.5h-0.1
							c-0.9,1-1.9,1.7-3.2,1.7C683.8,21.2,682.9,19.8,682.9,17.3z"/>
						<path d="M693.5,16.1c0-3.2,2-5.2,4.2-5.2c1.1,0,1.9,0.4,2.7,1.1l-0.1-1.6V6.6h2.1V21h-1.7l-0.2-1.1h-0.1
							c-0.7,0.8-1.8,1.4-2.9,1.4C695.1,21.2,693.5,19.3,693.5,16.1z M700.3,18.3v-4.8c-0.7-0.7-1.4-0.9-2.2-0.9
							c-1.4,0-2.5,1.3-2.5,3.5c0,2.3,0.9,3.5,2.4,3.5C698.9,19.5,699.6,19.1,700.3,18.3z"/>
						<path d="M705.2,8c0-0.7,0.6-1.2,1.3-1.2c0.8,0,1.3,0.5,1.3,1.2s-0.6,1.2-1.3,1.2S705.2,8.7,705.2,8z M705.5,11.1h2.1V21h-2.1
							V11.1z"/>
						<path d="M710,16.1c0-3.3,2.3-5.2,4.9-5.2c1.3,0,2.2,0.5,2.9,1.1l-1,1.4c-0.5-0.5-1.1-0.8-1.8-0.8c-1.7,0-2.8,1.4-2.8,3.5
							s1.1,3.5,2.8,3.5c0.8,0,1.6-0.4,2.2-0.9l0.8,1.4c-0.9,0.8-2.1,1.2-3.2,1.2C712,21.2,710,19.3,710,16.1z"/>
						<path d="M719.2,18.4c0-2.1,1.8-3.2,5.9-3.7c0-1.2-0.4-2.2-1.9-2.2c-1,0-2,0.5-2.9,1l-0.8-1.4c1-0.6,2.4-1.3,4-1.3
							c2.5,0,3.6,1.6,3.6,4.2v6h-1.7l-0.2-1.1h-0.1c-0.9,0.8-2,1.4-3.2,1.4C720.4,21.2,719.2,20.1,719.2,18.4z M725.1,18.4V16
							c-2.9,0.4-3.9,1.1-3.9,2.2c0,1,0.7,1.4,1.5,1.4C723.6,19.6,724.3,19.2,725.1,18.4z"/>
						<path d="M730.1,17.8v-5h-1.4v-1.5l1.5-0.1l0.2-2.7h1.7v2.7h2.6v1.7h-2.6v5c0,1.2,0.4,1.8,1.4,1.8c0.3,0,0.8-0.1,1.1-0.2
							L735,21c-0.6,0.2-1.2,0.4-1.9,0.4C730.9,21.2,730.1,19.8,730.1,17.8z"/>
						<path d="M736.6,8c0-0.7,0.6-1.2,1.3-1.2s1.3,0.5,1.3,1.2s-0.6,1.2-1.3,1.2S736.6,8.7,736.6,8z M736.9,11.1h2.1V21h-2.1V11.1z"
							/>
						<path d="M741.4,16.1c0-3.3,2.2-5.2,4.7-5.2c2.4,0,4.7,1.9,4.7,5.2s-2.2,5.2-4.7,5.2C743.6,21.2,741.4,19.3,741.4,16.1z
							 M748.6,16.1c0-2.1-1-3.5-2.5-3.5s-2.5,1.4-2.5,3.5s1,3.5,2.5,3.5C747.6,19.5,748.6,18.2,748.6,16.1z"/>
						<path d="M753.2,11.1h1.7l0.2,1.4h0.1c0.9-0.9,1.9-1.6,3.3-1.6c2.1,0,3,1.4,3,3.9V21h-2.1v-6c0-1.7-0.5-2.4-1.7-2.4
							c-0.9,0-1.5,0.5-2.4,1.3v7h-2.1V11.1z"/>
						<path d="M763.8,23.4c1.2-0.5,1.9-1.4,2-2.5c-0.1,0-0.1,0-0.2,0c-0.7,0-1.4-0.5-1.4-1.3s0.6-1.3,1.4-1.3c1,0,1.6,0.8,1.6,2.2
							c0,1.9-1.1,3.3-3,4.1L763.8,23.4z"/>
						<path d="M773.1,16.1c0-3.3,2.3-5.2,4.9-5.2c1.3,0,2.2,0.5,2.9,1.1l-1,1.4c-0.5-0.5-1.1-0.8-1.8-0.8c-1.7,0-2.8,1.4-2.8,3.5
							s1.1,3.5,2.8,3.5c0.8,0,1.6-0.4,2.2-0.9L781,20c-0.9,0.8-2.1,1.2-3.2,1.2C775.2,21.2,773.1,19.3,773.1,16.1z"/>
						<path d="M781.9,16.1c0-3.3,2.2-5.2,4.7-5.2s4.7,1.9,4.7,5.2s-2.2,5.2-4.7,5.2S781.9,19.3,781.9,16.1z M789.1,16.1
							c0-2.1-1-3.5-2.5-3.5s-2.5,1.4-2.5,3.5s1,3.5,2.5,3.5C788.2,19.5,789.1,18.2,789.1,16.1z"/>
						<path d="M793.7,11.1h1.7l0.2,1.8h0.1c0.7-1.3,1.7-2,2.8-2c0.5,0,0.8,0.1,1.1,0.2l-0.4,1.8c-0.3-0.1-0.6-0.2-1-0.2
							c-0.8,0-1.8,0.6-2.4,2.1V21h-2.1L793.7,11.1L793.7,11.1z"/>
						<path d="M800.2,16.1c0-3.3,2.2-5.2,4.7-5.2c2.4,0,4.7,1.9,4.7,5.2s-2.2,5.2-4.7,5.2C802.4,21.2,800.2,19.3,800.2,16.1z
							 M807.4,16.1c0-2.1-1-3.5-2.5-3.5s-2.5,1.4-2.5,3.5s1,3.5,2.5,3.5C806.4,19.5,807.4,18.2,807.4,16.1z"/>
						<path d="M811.9,11.1h1.7l0.2,1.4h0.1c0.9-0.9,1.9-1.6,3.3-1.6c2.1,0,3,1.4,3,3.9V21h-2.1v-6c0-1.7-0.5-2.4-1.7-2.4
							c-0.9,0-1.5,0.5-2.4,1.3v7h-2.1V11.1z"/>
						<path d="M822.6,18.4c0-2.1,1.8-3.2,5.9-3.7c0-1.2-0.4-2.2-1.9-2.2c-1,0-2,0.5-2.9,1l-0.8-1.4c1-0.6,2.4-1.3,4-1.3
							c2.5,0,3.6,1.6,3.6,4.2v6h-1.7l-0.2-1.1h-0.1c-0.9,0.8-2,1.4-3.2,1.4C823.8,21.2,822.6,20.1,822.6,18.4z M828.5,18.4V16
							c-2.9,0.4-3.9,1.1-3.9,2.2c0,1,0.7,1.4,1.5,1.4C827,19.6,827.7,19.2,828.5,18.4z"/>
						<path d="M833.5,11.1h1.7l0.2,1.8h0.1c0.7-1.3,1.7-2,2.8-2c0.5,0,0.8,0.1,1.1,0.2l-0.4,1.8c-0.3-0.1-0.6-0.2-1-0.2
							c-0.8,0-1.8,0.6-2.4,2.1V21h-2.1L833.5,11.1L833.5,11.1z"/>
						<path d="M845.6,21.6c-0.8,2.1-1.8,3.5-3.9,3.5c-0.5,0-0.9-0.1-1.2-0.2l0.4-1.6c0.2,0.1,0.5,0.1,0.7,0.1c1.1,0,1.7-0.8,2.1-1.9
							l0.2-0.7L840,11h2.1l1.8,5.1c0.3,0.9,0.6,1.9,0.9,2.8h0.1l0.8-2.8l1.6-5.1h2L845.6,21.6z"/>
						<path d="M854.5,18.4c0-2.1,1.8-3.2,5.9-3.7c0-1.2-0.4-2.2-1.9-2.2c-1,0-2,0.5-2.9,1l-0.8-1.4c1-0.6,2.4-1.3,4-1.3
							c2.5,0,3.6,1.6,3.6,4.2v6h-1.7l-0.2-1.1h-0.1c-0.9,0.8-2,1.4-3.2,1.4C855.7,21.2,854.5,20.1,854.5,18.4z M860.4,18.4V16
							c-2.9,0.4-3.9,1.1-3.9,2.2c0,1,0.7,1.4,1.5,1.4C858.9,19.6,859.6,19.2,860.4,18.4z"/>
						<path d="M865.4,11.1h1.7l0.2,1.8h0.1c0.7-1.3,1.7-2,2.8-2c0.5,0,0.8,0.1,1.1,0.2l-0.4,1.8c-0.3-0.1-0.6-0.2-1-0.2
							c-0.8,0-1.8,0.6-2.4,2.1V21h-2.1L865.4,11.1L865.4,11.1z"/>
						<path d="M873.1,17.8v-5h-1.4v-1.5l1.5-0.1l0.2-2.7h1.7v2.7h2.6v1.7h-2.6v5c0,1.2,0.4,1.8,1.4,1.8c0.3,0,0.8-0.1,1.1-0.2
							L878,21c-0.6,0.2-1.2,0.4-1.9,0.4C873.9,21.2,873.1,19.8,873.1,17.8z"/>
						<path d="M878.9,16.1c0-3.2,2.2-5.2,4.5-5.2c2.6,0,4,1.9,4,4.7c0,0.4,0,0.8-0.1,1H881c0.2,1.9,1.4,3,3.1,3
							c0.9,0,1.6-0.3,2.4-0.7l0.7,1.3c-0.9,0.6-2.1,1-3.3,1C881.1,21.2,878.9,19.3,878.9,16.1z M885.7,15.2c0-1.7-0.8-2.7-2.2-2.7
							c-1.2,0-2.3,1-2.5,2.7H885.7z"/>
						<path d="M889.8,11.1h1.7l0.2,1.8h0.1c0.7-1.3,1.7-2,2.8-2c0.5,0,0.8,0.1,1.1,0.2l-0.4,1.8c-0.3-0.1-0.6-0.2-1-0.2
							c-0.8,0-1.8,0.6-2.4,2.1V21h-2.1L889.8,11.1L889.8,11.1z"/>
						<path d="M901.9,21.6c-0.8,2.1-1.8,3.5-3.9,3.5c-0.5,0-0.9-0.1-1.2-0.2l0.4-1.6c0.2,0.1,0.5,0.1,0.7,0.1c1.1,0,1.7-0.8,2.1-1.9
							l0.2-0.7l-3.9-9.8h2.1l1.8,5.1c0.3,0.9,0.6,1.9,0.9,2.8h0.1l0.8-2.8l1.6-5.1h2L901.9,21.6z"/>
						<path d="M910.7,16.1c0-3.2,2-5.2,4.2-5.2c1.1,0,1.9,0.4,2.7,1.1l-0.1-1.6V6.6h2.1V21h-1.7l-0.2-1.1h-0.1
							c-0.7,0.8-1.8,1.4-2.9,1.4C912.3,21.2,910.7,19.3,910.7,16.1z M917.5,18.3v-4.8c-0.7-0.7-1.4-0.9-2.2-0.9
							c-1.4,0-2.5,1.3-2.5,3.5c0,2.3,0.9,3.5,2.4,3.5C916.1,19.5,916.8,19.1,917.5,18.3z"/>
						<path d="M922.4,8c0-0.7,0.6-1.2,1.3-1.2S925,7.3,925,8s-0.6,1.2-1.3,1.2S922.4,8.7,922.4,8z M922.7,11.1h2.1V21h-2.1V11.1z"/>
						<path d="M926.9,19.9l1-1.3c0.9,0.7,1.7,1.1,2.8,1.1c1.2,0,1.7-0.6,1.7-1.3c0-0.9-1.1-1.3-2.2-1.7c-1.3-0.5-2.8-1.2-2.8-2.9
							s1.3-2.9,3.5-2.9c1.3,0,2.4,0.5,3.2,1.2l-1,1.3c-0.7-0.5-1.4-0.9-2.2-0.9c-1.1,0-1.6,0.5-1.6,1.2c0,0.8,1,1.2,2.1,1.6
							c1.4,0.5,2.9,1.1,2.9,3c0,1.7-1.3,3-3.8,3C929.2,21.2,927.8,20.7,926.9,19.9z"/>
						<path d="M935.8,16.1c0-3.2,2.2-5.2,4.5-5.2c2.6,0,4,1.9,4,4.7c0,0.4,0,0.8-0.1,1h-6.4c0.2,1.9,1.4,3,3.1,3
							c0.9,0,1.6-0.3,2.4-0.7l0.7,1.3c-0.9,0.6-2.1,1-3.3,1C938,21.2,935.8,19.3,935.8,16.1z M942.6,15.2c0-1.7-0.8-2.7-2.2-2.7
							c-1.2,0-2.3,1-2.5,2.7H942.6z"/>
						<path d="M945.9,18.4c0-2.1,1.8-3.2,5.9-3.7c0-1.2-0.4-2.2-1.9-2.2c-1,0-2,0.5-2.9,1l-0.8-1.4c1-0.6,2.4-1.3,4-1.3
							c2.5,0,3.6,1.6,3.6,4.2v6h-1.7l-0.2-1.1h-0.1c-0.9,0.8-2,1.4-3.2,1.4C947.1,21.2,945.9,20.1,945.9,18.4z M951.8,18.4V16
							c-2.9,0.4-3.9,1.1-3.9,2.2c0,1,0.7,1.4,1.5,1.4C950.3,19.6,951,19.2,951.8,18.4z"/>
						<path d="M955.7,19.9l1-1.3c0.9,0.7,1.7,1.1,2.8,1.1c1.2,0,1.7-0.6,1.7-1.3c0-0.9-1.1-1.3-2.2-1.7c-1.3-0.5-2.8-1.2-2.8-2.9
							s1.3-2.9,3.5-2.9c1.3,0,2.4,0.5,3.2,1.2l-1,1.3c-0.7-0.5-1.4-0.9-2.2-0.9c-1.1,0-1.6,0.5-1.6,1.2c0,0.8,1,1.2,2.1,1.6
							c1.4,0.5,2.9,1.1,2.9,3c0,1.7-1.3,3-3.8,3C958.1,21.2,956.7,20.7,955.7,19.9z"/>
						<path d="M964.7,16.1c0-3.2,2.2-5.2,4.5-5.2c2.6,0,4,1.9,4,4.7c0,0.4,0,0.8-0.1,1h-6.4c0.2,1.9,1.4,3,3.1,3
							c0.9,0,1.6-0.3,2.4-0.7l0.7,1.3c-0.9,0.6-2.1,1-3.3,1C966.9,21.2,964.7,19.3,964.7,16.1z M971.5,15.2c0-1.7-0.8-2.7-2.2-2.7
							c-1.2,0-2.3,1-2.5,2.7H971.5z"/>
					</g>
					<path id="divider" class="st3" d="M0,42.5h1000"/>
				</g>
				<g id="cell2" transform="translate(0.000000, 123.000000)">
					<g class="st1">
						<path d="M99.5,10.9h2.2l0.2,1h0.1c0.8-0.7,1.9-1.3,3-1.3c2.5,0,4,2,4,5.1c0,3.5-2.1,5.5-4.3,5.5c-0.9,0-1.7-0.4-2.5-1.1
							l0.1,1.7v3.1h-2.6v-14H99.5z M106.1,15.8c0-1.9-0.6-3-2-3c-0.7,0-1.3,0.3-2,1v4.4c0.6,0.6,1.3,0.8,1.8,0.8
							C105.2,19.1,106.1,18,106.1,15.8z"/>
						<path d="M111.3,7.7h3l2.3,6.2c0.3,0.8,0.5,1.7,0.8,2.6h0.1c0.3-0.9,0.5-1.7,0.8-2.6l2.2-6.2h3V21h-2.4v-5.6
							c0-1.3,0.2-3.1,0.3-4.4h-0.1l-1.1,3.1l-2.1,5.6h-1.5l-2.1-5.6l-1.1-3.1h-0.1c0.1,1.3,0.3,3.1,0.3,4.4V21h-2.4L111.3,7.7
							L111.3,7.7z"/>
						<path d="M126.6,15V7.7h2.7v7.6c0,2.8,1,3.7,2.5,3.7c1.6,0,2.6-0.9,2.6-3.7V7.7h2.6V15c0,4.4-1.9,6.2-5.1,6.2
							C128.5,21.3,126.6,19.4,126.6,15z"/>
						<path d="M140.1,7.7h2.7l3.9,7.1l1.3,2.9h0.1c-0.1-1.4-0.3-3.2-0.3-4.7V7.7h2.5V21h-2.7l-3.9-7.1l-1.4-2.9h-0.1
							c0.1,1.4,0.3,3.1,0.3,4.6V21H140L140.1,7.7L140.1,7.7z"/>
					</g>
					<g class="st1">
						<path d="M285.9,11.1h1.7l0.2,1.4h0.1c0.8-0.9,1.8-1.6,3.1-1.6c1.5,0,2.3,0.7,2.7,1.8c1-1,2-1.8,3.2-1.8c2.1,0,3,1.4,3,3.9V21
							h-2.1v-6c0-1.7-0.5-2.4-1.7-2.4c-0.7,0-1.4,0.5-2.2,1.3v7h-2.1v-6c0-1.7-0.5-2.4-1.7-2.4c-0.7,0-1.4,0.5-2.2,1.3v7h-2.1
							L285.9,11.1C285.8,11.1,285.9,11.1,285.9,11.1z"/>
						<path d="M302.7,17.3v-6.2h2.1v6c0,1.7,0.5,2.4,1.7,2.4c0.9,0,1.5-0.4,2.4-1.5v-6.9h2.1V21h-1.8l-0.2-1.5h-0.1
							c-0.9,1-1.9,1.7-3.2,1.7C303.6,21.2,302.7,19.8,302.7,17.3z"/>
						<path d="M312.9,19.9l1-1.3c0.9,0.7,1.7,1.1,2.8,1.1c1.2,0,1.7-0.6,1.7-1.3c0-0.9-1.1-1.3-2.2-1.7c-1.3-0.5-2.8-1.2-2.8-2.9
							s1.3-2.9,3.5-2.9c1.3,0,2.4,0.5,3.2,1.2l-1,1.3c-0.7-0.5-1.4-0.9-2.2-0.9c-1.1,0-1.6,0.5-1.6,1.2c0,0.8,1,1.2,2.1,1.6
							c1.4,0.5,2.9,1.1,2.9,3c0,1.7-1.3,3-3.8,3C315.3,21.2,313.9,20.7,312.9,19.9z"/>
						<path d="M321.9,16.1c0-3.3,2.3-5.2,4.9-5.2c1.3,0,2.2,0.5,2.9,1.1l-1,1.4c-0.5-0.5-1.1-0.8-1.8-0.8c-1.7,0-2.8,1.4-2.8,3.5
							s1.1,3.5,2.8,3.5c0.8,0,1.6-0.4,2.2-0.9l0.8,1.4c-0.9,0.8-2.1,1.2-3.2,1.2C324,21.2,321.9,19.3,321.9,16.1z"/>
						<path d="M331.8,17.3v-6.2h2.1v6c0,1.7,0.5,2.4,1.7,2.4c0.9,0,1.5-0.4,2.4-1.5v-6.9h2.1V21h-1.7l-0.2-1.5h-0.1
							c-0.9,1-1.9,1.7-3.2,1.7C332.7,21.2,331.8,19.8,331.8,17.3z"/>
						<path d="M343.1,18.7v-12h2.1v12.1c0,0.6,0.3,0.8,0.5,0.8c0.1,0,0.2,0,0.3,0l0.3,1.6c-0.3,0.1-0.6,0.2-1.1,0.2
							C343.6,21.2,343.1,20.3,343.1,18.7z"/>
						<path d="M347.9,18.4c0-2.1,1.8-3.2,5.9-3.7c0-1.2-0.4-2.2-1.9-2.2c-1,0-2,0.5-2.9,1l-0.8-1.4c1-0.6,2.4-1.3,4-1.3
							c2.5,0,3.6,1.6,3.6,4.2v6h-1.6l-0.2-1.1h-0.1c-0.9,0.8-2,1.4-3.2,1.4C349.1,21.2,347.9,20.1,347.9,18.4z M353.8,18.4V16
							c-2.9,0.4-3.9,1.1-3.9,2.2c0,1,0.7,1.4,1.5,1.4C352.3,19.6,353,19.2,353.8,18.4z"/>
						<path d="M358.8,11.1h1.7l0.2,1.8h0.1c0.7-1.3,1.7-2,2.8-2c0.5,0,0.8,0.1,1.1,0.2l-0.4,1.8c-0.3-0.1-0.6-0.2-1-0.2
							c-0.8,0-1.8,0.6-2.4,2.1V21h-2.1V11.1L358.8,11.1z"/>
						<path d="M369.6,18.4c0-2.1,1.8-3.2,5.9-3.7c0-1.2-0.4-2.2-1.9-2.2c-1,0-2,0.5-2.9,1l-0.8-1.4c1-0.6,2.4-1.3,4-1.3
							c2.5,0,3.6,1.6,3.6,4.2v6h-1.7l-0.2-1.1h-0.1c-0.9,0.8-2,1.4-3.2,1.4C370.8,21.2,369.6,20.1,369.6,18.4z M375.5,18.4V16
							c-2.9,0.4-3.9,1.1-3.9,2.2c0,1,0.7,1.4,1.5,1.4C374,19.6,374.7,19.2,375.5,18.4z"/>
						<path d="M380.6,17.8v-5h-1.4v-1.5l1.5-0.1l0.2-2.7h1.7v2.7h2.6v1.7h-2.6v5c0,1.2,0.4,1.8,1.4,1.8c0.3,0,0.8-0.1,1.1-0.2
							l0.4,1.5c-0.6,0.2-1.2,0.4-1.9,0.4C381.3,21.2,380.6,19.8,380.6,17.8z"/>
						<path d="M387.4,11.1h1.7l0.2,1.8h0.1c0.7-1.3,1.7-2,2.8-2c0.5,0,0.8,0.1,1.1,0.2l-0.4,1.8c-0.3-0.1-0.6-0.2-1-0.2
							c-0.8,0-1.8,0.6-2.4,2.1V21h-2.1L387.4,11.1L387.4,11.1z"/>
						<path d="M393.8,16.1c0-3.3,2.2-5.2,4.7-5.2c2.4,0,4.7,1.9,4.7,5.2s-2.2,5.2-4.7,5.2C396,21.2,393.8,19.3,393.8,16.1z
							 M401,16.1c0-2.1-1-3.5-2.5-3.5S396,14,396,16.1s1,3.5,2.5,3.5C400.1,19.5,401,18.2,401,16.1z"/>
						<path d="M405.6,11.1h1.7l0.2,1.1h0.1c0.9-0.7,1.9-1.3,3-1.3c2.5,0,3.9,2,3.9,5c0,3.4-2,5.3-4.3,5.3c-0.9,0-1.8-0.4-2.6-1.1
							l0.1,1.7V25h-2.1L405.6,11.1L405.6,11.1z M412.3,15.9c0-2.1-0.7-3.3-2.3-3.3c-0.8,0-1.5,0.4-2.4,1.2v4.8
							c0.8,0.7,1.5,0.9,2.2,0.9C411.2,19.5,412.3,18.2,412.3,15.9z"/>
						<path d="M416.9,6.6h2.1v3.8l-0.1,2c0.9-0.8,1.9-1.6,3.2-1.6c2.1,0,3,1.4,3,3.9V21H423v-6c0-1.7-0.5-2.4-1.7-2.4
							c-0.9,0-1.5,0.5-2.4,1.3v7h-2.1L416.9,6.6L416.9,6.6z"/>
						<path d="M432.5,21.6c-0.8,2.1-1.8,3.5-3.9,3.5c-0.5,0-0.9-0.1-1.2-0.2l0.4-1.6c0.2,0.1,0.5,0.1,0.7,0.1c1.1,0,1.7-0.8,2.1-1.9
							l0.2-0.7l-3.9-9.8h2.1l1.8,5.1c0.3,0.9,0.6,1.9,0.9,2.8h0.1l0.8-2.8l1.6-5.1h2L432.5,21.6z"/>
						<path d="M436.4,23.4c1.2-0.5,1.9-1.4,2-2.5c-0.1,0-0.1,0-0.2,0c-0.7,0-1.4-0.5-1.4-1.3s0.6-1.3,1.4-1.3c1,0,1.6,0.8,1.6,2.2
							c0,1.9-1.1,3.3-3,4.1L436.4,23.4z"/>
						<path d="M445.4,19.9l1-1.3c0.9,0.7,1.7,1.1,2.8,1.1c1.2,0,1.7-0.6,1.7-1.3c0-0.9-1.1-1.3-2.2-1.7c-1.3-0.5-2.8-1.2-2.8-2.9
							s1.3-2.9,3.5-2.9c1.3,0,2.4,0.5,3.2,1.2l-1,1.3c-0.7-0.5-1.4-0.9-2.2-0.9c-1.1,0-1.6,0.5-1.6,1.2c0,0.8,1,1.2,2.1,1.6
							c1.4,0.5,2.9,1.1,2.9,3c0,1.7-1.3,3-3.8,3C447.8,21.2,446.4,20.7,445.4,19.9z"/>
						<path d="M454.5,18.4c0-2.1,1.8-3.2,5.9-3.7c0-1.2-0.4-2.2-1.9-2.2c-1,0-2,0.5-2.9,1l-0.8-1.4c1-0.6,2.4-1.3,4-1.3
							c2.5,0,3.6,1.6,3.6,4.2v6h-1.7l-0.2-1.1h-0.1c-0.9,0.8-2,1.4-3.2,1.4C455.7,21.2,454.5,20.1,454.5,18.4z M460.4,18.4V16
							c-2.9,0.4-3.9,1.1-3.9,2.2c0,1,0.7,1.4,1.5,1.4C458.9,19.6,459.6,19.2,460.4,18.4z"/>
						<path d="M465.4,11.1h1.7l0.2,1.8h0.1c0.7-1.3,1.7-2,2.8-2c0.5,0,0.8,0.1,1.1,0.2l-0.4,1.8c-0.3-0.1-0.6-0.2-1-0.2
							c-0.8,0-1.8,0.6-2.4,2.1V21h-2.1L465.4,11.1L465.4,11.1z"/>
						<path d="M471.9,16.1c0-3.3,2.3-5.2,4.9-5.2c1.3,0,2.2,0.5,2.9,1.1l-1,1.4c-0.5-0.5-1.1-0.8-1.8-0.8c-1.7,0-2.8,1.4-2.8,3.5
							s1.1,3.5,2.8,3.5c0.8,0,1.6-0.4,2.2-0.9l0.8,1.4c-0.9,0.8-2.1,1.2-3.2,1.2C474,21.2,471.9,19.3,471.9,16.1z"/>
						<path d="M480.7,16.1c0-3.3,2.2-5.2,4.7-5.2c2.4,0,4.7,1.9,4.7,5.2s-2.2,5.2-4.7,5.2C483,21.2,480.7,19.3,480.7,16.1z
							 M487.9,16.1c0-2.1-1-3.5-2.5-3.5s-2.5,1.4-2.5,3.5s1,3.5,2.5,3.5C487,19.5,487.9,18.2,487.9,16.1z"/>
						<path d="M492.5,11.1h1.7l0.2,1.1h0.1c0.9-0.7,1.9-1.3,3-1.3c2.5,0,3.9,2,3.9,5c0,3.4-2,5.3-4.3,5.3c-0.9,0-1.8-0.4-2.6-1.1
							l0.1,1.7V25h-2.1L492.5,11.1L492.5,11.1z M499.2,15.9c0-2.1-0.7-3.3-2.3-3.3c-0.8,0-1.5,0.4-2.4,1.2v4.8
							c0.8,0.7,1.5,0.9,2.2,0.9C498.1,19.5,499.2,18.2,499.2,15.9z"/>
						<path d="M503.1,16.1c0-3.2,2.2-5.2,4.5-5.2c2.6,0,4,1.9,4,4.7c0,0.4,0,0.8-0.1,1h-6.3c0.2,1.9,1.3,3,3.1,3
							c0.9,0,1.6-0.3,2.4-0.7l0.7,1.3c-0.9,0.6-2.1,1-3.3,1C505.3,21.2,503.1,19.3,503.1,16.1z M509.9,15.2c0-1.7-0.8-2.7-2.2-2.7
							c-1.2,0-2.3,1-2.5,2.7H509.9z"/>
						<path d="M514,11.1h1.7l0.2,1.4h0.1c0.9-0.9,1.9-1.6,3.3-1.6c2.1,0,3,1.4,3,3.9V21h-2.1v-6c0-1.7-0.5-2.4-1.7-2.4
							c-0.9,0-1.5,0.5-2.4,1.3v7H514V11.1z"/>
						<path d="M524.9,8c0-0.7,0.6-1.2,1.3-1.2c0.8,0,1.3,0.5,1.3,1.2s-0.6,1.2-1.3,1.2S524.9,8.7,524.9,8z M525.2,11.1h2.1V21h-2.1
							V11.1z"/>
						<path d="M529.8,18.4c0-2.1,1.8-3.2,5.9-3.7c0-1.2-0.4-2.2-1.9-2.2c-1,0-2,0.5-2.9,1l-0.8-1.4c1-0.6,2.4-1.3,4-1.3
							c2.5,0,3.6,1.6,3.6,4.2v6h-1.7l-0.2-1.1h-0.1c-0.9,0.8-2,1.4-3.2,1.4C531,21.2,529.8,20.1,529.8,18.4z M535.7,18.4V16
							c-2.9,0.4-3.9,1.1-3.9,2.2c0,1,0.7,1.4,1.5,1.4C534.2,19.6,534.9,19.2,535.7,18.4z"/>
						<path d="M540.1,23.4c1.2-0.5,1.9-1.4,2-2.5c-0.1,0-0.1,0-0.2,0c-0.7,0-1.4-0.5-1.4-1.3s0.6-1.3,1.4-1.3c1,0,1.6,0.8,1.6,2.2
							c0,1.9-1.1,3.3-3,4.1L540.1,23.4z"/>
						<path d="M550.5,17.8v-5H549v-1.5l1.5-0.1l0.2-2.7h1.7v2.7h2.6v1.7h-2.6v5c0,1.2,0.4,1.8,1.4,1.8c0.3,0,0.8-0.1,1.1-0.2
							l0.4,1.5c-0.6,0.2-1.2,0.4-1.9,0.4C551.3,21.2,550.5,19.8,550.5,17.8z"/>
						<path d="M557.3,11.1h1.7l0.2,1.8h0.1c0.7-1.3,1.7-2,2.8-2c0.5,0,0.8,0.1,1.1,0.2l-0.4,1.8c-0.3-0.1-0.6-0.2-1-0.2
							c-0.8,0-1.8,0.6-2.4,2.1V21h-2.1L557.3,11.1L557.3,11.1z"/>
						<path d="M563.6,18.4c0-2.1,1.8-3.2,5.9-3.7c0-1.2-0.4-2.2-1.9-2.2c-1,0-2,0.5-2.9,1l-0.8-1.4c1-0.6,2.4-1.3,4-1.3
							c2.5,0,3.6,1.6,3.6,4.2v6h-1.7l-0.2-1.1h-0.1c-0.9,0.8-2,1.4-3.2,1.4C564.8,21.2,563.6,20.1,563.6,18.4z M569.5,18.4V16
							c-2.9,0.4-3.9,1.1-3.9,2.2c0,1,0.7,1.4,1.5,1.4C568,19.6,568.7,19.2,569.5,18.4z"/>
						<path d="M574.4,17.3v-6.2h2.1v6c0,1.7,0.5,2.4,1.7,2.4c0.9,0,1.5-0.4,2.4-1.5v-6.9h2.1V21H581l-0.2-1.5h-0.1
							c-0.9,1-1.9,1.7-3.2,1.7C575.3,21.2,574.4,19.8,574.4,17.3z"/>
						<path d="M585.7,11.1h1.7l0.2,1.4h0.1c0.8-0.9,1.8-1.6,3.1-1.6c1.5,0,2.3,0.7,2.7,1.8c1-1,2-1.8,3.2-1.8c2.1,0,3,1.4,3,3.9V21
							h-2.1v-6c0-1.7-0.5-2.4-1.7-2.4c-0.7,0-1.4,0.5-2.2,1.3v7h-2.1v-6c0-1.7-0.5-2.4-1.7-2.4c-0.7,0-1.4,0.5-2.2,1.3v7h-2.1
							L585.7,11.1L585.7,11.1z"/>
						<path d="M602,18.4c0-2.1,1.8-3.2,5.9-3.7c0-1.2-0.4-2.2-1.9-2.2c-1,0-2,0.5-2.9,1l-0.8-1.4c1-0.6,2.4-1.3,4-1.3
							c2.5,0,3.6,1.6,3.6,4.2v6h-1.7l-0.2-1.1h-0.1c-0.9,0.8-2,1.4-3.2,1.4C603.2,21.2,602,20.1,602,18.4z M608,18.4V16
							c-2.9,0.4-3.9,1.1-3.9,2.2c0,1,0.7,1.4,1.5,1.4C606.4,19.6,607.1,19.2,608,18.4z"/>
						<path d="M613,17.8v-5h-1.4v-1.5l1.5-0.1l0.2-2.7h1.7v2.7h2.6v1.7H615v5c0,1.2,0.4,1.8,1.4,1.8c0.3,0,0.8-0.1,1.1-0.2l0.4,1.5
							c-0.6,0.2-1.2,0.4-1.9,0.4C613.8,21.2,613,19.8,613,17.8z"/>
						<path d="M619.5,8c0-0.7,0.6-1.2,1.3-1.2c0.8,0,1.3,0.5,1.3,1.2s-0.6,1.2-1.3,1.2C620.1,9.2,619.5,8.7,619.5,8z M619.8,11.1
							h2.1V21h-2.1V11.1z"/>
						<path d="M624.2,16.1c0-3.3,2.3-5.2,4.9-5.2c1.3,0,2.2,0.5,2.9,1.1l-1,1.4c-0.5-0.5-1.1-0.8-1.8-0.8c-1.7,0-2.8,1.4-2.8,3.5
							s1.1,3.5,2.8,3.5c0.8,0,1.6-0.4,2.2-0.9l0.8,1.3c-0.9,0.8-2.1,1.2-3.2,1.2C626.3,21.2,624.2,19.3,624.2,16.1z"/>
						<path d="M638.3,11.1h1.7l0.2,1.4h0.1c0.9-0.9,1.9-1.6,3.3-1.6c2.1,0,3,1.4,3,3.9V21h-2.1v-6c0-1.7-0.5-2.4-1.7-2.4
							c-0.9,0-1.5,0.5-2.4,1.3v7h-2.1V11.1z"/>
						<path d="M648.8,16.1c0-3.2,2.2-5.2,4.5-5.2c2.6,0,4,1.9,4,4.7c0,0.4,0,0.8-0.1,1h-6.4c0.2,1.9,1.4,3,3.1,3
							c0.9,0,1.6-0.3,2.4-0.7l0.7,1.3c-0.9,0.6-2.1,1-3.3,1C651,21.2,648.8,19.3,648.8,16.1z M655.6,15.2c0-1.7-0.8-2.7-2.2-2.7
							c-1.2,0-2.3,1-2.5,2.7H655.6z"/>
						<path d="M659.7,11.1h1.7l0.2,1.8h0.1c0.7-1.3,1.7-2,2.8-2c0.5,0,0.8,0.1,1.1,0.2l-0.4,1.8c-0.3-0.1-0.6-0.2-1-0.2
							c-0.8,0-1.8,0.6-2.4,2.1V21h-2.1L659.7,11.1L659.7,11.1z"/>
						<path d="M666.1,11.1h2.1l1.7,5.3c0.3,1,0.6,2,0.9,3h0.1c0.3-1,0.6-2,0.9-3l1.7-5.3h2l-3.4,9.9h-2.4L666.1,11.1z"/>
						<path d="M676.5,16.1c0-3.2,2.2-5.2,4.5-5.2c2.6,0,4,1.9,4,4.7c0,0.4,0,0.8-0.1,1h-6.4c0.2,1.9,1.4,3,3.1,3
							c0.9,0,1.6-0.3,2.4-0.7l0.7,1.3c-0.9,0.6-2.1,1-3.3,1C678.6,21.2,676.5,19.3,676.5,16.1z M683.2,15.2c0-1.7-0.8-2.7-2.2-2.7
							c-1.2,0-2.3,1-2.5,2.7H683.2z"/>
						<path d="M691.1,8c0-0.7,0.6-1.2,1.3-1.2c0.8,0,1.3,0.5,1.3,1.2s-0.6,1.2-1.3,1.2S691.1,8.7,691.1,8z M691.4,11.1h2.1V21h-2.1
							V11.1z"/>
						<path d="M696.6,11.1h1.7l0.2,1.4h0.1c0.9-0.9,1.9-1.6,3.3-1.6c2.1,0,3,1.4,3,3.9V21h-2.1v-6c0-1.7-0.5-2.4-1.7-2.4
							c-0.9,0-1.5,0.5-2.4,1.3v7h-2.1V11.1z"/>
						<path d="M705.4,25l0.4-1.5c0.3,0.1,0.6,0.2,0.9,0.2c0.9,0,1.2-0.7,1.2-1.8V11.1h2.1v10.6c0,2.1-0.8,3.5-3,3.5
							C706.2,25.3,705.7,25.1,705.4,25z M707.5,8c0-0.7,0.6-1.2,1.3-1.2c0.8,0,1.3,0.5,1.3,1.2s-0.6,1.2-1.3,1.2
							C708.1,9.2,707.5,8.7,707.5,8z"/>
						<path d="M712.8,17.3v-6.2h2.1v6c0,1.7,0.5,2.4,1.7,2.4c0.9,0,1.5-0.4,2.4-1.5v-6.9h2.1V21h-1.7l-0.2-1.5H719
							c-0.9,1-1.9,1.7-3.2,1.7C713.8,21.2,712.8,19.8,712.8,17.3z"/>
						<path d="M724.1,11.1h1.7l0.2,1.8h0.1c0.7-1.3,1.7-2,2.8-2c0.5,0,0.8,0.1,1.1,0.2l-0.4,1.8c-0.3-0.1-0.6-0.2-1-0.2
							c-0.8,0-1.8,0.6-2.4,2.1V21H724L724.1,11.1L724.1,11.1z"/>
						<path d="M736.2,21.6c-0.8,2.1-1.8,3.5-3.9,3.5c-0.5,0-0.9-0.1-1.2-0.2l0.4-1.6c0.2,0.1,0.5,0.1,0.7,0.1c1.1,0,1.7-0.8,2.1-1.9
							l0.2-0.7l-3.9-9.8h2.1l1.8,5.1c0.3,0.9,0.6,1.9,0.9,2.8h0.1l0.8-2.8l1.6-5.1h2L736.2,21.6z"/>
					</g>
					<path class="st3" d="M0,42.5h1000"/>
				</g>
				<g id="cell3" transform="translate(0.000000, 181.000000)">
					<g class="st1">
						<path d="M294.3,17.2h-4.6l-1.1,3.8h-2.1l4.4-13.3h2.4l4.4,13.3h-2.2L294.3,17.2z M293.8,15.6l-0.5-1.8
							c-0.4-1.4-0.8-2.9-1.3-4.4h-0.1c-0.4,1.5-0.8,3-1.2,4.4l-0.5,1.8C290.2,15.6,293.8,15.6,293.8,15.6z"/>
						<path d="M299.4,7.7h2.1v11.5h5.6V21h-7.7V7.7z"/>
						<path d="M308,19.3l1.2-1.4c1,1,2.3,1.6,3.5,1.6c1.6,0,2.5-0.8,2.5-1.9c0-1.2-0.9-1.6-2.1-2.1l-1.8-0.8
							c-1.3-0.5-2.7-1.5-2.7-3.5c0-2.1,1.8-3.7,4.4-3.7c1.5,0,3,0.6,4,1.7l-1.1,1.3c-0.8-0.7-1.7-1.2-2.9-1.2
							c-1.4,0-2.2,0.6-2.2,1.7s1.1,1.6,2.1,2l1.8,0.8c1.6,0.7,2.7,1.6,2.7,3.6c0,2.1-1.8,3.9-4.7,3.9
							C310.9,21.2,309.2,20.5,308,19.3z"/>
						<path d="M319.1,23.4c1.2-0.5,1.9-1.4,2-2.5c-0.1,0-0.1,0-0.2,0c-0.7,0-1.4-0.5-1.4-1.3s0.6-1.3,1.4-1.3c1,0,1.6,0.8,1.6,2.2
							c0,1.9-1.1,3.3-3,4.1L319.1,23.4z"/>
						<path d="M328,19.9l1-1.3c0.9,0.7,1.7,1.1,2.8,1.1c1.2,0,1.7-0.6,1.7-1.3c0-0.9-1.1-1.3-2.2-1.7c-1.3-0.5-2.8-1.2-2.8-2.9
							s1.3-2.9,3.5-2.9c1.3,0,2.4,0.5,3.2,1.2l-1,1.3c-0.7-0.5-1.4-0.9-2.2-0.9c-1.1,0-1.6,0.5-1.6,1.2c0,0.8,1,1.2,2.1,1.6
							c1.4,0.5,2.9,1.1,2.9,3c0,1.7-1.3,3-3.8,3C330.4,21.2,329,20.7,328,19.9z"/>
						<path d="M337.7,11.1h1.7l0.2,1.1h0.1c0.9-0.7,1.9-1.3,3-1.3c2.5,0,3.9,2,3.9,5c0,3.4-2,5.3-4.3,5.3c-0.9,0-1.8-0.4-2.6-1.1
							l0.1,1.7V25h-2.1V11.1L337.7,11.1z M344.5,15.9c0-2.1-0.7-3.3-2.3-3.3c-0.8,0-1.5,0.4-2.4,1.2v4.8c0.8,0.7,1.5,0.9,2.2,0.9
							C343.4,19.5,344.5,18.2,344.5,15.9z"/>
						<path d="M348.8,8c0-0.7,0.6-1.2,1.3-1.2c0.7,0,1.3,0.5,1.3,1.2s-0.6,1.2-1.3,1.2C349.4,9.2,348.8,8.7,348.8,8z M349.1,11.1
							h2.1V21h-2.1V11.1z"/>
						<path d="M354.2,11.1h1.7l0.2,1.4h0.1c0.9-0.9,1.9-1.6,3.3-1.6c2.1,0,3,1.4,3,3.9V21h-2.1v-6c0-1.7-0.5-2.4-1.7-2.4
							c-0.9,0-1.5,0.5-2.4,1.3v7h-2.1V11.1z"/>
						<path d="M364.9,18.4c0-2.1,1.8-3.2,5.9-3.7c0-1.2-0.4-2.2-1.9-2.2c-1,0-2,0.5-2.9,1l-0.8-1.4c1-0.6,2.4-1.3,4-1.3
							c2.5,0,3.6,1.6,3.6,4.2v6h-1.7l-0.2-1.1h-0.1c-0.9,0.8-2,1.4-3.2,1.4C366.1,21.2,364.9,20.1,364.9,18.4z M370.8,18.4V16
							c-2.9,0.4-3.9,1.1-3.9,2.2c0,1,0.7,1.4,1.5,1.4C369.3,19.6,370,19.2,370.8,18.4z"/>
						<path d="M375.8,18.7v-12h2.1v12.1c0,0.6,0.3,0.8,0.5,0.8c0.1,0,0.2,0,0.3,0l0.3,1.6c-0.3,0.1-0.6,0.2-1.1,0.2
							C376.4,21.2,375.8,20.3,375.8,18.7z"/>
						<path d="M384.5,16.1c0-3.3,2.3-5.2,4.9-5.2c1.3,0,2.2,0.5,2.9,1.1l-1,1.4c-0.5-0.5-1.1-0.8-1.8-0.8c-1.7,0-2.8,1.4-2.8,3.5
							s1.1,3.5,2.8,3.5c0.8,0,1.6-0.4,2.2-0.9l0.8,1.4c-0.9,0.8-2.1,1.2-3.2,1.2C386.6,21.2,384.5,19.3,384.5,16.1z"/>
						<path d="M393.4,16.1c0-3.3,2.2-5.2,4.7-5.2s4.7,1.9,4.7,5.2s-2.2,5.2-4.7,5.2S393.4,19.3,393.4,16.1z M400.6,16.1
							c0-2.1-1-3.5-2.5-3.5s-2.5,1.4-2.5,3.5s1,3.5,2.5,3.5C399.6,19.5,400.6,18.2,400.6,16.1z"/>
						<path d="M405.1,11.1h1.7l0.2,1.8h0.1c0.7-1.3,1.7-2,2.8-2c0.5,0,0.8,0.1,1.1,0.2l-0.4,1.8c-0.3-0.1-0.6-0.2-1-0.2
							c-0.8,0-1.8,0.6-2.4,2.1V21h-2.1L405.1,11.1L405.1,11.1z"/>
						<path d="M411.6,16.1c0-3.2,2-5.2,4.2-5.2c1.1,0,1.9,0.4,2.7,1.1l-0.1-1.6V6.6h2.1V21h-1.7l-0.2-1.1h-0.1
							c-0.7,0.8-1.8,1.4-2.9,1.4C413.2,21.2,411.6,19.3,411.6,16.1z M418.4,18.3v-4.8c-0.7-0.7-1.4-0.9-2.2-0.9
							c-1.4,0-2.5,1.3-2.5,3.5c0,2.3,0.9,3.5,2.4,3.5C417,19.5,417.7,19.1,418.4,18.3z"/>
						<path d="M427.4,8c0-0.7,0.6-1.2,1.3-1.2c0.7,0,1.3,0.5,1.3,1.2s-0.6,1.2-1.3,1.2C428,9.2,427.4,8.7,427.4,8z M427.7,11.1h2.1
							V21h-2.1V11.1z"/>
						<path d="M432.8,11.1h1.7l0.2,1.4h0.1c0.9-0.9,1.9-1.6,3.3-1.6c2.1,0,3,1.4,3,3.9V21H439v-6c0-1.7-0.5-2.4-1.7-2.4
							c-0.9,0-1.5,0.5-2.4,1.3v7h-2.1V11.1z"/>
						<path d="M441.6,25l0.4-1.5c0.3,0.1,0.6,0.2,0.9,0.2c0.9,0,1.2-0.7,1.2-1.8V11.1h2.1v10.6c0,2.1-0.8,3.5-3,3.5
							C442.5,25.3,442,25.1,441.6,25z M443.8,8c0-0.7,0.6-1.2,1.3-1.2c0.7,0,1.3,0.5,1.3,1.2s-0.6,1.2-1.3,1.2
							C444.4,9.2,443.8,8.7,443.8,8z"/>
						<path d="M449.1,17.3v-6.2h2.1v6c0,1.7,0.5,2.4,1.7,2.4c0.9,0,1.5-0.4,2.4-1.5v-6.9h2.1V21h-1.7l-0.2-1.5h-0.1
							c-0.9,1-1.9,1.7-3.2,1.7C450,21.2,449.1,19.8,449.1,17.3z"/>
						<path d="M460.4,11.1h1.7l0.2,1.8h0.1c0.7-1.3,1.7-2,2.8-2c0.5,0,0.8,0.1,1.1,0.2l-0.4,1.8c-0.3-0.1-0.6-0.2-1-0.2
							c-0.8,0-1.8,0.6-2.4,2.1V21h-2.1V11.1L460.4,11.1z"/>
						<path d="M472.5,21.6c-0.8,2.1-1.8,3.5-3.9,3.5c-0.5,0-0.9-0.1-1.2-0.2l0.4-1.6c0.2,0.1,0.5,0.1,0.7,0.1c1.1,0,1.7-0.8,2.1-1.9
							l0.2-0.7l-3.9-9.8h2.1l1.8,5.1c0.3,0.9,0.6,1.9,0.9,2.8h0.1l0.8-2.8l1.6-5.1h2L472.5,21.6z"/>
						<path d="M476.5,23.4c1.2-0.5,1.9-1.4,2-2.5c-0.1,0-0.1,0-0.2,0c-0.7,0-1.4-0.5-1.4-1.3s0.6-1.3,1.4-1.3c1,0,1.6,0.8,1.6,2.2
							c0,1.9-1.1,3.3-3,4.1L476.5,23.4z"/>
						<path d="M486.9,9.9c0-2,0.9-3.4,3.1-3.4c0.7,0,1.3,0.1,1.7,0.3l-0.4,1.5c-0.4-0.2-0.7-0.3-1.1-0.3c-0.9,0-1.3,0.6-1.3,1.8v1.3
							h2v1.7h-2V21h-2.1v-8.2h-1.4v-1.5l1.4-0.1V9.9H486.9z M492.8,8c0-0.7,0.6-1.2,1.3-1.2c0.8,0,1.3,0.5,1.3,1.2s-0.6,1.2-1.3,1.2
							C493.4,9.2,492.8,8.7,492.8,8z M493.1,11.1h2.1V21h-2.1V11.1z"/>
						<path d="M500.1,20L500.1,20l-0.3,1h-1.5V6.6h2.1v3.8l-0.1,1.7c0.8-0.7,1.9-1.3,3-1.3c2.5,0,3.9,2,3.9,5c0,3.4-2,5.3-4.3,5.3
							C502,21.2,501,20.8,500.1,20z M505,15.9c0-2.1-0.7-3.3-2.3-3.3c-0.8,0-1.5,0.4-2.4,1.2v4.8c0.8,0.7,1.5,0.9,2.2,0.9
							C503.9,19.5,505,18.2,505,15.9z"/>
						<path d="M509.6,11.1h1.7l0.2,1.8h0.1c0.7-1.3,1.7-2,2.8-2c0.5,0,0.8,0.1,1.1,0.2l-0.4,1.8c-0.3-0.1-0.6-0.2-1-0.2
							c-0.8,0-1.8,0.6-2.4,2.1V21h-2.1L509.6,11.1L509.6,11.1z"/>
						<path d="M516.1,16.1c0-3.3,2.2-5.2,4.7-5.2c2.4,0,4.7,1.9,4.7,5.2s-2.2,5.2-4.7,5.2C518.3,21.2,516.1,19.3,516.1,16.1z
							 M523.3,16.1c0-2.1-1-3.5-2.5-3.5s-2.5,1.4-2.5,3.5s1,3.5,2.5,3.5C522.3,19.5,523.3,18.2,523.3,16.1z"/>
						<path d="M527.8,11.1h1.7l0.2,1.4h0.1c0.8-0.9,1.8-1.6,3.1-1.6c1.5,0,2.3,0.7,2.7,1.8c1-1,2-1.8,3.2-1.8c2.1,0,3,1.4,3,3.9V21
							h-2.1v-6c0-1.7-0.5-2.4-1.7-2.4c-0.7,0-1.4,0.5-2.2,1.3v7h-2.1v-6c0-1.7-0.5-2.4-1.7-2.4c-0.7,0-1.4,0.5-2.2,1.3v7h-2.1
							L527.8,11.1L527.8,11.1z"/>
						<path d="M549.1,21.6c-0.8,2.1-1.8,3.5-3.9,3.5c-0.5,0-0.9-0.1-1.2-0.2l0.4-1.6c0.2,0.1,0.5,0.1,0.7,0.1c1.1,0,1.7-0.8,2.1-1.9
							l0.2-0.7l-3.9-9.8h2.1l1.8,5.1c0.3,0.9,0.6,1.9,0.9,2.8h0.1l0.8-2.8l1.6-5.1h2L549.1,21.6z"/>
						<path d="M553.6,18.4c0-2.1,1.8-3.2,5.9-3.7c0-1.2-0.4-2.2-1.9-2.2c-1,0-2,0.5-2.9,1l-0.8-1.4c1-0.6,2.4-1.3,4-1.3
							c2.5,0,3.6,1.6,3.6,4.2v6h-1.7l-0.2-1.1h-0.1c-0.9,0.8-2,1.4-3.2,1.4C554.8,21.2,553.6,20.1,553.6,18.4z M559.5,18.4V16
							c-2.9,0.4-3.9,1.1-3.9,2.2c0,1,0.7,1.4,1.5,1.4C558,19.6,558.7,19.2,559.5,18.4z"/>
						<path d="M564.5,18.7v-12h2.1v12.1c0,0.6,0.3,0.8,0.5,0.8c0.1,0,0.2,0,0.3,0l0.3,1.6c-0.3,0.1-0.6,0.2-1.1,0.2
							C565.1,21.2,564.5,20.3,564.5,18.7z"/>
						<path d="M569.2,22.8c0-0.8,0.5-1.6,1.4-2.2v-0.1c-0.5-0.3-0.9-0.8-0.9-1.6c0-0.8,0.6-1.4,1.1-1.8V17c-0.7-0.5-1.3-1.5-1.3-2.6
							c0-2.3,1.8-3.6,3.8-3.6c0.6,0,1.1,0.1,1.4,0.3h3.5v1.5h-1.9c0.4,0.4,0.6,1.1,0.6,1.8c0,2.2-1.6,3.4-3.7,3.4
							c-0.5,0-1-0.1-1.4-0.3c-0.3,0.3-0.5,0.6-0.5,1c0,0.6,0.4,1,1.7,1h1.8c2.3,0,3.6,0.7,3.6,2.4c0,1.9-2,3.5-5.2,3.5
							C570.9,25.4,569.2,24.6,569.2,22.8z M576.4,22.3c0-0.8-0.6-1.1-1.9-1.1H573c-0.5,0-0.9-0.1-1.3-0.1c-0.6,0.4-0.8,0.9-0.8,1.4
							c0,1,1,1.5,2.6,1.5C575.3,24.1,576.4,23.2,576.4,22.3z M575.2,14.4c0-1.3-0.8-2.1-1.9-2.1c-1,0-1.9,0.8-1.9,2.1
							s0.8,2.1,1.9,2.1S575.2,15.7,575.2,14.4z"/>
						<path d="M580,8c0-0.7,0.6-1.2,1.3-1.2c0.8,0,1.3,0.5,1.3,1.2s-0.6,1.2-1.3,1.2C580.5,9.2,580,8.7,580,8z M580.3,11.1h2.1V21
							h-2.1V11.1z"/>
						<path d="M584.9,18.4c0-2.1,1.8-3.2,5.9-3.7c0-1.2-0.4-2.2-1.9-2.2c-1,0-2,0.5-2.9,1l-0.8-1.4c1-0.6,2.4-1.3,4-1.3
							c2.5,0,3.6,1.6,3.6,4.2v6h-1.7l-0.2-1.1h-0.1c-0.9,0.8-2,1.4-3.2,1.4C586.1,21.2,584.9,20.1,584.9,18.4z M590.8,18.4V16
							c-2.9,0.4-3.9,1.1-3.9,2.2c0,1,0.7,1.4,1.5,1.4C589.3,19.6,590,19.2,590.8,18.4z"/>
						<path d="M595.2,23.4c1.2-0.5,1.9-1.4,2-2.5c-0.1,0-0.1,0-0.2,0c-0.7,0-1.4-0.5-1.4-1.3s0.6-1.3,1.4-1.3c1,0,1.6,0.8,1.6,2.2
							c0,1.9-1.1,3.3-3,4.1L595.2,23.4z"/>
						<path d="M605.5,17.8v-5h-1.4v-1.5l1.5-0.1l0.2-2.7h1.7v2.7h2.6v1.7h-2.6v5c0,1.2,0.4,1.8,1.4,1.8c0.3,0,0.8-0.1,1.1-0.2
							l0.4,1.5c-0.6,0.2-1.2,0.4-1.9,0.4C606.3,21.2,605.5,19.8,605.5,17.8z"/>
						<path d="M612.3,11.1h1.7l0.2,1.8h0.1c0.7-1.3,1.7-2,2.8-2c0.5,0,0.8,0.1,1.1,0.2l-0.4,1.8c-0.3-0.1-0.6-0.2-1-0.2
							c-0.8,0-1.8,0.6-2.4,2.1V21h-2.1V11.1z"/>
						<path d="M618.6,18.4c0-2.1,1.8-3.2,5.9-3.7c0-1.2-0.4-2.2-1.9-2.2c-1,0-2,0.5-2.9,1l-0.8-1.4c1-0.6,2.4-1.3,4-1.3
							c2.5,0,3.6,1.6,3.6,4.2v6h-1.7l-0.2-1.1h-0.1c-0.9,0.8-2,1.4-3.2,1.4C619.8,21.2,618.6,20.1,618.6,18.4z M624.5,18.4V16
							c-2.9,0.4-3.9,1.1-3.9,2.2c0,1,0.7,1.4,1.5,1.4C623,19.6,623.7,19.2,624.5,18.4z"/>
						<path d="M629.4,17.3v-6.2h2.1v6c0,1.7,0.5,2.4,1.7,2.4c0.9,0,1.5-0.4,2.4-1.5v-6.9h2.1V21H636l-0.2-1.5h-0.1
							c-0.9,1-1.9,1.7-3.2,1.7C630.3,21.2,629.4,19.8,629.4,17.3z"/>
						<path d="M640.7,11.1h1.7l0.2,1.4h0.1c0.8-0.9,1.8-1.6,3.1-1.6c1.5,0,2.3,0.7,2.7,1.8c1-1,2-1.8,3.2-1.8c2.1,0,3,1.4,3,3.9V21
							h-2.1v-6c0-1.7-0.5-2.4-1.7-2.4c-0.7,0-1.4,0.5-2.2,1.3v7h-2.1v-6c0-1.7-0.5-2.4-1.7-2.4c-0.7,0-1.4,0.5-2.2,1.3v7h-2.1
							L640.7,11.1L640.7,11.1z"/>
						<path d="M657.1,18.4c0-2.1,1.8-3.2,5.9-3.7c0-1.2-0.4-2.2-1.9-2.2c-1,0-2,0.5-2.9,1l-0.8-1.4c1-0.6,2.4-1.3,4-1.3
							c2.5,0,3.6,1.6,3.6,4.2v6h-1.7l-0.2-1.1H663c-0.9,0.8-2,1.4-3.2,1.4C658.3,21.2,657.1,20.1,657.1,18.4z M663,18.4V16
							c-2.9,0.4-3.9,1.1-3.9,2.2c0,1,0.7,1.4,1.5,1.4C661.5,19.6,662.2,19.2,663,18.4z"/>
						<path d="M668,17.8v-5h-1.4v-1.5l1.5-0.1l0.2-2.7h1.7v2.7h2.6v1.7H670v5c0,1.2,0.4,1.8,1.4,1.8c0.3,0,0.8-0.1,1.1-0.2l0.4,1.5
							c-0.6,0.2-1.2,0.4-1.9,0.4C668.8,21.2,668,19.8,668,17.8z"/>
						<path d="M674.5,8c0-0.7,0.6-1.2,1.3-1.2c0.8,0,1.3,0.5,1.3,1.2s-0.6,1.2-1.3,1.2S674.5,8.7,674.5,8z M674.8,11.1h2.1V21h-2.1
							V11.1z"/>
						<path d="M679.3,16.1c0-3.3,2.3-5.2,4.9-5.2c1.3,0,2.2,0.5,2.9,1.1l-1,1.4c-0.5-0.5-1.1-0.8-1.8-0.8c-1.7,0-2.8,1.4-2.8,3.5
							s1.1,3.5,2.8,3.5c0.8,0,1.6-0.4,2.2-0.9l0.8,1.4c-0.9,0.8-2.1,1.2-3.2,1.2C681.3,21.2,679.3,19.3,679.3,16.1z"/>
						<path d="M693.3,11.1h1.7l0.2,1.4h0.1c0.8-0.9,1.8-1.6,3.1-1.6c1.5,0,2.3,0.7,2.7,1.8c1-1,2-1.8,3.2-1.8c2.1,0,3,1.4,3,3.9V21
							h-2v-6c0-1.7-0.5-2.4-1.7-2.4c-0.7,0-1.4,0.5-2.2,1.3v7h-2.1v-6c0-1.7-0.5-2.4-1.7-2.4c-0.7,0-1.4,0.5-2.2,1.3v7h-2.1V11.1z"
							/>
						<path d="M710.2,17.3v-6.2h2.1v6c0,1.7,0.5,2.4,1.7,2.4c0.9,0,1.5-0.4,2.4-1.5v-6.9h2.1V21h-1.7l-0.2-1.5h-0.1
							c-0.9,1-1.9,1.7-3.2,1.7C711.1,21.2,710.2,19.8,710.2,17.3z"/>
						<path d="M720.4,19.9l1-1.3c0.9,0.7,1.7,1.1,2.8,1.1c1.2,0,1.7-0.6,1.7-1.3c0-0.9-1.1-1.3-2.2-1.7c-1.3-0.5-2.8-1.2-2.8-2.9
							s1.3-2.9,3.5-2.9c1.3,0,2.4,0.5,3.2,1.2l-1,1.3c-0.7-0.5-1.4-0.9-2.2-0.9c-1.1,0-1.6,0.5-1.6,1.2c0,0.8,1,1.2,2.1,1.6
							c1.4,0.5,2.9,1.1,2.9,3c0,1.7-1.3,3-3.8,3C722.8,21.2,721.4,20.7,720.4,19.9z"/>
						<path d="M729.4,16.1c0-3.3,2.3-5.2,4.9-5.2c1.3,0,2.2,0.5,2.9,1.1l-1,1.4c-0.5-0.5-1.1-0.8-1.8-0.8c-1.7,0-2.8,1.4-2.8,3.5
							s1.1,3.5,2.8,3.5c0.8,0,1.6-0.4,2.2-0.9l0.7,1.3c-0.9,0.8-2.1,1.2-3.2,1.2C731.5,21.2,729.4,19.3,729.4,16.1z"/>
						<path d="M739.4,18.7v-12h2.1v12.1c0,0.6,0.3,0.8,0.5,0.8c0.1,0,0.2,0,0.3,0l0.3,1.6c-0.3,0.1-0.6,0.2-1.1,0.2
							C740,21.2,739.4,20.3,739.4,18.7z"/>
						<path d="M744.1,16.1c0-3.2,2.2-5.2,4.5-5.2c2.6,0,4,1.9,4,4.7c0,0.4,0,0.8-0.1,1h-6.4c0.2,1.9,1.3,3,3.1,3
							c0.9,0,1.6-0.3,2.4-0.7l0.7,1.3c-0.9,0.6-2.1,1-3.3,1C746.2,21.2,744.1,19.3,744.1,16.1z M750.8,15.2c0-1.7-0.8-2.7-2.2-2.7
							c-1.2,0-2.3,1-2.5,2.7H750.8z"/>
						<path d="M758.7,8c0-0.7,0.6-1.2,1.3-1.2c0.8,0,1.3,0.5,1.3,1.2s-0.6,1.2-1.3,1.2S758.7,8.7,758.7,8z M759,11.1h2.1V21H759
							V11.1z"/>
						<path d="M764.2,11.1h1.7l0.2,1.4h0.1c0.9-0.9,1.9-1.6,3.3-1.6c2.1,0,3,1.4,3,3.9V21h-2.2v-6c0-1.7-0.5-2.4-1.7-2.4
							c-0.9,0-1.5,0.5-2.4,1.3v7h-2.1v-9.8C764.1,11.1,764.2,11.1,764.2,11.1z"/>
						<path d="M773,25l0.4-1.5c0.3,0.1,0.6,0.2,0.9,0.2c0.9,0,1.2-0.7,1.2-1.8V11.1h2.1v10.6c0,2.1-0.8,3.5-3,3.5
							C773.8,25.3,773.3,25.1,773,25z M775.1,8c0-0.7,0.6-1.2,1.3-1.2c0.8,0,1.3,0.5,1.3,1.2s-0.6,1.2-1.3,1.2
							C775.7,9.2,775.1,8.7,775.1,8z"/>
						<path d="M780.4,17.3v-6.2h2.1v6c0,1.7,0.5,2.4,1.7,2.4c0.9,0,1.5-0.4,2.4-1.5v-6.9h2.1V21H787l-0.2-1.5h-0.1
							c-0.9,1-1.9,1.7-3.2,1.7C781.4,21.2,780.4,19.8,780.4,17.3z"/>
						<path d="M791.7,11.1h1.7l0.2,1.8h0.1c0.7-1.3,1.7-2,2.8-2c0.5,0,0.8,0.1,1.1,0.2l-0.4,1.8c-0.3-0.1-0.6-0.2-1-0.2
							c-0.8,0-1.8,0.6-2.4,2.1V21h-2.1L791.7,11.1L791.7,11.1z"/>
						<path d="M803.8,21.6c-0.8,2.1-1.8,3.5-3.9,3.5c-0.5,0-0.9-0.1-1.2-0.2l0.4-1.6c0.2,0.1,0.5,0.1,0.7,0.1c1.1,0,1.7-0.8,2.1-1.9
							l0.2-0.7l-3.9-9.8h2.1l1.8,5.1c0.3,0.9,0.6,1.9,0.9,2.8h0.1l0.8-2.8l1.6-5.1h2L803.8,21.6z"/>
						<path d="M807.8,23.4c1.2-0.5,1.9-1.4,2-2.5c-0.1,0-0.1,0-0.2,0c-0.7,0-1.4-0.5-1.4-1.3s0.6-1.3,1.4-1.3c1,0,1.6,0.8,1.6,2.2
							c0,1.9-1.1,3.3-3,4.1L807.8,23.4z"/>
						<path d="M817.8,11.1h1.7l0.2,1.8h0.1c0.7-1.3,1.7-2,2.8-2c0.5,0,0.8,0.1,1.1,0.2l-0.4,1.8c-0.3-0.1-0.6-0.2-1-0.2
							c-0.8,0-1.8,0.6-2.4,2.1V21h-2.1L817.8,11.1L817.8,11.1z"/>
						<path d="M825.2,6.6h2.1v3.8l-0.1,2c0.9-0.8,1.9-1.6,3.2-1.6c2.1,0,3,1.4,3,3.9V21h-2.1v-6c0-1.7-0.5-2.4-1.7-2.4
							c-0.9,0-1.5,0.5-2.4,1.3v7h-2.1L825.2,6.6L825.2,6.6z"/>
						<path d="M835.8,18.4c0-2.1,1.8-3.2,5.9-3.7c0-1.2-0.4-2.2-1.9-2.2c-1,0-2,0.5-2.9,1l-0.8-1.4c1-0.6,2.4-1.3,4-1.3
							c2.5,0,3.6,1.6,3.6,4.2v6H842l-0.2-1.1h-0.1c-0.9,0.8-2,1.4-3.2,1.4C837,21.2,835.8,20.1,835.8,18.4z M841.7,18.4V16
							c-2.9,0.4-3.9,1.1-3.9,2.2c0,1,0.7,1.4,1.5,1.4C840.2,19.6,840.9,19.2,841.7,18.4z"/>
						<path d="M848.6,20L848.6,20l-0.3,1h-1.6V6.6h2.1v3.8l-0.1,1.7c0.8-0.7,1.9-1.3,3-1.3c2.5,0,3.9,2,3.9,5c0,3.4-2,5.3-4.3,5.3
							C850.4,21.2,849.4,20.8,848.6,20z M853.5,15.9c0-2.1-0.7-3.3-2.3-3.3c-0.8,0-1.5,0.4-2.4,1.2v4.8c0.8,0.7,1.5,0.9,2.2,0.9
							C852.4,19.5,853.5,18.2,853.5,15.9z"/>
						<path d="M857.4,16.1c0-3.2,2-5.2,4.2-5.2c1.1,0,1.9,0.4,2.7,1.1l-0.1-1.6V6.6h2.1V21h-1.7l-0.2-1.1h-0.1
							c-0.7,0.8-1.8,1.4-2.9,1.4C859,21.2,857.4,19.3,857.4,16.1z M864.2,18.3v-4.8c-0.7-0.7-1.4-0.9-2.2-0.9
							c-1.4,0-2.5,1.3-2.5,3.5c0,2.3,0.9,3.5,2.4,3.5C862.8,19.5,863.5,19.1,864.2,18.3z"/>
						<path d="M868.7,16.1c0-3.3,2.2-5.2,4.7-5.2c2.4,0,4.7,1.9,4.7,5.2s-2.2,5.2-4.7,5.2C870.9,21.2,868.7,19.3,868.7,16.1z
							 M875.9,16.1c0-2.1-1-3.5-2.5-3.5s-2.5,1.4-2.5,3.5s1,3.5,2.5,3.5C874.9,19.5,875.9,18.2,875.9,16.1z"/>
						<path d="M880.4,11.1h1.7l0.2,1.4h0.1c0.8-0.9,1.8-1.6,3.1-1.6c1.5,0,2.3,0.7,2.7,1.8c1-1,2-1.8,3.2-1.8c2.1,0,3,1.4,3,3.9V21
							h-2.1v-6c0-1.7-0.5-2.4-1.7-2.4c-0.7,0-1.4,0.5-2.2,1.3v7h-2.1v-6c0-1.7-0.5-2.4-1.7-2.4c-0.7,0-1.4,0.5-2.2,1.3v7h-2.1
							L880.4,11.1L880.4,11.1z"/>
						<path d="M901.8,21.6c-0.8,2.1-1.8,3.5-3.9,3.5c-0.5,0-0.9-0.1-1.2-0.2l0.4-1.6c0.2,0.1,0.5,0.1,0.7,0.1c1.1,0,1.7-0.8,2.1-1.9
							l0.2-0.7l-3.9-9.8h2.1l1.8,5.1c0.3,0.9,0.6,1.9,0.9,2.8h0.1l0.8-2.8l1.6-5.1h2L901.8,21.6z"/>
						<path d="M906.4,16.1c0-3.3,2.2-5.2,4.7-5.2c2.4,0,4.7,1.9,4.7,5.2s-2.2,5.2-4.7,5.2C908.6,21.2,906.4,19.3,906.4,16.1z
							 M913.6,16.1c0-2.1-1-3.5-2.5-3.5s-2.5,1.4-2.5,3.5s1,3.5,2.5,3.5C912.6,19.5,913.6,18.2,913.6,16.1z"/>
						<path d="M918.1,18.7v-12h2.1v12.1c0,0.6,0.3,0.8,0.5,0.8c0.1,0,0.2,0,0.3,0l0.3,1.6c-0.3,0.1-0.6,0.2-1.1,0.2
							C918.7,21.2,918.1,20.3,918.1,18.7z"/>
						<path d="M927.8,21.6c-0.8,2.1-1.8,3.5-3.9,3.5c-0.5,0-0.9-0.1-1.2-0.2l0.4-1.6c0.2,0.1,0.5,0.1,0.7,0.1c1.1,0,1.7-0.8,2.1-1.9
							l0.2-0.7l-3.9-9.8h2.1l1.8,5.1c0.3,0.9,0.6,1.9,0.9,2.8h0.1l0.8-2.8l1.6-5.1h2L927.8,21.6z"/>
						<path d="M932.2,19.9l1-1.3c0.9,0.7,1.7,1.1,2.8,1.1c1.2,0,1.7-0.6,1.7-1.3c0-0.9-1.1-1.3-2.2-1.7c-1.3-0.5-2.8-1.2-2.8-2.9
							s1.3-2.9,3.5-2.9c1.3,0,2.4,0.5,3.2,1.2l-1,1.3c-0.7-0.5-1.4-0.9-2.2-0.9c-1.1,0-1.6,0.5-1.6,1.2c0,0.8,1,1.2,2.1,1.6
							c1.4,0.5,2.9,1.1,2.9,3c0,1.7-1.3,3-3.8,3C934.6,21.2,933.2,20.7,932.2,19.9z"/>
						<path d="M941.6,8c0-0.7,0.6-1.2,1.3-1.2s1.4,0.5,1.4,1.2s-0.6,1.2-1.3,1.2S941.6,8.7,941.6,8z M941.9,11.1h2.1V21h-2.1V11.1z"
							/>
						<path d="M946,19.9l1-1.3c0.9,0.7,1.7,1.1,2.8,1.1c1.2,0,1.7-0.6,1.7-1.3c0-0.9-1.1-1.3-2.2-1.7c-1.3-0.5-2.8-1.2-2.8-2.9
							s1.3-2.9,3.5-2.9c1.3,0,2.4,0.5,3.2,1.2l-1,1.3c-0.7-0.5-1.4-0.9-2.2-0.9c-1.1,0-1.6,0.5-1.6,1.2c0,0.8,1,1.2,2.1,1.6
							c1.4,0.5,2.9,1.1,2.9,3c0,1.7-1.3,3-3.8,3C948.4,21.2,947,20.7,946,19.9z"/>
					</g>
					<path class="st3" d="M0,42.5h1000"/>
					<g>
						<path d="M64,7.7h2.8l1.8,6.5c0.4,1.5,0.7,2.8,1.1,4.3h0.1c0.4-1.5,0.7-2.8,1.1-4.3l1.7-6.5h2.7l-4.1,13.4H68L64,7.7z"/>
						<path d="M76.9,7.7h3l2.3,6.3c0.3,0.8,0.5,1.7,0.8,2.6h0.1c0.3-0.9,0.5-1.8,0.8-2.6l2.2-6.3h3v13.4h-2.4v-5.6
							c0-1.3,0.2-3.1,0.3-4.4h-0.1l-1.1,3.1l-2.1,5.6h-1.5l-2.1-5.6L79,11.1l0,0c0.1,1.3,0.3,3.1,0.3,4.4v5.6h-2.4V7.7z"/>
						<path d="M91.2,19.5l1.2-1.7c0.8,0.8,1.8,1.4,3,1.4c1.4,0,2.3-0.7,2.3-1.9c0-1.3-0.8-2.1-3.7-2.1v-1.9c2.5,0,3.3-0.9,3.3-2
							c0-1-0.7-1.7-1.8-1.7c-1,0-1.7,0.5-2.5,1.2l-1.4-1.6c1.2-1,2.4-1.6,4-1.6c2.6,0,4.3,1.3,4.3,3.6c0,1.4-0.8,2.5-2.2,3.1v0.1
							c1.5,0.4,2.7,1.5,2.7,3.3c0,2.5-2.2,3.9-4.7,3.9C93.6,21.3,92.1,20.6,91.2,19.5z"/>
						<path d="M102.2,14.3c0-4.6,1.8-6.9,4.5-6.9s4.5,2.3,4.5,6.9s-1.8,7-4.5,7S102.2,19,102.2,14.3z M108.7,14.3
							c0-3.7-0.9-4.8-2-4.8c-1.2,0-2,1.1-2,4.8c0,3.8,0.9,4.9,2,4.9C107.9,19.3,108.7,18.1,108.7,14.3z"/>
						<path d="M113.5,18.9h2.9v-8.5H114V8.8c1.3-0.3,2.3-0.6,3.1-1.1h2v11.2h2.5v2.2h-8.1V18.9z"/>
						<path d="M123.6,15h4.9v1.9h-4.9V15z"/>
						<path d="M141.5,17.7h-4.3l-0.9,3.4h-2.7l4.3-13.4h3.1l4.3,13.4h-2.8L141.5,17.7z M140.9,15.6l-0.4-1.5
							c-0.4-1.4-0.8-2.9-1.2-4.4h-0.1c-0.3,1.5-0.7,3-1.1,4.4l-0.4,1.5H140.9z"/>
						<path d="M144.7,7.7h2.8l1.8,6.5c0.4,1.5,0.7,2.8,1.1,4.3h0.1c0.4-1.5,0.7-2.8,1.1-4.3l1.7-6.5h2.7l-4,13.4h-3.2L144.7,7.7z"/>
						<path d="M157.5,18.9h2.9v-8.5H158V8.8c1.3-0.3,2.3-0.6,3.1-1.1h2v11.2h2.5v2.2h-8.1V18.9z"/>
						<path d="M168.3,7.7h2.7V13h5.1V7.7h2.7v13.4h-2.7v-5.8H171v5.8h-2.7V7.7z"/>
					</g>
				</g>
			</g>
		</g>
	</g>
</g>
</svg>
