<?xml version="1.0" encoding="utf-8"?>
<!-- Generator: Adobe Illustrator 23.0.4, SVG Export Plug-In . SVG Version: 6.00 Build 0)  -->
<svg version="1.1" id="레이어_1" xmlns="http://www.w3.org/2000/svg" xmlns:xlink="http://www.w3.org/1999/xlink" x="0px"
	 y="0px" viewBox="0 0 334 1111.6" style="enable-background:new 0 0 334 1111.6;" xml:space="preserve">
<style type="text/css">
	.st0{fill-rule:evenodd;clip-rule:evenodd;fill:#EFEFEF;}
	.st1{fill-rule:evenodd;clip-rule:evenodd;fill:#D68383;}
	.st2{fill-rule:evenodd;clip-rule:evenodd;fill:#FFFFFF;}
	.st3{enable-background:new    ;}
	.st4{fill:#B54142;}
	.st5{fill:#888888;}
	.st6{fill:#333333;}
	.st7{fill-rule:evenodd;clip-rule:evenodd;fill:#B54142;}
	.st8{fill-rule:evenodd;clip-rule:evenodd;fill:#C26161;}
	.st9{font-family:'NotoSansCJKkr-Medium-KSCpc-EUC-H';}
	.st10{font-size:11px;}
	.st11{fill-rule:evenodd;clip-rule:evenodd;fill:#D2D2D2;}
	.st12{fill-rule:evenodd;clip-rule:evenodd;fill:#9E8E8E;fill-opacity:0.3;}
</style>
<title>도표</title>
<desc>Created with Sketch.</desc>
<g id="Page-1">
	<g id="mobile1" transform="translate(0.000000, -1789.000000)">
		<g transform="translate(-1.000000, 1709.000000)">
			<g id="도표" transform="translate(0.000000, 80.000000)">
				<g id="Stacked-Group" transform="translate(34.000000, 40.000000)">
					<g id="표-04" transform="translate(7.000000, 870.000000)">
						<g id="라운드" transform="translate(43.000000, 22.000000)">
							<path class="st0" d="M82-43.4L82-43.4c56.3,0,102,45.7,102,102l0,0c0,56.3-45.7,102-102,102l0,0c-56.3,0-102-45.7-102-102
								l0,0C-20,2.3,25.7-43.4,82-43.4z"/>
							<g id="나누기">
								<path class="st0" d="M82.5,57.6V-43.9c-0.1,0-0.1,0-0.2,0C25.8-43.9-20,1.5-20,57.6l102.1,0.5"/>
								<path class="st0" d="M81.7,58.4H-19.8c0,0.1,0,0.1,0,0.2c0,56.5,45.4,102.3,101.5,102.3l0.5-102.1"/>
								<path class="st1" d="M82.7,58.3h101.5c0-0.1,0-0.1,0-0.2c0-56.5-45.4-102.3-101.5-102.3L82.2,57.9"/>
								<path class="st0" d="M82,59.1v101.5c0.1,0,0.1,0,0.2,0c56.5,0,102.3-45.4,102.3-101.5L82.3,58.6"/>
							</g>
							<path class="st2" d="M82-21.4L82-21.4c44.2,0,80,35.8,80,80l0,0c0,44.2-35.8,80-80,80l0,0c-44.2,0-80-35.8-80-80l0,0
								C2,14.4,37.8-21.4,82-21.4z"/>
						</g>
						<g>
							<g class="st3">
								<path class="st4" d="M108.1-39.5h2.5c1.8,0,3.1,0.6,3.1,2.4s-1.3,2.6-3,2.6h-1.2v3.1h-1.3v-8.1H108.1z M110.4-35.5
									c1.3,0,1.9-0.5,1.9-1.6s-0.7-1.4-2-1.4h-1.1v3H110.4z"/>
								<path class="st4" d="M115.1-40.2h1.3v2.3v1.2c0.5-0.5,1.1-1,2-1c1.3,0,1.9,0.9,1.9,2.4v3.9H119v-3.7c0-1-0.3-1.5-1-1.5
									c-0.6,0-0.9,0.3-1.5,0.8v4.4h-1.3L115.1-40.2L115.1-40.2z"/>
								<path class="st4" d="M121.6-33c0-1.3,1.1-2,3.6-2.2c0-0.7-0.3-1.3-1.2-1.3c-0.6,0-1.2,0.3-1.7,0.6l-0.5-0.9
									c0.6-0.4,1.5-0.8,2.4-0.8c1.5,0,2.2,1,2.2,2.6v3.6h-1l-0.1-0.7l0,0c-0.5,0.5-1.2,0.8-1.9,0.8
									C122.3-31.3,121.6-31.9,121.6-33z M125.2-33v-1.4c-1.8,0.2-2.4,0.7-2.4,1.4c0,0.6,0.4,0.8,0.9,0.8
									C124.2-32.3,124.7-32.5,125.2-33z"/>
								<path class="st4" d="M127.6-32.1l0.6-0.8c0.5,0.4,1.1,0.7,1.7,0.7c0.7,0,1.1-0.4,1.1-0.8c0-0.6-0.7-0.8-1.3-1
									c-0.8-0.3-1.7-0.7-1.7-1.8c0-1,0.8-1.8,2.1-1.8c0.8,0,1.5,0.3,2,0.7l-0.6,0.8c-0.4-0.3-0.8-0.5-1.4-0.5c-0.7,0-1,0.3-1,0.7
									c0,0.5,0.6,0.7,1.3,1c0.8,0.3,1.8,0.7,1.8,1.8c0,1-0.8,1.8-2.3,1.8C129-31.3,128.2-31.6,127.6-32.1z"/>
								<path class="st4" d="M133.1-34.4c0-2,1.3-3.2,2.8-3.2c1.6,0,2.5,1.2,2.5,2.9c0,0.2,0,0.5-0.1,0.6h-3.9
									c0.1,1.2,0.8,1.8,1.9,1.8c0.5,0,1-0.2,1.4-0.5l0.4,0.8c-0.6,0.4-1.3,0.6-2,0.6C134.4-31.3,133.1-32.4,133.1-34.4z M137.2-35
									c0-1-0.5-1.7-1.4-1.7c-0.8,0-1.4,0.6-1.6,1.7H137.2z"/>
								<path class="st4" d="M142.2-32.8v-7.4h1.3v7.4c0,0.3,0.2,0.5,0.3,0.5s0.1,0,0.2,0l0.2,1c-0.2,0.1-0.4,0.1-0.7,0.1
									C142.5-31.3,142.2-31.8,142.2-32.8z"/>
							</g>
							<g class="st3">
								<path class="st4" d="M234.1,77.5h2.5c1.8,0,3.1,0.6,3.1,2.4s-1.3,2.6-3,2.6h-1.2v3.1h-1.3v-8.1H234.1z M236.4,81.5
									c1.3,0,1.9-0.5,1.9-1.6s-0.7-1.4-2-1.4h-1.1v3H236.4z"/>
								<path class="st4" d="M241.1,76.8h1.3v2.3v1.2c0.5-0.5,1.1-1,2-1c1.3,0,1.9,0.9,1.9,2.4v3.8H245v-3.7c0-1-0.3-1.5-1-1.5
									c-0.6,0-0.9,0.3-1.5,0.8v4.3h-1.3v-8.6H241.1z"/>
								<path class="st4" d="M247.6,84c0-1.3,1.1-2,3.6-2.2c0-0.7-0.3-1.3-1.2-1.3c-0.6,0-1.2,0.3-1.8,0.6l-0.5-0.9
									c0.6-0.4,1.5-0.8,2.4-0.8c1.5,0,2.2,1,2.2,2.6v3.6h-1l-0.1-0.7l0,0c-0.5,0.5-1.2,0.8-1.9,0.8
									C248.3,85.7,247.6,85.1,247.6,84z M251.2,84v-1.4c-1.8,0.2-2.4,0.7-2.4,1.4c0,0.6,0.4,0.8,0.9,0.8
									C250.2,84.7,250.7,84.5,251.2,84z"/>
								<path class="st4" d="M253.6,84.9l0.6-0.8c0.5,0.4,1.1,0.7,1.7,0.7c0.7,0,1.1-0.4,1.1-0.8c0-0.6-0.7-0.8-1.3-1
									c-0.8-0.3-1.7-0.7-1.7-1.8c0-1,0.8-1.8,2.1-1.8c0.8,0,1.5,0.3,2,0.7l-0.6,0.8c-0.4-0.3-0.8-0.5-1.4-0.5c-0.7,0-1,0.3-1,0.7
									c0,0.5,0.6,0.7,1.3,1c0.8,0.3,1.8,0.7,1.8,1.8c0,1-0.8,1.8-2.3,1.8C255,85.7,254.2,85.4,253.6,84.9z"/>
								<path class="st4" d="M259.1,82.6c0-2,1.3-3.2,2.8-3.2c1.6,0,2.5,1.2,2.5,2.9c0,0.2,0,0.5-0.1,0.6h-3.9
									c0.1,1.2,0.8,1.8,1.9,1.8c0.5,0,1-0.2,1.4-0.5l0.4,0.8c-0.6,0.4-1.3,0.6-2,0.6C260.4,85.7,259.1,84.6,259.1,82.6z M263.2,82
									c0-1-0.5-1.7-1.4-1.7c-0.8,0-1.4,0.6-1.6,1.7H263.2z"/>
								<path class="st4" d="M268.2,84.2v-7.3h1.3v7.4c0,0.3,0.2,0.5,0.3,0.5c0.1,0,0.1,0,0.2,0l0.2,1c-0.2,0.1-0.4,0.1-0.7,0.1
									C268.5,85.7,268.2,85.2,268.2,84.2z"/>
								<path class="st4" d="M271.5,84.2v-7.3h1.3v7.4c0,0.3,0.2,0.5,0.3,0.5c0.1,0,0.1,0,0.2,0l0.2,1c-0.2,0.1-0.4,0.1-0.7,0.1
									C271.8,85.7,271.5,85.2,271.5,84.2z"/>
							</g>
							<g class="st3">
								<path class="st5" d="M104.1,193.5h2.5c1.8,0,3.1,0.6,3.1,2.4c0,1.8-1.3,2.6-3,2.6h-1.2v3.1h-1.3L104.1,193.5L104.1,193.5z
									 M106.4,197.5c1.3,0,1.9-0.5,1.9-1.6s-0.7-1.4-2-1.4h-1.1v3H106.4z"/>
								<path class="st5" d="M111.1,192.8h1.3v2.3v1.2c0.5-0.5,1.1-1,2-1c1.3,0,1.9,0.9,1.9,2.4v3.8H115v-3.7c0-1-0.3-1.5-1-1.5
									c-0.6,0-0.9,0.3-1.5,0.8v4.3h-1.3L111.1,192.8L111.1,192.8z"/>
								<path class="st5" d="M117.6,200c0-1.3,1.1-2,3.6-2.2c0-0.7-0.3-1.3-1.2-1.3c-0.6,0-1.2,0.3-1.7,0.6l-0.5-0.9
									c0.6-0.4,1.5-0.8,2.4-0.8c1.5,0,2.2,1,2.2,2.6v3.6h-1l-0.1-0.7l0,0c-0.5,0.5-1.2,0.8-1.9,0.8
									C118.3,201.7,117.6,201.1,117.6,200z M121.2,200v-1.4c-1.8,0.2-2.4,0.7-2.4,1.4c0,0.6,0.4,0.8,0.9,0.8
									C120.2,200.7,120.7,200.5,121.2,200z"/>
								<path class="st5" d="M123.6,200.9l0.6-0.8c0.5,0.4,1.1,0.7,1.7,0.7c0.7,0,1.1-0.4,1.1-0.8c0-0.6-0.7-0.8-1.3-1
									c-0.8-0.3-1.7-0.7-1.7-1.8c0-1,0.8-1.8,2.1-1.8c0.8,0,1.5,0.3,2,0.7l-0.6,0.8c-0.4-0.3-0.8-0.5-1.4-0.5c-0.7,0-1,0.3-1,0.7
									c0,0.5,0.6,0.7,1.3,1c0.8,0.3,1.8,0.7,1.8,1.8c0,1-0.8,1.8-2.3,1.8C125,201.7,124.2,201.4,123.6,200.9z"/>
								<path class="st5" d="M129.1,198.6c0-2,1.3-3.2,2.8-3.2c1.6,0,2.5,1.2,2.5,2.9c0,0.2,0,0.5-0.1,0.6h-3.9
									c0.1,1.2,0.8,1.8,1.9,1.8c0.5,0,1-0.2,1.4-0.5l0.4,0.8c-0.6,0.4-1.3,0.6-2,0.6C130.4,201.7,129.1,200.6,129.1,198.6z
									 M133.2,198c0-1-0.5-1.7-1.4-1.7c-0.8,0-1.4,0.6-1.6,1.7H133.2z"/>
								<path class="st5" d="M138.2,200.2v-7.3h1.3v7.4c0,0.3,0.2,0.5,0.3,0.5s0.1,0,0.2,0l0.2,1c-0.2,0.1-0.4,0.1-0.7,0.1
									C138.5,201.7,138.2,201.2,138.2,200.2z"/>
								<path class="st5" d="M141.5,200.2v-7.3h1.3v7.4c0,0.3,0.2,0.5,0.3,0.5s0.1,0,0.2,0l0.2,1c-0.2,0.1-0.4,0.1-0.7,0.1
									C141.8,201.7,141.5,201.2,141.5,200.2z"/>
								<path class="st5" d="M144.8,200.2v-7.3h1.3v7.4c0,0.3,0.2,0.5,0.3,0.5s0.1,0,0.2,0l0.2,1c-0.2,0.1-0.4,0.1-0.7,0.1
									C145.1,201.7,144.8,201.2,144.8,200.2z"/>
							</g>
							<g class="st3">
								<path class="st5" d="M-18.9,67.5h2.5c1.7,0,2.9,0.5,2.9,2c0,0.8-0.4,1.5-1.2,1.7v0.1c0.9,0.2,1.6,0.8,1.6,1.9
									c0,1.6-1.3,2.4-3.1,2.4h-2.7V67.5z M-16.6,70.9c1.2,0,1.7-0.5,1.7-1.2c0-0.8-0.6-1.2-1.7-1.2h-1.1v2.4
									C-17.7,70.9-16.6,70.9-16.6,70.9z M-16.4,74.6c1.3,0,2-0.5,2-1.4s-0.7-1.3-2-1.3h-1.3v2.8L-16.4,74.6L-16.4,74.6z"/>
								<path class="st5" d="M-11.6,67.5h1.3v7h3.4v1.1h-4.7V67.5z"/>
								<path class="st5" d="M-1.7,73.3h-2.8l-0.7,2.3h-1.3l2.7-8.1h1.5l2.7,8.1H-1L-1.7,73.3z M-2,72.3l-0.3-1.1
									c-0.3-0.9-0.5-1.8-0.8-2.7l0,0c-0.2,0.9-0.5,1.8-0.7,2.7l-0.3,1.1H-2z"/>
								<path class="st5" d="M6,66.8h0.9L3.8,77.6H2.9L6,66.8z"/>
							</g>
							<g class="st3">
								<path class="st5" d="M-18.9,80.5h1.5l1.4,4.1c0.2,0.5,0.4,1.1,0.5,1.6h0.1c0.2-0.5,0.3-1.1,0.5-1.6l1.5-4.1h1.5v8.1h-1.2v-4
									c0-0.7,0.1-1.8,0.2-2.5l0,0l-0.6,1.9l-1.5,3.8h-0.8l-1.4-3.9l-0.6-1.9l0,0c0.1,0.7,0.2,1.8,0.2,2.5v4h-1.3V80.5z"/>
								<path class="st5" d="M-10.3,87c0-1.3,1.1-2,3.6-2.2c0-0.7-0.3-1.3-1.2-1.3c-0.6,0-1.2,0.3-1.7,0.6l-0.5-0.9
									c0.6-0.4,1.5-0.8,2.4-0.8c1.5,0,2.2,1,2.2,2.6v3.6h-1l-0.1-0.7l0,0c-0.5,0.5-1.2,0.8-1.9,0.8C-9.5,88.7-10.3,88.1-10.3,87z
									 M-6.6,87v-1.4C-8.4,85.8-9,86.3-9,87c0,0.6,0.4,0.8,0.9,0.8C-7.6,87.7-7.1,87.5-6.6,87z"/>
								<path class="st5" d="M-3.6,82.5h1l0.1,1.1l0,0c0.4-0.8,1.1-1.2,1.7-1.2c0.3,0,0.5,0,0.7,0.1l-0.2,1.1
									c-0.2-0.1-0.4-0.1-0.6-0.1c-0.5,0-1.1,0.3-1.5,1.3v3.8h-1.3L-3.6,82.5L-3.6,82.5z"/>
								<path class="st5" d="M0.9,79.8h1.2v5.7l0,0l2.4-2.9h1.4l-2.1,2.5l2.3,3.6H4.7L3.1,86l-1,1.2v1.6H0.9
									C0.9,88.8,0.9,79.8,0.9,79.8z"/>
								<path class="st5" d="M6.5,85.6c0-2,1.3-3.2,2.8-3.2c1.6,0,2.5,1.2,2.5,2.9c0,0.2,0,0.5-0.1,0.6H7.8c0.1,1.2,0.8,1.8,1.9,1.8
									c0.5,0,1-0.2,1.4-0.5l0.4,0.8c-0.6,0.4-1.3,0.6-2,0.6C7.9,88.7,6.5,87.6,6.5,85.6z M10.7,85c0-1-0.5-1.7-1.4-1.7
									c-0.8,0-1.4,0.6-1.6,1.7H10.7z"/>
								<path class="st5" d="M13.3,86.6v-3h-0.9v-1l0.9-0.1l0.1-1.7h1.1v1.7h1.6v1h-1.6v3.1c0,0.7,0.3,1.1,0.9,1.1
									c0.2,0,0.5-0.1,0.6-0.1l0.2,0.9c-0.3,0.1-0.7,0.2-1.2,0.2C13.7,88.7,13.3,87.9,13.3,86.6z"/>
							</g>
						</g>
						<g class="st3">
							<path class="st6" d="M87.7,81.8c0-3.2,2-5,4.5-5c1.2,0,2.2,0.6,2.8,1.2l-1,1.2c-0.5-0.5-1-0.8-1.8-0.8
								c-1.5,0-2.5,1.2-2.5,3.3s1,3.4,2.5,3.4c0.8,0,1.5-0.4,2-0.9l1,1.2c-0.8,0.9-1.8,1.4-3.1,1.4C89.7,86.8,87.7,85,87.7,81.8z"/>
							<path class="st6" d="M101.2,84.1h-3.1l-0.7,2.5h-1.9l3.1-9.6h2.3l3.1,9.6h-2L101.2,84.1z M100.8,82.6l-0.3-1.1
								c-0.3-1-0.6-2.1-0.8-3.1h-0.1c-0.2,1.1-0.5,2.1-0.8,3.1l-0.3,1.1H100.8z"/>
							<path class="st6" d="M105.1,77h2.6c2.9,0,4.8,1.5,4.8,4.8c0,3.2-1.8,4.8-4.7,4.8h-2.7C105.1,86.6,105.1,77,105.1,77z
								 M107.6,85.1c1.8,0,2.9-1,2.9-3.3c0-2.4-1.1-3.2-2.9-3.2H107v6.5H107.6z"/>
							<path class="st6" d="M117.2,82.5c0-2.6,0.7-4.7,1.9-6.7l1.2,0.5c-1.1,1.9-1.6,4.1-1.6,6.2s0.5,4.3,1.6,6.2l-1.2,0.5
								C117.9,87.2,117.2,85.1,117.2,82.5z"/>
							<path class="st6" d="M122.2,77h1.9v4.2l0,0l3.2-4.2h2.1l-2.9,3.8l3.5,5.8h-2.1l-2.5-4.3l-1.3,1.6v2.7h-1.9V77z"/>
							<path class="st6" d="M130.3,83c0-2.4,1.7-3.8,3.5-3.8s3.5,1.4,3.5,3.8s-1.7,3.8-3.5,3.8S130.3,85.4,130.3,83z M135.3,83
								c0-1.4-0.6-2.3-1.5-2.3c-1,0-1.5,0.9-1.5,2.3s0.6,2.2,1.5,2.2C134.8,85.2,135.3,84.3,135.3,83z"/>
							<path class="st6" d="M138.9,79.3h1.6l0.1,1.3h0.1c0.5-0.9,1.3-1.5,2.1-1.5c0.4,0,0.6,0.1,0.9,0.2l-0.3,1.7
								c-0.2-0.1-0.5-0.1-0.8-0.1c-0.6,0-1.3,0.4-1.7,1.4v4.3H139v-7.3H138.9z"/>
							<path class="st6" d="M144,83c0-2.4,1.7-3.8,3.4-3.8c2,0,3,1.5,3,3.5c0,0.4,0,0.7-0.1,0.9h-4.5c0.2,1.2,0.9,1.8,2,1.8
								c0.6,0,1.1-0.2,1.6-0.5l0.7,1.2c-0.7,0.5-1.6,0.8-2.5,0.8C145.5,86.8,144,85.4,144,83z M148.8,82.2c0-1-0.4-1.6-1.4-1.6
								c-0.8,0-1.4,0.5-1.6,1.6H148.8z"/>
							<path class="st6" d="M151.4,84.6c0-1.6,1.3-2.4,4.2-2.7c0-0.7-0.3-1.3-1.2-1.3c-0.7,0-1.3,0.3-2,0.7l-0.7-1.3
								c0.9-0.5,1.9-1,3-1c1.8,0,2.8,1.1,2.8,3.2v4.3H156l-0.1-0.8l0,0c-0.6,0.5-1.4,1-2.2,1C152.3,86.8,151.4,85.9,151.4,84.6z
								 M155.6,84.6v-1.5c-1.8,0.2-2.4,0.7-2.4,1.4c0,0.6,0.4,0.8,1,0.8C154.7,85.3,155.1,85,155.6,84.6z"/>
							<path class="st6" d="M159.1,88.7c1.1-1.9,1.6-4.1,1.6-6.2c0-2.1-0.5-4.3-1.6-6.2l1.2-0.5c1.2,2,2,4.1,2,6.7
								c0,2.6-0.7,4.7-2,6.7L159.1,88.7z"/>
						</g>
						<path class="st1" d="M225.5,81.6h-37c-0.8,0-1.5-0.7-1.5-1.5l0,0c0-0.8,0.7-1.5,1.5-1.5h37c0.8,0,1.5,0.7,1.5,1.5l0,0
							C227,80.9,226.3,81.6,225.5,81.6z"/>
					</g>
					<g id="표-03" transform="translate(7.000000, 580.000000)">
						<g transform="translate(43.000000, 22.000000)">
							<path class="st0" d="M82-43.4L82-43.4c56.3,0,102,45.7,102,102l0,0c0,56.3-45.7,102-102,102l0,0c-56.3,0-102-45.7-102-102
								l0,0C-20,2.3,25.7-43.4,82-43.4z"/>
							<g>
								<path class="st0" d="M82.5,57.6V-43.9c-0.1,0-0.1,0-0.2,0C25.8-43.9-20,1.5-20,57.6l102.1,0.5"/>
								<path class="st0" d="M81.7,58.4H-19.8c0,0.1,0,0.1,0,0.2c0,56.5,45.4,102.3,101.5,102.3l0.5-102.1"/>
								<path class="st1" d="M82.7,58.3h101.5c0-0.1,0-0.1,0-0.2c0-56.5-45.4-102.3-101.5-102.3L82.2,57.9"/>
								<path class="st0" d="M82,59.1v101.5c0.1,0,0.1,0,0.2,0c56.5,0,102.3-45.4,102.3-101.5L82.3,58.6"/>
							</g>
							<path class="st2" d="M82-21.4L82-21.4c44.2,0,80,35.8,80,80l0,0c0,44.2-35.8,80-80,80l0,0c-44.2,0-80-35.8-80-80l0,0
								C2,14.4,37.8-21.4,82-21.4z"/>
						</g>
						<g>
							<g class="st3">
								<path class="st4" d="M108.1-39.5h2.5c1.8,0,3.1,0.6,3.1,2.4s-1.3,2.6-3,2.6h-1.2v3.1h-1.3v-8.1H108.1z M110.4-35.5
									c1.3,0,1.9-0.5,1.9-1.6s-0.7-1.4-2-1.4h-1.1v3H110.4z"/>
								<path class="st4" d="M115.1-40.2h1.3v2.3v1.2c0.5-0.5,1.1-1,2-1c1.3,0,1.9,0.9,1.9,2.4v3.9H119v-3.7c0-1-0.3-1.5-1-1.5
									c-0.6,0-0.9,0.3-1.5,0.8v4.4h-1.3L115.1-40.2L115.1-40.2z"/>
								<path class="st4" d="M121.6-33c0-1.3,1.1-2,3.6-2.2c0-0.7-0.3-1.3-1.2-1.3c-0.6,0-1.2,0.3-1.7,0.6l-0.5-0.9
									c0.6-0.4,1.5-0.8,2.4-0.8c1.5,0,2.2,1,2.2,2.6v3.6h-1l-0.1-0.7l0,0c-0.5,0.5-1.2,0.8-1.9,0.8
									C122.3-31.3,121.6-31.9,121.6-33z M125.2-33v-1.4c-1.8,0.2-2.4,0.7-2.4,1.4c0,0.6,0.4,0.8,0.9,0.8
									C124.2-32.3,124.7-32.5,125.2-33z"/>
								<path class="st4" d="M127.6-32.1l0.6-0.8c0.5,0.4,1.1,0.7,1.7,0.7c0.7,0,1.1-0.4,1.1-0.8c0-0.6-0.7-0.8-1.3-1
									c-0.8-0.3-1.7-0.7-1.7-1.8c0-1,0.8-1.8,2.1-1.8c0.8,0,1.5,0.3,2,0.7l-0.6,0.8c-0.4-0.3-0.8-0.5-1.4-0.5c-0.7,0-1,0.3-1,0.7
									c0,0.5,0.6,0.7,1.3,1c0.8,0.3,1.8,0.7,1.8,1.8c0,1-0.8,1.8-2.3,1.8C129-31.3,128.2-31.6,127.6-32.1z"/>
								<path class="st4" d="M133.1-34.4c0-2,1.3-3.2,2.8-3.2c1.6,0,2.5,1.2,2.5,2.9c0,0.2,0,0.5-0.1,0.6h-3.9
									c0.1,1.2,0.8,1.8,1.9,1.8c0.5,0,1-0.2,1.4-0.5l0.4,0.8c-0.6,0.4-1.3,0.6-2,0.6C134.4-31.3,133.1-32.4,133.1-34.4z M137.2-35
									c0-1-0.5-1.7-1.4-1.7c-0.8,0-1.4,0.6-1.6,1.7H137.2z"/>
								<path class="st4" d="M142.2-32.8v-7.4h1.3v7.4c0,0.3,0.2,0.5,0.3,0.5s0.1,0,0.2,0l0.2,1c-0.2,0.1-0.4,0.1-0.7,0.1
									C142.5-31.3,142.2-31.8,142.2-32.8z"/>
							</g>
							<g class="st3">
								<path class="st4" d="M234.1,77.5h2.5c1.8,0,3.1,0.6,3.1,2.4s-1.3,2.6-3,2.6h-1.2v3.1h-1.3v-8.1H234.1z M236.4,81.5
									c1.3,0,1.9-0.5,1.9-1.6s-0.7-1.4-2-1.4h-1.1v3H236.4z"/>
								<path class="st4" d="M241.1,76.8h1.3v2.3v1.2c0.5-0.5,1.1-1,2-1c1.3,0,1.9,0.9,1.9,2.4v3.8H245v-3.7c0-1-0.3-1.5-1-1.5
									c-0.6,0-0.9,0.3-1.5,0.8v4.3h-1.3v-8.6H241.1z"/>
								<path class="st4" d="M247.6,84c0-1.3,1.1-2,3.6-2.2c0-0.7-0.3-1.3-1.2-1.3c-0.6,0-1.2,0.3-1.8,0.6l-0.5-0.9
									c0.6-0.4,1.5-0.8,2.4-0.8c1.5,0,2.2,1,2.2,2.6v3.6h-1l-0.1-0.7l0,0c-0.5,0.5-1.2,0.8-1.9,0.8
									C248.3,85.7,247.6,85.1,247.6,84z M251.2,84v-1.4c-1.8,0.2-2.4,0.7-2.4,1.4c0,0.6,0.4,0.8,0.9,0.8
									C250.2,84.7,250.7,84.5,251.2,84z"/>
								<path class="st4" d="M253.6,84.9l0.6-0.8c0.5,0.4,1.1,0.7,1.7,0.7c0.7,0,1.1-0.4,1.1-0.8c0-0.6-0.7-0.8-1.3-1
									c-0.8-0.3-1.7-0.7-1.7-1.8c0-1,0.8-1.8,2.1-1.8c0.8,0,1.5,0.3,2,0.7l-0.6,0.8c-0.4-0.3-0.8-0.5-1.4-0.5c-0.7,0-1,0.3-1,0.7
									c0,0.5,0.6,0.7,1.3,1c0.8,0.3,1.8,0.7,1.8,1.8c0,1-0.8,1.8-2.3,1.8C255,85.7,254.2,85.4,253.6,84.9z"/>
								<path class="st4" d="M259.1,82.6c0-2,1.3-3.2,2.8-3.2c1.6,0,2.5,1.2,2.5,2.9c0,0.2,0,0.5-0.1,0.6h-3.9
									c0.1,1.2,0.8,1.8,1.9,1.8c0.5,0,1-0.2,1.4-0.5l0.4,0.8c-0.6,0.4-1.3,0.6-2,0.6C260.4,85.7,259.1,84.6,259.1,82.6z M263.2,82
									c0-1-0.5-1.7-1.4-1.7c-0.8,0-1.4,0.6-1.6,1.7H263.2z"/>
								<path class="st4" d="M268.2,84.2v-7.3h1.3v7.4c0,0.3,0.2,0.5,0.3,0.5c0.1,0,0.1,0,0.2,0l0.2,1c-0.2,0.1-0.4,0.1-0.7,0.1
									C268.5,85.7,268.2,85.2,268.2,84.2z"/>
								<path class="st4" d="M271.5,84.2v-7.3h1.3v7.4c0,0.3,0.2,0.5,0.3,0.5c0.1,0,0.1,0,0.2,0l0.2,1c-0.2,0.1-0.4,0.1-0.7,0.1
									C271.8,85.7,271.5,85.2,271.5,84.2z"/>
							</g>
							<g class="st3">
								<path class="st5" d="M104.1,193.5h2.5c1.8,0,3.1,0.6,3.1,2.4c0,1.8-1.3,2.6-3,2.6h-1.2v3.1h-1.3L104.1,193.5L104.1,193.5z
									 M106.4,197.5c1.3,0,1.9-0.5,1.9-1.6s-0.7-1.4-2-1.4h-1.1v3H106.4z"/>
								<path class="st5" d="M111.1,192.8h1.3v2.3v1.2c0.5-0.5,1.1-1,2-1c1.3,0,1.9,0.9,1.9,2.4v3.8H115v-3.7c0-1-0.3-1.5-1-1.5
									c-0.6,0-0.9,0.3-1.5,0.8v4.3h-1.3L111.1,192.8L111.1,192.8z"/>
								<path class="st5" d="M117.6,200c0-1.3,1.1-2,3.6-2.2c0-0.7-0.3-1.3-1.2-1.3c-0.6,0-1.2,0.3-1.7,0.6l-0.5-0.9
									c0.6-0.4,1.5-0.8,2.4-0.8c1.5,0,2.2,1,2.2,2.6v3.6h-1l-0.1-0.7l0,0c-0.5,0.5-1.2,0.8-1.9,0.8
									C118.3,201.7,117.6,201.1,117.6,200z M121.2,200v-1.4c-1.8,0.2-2.4,0.7-2.4,1.4c0,0.6,0.4,0.8,0.9,0.8
									C120.2,200.7,120.7,200.5,121.2,200z"/>
								<path class="st5" d="M123.6,200.9l0.6-0.8c0.5,0.4,1.1,0.7,1.7,0.7c0.7,0,1.1-0.4,1.1-0.8c0-0.6-0.7-0.8-1.3-1
									c-0.8-0.3-1.7-0.7-1.7-1.8c0-1,0.8-1.8,2.1-1.8c0.8,0,1.5,0.3,2,0.7l-0.6,0.8c-0.4-0.3-0.8-0.5-1.4-0.5c-0.7,0-1,0.3-1,0.7
									c0,0.5,0.6,0.7,1.3,1c0.8,0.3,1.8,0.7,1.8,1.8c0,1-0.8,1.8-2.3,1.8C125,201.7,124.2,201.4,123.6,200.9z"/>
								<path class="st5" d="M129.1,198.6c0-2,1.3-3.2,2.8-3.2c1.6,0,2.5,1.2,2.5,2.9c0,0.2,0,0.5-0.1,0.6h-3.9
									c0.1,1.2,0.8,1.8,1.9,1.8c0.5,0,1-0.2,1.4-0.5l0.4,0.8c-0.6,0.4-1.3,0.6-2,0.6C130.4,201.7,129.1,200.6,129.1,198.6z
									 M133.2,198c0-1-0.5-1.7-1.4-1.7c-0.8,0-1.4,0.6-1.6,1.7H133.2z"/>
								<path class="st5" d="M138.2,200.2v-7.3h1.3v7.4c0,0.3,0.2,0.5,0.3,0.5s0.1,0,0.2,0l0.2,1c-0.2,0.1-0.4,0.1-0.7,0.1
									C138.5,201.7,138.2,201.2,138.2,200.2z"/>
								<path class="st5" d="M141.5,200.2v-7.3h1.3v7.4c0,0.3,0.2,0.5,0.3,0.5s0.1,0,0.2,0l0.2,1c-0.2,0.1-0.4,0.1-0.7,0.1
									C141.8,201.7,141.5,201.2,141.5,200.2z"/>
								<path class="st5" d="M144.8,200.2v-7.3h1.3v7.4c0,0.3,0.2,0.5,0.3,0.5s0.1,0,0.2,0l0.2,1c-0.2,0.1-0.4,0.1-0.7,0.1
									C145.1,201.7,144.8,201.2,144.8,200.2z"/>
							</g>
							<g class="st3">
								<path class="st5" d="M-18.9,67.5h2.5c1.7,0,2.9,0.5,2.9,2c0,0.8-0.4,1.5-1.2,1.7v0.1c0.9,0.2,1.6,0.8,1.6,1.9
									c0,1.6-1.3,2.4-3.1,2.4h-2.7V67.5z M-16.6,70.9c1.2,0,1.7-0.5,1.7-1.2c0-0.8-0.6-1.2-1.7-1.2h-1.1v2.4
									C-17.7,70.9-16.6,70.9-16.6,70.9z M-16.4,74.6c1.3,0,2-0.5,2-1.4s-0.7-1.3-2-1.3h-1.3v2.8L-16.4,74.6L-16.4,74.6z"/>
								<path class="st5" d="M-11.6,67.5h1.3v7h3.4v1.1h-4.7V67.5z"/>
								<path class="st5" d="M-1.7,73.3h-2.8l-0.7,2.3h-1.3l2.7-8.1h1.5l2.7,8.1H-1L-1.7,73.3z M-2,72.3l-0.3-1.1
									c-0.3-0.9-0.5-1.8-0.8-2.7l0,0c-0.2,0.9-0.5,1.8-0.7,2.7l-0.3,1.1H-2z"/>
								<path class="st5" d="M6,66.8h0.9L3.8,77.6H2.9L6,66.8z"/>
							</g>
							<g class="st3">
								<path class="st5" d="M-18.9,80.5h1.5l1.4,4.1c0.2,0.5,0.4,1.1,0.5,1.6h0.1c0.2-0.5,0.3-1.1,0.5-1.6l1.5-4.1h1.5v8.1h-1.2v-4
									c0-0.7,0.1-1.8,0.2-2.5l0,0l-0.6,1.9l-1.5,3.8h-0.8l-1.4-3.9l-0.6-1.9l0,0c0.1,0.7,0.2,1.8,0.2,2.5v4h-1.3V80.5z"/>
								<path class="st5" d="M-10.3,87c0-1.3,1.1-2,3.6-2.2c0-0.7-0.3-1.3-1.2-1.3c-0.6,0-1.2,0.3-1.7,0.6l-0.5-0.9
									c0.6-0.4,1.5-0.8,2.4-0.8c1.5,0,2.2,1,2.2,2.6v3.6h-1l-0.1-0.7l0,0c-0.5,0.5-1.2,0.8-1.9,0.8C-9.5,88.7-10.3,88.1-10.3,87z
									 M-6.6,87v-1.4C-8.4,85.8-9,86.3-9,87c0,0.6,0.4,0.8,0.9,0.8C-7.6,87.7-7.1,87.5-6.6,87z"/>
								<path class="st5" d="M-3.6,82.5h1l0.1,1.1l0,0c0.4-0.8,1.1-1.2,1.7-1.2c0.3,0,0.5,0,0.7,0.1l-0.2,1.1
									c-0.2-0.1-0.4-0.1-0.6-0.1c-0.5,0-1.1,0.3-1.5,1.3v3.8h-1.3L-3.6,82.5L-3.6,82.5z"/>
								<path class="st5" d="M0.9,79.8h1.2v5.7l0,0l2.4-2.9h1.4l-2.1,2.5l2.3,3.6H4.7L3.1,86l-1,1.2v1.6H0.9
									C0.9,88.8,0.9,79.8,0.9,79.8z"/>
								<path class="st5" d="M6.5,85.6c0-2,1.3-3.2,2.8-3.2c1.6,0,2.5,1.2,2.5,2.9c0,0.2,0,0.5-0.1,0.6H7.8c0.1,1.2,0.8,1.8,1.9,1.8
									c0.5,0,1-0.2,1.4-0.5l0.4,0.8c-0.6,0.4-1.3,0.6-2,0.6C7.9,88.7,6.5,87.6,6.5,85.6z M10.7,85c0-1-0.5-1.7-1.4-1.7
									c-0.8,0-1.4,0.6-1.6,1.7H10.7z"/>
								<path class="st5" d="M13.3,86.6v-3h-0.9v-1l0.9-0.1l0.1-1.7h1.1v1.7h1.6v1h-1.6v3.1c0,0.7,0.3,1.1,0.9,1.1
									c0.2,0,0.5-0.1,0.6-0.1l0.2,0.9c-0.3,0.1-0.7,0.2-1.2,0.2C13.7,88.7,13.3,87.9,13.3,86.6z"/>
							</g>
						</g>
						<g class="st3">
							<path class="st6" d="M102.7,84.1h-3.1l-0.7,2.5H97l3.1-9.6h2.3l3.1,9.6h-2L102.7,84.1z M102.3,82.6l-0.3-1
								c-0.3-1-0.6-2.1-0.8-3.1h-0.1c-0.2,1.1-0.5,2.1-0.8,3.1l-0.3,1H102.3z"/>
							<path class="st6" d="M106.5,77h1.9v8h3.9v1.6h-5.8L106.5,77L106.5,77z"/>
							<path class="st6" d="M113,85.4l1.1-1.3c0.7,0.6,1.6,1.1,2.4,1.1c1,0,1.5-0.4,1.5-1.1c0-0.7-0.6-0.9-1.4-1.3l-1.3-0.5
								c-1-0.4-1.9-1.2-1.9-2.6c0-1.6,1.4-2.8,3.3-2.8c1.1,0,2.2,0.4,3,1.2l-1,1.2c-0.6-0.5-1.2-0.8-2-0.8s-1.4,0.4-1.4,1
								c0,0.7,0.7,0.9,1.5,1.3l1.3,0.5c1.2,0.5,1.9,1.2,1.9,2.6c0,1.6-1.3,2.9-3.5,2.9C115.2,86.8,113.9,86.3,113,85.4z"/>
							<path class="st6" d="M124.6,82.5c0-2.6,0.7-4.7,1.9-6.7l1.2,0.5c-1.1,1.9-1.6,4.1-1.6,6.2s0.5,4.3,1.6,6.2l-1.2,0.5
								C125.3,87.2,124.6,85.1,124.6,82.5z"/>
							<path class="st6" d="M129.6,82.3V77h1.9v5.5c0,2,0.7,2.7,1.8,2.7s1.9-0.7,1.9-2.7V77h1.8v5.3c0,3.2-1.4,4.5-3.7,4.5
								S129.6,85.5,129.6,82.3z"/>
							<path class="st6" d="M138.5,85.4l1.1-1.3c0.7,0.6,1.6,1.1,2.4,1.1c1,0,1.5-0.4,1.5-1.1c0-0.7-0.6-0.9-1.4-1.3l-1.3-0.5
								c-1-0.4-1.9-1.2-1.9-2.6c0-1.6,1.4-2.8,3.3-2.8c1.1,0,2.2,0.4,3,1.2l-1,1.2c-0.6-0.5-1.2-0.8-2-0.8s-1.4,0.4-1.4,1
								c0,0.7,0.7,0.9,1.5,1.3l1.3,0.5c1.2,0.5,1.9,1.2,1.9,2.6c0,1.6-1.3,2.9-3.5,2.9C140.8,86.8,139.5,86.3,138.5,85.4z"/>
							<path class="st6" d="M146.8,88.7c1.1-1.9,1.6-4.1,1.6-6.2c0-2.1-0.5-4.3-1.6-6.2l1.2-0.5c1.2,2,2,4.1,2,6.7
								c0,2.6-0.7,4.7-2,6.7L146.8,88.7z"/>
						</g>
						<path class="st1" d="M225.5,81.6h-37c-0.8,0-1.5-0.7-1.5-1.5l0,0c0-0.8,0.7-1.5,1.5-1.5h37c0.8,0,1.5,0.7,1.5,1.5l0,0
							C227,80.9,226.3,81.6,225.5,81.6z"/>
					</g>
					<g id="표-02" transform="translate(7.000000, 290.000000)">
						<g transform="translate(2.000000, 22.000000)">
							<path class="st7" d="M123-43.4L123-43.4c56.3,0,102,45.7,102,102l0,0c0,56.3-45.7,102-102,102l0,0c-56.3,0-102-45.7-102-102
								l0,0C21,2.3,66.7-43.4,123-43.4z"/>
							<g>
								<path class="st0" d="M123.5,57.6V-43.9c-0.1,0-0.1,0-0.2,0C66.8-43.9,21,1.5,21,57.6l102.1,0.5"/>
								<path class="st7" d="M122.7,58.4H21.2c0,0.1,0,0.1,0,0.2c0,56.5,45.4,102.3,101.5,102.3l0.5-102.1"/>
								<path class="st0" d="M122.2,57.6L46.8-10.3l-0.1,0.1c-37.8,42-34.7,106.4,7,143.9l68.7-75.6"/>
								<path class="st1" d="M123.7,58.3h101.5c0-0.1,0-0.1,0-0.2c0-56.5-45.4-102.3-101.5-102.3l-0.5,102.1"/>
								<path class="st8" d="M123,59.1v101.5c0.1,0,0.1,0,0.2,0c56.5,0,102.3-45.4,102.3-101.5l-102.2-0.5"/>
							</g>
							<path class="st2" d="M123-21.4L123-21.4c44.2,0,80,35.8,80,80l0,0c0,44.2-35.8,80-80,80l0,0c-44.2,0-80-35.8-80-80l0,0
								C43,14.4,78.8-21.4,123-21.4z"/>
							<g class="st3">
								<path class="st6" d="M96.2,55h3.2c2.1,0,3.8,0.7,3.8,3c0,2.2-1.7,3.2-3.7,3.2h-1.3v3.4h-1.9L96.2,55L96.2,55z M99.3,59.7
									c1.3,0,2-0.6,2-1.7s-0.7-1.5-2-1.5h-1.1v3.2H99.3z"/>
								<path class="st6" d="M108.6,62.1h-3.1l-0.7,2.5h-2l3.1-9.6h2.3l3.1,9.6h-2L108.6,62.1z M108.2,60.6l-0.3-1.1
									c-0.3-1-0.6-2.1-0.8-3.1H107c-0.2,1.1-0.5,2.1-0.8,3.1l-0.3,1.1H108.2z"/>
								<path class="st6" d="M112.5,55h2.6c2.9,0,4.8,1.5,4.8,4.8c0,3.2-1.8,4.8-4.7,4.8h-2.7L112.5,55L112.5,55z M115,63.1
									c1.8,0,2.9-1,2.9-3.3c0-2.4-1.1-3.2-2.9-3.2h-0.6v6.5H115z"/>
								<path class="st6" d="M124.6,60.5c0-2.6,0.7-4.7,1.9-6.7l1.2,0.5c-1.1,1.9-1.6,4.1-1.6,6.2s0.5,4.3,1.6,6.2l-1.2,0.5
									C125.3,65.2,124.6,63.1,124.6,60.5z"/>
								<path class="st6" d="M129.6,60.3V55h1.9v5.5c0,2,0.7,2.7,1.8,2.7s1.9-0.7,1.9-2.7V55h1.8v5.3c0,3.2-1.4,4.5-3.7,4.5
									S129.6,63.5,129.6,60.3z"/>
								<path class="st6" d="M138.5,63.4l1.1-1.3c0.7,0.6,1.6,1.1,2.4,1.1c1,0,1.5-0.4,1.5-1.1s-0.6-0.9-1.4-1.3l-1.3-0.5
									c-1-0.4-1.9-1.2-1.9-2.6c0-1.6,1.4-2.8,3.3-2.8c1.1,0,2.2,0.4,3,1.2l-1,1.2c-0.6-0.5-1.2-0.8-2-0.8s-1.4,0.4-1.4,1
									c0,0.7,0.7,0.9,1.5,1.3l1.3,0.5c1.2,0.5,1.9,1.2,1.9,2.6c0,1.6-1.3,2.9-3.5,2.9C140.8,64.8,139.5,64.3,138.5,63.4z"/>
								<path class="st6" d="M146.8,66.7c1.1-1.9,1.6-4.1,1.6-6.2s-0.5-4.3-1.6-6.2l1.2-0.5c1.2,2,2,4.1,2,6.7s-0.7,4.7-2,6.7
									L146.8,66.7z"/>
							</g>
						</g>
						<g>
							<g class="st3">
								<path class="st4" d="M108.1-39.5h2.5c1.8,0,3.1,0.6,3.1,2.4s-1.3,2.6-3,2.6h-1.2v3.1h-1.3v-8.1H108.1z M110.4-35.5
									c1.3,0,1.9-0.5,1.9-1.6s-0.7-1.4-2-1.4h-1.1v3H110.4z"/>
								<path class="st4" d="M115.1-40.2h1.3v2.3v1.2c0.5-0.5,1.1-1,2-1c1.3,0,1.9,0.9,1.9,2.4v3.9H119v-3.7c0-1-0.3-1.5-1-1.5
									c-0.6,0-0.9,0.3-1.5,0.8v4.4h-1.3L115.1-40.2L115.1-40.2z"/>
								<path class="st4" d="M121.6-33c0-1.3,1.1-2,3.6-2.2c0-0.7-0.3-1.3-1.2-1.3c-0.6,0-1.2,0.3-1.7,0.6l-0.5-0.9
									c0.6-0.4,1.5-0.8,2.4-0.8c1.5,0,2.2,1,2.2,2.6v3.6h-1l-0.1-0.7l0,0c-0.5,0.5-1.2,0.8-1.9,0.8
									C122.3-31.3,121.6-31.9,121.6-33z M125.2-33v-1.4c-1.8,0.2-2.4,0.7-2.4,1.4c0,0.6,0.4,0.8,0.9,0.8
									C124.2-32.3,124.7-32.5,125.2-33z"/>
								<path class="st4" d="M127.6-32.1l0.6-0.8c0.5,0.4,1.1,0.7,1.7,0.7c0.7,0,1.1-0.4,1.1-0.8c0-0.6-0.7-0.8-1.3-1
									c-0.8-0.3-1.7-0.7-1.7-1.8c0-1,0.8-1.8,2.1-1.8c0.8,0,1.5,0.3,2,0.7l-0.6,0.8c-0.4-0.3-0.8-0.5-1.4-0.5c-0.7,0-1,0.3-1,0.7
									c0,0.5,0.6,0.7,1.3,1c0.8,0.3,1.8,0.7,1.8,1.8c0,1-0.8,1.8-2.3,1.8C129-31.3,128.2-31.6,127.6-32.1z"/>
								<path class="st4" d="M133.1-34.4c0-2,1.3-3.2,2.8-3.2c1.6,0,2.5,1.2,2.5,2.9c0,0.2,0,0.5-0.1,0.6h-3.9
									c0.1,1.2,0.8,1.8,1.9,1.8c0.5,0,1-0.2,1.4-0.5l0.4,0.8c-0.6,0.4-1.3,0.6-2,0.6C134.4-31.3,133.1-32.4,133.1-34.4z M137.2-35
									c0-1-0.5-1.7-1.4-1.7c-0.8,0-1.4,0.6-1.6,1.7H137.2z"/>
								<path class="st4" d="M142.2-32.8v-7.4h1.3v7.4c0,0.3,0.2,0.5,0.3,0.5s0.1,0,0.2,0l0.2,1c-0.2,0.1-0.4,0.1-0.7,0.1
									C142.5-31.3,142.2-31.8,142.2-32.8z"/>
							</g>
							<g class="st3">
								<path class="st4" d="M234.1,77.5h2.5c1.8,0,3.1,0.6,3.1,2.4s-1.3,2.6-3,2.6h-1.2v3.1h-1.3v-8.1H234.1z M236.4,81.5
									c1.3,0,1.9-0.5,1.9-1.6s-0.7-1.4-2-1.4h-1.1v3H236.4z"/>
								<path class="st4" d="M241.1,76.8h1.3v2.3v1.2c0.5-0.5,1.1-1,2-1c1.3,0,1.9,0.9,1.9,2.4v3.8H245v-3.7c0-1-0.3-1.5-1-1.5
									c-0.6,0-0.9,0.3-1.5,0.8v4.3h-1.3v-8.6H241.1z"/>
								<path class="st4" d="M247.6,84c0-1.3,1.1-2,3.6-2.2c0-0.7-0.3-1.3-1.2-1.3c-0.6,0-1.2,0.3-1.8,0.6l-0.5-0.9
									c0.6-0.4,1.5-0.8,2.4-0.8c1.5,0,2.2,1,2.2,2.6v3.6h-1l-0.1-0.7l0,0c-0.5,0.5-1.2,0.8-1.9,0.8
									C248.3,85.7,247.6,85.1,247.6,84z M251.2,84v-1.4c-1.8,0.2-2.4,0.7-2.4,1.4c0,0.6,0.4,0.8,0.9,0.8
									C250.2,84.7,250.7,84.5,251.2,84z"/>
								<path class="st4" d="M253.6,84.9l0.6-0.8c0.5,0.4,1.1,0.7,1.7,0.7c0.7,0,1.1-0.4,1.1-0.8c0-0.6-0.7-0.8-1.3-1
									c-0.8-0.3-1.7-0.7-1.7-1.8c0-1,0.8-1.8,2.1-1.8c0.8,0,1.5,0.3,2,0.7l-0.6,0.8c-0.4-0.3-0.8-0.5-1.4-0.5c-0.7,0-1,0.3-1,0.7
									c0,0.5,0.6,0.7,1.3,1c0.8,0.3,1.8,0.7,1.8,1.8c0,1-0.8,1.8-2.3,1.8C255,85.7,254.2,85.4,253.6,84.9z"/>
								<path class="st4" d="M259.1,82.6c0-2,1.3-3.2,2.8-3.2c1.6,0,2.5,1.2,2.5,2.9c0,0.2,0,0.5-0.1,0.6h-3.9
									c0.1,1.2,0.8,1.8,1.9,1.8c0.5,0,1-0.2,1.4-0.5l0.4,0.8c-0.6,0.4-1.3,0.6-2,0.6C260.4,85.7,259.1,84.6,259.1,82.6z M263.2,82
									c0-1-0.5-1.7-1.4-1.7c-0.8,0-1.4,0.6-1.6,1.7H263.2z"/>
								<path class="st4" d="M268.2,84.2v-7.3h1.3v7.4c0,0.3,0.2,0.5,0.3,0.5c0.1,0,0.1,0,0.2,0l0.2,1c-0.2,0.1-0.4,0.1-0.7,0.1
									C268.5,85.7,268.2,85.2,268.2,84.2z"/>
								<path class="st4" d="M271.5,84.2v-7.3h1.3v7.4c0,0.3,0.2,0.5,0.3,0.5c0.1,0,0.1,0,0.2,0l0.2,1c-0.2,0.1-0.4,0.1-0.7,0.1
									C271.8,85.7,271.5,85.2,271.5,84.2z"/>
							</g>
							<g class="st3">
								<path class="st4" d="M104.1,193.5h2.5c1.8,0,3.1,0.6,3.1,2.4c0,1.8-1.3,2.6-3,2.6h-1.2v3.1h-1.3L104.1,193.5L104.1,193.5z
									 M106.4,197.5c1.3,0,1.9-0.5,1.9-1.6s-0.7-1.4-2-1.4h-1.1v3H106.4z"/>
								<path class="st4" d="M111.1,192.8h1.3v2.3v1.2c0.5-0.5,1.1-1,2-1c1.3,0,1.9,0.9,1.9,2.4v3.8H115v-3.7c0-1-0.3-1.5-1-1.5
									c-0.6,0-0.9,0.3-1.5,0.8v4.3h-1.3L111.1,192.8L111.1,192.8z"/>
								<path class="st4" d="M117.6,200c0-1.3,1.1-2,3.6-2.2c0-0.7-0.3-1.3-1.2-1.3c-0.6,0-1.2,0.3-1.7,0.6l-0.5-0.9
									c0.6-0.4,1.5-0.8,2.4-0.8c1.5,0,2.2,1,2.2,2.6v3.6h-1l-0.1-0.7l0,0c-0.5,0.5-1.2,0.8-1.9,0.8
									C118.3,201.7,117.6,201.1,117.6,200z M121.2,200v-1.4c-1.8,0.2-2.4,0.7-2.4,1.4c0,0.6,0.4,0.8,0.9,0.8
									C120.2,200.7,120.7,200.5,121.2,200z"/>
								<path class="st4" d="M123.6,200.9l0.6-0.8c0.5,0.4,1.1,0.7,1.7,0.7c0.7,0,1.1-0.4,1.1-0.8c0-0.6-0.7-0.8-1.3-1
									c-0.8-0.3-1.7-0.7-1.7-1.8c0-1,0.8-1.8,2.1-1.8c0.8,0,1.5,0.3,2,0.7l-0.6,0.8c-0.4-0.3-0.8-0.5-1.4-0.5c-0.7,0-1,0.3-1,0.7
									c0,0.5,0.6,0.7,1.3,1c0.8,0.3,1.8,0.7,1.8,1.8c0,1-0.8,1.8-2.3,1.8C125,201.7,124.2,201.4,123.6,200.9z"/>
								<path class="st4" d="M129.1,198.6c0-2,1.3-3.2,2.8-3.2c1.6,0,2.5,1.2,2.5,2.9c0,0.2,0,0.5-0.1,0.6h-3.9
									c0.1,1.2,0.8,1.8,1.9,1.8c0.5,0,1-0.2,1.4-0.5l0.4,0.8c-0.6,0.4-1.3,0.6-2,0.6C130.4,201.7,129.1,200.6,129.1,198.6z
									 M133.2,198c0-1-0.5-1.7-1.4-1.7c-0.8,0-1.4,0.6-1.6,1.7H133.2z"/>
								<path class="st4" d="M138.2,200.2v-7.3h1.3v7.4c0,0.3,0.2,0.5,0.3,0.5s0.1,0,0.2,0l0.2,1c-0.2,0.1-0.4,0.1-0.7,0.1
									C138.5,201.7,138.2,201.2,138.2,200.2z"/>
								<path class="st4" d="M141.5,200.2v-7.3h1.3v7.4c0,0.3,0.2,0.5,0.3,0.5s0.1,0,0.2,0l0.2,1c-0.2,0.1-0.4,0.1-0.7,0.1
									C141.8,201.7,141.5,201.2,141.5,200.2z"/>
								<path class="st4" d="M144.8,200.2v-7.3h1.3v7.4c0,0.3,0.2,0.5,0.3,0.5s0.1,0,0.2,0l0.2,1c-0.2,0.1-0.4,0.1-0.7,0.1
									C145.1,201.7,144.8,201.2,144.8,200.2z"/>
							</g>
							<g class="st3">
								<path class="st5" d="M-18.9,67.5h2.5c1.7,0,2.9,0.5,2.9,2c0,0.8-0.4,1.5-1.2,1.7v0.1c0.9,0.2,1.6,0.8,1.6,1.9
									c0,1.6-1.3,2.4-3.1,2.4h-2.7V67.5z M-16.6,70.9c1.2,0,1.7-0.5,1.7-1.2c0-0.8-0.6-1.2-1.7-1.2h-1.1v2.4
									C-17.7,70.9-16.6,70.9-16.6,70.9z M-16.4,74.6c1.3,0,2-0.5,2-1.4s-0.7-1.3-2-1.3h-1.3v2.8L-16.4,74.6L-16.4,74.6z"/>
								<path class="st5" d="M-11.6,67.5h1.3v7h3.4v1.1h-4.7V67.5z"/>
								<path class="st5" d="M-1.7,73.3h-2.8l-0.7,2.3h-1.3l2.7-8.1h1.5l2.7,8.1H-1L-1.7,73.3z M-2,72.3l-0.3-1.1
									c-0.3-0.9-0.5-1.8-0.8-2.7l0,0c-0.2,0.9-0.5,1.8-0.7,2.7l-0.3,1.1H-2z"/>
								<path class="st5" d="M6,66.8h0.9L3.8,77.6H2.9L6,66.8z"/>
							</g>
							<text transform="matrix(1 0 0 1 -20 88.6242)" class="st5 st9 st10">Market</text>
						</g>
						<path class="st7" d="M82,127.3l-24.3,27.9c-0.5,0.6-1.5,0.7-2.1,0.1l0,0c-0.6-0.5-0.7-1.5-0.1-2.1l24.3-27.9
							c0.5-0.6,1.5-0.7,2.1-0.1l0,0C82.5,125.7,82.5,126.6,82,127.3z"/>
						<rect x="22" y="79.6" class="st11" width="23" height="2"/>
					</g>
					<g id="표-01">
						<g transform="translate(50.000000, 22.000000)">
							<path class="st7" d="M82-43.4L82-43.4c56.3,0,102,45.7,102,102l0,0c0,56.3-45.7,102-102,102l0,0c-56.3,0-102-45.7-102-102
								l0,0C-20,2.3,25.7-43.4,82-43.4z"/>
							<g>
								<path class="st0" d="M82.5,57.6V-43.9c-0.1,0-0.1,0-0.2,0C25.8-43.9-20,1.5-20,57.6l102.1,0.5"/>
								<path class="st7" d="M81.7,58.4H-19.8c0,0.1,0,0.1,0,0.2c0,56.5,45.4,102.3,101.5,102.3l0.5-102.1"/>
								<path class="st1" d="M82.7,58.3h101.5c0-0.1,0-0.1,0-0.2c0-56.5-45.4-102.3-101.5-102.3L82.2,57.9"/>
								<path class="st8" d="M82,59.1v101.5c0.1,0,0.1,0,0.2,0c56.5,0,102.3-45.4,102.3-101.5L82.3,58.6"/>
							</g>
							<path class="st2" d="M82-21.4L82-21.4c44.2,0,80,35.8,80,80l0,0c0,44.2-35.8,80-80,80l0,0c-44.2,0-80-35.8-80-80l0,0
								C2,14.4,37.8-21.4,82-21.4z"/>
						</g>
						<g transform="translate(7.000000, 0.000000)">
							<g class="st3">
								<path class="st4" d="M108.1-39.5h2.5c1.8,0,3.1,0.6,3.1,2.4s-1.3,2.6-3,2.6h-1.2v3.1h-1.3v-8.1H108.1z M110.4-35.5
									c1.3,0,1.9-0.5,1.9-1.6s-0.7-1.4-2-1.4h-1.1v3H110.4z"/>
								<path class="st4" d="M115.1-40.2h1.3v2.3v1.2c0.5-0.5,1.1-1,2-1c1.3,0,1.9,0.9,1.9,2.4v3.9H119v-3.7c0-1-0.3-1.5-1-1.5
									c-0.6,0-0.9,0.3-1.5,0.8v4.4h-1.3L115.1-40.2L115.1-40.2z"/>
								<path class="st4" d="M121.6-33c0-1.3,1.1-2,3.6-2.2c0-0.7-0.3-1.3-1.2-1.3c-0.6,0-1.2,0.3-1.7,0.6l-0.5-0.9
									c0.6-0.4,1.5-0.8,2.4-0.8c1.5,0,2.2,1,2.2,2.6v3.6h-1l-0.1-0.7l0,0c-0.5,0.5-1.2,0.8-1.9,0.8
									C122.3-31.3,121.6-31.9,121.6-33z M125.2-33v-1.4c-1.8,0.2-2.4,0.7-2.4,1.4c0,0.6,0.4,0.8,0.9,0.8
									C124.2-32.3,124.7-32.5,125.2-33z"/>
								<path class="st4" d="M127.6-32.1l0.6-0.8c0.5,0.4,1.1,0.7,1.7,0.7c0.7,0,1.1-0.4,1.1-0.8c0-0.6-0.7-0.8-1.3-1
									c-0.8-0.3-1.7-0.7-1.7-1.8c0-1,0.8-1.8,2.1-1.8c0.8,0,1.5,0.3,2,0.7l-0.6,0.8c-0.4-0.3-0.8-0.5-1.4-0.5c-0.7,0-1,0.3-1,0.7
									c0,0.5,0.6,0.7,1.3,1c0.8,0.3,1.8,0.7,1.8,1.8c0,1-0.8,1.8-2.3,1.8C129-31.3,128.2-31.6,127.6-32.1z"/>
								<path class="st4" d="M133.1-34.4c0-2,1.3-3.2,2.8-3.2c1.6,0,2.5,1.2,2.5,2.9c0,0.2,0,0.5-0.1,0.6h-3.9
									c0.1,1.2,0.8,1.8,1.9,1.8c0.5,0,1-0.2,1.4-0.5l0.4,0.8c-0.6,0.4-1.3,0.6-2,0.6C134.4-31.3,133.1-32.4,133.1-34.4z M137.2-35
									c0-1-0.5-1.7-1.4-1.7c-0.8,0-1.4,0.6-1.6,1.7H137.2z"/>
								<path class="st4" d="M142.2-32.8v-7.4h1.3v7.4c0,0.3,0.2,0.5,0.3,0.5s0.1,0,0.2,0l0.2,1c-0.2,0.1-0.4,0.1-0.7,0.1
									C142.5-31.3,142.2-31.8,142.2-32.8z"/>
							</g>
							<g class="st3">
								<path class="st4" d="M234.1,77.5h2.5c1.8,0,3.1,0.6,3.1,2.4s-1.3,2.6-3,2.6h-1.2v3.1h-1.3v-8.1H234.1z M236.4,81.5
									c1.3,0,1.9-0.5,1.9-1.6s-0.7-1.4-2-1.4h-1.1v3H236.4z"/>
								<path class="st4" d="M241.1,76.8h1.3v2.3v1.2c0.5-0.5,1.1-1,2-1c1.3,0,1.9,0.9,1.9,2.4v3.8H245v-3.7c0-1-0.3-1.5-1-1.5
									c-0.6,0-0.9,0.3-1.5,0.8v4.3h-1.3v-8.6H241.1z"/>
								<path class="st4" d="M247.6,84c0-1.3,1.1-2,3.6-2.2c0-0.7-0.3-1.3-1.2-1.3c-0.6,0-1.2,0.3-1.8,0.6l-0.5-0.9
									c0.6-0.4,1.5-0.8,2.4-0.8c1.5,0,2.2,1,2.2,2.6v3.6h-1l-0.1-0.7l0,0c-0.5,0.5-1.2,0.8-1.9,0.8
									C248.3,85.7,247.6,85.1,247.6,84z M251.2,84v-1.4c-1.8,0.2-2.4,0.7-2.4,1.4c0,0.6,0.4,0.8,0.9,0.8
									C250.2,84.7,250.7,84.5,251.2,84z"/>
								<path class="st4" d="M253.6,84.9l0.6-0.8c0.5,0.4,1.1,0.7,1.7,0.7c0.7,0,1.1-0.4,1.1-0.8c0-0.6-0.7-0.8-1.3-1
									c-0.8-0.3-1.7-0.7-1.7-1.8c0-1,0.8-1.8,2.1-1.8c0.8,0,1.5,0.3,2,0.7l-0.6,0.8c-0.4-0.3-0.8-0.5-1.4-0.5c-0.7,0-1,0.3-1,0.7
									c0,0.5,0.6,0.7,1.3,1c0.8,0.3,1.8,0.7,1.8,1.8c0,1-0.8,1.8-2.3,1.8C255,85.7,254.2,85.4,253.6,84.9z"/>
								<path class="st4" d="M259.1,82.6c0-2,1.3-3.2,2.8-3.2c1.6,0,2.5,1.2,2.5,2.9c0,0.2,0,0.5-0.1,0.6h-3.9
									c0.1,1.2,0.8,1.8,1.9,1.8c0.5,0,1-0.2,1.4-0.5l0.4,0.8c-0.6,0.4-1.3,0.6-2,0.6C260.4,85.7,259.1,84.6,259.1,82.6z M263.2,82
									c0-1-0.5-1.7-1.4-1.7c-0.8,0-1.4,0.6-1.6,1.7H263.2z"/>
								<path class="st4" d="M268.2,84.2v-7.3h1.3v7.4c0,0.3,0.2,0.5,0.3,0.5c0.1,0,0.1,0,0.2,0l0.2,1c-0.2,0.1-0.4,0.1-0.7,0.1
									C268.5,85.7,268.2,85.2,268.2,84.2z"/>
								<path class="st4" d="M271.5,84.2v-7.3h1.3v7.4c0,0.3,0.2,0.5,0.3,0.5c0.1,0,0.1,0,0.2,0l0.2,1c-0.2,0.1-0.4,0.1-0.7,0.1
									C271.8,85.7,271.5,85.2,271.5,84.2z"/>
							</g>
							<g class="st3">
								<path class="st4" d="M104.1,193.5h2.5c1.8,0,3.1,0.6,3.1,2.4c0,1.8-1.3,2.6-3,2.6h-1.2v3.1h-1.3L104.1,193.5L104.1,193.5z
									 M106.4,197.5c1.3,0,1.9-0.5,1.9-1.6s-0.7-1.4-2-1.4h-1.1v3H106.4z"/>
								<path class="st4" d="M111.1,192.8h1.3v2.3v1.2c0.5-0.5,1.1-1,2-1c1.3,0,1.9,0.9,1.9,2.4v3.8H115v-3.7c0-1-0.3-1.5-1-1.5
									c-0.6,0-0.9,0.3-1.5,0.8v4.3h-1.3L111.1,192.8L111.1,192.8z"/>
								<path class="st4" d="M117.6,200c0-1.3,1.1-2,3.6-2.2c0-0.7-0.3-1.3-1.2-1.3c-0.6,0-1.2,0.3-1.7,0.6l-0.5-0.9
									c0.6-0.4,1.5-0.8,2.4-0.8c1.5,0,2.2,1,2.2,2.6v3.6h-1l-0.1-0.7l0,0c-0.5,0.5-1.2,0.8-1.9,0.8
									C118.3,201.7,117.6,201.1,117.6,200z M121.2,200v-1.4c-1.8,0.2-2.4,0.7-2.4,1.4c0,0.6,0.4,0.8,0.9,0.8
									C120.2,200.7,120.7,200.5,121.2,200z"/>
								<path class="st4" d="M123.6,200.9l0.6-0.8c0.5,0.4,1.1,0.7,1.7,0.7c0.7,0,1.1-0.4,1.1-0.8c0-0.6-0.7-0.8-1.3-1
									c-0.8-0.3-1.7-0.7-1.7-1.8c0-1,0.8-1.8,2.1-1.8c0.8,0,1.5,0.3,2,0.7l-0.6,0.8c-0.4-0.3-0.8-0.5-1.4-0.5c-0.7,0-1,0.3-1,0.7
									c0,0.5,0.6,0.7,1.3,1c0.8,0.3,1.8,0.7,1.8,1.8c0,1-0.8,1.8-2.3,1.8C125,201.7,124.2,201.4,123.6,200.9z"/>
								<path class="st4" d="M129.1,198.6c0-2,1.3-3.2,2.8-3.2c1.6,0,2.5,1.2,2.5,2.9c0,0.2,0,0.5-0.1,0.6h-3.9
									c0.1,1.2,0.8,1.8,1.9,1.8c0.5,0,1-0.2,1.4-0.5l0.4,0.8c-0.6,0.4-1.3,0.6-2,0.6C130.4,201.7,129.1,200.6,129.1,198.6z
									 M133.2,198c0-1-0.5-1.7-1.4-1.7c-0.8,0-1.4,0.6-1.6,1.7H133.2z"/>
								<path class="st4" d="M138.2,200.2v-7.3h1.3v7.4c0,0.3,0.2,0.5,0.3,0.5s0.1,0,0.2,0l0.2,1c-0.2,0.1-0.4,0.1-0.7,0.1
									C138.5,201.7,138.2,201.2,138.2,200.2z"/>
								<path class="st4" d="M141.5,200.2v-7.3h1.3v7.4c0,0.3,0.2,0.5,0.3,0.5s0.1,0,0.2,0l0.2,1c-0.2,0.1-0.4,0.1-0.7,0.1
									C141.8,201.7,141.5,201.2,141.5,200.2z"/>
								<path class="st4" d="M144.8,200.2v-7.3h1.3v7.4c0,0.3,0.2,0.5,0.3,0.5s0.1,0,0.2,0l0.2,1c-0.2,0.1-0.4,0.1-0.7,0.1
									C145.1,201.7,144.8,201.2,144.8,200.2z"/>
							</g>
							<g class="st3">
								<path class="st5" d="M-18.9,67.5h2.5c1.7,0,2.9,0.5,2.9,2c0,0.8-0.4,1.5-1.2,1.7v0.1c0.9,0.2,1.6,0.8,1.6,1.9
									c0,1.6-1.3,2.4-3.1,2.4h-2.7V67.5z M-16.6,70.9c1.2,0,1.7-0.5,1.7-1.2c0-0.8-0.6-1.2-1.7-1.2h-1.1v2.4
									C-17.7,70.9-16.6,70.9-16.6,70.9z M-16.4,74.6c1.3,0,2-0.5,2-1.4s-0.7-1.3-2-1.3h-1.3v2.8L-16.4,74.6L-16.4,74.6z"/>
								<path class="st5" d="M-11.6,67.5h1.3v7h3.4v1.1h-4.7V67.5z"/>
								<path class="st5" d="M-1.7,73.3h-2.8l-0.7,2.3h-1.3l2.7-8.1h1.5l2.7,8.1H-1L-1.7,73.3z M-2,72.3l-0.3-1.1
									c-0.3-0.9-0.5-1.8-0.8-2.7l0,0c-0.2,0.9-0.5,1.8-0.7,2.7l-0.3,1.1H-2z"/>
								<path class="st5" d="M6,66.8h0.9L3.8,77.6H2.9L6,66.8z"/>
							</g>
							<g class="st3">
								<path class="st5" d="M-18.9,80.5h1.5l1.4,4.1c0.2,0.5,0.4,1.1,0.5,1.6h0.1c0.2-0.5,0.3-1.1,0.5-1.6l1.5-4.1h1.5v8.1h-1.2v-4
									c0-0.7,0.1-1.8,0.2-2.5l0,0l-0.6,1.9l-1.5,3.8h-0.8l-1.4-3.9l-0.6-1.9l0,0c0.1,0.7,0.2,1.8,0.2,2.5v4h-1.3V80.5z"/>
								<path class="st5" d="M-10.3,87c0-1.3,1.1-2,3.6-2.2c0-0.7-0.3-1.3-1.2-1.3c-0.6,0-1.2,0.3-1.7,0.6l-0.5-0.9
									c0.6-0.4,1.5-0.8,2.4-0.8c1.5,0,2.2,1,2.2,2.6v3.6h-1l-0.1-0.7l0,0c-0.5,0.5-1.2,0.8-1.9,0.8C-9.5,88.7-10.3,88.1-10.3,87z
									 M-6.6,87v-1.4C-8.4,85.8-9,86.3-9,87c0,0.6,0.4,0.8,0.9,0.8C-7.6,87.7-7.1,87.5-6.6,87z"/>
								<path class="st5" d="M-3.6,82.5h1l0.1,1.1l0,0c0.4-0.8,1.1-1.2,1.7-1.2c0.3,0,0.5,0,0.7,0.1l-0.2,1.1
									c-0.2-0.1-0.4-0.1-0.6-0.1c-0.5,0-1.1,0.3-1.5,1.3v3.8h-1.3L-3.6,82.5L-3.6,82.5z"/>
								<path class="st5" d="M0.9,79.8h1.2v5.7l0,0l2.4-2.9h1.4l-2.1,2.5l2.3,3.6H4.7L3.1,86l-1,1.2v1.6H0.9
									C0.9,88.8,0.9,79.8,0.9,79.8z"/>
								<path class="st5" d="M6.5,85.6c0-2,1.3-3.2,2.8-3.2c1.6,0,2.5,1.2,2.5,2.9c0,0.2,0,0.5-0.1,0.6H7.8c0.1,1.2,0.8,1.8,1.9,1.8
									c0.5,0,1-0.2,1.4-0.5l0.4,0.8c-0.6,0.4-1.3,0.6-2,0.6C7.9,88.7,6.5,87.6,6.5,85.6z M10.7,85c0-1-0.5-1.7-1.4-1.7
									c-0.8,0-1.4,0.6-1.6,1.7H10.7z"/>
								<path class="st5" d="M13.3,86.6v-3h-0.9v-1l0.9-0.1l0.1-1.7h1.1v1.7h1.6v1h-1.6v3.1c0,0.7,0.3,1.1,0.9,1.1
									c0.2,0,0.5-0.1,0.6-0.1l0.2,0.9c-0.3,0.1-0.7,0.2-1.2,0.2C13.7,88.7,13.3,87.9,13.3,86.6z"/>
							</g>
						</g>
						<g class="st3">
							<path class="st6" d="M105.2,77h2.6c2.9,0,4.8,1.5,4.8,4.8c0,3.2-1.8,4.8-4.7,4.8h-2.7V77z M107.7,85.1c1.8,0,2.9-1,2.9-3.3
								c0-2.4-1.1-3.2-2.9-3.2h-0.6v6.5H107.7z"/>
							<path class="st6" d="M114.5,77h3.2c2.1,0,3.8,0.7,3.8,3c0,2.2-1.7,3.2-3.7,3.2h-1.3v3.4h-1.9V77H114.5z M117.5,81.7
								c1.3,0,2-0.6,2-1.7s-0.7-1.5-2-1.5h-1.1v3.2H117.5z"/>
							<path class="st6" d="M123.1,77h2l2.8,5.1l1,2.1h0.1c-0.1-1-0.2-2.3-0.2-3.4V77h1.8v9.6h-2l-2.8-5.1l-1-2.1h-0.1
								c0.1,1,0.2,2.2,0.2,3.4v3.9h-1.8V77z"/>
							<path class="st6" d="M135.7,82.5c0-2.6,0.7-4.7,1.9-6.7l1.2,0.5c-1.1,1.9-1.6,4.1-1.6,6.2s0.5,4.3,1.6,6.2l-1.2,0.5
								C136.5,87.2,135.7,85.1,135.7,82.5z"/>
							<path class="st6" d="M140.7,82.3V77h1.9v5.5c0,2,0.7,2.7,1.8,2.7s1.9-0.7,1.9-2.7V77h1.8v5.3c0,3.2-1.4,4.5-3.7,4.5
								C142.1,86.8,140.7,85.5,140.7,82.3z"/>
							<path class="st6" d="M149.7,85.4l1.1-1.3c0.7,0.6,1.6,1.1,2.4,1.1c1,0,1.5-0.4,1.5-1.1c0-0.7-0.6-0.9-1.4-1.3l-1.3-0.5
								c-1-0.4-2-1.2-2-2.6c0-1.6,1.4-2.8,3.3-2.8c1.1,0,2.2,0.4,3,1.2l-1,1.2c-0.6-0.5-1.2-0.8-2-0.8s-1.4,0.4-1.4,1
								c0,0.7,0.7,0.9,1.5,1.3l1.3,0.5c1.2,0.5,1.9,1.2,1.9,2.6c0,1.6-1.3,2.9-3.5,2.9C151.9,86.8,150.6,86.3,149.7,85.4z"/>
							<path class="st6" d="M157.9,88.7c1.1-1.9,1.6-4.1,1.6-6.2c0-2.1-0.5-4.3-1.6-6.2l1.2-0.5c1.2,2,1.9,4.1,1.9,6.7
								c0,2.6-0.7,4.7-1.9,6.7L157.9,88.7z"/>
						</g>
						<path class="st7" d="M68.5,82.6h-37c-0.8,0-1.5-0.7-1.5-1.5l0,0c0-0.8,0.7-1.5,1.5-1.5h37c0.8,0,1.5,0.7,1.5,1.5l0,0
							C70,81.9,69.3,82.6,68.5,82.6z"/>
					</g>
				</g>
				<g id="Divider" transform="translate(21.000000, 309.000000)">
					<rect id="divider04" x="-20" y="245.6" class="st12" width="334" height="1"/>
					<rect id="divider03" x="-20" y="535.6" class="st12" width="334" height="1"/>
					<rect id="divider02" x="-20" y="-44.4" class="st12" width="334" height="1"/>
				</g>
			</g>
		</g>
	</g>
</g>
</svg>
