<?xml version="1.0" encoding="utf-8"?>
<!-- Generator: Adobe Illustrator 23.0.6, SVG Export Plug-In . SVG Version: 6.00 Build 0)  -->
<svg version="1.1" id="Layer_1" xmlns="http://www.w3.org/2000/svg" xmlns:xlink="http://www.w3.org/1999/xlink" x="0px" y="0px"
	 viewBox="0 0 867 275" style="enable-background:new 0 0 867 275;" xml:space="preserve">
<style type="text/css">
	.st0{fill-rule:evenodd;clip-rule:evenodd;fill:#FFFFFF;stroke:#B54142;}
	.st1{enable-background:new    ;}
	.st2{fill:#B54142;}
	.st3{fill-rule:evenodd;clip-rule:evenodd;fill:#B54142;stroke:#B54142;stroke-width:1.5;}
	.st4{fill:#FFFFFF;}
	.st5{font-family:'NotoSansKR-Bold-KSCpc-EUC-H';}
	.st6{font-size:15px;}
	.st7{fill:none;stroke:#EAB4B5;stroke-linecap:square;stroke-dasharray:10;}
	.st8{fill-rule:evenodd;clip-rule:evenodd;fill:#B54142;}
</style>
<title>표</title>
<desc>Created with Sketch.</desc>
<g id="Page-1">
	<g transform="translate(-287.000000, -1858.000000)">
		<g id="second" transform="translate(190.000000, 1753.000000)">
			<g id="표" transform="translate(97.000000, 105.000000)">
				<g id="수직" transform="translate(87.000000, 60.000000)">
					<g>
						<path id="bg" class="st0" d="M8.5,0.5h133c4.4,0,8,3.6,8,8v33c0,4.4-3.6,8-8,8H8.5c-4.4,0-8-3.6-8-8v-33
							C0.5,4.1,4.1,0.5,8.5,0.5z"/>
						<g class="st1">
							<path class="st2" d="M43.5,20h2.9c3.4,0,5.3,1.9,5.3,5.5c0,3.6-1.9,5.6-5.2,5.6h-3V20z M46.2,29.6c2.4,0,3.6-1.4,3.6-4.1
								c0-2.8-1.3-4.1-3.6-4.1h-1v8.2H46.2z"/>
							<path class="st2" d="M53.9,20h3.3c2.5,0,4.2,0.8,4.2,3.3c0,2.4-1.8,3.5-4.2,3.5h-1.7V31h-1.7V20z M57.2,25.4
								c1.8,0,2.6-0.7,2.6-2.1s-0.9-1.9-2.7-1.9h-1.4v4.1H57.2z"/>
							<path class="st2" d="M63.6,20h1.8l3.7,6.5l1.2,2.3h0.1c-0.1-1.1-0.2-2.5-0.2-3.7V20h1.6v11H70l-3.7-6.5l-1.2-2.3h-0.1
								c0.1,1.1,0.2,2.4,0.2,3.6V31h-1.6V20z"/>
							<path class="st2" d="M77.9,26.3c0-3,0.8-5.4,2.2-7.7l1.1,0.5c-1.3,2.2-1.9,4.7-1.9,7.2c0,2.5,0.6,5.1,1.9,7.2L80.1,34
								C78.7,31.7,77.9,29.3,77.9,26.3z"/>
							<path class="st2" d="M83.3,26.3V20H85v6.4c0,2.5,1,3.3,2.4,3.3c1.4,0,2.4-0.8,2.4-3.3V20h1.7v6.3c0,3.6-1.6,4.9-4.1,4.9
								S83.3,29.9,83.3,26.3z"/>
							<path class="st2" d="M93.4,29.6l1-1.2c0.8,0.8,1.9,1.3,2.9,1.3c1.3,0,2.1-0.6,2.1-1.6c0-1-0.8-1.3-1.8-1.8l-1.5-0.7
								c-1.1-0.5-2.2-1.3-2.2-2.9c0-1.7,1.5-3,3.6-3c1.3,0,2.5,0.5,3.3,1.4l-0.9,1.1c-0.7-0.6-1.5-1-2.4-1c-1.1,0-1.9,0.5-1.9,1.4
								c0,0.9,0.9,1.3,1.8,1.7L99,25c1.3,0.6,2.2,1.4,2.2,3c0,1.8-1.5,3.2-3.9,3.2C95.8,31.2,94.4,30.6,93.4,29.6z"/>
							<path class="st2" d="M102.5,33.5c1.3-2.1,1.9-4.7,1.9-7.2c0-2.5-0.6-5-1.9-7.2l1.1-0.5c1.4,2.3,2.2,4.7,2.2,7.7
								c0,3-0.8,5.4-2.2,7.7L102.5,33.5z"/>
						</g>
					</g>
					<g transform="translate(0.000000, 55.000000)">
						<path class="st0" d="M8.5,0.5h133c4.4,0,8,3.6,8,8v33c0,4.4-3.6,8-8,8H8.5c-4.4,0-8-3.6-8-8v-33C0.5,4.1,4.1,0.5,8.5,0.5z"/>
						<g class="st1">
							<path class="st2" d="M45.5,20h2.9c3.4,0,5.3,1.9,5.3,5.5c0,3.6-1.9,5.6-5.2,5.6h-3V20z M48.2,29.6c2.4,0,3.6-1.4,3.6-4.1
								c0-2.8-1.3-4.1-3.6-4.1h-1v8.2H48.2z"/>
							<path class="st2" d="M56,20h6.5v1.5h-4.8v3.4h4.1v1.5h-4.1V31H56V20z"/>
							<path class="st2" d="M64.4,26.3V20h1.7v6.4c0,2.5,1,3.3,2.4,3.3c1.4,0,2.4-0.8,2.4-3.3V20h1.7v6.3c0,3.6-1.6,4.9-4.1,4.9
								S64.4,29.9,64.4,26.3z"/>
							<path class="st2" d="M78.7,26.3c0-3,0.8-5.4,2.2-7.7l1.1,0.5c-1.3,2.2-1.9,4.7-1.9,7.2c0,2.5,0.6,5.1,1.9,7.2L80.9,34
								C79.5,31.7,78.7,29.3,78.7,26.3z"/>
							<path class="st2" d="M84.1,26.3V20h1.7v6.4c0,2.5,1,3.3,2.4,3.3c1.4,0,2.4-0.8,2.4-3.3V20h1.7v6.3c0,3.6-1.6,4.9-4.1,4.9
								S84.1,29.9,84.1,26.3z"/>
							<path class="st2" d="M94.2,29.6l1-1.2c0.8,0.8,1.9,1.3,2.9,1.3c1.3,0,2.1-0.6,2.1-1.6c0-1-0.8-1.3-1.8-1.8l-1.5-0.7
								c-1.1-0.5-2.2-1.3-2.2-2.9c0-1.7,1.5-3,3.6-3c1.3,0,2.5,0.5,3.3,1.4l-0.9,1.1c-0.7-0.6-1.5-1-2.4-1c-1.1,0-1.9,0.5-1.9,1.4
								c0,0.9,0.9,1.3,1.8,1.7l1.5,0.6c1.3,0.6,2.2,1.4,2.2,3c0,1.8-1.5,3.2-3.9,3.2C96.6,31.2,95.2,30.6,94.2,29.6z"/>
							<path class="st2" d="M103.3,33.5c1.3-2.1,1.9-4.7,1.9-7.2c0-2.5-0.6-5-1.9-7.2l1.1-0.5c1.4,2.3,2.2,4.7,2.2,7.7
								c0,3-0.8,5.4-2.2,7.7L103.3,33.5z"/>
						</g>
					</g>
					<g transform="translate(0.000000, 110.000000)">
						<path class="st0" d="M8.5,0.5h133c4.4,0,8,3.6,8,8v33c0,4.4-3.6,8-8,8H8.5c-4.4,0-8-3.6-8-8v-33C0.5,4.1,4.1,0.5,8.5,0.5z"/>
						<g class="st1">
							<path class="st2" d="M51.6,27.9h-3.8L46.8,31H45l3.7-11h2l3.7,11h-1.8L51.6,27.9z M51.1,26.5L50.7,25c-0.4-1.2-0.7-2.4-1-3.7
								h-0.1c-0.3,1.3-0.7,2.5-1,3.7l-0.4,1.5H51.1z"/>
							<path class="st2" d="M55.8,20h1.7v9.6h4.7V31h-6.4V20z"/>
							<path class="st2" d="M63,29.6l1-1.2c0.8,0.8,1.9,1.3,2.9,1.3c1.3,0,2.1-0.6,2.1-1.6c0-1-0.8-1.3-1.8-1.8l-1.5-0.7
								c-1.1-0.5-2.2-1.3-2.2-2.9c0-1.7,1.5-3,3.6-3c1.3,0,2.5,0.5,3.3,1.4l-0.9,1.1c-0.7-0.6-1.5-1-2.4-1c-1.1,0-1.9,0.5-1.9,1.4
								c0,0.9,0.9,1.3,1.8,1.7l1.5,0.6c1.3,0.6,2.2,1.4,2.2,3c0,1.8-1.5,3.2-3.9,3.2C65.4,31.2,64,30.6,63,29.6z"/>
							<path class="st2" d="M76.1,26.3c0-3,0.8-5.4,2.2-7.7l1.1,0.5c-1.3,2.2-1.9,4.7-1.9,7.2c0,2.5,0.6,5.1,1.9,7.2L78.3,34
								C76.9,31.7,76.1,29.3,76.1,26.3z"/>
							<path class="st2" d="M81.5,26.3V20h1.7v6.4c0,2.5,1,3.3,2.4,3.3c1.4,0,2.4-0.8,2.4-3.3V20h1.7v6.3c0,3.6-1.6,4.9-4.1,4.9
								S81.5,29.9,81.5,26.3z"/>
							<path class="st2" d="M91.6,29.6l1-1.2c0.8,0.8,1.9,1.3,2.9,1.3c1.3,0,2.1-0.6,2.1-1.6c0-1-0.8-1.3-1.8-1.8l-1.5-0.7
								c-1.1-0.5-2.2-1.3-2.2-2.9c0-1.7,1.5-3,3.6-3c1.3,0,2.5,0.5,3.3,1.4l-0.9,1.1c-0.7-0.6-1.5-1-2.4-1c-1.1,0-1.9,0.5-1.9,1.4
								c0,0.9,0.9,1.3,1.8,1.7l1.5,0.6c1.3,0.6,2.2,1.4,2.2,3c0,1.8-1.5,3.2-3.9,3.2C94,31.2,92.6,30.6,91.6,29.6z"/>
							<path class="st2" d="M100.7,33.5c1.3-2.1,1.9-4.7,1.9-7.2c0-2.5-0.6-5-1.9-7.2l1.1-0.5c1.4,2.3,2.2,4.7,2.2,7.7
								c0,3-0.8,5.4-2.2,7.7L100.7,33.5z"/>
						</g>
					</g>
					<g transform="translate(0.000000, 165.000000)">
						<path class="st0" d="M8.5,0.5h133c4.4,0,8,3.6,8,8v33c0,4.4-3.6,8-8,8H8.5c-4.4,0-8-3.6-8-8v-33C0.5,4.1,4.1,0.5,8.5,0.5z"/>
						<g class="st1">
							<path class="st2" d="M32.9,25.5c0-3.6,2.2-5.8,5-5.8c1.4,0,2.5,0.7,3.1,1.4L40,22.3c-0.6-0.6-1.3-1-2.2-1
								c-1.9,0-3.2,1.6-3.2,4.2c0,2.6,1.2,4.2,3.2,4.2c1,0,1.8-0.4,2.4-1.2l0.9,1.1c-0.9,1-2,1.6-3.4,1.6
								C35,31.2,32.9,29.1,32.9,25.5z"/>
							<path class="st2" d="M48.2,27.9h-3.8L43.5,31h-1.8l3.7-11h2L51,31h-1.8L48.2,27.9z M47.8,26.5L47.4,25
								c-0.4-1.2-0.7-2.4-1-3.7h-0.1c-0.3,1.3-0.7,2.5-1,3.7l-0.5,1.5H47.8z"/>
							<path class="st2" d="M52.5,20h2.9c3.4,0,5.3,1.9,5.3,5.5c0,3.6-1.9,5.6-5.2,5.6h-3V20z M55.2,29.6c2.4,0,3.6-1.4,3.6-4.1
								c0-2.8-1.3-4.1-3.6-4.1h-1v8.2H55.2z"/>
							<path class="st2" d="M66.2,26.3c0-3,0.8-5.4,2.2-7.7l1.1,0.5c-1.3,2.2-1.9,4.7-1.9,7.2c0,2.5,0.6,5.1,1.9,7.2L68.4,34
								C67,31.7,66.2,29.3,66.2,26.3z"/>
							<path class="st2" d="M71.7,20h1.7v5.2h0l4.2-5.2h1.9l-3.4,4.3l4,6.8h-1.9l-3.1-5.4l-1.7,2.1V31h-1.7V20z"/>
							<path class="st2" d="M80.7,26.9c0-2.8,1.8-4.4,3.9-4.4c2,0,3.9,1.6,3.9,4.4c0,2.7-1.8,4.3-3.9,4.3
								C82.5,31.2,80.7,29.6,80.7,26.9z M86.7,26.9c0-1.8-0.8-2.9-2.1-2.9c-1.3,0-2.1,1.2-2.1,2.9c0,1.7,0.8,2.9,2.1,2.9
								C85.9,29.8,86.7,28.6,86.7,26.9z"/>
							<path class="st2" d="M90.5,22.8h1.4l0.1,1.5h0c0.6-1.1,1.5-1.7,2.3-1.7c0.4,0,0.7,0.1,0.9,0.2L95,24.2
								c-0.3-0.1-0.5-0.1-0.8-0.1c-0.7,0-1.5,0.5-2,1.8V31h-1.7V22.8z"/>
							<path class="st2" d="M95.9,26.9c0-2.7,1.8-4.4,3.8-4.4c2.2,0,3.4,1.6,3.4,3.9c0,0.3,0,0.7-0.1,0.9h-5.4
								c0.1,1.6,1.1,2.5,2.5,2.5c0.7,0,1.4-0.2,2-0.6l0.6,1.1c-0.8,0.5-1.7,0.9-2.8,0.9C97.7,31.2,95.9,29.6,95.9,26.9z M101.5,26.1
								c0-1.4-0.6-2.2-1.8-2.2c-1,0-1.9,0.8-2.1,2.2H101.5z"/>
							<path class="st2" d="M104.2,28.8c0-1.8,1.5-2.7,4.9-3.1c0-1-0.4-1.8-1.6-1.8c-0.9,0-1.7,0.4-2.4,0.8l-0.6-1.2
								c0.9-0.5,2-1.1,3.3-1.1c2.1,0,3,1.3,3,3.5v5h-1.4l-0.1-0.9h0c-0.8,0.6-1.6,1.1-2.6,1.1C105.2,31.2,104.2,30.3,104.2,28.8z
								 M109.2,28.9v-2c-2.4,0.3-3.3,0.9-3.3,1.8c0,0.8,0.6,1.1,1.3,1.1C107.9,29.8,108.5,29.5,109.2,28.9z"/>
							<path class="st2" d="M112.7,33.5c1.3-2.1,1.9-4.7,1.9-7.2c0-2.5-0.6-5-1.9-7.2l1.1-0.5c1.4,2.3,2.2,4.7,2.2,7.7
								c0,3-0.8,5.4-2.2,7.7L112.7,33.5z"/>
						</g>
					</g>
				</g>
				<g id="수평">
					<g id="COLE">
						<path class="st3" d="M8.8,0.8h212.5c4.4,0,8,3.6,8,8v32.5c0,4.4-3.6,8-8,8H8.8c-4.4,0-8-3.6-8-8V8.8C0.8,4.3,4.3,0.8,8.8,0.8z
							"/>
						<path class="st3" d="M248.8,0.8h132.5c4.4,0,8,3.6,8,8v32.5c0,4.4-3.6,8-8,8H248.8c-4.4,0-8-3.6-8-8V8.8
							C240.8,4.3,244.3,0.8,248.8,0.8z"/>
						<g class="st1">
							<path class="st4" d="M286.4,19.9h3.6c2.5,0,4.3,0.9,4.3,3.5c0,2.5-1.9,3.7-4.3,3.7h-1.5V31h-2.2V19.9z M289.9,25.3
								c1.5,0,2.3-0.6,2.3-1.9c0-1.3-0.8-1.7-2.3-1.7h-1.3v3.6H289.9z"/>
							<path class="st4" d="M296.2,19h2.2v3l-0.1,1.6c0.7-0.6,1.5-1.2,2.6-1.2c1.8,0,2.6,1.3,2.6,3.4V31h-2.2v-5
								c0-1.3-0.4-1.8-1.2-1.8c-0.7,0-1.1,0.3-1.8,0.9V31h-2.2V19z"/>
							<path class="st4" d="M305.4,28.7c0-1.8,1.5-2.7,4.8-3.1c0-0.8-0.4-1.5-1.4-1.5c-0.8,0-1.5,0.3-2.3,0.8l-0.8-1.5
								c1-0.6,2.2-1.1,3.5-1.1c2.1,0,3.2,1.3,3.2,3.7V31h-1.8l-0.2-0.9h0c-0.7,0.6-1.6,1.1-2.5,1.1
								C306.4,31.2,305.4,30.1,305.4,28.7z M310.2,28.7V27c-2,0.3-2.7,0.8-2.7,1.6c0,0.7,0.5,0.9,1.1,0.9
								C309.2,29.5,309.7,29.2,310.2,28.7z"/>
							<path class="st4" d="M313.9,30l1-1.4c0.8,0.6,1.5,0.9,2.2,0.9c0.8,0,1.2-0.4,1.2-0.9c0-0.6-0.9-0.9-1.8-1.3
								c-1.1-0.4-2.3-1-2.3-2.4c0-1.5,1.2-2.6,3.1-2.6c1.2,0,2.2,0.5,2.9,1l-1,1.3c-0.6-0.4-1.2-0.7-1.8-0.7c-0.8,0-1.1,0.3-1.1,0.8
								c0,0.6,0.8,0.8,1.7,1.2c1.1,0.4,2.3,1,2.3,2.5c0,1.5-1.2,2.7-3.3,2.7C315.9,31.2,314.7,30.7,313.9,30z"/>
							<path class="st4" d="M321.6,26.8c0-2.7,1.9-4.4,3.9-4.4c2.3,0,3.5,1.7,3.5,4c0,0.4,0,0.8-0.1,1h-5.2c0.2,1.4,1.1,2.1,2.3,2.1
								c0.7,0,1.3-0.2,1.9-0.6l0.8,1.4c-0.8,0.6-1.9,0.9-2.9,0.9C323.4,31.2,321.6,29.6,321.6,26.8z M327.1,26
								c0-1.1-0.5-1.9-1.6-1.9c-0.9,0-1.7,0.6-1.8,1.9H327.1z"/>
							<path class="st4" d="M334.2,28.6V19h2.2v9.7c0,0.5,0.2,0.7,0.4,0.7c0.1,0,0.1,0,0.3,0l0.3,1.6c-0.3,0.1-0.6,0.2-1.1,0.2
								C334.7,31.2,334.2,30.2,334.2,28.6z"/>
						</g>
						<text transform="matrix(1 0 0 1 337.74 31)" class="st2 st5 st6">l</text>
					</g>
					<g transform="translate(400.000000, 0.000000)">
						<path class="st3" d="M8.8,0.8h132.5c4.4,0,8,3.6,8,8v32.5c0,4.4-3.6,8-8,8H8.8c-4.4,0-8-3.6-8-8V8.8C0.8,4.3,4.3,0.8,8.8,0.8z
							"/>
						<g class="st1">
							<path class="st4" d="M47.4,19.9H51c2.5,0,4.3,0.9,4.3,3.5c0,2.5-1.9,3.7-4.3,3.7h-1.5V31h-2.2V19.9z M50.9,25.3
								c1.5,0,2.3-0.6,2.3-1.9c0-1.3-0.8-1.7-2.3-1.7h-1.3v3.6H50.9z"/>
							<path class="st4" d="M57.2,19h2.2v3l-0.1,1.6c0.7-0.6,1.5-1.2,2.6-1.2c1.8,0,2.6,1.3,2.6,3.4V31h-2.2v-5
								c0-1.3-0.4-1.8-1.2-1.8c-0.7,0-1.1,0.3-1.8,0.9V31h-2.2V19z"/>
							<path class="st4" d="M66.4,28.7c0-1.8,1.5-2.7,4.8-3.1c0-0.8-0.4-1.5-1.4-1.5c-0.8,0-1.5,0.3-2.3,0.8l-0.8-1.5
								c1-0.6,2.2-1.1,3.5-1.1c2.1,0,3.2,1.3,3.2,3.7V31h-1.8l-0.2-0.9h0c-0.7,0.6-1.6,1.1-2.5,1.1C67.4,31.2,66.4,30.1,66.4,28.7z
								 M71.2,28.7V27c-2,0.3-2.7,0.8-2.7,1.6c0,0.7,0.5,0.9,1.1,0.9C70.2,29.5,70.7,29.2,71.2,28.7z"/>
							<path class="st4" d="M74.9,30l1-1.4c0.8,0.6,1.5,0.9,2.2,0.9c0.8,0,1.2-0.4,1.2-0.9c0-0.6-0.9-0.9-1.8-1.3
								c-1.1-0.4-2.3-1-2.3-2.4c0-1.5,1.2-2.6,3.1-2.6c1.2,0,2.2,0.5,2.9,1l-1,1.3c-0.6-0.4-1.2-0.7-1.8-0.7c-0.8,0-1.1,0.3-1.1,0.8
								c0,0.6,0.8,0.8,1.7,1.2c1.1,0.4,2.3,1,2.3,2.5c0,1.5-1.2,2.7-3.3,2.7C76.9,31.2,75.7,30.7,74.9,30z"/>
							<path class="st4" d="M82.6,26.8c0-2.7,1.9-4.4,3.9-4.4c2.3,0,3.5,1.7,3.5,4c0,0.4,0,0.8-0.1,1h-5.2c0.2,1.4,1.1,2.1,2.3,2.1
								c0.7,0,1.3-0.2,1.9-0.6l0.8,1.4c-0.8,0.6-1.9,0.9-2.9,0.9C84.4,31.2,82.6,29.6,82.6,26.8z M88.1,26c0-1.1-0.5-1.9-1.6-1.9
								c-0.9,0-1.7,0.6-1.8,1.9H88.1z"/>
							<path class="st4" d="M95.2,28.6V19h2.2v9.7c0,0.5,0.2,0.7,0.5,0.7c0.1,0,0.1,0,0.3,0l0.3,1.6c-0.3,0.1-0.6,0.2-1.1,0.2
								C95.7,31.2,95.2,30.2,95.2,28.6z"/>
							<path class="st4" d="M99.9,28.6V19h2.2v9.7c0,0.5,0.2,0.7,0.5,0.7c0.1,0,0.1,0,0.3,0l0.3,1.6c-0.3,0.1-0.6,0.2-1.1,0.2
								C100.5,31.2,99.9,30.2,99.9,28.6z"/>
						</g>
					</g>
					<g transform="translate(717.000000, 0.000000)">
						<path class="st3" d="M8.8,0.8h132.5c4.4,0,8,3.6,8,8v32.5c0,4.4-3.6,8-8,8H8.8c-4.4,0-8-3.6-8-8V8.8C0.8,4.3,4.3,0.8,8.8,0.8z
							"/>
						<g class="st1">
							<path class="st4" d="M31.4,19.9H35c2.3,0,4,0.7,4,2.7c0,1-0.6,2.1-1.5,2.4v0.1c1.2,0.3,2.1,1.1,2.1,2.6
								c0,2.2-1.9,3.3-4.3,3.3h-4V19.9z M34.9,24.4c1.4,0,2-0.6,2-1.5c0-1-0.7-1.4-2-1.4h-1.3v2.8H34.9z M35.1,29.3
								c1.5,0,2.3-0.5,2.3-1.7c0-1.1-0.8-1.5-2.3-1.5h-1.5v3.2H35.1z"/>
							<path class="st4" d="M41.6,19.9h2.2v9.2h4.5V31h-6.7V19.9z"/>
							<path class="st4" d="M55.4,28.2h-3.6L51,31h-2.2l3.6-11.1h2.6L58.5,31h-2.3L55.4,28.2z M54.9,26.4l-0.3-1.2
								c-0.3-1.2-0.6-2.4-1-3.6h-0.1c-0.3,1.2-0.6,2.5-0.9,3.6l-0.3,1.2H54.9z"/>
							<path class="st4" d="M65.7,18.9h1.5l-3.7,14.8H62L65.7,18.9z"/>
							<path class="st4" d="M72.4,19.9h2.5l1.9,5.2c0.2,0.7,0.5,1.4,0.7,2.1h0.1c0.2-0.7,0.4-1.5,0.7-2.1l1.8-5.2h2.5V31h-2v-4.6
								c0-1,0.2-2.6,0.3-3.6h-0.1l-0.9,2.6L78.1,30h-1.3l-1.7-4.7l-0.9-2.6h-0.1c0.1,1,0.3,2.6,0.3,3.6V31h-2V19.9z"/>
							<path class="st4" d="M84.6,28.7c0-1.8,1.5-2.7,4.8-3.1c0-0.8-0.4-1.5-1.4-1.5c-0.8,0-1.5,0.3-2.3,0.8l-0.8-1.5
								c1-0.6,2.2-1.1,3.5-1.1c2.1,0,3.2,1.3,3.2,3.7V31h-1.8l-0.2-0.9h0c-0.7,0.6-1.6,1.1-2.5,1.1C85.6,31.2,84.6,30.1,84.6,28.7z
								 M89.4,28.7V27c-2,0.3-2.7,0.8-2.7,1.6c0,0.7,0.5,0.9,1.1,0.9C88.5,29.5,88.9,29.2,89.4,28.7z"/>
							<path class="st4" d="M93.9,22.6h1.8l0.1,1.5h0.1c0.6-1.1,1.5-1.7,2.4-1.7c0.5,0,0.7,0.1,1,0.2l-0.4,1.9
								c-0.3-0.1-0.5-0.1-0.9-0.1c-0.7,0-1.5,0.4-1.9,1.7v5h-2.2V22.6z"/>
							<path class="st4" d="M100.4,19h2.1v7.2h0.1l2.9-3.6h2.4L105,26l3.2,5h-2.4l-2-3.5l-1.2,1.4V31h-2.1V19z"/>
							<path class="st4" d="M108.6,26.8c0-2.7,1.9-4.4,3.9-4.4c2.3,0,3.5,1.7,3.5,4c0,0.4,0,0.8-0.1,1h-5.2c0.2,1.4,1.1,2.1,2.3,2.1
								c0.7,0,1.3-0.2,1.9-0.6l0.8,1.4c-0.8,0.6-1.9,0.9-2.9,0.9C110.4,31.2,108.6,29.6,108.6,26.8z M114.1,26
								c0-1.1-0.5-1.9-1.6-1.9c-0.9,0-1.7,0.6-1.8,1.9H114.1z"/>
							<path class="st4" d="M117.9,28.1v-3.7h-1.2v-1.6l1.3-0.1l0.3-2.2h1.8v2.2h2.1v1.7h-2.1v3.7c0,1,0.4,1.4,1.1,1.4
								c0.3,0,0.6-0.1,0.8-0.2l0.4,1.6c-0.5,0.2-1,0.3-1.8,0.3C118.7,31.2,117.9,30,117.9,28.1z"/>
						</g>
					</g>
					<g transform="translate(557.000000, 0.000000)">
						<path class="st3" d="M8.8,0.8h132.5c4.4,0,8,3.6,8,8v32.5c0,4.4-3.6,8-8,8H8.8c-4.4,0-8-3.6-8-8V8.8C0.8,4.3,4.3,0.8,8.8,0.8z
							"/>
						<g class="st1">
							<path class="st4" d="M45.4,19.9H49c2.5,0,4.3,0.9,4.3,3.5c0,2.5-1.9,3.7-4.3,3.7h-1.5V31h-2.2V19.9z M48.9,25.3
								c1.5,0,2.3-0.6,2.3-1.9c0-1.3-0.8-1.7-2.3-1.7h-1.3v3.6H48.9z"/>
							<path class="st4" d="M55.2,19h2.2v3l-0.1,1.6c0.7-0.6,1.5-1.2,2.6-1.2c1.8,0,2.6,1.3,2.6,3.4V31h-2.2v-5
								c0-1.3-0.4-1.8-1.2-1.8c-0.7,0-1.1,0.3-1.8,0.9V31h-2.2V19z"/>
							<path class="st4" d="M64.4,28.7c0-1.8,1.5-2.7,4.8-3.1c0-0.8-0.4-1.5-1.4-1.5c-0.8,0-1.5,0.3-2.3,0.8l-0.8-1.5
								c1-0.6,2.2-1.1,3.5-1.1c2.1,0,3.2,1.3,3.2,3.7V31h-1.8l-0.2-0.9h0c-0.7,0.6-1.6,1.1-2.5,1.1C65.4,31.2,64.4,30.1,64.4,28.7z
								 M69.2,28.7V27c-2,0.3-2.7,0.8-2.7,1.6c0,0.7,0.5,0.9,1.1,0.9C68.2,29.5,68.7,29.2,69.2,28.7z"/>
							<path class="st4" d="M72.9,30l1-1.4c0.8,0.6,1.5,0.9,2.2,0.9c0.8,0,1.2-0.4,1.2-0.9c0-0.6-0.9-0.9-1.8-1.3
								c-1.1-0.4-2.3-1-2.3-2.4c0-1.5,1.2-2.6,3.1-2.6c1.2,0,2.2,0.5,2.9,1l-1,1.3c-0.6-0.4-1.2-0.7-1.8-0.7c-0.8,0-1.1,0.3-1.1,0.8
								c0,0.6,0.8,0.8,1.7,1.2c1.1,0.4,2.3,1,2.3,2.5c0,1.5-1.2,2.7-3.3,2.7C74.9,31.2,73.7,30.7,72.9,30z"/>
							<path class="st4" d="M80.6,26.8c0-2.7,1.9-4.4,3.9-4.4c2.3,0,3.5,1.7,3.5,4c0,0.4,0,0.8-0.1,1h-5.2c0.2,1.4,1.1,2.1,2.3,2.1
								c0.7,0,1.3-0.2,1.9-0.6l0.8,1.4c-0.8,0.6-1.9,0.9-2.9,0.9C82.4,31.2,80.6,29.6,80.6,26.8z M86.1,26c0-1.1-0.5-1.9-1.6-1.9
								c-0.9,0-1.7,0.6-1.8,1.9H86.1z"/>
							<path class="st4" d="M93.2,28.6V19h2.2v9.7c0,0.5,0.2,0.7,0.5,0.7c0.1,0,0.1,0,0.3,0l0.3,1.6c-0.3,0.1-0.6,0.2-1.1,0.2
								C93.7,31.2,93.2,30.2,93.2,28.6z"/>
							<path class="st4" d="M97.9,28.6V19h2.2v9.7c0,0.5,0.2,0.7,0.5,0.7c0.1,0,0.1,0,0.3,0l0.3,1.6c-0.3,0.1-0.6,0.2-1.1,0.2
								C98.5,31.2,97.9,30.2,97.9,28.6z"/>
							<path class="st4" d="M102.6,28.6V19h2.2v9.7c0,0.5,0.2,0.7,0.5,0.7c0.1,0,0.1,0,0.3,0l0.3,1.6c-0.3,0.1-0.6,0.2-1.1,0.2
								C103.2,31.2,102.6,30.2,102.6,28.6z"/>
						</g>
					</g>
				</g>
				<g id="라인" transform="translate(388.000000, 60.000000)">
					<path id="divider" class="st7" d="M1,0v215"/>
					<path class="st7" d="M161,0v215"/>
					<path class="st7" d="M318,0v215"/>
					<path class="st7" d="M478,0v215"/>
				</g>
				<g id="line1" transform="translate(272.000000, 80.000000)">
					<g>
						<g>
							<rect id="Rectangle" y="4" class="st8" width="113" height="3"/>
							<circle id="Oval" class="st8" cx="116.5" cy="5.5" r="5.5"/>
						</g>
					</g>
					<g id="line2" transform="translate(117.000000, 0.000000)">
						<g>
							<rect y="4" class="st8" width="156" height="3"/>
							<circle class="st8" cx="160.5" cy="5.5" r="5.5"/>
						</g>
					</g>
					<g id="line3" transform="translate(277.000000, 0.000000)">
						<g>
							<rect y="4" class="st8" width="156" height="3"/>
							<circle class="st8" cx="157.5" cy="5.5" r="5.5"/>
						</g>
					</g>
				</g>
				<g transform="translate(272.000000, 135.000000)">
					<g>
						<g>
							<rect y="4" class="st8" width="112" height="3"/>
							<circle class="st8" cx="116.5" cy="5.5" r="5.5"/>
						</g>
					</g>
					<g transform="translate(117.000000, 0.000000)">
						<g>
							<rect y="4" class="st8" width="155" height="3"/>
							<circle class="st8" cx="159.5" cy="5.5" r="5.5"/>
						</g>
					</g>
					<g transform="translate(277.000000, 0.000000)">
						<g>
							<rect y="4" class="st8" width="80" height="3"/>
							<circle class="st8" cx="83.5" cy="5.5" r="5.5"/>
						</g>
					</g>
				</g>
				<g transform="translate(272.000000, 190.000000)">
					<g>
						<g>
							<rect y="4" class="st8" width="115" height="3"/>
							<circle class="st8" cx="117.5" cy="5.5" r="5.5"/>
						</g>
					</g>
				</g>
				<g id="line4" transform="translate(272.000000, 245.000000)">
					<g>
						<g>
							<rect y="4" class="st8" width="115" height="3"/>
							<circle class="st8" cx="117.5" cy="5.5" r="5.5"/>
						</g>
					</g>
				</g>
				<g class="st1">
					<path class="st2" d="M7.9,78.7h2.8l1.8,6.5c0.4,1.5,0.7,2.8,1.1,4.3h0.1c0.4-1.5,0.7-2.8,1.1-4.3l1.7-6.5h2.7L15.1,92H12
						L7.9,78.7z"/>
					<path class="st2" d="M20.8,78.7h3l2.3,6.2c0.3,0.8,0.5,1.7,0.8,2.6h0.1c0.3-0.9,0.5-1.7,0.8-2.6l2.2-6.2h3V92h-2.4v-5.6
						c0-1.3,0.2-3.1,0.3-4.4h-0.1l-1.1,3.1l-2.1,5.6H26l-2.1-5.6l-1.1-3.1h-0.1c0.1,1.3,0.3,3.1,0.3,4.4V92h-2.4V78.7z"/>
					<path class="st2" d="M35.3,90.5c3.6-3.2,5.8-5.7,5.8-7.8c0-1.3-0.7-2.2-2-2.2c-1,0-1.8,0.6-2.4,1.4l-1.4-1.4
						c1.2-1.3,2.4-2,4.2-2c2.5,0,4.2,1.6,4.2,4.1c0,2.4-2,5-4.4,7.4c0.7-0.1,1.5-0.1,2.2-0.1h2.9V92h-8.9V90.5z"/>
					<path class="st2" d="M45.9,85.3c0-4.6,1.8-6.9,4.5-6.9c2.7,0,4.5,2.3,4.5,6.9c0,4.6-1.8,7-4.5,7C47.7,92.3,45.9,89.9,45.9,85.3
						z M52.4,85.3c0-3.7-0.9-4.8-2-4.8c-1.2,0-2,1.1-2,4.8c0,3.7,0.9,4.9,2,4.9C51.5,90.2,52.4,89,52.4,85.3z"/>
					<path class="st2" d="M56.5,90.5c3.6-3.2,5.8-5.7,5.8-7.8c0-1.3-0.7-2.2-2-2.2c-1,0-1.8,0.6-2.4,1.4l-1.4-1.4
						c1.2-1.3,2.4-2,4.2-2c2.5,0,4.2,1.6,4.2,4.1c0,2.4-2,5-4.4,7.4c0.7-0.1,1.5-0.1,2.2-0.1h2.9V92h-8.9V90.5z"/>
				</g>
			</g>
		</g>
	</g>
</g>
</svg>
