<?xml version="1.0" encoding="utf-8"?>
<!-- Generator: Adobe Illustrator 23.0.4, SVG Export Plug-In . SVG Version: 6.00 Build 0)  -->
<svg version="1.1" id="레이어_1" xmlns="http://www.w3.org/2000/svg" xmlns:xlink="http://www.w3.org/1999/xlink" x="0px"
	 y="0px" viewBox="0 0 323.9 454.7" style="enable-background:new 0 0 323.9 454.7;" xml:space="preserve">
<style type="text/css">
	.st0{fill-rule:evenodd;clip-rule:evenodd;fill:#FFFFFF;stroke:#B54142;}
	.st1{enable-background:new    ;}
	.st2{fill:#B54142;}
	.st3{fill-rule:evenodd;clip-rule:evenodd;fill:#FFFFFF;stroke:#B54142;stroke-width:0.5;}
	.st4{fill-rule:evenodd;clip-rule:evenodd;fill:#B54142;}
	.st5{fill:#FFFFFF;}
	.st6{fill:none;stroke:#B54142;}
	.st7{fill:none;stroke:#B54142;stroke-linecap:square;}
	.st8{fill:none;stroke:#B54142;stroke-linecap:round;stroke-linejoin:round;}
	.st9{font-family:'NotoSansCJKkr-Regular-KSCpc-EUC-H';}
	.st10{font-size:10px;}
	.st11{fill-rule:evenodd;clip-rule:evenodd;fill:#9E8E8E;fill-opacity:0.3;}
</style>
<title>04- DIAGRAM</title>
<desc>Created with Sketch.</desc>
<g id="Page-1">
	<g id="mobile1" transform="translate(0.000000, -526.000000)">
		<g transform="translate(0.000000, 526.000000)">
			<g id="Diagram" transform="translate(30.000000, 20.000000)">
				<g id="표-02" transform="translate(34.000000, 116.000000)">
					<g id="number" transform="translate(0.000000, 5.000000)">
						<g>
							<g transform="translate(51.000000, 0.000000)">
								<path id="bg" class="st0" d="M-15.5-18.9h6c2.2,0,4,1.8,4,4v6c0,2.2-1.8,4-4,4h-6c-2.2,0-4-1.8-4-4v-6
									C-19.5-17.1-17.7-18.9-15.5-18.9z"/>
								<g class="st1">
									<path class="st2" d="M-11-10.1h-0.8v1.7h-0.5v-1.7h-2.5v-0.3l2.6-3.9h0.5v3.8h0.7V-10.1z M-12.3-10.5v-2.1c0-0.3,0-0.7,0-1
										l0,0c-0.1,0.3-0.3,0.6-0.4,0.8l-1.6,2.3H-12.3z"/>
								</g>
							</g>
							<g transform="translate(34.000000, 0.000000)">
								<path class="st3" d="M-15.8-19.2h6.5c2.2,0,4,1.8,4,4v6.5c0,2.2-1.8,4-4,4h-6.5c-2.2,0-4-1.8-4-4v-6.5
									C-19.8-17.4-18-19.2-15.8-19.2z"/>
								<g class="st1">
									<path class="st2" d="M-14.8-9.1l0.3-0.3c0.3,0.4,0.8,0.7,1.5,0.7c0.8,0,1.3-0.5,1.3-1.2c0-0.8-0.5-1.3-1.9-1.3v-0.4
										c1.3,0,1.7-0.6,1.7-1.2c0-0.6-0.4-1-1.1-1.1c-0.5,0-1,0.3-1.3,0.6l-0.2-0.4c0.4-0.3,0.9-0.6,1.5-0.6c0.9,0,1.6,0.5,1.6,1.4
										c0,0.8-0.4,1.2-1.1,1.4l0,0c0.7,0.2,1.3,0.7,1.3,1.5c0,1-0.8,1.6-1.8,1.6C-13.8-8.3-14.4-8.7-14.8-9.1z"/>
								</g>
							</g>
							<g transform="translate(17.000000, 0.000000)">
								<path class="st3" d="M-15.8-19.2h6.5c2.2,0,4,1.8,4,4v6.5c0,2.2-1.8,4-4,4h-6.5c-2.2,0-4-1.8-4-4v-6.5
									C-19.8-17.4-18-19.2-15.8-19.2z"/>
								<g class="st1">
									<path class="st2" d="M-14.6-8.7c2-1.7,2.8-2.9,2.8-4c0-0.7-0.4-1.3-1.2-1.3c-0.5,0-1,0.3-1.3,0.7l-0.4-0.2
										c0.5-0.5,1-0.8,1.7-0.8c1,0,1.6,0.7,1.6,1.7c0,1.2-0.9,2.4-2.5,3.9c0.3,0,0.7,0,1,0h1.8v0.3h-3.5V-8.7z"/>
								</g>
							</g>
							<g>
								<path class="st3" d="M-15.8-19.2h6.5c2.2,0,4,1.8,4,4v6.5c0,2.2-1.8,4-4,4h-6.5c-2.2,0-4-1.8-4-4v-6.5
									C-19.8-17.4-18-19.2-15.8-19.2z"/>
								<g class="st1">
									<path class="st2" d="M-14.3-8.8h1.3v-4.7h-1v-0.4c0.5-0.1,0.8-0.2,1.1-0.4h0.4v5.4h1.2v0.5h-3V-8.8z"/>
								</g>
							</g>
						</g>
						<g transform="translate(164.000000, 0.000000)">
							<g id="Stacked-Group">
								<g transform="translate(68.000000, 0.000000)">
									<path class="st3" d="M-15.8-19.2h6.5c2.2,0,4,1.8,4,4v6.5c0,2.2-1.8,4-4,4h-6.5c-2.2,0-4-1.8-4-4v-6.5
										C-19.8-17.4-18-19.2-15.8-19.2z"/>
									<g class="st1">
										<path class="st2" d="M-14.2-9.2c0.3,0.3,0.6,0.5,1,0.5c0.8,0,1.5-0.7,1.6-2.7c-0.4,0.4-0.9,0.8-1.5,0.8
											c-1,0-1.6-0.6-1.6-1.8c0-1.1,0.7-1.9,1.6-1.9c1.1,0,1.9,0.9,1.9,2.7c0,2.5-1,3.3-2,3.3c-0.6,0-1-0.2-1.3-0.6L-14.2-9.2z
											 M-11.6-11.9c0-1.3-0.5-2.1-1.4-2.1c-0.6,0-1.1,0.6-1.1,1.5c0,0.8,0.4,1.5,1.2,1.5C-12.6-11-12.1-11.3-11.6-11.9z"/>
									</g>
								</g>
								<g transform="translate(51.000000, 0.000000)">
									<path class="st3" d="M-15.8-19.2h6.5c2.2,0,4,1.8,4,4v6.5c0,2.2-1.8,4-4,4h-6.5c-2.2,0-4-1.8-4-4v-6.5
										C-19.8-17.4-18-19.2-15.8-19.2z"/>
									<g class="st1">
										<path class="st2" d="M-14.6-9.8c0-0.8,0.6-1.4,1.1-1.7l0,0c-0.4-0.3-0.8-0.8-0.8-1.4c0-0.8,0.7-1.4,1.5-1.4
											c1,0,1.5,0.6,1.5,1.5c0,0.6-0.5,1.2-0.8,1.4l0,0c0.5,0.3,1,0.7,1,1.5s-0.7,1.5-1.7,1.5C-13.9-8.3-14.6-9-14.6-9.8z
											 M-11.6-9.8c0-0.9-0.8-1.2-1.7-1.6c-0.6,0.3-1,0.8-1,1.5s0.6,1.2,1.4,1.2C-12.1-8.7-11.6-9.2-11.6-9.8z M-11.7-12.8
											c0-0.6-0.4-1.2-1.1-1.2c-0.6,0-1,0.4-1,1.1c0,0.8,0.7,1.1,1.5,1.4C-12-11.8-11.7-12.3-11.7-12.8z"/>
									</g>
								</g>
								<g transform="translate(34.000000, 0.000000)">
									<path class="st3" d="M-15.8-19.2h6.5c2.2,0,4,1.8,4,4v6.5c0,2.2-1.8,4-4,4h-6.5c-2.2,0-4-1.8-4-4v-6.5
										C-19.8-17.4-18-19.2-15.8-19.2z"/>
									<g class="st1">
										<path class="st2" d="M-11.7-13.8h-3v-0.4h3.5v0.3c-1.3,1.8-1.6,3.2-1.7,5.5h-0.5C-13.3-10.7-12.8-12.2-11.7-13.8z"/>
									</g>
								</g>
								<g transform="translate(17.000000, 0.000000)">
									<path class="st3" d="M-15.8-19.2h6.5c2.2,0,4,1.8,4,4v6.5c0,2.2-1.8,4-4,4h-6.5c-2.2,0-4-1.8-4-4v-6.5
										C-19.8-17.4-18-19.2-15.8-19.2z"/>
									<g class="st1">
										<path class="st2" d="M-11.5-13.5c-0.2-0.3-0.6-0.5-1-0.5c-0.8,0.1-1.5,0.8-1.6,2.8c0.4-0.5,0.9-0.8,1.4-0.8
											c1,0,1.6,0.6,1.6,1.8c0,1.1-0.7,1.9-1.6,1.9c-1.1,0-1.9-1-1.9-2.9c0-2.4,1-3.2,2.1-3.2c0.5,0,0.9,0.2,1.2,0.6L-11.5-13.5z
											 M-11.5-10.2c0-0.8-0.4-1.5-1.2-1.5c-0.4,0.1-0.9,0.3-1.4,0.9c0.1,1.3,0.5,2.1,1.4,2.1C-12-8.7-11.5-9.3-11.5-10.2z"/>
									</g>
								</g>
								<g>
									<path class="st0" d="M-15.5-18.9h6c2.2,0,4,1.8,4,4v6c0,2.2-1.8,4-4,4h-6c-2.2,0-4-1.8-4-4v-6
										C-19.5-17.1-17.7-18.9-15.5-18.9z"/>
									<g class="st1">
										<path class="st2" d="M-14.8-9.1l0.3-0.3c0.3,0.4,0.8,0.7,1.5,0.7s1.4-0.6,1.4-1.6c0-0.9-0.5-1.5-1.3-1.5
											c-0.5,0-0.8,0.2-1.1,0.4l-0.3-0.2l0.2-2.7h2.7v0.4h-2.3l-0.2,2c0.3-0.2,0.6-0.3,1-0.3c1,0,1.7,0.6,1.7,1.9s-0.9,2-1.8,2
											S-14.4-8.7-14.8-9.1z"/>
									</g>
								</g>
							</g>
							<g transform="translate(0.000000, 17.000000)">
								<g transform="translate(68.000000, 0.000000)">
									<path class="st3" d="M-15.8-19.2h6.5c2.2,0,4,1.8,4,4v6.5c0,2.2-1.8,4-4,4h-6.5c-2.2,0-4-1.8-4-4v-6.5
										C-19.8-17.4-18-19.2-15.8-19.2z"/>
									<g class="st1">
										<path class="st2" d="M-14.8-9.1l0.3-0.3c0.3,0.4,0.8,0.7,1.5,0.7c0.8,0,1.3-0.5,1.3-1.2c0-0.8-0.5-1.3-1.9-1.3v-0.4
											c1.3,0,1.7-0.6,1.7-1.2c0-0.6-0.4-1-1.1-1.1c-0.5,0-1,0.3-1.3,0.6l-0.2-0.4c0.4-0.3,0.9-0.6,1.5-0.6
											c0.9,0,1.6,0.5,1.6,1.4c0,0.8-0.4,1.2-1.1,1.4l0,0c0.7,0.2,1.3,0.7,1.3,1.5c0,1-0.8,1.6-1.8,1.6
											C-13.8-8.3-14.4-8.7-14.8-9.1z"/>
									</g>
								</g>
								<g transform="translate(34.000000, 0.000000)">
									<path class="st3" d="M-15.8-19.2h6.5c2.2,0,4,1.8,4,4v6.5c0,2.2-1.8,4-4,4h-6.5c-2.2,0-4-1.8-4-4v-6.5
										C-19.8-17.4-18-19.2-15.8-19.2z"/>
									<g class="st1">
										<path class="st2" d="M-14.6-8.7c2-1.7,2.8-2.9,2.8-4c0-0.7-0.4-1.3-1.2-1.3c-0.5,0-1,0.3-1.3,0.7l-0.4-0.2
											c0.5-0.5,1-0.8,1.7-0.8c1,0,1.6,0.7,1.6,1.7c0,1.2-0.9,2.4-2.5,3.9c0.3,0,0.7,0,1,0h1.8v0.3h-3.5V-8.7z"/>
									</g>
								</g>
								<g transform="translate(51.000000, 0.000000)">
									<path class="st3" d="M-15.8-19.2h6.5c2.2,0,4,1.8,4,4v6.5c0,2.2-1.8,4-4,4h-6.5c-2.2,0-4-1.8-4-4v-6.5
										C-19.8-17.4-18-19.2-15.8-19.2z"/>
									<g class="st1">
										<path class="st2" d="M-14.8-9.1l0.3-0.3c0.3,0.4,0.8,0.7,1.5,0.7c0.8,0,1.3-0.5,1.3-1.2c0-0.8-0.5-1.3-1.9-1.3v-0.4
											c1.3,0,1.7-0.6,1.7-1.2c0-0.6-0.4-1-1.1-1.1c-0.5,0-1,0.3-1.3,0.6l-0.2-0.4c0.4-0.3,0.9-0.6,1.5-0.6
											c0.9,0,1.6,0.5,1.6,1.4c0,0.8-0.4,1.2-1.1,1.4l0,0c0.7,0.2,1.3,0.7,1.3,1.5c0,1-0.8,1.6-1.8,1.6
											C-13.8-8.3-14.4-8.7-14.8-9.1z"/>
									</g>
								</g>
								<g transform="translate(17.000000, 0.000000)">
									<path class="st3" d="M-15.8-19.2h6.5c2.2,0,4,1.8,4,4v6.5c0,2.2-1.8,4-4,4h-6.5c-2.2,0-4-1.8-4-4v-6.5
										C-19.8-17.4-18-19.2-15.8-19.2z"/>
									<g class="st1">
										<path class="st2" d="M-16.3-8.8h1.3v-4.7h-1v-0.4c0.5-0.1,0.8-0.2,1.1-0.4h0.4v5.4h1.2v0.5h-3
											C-16.3-8.4-16.3-8.8-16.3-8.8z"/>
										<path class="st2" d="M-12-8.8h1.3v-4.7h-1v-0.4c0.5-0.1,0.8-0.2,1.1-0.4h0.4v5.4H-9v0.5h-3V-8.8z"/>
									</g>
								</g>
								<g>
									<path class="st3" d="M-15.8-19.2h6.5c2.2,0,4,1.8,4,4v6.5c0,2.2-1.8,4-4,4h-6.5c-2.2,0-4-1.8-4-4v-6.5
										C-19.8-17.4-18-19.2-15.8-19.2z"/>
									<g class="st1">
										<path class="st2" d="M-16.3-8.8h1.3v-4.7h-1v-0.4c0.5-0.1,0.8-0.2,1.1-0.4h0.4v5.4h1.2v0.5h-3
											C-16.3-8.4-16.3-8.8-16.3-8.8z"/>
										<path class="st2" d="M-12.3-11.3c0-2,0.7-3,1.7-3c1.1,0,1.7,1,1.7,3s-0.7,3-1.7,3S-12.3-9.3-12.3-11.3z M-9.3-11.3
											c0-1.7-0.5-2.6-1.2-2.6c-0.8,0-1.3,0.9-1.3,2.6c0,1.8,0.5,2.6,1.3,2.6C-9.8-8.7-9.3-9.6-9.3-11.3z"/>
									</g>
								</g>
							</g>
							<g transform="translate(0.000000, 34.000000)">
								<g transform="translate(34.000000, 0.000000)">
									<path class="st3" d="M-15.8-19.2h6.5c2.2,0,4,1.8,4,4v6.5c0,2.2-1.8,4-4,4h-6.5c-2.2,0-4-1.8-4-4v-6.5
										C-19.8-17.4-18-19.2-15.8-19.2z"/>
									<g class="st1">
										<path class="st2" d="M-16.3-8.8h1.3v-4.7h-1v-0.4c0.5-0.1,0.8-0.2,1.1-0.4h0.4v5.4h1.2v0.5h-3
											C-16.3-8.4-16.3-8.8-16.3-8.8z"/>
										<path class="st2" d="M-9.4-13.8h-2.9v-0.4h3.5v0.3c-1.4,1.8-1.7,3.2-1.8,5.5h-0.5C-11-10.7-10.5-12.2-9.4-13.8z"/>
									</g>
								</g>
								<g transform="translate(51.000000, 0.000000)">
									<path class="st3" d="M-15.8-19.2h6.5c2.2,0,4,1.8,4,4v6.5c0,2.2-1.8,4-4,4h-6.5c-2.2,0-4-1.8-4-4v-6.5
										C-19.8-17.4-18-19.2-15.8-19.2z"/>
									<g class="st1">
										<path class="st2" d="M-16.3-8.8h1.3v-4.7h-1v-0.4c0.5-0.1,0.8-0.2,1.1-0.4h0.4v5.4h1.2v0.5h-3
											C-16.3-8.4-16.3-8.8-16.3-8.8z"/>
										<path class="st2" d="M-12.4-9.8c0-0.8,0.6-1.4,1.1-1.7l0,0c-0.4-0.3-0.7-0.8-0.7-1.4c0-0.8,0.7-1.4,1.5-1.4
											c1,0,1.5,0.6,1.5,1.5c0,0.6-0.5,1.2-0.8,1.4l0,0c0.5,0.3,1,0.7,1,1.5s-0.7,1.5-1.7,1.5C-11.6-8.3-12.4-9-12.4-9.8z
											 M-9.3-9.8c0-0.9-0.8-1.2-1.7-1.6c-0.6,0.3-1,0.8-1,1.5s0.6,1.2,1.4,1.2C-9.8-8.7-9.3-9.2-9.3-9.8z M-9.4-12.8
											c0-0.6-0.4-1.2-1.1-1.2c-0.6,0-1,0.4-1,1.1c0,0.8,0.7,1.1,1.5,1.4C-9.7-11.8-9.4-12.3-9.4-12.8z"/>
									</g>
								</g>
								<g transform="translate(17.000000, 0.000000)">
									<path class="st3" d="M-15.8-19.2h6.5c2.2,0,4,1.8,4,4v6.5c0,2.2-1.8,4-4,4h-6.5c-2.2,0-4-1.8-4-4v-6.5
										C-19.8-17.4-18-19.2-15.8-19.2z"/>
									<g class="st1">
										<path class="st2" d="M-16.3-8.8h1.3v-4.7h-1v-0.4c0.5-0.1,0.8-0.2,1.1-0.4h0.4v5.4h1.2v0.5h-3
											C-16.3-8.4-16.3-8.8-16.3-8.8z"/>
										<path class="st2" d="M-9.2-13.5c-0.2-0.3-0.6-0.5-1-0.5c-0.8,0.1-1.6,0.8-1.6,2.8c0.4-0.5,0.9-0.8,1.4-0.8
											c1,0,1.6,0.6,1.6,1.8c0,1.1-0.7,1.9-1.6,1.9c-1.1,0-1.9-1-1.9-2.9c0-2.4,1-3.2,2.1-3.2c0.5,0,0.9,0.2,1.2,0.6L-9.2-13.5z
											 M-9.3-10.2c0-0.8-0.4-1.5-1.2-1.5c-0.3,0.1-0.8,0.3-1.3,0.9c0.1,1.3,0.5,2.1,1.4,2.1C-9.7-8.7-9.3-9.3-9.3-10.2z"/>
									</g>
								</g>
								<g>
									<path class="st3" d="M-15.8-19.2h6.5c2.2,0,4,1.8,4,4v6.5c0,2.2-1.8,4-4,4h-6.5c-2.2,0-4-1.8-4-4v-6.5
										C-19.8-17.4-18-19.2-15.8-19.2z"/>
									<g class="st1">
										<path class="st2" d="M-16.3-8.8h1.3v-4.7h-1v-0.4c0.5-0.1,0.8-0.2,1.1-0.4h0.4v5.4h1.2v0.5h-3
											C-16.3-8.4-16.3-8.8-16.3-8.8z"/>
										<path class="st2" d="M-12.5-9.1l0.3-0.3c0.3,0.4,0.8,0.7,1.5,0.7s1.4-0.6,1.4-1.6c0-0.9-0.5-1.5-1.3-1.5
											c-0.4,0-0.7,0.1-1,0.4l-0.4-0.2l0.2-2.7h2.7v0.4h-2.3l-0.2,2c0.3-0.2,0.6-0.3,1-0.3c1,0,1.7,0.6,1.7,1.9s-0.9,2-1.8,2
											S-12.1-8.7-12.5-9.1z"/>
									</g>
								</g>
							</g>
						</g>
					</g>
					<g id="intro-04" transform="translate(76.000000, 0.000000)">
						<g id="intro-connect" transform="translate(0.000000, 9.000000)">
							<circle id="Oval" class="st4" cx="54.5" cy="-15.9" r="3.5"/>
							<circle class="st4" cx="-16.5" cy="-15.9" r="3.5"/>
							<rect id="Rectangle" x="-15" y="-16.4" class="st4" width="70" height="1"/>
						</g>
						<g id="intro04" transform="translate(14.000000, 0.000000)">
							<path class="st4" d="M-16-19.4h42c2.2,0,4,1.8,4,4v17c0,2.2-1.8,4-4,4h-42c-2.2,0-4-1.8-4-4v-17C-20-17.6-18.2-19.4-16-19.4z
								"/>
							<g class="st1">
								<path class="st5" d="M-8.9-9.7h0.6v7.3h-0.6V-9.7z"/>
								<path class="st5" d="M-6.3-7.7h0.5l0.1,0.8l0,0c0.5-0.5,1.1-0.9,1.8-0.9c1.1,0,1.6,0.7,1.6,2.1v3.3h-0.6v-3.3
									c0-1.1-0.4-1.6-1.2-1.6c-0.6,0-1.1,0.3-1.7,1v4h-0.6L-6.3-7.7L-6.3-7.7z"/>
								<path class="st5" d="M-0.2-3.9v-3.3H-1v-0.4h0.8l0.1-1.5h0.5v1.5h1.5v0.5H0.4v3.4c0,0.7,0.2,1.1,0.9,1.1
									c0.2,0,0.5-0.1,0.6-0.1L2-2.3C1.7-2.2,1.4-2.1,1.1-2.1C0.1-2.3-0.2-2.9-0.2-3.9z"/>
								<path class="st5" d="M3.2-7.7h0.5l0.1,1l0,0c0.4-0.7,0.9-1.1,1.5-1.1c0.2,0,0.4,0,0.5,0.1L5.7-7.2C5.5-7.3,5.4-7.3,5.2-7.3
									C4.7-7.3,4.2-7,3.8-6v3.6H3.2V-7.7z"/>
								<path class="st5" d="M6.2-5.1c0-1.8,1.1-2.8,2.4-2.8s2.4,1,2.4,2.8S9.9-2.3,8.6-2.3C7.3-2.3,6.2-3.3,6.2-5.1z M10.4-5.1
									c0-1.4-0.8-2.3-1.8-2.3S6.8-6.5,6.8-5.1s0.8,2.3,1.8,2.3S10.4-3.7,10.4-5.1z"/>
								<path class="st5" d="M18.8-4.5h-1v2.1h-0.6v-2.1H14v-0.4l3.2-4.8h0.6V-5h1V-4.5z M17.2-5v-2.7c0-0.3,0-0.9,0.1-1.2l0,0
									c-0.2,0.3-0.4,0.7-0.6,1l-2,2.9H17.2z"/>
							</g>
						</g>
					</g>
				</g>
				<g id="표-01">
					
						<g id="라인" transform="translate(157.000000, 46.500000) rotate(-360.000000) translate(-157.000000, -46.500000) translate(0.000000, 14.000000)">
						<path id="left" class="st6" d="M59-18.5H-1.4C-11.7-18.5-20-10.2-20,0.1v26c0,10.3,8.3,18.6,18.6,18.6l0,0H59"/>
						<path class="st6" d="M214.9,44.6h60.4c10.3,0,18.6-8.3,18.6-18.6V0c0-10.3-8.3-18.6-18.6-18.6l0,0h-76.2"/>
						<rect x="109" y="-19.4" class="st4" width="55" height="1"/>
					</g>
					<g id="cole" transform="translate(69.000000, 0.000000)">
						<path class="st0" d="M-15.5-18.9h51c2.2,0,4,1.8,4,4v21c0,2.2-1.8,4-4,4h-51c-2.2,0-4-1.8-4-4v-21
							C-19.5-17.1-17.7-18.9-15.5-18.9z"/>
						<g class="st1">
							<path class="st2" d="M-2.4-3c0-2.3,1.3-3.8,3.1-3.8c0.9,0,1.5,0.4,1.9,0.9L2.3-5.5C1.9-5.9,1.4-6.2,0.7-6.2
								C-0.8-6.2-1.8-5-1.8-3s0.9,3.3,2.5,3.3C1.4,0.3,2,0,2.5-0.6l0.3,0.4c-0.6,0.6-1.2,1-2.2,1C-1.1,0.7-2.4-0.7-2.4-3z"/>
							<path class="st2" d="M3.8-2.1c0-1.8,1.1-2.8,2.4-2.8s2.4,1,2.4,2.8S7.5,0.7,6.2,0.7C4.9,0.7,3.8-0.3,3.8-2.1z M8-2.1
								c0-1.4-0.8-2.3-1.8-2.3S4.4-3.5,4.4-2.1s0.8,2.3,1.8,2.3S8-0.7,8-2.1z"/>
							<path class="st2" d="M10.2-0.2v-7.2h0.6v7.2c0,0.2,0.1,0.4,0.2,0.4c0,0,0.1,0,0.2,0l0.1,0.5c-0.1,0-0.2,0.1-0.4,0.1
								C10.4,0.7,10.2,0.4,10.2-0.2z"/>
							<path class="st2" d="M12.9-6.7h4v0.5h-3.4v2.7h2.9V-3h-2.9v3.1H17v0.5h-4.1V-6.7z"/>
							<path class="st2" d="M18.5,0.1h1.6v-5.9h-1.3v-0.4c0.6-0.1,1-0.3,1.4-0.5h0.5v6.8h1.5v0.5h-3.8L18.5,0.1L18.5,0.1z"/>
						</g>
					</g>
					<g id="kan" transform="translate(184.000000, 0.000000)">
						<path class="st0" d="M-15.5-18.9h51c2.2,0,4,1.8,4,4v21c0,2.2-1.8,4-4,4h-51c-2.2,0-4-1.8-4-4v-21
							C-19.5-17.1-17.7-18.9-15.5-18.9z"/>
						<g id="KAN" transform="translate(19.000000, 8.000000)">
							<g id="Text">
								<g class="st1">
									<path class="st2" d="M-0.3-14.7h0.6l0.1,0.8l0,0c0.3-0.6,0.7-0.9,1.2-0.9c0.2,0,0.3,0,0.5,0.1L2-14.1
										c-0.1-0.1-0.2-0.1-0.4-0.1c-0.4,0-0.8,0.3-1.1,1v2.8h-0.7L-0.3-14.7L-0.3-14.7z"/>
								</g>
								<g class="st1">
									<path class="st2" d="M-19-14.7h0.9v3.7l0,0l3.1-3.7h1l-2.2,2.8l2.6,4.5h-1l-2.2-3.8l-1.3,1.5v2.3H-19V-14.7z"/>
									<path class="st2" d="M-13-8.8c0-1.2,1-1.8,3.3-2c0-0.7-0.2-1.4-1.1-1.4c-0.6,0-1.2,0.3-1.6,0.6l-0.3-0.7
										c0.5-0.3,1.3-0.7,2.1-0.7c1.3,0,1.9,0.9,1.9,2.2v3.4h-0.8L-9.6-8l0,0c-0.5,0.4-1.1,0.8-1.8,0.8C-12.3-7.3-13-7.8-13-8.8z
										 M-9.6-8.7v-1.5C-11.4-10-12-9.5-12-8.8c0,0.6,0.4,0.9,1,0.9C-10.6-8-10.2-8.2-9.6-8.7z"/>
									<path class="st2" d="M-7-12.8h0.8l0.1,0.8l0,0c0.5-0.5,1.1-0.9,1.8-0.9c1.1,0,1.7,0.7,1.7,2.1v3.4h-0.9v-3.3
										c0-1-0.3-1.4-1-1.4c-0.6,0-0.9,0.3-1.5,0.8v3.9h-1V-12.8z"/>
								</g>
							</g>
						</g>
					</g>
					<g id="HCMV" transform="translate(19.000000, 63.000000)">
						<path class="st4" d="M-16-19.4H86c2.2,0,4,1.8,4,4v22c0,2.2-1.8,4-4,4H-16c-2.2,0-4-1.8-4-4v-22C-20-17.6-18.2-19.4-16-19.4z"
							/>
						<g class="st1">
							<path class="st5" d="M-6.9-7.7h0.6v3.2h3.8v-3.2H-2v7.3h-0.6V-4h-3.8v3.6H-7v-7.3H-6.9z"/>
							<path class="st5" d="M-0.3-4c0-2.3,1.3-3.8,3.1-3.8c0.9,0,1.5,0.4,1.9,0.9L4.4-6.5C4-6.9,3.5-7.2,2.8-7.2
								C1.3-7.2,0.3-6,0.3-4s0.9,3.3,2.5,3.3c0.7,0,1.3-0.3,1.8-0.9l0.3,0.4c-0.6,0.6-1.2,1-2.2,1C1-0.3-0.3-1.7-0.3-4z"/>
							<path class="st5" d="M6.4-7.7h0.8l1.5,4.2l0.6,1.6l0,0C9.5-2.4,9.7-3,9.8-3.5l1.5-4.2h0.8v7.3h-0.6V-5c0-0.6,0-1.4,0.1-2l0,0
								l-0.5,1.6L9.6-1.2H9.1L7.5-5.4L6.9-7l0,0C6.9-6.4,7-5.6,7-5v4.6H6.5v-7.3H6.4z"/>
							<path class="st5" d="M13.3-7.7h0.6l1.3,4.2c0.3,0.9,0.5,1.6,0.7,2.4l0,0c0.3-0.9,0.5-1.6,0.8-2.4L18-7.7h0.6l-2.3,7.3h-0.7
								L13.3-7.7z"/>
							<path class="st5" d="M22-7.7h0.6v7.3H22V-7.7z"/>
							<path class="st5" d="M24.7-7.7h4v0.5h-3.4v2.7h2.9V-4h-2.9v3.1h3.5v0.5h-4.1V-7.7z"/>
							<path class="st5" d="M32.6-5.7h0.5l0.1,0.6l0,0c0.5-0.4,1.1-0.8,1.8-0.8c1.4,0,2.1,1.1,2.1,2.7c0,1.8-1.1,2.9-2.3,2.9
								c-0.5,0-1-0.2-1.6-0.6v1V2h-0.6V-5.7z M36.5-3.1c0-1.3-0.4-2.2-1.6-2.2c-0.5,0-1,0.3-1.7,0.8v3.1c0.6,0.5,1.1,0.6,1.5,0.6
								C35.8-0.8,36.5-1.7,36.5-3.1z"/>
							<path class="st5" d="M38.7-5.7h0.5l0.1,1l0,0c0.4-0.7,0.9-1.1,1.5-1.1c0.2,0,0.4,0,0.5,0.1l-0.1,0.5
								c-0.2-0.1-0.3-0.1-0.5-0.1c-0.5,0-1,0.3-1.4,1.3v3.6h-0.6V-5.7z"/>
							<path class="st5" d="M41.7-3.1c0-1.8,1.1-2.8,2.4-2.8c1.3,0,2.4,1,2.4,2.8s-1.1,2.8-2.4,2.8C42.8-0.3,41.7-1.3,41.7-3.1z
								 M45.9-3.1c0-1.4-0.8-2.3-1.8-2.3s-1.8,0.9-1.8,2.3s0.8,2.3,1.8,2.3S45.9-1.7,45.9-3.1z"/>
							<path class="st5" d="M48.1-5.7h0.5l0.1,0.8l0,0c0.5-0.5,1.1-0.9,1.7-0.9c0.8,0,1.3,0.4,1.5,1.1c0.6-0.6,1.2-1.1,1.8-1.1
								c1.1,0,1.6,0.7,1.6,2.1v3.3h-0.6v-3.3c0-1.1-0.4-1.6-1.1-1.6c-0.5,0-1,0.3-1.5,1v4h-0.6v-3.3c0-1.1-0.4-1.6-1.1-1.6
								c-0.5,0-1,0.3-1.5,1v4h-0.6v-5.5H48.1z"/>
							<path class="st5" d="M56.7-3.1c0-1.8,1.1-2.8,2.4-2.8s2.4,1,2.4,2.8s-1.1,2.8-2.4,2.8C57.8-0.3,56.7-1.3,56.7-3.1z M60.9-3.1
								c0-1.4-0.8-2.3-1.8-2.3s-1.8,0.9-1.8,2.3s0.8,2.3,1.8,2.3S60.9-1.7,60.9-3.1z"/>
							<path class="st5" d="M63.1-1.9v-3.3h-0.8v-0.4h0.8l0.1-1.5h0.5v1.5h1.5v0.5h-1.5v3.4c0,0.7,0.2,1.1,0.9,1.1
								c0.2,0,0.5-0.1,0.6-0.1l0.1,0.4c-0.3,0.1-0.6,0.2-0.9,0.2C63.4-0.3,63.1-0.9,63.1-1.9z"/>
							<path class="st5" d="M65.9-3.1c0-1.7,1.1-2.8,2.3-2.8c1.3,0,2.1,0.9,2.1,2.5c0,0.1,0,0.3,0,0.4h-3.8c0,1.3,0.8,2.2,1.9,2.2
								c0.6,0,1-0.2,1.4-0.5L70-0.9c-0.4,0.3-0.9,0.5-1.7,0.5C67-0.3,65.9-1.3,65.9-3.1z M69.7-3.4c0-1.3-0.6-1.9-1.5-1.9
								s-1.6,0.7-1.8,1.9H69.7z"/>
							<path class="st5" d="M71.7-5.7h0.5l0.1,1l0,0c0.4-0.7,0.9-1.1,1.5-1.1c0.2,0,0.4,0,0.5,0.1l-0.1,0.5
								c-0.2-0.1-0.3-0.1-0.5-0.1c-0.5,0-1,0.3-1.4,1.3v3.6h-0.6V-5.7z"/>
						</g>
					</g>
					<g id="찌릿" transform="translate(135.000000, 74.000000)">
						<rect x="-30" y="-15.4" class="st4" width="52" height="1"/>
						<circle class="st4" cx="18.5" cy="-14.9" r="4.5"/>
						<circle class="st4" cx="-16.5" cy="-14.9" r="3.5"/>
						<circle class="st4" cx="0.5" cy="-14.9" r="3.5"/>
					</g>
					<g transform="translate(184.000000, 63.000000)">
						<g id="HGF_X7">
							<path class="st0" d="M34.5,10.1v-29H-16c-1.9,0-3.5,1.6-3.5,3.5v22c0,1.9,1.6,3.5,3.5,3.5H34.5z"/>
							<g class="st1">
								<path class="st2" d="M-9.9-6.7h0.6v3.2h3.8v-3.2H-5v7.3h-0.6V-3h-3.8v3.6H-10v-7.3H-9.9z"/>
								<path class="st2" d="M-3.3-3c0-2.3,1.3-3.8,3.2-3.8c1,0,1.6,0.5,2,0.9L1.6-5.5C1.2-5.9,0.7-6.2-0.1-6.2
									C-1.7-6.2-2.7-5-2.7-3s0.9,3.3,2.6,3.3c0.6,0,1.2-0.2,1.5-0.5v-2.2h-1.7v-0.5H2V0C1.5,0.5,0.8,0.8-0.2,0.8
									C-2,0.7-3.3-0.7-3.3-3z"/>
								<path class="st2" d="M3.9-6.7h4v0.5H4.5v2.8h2.9v0.5H4.5v3.5H3.9V-6.7z"/>
								<path class="st2" d="M8.6-2.4h2.5v0.5H8.6V-2.4z"/>
								<path class="st2" d="M13.6-3.2l-2-3.5h0.7l1.1,2.1c0.2,0.3,0.4,0.6,0.6,1l0,0c0.2-0.4,0.3-0.7,0.5-1l1.2-2.1h0.6l-2,3.5
									l2.2,3.7h-0.7l-1.2-2.2c-0.2-0.3-0.4-0.7-0.7-1.2l0,0c-0.2,0.4-0.4,0.8-0.6,1.2L12,0.6h-0.6L13.6-3.2z"/>
								<path class="st2" d="M20.8-6.2h-3.7v-0.5h4.4v0.3c-1.7,2.3-2.1,4.1-2.2,6.9h-0.6C18.8-2.3,19.3-4.2,20.8-6.2z"/>
							</g>
						</g>
						<g id="PA" transform="translate(54.000000, 0.000000)">
							<path class="st0" d="M-19.5-18.9v29H31c1.9,0,3.5-1.6,3.5-3.5v-22c0-1.9-1.6-3.5-3.5-3.5H-19.5z"/>
							<g class="st1">
								<path class="st2" d="M1-4.7h0.5l0.1,0.6l0,0c0.5-0.4,1.1-0.8,1.8-0.8c1.4,0,2.1,1.1,2.1,2.7c0,1.8-1.1,2.9-2.3,2.9
									c-0.5,0-1-0.2-1.6-0.6v1V3H1V-4.7z M4.9-2.1c0-1.3-0.4-2.2-1.6-2.2c-0.5,0-1,0.3-1.7,0.8v3.1c0.6,0.5,1.1,0.6,1.5,0.6
									C4.1,0.2,4.9-0.7,4.9-2.1z"/>
								<path class="st2" d="M10.4-1.8H7.6L6.7,0.6H6.1l2.5-7.3h0.6l2.5,7.3h-0.6L10.4-1.8z M10.2-2.3L9.8-3.6
									C9.5-4.4,9.3-5.2,9-6.1l0,0C8.8-5.2,8.5-4.5,8.2-3.6L7.8-2.3H10.2z"/>
							</g>
						</g>
					</g>
				</g>
				<g id="결과" transform="translate(50.000000, 182.000000)">
					<g transform="translate(0.000000, 44.000000)">
						<g>
							<circle class="st0" cx="5" cy="5.6" r="25"/>
							<g id="text" transform="translate(9.000000, 18.000000)">
								<g class="st1">
									<path class="st2" d="M-19-14.8h1.2v3h3.1v-3h1.2v7.4h-1.2v-3.3h-3.2v3.3H-19V-14.8z"/>
									<path class="st2" d="M-11.6-14.8h4.4v1h-3.3v2.2h2.7v1h-2.7v3.2h-1.1V-14.8z"/>
									<path class="st2" d="M-6.5-11.1c0-2.4,1.5-3.8,3.4-3.8c1,0,1.7,0.5,2.2,0.9l-0.6,0.7C-1.9-13.7-2.3-14-3-14
										c-1.4,0-2.3,1.1-2.3,2.8S-4.5-8.4-3-8.4c0.4,0,0.9-0.1,1.2-0.4v-1.6h-1.5v-0.9h2.5v3.2c-0.5,0.5-1.3,0.9-2.3,0.9
										C-5.1-7.3-6.5-8.6-6.5-11.1z"/>
								</g>
								<g class="st1">
									<path class="st2" d="M3.4-10.2H1.3v-0.6h2.8v0.4c-1,1.3-1.2,2.3-1.3,4H2.1C2.2-8,2.5-9,3.4-10.2z"/>
									<path class="st2" d="M4.7-6.8c1.3-1.2,2-2,2-2.7c0-0.5-0.3-0.8-0.7-0.8c-0.3,0-0.6,0.2-0.9,0.5l-0.4-0.4
										C5-10.6,5.4-10.9,6-10.9c0.8,0,1.3,0.5,1.3,1.3c0,0.9-0.7,1.7-1.6,2.6c0.2,0,0.5,0,0.7,0h1.1v0.6H4.7V-6.8z"/>
									<path class="st2" d="M8-6.9l0.3-0.4c0.3,0.3,0.6,0.5,1,0.5c0.5,0,0.8-0.3,0.8-0.7c0-0.5-0.3-0.8-1.3-0.8v-0.5
										c0.9,0,1.2-0.3,1.2-0.8c0-0.4-0.3-0.6-0.7-0.6C9-10.2,8.7-10,8.4-9.8l-0.2-0.6c0.3-0.3,0.8-0.5,1.3-0.5
										c0.8,0,1.3,0.4,1.3,1.1c0,0.5-0.3,0.9-0.8,1l0,0c0.5,0.1,0.9,0.5,0.9,1.1c0,0.8-0.7,1.3-1.5,1.3C8.8-6.3,8.3-6.6,8-6.9z"/>
								</g>
							</g>
						</g>
						<g transform="translate(163.000000, 0.000000)">
							<circle class="st0" cx="5" cy="5.6" r="25"/>
							<g transform="translate(9.000000, 18.000000)">
								<g class="st1">
									<path class="st2" d="M-19-14.8h1.2v3h3.1v-3h1.2v7.4h-1.2v-3.3h-3.2v3.3H-19V-14.8z"/>
									<path class="st2" d="M-12-11.1c0-2.4,1.5-3.8,3.4-3.8c1,0,1.7,0.5,2.2,0.9L-7-13.2c-0.4-0.4-0.8-0.7-1.5-0.7
										c-1.4,0-2.3,1.1-2.3,2.8s0.8,2.8,2.3,2.8c0.4,0,0.9-0.1,1.2-0.4v-1.7h-1.5v-0.9h2.5v3.2c-0.5,0.5-1.3,0.9-2.3,0.9
										C-10.6-7.3-12-8.6-12-11.1z"/>
									<path class="st2" d="M-4.6-14.8h4.4v1h-3.2v2.2h2.7v1h-2.7v3.2h-1.2C-4.6-7.4-4.6-14.8-4.6-14.8z"/>
								</g>
								<g class="st1">
									<path class="st2" d="M4.4-10.2H2.3v-0.6h2.8v0.4c-1,1.3-1.2,2.3-1.3,4H3.1C3.2-8,3.5-9,4.4-10.2z"/>
									<path class="st2" d="M5.7-6.8c1.3-1.2,2-2,2-2.7c0-0.5-0.3-0.8-0.7-0.8c-0.3,0-0.6,0.2-0.9,0.5l-0.4-0.4
										C6-10.6,6.4-10.9,7-10.9c0.8,0,1.3,0.5,1.3,1.3c0,0.9-0.7,1.7-1.6,2.6c0.2,0,0.5,0,0.7,0h1.1v0.6H5.7V-6.8z"/>
									<path class="st2" d="M9.1-7.5c0-0.6,0.4-1,0.8-1.2l0,0c-0.3-0.2-0.6-0.6-0.6-1c0-0.7,0.5-1.1,1.3-1.1s1.2,0.5,1.2,1.2
										c0,0.5-0.3,0.8-0.6,1l0,0c0.4,0.2,0.7,0.6,0.7,1.2c0,0.7-0.6,1.2-1.4,1.2C9.7-6.3,9.1-6.8,9.1-7.5z M11.3-7.5
										c0-0.5-0.5-0.7-1.1-1C9.9-8.3,9.7-8,9.7-7.6s0.4,0.7,0.8,0.7C11-6.8,11.3-7.1,11.3-7.5z M11.2-9.7c0-0.4-0.2-0.7-0.6-0.7
										S10-10.2,10-9.8c0,0.5,0.4,0.7,0.9,0.9C11.1-9.1,11.2-9.4,11.2-9.7z"/>
								</g>
							</g>
						</g>
					</g>
					<g id="Arrow" transform="translate(22.000000, 0.000000)">
						<g id="splice" transform="translate(0.000000, 1.000000)">
							
								<g id="arrow" transform="translate(23.048784, 18.739644) rotate(-20.000000) translate(-23.048784, -18.739644) translate(8.048784, 4.256885)">
								<path id="Line" class="st7" d="M-9.1,1.2l26.5-26"/>
								<polyline id="Stroke-1" class="st8" points="-3.7,1 -9.3,1.3 -9,-4.2 								"/>
							</g>
							
								<g transform="translate(146.049209, 18.740810) rotate(20.000000) translate(-146.049209, -18.740810) translate(131.049209, 4.256810)">
								<path class="st7" d="M1.5,14.9l-26.5-26"/>
								<polyline class="st8" points="-3.9,14.7 1.7,15 1.4,9.5 								"/>
							</g>
						</g>
						<g class="st1">
							<path d="M43.5-9.6h-2.7l-0.7,2.2h-0.9l2.5-7.3h1l2.5,7.3h-1L43.5-9.6z M43.2-10.4l-0.4-1.1c-0.3-0.8-0.5-1.6-0.7-2.5l0,0
								c-0.2,0.9-0.5,1.6-0.7,2.5L41-10.4H43.2z"/>
							<path d="M46.1-8.5v-6.9H47v7C47-8.1,47.1-8,47.3-8c0,0,0.1,0,0.2,0l0.1,0.7c-0.1,0-0.3,0.1-0.5,0.1
								C46.4-7.3,46.1-7.7,46.1-8.5z"/>
							<path d="M49.1-9.1v-3h-0.8v-0.7h0.8l0.1-1.5H50v1.5h1.5v0.7H50v3c0,0.7,0.2,1,0.8,1c0.2,0,0.4-0.1,0.6-0.1l0.2,0.7
								c-0.3,0.1-0.7,0.2-1,0.2C49.5-7.3,49.1-8,49.1-9.1z"/>
							<path d="M52.2-10.1c0-1.8,1.2-2.9,2.4-2.9c1.4,0,2.2,1,2.2,2.5c0,0.2,0,0.4,0,0.5h-3.7c0.1,1.2,0.8,1.9,1.8,1.9
								c0.5,0,1-0.2,1.4-0.4l0.3,0.6c-0.5,0.3-1.1,0.6-1.8,0.6C53.3-7.3,52.2-8.3,52.2-10.1z M56-10.5c0-1.1-0.5-1.7-1.3-1.7
								s-1.4,0.6-1.6,1.7H56z"/>
							<path d="M58.1-12.8h0.7l0.1,1l0,0c0.4-0.7,0.9-1.1,1.5-1.1c0.2,0,0.4,0,0.6,0.1L60.8-12c-0.2-0.1-0.3-0.1-0.5-0.1
								c-0.4,0-1,0.3-1.4,1.2v3.5H58v-5.4H58.1z"/>
							<path d="M62-12.8h0.7l0.1,0.8l0,0c0.5-0.5,1.1-0.9,1.8-0.9c1.1,0,1.7,0.7,1.7,2.1v3.4h-0.9v-3.3c0-1-0.3-1.4-1-1.4
								c-0.6,0-0.9,0.3-1.5,0.8v3.9H62V-12.8z"/>
							<path d="M67.8-8.8c0-1.2,1-1.8,3.3-2c0-0.7-0.2-1.4-1.1-1.4c-0.6,0-1.2,0.3-1.6,0.6L68-12.3c0.5-0.3,1.3-0.7,2.1-0.7
								c1.3,0,1.9,0.9,1.9,2.2v3.4h-0.8L71.1-8l0,0c-0.5,0.4-1.1,0.8-1.8,0.8C68.4-7.3,67.8-7.8,67.8-8.8z M71.1-8.7v-1.5
								c-1.8,0.2-2.4,0.7-2.4,1.4c0,0.6,0.4,0.9,1,0.9C70.1-8,70.6-8.2,71.1-8.7z"/>
							<path d="M73.7-9.1v-3h-0.8v-0.7h0.8l0.1-1.5h0.8v1.5h1.5v0.7h-1.5v3c0,0.7,0.2,1,0.8,1c0.2,0,0.4-0.1,0.6-0.1l0.2,0.7
								c-0.3,0.1-0.7,0.2-1,0.2C74.1-7.3,73.7-8,73.7-9.1z"/>
							<path d="M77.2-14.5c0-0.4,0.3-0.6,0.6-0.6c0.4,0,0.6,0.2,0.6,0.6c0,0.3-0.3,0.6-0.6,0.6S77.2-14.2,77.2-14.5z M77.4-12.8h0.9
								v5.4h-0.9V-12.8z"/>
							<path d="M79.3-12.8h0.9l1,3.1c0.2,0.5,0.3,1.1,0.5,1.6l0,0c0.2-0.5,0.3-1.1,0.5-1.6l1-3.1h0.9l-1.9,5.4h-1.1L79.3-12.8z"/>
							<path d="M84.9-10.1c0-1.8,1.2-2.9,2.4-2.9c1.4,0,2.2,1,2.2,2.5c0,0.2,0,0.4,0,0.5h-3.7c0.1,1.2,0.8,1.9,1.8,1.9
								c0.5,0,1-0.2,1.4-0.4l0.3,0.6c-0.5,0.3-1.1,0.6-1.8,0.6C86-7.3,84.9-8.3,84.9-10.1z M88.7-10.5c0-1.1-0.5-1.7-1.3-1.7
								s-1.4,0.6-1.6,1.7H88.7z"/>
						</g>
						<text transform="matrix(1 0 0 1 89.8942 -7.356)" class="st9 st10"> </text>
						<g class="st1">
							<path d="M46.8,7l0.4-0.6c0.5,0.4,1,0.6,1.6,0.6c0.7,0,1.1-0.4,1.1-0.8c0-0.5-0.6-0.8-1.2-1C47.9,4.9,47,4.5,47,3.6
								s0.7-1.5,1.9-1.5c0.7,0,1.3,0.3,1.7,0.6l-0.4,0.6C49.8,3,49.4,2.8,49,2.8c-0.7,0-1,0.4-1,0.8c0,0.5,0.6,0.7,1.2,0.9
								c0.8,0.3,1.7,0.6,1.7,1.6c0,0.9-0.7,1.6-2,1.6C48,7.7,47.3,7.4,46.8,7z"/>
							<path d="M52.1,2.2h0.7l0.1,0.6l0,0C53.4,2.4,54,2,54.6,2c1.4,0,2.2,1.1,2.2,2.8c0,1.9-1.1,2.9-2.4,2.9c-0.5,0-1-0.2-1.5-0.6
								v1v1.8H52V2.2H52.1z M55.9,4.8c0-1.2-0.4-2-1.4-2c-0.5,0-0.9,0.3-1.5,0.7v2.8c0.5,0.4,1,0.6,1.3,0.6
								C55.2,7,55.9,6.2,55.9,4.8z"/>
							<path d="M58.3,6.5v-6.9h0.9v7c0,0.3,0.1,0.4,0.3,0.4c0,0,0.1,0,0.2,0l0.1,0.7c-0.1,0-0.3,0.1-0.5,0.1
								C58.5,7.7,58.3,7.3,58.3,6.5z"/>
							<path d="M60.9,0.5c0-0.4,0.3-0.6,0.6-0.6s0.6,0.2,0.6,0.6c0,0.3-0.3,0.6-0.6,0.6S60.9,0.8,60.9,0.5z M61.1,2.2H62v5.4h-0.9
								V2.2z"/>
							<path d="M63.5,4.9c0-1.8,1.2-2.9,2.6-2.9c0.7,0,1.2,0.3,1.6,0.6l-0.5,0.6c-0.3-0.3-0.6-0.5-1.1-0.5c-1,0-1.7,0.8-1.7,2.1
								c0,1.2,0.7,2.1,1.7,2.1c0.5,0,0.9-0.2,1.3-0.5L67.8,7c-0.5,0.4-1.1,0.7-1.7,0.7C64.6,7.7,63.5,6.7,63.5,4.9z"/>
							<path d="M68.8,0.5c0-0.4,0.3-0.6,0.6-0.6c0.4,0,0.6,0.2,0.6,0.6c0,0.3-0.3,0.6-0.6,0.6C69.1,1.1,68.8,0.8,68.8,0.5z M69,2.2
								h0.9v5.4H69V2.2z"/>
							<path d="M71.7,2.2h0.7L72.5,3l0,0c0.5-0.5,1.1-0.9,1.8-0.9c1.1,0,1.7,0.7,1.7,2.1v3.4h-0.9V4.3c0-1-0.3-1.4-1-1.4
								c-0.6,0-0.9,0.3-1.5,0.8v3.9h-0.9C71.7,7.6,71.7,2.2,71.7,2.2z"/>
							<path d="M77.4,8.6c0-0.5,0.3-0.9,0.8-1.2l0,0c-0.3-0.2-0.5-0.5-0.5-0.9c0-0.5,0.3-0.8,0.6-1l0,0c-0.4-0.3-0.7-0.8-0.7-1.5
								c0-1.2,0.9-1.9,2-1.9c0.3,0,0.6,0.1,0.8,0.1h1.9v0.7h-1.1c0.3,0.2,0.4,0.6,0.4,1.1c0,1.2-0.9,1.9-2,1.9
								c-0.3,0-0.6-0.1-0.8-0.2c-0.2,0.2-0.3,0.3-0.3,0.6c0,0.4,0.2,0.6,0.9,0.6h1.1c1.3,0,1.9,0.4,1.9,1.3c0,1-1.1,1.9-2.7,1.9
								C78.3,10.1,77.4,9.6,77.4,8.6z M81.5,8.4c0-0.5-0.4-0.7-1.1-0.7h-0.9c-0.2,0-0.5,0-0.7-0.1c-0.4,0.3-0.6,0.6-0.6,0.9
								c0,0.6,0.6,1,1.6,1C80.8,9.5,81.5,8.9,81.5,8.4z M80.8,4c0-0.8-0.5-1.3-1.1-1.3S78.5,3.2,78.5,4s0.5,1.3,1.2,1.3
								C80.3,5.3,80.8,4.8,80.8,4z"/>
						</g>
					</g>
				</g>
				<g class="st1">
					<path d="M15,131.3h4.2v0.8h-3.3v2.3h2.8v0.8h-2.8v2.7h3.4v0.8H15V131.3z"/>
					<path d="M21.5,135.8l-1.6-2.6h1l0.7,1.2c0.2,0.3,0.4,0.6,0.5,0.9l0,0c0.2-0.3,0.3-0.6,0.5-0.9l0.7-1.2h0.9l-1.6,2.7l1.8,2.7h-1
						l-0.8-1.3c-0.2-0.3-0.4-0.7-0.6-1h-0.1c-0.2,0.3-0.4,0.6-0.6,1l-0.7,1.3h-1L21.5,135.8z"/>
					<path d="M24.8,135.9c0-1.8,1.2-2.9,2.5-2.9s2.5,1,2.5,2.9c0,1.8-1.2,2.8-2.5,2.8S24.8,137.7,24.8,135.9z M28.9,135.9
						c0-1.2-0.6-2.1-1.6-2.1s-1.6,0.8-1.6,2.1c0,1.2,0.6,2.1,1.6,2.1S28.9,137.1,28.9,135.9z"/>
					<path d="M31.3,133.2H32l0.1,0.8l0,0c0.5-0.5,1.1-0.9,1.8-0.9c1.1,0,1.7,0.7,1.7,2.1v3.4h-0.9v-3.3c0-1-0.3-1.4-1-1.4
						c-0.6,0-0.9,0.3-1.5,0.8v3.9h-0.9C31.3,138.6,31.3,133.2,31.3,133.2z"/>
					<path d="M39.7,133.2h0.7l0.1,0.8l0,0c0.5-0.5,1.1-0.9,1.8-0.9c1.1,0,1.7,0.7,1.7,2.1v3.4h-0.9v-3.3c0-1-0.3-1.4-1-1.4
						c-0.6,0-0.9,0.3-1.5,0.8v3.9h-0.9C39.7,138.6,39.7,133.2,39.7,133.2z"/>
					<path d="M45.7,136.6v-3.4h0.9v3.3c0,1,0.3,1.4,1,1.4c0.6,0,0.9-0.3,1.5-0.9v-3.8H50v5.4h-0.8l-0.1-0.8l0,0c-0.5,0.6-1,1-1.8,1
						C46.2,138.7,45.7,138,45.7,136.6z"/>
					<path d="M51.8,133.2h0.7l0.1,0.8l0,0c0.5-0.5,1-0.9,1.7-0.9c0.8,0,1.3,0.4,1.5,1c0.6-0.6,1.1-1,1.8-1c1.1,0,1.6,0.7,1.6,2.1
						v3.4h-0.9v-3.3c0-1-0.3-1.4-1-1.4c-0.4,0-0.9,0.3-1.4,0.8v3.9H55v-3.3c0-1-0.3-1.4-1-1.4c-0.4,0-0.9,0.3-1.4,0.8v3.9h-0.9v-5.4
						H51.8z"/>
					<path d="M61.9,138L61.9,138l-0.1,0.6h-0.7v-8H62v2.2v1c0.5-0.4,1.1-0.8,1.7-0.8c1.4,0,2.2,1.1,2.2,2.8c0,1.9-1.1,2.9-2.4,2.9
						C63,138.7,62.4,138.5,61.9,138z M64.9,135.8c0-1.2-0.4-2-1.4-2c-0.5,0-0.9,0.3-1.5,0.7v2.8c0.5,0.4,1,0.6,1.3,0.6
						C64.2,138,64.9,137.2,64.9,135.8z"/>
					<path d="M66.9,135.9c0-1.8,1.2-2.9,2.4-2.9c1.4,0,2.2,1,2.2,2.5c0,0.2,0,0.4,0,0.5h-3.7c0.1,1.2,0.8,1.9,1.8,1.9
						c0.5,0,1-0.2,1.4-0.4l0.3,0.6c-0.5,0.3-1.1,0.6-1.8,0.6C68,138.7,66.9,137.7,66.9,135.9z M70.7,135.5c0-1.1-0.5-1.7-1.3-1.7
						s-1.4,0.6-1.6,1.7H70.7z"/>
					<path d="M72.8,133.2h0.7l0.1,1l0,0c0.4-0.7,0.9-1.1,1.5-1.1c0.2,0,0.4,0,0.6,0.1l-0.2,0.8c-0.2-0.1-0.3-0.1-0.5-0.1
						c-0.4,0-1,0.3-1.4,1.2v3.5h-0.9v-5.4H72.8z"/>
				</g>
			</g>
			<rect x="0" y="472.6" class="st11" width="334" height="1"/>
			<g transform="translate(20.000000, 331.000000)">
				<g id="나열" transform="translate(0.000000, 29.000000)">
					<g transform="translate(145.000000, 48.000000)">
						<g class="st1">
							<path d="M-4.8-14.2h5.2v1.2h-3.8v2.6h3.3v1.2h-3.3v3.8h-1.4C-4.8-5.4-4.8-14.2-4.8-14.2z"/>
							<path d="M1.2-8.7c0-2.2,1.5-3.5,3.1-3.5s3.1,1.3,3.1,3.5S5.9-5.3,4.3-5.3S1.2-6.5,1.2-8.7z M6-8.7C6-10.1,5.4-11,4.3-11
								c-1,0-1.7,0.9-1.7,2.3s0.6,2.3,1.7,2.3C5.3-6.4,6-7.3,6-8.7z"/>
							<path d="M9-12h1.1l0.1,1.2l0,0c0.5-0.9,1.2-1.4,1.9-1.4c0.3,0,0.5,0,0.7,0.1l-0.3,1.2C12.3-11,12.1-11,11.8-11
								c-0.5,0-1.2,0.4-1.6,1.4v4.2H9V-12z"/>
							<path d="M13.9-12H15l0.1,0.9l0,0c0.6-0.6,1.2-1.1,2-1.1c1,0,1.5,0.5,1.8,1.2c0.6-0.7,1.3-1.2,2.1-1.2c1.4,0,2,0.9,2,2.6v4.2
								h-1.4v-4c0-1.1-0.4-1.6-1.1-1.6c-0.5,0-0.9,0.3-1.5,0.9v4.7h-1.4v-4c0-1.1-0.3-1.6-1.1-1.6c-0.4,0-0.9,0.3-1.5,0.9v4.7h-1.4
								V-12H13.9z"/>
							<path d="M25.1-7.8V-12h1.4v4c0,1.1,0.3,1.6,1.1,1.6c0.6,0,1-0.3,1.6-1V-12h1.4v6.6h-1.1l-0.1-1l0,0c-0.6,0.7-1.2,1.2-2.2,1.2
								C25.7-5.2,25.1-6.2,25.1-7.8z"/>
							<path d="M32.7-6.9v-8H34v8.1c0,0.4,0.2,0.5,0.3,0.5s0.1,0,0.2,0l0.2,1c-0.2,0.1-0.4,0.1-0.7,0.1C33-5.2,32.7-5.9,32.7-6.9z"
								/>
							<path d="M35.8-7.2c0-1.4,1.2-2.1,3.9-2.4c0-0.8-0.3-1.4-1.3-1.4c-0.7,0-1.3,0.3-1.9,0.7L36-11.2c0.7-0.4,1.6-0.9,2.7-0.9
								c1.6,0,2.4,1,2.4,2.8v4H40l-0.1-0.8l0,0c-0.6,0.5-1.3,0.9-2.1,0.9C36.6-5.2,35.8-6,35.8-7.2z M39.8-7.1v-1.6
								c-2,0.2-2.6,0.7-2.6,1.5c0,0.6,0.4,0.9,1,0.9C38.8-6.3,39.2-6.6,39.8-7.1z"/>
							<path d="M43.1-7.6v-3.3h-1v-1l1-0.1l0.2-1.8h1.2v1.8h1.7v1.1h-1.7v3.3c0,0.8,0.3,1.2,1,1.2c0.2,0,0.5-0.1,0.7-0.2l0.3,1
								c-0.4,0.1-0.8,0.2-1.3,0.2C43.7-5.2,43.1-6.2,43.1-7.6z"/>
							<path d="M47.5-14c0-0.5,0.4-0.8,0.9-0.8s0.9,0.3,0.9,0.8s-0.4,0.8-0.9,0.8S47.5-13.6,47.5-14z M47.7-12H49v6.6h-1.4L47.7-12
								L47.7-12z"/>
							<path d="M50.7-8.7c0-2.2,1.5-3.5,3.1-3.5s3.1,1.3,3.1,3.5s-1.5,3.4-3.1,3.4C52.1-5.2,50.7-6.5,50.7-8.7z M55.4-8.7
								c0-1.4-0.6-2.3-1.7-2.3c-1,0-1.7,0.9-1.7,2.3s0.6,2.3,1.7,2.3S55.4-7.3,55.4-8.7z"/>
							<path d="M58.5-12h1.1l0.1,0.9l0,0c0.6-0.6,1.3-1.1,2.2-1.1c1.4,0,2,0.9,2,2.6v4.2h-1.4v-4c0-1.1-0.3-1.6-1.1-1.6
								c-0.6,0-1,0.3-1.6,0.9v4.7h-1.4V-12H58.5z"/>
						</g>
						<path class="st4" d="M-18-12.4L-18-12.4c1.1,0,2,0.9,2,2l0,0c0,1.1-0.9,2-2,2l0,0c-1.1,0-2-0.9-2-2l0,0
							C-20-11.5-19.1-12.4-18-12.4z"/>
					</g>
					<g transform="translate(0.000000, 48.000000)">
						<g id="Group-3" transform="translate(20.000000, 20.000000)">
							<g class="st1">
								<path d="M-19,19.3h0.9v7.3H-19V19.3z"/>
								<path d="M-16.2,21.2h0.7l0.1,0.8l0,0c0.5-0.5,1.1-0.9,1.8-0.9c1.1,0,1.7,0.7,1.7,2.1v3.4h-0.8v-3.3c0-1-0.3-1.4-1-1.4
									c-0.6,0-0.9,0.3-1.5,0.8v3.9h-1V21.2z"/>
								<path d="M-9.9,24.9v-3h-0.8v-0.7h0.8l0.1-1.5H-9v1.5h1.5v0.7H-9v3c0,0.7,0.2,1,0.8,1c0.2,0,0.4-0.1,0.6-0.1l0.2,0.7
									c-0.3,0.1-0.7,0.2-1,0.2C-9.5,26.7-9.9,26-9.9,24.9z"/>
								<path d="M-6.3,21.2h0.7l0.1,1l0,0c0.4-0.7,0.9-1.1,1.5-1.1c0.2,0,0.4,0,0.6,0.1L-3.6,22c-0.2-0.1-0.3-0.1-0.5-0.1
									c-0.4,0-1,0.3-1.4,1.2v3.5h-0.9L-6.3,21.2L-6.3,21.2z"/>
								<path d="M-2.9,23.9c0-1.8,1.2-2.9,2.5-2.9s2.5,1,2.5,2.9c0,1.8-1.2,2.8-2.5,2.8S-2.9,25.7-2.9,23.9z M1.2,23.9
									c0-1.2-0.6-2.1-1.6-2.1S-2,22.6-2,23.9c0,1.2,0.6,2.1,1.6,2.1S1.2,25.1,1.2,23.9z"/>
								<path d="M3.6,21.2h0.7L4.4,22l0,0c0.5-0.5,1.1-0.9,1.8-0.9c1.1,0,1.7,0.7,1.7,2.1v3.4H7v-3.3c0-1-0.3-1.4-1-1.4
									c-0.6,0-0.9,0.3-1.5,0.8v3.9H3.6V21.2z"/>
							</g>
							<g class="st1">
								<path d="M-19-14.7h2.1c1.6,0,2.7,0.5,2.7,2.1c0,1.5-1.1,2.3-2.7,2.3h-1.2v2.9H-19V-14.7z M-17-11.1c1.3,0,1.9-0.5,1.9-1.5
									c0-1.1-0.6-1.4-1.9-1.4h-1v2.9H-17z"/>
								<path d="M-12.8-12.8h0.8l0.1,1l0,0c0.4-0.7,0.9-1.2,1.5-1.2c0.2,0,0.4,0,0.6,0.1L-10-12c-0.1-0.1-0.3-0.1-0.5-0.1
									c-0.4,0-1,0.3-1.4,1.2v3.5h-0.9V-12.8z"/>
								<path d="M-9.4-10.1c0-1.8,1.2-2.9,2.5-2.9s2.5,1,2.5,2.9c0,1.8-1.2,2.8-2.5,2.8S-9.4-8.3-9.4-10.1z M-5.3-10.1
									c0-1.2-0.6-2.1-1.6-2.1s-1.6,0.8-1.6,2.1C-8.5-8.9-7.9-8-6.9-8S-5.3-8.9-5.3-10.1z"/>
								<path d="M-2.9-12.8h0.7l0.1,0.8l0,0c0.5-0.5,1-0.9,1.7-0.9c0.8,0,1.3,0.4,1.5,1c0.6-0.6,1.1-1,1.8-1c1.1,0,1.6,0.7,1.6,2.1
									v3.4H3.6v-3.3c0-1-0.3-1.4-1-1.4c-0.4,0-0.9,0.3-1.4,0.8v3.9H0.3v-3.3c0-1-0.3-1.4-1-1.4c-0.4,0-0.9,0.3-1.4,0.8v3.9H-3
									L-2.9-12.8L-2.9-12.8z"/>
								<path d="M5.9-10.1c0-1.8,1.2-2.9,2.5-2.9s2.5,1,2.5,2.9c0,1.8-1.2,2.8-2.5,2.8S5.9-8.3,5.9-10.1z M10-10.1
									c0-1.2-0.6-2.1-1.6-2.1s-1.5,0.8-1.5,2.1C6.9-8.9,7.5-8,8.5-8S10-8.9,10-10.1z"/>
								<path d="M12.4-9.1v-3h-0.8v-0.7h0.8l0.1-1.5h0.8v1.5h1.5v0.7h-1.5v3c0,0.7,0.2,1,0.8,1c0.2,0,0.4-0.1,0.6-0.1l0.2,0.7
									c-0.3,0.1-0.7,0.2-1,0.2C12.7-7.3,12.4-8,12.4-9.1z"/>
								<path d="M15.4-10.1c0-1.8,1.2-2.9,2.4-2.9c1.4,0,2.2,1,2.2,2.5c0,0.2,0,0.4,0,0.5h-3.7c0.1,1.2,0.8,1.9,1.8,1.9
									c0.5,0,1-0.2,1.4-0.4l0.3,0.6c-0.5,0.3-1.1,0.6-1.8,0.6C16.6-7.3,15.4-8.3,15.4-10.1z M19.2-10.5c0-1.1-0.5-1.7-1.3-1.7
									s-1.4,0.6-1.6,1.7H19.2z"/>
								<path d="M21.4-12.8h0.7l0.1,1l0,0c0.4-0.7,0.9-1.1,1.5-1.1c0.2,0,0.4,0,0.6,0.1L24.1-12c-0.2-0.1-0.3-0.1-0.5-0.1
									c-0.4,0-1,0.3-1.4,1.2v3.5h-0.9v-5.4H21.4z"/>
							</g>
							<g class="st1">
								<path d="M-19,6.6V2.3h0.9v4.3c0,1.8,0.7,2.3,1.7,2.3s1.7-0.5,1.7-2.3V2.3h0.9v4.3c0,2.4-1.1,3.2-2.6,3.2
									C-17.9,9.7-19,8.9-19,6.6z"/>
								<path d="M-10.3,3.1h-2.2V2.3h5.4v0.8h-2.2v6.5h-1V3.1z"/>
								<path d="M-1.8,9.6l-1.8-3.1h-1.3v3.1h-0.9V2.3h2.3c1.5,0,2.6,0.5,2.6,2.1c0,1.1-0.7,1.8-1.7,2.1l1.9,3.2h-1.1V9.6z
									 M-4.9,5.7h1.2c1.1,0,1.8-0.5,1.8-1.4c0-1-0.6-1.3-1.8-1.3h-1.2C-4.9,3-4.9,5.7-4.9,5.7z"/>
							</g>
						</g>
						<g id="Group-2">
							<g class="st1">
								<path d="M-4.8-14.2h5.2v1.2h-3.8v2.5h3.2v1.1h-3.2v2.9h4v1.1h-5.3v-8.8H-4.8z"/>
								<path d="M3-8.8L1-12h1.5l0.8,1.3c0.2,0.4,0.4,0.7,0.6,1.1l0,0c0.2-0.4,0.4-0.7,0.6-1.1L5.2-12h1.4l-2,3.3l2.1,3.3H5.2
									L4.3-6.8C4.1-7.2,3.9-7.6,3.6-8H3.5C3.3-7.6,3.1-7.2,2.9-6.8L2.4-5.4H0.9L3-8.8z"/>
								<path d="M8.1-12h1.1l0.1,0.7l0,0c0.6-0.5,1.3-0.9,2-0.9c1.7,0,2.6,1.3,2.6,3.4c0,2.3-1.4,3.6-2.8,3.6
									c-0.6,0-1.2-0.3-1.7-0.7v1.1v2.1H8L8.1-12L8.1-12z M12.6-8.8c0-1.4-0.4-2.2-1.5-2.2c-0.5,0-1,0.3-1.6,0.8V-7
									c0.5,0.4,1,0.6,1.4,0.6C11.9-6.4,12.6-7.2,12.6-8.8z"/>
								<path d="M15.6-12h1.1l0.1,1.2l0,0c0.5-0.9,1.2-1.4,1.9-1.4c0.3,0,0.5,0,0.7,0.1l-0.3,1.2C18.9-11,18.7-11,18.4-11
									c-0.5,0-1.2,0.4-1.6,1.4v4.2h-1.4V-12H15.6z"/>
								<path d="M20-8.7c0-2.1,1.5-3.5,3-3.5c1.8,0,2.7,1.3,2.7,3.1c0,0.3,0,0.5-0.1,0.7h-4.3c0.1,1.3,0.9,2,2,2
									c0.6,0,1.1-0.2,1.6-0.5L25.4-6c-0.6,0.4-1.4,0.7-2.2,0.7C21.4-5.2,20-6.5,20-8.7z M24.5-9.3c0-1.1-0.5-1.8-1.5-1.8
									c-0.8,0-1.6,0.6-1.7,1.8H24.5z"/>
								<path d="M26.5-6.2l0.6-0.9c0.6,0.5,1.2,0.8,1.9,0.8c0.8,0,1.2-0.4,1.2-0.9c0-0.6-0.7-0.9-1.5-1.1c-0.9-0.3-1.9-0.8-1.9-1.9
									s0.9-1.9,2.3-1.9c0.9,0,1.6,0.4,2.1,0.8l-0.6,0.9c-0.5-0.3-0.9-0.6-1.5-0.6c-0.7,0-1.1,0.4-1.1,0.8c0,0.6,0.7,0.8,1.4,1
									c0.9,0.3,1.9,0.8,1.9,2c0,1.1-0.9,2-2.5,2C28.1-5.2,27.1-5.6,26.5-6.2z"/>
								<path d="M32.3-6.2l0.6-0.9c0.6,0.5,1.2,0.8,1.9,0.8c0.8,0,1.2-0.4,1.2-0.9c0-0.6-0.7-0.9-1.5-1.1c-0.9-0.3-1.9-0.8-1.9-1.9
									s0.9-1.9,2.3-1.9c0.9,0,1.6,0.4,2.1,0.8l-0.6,0.9c-0.4-0.5-0.9-0.7-1.4-0.7c-0.7,0-1.1,0.4-1.1,0.8c0,0.6,0.7,0.8,1.4,1
									c0.9,0.3,1.9,0.8,1.9,2c0,1.1-0.9,2-2.5,2C33.8-5.2,32.9-5.6,32.3-6.2z"/>
								<path d="M38.5-14c0-0.5,0.4-0.8,0.9-0.8s0.9,0.3,0.9,0.8s-0.4,0.8-0.9,0.8S38.5-13.6,38.5-14z M38.7-12h1.4v6.6h-1.4V-12z"
									/>
								<path d="M41.7-8.7c0-2.2,1.5-3.5,3.1-3.5c1.6,0,3.1,1.3,3.1,3.5s-1.5,3.4-3.1,3.4C43.2-5.2,41.7-6.5,41.7-8.7z M46.5-8.7
									c0-1.4-0.6-2.3-1.7-2.3c-1,0-1.7,0.9-1.7,2.3s0.6,2.3,1.7,2.3C45.8-6.4,46.5-7.3,46.5-8.7z"/>
								<path d="M49.5-12h1.1l0.1,0.9l0,0c0.6-0.6,1.3-1.1,2.2-1.1c1.4,0,2,0.9,2,2.6v4.2h-1.4v-4c0-1.1-0.3-1.6-1.1-1.6
									c-0.6,0-1,0.3-1.6,0.9v4.7h-1.4V-12H49.5z"/>
								<path d="M59.7-6.9v-8h1.4v8.1c0,0.4,0.2,0.5,0.3,0.5c0.1,0,0.1,0,0.2,0l0.2,1c-0.2,0.1-0.4,0.1-0.7,0.1
									C60.1-5.2,59.7-5.9,59.7-6.9z"/>
								<path d="M62.8-8.7c0-2.1,1.5-3.5,3-3.5c1.8,0,2.7,1.3,2.7,3.1c0,0.3,0,0.5-0.1,0.7h-4.3c0.1,1.3,0.9,2,2,2
									c0.6,0,1.1-0.2,1.6-0.5L68.2-6c-0.6,0.4-1.4,0.7-2.2,0.7C64.3-5.2,62.8-6.5,62.8-8.7z M67.3-9.3c0-1.1-0.5-1.8-1.5-1.8
									c-0.8,0-1.6,0.6-1.7,1.8H67.3z"/>
								<path d="M69.2-12h1.4l1.1,3.6c0.2,0.6,0.4,1.3,0.6,2l0,0c0.2-0.6,0.4-1.3,0.6-2L74-12h1.3l-2.2,6.6h-1.6L69.2-12z"/>
								<path d="M76.1-8.7c0-2.1,1.5-3.5,3-3.5c1.8,0,2.7,1.3,2.7,3.1c0,0.3,0,0.5-0.1,0.7h-4.3c0.1,1.3,0.9,2,2,2
									c0.6,0,1.1-0.2,1.6-0.5L81.5-6c-0.6,0.4-1.4,0.7-2.2,0.7C77.5-5.2,76.1-6.5,76.1-8.7z M80.6-9.3c0-1.1-0.5-1.8-1.5-1.8
									c-0.8,0-1.6,0.6-1.7,1.8H80.6z"/>
								<path d="M83.3-6.9v-8h1.4v8.1c0,0.4,0.2,0.5,0.3,0.5c0.1,0,0.1,0,0.2,0l0.2,1c-0.2,0.1-0.4,0.1-0.7,0.1
									C83.7-5.2,83.3-5.9,83.3-6.9z"/>
								<path d="M89.4-10.9c0-0.6,0.4-1,0.9-1s0.9,0.4,0.9,1c0,0.6-0.4,1-0.9,1S89.4-10.4,89.4-10.9z M89.4-6.2c0-0.6,0.4-1,0.9-1
									s0.9,0.4,0.9,1s-0.4,1-0.9,1S89.4-5.6,89.4-6.2z"/>
							</g>
							<path class="st4" d="M-18-12.4L-18-12.4c1.1,0,2,0.9,2,2l0,0c0,1.1-0.9,2-2,2l0,0c-1.1,0-2-0.9-2-2l0,0
								C-20-11.5-19.1-12.4-18-12.4z"/>
						</g>
					</g>
					<g transform="translate(145.000000, 0.000000)">
						<g class="st1">
							<path d="M-3-13.1h-2.6v-1.1H1v1.2h-2.6v7.6H-3V-13.1z"/>
							<path d="M1.2-12h1.4l0.9,3.6c0.1,0.6,0.2,1.2,0.4,1.9l0,0C4-7.1,4.2-7.7,4.3-8.4L5.2-12h1.3l0.9,3.6c0.2,0.6,0.3,1.2,0.4,1.9
								l0,0C7.9-7.1,8-7.7,8.2-8.4L9.1-12h1.3L8.8-5.4H7.1L6.3-8.7C6.1-9.3,6-9.9,5.9-10.6H5.8C5.7-9.9,5.5-9.3,5.4-8.7L4.6-5.4H3
								L1.2-12z"/>
							<path d="M11.3-8.7c0-2.2,1.5-3.5,3.1-3.5s3.1,1.3,3.1,3.5S16-5.3,14.4-5.3S11.3-6.5,11.3-8.7z M16.1-8.7
								c0-1.4-0.6-2.3-1.7-2.3c-1,0-1.7,0.9-1.7,2.3s0.6,2.3,1.7,2.3S16.1-7.3,16.1-8.7z"/>
							<path d="M21.7-14c0-0.5,0.4-0.8,0.9-0.8s0.9,0.3,0.9,0.8s-0.4,0.8-0.9,0.8S21.7-13.6,21.7-14z M21.9-12h1.4v6.6h-1.4V-12z"/>
							<path d="M24.6-6.2l0.6-0.9c0.6,0.5,1.2,0.8,1.9,0.8c0.8,0,1.2-0.4,1.2-0.9c0-0.6-0.7-0.9-1.5-1.1C26-8.6,25-9.1,25-10.2
								s0.9-1.9,2.3-1.9c0.9,0,1.6,0.4,2.1,0.8l-0.6,0.9c-0.5-0.3-0.9-0.6-1.5-0.6c-0.7,0-1.1,0.4-1.1,0.8c0,0.6,0.7,0.8,1.4,1
								c0.9,0.3,1.9,0.8,1.9,2c0,1.1-0.9,2-2.5,2C26.2-5.2,25.3-5.6,24.6-6.2z"/>
							<path d="M30.6-8.7c0-2.2,1.5-3.5,3.1-3.5s3.1,1.3,3.1,3.5s-1.5,3.4-3.1,3.4C32.1-5.2,30.6-6.5,30.6-8.7z M35.4-8.7
								c0-1.4-0.6-2.3-1.7-2.3c-1,0-1.7,0.9-1.7,2.3s0.6,2.3,1.7,2.3C34.8-6.4,35.4-7.3,35.4-8.7z"/>
							<path d="M41.6-13.9c-0.2-0.1-0.5-0.2-0.7-0.2c-0.6,0-0.9,0.4-0.9,1.2v0.8h1.3v1.1H40v5.6h-1.4v-5.5h-0.9v-1l0.9-0.1v-0.8
								c0-1.4,0.6-2.3,2.1-2.3c0.4,0,0.9,0.1,1.2,0.2L41.6-13.9z"/>
							<path d="M42-8.7c0-2.2,1.5-3.5,3.1-3.5s3.1,1.3,3.1,3.5s-1.5,3.4-3.1,3.4C43.4-5.2,42-6.5,42-8.7z M46.7-8.7
								c0-1.4-0.6-2.3-1.7-2.3c-1,0-1.7,0.9-1.7,2.3s0.6,2.3,1.7,2.3C46.1-6.4,46.7-7.3,46.7-8.7z"/>
							<path d="M49.8-12h1.1l0.1,1.2l0,0c0.5-0.9,1.2-1.4,1.9-1.4c0.3,0,0.5,0,0.7,0.1l-0.3,1.2C53.1-11,52.9-11,52.6-11
								c-0.5,0-1.2,0.4-1.6,1.4v4.2h-1.4V-12H49.8z"/>
							<path d="M54.7-12h1.1l0.1,0.9l0,0c0.6-0.6,1.2-1.1,2-1.1c1,0,1.5,0.5,1.8,1.2c0.6-0.7,1.3-1.2,2.1-1.2c1.4,0,2,0.9,2,2.6v4.2
								h-1.4v-4c0-1.1-0.4-1.6-1.1-1.6c-0.5,0-0.9,0.3-1.5,0.9v4.7h-1.4v-4c0-1.1-0.3-1.6-1.1-1.6c-0.4,0-0.9,0.3-1.5,0.9v4.7h-1.4
								V-12H54.7z"/>
							<path d="M65.3-6.2l0.6-0.9c0.6,0.5,1.2,0.8,1.9,0.8c0.8,0,1.2-0.4,1.2-0.9c0-0.6-0.7-0.9-1.5-1.1c-0.9-0.3-1.9-0.8-1.9-1.9
								s0.9-1.9,2.3-1.9c0.9,0,1.6,0.4,2.1,0.8l-0.6,0.9c-0.4-0.5-0.8-0.7-1.4-0.7c-0.7,0-1.1,0.4-1.1,0.8c0,0.6,0.7,0.8,1.4,1
								c0.9,0.3,1.9,0.8,1.9,2c0,1.1-0.9,2-2.5,2C66.9-5.2,65.9-5.6,65.3-6.2z"/>
							<path d="M74.3-10.9c0-0.6,0.4-1,0.9-1s0.9,0.4,0.9,1c0,0.6-0.4,1-0.9,1S74.3-10.4,74.3-10.9z M74.3-6.2c0-0.6,0.4-1,0.9-1
								s0.9,0.4,0.9,1s-0.4,1-0.9,1S74.3-5.6,74.3-6.2z"/>
						</g>
						<path class="st4" d="M-18-12.4L-18-12.4c1.1,0,2,0.9,2,2l0,0c0,1.1-0.9,2-2,2l0,0c-1.1,0-2-0.9-2-2l0,0
							C-20-11.5-19.1-12.4-18-12.4z"/>
						<g transform="translate(14.000000, 20.000000)">
							<g id="HGF728" transform="translate(48.000000, 0.000000)">
								<g class="st1">
									<path d="M3-10.7H1.2v-0.4h2.3v0.3c-0.9,1.1-1,2-1.1,3.4H2C2.1-8.8,2.3-9.7,3-10.7z"/>
									<path d="M4-7.7c1.2-1,1.7-1.7,1.7-2.4c0-0.4-0.2-0.7-0.7-0.7c-0.3,0-0.6,0.2-0.8,0.4L4-10.6c0.3-0.3,0.6-0.5,1.1-0.5
										c0.7,0,1.1,0.4,1.1,1.1c0,0.7-0.6,1.5-1.4,2.3c0.2,0,0.4,0,0.6,0h1v0.3H4V-7.7z"/>
									<path d="M6.8-8.3c0-0.5,0.3-0.8,0.7-1l0,0C7.2-9.5,7-9.8,7-10.2c0-0.6,0.4-0.9,1-0.9s1,0.4,1,1c0,0.4-0.3,0.7-0.5,0.9l0,0
										c0.3,0.2,0.6,0.5,0.6,1s-0.5,1-1.2,1C7.3-7.3,6.8-7.7,6.8-8.3z M8.7-8.3c0-0.5-0.5-0.7-1-0.9C7.4-9,7.2-8.7,7.2-8.4
										C7.2-8,7.5-7.7,8-7.7C8.4-7.7,8.7-7.9,8.7-8.3z M8.6-10.1c0-0.4-0.2-0.7-0.6-0.7c-0.3,0-0.6,0.2-0.6,0.6
										c0,0.4,0.4,0.6,0.8,0.8C8.4-9.6,8.6-9.9,8.6-10.1z"/>
								</g>
								<g class="st1">
									<path d="M-19-14.7h0.9v3.1h3.4v-3.1h0.9v7.3h-0.9v-3.5h-3.4v3.5H-19V-14.7z"/>
									<path d="M-12.1-11.1c0-2.4,1.4-3.8,3.4-3.8c1,0,1.7,0.5,2.1,0.9l-0.6,0.6c-0.4-0.4-0.8-0.7-1.6-0.7c-1.5,0-2.4,1.1-2.4,3
										c0,1.8,0.9,3,2.4,3c0.5,0,1-0.2,1.3-0.4v-1.9H-9v-0.8h2.4v3.1c-0.5,0.5-1.3,0.8-2.3,0.8C-10.8-7.3-12.1-8.7-12.1-11.1z"/>
									<path d="M-4.8-14.7h4.2v0.8h-3.3v2.5h2.8v0.8h-2.8v3.2h-0.9C-4.8-7.4-4.8-14.7-4.8-14.7z"/>
								</g>
							</g>
							<g>
								<g class="st1">
									<path d="M3-10.7H1.2v-0.4h2.3v0.3c-0.9,1.1-1,2-1.1,3.4H2C2.1-8.8,2.3-9.7,3-10.7z"/>
									<path d="M4-7.7c1.2-1,1.7-1.7,1.7-2.4c0-0.4-0.2-0.7-0.7-0.7c-0.3,0-0.6,0.2-0.8,0.4L4-10.6c0.3-0.3,0.6-0.5,1.1-0.5
										c0.7,0,1.1,0.4,1.1,1.1c0,0.7-0.6,1.5-1.4,2.3c0.2,0,0.4,0,0.6,0h1v0.3H4V-7.7z"/>
									<path d="M6.7-7.8l0.2-0.3c0.2,0.2,0.5,0.4,0.9,0.4S8.5-8,8.5-8.4S8.2-9.1,7.4-9.1v-0.4c0.8,0,1-0.3,1-0.7s-0.2-0.6-0.6-0.6
										c-0.3,0-0.6,0.2-0.8,0.4l-0.2-0.3c0.3-0.3,0.6-0.4,1-0.4c0.6,0,1.1,0.3,1.1,0.9c0,0.4-0.3,0.7-0.7,0.9l0,0
										C8.6-9.2,9-8.9,9-8.4c0,0.7-0.5,1-1.2,1C7.3-7.3,6.9-7.6,6.7-7.8z"/>
								</g>
								<g class="st1">
									<path d="M-19-14.7h0.9v3.1h3.4v-3.1h0.9v7.3h-0.9v-3.5h-3.4v3.5H-19V-14.7z"/>
									<path d="M-12.1-11.1c0-2.4,1.4-3.8,3.4-3.8c1,0,1.7,0.5,2.1,0.9l-0.6,0.6c-0.4-0.4-0.8-0.7-1.6-0.7c-1.5,0-2.4,1.1-2.4,3
										c0,1.8,0.9,3,2.4,3c0.5,0,1-0.2,1.3-0.4v-1.9H-9v-0.8h2.4v3.1c-0.5,0.5-1.3,0.8-2.3,0.8C-10.8-7.3-12.1-8.7-12.1-11.1z"/>
									<path d="M-4.8-14.7h4.2v0.8h-3.3v2.5h2.8v0.8h-2.8v3.2h-0.9C-4.8-7.4-4.8-14.7-4.8-14.7z"/>
								</g>
							</g>
							<g class="st1">
								<path d="M18.4-10.7h-2v-0.7h2v-2.2h0.7v2.2h2v0.7h-2v2.2h-0.7V-10.7z"/>
							</g>
						</g>
					</g>
					<g>
						<g class="st1">
							<path d="M-3-13.1h-2.6v-1.1H1v1.2h-2.6v7.6H-3V-13.1z"/>
							<path d="M2.4-15h1.4v2.6v1.3c0.6-0.6,1.2-1,2.1-1c1.4,0,2,0.9,2,2.6v4.1H6.5v-4c0-1.1-0.3-1.6-1.1-1.6c-0.6,0-1,0.3-1.6,0.9
								v4.7H2.4V-15z"/>
							<path d="M9.3-8.7c0-2.1,1.5-3.5,3-3.5c1.8,0,2.7,1.3,2.7,3.1c0,0.3,0,0.5-0.1,0.7h-4.3c0.1,1.3,0.9,2,2,2
								c0.6,0,1.1-0.2,1.6-0.5L14.7-6c-0.6,0.4-1.4,0.7-2.2,0.7C10.8-5.2,9.3-6.5,9.3-8.7z M13.9-9.3c0-1.1-0.5-1.8-1.5-1.8
								c-0.8,0-1.6,0.6-1.7,1.8H13.9z"/>
							<path d="M16.6-12h1.1l0.1,1.2l0,0c0.5-0.9,1.2-1.4,1.9-1.4c0.3,0,0.5,0,0.7,0.1l-0.3,1.2C19.9-11,19.7-11,19.4-11
								c-0.5,0-1.2,0.4-1.6,1.4v4.2h-1.4V-12H16.6z"/>
							<path d="M20.8-7.2c0-1.4,1.2-2.1,3.9-2.4c0-0.8-0.3-1.4-1.3-1.4c-0.7,0-1.3,0.3-1.9,0.7l-0.5-1c0.7-0.4,1.6-0.9,2.7-0.9
								c1.6,0,2.4,1,2.4,2.8v4H25l-0.1-0.8l0,0c-0.6,0.5-1.3,0.9-2.1,0.9C21.6-5.2,20.8-6,20.8-7.2z M24.7-7.1v-1.6
								c-2,0.2-2.6,0.7-2.6,1.5c0,0.6,0.4,0.9,1,0.9C23.7-6.3,24.2-6.6,24.7-7.1z"/>
							<path d="M28.1-12h1.1l0.1,0.7l0,0c0.6-0.5,1.3-0.9,2-0.9c1.7,0,2.6,1.3,2.6,3.4c0,2.3-1.4,3.6-2.8,3.6
								c-0.6,0-1.2-0.3-1.7-0.7v1.1v2.1H28V-12H28.1z M32.6-8.8c0-1.4-0.4-2.2-1.5-2.2c-0.5,0-1,0.3-1.6,0.8V-7
								c0.5,0.4,1,0.6,1.4,0.6C31.8-6.4,32.6-7.2,32.6-8.8z"/>
							<path d="M35.2-8.7c0-2.1,1.5-3.5,3-3.5c1.8,0,2.7,1.3,2.7,3.1c0,0.3,0,0.5-0.1,0.7h-4.3c0.1,1.3,0.9,2,2,2
								c0.6,0,1.1-0.2,1.6-0.5L40.6-6c-0.6,0.4-1.4,0.7-2.2,0.7C36.6-5.2,35.2-6.5,35.2-8.7z M39.7-9.3c0-1.1-0.5-1.8-1.5-1.8
								c-0.8,0-1.6,0.6-1.7,1.8H39.7z"/>
							<path d="M42.3-7.8V-12h1.4v4c0,1.1,0.3,1.6,1.1,1.6c0.6,0,1-0.3,1.6-1V-12h1.4v6.6h-1.1l-0.1-1l0,0c-0.6,0.7-1.2,1.2-2.2,1.2
								C42.9-5.2,42.3-6.2,42.3-7.8z"/>
							<path d="M50.1-7.6v-3.3h-1v-1l1-0.1l0.2-1.8h1.2v1.8h1.7v1.1h-1.7v3.3c0,0.8,0.3,1.2,1,1.2c0.2,0,0.5-0.1,0.7-0.2l0.3,1
								c-0.4,0.1-0.8,0.2-1.3,0.2C50.6-5.2,50.1-6.2,50.1-7.6z"/>
							<path d="M54.4-14c0-0.5,0.4-0.8,0.9-0.8s0.9,0.3,0.9,0.8s-0.4,0.8-0.9,0.8S54.4-13.6,54.4-14z M54.6-12H56v6.6h-1.4V-12z"/>
							<path d="M57.6-8.7c0-2.2,1.5-3.5,3.3-3.5c0.8,0,1.5,0.3,1.9,0.8l-0.7,0.9c-0.4-0.3-0.7-0.5-1.2-0.5c-1.1,0-1.9,0.9-1.9,2.3
								s0.8,2.3,1.9,2.3c0.6,0,1-0.3,1.4-0.6l0.6,0.9c-0.6,0.5-1.4,0.8-2.1,0.8C58.9-5.2,57.6-6.5,57.6-8.7z"/>
							<path d="M66.5-4.2c0-0.6,0.3-1.1,1-1.4v-0.1c-0.3-0.2-0.6-0.6-0.6-1.1s0.4-1,0.7-1.2l0,0c-0.4-0.3-0.9-1-0.9-1.8
								c0-1.5,1.2-2.4,2.6-2.4c0.4,0,0.7,0.1,1,0.2h2.3v1h-1.3c0.3,0.3,0.4,0.7,0.4,1.2c0,1.4-1.1,2.3-2.5,2.3
								c-0.3,0-0.6-0.1-0.9-0.2c-0.2,0.2-0.4,0.4-0.4,0.7c0,0.4,0.3,0.6,1.1,0.6h1.2c1.6,0,2.4,0.5,2.4,1.6c0,1.3-1.3,2.3-3.5,2.3
								C67.6-2.4,66.5-3,66.5-4.2z M71.3-4.5c0-0.6-0.4-0.7-1.2-0.7h-1c-0.3,0-0.6,0-0.9-0.1c-0.4,0.3-0.6,0.6-0.6,1
								c0,0.6,0.7,1,1.8,1C70.6-3.3,71.3-3.9,71.3-4.5z M70.5-9.8c0-0.9-0.6-1.4-1.2-1.4S68-10.7,68-9.8c0,0.9,0.6,1.4,1.2,1.4
								S70.5-8.9,70.5-9.8z"/>
							<path d="M73.2-8.7c0-2.1,1.5-3.5,3-3.5c1.8,0,2.7,1.3,2.7,3.1c0,0.3,0,0.5-0.1,0.7h-4.3c0.1,1.3,0.9,2,2,2
								c0.6,0,1.1-0.2,1.6-0.5L78.6-6c-0.6,0.4-1.4,0.7-2.2,0.7C74.6-5.2,73.2-6.5,73.2-8.7z M77.7-9.3c0-1.1-0.5-1.8-1.5-1.8
								c-0.8,0-1.6,0.6-1.7,1.8H77.7z"/>
							<path d="M80.5-12h1.1l0.1,0.9l0,0c0.6-0.6,1.3-1.1,2.2-1.1c1.4,0,2,0.9,2,2.6v4.2h-1.4v-4c0-1.1-0.3-1.6-1.1-1.6
								c-0.6,0-1,0.3-1.6,0.9v4.7h-1.4V-12H80.5z"/>
							<path d="M87.5-8.7c0-2.1,1.5-3.5,3-3.5c1.8,0,2.7,1.3,2.7,3.1c0,0.3,0,0.5-0.1,0.7h-4.3c0.1,1.3,0.9,2,2,2
								c0.6,0,1.1-0.2,1.6-0.5L92.9-6c-0.6,0.4-1.4,0.7-2.2,0.7C88.9-5.2,87.5-6.5,87.5-8.7z M92-9.3c0-1.1-0.5-1.8-1.5-1.8
								c-0.8,0-1.6,0.6-1.7,1.8H92z"/>
							<path d="M97.2-10.9c0-0.6,0.4-1,0.9-1s0.9,0.4,0.9,1c0,0.6-0.4,1-0.9,1S97.2-10.4,97.2-10.9z M97.2-6.2c0-0.6,0.4-1,0.9-1
								s0.9,0.4,0.9,1s-0.4,1-0.9,1S97.2-5.6,97.2-6.2z"/>
						</g>
						<path class="st4" d="M-18-12.4L-18-12.4c1.1,0,2,0.9,2,2l0,0c0,1.1-0.9,2-2,2l0,0c-1.1,0-2-0.9-2-2l0,0
							C-20-11.5-19.1-12.4-18-12.4z"/>
						<g class="st1">
							<path d="M1,5.3h0.9v3.1h3.4V5.3h0.9v7.3H5.3V9.1H1.9v3.5H1V5.3z"/>
							<path d="M7.9,8.9c0-2.4,1.4-3.8,3.4-3.8c1,0,1.7,0.5,2.1,0.9l-0.6,0.6c-0.4-0.4-0.8-0.7-1.6-0.7c-1.5,0-2.4,1.1-2.4,3
								c0,1.8,0.9,3,2.4,3c0.5,0,1-0.2,1.3-0.4V9.6H11V8.8h2.4v3.1c-0.5,0.5-1.3,0.8-2.3,0.8C9.2,12.7,7.9,11.3,7.9,8.9z"/>
							<path d="M15.2,5.3h4.2v0.8h-3.3v2.5h2.8v0.8h-2.8v3.2h-0.9V5.3z"/>
						</g>
					</g>
				</g>
				<g id="special-Feature">
					<g class="st1">
						<path class="st2" d="M-19.5-6.5l1-1.2c0.6,0.6,1.5,1,2.3,1c0.9,0,1.4-0.4,1.4-1c0-0.7-0.5-0.9-1.3-1.2l-1.2-0.6
							c-0.9-0.4-1.8-1.1-1.8-2.4c0-1.4,1.2-2.5,3-2.5c1.1,0,2.1,0.4,2.8,1.1l-0.9,1.1c-0.5-0.5-1.1-0.7-1.9-0.7
							c-0.8,0-1.3,0.3-1.3,0.9c0,0.6,0.6,0.9,1.4,1.2l1.2,0.5c1.1,0.4,1.8,1.1,1.8,2.4c0,1.5-1.2,2.7-3.3,2.7
							C-17.4-5.2-18.6-5.7-19.5-6.5z"/>
						<path class="st2" d="M-11.6-12.1h1.4l0.2,0.7l0,0c0.6-0.5,1.3-0.9,2-0.9c1.7,0,2.6,1.4,2.6,3.4c0,2.3-1.4,3.6-2.9,3.6
							C-8.9-5.3-9.5-5.6-10-6v1.1v2h-1.6V-12.1z M-7.2-8.8c0-1.3-0.4-2-1.3-2c-0.5,0-0.9,0.2-1.3,0.7v3c0.4,0.4,0.9,0.5,1.2,0.5
							C-7.8-6.7-7.2-7.4-7.2-8.8z"/>
						<path class="st2" d="M-4.3-8.7c0-2.2,1.5-3.5,3.1-3.5c1.8,0,2.8,1.4,2.8,3.2c0,0.3,0,0.6-0.1,0.8h-4.1
							c0.1,1.1,0.9,1.7,1.9,1.7c0.6,0,1-0.2,1.5-0.5l0.6,1.1C0.7-5.4-0.1-5.2-1-5.2C-2.8-5.2-4.3-6.5-4.3-8.7z M0.2-9.4
							c0-0.9-0.4-1.5-1.3-1.5c-0.7,0-1.3,0.5-1.5,1.5H0.2z"/>
						<path class="st2" d="M2.7-8.7c0-2.2,1.6-3.5,3.4-3.5c0.8,0,1.5,0.3,2,0.7l-0.8,1.1c-0.3-0.3-0.6-0.4-1-0.4
							c-1,0-1.7,0.8-1.7,2.1s0.7,2.1,1.7,2.1c0.5,0,0.9-0.2,1.3-0.5l0.7,1.2C7.7-5.3,6.8-5.1,6.1-5.1C4.1-5.2,2.7-6.5,2.7-8.7z"/>
						<path class="st2" d="M9.3-14.2c0-0.6,0.4-1,1.1-1c0.6,0,1,0.4,1,1c0,0.6-0.4,1-1,1C9.7-13.2,9.3-13.6,9.3-14.2z M9.5-12.1h1.8
							v6.7H9.5V-12.1z"/>
						<path class="st2" d="M12.8-7.2c0-1.4,1.2-2.2,3.9-2.5c0-0.7-0.3-1.2-1.1-1.2c-0.6,0-1.2,0.3-1.8,0.6L13-11.4
							c0.8-0.5,1.8-0.9,2.8-0.9c1.7,0,2.6,1,2.6,3v3.9H17l-0.1-0.7l0,0c-0.6,0.5-1.3,0.9-2,0.9C13.6-5.2,12.8-6.1,12.8-7.2z
							 M16.6-7.3v-1.4C15-8.4,14.5-8,14.5-7.4c0,0.5,0.4,0.8,0.9,0.8C15.8-6.6,16.2-6.9,16.6-7.3z"/>
						<path class="st2" d="M20.2-7.3V-15H22v7.8c0,0.4,0.2,0.5,0.4,0.5c0.1,0,0.1,0,0.2,0l0.2,1.3c-0.2,0.1-0.5,0.2-0.9,0.2
							C20.6-5.2,20.2-6,20.2-7.3z"/>
						<path class="st2" d="M26.8-14.3h5.5v1.5h-3.7v2.3h3.2V-9h-3.2v3.6h-1.8V-14.3z"/>
						<path class="st2" d="M33.1-8.7c0-2.2,1.5-3.5,3.1-3.5C38-12.2,39-10.8,39-9c0,0.3,0,0.6-0.1,0.8h-4.1c0.1,1.1,0.9,1.7,1.9,1.7
							c0.6,0,1-0.2,1.5-0.5l0.6,1.1c-0.7,0.5-1.5,0.7-2.4,0.7C34.5-5.2,33.1-6.5,33.1-8.7z M37.5-9.4c0-0.9-0.4-1.5-1.3-1.5
							c-0.7,0-1.3,0.5-1.5,1.5H37.5z"/>
						<path class="st2" d="M40-7.2c0-1.4,1.2-2.2,3.9-2.5c0-0.7-0.3-1.2-1.1-1.2c-0.6,0-1.2,0.3-1.8,0.6l-0.8-1.1
							c0.8-0.5,1.8-0.9,2.8-0.9c1.7,0,2.6,1,2.6,3v3.9h-1.4L44-6.1l0,0c-0.6,0.5-1.3,0.9-2,0.9C40.8-5.2,40-6.1,40-7.2z M43.8-7.3
							v-1.4c-1.6,0.2-2.2,0.7-2.2,1.3c0,0.5,0.4,0.8,0.9,0.8C43-6.6,43.4-6.9,43.8-7.3z"/>
						<path class="st2" d="M47.4-7.8v-3h-0.9V-12l1-0.1l0.2-1.8h1.5v1.8h1.7v1.4h-1.7v3c0,0.8,0.3,1.1,0.9,1.1
							c0.2,0,0.5-0.1,0.7-0.1l0.3,1.3c-0.4,0.1-0.8,0.3-1.4,0.3C48-5.2,47.4-6.2,47.4-7.8z"/>
						<path class="st2" d="M52.1-7.9v-4.2h1.8v4c0,1,0.3,1.4,0.9,1.4s0.9-0.2,1.4-0.8v-4.6H58v6.7h-1.4l-0.1-1l0,0
							c-0.6,0.7-1.2,1.1-2.1,1.1C52.8-5.2,52.1-6.2,52.1-7.9z"/>
						<path class="st2" d="M59.8-12.1h1.4l0.1,1.2l0,0c0.5-0.9,1.2-1.4,1.9-1.4c0.4,0,0.6,0.1,0.8,0.1l-0.3,1.5
							c-0.2-0.1-0.4-0.1-0.7-0.1c-0.4,0.1-1,0.4-1.4,1.4v4h-1.8C59.8-5.4,59.8-12.1,59.8-12.1z"/>
						<path class="st2" d="M64.5-8.7c0-2.2,1.5-3.5,3.1-3.5c1.8,0,2.8,1.4,2.8,3.2c0,0.3,0,0.6-0.1,0.8h-4.1
							c0.1,1.1,0.9,1.7,1.9,1.7c0.6,0,1-0.2,1.5-0.5l0.6,1.1c-0.7,0.5-1.5,0.7-2.4,0.7C66-5.2,64.5-6.5,64.5-8.7z M68.9-9.4
							c0-0.9-0.4-1.5-1.3-1.5c-0.6,0-1.3,0.5-1.4,1.5H68.9z"/>
						<path class="st2" d="M71.3-6.2l0.8-1.1c0.6,0.5,1.2,0.7,1.8,0.7c0.7,0,1-0.3,1-0.7c0-0.5-0.7-0.7-1.4-1
							c-0.9-0.3-1.8-0.8-1.8-2s1-2.1,2.5-2.1c1,0,1.7,0.4,2.3,0.8l-0.9,1.2c-0.5-0.3-0.9-0.6-1.5-0.6s-0.9,0.3-0.9,0.6
							c0,0.5,0.7,0.7,1.4,0.9c0.9,0.3,1.9,0.8,1.9,2s-0.9,2.1-2.7,2.1C72.9-5.2,71.9-5.6,71.3-6.2z"/>
					</g>
					<path id="Line-2" class="st7" d="M-20-1.4H80"/>
				</g>
			</g>
		</g>
	</g>
</g>
</svg>
