<?xml version="1.0" encoding="utf-8"?>
<!-- Generator: Adobe Illustrator 23.0.4, SVG Export Plug-In . SVG Version: 6.00 Build 0)  -->
<svg version="1.1" id="레이어_1" xmlns="http://www.w3.org/2000/svg" xmlns:xlink="http://www.w3.org/1999/xlink" x="0px"
	 y="0px" viewBox="0 0 1037 433" style="enable-background:new 0 0 1037 433;" xml:space="preserve">
<style type="text/css">
	.st0{fill:none;stroke:#B54142;stroke-width:2;}
	.st1{fill-rule:evenodd;clip-rule:evenodd;fill:#FFFFFF;stroke:#B54142;stroke-width:1.5;}
	.st2{enable-background:new    ;}
	.st3{fill:#B54142;}
	.st4{fill-rule:evenodd;clip-rule:evenodd;fill:#B54142;}
	.st5{fill:#FFFFFF;}
	.st6{fill-rule:evenodd;clip-rule:evenodd;fill:#FEF8F4;stroke:#B54142;stroke-width:1.5;}
	.st7{fill:none;stroke:#B54142;}
	.st8{fill:none;stroke:#B54142;stroke-width:2;stroke-linecap:square;}
	.st9{fill:none;stroke:#B54142;stroke-width:2;stroke-linecap:round;stroke-linejoin:round;}
	.st10{font-family:'NotoSansCJKkr-Medium-KSCpc-EUC-H';}
	.st11{font-size:12px;}
	.st12{fill:none;stroke:#B54142;stroke-linecap:square;}
</style>
<title>Diagram</title>
<desc>Created with Sketch.</desc>
<g id="Page-2">
	<g transform="translate(-289.000000, -721.000000)">
		<g id="first" transform="translate(192.000000, 421.000000)">
			<g id="Diagram" transform="translate(97.000000, 300.000000)">
				<g id="diagram">
					<g id="라인" transform="translate(0.499031, 23.885611)">
						<path id="Path" class="st0" d="M223.5,0.5h-173c-27.6,0-50,22.4-50,50v4c0,27.6,22.4,50,50,50h64.9"/>
						<path class="st0" d="M764.5,105.7h51c27.6,0,50-22.4,50-50v-4c0-27.6-22.4-50-50-50h-173"/>
					</g>
					<g id="숫자" transform="translate(104.000000, 243.000000)">
						<g transform="translate(96.000000, 0.000000)">
							<g id="HCMV">
								<path id="bg" class="st1" d="M8.8,0.8h12.5c4.4,0,8,3.6,8,8v12.5c0,4.4-3.6,8-8,8H8.8c-4.4,0-8-3.6-8-8V8.8
									C0.8,4.3,4.3,0.8,8.8,0.8z"/>
								<g class="st2">
									<path class="st3" d="M12.2,19.2h2.4v-7h-2v-1.4c1.1-0.2,1.9-0.5,2.6-0.9h1.6v9.3h2.1V21h-6.7V19.2z"/>
								</g>
							</g>
							<g transform="translate(35.000000, 0.000000)">
								<path class="st1" d="M8.8,0.8h12.5c4.4,0,8,3.6,8,8v12.5c0,4.4-3.6,8-8,8H8.8c-4.4,0-8-3.6-8-8V8.8C0.8,4.3,4.3,0.8,8.8,0.8
									z"/>
								<g class="st2">
									<path class="st3" d="M11.6,19.7c3-2.7,4.8-4.8,4.8-6.5c0-1.1-0.6-1.8-1.7-1.8c-0.8,0-1.5,0.5-2,1.1l-1.2-1.2
										c1-1.1,2-1.7,3.5-1.7c2.1,0,3.5,1.3,3.5,3.4c0,2-1.7,4.2-3.7,6.1c0.6-0.1,1.3-0.1,1.8-0.1h2.4V21h-7.4V19.7z"/>
								</g>
							</g>
							<g transform="translate(70.000000, 0.000000)">
								<path class="st1" d="M8.8,0.8h12.5c4.4,0,8,3.6,8,8v12.5c0,4.4-3.6,8-8,8H8.8c-4.4,0-8-3.6-8-8V8.8C0.8,4.3,4.3,0.8,8.8,0.8
									z"/>
								<g class="st2">
									<path class="st3" d="M11.4,19.7l1-1.4c0.7,0.6,1.5,1.1,2.5,1.1c1.1,0,1.9-0.6,1.9-1.5c0-1.1-0.6-1.8-3.1-1.8v-1.6
										c2,0,2.7-0.7,2.7-1.7c0-0.9-0.5-1.4-1.5-1.4c-0.8,0-1.4,0.4-2.1,1l-1.1-1.3c1-0.8,2-1.4,3.3-1.4c2.1,0,3.6,1,3.6,3
										c0,1.2-0.7,2.1-1.9,2.5v0.1C18,15.6,19,16.5,19,18c0,2-1.8,3.2-3.9,3.2C13.4,21.2,12.2,20.5,11.4,19.7z"/>
								</g>
							</g>
							<g transform="translate(105.000000, 0.000000)">
								<path class="st1" d="M8.8,0.8h12.5c4.4,0,8,3.6,8,8v12.5c0,4.4-3.6,8-8,8H8.8c-4.4,0-8-3.6-8-8V8.8C0.8,4.3,4.3,0.8,8.8,0.8
									z"/>
								<g class="st2">
									<path class="st3" d="M19.4,18.1h-1.3V21H16v-2.9h-4.7v-1.5l4.1-6.7h2.6v6.5h1.3V18.1z M16,16.4v-2.3c0-0.6,0.1-1.6,0.1-2.3
										h-0.1c-0.3,0.6-0.6,1.2-0.9,1.8l-1.7,2.8H16z"/>
								</g>
							</g>
						</g>
						<g transform="translate(431.000000, 0.000000)">
							<g>
								<path class="st1" d="M8.8,0.8h12.5c4.4,0,8,3.6,8,8v12.5c0,4.4-3.6,8-8,8H8.8c-4.4,0-8-3.6-8-8V8.8C0.8,4.3,4.3,0.8,8.8,0.8
									z"/>
								<g class="st2">
									<path class="st3" d="M11.4,19.7l1-1.4c0.6,0.6,1.4,1.1,2.4,1.1c1.2,0,2-0.7,2-2c0-1.3-0.8-2-1.9-2c-0.7,0-1,0.2-1.7,0.6
										l-1-0.7l0.3-5.4h5.9v1.8h-4l-0.2,2.4c0.4-0.2,0.8-0.3,1.3-0.3c1.9,0,3.4,1.1,3.4,3.5c0,2.5-1.8,3.9-3.9,3.9
										C13.4,21.2,12.2,20.5,11.4,19.7z"/>
								</g>
							</g>
							<g transform="translate(35.000000, 0.000000)">
								<path class="st1" d="M8.8,0.8h12.5c4.4,0,8,3.6,8,8v12.5c0,4.4-3.6,8-8,8H8.8c-4.4,0-8-3.6-8-8V8.8C0.8,4.3,4.3,0.8,8.8,0.8
									z"/>
								<g class="st2">
									<path class="st3" d="M17.9,12.3c-0.4-0.5-1.1-0.8-1.7-0.8c-1.3,0-2.3,1-2.4,3.7c0.6-0.7,1.6-1.2,2.3-1.2
										c1.9,0,3.2,1.1,3.2,3.5c0,2.3-1.6,3.7-3.5,3.7c-2.1,0-4-1.7-4-5.6c0-4.1,2.1-5.9,4.3-5.9c1.3,0,2.3,0.6,3,1.3L17.9,12.3z
										 M17.2,17.5c0-1.3-0.6-1.9-1.6-1.9c-0.6,0-1.3,0.3-1.8,1.2c0.2,2,1,2.8,1.9,2.8C16.5,19.5,17.2,18.9,17.2,17.5z"/>
								</g>
							</g>
							<g transform="translate(70.000000, 0.000000)">
								<path class="st1" d="M8.8,0.8h12.5c4.4,0,8,3.6,8,8v12.5c0,4.4-3.6,8-8,8H8.8c-4.4,0-8-3.6-8-8V8.8C0.8,4.3,4.3,0.8,8.8,0.8
									z"/>
								<g class="st2">
									<path class="st3" d="M16.7,11.7h-5V9.9h7.4v1.3c-2.6,3.2-2.9,5.4-3.1,9.8h-2.2C14,17.1,14.6,14.7,16.7,11.7z"/>
								</g>
							</g>
							<g transform="translate(105.000000, 0.000000)">
								<path class="st1" d="M8.8,0.8h12.5c4.4,0,8,3.6,8,8v12.5c0,4.4-3.6,8-8,8H8.8c-4.4,0-8-3.6-8-8V8.8C0.8,4.3,4.3,0.8,8.8,0.8
									z"/>
								<g class="st2">
									<path class="st3" d="M11.7,18.2c0-1.4,0.9-2.3,1.9-2.9v-0.1c-0.9-0.6-1.5-1.5-1.5-2.6c0-1.8,1.4-2.9,3.3-2.9
										c2,0,3.2,1.2,3.2,3c0,1.1-0.7,2-1.4,2.5v0.1c1,0.6,1.9,1.5,1.9,3c0,1.7-1.5,3-3.7,3C13.3,21.2,11.7,20,11.7,18.2z
										 M17.1,18.2c0-1.2-1-1.6-2.5-2.2c-0.6,0.5-1,1.2-1,2.1c0,1,0.8,1.7,1.9,1.7C16.4,19.7,17.1,19.1,17.1,18.2z M16.9,12.8
										c0-0.9-0.5-1.5-1.5-1.5c-0.8,0-1.3,0.5-1.3,1.4c0,1.1,0.9,1.6,2,2C16.7,14.1,16.9,13.5,16.9,12.8z"/>
								</g>
							</g>
							<g transform="translate(140.000000, 0.000000)">
								<path class="st1" d="M8.8,0.8h12.5c4.4,0,8,3.6,8,8v12.5c0,4.4-3.6,8-8,8H8.8c-4.4,0-8-3.6-8-8V8.8C0.8,4.3,4.3,0.8,8.8,0.8
									z"/>
								<g class="st2">
									<path class="st3" d="M12.9,18.6c0.4,0.4,1.1,0.8,1.8,0.8c1.2,0,2.3-0.9,2.4-3.7c-0.6,0.8-1.5,1.2-2.3,1.2
										c-1.8,0-3.2-1.1-3.2-3.5c0-2.3,1.6-3.7,3.5-3.7c2.1,0,4,1.7,4,5.5c0,4.2-2.1,6-4.3,6c-1.4,0-2.4-0.6-3-1.3L12.9,18.6z
										 M17,14.1c-0.2-2-1-2.8-1.9-2.8c-0.8,0-1.5,0.7-1.5,2c0,1.3,0.6,1.9,1.6,1.9C15.8,15.3,16.5,15,17,14.1z"/>
								</g>
							</g>
							<g transform="translate(175.000000, 0.000000)">
								<path class="st1" d="M8.8,0.8h12.5c4.4,0,8,3.6,8,8v12.5c0,4.4-3.6,8-8,8H8.8c-4.4,0-8-3.6-8-8V8.8C0.8,4.3,4.3,0.8,8.8,0.8
									z"/>
								<g class="st2">
									<path class="st3" d="M7.2,19.2h2.4v-7h-2v-1.4c1.1-0.2,1.9-0.5,2.6-0.9h1.6v9.3h2.1V21H7.2V19.2z"/>
									<path class="st3" d="M15.5,15.4c0-3.8,1.5-5.7,3.8-5.7c2.2,0,3.8,1.9,3.8,5.7s-1.5,5.8-3.8,5.8
										C17,21.2,15.5,19.2,15.5,15.4z M20.9,15.4c0-3.1-0.7-4-1.7-4c-1,0-1.7,0.9-1.7,4c0,3.1,0.7,4.1,1.7,4.1
										C20.2,19.5,20.9,18.5,20.9,15.4z"/>
								</g>
							</g>
							<g transform="translate(210.000000, 0.000000)">
								<path class="st1" d="M8.8,0.8h12.5c4.4,0,8,3.6,8,8v12.5c0,4.4-3.6,8-8,8H8.8c-4.4,0-8-3.6-8-8V8.8C0.8,4.3,4.3,0.8,8.8,0.8
									z"/>
								<g class="st2">
									<path class="st3" d="M7.2,19.2h2.4v-7h-2v-1.4c1.1-0.2,1.9-0.5,2.6-0.9h1.6v9.3h2.1V21H7.2V19.2z"/>
									<path class="st3" d="M16.1,19.2h2.4v-7h-2v-1.4c1.1-0.2,1.9-0.5,2.6-0.9h1.6v9.3h2.1V21h-6.7V19.2z"/>
								</g>
							</g>
							<g transform="translate(0.000000, 40.000000)">
								<path class="st1" d="M8.8,0.8h12.5c4.4,0,8,3.6,8,8v12.5c0,4.4-3.6,8-8,8H8.8c-4.4,0-8-3.6-8-8V8.8C0.8,4.3,4.3,0.8,8.8,0.8
									z"/>
								<g class="st2">
									<path class="st3" d="M7.2,19.2h2.4v-7h-2v-1.4c1.1-0.2,1.9-0.5,2.6-0.9h1.6v9.3h2.1V21H7.2V19.2z"/>
									<path class="st3" d="M15.5,19.7c3-2.7,4.8-4.8,4.8-6.5c0-1.1-0.6-1.8-1.7-1.8c-0.8,0-1.5,0.5-2,1.1l-1.2-1.2
										c1-1.1,2-1.7,3.5-1.7c2.1,0,3.5,1.3,3.5,3.4c0,2-1.7,4.2-3.7,6.1c0.6-0.1,1.3-0.1,1.8-0.1h2.4V21h-7.4V19.7z"/>
								</g>
							</g>
							<g transform="translate(35.000000, 40.000000)">
								<path class="st1" d="M8.8,0.8h12.5c4.4,0,8,3.6,8,8v12.5c0,4.4-3.6,8-8,8H8.8c-4.4,0-8-3.6-8-8V8.8C0.8,4.3,4.3,0.8,8.8,0.8
									z"/>
								<g class="st2">
									<path class="st3" d="M7.2,19.2h2.4v-7h-2v-1.4c1.1-0.2,1.9-0.5,2.6-0.9h1.6v9.3h2.1V21H7.2V19.2z"/>
									<path class="st3" d="M15.2,19.7l1-1.4c0.7,0.6,1.5,1.1,2.5,1.1c1.1,0,1.9-0.6,1.9-1.5c0-1.1-0.6-1.8-3.1-1.8v-1.6
										c2,0,2.7-0.7,2.7-1.7c0-0.9-0.5-1.4-1.5-1.4c-0.8,0-1.4,0.4-2.1,1l-1.1-1.3c1-0.8,2-1.4,3.3-1.4c2.1,0,3.6,1,3.6,3
										c0,1.2-0.7,2.1-1.9,2.5v0.1c1.3,0.3,2.2,1.3,2.2,2.7c0,2-1.8,3.2-3.9,3.2C17.2,21.2,16,20.5,15.2,19.7z"/>
								</g>
							</g>
							<g transform="translate(70.000000, 40.000000)">
								<path class="st1" d="M8.8,0.8h12.5c4.4,0,8,3.6,8,8v12.5c0,4.4-3.6,8-8,8H8.8c-4.4,0-8-3.6-8-8V8.8C0.8,4.3,4.3,0.8,8.8,0.8
									z"/>
								<g class="st2">
									<path class="st3" d="M7.2,19.2h2.4v-7h-2v-1.4c1.1-0.2,1.9-0.5,2.6-0.9h1.6v9.3h2.1V21H7.2V19.2z"/>
									<path class="st3" d="M23.2,18.1h-1.3V21h-2.1v-2.9h-4.7v-1.5l4.1-6.7h2.6v6.5h1.3V18.1z M19.9,16.4v-2.3
										c0-0.6,0.1-1.6,0.1-2.3h-0.1c-0.3,0.6-0.6,1.2-0.9,1.8l-1.7,2.8H19.9z"/>
								</g>
							</g>
							<g transform="translate(105.000000, 40.000000)">
								<path class="st1" d="M8.8,0.8h12.5c4.4,0,8,3.6,8,8v12.5c0,4.4-3.6,8-8,8H8.8c-4.4,0-8-3.6-8-8V8.8C0.8,4.3,4.3,0.8,8.8,0.8
									z"/>
								<g class="st2">
									<path class="st3" d="M7.2,19.2h2.4v-7h-2v-1.4c1.1-0.2,1.9-0.5,2.6-0.9h1.6v9.3h2.1V21H7.2V19.2z"/>
									<path class="st3" d="M15.2,19.7l1-1.4c0.6,0.6,1.4,1.1,2.4,1.1c1.2,0,2-0.7,2-2c0-1.3-0.8-2-1.9-2c-0.7,0-1,0.2-1.7,0.6
										l-1-0.7l0.3-5.4h5.9v1.8h-4l-0.2,2.4c0.4-0.2,0.8-0.3,1.3-0.3c1.9,0,3.4,1.1,3.4,3.5c0,2.5-1.8,3.9-3.9,3.9
										C17.2,21.2,16,20.5,15.2,19.7z"/>
								</g>
							</g>
							<g transform="translate(140.000000, 40.000000)">
								<path class="st1" d="M8.8,0.8h12.5c4.4,0,8,3.6,8,8v12.5c0,4.4-3.6,8-8,8H8.8c-4.4,0-8-3.6-8-8V8.8C0.8,4.3,4.3,0.8,8.8,0.8
									z"/>
								<g class="st2">
									<path class="st3" d="M7.2,19.2h2.4v-7h-2v-1.4c1.1-0.2,1.9-0.5,2.6-0.9h1.6v9.3h2.1V21H7.2V19.2z"/>
									<path class="st3" d="M21.7,12.3c-0.4-0.5-1.1-0.8-1.7-0.8c-1.3,0-2.3,1-2.4,3.7c0.6-0.7,1.6-1.2,2.3-1.2
										c1.9,0,3.2,1.1,3.2,3.5c0,2.3-1.6,3.7-3.5,3.7c-2.1,0-4-1.7-4-5.6c0-4.1,2.1-5.9,4.3-5.9c1.3,0,2.3,0.6,3,1.3L21.7,12.3z
										 M21,17.5c0-1.3-0.6-1.9-1.6-1.9c-0.6,0-1.3,0.3-1.8,1.2c0.2,2,1,2.8,1.9,2.8C20.4,19.5,21,18.9,21,17.5z"/>
								</g>
							</g>
							<g transform="translate(175.000000, 40.000000)">
								<path class="st1" d="M8.8,0.8h12.5c4.4,0,8,3.6,8,8v12.5c0,4.4-3.6,8-8,8H8.8c-4.4,0-8-3.6-8-8V8.8C0.8,4.3,4.3,0.8,8.8,0.8
									z"/>
								<g class="st2">
									<path class="st3" d="M7.2,19.2h2.4v-7h-2v-1.4c1.1-0.2,1.9-0.5,2.6-0.9h1.6v9.3h2.1V21H7.2V19.2z"/>
									<path class="st3" d="M20.6,11.7h-5V9.9H23v1.3c-2.6,3.2-2.9,5.4-3.1,9.8h-2.2C17.8,17.1,18.5,14.7,20.6,11.7z"/>
								</g>
							</g>
							<g transform="translate(210.000000, 40.000000)">
								<path class="st1" d="M8.8,0.8h12.5c4.4,0,8,3.6,8,8v12.5c0,4.4-3.6,8-8,8H8.8c-4.4,0-8-3.6-8-8V8.8C0.8,4.3,4.3,0.8,8.8,0.8
									z"/>
								<g class="st2">
									<path class="st3" d="M7.2,19.2h2.4v-7h-2v-1.4c1.1-0.2,1.9-0.5,2.6-0.9h1.6v9.3h2.1V21H7.2V19.2z"/>
									<path class="st3" d="M15.5,18.2c0-1.4,0.9-2.3,1.9-2.9v-0.1c-0.9-0.6-1.5-1.5-1.5-2.6c0-1.8,1.4-2.9,3.3-2.9
										c2,0,3.2,1.2,3.2,3c0,1.1-0.7,2-1.4,2.5v0.1c1,0.6,1.9,1.5,1.9,3c0,1.7-1.5,3-3.7,3C17.1,21.2,15.5,20,15.5,18.2z
										 M20.9,18.2c0-1.2-1-1.6-2.5-2.2c-0.6,0.5-1,1.2-1,2.1c0,1,0.8,1.7,1.9,1.7C20.2,19.7,20.9,19.1,20.9,18.2z M20.7,12.8
										c0-0.9-0.5-1.5-1.5-1.5c-0.8,0-1.4,0.5-1.4,1.4c0,1.1,0.9,1.6,2,2C20.5,14.1,20.7,13.5,20.7,12.8z"/>
								</g>
							</g>
						</g>
						<g id="INTRO4" transform="translate(251.000000, 0.000000)">
							<g id="찌릿" transform="translate(54.000000, 8.000000)">
								<rect id="Rectangle" y="6" class="st4" width="100" height="3"/>
								<circle id="Oval" class="st4" cx="98.5" cy="7.5" r="7.5"/>
								<circle class="st4" cx="34.5" cy="7.5" r="5.5"/>
								<circle class="st4" cx="65.5" cy="7.5" r="5.5"/>
							</g>
							
								<g transform="translate(53.000000, 15.500000) rotate(-180.000000) translate(-53.000000, -15.500000) translate(0.000000, 8.000000)">
								<rect y="6" class="st4" width="100" height="3"/>
								<circle class="st4" cx="98.5" cy="7.5" r="7.5"/>
								<circle class="st4" cx="34.5" cy="7.5" r="5.5"/>
								<circle class="st4" cx="65.5" cy="7.5" r="5.5"/>
							</g>
							<path class="st4" d="M38,0h84c4.4,0,8,3.6,8,8v15c0,4.4-3.6,8-8,8H38c-4.4,0-8-3.6-8-8V8C30,3.6,33.6,0,38,0z"/>
							<g class="st2">
								<path class="st5" d="M61.3,11.5h1.2V21h-1.2V11.5z"/>
								<path class="st5" d="M65,13.9h1l0.1,1h0c0.7-0.7,1.4-1.2,2.4-1.2c1.5,0,2.2,1,2.2,2.8V21h-1.2v-4.3c0-1.3-0.4-1.9-1.3-1.9
									c-0.7,0-1.2,0.4-1.9,1.1V21H65V13.9z"/>
								<path class="st5" d="M73.2,18.8v-3.9h-1.1V14l1.1-0.1l0.1-2h1v2h1.9v1h-1.9v3.9c0,0.9,0.3,1.4,1.1,1.4
									c0.2,0,0.6-0.1,0.8-0.2l0.2,0.9c-0.4,0.1-0.9,0.3-1.3,0.3C73.7,21.2,73.2,20.2,73.2,18.8z"/>
								<path class="st5" d="M77.8,13.9h1l0.1,1.3h0c0.5-0.9,1.2-1.5,2-1.5c0.3,0,0.5,0,0.8,0.2l-0.2,1c-0.2-0.1-0.4-0.1-0.7-0.1
									c-0.6,0-1.3,0.4-1.8,1.6V21h-1.2V13.9z"/>
								<path class="st5" d="M82.2,17.5c0-2.4,1.5-3.7,3.3-3.7s3.3,1.4,3.3,3.7c0,2.3-1.5,3.7-3.3,3.7S82.2,19.8,82.2,17.5z
									 M87.5,17.5c0-1.6-0.8-2.7-2.1-2.7c-1.2,0-2,1.1-2,2.7s0.8,2.7,2,2.7C86.7,20.2,87.5,19.1,87.5,17.5z"/>
								<path class="st5" d="M99.1,18.4h-1.3V21h-1.1v-2.6h-4.1v-0.8l4-6.1h1.3v6h1.3V18.4z M96.8,17.4v-2.9c0-0.5,0.1-1.2,0.1-1.7
									h-0.1c-0.2,0.5-0.5,0.9-0.8,1.4l-2.2,3.2H96.8z"/>
							</g>
						</g>
						<g class="st2">
							<path d="M1.2,11.2h5.2v1.2H2.6v2.5h3.2V16H2.6v2.9h4V20H1.2V11.2z"/>
							<path d="M9,16.6l-2-3.2h1.5l0.8,1.3c0.2,0.4,0.4,0.7,0.6,1.1h0c0.2-0.4,0.4-0.7,0.6-1.1l0.7-1.3h1.4l-2,3.3l2.1,3.3h-1.5
								l-0.9-1.4c-0.2-0.4-0.4-0.8-0.7-1.2H9.7c-0.2,0.4-0.4,0.8-0.6,1.2L8.4,20H6.9L9,16.6z"/>
							<path d="M13.3,16.7c0-2.2,1.5-3.5,3.1-3.5c1.6,0,3.1,1.3,3.1,3.5c0,2.2-1.5,3.4-3.1,3.4C14.8,20.2,13.3,18.9,13.3,16.7z
								 M18.1,16.7c0-1.4-0.6-2.3-1.7-2.3c-1,0-1.7,0.9-1.7,2.3c0,1.4,0.6,2.3,1.7,2.3C17.5,19,18.1,18.1,18.1,16.7z"/>
							<path d="M21.2,13.4h1.1l0.1,0.9h0c0.6-0.6,1.3-1.1,2.2-1.1c1.4,0,2,0.9,2,2.6V20h-1.4v-4c0-1.1-0.3-1.6-1.1-1.6
								c-0.6,0-1,0.3-1.6,0.9V20h-1.4V13.4z"/>
							<path d="M31.4,13.4h1.1l0.1,0.9h0c0.6-0.6,1.3-1.1,2.2-1.1c1.4,0,2,0.9,2,2.6V20h-1.4v-4c0-1.1-0.3-1.6-1.1-1.6
								c-0.6,0-1,0.3-1.6,0.9V20h-1.4V13.4z"/>
							<path d="M38.8,17.6v-4.2h1.4v4c0,1.1,0.3,1.6,1.1,1.6c0.6,0,1-0.3,1.6-1v-4.6h1.4V20h-1.1L43,19h0c-0.6,0.7-1.2,1.2-2.2,1.2
								C39.4,20.2,38.8,19.2,38.8,17.6z"/>
							<path d="M46.3,13.4h1.1l0.1,0.9h0c0.6-0.6,1.2-1.1,2-1.1c1,0,1.5,0.5,1.8,1.2c0.6-0.7,1.3-1.2,2.1-1.2c1.4,0,2,0.9,2,2.6V20
								h-1.4v-4c0-1.1-0.4-1.6-1.1-1.6c-0.5,0-0.9,0.3-1.5,0.9V20h-1.4v-4c0-1.1-0.3-1.6-1.1-1.6c-0.4,0-0.9,0.3-1.5,0.9V20h-1.4
								V13.4z"/>
							<path d="M58.8,19.3L58.8,19.3L58.7,20h-1.1v-9.6H59V13l0,1.1c0.6-0.5,1.3-0.9,2-0.9c1.7,0,2.6,1.3,2.6,3.4
								c0,2.3-1.4,3.6-2.8,3.6C60.1,20.2,59.4,19.9,58.8,19.3z M62.1,16.6c0-1.4-0.4-2.2-1.5-2.2c-0.5,0-1,0.3-1.6,0.8v3.2
								c0.5,0.4,1,0.6,1.4,0.6C61.4,19,62.1,18.2,62.1,16.6z"/>
							<path d="M64.7,16.7c0-2.1,1.5-3.5,3-3.5c1.8,0,2.7,1.3,2.7,3.1c0,0.3,0,0.5-0.1,0.7H66c0.1,1.3,0.9,2,2,2
								c0.6,0,1.1-0.2,1.6-0.5l0.5,0.9c-0.6,0.4-1.4,0.7-2.2,0.7C66.1,20.2,64.7,18.9,64.7,16.7z M69.2,16.1c0-1.1-0.5-1.8-1.5-1.8
								c-0.8,0-1.6,0.6-1.7,1.8H69.2z"/>
							<path d="M71.9,13.4h1.1l0.1,1.2h0c0.5-0.9,1.2-1.4,1.9-1.4c0.3,0,0.5,0,0.7,0.1l-0.3,1.2c-0.2-0.1-0.4-0.1-0.7-0.1
								c-0.5,0-1.2,0.4-1.6,1.4V20h-1.4V13.4z"/>
						</g>
					</g>
					<g id="COLE" transform="translate(179.000000, 0.000000)">
						<path class="st1" d="M8.8,0.8h132.5c4.4,0,8,3.6,8,8v32.5c0,4.4-3.6,8-8,8H8.8c-4.4,0-8-3.6-8-8V8.8C0.8,4.3,4.3,0.8,8.8,0.8z
							"/>
						<g class="st2">
							<path class="st3" d="M55.9,25.5c0-3.6,2.2-5.8,5-5.8c1.4,0,2.5,0.7,3.1,1.4L63,22.3c-0.6-0.6-1.3-1-2.2-1
								c-1.9,0-3.2,1.6-3.2,4.2c0,2.6,1.2,4.2,3.2,4.2c1,0,1.8-0.4,2.4-1.2l0.9,1.1c-0.9,1-2,1.6-3.4,1.6
								C58,31.2,55.9,29.1,55.9,25.5z"/>
							<path class="st3" d="M65.4,26.9c0-2.8,1.8-4.4,3.9-4.4c2,0,3.9,1.6,3.9,4.4c0,2.7-1.8,4.3-3.9,4.3
								C67.3,31.2,65.4,29.6,65.4,26.9z M71.4,26.9c0-1.8-0.8-2.9-2.1-2.9c-1.3,0-2.1,1.2-2.1,2.9c0,1.7,0.8,2.9,2.1,2.9
								C70.6,29.8,71.4,28.6,71.4,26.9z"/>
							<path class="st3" d="M75.2,29.1V19h1.7v10.1c0,0.5,0.2,0.6,0.4,0.6c0.1,0,0.1,0,0.3,0l0.2,1.3c-0.2,0.1-0.5,0.1-0.9,0.1
								C75.7,31.2,75.2,30.4,75.2,29.1z"/>
							<path class="st3" d="M79.8,20h6.5v1.5h-4.8v3.1h4V26h-4v3.6h4.9V31h-6.7V20z"/>
							<path class="st3" d="M88.7,29.6h2.4v-7.7h-2v-1.1c1-0.2,1.8-0.5,2.4-0.8h1.3v9.6H95V31h-6.3V29.6z"/>
						</g>
					</g>
					<g transform="translate(124.000000, 100.000000)">
						<path class="st4" d="M8,0h244c4.4,0,8,3.6,8,8v34c0,4.4-3.6,8-8,8H8c-4.4,0-8-3.6-8-8V8C0,3.6,3.6,0,8,0z"/>
						<g class="st2">
							<path class="st5" d="M66.5,20h1.7v4.5h4.7V20h1.7v11h-1.7v-5h-4.7v5h-1.7V20z"/>
							<path class="st5" d="M77,25.5c0-3.6,2.2-5.8,5-5.8c1.4,0,2.5,0.7,3.1,1.4l-0.9,1.1c-0.6-0.6-1.3-1-2.2-1
								c-1.9,0-3.2,1.6-3.2,4.2c0,2.6,1.2,4.2,3.2,4.2c1,0,1.8-0.4,2.4-1.2l0.9,1.1c-0.9,1-2,1.6-3.4,1.6C79.1,31.2,77,29.1,77,25.5
								z"/>
							<path class="st5" d="M87.2,20h2l2,5.6c0.3,0.7,0.5,1.5,0.7,2.2h0.1c0.3-0.8,0.5-1.5,0.7-2.2l2-5.6h2v11h-1.6v-5.5
								c0-1,0.1-2.4,0.2-3.4h-0.1l-0.9,2.5l-1.9,5.3h-1.1l-1.9-5.3l-0.9-2.5h-0.1c0.1,1,0.2,2.4,0.2,3.4V31h-1.6V20z"/>
							<path class="st5" d="M98.2,20h1.8l1.6,5.7c0.4,1.3,0.6,2.3,1,3.6h0.1c0.4-1.3,0.6-2.4,1-3.6l1.6-5.7h1.8l-3.4,11h-2.1
								L98.2,20z"/>
							<path class="st5" d="M112,20h1.7v11H112V20z"/>
							<path class="st5" d="M116.6,20h6.5v1.5h-4.8v3.1h4V26h-4v3.6h4.9V31h-6.7V20z"/>
							<path class="st5" d="M128.8,22.8h1.4l0.1,0.9h0c0.7-0.6,1.6-1.1,2.5-1.1c2.1,0,3.3,1.7,3.3,4.2c0,2.8-1.7,4.5-3.6,4.5
								c-0.7,0-1.5-0.3-2.2-0.9l0,1.4v2.7h-1.7V22.8z M134.4,26.8c0-1.7-0.6-2.8-1.9-2.8c-0.6,0-1.3,0.3-2,1v4
								c0.6,0.6,1.3,0.8,1.8,0.8C133.5,29.8,134.4,28.7,134.4,26.8z"/>
							<path class="st5" d="M138.3,22.8h1.4l0.1,1.5h0c0.6-1.1,1.5-1.7,2.3-1.7c0.4,0,0.7,0.1,0.9,0.2l-0.3,1.5
								c-0.3-0.1-0.5-0.1-0.8-0.1c-0.7,0-1.5,0.5-2,1.8V31h-1.7V22.8z"/>
							<path class="st5" d="M143.7,26.9c0-2.8,1.8-4.4,3.9-4.4c2,0,3.9,1.6,3.9,4.4c0,2.7-1.8,4.3-3.9,4.3
								C145.5,31.2,143.7,29.6,143.7,26.9z M149.7,26.9c0-1.8-0.8-2.9-2.1-2.9c-1.3,0-2.1,1.2-2.1,2.9c0,1.7,0.8,2.9,2.1,2.9
								C148.9,29.8,149.7,28.6,149.7,26.9z"/>
							<path class="st5" d="M153.5,22.8h1.4l0.1,1.2h0c0.7-0.8,1.5-1.4,2.5-1.4c1.2,0,1.9,0.6,2.3,1.5c0.8-0.9,1.6-1.5,2.7-1.5
								c1.7,0,2.5,1.2,2.5,3.3V31h-1.7v-5c0-1.4-0.5-2-1.4-2c-0.6,0-1.2,0.4-1.9,1.1V31h-1.7v-5c0-1.4-0.4-2-1.4-2
								c-0.6,0-1.2,0.4-1.9,1.1V31h-1.7V22.8z"/>
							<path class="st5" d="M167,26.9c0-2.8,1.8-4.4,3.9-4.4c2,0,3.9,1.6,3.9,4.4c0,2.7-1.8,4.3-3.9,4.3
								C168.9,31.2,167,29.6,167,26.9z M173,26.9c0-1.8-0.8-2.9-2.1-2.9c-1.3,0-2.1,1.2-2.1,2.9c0,1.7,0.8,2.9,2.1,2.9
								C172.2,29.8,173,28.6,173,26.9z"/>
							<path class="st5" d="M176.7,28.3v-4.2h-1.2v-1.3l1.3-0.1l0.2-2.3h1.5v2.3h2.1v1.4h-2.1v4.2c0,1,0.3,1.5,1.2,1.5
								c0.3,0,0.6-0.1,0.9-0.2l0.3,1.3c-0.5,0.2-1,0.3-1.6,0.3C177.4,31.2,176.7,30,176.7,28.3z"/>
							<path class="st5" d="M181.6,26.9c0-2.7,1.8-4.4,3.8-4.4c2.2,0,3.4,1.6,3.4,3.9c0,0.3,0,0.7-0.1,0.9h-5.4
								c0.1,1.6,1.1,2.5,2.5,2.5c0.7,0,1.4-0.2,2-0.6l0.6,1.1c-0.8,0.5-1.7,0.9-2.8,0.9C183.3,31.2,181.6,29.6,181.6,26.9z
								 M187.2,26.1c0-1.4-0.6-2.2-1.8-2.2c-1,0-1.9,0.8-2.1,2.2H187.2z"/>
							<path class="st5" d="M190.6,22.8h1.4l0.1,1.5h0c0.6-1.1,1.5-1.7,2.3-1.7c0.4,0,0.7,0.1,0.9,0.2l-0.3,1.5
								c-0.3-0.1-0.5-0.1-0.8-0.1c-0.7,0-1.5,0.5-2,1.8V31h-1.7V22.8z"/>
						</g>
					</g>
					<g transform="translate(496.000000, 100.000000)">
						<g id="HGF_X7">
							<path class="st6" d="M159.2,49.2V0.8H8C4,0.8,0.8,4,0.8,8v34c0,4,3.2,7.2,7.2,7.2H159.2z"/>
							<g class="st2">
								<path class="st3" d="M54.5,20h1.7v4.5h4.7V20h1.7v11h-1.7v-5h-4.7v5h-1.7V20z"/>
								<path class="st3" d="M65,25.5c0-3.6,2.2-5.8,5.1-5.8c1.6,0,2.6,0.7,3.3,1.4l-0.9,1.1c-0.5-0.6-1.2-1-2.3-1
									c-2.1,0-3.4,1.6-3.4,4.2c0,2.6,1.2,4.2,3.5,4.2c0.7,0,1.3-0.2,1.7-0.5v-2.6h-2.2v-1.4h3.8v4.8c-0.7,0.7-2,1.3-3.5,1.3
									C67.1,31.2,65,29.1,65,25.5z"/>
								<path class="st3" d="M76.1,20h6.5v1.5h-4.8v3.4h4.1v1.5h-4.1V31h-1.7V20z"/>
								<path class="st3" d="M83.8,26.1h4v1.3h-4V26.1z"/>
								<path class="st3" d="M91.4,25.3l-3-5.3h1.9l1.3,2.6c0.3,0.5,0.5,1,0.8,1.7h0.1c0.3-0.7,0.5-1.2,0.8-1.7l1.3-2.6h1.8l-3,5.4
									l3.2,5.6h-1.9l-1.5-2.7c-0.3-0.6-0.6-1.1-0.9-1.8h-0.1c-0.3,0.7-0.6,1.2-0.9,1.8L90,31h-1.8L91.4,25.3z"/>
								<path class="st3" d="M102.8,21.4h-5.2V20h7.1v1c-2.6,3.2-3,5.7-3.2,10h-1.8C100,27,100.7,24.4,102.8,21.4z"/>
							</g>
						</g>
						<g id="PA" transform="translate(159.000000, 0.000000)">
							<path class="st1" d="M0.8,0.8v48.5H92c4,0,7.2-3.2,7.2-7.2V8c0-4-3.2-7.2-7.2-7.2H0.8z"/>
							<g class="st2">
								<path class="st3" d="M41.3,22.8h1.4l0.1,0.9h0c0.7-0.6,1.6-1.1,2.5-1.1c2.1,0,3.3,1.7,3.3,4.2c0,2.8-1.7,4.5-3.6,4.5
									c-0.7,0-1.5-0.3-2.2-0.9l0,1.4v2.7h-1.7V22.8z M46.9,26.8c0-1.7-0.6-2.8-1.9-2.8c-0.6,0-1.3,0.3-2,1v4
									c0.6,0.6,1.3,0.8,1.8,0.8C46,29.8,46.9,28.7,46.9,26.8z"/>
								<path class="st3" d="M56,27.9h-3.8L51.2,31h-1.8l3.7-11h2l3.7,11h-1.8L56,27.9z M55.6,26.5L55.1,25c-0.4-1.2-0.7-2.4-1-3.7
									H54c-0.3,1.3-0.7,2.5-1,3.7l-0.5,1.5H55.6z"/>
							</g>
						</g>
					</g>
					<g id="KAN" transform="translate(551.000000, 0.000000)">
						<path class="st1" d="M8.8,0.8h132.5c4.4,0,8,3.6,8,8v32.5c0,4.4-3.6,8-8,8H8.8c-4.4,0-8-3.6-8-8V8.8C0.8,4.3,4.3,0.8,8.8,0.8z
							"/>
						<g id="Text" transform="translate(58.000000, 14.000000)">
							<g class="st2">
								<path class="st3" d="M29.9,6.5h0.9l0.1,1h0c0.4-0.7,1-1.1,1.6-1.1c0.3,0,0.4,0,0.6,0.1l-0.2,1c-0.2-0.1-0.3-0.1-0.6-0.1
									c-0.4,0-1,0.3-1.3,1.2V12h-1.1V6.5z"/>
							</g>
							<g class="st2">
								<path class="st3" d="M1.5,6h1.7v5.2h0L7.4,6h1.9L6,10.2l4,6.8H8l-3.1-5.4l-1.7,2.1V17H1.5V6z"/>
								<path class="st3" d="M10.8,14.8c0-1.8,1.5-2.7,4.9-3.1c0-1-0.4-1.8-1.6-1.8c-0.9,0-1.7,0.4-2.4,0.8l-0.6-1.2
									c0.9-0.5,2-1.1,3.3-1.1c2.1,0,3,1.3,3,3.5v5H16l-0.2-0.9h0c-0.8,0.6-1.6,1.1-2.6,1.1C11.8,17.2,10.8,16.3,10.8,14.8z
									 M15.7,14.9v-2c-2.4,0.3-3.3,0.9-3.3,1.8c0,0.8,0.6,1.1,1.3,1.1C14.4,15.8,15,15.5,15.7,14.9z"/>
								<path class="st3" d="M19.9,8.8h1.4l0.1,1.1h0c0.8-0.7,1.6-1.4,2.7-1.4c1.8,0,2.5,1.2,2.5,3.3V17H25v-5c0-1.4-0.4-2-1.4-2
									c-0.8,0-1.3,0.4-2,1.1V17h-1.7V8.8z"/>
							</g>
						</g>
					</g>
					<g transform="translate(380.000000, 117.000000)">
						<rect y="6" class="st4" width="100" height="3"/>
						<circle class="st4" cx="98.5" cy="7.5" r="7.5"/>
						<circle class="st4" cx="34.5" cy="7.5" r="5.5"/>
						<circle class="st4" cx="65.5" cy="7.5" r="5.5"/>
					</g>
					<path class="st4" d="M340,25h200c0.6,0,1,0.4,1,1l0,0c0,0.6-0.4,1-1,1H340c-0.6,0-1-0.4-1-1l0,0C339,25.4,339.4,25,340,25z"/>
					<g id="결과" transform="translate(308.000000, 288.000000)">
						<g transform="translate(0.000000, 74.000000)">
							<g>
								<circle class="st7" cx="35" cy="35" r="35"/>
								<g id="text" transform="translate(15.000000, 26.000000)">
									<g class="st2">
										<path class="st3" d="M1.3,5.4h1.5v3.9h4.1V5.4h1.5V15H6.9v-4.4H2.8V15H1.3V5.4z"/>
										<path class="st3" d="M10.9,5.4h5.7v1.3h-4.2v2.9h3.5v1.3h-3.5V15h-1.5V5.4z"/>
										<path class="st3" d="M17.6,10.2c0-3.1,1.9-5,4.5-5c1.4,0,2.3,0.6,2.8,1.2l-0.8,1c-0.5-0.5-1.1-0.9-2-0.9
											c-1.8,0-3,1.4-3,3.6c0,2.3,1.1,3.7,3,3.7c0.6,0,1.2-0.2,1.5-0.5v-2.2h-1.9V9.9H25v4.1c-0.6,0.6-1.7,1.1-3,1.1
											C19.4,15.2,17.6,13.4,17.6,10.2z"/>
									</g>
									<g class="st2">
										<path class="st3" d="M30.2,10.9h-2.8v-0.8h3.8v0.6c-1.4,1.7-1.6,3-1.7,5.3h-0.9C28.6,13.8,29,12.5,30.2,10.9z"/>
										<path class="st3" d="M31.9,15.5c1.7-1.5,2.6-2.7,2.6-3.6c0-0.6-0.3-1.1-1-1.1c-0.5,0-0.8,0.3-1.2,0.7l-0.5-0.5
											c0.5-0.5,1-0.9,1.8-0.9c1.1,0,1.8,0.7,1.8,1.8c0,1.1-0.9,2.3-2.2,3.5c0.3,0,0.7-0.1,1-0.1h1.5V16h-3.8V15.5z"/>
										<path class="st3" d="M36.3,15.3l0.4-0.6c0.3,0.4,0.8,0.6,1.4,0.6c0.7,0,1.1-0.4,1.1-1c0-0.7-0.4-1.1-1.7-1.1v-0.7
											c1.2,0,1.5-0.4,1.5-1c0-0.5-0.3-0.8-0.9-0.9c-0.5,0-0.8,0.2-1.2,0.6l-0.5-0.6c0.5-0.4,1-0.7,1.7-0.7
											c1.1,0,1.8,0.5,1.8,1.5c0,0.7-0.4,1.2-1,1.4v0c0.7,0.2,1.2,0.7,1.2,1.5c0,1.1-0.9,1.7-2,1.7
											C37.3,16.1,36.7,15.7,36.3,15.3z"/>
									</g>
								</g>
							</g>
							<g transform="translate(184.000000, 0.000000)">
								<circle class="st7" cx="35" cy="35" r="35"/>
								<g transform="translate(15.000000, 26.000000)">
									<g class="st2">
										<path class="st3" d="M1.3,5.4h1.5v3.9h4.1V5.4h1.5V15H6.9v-4.4H2.8V15H1.3V5.4z"/>
										<path class="st3" d="M10.4,10.2c0-3.1,1.9-5,4.5-5c1.4,0,2.3,0.6,2.8,1.2l-0.8,1c-0.5-0.5-1.1-0.9-2-0.9
											c-1.8,0-3,1.4-3,3.6c0,2.3,1.1,3.7,3,3.7c0.6,0,1.2-0.2,1.5-0.5v-2.2h-1.9V9.9h3.3v4.1c-0.6,0.6-1.7,1.1-3,1.1
											C12.2,15.2,10.4,13.4,10.4,10.2z"/>
										<path class="st3" d="M20,5.4h5.7v1.3h-4.2v2.9H25v1.3h-3.5V15H20V5.4z"/>
									</g>
									<g class="st2">
										<path class="st3" d="M30.2,10.9h-2.8v-0.8h3.8v0.6c-1.4,1.7-1.6,3-1.7,5.3h-0.9C28.6,13.8,29,12.5,30.2,10.9z"/>
										<path class="st3" d="M31.9,15.5c1.7-1.5,2.6-2.7,2.6-3.6c0-0.6-0.3-1.1-1-1.1c-0.5,0-0.8,0.3-1.2,0.7l-0.5-0.5
											c0.5-0.5,1-0.9,1.8-0.9c1.1,0,1.8,0.7,1.8,1.8c0,1.1-0.9,2.3-2.2,3.5c0.3,0,0.7-0.1,1-0.1h1.5V16h-3.8V15.5z"/>
										<path class="st3" d="M36.5,14.5c0-0.8,0.5-1.3,1.1-1.6v0c-0.4-0.3-0.8-0.8-0.8-1.4c0-0.9,0.7-1.5,1.7-1.5
											c1,0,1.7,0.6,1.7,1.6c0,0.6-0.4,1.1-0.8,1.4v0c0.5,0.3,1,0.8,1,1.6c0,0.9-0.8,1.5-1.9,1.5C37.3,16.1,36.5,15.4,36.5,14.5z
											 M39.4,14.5c0-0.7-0.6-1-1.4-1.3c-0.4,0.3-0.7,0.7-0.7,1.2c0,0.6,0.5,1,1.1,1C39,15.4,39.4,15.1,39.4,14.5z M39.3,11.6
											c0-0.5-0.3-1-0.9-1c-0.5,0-0.8,0.3-0.8,0.9c0,0.6,0.6,0.9,1.2,1.2C39.1,12.4,39.3,12,39.3,11.6z"/>
									</g>
								</g>
							</g>
						</g>
						<g id="splice" transform="translate(28.000000, 0.000000)">
							
								<g id="arrow" transform="translate(32.000000, 32.137931) rotate(-20.000000) translate(-32.000000, -32.137931) translate(7.000000, 8.000000)">
								<path id="Line" class="st8" d="M5.1,43.6L49.3,0.4"/>
								<polyline id="Stroke-1" class="st9" points="14.2,43.4 4.9,43.8 5.3,34.7 								"/>
							</g>
							
								<g transform="translate(166.000000, 32.140000) rotate(20.000000) translate(-166.000000, -32.140000) translate(141.000000, 8.000000)">
								<path class="st8" d="M44.9,43.6L0.7,0.4"/>
								<polyline class="st9" points="35.8,43.4 45.1,43.8 44.7,34.7 								"/>
							</g>
						</g>
						<g class="st2">
							<path d="M100.8,25.5h-3.1L97,28h-1.4l2.9-8.8h1.6L103,28h-1.5L100.8,25.5z M100.5,24.4l-0.3-1.2c-0.3-1-0.6-1.9-0.8-2.9h0
								c-0.3,1-0.5,2-0.8,2.9L98,24.4H100.5z"/>
							<path d="M104.1,26.5v-8h1.4v8.1c0,0.4,0.2,0.5,0.3,0.5c0.1,0,0.1,0,0.2,0l0.2,1c-0.2,0.1-0.4,0.1-0.7,0.1
								C104.4,28.2,104.1,27.5,104.1,26.5z"/>
							<path d="M107.8,25.8v-3.3h-1v-1l1-0.1l0.2-1.8h1.2v1.8h1.7v1.1h-1.7v3.3c0,0.8,0.3,1.2,1,1.2c0.2,0,0.5-0.1,0.7-0.2l0.3,1
								c-0.4,0.1-0.8,0.2-1.3,0.2C108.4,28.2,107.8,27.2,107.8,25.8z"/>
							<path d="M111.7,24.7c0-2.1,1.5-3.5,3-3.5c1.8,0,2.7,1.3,2.7,3.1c0,0.3,0,0.5-0.1,0.7h-4.3c0.1,1.3,0.9,2,2,2
								c0.6,0,1.1-0.2,1.6-0.5l0.5,0.9c-0.6,0.4-1.4,0.7-2.2,0.7C113.1,28.2,111.7,26.9,111.7,24.7z M116.2,24.1
								c0-1.1-0.5-1.8-1.5-1.8c-0.8,0-1.6,0.6-1.7,1.8H116.2z"/>
							<path d="M119,21.4h1.1l0.1,1.2h0c0.5-0.9,1.2-1.4,1.9-1.4c0.3,0,0.5,0,0.7,0.1l-0.3,1.2c-0.2-0.1-0.4-0.1-0.7-0.1
								c-0.5,0-1.2,0.4-1.6,1.4V28H119V21.4z"/>
							<path d="M123.9,21.4h1.1l0.1,0.9h0c0.6-0.6,1.3-1.1,2.2-1.1c1.4,0,2,0.9,2,2.6V28H128v-4c0-1.1-0.3-1.6-1.1-1.6
								c-0.6,0-1,0.3-1.6,0.9V28h-1.4V21.4z"/>
							<path d="M131,26.2c0-1.4,1.2-2.1,3.9-2.4c0-0.8-0.3-1.4-1.3-1.4c-0.7,0-1.3,0.3-1.9,0.7l-0.5-0.9c0.7-0.4,1.6-0.9,2.7-0.9
								c1.6,0,2.4,1,2.4,2.8v4h-1.1l-0.1-0.8h0c-0.6,0.5-1.3,0.9-2.1,0.9C131.8,28.2,131,27.4,131,26.2z M134.9,26.3v-1.6
								c-2,0.2-2.6,0.7-2.6,1.5c0,0.6,0.4,0.9,1,0.9C133.9,27.1,134.4,26.8,134.9,26.3z"/>
							<path d="M138.3,25.8v-3.3h-1v-1l1-0.1l0.2-1.8h1.2v1.8h1.7v1.1h-1.7v3.3c0,0.8,0.3,1.2,1,1.2c0.2,0,0.5-0.1,0.7-0.2l0.3,1
								c-0.4,0.1-0.8,0.2-1.3,0.2C138.8,28.2,138.3,27.2,138.3,25.8z"/>
							<path d="M142.6,19.4c0-0.5,0.4-0.8,0.9-0.8s0.9,0.3,0.9,0.8c0,0.5-0.4,0.8-0.9,0.8S142.6,19.8,142.6,19.4z M142.8,21.4h1.4
								V28h-1.4V21.4z"/>
							<path d="M145.4,21.4h1.4l1.1,3.6c0.2,0.6,0.4,1.3,0.6,2h0c0.2-0.6,0.4-1.3,0.6-2l1.1-3.6h1.3l-2.3,6.6h-1.6L145.4,21.4z"/>
							<path d="M152.2,24.7c0-2.1,1.5-3.5,3-3.5c1.8,0,2.7,1.3,2.7,3.1c0,0.3,0,0.5-0.1,0.7h-4.3c0.1,1.3,0.9,2,2,2
								c0.6,0,1.1-0.2,1.6-0.5l0.5,0.9c-0.6,0.4-1.4,0.7-2.2,0.7C153.7,28.2,152.2,26.9,152.2,24.7z M156.8,24.1
								c0-1.1-0.5-1.8-1.5-1.8c-0.8,0-1.6,0.6-1.7,1.8H156.8z"/>
						</g>
						<text transform="matrix(1 0 0 1 158.4511 28)" class="st10 st11"> </text>
						<g class="st2">
							<path d="M105.1,45.2l0.6-0.9c0.6,0.5,1.2,0.8,1.9,0.8c0.8,0,1.2-0.4,1.2-0.9c0-0.6-0.7-0.9-1.5-1.1c-0.9-0.3-1.9-0.8-1.9-1.9
								c0-1.1,0.9-1.9,2.3-1.9c0.9,0,1.6,0.4,2.1,0.8l-0.6,0.9c-0.5-0.3-0.9-0.6-1.5-0.6c-0.7,0-1.1,0.4-1.1,0.8
								c0,0.6,0.7,0.8,1.4,1c0.9,0.3,1.9,0.8,1.9,2c0,1.1-0.9,2-2.5,2C106.7,46.2,105.8,45.8,105.1,45.2z"/>
							<path d="M111.6,39.4h1.1l0.1,0.7h0c0.6-0.5,1.3-0.9,2-0.9c1.7,0,2.6,1.3,2.6,3.4c0,2.3-1.4,3.6-2.8,3.6
								c-0.6,0-1.2-0.3-1.7-0.7l0,1.1v2.1h-1.4V39.4z M116.1,42.6c0-1.4-0.4-2.2-1.5-2.2c-0.5,0-1,0.3-1.6,0.8v3.2
								c0.5,0.4,1,0.6,1.4,0.6C115.4,45,116.1,44.2,116.1,42.6z"/>
							<path d="M119.2,44.5v-8h1.4v8.1c0,0.4,0.2,0.5,0.3,0.5c0.1,0,0.1,0,0.2,0l0.2,1c-0.2,0.1-0.4,0.1-0.7,0.1
								C119.5,46.2,119.2,45.5,119.2,44.5z"/>
							<path d="M122.5,37.4c0-0.5,0.4-0.8,0.9-0.8s0.9,0.3,0.9,0.8c0,0.5-0.4,0.8-0.9,0.8S122.5,37.8,122.5,37.4z M122.7,39.4h1.4
								V46h-1.4V39.4z"/>
							<path d="M125.7,42.7c0-2.2,1.5-3.5,3.3-3.5c0.8,0,1.5,0.3,1.9,0.8l-0.7,0.9c-0.4-0.3-0.7-0.5-1.2-0.5c-1.1,0-1.9,0.9-1.9,2.3
								c0,1.4,0.8,2.3,1.9,2.3c0.6,0,1-0.3,1.4-0.6l0.6,0.9c-0.6,0.5-1.4,0.8-2.1,0.8C127.1,46.2,125.7,44.9,125.7,42.7z"/>
							<path d="M132.2,37.4c0-0.5,0.4-0.8,0.9-0.8s0.9,0.3,0.9,0.8c0,0.5-0.4,0.8-0.9,0.8S132.2,37.8,132.2,37.4z M132.4,39.4h1.4
								V46h-1.4V39.4z"/>
							<path d="M135.8,39.4h1.1l0.1,0.9h0c0.6-0.6,1.3-1.1,2.2-1.1c1.4,0,2,0.9,2,2.6V46h-1.4v-4c0-1.1-0.3-1.6-1.1-1.6
								c-0.6,0-1,0.3-1.6,0.9V46h-1.4V39.4z"/>
							<path d="M142.8,47.2c0-0.6,0.3-1.1,1-1.4v-0.1c-0.3-0.2-0.6-0.6-0.6-1.1c0-0.5,0.4-1,0.7-1.2v0c-0.4-0.3-0.9-1-0.9-1.8
								c0-1.5,1.2-2.4,2.6-2.4c0.4,0,0.7,0.1,1,0.2h2.3v1h-1.3c0.3,0.3,0.4,0.7,0.4,1.2c0,1.4-1.1,2.3-2.5,2.3
								c-0.3,0-0.6-0.1-0.9-0.2c-0.2,0.2-0.4,0.4-0.4,0.7c0,0.4,0.3,0.6,1.1,0.6h1.2c1.6,0,2.4,0.5,2.4,1.6c0,1.3-1.3,2.3-3.5,2.3
								C144,49,142.8,48.4,142.8,47.2z M147.7,46.9c0-0.6-0.4-0.7-1.2-0.7h-1c-0.3,0-0.6,0-0.9-0.1c-0.4,0.3-0.6,0.6-0.6,1
								c0,0.6,0.7,1,1.8,1C146.9,48.1,147.7,47.5,147.7,46.9z M146.9,41.6c0-0.9-0.6-1.4-1.2-1.4s-1.2,0.5-1.2,1.4
								c0,0.9,0.6,1.4,1.2,1.4S146.9,42.5,146.9,41.6z"/>
						</g>
					</g>
				</g>
				<g transform="translate(917.000000, 0.000000)">
					<g id="second" transform="translate(0.000000, 35.000000)">
						<g id="나열">
							<g id="Group" transform="translate(0.000000, 185.000000)">
								<g class="st2">
									<path d="M15.2,5.2h5.2v1.2h-3.8V9h3.3v1.2h-3.3V14h-1.4V5.2z"/>
									<path d="M21.2,10.7c0-2.2,1.5-3.5,3.1-3.5s3.1,1.3,3.1,3.5c0,2.2-1.5,3.4-3.1,3.4S21.2,12.9,21.2,10.7z M26,10.7
										c0-1.4-0.6-2.3-1.7-2.3c-1,0-1.7,0.9-1.7,2.3c0,1.4,0.6,2.3,1.7,2.3C25.3,13,26,12.1,26,10.7z"/>
									<path d="M29,7.4h1.1l0.1,1.2h0c0.5-0.9,1.2-1.4,1.9-1.4c0.3,0,0.5,0,0.7,0.1l-0.3,1.2c-0.2-0.1-0.4-0.1-0.7-0.1
										c-0.5,0-1.2,0.4-1.6,1.4V14H29V7.4z"/>
									<path d="M33.9,7.4H35l0.1,0.9h0c0.6-0.6,1.2-1.1,2-1.1c1,0,1.5,0.5,1.8,1.2c0.6-0.7,1.3-1.2,2.1-1.2c1.4,0,2,0.9,2,2.6V14
										h-1.4v-4c0-1.1-0.4-1.6-1.1-1.6c-0.5,0-0.9,0.3-1.5,0.9V14h-1.4v-4c0-1.1-0.3-1.6-1.1-1.6c-0.4,0-0.9,0.3-1.5,0.9V14h-1.4
										V7.4z"/>
									<path d="M45.1,11.6V7.4h1.4v4c0,1.1,0.3,1.6,1.1,1.6c0.6,0,1-0.3,1.6-1V7.4h1.4V14h-1.1l-0.1-1h0c-0.6,0.7-1.2,1.2-2.2,1.2
										C45.7,14.2,45.1,13.2,45.1,11.6z"/>
									<path d="M52.7,12.5v-8H54v8.1c0,0.4,0.2,0.5,0.3,0.5c0.1,0,0.1,0,0.2,0l0.2,1c-0.2,0.1-0.4,0.1-0.7,0.1
										C53,14.2,52.7,13.5,52.7,12.5z"/>
									<path d="M55.8,12.2c0-1.4,1.2-2.1,3.9-2.4c0-0.8-0.3-1.4-1.3-1.4c-0.7,0-1.3,0.3-1.9,0.7l-0.5-0.9c0.7-0.4,1.6-0.9,2.7-0.9
										c1.6,0,2.4,1,2.4,2.8v4H60l-0.1-0.8h0c-0.6,0.5-1.3,0.9-2.1,0.9C56.6,14.2,55.8,13.4,55.8,12.2z M59.8,12.3v-1.6
										c-2,0.2-2.6,0.7-2.6,1.5c0,0.6,0.4,0.9,1,0.9C58.8,13.1,59.2,12.8,59.8,12.3z"/>
									<path d="M63.1,11.8V8.5h-1v-1l1-0.1l0.2-1.8h1.2v1.8h1.7v1.1h-1.7v3.3c0,0.8,0.3,1.2,1,1.2c0.2,0,0.5-0.1,0.7-0.2l0.3,1
										c-0.4,0.1-0.8,0.2-1.3,0.2C63.7,14.2,63.1,13.2,63.1,11.8z"/>
									<path d="M67.5,5.4c0-0.5,0.4-0.8,0.9-0.8s0.9,0.3,0.9,0.8c0,0.5-0.4,0.8-0.9,0.8S67.5,5.8,67.5,5.4z M67.7,7.4H69V14h-1.4
										V7.4z"/>
									<path d="M70.7,10.7c0-2.2,1.5-3.5,3.1-3.5c1.6,0,3.1,1.3,3.1,3.5c0,2.2-1.5,3.4-3.1,3.4C72.1,14.2,70.7,12.9,70.7,10.7z
										 M75.4,10.7c0-1.4-0.6-2.3-1.7-2.3c-1,0-1.7,0.9-1.7,2.3c0,1.4,0.6,2.3,1.7,2.3C74.8,13,75.4,12.1,75.4,10.7z"/>
									<path d="M78.5,7.4h1.1l0.1,0.9h0c0.6-0.6,1.3-1.1,2.2-1.1c1.4,0,2,0.9,2,2.6V14h-1.4v-4c0-1.1-0.3-1.6-1.1-1.6
										c-0.6,0-1,0.3-1.6,0.9V14h-1.4V7.4z"/>
								</g>
								<path class="st4" d="M2,7L2,7c1.1,0,2,0.9,2,2l0,0c0,1.1-0.9,2-2,2l0,0c-1.1,0-2-0.9-2-2l0,0C0,7.9,0.9,7,2,7z"/>
							</g>
							<g id="Group-4" transform="translate(0.000000, 96.000000)">
								<g class="st2">
									<path d="M15.2,5.2h5.2v1.2h-3.8v2.5h3.2V10h-3.2v2.9h4V14h-5.3V5.2z"/>
									<path d="M23,10.6l-2-3.2h1.5l0.8,1.3c0.2,0.4,0.4,0.7,0.6,1.1h0c0.2-0.4,0.4-0.7,0.6-1.1l0.7-1.3h1.4l-2,3.3l2.1,3.3h-1.5
										l-0.9-1.4c-0.2-0.4-0.4-0.8-0.7-1.2h-0.1c-0.2,0.4-0.4,0.8-0.6,1.2L22.4,14h-1.5L23,10.6z"/>
									<path d="M28.1,7.4h1.1l0.1,0.7h0c0.6-0.5,1.3-0.9,2-0.9c1.7,0,2.6,1.3,2.6,3.4c0,2.3-1.4,3.6-2.8,3.6
										c-0.6,0-1.2-0.3-1.7-0.7l0,1.1v2.1h-1.4V7.4z M32.6,10.6c0-1.4-0.4-2.2-1.5-2.2c-0.5,0-1,0.3-1.6,0.8v3.2
										c0.5,0.4,1,0.6,1.4,0.6C31.9,13,32.6,12.2,32.6,10.6z"/>
									<path d="M35.6,7.4h1.1l0.1,1.2h0c0.5-0.9,1.2-1.4,1.9-1.4c0.3,0,0.5,0,0.7,0.1l-0.3,1.2c-0.2-0.1-0.4-0.1-0.7-0.1
										c-0.5,0-1.2,0.4-1.6,1.4V14h-1.4V7.4z"/>
									<path d="M40,10.7c0-2.1,1.5-3.5,3-3.5c1.8,0,2.7,1.3,2.7,3.1c0,0.3,0,0.5-0.1,0.7h-4.3c0.1,1.3,0.9,2,2,2
										c0.6,0,1.1-0.2,1.6-0.5l0.5,0.9c-0.6,0.4-1.4,0.7-2.2,0.7C41.4,14.2,40,12.9,40,10.7z M44.5,10.1c0-1.1-0.5-1.8-1.5-1.8
										c-0.8,0-1.6,0.6-1.7,1.8H44.5z"/>
									<path d="M46.5,13.2l0.6-0.9c0.6,0.5,1.2,0.8,1.9,0.8c0.8,0,1.2-0.4,1.2-0.9c0-0.6-0.7-0.9-1.5-1.1
										c-0.9-0.3-1.9-0.8-1.9-1.9c0-1.1,0.9-1.9,2.3-1.9c0.9,0,1.6,0.4,2.1,0.8l-0.6,0.9c-0.5-0.3-0.9-0.6-1.5-0.6
										c-0.7,0-1.1,0.4-1.1,0.8c0,0.6,0.7,0.8,1.4,1c0.9,0.3,1.9,0.8,1.9,2c0,1.1-0.9,2-2.5,2C48.1,14.2,47.1,13.8,46.5,13.2z"/>
									<path d="M52.3,13.2l0.6-0.9c0.6,0.5,1.2,0.8,1.9,0.8c0.8,0,1.2-0.4,1.2-0.9c0-0.6-0.7-0.9-1.5-1.1
										c-0.9-0.3-1.9-0.8-1.9-1.9c0-1.1,0.9-1.9,2.3-1.9c0.9,0,1.6,0.4,2.1,0.8l-0.6,0.9C56,8.5,55.5,8.3,55,8.3
										c-0.7,0-1.1,0.4-1.1,0.8c0,0.6,0.7,0.8,1.4,1c0.9,0.3,1.9,0.8,1.9,2c0,1.1-0.9,2-2.5,2C53.8,14.2,52.9,13.8,52.3,13.2z"/>
									<path d="M58.5,5.4c0-0.5,0.4-0.8,0.9-0.8s0.9,0.3,0.9,0.8c0,0.5-0.4,0.8-0.9,0.8S58.5,5.8,58.5,5.4z M58.7,7.4h1.4V14h-1.4
										V7.4z"/>
									<path d="M61.7,10.7c0-2.2,1.5-3.5,3.1-3.5c1.6,0,3.1,1.3,3.1,3.5c0,2.2-1.5,3.4-3.1,3.4C63.2,14.2,61.7,12.9,61.7,10.7z
										 M66.5,10.7c0-1.4-0.6-2.3-1.7-2.3c-1,0-1.7,0.9-1.7,2.3c0,1.4,0.6,2.3,1.7,2.3C65.8,13,66.5,12.1,66.5,10.7z"/>
									<path d="M69.5,7.4h1.1l0.1,0.9h0c0.6-0.6,1.3-1.1,2.2-1.1c1.4,0,2,0.9,2,2.6V14h-1.4v-4c0-1.1-0.3-1.6-1.1-1.6
										c-0.6,0-1,0.3-1.6,0.9V14h-1.4V7.4z"/>
									<path d="M79.7,12.5v-8h1.4v8.1c0,0.4,0.2,0.5,0.3,0.5c0.1,0,0.1,0,0.2,0l0.2,1c-0.2,0.1-0.4,0.1-0.7,0.1
										C80.1,14.2,79.7,13.5,79.7,12.5z"/>
									<path d="M82.8,10.7c0-2.1,1.5-3.5,3-3.5c1.8,0,2.7,1.3,2.7,3.1c0,0.3,0,0.5-0.1,0.7h-4.3c0.1,1.3,0.9,2,2,2
										c0.6,0,1.1-0.2,1.6-0.5l0.5,0.9c-0.6,0.4-1.4,0.7-2.2,0.7C84.3,14.2,82.8,12.9,82.8,10.7z M87.3,10.1
										c0-1.1-0.5-1.8-1.5-1.8c-0.8,0-1.6,0.6-1.7,1.8H87.3z"/>
									<path d="M89.2,7.4h1.4l1.1,3.6c0.2,0.6,0.4,1.3,0.6,2h0c0.2-0.6,0.4-1.3,0.6-2l1.1-3.6h1.3L93.1,14h-1.6L89.2,7.4z"/>
									<path d="M96.1,10.7c0-2.1,1.5-3.5,3-3.5c1.8,0,2.7,1.3,2.7,3.1c0,0.3,0,0.5-0.1,0.7h-4.3c0.1,1.3,0.9,2,2,2
										c0.6,0,1.1-0.2,1.6-0.5l0.5,0.9c-0.6,0.4-1.4,0.7-2.2,0.7C97.5,14.2,96.1,12.9,96.1,10.7z M100.6,10.1
										c0-1.1-0.5-1.8-1.5-1.8c-0.8,0-1.6,0.6-1.7,1.8H100.6z"/>
									<path d="M103.3,12.5v-8h1.4v8.1c0,0.4,0.2,0.5,0.3,0.5c0.1,0,0.1,0,0.2,0l0.2,1c-0.2,0.1-0.4,0.1-0.7,0.1
										C103.7,14.2,103.3,13.5,103.3,12.5z"/>
									<path d="M109.4,8.5c0-0.6,0.4-1,0.9-1s0.9,0.4,0.9,1c0,0.6-0.4,1-0.9,1S109.4,9,109.4,8.5z M109.4,13.2c0-0.6,0.4-1,0.9-1
										s0.9,0.4,0.9,1s-0.4,1-0.9,1S109.4,13.8,109.4,13.2z"/>
								</g>
								<path class="st4" d="M2,7L2,7c1.1,0,2,0.9,2,2l0,0c0,1.1-0.9,2-2,2l0,0c-1.1,0-2-0.9-2-2l0,0C0,7.9,0.9,7,2,7z"/>
							</g>
							<g id="Group-3" transform="translate(0.000000, 48.000000)">
								<g class="st2">
									<path d="M17,6.3h-2.6V5.2H21v1.2h-2.6V14H17V6.3z"/>
									<path d="M21.2,7.4h1.4l0.9,3.6c0.1,0.6,0.2,1.2,0.4,1.9h0c0.1-0.6,0.3-1.2,0.4-1.9l0.9-3.6h1.3l0.9,3.6
										c0.2,0.6,0.3,1.2,0.4,1.9h0c0.1-0.6,0.2-1.2,0.4-1.9l0.9-3.6h1.3L28.8,14h-1.7l-0.8-3.3c-0.2-0.6-0.3-1.2-0.4-1.9h-0.1
										c-0.1,0.7-0.3,1.3-0.4,1.9L24.6,14H23L21.2,7.4z"/>
									<path d="M31.3,10.7c0-2.2,1.5-3.5,3.1-3.5s3.1,1.3,3.1,3.5c0,2.2-1.5,3.4-3.1,3.4S31.3,12.9,31.3,10.7z M36.1,10.7
										c0-1.4-0.6-2.3-1.7-2.3c-1,0-1.7,0.9-1.7,2.3c0,1.4,0.6,2.3,1.7,2.3C35.5,13,36.1,12.1,36.1,10.7z"/>
									<path d="M41.7,5.4c0-0.5,0.4-0.8,0.9-0.8s0.9,0.3,0.9,0.8c0,0.5-0.4,0.8-0.9,0.8S41.7,5.8,41.7,5.4z M41.9,7.4h1.4V14h-1.4
										V7.4z"/>
									<path d="M44.6,13.2l0.6-0.9c0.6,0.5,1.2,0.8,1.9,0.8c0.8,0,1.2-0.4,1.2-0.9c0-0.6-0.7-0.9-1.5-1.1C46,10.8,45,10.3,45,9.2
										c0-1.1,0.9-1.9,2.3-1.9c0.9,0,1.6,0.4,2.1,0.8l-0.6,0.9c-0.5-0.3-0.9-0.6-1.5-0.6c-0.7,0-1.1,0.4-1.1,0.8
										c0,0.6,0.7,0.8,1.4,1c0.9,0.3,1.9,0.8,1.9,2c0,1.1-0.9,2-2.5,2C46.2,14.2,45.3,13.8,44.6,13.2z"/>
									<path d="M50.6,10.7c0-2.2,1.5-3.5,3.1-3.5c1.6,0,3.1,1.3,3.1,3.5c0,2.2-1.5,3.4-3.1,3.4C52.1,14.2,50.6,12.9,50.6,10.7z
										 M55.4,10.7c0-1.4-0.6-2.3-1.7-2.3c-1,0-1.7,0.9-1.7,2.3c0,1.4,0.6,2.3,1.7,2.3C54.8,13,55.4,12.1,55.4,10.7z"/>
									<path d="M61.6,5.5c-0.2-0.1-0.5-0.2-0.7-0.2c-0.6,0-0.9,0.4-0.9,1.2v0.8h1.3v1.1H60V14h-1.4V8.5h-0.9v-1l0.9-0.1V6.6
										c0-1.4,0.6-2.3,2.1-2.3c0.4,0,0.9,0.1,1.2,0.2L61.6,5.5z"/>
									<path d="M62,10.7c0-2.2,1.5-3.5,3.1-3.5c1.6,0,3.1,1.3,3.1,3.5c0,2.2-1.5,3.4-3.1,3.4C63.4,14.2,62,12.9,62,10.7z
										 M66.7,10.7c0-1.4-0.6-2.3-1.7-2.3c-1,0-1.7,0.9-1.7,2.3c0,1.4,0.6,2.3,1.7,2.3C66.1,13,66.7,12.1,66.7,10.7z"/>
									<path d="M69.8,7.4h1.1L71,8.6h0c0.5-0.9,1.2-1.4,1.9-1.4c0.3,0,0.5,0,0.7,0.1l-0.3,1.2c-0.2-0.1-0.4-0.1-0.7-0.1
										c-0.5,0-1.2,0.4-1.6,1.4V14h-1.4V7.4z"/>
									<path d="M74.7,7.4h1.1l0.1,0.9h0c0.6-0.6,1.2-1.1,2-1.1c1,0,1.5,0.5,1.8,1.2c0.6-0.7,1.3-1.2,2.1-1.2c1.4,0,2,0.9,2,2.6V14
										h-1.4v-4c0-1.1-0.4-1.6-1.1-1.6c-0.5,0-0.9,0.3-1.5,0.9V14h-1.4v-4c0-1.1-0.3-1.6-1.1-1.6c-0.4,0-0.9,0.3-1.5,0.9V14h-1.4
										V7.4z"/>
									<path d="M85.3,13.2l0.6-0.9c0.6,0.5,1.2,0.8,1.9,0.8c0.8,0,1.2-0.4,1.2-0.9c0-0.6-0.7-0.9-1.5-1.1
										c-0.9-0.3-1.9-0.8-1.9-1.9c0-1.1,0.9-1.9,2.3-1.9c0.9,0,1.6,0.4,2.1,0.8l-0.6,0.9C89,8.5,88.6,8.3,88,8.3
										c-0.7,0-1.1,0.4-1.1,0.8c0,0.6,0.7,0.8,1.4,1c0.9,0.3,1.9,0.8,1.9,2c0,1.1-0.9,2-2.5,2C86.9,14.2,85.9,13.8,85.3,13.2z"/>
									<path d="M94.3,8.5c0-0.6,0.4-1,0.9-1s0.9,0.4,0.9,1c0,0.6-0.4,1-0.9,1S94.3,9,94.3,8.5z M94.3,13.2c0-0.6,0.4-1,0.9-1
										s0.9,0.4,0.9,1s-0.4,1-0.9,1S94.3,13.8,94.3,13.2z"/>
								</g>
								<path class="st4" d="M2,7L2,7c1.1,0,2,0.9,2,2l0,0c0,1.1-0.9,2-2,2l0,0c-1.1,0-2-0.9-2-2l0,0C0,7.9,0.9,7,2,7z"/>
							</g>
							<g id="Group-2">
								<g class="st2">
									<path d="M17,6.3h-2.6V5.2H21v1.2h-2.6V14H17V6.3z"/>
									<path d="M22.4,4.4h1.4V7l0,1.3c0.6-0.6,1.2-1,2.1-1c1.4,0,2,0.9,2,2.6V14h-1.4v-4c0-1.1-0.3-1.6-1.1-1.6
										c-0.6,0-1,0.3-1.6,0.9V14h-1.4V4.4z"/>
									<path d="M29.3,10.7c0-2.1,1.5-3.5,3-3.5c1.8,0,2.7,1.3,2.7,3.1c0,0.3,0,0.5-0.1,0.7h-4.3c0.1,1.3,0.9,2,2,2
										c0.6,0,1.1-0.2,1.6-0.5l0.5,0.9c-0.6,0.4-1.4,0.7-2.2,0.7C30.8,14.2,29.3,12.9,29.3,10.7z M33.9,10.1
										c0-1.1-0.5-1.8-1.5-1.8c-0.8,0-1.6,0.6-1.7,1.8H33.9z"/>
									<path d="M36.6,7.4h1.1l0.1,1.2h0c0.5-0.9,1.2-1.4,1.9-1.4c0.3,0,0.5,0,0.7,0.1l-0.3,1.2c-0.2-0.1-0.4-0.1-0.7-0.1
										c-0.5,0-1.2,0.4-1.6,1.4V14h-1.4V7.4z"/>
									<path d="M40.8,12.2c0-1.4,1.2-2.1,3.9-2.4c0-0.8-0.3-1.4-1.3-1.4c-0.7,0-1.3,0.3-1.9,0.7L41,8.1c0.7-0.4,1.6-0.9,2.7-0.9
										c1.6,0,2.4,1,2.4,2.8v4H45l-0.1-0.8h0c-0.6,0.5-1.3,0.9-2.1,0.9C41.6,14.2,40.8,13.4,40.8,12.2z M44.7,12.3v-1.6
										c-2,0.2-2.6,0.7-2.6,1.5c0,0.6,0.4,0.9,1,0.9C43.7,13.1,44.2,12.8,44.7,12.3z"/>
									<path d="M48.1,7.4h1.1l0.1,0.7h0c0.6-0.5,1.3-0.9,2-0.9c1.7,0,2.6,1.3,2.6,3.4c0,2.3-1.4,3.6-2.8,3.6
										c-0.6,0-1.2-0.3-1.7-0.7l0,1.1v2.1h-1.4V7.4z M52.6,10.6c0-1.4-0.4-2.2-1.5-2.2c-0.5,0-1,0.3-1.6,0.8v3.2
										c0.5,0.4,1,0.6,1.4,0.6C51.8,13,52.6,12.2,52.6,10.6z"/>
									<path d="M55.2,10.7c0-2.1,1.5-3.5,3-3.5c1.8,0,2.7,1.3,2.7,3.1c0,0.3,0,0.5-0.1,0.7h-4.3c0.1,1.3,0.9,2,2,2
										c0.6,0,1.1-0.2,1.6-0.5l0.5,0.9c-0.6,0.4-1.4,0.7-2.2,0.7C56.6,14.2,55.2,12.9,55.2,10.7z M59.7,10.1
										c0-1.1-0.5-1.8-1.5-1.8c-0.8,0-1.6,0.6-1.7,1.8H59.7z"/>
									<path d="M62.3,11.6V7.4h1.4v4c0,1.1,0.3,1.6,1.1,1.6c0.6,0,1-0.3,1.6-1V7.4h1.4V14h-1.1l-0.1-1h0c-0.6,0.7-1.2,1.2-2.2,1.2
										C62.9,14.2,62.3,13.2,62.3,11.6z"/>
									<path d="M70.1,11.8V8.5h-1v-1l1-0.1l0.2-1.8h1.2v1.8h1.7v1.1h-1.7v3.3c0,0.8,0.3,1.2,1,1.2c0.2,0,0.5-0.1,0.7-0.2l0.3,1
										c-0.4,0.1-0.8,0.2-1.3,0.2C70.6,14.2,70.1,13.2,70.1,11.8z"/>
									<path d="M74.4,5.4c0-0.5,0.4-0.8,0.9-0.8s0.9,0.3,0.9,0.8c0,0.5-0.4,0.8-0.9,0.8S74.4,5.8,74.4,5.4z M74.6,7.4H76V14h-1.4
										V7.4z"/>
									<path d="M77.6,10.7c0-2.2,1.5-3.5,3.3-3.5c0.8,0,1.5,0.3,1.9,0.8l-0.7,0.9c-0.4-0.3-0.7-0.5-1.2-0.5
										c-1.1,0-1.9,0.9-1.9,2.3c0,1.4,0.8,2.3,1.9,2.3c0.6,0,1-0.3,1.4-0.6l0.6,0.9c-0.6,0.5-1.4,0.8-2.1,0.8
										C78.9,14.2,77.6,12.9,77.6,10.7z"/>
									<path d="M86.5,15.2c0-0.6,0.3-1.1,1-1.4v-0.1c-0.3-0.2-0.6-0.6-0.6-1.1c0-0.5,0.4-1,0.7-1.2v0c-0.4-0.3-0.9-1-0.9-1.8
										c0-1.5,1.2-2.4,2.6-2.4c0.4,0,0.7,0.1,1,0.2h2.3v1h-1.3c0.3,0.3,0.4,0.7,0.4,1.2c0,1.4-1.1,2.3-2.5,2.3
										c-0.3,0-0.6-0.1-0.9-0.2c-0.2,0.2-0.4,0.4-0.4,0.7c0,0.4,0.3,0.6,1.1,0.6h1.2c1.6,0,2.4,0.5,2.4,1.6c0,1.3-1.3,2.3-3.5,2.3
										C87.6,17,86.5,16.4,86.5,15.2z M91.3,14.9c0-0.6-0.4-0.7-1.2-0.7h-1c-0.3,0-0.6,0-0.9-0.1c-0.4,0.3-0.6,0.6-0.6,1
										c0,0.6,0.7,1,1.8,1C90.6,16.1,91.3,15.5,91.3,14.9z M90.5,9.6c0-0.9-0.6-1.4-1.2-1.4S88,8.7,88,9.6c0,0.9,0.6,1.4,1.2,1.4
										S90.5,10.5,90.5,9.6z"/>
									<path d="M93.2,10.7c0-2.1,1.5-3.5,3-3.5c1.8,0,2.7,1.3,2.7,3.1c0,0.3,0,0.5-0.1,0.7h-4.3c0.1,1.3,0.9,2,2,2
										c0.6,0,1.1-0.2,1.6-0.5l0.5,0.9c-0.6,0.4-1.4,0.7-2.2,0.7C94.6,14.2,93.2,12.9,93.2,10.7z M97.7,10.1
										c0-1.1-0.5-1.8-1.5-1.8c-0.8,0-1.6,0.6-1.7,1.8H97.7z"/>
									<path d="M100.5,7.4h1.1l0.1,0.9h0c0.6-0.6,1.3-1.1,2.2-1.1c1.4,0,2,0.9,2,2.6V14h-1.4v-4c0-1.1-0.3-1.6-1.1-1.6
										c-0.6,0-1,0.3-1.6,0.9V14h-1.4V7.4z"/>
									<path d="M107.5,10.7c0-2.1,1.5-3.5,3-3.5c1.8,0,2.7,1.3,2.7,3.1c0,0.3,0,0.5-0.1,0.7h-4.3c0.1,1.3,0.9,2,2,2
										c0.6,0,1.1-0.2,1.6-0.5l0.5,0.9c-0.6,0.4-1.4,0.7-2.2,0.7C108.9,14.2,107.5,12.9,107.5,10.7z M112,10.1
										c0-1.1-0.5-1.8-1.5-1.8c-0.8,0-1.6,0.6-1.7,1.8H112z"/>
									<path d="M117.2,8.5c0-0.6,0.4-1,0.9-1s0.9,0.4,0.9,1c0,0.6-0.4,1-0.9,1S117.2,9,117.2,8.5z M117.2,13.2c0-0.6,0.4-1,0.9-1
										s0.9,0.4,0.9,1s-0.4,1-0.9,1S117.2,13.8,117.2,13.2z"/>
								</g>
								<path class="st4" d="M2,7L2,7c1.1,0,2,0.9,2,2l0,0c0,1.1-0.9,2-2,2l0,0c-1.1,0-2-0.9-2-2l0,0C0,7.9,0.9,7,2,7z"/>
							</g>
						</g>
						<g transform="translate(20.000000, 23.000000)">
							<g id="expression-level" transform="translate(0.000000, 96.000000)">
								<g class="st2">
									<path d="M1,44.7h0.9V52H1V44.7z"/>
									<path d="M3.8,46.6h0.8l0.1,0.8h0c0.5-0.5,1.1-0.9,1.8-0.9c1.1,0,1.7,0.7,1.7,2.1V52H7.3v-3.3c0-1-0.3-1.4-1-1.4
										c-0.6,0-0.9,0.3-1.5,0.8V52H3.8V46.6z"/>
									<path d="M10.1,50.3v-3H9.3v-0.7l0.8,0l0.1-1.5H11v1.5h1.5v0.7H11v3c0,0.7,0.2,1,0.8,1c0.2,0,0.4-0.1,0.6-0.1l0.2,0.7
										c-0.3,0.1-0.7,0.2-1,0.2C10.5,52.1,10.1,51.4,10.1,50.3z"/>
									<path d="M13.7,46.6h0.7l0.1,1h0c0.4-0.7,0.9-1.1,1.5-1.1c0.2,0,0.4,0,0.6,0.1l-0.2,0.8c-0.2-0.1-0.3-0.1-0.5-0.1
										c-0.4,0-1,0.3-1.4,1.2V52h-0.9V46.6z"/>
									<path d="M17.1,49.3c0-1.8,1.2-2.9,2.5-2.9s2.5,1,2.5,2.9c0,1.8-1.2,2.8-2.5,2.8S17.1,51.1,17.1,49.3z M21.2,49.3
										c0-1.2-0.6-2.1-1.6-2.1S18,48,18,49.3c0,1.2,0.6,2.1,1.6,2.1S21.2,50.5,21.2,49.3z"/>
									<path d="M23.6,46.6h0.8l0.1,0.8h0c0.5-0.5,1.1-0.9,1.8-0.9c1.1,0,1.7,0.7,1.7,2.1V52H27v-3.3c0-1-0.3-1.4-1-1.4
										c-0.6,0-0.9,0.3-1.5,0.8V52h-0.9V46.6z"/>
								</g>
								<g class="st2">
									<path d="M1,4.7h2.1c1.6,0,2.7,0.5,2.7,2.1c0,1.5-1.1,2.3-2.7,2.3H1.9V12H1V4.7z M3,8.3c1.3,0,1.9-0.5,1.9-1.5
										c0-1.1-0.7-1.4-1.9-1.4h-1v2.9H3z"/>
									<path d="M7.2,6.6H8l0.1,1h0C8.5,6.9,9,6.4,9.6,6.4c0.2,0,0.4,0,0.6,0.1L10,7.4C9.9,7.3,9.7,7.3,9.5,7.3
										c-0.4,0-1,0.3-1.4,1.2V12H7.2V6.6z"/>
									<path d="M10.6,9.3c0-1.8,1.2-2.9,2.5-2.9s2.5,1,2.5,2.9c0,1.8-1.2,2.8-2.5,2.8S10.6,11.1,10.6,9.3z M14.7,9.3
										c0-1.2-0.6-2.1-1.6-2.1S11.5,8,11.5,9.3c0,1.2,0.6,2.1,1.6,2.1S14.7,10.5,14.7,9.3z"/>
									<path d="M17.1,6.6h0.7l0.1,0.8h0c0.5-0.5,1-0.9,1.7-0.9c0.8,0,1.3,0.4,1.5,1c0.6-0.6,1.1-1,1.8-1c1.1,0,1.6,0.7,1.6,2.1V12
										h-0.9V8.7c0-1-0.3-1.4-1-1.4c-0.4,0-0.9,0.3-1.4,0.8V12h-0.9V8.7c0-1-0.3-1.4-1-1.4c-0.4,0-0.9,0.3-1.4,0.8V12h-0.9V6.6z"
										/>
									<path d="M25.9,9.3c0-1.8,1.2-2.9,2.5-2.9c1.3,0,2.5,1,2.5,2.9c0,1.8-1.2,2.8-2.5,2.8C27.1,12.1,25.9,11.1,25.9,9.3z
										 M30,9.3c0-1.2-0.6-2.1-1.6-2.1S26.9,8,26.9,9.3c0,1.2,0.6,2.1,1.6,2.1S30,10.5,30,9.3z"/>
									<path d="M32.4,10.3v-3h-0.8V6.6l0.8,0l0.1-1.5h0.8v1.5h1.5v0.7h-1.5v3c0,0.7,0.2,1,0.8,1c0.2,0,0.4-0.1,0.6-0.1l0.2,0.7
										c-0.3,0.1-0.7,0.2-1,0.2C32.7,12.1,32.4,11.4,32.4,10.3z"/>
									<path d="M35.4,9.3c0-1.8,1.2-2.9,2.4-2.9c1.4,0,2.2,1,2.2,2.5c0,0.2,0,0.4,0,0.5h-3.7c0.1,1.2,0.8,1.9,1.8,1.9
										c0.5,0,1-0.2,1.4-0.4l0.3,0.6c-0.5,0.3-1.1,0.6-1.8,0.6C36.6,12.1,35.4,11.1,35.4,9.3z M39.2,8.9c0-1.1-0.5-1.7-1.3-1.7
										c-0.8,0-1.4,0.6-1.6,1.7H39.2z"/>
									<path d="M41.4,6.6h0.7l0.1,1h0c0.4-0.7,0.9-1.1,1.5-1.1c0.2,0,0.4,0,0.6,0.1l-0.2,0.8c-0.2-0.1-0.3-0.1-0.5-0.1
										c-0.5,0-1,0.3-1.4,1.2V12h-0.9V6.6z"/>
								</g>
								<g class="st2">
									<path d="M1,29v-4.3h0.9V29c0,1.8,0.8,2.3,1.7,2.3c1,0,1.8-0.5,1.8-2.3v-4.3h0.9V29c0,2.4-1.1,3.2-2.6,3.2
										C2.1,32.1,1,31.3,1,29z"/>
									<path d="M9.7,25.5H7.5v-0.8h5.4v0.8h-2.2V32H9.7V25.5z"/>
									<path d="M18.2,32l-1.8-3.1h-1.3V32h-0.9v-7.3h2.3c1.5,0,2.6,0.5,2.6,2.1c0,1.1-0.7,1.8-1.7,2.1l1.9,3.2H18.2z M15.1,28.1
										h1.2c1.2,0,1.8-0.5,1.8-1.4c0-1-0.6-1.3-1.8-1.3h-1.2V28.1z"/>
								</g>
							</g>
							<g class="st2">
								<path d="M1,4.7h0.9v3.1h3.4V4.7h0.9V12H5.3V8.5H1.9V12H1V4.7z"/>
								<path d="M7.9,8.3c0-2.4,1.4-3.8,3.4-3.8c1,0,1.7,0.5,2.1,0.9L12.8,6c-0.4-0.4-0.8-0.7-1.6-0.7c-1.5,0-2.4,1.1-2.4,3
									c0,1.8,0.9,3,2.4,3c0.5,0,1-0.2,1.3-0.4V9H11V8.2h2.4v3.1c-0.5,0.5-1.3,0.8-2.3,0.8C9.2,12.1,7.9,10.7,7.9,8.3z"/>
								<path d="M15.2,4.7h4.2v0.8h-3.3v2.5h2.8v0.8h-2.8V12h-0.9V4.7z"/>
							</g>
						</g>
					</g>
					<g id="special-Feature">
						<g class="st2">
							<path class="st3" d="M0.5,12.9l1-1.2c0.6,0.6,1.5,1,2.3,1c0.9,0,1.4-0.4,1.4-1c0-0.7-0.5-0.9-1.3-1.2L2.7,9.9
								C1.8,9.5,0.9,8.8,0.9,7.5C0.9,6.1,2.1,5,3.9,5C5,5,6,5.4,6.7,6.1L5.8,7.2C5.3,6.7,4.7,6.5,3.9,6.5c-0.8,0-1.3,0.3-1.3,0.9
								c0,0.6,0.6,0.9,1.4,1.2l1.2,0.5C6.3,9.5,7,10.2,7,11.5c0,1.5-1.2,2.7-3.3,2.7C2.6,14.2,1.4,13.7,0.5,12.9z"/>
							<path class="st3" d="M8.4,7.3h1.4L10,8h0c0.6-0.5,1.3-0.9,2-0.9c1.7,0,2.6,1.4,2.6,3.4c0,2.3-1.4,3.6-2.9,3.6
								c-0.6,0-1.2-0.3-1.7-0.7l0,1.1v2H8.4V7.3z M12.8,10.6c0-1.3-0.4-2-1.3-2c-0.5,0-0.9,0.2-1.3,0.7v3c0.4,0.4,0.9,0.5,1.2,0.5
								C12.2,12.7,12.8,12,12.8,10.6z"/>
							<path class="st3" d="M15.7,10.7c0-2.2,1.5-3.5,3.1-3.5c1.8,0,2.8,1.4,2.8,3.2c0,0.3,0,0.6-0.1,0.8h-4.1
								c0.1,1.1,0.9,1.7,1.9,1.7c0.6,0,1-0.2,1.5-0.5l0.6,1.1c-0.7,0.5-1.5,0.7-2.3,0.7C17.2,14.2,15.7,12.9,15.7,10.7z M20.2,10
								c0-0.9-0.4-1.5-1.3-1.5c-0.7,0-1.3,0.5-1.5,1.5H20.2z"/>
							<path class="st3" d="M22.7,10.7c0-2.2,1.6-3.5,3.4-3.5c0.8,0,1.5,0.3,2,0.7L27.3,9c-0.3-0.3-0.6-0.4-1-0.4
								c-1,0-1.7,0.8-1.7,2.1c0,1.3,0.7,2.1,1.7,2.1c0.5,0,0.9-0.2,1.3-0.5l0.7,1.2c-0.6,0.6-1.5,0.8-2.2,0.8
								C24.1,14.2,22.7,12.9,22.7,10.7z"/>
							<path class="st3" d="M29.3,5.2c0-0.6,0.4-1,1.1-1c0.6,0,1,0.4,1,1c0,0.6-0.4,1-1,1C29.7,6.2,29.3,5.8,29.3,5.2z M29.5,7.3
								h1.8V14h-1.8V7.3z"/>
							<path class="st3" d="M32.8,12.2c0-1.4,1.2-2.2,3.9-2.5c0-0.7-0.3-1.2-1.1-1.2c-0.6,0-1.2,0.3-1.8,0.6L33,8
								c0.8-0.5,1.8-0.9,2.8-0.9c1.7,0,2.6,1,2.6,3V14H37l-0.1-0.7h0c-0.6,0.5-1.3,0.9-2,0.9C33.6,14.2,32.8,13.3,32.8,12.2z
								 M36.6,12.1v-1.4C35,11,34.5,11.4,34.5,12c0,0.5,0.4,0.8,0.9,0.8C35.8,12.8,36.2,12.5,36.6,12.1z"/>
							<path class="st3" d="M40.2,12.1V4.4H42v7.8c0,0.4,0.2,0.5,0.4,0.5c0.1,0,0.1,0,0.2,0l0.2,1.3c-0.2,0.1-0.5,0.2-0.9,0.2
								C40.6,14.2,40.2,13.4,40.2,12.1z"/>
							<path class="st3" d="M46.8,5.1h5.5v1.5h-3.7v2.3h3.2v1.5h-3.2V14h-1.8V5.1z"/>
							<path class="st3" d="M53.1,10.7c0-2.2,1.5-3.5,3.1-3.5c1.8,0,2.8,1.4,2.8,3.2c0,0.3,0,0.6-0.1,0.8h-4.1
								c0.1,1.1,0.9,1.7,1.9,1.7c0.6,0,1-0.2,1.5-0.5l0.6,1.1c-0.7,0.5-1.5,0.7-2.4,0.7C54.5,14.2,53.1,12.9,53.1,10.7z M57.5,10
								c0-0.9-0.4-1.5-1.3-1.5c-0.7,0-1.3,0.5-1.5,1.5H57.5z"/>
							<path class="st3" d="M60,12.2c0-1.4,1.2-2.2,3.9-2.5c0-0.7-0.3-1.2-1.1-1.2c-0.6,0-1.2,0.3-1.8,0.6L60.2,8
								C61,7.5,62,7.1,63,7.1c1.7,0,2.6,1,2.6,3V14h-1.4L64,13.3h0c-0.6,0.5-1.3,0.9-2,0.9C60.8,14.2,60,13.3,60,12.2z M63.8,12.1
								v-1.4c-1.6,0.2-2.2,0.7-2.2,1.3c0,0.5,0.4,0.8,0.9,0.8C63,12.8,63.4,12.5,63.8,12.1z"/>
							<path class="st3" d="M67.4,11.6v-3h-0.9V7.4l1-0.1l0.2-1.8h1.5v1.8h1.7v1.4h-1.7v3c0,0.8,0.3,1.1,0.9,1.1
								c0.2,0,0.5-0.1,0.7-0.1l0.3,1.3c-0.4,0.1-0.8,0.3-1.4,0.3C68,14.2,67.4,13.2,67.4,11.6z"/>
							<path class="st3" d="M72.1,11.5V7.3h1.8v4c0,1,0.3,1.4,0.9,1.4c0.6,0,0.9-0.2,1.4-0.8V7.3H78V14h-1.4l-0.1-1h0
								c-0.6,0.7-1.2,1.1-2.1,1.1C72.8,14.2,72.1,13.2,72.1,11.5z"/>
							<path class="st3" d="M79.8,7.3h1.4l0.1,1.2h0c0.5-0.9,1.2-1.4,1.9-1.4c0.4,0,0.6,0.1,0.8,0.1l-0.3,1.5
								c-0.2-0.1-0.4-0.1-0.7-0.1C82.6,8.7,82,9,81.6,10v4h-1.8V7.3z"/>
							<path class="st3" d="M84.5,10.7c0-2.2,1.5-3.5,3.1-3.5c1.8,0,2.8,1.4,2.8,3.2c0,0.3,0,0.6-0.1,0.8h-4.1
								c0.1,1.1,0.9,1.7,1.9,1.7c0.6,0,1-0.2,1.5-0.5l0.6,1.1c-0.7,0.5-1.5,0.7-2.4,0.7C86,14.2,84.5,12.9,84.5,10.7z M88.9,10
								c0-0.9-0.4-1.5-1.3-1.5C87,8.5,86.3,9,86.2,10H88.9z"/>
							<path class="st3" d="M91.3,13.2l0.8-1.1c0.6,0.5,1.2,0.7,1.8,0.7c0.7,0,1-0.3,1-0.7c0-0.5-0.7-0.7-1.4-1
								c-0.9-0.3-1.8-0.8-1.8-2c0-1.2,1-2.1,2.5-2.1c1,0,1.7,0.4,2.3,0.8L95.6,9c-0.5-0.3-0.9-0.6-1.5-0.6c-0.6,0-0.9,0.3-0.9,0.6
								c0,0.5,0.7,0.7,1.4,0.9c0.9,0.3,1.9,0.8,1.9,2c0,1.2-0.9,2.1-2.7,2.1C92.9,14.2,91.9,13.8,91.3,13.2z"/>
						</g>
						<path id="Line-2" class="st12" d="M0,18h100"/>
					</g>
				</g>
			</g>
		</g>
	</g>
</g>
</svg>
