<?xml version="1.0" encoding="utf-8"?>
<!-- Generator: Adobe Illustrator 23.0.1, SVG Export Plug-In . SVG Version: 6.00 Build 0)  -->
<svg version="1.1" id="레이어_1" xmlns="http://www.w3.org/2000/svg" xmlns:xlink="http://www.w3.org/1999/xlink" x="0px"
	 y="0px" viewBox="0 0 867 433" style="enable-background:new 0 0 867 433;" xml:space="preserve">
<style type="text/css">
	.st0{fill:none;stroke:#B54142;stroke-width:2;}
	.st1{fill-rule:evenodd;clip-rule:evenodd;fill:#FFFFFF;stroke:#B54142;stroke-width:1.5;}
	.st2{enable-background:new    ;}
	.st3{fill:#B54142;}
	.st4{fill-rule:evenodd;clip-rule:evenodd;fill:#B54142;}
	.st5{fill:#FFFFFF;}
	.st6{fill-rule:evenodd;clip-rule:evenodd;fill:#FEF8F4;stroke:#B54142;stroke-width:1.5;}
	.st7{fill:none;stroke:#B54142;}
	.st8{fill:none;stroke:#B54142;stroke-width:2;stroke-linecap:square;}
	.st9{fill:none;stroke:#B54142;stroke-width:2;stroke-linecap:round;stroke-linejoin:round;}
	.st10{font-family:'NotoSansCJKkr-Medium-KSCpc-EUC-H';}
	.st11{font-size:12px;}
</style>
<title>Diagram</title>
<desc>Created with Sketch.</desc>
<g id="Page-2">
	<g transform="translate(-289.000000, -721.000000)">
		<g id="first" transform="translate(192.000000, 421.000000)">
			<g id="Diagram" transform="translate(97.000000, 300.000000)">
				<g id="diagram">
					<g id="라인" transform="translate(0.499031, 23.885611)">
						<path id="Path" class="st0" d="M224,0.5H51c-27.6,0-50,22.4-50,50v4c0,27.6,22.4,50,50,50h64.9"/>
						<path class="st0" d="M765,105.7h51c27.6,0,50-22.4,50-50v-4c0-27.6-22.4-50-50-50H643"/>
					</g>
					<g id="숫자" transform="translate(104.000000, 243.000000)">
						<g transform="translate(96.000000, 0.000000)">
							<g id="HCMV">
								<path id="bg" class="st1" d="M9.3,0.8h12.5c4.4,0,8,3.6,8,8v12.5c0,4.4-3.6,8-8,8H9.3c-4.4,0-8-3.6-8-8V8.8
									C1.3,4.3,4.8,0.8,9.3,0.8z"/>
								<g class="st2">
									<path class="st3" d="M12.7,19.2h2.4v-7h-2v-1.4c1.1-0.2,1.9-0.5,2.6-0.9h1.6v9.3h2.1V21h-6.7C12.7,21,12.7,19.2,12.7,19.2z
										"/>
								</g>
							</g>
							<g transform="translate(35.000000, 0.000000)">
								<path class="st1" d="M9.3,0.8h12.5c4.4,0,8,3.6,8,8v12.5c0,4.4-3.6,8-8,8H9.3c-4.4,0-8-3.6-8-8V8.8C1.3,4.3,4.8,0.8,9.3,0.8
									z"/>
								<g class="st2">
									<path class="st3" d="M12.1,19.7c3-2.7,4.8-4.8,4.8-6.5c0-1.1-0.6-1.8-1.7-1.8c-0.8,0-1.5,0.5-2,1.1L12,11.3
										c1-1.1,2-1.7,3.5-1.7c2.1,0,3.5,1.3,3.5,3.4c0,2-1.7,4.2-3.7,6.1c0.6-0.1,1.3-0.1,1.8-0.1h2.4v2h-7.4
										C12.1,21,12.1,19.7,12.1,19.7z"/>
								</g>
							</g>
							<g transform="translate(70.000000, 0.000000)">
								<path class="st1" d="M9.3,0.8h12.5c4.4,0,8,3.6,8,8v12.5c0,4.4-3.6,8-8,8H9.3c-4.4,0-8-3.6-8-8V8.8C1.3,4.3,4.8,0.8,9.3,0.8
									z"/>
								<g class="st2">
									<path class="st3" d="M11.9,19.7l1-1.4c0.7,0.6,1.5,1.1,2.5,1.1c1.1,0,1.9-0.6,1.9-1.5c0-1.1-0.6-1.8-3.1-1.8v-1.6
										c2,0,2.7-0.7,2.7-1.7c0-0.9-0.5-1.4-1.5-1.4c-0.8,0-1.4,0.4-2.1,1l-1.1-1.3c1-0.8,2-1.4,3.3-1.4c2.1,0,3.6,1,3.6,3
										c0,1.2-0.7,2.1-1.9,2.5v0.1c1.3,0.3,2.3,1.2,2.3,2.7c0,2-1.8,3.2-3.9,3.2C13.9,21.2,12.7,20.5,11.9,19.7z"/>
								</g>
							</g>
							<g transform="translate(105.000000, 0.000000)">
								<path class="st1" d="M9.3,0.8h12.5c4.4,0,8,3.6,8,8v12.5c0,4.4-3.6,8-8,8H9.3c-4.4,0-8-3.6-8-8V8.8C1.3,4.3,4.8,0.8,9.3,0.8
									z"/>
								<g class="st2">
									<path class="st3" d="M19.9,18.1h-1.3V21h-2.1v-2.9h-4.7v-1.5l4.1-6.7h2.6v6.5h1.3v1.7H19.9z M16.5,16.4v-2.3
										c0-0.6,0.1-1.6,0.1-2.3h-0.1c-0.3,0.6-0.6,1.2-0.9,1.8l-1.7,2.8H16.5z"/>
								</g>
							</g>
						</g>
						<g transform="translate(431.000000, 0.000000)">
							<g>
								<path class="st1" d="M9.3,0.8h12.5c4.4,0,8,3.6,8,8v12.5c0,4.4-3.6,8-8,8H9.3c-4.4,0-8-3.6-8-8V8.8C1.3,4.3,4.8,0.8,9.3,0.8
									z"/>
								<g class="st2">
									<path class="st3" d="M11.9,19.7l1-1.4c0.6,0.6,1.4,1.1,2.4,1.1c1.2,0,2-0.7,2-2s-0.8-2-1.9-2c-0.7,0-1,0.2-1.7,0.6l-1-0.7
										L13,9.9h5.9v1.8h-4l-0.2,2.4c0.4-0.2,0.8-0.3,1.3-0.3c1.9,0,3.4,1.1,3.4,3.5c0,2.5-1.8,3.9-3.9,3.9
										C13.9,21.2,12.7,20.5,11.9,19.7z"/>
								</g>
							</g>
							<g transform="translate(35.000000, 0.000000)">
								<path class="st1" d="M9.3,0.8h12.5c4.4,0,8,3.6,8,8v12.5c0,4.4-3.6,8-8,8H9.3c-4.4,0-8-3.6-8-8V8.8C1.3,4.3,4.8,0.8,9.3,0.8
									z"/>
								<g class="st2">
									<path class="st3" d="M18.4,12.3c-0.4-0.5-1.1-0.8-1.7-0.8c-1.3,0-2.3,1-2.4,3.7c0.6-0.7,1.6-1.2,2.3-1.2
										c1.9,0,3.2,1.1,3.2,3.5c0,2.3-1.6,3.7-3.5,3.7c-2.1,0-4-1.7-4-5.6c0-4.1,2.1-5.9,4.3-5.9c1.3,0,2.3,0.6,3,1.3L18.4,12.3z
										 M17.7,17.5c0-1.3-0.6-1.9-1.6-1.9c-0.6,0-1.3,0.3-1.8,1.2c0.2,2,1,2.8,1.9,2.8C17,19.5,17.7,18.9,17.7,17.5z"/>
								</g>
							</g>
							<g transform="translate(70.000000, 0.000000)">
								<path class="st1" d="M9.3,0.8h12.5c4.4,0,8,3.6,8,8v12.5c0,4.4-3.6,8-8,8H9.3c-4.4,0-8-3.6-8-8V8.8C1.3,4.3,4.8,0.8,9.3,0.8
									z"/>
								<g class="st2">
									<path class="st3" d="M17.2,11.7h-5V9.9h7.4v1.3c-2.6,3.2-2.9,5.4-3.1,9.8h-2.2C14.5,17.1,15.1,14.7,17.2,11.7z"/>
								</g>
							</g>
							<g transform="translate(105.000000, 0.000000)">
								<path class="st1" d="M9.3,0.8h12.5c4.4,0,8,3.6,8,8v12.5c0,4.4-3.6,8-8,8H9.3c-4.4,0-8-3.6-8-8V8.8C1.3,4.3,4.8,0.8,9.3,0.8
									z"/>
								<g class="st2">
									<path class="st3" d="M12.2,18.2c0-1.4,0.9-2.3,1.9-2.9v-0.1c-0.9-0.6-1.5-1.5-1.5-2.6c0-1.8,1.4-2.9,3.3-2.9
										c2,0,3.2,1.2,3.2,3c0,1.1-0.7,2-1.4,2.5v0.1c1,0.6,1.9,1.5,1.9,3c0,1.7-1.5,3-3.7,3C13.8,21.2,12.2,20,12.2,18.2z
										 M17.6,18.2c0-1.2-1-1.6-2.5-2.2c-0.6,0.5-1,1.2-1,2.1c0,1,0.8,1.7,1.9,1.7C16.9,19.7,17.6,19.1,17.6,18.2z M17.4,12.8
										c0-0.9-0.5-1.5-1.5-1.5c-0.8,0-1.3,0.5-1.3,1.4c0,1.1,0.9,1.6,2,2C17.2,14.1,17.4,13.5,17.4,12.8z"/>
								</g>
							</g>
							<g transform="translate(140.000000, 0.000000)">
								<path class="st1" d="M9.3,0.8h12.5c4.4,0,8,3.6,8,8v12.5c0,4.4-3.6,8-8,8H9.3c-4.4,0-8-3.6-8-8V8.8C1.3,4.3,4.8,0.8,9.3,0.8
									z"/>
								<g class="st2">
									<path class="st3" d="M13.4,18.6c0.4,0.4,1.1,0.8,1.8,0.8c1.2,0,2.3-0.9,2.4-3.7c-0.6,0.8-1.5,1.2-2.3,1.2
										c-1.8,0-3.2-1.1-3.2-3.5c0-2.3,1.6-3.7,3.5-3.7c2.1,0,4,1.7,4,5.5c0,4.2-2.1,6-4.3,6c-1.4,0-2.4-0.6-3-1.3L13.4,18.6z
										 M17.5,14.1c-0.2-2-1-2.8-1.9-2.8c-0.8,0-1.5,0.7-1.5,2s0.6,1.9,1.6,1.9C16.3,15.3,17,15,17.5,14.1z"/>
								</g>
							</g>
							<g transform="translate(175.000000, 0.000000)">
								<path class="st1" d="M9.3,0.8h12.5c4.4,0,8,3.6,8,8v12.5c0,4.4-3.6,8-8,8H9.3c-4.4,0-8-3.6-8-8V8.8C1.3,4.3,4.8,0.8,9.3,0.8
									z"/>
								<g class="st2">
									<path class="st3" d="M7.7,19.2h2.4v-7h-2v-1.4c1.1-0.2,1.9-0.5,2.6-0.9h1.6v9.3h2.1V21H7.7V19.2z"/>
									<path class="st3" d="M16,15.4c0-3.8,1.5-5.7,3.8-5.7c2.2,0,3.8,1.9,3.8,5.7s-1.5,5.8-3.8,5.8S16,19.2,16,15.4z M21.4,15.4
										c0-3.1-0.7-4-1.7-4s-1.7,0.9-1.7,4s0.7,4.1,1.7,4.1C20.7,19.5,21.4,18.5,21.4,15.4z"/>
								</g>
							</g>
							<g transform="translate(210.000000, 0.000000)">
								<path class="st1" d="M9.3,0.8h12.5c4.4,0,8,3.6,8,8v12.5c0,4.4-3.6,8-8,8H9.3c-4.4,0-8-3.6-8-8V8.8C1.3,4.3,4.8,0.8,9.3,0.8
									z"/>
								<g class="st2">
									<path class="st3" d="M7.7,19.2h2.4v-7h-2v-1.4c1.1-0.2,1.9-0.5,2.6-0.9h1.6v9.3h2.1V21H7.7V19.2z"/>
									<path class="st3" d="M16.6,19.2H19v-7h-2v-1.4c1.1-0.2,1.9-0.5,2.6-0.9h1.6v9.3h2.1V21h-6.7C16.6,21,16.6,19.2,16.6,19.2z"
										/>
								</g>
							</g>
							<g transform="translate(0.000000, 40.000000)">
								<path class="st1" d="M9.3,0.8h12.5c4.4,0,8,3.6,8,8v12.5c0,4.4-3.6,8-8,8H9.3c-4.4,0-8-3.6-8-8V8.8C1.3,4.3,4.8,0.8,9.3,0.8
									z"/>
								<g class="st2">
									<path class="st3" d="M7.7,19.2h2.4v-7h-2v-1.4c1.1-0.2,1.9-0.5,2.6-0.9h1.6v9.3h2.1V21H7.7V19.2z"/>
									<path class="st3" d="M16,19.7c3-2.7,4.8-4.8,4.8-6.5c0-1.1-0.6-1.8-1.7-1.8c-0.8,0-1.5,0.5-2,1.1l-1.2-1.2
										c1-1.1,2-1.7,3.5-1.7c2.1,0,3.5,1.3,3.5,3.4c0,2-1.7,4.2-3.7,6.1C19.8,19,20.5,19,21,19h2.4v2H16C16,21,16,19.7,16,19.7z"
										/>
								</g>
							</g>
							<g transform="translate(35.000000, 40.000000)">
								<path class="st1" d="M9.3,0.8h12.5c4.4,0,8,3.6,8,8v12.5c0,4.4-3.6,8-8,8H9.3c-4.4,0-8-3.6-8-8V8.8C1.3,4.3,4.8,0.8,9.3,0.8
									z"/>
								<g class="st2">
									<path class="st3" d="M7.7,19.2h2.4v-7h-2v-1.4c1.1-0.2,1.9-0.5,2.6-0.9h1.6v9.3h2.1V21H7.7V19.2z"/>
									<path class="st3" d="M15.7,19.7l1-1.4c0.7,0.6,1.5,1.1,2.5,1.1c1.1,0,1.9-0.6,1.9-1.5c0-1.1-0.6-1.8-3.1-1.8v-1.6
										c2,0,2.7-0.7,2.7-1.7c0-0.9-0.5-1.4-1.5-1.4c-0.8,0-1.4,0.4-2.1,1L16,11.1c1-0.8,2-1.4,3.3-1.4c2.1,0,3.6,1,3.6,3
										c0,1.2-0.7,2.1-1.9,2.5v0.1c1.3,0.3,2.2,1.3,2.2,2.7c0,2-1.8,3.2-3.9,3.2C17.7,21.2,16.5,20.5,15.7,19.7z"/>
								</g>
							</g>
							<g transform="translate(70.000000, 40.000000)">
								<path class="st1" d="M9.3,0.8h12.5c4.4,0,8,3.6,8,8v12.5c0,4.4-3.6,8-8,8H9.3c-4.4,0-8-3.6-8-8V8.8C1.3,4.3,4.8,0.8,9.3,0.8
									z"/>
								<g class="st2">
									<path class="st3" d="M7.7,19.2h2.4v-7h-2v-1.4c1.1-0.2,1.9-0.5,2.6-0.9h1.6v9.3h2.1V21H7.7V19.2z"/>
									<path class="st3" d="M23.7,18.1h-1.3V21h-2.1v-2.9h-4.7v-1.5l4.1-6.7h2.6v6.5h1.3v1.7H23.7z M20.4,16.4v-2.3
										c0-0.6,0.1-1.6,0.1-2.3h-0.1c-0.3,0.6-0.6,1.2-0.9,1.8l-1.7,2.8H20.4z"/>
								</g>
							</g>
							<g transform="translate(105.000000, 40.000000)">
								<path class="st1" d="M9.3,0.8h12.5c4.4,0,8,3.6,8,8v12.5c0,4.4-3.6,8-8,8H9.3c-4.4,0-8-3.6-8-8V8.8C1.3,4.3,4.8,0.8,9.3,0.8
									z"/>
								<g class="st2">
									<path class="st3" d="M7.7,19.2h2.4v-7h-2v-1.4c1.1-0.2,1.9-0.5,2.6-0.9h1.6v9.3h2.1V21H7.7V19.2z"/>
									<path class="st3" d="M15.7,19.7l1-1.4c0.6,0.6,1.4,1.1,2.4,1.1c1.2,0,2-0.7,2-2s-0.8-2-1.9-2c-0.7,0-1,0.2-1.7,0.6l-1-0.7
										l0.3-5.4h5.9v1.8h-4l-0.2,2.4c0.4-0.2,0.8-0.3,1.3-0.3c1.9,0,3.4,1.1,3.4,3.5c0,2.5-1.8,3.9-3.9,3.9
										C17.7,21.2,16.5,20.5,15.7,19.7z"/>
								</g>
							</g>
							<g transform="translate(140.000000, 40.000000)">
								<path class="st1" d="M9.3,0.8h12.5c4.4,0,8,3.6,8,8v12.5c0,4.4-3.6,8-8,8H9.3c-4.4,0-8-3.6-8-8V8.8C1.3,4.3,4.8,0.8,9.3,0.8
									z"/>
								<g class="st2">
									<path class="st3" d="M7.7,19.2h2.4v-7h-2v-1.4c1.1-0.2,1.9-0.5,2.6-0.9h1.6v9.3h2.1V21H7.7V19.2z"/>
									<path class="st3" d="M22.2,12.3c-0.4-0.5-1.1-0.8-1.7-0.8c-1.3,0-2.3,1-2.4,3.7c0.6-0.7,1.6-1.2,2.3-1.2
										c1.9,0,3.2,1.1,3.2,3.5c0,2.3-1.6,3.7-3.5,3.7c-2.1,0-4-1.7-4-5.6c0-4.1,2.1-5.9,4.3-5.9c1.3,0,2.3,0.6,3,1.3L22.2,12.3z
										 M21.5,17.5c0-1.3-0.6-1.9-1.6-1.9c-0.6,0-1.3,0.3-1.8,1.2c0.2,2,1,2.8,1.9,2.8C20.9,19.5,21.5,18.9,21.5,17.5z"/>
								</g>
							</g>
							<g transform="translate(175.000000, 40.000000)">
								<path class="st1" d="M9.3,0.8h12.5c4.4,0,8,3.6,8,8v12.5c0,4.4-3.6,8-8,8H9.3c-4.4,0-8-3.6-8-8V8.8C1.3,4.3,4.8,0.8,9.3,0.8
									z"/>
								<g class="st2">
									<path class="st3" d="M7.7,19.2h2.4v-7h-2v-1.4c1.1-0.2,1.9-0.5,2.6-0.9h1.6v9.3h2.1V21H7.7V19.2z"/>
									<path class="st3" d="M21.1,11.7h-5V9.9h7.4v1.3c-2.6,3.2-2.9,5.4-3.1,9.8h-2.2C18.3,17.1,19,14.7,21.1,11.7z"/>
								</g>
							</g>
							<g transform="translate(210.000000, 40.000000)">
								<path class="st1" d="M9.3,0.8h12.5c4.4,0,8,3.6,8,8v12.5c0,4.4-3.6,8-8,8H9.3c-4.4,0-8-3.6-8-8V8.8C1.3,4.3,4.8,0.8,9.3,0.8
									z"/>
								<g class="st2">
									<path class="st3" d="M7.7,19.2h2.4v-7h-2v-1.4c1.1-0.2,1.9-0.5,2.6-0.9h1.6v9.3h2.1V21H7.7V19.2z"/>
									<path class="st3" d="M16,18.2c0-1.4,0.9-2.3,1.9-2.9v-0.1c-0.9-0.6-1.5-1.5-1.5-2.6c0-1.8,1.4-2.9,3.3-2.9
										c2,0,3.2,1.2,3.2,3c0,1.1-0.7,2-1.4,2.5v0.1c1,0.6,1.9,1.5,1.9,3c0,1.7-1.5,3-3.7,3C17.6,21.2,16,20,16,18.2z M21.4,18.2
										c0-1.2-1-1.6-2.5-2.2c-0.6,0.5-1,1.2-1,2.1c0,1,0.8,1.7,1.9,1.7C20.7,19.7,21.4,19.1,21.4,18.2z M21.2,12.8
										c0-0.9-0.5-1.5-1.5-1.5c-0.8,0-1.4,0.5-1.4,1.4c0,1.1,0.9,1.6,2,2C21,14.1,21.2,13.5,21.2,12.8z"/>
								</g>
							</g>
						</g>
						<g id="INTRO4" transform="translate(251.000000, 0.000000)">
							<g id="찌릿" transform="translate(54.000000, 8.000000)">
								<rect id="Rectangle" x="0.5" y="6" class="st4" width="100" height="3"/>
								<circle id="Oval" class="st4" cx="99" cy="7.5" r="7.5"/>
								<circle class="st4" cx="35" cy="7.5" r="5.5"/>
								<circle class="st4" cx="66" cy="7.5" r="5.5"/>
							</g>
							
								<g transform="translate(53.000000, 15.500000) rotate(-180.000000) translate(-53.000000, -15.500000) translate(0.000000, 8.000000)">
								<rect x="-0.5" y="6" class="st4" width="100" height="3"/>
								<circle class="st4" cx="98" cy="7.5" r="7.5"/>
								<circle class="st4" cx="34" cy="7.5" r="5.5"/>
								<circle class="st4" cx="65" cy="7.5" r="5.5"/>
							</g>
							<path class="st4" d="M38.5,0h84c4.4,0,8,3.6,8,8v15c0,4.4-3.6,8-8,8h-84c-4.4,0-8-3.6-8-8V8C30.5,3.6,34.1,0,38.5,0z"/>
							<g class="st2">
								<path class="st5" d="M61.8,11.5H63V21h-1.2V11.5z"/>
								<path class="st5" d="M65.5,13.9h1l0.1,1l0,0c0.7-0.7,1.4-1.2,2.4-1.2c1.5,0,2.2,1,2.2,2.8V21H70v-4.3c0-1.3-0.4-1.9-1.3-1.9
									c-0.7,0-1.2,0.4-1.9,1.1V21h-1.3V13.9z"/>
								<path class="st5" d="M73.7,18.8v-3.9h-1.1V14l1.1-0.1l0.1-2h1v2h1.9v1h-1.9v3.9c0,0.9,0.3,1.4,1.1,1.4
									c0.2,0,0.6-0.1,0.8-0.2l0.2,0.9c-0.4,0.1-0.9,0.3-1.3,0.3C74.2,21.2,73.7,20.2,73.7,18.8z"/>
								<path class="st5" d="M78.3,13.9h1l0.1,1.3l0,0c0.5-0.9,1.2-1.5,2-1.5c0.3,0,0.5,0,0.8,0.2l-0.2,1c-0.2-0.1-0.4-0.1-0.7-0.1
									c-0.6,0-1.3,0.4-1.8,1.6V21h-1.2C78.3,21,78.3,13.9,78.3,13.9z"/>
								<path class="st5" d="M82.7,17.5c0-2.4,1.5-3.7,3.3-3.7s3.3,1.4,3.3,3.7s-1.5,3.7-3.3,3.7S82.7,19.8,82.7,17.5z M88,17.5
									c0-1.6-0.8-2.7-2.1-2.7c-1.2,0-2,1.1-2,2.7s0.8,2.7,2,2.7C87.2,20.2,88,19.1,88,17.5z"/>
								<path class="st5" d="M99.6,18.4h-1.3V21h-1.1v-2.6h-4.1v-0.8l4-6.1h1.3v6h1.3v0.9H99.6z M97.3,17.4v-2.9
									c0-0.5,0.1-1.2,0.1-1.7h-0.1c-0.2,0.5-0.5,0.9-0.8,1.4l-2.2,3.2H97.3z"/>
							</g>
						</g>
						<g class="st2">
							<path d="M1.7,11.2h5.2v1.2H3.1v2.5h3.2V16H3.1v2.9h4V20H1.7V11.2z"/>
							<path d="M9.5,16.6l-2-3.2H9l0.8,1.3c0.2,0.4,0.4,0.7,0.6,1.1l0,0c0.2-0.4,0.4-0.7,0.6-1.1l0.7-1.3h1.4l-2,3.3l2.1,3.3h-1.5
								l-0.9-1.4c-0.2-0.4-0.4-0.8-0.7-1.2h0.1c-0.2,0.4-0.4,0.8-0.6,1.2L8.9,20H7.4L9.5,16.6z"/>
							<path d="M13.8,16.7c0-2.2,1.5-3.5,3.1-3.5s3.1,1.3,3.1,3.5s-1.5,3.4-3.1,3.4C15.3,20.2,13.8,18.9,13.8,16.7z M18.6,16.7
								c0-1.4-0.6-2.3-1.7-2.3c-1,0-1.7,0.9-1.7,2.3s0.6,2.3,1.7,2.3S18.6,18.1,18.6,16.7z"/>
							<path d="M21.7,13.4h1.1l0.1,0.9l0,0c0.6-0.6,1.3-1.1,2.2-1.1c1.4,0,2,0.9,2,2.6V20h-1.4v-4c0-1.1-0.3-1.6-1.1-1.6
								c-0.6,0-1,0.3-1.6,0.9V20h-1.4L21.7,13.4L21.7,13.4z"/>
							<path d="M31.9,13.4H33l0.1,0.9l0,0c0.6-0.6,1.3-1.1,2.2-1.1c1.4,0,2,0.9,2,2.6V20h-1.4v-4c0-1.1-0.3-1.6-1.1-1.6
								c-0.6,0-1,0.3-1.6,0.9V20h-1.4L31.9,13.4L31.9,13.4z"/>
							<path d="M39.3,17.6v-4.2h1.4v4c0,1.1,0.3,1.6,1.1,1.6c0.6,0,1-0.3,1.6-1v-4.6h1.4V20h-1.1l-0.2-1l0,0
								c-0.6,0.7-1.2,1.2-2.2,1.2C39.9,20.2,39.3,19.2,39.3,17.6z"/>
							<path d="M46.8,13.4h1.1l0.1,0.9l0,0c0.6-0.6,1.2-1.1,2-1.1c1,0,1.5,0.5,1.8,1.2c0.6-0.7,1.3-1.2,2.1-1.2c1.4,0,2,0.9,2,2.6
								V20h-1.4v-4c0-1.1-0.4-1.6-1.1-1.6c-0.5,0-0.9,0.3-1.5,0.9V20h-1.4v-4c0-1.1-0.3-1.6-1.1-1.6c-0.4,0-0.9,0.3-1.5,0.9V20h-1.4
								v-6.6H46.8z"/>
							<path d="M59.3,19.3L59.3,19.3L59.2,20h-1.1v-9.6h1.4V13v1.1c0.6-0.5,1.3-0.9,2-0.9c1.7,0,2.6,1.3,2.6,3.4
								c0,2.3-1.4,3.6-2.8,3.6C60.6,20.2,59.9,19.9,59.3,19.3z M62.6,16.6c0-1.4-0.4-2.2-1.5-2.2c-0.5,0-1,0.3-1.6,0.8v3.2
								c0.5,0.4,1,0.6,1.4,0.6C61.9,19,62.6,18.2,62.6,16.6z"/>
							<path d="M65.2,16.7c0-2.1,1.5-3.5,3-3.5c1.8,0,2.7,1.3,2.7,3.1c0,0.3,0,0.5-0.1,0.7h-4.3c0.1,1.3,0.9,2,2,2
								c0.6,0,1.1-0.2,1.6-0.5l0.5,0.9c-0.6,0.4-1.4,0.7-2.2,0.7C66.6,20.2,65.2,18.9,65.2,16.7z M69.7,16.1c0-1.1-0.5-1.8-1.5-1.8
								c-0.8,0-1.6,0.6-1.7,1.8H69.7z"/>
							<path d="M72.4,13.4h1.1l0.1,1.2l0,0c0.5-0.9,1.2-1.4,1.9-1.4c0.3,0,0.5,0,0.7,0.1l-0.3,1.2c-0.2-0.1-0.4-0.1-0.7-0.1
								c-0.5,0-1.2,0.4-1.6,1.4V20h-1.4v-6.6H72.4z"/>
						</g>
					</g>
					<g id="COLE" transform="translate(179.000000, 0.000000)">
						<path class="st1" d="M9.3,0.8h132.5c4.4,0,8,3.6,8,8v32.5c0,4.4-3.6,8-8,8H9.3c-4.4,0-8-3.6-8-8V8.8C1.3,4.3,4.8,0.8,9.3,0.8z
							"/>
						<g class="st2">
							<path class="st3" d="M56.4,25.5c0-3.6,2.2-5.8,5-5.8c1.4,0,2.5,0.7,3.1,1.4l-1,1.2c-0.6-0.6-1.3-1-2.2-1
								c-1.9,0-3.2,1.6-3.2,4.2s1.2,4.2,3.2,4.2c1,0,1.8-0.4,2.4-1.2l0.9,1.1c-0.9,1-2,1.6-3.4,1.6C58.5,31.2,56.4,29.1,56.4,25.5z"
								/>
							<path class="st3" d="M65.9,26.9c0-2.8,1.8-4.4,3.9-4.4c2,0,3.9,1.6,3.9,4.4c0,2.7-1.8,4.3-3.9,4.3
								C67.8,31.2,65.9,29.6,65.9,26.9z M71.9,26.9c0-1.8-0.8-2.9-2.1-2.9c-1.3,0-2.1,1.2-2.1,2.9c0,1.7,0.8,2.9,2.1,2.9
								S71.9,28.6,71.9,26.9z"/>
							<path class="st3" d="M75.7,29.1V19h1.7v10.1c0,0.5,0.2,0.6,0.4,0.6c0.1,0,0.1,0,0.3,0l0.2,1.3c-0.2,0.1-0.5,0.1-0.9,0.1
								C76.2,31.2,75.7,30.4,75.7,29.1z"/>
							<path class="st3" d="M80.3,20h6.5v1.5H82v3.1h4V26h-4v3.6h4.9V31h-6.7L80.3,20L80.3,20z"/>
							<path class="st3" d="M89.2,29.6h2.4v-7.7h-2v-1.1c1-0.2,1.8-0.5,2.4-0.8h1.3v9.6h2.2V31h-6.3V29.6z"/>
						</g>
					</g>
					<g transform="translate(124.000000, 100.000000)">
						<path class="st4" d="M8.5,0h244c4.4,0,8,3.6,8,8v34c0,4.4-3.6,8-8,8H8.5c-4.4,0-8-3.6-8-8V8C0.5,3.6,4.1,0,8.5,0z"/>
						<g class="st2">
							<path class="st5" d="M67,20h1.7v4.5h4.7V20h1.7v11h-1.7v-5h-4.7v5H67V20z"/>
							<path class="st5" d="M77.5,25.5c0-3.6,2.2-5.8,5-5.8c1.4,0,2.5,0.7,3.1,1.4l-0.9,1.1c-0.6-0.6-1.3-1-2.2-1
								c-1.9,0-3.2,1.6-3.2,4.2s1.2,4.2,3.2,4.2c1,0,1.8-0.4,2.4-1.2l0.9,1.1c-0.9,1-2,1.6-3.4,1.6C79.6,31.2,77.5,29.1,77.5,25.5z"
								/>
							<path class="st5" d="M87.7,20h2l2,5.6c0.3,0.7,0.5,1.5,0.7,2.2h0.1c0.3-0.8,0.5-1.5,0.7-2.2l2-5.6h2v11h-1.6v-5.5
								c0-1,0.1-2.4,0.2-3.4h-0.1l-0.9,2.5l-1.9,5.3h-1.1l-1.9-5.3L89,22.1h-0.1c0.1,1,0.2,2.4,0.2,3.4V31h-1.6V20H87.7z"/>
							<path class="st5" d="M98.7,20h1.8l1.6,5.7c0.4,1.3,0.6,2.3,1,3.6h0.1c0.4-1.3,0.6-2.4,1-3.6l1.6-5.7h1.8l-3.4,11h-2.1
								L98.7,20z"/>
							<path class="st5" d="M112.5,20h1.7v11h-1.7V20z"/>
							<path class="st5" d="M117.1,20h6.5v1.5h-4.8v3.1h4V26h-4v3.6h4.9V31H117L117.1,20L117.1,20z"/>
							<path class="st5" d="M129.3,22.8h1.4l0.1,0.9l0,0c0.7-0.6,1.6-1.1,2.5-1.1c2.1,0,3.3,1.7,3.3,4.2c0,2.8-1.7,4.5-3.6,4.5
								c-0.7,0-1.5-0.3-2.2-0.9v1.4v2.7h-1.7V22.8H129.3z M134.9,26.8c0-1.7-0.6-2.8-1.9-2.8c-0.6,0-1.3,0.3-2,1v4
								c0.6,0.6,1.3,0.8,1.8,0.8C134,29.8,134.9,28.7,134.9,26.8z"/>
							<path class="st5" d="M138.8,22.8h1.4l0.1,1.5l0,0c0.6-1.1,1.5-1.7,2.3-1.7c0.4,0,0.7,0.1,0.9,0.2l-0.3,1.5
								c-0.3-0.1-0.5-0.1-0.8-0.1c-0.7,0-1.5,0.5-2,1.8v5h-1.7v-8.2H138.8z"/>
							<path class="st5" d="M144.2,26.9c0-2.8,1.8-4.4,3.9-4.4c2,0,3.9,1.6,3.9,4.4c0,2.7-1.8,4.3-3.9,4.3S144.2,29.6,144.2,26.9z
								 M150.2,26.9c0-1.8-0.8-2.9-2.1-2.9s-2.1,1.2-2.1,2.9c0,1.7,0.8,2.9,2.1,2.9S150.2,28.6,150.2,26.9z"/>
							<path class="st5" d="M154,22.8h1.4l0.1,1.2l0,0c0.7-0.8,1.5-1.4,2.5-1.4c1.2,0,1.9,0.6,2.3,1.5c0.8-0.9,1.6-1.5,2.7-1.5
								c1.7,0,2.5,1.2,2.5,3.3V31h-1.7v-5c0-1.4-0.5-2-1.4-2c-0.6,0-1.2,0.4-1.9,1.1V31h-1.7v-5c0-1.4-0.4-2-1.4-2
								c-0.6,0-1.2,0.4-1.9,1.1V31h-1.7v-8.2H154z"/>
							<path class="st5" d="M167.5,26.9c0-2.8,1.8-4.4,3.9-4.4c2,0,3.9,1.6,3.9,4.4c0,2.7-1.8,4.3-3.9,4.3
								C169.4,31.2,167.5,29.6,167.5,26.9z M173.5,26.9c0-1.8-0.8-2.9-2.1-2.9s-2.1,1.2-2.1,2.9c0,1.7,0.8,2.9,2.1,2.9
								S173.5,28.6,173.5,26.9z"/>
							<path class="st5" d="M177.2,28.3v-4.2H176v-1.3l1.3-0.1l0.2-2.3h1.5v2.3h2.1v1.4H179v4.2c0,1,0.3,1.5,1.2,1.5
								c0.3,0,0.6-0.1,0.9-0.2l0.3,1.3c-0.5,0.2-1,0.3-1.6,0.3C177.9,31.2,177.2,30,177.2,28.3z"/>
							<path class="st5" d="M182.1,26.9c0-2.7,1.8-4.4,3.8-4.4c2.2,0,3.4,1.6,3.4,3.9c0,0.3,0,0.7-0.1,0.9h-5.4
								c0.1,1.6,1.1,2.5,2.5,2.5c0.7,0,1.4-0.2,2-0.6l0.6,1.1c-0.8,0.5-1.7,0.9-2.8,0.9C183.8,31.2,182.1,29.6,182.1,26.9z
								 M187.7,26.1c0-1.4-0.6-2.2-1.8-2.2c-1,0-1.9,0.8-2.1,2.2H187.7z"/>
							<path class="st5" d="M191.1,22.8h1.4l0.1,1.5l0,0c0.6-1.1,1.5-1.7,2.3-1.7c0.4,0,0.7,0.1,0.9,0.2l-0.3,1.5
								c-0.3-0.1-0.5-0.1-0.8-0.1c-0.7,0-1.5,0.5-2,1.8v5H191v-8.2H191.1z"/>
						</g>
					</g>
					<g transform="translate(496.000000, 100.000000)">
						<g id="HGF_X7">
							<path class="st6" d="M159.7,49.2V0.8H8.5C4.5,0.8,1.3,4,1.3,8v34c0,4,3.2,7.2,7.2,7.2H159.7z"/>
							<g class="st2">
								<path class="st3" d="M55,20h1.7v4.5h4.7V20h1.7v11h-1.7v-5h-4.7v5H55V20z"/>
								<path class="st3" d="M65.5,25.5c0-3.6,2.2-5.8,5.1-5.8c1.6,0,2.6,0.7,3.3,1.4L73,22.2c-0.5-0.6-1.2-1-2.3-1
									c-2.1,0-3.4,1.6-3.4,4.2s1.2,4.2,3.5,4.2c0.7,0,1.3-0.2,1.7-0.5v-2.6h-2.2v-1.4h3.8v4.8c-0.7,0.7-2,1.3-3.5,1.3
									C67.6,31.2,65.5,29.1,65.5,25.5z"/>
								<path class="st3" d="M76.6,20h6.5v1.5h-4.8v3.4h4.1v1.5h-4.1V31h-1.7V20z"/>
								<path class="st3" d="M84.3,26.1h4v1.3h-4V26.1z"/>
								<path class="st3" d="M91.9,25.3l-3-5.3h1.9l1.3,2.6c0.3,0.5,0.5,1,0.8,1.7H93c0.3-0.7,0.5-1.2,0.8-1.7l1.3-2.6h1.8l-3,5.4
									l3.2,5.6h-1.9l-1.5-2.7c-0.3-0.6-0.6-1.1-0.9-1.8h-0.1c-0.3,0.7-0.6,1.2-0.9,1.8L90.5,31h-1.8L91.9,25.3z"/>
								<path class="st3" d="M103.3,21.4h-5.2V20h7.1v1c-2.6,3.2-3,5.7-3.2,10h-1.8C100.5,27,101.2,24.4,103.3,21.4z"/>
							</g>
						</g>
						<g id="PA" transform="translate(159.000000, 0.000000)">
							<path class="st1" d="M1.3,0.8v48.5h91.2c4,0,7.2-3.2,7.2-7.2V8c0-4-3.2-7.2-7.2-7.2C92.5,0.8,1.3,0.8,1.3,0.8z"/>
							<g class="st2">
								<path class="st3" d="M41.8,22.8h1.4l0.1,0.9l0,0c0.7-0.6,1.6-1.1,2.5-1.1c2.1,0,3.3,1.7,3.3,4.2c0,2.8-1.7,4.5-3.6,4.5
									c-0.7,0-1.5-0.3-2.2-0.9v1.4v2.7h-1.7V22.8H41.8z M47.4,26.8c0-1.7-0.6-2.8-1.9-2.8c-0.6,0-1.3,0.3-2,1v4
									c0.6,0.6,1.3,0.8,1.8,0.8C46.5,29.8,47.4,28.7,47.4,26.8z"/>
								<path class="st3" d="M56.5,27.9h-3.8l-1,3.1h-1.8l3.7-11h2l3.7,11h-1.8L56.5,27.9z M56.1,26.5L55.6,25
									c-0.4-1.2-0.7-2.4-1-3.7h-0.1c-0.3,1.3-0.7,2.5-1,3.7L53,26.5H56.1z"/>
							</g>
						</g>
					</g>
					<g id="KAN" transform="translate(551.000000, 0.000000)">
						<path class="st1" d="M9.3,0.8h132.5c4.4,0,8,3.6,8,8v32.5c0,4.4-3.6,8-8,8H9.3c-4.4,0-8-3.6-8-8V8.8C1.3,4.3,4.8,0.8,9.3,0.8z
							"/>
						<g id="Text" transform="translate(58.000000, 14.000000)">
							<g class="st2">
								<path class="st3" d="M30.4,6.5h0.9l0.1,1l0,0c0.4-0.7,1-1.1,1.6-1.1c0.3,0,0.4,0,0.6,0.1l-0.2,1c-0.2-0.1-0.3-0.1-0.6-0.1
									c-0.4,0-1,0.3-1.3,1.2V12h-1.1V6.5z"/>
							</g>
							<g class="st2">
								<path class="st3" d="M2,6h1.7v5.2l0,0L7.9,6h1.9l-3.3,4.2l4,6.8h-2l-3.1-5.4l-1.7,2.1V17H2V6z"/>
								<path class="st3" d="M11.3,14.8c0-1.8,1.5-2.7,4.9-3.1c0-1-0.4-1.8-1.6-1.8c-0.9,0-1.7,0.4-2.4,0.8l-0.6-1.2
									c0.9-0.5,2-1.1,3.3-1.1c2.1,0,3,1.3,3,3.5v5h-1.4L16.3,16l0,0c-0.8,0.6-1.6,1.1-2.6,1.1C12.3,17.2,11.3,16.3,11.3,14.8z
									 M16.2,14.9v-2c-2.4,0.3-3.3,0.9-3.3,1.8c0,0.8,0.6,1.1,1.3,1.1S15.5,15.5,16.2,14.9z"/>
								<path class="st3" d="M20.4,8.8h1.4l0.1,1.1l0,0c0.8-0.7,1.6-1.4,2.7-1.4c1.8,0,2.5,1.2,2.5,3.3V17h-1.6v-5
									c0-1.4-0.4-2-1.4-2c-0.8,0-1.3,0.4-2,1.1V17h-1.7V8.8z"/>
							</g>
						</g>
					</g>
					<g transform="translate(380.000000, 117.000000)">
						<rect x="0.5" y="6" class="st4" width="100" height="3"/>
						<circle class="st4" cx="99" cy="7.5" r="7.5"/>
						<circle class="st4" cx="35" cy="7.5" r="5.5"/>
						<circle class="st4" cx="66" cy="7.5" r="5.5"/>
					</g>
					<path class="st4" d="M340.5,25h200c0.6,0,1,0.4,1,1l0,0c0,0.6-0.4,1-1,1h-200c-0.6,0-1-0.4-1-1l0,0
						C339.5,25.4,339.9,25,340.5,25z"/>
					<g id="결과" transform="translate(308.000000, 288.000000)">
						<g transform="translate(0.000000, 74.000000)">
							<g>
								<circle class="st7" cx="35.5" cy="35" r="35"/>
								<g id="text" transform="translate(15.000000, 26.000000)">
									<g class="st2">
										<path class="st3" d="M1.8,5.4h1.5v3.9h4.1V5.4h1.5V15H7.4v-4.4H3.3V15H1.8V5.4z"/>
										<path class="st3" d="M11.4,5.4h5.7v1.3h-4.2v2.9h3.5v1.3h-3.5V15h-1.5C11.4,15,11.4,5.4,11.4,5.4z"/>
										<path class="st3" d="M18.1,10.2c0-3.1,1.9-5,4.5-5c1.4,0,2.3,0.6,2.8,1.2l-0.8,1c-0.5-0.5-1.1-0.9-2-0.9
											c-1.8,0-3,1.4-3,3.6c0,2.3,1.1,3.7,3,3.7c0.6,0,1.2-0.2,1.5-0.5v-2.2h-1.9V9.9h3.3V14c-0.6,0.6-1.7,1.1-3,1.1
											C19.9,15.2,18.1,13.4,18.1,10.2z"/>
									</g>
									<g class="st2">
										<path class="st3" d="M30.7,10.9h-2.8v-0.8h3.8v0.6c-1.4,1.7-1.6,3-1.7,5.3h-0.9C29.1,13.8,29.5,12.5,30.7,10.9z"/>
										<path class="st3" d="M32.4,15.5c1.7-1.5,2.6-2.7,2.6-3.6c0-0.6-0.3-1.1-1-1.1c-0.5,0-0.8,0.3-1.2,0.7L32.3,11
											c0.5-0.5,1-0.9,1.8-0.9c1.1,0,1.8,0.7,1.8,1.8s-0.9,2.3-2.2,3.5c0.3,0,0.7-0.1,1-0.1h1.5V16h-3.8
											C32.4,16,32.4,15.5,32.4,15.5z"/>
										<path class="st3" d="M36.8,15.3l0.4-0.6c0.3,0.4,0.8,0.6,1.4,0.6c0.7,0,1.1-0.4,1.1-1c0-0.7-0.4-1.1-1.7-1.1v-0.7
											c1.2,0,1.5-0.4,1.5-1c0-0.5-0.3-0.8-0.9-0.9c-0.5,0-0.8,0.2-1.2,0.6l-0.5-0.6c0.5-0.4,1-0.7,1.7-0.7
											c1.1,0,1.8,0.5,1.8,1.5c0,0.7-0.4,1.2-1,1.4l0,0c0.7,0.2,1.2,0.7,1.2,1.5c0,1.1-0.9,1.7-2,1.7
											C37.8,16.1,37.2,15.7,36.8,15.3z"/>
									</g>
								</g>
							</g>
							<g transform="translate(184.000000, 0.000000)">
								<circle class="st7" cx="35.5" cy="35" r="35"/>
								<g transform="translate(15.000000, 26.000000)">
									<g class="st2">
										<path class="st3" d="M1.8,5.4h1.5v3.9h4.1V5.4h1.5V15H7.4v-4.4H3.3V15H1.8V5.4z"/>
										<path class="st3" d="M10.9,10.2c0-3.1,1.9-5,4.5-5c1.4,0,2.3,0.6,2.8,1.2l-0.8,1c-0.5-0.5-1.1-0.9-2-0.9
											c-1.8,0-3,1.4-3,3.6c0,2.3,1.1,3.7,3,3.7c0.6,0,1.2-0.2,1.5-0.5v-2.2H15V9.9h3.3V14c-0.6,0.6-1.7,1.1-3,1.1
											C12.7,15.2,10.9,13.4,10.9,10.2z"/>
										<path class="st3" d="M20.5,5.4h5.7v1.3H22v2.9h3.5v1.3H22V15h-1.5V5.4z"/>
									</g>
									<g class="st2">
										<path class="st3" d="M30.7,10.9h-2.8v-0.8h3.8v0.6c-1.4,1.7-1.6,3-1.7,5.3h-0.9C29.1,13.8,29.5,12.5,30.7,10.9z"/>
										<path class="st3" d="M32.4,15.5c1.7-1.5,2.6-2.7,2.6-3.6c0-0.6-0.3-1.1-1-1.1c-0.5,0-0.8,0.3-1.2,0.7L32.3,11
											c0.5-0.5,1-0.9,1.8-0.9c1.1,0,1.8,0.7,1.8,1.8s-0.9,2.3-2.2,3.5c0.3,0,0.7-0.1,1-0.1h1.5V16h-3.8
											C32.4,16,32.4,15.5,32.4,15.5z"/>
										<path class="st3" d="M37,14.5c0-0.8,0.5-1.3,1.1-1.6l0,0c-0.4-0.3-0.8-0.8-0.8-1.4c0-0.9,0.7-1.5,1.7-1.5s1.7,0.6,1.7,1.6
											c0,0.6-0.4,1.1-0.8,1.4l0,0c0.5,0.3,1,0.8,1,1.6c0,0.9-0.8,1.5-1.9,1.5C37.8,16.1,37,15.4,37,14.5z M39.9,14.5
											c0-0.7-0.6-1-1.4-1.3c-0.4,0.3-0.7,0.7-0.7,1.2c0,0.6,0.5,1,1.1,1C39.5,15.4,39.9,15.1,39.9,14.5z M39.8,11.6
											c0-0.5-0.3-1-0.9-1c-0.5,0-0.8,0.3-0.8,0.9c0,0.6,0.6,0.9,1.2,1.2C39.6,12.4,39.8,12,39.8,11.6z"/>
									</g>
								</g>
							</g>
						</g>
						<g id="splice" transform="translate(28.000000, 0.000000)">
							
								<g id="arrow" transform="translate(32.000000, 32.137931) rotate(-20.000000) translate(-32.000000, -32.137931) translate(7.000000, 8.000000)">
								<path id="Line" class="st8" d="M5.6,43.8L49.8,0.6"/>
								<polyline id="Stroke-1" class="st9" points="14.7,43.6 5.4,44 5.8,34.9 								"/>
							</g>
							
								<g transform="translate(166.000000, 32.140000) rotate(20.000000) translate(-166.000000, -32.140000) translate(141.000000, 8.000000)">
								<path class="st8" d="M45.4,43.4L1.2,0.2"/>
								<polyline class="st9" points="36.3,43.2 45.6,43.6 45.2,34.5 								"/>
							</g>
						</g>
						<g class="st2">
							<path d="M101.3,25.5h-3.1L97.5,28h-1.4l2.9-8.8h1.6l2.9,8.8H102L101.3,25.5z M101,24.4l-0.3-1.2c-0.3-1-0.6-1.9-0.8-2.9l0,0
								c-0.3,1-0.5,2-0.8,2.9l-0.6,1.2H101z"/>
							<path d="M104.6,26.5v-8h1.4v8.1c0,0.4,0.2,0.5,0.3,0.5c0.1,0,0.1,0,0.2,0l0.2,1c-0.2,0.1-0.4,0.1-0.7,0.1
								C104.9,28.2,104.6,27.5,104.6,26.5z"/>
							<path d="M108.3,25.8v-3.3h-1v-1l1-0.1l0.2-1.8h1.2v1.8h1.7v1.1h-1.7v3.3c0,0.8,0.3,1.2,1,1.2c0.2,0,0.5-0.1,0.7-0.2l0.3,1
								c-0.4,0.1-0.8,0.2-1.3,0.2C108.9,28.2,108.3,27.2,108.3,25.8z"/>
							<path d="M112.2,24.7c0-2.1,1.5-3.5,3-3.5c1.8,0,2.7,1.3,2.7,3.1c0,0.3,0,0.5-0.1,0.7h-4.3c0.1,1.3,0.9,2,2,2
								c0.6,0,1.1-0.2,1.6-0.5l0.5,0.9c-0.6,0.4-1.4,0.7-2.2,0.7C113.6,28.2,112.2,26.9,112.2,24.7z M116.7,24.1
								c0-1.1-0.5-1.8-1.5-1.8c-0.8,0-1.6,0.6-1.7,1.8H116.7z"/>
							<path d="M119.5,21.4h1.1l0.1,1.2l0,0c0.5-0.9,1.2-1.4,1.9-1.4c0.3,0,0.5,0,0.7,0.1l-0.3,1.2c-0.2-0.1-0.4-0.1-0.7-0.1
								c-0.5,0-1.2,0.4-1.6,1.4V28h-1.2V21.4z"/>
							<path d="M124.4,21.4h1.1l0.1,0.9l0,0c0.6-0.6,1.3-1.1,2.2-1.1c1.4,0,2,0.9,2,2.6V28h-1.3v-4c0-1.1-0.3-1.6-1.1-1.6
								c-0.6,0-1,0.3-1.6,0.9V28h-1.4V21.4z"/>
							<path d="M131.5,26.2c0-1.4,1.2-2.1,3.9-2.4c0-0.8-0.3-1.4-1.3-1.4c-0.7,0-1.3,0.3-1.9,0.7l-0.5-0.9c0.7-0.4,1.6-0.9,2.7-0.9
								c1.6,0,2.4,1,2.4,2.8v4h-1.1l-0.1-0.8l0,0c-0.6,0.5-1.3,0.9-2.1,0.9C132.3,28.2,131.5,27.4,131.5,26.2z M135.4,26.3v-1.6
								c-2,0.2-2.6,0.7-2.6,1.5c0,0.6,0.4,0.9,1,0.9C134.4,27.1,134.9,26.8,135.4,26.3z"/>
							<path d="M138.8,25.8v-3.3h-1v-1l1-0.1l0.2-1.8h1.2v1.8h1.7v1.1h-1.7v3.3c0,0.8,0.3,1.2,1,1.2c0.2,0,0.5-0.1,0.7-0.2l0.3,1
								c-0.4,0.1-0.8,0.2-1.3,0.2C139.3,28.2,138.8,27.2,138.8,25.8z"/>
							<path d="M143.1,19.4c0-0.5,0.4-0.8,0.9-0.8s0.9,0.3,0.9,0.8s-0.4,0.8-0.9,0.8S143.1,19.8,143.1,19.4z M143.3,21.4h1.4V28
								h-1.4V21.4z"/>
							<path d="M145.9,21.4h1.4l1.1,3.6c0.2,0.6,0.4,1.3,0.6,2l0,0c0.2-0.6,0.4-1.3,0.6-2l1.1-3.6h1.3l-2.3,6.6h-1.6L145.9,21.4z"/>
							<path d="M152.7,24.7c0-2.1,1.5-3.5,3-3.5c1.8,0,2.7,1.3,2.7,3.1c0,0.3,0,0.5-0.1,0.7H154c0.1,1.3,0.9,2,2,2
								c0.6,0,1.1-0.2,1.6-0.5l0.5,0.9c-0.6,0.4-1.4,0.7-2.2,0.7C154.2,28.2,152.7,26.9,152.7,24.7z M157.3,24.1
								c0-1.1-0.5-1.8-1.5-1.8c-0.8,0-1.6,0.6-1.7,1.8H157.3z"/>
						</g>
						<text transform="matrix(1 0 0 1 158.9516 28)" class="st10 st11"> </text>
						<g class="st2">
							<path d="M105.6,45.2l0.6-0.9c0.6,0.5,1.2,0.8,1.9,0.8c0.8,0,1.2-0.4,1.2-0.9c0-0.6-0.7-0.9-1.5-1.1c-0.9-0.3-1.9-0.8-1.9-1.9
								c0-1.1,0.9-1.9,2.3-1.9c0.9,0,1.6,0.4,2.1,0.8l-0.6,0.9c-0.5-0.3-0.9-0.6-1.5-0.6c-0.7,0-1.1,0.4-1.1,0.8
								c0,0.6,0.7,0.8,1.4,1c0.9,0.3,1.9,0.8,1.9,2c0,1.1-0.9,2-2.5,2C107.2,46.2,106.3,45.8,105.6,45.2z"/>
							<path d="M112.1,39.4h1.1l0.1,0.7l0,0c0.6-0.5,1.3-0.9,2-0.9c1.7,0,2.6,1.3,2.6,3.4c0,2.3-1.4,3.6-2.8,3.6
								c-0.6,0-1.2-0.3-1.7-0.7v1.1v2.1H112v-9.3H112.1z M116.6,42.6c0-1.4-0.4-2.2-1.5-2.2c-0.5,0-1,0.3-1.6,0.8v3.2
								c0.5,0.4,1,0.6,1.4,0.6C115.9,45,116.6,44.2,116.6,42.6z"/>
							<path d="M119.7,44.5v-8h1.4v8.1c0,0.4,0.2,0.5,0.3,0.5c0.1,0,0.1,0,0.2,0l0.2,1c-0.2,0.1-0.4,0.1-0.7,0.1
								C120,46.2,119.7,45.5,119.7,44.5z"/>
							<path d="M123,37.4c0-0.5,0.4-0.8,0.9-0.8s0.9,0.3,0.9,0.8s-0.4,0.8-0.9,0.8S123,37.8,123,37.4z M123.2,39.4h1.4V46h-1.4V39.4
								z"/>
							<path d="M126.2,42.7c0-2.2,1.5-3.5,3.3-3.5c0.8,0,1.5,0.3,1.9,0.8l-0.7,0.9c-0.4-0.3-0.7-0.5-1.2-0.5c-1.1,0-1.9,0.9-1.9,2.3
								c0,1.4,0.8,2.3,1.9,2.3c0.6,0,1-0.3,1.4-0.6l0.6,0.9c-0.6,0.5-1.4,0.8-2.1,0.8C127.6,46.2,126.2,44.9,126.2,42.7z"/>
							<path d="M132.7,37.4c0-0.5,0.4-0.8,0.9-0.8s0.9,0.3,0.9,0.8s-0.4,0.8-0.9,0.8S132.7,37.8,132.7,37.4z M132.9,39.4h1.4V46
								h-1.4V39.4z"/>
							<path d="M136.3,39.4h1.1l0.1,0.9l0,0c0.6-0.6,1.3-1.1,2.2-1.1c1.4,0,2,0.9,2,2.6V46h-1.4v-4c0-1.1-0.3-1.6-1.1-1.6
								c-0.6,0-1,0.3-1.6,0.9V46h-1.4L136.3,39.4L136.3,39.4z"/>
							<path d="M143.3,47.2c0-0.6,0.3-1.1,1-1.4v-0.1c-0.3-0.2-0.6-0.6-0.6-1.1s0.4-1,0.7-1.2l0,0c-0.4-0.3-0.9-1-0.9-1.8
								c0-1.5,1.2-2.4,2.6-2.4c0.4,0,0.7,0.1,1,0.2h2.3v1h-1.3c0.3,0.3,0.4,0.7,0.4,1.2c0,1.4-1.1,2.3-2.5,2.3
								c-0.3,0-0.6-0.1-0.9-0.2c-0.2,0.2-0.4,0.4-0.4,0.7c0,0.4,0.3,0.6,1.1,0.6h1.2c1.6,0,2.4,0.5,2.4,1.6c0,1.3-1.3,2.3-3.5,2.3
								C144.5,49,143.3,48.4,143.3,47.2z M148.2,46.9c0-0.6-0.4-0.7-1.2-0.7h-1c-0.3,0-0.6,0-0.9-0.1c-0.4,0.3-0.6,0.6-0.6,1
								c0,0.6,0.7,1,1.8,1C147.4,48.1,148.2,47.5,148.2,46.9z M147.4,41.6c0-0.9-0.6-1.4-1.2-1.4s-1.2,0.5-1.2,1.4s0.6,1.4,1.2,1.4
								S147.4,42.5,147.4,41.6z"/>
						</g>
					</g>
				</g>
			</g>
		</g>
	</g>
</g>
</svg>
