<?xml version="1.0" encoding="utf-8"?>
<!-- Generator: Adobe Illustrator 23.0.1, SVG Export Plug-In . SVG Version: 6.00 Build 0)  -->
<svg version="1.1" id="레이어_1" xmlns="http://www.w3.org/2000/svg" xmlns:xlink="http://www.w3.org/1999/xlink" x="0px"
	 y="0px" viewBox="0 0 323.9 276.6" style="enable-background:new 0 0 323.9 276.6;" xml:space="preserve">
<style type="text/css">
	.st0{fill-rule:evenodd;clip-rule:evenodd;fill:#FFFFFF;stroke:#B54142;}
	.st1{enable-background:new    ;}
	.st2{fill:#B54142;}
	.st3{fill-rule:evenodd;clip-rule:evenodd;fill:#FFFFFF;stroke:#B54142;stroke-width:0.5;}
	.st4{fill-rule:evenodd;clip-rule:evenodd;fill:#B54142;}
	.st5{fill:#FFFFFF;}
	.st6{fill:none;stroke:#B54142;}
	.st7{fill:none;stroke:#B54142;stroke-linecap:square;}
	.st8{fill:none;stroke:#B54142;stroke-linecap:round;stroke-linejoin:round;}
	.st9{font-family:'NotoSansCJKkr-Regular-KSCpc-EUC-H';}
	.st10{font-size:10px;}
</style>
<title>04- DIAGRAM</title>
<desc>Created with Sketch.</desc>
<g id="Page-1">
	<g id="mobile1" transform="translate(0.000000, -526.000000)">
		<g transform="translate(0.000000, 526.000000)">
			<g id="Diagram" transform="translate(30.000000, 20.000000)">
				<g id="표-02" transform="translate(34.000000, 116.000000)">
					<g id="number" transform="translate(0.000000, 5.000000)">
						<g>
							<g transform="translate(51.000000, 0.000000)">
								<path id="bg" class="st0" d="M-20.5-18.9h6c2.2,0,4,1.8,4,4v6c0,2.2-1.8,4-4,4h-6c-2.2,0-4-1.8-4-4v-6
									C-24.5-17.1-22.7-18.9-20.5-18.9z"/>
								<g class="st1">
									<path class="st2" d="M-16-10.1h-0.8v1.7h-0.5v-1.7h-2.5v-0.3l2.6-3.9h0.5v3.8h0.7C-16-10.5-16-10.1-16-10.1z M-17.3-10.5
										v-2.1c0-0.3,0-0.7,0-1l0,0c-0.1,0.3-0.3,0.6-0.4,0.8l-1.6,2.3H-17.3z"/>
								</g>
							</g>
							<g transform="translate(34.000000, 0.000000)">
								<path class="st3" d="M-20.8-19.2h6.5c2.2,0,4,1.8,4,4v6.5c0,2.2-1.8,4-4,4h-6.5c-2.2,0-4-1.8-4-4v-6.5
									C-24.8-17.4-23-19.2-20.8-19.2z"/>
								<g class="st1">
									<path class="st2" d="M-19.8-9.1l0.3-0.3c0.3,0.4,0.8,0.7,1.5,0.7c0.8,0,1.3-0.5,1.3-1.2c0-0.8-0.5-1.3-1.9-1.3v-0.4
										c1.3,0,1.7-0.6,1.7-1.2c0-0.6-0.4-1-1.1-1.1c-0.5,0-1,0.3-1.3,0.6l-0.2-0.4c0.4-0.3,0.9-0.6,1.5-0.6c0.9,0,1.6,0.5,1.6,1.4
										c0,0.8-0.4,1.2-1.1,1.4l0,0c0.7,0.2,1.3,0.7,1.3,1.5c0,1-0.8,1.6-1.8,1.6C-18.8-8.3-19.4-8.7-19.8-9.1z"/>
								</g>
							</g>
							<g transform="translate(17.000000, 0.000000)">
								<path class="st3" d="M-20.8-19.2h6.5c2.2,0,4,1.8,4,4v6.5c0,2.2-1.8,4-4,4h-6.5c-2.2,0-4-1.8-4-4v-6.5
									C-24.8-17.4-23-19.2-20.8-19.2z"/>
								<g class="st1">
									<path class="st2" d="M-19.6-8.7c2-1.7,2.8-2.9,2.8-4c0-0.7-0.4-1.3-1.2-1.3c-0.5,0-1,0.3-1.3,0.7l-0.4-0.2
										c0.5-0.5,1-0.8,1.7-0.8c1,0,1.6,0.7,1.6,1.7c0,1.2-0.9,2.4-2.5,3.9c0.3,0,0.7,0,1,0h1.8v0.3h-3.5
										C-19.6-8.4-19.6-8.7-19.6-8.7z"/>
								</g>
							</g>
							<g>
								<path class="st3" d="M-20.8-19.2h6.5c2.2,0,4,1.8,4,4v6.5c0,2.2-1.8,4-4,4h-6.5c-2.2,0-4-1.8-4-4v-6.5
									C-24.8-17.4-23-19.2-20.8-19.2z"/>
								<g class="st1">
									<path class="st2" d="M-19.3-8.8h1.3v-4.7h-1v-0.4c0.5-0.1,0.8-0.2,1.1-0.4h0.4v5.4h1.2v0.5h-3V-8.8z"/>
								</g>
							</g>
						</g>
						<g transform="translate(164.000000, 0.000000)">
							<g id="Stacked-Group">
								<g transform="translate(68.000000, 0.000000)">
									<path class="st3" d="M-20.8-19.2h6.5c2.2,0,4,1.8,4,4v6.5c0,2.2-1.8,4-4,4h-6.5c-2.2,0-4-1.8-4-4v-6.5
										C-24.8-17.4-23-19.2-20.8-19.2z"/>
									<g class="st1">
										<path class="st2" d="M-19.2-9.2c0.3,0.3,0.6,0.5,1,0.5c0.8,0,1.5-0.7,1.6-2.7c-0.4,0.4-0.9,0.8-1.5,0.8
											c-1,0-1.6-0.6-1.6-1.8c0-1.1,0.7-1.9,1.6-1.9c1.1,0,1.9,0.9,1.9,2.7c0,2.5-1,3.3-2,3.3c-0.6,0-1-0.2-1.3-0.6L-19.2-9.2z
											 M-16.6-11.9c0-1.3-0.5-2.1-1.4-2.1c-0.6,0-1.1,0.6-1.1,1.5c0,0.8,0.4,1.5,1.2,1.5C-17.6-11-17.1-11.3-16.6-11.9z"/>
									</g>
								</g>
								<g transform="translate(51.000000, 0.000000)">
									<path class="st3" d="M-20.8-19.2h6.5c2.2,0,4,1.8,4,4v6.5c0,2.2-1.8,4-4,4h-6.5c-2.2,0-4-1.8-4-4v-6.5
										C-24.8-17.4-23-19.2-20.8-19.2z"/>
									<g class="st1">
										<path class="st2" d="M-19.6-9.8c0-0.8,0.6-1.4,1.1-1.7l0,0c-0.4-0.3-0.8-0.8-0.8-1.4c0-0.8,0.7-1.4,1.5-1.4
											c1,0,1.5,0.6,1.5,1.5c0,0.6-0.5,1.2-0.8,1.4l0,0c0.5,0.3,1,0.7,1,1.5s-0.7,1.5-1.7,1.5C-18.9-8.3-19.6-9-19.6-9.8z
											 M-16.6-9.8c0-0.9-0.8-1.2-1.7-1.6c-0.6,0.3-1,0.8-1,1.5s0.6,1.2,1.4,1.2C-17.1-8.7-16.6-9.2-16.6-9.8z M-16.7-12.8
											c0-0.6-0.4-1.2-1.1-1.2c-0.6,0-1,0.4-1,1.1c0,0.8,0.7,1.1,1.5,1.4C-17-11.8-16.7-12.3-16.7-12.8z"/>
									</g>
								</g>
								<g transform="translate(34.000000, 0.000000)">
									<path class="st3" d="M-20.8-19.2h6.5c2.2,0,4,1.8,4,4v6.5c0,2.2-1.8,4-4,4h-6.5c-2.2,0-4-1.8-4-4v-6.5
										C-24.8-17.4-23-19.2-20.8-19.2z"/>
									<g class="st1">
										<path class="st2" d="M-16.7-13.8h-3v-0.4h3.5v0.3c-1.3,1.8-1.6,3.2-1.7,5.5h-0.5C-18.3-10.7-17.8-12.2-16.7-13.8z"/>
									</g>
								</g>
								<g transform="translate(17.000000, 0.000000)">
									<path class="st3" d="M-20.8-19.2h6.5c2.2,0,4,1.8,4,4v6.5c0,2.2-1.8,4-4,4h-6.5c-2.2,0-4-1.8-4-4v-6.5
										C-24.8-17.4-23-19.2-20.8-19.2z"/>
									<g class="st1">
										<path class="st2" d="M-16.5-13.5c-0.2-0.3-0.6-0.5-1-0.5c-0.8,0.1-1.5,0.8-1.6,2.8c0.4-0.5,0.9-0.8,1.4-0.8
											c1,0,1.6,0.6,1.6,1.8c0,1.1-0.7,1.9-1.6,1.9c-1.1,0-1.9-1-1.9-2.9c0-2.4,1-3.2,2.1-3.2c0.5,0,0.9,0.2,1.2,0.6L-16.5-13.5z
											 M-16.5-10.2c0-0.8-0.4-1.5-1.2-1.5c-0.4,0.1-0.9,0.3-1.4,0.9c0.1,1.3,0.5,2.1,1.4,2.1C-17-8.7-16.5-9.3-16.5-10.2z"/>
									</g>
								</g>
								<g>
									<path class="st0" d="M-20.5-18.9h6c2.2,0,4,1.8,4,4v6c0,2.2-1.8,4-4,4h-6c-2.2,0-4-1.8-4-4v-6
										C-24.5-17.1-22.7-18.9-20.5-18.9z"/>
									<g class="st1">
										<path class="st2" d="M-19.8-9.1l0.3-0.3c0.3,0.4,0.8,0.7,1.5,0.7s1.4-0.6,1.4-1.6c0-0.9-0.5-1.5-1.3-1.5
											c-0.5,0-0.8,0.2-1.1,0.4l-0.3-0.2l0.2-2.7h2.7v0.4h-2.3l-0.2,2c0.3-0.2,0.6-0.3,1-0.3c1,0,1.7,0.6,1.7,1.9s-0.9,2-1.8,2
											S-19.4-8.7-19.8-9.1z"/>
									</g>
								</g>
							</g>
							<g transform="translate(0.000000, 17.000000)">
								<g transform="translate(68.000000, 0.000000)">
									<path class="st3" d="M-20.8-19.2h6.5c2.2,0,4,1.8,4,4v6.5c0,2.2-1.8,4-4,4h-6.5c-2.2,0-4-1.8-4-4v-6.5
										C-24.8-17.4-23-19.2-20.8-19.2z"/>
									<g class="st1">
										<path class="st2" d="M-19.8-9.1l0.3-0.3c0.3,0.4,0.8,0.7,1.5,0.7c0.8,0,1.3-0.5,1.3-1.2c0-0.8-0.5-1.3-1.9-1.3v-0.4
											c1.3,0,1.7-0.6,1.7-1.2c0-0.6-0.4-1-1.1-1.1c-0.5,0-1,0.3-1.3,0.6l-0.2-0.4c0.4-0.3,0.9-0.6,1.5-0.6
											c0.9,0,1.6,0.5,1.6,1.4c0,0.8-0.4,1.2-1.1,1.4l0,0c0.7,0.2,1.3,0.7,1.3,1.5c0,1-0.8,1.6-1.8,1.6
											C-18.8-8.3-19.4-8.7-19.8-9.1z"/>
									</g>
								</g>
								<g transform="translate(34.000000, 0.000000)">
									<path class="st3" d="M-20.8-19.2h6.5c2.2,0,4,1.8,4,4v6.5c0,2.2-1.8,4-4,4h-6.5c-2.2,0-4-1.8-4-4v-6.5
										C-24.8-17.4-23-19.2-20.8-19.2z"/>
									<g class="st1">
										<path class="st2" d="M-19.6-8.7c2-1.7,2.8-2.9,2.8-4c0-0.7-0.4-1.3-1.2-1.3c-0.5,0-1,0.3-1.3,0.7l-0.4-0.2
											c0.5-0.5,1-0.8,1.7-0.8c1,0,1.6,0.7,1.6,1.7c0,1.2-0.9,2.4-2.5,3.9c0.3,0,0.7,0,1,0h1.8v0.3h-3.5
											C-19.6-8.4-19.6-8.7-19.6-8.7z"/>
									</g>
								</g>
								<g transform="translate(51.000000, 0.000000)">
									<path class="st3" d="M-20.8-19.2h6.5c2.2,0,4,1.8,4,4v6.5c0,2.2-1.8,4-4,4h-6.5c-2.2,0-4-1.8-4-4v-6.5
										C-24.8-17.4-23-19.2-20.8-19.2z"/>
									<g class="st1">
										<path class="st2" d="M-19.8-9.1l0.3-0.3c0.3,0.4,0.8,0.7,1.5,0.7c0.8,0,1.3-0.5,1.3-1.2c0-0.8-0.5-1.3-1.9-1.3v-0.4
											c1.3,0,1.7-0.6,1.7-1.2c0-0.6-0.4-1-1.1-1.1c-0.5,0-1,0.3-1.3,0.6l-0.2-0.4c0.4-0.3,0.9-0.6,1.5-0.6
											c0.9,0,1.6,0.5,1.6,1.4c0,0.8-0.4,1.2-1.1,1.4l0,0c0.7,0.2,1.3,0.7,1.3,1.5c0,1-0.8,1.6-1.8,1.6
											C-18.8-8.3-19.4-8.7-19.8-9.1z"/>
									</g>
								</g>
								<g transform="translate(17.000000, 0.000000)">
									<path class="st3" d="M-20.8-19.2h6.5c2.2,0,4,1.8,4,4v6.5c0,2.2-1.8,4-4,4h-6.5c-2.2,0-4-1.8-4-4v-6.5
										C-24.8-17.4-23-19.2-20.8-19.2z"/>
									<g class="st1">
										<path class="st2" d="M-21.3-8.8h1.3v-4.7h-1v-0.4c0.5-0.1,0.8-0.2,1.1-0.4h0.4v5.4h1.2v0.5h-3V-8.8z"/>
										<path class="st2" d="M-17-8.8h1.3v-4.7h-1v-0.4c0.5-0.1,0.8-0.2,1.1-0.4h0.4v5.4h1.2v0.5h-3V-8.8z"/>
									</g>
								</g>
								<g>
									<path class="st3" d="M-20.8-19.2h6.5c2.2,0,4,1.8,4,4v6.5c0,2.2-1.8,4-4,4h-6.5c-2.2,0-4-1.8-4-4v-6.5
										C-24.8-17.4-23-19.2-20.8-19.2z"/>
									<g class="st1">
										<path class="st2" d="M-21.3-8.8h1.3v-4.7h-1v-0.4c0.5-0.1,0.8-0.2,1.1-0.4h0.4v5.4h1.2v0.5h-3V-8.8z"/>
										<path class="st2" d="M-17.3-11.3c0-2,0.7-3,1.7-3c1.1,0,1.7,1,1.7,3s-0.7,3-1.7,3S-17.3-9.3-17.3-11.3z M-14.3-11.3
											c0-1.7-0.5-2.6-1.2-2.6c-0.8,0-1.3,0.9-1.3,2.6c0,1.8,0.5,2.6,1.3,2.6C-14.8-8.7-14.3-9.6-14.3-11.3z"/>
									</g>
								</g>
							</g>
							<g transform="translate(0.000000, 34.000000)">
								<g transform="translate(34.000000, 0.000000)">
									<path class="st3" d="M-20.8-19.2h6.5c2.2,0,4,1.8,4,4v6.5c0,2.2-1.8,4-4,4h-6.5c-2.2,0-4-1.8-4-4v-6.5
										C-24.8-17.4-23-19.2-20.8-19.2z"/>
									<g class="st1">
										<path class="st2" d="M-21.3-8.8h1.3v-4.7h-1v-0.4c0.5-0.1,0.8-0.2,1.1-0.4h0.4v5.4h1.2v0.5h-3V-8.8z"/>
										<path class="st2" d="M-14.4-13.8h-2.9v-0.4h3.5v0.3c-1.4,1.8-1.7,3.2-1.8,5.5h-0.5C-16-10.7-15.5-12.2-14.4-13.8z"/>
									</g>
								</g>
								<g transform="translate(51.000000, 0.000000)">
									<path class="st3" d="M-20.8-19.2h6.5c2.2,0,4,1.8,4,4v6.5c0,2.2-1.8,4-4,4h-6.5c-2.2,0-4-1.8-4-4v-6.5
										C-24.8-17.4-23-19.2-20.8-19.2z"/>
									<g class="st1">
										<path class="st2" d="M-21.3-8.8h1.3v-4.7h-1v-0.4c0.5-0.1,0.8-0.2,1.1-0.4h0.4v5.4h1.2v0.5h-3V-8.8z"/>
										<path class="st2" d="M-17.4-9.8c0-0.8,0.6-1.4,1.1-1.7l0,0c-0.4-0.3-0.7-0.8-0.7-1.4c0-0.8,0.7-1.4,1.5-1.4
											c1,0,1.5,0.6,1.5,1.5c0,0.6-0.5,1.2-0.8,1.4l0,0c0.5,0.3,1,0.7,1,1.5s-0.7,1.5-1.7,1.5C-16.6-8.3-17.4-9-17.4-9.8z
											 M-14.3-9.8c0-0.9-0.8-1.2-1.7-1.6c-0.6,0.3-1,0.8-1,1.5s0.6,1.2,1.4,1.2C-14.8-8.7-14.3-9.2-14.3-9.8z M-14.4-12.8
											c0-0.6-0.4-1.2-1.1-1.2c-0.6,0-1,0.4-1,1.1c0,0.8,0.7,1.1,1.5,1.4C-14.7-11.8-14.4-12.3-14.4-12.8z"/>
									</g>
								</g>
								<g transform="translate(17.000000, 0.000000)">
									<path class="st3" d="M-20.8-19.2h6.5c2.2,0,4,1.8,4,4v6.5c0,2.2-1.8,4-4,4h-6.5c-2.2,0-4-1.8-4-4v-6.5
										C-24.8-17.4-23-19.2-20.8-19.2z"/>
									<g class="st1">
										<path class="st2" d="M-21.3-8.8h1.3v-4.7h-1v-0.4c0.5-0.1,0.8-0.2,1.1-0.4h0.4v5.4h1.2v0.5h-3V-8.8z"/>
										<path class="st2" d="M-14.2-13.5c-0.2-0.3-0.6-0.5-1-0.5c-0.8,0.1-1.6,0.8-1.6,2.8c0.4-0.5,0.9-0.8,1.4-0.8
											c1,0,1.6,0.6,1.6,1.8c0,1.1-0.7,1.9-1.6,1.9c-1.1,0-1.9-1-1.9-2.9c0-2.4,1-3.2,2.1-3.2c0.5,0,0.9,0.2,1.2,0.6L-14.2-13.5z
											 M-14.3-10.2c0-0.8-0.4-1.5-1.2-1.5c-0.3,0.1-0.8,0.3-1.3,0.9c0.1,1.3,0.5,2.1,1.4,2.1C-14.7-8.7-14.3-9.3-14.3-10.2z"/>
									</g>
								</g>
								<g>
									<path class="st3" d="M-20.8-19.2h6.5c2.2,0,4,1.8,4,4v6.5c0,2.2-1.8,4-4,4h-6.5c-2.2,0-4-1.8-4-4v-6.5
										C-24.8-17.4-23-19.2-20.8-19.2z"/>
									<g class="st1">
										<path class="st2" d="M-21.3-8.8h1.3v-4.7h-1v-0.4c0.5-0.1,0.8-0.2,1.1-0.4h0.4v5.4h1.2v0.5h-3V-8.8z"/>
										<path class="st2" d="M-17.5-9.1l0.3-0.3c0.3,0.4,0.8,0.7,1.5,0.7s1.4-0.6,1.4-1.6c0-0.9-0.5-1.5-1.3-1.5
											c-0.4,0-0.7,0.1-1,0.4l-0.4-0.2l0.2-2.7h2.7v0.4h-2.3l-0.2,2c0.3-0.2,0.6-0.3,1-0.3c1,0,1.7,0.6,1.7,1.9s-0.9,2-1.8,2
											C-16.6-8.3-17.1-8.7-17.5-9.1z"/>
									</g>
								</g>
							</g>
						</g>
					</g>
					<g id="intro-04" transform="translate(76.000000, 0.000000)">
						<g id="intro-connect" transform="translate(0.000000, 9.000000)">
							<circle id="Oval" class="st4" cx="49.5" cy="-15.9" r="3.5"/>
							<circle class="st4" cx="-21.5" cy="-15.9" r="3.5"/>
							<rect id="Rectangle" x="-20" y="-16.4" class="st4" width="70" height="1"/>
						</g>
						<g id="intro04" transform="translate(14.000000, 0.000000)">
							<path class="st4" d="M-21-19.4h42c2.2,0,4,1.8,4,4v17c0,2.2-1.8,4-4,4h-42c-2.2,0-4-1.8-4-4v-17C-25-17.6-23.2-19.4-21-19.4z
								"/>
							<g class="st1">
								<path class="st5" d="M-13.9-9.7h0.6v7.3h-0.6V-9.7z"/>
								<path class="st5" d="M-11.3-7.7h0.5l0.1,0.8l0,0c0.5-0.5,1.1-0.9,1.8-0.9c1.1,0,1.6,0.7,1.6,2.1v3.3h-0.6v-3.3
									c0-1.1-0.4-1.6-1.2-1.6c-0.6,0-1.1,0.3-1.7,1v4h-0.6L-11.3-7.7L-11.3-7.7z"/>
								<path class="st5" d="M-5.2-3.9v-3.3H-6v-0.4h0.8l0.1-1.5h0.5v1.5h1.5v0.5h-1.5v3.4c0,0.7,0.2,1.1,0.9,1.1
									c0.2,0,0.5-0.1,0.6-0.1L-3-2.3c-0.3,0.1-0.6,0.2-0.9,0.2C-4.9-2.3-5.2-2.9-5.2-3.9z"/>
								<path class="st5" d="M-1.8-7.7h0.5l0.1,1l0,0c0.4-0.7,0.9-1.1,1.5-1.1c0.2,0,0.4,0,0.5,0.1L0.7-7.2C0.5-7.3,0.4-7.3,0.2-7.3
									c-0.5,0-1,0.3-1.4,1.3v3.6h-0.6V-7.7z"/>
								<path class="st5" d="M1.2-5.1c0-1.8,1.1-2.8,2.4-2.8S6-6.9,6-5.1S4.9-2.3,3.6-2.3S1.2-3.3,1.2-5.1z M5.4-5.1
									c0-1.4-0.8-2.3-1.8-2.3S1.8-6.5,1.8-5.1s0.8,2.3,1.8,2.3S5.4-3.7,5.4-5.1z"/>
								<path class="st5" d="M13.8-4.5h-1v2.1h-0.6v-2.1H9v-0.4l3.2-4.8h0.6V-5h1C13.8-5,13.8-4.5,13.8-4.5z M12.2-5v-2.7
									c0-0.3,0-0.9,0.1-1.2l0,0c-0.2,0.3-0.4,0.7-0.6,1L9.7-5C9.7-5,12.2-5,12.2-5z"/>
							</g>
						</g>
					</g>
				</g>
				<g id="표-01">
					
						<g id="라인" transform="translate(157.000000, 46.500000) rotate(-360.000000) translate(-157.000000, -46.500000) translate(0.000000, 14.000000)">
						<path id="left" class="st6" d="M54-18.5H-6.4C-16.7-18.5-25-10.2-25,0.1v26c0,10.3,8.3,18.6,18.6,18.6l0,0H54"/>
						<path class="st6" d="M209.9,44.6h60.4c10.3,0,18.6-8.3,18.6-18.6V0c0-10.3-8.3-18.6-18.6-18.6l0,0h-76.2"/>
						<rect x="104" y="-19.4" class="st4" width="55" height="1"/>
					</g>
					<g id="cole" transform="translate(69.000000, 0.000000)">
						<path class="st0" d="M-20.5-18.9h51c2.2,0,4,1.8,4,4v21c0,2.2-1.8,4-4,4h-51c-2.2,0-4-1.8-4-4v-21
							C-24.5-17.1-22.7-18.9-20.5-18.9z"/>
						<g class="st1">
							<path class="st2" d="M-7.4-3c0-2.3,1.3-3.8,3.1-3.8c0.9,0,1.5,0.4,1.9,0.9l-0.3,0.4c-0.4-0.4-0.9-0.7-1.6-0.7
								C-5.8-6.2-6.8-5-6.8-3s0.9,3.3,2.5,3.3C-3.6,0.3-3,0-2.5-0.6l0.3,0.4c-0.6,0.6-1.2,1-2.2,1C-6.1,0.7-7.4-0.7-7.4-3z"/>
							<path class="st2" d="M-1.2-2.1c0-1.8,1.1-2.8,2.4-2.8s2.4,1,2.4,2.8S2.5,0.7,1.2,0.7S-1.2-0.3-1.2-2.1z M3-2.1
								c0-1.4-0.8-2.3-1.8-2.3s-1.8,0.9-1.8,2.3s0.8,2.3,1.8,2.3S3-0.7,3-2.1z"/>
							<path class="st2" d="M5.2-0.2v-7.2h0.6v7.2C5.8,0,5.9,0.2,6,0.2c0,0,0.1,0,0.2,0l0.1,0.5c-0.1,0-0.2,0.1-0.4,0.1
								C5.4,0.7,5.2,0.4,5.2-0.2z"/>
							<path class="st2" d="M7.9-6.7h4v0.5H8.5v2.7h2.9V-3H8.5v3.1H12v0.5H7.9V-6.7z"/>
							<path class="st2" d="M13.5,0.1h1.6v-5.9h-1.3v-0.4c0.6-0.1,1-0.3,1.4-0.5h0.5v6.8h1.5v0.5h-3.8L13.5,0.1L13.5,0.1z"/>
						</g>
					</g>
					<g id="kan" transform="translate(184.000000, 0.000000)">
						<path class="st0" d="M-20.5-18.9h51c2.2,0,4,1.8,4,4v21c0,2.2-1.8,4-4,4h-51c-2.2,0-4-1.8-4-4v-21
							C-24.5-17.1-22.7-18.9-20.5-18.9z"/>
						<g id="KAN" transform="translate(19.000000, 8.000000)">
							<g id="Text">
								<g class="st1">
									<path class="st2" d="M-5.3-14.7h0.6l0.1,0.8l0,0c0.3-0.6,0.7-0.9,1.2-0.9c0.2,0,0.3,0,0.5,0.1L-3-14.1
										c-0.1-0.1-0.2-0.1-0.4-0.1c-0.4,0-0.8,0.3-1.1,1v2.8h-0.7L-5.3-14.7L-5.3-14.7z"/>
								</g>
								<g class="st1">
									<path class="st2" d="M-24-14.7h0.9v3.7l0,0l3.1-3.7h1l-2.2,2.8l2.6,4.5h-1l-2.2-3.8l-1.3,1.5v2.3H-24V-14.7z"/>
									<path class="st2" d="M-18-8.8c0-1.2,1-1.8,3.3-2c0-0.7-0.2-1.4-1.1-1.4c-0.6,0-1.2,0.3-1.6,0.6l-0.3-0.7
										c0.5-0.3,1.3-0.7,2.1-0.7c1.3,0,1.9,0.9,1.9,2.2v3.4h-0.8L-14.6-8l0,0c-0.5,0.4-1.1,0.8-1.8,0.8C-17.3-7.3-18-7.8-18-8.8z
										 M-14.6-8.7v-1.5C-16.4-10-17-9.5-17-8.8c0,0.6,0.4,0.9,1,0.9C-15.6-8-15.2-8.2-14.6-8.7z"/>
									<path class="st2" d="M-12-12.8h0.8l0.1,0.8l0,0c0.5-0.5,1.1-0.9,1.8-0.9c1.1,0,1.7,0.7,1.7,2.1v3.4h-0.9v-3.3
										c0-1-0.3-1.4-1-1.4c-0.6,0-0.9,0.3-1.5,0.8v3.9h-1V-12.8z"/>
								</g>
							</g>
						</g>
					</g>
					<g id="HCMV" transform="translate(19.000000, 63.000000)">
						<path class="st4" d="M-21-19.4H81c2.2,0,4,1.8,4,4v22c0,2.2-1.8,4-4,4H-21c-2.2,0-4-1.8-4-4v-22C-25-17.6-23.2-19.4-21-19.4z"
							/>
						<g class="st1">
							<path class="st5" d="M-11.9-7.7h0.6v3.2h3.8v-3.2H-7v7.3h-0.6V-4h-3.8v3.6H-12v-7.3C-12-7.7-11.9-7.7-11.9-7.7z"/>
							<path class="st5" d="M-5.3-4c0-2.3,1.3-3.8,3.1-3.8c0.9,0,1.5,0.4,1.9,0.9l-0.3,0.4C-1-6.9-1.5-7.2-2.2-7.2
								C-3.7-7.2-4.7-6-4.7-4s0.9,3.3,2.5,3.3c0.7,0,1.3-0.3,1.8-0.9l0.3,0.4c-0.6,0.6-1.2,1-2.2,1C-4-0.3-5.3-1.7-5.3-4z"/>
							<path class="st5" d="M1.4-7.7h0.8l1.5,4.2l0.6,1.6l0,0C4.5-2.4,4.7-3,4.8-3.5l1.5-4.2h0.8v7.3H6.5V-5c0-0.6,0-1.4,0.1-2l0,0
								L6.1-5.4L4.6-1.2H4.1L2.5-5.4L1.9-7l0,0C1.9-6.4,2-5.6,2-5v4.6H1.5L1.4-7.7C1.5-7.7,1.4-7.7,1.4-7.7z"/>
							<path class="st5" d="M8.3-7.7h0.6l1.3,4.2c0.3,0.9,0.5,1.6,0.7,2.4l0,0c0.3-0.9,0.5-1.6,0.8-2.4L13-7.7h0.6l-2.3,7.3h-0.7
								L8.3-7.7z"/>
							<path class="st5" d="M17-7.7h0.6v7.3H17V-7.7z"/>
							<path class="st5" d="M19.7-7.7h4v0.5h-3.4v2.7h2.9V-4h-2.9v3.1h3.5v0.5h-4.1V-7.7z"/>
							<path class="st5" d="M27.6-5.7h0.5l0.1,0.6l0,0c0.5-0.4,1.1-0.8,1.8-0.8c1.4,0,2.1,1.1,2.1,2.7c0,1.8-1.1,2.9-2.3,2.9
								c-0.5,0-1-0.2-1.6-0.6v1V2h-0.6V-5.7z M31.5-3.1c0-1.3-0.4-2.2-1.6-2.2c-0.5,0-1,0.3-1.7,0.8v3.1c0.6,0.5,1.1,0.6,1.5,0.6
								C30.8-0.8,31.5-1.7,31.5-3.1z"/>
							<path class="st5" d="M33.7-5.7h0.5l0.1,1l0,0c0.4-0.7,0.9-1.1,1.5-1.1c0.2,0,0.4,0,0.5,0.1l-0.1,0.5
								c-0.2-0.1-0.3-0.1-0.5-0.1c-0.5,0-1,0.3-1.4,1.3v3.6h-0.6V-5.7z"/>
							<path class="st5" d="M36.7-3.1c0-1.8,1.1-2.8,2.4-2.8c1.3,0,2.4,1,2.4,2.8s-1.1,2.8-2.4,2.8C37.8-0.3,36.7-1.3,36.7-3.1z
								 M40.9-3.1c0-1.4-0.8-2.3-1.8-2.3s-1.8,0.9-1.8,2.3s0.8,2.3,1.8,2.3S40.9-1.7,40.9-3.1z"/>
							<path class="st5" d="M43.1-5.7h0.5l0.1,0.8l0,0c0.5-0.5,1.1-0.9,1.7-0.9c0.8,0,1.3,0.4,1.5,1.1c0.6-0.6,1.2-1.1,1.8-1.1
								c1.1,0,1.6,0.7,1.6,2.1v3.3h-0.6v-3.3c0-1.1-0.4-1.6-1.1-1.6c-0.5,0-1,0.3-1.5,1v4h-0.6v-3.3c0-1.1-0.4-1.6-1.1-1.6
								c-0.5,0-1,0.3-1.5,1v4h-0.6v-5.5H43.1z"/>
							<path class="st5" d="M51.7-3.1c0-1.8,1.1-2.8,2.4-2.8s2.4,1,2.4,2.8s-1.1,2.8-2.4,2.8C52.8-0.3,51.7-1.3,51.7-3.1z M55.9-3.1
								c0-1.4-0.8-2.3-1.8-2.3s-1.8,0.9-1.8,2.3s0.8,2.3,1.8,2.3S55.9-1.7,55.9-3.1z"/>
							<path class="st5" d="M58.1-1.9v-3.3h-0.8v-0.4h0.8l0.1-1.5h0.5v1.5h1.5v0.5h-1.5v3.4c0,0.7,0.2,1.1,0.9,1.1
								c0.2,0,0.5-0.1,0.6-0.1l0.1,0.4c-0.3,0.1-0.6,0.2-0.9,0.2C58.4-0.3,58.1-0.9,58.1-1.9z"/>
							<path class="st5" d="M60.9-3.1c0-1.7,1.1-2.8,2.3-2.8c1.3,0,2.1,0.9,2.1,2.5c0,0.1,0,0.3,0,0.4h-3.8c0,1.3,0.8,2.2,1.9,2.2
								c0.6,0,1-0.2,1.4-0.5L65-0.9c-0.4,0.3-0.9,0.5-1.7,0.5C62-0.3,60.9-1.3,60.9-3.1z M64.7-3.4c0-1.3-0.6-1.9-1.5-1.9
								s-1.6,0.7-1.8,1.9H64.7z"/>
							<path class="st5" d="M66.7-5.7h0.5l0.1,1l0,0c0.4-0.7,0.9-1.1,1.5-1.1c0.2,0,0.4,0,0.5,0.1l-0.1,0.5
								c-0.2-0.1-0.3-0.1-0.5-0.1c-0.5,0-1,0.3-1.4,1.3v3.6h-0.6V-5.7z"/>
						</g>
					</g>
					<g id="찌릿" transform="translate(135.000000, 74.000000)">
						<rect x="-35" y="-15.4" class="st4" width="52" height="1"/>
						<circle class="st4" cx="13.5" cy="-14.9" r="4.5"/>
						<circle class="st4" cx="-21.5" cy="-14.9" r="3.5"/>
						<circle class="st4" cx="-4.5" cy="-14.9" r="3.5"/>
					</g>
					<g transform="translate(184.000000, 63.000000)">
						<g id="HGF_X7">
							<path class="st0" d="M29.5,10.1v-29H-21c-1.9,0-3.5,1.6-3.5,3.5v22c0,1.9,1.6,3.5,3.5,3.5H29.5z"/>
							<g class="st1">
								<path class="st2" d="M-14.9-6.7h0.6v3.2h3.8v-3.2h0.5v7.3h-0.6V-3h-3.8v3.6H-15v-7.3C-15-6.7-14.9-6.7-14.9-6.7z"/>
								<path class="st2" d="M-8.3-3c0-2.3,1.3-3.8,3.2-3.8c1,0,1.6,0.5,2,0.9l-0.3,0.4c-0.4-0.4-0.9-0.7-1.7-0.7
									C-6.7-6.2-7.7-5-7.7-3s0.9,3.3,2.6,3.3c0.6,0,1.2-0.2,1.5-0.5v-2.2h-1.7v-0.5H-3V0c-0.5,0.5-1.2,0.8-2.2,0.8
									C-7,0.7-8.3-0.7-8.3-3z"/>
								<path class="st2" d="M-1.1-6.7h4v0.5h-3.4v2.8h2.9v0.5h-2.9v3.5h-0.6V-6.7z"/>
								<path class="st2" d="M3.6-2.4h2.5v0.5H3.6V-2.4z"/>
								<path class="st2" d="M8.6-3.2l-2-3.5h0.7l1.1,2.1C8.6-4.3,8.8-4,9-3.6l0,0c0.2-0.4,0.3-0.7,0.5-1l1.2-2.1h0.6l-2,3.5
									l2.2,3.7h-0.7L9.6-1.7C9.4-2,9.2-2.4,8.9-2.9l0,0C8.7-2.5,8.5-2.1,8.3-1.7L7,0.6H6.4L8.6-3.2z"/>
								<path class="st2" d="M15.8-6.2h-3.7v-0.5h4.4v0.3c-1.7,2.3-2.1,4.1-2.2,6.9h-0.6C13.8-2.3,14.3-4.2,15.8-6.2z"/>
							</g>
						</g>
						<g id="PA" transform="translate(54.000000, 0.000000)">
							<path class="st0" d="M-24.5-18.9v29H26c1.9,0,3.5-1.6,3.5-3.5v-22c0-1.9-1.6-3.5-3.5-3.5H-24.5z"/>
							<g class="st1">
								<path class="st2" d="M-4-4.7h0.5l0.1,0.6l0,0c0.5-0.4,1.1-0.8,1.8-0.8c1.4,0,2.1,1.1,2.1,2.7c0,1.8-1.1,2.9-2.3,2.9
									c-0.5,0-1-0.2-1.6-0.6v1V3H-4V-4.7z M-0.1-2.1c0-1.3-0.4-2.2-1.6-2.2c-0.5,0-1,0.3-1.7,0.8v3.1c0.6,0.5,1.1,0.6,1.5,0.6
									C-0.9,0.2-0.1-0.7-0.1-2.1z"/>
								<path class="st2" d="M5.4-1.8H2.6L1.7,0.6H1.1l2.5-7.3h0.6l2.5,7.3H6.1L5.4-1.8z M5.2-2.3L4.8-3.6C4.5-4.4,4.3-5.2,4-6.1
									l0,0C3.8-5.2,3.5-4.5,3.2-3.6L2.8-2.3H5.2z"/>
							</g>
						</g>
					</g>
				</g>
				<g id="결과" transform="translate(50.000000, 182.000000)">
					<g transform="translate(0.000000, 44.000000)">
						<g>
							<circle class="st0" cx="0" cy="5.6" r="25"/>
							<g id="text" transform="translate(9.000000, 18.000000)">
								<g class="st1">
									<path class="st2" d="M-24-14.8h1.2v3h3.1v-3h1.2v7.4h-1.2v-3.3h-3.2v3.3H-24V-14.8z"/>
									<path class="st2" d="M-16.6-14.8h4.4v1h-3.3v2.2h2.7v1h-2.7v3.2h-1.1V-14.8z"/>
									<path class="st2" d="M-11.5-11.1c0-2.4,1.5-3.8,3.4-3.8c1,0,1.7,0.5,2.2,0.9l-0.6,0.7C-6.9-13.7-7.3-14-8-14
										c-1.4,0-2.3,1.1-2.3,2.8S-9.5-8.4-8-8.4c0.4,0,0.9-0.1,1.2-0.4v-1.6h-1.5v-0.9h2.5v3.2c-0.5,0.5-1.3,0.9-2.3,0.9
										C-10.1-7.3-11.5-8.6-11.5-11.1z"/>
								</g>
								<g class="st1">
									<path class="st2" d="M-1.6-10.2h-2.1v-0.6h2.8v0.4c-1,1.3-1.2,2.3-1.3,4h-0.7C-2.8-8-2.5-9-1.6-10.2z"/>
									<path class="st2" d="M-0.3-6.8c1.3-1.2,2-2,2-2.7c0-0.5-0.3-0.8-0.7-0.8c-0.3,0-0.6,0.2-0.9,0.5l-0.4-0.4
										C0-10.6,0.4-10.9,1-10.9c0.8,0,1.3,0.5,1.3,1.3c0,0.9-0.7,1.7-1.6,2.6c0.2,0,0.5,0,0.7,0h1.1v0.6h-2.8V-6.8z"/>
									<path class="st2" d="M3-6.9l0.3-0.4c0.3,0.3,0.6,0.5,1,0.5c0.5,0,0.8-0.3,0.8-0.7c0-0.5-0.3-0.8-1.3-0.8v-0.5
										C4.7-8.8,5-9.1,5-9.6c0-0.4-0.3-0.6-0.7-0.6C4-10.2,3.7-10,3.4-9.8l-0.2-0.6c0.3-0.3,0.8-0.5,1.3-0.5
										c0.8,0,1.3,0.4,1.3,1.1c0,0.5-0.3,0.9-0.8,1l0,0c0.5,0.1,0.9,0.5,0.9,1.1c0,0.8-0.7,1.3-1.5,1.3C3.8-6.3,3.3-6.6,3-6.9z"/>
								</g>
							</g>
						</g>
						<g transform="translate(163.000000, 0.000000)">
							<circle class="st0" cx="0" cy="5.6" r="25"/>
							<g transform="translate(9.000000, 18.000000)">
								<g class="st1">
									<path class="st2" d="M-24-14.8h1.2v3h3.1v-3h1.2v7.4h-1.2v-3.3h-3.2v3.3H-24V-14.8z"/>
									<path class="st2" d="M-17-11.1c0-2.4,1.5-3.8,3.4-3.8c1,0,1.7,0.5,2.2,0.9l-0.6,0.8c-0.4-0.4-0.8-0.7-1.5-0.7
										c-1.4,0-2.3,1.1-2.3,2.8s0.8,2.8,2.3,2.8c0.4,0,0.9-0.1,1.2-0.4v-1.7h-1.5v-0.9h2.5v3.2c-0.5,0.5-1.3,0.9-2.3,0.9
										C-15.6-7.3-17-8.6-17-11.1z"/>
									<path class="st2" d="M-9.6-14.8h4.4v1h-3.2v2.2h2.7v1h-2.7v3.2h-1.2C-9.6-7.4-9.6-14.8-9.6-14.8z"/>
								</g>
								<g class="st1">
									<path class="st2" d="M-0.6-10.2h-2.1v-0.6h2.8v0.4c-1,1.3-1.2,2.3-1.3,4h-0.7C-1.8-8-1.5-9-0.6-10.2z"/>
									<path class="st2" d="M0.7-6.8c1.3-1.2,2-2,2-2.7c0-0.5-0.3-0.8-0.7-0.8c-0.3,0-0.6,0.2-0.9,0.5l-0.4-0.4
										C1-10.6,1.4-10.9,2-10.9c0.8,0,1.3,0.5,1.3,1.3c0,0.9-0.7,1.7-1.6,2.6c0.2,0,0.5,0,0.7,0h1.1v0.6H0.7V-6.8z"/>
									<path class="st2" d="M4.1-7.5c0-0.6,0.4-1,0.8-1.2l0,0c-0.3-0.2-0.6-0.6-0.6-1c0-0.7,0.5-1.1,1.3-1.1s1.2,0.5,1.2,1.2
										c0,0.5-0.3,0.8-0.6,1l0,0C6.6-8.4,6.9-8,6.9-7.4c0,0.7-0.6,1.2-1.4,1.2C4.7-6.3,4.1-6.8,4.1-7.5z M6.3-7.5
										c0-0.5-0.5-0.7-1.1-1C4.9-8.3,4.7-8,4.7-7.6s0.4,0.7,0.8,0.7C6-6.8,6.3-7.1,6.3-7.5z M6.2-9.7c0-0.4-0.2-0.7-0.6-0.7
										S5-10.2,5-9.8c0,0.5,0.4,0.7,0.9,0.9C6.1-9.1,6.2-9.4,6.2-9.7z"/>
								</g>
							</g>
						</g>
					</g>
					<g id="Arrow" transform="translate(22.000000, 0.000000)">
						<g id="splice" transform="translate(0.000000, 1.000000)">
							
								<g id="arrow" transform="translate(23.048784, 18.739644) rotate(-20.000000) translate(-23.048784, -18.739644) translate(8.048784, 4.256885)">
								<path id="Line" class="st7" d="M-13.8-0.5l26.5-26"/>
								<polyline id="Stroke-1" class="st8" points="-8.4,-0.7 -14,-0.4 -13.7,-5.9 								"/>
							</g>
							
								<g transform="translate(146.049209, 18.740810) rotate(20.000000) translate(-146.049209, -18.740810) translate(131.049209, 4.256810)">
								<path class="st7" d="M-3.2,16.6l-26.5-26"/>
								<polyline class="st8" points="-8.6,16.4 -3,16.7 -3.3,11.2 								"/>
							</g>
						</g>
						<g class="st1">
							<path d="M38.5-9.6h-2.7l-0.7,2.2h-0.9l2.5-7.3h1l2.5,7.3h-1L38.5-9.6z M38.2-10.4l-0.4-1.1c-0.3-0.8-0.5-1.6-0.7-2.5l0,0
								c-0.2,0.9-0.5,1.6-0.7,2.5L36-10.4H38.2z"/>
							<path d="M41.1-8.5v-6.9H42v7C42-8.1,42.1-8,42.3-8c0,0,0.1,0,0.2,0l0.1,0.7c-0.1,0-0.3,0.1-0.5,0.1
								C41.4-7.3,41.1-7.7,41.1-8.5z"/>
							<path d="M44.1-9.1v-3h-0.8v-0.7h0.8l0.1-1.5H45v1.5h1.5v0.7H45v3c0,0.7,0.2,1,0.8,1c0.2,0,0.4-0.1,0.6-0.1l0.2,0.7
								c-0.3,0.1-0.7,0.2-1,0.2C44.5-7.3,44.1-8,44.1-9.1z"/>
							<path d="M47.2-10.1c0-1.8,1.2-2.9,2.4-2.9c1.4,0,2.2,1,2.2,2.5c0,0.2,0,0.4,0,0.5h-3.7c0.1,1.2,0.8,1.9,1.8,1.9
								c0.5,0,1-0.2,1.4-0.4l0.3,0.6c-0.5,0.3-1.1,0.6-1.8,0.6C48.3-7.3,47.2-8.3,47.2-10.1z M51-10.5c0-1.1-0.5-1.7-1.3-1.7
								s-1.4,0.6-1.6,1.7H51z"/>
							<path d="M53.1-12.8h0.7l0.1,1l0,0c0.4-0.7,0.9-1.1,1.5-1.1c0.2,0,0.4,0,0.6,0.1L55.8-12c-0.2-0.1-0.3-0.1-0.5-0.1
								c-0.4,0-1,0.3-1.4,1.2v3.5H53L53.1-12.8C53-12.8,53.1-12.8,53.1-12.8z"/>
							<path d="M57-12.8h0.7l0.1,0.8l0,0c0.5-0.5,1.1-0.9,1.8-0.9c1.1,0,1.7,0.7,1.7,2.1v3.4h-0.9v-3.3c0-1-0.3-1.4-1-1.4
								c-0.6,0-0.9,0.3-1.5,0.8v3.9H57V-12.8z"/>
							<path d="M62.8-8.8c0-1.2,1-1.8,3.3-2c0-0.7-0.2-1.4-1.1-1.4c-0.6,0-1.2,0.3-1.6,0.6L63-12.3c0.5-0.3,1.3-0.7,2.1-0.7
								c1.3,0,1.9,0.9,1.9,2.2v3.4h-0.8L66.1-8l0,0c-0.5,0.4-1.1,0.8-1.8,0.8C63.4-7.3,62.8-7.8,62.8-8.8z M66.1-8.7v-1.5
								c-1.8,0.2-2.4,0.7-2.4,1.4c0,0.6,0.4,0.9,1,0.9C65.1-8,65.6-8.2,66.1-8.7z"/>
							<path d="M68.7-9.1v-3h-0.8v-0.7h0.8l0.1-1.5h0.8v1.5h1.5v0.7h-1.5v3c0,0.7,0.2,1,0.8,1c0.2,0,0.4-0.1,0.6-0.1l0.2,0.7
								c-0.3,0.1-0.7,0.2-1,0.2C69.1-7.3,68.7-8,68.7-9.1z"/>
							<path d="M72.2-14.5c0-0.4,0.3-0.6,0.6-0.6c0.4,0,0.6,0.2,0.6,0.6c0,0.3-0.3,0.6-0.6,0.6S72.2-14.2,72.2-14.5z M72.4-12.8h0.9
								v5.4h-0.9V-12.8z"/>
							<path d="M74.3-12.8h0.9l1,3.1c0.2,0.5,0.3,1.1,0.5,1.6l0,0c0.2-0.5,0.3-1.1,0.5-1.6l1-3.1h0.9l-1.9,5.4h-1.1L74.3-12.8z"/>
							<path d="M79.9-10.1c0-1.8,1.2-2.9,2.4-2.9c1.4,0,2.2,1,2.2,2.5c0,0.2,0,0.4,0,0.5h-3.7c0.1,1.2,0.8,1.9,1.8,1.9
								c0.5,0,1-0.2,1.4-0.4l0.3,0.6c-0.5,0.3-1.1,0.6-1.8,0.6C81-7.3,79.9-8.3,79.9-10.1z M83.7-10.5c0-1.1-0.5-1.7-1.3-1.7
								s-1.4,0.6-1.6,1.7H83.7z"/>
						</g>
						<text transform="matrix(1 0 0 1 84.8942 -7.356)" class="st9 st10"> </text>
						<g class="st1">
							<path d="M41.8,7l0.4-0.6c0.5,0.4,1,0.6,1.6,0.6c0.7,0,1.1-0.4,1.1-0.8c0-0.5-0.6-0.8-1.2-1C42.9,4.9,42,4.5,42,3.6
								s0.7-1.5,1.9-1.5c0.7,0,1.3,0.3,1.7,0.6l-0.4,0.6C44.8,3,44.4,2.8,44,2.8c-0.7,0-1,0.4-1,0.8c0,0.5,0.6,0.7,1.2,0.9
								c0.8,0.3,1.7,0.6,1.7,1.6c0,0.9-0.7,1.6-2,1.6C43,7.7,42.3,7.4,41.8,7z"/>
							<path d="M47.1,2.2h0.7l0.1,0.6l0,0C48.4,2.4,49,2,49.6,2c1.4,0,2.2,1.1,2.2,2.8c0,1.9-1.1,2.9-2.4,2.9c-0.5,0-1-0.2-1.5-0.6
								v1v1.8H47L47.1,2.2L47.1,2.2z M50.9,4.8c0-1.2-0.4-2-1.4-2c-0.5,0-0.9,0.3-1.5,0.7v2.8c0.5,0.4,1,0.6,1.3,0.6
								C50.2,7,50.9,6.2,50.9,4.8z"/>
							<path d="M53.3,6.5v-6.9h0.9v7c0,0.3,0.1,0.4,0.3,0.4c0,0,0.1,0,0.2,0l0.1,0.7c-0.1,0-0.3,0.1-0.5,0.1
								C53.5,7.7,53.3,7.3,53.3,6.5z"/>
							<path d="M55.9,0.5c0-0.4,0.3-0.6,0.6-0.6s0.6,0.2,0.6,0.6c0,0.3-0.3,0.6-0.6,0.6S55.9,0.8,55.9,0.5z M56.1,2.2H57v5.4h-0.9
								V2.2z"/>
							<path d="M58.5,4.9c0-1.8,1.2-2.9,2.6-2.9c0.7,0,1.2,0.3,1.6,0.6l-0.5,0.6c-0.3-0.3-0.6-0.5-1.1-0.5c-1,0-1.7,0.8-1.7,2.1
								c0,1.2,0.7,2.1,1.7,2.1c0.5,0,0.9-0.2,1.3-0.5L62.8,7c-0.5,0.4-1.1,0.7-1.7,0.7C59.6,7.7,58.5,6.7,58.5,4.9z"/>
							<path d="M63.8,0.5c0-0.4,0.3-0.6,0.6-0.6c0.4,0,0.6,0.2,0.6,0.6c0,0.3-0.3,0.6-0.6,0.6C64.1,1.1,63.8,0.8,63.8,0.5z M64,2.2
								h0.9v5.4H64V2.2z"/>
							<path d="M66.7,2.2h0.7L67.5,3l0,0c0.5-0.5,1.1-0.9,1.8-0.9c1.1,0,1.7,0.7,1.7,2.1v3.4h-0.9V4.3c0-1-0.3-1.4-1-1.4
								c-0.6,0-0.9,0.3-1.5,0.8v3.9h-0.9C66.7,7.6,66.7,2.2,66.7,2.2z"/>
							<path d="M72.4,8.6c0-0.5,0.3-0.9,0.8-1.2l0,0c-0.3-0.2-0.5-0.5-0.5-0.9c0-0.5,0.3-0.8,0.6-1l0,0c-0.4-0.3-0.7-0.8-0.7-1.5
								c0-1.2,0.9-1.9,2-1.9c0.3,0,0.6,0.1,0.8,0.1h1.9v0.7h-1.1c0.3,0.2,0.4,0.6,0.4,1.1c0,1.2-0.9,1.9-2,1.9
								c-0.3,0-0.6-0.1-0.8-0.2c-0.2,0.2-0.3,0.3-0.3,0.6c0,0.4,0.2,0.6,0.9,0.6h1.1c1.3,0,1.9,0.4,1.9,1.3c0,1-1.1,1.9-2.7,1.9
								C73.3,10.1,72.4,9.6,72.4,8.6z M76.5,8.4c0-0.5-0.4-0.7-1.1-0.7h-0.9c-0.2,0-0.5,0-0.7-0.1c-0.4,0.3-0.6,0.6-0.6,0.9
								c0,0.6,0.6,1,1.6,1S76.5,8.9,76.5,8.4z M75.8,4c0-0.8-0.5-1.3-1.1-1.3S73.5,3.2,73.5,4s0.5,1.3,1.2,1.3
								C75.3,5.3,75.8,4.8,75.8,4z"/>
						</g>
					</g>
				</g>
				<g class="st1">
					<path d="M10,131.3h4.2v0.8h-3.3v2.3h2.8v0.8h-2.8v2.7h3.4v0.8H10V131.3z"/>
					<path d="M16.5,135.8l-1.6-2.6h1l0.7,1.2c0.2,0.3,0.4,0.6,0.5,0.9l0,0c0.2-0.3,0.3-0.6,0.5-0.9l0.7-1.2h0.9l-1.6,2.7l1.8,2.7h-1
						l-0.8-1.3c-0.2-0.3-0.4-0.7-0.6-1h-0.1c-0.2,0.3-0.4,0.6-0.6,1l-0.7,1.3h-1L16.5,135.8z"/>
					<path d="M19.8,135.9c0-1.8,1.2-2.9,2.5-2.9s2.5,1,2.5,2.9c0,1.8-1.2,2.8-2.5,2.8S19.8,137.7,19.8,135.9z M23.9,135.9
						c0-1.2-0.6-2.1-1.6-2.1s-1.6,0.8-1.6,2.1c0,1.2,0.6,2.1,1.6,2.1S23.9,137.1,23.9,135.9z"/>
					<path d="M26.3,133.2H27l0.1,0.8l0,0c0.5-0.5,1.1-0.9,1.8-0.9c1.1,0,1.7,0.7,1.7,2.1v3.4h-0.9v-3.3c0-1-0.3-1.4-1-1.4
						c-0.6,0-0.9,0.3-1.5,0.8v3.9h-0.9C26.3,138.6,26.3,133.2,26.3,133.2z"/>
					<path d="M34.7,133.2h0.7l0.1,0.8l0,0c0.5-0.5,1.1-0.9,1.8-0.9c1.1,0,1.7,0.7,1.7,2.1v3.4h-0.9v-3.3c0-1-0.3-1.4-1-1.4
						c-0.6,0-0.9,0.3-1.5,0.8v3.9h-0.9C34.7,138.6,34.7,133.2,34.7,133.2z"/>
					<path d="M40.7,136.6v-3.4h0.9v3.3c0,1,0.3,1.4,1,1.4c0.6,0,0.9-0.3,1.5-0.9v-3.8H45v5.4h-0.8l-0.1-0.8l0,0c-0.5,0.6-1,1-1.8,1
						C41.2,138.7,40.7,138,40.7,136.6z"/>
					<path d="M46.8,133.2h0.7l0.1,0.8l0,0c0.5-0.5,1-0.9,1.7-0.9c0.8,0,1.3,0.4,1.5,1c0.6-0.6,1.1-1,1.8-1c1.1,0,1.6,0.7,1.6,2.1
						v3.4h-0.9v-3.3c0-1-0.3-1.4-1-1.4c-0.4,0-0.9,0.3-1.4,0.8v3.9H50v-3.3c0-1-0.3-1.4-1-1.4c-0.4,0-0.9,0.3-1.4,0.8v3.9h-0.9v-5.4
						L46.8,133.2L46.8,133.2z"/>
					<path d="M56.9,138L56.9,138l-0.1,0.6h-0.7v-8H57v2.2v1c0.5-0.4,1.1-0.8,1.7-0.8c1.4,0,2.2,1.1,2.2,2.8c0,1.9-1.1,2.9-2.4,2.9
						C58,138.7,57.4,138.5,56.9,138z M59.9,135.8c0-1.2-0.4-2-1.4-2c-0.5,0-0.9,0.3-1.5,0.7v2.8c0.5,0.4,1,0.6,1.3,0.6
						C59.2,138,59.9,137.2,59.9,135.8z"/>
					<path d="M61.9,135.9c0-1.8,1.2-2.9,2.4-2.9c1.4,0,2.2,1,2.2,2.5c0,0.2,0,0.4,0,0.5h-3.7c0.1,1.2,0.8,1.9,1.8,1.9
						c0.5,0,1-0.2,1.4-0.4l0.3,0.6c-0.5,0.3-1.1,0.6-1.8,0.6C63,138.7,61.9,137.7,61.9,135.9z M65.7,135.5c0-1.1-0.5-1.7-1.3-1.7
						s-1.4,0.6-1.6,1.7H65.7z"/>
					<path d="M67.8,133.2h0.7l0.1,1l0,0c0.4-0.7,0.9-1.1,1.5-1.1c0.2,0,0.4,0,0.6,0.1l-0.2,0.8c-0.2-0.1-0.3-0.1-0.5-0.1
						c-0.4,0-1,0.3-1.4,1.2v3.5h-0.9v-5.4H67.8z"/>
				</g>
			</g>
		</g>
	</g>
</g>
</svg>
