<?xml version="1.0" encoding="utf-8"?>
<!-- Generator: Adobe Illustrator 23.0.4, SVG Export Plug-In . SVG Version: 6.00 Build 0)  -->
<svg version="1.1" id="레이어_1" xmlns="http://www.w3.org/2000/svg" xmlns:xlink="http://www.w3.org/1999/xlink" x="0px"
	 y="0px" viewBox="0 0 996 447" style="enable-background:new 0 0 996 447;" xml:space="preserve">
<style type="text/css">
	.st0{fill:none;stroke:#B54142;stroke-width:2;}
	.st1{fill:none;stroke:#B54142;stroke-width:1.5;}
	.st2{fill:none;stroke:#B54142;stroke-width:1.5;stroke-linecap:square;}
	.st3{fill-rule:evenodd;clip-rule:evenodd;fill:#FFFFFF;stroke:#B54142;stroke-width:1.5;}
	.st4{enable-background:new    ;}
	.st5{fill:#B54142;}
	.st6{fill-rule:evenodd;clip-rule:evenodd;fill:#B54142;}
	.st7{fill:#FFFFFF;}
	.st8{fill:none;stroke:#B54142;}
	.st9{fill:none;stroke:#B54142;stroke-width:2;stroke-linecap:square;}
	.st10{fill:none;stroke:#B54142;stroke-width:2;stroke-linecap:round;stroke-linejoin:round;}
	.st11{font-family:'NotoSansCJKkr-Medium-KSCpc-EUC-H';}
	.st12{font-size:12px;}
	.st13{fill-rule:evenodd;clip-rule:evenodd;fill:#FEF8F4;stroke:#B54142;stroke-width:1.5;}
</style>
<title>diagram</title>
<desc>Created with Sketch.</desc>
<g id="Page-1">
	<g transform="translate(-287.000000, -720.000000)">
		<g id="first" transform="translate(190.000000, 420.000000)">
			<g id="diagram" transform="translate(97.000000, 300.000000)">
				<g id="라인" transform="translate(0.499031, 23.885611)">
					<path id="Path" class="st0" d="M223.5,0.5h-173c-27.6,0-50,22.4-50,50v4c0,27.6,22.4,50,50,50h64.9"/>
					<path class="st0" d="M764.5,105.7h51c27.6,0,50-22.4,50-50v-4c0-27.6-22.4-50-50-50h-173"/>
				</g>
				<g id="HGF-X7디테일박스" transform="translate(0.000000, 150.000000)">
					<path id="bg" class="st1" d="M8.8,58.7h978.5c4.4,0,8,3.6,8,8v221.5c0,4.4-3.6,8-8,8H8.8c-4.4,0-8-3.6-8-8V66.7
						C0.8,62.3,4.3,58.7,8.8,58.7z"/>
					<path id="line" class="st2" d="M526.5,0v58.3"/>
					<g id="숫자" transform="translate(40.000000, 83.000000)">
						<g transform="translate(96.000000, 0.000000)">
							<g id="HCMV">
								<path class="st3" d="M8.8,0.7h12.5c4.4,0,8,3.6,8,8v12.5c0,4.4-3.6,8-8,8H8.8c-4.4,0-8-3.6-8-8V8.7C0.8,4.3,4.3,0.7,8.8,0.7
									z"/>
								<g class="st4">
									<path class="st5" d="M12.2,19.2h2.4v-7h-2v-1.4c1.1-0.2,1.9-0.5,2.6-0.9h1.6v9.3h2.1V21h-6.7V19.2z"/>
								</g>
							</g>
							<g transform="translate(35.000000, 0.000000)">
								<path class="st3" d="M8.8,0.7h12.5c4.4,0,8,3.6,8,8v12.5c0,4.4-3.6,8-8,8H8.8c-4.4,0-8-3.6-8-8V8.7C0.8,4.3,4.3,0.7,8.8,0.7
									z"/>
								<g class="st4">
									<path class="st5" d="M11.6,19.7c3-2.7,4.8-4.8,4.8-6.5c0-1.1-0.6-1.8-1.7-1.8c-0.8,0-1.5,0.5-2,1.1l-1.2-1.2
										c1-1.1,2-1.7,3.5-1.7c2.1,0,3.5,1.3,3.5,3.4c0,2-1.7,4.2-3.7,6.2c0.6-0.1,1.3-0.1,1.8-0.1h2.4V21h-7.4V19.7z"/>
								</g>
							</g>
							<g transform="translate(70.000000, 0.000000)">
								<path class="st3" d="M8.8,0.7h12.5c4.4,0,8,3.6,8,8v12.5c0,4.4-3.6,8-8,8H8.8c-4.4,0-8-3.6-8-8V8.7C0.8,4.3,4.3,0.7,8.8,0.7
									z"/>
								<g class="st4">
									<path class="st5" d="M11.4,19.7l1-1.4c0.7,0.6,1.5,1.1,2.5,1.1c1.1,0,1.9-0.6,1.9-1.5c0-1.1-0.6-1.8-3.1-1.8v-1.6
										c2,0,2.7-0.7,2.7-1.7c0-0.9-0.5-1.4-1.5-1.4c-0.8,0-1.4,0.4-2.1,1l-1.1-1.3c1-0.8,2-1.4,3.3-1.4c2.1,0,3.6,1.1,3.6,3
										c0,1.2-0.7,2.1-1.9,2.5v0.1C18,15.6,19,16.5,19,18c0,2-1.8,3.2-3.9,3.2C13.4,21.2,12.2,20.5,11.4,19.7z"/>
								</g>
							</g>
							<g transform="translate(105.000000, 0.000000)">
								<path class="st3" d="M8.8,0.7h12.5c4.4,0,8,3.6,8,8v12.5c0,4.4-3.6,8-8,8H8.8c-4.4,0-8-3.6-8-8V8.7C0.8,4.3,4.3,0.7,8.8,0.7
									z"/>
								<g class="st4">
									<path class="st5" d="M19.4,18.1h-1.3V21H16v-2.9h-4.7v-1.5l4.1-6.7h2.6v6.5h1.3V18.1z M16,16.4v-2.3c0-0.6,0.1-1.6,0.1-2.3
										h-0.1c-0.3,0.6-0.6,1.2-0.9,1.8l-1.7,2.8H16z"/>
								</g>
							</g>
						</g>
						<g transform="translate(431.000000, 0.000000)">
							<g>
								<path class="st3" d="M8.8,0.7h12.5c4.4,0,8,3.6,8,8v12.5c0,4.4-3.6,8-8,8H8.8c-4.4,0-8-3.6-8-8V8.7C0.8,4.3,4.3,0.7,8.8,0.7
									z"/>
								<g class="st4">
									<path class="st5" d="M11.4,19.7l1-1.4c0.6,0.6,1.4,1.1,2.4,1.1c1.2,0,2-0.7,2-2c0-1.3-0.8-2-1.9-2c-0.7,0-1,0.2-1.7,0.6
										l-1-0.7l0.3-5.4h5.9v1.8h-4l-0.2,2.4c0.4-0.2,0.8-0.3,1.3-0.3c1.9,0,3.4,1.1,3.4,3.5c0,2.5-1.8,3.9-3.9,3.9
										C13.4,21.2,12.2,20.5,11.4,19.7z"/>
								</g>
							</g>
							<g transform="translate(35.000000, 0.000000)">
								<path class="st3" d="M8.8,0.7h12.5c4.4,0,8,3.6,8,8v12.5c0,4.4-3.6,8-8,8H8.8c-4.4,0-8-3.6-8-8V8.7C0.8,4.3,4.3,0.7,8.8,0.7
									z"/>
								<g class="st4">
									<path class="st5" d="M17.9,12.3c-0.4-0.4-1.1-0.8-1.7-0.8c-1.3,0-2.3,1-2.4,3.7c0.6-0.7,1.6-1.2,2.3-1.2
										c1.9,0,3.2,1.1,3.2,3.5c0,2.3-1.6,3.7-3.5,3.7c-2.1,0-4-1.7-4-5.6c0-4.1,2.1-5.9,4.3-5.9c1.3,0,2.3,0.6,3,1.3L17.9,12.3z
										 M17.2,17.5c0-1.3-0.6-1.9-1.6-1.9c-0.6,0-1.3,0.3-1.8,1.2c0.2,2,1,2.8,1.9,2.8C16.5,19.5,17.2,18.9,17.2,17.5z"/>
								</g>
							</g>
							<g transform="translate(70.000000, 0.000000)">
								<path class="st3" d="M8.8,0.7h12.5c4.4,0,8,3.6,8,8v12.5c0,4.4-3.6,8-8,8H8.8c-4.4,0-8-3.6-8-8V8.7C0.8,4.3,4.3,0.7,8.8,0.7
									z"/>
								<g class="st4">
									<path class="st5" d="M16.7,11.7h-5V9.9h7.4v1.3c-2.6,3.2-2.9,5.4-3.1,9.8h-2.2C14,17.1,14.6,14.7,16.7,11.7z"/>
								</g>
							</g>
							<g transform="translate(105.000000, 0.000000)">
								<path class="st3" d="M8.8,0.7h12.5c4.4,0,8,3.6,8,8v12.5c0,4.4-3.6,8-8,8H8.8c-4.4,0-8-3.6-8-8V8.7C0.8,4.3,4.3,0.7,8.8,0.7
									z"/>
								<g class="st4">
									<path class="st5" d="M11.7,18.2c0-1.4,0.9-2.3,1.9-2.9v-0.1c-0.9-0.6-1.5-1.5-1.5-2.6c0-1.8,1.4-2.9,3.3-2.9
										c2,0,3.2,1.2,3.2,3c0,1.1-0.7,2-1.4,2.5v0.1c1,0.6,1.9,1.5,1.9,3c0,1.7-1.5,3-3.7,3C13.3,21.2,11.7,20,11.7,18.2z
										 M17.1,18.2c0-1.2-1-1.6-2.5-2.2c-0.6,0.5-1,1.2-1,2.1c0,1,0.8,1.7,1.9,1.7C16.4,19.7,17.1,19.1,17.1,18.2z M16.9,12.8
										c0-0.9-0.5-1.5-1.5-1.5c-0.8,0-1.3,0.5-1.3,1.4c0,1.1,0.9,1.6,2,2C16.7,14.1,16.9,13.5,16.9,12.8z"/>
								</g>
							</g>
							<g transform="translate(140.000000, 0.000000)">
								<path class="st3" d="M8.8,0.7h12.5c4.4,0,8,3.6,8,8v12.5c0,4.4-3.6,8-8,8H8.8c-4.4,0-8-3.6-8-8V8.7C0.8,4.3,4.3,0.7,8.8,0.7
									z"/>
								<g class="st4">
									<path class="st5" d="M12.9,18.6c0.4,0.4,1.1,0.8,1.8,0.8c1.2,0,2.3-0.9,2.4-3.7c-0.6,0.8-1.5,1.2-2.3,1.2
										c-1.8,0-3.2-1.1-3.2-3.5c0-2.3,1.6-3.7,3.5-3.7c2.1,0,4,1.7,4,5.5c0,4.2-2.1,6-4.3,6c-1.4,0-2.4-0.6-3-1.3L12.9,18.6z
										 M17,14.1c-0.2-2-1-2.8-1.9-2.8c-0.8,0-1.5,0.7-1.5,2c0,1.3,0.6,1.9,1.6,1.9C15.8,15.3,16.5,15,17,14.1z"/>
								</g>
							</g>
							<g transform="translate(175.000000, 0.000000)">
								<path class="st3" d="M8.8,0.7h12.5c4.4,0,8,3.6,8,8v12.5c0,4.4-3.6,8-8,8H8.8c-4.4,0-8-3.6-8-8V8.7C0.8,4.3,4.3,0.7,8.8,0.7
									z"/>
								<g class="st4">
									<path class="st5" d="M7.2,19.2h2.4v-7h-2v-1.4c1.1-0.2,1.9-0.5,2.6-0.9h1.6v9.3h2.1V21H7.2V19.2z"/>
									<path class="st5" d="M15.5,15.4c0-3.8,1.5-5.7,3.8-5.7c2.2,0,3.8,1.9,3.8,5.7c0,3.8-1.5,5.8-3.8,5.8
										C17,21.2,15.5,19.2,15.5,15.4z M20.9,15.4c0-3.1-0.7-4-1.7-4c-1,0-1.7,0.9-1.7,4c0,3.1,0.7,4.1,1.7,4.1
										C20.2,19.5,20.9,18.5,20.9,15.4z"/>
								</g>
							</g>
							<g transform="translate(210.000000, 0.000000)">
								<path class="st3" d="M8.8,0.7h12.5c4.4,0,8,3.6,8,8v12.5c0,4.4-3.6,8-8,8H8.8c-4.4,0-8-3.6-8-8V8.7C0.8,4.3,4.3,0.7,8.8,0.7
									z"/>
								<g class="st4">
									<path class="st5" d="M7.2,19.2h2.4v-7h-2v-1.4c1.1-0.2,1.9-0.5,2.6-0.9h1.6v9.3h2.1V21H7.2V19.2z"/>
									<path class="st5" d="M16.1,19.2h2.4v-7h-2v-1.4c1.1-0.2,1.9-0.5,2.6-0.9h1.6v9.3h2.1V21h-6.7V19.2z"/>
								</g>
							</g>
							<g transform="translate(245.000000, 0.000000)">
								<path class="st3" d="M8.8,0.7h12.5c4.4,0,8,3.6,8,8v12.5c0,4.4-3.6,8-8,8H8.8c-4.4,0-8-3.6-8-8V8.7C0.8,4.3,4.3,0.7,8.8,0.7
									z"/>
								<g class="st4">
									<path class="st5" d="M7.2,19.2h2.4v-7h-2v-1.4c1.1-0.2,1.9-0.5,2.6-0.9h1.6v9.3h2.1V21H7.2V19.2z"/>
									<path class="st5" d="M15.5,19.7c3-2.7,4.8-4.8,4.8-6.5c0-1.1-0.6-1.8-1.7-1.8c-0.8,0-1.5,0.5-2,1.1l-1.2-1.2
										c1-1.1,2-1.7,3.5-1.7c2.1,0,3.5,1.3,3.5,3.4c0,2-1.7,4.2-3.7,6.2c0.6-0.1,1.3-0.1,1.8-0.1h2.4V21h-7.4V19.7z"/>
								</g>
							</g>
							<g transform="translate(280.000000, 0.000000)">
								<path class="st3" d="M8.8,0.7h12.5c4.4,0,8,3.6,8,8v12.5c0,4.4-3.6,8-8,8H8.8c-4.4,0-8-3.6-8-8V8.7C0.8,4.3,4.3,0.7,8.8,0.7
									z"/>
								<g class="st4">
									<path class="st5" d="M7.2,19.2h2.4v-7h-2v-1.4c1.1-0.2,1.9-0.5,2.6-0.9h1.6v9.3h2.1V21H7.2V19.2z"/>
									<path class="st5" d="M15.2,19.7l1-1.4c0.7,0.6,1.5,1.1,2.5,1.1c1.1,0,1.9-0.6,1.9-1.5c0-1.1-0.6-1.8-3.1-1.8v-1.6
										c2,0,2.7-0.7,2.7-1.7c0-0.9-0.5-1.4-1.5-1.4c-0.8,0-1.4,0.4-2.1,1l-1.1-1.3c1-0.8,2-1.4,3.3-1.4c2.1,0,3.6,1.1,3.6,3
										c0,1.2-0.7,2.1-1.9,2.5v0.1c1.3,0.3,2.2,1.3,2.2,2.7c0,2-1.8,3.2-3.9,3.2C17.2,21.2,16,20.5,15.2,19.7z"/>
								</g>
							</g>
							<g transform="translate(315.000000, 0.000000)">
								<path class="st3" d="M8.8,0.7h12.5c4.4,0,8,3.6,8,8v12.5c0,4.4-3.6,8-8,8H8.8c-4.4,0-8-3.6-8-8V8.7C0.8,4.3,4.3,0.7,8.8,0.7
									z"/>
								<g class="st4">
									<path class="st5" d="M7.2,19.2h2.4v-7h-2v-1.4c1.1-0.2,1.9-0.5,2.6-0.9h1.6v9.3h2.1V21H7.2V19.2z"/>
									<path class="st5" d="M23.2,18.1h-1.3V21h-2.1v-2.9h-4.7v-1.5l4.1-6.7h2.6v6.5h1.3V18.1z M19.9,16.4v-2.3
										c0-0.6,0.1-1.6,0.1-2.3h-0.1c-0.3,0.6-0.6,1.2-0.9,1.8l-1.7,2.8H19.9z"/>
								</g>
							</g>
							<g transform="translate(350.000000, 0.000000)">
								<path class="st3" d="M8.8,0.7h12.5c4.4,0,8,3.6,8,8v12.5c0,4.4-3.6,8-8,8H8.8c-4.4,0-8-3.6-8-8V8.7C0.8,4.3,4.3,0.7,8.8,0.7
									z"/>
								<g class="st4">
									<path class="st5" d="M7.2,19.2h2.4v-7h-2v-1.4c1.1-0.2,1.9-0.5,2.6-0.9h1.6v9.3h2.1V21H7.2V19.2z"/>
									<path class="st5" d="M15.2,19.7l1-1.4c0.6,0.6,1.4,1.1,2.4,1.1c1.2,0,2-0.7,2-2c0-1.3-0.8-2-1.9-2c-0.7,0-1,0.2-1.7,0.6
										l-1-0.7l0.3-5.4h5.9v1.8h-4l-0.2,2.4c0.4-0.2,0.8-0.3,1.3-0.3c1.9,0,3.4,1.1,3.4,3.5c0,2.5-1.8,3.9-3.9,3.9
										C17.2,21.2,16,20.5,15.2,19.7z"/>
								</g>
							</g>
							<g transform="translate(385.000000, 0.000000)">
								<path class="st3" d="M8.8,0.7h12.5c4.4,0,8,3.6,8,8v12.5c0,4.4-3.6,8-8,8H8.8c-4.4,0-8-3.6-8-8V8.7C0.8,4.3,4.3,0.7,8.8,0.7
									z"/>
								<g class="st4">
									<path class="st5" d="M7.2,19.2h2.4v-7h-2v-1.4c1.1-0.2,1.9-0.5,2.6-0.9h1.6v9.3h2.1V21H7.2V19.2z"/>
									<path class="st5" d="M21.7,12.3c-0.4-0.4-1.1-0.8-1.7-0.8c-1.3,0-2.3,1-2.4,3.7c0.6-0.7,1.6-1.2,2.3-1.2
										c1.9,0,3.2,1.1,3.2,3.5c0,2.3-1.6,3.7-3.5,3.7c-2.1,0-4-1.7-4-5.6c0-4.1,2.1-5.9,4.3-5.9c1.3,0,2.3,0.6,3,1.3L21.7,12.3z
										 M21,17.5c0-1.3-0.6-1.9-1.6-1.9c-0.6,0-1.3,0.3-1.8,1.2c0.2,2,1,2.8,1.9,2.8C20.4,19.5,21,18.9,21,17.5z"/>
								</g>
							</g>
							<g transform="translate(420.000000, 0.000000)">
								<path class="st3" d="M8.8,0.7h12.5c4.4,0,8,3.6,8,8v12.5c0,4.4-3.6,8-8,8H8.8c-4.4,0-8-3.6-8-8V8.7C0.8,4.3,4.3,0.7,8.8,0.7
									z"/>
								<g class="st4">
									<path class="st5" d="M7.2,19.2h2.4v-7h-2v-1.4c1.1-0.2,1.9-0.5,2.6-0.9h1.6v9.3h2.1V21H7.2V19.2z"/>
									<path class="st5" d="M20.6,11.7h-5V9.9H23v1.3c-2.6,3.2-2.9,5.4-3.1,9.8h-2.2C17.8,17.1,18.5,14.7,20.6,11.7z"/>
								</g>
							</g>
							<g transform="translate(455.000000, 0.000000)">
								<path class="st3" d="M8.8,0.7h12.5c4.4,0,8,3.6,8,8v12.5c0,4.4-3.6,8-8,8H8.8c-4.4,0-8-3.6-8-8V8.7C0.8,4.3,4.3,0.7,8.8,0.7
									z"/>
								<g class="st4">
									<path class="st5" d="M7.2,19.2h2.4v-7h-2v-1.4c1.1-0.2,1.9-0.5,2.6-0.9h1.6v9.3h2.1V21H7.2V19.2z"/>
									<path class="st5" d="M15.5,18.2c0-1.4,0.9-2.3,1.9-2.9v-0.1c-0.9-0.6-1.5-1.5-1.5-2.6c0-1.8,1.4-2.9,3.3-2.9
										c2,0,3.2,1.2,3.2,3c0,1.1-0.7,2-1.4,2.5v0.1c1,0.6,1.9,1.5,1.9,3c0,1.7-1.5,3-3.7,3C17.1,21.2,15.5,20,15.5,18.2z
										 M20.9,18.2c0-1.2-1-1.6-2.5-2.2c-0.6,0.5-1,1.2-1,2.1c0,1,0.8,1.7,1.9,1.7C20.2,19.7,20.9,19.1,20.9,18.2z M20.7,12.8
										c0-0.9-0.5-1.5-1.5-1.5c-0.8,0-1.4,0.5-1.4,1.4c0,1.1,0.9,1.6,2,2C20.5,14.1,20.7,13.5,20.7,12.8z"/>
								</g>
							</g>
						</g>
						<g id="INTRO4" transform="translate(251.000000, 0.000000)">
							<g id="찌릿" transform="translate(54.000000, 8.000000)">
								<rect id="Rectangle" y="6" class="st6" width="100" height="3"/>
								<circle id="Oval" class="st6" cx="98.5" cy="7.5" r="7.5"/>
								<circle class="st6" cx="34.5" cy="7.5" r="5.5"/>
								<circle class="st6" cx="65.5" cy="7.5" r="5.5"/>
							</g>
							
								<g transform="translate(53.000000, 15.500000) rotate(-180.000000) translate(-53.000000, -15.500000) translate(0.000000, 8.000000)">
								<rect y="6" class="st6" width="100" height="3"/>
								<circle class="st6" cx="98.5" cy="7.5" r="7.5"/>
								<circle class="st6" cx="34.5" cy="7.5" r="5.5"/>
								<circle class="st6" cx="65.5" cy="7.5" r="5.5"/>
							</g>
							<path class="st6" d="M38,0h84c4.4,0,8,3.6,8,8v15c0,4.4-3.6,8-8,8H38c-4.4,0-8-3.6-8-8V8C30,3.6,33.6,0,38,0z"/>
							<g class="st4">
								<path class="st7" d="M60.6,20.8H48.4l6.1-10.6L60.6,20.8z M49.2,20.4h10.6l-5.3-9.1L49.2,20.4z"/>
								<path class="st7" d="M65.2,11.5h1.2V21h-1.2V11.5z"/>
								<path class="st7" d="M68.9,13.9h1l0.1,1h0c0.7-0.7,1.4-1.2,2.4-1.2c1.5,0,2.2,1,2.2,2.8V21h-1.2v-4.3c0-1.3-0.4-1.9-1.3-1.9
									c-0.7,0-1.2,0.4-1.9,1.1V21h-1.2V13.9z"/>
								<path class="st7" d="M77.1,18.8v-3.9H76V14l1.1-0.1l0.1-2h1v2h1.9v1h-1.9v3.9c0,0.9,0.3,1.4,1.1,1.4c0.2,0,0.6-0.1,0.8-0.2
									l0.2,0.9c-0.4,0.1-0.9,0.3-1.3,0.3C77.6,21.2,77.1,20.2,77.1,18.8z"/>
								<path class="st7" d="M81.8,13.9h1l0.1,1.3h0c0.5-0.9,1.2-1.5,2-1.5c0.3,0,0.5,0,0.8,0.2l-0.2,1c-0.2-0.1-0.4-0.1-0.7-0.1
									c-0.6,0-1.3,0.4-1.8,1.6V21h-1.2V13.9z"/>
								<path class="st7" d="M86.1,17.5c0-2.4,1.5-3.7,3.3-3.7s3.3,1.4,3.3,3.7c0,2.3-1.5,3.7-3.3,3.7S86.1,19.8,86.1,17.5z
									 M91.5,17.5c0-1.6-0.8-2.7-2.1-2.7c-1.2,0-2,1.1-2,2.7s0.8,2.7,2,2.7C90.6,20.2,91.5,19.1,91.5,17.5z"/>
								<path class="st7" d="M94.5,13.9h1l0.1,1h0c0.7-0.7,1.4-1.2,2.4-1.2c1.5,0,2.2,1,2.2,2.8V21H99v-4.3c0-1.3-0.4-1.9-1.3-1.9
									c-0.7,0-1.2,0.4-1.9,1.1V21h-1.2V13.9z"/>
								<path class="st7" d="M111,18.4h-1.3V21h-1.1v-2.6h-4.1v-0.8l4-6.1h1.3v6h1.3V18.4z M108.6,17.4v-2.9c0-0.5,0.1-1.2,0.1-1.7
									h-0.1c-0.2,0.5-0.5,0.9-0.8,1.4l-2.2,3.2H108.6z"/>
							</g>
						</g>
						<g class="st4">
							<path d="M1.2,11.2h5.2v1.2H2.6v2.5h3.2V16H2.6v2.9h4V20H1.2V11.2z"/>
							<path d="M9,16.6l-2-3.2h1.5l0.8,1.3c0.2,0.4,0.4,0.7,0.6,1.1h0c0.2-0.4,0.4-0.7,0.6-1.1l0.7-1.3h1.4l-2,3.3l2.1,3.3h-1.5
								l-0.9-1.4c-0.2-0.4-0.4-0.8-0.7-1.2H9.7c-0.2,0.4-0.4,0.8-0.6,1.2L8.4,20H6.9L9,16.6z"/>
							<path d="M13.3,16.7c0-2.2,1.5-3.5,3.1-3.5c1.6,0,3.1,1.3,3.1,3.5c0,2.2-1.5,3.4-3.1,3.4C14.8,20.2,13.3,18.9,13.3,16.7z
								 M18.1,16.7c0-1.4-0.6-2.3-1.7-2.3c-1,0-1.7,0.9-1.7,2.3c0,1.4,0.6,2.3,1.7,2.3C17.5,19,18.1,18.1,18.1,16.7z"/>
							<path d="M21.2,13.4h1.1l0.1,0.9h0c0.6-0.6,1.3-1.1,2.2-1.1c1.4,0,2,0.9,2,2.6V20h-1.4v-4c0-1.1-0.3-1.6-1.1-1.6
								c-0.6,0-1,0.3-1.6,0.9V20h-1.4V13.4z"/>
							<path d="M31.4,13.4h1.1l0.1,0.9h0c0.6-0.6,1.3-1.1,2.2-1.1c1.4,0,2,0.9,2,2.6V20h-1.4v-4c0-1.1-0.3-1.6-1.1-1.6
								c-0.6,0-1,0.3-1.6,0.9V20h-1.4V13.4z"/>
							<path d="M38.8,17.6v-4.2h1.4v4c0,1.1,0.3,1.6,1.1,1.6c0.6,0,1-0.3,1.6-1v-4.6h1.4V20h-1.1L43,19h0c-0.6,0.7-1.2,1.2-2.2,1.2
								C39.4,20.2,38.8,19.2,38.8,17.6z"/>
							<path d="M46.3,13.4h1.1l0.1,0.9h0c0.6-0.6,1.2-1.1,2-1.1c1,0,1.5,0.5,1.8,1.2c0.6-0.7,1.3-1.2,2.1-1.2c1.4,0,2,0.9,2,2.6V20
								h-1.4v-4c0-1.1-0.4-1.6-1.1-1.6c-0.5,0-0.9,0.3-1.5,0.9V20h-1.4v-4c0-1.1-0.3-1.6-1.1-1.6c-0.4,0-0.9,0.3-1.5,0.9V20h-1.4
								V13.4z"/>
							<path d="M58.8,19.3L58.8,19.3L58.7,20h-1.1v-9.6H59V13l0,1.1c0.6-0.5,1.3-0.9,2-0.9c1.7,0,2.6,1.3,2.6,3.4
								c0,2.3-1.4,3.6-2.8,3.6C60.1,20.2,59.4,19.9,58.8,19.3z M62.1,16.6c0-1.4-0.4-2.2-1.5-2.2c-0.5,0-1,0.3-1.6,0.8v3.2
								c0.5,0.4,1,0.6,1.4,0.6C61.4,19,62.1,18.2,62.1,16.6z"/>
							<path d="M64.7,16.7c0-2.1,1.5-3.5,3-3.5c1.8,0,2.7,1.3,2.7,3.1c0,0.3,0,0.5-0.1,0.7H66c0.1,1.3,0.9,2,2,2
								c0.6,0,1.1-0.2,1.6-0.5l0.5,0.9c-0.6,0.4-1.4,0.7-2.2,0.7C66.1,20.2,64.7,18.9,64.7,16.7z M69.2,16.1c0-1.1-0.5-1.8-1.5-1.8
								c-0.8,0-1.6,0.6-1.7,1.8H69.2z"/>
							<path d="M71.9,13.4h1.1l0.1,1.2h0c0.5-0.9,1.2-1.4,1.9-1.4c0.3,0,0.5,0,0.7,0.1l-0.3,1.2c-0.2-0.1-0.4-0.1-0.7-0.1
								c-0.5,0-1.2,0.4-1.6,1.4V20h-1.4V13.4z"/>
						</g>
					</g>
					<g id="결과" transform="translate(244.000000, 127.000000)">
						<g transform="translate(0.000000, 75.000000)">
							<g id="HFG">
								<circle class="st8" cx="35" cy="35" r="35"/>
								<g class="st4">
									<path class="st5" d="M23.3,31.4h1.5v3.9h4.1v-3.9h1.5V41h-1.5v-4.4h-4.1V41h-1.5V31.4z"/>
									<path class="st5" d="M32.9,31.4h5.7v1.3h-4.2v2.9h3.5v1.3h-3.5V41h-1.5V31.4z"/>
									<path class="st5" d="M39.6,36.2c0-3.1,1.9-5,4.5-5c1.4,0,2.3,0.6,2.8,1.2l-0.8,1c-0.5-0.5-1.1-0.9-2-0.9
										c-1.8,0-3,1.4-3,3.6c0,2.3,1.1,3.7,3,3.7c0.6,0,1.2-0.2,1.5-0.5v-2.2h-1.9v-1.2H47v4.1c-0.6,0.6-1.7,1.1-3,1.1
										C41.4,41.2,39.6,39.4,39.6,36.2z"/>
								</g>
							</g>
							<g id="HGF" transform="translate(184.000000, 0.000000)">
								<circle class="st8" cx="35" cy="35" r="35"/>
								<g class="st4">
									<path class="st5" d="M23.3,31.4h1.5v3.9h4.1v-3.9h1.5V41h-1.5v-4.4h-4.1V41h-1.5V31.4z"/>
									<path class="st5" d="M32.4,36.2c0-3.1,1.9-5,4.5-5c1.4,0,2.3,0.6,2.8,1.2l-0.8,1c-0.5-0.5-1.1-0.9-2-0.9
										c-1.8,0-3,1.4-3,3.6c0,2.3,1.1,3.7,3,3.7c0.6,0,1.2-0.2,1.5-0.5v-2.2h-1.9v-1.2h3.3v4.1c-0.6,0.6-1.7,1.1-3,1.1
										C34.2,41.2,32.4,39.4,32.4,36.2z"/>
									<path class="st5" d="M42,31.4h5.7v1.3h-4.2v2.9H47v1.3h-3.5V41H42V31.4z"/>
								</g>
							</g>
						</g>
						<g id="splice" transform="translate(27.000000, 0.000000)">
							
								<g id="arrow" transform="translate(32.952825, 33.008318) rotate(-20.000000) translate(-32.952825, -33.008318) translate(7.952825, 8.008318)">
								<path id="Line" class="st9" d="M5.1,44.6L49.3,1.4"/>
								<polyline id="Stroke-1" class="st10" points="14.2,44.4 4.9,44.8 5.3,35.7 								"/>
							</g>
							
								<g transform="translate(167.047883, 33.008443) rotate(20.000000) translate(-167.047883, -33.008443) translate(142.047883, 8.008443)">
								<path class="st9" d="M44.9,44.6L0.7,1.4"/>
								<polyline class="st10" points="35.8,44.4 45.1,44.8 44.7,35.7 								"/>
							</g>
						</g>
						<g class="st4">
							<path d="M97.5,26.5h-3.1L93.7,29h-1.4l2.9-8.8h1.6l2.9,8.8h-1.5L97.5,26.5z M97.2,25.4l-0.3-1.2c-0.3-1-0.6-1.9-0.8-2.9h0
								c-0.3,1-0.5,2-0.8,2.9l-0.4,1.2H97.2z"/>
							<path d="M100.8,27.5v-8h1.4v8.1c0,0.4,0.2,0.5,0.3,0.5c0.1,0,0.1,0,0.2,0l0.2,1c-0.2,0.1-0.4,0.1-0.7,0.1
								C101.2,29.2,100.8,28.5,100.8,27.5z"/>
							<path d="M104.6,26.8v-3.3h-1v-1l1-0.1l0.2-1.8h1.2v1.8h1.7v1.1H106v3.3c0,0.8,0.3,1.2,1,1.2c0.2,0,0.5-0.1,0.7-0.2l0.3,1
								c-0.4,0.1-0.8,0.2-1.3,0.2C105.1,29.2,104.6,28.2,104.6,26.8z"/>
							<path d="M108.4,25.7c0-2.1,1.5-3.5,3-3.5c1.8,0,2.7,1.3,2.7,3.1c0,0.3,0,0.5-0.1,0.7h-4.3c0.1,1.3,0.9,2,2,2
								c0.6,0,1.1-0.2,1.6-0.5l0.5,0.9c-0.6,0.4-1.4,0.7-2.2,0.7C109.9,29.2,108.4,27.9,108.4,25.7z M113,25.1
								c0-1.1-0.5-1.8-1.5-1.8c-0.8,0-1.6,0.6-1.7,1.8H113z"/>
							<path d="M115.7,22.4h1.1l0.1,1.2h0c0.5-0.9,1.2-1.4,1.9-1.4c0.3,0,0.5,0,0.7,0.1l-0.3,1.2c-0.2-0.1-0.4-0.1-0.7-0.1
								c-0.5,0-1.2,0.4-1.6,1.4V29h-1.4V22.4z"/>
							<path d="M120.6,22.4h1.1l0.1,0.9h0c0.6-0.6,1.3-1.1,2.2-1.1c1.4,0,2,0.9,2,2.6V29h-1.4v-4c0-1.1-0.3-1.6-1.1-1.6
								c-0.6,0-1,0.3-1.6,0.9V29h-1.4V22.4z"/>
							<path d="M127.7,27.2c0-1.4,1.2-2.1,3.9-2.4c0-0.8-0.3-1.4-1.3-1.4c-0.7,0-1.3,0.3-1.9,0.7l-0.5-0.9c0.7-0.4,1.6-0.9,2.7-0.9
								c1.6,0,2.4,1,2.4,2.8v4h-1.1l-0.1-0.8h0c-0.6,0.5-1.3,0.9-2.1,0.9C128.5,29.2,127.7,28.4,127.7,27.2z M131.6,27.3v-1.6
								c-2,0.2-2.6,0.7-2.6,1.5c0,0.6,0.4,0.9,1,0.9C130.6,28.1,131.1,27.8,131.6,27.3z"/>
							<path d="M135,26.8v-3.3h-1v-1l1-0.1l0.2-1.8h1.2v1.8h1.7v1.1h-1.7v3.3c0,0.8,0.3,1.2,1,1.2c0.2,0,0.5-0.1,0.7-0.2l0.3,1
								c-0.4,0.1-0.8,0.2-1.3,0.2C135.5,29.2,135,28.2,135,26.8z"/>
							<path d="M139.3,20.4c0-0.5,0.4-0.8,0.9-0.8s0.9,0.3,0.9,0.8c0,0.5-0.4,0.8-0.9,0.8S139.3,20.8,139.3,20.4z M139.5,22.4h1.4
								V29h-1.4V22.4z"/>
							<path d="M142.1,22.4h1.4l1.1,3.6c0.2,0.6,0.4,1.3,0.6,2h0c0.2-0.6,0.4-1.3,0.6-2l1.1-3.6h1.3L146,29h-1.6L142.1,22.4z"/>
							<path d="M149,25.7c0-2.1,1.5-3.5,3-3.5c1.8,0,2.7,1.3,2.7,3.1c0,0.3,0,0.5-0.1,0.7h-4.3c0.1,1.3,0.9,2,2,2
								c0.6,0,1.1-0.2,1.6-0.5l0.5,0.9c-0.6,0.4-1.4,0.7-2.2,0.7C150.4,29.2,149,27.9,149,25.7z M153.5,25.1c0-1.1-0.5-1.8-1.5-1.8
								c-0.8,0-1.6,0.6-1.7,1.8H153.5z"/>
							<path d="M155.3,22.4h1.4l1.1,3.6c0.2,0.6,0.4,1.3,0.6,2h0c0.2-0.6,0.4-1.3,0.6-2l1.1-3.6h1.3l-2.3,6.6h-1.6L155.3,22.4z"/>
						</g>
						<text transform="matrix(1 0 0 1 161.7212 29)" class="st11 st12"> </text>
						<g class="st4">
							<path d="M105.1,46.2l0.6-0.9c0.6,0.5,1.2,0.8,1.9,0.8c0.8,0,1.2-0.4,1.2-0.9c0-0.6-0.7-0.9-1.5-1.1c-0.9-0.3-1.9-0.8-1.9-1.9
								c0-1.1,0.9-1.9,2.3-1.9c0.9,0,1.6,0.4,2.1,0.8l-0.6,0.9c-0.5-0.3-0.9-0.6-1.5-0.6c-0.7,0-1.1,0.4-1.1,0.8
								c0,0.6,0.7,0.8,1.4,1c0.9,0.3,1.9,0.8,1.9,2c0,1.1-0.9,2-2.5,2C106.7,47.2,105.8,46.8,105.1,46.2z"/>
							<path d="M111.6,40.4h1.1l0.1,0.7h0c0.6-0.5,1.3-0.9,2-0.9c1.7,0,2.6,1.3,2.6,3.4c0,2.3-1.4,3.6-2.8,3.6
								c-0.6,0-1.2-0.3-1.7-0.7l0,1.1v2.1h-1.4V40.4z M116.1,43.6c0-1.4-0.4-2.2-1.5-2.2c-0.5,0-1,0.3-1.6,0.8v3.2
								c0.5,0.4,1,0.6,1.4,0.6C115.4,46,116.1,45.2,116.1,43.6z"/>
							<path d="M119.2,45.5v-8h1.4v8.1c0,0.4,0.2,0.5,0.3,0.5c0.1,0,0.1,0,0.2,0l0.2,1c-0.2,0.1-0.4,0.1-0.7,0.1
								C119.5,47.2,119.2,46.5,119.2,45.5z"/>
							<path d="M122.5,38.4c0-0.5,0.4-0.8,0.9-0.8s0.9,0.3,0.9,0.8c0,0.5-0.4,0.8-0.9,0.8S122.5,38.8,122.5,38.4z M122.7,40.4h1.4
								V47h-1.4V40.4z"/>
							<path d="M125.7,43.7c0-2.2,1.5-3.5,3.3-3.5c0.8,0,1.5,0.3,1.9,0.8l-0.7,0.9c-0.4-0.3-0.7-0.5-1.2-0.5c-1.1,0-1.9,0.9-1.9,2.3
								c0,1.4,0.8,2.3,1.9,2.3c0.6,0,1-0.3,1.4-0.6l0.6,0.9c-0.6,0.5-1.4,0.8-2.1,0.8C127.1,47.2,125.7,45.9,125.7,43.7z"/>
							<path d="M132.2,38.4c0-0.5,0.4-0.8,0.9-0.8s0.9,0.3,0.9,0.8c0,0.5-0.4,0.8-0.9,0.8S132.2,38.8,132.2,38.4z M132.4,40.4h1.4
								V47h-1.4V40.4z"/>
							<path d="M135.8,40.4h1.1l0.1,0.9h0c0.6-0.6,1.3-1.1,2.2-1.1c1.4,0,2,0.9,2,2.6V47h-1.4v-4c0-1.1-0.3-1.6-1.1-1.6
								c-0.6,0-1,0.3-1.6,0.9V47h-1.4V40.4z"/>
							<path d="M142.8,48.2c0-0.6,0.3-1.1,1-1.4v-0.1c-0.3-0.2-0.6-0.6-0.6-1.1c0-0.5,0.4-1,0.7-1.2v0c-0.4-0.3-0.9-1-0.9-1.8
								c0-1.5,1.2-2.4,2.6-2.4c0.4,0,0.7,0.1,1,0.2h2.3v1h-1.3c0.3,0.3,0.4,0.7,0.4,1.2c0,1.4-1.1,2.3-2.5,2.3
								c-0.3,0-0.6-0.1-0.9-0.2c-0.2,0.2-0.4,0.4-0.4,0.7c0,0.4,0.3,0.6,1.1,0.6h1.2c1.6,0,2.4,0.5,2.4,1.6c0,1.3-1.3,2.3-3.5,2.3
								C144,50,142.8,49.4,142.8,48.2z M147.7,47.9c0-0.6-0.4-0.7-1.2-0.7h-1c-0.3,0-0.6,0-0.9-0.1c-0.4,0.3-0.6,0.6-0.6,1
								c0,0.6,0.7,1,1.8,1C146.9,49.1,147.7,48.5,147.7,47.9z M146.9,42.6c0-0.9-0.6-1.4-1.2-1.4s-1.2,0.5-1.2,1.4
								c0,0.9,0.6,1.4,1.2,1.4S146.9,43.5,146.9,42.6z"/>
						</g>
					</g>
				</g>
				<g id="COLE" transform="translate(179.000000, 0.000000)">
					<path class="st3" d="M8.8,0.7h132.5c4.4,0,8,3.6,8,8v32.5c0,4.4-3.6,8-8,8H8.8c-4.4,0-8-3.6-8-8V8.7C0.8,4.3,4.3,0.7,8.8,0.7z"
						/>
					<g class="st4">
						<path class="st5" d="M55.9,25.5c0-3.6,2.2-5.8,5-5.8c1.4,0,2.5,0.7,3.1,1.4L63,22.3c-0.6-0.6-1.3-1-2.2-1
							c-1.9,0-3.2,1.6-3.2,4.2c0,2.6,1.2,4.2,3.2,4.2c1,0,1.8-0.4,2.4-1.2l0.9,1.1c-0.9,1-2,1.6-3.4,1.6
							C58,31.2,55.9,29.1,55.9,25.5z"/>
						<path class="st5" d="M65.4,26.9c0-2.8,1.8-4.4,3.9-4.4c2,0,3.9,1.6,3.9,4.4c0,2.7-1.8,4.3-3.9,4.3
							C67.3,31.2,65.4,29.6,65.4,26.9z M71.4,26.9c0-1.8-0.8-2.9-2.1-2.9c-1.3,0-2.1,1.2-2.1,2.9c0,1.7,0.8,2.9,2.1,2.9
							C70.6,29.8,71.4,28.6,71.4,26.9z"/>
						<path class="st5" d="M75.2,29.1V19h1.7v10.1c0,0.5,0.2,0.6,0.4,0.6c0.1,0,0.1,0,0.3,0l0.2,1.3c-0.2,0.1-0.5,0.1-0.9,0.1
							C75.7,31.2,75.2,30.4,75.2,29.1z"/>
						<path class="st5" d="M79.8,20h6.5v1.5h-4.8v3.1h4V26h-4v3.6h4.9V31h-6.7V20z"/>
						<path class="st5" d="M88.7,29.6h2.4v-7.7h-2v-1.1c1-0.2,1.8-0.5,2.4-0.8h1.3v9.6H95V31h-6.3V29.6z"/>
					</g>
				</g>
				<g transform="translate(124.000000, 100.000000)">
					<path class="st6" d="M8,0h155c4.4,0,8,3.6,8,8v34c0,4.4-3.6,8-8,8H8c-4.4,0-8-3.6-8-8V8C0,3.6,3.6,0,8,0z"/>
					<g class="st4">
						<path class="st7" d="M21.5,20h1.7v4.5h4.7V20h1.7v11h-1.7v-5h-4.7v5h-1.7V20z"/>
						<path class="st7" d="M32,25.5c0-3.6,2.2-5.8,5-5.8c1.4,0,2.5,0.7,3.1,1.4l-0.9,1.1c-0.6-0.6-1.3-1-2.2-1
							c-1.9,0-3.2,1.6-3.2,4.2c0,2.6,1.2,4.2,3.2,4.2c1,0,1.8-0.4,2.4-1.2l0.9,1.1c-0.9,1-2,1.6-3.4,1.6C34.1,31.2,32,29.1,32,25.5z
							"/>
						<path class="st7" d="M42.2,20h2l2,5.6c0.3,0.7,0.5,1.5,0.7,2.2h0.1c0.3-0.8,0.5-1.5,0.7-2.2l2-5.6h2v11h-1.6v-5.5
							c0-1,0.1-2.4,0.2-3.4h-0.1l-0.9,2.5l-1.9,5.3h-1.1l-1.9-5.3l-0.9-2.5h-0.1c0.1,1,0.2,2.4,0.2,3.4V31h-1.6V20z"/>
						<path class="st7" d="M53.2,20h1.8l1.6,5.7c0.4,1.3,0.6,2.3,1,3.6h0.1c0.4-1.3,0.6-2.4,1-3.6l1.6-5.7h1.8l-3.4,11h-2.1L53.2,20
							z"/>
						<path class="st7" d="M67,20h1.7v11H67V20z"/>
						<path class="st7" d="M71.6,20h6.5v1.5h-4.8v3.1h4V26h-4v3.6h4.9V31h-6.7V20z"/>
						<path class="st7" d="M83.8,22.7h1.4l0.1,0.9h0c0.7-0.6,1.6-1.1,2.5-1.1c2.1,0,3.3,1.7,3.3,4.2c0,2.8-1.7,4.5-3.6,4.5
							c-0.7,0-1.5-0.3-2.2-0.9l0,1.4v2.7h-1.7V22.7z M89.4,26.8c0-1.7-0.6-2.8-1.9-2.8c-0.6,0-1.3,0.3-2,1v4
							c0.6,0.6,1.3,0.8,1.8,0.8C88.5,29.8,89.4,28.7,89.4,26.8z"/>
						<path class="st7" d="M93.3,22.7h1.4l0.1,1.5h0c0.6-1.1,1.5-1.7,2.3-1.7c0.4,0,0.7,0.1,0.9,0.2l-0.3,1.5
							c-0.3-0.1-0.5-0.1-0.8-0.1c-0.7,0-1.5,0.5-2,1.8V31h-1.7V22.7z"/>
						<path class="st7" d="M98.7,26.9c0-2.8,1.8-4.4,3.9-4.4c2,0,3.9,1.6,3.9,4.4c0,2.7-1.8,4.3-3.9,4.3
							C100.5,31.2,98.7,29.6,98.7,26.9z M104.7,26.9c0-1.8-0.8-2.9-2.1-2.9c-1.3,0-2.1,1.2-2.1,2.9c0,1.7,0.8,2.9,2.1,2.9
							C103.9,29.8,104.7,28.6,104.7,26.9z"/>
						<path class="st7" d="M108.5,22.7h1.4l0.1,1.2h0c0.7-0.8,1.5-1.4,2.5-1.4c1.2,0,1.9,0.6,2.3,1.5c0.8-0.9,1.6-1.5,2.7-1.5
							c1.7,0,2.5,1.2,2.5,3.3V31h-1.7v-5c0-1.4-0.5-2-1.4-2c-0.6,0-1.2,0.4-1.9,1.1V31h-1.7v-5c0-1.4-0.4-2-1.4-2
							c-0.6,0-1.2,0.4-1.9,1.1V31h-1.7V22.7z"/>
						<path class="st7" d="M122,26.9c0-2.8,1.8-4.4,3.9-4.4c2,0,3.9,1.6,3.9,4.4c0,2.7-1.8,4.3-3.9,4.3
							C123.9,31.2,122,29.6,122,26.9z M128,26.9c0-1.8-0.8-2.9-2.1-2.9c-1.3,0-2.1,1.2-2.1,2.9c0,1.7,0.8,2.9,2.1,2.9
							C127.2,29.8,128,28.6,128,26.9z"/>
						<path class="st7" d="M131.7,28.3v-4.2h-1.2v-1.3l1.3-0.1l0.2-2.3h1.5v2.3h2.1v1.4h-2.1v4.2c0,1,0.3,1.5,1.2,1.5
							c0.3,0,0.6-0.1,0.9-0.2l0.3,1.3c-0.5,0.2-1,0.3-1.6,0.3C132.4,31.2,131.7,30,131.7,28.3z"/>
						<path class="st7" d="M136.6,26.9c0-2.7,1.8-4.4,3.8-4.4c2.2,0,3.4,1.6,3.4,3.9c0,0.3,0,0.7-0.1,0.9h-5.4
							c0.1,1.6,1.1,2.5,2.5,2.5c0.7,0,1.4-0.2,2-0.6l0.6,1.1c-0.8,0.5-1.7,0.9-2.8,0.9C138.3,31.2,136.6,29.6,136.6,26.9z
							 M142.2,26.1c0-1.4-0.6-2.2-1.8-2.2c-1,0-1.9,0.8-2.1,2.2H142.2z"/>
						<path class="st7" d="M145.6,22.7h1.4l0.1,1.5h0c0.6-1.1,1.5-1.7,2.3-1.7c0.4,0,0.7,0.1,0.9,0.2l-0.3,1.5
							c-0.3-0.1-0.5-0.1-0.8-0.1c-0.7,0-1.5,0.5-2,1.8V31h-1.7V22.7z"/>
					</g>
				</g>
				<g transform="translate(396.000000, 100.000000)">
					<g id="HGF_X7">
						<path class="st13" d="M259.2,49.2V0.7H8C4,0.7,0.8,4,0.8,8v34c0,4,3.2,7.2,7.2,7.2H259.2z"/>
						<g class="st4">
							<path class="st5" d="M105.5,20h1.7v4.5h4.7V20h1.7v11h-1.7v-5h-4.7v5h-1.7V20z"/>
							<path class="st5" d="M116,25.5c0-3.6,2.2-5.8,5.1-5.8c1.6,0,2.6,0.7,3.3,1.4l-0.9,1.1c-0.5-0.6-1.2-1-2.3-1
								c-2.1,0-3.4,1.6-3.4,4.2c0,2.6,1.2,4.2,3.5,4.2c0.7,0,1.3-0.2,1.7-0.5v-2.6h-2.2v-1.4h3.8v4.8c-0.7,0.7-2,1.3-3.5,1.3
								C118.1,31.2,116,29.1,116,25.5z"/>
							<path class="st5" d="M127.1,20h6.5v1.5h-4.8v3.4h4.1v1.5h-4.1V31h-1.7V20z"/>
							<path class="st5" d="M134.8,26.1h4v1.3h-4V26.1z"/>
							<path class="st5" d="M142.4,25.3l-3-5.3h1.9l1.3,2.6c0.3,0.5,0.5,1,0.8,1.7h0.1c0.3-0.7,0.5-1.2,0.8-1.7l1.3-2.6h1.8l-3,5.4
								l3.2,5.6h-1.9l-1.5-2.7c-0.3-0.6-0.6-1.1-0.9-1.8h-0.1c-0.3,0.7-0.6,1.2-0.9,1.8L141,31h-1.8L142.4,25.3z"/>
							<path class="st5" d="M153.8,21.4h-5.2V20h7.1v1c-2.6,3.2-3,5.7-3.2,10h-1.8C151,27,151.7,24.4,153.8,21.4z"/>
						</g>
					</g>
					<g id="PA" transform="translate(259.000000, 0.000000)">
						<path class="st3" d="M0.8,0.7v48.5H92c4,0,7.2-3.2,7.2-7.2V8c0-4-3.2-7.2-7.2-7.2H0.8z"/>
						<g class="st4">
							<path class="st5" d="M41.3,22.7h1.4l0.1,0.9h0c0.7-0.6,1.6-1.1,2.5-1.1c2.1,0,3.3,1.7,3.3,4.2c0,2.8-1.7,4.5-3.6,4.5
								c-0.7,0-1.5-0.3-2.2-0.9l0,1.4v2.7h-1.7V22.7z M46.9,26.8c0-1.7-0.6-2.8-1.9-2.8c-0.6,0-1.3,0.3-2,1v4
								c0.6,0.6,1.3,0.8,1.8,0.8C46,29.8,46.9,28.7,46.9,26.8z"/>
							<path class="st5" d="M56,27.9h-3.8L51.2,31h-1.8l3.7-11h2l3.7,11h-1.8L56,27.9z M55.6,26.5L55.1,25c-0.4-1.2-0.7-2.4-1-3.7
								H54c-0.3,1.3-0.7,2.5-1,3.7l-0.5,1.5H55.6z"/>
						</g>
					</g>
				</g>
				<g id="KAN" transform="translate(551.000000, 0.000000)">
					<path class="st3" d="M8.8,0.7h132.5c4.4,0,8,3.6,8,8v32.5c0,4.4-3.6,8-8,8H8.8c-4.4,0-8-3.6-8-8V8.7C0.8,4.3,4.3,0.7,8.8,0.7z"
						/>
					<g class="st4">
						<path class="st5" d="M62.5,20h1.7v5.2h0l4.2-5.2h1.9L67,24.2l4,6.8H69l-3.1-5.4l-1.7,2.1V31h-1.7V20z"/>
						<path class="st5" d="M71.8,28.8c0-1.8,1.5-2.7,4.9-3.1c0-1-0.4-1.8-1.6-1.8c-0.9,0-1.7,0.4-2.4,0.8l-0.6-1.2
							c0.9-0.5,2-1.1,3.3-1.1c2.1,0,3,1.3,3,3.5v5H77l-0.2-0.9h0c-0.8,0.6-1.6,1.1-2.6,1.1C72.8,31.2,71.8,30.3,71.8,28.8z
							 M76.7,28.9v-2c-2.4,0.3-3.3,0.9-3.3,1.8c0,0.8,0.6,1.1,1.3,1.1C75.4,29.8,76,29.5,76.7,28.9z"/>
						<path class="st5" d="M80.9,22.7h1.4l0.1,1.1h0c0.8-0.7,1.6-1.4,2.7-1.4c1.8,0,2.5,1.2,2.5,3.3V31H86v-5c0-1.4-0.4-2-1.4-2
							c-0.8,0-1.3,0.4-2,1.1V31h-1.7V22.7z"/>
					</g>
				</g>
				<g transform="translate(295.000000, 117.000000)">
					<rect y="6" class="st6" width="89" height="3"/>
					<circle class="st6" cx="83.5" cy="7.5" r="7.5"/>
					<circle class="st6" cx="29.5" cy="7.5" r="5.5"/>
					<circle class="st6" cx="55.5" cy="7.5" r="5.5"/>
				</g>
				<path class="st6" d="M340,25h200c0.6,0,1,0.4,1,1l0,0c0,0.6-0.4,1-1,1H340c-0.6,0-1-0.4-1-1l0,0C339,25.4,339.4,25,340,25z"/>
			</g>
		</g>
	</g>
</g>
</svg>
