<?xml version="1.0" encoding="utf-8"?>
<!-- Generator: Adobe Illustrator 23.0.4, SVG Export Plug-In . SVG Version: 6.00 Build 0)  -->
<svg version="1.1" id="레이어_1" xmlns="http://www.w3.org/2000/svg" xmlns:xlink="http://www.w3.org/1999/xlink" x="0px"
	 y="0px" viewBox="0 0 334 301" style="enable-background:new 0 0 334 301;" xml:space="preserve">
<style type="text/css">
	.st0{fill:none;stroke:#B54142;}
	.st1{fill:none;stroke:#B54142;stroke-linecap:square;}
	.st2{fill-rule:evenodd;clip-rule:evenodd;fill:#FFFFFF;stroke:#B54142;stroke-width:0.5;}
	.st3{enable-background:new    ;}
	.st4{fill:#B54142;}
	.st5{fill-rule:evenodd;clip-rule:evenodd;fill:#B54142;}
	.st6{fill:#FFFFFF;}
	.st7{fill-rule:evenodd;clip-rule:evenodd;fill:#FFFFFF;stroke:#B54142;}
	.st8{fill:none;stroke:#B54142;stroke-linecap:round;stroke-linejoin:round;}
	.st9{font-family:'NotoSansCJKkr-Regular-KSCpc-EUC-H';}
	.st10{font-size:10px;}
</style>
<title>Diagram</title>
<desc>Created with Sketch.</desc>
<g id="Page-1">
	<g id="mobile1" transform="translate(-20.000000, -546.000000)">
		<g transform="translate(0.000000, 526.000000)">
			<g id="Diagram" transform="translate(20.000000, 20.000000)">
				<g id="HGF-X7_결과테이블" transform="translate(0.000000, 93.000000)">
					<path id="bg" class="st0" d="M8.5,20.5h317c4.4,0,8,3.6,8,8v171c0,4.4-3.6,8-8,8H8.5c-4.4,0-8-3.6-8-8v-171
						C0.5,24.1,4.1,20.5,8.5,20.5z"/>
					<path id="line" class="st1" d="M221.5,0v20"/>
					<g id="표-02" transform="translate(34.000000, 35.000000)">
						<g id="number" transform="translate(0.000000, 5.000000)">
							<g>
								<g transform="translate(51.000000, 0.000000)">
									<path class="st2" d="M4.2,0.2h6.5c2.2,0,4,1.8,4,4v6.5c0,2.2-1.8,4-4,4H4.2c-2.2,0-4-1.8-4-4V4.2C0.2,2,2,0.2,4.2,0.2z"/>
									<g class="st3">
										<path class="st4" d="M9,9.3H8.2V11H7.7V9.3H5.2V9l2.6-3.9h0.5v3.8H9V9.3z M7.7,8.9V6.8c0-0.3,0-0.7,0-1h0
											C7.6,6.1,7.4,6.4,7.3,6.6L5.7,8.9H7.7z"/>
									</g>
								</g>
								<g transform="translate(34.000000, 0.000000)">
									<path class="st2" d="M4.2,0.2h6.5c2.2,0,4,1.8,4,4v6.5c0,2.2-1.8,4-4,4H4.2c-2.2,0-4-1.8-4-4V4.2C0.2,2,2,0.2,4.2,0.2z"/>
									<g class="st3">
										<path class="st4" d="M5.2,10.3L5.5,10c0.3,0.4,0.8,0.7,1.5,0.7c0.8,0,1.3-0.5,1.3-1.2c0-0.8-0.5-1.3-1.9-1.3V7.8
											c1.3,0,1.7-0.6,1.7-1.2c0-0.6-0.4-1-1.1-1.1c-0.5,0-1,0.3-1.3,0.6L5.5,5.7C5.9,5.4,6.4,5.1,7,5.1c0.9,0,1.6,0.5,1.6,1.4
											c0,0.8-0.4,1.2-1.1,1.4v0c0.7,0.2,1.3,0.7,1.3,1.5c0,1-0.8,1.6-1.8,1.6C6.2,11.1,5.6,10.7,5.2,10.3z"/>
									</g>
								</g>
								<g transform="translate(17.000000, 0.000000)">
									<path class="st2" d="M4.2,0.2h6.5c2.2,0,4,1.8,4,4v6.5c0,2.2-1.8,4-4,4H4.2c-2.2,0-4-1.8-4-4V4.2C0.2,2,2,0.2,4.2,0.2z"/>
									<g class="st3">
										<path class="st4" d="M5.4,10.7c2-1.7,2.8-2.9,2.8-4c0-0.7-0.4-1.3-1.2-1.3c-0.5,0-1,0.3-1.3,0.7L5.3,5.9
											C5.8,5.4,6.3,5.1,7,5.1c1,0,1.6,0.7,1.6,1.7c0,1.2-0.9,2.4-2.5,3.9c0.3,0,0.7,0,1,0h1.8V11H5.4V10.7z"/>
									</g>
								</g>
								<g>
									<path class="st2" d="M4.2,0.2h6.5c2.2,0,4,1.8,4,4v6.5c0,2.2-1.8,4-4,4H4.2c-2.2,0-4-1.8-4-4V4.2C0.2,2,2,0.2,4.2,0.2z"/>
									<g class="st3">
										<path class="st4" d="M5.7,10.6h1.3V5.9H6V5.5c0.5-0.1,0.8-0.2,1.1-0.4h0.4v5.4h1.2V11h-3V10.6z"/>
									</g>
								</g>
							</g>
							<g transform="translate(183.000000, 0.000000)">
								<g id="Stacked-Group">
									<g transform="translate(68.000000, 0.000000)">
										<path class="st2" d="M4.2,0.2h6.5c2.2,0,4,1.8,4,4v6.5c0,2.2-1.8,4-4,4H4.2c-2.2,0-4-1.8-4-4V4.2C0.2,2,2,0.2,4.2,0.2z"/>
										<g class="st3">
											<path class="st4" d="M5.8,10.2c0.3,0.3,0.6,0.5,1,0.5c0.8,0,1.5-0.7,1.6-2.7C8,8.4,7.5,8.8,6.9,8.8c-1,0-1.6-0.6-1.6-1.8
												c0-1.1,0.7-1.9,1.6-1.9c1.1,0,1.9,0.9,1.9,2.7c0,2.5-1,3.3-2,3.3c-0.6,0-1-0.2-1.3-0.6L5.8,10.2z M8.4,7.5
												c0-1.3-0.5-2.1-1.4-2.1c-0.6,0-1.1,0.6-1.1,1.5c0,0.8,0.4,1.5,1.2,1.5C7.4,8.4,7.9,8.1,8.4,7.5z"/>
										</g>
									</g>
									<g transform="translate(51.000000, 0.000000)">
										<path class="st2" d="M4.2,0.2h6.5c2.2,0,4,1.8,4,4v6.5c0,2.2-1.8,4-4,4H4.2c-2.2,0-4-1.8-4-4V4.2C0.2,2,2,0.2,4.2,0.2z"/>
										<g class="st3">
											<path class="st4" d="M5.4,9.6c0-0.8,0.6-1.4,1.1-1.7v0C6.1,7.6,5.7,7.1,5.7,6.5c0-0.8,0.7-1.4,1.5-1.4
												c1,0,1.5,0.6,1.5,1.5c0,0.6-0.5,1.2-0.8,1.4v0c0.5,0.3,1,0.7,1,1.5c0,0.8-0.7,1.5-1.7,1.5C6.1,11.1,5.4,10.4,5.4,9.6z
												 M8.4,9.6c0-0.9-0.8-1.2-1.7-1.6c-0.6,0.3-1,0.8-1,1.5c0,0.7,0.6,1.2,1.4,1.2C7.9,10.7,8.4,10.2,8.4,9.6z M8.3,6.6
												c0-0.6-0.4-1.2-1.1-1.2c-0.6,0-1,0.4-1,1.1c0,0.8,0.7,1.1,1.5,1.4C8,7.6,8.3,7.1,8.3,6.6z"/>
										</g>
									</g>
									<g transform="translate(34.000000, 0.000000)">
										<path class="st2" d="M4.2,0.2h6.5c2.2,0,4,1.8,4,4v6.5c0,2.2-1.8,4-4,4H4.2c-2.2,0-4-1.8-4-4V4.2C0.2,2,2,0.2,4.2,0.2z"/>
										<g class="st3">
											<path class="st4" d="M8.3,5.6h-3V5.2h3.5v0.3C7.5,7.3,7.2,8.7,7.1,11H6.6C6.7,8.7,7.2,7.2,8.3,5.6z"/>
										</g>
									</g>
									<g transform="translate(17.000000, 0.000000)">
										<path class="st2" d="M4.2,0.2h6.5c2.2,0,4,1.8,4,4v6.5c0,2.2-1.8,4-4,4H4.2c-2.2,0-4-1.8-4-4V4.2C0.2,2,2,0.2,4.2,0.2z"/>
										<g class="st3">
											<path class="st4" d="M8.5,5.9c-0.2-0.3-0.6-0.5-1-0.5C6.7,5.5,6,6.2,5.9,8.2c0.4-0.5,0.9-0.8,1.4-0.8
												c1,0,1.6,0.6,1.6,1.8c0,1.1-0.7,1.9-1.6,1.9c-1.1,0-1.9-1-1.9-2.9c0-2.4,1-3.2,2.1-3.2c0.5,0,0.9,0.2,1.2,0.6L8.5,5.9z
												 M8.5,9.2c0-0.8-0.4-1.5-1.2-1.5C6.9,7.8,6.4,8,5.9,8.6c0.1,1.3,0.5,2.1,1.4,2.1C8,10.7,8.5,10.1,8.5,9.2z"/>
										</g>
									</g>
									<g>
										<path class="st2" d="M4.2,0.2h6.5c2.2,0,4,1.8,4,4v6.5c0,2.2-1.8,4-4,4H4.2c-2.2,0-4-1.8-4-4V4.2C0.2,2,2,0.2,4.2,0.2z"/>
										<g class="st3">
											<path class="st4" d="M5.2,10.3L5.5,10c0.3,0.4,0.8,0.7,1.5,0.7c0.7,0,1.4-0.6,1.4-1.6c0-0.9-0.5-1.5-1.3-1.5
												C6.6,7.6,6.3,7.8,6,8L5.7,7.8l0.2-2.7h2.7v0.4H6.3l-0.2,2c0.3-0.2,0.6-0.3,1-0.3c1,0,1.7,0.6,1.7,1.9c0,1.3-0.9,2-1.8,2
												C6.1,11.1,5.6,10.7,5.2,10.3z"/>
										</g>
									</g>
								</g>
								<g transform="translate(0.000000, 17.000000)">
									<g transform="translate(68.000000, 0.000000)">
										<path class="st2" d="M4.2,0.2h6.5c2.2,0,4,1.8,4,4v6.5c0,2.2-1.8,4-4,4H4.2c-2.2,0-4-1.8-4-4V4.2C0.2,2,2,0.2,4.2,0.2z"/>
										<g class="st3">
											<path class="st4" d="M3.7,10.6h1.3V5.9H4V5.5c0.5-0.1,0.8-0.2,1.1-0.4h0.4v5.4h1.2V11h-3V10.6z"/>
											<path class="st4" d="M11.3,9.3h-0.8V11H10V9.3H7.4V9L10,5.2h0.5v3.8h0.8V9.3z M10,8.9V6.8c0-0.3,0-0.7,0-1h0
												C9.9,6.1,9.7,6.4,9.6,6.6L8,8.9H10z"/>
										</g>
									</g>
									<g transform="translate(34.000000, 0.000000)">
										<path class="st2" d="M4.2,0.2h6.5c2.2,0,4,1.8,4,4v6.5c0,2.2-1.8,4-4,4H4.2c-2.2,0-4-1.8-4-4V4.2C0.2,2,2,0.2,4.2,0.2z"/>
										<g class="st3">
											<path class="st4" d="M3.7,10.6h1.3V5.9H4V5.5c0.5-0.1,0.8-0.2,1.1-0.4h0.4v5.4h1.2V11h-3V10.6z"/>
											<path class="st4" d="M7.6,10.7c2-1.7,2.8-2.9,2.8-4c0-0.7-0.4-1.3-1.2-1.3c-0.5,0-1,0.3-1.3,0.7L7.6,5.9
												c0.4-0.5,0.9-0.8,1.6-0.8c1,0,1.6,0.7,1.6,1.7c0,1.2-0.9,2.4-2.5,3.9c0.3,0,0.7,0,1,0h1.8V11H7.6V10.7z"/>
										</g>
									</g>
									<g transform="translate(51.000000, 0.000000)">
										<path class="st2" d="M4.2,0.2h6.5c2.2,0,4,1.8,4,4v6.5c0,2.2-1.8,4-4,4H4.2c-2.2,0-4-1.8-4-4V4.2C0.2,2,2,0.2,4.2,0.2z"/>
										<g class="st3">
											<path class="st4" d="M3.7,10.6h1.3V5.9H4V5.5c0.5-0.1,0.8-0.2,1.1-0.4h0.4v5.4h1.2V11h-3V10.6z"/>
											<path class="st4" d="M7.5,10.3L7.8,10c0.3,0.4,0.8,0.7,1.5,0.7c0.8,0,1.3-0.5,1.3-1.2c0-0.8-0.5-1.3-1.9-1.3V7.8
												c1.3,0,1.7-0.6,1.7-1.2c0-0.6-0.4-1-1.1-1.1c-0.5,0-1,0.3-1.3,0.6L7.8,5.7c0.4-0.4,0.9-0.7,1.6-0.7
												c0.9,0,1.6,0.5,1.6,1.4c0,0.8-0.4,1.2-1.1,1.4v0c0.7,0.2,1.3,0.7,1.3,1.5c0,1-0.8,1.6-1.8,1.6
												C8.4,11.1,7.9,10.7,7.5,10.3z"/>
										</g>
									</g>
									<g transform="translate(17.000000, 0.000000)">
										<path class="st2" d="M4.2,0.2h6.5c2.2,0,4,1.8,4,4v6.5c0,2.2-1.8,4-4,4H4.2c-2.2,0-4-1.8-4-4V4.2C0.2,2,2,0.2,4.2,0.2z"/>
										<g class="st3">
											<path class="st4" d="M3.7,10.6h1.3V5.9H4V5.5c0.5-0.1,0.8-0.2,1.1-0.4h0.4v5.4h1.2V11h-3V10.6z"/>
											<path class="st4" d="M8,10.6h1.3V5.9h-1V5.5c0.5-0.1,0.8-0.2,1.1-0.4h0.4v5.4H11V11H8V10.6z"/>
										</g>
									</g>
									<g>
										<path class="st2" d="M4.2,0.2h6.5c2.2,0,4,1.8,4,4v6.5c0,2.2-1.8,4-4,4H4.2c-2.2,0-4-1.8-4-4V4.2C0.2,2,2,0.2,4.2,0.2z"/>
										<g class="st3">
											<path class="st4" d="M3.7,10.6h1.3V5.9H4V5.5c0.5-0.1,0.8-0.2,1.1-0.4h0.4v5.4h1.2V11h-3V10.6z"/>
											<path class="st4" d="M7.7,8.1c0-2,0.7-3,1.7-3c1.1,0,1.7,1,1.7,3c0,2-0.7,3-1.7,3C8.4,11.1,7.7,10.1,7.7,8.1z M10.7,8.1
												c0-1.7-0.5-2.6-1.2-2.6c-0.8,0-1.3,0.9-1.3,2.6c0,1.8,0.5,2.6,1.3,2.6C10.2,10.7,10.7,9.8,10.7,8.1z"/>
										</g>
									</g>
								</g>
								<g transform="translate(0.000000, 34.000000)">
									<g transform="translate(34.000000, 0.000000)">
										<path class="st2" d="M4.2,0.2h6.5c2.2,0,4,1.8,4,4v6.5c0,2.2-1.8,4-4,4H4.2c-2.2,0-4-1.8-4-4V4.2C0.2,2,2,0.2,4.2,0.2z"/>
										<g class="st3">
											<path class="st4" d="M3.7,10.6h1.3V5.9H4V5.5c0.5-0.1,0.8-0.2,1.1-0.4h0.4v5.4h1.2V11h-3V10.6z"/>
											<path class="st4" d="M10.6,5.6H7.7V5.2h3.5v0.3C9.8,7.3,9.5,8.7,9.4,11H8.9C9,8.7,9.5,7.2,10.6,5.6z"/>
										</g>
									</g>
									<g transform="translate(51.000000, 0.000000)">
										<path class="st2" d="M4.2,0.2h6.5c2.2,0,4,1.8,4,4v6.5c0,2.2-1.8,4-4,4H4.2c-2.2,0-4-1.8-4-4V4.2C0.2,2,2,0.2,4.2,0.2z"/>
										<g class="st3">
											<path class="st4" d="M3.7,10.6h1.3V5.9H4V5.5c0.5-0.1,0.8-0.2,1.1-0.4h0.4v5.4h1.2V11h-3V10.6z"/>
											<path class="st4" d="M7.6,9.6c0-0.8,0.6-1.4,1.1-1.7v0C8.3,7.6,8,7.1,8,6.5c0-0.8,0.7-1.4,1.5-1.4c1,0,1.5,0.6,1.5,1.5
												c0,0.6-0.5,1.2-0.8,1.4v0c0.5,0.3,1,0.7,1,1.5c0,0.8-0.7,1.5-1.7,1.5C8.4,11.1,7.6,10.4,7.6,9.6z M10.7,9.6
												c0-0.9-0.8-1.2-1.7-1.6c-0.6,0.3-1,0.8-1,1.5c0,0.7,0.6,1.2,1.4,1.2C10.2,10.7,10.7,10.2,10.7,9.6z M10.6,6.6
												c0-0.6-0.4-1.2-1.1-1.2c-0.6,0-1,0.4-1,1.1c0,0.8,0.7,1.1,1.5,1.4C10.3,7.6,10.6,7.1,10.6,6.6z"/>
										</g>
									</g>
									<g transform="translate(17.000000, 0.000000)">
										<path class="st2" d="M4.2,0.2h6.5c2.2,0,4,1.8,4,4v6.5c0,2.2-1.8,4-4,4H4.2c-2.2,0-4-1.8-4-4V4.2C0.2,2,2,0.2,4.2,0.2z"/>
										<g class="st3">
											<path class="st4" d="M3.7,10.6h1.3V5.9H4V5.5c0.5-0.1,0.8-0.2,1.1-0.4h0.4v5.4h1.2V11h-3V10.6z"/>
											<path class="st4" d="M10.8,5.9c-0.2-0.3-0.6-0.5-1-0.5C9,5.5,8.2,6.2,8.2,8.2c0.4-0.5,0.9-0.8,1.4-0.8
												c1,0,1.6,0.6,1.6,1.8c0,1.1-0.7,1.9-1.6,1.9c-1.1,0-1.9-1-1.9-2.9c0-2.4,1-3.2,2.1-3.2c0.5,0,0.9,0.2,1.2,0.6L10.8,5.9z
												 M10.7,9.2c0-0.8-0.4-1.5-1.2-1.5C9.2,7.8,8.7,8,8.2,8.6c0.1,1.3,0.5,2.1,1.4,2.1C10.3,10.7,10.7,10.1,10.7,9.2z"/>
										</g>
									</g>
									<g>
										<path class="st2" d="M4.2,0.2h6.5c2.2,0,4,1.8,4,4v6.5c0,2.2-1.8,4-4,4H4.2c-2.2,0-4-1.8-4-4V4.2C0.2,2,2,0.2,4.2,0.2z"/>
										<g class="st3">
											<path class="st4" d="M3.7,10.6h1.3V5.9H4V5.5c0.5-0.1,0.8-0.2,1.1-0.4h0.4v5.4h1.2V11h-3V10.6z"/>
											<path class="st4" d="M7.5,10.3L7.8,10c0.3,0.4,0.8,0.7,1.5,0.7c0.7,0,1.4-0.6,1.4-1.6c0-0.9-0.5-1.5-1.3-1.5
												c-0.4,0-0.7,0.1-1,0.4L8,7.8l0.2-2.7h2.7v0.4H8.6l-0.2,2c0.3-0.2,0.6-0.3,1-0.3c1,0,1.7,0.6,1.7,1.9c0,1.3-0.9,2-1.8,2
												C8.4,11.1,7.9,10.7,7.5,10.3z"/>
										</g>
									</g>
								</g>
							</g>
						</g>
						<g id="intro-04" transform="translate(76.000000, 0.000000)">
							<g id="intro-connect" transform="translate(0.000000, 9.000000)">
								<circle id="Oval" class="st5" cx="93.5" cy="3.5" r="3.5"/>
								<circle class="st5" cx="3.5" cy="3.5" r="3.5"/>
								<rect id="Rectangle" x="5" y="3" class="st5" width="88" height="1"/>
							</g>
							<g id="intro04" transform="translate(14.000000, 0.000000)">
								<path class="st5" d="M4,0h61c2.2,0,4,1.8,4,4v17c0,2.2-1.8,4-4,4H4c-2.2,0-4-1.8-4-4V4C0,1.8,1.8,0,4,0z"/>
								<g class="st3">
									<path class="st6" d="M19.7,16.9h-9.4L15,8.7L19.7,16.9z M10.9,16.5h8.3L15,9.4L10.9,16.5z"/>
									<path class="st6" d="M23.3,9.7h0.6V17h-0.6V9.7z"/>
									<path class="st6" d="M25.9,11.7h0.5l0.1,0.8h0c0.5-0.5,1.1-0.9,1.8-0.9c1.1,0,1.6,0.7,1.6,2.1V17h-0.6v-3.3
										c0-1.1-0.4-1.6-1.2-1.6c-0.6,0-1.1,0.3-1.7,1v4h-0.6V11.7z"/>
									<path class="st6" d="M32,15.5v-3.3h-0.8v-0.4l0.8,0l0.1-1.5h0.5v1.5h1.5v0.5h-1.5v3.4c0,0.7,0.2,1.1,0.9,1.1
										c0.2,0,0.5-0.1,0.6-0.1l0.1,0.4c-0.3,0.1-0.6,0.2-0.9,0.2C32.3,17.1,32,16.5,32,15.5z"/>
									<path class="st6" d="M35.4,11.7h0.5l0.1,1h0c0.4-0.7,0.9-1.1,1.5-1.1c0.2,0,0.4,0,0.5,0.1l-0.1,0.5
										c-0.2-0.1-0.3-0.1-0.5-0.1c-0.5,0-1,0.3-1.4,1.3V17h-0.6V11.7z"/>
									<path class="st6" d="M38.4,14.3c0-1.8,1.1-2.8,2.4-2.8c1.3,0,2.4,1,2.4,2.8c0,1.8-1.1,2.8-2.4,2.8
										C39.5,17.1,38.4,16.1,38.4,14.3z M42.6,14.3c0-1.4-0.8-2.3-1.8-2.3S39,13,39,14.3s0.8,2.3,1.8,2.3S42.6,15.7,42.6,14.3z"/>
									<path class="st6" d="M44.8,11.7h0.5l0.1,0.8h0c0.5-0.5,1.1-0.9,1.8-0.9c1.1,0,1.6,0.7,1.6,2.1V17h-0.6v-3.3
										c0-1.1-0.4-1.6-1.2-1.6c-0.6,0-1.1,0.3-1.7,1v4h-0.6V11.7z"/>
									<path class="st6" d="M57,14.9h-1V17h-0.6v-2.1h-3.2v-0.4l3.2-4.8h0.6v4.7h1V14.9z M55.4,14.4v-2.7c0-0.3,0-0.9,0.1-1.2
										h-0.1c-0.2,0.3-0.4,0.7-0.6,1l-2,2.9H55.4z"/>
								</g>
							</g>
						</g>
					</g>
					<g id="결과" transform="translate(60.000000, 99.000000)">
						<g transform="translate(0.000000, 44.000000)">
							<g>
								<circle class="st7" cx="25" cy="25" r="25"/>
								<g id="text" transform="translate(9.000000, 18.000000)">
									<g class="st3">
										<path class="st4" d="M1,4.6h1.2v3h3.1v-3h1.2V12H5.3V8.7H2.1V12H1V4.6z"/>
										<path class="st4" d="M8.4,4.6h4.4v1H9.5v2.2h2.7v1H9.5V12H8.4V4.6z"/>
										<path class="st4" d="M13.5,8.3c0-2.4,1.5-3.8,3.4-3.8c1,0,1.7,0.5,2.2,0.9l-0.6,0.7c-0.4-0.4-0.8-0.7-1.5-0.7
											c-1.4,0-2.3,1.1-2.3,2.8c0,1.8,0.8,2.8,2.3,2.8c0.4,0,0.9-0.1,1.2-0.4V9h-1.5V8.1h2.5v3.2c-0.5,0.5-1.3,0.9-2.3,0.9
											C14.9,12.1,13.5,10.8,13.5,8.3z"/>
									</g>
									<g class="st3">
										<path class="st4" d="M23.4,9.2h-2.1V8.6h2.8V9c-1,1.3-1.2,2.3-1.3,4h-0.7C22.2,11.4,22.5,10.4,23.4,9.2z"/>
										<path class="st4" d="M24.7,12.6c1.3-1.2,2-2,2-2.7c0-0.5-0.3-0.8-0.7-0.8c-0.3,0-0.6,0.2-0.9,0.5l-0.4-0.4
											C25,8.8,25.4,8.5,26,8.5c0.8,0,1.3,0.5,1.3,1.3c0,0.9-0.7,1.7-1.6,2.6c0.2,0,0.5,0,0.7,0h1.1V13h-2.8V12.6z"/>
										<path class="st4" d="M28,12.5l0.3-0.4c0.3,0.3,0.6,0.5,1,0.5c0.5,0,0.8-0.3,0.8-0.7c0-0.5-0.3-0.8-1.3-0.8v-0.5
											c0.9,0,1.2-0.3,1.2-0.8c0-0.4-0.3-0.6-0.7-0.6c-0.3,0-0.6,0.2-0.9,0.4L28.2,9c0.3-0.3,0.8-0.5,1.3-0.5
											c0.8,0,1.3,0.4,1.3,1.1c0,0.5-0.3,0.9-0.8,1v0c0.5,0.1,0.9,0.5,0.9,1.1c0,0.8-0.7,1.3-1.5,1.3
											C28.8,13.1,28.3,12.8,28,12.5z"/>
									</g>
								</g>
							</g>
							<g transform="translate(163.000000, 0.000000)">
								<circle class="st7" cx="25" cy="25" r="25"/>
								<g transform="translate(9.000000, 18.000000)">
									<g class="st3">
										<path class="st4" d="M1,4.6h1.2v3h3.1v-3h1.2V12H5.3V8.7H2.1V12H1V4.6z"/>
										<path class="st4" d="M8,8.3c0-2.4,1.5-3.8,3.4-3.8c1,0,1.7,0.5,2.2,0.9L13,6.2c-0.4-0.4-0.8-0.7-1.5-0.7
											c-1.4,0-2.3,1.1-2.3,2.8c0,1.8,0.8,2.8,2.3,2.8c0.4,0,0.9-0.1,1.2-0.4V9h-1.5V8.1h2.5v3.2c-0.5,0.5-1.3,0.9-2.3,0.9
											C9.4,12.1,8,10.8,8,8.3z"/>
										<path class="st4" d="M15.4,4.6h4.4v1h-3.2v2.2h2.7v1h-2.7V12h-1.2V4.6z"/>
									</g>
									<g class="st3">
										<path class="st4" d="M24.4,9.2h-2.1V8.6h2.8V9c-1,1.3-1.2,2.3-1.3,4h-0.7C23.2,11.4,23.5,10.4,24.4,9.2z"/>
										<path class="st4" d="M25.7,12.6c1.3-1.2,2-2,2-2.7c0-0.5-0.3-0.8-0.7-0.8c-0.3,0-0.6,0.2-0.9,0.5l-0.4-0.4
											C26,8.8,26.4,8.5,27,8.5c0.8,0,1.3,0.5,1.3,1.3c0,0.9-0.7,1.7-1.6,2.6c0.2,0,0.5,0,0.7,0h1.1V13h-2.8V12.6z"/>
										<path class="st4" d="M29.1,11.9c0-0.6,0.4-1,0.8-1.2v0c-0.3-0.2-0.6-0.6-0.6-1c0-0.7,0.5-1.1,1.3-1.1
											c0.8,0,1.2,0.5,1.2,1.2c0,0.4-0.3,0.8-0.6,1v0c0.4,0.2,0.7,0.6,0.7,1.2c0,0.7-0.6,1.2-1.4,1.2
											C29.7,13.1,29.1,12.6,29.1,11.9z M31.3,11.9c0-0.5-0.5-0.7-1.1-1c-0.3,0.2-0.5,0.5-0.5,0.9c0,0.4,0.4,0.7,0.8,0.7
											C31,12.6,31.3,12.3,31.3,11.9z M31.2,9.7C31.2,9.3,31,9,30.6,9c-0.4,0-0.6,0.2-0.6,0.6c0,0.5,0.4,0.7,0.9,0.9
											C31.1,10.3,31.2,10,31.2,9.7z"/>
									</g>
								</g>
							</g>
						</g>
						<g id="Arrow" transform="translate(22.000000, 0.000000)">
							<g id="splice" transform="translate(0.000000, 1.000000)">
								
									<g id="arrow" transform="translate(23.048784, 18.739644) rotate(-20.000000) translate(-23.048784, -18.739644) translate(8.048784, 4.256885)">
									<path id="Line" class="st1" d="M3.1,26.2L29.6,0.2"/>
									<polyline id="Stroke-1" class="st8" points="8.5,26 2.9,26.3 3.2,20.8 									"/>
								</g>
								
									<g transform="translate(146.049209, 18.740810) rotate(20.000000) translate(-146.049209, -18.740810) translate(131.049209, 4.256810)">
									<path class="st1" d="M26.9,26.2L0.4,0.2"/>
									<polyline class="st8" points="21.5,26 27.1,26.3 26.8,20.8 									"/>
								</g>
							</g>
							<g class="st3">
								<path d="M63.5,9.8h-2.7L60.1,12h-0.9l2.5-7.3h1l2.5,7.3h-1L63.5,9.8z M63.2,9l-0.4-1.1c-0.3-0.8-0.5-1.6-0.7-2.5h0
									c-0.2,0.9-0.5,1.6-0.7,2.5L61,9H63.2z"/>
								<path d="M66.1,10.9V4H67V11c0,0.3,0.1,0.4,0.3,0.4c0,0,0.1,0,0.2,0l0.1,0.7c-0.1,0.1-0.3,0.1-0.5,0.1
									C66.4,12.1,66.1,11.7,66.1,10.9z"/>
								<path d="M69.1,10.3v-3h-0.8V6.6l0.8-0.1l0.1-1.5H70v1.5h1.5v0.7H70v3c0,0.7,0.2,1.1,0.8,1.1c0.2,0,0.4-0.1,0.6-0.1l0.2,0.7
									c-0.3,0.1-0.7,0.2-1,0.2C69.5,12.1,69.1,11.4,69.1,10.3z"/>
								<path d="M72.2,9.3c0-1.8,1.2-2.9,2.4-2.9c1.4,0,2.2,1,2.2,2.5c0,0.2,0,0.4,0,0.5h-3.7c0.1,1.2,0.8,1.9,1.8,1.9
									c0.5,0,1-0.2,1.4-0.4l0.3,0.6c-0.5,0.3-1.1,0.6-1.8,0.6C73.3,12.1,72.2,11.1,72.2,9.3z M76,8.9c0-1.1-0.5-1.7-1.3-1.7
									c-0.8,0-1.4,0.6-1.6,1.7H76z"/>
								<path d="M78.1,6.6h0.7l0.1,1h0c0.4-0.7,0.9-1.1,1.5-1.1c0.2,0,0.4,0,0.6,0.1l-0.2,0.8c-0.2-0.1-0.3-0.1-0.5-0.1
									c-0.4,0-1,0.3-1.4,1.2V12h-0.9V6.6z"/>
								<path d="M82,6.6h0.7l0.1,0.8h0c0.5-0.5,1.1-0.9,1.8-0.9c1.1,0,1.7,0.7,1.7,2.1V12h-0.9V8.7c0-1-0.3-1.4-1-1.4
									c-0.6,0-0.9,0.3-1.5,0.8V12H82V6.6z"/>
								<path d="M87.8,10.6c0-1.2,1-1.8,3.3-2c0-0.7-0.2-1.4-1.1-1.4c-0.6,0-1.2,0.3-1.6,0.6L88,7.1c0.5-0.3,1.3-0.7,2.1-0.7
									c1.3,0,1.9,0.9,1.9,2.2V12h-0.8l-0.1-0.7h0c-0.5,0.4-1.1,0.8-1.8,0.8C88.4,12.1,87.8,11.6,87.8,10.6z M91.1,10.7V9.2
									c-1.8,0.2-2.4,0.7-2.4,1.4c0,0.6,0.4,0.9,1,0.9C90.1,11.4,90.6,11.2,91.1,10.7z"/>
								<path d="M93.7,10.3v-3h-0.8V6.6l0.8-0.1l0.1-1.5h0.8v1.5h1.5v0.7h-1.5v3c0,0.7,0.2,1.1,0.8,1.1c0.2,0,0.4-0.1,0.6-0.1
									l0.2,0.7c-0.3,0.1-0.7,0.2-1,0.2C94.1,12.1,93.7,11.4,93.7,10.3z"/>
								<path d="M97.2,4.9c0-0.4,0.3-0.6,0.6-0.6c0.4,0,0.6,0.2,0.6,0.6c0,0.3-0.3,0.6-0.6,0.6C97.5,5.5,97.2,5.2,97.2,4.9z
									 M97.4,6.6h0.9V12h-0.9V6.6z"/>
								<path d="M99.3,6.6h0.9l1,3.1c0.2,0.5,0.3,1.1,0.5,1.6h0c0.2-0.5,0.3-1.1,0.5-1.6l1-3.1h0.9l-1.9,5.4h-1.1L99.3,6.6z"/>
								<path d="M104.9,9.3c0-1.8,1.2-2.9,2.4-2.9c1.4,0,2.2,1,2.2,2.5c0,0.2,0,0.4,0,0.5h-3.7c0.1,1.2,0.8,1.9,1.8,1.9
									c0.5,0,1-0.2,1.4-0.4l0.3,0.6c-0.5,0.3-1.1,0.6-1.8,0.6C106,12.1,104.9,11.1,104.9,9.3z M108.7,8.9c0-1.1-0.5-1.7-1.3-1.7
									c-0.8,0-1.4,0.6-1.6,1.7H108.7z"/>
							</g>
							<text transform="matrix(1 0 0 1 109.8942 12)" class="st9 st10"> </text>
							<g class="st3">
								<path d="M66.8,26.4l0.4-0.6c0.5,0.4,1,0.6,1.6,0.6c0.7,0,1.1-0.4,1.1-0.8c0-0.5-0.6-0.8-1.2-1C67.9,24.3,67,23.9,67,23
									c0-0.9,0.7-1.5,1.9-1.5c0.7,0,1.3,0.3,1.7,0.6l-0.4,0.6c-0.4-0.3-0.8-0.5-1.2-0.5c-0.7,0-1,0.4-1,0.8c0,0.5,0.6,0.7,1.2,0.9
									c0.8,0.3,1.7,0.6,1.7,1.6c0,0.9-0.7,1.6-2,1.6C68,27.1,67.3,26.8,66.8,26.4z"/>
								<path d="M72.1,21.6h0.7l0.1,0.6h0c0.5-0.4,1.1-0.8,1.7-0.8c1.4,0,2.2,1.1,2.2,2.8c0,1.9-1.1,2.9-2.4,2.9
									c-0.5,0-1-0.2-1.5-0.6l0,0.9v1.8h-0.9V21.6z M75.9,24.2c0-1.2-0.4-2-1.4-2c-0.5,0-0.9,0.3-1.5,0.7v2.8
									c0.5,0.4,1,0.6,1.3,0.6C75.2,26.4,75.9,25.6,75.9,24.2z"/>
								<path d="M78.3,25.9V19h0.9V26c0,0.3,0.1,0.4,0.3,0.4c0,0,0.1,0,0.2,0l0.1,0.7c-0.1,0.1-0.3,0.1-0.5,0.1
									C78.5,27.1,78.3,26.7,78.3,25.9z"/>
								<path d="M80.9,19.9c0-0.4,0.3-0.6,0.6-0.6c0.4,0,0.6,0.2,0.6,0.6c0,0.3-0.3,0.6-0.6,0.6C81.2,20.5,80.9,20.2,80.9,19.9z
									 M81.1,21.6H82V27h-0.9V21.6z"/>
								<path d="M83.5,24.3c0-1.8,1.2-2.9,2.6-2.9c0.7,0,1.2,0.3,1.6,0.6l-0.5,0.6c-0.3-0.3-0.6-0.5-1.1-0.5c-1,0-1.7,0.8-1.7,2.1
									s0.7,2.1,1.7,2.1c0.5,0,0.9-0.2,1.3-0.5l0.4,0.6c-0.5,0.4-1.1,0.7-1.7,0.7C84.6,27.1,83.5,26.1,83.5,24.3z"/>
								<path d="M88.8,19.9c0-0.4,0.3-0.6,0.6-0.6c0.4,0,0.6,0.2,0.6,0.6c0,0.3-0.3,0.6-0.6,0.6C89.1,20.5,88.8,20.2,88.8,19.9z
									 M89,21.6h0.9V27H89V21.6z"/>
								<path d="M91.7,21.6h0.7l0.1,0.8h0c0.5-0.5,1.1-0.9,1.8-0.9c1.1,0,1.7,0.7,1.7,2.1V27h-0.9v-3.3c0-1-0.3-1.4-1-1.4
									c-0.6,0-0.9,0.3-1.5,0.8V27h-0.9V21.6z"/>
								<path d="M97.4,28c0-0.5,0.3-0.9,0.8-1.2v0c-0.3-0.2-0.5-0.5-0.5-0.9c0-0.5,0.3-0.8,0.6-1v0c-0.4-0.3-0.7-0.8-0.7-1.5
									c0-1.2,0.9-1.9,2-1.9c0.3,0,0.6,0.1,0.8,0.1h1.9v0.7h-1.1c0.3,0.2,0.4,0.7,0.4,1.1c0,1.2-0.9,1.9-2,1.9
									c-0.3,0-0.6-0.1-0.8-0.2c-0.2,0.2-0.3,0.3-0.3,0.7c0,0.3,0.2,0.6,0.9,0.6h1.1c1.3,0,1.9,0.4,1.9,1.3c0,1-1.1,1.9-2.7,1.9
									C98.3,29.5,97.4,29,97.4,28z M101.5,27.8c0-0.5-0.4-0.7-1.1-0.7h-0.9c-0.2,0-0.5,0-0.7-0.1c-0.4,0.3-0.6,0.6-0.6,0.9
									c0,0.6,0.6,1,1.6,1C100.8,28.9,101.5,28.3,101.5,27.8z M100.8,23.4c0-0.8-0.5-1.3-1.1-1.3s-1.2,0.5-1.2,1.3
									c0,0.8,0.5,1.3,1.2,1.3C100.3,24.7,100.8,24.2,100.8,23.4z"/>
							</g>
						</g>
					</g>
				</g>
				<g id="표-01" transform="translate(10.000000, 0.000000)">
					
						<g id="라인" transform="translate(157.000000, 46.500000) rotate(-360.000000) translate(-157.000000, -46.500000) translate(0.000000, 14.000000)">
						<path id="left" class="st0" d="M79,0.9H18.6C8.3,0.9,0,9.2,0,19.5v26c0,10.3,8.3,18.6,18.6,18.6l0,0H79"/>
						<path class="st0" d="M234.9,64h60.4c10.3,0,18.6-8.3,18.6-18.6v-26c0-10.3-8.3-18.6-18.6-18.6l0,0h-76.2"/>
						<rect x="129" y="0" class="st5" width="55" height="1"/>
					</g>
					<g id="cole" transform="translate(69.000000, 0.000000)">
						<path class="st7" d="M4.5,0.5h51c2.2,0,4,1.8,4,4v21c0,2.2-1.8,4-4,4h-51c-2.2,0-4-1.8-4-4v-21C0.5,2.3,2.3,0.5,4.5,0.5z"/>
						<g class="st3">
							<path class="st4" d="M17.6,16.3c0-2.4,1.4-3.8,3.2-3.8c0.9,0,1.6,0.4,2,0.9L22.3,14c-0.4-0.4-0.9-0.7-1.5-0.7
								c-1.4,0-2.3,1.1-2.3,3c0,1.8,0.9,3,2.3,3c0.7,0,1.2-0.3,1.7-0.8l0.5,0.6c-0.6,0.7-1.3,1-2.2,1C18.9,20.1,17.6,18.7,17.6,16.3
								z"/>
							<path class="st4" d="M23.9,17.3c0-1.8,1.2-2.9,2.5-2.9s2.5,1,2.5,2.9c0,1.8-1.2,2.8-2.5,2.8S23.9,19.1,23.9,17.3z M28,17.3
								c0-1.2-0.6-2.1-1.6-2.1s-1.6,0.8-1.6,2.1c0,1.2,0.6,2.1,1.6,2.1S28,18.5,28,17.3z"/>
							<path class="st4" d="M30.4,18.9V12h0.9V19c0,0.3,0.1,0.4,0.3,0.4c0,0,0.1,0,0.2,0l0.1,0.7c-0.1,0-0.3,0.1-0.5,0.1
								C30.6,20.1,30.4,19.7,30.4,18.9z"/>
							<path class="st4" d="M33.3,12.7h4.2v0.8h-3.3v2.3H37v0.8h-2.8v2.7h3.4V20h-4.3V12.7z"/>
							<path class="st4" d="M39,19.2h1.6v-5.5h-1.3v-0.6c0.6-0.1,1.1-0.3,1.5-0.5h0.7v6.6h1.5V20h-4V19.2z"/>
						</g>
					</g>
					<g id="kan" transform="translate(184.000000, 0.000000)">
						<path class="st7" d="M4.5,0.5h51c2.2,0,4,1.8,4,4v21c0,2.2-1.8,4-4,4h-51c-2.2,0-4-1.8-4-4v-21C0.5,2.3,2.3,0.5,4.5,0.5z"/>
						<g id="KAN" transform="translate(19.000000, 8.000000)">
							<g id="Text">
								<g class="st3">
									<path class="st4" d="M19.7,4.7h0.6l0.1,0.8h0c0.3-0.6,0.7-0.9,1.2-0.9c0.2,0,0.3,0,0.5,0.1L22,5.3
										c-0.1-0.1-0.2-0.1-0.4-0.1c-0.4,0-0.8,0.3-1.1,1V9h-0.7V4.7z"/>
								</g>
								<g class="st3">
									<path class="st4" d="M1,4.7h0.9v3.7h0L5,4.7h1L3.8,7.5L6.4,12h-1L3.2,8.2L1.9,9.7V12H1V4.7z"/>
									<path class="st4" d="M7,10.6c0-1.2,1-1.8,3.3-2c0-0.7-0.2-1.4-1.1-1.4c-0.6,0-1.2,0.3-1.6,0.6L7.3,7.1
										c0.5-0.3,1.3-0.7,2.1-0.7c1.3,0,1.9,0.9,1.9,2.2V12h-0.8l-0.1-0.6h0c-0.5,0.4-1.1,0.8-1.8,0.8C7.7,12.1,7,11.6,7,10.6z
										 M10.4,10.7V9.2c-1.8,0.2-2.4,0.7-2.4,1.4c0,0.6,0.4,0.9,1,0.9C9.4,11.4,9.8,11.2,10.4,10.7z"/>
									<path class="st4" d="M13,6.6h0.8l0.1,0.8h0c0.5-0.5,1.1-0.9,1.8-0.9c1.1,0,1.7,0.7,1.7,2.1V12h-0.9V8.7c0-1-0.3-1.4-1-1.4
										c-0.6,0-0.9,0.3-1.5,0.8V12H13V6.6z"/>
								</g>
							</g>
						</g>
					</g>
					<g id="HCMV" transform="translate(19.000000, 63.000000)">
						<path class="st5" d="M4,0h102c2.2,0,4,1.8,4,4v22c0,2.2-1.8,4-4,4H4c-2.2,0-4-1.8-4-4V4C0,1.8,1.8,0,4,0z"/>
						<g class="st3">
							<path class="st6" d="M13,11.7h0.9v3.1h3.4v-3.1h0.9V19h-0.9v-3.5h-3.4V19H13V11.7z"/>
							<path class="st6" d="M19.9,15.3c0-2.4,1.4-3.8,3.2-3.8c0.9,0,1.6,0.4,2,0.9L24.6,13c-0.4-0.4-0.9-0.7-1.5-0.7
								c-1.4,0-2.3,1.1-2.3,3c0,1.8,0.9,3,2.3,3c0.7,0,1.2-0.3,1.7-0.8l0.5,0.6c-0.6,0.7-1.3,1-2.2,1C21.2,19.1,19.9,17.7,19.9,15.3
								z"/>
							<path class="st6" d="M26.7,11.7h1.1l1.4,3.9c0.2,0.5,0.3,1,0.5,1.5h0c0.2-0.5,0.3-1,0.5-1.5l1.4-3.9h1.1V19h-0.9v-4.1
								c0-0.6,0.1-1.5,0.1-2.2h0l-0.6,1.7L30,18.3h-0.6L28,14.5l-0.6-1.7h0c0,0.6,0.1,1.5,0.1,2.2V19h-0.8V11.7z"/>
							<path class="st6" d="M33.8,11.7h1l1.2,4c0.3,0.9,0.4,1.6,0.7,2.4h0c0.3-0.9,0.4-1.6,0.7-2.4l1.2-4h0.9L37.2,19h-1.1
								L33.8,11.7z"/>
							<path class="st6" d="M42.8,11.7h0.9V19h-0.9V11.7z"/>
							<path class="st6" d="M45.7,11.7h4.2v0.8h-3.3v2.3h2.8v0.8h-2.8v2.7H50V19h-4.3V11.7z"/>
							<path class="st6" d="M53.7,13.6h0.7l0.1,0.6h0c0.5-0.4,1.1-0.8,1.7-0.8c1.4,0,2.2,1.1,2.2,2.8c0,1.9-1.1,2.9-2.4,2.9
								c-0.5,0-1-0.2-1.5-0.6l0,1v1.8h-0.9V13.6z M57.5,16.2c0-1.2-0.4-2-1.4-2c-0.5,0-0.9,0.3-1.5,0.7v2.8c0.5,0.4,1,0.6,1.3,0.6
								C56.9,18.4,57.5,17.6,57.5,16.2z"/>
							<path class="st6" d="M59.9,13.6h0.7l0.1,1h0c0.4-0.7,0.9-1.1,1.5-1.1c0.2,0,0.4,0,0.6,0.1l-0.2,0.8c-0.2-0.1-0.3-0.1-0.5-0.1
								c-0.4,0-1,0.3-1.4,1.2V19h-0.9V13.6z"/>
							<path class="st6" d="M63.3,16.3c0-1.8,1.2-2.9,2.5-2.9s2.5,1,2.5,2.9c0,1.8-1.2,2.8-2.5,2.8S63.3,18.1,63.3,16.3z M67.4,16.3
								c0-1.2-0.6-2.1-1.6-2.1s-1.6,0.8-1.6,2.1c0,1.2,0.6,2.1,1.6,2.1S67.4,17.5,67.4,16.3z"/>
							<path class="st6" d="M69.8,13.6h0.7l0.1,0.8h0c0.5-0.5,1-0.9,1.7-0.9c0.8,0,1.3,0.4,1.5,1c0.6-0.6,1.1-1,1.8-1
								c1.1,0,1.6,0.7,1.6,2.1V19h-0.9v-3.3c0-1-0.3-1.4-1-1.4c-0.4,0-0.9,0.3-1.4,0.8V19h-0.9v-3.3c0-1-0.3-1.4-1-1.4
								c-0.4,0-0.9,0.3-1.4,0.8V19h-0.9V13.6z"/>
							<path class="st6" d="M78.6,16.3c0-1.8,1.2-2.9,2.5-2.9s2.5,1,2.5,2.9c0,1.8-1.2,2.8-2.5,2.8S78.6,18.1,78.6,16.3z M82.7,16.3
								c0-1.2-0.6-2.1-1.6-2.1s-1.6,0.8-1.6,2.1c0,1.2,0.6,2.1,1.6,2.1S82.7,17.5,82.7,16.3z"/>
							<path class="st6" d="M85.1,17.3v-3h-0.8v-0.7l0.8,0l0.1-1.5H86v1.5h1.5v0.7H86v3c0,0.7,0.2,1,0.8,1c0.2,0,0.4-0.1,0.6-0.1
								l0.2,0.7c-0.3,0.1-0.7,0.2-1,0.2C85.4,19.1,85.1,18.4,85.1,17.3z"/>
							<path class="st6" d="M88.1,16.3c0-1.8,1.2-2.9,2.4-2.9c1.4,0,2.2,1,2.2,2.5c0,0.2,0,0.4,0,0.5H89c0.1,1.2,0.8,1.9,1.8,1.9
								c0.5,0,1-0.2,1.4-0.4l0.3,0.6c-0.5,0.3-1.1,0.6-1.8,0.6C89.3,19.1,88.1,18.1,88.1,16.3z M91.9,15.9c0-1.1-0.5-1.7-1.3-1.7
								c-0.8,0-1.4,0.6-1.6,1.7H91.9z"/>
							<path class="st6" d="M94.1,13.6h0.7l0.1,1h0c0.4-0.7,0.9-1.1,1.5-1.1c0.2,0,0.4,0,0.6,0.1l-0.2,0.8c-0.2-0.1-0.3-0.1-0.5-0.1
								c-0.4,0-1,0.3-1.4,1.2V19h-0.9V13.6z"/>
						</g>
					</g>
					<g id="찌릿" transform="translate(135.000000, 74.000000)">
						<rect x="-10" y="4" class="st5" width="52" height="1"/>
						<circle class="st5" cx="38.5" cy="4.5" r="4.5"/>
						<circle class="st5" cx="3.5" cy="4.5" r="3.5"/>
						<circle class="st5" cx="20.5" cy="4.5" r="3.5"/>
					</g>
					<g transform="translate(184.000000, 63.000000)">
						<g id="HGF_X7">
							<path class="st7" d="M54.5,29.5v-29H4C2.1,0.5,0.5,2.1,0.5,4v22c0,1.9,1.6,3.5,3.5,3.5H54.5z"/>
							<g class="st3">
								<path class="st4" d="M10,12.7h0.9v3.1h3.4v-3.1h0.9V20h-0.9v-3.5h-3.4V20H10V12.7z"/>
								<path class="st4" d="M16.9,16.3c0-2.4,1.4-3.8,3.4-3.8c1,0,1.7,0.5,2.1,0.9L21.8,14c-0.4-0.4-0.8-0.7-1.6-0.7
									c-1.5,0-2.4,1.1-2.4,3c0,1.8,0.9,3,2.4,3c0.5,0,1-0.2,1.3-0.4V17H20v-0.8h2.4v3.1c-0.5,0.5-1.3,0.8-2.3,0.8
									C18.2,20.1,16.9,18.7,16.9,16.3z"/>
								<path class="st4" d="M24.2,12.7h4.2v0.8h-3.3v2.5h2.8v0.8h-2.8V20h-0.9V12.7z"/>
								<path class="st4" d="M29.2,16.9h2.6v0.7h-2.6V16.9z"/>
								<path class="st4" d="M34.2,16.2l-2-3.5h1l1,1.9c0.2,0.3,0.3,0.6,0.6,1.1h0c0.2-0.4,0.3-0.7,0.5-1.1l1-1.9h1l-2,3.6l2.1,3.7
									h-1l-1.1-2c-0.2-0.4-0.4-0.7-0.6-1.2h0c-0.2,0.4-0.4,0.8-0.6,1.2L33,20h-1L34.2,16.2z"/>
								<path class="st4" d="M41.6,13.5h-3.5v-0.8h4.6v0.5c-1.7,2.2-2,3.9-2.1,6.8h-0.9C39.7,17.2,40.2,15.5,41.6,13.5z"/>
							</g>
						</g>
						<g id="PA" transform="translate(54.000000, 0.000000)">
							<path class="st7" d="M0.5,0.5v29H51c1.9,0,3.5-1.6,3.5-3.5V4c0-1.9-1.6-3.5-3.5-3.5H0.5z"/>
							<g class="st3">
								<path class="st4" d="M20.9,14.6h0.7l0.1,0.6h0c0.5-0.4,1.1-0.8,1.7-0.8c1.4,0,2.2,1.1,2.2,2.8c0,1.9-1.1,2.9-2.4,2.9
									c-0.5,0-1-0.2-1.5-0.6l0,1v1.8h-0.9V14.6z M24.7,17.2c0-1.2-0.4-2-1.4-2c-0.5,0-0.9,0.3-1.5,0.7v2.8c0.5,0.4,1,0.6,1.3,0.6
									C24.1,19.4,24.7,18.6,24.7,17.2z"/>
								<path class="st4" d="M30.6,17.8h-2.7L27.2,20h-0.9l2.5-7.3h1l2.5,7.3h-1L30.6,17.8z M30.3,17L30,15.9
									c-0.3-0.8-0.5-1.6-0.7-2.5h0c-0.2,0.9-0.5,1.6-0.7,2.5L28.1,17H30.3z"/>
							</g>
						</g>
					</g>
				</g>
				<g class="st3">
					<path d="M35,162.7h4.2v0.8h-3.3v2.3h2.8v0.8h-2.8v2.7h3.4v0.8H35V162.7z"/>
					<path d="M41.5,167.2l-1.6-2.6h1l0.7,1.2c0.2,0.3,0.4,0.6,0.5,0.9h0c0.2-0.3,0.3-0.6,0.5-0.9l0.7-1.2h0.9l-1.6,2.7l1.8,2.7h-1
						l-0.8-1.3c-0.2-0.3-0.4-0.7-0.6-1h-0.1c-0.2,0.3-0.4,0.6-0.6,1l-0.7,1.3h-1L41.5,167.2z"/>
					<path d="M44.8,167.3c0-1.8,1.2-2.9,2.5-2.9s2.5,1.1,2.5,2.9c0,1.8-1.2,2.8-2.5,2.8S44.8,169.1,44.8,167.3z M48.9,167.3
						c0-1.2-0.6-2.1-1.6-2.1s-1.6,0.8-1.6,2.1s0.6,2.1,1.6,2.1S48.9,168.5,48.9,167.3z"/>
					<path d="M51.3,164.6h0.7l0.1,0.8h0c0.5-0.5,1.1-0.9,1.8-0.9c1.1,0,1.7,0.7,1.7,2.1v3.4h-0.9v-3.3c0-1-0.3-1.4-1-1.4
						c-0.6,0-0.9,0.3-1.5,0.8v3.9h-0.9V164.6z"/>
					<path d="M59.7,164.6h0.7l0.1,0.8h0c0.5-0.5,1.1-0.9,1.8-0.9c1.1,0,1.7,0.7,1.7,2.1v3.4h-0.9v-3.3c0-1-0.3-1.4-1-1.4
						c-0.6,0-0.9,0.3-1.5,0.8v3.9h-0.9V164.6z"/>
					<path d="M65.7,168v-3.4h0.9v3.3c0,1,0.3,1.4,1,1.4c0.6,0,0.9-0.3,1.5-0.9v-3.8H70v5.4h-0.8l-0.1-0.8h0c-0.5,0.6-1,1-1.8,1
						C66.2,170.1,65.7,169.4,65.7,168z"/>
					<path d="M71.8,164.6h0.7l0.1,0.8h0c0.5-0.5,1-0.9,1.7-0.9c0.8,0,1.3,0.4,1.5,1c0.6-0.6,1.1-1,1.8-1c1.1,0,1.6,0.7,1.6,2.1v3.4
						h-0.9v-3.3c0-1-0.3-1.4-1-1.4c-0.4,0-0.9,0.3-1.4,0.8v3.9h-0.9v-3.3c0-1-0.3-1.4-1-1.4c-0.4,0-0.9,0.3-1.4,0.8v3.9h-0.9V164.6z
						"/>
					<path d="M81.9,169.4L81.9,169.4l-0.1,0.6h-0.7v-8H82v2.2l0,1c0.5-0.4,1.1-0.8,1.7-0.8c1.4,0,2.2,1.1,2.2,2.8
						c0,1.9-1.1,2.9-2.4,2.9C83,170.1,82.4,169.9,81.9,169.4z M84.9,167.2c0-1.2-0.4-2-1.4-2c-0.5,0-0.9,0.3-1.5,0.7v2.8
						c0.5,0.4,1,0.6,1.3,0.6C84.2,169.4,84.9,168.6,84.9,167.2z"/>
					<path d="M86.9,167.3c0-1.8,1.2-2.9,2.4-2.9c1.4,0,2.2,1,2.2,2.5c0,0.2,0,0.4,0,0.5h-3.7c0.1,1.2,0.8,1.9,1.8,1.9
						c0.5,0,1-0.2,1.4-0.4l0.3,0.6c-0.5,0.3-1.1,0.6-1.8,0.6C88,170.1,86.9,169.1,86.9,167.3z M90.7,166.9c0-1.1-0.5-1.7-1.3-1.7
						c-0.8,0-1.4,0.6-1.6,1.7H90.7z"/>
					<path d="M92.8,164.6h0.7l0.1,1h0c0.4-0.7,0.9-1.1,1.5-1.1c0.2,0,0.4,0,0.6,0.1l-0.2,0.8c-0.2-0.1-0.3-0.1-0.5-0.1
						c-0.4,0-1,0.3-1.4,1.2v3.5h-0.9V164.6z"/>
				</g>
			</g>
		</g>
	</g>
</g>
</svg>
