<?xml version="1.0" encoding="utf-8"?>
<!-- Generator: Adobe Illustrator 23.0.6, SVG Export Plug-In . SVG Version: 6.00 Build 0)  -->
<svg version="1.1" id="Layer_1" xmlns="http://www.w3.org/2000/svg" xmlns:xlink="http://www.w3.org/1999/xlink" x="0px" y="0px"
	 viewBox="0 0 334 1113" style="enable-background:new 0 0 334 1113;" xml:space="preserve">
<style type="text/css">
	.st0{fill-rule:evenodd;clip-rule:evenodd;fill:#9E8E8E;fill-opacity:0.3;}
	.st1{fill-rule:evenodd;clip-rule:evenodd;fill:#EFEFEF;}
	.st2{fill-rule:evenodd;clip-rule:evenodd;fill:#D68383;}
	.st3{fill-rule:evenodd;clip-rule:evenodd;fill:#FFFFFF;}
	.st4{enable-background:new    ;}
	.st5{fill:#B54142;}
	.st6{fill:#888888;}
	.st7{fill:#333333;}
	.st8{fill-rule:evenodd;clip-rule:evenodd;fill:#B54142;}
	.st9{fill-rule:evenodd;clip-rule:evenodd;fill:#C26161;}
	.st10{fill-rule:evenodd;clip-rule:evenodd;fill:#D2D2D2;}
</style>
<title>도표</title>
<desc>Created with Sketch.</desc>
<g id="Page-1">
	<g id="mobile1" transform="translate(-20.000000, -1833.000000)">
		<g transform="translate(20.000000, 1709.000000)">
			<g id="도표" transform="translate(0.000000, 120.000000)">
				<rect id="divider04" y="554" class="st0" width="334" height="1"/>
				<rect id="divider03" y="839" class="st0" width="334" height="1"/>
				<rect id="divider02" y="269" class="st0" width="334" height="1"/>
				<g id="Stacked-Group" transform="translate(13.000000, 0.000000)">
					<g id="표-04" transform="translate(7.000000, 870.000000)">
						<g id="라운드" transform="translate(43.000000, 22.000000)">
							<path class="st1" d="M102,1L102,1c56.3,0,102,45.7,102,102l0,0c0,56.3-45.7,102-102,102l0,0C45.7,205,0,159.3,0,103l0,0
								C0,46.7,45.7,1,102,1z"/>
							<g id="나누기">
								<path class="st1" d="M102.5,102V0.5c-0.1,0-0.1,0-0.2,0C45.8,0.5,0,45.9,0,102l102.1,0.5"/>
								<path class="st1" d="M101.7,102.8H0.2c0,0.1,0,0.1,0,0.2c0,56.5,45.4,102.3,101.5,102.3l0.5-102.1"/>
								<path class="st2" d="M102.7,102.7h101.5c0-0.1,0-0.1,0-0.2C204.2,46,158.8,0.2,102.7,0.2l-0.5,102.1"/>
								<path class="st1" d="M102,103.5V205c0.1,0,0.1,0,0.2,0c56.5,0,102.3-45.4,102.3-101.5L102.3,103"/>
							</g>
							<path class="st3" d="M102,23L102,23c44.2,0,80,35.8,80,80l0,0c0,44.2-35.8,80-80,80l0,0c-44.2,0-80-35.8-80-80l0,0
								C22,58.8,57.8,23,102,23z"/>
						</g>
						<g>
							<g class="st4">
								<path class="st5" d="M128.1,4.9h2.5c1.8,0,3.1,0.6,3.1,2.4c0,1.8-1.3,2.6-3,2.6h-1.2V13h-1.3V4.9z M130.4,8.9
									c1.3,0,1.9-0.5,1.9-1.6c0-1.1-0.7-1.4-2-1.4h-1.1v3H130.4z"/>
								<path class="st5" d="M135.1,4.2h1.3v2.3l0,1.2c0.5-0.5,1.1-1,2-1c1.3,0,1.9,0.9,1.9,2.4V13h-1.3V9.3c0-1-0.3-1.5-1-1.5
									c-0.6,0-0.9,0.3-1.5,0.8V13h-1.3V4.2z"/>
								<path class="st5" d="M141.6,11.4c0-1.3,1.1-2,3.6-2.2c0-0.7-0.3-1.3-1.2-1.3c-0.6,0-1.2,0.3-1.7,0.6l-0.5-0.9
									c0.6-0.4,1.5-0.8,2.4-0.8c1.5,0,2.2,1,2.2,2.6V13h-1l-0.1-0.7h0c-0.5,0.5-1.2,0.8-1.9,0.8C142.3,13.1,141.6,12.5,141.6,11.4
									z M145.2,11.4V10c-1.8,0.2-2.4,0.7-2.4,1.4c0,0.6,0.4,0.8,0.9,0.8C144.2,12.1,144.7,11.9,145.2,11.4z"/>
								<path class="st5" d="M147.6,12.3l0.6-0.8c0.5,0.4,1.1,0.7,1.7,0.7c0.7,0,1.1-0.4,1.1-0.8c0-0.6-0.7-0.8-1.3-1
									c-0.8-0.3-1.7-0.7-1.7-1.8c0-1,0.8-1.8,2.1-1.8c0.8,0,1.5,0.3,2,0.7l-0.6,0.8c-0.4-0.3-0.8-0.5-1.4-0.5c-0.7,0-1,0.3-1,0.7
									c0,0.5,0.6,0.7,1.3,1c0.8,0.3,1.8,0.7,1.8,1.8c0,1-0.8,1.8-2.3,1.8C149,13.1,148.2,12.8,147.6,12.3z"/>
								<path class="st5" d="M153.1,10c0-2,1.3-3.2,2.8-3.2c1.6,0,2.5,1.2,2.5,2.9c0,0.2,0,0.5-0.1,0.6h-3.9
									c0.1,1.2,0.8,1.8,1.9,1.8c0.5,0,1-0.2,1.4-0.5l0.4,0.8c-0.6,0.4-1.3,0.6-2,0.6C154.4,13.1,153.1,12,153.1,10z M157.2,9.4
									c0-1-0.5-1.7-1.4-1.7c-0.8,0-1.4,0.6-1.6,1.7H157.2z"/>
								<path class="st5" d="M162.2,11.6V4.2h1.3v7.4c0,0.3,0.2,0.5,0.3,0.5c0.1,0,0.1,0,0.2,0l0.2,1c-0.2,0.1-0.4,0.1-0.7,0.1
									C162.5,13.1,162.2,12.6,162.2,11.6z"/>
							</g>
							<g class="st4">
								<path class="st5" d="M254.1,121.9h2.5c1.8,0,3.1,0.6,3.1,2.4c0,1.8-1.3,2.6-3,2.6h-1.2v3.1h-1.3V121.9z M256.4,125.9
									c1.3,0,1.9-0.5,1.9-1.6c0-1.1-0.7-1.4-2-1.4h-1.1v3H256.4z"/>
								<path class="st5" d="M261.1,121.2h1.3v2.3l0,1.2c0.5-0.5,1.1-1,2-1c1.3,0,1.9,0.9,1.9,2.4v3.8h-1.3v-3.7c0-1-0.3-1.5-1-1.5
									c-0.6,0-0.9,0.3-1.5,0.8v4.3h-1.3V121.2z"/>
								<path class="st5" d="M267.6,128.4c0-1.3,1.1-2,3.6-2.2c0-0.7-0.3-1.3-1.2-1.3c-0.6,0-1.2,0.3-1.8,0.6l-0.5-0.9
									c0.6-0.4,1.5-0.8,2.4-0.8c1.5,0,2.2,1,2.2,2.6v3.6h-1l-0.1-0.7h0c-0.5,0.5-1.2,0.8-1.9,0.8
									C268.3,130.1,267.6,129.5,267.6,128.4z M271.2,128.4V127c-1.8,0.2-2.4,0.7-2.4,1.4c0,0.6,0.4,0.8,0.9,0.8
									C270.2,129.1,270.7,128.9,271.2,128.4z"/>
								<path class="st5" d="M273.6,129.3l0.6-0.8c0.5,0.4,1.1,0.7,1.7,0.7c0.7,0,1.1-0.4,1.1-0.8c0-0.6-0.7-0.8-1.3-1
									c-0.8-0.3-1.7-0.7-1.7-1.8c0-1,0.8-1.8,2.1-1.8c0.8,0,1.5,0.3,2,0.7l-0.6,0.8c-0.4-0.3-0.8-0.5-1.4-0.5c-0.7,0-1,0.3-1,0.7
									c0,0.5,0.6,0.7,1.3,1c0.8,0.3,1.8,0.7,1.8,1.8c0,1-0.8,1.8-2.3,1.8C275,130.1,274.2,129.8,273.6,129.3z"/>
								<path class="st5" d="M279.1,127c0-2,1.3-3.2,2.8-3.2c1.6,0,2.5,1.2,2.5,2.9c0,0.2,0,0.5-0.1,0.6h-3.9
									c0.1,1.2,0.8,1.8,1.9,1.8c0.5,0,1-0.2,1.4-0.5l0.4,0.8c-0.6,0.4-1.3,0.6-2,0.6C280.4,130.1,279.1,129,279.1,127z
									 M283.2,126.4c0-1-0.5-1.7-1.4-1.7c-0.8,0-1.4,0.6-1.6,1.7H283.2z"/>
								<path class="st5" d="M288.2,128.6v-7.3h1.3v7.4c0,0.3,0.2,0.5,0.3,0.5c0.1,0,0.1,0,0.2,0l0.2,1c-0.2,0.1-0.4,0.1-0.7,0.1
									C288.5,130.1,288.2,129.6,288.2,128.6z"/>
								<path class="st5" d="M291.5,128.6v-7.3h1.3v7.4c0,0.3,0.2,0.5,0.3,0.5c0.1,0,0.1,0,0.2,0l0.2,1c-0.2,0.1-0.4,0.1-0.7,0.1
									C291.8,130.1,291.5,129.6,291.5,128.6z"/>
							</g>
							<g class="st4">
								<path class="st6" d="M124.1,237.9h2.5c1.8,0,3.1,0.6,3.1,2.4c0,1.8-1.3,2.6-3,2.6h-1.2v3.1h-1.3V237.9z M126.4,241.9
									c1.3,0,1.9-0.5,1.9-1.6c0-1.1-0.7-1.4-2-1.4h-1.1v3H126.4z"/>
								<path class="st6" d="M131.1,237.2h1.3v2.3l0,1.2c0.5-0.5,1.1-1,2-1c1.3,0,1.9,0.9,1.9,2.4v3.8h-1.3v-3.7c0-1-0.3-1.5-1-1.5
									c-0.6,0-0.9,0.3-1.5,0.8v4.3h-1.3V237.2z"/>
								<path class="st6" d="M137.6,244.4c0-1.3,1.1-2,3.6-2.2c0-0.7-0.3-1.3-1.2-1.3c-0.6,0-1.2,0.3-1.7,0.6l-0.5-0.9
									c0.6-0.4,1.5-0.8,2.4-0.8c1.5,0,2.2,1,2.2,2.6v3.6h-1l-0.1-0.7h0c-0.5,0.5-1.2,0.8-1.9,0.8
									C138.3,246.1,137.6,245.5,137.6,244.4z M141.2,244.4V243c-1.8,0.2-2.4,0.7-2.4,1.4c0,0.6,0.4,0.8,0.9,0.8
									C140.2,245.1,140.7,244.9,141.2,244.4z"/>
								<path class="st6" d="M143.6,245.3l0.6-0.8c0.5,0.4,1.1,0.7,1.7,0.7c0.7,0,1.1-0.4,1.1-0.8c0-0.6-0.7-0.8-1.3-1
									c-0.8-0.3-1.7-0.7-1.7-1.8c0-1,0.8-1.8,2.1-1.8c0.8,0,1.5,0.3,2,0.7l-0.6,0.8c-0.4-0.3-0.8-0.5-1.4-0.5c-0.7,0-1,0.3-1,0.7
									c0,0.5,0.6,0.7,1.3,1c0.8,0.3,1.8,0.7,1.8,1.8c0,1-0.8,1.8-2.3,1.8C145,246.1,144.2,245.8,143.6,245.3z"/>
								<path class="st6" d="M149.1,243c0-2,1.3-3.2,2.8-3.2c1.6,0,2.5,1.2,2.5,2.9c0,0.2,0,0.5-0.1,0.6h-3.9
									c0.1,1.2,0.8,1.8,1.9,1.8c0.5,0,1-0.2,1.4-0.5l0.4,0.8c-0.6,0.4-1.3,0.6-2,0.6C150.4,246.1,149.1,245,149.1,243z
									 M153.2,242.4c0-1-0.5-1.7-1.4-1.7c-0.8,0-1.4,0.6-1.6,1.7H153.2z"/>
								<path class="st6" d="M158.2,244.6v-7.3h1.3v7.4c0,0.3,0.2,0.5,0.3,0.5c0.1,0,0.1,0,0.2,0l0.2,1c-0.2,0.1-0.4,0.1-0.7,0.1
									C158.5,246.1,158.2,245.6,158.2,244.6z"/>
								<path class="st6" d="M161.5,244.6v-7.3h1.3v7.4c0,0.3,0.2,0.5,0.3,0.5c0.1,0,0.1,0,0.2,0l0.2,1c-0.2,0.1-0.4,0.1-0.7,0.1
									C161.8,246.1,161.5,245.6,161.5,244.6z"/>
								<path class="st6" d="M164.8,244.6v-7.3h1.3v7.4c0,0.3,0.2,0.5,0.3,0.5c0.1,0,0.1,0,0.2,0l0.2,1c-0.2,0.1-0.4,0.1-0.7,0.1
									C165.1,246.1,164.8,245.6,164.8,244.6z"/>
							</g>
							<g class="st4">
								<path class="st6" d="M1.1,111.9h2.5c1.7,0,2.9,0.5,2.9,2c0,0.8-0.4,1.5-1.2,1.7v0.1c0.9,0.2,1.6,0.8,1.6,1.9
									c0,1.6-1.3,2.4-3.1,2.4H1.1V111.9z M3.4,115.3c1.2,0,1.7-0.5,1.7-1.2c0-0.8-0.6-1.2-1.7-1.2H2.3v2.4H3.4z M3.6,119
									c1.3,0,2-0.5,2-1.4c0-0.9-0.7-1.3-2-1.3H2.3v2.8H3.6z"/>
								<path class="st6" d="M8.4,111.9h1.3v7h3.4v1.1H8.4V111.9z"/>
								<path class="st6" d="M18.3,117.7h-2.8l-0.7,2.3h-1.3l2.7-8.1h1.5l2.7,8.1H19L18.3,117.7z M18,116.7l-0.3-1.1
									c-0.3-0.9-0.5-1.8-0.8-2.7h0c-0.2,0.9-0.5,1.8-0.7,2.7l-0.3,1.1H18z"/>
								<path class="st6" d="M26,111.2h0.9L23.8,122h-0.9L26,111.2z"/>
							</g>
							<g class="st4">
								<path class="st6" d="M1.1,124.9h1.5L4,129c0.2,0.5,0.4,1.1,0.5,1.6h0.1c0.2-0.5,0.3-1.1,0.5-1.6l1.5-4.1h1.5v8.1H6.9v-4
									c0-0.7,0.1-1.8,0.2-2.5h0l-0.6,1.9L5,132.2H4.2l-1.4-3.9l-0.6-1.9h0c0.1,0.7,0.2,1.8,0.2,2.5v4H1.1V124.9z"/>
								<path class="st6" d="M9.7,131.4c0-1.3,1.1-2,3.6-2.2c0-0.7-0.3-1.3-1.2-1.3c-0.6,0-1.2,0.3-1.7,0.6l-0.5-0.9
									c0.6-0.4,1.5-0.8,2.4-0.8c1.5,0,2.2,1,2.2,2.6v3.6h-1l-0.1-0.7h0c-0.5,0.5-1.2,0.8-1.9,0.8C10.5,133.1,9.7,132.5,9.7,131.4z
									 M13.4,131.4V130c-1.8,0.2-2.4,0.7-2.4,1.4c0,0.6,0.4,0.8,0.9,0.8C12.4,132.1,12.9,131.9,13.4,131.4z"/>
								<path class="st6" d="M16.4,126.9h1l0.1,1.1h0c0.4-0.8,1.1-1.2,1.7-1.2c0.3,0,0.5,0,0.7,0.1l-0.2,1.1
									c-0.2-0.1-0.4-0.1-0.6-0.1c-0.5,0-1.1,0.3-1.5,1.3v3.8h-1.3V126.9z"/>
								<path class="st6" d="M20.9,124.2h1.2v5.7h0l2.4-2.9h1.4l-2.1,2.5l2.3,3.6h-1.4l-1.6-2.7l-1,1.2v1.6h-1.2V124.2z"/>
								<path class="st6" d="M26.5,130c0-2,1.3-3.2,2.8-3.2c1.6,0,2.5,1.2,2.5,2.9c0,0.2,0,0.5-0.1,0.6h-3.9
									c0.1,1.2,0.8,1.8,1.9,1.8c0.5,0,1-0.2,1.4-0.5l0.4,0.8c-0.6,0.4-1.3,0.6-2,0.6C27.9,133.1,26.5,132,26.5,130z M30.7,129.4
									c0-1-0.5-1.7-1.4-1.7c-0.8,0-1.4,0.6-1.6,1.7H30.7z"/>
								<path class="st6" d="M33.3,131V128h-0.9V127l0.9-0.1l0.1-1.7h1.1v1.7h1.6v1h-1.6v3.1c0,0.7,0.3,1.1,0.9,1.1
									c0.2,0,0.5-0.1,0.6-0.1l0.2,0.9c-0.3,0.1-0.7,0.2-1.2,0.2C33.7,133.1,33.3,132.3,33.3,131z"/>
							</g>
						</g>
						<g class="st4">
							<path class="st7" d="M107.7,126.2c0-3.2,2-5,4.5-5c1.2,0,2.2,0.6,2.8,1.2l-1,1.2c-0.5-0.5-1-0.8-1.8-0.8
								c-1.5,0-2.5,1.2-2.5,3.3c0,2.1,1,3.4,2.5,3.4c0.8,0,1.5-0.4,2-0.9l1,1.2c-0.8,0.9-1.8,1.4-3.1,1.4
								C109.7,131.2,107.7,129.4,107.7,126.2z"/>
							<path class="st7" d="M121.2,128.5h-3.1l-0.7,2.5h-1.9l3.1-9.6h2.3l3.1,9.6h-2L121.2,128.5z M120.8,127l-0.3-1.1
								c-0.3-1-0.6-2.1-0.8-3.1h-0.1c-0.2,1.1-0.5,2.1-0.8,3.1l-0.3,1.1H120.8z"/>
							<path class="st7" d="M125.1,121.4h2.6c2.9,0,4.8,1.5,4.8,4.8c0,3.2-1.8,4.8-4.7,4.8h-2.7V121.4z M127.6,129.5
								c1.8,0,2.9-1,2.9-3.3c0-2.4-1.1-3.2-2.9-3.2H127v6.5H127.6z"/>
							<path class="st7" d="M137.2,126.9c0-2.6,0.7-4.7,1.9-6.7l1.2,0.5c-1.1,1.9-1.6,4.1-1.6,6.2c0,2.1,0.5,4.3,1.6,6.2l-1.2,0.5
								C137.9,131.6,137.2,129.5,137.2,126.9z"/>
							<path class="st7" d="M142.2,121.4h1.9v4.2h0l3.2-4.2h2.1l-2.9,3.8l3.5,5.8h-2.1l-2.5-4.3l-1.3,1.6v2.7h-1.9V121.4z"/>
							<path class="st7" d="M150.3,127.4c0-2.4,1.7-3.8,3.5-3.8c1.8,0,3.5,1.4,3.5,3.8c0,2.4-1.7,3.8-3.5,3.8
								C152,131.2,150.3,129.8,150.3,127.4z M155.3,127.4c0-1.4-0.6-2.3-1.5-2.3c-1,0-1.5,0.9-1.5,2.3c0,1.4,0.6,2.2,1.5,2.2
								C154.8,129.6,155.3,128.7,155.3,127.4z"/>
							<path class="st7" d="M158.9,123.7h1.6l0.1,1.3h0.1c0.5-0.9,1.3-1.5,2.1-1.5c0.4,0,0.6,0.1,0.9,0.2l-0.3,1.7
								c-0.2-0.1-0.5-0.1-0.8-0.1c-0.6,0-1.3,0.4-1.7,1.4v4.3h-1.9V123.7z"/>
							<path class="st7" d="M164,127.4c0-2.4,1.7-3.8,3.4-3.8c2,0,3,1.5,3,3.5c0,0.4,0,0.7-0.1,0.9h-4.5c0.2,1.2,0.9,1.8,2,1.8
								c0.6,0,1.1-0.2,1.6-0.5l0.7,1.2c-0.7,0.5-1.6,0.8-2.5,0.8C165.5,131.2,164,129.8,164,127.4z M168.8,126.6
								c0-1-0.4-1.6-1.4-1.6c-0.8,0-1.4,0.5-1.6,1.6H168.8z"/>
							<path class="st7" d="M171.4,129c0-1.6,1.3-2.4,4.2-2.7c0-0.7-0.3-1.3-1.2-1.3c-0.7,0-1.3,0.3-2,0.7l-0.7-1.3
								c0.9-0.5,1.9-1,3-1c1.8,0,2.8,1.1,2.8,3.2v4.3H176l-0.1-0.8h0c-0.6,0.5-1.4,1-2.2,1C172.3,131.2,171.4,130.3,171.4,129z
								 M175.6,129v-1.5c-1.8,0.2-2.4,0.7-2.4,1.4c0,0.6,0.4,0.8,1,0.8C174.7,129.7,175.1,129.4,175.6,129z"/>
							<path class="st7" d="M179.1,133.1c1.1-1.9,1.6-4.1,1.6-6.2c0-2.1-0.5-4.3-1.6-6.2l1.2-0.5c1.2,2,2,4.1,2,6.7
								c0,2.6-0.7,4.7-2,6.7L179.1,133.1z"/>
						</g>
						<path id="Rectangle" class="st2" d="M245.5,126h-37c-0.8,0-1.5-0.7-1.5-1.5l0,0c0-0.8,0.7-1.5,1.5-1.5h37
							c0.8,0,1.5,0.7,1.5,1.5l0,0C247,125.3,246.3,126,245.5,126z"/>
					</g>
					<g id="표-03" transform="translate(7.000000, 580.000000)">
						<g transform="translate(43.000000, 22.000000)">
							<path class="st1" d="M102,1L102,1c56.3,0,102,45.7,102,102l0,0c0,56.3-45.7,102-102,102l0,0C45.7,205,0,159.3,0,103l0,0
								C0,46.7,45.7,1,102,1z"/>
							<g>
								<path class="st1" d="M102.5,102V0.5c-0.1,0-0.1,0-0.2,0C45.8,0.5,0,45.9,0,102l102.1,0.5"/>
								<path class="st1" d="M101.7,102.8H0.2c0,0.1,0,0.1,0,0.2c0,56.5,45.4,102.3,101.5,102.3l0.5-102.1"/>
								<path class="st2" d="M102.7,102.7h101.5c0-0.1,0-0.1,0-0.2C204.2,46,158.8,0.2,102.7,0.2l-0.5,102.1"/>
								<path class="st1" d="M102,103.5V205c0.1,0,0.1,0,0.2,0c56.5,0,102.3-45.4,102.3-101.5L102.3,103"/>
							</g>
							<path class="st3" d="M102,23L102,23c44.2,0,80,35.8,80,80l0,0c0,44.2-35.8,80-80,80l0,0c-44.2,0-80-35.8-80-80l0,0
								C22,58.8,57.8,23,102,23z"/>
						</g>
						<g>
							<g class="st4">
								<path class="st5" d="M128.1,4.9h2.5c1.8,0,3.1,0.6,3.1,2.4c0,1.8-1.3,2.6-3,2.6h-1.2V13h-1.3V4.9z M130.4,8.9
									c1.3,0,1.9-0.5,1.9-1.6c0-1.1-0.7-1.4-2-1.4h-1.1v3H130.4z"/>
								<path class="st5" d="M135.1,4.2h1.3v2.3l0,1.2c0.5-0.5,1.1-1,2-1c1.3,0,1.9,0.9,1.9,2.4V13h-1.3V9.3c0-1-0.3-1.5-1-1.5
									c-0.6,0-0.9,0.3-1.5,0.8V13h-1.3V4.2z"/>
								<path class="st5" d="M141.6,11.4c0-1.3,1.1-2,3.6-2.2c0-0.7-0.3-1.3-1.2-1.3c-0.6,0-1.2,0.3-1.7,0.6l-0.5-0.9
									c0.6-0.4,1.5-0.8,2.4-0.8c1.5,0,2.2,1,2.2,2.6V13h-1l-0.1-0.7h0c-0.5,0.5-1.2,0.8-1.9,0.8C142.3,13.1,141.6,12.5,141.6,11.4
									z M145.2,11.4V10c-1.8,0.2-2.4,0.7-2.4,1.4c0,0.6,0.4,0.8,0.9,0.8C144.2,12.1,144.7,11.9,145.2,11.4z"/>
								<path class="st5" d="M147.6,12.3l0.6-0.8c0.5,0.4,1.1,0.7,1.7,0.7c0.7,0,1.1-0.4,1.1-0.8c0-0.6-0.7-0.8-1.3-1
									c-0.8-0.3-1.7-0.7-1.7-1.8c0-1,0.8-1.8,2.1-1.8c0.8,0,1.5,0.3,2,0.7l-0.6,0.8c-0.4-0.3-0.8-0.5-1.4-0.5c-0.7,0-1,0.3-1,0.7
									c0,0.5,0.6,0.7,1.3,1c0.8,0.3,1.8,0.7,1.8,1.8c0,1-0.8,1.8-2.3,1.8C149,13.1,148.2,12.8,147.6,12.3z"/>
								<path class="st5" d="M153.1,10c0-2,1.3-3.2,2.8-3.2c1.6,0,2.5,1.2,2.5,2.9c0,0.2,0,0.5-0.1,0.6h-3.9
									c0.1,1.2,0.8,1.8,1.9,1.8c0.5,0,1-0.2,1.4-0.5l0.4,0.8c-0.6,0.4-1.3,0.6-2,0.6C154.4,13.1,153.1,12,153.1,10z M157.2,9.4
									c0-1-0.5-1.7-1.4-1.7c-0.8,0-1.4,0.6-1.6,1.7H157.2z"/>
								<path class="st5" d="M162.2,11.6V4.2h1.3v7.4c0,0.3,0.2,0.5,0.3,0.5c0.1,0,0.1,0,0.2,0l0.2,1c-0.2,0.1-0.4,0.1-0.7,0.1
									C162.5,13.1,162.2,12.6,162.2,11.6z"/>
							</g>
							<g class="st4">
								<path class="st5" d="M254.1,121.9h2.5c1.8,0,3.1,0.6,3.1,2.4c0,1.8-1.3,2.6-3,2.6h-1.2v3.1h-1.3V121.9z M256.4,125.9
									c1.3,0,1.9-0.5,1.9-1.6c0-1.1-0.7-1.4-2-1.4h-1.1v3H256.4z"/>
								<path class="st5" d="M261.1,121.2h1.3v2.3l0,1.2c0.5-0.5,1.1-1,2-1c1.3,0,1.9,0.9,1.9,2.4v3.8h-1.3v-3.7c0-1-0.3-1.5-1-1.5
									c-0.6,0-0.9,0.3-1.5,0.8v4.3h-1.3V121.2z"/>
								<path class="st5" d="M267.6,128.4c0-1.3,1.1-2,3.6-2.2c0-0.7-0.3-1.3-1.2-1.3c-0.6,0-1.2,0.3-1.8,0.6l-0.5-0.9
									c0.6-0.4,1.5-0.8,2.4-0.8c1.5,0,2.2,1,2.2,2.6v3.6h-1l-0.1-0.7h0c-0.5,0.5-1.2,0.8-1.9,0.8
									C268.3,130.1,267.6,129.5,267.6,128.4z M271.2,128.4V127c-1.8,0.2-2.4,0.7-2.4,1.4c0,0.6,0.4,0.8,0.9,0.8
									C270.2,129.1,270.7,128.9,271.2,128.4z"/>
								<path class="st5" d="M273.6,129.3l0.6-0.8c0.5,0.4,1.1,0.7,1.7,0.7c0.7,0,1.1-0.4,1.1-0.8c0-0.6-0.7-0.8-1.3-1
									c-0.8-0.3-1.7-0.7-1.7-1.8c0-1,0.8-1.8,2.1-1.8c0.8,0,1.5,0.3,2,0.7l-0.6,0.8c-0.4-0.3-0.8-0.5-1.4-0.5c-0.7,0-1,0.3-1,0.7
									c0,0.5,0.6,0.7,1.3,1c0.8,0.3,1.8,0.7,1.8,1.8c0,1-0.8,1.8-2.3,1.8C275,130.1,274.2,129.8,273.6,129.3z"/>
								<path class="st5" d="M279.1,127c0-2,1.3-3.2,2.8-3.2c1.6,0,2.5,1.2,2.5,2.9c0,0.2,0,0.5-0.1,0.6h-3.9
									c0.1,1.2,0.8,1.8,1.9,1.8c0.5,0,1-0.2,1.4-0.5l0.4,0.8c-0.6,0.4-1.3,0.6-2,0.6C280.4,130.1,279.1,129,279.1,127z
									 M283.2,126.4c0-1-0.5-1.7-1.4-1.7c-0.8,0-1.4,0.6-1.6,1.7H283.2z"/>
								<path class="st5" d="M288.2,128.6v-7.3h1.3v7.4c0,0.3,0.2,0.5,0.3,0.5c0.1,0,0.1,0,0.2,0l0.2,1c-0.2,0.1-0.4,0.1-0.7,0.1
									C288.5,130.1,288.2,129.6,288.2,128.6z"/>
								<path class="st5" d="M291.5,128.6v-7.3h1.3v7.4c0,0.3,0.2,0.5,0.3,0.5c0.1,0,0.1,0,0.2,0l0.2,1c-0.2,0.1-0.4,0.1-0.7,0.1
									C291.8,130.1,291.5,129.6,291.5,128.6z"/>
							</g>
							<g class="st4">
								<path class="st6" d="M124.1,237.9h2.5c1.8,0,3.1,0.6,3.1,2.4c0,1.8-1.3,2.6-3,2.6h-1.2v3.1h-1.3V237.9z M126.4,241.9
									c1.3,0,1.9-0.5,1.9-1.6c0-1.1-0.7-1.4-2-1.4h-1.1v3H126.4z"/>
								<path class="st6" d="M131.1,237.2h1.3v2.3l0,1.2c0.5-0.5,1.1-1,2-1c1.3,0,1.9,0.9,1.9,2.4v3.8h-1.3v-3.7c0-1-0.3-1.5-1-1.5
									c-0.6,0-0.9,0.3-1.5,0.8v4.3h-1.3V237.2z"/>
								<path class="st6" d="M137.6,244.4c0-1.3,1.1-2,3.6-2.2c0-0.7-0.3-1.3-1.2-1.3c-0.6,0-1.2,0.3-1.7,0.6l-0.5-0.9
									c0.6-0.4,1.5-0.8,2.4-0.8c1.5,0,2.2,1,2.2,2.6v3.6h-1l-0.1-0.7h0c-0.5,0.5-1.2,0.8-1.9,0.8
									C138.3,246.1,137.6,245.5,137.6,244.4z M141.2,244.4V243c-1.8,0.2-2.4,0.7-2.4,1.4c0,0.6,0.4,0.8,0.9,0.8
									C140.2,245.1,140.7,244.9,141.2,244.4z"/>
								<path class="st6" d="M143.6,245.3l0.6-0.8c0.5,0.4,1.1,0.7,1.7,0.7c0.7,0,1.1-0.4,1.1-0.8c0-0.6-0.7-0.8-1.3-1
									c-0.8-0.3-1.7-0.7-1.7-1.8c0-1,0.8-1.8,2.1-1.8c0.8,0,1.5,0.3,2,0.7l-0.6,0.8c-0.4-0.3-0.8-0.5-1.4-0.5c-0.7,0-1,0.3-1,0.7
									c0,0.5,0.6,0.7,1.3,1c0.8,0.3,1.8,0.7,1.8,1.8c0,1-0.8,1.8-2.3,1.8C145,246.1,144.2,245.8,143.6,245.3z"/>
								<path class="st6" d="M149.1,243c0-2,1.3-3.2,2.8-3.2c1.6,0,2.5,1.2,2.5,2.9c0,0.2,0,0.5-0.1,0.6h-3.9
									c0.1,1.2,0.8,1.8,1.9,1.8c0.5,0,1-0.2,1.4-0.5l0.4,0.8c-0.6,0.4-1.3,0.6-2,0.6C150.4,246.1,149.1,245,149.1,243z
									 M153.2,242.4c0-1-0.5-1.7-1.4-1.7c-0.8,0-1.4,0.6-1.6,1.7H153.2z"/>
								<path class="st6" d="M158.2,244.6v-7.3h1.3v7.4c0,0.3,0.2,0.5,0.3,0.5c0.1,0,0.1,0,0.2,0l0.2,1c-0.2,0.1-0.4,0.1-0.7,0.1
									C158.5,246.1,158.2,245.6,158.2,244.6z"/>
								<path class="st6" d="M161.5,244.6v-7.3h1.3v7.4c0,0.3,0.2,0.5,0.3,0.5c0.1,0,0.1,0,0.2,0l0.2,1c-0.2,0.1-0.4,0.1-0.7,0.1
									C161.8,246.1,161.5,245.6,161.5,244.6z"/>
								<path class="st6" d="M164.8,244.6v-7.3h1.3v7.4c0,0.3,0.2,0.5,0.3,0.5c0.1,0,0.1,0,0.2,0l0.2,1c-0.2,0.1-0.4,0.1-0.7,0.1
									C165.1,246.1,164.8,245.6,164.8,244.6z"/>
							</g>
							<g class="st4">
								<path class="st6" d="M1.1,111.9h2.5c1.7,0,2.9,0.5,2.9,2c0,0.8-0.4,1.5-1.2,1.7v0.1c0.9,0.2,1.6,0.8,1.6,1.9
									c0,1.6-1.3,2.4-3.1,2.4H1.1V111.9z M3.4,115.3c1.2,0,1.7-0.5,1.7-1.2c0-0.8-0.6-1.2-1.7-1.2H2.3v2.4H3.4z M3.6,119
									c1.3,0,2-0.5,2-1.4c0-0.9-0.7-1.3-2-1.3H2.3v2.8H3.6z"/>
								<path class="st6" d="M8.4,111.9h1.3v7h3.4v1.1H8.4V111.9z"/>
								<path class="st6" d="M18.3,117.7h-2.8l-0.7,2.3h-1.3l2.7-8.1h1.5l2.7,8.1H19L18.3,117.7z M18,116.7l-0.3-1.1
									c-0.3-0.9-0.5-1.8-0.8-2.7h0c-0.2,0.9-0.5,1.8-0.7,2.7l-0.3,1.1H18z"/>
								<path class="st6" d="M26,111.2h0.9L23.8,122h-0.9L26,111.2z"/>
							</g>
							<g class="st4">
								<path class="st6" d="M1.1,124.9h1.5L4,129c0.2,0.5,0.4,1.1,0.5,1.6h0.1c0.2-0.5,0.3-1.1,0.5-1.6l1.5-4.1h1.5v8.1H6.9v-4
									c0-0.7,0.1-1.8,0.2-2.5h0l-0.6,1.9L5,132.2H4.2l-1.4-3.9l-0.6-1.9h0c0.1,0.7,0.2,1.8,0.2,2.5v4H1.1V124.9z"/>
								<path class="st6" d="M9.7,131.4c0-1.3,1.1-2,3.6-2.2c0-0.7-0.3-1.3-1.2-1.3c-0.6,0-1.2,0.3-1.7,0.6l-0.5-0.9
									c0.6-0.4,1.5-0.8,2.4-0.8c1.5,0,2.2,1,2.2,2.6v3.6h-1l-0.1-0.7h0c-0.5,0.5-1.2,0.8-1.9,0.8C10.5,133.1,9.7,132.5,9.7,131.4z
									 M13.4,131.4V130c-1.8,0.2-2.4,0.7-2.4,1.4c0,0.6,0.4,0.8,0.9,0.8C12.4,132.1,12.9,131.9,13.4,131.4z"/>
								<path class="st6" d="M16.4,126.9h1l0.1,1.1h0c0.4-0.8,1.1-1.2,1.7-1.2c0.3,0,0.5,0,0.7,0.1l-0.2,1.1
									c-0.2-0.1-0.4-0.1-0.6-0.1c-0.5,0-1.1,0.3-1.5,1.3v3.8h-1.3V126.9z"/>
								<path class="st6" d="M20.9,124.2h1.2v5.7h0l2.4-2.9h1.4l-2.1,2.5l2.3,3.6h-1.4l-1.6-2.7l-1,1.2v1.6h-1.2V124.2z"/>
								<path class="st6" d="M26.5,130c0-2,1.3-3.2,2.8-3.2c1.6,0,2.5,1.2,2.5,2.9c0,0.2,0,0.5-0.1,0.6h-3.9
									c0.1,1.2,0.8,1.8,1.9,1.8c0.5,0,1-0.2,1.4-0.5l0.4,0.8c-0.6,0.4-1.3,0.6-2,0.6C27.9,133.1,26.5,132,26.5,130z M30.7,129.4
									c0-1-0.5-1.7-1.4-1.7c-0.8,0-1.4,0.6-1.6,1.7H30.7z"/>
								<path class="st6" d="M33.3,131V128h-0.9V127l0.9-0.1l0.1-1.7h1.1v1.7h1.6v1h-1.6v3.1c0,0.7,0.3,1.1,0.9,1.1
									c0.2,0,0.5-0.1,0.6-0.1l0.2,0.9c-0.3,0.1-0.7,0.2-1.2,0.2C33.7,133.1,33.3,132.3,33.3,131z"/>
							</g>
						</g>
						<g class="st4">
							<path class="st7" d="M122.7,128.5h-3.1l-0.7,2.5h-1.9l3.1-9.6h2.3l3.1,9.6h-2L122.7,128.5z M122.3,127L122,126
								c-0.3-1-0.6-2.1-0.8-3.1h-0.1c-0.2,1.1-0.5,2.1-0.8,3.1L120,127H122.3z"/>
							<path class="st7" d="M126.5,121.4h1.9v8h3.9v1.6h-5.8V121.4z"/>
							<path class="st7" d="M133,129.8l1.1-1.3c0.7,0.6,1.6,1.1,2.4,1.1c1,0,1.5-0.4,1.5-1.1c0-0.7-0.6-0.9-1.4-1.3l-1.3-0.5
								c-1-0.4-1.9-1.2-1.9-2.6c0-1.6,1.4-2.8,3.3-2.8c1.1,0,2.2,0.4,3,1.2l-1,1.2c-0.6-0.5-1.2-0.8-2-0.8c-0.8,0-1.4,0.4-1.4,1
								c0,0.7,0.7,0.9,1.5,1.3l1.3,0.5c1.2,0.5,1.9,1.2,1.9,2.6c0,1.6-1.3,2.9-3.5,2.9C135.2,131.2,133.9,130.7,133,129.8z"/>
							<path class="st7" d="M144.6,126.9c0-2.6,0.7-4.7,1.9-6.7l1.2,0.5c-1.1,1.9-1.6,4.1-1.6,6.2c0,2.1,0.5,4.3,1.6,6.2l-1.2,0.5
								C145.3,131.6,144.6,129.5,144.6,126.9z"/>
							<path class="st7" d="M149.6,126.7v-5.3h1.9v5.5c0,2,0.7,2.7,1.8,2.7c1.1,0,1.9-0.7,1.9-2.7v-5.5h1.8v5.3
								c0,3.2-1.4,4.5-3.7,4.5C151,131.2,149.6,129.9,149.6,126.7z"/>
							<path class="st7" d="M158.5,129.8l1.1-1.3c0.7,0.6,1.6,1.1,2.4,1.1c1,0,1.5-0.4,1.5-1.1c0-0.7-0.6-0.9-1.4-1.3l-1.3-0.5
								c-1-0.4-1.9-1.2-1.9-2.6c0-1.6,1.4-2.8,3.3-2.8c1.1,0,2.2,0.4,3,1.2l-1,1.2c-0.6-0.5-1.2-0.8-2-0.8c-0.8,0-1.4,0.4-1.4,1
								c0,0.7,0.7,0.9,1.5,1.3l1.3,0.5c1.2,0.5,1.9,1.2,1.9,2.6c0,1.6-1.3,2.9-3.5,2.9C160.8,131.2,159.5,130.7,158.5,129.8z"/>
							<path class="st7" d="M166.8,133.1c1.1-1.9,1.6-4.1,1.6-6.2c0-2.1-0.5-4.3-1.6-6.2l1.2-0.5c1.2,2,2,4.1,2,6.7
								c0,2.6-0.7,4.7-2,6.7L166.8,133.1z"/>
						</g>
						<path class="st2" d="M245.5,126h-37c-0.8,0-1.5-0.7-1.5-1.5l0,0c0-0.8,0.7-1.5,1.5-1.5h37c0.8,0,1.5,0.7,1.5,1.5l0,0
							C247,125.3,246.3,126,245.5,126z"/>
					</g>
					<g id="표-02" transform="translate(7.000000, 290.000000)">
						<g>
							<g class="st4">
								<path class="st5" d="M128.1,4.9h2.5c1.8,0,3.1,0.6,3.1,2.4c0,1.8-1.3,2.6-3,2.6h-1.2V13h-1.3V4.9z M130.4,8.9
									c1.3,0,1.9-0.5,1.9-1.6c0-1.1-0.7-1.4-2-1.4h-1.1v3H130.4z"/>
								<path class="st5" d="M135.1,4.2h1.3v2.3l0,1.2c0.5-0.5,1.1-1,2-1c1.3,0,1.9,0.9,1.9,2.4V13h-1.3V9.3c0-1-0.3-1.5-1-1.5
									c-0.6,0-0.9,0.3-1.5,0.8V13h-1.3V4.2z"/>
								<path class="st5" d="M141.6,11.4c0-1.3,1.1-2,3.6-2.2c0-0.7-0.3-1.3-1.2-1.3c-0.6,0-1.2,0.3-1.7,0.6l-0.5-0.9
									c0.6-0.4,1.5-0.8,2.4-0.8c1.5,0,2.2,1,2.2,2.6V13h-1l-0.1-0.7h0c-0.5,0.5-1.2,0.8-1.9,0.8C142.3,13.1,141.6,12.5,141.6,11.4
									z M145.2,11.4V10c-1.8,0.2-2.4,0.7-2.4,1.4c0,0.6,0.4,0.8,0.9,0.8C144.2,12.1,144.7,11.9,145.2,11.4z"/>
								<path class="st5" d="M147.6,12.3l0.6-0.8c0.5,0.4,1.1,0.7,1.7,0.7c0.7,0,1.1-0.4,1.1-0.8c0-0.6-0.7-0.8-1.3-1
									c-0.8-0.3-1.7-0.7-1.7-1.8c0-1,0.8-1.8,2.1-1.8c0.8,0,1.5,0.3,2,0.7l-0.6,0.8c-0.4-0.3-0.8-0.5-1.4-0.5c-0.7,0-1,0.3-1,0.7
									c0,0.5,0.6,0.7,1.3,1c0.8,0.3,1.8,0.7,1.8,1.8c0,1-0.8,1.8-2.3,1.8C149,13.1,148.2,12.8,147.6,12.3z"/>
								<path class="st5" d="M153.1,10c0-2,1.3-3.2,2.8-3.2c1.6,0,2.5,1.2,2.5,2.9c0,0.2,0,0.5-0.1,0.6h-3.9
									c0.1,1.2,0.8,1.8,1.9,1.8c0.5,0,1-0.2,1.4-0.5l0.4,0.8c-0.6,0.4-1.3,0.6-2,0.6C154.4,13.1,153.1,12,153.1,10z M157.2,9.4
									c0-1-0.5-1.7-1.4-1.7c-0.8,0-1.4,0.6-1.6,1.7H157.2z"/>
								<path class="st5" d="M162.2,11.6V4.2h1.3v7.4c0,0.3,0.2,0.5,0.3,0.5c0.1,0,0.1,0,0.2,0l0.2,1c-0.2,0.1-0.4,0.1-0.7,0.1
									C162.5,13.1,162.2,12.6,162.2,11.6z"/>
							</g>
							<g class="st4">
								<path class="st5" d="M254.1,121.9h2.5c1.8,0,3.1,0.6,3.1,2.4c0,1.8-1.3,2.6-3,2.6h-1.2v3.1h-1.3V121.9z M256.4,125.9
									c1.3,0,1.9-0.5,1.9-1.6c0-1.1-0.7-1.4-2-1.4h-1.1v3H256.4z"/>
								<path class="st5" d="M261.1,121.2h1.3v2.3l0,1.2c0.5-0.5,1.1-1,2-1c1.3,0,1.9,0.9,1.9,2.4v3.8h-1.3v-3.7c0-1-0.3-1.5-1-1.5
									c-0.6,0-0.9,0.3-1.5,0.8v4.3h-1.3V121.2z"/>
								<path class="st5" d="M267.6,128.4c0-1.3,1.1-2,3.6-2.2c0-0.7-0.3-1.3-1.2-1.3c-0.6,0-1.2,0.3-1.8,0.6l-0.5-0.9
									c0.6-0.4,1.5-0.8,2.4-0.8c1.5,0,2.2,1,2.2,2.6v3.6h-1l-0.1-0.7h0c-0.5,0.5-1.2,0.8-1.9,0.8
									C268.3,130.1,267.6,129.5,267.6,128.4z M271.2,128.4V127c-1.8,0.2-2.4,0.7-2.4,1.4c0,0.6,0.4,0.8,0.9,0.8
									C270.2,129.1,270.7,128.9,271.2,128.4z"/>
								<path class="st5" d="M273.6,129.3l0.6-0.8c0.5,0.4,1.1,0.7,1.7,0.7c0.7,0,1.1-0.4,1.1-0.8c0-0.6-0.7-0.8-1.3-1
									c-0.8-0.3-1.7-0.7-1.7-1.8c0-1,0.8-1.8,2.1-1.8c0.8,0,1.5,0.3,2,0.7l-0.6,0.8c-0.4-0.3-0.8-0.5-1.4-0.5c-0.7,0-1,0.3-1,0.7
									c0,0.5,0.6,0.7,1.3,1c0.8,0.3,1.8,0.7,1.8,1.8c0,1-0.8,1.8-2.3,1.8C275,130.1,274.2,129.8,273.6,129.3z"/>
								<path class="st5" d="M279.1,127c0-2,1.3-3.2,2.8-3.2c1.6,0,2.5,1.2,2.5,2.9c0,0.2,0,0.5-0.1,0.6h-3.9
									c0.1,1.2,0.8,1.8,1.9,1.8c0.5,0,1-0.2,1.4-0.5l0.4,0.8c-0.6,0.4-1.3,0.6-2,0.6C280.4,130.1,279.1,129,279.1,127z
									 M283.2,126.4c0-1-0.5-1.7-1.4-1.7c-0.8,0-1.4,0.6-1.6,1.7H283.2z"/>
								<path class="st5" d="M288.2,128.6v-7.3h1.3v7.4c0,0.3,0.2,0.5,0.3,0.5c0.1,0,0.1,0,0.2,0l0.2,1c-0.2,0.1-0.4,0.1-0.7,0.1
									C288.5,130.1,288.2,129.6,288.2,128.6z"/>
								<path class="st5" d="M291.5,128.6v-7.3h1.3v7.4c0,0.3,0.2,0.5,0.3,0.5c0.1,0,0.1,0,0.2,0l0.2,1c-0.2,0.1-0.4,0.1-0.7,0.1
									C291.8,130.1,291.5,129.6,291.5,128.6z"/>
							</g>
							<g class="st4">
								<path class="st5" d="M124.1,237.9h2.5c1.8,0,3.1,0.6,3.1,2.4c0,1.8-1.3,2.6-3,2.6h-1.2v3.1h-1.3V237.9z M126.4,241.9
									c1.3,0,1.9-0.5,1.9-1.6c0-1.1-0.7-1.4-2-1.4h-1.1v3H126.4z"/>
								<path class="st5" d="M131.1,237.2h1.3v2.3l0,1.2c0.5-0.5,1.1-1,2-1c1.3,0,1.9,0.9,1.9,2.4v3.8h-1.3v-3.7c0-1-0.3-1.5-1-1.5
									c-0.6,0-0.9,0.3-1.5,0.8v4.3h-1.3V237.2z"/>
								<path class="st5" d="M137.6,244.4c0-1.3,1.1-2,3.6-2.2c0-0.7-0.3-1.3-1.2-1.3c-0.6,0-1.2,0.3-1.7,0.6l-0.5-0.9
									c0.6-0.4,1.5-0.8,2.4-0.8c1.5,0,2.2,1,2.2,2.6v3.6h-1l-0.1-0.7h0c-0.5,0.5-1.2,0.8-1.9,0.8
									C138.3,246.1,137.6,245.5,137.6,244.4z M141.2,244.4V243c-1.8,0.2-2.4,0.7-2.4,1.4c0,0.6,0.4,0.8,0.9,0.8
									C140.2,245.1,140.7,244.9,141.2,244.4z"/>
								<path class="st5" d="M143.6,245.3l0.6-0.8c0.5,0.4,1.1,0.7,1.7,0.7c0.7,0,1.1-0.4,1.1-0.8c0-0.6-0.7-0.8-1.3-1
									c-0.8-0.3-1.7-0.7-1.7-1.8c0-1,0.8-1.8,2.1-1.8c0.8,0,1.5,0.3,2,0.7l-0.6,0.8c-0.4-0.3-0.8-0.5-1.4-0.5c-0.7,0-1,0.3-1,0.7
									c0,0.5,0.6,0.7,1.3,1c0.8,0.3,1.8,0.7,1.8,1.8c0,1-0.8,1.8-2.3,1.8C145,246.1,144.2,245.8,143.6,245.3z"/>
								<path class="st5" d="M149.1,243c0-2,1.3-3.2,2.8-3.2c1.6,0,2.5,1.2,2.5,2.9c0,0.2,0,0.5-0.1,0.6h-3.9
									c0.1,1.2,0.8,1.8,1.9,1.8c0.5,0,1-0.2,1.4-0.5l0.4,0.8c-0.6,0.4-1.3,0.6-2,0.6C150.4,246.1,149.1,245,149.1,243z
									 M153.2,242.4c0-1-0.5-1.7-1.4-1.7c-0.8,0-1.4,0.6-1.6,1.7H153.2z"/>
								<path class="st5" d="M158.2,244.6v-7.3h1.3v7.4c0,0.3,0.2,0.5,0.3,0.5c0.1,0,0.1,0,0.2,0l0.2,1c-0.2,0.1-0.4,0.1-0.7,0.1
									C158.5,246.1,158.2,245.6,158.2,244.6z"/>
								<path class="st5" d="M161.5,244.6v-7.3h1.3v7.4c0,0.3,0.2,0.5,0.3,0.5c0.1,0,0.1,0,0.2,0l0.2,1c-0.2,0.1-0.4,0.1-0.7,0.1
									C161.8,246.1,161.5,245.6,161.5,244.6z"/>
								<path class="st5" d="M164.8,244.6v-7.3h1.3v7.4c0,0.3,0.2,0.5,0.3,0.5c0.1,0,0.1,0,0.2,0l0.2,1c-0.2,0.1-0.4,0.1-0.7,0.1
									C165.1,246.1,164.8,245.6,164.8,244.6z"/>
							</g>
							<g class="st4">
								<path class="st6" d="M1.1,111.9h2.5c1.7,0,2.9,0.5,2.9,2c0,0.8-0.4,1.5-1.2,1.7v0.1c0.9,0.2,1.6,0.8,1.6,1.9
									c0,1.6-1.3,2.4-3.1,2.4H1.1V111.9z M3.4,115.3c1.2,0,1.7-0.5,1.7-1.2c0-0.8-0.6-1.2-1.7-1.2H2.3v2.4H3.4z M3.6,119
									c1.3,0,2-0.5,2-1.4c0-0.9-0.7-1.3-2-1.3H2.3v2.8H3.6z"/>
								<path class="st6" d="M8.4,111.9h1.3v7h3.4v1.1H8.4V111.9z"/>
								<path class="st6" d="M18.3,117.7h-2.8l-0.7,2.3h-1.3l2.7-8.1h1.5l2.7,8.1H19L18.3,117.7z M18,116.7l-0.3-1.1
									c-0.3-0.9-0.5-1.8-0.8-2.7h0c-0.2,0.9-0.5,1.8-0.7,2.7l-0.3,1.1H18z"/>
								<path class="st6" d="M26,111.2h0.9L23.8,122h-0.9L26,111.2z"/>
							</g>
							<g class="st4">
								<path class="st6" d="M1.1,124.9h1.5L4,129c0.2,0.5,0.4,1.1,0.5,1.6h0.1c0.2-0.5,0.3-1.1,0.5-1.6l1.5-4.1h1.5v8.1H6.9v-4
									c0-0.7,0.1-1.8,0.2-2.5h0l-0.6,1.9L5,132.2H4.2l-1.4-3.9l-0.6-1.9h0c0.1,0.7,0.2,1.8,0.2,2.5v4H1.1V124.9z"/>
								<path class="st6" d="M9.7,131.4c0-1.3,1.1-2,3.6-2.2c0-0.7-0.3-1.3-1.2-1.3c-0.6,0-1.2,0.3-1.7,0.6l-0.5-0.9
									c0.6-0.4,1.5-0.8,2.4-0.8c1.5,0,2.2,1,2.2,2.6v3.6h-1l-0.1-0.7h0c-0.5,0.5-1.2,0.8-1.9,0.8C10.5,133.1,9.7,132.5,9.7,131.4z
									 M13.4,131.4V130c-1.8,0.2-2.4,0.7-2.4,1.4c0,0.6,0.4,0.8,0.9,0.8C12.4,132.1,12.9,131.9,13.4,131.4z"/>
								<path class="st6" d="M16.4,126.9h1l0.1,1.1h0c0.4-0.8,1.1-1.2,1.7-1.2c0.3,0,0.5,0,0.7,0.1l-0.2,1.1
									c-0.2-0.1-0.4-0.1-0.6-0.1c-0.5,0-1.1,0.3-1.5,1.3v3.8h-1.3V126.9z"/>
								<path class="st6" d="M20.9,124.2h1.2v5.7h0l2.4-2.9h1.4l-2.1,2.5l2.3,3.6h-1.4l-1.6-2.7l-1,1.2v1.6h-1.2V124.2z"/>
								<path class="st6" d="M26.5,130c0-2,1.3-3.2,2.8-3.2c1.6,0,2.5,1.2,2.5,2.9c0,0.2,0,0.5-0.1,0.6h-3.9
									c0.1,1.2,0.8,1.8,1.9,1.8c0.5,0,1-0.2,1.4-0.5l0.4,0.8c-0.6,0.4-1.3,0.6-2,0.6C27.9,133.1,26.5,132,26.5,130z M30.7,129.4
									c0-1-0.5-1.7-1.4-1.7c-0.8,0-1.4,0.6-1.6,1.7H30.7z"/>
								<path class="st6" d="M33.3,131V128h-0.9V127l0.9-0.1l0.1-1.7h1.1v1.7h1.6v1h-1.6v3.1c0,0.7,0.3,1.1,0.9,1.1
									c0.2,0,0.5-0.1,0.6-0.1l0.2,0.9c-0.3,0.1-0.7,0.2-1.2,0.2C33.7,133.1,33.3,132.3,33.3,131z"/>
							</g>
						</g>
						<g transform="translate(2.000000, 22.000000)">
							<path class="st8" d="M143,1L143,1c56.3,0,102,45.7,102,102l0,0c0,56.3-45.7,102-102,102l0,0c-56.3,0-102-45.7-102-102l0,0
								C41,46.7,86.7,1,143,1z"/>
							<g>
								<path class="st1" d="M143.5,102V0.5c-0.1,0-0.1,0-0.2,0C86.8,0.5,41,45.9,41,102l102.1,0.5"/>
								<path class="st8" d="M142.7,102.8H41.2c0,0.1,0,0.1,0,0.2c0,56.5,45.4,102.3,101.5,102.3l0.5-102.1"/>
								<path class="st1" d="M142.2,102L66.8,34.1c0,0-0.1,0.1-0.1,0.1c-37.8,42-34.7,106.4,7,143.9l68.7-75.6"/>
								<path class="st2" d="M143.7,102.7h101.5c0-0.1,0-0.1,0-0.2C245.2,46,199.8,0.2,143.7,0.2l-0.5,102.1"/>
								<path class="st9" d="M143,103.5V205c0.1,0,0.1,0,0.2,0c56.5,0,102.3-45.4,102.3-101.5L143.3,103"/>
							</g>
							<path class="st3" d="M143,23L143,23c44.2,0,80,35.8,80,80l0,0c0,44.2-35.8,80-80,80l0,0c-44.2,0-80-35.8-80-80l0,0
								C63,58.8,98.8,23,143,23z"/>
							<g class="st4">
								<path class="st7" d="M116.1,99.4h2.6c2.9,0,4.8,1.5,4.8,4.8c0,3.2-1.8,4.8-4.7,4.8h-2.7V99.4z M118.7,107.5
									c1.8,0,2.9-1,2.9-3.3c0-2.4-1.1-3.2-2.9-3.2h-0.6v6.5H118.7z"/>
								<path class="st7" d="M125.4,99.4h5.9v1.6h-4v2.5h3.4v1.6h-3.4v3.9h-1.9V99.4z"/>
								<path class="st7" d="M133,104.7v-5.3h1.9v5.5c0,2,0.7,2.7,1.8,2.7c1.1,0,1.9-0.7,1.9-2.7v-5.5h1.8v5.3
									c0,3.2-1.4,4.5-3.7,4.5C134.4,109.2,133,107.9,133,104.7z"/>
								<path class="st7" d="M145.6,104.9c0-2.6,0.7-4.7,1.9-6.7l1.2,0.5c-1.1,1.9-1.6,4.1-1.6,6.2c0,2.1,0.5,4.3,1.6,6.2l-1.2,0.5
									C146.3,109.6,145.6,107.5,145.6,104.9z"/>
								<path class="st7" d="M150.6,104.7v-5.3h1.9v5.5c0,2,0.7,2.7,1.8,2.7c1.1,0,1.9-0.7,1.9-2.7v-5.5h1.8v5.3
									c0,3.2-1.4,4.5-3.7,4.5C152,109.2,150.6,107.9,150.6,104.7z"/>
								<path class="st7" d="M159.6,107.8l1.1-1.3c0.7,0.6,1.6,1.1,2.4,1.1c1,0,1.5-0.4,1.5-1.1c0-0.7-0.6-0.9-1.4-1.3l-1.3-0.5
									c-1-0.4-2-1.2-2-2.6c0-1.6,1.4-2.8,3.3-2.8c1.1,0,2.2,0.4,3,1.2l-1,1.2c-0.6-0.5-1.2-0.8-2-0.8c-0.8,0-1.4,0.4-1.4,1
									c0,0.7,0.7,0.9,1.5,1.3l1.3,0.5c1.2,0.5,1.9,1.2,1.9,2.6c0,1.6-1.3,2.9-3.5,2.9C161.8,109.2,160.5,108.7,159.6,107.8z"/>
								<path class="st7" d="M167.8,111.1c1.1-1.9,1.6-4.1,1.6-6.2c0-2.1-0.5-4.3-1.6-6.2l1.2-0.5c1.2,2,2,4.1,2,6.7
									c0,2.6-0.7,4.7-2,6.7L167.8,111.1z"/>
							</g>
						</g>
						<path class="st8" d="M102,171.7l-24.3,27.9c-0.5,0.6-1.5,0.7-2.1,0.1l0,0c-0.6-0.5-0.7-1.5-0.1-2.1l24.3-27.9
							c0.5-0.6,1.5-0.7,2.1-0.1l0,0C102.5,170.1,102.5,171,102,171.7z"/>
						<rect x="42" y="124" class="st10" width="23" height="2"/>
					</g>
					<g id="표-01">
						<g transform="translate(50.000000, 22.000000)">
							<path class="st8" d="M102,1L102,1c56.3,0,102,45.7,102,102l0,0c0,56.3-45.7,102-102,102l0,0C45.7,205,0,159.3,0,103l0,0
								C0,46.7,45.7,1,102,1z"/>
							<g>
								<path class="st1" d="M102.5,102V0.5c-0.1,0-0.1,0-0.2,0C45.8,0.5,0,45.9,0,102l102.1,0.5"/>
								<path class="st8" d="M101.7,102.8H0.2c0,0.1,0,0.1,0,0.2c0,56.5,45.4,102.3,101.5,102.3l0.5-102.1"/>
								<path class="st2" d="M102.7,102.7h101.5c0-0.1,0-0.1,0-0.2C204.2,46,158.8,0.2,102.7,0.2l-0.5,102.1"/>
								<path class="st9" d="M102,103.5V205c0.1,0,0.1,0,0.2,0c56.5,0,102.3-45.4,102.3-101.5L102.3,103"/>
							</g>
							<path class="st3" d="M102,23L102,23c44.2,0,80,35.8,80,80l0,0c0,44.2-35.8,80-80,80l0,0c-44.2,0-80-35.8-80-80l0,0
								C22,58.8,57.8,23,102,23z"/>
						</g>
						<g transform="translate(7.000000, 0.000000)">
							<g class="st4">
								<path class="st5" d="M128.1,4.9h2.5c1.8,0,3.1,0.6,3.1,2.4c0,1.8-1.3,2.6-3,2.6h-1.2V13h-1.3V4.9z M130.4,8.9
									c1.3,0,1.9-0.5,1.9-1.6c0-1.1-0.7-1.4-2-1.4h-1.1v3H130.4z"/>
								<path class="st5" d="M135.1,4.2h1.3v2.3l0,1.2c0.5-0.5,1.1-1,2-1c1.3,0,1.9,0.9,1.9,2.4V13h-1.3V9.3c0-1-0.3-1.5-1-1.5
									c-0.6,0-0.9,0.3-1.5,0.8V13h-1.3V4.2z"/>
								<path class="st5" d="M141.6,11.4c0-1.3,1.1-2,3.6-2.2c0-0.7-0.3-1.3-1.2-1.3c-0.6,0-1.2,0.3-1.7,0.6l-0.5-0.9
									c0.6-0.4,1.5-0.8,2.4-0.8c1.5,0,2.2,1,2.2,2.6V13h-1l-0.1-0.7h0c-0.5,0.5-1.2,0.8-1.9,0.8C142.3,13.1,141.6,12.5,141.6,11.4
									z M145.2,11.4V10c-1.8,0.2-2.4,0.7-2.4,1.4c0,0.6,0.4,0.8,0.9,0.8C144.2,12.1,144.7,11.9,145.2,11.4z"/>
								<path class="st5" d="M147.6,12.3l0.6-0.8c0.5,0.4,1.1,0.7,1.7,0.7c0.7,0,1.1-0.4,1.1-0.8c0-0.6-0.7-0.8-1.3-1
									c-0.8-0.3-1.7-0.7-1.7-1.8c0-1,0.8-1.8,2.1-1.8c0.8,0,1.5,0.3,2,0.7l-0.6,0.8c-0.4-0.3-0.8-0.5-1.4-0.5c-0.7,0-1,0.3-1,0.7
									c0,0.5,0.6,0.7,1.3,1c0.8,0.3,1.8,0.7,1.8,1.8c0,1-0.8,1.8-2.3,1.8C149,13.1,148.2,12.8,147.6,12.3z"/>
								<path class="st5" d="M153.1,10c0-2,1.3-3.2,2.8-3.2c1.6,0,2.5,1.2,2.5,2.9c0,0.2,0,0.5-0.1,0.6h-3.9
									c0.1,1.2,0.8,1.8,1.9,1.8c0.5,0,1-0.2,1.4-0.5l0.4,0.8c-0.6,0.4-1.3,0.6-2,0.6C154.4,13.1,153.1,12,153.1,10z M157.2,9.4
									c0-1-0.5-1.7-1.4-1.7c-0.8,0-1.4,0.6-1.6,1.7H157.2z"/>
								<path class="st5" d="M162.2,11.6V4.2h1.3v7.4c0,0.3,0.2,0.5,0.3,0.5c0.1,0,0.1,0,0.2,0l0.2,1c-0.2,0.1-0.4,0.1-0.7,0.1
									C162.5,13.1,162.2,12.6,162.2,11.6z"/>
							</g>
							<g class="st4">
								<path class="st5" d="M254.1,121.9h2.5c1.8,0,3.1,0.6,3.1,2.4c0,1.8-1.3,2.6-3,2.6h-1.2v3.1h-1.3V121.9z M256.4,125.9
									c1.3,0,1.9-0.5,1.9-1.6c0-1.1-0.7-1.4-2-1.4h-1.1v3H256.4z"/>
								<path class="st5" d="M261.1,121.2h1.3v2.3l0,1.2c0.5-0.5,1.1-1,2-1c1.3,0,1.9,0.9,1.9,2.4v3.8h-1.3v-3.7c0-1-0.3-1.5-1-1.5
									c-0.6,0-0.9,0.3-1.5,0.8v4.3h-1.3V121.2z"/>
								<path class="st5" d="M267.6,128.4c0-1.3,1.1-2,3.6-2.2c0-0.7-0.3-1.3-1.2-1.3c-0.6,0-1.2,0.3-1.8,0.6l-0.5-0.9
									c0.6-0.4,1.5-0.8,2.4-0.8c1.5,0,2.2,1,2.2,2.6v3.6h-1l-0.1-0.7h0c-0.5,0.5-1.2,0.8-1.9,0.8
									C268.3,130.1,267.6,129.5,267.6,128.4z M271.2,128.4V127c-1.8,0.2-2.4,0.7-2.4,1.4c0,0.6,0.4,0.8,0.9,0.8
									C270.2,129.1,270.7,128.9,271.2,128.4z"/>
								<path class="st5" d="M273.6,129.3l0.6-0.8c0.5,0.4,1.1,0.7,1.7,0.7c0.7,0,1.1-0.4,1.1-0.8c0-0.6-0.7-0.8-1.3-1
									c-0.8-0.3-1.7-0.7-1.7-1.8c0-1,0.8-1.8,2.1-1.8c0.8,0,1.5,0.3,2,0.7l-0.6,0.8c-0.4-0.3-0.8-0.5-1.4-0.5c-0.7,0-1,0.3-1,0.7
									c0,0.5,0.6,0.7,1.3,1c0.8,0.3,1.8,0.7,1.8,1.8c0,1-0.8,1.8-2.3,1.8C275,130.1,274.2,129.8,273.6,129.3z"/>
								<path class="st5" d="M279.1,127c0-2,1.3-3.2,2.8-3.2c1.6,0,2.5,1.2,2.5,2.9c0,0.2,0,0.5-0.1,0.6h-3.9
									c0.1,1.2,0.8,1.8,1.9,1.8c0.5,0,1-0.2,1.4-0.5l0.4,0.8c-0.6,0.4-1.3,0.6-2,0.6C280.4,130.1,279.1,129,279.1,127z
									 M283.2,126.4c0-1-0.5-1.7-1.4-1.7c-0.8,0-1.4,0.6-1.6,1.7H283.2z"/>
								<path class="st5" d="M288.2,128.6v-7.3h1.3v7.4c0,0.3,0.2,0.5,0.3,0.5c0.1,0,0.1,0,0.2,0l0.2,1c-0.2,0.1-0.4,0.1-0.7,0.1
									C288.5,130.1,288.2,129.6,288.2,128.6z"/>
								<path class="st5" d="M291.5,128.6v-7.3h1.3v7.4c0,0.3,0.2,0.5,0.3,0.5c0.1,0,0.1,0,0.2,0l0.2,1c-0.2,0.1-0.4,0.1-0.7,0.1
									C291.8,130.1,291.5,129.6,291.5,128.6z"/>
							</g>
							<g class="st4">
								<path class="st5" d="M124.1,237.9h2.5c1.8,0,3.1,0.6,3.1,2.4c0,1.8-1.3,2.6-3,2.6h-1.2v3.1h-1.3V237.9z M126.4,241.9
									c1.3,0,1.9-0.5,1.9-1.6c0-1.1-0.7-1.4-2-1.4h-1.1v3H126.4z"/>
								<path class="st5" d="M131.1,237.2h1.3v2.3l0,1.2c0.5-0.5,1.1-1,2-1c1.3,0,1.9,0.9,1.9,2.4v3.8h-1.3v-3.7c0-1-0.3-1.5-1-1.5
									c-0.6,0-0.9,0.3-1.5,0.8v4.3h-1.3V237.2z"/>
								<path class="st5" d="M137.6,244.4c0-1.3,1.1-2,3.6-2.2c0-0.7-0.3-1.3-1.2-1.3c-0.6,0-1.2,0.3-1.7,0.6l-0.5-0.9
									c0.6-0.4,1.5-0.8,2.4-0.8c1.5,0,2.2,1,2.2,2.6v3.6h-1l-0.1-0.7h0c-0.5,0.5-1.2,0.8-1.9,0.8
									C138.3,246.1,137.6,245.5,137.6,244.4z M141.2,244.4V243c-1.8,0.2-2.4,0.7-2.4,1.4c0,0.6,0.4,0.8,0.9,0.8
									C140.2,245.1,140.7,244.9,141.2,244.4z"/>
								<path class="st5" d="M143.6,245.3l0.6-0.8c0.5,0.4,1.1,0.7,1.7,0.7c0.7,0,1.1-0.4,1.1-0.8c0-0.6-0.7-0.8-1.3-1
									c-0.8-0.3-1.7-0.7-1.7-1.8c0-1,0.8-1.8,2.1-1.8c0.8,0,1.5,0.3,2,0.7l-0.6,0.8c-0.4-0.3-0.8-0.5-1.4-0.5c-0.7,0-1,0.3-1,0.7
									c0,0.5,0.6,0.7,1.3,1c0.8,0.3,1.8,0.7,1.8,1.8c0,1-0.8,1.8-2.3,1.8C145,246.1,144.2,245.8,143.6,245.3z"/>
								<path class="st5" d="M149.1,243c0-2,1.3-3.2,2.8-3.2c1.6,0,2.5,1.2,2.5,2.9c0,0.2,0,0.5-0.1,0.6h-3.9
									c0.1,1.2,0.8,1.8,1.9,1.8c0.5,0,1-0.2,1.4-0.5l0.4,0.8c-0.6,0.4-1.3,0.6-2,0.6C150.4,246.1,149.1,245,149.1,243z
									 M153.2,242.4c0-1-0.5-1.7-1.4-1.7c-0.8,0-1.4,0.6-1.6,1.7H153.2z"/>
								<path class="st5" d="M158.2,244.6v-7.3h1.3v7.4c0,0.3,0.2,0.5,0.3,0.5c0.1,0,0.1,0,0.2,0l0.2,1c-0.2,0.1-0.4,0.1-0.7,0.1
									C158.5,246.1,158.2,245.6,158.2,244.6z"/>
								<path class="st5" d="M161.5,244.6v-7.3h1.3v7.4c0,0.3,0.2,0.5,0.3,0.5c0.1,0,0.1,0,0.2,0l0.2,1c-0.2,0.1-0.4,0.1-0.7,0.1
									C161.8,246.1,161.5,245.6,161.5,244.6z"/>
								<path class="st5" d="M164.8,244.6v-7.3h1.3v7.4c0,0.3,0.2,0.5,0.3,0.5c0.1,0,0.1,0,0.2,0l0.2,1c-0.2,0.1-0.4,0.1-0.7,0.1
									C165.1,246.1,164.8,245.6,164.8,244.6z"/>
							</g>
							<g class="st4">
								<path class="st6" d="M1.1,111.9h2.5c1.7,0,2.9,0.5,2.9,2c0,0.8-0.4,1.5-1.2,1.7v0.1c0.9,0.2,1.6,0.8,1.6,1.9
									c0,1.6-1.3,2.4-3.1,2.4H1.1V111.9z M3.4,115.3c1.2,0,1.7-0.5,1.7-1.2c0-0.8-0.6-1.2-1.7-1.2H2.3v2.4H3.4z M3.6,119
									c1.3,0,2-0.5,2-1.4c0-0.9-0.7-1.3-2-1.3H2.3v2.8H3.6z"/>
								<path class="st6" d="M8.4,111.9h1.3v7h3.4v1.1H8.4V111.9z"/>
								<path class="st6" d="M18.3,117.7h-2.8l-0.7,2.3h-1.3l2.7-8.1h1.5l2.7,8.1H19L18.3,117.7z M18,116.7l-0.3-1.1
									c-0.3-0.9-0.5-1.8-0.8-2.7h0c-0.2,0.9-0.5,1.8-0.7,2.7l-0.3,1.1H18z"/>
								<path class="st6" d="M26,111.2h0.9L23.8,122h-0.9L26,111.2z"/>
							</g>
							<g class="st4">
								<path class="st6" d="M1.1,124.9h1.5L4,129c0.2,0.5,0.4,1.1,0.5,1.6h0.1c0.2-0.5,0.3-1.1,0.5-1.6l1.5-4.1h1.5v8.1H6.9v-4
									c0-0.7,0.1-1.8,0.2-2.5h0l-0.6,1.9L5,132.2H4.2l-1.4-3.9l-0.6-1.9h0c0.1,0.7,0.2,1.8,0.2,2.5v4H1.1V124.9z"/>
								<path class="st6" d="M9.7,131.4c0-1.3,1.1-2,3.6-2.2c0-0.7-0.3-1.3-1.2-1.3c-0.6,0-1.2,0.3-1.7,0.6l-0.5-0.9
									c0.6-0.4,1.5-0.8,2.4-0.8c1.5,0,2.2,1,2.2,2.6v3.6h-1l-0.1-0.7h0c-0.5,0.5-1.2,0.8-1.9,0.8C10.5,133.1,9.7,132.5,9.7,131.4z
									 M13.4,131.4V130c-1.8,0.2-2.4,0.7-2.4,1.4c0,0.6,0.4,0.8,0.9,0.8C12.4,132.1,12.9,131.9,13.4,131.4z"/>
								<path class="st6" d="M16.4,126.9h1l0.1,1.1h0c0.4-0.8,1.1-1.2,1.7-1.2c0.3,0,0.5,0,0.7,0.1l-0.2,1.1
									c-0.2-0.1-0.4-0.1-0.6-0.1c-0.5,0-1.1,0.3-1.5,1.3v3.8h-1.3V126.9z"/>
								<path class="st6" d="M20.9,124.2h1.2v5.7h0l2.4-2.9h1.4l-2.1,2.5l2.3,3.6h-1.4l-1.6-2.7l-1,1.2v1.6h-1.2V124.2z"/>
								<path class="st6" d="M26.5,130c0-2,1.3-3.2,2.8-3.2c1.6,0,2.5,1.2,2.5,2.9c0,0.2,0,0.5-0.1,0.6h-3.9
									c0.1,1.2,0.8,1.8,1.9,1.8c0.5,0,1-0.2,1.4-0.5l0.4,0.8c-0.6,0.4-1.3,0.6-2,0.6C27.9,133.1,26.5,132,26.5,130z M30.7,129.4
									c0-1-0.5-1.7-1.4-1.7c-0.8,0-1.4,0.6-1.6,1.7H30.7z"/>
								<path class="st6" d="M33.3,131V128h-0.9V127l0.9-0.1l0.1-1.7h1.1v1.7h1.6v1h-1.6v3.1c0,0.7,0.3,1.1,0.9,1.1
									c0.2,0,0.5-0.1,0.6-0.1l0.2,0.9c-0.3,0.1-0.7,0.2-1.2,0.2C33.7,133.1,33.3,132.3,33.3,131z"/>
							</g>
						</g>
						<g class="st4">
							<path class="st7" d="M125.2,121.4h2.6c2.9,0,4.8,1.5,4.8,4.8c0,3.2-1.8,4.8-4.7,4.8h-2.7V121.4z M127.7,129.5
								c1.8,0,2.9-1,2.9-3.3c0-2.4-1.1-3.2-2.9-3.2h-0.6v6.5H127.7z"/>
							<path class="st7" d="M134.5,121.4h3.2c2.1,0,3.8,0.7,3.8,3c0,2.2-1.7,3.2-3.7,3.2h-1.3v3.4h-1.9V121.4z M137.5,126.1
								c1.3,0,2-0.6,2-1.7c0-1.1-0.7-1.5-2-1.5h-1.1v3.2H137.5z"/>
							<path class="st7" d="M143.1,121.4h2l2.8,5.1l1,2.1h0.1c-0.1-1-0.2-2.3-0.2-3.4v-3.8h1.8v9.6h-2l-2.8-5.1l-1-2.1h-0.1
								c0.1,1,0.2,2.2,0.2,3.4v3.9h-1.8V121.4z"/>
							<path class="st7" d="M155.7,126.9c0-2.6,0.7-4.7,1.9-6.7l1.2,0.5c-1.1,1.9-1.6,4.1-1.6,6.2c0,2.1,0.5,4.3,1.6,6.2l-1.2,0.5
								C156.5,131.6,155.7,129.5,155.7,126.9z"/>
							<path class="st7" d="M160.7,126.7v-5.3h1.9v5.5c0,2,0.7,2.7,1.8,2.7c1.1,0,1.9-0.7,1.9-2.7v-5.5h1.8v5.3
								c0,3.2-1.4,4.5-3.7,4.5C162.1,131.2,160.7,129.9,160.7,126.7z"/>
							<path class="st7" d="M169.7,129.8l1.1-1.3c0.7,0.6,1.6,1.1,2.4,1.1c1,0,1.5-0.4,1.5-1.1c0-0.7-0.6-0.9-1.4-1.3l-1.3-0.5
								c-1-0.4-2-1.2-2-2.6c0-1.6,1.4-2.8,3.3-2.8c1.1,0,2.2,0.4,3,1.2l-1,1.2c-0.6-0.5-1.2-0.8-2-0.8c-0.8,0-1.4,0.4-1.4,1
								c0,0.7,0.7,0.9,1.5,1.3l1.3,0.5c1.2,0.5,1.9,1.2,1.9,2.6c0,1.6-1.3,2.9-3.5,2.9C171.9,131.2,170.6,130.7,169.7,129.8z"/>
							<path class="st7" d="M177.9,133.1c1.1-1.9,1.6-4.1,1.6-6.2c0-2.1-0.5-4.3-1.6-6.2l1.2-0.5c1.2,2,1.9,4.1,1.9,6.7
								c0,2.6-0.7,4.7-1.9,6.7L177.9,133.1z"/>
						</g>
						<path class="st8" d="M88.5,127h-37c-0.8,0-1.5-0.7-1.5-1.5l0,0c0-0.8,0.7-1.5,1.5-1.5h37c0.8,0,1.5,0.7,1.5,1.5l0,0
							C90,126.3,89.3,127,88.5,127z"/>
					</g>
				</g>
				<g id="Divider" transform="translate(0.000000, 269.000000)">
				</g>
			</g>
		</g>
	</g>
</g>
</svg>
