<?xml version="1.0" encoding="utf-8"?>
<!-- Generator: Adobe Illustrator 24.0.0, SVG Export Plug-In . SVG Version: 6.00 Build 0)  -->
<svg version="1.1" id="Layer_1" xmlns="http://www.w3.org/2000/svg" xmlns:xlink="http://www.w3.org/1999/xlink" x="0px" y="0px"
	 viewBox="0 0 1000 485" style="enable-background:new 0 0 1000 485;" xml:space="preserve">
<style type="text/css">
	.st0{fill:none;stroke:#158B76;stroke-width:2;}
	.st1{fill-rule:evenodd;clip-rule:evenodd;fill:#24A18A;fill-opacity:0.8;stroke:#158B76;stroke-width:2;}
	.st2{enable-background:new    ;}
	.st3{fill:#FFFFFF;}
	.st4{font-family:'NotoSansKR-Regular-KSCpc-EUC-H';}
	.st5{font-size:18px;}
	.st6{fill-rule:evenodd;clip-rule:evenodd;fill:#777777;}
	.st7{fill:none;stroke:#979797;stroke-linecap:square;}
	.st8{fill-rule:evenodd;clip-rule:evenodd;fill:#24A18A;fill-opacity:0.7;stroke:#158B76;}
	.st9{font-family:'NotoSansCJKkr-Medium-KSCpc-EUC-H';}
	.st10{font-size:12px;}
	.st11{fill-rule:evenodd;clip-rule:evenodd;}
</style>
<title>third_kr</title>
<desc>Created with Sketch.</desc>
<g id="Page-1">
	<g id="_x35_.Botanicals" transform="translate(-220.000000, -520.000000)">
		<g id="third_kr" transform="translate(190.000000, 417.000000)">
			<g id="table" transform="translate(30.000000, 103.000000)">
				<g id="box1">
					<path id="bg" class="st0" d="M9,1h982c4.4,0,8,3.6,8,8v280c0,4.4-3.6,8-8,8H9c-4.4,0-8-3.6-8-8V9C1,4.6,4.6,1,9,1z"/>
					<path id="bg_1_" class="st1" d="M29,21h942c4.4,0,8,3.6,8,8v80c0,4.4-3.6,8-8,8H29c-4.4,0-8-3.6-8-8V29C21,24.6,24.6,21,29,21z
						"/>
					<g class="st2">
						<path class="st3" d="M270.7,66.7c0,3,1.9,6.1,4.7,7.3l-1.1,1.6c-2.1-0.9-3.7-2.9-4.6-5.2c-0.8,2.5-2.4,4.7-4.5,5.7l-1.2-1.6
							c2.8-1.3,4.7-4.7,4.7-7.8V65h-4v-1.7h10.1V65h-4V66.7z M278.9,61.5v18.1h-2.1V61.5H278.9z"/>
						<path class="st3" d="M298.8,70.4v1.7h-16.4v-1.7h7.1v-2.6h2.1v2.6H298.8z M297,68.8c-2.9-0.5-5.3-1.8-6.5-3.7
							c-1.1,1.9-3.5,3.3-6.5,3.7l-0.8-1.6c3.6-0.5,6.2-2.5,6.2-4.8v-0.7h2.1v0.7c0,2.3,2.6,4.3,6.2,4.8L297,68.8z M284.2,73.6h12.5
							v5.9h-2.1v-4.3h-10.5V73.6z"/>
						<path class="st3" d="M310.1,63.4c0,5.2-2.2,9.9-8.1,12.9l-1.1-1.6c4.4-2.3,6.8-5.4,7.2-9.6h-6.3v-1.7H310.1z M317.5,70.3h-2.7
							v9.2h-2.1V61.5h2.1v7.1h2.7V70.3z"/>
						<path class="st3" d="M335.6,69.8v1.7h-16.3v-1.7H335.6z M333.6,76.2c0,2.1-2.3,3.3-6.2,3.3c-3.9,0-6.2-1.2-6.2-3.3
							c0-2.1,2.4-3.3,6.2-3.3C331.2,72.8,333.6,74.1,333.6,76.2z M333.7,67.9h-12.3v-6.1h2.1v4.5h10.3V67.9z M331.5,76.2
							c0-1.1-1.5-1.7-4.1-1.7s-4.1,0.6-4.1,1.7c0,1.1,1.5,1.7,4.1,1.7S331.5,77.3,331.5,76.2z"/>
						<path class="st3" d="M348.3,65.2h-10.7v-1.6h4.3v-2.1h2.1v2.1h4.3V65.2z M343,72.9c-2.6,0-4.4-1.4-4.4-3.4
							c0-2,1.8-3.4,4.4-3.4c2.6,0,4.4,1.4,4.4,3.4C347.3,71.5,345.6,72.9,343,72.9z M342.4,77.5h10.1v1.7h-12.2V74h2.1V77.5z
							 M343,71.3c1.4,0,2.4-0.7,2.4-1.8c0-1.1-1-1.8-2.4-1.8c-1.4,0-2.4,0.7-2.4,1.8C340.6,70.6,341.5,71.3,343,71.3z M354.3,67.2
							v1.7h-2.6V75h-2.1V61.5h2.1v5.8H354.3z"/>
						<path class="st3" d="M368.3,63.8c0,4.8-1.6,9.1-6.7,12l-1.2-1.5c3.9-2.3,5.5-5.2,5.8-8.9h-5.1v-1.7H368.3z M375.9,61.5v18.1
							h-2v-9.3h-2.1v8.5h-1.9V62h1.9v6.6h2.1v-7.1H375.9z"/>
						<path class="st3" d="M388.1,70.1h-8.5v-7.9h2.1v2.4h4.4v-2.4h2V70.1z M383.4,77.8h10.2v1.6h-12.2v-4.7h9.6v-1.5h-9.6v-1.6H393
							v4.6h-9.6V77.8z M386,66.2h-4.4v2.3h4.4V66.2z M395.6,65.2v1.7H393v3.9H391v-9.3h2.1v3.7H395.6z"/>
						<path class="st3" d="M413.7,69v1.6h-16.4V69H413.7z M399,64.9c0-2,2.4-3.1,6.4-3.1c4,0,6.4,1.1,6.4,3.1c0,2-2.4,3.1-6.4,3.1
							C401.4,68,399,66.9,399,64.9z M401.3,77.8h10.8v1.6h-12.8v-4.5h10.3v-1.3h-10.3V72h12.4v4.3h-10.3V77.8z M401.2,64.9
							c0,1,1.5,1.6,4.3,1.6c2.8,0,4.3-0.5,4.3-1.6c0-1-1.5-1.6-4.3-1.6C402.7,63.3,401.2,63.8,401.2,64.9z"/>
						<path class="st3" d="M436.5,70.9v1.7h-16.3v-1.7h7.1v-1.5h-5V62h12.3v1.6h-10.2v1.4h9.8v1.5h-9.8v1.4h10.4v1.6h-5.3v1.5H436.5
							z M434.6,76.6c0,1.9-2.3,2.9-6.2,2.9c-3.9,0-6.2-1-6.2-2.9c0-1.9,2.3-2.9,6.2-2.9C432.3,73.7,434.6,74.7,434.6,76.6z
							 M432.5,76.6c0-0.9-1.4-1.4-4.2-1.4c-2.7,0-4.1,0.5-4.1,1.4c0,1,1.4,1.4,4.1,1.4C431.1,78,432.5,77.6,432.5,76.6z"/>
						<path class="st3" d="M449.3,65.2h-10.7v-1.6h4.3v-2.1h2.1v2.1h4.3V65.2z M444,72.9c-2.6,0-4.4-1.4-4.4-3.4
							c0-2,1.8-3.4,4.4-3.4c2.6,0,4.4,1.4,4.4,3.4C448.3,71.5,446.6,72.9,444,72.9z M443.4,77.5h10.1v1.7h-12.2V74h2.1V77.5z
							 M444,71.3c1.4,0,2.4-0.7,2.4-1.8c0-1.1-1-1.8-2.4-1.8c-1.4,0-2.4,0.7-2.4,1.8C441.6,70.6,442.5,71.3,444,71.3z M455.3,67.2
							v1.7h-2.6V75h-2.1V61.5h2.1v5.8H455.3z"/>
						<path class="st3" d="M472.8,72.9c-3.8,0.7-8.1,0.8-11.2,0.8l-0.2-1.6c1.3,0,2.9,0,4.6-0.1v-1.2c-2-0.2-3.3-1.2-3.3-2.7
							c0-1.7,1.7-2.8,4.3-2.8s4.3,1.1,4.3,2.8c0,1.5-1.2,2.5-3.2,2.7v1.1c1.6-0.1,3.1-0.2,4.6-0.4L472.8,72.9z M472.1,64.6h-10.3
							v-1.5h4.1v-1.7h2.1v1.7h4.1V64.6z M466,77.5h10.2v1.7H464v-4.5h2.1V77.5z M467,69.4c1.4,0,2.4-0.5,2.4-1.3
							c0-0.9-0.9-1.4-2.4-1.4s-2.4,0.5-2.4,1.4C464.6,68.9,465.5,69.4,467,69.4z M478.1,67.6v1.7h-2.5v6.3h-2.1V61.5h2.1v6.1H478.1z
							"/>
						<path class="st3" d="M488.6,66.3c-1.1,2.9-3.8,4.9-7.7,6l-0.8-1.6c4.2-1.2,6.6-3.4,6.9-6.2h-6v-1.7h8.2c0,0.6-0.1,1.2-0.2,1.8
							h3.7v-3.1h2.1v10.6h-2.1V70h-4.4v-1.7h4.4v-2.1H488.6z M495,75.9c0,2.2-2.4,3.6-6,3.6c-3.7,0-6-1.4-6-3.6c0-2.2,2.4-3.6,6-3.6
							C492.6,72.3,495,73.7,495,75.9z M493,75.9c0-1.2-1.5-1.9-4-1.9c-2.4,0-4,0.7-4,1.9c0,1.3,1.5,2,4,2
							C491.4,77.8,493,77.1,493,75.9z"/>
						<path class="st3" d="M503.7,73.9c1.9-0.1,3.8-0.2,5.5-0.4l0.1,1.5c-3.7,0.6-7.9,0.7-11,0.7l-0.2-1.7c1.1,0,2.3,0,3.6,0v-5.4h2
							V73.9z M505.8,71.5c0.5-2.8,0.5-4.9,0.5-6.4h-7.2v-1.7h9.2v1.2c0,1.6,0,3.9-0.5,7.1L505.8,71.5z M515,70.6h-2.7v8.9h-2.1V61.5
							h2.1v7.4h2.7V70.6z"/>
						<path class="st3" d="M531.9,64.9h-10.7v-1.6h4.3v-1.9h2.1v1.9h4.3V64.9z M526.6,72.1c-2.6,0-4.4-1.3-4.4-3.2
							c0-1.9,1.8-3.2,4.4-3.2c2.6,0,4.4,1.3,4.4,3.2C530.9,70.8,529.2,72.1,526.6,72.1z M523.8,73.3h11.5v6h-11.5V73.3z M526.6,70.6
							c1.4,0,2.4-0.6,2.4-1.7c0-1-1-1.7-2.4-1.7s-2.4,0.6-2.4,1.7C524.2,69.9,525.1,70.6,526.6,70.6z M525.8,77.7h7.5v-2.8h-7.5
							V77.7z M537.9,67.8h-2.6v4.5h-2.1V61.5h2.1v4.6h2.6V67.8z"/>
						<path class="st3" d="M544,63.6c0,4.2-0.5,8.3-2.9,11.9l-1.6-0.9c2-2.8,2.6-5.9,2.8-9.3H540v-1.7H544z M549.8,61.9h1.9v16.8
							h-1.9v-8.6h-2.2c-0.4,2.2-1.1,4.4-2.5,6.4l-1.6-0.9c2.3-3.2,2.7-6.8,2.7-10.4h-1.7v-1.7h3.4c0,1.6,0,3.2-0.2,4.8h2V61.9z
							 M555.1,61.5v18.1h-2V61.5H555.1z"/>
						<path class="st3" d="M564.3,64.3h4.2v1.7h-10.6v-1.7h4.3v-2.5h2.1V64.3z M567.8,71.4c0,2.5-1.9,4.2-4.5,4.2
							c-2.6,0-4.5-1.7-4.5-4.2c0-2.5,1.9-4.2,4.5-4.2C565.9,67.2,567.8,69,567.8,71.4z M565.8,71.4c0-1.5-1.1-2.5-2.5-2.5
							s-2.5,1-2.5,2.5s1.1,2.5,2.5,2.5S565.8,73,565.8,71.4z M574.8,70.5H572v9.1H570V61.5h2.1v7.3h2.8V70.5z"/>
						<path class="st3" d="M592.8,70.5v1.7h-16.4v-1.7H592.8z M580.5,77.5H591v1.7h-12.6v-5.3h2.1V77.5z M590.9,68.3h-12.4v-6.2h2.1
							v4.5h10.3V68.3z"/>
						<path class="st3" d="M609.1,72.6c-2-0.6-3.6-2-4.4-3.7c-0.8,1.8-2.3,3.3-4.4,4l-1-1.6c2.8-0.9,4.3-3.1,4.3-5.5v-0.3h-3.8v-1.7
							h3.8v-2.2h2.1v2.2h3.8v1.7h-3.8v0.3c0,2.2,1.6,4.3,4.4,5.2L609.1,72.6z M614.7,77.5v1.7h-12.2v-5.4h2.1v3.8H614.7z
							 M612.2,66.9v-5.4h2.1v13.4h-2.1v-6.3h-3.3v-1.7H612.2z"/>
						<path class="st3" d="M626.3,70.2c-0.8,1-2.1,1.6-3.6,1.6c-2.7,0-4.7-1.9-4.7-4.6s2-4.6,4.7-4.6c1.5,0,2.8,0.6,3.6,1.6h4.3
							v-2.7h2.1v13.3h-2.1v-4.6H626.3z M622.7,70c1.5,0,2.7-1.1,2.7-2.8c0-1.6-1.2-2.8-2.7-2.8c-1.6,0-2.8,1.1-2.8,2.8
							C619.9,68.9,621.1,70,622.7,70z M633.1,77.5v1.7H621v-5.8h2.1v4.1H633.1z M627.2,65.8c0.1,0.4,0.2,0.9,0.2,1.3
							s-0.1,0.9-0.2,1.3h3.5v-2.7H627.2z"/>
						<path class="st3" d="M647.1,74.5c1.5-0.1,3.1-0.2,4.5-0.4l0.2,1.5c-3.9,0.7-8,0.7-11.1,0.7l-0.3-1.7c1.4,0,3,0,4.7-0.1v-1.8
							c-2-0.3-3.3-1.6-3.3-3.3c0-2,1.8-3.4,4.3-3.4c2.6,0,4.3,1.3,4.3,3.4c0,1.7-1.3,3-3.3,3.3V74.5z M651.5,65.2h-10.7v-1.7h4.4v-2
							h2.1v2h4.3V65.2z M646.1,71.3c1.4,0,2.4-0.7,2.4-1.8c0-1.1-1-1.8-2.4-1.8s-2.4,0.7-2.4,1.8C643.7,70.6,644.7,71.3,646.1,71.3z
							 M657.3,70.7h-2.6v8.8h-2.1V61.5h2.1V69h2.6V70.7z"/>
						<path class="st3" d="M668.6,71.6c-2-0.6-3.5-1.9-4.2-3.6c-0.8,1.9-2.3,3.5-4.5,4.2l-1-1.6c2.8-1,4.4-3.3,4.4-5.8v-0.4h-3.8
							v-1.7h9.7v1.7h-3.8v0.3c0,2.2,1.5,4.3,4.3,5.2L668.6,71.6z M673.3,76.1c0,2.1-2.3,3.4-6,3.4s-6-1.3-6-3.4c0-2.2,2.3-3.4,6-3.4
							S673.3,74,673.3,76.1z M671.3,76.1c0-1.2-1.5-1.8-4-1.8s-4,0.6-4,1.8c0,1.2,1.5,1.8,4,1.8S671.3,77.3,671.3,76.1z M675.7,65.9
							v1.7h-2.6v4.7h-2.1V61.5h2.1v4.4H675.7z"/>
						<path class="st3" d="M686.6,71.7v1.8h5.2v5.7h-12.4v-5.7h5.2v-1.8h-7.1v-1.7h16.3v1.7H686.6z M681.4,63.7h-2.6V62h13.4v1.7
							h-2.5V67h2.4v1.7H679V67h2.5V63.7z M689.7,75.2h-8.3v2.5h8.3V75.2z M687.6,63.7h-4.2V67h4.2V63.7z"/>
						<path class="st3" d="M708.1,63.8c0,4.8-1.6,9.1-6.7,12l-1.2-1.5c3.9-2.3,5.5-5.2,5.8-8.9H701v-1.7H708.1z M715.7,61.5v18.1h-2
							v-9.3h-2.1v8.5h-1.9V62h1.9v6.6h2.1v-7.1H715.7z"/>
						<path class="st3" d="M727.9,70.1h-8.5v-7.9h2.1v2.4h4.4v-2.4h2V70.1z M723.2,77.8h10.2v1.6h-12.2v-4.7h9.6v-1.5h-9.6v-1.6
							h11.7v4.6h-9.6V77.8z M725.8,66.2h-4.4v2.3h4.4V66.2z M735.4,65.2v1.7h-2.5v3.9h-2.1v-9.3h2.1v3.7H735.4z"/>
					</g>
					<g class="st2">
						<path d="M214.8,153.3h4.6v1.3h-4.6V153.3z"/>
						<path d="M234.5,153.9c-1.9-0.6-3.3-1.9-4.1-3.5c-0.7,1.8-2.2,3.2-4.1,3.8l-0.7-1.2c2.4-0.8,4.1-2.8,4.1-5.1v-0.4H226v-1.2h3.7
							v-2.1h1.5v2.1h3.6v1.2h-3.7v0.4c0,2.1,1.7,4,4.1,4.8L234.5,153.9z M239,158.8v1.2h-10.9v-5h1.5v3.7H239z M238.5,156.1H237
							v-11.9h1.5V156.1z"/>
						<path d="M252,154.3c-3.4,0.6-7.3,0.7-10.1,0.7l-0.2-1.2c1.3,0,2.8,0,4.3-0.1v-1.2c-1.9-0.2-3-1.1-3-2.5c0-1.5,1.5-2.5,3.8-2.5
							c2.3,0,3.8,0.9,3.8,2.5c0,1.4-1.2,2.3-3,2.5v1.2c1.5-0.1,3-0.2,4.4-0.4L252,154.3z M251.4,146.9h-9.3v-1.1h3.9v-1.6h1.5v1.6
							h3.9V146.9z M245.6,158.8h9.3v1.2h-10.8v-4h1.5V158.8z M246.8,151.5c1.4,0,2.4-0.5,2.4-1.4c0-0.9-0.9-1.4-2.4-1.4
							c-1.5,0-2.4,0.6-2.4,1.4C244.4,150.9,245.3,151.5,246.8,151.5z M256.7,149.8v1.2h-2.4v5.8h-1.5v-12.6h1.5v5.6H256.7z"/>
						<path d="M266.1,148.4c-1,2.6-3.5,4.5-7,5.5l-0.6-1.2c3.9-1.2,6.2-3.3,6.5-6.1h-5.7v-1.2h7.3c0,0.6-0.1,1.2-0.2,1.7h3.7v-3h1.5
							v9.7h-1.5v-2.1h-4.2v-1.2h4.2v-2.2H266.1z M271.7,157.1c0,1.9-2.1,3.1-5.3,3.1c-3.3,0-5.3-1.2-5.3-3.1s2.1-3.1,5.3-3.1
							C269.6,154,271.7,155.2,271.7,157.1z M270.3,157.1c0-1.2-1.5-1.9-3.9-1.9c-2.4,0-3.9,0.7-3.9,1.9c0,1.2,1.5,2,3.9,2
							C268.8,159.1,270.3,158.4,270.3,157.1z"/>
						<path d="M287.8,154c-1.9-0.6-3.3-1.9-4-3.5c-0.7,1.8-2.1,3.2-4,3.8l-0.7-1.2c2.4-0.8,4-2.8,4-5.1v-0.5h-3.6v-1.2h3.6v-2.1h1.5
							v2.1h3.6v1.2h-3.6v0.5c0,2.1,1.6,4,4,4.8L287.8,154z M292.7,158.8v1.2h-10.8v-4.8h1.5v3.6H292.7z M290.8,149.2v-5h1.5v12h-1.5
							v-5.9h-3.3v-1.2H290.8z"/>
						<path d="M303.2,151.8c-0.8,1-1.9,1.5-3.3,1.5c-2.4,0-4.2-1.7-4.2-4.1c0-2.4,1.8-4.1,4.2-4.1c1.4,0,2.5,0.6,3.3,1.5h4.1v-2.5
							h1.5v11.9h-1.5v-4.3H303.2z M299.9,152c1.6,0,2.7-1.2,2.7-2.8s-1.2-2.8-2.7-2.8c-1.6,0-2.8,1.2-2.8,2.8S298.3,152,299.9,152z
							 M309.3,158.8v1.2h-10.8v-5.1h1.5v3.9H309.3z M303.8,147.9c0.1,0.4,0.2,0.9,0.2,1.4c0,0.5-0.1,0.9-0.2,1.3h3.5v-2.7H303.8z"/>
						<path d="M320.1,152.2v1.6h4.7v3.6h-9.5v1.6h10v1.2h-11.4v-3.8h9.5v-1.4h-9.5v-1.1h4.8v-1.6H312V151h14.6v1.2H320.1z
							 M324.8,149.6H314v-4.9h10.8V149.6z M323.3,145.9h-7.9v2.6h7.9V145.9z"/>
						<path d="M343.2,151.1v1.2h-14.6v-1.2H343.2z M330.2,147.3c0-1.8,2.1-2.8,5.7-2.8c3.5,0,5.7,1,5.7,2.8s-2.1,2.8-5.7,2.8
							C332.4,150.1,330.2,149.1,330.2,147.3z M331.9,159h10v1.2h-11.4v-3.9h9.5v-1.4h-9.5v-1.1h11v3.6h-9.5V159z M331.8,147.3
							c0,1.1,1.5,1.7,4.2,1.7c2.6,0,4.2-0.6,4.2-1.7c0-1.1-1.5-1.7-4.2-1.7C333.3,145.6,331.8,146.2,331.8,147.3z"/>
						<path d="M358,151.1c0,3.4-1.7,5.6-4.1,5.6c-2.4,0-4.1-2.2-4.1-5.6c0-3.4,1.7-5.6,4.1-5.6C356.3,145.4,358,147.6,358,151.1z
							 M351.2,151.1c0,2.6,1.1,4.3,2.7,4.3c1.6,0,2.7-1.7,2.7-4.3c0-2.6-1.1-4.3-2.7-4.3C352.3,146.8,351.2,148.4,351.2,151.1z
							 M362.4,144.2v16.2H361v-16.2H362.4z"/>
						<path d="M380.4,152.2v1.2h-14.6v-1.2h3.6v-2.3c-1.3-0.5-2-1.3-2-2.4c0-1.9,2.2-3,5.7-3c3.5,0,5.7,1.1,5.7,3
							c0,1.1-0.7,1.9-2,2.4v2.3H380.4z M378.6,157.5c0,1.9-2.1,2.9-5.5,2.9c-3.5,0-5.5-1-5.5-2.9s2.1-2.9,5.5-2.9
							C376.5,154.6,378.6,155.6,378.6,157.5z M373.1,149.3c2.6,0,4.2-0.7,4.2-1.9c0-1.2-1.6-1.9-4.2-1.9s-4.2,0.7-4.2,1.9
							C368.9,148.6,370.5,149.3,373.1,149.3z M377.1,157.5c0-1.1-1.5-1.7-4-1.7c-2.5,0-4,0.6-4,1.7c0,1.1,1.5,1.7,4,1.7
							C375.6,159.2,377.1,158.5,377.1,157.5z M370.8,152.2h4.5v-1.9c-0.7,0.1-1.4,0.2-2.3,0.2c-0.8,0-1.6-0.1-2.2-0.2V152.2z"/>
						<path d="M391.9,147.4h-9.5v-1.2h4v-2h1.5v2h4V147.4z M387.1,154.2c-2.3,0-3.9-1.2-3.9-3c0-1.8,1.6-3,3.9-3s3.9,1.2,3.9,3
							C391,153.1,389.4,154.2,387.1,154.2z M387.1,153.1c1.5,0,2.5-0.7,2.5-1.9c0-1.1-1-1.8-2.5-1.8c-1.5,0-2.4,0.7-2.4,1.8
							C384.7,152.4,385.7,153.1,387.1,153.1z M386.3,158.8h9.3v1.2h-10.8v-4.6h1.5V158.8z M397.3,149.5v1.2h-2.4v5.5h-1.5v-12.1h1.5
							v5.3H397.3z"/>
						<path d="M407.5,152.8c-1.6,0.1-3.2,0.1-4.5,0.1l-0.2-1.2c3,0,7,0,10.4-0.5l0.1,1.1c-1.4,0.2-2.9,0.4-4.4,0.5v3.2h-1.5V152.8z
							 M404.1,147.6c0-1.7,1.6-2.8,4-2.8c2.4,0,4,1.1,4,2.8c0,1.7-1.6,2.8-4,2.8C405.7,150.5,404.1,149.4,404.1,147.6z M416.6,158.8
							v1.2h-11.4v-4.7h1.5v3.5H416.6z M405.5,147.6c0,1,1,1.7,2.6,1.7c1.5,0,2.6-0.7,2.6-1.7c0-1-1-1.7-2.6-1.7
							C406.6,145.9,405.5,146.6,405.5,147.6z M414.7,153.7v-9.5h1.5v12.3h-1.5v-1.7h-3.3v-1.1H414.7z"/>
						<path d="M434.1,157.1v1.2h-14.7v-1.2h4.1v-3.1h-2.3v-5h9.6v-2.5h-9.6v-1.2h11.1v4.9h-9.6v2.6h9.9v1.2h-2.5v3.1H434.1z
							 M425,157.1h3.7v-3.1H425V157.1z"/>
						<path d="M447,146.3c0,4.2-1.5,8-6,10.6l-0.9-1.1c3.7-2.1,5.2-5,5.5-8.3h-4.8v-1.2H447z M453.8,144.2v16.2h-1.4v-8.4h-2.2v7.6
							h-1.4v-14.9h1.4v6.1h2.2v-6.5H453.8z"/>
						<path d="M464.8,151.9h-7.5v-7.1h1.5v2.3h4.6v-2.3h1.4V151.9z M463.3,148.3h-4.6v2.4h4.6V148.3z M460.4,159h9.4v1.2H459v-4h8.8
							v-1.7h-8.8v-1.2h10.3v3.9h-8.8V159z M471.6,147.7v1.2h-2.4v3.7h-1.5v-8.3h1.5v3.5H471.6z"/>
					</g>
					<g>
					</g>
					<g class="st2">
						<path d="M214.8,188.3h4.6v1.3h-4.6V188.3z"/>
						<path d="M230,183.7c0,2.6,1.2,5.3,3.3,6.6l-0.8,1.2c-1.5-0.9-2.6-2.6-3.2-4.6c-0.6,2.1-1.7,4-3.3,5l-0.9-1.1
							c2.2-1.3,3.5-4.2,3.5-7v-3.1h1.4V183.7z M234.3,179.5h1.4v15h-1.4v-8.3h-2.7V185h2.7V179.5z M239,179.2v16.2h-1.4v-16.2H239z"
							/>
						<path d="M256.4,192.1v1.2h-14.6v-1.2h6.5v-3.7h-5.2v-1.2h2.5v-5.3h-2.5v-1.2h12v1.2h-2.5v5.3h2.5v1.2h-5.2v3.7H256.4z
							 M247.1,187.2h4v-5.3h-4V187.2z"/>
						<path d="M263,179.7h1.2l-5.4,17.5h-1.2L263,179.7z"/>
						<path d="M270,188.3c-2.4,0-4.2-1.7-4.2-4c0-2.3,1.8-4,4.2-4c2.4,0,4.2,1.6,4.2,4C274.2,186.6,272.4,188.3,270,188.3z M270,187
							c1.6,0,2.8-1.1,2.8-2.7c0-1.6-1.2-2.7-2.8-2.7c-1.6,0-2.8,1.1-2.8,2.7C267.2,185.9,268.4,187,270,187z M279.1,193.8v1.2h-10.9
							v-5.2h1.5v4H279.1z M278.7,191h-1.5v-11.8h1.5V191z"/>
						<path d="M296.5,186.7v1.2H282v-1.2h6v-3.1h1.5v3.1H296.5z M294.8,192.4c0,1.8-2.2,3-5.6,3s-5.6-1.1-5.6-3c0-1.9,2.2-3,5.6-3
							S294.8,190.5,294.8,192.4z M293.3,181.2h-9.5V180h11v1.4c0,1.3,0,2.6-0.5,4.3l-1.4-0.2c0.4-1.7,0.4-2.8,0.4-4.1V181.2z
							 M293.4,192.4c0-1.2-1.6-1.8-4.2-1.8c-2.5,0-4.1,0.7-4.1,1.8c0,1.1,1.6,1.8,4.1,1.8C291.7,194.2,293.4,193.5,293.4,192.4z"/>
						<path d="M310.3,189.9c0.9,0,1.8-0.1,2.6-0.2l0.1,1.1c-3.5,0.6-7.4,0.6-10.3,0.6l-0.2-1.2c0.7,0,1.4,0,2.2,0v-8H303v-1.2h9.1
							v1.2h-1.8V189.9z M306.2,190.1c0.9,0,1.8-0.1,2.7-0.1v-7.9h-2.7V190.1z M315.8,179.2v16.1h-1.5v-16.1H315.8z"/>
						<path d="M333.8,189.9h-6.6v5.4h-1.5v-5.4h-6.6v-1.2h14.7V189.9z M331.9,186.8H321v-7h1.5v2.2h8v-2.2h1.5V186.8z M330.4,183.2
							h-8v2.4h8V183.2z"/>
						<path d="M350.3,186.7v1.1h-14.6v-1.1H350.3z M338.9,194.1H349v1.1h-11.5v-3.6h9.6v-1.4h-9.6v-1.1h11.1v3.4h-9.6V194.1z
							 M347,180.7h-9.5v-1h10.9v3.4H339v1.4h9.7v1.1h-11.2V182h9.4V180.7z"/>
						<path d="M366.4,187.7c-3.4,0.6-7.3,0.6-10.1,0.6l-0.2-1.1c1.3,0,2.8,0,4.3-0.1v-1c-1.9-0.1-3-0.9-3-2.1c0-1.3,1.5-2.1,3.8-2.1
							c2.3,0,3.8,0.8,3.8,2.1c0,1.2-1.2,1.9-3,2.1v0.9c1.5-0.1,3-0.2,4.4-0.4L366.4,187.7z M365.9,181.5h-9.3v-1.1h3.9V179h1.5v1.4
							h3.9V181.5z M359.8,194.1h9.6v1.1h-11v-3.4h8.9v-1.3h-9v-1h10.5v3.3h-9V194.1z M361.2,185.3c1.4,0,2.4-0.5,2.4-1.2
							c0-0.7-0.9-1.2-2.4-1.2c-1.5,0-2.4,0.4-2.4,1.2C358.9,184.8,359.8,185.3,361.2,185.3z M371.2,183.3v1.2h-2.4v4.2h-1.5v-9.5
							h1.5v4.1H371.2z"/>
						<path d="M387.4,187.2v1.2h-14.6v-1.2h3.6v-2.3c-1.3-0.5-2-1.3-2-2.4c0-1.9,2.2-3,5.7-3c3.5,0,5.7,1.1,5.7,3
							c0,1.1-0.7,1.9-2,2.4v2.3H387.4z M385.7,192.5c0,1.9-2.1,2.9-5.5,2.9c-3.5,0-5.5-1-5.5-2.9s2.1-2.9,5.5-2.9
							C383.6,189.6,385.7,190.6,385.7,192.5z M380.1,184.3c2.6,0,4.2-0.7,4.2-1.9c0-1.2-1.6-1.9-4.2-1.9s-4.2,0.7-4.2,1.9
							C376,183.6,377.5,184.3,380.1,184.3z M384.2,192.5c0-1.1-1.5-1.7-4-1.7c-2.5,0-4,0.6-4,1.7c0,1.1,1.5,1.7,4,1.7
							C382.6,194.2,384.2,193.5,384.2,192.5z M377.9,187.2h4.5v-1.9c-0.7,0.1-1.4,0.2-2.3,0.2c-0.8,0-1.6-0.1-2.2-0.2V187.2z"/>
						<path d="M399,182.4h-9.5v-1.2h4v-2h1.5v2h4V182.4z M394.2,189.2c-2.3,0-3.9-1.2-3.9-3c0-1.8,1.6-3,3.9-3s3.9,1.2,3.9,3
							C398.1,188.1,396.5,189.2,394.2,189.2z M394.2,188.1c1.5,0,2.5-0.7,2.5-1.9c0-1.1-1-1.8-2.5-1.8c-1.5,0-2.4,0.7-2.4,1.8
							C391.8,187.4,392.7,188.1,394.2,188.1z M393.4,193.8h9.3v1.2h-10.8v-4.6h1.5V193.8z M404.3,184.5v1.2h-2.4v5.5h-1.5v-12.1h1.5
							v5.3H404.3z"/>
						<path d="M414.7,190.5c1.8-0.1,3.6-0.2,5.2-0.4l0.1,1.1c-3.3,0.5-7.1,0.6-10,0.6l-0.2-1.2c1,0,2.2,0,3.4-0.1v-5h1.5V190.5z
							 M416.9,188.1c0.5-2.7,0.5-4.6,0.5-5.9h-6.7v-1.2h8.2v0.9c0,1.3,0,3.4-0.5,6.4L416.9,188.1z M424.9,187.2h-2.6v8.2h-1.5v-16.2
							h1.5v6.8h2.6V187.2z"/>
						<path d="M436.1,182.1h-9.5v-1.2h4v-1.8h1.5v1.8h4V182.1z M431.4,188.7c-2.3,0-3.9-1.1-3.9-2.9c0-1.8,1.6-2.9,3.9-2.9
							c2.3,0,3.9,1.2,3.9,2.9C435.2,187.6,433.7,188.7,431.4,188.7z M428.6,190.2h10.5v5.2h-1.5v-4h-9V190.2z M431.4,187.6
							c1.5,0,2.5-0.7,2.5-1.8c0-1.1-1-1.8-2.5-1.8s-2.4,0.7-2.4,1.8S429.9,187.6,431.4,187.6z M441.5,184.9h-2.4v4.4h-1.5v-10.1h1.5
							v4.4h2.4V184.9z"/>
						<path d="M451.9,188.2c-1.8-0.6-3.2-2-3.9-3.7c-0.7,1.9-2.2,3.3-4.1,4l-0.8-1.2c2.4-0.8,4.1-3,4.1-5.3v-0.6h-3.6v-1.2h8.6v1.2
							h-3.5v0.6c0,2.1,1.6,4.1,3.9,4.9L451.9,188.2z M445.6,189.7h10.8v5.6h-1.5v-4.4h-9.3V189.7z M456.4,179.2v9.7h-1.5v-4.2h-3.2
							v-1.2h3.2v-4.2H456.4z"/>
						<path d="M478.3,192.3v1.2h-14.6v-1.2h3.9v-3c-1.2-0.5-1.9-1.3-1.9-2.4c0-1.9,2-3,5.3-3c3.2,0,5.3,1.1,5.3,3
							c0,1.1-0.7,1.9-1.8,2.4v3H478.3z M477.5,182.8h-13.1v-1.2h5.9v-2.1h1.5v2.1h5.8V182.8z M467.2,186.9c0,1.2,1.4,1.9,3.8,1.9
							c2.3,0,3.8-0.7,3.8-1.9c0-1.2-1.4-1.9-3.8-1.9C468.6,185,467.2,185.7,467.2,186.9z M469,192.3h4v-2.6c-0.6,0.1-1.2,0.2-2,0.2
							c-0.7,0-1.4-0.1-2-0.2V192.3z"/>
						<path d="M494.9,186.7v1.2h-14.6v-1.2H494.9z M493.1,192.3c0,1.9-2.1,2.9-5.5,2.9c-3.4,0-5.5-1.1-5.5-2.9c0-1.9,2.1-3,5.5-3
							C491,189.4,493.1,190.5,493.1,192.3z M493.2,184.9h-11v-5.3h1.5v4.2h9.5V184.9z M491.6,192.3c0-1.2-1.5-1.8-4-1.8
							c-2.5,0-4,0.6-4,1.8c0,1.1,1.5,1.8,4,1.8C490.1,194.1,491.6,193.5,491.6,192.3z"/>
						<path d="M510.4,187.6c-3.1,0.5-6.8,0.5-9.4,0.5l-0.2-1.2c0.6,0,1.3,0,2,0v-5.3h-1.6v-1.2h8.5v1.2h-1.6v5.2
							c0.7-0.1,1.4-0.1,2.1-0.2L510.4,187.6z M514.2,192.4c0,1.9-2,2.9-5.4,2.9c-3.3,0-5.4-1.1-5.4-2.9c0-1.9,2-2.9,5.4-2.9
							C512.2,189.5,514.2,190.5,514.2,192.4z M504.4,186.9c0.8,0,1.6-0.1,2.4-0.1v-5.2h-2.4V186.9z M512.7,192.4
							c0-1.1-1.5-1.8-3.9-1.8s-3.9,0.7-3.9,1.8c0,1.1,1.5,1.8,3.9,1.8S512.7,193.5,512.7,192.4z M512.7,186.2H510V185h2.7v-1.7H510
							v-1.2h2.7v-2.9h1.5v9.9h-1.5V186.2z"/>
						<path d="M525.7,180.9c0,4.6-2.1,8.8-7.3,11.4l-0.8-1.2c4.1-2.1,6.3-5.2,6.7-9h-5.9v-1.2H525.7z M532.4,187h-2.6v8.4h-1.5
							v-16.2h1.5v6.6h2.6V187z"/>
						<path d="M538.7,188.4c0-3.5,1-6.4,2.6-9.1l1,0.5c-1.6,2.6-2.3,5.6-2.3,8.7s0.7,6.1,2.3,8.7l-1,0.5
							C539.7,194.8,538.7,191.9,538.7,188.4z"/>
						<path d="M552.1,187.3v1.6h4.7v3.6h-9.5v1.6h10v1.1h-11.4v-3.8h9.5V190h-9.5v-1.1h4.8v-1.6h-6.6v-1.2h14.6v1.2H552.1z
							 M556.8,184.8H546v-5.3h1.5v1.5h7.9v-1.5h1.5V184.8z M555.3,182.1h-7.9v1.5h7.9V182.1z"/>
						<path d="M570.9,186.4c-3.2,0.5-7,0.6-9.8,0.6l-0.1-1.2c0.6,0,1.3,0,2,0v-4.3h-1.6v-1.2h8.7v1.2h-1.6v4.1
							c0.8-0.1,1.6-0.1,2.4-0.2L570.9,186.4z M574.5,194v1.2h-11.1v-4h9v-1.6h-9.1v-1.2h10.6v3.9h-9v1.8H574.5z M564.4,185.7
							c0.9,0,1.7-0.1,2.6-0.1v-4.2h-2.6V185.7z M573.9,187.6h-1.5v-8.4h1.5V187.6z"/>
						<path d="M591.9,192v1.2h-14.7V192h3.6v-4.4c-1.4-0.7-2.2-1.9-2.2-3.3c0-2.5,2.4-4.1,5.9-4.1c3.4,0,5.9,1.6,5.9,4.1
							c0,1.5-0.8,2.6-2.1,3.3v4.4H591.9z M580,184.3c0,1.8,1.9,3,4.4,3s4.5-1.2,4.5-3c0-1.8-1.9-3-4.5-3S580,182.5,580,184.3z
							 M582.3,192h4.5v-3.8c-0.7,0.2-1.5,0.3-2.3,0.3c-0.8,0-1.6-0.1-2.2-0.3V192z"/>
						<path d="M603.3,182.4h-9.5v-1.2h4v-2h1.5v2h4V182.4z M598.6,189.2c-2.3,0-3.9-1.2-3.9-3c0-1.8,1.6-3,3.9-3s3.9,1.2,3.9,3
							C602.4,188.1,600.9,189.2,598.6,189.2z M598.6,188.1c1.5,0,2.5-0.7,2.5-1.9c0-1.1-1-1.8-2.5-1.8c-1.5,0-2.4,0.7-2.4,1.8
							C596.1,187.4,597.1,188.1,598.6,188.1z M597.7,193.8h9.3v1.2h-10.8v-4.6h1.5V193.8z M608.7,184.5v1.2h-2.4v5.5h-1.5v-12.1h1.5
							v5.3H608.7z"/>
						<path d="M629,187.2v1.2h-14.6v-1.2h6.6v-1.9h-4.7v-5.4h11v1.2h-9.5v3h9.6v1.2h-4.9v1.9H629z M627.2,192.4
							c0,1.9-2.1,2.9-5.5,2.9c-3.5,0-5.5-1-5.5-2.9c0-1.9,2.1-2.9,5.5-2.9C625.1,189.5,627.2,190.5,627.2,192.4z M625.7,192.4
							c0-1.1-1.5-1.8-4-1.8c-2.6,0-4.1,0.6-4.1,1.8c0,1.1,1.5,1.8,4.1,1.8C624.2,194.2,625.7,193.5,625.7,192.4z"/>
						<path d="M638.9,187.2v1.6h4.7v3.6h-9.5v1.6h10v1.2h-11.4v-3.8h9.5v-1.4h-9.5v-1.1h4.8v-1.6h-6.6V186h14.6v1.2H638.9z
							 M643.6,184.6h-10.8v-4.9h10.8V184.6z M642.2,180.9h-7.9v2.6h7.9V180.9z"/>
						<path d="M656.5,187.1c-1.9-0.6-3.3-2-4.1-3.7c-0.7,1.9-2.2,3.3-4.1,4l-0.8-1.2c2.4-0.8,4.1-3,4.1-5.3v-1.2h1.5v1.2
							c0,2.2,1.7,4.2,4.1,5L656.5,187.1z M661.3,194v1.2h-11v-4h9v-1.6h-9v-1.2h10.5v3.9h-9v1.7H661.3z M660.7,187.6h-1.5v-8.4h1.5
							V187.6z"/>
						<path d="M673.4,182.1h-9.4v-1.2h3.9V179h1.5v1.9h3.9V182.1z M668.7,188.6c-2.2,0-3.7-1.1-3.7-2.9s1.5-2.9,3.7-2.9
							c2.2,0,3.7,1.2,3.7,2.9S670.9,188.6,668.7,188.6z M668.7,187.5c1.4,0,2.3-0.7,2.3-1.8s-1-1.8-2.3-1.8c-1.4,0-2.3,0.7-2.3,1.8
							S667.4,187.5,668.7,187.5z M666.8,189.8h10.5v5.3h-10.5V189.8z M668.3,193.9h7.6V191h-7.6V193.9z M677.3,179.2v9.8h-1.5v-3.7
							h-2.7v-1.2h2.7v-4.9H677.3z"/>
						<path d="M690.4,184.1c0,2.7,1.9,5.5,4.3,6.5l-0.8,1.2c-1.9-0.9-3.5-2.7-4.2-4.9c-0.7,2.4-2.3,4.4-4.2,5.3l-0.9-1.2
							c2.3-1.1,4.3-4.1,4.3-6.9v-2.1h-3.7v-1.2h9v1.2h-3.8V184.1z M697.8,179.2v16.1h-1.5v-16.1H697.8z"/>
						<path d="M705.7,187.8c-2.4,0-4.2-1.6-4.2-3.8c0-2.2,1.8-3.8,4.2-3.8c2.4,0,4.2,1.5,4.2,3.8
							C709.9,186.2,708.1,187.8,705.7,187.8z M705.7,186.5c1.6,0,2.8-1.1,2.8-2.6c0-1.5-1.2-2.6-2.8-2.6c-1.6,0-2.8,1-2.8,2.6
							C702.9,185.4,704.1,186.5,705.7,186.5z M713.9,192.3c0,1.9-2.1,3-5.3,3c-3.3,0-5.3-1.1-5.3-3c0-1.9,2.1-3,5.3-3
							C711.8,189.3,713.9,190.4,713.9,192.3z M712.4,192.3c0-1.2-1.5-1.9-3.8-1.9c-2.4,0-3.9,0.7-3.9,1.9c0,1.2,1.5,1.9,3.9,1.9
							C711,194.1,712.4,193.4,712.4,192.3z M713.7,182.8v2.2h2.4v1.2h-2.4v2.5h-1.5v-9.6h1.5v2.4h2.4v1.2H713.7z"/>
						<path d="M722.5,188.4c0-3.5,1-6.4,2.6-9.1l1,0.5c-1.6,2.6-2.3,5.6-2.3,8.7s0.7,6.1,2.3,8.7l-1,0.5
							C723.5,194.8,722.5,191.9,722.5,188.4z"/>
						<path d="M727.4,192.4l0.8-1.1c0.8,0.8,1.8,1.5,3.3,1.5c1.6,0,2.7-0.9,2.7-2.4c0-1.6-1.1-2.6-4.1-2.6v-1.3
							c2.7,0,3.7-1.1,3.7-2.5c0-1.3-0.9-2.1-2.2-2.1c-1.1,0-2,0.6-2.7,1.3l-0.9-1c1-0.9,2.2-1.6,3.7-1.6c2.2,0,3.8,1.2,3.8,3.3
							c0,1.6-1,2.7-2.4,3.2v0.1c1.6,0.4,2.8,1.5,2.8,3.3c0,2.4-1.9,3.8-4.2,3.8C729.6,194.2,728.3,193.4,727.4,192.4z"/>
						<path d="M746,194l-3.2-5.6h-2.4v5.6h-1.7v-13.2h4.1c2.7,0,4.6,1,4.6,3.7c0,2.1-1.2,3.3-3,3.7l3.4,5.8H746z M740.4,187h2.2
							c2.1,0,3.2-0.8,3.2-2.5c0-1.7-1.1-2.4-3.2-2.4h-2.2V187z"/>
						<path d="M748.9,192.9l0.8-1.1c0.8,0.7,1.7,1.2,2.9,1.2c1.3,0,1.9-0.7,1.9-1.5c0-1-1.2-1.4-2.2-1.9c-1.4-0.5-2.9-1.2-2.9-2.8
							c0-1.5,1.2-2.8,3.4-2.8c1.2,0,2.3,0.5,3,1.1l-0.8,1.1c-0.7-0.5-1.4-0.9-2.3-0.9c-1.2,0-1.8,0.6-1.8,1.4c0,0.9,1.1,1.3,2.2,1.7
							c1.4,0.5,3,1.1,3,3c0,1.6-1.3,2.9-3.6,2.9C751.2,194.2,749.8,193.7,748.9,192.9z"/>
						<path d="M757.5,197.1c1.5-2.6,2.3-5.6,2.3-8.7s-0.8-6.1-2.3-8.7l1-0.5c1.7,2.7,2.7,5.6,2.7,9.1c0,3.5-1,6.4-2.7,9.1
							L757.5,197.1z"/>
						<path d="M763.6,197.1c1.5-2.6,2.3-5.6,2.3-8.7s-0.8-6.1-2.3-8.7l1-0.5c1.7,2.7,2.7,5.6,2.7,9.1c0,3.5-1,6.4-2.7,9.1
							L763.6,197.1z"/>
					</g>
					<text transform="matrix(1 0 0 1 768.9201 194)" class="st4 st5"> </text>
					<g class="st2">
						<path d="M214.8,223.3h4.6v1.3h-4.6V223.3z"/>
						<path d="M239.9,227v1.2h-14.7V227h6.5v-3.9h1.5v3.9H239.9z M238.5,223.3c-2.5-0.5-5-2.2-6-4.5c-1,2.3-3.6,4-6,4.5l-0.6-1.2
							c2.8-0.5,5.9-2.9,5.9-5.6v-1.2h1.5v1.2c0,2.7,3.1,5.1,5.9,5.6L238.5,223.3z"/>
						<path d="M244.2,215.5v4.3h4.7v-4.3h1.5v10.9h-7.6v-10.9H244.2z M244.2,225.2h4.7V221h-4.7V225.2z M255,214.2v16.2h-1.5v-16.2
							H255z"/>
						<path d="M263.8,219.1c0,2.6,1.8,5.4,4.2,6.5l-0.8,1.2c-1.8-0.9-3.3-2.8-4.1-5c-0.7,2.4-2.3,4.4-4.1,5.3l-0.9-1.2
							c2.3-1.2,4.2-4.2,4.2-7v-2.1h-3.7v-1.2h8.7v1.2h-3.6V219.1z M273.4,221.9h-2.7v8.4h-1.5v-16.1h1.5v6.5h2.7V221.9z"/>
						<path d="M289.1,223.1c-3.3,0.6-7.2,0.6-10.1,0.6l-0.1-1.2c1,0,2.2,0,3.4,0V219h1.5v3.4c1.8-0.1,3.6-0.2,5.2-0.4L289.1,223.1z
							 M286,220.9c0.4-1.9,0.4-3.2,0.4-4.3h-6.6v-1.2h8v0.8c0,1.1,0,2.7-0.4,4.8L286,220.9z M282.8,228.8h9.3v1.2h-10.7v-4.7h1.5
							V228.8z M293.8,219.4v1.2h-2.3v5.7H290v-12.2h1.5v5.3H293.8z"/>
						<path d="M304.3,223.1c-1.8-0.6-3.2-2-3.9-3.7c-0.7,1.9-2.2,3.3-4.1,4l-0.8-1.2c2.4-0.9,4.1-3,4.1-5.3v-0.6H296v-1.2h8.6v1.2
							h-3.5v0.6c0,2.1,1.6,4.1,3.9,5L304.3,223.1z M298.3,224.4h10.5v5.7h-10.5V224.4z M299.8,228.9h7.6v-3.3h-7.6V228.9z
							 M308.8,214.2v9.5h-1.5v-4.2h-3.2v-1.2h3.2v-4.1H308.8z"/>
						<path d="M312.2,225.6c2.9,0,7,0,10.5-0.6l0.1,1.1c-3.6,0.7-7.5,0.7-10.5,0.7L312.2,225.6z M321.6,219.2c0,2.3-1.8,3.8-4.3,3.8
							c-2.5,0-4.3-1.5-4.3-3.8c0-2.3,1.8-3.8,4.3-3.8C319.8,215.4,321.6,216.9,321.6,219.2z M314.4,219.2c0,1.5,1.2,2.5,2.9,2.5
							s2.9-1,2.9-2.5c0-1.5-1.2-2.5-2.9-2.5S314.4,217.7,314.4,219.2z M325.2,214.2v16.2h-1.5v-16.2H325.2z"/>
						<path d="M335.4,215.8c-1,0.7-1.5,1.4-1.5,2.5c0.1,0,0.1,0,0.2,0c0.6,0,1.1,0.4,1.1,1c0,0.7-0.4,1.1-1.1,1.1
							c-0.8,0-1.3-0.6-1.3-1.8c0-1.6,0.8-2.8,2.1-3.6L335.4,215.8z M339,215.8c-1,0.7-1.5,1.4-1.5,2.5c0.1,0,0.1,0,0.2,0
							c0.6,0,1.1,0.4,1.1,1c0,0.7-0.4,1.1-1.1,1.1c-0.8,0-1.2-0.6-1.2-1.8c0-1.6,0.8-2.8,2.1-3.6L339,215.8z"/>
						<path d="M349.9,223c-1.8-0.7-3.1-1.9-3.8-3.6c-0.7,1.9-2.1,3.4-4.1,4.1l-0.8-1.2c2.5-0.9,4.1-3,4.1-5.5v-1.7h1.5v1.6
							c0,2.3,1.6,4.3,3.9,5.1L349.9,223z M354.5,227.3c0,1.9-2.1,3-5.4,3s-5.4-1.1-5.4-3c0-1.9,2.1-3,5.4-3S354.5,225.3,354.5,227.3
							z M353.1,227.3c0-1.2-1.5-1.9-3.9-1.9s-3.9,0.7-3.9,1.9c0,1.2,1.5,1.9,3.9,1.9S353.1,228.4,353.1,227.3z M353,218.8h-3.5v-1.2
							h3.5v-3.4h1.5v9.5H353V218.8z"/>
						<path d="M372.4,222.7v1.2h-6.5v3.1h-1.5v-3.1h-6.7v-1.2H372.4z M361.1,228.8h9.7v1.2h-11.2v-4.4h1.5V228.8z M370.5,221.1
							h-10.8v-6.4h1.5v2.1h7.9v-2.1h1.5V221.1z M369,217.9h-7.9v2.1h7.9V217.9z"/>
						<path d="M379,225.5c1.8-0.1,3.6-0.2,5.2-0.4l0.1,1.1c-3.3,0.5-7.1,0.6-10,0.6l-0.2-1.2c1,0,2.2,0,3.4-0.1v-5h1.5V225.5z
							 M381.3,223.1c0.5-2.7,0.5-4.6,0.5-5.9H375v-1.2h8.2v0.9c0,1.3,0,3.4-0.5,6.4L381.3,223.1z M389.3,222.2h-2.6v8.2h-1.5v-16.2
							h1.5v6.8h2.6V222.2z"/>
						<path d="M409.6,227.3v1.2h-14.6v-1.2h3.9v-3c-1.2-0.5-1.9-1.3-1.9-2.4c0-1.9,2-3,5.3-3c3.2,0,5.3,1.1,5.3,3
							c0,1.1-0.7,1.9-1.8,2.4v3H409.6z M408.7,217.8h-13.1v-1.2h5.9v-2.1h1.5v2.1h5.8V217.8z M398.4,221.9c0,1.2,1.4,1.9,3.8,1.9
							c2.3,0,3.8-0.7,3.8-1.9c0-1.2-1.4-1.9-3.8-1.9C399.9,220,398.4,220.7,398.4,221.9z M400.2,227.3h4v-2.6
							c-0.6,0.1-1.2,0.2-2,0.2c-0.7,0-1.4-0.1-2-0.2V227.3z"/>
						<path d="M426.1,221.7v1.2h-14.6v-1.2H426.1z M424.3,227.3c0,1.9-2.1,2.9-5.5,2.9c-3.4,0-5.5-1.1-5.5-2.9c0-1.9,2.1-3,5.5-3
							C422.2,224.4,424.3,225.5,424.3,227.3z M424.4,219.9h-11v-5.3h1.5v4.2h9.5V219.9z M422.8,227.3c0-1.2-1.5-1.8-4-1.8
							s-4,0.6-4,1.8c0,1.1,1.5,1.8,4,1.8C421.3,229.1,422.8,228.5,422.8,227.3z"/>
						<path d="M428.3,219.5c1-0.7,1.5-1.3,1.5-2.5c-0.1,0-0.1,0-0.2,0c-0.5,0-1-0.4-1-1c0-0.7,0.4-1.1,1-1.1c0.8,0,1.3,0.7,1.3,1.8
							c0,1.6-0.8,2.8-2.1,3.6L428.3,219.5z M431.9,219.5c1-0.7,1.5-1.3,1.5-2.5c-0.1,0-0.1,0-0.2,0c-0.6,0-1.1-0.4-1.1-1
							c0-0.7,0.4-1.1,1.1-1.1c0.8,0,1.3,0.7,1.3,1.8c0,1.6-0.8,2.8-2.1,3.6L431.9,219.5z"/>
						<path d="M448.3,221.8c-0.8,1-1.9,1.5-3.3,1.5c-2.4,0-4.2-1.7-4.2-4.1c0-2.4,1.8-4.1,4.2-4.1c1.4,0,2.5,0.6,3.3,1.5h4.1v-2.5
							h1.5v11.9h-1.5v-4.3H448.3z M445,222c1.6,0,2.7-1.2,2.7-2.8s-1.2-2.8-2.7-2.8c-1.6,0-2.8,1.2-2.8,2.8S443.4,222,445,222z
							 M454.4,228.8v1.2h-10.8v-5.1h1.5v3.9H454.4z M449,217.9c0.1,0.4,0.2,0.9,0.2,1.4c0,0.5-0.1,0.9-0.2,1.3h3.5v-2.7H449z"/>
						<path d="M471.8,223.4h-6.6v7h-1.5v-7h-6.5v-1.2h10.7c0.5-2.3,0.5-4,0.5-5.5v-0.2H459v-1.2h10.8v1.4c0,1.5,0,3.2-0.5,5.5h2.4
							V223.4z"/>
					</g>
					<g class="st2">
						<path d="M214.8,258.3h4.6v1.3h-4.6V258.3z"/>
						<path d="M239.9,259.7h-6.6v5.7h-1.5v-5.7h-6.5v-1.2h14.6V259.7z M226.9,253.4c0-2.2,2.3-3.5,5.6-3.5c3.4,0,5.7,1.4,5.7,3.5
							c0,2.2-2.3,3.5-5.7,3.5C229.2,256.9,226.9,255.5,226.9,253.4z M228.4,253.4c0,1.4,1.7,2.4,4.1,2.4c2.5,0,4.1-0.9,4.1-2.4
							c0-1.4-1.7-2.3-4.1-2.3C230.1,251,228.4,251.9,228.4,253.4z"/>
						<path d="M256.4,259.5h-6.6v5.9h-1.5v-5.9h-6.5v-1.2h14.6L256.4,259.5z M255.1,256.5c-2.5-0.4-4.9-1.8-6-3.8
							c-1,2-3.4,3.3-6,3.8l-0.6-1.2c2.9-0.4,5.8-2.4,5.8-4.7v-0.9h1.5v0.9c0,2.2,2.9,4.2,5.8,4.7L255.1,256.5z"/>
						<path d="M267.9,252.4h-9.5v-1.2h4v-2h1.5v2h4V252.4z M263.2,259.2c-2.3,0-3.9-1.2-3.9-3c0-1.8,1.6-3,3.9-3s3.9,1.2,3.9,3
							C267,258.1,265.4,259.2,263.2,259.2z M263.2,258.1c1.5,0,2.5-0.7,2.5-1.9c0-1.1-1-1.8-2.5-1.8c-1.5,0-2.4,0.7-2.4,1.8
							C260.7,257.4,261.7,258.1,263.2,258.1z M262.3,263.8h9.3v1.2h-10.8v-4.6h1.5V263.8z M273.3,254.5v1.2h-2.4v5.5h-1.5v-12.1h1.5
							v5.3H273.3z"/>
						<path d="M286.7,259.9c0.9,0,1.8-0.1,2.6-0.2l0.1,1.1c-3.5,0.6-7.4,0.6-10.3,0.6l-0.2-1.2c0.7,0,1.4,0,2.2,0v-8h-1.8v-1.2h9.1
							v1.2h-1.8V259.9z M282.6,260.1c0.9,0,1.8-0.1,2.7-0.1v-7.9h-2.7V260.1z M292.2,249.2v16.1h-1.5v-16.1H292.2z"/>
						<path d="M310.1,259.9h-6.6v5.4H302v-5.4h-6.6v-1.2h14.7V259.9z M308.3,256.8h-10.9v-7h1.5v2.2h8v-2.2h1.5V256.8z M306.8,253.2
							h-8v2.4h8V253.2z"/>
						<path d="M326.7,262.1v1.2h-14.6v-1.2h6.6v-3.5h-4.8v-8.2h1.5v2.9h8.2v-2.9h1.4v8.2h-4.8v3.5H326.7z M315.3,257.4h8.2v-3h-8.2
							V257.4z"/>
						<path d="M343.3,262.2v1.2h-14.6v-1.2h6.6V260c-2.8-0.2-4.6-1.3-4.6-3.1c0-1.9,2-3.1,5.3-3.1c3.2,0,5.3,1.1,5.3,3.1
							c0,1.8-1.7,2.9-4.5,3.1v2.3H343.3z M342.5,252.7h-13.1v-1.2h5.9v-2.1h1.5v2.1h5.8V252.7z M335.9,258.8c2.3,0,3.8-0.7,3.8-1.9
							c0-1.2-1.4-1.9-3.8-1.9c-2.4,0-3.8,0.7-3.8,1.9C332.1,258.1,333.6,258.8,335.9,258.8z"/>
						<path d="M357.6,256.8h-7.5v-6.6h7.5V256.8z M358.1,260.7c0,1.5,2.5,3.1,5.3,3.5l-0.5,1.1c-2.4-0.3-4.6-1.5-5.5-3
							c-1,1.5-3.2,2.6-5.6,3l-0.5-1.1c2.8-0.3,5.3-1.9,5.3-3.5h-4.7v-1.1h4.7V258h1.5v1.6h4.7v1.1H358.1z M356.2,251.4h-4.7v4.2h4.7
							V251.4z M362.4,258.5H361v-9.3h1.5V258.5z"/>
						<path d="M379.4,252.2h-9.5V251h4v-2h1.5v2h4V252.2z M374.6,258.7c-2.3,0-3.9-1.1-3.9-2.9c0-1.7,1.5-2.8,3.9-2.8
							s3.9,1.1,3.9,2.8C378.5,257.6,376.9,258.7,374.6,258.7z M382.5,262.5c0,1.8-2,2.8-5.3,2.8c-3.3,0-5.3-1-5.3-2.8
							c0-1.8,2-2.8,5.3-2.8C380.5,259.7,382.5,260.7,382.5,262.5z M374.6,257.6c1.5,0,2.5-0.7,2.5-1.7c0-1-1-1.7-2.5-1.7
							c-1.5,0-2.4,0.7-2.4,1.7C372.2,256.9,373.2,257.6,374.6,257.6z M381.1,262.5c0-1-1.4-1.7-3.8-1.7c-2.4,0-3.8,0.6-3.8,1.7
							c0,1,1.4,1.7,3.8,1.7C379.6,264.2,381.1,263.6,381.1,262.5z M384.7,253.7v1.2h-2.4v4.7h-1.5v-10.4h1.5v4.5H384.7z"/>
						<path d="M401,262v1.2h-14.7V262h6.6v-4.3h-4.8v-7.1h1.5v6h9.7v1.2h-4.9v4.3H401z"/>
						<path d="M408.6,260.9c1.5-0.1,3-0.2,4.3-0.4l0.1,1.1c-3.5,0.6-7.3,0.6-10.1,0.6l-0.2-1.2c1.3,0,2.8,0,4.4-0.1v-1.8
							c-1.9-0.2-3.1-1.4-3.1-3c0-1.8,1.6-3,3.8-3s3.8,1.2,3.8,3c0,1.6-1.2,2.7-3.1,3V260.9z M412.7,252.3H403v-1.2h4.1v-1.9h1.5v1.9
							h4.1V252.3z M407.9,258.1c1.4,0,2.4-0.7,2.4-1.8s-1-1.9-2.4-1.9s-2.4,0.7-2.4,1.9S406.4,258.1,407.9,258.1z M417.9,257.3h-2.5
							v8h-1.5v-16.2h1.5v6.9h2.5V257.3z"/>
						<path d="M432.3,259c-1.9-0.6-3.3-1.9-4-3.5c-0.7,1.8-2.1,3.2-4,3.8l-0.7-1.2c2.4-0.8,4-2.8,4-5.1v-0.5H424v-1.2h3.6v-2.1h1.5
							v2.1h3.6v1.2H429v0.5c0,2.1,1.6,4,4,4.8L432.3,259z M437.3,263.8v1.2h-10.8v-4.8h1.5v3.6H437.3z M435.3,254.2v-5h1.5v12h-1.5
							v-5.9h-3.3v-1.2H435.3z"/>
						<path d="M447.8,256.8c-0.8,1-1.9,1.5-3.3,1.5c-2.4,0-4.2-1.7-4.2-4.1c0-2.4,1.8-4.1,4.2-4.1c1.4,0,2.5,0.6,3.3,1.5h4.1v-2.5
							h1.5v11.9h-1.5v-4.3H447.8z M444.5,257c1.6,0,2.7-1.2,2.7-2.8s-1.2-2.8-2.7-2.8c-1.6,0-2.8,1.2-2.8,2.8S442.9,257,444.5,257z
							 M453.8,263.8v1.2H443v-5.1h1.5v3.9H453.8z M448.4,252.9c0.1,0.4,0.2,0.9,0.2,1.4c0,0.5-0.1,0.9-0.2,1.3h3.5v-2.7H448.4z"/>
						<path d="M464.7,257.2v1.6h4.7v3.6h-9.5v1.6h10v1.2h-11.4v-3.8h9.5v-1.4h-9.5v-1.1h4.8v-1.6h-6.6V256h14.6v1.2H464.7z
							 M469.4,254.6h-10.8v-4.9h10.8V254.6z M467.9,250.9H460v2.6h7.9V250.9z"/>
						<path d="M482.9,260.9c1.5-0.1,3-0.2,4.3-0.4l0.1,1.1c-3.5,0.6-7.3,0.6-10.1,0.6l-0.2-1.2c1.3,0,2.8,0,4.4-0.1v-1.8
							c-1.9-0.2-3.1-1.4-3.1-3c0-1.8,1.6-3,3.8-3s3.8,1.2,3.8,3c0,1.6-1.2,2.7-3.1,3V260.9z M487,252.3h-9.7v-1.2h4.1v-1.9h1.5v1.9
							h4.1V252.3z M482.2,258.1c1.4,0,2.4-0.7,2.4-1.8s-1-1.9-2.4-1.9s-2.4,0.7-2.4,1.9S480.7,258.1,482.2,258.1z M492.2,257.3h-2.5
							v8h-1.5v-16.2h1.5v6.9h2.5V257.3z"/>
						<path d="M502.5,258.1c-1.8-0.6-3.2-1.9-3.9-3.5c-0.7,1.8-2.1,3.3-4.1,4l-0.8-1.2c2.4-0.8,4.1-2.9,4.1-5.3v-0.6h-3.6v-1.2h8.7
							v1.2h-3.6v0.6c0,2.1,1.5,4,3.9,4.8L502.5,258.1z M506.5,262.3c0,1.9-2,3-5.3,3c-3.3,0-5.3-1.1-5.3-3c0-1.9,2-3,5.3-3
							C504.5,259.4,506.5,260.5,506.5,262.3z M505,262.3c0-1.1-1.5-1.8-3.8-1.8c-2.4,0-3.9,0.7-3.9,1.8c0,1.2,1.4,1.8,3.9,1.8
							C503.6,264.1,505,263.5,505,262.3z M508.7,253.3v1.2h-2.4v4.4h-1.5v-9.7h1.5v4.1H508.7z"/>
						<path d="M518.4,258.2v1.9h4.8v5h-11v-5h4.8v-1.9h-6.6V257H525v1.2H518.4z M514.2,250.9h-2.4v-1.2h11.8v1.2h-2.4v3.4h2.4v1.2
							h-11.7v-1.2h2.4V250.9z M521.7,261.2h-8.1v2.7h8.1V261.2z M519.6,250.9h-4v3.4h4V250.9z"/>
						<path d="M535.5,257.8c-1.6,0.1-3.2,0.1-4.5,0.1l-0.2-1.2c3,0,7,0,10.4-0.5l0.1,1.1c-1.4,0.2-2.9,0.4-4.4,0.5v3.2h-1.5V257.8z
							 M532.1,252.6c0-1.7,1.6-2.8,4-2.8c2.4,0,4,1.1,4,2.8c0,1.7-1.6,2.8-4,2.8C533.8,255.5,532.1,254.4,532.1,252.6z M544.6,263.8
							v1.2h-11.4v-4.7h1.5v3.5H544.6z M533.5,252.6c0,1,1,1.7,2.6,1.7s2.6-0.7,2.6-1.7c0-1-1-1.7-2.6-1.7S533.5,251.6,533.5,252.6z
							 M542.7,258.7v-9.5h1.5v12.3h-1.5v-1.7h-3.3v-1.1H542.7z"/>
						<path d="M562.2,262.1v1.2h-14.7v-1.2h4.1v-3.1h-2.3v-5h9.6v-2.5h-9.6v-1.2h11.1v4.9h-9.6v2.6h9.9v1.2h-2.5v3.1H562.2z
							 M553,262.1h3.7v-3.1H553V262.1z"/>
						<path d="M578.7,262.1v1.2H564v-1.2h6.6v-3h-4.7v-5h9.6v-2.5h-9.6v-1.2h11.1v4.9h-9.6v2.6h9.9v1.2h-5.2v3H578.7z"/>
						<path d="M599.3,255.2v1.2h-14.7v-1.2h10.9c0.4-1.8,0.4-3.1,0.4-4.1h-9.4v-1.2h10.9v1c0,1.1,0,2.5-0.4,4.3H599.3z M587.9,264
							h10v1.2h-11.4V261h9.6v-1.8h-9.6V258h11.1v4.1h-9.6V264z"/>
						<path d="M615.9,262.1v1.2h-14.7v-1.2h6.6v-3H603v-5h9.6v-2.5H603v-1.2h11.1v4.9h-9.6v2.6h9.9v1.2h-5.2v3H615.9z"/>
						<path d="M625.9,256.9h-7.3v-7h1.5v2.3h4.4v-2.3h1.5v2.9h3.7v-3.6h1.5v8.4h-1.5V254h-3.7V256.9z M624.4,253.4H620v2.4h4.4
							V253.4z M631.7,263.9v1.2h-11v-4h8.9v-1.6h-8.9v-1.2h10.4v3.8h-8.9v1.7H631.7z"/>
						<path d="M644.1,253.5c0,3,1.9,5.9,4.3,7l-0.9,1.2c-1.8-0.9-3.4-2.8-4.2-5.1c-0.7,2.4-2.3,4.4-4.2,5.4l-0.9-1.2
							c2.4-1.1,4.3-4.2,4.3-7.3v-2.9h1.5V253.5z M651.6,249.2v16.2h-1.5v-16.2H651.6z"/>
						<path d="M663.6,258.1c-1.8-0.6-3.2-1.9-3.9-3.5c-0.7,1.8-2.1,3.3-4.1,4l-0.8-1.2c2.4-0.8,4.1-2.9,4.1-5.3v-0.6h-3.6v-1.2h8.7
							v1.2h-3.6v0.6c0,2.1,1.5,4,3.9,4.8L663.6,258.1z M667.6,262.3c0,1.9-2,3-5.3,3c-3.3,0-5.3-1.1-5.3-3c0-1.9,2-3,5.3-3
							C665.6,259.4,667.6,260.5,667.6,262.3z M666.2,262.3c0-1.1-1.5-1.8-3.8-1.8c-2.4,0-3.9,0.7-3.9,1.8c0,1.2,1.4,1.8,3.9,1.8
							C664.7,264.1,666.2,263.5,666.2,262.3z M669.9,253.3v1.2h-2.4v4.4H666v-9.7h1.5v4.1H669.9z"/>
						<path d="M684.7,258.7c-1.9-0.6-3.3-2-4.1-3.7c-0.7,1.8-2.2,3.3-4.1,4l-0.8-1.2c2.4-0.8,4.1-3,4.1-5.3v-0.9h-3.7v-1.2h8.9v1.2
							h-3.7v0.9c0,2.2,1.7,4.1,4.1,4.9L684.7,258.7z M689.3,263.8v1.2h-10.9v-5.1h1.5v3.9H689.3z M688.8,261h-1.5v-11.8h1.5V261z"/>
						<path d="M700.1,257.5v1.5h4.7v3.5h-9.5v1.5h10v1.1h-11.4v-3.7h9.5v-1.4h-9.5V259h4.8v-1.5h-6.5v-1.1h14.6v1.1H700.1z
							 M692.9,254.5c3-0.2,5.5-1.2,5.7-2.8h-5v-1.1h5.1v-1.5h1.5v1.5h5.1v1.1h-5c0.3,1.6,2.7,2.6,5.7,2.8l-0.5,1.1
							c-2.7-0.2-5.1-1-6.1-2.5c-1,1.5-3.4,2.3-6.1,2.5L692.9,254.5z"/>
					</g>
				</g>
				<g id="표" transform="translate(47.000000, 348.000000)">
					<g id="others" transform="translate(280.000000, 0.000000)">
						<g id="_x31_">
							<path id="bg_2_" class="st6" d="M8,0h134c4.4,0,8,3.6,8,8v34c0,4.4-3.6,8-8,8H8c-4.4,0-8-3.6-8-8V8C0,3.6,3.6,0,8,0z"/>
							<g class="st2">
								<path class="st3" d="M55.4,19.9c0,4.2-1.4,7.7-6.3,10l-1-1.6c3.5-1.7,5.1-3.9,5.3-6.9h-4.6v-1.6H55.4z M59.5,18.5v13.8h-2
									V18.5H59.5z"/>
								<path class="st3" d="M74.4,29.1v1.6H61.8v-1.6h5.3v-2.7h2v2.7H74.4z M62.2,25.4c3.1-0.4,4.7-1.9,4.8-3.4h-4.2v-1.6h4.2v-1.7
									h2v1.7h4.2v1.6h-4.2c0.2,1.5,1.7,3.1,4.8,3.4l-0.7,1.6c-2.5-0.3-4.2-1.3-5.1-2.8c-0.9,1.4-2.7,2.4-5.1,2.8L62.2,25.4z"/>
								<path class="st3" d="M82.2,25.3c-0.7,0.7-1.6,1.1-2.7,1.1c-2,0-3.6-1.5-3.6-3.6c0-2.1,1.6-3.6,3.6-3.6c1.1,0,2,0.4,2.7,1.1
									h3.1v-1.9h2v10.1h-2v-3.3H82.2z M79.5,24.7c1,0,1.8-0.7,1.8-1.9c0-1.1-0.8-1.8-1.8-1.8c-1,0-1.8,0.7-1.8,1.8
									C77.7,24,78.4,24.7,79.5,24.7z M87.5,30.5V32h-9.4v-4.5h2v2.9H87.5z M83,22c0.1,0.3,0.1,0.6,0.1,0.9c0,0.3,0,0.6-0.1,0.9
									h2.2V22H83z"/>
								<path class="st3" d="M101.9,26.7h-5.3v5.5h-2v-5.5h-5.2v-1.6h8.7c0.3-1.8,0.4-3.1,0.4-4.3h-7.6v-1.6h9.6v1.2
									c0,1.3,0,2.7-0.3,4.6h1.8V26.7z"/>
							</g>
						</g>
						<g id="_x32_" transform="translate(317.000000, 0.000000)">
							<path id="bg_3_" class="st6" d="M8,0h134c4.4,0,8,3.6,8,8v34c0,4.4-3.6,8-8,8H8c-4.4,0-8-3.6-8-8V8C0,3.6,3.6,0,8,0z"/>
							<g class="st2">
								<path class="st3" d="M38.7,26.4c-2.1,0-3.8-1.5-3.8-3.5c0-2,1.7-3.5,3.8-3.5c2.1,0,3.7,1.5,3.7,3.5
									C42.5,24.9,40.8,26.4,38.7,26.4z M38.7,24.7c1,0,1.8-0.7,1.8-1.8c0-1.1-0.8-1.8-1.8-1.8c-1,0-1.8,0.7-1.8,1.8
									C36.9,24,37.7,24.7,38.7,24.7z M46.6,30.5V32H37v-4.6h2v3H46.6z M46.2,28.4h-2v-9.9h2V28.4z"/>
								<path class="st3" d="M52.8,22.7c0,2.1,0.7,4.2,2.7,5.2l-1.1,1.5c-1.2-0.6-2-1.7-2.5-3.1c-0.5,1.4-1.3,2.7-2.5,3.4l-1.1-1.5
									c2-1.2,2.7-3.4,2.7-5.5v-0.3h-2.2v-1.6H51v-1.9h1.9v1.9h2.1v1.6h-2.1V22.7z M55.7,18.7h1.8v13h-1.8v-6.4h-1.6v-1.6h1.6V18.7
									z M60.4,18.5v13.8h-1.9V18.5H60.4z"/>
								<path class="st3" d="M69.7,26.3c-1.5-0.5-2.5-1.5-3.1-2.7c-0.6,1.3-1.7,2.5-3.3,3l-1-1.6c2.2-0.8,3.2-2.5,3.3-4.2h-2.7v-1.6
									h7.4v1.6h-2.7c0,1.6,1,3.2,3.1,4L69.7,26.3z M64.5,27.3h9.4v5h-2v-3.4h-7.4V27.3z M73.9,18.5v8.2h-2v-3.3h-2v-1.6h2v-3.3
									H73.9z"/>
								<path class="st3" d="M88.6,25v1.6H76.1V25h2.8v-1.7c-1-0.5-1.6-1.1-1.6-2c0-1.7,2-2.7,5-2.7c3.1,0,5,1,5,2.7
									c0,0.9-0.6,1.6-1.6,2V25H88.6z M87.2,29.8c0,1.6-1.8,2.5-4.8,2.5c-3,0-4.8-0.9-4.8-2.5c0-1.6,1.8-2.5,4.8-2.5
									C85.3,27.3,87.2,28.2,87.2,29.8z M79.4,21.3c0,0.8,1.1,1.1,3,1.1c1.9,0,3-0.4,3-1.1c0-0.8-1.1-1.2-3-1.2
									C80.5,20.2,79.4,20.6,79.4,21.3z M85.1,29.8c0-0.7-0.9-1-2.8-1s-2.8,0.3-2.8,1s0.9,1,2.8,1S85.1,30.5,85.1,29.8z M80.9,25
									h2.9v-1.1c-0.4,0-0.9,0.1-1.4,0.1c-0.5,0-1,0-1.5-0.1V25z"/>
								<path class="st3" d="M95.3,21.6c0,2.6,1.1,5.1,3.4,6.1l-1.1,1.6c-1.6-0.7-2.7-2.1-3.3-3.8c-0.6,1.8-1.7,3.3-3.4,4.1
									l-1.2-1.6c2.4-1,3.6-3.7,3.6-6.4v-2h2V21.6z M101.4,18.5v13.9h-2V18.5H101.4z"/>
								<path class="st3" d="M111.9,21.2h-8.1v-1.5h3v-1.3h2v1.3h3.1V21.2z M107.8,26.7c-1.9,0-3.3-1-3.3-2.5c0-1.5,1.4-2.5,3.3-2.5
									c1.9,0,3.3,1,3.3,2.5C111.1,25.6,109.8,26.7,107.8,26.7z M106.1,27.4h9.2v4.7h-9.2V27.4z M107.8,25.2c0.8,0,1.4-0.4,1.4-1
									c0-0.7-0.6-1-1.4-1c-0.8,0-1.4,0.4-1.4,1C106.4,24.9,107,25.2,107.8,25.2z M108,30.6h5.3V29H108V30.6z M115.3,18.5v8.3h-2
									v-2.7h-1.7v-1.6h1.7v-4H115.3z"/>
							</g>
						</g>
						<g id="_x33_" transform="translate(157.000000, 0.000000)">
							<path id="bg_4_" class="st6" d="M8,0h134c4.4,0,8,3.6,8,8v34c0,4.4-3.6,8-8,8H8c-4.4,0-8-3.6-8-8V8C0,3.6,3.6,0,8,0z"/>
							<g class="st2">
								<path class="st3" d="M62.8,26.8c-1.5-0.5-2.5-1.5-3.1-2.7c-0.6,1.4-1.7,2.5-3.3,3l-1-1.6c2.3-0.7,3.3-2.5,3.3-4.3V21h-2.7
									v-1.6h7.4V21h-2.7v0.2c0,1.6,0.9,3.3,3.1,4.1L62.8,26.8z M67.3,30.5V32h-9.4v-4.3h2v2.8H67.3z M65,22v-3.6h2v10.1h-2v-4.9
									h-2.2V22H65z"/>
								<path class="st3" d="M77,22.4c0,1.9-1.6,3.3-3.7,3.3c-2.1,0-3.8-1.4-3.8-3.3c0-2,1.6-3.3,3.8-3.3C75.3,19.1,77,20.5,77,22.4
									z M71.4,22.4c0,1,0.8,1.7,1.8,1.7c1,0,1.8-0.6,1.8-1.7c0-1-0.8-1.7-1.8-1.7C72.2,20.8,71.4,21.4,71.4,22.4z M80.7,26.9v5.2
									h-9.2v-5.2H80.7z M73.5,28.5v2.1h5.3v-2.1H73.5z M80.7,18.5v7.8h-2v-7.8H80.7z"/>
								<path class="st3" d="M90.2,26.1c-1.5-0.5-2.5-1.4-3-2.6c-0.6,1.4-1.7,2.4-3.2,3l-1-1.6c2.3-0.8,3.2-2.6,3.2-4.5v-1.2h2v1.4
									c0,1.7,0.9,3.3,3.1,4L90.2,26.1z M94.1,29.6c0,1.7-1.8,2.7-4.7,2.7c-2.9,0-4.7-1-4.7-2.7c0-1.7,1.8-2.7,4.7-2.7
									C92.3,27,94.1,28,94.1,29.6z M92.1,29.6c0-0.8-0.9-1.1-2.7-1.1c-1.8,0-2.7,0.4-2.7,1.1c0,0.8,0.9,1.1,2.7,1.1
									C91.2,30.8,92.1,30.4,92.1,29.6z M95.8,21.7v1.6h-1.8v3.3h-2v-8.2h2v3.2H95.8z"/>
							</g>
						</g>
						<g id="_x34_" transform="translate(477.000000, 0.000000)">
							<path id="bg_5_" class="st6" d="M8,0h134c4.4,0,8,3.6,8,8v34c0,4.4-3.6,8-8,8H8c-4.4,0-8-3.6-8-8V8C0,3.6,3.6,0,8,0z"/>
							<g class="st2">
								<path class="st3" d="M53.4,21.6c0,2.6,1.1,5.1,3.4,6.1l-1.1,1.6c-1.6-0.7-2.7-2.1-3.3-3.8c-0.6,1.8-1.7,3.3-3.4,4.1
									l-1.2-1.6c2.4-1,3.6-3.7,3.6-6.4v-2h2V21.6z M59.5,18.5v13.9h-2V18.5H59.5z"/>
								<path class="st3" d="M69.1,26.3c-1.5-0.5-2.6-1.4-3.2-2.5c-0.6,1.4-1.7,2.5-3.3,3l-1-1.5c2.2-0.8,3.2-2.5,3.3-4.2h-2.7v-1.6
									h7.5V21h-2.7c0,1.6,1,3.1,3.2,3.8L69.1,26.3z M72.9,29.6c0,1.7-1.8,2.7-4.7,2.7c-2.9,0-4.7-1-4.7-2.7c0-1.7,1.8-2.7,4.7-2.7
									C71.1,26.9,72.9,27.9,72.9,29.6z M70.9,29.6c0-0.8-0.9-1.2-2.7-1.2c-1.8,0-2.7,0.4-2.7,1.2c0,0.8,0.9,1.2,2.7,1.2
									C70,30.8,70.9,30.4,70.9,29.6z M74.5,21.7v1.6h-1.8v3.4h-2v-8.2h2v3.2H74.5z"/>
								<path class="st3" d="M82.9,25.8v0.8h3.7V30H79v0.7H87v1.4h-9.9v-3.5h7.6V28h-7.6v-1.4h3.8v-0.8h-5.2v-1.5h12.4v1.5H82.9z
									 M76.2,22.5c2.8-0.1,4.1-0.8,4.5-1.6h-3.8v-1.4h4v-1.1h2v1.1h4.1V21h-3.8c0.4,0.8,1.7,1.4,4.5,1.6L87,24
									c-2.6-0.1-4.3-0.8-5.2-1.8c-0.9,1-2.6,1.7-5.2,1.8L76.2,22.5z"/>
								<path class="st3" d="M94.8,21.6c0,2.6,1.1,5.1,3.4,6.1l-1.1,1.6c-1.6-0.7-2.7-2.1-3.3-3.8c-0.6,1.8-1.7,3.3-3.4,4.1
									l-1.2-1.6c2.4-1,3.6-3.7,3.6-6.4v-2h2V21.6z M100.9,18.5v13.9h-2V18.5H100.9z"/>
							</g>
						</g>
					</g>
					<g id="수평_divider" transform="translate(0.000000, 136.000000)">
						<line id="divider" class="st7" x1="0" y1="0.5" x2="907" y2="0.5"/>
					</g>
					<g id="bars" transform="translate(289.000000, 72.000000)">
						<g id="bar1">
							<path id="bar" class="st8" d="M21,0.5h257c11.3,0,20.5,9.2,20.5,20.5l0,0c0,11.3-9.2,20.5-20.5,20.5H21
								C9.7,41.5,0.5,32.3,0.5,21l0,0C0.5,9.7,9.7,0.5,21,0.5z"/>
							<g class="st2">
								<path class="st3" d="M113.2,22.3c-1.7,0-3-1.2-3-2.8c0-1.6,1.3-2.8,3-2.8c1.7,0,3,1.2,3,2.8
									C116.2,21.1,114.9,22.3,113.2,22.3z M113.2,20.9c0.8,0,1.5-0.5,1.5-1.4c0-0.9-0.6-1.4-1.5-1.4c-0.8,0-1.5,0.5-1.5,1.4
									C111.7,20.4,112.4,20.9,113.2,20.9z M119.5,25.6v1.3h-7.6v-3.7h1.6v2.4H119.5z M119.2,23.9h-1.6V16h1.6V23.9z"/>
								<path class="st3" d="M124.5,19.3c0,1.7,0.6,3.4,2.1,4.2l-0.9,1.2c-1-0.5-1.6-1.4-2-2.4c-0.4,1.2-1,2.1-2,2.7l-0.9-1.2
									c1.6-0.9,2.1-2.7,2.1-4.4v-0.2h-1.7v-1.3h1.7v-1.5h1.5v1.5h1.7v1.3h-1.7V19.3z M126.8,16.2h1.5v10.4h-1.5v-5.1h-1.3v-1.3
									h1.3V16.2z M130.5,16v11H129V16H130.5z"/>
								<path class="st3" d="M138,22.3c-1.2-0.4-2-1.2-2.5-2.2c-0.5,1.1-1.4,2-2.6,2.4l-0.8-1.2c1.8-0.6,2.6-2,2.6-3.4h-2.2v-1.3
									h5.9v1.3h-2.1c0,1.3,0.8,2.6,2.5,3.2L138,22.3z M133.8,23h7.5v4h-1.6v-2.7h-5.9V23z M141.3,16v6.6h-1.6v-2.7h-1.6v-1.3h1.6
									V16H141.3z"/>
								<path class="st3" d="M153.1,21.2v1.2h-10v-1.2h2.2v-1.3c-0.8-0.4-1.2-0.9-1.2-1.6c0-1.3,1.6-2.1,4-2.1c2.4,0,4,0.8,4,2.1
									c0,0.7-0.5,1.3-1.3,1.6v1.3H153.1z M151.9,25c0,1.3-1.5,2-3.8,2s-3.8-0.7-3.8-2s1.4-2,3.8-2S151.9,23.7,151.9,25z
									 M145.8,18.3c0,0.6,0.9,0.9,2.4,0.9c1.5,0,2.4-0.3,2.4-0.9c0-0.6-0.9-0.9-2.4-0.9C146.6,17.4,145.8,17.7,145.8,18.3z
									 M150.3,25c0-0.6-0.8-0.8-2.2-0.8s-2.2,0.2-2.2,0.8s0.8,0.8,2.2,0.8S150.3,25.6,150.3,25z M147,21.2h2.3v-0.9
									c-0.3,0-0.7,0.1-1.1,0.1c-0.4,0-0.8,0-1.2-0.1V21.2z"/>
								<path class="st3" d="M158.5,18.4c0,2.1,0.9,4.1,2.7,4.9l-0.9,1.3c-1.3-0.6-2.1-1.7-2.6-3c-0.5,1.5-1.4,2.7-2.7,3.3l-0.9-1.3
									c1.9-0.8,2.8-3,2.8-5.1v-1.6h1.6V18.4z M163.3,16v11.1h-1.6V16H163.3z"/>
								<path class="st3" d="M171.7,18.2h-6.5V17h2.4v-1.1h1.6V17h2.4V18.2z M168.5,22.5c-1.5,0-2.7-0.8-2.7-2s1.1-2,2.7-2
									s2.7,0.8,2.7,2S170,22.5,168.5,22.5z M167.1,23.1h7.4v3.8h-7.4V23.1z M168.5,21.4c0.7,0,1.1-0.3,1.1-0.8
									c0-0.5-0.5-0.8-1.1-0.8s-1.1,0.3-1.1,0.8C167.3,21.1,167.8,21.4,168.5,21.4z M168.7,25.7h4.2v-1.3h-4.2V25.7z M174.4,16v6.7
									h-1.6v-2.2h-1.4v-1.3h1.4V16H174.4z"/>
								<path class="st3" d="M184.8,22.3v0.8c1.9,0.2,3,0.8,3,2c0,1.3-1.5,2-3.8,2s-3.8-0.7-3.8-2c0-1.1,1.1-1.8,3.1-2v-0.8H179V21
									h10v1.3H184.8z M179.4,19.3c2.1-0.2,3.1-0.9,3.4-1.6h-2.9v-1.3h8.2v1.3h-2.9c0.3,0.7,1.4,1.5,3.4,1.6l-0.6,1.2
									c-2.1-0.2-3.4-1-4-2c-0.6,1-1.9,1.8-4,2L179.4,19.3z M183.9,24.2c-1.5,0-2.2,0.2-2.2,0.8c0,0.6,0.8,0.8,2.2,0.8
									c1.5,0,2.2-0.2,2.2-0.8C186.2,24.5,185.4,24.2,183.9,24.2z"/>
							</g>
						</g>
					</g>
					<g id="project">
						<g id="_x31__1_" transform="translate(32.000000, 75.000000)">
							<g class="st2">
								<path d="M1.7,13H5c2.5,0,4.2,0.8,4.2,3.3c0,2.4-1.8,3.5-4.2,3.5H3.4V24H1.7V13z M4.9,18.4c1.8,0,2.6-0.7,2.6-2.1
									s-0.9-1.9-2.7-1.9H3.4v4.1H4.9z"/>
								<path d="M10.8,18.5c0-3.6,2.2-5.8,5.1-5.8c1.6,0,2.6,0.7,3.3,1.4l-0.9,1.1c-0.5-0.6-1.2-1-2.3-1c-2.1,0-3.4,1.6-3.4,4.2
									c0,2.6,1.2,4.2,3.5,4.2c0.7,0,1.4-0.2,1.7-0.5v-2.6h-2.2v-1.4h3.8v4.8c-0.7,0.7-2,1.3-3.5,1.3
									C12.9,24.2,10.8,22.1,10.8,18.5z"/>
								<path d="M21.7,22.6h2.4v-7.7h-2v-1.1c1-0.2,1.8-0.5,2.4-0.8h1.3v9.6H28V24h-6.3V22.6z"/>
								<path d="M29.7,18.4c0-3.8,1.4-5.7,3.6-5.7c2.2,0,3.6,1.9,3.6,5.7c0,3.8-1.4,5.8-3.6,5.8C31.1,24.2,29.7,22.3,29.7,18.4z
									 M35.2,18.4c0-3.2-0.8-4.3-1.9-4.3s-1.9,1.2-1.9,4.3c0,3.2,0.8,4.4,1.9,4.4S35.2,21.6,35.2,18.4z"/>
								<path d="M38.2,23c3.3-2.9,4.9-5,4.9-6.8c0-1.2-0.6-2-1.9-2c-0.9,0-1.6,0.6-2.2,1.2l-1-1c0.9-1,1.9-1.7,3.4-1.7
									c2,0,3.3,1.3,3.3,3.3c0,2.1-1.7,4.3-4,6.6c0.6-0.1,1.3-0.1,1.8-0.1h2.8V24h-7.1V23z"/>
								<path d="M46.9,18.5c0-3.6,2.2-5.8,5-5.8c1.4,0,2.5,0.7,3.1,1.4l-0.9,1.1c-0.6-0.6-1.3-1-2.2-1c-1.9,0-3.2,1.6-3.2,4.2
									c0,2.6,1.2,4.2,3.2,4.2c1,0,1.8-0.4,2.4-1.2l0.9,1.1c-0.9,1-2,1.6-3.4,1.6C49.1,24.2,46.9,22.1,46.9,18.5z"/>
							</g>
							<g class="st2">
								<path d="M140.3,8.7c0,2.3-1.2,3.8-2.8,3.8s-2.8-1.5-2.8-3.8s1.2-3.8,2.8-3.8S140.3,6.4,140.3,8.7z M139.1,8.7
									c0-1.7-0.7-2.7-1.6-2.7c-0.9,0-1.6,1-1.6,2.7s0.6,2.7,1.6,2.7C138.5,11.4,139.1,10.4,139.1,8.7z M144.7,9.3H143v5.6h-1.2
									V4.1h1.2v4.2h1.7V9.3z"/>
								<path d="M155.5,12.6v1h-9.8v-1h4.3v-2h-3.1V4.9h7.4v1h-6.2v1.3h5.9v1h-5.9v1.4h6.2v1h-3.2v2H155.5z"/>
								<path d="M162,11.2c0.5,0,1.1-0.1,1.6-0.2l0.1,0.9c-2.3,0.4-4.9,0.4-6.8,0.4l-0.1-1c0.4,0,0.9,0,1.4,0V6.2H157v-1h6.1v1H162
									V11.2z M159.3,11.3c0.5,0,1,0,1.5-0.1v-5h-1.5V11.3z M165.7,4.1v10.8h-1.2V4.1H165.7z"/>
								<path d="M175.8,11.2c0.5,0,1.1-0.1,1.6-0.2l0.1,0.9c-2.3,0.4-4.9,0.4-6.8,0.4l-0.1-1c0.4,0,0.9,0,1.4,0V6.2h-1.1v-1h6.1v1
									h-1.1V11.2z M173,11.3c0.5,0,1,0,1.5-0.1v-5H173V11.3z M179.4,4.1v10.8h-1.2V4.1H179.4z"/>
								<path d="M191.3,11.4H187v3.5h-1.2v-3.5h-4.3v-1h9.8V11.4z M190.1,9.3h-7.4V4.5h1.2v1.4h5V4.5h1.2V9.3z M188.9,6.9h-5v1.4h5
									V6.9z"/>
								<path d="M201.5,4.1v6.2h-1.2V9h-2.6c-0.5,0.6-1.3,0.9-2.2,0.9c-1.6,0-2.8-1.1-2.8-2.6c0-1.5,1.2-2.6,2.8-2.6
									c0.9,0,1.7,0.3,2.2,0.9h2.6V4.1H201.5z M197.1,7.3c0-0.9-0.7-1.6-1.6-1.6c-0.9,0-1.6,0.6-1.6,1.6c0,0.9,0.7,1.6,1.6,1.6
									C196.5,8.8,197.1,8.2,197.1,7.3z M194.4,10.8h7.1v4h-7.1V10.8z M195.6,13.8h4.7v-2h-4.7V13.8z M200.3,8V6.6h-2.1
									c0.1,0.2,0.1,0.5,0.1,0.7c0,0.3,0,0.5-0.1,0.7H200.3z"/>
							</g>
							<text transform="matrix(1 0 0 1 202.9698 14)" class="st9 st10"> </text>
							<g class="st2">
								<path d="M151.3,22.9c0,2.9-1.9,5-5,6l-0.5-1c2.4-0.8,4-2.2,4.2-4h-3.6v-1H151.3z M154.9,31.7v1h-7.2v-3.5h1.2v2.4H154.9z
									 M153.4,25.3v-3.2h1.2v8h-1.2v-3.7h-2.1v-1H153.4z"/>
								<path d="M162.5,28c-1.2-0.4-2-1.2-2.5-2.3c-0.5,1.2-1.4,2.1-2.7,2.6l-0.6-1c1.7-0.6,2.7-2.1,2.7-3.6v-1.1h1.2v1
									c0,1.5,0.9,2.9,2.5,3.4L162.5,28z M165.7,30.8c0,1.3-1.4,2.1-3.7,2.1c-2.3,0-3.6-0.8-3.6-2.1s1.4-2.1,3.6-2.1
									C164.3,28.8,165.7,29.5,165.7,30.8z M164.5,30.8c0-0.7-0.9-1.1-2.4-1.1s-2.4,0.4-2.4,1.1s0.9,1.1,2.4,1.1
									S164.5,31.6,164.5,30.8z M164.5,25.3h-2.2v-1h2.2v-2.2h1.2v6.4h-1.2V25.3z"/>
								<path d="M175.8,29.2c0.5,0,1.1-0.1,1.6-0.2l0.1,0.9c-2.3,0.4-4.9,0.4-6.8,0.4l-0.1-1c0.4,0,0.9,0,1.4,0v-5.1h-1.1v-1h6.1v1
									h-1.1V29.2z M173,29.3c0.5,0,1,0,1.5-0.1v-5H173V29.3z M179.4,22.1v10.8h-1.2V22.1H179.4z"/>
								<path d="M191.3,29.4H187v3.5h-1.2v-3.5h-4.3v-1h9.8V29.4z M190.1,27.3h-7.4v-4.7h1.2v1.4h5v-1.4h1.2V27.3z M188.9,24.9h-5
									v1.4h5V24.9z"/>
							</g>
						</g>
						<g id="head1">
							<path id="bg_6_" class="st11" d="M8,0h104c4.4,0,8,3.6,8,8v34c0,4.4-3.6,8-8,8H8c-4.4,0-8-3.6-8-8V8C0,3.6,3.6,0,8,0z"/>
							<g class="st2">
								<path class="st3" d="M45.6,29.1v1.6H33v-1.6H45.6z M35.9,21.2H34v-1.6h10.5v1.6h-1.9v4.1h1.8V27H34.1v-1.6h1.8V21.2z
									 M40.7,21.2h-2.8v4.1h2.8V21.2z"/>
								<path class="st3" d="M59.4,29.2v1.6H46.8v-1.6h5.2v-2.1h-3.8v-4.7H56v-1.5h-7.7v-1.6h9.7V24h-7.7v1.5h8v1.6h-4.2v2.1H59.4z"
									/>
								<path class="st3" d="M66.5,26.5c-1.2-0.5-2-1.2-2.4-2.2c-0.5,1.1-1.3,2-2.6,2.5l-1-1.5c1.9-0.7,2.6-2.3,2.6-3.9V21h-2.2
									v-1.6H67V21h-2v0.4c0,1.5,0.7,2.9,2.4,3.6L66.5,26.5z M62.9,27.4h9.5v4.9h-2V29h-7.5V27.4z M67.8,21.9v-3.2h1.8v8.1h-1.8
									v-3.3h-1.5v-1.6H67.8z M72.4,18.5v8.4h-1.9v-8.4H72.4z"/>
								<path class="st3" d="M87,29.1v1.6H74.4v-1.6H87z M85.6,27.2h-9.7v-7.7h9.6v1.6h-7.6v1.5h7.3v1.5h-7.3v1.5h7.7V27.2z"/>
							</g>
						</g>
						<g id="head2" transform="translate(130.000000, 0.000000)">
							<path id="bg_7_" class="st11" d="M8,0h124c4.4,0,8,3.6,8,8v34c0,4.4-3.6,8-8,8H8c-4.4,0-8-3.6-8-8V8C0,3.6,3.6,0,8,0z"/>
							<g class="st2">
								<path class="st3" d="M45.9,27.5c1.3,0,2.5-0.1,3.8-0.3l0.1,1.6c-1.7,0.3-3.1,0.4-4.9,0.4h-1v-9.1H49v1.6h-3.2V27.5z
									 M55.4,18.5v13.8h-1.9v-6.9h-1.2v6.3h-1.8V18.7h1.8v5.1h1.2v-5.3H55.4z"/>
								<path class="st3" d="M64.5,26.1c-1.5-0.5-2.5-1.4-3-2.6c-0.6,1.4-1.7,2.4-3.2,3l-1-1.6c2.3-0.8,3.2-2.6,3.2-4.5v-1.2h2v1.4
									c0,1.7,0.9,3.3,3.1,4L64.5,26.1z M68.4,29.6c0,1.7-1.8,2.7-4.7,2.7c-2.9,0-4.7-1-4.7-2.7c0-1.7,1.8-2.7,4.7-2.7
									C66.6,27,68.4,28,68.4,29.6z M66.4,29.6c0-0.8-0.9-1.1-2.7-1.1c-1.8,0-2.7,0.4-2.7,1.1c0,0.8,0.9,1.1,2.7,1.1
									C65.5,30.8,66.4,30.4,66.4,29.6z M70,21.7v1.6h-1.8v3.3h-2v-8.2h2v3.2H70z"/>
								<path class="st3" d="M78.9,25.4c-1.6-0.4-2.7-1.3-3.3-2.5c-0.6,1.3-1.8,2.3-3.4,2.8l-0.9-1.5c2.1-0.6,3.1-2,3.3-3.5h-2.8
									v-1.6h7.5v1.6h-2.7c0.1,1.3,1.2,2.7,3.2,3.2L78.9,25.4z M83,30.7v1.5h-9.5v-3.8h7.2v-0.8h-7.2v-1.5h9.2v3.7h-7.2v0.9H83z
									 M82.6,25.6h-2v-7.1h2V25.6z"/>
								<path class="st3" d="M93.5,27.3c-2.9,0.5-6.1,0.6-8.5,0.6l-0.2-1.5c1,0,2.1,0,3.3,0v-0.8c-1.5-0.2-2.4-1-2.4-2.1
									c0-1.3,1.3-2.1,3.4-2.1c2,0,3.4,0.8,3.4,2.1c0,1.1-0.9,1.8-2.4,2.1v0.7c1.1-0.1,2.2-0.2,3.3-0.3L93.5,27.3z M93,21h-7.8
									v-1.4h2.9v-1.2h2v1.2H93V21z M88.7,30.5h7.7V32h-9.7v-3.5h2V30.5z M89.1,24.3c0.9,0,1.5-0.3,1.5-0.8c0-0.5-0.6-0.8-1.5-0.8
									c-0.9,0-1.5,0.3-1.5,0.8C87.6,24,88.1,24.3,89.1,24.3z M97.6,23v1.6h-1.7v4.6h-2V18.5h2V23H97.6z"/>
							</g>
						</g>
					</g>
				</g>
			</g>
		</g>
	</g>
</g>
</svg>
