<?xml version="1.0" encoding="utf-8"?>
<!-- Generator: Adobe Illustrator 24.0.0, SVG Export Plug-In . SVG Version: 6.00 Build 0)  -->
<svg version="1.1" id="Layer_1" xmlns="http://www.w3.org/2000/svg" xmlns:xlink="http://www.w3.org/1999/xlink" x="0px" y="0px"
	 viewBox="0 0 335 2780" style="enable-background:new 0 0 335 2780;" xml:space="preserve">
<style type="text/css">
	.st0{fill:none;stroke:#961C1D;stroke-width:2;}
	.st1{fill-rule:evenodd;clip-rule:evenodd;fill:#B54142;fill-opacity:0.8;stroke:#961C1D;stroke-width:2;}
	.st2{enable-background:new    ;}
	.st3{fill:#FFFFFF;}
	.st4{font-family:'NotoSansKR-Medium-KSCpc-EUC-H';}
	.st5{font-size:15px;}
	.st6{font-family:'NotoSansKR-Regular-KSCpc-EUC-H';}
	.st7{fill-rule:evenodd;clip-rule:evenodd;}
	.st8{fill-rule:evenodd;clip-rule:evenodd;fill:#B54142;fill-opacity:0.8;stroke:#B54142;stroke-width:1.5;}
	.st9{font-family:'MyriadPro-Regular';}
	.st10{font-size:8px;}
</style>
<title>table1</title>
<desc>Created with Sketch.</desc>
<g id="Page-1">
	<g id="mobile1_kr" transform="translate(-20.000000, -176.000000)">
		<g id="table1_6_" transform="translate(20.000000, 176.000000)">
			<g id="box1">
				<path id="bg" class="st0" d="M9,1h317c4.4,0,8,3.6,8,8v638c0,4.4-3.6,8-8,8H9c-4.4,0-8-3.6-8-8V9C1,4.6,4.6,1,9,1z"/>
				<path id="bg_1_" class="st1" d="M29,21h276c4.4,0,8,3.6,8,8v88c0,4.4-3.6,8-8,8H29c-4.4,0-8-3.6-8-8V29C21,24.6,24.6,21,29,21z"
					/>
				<g class="st2">
					<path class="st3" d="M93.8,62.5c-2.3,0.5-4.3,0.6-6.3,0.6h-1.1v-6.5h1.5v5.2c1.8,0,3.6-0.2,5.7-0.6L93.8,62.5z M89.3,67.6h7.5
						v1.3h-9v-4.5h1.6V67.6z M98.3,59.5v1.3h-1.9v4.5h-1.5v-9.7h1.5v3.9H98.3z"/>
					<path class="st3" d="M104.7,59.9c0,2.1,1.3,4.3,3.4,5.2l-0.8,1.2c-1.5-0.7-2.7-2.1-3.3-3.8c-0.6,1.8-1.8,3.3-3.4,4l-0.9-1.2
						c2.1-1,3.4-3.3,3.4-5.5v-0.8h-3v-1.2h3v-2h1.5v2h2.9v1.2h-2.9V59.9z M110.7,55.6v13.5h-1.6V55.6H110.7z"/>
					<path class="st3" d="M120.6,63c-1.5-0.5-2.5-1.5-3.1-2.9c-0.6,1.5-1.7,2.7-3.4,3.3l-0.8-1.2c2.2-0.7,3.4-2.6,3.4-4.5v-1.3h1.6
						v1.3c0,1.9,1.1,3.6,3.2,4.2L120.6,63z M124.6,66.6c0,1.6-1.7,2.6-4.6,2.6c-2.8,0-4.6-1-4.6-2.6c0-1.6,1.7-2.6,4.6-2.6
						C122.9,64,124.6,64.9,124.6,66.6z M123.1,66.6c0-0.9-1.1-1.4-3-1.4s-3,0.5-3,1.4c0,0.9,1.1,1.4,3,1.4S123.1,67.4,123.1,66.6z
						 M123,59.6h-2.7v-1.3h2.7v-2.7h1.5v8H123V59.6z"/>
					<path class="st3" d="M137.6,62.1h-6.4v-5.6h6.4V62.1z M138.1,65.4c0.1,1.1,1.9,2.3,4.4,2.6l-0.5,1.2c-2.1-0.3-3.8-1.1-4.6-2.3
						c-0.8,1.2-2.5,2-4.7,2.3l-0.5-1.2c2.5-0.3,4.3-1.4,4.4-2.6h-3.9v-1.2h3.9V63h1.6v1.2h3.9v1.2H138.1z M136.1,57.7h-3.4v3.2h3.4
						V57.7z M141.7,63.3h-1.6v-7.7h1.6V63.3z"/>
					<path class="st3" d="M154.5,63.2h-6.3v-6.4h6.3V63.2z M153,58h-3.3v3.9h3.3V58z M151.3,67.6h7.6v1.3h-9.1v-4.3h1.6V67.6z
						 M160.2,59.6v1.3h-1.9v4.6h-1.5v-9.9h1.5v4H160.2z"/>
					<path class="st3" d="M168.7,63c-1.5-0.5-2.5-1.5-3.1-2.9c-0.6,1.5-1.7,2.7-3.4,3.3l-0.8-1.2c2.2-0.7,3.4-2.6,3.4-4.5v-1.3h1.6
						v1.3c0,1.9,1.1,3.6,3.2,4.2L168.7,63z M172.8,66.6c0,1.6-1.7,2.6-4.6,2.6c-2.8,0-4.6-1-4.6-2.6c0-1.6,1.7-2.6,4.6-2.6
						C171.1,64,172.8,64.9,172.8,66.6z M171.2,66.6c0-0.9-1.1-1.4-3-1.4c-1.9,0-3,0.5-3,1.4c0,0.9,1.1,1.4,3,1.4
						C170.1,67.9,171.2,67.4,171.2,66.6z M171.2,59.6h-2.7v-1.3h2.7v-2.7h1.5v8h-1.5V59.6z"/>
					<path class="st3" d="M186.3,62.4c-1.6-0.5-2.8-1.5-3.4-2.7c-0.6,1.4-1.8,2.5-3.4,3l-0.7-1.2c2.1-0.6,3.3-2.2,3.4-3.9h-2.9v-1.2
						h7.4v1.2h-2.9c0,1.6,1.2,3.1,3.3,3.6L186.3,62.4z M190.3,67.8V69H181v-3.5h7.3v-1.1H181v-1.2h8.9v3.4h-7.3v1.2H190.3z
						 M189.8,62.6h-1.6v-7h1.6V62.6z"/>
					<path class="st3" d="M200.9,64.1c-2.8,0.5-6.1,0.6-8.4,0.6l-0.2-1.2c1,0,2.2,0,3.5,0v-0.9c-1.5-0.2-2.5-0.9-2.5-2
						c0-1.3,1.3-2.1,3.2-2.1c2,0,3.2,0.8,3.2,2.1c0,1.1-0.9,1.8-2.4,2v0.9c1.2-0.1,2.4-0.2,3.5-0.3L200.9,64.1z M200.5,58h-7.7v-1.1
						h3.1v-1.3h1.6v1.3h3.1V58z M195.9,67.6h7.7v1.3h-9.2v-3.4h1.5V67.6z M196.6,61.5c1.1,0,1.8-0.4,1.8-1c0-0.6-0.7-1-1.8-1
						s-1.8,0.4-1.8,1C194.8,61.2,195.5,61.5,196.6,61.5z M205,60.2v1.3h-1.9v4.7h-1.5V55.6h1.5v4.6H205z"/>
					<path class="st3" d="M214.8,59.9c0,2.1,1.3,4.3,3.4,5.2l-0.8,1.2c-1.5-0.7-2.7-2.1-3.3-3.8c-0.6,1.8-1.8,3.3-3.4,4l-0.9-1.2
						c2.1-1,3.4-3.3,3.4-5.5v-0.8h-3v-1.2h3v-2h1.5v2h2.9v1.2h-2.9V59.9z M220.8,55.6v13.5h-1.6V55.6H220.8z"/>
					<path class="st3" d="M235.7,66.3v1.3h-12.3v-1.3h3.3V64h-1.8v-4.3h7.8v-1.8h-7.8v-1.2h9.4v4.3h-7.8v1.9h8.1V64h-2v2.3H235.7z
						 M228.3,66.3h2.8V64h-2.8V66.3z"/>
					<path class="st3" d="M249.5,62.2v1.2h-12.3v-1.2h2.9v-1.8c-1-0.4-1.6-1.1-1.6-2c0-1.6,1.9-2.5,4.8-2.5c3,0,4.8,1,4.8,2.5
						c0,0.9-0.6,1.6-1.6,2v1.8H249.5z M248,66.7c0,1.6-1.7,2.4-4.7,2.4c-2.9,0-4.7-0.9-4.7-2.4c0-1.5,1.8-2.4,4.7-2.4
						C246.3,64.3,248,65.2,248,66.7z M240.1,58.4c0,0.9,1.2,1.4,3.2,1.4c2,0,3.2-0.5,3.2-1.4c0-0.9-1.2-1.4-3.2-1.4
						C241.4,57,240.1,57.5,240.1,58.4z M246.5,66.7c0-0.8-1.1-1.2-3.1-1.2c-2,0-3.1,0.4-3.1,1.2c0,0.8,1.1,1.2,3.1,1.2
						C245.3,68,246.5,67.5,246.5,66.7z M241.7,62.2h3.3v-1.4c-0.5,0.1-1,0.1-1.6,0.1s-1.2,0-1.7-0.1V62.2z"/>
				</g>
				<text transform="matrix(1 0 0 1 250.2992 68)" class="st3 st4 st5"> </text>
				<g class="st2">
					<path class="st3" d="M93.1,85.9c-1.5-0.5-2.7-1.5-3.3-2.7c-0.6,1.4-1.7,2.5-3.3,3L85.7,85c2.1-0.7,3.3-2.4,3.3-4.1v-0.3h-2.8
						v-1.2H89v-1.6h1.6v1.6h2.8v1.2h-2.9v0.3c0,1.7,1.2,3.2,3.3,3.9L93.1,85.9z M97.3,89.6v1.3h-9.1v-4.1h1.5v2.8H97.3z M95.4,81.7
						v-4H97v10.1h-1.5V83h-2.5v-1.3H95.4z"/>
					<path class="st3" d="M106,84.2c-0.6,0.7-1.6,1.2-2.7,1.2c-2,0-3.5-1.4-3.5-3.4c0-2,1.5-3.4,3.5-3.4c1.1,0,2.1,0.5,2.7,1.2h3.3
						v-2h1.5v10h-1.5v-3.4H106z M103.3,84c1.2,0,2-0.8,2-2.1c0-1.2-0.9-2.1-2-2.1c-1.2,0-2.1,0.8-2.1,2.1
						C101.2,83.1,102.1,84,103.3,84z M111.1,89.6v1.3H102v-4.3h1.5v3.1H111.1z M106.6,80.9c0.1,0.3,0.1,0.6,0.1,1c0,0.4,0,0.7-0.1,1
						h2.6v-2H106.6z"/>
					<path class="st3" d="M120.2,84.4v1.1h3.8v3.2h-7.7v1.1h8.1V91h-9.6v-3.4h7.7v-1h-7.8v-1.2h3.9v-1.1h-5.3v-1.2h12.3v1.2H120.2z
						 M124,82.2h-9.1V78h9.1V82.2z M122.5,79.2h-6.1V81h6.1V79.2z"/>
					<path class="st3" d="M142.8,86.5h-3.1v4.6h-1.6v-4.6h-3.1v4.6h-1.6v-4.6h-3v-1.3h12.3L142.8,86.5z M131.8,81.1c0-1.8,2-3,4.8-3
						c2.9,0,4.8,1.2,4.8,3c0,1.8-1.9,3-4.8,3C133.8,84.1,131.8,82.9,131.8,81.1z M133.4,81.1c0,1.1,1.3,1.8,3.2,1.8
						c1.9,0,3.2-0.7,3.2-1.8c0-1.1-1.3-1.7-3.2-1.7C134.7,79.4,133.4,80,133.4,81.1z"/>
					<path class="st3" d="M146.2,86.7c1.4,0,2.7-0.1,4.3-0.3l0.1,1.3c-1.8,0.3-3.3,0.4-5,0.4h-0.9v-5.3h3.6v-2.5h-3.6V79h5.1v5h-3.6
						V86.7z M155.9,77.6v13.5h-1.5v-7h-1.6v6.4h-1.5V77.9h1.5v5h1.6v-5.2H155.9z"/>
					<path class="st3" d="M168.9,85.4c-1.5-0.6-2.7-1.7-3.2-3.1c-0.6,1.5-1.7,2.7-3.3,3.3l-0.8-1.2c2.1-0.8,3.3-2.7,3.3-4.7v-1.3
						h1.6v1.3c0,1.9,1.2,3.7,3.3,4.5L168.9,85.4z M173.1,89.6v1.3h-9.2v-4.3h1.6v3H173.1z M172.7,87.5h-1.5v-9.9h1.5V87.5z"/>
					<path class="st3" d="M179.1,84.9c-2.1,0-3.6-1.3-3.6-3.3s1.5-3.3,3.6-3.3c2.1,0,3.6,1.3,3.6,3.3S181.1,84.9,179.1,84.9z
						 M177,86.2h8.9v4.9h-1.5v-3.7H177V86.2z M179.1,83.6c1.2,0,2.1-0.8,2.1-2c0-1.2-0.9-2-2.1-2c-1.2,0-2.1,0.8-2.1,2
						C177,82.8,177.9,83.6,179.1,83.6z M185.9,80.8v1.6h1.9v1.3h-1.9v1.9h-1.5v-8h1.5v1.9h1.9v1.3H185.9z"/>
					<path class="st3" d="M198.3,79.3c0,3.6-1.2,6.8-5,9l-0.9-1.1c2.9-1.7,4.2-3.9,4.4-6.6H193v-1.3H198.3z M204,77.6v13.5h-1.5v-7
						H201v6.4h-1.5V78h1.5v4.9h1.5v-5.3H204z"/>
					<path class="st3" d="M213.1,84.1h-6.4v-5.9h1.5V80h3.3v-1.8h1.5V84.1z M209.7,89.8h7.7V91h-9.2v-3.6h7.2v-1.1h-7.2v-1.2h8.7
						v3.5h-7.2V89.8z M211.6,81.2h-3.3v1.7h3.3V81.2z M218.8,80.4v1.3h-1.9v2.9h-1.5v-6.9h1.5v2.8H218.8z"/>
				</g>
				<g class="st2">
					<path d="M30.7,158.3h3.8v1h-3.8V158.3z"/>
					<path d="M41.4,159.6c2,0,4.1-0.2,6.3-0.6l0.1,1c-2.3,0.5-4.5,0.6-6.6,0.6h-1.1V152h1.2V159.6z M50.4,150.7v13.4h-1.2v-13.4
						H50.4z"/>
					<path d="M58.1,155c0,2.2,1.5,4.4,3.5,5.3l-0.7,1c-1.5-0.7-2.8-2.2-3.4-3.9c-0.6,1.9-1.9,3.4-3.4,4.2l-0.7-0.9
						c2-0.9,3.5-3.2,3.5-5.6v-1h-3.1v-1h3.1v-2.1h1.2v2.1h3.1v1h-3.1V155z M64.2,150.6v13.5h-1.2v-13.5H64.2z"/>
					<path d="M67.5,152h6.2v8.7h-6.2V152z M68.7,159.7h3.8V153h-3.8V159.7z M79.5,157.1h-2.2v7h-1.2v-13.4h1.2v5.4h2.2V157.1z"/>
					<path d="M85.9,155.6c-0.8,1.6-2.2,2.8-4.4,3.8l-0.6-0.9c1.9-0.8,3.2-1.9,3.9-3.2l-3.7,0.4l-0.2-1l4.3-0.3
						c0.1-0.5,0.3-1,0.3-1.5h-4v-1h5.2c0,1-0.1,1.9-0.4,2.8h2v-3.7h1.2v7.7h-1.2v-3H85.9z M88.3,159.4c0,1.8,2.2,3.3,4.6,3.7l-0.5,1
						c-2-0.4-3.9-1.4-4.7-2.9c-0.8,1.5-2.7,2.6-4.7,2.9l-0.5-1c2.4-0.4,4.6-1.9,4.6-3.7V159h1.2V159.4z M92.2,159.8H91v-9.1h1.2
						V159.8z"/>
					<path d="M102.7,154.8c0,2.3,1.6,4.6,3.6,5.4l-0.7,1c-1.6-0.7-2.9-2.3-3.5-4.1c-0.6,2-1.9,3.7-3.5,4.4l-0.7-1
						c1.9-0.9,3.6-3.5,3.6-5.8v-1.7h-3.1v-1h7.5v1h-3.2V154.8z M108.9,150.7v13.4h-1.2v-13.4H108.9z"/>
					<path d="M119.7,153.2h-7.9v-1h3.3v-1.6h1.2v1.6h3.4V153.2z M115.7,158.6c-1.9,0-3.2-0.9-3.2-2.4c0-1.4,1.3-2.4,3.2-2.4
						s3.2,0.9,3.2,2.4C118.9,157.7,117.6,158.6,115.7,158.6z M122.3,161.8c0,1.5-1.7,2.3-4.4,2.3c-2.7,0-4.4-0.9-4.4-2.3
						c0-1.5,1.7-2.3,4.4-2.3C120.6,159.4,122.3,160.3,122.3,161.8z M115.7,157.7c1.2,0,2.1-0.6,2.1-1.5s-0.8-1.4-2.1-1.4
						s-2,0.6-2,1.4S114.5,157.7,115.7,157.7z M121.1,161.8c0-0.9-1.2-1.4-3.2-1.4c-2,0-3.2,0.5-3.2,1.4c0,0.9,1.2,1.4,3.2,1.4
						C119.9,163.2,121.1,162.6,121.1,161.8z M122.2,154v1.9h2v1h-2v2.4h-1.2v-8.7h1.2v2.3h2v1H122.2z"/>
					<path d="M125.5,165c0.9-0.4,1.5-1.1,1.5-2c-0.1,0-0.1,0-0.2,0c-0.5,0-1-0.3-1-1c0-0.6,0.5-1,1-1c0.7,0,1.2,0.6,1.2,1.6
						c0,1.4-0.8,2.6-2.2,3.1L125.5,165z"/>
					<path d="M145.2,159.4h-5.5v4.7h-1.2v-4.7H133v-1h12.2V159.4z M134.4,154.1c0-1.8,1.9-2.9,4.7-2.9c2.8,0,4.7,1.1,4.7,2.9
						c0,1.8-1.9,3-4.7,3C136.3,157.1,134.4,156,134.4,154.1z M135.7,154.1c0,1.2,1.4,2,3.4,2c2.1,0,3.5-0.8,3.5-2c0-1.2-1.4-2-3.5-2
						C137.1,152.2,135.7,153,135.7,154.1z"/>
					<path d="M148.9,159.9c2.2,0,4.2-0.1,6.5-0.5l0.1,1c-2.4,0.4-4.5,0.5-6.8,0.5h-1.1v-5.2h5v-2.8h-5v-1h6.2v4.8h-5V159.9z
						 M157.9,150.6v13.5h-1.2v-13.5H157.9z"/>
					<path d="M162.4,159.7c1.9,0,3.9-0.2,6.1-0.6l0.1,1c-2.3,0.5-4.4,0.6-6.4,0.6h-1.1V152h1.2V159.7z M173.2,157H171v7.1h-1.2
						v-13.5h1.2v5.4h2.2V157z"/>
					<path d="M176.2,159.9c2.4,0,4.2-0.1,6.2-0.5l0.1,1c-2.1,0.4-3.9,0.5-6.5,0.5H175v-5.1h4.8v-2.8H175v-1h6.1v4.8h-4.8V159.9z
						 M187,157h-2.2v7.1h-1.2v-13.5h1.2v5.4h2.2V157z"/>
					<path d="M188.3,160.2c2.4,0,5.8,0,8.8-0.5l0.1,0.9c-3,0.6-6.3,0.6-8.7,0.6L188.3,160.2z M196.2,154.8c0,1.9-1.5,3.2-3.6,3.2
						c-2.1,0-3.6-1.3-3.6-3.2c0-1.9,1.5-3.2,3.6-3.2C194.7,151.6,196.2,152.9,196.2,154.8z M190.2,154.8c0,1.2,1,2.1,2.4,2.1
						s2.4-0.9,2.4-2.1c0-1.3-1-2.1-2.4-2.1S190.2,153.6,190.2,154.8z M199.2,150.7v13.5H198v-13.5H199.2z"/>
					<path d="M209.2,157.8c-1.3,0.1-2.6,0.1-3.7,0.1l-0.2-1c2.5,0,5.8,0,8.7-0.4l0.1,0.9c-1.2,0.2-2.4,0.3-3.6,0.4v2.7h-1.2V157.8z
						 M206.4,153.5c0-1.4,1.3-2.3,3.3-2.3c2,0,3.3,0.9,3.3,2.3c0,1.4-1.3,2.4-3.3,2.4C207.7,155.9,206.4,155,206.4,153.5z
						 M216.8,162.8v1h-9.5v-3.9h1.2v2.9H216.8z M207.6,153.5c0,0.9,0.9,1.4,2.1,1.4s2.1-0.6,2.1-1.4c0-0.9-0.9-1.4-2.1-1.4
						S207.6,152.7,207.6,153.5z M215.2,158.6v-8h1.2v10.2h-1.2v-1.4h-2.7v-0.9H215.2z"/>
					<path d="M226.6,158.8c-1.5-0.5-2.7-1.6-3.4-2.9c-0.6,1.5-1.8,2.6-3.3,3.2l-0.6-1c2-0.7,3.3-2.4,3.3-4.2v-0.4h-3v-1h3v-1.7h1.2
						v1.7h3v1h-3v0.4c0,1.8,1.4,3.3,3.4,4L226.6,158.8z M230.7,162.8v1h-9v-4h1.2v3H230.7z M229,154.8v-4.1h1.2v10H229v-4.9h-2.7v-1
						H229z"/>
					<path d="M240.1,152.1c0,3.9-1.8,7.3-6.3,9.5l-0.7-1c3.6-1.7,5.4-4.3,5.7-7.5h-5.1v-1H240.1z M244,150.7v13.5h-1.2v-13.5H244z"
						/>
					<path d="M253.5,157.3v1.3h3.9v3.1h-7.9v1.3h8.3v1h-9.5v-3.2h7.9v-1.2h-7.9v-0.9h4v-1.3h-5.5v-1H259v1H253.5z M257.9,155.4
						c-2.1-0.3-4.2-1.2-5-2.7c-0.8,1.4-2.9,2.4-5,2.7l-0.4-0.9c2.4-0.3,4.8-1.6,4.8-3.2v-0.5h1.3v0.5c0,1.6,2.3,3,4.8,3.2
						L257.9,155.4z"/>
					<path d="M272.8,161.4v1h-12.2v-1h5.5v-2.5h-3.9v-4.2h8v-2.1h-8v-1h9.2v4.1h-8v2.2h8.3v1h-4.3v2.5H272.8z"/>
				</g>
				<text transform="matrix(1 0 0 1 273.6143 163)" class="st6 st5"> </text>
				<g class="st2">
					<path d="M35.5,189.2c0,2.4,1.5,4.9,3.5,5.8l-0.7,1c-1.5-0.8-2.8-2.4-3.4-4.3c-0.6,2-1.8,3.7-3.3,4.5l-0.8-1
						c2-1,3.5-3.6,3.5-6.1v-2.4h1.2V189.2z M41.9,185.7v13.5h-1.2v-7.9h-3.1v-1h3.1v-4.6H41.9z"/>
					<path d="M60.2,190.7v1H48v-1h9.1c0.3-1.5,0.3-2.6,0.3-3.4h-7.9v-1h9.1v0.9c0,0.9,0,2.1-0.3,3.6H60.2z M50.7,198H59v1h-9.5v-3.5
						h8V194h-8v-1h9.2v3.4h-8V198z"/>
					<path d="M74,196.4v1H61.7v-1h5.5v-2.5h-3.9v-4.2h8v-2.1h-8v-1h9.2v4.1h-8v2.2h8.3v1h-4.3v2.5H74z"/>
					<path d="M82.3,192.1h-6.1v-5.8h1.2v1.9h3.6v-1.9h1.2v2.4h3.1v-3h1.2v7h-1.2v-3h-3.1V192.1z M81.1,189.2h-3.6v2h3.6V189.2z
						 M87.1,198v1H78v-3.3h7.4v-1.3H78v-1h8.7v3.2h-7.4v1.4H87.1z"/>
					<path d="M99.2,189.1c-0.9,2.2-2.9,3.7-5.8,4.6l-0.5-1c3.2-1,5.2-2.7,5.4-5.1h-4.7v-1h6.1c0,0.5-0.1,1-0.1,1.5h3v-2.5h1.2v8
						h-1.2v-1.8H99v-1h3.5v-1.8H99.2z M103.9,196.5c0,1.6-1.7,2.6-4.5,2.6s-4.5-1-4.5-2.6s1.7-2.6,4.5-2.6S103.9,194.8,103.9,196.5z
						 M102.6,196.5c0-1-1.3-1.6-3.2-1.6s-3.2,0.6-3.2,1.6c0,1,1.3,1.6,3.2,1.6S102.6,197.5,102.6,196.5z"/>
					<path d="M112.5,193.1c-1.2-0.5-2.1-1.4-2.5-2.6c-0.5,1.3-1.4,2.4-2.7,3l-0.7-0.9c1.8-0.8,2.7-2.4,2.7-4.1v-0.6h-2.5v-1h6v1
						h-2.4v0.6c0,1.7,0.9,3.1,2.6,3.8L112.5,193.1z M117.9,196.7c0,1.5-1.7,2.4-4.5,2.4c-2.8,0-4.5-0.9-4.5-2.4s1.7-2.4,4.5-2.4
						C116.2,194.2,117.9,195.1,117.9,196.7z M116.7,196.7c0-0.9-1.2-1.5-3.3-1.5c-2,0-3.3,0.5-3.3,1.5c0,0.9,1.3,1.5,3.3,1.5
						C115.5,198.1,116.7,197.6,116.7,196.7z M115,193.5h-1.2v-7.5h1.2v3.3h1.7v-3.6h1.2v8.2h-1.2v-3.7H115V193.5z"/>
					<path d="M127.5,193c-1.7,0.3-3,0.3-5.7,0.3h-1v-4h4.6v-1.9h-4.6v-1h5.8v3.8h-4.6v2c2.5,0,3.8-0.1,5.3-0.3L127.5,193z
						 M122.4,194.7h9v4.5h-1.2v-3.5h-7.8V194.7z M131.4,185.7v8.3h-1.2v-2.5h-2.6v-1h2.6v-1.8h-2.6v-1h2.6v-2H131.4z"/>
					<path d="M146,193.8c-2.9,0.5-6.1,0.5-8.4,0.5l-0.1-1c1.1,0,2.3,0,3.6,0v-1c-1.6-0.2-2.5-0.9-2.5-2c0-1.2,1.2-2,3.1-2
						c1.9,0,3.1,0.8,3.1,2c0,1.1-1,1.8-2.5,2v0.9c1.2-0.1,2.5-0.1,3.6-0.3L146,193.8z M145.5,187.8h-7.7v-0.9h3.3v-1.3h1.2v1.3h3.2
						V187.8z M139,195.4h8.8v3.8h-1.2v-2.8H139V195.4z M141.6,191.5c1.2,0,2-0.4,2-1.2s-0.8-1.1-2-1.1c-1.2,0-2,0.4-2,1.1
						S140.4,191.5,141.6,191.5z M149.9,190.8h-2v3.9h-1.2v-9h1.2v4.1h2V190.8z"/>
					<path d="M163.5,196.4v1h-12.2v-1h5.5v-2.9h-4v-6.9h1.2v2.4h6.9v-2.4h1.2v6.9h-4v2.9H163.5z M153.9,192.5h6.9V190h-6.9V192.5z"
						/>
					<path d="M175.3,187.1c0,3.8-1.8,7.3-6.1,9.5l-0.7-1c3.4-1.7,5.3-4.3,5.6-7.5h-4.9v-1H175.3z M180.9,192.1h-2.2v7h-1.2v-13.5
						h1.2v5.5h2.2V192.1z"/>
					<path d="M194.4,192v1h-12.2v-1H194.4z M192.9,196.6c0,1.6-1.7,2.4-4.6,2.4c-2.9,0-4.6-0.9-4.6-2.4c0-1.6,1.7-2.5,4.6-2.5
						C191.2,194.2,192.9,195,192.9,196.6z M193,190.4h-9.1v-4.5h1.2v3.5h7.9V190.4z M191.7,196.6c0-1-1.2-1.5-3.4-1.5
						c-2.1,0-3.4,0.5-3.4,1.5c0,0.9,1.2,1.5,3.4,1.5C190.4,198.1,191.7,197.5,191.7,196.6z"/>
					<path d="M204,188.3h-7.9v-1h3.3v-1.6h1.2v1.6h3.4V188.3z M200,194c-1.9,0-3.2-1-3.2-2.5c0-1.5,1.3-2.5,3.2-2.5
						c1.9,0,3.2,1,3.2,2.5C203.3,193,201.9,194,200,194z M200,193.1c1.2,0,2.1-0.6,2.1-1.5c0-0.9-0.8-1.5-2.1-1.5
						c-1.2,0-2,0.6-2,1.5C198,192.5,198.8,193.1,200,193.1z M199.3,197.8h7.7v1h-9V195h1.2V197.8z M208.5,190.1v1h-2v4.6h-1.2v-10.1
						h1.2v4.4H208.5z"/>
					<path d="M220,188.2h-6.8v-1h2.8v-1.5h1.2v1.5h2.8V188.2z M216.6,193.6c-1.7,0-2.9-0.9-2.9-2.4c0-1.4,1.2-2.4,2.9-2.4
						c1.7,0,2.9,0.9,2.9,2.4C219.4,192.7,218.2,193.6,216.6,193.6z M216.6,192.7c1,0,1.8-0.6,1.8-1.5c0-0.9-0.7-1.4-1.8-1.4
						c-1.1,0-1.8,0.6-1.8,1.4C214.8,192.1,215.5,192.7,216.6,192.7z M215.5,194.8h9v4.3h-1.2v-3.3h-7.8V194.8z M224.5,185.7v8.4
						h-1.2v-3.6h-1.7v3.5h-1.2v-8h1.2v3.5h1.7v-3.8H224.5z"/>
					<path d="M234.5,192.7c-1.5-0.5-2.8-1.7-3.4-3.1c-0.6,1.6-1.8,2.8-3.4,3.4l-0.6-1c2-0.7,3.4-2.5,3.4-4.5v-1.3h1.2v1.3
						c0,1.9,1.4,3.6,3.4,4.2L234.5,192.7z M229.3,194.1h8.7v4.8h-8.7V194.1z M230.5,197.9h6.3v-2.9h-6.3V197.9z M238,185.7v7.6h-1.2
						v-7.6H238z"/>
					<path d="M247.9,187.1c0,3.9-1.8,7.3-6.3,9.5l-0.7-1c3.6-1.7,5.4-4.3,5.7-7.5h-5.1v-1H247.9z M251.8,185.7v13.5h-1.2v-13.5
						H251.8z"/>
					<path d="M261.3,192.3v1.3h3.9v3.1h-7.9v1.3h8.3v1h-9.5v-3.2h7.9v-1.2H256v-0.9h4v-1.3h-5.5v-1h12.2v1H261.3z M265.7,190.4
						c-2.1-0.3-4.2-1.2-5-2.7c-0.8,1.4-2.9,2.4-5,2.7l-0.4-0.9c2.4-0.3,4.8-1.6,4.8-3.2v-0.5h1.3v0.5c0,1.6,2.3,3,4.8,3.2
						L265.7,190.4z"/>
					<path d="M283.9,193.3h-5.5v5.8h-1.2v-5.8h-5.4v-1h8.9c0.4-1.9,0.4-3.4,0.4-4.6v-0.2h-7.8v-1h9v1.2c0,1.3,0,2.7-0.4,4.6h2V193.3
						z"/>
					<path d="M292.3,193.4v1.5h4v4.1H295v-3.1h-8.1v-1h4.1v-1.5h-5.5v-1h12.2v1H292.3z M286.3,190.7c2.5-0.3,4.6-1.3,4.7-2.8h-4.2
						v-1h4.2v-1.4h1.2v1.4h4.2v1h-4.2c0.1,1.5,2.1,2.5,4.7,2.8l-0.4,0.9c-2.2-0.2-4.2-1-5-2.4c-0.8,1.4-2.8,2.2-5,2.4L286.3,190.7z"
						/>
				</g>
				<text transform="matrix(1 0 0 1 298.5594 198)" class="st6 st5"> </text>
				<g class="st2">
					<path d="M30.7,263.3h3.8v1h-3.8V263.3z"/>
					<path d="M41.3,256.5v2.1h3.9v-2.1h1.2v6.4h-6.3v-6.4H41.3z M41.3,261.9h3.9v-2.3h-3.9V261.9z M50.4,264.5v4.6h-1.2v-3.6h-7.8
						v-1H50.4z M50.4,255.7v8.1h-1.2v-8.1H50.4z"/>
					<path d="M54.9,264.9c1.9,0,3.1-0.1,4.5-0.4l0.1,1c-1.5,0.3-2.8,0.4-5,0.4h-0.9v-8.6h5.1v1h-3.8V264.9z M60.7,256h1.2v12.4h-1.2
						v-6.6h-2.9v-1h2.9V256z M64.6,255.7v13.5h-1.2v-13.5H64.6z"/>
					<path d="M74.3,261.4c0,2.9-1.4,4.7-3.4,4.7c-2,0-3.4-1.8-3.4-4.7c0-2.9,1.4-4.7,3.4-4.7C72.9,256.7,74.3,258.5,74.3,261.4z
						 M68.6,261.4c0,2.2,0.9,3.6,2.2,3.6c1.3,0,2.2-1.4,2.2-3.6c0-2.2-0.9-3.6-2.2-3.6C69.6,257.8,68.6,259.2,68.6,261.4z M78,255.7
						v13.5h-1.2v-13.5H78z"/>
					<path d="M82.6,264.9c2.4,0,4-0.1,5.8-0.4l0.1,1c-2,0.3-3.6,0.4-6.1,0.4h-1v-9h6.2v1h-5v2.8H87v1h-4.4V264.9z M91.8,255.6v13.5
						h-1.2v-7.4h-2.8v-1h2.8v-5.1H91.8z"/>
					<path d="M106.8,261.9v0.9H94.6v-0.9H106.8z M97.3,268h8.4v0.9H96v-3h8v-1.1h-8v-0.9h9.2v2.9h-8V268z M104,256.9h-7.9V256h9.1
						v2.8h-7.9v1.2h8.1v0.9h-9.3V258h7.9V256.9z"/>
					<path d="M120.2,262.8c-2.9,0.5-6,0.5-8.4,0.5l-0.1-0.9c1.1,0,2.3,0,3.6,0v-0.8c-1.6-0.1-2.5-0.8-2.5-1.8c0-1.1,1.2-1.8,3.1-1.8
						c1.9,0,3.1,0.7,3.1,1.8c0,1-1,1.6-2.5,1.8v0.8c1.2-0.1,2.5-0.2,3.6-0.3L120.2,262.8z M119.7,257.6H112v-0.9h3.3v-1.2h1.2v1.2
						h3.2V257.6z M114.7,268.1h8v0.9h-9.2v-2.8h7.5v-1h-7.5v-0.9h8.7v2.7h-7.5V268.1z M115.9,260.7c1.2,0,2-0.4,2-1c0-0.6-0.8-1-2-1
						c-1.2,0-2,0.4-2,1C113.9,260.4,114.6,260.7,115.9,260.7z M124.1,259.1v1h-2v3.5h-1.2v-8h1.2v3.4H124.1z"/>
					<path d="M137.7,262.3v1h-12.2v-1h3v-1.9c-1.1-0.4-1.6-1.1-1.6-2c0-1.6,1.8-2.5,4.7-2.5c2.9,0,4.7,0.9,4.7,2.5
						c0,0.9-0.6,1.6-1.6,2v1.9H137.7z M136.2,266.7c0,1.5-1.7,2.4-4.6,2.4c-2.9,0-4.6-0.8-4.6-2.4s1.7-2.4,4.6-2.4
						C134.5,264.3,136.2,265.2,136.2,266.7z M131.6,259.9c2.1,0,3.5-0.6,3.5-1.5c0-1-1.3-1.5-3.5-1.5s-3.5,0.6-3.5,1.5
						C128.1,259.4,129.4,259.9,131.6,259.9z M135,266.7c0-0.9-1.3-1.4-3.4-1.4c-2.1,0-3.4,0.5-3.4,1.4s1.2,1.4,3.4,1.4
						C133.7,268.2,135,267.6,135,266.7z M129.7,262.3h3.7v-1.6c-0.6,0.1-1.2,0.2-1.9,0.2c-0.7,0-1.3-0.1-1.9-0.2V262.3z"/>
					<path d="M143.9,257.8h3.3v1h-7.9v-1h3.4v-2h1.2V257.8z M146.5,263c0,1.8-1.4,3.1-3.3,3.1c-1.9,0-3.3-1.3-3.3-3.1
						c0-1.8,1.4-3.1,3.3-3.1C145.2,259.9,146.5,261.2,146.5,263z M145.4,263c0-1.2-0.9-2.1-2.1-2.1c-1.2,0-2.1,0.9-2.1,2.1
						c0,1.2,0.9,2.1,2.1,2.1C144.5,265.1,145.4,264.2,145.4,263z M151.9,262.2h-2.2v6.9h-1.2v-13.4h1.2v5.5h2.2V262.2z"/>
					<path d="M164.2,255.7v13.5H163v-5.2h-3.4c-0.6,1.4-1.6,2.2-2.9,2.2c-2,0-3.4-1.8-3.4-4.7c0-2.9,1.4-4.7,3.4-4.7
						c1.2,0,2.2,0.7,2.8,2h3.4v-3H164.2z M158.9,261.4c0-2.2-0.9-3.6-2.2-3.6c-1.3,0-2.2,1.4-2.2,3.6c0,2.2,0.9,3.6,2.2,3.6
						C158,265,158.9,263.6,158.9,261.4z M163,262.9v-3.2h-3.1c0.1,0.5,0.2,1.1,0.2,1.7c0,0.6-0.1,1.1-0.1,1.5H163z"/>
					<path d="M171,257h1.7l2.1,5.9c0.3,0.8,0.5,1.5,0.8,2.3h0.1c0.3-0.8,0.5-1.5,0.8-2.3l2.1-5.9h1.7v11h-1.3v-6.1
						c0-0.9,0.1-2.3,0.2-3.2H179l-0.9,2.5l-2.1,5.7h-0.9l-2.1-5.7l-0.9-2.5h-0.1c0.1,1,0.2,2.3,0.2,3.2v6.1H171V257z"/>
					<path d="M182.9,265v-5.2h1.4v5c0,1.5,0.4,2.2,1.5,2.2c0.8,0,1.4-0.4,2.2-1.4v-5.8h1.4v8.1h-1.1l-0.1-1.3h0
						c-0.8,0.9-1.6,1.5-2.7,1.5C183.7,268.2,182.9,267.1,182.9,265z"/>
					<path d="M192.1,266.4v-10.3h1.4v10.4c0,0.4,0.2,0.6,0.4,0.6c0.1,0,0.1,0,0.3,0l0.2,1c-0.2,0.1-0.4,0.1-0.8,0.1
						C192.6,268.2,192.1,267.5,192.1,266.4z"/>
					<path d="M196.7,265.5V261h-1.2v-1l1.3-0.1l0.2-2.3h1.1v2.3h2.2v1.1H198v4.5c0,1,0.3,1.6,1.3,1.6c0.3,0,0.7-0.1,0.9-0.2l0.3,1
						c-0.5,0.2-1,0.3-1.5,0.3C197.2,268.2,196.7,267.1,196.7,265.5z"/>
					<path d="M201.8,257.3c0-0.6,0.4-0.9,0.9-0.9c0.5,0,0.9,0.3,0.9,0.9c0,0.5-0.4,0.9-0.9,0.9C202.2,258.2,201.8,257.8,201.8,257.3
						z M202.1,259.9h1.4v8.1h-1.4V259.9z"/>
					<path d="M205.5,263.3h3.8v1h-3.8V263.3z"/>
				</g>
				<text transform="matrix(1 0 0 1 210.0288 268)" class="st6 st5"> </text>
				<g class="st2">
					<path d="M30.9,297.5c0-3.6,2.1-5.7,4.9-5.7c1.3,0,2.4,0.7,3,1.4l-0.8,0.9c-0.6-0.6-1.3-1-2.2-1c-2.1,0-3.5,1.7-3.5,4.5
						c0,2.8,1.3,4.5,3.4,4.5c1,0,1.8-0.5,2.5-1.2l0.8,0.9c-0.9,1-2,1.6-3.4,1.6C32.9,303.2,30.9,301.1,30.9,297.5z"/>
					<path d="M40.3,298.9c0-2.7,1.8-4.3,3.8-4.3c2,0,3.8,1.6,3.8,4.3c0,2.7-1.8,4.3-3.8,4.3C42.1,303.2,40.3,301.6,40.3,298.9z
						 M46.5,298.9c0-1.9-1-3.2-2.4-3.2c-1.4,0-2.4,1.3-2.4,3.2s0.9,3.1,2.4,3.1C45.5,302.1,46.5,300.8,46.5,298.9z"/>
					<path d="M50,294.9h1.1l0.1,1.2h0c0.7-0.8,1.6-1.4,2.5-1.4c1.2,0,1.9,0.6,2.2,1.6c0.8-0.9,1.7-1.6,2.7-1.6
						c1.7,0,2.5,1.1,2.5,3.2v5.2h-1.4v-5c0-1.5-0.5-2.2-1.5-2.2c-0.6,0-1.3,0.4-2.1,1.2v5.9H55v-5c0-1.5-0.5-2.2-1.5-2.2
						c-0.6,0-1.3,0.4-2.1,1.2v5.9H50V294.9z"/>
					<path d="M63.9,294.9h1.1l0.1,0.9h0c0.7-0.6,1.6-1.1,2.6-1.1c2.1,0,3.2,1.6,3.2,4.2c0,2.8-1.7,4.4-3.5,4.4
						c-0.7,0-1.5-0.3-2.2-0.9l0,1.4v2.8h-1.4V294.9z M69.6,298.8c0-1.8-0.6-3-2.1-3c-0.7,0-1.4,0.4-2.2,1.1v4.3
						c0.7,0.6,1.5,0.9,2,0.9C68.6,302.1,69.6,300.8,69.6,298.8z"/>
					<path d="M72.6,298.9c0-2.7,1.8-4.3,3.8-4.3c2,0,3.8,1.6,3.8,4.3c0,2.7-1.8,4.3-3.8,4.3C74.4,303.2,72.6,301.6,72.6,298.9z
						 M78.8,298.9c0-1.9-1-3.2-2.4-3.2c-1.4,0-2.4,1.3-2.4,3.2s0.9,3.1,2.4,3.1C77.8,302.1,78.8,300.8,78.8,298.9z"/>
					<path d="M82.3,294.9h1.1l0.1,1.2h0c0.8-0.8,1.6-1.4,2.7-1.4c1.7,0,2.5,1.1,2.5,3.2v5.2h-1.4v-5c0-1.5-0.5-2.2-1.5-2.2
						c-0.8,0-1.4,0.4-2.2,1.2v5.9h-1.4V294.9z"/>
					<path d="M90.9,298.9c0-2.6,1.8-4.3,3.7-4.3c2.1,0,3.2,1.5,3.2,3.8c0,0.3,0,0.6-0.1,0.8h-5.5c0.1,1.7,1.2,2.8,2.7,2.8
						c0.8,0,1.4-0.2,2-0.6l0.5,0.9c-0.7,0.5-1.6,0.8-2.7,0.8C92.6,303.2,90.9,301.6,90.9,298.9z M96.6,298.3c0-1.7-0.8-2.5-2-2.5
						c-1.2,0-2.2,0.9-2.3,2.5H96.6z"/>
					<path d="M99.8,294.9h1.1l0.1,1.2h0c0.8-0.8,1.6-1.4,2.7-1.4c1.7,0,2.5,1.1,2.5,3.2v5.2h-1.4v-5c0-1.5-0.5-2.2-1.5-2.2
						c-0.8,0-1.4,0.4-2.2,1.2v5.9h-1.4V294.9z"/>
					<path d="M109.2,300.5V296H108v-1l1.3-0.1l0.2-2.3h1.1v2.3h2.2v1.1h-2.2v4.5c0,1,0.3,1.6,1.3,1.6c0.3,0,0.7-0.1,0.9-0.2l0.3,1
						c-0.5,0.2-1,0.3-1.5,0.3C109.8,303.2,109.2,302.1,109.2,300.5z"/>
					<path d="M118.1,291.1h1l-4.5,14.6h-1L118.1,291.1z"/>
					<path d="M120.8,292h1.7l2.1,5.9c0.3,0.8,0.5,1.5,0.8,2.3h0.1c0.3-0.8,0.5-1.5,0.8-2.3l2.1-5.9h1.7v11h-1.3v-6.1
						c0-0.9,0.1-2.3,0.2-3.2h-0.1l-0.9,2.5l-2.1,5.7h-0.9l-2.1-5.7l-0.9-2.5h-0.1c0.1,1,0.2,2.3,0.2,3.2v6.1h-1.3V292z"/>
					<path d="M132.7,300v-5.2h1.4v5c0,1.5,0.4,2.2,1.5,2.2c0.8,0,1.4-0.4,2.2-1.4v-5.8h1.4v8.1h-1.1l-0.1-1.3h0
						c-0.8,0.9-1.6,1.5-2.7,1.5C133.5,303.2,132.7,302.1,132.7,300z"/>
					<path d="M141.9,301.4v-10.3h1.4v10.4c0,0.4,0.2,0.6,0.4,0.6c0.1,0,0.1,0,0.3,0l0.2,1c-0.2,0.1-0.4,0.1-0.8,0.1
						C142.4,303.2,141.9,302.5,141.9,301.4z"/>
					<path d="M146.5,300.5V296h-1.2v-1l1.3-0.1l0.2-2.3h1.1v2.3h2.2v1.1h-2.2v4.5c0,1,0.3,1.6,1.3,1.6c0.3,0,0.7-0.1,0.9-0.2l0.3,1
						c-0.5,0.2-1,0.3-1.5,0.3C147,303.2,146.5,302.1,146.5,300.5z"/>
					<path d="M151.6,292.3c0-0.6,0.4-0.9,0.9-0.9s0.9,0.3,0.9,0.9c0,0.5-0.4,0.9-0.9,0.9S151.6,292.8,151.6,292.3z M151.9,294.9h1.4
						v8.1h-1.4V294.9z"/>
					<path d="M155.3,298.3h3.8v1h-3.8V298.3z"/>
					<path d="M162.8,293.2h-3.3V292h8.1v1.2h-3.3v9.8h-1.4V293.2z"/>
					<path d="M167.7,300.9c0-1.8,1.5-2.7,5-3c0-1-0.3-2.1-1.7-2.1c-0.9,0-1.8,0.4-2.4,0.9l-0.5-0.9c0.8-0.5,1.9-1.1,3.2-1.1
						c2,0,2.8,1.3,2.8,3.3v5h-1.1l-0.1-1h0c-0.8,0.6-1.7,1.2-2.7,1.2C168.7,303.2,167.7,302.4,167.7,300.9z M172.7,301v-2.3
						c-2.7,0.3-3.7,1-3.7,2.1c0,0.9,0.6,1.3,1.4,1.3C171.2,302.1,171.9,301.7,172.7,301z"/>
					<path d="M176.6,294.9h1.1l0.1,1.5h0c0.6-1,1.4-1.7,2.3-1.7c0.4,0,0.6,0,0.9,0.2l-0.3,1.2c-0.3-0.1-0.5-0.1-0.8-0.1
						c-0.7,0-1.5,0.5-2.1,1.9v5.2h-1.4V294.9z"/>
					<path d="M181.7,304.6c0-0.7,0.5-1.3,1.2-1.8v-0.1c-0.4-0.3-0.8-0.7-0.8-1.3c0-0.7,0.5-1.2,0.9-1.5v-0.1
						c-0.5-0.4-1.1-1.2-1.1-2.2c0-1.8,1.4-2.9,3.1-2.9c0.5,0,0.9,0.1,1.1,0.2h2.8v1h-1.7c0.4,0.4,0.7,1,0.7,1.7c0,1.7-1.3,2.8-3,2.8
						c-0.4,0-0.9-0.1-1.2-0.3c-0.3,0.3-0.5,0.5-0.5,1c0,0.5,0.3,0.9,1.4,0.9h1.6c1.9,0,2.8,0.6,2.8,1.9c0,1.5-1.6,2.8-4.1,2.8
						C183,306.8,181.7,306,181.7,304.6z M187.8,304.1c0-0.8-0.6-1-1.7-1h-1.4c-0.3,0-0.7,0-1-0.1c-0.6,0.4-0.8,0.9-0.8,1.4
						c0,0.9,0.9,1.4,2.4,1.4C186.8,305.8,187.8,305,187.8,304.1z M186.8,297.6c0-1.2-0.8-1.9-1.7-1.9s-1.7,0.7-1.7,1.9
						c0,1.2,0.8,1.9,1.7,1.9C186,299.5,186.8,298.7,186.8,297.6z"/>
					<path d="M189.9,298.9c0-2.6,1.8-4.3,3.7-4.3c2.1,0,3.2,1.5,3.2,3.8c0,0.3,0,0.6-0.1,0.8h-5.5c0.1,1.7,1.2,2.8,2.7,2.8
						c0.8,0,1.4-0.2,2-0.6l0.5,0.9c-0.7,0.5-1.6,0.8-2.7,0.8C191.6,303.2,189.9,301.6,189.9,298.9z M195.6,298.3
						c0-1.7-0.7-2.5-2-2.5c-1.2,0-2.2,0.9-2.3,2.5H195.6z"/>
					<path d="M198.9,300.5V296h-1.2v-1l1.3-0.1l0.2-2.3h1.1v2.3h2.2v1.1h-2.2v4.5c0,1,0.3,1.6,1.3,1.6c0.3,0,0.7-0.1,0.9-0.2l0.3,1
						c-0.5,0.2-1,0.3-1.5,0.3C199.5,303.2,198.9,302.1,198.9,300.5z"/>
					<path d="M207.7,298.3c0-2.9,0.8-5.4,2.2-7.6l0.9,0.4c-1.3,2.1-1.9,4.7-1.9,7.2s0.6,5.1,1.9,7.2l-0.9,0.4
						C208.5,303.7,207.7,301.3,207.7,298.3z"/>
					<path d="M212.9,292h1.7l2.1,5.9c0.3,0.8,0.5,1.5,0.8,2.3h0.1c0.3-0.8,0.5-1.5,0.8-2.3l2.1-5.9h1.7v11h-1.3v-6.1
						c0-0.9,0.1-2.3,0.2-3.2h-0.1l-0.9,2.5l-2.1,5.7H217l-2.1-5.7l-0.9-2.5H214c0.1,1,0.2,2.3,0.2,3.2v6.1h-1.3V292z"/>
					<path d="M224.4,297.5c0-3.6,2.1-5.7,4.9-5.7c1.3,0,2.4,0.7,3,1.4l-0.8,0.9c-0.6-0.6-1.3-1-2.2-1c-2.1,0-3.5,1.7-3.5,4.5
						c0,2.8,1.3,4.5,3.4,4.5c1,0,1.8-0.5,2.5-1.2l0.8,0.9c-0.9,1-2,1.6-3.4,1.6C226.5,303.2,224.4,301.1,224.4,297.5z"/>
					<path d="M237.8,291.1h1l-4.5,14.6h-1L237.8,291.1z"/>
					<path d="M240.5,292h1.7l2.1,5.9c0.3,0.8,0.5,1.5,0.8,2.3h0.1c0.3-0.8,0.5-1.5,0.8-2.3l2.1-5.9h1.7v11h-1.3v-6.1
						c0-0.9,0.1-2.3,0.2-3.2h-0.1l-0.9,2.5l-2.1,5.7h-0.9l-2.1-5.7l-0.9-2.5h-0.1c0.1,1,0.2,2.3,0.2,3.2v6.1h-1.3V292z"/>
					<path d="M255,293.2h-3.3V292h8.1v1.2h-3.3v9.8H255V293.2z"/>
					<path d="M260.8,305.5c1.3-2.1,1.9-4.7,1.9-7.2s-0.6-5.1-1.9-7.2l0.8-0.4c1.4,2.2,2.2,4.7,2.2,7.6c0,3-0.8,5.4-2.2,7.6
						L260.8,305.5z"/>
					<path d="M266.1,300.2c2.4,0,5.8,0,8.8-0.5l0.1,0.9c-3,0.6-6.3,0.6-8.7,0.6L266.1,300.2z M274,294.8c0,1.9-1.5,3.2-3.6,3.2
						c-2.1,0-3.6-1.3-3.6-3.2c0-1.9,1.5-3.2,3.6-3.2C272.5,291.6,274,292.9,274,294.8z M268,294.8c0,1.2,1,2.1,2.4,2.1
						c1.4,0,2.4-0.9,2.4-2.1c0-1.3-1-2.1-2.4-2.1C269,292.7,268,293.6,268,294.8z M277,290.7v13.5h-1.2v-13.5H277z"/>
					<path d="M290.5,298.8c-1.5-0.5-2.7-1.6-3.4-2.9c-0.6,1.5-1.8,2.6-3.3,3.2l-0.6-1c2-0.7,3.3-2.4,3.3-4.2v-0.4h-3v-1h3v-1.7h1.2
						v1.7h3v1h-3v0.4c0,1.8,1.4,3.3,3.4,4L290.5,298.8z M294.6,302.8v1h-9v-4h1.2v3H294.6z M293,294.8v-4.1h1.2v10H293v-4.9h-2.7v-1
						H293z"/>
				</g>
				<text transform="matrix(1 0 0 1 296.1873 303)" class="st6 st5"> </text>
				<g class="st2">
					<path d="M37.2,332c-0.6,0.8-1.6,1.3-2.8,1.3c-2,0-3.5-1.4-3.5-3.4c0-2,1.5-3.4,3.5-3.4c1.2,0,2.1,0.5,2.7,1.3h3.4v-2.1h1.2v9.9
						h-1.2V332H37.2z M34.5,332.2c1.3,0,2.3-1,2.3-2.3s-1-2.3-2.3-2.3c-1.3,0-2.3,1-2.3,2.3S33.1,332.2,34.5,332.2z M42.3,337.8v1
						h-9v-4.2h1.2v3.2H42.3z M37.7,328.8c0.1,0.3,0.2,0.7,0.2,1.1c0,0.4-0.1,0.8-0.2,1.1h2.9v-2.2H37.7z"/>
					<path d="M51.3,332.3v1.3h3.9v3h-7.9v1.3h8.3v1h-9.5v-3.2H54v-1.2H46v-0.9h4v-1.3h-5.5v-1h12.2v1H51.3z M55.2,330.2h-9v-4.1h9
						V330.2z M54,327.1h-6.6v2.1H54V327.1z"/>
					<path d="M73.9,334.3h-3.2v4.8h-1.2v-4.8h-3.4v4.8h-1.2v-4.8h-3.1v-1h12.2V334.3z M63.1,329.1c0-1.8,1.9-2.9,4.7-2.9
						c2.8,0,4.7,1.1,4.7,2.9s-1.9,2.9-4.7,2.9C65,332.1,63.1,330.9,63.1,329.1z M64.4,329.1c0,1.2,1.4,2,3.4,2c2.1,0,3.5-0.8,3.5-2
						c0-1.2-1.4-1.9-3.5-1.9C65.8,327.2,64.4,327.9,64.4,329.1z"/>
					<path d="M77.2,334.9c1.5,0,2.9-0.1,4.6-0.4l0.1,1c-1.9,0.3-3.4,0.4-5,0.4H76v-5h3.8v-2.7H76v-1H81v4.7h-3.8V334.9z M87,325.7
						v13.4h-1.2V332h-1.9v6.4h-1.2V326h1.2v5h1.9v-5.3H87z"/>
					<path d="M104.9,335.4h-5.5v3.7h-1.2v-3.7h-5.5v-1h12.2V335.4z M104.2,328.2H93.3v-1h4.8v-1.6h1.2v1.6h4.7V328.2z M98.8,329
						c2.7,0,4.3,0.8,4.3,2.2c0,1.4-1.6,2.2-4.3,2.2c-2.7,0-4.4-0.8-4.4-2.2C94.4,329.8,96.1,329,98.8,329z M98.8,329.9
						c-2,0-3.1,0.5-3.1,1.3s1.1,1.3,3.1,1.3s3.1-0.5,3.1-1.3S100.8,329.9,98.8,329.9z"/>
					<path d="M118.7,336.4v1h-12.2v-1h5.5v-2.9h-4v-6.9h1.2v2.4h6.9v-2.4h1.2v6.9h-4v2.9H118.7z M109.2,332.5h6.9V330h-6.9V332.5z"
						/>
					<path d="M127,332.3v1.3h3.9v3H123v1.3h8.3v1h-9.5v-3.2h7.9v-1.2h-7.9v-0.9h4v-1.3h-5.5v-1h12.2v1H127z M130.9,330.2h-9v-4.1h9
						V330.2z M129.7,327.1h-6.6v2.1h6.6V327.1z"/>
					<path d="M141.8,332.4c-1.6-0.5-2.8-1.5-3.4-2.9c-0.6,1.5-1.8,2.7-3.5,3.2l-0.6-1c2-0.6,3.4-2.3,3.4-4.1v-0.2h-3.1v-1h7.4v1h-3
						v0.2c0,1.7,1.4,3.3,3.4,3.9L141.8,332.4z M145.6,338v1h-9.1v-3.4h7.5v-1.3h-7.5v-1h8.7v3.2h-7.5v1.5H145.6z M145.1,332.6h-1.2
						v-7h1.2V332.6z"/>
					<path d="M163.5,336.4v1h-12.2v-1h5.5v-3.5h-3.9v-6.2h9.1v1H154v4.2h8v1H158v3.5H163.5z"/>
					<path d="M171.8,332.6v1.2h3.9v2.9h-7.9v1.3h8.3v0.9h-9.5v-3.1h7.9v-1.1h-7.9v-0.9h4v-1.2h-5.4v-0.9h12.1v0.9H171.8z
						 M165.7,330.1c2.5-0.2,4.5-1,4.8-2.3h-4.2v-0.9h4.2v-1.3h1.2v1.3h4.2v0.9h-4.1c0.2,1.3,2.2,2.2,4.7,2.3l-0.4,0.9
						c-2.2-0.2-4.2-0.9-5.1-2.1c-0.8,1.2-2.8,1.9-5.1,2.1L165.7,330.1z"/>
				</g>
				<g class="st2">
					<path d="M30.7,403.3h3.8v1h-3.8V403.3z"/>
					<path d="M46.1,402.1v2.5h4v4.5h-1.2v-3.5h-8.2v-1h4.2v-2.5h-5.5v-1h9.1c0.4-1.6,0.4-2.8,0.4-3.8h-7.9v-1H50v1
						c0,1,0,2.2-0.3,3.8h1.9v1H46.1z"/>
					<path d="M55,404.5c1.3,0,2.7-0.1,4.3-0.4l0.1,1.1c-1.8,0.3-3.4,0.4-4.8,0.4h-0.9v-8.3H55V404.5z M64.6,395.7v13.4h-1.2v-6.9
						h-1.9v6.3h-1.2V396h1.2v5.2h1.9v-5.5H64.6z"/>
					<path d="M75.4,405.2c1.3-0.1,2.6-0.2,3.8-0.4l0.1,0.9c-3,0.6-6.3,0.6-8.7,0.6l-0.2-1c1.1,0,2.4,0,3.8,0v-2.5h1.2V405.2z
						 M70.8,402.3c2-0.6,3.3-2.1,3.4-3.9h-3.1v-1h3.1v-1.6h1.2v1.6h3.1v1h-3.1c0,1.7,1.4,3.1,3.4,3.7l-0.6,0.9
						c-1.6-0.5-2.8-1.5-3.4-2.8c-0.6,1.4-1.8,2.5-3.4,3L70.8,402.3z M81.3,395.7v13.5h-1.2v-13.5H81.3z"/>
					<path d="M96.3,406.2v1H84.1v-1h4.7v-4.8h1.2v4.8H96.3z M93.6,398h-8.2v-1h9.4v1.3c0,1.7,0,3.5-0.5,6.2l-1.2-0.1
						c0.5-2.6,0.5-4.5,0.5-6.1V398z"/>
					<path d="M98,405.2c2.4,0,5.8,0,8.8-0.5l0.1,0.9c-3,0.6-6.3,0.6-8.7,0.6L98,405.2z M105.9,399.8c0,1.9-1.5,3.2-3.6,3.2
						c-2.1,0-3.6-1.3-3.6-3.2c0-1.9,1.5-3.2,3.6-3.2C104.4,396.6,105.9,397.9,105.9,399.8z M99.9,399.8c0,1.2,1,2.1,2.4,2.1
						s2.4-0.9,2.4-2.1c0-1.3-1-2.1-2.4-2.1S99.9,398.6,99.9,399.8z M108.9,395.7v13.5h-1.2v-13.5H108.9z"/>
					<path d="M122.4,403.8c-1.5-0.5-2.7-1.6-3.4-2.9c-0.6,1.5-1.8,2.6-3.3,3.2l-0.6-1c2-0.7,3.3-2.4,3.3-4.2v-0.4h-3v-1h3v-1.7h1.2
						v1.7h3v1h-3v0.4c0,1.8,1.4,3.3,3.4,4L122.4,403.8z M126.5,407.8v1h-9v-4h1.2v3H126.5z M124.9,399.8v-4.1h1.2v10h-1.2v-4.9h-2.7
						v-1H124.9z"/>
					<path d="M135.3,402c-0.6,0.8-1.6,1.3-2.8,1.3c-2,0-3.5-1.4-3.5-3.4c0-2,1.5-3.4,3.5-3.4c1.2,0,2.1,0.5,2.7,1.3h3.4v-2.1h1.2
						v9.9h-1.2V402H135.3z M132.6,402.2c1.3,0,2.3-1,2.3-2.3s-1-2.3-2.3-2.3c-1.3,0-2.3,1-2.3,2.3S131.2,402.2,132.6,402.2z
						 M140.3,407.8v1h-9v-4.2h1.2v3.2H140.3z M135.8,398.8c0.1,0.3,0.2,0.7,0.2,1.1c0,0.4-0.1,0.8-0.2,1.1h2.9v-2.2H135.8z"/>
					<path d="M149.4,402.3v1.3h3.9v3h-7.9v1.3h8.3v1h-9.5v-3.2h7.9v-1.2h-7.9v-0.9h4v-1.3h-5.5v-1h12.2v1H149.4z M153.3,400.2h-9
						v-4.1h9V400.2z M152.1,397.1h-6.6v2.1h6.6V397.1z"/>
					<path d="M166.6,408l-2.7-4.7h-2v4.7h-1.4v-11h3.4c2.2,0,3.8,0.8,3.8,3.1c0,1.7-1,2.7-2.5,3.1l2.8,4.8H166.6z M161.9,402.2h1.8
						c1.7,0,2.7-0.7,2.7-2.1c0-1.5-0.9-2-2.7-2h-1.8V402.2z"/>
					<path d="M178.1,408.2c-0.8-0.2-1.6-0.6-2.5-1.3c-0.8,0.8-1.9,1.3-3.2,1.3c-2,0-3.3-1.3-3.3-3c0-1.5,1-2.4,2.2-3.2
						c-0.5-0.9-0.7-1.8-0.7-2.6c0-1.5,1-2.6,2.5-2.6c1.4,0,2.2,0.9,2.2,2.2c0,1.4-1.3,2.4-2.5,3.3c0.7,1.1,1.7,2.2,2.8,3.1
						c0.7-0.9,1.2-2,1.6-3.3h1.3c-0.4,1.5-1,2.8-1.9,3.9c0.7,0.5,1.4,0.9,2.1,1L178.1,408.2z M172.6,407.1c0.8,0,1.5-0.3,2.1-0.9
						c-1.1-0.9-2.1-2.1-2.9-3.3c-0.8,0.6-1.4,1.3-1.4,2.1C170.4,406.3,171.4,407.1,172.6,407.1z M172.3,401.3c1-0.7,1.9-1.3,1.9-2.3
						c0-0.6-0.3-1.2-1.1-1.2c-0.8,0-1.3,0.7-1.3,1.6C171.7,400,171.9,400.7,172.3,401.3z"/>
					<path d="M180.3,397h2.8c3.4,0,5.2,2,5.2,5.5c0,3.5-1.8,5.5-5.1,5.5h-2.8V397z M182.9,406.9c2.6,0,3.9-1.6,3.9-4.4
						c0-2.8-1.3-4.3-3.9-4.3h-1.2v8.7H182.9z"/>
					<path d="M200.3,397.1c0,3.9-1.8,7.3-6.3,9.5l-0.7-1c3.6-1.7,5.4-4.3,5.7-7.5H194v-1H200.3z M204.3,395.7v13.5H203v-13.5H204.3z
						"/>
					<path d="M218.1,395.7v7.2h-1.2v-3h-2.7c-0.2,1.6-1.6,2.6-3.4,2.6c-2,0-3.5-1.3-3.5-3.1c0-1.8,1.5-3.1,3.5-3.1
						c1.8,0,3.2,1,3.4,2.6h2.7v-3.2H218.1z M213,399.4c0-1.2-1-2.1-2.3-2.1s-2.3,0.9-2.3,2.1c0,1.2,1,2.1,2.3,2.1
						S213,400.6,213,399.4z M216.9,403.5h1.2v5.4h-8.6v-5.4h1.2v1.7h6.2V403.5z M216.9,406.2h-6.2v1.7h6.2V406.2z"/>
					<path d="M236.4,404.8h-5.5v4.3h-1.2v-4.3h-5.5v-1h12.2V404.8z M225,401.8c2.4-0.3,4.7-1.8,4.7-3.5h-4.3v-1h4.3v-1.6h1.2v1.6
						h4.3v1h-4.3c0,1.6,2.3,3.1,4.7,3.5l-0.4,1c-2.1-0.3-4-1.4-4.9-2.8c-0.9,1.5-2.8,2.5-4.9,2.8L225,401.8z"/>
					<path d="M250.2,403.3h-5.5v5.8h-1.2v-5.8H238v-1h8.9c0.4-1.9,0.4-3.4,0.4-4.6v-0.2h-7.8v-1h9v1.2c0,1.3,0,2.7-0.4,4.6h2V403.3z
						"/>
				</g>
				<text transform="matrix(1 0 0 1 250.9941 408)" class="st6 st5"> </text>
				<g class="st2">
					<path d="M30.7,473.3h3.8v1h-3.8V473.3z"/>
					<path d="M44.1,475.4c1.2-0.1,2.5-0.2,3.6-0.3l0.1,0.9c-2.9,0.5-6,0.5-8.4,0.5l-0.2-1c1.1,0,2.3,0,3.6,0V474
						c-1.5-0.2-2.6-1.1-2.6-2.5c0-1.5,1.3-2.5,3.2-2.5s3.2,1,3.2,2.5c0,1.3-1,2.3-2.6,2.5V475.4z M47.5,468.3h-8v-1h3.4v-1.6h1.2
						v1.6h3.4V468.3z M43.5,473.1c1.2,0,2-0.6,2-1.5c0-0.9-0.8-1.5-2-1.5c-1.2,0-2,0.6-2,1.5C41.5,472.5,42.3,473.1,43.5,473.1z
						 M51.8,472.4h-2.1v6.7h-1.2v-13.5h1.2v5.7h2.1V472.4z"/>
					<path d="M61.1,468h-7.9v-1h3.3v-1.5h1.2v1.5h3.4V468z M57.2,473.4c-1.9,0-3.2-0.9-3.2-2.4c0-1.4,1.3-2.3,3.2-2.3
						s3.2,0.9,3.2,2.3C60.4,472.5,59.1,473.4,57.2,473.4z M57.2,472.4c1.2,0,2.1-0.5,2.1-1.4c0-0.9-0.8-1.4-2.1-1.4s-2,0.6-2,1.4
						C55.1,471.9,55.9,472.4,57.2,472.4z M62.4,474.1h1.2v4.9h-8.5v-4.9h1.2v1.4h6V474.1z M62.4,476.5h-6v1.5h6V476.5z M65.6,470.1
						h-2v3.4h-1.2v-7.8h1.2v3.4h2V470.1z"/>
					<path d="M73.6,472.3v1.3h3.9v3h-7.9v1.3H78v1h-9.5v-3.2h7.9v-1.2h-7.9v-0.9h4v-1.3h-5.5v-1h12.2v1H73.6z M77.5,470.2h-9v-4.1h9
						V470.2z M76.3,467.1h-6.6v2.1h6.6V467.1z"/>
					<path d="M88.2,473.3c-1.5-0.6-2.7-1.8-3.3-3.3c-0.6,1.6-1.8,2.9-3.4,3.6l-0.6-1c2-0.8,3.4-2.7,3.4-4.8v-1.4h1.2v1.4
						c0,2,1.4,3.9,3.4,4.6L88.2,473.3z M92.2,477.8v1h-9.1v-4.2h1.2v3.2H92.2z M91.8,475.5h-1.2v-9.9h1.2V475.5z"/>
					<path d="M98.3,472.8c-2,0-3.5-1.3-3.5-3.2c0-1.9,1.5-3.2,3.5-3.2c2,0,3.5,1.3,3.5,3.2C101.8,471.5,100.3,472.8,98.3,472.8z
						 M98.3,471.8c1.3,0,2.3-0.9,2.3-2.1c0-1.3-1-2.1-2.3-2.1c-1.3,0-2.3,0.9-2.3,2.1C96,470.9,97,471.8,98.3,471.8z M96.3,474.3
						h8.7v4.8h-1.2v-3.8h-7.5V474.3z M105,468.7v1.9h2v1h-2v2.1h-1.2v-8h1.2v2h2v1H105z"/>
					<path d="M118.7,472h-6.3v-5.5h6.3V472z M119.1,475.2c0,1.3,2.1,2.6,4.4,2.9l-0.4,0.9c-2-0.3-3.8-1.2-4.6-2.5
						c-0.8,1.3-2.7,2.2-4.7,2.5l-0.4-0.9c2.3-0.3,4.4-1.5,4.5-2.9h-3.9v-0.9h3.9V473h1.2v1.3h3.9v0.9H119.1z M117.5,467.5h-3.9v3.5
						h3.9V467.5z M122.7,473.4h-1.2v-7.7h1.2V473.4z"/>
					<path d="M134.5,466.8h1.2v9.1h-6.3v-9.1h1.2v3.6h3.8V466.8z M134.5,471.3h-3.8v3.5h3.8V471.3z M141.4,472h-2.2v7.1H138v-13.4
						h1.2v5.3h2.2V472z"/>
					<path d="M150,471.4c0,2.9-1.4,4.7-3.4,4.7c-2,0-3.4-1.8-3.4-4.7c0-2.9,1.4-4.7,3.4-4.7C148.6,466.7,150,468.5,150,471.4z
						 M144.3,471.4c0,2.2,0.9,3.6,2.2,3.6c1.3,0,2.2-1.4,2.2-3.6c0-2.2-0.9-3.6-2.2-3.6C145.3,467.8,144.3,469.2,144.3,471.4z
						 M153.7,465.7v13.5h-1.2v-13.5H153.7z"/>
					<path d="M168.7,476.4v1h-12.2v-1h5.5v-2.8c-2.5-0.2-4.3-1.5-4.3-3.5c0-2.1,2.1-3.5,4.9-3.5c2.8,0,4.9,1.4,4.9,3.5
						c0,2-1.8,3.3-4.3,3.5v2.8H168.7z M162.6,472.6c2.1,0,3.7-1,3.7-2.5s-1.6-2.5-3.7-2.5s-3.7,1-3.7,2.5S160.4,472.6,162.6,472.6z"
						/>
					<path d="M177.7,473.3c-1.5-0.6-2.7-1.8-3.3-3.3c-0.6,1.6-1.8,2.9-3.4,3.6l-0.6-1c2-0.8,3.4-2.7,3.4-4.8v-1.4h1.2v1.4
						c0,2,1.4,3.9,3.4,4.6L177.7,473.3z M181.7,477.8v1h-9.1v-4.2h1.2v3.2H181.7z M181.3,475.5h-1.2v-9.9h1.2V475.5z"/>
					<path d="M187.8,472.8c-2,0-3.5-1.3-3.5-3.2c0-1.9,1.5-3.2,3.5-3.2c2,0,3.5,1.3,3.5,3.2C191.4,471.5,189.9,472.8,187.8,472.8z
						 M187.8,471.8c1.3,0,2.3-0.9,2.3-2.1c0-1.3-1-2.1-2.3-2.1c-1.4,0-2.3,0.9-2.3,2.1C185.5,470.9,186.5,471.8,187.8,471.8z
						 M185.8,474.3h8.7v4.8h-1.2v-3.8h-7.5V474.3z M194.5,468.7v1.9h2v1h-2v2.1h-1.2v-8h1.2v2h2v1H194.5z"/>
					<path d="M201.8,475.1c1.5-0.1,3-0.1,4.3-0.3l0.1,0.9c-2.8,0.5-6,0.5-8.3,0.5l-0.1-1c0.9,0,1.8,0,2.8,0V471h1.2V475.1z
						 M203.7,473.1c0.4-2.2,0.4-3.9,0.4-4.9h-5.6v-1h6.8v0.7c0,1.1,0,2.8-0.4,5.3L203.7,473.1z M210.3,472.3h-2.1v6.8H207v-13.5h1.2
						v5.6h2.1V472.3z"/>
					<path d="M219.5,470c0,2.2,1.3,4.4,3.3,5.3l-0.7,1c-1.5-0.7-2.6-2.2-3.2-3.9c-0.6,1.8-1.8,3.4-3.3,4.2l-0.7-0.9
						c2-1,3.4-3.2,3.4-5.6v-1h-3v-1h3v-2.1h1.2v2.1h3v1h-3V470z M227.6,472.2h-2.2v6.9h-1.2v-13.5h1.2v5.5h2.2V472.2z"/>
					<path d="M235.6,472.2h-6.1v-5.9h1.2v1.9h3.6v-1.9h1.2v1.3h3.1v-1.9h1.2v7h-1.2V471h-3.1V472.2z M234.4,469.2h-3.6v2h3.6V469.2z
						 M240.4,478v1h-9.1v-3.3h7.4v-1.3h-7.5v-1h8.7v3.2h-7.4v1.4H240.4z M235.6,468.5v1.5h3.1v-1.5H235.6z"/>
					<path d="M247.4,475.4c1.2-0.1,2.5-0.2,3.6-0.3l0.1,0.9c-2.9,0.5-6,0.5-8.4,0.5l-0.2-1c1.1,0,2.3,0,3.6,0V474
						c-1.5-0.2-2.6-1.1-2.6-2.5c0-1.5,1.3-2.5,3.2-2.5c1.9,0,3.2,1,3.2,2.5c0,1.3-1,2.3-2.6,2.5V475.4z M250.8,468.3h-8v-1h3.4v-1.6
						h1.2v1.6h3.4V468.3z M246.8,473.1c1.2,0,2-0.6,2-1.5c0-0.9-0.8-1.5-2-1.5c-1.2,0-2,0.6-2,1.5
						C244.7,472.5,245.5,473.1,246.8,473.1z M255.1,472.4H253v6.7h-1.2v-13.5h1.2v5.7h2.1V472.4z"/>
					<path d="M265.2,473.5c-2.9,0.4-6,0.5-8.5,0.5l-0.2-1c1.2,0,2.5,0,3.8-0.1v-1.9h-2.6v-4.5h6.4v1h-5.2v2.5h5.3v1h-2.7v1.9
						c1.2-0.1,2.5-0.1,3.6-0.3L265.2,473.5z M267.9,477.8v1h-9.2v-3.7h1.2v2.7H267.9z M267.4,475.7h-1.2v-10.1h1.2V475.7z"/>
				</g>
				<g class="st2">
					<path d="M38.1,508.8c-1.5-0.5-2.7-1.6-3.4-2.9c-0.6,1.5-1.8,2.6-3.3,3.2l-0.6-1c2-0.7,3.3-2.4,3.3-4.2v-0.4h-3v-1h3v-1.7h1.2
						v1.7h3v1h-3v0.4c0,1.8,1.4,3.3,3.4,4L38.1,508.8z M42.3,512.8v1h-9v-4h1.2v3H42.3z M40.6,504.8v-4.1h1.2v10h-1.2v-4.9h-2.7v-1
						H40.6z"/>
					<path d="M51,507c-0.6,0.8-1.6,1.3-2.8,1.3c-2,0-3.5-1.4-3.5-3.4c0-2,1.5-3.4,3.5-3.4c1.2,0,2.1,0.5,2.7,1.3h3.4v-2.1h1.2v9.9
						h-1.2V507H51z M48.3,507.2c1.3,0,2.3-1,2.3-2.3s-1-2.3-2.3-2.3c-1.3,0-2.3,1-2.3,2.3S46.9,507.2,48.3,507.2z M56.1,512.8v1h-9
						v-4.2h1.2v3.2H56.1z M51.5,503.8c0.1,0.3,0.2,0.7,0.2,1.1c0,0.4-0.1,0.8-0.2,1.1h2.9v-2.2H51.5z"/>
					<path d="M65.1,507.3v1.3H69v3h-7.9v1.3h8.3v1h-9.5v-3.2h7.9v-1.2h-7.9v-0.9h4v-1.3h-5.5v-1h12.2v1H65.1z M69,505.2h-9v-4.1h9
						V505.2z M67.8,502.1h-6.6v2.1h6.6V502.1z"/>
					<path d="M87.7,509.3h-3.2v4.8h-1.2v-4.8h-3.4v4.8h-1.2v-4.8h-3.1v-1h12.2V509.3z M76.9,504.1c0-1.8,1.9-2.9,4.7-2.9
						c2.8,0,4.7,1.1,4.7,2.9s-1.9,2.9-4.7,2.9C78.8,507.1,76.9,505.9,76.9,504.1z M78.2,504.1c0,1.2,1.4,2,3.4,2
						c2.1,0,3.5-0.8,3.5-2c0-1.2-1.4-1.9-3.5-1.9C79.6,502.2,78.2,502.9,78.2,504.1z"/>
					<path d="M91,509.9c1.5,0,2.9-0.1,4.6-0.4l0.1,1c-1.9,0.3-3.4,0.4-5,0.4h-0.9v-5h3.8v-2.7h-3.9v-1h5.1v4.7H91V509.9z
						 M100.8,500.7v13.4h-1.2V507h-1.9v6.4h-1.2V501h1.2v5h1.9v-5.3H100.8z"/>
					<path d="M103.2,510.2c2.4,0,5.8,0,8.8-0.5l0.1,0.9c-3,0.6-6.3,0.6-8.7,0.6L103.2,510.2z M111.1,504.8c0,1.9-1.5,3.2-3.6,3.2
						c-2.1,0-3.6-1.3-3.6-3.2c0-1.9,1.5-3.2,3.6-3.2C109.6,501.6,111.1,502.9,111.1,504.8z M105.1,504.8c0,1.2,1,2.1,2.4,2.1
						s2.4-0.9,2.4-2.1c0-1.3-1-2.1-2.4-2.1S105.1,503.6,105.1,504.8z M114.1,500.7v13.5h-1.2v-13.5H114.1z"/>
					<path d="M132.5,506.9v1h-12.2v-1h9.1c0.4-1.9,0.4-3.2,0.4-4.4v0h-7.9v-1h9.1v1c0,1.2,0,2.5-0.3,4.4H132.5z M123.1,512.8h8.2v1
						h-9.4v-4.4h1.2V512.8z"/>
					<path d="M146.3,508v1h-12.2v-1h5.5v-1.4h-3.9v-5.4h1.2v1.7h6.5v-1.7h1.2v5.4h-3.9v1.4H146.3z M136.9,512.8h8v1h-9.3v-3.7h1.2
						V512.8z M136.9,505.6h6.5v-1.7h-6.5V505.6z"/>
					<path d="M155.2,508.2c-1.5-0.5-2.7-1.7-3.3-3c-0.6,1.5-1.8,2.8-3.4,3.4l-0.6-1c2-0.7,3.4-2.5,3.4-4.4v-0.5h-3v-1h7.2v1h-3v0.5
						c0,1.7,1.3,3.4,3.3,4.1L155.2,508.2z M150,509.4h9v4.7h-1.2v-3.7H150V509.4z M159,500.7v8.1h-1.2v-3.5h-2.6v-1h2.6v-3.5H159z"
						/>
					<path d="M170,505c0,2.2,1.5,4.4,3.5,5.3l-0.7,1c-1.5-0.7-2.8-2.2-3.4-3.9c-0.6,1.9-1.9,3.4-3.4,4.2l-0.7-0.9
						c2-0.9,3.5-3.2,3.5-5.6v-1h-3.1v-1h3.1v-2.1h1.2v2.1h3.1v1H170V505z M176.1,500.6v13.5h-1.2v-13.5H176.1z"/>
					<path d="M191.1,511.4v1h-12.2v-1h3.4v-2.5h-1.9v-4.2h8v-2.1h-8v-1h9.2v4.1h-8v2.2h8.3v1h-2.1v2.5H191.1z M183.5,511.4h3.1v-2.5
						h-3.1V511.4z"/>
					<path d="M196.6,504.5c0,2.3,1,4.7,2.9,5.7l-0.8,0.9c-1.3-0.8-2.2-2.2-2.7-3.9c-0.5,1.8-1.4,3.4-2.8,4.3l-0.8-0.9
						c1.9-1.1,2.9-3.6,2.9-6v-1.2h-2.5v-1h6.1v1h-2.4V504.5z M200.2,501h1.2v12.5h-1.2v-6.9H198v-1h2.2V501z M204.1,500.6v13.5h-1.2
						v-13.5H204.1z"/>
					<path d="M217.3,508.3c-1.5-0.6-2.7-1.8-3.3-3.3c-0.6,1.6-1.8,2.9-3.4,3.6l-0.6-1c2-0.8,3.4-2.7,3.4-4.8v-1.4h1.2v1.4
						c0,2,1.4,3.9,3.4,4.6L217.3,508.3z M221.3,512.8v1h-9.1v-4.2h1.2v3.2H221.3z M220.9,510.5h-1.2v-9.9h1.2V510.5z"/>
					<path d="M227.4,507.8c-2,0-3.5-1.3-3.5-3.2c0-1.9,1.5-3.2,3.5-3.2c2,0,3.5,1.3,3.5,3.2C230.9,506.5,229.4,507.8,227.4,507.8z
						 M227.4,506.8c1.3,0,2.3-0.9,2.3-2.1c0-1.3-1-2.1-2.3-2.1c-1.4,0-2.3,0.9-2.3,2.1C225.1,505.9,226,506.8,227.4,506.8z
						 M225.3,509.3h8.7v4.8h-1.2v-3.8h-7.5V509.3z M234.1,503.7v1.9h2v1h-2v2.1h-1.2v-8h1.2v2h2v1H234.1z"/>
					<path d="M246.6,502.4c0,3.5-1.2,6.7-5,8.8l-0.7-0.9c3.1-1.7,4.4-4.2,4.5-6.9h-4v-1H246.6z M252.2,500.7v13.5H251v-7h-1.8v6.4
						H248V501h1.2v5.1h1.8v-5.4H252.2z"/>
					<path d="M261.4,507.1h-6.2v-5.9h1.2v1.9h3.8v-1.9h1.2V507.1z M260.2,504.1h-3.8v2h3.8V504.1z M257.7,513h7.8v1h-9v-3.4h7.3
						v-1.4h-7.3v-1h8.5v3.3h-7.3V513z M267,503.6v1h-2v3h-1.2v-6.9h1.2v2.9H267z"/>
				</g>
			</g>
			<g id="pipeline_img1_mobile" transform="translate(0.000000, 706.000000)">
				<g id="table1">
					<g id="cell1">
						<g id="_x31_">
							<path id="bg_2_" class="st7" d="M8,0h318c4.4,0,8,3.6,8,8v34c0,4.4-3.6,8-8,8H8c-4.4,0-8-3.6-8-8V8C0,3.6,3.6,0,8,0z"/>
							<g class="st2">
								<path class="st3" d="M153.6,29.1v1.6H141v-1.6H153.6z M143.9,21.2H142v-1.6h10.5v1.6h-1.9v4.1h1.8V27h-10.4v-1.6h1.8V21.2z
									 M148.7,21.2h-2.8v4.1h2.8V21.2z"/>
								<path class="st3" d="M167.4,29.2v1.6h-12.5v-1.6h5.2v-2.1h-3.8v-4.7h7.7v-1.5h-7.7v-1.6h9.7V24h-7.7v1.5h8v1.6h-4.2v2.1
									H167.4z"/>
								<path class="st3" d="M174.5,26.5c-1.2-0.5-2-1.2-2.4-2.2c-0.5,1.1-1.3,2-2.6,2.5l-1-1.5c1.9-0.7,2.6-2.3,2.6-3.9V21h-2.2
									v-1.6h6.1V21h-2v0.4c0,1.5,0.7,2.9,2.4,3.6L174.5,26.5z M170.9,27.4h9.5v4.9h-2V29h-7.5V27.4z M175.8,21.9v-3.2h1.8v8.1
									h-1.8v-3.3h-1.5v-1.6H175.8z M180.4,18.5v8.4h-1.9v-8.4H180.4z"/>
								<path class="st3" d="M195,29.1v1.6h-12.5v-1.6H195z M193.6,27.2h-9.7v-7.7h9.6v1.6h-7.6v1.5h7.3v1.5h-7.3v1.5h7.7V27.2z"/>
							</g>
						</g>
						<g id="_x32_" transform="translate(0.000000, 102.000000)">
							<path id="bg_3_" class="st7" d="M8,0h318c4.4,0,8,3.6,8,8v34c0,4.4-3.6,8-8,8H8c-4.4,0-8-3.6-8-8V8C0,3.6,3.6,0,8,0z"/>
							<g class="st2">
								<path class="st3" d="M142.9,27.5c1.3,0,2.5-0.1,3.8-0.3l0.1,1.6c-1.7,0.3-3.1,0.4-4.9,0.4h-1v-9.1h5.1v1.6h-3.2V27.5z
									 M152.4,18.5v13.8h-1.9v-6.9h-1.2v6.3h-1.8V18.7h1.8v5.1h1.2v-5.3H152.4z"/>
								<path class="st3" d="M161.5,26.1c-1.5-0.5-2.5-1.4-3-2.6c-0.6,1.4-1.7,2.4-3.2,3l-1-1.6c2.3-0.8,3.2-2.6,3.2-4.5v-1.2h2v1.4
									c0,1.7,0.9,3.3,3.1,4L161.5,26.1z M165.4,29.6c0,1.7-1.8,2.7-4.7,2.7c-2.9,0-4.7-1-4.7-2.7c0-1.7,1.8-2.7,4.7-2.7
									C163.6,27,165.4,28,165.4,29.6z M163.4,29.6c0-0.8-0.9-1.1-2.7-1.1c-1.8,0-2.7,0.4-2.7,1.1c0,0.8,0.9,1.1,2.7,1.1
									C162.5,30.8,163.4,30.4,163.4,29.6z M167,21.7v1.6h-1.8v3.3h-2v-8.2h2v3.2H167z"/>
								<path class="st3" d="M175.9,25.4c-1.6-0.4-2.7-1.3-3.3-2.5c-0.6,1.3-1.8,2.3-3.4,2.8l-0.9-1.5c2.1-0.6,3.2-2,3.3-3.5h-2.8
									v-1.6h7.5v1.6h-2.7c0.1,1.3,1.2,2.7,3.2,3.2L175.9,25.4z M180,30.7v1.5h-9.5v-3.8h7.2v-0.8h-7.2v-1.5h9.2v3.7h-7.2v0.9H180z
									 M179.6,25.6h-2v-7.1h2V25.6z"/>
								<path class="st3" d="M190.5,27.3c-2.9,0.5-6.1,0.6-8.5,0.6l-0.2-1.5c1,0,2.1,0,3.3,0v-0.8c-1.5-0.2-2.4-1-2.4-2.1
									c0-1.3,1.3-2.1,3.4-2.1c2,0,3.4,0.8,3.4,2.1c0,1.1-0.9,1.8-2.4,2.1v0.7c1.1-0.1,2.2-0.2,3.3-0.3L190.5,27.3z M190,21h-7.8
									v-1.4h2.9v-1.2h2v1.2h2.9V21z M185.7,30.5h7.7V32h-9.7v-3.5h2V30.5z M186.1,24.3c0.9,0,1.5-0.3,1.5-0.8
									c0-0.5-0.6-0.8-1.5-0.8s-1.5,0.3-1.5,0.8C184.6,24,185.1,24.3,186.1,24.3z M194.6,23v1.6h-1.7v4.6h-2V18.5h2V23H194.6z"/>
							</g>
						</g>
						<g class="st2">
							<path d="M152.9,176.9v1.2h-12.2v-1.2h4.8v-2.2h1.6v2.2H152.9z M143.6,183.8h8.1v1.2h-9.7v-3.5h7.8v-1.1h-7.8v-1.2h9.3v3.4
								h-7.8V183.8z M149.6,176.1c0.2-1.1,0.2-2,0.2-2.7h-7.8v-1.2h9.3v0.9c0,0.8,0,1.9-0.3,3.2L149.6,176.1z"/>
							<path d="M162.8,179.2c-2.8,0.5-6,0.6-8.4,0.6l-0.2-1.3c0.8,0,1.7,0,2.7,0v-2.8h1.5v2.7c1.4-0.1,2.9-0.2,4.2-0.4L162.8,179.2z
								 M160.1,177.2c0.3-1.5,0.3-2.5,0.3-3.4h-5.3v-1.3h6.8v0.8c0,0.9,0,2.2-0.3,4L160.1,177.2z M157.9,183.6h7.6v1.3h-9.2v-4h1.6
								V183.6z M166.9,175.9v1.3h-1.8v4.6h-1.6v-10.2h1.6v4.3H166.9z"/>
							<path d="M175.5,178.5c-1.5-0.5-2.6-1.5-3.2-2.7c-0.6,1.3-1.8,2.5-3.3,3l-0.8-1.2c2.1-0.7,3.3-2.4,3.3-4v-0.1h-2.8v-1.2h7.2
								v1.2h-2.8v0.1c0,1.5,1.2,3,3.2,3.7L175.5,178.5z M179.9,183.8v1.2h-9.3v-3.6h7.3v-1.1h-7.3v-1.2h8.8v3.4h-7.3v1.2H179.9z
								 M177.9,174.5v-2.9h1.6v6.9h-1.6v-2.8h-2.4v-1.3H177.9z"/>
							<path d="M193.3,171.6v7.7h-1.5v-1.6h-3.3c-0.6,0.7-1.6,1.1-2.7,1.1c-2,0-3.5-1.3-3.5-3.2c0-1.9,1.5-3.2,3.5-3.2
								c1.1,0,2.1,0.4,2.7,1.1h3.3v-1.8H193.3z M187.8,175.6c0-1.2-0.9-2-2.1-2c-1.2,0-2.1,0.8-2.1,2s0.9,1.9,2.1,1.9
								C187,177.5,187.8,176.8,187.8,175.6z M184.4,180h8.9v5h-8.9V180z M185.9,183.8h5.9v-2.5h-5.9V183.8z M191.7,176.5v-1.8h-2.6
								c0.1,0.3,0.1,0.6,0.1,0.9c0,0.3,0,0.6-0.1,0.9H191.7z"/>
						</g>
						<g class="st2">
							<path d="M145.2,70.9h3.6c2.5,0,4.3,0.9,4.3,3.5c0,2.5-1.9,3.7-4.3,3.7h-1.5V82h-2.2V70.9z M148.8,76.3c1.5,0,2.3-0.6,2.3-1.9
								c0-1.3-0.8-1.7-2.3-1.7h-1.3v3.6H148.8z"/>
							<path d="M154.7,76.5c0-3.7,2.4-5.8,5.3-5.8c1.6,0,2.7,0.7,3.4,1.4l-1.2,1.4c-0.5-0.5-1.2-0.9-2.2-0.9c-1.8,0-3.1,1.4-3.1,3.8
								c0,2.4,1.1,3.9,3.3,3.9c0.5,0,1.1-0.2,1.4-0.4v-2.2h-2v-1.8h3.9v5c-0.7,0.7-2.1,1.3-3.6,1.3C157,82.2,154.7,80.2,154.7,76.5z
								"/>
							<path d="M165.3,80.7c3-2.7,4.8-4.8,4.8-6.5c0-1.1-0.6-1.8-1.7-1.8c-0.8,0-1.5,0.5-2,1.1l-1.2-1.2c1-1.1,2-1.7,3.5-1.7
								c2.1,0,3.5,1.3,3.5,3.4c0,2-1.7,4.2-3.7,6.1c0.6-0.1,1.3-0.1,1.8-0.1h2.4V82h-7.4V80.7z"/>
							<path d="M174.1,76.4c0-3.8,1.5-5.7,3.8-5.7c2.2,0,3.8,1.9,3.8,5.7s-1.5,5.8-3.8,5.8C175.6,82.2,174.1,80.2,174.1,76.4z
								 M179.6,76.4c0-3.1-0.7-4-1.7-4c-1,0-1.7,0.9-1.7,4c0,3.1,0.7,4.1,1.7,4.1C178.8,80.5,179.6,79.5,179.6,76.4z"/>
							<path d="M183.5,80.2h2.4v-7h-2v-1.4c1.1-0.2,1.9-0.5,2.6-0.9h1.6v9.3h2.1V82h-6.7V80.2z"/>
						</g>
						<g id="_x32__1_" transform="translate(0.000000, 204.000000)">
							<path id="bg_4_" class="st8" d="M8.8,0.8h316.5c4.4,0,8,3.6,8,8v82.5c0,4.4-3.6,8-8,8H8.8c-4.4,0-8-3.6-8-8V8.8
								C0.8,4.3,4.3,0.8,8.8,0.8z"/>
							<g class="st2">
								<path class="st3" d="M101.4,35.1c-1.5-0.5-2.6-1.4-3.2-2.6c-0.6,1.3-1.7,2.3-3.2,2.8l-1-1.5c2.2-0.7,3.2-2.4,3.2-4v-0.1
									h-2.7v-1.5h2.7v-1.5h2v1.5h2.7v1.5h-2.7v0.1c0,1.6,1,3.1,3.2,3.8L101.4,35.1z M105.9,38.5V40h-9.4v-4.2h2v2.6H105.9z
									 M103.6,30.5v-4h2v10.2h-2v-4.6h-2.2v-1.6H103.6z"/>
								<path class="st3" d="M114.4,33.3c-0.7,0.7-1.6,1.1-2.7,1.1c-2,0-3.6-1.5-3.6-3.6c0-2.1,1.6-3.6,3.6-3.6c1.1,0,2,0.4,2.7,1.1
									h3.1v-1.9h2v10.1h-2v-3.3H114.4z M111.6,32.7c1,0,1.8-0.7,1.8-1.9c0-1.1-0.8-1.8-1.8-1.8c-1,0-1.8,0.7-1.8,1.8
									C109.9,32,110.6,32.7,111.6,32.7z M119.7,38.5V40h-9.4v-4.5h2v2.9H119.7z M115.2,30c0.1,0.3,0.1,0.6,0.1,0.9
									c0,0.3,0,0.6-0.1,0.9h2.2V30H115.2z"/>
								<path class="st3" d="M128.9,33.5v0.9h3.7v3.5H125v0.8h7.9v1.5h-9.9v-3.6h7.6v-0.7h-7.6v-1.5h3.8v-0.9h-5.2V32h12.5v1.6
									H128.9z M132.5,31.2h-9.3v-4.3h9.3V31.2z M130.6,28.4h-5.5v1.3h5.5V28.4z"/>
								<path class="st3" d="M146.3,34.5c-1.5-0.5-2.6-1.5-3.2-2.8c-0.6,1.4-1.7,2.5-3.3,3.1l-1-1.6c2.3-0.8,3.3-2.7,3.3-4.5v-1.4h2
									v1.4c0,1.8,1,3.6,3.2,4.3L146.3,34.5z M150.7,38.5V40h-9.5v-4.5h2v2.9H150.7z M150.3,36.6h-2V26.5h2V36.6z"/>
								<path class="st3" d="M156.5,34c-2.1,0-3.8-1.4-3.8-3.4s1.6-3.4,3.8-3.4c2.1,0,3.7,1.4,3.7,3.4S158.6,34,156.5,34z
									 M154.3,35.2h9.2v5.1h-2v-3.5h-7.2V35.2z M156.5,32.3c1,0,1.8-0.6,1.8-1.7c0-1.1-0.8-1.7-1.8-1.7c-1.1,0-1.8,0.6-1.8,1.7
									C154.7,31.7,155.4,32.3,156.5,32.3z M163.5,29.9v1.4h1.8v1.6h-1.8v1.7h-2v-8.1h2v1.8h1.8v1.6H163.5z"/>
								<path class="st3" d="M172.1,35.4c1.3,0,2.5-0.1,3.9-0.3l0.2,1.6c-1.8,0.3-3.3,0.4-5,0.4h-1v-5.5h3v-2.2h-3v-1.6h4.9v5.3h-3
									V35.4z M177,26.7h1.8v12.9H177v-6.9h-1.4v-1.6h1.4V26.7z M181.7,26.5v13.8h-1.9V26.5H181.7z"/>
								<path class="st3" d="M187.5,33.2c-2.1,0-3.7-1.3-3.7-3.2c0-1.8,1.6-3.1,3.7-3.1c2.1,0,3.7,1.3,3.7,3.1
									C191.2,31.9,189.6,33.2,187.5,33.2z M187.5,31.6c1,0,1.8-0.6,1.8-1.6c0-1-0.7-1.6-1.8-1.6c-1,0-1.8,0.6-1.8,1.6
									C185.8,31,186.5,31.6,187.5,31.6z M195.5,38.6v1.5h-9.5v-3.8h7.2v-0.8h-7.2V34h9.2v3.8h-7.2v0.9H195.5z M195.1,33.4h-2v-6.9
									h2V33.4z"/>
								<path class="st3" d="M200,35.5c2,0,3.6-0.1,5.4-0.4l0.2,1.6c-2.1,0.4-4,0.5-6.4,0.5H198v-5.7h4.4v-2.2H198v-1.6h6.3V33H200
									V35.5z M210.3,33.3h-2v7h-2V26.5h2v5.2h2V33.3z"/>
								<path class="st3" d="M221.9,33.8v0.8h3.7V38h-7.6v0.7h7.9v1.4h-9.9v-3.5h7.6V36h-7.6v-1.4h3.8v-0.8h-5.2v-1.5h12.4v1.5
									H221.9z M215.2,30.5c2.8-0.1,4.1-0.8,4.5-1.6h-3.8v-1.4h4v-1.1h2v1.1h4.1V29h-3.8c0.4,0.8,1.7,1.4,4.5,1.6l-0.6,1.5
									c-2.6-0.1-4.3-0.8-5.2-1.8c-0.9,1-2.6,1.7-5.2,1.8L215.2,30.5z"/>
								<path class="st3" d="M233.8,29.6c0,2.6,1.1,5.1,3.4,6.1l-1.1,1.6c-1.6-0.7-2.7-2.1-3.3-3.8c-0.6,1.8-1.7,3.3-3.4,4.1
									l-1.2-1.6c2.4-1,3.6-3.7,3.6-6.4v-2h2V29.6z M239.9,26.5v13.9h-2V26.5H239.9z"/>
							</g>
							<g id="text" transform="translate(141.000000, 56.000000)">
								<g>
									<text transform="matrix(1 0 0 1 0.14 17)" class="st3 st9 st5">Layla</text>
									<text transform="matrix(1 0 0 1 40.084 9)" class="st3 st9 st10">TM</text>
								</g>
							</g>
						</g>
					</g>
				</g>
				<g id="table1_1_" transform="translate(0.000000, 354.000000)">
					<g id="cell1_1_">
						<g id="_x31__1_">
							<path id="bg_5_" class="st7" d="M8,0h318c4.4,0,8,3.6,8,8v34c0,4.4-3.6,8-8,8H8c-4.4,0-8-3.6-8-8V8C0,3.6,3.6,0,8,0z"/>
							<g class="st2">
								<path class="st3" d="M153.6,29.1v1.6H141v-1.6H153.6z M143.9,21.2H142v-1.6h10.5v1.6h-1.9v4.1h1.8V27h-10.4v-1.6h1.8V21.2z
									 M148.7,21.2h-2.8v4.1h2.8V21.2z"/>
								<path class="st3" d="M167.4,29.2v1.6h-12.5v-1.6h5.2v-2.1h-3.8v-4.7h7.7v-1.5h-7.7v-1.6h9.7V24h-7.7v1.5h8v1.6h-4.2v2.1
									H167.4z"/>
								<path class="st3" d="M174.5,26.5c-1.2-0.5-2-1.2-2.4-2.2c-0.5,1.1-1.3,2-2.6,2.5l-1-1.5c1.9-0.7,2.6-2.3,2.6-3.9V21h-2.2
									v-1.6h6.1V21h-2v0.4c0,1.5,0.7,2.9,2.4,3.6L174.5,26.5z M170.9,27.4h9.5v4.9h-2V29h-7.5V27.4z M175.8,21.9v-3.2h1.8v8.1
									h-1.8v-3.3h-1.5v-1.6H175.8z M180.4,18.5v8.4h-1.9v-8.4H180.4z"/>
								<path class="st3" d="M195,29.1v1.6h-12.5v-1.6H195z M193.6,27.2h-9.7v-7.7h9.6v1.6h-7.6v1.5h7.3v1.5h-7.3v1.5h7.7V27.2z"/>
							</g>
						</g>
						<g id="_x32__2_" transform="translate(0.000000, 102.000000)">
							<path id="bg_6_" class="st7" d="M8,0h318c4.4,0,8,3.6,8,8v34c0,4.4-3.6,8-8,8H8c-4.4,0-8-3.6-8-8V8C0,3.6,3.6,0,8,0z"/>
							<g class="st2">
								<path class="st3" d="M142.9,27.5c1.3,0,2.5-0.1,3.8-0.3l0.1,1.6c-1.7,0.3-3.1,0.4-4.9,0.4h-1v-9.1h5.1v1.6h-3.2V27.5z
									 M152.4,18.5v13.8h-1.9v-6.9h-1.2v6.3h-1.8V18.7h1.8v5.1h1.2v-5.3H152.4z"/>
								<path class="st3" d="M161.5,26.1c-1.5-0.5-2.5-1.4-3-2.6c-0.6,1.4-1.7,2.4-3.2,3l-1-1.6c2.3-0.8,3.2-2.6,3.2-4.5v-1.2h2v1.4
									c0,1.7,0.9,3.3,3.1,4L161.5,26.1z M165.4,29.6c0,1.7-1.8,2.7-4.7,2.7c-2.9,0-4.7-1-4.7-2.7c0-1.7,1.8-2.7,4.7-2.7
									C163.6,27,165.4,28,165.4,29.6z M163.4,29.6c0-0.8-0.9-1.1-2.7-1.1c-1.8,0-2.7,0.4-2.7,1.1c0,0.8,0.9,1.1,2.7,1.1
									C162.5,30.8,163.4,30.4,163.4,29.6z M167,21.7v1.6h-1.8v3.3h-2v-8.2h2v3.2H167z"/>
								<path class="st3" d="M175.9,25.4c-1.6-0.4-2.7-1.3-3.3-2.5c-0.6,1.3-1.8,2.3-3.4,2.8l-0.9-1.5c2.1-0.6,3.2-2,3.3-3.5h-2.8
									v-1.6h7.5v1.6h-2.7c0.1,1.3,1.2,2.7,3.2,3.2L175.9,25.4z M180,30.7v1.5h-9.5v-3.8h7.2v-0.8h-7.2v-1.5h9.2v3.7h-7.2v0.9H180z
									 M179.6,25.6h-2v-7.1h2V25.6z"/>
								<path class="st3" d="M190.5,27.3c-2.9,0.5-6.1,0.6-8.5,0.6l-0.2-1.5c1,0,2.1,0,3.3,0v-0.8c-1.5-0.2-2.4-1-2.4-2.1
									c0-1.3,1.3-2.1,3.4-2.1c2,0,3.4,0.8,3.4,2.1c0,1.1-0.9,1.8-2.4,2.1v0.7c1.1-0.1,2.2-0.2,3.3-0.3L190.5,27.3z M190,21h-7.8
									v-1.4h2.9v-1.2h2v1.2h2.9V21z M185.7,30.5h7.7V32h-9.7v-3.5h2V30.5z M186.1,24.3c0.9,0,1.5-0.3,1.5-0.8
									c0-0.5-0.6-0.8-1.5-0.8s-1.5,0.3-1.5,0.8C184.6,24,185.1,24.3,186.1,24.3z M194.6,23v1.6h-1.7v4.6h-2V18.5h2V23H194.6z"/>
							</g>
						</g>
						<g class="st2">
							<path d="M147,180.5c0.6-0.1,1.3-0.1,1.9-0.2l0.1,1.1c-2.8,0.5-5.9,0.5-8.3,0.5l-0.2-1.3c0.5,0,1.1,0,1.7,0v-6.4h-1.3V173h7.5
								v1.2H147V180.5z M143.7,180.6c0.6,0,1.2,0,1.8-0.1v-6.3h-1.8V180.6z M153.3,178.2h-2.1v7h-1.5v-13.6h1.5v5.3h2.1V178.2z"/>
							<path d="M161.6,172.6c0,3.7-1.8,6.3-6.3,7.7l-0.6-1.2c2.1-0.7,3.5-1.6,4.3-2.7l-4.2,0.3l-0.2-1.2l5-0.2
								c0.2-0.5,0.3-0.9,0.3-1.4h-4.6v-1.2H161.6z M166,183.7v1.2h-9.2v-4.2h1.6v3H166z M165.6,181.5h-1.5v-9.8h1.5V181.5z"/>
							<path d="M180.5,178.6v1.3h-12.3v-1.3H180.5z M179.2,177.5c-2.1-0.4-4-1.5-4.8-3c-0.9,1.5-2.7,2.6-4.8,3l-0.6-1.2
								c2.7-0.4,4.6-2.1,4.6-3.8V172h1.6v0.6c0,1.7,2,3.4,4.6,3.8L179.2,177.5z M171.4,183.6h7.8v1.3h-9.3V181h1.6V183.6z"/>
							<path d="M188.9,178.9h-6.2v-6.4h1.5v2h3.2v-2h1.5v1.3h2.8v-2.1h1.5v8.2h-1.5v-2h-2.8V178.9z M187.4,175.7h-3.2v2h3.2V175.7z
								 M193.3,182.6c0,1.6-1.7,2.6-4.6,2.6c-2.8,0-4.6-0.9-4.6-2.6c0-1.6,1.7-2.6,4.6-2.6C191.6,180,193.3,181,193.3,182.6z
								 M191.8,182.6c0-0.9-1.1-1.4-3-1.4s-3,0.5-3,1.4s1.1,1.4,3,1.4S191.8,183.5,191.8,182.6z M188.9,175v1.5h2.8V175H188.9z"/>
						</g>
						<g class="st2">
							<path d="M145.2,70.9h2.2v4.4h4.2v-4.4h2.2V82h-2.2v-4.8h-4.2V82h-2.2V70.9z"/>
							<path d="M158.6,76.3l-2.9-5.4h2.5l1.1,2.3c0.3,0.5,0.5,1.1,0.8,1.8h0.1c0.3-0.7,0.5-1.2,0.7-1.8l1-2.3h2.3l-2.9,5.5l3.1,5.6
								H162l-1.2-2.5c-0.3-0.6-0.5-1.2-0.9-1.8h-0.1c-0.3,0.7-0.5,1.3-0.8,1.8l-1.2,2.5h-2.4L158.6,76.3z"/>
							<path d="M165.3,80.7c3-2.7,4.8-4.8,4.8-6.5c0-1.1-0.6-1.8-1.7-1.8c-0.8,0-1.5,0.5-2,1.1l-1.2-1.2c1-1.1,2-1.7,3.5-1.7
								c2.1,0,3.5,1.3,3.5,3.4c0,2-1.7,4.2-3.7,6.1c0.6-0.1,1.3-0.1,1.8-0.1h2.4V82h-7.4V80.7z"/>
							<path d="M174.1,76.4c0-3.8,1.5-5.7,3.8-5.7c2.2,0,3.8,1.9,3.8,5.7s-1.5,5.8-3.8,5.8C175.6,82.2,174.1,80.2,174.1,76.4z
								 M179.6,76.4c0-3.1-0.7-4-1.7-4c-1,0-1.7,0.9-1.7,4c0,3.1,0.7,4.1,1.7,4.1C178.8,80.5,179.6,79.5,179.6,76.4z"/>
							<path d="M182.7,80.7l1-1.4c0.7,0.6,1.5,1.1,2.5,1.1c1.1,0,1.9-0.6,1.9-1.5c0-1.1-0.6-1.8-3.1-1.8v-1.6c2,0,2.7-0.7,2.7-1.7
								c0-0.9-0.5-1.4-1.5-1.4c-0.8,0-1.4,0.4-2.1,1l-1.1-1.3c1-0.8,2-1.4,3.3-1.4c2.1,0,3.6,1,3.6,3c0,1.2-0.7,2.1-1.9,2.5v0.1
								c1.3,0.3,2.2,1.3,2.2,2.7c0,2-1.8,3.2-3.9,3.2C184.7,82.2,183.5,81.5,182.7,80.7z"/>
						</g>
						<g id="_x32__3_" transform="translate(0.000000, 204.000000)">
							<path id="bg_7_" class="st8" d="M8.8,0.8h316.5c4.4,0,8,3.6,8,8v82.5c0,4.4-3.6,8-8,8H8.8c-4.4,0-8-3.6-8-8V8.8
								C0.8,4.3,4.3,0.8,8.8,0.8z"/>
							<g class="st2">
								<path class="st3" d="M155.3,51.8c-1.5-0.5-2.5-1.5-3.1-2.7c-0.6,1.4-1.7,2.5-3.3,3l-1-1.6c2.3-0.7,3.3-2.5,3.3-4.3V46h-2.7
									v-1.6h7.4V46h-2.7v0.2c0,1.6,0.9,3.3,3.1,4.1L155.3,51.8z M159.8,55.5V57h-9.4v-4.3h2v2.8H159.8z M157.5,47v-3.6h2v10.1h-2
									v-4.9h-2.2V47H157.5z"/>
								<path class="st3" d="M169.5,47.4c0,1.9-1.6,3.3-3.7,3.3c-2.1,0-3.8-1.4-3.8-3.3c0-2,1.6-3.3,3.8-3.3
									C167.8,44.1,169.5,45.5,169.5,47.4z M163.9,47.4c0,1,0.8,1.7,1.8,1.7c1,0,1.8-0.6,1.8-1.7c0-1-0.8-1.7-1.8-1.7
									C164.7,45.8,163.9,46.4,163.9,47.4z M173.2,51.9v5.2H164v-5.2H173.2z M166,53.5v2.1h5.3v-2.1H166z M173.2,43.5v7.8h-2v-7.8
									H173.2z"/>
								<path class="st3" d="M182.7,51.1c-1.5-0.5-2.5-1.4-3-2.6c-0.6,1.4-1.7,2.4-3.2,3l-1-1.6c2.3-0.8,3.2-2.6,3.2-4.5v-1.2h2v1.4
									c0,1.7,0.9,3.3,3.1,4L182.7,51.1z M186.6,54.6c0,1.7-1.8,2.7-4.7,2.7c-2.9,0-4.7-1-4.7-2.7c0-1.7,1.8-2.7,4.7-2.7
									C184.8,52,186.6,53,186.6,54.6z M184.6,54.6c0-0.8-0.9-1.1-2.7-1.1c-1.8,0-2.7,0.4-2.7,1.1c0,0.8,0.9,1.1,2.7,1.1
									C183.7,55.8,184.6,55.4,184.6,54.6z M188.2,46.7v1.6h-1.8v3.3h-2v-8.2h2v3.2H188.2z"/>
							</g>
						</g>
					</g>
				</g>
				<g id="table1_2_" transform="translate(0.000000, 708.000000)">
					<g id="cell1_2_">
						<g id="_x31__2_">
							<path id="bg_8_" class="st7" d="M8,0h318c4.4,0,8,3.6,8,8v34c0,4.4-3.6,8-8,8H8c-4.4,0-8-3.6-8-8V8C0,3.6,3.6,0,8,0z"/>
							<g class="st2">
								<path class="st3" d="M153.6,29.1v1.6H141v-1.6H153.6z M143.9,21.2H142v-1.6h10.5v1.6h-1.9v4.1h1.8V27h-10.4v-1.6h1.8V21.2z
									 M148.7,21.2h-2.8v4.1h2.8V21.2z"/>
								<path class="st3" d="M167.4,29.2v1.6h-12.5v-1.6h5.2v-2.1h-3.8v-4.7h7.7v-1.5h-7.7v-1.6h9.7V24h-7.7v1.5h8v1.6h-4.2v2.1
									H167.4z"/>
								<path class="st3" d="M174.5,26.5c-1.2-0.5-2-1.2-2.4-2.2c-0.5,1.1-1.3,2-2.6,2.5l-1-1.5c1.9-0.7,2.6-2.3,2.6-3.9V21h-2.2
									v-1.6h6.1V21h-2v0.4c0,1.5,0.7,2.9,2.4,3.6L174.5,26.5z M170.9,27.4h9.5v4.9h-2V29h-7.5V27.4z M175.8,21.9v-3.2h1.8v8.1
									h-1.8v-3.3h-1.5v-1.6H175.8z M180.4,18.5v8.4h-1.9v-8.4H180.4z"/>
								<path class="st3" d="M195,29.1v1.6h-12.5v-1.6H195z M193.6,27.2h-9.7v-7.7h9.6v1.6h-7.6v1.5h7.3v1.5h-7.3v1.5h7.7V27.2z"/>
							</g>
						</g>
						<g id="_x32__4_" transform="translate(0.000000, 102.000000)">
							<path id="bg_9_" class="st7" d="M8,0h318c4.4,0,8,3.6,8,8v34c0,4.4-3.6,8-8,8H8c-4.4,0-8-3.6-8-8V8C0,3.6,3.6,0,8,0z"/>
							<g class="st2">
								<path class="st3" d="M142.9,27.5c1.3,0,2.5-0.1,3.8-0.3l0.1,1.6c-1.7,0.3-3.1,0.4-4.9,0.4h-1v-9.1h5.1v1.6h-3.2V27.5z
									 M152.4,18.5v13.8h-1.9v-6.9h-1.2v6.3h-1.8V18.7h1.8v5.1h1.2v-5.3H152.4z"/>
								<path class="st3" d="M161.5,26.1c-1.5-0.5-2.5-1.4-3-2.6c-0.6,1.4-1.7,2.4-3.2,3l-1-1.6c2.3-0.8,3.2-2.6,3.2-4.5v-1.2h2v1.4
									c0,1.7,0.9,3.3,3.1,4L161.5,26.1z M165.4,29.6c0,1.7-1.8,2.7-4.7,2.7c-2.9,0-4.7-1-4.7-2.7c0-1.7,1.8-2.7,4.7-2.7
									C163.6,27,165.4,28,165.4,29.6z M163.4,29.6c0-0.8-0.9-1.1-2.7-1.1c-1.8,0-2.7,0.4-2.7,1.1c0,0.8,0.9,1.1,2.7,1.1
									C162.5,30.8,163.4,30.4,163.4,29.6z M167,21.7v1.6h-1.8v3.3h-2v-8.2h2v3.2H167z"/>
								<path class="st3" d="M175.9,25.4c-1.6-0.4-2.7-1.3-3.3-2.5c-0.6,1.3-1.8,2.3-3.4,2.8l-0.9-1.5c2.1-0.6,3.2-2,3.3-3.5h-2.8
									v-1.6h7.5v1.6h-2.7c0.1,1.3,1.2,2.7,3.2,3.2L175.9,25.4z M180,30.7v1.5h-9.5v-3.8h7.2v-0.8h-7.2v-1.5h9.2v3.7h-7.2v0.9H180z
									 M179.6,25.6h-2v-7.1h2V25.6z"/>
								<path class="st3" d="M190.5,27.3c-2.9,0.5-6.1,0.6-8.5,0.6l-0.2-1.5c1,0,2.1,0,3.3,0v-0.8c-1.5-0.2-2.4-1-2.4-2.1
									c0-1.3,1.3-2.1,3.4-2.1c2,0,3.4,0.8,3.4,2.1c0,1.1-0.9,1.8-2.4,2.1v0.7c1.1-0.1,2.2-0.2,3.3-0.3L190.5,27.3z M190,21h-7.8
									v-1.4h2.9v-1.2h2v1.2h2.9V21z M185.7,30.5h7.7V32h-9.7v-3.5h2V30.5z M186.1,24.3c0.9,0,1.5-0.3,1.5-0.8
									c0-0.5-0.6-0.8-1.5-0.8s-1.5,0.3-1.5,0.8C184.6,24,185.1,24.3,186.1,24.3z M194.6,23v1.6h-1.7v4.6h-2V18.5h2V23H194.6z"/>
							</g>
						</g>
						<g class="st2">
							<path d="M136.4,171.6v7.7h-1.5v-1.6h-3.3c-0.6,0.7-1.6,1.1-2.7,1.1c-2,0-3.5-1.3-3.5-3.2c0-1.9,1.5-3.2,3.5-3.2
								c1.1,0,2.1,0.4,2.7,1.1h3.3v-1.8H136.4z M130.9,175.6c0-1.2-0.9-2-2.1-2s-2.1,0.8-2.1,2s0.9,1.9,2.1,1.9
								S130.9,176.8,130.9,175.6z M127.5,180h8.9v5h-8.9V180z M129,183.8h5.9v-2.5H129V183.8z M134.9,176.5v-1.8h-2.6
								c0.1,0.3,0.1,0.6,0.1,0.9c0,0.3,0,0.6-0.1,0.9H134.9z"/>
							<path d="M151.2,178v1.2H139V178H151.2z M139.6,176.1c2.5-0.3,4.3-1.3,4.5-2.6h-3.9v-1.2h10v1.2h-4c0.2,1.2,1.9,2.3,4.5,2.6
								l-0.5,1.2c-2.4-0.3-4.2-1.2-5-2.6c-0.7,1.4-2.6,2.4-5,2.6L139.6,176.1z M149.7,182.7c0,1.6-1.8,2.5-4.7,2.5
								c-2.9,0-4.7-0.9-4.7-2.5c0-1.6,1.8-2.5,4.7-2.5C148,180.2,149.7,181.1,149.7,182.7z M148.2,182.7c0-0.8-1.1-1.3-3.1-1.3
								c-2,0-3.1,0.4-3.1,1.3c0,0.8,1.1,1.3,3.1,1.3C147,183.9,148.2,183.5,148.2,182.7z"/>
							<path d="M160,179c-1.5-0.5-2.5-1.5-3.1-2.9c-0.6,1.5-1.7,2.7-3.4,3.3l-0.8-1.2c2.2-0.7,3.4-2.6,3.4-4.5v-1.3h1.6v1.3
								c0,1.9,1.1,3.6,3.2,4.2L160,179z M164.1,182.6c0,1.6-1.7,2.6-4.6,2.6c-2.8,0-4.6-1-4.6-2.6c0-1.6,1.7-2.6,4.6-2.6
								C162.3,180,164.1,180.9,164.1,182.6z M162.5,182.6c0-0.9-1.1-1.4-3-1.4s-3,0.5-3,1.4c0,0.9,1.1,1.4,3,1.4
								S162.5,183.4,162.5,182.6z M162.5,175.6h-2.7v-1.3h2.7v-2.7h1.5v8h-1.5V175.6z"/>
							<path d="M177.2,179.2c-1.5-0.5-2.6-1.5-3.2-2.7c-0.6,1.4-1.7,2.6-3.4,3.1l-0.8-1.2c2.1-0.7,3.3-2.5,3.3-4.3v-0.3h-2.9v-1.2
								h7.3v1.2h-2.8v0.3c0,1.7,1.1,3.3,3.2,3.9L177.2,179.2z M180.7,182.6c0,1.6-1.7,2.6-4.5,2.6s-4.5-1-4.5-2.6
								c0-1.6,1.7-2.6,4.5-2.6S180.7,181,180.7,182.6z M179.1,182.6c0-0.9-1.1-1.3-3-1.3s-3,0.5-3,1.3c0,0.9,1.1,1.4,3,1.4
								S179.1,183.5,179.1,182.6z M182.4,174.9v1.3h-1.9v3.5H179v-8.1h1.5v3.3H182.4z"/>
							<path d="M191.4,178.4c-1.6-0.5-2.8-1.5-3.4-2.7c-0.6,1.4-1.8,2.5-3.4,3l-0.7-1.2c2.1-0.6,3.3-2.2,3.4-3.9h-2.9v-1.2h7.4v1.2
								h-2.9c0,1.6,1.2,3.1,3.3,3.6L191.4,178.4z M195.3,183.8v1.2h-9.3v-3.5h7.3v-1.1H186v-1.2h8.9v3.4h-7.3v1.2H195.3z
								 M194.9,178.6h-1.6v-7h1.6V178.6z"/>
							<path d="M206,180.1c-2.8,0.5-6.1,0.6-8.4,0.6l-0.2-1.2c1,0,2.2,0,3.5,0v-0.9c-1.5-0.2-2.5-0.9-2.5-2c0-1.3,1.3-2.1,3.2-2.1
								s3.2,0.8,3.2,2.1c0,1.1-0.9,1.8-2.4,2v0.9c1.2-0.1,2.4-0.2,3.5-0.3L206,180.1z M205.5,174h-7.7v-1.1h3.1v-1.3h1.6v1.3h3.1
								V174z M200.9,183.6h7.7v1.3h-9.2v-3.4h1.5V183.6z M201.6,177.5c1.1,0,1.8-0.4,1.8-1c0-0.6-0.7-1-1.8-1s-1.8,0.4-1.8,1
								C199.9,177.2,200.6,177.5,201.6,177.5z M210,176.2v1.3h-1.9v4.7h-1.5v-10.6h1.5v4.6H210z"/>
						</g>
						<g class="st2">
							<path d="M145.2,70.9h2.2v4.4h4.2v-4.4h2.2V82h-2.2v-4.8h-4.2V82h-2.2V70.9z"/>
							<path d="M158.6,76.3l-2.9-5.4h2.5l1.1,2.3c0.3,0.5,0.5,1.1,0.8,1.8h0.1c0.3-0.7,0.5-1.2,0.7-1.8l1-2.3h2.3l-2.9,5.5l3.1,5.6
								H162l-1.2-2.5c-0.3-0.6-0.5-1.2-0.9-1.8h-0.1c-0.3,0.7-0.5,1.3-0.8,1.8l-1.2,2.5h-2.4L158.6,76.3z"/>
							<path d="M165.3,80.7c3-2.7,4.8-4.8,4.8-6.5c0-1.1-0.6-1.8-1.7-1.8c-0.8,0-1.5,0.5-2,1.1l-1.2-1.2c1-1.1,2-1.7,3.5-1.7
								c2.1,0,3.5,1.3,3.5,3.4c0,2-1.7,4.2-3.7,6.1c0.6-0.1,1.3-0.1,1.8-0.1h2.4V82h-7.4V80.7z"/>
							<path d="M174.1,76.4c0-3.8,1.5-5.7,3.8-5.7c2.2,0,3.8,1.9,3.8,5.7s-1.5,5.8-3.8,5.8C175.6,82.2,174.1,80.2,174.1,76.4z
								 M179.6,76.4c0-3.1-0.7-4-1.7-4c-1,0-1.7,0.9-1.7,4c0,3.1,0.7,4.1,1.7,4.1C178.8,80.5,179.6,79.5,179.6,76.4z"/>
							<path d="M190.7,79.1h-1.3V82h-2.1v-2.9h-4.7v-1.5l4.1-6.7h2.6v6.5h1.3V79.1z M187.3,77.4v-2.3c0-0.6,0.1-1.6,0.1-2.3h-0.1
								c-0.3,0.6-0.6,1.2-0.9,1.8l-1.7,2.8H187.3z"/>
						</g>
						<g id="_x32__5_" transform="translate(0.000000, 204.000000)">
							<path id="bg_10_" class="st8" d="M8.8,0.8h316.5c4.4,0,8,3.6,8,8v82.5c0,4.4-3.6,8-8,8H8.8c-4.4,0-8-3.6-8-8V8.8
								C0.8,4.3,4.3,0.8,8.8,0.8z"/>
							<g class="st2">
								<path class="st3" d="M155.3,51.8c-1.5-0.5-2.5-1.5-3.1-2.7c-0.6,1.4-1.7,2.5-3.3,3l-1-1.6c2.3-0.7,3.3-2.5,3.3-4.3V46h-2.7
									v-1.6h7.4V46h-2.7v0.2c0,1.6,0.9,3.3,3.1,4.1L155.3,51.8z M159.8,55.5V57h-9.4v-4.3h2v2.8H159.8z M157.5,47v-3.6h2v10.1h-2
									v-4.9h-2.2V47H157.5z"/>
								<path class="st3" d="M169.5,47.4c0,1.9-1.6,3.3-3.7,3.3c-2.1,0-3.8-1.4-3.8-3.3c0-2,1.6-3.3,3.8-3.3
									C167.8,44.1,169.5,45.5,169.5,47.4z M163.9,47.4c0,1,0.8,1.7,1.8,1.7c1,0,1.8-0.6,1.8-1.7c0-1-0.8-1.7-1.8-1.7
									C164.7,45.8,163.9,46.4,163.9,47.4z M173.2,51.9v5.2H164v-5.2H173.2z M166,53.5v2.1h5.3v-2.1H166z M173.2,43.5v7.8h-2v-7.8
									H173.2z"/>
								<path class="st3" d="M182.7,51.1c-1.5-0.5-2.5-1.4-3-2.6c-0.6,1.4-1.7,2.4-3.2,3l-1-1.6c2.3-0.8,3.2-2.6,3.2-4.5v-1.2h2v1.4
									c0,1.7,0.9,3.3,3.1,4L182.7,51.1z M186.6,54.6c0,1.7-1.8,2.7-4.7,2.7c-2.9,0-4.7-1-4.7-2.7c0-1.7,1.8-2.7,4.7-2.7
									C184.8,52,186.6,53,186.6,54.6z M184.6,54.6c0-0.8-0.9-1.1-2.7-1.1c-1.8,0-2.7,0.4-2.7,1.1c0,0.8,0.9,1.1,2.7,1.1
									C183.7,55.8,184.6,55.4,184.6,54.6z M188.2,46.7v1.6h-1.8v3.3h-2v-8.2h2v3.2H188.2z"/>
							</g>
						</g>
					</g>
				</g>
				<g id="table1_3_" transform="translate(0.000000, 1062.000000)">
					<g id="cell1_3_">
						<g id="_x31__3_">
							<path id="bg_11_" class="st7" d="M8,0h318c4.4,0,8,3.6,8,8v34c0,4.4-3.6,8-8,8H8c-4.4,0-8-3.6-8-8V8C0,3.6,3.6,0,8,0z"/>
							<g class="st2">
								<path class="st3" d="M153.6,29.1v1.6H141v-1.6H153.6z M143.9,21.2H142v-1.6h10.5v1.6h-1.9v4.1h1.8V27h-10.4v-1.6h1.8V21.2z
									 M148.7,21.2h-2.8v4.1h2.8V21.2z"/>
								<path class="st3" d="M167.4,29.2v1.6h-12.5v-1.6h5.2v-2.1h-3.8v-4.7h7.7v-1.5h-7.7v-1.6h9.7V24h-7.7v1.5h8v1.6h-4.2v2.1
									H167.4z"/>
								<path class="st3" d="M174.5,26.5c-1.2-0.5-2-1.2-2.4-2.2c-0.5,1.1-1.3,2-2.6,2.5l-1-1.5c1.9-0.7,2.6-2.3,2.6-3.9V21h-2.2
									v-1.6h6.1V21h-2v0.4c0,1.5,0.7,2.9,2.4,3.6L174.5,26.5z M170.9,27.4h9.5v4.9h-2V29h-7.5V27.4z M175.8,21.9v-3.2h1.8v8.1
									h-1.8v-3.3h-1.5v-1.6H175.8z M180.4,18.5v8.4h-1.9v-8.4H180.4z"/>
								<path class="st3" d="M195,29.1v1.6h-12.5v-1.6H195z M193.6,27.2h-9.7v-7.7h9.6v1.6h-7.6v1.5h7.3v1.5h-7.3v1.5h7.7V27.2z"/>
							</g>
						</g>
						<g id="_x32__6_" transform="translate(0.000000, 102.000000)">
							<path id="bg_12_" class="st7" d="M8,0h318c4.4,0,8,3.6,8,8v34c0,4.4-3.6,8-8,8H8c-4.4,0-8-3.6-8-8V8C0,3.6,3.6,0,8,0z"/>
							<g class="st2">
								<path class="st3" d="M142.9,27.5c1.3,0,2.5-0.1,3.8-0.3l0.1,1.6c-1.7,0.3-3.1,0.4-4.9,0.4h-1v-9.1h5.1v1.6h-3.2V27.5z
									 M152.4,18.5v13.8h-1.9v-6.9h-1.2v6.3h-1.8V18.7h1.8v5.1h1.2v-5.3H152.4z"/>
								<path class="st3" d="M161.5,26.1c-1.5-0.5-2.5-1.4-3-2.6c-0.6,1.4-1.7,2.4-3.2,3l-1-1.6c2.3-0.8,3.2-2.6,3.2-4.5v-1.2h2v1.4
									c0,1.7,0.9,3.3,3.1,4L161.5,26.1z M165.4,29.6c0,1.7-1.8,2.7-4.7,2.7c-2.9,0-4.7-1-4.7-2.7c0-1.7,1.8-2.7,4.7-2.7
									C163.6,27,165.4,28,165.4,29.6z M163.4,29.6c0-0.8-0.9-1.1-2.7-1.1c-1.8,0-2.7,0.4-2.7,1.1c0,0.8,0.9,1.1,2.7,1.1
									C162.5,30.8,163.4,30.4,163.4,29.6z M167,21.7v1.6h-1.8v3.3h-2v-8.2h2v3.2H167z"/>
								<path class="st3" d="M175.9,25.4c-1.6-0.4-2.7-1.3-3.3-2.5c-0.6,1.3-1.8,2.3-3.4,2.8l-0.9-1.5c2.1-0.6,3.2-2,3.3-3.5h-2.8
									v-1.6h7.5v1.6h-2.7c0.1,1.3,1.2,2.7,3.2,3.2L175.9,25.4z M180,30.7v1.5h-9.5v-3.8h7.2v-0.8h-7.2v-1.5h9.2v3.7h-7.2v0.9H180z
									 M179.6,25.6h-2v-7.1h2V25.6z"/>
								<path class="st3" d="M190.5,27.3c-2.9,0.5-6.1,0.6-8.5,0.6l-0.2-1.5c1,0,2.1,0,3.3,0v-0.8c-1.5-0.2-2.4-1-2.4-2.1
									c0-1.3,1.3-2.1,3.4-2.1c2,0,3.4,0.8,3.4,2.1c0,1.1-0.9,1.8-2.4,2.1v0.7c1.1-0.1,2.2-0.2,3.3-0.3L190.5,27.3z M190,21h-7.8
									v-1.4h2.9v-1.2h2v1.2h2.9V21z M185.7,30.5h7.7V32h-9.7v-3.5h2V30.5z M186.1,24.3c0.9,0,1.5-0.3,1.5-0.8
									c0-0.5-0.6-0.8-1.5-0.8s-1.5,0.3-1.5,0.8C184.6,24,185.1,24.3,186.1,24.3z M194.6,23v1.6h-1.7v4.6h-2V18.5h2V23H194.6z"/>
							</g>
						</g>
						<g class="st2">
							<path d="M131.9,175.3c0,2.3,0.9,4.7,2.8,5.7l-0.9,1.1c-1.3-0.8-2.1-2.1-2.6-3.7c-0.5,1.7-1.3,3.2-2.7,4l-0.9-1.1
								c1.9-1.2,2.8-3.6,2.8-6.1v-1H128v-1.3h6.1v1.3h-2.2V175.3z M135.2,171.9h1.5v12.6h-1.5v-6.9h-2v-1.3h2V171.9z M139.4,171.6
								v13.5h-1.5v-13.5H139.4z"/>
							<path d="M141.5,183c3.3-2.9,4.9-5,4.9-6.8c0-1.2-0.6-2-1.9-2c-0.9,0-1.6,0.6-2.2,1.2l-1-1c0.9-1,1.9-1.7,3.4-1.7
								c2,0,3.3,1.3,3.3,3.3c0,2.1-1.7,4.3-4,6.6c0.6-0.1,1.3-0.1,1.8-0.1h2.8v1.5h-7.1V183z"/>
							<path d="M157.7,174.2h-7.5V173h3v-1.5h1.5v1.5h2.9V174.2z M154,179.9c-1.8,0-3.1-1-3.1-2.5c0-1.5,1.3-2.5,3.1-2.5
								c1.8,0,3.1,1,3.1,2.5C157.1,178.8,155.8,179.9,154,179.9z M161.4,182.8c0,1.5-1.8,2.4-4.6,2.4c-2.8,0-4.6-0.9-4.6-2.4
								c0-1.5,1.7-2.3,4.6-2.3C159.7,180.5,161.4,181.3,161.4,182.8z M154,178.7c1,0,1.7-0.5,1.7-1.4c0-0.8-0.7-1.3-1.7-1.3
								c-1,0-1.7,0.5-1.7,1.3C152.3,178.2,153,178.7,154,178.7z M159.8,182.8c0-0.8-1.1-1.2-2.9-1.2c-1.9,0-3,0.4-3,1.2
								c0,0.8,1.1,1.2,3,1.2C158.7,184,159.8,183.6,159.8,182.8z M159.8,178.7h-2.1v-1.2h2.1V176h-2v-1.3h2v-3.1h1.5v8.7h-1.5V178.7
								z"/>
							<path d="M175.3,178.2c-1.8,0.4-3.4,0.5-6.3,0.5h-1.1v-6.1h6v1.3h-4.5v3.6c2.6,0,4-0.1,5.7-0.5L175.3,178.2z M178.1,182.5
								c0,1.7-1.7,2.7-4.5,2.7c-2.8,0-4.5-1-4.5-2.7c0-1.7,1.7-2.7,4.5-2.7C176.3,179.8,178.1,180.8,178.1,182.5z M176.5,182.5
								c0-0.9-1.1-1.4-3-1.4s-3,0.5-3,1.4s1.1,1.4,3,1.4S176.5,183.4,176.5,182.5z M179.8,175v1.3h-1.9v3.3h-1.6v-8h1.6v3.4H179.8z"
								/>
							<path d="M193.4,182.2v1.3h-12.3v-1.3h3.3v-3.2h-1.8v-6.1h1.5v4.9h7.9v1.2h-1.9v3.2H193.4z M185.9,182.2h2.7v-3.2h-2.7V182.2z
								"/>
							<path d="M201.8,178.9h-6.2v-6.4h1.5v2h3.2v-2h1.5v1.3h2.8v-2.1h1.5v8.2h-1.5v-2h-2.8V178.9z M200.3,175.7h-3.2v2h3.2V175.7z
								 M206.2,182.6c0,1.6-1.7,2.6-4.6,2.6c-2.8,0-4.6-0.9-4.6-2.6c0-1.6,1.7-2.6,4.6-2.6C204.5,180,206.2,181,206.2,182.6z
								 M204.7,182.6c0-0.9-1.1-1.4-3-1.4s-3,0.5-3,1.4s1.1,1.4,3,1.4S204.7,183.5,204.7,182.6z M201.8,175v1.5h2.8V175H201.8z"/>
						</g>
						<g class="st2">
							<path d="M145.2,70.9h2.2v4.4h4.2v-4.4h2.2V82h-2.2v-4.8h-4.2V82h-2.2V70.9z"/>
							<path d="M158.6,76.3l-2.9-5.4h2.5l1.1,2.3c0.3,0.5,0.5,1.1,0.8,1.8h0.1c0.3-0.7,0.5-1.2,0.7-1.8l1-2.3h2.3l-2.9,5.5l3.1,5.6
								H162l-1.2-2.5c-0.3-0.6-0.5-1.2-0.9-1.8h-0.1c-0.3,0.7-0.5,1.3-0.8,1.8l-1.2,2.5h-2.4L158.6,76.3z"/>
							<path d="M165.3,80.7c3-2.7,4.8-4.8,4.8-6.5c0-1.1-0.6-1.8-1.7-1.8c-0.8,0-1.5,0.5-2,1.1l-1.2-1.2c1-1.1,2-1.7,3.5-1.7
								c2.1,0,3.5,1.3,3.5,3.4c0,2-1.7,4.2-3.7,6.1c0.6-0.1,1.3-0.1,1.8-0.1h2.4V82h-7.4V80.7z"/>
							<path d="M174.1,76.4c0-3.8,1.5-5.7,3.8-5.7c2.2,0,3.8,1.9,3.8,5.7s-1.5,5.8-3.8,5.8C175.6,82.2,174.1,80.2,174.1,76.4z
								 M179.6,76.4c0-3.1-0.7-4-1.7-4c-1,0-1.7,0.9-1.7,4c0,3.1,0.7,4.1,1.7,4.1C178.8,80.5,179.6,79.5,179.6,76.4z"/>
							<path d="M182.7,80.7l1-1.4c0.6,0.6,1.4,1.1,2.4,1.1c1.2,0,2-0.7,2-2c0-1.3-0.8-2-1.9-2c-0.7,0-1,0.2-1.7,0.6l-1-0.7l0.3-5.4
								h5.9v1.8h-4l-0.2,2.4c0.4-0.2,0.8-0.3,1.3-0.3c1.9,0,3.4,1.1,3.4,3.5c0,2.5-1.8,3.9-3.9,3.9
								C184.7,82.2,183.5,81.5,182.7,80.7z"/>
						</g>
						<g id="_x32__7_" transform="translate(0.000000, 204.000000)">
							<path id="bg_13_" class="st8" d="M8.8,0.8h316.5c4.4,0,8,3.6,8,8v82.5c0,4.4-3.6,8-8,8H8.8c-4.4,0-8-3.6-8-8V8.8
								C0.8,4.3,4.3,0.8,8.8,0.8z"/>
							<g class="st2">
								<path class="st3" d="M148.4,44.9c0,4.2-1.4,7.7-6.3,10l-1-1.6c3.5-1.7,5.1-3.9,5.3-6.9h-4.6v-1.6H148.4z M152.5,43.5v13.8
									h-2V43.5H152.5z"/>
								<path class="st3" d="M167.4,54.1v1.6h-12.5v-1.6h5.3v-2.7h2v2.7H167.4z M155.2,50.4c3.1-0.4,4.7-1.9,4.8-3.4h-4.2v-1.6h4.2
									v-1.7h2v1.7h4.2v1.6h-4.2c0.2,1.5,1.7,3.1,4.8,3.4l-0.7,1.6c-2.5-0.3-4.2-1.3-5.1-2.8c-0.9,1.4-2.7,2.4-5.1,2.8L155.2,50.4z
									"/>
								<path class="st3" d="M175.2,50.3c-0.7,0.7-1.6,1.1-2.7,1.1c-2,0-3.6-1.5-3.6-3.6c0-2.1,1.6-3.6,3.6-3.6c1.1,0,2,0.4,2.7,1.1
									h3.1v-1.9h2v10.1h-2v-3.3H175.2z M172.5,49.7c1,0,1.8-0.7,1.8-1.9c0-1.1-0.8-1.8-1.8-1.8c-1,0-1.8,0.7-1.8,1.8
									C170.7,49,171.5,49.7,172.5,49.7z M180.5,55.5V57h-9.4v-4.5h2v2.9H180.5z M176,47c0.1,0.3,0.1,0.6,0.1,0.9
									c0,0.3,0,0.6-0.1,0.9h2.2V47H176z"/>
								<path class="st3" d="M194.9,51.7h-5.3v5.5h-2v-5.5h-5.2v-1.6h8.7c0.3-1.8,0.4-3.1,0.4-4.3h-7.6v-1.6h9.6v1.2
									c0,1.3,0,2.7-0.3,4.6h1.8V51.7z"/>
							</g>
						</g>
					</g>
				</g>
			</g>
			<g id="pipeline_img2_mobile" transform="translate(1.000000, 2122.000000)">
				<g id="table1_4_">
					<g id="cell1_4_">
						<g id="_x31__4_">
							<path id="bg_14_" class="st7" d="M8,0h318c4.4,0,8,3.6,8,8v34c0,4.4-3.6,8-8,8H8c-4.4,0-8-3.6-8-8V8C0,3.6,3.6,0,8,0z"/>
							<g class="st2">
								<path class="st3" d="M153.6,29.1v1.6H141v-1.6H153.6z M143.9,21.2H142v-1.6h10.5v1.6h-1.9v4.1h1.8V27h-10.4v-1.6h1.8V21.2z
									 M148.7,21.2h-2.8v4.1h2.8V21.2z"/>
								<path class="st3" d="M167.4,29.2v1.6h-12.5v-1.6h5.2v-2.1h-3.8v-4.7h7.7v-1.5h-7.7v-1.6h9.7V24h-7.7v1.5h8v1.6h-4.2v2.1
									H167.4z"/>
								<path class="st3" d="M174.5,26.5c-1.2-0.5-2-1.2-2.4-2.2c-0.5,1.1-1.3,2-2.6,2.5l-1-1.5c1.9-0.7,2.6-2.3,2.6-3.9V21h-2.2
									v-1.6h6.1V21h-2v0.4c0,1.5,0.7,2.9,2.4,3.6L174.5,26.5z M170.9,27.4h9.5v4.9h-2V29h-7.5V27.4z M175.8,21.9v-3.2h1.8v8.1
									h-1.8v-3.3h-1.5v-1.6H175.8z M180.4,18.5v8.4h-1.9v-8.4H180.4z"/>
								<path class="st3" d="M195,29.1v1.6h-12.5v-1.6H195z M193.6,27.2h-9.7v-7.7h9.6v1.6h-7.6v1.5h7.3v1.5h-7.3v1.5h7.7V27.2z"/>
							</g>
						</g>
						<g id="_x32__8_" transform="translate(0.000000, 102.000000)">
							<path id="bg_15_" class="st7" d="M8,0h318c4.4,0,8,3.6,8,8v34c0,4.4-3.6,8-8,8H8c-4.4,0-8-3.6-8-8V8C0,3.6,3.6,0,8,0z"/>
							<g class="st2">
								<path class="st3" d="M142.9,27.5c1.3,0,2.5-0.1,3.8-0.3l0.1,1.6c-1.7,0.3-3.1,0.4-4.9,0.4h-1v-9.1h5.1v1.6h-3.2V27.5z
									 M152.4,18.5v13.8h-1.9v-6.9h-1.2v6.3h-1.8V18.7h1.8v5.1h1.2v-5.3H152.4z"/>
								<path class="st3" d="M161.5,26.1c-1.5-0.5-2.5-1.4-3-2.6c-0.6,1.4-1.7,2.4-3.2,3l-1-1.6c2.3-0.8,3.2-2.6,3.2-4.5v-1.2h2v1.4
									c0,1.7,0.9,3.3,3.1,4L161.5,26.1z M165.4,29.6c0,1.7-1.8,2.7-4.7,2.7c-2.9,0-4.7-1-4.7-2.7c0-1.7,1.8-2.7,4.7-2.7
									C163.6,27,165.4,28,165.4,29.6z M163.4,29.6c0-0.8-0.9-1.1-2.7-1.1c-1.8,0-2.7,0.4-2.7,1.1c0,0.8,0.9,1.1,2.7,1.1
									C162.5,30.8,163.4,30.4,163.4,29.6z M167,21.7v1.6h-1.8v3.3h-2v-8.2h2v3.2H167z"/>
								<path class="st3" d="M175.9,25.4c-1.6-0.4-2.7-1.3-3.3-2.5c-0.6,1.3-1.8,2.3-3.4,2.8l-0.9-1.5c2.1-0.6,3.2-2,3.3-3.5h-2.8
									v-1.6h7.5v1.6h-2.7c0.1,1.3,1.2,2.7,3.2,3.2L175.9,25.4z M180,30.7v1.5h-9.5v-3.8h7.2v-0.8h-7.2v-1.5h9.2v3.7h-7.2v0.9H180z
									 M179.6,25.6h-2v-7.1h2V25.6z"/>
								<path class="st3" d="M190.5,27.3c-2.9,0.5-6.1,0.6-8.5,0.6l-0.2-1.5c1,0,2.1,0,3.3,0v-0.8c-1.5-0.2-2.4-1-2.4-2.1
									c0-1.3,1.3-2.1,3.4-2.1c2,0,3.4,0.8,3.4,2.1c0,1.1-0.9,1.8-2.4,2.1v0.7c1.1-0.1,2.2-0.2,3.3-0.3L190.5,27.3z M190,21h-7.8
									v-1.4h2.9v-1.2h2v1.2h2.9V21z M185.7,30.5h7.7V32h-9.7v-3.5h2V30.5z M186.1,24.3c0.9,0,1.5-0.3,1.5-0.8
									c0-0.5-0.6-0.8-1.5-0.8s-1.5,0.3-1.5,0.8C184.6,24,185.1,24.3,186.1,24.3z M194.6,23v1.6h-1.7v4.6h-2V18.5h2V23H194.6z"/>
							</g>
						</g>
						<g class="st2">
							<path d="M123.6,180.5c0.4,0,0.8-0.1,1.2-0.1l0.1,1.1c-2.1,0.4-4.8,0.4-6.6,0.4l-0.2-1.3c0.4,0,0.8,0,1.3,0v-6.2h-1v-1.2h6.2
								v1.2h-1V180.5z M120.8,180.7c0.5,0,0.9,0,1.4,0v-6.2h-1.4V180.7z M125.8,171.9h1.5v12.6h-1.5v-5h-1.6v-1.3h1.6v-1.5h-1.6
								v-1.3h1.6V171.9z M129.9,171.6v13.6h-1.5v-13.6H129.9z"/>
							<path d="M138.6,175.2c-0.8,2.2-2.8,3.7-5.8,4.5l-0.6-1.2c3.2-0.9,4.9-2.5,5.2-4.7h-4.5v-1.2h6.1c0,0.5,0,0.9-0.1,1.3h2.8
								v-2.3h1.5v8h-1.5V178h-3.3v-1.3h3.3v-1.6H138.6z M143.4,182.4c0,1.7-1.8,2.7-4.5,2.7c-2.7,0-4.5-1-4.5-2.7
								c0-1.7,1.8-2.7,4.5-2.7C141.6,179.7,143.4,180.8,143.4,182.4z M141.9,182.4c0-0.9-1.2-1.5-3-1.5c-1.8,0-3,0.5-3,1.5
								c0,0.9,1.2,1.5,3,1.5C140.7,183.9,141.9,183.4,141.9,182.4z"/>
							<path d="M153.1,173c0,4-1.6,7.5-6.3,9.7l-0.8-1.2c3.6-1.7,5.2-4.1,5.5-7.2h-4.8V173H153.1z M157.1,171.6v13.5h-1.5v-13.5
								H157.1z"/>
							<path d="M175.3,178.4v1.2h-5.2v2.5h-1.5v-2.5H163v-1.2H175.3z M174,177.4c-2.2-0.3-4-1.4-4.9-2.9c-0.9,1.5-2.7,2.6-4.8,3
								l-0.6-1.2c2.7-0.4,4.6-2,4.6-3.7V172h1.6v0.6c0,1.7,2,3.3,4.7,3.7L174,177.4z M166.1,183.6h7.9v1.3h-9.4V181h1.5V183.6z"/>
							<path d="M185.3,180.1c-2.8,0.5-6.1,0.6-8.4,0.6l-0.2-1.2c1,0,2.2,0,3.4,0v-0.9c-1.5-0.2-2.5-0.9-2.5-2c0-1.3,1.3-2.1,3.2-2.1
								c1.9,0,3.2,0.8,3.2,2.1c0,1.1-0.9,1.8-2.4,2v0.9c1.2-0.1,2.4-0.2,3.4-0.3L185.3,180.1z M184.8,174h-7.7v-1.1h3.1v-1.3h1.6
								v1.3h3.1V174z M180.2,183.6h7.7v1.3h-9.2v-3.4h1.5V183.6z M180.9,177.5c1.1,0,1.8-0.4,1.8-1c0-0.6-0.7-1-1.8-1
								s-1.8,0.4-1.8,1C179.2,177.2,179.9,177.5,180.9,177.5z M189.3,176.2v1.3h-1.9v4.7h-1.5v-10.6h1.5v4.6H189.3z"/>
							<path d="M197.9,179.2c-1.5-0.5-2.6-1.5-3.2-2.7c-0.6,1.4-1.7,2.6-3.4,3.1l-0.8-1.2c2.1-0.7,3.3-2.5,3.3-4.3v-0.3H191v-1.2
								h7.3v1.2h-2.8v0.3c0,1.7,1.1,3.3,3.2,3.9L197.9,179.2z M201.4,182.6c0,1.6-1.7,2.6-4.5,2.6c-2.8,0-4.5-1-4.5-2.6
								c0-1.6,1.7-2.6,4.5-2.6C199.7,180,201.4,181,201.4,182.6z M199.8,182.6c0-0.9-1.1-1.3-3-1.3c-1.9,0-3,0.5-3,1.3
								c0,0.9,1.1,1.4,3,1.4C198.8,183.9,199.8,183.5,199.8,182.6z M203.1,174.9v1.3h-1.9v3.5h-1.5v-8.1h1.5v3.3H203.1z"/>
							<path d="M210.4,177.5c0,3-1.2,4.8-2.9,4.8s-2.9-1.8-2.9-4.8c0-3,1.2-4.8,2.9-4.8S210.4,174.5,210.4,177.5z M209,177.5
								c0-2.1-0.6-3.4-1.5-3.4s-1.5,1.2-1.5,3.4c0,2.1,0.6,3.3,1.5,3.3S209,179.6,209,177.5z M216,171.6v13.5h-1.5v-7H213v6.4h-1.5
								v-12.6h1.5v5h1.5v-5.3H216z"/>
						</g>
						<g class="st2">
							<path d="M145.2,70.9h2.2v4.4h4.2v-4.4h2.2V82h-2.2v-4.8h-4.2V82h-2.2V70.9z"/>
							<path d="M158.6,76.3l-2.9-5.4h2.5l1.1,2.3c0.3,0.5,0.5,1.1,0.8,1.8h0.1c0.3-0.7,0.5-1.2,0.7-1.8l1-2.3h2.3l-2.9,5.5l3.1,5.6
								H162l-1.2-2.5c-0.3-0.6-0.5-1.2-0.9-1.8h-0.1c-0.3,0.7-0.5,1.3-0.8,1.8l-1.2,2.5h-2.4L158.6,76.3z"/>
							<path d="M165,80.7l1-1.4c0.7,0.6,1.5,1.1,2.5,1.1c1.1,0,1.9-0.6,1.9-1.5c0-1.1-0.6-1.8-3.1-1.8v-1.6c2,0,2.7-0.7,2.7-1.7
								c0-0.9-0.5-1.4-1.5-1.4c-0.8,0-1.4,0.4-2.1,1l-1.1-1.3c1-0.8,2-1.4,3.3-1.4c2.1,0,3.6,1,3.6,3c0,1.2-0.7,2.1-1.9,2.5v0.1
								c1.3,0.3,2.2,1.3,2.2,2.7c0,2-1.8,3.2-3.9,3.2C167,82.2,165.8,81.5,165,80.7z"/>
							<path d="M174.1,76.4c0-3.8,1.5-5.7,3.8-5.7c2.2,0,3.8,1.9,3.8,5.7s-1.5,5.8-3.8,5.8C175.6,82.2,174.1,80.2,174.1,76.4z
								 M179.6,76.4c0-3.1-0.7-4-1.7-4c-1,0-1.7,0.9-1.7,4c0,3.1,0.7,4.1,1.7,4.1C178.8,80.5,179.6,79.5,179.6,76.4z"/>
							<path d="M183.5,80.2h2.4v-7h-2v-1.4c1.1-0.2,1.9-0.5,2.6-0.9h1.6v9.3h2.1V82h-6.7V80.2z"/>
						</g>
						<g id="_x32__9_" transform="translate(0.000000, 204.000000)">
							<path id="bg_16_" class="st8" d="M8.8,0.8h316.5c4.4,0,8,3.6,8,8v82.5c0,4.4-3.6,8-8,8H8.8c-4.4,0-8-3.6-8-8V8.8
								C0.8,4.3,4.3,0.8,8.8,0.8z"/>
							<g class="st2">
								<path class="st3" d="M155.3,51.8c-1.5-0.5-2.5-1.5-3.1-2.7c-0.6,1.4-1.7,2.5-3.3,3l-1-1.6c2.3-0.7,3.3-2.5,3.3-4.3V46h-2.7
									v-1.6h7.4V46h-2.7v0.2c0,1.6,0.9,3.3,3.1,4.1L155.3,51.8z M159.8,55.5V57h-9.4v-4.3h2v2.8H159.8z M157.5,47v-3.6h2v10.1h-2
									v-4.9h-2.2V47H157.5z"/>
								<path class="st3" d="M169.5,47.4c0,1.9-1.6,3.3-3.7,3.3s-3.8-1.4-3.8-3.3c0-2,1.6-3.3,3.8-3.3S169.5,45.5,169.5,47.4z
									 M163.9,47.4c0,1,0.8,1.7,1.8,1.7c1,0,1.8-0.6,1.8-1.7c0-1-0.8-1.7-1.8-1.7C164.7,45.8,163.9,46.4,163.9,47.4z M173.2,51.9
									v5.2H164v-5.2H173.2z M166,53.5v2.1h5.3v-2.1H166z M173.2,43.5v7.8h-2v-7.8H173.2z"/>
								<path class="st3" d="M182.7,51.1c-1.5-0.5-2.5-1.4-3-2.6c-0.6,1.4-1.7,2.4-3.2,3l-1-1.6c2.3-0.8,3.2-2.6,3.2-4.5v-1.2h2v1.4
									c0,1.7,0.9,3.3,3.1,4L182.7,51.1z M186.6,54.6c0,1.7-1.8,2.7-4.7,2.7c-2.9,0-4.7-1-4.7-2.7c0-1.7,1.8-2.7,4.7-2.7
									C184.8,52,186.6,53,186.6,54.6z M184.6,54.6c0-0.8-0.9-1.1-2.7-1.1c-1.8,0-2.7,0.4-2.7,1.1c0,0.8,0.9,1.1,2.7,1.1
									C183.7,55.8,184.6,55.4,184.6,54.6z M188.2,46.7v1.6h-1.8v3.3h-2v-8.2h2v3.2H188.2z"/>
							</g>
						</g>
					</g>
				</g>
				<g id="table1_5_" transform="translate(0.000000, 354.000000)">
					<g id="cell1_5_">
						<g id="_x31__5_">
							<path id="bg_17_" class="st7" d="M8,0h318c4.4,0,8,3.6,8,8v34c0,4.4-3.6,8-8,8H8c-4.4,0-8-3.6-8-8V8C0,3.6,3.6,0,8,0z"/>
							<g class="st2">
								<path class="st3" d="M153.6,29.1v1.6H141v-1.6H153.6z M143.9,21.2H142v-1.6h10.5v1.6h-1.9v4.1h1.8V27h-10.4v-1.6h1.8V21.2z
									 M148.7,21.2h-2.8v4.1h2.8V21.2z"/>
								<path class="st3" d="M167.4,29.2v1.6h-12.5v-1.6h5.2v-2.1h-3.8v-4.7h7.7v-1.5h-7.7v-1.6h9.7V24h-7.7v1.5h8v1.6h-4.2v2.1
									H167.4z"/>
								<path class="st3" d="M174.5,26.5c-1.2-0.5-2-1.2-2.4-2.2c-0.5,1.1-1.3,2-2.6,2.5l-1-1.5c1.9-0.7,2.6-2.3,2.6-3.9V21h-2.2
									v-1.6h6.1V21h-2v0.4c0,1.5,0.7,2.9,2.4,3.6L174.5,26.5z M170.9,27.4h9.5v4.9h-2V29h-7.5V27.4z M175.8,21.9v-3.2h1.8v8.1
									h-1.8v-3.3h-1.5v-1.6H175.8z M180.4,18.5v8.4h-1.9v-8.4H180.4z"/>
								<path class="st3" d="M195,29.1v1.6h-12.5v-1.6H195z M193.6,27.2h-9.7v-7.7h9.6v1.6h-7.6v1.5h7.3v1.5h-7.3v1.5h7.7V27.2z"/>
							</g>
						</g>
						<g id="_x32__10_" transform="translate(0.000000, 102.000000)">
							<path id="bg_18_" class="st7" d="M8,0h318c4.4,0,8,3.6,8,8v34c0,4.4-3.6,8-8,8H8c-4.4,0-8-3.6-8-8V8C0,3.6,3.6,0,8,0z"/>
							<g class="st2">
								<path class="st3" d="M142.9,27.5c1.3,0,2.5-0.1,3.8-0.3l0.1,1.6c-1.7,0.3-3.1,0.4-4.9,0.4h-1v-9.1h5.1v1.6h-3.2V27.5z
									 M152.4,18.5v13.8h-1.9v-6.9h-1.2v6.3h-1.8V18.7h1.8v5.1h1.2v-5.3H152.4z"/>
								<path class="st3" d="M161.5,26.1c-1.5-0.5-2.5-1.4-3-2.6c-0.6,1.4-1.7,2.4-3.2,3l-1-1.6c2.3-0.8,3.2-2.6,3.2-4.5v-1.2h2v1.4
									c0,1.7,0.9,3.3,3.1,4L161.5,26.1z M165.4,29.6c0,1.7-1.8,2.7-4.7,2.7c-2.9,0-4.7-1-4.7-2.7c0-1.7,1.8-2.7,4.7-2.7
									C163.6,27,165.4,28,165.4,29.6z M163.4,29.6c0-0.8-0.9-1.1-2.7-1.1c-1.8,0-2.7,0.4-2.7,1.1c0,0.8,0.9,1.1,2.7,1.1
									C162.5,30.8,163.4,30.4,163.4,29.6z M167,21.7v1.6h-1.8v3.3h-2v-8.2h2v3.2H167z"/>
								<path class="st3" d="M175.9,25.4c-1.6-0.4-2.7-1.3-3.3-2.5c-0.6,1.3-1.8,2.3-3.4,2.8l-0.9-1.5c2.1-0.6,3.2-2,3.3-3.5h-2.8
									v-1.6h7.5v1.6h-2.7c0.1,1.3,1.2,2.7,3.2,3.2L175.9,25.4z M180,30.7v1.5h-9.5v-3.8h7.2v-0.8h-7.2v-1.5h9.2v3.7h-7.2v0.9H180z
									 M179.6,25.6h-2v-7.1h2V25.6z"/>
								<path class="st3" d="M190.5,27.3c-2.9,0.5-6.1,0.6-8.5,0.6l-0.2-1.5c1,0,2.1,0,3.3,0v-0.8c-1.5-0.2-2.4-1-2.4-2.1
									c0-1.3,1.3-2.1,3.4-2.1c2,0,3.4,0.8,3.4,2.1c0,1.1-0.9,1.8-2.4,2.1v0.7c1.1-0.1,2.2-0.2,3.3-0.3L190.5,27.3z M190,21h-7.8
									v-1.4h2.9v-1.2h2v1.2h2.9V21z M185.7,30.5h7.7V32h-9.7v-3.5h2V30.5z M186.1,24.3c0.9,0,1.5-0.3,1.5-0.8
									c0-0.5-0.6-0.8-1.5-0.8s-1.5,0.3-1.5,0.8C184.6,24,185.1,24.3,186.1,24.3z M194.6,23v1.6h-1.7v4.6h-2V18.5h2V23H194.6z"/>
							</g>
						</g>
						<g class="st2">
							<path d="M139.1,180.5h-5.4v4.7h-1.5v-4.7h-5.3v-1.2h12.3L139.1,180.5z M127.5,177c2.6-0.3,4.5-1.8,4.6-3.4H128v-1.2h10v1.2
								h-4.1c0.1,1.6,2,3.1,4.6,3.4l-0.6,1.2c-2.2-0.3-4.1-1.4-4.9-2.9c-0.8,1.5-2.7,2.6-4.9,2.9L127.5,177z"/>
							<path d="M152.9,182.2v1.3h-12.3v-1.3h2.9v-3.5c-1.1-0.6-1.7-1.6-1.7-2.8c0-2.2,2.1-3.5,5-3.5c2.9,0,5,1.4,5,3.5
								c0,1.2-0.6,2.2-1.7,2.8v3.5H152.9z M143.3,175.9c0,1.4,1.4,2.3,3.5,2.3c2,0,3.5-0.9,3.5-2.3c0-1.4-1.4-2.3-3.5-2.3
								C144.7,173.6,143.3,174.5,143.3,175.9z M145.1,182.2h3.4v-3c-0.5,0.1-1.1,0.2-1.7,0.2s-1.2-0.1-1.7-0.2V182.2z"/>
							<path d="M166.7,180.5h-5.4v4.6h-1.5v-4.6h-5.3v-1.3h12.3V180.5z M155.8,175.1c0-1.8,2-3,4.8-3c2.9,0,4.8,1.2,4.8,3
								c0,1.8-1.9,3-4.8,3C157.7,178.1,155.8,177,155.8,175.1z M157.3,175.1c0,1.1,1.3,1.8,3.2,1.8c1.9,0,3.2-0.7,3.2-1.8
								c0-1.1-1.3-1.8-3.2-1.8C158.6,173.4,157.3,174,157.3,175.1z"/>
							<path d="M175.1,178.4v1.1h3.8v3.2h-7.7v1.1h8.1v1.2h-9.6v-3.4h7.7v-1h-7.8v-1.2h3.9v-1.1h-5.3v-1.2h12.3v1.2H175.1z
								 M169.6,174.1c0-1.5,1.8-2.3,4.8-2.3c3,0,4.8,0.8,4.8,2.3c0,1.5-1.8,2.3-4.8,2.3C171.3,176.4,169.6,175.6,169.6,174.1z
								 M171.2,174.1c0,0.8,1.1,1.2,3.2,1.2c2.1,0,3.2-0.4,3.2-1.2c0-0.8-1.1-1.2-3.2-1.2C172.3,172.9,171.2,173.3,171.2,174.1z"/>
							<path d="M189.3,179.2c-1.5-0.5-2.6-1.5-3.2-2.7c-0.6,1.4-1.7,2.6-3.4,3.1l-0.8-1.2c2.1-0.7,3.3-2.5,3.3-4.3v-0.3h-2.9v-1.2
								h7.3v1.2h-2.8v0.3c0,1.7,1.1,3.3,3.2,3.9L189.3,179.2z M192.8,182.6c0,1.6-1.7,2.6-4.5,2.6s-4.5-1-4.5-2.6
								c0-1.6,1.7-2.6,4.5-2.6S192.8,181,192.8,182.6z M191.3,182.6c0-0.9-1.1-1.3-3-1.3s-3,0.5-3,1.3c0,0.9,1.1,1.4,3,1.4
								S191.3,183.5,191.3,182.6z M194.6,174.9v1.3h-1.9v3.5h-1.5v-8.1h1.5v3.3H194.6z"/>
							<path d="M201.8,177.5c0,3-1.2,4.8-2.9,4.8c-1.8,0-2.9-1.8-2.9-4.8c0-3,1.2-4.8,2.9-4.8C200.7,172.7,201.8,174.5,201.8,177.5z
								 M200.4,177.5c0-2.1-0.6-3.4-1.5-3.4c-0.9,0-1.5,1.2-1.5,3.4c0,2.1,0.6,3.3,1.5,3.3C199.8,180.8,200.4,179.6,200.4,177.5z
								 M207.4,171.6v13.5H206v-7h-1.5v6.4H203v-12.6h1.5v5h1.5v-5.3H207.4z"/>
						</g>
						<g class="st2">
							<path d="M145.2,70.9h2.2v4.4h4.2v-4.4h2.2V82h-2.2v-4.8h-4.2V82h-2.2V70.9z"/>
							<path d="M158.6,76.3l-2.9-5.4h2.5l1.1,2.3c0.3,0.5,0.5,1.1,0.8,1.8h0.1c0.3-0.7,0.5-1.2,0.7-1.8l1-2.3h2.3l-2.9,5.5l3.1,5.6
								H162l-1.2-2.5c-0.3-0.6-0.5-1.2-0.9-1.8h-0.1c-0.3,0.7-0.5,1.3-0.8,1.8l-1.2,2.5h-2.4L158.6,76.3z"/>
							<path d="M165,80.7l1-1.4c0.7,0.6,1.5,1.1,2.5,1.1c1.1,0,1.9-0.6,1.9-1.5c0-1.1-0.6-1.8-3.1-1.8v-1.6c2,0,2.7-0.7,2.7-1.7
								c0-0.9-0.5-1.4-1.5-1.4c-0.8,0-1.4,0.4-2.1,1l-1.1-1.3c1-0.8,2-1.4,3.3-1.4c2.1,0,3.6,1,3.6,3c0,1.2-0.7,2.1-1.9,2.5v0.1
								c1.3,0.3,2.2,1.3,2.2,2.7c0,2-1.8,3.2-3.9,3.2C167,82.2,165.8,81.5,165,80.7z"/>
							<path d="M174.1,76.4c0-3.8,1.5-5.7,3.8-5.7c2.2,0,3.8,1.9,3.8,5.7s-1.5,5.8-3.8,5.8C175.6,82.2,174.1,80.2,174.1,76.4z
								 M179.6,76.4c0-3.1-0.7-4-1.7-4c-1,0-1.7,0.9-1.7,4c0,3.1,0.7,4.1,1.7,4.1C178.8,80.5,179.6,79.5,179.6,76.4z"/>
							<path d="M182.9,80.7c3-2.7,4.8-4.8,4.8-6.5c0-1.1-0.6-1.8-1.7-1.8c-0.8,0-1.5,0.5-2,1.1l-1.2-1.2c1-1.1,2-1.7,3.5-1.7
								c2.1,0,3.5,1.3,3.5,3.4c0,2-1.7,4.2-3.7,6.1c0.6-0.1,1.3-0.1,1.8-0.1h2.4V82h-7.4V80.7z"/>
						</g>
						<g id="_x32__11_" transform="translate(0.000000, 204.000000)">
							<path id="bg_19_" class="st8" d="M8.8,0.8h316.5c4.4,0,8,3.6,8,8v82.5c0,4.4-3.6,8-8,8H8.8c-4.4,0-8-3.6-8-8V8.8
								C0.8,4.3,4.3,0.8,8.8,0.8z"/>
							<g class="st2">
								<path class="st3" d="M125.4,47.4c0,1.9-1.6,3.3-3.7,3.3c-2.1,0-3.8-1.4-3.8-3.3c0-2,1.6-3.3,3.8-3.3
									C123.8,44.1,125.4,45.5,125.4,47.4z M119.9,47.4c0,1,0.8,1.7,1.8,1.7c1,0,1.8-0.6,1.8-1.7c0-1-0.8-1.7-1.8-1.7
									C120.6,45.8,119.9,46.4,119.9,47.4z M129.2,51.9v5.2H120v-5.2H129.2z M122,53.5v2.1h5.3v-2.1H122z M129.2,43.5v7.8h-2v-7.8
									H129.2z"/>
								<path class="st3" d="M138.6,51.1c-1.5-0.5-2.5-1.4-3-2.6c-0.6,1.4-1.7,2.4-3.2,3l-1-1.6c2.3-0.8,3.2-2.6,3.2-4.5v-1.2h2v1.4
									c0,1.7,0.9,3.3,3.1,4L138.6,51.1z M142.5,54.6c0,1.7-1.8,2.7-4.7,2.7c-2.9,0-4.7-1-4.7-2.7c0-1.7,1.8-2.7,4.7-2.7
									C140.7,52,142.5,53,142.5,54.6z M140.6,54.6c0-0.8-0.9-1.1-2.7-1.1c-1.8,0-2.7,0.4-2.7,1.1c0,0.8,0.9,1.1,2.7,1.1
									C139.6,55.8,140.6,55.4,140.6,54.6z M144.2,46.7v1.6h-1.8v3.3h-2v-8.2h2v3.2H144.2z"/>
								<path class="st3" d="M148.7,54.7c3-2.7,4.8-4.8,4.8-6.5c0-1.1-0.6-1.8-1.7-1.8c-0.8,0-1.5,0.5-2,1.1l-1.2-1.2
									c1-1.1,2-1.7,3.5-1.7c2.1,0,3.5,1.3,3.5,3.4c0,2-1.7,4.2-3.7,6.1c0.6-0.1,1.3-0.1,1.8-0.1h2.4V56h-7.4V54.7z"/>
								<path class="st3" d="M164.7,51.1c-1.5-0.5-2.5-1.4-3-2.6c-0.6,1.4-1.7,2.4-3.2,3l-1-1.6c2.3-0.8,3.2-2.6,3.2-4.5v-1.2h2v1.4
									c0,1.7,0.9,3.3,3.1,4L164.7,51.1z M168.6,54.6c0,1.7-1.8,2.7-4.7,2.7c-2.9,0-4.7-1-4.7-2.7c0-1.7,1.8-2.7,4.7-2.7
									C166.8,52,168.6,53,168.6,54.6z M166.6,54.6c0-0.8-0.9-1.1-2.7-1.1c-1.8,0-2.7,0.4-2.7,1.1c0,0.8,0.9,1.1,2.7,1.1
									C165.7,55.8,166.6,55.4,166.6,54.6z M170.3,46.7v1.6h-1.8v3.3h-2v-8.2h2v3.2H170.3z"/>
								<path class="st3" d="M182.4,51.8c-1.5-0.5-2.6-1.5-3.2-2.7c-0.6,1.3-1.7,2.4-3.3,2.9l-1-1.5c2.3-0.7,3.3-2.5,3.3-4.3V46
									h-2.8v-1.6h7.5V46h-2.7v0.2c0,1.6,1,3.3,3.2,4L182.4,51.8z M186.6,55.5V57H177v-4.5h2v2.9H186.6z M186.2,53.5h-2v-10h2V53.5
									z"/>
								<path class="st3" d="M195.2,46.4h-6.7v-1.5h2.4v-1.3h2v1.3h2.4V46.4z M191.9,51.7c-1.8,0-3-1-3-2.4c0-1.4,1.2-2.4,3-2.4
									c1.7,0,3,1,3,2.4C194.8,50.7,193.6,51.7,191.9,51.7z M191.9,50.3c0.7,0,1.2-0.4,1.2-1c0-0.6-0.5-1-1.2-1
									c-0.7,0-1.2,0.3-1.2,1C190.6,49.9,191.1,50.3,191.9,50.3z M200.4,54.8c0,1.6-1.8,2.5-4.8,2.5s-4.8-0.9-4.8-2.5
									c0-1.6,1.8-2.5,4.8-2.5S200.4,53.2,200.4,54.8z M198.4,54.8c0-0.7-0.9-1-2.8-1c-1.8,0-2.8,0.3-2.8,1s0.9,1,2.8,1
									C197.5,55.8,198.4,55.5,198.4,54.8z M197.4,51.7h-1.8v-7.9h1.8v3.2h1v-3.4h1.9v8.6h-1.9v-3.6h-1V51.7z"/>
								<path class="st3" d="M213,51.3v1c2.4,0.2,3.8,1,3.8,2.5c0,1.6-1.8,2.5-4.8,2.5c-3,0-4.8-0.9-4.8-2.5c0-1.4,1.4-2.3,3.8-2.5
									v-1h-5.2v-1.6h12.5v1.6H213z M206.3,47.7c2.6-0.2,3.9-1.1,4.3-2.1h-3.7V44h10.2v1.6h-3.7c0.3,0.9,1.7,1.8,4.3,2.1l-0.7,1.5
									c-2.6-0.2-4.3-1.2-5-2.5c-0.7,1.3-2.4,2.3-5,2.5L206.3,47.7z M212,53.8c-1.8,0-2.8,0.3-2.8,1c0,0.7,0.9,1,2.8,1
									c1.8,0,2.8-0.3,2.8-1C214.8,54.1,213.8,53.8,212,53.8z"/>
							</g>
						</g>
					</g>
				</g>
			</g>
		</g>
	</g>
</g>
</svg>
