<?xml version="1.0" encoding="utf-8"?>
<!-- Generator: Adobe Illustrator 24.0.0, SVG Export Plug-In . SVG Version: 6.00 Build 0)  -->
<svg version="1.1" id="Layer_1" xmlns="http://www.w3.org/2000/svg" xmlns:xlink="http://www.w3.org/1999/xlink" x="0px" y="0px"
	 viewBox="0 0 335 975" style="enable-background:new 0 0 335 975;" xml:space="preserve">
<style type="text/css">
	.st0{fill:none;stroke:#158B76;stroke-width:2;}
	.st1{fill-rule:evenodd;clip-rule:evenodd;fill:#24A18A;fill-opacity:0.8;stroke:#158B76;stroke-width:2;}
	.st2{enable-background:new    ;}
	.st3{fill:#FFFFFF;}
	.st4{font-family:'NotoSansKR-Bold-KSCpc-EUC-H';}
	.st5{font-size:15px;}
	.st6{font-family:'Menlo-Regular';}
	.st7{fill-rule:evenodd;clip-rule:evenodd;}
	.st8{fill-rule:evenodd;clip-rule:evenodd;fill:#50B4A1;fill-opacity:0.8;stroke:#158B76;stroke-width:1.5;}
</style>
<title>table3</title>
<desc>Created with Sketch.</desc>
<g id="Page-1">
	<g id="mobile1_kr" transform="translate(-20.000000, -6101.000000)">
		<g id="table3" transform="translate(20.000000, 6101.000000)">
			<g id="box1">
				<path id="bg" class="st0" d="M9,1h317c4.4,0,8,3.6,8,8v603c0,4.4-3.6,8-8,8H9c-4.4,0-8-3.6-8-8V9C1,4.6,4.6,1,9,1z"/>
				<path id="bg_1_" class="st1" d="M29,21h277c4.4,0,8,3.6,8,8v88c0,4.4-3.6,8-8,8H29c-4.4,0-8-3.6-8-8V29C21,24.6,24.6,21,29,21z"
					/>
				<g class="st2">
					<path class="st3" d="M79,59.2c0,2.2,1.1,4.6,3.4,5.6l-1.1,1.6c-1.6-0.7-2.7-2-3.3-3.7c-0.6,1.8-1.7,3.3-3.3,4l-1.1-1.6
						c2.3-1,3.4-3.6,3.4-5.9v-0.8h-2.9v-1.6h7.7v1.6H79V59.2z M85.1,55.5v13.8h-2V55.5H85.1z"/>
					<path class="st3" d="M99.9,62.2v1.6H87.4v-1.6h5.2v-1.8h2v1.8H99.9z M98.5,61.2c-2.3-0.3-4-1.3-4.9-2.7
						c-0.9,1.4-2.5,2.3-4.9,2.7l-0.7-1.5c3.1-0.4,4.6-1.9,4.6-3.5v-0.4h2v0.4c0,1.6,1.5,3.1,4.6,3.5L98.5,61.2z M88.8,64.7h9.6v4.6
						h-2v-3h-7.6V64.7z"/>
					<path class="st3" d="M108.4,56.9c0,4.1-1.6,7.7-6.2,10l-1.1-1.5c3.2-1.6,4.9-3.8,5.3-6.9h-4.5v-1.6H108.4z M114,62.4h-1.9v6.9
						h-2V55.5h2v5.3h1.9V62.4z"/>
					<path class="st3" d="M127.6,61.7v1.6h-12.5v-1.6H127.6z M126.1,66.7c0,1.6-1.8,2.6-4.8,2.6s-4.8-0.9-4.8-2.6s1.8-2.6,4.8-2.6
						S126.1,65.1,126.1,66.7z M126.2,60.5h-9.5v-4.8h2v3.2h7.6V60.5z M124,66.7c0-0.7-0.9-1-2.8-1c-1.8,0-2.8,0.3-2.8,1
						c0,0.7,0.9,1,2.8,1C123.1,67.7,124,67.4,124,66.7z"/>
					<path class="st3" d="M137,58.5h-8.1v-1.5h3.1v-1.5h2v1.5h3.1L137,58.5z M132.9,64.3c-2,0-3.4-1.1-3.4-2.7
						c0-1.6,1.4-2.7,3.4-2.7s3.4,1.1,3.4,2.7C136.3,63.2,134.9,64.3,132.9,64.3z M132.8,67.5h7.4V69h-9.4v-4h2V67.5z M132.9,62.8
						c0.9,0,1.5-0.4,1.5-1.2c0-0.8-0.6-1.2-1.5-1.2c-0.9,0-1.5,0.4-1.5,1.2C131.4,62.4,132,62.8,132.9,62.8z M141.5,59.7v1.6h-1.8
						v4.5h-2V55.5h2v4.2H141.5z"/>
					<path class="st3" d="M152,57.2c0,3.9-1.1,7-5,9.3l-1.2-1.4c2.8-1.6,3.9-3.6,4.2-6.3h-3.5v-1.6H152z M157.9,55.5v13.8H156v-7
						h-1.2v6.4h-1.8V55.8h1.8v4.8h1.2v-5.2H157.9z"/>
					<path class="st3" d="M166.9,62.1h-6.6v-6.1h2v1.7h2.7v-1.7h1.9V62.1z M163.6,67.7h7.5v1.5h-9.5v-3.8h7.2v-0.8h-7.2V63h9.1v3.8
						h-7.1V67.7z M164.9,59.2h-2.7v1.4h2.7V59.2z M172.5,58.1v1.6h-1.8v2.7h-2v-7h2v2.7H172.5z"/>
					<path class="st3" d="M186.1,61v1.5h-12.5V61H186.1z M174.9,58c0-1.5,1.8-2.4,5-2.4c3.2,0,5,0.8,5,2.4c0,1.5-1.8,2.4-5,2.4
						C176.7,60.4,174.9,59.6,174.9,58z M177.1,67.7h7.9v1.5h-9.9v-3.6h7.6v-0.7h-7.6v-1.5h9.5v3.6h-7.6V67.7z M176.9,58
						c0,0.6,0.9,0.9,2.9,0.9c2,0,3-0.3,3-0.9c0-0.6-0.9-0.9-3-0.9C177.9,57.1,176.9,57.4,176.9,58z"/>
					<path class="st3" d="M203.3,62.6v1.5h-12.5v-1.5h5.2v-0.9h-3.7v-5.9h9.5v1.5h-7.5v0.7h7.2v1.4h-7.2v0.8h7.6v1.5h-3.9v0.9H203.3
						z M201.9,67c0,1.5-1.8,2.3-4.8,2.3c-3,0-4.8-0.8-4.8-2.3c0-1.5,1.8-2.3,4.8-2.3C200.1,64.8,201.9,65.5,201.9,67z M199.9,67
						c0-0.6-0.9-0.8-2.8-0.8c-1.9,0-2.8,0.2-2.8,0.8c0,0.6,0.9,0.8,2.8,0.8C199,67.8,199.9,67.6,199.9,67z"/>
					<path class="st3" d="M212.8,58.5h-8.1v-1.5h3.1v-1.5h2v1.5h3.1L212.8,58.5z M208.7,64.3c-2,0-3.4-1.1-3.4-2.7
						c0-1.6,1.4-2.7,3.4-2.7c2,0,3.4,1.1,3.4,2.7C212.1,63.2,210.7,64.3,208.7,64.3z M208.6,67.5h7.4V69h-9.4v-4h2V67.5z
						 M208.7,62.8c0.9,0,1.5-0.4,1.5-1.2c0-0.8-0.6-1.2-1.5-1.2c-0.9,0-1.5,0.4-1.5,1.2C207.2,62.4,207.8,62.8,208.7,62.8z
						 M217.4,59.7v1.6h-1.8v4.5h-2V55.5h2v4.2H217.4z"/>
					<path class="st3" d="M230.4,64.3c-2.9,0.5-6.1,0.6-8.5,0.6l-0.2-1.5c1,0,2.1,0,3.3,0v-0.8c-1.5-0.2-2.4-1-2.4-2.1
						c0-1.3,1.3-2.1,3.4-2.1c2,0,3.4,0.8,3.4,2.1c0,1.1-0.9,1.8-2.4,2.1v0.7c1.1-0.1,2.2-0.2,3.3-0.3L230.4,64.3z M229.9,58H222
						v-1.4h2.9v-1.2h2v1.2h2.9V58z M225.6,67.5h7.7V69h-9.7v-3.5h2V67.5z M226,61.3c0.9,0,1.5-0.3,1.5-0.8c0-0.5-0.6-0.8-1.5-0.8
						s-1.5,0.3-1.5,0.8C224.5,61,225,61.3,226,61.3z M234.5,60v1.6h-1.7v4.6h-2V55.5h2V60H234.5z"/>
					<path class="st3" d="M242.4,59.2c-0.9,2.2-2.8,3.7-5.8,4.5l-0.8-1.6c3.2-0.8,4.7-2.3,4.9-4.2h-4.2v-1.6h6.3
						c0,0.4,0,0.9-0.1,1.3h2.5v-2.2h2v7.9h-2v-1.3h-3v-1.6h3v-1.3H242.4z M247.3,66.4c0,1.7-1.8,2.8-4.7,2.8c-2.8,0-4.7-1.1-4.7-2.8
						s1.8-2.8,4.7-2.8C245.5,63.6,247.3,64.7,247.3,66.4z M245.3,66.4c0-0.8-1-1.3-2.7-1.3c-1.7,0-2.7,0.4-2.7,1.3s1,1.3,2.7,1.3
						C244.3,67.7,245.3,67.2,245.3,66.4z"/>
					<path class="st3" d="M253.8,64.8c1.3,0,2.7-0.1,3.9-0.3l0.1,1.4c-2.8,0.5-5.9,0.5-8.3,0.6l-0.2-1.6c0.8,0,1.6,0,2.5,0v-4.1h1.9
						V64.8z M254.8,63.1c0.3-2,0.4-3.4,0.4-4.7H250v-1.6h7.1V58c0,1.3,0,3-0.4,5.3L254.8,63.1z M262.2,62.7h-1.9v6.6h-2V55.5h2V61
						h1.9V62.7z"/>
				</g>
				<text transform="matrix(1 0 0 1 262.6142 68)" class="st3 st4 st5"> </text>
				<g class="st2">
					<path class="st3" d="M81.8,80.3h-8.1v-1.6h3.1v-1.3h2v1.3h3.1V80.3z M77.7,85.7c-2,0-3.4-1-3.4-2.5c0-1.5,1.4-2.5,3.4-2.5
						c2,0,3.4,1,3.4,2.5C81.1,84.7,79.7,85.7,77.7,85.7z M75.5,86.4h9v4.7h-9V86.4z M77.7,84.2c0.9,0,1.5-0.3,1.5-1
						c0-0.7-0.6-1-1.5-1c-0.9,0-1.5,0.3-1.5,1C76.2,83.9,76.8,84.2,77.7,84.2z M77.5,89.6h5.1V88h-5.1V89.6z M86.3,82.5h-1.8v3.3h-2
						v-8.3h2v3.4h1.8V82.5z"/>
					<path class="st3" d="M90.8,79c0,3.5-0.3,6.6-2.1,9.4l-1.5-0.8c1.4-2.2,1.8-4.2,1.9-6.9h-1.4V79H90.8z M94.9,77.8h1.8v12.9h-1.8
						v-6.4h-1.3c-0.3,1.7-0.8,3.3-1.7,4.8l-1.5-0.8c1.5-2.4,1.8-4.8,1.9-7.6h-1V79h2.7c0,1.2,0,2.4-0.1,3.6h1.1V77.8z M99.4,77.5
						v13.8h-1.9V77.5H99.4z"/>
					<path class="st3" d="M106.2,79.5h3v1.6h-8v-1.6h3.1v-1.8h2V79.5z M108.7,85.2c0,2-1.5,3.3-3.5,3.3c-2,0-3.5-1.4-3.5-3.3
						c0-1.9,1.5-3.3,3.5-3.3C107.2,81.9,108.7,83.2,108.7,85.2z M106.8,85.2c0-1-0.7-1.7-1.6-1.7c-0.9,0-1.6,0.6-1.6,1.7
						s0.7,1.7,1.6,1.7C106.2,86.9,106.8,86.2,106.8,85.2z M114.1,84.5h-2v6.8h-2V77.5h2v5.4h2V84.5z"/>
					<path class="st3" d="M127.6,84.2v1.6H115v-1.6H127.6z M118.4,89.4h7.8V91h-9.8v-4.1h2V89.4z M126.2,82.8h-9.6V78h2v3.2h7.6
						V82.8z"/>
					<path class="st3" d="M139.6,86.1c-1.5-0.5-2.6-1.4-3.2-2.6c-0.6,1.3-1.7,2.3-3.2,2.8l-1-1.5c2.2-0.7,3.2-2.4,3.2-4v-0.1h-2.7
						v-1.5h2.7v-1.5h2v1.5h2.7v1.5h-2.7v0.1c0,1.6,1,3.1,3.2,3.8L139.6,86.1z M144.1,89.5V91h-9.4v-4.2h2v2.6H144.1z M141.8,81.5v-4
						h2v10.2h-2v-4.6h-2.2v-1.6H141.8z"/>
					<path class="st3" d="M152.6,84.3c-0.7,0.7-1.6,1.1-2.7,1.1c-2,0-3.6-1.5-3.6-3.6c0-2.1,1.6-3.6,3.6-3.6c1.1,0,2,0.4,2.7,1.1
						h3.1v-1.9h2v10.1h-2v-3.3H152.6z M149.9,83.7c1,0,1.8-0.7,1.8-1.9c0-1.1-0.8-1.8-1.8-1.8c-1,0-1.8,0.7-1.8,1.8
						C148.1,83,148.9,83.7,149.9,83.7z M157.9,89.5V91h-9.4v-4.5h2v2.9H157.9z M153.4,81c0.1,0.3,0.1,0.6,0.1,0.9
						c0,0.3,0,0.6-0.1,0.9h2.2V81H153.4z"/>
					<path class="st3" d="M168.4,87.3c1.1-0.1,2.1-0.1,3.1-0.3l0.2,1.4c-2.9,0.6-6,0.6-8.4,0.6l-0.2-1.6c1,0,2.1,0,3.3,0v-1.2
						c-1.4-0.3-2.4-1.2-2.4-2.5c0-1.6,1.4-2.6,3.4-2.6c2,0,3.4,1,3.4,2.6c0,1.3-0.9,2.2-2.4,2.5V87.3z M171.5,80.6h-8.1V79h3.1v-1.5
						h2V79h3.1V80.6z M167.4,84.8c0.9,0,1.5-0.4,1.5-1.1s-0.6-1.1-1.5-1.1c-0.9,0-1.5,0.4-1.5,1.1S166.5,84.8,167.4,84.8z M176,84.7
						h-1.7v6.6h-2V77.5h2v5.6h1.7V84.7z"/>
					<path class="st3" d="M184.3,85.3c-1.5-0.5-2.6-1.4-3.2-2.5c-0.6,1.4-1.7,2.5-3.3,3l-1-1.5c2.2-0.8,3.2-2.5,3.3-4.2h-2.7v-1.6
						h7.5V80h-2.7c0,1.6,1,3.1,3.1,3.8L184.3,85.3z M188.1,88.6c0,1.7-1.8,2.7-4.7,2.7c-2.9,0-4.7-1-4.7-2.7c0-1.7,1.8-2.7,4.7-2.7
						C186.3,85.9,188.1,86.9,188.1,88.6z M186.1,88.6c0-0.8-0.9-1.2-2.7-1.2c-1.8,0-2.7,0.4-2.7,1.2c0,0.8,0.9,1.2,2.7,1.2
						C185.2,89.8,186.1,89.4,186.1,88.6z M189.8,80.7v1.6h-1.8v3.4h-2v-8.2h2v3.2H189.8z"/>
					<path class="st3" d="M198.1,85.5v1.1h3.8v4.5h-9.5v-4.5h3.8v-1.1h-5.2v-1.6h12.5v1.6H198.1z M193.7,79.4h-1.8v-1.6h10.3v1.6
						h-1.8v2.1h1.7v1.6H192v-1.6h1.7V79.4z M199.9,88.2h-5.7v1.4h5.7V88.2z M198.5,79.4h-2.8v2.1h2.8V79.4z"/>
					<path class="st3" d="M214,79.2c0,3.9-1.1,7-5,9.3l-1.2-1.4c2.8-1.6,3.9-3.6,4.2-6.3h-3.5v-1.6H214z M219.9,77.5v13.8H218v-7
						h-1.2v6.4h-1.8V77.8h1.8v4.8h1.2v-5.2H219.9z"/>
					<path class="st3" d="M228.9,84.1h-6.6v-6.1h2v1.7h2.7v-1.7h1.9V84.1z M225.6,89.7h7.5v1.5h-9.5v-3.8h7.2v-0.8h-7.2V85h9.1v3.8
						h-7.1V89.7z M226.9,81.2h-2.7v1.4h2.7V81.2z M234.5,80.1v1.6h-1.8v2.7h-2v-7h2v2.7H234.5z"/>
				</g>
				<g class="st2">
					<path d="M30.7,156.7h7.8v1.2h-7.8V156.7z"/>
				</g>
				<g class="st2">
					<path d="M50.8,153.7L50.8,153.7c0,1.8,1.6,3.2,3.3,3.6l-0.6,0.9c-1.2-0.3-2.7-1.5-3.2-2.7c-0.4,1.2-1.8,2.5-3.3,3.1l-0.6-0.9
						c1.7-0.5,3.4-2.2,3.4-3.8v-0.1h-3v-0.9h7.2v0.9H50.8z M48.4,162.7v-3.9h1.1v3h7.7v1H48.4z M48.4,151.5v-1H52v1H48.4z
						 M55.7,159.6v-9.6h1.1v9.6H55.7z"/>
					<path d="M63.1,158.9c-1.5,0.1-3.1,0.1-4,0.1l-0.2-1c1,0,2.3,0,3.6,0v-0.9c-1.4-0.1-2.5-0.7-2.5-1.8c0-1.3,1.4-1.9,3.1-1.9
						c1.7,0,3.1,0.6,3.1,1.9c0,1.2-1.1,1.7-2.6,1.9v0.9c1.4-0.1,2.8-0.2,3.6-0.3l0.1,0.9C66.4,158.7,64.7,158.8,63.1,158.9z
						 M59.3,153V152h7.6v0.9H59.3z M60.9,162.8v-3.3H62v2.3h7.5v0.9H60.9z M63.1,154.3c-1.1,0-2,0.3-2,1c0,0.7,0.9,1,2,1
						c1.2,0,2-0.3,2-1C65.2,154.6,64.3,154.3,63.1,154.3z M61.4,151.2v-1H65v1H61.4z M69.2,155.6v4.5h-1.2v-10.2h1.2v4.7h2.1v1H69.2
						z"/>
					<path d="M72.8,158.1l-0.6-1c2.7-0.8,4.9-2.9,5.3-5.1h-4.7v-1h6C78.6,154.3,76.3,156.8,72.8,158.1z M78.4,163
						c-2.9,0-4.5-1-4.5-2.5c0-1.5,1.6-2.5,4.5-2.5c2.8,0,4.5,1,4.5,2.5C82.9,162,81.3,163,78.4,163z M75.2,160.5
						c0,1,1.2,1.5,3.3,1.5s3.3-0.6,3.3-1.5c0-1-1.2-1.5-3.3-1.5S75.2,159.5,75.2,160.5z M78.8,155.1h2.9v-1.8H79v-0.9h2.7v-2.4h1.1
						v8.3h-1.1V156h-2.9V155.1z"/>
					<path d="M89.3,152.7h7.1v0.9h-2.9v0.2c0,1.7,1.6,3,3.1,3.4l-0.6,0.9c-1.2-0.3-2.5-1.5-3.2-2.6c-0.4,1.2-1.8,2.5-3.3,3l-0.6-0.9
						c1.7-0.5,3.3-2.1,3.3-3.8v-0.3h-3V152.7z M91,150.5h3.7v1H91V150.5z M91.3,162.6v-3.9h1.1v3h7.6v0.9H91.3z M99.7,159.5h-1.1
						v-4.1h-2.4v-0.9h2.4v-4.5h1.1V159.5z"/>
					<path d="M108.9,154.1c0,2-1.5,3.3-3.4,3.3c-1.9,0-3.4-1.3-3.4-3.3c0-1.9,1.5-3.3,3.4-3.3S108.9,152.2,108.9,154.1z
						 M103.2,154.1c0,1.3,1,2.2,2.3,2.2c1.3,0,2.3-0.9,2.3-2.2c0-1.3-0.9-2.3-2.3-2.3C104.2,151.8,103.2,152.8,103.2,154.1z
						 M104.2,162.6v-4h1.1v3h7.6v0.9H104.2z M109.2,152.7v-0.9h2.4v-1.9h1.1v9.5h-1.1v-3.4h-2.4v-0.9h2.4v-2.4H109.2z"/>
					<path d="M116.3,162.9v-3h7.9v-1.1h-7.9v-0.9h4v-1.3H115v-0.9h11.8v0.9h-5.4v1.3h3.9v2.9h-7.9v1.2h8.4v1H116.3z M116.5,154.5v-4
						h8.8v4H116.5z M124.1,151.4h-6.5v2.1h6.5V151.4z"/>
					<path d="M127.9,156.6v-1h11.8v1H127.9z M129.3,162.9v-3.1h7.8v-1.2h-7.9v-0.9h9v2.9h-7.8v1.3h8.3v0.9H129.3z M133.9,154.7
						c-2.8,0-4.6-0.8-4.6-2.3s1.7-2.3,4.6-2.3c2.9,0,4.6,0.8,4.6,2.3S136.7,154.7,133.9,154.7z M130.5,152.4c0,0.8,1.3,1.3,3.4,1.3
						c2.1,0,3.4-0.5,3.4-1.3c0-0.8-1.4-1.3-3.4-1.3C131.8,151.1,130.5,151.6,130.5,152.4z"/>
					<path d="M148.7,150.9c2.2,0,3.4,1.9,3.4,4.6c0,2.8-1.2,4.6-3.4,4.6c-2.1,0-3.4-1.9-3.4-4.7
						C145.3,152.8,146.5,150.9,148.7,150.9z M148.7,151.9c-1.4,0-2.3,1.5-2.3,3.6c0,2.1,0.9,3.6,2.3,3.6c1.4,0,2.3-1.5,2.3-3.6
						C151,153.4,150.1,151.9,148.7,151.9z M154.5,163v-13.1h1.1V163H154.5z"/>
					<path d="M166.6,154.7v1.9h3.1v0.9h-11.8v-0.9h3v-1.9c-1.1-0.4-1.7-1.1-1.7-2c0-1.5,1.7-2.5,4.6-2.5c2.9,0,4.6,1,4.6,2.5
						C168.3,153.6,167.7,154.3,166.6,154.7z M163.8,163c-2.9,0-4.6-0.8-4.6-2.3s1.8-2.3,4.6-2.3c2.9,0,4.7,0.8,4.7,2.3
						S166.6,163,163.8,163z M160.3,160.7c0,0.9,1.4,1.3,3.5,1.3c2.1,0,3.5-0.5,3.5-1.3c0-0.9-1.4-1.3-3.5-1.3
						C161.7,159.3,160.3,159.8,160.3,160.7z M163.7,151.1c-2.1,0-3.4,0.6-3.4,1.6c0,0.9,1.3,1.5,3.4,1.5s3.5-0.6,3.5-1.5
						C167.2,151.7,165.8,151.1,163.7,151.1z M162,155v1.6h3.5V155c-0.5,0.1-1.1,0.1-1.7,0.1S162.5,155.1,162,155z"/>
					<path d="M170.7,153.3v-0.9h7.7v0.9H170.7z M174.6,158.6c-1.7,0-3.1-0.9-3.1-2.3c0-1.4,1.3-2.3,3.1-2.3c1.8,0,3.1,0.9,3.1,2.3
						C177.7,157.7,176.3,158.6,174.6,158.6z M174.6,155c-1,0-2,0.5-2,1.4c0,0.9,0.9,1.4,2,1.4c1.1,0,2-0.5,2-1.4
						C176.6,155.5,175.6,155,174.6,155z M172.6,151.4v-1h3.8v1H172.6z M172.7,162.6v-3.4h1.1v2.4h7.6v1H172.7z M180.9,155.3v4.3
						h-1.1v-9.7h1.1v4.4h2v1H180.9z"/>
					<path d="M191.4,159.5v-2.4c-1.2,0-2.6,0.1-3.6,0.1l-0.2-1c1.4,0,3,0,4.4,0c1.5-0.1,2.9-0.2,4.2-0.3l0.1,0.9
						c-0.8,0.1-2.3,0.2-3.7,0.3v2.5H191.4z M191.9,155.4c-2,0-3.5-0.9-3.5-2.4c0-1.5,1.5-2.4,3.5-2.4s3.5,0.9,3.5,2.4
						C195.4,154.5,193.9,155.4,191.9,155.4z M189.4,162.7v-3.8h1.1v2.8h8.2v1H189.4z M191.9,151.5c-1.4,0-2.4,0.6-2.4,1.5
						c0,0.9,1,1.5,2.4,1.5c1.4,0,2.4-0.6,2.4-1.5S193.3,151.5,191.9,151.5z M197.3,160v-1.4h-2.8v-0.9h2.8v-7.8h1.1V160H197.3z"/>
					<path d="M209.3,157.9v2.5h3.2v1h-11.8v-1h3.3v-2.5h-1.9v-4h7.8v-2h-7.7v-1h8.9v3.9h-7.8v2.1h8.1v0.9H209.3z M205.1,160.4h3
						v-2.5h-3V160.4z"/>
					<path d="M218.3,160.3l-0.8-0.8c2.8-1.6,4.4-4.4,4.5-7h-4v-1h5.2C223.2,155.4,221.4,158.4,218.3,160.3z M227.5,163v-7h-1.7v6.3
						h-1.1v-12.1h1.1v4.8h1.7v-5.2h1.1V163H227.5z"/>
					<path d="M231.1,156.3v-5.8h1.1v1.9h3.8v-1.9h1.2v5.8H231.1z M236,153.3h-3.8v2h3.8V153.3z M232.3,163v-3.3h7.2v-1.3h-7.2v-0.9
						h8.4v3.1h-7.2v1.4h7.7v0.9H232.3z M240.7,153.8v2.9h-1.1v-6.8h1.1v2.9h2v1H240.7z"/>
				</g>
				<text transform="matrix(1 0 0 1 255.4271 162)" class="st6 st5"> </text>
				<g class="st2">
					<path d="M30.7,226.7h7.8v1.2h-7.8V226.7z"/>
				</g>
				<g class="st2">
					<path d="M52.4,229.8c-1-0.7-2.4-2.3-2.8-3.8c-0.3,1.5-1.4,3.2-2.7,4.2l-0.7-0.9c1.5-0.9,2.8-3.2,2.8-5.7v-2.4h1.1v2.4
						c0,2.5,1.5,4.5,3,5.4L52.4,229.8z M53.9,232.4v-6.8h-2.3v-1h2.3v-4.4H55v12.1H53.9z M56.5,233v-13.1h1.1V233H56.5z"/>
					<path d="M66,227.6v2.8h5.4v1H59.5v-1h5.3v-2.8h-4.3v-1h2.1l-0.4-3.5l1.2-0.2l0.3,3.7H67l0.5-3.7l1.1,0.2l-0.5,3.5h2.1v1H66z
						 M60.5,222.2v-1h9.7v1H60.5z"/>
					<path d="M75.6,220.4h1l-3.5,12.5h-1L75.6,220.4z"/>
					<path d="M84.9,224.1c0,2-1.5,3.3-3.5,3.3c-2,0-3.5-1.3-3.5-3.2c0-2,1.5-3.3,3.5-3.3C83.4,220.8,84.9,222.1,84.9,224.1z
						 M78.9,224.1c0,1.3,1.1,2.2,2.4,2.2c1.4,0,2.4-0.9,2.4-2.2c0-1.4-1-2.3-2.5-2.3C80,221.8,78.9,222.7,78.9,224.1z M79.7,232.6
						v-4h1.1v3.1h7.7v0.9H79.7z M87.1,229.5v-9.6h1.1v9.6H87.1z"/>
					<path d="M90.5,227.1v-0.9h4.9v-2.8h1.1v2.8h5.8v0.9H90.5z M96.4,232.9c-3.1,0-4.7-0.9-4.7-2.4s1.7-2.4,4.7-2.4
						c3.1,0,4.7,0.9,4.7,2.4S99.5,232.9,96.4,232.9z M101,221.8c0,1.1-0.2,2.7-0.4,3.5l-1.1-0.2c0.2-0.7,0.3-1.9,0.3-2.5l0-1.1h-8
						v-0.9h9.1V221.8z M96.4,229.1c-2.2,0-3.6,0.5-3.6,1.4c0,0.9,1.4,1.4,3.6,1.4c2.2,0,3.6-0.5,3.6-1.4
						C100,229.7,98.6,229.1,96.4,229.1z"/>
					<path d="M111.9,229.7c-1.5,0.1-3.1,0.1-4.3,0.1c-0.1-0.3-0.1-0.7-0.2-1c0.6,0,1.3,0,1.9,0l-0.5-5.4l1.2-0.1l0.4,5.6
						c0.5,0,1,0,1.5-0.1c0.2,0,0.3,0,0.5,0c0.1-1.8,0.2-3.7,0.4-5.5l1.1,0.1c-0.2,1.8-0.3,3.5-0.5,5.3c1-0.1,1.8-0.1,2.4-0.2
						l0.1,0.9C115,229.5,113.5,229.6,111.9,229.7z M107.8,222.3v-1h7.3v1H107.8z M117,233v-13.1h1.1V233H117z"/>
					<path d="M125.8,233.1v-4.3h-5.3v-1h11.8v1h-5.4v4.3H125.8z M121.9,226.2v-5.8h1.2v1.9h6.7v-1.9h1.1v5.8H121.9z M129.7,223.3
						H123v2h6.7V223.3z"/>
					<path d="M133.4,226.9V226h11.8v0.9H133.4z M134.8,232.8v-2.9h7.9v-1.1h-7.9V228h9.1v2.7h-7.9v1.2h8.3v0.9H134.8z M134.9,225
						v-2.7h7.7v-1h-7.7v-0.9h8.9v2.7H136v1h8v0.9H134.9z"/>
					<path d="M154.9,226.2v0.6c1.4-0.1,2.8-0.2,3.6-0.3l0.1,0.8c-1,0.1-2.6,0.3-4.2,0.4c-1.5,0.1-3.2,0.2-4.1,0.2l-0.2-0.9
						c0.9,0,2.3,0,3.7,0v-0.7c-1.4-0.1-2.5-0.6-2.5-1.6c0-1.2,1.3-1.7,3-1.7c1.7,0,3,0.5,3,1.7C157.3,225.5,156.3,226,154.9,226.2z
						 M150.5,222.5v-0.9h7.7v0.9H150.5z M151.9,233v-2.7h7.4v-0.9h-7.4v-0.9h8.5v2.6h-7.4v1h7.8v0.9H151.9z M154.3,223.7
						c-1.1,0-1.9,0.3-1.9,0.8s0.9,0.8,1.9,0.8c1.1,0,1.9-0.3,1.9-0.8C156.2,224,155.3,223.7,154.3,223.7z M152.5,220.9V220h3.6v0.9
						H152.5z M160.4,224.8v3h-1.2v-7.8h1.2v3.9h2v0.9H160.4z"/>
					<path d="M172.1,224.7v1.9h3.1v0.9h-11.8v-0.9h3v-1.9c-1.1-0.4-1.7-1.1-1.7-2c0-1.5,1.7-2.5,4.6-2.5c2.9,0,4.6,1,4.6,2.5
						C173.8,223.6,173.2,224.3,172.1,224.7z M169.2,233c-2.9,0-4.6-0.8-4.6-2.3s1.8-2.3,4.6-2.3c2.9,0,4.7,0.8,4.7,2.3
						S172.1,233,169.2,233z M165.7,230.7c0,0.9,1.4,1.3,3.5,1.3c2.1,0,3.5-0.5,3.5-1.3c0-0.9-1.4-1.3-3.5-1.3
						C167.1,229.3,165.7,229.8,165.7,230.7z M169.2,221.1c-2.1,0-3.5,0.6-3.5,1.6c0,0.9,1.4,1.5,3.5,1.5s3.5-0.6,3.5-1.5
						C172.7,221.7,171.3,221.1,169.2,221.1z M167.5,225v1.6h3.5V225c-0.5,0.1-1.1,0.1-1.7,0.1S168,225.1,167.5,225z"/>
					<path d="M176.2,223.3v-0.9h7.7v0.9H176.2z M180.1,228.6c-1.7,0-3.1-0.9-3.1-2.3c0-1.4,1.3-2.3,3.1-2.3c1.8,0,3.1,0.9,3.1,2.3
						C183.1,227.7,181.8,228.6,180.1,228.6z M180.1,225c-1,0-2,0.5-2,1.4c0,0.9,0.9,1.4,2,1.4c1.1,0,2-0.5,2-1.4
						C182.1,225.5,181.1,225,180.1,225z M178.1,221.4v-1h3.8v1H178.1z M178.1,232.6v-3.4h1.1v2.4h7.6v1H178.1z M186.4,225.3v4.3
						h-1.1v-9.7h1.1v4.4h2v1H186.4z"/>
					<path d="M197,230.1c-1.3,0.1-2.8,0.1-3.9,0.1l-0.2-1c0.7,0,1.9,0,2.9,0v-4.1h1.2v4.1c1.6-0.1,3.2-0.2,4.4-0.4l0.1,0.9
						C200.2,229.9,198.3,230,197,230.1z M200,227.3l-1.1-0.1c0.3-1.3,0.5-3.4,0.4-4.9h-5.7v-1h6.9
						C200.5,223.3,200.3,226.1,200,227.3z M203.3,226.4v6.7h-1.1v-13.1h1.1v5.5h2.1v1H203.3z"/>
					<path d="M206.1,223.1v-0.9h7.5v0.9H206.1z M209.8,228c-1.7,0-3-0.9-3-2.2c0-1.3,1.3-2.2,3-2.2c1.7,0,3,0.8,3,2.2
						C212.8,227.2,211.6,228,209.8,228z M216.2,228.8v4.3h-1.1v-3.3h-7.3v-0.9H216.2z M208,221.2v-1h3.8v1H208z M209.8,224.6
						c-1,0-1.9,0.5-1.9,1.3c0,0.8,0.9,1.3,1.9,1.3c1,0,1.8-0.5,1.8-1.3C211.7,225.1,210.8,224.6,209.8,224.6z M216.2,224.7v3.3h-1.1
						v-8.1h1.1v3.8h2v1H216.2z"/>
					<path d="M219.5,221h7.1v1h-2.9c0,0.3,0,0.6,0,0.8c0.1,1.8,1.7,3.2,3.2,3.7l-0.6,0.9c-1.3-0.5-2.6-1.8-3.2-3
						c-0.4,1.2-1.9,2.8-3.3,3.4l-0.6-0.9c1.7-0.6,3.3-2.3,3.4-4.2c0-0.2,0-0.5,0-0.8h-3V221z M229.9,228.4v4.6h-1.2v-3.7h-7.6v-0.9
						H229.9z M228.7,227.8v-3.4h-2.6v-0.9h2.6v-3.5h1.1v7.8H228.7z"/>
					<path d="M236.1,231.5v-1h3.1v-1.7h1.1v1.7h3.3v-1.7h1.1v1.7h3.1v1H236.1z M236.8,223.6v-1h10.4v1H236.8z M242,228.5
						c-2.4,0-4-0.8-4-2.2c0-1.5,1.6-2.2,4-2.2c2.5,0,4.1,0.8,4.1,2.2C246.1,227.7,244.5,228.5,242,228.5z M242,225
						c-1.5,0-2.9,0.4-2.9,1.3c0,0.9,1.4,1.3,2.9,1.3c1.5,0,2.9-0.4,2.9-1.3C244.9,225.4,243.5,225,242,225z M239.6,221.5v-1h4.7v1
						H239.6z"/>
					<path d="M249,227v-0.9h11.8v0.9H249z M255,233c-2.9,0-4.6-0.9-4.6-2.4c0-1.6,1.7-2.4,4.6-2.4c2.9,0,4.6,0.9,4.6,2.4
						C259.6,232.1,257.8,233,255,233z M250.7,224.6v-4.4h1.1v3.4h7.7v0.9H250.7z M251.5,230.5c0,1,1.4,1.5,3.4,1.5
						c2.1,0,3.5-0.5,3.5-1.5c0-1-1.4-1.5-3.5-1.5C252.9,229,251.5,229.5,251.5,230.5z"/>
					<path d="M273.6,226.9c-0.9,0.1-2,0.2-3.4,0.3c-1.1,0.1-2.9,0.1-4.2,0.1l-0.1-1c0.6,0,1.2,0,1.8,0l-0.4-3.6l1.1-0.1l0.3,3.8
						c0.6,0,1.2,0,1.8-0.1l0.3-3.7l1.1,0.1l-0.4,3.6c0.5,0,1.3-0.1,1.8-0.2L273.6,226.9z M266.2,221.9V221h7v0.9H266.2z M272.2,233
						c-2.8,0-4.5-0.9-4.5-2.4c0-1.5,1.6-2.5,4.5-2.5c2.9,0,4.5,0.9,4.5,2.5C276.7,232.1,275.1,233,272.2,233z M272.2,229.1
						c-2,0-3.3,0.6-3.3,1.5s1.2,1.5,3.3,1.5c2.1,0,3.3-0.5,3.3-1.5S274.3,229.1,272.2,229.1z M275.5,228.1v-2.6h-2.2v-0.9h2.2v-1.5
						h-2.2v-0.9h2.2v-2.3h1.1v8.2H275.5z"/>
					<path d="M279.7,230.4l-0.7-0.9c3.3-1.5,5.1-4.3,5.4-7.2h-4.9v-1h6.2C285.5,225.6,283.1,228.7,279.7,230.4z M289,225.4h2.1v1
						H289v6.7h-1.1v-13.1h1.1V225.4z"/>
				</g>
				<g class="st2">
					<path d="M30.9,261.8v-0.2c0-2.7,1.2-4.7,2.6-6.1h1c-1.3,1.5-2.4,3.6-2.4,6v0.4c0,2.3,1.1,4.6,2.4,6.1h-1
						C32.1,266.5,30.9,264.4,30.9,261.8z"/>
					<path d="M36.8,267.8v-2.9h7.8v-1h-7.8v-0.9h3.9v-1.2h-5.3v-0.9h11.8v0.9h-5.4v1.2h3.9v2.9h-7.8v1.1h8.3v0.9H36.8z M36.8,259.8
						v-4.5H38v1.4h6.6v-1.4h1.1v4.5H36.8z M44.5,257.6H38v1.3h6.6V257.6z"/>
					<path d="M56.7,261c-1,0.1-2.5,0.3-3.9,0.3c-1.4,0.1-2.9,0.1-4.1,0.1l-0.2-1c0.6,0,1.2,0,1.8,0l-0.3-3l1.2-0.1l0.2,3.1
						c0.6,0,1.1,0,1.7-0.1c0.1,0,0.2,0,0.3,0l0.2-3l1.1,0.1l-0.3,2.9c0.9,0,1.7-0.1,2.2-0.2L56.7,261z M48.9,256.7v-0.9H56v0.9H48.9
						z M50.6,268v-3.3h7.3v-1.3h-7.3v-0.9H59v3.1h-7.3v1.4h7.7v0.9H50.6z M57.9,261.8v-6.9H59v6.9H57.9z"/>
					<path d="M61.3,266.4v-1h2.9V263l1.1,0v2.5H69V263l1.1,0v2.4h3v1H61.3z M67.2,262.6c-2.8,0-4.7-1.3-4.7-3.4c0-2,1.9-3.4,4.7-3.4
						c2.9,0,4.7,1.4,4.7,3.4C71.9,261.2,70,262.6,67.2,262.6z M67.2,256.8c-2.2,0-3.6,1-3.6,2.5c0,1.5,1.4,2.5,3.6,2.5
						c2.2,0,3.6-1,3.6-2.5C70.8,257.7,69.4,256.8,67.2,256.8z"/>
					<path d="M74.2,258.3v-0.9h7.7v0.9H74.2z M78,263.6c-1.7,0-3.1-0.9-3.1-2.3c0-1.4,1.3-2.3,3.1-2.3c1.8,0,3.1,0.9,3.1,2.3
						C81.1,262.7,79.8,263.6,78,263.6z M78,260c-1,0-2,0.5-2,1.4c0,0.9,0.9,1.4,2,1.4c1.1,0,2-0.5,2-1.4C80,260.5,79.1,260,78,260z
						 M76.1,256.4v-1h3.8v1H76.1z M76.1,267.6v-3.4h1.1v2.4h7.6v1H76.1z M84.3,260.3v4.3h-1.1v-9.7h1.1v4.4h2v1H84.3z"/>
					<path d="M97.6,259.9v1.7h5.4v0.9H91.2v-0.9h5.3v-1.7h-3.9v-4.3h8.9v0.9h-7.8v2.4h7.8v0.9H97.6z M97.1,268
						c-2.9,0-4.5-0.8-4.5-2.3c0-1.4,1.6-2.3,4.5-2.3c2.9,0,4.5,0.8,4.5,2.3C101.6,267.2,100,268,97.1,268z M93.8,265.8
						c0,0.9,1.3,1.4,3.3,1.4c2.1,0,3.3-0.5,3.3-1.4c0-0.8-1.3-1.3-3.3-1.3C95,264.4,93.8,264.9,93.8,265.8z"/>
					<path d="M105.5,267.9v-3h7.9v-1.1h-7.9v-0.9h4v-1.3h-5.3v-0.9H116v0.9h-5.4v1.3h3.9v2.9h-7.9v1.2h8.4v1H105.5z M105.7,259.5v-4
						h8.8v4H105.7z M113.3,256.4h-6.5v2.1h6.5V256.4z"/>
					<path d="M124.3,261.4c-1.3-0.5-2.6-1.6-3.2-3c-0.4,1.3-1.8,2.6-3.3,3.4l-0.6-0.9c1.7-0.7,3.4-2.2,3.4-4.3v-1.2h1.2v1.1
						c0,2.1,1.7,3.4,3.3,4L124.3,261.4z M119.3,267.9v-3.3h7.4v-1.4h-7.4v-0.9h8.5v3.1h-7.4v1.5h7.9v0.9H119.3z M126.7,261.6v-6.7
						h1.1v6.7H126.7z"/>
					<path d="M130.1,258v-0.9h7.6v0.9H130.1z M133.9,263c-1.8,0-3.1-0.8-3.1-2.2c0-1.3,1.3-2.2,3.1-2.2s3.1,0.8,3.1,2.2
						C137,262.1,135.7,263,133.9,263z M133.9,259.5c-1,0-2,0.5-2,1.3c0,0.8,1,1.3,2,1.3c1.1,0,2-0.5,2-1.3
						C135.9,260,135,259.5,133.9,259.5z M132.1,256.2v-1h3.8v1H132.1z M132.3,267.9v-4.1h8.5v4.1H132.3z M139.7,264.7h-6.2v2.2h6.2
						V264.7z M139.7,263v-2.9h-2.2v-0.9h2.2v-4.2h1.1v8.1H139.7z"/>
					<path d="M154.4,264.9c-1.2-0.8-2.9-2.4-3.3-4c-0.4,1.6-1.9,3.3-3.4,4.3l-0.7-0.8c1.9-1.1,3.5-3.4,3.5-5.8v-1.4h-3.1v-0.9h7.3
						v0.9h-3.1v1.3c0,2.4,1.7,4.6,3.5,5.5L154.4,264.9z M157.8,254.9V268h-1.1v-13.1H157.8z"/>
					<path d="M166.9,258.8c0,1.9-1.5,3.1-3.4,3.1c-1.9,0-3.4-1.2-3.4-3.1c0-1.9,1.5-3.2,3.4-3.2
						C165.4,255.7,166.9,256.9,166.9,258.8z M161.2,258.8c0,1.3,1,2.2,2.3,2.2c1.4,0,2.3-0.9,2.3-2.2c0-1.3-0.9-2.2-2.3-2.2
						C162.2,256.6,161.2,257.5,161.2,258.8z M165.8,268c-2.9,0-4.3-1-4.3-2.5c0-1.5,1.5-2.5,4.3-2.5c2.9,0,4.3,1,4.3,2.5
						C170.2,267,168.7,268,165.8,268z M162.7,265.5c0,0.9,1.2,1.6,3.1,1.6s3.2-0.6,3.2-1.6c0-1-1.2-1.6-3.2-1.6
						S162.7,264.6,162.7,265.5z M172.1,260.7h-2v2.1h-1.1v-7.9h1.1v2h2v1h-2v1.9h2V260.7z"/>
					<path d="M177.2,261.8v-0.2c0-2.7,1.2-4.7,2.6-6.1h1c-1.3,1.5-2.4,3.6-2.4,6v0.4c0,2.3,1.1,4.6,2.4,6.1h-1
						C178.4,266.5,177.2,264.4,177.2,261.8z"/>
					<path d="M181.9,265.8l0.3-0.9c0.6,0.4,1.6,0.7,2.3,0.7c1.7,0,2.6-0.7,2.6-2c0-1.3-1-1.9-2.5-1.9h-1v-1h0.9
						c1.3,0,2.2-0.7,2.2-1.8c0-1.2-0.8-1.7-2-1.7c-0.8,0-1.6,0.4-2.2,0.7l-0.2-1c0.6-0.4,1.8-0.8,2.7-0.8c1.8,0,3,0.9,3,2.5
						c0,1.2-0.8,2-1.9,2.4c1.3,0.3,2.3,1,2.3,2.5c0,1.8-1.4,3-3.7,3C183.4,266.5,182.4,266.2,181.9,265.8z"/>
					<path d="M190.4,256.3h2.9c2.2,0,3.3,1,3.3,2.8c0,1.4-0.7,2.2-2,2.6v0.1l2.7,4.5H196l-2.5-4.3h-1.9v4.3h-1.2V256.3z
						 M193.3,261.1c1.6,0,2.1-0.7,2.1-2c0-1.2-0.6-1.8-2.2-1.8h-1.7v3.8H193.3z"/>
					<path d="M198.4,266V265c0.6,0.2,1.2,0.5,2.2,0.5c1.2,0,1.7-0.4,1.7-1.1c0-0.7-0.3-1-1.3-1.3l-0.7-0.2c-1.1-0.3-1.8-0.8-1.8-2.1
						s0.8-2.1,2.5-2.1c1,0,1.6,0.2,2,0.4v0.9c-0.4-0.2-1.1-0.4-2-0.4c-1,0-1.5,0.3-1.5,1c0,0.6,0.3,0.9,1.1,1.1l0.8,0.2
						c1.4,0.4,2,0.9,2,2.1c0,1.4-1,2.2-2.6,2.2C199.8,266.5,199,266.3,198.4,266z"/>
					<path d="M206.7,261.9v-0.4c0-2.3-1.1-4.6-2.4-6.1h1c1.4,1.4,2.6,3.5,2.6,6.1v0.2c0,2.7-1.2,4.7-2.6,6.1h-1
						C205.6,266.4,206.7,264.3,206.7,261.9z"/>
					<path d="M211.5,261.9v-0.4c0-2.3-1.1-4.6-2.4-6.1h1c1.4,1.4,2.6,3.5,2.6,6.1v0.2c0,2.7-1.2,4.7-2.6,6.1h-1
						C210.4,266.4,211.5,264.3,211.5,261.9z"/>
				</g>
				<text transform="matrix(1 0 0 1 213.5367 267)" class="st6 st5"> </text>
				<g class="st2">
					<path d="M30.7,331.7h7.8v1.2h-7.8V331.7z"/>
				</g>
				<g class="st2">
					<path d="M46.3,336.4v-1h5.3v-3.4h1.1v3.4h5.4v1H46.3z M57,332.3c-2.3-0.6-4.3-2.3-4.8-3.8c-0.5,1.5-2.5,3.1-4.8,3.8l-0.6-0.9
						c2.3-0.4,4.8-2.3,4.8-4.6v-0.9h1.2v0.9c0,2.2,2.7,4.1,4.9,4.6L57,332.3z"/>
					<path d="M59.9,334.8v-8.7h1.1v3.4H65v-3.4h1.1v8.7H59.9z M65,330.4h-3.9v3.5H65V330.4z M68.9,338v-13.1H70V338H68.9z"/>
					<path d="M79.3,335c-1.2-0.8-2.8-2.4-3.3-4c-0.4,1.6-1.7,3.2-3.3,4.3l-0.8-0.9c1.9-1.1,3.5-3.5,3.5-5.8v-1.3h-3v-1h7.2v1h-3v1.3
						c0,2.4,1.6,4.5,3.4,5.5L79.3,335z M82.3,331.2v6.8h-1.1v-13.1h1.1v5.3h2.1v1H82.3z"/>
					<path d="M93.1,332.8c-1.4,0-2.9,0.1-4,0.1l-0.1-1c0.7,0,1.9,0,2.9,0v-3.1h1.1v3.1c1.6-0.1,3.2-0.2,4.2-0.3l0.1,0.9
						C96.1,332.6,94.3,332.8,93.1,332.8z M95.9,330.5l-1.1-0.2c0.2-0.9,0.4-2.5,0.3-3.5h-5.4v-1h6.6
						C96.4,327.5,96.2,329.4,95.9,330.5z M90.9,337.7v-3.8H92v2.9h7.8v1H90.9z M99.2,330.1v4.7h-1.1v-9.8h1.1v4.2h2v1H99.2z"/>
					<path d="M102.4,326h7.2v0.9h-3c0,0.3,0,0.6,0,0.8c0.1,1.8,1.7,3.2,3.2,3.7l-0.6,0.9c-1.2-0.5-2.7-1.8-3.2-3
						c-0.4,1.2-1.9,2.8-3.3,3.4l-0.6-0.9c1.6-0.6,3.3-2.3,3.4-4.2c0-0.2,0-0.5,0-0.8h-3V326z M104.4,337.9v-4.5h8.4v4.5H104.4z
						 M111.7,334.2h-6.1v2.7h6.1V334.2z M111.7,332.6v-3.3h-2.6v-0.9h2.6v-3.4h1.1v7.6H111.7z"/>
					<path d="M119.3,335c-1.5,0.1-3,0.1-4,0.1l-0.2-1c1.1,0,2.7,0,4.3-0.1c1.8-0.1,3.5-0.2,4.5-0.3l0.1,0.9
						C122.8,334.9,120.9,335,119.3,335z M119.2,332.1c-1.9,0-3.4-1.3-3.4-3c0-1.8,1.5-3.1,3.4-3.1c1.9,0,3.4,1.2,3.4,3.1
						C122.6,330.9,121.1,332.1,119.2,332.1z M119.2,326.9c-1.3,0-2.3,0.9-2.3,2.1c0,1.2,1,2.1,2.3,2.1c1.2,0,2.3-0.9,2.3-2.1
						C121.5,327.8,120.5,326.9,119.2,326.9z M125.8,324.9V338h-1.1v-13.1H125.8z"/>
					<path d="M134,325.4c-0.5,0.1-0.8,0.6-0.8,1.3h0.8v1.4h-1.4v-1.4c0-0.9,0.6-1.7,1.4-1.9V325.4z M136,325.4
						c-0.5,0.1-0.8,0.6-0.8,1.3h0.8v1.4h-1.4v-1.4c0-0.9,0.5-1.7,1.4-1.9V325.4z"/>
					<path d="M143.7,332.1c-1.3-0.6-2.6-1.7-3.1-3c-0.4,1.3-1.6,2.7-3.2,3.5l-0.7-0.9c1.9-0.9,3.3-2.5,3.3-4.6v-1.3h1.2v1.3
						c0,2.1,1.7,3.7,3.2,4.2L143.7,332.1z M143.4,338c-2.8,0-4.4-0.9-4.4-2.5c0-1.5,1.6-2.5,4.4-2.5c2.8,0,4.4,0.9,4.4,2.5
						C147.8,337.1,146.2,338,143.4,338z M140.2,335.6c0,1,1.2,1.5,3.2,1.5c2,0,3.2-0.6,3.2-1.5c0-1-1.2-1.5-3.2-1.5
						C141.4,334,140.2,334.6,140.2,335.6z M143.7,328.9V328h2.8v-3h1.1v8.1h-1.1v-4.2H143.7z"/>
					<path d="M155.2,335.3v-2.5h-5.3v-0.9h11.8v0.9h-5.4v2.5H155.2z M151.4,330.4v-5h1.1v1.6h6.6v-1.6h1.2v5H151.4z M151.4,337.6
						v-3.6h1.1v2.6h7.9v0.9H151.4z M159.1,327.9h-6.6v1.5h6.6V327.9z"/>
					<path d="M166.7,335.1c-1.3,0.1-2.8,0.1-3.9,0.1l-0.2-1c0.7,0,1.9,0,2.9,0v-4.1h1.2v4.1c1.6-0.1,3.2-0.2,4.4-0.4l0.1,0.9
						C169.9,334.9,167.9,335,166.7,335.1z M169.7,332.3l-1.1-0.1c0.3-1.3,0.5-3.4,0.4-4.9h-5.7v-1h6.9
						C170.2,328.3,170,331.1,169.7,332.3z M173,331.4v6.7h-1.1v-13.1h1.1v5.5h2.1v1H173z"/>
					<path d="M179.8,336.5v-1h3.1v-1.7h1.1v1.7h3.3v-1.7h1.1v1.7h3.1v1H179.8z M180.5,328.6v-1h10.4v1H180.5z M185.7,333.5
						c-2.4,0-4-0.8-4-2.2c0-1.5,1.6-2.2,4-2.2c2.5,0,4.1,0.8,4.1,2.2C189.8,332.7,188.2,333.5,185.7,333.5z M185.7,330
						c-1.5,0-2.9,0.4-2.9,1.3c0,0.9,1.4,1.3,2.9,1.3c1.5,0,2.9-0.4,2.9-1.3C188.6,330.4,187.2,330,185.7,330z M183.3,326.5v-1h4.7v1
						H183.3z"/>
					<path d="M192.8,332v-0.9h11.8v0.9H192.8z M198.7,338c-2.9,0-4.6-0.9-4.6-2.4c0-1.6,1.7-2.4,4.6-2.4c2.9,0,4.6,0.9,4.6,2.4
						C203.3,337.1,201.6,338,198.7,338z M194.4,329.6v-4.4h1.1v3.4h7.7v0.9H194.4z M195.3,335.5c0,1,1.4,1.5,3.4,1.5
						c2.1,0,3.5-0.5,3.5-1.5c0-1-1.4-1.5-3.5-1.5C196.6,334,195.3,334.5,195.3,335.5z"/>
					<path d="M205.7,328.3c0.5-0.1,0.8-0.6,0.8-1.3h-0.8v-1.4h1.4v1.4c0,0.9-0.6,1.7-1.4,1.9V328.3z M207.7,328.3
						c0.5-0.1,0.8-0.6,0.8-1.3h-0.8v-1.4h1.4v1.4c0,0.9-0.5,1.7-1.4,1.9V328.3z"/>
					<path d="M221.5,329.1c0,2-1.5,3.3-3.4,3.3c-1.9,0-3.4-1.3-3.4-3.3c0-1.9,1.5-3.3,3.4-3.3S221.5,327.2,221.5,329.1z
						 M215.8,329.1c0,1.3,1,2.2,2.3,2.2c1.3,0,2.3-0.9,2.3-2.2c0-1.3-0.9-2.3-2.3-2.3C216.8,326.8,215.8,327.8,215.8,329.1z
						 M216.9,337.6v-4h1.1v3h7.6v0.9H216.9z M221.8,327.7v-0.9h2.4v-1.9h1.1v9.5h-1.1v-3.4h-2.4v-0.9h2.4v-2.4H221.8z"/>
					<path d="M237.4,331.7h2v1h-5.4v5.4h-1.1v-5.4h-5.3v-1h8.7c0.4-1.4,0.4-3.6,0.4-4.9H229v-0.9h8.9
						C237.9,327.7,237.8,329.7,237.4,331.7z"/>
				</g>
				<g class="st2">
					<path d="M30.7,401.7h7.8v1.2h-7.8V401.7z"/>
				</g>
				<g class="st2">
					<path d="M51.5,408.1v-4.6h-5.3v-1h11.8v1h-5.4v4.6H51.5z M52.1,401.4c-2.9,0-4.7-1.2-4.7-2.9c0-1.7,1.8-2.9,4.7-2.9
						c2.9,0,4.7,1.2,4.7,2.9C56.8,400.2,55.1,401.4,52.1,401.4z M48.6,398.4c0,1.2,1.4,2,3.6,2c2.2,0,3.6-0.7,3.6-2
						c0-1.2-1.3-1.9-3.6-1.9C49.9,396.5,48.6,397.2,48.6,398.4z"/>
					<path d="M64.5,408.1v-4.8h-5.3v-1H71v1h-5.4v4.8H64.5z M70,401c-2-0.4-4.1-1.6-4.9-3.2c-0.6,1.5-2.9,2.8-4.9,3.2l-0.6-1
						c2.5-0.3,4.8-2,4.8-3.8v-0.8h1.2v0.8c0,1.8,2.5,3.5,4.8,3.8L70,401z"/>
					<path d="M72.1,398.3v-0.9h7.7v0.9H72.1z M75.9,403.6c-1.7,0-3.1-0.9-3.1-2.3c0-1.4,1.3-2.3,3.1-2.3c1.8,0,3.1,0.9,3.1,2.3
						C79,402.7,77.7,403.6,75.9,403.6z M75.9,400c-1,0-2,0.5-2,1.4c0,0.9,0.9,1.4,2,1.4c1.1,0,2-0.5,2-1.4
						C77.9,400.5,77,400,75.9,400z M74,396.4v-1h3.8v1H74z M74,407.6v-3.4h1.1v2.4h7.6v1H74z M82.2,400.3v4.3h-1.1v-9.7h1.1v4.4h2v1
						H82.2z"/>
					<path d="M93.5,404.7c-1.5,0.1-3.1,0.1-4.3,0.1c-0.1-0.3-0.1-0.7-0.2-1c0.6,0,1.3,0,1.9,0l-0.5-5.4l1.2-0.1l0.4,5.6
						c0.5,0,1,0,1.5-0.1c0.2,0,0.3,0,0.5,0c0.1-1.8,0.2-3.7,0.4-5.5l1.1,0.1c-0.2,1.8-0.3,3.5-0.5,5.3c1-0.1,1.8-0.1,2.4-0.2
						l0.1,0.9C96.6,404.5,95.1,404.6,93.5,404.7z M89.4,397.3v-1h7.3v1H89.4z M98.6,408v-13.1h1.1V408H98.6z"/>
					<path d="M107.4,408.1v-4.3h-5.3v-1h11.8v1h-5.4v4.3H107.4z M103.5,401.2v-5.8h1.2v1.9h6.7v-1.9h1.1v5.8H103.5z M111.3,398.3
						h-6.7v2h6.7V398.3z"/>
					<path d="M121.5,402.8v2.7h5.4v1H115v-1h5.3v-2.7h-3.9v-6.9h1.2v2.4h6.7v-2.4h1.1v6.9H121.5z M124.3,399.2h-6.7v2.6h6.7V399.2z"
						/>
					<path d="M134.5,403.8v1.7h5.4v1H128v-1h5.3v-1.7c-2.2-0.1-3.6-0.9-3.6-2.2c0-1.5,1.6-2.2,4.2-2.2c2.6,0,4.2,0.8,4.2,2.2
						C138.1,402.9,136.7,403.7,134.5,403.8z M128.6,398.6v-1h10.7v1H128.6z M133.9,400.2c-1.5,0-3,0.4-3,1.3s1.5,1.3,3,1.3
						c1.6,0,3-0.4,3-1.3S135.5,400.2,133.9,400.2z M131.5,396.6v-1h4.7v1H131.5z"/>
					<path d="M145.5,401.3v-5.4h6.3v5.4H145.5z M155.9,408.3c-1.9-0.2-3.6-1.1-4.4-2.3c-0.7,1.2-2.6,2.1-4.5,2.2l-0.5-0.9
						c1.9-0.2,4-1.1,4.3-2.3h-3.8v-0.9h8.9v0.9h-3.8c0.4,1.2,2.6,2.1,4.3,2.3L155.9,408.3z M150.7,396.8h-4v3.5h4V396.8z
						 M149.5,403.1v-1h4.2v1H149.5z M154.5,402.1v-7.1h1.1v7.1H154.5z"/>
					<path d="M161.8,398v-0.9h7.5v0.9H161.8z M165.5,402.9c-1.7,0-3-0.8-3-2.1c0-1.3,1.3-2.2,3-2.2c1.7,0,3,0.8,3,2.2
						C168.5,402,167.2,402.9,165.5,402.9z M167.7,408c-2.8,0-4.3-0.9-4.3-2.3c0-1.4,1.5-2.3,4.3-2.3s4.3,0.9,4.3,2.3
						C172.1,407.2,170.6,408,167.7,408z M163.7,396.2v-1h3.8v1H163.7z M165.5,399.5c-1,0-1.9,0.5-1.9,1.3c0,0.8,0.9,1.2,1.9,1.2
						c1,0,1.8-0.5,1.8-1.2C167.4,400,166.5,399.5,165.5,399.5z M164.6,405.8c0,0.8,1.2,1.3,3.1,1.3s3.2-0.5,3.2-1.3
						c0-0.8-1.2-1.3-3.2-1.3S164.6,405,164.6,405.8z M171.9,399.9v3.5h-1.1v-8.4h1.1v4h2v1H171.9z"/>
					<path d="M181.3,402.2v3.2h5.4v1h-11.8v-1h5.3v-3.2h-3.9v-6.1h1.1v5.2h8v0.9H181.3z"/>
					<path d="M196,405.4c-1,0.1-2.8,0.3-4.3,0.4c-1.5,0.1-2.8,0.1-3.9,0.1l-0.2-1c0.9,0,2.3,0,3.5,0v-1.3c-1.5-0.2-2.5-1-2.5-2.2
						c0-1.4,1.3-2.2,3.1-2.2c1.9,0,3.1,0.8,3.1,2.2c0,1.2-1,2-2.6,2.2v1.2c1.5-0.1,2.8-0.2,3.7-0.3L196,405.4z M187.8,398.6v-0.9
						h7.8v0.9H187.8z M191.7,400.2c-1.2,0-2,0.5-2,1.3c0,0.7,0.8,1.3,2,1.3c1.2,0,2-0.5,2-1.3C193.7,400.7,192.9,400.2,191.7,400.2z
						 M189.8,396.5v-1h3.8v1H189.8z M197.9,401.7v6.3h-1.2v-13.1h1.2v5.8h2.1v1H197.9z"/>
					<path d="M205,397.7h7.1v0.9h-2.9v0.2c0,1.7,1.6,3,3.2,3.4l-0.6,0.9c-1.2-0.3-2.5-1.5-3.2-2.6c-0.4,1.2-1.8,2.5-3.3,3l-0.6-0.9
						c1.7-0.5,3.3-2.1,3.3-3.8v-0.3h-3V397.7z M206.8,395.5h3.7v1h-3.7V395.5z M207,407.6v-3.9h1.1v3h7.6v0.9H207z M215.4,404.5
						h-1.1v-4.1h-2.4v-0.9h2.4v-4.5h1.1V404.5z"/>
					<path d="M224.6,399.1c0,2-1.5,3.3-3.4,3.3c-1.9,0-3.4-1.3-3.4-3.3c0-1.9,1.5-3.3,3.4-3.3S224.6,397.2,224.6,399.1z
						 M218.9,399.1c0,1.3,1,2.2,2.3,2.2c1.3,0,2.3-0.9,2.3-2.2c0-1.3-0.9-2.3-2.3-2.3C219.9,396.8,218.9,397.8,218.9,399.1z
						 M219.9,407.6v-4h1.1v3h7.6v0.9H219.9z M224.9,397.7v-0.9h2.4v-1.9h1.1v9.5h-1.1v-3.4h-2.4v-0.9h2.4v-2.4H224.9z"/>
					<path d="M232.1,407.9v-3h7.9v-1.1H232v-0.9h4v-1.3h-5.3v-0.9h11.8v0.9h-5.4v1.3h3.9v2.9h-7.9v1.2h8.4v1H232.1z M232.2,399.5v-4
						h8.8v4H232.2z M239.8,396.4h-6.5v2.1h6.5V396.4z"/>
					<path d="M255.8,405.4c-1,0.1-2.8,0.3-4.3,0.4c-1.5,0.1-2.8,0.1-3.9,0.1l-0.2-1c0.9,0,2.3,0,3.5,0v-1.3c-1.5-0.2-2.5-1-2.5-2.2
						c0-1.4,1.3-2.2,3.1-2.2c1.9,0,3.1,0.8,3.1,2.2c0,1.2-1,2-2.5,2.2v1.2c1.5-0.1,2.9-0.2,3.7-0.3L255.8,405.4z M247.6,398.6v-0.9
						h7.8v0.9H247.6z M251.5,400.2c-1.2,0-2,0.5-2,1.3c0,0.7,0.8,1.3,2,1.3c1.2,0,2-0.5,2-1.3C253.5,400.7,252.7,400.2,251.5,400.2z
						 M249.6,396.5v-1h3.8v1H249.6z M257.7,401.7v6.3h-1.2v-13.1h1.2v5.8h2.1v1H257.7z"/>
					<path d="M260.6,395.9h7.2v1h-3c0,0.3,0,0.6,0,0.7c0.1,1.7,1.7,3.1,3.2,3.6l-0.6,0.9c-1.3-0.5-2.6-1.7-3.1-2.9
						c-0.4,1.2-1.9,2.6-3.3,3.2l-0.7-0.9c1.7-0.6,3.3-2.3,3.4-4c0-0.1,0-0.4,0-0.7h-3V395.9z M266.4,408c-2.7,0-4.4-0.9-4.4-2.5
						c0-1.6,1.6-2.5,4.4-2.5s4.4,0.9,4.4,2.5C270.8,407.1,269.2,408,266.4,408z M266.4,404c-2,0-3.2,0.5-3.2,1.6
						c0,1,1.2,1.5,3.2,1.5c2,0,3.2-0.6,3.2-1.5C269.6,404.5,268.4,404,266.4,404z M270.6,399.5v3.5h-1.1v-8.1h1.1v3.6h2v1H270.6z"/>
					<path d="M275,407.9v-4.1h3.9v-1.5h-5.3v-0.9h11.8v0.9H280v1.5h3.9v4.1H275z M274.7,396.5v-0.9h9.5v0.9H274.7z M274.8,400.2
						v-0.9h2l-0.3-2.1l1.2-0.1l0.2,2.2h3.1l0.3-2.2l1.2,0.1l-0.4,2.1h2v0.9H274.8z M282.8,404.7h-6.7v2.2h6.7V404.7z"/>
				</g>
				<g class="st2">
					<path d="M34.2,439.5v-2.4c-1.2,0-2.5,0.1-3.6,0.1l-0.2-1c1.4,0,3,0,4.4,0c1.5-0.1,2.9-0.2,4.2-0.3l0.1,0.9
						c-0.8,0.1-2.3,0.2-3.7,0.3v2.5H34.2z M34.7,435.4c-2,0-3.5-0.9-3.5-2.4c0-1.5,1.5-2.4,3.5-2.4s3.5,0.9,3.5,2.4
						C38.2,434.5,36.7,435.4,34.7,435.4z M32.2,442.7v-3.8h1.1v2.8h8.2v1H32.2z M34.7,431.5c-1.4,0-2.4,0.6-2.4,1.5
						c0,0.9,1,1.5,2.4,1.5c1.4,0,2.4-0.6,2.4-1.5S36.1,431.5,34.7,431.5z M40.2,440v-1.4h-2.8v-0.9h2.8v-7.8h1.1V440H40.2z"/>
					<path d="M52.2,437.9v2.5h3.2v1H43.5v-1h3.3v-2.5H45v-4h7.8v-2H45v-1h8.9v3.9h-7.8v2.1h8.1v0.9H52.2z M48,440.4h3v-2.5h-3V440.4
						z"/>
					<path d="M56.5,441.4v-1h5.3v-2.2H58v-4.1h7.8V432H58v-1h8.9v4h-7.8v2.2h8.1v1H63v2.2h5.4v1H56.5z"/>
					<path d="M83.4,434.9h1.9v0.9H73.4v-0.9h8.8c0.3-1,0.4-2,0.4-3.3h-7.8v-0.9h8.9C83.8,432.4,83.7,433.7,83.4,434.9z M74.8,442.9
						v-3.3h7.8v-1.4h-7.9v-0.9h9v3.2H76v1.5h8.3v0.9H74.8z"/>
					<path d="M86.4,441.4v-1h5.3v-2.2h-3.9v-4.1h7.8V432h-7.8v-1h8.9v4H89v2.2h8.1v1h-4.3v2.2h5.4v1H86.4z"/>
					<path d="M99.9,436.3v-5.8h1.1v1.9h3.7v-1.9h1.1v5.8H99.9z M104.8,433.4h-3.7v2h3.7V433.4z M101.6,443v-3.3h7.4v-1.3h-7.4v-0.9
						h8.5v3.1h-7.4v1.4h7.8v0.9H101.6z M106.6,433.8v-1h2.3v-2.9h1.1v6.8H109v-2.9H106.6z"/>
					<path d="M123.6,439.9c-1.2-0.8-2.7-2.4-3.2-4c-0.5,1.6-1.8,3.2-3.3,4.3l-0.8-0.9c1.9-1.2,3.5-3.6,3.5-5.9v-2.4h1.2v2.3
						c0,2.4,1.6,4.5,3.4,5.6L123.6,439.9z M126,443v-13.1h1.2V443H126z"/>
					<path d="M129.4,430.9h7.2v1h-3c0,0.3,0,0.6,0,0.7c0.1,1.7,1.7,3.1,3.2,3.6l-0.6,0.9c-1.3-0.5-2.6-1.7-3.1-2.9
						c-0.4,1.2-1.9,2.6-3.3,3.2l-0.7-0.9c1.6-0.6,3.3-2.3,3.4-4c0-0.1,0-0.4,0-0.7h-3V430.9z M135.1,443c-2.7,0-4.4-0.9-4.4-2.5
						c0-1.6,1.6-2.5,4.4-2.5c2.7,0,4.4,0.9,4.4,2.5C139.5,442.1,137.9,443,135.1,443z M135.1,439c-2,0-3.2,0.5-3.2,1.6
						c0,1,1.2,1.5,3.2,1.5s3.2-0.6,3.2-1.5C138.4,439.5,137.1,439,135.1,439z M139.4,434.5v3.5h-1.1v-8.1h1.1v3.6h2v1H139.4z"/>
					<path d="M146.8,431.2h7.1v1h-3c0,0.6,0,0.8,0,1c0.1,1.7,1.7,3.2,3.2,3.6l-0.6,0.9c-1.2-0.5-2.7-1.7-3.2-2.9
						c-0.3,1.2-1.9,2.7-3.3,3.3l-0.7-0.9c1.6-0.6,3.3-2.3,3.4-4c0-0.2,0-0.4,0-1h-3V431.2z M148.5,442.7v-4.1h1.1v3.1h7.6v0.9H148.5
						z M155.8,439.5v-9.5h1.1v9.5H155.8z"/>
					<path d="M160.6,442.8V440h7.8v-1h-7.8V438h3.9V437h-5.3V436H171v0.9h-5.4v1.1h3.9v2.8h-7.8v1.1h8.2v0.9H160.6z M169.9,435.5
						c-1.9-0.2-4-0.9-4.8-2.1c-0.8,1.2-2.7,1.8-4.8,2.1l-0.5-0.9c2-0.1,4.1-0.8,4.6-1.8h-3.9v-0.9h9.3v0.9h-3.9
						c0.5,1,2.7,1.7,4.6,1.8L169.9,435.5z M163,430.9V430h4.2v0.9H163z"/>
				</g>
			</g>
			<g id="table1" transform="translate(0.000000, 671.000000)">
				<g id="cell1">
					<g id="_x31_">
						<path id="bg_2_" class="st7" d="M8,0h318c4.4,0,8,3.6,8,8v34c0,4.4-3.6,8-8,8H8c-4.4,0-8-3.6-8-8V8C0,3.6,3.6,0,8,0z"/>
						<g class="st2">
							<path class="st3" d="M153.6,29.1v1.6H141v-1.6H153.6z M143.9,21.2H142v-1.6h10.5v1.6h-1.9v4.1h1.8V27h-10.4v-1.6h1.8V21.2z
								 M148.7,21.2h-2.8v4.1h2.8V21.2z"/>
							<path class="st3" d="M167.4,29.2v1.6h-12.5v-1.6h5.2v-2.1h-3.8v-4.7h7.7v-1.5h-7.7v-1.6h9.7V24h-7.7v1.5h8v1.6h-4.2v2.1
								H167.4z"/>
							<path class="st3" d="M174.5,26.5c-1.2-0.5-2-1.2-2.4-2.2c-0.5,1.1-1.3,2-2.6,2.5l-1-1.5c1.9-0.7,2.6-2.3,2.6-3.9V21h-2.2
								v-1.6h6.1V21h-2v0.4c0,1.5,0.7,2.9,2.4,3.6L174.5,26.5z M170.9,27.4h9.5v4.9h-2V29h-7.5V27.4z M175.8,21.9v-3.2h1.8v8.1h-1.8
								v-3.3h-1.5v-1.6H175.8z M180.4,18.5v8.4h-1.9v-8.4H180.4z"/>
							<path class="st3" d="M195,29.1v1.6h-12.5v-1.6H195z M193.6,27.2h-9.7v-7.7h9.6v1.6h-7.6v1.5h7.3v1.5h-7.3v1.5h7.7V27.2z"/>
						</g>
					</g>
					<g id="_x32_" transform="translate(0.000000, 102.000000)">
						<path id="bg_3_" class="st7" d="M8,0h318c4.4,0,8,3.6,8,8v34c0,4.4-3.6,8-8,8H8c-4.4,0-8-3.6-8-8V8C0,3.6,3.6,0,8,0z"/>
						<g class="st2">
							<path class="st3" d="M142.9,27.5c1.3,0,2.5-0.1,3.8-0.3l0.1,1.6c-1.7,0.3-3.1,0.4-4.9,0.4h-1v-9.1h5.1v1.6h-3.2V27.5z
								 M152.4,18.5v13.8h-1.9v-6.9h-1.2v6.3h-1.8V18.7h1.8v5.1h1.2v-5.3H152.4z"/>
							<path class="st3" d="M161.5,26.1c-1.5-0.5-2.5-1.4-3-2.6c-0.6,1.4-1.7,2.4-3.2,3l-1-1.6c2.3-0.8,3.2-2.6,3.2-4.5v-1.2h2v1.4
								c0,1.7,0.9,3.3,3.1,4L161.5,26.1z M165.4,29.6c0,1.7-1.8,2.7-4.7,2.7c-2.9,0-4.7-1-4.7-2.7c0-1.7,1.8-2.7,4.7-2.7
								C163.6,27,165.4,28,165.4,29.6z M163.4,29.6c0-0.8-0.9-1.1-2.7-1.1c-1.8,0-2.7,0.4-2.7,1.1c0,0.8,0.9,1.1,2.7,1.1
								C162.5,30.8,163.4,30.4,163.4,29.6z M167,21.7v1.6h-1.8v3.3h-2v-8.2h2v3.2H167z"/>
							<path class="st3" d="M175.9,25.4c-1.6-0.4-2.7-1.3-3.3-2.5c-0.6,1.3-1.8,2.3-3.4,2.8l-0.9-1.5c2.1-0.6,3.2-2,3.3-3.5h-2.8
								v-1.6h7.5v1.6h-2.7c0.1,1.3,1.2,2.7,3.2,3.2L175.9,25.4z M180,30.7v1.5h-9.5v-3.8h7.2v-0.8h-7.2v-1.5h9.2v3.7h-7.2v0.9H180z
								 M179.6,25.6h-2v-7.1h2V25.6z"/>
							<path class="st3" d="M190.5,27.3c-2.9,0.5-6.1,0.6-8.5,0.6l-0.2-1.5c1,0,2.1,0,3.3,0v-0.8c-1.5-0.2-2.4-1-2.4-2.1
								c0-1.3,1.3-2.1,3.4-2.1c2,0,3.4,0.8,3.4,2.1c0,1.1-0.9,1.8-2.4,2.1v0.7c1.1-0.1,2.2-0.2,3.3-0.3L190.5,27.3z M190,21h-7.8
								v-1.4h2.9v-1.2h2v1.2h2.9V21z M185.7,30.5h7.7V32h-9.7v-3.5h2V30.5z M186.1,24.3c0.9,0,1.5-0.3,1.5-0.8
								c0-0.5-0.6-0.8-1.5-0.8s-1.5,0.3-1.5,0.8C184.6,24,185.1,24.3,186.1,24.3z M194.6,23v1.6h-1.7v4.6h-2V18.5h2V23H194.6z"/>
						</g>
					</g>
					<g class="st2">
						<path d="M101.3,177.4c0,2.9-1.5,4.8-3.5,4.8s-3.5-1.8-3.5-4.8c0-2.9,1.5-4.8,3.5-4.8S101.3,174.5,101.3,177.4z M99.8,177.4
							c0-2.1-0.8-3.4-2-3.4c-1.2,0-2,1.3-2,3.4c0,2.1,0.8,3.4,2,3.4C99,180.8,99.8,179.5,99.8,177.4z M106.8,178.2h-2.1v7h-1.5
							v-13.6h1.5v5.3h2.1V178.2z"/>
						<path d="M120.3,182.3v1.3H108v-1.3h5.3v-2.5h-3.8v-7.1h9.3v1.3h-7.7v1.6h7.4v1.2h-7.4v1.8h7.8v1.2h-4v2.5H120.3z"/>
						<path d="M128.4,180.4c0.7,0,1.3-0.1,2-0.2l0.1,1.1c-2.9,0.5-6.1,0.5-8.5,0.5l-0.2-1.3c0.5,0,1.1,0,1.7,0v-6.4h-1.4V173h7.6
							v1.2h-1.3V180.4z M125,180.6c0.6,0,1.3,0,1.9-0.1v-6.3H125V180.6z M133,171.6v13.6h-1.5v-13.6H133z"/>
						<path d="M145.6,180.4c0.7,0,1.3-0.1,2-0.2l0.1,1.1c-2.9,0.5-6.1,0.5-8.5,0.5l-0.2-1.3c0.5,0,1.1,0,1.7,0v-6.4h-1.4V173h7.6
							v1.2h-1.3V180.4z M142.2,180.6c0.6,0,1.3,0,1.9-0.1v-6.3h-1.9V180.6z M150.2,171.6v13.6h-1.5v-13.6H150.2z"/>
						<path d="M165,180.8h-5.4v4.4h-1.5v-4.4h-5.3v-1.2H165V180.8z M163.5,178.1h-9.3v-5.9h1.5v1.7h6.2v-1.7h1.5V178.1z M162,175.1
							h-6.2v1.7h6.2V175.1z"/>
						<path d="M177.8,171.6v7.7h-1.5v-1.6H173c-0.6,0.7-1.6,1.1-2.7,1.1c-2,0-3.5-1.3-3.5-3.2c0-1.9,1.5-3.2,3.5-3.2
							c1.1,0,2.1,0.4,2.7,1.1h3.3v-1.8H177.8z M172.3,175.6c0-1.2-0.9-2-2.1-2c-1.2,0-2.1,0.8-2.1,2s0.9,1.9,2.1,1.9
							C171.5,177.5,172.3,176.8,172.3,175.6z M168.9,180h8.9v5h-8.9V180z M170.4,183.8h5.9v-2.5h-5.9V183.8z M176.3,176.5v-1.8h-2.6
							c0.1,0.3,0.1,0.6,0.1,0.9c0,0.3,0,0.6-0.1,0.9H176.3z"/>
						<path d="M190.8,172.6c0,3.6-2.4,6.2-6.2,7.5l-0.7-1.2c3-1,5-2.8,5.2-5h-4.5v-1.3H190.8z M195.3,183.6v1.3h-9v-4.3h1.5v3.1
							H195.3z M193.4,175.7v-4.1h1.5v10h-1.5V177h-2.7v-1.3H193.4z"/>
						<path d="M204.8,179c-1.5-0.5-2.5-1.5-3.1-2.9c-0.6,1.5-1.7,2.7-3.4,3.3l-0.8-1.2c2.2-0.7,3.4-2.6,3.4-4.5v-1.3h1.6v1.3
							c0,1.9,1.1,3.6,3.2,4.2L204.8,179z M208.8,182.6c0,1.6-1.7,2.6-4.6,2.6c-2.8,0-4.6-1-4.6-2.6c0-1.6,1.7-2.6,4.6-2.6
							C207.1,180,208.8,180.9,208.8,182.6z M207.3,182.6c0-0.9-1.1-1.4-3-1.4s-3,0.5-3,1.4c0,0.9,1.1,1.4,3,1.4
							S207.3,183.4,207.3,182.6z M207.2,175.6h-2.7v-1.3h2.7v-2.7h1.5v8h-1.5V175.6z"/>
						<path d="M221.3,180.4c0.7,0,1.3-0.1,2-0.2l0.1,1.1c-2.9,0.5-6.1,0.5-8.6,0.5l-0.2-1.3c0.5,0,1.1,0,1.7,0v-6.4h-1.3V173h7.6
							v1.2h-1.3V180.4z M217.9,180.6c0.6,0,1.3,0,1.9-0.1v-6.3h-1.9V180.6z M225.9,171.6v13.6h-1.5v-13.6H225.9z"/>
						<path d="M240.8,180.8h-5.4v4.4h-1.5v-4.4h-5.3v-1.2h12.3V180.8z M239.3,178.1H230v-5.9h1.5v1.7h6.2v-1.7h1.5V178.1z
							 M237.7,175.1h-6.2v1.7h6.2V175.1z"/>
					</g>
					<g class="st2">
						<path d="M140.3,70.9h3.6c2.5,0,4.3,0.9,4.3,3.5c0,2.5-1.9,3.7-4.3,3.7h-1.5V82h-2.2V70.9z M143.9,76.3c1.5,0,2.3-0.6,2.3-1.9
							c0-1.3-0.8-1.7-2.3-1.7h-1.3v3.6H143.9z"/>
						<path d="M149.8,76.5c0-3.7,2.4-5.8,5.3-5.8c1.6,0,2.7,0.7,3.4,1.4l-1.2,1.4c-0.5-0.5-1.2-0.9-2.2-0.9c-1.8,0-3.1,1.4-3.1,3.8
							c0,2.4,1.1,3.9,3.3,3.9c0.5,0,1.1-0.2,1.4-0.4v-2.2h-2v-1.8h3.9v5c-0.7,0.7-2.1,1.3-3.6,1.3C152,82.2,149.8,80.2,149.8,76.5z"
							/>
						<path d="M160.9,80.2h2.4v-7h-2v-1.4c1.1-0.2,1.9-0.5,2.6-0.9h1.6v9.3h2.1V82h-6.7V80.2z"/>
						<path d="M169.2,76.4c0-3.8,1.5-5.7,3.8-5.7c2.2,0,3.8,1.9,3.8,5.7s-1.5,5.8-3.8,5.8C170.7,82.2,169.2,80.2,169.2,76.4z
							 M174.6,76.4c0-3.1-0.7-4-1.7-4c-1,0-1.7,0.9-1.7,4c0,3.1,0.7,4.1,1.7,4.1C173.9,80.5,174.6,79.5,174.6,76.4z"/>
						<path d="M178,80.7c3-2.7,4.8-4.8,4.8-6.5c0-1.1-0.6-1.8-1.7-1.8c-0.8,0-1.5,0.5-2,1.1l-1.2-1.2c1-1.1,2-1.7,3.5-1.7
							c2.1,0,3.5,1.3,3.5,3.4c0,2-1.7,4.2-3.7,6.1c0.6-0.1,1.3-0.1,1.8-0.1h2.4V82H178V80.7z"/>
						<path d="M187,76.5c0-3.7,2.4-5.8,5.2-5.8c1.4,0,2.5,0.7,3.3,1.4l-1.2,1.4c-0.6-0.5-1.2-0.9-2-0.9c-1.7,0-2.9,1.4-2.9,3.8
							c0,2.4,1.1,3.9,2.9,3.9c0.9,0,1.7-0.5,2.3-1.1l1.2,1.4c-0.9,1.1-2.1,1.6-3.5,1.6C189.3,82.2,187,80.2,187,76.5z"/>
					</g>
					<g id="_x32__1_" transform="translate(1.000000, 204.000000)">
						<path id="bg_4_" class="st8" d="M8.8,0.8h316.5c4.4,0,8,3.6,8,8v82.5c0,4.4-3.6,8-8,8H8.8c-4.4,0-8-3.6-8-8V8.8
							C0.8,4.3,4.3,0.8,8.8,0.8z"/>
						<g class="st2">
							<path class="st3" d="M122.1,51.4c-2.1,0-3.8-1.5-3.8-3.5c0-2,1.6-3.5,3.8-3.5c2.1,0,3.7,1.5,3.7,3.5
								C125.9,49.9,124.2,51.4,122.1,51.4z M122.1,49.7c1,0,1.8-0.7,1.8-1.8c0-1.1-0.8-1.8-1.8-1.8c-1,0-1.8,0.7-1.8,1.8
								C120.3,49,121.1,49.7,122.1,49.7z M130,55.5V57h-9.5v-4.6h2v3H130z M129.6,53.4h-2v-9.9h2V53.4z"/>
							<path class="st3" d="M136.2,47.7c0,2.1,0.7,4.2,2.7,5.2l-1.1,1.5c-1.2-0.6-2-1.7-2.5-3.1c-0.5,1.4-1.3,2.7-2.5,3.4l-1.1-1.5
								c2-1.2,2.7-3.4,2.7-5.5v-0.3h-2.2v-1.6h2.2v-1.9h1.9v1.9h2.1v1.6h-2.1V47.7z M139.1,43.7h1.8v13h-1.8v-6.4h-1.6v-1.6h1.6
								V43.7z M143.8,43.5v13.8h-1.9V43.5H143.8z"/>
							<path class="st3" d="M153.1,51.3c-1.5-0.5-2.5-1.5-3.1-2.7c-0.6,1.3-1.7,2.5-3.3,3l-1-1.6c2.2-0.8,3.2-2.5,3.3-4.2h-2.7v-1.6
								h7.4v1.6h-2.7c0,1.6,1,3.2,3.1,4L153.1,51.3z M147.9,52.3h9.4v5h-2v-3.4h-7.4V52.3z M157.3,43.5v8.2h-2v-3.3h-2v-1.6h2v-3.3
								H157.3z"/>
							<path class="st3" d="M172,50v1.6h-12.5V50h2.8v-1.7c-1-0.5-1.6-1.1-1.6-2c0-1.7,1.9-2.7,5-2.7c3.1,0,5,1,5,2.7
								c0,0.9-0.6,1.6-1.6,2V50H172z M170.6,54.8c0,1.6-1.8,2.5-4.8,2.5c-3,0-4.8-0.9-4.8-2.5c0-1.6,1.8-2.5,4.8-2.5
								C168.7,52.3,170.6,53.2,170.6,54.8z M162.8,46.3c0,0.8,1.1,1.1,3,1.1c1.9,0,3-0.4,3-1.1c0-0.8-1.1-1.2-3-1.2
								C163.9,45.2,162.8,45.6,162.8,46.3z M168.5,54.8c0-0.7-0.9-1-2.8-1s-2.8,0.3-2.8,1s0.9,1,2.8,1S168.5,55.5,168.5,54.8z
								 M164.3,50h2.9v-1.1c-0.4,0-0.9,0.1-1.4,0.1c-0.5,0-1,0-1.5-0.1V50z"/>
							<path class="st3" d="M178.7,46.6c0,2.6,1.1,5.1,3.4,6.1l-1.1,1.6c-1.6-0.7-2.7-2.1-3.3-3.8c-0.6,1.8-1.7,3.3-3.4,4.1
								l-1.2-1.6c2.4-1,3.6-3.7,3.6-6.4v-2h2V46.6z M184.8,43.5v13.9h-2V43.5H184.8z"/>
							<path class="st3" d="M195.3,46.2h-8.1v-1.5h3v-1.3h2v1.3h3.1V46.2z M191.2,51.7c-1.9,0-3.3-1-3.3-2.5c0-1.5,1.4-2.5,3.3-2.5
								c1.9,0,3.3,1,3.3,2.5C194.5,50.6,193.2,51.7,191.2,51.7z M189.5,52.4h9.2v4.7h-9.2V52.4z M191.2,50.2c0.8,0,1.4-0.4,1.4-1
								c0-0.7-0.6-1-1.4-1c-0.8,0-1.4,0.4-1.4,1C189.8,49.9,190.4,50.2,191.2,50.2z M191.4,55.6h5.3V54h-5.3V55.6z M198.7,43.5v8.3
								h-2v-2.7H195v-1.6h1.7v-4H198.7z"/>
							<path class="st3" d="M211.6,51.3v1c2.4,0.2,3.8,1,3.8,2.5c0,1.6-1.8,2.5-4.8,2.5c-3,0-4.8-0.9-4.8-2.5c0-1.4,1.4-2.3,3.8-2.5
								v-1h-5.2v-1.6h12.5v1.6H211.6z M204.9,47.7c2.6-0.2,3.9-1.1,4.3-2.1h-3.7V44h10.2v1.6H212c0.3,0.9,1.7,1.8,4.3,2.1l-0.7,1.5
								c-2.6-0.2-4.3-1.2-5-2.5c-0.7,1.3-2.4,2.3-5,2.5L204.9,47.7z M210.6,53.8c-1.8,0-2.8,0.3-2.8,1c0,0.7,0.9,1,2.8,1
								s2.8-0.3,2.8-1C213.3,54.1,212.4,53.8,210.6,53.8z"/>
						</g>
					</g>
				</g>
			</g>
		</g>
	</g>
</g>
</svg>
