<?xml version="1.0" encoding="utf-8"?>
<!-- Generator: Adobe Illustrator 24.0.0, SVG Export Plug-In . SVG Version: 6.00 Build 0)  -->
<svg version="1.1" id="Layer_1" xmlns="http://www.w3.org/2000/svg" xmlns:xlink="http://www.w3.org/1999/xlink" x="0px" y="0px"
	 viewBox="0 0 335 2286" style="enable-background:new 0 0 335 2286;" xml:space="preserve">
<style type="text/css">
	.st0{fill:none;stroke:#819A1E;stroke-width:2;}
	.st1{fill-rule:evenodd;clip-rule:evenodd;fill:#91AF1E;fill-opacity:0.8;stroke:#819A1E;stroke-width:2;}
	.st2{enable-background:new    ;}
	.st3{fill:#FFFFFF;}
	.st4{font-family:'NotoSansKR-Bold-KSCpc-EUC-H';}
	.st5{font-size:15px;}
	.st6{font-family:'NotoSansKR-Regular-KSCpc-EUC-H';}
	.st7{fill-rule:evenodd;clip-rule:evenodd;}
	.st8{fill-rule:evenodd;clip-rule:evenodd;fill:#91AF1E;fill-opacity:0.8;stroke:#819A1E;stroke-width:1.5;}
</style>
<title>table2</title>
<desc>Created with Sketch.</desc>
<g id="Page-1">
	<g id="mobile1_kr" transform="translate(-20.000000, -3157.000000)">
		<g id="table2" transform="translate(20.000000, 3157.000000)">
			<g id="box1">
				<path id="bg" class="st0" d="M9,1h317c4.4,0,8,3.6,8,8v498c0,4.4-3.6,8-8,8H9c-4.4,0-8-3.6-8-8V9C1,4.6,4.6,1,9,1z"/>
				<path id="bg_1_" class="st1" d="M29,21h277c4.4,0,8,3.6,8,8v88c0,4.4-3.6,8-8,8H29c-4.4,0-8-3.6-8-8V29C21,24.6,24.6,21,29,21z"
					/>
				<g class="st2">
					<path class="st3" d="M96,63.4c-1.6-0.4-2.7-1.3-3.3-2.4c-0.6,1.2-1.7,2.2-3.3,2.6l-0.9-1.5c2.2-0.6,3.2-2.1,3.2-3.7H89v-1.6
						h2.7v-1.4h2v1.4h2.7v1.6h-2.7c0,1.4,1,2.9,3.2,3.4L96,63.4z M91,64.2h9.2v5H91V64.2z M92.9,67.6h5.3v-1.9h-5.3V67.6z
						 M100.2,55.5v8.1h-2v-2.9h-2.1v-1.6h2.1v-3.6H100.2z"/>
					<path class="st3" d="M110.5,62.8c-1.7,0.4-3.3,0.4-6.3,0.4H103v-6.6h6.2v1.6h-4.2v3.5c2.5,0,3.8-0.1,5.3-0.4L110.5,62.8z
						 M106.4,67.5h7.4V69h-9.4v-4.6h2V67.5z M115.1,59.2v1.6h-1.8v4.6h-2v-10h2v3.8H115.1z"/>
					<path class="st3" d="M125.6,63.1c-1.1-0.5-1.9-1.3-2.4-2.3c-0.5,1.2-1.4,2.2-2.6,2.7l-1-1.5c1.9-0.8,2.7-2.5,2.7-4.1v-1.6h1.9
						v1.6c0,1.5,0.7,3,2.6,3.7L125.6,63.1z M131.5,66.7c0,1.6-1.8,2.6-4.7,2.6c-2.9,0-4.8-1-4.8-2.6c0-1.6,1.9-2.6,4.8-2.6
						C129.6,64.1,131.5,65.1,131.5,66.7z M129.5,66.7c0-0.7-1-1.1-2.8-1.1c-1.8,0-2.8,0.4-2.8,1.1s1,1.1,2.8,1.1
						C128.5,67.8,129.5,67.4,129.5,66.7z M128.5,63.5h-1.8v-7.8h1.8v3.1h1.1v-3.4h1.9v8.4h-1.9v-3.5h-1.1V63.5z"/>
					<path class="st3" d="M140.5,62.8H134v-6.4h6.5v1h2.5v-2h2v8.1h-2v-1.8h-2.5V62.8z M145.1,66.6c0,1.7-1.8,2.7-4.7,2.7
						c-2.9,0-4.7-1-4.7-2.7c0-1.7,1.8-2.7,4.7-2.7C143.3,63.9,145.1,64.9,145.1,66.6z M138.6,58H136v3.2h2.6V58z M143.1,66.6
						c0-0.8-0.9-1.2-2.8-1.2c-1.8,0-2.7,0.4-2.7,1.2s0.9,1.2,2.7,1.2C142.1,67.8,143.1,67.4,143.1,66.6z M140.5,59v1.2h2.5V59H140.5
						z"/>
					<path class="st3" d="M151.6,64.8c1.3,0,2.7-0.1,3.9-0.3l0.1,1.4c-2.8,0.5-5.9,0.5-8.3,0.6l-0.2-1.6c0.8,0,1.6,0,2.5,0v-4.1h1.9
						V64.8z M152.6,63.1c0.3-2,0.4-3.4,0.4-4.7h-5.2v-1.6h7.1V58c0,1.3,0,3-0.4,5.3L152.6,63.1z M160,62.7h-1.9v6.6h-2V55.5h2V61
						h1.9V62.7z"/>
					<path class="st3" d="M169.2,58.2H161v-1.6h3.1v-1.3h2v1.3h3.1V58.2z M165.1,63.8c-2,0-3.4-1-3.4-2.5c0-1.5,1.4-2.5,3.4-2.5
						c2,0,3.4,1,3.4,2.5C168.5,62.7,167.1,63.8,165.1,63.8z M162.7,64.7h9.2v4.6h-2v-3h-7.2V64.7z M165.1,62.3c0.9,0,1.5-0.3,1.5-1
						c0-0.7-0.6-1-1.5-1c-0.9,0-1.5,0.3-1.5,1C163.6,61.9,164.2,62.3,165.1,62.3z M173.8,60.7h-1.8v3.5h-2v-8.7h2V59h1.8V60.7z"/>
					<path class="st3" d="M187.4,66v1.6h-12.5V66H187.4z M186.2,60.2c0,2.4-2.2,4-5.2,4c-2.9,0-5.1-1.6-5.1-4c0-2.4,2.2-4,5.1-4
						C184,56.2,186.2,57.8,186.2,60.2z M177.9,60.2c0,1.5,1.3,2.4,3.2,2.4c1.9,0,3.2-0.9,3.2-2.4c0-1.5-1.3-2.4-3.2-2.4
						C179.2,57.8,177.9,58.7,177.9,60.2z"/>
					<path class="st3" d="M201.2,66.2v1.6h-12.5v-1.6h5.2v-2.1h-3.8v-4.7h7.7v-1.5h-7.7v-1.6h9.7V61h-7.7v1.5h8v1.6h-4.2v2.1H201.2z
						"/>
					<path class="st3" d="M213.6,59.3c0,1.9-1.6,3.3-3.8,3.3s-3.8-1.4-3.8-3.3c0-1.9,1.6-3.3,3.8-3.3S213.6,57.4,213.6,59.3z
						 M208,59.3c0,1,0.8,1.6,1.8,1.6c1,0,1.8-0.6,1.8-1.6c0-1-0.8-1.6-1.8-1.6C208.8,57.7,208,58.3,208,59.3z M210.1,63.5v1.3h5.2
						v-1.3h2v5.6h-9.2v-5.6H210.1z M210.1,67.6h5.2v-1.3h-5.2V67.6z M217.3,55.5v7.4h-2v-7.4H217.3z"/>
					<path class="st3" d="M232.1,61.9v1.6h-12.5v-1.6H232.1z M220.2,59.8c2.6-0.2,4-1.1,4.3-2.1h-3.7v-1.6H231v1.6h-3.7
						c0.3,0.9,1.7,1.9,4.3,2.1l-0.7,1.5c-2.6-0.2-4.3-1.2-5-2.5c-0.7,1.3-2.4,2.3-5,2.5L220.2,59.8z M230.7,66.7
						c0,1.6-1.8,2.6-4.8,2.6c-3,0-4.8-0.9-4.8-2.6c0-1.6,1.8-2.6,4.8-2.6C228.8,64.2,230.7,65.1,230.7,66.7z M228.7,66.7
						c0-0.7-0.9-1-2.8-1c-1.8,0-2.8,0.3-2.8,1c0,0.7,0.9,1.1,2.8,1.1C227.7,67.8,228.7,67.4,228.7,66.7z"/>
					<path class="st3" d="M242.3,63.8c-2.9,0.4-6,0.5-8.5,0.5l-0.3-1.6c1.1,0,2.3,0,3.5,0v-1.4h-2.4v-5h6.7v1.6h-4.7v1.8h4.8v1.6
						H239v1.3c1.1,0,2.1-0.1,3.1-0.2L242.3,63.8z M245.3,67.5V69h-9.7v-3.9h2v2.4H245.3z M245,65.9h-2V55.5h2V65.9z"/>
				</g>
				<text transform="matrix(1 0 0 1 246.6094 68)" class="st3 st4 st5"> </text>
				<g class="st2">
					<path class="st3" d="M96,86.1c-1.5-0.5-2.6-1.4-3.2-2.6c-0.6,1.3-1.7,2.3-3.2,2.8l-1-1.5c2.2-0.7,3.2-2.4,3.2-4v-0.1H89v-1.5
						h2.7v-1.5h2v1.5h2.7v1.5h-2.7v0.1c0,1.6,1,3.1,3.2,3.8L96,86.1z M100.5,89.5V91h-9.4v-4.2h2v2.6H100.5z M98.2,81.5v-4h2v10.2
						h-2v-4.6H96v-1.6H98.2z"/>
					<path class="st3" d="M109,84.3c-0.7,0.7-1.6,1.1-2.7,1.1c-2,0-3.6-1.5-3.6-3.6c0-2.1,1.6-3.6,3.6-3.6c1.1,0,2,0.4,2.7,1.1h3.1
						v-1.9h2v10.1h-2v-3.3H109z M106.3,83.7c1,0,1.8-0.7,1.8-1.9c0-1.1-0.8-1.8-1.8-1.8c-1,0-1.8,0.7-1.8,1.8
						C104.5,83,105.2,83.7,106.3,83.7z M114.3,89.5V91h-9.4v-4.5h2v2.9H114.3z M109.8,81c0.1,0.3,0.1,0.6,0.1,0.9
						c0,0.3,0,0.6-0.1,0.9h2.2V81H109.8z"/>
					<path class="st3" d="M123.5,84.5v0.9h3.7v3.5h-7.6v0.8h7.9v1.5h-9.9v-3.6h7.6v-0.7h-7.6v-1.5h3.8v-0.9h-5.2V83h12.5v1.6H123.5z
						 M127.1,82.2h-9.3v-4.3h9.3V82.2z M125.2,79.4h-5.5v1.3h5.5V79.4z"/>
					<path class="st3" d="M146,88.1v1.6h-12.5v-1.6h5.2V85h2v3.1H146z M144.7,85.4c-2.4-0.4-4.2-1.7-5.1-3.4c-0.9,1.7-2.7,3-5.1,3.4
						l-0.8-1.6c3.1-0.5,4.8-2.6,4.8-4.5v-1h2.1v1c0,2,1.7,4,4.8,4.5L144.7,85.4z"/>
					<path class="st3" d="M159.2,77.5v13.8h-1.9v-6.9h-1.1v6.3h-1.8v-4l-1.1,1.5c-1.2-0.7-2-1.8-2.5-3.1c-0.5,1.6-1.3,2.9-2.6,3.7
						l-1.2-1.5c2.1-1.2,2.7-3.6,2.7-6.3v-0.4h-2.3v-1.6h6.3v1.6h-2.1v0.4c0,2.4,0.7,4.7,2.7,5.8v-8.9h1.8v5.1h1.1v-5.3H159.2z"/>
					<path class="st3" d="M170.4,79.2c0,3.9-1.1,7-5,9.3l-1.2-1.4c2.8-1.6,3.9-3.6,4.2-6.3H165v-1.6H170.4z M176.3,77.5v13.8h-1.9
						v-7h-1.2v6.4h-1.8V77.8h1.8v4.8h1.2v-5.2H176.3z"/>
					<path class="st3" d="M185.3,84.1h-6.6v-6.1h2v1.7h2.7v-1.7h1.9V84.1z M182,89.7h7.5v1.5H180v-3.8h7.2v-0.8H180V85h9.1v3.8H182
						V89.7z M183.3,81.2h-2.7v1.4h2.7V81.2z M190.9,80.1v1.6h-1.8v2.7h-2v-7h2v2.7H190.9z"/>
				</g>
				<g class="st2">
					<path d="M30.7,158.3h3.8v1h-3.8V158.3z"/>
					<path d="M39.3,161.6l0.8-0.9c0.8,0.8,1.9,1.4,3,1.4c1.4,0,2.3-0.7,2.3-1.8c0-1.1-0.8-1.5-1.8-1.9l-1.6-0.7
						c-1-0.4-2.2-1.2-2.2-2.8c0-1.7,1.5-2.9,3.5-2.9c1.3,0,2.5,0.6,3.2,1.4l-0.7,0.9c-0.7-0.6-1.5-1-2.5-1c-1.2,0-2.1,0.6-2.1,1.6
						c0,1.1,1,1.5,1.8,1.8l1.6,0.7c1.3,0.6,2.3,1.3,2.3,2.9c0,1.7-1.4,3.1-3.7,3.1C41.6,163.2,40.2,162.6,39.3,161.6z"/>
					<path d="M48.4,157.5c0-3.6,2.1-5.7,4.9-5.7c1.3,0,2.4,0.7,3,1.4l-0.8,0.9c-0.6-0.6-1.3-1-2.2-1c-2.1,0-3.5,1.7-3.5,4.5
						c0,2.8,1.3,4.5,3.4,4.5c1,0,1.8-0.5,2.5-1.2l0.8,0.9c-0.9,1-2,1.6-3.4,1.6C50.4,163.2,48.4,161.1,48.4,157.5z"/>
					<path d="M58.6,152H60v11h-1.4V152z"/>
					<path d="M77.8,157.7v1H65.7v-1h5.5v-1.9h-3.8v-4.6h1.2v3.6h7.9v1h-4.1v1.9H77.8z M68.4,162.8h8.1v1h-9.3v-4h1.2V162.8z"/>
					<path d="M91.6,157.5v1h-5.4v2.7H85v-2.7h-5.6v-1H91.6z M82.2,162.8h8.1v1H81V160h1.2V162.8z M90,156h-9v-4.7h9V156z
						 M88.8,152.3h-6.6v2.7h6.6V152.3z"/>
					<path d="M103.3,157.6v1.2h3.9v2.9h-7.9v1.3h8.3v0.9h-9.5v-3.1h7.9v-1.1h-7.9v-0.9h4v-1.2h-5.4v-0.9h12.1v0.9H103.3z
						 M97.2,155.1c2.5-0.2,4.5-1,4.8-2.3h-4.2v-0.9h4.2v-1.3h1.2v1.3h4.2v0.9h-4.1c0.2,1.3,2.2,2.2,4.7,2.3l-0.4,0.9
						c-2.2-0.2-4.2-0.9-5.1-2.1c-0.8,1.2-2.8,1.9-5.1,2.1L97.2,155.1z"/>
					<path d="M118.7,158.1c-2.7,0.4-5.8,0.5-8.1,0.5l-0.1-1c0.5,0,1.1,0,1.7,0v-4.6h-1.3v-1h7.2v1h-1.3v4.4c0.7,0,1.3-0.1,2-0.2
						L118.7,158.1z M113.7,162.8h7.7v1h-9v-4.2h1.2V162.8z M113.3,157.5c0.7,0,1.4,0,2.1-0.1v-4.5h-2.1V157.5z M122.8,154.8v1h-2
						v4.8h-1.2v-9.9h1.2v4.1H122.8z"/>
					<path d="M136.4,156.5v1h-12.2v-1H136.4z M125.5,153.2c0-1.5,1.8-2.3,4.7-2.3c3,0,4.7,0.8,4.7,2.3c0,1.5-1.8,2.3-4.7,2.3
						C127.3,155.5,125.5,154.7,125.5,153.2z M126.9,163h8.3v1h-9.5v-3.2h7.9v-1.2h-7.9v-0.9h9.1v3h-7.9V163z M126.8,153.2
						c0,0.9,1.3,1.4,3.5,1.4c2.2,0,3.5-0.5,3.5-1.4c0-0.9-1.3-1.4-3.5-1.4C128.1,151.8,126.8,152.3,126.8,153.2z"/>
					<path d="M153.5,157.8v1h-12.2v-1h5.5v-1.3h-3.9V151h9.1v1h-7.8v1.2h7.5v0.9h-7.5v1.3h7.9v1h-4v1.3H153.5z M152,161.9
						c0,1.4-1.7,2.2-4.6,2.2s-4.6-0.8-4.6-2.2c0-1.4,1.7-2.1,4.6-2.1S152,160.5,152,161.9z M150.8,161.9c0-0.8-1.2-1.2-3.4-1.2
						c-2.2,0-3.4,0.4-3.4,1.2c0,0.8,1.2,1.2,3.4,1.2C149.6,163.2,150.8,162.7,150.8,161.9z"/>
					<path d="M163.1,153.3h-7.9v-1h3.3v-1.6h1.2v1.6h3.4V153.3z M159.2,159c-1.9,0-3.2-1-3.2-2.5c0-1.5,1.3-2.5,3.2-2.5
						s3.2,1,3.2,2.5C162.4,158,161.1,159,159.2,159z M159.2,158.1c1.2,0,2.1-0.6,2.1-1.5c0-0.9-0.8-1.5-2.1-1.5c-1.2,0-2,0.6-2,1.5
						C157.1,157.5,157.9,158.1,159.2,158.1z M158.5,162.8h7.7v1h-9V160h1.2V162.8z M167.6,155.1v1h-2v4.6h-1.2v-10.1h1.2v4.4H167.6z
						"/>
					<path d="M176.2,160.1c1.5-0.1,3-0.1,4.3-0.3l0.1,0.9c-2.8,0.5-6,0.5-8.3,0.5l-0.1-1c0.9,0,1.8,0,2.8,0V156h1.2V160.1z
						 M178.1,158.1c0.4-2.2,0.4-3.9,0.4-4.9h-5.6v-1h6.8v0.7c0,1.1,0,2.8-0.4,5.3L178.1,158.1z M184.8,157.3h-2.1v6.8h-1.2v-13.5
						h1.2v5.6h2.1V157.3z"/>
					<path d="M194.1,153.1h-7.9v-1h3.3v-1.5h1.2v1.5h3.4V153.1z M190.1,158.6c-1.9,0-3.2-0.9-3.2-2.4c0-1.5,1.3-2.4,3.2-2.4
						c1.9,0,3.2,1,3.2,2.4C193.3,157.7,192,158.6,190.1,158.6z M187.8,159.8h8.7v4.3h-1.2v-3.3h-7.5V159.8z M190.1,157.7
						c1.2,0,2.1-0.6,2.1-1.5c0-0.9-0.8-1.5-2.1-1.5s-2,0.6-2,1.5C188.1,157.1,188.9,157.7,190.1,157.7z M198.6,155.4h-2v3.7h-1.2
						v-8.4h1.2v3.7h2V155.4z"/>
					<path d="M207.2,158.2c-1.5-0.5-2.7-1.7-3.3-3c-0.6,1.5-1.8,2.8-3.4,3.4l-0.6-1c2-0.7,3.4-2.5,3.4-4.4v-0.5h-3v-1h7.2v1h-3v0.5
						c0,1.7,1.3,3.4,3.3,4.1L207.2,158.2z M202,159.4h9v4.7h-1.2v-3.7H202V159.4z M211,150.7v8.1h-1.2v-3.5h-2.6v-1h2.6v-3.5H211z"
						/>
					<path d="M224.5,158.3c-1.5-0.6-2.7-1.8-3.3-3.3c-0.6,1.6-1.8,2.9-3.4,3.6l-0.6-1c2-0.8,3.4-2.7,3.4-4.8v-1.4h1.2v1.4
						c0,2,1.4,3.9,3.4,4.6L224.5,158.3z M228.5,162.8v1h-9.1v-4.2h1.2v3.2H228.5z M228.1,160.5h-1.2v-9.9h1.2V160.5z"/>
					<path d="M236,160.4c1.3-0.1,2.6-0.1,3.8-0.3l0.1,0.9c-2.9,0.5-6.2,0.5-8.7,0.5l-0.2-1c1.2,0,2.4,0,3.8,0v-2.3H232v-3.6h5.5
						v-1.7h-5.5v-1h6.8v3.6h-5.5v1.7h5.9v1H236V160.4z M241.8,150.6v13.5h-1.2v-13.5H241.8z"/>
					<path d="M251.9,158c-1.5-0.6-2.6-1.6-3.2-3c-0.6,1.6-1.8,2.8-3.4,3.4l-0.6-1c2.1-0.7,3.4-2.5,3.4-4.6v-1.4h1.2v1.3
						c0,1.9,1.3,3.6,3.3,4.3L251.9,158z M255.8,161.6c0,1.6-1.7,2.5-4.5,2.5s-4.5-0.9-4.5-2.5c0-1.6,1.7-2.5,4.5-2.5
						S255.8,159.9,255.8,161.6z M254.6,161.6c0-1-1.2-1.6-3.3-1.6c-2,0-3.3,0.6-3.3,1.6c0,1,1.2,1.6,3.3,1.6
						C253.3,163.1,254.6,162.5,254.6,161.6z M254.5,154.5h-2.9v-1h2.9v-2.8h1.2v7.9h-1.2V154.5z"/>
					<path d="M267,158.8c-2.9,0.5-6.1,0.5-8.4,0.5l-0.1-1c1.1,0,2.3,0,3.6,0v-1c-1.6-0.2-2.5-0.9-2.5-2c0-1.2,1.2-2,3.1-2
						c1.9,0,3.1,0.8,3.1,2c0,1.1-1,1.8-2.5,2v0.9c1.2-0.1,2.5-0.1,3.6-0.3L267,158.8z M266.5,152.8h-7.7v-0.9h3.3v-1.3h1.2v1.3h3.2
						V152.8z M260.1,160.4h8.8v3.8h-1.2v-2.8h-7.6V160.4z M262.6,156.5c1.2,0,2-0.4,2-1.2s-0.8-1.1-2-1.1c-1.2,0-2,0.4-2,1.1
						S261.4,156.5,262.6,156.5z M270.9,155.8h-2v3.9h-1.2v-9h1.2v4.1h2V155.8z"/>
					<path d="M284.5,161.4v1h-12.2v-1h5.5v-2.9h-4v-6.9h1.2v2.4h6.9v-2.4h1.2v6.9h-4v2.9H284.5z M274.9,157.5h6.9V155h-6.9V157.5z"
						/>
				</g>
				<text transform="matrix(1 0 0 1 285.2838 163)" class="st6 st5"> </text>
				<g class="st2">
					<path d="M30.7,228.3h3.8v1h-3.8V228.3z"/>
					<path d="M50.4,220.7v7.7h-1.2v-3.3h-2.7c-0.2,1.6-1.6,2.7-3.4,2.7c-2,0-3.5-1.3-3.5-3.2c0-1.9,1.5-3.1,3.5-3.1
						c1.8,0,3.1,1,3.4,2.6h2.8v-3.4H50.4z M45.3,224.6c0-1.2-1-2.1-2.3-2.1c-1.3,0-2.3,0.9-2.3,2.1c0,1.3,1,2.2,2.3,2.2
						C44.4,226.7,45.3,225.9,45.3,224.6z M41.7,229.1h8.7v4.8h-8.7V229.1z M42.9,232.9h6.3v-2.9h-6.3V232.9z"/>
					<path d="M64.2,220.7v8H63v-1.8h-3.5v-1H63v-1.8h-3.3c-0.9,2.1-3,3.6-5.9,4.5l-0.5-1c3.3-0.9,5.3-2.7,5.5-5h-4.8v-1h6.1
						c0,0.5-0.1,1-0.2,1.5h3v-2.4H64.2z M55.2,229.3h9v4.8H63v-3.8h-7.8V229.3z"/>
					<path d="M74.9,223.3H67v-1h3.3v-1.6h1.2v1.6h3.4V223.3z M71,229c-1.9,0-3.2-1-3.2-2.5c0-1.5,1.3-2.5,3.2-2.5s3.2,1,3.2,2.5
						C74.2,228,72.9,229,71,229z M71,228.1c1.2,0,2.1-0.6,2.1-1.5c0-0.9-0.8-1.5-2.1-1.5c-1.2,0-2,0.6-2,1.5
						C68.9,227.5,69.7,228.1,71,228.1z M70.3,232.8H78v1h-9V230h1.2V232.8z M79.4,225.1v1h-2v4.6h-1.2v-10.1h1.2v4.4H79.4z"/>
					<path d="M90.8,228.2v1.6h4v4.2h-9.2v-4.2h4v-1.6h-5.5v-1h12.2v1H90.8z M87.3,222.1h-2v-1h9.9v1h-2v2.8h2v1h-9.8v-1h2V222.1z
						 M93.6,230.7h-6.8v2.2h6.8V230.7z M91.9,222.1h-3.3v2.8h3.3V222.1z"/>
					<path d="M105.6,227.4c-1.6-0.5-2.8-1.5-3.4-2.9c-0.6,1.5-1.8,2.7-3.5,3.2l-0.6-1c2-0.6,3.4-2.3,3.4-4.1v-0.2h-3.1v-1h7.4v1h-3
						v0.2c0,1.7,1.4,3.3,3.4,3.9L105.6,227.4z M109.4,233v1h-9.1v-3.4h7.5v-1.3h-7.5v-1h8.7v3.2h-7.5v1.5H109.4z M108.9,227.6h-1.2
						v-7h1.2V227.6z"/>
					<path d="M127.2,228.4H124v5.7h-1.2v-5.7h-3.4v5.7h-1.2v-5.7h-3.1v-1h8.8c0.4-2.1,0.4-3.7,0.4-4.9h-7.7v-1h9v1
						c0,1.2,0,2.7-0.4,4.9h2.1V228.4z"/>
					<path d="M140,220.7v8h-1.2v-1.8h-3.5v-1h3.5v-1.8h-3.3c-0.9,2.1-3,3.6-5.9,4.5l-0.5-1c3.3-0.9,5.3-2.7,5.5-5h-4.8v-1h6.1
						c0,0.5-0.1,1-0.2,1.5h3v-2.4H140z M131,229.3h9v4.8h-1.2v-3.8H131V229.3z"/>
					<path d="M154.5,228.1c-2.8,0.5-6,0.5-8.4,0.5l-0.1-1c0.9,0,1.8,0,2.8,0v-2.9h1.2v2.9c1.5-0.1,3-0.2,4.4-0.4L154.5,228.1z
						 M151.9,226.3c0.3-1.5,0.4-2.7,0.4-3.6h-5.5v-1h6.7v0.7c0,0.9,0,2.2-0.3,4L151.9,226.3z M149.2,232.8h7.7v1H148v-3.9h1.2V232.8
						z M158.4,225v1h-1.9v4.7h-1.2v-10.1h1.2v4.4H158.4z"/>
					<path d="M161.8,229.9c2.2,0,4.2-0.1,6.5-0.5l0.1,1c-2.4,0.4-4.5,0.5-6.8,0.5h-1.1v-5.2h5v-2.8h-5v-1h6.2v4.8h-5V229.9z
						 M170.9,220.6v13.5h-1.2v-13.5H170.9z"/>
				</g>
				<g class="st2">
					<path d="M30.7,298.3h3.8v1h-3.8V298.3z"/>
					<path d="M39.9,292h6.2v8.7h-6.2V292z M41.1,299.7h3.8V293h-3.8V299.7z M51.9,297.1h-2.2v7h-1.2v-13.4h1.2v5.4h2.2V297.1z"/>
					<path d="M60.5,296.4c0,2.9-1.4,4.7-3.4,4.7c-2,0-3.4-1.8-3.4-4.7c0-2.9,1.4-4.7,3.4-4.7C59.1,291.7,60.5,293.5,60.5,296.4z
						 M54.8,296.4c0,2.2,0.9,3.6,2.2,3.6c1.3,0,2.2-1.4,2.2-3.6c0-2.2-0.9-3.6-2.2-3.6C55.8,292.8,54.8,294.2,54.8,296.4z
						 M64.2,290.7v13.5h-1.2v-13.5H64.2z"/>
					<path d="M79.1,301.2v1H67v-1H79.1z M76.4,295.8c0-0.7,0-1.4,0-2.1V293h-8v-1h9.2v1.6c0,2,0,3.8-0.6,6.6l-1.2-0.1
						c0.3-1.3,0.4-2.4,0.5-3.4l-8.1,0.4l-0.2-1L76.4,295.8z"/>
					<path d="M93,301.4v1H80.7v-1h5.5v-2.5h-3.9v-4.2h8v-2.1h-8v-1h9.2v4.1h-8v2.2h8.3v1h-4.3v2.5H93z"/>
					<path d="M100.2,291.8h1.2v9.1h-6.3v-9.1h1.2v3.6h3.8V291.8z M100.2,296.3h-3.8v3.5h3.8V296.3z M107.1,297h-2.2v7.1h-1.2v-13.4
						h1.2v5.3h2.2V297z"/>
					<path d="M115.7,296.4c0,2.9-1.4,4.7-3.4,4.7c-2,0-3.4-1.8-3.4-4.7c0-2.9,1.4-4.7,3.4-4.7C114.3,291.7,115.7,293.5,115.7,296.4z
						 M110,296.4c0,2.2,0.9,3.6,2.2,3.6c1.3,0,2.2-1.4,2.2-3.6c0-2.2-0.9-3.6-2.2-3.6C111,292.8,110,294.2,110,296.4z M119.4,290.7
						v13.5h-1.2v-13.5H119.4z"/>
					<path d="M134.3,297.3v1h-12.1v-1h5.5V296c-2.5-0.1-4.1-1-4.1-2.5c0-1.6,1.8-2.5,4.7-2.5c2.9,0,4.7,0.9,4.7,2.5
						c0,1.5-1.6,2.4-4.1,2.5v1.3H134.3z M123.7,299.5h9.2v4.4h-9.2V299.5z M128.2,295c2.1,0,3.5-0.6,3.5-1.6c0-1-1.3-1.6-3.5-1.6
						s-3.5,0.6-3.5,1.6C124.8,294.4,126.1,295,128.2,295z M124.9,302.9h6.8v-2.5h-6.8V302.9z"/>
					<path d="M145.8,297c-0.6,0.8-1.6,1.3-2.8,1.3c-2,0-3.5-1.4-3.5-3.4c0-2,1.5-3.4,3.5-3.4c1.2,0,2.1,0.5,2.7,1.3h3.4v-2.1h1.2
						v9.9h-1.2V297H145.8z M143,297.2c1.3,0,2.3-1,2.3-2.3s-1-2.3-2.3-2.3c-1.3,0-2.3,1-2.3,2.3S141.7,297.2,143,297.2z
						 M150.8,302.8v1h-9v-4.2h1.2v3.2H150.8z M146.3,293.8c0.1,0.3,0.2,0.7,0.2,1.1c0,0.4-0.1,0.8-0.2,1.1h2.9v-2.2H146.3z"/>
					<path d="M165.3,298.3h-5.5v5.8h-1.2v-5.8h-5.4v-1h8.9c0.4-1.9,0.4-3.4,0.4-4.6v-0.2h-7.8v-1h9v1.2c0,1.3,0,2.7-0.4,4.6h2V298.3
						z"/>
					<path d="M179.1,296.9v0.9h-12.2v-0.9H179.1z M169.6,303h8.4v0.9h-9.6v-3h8v-1.1h-8v-0.9h9.2v2.9h-8V303z M176.3,291.9h-7.9V291
						h9.1v2.8h-7.9v1.2h8.1v0.9h-9.3V293h7.9V291.9z"/>
					<path d="M196.2,297.8v1h-12.2v-1h5.5v-1.3h-3.9V291h9.1v1h-7.8v1.2h7.5v0.9h-7.5v1.3h7.9v1h-4v1.3H196.2z M194.8,301.9
						c0,1.4-1.7,2.2-4.6,2.2s-4.6-0.8-4.6-2.2c0-1.4,1.7-2.1,4.6-2.1S194.8,300.5,194.8,301.9z M193.5,301.9c0-0.8-1.2-1.2-3.4-1.2
						c-2.2,0-3.4,0.4-3.4,1.2c0,0.8,1.2,1.2,3.4,1.2C192.3,303.2,193.5,302.7,193.5,301.9z"/>
					<path d="M205.9,293.3h-7.9v-1h3.3v-1.6h1.2v1.6h3.4V293.3z M201.9,299c-1.9,0-3.2-1-3.2-2.5c0-1.5,1.3-2.5,3.2-2.5
						c1.9,0,3.2,1,3.2,2.5C205.1,298,203.8,299,201.9,299z M201.9,298.1c1.2,0,2.1-0.6,2.1-1.5c0-0.9-0.8-1.5-2.1-1.5
						c-1.2,0-2,0.6-2,1.5C199.8,297.5,200.7,298.1,201.9,298.1z M201.2,302.8h7.7v1h-9V300h1.2V302.8z M210.3,295.1v1h-2v4.6h-1.2
						v-10.1h1.2v4.4H210.3z"/>
					<path d="M220.2,300.1c1.3-0.1,2.5-0.1,3.7-0.3l0.1,0.9c-3,0.5-6.2,0.5-8.7,0.5l-0.2-1c1.2,0,2.5,0,3.9-0.1v-2.9h-2.8V292h1.2
						v4.2h5.7v1h-2.9V300.1z M226,290.7v13.5h-1.2v-13.5H226z"/>
					<path d="M235.8,291.7c0,3.5-2.4,6.1-6.3,7.3l-0.5-1c3.1-1,5.2-2.9,5.5-5.4h-4.8v-1H235.8z M240.3,302.8v1h-8.8v-4.2h1.2v3.2
						H240.3z M238.7,294.8v-4.1h1.2v9.9h-1.2v-4.8h-2.9v-1H238.7z"/>
					<path d="M249.4,291.7c0,3.4-2.4,5.9-6.3,7.1l-0.5-1c3.2-0.9,5.2-2.8,5.4-5.1h-4.9v-1H249.4z M253.2,301.5
						c0,1.6-1.7,2.6-4.4,2.6c-2.7,0-4.4-1-4.4-2.6c0-1.6,1.7-2.6,4.4-2.6C251.5,298.9,253.2,299.9,253.2,301.5z M252,301.5
						c0-1-1.2-1.7-3.2-1.7c-1.9,0-3.2,0.6-3.2,1.7c0,1,1.2,1.6,3.2,1.6C250.8,303.1,252,302.5,252,301.5z M255.1,294.1v1h-2v3.5
						h-1.2v-8h1.2v3.5H255.1z"/>
				</g>
				<text transform="matrix(1 0 0 1 255.6443 303)" class="st6 st5"> </text>
				<g class="st2">
					<path d="M43,336.3v1H30.8v-1h5.4v-3.3h1.2v3.3H43z M41.9,333.2c-2.1-0.4-4.2-1.8-5-3.8c-0.9,1.9-3,3.3-5,3.8l-0.5-1
						c2.4-0.4,4.9-2.4,4.9-4.6v-1h1.3v1c0,2.2,2.6,4.2,4.9,4.6L41.9,333.2z"/>
					<path d="M48.6,329.3c0,2.5,1,4.6,2.9,5.6l-0.7,0.9c-1.3-0.7-2.2-2-2.7-3.6c-0.4,1.8-1.4,3.3-2.8,4.1l-0.8-0.9
						c1.9-1.1,2.9-3.4,2.9-6.1v-1.1h-2.6v-1H51v1h-2.4V329.3z M56.1,325.6v13.5h-1.2v-7h-1.8v6.3H52V326h1.2v5.1h1.8v-5.4H56.1z"/>
					<path d="M70.2,333.8c-2.9,0.5-6.1,0.5-8.4,0.5l-0.1-1c1.1,0,2.3,0,3.6,0v-1c-1.6-0.2-2.5-0.9-2.5-2c0-1.2,1.2-2,3.1-2
						c1.9,0,3.1,0.8,3.1,2c0,1.1-1,1.8-2.5,2v0.9c1.2-0.1,2.5-0.1,3.6-0.3L70.2,333.8z M69.7,327.8H62v-0.9h3.3v-1.3h1.2v1.3h3.2
						V327.8z M63.3,335.4h8.8v3.8h-1.2v-2.8h-7.6V335.4z M65.9,331.5c1.2,0,2-0.4,2-1.2s-0.8-1.1-2-1.1c-1.2,0-2,0.4-2,1.1
						S64.7,331.5,65.9,331.5z M74.2,330.8h-2v3.9h-1.2v-9h1.2v4.1h2V330.8z"/>
					<path d="M87.7,336.4v1H75.6v-1H81v-2.9h-4v-6.9h1.2v2.4h6.9v-2.4h1.2v6.9h-4v2.9H87.7z M78.2,332.5h6.9V330h-6.9V332.5z"/>
				</g>
				<g>
				</g>
				<g class="st2">
					<path d="M30.7,403.3h3.8v1h-3.8V403.3z"/>
					<path d="M46.8,403.3c-1.5-0.6-2.7-1.8-3.3-3.3c-0.6,1.6-1.8,2.9-3.4,3.6l-0.6-1c2-0.8,3.4-2.7,3.4-4.8v-1.4h1.2v1.4
						c0,2,1.4,3.9,3.4,4.6L46.8,403.3z M50.8,407.8v1h-9.1v-4.2H43v3.2H50.8z M50.4,405.5h-1.2v-9.9h1.2V405.5z"/>
					<path d="M65.3,403.4h-3.2v5.7h-1.2v-5.7h-3.4v5.7h-1.2v-5.7h-3.1v-1H62c0.4-2.1,0.4-3.7,0.4-4.9h-7.7v-1h9v1
						c0,1.2,0,2.7-0.4,4.9h2.1V403.4z"/>
					<path d="M77.4,397.1c0,3.9-1.8,7.3-6.3,9.5l-0.7-1c3.6-1.7,5.4-4.3,5.7-7.5h-5.1v-1H77.4z M81.4,395.7v13.5h-1.2v-13.5H81.4z"
						/>
					<path d="M96.3,402v1H84.1v-1H96.3z M94.8,406.6c0,1.6-1.7,2.4-4.6,2.4s-4.6-0.9-4.6-2.4c0-1.6,1.7-2.5,4.6-2.5
						S94.8,405,94.8,406.6z M94.9,400.4h-9.1v-4.5H87v3.5h7.9V400.4z M93.6,406.6c0-1-1.2-1.5-3.4-1.5c-2.1,0-3.4,0.5-3.4,1.5
						c0,0.9,1.2,1.5,3.4,1.5C92.3,408.1,93.6,407.5,93.6,406.6z"/>
					<path d="M105.1,403c-1.5-0.6-2.6-1.6-3.2-3c-0.6,1.6-1.8,2.8-3.4,3.4l-0.6-1c2.1-0.7,3.4-2.5,3.4-4.6v-1.4h1.2v1.3
						c0,1.9,1.3,3.6,3.3,4.3L105.1,403z M109,406.6c0,1.6-1.7,2.5-4.5,2.5c-2.8,0-4.5-0.9-4.5-2.5c0-1.6,1.7-2.5,4.5-2.5
						C107.3,404,109,404.9,109,406.6z M107.8,406.6c0-1-1.2-1.6-3.3-1.6c-2,0-3.3,0.6-3.3,1.6c0,1,1.2,1.6,3.3,1.6
						C106.6,408.1,107.8,407.5,107.8,406.6z M107.8,399.5h-2.9v-1h2.9v-2.8h1.2v7.9h-1.2V399.5z"/>
					<path d="M111.8,405.2c2.4,0,5.8,0,8.8-0.5l0.1,0.9c-3,0.6-6.3,0.6-8.7,0.6L111.8,405.2z M119.7,399.8c0,1.9-1.5,3.2-3.6,3.2
						c-2.1,0-3.6-1.3-3.6-3.2c0-1.9,1.5-3.2,3.6-3.2C118.2,396.6,119.7,397.9,119.7,399.8z M113.7,399.8c0,1.2,1,2.1,2.4,2.1
						s2.4-0.9,2.4-2.1c0-1.3-1-2.1-2.4-2.1S113.7,398.6,113.7,399.8z M122.7,395.7v13.5h-1.2v-13.5H122.7z"/>
					<path d="M134.6,397.4c0,3.5-1.2,6.7-5,8.8l-0.7-0.9c3.1-1.7,4.4-4.2,4.5-6.9h-4v-1H134.6z M140.3,395.7v13.5h-1.2v-7h-1.8v6.4
						h-1.2V396h1.2v5.1h1.8v-5.4H140.3z"/>
					<path d="M149.4,402.2h-6.1v-5.9h1.2v1.9h3.6v-1.9h1.2v1.3h3.1v-1.9h1.2v7h-1.2V401h-3.1V402.2z M148.2,399.2h-3.6v2h3.6V399.2z
						 M154.3,408v1h-9.1v-3.3h7.4v-1.3h-7.5v-1h8.7v3.2h-7.4v1.4H154.3z M149.4,398.5v1.5h3.1v-1.5H149.4z"/>
					<path d="M160.3,403.2c-2,0-3.5-1.4-3.5-3.3c0-1.9,1.5-3.3,3.5-3.3c2,0,3.5,1.4,3.5,3.3C163.8,401.9,162.3,403.2,160.3,403.2z
						 M160.3,402.2c1.3,0,2.3-0.9,2.3-2.3c0-1.3-1-2.2-2.3-2.2c-1.3,0-2.3,0.9-2.3,2.2C158,401.2,159,402.2,160.3,402.2z
						 M167.9,407.8v1h-9.1v-4.3h1.2v3.3H167.9z M167.5,405.5h-1.2v-9.8h1.2V405.5z"/>
					<path d="M177.6,403.2c-1.5-0.5-2.7-1.6-3.2-3c-0.6,1.6-1.8,2.8-3.4,3.4l-0.6-1c2-0.7,3.4-2.5,3.4-4.5v-0.5h-3v-1h7.2v1h-3v0.5
						c0,1.7,1.3,3.4,3.3,4.1L177.6,403.2z M181.4,406.6c0,1.6-1.7,2.5-4.5,2.5s-4.5-0.9-4.5-2.5c0-1.6,1.7-2.5,4.5-2.5
						S181.4,405,181.4,406.6z M180.2,406.6c0-1-1.2-1.6-3.3-1.6s-3.3,0.6-3.3,1.6c0,1,1.2,1.5,3.3,1.5S180.2,407.6,180.2,406.6z
						 M180.1,399.2v-3.5h1.2v8h-1.2v-3.5h-2.7v-1H180.1z"/>
					<path d="M191.6,398.1h-7.5v-1h3.2v-1.6h1.2v1.6h3.1V398.1z M187.9,403.8c-1.8,0-3-1-3-2.5c0-1.5,1.2-2.5,3-2.5c1.8,0,3,1,3,2.5
						C191,402.8,189.7,403.8,187.9,403.8z M187.9,402.9c1.1,0,1.9-0.6,1.9-1.6c0-0.9-0.8-1.5-1.9-1.5s-1.9,0.6-1.9,1.5
						C186,402.3,186.8,402.9,187.9,402.9z M195.2,406.8c0,1.5-1.7,2.3-4.5,2.3c-2.8,0-4.5-0.8-4.5-2.3c0-1.5,1.7-2.3,4.5-2.3
						C193.5,404.5,195.2,405.3,195.2,406.8z M193.9,406.8c0-0.9-1.2-1.3-3.2-1.3c-2,0-3.2,0.5-3.2,1.3c0,0.9,1.2,1.4,3.2,1.4
						C192.7,408.2,193.9,407.7,193.9,406.8z M193.9,399.9h-2.3v-1h2.3v-3.2h1.2v8.7h-1.2v-1.8h-2.3v-1h2.3V399.9z"/>
					<path d="M208.2,396.7c0,3.5-2.4,6.1-6.3,7.3l-0.5-1c3.1-1,5.2-2.9,5.5-5.4h-4.8v-1H208.2z M212.7,407.8v1h-8.8v-4.2h1.2v3.2
						H212.7z M211.1,399.8v-4.1h1.2v9.9h-1.2v-4.8h-2.9v-1H211.1z"/>
					<path d="M221.8,396.7c0,3.4-2.4,5.9-6.3,7.1l-0.5-1c3.2-0.9,5.2-2.8,5.4-5.1h-4.9v-1H221.8z M225.6,406.5
						c0,1.6-1.7,2.6-4.4,2.6c-2.7,0-4.4-1-4.4-2.6c0-1.6,1.7-2.6,4.4-2.6C223.9,403.9,225.6,404.9,225.6,406.5z M224.4,406.5
						c0-1-1.2-1.7-3.2-1.7c-1.9,0-3.2,0.6-3.2,1.7c0,1,1.2,1.6,3.2,1.6C223.2,408.1,224.4,407.5,224.4,406.5z M227.5,399.1v1h-2v3.5
						h-1.2v-8h1.2v3.5H227.5z"/>
					<path d="M235.9,397.1c0,3.9-1.8,7.3-6.3,9.5l-0.7-1c3.6-1.7,5.4-4.3,5.7-7.5h-5.1v-1H235.9z M239.9,395.7v13.5h-1.2v-13.5
						H239.9z"/>
					<path d="M254.8,402v1h-12.2v-1H254.8z M253.3,406.6c0,1.6-1.7,2.4-4.6,2.4c-2.9,0-4.6-0.9-4.6-2.4c0-1.6,1.7-2.5,4.6-2.5
						C251.6,404.2,253.3,405,253.3,406.6z M253.4,400.4h-9.1v-4.5h1.2v3.5h7.9V400.4z M252.1,406.6c0-1-1.2-1.5-3.4-1.5
						c-2.1,0-3.4,0.5-3.4,1.5c0,0.9,1.2,1.5,3.4,1.5C250.8,408.1,252.1,407.5,252.1,406.6z"/>
					<path d="M263.9,403c-1.5-0.6-2.8-1.7-3.4-3.2c-0.6,1.6-1.8,2.8-3.4,3.4l-0.6-1c2-0.7,3.4-2.6,3.4-4.6v-1.3h1.2v1.3
						c0,1.9,1.4,3.7,3.4,4.4L263.9,403z M258.5,404.4h9v4.7h-1.2v-3.7h-7.8V404.4z M267.5,395.7v8.1h-1.2v-8.1H267.5z"/>
					<path d="M276.9,403.2v1.6h4v4.2h-9.2v-4.2h4v-1.6h-5.5v-1h12.2v1H276.9z M273.4,397.1h-2v-1h9.9v1h-2v2.8h2v1h-9.8v-1h2V397.1z
						 M279.7,405.7h-6.8v2.2h6.8V405.7z M278,397.1h-3.3v2.8h3.3V397.1z"/>
				</g>
				<g class="st2">
					<path d="M37.5,437.1v2.5h4v4.5h-1.2v-3.5h-8.2v-1h4.2v-2.5h-5.5v-1h9.1c0.4-1.6,0.4-2.8,0.4-3.8h-7.9v-1h9.1v1
						c0,1,0,2.2-0.3,3.8H43v1H37.5z"/>
					<path d="M46.5,439.5c1.3,0,2.7-0.1,4.3-0.4l0.1,1.1c-1.8,0.3-3.4,0.4-4.8,0.4h-0.9v-8.3h1.2V439.5z M56,430.7v13.4h-1.2v-6.9
						h-1.9v6.3h-1.2V431h1.2v5.2h1.9v-5.5H56z"/>
					<path d="M68.7,437h-6.3v-5.5h6.3V437z M69.1,440.2c0,1.3,2.1,2.6,4.4,2.9l-0.4,0.9c-2-0.3-3.8-1.2-4.6-2.5
						c-0.8,1.3-2.7,2.2-4.7,2.5l-0.4-0.9c2.3-0.3,4.4-1.5,4.5-2.9H64v-0.9h3.9V438h1.2v1.3h3.9v0.9H69.1z M67.5,432.5h-3.9v3.5h3.9
						V432.5z M72.8,438.4h-1.2v-7.7h1.2V438.4z"/>
					<path d="M91.1,435.7v1H78.9v-1H88c0.3-1.5,0.3-2.6,0.3-3.4h-7.9v-1h9.1v0.9c0,0.9,0,2.1-0.3,3.6H91.1z M81.6,443h8.3v1h-9.5
						v-3.5h8V439h-8v-1h9.2v3.4h-8V443z"/>
					<path d="M104.9,441.4v1H92.7v-1h5.5v-2.5h-3.9v-4.2h8v-2.1h-8v-1h9.2v4.1h-8v2.2h8.3v1h-4.3v2.5H104.9z"/>
					<path d="M113.2,437.1h-6.1v-5.8h1.2v1.9h3.6v-1.9h1.2v2.4h3.1v-3h1.2v7h-1.2v-3h-3.1V437.1z M112,434.2h-3.6v2h3.6V434.2z
						 M118.1,443v1h-9.1v-3.3h7.4v-1.3h-7.5v-1h8.7v3.2h-7.4v1.4H118.1z"/>
					<path d="M128.4,434.2c0,2.5,1.6,4.9,3.6,5.8l-0.7,1c-1.5-0.8-2.8-2.3-3.5-4.3c-0.6,2-1.9,3.7-3.5,4.5l-0.8-1
						c2-0.9,3.6-3.5,3.6-6.1v-2.4h1.2V434.2z M134.7,430.7v13.5h-1.2v-13.5H134.7z"/>
					<path d="M144.7,438.1c-1.5-0.5-2.7-1.6-3.3-2.9c-0.6,1.5-1.8,2.7-3.4,3.3l-0.6-1c2-0.7,3.4-2.4,3.4-4.4v-0.5h-3v-1h7.2v1h-3
						v0.5c0,1.8,1.3,3.3,3.3,4L144.7,438.1z M148.1,441.6c0,1.6-1.7,2.5-4.4,2.5c-2.8,0-4.4-0.9-4.4-2.5c0-1.6,1.7-2.5,4.4-2.5
						C146.4,439.1,148.1,440,148.1,441.6z M146.8,441.6c0-0.9-1.2-1.5-3.2-1.5c-2,0-3.2,0.6-3.2,1.5c0,1,1.2,1.5,3.2,1.5
						C145.6,443.1,146.8,442.6,146.8,441.6z M149.9,434.1v1h-2v3.7h-1.2v-8.1h1.2v3.4H149.9z"/>
					<path d="M162.3,438.6c-1.5-0.5-2.8-1.6-3.4-3.1c-0.6,1.5-1.8,2.7-3.4,3.3l-0.6-1c2-0.7,3.4-2.5,3.4-4.4v-0.7h-3.1v-1h7.4v1h-3
						v0.7c0,1.8,1.4,3.4,3.4,4.1L162.3,438.6z M166.1,442.8v1H157v-4.2h1.2v3.2H166.1z M165.7,440.5h-1.2v-9.8h1.2V440.5z"/>
					<path d="M175.1,437.6v1.2h3.9v2.9h-7.9v1.3h8.3v0.9h-9.5v-3.1h7.9v-1.1h-7.9v-0.9h4v-1.2h-5.4v-0.9h12.1v0.9H175.1z
						 M169.1,435.1c2.5-0.2,4.5-1,4.8-2.3h-4.2v-0.9h4.2v-1.3h1.2v1.3h4.2v0.9h-4.1c0.2,1.3,2.2,2.2,4.7,2.3l-0.4,0.9
						c-2.2-0.2-4.2-0.9-5.1-2.1c-0.8,1.2-2.8,1.9-5.1,2.1L169.1,435.1z"/>
				</g>
			</g>
			<g id="pipeline_img3_mobile" transform="translate(0.000000, 566.000000)">
				<g id="table1">
					<g id="cell1">
						<g id="_x31_">
							<path id="bg_2_" class="st7" d="M8,0h318c4.4,0,8,3.6,8,8v34c0,4.4-3.6,8-8,8H8c-4.4,0-8-3.6-8-8V8C0,3.6,3.6,0,8,0z"/>
							<g class="st2">
								<path class="st3" d="M153.6,29.1v1.6H141v-1.6H153.6z M143.9,21.2H142v-1.6h10.5v1.6h-1.9v4.1h1.8V27h-10.4v-1.6h1.8V21.2z
									 M148.7,21.2h-2.8v4.1h2.8V21.2z"/>
								<path class="st3" d="M167.4,29.2v1.6h-12.5v-1.6h5.2v-2.1h-3.8v-4.7h7.7v-1.5h-7.7v-1.6h9.7V24h-7.7v1.5h8v1.6h-4.2v2.1
									H167.4z"/>
								<path class="st3" d="M174.5,26.5c-1.2-0.5-2-1.2-2.4-2.2c-0.5,1.1-1.3,2-2.6,2.5l-1-1.5c1.9-0.7,2.6-2.3,2.6-3.9V21h-2.2
									v-1.6h6.1V21h-2v0.4c0,1.5,0.7,2.9,2.4,3.6L174.5,26.5z M170.9,27.4h9.5v4.9h-2V29h-7.5V27.4z M175.8,21.9v-3.2h1.8v8.1
									h-1.8v-3.3h-1.5v-1.6H175.8z M180.4,18.5v8.4h-1.9v-8.4H180.4z"/>
								<path class="st3" d="M195,29.1v1.6h-12.5v-1.6H195z M193.6,27.2h-9.7v-7.7h9.6v1.6h-7.6v1.5h7.3v1.5h-7.3v1.5h7.7V27.2z"/>
							</g>
						</g>
						<g id="_x32_" transform="translate(0.000000, 102.000000)">
							<path id="bg_3_" class="st7" d="M8,0h318c4.4,0,8,3.6,8,8v34c0,4.4-3.6,8-8,8H8c-4.4,0-8-3.6-8-8V8C0,3.6,3.6,0,8,0z"/>
							<g class="st2">
								<path class="st3" d="M142.9,27.5c1.3,0,2.5-0.1,3.8-0.3l0.1,1.6c-1.7,0.3-3.1,0.4-4.9,0.4h-1v-9.1h5.1v1.6h-3.2V27.5z
									 M152.4,18.5v13.8h-1.9v-6.9h-1.2v6.3h-1.8V18.7h1.8v5.1h1.2v-5.3H152.4z"/>
								<path class="st3" d="M161.5,26.1c-1.5-0.5-2.5-1.4-3-2.6c-0.6,1.4-1.7,2.4-3.2,3l-1-1.6c2.3-0.8,3.2-2.6,3.2-4.5v-1.2h2v1.4
									c0,1.7,0.9,3.3,3.1,4L161.5,26.1z M165.4,29.6c0,1.7-1.8,2.7-4.7,2.7c-2.9,0-4.7-1-4.7-2.7c0-1.7,1.8-2.7,4.7-2.7
									C163.6,27,165.4,28,165.4,29.6z M163.4,29.6c0-0.8-0.9-1.1-2.7-1.1c-1.8,0-2.7,0.4-2.7,1.1c0,0.8,0.9,1.1,2.7,1.1
									C162.5,30.8,163.4,30.4,163.4,29.6z M167,21.7v1.6h-1.8v3.3h-2v-8.2h2v3.2H167z"/>
								<path class="st3" d="M175.9,25.4c-1.6-0.4-2.7-1.3-3.3-2.5c-0.6,1.3-1.8,2.3-3.4,2.8l-0.9-1.5c2.1-0.6,3.2-2,3.3-3.5h-2.8
									v-1.6h7.5v1.6h-2.7c0.1,1.3,1.2,2.7,3.2,3.2L175.9,25.4z M180,30.7v1.5h-9.5v-3.8h7.2v-0.8h-7.2v-1.5h9.2v3.7h-7.2v0.9H180z
									 M179.6,25.6h-2v-7.1h2V25.6z"/>
								<path class="st3" d="M190.5,27.3c-2.9,0.5-6.1,0.6-8.5,0.6l-0.2-1.5c1,0,2.1,0,3.3,0v-0.8c-1.5-0.2-2.4-1-2.4-2.1
									c0-1.3,1.3-2.1,3.4-2.1c2,0,3.4,0.8,3.4,2.1c0,1.1-0.9,1.8-2.4,2.1v0.7c1.1-0.1,2.2-0.2,3.3-0.3L190.5,27.3z M190,21h-7.8
									v-1.4h2.9v-1.2h2v1.2h2.9V21z M185.7,30.5h7.7V32h-9.7v-3.5h2V30.5z M186.1,24.3c0.9,0,1.5-0.3,1.5-0.8
									c0-0.5-0.6-0.8-1.5-0.8s-1.5,0.3-1.5,0.8C184.6,24,185.1,24.3,186.1,24.3z M194.6,23v1.6h-1.7v4.6h-2V18.5h2V23H194.6z"/>
							</g>
						</g>
						<g class="st2">
							<path d="M118.2,179.2H112v-6.5h6.3v1.1h2.8v-2.3h1.5v9.9h-1.5V178h-2.8V179.2z M116.7,174h-3.3v4h3.3V174z M122.9,183.6v1.3
								h-9.1v-4.3h1.6v3H122.9z M118.2,175.1v1.6h2.8v-1.6H118.2z"/>
							<path d="M136.4,171.6v8h-1.5v-1.8h-3.2c-0.6,0.7-1.6,1.2-2.8,1.2c-2,0-3.5-1.4-3.5-3.3c0-1.9,1.5-3.3,3.5-3.3
								c1.1,0,2.1,0.5,2.8,1.2h3.2v-1.9L136.4,171.6z M130.9,175.6c0-1.2-0.9-2-2.1-2s-2.1,0.8-2.1,2c0,1.2,0.9,2,2.1,2
								S130.9,176.8,130.9,175.6z M127.3,180.3h9.1v4.9h-1.5v-3.6h-7.6V180.3z M134.9,176.5v-1.7h-2.5c0.1,0.3,0.1,0.6,0.1,0.9
								c0,0.3,0,0.6-0.1,0.9H134.9z"/>
							<path d="M143,181c1.4-0.1,2.8-0.1,4.2-0.3l0.1,1.1c-2.8,0.5-5.9,0.5-8.3,0.5l-0.2-1.3c0.8,0,1.7,0,2.7,0v-4.1h1.5V181z
								 M144.6,179.1c0.3-2.1,0.4-3.7,0.4-4.8h-5.4V173h6.9v0.9c0,1.2,0,2.9-0.4,5.3L144.6,179.1z M151.5,178.5h-2v6.7h-1.6v-13.5
								h1.6v5.6h2V178.5z"/>
							<path d="M159.9,179.2h-6.4v-6.4h6.4V179.2z M158.4,174H155v3.9h3.4V174z M164.3,183.5v1.2h-9.2v-4.4h1.6v3.1H164.3z
								 M163.9,181.3h-1.5v-9.7h1.5V181.3z"/>
							<path d="M173.4,179.4H167v-6.8h1.5v2.1h3.3v-2.1h1.5V179.4z M170.1,183.6h7.6v1.3h-9.1v-4.3h1.6V183.6z M171.9,175.9h-3.3
								v2.2h3.3V175.9z M179.1,175.6v1.3h-1.9v4.7h-1.5v-9.9h1.5v4H179.1z"/>
							<path d="M192.6,178.1v1.2h-12.3v-1.2H192.6z M191.3,174.6c0,1.6-1.9,2.6-4.8,2.6c-3,0-4.8-1-4.8-2.6c0-1.6,1.9-2.6,4.8-2.6
								C189.4,171.9,191.3,172.9,191.3,174.6z M191.1,182.7c0,1.6-1.7,2.4-4.7,2.4c-2.9,0-4.7-0.9-4.7-2.4c0-1.6,1.8-2.5,4.7-2.5
								C189.4,180.3,191.1,181.2,191.1,182.7z M183.3,174.6c0,0.9,1.2,1.4,3.2,1.4s3.2-0.5,3.2-1.4c0-0.9-1.2-1.4-3.2-1.4
								S183.3,173.7,183.3,174.6z M183.4,182.7c0,0.8,1.1,1.3,3.1,1.3c2,0,3.1-0.4,3.1-1.3c0-0.8-1.1-1.3-3.1-1.3
								C184.5,181.5,183.4,181.9,183.4,182.7z"/>
							<path d="M203.4,173.3c0,3.6-1.2,6.8-5,9l-0.9-1.1c2.9-1.7,4.2-3.9,4.4-6.6H198v-1.3H203.4z M209.1,171.6v13.5h-1.5v-7h-1.5
								v6.4h-1.5V172h1.5v4.9h1.5v-5.3H209.1z"/>
							<path d="M218.5,179.6c-1.5-0.5-2.5-1.6-3.1-3c-0.6,1.5-1.7,2.7-3.3,3.3l-0.8-1.2c2.1-0.8,3.3-2.7,3.3-4.7v-1.6h1.6v1.6
								c0,1.8,1.1,3.6,3.2,4.3L218.5,179.6z M222.9,183.6v1.3h-9.1v-4.3h1.6v3H222.9z M221,175.9h-2.7v-1.3h2.7v-3h1.5v10.1H221
								V175.9z"/>
						</g>
						<g class="st2">
							<path d="M145.2,70.9h3.6c2.5,0,4.3,0.9,4.3,3.5c0,2.5-1.9,3.7-4.3,3.7h-1.5V82h-2.2V70.9z M148.8,76.3c1.5,0,2.3-0.6,2.3-1.9
								c0-1.3-0.8-1.7-2.3-1.7h-1.3v3.6H148.8z"/>
							<path d="M154.7,76.5c0-3.7,2.4-5.8,5.3-5.8c1.6,0,2.7,0.7,3.4,1.4l-1.2,1.4c-0.5-0.5-1.2-0.9-2.2-0.9c-1.8,0-3.1,1.4-3.1,3.8
								c0,2.4,1.1,3.9,3.3,3.9c0.5,0,1.1-0.2,1.4-0.4v-2.2h-2v-1.8h3.9v5c-0.7,0.7-2.1,1.3-3.6,1.3C157,82.2,154.7,80.2,154.7,76.5z
								"/>
							<path d="M165.9,80.2h2.4v-7h-2v-1.4c1.1-0.2,1.9-0.5,2.6-0.9h1.6v9.3h2.1V82h-6.7V80.2z"/>
							<path d="M174.1,76.4c0-3.8,1.5-5.7,3.8-5.7c2.2,0,3.8,1.9,3.8,5.7s-1.5,5.8-3.8,5.8C175.6,82.2,174.1,80.2,174.1,76.4z
								 M179.6,76.4c0-3.1-0.7-4-1.7-4c-1,0-1.7,0.9-1.7,4c0,3.1,0.7,4.1,1.7,4.1C178.8,80.5,179.6,79.5,179.6,76.4z"/>
							<path d="M182.9,80.7c3-2.7,4.8-4.8,4.8-6.5c0-1.1-0.6-1.8-1.7-1.8c-0.8,0-1.5,0.5-2,1.1l-1.2-1.2c1-1.1,2-1.7,3.5-1.7
								c2.1,0,3.5,1.3,3.5,3.4c0,2-1.7,4.2-3.7,6.1c0.6-0.1,1.3-0.1,1.8-0.1h2.4V82h-7.4V80.7z"/>
						</g>
						<g id="_x32__1_" transform="translate(1.000000, 204.000000)">
							<path id="bg_4_" class="st8" d="M8.8,0.8h316.5c4.4,0,8,3.6,8,8v82.5c0,4.4-3.6,8-8,8H8.8c-4.4,0-8-3.6-8-8V8.8
								C0.8,4.3,4.3,0.8,8.8,0.8z"/>
							<g class="st2">
								<path class="st3" d="M93.2,33.2c-2.1,0-3.7-1.3-3.7-3.2c0-1.8,1.6-3.1,3.7-3.1c2.1,0,3.7,1.3,3.7,3.1
									C96.9,31.8,95.3,33.2,93.2,33.2z M93.2,38.6h7.5v1.5h-9.5v-3.9h7.2v-0.8h-7.2v-1.5h9.1v3.8h-7.1V38.6z M93.2,31.6
									c1,0,1.8-0.6,1.8-1.6c0-1-0.7-1.5-1.8-1.5S91.4,29,91.4,30C91.4,31,92.2,31.6,93.2,31.6z M102.1,29.1v1.6h-1.8v2.6h-2v-6.9
									h2v2.7H102.1z"/>
								<path class="st3" d="M109.7,34.3c-1.6,0.3-2.9,0.3-4.9,0.3h-0.9v-4.3h2.9V29h-3v-1.5h4.9v4.2h-3V33c1.5,0,2.5-0.1,3.8-0.3
									L109.7,34.3z M105.6,35.6h9.4v4.7h-2v-3.1h-7.4V35.6z M110.3,31.3h-1.2v-1.6h1.2v-3h1.8V35h-1.8V31.3z M115,26.5v8.6h-1.9
									v-8.6H115z"/>
								<path class="st3" d="M129.5,37v1.6H117V37H129.5z M128.3,34.6c-2.4-0.5-4.2-1.8-5.1-3.6c-0.9,1.8-2.6,3.1-5,3.6l-0.8-1.6
									c3.1-0.5,4.8-2.7,4.8-4.7v-1h2.1v1c0,2,1.7,4.2,4.8,4.7L128.3,34.6z"/>
								<path class="st3" d="M137.5,26.9h1.5l-3.7,14.8h-1.5L137.5,26.9z"/>
								<path class="st3" d="M147.2,33.2c-2.1,0-3.7-1.3-3.7-3.2c0-1.8,1.6-3.1,3.7-3.1c2.1,0,3.7,1.3,3.7,3.1
									C150.9,31.8,149.3,33.2,147.2,33.2z M147.2,38.6h7.5v1.5h-9.5v-3.9h7.2v-0.8h-7.2v-1.5h9.1v3.8h-7.1V38.6z M147.2,31.6
									c1,0,1.8-0.6,1.8-1.6c0-1-0.7-1.5-1.8-1.5s-1.8,0.6-1.8,1.5C145.5,31,146.2,31.6,147.2,31.6z M156.1,29.1v1.6h-1.8v2.6h-2
									v-6.9h2v2.7H156.1z"/>
								<path class="st3" d="M163.7,34.3c-1.6,0.3-2.9,0.3-4.9,0.3h-0.9v-4.3h2.9V29h-3v-1.5h4.9v4.2h-3V33c1.5,0,2.5-0.1,3.8-0.3
									L163.7,34.3z M159.6,35.6h9.4v4.7h-2v-3.1h-7.4V35.6z M164.4,31.3h-1.2v-1.6h1.2v-3h1.8V35h-1.8V31.3z M169,26.5v8.6h-1.9
									v-8.6H169z"/>
								<path class="st3" d="M183.6,37v1.6h-12.5V37H183.6z M182.3,34.6c-2.4-0.5-4.2-1.8-5.1-3.6c-0.9,1.8-2.6,3.1-5,3.6l-0.8-1.6
									c3.1-0.5,4.8-2.7,4.8-4.7v-1h2.1v1c0,2,1.7,4.2,4.8,4.7L182.3,34.6z"/>
								<path class="st3" d="M195.6,32.4c0,3-1.5,4.9-3.6,4.9c-2.1,0-3.6-1.9-3.6-4.9c0-3,1.5-4.9,3.6-4.9
									C194,27.4,195.6,29.3,195.6,32.4z M193.7,32.4c0-2-0.7-3.1-1.7-3.1c-1,0-1.7,1.1-1.7,3.1c0,2.1,0.7,3.1,1.7,3.1
									C193,35.5,193.7,34.4,193.7,32.4z M201.1,33.3h-2v7h-2V26.5h2v5.2h2V33.3z"/>
								<path class="st3" d="M209.7,32.4c0,3-1.5,4.9-3.6,4.9s-3.6-1.9-3.6-4.9c0-3,1.5-4.9,3.6-4.9S209.7,29.3,209.7,32.4z
									 M204.4,32.4c0,2.1,0.7,3.1,1.7,3.1s1.7-1.1,1.7-3.1c0-2-0.7-3.1-1.7-3.1S204.4,30.3,204.4,32.4z M213.5,26.5v13.9h-2V26.5
									H213.5z"/>
								<path class="st3" d="M226.5,33.8v0.8h3.7V38h-7.6v0.7h7.9v1.4h-9.9v-3.5h7.6V36h-7.6v-1.4h3.8v-0.8h-5.2v-1.5h12.4v1.5
									H226.5z M219.8,30.5c2.8-0.1,4.1-0.8,4.5-1.6h-3.8v-1.4h4v-1.1h2v1.1h4.1V29h-3.8c0.4,0.8,1.7,1.4,4.5,1.6l-0.6,1.5
									c-2.6-0.1-4.3-0.8-5.2-1.8c-0.9,1-2.6,1.7-5.2,1.8L219.8,30.5z"/>
								<path class="st3" d="M238.4,29.6c0,2.6,1.1,5.1,3.4,6.1l-1.1,1.6c-1.6-0.7-2.7-2.1-3.3-3.8c-0.6,1.8-1.7,3.3-3.4,4.1
									l-1.2-1.6c2.4-1,3.6-3.7,3.6-6.4v-2h2V29.6z M244.5,26.5v13.9h-2V26.5H244.5z"/>
							</g>
							<g id="text" transform="translate(139.000000, 56.000000)">
								<g>
									<g class="st2">
										<path class="st3" d="M3,13.8l-1,3.2H0.6L4,6.9h1.6L9.1,17H7.7l-1.1-3.2H3z M6.3,12.8l-1-2.9C5.1,9.2,4.9,8.6,4.8,8h0
											C4.6,8.6,4.5,9.3,4.3,9.9l-1,2.9H6.3z"/>
										<path class="st3" d="M10.5,6.9h1.3v9h4.3V17h-5.6V6.9z"/>
										<path class="st3" d="M17.6,6.9h1.3v9h4.3V17h-5.6V6.9z"/>
										<path class="st3" d="M29.9,12.3H26v3.6h4.4V17h-5.7V6.9h5.5V8H26v3.2h3.9V12.3z"/>
										<path class="st3" d="M37.6,17l-1.3-2.2c-0.5-0.9-0.9-1.4-1.2-2h0c-0.3,0.6-0.6,1.1-1.1,2L32.8,17h-1.5l3.1-5.1l-3-5H33
											l1.3,2.4c0.4,0.7,0.7,1.2,0.9,1.7h0c0.3-0.6,0.5-1.1,0.9-1.7l1.4-2.4h1.5L36,11.8l3.1,5.2H37.6z"/>
									</g>
									<g class="st2">
										<path class="st3" d="M51.7,6.3c0,1.4-1.1,2.5-2.4,2.5c-1.4,0-2.4-1.1-2.4-2.5c0-1.4,1.1-2.5,2.4-2.5
											C50.7,3.8,51.7,4.9,51.7,6.3z M47.3,6.3c0,1.2,0.9,2.1,2,2.1c1.1,0,2-0.9,2-2.2c0-1.2-0.9-2.1-2-2.1
											C48.2,4.1,47.3,5.1,47.3,6.3z M50.3,5.4c-0.1-0.1-0.4-0.2-0.8-0.2c-0.8,0-1.1,0.5-1.1,1.1c0,0.6,0.4,1.1,1.1,1.1
											c0.3,0,0.6-0.1,0.8-0.2l0.1,0.3c-0.3,0.2-0.6,0.2-1,0.2c-0.9,0-1.5-0.6-1.5-1.4c0-0.9,0.7-1.5,1.5-1.5
											c0.4,0,0.8,0.1,0.9,0.2L50.3,5.4z"/>
									</g>
								</g>
							</g>
						</g>
					</g>
				</g>
				<g id="table1_1_" transform="translate(0.000000, 354.000000)">
					<g id="cell1_1_">
						<g id="_x31__1_">
							<path id="bg_5_" class="st7" d="M8,0h318c4.4,0,8,3.6,8,8v34c0,4.4-3.6,8-8,8H8c-4.4,0-8-3.6-8-8V8C0,3.6,3.6,0,8,0z"/>
							<g class="st2">
								<path class="st3" d="M153.6,29.1v1.6H141v-1.6H153.6z M143.9,21.2H142v-1.6h10.5v1.6h-1.9v4.1h1.8V27h-10.4v-1.6h1.8V21.2z
									 M148.7,21.2h-2.8v4.1h2.8V21.2z"/>
								<path class="st3" d="M167.4,29.2v1.6h-12.5v-1.6h5.2v-2.1h-3.8v-4.7h7.7v-1.5h-7.7v-1.6h9.7V24h-7.7v1.5h8v1.6h-4.2v2.1
									H167.4z"/>
								<path class="st3" d="M174.5,26.5c-1.2-0.5-2-1.2-2.4-2.2c-0.5,1.1-1.3,2-2.6,2.5l-1-1.5c1.9-0.7,2.6-2.3,2.6-3.9V21h-2.2
									v-1.6h6.1V21h-2v0.4c0,1.5,0.7,2.9,2.4,3.6L174.5,26.5z M170.9,27.4h9.5v4.9h-2V29h-7.5V27.4z M175.8,21.9v-3.2h1.8v8.1
									h-1.8v-3.3h-1.5v-1.6H175.8z M180.4,18.5v8.4h-1.9v-8.4H180.4z"/>
								<path class="st3" d="M195,29.1v1.6h-12.5v-1.6H195z M193.6,27.2h-9.7v-7.7h9.6v1.6h-7.6v1.5h7.3v1.5h-7.3v1.5h7.7V27.2z"/>
							</g>
						</g>
						<g id="_x32__2_" transform="translate(0.000000, 102.000000)">
							<path id="bg_6_" class="st7" d="M8,0h318c4.4,0,8,3.6,8,8v34c0,4.4-3.6,8-8,8H8c-4.4,0-8-3.6-8-8V8C0,3.6,3.6,0,8,0z"/>
							<g class="st2">
								<path class="st3" d="M142.9,27.5c1.3,0,2.5-0.1,3.8-0.3l0.1,1.6c-1.7,0.3-3.1,0.4-4.9,0.4h-1v-9.1h5.1v1.6h-3.2V27.5z
									 M152.4,18.5v13.8h-1.9v-6.9h-1.2v6.3h-1.8V18.7h1.8v5.1h1.2v-5.3H152.4z"/>
								<path class="st3" d="M161.5,26.1c-1.5-0.5-2.5-1.4-3-2.6c-0.6,1.4-1.7,2.4-3.2,3l-1-1.6c2.3-0.8,3.2-2.6,3.2-4.5v-1.2h2v1.4
									c0,1.7,0.9,3.3,3.1,4L161.5,26.1z M165.4,29.6c0,1.7-1.8,2.7-4.7,2.7c-2.9,0-4.7-1-4.7-2.7c0-1.7,1.8-2.7,4.7-2.7
									C163.6,27,165.4,28,165.4,29.6z M163.4,29.6c0-0.8-0.9-1.1-2.7-1.1c-1.8,0-2.7,0.4-2.7,1.1c0,0.8,0.9,1.1,2.7,1.1
									C162.5,30.8,163.4,30.4,163.4,29.6z M167,21.7v1.6h-1.8v3.3h-2v-8.2h2v3.2H167z"/>
								<path class="st3" d="M175.9,25.4c-1.6-0.4-2.7-1.3-3.3-2.5c-0.6,1.3-1.8,2.3-3.4,2.8l-0.9-1.5c2.1-0.6,3.2-2,3.3-3.5h-2.8
									v-1.6h7.5v1.6h-2.7c0.1,1.3,1.2,2.7,3.2,3.2L175.9,25.4z M180,30.7v1.5h-9.5v-3.8h7.2v-0.8h-7.2v-1.5h9.2v3.7h-7.2v0.9H180z
									 M179.6,25.6h-2v-7.1h2V25.6z"/>
								<path class="st3" d="M190.5,27.3c-2.9,0.5-6.1,0.6-8.5,0.6l-0.2-1.5c1,0,2.1,0,3.3,0v-0.8c-1.5-0.2-2.4-1-2.4-2.1
									c0-1.3,1.3-2.1,3.4-2.1c2,0,3.4,0.8,3.4,2.1c0,1.1-0.9,1.8-2.4,2.1v0.7c1.1-0.1,2.2-0.2,3.3-0.3L190.5,27.3z M190,21h-7.8
									v-1.4h2.9v-1.2h2v1.2h2.9V21z M185.7,30.5h7.7V32h-9.7v-3.5h2V30.5z M186.1,24.3c0.9,0,1.5-0.3,1.5-0.8
									c0-0.5-0.6-0.8-1.5-0.8s-1.5,0.3-1.5,0.8C184.6,24,185.1,24.3,186.1,24.3z M194.6,23v1.6h-1.7v4.6h-2V18.5h2V23H194.6z"/>
							</g>
						</g>
						<g class="st2">
							<path d="M144.3,182.2v1.3h-12.3v-1.3h5.3V179h1.5v3.2H144.3z M143.2,179.3c-2.2-0.4-4.1-1.8-5-3.6c-0.9,1.8-2.8,3.1-5,3.6
								l-0.7-1.3c2.7-0.5,4.9-2.5,4.9-4.6v-1h1.6v1c0,2.1,2.2,4.1,4.8,4.6L143.2,179.3z"/>
							<path d="M149.6,178.9c-2.1,0-3.6-1.3-3.6-3.2s1.5-3.2,3.6-3.2c2.1,0,3.6,1.3,3.6,3.2S151.7,178.9,149.6,178.9z M149.6,177.5
								c1.2,0,2.1-0.7,2.1-1.9c0-1.2-0.9-1.9-2.1-1.9c-1.2,0-2.1,0.8-2.1,1.9C147.6,176.8,148.4,177.5,149.6,177.5z M156.6,182.6
								c0,1.6-1.7,2.6-4.5,2.6c-2.8,0-4.5-1-4.5-2.6c0-1.6,1.7-2.6,4.5-2.6C154.9,180,156.6,180.9,156.6,182.6z M155.1,182.6
								c0-0.9-1.1-1.4-3-1.4c-1.9,0-3,0.5-3,1.4c0,0.9,1.1,1.4,3,1.4C154,183.9,155.1,183.4,155.1,182.6z M156.5,174.7v1.6h1.9v1.3
								h-1.9v1.9h-1.5v-8h1.5v1.9h1.9v1.3H156.5z"/>
							<path d="M166.5,172.4c0,3.5-2.3,6-6.3,7l-0.6-1.2c3.2-0.8,5-2.5,5.3-4.5h-4.6v-1.3H166.5z M161.6,179.8h8.7v5.2h-8.7V179.8z
								 M163.1,183.7h5.6v-2.7h-5.6V183.7z M172.2,176h-1.9v3.2h-1.5v-7.6h1.5v3.1h1.9V176z"/>
							<path d="M182.7,173.3c0,3.6-1.2,6.8-5,9l-0.9-1.1c2.9-1.7,4.2-3.9,4.4-6.6h-3.8v-1.3H182.7z M188.4,171.6v13.5h-1.5v-7h-1.5
								v6.4h-1.5V172h1.5v4.9h1.5v-5.3H188.4z"/>
							<path d="M197.8,179.6c-1.5-0.5-2.5-1.6-3.1-3c-0.6,1.5-1.7,2.7-3.3,3.3l-0.8-1.2c2.1-0.8,3.3-2.7,3.3-4.7v-1.6h1.6v1.6
								c0,1.8,1.1,3.6,3.2,4.3L197.8,179.6z M202.2,183.6v1.3h-9.1v-4.3h1.6v3H202.2z M200.3,175.9h-2.7v-1.3h2.7v-3h1.5v10.1h-1.5
								V175.9z"/>
						</g>
						<g class="st2">
							<path d="M140.2,70.9h3.6c2.5,0,4.3,0.9,4.3,3.5c0,2.5-1.9,3.7-4.3,3.7h-1.5V82h-2.2V70.9z M143.8,76.3c1.5,0,2.3-0.6,2.3-1.9
								c0-1.3-0.8-1.7-2.3-1.7h-1.3v3.6H143.8z"/>
							<path d="M149.7,76.5c0-3.7,2.4-5.8,5.3-5.8c1.6,0,2.7,0.7,3.4,1.4l-1.2,1.4c-0.5-0.5-1.2-0.9-2.2-0.9c-1.8,0-3.1,1.4-3.1,3.8
								c0,2.4,1.1,3.9,3.3,3.9c0.5,0,1.1-0.2,1.4-0.4v-2.2h-2v-1.8h3.9v5c-0.7,0.7-2.1,1.3-3.6,1.3C152,82.2,149.7,80.2,149.7,76.5z
								"/>
							<path d="M160.9,80.2h2.4v-7h-2v-1.4c1.1-0.2,1.9-0.5,2.6-0.9h1.6v9.3h2.1V82h-6.7V80.2z"/>
							<path d="M169.1,76.4c0-3.8,1.5-5.7,3.8-5.7c2.2,0,3.8,1.9,3.8,5.7s-1.5,5.8-3.8,5.8C170.6,82.2,169.1,80.2,169.1,76.4z
								 M174.5,76.4c0-3.1-0.7-4-1.7-4c-1,0-1.7,0.9-1.7,4c0,3.1,0.7,4.1,1.7,4.1C173.8,80.5,174.5,79.5,174.5,76.4z"/>
							<path d="M177.9,80.7c3-2.7,4.8-4.8,4.8-6.5c0-1.1-0.6-1.8-1.7-1.8c-0.8,0-1.5,0.5-2,1.1l-1.2-1.2c1-1.1,2-1.7,3.5-1.7
								c2.1,0,3.5,1.3,3.5,3.4c0,2-1.7,4.2-3.7,6.1c0.6-0.1,1.3-0.1,1.8-0.1h2.4V82h-7.4V80.7z"/>
							<path d="M187.5,70.9h3.6c2.5,0,4.4,0.9,4.4,3.5c0,2.5-1.9,3.7-4.3,3.7h-1.5V82h-2.2V70.9z M191,76.3c1.5,0,2.3-0.6,2.3-1.9
								c0-1.3-0.8-1.7-2.3-1.7h-1.3v3.6H191z"/>
						</g>
						<g id="_x32__3_" transform="translate(1.000000, 204.000000)">
							<path id="bg_7_" class="st8" d="M8.8,0.8h316.5c4.4,0,8,3.6,8,8v82.5c0,4.4-3.6,8-8,8H8.8c-4.4,0-8-3.6-8-8V8.8
								C0.8,4.3,4.3,0.8,8.8,0.8z"/>
							<g class="st2">
								<path class="st3" d="M114.7,51.4c-2.1,0-3.8-1.5-3.8-3.5c0-2,1.6-3.5,3.8-3.5c2.1,0,3.7,1.5,3.7,3.5
									C118.5,49.9,116.8,51.4,114.7,51.4z M114.7,49.7c1,0,1.8-0.7,1.8-1.8c0-1.1-0.8-1.8-1.8-1.8c-1,0-1.8,0.7-1.8,1.8
									C112.9,49,113.7,49.7,114.7,49.7z M122.6,55.5V57H113v-4.6h2v3H122.6z M122.2,53.4h-2v-9.9h2V53.4z"/>
								<path class="st3" d="M128.8,47.7c0,2.1,0.7,4.2,2.7,5.2l-1.1,1.5c-1.2-0.6-2-1.7-2.5-3.1c-0.5,1.4-1.3,2.7-2.5,3.4l-1.1-1.5
									c2-1.2,2.7-3.4,2.7-5.5v-0.3h-2.2v-1.6h2.2v-1.9h1.9v1.9h2.1v1.6h-2.1V47.7z M131.7,43.7h1.8v13h-1.8v-6.4h-1.6v-1.6h1.6
									V43.7z M136.4,43.5v13.8h-1.9V43.5H136.4z"/>
								<path class="st3" d="M145.7,51.3c-1.5-0.5-2.5-1.5-3.1-2.7c-0.6,1.3-1.7,2.5-3.3,3l-1-1.6c2.2-0.8,3.2-2.5,3.3-4.2h-2.7
									v-1.6h7.4v1.6h-2.7c0,1.6,1,3.2,3.1,4L145.7,51.3z M140.5,52.3h9.4v5h-2v-3.4h-7.4V52.3z M149.9,43.5v8.2h-2v-3.3h-2v-1.6h2
									v-3.3H149.9z"/>
								<path class="st3" d="M164.6,50v1.6h-12.5V50h2.8v-1.7c-1-0.5-1.6-1.1-1.6-2c0-1.7,1.9-2.7,5-2.7c3.1,0,5,1,5,2.7
									c0,0.9-0.6,1.6-1.6,2V50H164.6z M163.2,54.8c0,1.6-1.8,2.5-4.8,2.5s-4.8-0.9-4.8-2.5c0-1.6,1.8-2.5,4.8-2.5
									S163.2,53.2,163.2,54.8z M155.4,46.3c0,0.8,1.1,1.1,3,1.1c1.9,0,3-0.4,3-1.1c0-0.8-1.1-1.2-3-1.2
									C156.5,45.2,155.4,45.6,155.4,46.3z M161.1,54.8c0-0.7-0.9-1-2.8-1c-1.8,0-2.8,0.3-2.8,1s0.9,1,2.8,1
									C160.2,55.8,161.1,55.5,161.1,54.8z M156.9,50h2.9v-1.1c-0.4,0-0.9,0.1-1.4,0.1c-0.5,0-1,0-1.5-0.1V50z"/>
								<path class="st3" d="M171.3,46.6c0,2.6,1.1,5.1,3.4,6.1l-1.1,1.6c-1.6-0.7-2.7-2.1-3.3-3.8c-0.6,1.8-1.7,3.3-3.4,4.1
									l-1.2-1.6c2.4-1,3.6-3.7,3.6-6.4v-2h2V46.6z M177.4,43.5v13.9h-2V43.5H177.4z"/>
								<path class="st3" d="M187.9,46.2h-8.1v-1.5h3v-1.3h2v1.3h3.1V46.2z M183.8,51.7c-1.9,0-3.3-1-3.3-2.5c0-1.5,1.4-2.5,3.3-2.5
									s3.3,1,3.3,2.5C187.1,50.6,185.8,51.7,183.8,51.7z M182.1,52.4h9.2v4.7h-9.2V52.4z M183.8,50.2c0.8,0,1.4-0.4,1.4-1
									c0-0.7-0.6-1-1.4-1s-1.4,0.4-1.4,1C182.4,49.9,183,50.2,183.8,50.2z M184,55.6h5.3V54H184V55.6z M191.3,43.5v8.3h-2v-2.7
									h-1.7v-1.6h1.7v-4H191.3z"/>
								<path class="st3" d="M205.3,51.7c-2.8,0.5-5.9,0.6-8.2,0.6l-0.2-1.6c0.9,0,2,0,3.2,0v-1.1c-1.5-0.3-2.5-1.3-2.5-2.7
									c0-1.6,1.4-2.8,3.4-2.8c2,0,3.5,1.2,3.5,2.8c0,1.4-1,2.4-2.4,2.7v1c1.1-0.1,2.1-0.1,3.1-0.3L205.3,51.7z M200.7,55.5h7.7V57
									h-9.7v-3.9h2V55.5z M201.1,48.2c0.9,0,1.6-0.5,1.6-1.3c0-0.8-0.7-1.3-1.6-1.3c-0.9,0-1.6,0.5-1.6,1.3
									C199.5,47.7,200.1,48.2,201.1,48.2z M209.6,47.8v1.6h-1.7V54h-2V43.5h2v4.3H209.6z"/>
								<path class="st3" d="M223.3,54.2v1.6h-12.5v-1.6h3.2v-2.1h-1.7v-4.6h7.7v-1.5h-7.7v-1.6h9.7V49h-7.7v1.5h8v1.6h-1.9v2.1
									H223.3z M215.9,54.2h2.4v-2.1h-2.4V54.2z"/>
							</g>
						</g>
					</g>
				</g>
				<g id="table1_2_" transform="translate(0.000000, 708.000000)">
					<g id="cell1_2_">
						<g id="_x31__2_">
							<path id="bg_8_" class="st7" d="M8,0h318c4.4,0,8,3.6,8,8v34c0,4.4-3.6,8-8,8H8c-4.4,0-8-3.6-8-8V8C0,3.6,3.6,0,8,0z"/>
							<g class="st2">
								<path class="st3" d="M153.6,29.1v1.6H141v-1.6H153.6z M143.9,21.2H142v-1.6h10.5v1.6h-1.9v4.1h1.8V27h-10.4v-1.6h1.8V21.2z
									 M148.7,21.2h-2.8v4.1h2.8V21.2z"/>
								<path class="st3" d="M167.4,29.2v1.6h-12.5v-1.6h5.2v-2.1h-3.8v-4.7h7.7v-1.5h-7.7v-1.6h9.7V24h-7.7v1.5h8v1.6h-4.2v2.1
									H167.4z"/>
								<path class="st3" d="M174.5,26.5c-1.2-0.5-2-1.2-2.4-2.2c-0.5,1.1-1.3,2-2.6,2.5l-1-1.5c1.9-0.7,2.6-2.3,2.6-3.9V21h-2.2
									v-1.6h6.1V21h-2v0.4c0,1.5,0.7,2.9,2.4,3.6L174.5,26.5z M170.9,27.4h9.5v4.9h-2V29h-7.5V27.4z M175.8,21.9v-3.2h1.8v8.1
									h-1.8v-3.3h-1.5v-1.6H175.8z M180.4,18.5v8.4h-1.9v-8.4H180.4z"/>
								<path class="st3" d="M195,29.1v1.6h-12.5v-1.6H195z M193.6,27.2h-9.7v-7.7h9.6v1.6h-7.6v1.5h7.3v1.5h-7.3v1.5h7.7V27.2z"/>
							</g>
						</g>
						<g id="_x32__4_" transform="translate(0.000000, 102.000000)">
							<path id="bg_9_" class="st7" d="M8,0h318c4.4,0,8,3.6,8,8v34c0,4.4-3.6,8-8,8H8c-4.4,0-8-3.6-8-8V8C0,3.6,3.6,0,8,0z"/>
							<g class="st2">
								<path class="st3" d="M142.9,27.5c1.3,0,2.5-0.1,3.8-0.3l0.1,1.6c-1.7,0.3-3.1,0.4-4.9,0.4h-1v-9.1h5.1v1.6h-3.2V27.5z
									 M152.4,18.5v13.8h-1.9v-6.9h-1.2v6.3h-1.8V18.7h1.8v5.1h1.2v-5.3H152.4z"/>
								<path class="st3" d="M161.5,26.1c-1.5-0.5-2.5-1.4-3-2.6c-0.6,1.4-1.7,2.4-3.2,3l-1-1.6c2.3-0.8,3.2-2.6,3.2-4.5v-1.2h2v1.4
									c0,1.7,0.9,3.3,3.1,4L161.5,26.1z M165.4,29.6c0,1.7-1.8,2.7-4.7,2.7c-2.9,0-4.7-1-4.7-2.7c0-1.7,1.8-2.7,4.7-2.7
									C163.6,27,165.4,28,165.4,29.6z M163.4,29.6c0-0.8-0.9-1.1-2.7-1.1c-1.8,0-2.7,0.4-2.7,1.1c0,0.8,0.9,1.1,2.7,1.1
									C162.5,30.8,163.4,30.4,163.4,29.6z M167,21.7v1.6h-1.8v3.3h-2v-8.2h2v3.2H167z"/>
								<path class="st3" d="M175.9,25.4c-1.6-0.4-2.7-1.3-3.3-2.5c-0.6,1.3-1.8,2.3-3.4,2.8l-0.9-1.5c2.1-0.6,3.2-2,3.3-3.5h-2.8
									v-1.6h7.5v1.6h-2.7c0.1,1.3,1.2,2.7,3.2,3.2L175.9,25.4z M180,30.7v1.5h-9.5v-3.8h7.2v-0.8h-7.2v-1.5h9.2v3.7h-7.2v0.9H180z
									 M179.6,25.6h-2v-7.1h2V25.6z"/>
								<path class="st3" d="M190.5,27.3c-2.9,0.5-6.1,0.6-8.5,0.6l-0.2-1.5c1,0,2.1,0,3.3,0v-0.8c-1.5-0.2-2.4-1-2.4-2.1
									c0-1.3,1.3-2.1,3.4-2.1c2,0,3.4,0.8,3.4,2.1c0,1.1-0.9,1.8-2.4,2.1v0.7c1.1-0.1,2.2-0.2,3.3-0.3L190.5,27.3z M190,21h-7.8
									v-1.4h2.9v-1.2h2v1.2h2.9V21z M185.7,30.5h7.7V32h-9.7v-3.5h2V30.5z M186.1,24.3c0.9,0,1.5-0.3,1.5-0.8
									c0-0.5-0.6-0.8-1.5-0.8s-1.5,0.3-1.5,0.8C184.6,24,185.1,24.3,186.1,24.3z M194.6,23v1.6h-1.7v4.6h-2V18.5h2V23H194.6z"/>
							</g>
						</g>
						<g class="st2">
							<path d="M106.3,173c0,4-1.6,7.5-6.3,9.7l-0.8-1.2c3.6-1.7,5.2-4.1,5.5-7.2h-4.8V173H106.3z M110.3,171.6v13.5h-1.5v-13.5
								H110.3z"/>
							<path d="M124.2,171.6v8h-1.5v-3.4h-2.5c-0.3,1.6-1.7,2.7-3.5,2.7c-2,0-3.5-1.4-3.5-3.3c0-1.9,1.5-3.3,3.5-3.3
								c1.8,0,3.2,1.1,3.5,2.7h2.5v-3.4H124.2z M118.7,175.6c0-1.2-0.9-2-2.1-2c-1.2,0-2,0.8-2,2c0,1.2,0.9,2,2,2
								C117.8,177.6,118.7,176.8,118.7,175.6z M115,180.3h9.1v4.9h-1.5v-3.6H115V180.3z"/>
							<path d="M134,179.1c-1.6,0.3-3,0.3-5.7,0.3h-1v-4.2h4.3v-1.6h-4.4v-1.2h5.9v4h-4.3v1.8c2.3,0,3.5-0.1,5-0.3L134,179.1z
								 M128.8,180.6h9.2v4.6h-1.5v-3.3h-7.6V180.6z M138,171.6v8.3h-1.5v-2.3H134v-1.2h2.4v-1.6H134v-1.2h2.4v-2H138z"/>
							<path d="M141.1,179.3c0-3,0.8-5.4,2.2-7.7l1.1,0.5c-1.3,2.2-1.9,4.7-1.9,7.2c0,2.5,0.6,5.1,1.9,7.2l-1.1,0.5
								C141.9,184.7,141.1,182.3,141.1,179.3z"/>
							<path d="M153,179.2c-1.5-0.5-2.6-1.5-3.2-2.8c-0.6,1.4-1.7,2.5-3.3,3.1l-0.8-1.2c2.1-0.7,3.3-2.4,3.3-4.3v-0.2h-2.9v-1.3h7.3
								v1.3h-2.8v0.2c0,1.7,1.1,3.4,3.2,4.1L153,179.2z M147.5,180.4h8.9v4.7h-1.5v-3.5h-7.4V180.4z M158.4,176.3h-1.9v3.4h-1.5
								v-8.2h1.5v3.5h1.9V176.3z"/>
							<path d="M170.9,171.6v7.3h-1.5V176h-2.5c-0.3,1.5-1.6,2.6-3.4,2.6c-2,0-3.5-1.3-3.5-3.2c0-1.9,1.5-3.2,3.5-3.2
								c1.8,0,3.1,1,3.4,2.5h2.5v-3.1H170.9z M165.4,175.4c0-1.2-0.9-1.9-2-1.9c-1.2,0-2.1,0.7-2.1,1.9c0,1.1,0.9,1.9,2.1,1.9
								C164.6,177.3,165.4,176.5,165.4,175.4z M169.4,179.5h1.5v5.5h-8.8v-5.5h1.5v1.5h5.7V179.5z M169.4,182.2h-5.7v1.5h5.7V182.2z
								"/>
							<path d="M180.7,173c0,4-1.6,7.5-6.3,9.7l-0.8-1.2c3.6-1.7,5.2-4.1,5.5-7.2h-4.8V173H180.7z M184.7,171.6v13.5h-1.5v-13.5
								H184.7z"/>
							<path d="M198.5,171.6v8H197v-3.4h-2.5c-0.3,1.6-1.7,2.7-3.5,2.7c-2,0-3.5-1.4-3.5-3.3c0-1.9,1.5-3.3,3.5-3.3
								c1.8,0,3.2,1.1,3.5,2.7h2.5v-3.4H198.5z M193,175.6c0-1.2-0.9-2-2.1-2c-1.2,0-2,0.8-2,2c0,1.2,0.9,2,2,2
								C192.2,177.6,193,176.8,193,175.6z M189.4,180.3h9.1v4.9H197v-3.6h-7.6V180.3z"/>
							<path d="M201,186.5c1.3-2.1,1.9-4.7,1.9-7.2c0-2.5-0.6-5-1.9-7.2l1.1-0.5c1.4,2.3,2.2,4.7,2.2,7.7c0,3-0.8,5.4-2.2,7.7
								L201,186.5z"/>
							<path d="M215.6,173.3c0,3.6-1.2,6.8-5,9l-0.9-1.1c2.9-1.7,4.2-3.9,4.4-6.6h-3.8v-1.3H215.6z M221.3,171.6v13.5h-1.5v-7h-1.5
								v6.4h-1.5V172h1.5v4.9h1.5v-5.3H221.3z"/>
							<path d="M230.7,179.6c-1.5-0.5-2.5-1.6-3.1-3c-0.6,1.5-1.7,2.7-3.3,3.3l-0.8-1.2c2.1-0.8,3.3-2.7,3.3-4.7v-1.6h1.6v1.6
								c0,1.8,1.1,3.6,3.2,4.3L230.7,179.6z M235.1,183.6v1.3H226v-4.3h1.6v3H235.1z M233.3,175.9h-2.7v-1.3h2.7v-3h1.5v10.1h-1.5
								V175.9z"/>
						</g>
						<g class="st2">
							<path d="M145.2,70.9h2.2v4.4h4.2v-4.4h2.2V82h-2.2v-4.8h-4.2V82h-2.2V70.9z"/>
							<path d="M158.6,76.3l-2.9-5.4h2.5l1.1,2.3c0.3,0.5,0.5,1.1,0.8,1.8h0.1c0.3-0.7,0.5-1.2,0.7-1.8l1-2.3h2.3l-2.9,5.5l3.1,5.6
								H162l-1.2-2.5c-0.3-0.6-0.5-1.2-0.9-1.8h-0.1c-0.3,0.7-0.5,1.3-0.8,1.8l-1.2,2.5h-2.4L158.6,76.3z"/>
							<path d="M165.9,80.2h2.4v-7h-2v-1.4c1.1-0.2,1.9-0.5,2.6-0.9h1.6v9.3h2.1V82h-6.7V80.2z"/>
							<path d="M174.1,76.4c0-3.8,1.5-5.7,3.8-5.7c2.2,0,3.8,1.9,3.8,5.7s-1.5,5.8-3.8,5.8C175.6,82.2,174.1,80.2,174.1,76.4z
								 M179.6,76.4c0-3.1-0.7-4-1.7-4c-1,0-1.7,0.9-1.7,4c0,3.1,0.7,4.1,1.7,4.1C178.8,80.5,179.6,79.5,179.6,76.4z"/>
							<path d="M189.2,73.3c-0.4-0.5-1.1-0.8-1.7-0.8c-1.3,0-2.3,1-2.4,3.7c0.6-0.7,1.6-1.2,2.3-1.2c1.9,0,3.2,1.1,3.2,3.5
								c0,2.3-1.6,3.7-3.5,3.7c-2.1,0-4-1.7-4-5.6c0-4.1,2.1-5.9,4.3-5.9c1.3,0,2.3,0.6,3,1.3L189.2,73.3z M188.5,78.5
								c0-1.3-0.6-1.9-1.6-1.9c-0.6,0-1.3,0.3-1.8,1.2c0.2,2,1,2.8,1.9,2.8C187.8,80.5,188.5,79.9,188.5,78.5z"/>
						</g>
						<g id="_x32__5_" transform="translate(1.000000, 204.000000)">
							<path id="bg_10_" class="st8" d="M8.8,0.8h316.5c4.4,0,8,3.6,8,8v82.5c0,4.4-3.6,8-8,8H8.8c-4.4,0-8-3.6-8-8V8.8
								C0.8,4.3,4.3,0.8,8.8,0.8z"/>
							<g class="st2">
								<path class="st3" d="M134.6,35.2c1.8,0,3.8-0.2,5.8-0.6l0.2,1.7c-2.4,0.5-4.6,0.6-6.8,0.6h-1.2v-9.1h2V35.2z M143.5,26.5
									v13.8h-2V26.5H143.5z"/>
								<path class="st3" d="M158.3,37.1v1.6h-12.5v-1.6h5.2v-2.8h-3.9v-6.8h9.8v6.8H153v2.8H158.3z M149,32.7h6v-3.7h-6V32.7z"/>
								<path class="st3" d="M167,34.5c-1.5-0.5-2.6-1.5-3.2-2.8c-0.6,1.4-1.7,2.5-3.3,3.1l-1-1.6c2.3-0.8,3.3-2.7,3.3-4.5v-1.4h2
									v1.4c0,1.8,1,3.6,3.2,4.3L167,34.5z M171.4,38.5V40h-9.5v-4.5h2v2.9H171.4z M171,36.6h-2V26.5h2V36.6z"/>
								<path class="st3" d="M184,33.8v0.8h3.7V38h-7.6v0.7h7.9v1.4h-9.9v-3.5h7.6V36h-7.6v-1.4h3.8v-0.8h-5.2v-1.5h12.4v1.5H184z
									 M177.3,30.5c2.8-0.1,4.1-0.8,4.5-1.6h-3.8v-1.4h4v-1.1h2v1.1h4.1V29h-3.8c0.4,0.8,1.7,1.4,4.5,1.6l-0.6,1.5
									c-2.6-0.1-4.3-0.8-5.2-1.8c-0.9,1-2.6,1.7-5.2,1.8L177.3,30.5z"/>
								<path class="st3" d="M195.9,29.6c0,2.6,1.1,5.1,3.4,6.1l-1.1,1.6c-1.6-0.7-2.7-2.1-3.3-3.8c-0.6,1.8-1.7,3.3-3.4,4.1
									l-1.2-1.6c2.4-1,3.6-3.7,3.6-6.4v-2h2V29.6z M202,26.5v13.9h-2V26.5H202z"/>
							</g>
							<g id="text_1_" transform="translate(117.000000, 56.000000)">
								<g>
									<g class="st2">
										<path class="st3" d="M11,12.6c-0.1-1.4-0.2-3.1-0.1-4.4h0C10.4,9.4,10,10.6,9.5,12l-1.8,4.9h-1l-1.6-4.8
											c-0.5-1.4-0.9-2.7-1.2-3.9h0c0,1.3-0.1,3-0.2,4.5L3.4,17H2.2L2.9,6.9h1.7l1.7,4.9c0.4,1.2,0.8,2.4,1,3.4h0
											c0.3-1,0.6-2.1,1.1-3.4l1.8-4.9h1.7L12.5,17h-1.3L11,12.6z"/>
										<path class="st3" d="M14.5,17V6.9h1.4l3.2,5.1c0.8,1.2,1.3,2.2,1.8,3.3l0,0c-0.1-1.4-0.2-2.6-0.2-4.2V6.9h1.2V17h-1.3
											l-3.2-5.1c-0.7-1.1-1.4-2.3-1.9-3.4l0,0c0.1,1.3,0.1,2.5,0.1,4.2V17H14.5z"/>
										<path class="st3" d="M29.6,12.3h-3.9v3.6h4.4V17h-5.7V6.9h5.5V8h-4.2v3.2h3.9V12.3z"/>
										<path class="st3" d="M40.3,12.6c-0.1-1.4-0.2-3.1-0.1-4.4h0c-0.3,1.2-0.8,2.4-1.3,3.8L37,16.9h-1l-1.6-4.8
											c-0.5-1.4-0.9-2.7-1.2-3.9h0c0,1.3-0.1,3-0.2,4.5L32.7,17h-1.2l0.7-10.1h1.7l1.7,4.9c0.4,1.2,0.8,2.4,1,3.4h0
											c0.3-1,0.6-2.1,1.1-3.4l1.8-4.9h1.7L41.8,17h-1.3L40.3,12.6z"/>
										<path class="st3" d="M52.4,11.8c0,3.5-2.1,5.3-4.7,5.3c-2.7,0-4.5-2.1-4.5-5.1c0-3.2,2-5.3,4.7-5.3
											C50.7,6.7,52.4,8.8,52.4,11.8z M44.6,12c0,2.2,1.2,4.1,3.2,4.1c2.1,0,3.2-1.9,3.2-4.2c0-2-1-4.1-3.2-4.1
											C45.7,7.8,44.6,9.8,44.6,12z"/>
										<path class="st3" d="M54,15.4c0.6,0.4,1.4,0.7,2.3,0.7c1.3,0,2.1-0.7,2.1-1.7c0-0.9-0.5-1.5-1.9-2
											c-1.6-0.6-2.7-1.4-2.7-2.9c0-1.6,1.3-2.7,3.3-2.7c1,0,1.8,0.2,2.2,0.5L59,8.3c-0.3-0.2-1-0.5-1.9-0.5
											c-1.4,0-1.9,0.8-1.9,1.5c0,0.9,0.6,1.4,2,2c1.7,0.7,2.6,1.5,2.6,3c0,1.6-1.2,2.9-3.5,2.9c-1,0-2-0.3-2.6-0.6L54,15.4z"/>
										<path class="st3" d="M62.8,6.9V17h-1.3V6.9H62.8z"/>
										<path class="st3" d="M65.1,17V6.9h1.4l3.2,5.1c0.8,1.2,1.3,2.2,1.8,3.3l0,0c-0.1-1.4-0.2-2.6-0.2-4.2V6.9h1.2V17h-1.3
											l-3.2-5.1c-0.7-1.1-1.4-2.3-1.9-3.4l0,0c0.1,1.3,0.1,2.5,0.1,4.2V17H65.1z"/>
										<path class="st3" d="M80.2,12.3h-3.9v3.6h4.4V17H75V6.9h5.5V8h-4.2v3.2h3.9V12.3z"/>
									</g>
									<g class="st2">
										<path class="st3" d="M98.7,6.3c0,1.4-1.1,2.5-2.4,2.5c-1.4,0-2.4-1.1-2.4-2.5c0-1.4,1.1-2.5,2.4-2.5
											C97.7,3.8,98.7,4.9,98.7,6.3z M94.3,6.3c0,1.2,0.9,2.1,2,2.1c1.1,0,2-0.9,2-2.2c0-1.2-0.9-2.1-2-2.1
											C95.2,4.1,94.3,5.1,94.3,6.3z M97.3,5.4c-0.1-0.1-0.4-0.2-0.8-0.2c-0.8,0-1.1,0.5-1.1,1.1c0,0.6,0.4,1.1,1.1,1.1
											c0.3,0,0.6-0.1,0.8-0.2l0.1,0.3c-0.3,0.2-0.6,0.2-1,0.2c-0.9,0-1.5-0.6-1.5-1.4c0-0.9,0.7-1.5,1.5-1.5
											c0.4,0,0.8,0.1,0.9,0.2L97.3,5.4z"/>
									</g>
								</g>
							</g>
						</g>
					</g>
				</g>
				<g id="table1_3_" transform="translate(0.000000, 1062.000000)">
					<g id="cell1_3_">
						<g id="_x31__3_">
							<path id="bg_11_" class="st7" d="M8,0h318c4.4,0,8,3.6,8,8v34c0,4.4-3.6,8-8,8H8c-4.4,0-8-3.6-8-8V8C0,3.6,3.6,0,8,0z"/>
							<g class="st2">
								<path class="st3" d="M153.6,29.1v1.6H141v-1.6H153.6z M143.9,21.2H142v-1.6h10.5v1.6h-1.9v4.1h1.8V27h-10.4v-1.6h1.8V21.2z
									 M148.7,21.2h-2.8v4.1h2.8V21.2z"/>
								<path class="st3" d="M167.4,29.2v1.6h-12.5v-1.6h5.2v-2.1h-3.8v-4.7h7.7v-1.5h-7.7v-1.6h9.7V24h-7.7v1.5h8v1.6h-4.2v2.1
									H167.4z"/>
								<path class="st3" d="M174.5,26.5c-1.2-0.5-2-1.2-2.4-2.2c-0.5,1.1-1.3,2-2.6,2.5l-1-1.5c1.9-0.7,2.6-2.3,2.6-3.9V21h-2.2
									v-1.6h6.1V21h-2v0.4c0,1.5,0.7,2.9,2.4,3.6L174.5,26.5z M170.9,27.4h9.5v4.9h-2V29h-7.5V27.4z M175.8,21.9v-3.2h1.8v8.1
									h-1.8v-3.3h-1.5v-1.6H175.8z M180.4,18.5v8.4h-1.9v-8.4H180.4z"/>
								<path class="st3" d="M195,29.1v1.6h-12.5v-1.6H195z M193.6,27.2h-9.7v-7.7h9.6v1.6h-7.6v1.5h7.3v1.5h-7.3v1.5h7.7V27.2z"/>
							</g>
						</g>
						<g id="_x32__6_" transform="translate(0.000000, 102.000000)">
							<path id="bg_12_" class="st7" d="M8,0h318c4.4,0,8,3.6,8,8v34c0,4.4-3.6,8-8,8H8c-4.4,0-8-3.6-8-8V8C0,3.6,3.6,0,8,0z"/>
							<g class="st2">
								<path class="st3" d="M142.9,27.5c1.3,0,2.5-0.1,3.8-0.3l0.1,1.6c-1.7,0.3-3.1,0.4-4.9,0.4h-1v-9.1h5.1v1.6h-3.2V27.5z
									 M152.4,18.5v13.8h-1.9v-6.9h-1.2v6.3h-1.8V18.7h1.8v5.1h1.2v-5.3H152.4z"/>
								<path class="st3" d="M161.5,26.1c-1.5-0.5-2.5-1.4-3-2.6c-0.6,1.4-1.7,2.4-3.2,3l-1-1.6c2.3-0.8,3.2-2.6,3.2-4.5v-1.2h2v1.4
									c0,1.7,0.9,3.3,3.1,4L161.5,26.1z M165.4,29.6c0,1.7-1.8,2.7-4.7,2.7c-2.9,0-4.7-1-4.7-2.7c0-1.7,1.8-2.7,4.7-2.7
									C163.6,27,165.4,28,165.4,29.6z M163.4,29.6c0-0.8-0.9-1.1-2.7-1.1c-1.8,0-2.7,0.4-2.7,1.1c0,0.8,0.9,1.1,2.7,1.1
									C162.5,30.8,163.4,30.4,163.4,29.6z M167,21.7v1.6h-1.8v3.3h-2v-8.2h2v3.2H167z"/>
								<path class="st3" d="M175.9,25.4c-1.6-0.4-2.7-1.3-3.3-2.5c-0.6,1.3-1.8,2.3-3.4,2.8l-0.9-1.5c2.1-0.6,3.2-2,3.3-3.5h-2.8
									v-1.6h7.5v1.6h-2.7c0.1,1.3,1.2,2.7,3.2,3.2L175.9,25.4z M180,30.7v1.5h-9.5v-3.8h7.2v-0.8h-7.2v-1.5h9.2v3.7h-7.2v0.9H180z
									 M179.6,25.6h-2v-7.1h2V25.6z"/>
								<path class="st3" d="M190.5,27.3c-2.9,0.5-6.1,0.6-8.5,0.6l-0.2-1.5c1,0,2.1,0,3.3,0v-0.8c-1.5-0.2-2.4-1-2.4-2.1
									c0-1.3,1.3-2.1,3.4-2.1c2,0,3.4,0.8,3.4,2.1c0,1.1-0.9,1.8-2.4,2.1v0.7c1.1-0.1,2.2-0.2,3.3-0.3L190.5,27.3z M190,21h-7.8
									v-1.4h2.9v-1.2h2v1.2h2.9V21z M185.7,30.5h7.7V32h-9.7v-3.5h2V30.5z M186.1,24.3c0.9,0,1.5-0.3,1.5-0.8
									c0-0.5-0.6-0.8-1.5-0.8s-1.5,0.3-1.5,0.8C184.6,24,185.1,24.3,186.1,24.3z M194.6,23v1.6h-1.7v4.6h-2V18.5h2V23H194.6z"/>
							</g>
						</g>
						<g class="st2">
							<path d="M130.5,182.4v1.3h-12.3v-1.3h5.4v-1.7c-2.3-0.2-3.8-1.1-3.8-2.6c0-1.6,1.7-2.6,4.5-2.6c2.8,0,4.5,1,4.5,2.6
								c0,1.5-1.4,2.4-3.7,2.6v1.7H130.5z M129.9,174.7h-11.1v-1.2h4.8v-1.7h1.5v1.7h4.8V174.7z M124.4,179.5c1.9,0,2.9-0.5,2.9-1.4
								c0-0.9-1.1-1.4-2.9-1.4c-1.8,0-2.9,0.5-2.9,1.4C121.4,179,122.5,179.5,124.4,179.5z"/>
							<path d="M144.3,178.7v1.2h-12.3v-1.2H144.3z M143.7,173.8h-11v-1.2h4.7v-1.2h1.6v1.2h4.7V173.8z M141.3,180.6h1.5v4.4h-9.2
								v-4.4h1.5v1h6.2V180.6z M138.2,174.2c2.8,0,4.4,0.6,4.4,1.9c0,1.2-1.6,1.9-4.4,1.9c-2.9,0-4.5-0.6-4.5-1.9
								C133.7,174.9,135.3,174.2,138.2,174.2z M141.3,182.7h-6.2v1.1h6.2V182.7z M138.2,175.3c-1.8,0-2.8,0.3-2.8,0.8
								c0,0.6,1,0.8,2.8,0.8s2.8-0.3,2.8-0.8C141,175.6,140,175.3,138.2,175.3z"/>
							<path d="M153.1,173c0,4-1.6,7.5-6.3,9.7l-0.8-1.2c3.6-1.7,5.2-4.1,5.5-7.2h-4.8V173H153.1z M157.1,171.6v13.5h-1.5v-13.5
								H157.1z"/>
							<path d="M166.8,172.6c0,3.6-2.4,6.2-6.2,7.5l-0.7-1.2c3-1,5-2.8,5.2-5h-4.5v-1.3H166.8z M171.2,183.6v1.3h-9v-4.3h1.5v3.1
								H171.2z M169.4,175.7v-4.1h1.5v10h-1.5V177h-2.7v-1.3H169.4z"/>
							<path d="M180.4,172.6c0,3.5-2.3,6.1-6.3,7.2l-0.6-1.2c3.1-0.9,5-2.6,5.2-4.7H174v-1.3H180.4z M184.2,182.5
								c0,1.7-1.8,2.7-4.5,2.7c-2.7,0-4.5-1-4.5-2.7c0-1.7,1.8-2.7,4.5-2.7C182.4,179.8,184.2,180.8,184.2,182.5z M182.7,182.5
								c0-0.9-1.1-1.5-2.9-1.5c-1.8,0-2.9,0.5-2.9,1.5c0,0.9,1.1,1.5,2.9,1.5C181.5,183.9,182.7,183.4,182.7,182.5z M186,175v1.3
								h-1.9v3.3h-1.5v-8h1.5v3.3H186z"/>
							<path d="M196.5,173.3c0,3.6-1.2,6.8-5,9l-0.9-1.1c2.9-1.7,4.2-3.9,4.4-6.6h-3.8v-1.3H196.5z M202.2,171.6v13.5h-1.5v-7h-1.5
								v6.4h-1.5V172h1.5v4.9h1.5v-5.3H202.2z"/>
							<path d="M211.6,179.6c-1.5-0.5-2.5-1.6-3.1-3c-0.6,1.5-1.7,2.7-3.3,3.3l-0.8-1.2c2.1-0.8,3.3-2.7,3.3-4.7v-1.6h1.6v1.6
								c0,1.8,1.1,3.6,3.2,4.3L211.6,179.6z M216,183.6v1.3h-9.1v-4.3h1.6v3H216z M214.1,175.9h-2.7v-1.3h2.7v-3h1.5v10.1h-1.5
								V175.9z"/>
						</g>
						<g class="st2">
							<path d="M145.2,70.9h2.2v4.4h4.2v-4.4h2.2V82h-2.2v-4.8h-4.2V82h-2.2V70.9z"/>
							<path d="M158.6,76.3l-2.9-5.4h2.5l1.1,2.3c0.3,0.5,0.5,1.1,0.8,1.8h0.1c0.3-0.7,0.5-1.2,0.7-1.8l1-2.3h2.3l-2.9,5.5l3.1,5.6
								H162l-1.2-2.5c-0.3-0.6-0.5-1.2-0.9-1.8h-0.1c-0.3,0.7-0.5,1.3-0.8,1.8l-1.2,2.5h-2.4L158.6,76.3z"/>
							<path d="M165.9,80.2h2.4v-7h-2v-1.4c1.1-0.2,1.9-0.5,2.6-0.9h1.6v9.3h2.1V82h-6.7V80.2z"/>
							<path d="M174.7,80.2h2.4v-7h-2v-1.4c1.1-0.2,1.9-0.5,2.6-0.9h1.6v9.3h2.1V82h-6.7V80.2z"/>
							<path d="M183,76.4c0-3.8,1.5-5.7,3.8-5.7c2.2,0,3.8,1.9,3.8,5.7s-1.5,5.8-3.8,5.8C184.5,82.2,183,80.2,183,76.4z M188.4,76.4
								c0-3.1-0.7-4-1.7-4c-1,0-1.7,0.9-1.7,4c0,3.1,0.7,4.1,1.7,4.1C187.7,80.5,188.4,79.5,188.4,76.4z"/>
						</g>
						<g id="_x32__7_" transform="translate(1.000000, 204.000000)">
							<path id="bg_13_" class="st8" d="M8.8,0.8h316.5c4.4,0,8,3.6,8,8v82.5c0,4.4-3.6,8-8,8H8.8c-4.4,0-8-3.6-8-8V8.8
								C0.8,4.3,4.3,0.8,8.8,0.8z"/>
							<g class="st2">
								<path class="st3" d="M121.6,51.4c-2.1,0-3.8-1.5-3.8-3.5c0-2,1.6-3.5,3.8-3.5c2.1,0,3.7,1.5,3.7,3.5
									C125.4,49.9,123.7,51.4,121.6,51.4z M121.6,49.7c1,0,1.8-0.7,1.8-1.8c0-1.1-0.8-1.8-1.8-1.8c-1,0-1.8,0.7-1.8,1.8
									C119.8,49,120.6,49.7,121.6,49.7z M129.5,55.5V57h-9.5v-4.6h2v3H129.5z M129.1,53.4h-2v-9.9h2V53.4z"/>
								<path class="st3" d="M135.7,47.7c0,2.1,0.7,4.2,2.7,5.2l-1.1,1.5c-1.2-0.6-2-1.7-2.5-3.1c-0.5,1.4-1.3,2.7-2.5,3.4l-1.1-1.5
									c2-1.2,2.7-3.4,2.7-5.5v-0.3h-2.2v-1.6h2.2v-1.9h1.9v1.9h2.1v1.6h-2.1V47.7z M138.6,43.7h1.8v13h-1.8v-6.4h-1.6v-1.6h1.6
									V43.7z M143.3,43.5v13.8h-1.9V43.5H143.3z"/>
								<path class="st3" d="M152.6,51.3c-1.5-0.5-2.5-1.5-3.1-2.7c-0.6,1.3-1.7,2.5-3.3,3l-1-1.6c2.2-0.8,3.2-2.5,3.3-4.2h-2.7
									v-1.6h7.4v1.6h-2.7c0,1.6,1,3.2,3.1,4L152.6,51.3z M147.4,52.3h9.4v5h-2v-3.4h-7.4V52.3z M156.8,43.5v8.2h-2v-3.3h-2v-1.6h2
									v-3.3H156.8z"/>
								<path class="st3" d="M171.5,50v1.6H159V50h2.8v-1.7c-1-0.5-1.6-1.1-1.6-2c0-1.7,1.9-2.7,5-2.7c3.1,0,5,1,5,2.7
									c0,0.9-0.6,1.6-1.6,2V50H171.5z M170.1,54.8c0,1.6-1.8,2.5-4.8,2.5s-4.8-0.9-4.8-2.5c0-1.6,1.8-2.5,4.8-2.5
									S170.1,53.2,170.1,54.8z M162.3,46.3c0,0.8,1.1,1.1,3,1.1c1.9,0,3-0.4,3-1.1c0-0.8-1.1-1.2-3-1.2
									C163.4,45.2,162.3,45.6,162.3,46.3z M168,54.8c0-0.7-0.9-1-2.8-1c-1.8,0-2.8,0.3-2.8,1s0.9,1,2.8,1
									C167.1,55.8,168,55.5,168,54.8z M163.8,50h2.9v-1.1c-0.4,0-0.9,0.1-1.4,0.1c-0.5,0-1,0-1.5-0.1V50z"/>
								<path class="st3" d="M178.2,46.6c0,2.6,1.1,5.1,3.4,6.1l-1.1,1.6c-1.6-0.7-2.7-2.1-3.3-3.8c-0.6,1.8-1.7,3.3-3.4,4.1
									l-1.2-1.6c2.4-1,3.6-3.7,3.6-6.4v-2h2V46.6z M184.3,43.5v13.9h-2V43.5H184.3z"/>
								<path class="st3" d="M194.8,46.2h-8.1v-1.5h3v-1.3h2v1.3h3.1V46.2z M190.7,51.7c-1.9,0-3.3-1-3.3-2.5c0-1.5,1.4-2.5,3.3-2.5
									c1.9,0,3.3,1,3.3,2.5C194,50.6,192.7,51.7,190.7,51.7z M189,52.4h9.2v4.7H189V52.4z M190.7,50.2c0.8,0,1.4-0.4,1.4-1
									c0-0.7-0.6-1-1.4-1s-1.4,0.4-1.4,1C189.3,49.9,189.9,50.2,190.7,50.2z M190.9,55.6h5.3V54h-5.3V55.6z M198.2,43.5v8.3h-2
									v-2.7h-1.7v-1.6h1.7v-4H198.2z"/>
								<path class="st3" d="M211.1,51.3v1c2.4,0.2,3.8,1,3.8,2.5c0,1.6-1.8,2.5-4.8,2.5c-3,0-4.8-0.9-4.8-2.5
									c0-1.4,1.4-2.3,3.8-2.5v-1h-5.2v-1.6h12.5v1.6H211.1z M204.4,47.7c2.6-0.2,3.9-1.1,4.3-2.1H205V44h10.2v1.6h-3.7
									c0.3,0.9,1.7,1.8,4.3,2.1l-0.7,1.5c-2.6-0.2-4.3-1.2-5-2.5c-0.7,1.3-2.4,2.3-5,2.5L204.4,47.7z M210.1,53.8
									c-1.8,0-2.8,0.3-2.8,1c0,0.7,0.9,1,2.8,1c1.8,0,2.8-0.3,2.8-1C212.8,54.1,211.9,53.8,210.1,53.8z"/>
							</g>
						</g>
					</g>
				</g>
				<g id="table1_4_" transform="translate(0.000000, 1416.000000)">
					<g id="cell1_4_">
						<g id="_x31__4_">
							<path id="bg_14_" class="st7" d="M8,0h318c4.4,0,8,3.6,8,8v34c0,4.4-3.6,8-8,8H8c-4.4,0-8-3.6-8-8V8C0,3.6,3.6,0,8,0z"/>
							<g class="st2">
								<path class="st3" d="M153.6,29.1v1.6H141v-1.6H153.6z M143.9,21.2H142v-1.6h10.5v1.6h-1.9v4.1h1.8V27h-10.4v-1.6h1.8V21.2z
									 M148.7,21.2h-2.8v4.1h2.8V21.2z"/>
								<path class="st3" d="M167.4,29.2v1.6h-12.5v-1.6h5.2v-2.1h-3.8v-4.7h7.7v-1.5h-7.7v-1.6h9.7V24h-7.7v1.5h8v1.6h-4.2v2.1
									H167.4z"/>
								<path class="st3" d="M174.5,26.5c-1.2-0.5-2-1.2-2.4-2.2c-0.5,1.1-1.3,2-2.6,2.5l-1-1.5c1.9-0.7,2.6-2.3,2.6-3.9V21h-2.2
									v-1.6h6.1V21h-2v0.4c0,1.5,0.7,2.9,2.4,3.6L174.5,26.5z M170.9,27.4h9.5v4.9h-2V29h-7.5V27.4z M175.8,21.9v-3.2h1.8v8.1
									h-1.8v-3.3h-1.5v-1.6H175.8z M180.4,18.5v8.4h-1.9v-8.4H180.4z"/>
								<path class="st3" d="M195,29.1v1.6h-12.5v-1.6H195z M193.6,27.2h-9.7v-7.7h9.6v1.6h-7.6v1.5h7.3v1.5h-7.3v1.5h7.7V27.2z"/>
							</g>
						</g>
						<g id="_x32__8_" transform="translate(0.000000, 102.000000)">
							<path id="bg_15_" class="st7" d="M8,0h318c4.4,0,8,3.6,8,8v34c0,4.4-3.6,8-8,8H8c-4.4,0-8-3.6-8-8V8C0,3.6,3.6,0,8,0z"/>
							<g class="st2">
								<path class="st3" d="M142.9,27.5c1.3,0,2.5-0.1,3.8-0.3l0.1,1.6c-1.7,0.3-3.1,0.4-4.9,0.4h-1v-9.1h5.1v1.6h-3.2V27.5z
									 M152.4,18.5v13.8h-1.9v-6.9h-1.2v6.3h-1.8V18.7h1.8v5.1h1.2v-5.3H152.4z"/>
								<path class="st3" d="M161.5,26.1c-1.5-0.5-2.5-1.4-3-2.6c-0.6,1.4-1.7,2.4-3.2,3l-1-1.6c2.3-0.8,3.2-2.6,3.2-4.5v-1.2h2v1.4
									c0,1.7,0.9,3.3,3.1,4L161.5,26.1z M165.4,29.6c0,1.7-1.8,2.7-4.7,2.7c-2.9,0-4.7-1-4.7-2.7c0-1.7,1.8-2.7,4.7-2.7
									C163.6,27,165.4,28,165.4,29.6z M163.4,29.6c0-0.8-0.9-1.1-2.7-1.1c-1.8,0-2.7,0.4-2.7,1.1c0,0.8,0.9,1.1,2.7,1.1
									C162.5,30.8,163.4,30.4,163.4,29.6z M167,21.7v1.6h-1.8v3.3h-2v-8.2h2v3.2H167z"/>
								<path class="st3" d="M175.9,25.4c-1.6-0.4-2.7-1.3-3.3-2.5c-0.6,1.3-1.8,2.3-3.4,2.8l-0.9-1.5c2.1-0.6,3.2-2,3.3-3.5h-2.8
									v-1.6h7.5v1.6h-2.7c0.1,1.3,1.2,2.7,3.2,3.2L175.9,25.4z M180,30.7v1.5h-9.5v-3.8h7.2v-0.8h-7.2v-1.5h9.2v3.7h-7.2v0.9H180z
									 M179.6,25.6h-2v-7.1h2V25.6z"/>
								<path class="st3" d="M190.5,27.3c-2.9,0.5-6.1,0.6-8.5,0.6l-0.2-1.5c1,0,2.1,0,3.3,0v-0.8c-1.5-0.2-2.4-1-2.4-2.1
									c0-1.3,1.3-2.1,3.4-2.1c2,0,3.4,0.8,3.4,2.1c0,1.1-0.9,1.8-2.4,2.1v0.7c1.1-0.1,2.2-0.2,3.3-0.3L190.5,27.3z M190,21h-7.8
									v-1.4h2.9v-1.2h2v1.2h2.9V21z M185.7,30.5h7.7V32h-9.7v-3.5h2V30.5z M186.1,24.3c0.9,0,1.5-0.3,1.5-0.8
									c0-0.5-0.6-0.8-1.5-0.8s-1.5,0.3-1.5,0.8C184.6,24,185.1,24.3,186.1,24.3z M194.6,23v1.6h-1.7v4.6h-2V18.5h2V23H194.6z"/>
							</g>
						</g>
						<g class="st2">
							<path d="M108.7,172.7c0,3.3-1.7,5.8-5.2,7.2l-0.8-1.1c2.7-1.1,4.1-2.7,4.3-4.8h-3.6v-1.3H108.7z M114.4,182.5
								c0,1.6-1.8,2.6-4.6,2.6c-2.8,0-4.6-1-4.6-2.6c0-1.6,1.8-2.6,4.6-2.6C112.6,180,114.4,180.9,114.4,182.5z M112.8,182.5
								c0-0.9-1.2-1.4-3.1-1.4s-3.1,0.5-3.1,1.4c0,0.9,1.2,1.4,3.1,1.4S112.8,183.4,112.8,182.5z M111.3,179.4h-1.5v-7.5h1.5v3.1
								h1.5v-3.4h1.5v8.2h-1.5v-3.6h-1.5V179.4z"/>
							<path d="M124.3,179.2c-2.1,0.4-3.9,0.5-5.9,0.5h-1.1v-7.2h1.5v5.9c1.8,0,3.4-0.1,5.3-0.5L124.3,179.2z M128.2,183.6v1.3H119
								v-4.2h1.5v2.9H128.2z M126.3,177.1h-3.6v-1.2h3.6v-1.3h-3.6v-1.2h3.6v-1.7h1.5v10h-1.5V177.1z"/>
							<path d="M137.6,173c0,4-1.6,7.5-6.3,9.7l-0.8-1.2c3.6-1.7,5.2-4.1,5.5-7.2h-4.8V173H137.6z M141.6,171.6v13.5H140v-13.5
								H141.6z"/>
							<path d="M155.4,171.6v13.6h-1.6V180h-3.1c-0.6,1.3-1.6,2.1-2.9,2.1c-2,0-3.4-1.8-3.4-4.8c0-2.9,1.4-4.8,3.4-4.8
								c1.2,0,2.2,0.7,2.9,1.9h3.2v-2.9H155.4z M149.8,177.4c0-2.1-0.8-3.4-2-3.4c-1.2,0-2,1.3-2,3.4c0,2.1,0.8,3.4,2,3.4
								C149,180.8,149.8,179.5,149.8,177.4z M153.9,178.8v-3h-2.8c0.1,0.5,0.2,1,0.2,1.6c0,0.5,0,1-0.1,1.4H153.9z"/>
							<path d="M165.2,179c-1.5-0.5-2.5-1.5-3.1-2.9c-0.6,1.5-1.7,2.7-3.4,3.3l-0.8-1.2c2.2-0.7,3.4-2.6,3.4-4.5v-1.3h1.6v1.3
								c0,1.9,1.1,3.6,3.2,4.2L165.2,179z M169.3,182.6c0,1.6-1.7,2.6-4.6,2.6c-2.8,0-4.6-1-4.6-2.6c0-1.6,1.7-2.6,4.6-2.6
								C167.5,180,169.3,180.9,169.3,182.6z M167.7,182.6c0-0.9-1.1-1.4-3-1.4s-3,0.5-3,1.4c0,0.9,1.1,1.4,3,1.4
								S167.7,183.4,167.7,182.6z M167.7,175.6h-2.7v-1.3h2.7v-2.7h1.5v8h-1.5V175.6z"/>
							<path d="M182.2,172.6c0,3.6-2.4,6.2-6.2,7.5l-0.7-1.2c3-1,5-2.8,5.2-5H176v-1.3H182.2z M186.7,183.6v1.3h-9v-4.3h1.5v3.1
								H186.7z M184.8,175.7v-4.1h1.5v10h-1.5V177h-2.7v-1.3H184.8z"/>
							<path d="M195.8,172.6c0,3.5-2.3,6.1-6.3,7.2l-0.6-1.2c3.1-0.9,5-2.6,5.2-4.7h-4.7v-1.3H195.8z M199.7,182.5
								c0,1.7-1.8,2.7-4.5,2.7c-2.7,0-4.5-1-4.5-2.7c0-1.7,1.8-2.7,4.5-2.7C197.9,179.8,199.7,180.8,199.7,182.5z M198.2,182.5
								c0-0.9-1.1-1.5-2.9-1.5c-1.8,0-2.9,0.5-2.9,1.5c0,0.9,1.1,1.5,2.9,1.5C197,183.9,198.2,183.4,198.2,182.5z M201.5,175v1.3
								h-1.9v3.3H198v-8h1.5v3.3H201.5z"/>
							<path d="M212,173.3c0,3.6-1.2,6.8-5,9l-0.9-1.1c2.9-1.7,4.2-3.9,4.4-6.6h-3.8v-1.3H212z M217.7,171.6v13.5h-1.5v-7h-1.5v6.4
								h-1.5V172h1.5v4.9h1.5v-5.3H217.7z"/>
							<path d="M227.1,179.6c-1.5-0.5-2.5-1.6-3.1-3c-0.6,1.5-1.7,2.7-3.3,3.3l-0.8-1.2c2.1-0.8,3.3-2.7,3.3-4.7v-1.6h1.6v1.6
								c0,1.8,1.1,3.6,3.2,4.3L227.1,179.6z M231.5,183.6v1.3h-9.1v-4.3h1.6v3H231.5z M229.6,175.9h-2.7v-1.3h2.7v-3h1.5v10.1h-1.5
								V175.9z"/>
						</g>
						<g class="st2">
							<path d="M145.2,70.9h2.2v4.4h4.2v-4.4h2.2V82h-2.2v-4.8h-4.2V82h-2.2V70.9z"/>
							<path d="M158.6,76.3l-2.9-5.4h2.5l1.1,2.3c0.3,0.5,0.5,1.1,0.8,1.8h0.1c0.3-0.7,0.5-1.2,0.7-1.8l1-2.3h2.3l-2.9,5.5l3.1,5.6
								H162l-1.2-2.5c-0.3-0.6-0.5-1.2-0.9-1.8h-0.1c-0.3,0.7-0.5,1.3-0.8,1.8l-1.2,2.5h-2.4L158.6,76.3z"/>
							<path d="M165.9,80.2h2.4v-7h-2v-1.4c1.1-0.2,1.9-0.5,2.6-0.9h1.6v9.3h2.1V82h-6.7V80.2z"/>
							<path d="M174.7,80.2h2.4v-7h-2v-1.4c1.1-0.2,1.9-0.5,2.6-0.9h1.6v9.3h2.1V82h-6.7V80.2z"/>
							<path d="M182.9,80.7c3-2.7,4.8-4.8,4.8-6.5c0-1.1-0.6-1.8-1.7-1.8c-0.8,0-1.5,0.5-2,1.1l-1.2-1.2c1-1.1,2-1.7,3.5-1.7
								c2.1,0,3.5,1.3,3.5,3.4c0,2-1.7,4.2-3.7,6.1c0.6-0.1,1.3-0.1,1.8-0.1h2.4V82h-7.4V80.7z"/>
						</g>
						<g id="_x32__9_" transform="translate(1.000000, 204.000000)">
							<path id="bg_16_" class="st8" d="M8.8,0.8h316.5c4.4,0,8,3.6,8,8v82.5c0,4.4-3.6,8-8,8H8.8c-4.4,0-8-3.6-8-8V8.8
								C0.8,4.3,4.3,0.8,8.8,0.8z"/>
							<g class="st2">
								<path class="st3" d="M114.7,51.4c-2.1,0-3.8-1.5-3.8-3.5c0-2,1.6-3.5,3.8-3.5c2.1,0,3.7,1.5,3.7,3.5
									C118.5,49.9,116.8,51.4,114.7,51.4z M114.7,49.7c1,0,1.8-0.7,1.8-1.8c0-1.1-0.8-1.8-1.8-1.8c-1,0-1.8,0.7-1.8,1.8
									C112.9,49,113.7,49.7,114.7,49.7z M122.6,55.5V57H113v-4.6h2v3H122.6z M122.2,53.4h-2v-9.9h2V53.4z"/>
								<path class="st3" d="M128.8,47.7c0,2.1,0.7,4.2,2.7,5.2l-1.1,1.5c-1.2-0.6-2-1.7-2.5-3.1c-0.5,1.4-1.3,2.7-2.5,3.4l-1.1-1.5
									c2-1.2,2.7-3.4,2.7-5.5v-0.3h-2.2v-1.6h2.2v-1.9h1.9v1.9h2.1v1.6h-2.1V47.7z M131.7,43.7h1.8v13h-1.8v-6.4h-1.6v-1.6h1.6
									V43.7z M136.4,43.5v13.8h-1.9V43.5H136.4z"/>
								<path class="st3" d="M145.7,51.3c-1.5-0.5-2.5-1.5-3.1-2.7c-0.6,1.3-1.7,2.5-3.3,3l-1-1.6c2.2-0.8,3.2-2.5,3.3-4.2h-2.7
									v-1.6h7.4v1.6h-2.7c0,1.6,1,3.2,3.1,4L145.7,51.3z M140.5,52.3h9.4v5h-2v-3.4h-7.4V52.3z M149.9,43.5v8.2h-2v-3.3h-2v-1.6h2
									v-3.3H149.9z"/>
								<path class="st3" d="M164.6,50v1.6h-12.5V50h2.8v-1.7c-1-0.5-1.6-1.1-1.6-2c0-1.7,1.9-2.7,5-2.7c3.1,0,5,1,5,2.7
									c0,0.9-0.6,1.6-1.6,2V50H164.6z M163.2,54.8c0,1.6-1.8,2.5-4.8,2.5s-4.8-0.9-4.8-2.5c0-1.6,1.8-2.5,4.8-2.5
									S163.2,53.2,163.2,54.8z M155.4,46.3c0,0.8,1.1,1.1,3,1.1c1.9,0,3-0.4,3-1.1c0-0.8-1.1-1.2-3-1.2
									C156.5,45.2,155.4,45.6,155.4,46.3z M161.1,54.8c0-0.7-0.9-1-2.8-1c-1.8,0-2.8,0.3-2.8,1s0.9,1,2.8,1
									C160.2,55.8,161.1,55.5,161.1,54.8z M156.9,50h2.9v-1.1c-0.4,0-0.9,0.1-1.4,0.1c-0.5,0-1,0-1.5-0.1V50z"/>
								<path class="st3" d="M171.3,46.6c0,2.6,1.1,5.1,3.4,6.1l-1.1,1.6c-1.6-0.7-2.7-2.1-3.3-3.8c-0.6,1.8-1.7,3.3-3.4,4.1
									l-1.2-1.6c2.4-1,3.6-3.7,3.6-6.4v-2h2V46.6z M177.4,43.5v13.9h-2V43.5H177.4z"/>
								<path class="st3" d="M187.9,46.2h-8.1v-1.5h3v-1.3h2v1.3h3.1V46.2z M183.8,51.7c-1.9,0-3.3-1-3.3-2.5c0-1.5,1.4-2.5,3.3-2.5
									s3.3,1,3.3,2.5C187.1,50.6,185.8,51.7,183.8,51.7z M182.1,52.4h9.2v4.7h-9.2V52.4z M183.8,50.2c0.8,0,1.4-0.4,1.4-1
									c0-0.7-0.6-1-1.4-1s-1.4,0.4-1.4,1C182.4,49.9,183,50.2,183.8,50.2z M184,55.6h5.3V54H184V55.6z M191.3,43.5v8.3h-2v-2.7
									h-1.7v-1.6h1.7v-4H191.3z"/>
								<path class="st3" d="M204.2,43.7h1.8v13h-1.8v-4.3h-1.6c-0.5,1.3-1.4,2.1-2.5,2.1c-1.8,0-3-1.9-3-5c0-3.1,1.2-5,3-5
									c1.1,0,2,0.7,2.5,2.1h1.6V43.7z M201.3,49.5c0-2.1-0.5-3.1-1.2-3.1c-0.8,0-1.2,1-1.2,3.1c0,2.1,0.5,3.2,1.2,3.2
									C200.8,52.6,201.3,51.6,201.3,49.5z M204.2,50.8v-2.7H203c0.1,0.4,0.1,0.9,0.1,1.3c0,0.5,0,0.9-0.1,1.3H204.2z M208.8,43.5
									v13.8h-1.9V43.5H208.8z"/>
								<path class="st3" d="M218.1,51.3c-1.5-0.5-2.5-1.5-3.1-2.7c-0.6,1.4-1.7,2.5-3.3,3.1l-1-1.6c2.2-0.8,3.2-2.5,3.3-4.2h-2.7
									v-1.6h7.4v1.6H216c0.1,1.6,1,3.2,3.1,3.9L218.1,51.3z M222.4,54.7c0,1.7-1.8,2.7-4.7,2.7c-2.9,0-4.7-1-4.7-2.7
									c0-1.7,1.8-2.7,4.7-2.7C220.6,52,222.4,53,222.4,54.7z M220.4,54.7c0-0.8-0.9-1.2-2.7-1.2c-1.8,0-2.8,0.4-2.8,1.2
									c0,0.8,0.9,1.2,2.8,1.2C219.4,55.8,220.4,55.4,220.4,54.7z M220.3,46.8v-3.3h2v8.2h-2v-3.3h-2.1v-1.6H220.3z"/>
							</g>
						</g>
					</g>
				</g>
			</g>
		</g>
	</g>
</g>
</svg>
