<?xml version="1.0" encoding="utf-8"?>
<!-- Generator: Adobe Illustrator 24.0.0, SVG Export Plug-In . SVG Version: 6.00 Build 0)  -->
<svg version="1.1" id="Layer_1" xmlns="http://www.w3.org/2000/svg" xmlns:xlink="http://www.w3.org/1999/xlink" x="0px" y="0px"
	 viewBox="0 0 1000 888" style="enable-background:new 0 0 1000 888;" xml:space="preserve">
<style type="text/css">
	.st0{fill:none;stroke:#961C1D;stroke-width:2;}
	.st1{fill-rule:evenodd;clip-rule:evenodd;fill:#B54142;fill-opacity:0.8;stroke:#961C1D;stroke-width:2;}
	.st2{enable-background:new    ;}
	.st3{fill:#FFFFFF;}
	.st4{font-family:'NotoSansKR-Regular-KSCpc-EUC-H';}
	.st5{font-size:18px;}
	.st6{font-family:'NotoSansCJKkr-Medium-KSCpc-EUC-H';}
	.st7{font-size:12px;}
	.st8{fill-rule:evenodd;clip-rule:evenodd;}
	.st9{fill-rule:evenodd;clip-rule:evenodd;fill:#777777;}
	.st10{fill:none;stroke:#EAB4B5;stroke-linecap:square;stroke-dasharray:10;}
	.st11{fill:none;stroke:#979797;stroke-linecap:square;}
	.st12{fill-rule:evenodd;clip-rule:evenodd;fill:#B54142;fill-opacity:0.7;stroke:#B54142;}
</style>
<title>first_kr</title>
<desc>Created with Sketch.</desc>
<g id="Page-1">
	<g id="_x35_.Botanicals" transform="translate(-220.000000, -517.000000)">
		<g id="first_kr" transform="translate(190.000000, 417.000000)">
			<g id="table" transform="translate(30.000000, 100.000000)">
				<g id="box1">
					<path id="bg" class="st0" d="M9,1h982c4.4,0,8,3.6,8,8v280c0,4.4-3.6,8-8,8H9c-4.4,0-8-3.6-8-8V9C1,4.6,4.6,1,9,1z"/>
					<path id="bg_1_" class="st1" d="M29,21h942c4.4,0,8,3.6,8,8v80c0,4.4-3.6,8-8,8H29c-4.4,0-8-3.6-8-8V29C21,24.6,24.6,21,29,21z
						"/>
					<g class="st2">
						<path class="st3" d="M309.7,70.6c-3,0.6-5.8,0.8-8.4,0.8h-1.5v-8.6h2.1v6.9c2.4,0,4.9-0.2,7.5-0.8L309.7,70.6z M303.8,77.5
							h9.9v1.7h-12v-5.9h2.1V77.5z M315.7,66.7v1.7h-2.6v6.1h-2.1v-13h2.1v5.2H315.7z"/>
						<path class="st3" d="M324.2,67.2c0,2.8,1.8,5.8,4.6,7l-1.1,1.6c-2.1-0.9-3.6-2.8-4.5-5c-0.8,2.4-2.4,4.4-4.5,5.3l-1.1-1.6
							c2.8-1.3,4.6-4.3,4.6-7.3v-1h-4v-1.7h4v-2.7h2.1v2.7h3.9v1.7h-3.9V67.2z M332.3,61.5v18.1h-2.1V61.5H332.3z"/>
						<path class="st3" d="M345.4,71.4c-1.9-0.7-3.3-2.1-4.1-3.8c-0.8,2-2.3,3.6-4.5,4.4l-1.1-1.7c2.9-1,4.5-3.4,4.5-6.1v-1.8h2.1
							v1.7c0,2.5,1.5,4.8,4.2,5.7L345.4,71.4z M350.9,76.1c0,2.2-2.3,3.5-6.1,3.5c-3.8,0-6.1-1.3-6.1-3.5c0-2.2,2.3-3.5,6.1-3.5
							C348.5,72.6,350.9,73.9,350.9,76.1z M348.8,76.1c0-1.2-1.5-1.8-4-1.8s-4,0.7-4,1.8c0,1.2,1.5,1.8,4,1.8S348.8,77.3,348.8,76.1
							z M348.7,66.8h-3.7v-1.7h3.7v-3.6h2.1v10.7h-2.1V66.8z"/>
						<path class="st3" d="M368.2,70.1h-8.6v-7.5h8.6V70.1z M368.8,74.5c0.2,1.5,2.5,3.1,5.8,3.5l-0.7,1.6c-2.9-0.3-5.1-1.5-6.2-3.1
							c-1.1,1.6-3.4,2.7-6.3,3.1l-0.7-1.6c3.4-0.3,5.7-1.9,5.9-3.5h-5.2v-1.6h5.2v-1.6h2.1v1.6h5.2v1.6H368.8z M366.2,64.2h-4.5v4.2
							h4.5V64.2z M373.6,71.8h-2.1V61.5h2.1V71.8z"/>
						<path class="st3" d="M390.7,71.6h-8.5V63h8.5V71.6z M388.7,64.7h-4.4v5.2h4.4V64.7z M386.4,77.5h10.1v1.7h-12.2v-5.8h2.1V77.5
							z M398.3,66.8v1.7h-2.6v6.2h-2.1V61.5h2.1v5.4H398.3z"/>
						<path class="st3" d="M409.6,71.4c-1.9-0.7-3.3-2.1-4.1-3.8c-0.8,2-2.3,3.6-4.5,4.4l-1.1-1.7c2.9-1,4.5-3.4,4.5-6.1v-1.8h2.1
							v1.7c0,2.5,1.5,4.8,4.2,5.7L409.6,71.4z M415.1,76.1c0,2.2-2.3,3.5-6.1,3.5c-3.8,0-6.1-1.3-6.1-3.5c0-2.2,2.3-3.5,6.1-3.5
							C412.7,72.6,415.1,73.9,415.1,76.1z M413,76.1c0-1.2-1.5-1.8-4-1.8s-4,0.7-4,1.8c0,1.2,1.5,1.8,4,1.8S413,77.3,413,76.1z
							 M412.9,66.8h-3.7v-1.7h3.7v-3.6h2.1v10.7h-2.1V66.8z"/>
						<path class="st3" d="M433.1,70.5c-2.1-0.6-3.7-1.9-4.5-3.6c-0.8,1.8-2.4,3.3-4.6,4l-1-1.6c2.8-0.8,4.4-3,4.5-5.2h-3.9v-1.7
							h9.9v1.7h-3.9c0.1,2.1,1.7,4.1,4.4,4.9L433.1,70.5z M438.3,77.8v1.6H426v-4.7h9.8v-1.5H426v-1.6h11.8v4.6H428v1.6H438.3z
							 M437.8,70.8h-2.1v-9.3h2.1V70.8z"/>
						<path class="st3" d="M452.6,72.9c-3.8,0.7-8.1,0.8-11.2,0.8l-0.2-1.6c1.3,0,2.9,0,4.6-0.1v-1.2c-2-0.2-3.3-1.2-3.3-2.7
							c0-1.7,1.7-2.8,4.3-2.8s4.3,1.1,4.3,2.8c0,1.5-1.2,2.5-3.2,2.7v1.1c1.6-0.1,3.1-0.2,4.6-0.4L452.6,72.9z M451.9,64.6h-10.3
							v-1.5h4.1v-1.7h2.1v1.7h4.1V64.6z M445.8,77.5h10.2v1.7h-12.3v-4.5h2.1V77.5z M446.8,69.4c1.4,0,2.4-0.5,2.4-1.3
							c0-0.9-0.9-1.4-2.4-1.4s-2.4,0.5-2.4,1.4C444.4,68.9,445.3,69.4,446.8,69.4z M457.9,67.6v1.7h-2.5v6.3h-2.1V61.5h2.1v6.1
							H457.9z"/>
						<path class="st3" d="M471,67.2c0,2.8,1.8,5.8,4.6,7l-1.1,1.6c-2.1-0.9-3.6-2.8-4.5-5c-0.8,2.4-2.4,4.4-4.5,5.3l-1.1-1.6
							c2.8-1.3,4.6-4.3,4.6-7.3v-1h-4v-1.7h4v-2.7h2.1v2.7h3.9v1.7H471V67.2z M479.1,61.5v18.1H477V61.5H479.1z"/>
						<path class="st3" d="M499,75.7v1.7h-16.4v-1.7h4.4v-3.1h-2.4v-5.8H495v-2.4h-10.4v-1.7H497v5.7h-10.4v2.5h10.8v1.7h-2.7v3.1
							H499z M489,75.7h3.7v-3.1H489V75.7z"/>
						<path class="st3" d="M517.3,70.3v1.6H501v-1.6h3.9v-2.4c-1.4-0.6-2.1-1.5-2.1-2.7c0-2.1,2.5-3.4,6.4-3.4
							c3.9,0,6.4,1.3,6.4,3.4c0,1.2-0.8,2.1-2.2,2.7v2.4H517.3z M515.4,76.3c0,2.1-2.3,3.2-6.2,3.2c-3.9,0-6.2-1.2-6.2-3.2
							c0-2.1,2.3-3.2,6.2-3.2C513,73.1,515.4,74.2,515.4,76.3z M504.9,65.2c0,1.2,1.6,1.8,4.3,1.8c2.7,0,4.3-0.7,4.3-1.8
							c0-1.2-1.6-1.8-4.3-1.8C506.5,63.4,504.9,64,504.9,65.2z M513.3,76.3c0-1.1-1.5-1.7-4.1-1.7s-4.1,0.6-4.1,1.7
							c0,1.1,1.5,1.7,4.1,1.7S513.3,77.4,513.3,76.3z M506.9,70.3h4.4v-1.8c-0.7,0.1-1.4,0.2-2.2,0.2c-0.8,0-1.6-0.1-2.2-0.2V70.3z"
							/>
						<path class="st3" d="M533.7,72.6c-2-0.6-3.6-2-4.4-3.7c-0.8,1.8-2.3,3.3-4.4,4l-1-1.6c2.8-0.9,4.3-3.1,4.3-5.5v-0.3h-3.8v-1.7
							h3.8v-2.2h2.1v2.2h3.8v1.7h-3.8v0.3c0,2.2,1.6,4.3,4.4,5.2L533.7,72.6z M539.3,77.5v1.7h-12.2v-5.4h2.1v3.8H539.3z
							 M536.8,66.9v-5.4h2.1v13.4h-2.1v-6.3h-3.3v-1.7H536.8z"/>
						<path class="st3" d="M550.9,70.2c-0.8,1-2.1,1.6-3.6,1.6c-2.7,0-4.7-1.9-4.7-4.6s2-4.6,4.7-4.6c1.5,0,2.8,0.6,3.6,1.6h4.3
							v-2.7h2.1v13.3h-2.1v-4.6H550.9z M547.3,70c1.5,0,2.7-1.1,2.7-2.8c0-1.6-1.2-2.8-2.7-2.8c-1.6,0-2.8,1.1-2.8,2.8
							C544.5,68.9,545.7,70,547.3,70z M557.7,77.5v1.7h-12.2v-5.8h2.1v4.1H557.7z M551.8,65.8c0.1,0.4,0.2,0.9,0.2,1.3
							s-0.1,0.9-0.2,1.3h3.5v-2.7H551.8z"/>
						<path class="st3" d="M569.9,70.5V72h5.1v4.3h-10.3v1.5h10.8v1.6h-12.8v-4.5H573v-1.3h-10.3V72h5.2v-1.5h-7.1v-1.6h16.4v1.6
							H569.9z M574.9,67.6h-12.2V62h12.2V67.6z M572.9,63.6h-8.1V66h8.1V63.6z"/>
						<path class="st3" d="M600,73.4h-4.1v6.2h-2.1v-6.2h-4.1v6.2h-2.1v-6.2h-4v-1.7H600L600,73.4z M585.3,66.1c0-2.4,2.6-4,6.4-4
							c3.8,0,6.4,1.6,6.4,4c0,2.4-2.6,4-6.4,4C587.9,70.1,585.3,68.6,585.3,66.1z M587.5,66.1c0,1.5,1.7,2.3,4.3,2.3
							c2.6,0,4.3-0.9,4.3-2.3c0-1.4-1.7-2.3-4.3-2.3C589.2,63.8,587.5,64.7,587.5,66.1z"/>
						<path class="st3" d="M604.6,73.7c1.9,0,3.6-0.1,5.7-0.5l0.2,1.7c-2.4,0.4-4.4,0.5-6.6,0.5h-1.2v-7h4.8V65h-4.8v-1.7h6.8V70
							h-4.8V73.7z M617.4,61.5v18h-2v-9.4h-2.1v8.5h-1.9V61.8h1.9v6.6h2.1v-7H617.4z"/>
						<path class="st3" d="M634.8,71.9c-2.1-0.8-3.5-2.2-4.3-4.1c-0.8,2-2.3,3.7-4.4,4.5l-1.1-1.7c2.8-1,4.4-3.6,4.4-6.3v-1.8h2.1
							v1.8c0,2.6,1.6,5,4.4,5.9L634.8,71.9z M640.3,77.5v1.7H628v-5.7h2.1v4.1H640.3z M639.8,74.7h-2.1V61.5h2.1V74.7z"/>
						<path class="st3" d="M648.3,71.2c-2.7,0-4.8-1.8-4.8-4.3s2.1-4.3,4.8-4.3c2.8,0,4.8,1.8,4.8,4.3S651.1,71.2,648.3,71.2z
							 M645.5,73h11.9v6.6h-2.1v-4.9h-9.8V73z M648.3,69.5c1.6,0,2.8-1,2.8-2.6s-1.2-2.6-2.8-2.6c-1.6,0-2.8,1-2.8,2.6
							S646.7,69.5,648.3,69.5z M657.4,65.8v2.2h2.5v1.7h-2.5v2.5h-2.1V61.5h2.1v2.6h2.5v1.7H657.4z"/>
						<path class="st3" d="M674,63.8c0,4.8-1.6,9.1-6.7,12l-1.2-1.5c3.9-2.3,5.5-5.2,5.8-8.9h-5.1v-1.7H674z M681.6,61.5v18.1h-2
							v-9.3h-2.1v8.5h-1.9V62h1.9v6.6h2.1v-7.1H681.6z"/>
						<path class="st3" d="M693.8,70.1h-8.5v-7.9h2.1v2.4h4.4v-2.4h2V70.1z M689.1,77.8h10.2v1.6h-12.2v-4.7h9.6v-1.5h-9.6v-1.6
							h11.7v4.6h-9.6V77.8z M691.7,66.2h-4.4v2.3h4.4V66.2z M701.3,65.2v1.7h-2.5v3.9h-2.1v-9.3h2.1v3.7H701.3z"/>
					</g>
					<g class="st2">
						<path d="M126.8,153.3h4.6v1.3h-4.6V153.3z"/>
						<path d="M139.7,154.9c2.4,0,4.9-0.2,7.6-0.8l0.2,1.3c-2.8,0.6-5.3,0.8-7.9,0.8h-1.3v-10.4h1.5V154.9z M150.5,144.2v16.1H149
							v-16.1H150.5z"/>
						<path d="M159.7,149.4c0,2.7,1.8,5.3,4.2,6.4l-0.8,1.2c-1.9-0.8-3.4-2.6-4.1-4.7c-0.7,2.3-2.3,4.1-4.1,5l-0.8-1.1
							c2.4-1.1,4.2-3.9,4.2-6.7v-1.2h-3.7V147h3.7v-2.5h1.5v2.5h3.7v1.2h-3.7V149.4z M167,144.2v16.2h-1.5v-16.2H167z"/>
						<path d="M171,145.8h7.4v10.4H171V145.8z M172.4,155h4.5v-8h-4.5V155z M185.4,151.9h-2.7v8.5h-1.5v-16.1h1.5v6.4h2.7V151.9z"/>
						<path d="M193.1,150.1c-1,1.9-2.7,3.4-5.3,4.6l-0.7-1.1c2.3-1,3.9-2.3,4.7-3.9l-4.5,0.5l-0.2-1.2l5.2-0.3
							c0.2-0.6,0.3-1.2,0.4-1.9h-4.8v-1.2h6.3c0,1.2-0.2,2.3-0.5,3.4h2.4v-4.4h1.4v9.2H196v-3.6H193.1z M195.9,154.7
							c0,2.2,2.7,3.9,5.5,4.4l-0.6,1.2c-2.4-0.4-4.7-1.7-5.7-3.5c-1,1.8-3.2,3.1-5.7,3.5l-0.6-1.2c2.8-0.5,5.5-2.2,5.5-4.4v-0.5h1.5
							V154.7z M200.6,155.1h-1.4v-10.9h1.4V155.1z"/>
						<path d="M213.3,149.1c0,2.7,1.9,5.5,4.3,6.5l-0.8,1.2c-1.9-0.9-3.5-2.7-4.2-4.9c-0.7,2.4-2.3,4.4-4.2,5.3l-0.9-1.2
							c2.3-1.1,4.3-4.1,4.3-6.9v-2.1H208v-1.2h9v1.2h-3.8V149.1z M220.7,144.2v16.1h-1.5v-16.1H220.7z"/>
						<path d="M233.6,147.2h-9.5V146h4v-2h1.5v2h4V147.2z M228.9,153.7c-2.3,0-3.9-1.1-3.9-2.9c0-1.7,1.5-2.8,3.9-2.8
							s3.9,1.1,3.9,2.8C232.7,152.6,231.2,153.7,228.9,153.7z M236.8,157.5c0,1.8-2,2.8-5.3,2.8c-3.3,0-5.3-1-5.3-2.8
							c0-1.8,2-2.8,5.3-2.8C234.8,154.7,236.8,155.7,236.8,157.5z M228.9,152.6c1.5,0,2.5-0.7,2.5-1.7s-1-1.7-2.5-1.7
							s-2.4,0.7-2.4,1.7S227.4,152.6,228.9,152.6z M235.3,157.5c0-1-1.4-1.7-3.8-1.7c-2.4,0-3.8,0.6-3.8,1.7c0,1,1.4,1.7,3.8,1.7
							C233.9,159.2,235.3,158.6,235.3,157.5z M236.6,148.2v2.2h2.4v1.2h-2.4v2.9h-1.5v-10.4h1.5v2.8h2.4v1.2H236.6z"/>
						<path d="M240.6,161.4c1.1-0.5,1.8-1.4,1.8-2.4c-0.1,0-0.1,0-0.2,0c-0.6,0-1.2-0.4-1.2-1.2c0-0.7,0.6-1.2,1.2-1.2
							c0.9,0,1.4,0.7,1.4,1.9c0,1.7-1,3.1-2.6,3.8L240.6,161.4z"/>
						<path d="M264.3,154.7h-6.6v5.7h-1.5v-5.7h-6.5v-1.2h14.6V154.7z M251.3,148.4c0-2.2,2.3-3.5,5.6-3.5c3.4,0,5.7,1.4,5.7,3.5
							c0,2.2-2.3,3.5-5.7,3.5C253.6,151.9,251.3,150.5,251.3,148.4z M252.8,148.4c0,1.4,1.7,2.4,4.1,2.4c2.5,0,4.1-0.9,4.1-2.4
							c0-1.4-1.7-2.3-4.1-2.3C254.5,146,252.8,146.9,252.8,148.4z"/>
						<path d="M268.6,155.2c2.6,0,5-0.1,7.9-0.6l0.1,1.2c-2.9,0.5-5.4,0.6-8.1,0.6h-1.3v-6.2h5.9v-3.4h-6v-1.2h7.5v5.8h-6V155.2z
							 M279.5,144.2v16.2H278v-16.2H279.5z"/>
						<path d="M284.9,155c2.3,0,4.7-0.2,7.3-0.7l0.2,1.2c-2.8,0.6-5.2,0.7-7.7,0.7h-1.3v-10.5h1.5V155z M297.8,151.9h-2.6v8.5h-1.5
							v-16.2h1.5v6.4h2.6V151.9z"/>
						<path d="M301.4,155.2c2.9,0,5-0.1,7.4-0.6l0.2,1.2c-2.5,0.5-4.7,0.6-7.8,0.6H300v-6.2h5.8v-3.4H300v-1.2h7.3v5.8h-5.8V155.2z
							 M314.4,151.8h-2.6v8.5h-1.5v-16.2h1.5v6.4h2.6V151.8z"/>
						<path d="M316,155.6c2.9,0,7,0,10.5-0.6l0.1,1.1c-3.6,0.7-7.5,0.7-10.5,0.7L316,155.6z M325.5,149.2c0,2.3-1.8,3.8-4.3,3.8
							c-2.5,0-4.3-1.5-4.3-3.8c0-2.3,1.8-3.8,4.3-3.8C323.7,145.4,325.5,146.9,325.5,149.2z M318.3,149.2c0,1.5,1.2,2.5,2.9,2.5
							s2.9-1,2.9-2.5c0-1.5-1.2-2.5-2.9-2.5S318.3,147.7,318.3,149.2z M329.1,144.2v16.2h-1.5v-16.2H329.1z"/>
						<path d="M341.1,152.8c-1.6,0.1-3.2,0.1-4.5,0.1l-0.2-1.2c3,0,7,0,10.4-0.5l0.1,1.1c-1.4,0.2-2.9,0.4-4.4,0.5v3.2h-1.5V152.8z
							 M337.7,147.6c0-1.7,1.6-2.8,4-2.8c2.4,0,4,1.1,4,2.8c0,1.7-1.6,2.8-4,2.8C339.3,150.5,337.7,149.4,337.7,147.6z M350.1,158.8
							v1.2h-11.4v-4.7h1.5v3.5H350.1z M339.1,147.6c0,1,1,1.7,2.6,1.7s2.6-0.7,2.6-1.7c0-1-1-1.7-2.6-1.7S339.1,146.6,339.1,147.6z
							 M348.2,153.7v-9.5h1.5v12.3h-1.5v-1.7H345v-1.1H348.2z"/>
						<path d="M361.9,154c-1.9-0.6-3.3-1.9-4-3.5c-0.7,1.8-2.1,3.2-4,3.8l-0.7-1.2c2.4-0.8,4-2.8,4-5.1v-0.5h-3.6v-1.2h3.6v-2.1h1.5
							v2.1h3.6v1.2h-3.6v0.5c0,2.1,1.6,4,4,4.8L361.9,154z M366.8,158.8v1.2H356v-4.8h1.5v3.6H366.8z M364.9,149.2v-5h1.5v12h-1.5
							v-5.9h-3.3v-1.2H364.9z"/>
						<path d="M378.1,145.9c0,4.7-2.1,8.8-7.5,11.4l-0.8-1.2c4.3-2.1,6.5-5.2,6.8-9h-6.1v-1.2H378.1z M382.9,144.2v16.2h-1.5v-16.2
							H382.9z"/>
						<path d="M394.2,152.1v1.6h4.7v3.7h-9.5v1.6h10v1.2H388v-3.8h9.5v-1.5h-9.5v-1.1h4.8v-1.6h-6.6v-1.2h14.6v1.2H394.2z
							 M399.5,149.9c-2.6-0.3-5-1.5-6-3.2c-1,1.7-3.4,2.9-6,3.2l-0.5-1.1c2.9-0.3,5.8-1.9,5.8-3.9v-0.6h1.5v0.6c0,2,2.8,3.5,5.7,3.9
							L399.5,149.9z"/>
						<path d="M417.4,157.1v1.2h-14.7v-1.2h6.6v-3h-4.7v-5h9.6v-2.5h-9.6v-1.2h11.1v4.9H406v2.6h9.9v1.2h-5.2v3H417.4z"/>
						<path d="M424.9,148.5c0,2.9,1.8,5.9,4.2,7l-0.9,1.2c-1.8-0.9-3.3-2.8-4.1-5.1c-0.7,2.4-2.2,4.4-4,5.4l-0.9-1.2
							c2.3-1.2,4.2-4.3,4.2-7.3v-2.9h1.5V148.5z M432.6,144.2v16.2h-1.5v-9.5h-3.7v-1.2h3.7v-5.5H432.6z"/>
						<path d="M454.5,150.2v1.2h-14.7v-1.2h10.9c0.4-1.8,0.4-3.1,0.4-4.1h-9.4v-1.2h10.9v1c0,1.1,0,2.5-0.4,4.3H454.5z M443.1,159
							h10v1.2h-11.4V156h9.6v-1.8h-9.6V153h11.1v4.1h-9.6V159z"/>
						<path d="M471.1,157.1v1.2h-14.7v-1.2h6.6v-3h-4.7v-5h9.6v-2.5h-9.6v-1.2h11.1v4.9h-9.6v2.6h9.9v1.2h-5.2v3H471.1z"/>
						<path d="M481.1,151.9h-7.3v-7h1.5v2.3h4.4v-2.3h1.5v2.9h3.7v-3.6h1.5v8.4h-1.5V149h-3.7V151.9z M479.6,148.4h-4.4v2.4h4.4
							V148.4z M486.9,158.9v1.2h-11v-4h8.9v-1.6h-8.9v-1.2h10.4v3.8h-8.9v1.7H486.9z"/>
						<path d="M501.4,148.4c-1,2.6-3.5,4.5-7,5.5l-0.6-1.2c3.9-1.2,6.2-3.3,6.5-6.1h-5.7v-1.2h7.3c0,0.6-0.1,1.2-0.2,1.7h3.7v-3h1.5
							v9.7h-1.5v-2.1h-4.2v-1.2h4.2v-2.2H501.4z M507,157.1c0,1.9-2.1,3.1-5.3,3.1c-3.3,0-5.3-1.2-5.3-3.1s2.1-3.1,5.3-3.1
							C504.9,154,507,155.2,507,157.1z M505.5,157.1c0-1.2-1.5-1.9-3.9-1.9c-2.4,0-3.9,0.7-3.9,1.9c0,1.2,1.5,2,3.9,2
							C504,159.1,505.5,158.4,505.5,157.1z"/>
						<path d="M517.3,153.1c-1.5-0.6-2.5-1.7-3.1-3.1c-0.6,1.6-1.7,2.9-3.2,3.5l-0.8-1.1c2.1-0.9,3.3-2.9,3.3-5v-0.7h-3v-1.2h7.2
							v1.2h-2.8v0.7c0,2,1.1,3.7,3.1,4.5L517.3,153.1z M523.9,157.4c0,1.9-2.1,2.9-5.4,2.9c-3.3,0-5.4-1.1-5.4-2.9s2.1-2.9,5.4-2.9
							C521.8,154.5,523.9,155.5,523.9,157.4z M522.4,157.4c0-1.1-1.5-1.8-3.9-1.8c-2.4,0-3.9,0.6-3.9,1.8c0,1.1,1.5,1.8,3.9,1.8
							C520.9,159.2,522.4,158.5,522.4,157.4z M520.3,153.5h-1.4v-9h1.4v4h2v-4.3h1.4v9.9h-1.4v-4.4h-2V153.5z"/>
						<path d="M535.4,153c-2,0.3-3.6,0.4-6.8,0.4h-1.2v-4.8h5.5v-2.2h-5.5v-1.2h7v4.6h-5.5v2.4c3,0,4.5-0.1,6.4-0.4L535.4,153z
							 M529.2,155H540v5.4h-1.5v-4.2h-9.3V155z M540,144.2v9.9h-1.5v-3h-3.2v-1.2h3.2v-2.2h-3.2v-1.2h3.2v-2.4H540z"/>
						<path d="M557.5,153.9c-3.5,0.6-7.3,0.6-10.1,0.6l-0.2-1.2c1.3,0,2.8,0,4.3-0.1v-1.2c-1.9-0.2-3-1-3-2.4c0-1.5,1.5-2.4,3.8-2.4
							c2.3,0,3.8,0.9,3.8,2.4c0,1.3-1.2,2.2-3,2.4v1.1c1.5-0.1,3-0.2,4.4-0.4L557.5,153.9z M556.9,146.8h-9.3v-1.1h3.9v-1.6h1.5v1.6
							h3.9V146.8z M549.2,155.8h10.6v4.5h-1.5V157h-9.1V155.8z M552.3,151.1c1.4,0,2.4-0.5,2.4-1.4c0-0.8-0.9-1.4-2.4-1.4
							c-1.5,0-2.4,0.5-2.4,1.4C549.9,150.6,550.8,151.1,552.3,151.1z M562.2,150.3h-2.4v4.7h-1.5v-10.8h1.5v4.9h2.4V150.3z"/>
						<path d="M578.5,157.1v1.2h-14.6v-1.2h6.6v-3.5h-4.8v-8.2h1.5v2.9h8.2v-2.9h1.4v8.2h-4.8v3.5H578.5z M567.1,152.4h8.2v-3h-8.2
							V152.4z"/>
						<path d="M592.7,145.9c0,4.6-2.1,8.8-7.3,11.4l-0.8-1.2c4.1-2.1,6.3-5.2,6.7-9h-5.9v-1.2H592.7z M599.5,152h-2.6v8.4h-1.5
							v-16.2h1.5v6.6h2.6V152z"/>
						<path d="M615.6,151.7v1.2H601v-1.2H615.6z M613.8,157.3c0,1.9-2.1,2.9-5.5,2.9c-3.4,0-5.5-1.1-5.5-2.9c0-1.9,2.1-3,5.5-3
							C611.8,154.4,613.8,155.5,613.8,157.3z M614,149.9h-11v-5.3h1.5v4.2h9.5V149.9z M612.3,157.3c0-1.2-1.5-1.8-4-1.8
							c-2.5,0-4,0.6-4,1.8c0,1.1,1.5,1.8,4,1.8C610.8,159.1,612.3,158.5,612.3,157.3z"/>
						<path d="M627.2,147.4h-9.5v-1.2h4v-2h1.5v2h4V147.4z M622.4,154.2c-2.3,0-3.9-1.2-3.9-3c0-1.8,1.6-3,3.9-3s3.9,1.2,3.9,3
							C626.3,153.1,624.7,154.2,622.4,154.2z M622.4,153.1c1.5,0,2.5-0.7,2.5-1.9c0-1.1-1-1.8-2.5-1.8c-1.5,0-2.4,0.7-2.4,1.8
							C619.9,152.4,620.9,153.1,622.4,153.1z M621.5,158.8h9.3v1.2h-10.8v-4.6h1.5V158.8z M632.5,149.5v1.2h-2.4v5.5h-1.5v-12.1h1.5
							v5.3H632.5z"/>
						<path d="M646.3,147.2h-8.2v-1.2h3.4v-1.8h1.5v1.8h3.4V147.2z M642.2,153.8c-2,0-3.5-1.1-3.5-2.8c0-1.7,1.4-2.8,3.5-2.8
							c2,0,3.4,1.1,3.4,2.8C645.6,152.6,644.2,153.8,642.2,153.8z M642.2,152.7c1.3,0,2.1-0.7,2.1-1.7c0-1-0.9-1.7-2.1-1.7
							c-1.3,0-2.1,0.7-2.1,1.7C640.1,152,640.9,152.7,642.2,152.7z M640.9,155.2h10.9v5.1h-1.5v-4h-9.4V155.2z M651.8,144.2v10h-1.4
							v-4.3h-2v4.2H647v-9.7h1.4v4.2h2v-4.5H651.8z"/>
						<path d="M663.8,152.7c-1.9-0.6-3.3-2-4.1-3.8c-0.7,1.9-2.2,3.4-4.1,4.1l-0.8-1.2c2.4-0.9,4.1-3,4.1-5.4v-1.6h1.5v1.6
							c0,2.3,1.7,4.3,4.1,5.1L663.8,152.7z M657.5,154.3H668v5.8h-10.4V154.3z M659,158.9h7.6v-3.5H659V158.9z M668,144.2v9.2h-1.5
							v-9.2H668z"/>
						<path d="M679.8,145.9c0,4.7-2.1,8.8-7.5,11.4l-0.8-1.2c4.3-2.1,6.5-5.2,6.8-9h-6.1v-1.2H679.8z M684.5,144.2v16.2h-1.5v-16.2
							H684.5z"/>
						<path d="M695.9,152.1v1.6h4.7v3.7h-9.5v1.6h10v1.2h-11.4v-3.8h9.5v-1.5h-9.5v-1.1h4.8v-1.6h-6.6v-1.2h14.6v1.2H695.9z
							 M701.2,149.9c-2.6-0.3-5-1.5-6-3.2c-1,1.7-3.4,2.9-6,3.2l-0.5-1.1c2.9-0.3,5.8-1.9,5.8-3.9v-0.6h1.5v0.6c0,2,2.8,3.5,5.7,3.9
							L701.2,149.9z"/>
						<path d="M723.1,153.4h-6.6v7H715v-7h-6.5v-1.2h10.7c0.5-2.3,0.5-4,0.5-5.5v-0.2h-9.4v-1.2h10.8v1.4c0,1.5,0,3.2-0.5,5.5h2.4
							V153.4z"/>
						<path d="M733.1,153.5v1.9h4.8v4.9h-1.5v-3.8h-9.7v-1.2h5v-1.9H725v-1.2h14.6v1.2H733.1z M725.9,150.3c3-0.3,5.5-1.5,5.6-3.3
							h-5v-1.2h5.1v-1.7h1.5v1.7h5.1v1.2h-5c0.1,1.8,2.6,3,5.6,3.3l-0.5,1.1c-2.6-0.3-5-1.2-6-2.9c-1,1.6-3.3,2.6-6,2.9L725.9,150.3
							z"/>
					</g>
					<text transform="matrix(1 0 0 1 740.6086 159)" class="st4 st5"> </text>
					<g class="st2">
						<path d="M126.8,188.3h4.6v1.3h-4.6V188.3z"/>
						<path d="M139.5,180.2v2.5h4.6v-2.5h1.5v7.6h-7.6v-7.6H139.5z M139.5,186.6h4.6v-2.8h-4.6V186.6z M150.5,189.8v5.5H149V191
							h-9.3v-1.2H150.5z M150.5,179.2v9.8H149v-9.8H150.5z"/>
						<path d="M155.8,190.2c2.3,0,3.7-0.1,5.4-0.5l0.1,1.2c-1.8,0.4-3.4,0.5-6,0.5h-1v-10.3h6.1v1.2h-4.6V190.2z M162.8,179.6h1.4
							v14.9h-1.4v-8h-3.5v-1.2h3.5V179.6z M167.5,179.2v16.2h-1.4v-16.2H167.5z"/>
						<path d="M179.2,186.1c0,3.4-1.7,5.6-4.1,5.6c-2.4,0-4.1-2.2-4.1-5.6c0-3.4,1.7-5.6,4.1-5.6
							C177.4,180.4,179.2,182.6,179.2,186.1z M172.4,186.1c0,2.6,1.1,4.3,2.7,4.3c1.6,0,2.7-1.7,2.7-4.3c0-2.6-1.1-4.3-2.7-4.3
							C173.5,181.8,172.4,183.4,172.4,186.1z M183.6,179.2v16.2h-1.5v-16.2H183.6z"/>
						<path d="M189.1,190.3c2.9,0,4.8-0.1,7-0.5l0.2,1.2c-2.3,0.4-4.3,0.5-7.4,0.5h-1.2v-10.8h7.5v1.2h-6v3.3h5.3v1.2h-5.3V190.3z
							 M200.2,179.2v16.2h-1.5v-8.9h-3.3v-1.2h3.3v-6.1H200.2z"/>
						<path d="M218.1,186.7v1.1h-14.6v-1.1H218.1z M206.7,194.1h10.1v1.1h-11.5v-3.6h9.6v-1.4h-9.6v-1.1h11.1v3.4h-9.6V194.1z
							 M214.8,180.7h-9.5v-1h10.9v3.4h-9.4v1.4h9.7v1.1h-11.2V182h9.4V180.7z"/>
						<path d="M234.2,187.7c-3.4,0.6-7.3,0.6-10.1,0.6l-0.2-1.1c1.3,0,2.8,0,4.3-0.1v-1c-1.9-0.1-3-0.9-3-2.1c0-1.3,1.5-2.1,3.8-2.1
							c2.3,0,3.8,0.8,3.8,2.1c0,1.2-1.2,1.9-3,2.1v0.9c1.5-0.1,3-0.2,4.4-0.4L234.2,187.7z M233.7,181.5h-9.3v-1.1h3.9V179h1.5v1.4
							h3.9V181.5z M227.6,194.1h9.6v1.1h-11v-3.4h8.9v-1.3h-9v-1h10.5v3.3h-9V194.1z M229,185.3c1.4,0,2.4-0.5,2.4-1.2
							c0-0.7-0.9-1.2-2.4-1.2c-1.5,0-2.4,0.4-2.4,1.2C226.7,184.8,227.6,185.3,229,185.3z M239,183.3v1.2h-2.4v4.2h-1.5v-9.5h1.5
							v4.1H239z"/>
						<path d="M255.2,187.2v1.2h-14.6v-1.2h3.6v-2.3c-1.3-0.5-2-1.3-2-2.4c0-1.9,2.2-3,5.7-3c3.5,0,5.7,1.1,5.7,3
							c0,1.1-0.7,1.9-2,2.4v2.3H255.2z M253.4,192.5c0,1.9-2.1,2.9-5.5,2.9c-3.5,0-5.5-1-5.5-2.9s2.1-2.9,5.5-2.9
							C251.4,189.6,253.4,190.6,253.4,192.5z M247.9,184.3c2.6,0,4.2-0.7,4.2-1.9c0-1.2-1.6-1.9-4.2-1.9s-4.2,0.7-4.2,1.9
							C243.8,183.6,245.3,184.3,247.9,184.3z M251.9,192.5c0-1.1-1.5-1.7-4-1.7c-2.5,0-4,0.6-4,1.7c0,1.1,1.5,1.7,4,1.7
							C250.4,194.2,251.9,193.5,251.9,192.5z M245.7,187.2h4.5v-1.9c-0.7,0.1-1.4,0.2-2.3,0.2c-0.8,0-1.6-0.1-2.2-0.2V187.2z"/>
						<path d="M262.6,181.8h4v1.2h-9.5v-1.2h4.1v-2.4h1.5V181.8z M265.9,188c0,2.2-1.6,3.7-3.9,3.7c-2.3,0-3.9-1.5-3.9-3.7
							c0-2.2,1.6-3.7,3.9-3.7C264.2,184.3,265.9,185.8,265.9,188z M264.5,188c0-1.5-1.1-2.5-2.5-2.5c-1.5,0-2.5,1-2.5,2.5
							c0,1.4,1.1,2.5,2.5,2.5C263.4,190.5,264.5,189.5,264.5,188z M272.3,187.1h-2.6v8.3h-1.5v-16.1h1.5v6.6h2.6V187.1z"/>
						<path d="M287,179.2v16.2h-1.5v-6.3h-4c-0.7,1.6-1.9,2.6-3.5,2.6c-2.4,0-4-2.2-4-5.6c0-3.4,1.7-5.6,4-5.6
							c1.5,0,2.7,0.9,3.4,2.4h4.1v-3.6H287z M280.7,186.1c0-2.6-1.1-4.3-2.6-4.3c-1.5,0-2.6,1.7-2.6,4.3c0,2.6,1.1,4.3,2.6,4.3
							C279.6,190.4,280.7,188.7,280.7,186.1z M285.6,187.9V184h-3.7c0.1,0.6,0.2,1.3,0.2,2.1c0,0.7-0.1,1.3-0.2,1.8H285.6z"/>
						<path d="M295.2,180.8h2l2.5,7.1c0.3,0.9,0.6,1.8,0.9,2.8h0.1c0.3-0.9,0.6-1.8,0.9-2.8l2.5-7.1h2V194h-1.6v-7.3
							c0-1.1,0.1-2.7,0.2-3.9h-0.1l-1,3l-2.5,6.9h-1.1l-2.5-6.9l-1-3h-0.1c0.1,1.2,0.2,2.8,0.2,3.9v7.3h-1.5V180.8z"/>
						<path d="M309.5,190.4v-6.2h1.6v6c0,1.8,0.5,2.6,1.8,2.6c1,0,1.7-0.5,2.6-1.7v-6.9h1.6v9.8h-1.4l-0.1-1.5h-0.1
							c-0.9,1.1-1.9,1.8-3.2,1.8C310.4,194.2,309.5,192.9,309.5,190.4z"/>
						<path d="M320.6,192.1v-12.4h1.6v12.5c0,0.5,0.2,0.7,0.5,0.7c0.1,0,0.2,0,0.3,0l0.2,1.3c-0.2,0.1-0.5,0.1-1,0.1
							C321.1,194.2,320.6,193.4,320.6,192.1z"/>
						<path d="M326,191v-5.4h-1.5v-1.2l1.5-0.1l0.2-2.7h1.4v2.7h2.6v1.3h-2.6v5.5c0,1.2,0.4,1.9,1.5,1.9c0.3,0,0.8-0.1,1.1-0.3
							l0.3,1.2c-0.6,0.2-1.2,0.4-1.8,0.4C326.7,194.2,326,192.9,326,191z"/>
						<path d="M332.2,181.1c0-0.7,0.5-1.1,1.1-1.1c0.6,0,1.1,0.4,1.1,1.1c0,0.6-0.5,1.1-1.1,1.1
							C332.7,182.2,332.2,181.8,332.2,181.1z M332.5,184.2h1.6v9.8h-1.6V184.2z"/>
						<path d="M336.6,188.3h4.6v1.3h-4.6V188.3z"/>
						<path d="M343.1,187.4c0-4.3,2.5-6.9,5.9-6.9c1.6,0,2.9,0.8,3.6,1.6l-0.9,1.1c-0.7-0.7-1.6-1.3-2.7-1.3c-2.5,0-4.2,2.1-4.2,5.3
							c0,3.3,1.6,5.4,4.1,5.4c1.3,0,2.2-0.6,3.1-1.5l0.9,1c-1,1.2-2.3,1.9-4.1,1.9C345.5,194.2,343.1,191.7,343.1,187.4z"/>
						<path d="M354.4,189.1c0-3.3,2.1-5.1,4.5-5.1c2.4,0,4.5,1.9,4.5,5.1c0,3.2-2.1,5.1-4.5,5.1
							C356.6,194.2,354.4,192.4,354.4,189.1z M361.8,189.1c0-2.2-1.2-3.8-2.8-3.8c-1.7,0-2.8,1.5-2.8,3.8c0,2.3,1.1,3.7,2.8,3.7
							C360.7,192.9,361.8,191.4,361.8,189.1z"/>
						<path d="M366.1,184.2h1.4l0.1,1.4h0.1c0.8-0.9,1.9-1.7,3-1.7c1.5,0,2.3,0.7,2.7,1.9c1-1.1,2-1.9,3.2-1.9c2,0,3,1.3,3,3.8v6.2
							h-1.6v-6c0-1.8-0.6-2.6-1.8-2.6c-0.8,0-1.5,0.5-2.5,1.5v7.1H372v-6c0-1.8-0.6-2.6-1.8-2.6c-0.7,0-1.6,0.5-2.5,1.5v7.1h-1.6
							V184.2z"/>
						<path d="M382.8,184.2h1.4l0.1,1.1h0.1c0.9-0.7,2-1.4,3.1-1.4c2.5,0,3.9,2,3.9,5c0,3.3-2,5.3-4.2,5.3c-0.9,0-1.8-0.4-2.7-1.1
							l0,1.7v3.3h-1.6V184.2z M389.6,189c0-2.2-0.7-3.6-2.6-3.6c-0.8,0-1.7,0.5-2.6,1.4v5.1c0.9,0.8,1.7,1,2.4,1
							C388.4,192.9,389.6,191.4,389.6,189z"/>
						<path d="M393.2,189.1c0-3.3,2.1-5.1,4.5-5.1c2.4,0,4.5,1.9,4.5,5.1c0,3.2-2.1,5.1-4.5,5.1
							C395.3,194.2,393.2,192.4,393.2,189.1z M400.6,189.1c0-2.2-1.2-3.8-2.8-3.8c-1.7,0-2.8,1.5-2.8,3.8c0,2.3,1.1,3.7,2.8,3.7
							C399.4,192.9,400.6,191.4,400.6,189.1z"/>
						<path d="M404.8,184.2h1.4l0.1,1.4h0.1c0.9-0.9,1.9-1.7,3.3-1.7c2.1,0,3,1.3,3,3.8v6.2H411v-6c0-1.8-0.6-2.6-1.9-2.6
							c-1,0-1.7,0.5-2.7,1.5v7.1h-1.6V184.2z"/>
						<path d="M415.1,189.1c0-3.2,2.1-5.1,4.4-5.1c2.5,0,3.9,1.8,3.9,4.6c0,0.4,0,0.7-0.1,0.9h-6.6c0.1,2.1,1.4,3.4,3.2,3.4
							c1,0,1.7-0.3,2.4-0.8l0.6,1.1c-0.9,0.6-1.9,1-3.2,1C417.2,194.2,415.1,192.3,415.1,189.1z M421.9,188.3c0-2-0.9-3-2.4-3
							c-1.4,0-2.6,1.1-2.8,3H421.9z"/>
						<path d="M425.8,184.2h1.4l0.1,1.4h0.1c0.9-0.9,1.9-1.7,3.3-1.7c2.1,0,3,1.3,3,3.8v6.2H432v-6c0-1.8-0.6-2.6-1.9-2.6
							c-1,0-1.7,0.5-2.7,1.5v7.1h-1.6V184.2z"/>
						<path d="M437.1,191v-5.4h-1.5v-1.2l1.5-0.1l0.2-2.7h1.4v2.7h2.6v1.3h-2.6v5.5c0,1.2,0.4,1.9,1.5,1.9c0.3,0,0.8-0.1,1.1-0.3
							l0.3,1.2c-0.6,0.2-1.2,0.4-1.8,0.4C437.8,194.2,437.1,192.9,437.1,191z"/>
						<path d="M447.7,179.7h1.2l-5.4,17.5h-1.2L447.7,179.7z"/>
						<path d="M451,180.8h2l2.5,7.1c0.3,0.9,0.6,1.8,0.9,2.8h0.1c0.3-0.9,0.6-1.8,0.9-2.8l2.5-7.1h2V194h-1.6v-7.3
							c0-1.1,0.1-2.7,0.2-3.9h-0.1l-1,3l-2.5,6.9h-1.1l-2.5-6.9l-1-3h-0.1c0.1,1.2,0.2,2.8,0.2,3.9v7.3H451V180.8z"/>
						<path d="M465.3,190.4v-6.2h1.6v6c0,1.8,0.5,2.6,1.8,2.6c1,0,1.7-0.5,2.6-1.7v-6.9h1.6v9.8h-1.4l-0.1-1.5h-0.1
							c-0.9,1.1-1.9,1.8-3.2,1.8C466.2,194.2,465.3,192.9,465.3,190.4z"/>
						<path d="M476.4,192.1v-12.4h1.6v12.5c0,0.5,0.2,0.7,0.5,0.7c0.1,0,0.2,0,0.3,0l0.2,1.3c-0.2,0.1-0.5,0.1-1,0.1
							C476.9,194.2,476.4,193.4,476.4,192.1z"/>
						<path d="M481.8,191v-5.4h-1.5v-1.2l1.5-0.1l0.2-2.7h1.4v2.7h2.6v1.3h-2.6v5.5c0,1.2,0.4,1.9,1.5,1.9c0.3,0,0.8-0.1,1.1-0.3
							l0.3,1.2c-0.6,0.2-1.2,0.4-1.8,0.4C482.5,194.2,481.8,192.9,481.8,191z"/>
						<path d="M488,181.1c0-0.7,0.5-1.1,1.1-1.1c0.6,0,1.1,0.4,1.1,1.1c0,0.6-0.5,1.1-1.1,1.1C488.5,182.2,488,181.8,488,181.1z
							 M488.3,184.2h1.6v9.8h-1.6V184.2z"/>
						<path d="M492.4,188.3h4.6v1.3h-4.6V188.3z"/>
						<path d="M501.4,182.2h-4v-1.4h9.7v1.4h-4V194h-1.7V182.2z"/>
						<path d="M507.2,191.5c0-2.1,1.9-3.2,6-3.7c0-1.3-0.4-2.5-2-2.5c-1.1,0-2.2,0.5-2.9,1l-0.6-1.1c0.9-0.6,2.3-1.3,3.9-1.3
							c2.4,0,3.4,1.6,3.4,4v6h-1.3l-0.1-1.2h-0.1c-0.9,0.8-2,1.4-3.2,1.4C508.5,194.2,507.2,193.2,507.2,191.5z M513.2,191.6v-2.7
							c-3.3,0.4-4.4,1.2-4.4,2.5c0,1.1,0.8,1.6,1.7,1.6C511.5,192.9,512.3,192.5,513.2,191.6z"/>
						<path d="M518,184.2h1.4l0.1,1.8h0.1c0.7-1.2,1.7-2,2.8-2c0.4,0,0.7,0.1,1,0.2l-0.3,1.4c-0.3-0.1-0.6-0.2-1-0.2
							c-0.8,0-1.8,0.6-2.5,2.2v6.3H518V184.2z"/>
						<path d="M524,195.9c0-0.8,0.5-1.6,1.5-2.2v-0.1c-0.5-0.3-0.9-0.8-0.9-1.6c0-0.8,0.6-1.5,1.1-1.8v-0.1
							c-0.6-0.5-1.3-1.5-1.3-2.6c0-2.1,1.7-3.5,3.7-3.5c0.5,0,1,0.1,1.4,0.3h3.4v1.3h-2c0.5,0.5,0.8,1.2,0.8,2
							c0,2.1-1.6,3.4-3.6,3.4c-0.5,0-1-0.1-1.5-0.3c-0.4,0.3-0.6,0.6-0.6,1.2c0,0.6,0.4,1.1,1.7,1.1h1.9c2.3,0,3.4,0.7,3.4,2.3
							c0,1.8-1.9,3.4-4.9,3.4C525.7,198.5,524,197.6,524,195.9z M531.4,195.4c0-0.9-0.7-1.2-2-1.2h-1.7c-0.4,0-0.8-0.1-1.3-0.2
							c-0.7,0.5-1,1.1-1,1.7c0,1,1.1,1.7,2.8,1.7C530.2,197.4,531.4,196.4,531.4,195.4z M530.2,187.5c0-1.4-0.9-2.3-2.1-2.3
							s-2.1,0.8-2.1,2.3c0,1.4,1,2.3,2.1,2.3C529.2,189.8,530.2,188.9,530.2,187.5z"/>
						<path d="M533.9,189.1c0-3.2,2.1-5.1,4.4-5.1c2.5,0,3.9,1.8,3.9,4.6c0,0.4,0,0.7-0.1,0.9h-6.6c0.1,2.1,1.4,3.4,3.2,3.4
							c1,0,1.7-0.3,2.4-0.8l0.6,1.1c-0.9,0.6-1.9,1-3.2,1C536,194.2,533.9,192.3,533.9,189.1z M540.8,188.3c0-2-0.9-3-2.4-3
							c-1.4,0-2.6,1.1-2.8,3H540.8z"/>
						<path d="M544.7,191v-5.4h-1.5v-1.2l1.5-0.1l0.2-2.7h1.4v2.7h2.6v1.3h-2.6v5.5c0,1.2,0.4,1.9,1.5,1.9c0.3,0,0.8-0.1,1.1-0.3
							l0.3,1.2c-0.6,0.2-1.2,0.4-1.8,0.4C545.4,194.2,544.7,192.9,544.7,191z"/>
						<path d="M555.2,188.4c0-3.5,1-6.4,2.6-9.1l1,0.5c-1.6,2.6-2.3,5.6-2.3,8.7s0.7,6.1,2.3,8.7l-1,0.5
							C556.2,194.8,555.2,191.9,555.2,188.4z"/>
						<path d="M561.5,180.8h2l2.5,7.1c0.3,0.9,0.6,1.8,0.9,2.8h0.1c0.3-0.9,0.6-1.8,0.9-2.8l2.5-7.1h2V194h-1.6v-7.3
							c0-1.1,0.1-2.7,0.2-3.9h-0.1l-1,3l-2.5,6.9h-1.1l-2.5-6.9l-1-3h-0.1c0.1,1.2,0.2,2.8,0.2,3.9v7.3h-1.5V180.8z"/>
						<path d="M575.3,187.4c0-4.3,2.5-6.9,5.9-6.9c1.6,0,2.9,0.8,3.6,1.6l-0.9,1.1c-0.7-0.7-1.6-1.3-2.7-1.3c-2.5,0-4.2,2.1-4.2,5.3
							c0,3.3,1.6,5.4,4.1,5.4c1.3,0,2.2-0.6,3.1-1.5l0.9,1c-1,1.2-2.3,1.9-4.1,1.9C577.8,194.2,575.3,191.7,575.3,187.4z"/>
						<path d="M591.4,179.7h1.2l-5.4,17.5H586L591.4,179.7z"/>
						<path d="M594.6,180.8h2l2.5,7.1c0.3,0.9,0.6,1.8,0.9,2.8h0.1c0.3-0.9,0.6-1.8,0.9-2.8l2.5-7.1h2V194h-1.6v-7.3
							c0-1.1,0.1-2.7,0.2-3.9h-0.1l-1,3l-2.5,6.9h-1.1l-2.5-6.9l-1-3h-0.1c0.1,1.2,0.2,2.8,0.2,3.9v7.3h-1.5V180.8z"/>
						<path d="M612,182.2h-4v-1.4h9.7v1.4h-4V194H612V182.2z"/>
						<path d="M619,197.1c1.5-2.6,2.3-5.6,2.3-8.7s-0.8-6.1-2.3-8.7l1-0.5c1.7,2.7,2.7,5.6,2.7,9.1c0,3.5-1,6.4-2.7,9.1L619,197.1z"
							/>
						<path d="M625.4,190.6c2.9,0,7,0,10.5-0.6l0.1,1.1c-3.6,0.7-7.5,0.7-10.5,0.7L625.4,190.6z M634.8,184.2c0,2.3-1.8,3.8-4.3,3.8
							c-2.5,0-4.3-1.5-4.3-3.8c0-2.3,1.8-3.8,4.3-3.8C633,180.4,634.8,181.9,634.8,184.2z M627.6,184.2c0,1.5,1.2,2.5,2.9,2.5
							c1.7,0,2.9-1,2.9-2.5c0-1.5-1.2-2.5-2.9-2.5C628.8,181.6,627.6,182.7,627.6,184.2z M638.4,179.2v16.2h-1.5v-16.2H638.4z"/>
						<path d="M654.7,189c-1.9-0.6-3.3-1.9-4-3.5c-0.7,1.8-2.1,3.2-4,3.8l-0.7-1.2c2.4-0.8,4-2.8,4-5.1v-0.5h-3.6v-1.2h3.6v-2.1h1.5
							v2.1h3.6v1.2h-3.6v0.5c0,2.1,1.6,4,4,4.8L654.7,189z M659.6,193.8v1.2h-10.8v-4.8h1.5v3.6H659.6z M657.7,184.2v-5h1.5v12h-1.5
							v-5.9h-3.3v-1.2H657.7z"/>
						<path d="M670.1,186.8c-0.8,1-1.9,1.5-3.3,1.5c-2.4,0-4.2-1.7-4.2-4.1c0-2.4,1.8-4.1,4.2-4.1c1.4,0,2.5,0.6,3.3,1.5h4.1v-2.5
							h1.5v11.9h-1.5v-4.3H670.1z M666.8,187c1.6,0,2.7-1.2,2.7-2.8s-1.2-2.8-2.7-2.8c-1.6,0-2.8,1.2-2.8,2.8S665.2,187,666.8,187z
							 M676.2,193.8v1.2h-10.8v-5.1h1.5v3.9H676.2z M670.8,182.9c0.1,0.4,0.2,0.9,0.2,1.4c0,0.5-0.1,0.9-0.2,1.3h3.5v-2.7H670.8z"/>
						<path d="M687,187.2v1.6h4.7v3.6h-9.5v1.6h10v1.2h-11.4v-3.8h9.5v-1.4h-9.5v-1.1h4.8v-1.6H679V186h14.6v1.2H687z M691.7,184.6
							h-10.8v-4.9h10.8V184.6z M690.2,180.9h-7.9v2.6h7.9V180.9z"/>
						<path d="M714.2,189.6h-3.8v5.7h-1.5v-5.7h-4.1v5.7h-1.5v-5.7h-3.8v-1.2h14.6V189.6z M701.2,183.3c0-2.2,2.3-3.5,5.6-3.5
							c3.4,0,5.7,1.3,5.7,3.5s-2.3,3.5-5.7,3.5C703.5,186.9,701.2,185.5,701.2,183.3z M702.7,183.3c0,1.4,1.7,2.3,4.1,2.3
							c2.5,0,4.1-0.9,4.1-2.3s-1.7-2.3-4.1-2.3C704.4,181,702.7,181.9,702.7,183.3z"/>
						<path d="M718.1,190.2c1.8,0,3.5-0.1,5.6-0.5l0.1,1.2c-2.2,0.4-4.1,0.5-6,0.5h-1.1v-6h4.6v-3.3h-4.6v-1.2h6.1v5.7h-4.6V190.2z
							 M729.8,179.2v16.1h-1.4v-8.6h-2.3v7.7h-1.4v-15h1.4v6h2.3v-6.4H729.8z"/>
						<path d="M751.4,190.9h-6.6v4.5h-1.5v-4.5h-6.6v-1.2h14.6V190.9z M750.5,182.2h-13V181h5.8v-1.9h1.5v1.9h5.7V182.2z M744,183.1
							c3.3,0,5.2,1,5.2,2.7s-2,2.7-5.2,2.7c-3.3,0-5.3-1-5.3-2.7S740.7,183.1,744,183.1z M744,184.3c-2.4,0-3.7,0.6-3.7,1.6
							s1.4,1.6,3.7,1.6c2.4,0,3.7-0.6,3.7-1.6S746.4,184.3,744,184.3z"/>
						<path d="M767.9,192.1v1.2h-14.6v-1.2h6.6v-3.5H755v-8.2h1.5v2.9h8.2v-2.9h1.4v8.2h-4.8v3.5H767.9z M756.5,187.4h8.2v-3h-8.2
							V187.4z"/>
						<path d="M777.9,187.2v1.6h4.7v3.6h-9.5v1.6h10v1.2h-11.4v-3.8h9.5v-1.4h-9.5v-1.1h4.8v-1.6h-6.6V186h14.6v1.2H777.9z
							 M782.5,184.6h-10.8v-4.9h10.8V184.6z M781.1,180.9h-7.9v2.6h7.9V180.9z"/>
						<path d="M795.6,187.2c-1.9-0.6-3.4-1.9-4.1-3.5c-0.7,1.8-2.2,3.2-4.2,3.9l-0.7-1.2c2.4-0.8,4.1-2.8,4.1-5v-0.2H787v-1.2h8.9
							v1.2h-3.7v0.2c0,2.1,1.7,3.9,4.1,4.6L795.6,187.2z M800.2,194v1.2h-11v-4h9v-1.6h-9v-1.2h10.5v3.9h-9v1.8H800.2z M799.6,187.6
							h-1.5v-8.4h1.5V187.6z"/>
						<path d="M821.6,192.1v1.2H807v-1.2h6.6v-4.1h-4.7v-7.5h10.9v1.2h-9.5v5.1h9.6v1.2H815v4.1H821.6z"/>
						<path d="M831.6,187.5v1.5h4.7v3.5h-9.5v1.5h10v1.1h-11.4v-3.7h9.5v-1.4h-9.5V189h4.8v-1.5h-6.5v-1.1h14.6v1.1H831.6z
							 M824.3,184.5c3-0.2,5.5-1.2,5.7-2.8h-5v-1.1h5.1v-1.5h1.5v1.5h5.1v1.1h-5c0.3,1.6,2.7,2.6,5.7,2.8l-0.5,1.1
							c-2.7-0.2-5.1-1-6.1-2.5c-1,1.5-3.4,2.3-6.1,2.5L824.3,184.5z"/>
					</g>
					<g class="st2">
						<path d="M126.8,223.3h4.6v1.3h-4.6V223.3z"/>
						<path d="M145.3,221.9v3h4.8v5.4h-1.5v-4.2h-9.8v-1.2h5v-3h-6.6v-1.2h10.9c0.4-1.9,0.4-3.4,0.4-4.6h-9.4V215H150v1.2
							c0,1.2,0,2.7-0.4,4.6h2.3v1.2H145.3z"/>
						<path d="M156.1,224.9c1.5,0,3.3-0.1,5.2-0.5l0.1,1.3c-2.2,0.4-4,0.5-5.8,0.5h-1v-10h1.5V224.9z M167.5,214.2v16.1h-1.4V222
							h-2.3v7.5h-1.4v-15h1.4v6.2h2.3v-6.6H167.5z"/>
						<path d="M180.5,225.7c1.5-0.1,3.1-0.2,4.5-0.4l0.1,1.1c-3.6,0.7-7.6,0.7-10.5,0.7l-0.2-1.2c1.3,0,2.9,0,4.5-0.1v-3h1.5V225.7z
							 M175,222.1c2.4-0.7,4-2.5,4.1-4.6h-3.7v-1.2h3.7v-2h1.5v2h3.7v1.2h-3.7c0,2.1,1.7,3.8,4.1,4.5l-0.7,1.1
							c-1.9-0.6-3.4-1.8-4.1-3.4c-0.7,1.7-2.2,3-4.1,3.6L175,222.1z M187.5,214.2v16.2h-1.5v-16.2H187.5z"/>
						<path d="M205.6,226.9v1.2H191v-1.2h5.7v-5.8h1.5v5.8H205.6z M202.3,217h-9.8v-1.2h11.3v1.6c0,2,0,4.2-0.6,7.5l-1.5-0.2
							c0.6-3.1,0.6-5.4,0.6-7.3V217z"/>
						<path d="M207.6,225.6c2.9,0,7,0,10.5-0.6l0.1,1.1c-3.6,0.7-7.5,0.7-10.5,0.7L207.6,225.6z M217.1,219.2c0,2.3-1.8,3.8-4.3,3.8
							c-2.5,0-4.3-1.5-4.3-3.8c0-2.3,1.8-3.8,4.3-3.8C215.3,215.4,217.1,216.9,217.1,219.2z M209.9,219.2c0,1.5,1.2,2.5,2.9,2.5
							s2.9-1,2.9-2.5c0-1.5-1.2-2.5-2.9-2.5S209.9,217.7,209.9,219.2z M220.7,214.2v16.2h-1.5v-16.2H220.7z"/>
						<path d="M236.9,224c-1.9-0.6-3.3-1.9-4-3.5c-0.7,1.8-2.1,3.2-4,3.8l-0.7-1.2c2.4-0.8,4-2.8,4-5.1v-0.5h-3.6v-1.2h3.6v-2.1h1.5
							v2.1h3.6v1.2h-3.6v0.5c0,2.1,1.6,4,4,4.8L236.9,224z M241.9,228.8v1.2h-10.8v-4.8h1.5v3.6H241.9z M239.9,219.2v-5h1.5v12h-1.5
							v-5.9h-3.3v-1.2H239.9z"/>
						<path d="M252.4,221.8c-0.8,1-1.9,1.5-3.3,1.5c-2.4,0-4.2-1.7-4.2-4.1c0-2.4,1.8-4.1,4.2-4.1c1.4,0,2.5,0.6,3.3,1.5h4.1v-2.5
							h1.5v11.9h-1.5v-4.3H252.4z M249.1,222c1.6,0,2.7-1.2,2.7-2.8s-1.2-2.8-2.7-2.8c-1.6,0-2.8,1.2-2.8,2.8S247.5,222,249.1,222z
							 M258.4,228.8v1.2h-10.8v-5.1h1.5v3.9H258.4z M253,217.9c0.1,0.4,0.2,0.9,0.2,1.4c0,0.5-0.1,0.9-0.2,1.3h3.5v-2.7H253z"/>
						<path d="M269.2,222.2v1.6h4.7v3.6h-9.5v1.6h10v1.2H263v-3.8h9.5v-1.4H263v-1.1h4.8v-1.6h-6.6V221h14.6v1.2H269.2z
							 M273.9,219.6h-10.8v-4.9h10.8V219.6z M272.5,215.9h-7.9v2.6h7.9V215.9z"/>
						<path d="M289.9,229l-3.2-5.6h-2.4v5.6h-1.7v-13.2h4.1c2.7,0,4.6,1,4.6,3.7c0,2.1-1.2,3.3-3,3.7l3.4,5.8H289.9z M284.3,222h2.2
							c2.1,0,3.2-0.8,3.2-2.5c0-1.7-1.1-2.4-3.2-2.4h-2.2V222z"/>
						<path d="M303.8,229.2c-0.9-0.3-1.9-0.8-3-1.5c-1,0.9-2.3,1.5-3.8,1.5c-2.4,0-4-1.5-4-3.7c0-1.8,1.2-2.9,2.6-3.8
							c-0.5-1.1-0.9-2.1-0.9-3.1c0-1.8,1.2-3.1,3-3.1c1.6,0,2.6,1.1,2.6,2.6c0,1.7-1.5,2.8-3,3.9c0.9,1.4,2.1,2.7,3.3,3.7
							c0.8-1.1,1.5-2.4,1.9-3.9h1.5c-0.5,1.7-1.3,3.3-2.3,4.7c0.9,0.6,1.7,1.1,2.5,1.3L303.8,229.2z M297.1,227.9
							c0.9,0,1.8-0.4,2.5-1.1c-1.3-1.1-2.5-2.5-3.5-3.9c-0.9,0.8-1.7,1.5-1.7,2.6C294.5,226.9,295.7,227.9,297.1,227.9z M296.7,221
							c1.2-0.8,2.3-1.6,2.3-2.8c0-0.8-0.4-1.5-1.3-1.5c-1,0-1.6,0.8-1.6,1.9C296.1,219.4,296.3,220.2,296.7,221z"/>
						<path d="M306.3,215.8h3.3c4.1,0,6.2,2.4,6.2,6.6c0,4.2-2.2,6.6-6.2,6.6h-3.4V215.8z M309.5,227.6c3.1,0,4.6-1.9,4.6-5.3
							c0-3.3-1.5-5.2-4.6-5.2H308v10.5H309.5z"/>
						<path d="M330.4,215.9c0,4.7-2.1,8.8-7.5,11.4l-0.8-1.2c4.3-2.1,6.5-5.2,6.8-9h-6.1v-1.2H330.4z M335.1,214.2v16.2h-1.5v-16.2
							H335.1z"/>
						<path d="M351.7,214.2v8.7h-1.5v-3.6H347c-0.3,1.9-1.9,3.2-4.1,3.2c-2.4,0-4.2-1.5-4.2-3.7c0-2.2,1.7-3.7,4.2-3.7
							c2.2,0,3.8,1.2,4.1,3.1h3.3v-3.8H351.7z M345.6,218.7c0-1.5-1.2-2.5-2.8-2.5s-2.8,1-2.8,2.5s1.2,2.5,2.8,2.5
							S345.6,220.1,345.6,218.7z M350.3,223.7h1.5v6.5h-10.3v-6.5h1.5v2h7.4V223.7z M350.3,226.8h-7.4v2.1h7.4V226.8z"/>
						<path d="M373.6,225.1h-6.6v5.2h-1.5v-5.2H359v-1.2h14.6V225.1z M359.9,221.5c2.9-0.4,5.6-2.2,5.6-4.2h-5.1v-1.2h5.1v-2h1.5v2
							h5.1v1.2h-5.1c0,2,2.7,3.8,5.6,4.2l-0.5,1.2c-2.5-0.4-4.8-1.6-5.8-3.4c-1,1.7-3.3,3-5.9,3.4L359.9,221.5z"/>
						<path d="M390.2,223.4h-6.6v7h-1.5v-7h-6.5v-1.2h10.7c0.5-2.3,0.5-4,0.5-5.5v-0.2h-9.4v-1.2h10.8v1.4c0,1.5,0,3.2-0.5,5.5h2.4
							V223.4z"/>
					</g>
					<text transform="matrix(1 0 0 1 391.193 229)" class="st4 st5"> </text>
					<g class="st2">
						<path d="M126.8,258.3h4.6v1.3h-4.6V258.3z"/>
						<path d="M142.9,260.9c1.5-0.1,3-0.2,4.3-0.4l0.1,1.1c-3.5,0.6-7.3,0.6-10.1,0.6l-0.2-1.2c1.3,0,2.8,0,4.4-0.1v-1.8
							c-1.9-0.2-3.1-1.4-3.1-3c0-1.8,1.6-3,3.8-3s3.8,1.2,3.8,3c0,1.6-1.2,2.7-3.1,3V260.9z M147,252.3h-9.7v-1.2h4.1v-1.9h1.5v1.9
							h4.1V252.3z M142.2,258.1c1.4,0,2.4-0.7,2.4-1.8s-1-1.9-2.4-1.9s-2.4,0.7-2.4,1.9S140.7,258.1,142.2,258.1z M152.2,257.3h-2.5
							v8h-1.5v-16.2h1.5v6.9h2.5V257.3z"/>
						<path d="M163.4,252h-9.5v-1.2h4V249h1.5v1.8h4V252z M158.6,258.4c-2.3,0-3.9-1.1-3.9-2.8c0-1.7,1.5-2.8,3.9-2.8
							s3.9,1.1,3.9,2.8C162.5,257.3,160.9,258.4,158.6,258.4z M158.6,257.3c1.5,0,2.5-0.6,2.5-1.7c0-1-1-1.7-2.5-1.7
							s-2.4,0.7-2.4,1.7C156.2,256.7,157.1,257.3,158.6,257.3z M164.9,259.3h1.5v5.8h-10.2v-5.8h1.5v1.7h7.2V259.3z M164.9,262.1
							h-7.2v1.8h7.2V262.1z M168.7,254.5h-2.4v4h-1.5v-9.4h1.5v4.1h2.4V254.5z"/>
						<path d="M178.4,257.2v1.6h4.7v3.6h-9.5v1.6h10v1.2h-11.4v-3.8h9.5v-1.4h-9.5v-1.1h4.8v-1.6h-6.6V256H185v1.2H178.4z
							 M183.1,254.6h-10.8v-4.9h10.8V254.6z M181.6,250.9h-7.9v2.6h7.9V250.9z"/>
						<path d="M195.9,258.4c-1.8-0.7-3.3-2.2-4-4c-0.7,2-2.1,3.5-4,4.3l-0.8-1.2c2.4-0.9,4.1-3.3,4.1-5.8v-1.6h1.5v1.6
							c0,2.4,1.6,4.6,4,5.5L195.9,258.4z M200.6,263.8v1.2h-10.9v-5h1.5v3.8H200.6z M200.2,261h-1.5v-11.8h1.5V261z"/>
						<path d="M208,257.8c-2.4,0-4.2-1.6-4.2-3.8c0-2.3,1.8-3.8,4.2-3.8c2.4,0,4.2,1.5,4.2,3.8C212.2,256.2,210.4,257.8,208,257.8z
							 M208,256.5c1.6,0,2.8-1.1,2.8-2.6c0-1.5-1.2-2.6-2.8-2.6c-1.6,0-2.8,1-2.8,2.6C205.2,255.5,206.4,256.5,208,256.5z
							 M205.5,259.5H216v5.8h-1.5v-4.6h-9V259.5z M216,252.9v2.2h2.4v1.2H216v2.5h-1.5v-9.6h1.5v2.4h2.4v1.2H216z"/>
						<path d="M232.5,256.8h-7.5v-6.6h7.5V256.8z M232.9,260.7c0,1.5,2.5,3.1,5.3,3.5l-0.5,1.1c-2.4-0.3-4.6-1.5-5.5-3
							c-1,1.5-3.2,2.6-5.6,3l-0.5-1.1c2.8-0.3,5.3-1.9,5.3-3.5h-4.7v-1.1h4.7V258h1.5v1.6h4.7v1.1H232.9z M231,251.4h-4.7v4.2h4.7
							V251.4z M237.3,258.5h-1.5v-9.3h1.5V258.5z"/>
						<path d="M251.4,250.5h1.4v10.9h-7.5v-10.9h1.5v4.3h4.6V250.5z M251.4,256h-4.6v4.2h4.6V256z M259.7,256.8h-2.7v8.5h-1.5v-16.1
							h1.5v6.3h2.7V256.8z"/>
						<path d="M270,256.1c0,3.4-1.7,5.6-4.1,5.6c-2.4,0-4.1-2.2-4.1-5.6c0-3.4,1.7-5.6,4.1-5.6C268.3,250.4,270,252.6,270,256.1z
							 M263.2,256.1c0,2.6,1.1,4.3,2.7,4.3c1.6,0,2.7-1.7,2.7-4.3c0-2.6-1.1-4.3-2.7-4.3C264.3,251.8,263.2,253.4,263.2,256.1z
							 M274.4,249.2v16.2H273v-16.2H274.4z"/>
						<path d="M292.4,262v1.2h-14.7V262h6.6v-3.4c-3-0.2-5.1-1.8-5.1-4.2c0-2.6,2.5-4.2,5.9-4.2c3.4,0,5.9,1.7,5.9,4.2
							c0,2.4-2.1,4-5.1,4.2v3.4H292.4z M285.1,257.5c2.6,0,4.4-1.2,4.4-3.1s-1.9-3.1-4.4-3.1c-2.6,0-4.5,1.2-4.5,3.1
							S282.5,257.5,285.1,257.5z"/>
						<path d="M303.3,258.4c-1.8-0.7-3.3-2.2-4-4c-0.7,2-2.1,3.5-4,4.3l-0.8-1.2c2.4-0.9,4.1-3.3,4.1-5.8v-1.6h1.5v1.6
							c0,2.4,1.6,4.6,4,5.5L303.3,258.4z M308.1,263.8v1.2h-10.9v-5h1.5v3.8H308.1z M307.6,261h-1.5v-11.8h1.5V261z"/>
						<path d="M315.4,257.8c-2.4,0-4.2-1.6-4.2-3.8c0-2.3,1.8-3.8,4.2-3.8c2.4,0,4.2,1.5,4.2,3.8
							C319.6,256.2,317.8,257.8,315.4,257.8z M315.4,256.5c1.6,0,2.8-1.1,2.8-2.6c0-1.5-1.2-2.6-2.8-2.6c-1.6,0-2.8,1-2.8,2.6
							C312.6,255.5,313.8,256.5,315.4,256.5z M312.9,259.5h10.5v5.8H322v-4.6h-9V259.5z M323.4,252.9v2.2h2.4v1.2h-2.4v2.5H322v-9.6
							h1.5v2.4h2.4v1.2H323.4z"/>
						<path d="M332.2,260.5c1.8-0.1,3.6-0.2,5.2-0.4l0.1,1.1c-3.3,0.5-7.1,0.6-10,0.6l-0.2-1.2c1,0,2.2,0,3.4-0.1v-5h1.5V260.5z
							 M334.4,258.1c0.5-2.7,0.5-4.6,0.5-5.9h-6.7v-1.2h8.2v0.9c0,1.3,0,3.4-0.5,6.4L334.4,258.1z M342.4,257.2h-2.6v8.2h-1.5v-16.2
							h1.5v6.8h2.6V257.2z"/>
						<path d="M353.4,254.4c0,2.6,1.6,5.2,3.9,6.4l-0.8,1.2c-1.8-0.9-3.1-2.6-3.8-4.7c-0.7,2.2-2.2,4.1-4,5l-0.8-1.1
							c2.4-1.2,4.1-3.9,4.1-6.7v-1.3h-3.7V252h3.6v-2.5h1.5v2.5h3.6v1.2h-3.6V254.4z M363.1,257h-2.7v8.3H359v-16.2h1.5v6.6h2.7V257
							z"/>
						<path d="M372.7,257h-7.3v-7h1.5v2.3h4.4V250h1.5v1.5h3.7v-2.3h1.5v8.4h-1.5v-2.1h-3.7V257z M371.2,253.4h-4.4v2.4h4.4V253.4z
							 M378.5,263.9v1.2h-11v-4h8.9v-1.5h-8.9v-1.2h10.4v3.8H369v1.7H378.5z M372.7,252.6v1.8h3.7v-1.8H372.7z"/>
						<path d="M386.8,260.9c1.5-0.1,3-0.2,4.3-0.4l0.1,1.1c-3.5,0.6-7.3,0.6-10.1,0.6L381,261c1.3,0,2.8,0,4.4-0.1v-1.8
							c-1.9-0.2-3.1-1.4-3.1-3c0-1.8,1.6-3,3.8-3s3.8,1.2,3.8,3c0,1.6-1.2,2.7-3.1,3V260.9z M390.9,252.3h-9.7v-1.2h4.1v-1.9h1.5
							v1.9h4.1V252.3z M386.1,258.1c1.4,0,2.4-0.7,2.4-1.8s-1-1.9-2.4-1.9s-2.4,0.7-2.4,1.9S384.7,258.1,386.1,258.1z M396.1,257.3
							h-2.5v8h-1.5v-16.2h1.5v6.9h2.5V257.3z"/>
						<path d="M408.3,258.6c-3.4,0.5-7.3,0.6-10.3,0.6l-0.2-1.2c1.4,0,3,0,4.6-0.1v-2.3h-3.1v-5.4h7.7v1.2h-6.2v3h6.3v1.2h-3.2v2.2
							c1.5-0.1,3-0.2,4.3-0.3L408.3,258.6z M411.5,263.8v1.2h-11v-4.5h1.5v3.3H411.5z M410.9,261.3h-1.5v-12.1h1.5V261.3z"/>
						<path d="M427.1,259c-1.9-0.6-3.3-1.9-4-3.5c-0.7,1.8-2.1,3.2-4,3.8l-0.7-1.2c2.4-0.8,4-2.8,4-5.1v-0.5h-3.6v-1.2h3.6v-2.1h1.5
							v2.1h3.6v1.2h-3.6v0.5c0,2.1,1.6,4,4,4.8L427.1,259z M432.1,263.8v1.2h-10.8v-4.8h1.5v3.6H432.1z M430.1,254.2v-5h1.5v12h-1.5
							v-5.9h-3.3v-1.2H430.1z"/>
						<path d="M442.6,256.8c-0.8,1-1.9,1.5-3.3,1.5c-2.4,0-4.2-1.7-4.2-4.1c0-2.4,1.8-4.1,4.2-4.1c1.4,0,2.5,0.6,3.3,1.5h4.1v-2.5
							h1.5v11.9h-1.5v-4.3H442.6z M439.3,257c1.6,0,2.7-1.2,2.7-2.8s-1.2-2.8-2.7-2.8c-1.6,0-2.8,1.2-2.8,2.8S437.7,257,439.3,257z
							 M448.6,263.8v1.2h-10.8v-5.1h1.5v3.9H448.6z M443.2,252.9c0.1,0.4,0.2,0.9,0.2,1.4c0,0.5-0.1,0.9-0.2,1.3h3.5v-2.7H443.2z"/>
						<path d="M459.5,257.2v1.6h4.7v3.6h-9.5v1.6h10v1.2h-11.4v-3.8h9.5v-1.4h-9.5v-1.1h4.8v-1.6h-6.6V256H466v1.2H459.5z
							 M464.2,254.6h-10.8v-4.9h10.8V254.6z M462.7,250.9h-7.9v2.6h7.9V250.9z"/>
						<path d="M486.7,259.6h-3.8v5.7h-1.5v-5.7h-4.1v5.7h-1.5v-5.7H472v-1.2h14.6V259.6z M473.7,253.3c0-2.2,2.3-3.5,5.6-3.5
							c3.4,0,5.7,1.3,5.7,3.5s-2.3,3.5-5.7,3.5C476,256.9,473.7,255.5,473.7,253.3z M475.2,253.3c0,1.4,1.7,2.3,4.1,2.3
							c2.5,0,4.1-0.9,4.1-2.3s-1.7-2.3-4.1-2.3C476.9,251,475.2,251.9,475.2,253.3z"/>
						<path d="M490.6,260.2c1.8,0,3.5-0.1,5.6-0.5l0.1,1.2c-2.2,0.4-4.1,0.5-6,0.5h-1.1v-6h4.6v-3.3h-4.6v-1.2h6.1v5.7h-4.6V260.2z
							 M502.3,249.2v16.1h-1.4v-8.6h-2.3v7.7h-1.4v-15h1.4v6h2.3v-6.4H502.3z"/>
						<path d="M505.3,260.6c2.9,0,7,0,10.5-0.6l0.1,1.1c-3.6,0.7-7.5,0.7-10.5,0.7L505.3,260.6z M514.7,254.2c0,2.3-1.8,3.8-4.3,3.8
							c-2.5,0-4.3-1.5-4.3-3.8c0-2.3,1.8-3.8,4.3-3.8C512.9,250.4,514.7,251.9,514.7,254.2z M507.5,254.2c0,1.5,1.2,2.5,2.9,2.5
							c1.7,0,2.9-1,2.9-2.5c0-1.5-1.2-2.5-2.9-2.5C508.7,251.6,507.5,252.7,507.5,254.2z M518.3,249.2v16.2h-1.5v-16.2H518.3z"/>
						<path d="M540.4,256.6v1.2h-14.7v-1.2h10.9c0.5-2.2,0.5-3.8,0.5-5.2v-0.1h-9.5v-1.2h10.9v1.3c0,1.4,0,3-0.4,5.2H540.4z
							 M529.1,263.7h9.8v1.2h-11.3v-5.3h1.5V263.7z"/>
						<path d="M556.9,258v1.2h-14.6V258h6.6v-1.7h-4.6v-6.4h1.5v2h7.9v-2h1.5v6.4h-4.6v1.7H556.9z M545.7,263.8h9.6v1.2h-11.1v-4.5
							h1.5V263.8z M545.7,255.1h7.9V253h-7.9V255.1z"/>
						<path d="M567.7,258.2c-1.8-0.6-3.2-2-3.9-3.7c-0.7,1.9-2.2,3.3-4.1,4l-0.8-1.2c2.4-0.8,4.1-3,4.1-5.3v-0.6h-3.6v-1.2h8.6v1.2
							h-3.5v0.6c0,2.1,1.6,4.1,3.9,4.9L567.7,258.2z M561.4,259.7h10.8v5.6h-1.5v-4.4h-9.3V259.7z M572.2,249.2v9.7h-1.5v-4.2h-3.2
							v-1.2h3.2v-4.2H572.2z"/>
						<path d="M585.4,254.4c0,2.7,1.8,5.3,4.2,6.4l-0.8,1.2c-1.9-0.8-3.4-2.6-4.1-4.7c-0.7,2.3-2.3,4.1-4.1,5l-0.8-1.1
							c2.4-1.1,4.2-3.9,4.2-6.7v-1.2h-3.7V252h3.7v-2.5h1.5v2.5h3.7v1.2h-3.7V254.4z M592.7,249.2v16.2h-1.5v-16.2H592.7z"/>
						<path d="M610.7,262.1v1.2H596v-1.2h4.1v-3.1h-2.3v-5h9.6v-2.5h-9.6v-1.2h11.1v4.9h-9.6v2.6h9.9v1.2h-2.5v3.1H610.7z
							 M601.6,262.1h3.7v-3.1h-3.7V262.1z"/>
						<path d="M617.3,253.7c0,2.8,1.2,5.6,3.4,6.9l-0.9,1.1c-1.6-0.9-2.7-2.7-3.2-4.7c-0.6,2.2-1.7,4.1-3.3,5.1l-0.9-1.1
							c2.3-1.4,3.5-4.3,3.5-7.3v-1.5h-3.1v-1.2h7.4v1.2h-2.9V253.7z M621.6,249.5h1.4v14.9h-1.4v-8.3H619V255h2.7V249.5z
							 M626.3,249.2v16.2h-1.4v-16.2H626.3z"/>
						<path d="M642.1,258.4c-1.8-0.7-3.3-2.2-4-4c-0.7,2-2.1,3.5-4,4.3l-0.8-1.2c2.4-0.9,4.1-3.3,4.1-5.8v-1.6h1.5v1.6
							c0,2.4,1.6,4.6,4,5.5L642.1,258.4z M646.9,263.8v1.2H636v-5h1.5v3.8H646.9z M646.4,261h-1.5v-11.8h1.5V261z"/>
						<path d="M654.2,257.8c-2.4,0-4.2-1.6-4.2-3.8c0-2.3,1.8-3.8,4.2-3.8c2.4,0,4.2,1.5,4.2,3.8
							C658.5,256.2,656.7,257.8,654.2,257.8z M654.2,256.5c1.6,0,2.8-1.1,2.8-2.6c0-1.5-1.2-2.6-2.8-2.6c-1.6,0-2.8,1-2.8,2.6
							C651.5,255.5,652.6,256.5,654.2,256.5z M651.8,259.5h10.5v5.8h-1.5v-4.6h-9V259.5z M662.3,252.9v2.2h2.4v1.2h-2.4v2.5h-1.5
							v-9.6h1.5v2.4h2.4v1.2H662.3z"/>
						<path d="M677.2,251.3c0,4.2-1.5,8-6,10.6l-0.9-1.1c3.7-2.1,5.2-5,5.5-8.3h-4.8v-1.2H677.2z M684,249.2v16.2h-1.4v-8.4h-2.2
							v7.6H679v-14.9h1.4v6.1h2.2v-6.5H684z"/>
						<path d="M695,256.9h-7.5v-7.1h1.5v2.3h4.6v-2.3h1.4V256.9z M693.6,253.3H689v2.4h4.6V253.3z M690.6,264h9.4v1.2h-10.8v-4h8.8
							v-1.7h-8.8v-1.2h10.3v3.9h-8.8V264z M701.8,252.7v1.2h-2.4v3.7h-1.5v-8.3h1.5v3.5H701.8z"/>
					</g>
				</g>
				<g id="í‘œ" transform="translate(47.000000, 348.000000)">
					<g id="project">
						<g id="_x31_" transform="translate(37.000000, 70.000000)">
							<g class="st2">
								<path d="M1.5,6h3.3c2.5,0,4.2,0.8,4.2,3.3c0,2.4-1.8,3.5-4.2,3.5H3.3V17H1.5V6z M4.8,11.4c1.8,0,2.6-0.7,2.6-2.1
									S6.5,7.4,4.7,7.4H3.3v4.1H4.8z"/>
								<path d="M10.6,11.5c0-3.6,2.2-5.8,5.1-5.8c1.6,0,2.6,0.7,3.3,1.4l-0.9,1.1c-0.5-0.6-1.2-1-2.3-1c-2.1,0-3.4,1.6-3.4,4.2
									c0,2.6,1.2,4.2,3.5,4.2c0.7,0,1.4-0.2,1.7-0.5v-2.6h-2.2v-1.4h3.8v4.8c-0.7,0.7-2,1.3-3.5,1.3
									C12.8,17.2,10.6,15.1,10.6,11.5z"/>
								<path d="M20.9,16c3.3-2.9,4.9-5,4.9-6.8c0-1.2-0.6-2-1.9-2c-0.9,0-1.6,0.6-2.2,1.2l-1-1c0.9-1,1.9-1.7,3.4-1.7
									c2,0,3.3,1.3,3.3,3.3c0,2.1-1.7,4.3-4,6.6c0.6-0.1,1.3-0.1,1.8-0.1h2.8V17h-7.1V16z"/>
								<path d="M29.5,11.4c0-3.8,1.4-5.7,3.6-5.7c2.2,0,3.6,1.9,3.6,5.7c0,3.8-1.4,5.8-3.6,5.8C30.9,17.2,29.5,15.3,29.5,11.4z
									 M35,11.4c0-3.2-0.8-4.3-1.9-4.3s-1.9,1.2-1.9,4.3c0,3.2,0.8,4.4,1.9,4.4S35,14.6,35,11.4z"/>
								<path d="M38.7,15.6h2.4V7.9h-2V6.8c1-0.2,1.8-0.5,2.4-0.8h1.3v9.6H45V17h-6.3V15.6z"/>
							</g>
							<g class="st2">
								<path d="M151.8,10.3v1H142v-1h3.8V8.6h1.2v1.7H151.8z M144.4,15.8h6.5v1h-7.7V14h6.2v-0.9h-6.2v-1h7.5v2.7h-6.2V15.8z
									 M149.2,9.7c0.2-0.9,0.2-1.6,0.2-2.2h-6.2v-1h7.4v0.7c0,0.7,0,1.5-0.2,2.6L149.2,9.7z"/>
								<path d="M159.8,12.2c-2.3,0.4-4.8,0.5-6.7,0.5l-0.1-1c0.6,0,1.4,0,2.2,0V9.4h1.2v2.2c1.1,0,2.3-0.1,3.4-0.3L159.8,12.2z
									 M157.6,10.6c0.2-1.2,0.3-2,0.3-2.7h-4.2v-1h5.4v0.6c0,0.7,0,1.8-0.3,3.2L157.6,10.6z M155.8,15.7h6.1v1h-7.4v-3.2h1.2V15.7
									z M163,9.5v1h-1.4v3.7h-1.2V6.1h1.2v3.4H163z"/>
								<path d="M169.9,11.6c-1.2-0.4-2.1-1.2-2.6-2.1c-0.5,1.1-1.4,2-2.7,2.4l-0.6-1c1.7-0.6,2.6-1.9,2.6-3.2V7.6h-2.3v-1h5.8v1
									H168v0.1c0,1.2,0.9,2.4,2.5,2.9L169.9,11.6z M173.4,15.8v1H166V14h5.8v-0.9H166v-1h7.1v2.7h-5.8v1H173.4z M171.8,8.4V6.1
									h1.2v5.6h-1.2V9.4h-1.9v-1H171.8z"/>
								<path d="M184.1,6.1v6.2h-1.2V11h-2.6c-0.5,0.6-1.3,0.9-2.2,0.9c-1.6,0-2.8-1.1-2.8-2.6c0-1.5,1.2-2.6,2.8-2.6
									c0.9,0,1.7,0.3,2.2,0.9h2.6V6.1H184.1z M179.8,9.3c0-0.9-0.7-1.6-1.6-1.6c-0.9,0-1.6,0.6-1.6,1.6c0,0.9,0.7,1.6,1.6,1.6
									C179.1,10.8,179.8,10.2,179.8,9.3z M177,12.8h7.1v4H177V12.8z M178.2,15.8h4.7v-2h-4.7V15.8z M182.9,10V8.6h-2.1
									c0.1,0.2,0.1,0.5,0.1,0.7c0,0.3,0,0.5-0.1,0.7H182.9z"/>
							</g>
						</g>
						<g id="_x32_" transform="translate(37.000000, 134.000000)">
							<g class="st2">
								<path d="M2.1,6h1.7v4.5h4.7V6h1.7v11H8.6v-5H3.8v5H2.1V6z"/>
								<path d="M15.2,11.3l-3-5.3h1.9l1.3,2.6c0.3,0.5,0.5,1,0.8,1.7h0.1c0.3-0.7,0.5-1.2,0.8-1.7L18.4,6h1.8l-3,5.4l3.2,5.6h-1.9
									l-1.5-2.7c-0.3-0.6-0.6-1.1-0.9-1.8h-0.1c-0.3,0.7-0.6,1.2-0.9,1.8L13.8,17H12L15.2,11.3z"/>
								<path d="M21.4,16c3.3-2.9,4.9-5,4.9-6.8c0-1.2-0.6-2-1.9-2c-0.9,0-1.6,0.6-2.2,1.2l-1-1c0.9-1,1.9-1.7,3.4-1.7
									c2,0,3.3,1.3,3.3,3.3c0,2.1-1.7,4.3-4,6.6c0.6-0.1,1.3-0.1,1.8-0.1h2.8V17h-7.1V16z"/>
								<path d="M29.9,11.4c0-3.8,1.4-5.7,3.6-5.7c2.2,0,3.6,1.9,3.6,5.7c0,3.8-1.4,5.8-3.6,5.8C31.3,17.2,29.9,15.3,29.9,11.4z
									 M35.4,11.4c0-3.2-0.8-4.3-1.9-4.3s-1.9,1.2-1.9,4.3c0,3.2,0.8,4.4,1.9,4.4S35.4,14.6,35.4,11.4z"/>
								<path d="M38.2,15.7l0.8-1.1c0.6,0.7,1.5,1.2,2.6,1.2c1.2,0,2.1-0.7,2.1-1.8c0-1.2-0.8-2-3.3-2v-1.3c2.2,0,2.9-0.8,2.9-1.9
									c0-1-0.6-1.6-1.7-1.6c-0.9,0-1.6,0.4-2.2,1l-0.9-1.1c0.9-0.8,1.9-1.3,3.2-1.3c2,0,3.4,1,3.4,2.9c0,1.3-0.7,2.2-1.9,2.6v0.1
									c1.3,0.3,2.3,1.3,2.3,2.8c0,2-1.7,3.2-3.7,3.2C40.1,17.2,38.9,16.5,38.2,15.7z"/>
							</g>
							<g class="st2">
								<path d="M147.1,14.2c0.5,0,1-0.1,1.5-0.2l0.1,0.9c-2.2,0.4-4.7,0.4-6.6,0.4l-0.1-1c0.4,0,0.9,0,1.3,0V9.2h-1.1v-1h6v1h-1.1
									V14.2z M144.4,14.3c0.5,0,1,0,1.5-0.1v-5h-1.5V14.3z M152.1,12.3h-1.7v5.6h-1.2V7.1h1.2v4.2h1.7V12.3z"/>
								<path d="M158.8,7.9c0,2.9-1.4,5-5,6.2l-0.5-1c1.7-0.5,2.8-1.3,3.5-2.2l-3.3,0.2l-0.2-1l4-0.2c0.1-0.4,0.2-0.7,0.3-1.1h-3.7
									v-1H158.8z M162.3,16.8v1h-7.4v-3.4h1.2v2.4H162.3z M162,15h-1.2V7.1h1.2V15z"/>
								<path d="M173.9,12.6v1h-9.8v-1H173.9z M172.9,11.8c-1.7-0.3-3.2-1.2-3.9-2.4c-0.7,1.2-2.1,2.1-3.9,2.4l-0.5-1
									c2.1-0.3,3.7-1.6,3.7-3V7.4h1.3v0.5c0,1.3,1.6,2.7,3.7,3L172.9,11.8z M166.6,16.7h6.2v1h-7.5v-3.1h1.2V16.7z"/>
								<path d="M180.6,12.9h-5V7.8h1.2v1.6h2.6V7.8h1.2v1h2.3V7.1h1.2v6.5h-1.2V12h-2.3V12.9z M179.4,10.3h-2.6v1.6h2.6V10.3z
									 M184.2,15.9c0,1.3-1.4,2.1-3.7,2.1c-2.3,0-3.6-0.8-3.6-2.1c0-1.3,1.4-2.1,3.6-2.1C182.8,13.8,184.2,14.6,184.2,15.9z
									 M182.9,15.9c0-0.7-0.9-1.1-2.4-1.1s-2.4,0.4-2.4,1.1c0,0.7,0.9,1.1,2.4,1.1S182.9,16.6,182.9,15.9z M180.6,9.8V11h2.3V9.8
									H180.6z"/>
							</g>
						</g>
						<g id="_x33_" transform="translate(37.000000, 198.000000)">
							<g class="st2">
								<path d="M1.5,13h1.7v4.5h4.7V13h1.7v11H7.9v-5H3.2v5H1.5V13z"/>
								<path d="M14.5,18.3l-3-5.3h1.9l1.3,2.6c0.3,0.5,0.5,1,0.8,1.7h0.1c0.3-0.7,0.5-1.2,0.8-1.7l1.3-2.6h1.8l-3,5.4l3.2,5.6h-1.9
									l-1.5-2.7c-0.3-0.6-0.6-1.1-0.9-1.8h-0.1c-0.3,0.7-0.6,1.2-0.9,1.8L13.2,24h-1.8L14.5,18.3z"/>
								<path d="M20.7,23c3.3-2.9,4.9-5,4.9-6.8c0-1.2-0.6-2-1.9-2c-0.9,0-1.6,0.6-2.2,1.2l-1-1c0.9-1,1.9-1.7,3.4-1.7
									c2,0,3.3,1.3,3.3,3.3c0,2.1-1.7,4.3-4,6.6c0.6-0.1,1.3-0.1,1.8-0.1h2.8V24h-7.1V23z"/>
								<path d="M29.3,18.4c0-3.8,1.4-5.7,3.6-5.7c2.2,0,3.6,1.9,3.6,5.7c0,3.8-1.4,5.8-3.6,5.8C30.7,24.2,29.3,22.3,29.3,18.4z
									 M34.8,18.4c0-3.2-0.8-4.3-1.9-4.3s-1.9,1.2-1.9,4.3c0,3.2,0.8,4.4,1.9,4.4S34.8,21.6,34.8,18.4z"/>
								<path d="M45.2,21h-1.4v3h-1.6v-3h-4.8v-1.2l4.4-6.9h2v6.7h1.4V21z M42.2,19.7v-2.9c0-0.6,0.1-1.5,0.1-2.1h-0.1
									c-0.3,0.6-0.6,1.1-0.9,1.7l-2.2,3.3H42.2z"/>
							</g>
							<g class="st2">
								<path d="M156,4.1v6.2h-1.2V9h-2.6c-0.5,0.6-1.3,0.9-2.2,0.9c-1.6,0-2.8-1.1-2.8-2.6c0-1.5,1.2-2.6,2.8-2.6
									c0.9,0,1.7,0.3,2.2,0.9h2.6V4.1H156z M151.7,7.3c0-0.9-0.7-1.6-1.6-1.6c-0.9,0-1.6,0.6-1.6,1.6c0,0.9,0.7,1.6,1.6,1.6
									C151,8.8,151.7,8.2,151.7,7.3z M148.9,10.8h7.1v4h-7.1V10.8z M150.1,13.8h4.7v-2h-4.7V13.8z M154.8,8V6.6h-2.1
									c0.1,0.2,0.1,0.5,0.1,0.7c0,0.3,0,0.5-0.1,0.7H154.8z"/>
								<path d="M167.9,9.2v1h-9.8v-1H167.9z M158.6,7.7c2-0.2,3.4-1.1,3.6-2.1H159v-1h8v1h-3.2c0.2,1,1.6,1.8,3.6,2.1l-0.4,1
									c-1.9-0.2-3.4-1-4-2.1c-0.6,1.1-2.1,1.9-4,2.1L158.6,7.7z M166.7,12.9c0,1.3-1.4,2-3.7,2c-2.3,0-3.7-0.7-3.7-2
									c0-1.3,1.4-2,3.7-2C165.3,11,166.7,11.7,166.7,12.9z M165.4,12.9c0-0.7-0.9-1-2.5-1s-2.5,0.3-2.5,1c0,0.7,0.9,1,2.5,1
									S165.4,13.6,165.4,12.9z"/>
								<path d="M174.9,10c-1.2-0.4-2-1.2-2.5-2.3c-0.5,1.2-1.4,2.1-2.7,2.6l-0.6-1c1.7-0.6,2.7-2.1,2.7-3.6V4.7h1.2v1
									c0,1.5,0.9,2.9,2.5,3.4L174.9,10z M178.2,12.8c0,1.3-1.4,2.1-3.7,2.1c-2.3,0-3.6-0.8-3.6-2.1s1.4-2.1,3.6-2.1
									C176.8,10.8,178.2,11.5,178.2,12.8z M176.9,12.8c0-0.7-0.9-1.1-2.4-1.1s-2.4,0.4-2.4,1.1s0.9,1.1,2.4,1.1
									S176.9,13.6,176.9,12.8z M176.9,7.3h-2.2v-1h2.2V4.1h1.2v6.4h-1.2V7.3z"/>
							</g>
							<text transform="matrix(1 0 0 1 179.5599 14)" class="st6 st7"> </text>
							<g class="st2">
								<path d="M152.8,28.2c-1.2-0.4-2.1-1.2-2.5-2.2c-0.5,1.2-1.4,2.1-2.7,2.5l-0.6-1c1.7-0.6,2.7-2,2.7-3.5v-0.2h-2.3v-1h5.8v1
									h-2.3v0.2c0,1.3,0.9,2.6,2.6,3.1L152.8,28.2z M155.6,30.9c0,1.3-1.4,2.1-3.6,2.1c-2.2,0-3.6-0.8-3.6-2.1
									c0-1.3,1.4-2.1,3.6-2.1C154.2,28.8,155.6,29.6,155.6,30.9z M154.4,30.9c0-0.7-0.9-1.1-2.4-1.1c-1.5,0-2.4,0.4-2.4,1.1
									c0,0.7,0.9,1.1,2.4,1.1C153.5,32,154.4,31.6,154.4,30.9z M157,24.7v1h-1.5v2.8h-1.2v-6.5h1.2v2.6H157z"/>
								<path d="M164.2,27.5c-1.3-0.4-2.2-1.2-2.7-2.2c-0.5,1.1-1.4,2-2.7,2.4l-0.6-1c1.7-0.5,2.7-1.8,2.7-3.1h-2.4v-1h5.9v1h-2.3
									c0,1.3,1,2.4,2.6,2.9L164.2,27.5z M167.3,31.9v1h-7.4V30h5.9v-0.9h-5.9v-0.9h7.1v2.7h-5.9v1H167.3z M167,27.7h-1.2v-5.6h1.2
									V27.7z"/>
								<path d="M175.9,28.9c-2.3,0.4-4.8,0.5-6.7,0.5l-0.1-1c0.8,0,1.8,0,2.8,0v-0.7c-1.2-0.1-2-0.7-2-1.6c0-1,1-1.7,2.6-1.7
									S175,25,175,26c0,0.9-0.7,1.5-1.9,1.6v0.7c0.9-0.1,1.9-0.1,2.8-0.3L175.9,28.9z M175.5,24h-6.2v-0.9h2.5v-1h1.2v1h2.5V24z
									 M171.8,31.7h6.1v1h-7.4V30h1.2V31.7z M172.4,26.8c0.9,0,1.4-0.3,1.4-0.8c0-0.5-0.6-0.8-1.4-0.8c-0.9,0-1.4,0.3-1.4,0.8
									C171,26.5,171.5,26.8,172.4,26.8z M179.1,25.8v1h-1.5v3.8h-1.2v-8.5h1.2v3.7H179.1z"/>
							</g>
						</g>
						<g id="_x33__1_" transform="translate(37.000000, 278.000000)">
							<g class="st2">
								<path d="M1.5,6h1.7v4.5h4.7V6h1.7v11H7.9v-5H3.2v5H1.5V6z"/>
								<path d="M14.5,11.3l-3-5.3h1.9l1.3,2.6c0.3,0.5,0.5,1,0.8,1.7h0.1c0.3-0.7,0.5-1.2,0.8-1.7L17.8,6h1.8l-3,5.4l3.2,5.6h-1.9
									l-1.5-2.7c-0.3-0.6-0.6-1.1-0.9-1.8h-0.1c-0.3,0.7-0.6,1.2-0.9,1.8L13.2,17h-1.8L14.5,11.3z"/>
								<path d="M20.7,16c3.3-2.9,4.9-5,4.9-6.8c0-1.2-0.6-2-1.9-2c-0.9,0-1.6,0.6-2.2,1.2l-1-1c0.9-1,1.9-1.7,3.4-1.7
									c2,0,3.3,1.3,3.3,3.3c0,2.1-1.7,4.3-4,6.6c0.6-0.1,1.3-0.1,1.8-0.1h2.8V17h-7.1V16z"/>
								<path d="M29.3,11.4c0-3.8,1.4-5.7,3.6-5.7c2.2,0,3.6,1.9,3.6,5.7c0,3.8-1.4,5.8-3.6,5.8C30.7,17.2,29.3,15.3,29.3,11.4z
									 M34.8,11.4c0-3.2-0.8-4.3-1.9-4.3s-1.9,1.2-1.9,4.3c0,3.2,0.8,4.4,1.9,4.4S34.8,14.6,34.8,11.4z"/>
								<path d="M37.5,15.7l0.8-1.1c0.6,0.6,1.4,1.2,2.6,1.2c1.2,0,2.2-0.9,2.2-2.4c0-1.5-0.8-2.3-2.1-2.3c-0.7,0-1.1,0.2-1.8,0.6
									l-0.8-0.6L38.8,6h5.6v1.5h-4.1L40,10.2c0.5-0.2,0.9-0.4,1.5-0.4c1.8,0,3.4,1.1,3.4,3.5c0,2.4-1.8,3.8-3.7,3.8
									C39.4,17.2,38.3,16.5,37.5,15.7z"/>
							</g>
							<g class="st2">
								<path d="M132.3,9.1c0,1.8,0.7,3.7,2.2,4.6l-0.7,0.9c-1-0.6-1.7-1.7-2.1-2.9c-0.4,1.4-1.1,2.5-2.1,3.2l-0.7-0.9
									c1.5-1,2.3-2.9,2.3-4.8V8.3h-1.9v-1h4.9v1h-1.8V9.1z M134.9,6.3h1.2v10.1h-1.2v-5.5h-1.6v-1h1.6V6.3z M138.3,6.1v10.8h-1.2
									V6.1H138.3z"/>
								<path d="M142.7,15.2c2.6-2.3,3.9-4,3.9-5.5c0-1-0.5-1.6-1.5-1.6c-0.7,0-1.3,0.4-1.7,1l-0.8-0.8c0.8-0.8,1.5-1.3,2.7-1.3
									c1.6,0,2.7,1.1,2.7,2.7c0,1.7-1.4,3.5-3.2,5.3c0.5,0,1-0.1,1.4-0.1h2.2V16h-5.7V15.2z"/>
								<path d="M158.4,8.2h-6v-1h2.4V6h1.2v1.2h2.3V8.2z M155.4,12.7c-1.5,0-2.5-0.8-2.5-2c0-1.2,1-2,2.5-2c1.5,0,2.5,0.8,2.5,2
									C157.9,11.9,156.9,12.7,155.4,12.7z M161.4,15c0,1.2-1.4,1.9-3.6,1.9c-2.3,0-3.7-0.7-3.7-1.9c0-1.2,1.4-1.9,3.7-1.9
									C159.9,13.2,161.4,13.9,161.4,15z M155.4,11.8c0.8,0,1.3-0.4,1.3-1.1c0-0.7-0.5-1.1-1.3-1.1c-0.8,0-1.3,0.4-1.3,1.1
									C154.1,11.3,154.6,11.8,155.4,11.8z M160,15c0-0.6-0.9-0.9-2.3-0.9c-1.5,0-2.4,0.3-2.4,0.9c0,0.6,0.9,0.9,2.4,0.9
									C159.2,16,160,15.7,160,15z M160.1,11.7h-1.7v-1h1.7V9.6h-1.6v-1h1.6V6.1h1.2v7h-1.2V11.7z"/>
								<path d="M172.4,11.4c-1.4,0.3-2.7,0.4-5,0.4h-0.9V6.9h4.8v1h-3.6v2.8c2.1,0,3.2-0.1,4.6-0.4L172.4,11.4z M174.6,14.8
									c0,1.3-1.4,2.1-3.6,2.1s-3.6-0.8-3.6-2.1c0-1.3,1.4-2.1,3.6-2.1S174.6,13.5,174.6,14.8z M173.4,14.8c0-0.7-0.9-1.1-2.4-1.1
									c-1.5,0-2.4,0.4-2.4,1.1c0,0.7,0.9,1.1,2.4,1.1C172.5,15.9,173.4,15.5,173.4,14.8z M176.1,8.8v1h-1.5v2.6h-1.3V6.1h1.3v2.7
									H176.1z"/>
								<path d="M186.9,14.5v1h-9.8v-1h2.6v-2.6h-1.5V7h1.2v3.9h6.4v1h-1.5v2.6H186.9z M180.9,14.5h2.1v-2.6h-2.1V14.5z"/>
								<path d="M193.6,11.9h-5V6.8h1.2v1.6h2.6V6.8h1.2v1h2.3V6.1h1.2v6.5h-1.2V11h-2.3V11.9z M192.4,9.3h-2.6v1.6h2.6V9.3z
									 M197.2,14.9c0,1.3-1.4,2.1-3.7,2.1c-2.3,0-3.6-0.8-3.6-2.1c0-1.3,1.4-2.1,3.6-2.1C195.8,12.8,197.2,13.6,197.2,14.9z
									 M195.9,14.9c0-0.7-0.9-1.1-2.4-1.1s-2.4,0.4-2.4,1.1c0,0.7,0.9,1.1,2.4,1.1S195.9,15.6,195.9,14.9z M193.6,8.8V10h2.3V8.8
									H193.6z"/>
							</g>
						</g>
						<g id="head1">
							<path id="bg_2_" class="st8" d="M8,0h104c4.4,0,8,3.6,8,8v34c0,4.4-3.6,8-8,8H8c-4.4,0-8-3.6-8-8V8C0,3.6,3.6,0,8,0z"/>
							<g class="st2">
								<path class="st3" d="M45.6,29.1v1.6H33v-1.6H45.6z M35.9,21.2H34v-1.6h10.5v1.6h-1.9v4.1h1.8V27H34.1v-1.6h1.8V21.2z
									 M40.7,21.2h-2.8v4.1h2.8V21.2z"/>
								<path class="st3" d="M59.4,29.2v1.6H46.8v-1.6h5.2v-2.1h-3.8v-4.7H56v-1.5h-7.7v-1.6h9.7V24h-7.7v1.5h8v1.6h-4.2v2.1H59.4z"
									/>
								<path class="st3" d="M66.5,26.5c-1.2-0.5-2-1.2-2.4-2.2c-0.5,1.1-1.3,2-2.6,2.5l-1-1.5c1.9-0.7,2.6-2.3,2.6-3.9V21h-2.2
									v-1.6H67V21h-2v0.4c0,1.5,0.7,2.9,2.4,3.6L66.5,26.5z M62.9,27.4h9.5v4.9h-2V29h-7.5V27.4z M67.8,21.9v-3.2h1.8v8.1h-1.8
									v-3.3h-1.5v-1.6H67.8z M72.4,18.5v8.4h-1.9v-8.4H72.4z"/>
								<path class="st3" d="M87,29.1v1.6H74.4v-1.6H87z M85.6,27.2h-9.7v-7.7h9.6v1.6h-7.6v1.5h7.3v1.5h-7.3v1.5h7.7V27.2z"/>
							</g>
						</g>
						<g id="head2" transform="translate(130.000000, 0.000000)">
							<path id="bg_3_" class="st8" d="M8,0h124c4.4,0,8,3.6,8,8v34c0,4.4-3.6,8-8,8H8c-4.4,0-8-3.6-8-8V8C0,3.6,3.6,0,8,0z"/>
							<g class="st2">
								<path class="st3" d="M45.9,27.5c1.3,0,2.5-0.1,3.8-0.3l0.1,1.6c-1.7,0.3-3.1,0.4-4.9,0.4h-1v-9.1H49v1.6h-3.2V27.5z
									 M55.4,18.5v13.8h-1.9v-6.9h-1.2v6.3h-1.8V18.7h1.8v5.1h1.2v-5.3H55.4z"/>
								<path class="st3" d="M64.5,26.1c-1.5-0.5-2.5-1.4-3-2.6c-0.6,1.4-1.7,2.4-3.2,3l-1-1.6c2.3-0.8,3.2-2.6,3.2-4.5v-1.2h2v1.4
									c0,1.7,0.9,3.3,3.1,4L64.5,26.1z M68.4,29.6c0,1.7-1.8,2.7-4.7,2.7c-2.9,0-4.7-1-4.7-2.7c0-1.7,1.8-2.7,4.7-2.7
									C66.6,27,68.4,28,68.4,29.6z M66.4,29.6c0-0.8-0.9-1.1-2.7-1.1c-1.8,0-2.7,0.4-2.7,1.1c0,0.8,0.9,1.1,2.7,1.1
									C65.5,30.8,66.4,30.4,66.4,29.6z M70,21.7v1.6h-1.8v3.3h-2v-8.2h2v3.2H70z"/>
								<path class="st3" d="M78.9,25.4c-1.6-0.4-2.7-1.3-3.3-2.5c-0.6,1.3-1.8,2.3-3.4,2.8l-0.9-1.5c2.1-0.6,3.1-2,3.3-3.5h-2.8
									v-1.6h7.5v1.6h-2.7c0.1,1.3,1.2,2.7,3.2,3.2L78.9,25.4z M83,30.7v1.5h-9.5v-3.8h7.2v-0.8h-7.2v-1.5h9.2v3.7h-7.2v0.9H83z
									 M82.6,25.6h-2v-7.1h2V25.6z"/>
								<path class="st3" d="M93.5,27.3c-2.9,0.5-6.1,0.6-8.5,0.6l-0.2-1.5c1,0,2.1,0,3.3,0v-0.8c-1.5-0.2-2.4-1-2.4-2.1
									c0-1.3,1.3-2.1,3.4-2.1c2,0,3.4,0.8,3.4,2.1c0,1.1-0.9,1.8-2.4,2.1v0.7c1.1-0.1,2.2-0.2,3.3-0.3L93.5,27.3z M93,21h-7.8
									v-1.4h2.9v-1.2h2v1.2H93V21z M88.7,30.5h7.7V32h-9.7v-3.5h2V30.5z M89.1,24.3c0.9,0,1.5-0.3,1.5-0.8c0-0.5-0.6-0.8-1.5-0.8
									c-0.9,0-1.5,0.3-1.5,0.8C87.6,24,88.1,24.3,89.1,24.3z M97.6,23v1.6h-1.7v4.6h-2V18.5h2V23H97.6z"/>
							</g>
						</g>
					</g>
					<g id="others" transform="translate(280.000000, 0.000000)">
						<g id="_x31__1_">
							<path id="bg_4_" class="st9" d="M8,0h134c4.4,0,8,3.6,8,8v34c0,4.4-3.6,8-8,8H8c-4.4,0-8-3.6-8-8V8C0,3.6,3.6,0,8,0z"/>
							<g class="st2">
								<path class="st3" d="M55.4,19.9c0,4.2-1.4,7.7-6.3,10l-1-1.6c3.5-1.7,5.1-3.9,5.3-6.9h-4.6v-1.6H55.4z M59.5,18.5v13.8h-2
									V18.5H59.5z"/>
								<path class="st3" d="M74.4,29.1v1.6H61.8v-1.6h5.3v-2.7h2v2.7H74.4z M62.2,25.4c3.1-0.4,4.7-1.9,4.8-3.4h-4.2v-1.6h4.2v-1.7
									h2v1.7h4.2v1.6h-4.2c0.2,1.5,1.7,3.1,4.8,3.4l-0.7,1.6c-2.5-0.3-4.2-1.3-5.1-2.8c-0.9,1.4-2.7,2.4-5.1,2.8L62.2,25.4z"/>
								<path class="st3" d="M82.2,25.3c-0.7,0.7-1.6,1.1-2.7,1.1c-2,0-3.6-1.5-3.6-3.6c0-2.1,1.6-3.6,3.6-3.6c1.1,0,2,0.4,2.7,1.1
									h3.1v-1.9h2v10.1h-2v-3.3H82.2z M79.5,24.7c1,0,1.8-0.7,1.8-1.9c0-1.1-0.8-1.8-1.8-1.8c-1,0-1.8,0.7-1.8,1.8
									C77.7,24,78.4,24.7,79.5,24.7z M87.5,30.5V32h-9.4v-4.5h2v2.9H87.5z M83,22c0.1,0.3,0.1,0.6,0.1,0.9c0,0.3,0,0.6-0.1,0.9
									h2.2V22H83z"/>
								<path class="st3" d="M101.9,26.7h-5.3v5.5h-2v-5.5h-5.2v-1.6h8.7c0.3-1.8,0.4-3.1,0.4-4.3h-7.6v-1.6h9.6v1.2
									c0,1.3,0,2.7-0.3,4.6h1.8V26.7z"/>
							</g>
						</g>
						<g id="_x32__1_" transform="translate(317.000000, 0.000000)">
							<path id="bg_5_" class="st9" d="M8,0h134c4.4,0,8,3.6,8,8v34c0,4.4-3.6,8-8,8H8c-4.4,0-8-3.6-8-8V8C0,3.6,3.6,0,8,0z"/>
							<g class="st2">
								<path class="st3" d="M70.1,15.4c0,1.9-1.6,3.3-3.8,3.3s-3.8-1.4-3.8-3.3c0-2,1.6-3.3,3.8-3.3S70.1,13.5,70.1,15.4z
									 M64.5,15.4c0,1,0.8,1.7,1.8,1.7c1,0,1.8-0.6,1.8-1.7c0-1-0.8-1.7-1.8-1.7C65.3,13.8,64.5,14.4,64.5,15.4z M73.8,19.9v5.2
									h-9.2v-5.2H73.8z M66.6,21.5v2.1h5.3v-2.1H66.6z M73.8,11.5v7.8h-2v-7.8H73.8z"/>
								<path class="st3" d="M83.3,19.1c-1.5-0.5-2.5-1.4-3-2.6c-0.6,1.4-1.7,2.4-3.2,3l-1-1.6c2.3-0.8,3.2-2.6,3.2-4.5v-1.2h2v1.4
									c0,1.7,0.9,3.3,3.1,4L83.3,19.1z M87.2,22.6c0,1.7-1.8,2.7-4.7,2.7c-2.9,0-4.7-1-4.7-2.7c0-1.7,1.8-2.7,4.7-2.7
									C85.4,20,87.2,21,87.2,22.6z M85.2,22.6c0-0.8-0.9-1.1-2.7-1.1c-1.8,0-2.7,0.4-2.7,1.1c0,0.8,0.9,1.1,2.7,1.1
									C84.3,23.8,85.2,23.4,85.2,22.6z M88.8,14.7v1.6H87v3.3h-2v-8.2h2v3.2H88.8z"/>
							</g>
							<g class="st2">
								<path class="st3" d="M21.3,33.6h2.2c1.6,0,2.8,0.6,2.8,2.2c0,1.6-1.2,2.3-2.8,2.3h-1.1V41h-1.2V33.6z M23.4,37.3
									c1.2,0,1.7-0.5,1.7-1.4c0-1-0.6-1.3-1.8-1.3h-1v2.7H23.4z"/>
								<path class="st3" d="M27.6,33h1.1v2.1l0,1.1c0.5-0.5,1-0.9,1.8-0.9c1.2,0,1.7,0.8,1.7,2.2V41h-1.1v-3.3
									c0-0.9-0.3-1.3-0.9-1.3c-0.5,0-0.9,0.3-1.3,0.8V41h-1.1V33z"/>
								<path class="st3" d="M33.8,40.1h1.6v-5.1h-1.3v-0.7c0.7-0.1,1.2-0.3,1.6-0.6h0.9v6.4H38V41h-4.2V40.1z"/>
							</g>
							<g class="st2">
								<path class="st3" d="M67.3,33.6h2.2c1.6,0,2.8,0.6,2.8,2.2c0,1.6-1.2,2.3-2.8,2.3h-1.1V41h-1.2V33.6z M69.4,37.3
									c1.2,0,1.7-0.5,1.7-1.4c0-1-0.6-1.3-1.8-1.3h-1v2.7H69.4z"/>
								<path class="st3" d="M73.6,33h1.1v2.1l0,1.1c0.5-0.5,1-0.9,1.8-0.9c1.2,0,1.7,0.8,1.7,2.2V41h-1.1v-3.3
									c0-0.9-0.3-1.3-0.9-1.3c-0.5,0-0.9,0.3-1.3,0.8V41h-1.1V33z"/>
								<path class="st3" d="M79.4,40.3c2.2-1.9,3.3-3.3,3.3-4.6c0-0.8-0.4-1.3-1.2-1.3c-0.6,0-1.1,0.4-1.4,0.8l-0.6-0.6
									c0.6-0.7,1.3-1.1,2.2-1.1c1.3,0,2.2,0.9,2.2,2.2c0,1.4-1.1,2.9-2.7,4.4c0.4,0,0.8-0.1,1.2-0.1h1.8v1h-4.7V40.3z"/>
							</g>
							<g class="st2">
								<path class="st3" d="M117.3,33.6h2.2c1.6,0,2.8,0.6,2.8,2.2c0,1.6-1.2,2.3-2.8,2.3h-1.1V41h-1.2V33.6z M119.4,37.3
									c1.2,0,1.7-0.5,1.7-1.4c0-1-0.6-1.3-1.8-1.3h-1v2.7H119.4z"/>
								<path class="st3" d="M123.6,33h1.1v2.1l0,1.1c0.5-0.5,1-0.9,1.8-0.9c1.2,0,1.7,0.8,1.7,2.2V41h-1.1v-3.3
									c0-0.9-0.3-1.3-0.9-1.3c-0.5,0-0.9,0.3-1.3,0.8V41h-1.1V33z"/>
								<path class="st3" d="M129.3,40.1l0.6-0.7c0.4,0.4,1,0.8,1.7,0.8c0.8,0,1.4-0.5,1.4-1.2c0-0.8-0.5-1.3-2.2-1.3v-0.8
									c1.4,0,1.9-0.5,1.9-1.3c0-0.7-0.4-1.1-1.1-1.1c-0.6,0-1,0.3-1.5,0.7l-0.6-0.7c0.6-0.5,1.3-0.9,2.1-0.9
									c1.3,0,2.2,0.7,2.2,1.9c0,0.8-0.5,1.4-1.3,1.7v0c0.8,0.2,1.5,0.8,1.5,1.8c0,1.3-1.1,2.1-2.5,2.1
									C130.5,41.1,129.8,40.7,129.3,40.1z"/>
							</g>
						</g>
						<g id="_x33__2_" transform="translate(157.000000, 0.000000)">
							<path id="bg_6_" class="st9" d="M8,0h134c4.4,0,8,3.6,8,8v34c0,4.4-3.6,8-8,8H8c-4.4,0-8-3.6-8-8V8C0,3.6,3.6,0,8,0z"/>
							<g class="st2">
								<path class="st3" d="M62.8,26.8c-1.5-0.5-2.5-1.5-3.1-2.7c-0.6,1.4-1.7,2.5-3.3,3l-1-1.6c2.3-0.7,3.3-2.5,3.3-4.3V21h-2.7
									v-1.6h7.4V21h-2.7v0.2c0,1.6,0.9,3.3,3.1,4.1L62.8,26.8z M67.3,30.5V32h-9.4v-4.3h2v2.8H67.3z M65,22v-3.6h2v10.1h-2v-4.9
									h-2.2V22H65z"/>
								<path class="st3" d="M77,22.4c0,1.9-1.6,3.3-3.7,3.3c-2.1,0-3.8-1.4-3.8-3.3c0-2,1.6-3.3,3.8-3.3C75.3,19.1,77,20.5,77,22.4
									z M71.4,22.4c0,1,0.8,1.7,1.8,1.7c1,0,1.8-0.6,1.8-1.7c0-1-0.8-1.7-1.8-1.7C72.2,20.8,71.4,21.4,71.4,22.4z M80.7,26.9v5.2
									h-9.2v-5.2H80.7z M73.5,28.5v2.1h5.3v-2.1H73.5z M80.7,18.5v7.8h-2v-7.8H80.7z"/>
								<path class="st3" d="M90.2,26.1c-1.5-0.5-2.5-1.4-3-2.6c-0.6,1.4-1.7,2.4-3.2,3l-1-1.6c2.3-0.8,3.2-2.6,3.2-4.5v-1.2h2v1.4
									c0,1.7,0.9,3.3,3.1,4L90.2,26.1z M94.1,29.6c0,1.7-1.8,2.7-4.7,2.7c-2.9,0-4.7-1-4.7-2.7c0-1.7,1.8-2.7,4.7-2.7
									C92.3,27,94.1,28,94.1,29.6z M92.1,29.6c0-0.8-0.9-1.1-2.7-1.1c-1.8,0-2.7,0.4-2.7,1.1c0,0.8,0.9,1.1,2.7,1.1
									C91.2,30.8,92.1,30.4,92.1,29.6z M95.8,21.7v1.6h-1.8v3.3h-2v-8.2h2v3.2H95.8z"/>
							</g>
						</g>
						<g id="_x34_" transform="translate(477.000000, 0.000000)">
							<path id="bg_7_" class="st9" d="M8,0h134c4.4,0,8,3.6,8,8v34c0,4.4-3.6,8-8,8H8c-4.4,0-8-3.6-8-8V8C0,3.6,3.6,0,8,0z"/>
							<g class="st2">
								<path class="st3" d="M53.4,21.6c0,2.6,1.1,5.1,3.4,6.1l-1.1,1.6c-1.6-0.7-2.7-2.1-3.3-3.8c-0.6,1.8-1.7,3.3-3.4,4.1
									l-1.2-1.6c2.4-1,3.6-3.7,3.6-6.4v-2h2V21.6z M59.5,18.5v13.9h-2V18.5H59.5z"/>
								<path class="st3" d="M69.1,26.3c-1.5-0.5-2.6-1.4-3.2-2.5c-0.6,1.4-1.7,2.5-3.3,3l-1-1.5c2.2-0.8,3.2-2.5,3.3-4.2h-2.7v-1.6
									h7.5V21h-2.7c0,1.6,1,3.1,3.2,3.8L69.1,26.3z M72.9,29.6c0,1.7-1.8,2.7-4.7,2.7c-2.9,0-4.7-1-4.7-2.7c0-1.7,1.8-2.7,4.7-2.7
									C71.1,26.9,72.9,27.9,72.9,29.6z M70.9,29.6c0-0.8-0.9-1.2-2.7-1.2c-1.8,0-2.7,0.4-2.7,1.2c0,0.8,0.9,1.2,2.7,1.2
									C70,30.8,70.9,30.4,70.9,29.6z M74.5,21.7v1.6h-1.8v3.4h-2v-8.2h2v3.2H74.5z"/>
								<path class="st3" d="M82.9,25.8v0.8h3.7V30H79v0.7H87v1.4h-9.9v-3.5h7.6V28h-7.6v-1.4h3.8v-0.8h-5.2v-1.5h12.4v1.5H82.9z
									 M76.2,22.5c2.8-0.1,4.1-0.8,4.5-1.6h-3.8v-1.4h4v-1.1h2v1.1h4.1V21h-3.8c0.4,0.8,1.7,1.4,4.5,1.6L87,24
									c-2.6-0.1-4.3-0.8-5.2-1.8c-0.9,1-2.6,1.7-5.2,1.8L76.2,22.5z"/>
								<path class="st3" d="M94.8,21.6c0,2.6,1.1,5.1,3.4,6.1l-1.1,1.6c-1.6-0.7-2.7-2.1-3.3-3.8c-0.6,1.8-1.7,3.3-3.4,4.1
									l-1.2-1.6c2.4-1,3.6-3.7,3.6-6.4v-2h2V21.6z M100.9,18.5v13.9h-2V18.5H100.9z"/>
							</g>
						</g>
					</g>
					<g id="ìˆ˜ì§_divider" transform="translate(279.000000, 60.000000)">
						<line id="divider" class="st10" x1="1" y1="0" x2="1" y2="191"/>
						<line id="divider_1_" class="st10" x1="159" y1="0" x2="159" y2="191"/>
						<line id="divider_2_" class="st10" x1="319" y1="0" x2="319" y2="191"/>
						<line id="divider_3_" class="st10" x1="369" y1="0" x2="369" y2="191"/>
						<line id="divider_4_" class="st10" x1="419" y1="0" x2="419" y2="191"/>
						<line id="divider_5_" class="st10" x1="479" y1="0" x2="479" y2="191"/>
					</g>
					<line id="divider_6_" class="st11" x1="0" y1="111.5" x2="907" y2="111.5"/>
					<line id="divider_7_" class="st11" x1="0" y1="175.5" x2="907" y2="175.5"/>
					<line id="divider_8_" class="st11" x1="0" y1="256" x2="907" y2="256"/>
					<g id="bars" transform="translate(289.000000, 60.000000)">
						<g id="bar1">
							<path id="bar" class="st12" d="M21,0.5h566c11.3,0,20.5,9.2,20.5,20.5l0,0c0,11.3-9.2,20.5-20.5,20.5H21
								C9.7,41.5,0.5,32.3,0.5,21l0,0C0.5,9.7,9.7,0.5,21,0.5z"/>
							<g id="text" transform="translate(214.000000, 10.000000)">
								<g>
									<g class="st2">
										<path class="st3" d="M1.3,6.9h1.3v9h4.3V17H1.3V6.9z"/>
										<path class="st3" d="M12.3,17l-0.1-0.9h0c-0.4,0.6-1.2,1.1-2.2,1.1c-1.5,0-2.2-1-2.2-2.1c0-1.8,1.6-2.7,4.4-2.7v-0.1
											c0-0.6-0.2-1.7-1.7-1.7c-0.7,0-1.4,0.2-1.9,0.5l-0.3-0.9c0.6-0.4,1.5-0.6,2.4-0.6c2.2,0,2.8,1.5,2.8,3v2.7
											c0,0.6,0,1.2,0.1,1.7H12.3z M12.1,13.3c-1.4,0-3.1,0.2-3.1,1.6c0,0.9,0.6,1.3,1.2,1.3c0.9,0,1.5-0.6,1.8-1.2
											c0-0.1,0.1-0.3,0.1-0.4V13.3z"/>
										<path class="st3" d="M15.9,9.7l1.6,4.3c0.2,0.5,0.3,1,0.5,1.5h0c0.1-0.4,0.3-1,0.5-1.5l1.4-4.3h1.4l-2,5.2
											c-0.9,2.5-1.6,3.8-2.5,4.5c-0.6,0.6-1.3,0.8-1.6,0.9l-0.3-1.1c0.3-0.1,0.8-0.3,1.2-0.6c0.4-0.3,0.8-0.8,1.1-1.5
											c0.1-0.1,0.1-0.2,0.1-0.3c0-0.1,0-0.2-0.1-0.3l-2.7-6.7H15.9z"/>
										<path class="st3" d="M22.5,6.4h1.3V17h-1.3V6.4z"/>
										<path class="st3" d="M30,17l-0.1-0.9h0c-0.4,0.6-1.2,1.1-2.2,1.1c-1.5,0-2.2-1-2.2-2.1c0-1.8,1.6-2.7,4.4-2.7v-0.1
											c0-0.6-0.2-1.7-1.7-1.7c-0.7,0-1.4,0.2-1.9,0.5L26,10.2c0.6-0.4,1.5-0.6,2.4-0.6c2.2,0,2.8,1.5,2.8,3v2.7
											c0,0.6,0,1.2,0.1,1.7H30z M29.9,13.3c-1.4,0-3.1,0.2-3.1,1.6c0,0.9,0.6,1.3,1.2,1.3c0.9,0,1.5-0.6,1.8-1.2
											c0-0.1,0.1-0.3,0.1-0.4V13.3z"/>
									</g>
									<g class="st2">
										<path class="st3" d="M41.7,4.2h-1.6V3.6h4v0.6h-1.6V9h-0.7V4.2z"/>
										<path class="st3" d="M49.2,6.6c0-0.8-0.1-1.7-0.1-2.3h0c-0.2,0.6-0.4,1.3-0.7,2l-1,2.6h-0.5l-0.9-2.6
											c-0.3-0.8-0.5-1.5-0.6-2.1h0c0,0.7-0.1,1.6-0.1,2.4L45.2,9h-0.7l0.4-5.4h0.9l0.9,2.6c0.2,0.7,0.4,1.3,0.5,1.8h0
											c0.1-0.5,0.3-1.1,0.6-1.8l1-2.6h0.9L50,9h-0.7L49.2,6.6z"/>
									</g>
								</g>
								<g class="st2">
									<path class="st3" d="M68.4,13.9c-1.2-0.4-2.1-1.1-2.6-2.1c-0.5,1-1.3,1.8-2.6,2.2l-0.8-1.2c1.8-0.6,2.5-1.9,2.5-3.2v0h-2.2
										V8.3H65V7.1h1.6v1.2h2.2v1.2h-2.2v0c0,1.3,0.8,2.5,2.6,3.1L68.4,13.9z M72,16.6v1.3h-7.5v-3.4h1.6v2.1H72z M70.2,10.2V7
										h1.6v8.2h-1.6v-3.7h-1.8v-1.3H70.2z"/>
									<path class="st3" d="M78.8,12.5c-0.5,0.6-1.3,0.9-2.2,0.9c-1.6,0-2.9-1.2-2.9-2.9c0-1.6,1.3-2.9,2.9-2.9
										c0.9,0,1.6,0.3,2.1,0.9h2.5V7h1.6v8.1h-1.6v-2.6H78.8z M76.6,12c0.8,0,1.4-0.6,1.4-1.5C78,9.6,77.4,9,76.6,9
										c-0.8,0-1.4,0.6-1.4,1.5C75.2,11.4,75.8,12,76.6,12z M83,16.6v1.3h-7.5v-3.6h1.6v2.3H83z M79.4,9.8c0,0.2,0.1,0.5,0.1,0.7
										c0,0.2,0,0.5-0.1,0.7h1.8V9.8H79.4z"/>
									<path class="st3" d="M90.4,12.6v0.7h3v2.8h-6v0.6h6.3v1.2h-7.9V15h6.1v-0.6h-6.1v-1.2h3v-0.7h-4.2v-1.2h10v1.2H90.4z
										 M93.3,10.8h-7.5V7.3h7.5V10.8z M91.8,8.5h-4.4v1h4.4V8.5z"/>
									<path class="st3" d="M104.3,13.4c-1.2-0.4-2.1-1.2-2.5-2.3c-0.5,1.1-1.4,2-2.7,2.5l-0.8-1.3c1.8-0.6,2.6-2.2,2.6-3.6V7.6
										h1.6v1.1c0,1.5,0.8,2.9,2.6,3.4L104.3,13.4z M107.8,16.6v1.3h-7.6v-3.6h1.6v2.3H107.8z M107.5,15h-1.6V7h1.6V15z"/>
									<path class="st3" d="M112.5,13c-1.7,0-3-1.1-3-2.7s1.3-2.7,3-2.7c1.7,0,3,1.1,3,2.7S114.2,13,112.5,13z M110.7,13.9h7.4V18
										h-1.6v-2.8h-5.8V13.9z M112.5,11.7c0.8,0,1.5-0.5,1.5-1.4c0-0.9-0.6-1.4-1.5-1.4c-0.8,0-1.5,0.5-1.5,1.4
										C111,11.1,111.6,11.7,112.5,11.7z M118.1,9.7v1.1h1.4v1.3h-1.4v1.4h-1.6V7h1.6v1.4h1.4v1.3H118.1z"/>
									<path class="st3" d="M125,14.2c1,0,2-0.1,3.1-0.3l0.1,1.3c-1.4,0.3-2.7,0.3-4,0.3h-0.8v-4.4h2.4V9.3h-2.4V8.1h3.9v4.2H125
										V14.2z M128.9,7.2h1.5v10.3h-1.5V12h-1.1v-1.3h1.1V7.2z M132.6,7v11h-1.5V7H132.6z"/>
									<path class="st3" d="M137.3,12.4c-1.7,0-3-1.1-3-2.5c0-1.5,1.3-2.5,3-2.5c1.7,0,2.9,1.1,2.9,2.5
										C140.3,11.3,139,12.4,137.3,12.4z M137.3,11.1c0.8,0,1.4-0.5,1.4-1.2c0-0.8-0.6-1.2-1.4-1.2s-1.4,0.5-1.4,1.2
										C135.9,10.6,136.5,11.1,137.3,11.1z M143.7,16.7v1.2H136v-3.1h5.8v-0.7H136V13h7.4v3h-5.8v0.7H143.7z M143.4,12.5h-1.6V7
										h1.6V12.5z"/>
									<path class="st3" d="M147.3,14.2c1.6,0,2.9-0.1,4.3-0.3l0.1,1.3c-1.7,0.3-3.2,0.4-5.1,0.4h-0.9v-4.6h3.5V9.2h-3.5V7.9h5.1
										v4.3h-3.5V14.2z M155.5,12.5h-1.6v5.6h-1.6V7h1.6v4.2h1.6V12.5z"/>
									<path class="st3" d="M164.8,12.8v0.7h3v2.7h-6v0.6h6.3v1.1h-7.9v-2.8h6.1v-0.5h-6.1v-1.1h3.1v-0.7H159v-1.2h9.9v1.2H164.8z
										 M159.4,10.2c2.2-0.1,3.3-0.6,3.6-1.2h-3V7.8h3.2V7h1.6v0.9h3.2V9H165c0.3,0.6,1.4,1.2,3.6,1.2l-0.4,1.2
										c-2.1-0.1-3.4-0.6-4.1-1.4c-0.7,0.8-2.1,1.3-4.1,1.4L159.4,10.2z"/>
									<path class="st3" d="M174.3,9.4c0,2.1,0.9,4.1,2.7,4.9l-0.9,1.3c-1.3-0.6-2.1-1.7-2.6-3c-0.5,1.5-1.4,2.7-2.7,3.3l-0.9-1.3
										c1.9-0.8,2.8-3,2.8-5.1V7.8h1.6V9.4z M179.2,7v11.1h-1.6V7H179.2z"/>
								</g>
							</g>
						</g>
						<g id="bar2" transform="translate(0.000000, 62.000000)">
							<path id="bar_1_" class="st12" d="M21,0.5h199c11.3,0,20.5,9.2,20.5,20.5l0,0c0,11.3-9.2,20.5-20.5,20.5H21
								C9.7,41.5,0.5,32.3,0.5,21l0,0C0.5,9.7,9.7,0.5,21,0.5z"/>
						</g>
						<g id="bar3" transform="translate(0.000000, 134.000000)">
							<path id="bar_2_" class="st12" d="M21,0.5h97c11.3,0,20.5,9.2,20.5,20.5l0,0c0,11.3-9.2,20.5-20.5,20.5H21
								C9.7,41.5,0.5,32.3,0.5,21l0,0C0.5,9.7,9.7,0.5,21,0.5z"/>
						</g>
						<g id="bar3_1_" transform="translate(0.000000, 206.000000)">
							<path id="bar_3_" class="st12" d="M21,0.5h97c11.3,0,20.5,9.2,20.5,20.5l0,0c0,11.3-9.2,20.5-20.5,20.5H21
								C9.7,41.5,0.5,32.3,0.5,21l0,0C0.5,9.7,9.7,0.5,21,0.5z"/>
						</g>
					</g>
				</g>
				<g id="í‘œ_1_" transform="translate(47.000000, 706.000000)">
					<g id="project_1_">
						<g id="_x31__2_" transform="translate(37.000000, 63.000000)">
							<g class="st2">
								<path d="M1.6,13h1.7v4.5h4.7V13h1.7v11H8.1v-5H3.3v5H1.6V13z"/>
								<path d="M14.7,18.3l-3-5.3h1.9l1.3,2.6c0.3,0.5,0.5,1,0.8,1.7h0.1c0.3-0.7,0.5-1.2,0.8-1.7l1.3-2.6h1.8l-3,5.4L20,24H18
									l-1.5-2.7c-0.3-0.6-0.6-1.1-0.9-1.8h-0.1c-0.3,0.7-0.6,1.2-0.9,1.8L13.3,24h-1.8L14.7,18.3z"/>
								<path d="M20.6,22.7l0.8-1.1c0.6,0.7,1.5,1.2,2.6,1.2c1.2,0,2.1-0.7,2.1-1.8c0-1.2-0.8-2-3.3-2v-1.3c2.2,0,2.9-0.8,2.9-1.9
									c0-1-0.6-1.6-1.7-1.6c-0.9,0-1.6,0.4-2.2,1L21,14.1c0.9-0.8,1.9-1.3,3.2-1.3c2,0,3.4,1,3.4,2.9c0,1.3-0.7,2.2-1.9,2.6v0.1
									c1.3,0.3,2.3,1.3,2.3,2.8c0,2-1.7,3.2-3.7,3.2C22.5,24.2,21.3,23.5,20.6,22.7z"/>
								<path d="M29.4,18.4c0-3.8,1.4-5.7,3.6-5.7c2.2,0,3.6,1.9,3.6,5.7c0,3.8-1.4,5.8-3.6,5.8C30.8,24.2,29.4,22.3,29.4,18.4z
									 M34.9,18.4c0-3.2-0.8-4.3-1.9-4.3s-1.9,1.2-1.9,4.3c0,3.2,0.8,4.4,1.9,4.4S34.9,21.6,34.9,18.4z"/>
								<path d="M38.6,22.6H41v-7.7h-2v-1.1c1-0.2,1.8-0.5,2.4-0.8h1.3v9.6h2.2V24h-6.3V22.6z"/>
							</g>
							<g class="st2">
								<path d="M151.8,11.2c0.3,0,0.7-0.1,1-0.1l0.1,0.9c-1.7,0.3-3.9,0.3-5.3,0.3l-0.1-1c0.3,0,0.6,0,1,0v-5h-0.8v-1h4.9v1h-0.8
									V11.2z M149.6,11.3c0.4,0,0.7,0,1.1,0V6.4h-1.1V11.3z M153.6,4.3h1.2v10.1h-1.2v-4h-1.2v-1h1.2V8.1h-1.2v-1h1.2V4.3z
									 M156.9,4.1v10.8h-1.2V4.1H156.9z"/>
								<path d="M163.8,7c-0.7,1.7-2.3,2.9-4.6,3.6l-0.5-1c2.5-0.7,3.9-2,4.2-3.7h-3.6v-1h4.9c0,0.4,0,0.7-0.1,1.1h2.2V4.1h1.2v6.4
									h-1.2V9.2h-2.6v-1h2.6V7H163.8z M167.6,12.7c0,1.3-1.4,2.1-3.6,2.1s-3.6-0.8-3.6-2.1c0-1.3,1.4-2.1,3.6-2.1
									S167.6,11.4,167.6,12.7z M166.4,12.7c0-0.7-0.9-1.2-2.4-1.2c-1.5,0-2.4,0.4-2.4,1.2c0,0.8,0.9,1.2,2.4,1.2
									C165.5,13.9,166.4,13.5,166.4,12.7z"/>
								<path d="M175.4,5.2c0,3.2-1.3,6-5,7.8l-0.7-1c2.8-1.4,4.2-3.3,4.4-5.8h-3.9v-1H175.4z M178.6,4.1v10.8h-1.2V4.1H178.6z"/>
							</g>
							<text transform="matrix(1 0 0 1 180.0599 14)" class="st6 st7"> </text>
							<g class="st2">
								<path d="M151.8,27.5v1h-4.2v2h-1.2v-2H142v-1H151.8z M150.8,26.7c-1.7-0.3-3.2-1.1-3.9-2.3c-0.7,1.2-2.1,2.1-3.9,2.4l-0.5-1
									c2.1-0.3,3.7-1.6,3.7-3v-0.4h1.3v0.4c0,1.3,1.6,2.6,3.7,2.9L150.8,26.7z M144.5,31.7h6.3v1h-7.5v-3.2h1.2V31.7z"/>
								<path d="M159.8,28.9c-2.3,0.4-4.8,0.5-6.7,0.5l-0.1-1c0.8,0,1.8,0,2.8,0v-0.7c-1.2-0.1-2-0.7-2-1.6c0-1,1-1.7,2.6-1.7
									s2.6,0.6,2.6,1.7c0,0.9-0.7,1.5-1.9,1.6v0.7c0.9-0.1,1.9-0.1,2.8-0.3L159.8,28.9z M159.4,24h-6.2v-0.9h2.5v-1h1.2v1h2.5V24z
									 M155.8,31.7h6.1v1h-7.4V30h1.2V31.7z M156.3,26.8c0.9,0,1.4-0.3,1.4-0.8c0-0.5-0.6-0.8-1.4-0.8c-0.9,0-1.4,0.3-1.4,0.8
									C154.9,26.5,155.5,26.8,156.3,26.8z M163,25.8v1h-1.5v3.8h-1.2v-8.5h1.2v3.7H163z"/>
								<path d="M169.9,28.2c-1.2-0.4-2.1-1.2-2.5-2.2c-0.5,1.2-1.4,2.1-2.7,2.5l-0.6-1c1.7-0.6,2.7-2,2.7-3.5v-0.2h-2.3v-1h5.8v1
									h-2.3v0.2c0,1.3,0.9,2.6,2.6,3.1L169.9,28.2z M172.7,30.9c0,1.3-1.4,2.1-3.6,2.1c-2.2,0-3.6-0.8-3.6-2.1
									c0-1.3,1.4-2.1,3.6-2.1C171.3,28.8,172.7,29.6,172.7,30.9z M171.5,30.9c0-0.7-0.9-1.1-2.4-1.1c-1.5,0-2.4,0.4-2.4,1.1
									c0,0.7,0.9,1.1,2.4,1.1C170.6,32,171.5,31.6,171.5,30.9z M174.1,24.7v1h-1.5v2.8h-1.2v-6.5h1.2v2.6H174.1z"/>
								<path d="M179.9,26.8c0,2.4-0.9,3.8-2.3,3.8s-2.3-1.5-2.3-3.8c0-2.4,0.9-3.9,2.3-3.9S179.9,24.4,179.9,26.8z M178.8,26.8
									c0-1.7-0.5-2.7-1.2-2.7s-1.2,1-1.2,2.7c0,1.7,0.5,2.7,1.2,2.7S178.8,28.5,178.8,26.8z M184.4,22.1v10.8h-1.2v-5.6H182v5.1
									h-1.2V22.3h1.2v4h1.2v-4.2H184.4z"/>
							</g>
						</g>
						<g id="_x32__2_" transform="translate(37.000000, 138.000000)">
							<g class="st2">
								<path d="M2.1,6h1.7v4.5h4.7V6h1.7v11H8.6v-5H3.8v5H2.1V6z"/>
								<path d="M15.2,11.3l-3-5.3h1.9l1.3,2.6c0.3,0.5,0.5,1,0.8,1.7h0.1c0.3-0.7,0.5-1.2,0.8-1.7L18.4,6h1.8l-3,5.4l3.2,5.6h-1.9
									l-1.5-2.7c-0.3-0.6-0.6-1.1-0.9-1.8h-0.1c-0.3,0.7-0.6,1.2-0.9,1.8L13.8,17H12L15.2,11.3z"/>
								<path d="M21.1,15.7l0.8-1.1c0.6,0.7,1.5,1.2,2.6,1.2c1.2,0,2.1-0.7,2.1-1.8c0-1.2-0.8-2-3.3-2v-1.3c2.2,0,2.9-0.8,2.9-1.9
									c0-1-0.6-1.6-1.7-1.6c-0.9,0-1.6,0.4-2.2,1l-0.9-1.1c0.9-0.8,1.9-1.3,3.2-1.3c2,0,3.4,1,3.4,2.9c0,1.3-0.7,2.2-1.9,2.6v0.1
									c1.3,0.3,2.3,1.3,2.3,2.8c0,2-1.7,3.2-3.7,3.2C23,17.2,21.8,16.5,21.1,15.7z"/>
								<path d="M29.9,11.4c0-3.8,1.4-5.7,3.6-5.7c2.2,0,3.6,1.9,3.6,5.7c0,3.8-1.4,5.8-3.6,5.8C31.3,17.2,29.9,15.3,29.9,11.4z
									 M35.4,11.4c0-3.2-0.8-4.3-1.9-4.3s-1.9,1.2-1.9,4.3c0,3.2,0.8,4.4,1.9,4.4S35.4,14.6,35.4,11.4z"/>
								<path d="M38.5,16c3.3-2.9,4.9-5,4.9-6.8c0-1.2-0.6-2-1.9-2c-0.9,0-1.6,0.6-2.2,1.2l-1-1c0.9-1,1.9-1.7,3.4-1.7
									c2,0,3.3,1.3,3.3,3.3c0,2.1-1.7,4.3-4,6.6c0.6-0.1,1.3-0.1,1.8-0.1h2.8V17h-7.1V16z"/>
							</g>
							<g class="st2">
								<path d="M141.3,13.2H137v3.8h-1.2v-3.8h-4.2v-1h9.8L141.3,13.2z M132,10.4c2.1-0.3,3.6-1.5,3.7-2.7h-3.3v-1h8v1h-3.3
									c0.1,1.3,1.6,2.4,3.7,2.7l-0.4,1c-1.8-0.3-3.3-1.2-3.9-2.4c-0.7,1.2-2.1,2.1-3.9,2.4L132,10.4z"/>
								<path d="M152.3,14.6v1h-9.8v-1h2.3v-2.8c-0.9-0.5-1.4-1.3-1.4-2.2c0-1.7,1.7-2.8,4-2.8c2.3,0,4,1.1,4,2.8
									c0,1-0.5,1.7-1.4,2.2v2.8H152.3z M144.6,9.5c0,1.2,1.1,1.9,2.8,1.9c1.6,0,2.8-0.7,2.8-1.9c0-1.1-1.1-1.9-2.8-1.9
									C145.8,7.7,144.6,8.4,144.6,9.5z M146.1,14.6h2.7v-2.4c-0.4,0.1-0.9,0.2-1.4,0.2c-0.5,0-0.9,0-1.4-0.1V14.6z"/>
								<path d="M163.4,13.2h-4.3v3.7h-1.2v-3.7h-4.3v-1h9.8V13.2z M154.6,8.9c0-1.5,1.6-2.4,3.9-2.4c2.3,0,3.8,0.9,3.8,2.4
									c0,1.5-1.6,2.4-3.8,2.4C156.2,11.3,154.6,10.4,154.6,8.9z M155.9,8.9c0,0.9,1,1.4,2.6,1.4c1.5,0,2.6-0.5,2.6-1.4
									c0-0.9-1-1.4-2.6-1.4C156.9,7.5,155.9,8,155.9,8.9z"/>
								<path d="M170.1,11.5v0.9h3.1V15H167v0.9h6.5v0.9h-7.7v-2.7h6.2v-0.8h-6.2v-0.9h3.1v-0.9h-4.3v-1h9.8v1H170.1z M165.6,8.1
									c0-1.2,1.4-1.9,3.9-1.9c2.4,0,3.9,0.7,3.9,1.9s-1.4,1.9-3.9,1.9C167.1,9.9,165.6,9.3,165.6,8.1z M166.9,8.1
									c0,0.6,0.9,0.9,2.6,0.9s2.6-0.3,2.6-0.9s-0.9-0.9-2.6-0.9S166.9,7.4,166.9,8.1z"/>
								<path d="M181.4,12.2c-1.2-0.4-2.1-1.2-2.5-2.2c-0.5,1.2-1.4,2.1-2.7,2.5l-0.6-1c1.7-0.6,2.7-2,2.7-3.5V7.9h-2.3v-1h5.8v1
									h-2.3v0.2c0,1.3,0.9,2.6,2.6,3.1L181.4,12.2z M184.2,14.9c0,1.3-1.4,2.1-3.6,2.1c-2.2,0-3.6-0.8-3.6-2.1
									c0-1.3,1.4-2.1,3.6-2.1C182.8,12.8,184.2,13.6,184.2,14.9z M183,14.9c0-0.7-0.9-1.1-2.4-1.1c-1.5,0-2.4,0.4-2.4,1.1
									c0,0.7,0.9,1.1,2.4,1.1C182.1,16,183,15.6,183,14.9z M185.6,8.7v1h-1.5v2.8h-1.2V6.1h1.2v2.6H185.6z"/>
								<path d="M191.5,10.8c0,2.4-0.9,3.8-2.3,3.8s-2.3-1.5-2.3-3.8c0-2.4,0.9-3.9,2.3-3.9S191.5,8.4,191.5,10.8z M190.3,10.8
									c0-1.7-0.5-2.7-1.2-2.7s-1.2,1-1.2,2.7c0,1.7,0.5,2.7,1.2,2.7S190.3,12.5,190.3,10.8z M195.9,6.1v10.8h-1.2v-5.6h-1.2v5.1
									h-1.2V6.3h1.2v4h1.2V6.1H195.9z"/>
							</g>
						</g>
						<g id="head1_1_">
							<path id="bg_8_" class="st8" d="M8,0h104c4.4,0,8,3.6,8,8v34c0,4.4-3.6,8-8,8H8c-4.4,0-8-3.6-8-8V8C0,3.6,3.6,0,8,0z"/>
							<g class="st2">
								<path class="st3" d="M45.6,29.1v1.6H33v-1.6H45.6z M35.9,21.2H34v-1.6h10.5v1.6h-1.9v4.1h1.8V27H34.1v-1.6h1.8V21.2z
									 M40.7,21.2h-2.8v4.1h2.8V21.2z"/>
								<path class="st3" d="M59.4,29.2v1.6H46.8v-1.6h5.2v-2.1h-3.8v-4.7H56v-1.5h-7.7v-1.6h9.7V24h-7.7v1.5h8v1.6h-4.2v2.1H59.4z"
									/>
								<path class="st3" d="M66.5,26.5c-1.2-0.5-2-1.2-2.4-2.2c-0.5,1.1-1.3,2-2.6,2.5l-1-1.5c1.9-0.7,2.6-2.3,2.6-3.9V21h-2.2
									v-1.6H67V21h-2v0.4c0,1.5,0.7,2.9,2.4,3.6L66.5,26.5z M62.9,27.4h9.5v4.9h-2V29h-7.5V27.4z M67.8,21.9v-3.2h1.8v8.1h-1.8
									v-3.3h-1.5v-1.6H67.8z M72.4,18.5v8.4h-1.9v-8.4H72.4z"/>
								<path class="st3" d="M87,29.1v1.6H74.4v-1.6H87z M85.6,27.2h-9.7v-7.7h9.6v1.6h-7.6v1.5h7.3v1.5h-7.3v1.5h7.7V27.2z"/>
							</g>
						</g>
						<g id="head2_1_" transform="translate(130.000000, 0.000000)">
							<path id="bg_9_" class="st8" d="M8,0h124c4.4,0,8,3.6,8,8v34c0,4.4-3.6,8-8,8H8c-4.4,0-8-3.6-8-8V8C0,3.6,3.6,0,8,0z"/>
							<g class="st2">
								<path class="st3" d="M45.9,27.5c1.3,0,2.5-0.1,3.8-0.3l0.1,1.6c-1.7,0.3-3.1,0.4-4.9,0.4h-1v-9.1H49v1.6h-3.2V27.5z
									 M55.4,18.5v13.8h-1.9v-6.9h-1.2v6.3h-1.8V18.7h1.8v5.1h1.2v-5.3H55.4z"/>
								<path class="st3" d="M64.5,26.1c-1.5-0.5-2.5-1.4-3-2.6c-0.6,1.4-1.7,2.4-3.2,3l-1-1.6c2.3-0.8,3.2-2.6,3.2-4.5v-1.2h2v1.4
									c0,1.7,0.9,3.3,3.1,4L64.5,26.1z M68.4,29.6c0,1.7-1.8,2.7-4.7,2.7c-2.9,0-4.7-1-4.7-2.7c0-1.7,1.8-2.7,4.7-2.7
									C66.6,27,68.4,28,68.4,29.6z M66.4,29.6c0-0.8-0.9-1.1-2.7-1.1c-1.8,0-2.7,0.4-2.7,1.1c0,0.8,0.9,1.1,2.7,1.1
									C65.5,30.8,66.4,30.4,66.4,29.6z M70,21.7v1.6h-1.8v3.3h-2v-8.2h2v3.2H70z"/>
								<path class="st3" d="M78.9,25.4c-1.6-0.4-2.7-1.3-3.3-2.5c-0.6,1.3-1.8,2.3-3.4,2.8l-0.9-1.5c2.1-0.6,3.1-2,3.3-3.5h-2.8
									v-1.6h7.5v1.6h-2.7c0.1,1.3,1.2,2.7,3.2,3.2L78.9,25.4z M83,30.7v1.5h-9.5v-3.8h7.2v-0.8h-7.2v-1.5h9.2v3.7h-7.2v0.9H83z
									 M82.6,25.6h-2v-7.1h2V25.6z"/>
								<path class="st3" d="M93.5,27.3c-2.9,0.5-6.1,0.6-8.5,0.6l-0.2-1.5c1,0,2.1,0,3.3,0v-0.8c-1.5-0.2-2.4-1-2.4-2.1
									c0-1.3,1.3-2.1,3.4-2.1c2,0,3.4,0.8,3.4,2.1c0,1.1-0.9,1.8-2.4,2.1v0.7c1.1-0.1,2.2-0.2,3.3-0.3L93.5,27.3z M93,21h-7.8
									v-1.4h2.9v-1.2h2v1.2H93V21z M88.7,30.5h7.7V32h-9.7v-3.5h2V30.5z M89.1,24.3c0.9,0,1.5-0.3,1.5-0.8c0-0.5-0.6-0.8-1.5-0.8
									c-0.9,0-1.5,0.3-1.5,0.8C87.6,24,88.1,24.3,89.1,24.3z M97.6,23v1.6h-1.7v4.6h-2V18.5h2V23H97.6z"/>
							</g>
						</g>
					</g>
					<g id="others_1_" transform="translate(280.000000, 0.000000)">
						<g id="_x31__3_">
							<path id="bg_10_" class="st9" d="M8,0h134c4.4,0,8,3.6,8,8v34c0,4.4-3.6,8-8,8H8c-4.4,0-8-3.6-8-8V8C0,3.6,3.6,0,8,0z"/>
							<g class="st2">
								<path class="st3" d="M55.4,19.9c0,4.2-1.4,7.7-6.3,10l-1-1.6c3.5-1.7,5.1-3.9,5.3-6.9h-4.6v-1.6H55.4z M59.5,18.5v13.8h-2
									V18.5H59.5z"/>
								<path class="st3" d="M74.4,29.1v1.6H61.8v-1.6h5.3v-2.7h2v2.7H74.4z M62.2,25.4c3.1-0.4,4.7-1.9,4.8-3.4h-4.2v-1.6h4.2v-1.7
									h2v1.7h4.2v1.6h-4.2c0.2,1.5,1.7,3.1,4.8,3.4l-0.7,1.6c-2.5-0.3-4.2-1.3-5.1-2.8c-0.9,1.4-2.7,2.4-5.1,2.8L62.2,25.4z"/>
								<path class="st3" d="M82.2,25.3c-0.7,0.7-1.6,1.1-2.7,1.1c-2,0-3.6-1.5-3.6-3.6c0-2.1,1.6-3.6,3.6-3.6c1.1,0,2,0.4,2.7,1.1
									h3.1v-1.9h2v10.1h-2v-3.3H82.2z M79.5,24.7c1,0,1.8-0.7,1.8-1.9c0-1.1-0.8-1.8-1.8-1.8c-1,0-1.8,0.7-1.8,1.8
									C77.7,24,78.4,24.7,79.5,24.7z M87.5,30.5V32h-9.4v-4.5h2v2.9H87.5z M83,22c0.1,0.3,0.1,0.6,0.1,0.9c0,0.3,0,0.6-0.1,0.9
									h2.2V22H83z"/>
								<path class="st3" d="M101.9,26.7h-5.3v5.5h-2v-5.5h-5.2v-1.6h8.7c0.3-1.8,0.4-3.1,0.4-4.3h-7.6v-1.6h9.6v1.2
									c0,1.3,0,2.7-0.3,4.6h1.8V26.7z"/>
							</g>
						</g>
						<g id="_x32__3_" transform="translate(317.000000, 0.000000)">
							<path id="bg_11_" class="st9" d="M8,0h134c4.4,0,8,3.6,8,8v34c0,4.4-3.6,8-8,8H8c-4.4,0-8-3.6-8-8V8C0,3.6,3.6,0,8,0z"/>
							<g class="st2">
								<path class="st3" d="M70.1,15.4c0,1.9-1.6,3.3-3.8,3.3s-3.8-1.4-3.8-3.3c0-2,1.6-3.3,3.8-3.3S70.1,13.5,70.1,15.4z
									 M64.5,15.4c0,1,0.8,1.7,1.8,1.7c1,0,1.8-0.6,1.8-1.7c0-1-0.8-1.7-1.8-1.7C65.3,13.8,64.5,14.4,64.5,15.4z M73.8,19.9v5.2
									h-9.2v-5.2H73.8z M66.6,21.5v2.1h5.3v-2.1H66.6z M73.8,11.5v7.8h-2v-7.8H73.8z"/>
								<path class="st3" d="M83.3,19.1c-1.5-0.5-2.5-1.4-3-2.6c-0.6,1.4-1.7,2.4-3.2,3l-1-1.6c2.3-0.8,3.2-2.6,3.2-4.5v-1.2h2v1.4
									c0,1.7,0.9,3.3,3.1,4L83.3,19.1z M87.2,22.6c0,1.7-1.8,2.7-4.7,2.7c-2.9,0-4.7-1-4.7-2.7c0-1.7,1.8-2.7,4.7-2.7
									C85.4,20,87.2,21,87.2,22.6z M85.2,22.6c0-0.8-0.9-1.1-2.7-1.1c-1.8,0-2.7,0.4-2.7,1.1c0,0.8,0.9,1.1,2.7,1.1
									C84.3,23.8,85.2,23.4,85.2,22.6z M88.8,14.7v1.6H87v3.3h-2v-8.2h2v3.2H88.8z"/>
							</g>
							<g class="st2">
								<path class="st3" d="M21.3,33.6h2.2c1.6,0,2.8,0.6,2.8,2.2c0,1.6-1.2,2.3-2.8,2.3h-1.1V41h-1.2V33.6z M23.4,37.3
									c1.2,0,1.7-0.5,1.7-1.4c0-1-0.6-1.3-1.8-1.3h-1v2.7H23.4z"/>
								<path class="st3" d="M27.6,33h1.1v2.1l0,1.1c0.5-0.5,1-0.9,1.8-0.9c1.2,0,1.7,0.8,1.7,2.2V41h-1.1v-3.3
									c0-0.9-0.3-1.3-0.9-1.3c-0.5,0-0.9,0.3-1.3,0.8V41h-1.1V33z"/>
								<path class="st3" d="M33.8,40.1h1.6v-5.1h-1.3v-0.7c0.7-0.1,1.2-0.3,1.6-0.6h0.9v6.4H38V41h-4.2V40.1z"/>
							</g>
							<g class="st2">
								<path class="st3" d="M67.3,33.6h2.2c1.6,0,2.8,0.6,2.8,2.2c0,1.6-1.2,2.3-2.8,2.3h-1.1V41h-1.2V33.6z M69.4,37.3
									c1.2,0,1.7-0.5,1.7-1.4c0-1-0.6-1.3-1.8-1.3h-1v2.7H69.4z"/>
								<path class="st3" d="M73.6,33h1.1v2.1l0,1.1c0.5-0.5,1-0.9,1.8-0.9c1.2,0,1.7,0.8,1.7,2.2V41h-1.1v-3.3
									c0-0.9-0.3-1.3-0.9-1.3c-0.5,0-0.9,0.3-1.3,0.8V41h-1.1V33z"/>
								<path class="st3" d="M79.4,40.3c2.2-1.9,3.3-3.3,3.3-4.6c0-0.8-0.4-1.3-1.2-1.3c-0.6,0-1.1,0.4-1.4,0.8l-0.6-0.6
									c0.6-0.7,1.3-1.1,2.2-1.1c1.3,0,2.2,0.9,2.2,2.2c0,1.4-1.1,2.9-2.7,4.4c0.4,0,0.8-0.1,1.2-0.1h1.8v1h-4.7V40.3z"/>
							</g>
							<g class="st2">
								<path class="st3" d="M117.3,33.6h2.2c1.6,0,2.8,0.6,2.8,2.2c0,1.6-1.2,2.3-2.8,2.3h-1.1V41h-1.2V33.6z M119.4,37.3
									c1.2,0,1.7-0.5,1.7-1.4c0-1-0.6-1.3-1.8-1.3h-1v2.7H119.4z"/>
								<path class="st3" d="M123.6,33h1.1v2.1l0,1.1c0.5-0.5,1-0.9,1.8-0.9c1.2,0,1.7,0.8,1.7,2.2V41h-1.1v-3.3
									c0-0.9-0.3-1.3-0.9-1.3c-0.5,0-0.9,0.3-1.3,0.8V41h-1.1V33z"/>
								<path class="st3" d="M129.3,40.1l0.6-0.7c0.4,0.4,1,0.8,1.7,0.8c0.8,0,1.4-0.5,1.4-1.2c0-0.8-0.5-1.3-2.2-1.3v-0.8
									c1.4,0,1.9-0.5,1.9-1.3c0-0.7-0.4-1.1-1.1-1.1c-0.6,0-1,0.3-1.5,0.7l-0.6-0.7c0.6-0.5,1.3-0.9,2.1-0.9
									c1.3,0,2.2,0.7,2.2,1.9c0,0.8-0.5,1.4-1.3,1.7v0c0.8,0.2,1.5,0.8,1.5,1.8c0,1.3-1.1,2.1-2.5,2.1
									C130.5,41.1,129.8,40.7,129.3,40.1z"/>
							</g>
						</g>
						<g id="_x33__3_" transform="translate(157.000000, 0.000000)">
							<path id="bg_12_" class="st9" d="M8,0h134c4.4,0,8,3.6,8,8v34c0,4.4-3.6,8-8,8H8c-4.4,0-8-3.6-8-8V8C0,3.6,3.6,0,8,0z"/>
							<g class="st2">
								<path class="st3" d="M62.8,26.8c-1.5-0.5-2.5-1.5-3.1-2.7c-0.6,1.4-1.7,2.5-3.3,3l-1-1.6c2.3-0.7,3.3-2.5,3.3-4.3V21h-2.7
									v-1.6h7.4V21h-2.7v0.2c0,1.6,0.9,3.3,3.1,4.1L62.8,26.8z M67.3,30.5V32h-9.4v-4.3h2v2.8H67.3z M65,22v-3.6h2v10.1h-2v-4.9
									h-2.2V22H65z"/>
								<path class="st3" d="M77,22.4c0,1.9-1.6,3.3-3.7,3.3c-2.1,0-3.8-1.4-3.8-3.3c0-2,1.6-3.3,3.8-3.3C75.3,19.1,77,20.5,77,22.4
									z M71.4,22.4c0,1,0.8,1.7,1.8,1.7c1,0,1.8-0.6,1.8-1.7c0-1-0.8-1.7-1.8-1.7C72.2,20.8,71.4,21.4,71.4,22.4z M80.7,26.9v5.2
									h-9.2v-5.2H80.7z M73.5,28.5v2.1h5.3v-2.1H73.5z M80.7,18.5v7.8h-2v-7.8H80.7z"/>
								<path class="st3" d="M90.2,26.1c-1.5-0.5-2.5-1.4-3-2.6c-0.6,1.4-1.7,2.4-3.2,3l-1-1.6c2.3-0.8,3.2-2.6,3.2-4.5v-1.2h2v1.4
									c0,1.7,0.9,3.3,3.1,4L90.2,26.1z M94.1,29.6c0,1.7-1.8,2.7-4.7,2.7c-2.9,0-4.7-1-4.7-2.7c0-1.7,1.8-2.7,4.7-2.7
									C92.3,27,94.1,28,94.1,29.6z M92.1,29.6c0-0.8-0.9-1.1-2.7-1.1c-1.8,0-2.7,0.4-2.7,1.1c0,0.8,0.9,1.1,2.7,1.1
									C91.2,30.8,92.1,30.4,92.1,29.6z M95.8,21.7v1.6h-1.8v3.3h-2v-8.2h2v3.2H95.8z"/>
							</g>
						</g>
						<g id="_x34__1_" transform="translate(477.000000, 0.000000)">
							<path id="bg_13_" class="st9" d="M8,0h134c4.4,0,8,3.6,8,8v34c0,4.4-3.6,8-8,8H8c-4.4,0-8-3.6-8-8V8C0,3.6,3.6,0,8,0z"/>
							<g class="st2">
								<path class="st3" d="M53.4,21.6c0,2.6,1.1,5.1,3.4,6.1l-1.1,1.6c-1.6-0.7-2.7-2.1-3.3-3.8c-0.6,1.8-1.7,3.3-3.4,4.1
									l-1.2-1.6c2.4-1,3.6-3.7,3.6-6.4v-2h2V21.6z M59.5,18.5v13.9h-2V18.5H59.5z"/>
								<path class="st3" d="M69.1,26.3c-1.5-0.5-2.6-1.4-3.2-2.5c-0.6,1.4-1.7,2.5-3.3,3l-1-1.5c2.2-0.8,3.2-2.5,3.3-4.2h-2.7v-1.6
									h7.5V21h-2.7c0,1.6,1,3.1,3.2,3.8L69.1,26.3z M72.9,29.6c0,1.7-1.8,2.7-4.7,2.7c-2.9,0-4.7-1-4.7-2.7c0-1.7,1.8-2.7,4.7-2.7
									C71.1,26.9,72.9,27.9,72.9,29.6z M70.9,29.6c0-0.8-0.9-1.2-2.7-1.2c-1.8,0-2.7,0.4-2.7,1.2c0,0.8,0.9,1.2,2.7,1.2
									C70,30.8,70.9,30.4,70.9,29.6z M74.5,21.7v1.6h-1.8v3.4h-2v-8.2h2v3.2H74.5z"/>
								<path class="st3" d="M82.9,25.8v0.8h3.7V30H79v0.7H87v1.4h-9.9v-3.5h7.6V28h-7.6v-1.4h3.8v-0.8h-5.2v-1.5h12.4v1.5H82.9z
									 M76.2,22.5c2.8-0.1,4.1-0.8,4.5-1.6h-3.8v-1.4h4v-1.1h2v1.1h4.1V21h-3.8c0.4,0.8,1.7,1.4,4.5,1.6L87,24
									c-2.6-0.1-4.3-0.8-5.2-1.8c-0.9,1-2.6,1.7-5.2,1.8L76.2,22.5z"/>
								<path class="st3" d="M94.8,21.6c0,2.6,1.1,5.1,3.4,6.1l-1.1,1.6c-1.6-0.7-2.7-2.1-3.3-3.8c-0.6,1.8-1.7,3.3-3.4,4.1
									l-1.2-1.6c2.4-1,3.6-3.7,3.6-6.4v-2h2V21.6z M100.9,18.5v13.9h-2V18.5H100.9z"/>
							</g>
						</g>
					</g>
					<g id="ìˆ˜ì§_divider_1_" transform="translate(279.000000, 60.000000)">
						<line id="divider_9_" class="st10" x1="1" y1="0" x2="1" y2="122"/>
						<line id="divider_10_" class="st10" x1="159" y1="0" x2="159" y2="122"/>
						<line id="divider_11_" class="st10" x1="319" y1="0" x2="319" y2="122"/>
						<line id="divider_12_" class="st10" x1="369" y1="0" x2="369" y2="122"/>
						<line id="divider_13_" class="st10" x1="419" y1="0" x2="419" y2="122"/>
						<line id="divider_14_" class="st10" x1="479" y1="0" x2="479" y2="122"/>
					</g>
					<line id="divider_15_" class="st11" x1="0" y1="111.5" x2="907" y2="111.5"/>
					<g id="bars_1_" transform="translate(289.000000, 60.000000)">
						<g id="bar1_1_" transform="translate(0.000000, 66.000000)">
							<path id="bar_4_" class="st12" d="M21,0.5h343c11.3,0,20.5,9.2,20.5,20.5l0,0c0,11.3-9.2,20.5-20.5,20.5H21
								C9.7,41.5,0.5,32.3,0.5,21l0,0C0.5,9.7,9.7,0.5,21,0.5z"/>
							<g id="text_1_" transform="translate(150.000000, 13.000000)">
								<g class="st2">
									<path class="st3" d="M7.6,7.2c0,1.5-1.3,2.7-3,2.7c-1.7,0-3-1.1-3-2.7c0-1.6,1.3-2.7,3-2.7C6.3,4.5,7.6,5.6,7.6,7.2z
										 M3.1,7.2c0,0.8,0.6,1.3,1.5,1.3C5.4,8.5,6,8,6,7.2c0-0.8-0.6-1.3-1.5-1.3C3.7,5.8,3.1,6.3,3.1,7.2z M10.6,10.7v4.2H3.2
										v-4.2H10.6z M4.8,12v1.7H9V12H4.8z M10.6,4v6.3H9V4H10.6z"/>
									<path class="st3" d="M18.1,10.1C17,9.7,16.2,9,15.7,8c-0.5,1.1-1.3,1.9-2.6,2.4l-0.8-1.2c1.8-0.6,2.6-2.1,2.6-3.6v-1h1.6
										v1.1c0,1.3,0.7,2.6,2.5,3.2L18.1,10.1z M21.3,12.9c0,1.3-1.4,2.1-3.7,2.1c-2.3,0-3.7-0.8-3.7-2.1c0-1.3,1.4-2.1,3.7-2.1
										C19.8,10.8,21.3,11.6,21.3,12.9z M19.7,12.9c0-0.6-0.8-0.9-2.2-0.9c-1.4,0-2.2,0.3-2.2,0.9c0,0.6,0.8,0.9,2.2,0.9
										C18.9,13.8,19.7,13.5,19.7,12.9z M22.6,6.6v1.3h-1.5v2.7h-1.6V4h1.6v2.6H22.6z"/>
									<path class="st3" d="M26.2,13c2.4-2.2,3.8-3.8,3.8-5.2c0-0.9-0.5-1.4-1.3-1.4c-0.6,0-1.2,0.4-1.6,0.9l-1-1
										C26.9,5.4,27.7,5,29,5c1.7,0,2.8,1.1,2.8,2.7c0,1.6-1.3,3.3-3,4.9c0.4,0,1-0.1,1.4-0.1h1.9V14h-5.9V13z"/>
									<path class="st3" d="M41.7,10.1c-1.2-0.4-2-1.1-2.4-2.1c-0.5,1.1-1.3,1.9-2.6,2.4l-0.8-1.2c1.8-0.6,2.6-2.1,2.6-3.6v-1H40
										v1.1c0,1.3,0.7,2.6,2.5,3.2L41.7,10.1z M44.8,12.9c0,1.3-1.4,2.1-3.7,2.1c-2.3,0-3.7-0.8-3.7-2.1c0-1.3,1.4-2.1,3.7-2.1
										C43.4,10.8,44.8,11.6,44.8,12.9z M43.3,12.9c0-0.6-0.8-0.9-2.2-0.9c-1.4,0-2.2,0.3-2.2,0.9c0,0.6,0.8,0.9,2.2,0.9
										C42.5,13.8,43.3,13.5,43.3,12.9z M46.2,6.6v1.3h-1.5v2.7h-1.6V4h1.6v2.6H46.2z"/>
									<path class="st3" d="M55.9,10.6c-1.2-0.4-2.1-1.2-2.6-2.2c-0.5,1.1-1.4,1.9-2.7,2.4l-0.8-1.2c1.8-0.6,2.6-2,2.6-3.4V6h-2.2
										V4.8h6V6h-2.2v0.1c0,1.3,0.8,2.7,2.6,3.2L55.9,10.6z M59.2,13.6v1.3h-7.6v-3.6h1.6v2.3H59.2z M58.9,12h-1.6V4h1.6V12z"/>
									<path class="st3" d="M66.1,6.3h-5.4V5.1h1.9v-1h1.6v1h1.9V6.3z M63.5,10.5c-1.4,0-2.4-0.8-2.4-1.9c0-1.1,1-1.9,2.4-1.9
										c1.4,0,2.4,0.8,2.4,1.9C65.8,9.8,64.9,10.5,63.5,10.5z M63.5,9.4c0.6,0,1-0.3,1-0.8s-0.4-0.8-1-0.8s-1,0.3-1,0.8
										S62.9,9.4,63.5,9.4z M70.3,13c0,1.3-1.4,2-3.8,2s-3.8-0.7-3.8-2s1.4-2,3.8-2S70.3,11.7,70.3,13z M68.7,13
										c0-0.6-0.7-0.8-2.2-0.8c-1.5,0-2.2,0.3-2.2,0.8c0,0.6,0.7,0.8,2.2,0.8C68,13.9,68.7,13.6,68.7,13z M67.9,10.5h-1.5V4.2h1.5
										v2.5h0.8V4h1.5v6.9h-1.5V8h-0.8V10.5z"/>
									<path class="st3" d="M80.4,10.3v0.8c1.9,0.2,3,0.8,3,2c0,1.3-1.5,2-3.8,2s-3.8-0.7-3.8-2c0-1.1,1.1-1.8,3.1-2v-0.8h-4.2V9
										h10v1.3H80.4z M75,7.3c2.1-0.2,3.1-0.9,3.4-1.6h-2.9V4.4h8.2v1.3h-2.9c0.3,0.7,1.4,1.5,3.4,1.6l-0.6,1.2
										c-2.1-0.2-3.4-1-4-2c-0.6,1-1.9,1.8-4,2L75,7.3z M79.5,12.2c-1.5,0-2.2,0.2-2.2,0.8c0,0.6,0.8,0.8,2.2,0.8
										c1.5,0,2.2-0.2,2.2-0.8C81.8,12.5,81,12.2,79.5,12.2z"/>
								</g>
							</g>
						</g>
						<g id="bar2_1_">
							<path id="bar_5_" class="st12" d="M21,0.5h97c11.3,0,20.5,9.2,20.5,20.5l0,0c0,11.3-9.2,20.5-20.5,20.5H21
								C9.7,41.5,0.5,32.3,0.5,21l0,0C0.5,9.7,9.7,0.5,21,0.5z"/>
						</g>
					</g>
				</g>
			</g>
		</g>
	</g>
</g>
</svg>
