<?xml version="1.0" encoding="utf-8"?>
<!-- Generator: Adobe Illustrator 24.0.0, SVG Export Plug-In . SVG Version: 6.00 Build 0)  -->
<svg version="1.1" id="Layer_1" xmlns="http://www.w3.org/2000/svg" xmlns:xlink="http://www.w3.org/1999/xlink" x="0px" y="0px"
	 viewBox="0 0 1000 728" style="enable-background:new 0 0 1000 728;" xml:space="preserve">
<style type="text/css">
	.st0{fill:none;stroke:#819A1E;stroke-width:2;}
	.st1{fill-rule:evenodd;clip-rule:evenodd;fill:#91AF1E;fill-opacity:0.8;stroke:#819A1E;stroke-width:2;}
	.st2{enable-background:new    ;}
	.st3{fill:#FFFFFF;}
	.st4{font-family:'NotoSansKR-Regular-KSCpc-EUC-H';}
	.st5{font-size:18px;}
	.st6{fill-rule:evenodd;clip-rule:evenodd;fill:#777777;}
	.st7{fill:none;stroke:#979797;stroke-linecap:square;}
	.st8{fill-rule:evenodd;clip-rule:evenodd;fill:#91AF1E;fill-opacity:0.7;stroke:#819A1E;}
	.st9{font-family:'NotoSansCJKkr-Medium-KSCpc-EUC-H';}
	.st10{font-size:12px;}
	.st11{fill-rule:evenodd;clip-rule:evenodd;}
</style>
<title>second_kr</title>
<desc>Created with Sketch.</desc>
<g id="Page-1">
	<g id="_x35_.Botanicals" transform="translate(-220.000000, -750.000000)">
		<g id="second_kr" transform="translate(190.000000, 647.000000)">
			<g id="table" transform="translate(30.000000, 103.000000)">
				<g id="box1">
					<path id="bg" class="st0" d="M9,1h982c4.4,0,8,3.6,8,8v251c0,4.4-3.6,8-8,8H9c-4.4,0-8-3.6-8-8V9C1,4.6,4.6,1,9,1z"/>
					<path id="bg_1_" class="st1" d="M29,21h942c4.4,0,8,3.6,8,8v51c0,4.4-3.6,8-8,8H29c-4.4,0-8-3.6-8-8V29C21,24.6,24.6,21,29,21z
						"/>
					<g class="st2">
						<path class="st3" d="M334,56.7c-2.1-0.6-3.6-1.8-4.4-3.4c-0.8,1.7-2.3,3.1-4.5,3.8l-1-1.6c2.8-0.8,4.4-2.8,4.4-5.1v-0.2h-3.8
							v-1.6h3.8v-2.1h2.1v2.1h3.8v1.6h-3.8v0.2c0,2.1,1.6,4,4.4,4.8L334,56.7z M327.3,58h11.9v6.3h-11.9V58z M329.3,62.7h7.8v-3
							h-7.8V62.7z M339.1,46.5v10.6h-2.1v-4.1h-3.2v-1.7h3.2v-4.9H339.1z"/>
						<path class="st3" d="M353.1,55.8c-2.3,0.5-4.5,0.6-8.3,0.6h-1.5V48h8v1.7h-6v5.1c3.4,0,5.4-0.1,7.5-0.6L353.1,55.8z
							 M347.3,62.5h10.1v1.7h-12.2v-6h2.1V62.5z M359.2,51.6v1.7h-2.6v6.2h-2.1V46.5h2.1v5.2H359.2z"/>
						<path class="st3" d="M373.4,56.3c-1.6-0.6-2.7-1.8-3.4-3.3c-0.7,1.7-1.8,3.1-3.6,3.8l-1.1-1.6c2.4-1.1,3.6-3.4,3.6-5.4v-2.3h2
							v2.3c0,2,1.2,4,3.5,4.9L373.4,56.3z M380.9,61.2c0,2.1-2.4,3.3-6.1,3.3s-6.1-1.2-6.1-3.3c0-2.1,2.4-3.3,6.1-3.3
							S380.9,59.2,380.9,61.2z M378.8,61.2c0-1.1-1.5-1.7-4.1-1.7s-4.1,0.6-4.1,1.7c0,1.1,1.5,1.7,4.1,1.7S378.8,62.3,378.8,61.2z
							 M376.9,57H375V46.8h1.9v4.3h1.9v-4.6h2v11.1h-2v-4.8h-1.9V57z"/>
						<path class="st3" d="M393,56h-8.4v-8.1h8.4v1.4h3.8v-2.8h2.1v10.6h-2.1v-2.6H393V56z M391,49.5h-4.3v4.9h4.3V49.5z
							 M398.9,61.1c0,2.2-2.3,3.5-6.1,3.5c-3.8,0-6.1-1.3-6.1-3.5c0-2.2,2.3-3.5,6.1-3.5C396.6,57.6,398.9,58.9,398.9,61.1z
							 M396.9,61.1c0-1.2-1.5-1.8-4-1.8s-4,0.7-4,1.8c0,1.2,1.5,1.9,4,1.9S396.9,62.3,396.9,61.1z M393,50.9v1.9h3.8v-1.9H393z"/>
						<path class="st3" d="M407.7,58.9c1.9-0.1,3.8-0.2,5.5-0.4l0.1,1.5c-3.7,0.6-7.9,0.7-11,0.7l-0.2-1.7c1.1,0,2.3,0,3.6,0v-5.4h2
							V58.9z M409.7,56.5c0.5-2.8,0.5-4.9,0.5-6.4H403v-1.7h9.2v1.2c0,1.6,0,3.9-0.5,7.1L409.7,56.5z M418.9,55.6h-2.7v8.9h-2.1
							V46.5h2.1v7.4h2.7V55.6z"/>
						<path class="st3" d="M431.4,49.9h-10.7v-1.6h4.3v-1.9h2.1v1.9h4.3V49.9z M426,57.2c-2.6,0-4.4-1.3-4.4-3.3
							c0-2,1.8-3.3,4.4-3.3s4.4,1.3,4.4,3.3C430.4,55.9,428.6,57.2,426,57.2z M422.9,58.7h11.9v5.9h-2.1v-4.2h-9.8V58.7z M426,55.7
							c1.4,0,2.4-0.6,2.4-1.7c0-1.1-1-1.7-2.4-1.7s-2.4,0.6-2.4,1.7C423.6,55,424.6,55.7,426,55.7z M437.3,53h-2.6v4.8h-2.1V46.5
							h2.1v4.8h2.6V53z"/>
						<path class="st3" d="M455.4,60.6v1.7h-16.4v-1.7H455.4z M453.9,52.6c0,3.1-2.9,5.1-6.6,5.1c-3.8,0-6.6-2-6.6-5.1
							c0-3.1,2.9-5.1,6.6-5.1C451,47.5,453.9,49.5,453.9,52.6z M442.6,52.6c0,2.1,2,3.4,4.6,3.4c2.7,0,4.6-1.3,4.6-3.4
							s-2-3.4-4.6-3.4C444.6,49.2,442.6,50.5,442.6,52.6z"/>
						<path class="st3" d="M473.8,60.7v1.7h-16.4v-1.7h7.1v-3.1h-5.1v-5.8h10.4v-2.4h-10.4v-1.7h12.5v5.7h-10.4V56h10.8v1.7h-5.6
							v3.1H473.8z"/>
						<path class="st3" d="M490.3,51.5c0,2.5-2,4.2-4.8,4.2c-2.8,0-4.8-1.7-4.8-4.2c0-2.5,2-4.2,4.8-4.2
							C488.3,47.3,490.3,49,490.3,51.5z M482.7,51.5c0,1.5,1.1,2.5,2.8,2.5c1.6,0,2.8-1,2.8-2.5c0-1.5-1.2-2.5-2.8-2.5
							C483.9,49,482.7,50,482.7,51.5z M485.5,57v2h7.7v-2h2v7.3h-11.8V57H485.5z M485.5,62.7h7.7v-2h-7.7V62.7z M495.3,46.5v9.7
							h-2.1v-9.7H495.3z"/>
						<path class="st3" d="M515.1,55v1.7h-16.3V55H515.1z M499.6,52.4c3.4-0.3,5.7-1.8,6-3.4h-5.3v-1.7h13.3V49h-5.3
							c0.3,1.6,2.6,3.1,6,3.4l-0.7,1.6c-3.2-0.3-5.7-1.6-6.6-3.5c-1,1.9-3.5,3.2-6.6,3.5L499.6,52.4z M513.1,61.2
							c0,2.1-2.3,3.3-6.2,3.3c-3.9,0-6.2-1.2-6.2-3.3c0-2.1,2.4-3.3,6.2-3.3C510.8,57.9,513.1,59.1,513.1,61.2z M511,61.2
							c0-1.1-1.5-1.7-4.1-1.7s-4.1,0.6-4.1,1.7c0,1.1,1.5,1.7,4.1,1.7S511,62.3,511,61.2z"/>
						<path class="st3" d="M528.9,57.2c-3.8,0.5-8,0.6-11.3,0.6l-0.3-1.7c1.5,0,3.2,0,4.9-0.1v-2.2h-3.3v-6.3h8.7v1.7h-6.6v2.9h6.7
							v1.7h-3.4V56c1.6-0.1,3.1-0.2,4.5-0.3L528.9,57.2z M532.6,62.5v1.7h-12.5v-5.1h2.1v3.4H532.6z M532.1,60H530V46.5h2.1V60z"/>
						<path class="st3" d="M549.8,57.6c-2-0.6-3.6-2-4.4-3.7c-0.8,1.8-2.3,3.3-4.4,4l-1-1.6c2.8-0.9,4.3-3.1,4.3-5.5v-0.3h-3.8v-1.7
							h3.8v-2.2h2.1v2.2h3.8v1.7h-3.8v0.3c0,2.2,1.6,4.3,4.4,5.2L549.8,57.6z M555.5,62.5v1.7h-12.2v-5.4h2.1v3.8H555.5z M553,51.9
							v-5.4h2.1v13.4H553v-6.3h-3.3v-1.7H553z"/>
						<path class="st3" d="M567,55.2c-0.8,1-2.1,1.6-3.6,1.6c-2.7,0-4.7-1.9-4.7-4.6s2-4.6,4.7-4.6c1.5,0,2.8,0.6,3.6,1.6h4.3v-2.7
							h2.1v13.3h-2.1v-4.6H567z M563.4,55c1.5,0,2.7-1.1,2.7-2.8c0-1.6-1.2-2.8-2.7-2.8c-1.6,0-2.8,1.1-2.8,2.8
							C560.7,53.9,561.9,55,563.4,55z M573.9,62.5v1.7h-12.2v-5.8h2.1v4.1H573.9z M567.9,50.8c0.1,0.4,0.2,0.9,0.2,1.3
							s-0.1,0.9-0.2,1.3h3.5v-2.7H567.9z"/>
						<path class="st3" d="M586.1,55.5V57h5.1v4.3h-10.3v1.5h10.8v1.6h-12.8v-4.5h10.3v-1.3h-10.3V57h5.2v-1.5h-7.1v-1.6h16.4v1.6
							H586.1z M591.1,52.6h-12.2V47h12.2V52.6z M589.1,48.6H581V51h8.1V48.6z"/>
						<path class="st3" d="M616.1,60.6v1.7h-16.4v-1.7h7.1v-4.2h2.1v4.2H616.1z M614.6,56.7c-3-0.6-5.5-2.4-6.7-4.8
							c-1.2,2.4-3.8,4.2-6.7,4.8l-0.9-1.7c3.6-0.6,6.5-3.3,6.5-6.1v-1.4h2.2v1.4c0,2.8,2.9,5.5,6.5,6.1L614.6,56.7z"/>
						<path class="st3" d="M623.7,51.2c0,3.3,1.1,6.2,3.8,7.6l-1.2,1.6c-1.7-0.9-2.8-2.6-3.5-4.6c-0.6,2.3-1.8,4.1-3.6,5.2l-1.3-1.5
							c2.6-1.5,3.8-4.7,3.8-8.2v-1h-3.3v-1.7h8.3v1.7h-3V51.2z M633.7,46.5v18.1h-2v-9.2h-2v8.4h-1.9V46.8h1.9v6.8h2v-7.1H633.7z"/>
						<path class="st3" d="M648.8,48.8c0,4.8-1.6,9.1-6.7,12l-1.2-1.5c3.9-2.3,5.5-5.2,5.8-8.9h-5.1v-1.7H648.8z M656.4,46.5v18.1
							h-2v-9.3h-2.1v8.5h-1.9V47h1.9v6.6h2.1v-7.1H656.4z"/>
						<path class="st3" d="M668.6,55.1h-8.5v-7.9h2.1v2.4h4.4v-2.4h2V55.1z M664,62.8h10.2v1.6H662v-4.7h9.6v-1.5h-9.6v-1.6h11.7
							v4.6H664V62.8z M666.6,51.2h-4.4v2.3h4.4V51.2z M676.1,50.2v1.7h-2.5v3.9h-2.1v-9.3h2.1v3.7H676.1z"/>
					</g>
					<g class="st2">
						<path d="M246.8,124.3h4.6v1.3h-4.6V124.3z"/>
						<path d="M257.1,128.3l1-1.1c1,1,2.3,1.6,3.7,1.6c1.7,0,2.8-0.9,2.8-2.2c0-1.4-1-1.8-2.2-2.3l-1.9-0.8
							c-1.2-0.5-2.7-1.5-2.7-3.4c0-2,1.8-3.5,4.2-3.5c1.6,0,3,0.7,3.9,1.6l-0.9,1.1c-0.8-0.8-1.8-1.2-3-1.2c-1.5,0-2.5,0.8-2.5,1.9
							c0,1.3,1.2,1.8,2.2,2.2l1.9,0.8c1.5,0.7,2.7,1.6,2.7,3.5c0,2.1-1.7,3.7-4.5,3.7C259.9,130.2,258.3,129.5,257.1,128.3z"/>
						<path d="M268.1,123.4c0-4.3,2.5-6.9,5.9-6.9c1.6,0,2.9,0.8,3.6,1.6l-0.9,1.1c-0.7-0.7-1.6-1.3-2.7-1.3c-2.5,0-4.2,2.1-4.2,5.3
							c0,3.3,1.6,5.4,4.1,5.4c1.3,0,2.2-0.6,3.1-1.5l0.9,1c-1,1.2-2.3,1.9-4.1,1.9C270.5,130.2,268.1,127.7,268.1,123.4z"/>
						<path d="M280.3,116.8h1.7V130h-1.7V116.8z"/>
						<path d="M303.4,123.6v1.2h-14.6v-1.2h6.6v-2.3h-4.6v-5.5h1.5v4.3h9.5v1.2h-4.9v2.3H303.4z M292.1,129.8h9.7v1.2h-11.2v-4.8
							h1.5V129.8z"/>
						<path d="M320,123.4v1.2h-6.5v3.3H312v-3.3h-6.7v-1.2H320z M308.6,129.8h9.7v1.2h-11.2v-4.6h1.5V129.8z M318.1,121.6h-10.9
							v-5.7h10.9V121.6z M316.6,117.1h-8v3.3h8V117.1z"/>
						<path d="M334,123.5v1.5h4.7v3.5h-9.5v1.5h10v1.1h-11.4v-3.7h9.5v-1.4h-9.5V125h4.8v-1.5h-6.5v-1.1h14.6v1.1H334z M326.7,120.5
							c3-0.2,5.5-1.2,5.7-2.8h-5v-1.1h5.1v-1.5h1.5v1.5h5.1v1.1h-5c0.3,1.6,2.7,2.6,5.7,2.8l-0.5,1.1c-2.7-0.2-5.1-1-6.1-2.5
							c-1,1.5-3.4,2.3-6.1,2.5L326.7,120.5z"/>
						<path d="M352.5,124.1c-3.2,0.5-7,0.6-9.8,0.6l-0.2-1.2c0.6,0,1.3,0,2,0v-5.5H343v-1.2h8.6v1.2H350v5.3c0.8,0,1.6-0.1,2.4-0.2
							L352.5,124.1z M346.4,129.8h9.3v1.2H345v-5h1.5V129.8z M346,123.4c0.8,0,1.7,0,2.6-0.1v-5.4H346V123.4z M357.4,120.1v1.2H355
							v5.8h-1.5v-11.9h1.5v4.9H357.4z"/>
						<path d="M373.6,122.1v1.2H359v-1.2H373.6z M360.7,118.3c0-1.8,2.1-2.8,5.7-2.8c3.5,0,5.7,1,5.7,2.8s-2.1,2.8-5.7,2.8
							C362.8,121.1,360.7,120.1,360.7,118.3z M362.3,130h10v1.2h-11.4v-3.9h9.5v-1.4h-9.5v-1.1h11v3.6h-9.5V130z M362.2,118.3
							c0,1.1,1.5,1.7,4.2,1.7c2.6,0,4.2-0.6,4.2-1.7c0-1.1-1.5-1.7-4.2-1.7C363.7,116.6,362.2,117.2,362.2,118.3z"/>
						<path d="M394.2,123.7v1.2h-14.6v-1.2h6.6v-1.6h-4.6v-6.5h10.9v1.2H383v1.5h9v1.1h-9v1.6h9.5v1.2h-4.9v1.6H394.2z M392.5,128.7
							c0,1.7-2,2.6-5.5,2.6c-3.5,0-5.5-0.9-5.5-2.6c0-1.7,2-2.6,5.5-2.6C390.4,126.1,392.5,127,392.5,128.7z M391,128.7
							c0-1-1.4-1.5-4.1-1.5c-2.6,0-4.1,0.5-4.1,1.5c0,1,1.5,1.5,4.1,1.5C389.5,130.2,391,129.7,391,128.7z"/>
						<path d="M405.8,118.4h-9.5v-1.2h4v-2h1.5v2h4V118.4z M401,125.2c-2.3,0-3.9-1.2-3.9-3c0-1.8,1.6-3,3.9-3s3.9,1.2,3.9,3
							C404.9,124.1,403.3,125.2,401,125.2z M401,124.1c1.5,0,2.5-0.7,2.5-1.9c0-1.1-1-1.8-2.5-1.8c-1.5,0-2.4,0.7-2.4,1.8
							C398.5,123.4,399.5,124.1,401,124.1z M400.2,129.8h9.3v1.2h-10.8v-4.6h1.5V129.8z M411.1,120.5v1.2h-2.4v5.5h-1.5v-12.1h1.5
							v5.3H411.1z"/>
						<path d="M421.5,126.5c1.8-0.1,3.6-0.2,5.2-0.4l0.1,1.1c-3.3,0.5-7.1,0.6-10,0.6l-0.2-1.2c1,0,2.2,0,3.4-0.1v-5h1.5V126.5z
							 M423.7,124.1c0.5-2.7,0.5-4.6,0.5-5.9h-6.7v-1.2h8.2v0.9c0,1.3,0,3.4-0.5,6.4L423.7,124.1z M431.7,123.2h-2.6v8.2h-1.5v-16.2
							h1.5v6.8h2.6V123.2z"/>
						<path d="M442.9,118.1h-9.5v-1.2h4v-1.8h1.5v1.8h4V118.1z M438.2,124.7c-2.3,0-3.9-1.1-3.9-2.9c0-1.8,1.6-2.9,3.9-2.9
							c2.3,0,3.9,1.2,3.9,2.9C442,123.6,440.5,124.7,438.2,124.7z M435.4,126.2h10.5v5.2h-1.5v-4h-9V126.2z M438.2,123.6
							c1.5,0,2.5-0.7,2.5-1.8c0-1.1-1-1.8-2.5-1.8s-2.4,0.7-2.4,1.8S436.7,123.6,438.2,123.6z M448.3,120.9h-2.4v4.4h-1.5v-10.1h1.5
							v4.4h2.4V120.9z"/>
						<path d="M458.7,124.2c-1.8-0.6-3.2-2-3.9-3.7c-0.7,1.9-2.2,3.3-4.1,4l-0.8-1.2c2.4-0.8,4.1-3,4.1-5.3v-0.6h-3.6v-1.2h8.6v1.2
							h-3.5v0.6c0,2.1,1.6,4.1,3.9,4.9L458.7,124.2z M452.4,125.7h10.8v5.6h-1.5v-4.4h-9.3V125.7z M463.2,115.2v9.7h-1.5v-4.2h-3.2
							v-1.2h3.2v-4.2H463.2z"/>
						<path d="M479.4,124.4c-1.8-0.7-3.3-2.2-4-4c-0.7,2-2.1,3.5-4,4.3l-0.8-1.2c2.4-0.9,4.1-3.3,4.1-5.8v-1.6h1.5v1.6
							c0,2.4,1.6,4.6,4,5.5L479.4,124.4z M484.2,129.8v1.2h-10.9v-5h1.5v3.8H484.2z M483.7,127h-1.5v-11.8h1.5V127z"/>
						<path d="M493.2,126.8c1.5-0.1,3.1-0.2,4.5-0.3l0.1,1.1c-3.5,0.5-7.4,0.6-10.5,0.6l-0.2-1.2c1.4,0,2.9,0,4.5-0.1v-2.7h-3.3
							v-4.3h6.6v-2h-6.6v-1.2h8.1v4.3h-6.6v2.1h7.1v1.2h-3.7V126.8z M500.2,115.2v16.2h-1.5v-16.2H500.2z"/>
						<path d="M512.3,124c-1.8-0.7-3.1-1.9-3.8-3.6c-0.7,1.9-2.1,3.4-4.1,4.1l-0.8-1.2c2.5-0.9,4.1-3,4.1-5.5v-1.7h1.5v1.6
							c0,2.3,1.6,4.3,3.9,5.1L512.3,124z M517,128.3c0,1.9-2.1,3-5.4,3s-5.4-1.1-5.4-3c0-1.9,2.1-3,5.4-3S517,126.3,517,128.3z
							 M515.5,128.3c0-1.2-1.5-1.9-3.9-1.9s-3.9,0.7-3.9,1.9c0,1.2,1.5,1.9,3.9,1.9S515.5,129.4,515.5,128.3z M515.4,119.8h-3.5
							v-1.2h3.5v-3.4h1.5v9.5h-1.5V119.8z"/>
						<path d="M534.4,124.9c-3.5,0.6-7.3,0.6-10.1,0.6l-0.2-1.2c1.3,0,2.8,0,4.3-0.1v-1.2c-1.9-0.2-3-1-3-2.4c0-1.5,1.5-2.4,3.8-2.4
							c2.3,0,3.8,0.9,3.8,2.4c0,1.3-1.2,2.2-3,2.4v1.1c1.5-0.1,3-0.2,4.4-0.4L534.4,124.9z M533.8,117.8h-9.3v-1.1h3.9v-1.6h1.5v1.6
							h3.9V117.8z M526.1,126.8h10.6v4.5h-1.5V128h-9.1V126.8z M529.2,122.1c1.4,0,2.4-0.5,2.4-1.4c0-0.8-0.9-1.4-2.4-1.4
							c-1.5,0-2.4,0.5-2.4,1.4C526.8,121.6,527.7,122.1,529.2,122.1z M539.1,121.3h-2.4v4.7h-1.5v-10.8h1.5v4.9h2.4V121.3z"/>
						<path d="M555.4,128.1v1.2h-14.6v-1.2h6.6v-3.5h-4.8v-8.2h1.5v2.9h8.2v-2.9h1.4v8.2h-4.8v3.5H555.4z M544,123.4h8.2v-3H544
							V123.4z"/>
					</g>
					<text transform="matrix(1 0 0 1 556.3726 130)" class="st4 st5"> </text>
					<g class="st2">
						<path d="M246.8,159.3h4.6v1.3h-4.6V159.3z"/>
						<path d="M270.5,150.2v9.3H269v-4h-3.3c-0.3,2-1.9,3.3-4.1,3.3c-2.4,0-4.2-1.5-4.2-3.8c0-2.2,1.7-3.8,4.2-3.8
							c2.2,0,3.8,1.3,4.1,3.1h3.3v-4.1H270.5z M264.4,154.9c0-1.5-1.2-2.5-2.7-2.5c-1.6,0-2.8,1-2.8,2.5c0,1.5,1.2,2.6,2.8,2.6
							C263.2,157.5,264.4,156.4,264.4,154.9z M260,160.3h10.5v5.8H260V160.3z M261.5,164.9h7.6v-3.5h-7.6V164.9z"/>
						<path d="M287.1,150.2v9.6h-1.5v-2.1h-4.2v-1.2h4.2v-2.2h-3.9c-1.1,2.5-3.6,4.4-7,5.3l-0.6-1.2c3.9-1.1,6.4-3.2,6.6-6h-5.8
							v-1.2h7.4c0,0.6-0.1,1.2-0.2,1.8h3.6v-2.9H287.1z M276.3,160.5h10.8v5.8h-1.5v-4.6h-9.3V160.5z"/>
						<path d="M299.9,153.4h-9.5v-1.2h4v-2h1.5v2h4V153.4z M295.2,160.2c-2.3,0-3.9-1.2-3.9-3c0-1.8,1.6-3,3.9-3s3.9,1.2,3.9,3
							C299,159.1,297.4,160.2,295.2,160.2z M295.2,159.1c1.5,0,2.5-0.7,2.5-1.9c0-1.1-1-1.8-2.5-1.8c-1.5,0-2.4,0.7-2.4,1.8
							C292.7,158.4,293.7,159.1,295.2,159.1z M294.3,164.8h9.3v1.2h-10.8v-4.6h1.5V164.8z M305.3,155.5v1.2h-2.4v5.5h-1.5v-12.1h1.5
							v5.3H305.3z"/>
						<path d="M319,159.2v1.9h4.8v5h-11v-5h4.8v-1.9h-6.6V158h14.6v1.2H319z M314.7,151.9h-2.4v-1.2h11.8v1.2h-2.4v3.4h2.4v1.2
							h-11.7v-1.2h2.4V151.9z M322.3,162.2h-8.1v2.7h8.1V162.2z M320.2,151.9h-4v3.4h4V151.9z"/>
						<path d="M336.7,158.2c-1.9-0.6-3.4-1.9-4.1-3.5c-0.7,1.8-2.2,3.2-4.2,3.9l-0.7-1.2c2.4-0.8,4.1-2.8,4.1-5v-0.2h-3.7v-1.2h8.9
							v1.2h-3.7v0.2c0,2.1,1.7,3.9,4.1,4.6L336.7,158.2z M341.3,165v1.2h-11v-4h9v-1.6h-9v-1.2h10.5v3.9h-9v1.8H341.3z M340.7,158.6
							h-1.5v-8.4h1.5V158.6z"/>
						<path d="M362.7,159.5h-3.9v6.8h-1.5v-6.8h-4.1v6.8h-1.5v-6.8h-3.7v-1.2h10.6c0.5-2.6,0.5-4.4,0.5-5.8H350v-1.2h10.7v1.2
							c0,1.5,0,3.3-0.5,5.9h2.5V159.5z"/>
						<path d="M378,150.2v9.6h-1.5v-2.1h-4.2v-1.2h4.2v-2.2h-3.9c-1.1,2.5-3.6,4.4-7,5.3l-0.6-1.2c3.9-1.1,6.4-3.2,6.6-6h-5.8v-1.2
							h7.4c0,0.6-0.1,1.2-0.2,1.8h3.6v-2.9H378z M367.2,160.5H378v5.8h-1.5v-4.6h-9.3V160.5z"/>
						<path d="M395.4,159.1c-3.3,0.6-7.2,0.6-10.1,0.6l-0.1-1.2c1,0,2.2,0,3.4,0V155h1.5v3.4c1.8-0.1,3.6-0.2,5.2-0.4L395.4,159.1z
							 M392.3,156.9c0.4-1.9,0.4-3.2,0.4-4.3h-6.6v-1.2h8v0.8c0,1.1,0,2.7-0.4,4.8L392.3,156.9z M389.1,164.8h9.3v1.2h-10.7v-4.7
							h1.5V164.8z M400.1,155.4v1.2h-2.3v5.7h-1.5v-12.2h1.5v5.3H400.1z"/>
						<path d="M404.2,161.2c2.6,0,5-0.1,7.9-0.6l0.1,1.2c-2.9,0.5-5.4,0.6-8.1,0.6h-1.3v-6.2h5.9v-3.4h-6v-1.2h7.5v5.8h-6V161.2z
							 M415.1,150.2v16.2h-1.5v-16.2H415.1z"/>
					</g>
					<g class="st2">
						<path d="M246.8,194.3h4.6v1.3h-4.6V194.3z"/>
						<path d="M257.9,186.8h7.4v10.4h-7.4V186.8z M259.3,196h4.5v-8h-4.5V196z M272.3,192.9h-2.7v8.5h-1.5v-16.1h1.5v6.4h2.7V192.9z
							"/>
						<path d="M282.6,192.1c0,3.4-1.7,5.6-4.1,5.6c-2.4,0-4.1-2.2-4.1-5.6c0-3.4,1.7-5.6,4.1-5.6
							C280.9,186.4,282.6,188.6,282.6,192.1z M275.8,192.1c0,2.6,1.1,4.3,2.7,4.3c1.6,0,2.7-1.7,2.7-4.3c0-2.6-1.1-4.3-2.7-4.3
							C276.9,187.8,275.8,189.4,275.8,192.1z M287,185.2v16.2h-1.5v-16.2H287z"/>
						<path d="M305,197.9v1.2h-14.6v-1.2H305z M301.7,191.3c0-0.8,0-1.7,0-2.5V188h-9.6v-1.2h11.1v2c0,2.4,0,4.6-0.7,7.9l-1.4-0.1
							c0.3-1.5,0.5-2.9,0.6-4.1l-9.7,0.5l-0.2-1.2L301.7,191.3z"/>
						<path d="M321.6,198.1v1.2h-14.7v-1.2h6.6v-3h-4.7v-5h9.6v-2.5h-9.6v-1.2h11.1v4.9h-9.6v2.6h9.9v1.2H315v3H321.6z"/>
						<path d="M330.2,186.5h1.4v10.9h-7.5v-10.9h1.5v4.3h4.6V186.5z M330.2,192h-4.6v4.2h4.6V192z M338.6,192.8h-2.7v8.5h-1.5v-16.1
							h1.5v6.3h2.7V192.8z"/>
						<path d="M348.8,192.1c0,3.4-1.7,5.6-4.1,5.6c-2.4,0-4.1-2.2-4.1-5.6c0-3.4,1.7-5.6,4.1-5.6
							C347.1,186.4,348.8,188.6,348.8,192.1z M342,192.1c0,2.6,1.1,4.3,2.7,4.3c1.6,0,2.7-1.7,2.7-4.3c0-2.6-1.1-4.3-2.7-4.3
							C343.1,187.8,342,189.4,342,192.1z M353.2,185.2v16.2h-1.5v-16.2H353.2z"/>
						<path d="M371.2,193.1v1.2h-14.6v-1.2h6.6v-1.6c-3.1-0.2-4.9-1.2-4.9-3c0-1.9,2.2-3,5.7-3c3.5,0,5.7,1.1,5.7,3
							c0,1.8-1.9,2.9-4.9,3v1.6H371.2z M358.4,195.8h11v5.3h-11V195.8z M363.9,190.4c2.6,0,4.2-0.7,4.2-1.9s-1.6-1.9-4.2-1.9
							c-2.6,0-4.2,0.7-4.2,1.9S361.3,190.4,363.9,190.4z M359.8,199.9h8.1v-3h-8.1V199.9z"/>
						<path d="M384.9,192.8c-0.8,1-1.9,1.5-3.3,1.5c-2.4,0-4.2-1.7-4.2-4.1c0-2.4,1.8-4.1,4.2-4.1c1.4,0,2.5,0.6,3.3,1.5h4.1v-2.5
							h1.5v11.9H389v-4.3H384.9z M381.6,193c1.6,0,2.7-1.2,2.7-2.8s-1.2-2.8-2.7-2.8c-1.6,0-2.8,1.2-2.8,2.8S380,193,381.6,193z
							 M390.9,199.8v1.2h-10.8v-5.1h1.5v3.9H390.9z M385.5,188.9c0.1,0.4,0.2,0.9,0.2,1.4c0,0.5-0.1,0.9-0.2,1.3h3.5v-2.7H385.5z"/>
						<path d="M408.4,194.4h-6.6v7h-1.5v-7h-6.5v-1.2h10.7c0.5-2.3,0.5-4,0.5-5.5v-0.2h-9.4v-1.2h10.8v1.4c0,1.5,0,3.2-0.4,5.5h2.4
							V194.4z"/>
						<path d="M424.9,192.7v1.1h-14.6v-1.1H424.9z M413.5,200.1h10.1v1.1h-11.5v-3.6h9.6v-1.4h-9.6v-1.1h11.1v3.4h-9.6V200.1z
							 M421.6,186.7h-9.5v-1h10.9v3.4h-9.4v1.4h9.7v1.1h-11.2V188h9.4V186.7z"/>
						<path d="M445.5,193.7v1.2h-14.6v-1.2h6.6v-1.6h-4.6v-6.5h10.9v1.2h-9.4v1.5h9v1.1h-9v1.6h9.5v1.2h-4.9v1.6H445.5z
							 M443.7,198.7c0,1.7-2,2.6-5.5,2.6c-3.5,0-5.5-0.9-5.5-2.6c0-1.7,2-2.6,5.5-2.6C441.7,196.1,443.7,197,443.7,198.7z
							 M442.2,198.7c0-1-1.4-1.5-4.1-1.5c-2.6,0-4.1,0.5-4.1,1.5c0,1,1.5,1.5,4.1,1.5C440.8,200.2,442.2,199.7,442.2,198.7z"/>
						<path d="M457,188.4h-9.5v-1.2h4v-2h1.5v2h4V188.4z M452.3,195.2c-2.3,0-3.9-1.2-3.9-3c0-1.8,1.6-3,3.9-3s3.9,1.2,3.9,3
							C456.1,194.1,454.5,195.2,452.3,195.2z M452.3,194.1c1.5,0,2.5-0.7,2.5-1.9c0-1.1-1-1.8-2.5-1.8c-1.5,0-2.4,0.7-2.4,1.8
							C449.8,193.4,450.8,194.1,452.3,194.1z M451.4,199.8h9.3v1.2h-10.8v-4.6h1.5V199.8z M462.4,190.5v1.2H460v5.5h-1.5v-12.1h1.5
							v5.3H462.4z"/>
						<path d="M474.2,196.5c1.5-0.1,3-0.2,4.5-0.4l0.1,1.1c-3.6,0.6-7.4,0.6-10.5,0.6l-0.2-1.2c1.4,0,3,0,4.6-0.1V193h-3.4v-6.2h1.5
							v5h6.9v1.2h-3.5V196.5z M481.2,185.2v16.2h-1.5v-16.2H481.2z"/>
						<path d="M493,186.4c0,4.2-2.9,7.3-7.5,8.8l-0.6-1.2c3.7-1.2,6.2-3.5,6.6-6.4h-5.7v-1.2H493z M498.3,199.8v1.2h-10.6v-5.1h1.5
							v3.9H498.3z M496.4,190.2v-5h1.5v11.9h-1.5v-5.7h-3.5v-1.2H496.4z"/>
						<path d="M509.3,186.4c0,4.1-2.9,7.1-7.5,8.5l-0.6-1.2c3.8-1.1,6.3-3.3,6.5-6.1h-5.9v-1.2H509.3z M513.9,198.2
							c0,1.9-2.1,3.1-5.3,3.1c-3.2,0-5.3-1.2-5.3-3.1c0-2,2.1-3.1,5.3-3.1C511.8,195,513.9,196.2,513.9,198.2z M512.4,198.2
							c0-1.2-1.5-2-3.8-2c-2.3,0-3.8,0.7-3.8,2c0,1.2,1.5,2,3.8,2C511,200.1,512.4,199.4,512.4,198.2z M516.1,189.4v1.2h-2.4v4.2
							h-1.5v-9.7h1.5v4.2H516.1z"/>
						<path d="M536.4,198v1.2h-14.7V198h6.5v-3.9h1.5v3.9H536.4z M535.1,194.3c-2.5-0.5-5-2.2-6-4.5c-1,2.3-3.6,4-6.1,4.5l-0.6-1.2
							c2.8-0.5,5.9-2.9,5.9-5.6v-1.2h1.5v1.2c0,2.7,3.1,5.1,5.9,5.6L535.1,194.3z"/>
						<path d="M543.1,189.6c0,3,1.2,5.6,3.5,6.8l-0.9,1.1c-1.6-0.9-2.7-2.4-3.3-4.4c-0.5,2.2-1.7,3.9-3.3,4.9l-0.9-1.1
							c2.3-1.3,3.5-4.1,3.5-7.3v-1.3h-3.1v-1.2h7.5v1.2h-2.9V189.6z M552.1,185.2v16.2h-1.4v-8.4h-2.1v7.6h-1.4v-15h1.4v6.2h2.1
							v-6.5H552.1z"/>
						<path d="M569.1,194.9c-3.5,0.6-7.3,0.6-10.1,0.6l-0.2-1.2c1.3,0,2.8,0,4.3-0.1v-1.2c-1.9-0.2-3-1-3-2.4c0-1.5,1.5-2.4,3.8-2.4
							c2.3,0,3.8,0.9,3.8,2.4c0,1.3-1.2,2.2-3,2.4v1.1c1.5-0.1,3-0.2,4.4-0.4L569.1,194.9z M568.5,187.8h-9.3v-1.1h3.9v-1.6h1.5v1.6
							h3.9V187.8z M560.8,196.8h10.6v4.5h-1.5V198h-9.1V196.8z M563.9,192.1c1.4,0,2.4-0.5,2.4-1.4c0-0.8-0.9-1.4-2.4-1.4
							c-1.5,0-2.4,0.5-2.4,1.4C561.5,191.6,562.4,192.1,563.9,192.1z M573.8,191.3h-2.4v4.7h-1.5v-10.8h1.5v4.9h2.4V191.3z"/>
						<path d="M590.1,198.1v1.2h-14.6v-1.2h6.6v-3.5h-4.8v-8.2h1.5v2.9h8.2v-2.9h1.4v8.2h-4.8v3.5H590.1z M578.7,193.4h8.2v-3h-8.2
							V193.4z"/>
					</g>
					<text transform="matrix(1 0 0 1 591.077 200)" class="st4 st5"> </text>
					<g class="st2">
						<path d="M246.8,229.3h4.6v1.3h-4.6V229.3z"/>
						<path d="M266.2,229.4c-1.8-0.7-3.3-2.2-4-4c-0.7,2-2.1,3.5-4,4.3l-0.8-1.2c2.4-0.9,4.1-3.3,4.1-5.8v-1.6h1.5v1.6
							c0,2.4,1.6,4.6,4,5.5L266.2,229.4z M271,234.8v1.2h-10.9v-5h1.5v3.8H271z M270.5,232H269v-11.8h1.5V232z"/>
						<path d="M288.4,229.5h-3.9v6.8h-1.5v-6.8H279v6.8h-1.5v-6.8h-3.7v-1.2h10.6c0.5-2.6,0.5-4.4,0.5-5.8h-9.3v-1.2h10.7v1.2
							c0,1.5,0,3.3-0.5,5.9h2.5V229.5z"/>
						<path d="M302.9,221.9c0,4.7-2.1,8.8-7.5,11.4l-0.8-1.2c4.3-2.1,6.5-5.2,6.8-9h-6.1v-1.2H302.9z M307.6,220.2v16.2h-1.5v-16.2
							H307.6z"/>
						<path d="M325.6,227.7v1.2H311v-1.2H325.6z M323.8,233.3c0,1.9-2.1,2.9-5.5,2.9s-5.5-1.1-5.5-2.9c0-1.9,2.1-3,5.5-3
							S323.8,231.5,323.8,233.3z M323.9,225.9h-11v-5.3h1.5v4.2h9.5V225.9z M322.3,233.3c0-1.2-1.5-1.8-4-1.8c-2.5,0-4,0.6-4,1.8
							c0,1.1,1.5,1.8,4,1.8C320.8,235.1,322.3,234.5,322.3,233.3z"/>
						<path d="M336.2,229c-1.8-0.7-3.1-1.9-3.8-3.6c-0.7,1.9-2.1,3.4-4.1,4.1l-0.8-1.2c2.5-0.9,4.1-3,4.1-5.5v-1.7h1.5v1.6
							c0,2.3,1.6,4.3,3.9,5.1L336.2,229z M340.8,233.3c0,1.9-2.1,3-5.4,3s-5.4-1.1-5.4-3c0-1.9,2.1-3,5.4-3S340.8,231.3,340.8,233.3
							z M339.4,233.3c0-1.2-1.5-1.9-3.9-1.9s-3.9,0.7-3.9,1.9c0,1.2,1.5,1.9,3.9,1.9S339.4,234.4,339.4,233.3z M339.3,224.8h-3.5
							v-1.2h3.5v-3.4h1.5v9.5h-1.5V224.8z"/>
						<path d="M344.2,231.6c2.9,0,7,0,10.5-0.6l0.1,1.1c-3.6,0.7-7.5,0.7-10.5,0.7L344.2,231.6z M353.6,225.2c0,2.3-1.8,3.8-4.3,3.8
							c-2.5,0-4.3-1.5-4.3-3.8c0-2.3,1.8-3.8,4.3-3.8C351.8,221.4,353.6,222.9,353.6,225.2z M346.4,225.2c0,1.5,1.2,2.5,2.9,2.5
							s2.9-1,2.9-2.5c0-1.5-1.2-2.5-2.9-2.5S346.4,223.7,346.4,225.2z M357.2,220.2v16.2h-1.5v-16.2H357.2z"/>
						<path d="M371.6,222.3c0,4.2-1.5,8-6,10.6l-0.9-1.1c3.7-2.1,5.2-5,5.5-8.3h-4.8v-1.2H371.6z M378.4,220.2v16.2h-1.4v-8.4h-2.2
							v7.6h-1.4v-14.9h1.4v6.1h2.2v-6.5H378.4z"/>
						<path d="M389.3,228H382v-7h1.5v2.3h4.4V221h1.5v1.5h3.7v-2.3h1.5v8.4H393v-2.1h-3.7V228z M387.8,224.4h-4.4v2.4h4.4V224.4z
							 M395.1,234.9v1.2h-11v-4h8.9v-1.5h-8.9v-1.2h10.4v3.8h-8.9v1.7H395.1z M389.3,223.6v1.8h3.7v-1.8H389.3z"/>
						<path d="M402.3,229.3c-2.4,0-4.2-1.7-4.2-4c0-2.3,1.8-4,4.2-4c2.4,0,4.2,1.6,4.2,4C406.6,227.6,404.8,229.3,402.3,229.3z
							 M402.3,228c1.6,0,2.8-1.1,2.8-2.7c0-1.6-1.2-2.7-2.8-2.7c-1.6,0-2.8,1.1-2.8,2.7C399.6,226.9,400.8,228,402.3,228z
							 M411.5,234.8v1.2h-10.9v-5.2h1.5v4H411.5z M411,232h-1.5v-11.8h1.5V232z"/>
						<path d="M423.1,229.2c-1.8-0.6-3.2-2-3.9-3.6c-0.7,1.9-2.2,3.4-4.1,4.1l-0.8-1.2c2.4-0.9,4.1-3.1,4.1-5.4v-0.6h-3.6v-1.2h8.6
							v1.2h-3.5v0.6c0,2.1,1.6,4.1,3.9,4.9L423.1,229.2z M427.7,233.3c0,1.9-2.1,3-5.4,3s-5.4-1.1-5.4-3c0-1.9,2.1-3,5.4-3
							S427.7,231.4,427.7,233.3z M426.2,233.3c0-1.2-1.5-1.9-3.9-1.9s-3.9,0.7-3.9,1.9c0,1.2,1.5,1.9,3.9,1.9
							S426.2,234.5,426.2,233.3z M426.1,224.4v-4.2h1.5v9.6h-1.5v-4.2H423v-1.2H426.1z"/>
						<path d="M440,223.2h-9V222h3.9V220h1.5v1.9h3.7V223.2z M435.5,230c-2.2,0-3.7-1.2-3.7-3c0-1.8,1.5-3,3.7-3
							c2.1,0,3.7,1.2,3.7,3C439.2,228.8,437.6,230,435.5,230z M435.5,228.8c1.4,0,2.3-0.7,2.3-1.9c0-1.1-0.9-1.9-2.3-1.9
							c-1.4,0-2.3,0.7-2.3,1.9C433.2,228.1,434.2,228.8,435.5,228.8z M444.3,233.6c0,1.7-2,2.8-5.4,2.8c-3.3,0-5.4-1-5.4-2.8
							c0-1.8,2-2.8,5.4-2.8C442.2,230.8,444.3,231.8,444.3,233.6z M442.7,233.6c0-1-1.5-1.6-3.8-1.6c-2.4,0-3.9,0.6-3.9,1.6
							c0,1,1.5,1.6,3.9,1.6C441.3,235.2,442.7,234.6,442.7,233.6z M442.7,225.3H440v-1.2h2.7v-3.9h1.5v10.4h-1.5v-2.2H440v-1.2h2.7
							V225.3z"/>
						<path d="M459.9,221.4c0,4.2-2.9,7.3-7.5,8.8l-0.6-1.2c3.7-1.2,6.2-3.5,6.6-6.4h-5.7v-1.2H459.9z M465.2,234.8v1.2h-10.6v-5.1
							h1.5v3.9H465.2z M463.3,225.2v-5h1.5v11.9h-1.5v-5.7h-3.5v-1.2H463.3z"/>
						<path d="M476.2,221.4c0,4.1-2.9,7.1-7.5,8.5l-0.6-1.2c3.8-1.1,6.3-3.3,6.5-6.1h-5.9v-1.2H476.2z M480.8,233.2
							c0,1.9-2.1,3.1-5.3,3.1c-3.2,0-5.3-1.2-5.3-3.1c0-2,2.1-3.1,5.3-3.1C478.7,230,480.8,231.2,480.8,233.2z M479.3,233.2
							c0-1.2-1.5-2-3.8-2c-2.3,0-3.8,0.7-3.8,2c0,1.2,1.5,2,3.8,2C477.8,235.1,479.3,234.4,479.3,233.2z M483,224.4v1.2h-2.4v4.2
							h-1.5v-9.7h1.5v4.2H483z"/>
						<path d="M493.1,221.9c0,4.7-2.1,8.8-7.5,11.4l-0.8-1.2c4.3-2.1,6.5-5.2,6.8-9h-6.1v-1.2H493.1z M497.9,220.2v16.2h-1.5v-16.2
							H497.9z"/>
						<path d="M515.8,227.7v1.2h-14.6v-1.2H515.8z M514,233.3c0,1.9-2.1,2.9-5.5,2.9c-3.4,0-5.5-1.1-5.5-2.9c0-1.9,2.1-3,5.5-3
							C511.9,230.4,514,231.5,514,233.3z M514.1,225.9h-11v-5.3h1.5v4.2h9.5V225.9z M512.5,233.3c0-1.2-1.5-1.8-4-1.8
							c-2.5,0-4,0.6-4,1.8c0,1.1,1.5,1.8,4,1.8C511,235.1,512.5,234.5,512.5,233.3z"/>
						<path d="M526.7,229c-1.9-0.7-3.3-2.1-4-3.8c-0.7,1.9-2.2,3.4-4.1,4.1l-0.8-1.2c2.4-0.9,4.1-3.1,4.1-5.5v-1.6h1.5v1.6
							c0,2.3,1.7,4.4,4.1,5.3L526.7,229z M520.2,230.7H531v5.6h-1.5v-4.4h-9.3V230.7z M531,220.2v9.7h-1.5v-9.7H531z"/>
						<path d="M542.3,229.2v1.9h4.8v5h-11v-5h4.8v-1.9h-6.6V228h14.6v1.2H542.3z M538.1,221.9h-2.4v-1.2h11.8v1.2h-2.4v3.4h2.4v1.2
							h-11.7v-1.2h2.4V221.9z M545.7,232.2h-8.1v2.7h8.1V232.2z M543.6,221.9h-4v3.4h4V221.9z"/>
						<path d="M562.9,227.9v3h4.8v5.4h-1.5v-4.2h-9.8v-1.2h5v-3h-6.6v-1.2h10.9c0.4-1.9,0.4-3.4,0.4-4.6h-9.4V221h10.9v1.2
							c0,1.2,0,2.7-0.4,4.6h2.3v1.2H562.9z"/>
						<path d="M573.7,230.9c1.5,0,3.3-0.1,5.2-0.5l0.1,1.3c-2.2,0.4-4,0.5-5.8,0.5h-1v-10h1.5V230.9z M585.1,220.2v16.1h-1.4V228
							h-2.3v7.5H580v-15h1.4v6.2h2.3v-6.6H585.1z"/>
						<path d="M600.4,227.8h-7.5v-6.6h7.5V227.8z M600.9,231.7c0,1.5,2.5,3.1,5.3,3.5l-0.5,1.1c-2.4-0.3-4.6-1.5-5.5-3
							c-1,1.5-3.2,2.6-5.6,3l-0.5-1.1c2.8-0.3,5.3-1.9,5.3-3.5h-4.7v-1.1h4.7V229h1.5v1.6h4.7v1.1H600.9z M599,222.4h-4.7v4.2h4.7
							V222.4z M605.3,229.5h-1.5v-9.3h1.5V229.5z"/>
						<path d="M627.3,226.2v1.2h-14.7v-1.2h10.9c0.4-1.8,0.4-3.1,0.4-4.1h-9.4v-1.2h10.9v1c0,1.1,0,2.5-0.4,4.3H627.3z M615.9,235
							h10v1.2h-11.4V232h9.6v-1.8h-9.6V229h11.1v4.1h-9.6V235z"/>
						<path d="M643.8,233.1v1.2h-14.7v-1.2h6.6v-3H631v-5h9.6v-2.5H631v-1.2H642v4.9h-9.6v2.6h9.9v1.2h-5.2v3H643.8z"/>
						<path d="M653.8,227.9h-7.3v-7h1.5v2.3h4.4v-2.3h1.5v2.9h3.7v-3.6h1.5v8.4h-1.5V225h-3.7V227.9z M652.4,224.4H648v2.4h4.4
							V224.4z M659.6,234.9v1.2h-11v-4h8.9v-1.6h-8.9v-1.2H659v3.8h-8.9v1.7H659.6z"/>
						<path d="M672.1,224.5c0,3,1.9,5.9,4.3,7l-0.9,1.2c-1.8-0.9-3.4-2.8-4.2-5.1c-0.7,2.4-2.3,4.4-4.2,5.4l-0.9-1.2
							c2.4-1.1,4.3-4.2,4.3-7.3v-2.9h1.5V224.5z M679.6,220.2v16.2h-1.5v-16.2H679.6z"/>
						<path d="M691.6,229.1c-1.8-0.6-3.2-1.9-3.9-3.5c-0.7,1.8-2.1,3.3-4.1,4l-0.8-1.2c2.4-0.8,4.1-2.9,4.1-5.3v-0.6h-3.6v-1.2h8.7
							v1.2h-3.6v0.6c0,2.1,1.5,4,3.9,4.8L691.6,229.1z M695.6,233.3c0,1.9-2,3-5.3,3c-3.3,0-5.3-1.1-5.3-3c0-1.9,2-3,5.3-3
							C693.6,230.4,695.6,231.5,695.6,233.3z M694.1,233.3c0-1.1-1.5-1.8-3.8-1.8c-2.4,0-3.9,0.7-3.9,1.8c0,1.2,1.4,1.8,3.9,1.8
							C692.7,235.1,694.1,234.5,694.1,233.3z M697.8,224.3v1.2h-2.4v4.4H694v-9.7h1.5v4.1H697.8z"/>
						<path d="M712.6,229.7c-1.9-0.6-3.3-2-4.1-3.7c-0.7,1.8-2.2,3.3-4.1,4l-0.8-1.2c2.4-0.8,4.1-3,4.1-5.3v-0.9h-3.7v-1.2h8.9v1.2
							h-3.7v0.9c0,2.2,1.7,4.1,4.1,4.9L712.6,229.7z M717.2,234.8v1.2h-10.9v-5.1h1.5v3.9H717.2z M716.7,232h-1.5v-11.8h1.5V232z"/>
						<path d="M728.1,228.5v1.5h4.7v3.5h-9.5v1.5h10v1.1h-11.4v-3.7h9.5v-1.4h-9.5V230h4.8v-1.5h-6.5v-1.1h14.6v1.1H728.1z
							 M720.8,225.5c3-0.2,5.5-1.2,5.7-2.8h-5v-1.1h5.1v-1.5h1.5v1.5h5.1v1.1h-5c0.3,1.6,2.7,2.6,5.7,2.8l-0.5,1.1
							c-2.7-0.2-5.1-1-6.1-2.5c-1,1.5-3.4,2.3-6.1,2.5L720.8,225.5z"/>
					</g>
				</g>
				<g id="표" transform="translate(47.000000, 319.000000)">
					<g id="others" transform="translate(280.000000, 0.000000)">
						<g id="_x31_">
							<path id="bg_2_" class="st6" d="M8,0h134c4.4,0,8,3.6,8,8v34c0,4.4-3.6,8-8,8H8c-4.4,0-8-3.6-8-8V8C0,3.6,3.6,0,8,0z"/>
							<g class="st2">
								<path class="st3" d="M55.4,19.9c0,4.2-1.4,7.7-6.3,10l-1-1.6c3.5-1.7,5.1-3.9,5.3-6.9h-4.6v-1.6H55.4z M59.5,18.5v13.8h-2
									V18.5H59.5z"/>
								<path class="st3" d="M74.4,29.1v1.6H61.8v-1.6h5.3v-2.7h2v2.7H74.4z M62.2,25.4c3.1-0.4,4.7-1.9,4.8-3.4h-4.2v-1.6h4.2v-1.7
									h2v1.7h4.2v1.6h-4.2c0.2,1.5,1.7,3.1,4.8,3.4l-0.7,1.6c-2.5-0.3-4.2-1.3-5.1-2.8c-0.9,1.4-2.7,2.4-5.1,2.8L62.2,25.4z"/>
								<path class="st3" d="M82.2,25.3c-0.7,0.7-1.6,1.1-2.7,1.1c-2,0-3.6-1.5-3.6-3.6c0-2.1,1.6-3.6,3.6-3.6c1.1,0,2,0.4,2.7,1.1
									h3.1v-1.9h2v10.1h-2v-3.3H82.2z M79.5,24.7c1,0,1.8-0.7,1.8-1.9c0-1.1-0.8-1.8-1.8-1.8c-1,0-1.8,0.7-1.8,1.8
									C77.7,24,78.4,24.7,79.5,24.7z M87.5,30.5V32h-9.4v-4.5h2v2.9H87.5z M83,22c0.1,0.3,0.1,0.6,0.1,0.9c0,0.3,0,0.6-0.1,0.9
									h2.2V22H83z"/>
								<path class="st3" d="M101.9,26.7h-5.3v5.5h-2v-5.5h-5.2v-1.6h8.7c0.3-1.8,0.4-3.1,0.4-4.3h-7.6v-1.6h9.6v1.2
									c0,1.3,0,2.7-0.3,4.6h1.8V26.7z"/>
							</g>
						</g>
						<g id="_x32_" transform="translate(317.000000, 0.000000)">
							<path id="bg_3_" class="st6" d="M8,0h134c4.4,0,8,3.6,8,8v34c0,4.4-3.6,8-8,8H8c-4.4,0-8-3.6-8-8V8C0,3.6,3.6,0,8,0z"/>
							<g class="st2">
								<path class="st3" d="M38.7,26.4c-2.1,0-3.8-1.5-3.8-3.5c0-2,1.7-3.5,3.8-3.5c2.1,0,3.7,1.5,3.7,3.5
									C42.5,24.9,40.8,26.4,38.7,26.4z M38.7,24.7c1,0,1.8-0.7,1.8-1.8c0-1.1-0.8-1.8-1.8-1.8c-1,0-1.8,0.7-1.8,1.8
									C36.9,24,37.7,24.7,38.7,24.7z M46.6,30.5V32H37v-4.6h2v3H46.6z M46.2,28.4h-2v-9.9h2V28.4z"/>
								<path class="st3" d="M52.8,22.7c0,2.1,0.7,4.2,2.7,5.2l-1.1,1.5c-1.2-0.6-2-1.7-2.5-3.1c-0.5,1.4-1.3,2.7-2.5,3.4l-1.1-1.5
									c2-1.2,2.7-3.4,2.7-5.5v-0.3h-2.2v-1.6H51v-1.9h1.9v1.9h2.1v1.6h-2.1V22.7z M55.7,18.7h1.8v13h-1.8v-6.4h-1.6v-1.6h1.6V18.7
									z M60.4,18.5v13.8h-1.9V18.5H60.4z"/>
								<path class="st3" d="M69.7,26.3c-1.5-0.5-2.5-1.5-3.1-2.7c-0.6,1.3-1.7,2.5-3.3,3l-1-1.6c2.2-0.8,3.2-2.5,3.3-4.2h-2.7v-1.6
									h7.4v1.6h-2.7c0,1.6,1,3.2,3.1,4L69.7,26.3z M64.5,27.3h9.4v5h-2v-3.4h-7.4V27.3z M73.9,18.5v8.2h-2v-3.3h-2v-1.6h2v-3.3
									H73.9z"/>
								<path class="st3" d="M88.6,25v1.6H76.1V25h2.8v-1.7c-1-0.5-1.6-1.1-1.6-2c0-1.7,2-2.7,5-2.7c3.1,0,5,1,5,2.7
									c0,0.9-0.6,1.6-1.6,2V25H88.6z M87.2,29.8c0,1.6-1.8,2.5-4.8,2.5c-3,0-4.8-0.9-4.8-2.5c0-1.6,1.8-2.5,4.8-2.5
									C85.3,27.3,87.2,28.2,87.2,29.8z M79.4,21.3c0,0.8,1.1,1.1,3,1.1c1.9,0,3-0.4,3-1.1c0-0.8-1.1-1.2-3-1.2
									C80.5,20.2,79.4,20.6,79.4,21.3z M85.1,29.8c0-0.7-0.9-1-2.8-1s-2.8,0.3-2.8,1s0.9,1,2.8,1S85.1,30.5,85.1,29.8z M80.9,25
									h2.9v-1.1c-0.4,0-0.9,0.1-1.4,0.1c-0.5,0-1,0-1.5-0.1V25z"/>
								<path class="st3" d="M95.3,21.6c0,2.6,1.1,5.1,3.4,6.1l-1.1,1.6c-1.6-0.7-2.7-2.1-3.3-3.8c-0.6,1.8-1.7,3.3-3.4,4.1
									l-1.2-1.6c2.4-1,3.6-3.7,3.6-6.4v-2h2V21.6z M101.4,18.5v13.9h-2V18.5H101.4z"/>
								<path class="st3" d="M111.9,21.2h-8.1v-1.5h3v-1.3h2v1.3h3.1V21.2z M107.8,26.7c-1.9,0-3.3-1-3.3-2.5c0-1.5,1.4-2.5,3.3-2.5
									c1.9,0,3.3,1,3.3,2.5C111.1,25.6,109.8,26.7,107.8,26.7z M106.1,27.4h9.2v4.7h-9.2V27.4z M107.8,25.2c0.8,0,1.4-0.4,1.4-1
									c0-0.7-0.6-1-1.4-1c-0.8,0-1.4,0.4-1.4,1C106.4,24.9,107,25.2,107.8,25.2z M108,30.6h5.3V29H108V30.6z M115.3,18.5v8.3h-2
									v-2.7h-1.7v-1.6h1.7v-4H115.3z"/>
							</g>
						</g>
						<g id="_x33_" transform="translate(157.000000, 0.000000)">
							<path id="bg_4_" class="st6" d="M8,0h134c4.4,0,8,3.6,8,8v34c0,4.4-3.6,8-8,8H8c-4.4,0-8-3.6-8-8V8C0,3.6,3.6,0,8,0z"/>
							<g class="st2">
								<path class="st3" d="M62.8,26.8c-1.5-0.5-2.5-1.5-3.1-2.7c-0.6,1.4-1.7,2.5-3.3,3l-1-1.6c2.3-0.7,3.3-2.5,3.3-4.3V21h-2.7
									v-1.6h7.4V21h-2.7v0.2c0,1.6,0.9,3.3,3.1,4.1L62.8,26.8z M67.3,30.5V32h-9.4v-4.3h2v2.8H67.3z M65,22v-3.6h2v10.1h-2v-4.9
									h-2.2V22H65z"/>
								<path class="st3" d="M77,22.4c0,1.9-1.6,3.3-3.7,3.3c-2.1,0-3.8-1.4-3.8-3.3c0-2,1.6-3.3,3.8-3.3C75.3,19.1,77,20.5,77,22.4
									z M71.4,22.4c0,1,0.8,1.7,1.8,1.7c1,0,1.8-0.6,1.8-1.7c0-1-0.8-1.7-1.8-1.7C72.2,20.8,71.4,21.4,71.4,22.4z M80.7,26.9v5.2
									h-9.2v-5.2H80.7z M73.5,28.5v2.1h5.3v-2.1H73.5z M80.7,18.5v7.8h-2v-7.8H80.7z"/>
								<path class="st3" d="M90.2,26.1c-1.5-0.5-2.5-1.4-3-2.6c-0.6,1.4-1.7,2.4-3.2,3l-1-1.6c2.3-0.8,3.2-2.6,3.2-4.5v-1.2h2v1.4
									c0,1.7,0.9,3.3,3.1,4L90.2,26.1z M94.1,29.6c0,1.7-1.8,2.7-4.7,2.7c-2.9,0-4.7-1-4.7-2.7c0-1.7,1.8-2.7,4.7-2.7
									C92.3,27,94.1,28,94.1,29.6z M92.1,29.6c0-0.8-0.9-1.1-2.7-1.1c-1.8,0-2.7,0.4-2.7,1.1c0,0.8,0.9,1.1,2.7,1.1
									C91.2,30.8,92.1,30.4,92.1,29.6z M95.8,21.7v1.6h-1.8v3.3h-2v-8.2h2v3.2H95.8z"/>
							</g>
						</g>
						<g id="_x34_" transform="translate(477.000000, 0.000000)">
							<path id="bg_5_" class="st6" d="M8,0h134c4.4,0,8,3.6,8,8v34c0,4.4-3.6,8-8,8H8c-4.4,0-8-3.6-8-8V8C0,3.6,3.6,0,8,0z"/>
							<g class="st2">
								<path class="st3" d="M51.7,21.6c0,2.6,1.1,5.1,3.4,6.1L54,29.2c-1.6-0.7-2.7-2.1-3.3-3.8c-0.6,1.8-1.7,3.3-3.4,4.1l-1.2-1.6
									c2.4-1,3.6-3.7,3.6-6.4v-2h2V21.6z M57.8,18.5v13.9h-2V18.5H57.8z"/>
								<path class="st3" d="M67.4,26.3c-1.5-0.5-2.6-1.4-3.2-2.5c-0.6,1.4-1.7,2.5-3.3,3l-1-1.5c2.2-0.8,3.2-2.5,3.3-4.2h-2.7v-1.6
									h7.5V21h-2.7c0,1.6,1,3.1,3.1,3.8L67.4,26.3z M71.2,29.6c0,1.7-1.8,2.7-4.7,2.7c-2.9,0-4.7-1-4.7-2.7c0-1.7,1.8-2.7,4.7-2.7
									C69.4,26.9,71.2,27.9,71.2,29.6z M69.2,29.6c0-0.8-0.9-1.2-2.7-1.2c-1.8,0-2.7,0.4-2.7,1.2c0,0.8,0.9,1.2,2.7,1.2
									C68.3,30.8,69.2,30.4,69.2,29.6z M72.8,21.7v1.6H71v3.4h-2v-8.2h2v3.2H72.8z"/>
								<path class="st3" d="M81.2,25.8v0.8h3.7V30h-7.6v0.7h7.9v1.4h-9.9v-3.5H83V28h-7.6v-1.4h3.8v-0.8H74v-1.5h12.4v1.5H81.2z
									 M74.5,22.5c2.8-0.1,4.1-0.8,4.5-1.6h-3.8v-1.4h4v-1.1h2v1.1h4.1V21h-3.8c0.4,0.8,1.7,1.4,4.5,1.6L85.3,24
									c-2.6-0.1-4.3-0.8-5.2-1.8c-0.9,1-2.6,1.7-5.2,1.8L74.5,22.5z"/>
								<path class="st3" d="M93.1,21.6c0,2.6,1.1,5.1,3.4,6.1l-1.1,1.6c-1.6-0.7-2.7-2.1-3.3-3.8c-0.6,1.8-1.7,3.3-3.4,4.1
									l-1.2-1.6c2.4-1,3.6-3.7,3.6-6.4v-2h2V21.6z M99.2,18.5v13.9h-2V18.5H99.2z"/>
							</g>
						</g>
					</g>
					<g id="수평_divider" transform="translate(0.000000, 125.000000)">
						<line id="divider" class="st7" x1="0" y1="0.5" x2="907" y2="0.5"/>
						<line id="divider_1_" class="st7" x1="0" y1="75.5" x2="907" y2="75.5"/>
						<line id="divider_2_" class="st7" x1="0" y1="150.5" x2="907" y2="150.5"/>
						<line id="divider_3_" class="st7" x1="0" y1="225.5" x2="907" y2="225.5"/>
					</g>
					<g id="bars" transform="translate(289.000000, 67.000000)">
						<g id="bar1">
							<path id="bar" class="st8" d="M21,0.5h566c11.3,0,20.5,9.2,20.5,20.5l0,0c0,11.3-9.2,20.5-20.5,20.5H21
								C9.7,41.5,0.5,32.3,0.5,21l0,0C0.5,9.7,9.7,0.5,21,0.5z"/>
							<g id="text" transform="translate(208.000000, 10.000000)">
								<g>
									<g class="st2">
										<path class="st3" d="M3,13.8l-1,3.2H0.6L4,6.9h1.6L9.1,17H7.7l-1.1-3.2H3z M6.3,12.8l-1-2.9C5.1,9.2,4.9,8.6,4.8,8h0
											C4.6,8.6,4.5,9.3,4.3,9.9l-1,2.9H6.3z"/>
										<path class="st3" d="M10.5,6.9h1.3v9h4.3V17h-5.6V6.9z"/>
										<path class="st3" d="M17.6,6.9h1.3v9h4.3V17h-5.6V6.9z"/>
										<path class="st3" d="M29.9,12.3H26v3.6h4.4V17h-5.7V6.9h5.5V8H26v3.2h3.9V12.3z"/>
										<path class="st3" d="M37.6,17l-1.3-2.2c-0.5-0.9-0.9-1.4-1.2-2h0c-0.3,0.6-0.6,1.1-1.1,2L32.8,17h-1.5l3.1-5.1l-3-5H33
											l1.3,2.4c0.4,0.7,0.7,1.2,0.9,1.7h0c0.3-0.6,0.5-1.1,0.9-1.7l1.4-2.4h1.5L36,11.8l3.1,5.2H37.6z"/>
									</g>
									<g class="st2">
										<path class="st3" d="M51.7,6.3c0,1.4-1.1,2.5-2.4,2.5c-1.4,0-2.4-1.1-2.4-2.5c0-1.4,1.1-2.5,2.4-2.5
											C50.7,3.8,51.7,4.9,51.7,6.3z M47.3,6.3c0,1.2,0.9,2.1,2,2.1c1.1,0,2-0.9,2-2.2c0-1.2-0.9-2.1-2-2.1
											C48.2,4.1,47.3,5.1,47.3,6.3z M50.3,5.4c-0.1-0.1-0.4-0.2-0.8-0.2c-0.8,0-1.1,0.5-1.1,1.1c0,0.6,0.4,1.1,1.1,1.1
											c0.3,0,0.6-0.1,0.8-0.2l0.1,0.3c-0.3,0.2-0.6,0.2-1,0.2c-0.9,0-1.5-0.6-1.5-1.4c0-0.9,0.7-1.5,1.5-1.5
											c0.4,0,0.8,0.1,0.9,0.2L50.3,5.4z"/>
									</g>
								</g>
								<g class="st2">
									<path class="st3" d="M69.5,12.3c-1.7,0-2.9-1-2.9-2.5c0-1.5,1.3-2.5,2.9-2.5c1.7,0,2.9,1.1,2.9,2.5
										C72.5,11.3,71.2,12.3,69.5,12.3z M69.5,16.7h6v1.2h-7.6v-3.1h5.7v-0.7h-5.7v-1.2h7.3v3h-5.7V16.7z M69.5,11.1
										c0.8,0,1.4-0.5,1.4-1.2c0-0.8-0.6-1.2-1.4-1.2S68.1,9,68.1,9.8C68.1,10.6,68.7,11.1,69.5,11.1z M76.7,9.1v1.3h-1.5v2.1
										h-1.6V7h1.6v2.1H76.7z"/>
									<path class="st3" d="M82.7,13.2c-1.2,0.2-2.3,0.3-4,0.3H78V10h2.3V9H78V7.8h3.9v3.4h-2.4v1.1c1.2,0,2-0.1,3-0.2L82.7,13.2z
										 M79.4,14.3H87V18h-1.6v-2.5h-5.9V14.3z M83.2,10.9h-1V9.6h1V7.2h1.5v6.6h-1.5V10.9z M87,7v6.9h-1.5V7H87z"/>
									<path class="st3" d="M98.6,15.4v1.3h-10v-1.3H98.6z M97.6,13.5c-1.9-0.4-3.3-1.5-4-2.9c-0.7,1.4-2.1,2.5-4,2.9l-0.7-1.3
										c2.5-0.4,3.9-2.2,3.9-3.8V7.6h1.7v0.8c0,1.6,1.4,3.3,3.9,3.8L97.6,13.5z"/>
									<path class="st3" d="M105,7.3h1.2l-3,11.8H102L105,7.3z"/>
									<path class="st3" d="M112.8,12.3c-1.7,0-2.9-1-2.9-2.5c0-1.5,1.3-2.5,2.9-2.5c1.7,0,2.9,1.1,2.9,2.5
										C115.7,11.3,114.5,12.3,112.8,12.3z M112.7,16.7h6v1.2h-7.6v-3.1h5.7v-0.7h-5.7v-1.2h7.3v3h-5.7V16.7z M112.8,11.1
										c0.8,0,1.4-0.5,1.4-1.2c0-0.8-0.6-1.2-1.4-1.2s-1.4,0.5-1.4,1.2C111.3,10.6,111.9,11.1,112.8,11.1z M119.9,9.1v1.3h-1.5
										v2.1h-1.6V7h1.6v2.1H119.9z"/>
									<path class="st3" d="M125.9,13.2c-1.2,0.2-2.3,0.3-4,0.3h-0.8V10h2.4V9h-2.4V7.8h3.9v3.4h-2.4v1.1c1.2,0,2-0.1,3-0.2
										L125.9,13.2z M122.7,14.3h7.5V18h-1.6v-2.5h-5.9V14.3z M126.5,10.9h-1V9.6h1V7.2h1.5v6.6h-1.5V10.9z M130.2,7v6.9h-1.5V7
										H130.2z"/>
									<path class="st3" d="M141.8,15.4v1.3h-10v-1.3H141.8z M140.8,13.5c-1.9-0.4-3.3-1.5-4-2.9c-0.7,1.4-2.1,2.5-4,2.9l-0.7-1.3
										c2.5-0.4,3.9-2.2,3.9-3.8V7.6h1.7v0.8c0,1.6,1.4,3.3,3.9,3.8L140.8,13.5z"/>
									<path class="st3" d="M151.4,11.7c0,2.4-1.2,4-2.9,4c-1.7,0-2.9-1.5-2.9-4c0-2.4,1.2-3.9,2.9-3.9
										C150.2,7.8,151.4,9.3,151.4,11.7z M149.9,11.7c0-1.6-0.6-2.5-1.4-2.5c-0.8,0-1.4,0.9-1.4,2.5c0,1.6,0.6,2.5,1.4,2.5
										C149.4,14.2,149.9,13.3,149.9,11.7z M155.8,12.5h-1.6V18h-1.6V7h1.6v4.2h1.6V12.5z"/>
									<path class="st3" d="M162.7,11.7c0,2.4-1.2,4-2.9,4c-1.7,0-2.9-1.5-2.9-4c0-2.4,1.2-3.9,2.9-3.9
										C161.5,7.8,162.7,9.3,162.7,11.7z M158.5,11.7c0,1.6,0.6,2.5,1.4,2.5c0.8,0,1.4-0.9,1.4-2.5c0-1.6-0.6-2.5-1.4-2.5
										C159,9.2,158.5,10.1,158.5,11.7z M165.8,7v11.1h-1.6V7H165.8z"/>
									<path class="st3" d="M176.2,12.8v0.7h3v2.7h-6v0.6h6.3v1.1h-7.9v-2.8h6.1v-0.5h-6.1v-1.1h3.1v-0.7h-4.2v-1.2h9.9v1.2H176.2
										z M170.8,10.2c2.2-0.1,3.3-0.6,3.6-1.2h-3V7.8h3.2V7h1.6v0.9h3.2V9h-3.1c0.3,0.6,1.4,1.2,3.6,1.2l-0.4,1.2
										c-2.1-0.1-3.4-0.6-4.1-1.4c-0.7,0.8-2.1,1.3-4.1,1.4L170.8,10.2z"/>
									<path class="st3" d="M185.7,9.4c0,2.1,0.9,4.1,2.7,4.9l-0.9,1.3c-1.3-0.6-2.1-1.7-2.6-3c-0.5,1.5-1.4,2.7-2.7,3.3l-0.9-1.3
										c1.9-0.8,2.8-3,2.8-5.1V7.8h1.6V9.4z M190.6,7v11.1H189V7H190.6z"/>
								</g>
							</g>
						</g>
						<g id="bar2" transform="translate(0.000000, 75.000000)">
							<path id="bar_1_" class="st8" d="M21,0.5h418c11.3,0,20.5,9.2,20.5,20.5l0,0c0,11.3-9.2,20.5-20.5,20.5H21
								C9.7,41.5,0.5,32.3,0.5,21l0,0C0.5,9.7,9.7,0.5,21,0.5z"/>
							<g id="text_1_" transform="translate(184.000000, 13.000000)">
								<g class="st2">
									<path class="st3" d="M4.2,10.3c-1.7,0-3-1.2-3-2.8c0-1.6,1.3-2.8,3-2.8s3,1.2,3,2.8C7.2,9.1,5.9,10.3,4.2,10.3z M4.2,8.9
										c0.8,0,1.5-0.5,1.5-1.4c0-0.9-0.6-1.4-1.5-1.4c-0.8,0-1.5,0.5-1.5,1.4C2.7,8.4,3.3,8.9,4.2,8.9z M10.4,13.6v1.3H2.8v-3.7
										h1.6v2.4H10.4z M10.2,11.9H8.6V4h1.6V11.9z"/>
									<path class="st3" d="M15.5,7.3c0,1.7,0.6,3.4,2.1,4.2l-0.9,1.2c-1-0.5-1.6-1.4-2-2.4c-0.4,1.2-1,2.1-2,2.7l-0.9-1.2
										C13.4,10.8,14,9,14,7.3V7.1h-1.7V5.8H14V4.3h1.5v1.5h1.7v1.3h-1.7V7.3z M17.8,4.2h1.5v10.4h-1.5V9.4h-1.3V8.2h1.3V4.2z
										 M21.5,4v11H20V4H21.5z"/>
									<path class="st3" d="M29,10.3c-1.2-0.4-2-1.2-2.5-2.2c-0.5,1.1-1.4,2-2.6,2.4L23,9.2c1.8-0.6,2.6-2,2.6-3.4h-2.2V4.6h5.9
										v1.3h-2.1c0,1.3,0.8,2.6,2.5,3.2L29,10.3z M24.8,11h7.5v4h-1.6v-2.7h-5.9V11z M32.3,4v6.6h-1.6V7.9h-1.6V6.6h1.6V4H32.3z"
										/>
									<path class="st3" d="M44.1,9.2v1.2h-10V9.2h2.2V7.9c-0.8-0.4-1.2-0.9-1.2-1.6c0-1.3,1.6-2.1,4-2.1c2.4,0,4,0.8,4,2.1
										c0,0.7-0.5,1.3-1.3,1.6v1.3H44.1z M42.9,13c0,1.3-1.5,2-3.8,2s-3.8-0.7-3.8-2s1.4-2,3.8-2S42.9,11.7,42.9,13z M36.7,6.3
										c0,0.6,0.9,0.9,2.4,0.9c1.5,0,2.4-0.3,2.4-0.9c0-0.6-0.9-0.9-2.4-0.9C37.6,5.4,36.7,5.7,36.7,6.3z M41.3,13
										c0-0.6-0.8-0.8-2.2-0.8s-2.2,0.2-2.2,0.8s0.8,0.8,2.2,0.8S41.3,13.6,41.3,13z M37.9,9.2h2.3V8.3c-0.3,0-0.7,0.1-1.1,0.1
										c-0.4,0-0.8,0-1.2-0.1V9.2z"/>
									<path class="st3" d="M49.4,6.4c0,2.1,0.9,4.1,2.7,4.9l-0.9,1.3c-1.3-0.6-2.1-1.7-2.6-3c-0.5,1.5-1.4,2.7-2.7,3.3L45,11.6
										c1.9-0.8,2.8-3,2.8-5.1V4.8h1.6V6.4z M54.3,4v11.1h-1.6V4H54.3z"/>
									<path class="st3" d="M62.7,6.2h-6.5V5h2.4V3.9h1.6V5h2.4V6.2z M59.5,10.5c-1.5,0-2.7-0.8-2.7-2s1.1-2,2.7-2
										c1.5,0,2.7,0.8,2.7,2S61,10.5,59.5,10.5z M58.1,11.1h7.4v3.8h-7.4V11.1z M59.5,9.4c0.7,0,1.1-0.3,1.1-0.8
										c0-0.5-0.5-0.8-1.1-0.8c-0.7,0-1.1,0.3-1.1,0.8C58.3,9.1,58.8,9.4,59.5,9.4z M59.6,13.7h4.2v-1.3h-4.2V13.7z M65.4,4v6.7
										h-1.6V8.5h-1.4V7.2h1.4V4H65.4z"/>
									<path class="st3" d="M76.7,10.5c-2.2,0.4-4.7,0.5-6.5,0.5l-0.2-1.3c0.8,0,1.6,0,2.5,0V8.8c-1.2-0.3-2-1.1-2-2.2
										c0-1.3,1.2-2.2,2.7-2.2c1.6,0,2.8,0.9,2.8,2.2c0,1.1-0.8,1.9-2,2.2v0.8c0.9,0,1.7-0.1,2.5-0.2L76.7,10.5z M72.9,13.6h6.1
										v1.3h-7.7v-3.1h1.6V13.6z M73.2,7.7c0.8,0,1.3-0.4,1.3-1.1S74,5.6,73.2,5.6S72,6,72,6.7S72.5,7.7,73.2,7.7z M80.1,7.5v1.3
										h-1.4v3.7h-1.6V4h1.6v3.5H80.1z"/>
									<path class="st3" d="M91,12.5v1.3H81v-1.3h2.5v-1.7h-1.4V7.1h6.2V6h-6.2V4.7h7.7v3.7h-6.2v1.2h6.4v1.3h-1.5v1.7H91z
										 M85.1,12.5H87v-1.7h-1.9V12.5z"/>
								</g>
							</g>
						</g>
						<g id="bar4" transform="translate(0.000000, 150.000000)">
							<path id="bar_2_" class="st8" d="M21,0.5h566c11.3,0,20.5,9.2,20.5,20.5l0,0c0,11.3-9.2,20.5-20.5,20.5H21
								C9.7,41.5,0.5,32.3,0.5,21l0,0C0.5,9.7,9.7,0.5,21,0.5z"/>
							<g id="text_2_" transform="translate(219.000000, 10.000000)">
								<g>
									<g class="st2">
										<path class="st3" d="M11,12.6c-0.1-1.4-0.2-3.1-0.2-4.4h0C10.4,9.4,10,10.6,9.5,12l-1.8,4.9h-1l-1.6-4.8
											c-0.5-1.4-0.9-2.7-1.2-3.9h0c0,1.3-0.1,3-0.2,4.5L3.4,17H2.2L2.9,6.9h1.7l1.7,4.9c0.4,1.2,0.8,2.4,1,3.4h0
											c0.3-1,0.6-2.1,1.1-3.4l1.8-4.9h1.7L12.5,17h-1.3L11,12.6z"/>
										<path class="st3" d="M14.5,17V6.9h1.4l3.2,5.1c0.8,1.2,1.3,2.2,1.8,3.3l0,0c-0.1-1.4-0.2-2.6-0.2-4.2V6.9h1.2V17h-1.3
											l-3.2-5.1c-0.7-1.1-1.4-2.3-1.9-3.4l0,0c0.1,1.3,0.1,2.5,0.1,4.2V17H14.5z"/>
										<path class="st3" d="M29.6,12.3h-3.9v3.6h4.4V17h-5.7V6.9h5.5V8h-4.2v3.2h3.9V12.3z"/>
										<path class="st3" d="M40.3,12.6c-0.1-1.4-0.2-3.1-0.2-4.4h0c-0.3,1.2-0.8,2.4-1.3,3.8L37,16.9h-1l-1.6-4.8
											c-0.5-1.4-0.9-2.7-1.2-3.9h0c0,1.3-0.1,3-0.2,4.5L32.7,17h-1.2l0.7-10.1h1.7l1.7,4.9c0.4,1.2,0.8,2.4,1,3.4h0
											c0.3-1,0.6-2.1,1.1-3.4l1.8-4.9h1.7L41.8,17h-1.3L40.3,12.6z"/>
										<path class="st3" d="M52.4,11.8c0,3.5-2.1,5.3-4.7,5.3c-2.7,0-4.5-2.1-4.5-5.1c0-3.2,2-5.3,4.7-5.3
											C50.7,6.7,52.4,8.8,52.4,11.8z M44.6,12c0,2.2,1.2,4.1,3.2,4.1c2.1,0,3.2-1.9,3.2-4.2c0-2-1-4.1-3.2-4.1
											C45.7,7.8,44.6,9.8,44.6,12z"/>
										<path class="st3" d="M54,15.4c0.6,0.4,1.4,0.7,2.3,0.7c1.3,0,2.1-0.7,2.1-1.7c0-0.9-0.5-1.5-1.9-2
											c-1.6-0.6-2.7-1.4-2.7-2.9c0-1.6,1.3-2.7,3.3-2.7c1,0,1.8,0.2,2.2,0.5L59,8.3c-0.3-0.2-1-0.5-1.9-0.5
											c-1.4,0-1.9,0.8-1.9,1.5c0,0.9,0.6,1.4,2,2c1.7,0.7,2.6,1.5,2.6,3c0,1.6-1.2,2.9-3.5,2.9c-1,0-2-0.3-2.6-0.6L54,15.4z"/>
										<path class="st3" d="M62.8,6.9V17h-1.3V6.9H62.8z"/>
										<path class="st3" d="M65.1,17V6.9h1.4l3.2,5.1c0.8,1.2,1.3,2.2,1.8,3.3l0,0c-0.1-1.4-0.2-2.6-0.2-4.2V6.9h1.2V17h-1.3
											l-3.2-5.1c-0.7-1.1-1.4-2.3-1.9-3.4l0,0c0.1,1.3,0.1,2.5,0.1,4.2V17H65.1z"/>
										<path class="st3" d="M80.2,12.3h-3.9v3.6h4.4V17H75V6.9h5.5V8h-4.2v3.2h3.9V12.3z"/>
									</g>
									<g class="st2">
										<path class="st3" d="M98.7,6.3c0,1.4-1.1,2.5-2.4,2.5c-1.4,0-2.4-1.1-2.4-2.5c0-1.4,1.1-2.5,2.4-2.5
											C97.7,3.8,98.7,4.9,98.7,6.3z M94.3,6.3c0,1.2,0.9,2.1,2,2.1c1.1,0,2-0.9,2-2.2c0-1.2-0.9-2.1-2-2.1
											C95.2,4.1,94.3,5.1,94.3,6.3z M97.3,5.4c-0.1-0.1-0.4-0.2-0.8-0.2c-0.8,0-1.1,0.5-1.1,1.1c0,0.6,0.4,1.1,1.1,1.1
											c0.3,0,0.6-0.1,0.8-0.2l0.1,0.3c-0.3,0.2-0.6,0.2-1,0.2c-0.9,0-1.5-0.6-1.5-1.4c0-0.9,0.7-1.5,1.5-1.5
											c0.4,0,0.8,0.1,0.9,0.2L97.3,5.4z"/>
									</g>
								</g>
								<g class="st2">
									<path class="st3" d="M115.7,14c1.5,0,3-0.2,4.6-0.5l0.2,1.3c-1.9,0.4-3.7,0.5-5.4,0.5h-1V8h1.6V14z M122.7,7v11h-1.6V7
										H122.7z"/>
									<path class="st3" d="M134.6,15.5v1.3h-10v-1.3h4.2v-2.2h-3.1V7.8h7.9v5.4h-3.1v2.2H134.6z M127.2,12h4.8V9h-4.8V12z"/>
									<path class="st3" d="M141.6,13.4c-1.2-0.4-2.1-1.2-2.5-2.3c-0.5,1.1-1.4,2-2.7,2.5l-0.8-1.3c1.8-0.6,2.6-2.2,2.6-3.6V7.6
										h1.6v1.1c0,1.5,0.8,2.9,2.6,3.4L141.6,13.4z M145,16.6v1.3h-7.6v-3.6h1.6v2.3H145z M144.8,15h-1.6V7h1.6V15z"/>
									<path class="st3" d="M155.1,12.8v0.7h3v2.7h-6v0.6h6.3v1.1h-7.9v-2.8h6.1v-0.5h-6.1v-1.1h3.1v-0.7h-4.2v-1.2h9.9v1.2H155.1
										z M149.8,10.2c2.2-0.1,3.3-0.6,3.6-1.2h-3V7.8h3.2V7h1.6v0.9h3.2V9h-3.1c0.3,0.6,1.4,1.2,3.6,1.2l-0.4,1.2
										c-2.1-0.1-3.4-0.6-4.1-1.4c-0.7,0.8-2.1,1.3-4.1,1.4L149.8,10.2z"/>
									<path class="st3" d="M164.7,9.4c0,2.1,0.9,4.1,2.7,4.9l-0.9,1.3c-1.3-0.6-2.1-1.7-2.6-3c-0.5,1.5-1.4,2.7-2.7,3.3l-0.9-1.3
										c1.9-0.8,2.8-3,2.8-5.1V7.8h1.6V9.4z M169.6,7v11.1H168V7H169.6z"/>
								</g>
							</g>
						</g>
						<g id="bar5" transform="translate(0.000000, 225.000000)">
							<path id="bar_3_" class="st8" d="M21,0.5h343c11.3,0,20.5,9.2,20.5,20.5l0,0c0,11.3-9.2,20.5-20.5,20.5H21
								C9.7,41.5,0.5,32.3,0.5,21l0,0C0.5,9.7,9.7,0.5,21,0.5z"/>
							<g id="text_3_" transform="translate(152.000000, 13.000000)">
								<g class="st2">
									<path class="st3" d="M4.2,10.3c-1.7,0-3-1.2-3-2.8c0-1.6,1.3-2.8,3-2.8c1.7,0,3,1.2,3,2.8C7.2,9.1,5.9,10.3,4.2,10.3z
										 M4.2,8.9c0.8,0,1.5-0.5,1.5-1.4c0-0.9-0.6-1.4-1.5-1.4c-0.8,0-1.5,0.5-1.5,1.4C2.7,8.4,3.4,8.9,4.2,8.9z M10.5,13.6v1.3
										H2.8v-3.7h1.6v2.4H10.5z M10.2,11.9H8.6V4h1.6V11.9z"/>
									<path class="st3" d="M15.5,7.3c0,1.7,0.6,3.4,2.1,4.2l-0.9,1.2c-1-0.5-1.6-1.4-2-2.4c-0.4,1.2-1,2.1-2,2.7l-0.9-1.2
										C13.4,10.8,14,9,14,7.3V7.1h-1.7V5.8H14V4.3h1.5v1.5h1.7v1.3h-1.7V7.3z M17.8,4.2h1.5v10.4h-1.5V9.4h-1.3V8.2h1.3V4.2z
										 M21.5,4v11H20V4H21.5z"/>
									<path class="st3" d="M29,10.3c-1.2-0.4-2-1.2-2.5-2.2c-0.5,1.1-1.4,2-2.6,2.4L23,9.2c1.8-0.6,2.6-2,2.6-3.4h-2.2V4.6h5.9
										v1.3h-2.1c0,1.3,0.8,2.6,2.5,3.2L29,10.3z M24.8,11h7.5v4h-1.6v-2.7h-5.9V11z M32.3,4v6.6h-1.6V7.9h-1.6V6.6h1.6V4H32.3z"
										/>
									<path class="st3" d="M44.1,9.2v1.2h-10V9.2h2.2V7.9c-0.8-0.4-1.2-0.9-1.2-1.6c0-1.3,1.6-2.1,4-2.1c2.4,0,4,0.8,4,2.1
										c0,0.7-0.5,1.3-1.3,1.6v1.3H44.1z M42.9,13c0,1.3-1.5,2-3.8,2s-3.8-0.7-3.8-2s1.4-2,3.8-2S42.9,11.7,42.9,13z M36.8,6.3
										c0,0.6,0.9,0.9,2.4,0.9c1.5,0,2.4-0.3,2.4-0.9c0-0.6-0.9-0.9-2.4-0.9C37.6,5.4,36.8,5.7,36.8,6.3z M41.3,13
										c0-0.6-0.8-0.8-2.2-0.8c-1.5,0-2.2,0.2-2.2,0.8s0.8,0.8,2.2,0.8C40.6,13.8,41.3,13.6,41.3,13z M38,9.2h2.3V8.3
										c-0.3,0-0.7,0.1-1.1,0.1c-0.4,0-0.8,0-1.2-0.1V9.2z"/>
									<path class="st3" d="M49.5,6.4c0,2.1,0.9,4.1,2.7,4.9l-0.9,1.3c-1.3-0.6-2.1-1.7-2.6-3c-0.5,1.5-1.4,2.7-2.7,3.3L45,11.6
										c1.9-0.8,2.8-3,2.8-5.1V4.8h1.6V6.4z M54.3,4v11.1h-1.6V4H54.3z"/>
									<path class="st3" d="M62.7,6.2h-6.5V5h2.4V3.9h1.6V5h2.4V6.2z M59.5,10.5c-1.5,0-2.7-0.8-2.7-2s1.1-2,2.7-2s2.7,0.8,2.7,2
										S61,10.5,59.5,10.5z M58.1,11.1h7.4v3.8h-7.4V11.1z M59.5,9.4c0.7,0,1.1-0.3,1.1-0.8c0-0.5-0.5-0.8-1.1-0.8
										S58.3,8,58.3,8.5C58.3,9.1,58.8,9.4,59.5,9.4z M59.7,13.7h4.2v-1.3h-4.2V13.7z M65.4,4v6.7h-1.6V8.5h-1.4V7.2h1.4V4H65.4z"
										/>
									<path class="st3" d="M75.8,10.3v0.8c1.9,0.2,3,0.8,3,2c0,1.3-1.5,2-3.8,2s-3.8-0.7-3.8-2c0-1.1,1.1-1.8,3.1-2v-0.8H70V9h10
										v1.3H75.8z M70.4,7.3c2.1-0.2,3.1-0.9,3.4-1.6h-2.9V4.4h8.2v1.3h-2.9c0.3,0.7,1.4,1.5,3.4,1.6L79,8.6c-2.1-0.2-3.4-1-4-2
										c-0.6,1-1.9,1.8-4,2L70.4,7.3z M74.9,12.2c-1.5,0-2.2,0.2-2.2,0.8c0,0.6,0.8,0.8,2.2,0.8c1.5,0,2.2-0.2,2.2-0.8
										C77.2,12.5,76.4,12.2,74.9,12.2z"/>
								</g>
							</g>
						</g>
						<g id="bar6" transform="translate(0.000000, 300.000000)">
							<path id="bar_4_" class="st8" d="M21,0.5h257c11.3,0,20.5,9.2,20.5,20.5l0,0c0,11.3-9.2,20.5-20.5,20.5H21
								C9.7,41.5,0.5,32.3,0.5,21l0,0C0.5,9.7,9.7,0.5,21,0.5z"/>
							<g id="text_4_" transform="translate(109.000000, 12.000000)">
								<g class="st2">
									<path class="st3" d="M4.2,10.3c-1.7,0-3-1.2-3-2.8c0-1.6,1.3-2.8,3-2.8c1.7,0,3,1.2,3,2.8C7.2,9.1,5.9,10.3,4.2,10.3z
										 M4.2,8.9c0.8,0,1.5-0.5,1.5-1.4c0-0.9-0.6-1.4-1.5-1.4c-0.8,0-1.5,0.5-1.5,1.4C2.7,8.4,3.4,8.9,4.2,8.9z M10.5,13.6v1.3
										H2.8v-3.7h1.6v2.4H10.5z M10.2,11.9H8.6V4h1.6V11.9z"/>
									<path class="st3" d="M15.5,7.3c0,1.7,0.6,3.4,2.1,4.2l-0.9,1.2c-1-0.5-1.6-1.4-2-2.4c-0.4,1.2-1,2.1-2,2.7l-0.9-1.2
										C13.4,10.8,14,9,14,7.3V7.1h-1.7V5.8H14V4.3h1.5v1.5h1.7v1.3h-1.7V7.3z M17.8,4.2h1.5v10.4h-1.5V9.4h-1.3V8.2h1.3V4.2z
										 M21.5,4v11H20V4H21.5z"/>
									<path class="st3" d="M29,10.3c-1.2-0.4-2-1.2-2.5-2.2c-0.5,1.1-1.4,2-2.6,2.4L23,9.2c1.8-0.6,2.6-2,2.6-3.4h-2.2V4.6h5.9
										v1.3h-2.1c0,1.3,0.8,2.6,2.5,3.2L29,10.3z M24.8,11h7.5v4h-1.6v-2.7h-5.9V11z M32.3,4v6.6h-1.6V7.9h-1.6V6.6h1.6V4H32.3z"
										/>
									<path class="st3" d="M44.1,9.2v1.2h-10V9.2h2.2V7.9c-0.8-0.4-1.2-0.9-1.2-1.6c0-1.3,1.6-2.1,4-2.1c2.4,0,4,0.8,4,2.1
										c0,0.7-0.5,1.3-1.3,1.6v1.3H44.1z M42.9,13c0,1.3-1.5,2-3.8,2s-3.8-0.7-3.8-2s1.4-2,3.8-2S42.9,11.7,42.9,13z M36.8,6.3
										c0,0.6,0.9,0.9,2.4,0.9c1.5,0,2.4-0.3,2.4-0.9c0-0.6-0.9-0.9-2.4-0.9C37.6,5.4,36.8,5.7,36.8,6.3z M41.3,13
										c0-0.6-0.8-0.8-2.2-0.8s-2.2,0.2-2.2,0.8s0.8,0.8,2.2,0.8S41.3,13.6,41.3,13z M38,9.2h2.3V8.3c-0.3,0-0.7,0.1-1.1,0.1
										c-0.4,0-0.8,0-1.2-0.1V9.2z"/>
									<path class="st3" d="M49.5,6.4c0,2.1,0.9,4.1,2.7,4.9l-0.9,1.3c-1.3-0.6-2.1-1.7-2.6-3c-0.5,1.5-1.4,2.7-2.7,3.3L45,11.6
										c1.9-0.8,2.8-3,2.8-5.1V4.8h1.6V6.4z M54.3,4v11.1h-1.6V4H54.3z"/>
									<path class="st3" d="M62.7,6.2h-6.5V5h2.4V3.9h1.6V5h2.4V6.2z M59.5,10.5c-1.5,0-2.7-0.8-2.7-2s1.1-2,2.7-2s2.7,0.8,2.7,2
										S61,10.5,59.5,10.5z M58.1,11.1h7.4v3.8h-7.4V11.1z M59.5,9.4c0.7,0,1.1-0.3,1.1-0.8c0-0.5-0.5-0.8-1.1-0.8
										S58.3,8,58.3,8.5C58.3,9.1,58.8,9.4,59.5,9.4z M59.7,13.7h4.2v-1.3h-4.2V13.7z M65.4,4v6.7h-1.6V8.5h-1.4V7.2h1.4V4H65.4z"
										/>
									<path class="st3" d="M75.8,10.3v0.8c1.9,0.2,3,0.8,3,2c0,1.3-1.5,2-3.8,2s-3.8-0.7-3.8-2c0-1.1,1.1-1.8,3.1-2v-0.8H70V9h10
										v1.3H75.8z M70.4,7.3c2.1-0.2,3.1-0.9,3.4-1.6h-2.9V4.4h8.2v1.3h-2.9c0.3,0.7,1.4,1.5,3.4,1.6L79,8.6c-2.1-0.2-3.4-1-4-2
										c-0.6,1-1.9,1.8-4,2L70.4,7.3z M74.9,12.2c-1.5,0-2.2,0.2-2.2,0.8c0,0.6,0.8,0.8,2.2,0.8c1.5,0,2.2-0.2,2.2-0.8
										C77.2,12.5,76.4,12.2,74.9,12.2z"/>
								</g>
							</g>
						</g>
					</g>
					<g id="project">
						<g id="_x31__1_" transform="translate(37.000000, 70.000000)">
							<g class="st2">
								<path d="M1.5,13h3.3c2.5,0,4.2,0.8,4.2,3.3c0,2.4-1.8,3.5-4.2,3.5H3.3V24H1.5V13z M4.8,18.4c1.8,0,2.6-0.7,2.6-2.1
									s-0.9-1.9-2.7-1.9H3.3v4.1H4.8z"/>
								<path d="M10.6,18.5c0-3.6,2.2-5.8,5.1-5.8c1.6,0,2.6,0.7,3.3,1.4l-0.9,1.1c-0.5-0.6-1.2-1-2.3-1c-2.1,0-3.4,1.6-3.4,4.2
									c0,2.6,1.2,4.2,3.5,4.2c0.7,0,1.4-0.2,1.7-0.5v-2.6h-2.2v-1.4h3.8v4.8c-0.7,0.7-2,1.3-3.5,1.3
									C12.8,24.2,10.6,22.1,10.6,18.5z"/>
								<path d="M21.6,22.6H24v-7.7h-2v-1.1c1-0.2,1.8-0.5,2.4-0.8h1.3v9.6h2.2V24h-6.3V22.6z"/>
								<path d="M29.5,18.4c0-3.8,1.4-5.7,3.6-5.7c2.2,0,3.6,1.9,3.6,5.7c0,3.8-1.4,5.8-3.6,5.8C30.9,24.2,29.5,22.3,29.5,18.4z
									 M35,18.4c0-3.2-0.8-4.3-1.9-4.3s-1.9,1.2-1.9,4.3c0,3.2,0.8,4.4,1.9,4.4S35,21.6,35,18.4z"/>
								<path d="M38,23c3.3-2.9,4.9-5,4.9-6.8c0-1.2-0.6-2-1.9-2c-0.9,0-1.6,0.6-2.2,1.2l-1-1c0.9-1,1.9-1.7,3.4-1.7
									c2,0,3.3,1.3,3.3,3.3c0,2.1-1.7,4.3-4,6.6c0.6-0.1,1.3-0.1,1.8-0.1h2.8V24H38V23z"/>
							</g>
							<g class="st2">
								<path d="M136.5,10.2h-5V5h5v0.9h2.3V4.1h1.2V12h-1.2V9.2h-2.3V10.2z M135.3,6h-2.6v3.2h2.6V6z M140.2,13.7v1h-7.3v-3.4h1.2
									v2.4H140.2z M136.5,6.9v1.3h2.3V6.9H136.5z"/>
								<path d="M151,4.1v6.4h-1.2V9h-2.6c-0.5,0.6-1.3,0.9-2.2,0.9c-1.6,0-2.8-1.1-2.8-2.6c0-1.5,1.2-2.6,2.8-2.6
									c0.9,0,1.7,0.4,2.2,0.9h2.6V4.1L151,4.1z M146.6,7.3c0-0.9-0.7-1.6-1.6-1.6s-1.6,0.6-1.6,1.6c0,0.9,0.7,1.6,1.6,1.6
									S146.6,8.3,146.6,7.3z M143.7,11h7.3v3.9h-1.2V12h-6.1V11z M149.8,8V6.6h-2c0,0.2,0.1,0.4,0.1,0.7c0,0.2,0,0.5-0.1,0.7
									H149.8z"/>
								<path d="M156.3,11.6c1.1,0,2.3-0.1,3.3-0.3l0.1,0.9c-2.2,0.4-4.7,0.4-6.6,0.4l-0.1-1c0.7,0,1.4,0,2.1,0V8.3h1.2V11.6z
									 M157.5,10.1c0.3-1.7,0.3-2.9,0.3-3.8h-4.3v-1h5.5V6c0,0.9,0,2.3-0.3,4.2L157.5,10.1z M163.1,9.6h-1.6v5.3h-1.2V4.1h1.2v4.4
									h1.6V9.6z"/>
								<path d="M169.8,10.1h-5.1V5h5.1V10.1z M168.6,6h-2.7v3.1h2.7V6z M173.3,13.6v1H166v-3.5h1.2v2.5H173.3z M173,11.8h-1.2V4.1
									h1.2V11.8z"/>
								<path d="M180.6,10.3h-5.1V4.9h1.2v1.7h2.7V4.9h1.2V10.3z M178,13.7h6v1h-7.3v-3.4h1.2V13.7z M179.4,7.5h-2.7v1.8h2.7V7.5z
									 M185.1,7.3v1h-1.5v3.8h-1.2v-8h1.2v3.2H185.1z"/>
								<path d="M196,9.3v1h-9.8v-1H196z M194.9,6.4c0,1.3-1.5,2.1-3.9,2.1c-2.4,0-3.9-0.8-3.9-2.1c0-1.3,1.5-2.1,3.9-2.1
									C193.4,4.3,194.9,5.1,194.9,6.4z M194.8,13c0,1.2-1.4,2-3.7,2c-2.3,0-3.7-0.7-3.7-2s1.4-2,3.7-2
									C193.4,11,194.8,11.7,194.8,13z M188.5,6.4c0,0.7,1,1.1,2.6,1.1c1.6,0,2.6-0.4,2.6-1.1c0-0.7-1-1.1-2.6-1.1
									C189.5,5.3,188.5,5.7,188.5,6.4z M188.6,13c0,0.7,0.9,1,2.5,1s2.5-0.3,2.5-1c0-0.7-0.9-1-2.5-1S188.6,12.3,188.6,13z"/>
							</g>
							<text transform="matrix(1 0 0 1 196.6199 14)" class="st9 st10"> </text>
							<g class="st2">
								<path d="M157.7,23.5c0,2.9-0.9,5.4-4,7.2l-0.7-0.9c2.3-1.4,3.3-3.1,3.5-5.3h-3v-1H157.7z M162.3,22.1v10.8h-1.2v-5.6h-1.2
									v5.1h-1.2v-10h1.2v3.9h1.2v-4.2H162.3z"/>
								<path d="M169.8,28.5c-1.2-0.4-2-1.3-2.5-2.4c-0.5,1.2-1.4,2.2-2.6,2.7l-0.7-1c1.7-0.6,2.6-2.1,2.6-3.7v-1.3h1.3V24
									c0,1.5,0.9,2.9,2.5,3.5L169.8,28.5z M173.3,31.7v1H166v-3.4h1.2v2.4H173.3z M171.8,25.5h-2.2v-1h2.2v-2.4h1.2v8.1h-1.2V25.5
									z"/>
							</g>
						</g>
						<g id="_x32__1_" transform="translate(33.000000, 152.000000)">
							<g class="st2">
								<path d="M1.7,6H5c2.5,0,4.2,0.8,4.2,3.3c0,2.4-1.8,3.5-4.2,3.5H3.4V17H1.7V6z M4.9,11.4c1.8,0,2.6-0.7,2.6-2.1
									S6.6,7.4,4.8,7.4H3.4v4.1H4.9z"/>
								<path d="M10.8,11.5c0-3.6,2.2-5.8,5.1-5.8c1.6,0,2.6,0.7,3.3,1.4l-0.9,1.1c-0.5-0.6-1.2-1-2.3-1c-2.1,0-3.4,1.6-3.4,4.2
									c0,2.6,1.2,4.2,3.5,4.2c0.7,0,1.4-0.2,1.7-0.5v-2.6h-2.2v-1.4h3.8v4.8c-0.7,0.7-2,1.3-3.5,1.3
									C12.9,17.2,10.8,15.1,10.8,11.5z"/>
								<path d="M21.7,15.6h2.4V7.9h-2V6.8c1-0.2,1.8-0.5,2.4-0.8h1.3v9.6H28V17h-6.3V15.6z"/>
								<path d="M29.7,11.4c0-3.8,1.4-5.7,3.6-5.7c2.2,0,3.6,1.9,3.6,5.7c0,3.8-1.4,5.8-3.6,5.8C31.1,17.2,29.7,15.3,29.7,11.4z
									 M35.2,11.4c0-3.2-0.8-4.3-1.9-4.3s-1.9,1.2-1.9,4.3c0,3.2,0.8,4.4,1.9,4.4S35.2,14.6,35.2,11.4z"/>
								<path d="M38.2,16c3.3-2.9,4.9-5,4.9-6.8c0-1.2-0.6-2-1.9-2c-0.9,0-1.6,0.6-2.2,1.2l-1-1c0.9-1,1.9-1.7,3.4-1.7
									c2,0,3.3,1.3,3.3,3.3c0,2.1-1.7,4.3-4,6.6c0.6-0.1,1.3-0.1,1.8-0.1h2.8V17h-7.1V16z"/>
								<path d="M47.5,6h3.3c2.5,0,4.2,0.8,4.2,3.3c0,2.4-1.8,3.5-4.2,3.5h-1.7V17h-1.7V6z M50.8,11.4c1.8,0,2.6-0.7,2.6-2.1
									s-0.9-1.9-2.7-1.9h-1.4v4.1H50.8z"/>
							</g>
							<g class="st2">
								<path d="M150,14.6v1h-9.8v-1h4.2V12h1.2v2.5H150z M149,12.2c-1.8-0.3-3.3-1.4-4-2.9c-0.7,1.4-2.3,2.5-4,2.9l-0.5-1
									c2.1-0.4,3.9-2,3.9-3.6V6.8h1.3v0.8c0,1.7,1.7,3.3,3.9,3.6L149,12.2z"/>
								<path d="M154.2,11.9c-1.6,0-2.9-1.1-2.9-2.6c0-1.5,1.2-2.6,2.9-2.6c1.7,0,2.9,1.1,2.9,2.6C157.1,10.8,155.9,11.9,154.2,11.9
									z M154.2,10.8c1,0,1.7-0.6,1.7-1.5c0-0.9-0.7-1.5-1.7-1.5c-1,0-1.7,0.6-1.7,1.5C152.5,10.2,153.3,10.8,154.2,10.8z
									 M159.8,14.8c0,1.3-1.4,2.1-3.6,2.1c-2.2,0-3.6-0.8-3.6-2.1c0-1.3,1.4-2.1,3.6-2.1C158.4,12.8,159.8,13.5,159.8,14.8z
									 M158.6,14.8c0-0.7-0.9-1.1-2.4-1.1c-1.5,0-2.4,0.4-2.4,1.1c0,0.7,0.9,1.1,2.4,1.1C157.7,15.9,158.6,15.6,158.6,14.8z
									 M159.7,8.6v1.3h1.5v1h-1.5v1.5h-1.2V6.1h1.2v1.5h1.5v1H159.7z"/>
								<path d="M167.7,6.7c0,2.8-1.9,4.8-5.1,5.6l-0.5-1c2.5-0.7,4-2,4.2-3.6h-3.7v-1H167.7z M163.8,12.7h6.9v4.1h-6.9V12.7z
									 M165,15.8h4.5v-2.1H165V15.8z M172.2,9.6h-1.5v2.6h-1.2V6.1h1.2v2.5h1.5V9.6z"/>
								<path d="M180.6,7.5c0,2.9-0.9,5.4-4,7.2l-0.7-0.9c2.3-1.4,3.3-3.1,3.5-5.3h-3v-1H180.6z M185.2,6.1v10.8H184v-5.6h-1.2v5.1
									h-1.2v-10h1.2v3.9h1.2V6.1H185.2z"/>
								<path d="M192.8,12.5c-1.2-0.4-2-1.3-2.5-2.4c-0.5,1.2-1.4,2.2-2.6,2.7l-0.7-1c1.7-0.6,2.6-2.1,2.6-3.7V6.8h1.3V8
									c0,1.5,0.9,2.9,2.5,3.5L192.8,12.5z M196.2,15.7v1h-7.3v-3.4h1.2v2.4H196.2z M194.8,9.5h-2.2v-1h2.2V6.1h1.2v8.1h-1.2V9.5z"
									/>
							</g>
						</g>
						<g id="_x34__1_" transform="translate(37.000000, 220.000000)">
							<g class="st2">
								<path d="M1.6,13h1.7v4.5h4.7V13h1.7v11H8.1v-5H3.3v5H1.6V13z"/>
								<path d="M14.7,18.3l-3-5.3h1.9l1.3,2.6c0.3,0.5,0.5,1,0.8,1.7h0.1c0.3-0.7,0.5-1.2,0.8-1.7l1.3-2.6h1.8l-3,5.4L20,24H18
									l-1.5-2.7c-0.3-0.6-0.6-1.1-0.9-1.8h-0.1c-0.3,0.7-0.6,1.2-0.9,1.8L13.3,24h-1.8L14.7,18.3z"/>
								<path d="M21.5,22.6h2.4v-7.7h-2v-1.1c1-0.2,1.8-0.5,2.4-0.8h1.3v9.6h2.2V24h-6.3V22.6z"/>
								<path d="M29.4,18.4c0-3.8,1.4-5.7,3.6-5.7c2.2,0,3.6,1.9,3.6,5.7c0,3.8-1.4,5.8-3.6,5.8C30.8,24.2,29.4,22.3,29.4,18.4z
									 M34.9,18.4c0-3.2-0.8-4.3-1.9-4.3s-1.9,1.2-1.9,4.3c0,3.2,0.8,4.4,1.9,4.4S34.9,21.6,34.9,18.4z"/>
								<path d="M44.1,15c-0.4-0.5-1.1-0.8-1.7-0.8c-1.4,0-2.6,1.1-2.7,4.2c0.6-0.8,1.6-1.3,2.4-1.3c1.9,0,3.1,1.1,3.1,3.5
									c0,2.2-1.5,3.6-3.3,3.6c-2.1,0-3.8-1.8-3.8-5.5c0-4.2,2-5.9,4.2-5.9c1.2,0,2.1,0.5,2.8,1.2L44.1,15z M43.6,20.6
									c0-1.4-0.6-2.2-1.8-2.2c-0.6,0-1.4,0.3-2.1,1.3c0.2,2.2,1,3.2,2.2,3.2C42.8,22.9,43.6,22,43.6,20.6z"/>
							</g>
							<g class="st2">
								<path d="M127,5.2c0,3.2-1.3,6-5,7.8l-0.7-1c2.8-1.4,4.2-3.3,4.4-5.8h-3.9v-1H127z M130.1,4.1v10.8h-1.2V4.1H130.1z"/>
								<path d="M141.2,4.1v6.4H140V7.8h-2c-0.2,1.3-1.3,2.1-2.8,2.1c-1.6,0-2.8-1.1-2.8-2.7c0-1.5,1.2-2.6,2.8-2.6
									c1.4,0,2.5,0.9,2.8,2.1h2V4.1H141.2z M136.9,7.3c0-0.9-0.7-1.6-1.6-1.6c-0.9,0-1.6,0.6-1.6,1.6c0,1,0.7,1.6,1.6,1.6
									C136.1,8.9,136.9,8.3,136.9,7.3z M133.9,11h7.3v3.9H140V12h-6.1V11z"/>
								<path d="M149,10.1c-1.3,0.2-2.4,0.3-4.5,0.3h-0.8V7h3.5V5.7h-3.5v-1h4.7V8h-3.5v1.4c1.8,0,2.8,0,4-0.3L149,10.1z
									 M144.9,11.3h7.3v3.6H151v-2.6h-6.1V11.3z M152.3,4.1v6.7H151V8.9h-1.9v-1h1.9V6.6h-1.9v-1h1.9V4.1H152.3z"/>
								<path d="M154.8,10.2c0-2.4,0.7-4.3,1.8-6.1l0.9,0.4c-1,1.7-1.5,3.8-1.5,5.8c0,2,0.5,4,1.5,5.8l-0.9,0.4
									C155.4,14.6,154.8,12.6,154.8,10.2z"/>
								<path d="M164.3,10.2c-1.2-0.4-2.1-1.2-2.5-2.3c-0.5,1.1-1.4,2-2.7,2.5l-0.6-1c1.7-0.6,2.7-2,2.7-3.4V5.8h-2.3v-1h5.8v1h-2.3
									V6c0,1.4,0.9,2.7,2.6,3.2L164.3,10.2z M159.9,11.1h7.1v3.8h-1.2v-2.8h-5.9V11.1z M168.6,7.9H167v2.7h-1.2V4.1h1.2v2.8h1.5
									V7.9z"/>
								<path d="M178.6,4.1v5.8h-1.2V7.6h-2c-0.2,1.2-1.3,2.1-2.8,2.1c-1.6,0-2.8-1-2.8-2.5c0-1.5,1.2-2.5,2.8-2.5
									c1.4,0,2.5,0.8,2.8,2h2V4.1H178.6z M174.2,7.1c0-0.9-0.7-1.5-1.6-1.5c-1,0-1.6,0.6-1.6,1.5c0,0.9,0.7,1.5,1.6,1.5
									C173.5,8.6,174.2,8,174.2,7.1z M177.4,10.4h1.2v4.4h-7v-4.4h1.2v1.2h4.6V10.4z M177.4,12.6h-4.6v1.2h4.6V12.6z"/>
								<path d="M186.4,5.2c0,3.2-1.3,6-5,7.8l-0.7-1c2.8-1.4,4.2-3.3,4.4-5.8h-3.9v-1H186.4z M189.6,4.1v10.8h-1.2V4.1H189.6z"/>
								<path d="M200.7,4.1v6.4h-1.2V7.8h-2c-0.2,1.3-1.3,2.1-2.8,2.1c-1.6,0-2.8-1.1-2.8-2.7c0-1.5,1.2-2.6,2.8-2.6
									c1.4,0,2.5,0.9,2.8,2.1h2V4.1H200.7z M196.3,7.3c0-0.9-0.7-1.6-1.6-1.6c-0.9,0-1.6,0.6-1.6,1.6c0,1,0.7,1.6,1.6,1.6
									C195.6,8.9,196.3,8.3,196.3,7.3z M193.4,11h7.3v3.9h-1.2V12h-6.1V11z"/>
								<path d="M202.7,16c1-1.7,1.5-3.7,1.5-5.8c0-2-0.5-4-1.5-5.8l0.9-0.4c1.1,1.8,1.8,3.8,1.8,6.1c0,2.4-0.7,4.3-1.8,6.1
									L202.7,16z"/>
							</g>
							<text transform="matrix(1 0 0 1 206.3997 14)" class="st9 st10"> </text>
							<g class="st2">
								<path d="M157.7,23.5c0,2.9-0.9,5.4-4,7.2l-0.7-0.9c2.3-1.4,3.3-3.1,3.5-5.3h-3v-1H157.7z M162.3,22.1v10.8h-1.2v-5.6h-1.2
									v5.1h-1.2v-10h1.2v3.9h1.2v-4.2H162.3z"/>
								<path d="M169.8,28.5c-1.2-0.4-2-1.3-2.5-2.4c-0.5,1.2-1.4,2.2-2.6,2.7l-0.7-1c1.7-0.6,2.6-2.1,2.6-3.7v-1.3h1.3V24
									c0,1.5,0.9,2.9,2.5,3.5L169.8,28.5z M173.3,31.7v1H166v-3.4h1.2v2.4H173.3z M171.8,25.5h-2.2v-1h2.2v-2.4h1.2v8.1h-1.2V25.5
									z"/>
							</g>
						</g>
						<g id="_x35_" transform="translate(37.000000, 295.000000)">
							<g class="st2">
								<path d="M1.6,13h1.7v4.5h4.7V13h1.7v11H8.1v-5H3.3v5H1.6V13z"/>
								<path d="M14.7,18.3l-3-5.3h1.9l1.3,2.6c0.3,0.5,0.5,1,0.8,1.7h0.1c0.3-0.7,0.5-1.2,0.8-1.7l1.3-2.6h1.8l-3,5.4L20,24H18
									l-1.5-2.7c-0.3-0.6-0.6-1.1-0.9-1.8h-0.1c-0.3,0.7-0.6,1.2-0.9,1.8L13.3,24h-1.8L14.7,18.3z"/>
								<path d="M21.5,22.6h2.4v-7.7h-2v-1.1c1-0.2,1.8-0.5,2.4-0.8h1.3v9.6h2.2V24h-6.3V22.6z"/>
								<path d="M30,22.6h2.4v-7.7h-2v-1.1c1-0.2,1.8-0.5,2.4-0.8h1.3v9.6h2.2V24H30V22.6z"/>
								<path d="M38,18.4c0-3.8,1.4-5.7,3.6-5.7c2.2,0,3.6,1.9,3.6,5.7c0,3.8-1.4,5.8-3.6,5.8C39.4,24.2,38,22.3,38,18.4z
									 M43.5,18.4c0-3.2-0.8-4.3-1.9-4.3s-1.9,1.2-1.9,4.3c0,3.2,0.8,4.4,1.9,4.4S43.5,21.6,43.5,18.4z"/>
							</g>
							<g class="st2">
								<path d="M157.4,12.7v1h-9.8v-1h4.3v-1.4c-1.9-0.1-3-0.9-3-2.1c0-1.3,1.4-2.1,3.6-2.1c2.2,0,3.6,0.8,3.6,2.1
									c0,1.2-1.1,1.9-3,2.1v1.4H157.4z M156.9,6.6H148v-1h3.8V4.2h1.2v1.3h3.8V6.6z M152.4,10.4c1.5,0,2.4-0.4,2.4-1.1
									c0-0.7-0.9-1.1-2.4-1.1c-1.5,0-2.3,0.4-2.3,1.1C150.1,10,150.9,10.4,152.4,10.4z"/>
								<path d="M168.4,9.8v1h-9.8v-1H168.4z M167.9,5.9h-8.8V4.9h3.8v-1h1.2v1h3.7V5.9z M165.9,11.3h1.2v3.5h-7.4v-3.5h1.2v0.8h4.9
									V11.3z M163.5,6.2c2.3,0,3.6,0.5,3.6,1.5c0,1-1.3,1.5-3.6,1.5c-2.3,0-3.6-0.5-3.6-1.5C159.9,6.7,161.2,6.2,163.5,6.2z
									 M165.9,13H161v0.9h4.9V13z M163.5,7c-1.5,0-2.2,0.2-2.2,0.7c0,0.4,0.8,0.7,2.2,0.7s2.2-0.2,2.2-0.7
									C165.7,7.3,165,7,163.5,7z"/>
								<path d="M175.4,5.2c0,3.2-1.3,6-5,7.8l-0.7-1c2.8-1.4,4.2-3.3,4.4-5.8h-3.9v-1H175.4z M178.6,4.1v10.8h-1.2V4.1H178.6z"/>
							</g>
							<g>
							</g>
							<g class="st2">
								<path d="M146.3,22.9c0,2.9-1.9,5-5,6l-0.5-1c2.4-0.8,4-2.2,4.2-4h-3.6v-1H146.3z M149.9,31.7v1h-7.2v-3.5h1.2v2.4H149.9z
									 M148.4,25.3v-3.2h1.2v8h-1.2v-3.7h-2.1v-1H148.4z"/>
								<path d="M157.2,22.8c0,2.8-1.9,4.8-5,5.8l-0.5-1c2.5-0.7,4-2.1,4.2-3.8h-3.7v-1H157.2z M160.3,30.8c0,1.3-1.4,2.1-3.6,2.1
									c-2.2,0-3.6-0.8-3.6-2.1c0-1.3,1.4-2.2,3.6-2.2C158.9,28.6,160.3,29.4,160.3,30.8z M159.1,30.8c0-0.8-0.9-1.2-2.4-1.2
									c-1.4,0-2.4,0.4-2.4,1.2c0,0.7,0.9,1.2,2.4,1.2C158.2,32,159.1,31.5,159.1,30.8z M161.7,24.8v1h-1.5v2.7h-1.2v-6.4h1.2v2.7
									H161.7z"/>
								<path d="M170.1,23.5c0,2.9-0.9,5.4-4,7.2l-0.7-0.9c2.3-1.4,3.3-3.1,3.5-5.3h-3v-1H170.1z M174.7,22.1v10.8h-1.2v-5.6h-1.2
									v5.1h-1.2v-10h1.2v3.9h1.2v-4.2H174.7z"/>
								<path d="M182.2,28.5c-1.2-0.4-2-1.3-2.5-2.4c-0.5,1.2-1.4,2.2-2.6,2.7l-0.7-1c1.7-0.6,2.6-2.1,2.6-3.7v-1.3h1.3V24
									c0,1.5,0.9,2.9,2.5,3.5L182.2,28.5z M185.7,31.7v1h-7.3v-3.4h1.2v2.4H185.7z M184.2,25.5H182v-1h2.2v-2.4h1.2v8.1h-1.2V25.5
									z"/>
							</g>
						</g>
						<g id="_x36_" transform="translate(37.000000, 370.000000)">
							<g class="st2">
								<path d="M1.6,13h1.7v4.5h4.7V13h1.7v11H8.1v-5H3.3v5H1.6V13z"/>
								<path d="M14.7,18.3l-3-5.3h1.9l1.3,2.6c0.3,0.5,0.5,1,0.8,1.7h0.1c0.3-0.7,0.5-1.2,0.8-1.7l1.3-2.6h1.8l-3,5.4L20,24H18
									l-1.5-2.7c-0.3-0.6-0.6-1.1-0.9-1.8h-0.1c-0.3,0.7-0.6,1.2-0.9,1.8L13.3,24h-1.8L14.7,18.3z"/>
								<path d="M21.5,22.6h2.4v-7.7h-2v-1.1c1-0.2,1.8-0.5,2.4-0.8h1.3v9.6h2.2V24h-6.3V22.6z"/>
								<path d="M30,22.6h2.4v-7.7h-2v-1.1c1-0.2,1.8-0.5,2.4-0.8h1.3v9.6h2.2V24H30V22.6z"/>
								<path d="M38,23c3.3-2.9,4.9-5,4.9-6.8c0-1.2-0.6-2-1.9-2c-0.9,0-1.6,0.6-2.2,1.2l-1-1c0.9-1,1.9-1.7,3.4-1.7
									c2,0,3.3,1.3,3.3,3.3c0,2.1-1.7,4.3-4,6.6c0.6-0.1,1.3-0.1,1.8-0.1h2.8V24H38V23z"/>
							</g>
							<g class="st2">
								<path d="M141.2,4.9c0,2.7-1.4,4.6-4.1,5.8l-0.6-0.9c2.1-0.9,3.2-2.2,3.5-3.9H137v-1H141.2z M145.8,12.8
									c0,1.3-1.4,2.1-3.7,2.1c-2.3,0-3.7-0.8-3.7-2.1c0-1.3,1.4-2.1,3.7-2.1C144.3,10.8,145.8,11.6,145.8,12.8z M144.5,12.8
									c0-0.7-0.9-1.1-2.5-1.1s-2.5,0.4-2.5,1.1c0,0.7,0.9,1.1,2.5,1.1S144.5,13.5,144.5,12.8z M143.3,10.3h-1.2v-6h1.2v2.5h1.2
									V4.1h1.2v6.6h-1.2V7.8h-1.2V10.3z"/>
								<path d="M153.7,10.2c-1.7,0.3-3.1,0.4-4.7,0.4h-0.8V4.8h1.2v4.7c1.4,0,2.7-0.1,4.2-0.4L153.7,10.2z M156.8,13.7v1h-7.3v-3.3
									h1.2v2.3H156.8z M155.3,8.4h-2.9v-1h2.9V6.4h-2.9v-1h2.9V4.1h1.2v8h-1.2V8.4z"/>
								<path d="M164.3,5.2c0,3.2-1.3,6-5,7.8l-0.7-1c2.8-1.4,4.2-3.3,4.4-5.8h-3.9v-1H164.3z M167.5,4.1v10.8h-1.2V4.1H167.5z"/>
								<path d="M178.6,4.1v10.9h-1.2v-4.1h-2.5c-0.5,1.1-1.3,1.7-2.3,1.7c-1.6,0-2.7-1.5-2.7-3.8c0-2.3,1.1-3.8,2.7-3.8
									c1,0,1.8,0.6,2.3,1.5h2.6V4.1H178.6z M174.1,8.7c0-1.7-0.6-2.7-1.6-2.7c-0.9,0-1.6,1-1.6,2.7c0,1.7,0.6,2.7,1.6,2.7
									C173.5,11.4,174.1,10.4,174.1,8.7z M177.4,9.8V7.4h-2.2c0.1,0.4,0.1,0.8,0.1,1.3c0,0.4,0,0.8-0.1,1.1H177.4z"/>
								<path d="M186.4,10c-1.2-0.4-2-1.2-2.5-2.3c-0.5,1.2-1.4,2.1-2.7,2.6l-0.6-1c1.7-0.6,2.7-2.1,2.7-3.6V4.7h1.2v1
									c0,1.5,0.9,2.9,2.5,3.4L186.4,10z M189.7,12.8c0,1.3-1.4,2.1-3.7,2.1c-2.3,0-3.6-0.8-3.6-2.1s1.4-2.1,3.6-2.1
									C188.3,10.8,189.7,11.5,189.7,12.8z M188.5,12.8c0-0.7-0.9-1.1-2.4-1.1s-2.4,0.4-2.4,1.1s0.9,1.1,2.4,1.1
									S188.5,13.6,188.5,12.8z M188.4,7.3h-2.2v-1h2.2V4.1h1.2v6.4h-1.2V7.3z"/>
							</g>
							<text transform="matrix(1 0 0 1 191.0999 14)" class="st9 st10"> </text>
							<g class="st2">
								<path d="M146.3,22.9c0,2.9-1.9,5-5,6l-0.5-1c2.4-0.8,4-2.2,4.2-4h-3.6v-1H146.3z M149.9,31.7v1h-7.2v-3.5h1.2v2.4H149.9z
									 M148.4,25.3v-3.2h1.2v8h-1.2v-3.7h-2.1v-1H148.4z"/>
								<path d="M157.2,22.8c0,2.8-1.9,4.8-5,5.8l-0.5-1c2.5-0.7,4-2.1,4.2-3.8h-3.7v-1H157.2z M160.3,30.8c0,1.3-1.4,2.1-3.6,2.1
									c-2.2,0-3.6-0.8-3.6-2.1c0-1.3,1.4-2.2,3.6-2.2C158.9,28.6,160.3,29.4,160.3,30.8z M159.1,30.8c0-0.8-0.9-1.2-2.4-1.2
									c-1.4,0-2.4,0.4-2.4,1.2c0,0.7,0.9,1.2,2.4,1.2C158.2,32,159.1,31.5,159.1,30.8z M161.7,24.8v1h-1.5v2.7h-1.2v-6.4h1.2v2.7
									H161.7z"/>
								<path d="M170.1,23.5c0,2.9-0.9,5.4-4,7.2l-0.7-0.9c2.3-1.4,3.3-3.1,3.5-5.3h-3v-1H170.1z M174.7,22.1v10.8h-1.2v-5.6h-1.2
									v5.1h-1.2v-10h1.2v3.9h1.2v-4.2H174.7z"/>
								<path d="M182.2,28.5c-1.2-0.4-2-1.3-2.5-2.4c-0.5,1.2-1.4,2.2-2.6,2.7l-0.7-1c1.7-0.6,2.6-2.1,2.6-3.7v-1.3h1.3V24
									c0,1.5,0.9,2.9,2.5,3.5L182.2,28.5z M185.7,31.7v1h-7.3v-3.4h1.2v2.4H185.7z M184.2,25.5H182v-1h2.2v-2.4h1.2v8.1h-1.2V25.5
									z"/>
							</g>
						</g>
						<g id="head1">
							<path id="bg_6_" class="st11" d="M8,0h104c4.4,0,8,3.6,8,8v34c0,4.4-3.6,8-8,8H8c-4.4,0-8-3.6-8-8V8C0,3.6,3.6,0,8,0z"/>
							<g class="st2">
								<path class="st3" d="M45.6,29.1v1.6H33v-1.6H45.6z M35.9,21.2H34v-1.6h10.5v1.6h-1.9v4.1h1.8V27H34.1v-1.6h1.8V21.2z
									 M40.7,21.2h-2.8v4.1h2.8V21.2z"/>
								<path class="st3" d="M59.4,29.2v1.6H46.8v-1.6h5.2v-2.1h-3.8v-4.7H56v-1.5h-7.7v-1.6h9.7V24h-7.7v1.5h8v1.6h-4.2v2.1H59.4z"
									/>
								<path class="st3" d="M66.5,26.5c-1.2-0.5-2-1.2-2.4-2.2c-0.5,1.1-1.3,2-2.6,2.5l-1-1.5c1.9-0.7,2.6-2.3,2.6-3.9V21h-2.2
									v-1.6H67V21h-2v0.4c0,1.5,0.7,2.9,2.4,3.6L66.5,26.5z M62.9,27.4h9.5v4.9h-2V29h-7.5V27.4z M67.8,21.9v-3.2h1.8v8.1h-1.8
									v-3.3h-1.5v-1.6H67.8z M72.4,18.5v8.4h-1.9v-8.4H72.4z"/>
								<path class="st3" d="M87,29.1v1.6H74.4v-1.6H87z M85.6,27.2h-9.7v-7.7h9.6v1.6h-7.6v1.5h7.3v1.5h-7.3v1.5h7.7V27.2z"/>
							</g>
						</g>
						<g id="head2" transform="translate(130.000000, 0.000000)">
							<path id="bg_7_" class="st11" d="M8,0h124c4.4,0,8,3.6,8,8v34c0,4.4-3.6,8-8,8H8c-4.4,0-8-3.6-8-8V8C0,3.6,3.6,0,8,0z"/>
							<g class="st2">
								<path class="st3" d="M45.9,27.5c1.3,0,2.5-0.1,3.8-0.3l0.1,1.6c-1.7,0.3-3.1,0.4-4.9,0.4h-1v-9.1H49v1.6h-3.2V27.5z
									 M55.4,18.5v13.8h-1.9v-6.9h-1.2v6.3h-1.8V18.7h1.8v5.1h1.2v-5.3H55.4z"/>
								<path class="st3" d="M64.5,26.1c-1.5-0.5-2.5-1.4-3-2.6c-0.6,1.4-1.7,2.4-3.2,3l-1-1.6c2.3-0.8,3.2-2.6,3.2-4.5v-1.2h2v1.4
									c0,1.7,0.9,3.3,3.1,4L64.5,26.1z M68.4,29.6c0,1.7-1.8,2.7-4.7,2.7c-2.9,0-4.7-1-4.7-2.7c0-1.7,1.8-2.7,4.7-2.7
									C66.6,27,68.4,28,68.4,29.6z M66.4,29.6c0-0.8-0.9-1.1-2.7-1.1c-1.8,0-2.7,0.4-2.7,1.1c0,0.8,0.9,1.1,2.7,1.1
									C65.5,30.8,66.4,30.4,66.4,29.6z M70,21.7v1.6h-1.8v3.3h-2v-8.2h2v3.2H70z"/>
								<path class="st3" d="M78.9,25.4c-1.6-0.4-2.7-1.3-3.3-2.5c-0.6,1.3-1.8,2.3-3.4,2.8l-0.9-1.5c2.1-0.6,3.1-2,3.3-3.5h-2.8
									v-1.6h7.5v1.6h-2.7c0.1,1.3,1.2,2.7,3.2,3.2L78.9,25.4z M83,30.7v1.5h-9.5v-3.8h7.2v-0.8h-7.2v-1.5h9.2v3.7h-7.2v0.9H83z
									 M82.6,25.6h-2v-7.1h2V25.6z"/>
								<path class="st3" d="M93.5,27.3c-2.9,0.5-6.1,0.6-8.5,0.6l-0.2-1.5c1,0,2.1,0,3.3,0v-0.8c-1.5-0.2-2.4-1-2.4-2.1
									c0-1.3,1.3-2.1,3.4-2.1c2,0,3.4,0.8,3.4,2.1c0,1.1-0.9,1.8-2.4,2.1v0.7c1.1-0.1,2.2-0.2,3.3-0.3L93.5,27.3z M93,21h-7.8
									v-1.4h2.9v-1.2h2v1.2H93V21z M88.7,30.5h7.7V32h-9.7v-3.5h2V30.5z M89.1,24.3c0.9,0,1.5-0.3,1.5-0.8c0-0.5-0.6-0.8-1.5-0.8
									c-0.9,0-1.5,0.3-1.5,0.8C87.6,24,88.1,24.3,89.1,24.3z M97.6,23v1.6h-1.7v4.6h-2V18.5h2V23H97.6z"/>
							</g>
						</g>
					</g>
				</g>
			</g>
		</g>
	</g>
</g>
</svg>
