<?xml version="1.0" encoding="UTF-8"?>
<svg width="247px" height="247px" viewBox="0 0 247 247" version="1.1" xmlns="http://www.w3.org/2000/svg" xmlns:xlink="http://www.w3.org/1999/xlink">
    <!-- Generator: Sketch 55.2 (78181) - https://sketchapp.com -->
    <title>early_phase_ico1</title>
    <desc>Created with Sketch.</desc>
    <g id="Page-1" stroke="none" stroke-width="1" fill="none" fill-rule="evenodd">
        <g id="3.aboutVM202" transform="translate(-191.000000, -5699.000000)">
            <g id="early_phase_ico1" transform="translate(192.000000, 5700.000000)">
                <circle id="Oval" stroke="#979797" fill="#FFFFFF" cx="122.5" cy="122.5" r="122.5"></circle>
                <g id="Group-3" transform="translate(45.000000, 85.000000)">
                    <path d="M63.7143,56.4115 C63.4063,57.1915 63.5103,58.0735 63.9893,58.7605 C66.3023,62.0735 68.7253,67.1365 69.6263,69.7495 C69.3163,69.9615 68.9773,70.1495 68.6473,70.3095 C66.0873,66.4225 61.6513,60.1725 58.4943,58.3655 C58.1153,58.1475 57.6873,58.0345 57.2523,58.0345 C57.1733,58.0345 57.0943,58.0385 57.0153,58.0455 C53.1743,58.4185 51.1243,55.8985 49.4653,53.8805 C49.3953,53.7945 49.3243,53.7115 49.2543,53.6265 C54.5323,46.9065 58.9743,48.1765 59.2493,48.2645 C60.5243,48.7275 61.9453,48.0815 62.4333,46.8075 C62.9273,45.5185 62.2823,44.0725 60.9933,43.5785 C60.6703,43.4545 52.9323,40.6415 45.1363,50.7665 C45.0033,50.9385 44.9053,51.1255 44.8243,51.3165 C44.2463,51.4585 43.7113,51.7615 43.2653,52.2215 C41.6213,53.5135 39.5803,54.0155 37.1903,53.7175 C33.8863,53.3025 30.8573,51.4445 29.2983,49.6685 C29.6443,47.2715 29.5233,45.1255 28.9303,43.2485 C28.9453,43.1715 28.9683,43.0965 28.9763,43.0155 C29.3643,39.0715 30.8333,38.5075 30.8483,38.5015 C30.7293,38.5435 30.6573,38.5405 30.6523,38.5425 L29.9243,33.5965 C29.5263,33.6545 26.7713,34.1995 25.1233,37.9325 C20.4523,34.4965 13.7663,35.0435 13.4433,35.0725 C12.0683,35.1965 11.0543,36.4115 11.1773,37.7865 C11.3013,39.1615 12.5223,40.1755 13.8913,40.0525 C13.9533,40.0465 20.3303,39.5715 23.1263,42.8465 C24.4733,44.4245 24.8203,46.8075 24.1863,49.9225 C21.0263,53.0755 17.2963,52.9735 15.2553,52.5895 C10.8273,51.7585 6.9303,48.3945 5.5583,44.2175 C4.0293,39.5675 5.6733,34.3395 10.1873,29.4965 C10.5913,29.0625 10.8283,28.4975 10.8553,27.9045 C11.1113,22.2105 13.6373,16.9495 17.2883,14.5015 C19.6303,12.9325 22.1703,12.6215 24.8383,13.5795 C26.0523,14.0125 27.4033,13.4535 27.9493,12.2825 C30.3773,7.0695 34.9233,5.5965 37.4163,5.1825 C39.7583,4.7915 42.1083,5.0395 43.9633,5.7805 C40.2543,8.2635 37.6593,11.2585 36.2263,14.7475 C33.1473,14.3875 30.2823,15.8345 29.8903,16.0455 C28.6763,16.6935 28.2213,18.1965 28.8623,19.4135 C29.3103,20.2615 30.1793,20.7455 31.0773,20.7455 C31.4683,20.7455 31.8643,20.6535 32.2353,20.4615 C32.7023,20.2175 33.9083,19.7455 35.0403,19.6955 C34.6083,24.8495 36.6103,28.8205 36.7223,29.0345 C37.1663,29.8895 38.0343,30.3765 38.9353,30.3765 C39.3203,30.3765 39.7113,30.2875 40.0783,30.0995 C41.3023,29.4725 41.7863,27.9675 41.1653,26.7405 C41.1413,26.6915 38.7323,21.8215 40.8363,16.6725 C42.5623,12.4495 46.8043,9.0675 53.4493,6.6065 C56.3173,6.3205 60.1763,6.6705 63.6573,8.4475 C68.4893,10.9145 71.0303,15.2665 71.2103,21.3825 C71.2393,22.3575 71.8323,23.2265 72.7303,23.6095 C76.0623,25.0285 78.3423,27.7325 79.1513,31.2245 C79.6173,33.2395 79.5243,35.3415 78.9493,37.3405 C77.6293,34.7455 75.7813,32.6635 73.3843,31.1525 C72.0693,30.3245 70.6773,29.7245 69.2673,29.2935 C66.1283,26.0635 66.8503,21.2805 66.8583,21.2305 L64.3933,20.8145 L61.9303,20.3855 C61.8913,20.6085 61.2803,24.3665 62.8343,28.3485 C58.2443,28.2885 54.5603,29.3675 54.3003,29.4465 C52.9803,29.8445 52.2333,31.2355 52.6283,32.5565 C53.0243,33.8775 54.4193,34.6295 55.7373,34.2355 C55.8273,34.2085 64.7693,31.6165 70.7353,35.3935 C73.2683,36.9965 74.9523,39.6175 75.7643,43.1865 C75.6613,43.4965 75.6193,43.8275 75.6453,44.1595 C76.1633,50.9825 73.2523,51.7185 69.5673,52.6505 C67.2923,53.2255 64.7143,53.8765 63.7143,56.4115 M80.6823,45.4135 C80.8623,45.0885 80.9803,44.7265 81.0013,44.3425 C84.0113,40.1825 85.1513,34.9725 84.0223,30.0955 C82.9803,25.5985 80.1373,21.8845 76.1203,19.7005 C75.3443,10.6705 70.2203,6.1845 65.9323,3.9945 C62.4183,2.2015 58.4193,1.4595 54.8543,1.5135 C54.3083,1.2785 53.6793,1.2285 53.0693,1.4355 C52.8333,1.5155 52.6103,1.6005 52.3783,1.6825 C50.9593,1.8645 49.6603,2.1815 48.5583,2.6195 C45.5133,0.4355 41.0363,-0.4855 36.5973,0.2495 C31.4233,1.1085 27.0893,3.9995 24.4293,8.2945 C20.9783,7.6215 17.5203,8.3275 14.5043,10.3485 C9.7123,13.5605 6.4713,19.7925 5.9173,26.7625 C-1.2657,34.9035 -0.3897,42.1375 0.8083,45.7795 C2.7623,51.7265 8.0713,56.3285 14.3333,57.5035 C18.9783,58.3765 23.4043,57.2075 26.8353,54.2815 C29.4223,56.5615 33.0383,58.2345 36.5673,58.6785 C39.8623,59.0915 42.8883,58.4525 45.4123,56.8245 C45.4783,56.9045 45.5423,56.9825 45.6033,57.0565 C47.4013,59.2435 50.6543,63.2055 56.5493,63.0795 C58.4943,64.6315 62.0423,69.2015 65.5263,74.6925 C65.9913,75.4265 66.7953,75.8525 67.6373,75.8525 C67.8393,75.8525 68.0433,75.8285 68.2453,75.7775 C68.6563,75.6745 72.3193,74.6965 74.3863,72.1085 C74.8283,71.5545 75.0153,70.8375 74.8983,70.1385 C74.4833,67.6455 71.9153,62.0385 69.3763,57.8795 C69.8413,57.7385 70.3683,57.6045 70.7923,57.4975 C74.3273,56.6035 80.7333,54.9595 80.6823,45.4135" id="Fill-1" fill="#263238"></path>
                    <g id="Group-23" transform="translate(100.000000, 0.000000)" stroke="#222829" stroke-linejoin="round" stroke-width="5">
                        <path d="M46,25 C48,34 55,35 55,51 C49,53 41.807,60 28,60 C21.434,60 9,57 9,57" id="Stroke-1"></path>
                        <path d="M41,46 C39,44 39,31 39,31" id="Stroke-3"></path>
                        <path d="M11,41 C11,41 17.268,37 25,37 C35,37 41,46 41,46" id="Stroke-5"></path>
                        <path d="M45,15 C45,23.284 38.284,30 30,30 C21.716,30 15,23.284 15,15 C15,6.716 21.716,0 30,0 C38.284,0 45,6.716 45,15 Z" id="Stroke-7"></path>
                        <path d="M0,32 C7,32 12,36 14,39" id="Stroke-9"></path>
                        <path d="M15,53 C9,53 8,62 0,62" id="Stroke-11"></path>
                    </g>
                </g>
            </g>
        </g>
    </g>
</svg>