<?xml version="1.0" encoding="utf-8"?>
<!-- Generator: Adobe Illustrator 23.0.1, SVG Export Plug-In . SVG Version: 6.00 Build 0)  -->
<svg version="1.1" id="Layer_1" xmlns="http://www.w3.org/2000/svg" xmlns:xlink="http://www.w3.org/1999/xlink" x="0px" y="0px"
	 viewBox="0 0 336 1354" style="enable-background:new 0 0 336 1354;" xml:space="preserve">
<style type="text/css">
	.st0{fill-rule:evenodd;clip-rule:evenodd;}
	.st1{enable-background:new    ;}
	.st2{fill:#FFFFFF;}
	.st3{fill:none;stroke:#000000;stroke-width:1.5;}
	.st4{fill:#B54142;}
	.st5{fill:none;stroke:#979797;stroke-linecap:square;}
	.st6{font-family:'NotoSansKR-Medium-KSCpc-EUC-H';}
	.st7{font-size:18px;}
</style>
<title>safety_img1_mobile</title>
<desc>Created with Sketch.</desc>
<g id="Page-1">
	<g id="mobile1-copy" transform="translate(-19.000000, -225.000000)">
		<g id="safety_img1_mobile" transform="translate(20.000000, 219.000000)">
			<g id="table1" transform="translate(0.000000, 84.000000)">
				<g id="cell1">
					<g transform="translate(0.000000, 47.000000)">
						<g id="head">
							<path id="bg" class="st0" d="M8,0h318c4.4,0,8,3.6,8,8v34c0,4.4-3.6,8-8,8H8c-4.4,0-8-3.6-8-8V8C0,3.6,3.6,0,8,0z"/>
							<g class="st1">
								<path class="st2" d="M136.2,19.9h6.8v1.8h-4.6v2.6h3.9v1.9h-3.9v3h4.8V31h-7V19.9z"/>
								<path class="st2" d="M145.3,22.6h1.8l0.1,1.1h0.1c0.7-0.7,1.6-1.3,2.7-1.3c1.8,0,2.6,1.3,2.6,3.4V31h-2.2v-5
									c0-1.3-0.4-1.8-1.2-1.8c-0.7,0-1.1,0.3-1.8,0.9V31h-2.2V22.6z"/>
								<path class="st2" d="M154.3,32.5c0-0.7,0.4-1.3,1.2-1.7v-0.1c-0.4-0.3-0.8-0.7-0.8-1.4c0-0.6,0.4-1.2,0.9-1.6v-0.1
									c-0.6-0.4-1.1-1.2-1.1-2.2c0-2,1.6-3,3.4-3c0.5,0,0.9,0.1,1.3,0.2h3v1.6h-1.4c0.2,0.3,0.4,0.8,0.4,1.3
									c0,1.9-1.4,2.8-3.2,2.8c-0.3,0-0.7-0.1-1.1-0.2c-0.2,0.2-0.4,0.4-0.4,0.7c0,0.5,0.3,0.7,1.3,0.7h1.4c2,0,3.1,0.6,3.1,2.1
									c0,1.7-1.8,3-4.6,3C155.9,34.6,154.3,34,154.3,32.5z M160.3,32c0-0.6-0.5-0.8-1.4-0.8h-1c-0.5,0-0.9,0-1.2-0.1
									c-0.4,0.3-0.6,0.6-0.6,1c0,0.7,0.8,1.1,2,1.1C159.4,33.2,160.3,32.7,160.3,32z M159.3,25.4c0-1-0.6-1.5-1.3-1.5
									s-1.3,0.6-1.3,1.5c0,1,0.6,1.5,1.3,1.5S159.3,26.4,159.3,25.4z"/>
								<path class="st2" d="M163,26.8c0-2.7,1.9-4.4,3.9-4.4c2.3,0,3.5,1.7,3.5,4c0,0.4,0,0.8-0.1,1h-5.2c0.2,1.4,1.1,2.1,2.3,2.1
									c0.7,0,1.3-0.2,1.9-0.6l0.8,1.4c-0.8,0.6-1.9,0.9-2.9,0.9C164.9,31.2,163,29.6,163,26.8z M168.6,26c0-1.1-0.5-1.9-1.6-1.9
									c-0.9,0-1.7,0.6-1.8,1.9H168.6z"/>
								<path class="st2" d="M172.3,22.6h1.8l0.2,1.1h0.1c0.7-0.7,1.6-1.3,2.7-1.3c1.8,0,2.6,1.3,2.6,3.4V31h-2.2v-5
									c0-1.3-0.4-1.8-1.2-1.8c-0.7,0-1.1,0.3-1.8,0.9V31h-2.2V22.6z"/>
								<path class="st2" d="M181.1,30l1-1.4c0.8,0.6,1.5,0.9,2.2,0.9c0.8,0,1.2-0.4,1.2-0.9c0-0.6-0.9-0.9-1.8-1.3
									c-1.1-0.4-2.3-1-2.3-2.4c0-1.5,1.2-2.6,3.1-2.6c1.2,0,2.2,0.5,2.9,1l-1,1.3c-0.6-0.4-1.2-0.7-1.8-0.7
									c-0.8,0-1.1,0.3-1.1,0.8c0,0.6,0.8,0.8,1.7,1.2c1.1,0.4,2.3,1,2.3,2.5c0,1.5-1.2,2.7-3.3,2.7
									C183.2,31.2,181.9,30.7,181.1,30z"/>
								<path class="st2" d="M189.1,20.1c0-0.7,0.6-1.2,1.3-1.2c0.8,0,1.3,0.5,1.3,1.2c0,0.7-0.6,1.2-1.3,1.2
									C189.7,21.2,189.1,20.7,189.1,20.1z M189.3,22.6h2.2V31h-2.2V22.6z"/>
								<path class="st2" d="M193.1,30l1-1.4c0.8,0.6,1.5,0.9,2.2,0.9c0.8,0,1.2-0.4,1.2-0.9c0-0.6-0.9-0.9-1.8-1.3
									c-1.1-0.4-2.3-1-2.3-2.4c0-1.5,1.2-2.6,3.1-2.6c1.2,0,2.2,0.5,2.9,1l-1,1.3c-0.6-0.4-1.2-0.7-1.8-0.7
									c-0.8,0-1.1,0.3-1.1,0.8c0,0.6,0.8,0.8,1.7,1.2c1.1,0.4,2.3,1,2.3,2.5c0,1.5-1.2,2.7-3.3,2.7
									C195.2,31.2,193.9,30.7,193.1,30z"/>
							</g>
						</g>
						<g id="sub" transform="translate(0.000000, 70.000000)">
							<g class="st1">
								<path d="M162.9,84.4l1-1.3c0.8,0.8,1.8,1.5,3.1,1.5c1.5,0,2.5-0.8,2.5-2.2c0-1.5-0.9-2.4-3.9-2.4v-1.5c2.6,0,3.5-1,3.5-2.3
									c0-1.2-0.8-1.9-2-1.9c-1,0-1.9,0.5-2.6,1.3l-1.1-1.3c1-0.9,2.3-1.6,3.8-1.6c2.4,0,4.1,1.2,4.1,3.4c0,1.5-0.9,2.6-2.3,3.1
									v0.1c1.5,0.4,2.7,1.5,2.7,3.3c0,2.4-2,3.8-4.4,3.8C165.1,86.2,163.8,85.4,162.9,84.4z"/>
							</g>
							<g class="st1">
								<path d="M121.2,179.7h2.1l4.4,7.8l1.4,2.8h0.1c-0.1-1.4-0.3-3-0.3-4.4v-6.2h2V193h-2.1l-4.4-7.8l-1.4-2.8h-0.1
									c0.1,1.4,0.3,2.9,0.3,4.3v6.2h-2V179.7z"/>
								<path d="M133.5,188.1c0-3.3,2.2-5.2,4.7-5.2c2.4,0,4.7,1.9,4.7,5.2c0,3.3-2.2,5.2-4.7,5.2
									C135.7,193.2,133.5,191.3,133.5,188.1z M140.7,188.1c0-2.1-1-3.5-2.5-3.5c-1.5,0-2.5,1.4-2.5,3.5c0,2.1,1,3.5,2.5,3.5
									C139.8,191.5,140.7,190.2,140.7,188.1z"/>
								<path d="M145.2,189.8v-5h-1.4v-1.5l1.5-0.1l0.2-2.7h1.7v2.7h2.6v1.7h-2.6v5c0,1.2,0.4,1.8,1.4,1.8c0.3,0,0.8-0.1,1.1-0.2
									l0.4,1.5c-0.6,0.2-1.2,0.4-1.9,0.4C146,193.2,145.2,191.8,145.2,189.8z"/>
								<path d="M156,183.1h1.7l0.2,1.8h0.1c0.7-1.3,1.7-2,2.8-2c0.5,0,0.8,0.1,1.1,0.2l-0.4,1.8c-0.3-0.1-0.6-0.2-1-0.2
									c-0.8,0-1.8,0.6-2.4,2.1v6.2H156V183.1z"/>
								<path d="M162.5,188.1c0-3.2,2.2-5.2,4.5-5.2c2.6,0,4,1.9,4,4.7c0,0.4,0,0.8-0.1,1h-6.4c0.2,1.9,1.4,3,3.1,3
									c0.9,0,1.6-0.3,2.4-0.7l0.7,1.3c-0.9,0.6-2.1,1-3.3,1C164.6,193.2,162.5,191.3,162.5,188.1z M169.3,187.2
									c0-1.7-0.8-2.7-2.2-2.7c-1.2,0-2.3,1-2.5,2.7H169.3z"/>
								<path d="M173.4,190.7v-12h2.1v12.1c0,0.6,0.3,0.8,0.5,0.8c0.1,0,0.2,0,0.3,0l0.3,1.6c-0.3,0.1-0.6,0.2-1.1,0.2
									C173.9,193.2,173.4,192.3,173.4,190.7z"/>
								<path d="M178.2,190.4c0-2.1,1.8-3.2,5.9-3.7c0-1.2-0.4-2.2-1.9-2.2c-1,0-2,0.5-2.9,1l-0.8-1.4c1-0.6,2.4-1.3,4-1.3
									c2.5,0,3.6,1.6,3.6,4.2v6h-1.7l-0.2-1.1h-0.1c-0.9,0.8-2,1.4-3.2,1.4C179.4,193.2,178.2,192.1,178.2,190.4z M184.1,190.4
									V188c-2.9,0.4-3.9,1.1-3.9,2.2c0,1,0.7,1.4,1.5,1.4C182.6,191.6,183.3,191.2,184.1,190.4z"/>
								<path d="M189.1,189.8v-5h-1.4v-1.5l1.5-0.1l0.2-2.7h1.7v2.7h2.6v1.7h-2.6v5c0,1.2,0.4,1.8,1.4,1.8c0.3,0,0.8-0.1,1.1-0.2
									l0.4,1.5c-0.6,0.2-1.2,0.4-1.9,0.4C189.9,193.2,189.1,191.8,189.1,189.8z"/>
								<path d="M194.9,188.1c0-3.2,2.2-5.2,4.5-5.2c2.6,0,4,1.9,4,4.7c0,0.4,0,0.8-0.1,1h-6.4c0.2,1.9,1.4,3,3.1,3
									c0.9,0,1.6-0.3,2.4-0.7l0.7,1.3c-0.9,0.6-2.1,1-3.3,1C197,193.2,194.9,191.3,194.9,188.1z M201.7,187.2
									c0-1.7-0.8-2.7-2.2-2.7c-1.2,0-2.3,1-2.5,2.7H201.7z"/>
								<path d="M205.1,188.1c0-3.2,2-5.2,4.2-5.2c1.1,0,1.9,0.4,2.7,1.1l-0.1-1.6v-3.7h2.1V193h-1.7l-0.2-1.1h-0.1
									c-0.7,0.8-1.8,1.4-2.9,1.4C206.7,193.2,205.1,191.3,205.1,188.1z M211.9,190.3v-4.8c-0.7-0.7-1.4-0.9-2.2-0.9
									c-1.4,0-2.5,1.3-2.5,3.5c0,2.3,0.9,3.5,2.4,3.5C210.5,191.5,211.2,191.1,211.9,190.3z"/>
							</g>
							<g>
								<path class="st3" d="M8.8,0.8h316.5c4.4,0,8,3.6,8,8v32.5c0,4.4-3.6,8-8,8H8.8c-4.4,0-8-3.6-8-8V8.8
									C0.8,4.3,4.3,0.8,8.8,0.8z"/>
								<g class="st1">
									<path d="M133.4,19.9h2.2V31h-2.2V19.9z"/>
									<path d="M138.1,22.6h1.8l0.1,1.1h0.1c0.7-0.7,1.6-1.3,2.7-1.3c1.8,0,2.6,1.3,2.6,3.4V31h-2.2v-5c0-1.3-0.4-1.8-1.2-1.8
										c-0.7,0-1.1,0.3-1.8,0.9V31h-2.2V22.6z"/>
									<path d="M147.2,26.8c0-2.8,2-4.4,4.3-4.4c1,0,1.8,0.4,2.4,0.9l-1,1.4c-0.4-0.4-0.8-0.6-1.3-0.6c-1.3,0-2.1,1-2.1,2.6
										c0,1.6,0.9,2.6,2.1,2.6c0.6,0,1.2-0.3,1.6-0.7l0.9,1.5c-0.8,0.7-1.8,1-2.7,1C149,31.2,147.2,29.6,147.2,26.8z"/>
									<path d="M155.4,20.1c0-0.7,0.6-1.2,1.3-1.2c0.8,0,1.3,0.5,1.3,1.2c0,0.7-0.6,1.2-1.3,1.2C156,21.2,155.4,20.7,155.4,20.1z
										 M155.7,22.6h2.2V31h-2.2V22.6z"/>
									<path d="M159.7,26.8c0-2.7,1.7-4.4,3.5-4.4c0.9,0,1.5,0.4,2.1,0.9l-0.1-1.3v-3h2.2v12h-1.8l-0.2-0.9h0
										c-0.6,0.6-1.5,1.1-2.3,1.1C161.1,31.2,159.7,29.6,159.7,26.8z M165.3,28.5v-3.7c-0.5-0.5-1-0.6-1.6-0.6
										c-0.9,0-1.7,0.9-1.7,2.6c0,1.7,0.6,2.6,1.7,2.6C164.3,29.4,164.8,29.2,165.3,28.5z"/>
									<path d="M169.3,26.8c0-2.7,1.9-4.4,3.9-4.4c2.3,0,3.5,1.7,3.5,4c0,0.4,0,0.8-0.1,1h-5.2c0.2,1.4,1.1,2.1,2.3,2.1
										c0.7,0,1.3-0.2,1.9-0.6l0.8,1.4c-0.8,0.6-1.9,0.9-2.9,0.9C171.2,31.2,169.3,29.6,169.3,26.8z M174.9,26
										c0-1.1-0.5-1.9-1.6-1.9c-0.9,0-1.7,0.6-1.8,1.9H174.9z"/>
									<path d="M178.6,22.6h1.8l0.2,1.1h0.1c0.7-0.7,1.6-1.3,2.7-1.3c1.8,0,2.6,1.3,2.6,3.4V31h-2.2v-5c0-1.3-0.4-1.8-1.2-1.8
										c-0.7,0-1.1,0.3-1.8,0.9V31h-2.2V22.6z"/>
									<path d="M187.7,26.8c0-2.8,2-4.4,4.3-4.4c1,0,1.8,0.4,2.4,0.9l-1.1,1.4c-0.4-0.4-0.8-0.6-1.3-0.6c-1.3,0-2.1,1-2.1,2.6
										c0,1.6,0.9,2.6,2.1,2.6c0.6,0,1.2-0.3,1.6-0.7l0.9,1.5c-0.8,0.7-1.8,1-2.7,1C189.4,31.2,187.7,29.6,187.7,26.8z"/>
									<path d="M195.1,26.8c0-2.7,1.9-4.4,3.9-4.4c2.3,0,3.5,1.7,3.5,4c0,0.4,0,0.8-0.1,1h-5.2c0.2,1.4,1.1,2.1,2.3,2.1
										c0.7,0,1.3-0.2,1.9-0.6l0.8,1.4c-0.8,0.6-1.9,0.9-2.9,0.9C197,31.2,195.1,29.6,195.1,26.8z M200.7,26
										c0-1.1-0.5-1.9-1.6-1.9c-0.9,0-1.7,0.6-1.8,1.9H200.7z"/>
								</g>
							</g>
							<g transform="translate(0.000000, 107.000000)">
								<path class="st3" d="M8.8,0.8h316.5c4.4,0,8,3.6,8,8v32.5c0,4.4-3.6,8-8,8H8.8c-4.4,0-8-3.6-8-8V8.8
									C0.8,4.3,4.3,0.8,8.8,0.8z"/>
								<g class="st1">
									<path d="M99.4,31l-2.3-4.2h-1.5V31h-2.2V19.9h3.9c2.3,0,4.2,0.8,4.2,3.4c0,1.7-0.8,2.7-2.1,3.2l2.6,4.5H99.4z M95.6,25H97
										c1.4,0,2.2-0.6,2.2-1.8c0-1.2-0.8-1.6-2.2-1.6h-1.4V25z"/>
									<path d="M102.7,26.8c0-2.7,1.9-4.4,3.9-4.4c2.3,0,3.5,1.7,3.5,4c0,0.4,0,0.8-0.1,1h-5.2c0.2,1.4,1.1,2.1,2.3,2.1
										c0.7,0,1.3-0.2,1.9-0.6l0.8,1.4c-0.8,0.6-1.9,0.9-2.9,0.9C104.5,31.2,102.7,29.6,102.7,26.8z M108.2,26
										c0-1.1-0.5-1.9-1.6-1.9c-0.9,0-1.7,0.6-1.8,1.9H108.2z"/>
									<path d="M111.9,28.6V19h2.2v9.7c0,0.5,0.2,0.7,0.4,0.7c0.1,0,0.1,0,0.3,0l0.3,1.6c-0.3,0.1-0.6,0.2-1.1,0.2
										C112.5,31.2,111.9,30.2,111.9,28.6z"/>
									<path d="M116.3,28.7c0-1.8,1.5-2.7,4.8-3.1c0-0.8-0.4-1.5-1.4-1.5c-0.8,0-1.5,0.3-2.3,0.8l-0.8-1.5c1-0.6,2.2-1.1,3.5-1.1
										c2.1,0,3.2,1.3,3.2,3.7V31h-1.8l-0.2-0.9h0c-0.7,0.6-1.6,1.1-2.5,1.1C117.2,31.2,116.3,30.1,116.3,28.7z M121.1,28.7V27
										c-2,0.3-2.7,0.8-2.7,1.6c0,0.7,0.5,0.9,1.1,0.9C120.1,29.5,120.6,29.2,121.1,28.7z"/>
									<path d="M125.6,28.1v-3.7h-1.2v-1.6l1.3-0.1l0.3-2.2h1.8v2.2h2.1v1.7h-2.1v3.7c0,1,0.4,1.4,1.1,1.4c0.3,0,0.6-0.1,0.8-0.2
										l0.4,1.6c-0.5,0.2-1,0.3-1.8,0.3C126.3,31.2,125.6,30,125.6,28.1z"/>
									<path d="M131.3,20.1c0-0.7,0.6-1.2,1.3-1.2c0.8,0,1.3,0.5,1.3,1.2c0,0.7-0.6,1.2-1.3,1.2C131.9,21.2,131.3,20.7,131.3,20.1
										z M131.6,22.6h2.2V31h-2.2V22.6z"/>
									<path d="M135.6,26.8c0-2.8,1.9-4.4,4-4.4s4,1.6,4,4.4c0,2.8-1.9,4.4-4,4.4S135.6,29.6,135.6,26.8z M141.4,26.8
										c0-1.6-0.6-2.6-1.8-2.6s-1.8,1-1.8,2.6c0,1.6,0.6,2.6,1.8,2.6S141.4,28.4,141.4,26.8z"/>
									<path d="M145.5,22.6h1.8l0.1,1.1h0.1c0.7-0.7,1.6-1.3,2.7-1.3c1.8,0,2.6,1.3,2.6,3.4V31h-2.2v-5c0-1.3-0.4-1.8-1.2-1.8
										c-0.7,0-1.1,0.3-1.8,0.9V31h-2.2V22.6z"/>
									<path d="M154.3,30l1-1.4c0.8,0.6,1.5,0.9,2.2,0.9c0.8,0,1.2-0.4,1.2-0.9c0-0.6-0.9-0.9-1.8-1.3c-1.1-0.4-2.3-1-2.3-2.4
										c0-1.5,1.2-2.6,3.1-2.6c1.2,0,2.2,0.5,2.9,1l-1,1.3c-0.6-0.4-1.2-0.7-1.8-0.7c-0.8,0-1.1,0.3-1.1,0.8
										c0,0.6,0.8,0.8,1.7,1.2c1.1,0.4,2.3,1,2.3,2.5c0,1.5-1.2,2.7-3.3,2.7C156.4,31.2,155.1,30.7,154.3,30z"/>
									<path d="M162.5,19h2.2v3l-0.1,1.6c0.7-0.6,1.5-1.2,2.6-1.2c1.8,0,2.6,1.3,2.6,3.4V31h-2.2v-5c0-1.3-0.4-1.8-1.2-1.8
										c-0.7,0-1.1,0.3-1.8,0.9V31h-2.2V19z"/>
									<path d="M171.9,20.1c0-0.7,0.6-1.2,1.3-1.2c0.8,0,1.3,0.5,1.3,1.2c0,0.7-0.6,1.2-1.3,1.2C172.5,21.2,171.9,20.7,171.9,20.1
										z M172.1,22.6h2.2V31h-2.2V22.6z"/>
									<path d="M176.7,22.6h1.8l0.1,0.9h0.1c0.7-0.6,1.6-1.1,2.5-1.1c2.1,0,3.3,1.7,3.3,4.3c0,2.9-1.7,4.5-3.6,4.5
										c-0.7,0-1.4-0.3-2.1-0.9l0.1,1.4v2.5h-2.2V22.6z M182.2,26.7c0-1.6-0.5-2.5-1.7-2.5c-0.6,0-1.1,0.3-1.7,0.9v3.7
										c0.5,0.5,1.1,0.6,1.5,0.6C181.4,29.4,182.2,28.5,182.2,26.7z"/>
									<path d="M190.1,28.1v-3.7h-1.2v-1.6l1.3-0.1l0.3-2.2h1.8v2.2h2.1v1.7h-2.1v3.7c0,1,0.4,1.4,1.1,1.4c0.3,0,0.6-0.1,0.8-0.2
										l0.4,1.6c-0.5,0.2-1,0.3-1.8,0.3C190.8,31.2,190.1,30,190.1,28.1z"/>
									<path d="M195.3,26.8c0-2.8,1.9-4.4,4-4.4c2.1,0,4,1.6,4,4.4c0,2.8-1.9,4.4-4,4.4C197.2,31.2,195.3,29.6,195.3,26.8z
										 M201.1,26.8c0-1.6-0.6-2.6-1.8-2.6c-1.1,0-1.8,1-1.8,2.6c0,1.6,0.6,2.6,1.8,2.6C200.4,29.4,201.1,28.4,201.1,26.8z"/>
									<path d="M208.1,26.8c0-2.7,1.7-4.4,3.5-4.4c0.9,0,1.5,0.4,2.1,0.9l-0.1-1.3v-3h2.2v12h-1.8l-0.2-0.9h0
										c-0.6,0.6-1.5,1.1-2.3,1.1C209.4,31.2,208.1,29.6,208.1,26.8z M213.7,28.5v-3.7c-0.5-0.5-1-0.6-1.6-0.6
										c-0.9,0-1.7,0.9-1.7,2.6c0,1.7,0.6,2.6,1.7,2.6C212.7,29.4,213.2,29.2,213.7,28.5z"/>
									<path d="M218.2,22.6h1.8l0.1,1.5h0.1c0.6-1.1,1.5-1.7,2.4-1.7c0.5,0,0.7,0.1,1,0.2l-0.4,1.9c-0.3-0.1-0.5-0.1-0.9-0.1
										c-0.7,0-1.5,0.4-1.9,1.7v5h-2.2V22.6z"/>
									<path d="M224.7,27.9v-5.2h2.2v5c0,1.3,0.4,1.8,1.2,1.8c0.7,0,1.1-0.3,1.7-1v-5.7h2.2V31h-1.8l-0.2-1.2H230
										c-0.7,0.9-1.5,1.4-2.7,1.4C225.5,31.2,224.7,30,224.7,27.9z"/>
									<path d="M233.8,32.5c0-0.7,0.4-1.3,1.2-1.7v-0.1c-0.4-0.3-0.8-0.7-0.8-1.4c0-0.6,0.4-1.2,0.9-1.6v-0.1
										c-0.6-0.4-1.1-1.2-1.1-2.2c0-2,1.6-3,3.4-3c0.5,0,0.9,0.1,1.3,0.2h3v1.6h-1.4c0.2,0.3,0.4,0.8,0.4,1.3
										c0,1.9-1.4,2.8-3.2,2.8c-0.3,0-0.7-0.1-1.1-0.2c-0.2,0.2-0.4,0.4-0.4,0.7c0,0.5,0.3,0.7,1.3,0.7h1.4c2,0,3.1,0.6,3.1,2.1
										c0,1.7-1.8,3-4.6,3C235.3,34.6,233.8,34,233.8,32.5z M239.7,32c0-0.6-0.5-0.8-1.4-0.8h-1c-0.5,0-0.9,0-1.2-0.1
										c-0.4,0.3-0.6,0.6-0.6,1c0,0.7,0.8,1.1,2,1.1C238.9,33.2,239.7,32.7,239.7,32z M238.7,25.4c0-1-0.6-1.5-1.3-1.5
										s-1.3,0.6-1.3,1.5c0,1,0.6,1.5,1.3,1.5S238.7,26.4,238.7,25.4z"/>
								</g>
							</g>
						</g>
					</g>
					<g transform="translate(0.000000, 341.000000)">
						<g>
							<path class="st0" d="M8,0h318c4.4,0,8,3.6,8,8v34c0,4.4-3.6,8-8,8H8c-4.4,0-8-3.6-8-8V8C0,3.6,3.6,0,8,0z"/>
							<g class="st1">
								<path class="st2" d="M139.5,19.9h3.6c2.5,0,4.3,0.9,4.3,3.5c0,2.5-1.9,3.7-4.3,3.7h-1.5V31h-2.2V19.9z M143,25.3
									c1.5,0,2.3-0.6,2.3-1.9c0-1.3-0.8-1.7-2.3-1.7h-1.3v3.6H143z"/>
								<path class="st2" d="M149.3,28.6V19h2.2v9.7c0,0.5,0.2,0.7,0.4,0.7c0.1,0,0.2,0,0.3,0l0.3,1.6c-0.3,0.1-0.6,0.2-1.1,0.2
									C149.8,31.2,149.3,30.2,149.3,28.6z"/>
								<path class="st2" d="M153.6,28.7c0-1.8,1.5-2.7,4.8-3.1c0-0.8-0.4-1.5-1.4-1.5c-0.8,0-1.5,0.3-2.3,0.8l-0.8-1.5
									c1-0.6,2.2-1.1,3.5-1.1c2.1,0,3.2,1.3,3.2,3.7V31h-1.8l-0.2-0.9h0c-0.7,0.6-1.6,1.1-2.5,1.1
									C154.6,31.2,153.6,30.1,153.6,28.7z M158.4,28.7V27c-2,0.3-2.7,0.8-2.7,1.6c0,0.7,0.5,0.9,1.1,0.9
									C157.4,29.5,157.9,29.2,158.4,28.7z"/>
								<path class="st2" d="M162.3,26.8c0-2.8,2-4.4,4.3-4.4c1,0,1.8,0.4,2.4,0.9l-1,1.4c-0.4-0.4-0.8-0.6-1.3-0.6
									c-1.3,0-2.1,1-2.1,2.6c0,1.6,0.9,2.6,2.1,2.6c0.6,0,1.2-0.3,1.6-0.7l0.9,1.5c-0.8,0.7-1.8,1-2.7,1
									C164.1,31.2,162.3,29.6,162.3,26.8z"/>
								<path class="st2" d="M169.8,26.8c0-2.7,1.9-4.4,3.9-4.4c2.3,0,3.5,1.7,3.5,4c0,0.4,0,0.8-0.1,1h-5.2
									c0.2,1.4,1.1,2.1,2.3,2.1c0.7,0,1.3-0.2,1.9-0.6l0.8,1.4c-0.8,0.6-1.9,0.9-2.9,0.9C171.6,31.2,169.8,29.6,169.8,26.8z
									 M175.3,26c0-1.1-0.5-1.9-1.6-1.9c-0.9,0-1.7,0.6-1.8,1.9H175.3z"/>
								<path class="st2" d="M181,30.1L181,30.1l-0.2,0.9H179V19h2.2v3l0,1.4c0.7-0.6,1.5-1,2.3-1c2.1,0,3.3,1.7,3.3,4.3
									c0,2.9-1.7,4.6-3.6,4.6C182.5,31.2,181.7,30.8,181,30.1z M184.6,26.7c0-1.6-0.5-2.5-1.7-2.5c-0.6,0-1.1,0.3-1.7,0.9v3.7
									c0.5,0.5,1.1,0.6,1.5,0.6C183.8,29.4,184.6,28.5,184.6,26.7z"/>
								<path class="st2" d="M188.2,26.8c0-2.8,1.9-4.4,4-4.4c2.1,0,4,1.6,4,4.4c0,2.8-1.9,4.4-4,4.4
									C190.1,31.2,188.2,29.6,188.2,26.8z M194,26.8c0-1.6-0.6-2.6-1.8-2.6c-1.1,0-1.8,1-1.8,2.6c0,1.6,0.6,2.6,1.8,2.6
									C193.4,29.4,194,28.4,194,26.8z"/>
							</g>
						</g>
						<g transform="translate(0.000000, 70.000000)">
							<g class="st1">
								<path d="M162.9,84.5l1-1.4c0.8,0.8,1.7,1.4,3.1,1.4c1.5,0,2.6-1.1,2.6-2.8s-1-2.8-2.5-2.8c-0.8,0-1.4,0.3-2.1,0.8l-1-0.7
									l0.4-6.3h6.7v1.7h-4.9l-0.3,3.4c0.6-0.3,1.1-0.5,1.8-0.5c2.2,0,4,1.3,4,4.2c0,2.9-2.1,4.6-4.5,4.6
									C165.1,86.2,163.8,85.4,162.9,84.5z"/>
							</g>
							<g class="st1">
								<path d="M121.2,179.7h2.1l4.4,7.8l1.4,2.8h0.1c-0.1-1.4-0.3-3-0.3-4.4v-6.2h2V193h-2.1l-4.4-7.8l-1.4-2.8h-0.1
									c0.1,1.4,0.3,2.9,0.3,4.3v6.2h-2V179.7z"/>
								<path d="M133.5,188.1c0-3.3,2.2-5.2,4.7-5.2c2.4,0,4.7,1.9,4.7,5.2c0,3.3-2.2,5.2-4.7,5.2
									C135.7,193.2,133.5,191.3,133.5,188.1z M140.7,188.1c0-2.1-1-3.5-2.5-3.5c-1.5,0-2.5,1.4-2.5,3.5c0,2.1,1,3.5,2.5,3.5
									C139.8,191.5,140.7,190.2,140.7,188.1z"/>
								<path d="M145.2,189.8v-5h-1.4v-1.5l1.5-0.1l0.2-2.7h1.7v2.7h2.6v1.7h-2.6v5c0,1.2,0.4,1.8,1.4,1.8c0.3,0,0.8-0.1,1.1-0.2
									l0.4,1.5c-0.6,0.2-1.2,0.4-1.9,0.4C146,193.2,145.2,191.8,145.2,189.8z"/>
								<path d="M156,183.1h1.7l0.2,1.8h0.1c0.7-1.3,1.7-2,2.8-2c0.5,0,0.8,0.1,1.1,0.2l-0.4,1.8c-0.3-0.1-0.6-0.2-1-0.2
									c-0.8,0-1.8,0.6-2.4,2.1v6.2H156V183.1z"/>
								<path d="M162.5,188.1c0-3.2,2.2-5.2,4.5-5.2c2.6,0,4,1.9,4,4.7c0,0.4,0,0.8-0.1,1h-6.4c0.2,1.9,1.4,3,3.1,3
									c0.9,0,1.6-0.3,2.4-0.7l0.7,1.3c-0.9,0.6-2.1,1-3.3,1C164.6,193.2,162.5,191.3,162.5,188.1z M169.3,187.2
									c0-1.7-0.8-2.7-2.2-2.7c-1.2,0-2.3,1-2.5,2.7H169.3z"/>
								<path d="M173.4,190.7v-12h2.1v12.1c0,0.6,0.3,0.8,0.5,0.8c0.1,0,0.2,0,0.3,0l0.3,1.6c-0.3,0.1-0.6,0.2-1.1,0.2
									C173.9,193.2,173.4,192.3,173.4,190.7z"/>
								<path d="M178.2,190.4c0-2.1,1.8-3.2,5.9-3.7c0-1.2-0.4-2.2-1.9-2.2c-1,0-2,0.5-2.9,1l-0.8-1.4c1-0.6,2.4-1.3,4-1.3
									c2.5,0,3.6,1.6,3.6,4.2v6h-1.7l-0.2-1.1h-0.1c-0.9,0.8-2,1.4-3.2,1.4C179.4,193.2,178.2,192.1,178.2,190.4z M184.1,190.4
									V188c-2.9,0.4-3.9,1.1-3.9,2.2c0,1,0.7,1.4,1.5,1.4C182.6,191.6,183.3,191.2,184.1,190.4z"/>
								<path d="M189.1,189.8v-5h-1.4v-1.5l1.5-0.1l0.2-2.7h1.7v2.7h2.6v1.7h-2.6v5c0,1.2,0.4,1.8,1.4,1.8c0.3,0,0.8-0.1,1.1-0.2
									l0.4,1.5c-0.6,0.2-1.2,0.4-1.9,0.4C189.9,193.2,189.1,191.8,189.1,189.8z"/>
								<path d="M194.9,188.1c0-3.2,2.2-5.2,4.5-5.2c2.6,0,4,1.9,4,4.7c0,0.4,0,0.8-0.1,1h-6.4c0.2,1.9,1.4,3,3.1,3
									c0.9,0,1.6-0.3,2.4-0.7l0.7,1.3c-0.9,0.6-2.1,1-3.3,1C197,193.2,194.9,191.3,194.9,188.1z M201.7,187.2
									c0-1.7-0.8-2.7-2.2-2.7c-1.2,0-2.3,1-2.5,2.7H201.7z"/>
								<path d="M205.1,188.1c0-3.2,2-5.2,4.2-5.2c1.1,0,1.9,0.4,2.7,1.1l-0.1-1.6v-3.7h2.1V193h-1.7l-0.2-1.1h-0.1
									c-0.7,0.8-1.8,1.4-2.9,1.4C206.7,193.2,205.1,191.3,205.1,188.1z M211.9,190.3v-4.8c-0.7-0.7-1.4-0.9-2.2-0.9
									c-1.4,0-2.5,1.3-2.5,3.5c0,2.3,0.9,3.5,2.4,3.5C210.5,191.5,211.2,191.1,211.9,190.3z"/>
							</g>
							<g>
								<path class="st3" d="M8.8,0.8h316.5c4.4,0,8,3.6,8,8v32.5c0,4.4-3.6,8-8,8H8.8c-4.4,0-8-3.6-8-8V8.8
									C0.8,4.3,4.3,0.8,8.8,0.8z"/>
								<g class="st1">
									<path d="M133.4,19.9h2.2V31h-2.2V19.9z"/>
									<path d="M138.1,22.6h1.8l0.1,1.1h0.1c0.7-0.7,1.6-1.3,2.7-1.3c1.8,0,2.6,1.3,2.6,3.4V31h-2.2v-5c0-1.3-0.4-1.8-1.2-1.8
										c-0.7,0-1.1,0.3-1.8,0.9V31h-2.2V22.6z"/>
									<path d="M147.2,26.8c0-2.8,2-4.4,4.3-4.4c1,0,1.8,0.4,2.4,0.9l-1,1.4c-0.4-0.4-0.8-0.6-1.3-0.6c-1.3,0-2.1,1-2.1,2.6
										c0,1.6,0.9,2.6,2.1,2.6c0.6,0,1.2-0.3,1.6-0.7l0.9,1.5c-0.8,0.7-1.8,1-2.7,1C149,31.2,147.2,29.6,147.2,26.8z"/>
									<path d="M155.4,20.1c0-0.7,0.6-1.2,1.3-1.2c0.8,0,1.3,0.5,1.3,1.2c0,0.7-0.6,1.2-1.3,1.2C156,21.2,155.4,20.7,155.4,20.1z
										 M155.7,22.6h2.2V31h-2.2V22.6z"/>
									<path d="M159.7,26.8c0-2.7,1.7-4.4,3.5-4.4c0.9,0,1.5,0.4,2.1,0.9l-0.1-1.3v-3h2.2v12h-1.8l-0.2-0.9h0
										c-0.6,0.6-1.5,1.1-2.3,1.1C161.1,31.2,159.7,29.6,159.7,26.8z M165.3,28.5v-3.7c-0.5-0.5-1-0.6-1.6-0.6
										c-0.9,0-1.7,0.9-1.7,2.6c0,1.7,0.6,2.6,1.7,2.6C164.3,29.4,164.8,29.2,165.3,28.5z"/>
									<path d="M169.3,26.8c0-2.7,1.9-4.4,3.9-4.4c2.3,0,3.5,1.7,3.5,4c0,0.4,0,0.8-0.1,1h-5.2c0.2,1.4,1.1,2.1,2.3,2.1
										c0.7,0,1.3-0.2,1.9-0.6l0.8,1.4c-0.8,0.6-1.9,0.9-2.9,0.9C171.2,31.2,169.3,29.6,169.3,26.8z M174.9,26
										c0-1.1-0.5-1.9-1.6-1.9c-0.9,0-1.7,0.6-1.8,1.9H174.9z"/>
									<path d="M178.6,22.6h1.8l0.2,1.1h0.1c0.7-0.7,1.6-1.3,2.7-1.3c1.8,0,2.6,1.3,2.6,3.4V31h-2.2v-5c0-1.3-0.4-1.8-1.2-1.8
										c-0.7,0-1.1,0.3-1.8,0.9V31h-2.2V22.6z"/>
									<path d="M187.7,26.8c0-2.8,2-4.4,4.3-4.4c1,0,1.8,0.4,2.4,0.9l-1.1,1.4c-0.4-0.4-0.8-0.6-1.3-0.6c-1.3,0-2.1,1-2.1,2.6
										c0,1.6,0.9,2.6,2.1,2.6c0.6,0,1.2-0.3,1.6-0.7l0.9,1.5c-0.8,0.7-1.8,1-2.7,1C189.4,31.2,187.7,29.6,187.7,26.8z"/>
									<path d="M195.1,26.8c0-2.7,1.9-4.4,3.9-4.4c2.3,0,3.5,1.7,3.5,4c0,0.4,0,0.8-0.1,1h-5.2c0.2,1.4,1.1,2.1,2.3,2.1
										c0.7,0,1.3-0.2,1.9-0.6l0.8,1.4c-0.8,0.6-1.9,0.9-2.9,0.9C197,31.2,195.1,29.6,195.1,26.8z M200.7,26
										c0-1.1-0.5-1.9-1.6-1.9c-0.9,0-1.7,0.6-1.8,1.9H200.7z"/>
								</g>
							</g>
							<g transform="translate(0.000000, 107.000000)">
								<path class="st3" d="M8.8,0.8h316.5c4.4,0,8,3.6,8,8v32.5c0,4.4-3.6,8-8,8H8.8c-4.4,0-8-3.6-8-8V8.8
									C0.8,4.3,4.3,0.8,8.8,0.8z"/>
								<g class="st1">
									<path d="M99.4,31l-2.3-4.2h-1.5V31h-2.2V19.9h3.9c2.3,0,4.2,0.8,4.2,3.4c0,1.7-0.8,2.7-2.1,3.2l2.6,4.5H99.4z M95.6,25H97
										c1.4,0,2.2-0.6,2.2-1.8c0-1.2-0.8-1.6-2.2-1.6h-1.4V25z"/>
									<path d="M102.7,26.8c0-2.7,1.9-4.4,3.9-4.4c2.3,0,3.5,1.7,3.5,4c0,0.4,0,0.8-0.1,1h-5.2c0.2,1.4,1.1,2.1,2.3,2.1
										c0.7,0,1.3-0.2,1.9-0.6l0.8,1.4c-0.8,0.6-1.9,0.9-2.9,0.9C104.5,31.2,102.7,29.6,102.7,26.8z M108.2,26
										c0-1.1-0.5-1.9-1.6-1.9c-0.9,0-1.7,0.6-1.8,1.9H108.2z"/>
									<path d="M111.9,28.6V19h2.2v9.7c0,0.5,0.2,0.7,0.4,0.7c0.1,0,0.1,0,0.3,0l0.3,1.6c-0.3,0.1-0.6,0.2-1.1,0.2
										C112.5,31.2,111.9,30.2,111.9,28.6z"/>
									<path d="M116.3,28.7c0-1.8,1.5-2.7,4.8-3.1c0-0.8-0.4-1.5-1.4-1.5c-0.8,0-1.5,0.3-2.3,0.8l-0.8-1.5c1-0.6,2.2-1.1,3.5-1.1
										c2.1,0,3.2,1.3,3.2,3.7V31h-1.8l-0.2-0.9h0c-0.7,0.6-1.6,1.1-2.5,1.1C117.2,31.2,116.3,30.1,116.3,28.7z M121.1,28.7V27
										c-2,0.3-2.7,0.8-2.7,1.6c0,0.7,0.5,0.9,1.1,0.9C120.1,29.5,120.6,29.2,121.1,28.7z"/>
									<path d="M125.6,28.1v-3.7h-1.2v-1.6l1.3-0.1l0.3-2.2h1.8v2.2h2.1v1.7h-2.1v3.7c0,1,0.4,1.4,1.1,1.4c0.3,0,0.6-0.1,0.8-0.2
										l0.4,1.6c-0.5,0.2-1,0.3-1.8,0.3C126.3,31.2,125.6,30,125.6,28.1z"/>
									<path d="M131.3,20.1c0-0.7,0.6-1.2,1.3-1.2c0.8,0,1.3,0.5,1.3,1.2c0,0.7-0.6,1.2-1.3,1.2C131.9,21.2,131.3,20.7,131.3,20.1
										z M131.6,22.6h2.2V31h-2.2V22.6z"/>
									<path d="M135.6,26.8c0-2.8,1.9-4.4,4-4.4s4,1.6,4,4.4c0,2.8-1.9,4.4-4,4.4S135.6,29.6,135.6,26.8z M141.4,26.8
										c0-1.6-0.6-2.6-1.8-2.6s-1.8,1-1.8,2.6c0,1.6,0.6,2.6,1.8,2.6S141.4,28.4,141.4,26.8z"/>
									<path d="M145.5,22.6h1.8l0.1,1.1h0.1c0.7-0.7,1.6-1.3,2.7-1.3c1.8,0,2.6,1.3,2.6,3.4V31h-2.2v-5c0-1.3-0.4-1.8-1.2-1.8
										c-0.7,0-1.1,0.3-1.8,0.9V31h-2.2V22.6z"/>
									<path d="M154.3,30l1-1.4c0.8,0.6,1.5,0.9,2.2,0.9c0.8,0,1.2-0.4,1.2-0.9c0-0.6-0.9-0.9-1.8-1.3c-1.1-0.4-2.3-1-2.3-2.4
										c0-1.5,1.2-2.6,3.1-2.6c1.2,0,2.2,0.5,2.9,1l-1,1.3c-0.6-0.4-1.2-0.7-1.8-0.7c-0.8,0-1.1,0.3-1.1,0.8
										c0,0.6,0.8,0.8,1.7,1.2c1.1,0.4,2.3,1,2.3,2.5c0,1.5-1.2,2.7-3.3,2.7C156.4,31.2,155.1,30.7,154.3,30z"/>
									<path d="M162.5,19h2.2v3l-0.1,1.6c0.7-0.6,1.5-1.2,2.6-1.2c1.8,0,2.6,1.3,2.6,3.4V31h-2.2v-5c0-1.3-0.4-1.8-1.2-1.8
										c-0.7,0-1.1,0.3-1.8,0.9V31h-2.2V19z"/>
									<path d="M171.9,20.1c0-0.7,0.6-1.2,1.3-1.2c0.8,0,1.3,0.5,1.3,1.2c0,0.7-0.6,1.2-1.3,1.2C172.5,21.2,171.9,20.7,171.9,20.1
										z M172.1,22.6h2.2V31h-2.2V22.6z"/>
									<path d="M176.7,22.6h1.8l0.1,0.9h0.1c0.7-0.6,1.6-1.1,2.5-1.1c2.1,0,3.3,1.7,3.3,4.3c0,2.9-1.7,4.5-3.6,4.5
										c-0.7,0-1.4-0.3-2.1-0.9l0.1,1.4v2.5h-2.2V22.6z M182.2,26.7c0-1.6-0.5-2.5-1.7-2.5c-0.6,0-1.1,0.3-1.7,0.9v3.7
										c0.5,0.5,1.1,0.6,1.5,0.6C181.4,29.4,182.2,28.5,182.2,26.7z"/>
									<path d="M190.1,28.1v-3.7h-1.2v-1.6l1.3-0.1l0.3-2.2h1.8v2.2h2.1v1.7h-2.1v3.7c0,1,0.4,1.4,1.1,1.4c0.3,0,0.6-0.1,0.8-0.2
										l0.4,1.6c-0.5,0.2-1,0.3-1.8,0.3C190.8,31.2,190.1,30,190.1,28.1z"/>
									<path d="M195.3,26.8c0-2.8,1.9-4.4,4-4.4c2.1,0,4,1.6,4,4.4c0,2.8-1.9,4.4-4,4.4C197.2,31.2,195.3,29.6,195.3,26.8z
										 M201.1,26.8c0-1.6-0.6-2.6-1.8-2.6c-1.1,0-1.8,1-1.8,2.6c0,1.6,0.6,2.6,1.8,2.6C200.4,29.4,201.1,28.4,201.1,26.8z"/>
									<path d="M208.1,26.8c0-2.7,1.7-4.4,3.5-4.4c0.9,0,1.5,0.4,2.1,0.9l-0.1-1.3v-3h2.2v12h-1.8l-0.2-0.9h0
										c-0.6,0.6-1.5,1.1-2.3,1.1C209.4,31.2,208.1,29.6,208.1,26.8z M213.7,28.5v-3.7c-0.5-0.5-1-0.6-1.6-0.6
										c-0.9,0-1.7,0.9-1.7,2.6c0,1.7,0.6,2.6,1.7,2.6C212.7,29.4,213.2,29.2,213.7,28.5z"/>
									<path d="M218.2,22.6h1.8l0.1,1.5h0.1c0.6-1.1,1.5-1.7,2.4-1.7c0.5,0,0.7,0.1,1,0.2l-0.4,1.9c-0.3-0.1-0.5-0.1-0.9-0.1
										c-0.7,0-1.5,0.4-1.9,1.7v5h-2.2V22.6z"/>
									<path d="M224.7,27.9v-5.2h2.2v5c0,1.3,0.4,1.8,1.2,1.8c0.7,0,1.1-0.3,1.7-1v-5.7h2.2V31h-1.8l-0.2-1.2H230
										c-0.7,0.9-1.5,1.4-2.7,1.4C225.5,31.2,224.7,30,224.7,27.9z"/>
									<path d="M233.8,32.5c0-0.7,0.4-1.3,1.2-1.7v-0.1c-0.4-0.3-0.8-0.7-0.8-1.4c0-0.6,0.4-1.2,0.9-1.6v-0.1
										c-0.6-0.4-1.1-1.2-1.1-2.2c0-2,1.6-3,3.4-3c0.5,0,0.9,0.1,1.3,0.2h3v1.6h-1.4c0.2,0.3,0.4,0.8,0.4,1.3
										c0,1.9-1.4,2.8-3.2,2.8c-0.3,0-0.7-0.1-1.1-0.2c-0.2,0.2-0.4,0.4-0.4,0.7c0,0.5,0.3,0.7,1.3,0.7h1.4c2,0,3.1,0.6,3.1,2.1
										c0,1.7-1.8,3-4.6,3C235.3,34.6,233.8,34,233.8,32.5z M239.7,32c0-0.6-0.5-0.8-1.4-0.8h-1c-0.5,0-0.9,0-1.2-0.1
										c-0.4,0.3-0.6,0.6-0.6,1c0,0.7,0.8,1.1,2,1.1C238.9,33.2,239.7,32.7,239.7,32z M238.7,25.4c0-1-0.6-1.5-1.3-1.5
										s-1.3,0.6-1.3,1.5c0,1,0.6,1.5,1.3,1.5S238.7,26.4,238.7,25.4z"/>
								</g>
							</g>
						</g>
					</g>
					<g class="st1">
						<path class="st4" d="M82.6,15.6l1.3-1.5c0.8,0.7,1.8,1.2,2.8,1.2c1.2,0,1.8-0.5,1.8-1.3c0-0.8-0.7-1.1-1.7-1.5l-1.5-0.6
							c-1.1-0.5-2.2-1.4-2.2-3c0-1.8,1.6-3.2,3.8-3.2c1.3,0,2.6,0.5,3.5,1.4l-1.1,1.4c-0.7-0.6-1.4-0.9-2.4-0.9
							c-1,0-1.6,0.4-1.6,1.2c0,0.8,0.8,1.1,1.7,1.5l1.5,0.6c1.3,0.6,2.2,1.4,2.2,3c0,1.8-1.5,3.4-4.1,3.4
							C85.2,17.2,83.7,16.6,82.6,15.6z"/>
						<path class="st4" d="M92,12.8c0-2.7,1.9-4.4,3.9-4.4c2.3,0,3.5,1.7,3.5,4c0,0.4,0,0.8-0.1,1h-5.2c0.2,1.4,1.1,2.1,2.3,2.1
							c0.7,0,1.3-0.2,1.9-0.6l0.8,1.4c-0.8,0.6-1.9,0.9-2.9,0.9C93.8,17.2,92,15.6,92,12.8z M97.6,12c0-1.1-0.5-1.9-1.6-1.9
							c-0.9,0-1.7,0.6-1.8,1.9H97.6z"/>
						<path class="st4" d="M101.3,8.6h1.8l0.1,1.5h0.1c0.6-1.1,1.5-1.7,2.4-1.7c0.5,0,0.7,0.1,1,0.2l-0.4,1.9
							c-0.3-0.1-0.5-0.1-0.9-0.1c-0.7,0-1.5,0.4-1.9,1.7v5h-2.2V8.6z"/>
						<path class="st4" d="M107.6,6.1c0-0.7,0.6-1.2,1.3-1.2c0.8,0,1.3,0.5,1.3,1.2c0,0.7-0.6,1.2-1.3,1.2
							C108.1,7.2,107.6,6.7,107.6,6.1z M107.8,8.6h2.2V17h-2.2V8.6z"/>
						<path class="st4" d="M111.8,12.8c0-2.8,1.9-4.4,4-4.4s4,1.6,4,4.4c0,2.8-1.9,4.4-4,4.4S111.8,15.6,111.8,12.8z M117.7,12.8
							c0-1.6-0.6-2.6-1.8-2.6s-1.8,1-1.8,2.6c0,1.6,0.6,2.6,1.8,2.6S117.7,14.4,117.7,12.8z"/>
						<path class="st4" d="M121.7,13.9V8.6h2.2v5c0,1.3,0.4,1.8,1.2,1.8c0.7,0,1.1-0.3,1.7-1V8.6h2.2V17h-1.8l-0.2-1.2h-0.1
							c-0.7,0.9-1.5,1.4-2.7,1.4C122.4,17.2,121.7,16,121.7,13.9z"/>
						<path class="st4" d="M130.5,16l1-1.4c0.8,0.6,1.5,0.9,2.2,0.9c0.8,0,1.2-0.4,1.2-0.9c0-0.6-0.9-0.9-1.8-1.3
							c-1.1-0.4-2.3-1-2.3-2.4c0-1.5,1.2-2.6,3.1-2.6c1.2,0,2.2,0.5,2.9,1l-1,1.3c-0.6-0.4-1.2-0.7-1.8-0.7c-0.8,0-1.1,0.3-1.1,0.8
							c0,0.6,0.8,0.8,1.7,1.2c1.1,0.4,2.3,1,2.3,2.5c0,1.5-1.2,2.7-3.3,2.7C132.6,17.2,131.3,16.7,130.5,16z"/>
						<path class="st4" d="M147.5,14.2h-3.6l-0.8,2.8h-2.2l3.6-11.1h2.6l3.6,11.1h-2.3L147.5,14.2z M147,12.4l-0.3-1.2
							c-0.3-1.2-0.6-2.4-1-3.6h-0.1c-0.3,1.2-0.6,2.5-0.9,3.6l-0.3,1.2H147z"/>
						<path class="st4" d="M151.3,12.8c0-2.7,1.7-4.4,3.5-4.4c0.9,0,1.5,0.4,2.1,0.9L156.8,8V5h2.2v12h-1.8l-0.2-0.9h0
							c-0.6,0.6-1.5,1.1-2.3,1.1C152.6,17.2,151.3,15.6,151.3,12.8z M156.8,14.5v-3.7c-0.5-0.5-1-0.6-1.6-0.6
							c-0.9,0-1.7,0.9-1.7,2.6c0,1.7,0.6,2.6,1.7,2.6C155.9,15.4,156.4,15.2,156.8,14.5z"/>
						<path class="st4" d="M160.4,8.6h2.2l1.2,4.2c0.2,0.8,0.5,1.7,0.7,2.5h0.1c0.2-0.9,0.5-1.7,0.7-2.5l1.2-4.2h2.1l-2.8,8.4h-2.6
							L160.4,8.6z"/>
						<path class="st4" d="M169.4,12.8c0-2.7,1.9-4.4,3.9-4.4c2.3,0,3.5,1.7,3.5,4c0,0.4,0,0.8-0.1,1h-5.2c0.2,1.4,1.1,2.1,2.3,2.1
							c0.7,0,1.3-0.2,1.9-0.6l0.8,1.4c-0.8,0.6-1.9,0.9-2.9,0.9C171.2,17.2,169.4,15.6,169.4,12.8z M174.9,12c0-1.1-0.5-1.9-1.6-1.9
							c-0.9,0-1.7,0.6-1.8,1.9H174.9z"/>
						<path class="st4" d="M178.6,8.6h1.8l0.2,1.5h0.1c0.6-1.1,1.5-1.7,2.4-1.7c0.5,0,0.7,0.1,1,0.2l-0.4,1.9
							c-0.3-0.1-0.5-0.1-0.9-0.1c-0.7,0-1.5,0.4-1.9,1.7v5h-2.2V8.6z"/>
						<path class="st4" d="M184.3,16l1-1.4c0.8,0.6,1.5,0.9,2.2,0.9c0.8,0,1.2-0.4,1.2-0.9c0-0.6-0.9-0.9-1.8-1.3
							c-1.1-0.4-2.3-1-2.3-2.4c0-1.5,1.2-2.6,3.1-2.6c1.2,0,2.2,0.5,2.9,1l-1,1.3c-0.6-0.4-1.2-0.7-1.8-0.7c-0.8,0-1.1,0.3-1.1,0.8
							c0,0.6,0.8,0.8,1.7,1.2c1.1,0.4,2.3,1,2.3,2.5c0,1.5-1.2,2.7-3.3,2.7C186.3,17.2,185.1,16.7,184.3,16z"/>
						<path class="st4" d="M192,12.8c0-2.7,1.9-4.4,3.9-4.4c2.3,0,3.5,1.7,3.5,4c0,0.4,0,0.8-0.1,1h-5.2c0.2,1.4,1.1,2.1,2.3,2.1
							c0.7,0,1.3-0.2,1.9-0.6l0.8,1.4c-0.8,0.6-1.9,0.9-2.9,0.9C193.8,17.2,192,15.6,192,12.8z M197.5,12c0-1.1-0.5-1.9-1.6-1.9
							c-0.9,0-1.7,0.6-1.8,1.9H197.5z"/>
						<path class="st4" d="M204.8,5.9h6.8v1.8H207v2.6h3.9v1.9H207v3h4.8V17h-7V5.9z"/>
						<path class="st4" d="M212.7,8.6h2.2l1.2,4.2c0.2,0.8,0.5,1.7,0.7,2.5h0.1c0.2-0.9,0.5-1.7,0.7-2.5l1.2-4.2h2.1l-2.8,8.4h-2.6
							L212.7,8.6z"/>
						<path class="st4" d="M221.6,12.8c0-2.7,1.9-4.4,3.9-4.4c2.3,0,3.5,1.7,3.5,4c0,0.4,0,0.8-0.1,1h-5.2c0.2,1.4,1.1,2.1,2.3,2.1
							c0.7,0,1.3-0.2,1.9-0.6l0.8,1.4c-0.8,0.6-1.9,0.9-2.9,0.9C223.5,17.2,221.6,15.6,221.6,12.8z M227.2,12c0-1.1-0.5-1.9-1.6-1.9
							c-0.9,0-1.7,0.6-1.8,1.9H227.2z"/>
						<path class="st4" d="M230.9,8.6h1.8l0.2,1.1h0.1c0.7-0.7,1.6-1.3,2.7-1.3c1.8,0,2.6,1.3,2.6,3.4V17H236v-5
							c0-1.3-0.4-1.8-1.2-1.8c-0.7,0-1.1,0.3-1.8,0.9V17h-2.2V8.6z"/>
						<path class="st4" d="M240.8,14.1v-3.7h-1.2V8.7l1.3-0.1l0.3-2.2h1.8v2.2h2.1v1.7H243v3.7c0,1,0.4,1.4,1.1,1.4
							c0.3,0,0.6-0.1,0.8-0.2l0.4,1.6c-0.5,0.2-1,0.3-1.8,0.3C241.6,17.2,240.8,16,240.8,14.1z"/>
						<path class="st4" d="M245.8,16l1-1.4c0.8,0.6,1.5,0.9,2.2,0.9c0.8,0,1.2-0.4,1.2-0.9c0-0.6-0.9-0.9-1.8-1.3
							c-1.1-0.4-2.3-1-2.3-2.4c0-1.5,1.2-2.6,3.1-2.6c1.2,0,2.2,0.5,2.9,1l-1,1.3c-0.6-0.4-1.2-0.7-1.8-0.7c-0.8,0-1.1,0.3-1.1,0.8
							c0,0.6,0.8,0.8,1.7,1.2c1.1,0.4,2.3,1,2.3,2.5c0,1.5-1.2,2.7-3.3,2.7C247.9,17.2,246.7,16.7,245.8,16z"/>
					</g>
					<path id="divider" class="st5" d="M0,640h334"/>
				</g>
				<g transform="translate(0.000000, 671.000000)">
					<g transform="translate(0.000000, 47.000000)">
						<g>
							<path class="st0" d="M8,0h318c4.4,0,8,3.6,8,8v34c0,4.4-3.6,8-8,8H8c-4.4,0-8-3.6-8-8V8C0,3.6,3.6,0,8,0z"/>
							<g class="st1">
								<path class="st2" d="M136.2,19.9h6.8v1.8h-4.6v2.6h3.9v1.9h-3.9v3h4.8V31h-7V19.9z"/>
								<path class="st2" d="M145.3,22.6h1.8l0.1,1.1h0.1c0.7-0.7,1.6-1.3,2.7-1.3c1.8,0,2.6,1.3,2.6,3.4V31h-2.2v-5
									c0-1.3-0.4-1.8-1.2-1.8c-0.7,0-1.1,0.3-1.8,0.9V31h-2.2V22.6z"/>
								<path class="st2" d="M154.3,32.5c0-0.7,0.4-1.3,1.2-1.7v-0.1c-0.4-0.3-0.8-0.7-0.8-1.4c0-0.6,0.4-1.2,0.9-1.6v-0.1
									c-0.6-0.4-1.1-1.2-1.1-2.2c0-2,1.6-3,3.4-3c0.5,0,0.9,0.1,1.3,0.2h3v1.6h-1.4c0.2,0.3,0.4,0.8,0.4,1.3
									c0,1.9-1.4,2.8-3.2,2.8c-0.3,0-0.7-0.1-1.1-0.2c-0.2,0.2-0.4,0.4-0.4,0.7c0,0.5,0.3,0.7,1.3,0.7h1.4c2,0,3.1,0.6,3.1,2.1
									c0,1.7-1.8,3-4.6,3C155.9,34.6,154.3,34,154.3,32.5z M160.3,32c0-0.6-0.5-0.8-1.4-0.8h-1c-0.5,0-0.9,0-1.2-0.1
									c-0.4,0.3-0.6,0.6-0.6,1c0,0.7,0.8,1.1,2,1.1C159.4,33.2,160.3,32.7,160.3,32z M159.3,25.4c0-1-0.6-1.5-1.3-1.5
									s-1.3,0.6-1.3,1.5c0,1,0.6,1.5,1.3,1.5S159.3,26.4,159.3,25.4z"/>
								<path class="st2" d="M163,26.8c0-2.7,1.9-4.4,3.9-4.4c2.3,0,3.5,1.7,3.5,4c0,0.4,0,0.8-0.1,1h-5.2c0.2,1.4,1.1,2.1,2.3,2.1
									c0.7,0,1.3-0.2,1.9-0.6l0.8,1.4c-0.8,0.6-1.9,0.9-2.9,0.9C164.9,31.2,163,29.6,163,26.8z M168.6,26c0-1.1-0.5-1.9-1.6-1.9
									c-0.9,0-1.7,0.6-1.8,1.9H168.6z"/>
								<path class="st2" d="M172.3,22.6h1.8l0.2,1.1h0.1c0.7-0.7,1.6-1.3,2.7-1.3c1.8,0,2.6,1.3,2.6,3.4V31h-2.2v-5
									c0-1.3-0.4-1.8-1.2-1.8c-0.7,0-1.1,0.3-1.8,0.9V31h-2.2V22.6z"/>
								<path class="st2" d="M181.1,30l1-1.4c0.8,0.6,1.5,0.9,2.2,0.9c0.8,0,1.2-0.4,1.2-0.9c0-0.6-0.9-0.9-1.8-1.3
									c-1.1-0.4-2.3-1-2.3-2.4c0-1.5,1.2-2.6,3.1-2.6c1.2,0,2.2,0.5,2.9,1l-1,1.3c-0.6-0.4-1.2-0.7-1.8-0.7
									c-0.8,0-1.1,0.3-1.1,0.8c0,0.6,0.8,0.8,1.7,1.2c1.1,0.4,2.3,1,2.3,2.5c0,1.5-1.2,2.7-3.3,2.7
									C183.2,31.2,181.9,30.7,181.1,30z"/>
								<path class="st2" d="M189.1,20.1c0-0.7,0.6-1.2,1.3-1.2c0.8,0,1.3,0.5,1.3,1.2c0,0.7-0.6,1.2-1.3,1.2
									C189.7,21.2,189.1,20.7,189.1,20.1z M189.3,22.6h2.2V31h-2.2V22.6z"/>
								<path class="st2" d="M193.1,30l1-1.4c0.8,0.6,1.5,0.9,2.2,0.9c0.8,0,1.2-0.4,1.2-0.9c0-0.6-0.9-0.9-1.8-1.3
									c-1.1-0.4-2.3-1-2.3-2.4c0-1.5,1.2-2.6,3.1-2.6c1.2,0,2.2,0.5,2.9,1l-1,1.3c-0.6-0.4-1.2-0.7-1.8-0.7
									c-0.8,0-1.1,0.3-1.1,0.8c0,0.6,0.8,0.8,1.7,1.2c1.1,0.4,2.3,1,2.3,2.5c0,1.5-1.2,2.7-3.3,2.7
									C195.2,31.2,193.9,30.7,193.1,30z"/>
							</g>
						</g>
						<g transform="translate(0.000000, 70.000000)">
							<g class="st1">
								<path d="M152.9,84.8c3.9-3.5,5.9-6,5.9-8.2c0-1.4-0.8-2.4-2.3-2.4c-1,0-1.9,0.7-2.6,1.5l-1.2-1.2c1.1-1.2,2.3-2,4-2
									c2.4,0,4,1.6,4,4c0,2.6-2,5.2-4.8,7.9c0.7-0.1,1.5-0.1,2.2-0.1h3.3V86h-8.6V84.8z"/>
								<path d="M163.2,79.3c0-4.6,1.7-6.8,4.3-6.8c2.6,0,4.3,2.3,4.3,6.8c0,4.6-1.7,6.9-4.3,6.9C164.9,86.2,163.2,83.9,163.2,79.3z
									 M169.8,79.3c0-3.8-1-5.2-2.3-5.2c-1.4,0-2.3,1.4-2.3,5.2c0,3.8,1,5.3,2.3,5.3C168.9,84.6,169.8,83.2,169.8,79.3z"/>
								<path d="M173.4,84.8c3.9-3.5,5.9-6,5.9-8.2c0-1.4-0.8-2.4-2.3-2.4c-1,0-1.9,0.7-2.6,1.5l-1.2-1.2c1.1-1.2,2.3-2,4-2
									c2.4,0,4,1.6,4,4c0,2.6-2,5.2-4.8,7.9c0.7-0.1,1.5-0.1,2.2-0.1h3.3V86h-8.6V84.8z"/>
							</g>
							<g class="st1">
								<path d="M118.7,191.3h2.9v-9.2h-2.4v-1.3c1.2-0.2,2.1-0.5,2.9-1h1.6v11.5h2.6v1.7h-7.6V191.3z"/>
								<path d="M135.6,182.2c-0.5-0.6-1.3-1-2.1-1c-1.7,0-3.1,1.3-3.2,5.1c0.8-1,1.9-1.5,2.9-1.5c2.2,0,3.7,1.4,3.7,4.2
									c0,2.6-1.8,4.3-4,4.3c-2.5,0-4.6-2.1-4.6-6.6c0-5.1,2.4-7.1,5-7.1c1.5,0,2.6,0.6,3.3,1.4L135.6,182.2z M135,188.9
									c0-1.7-0.8-2.7-2.2-2.7c-0.8,0-1.7,0.4-2.5,1.5c0.2,2.6,1.2,3.9,2.6,3.9C134.1,191.6,135,190.6,135,188.9z"/>
								<path d="M138.5,191.8c3.9-3.5,5.9-6,5.9-8.2c0-1.4-0.8-2.4-2.3-2.4c-1,0-1.9,0.7-2.6,1.5l-1.2-1.2c1.1-1.2,2.3-2,4-2
									c2.4,0,4,1.6,4,4c0,2.6-2,5.2-4.8,7.9c0.7-0.1,1.5-0.1,2.2-0.1h3.3v1.8h-8.6V191.8z"/>
								<path d="M153.6,187.4c0-3.5,1-6.5,2.7-9.2l1.3,0.6c-1.5,2.6-2.3,5.6-2.3,8.6c0,3,0.7,6.1,2.3,8.6l-1.3,0.6
									C154.6,193.8,153.6,190.9,153.6,187.4z"/>
								<path d="M159.2,189.7c0-1.7,1.2-2.9,2.4-3.6V186c-1-0.7-1.8-1.7-1.8-3.1c0-2.1,1.6-3.4,3.8-3.4c2.3,0,3.7,1.4,3.7,3.5
									c0,1.4-0.9,2.5-1.7,3.1v0.1c1.2,0.7,2.2,1.7,2.2,3.5c0,2-1.7,3.5-4.3,3.5C161.1,193.2,159.2,191.8,159.2,189.7z
									 M165.9,189.7c0-1.6-1.5-2.2-3.3-3c-0.9,0.6-1.5,1.6-1.5,2.8c0,1.3,1.1,2.2,2.5,2.2C164.9,191.7,165.9,190.9,165.9,189.7z
									 M165.6,183.2c0-1.2-0.7-2.1-2-2.1c-1.1,0-1.9,0.7-1.9,1.9c0,1.4,1.3,2.1,2.7,2.7C165.2,184.9,165.6,184.1,165.6,183.2z"/>
								<path d="M169.5,186.3c0-4.6,1.7-6.8,4.3-6.8c2.6,0,4.3,2.3,4.3,6.8c0,4.6-1.7,6.9-4.3,6.9
									C171.2,193.2,169.5,190.9,169.5,186.3z M176.1,186.3c0-3.8-1-5.2-2.3-5.2c-1.3,0-2.3,1.4-2.3,5.2c0,3.8,1,5.3,2.3,5.3
									C175.1,191.6,176.1,190.2,176.1,186.3z"/>
								<path d="M180.2,191.8c0-0.8,0.6-1.5,1.4-1.5c0.8,0,1.4,0.6,1.4,1.5c0,0.8-0.6,1.4-1.4,1.4
									C180.8,193.2,180.2,192.6,180.2,191.8z"/>
								<path d="M185.1,191.8c3.9-3.5,5.9-6,5.9-8.2c0-1.4-0.8-2.4-2.3-2.4c-1,0-1.9,0.7-2.6,1.5l-1.2-1.2c1.1-1.2,2.3-2,4-2
									c2.4,0,4,1.6,4,4c0,2.6-2,5.2-4.8,7.9c0.7-0.1,1.5-0.1,2.2-0.1h3.3v1.8h-8.6V191.8z"/>
								<path d="M195.2,183.7c0-2.7,1.2-4.2,3.1-4.2s3.1,1.5,3.1,4.2c0,2.7-1.3,4.2-3.1,4.2S195.2,186.3,195.2,183.7z M199.9,183.7
									c0-2.1-0.7-3-1.6-3c-0.9,0-1.6,0.9-1.6,3c0,2,0.7,3,1.6,3C199.2,186.7,199.9,185.7,199.9,183.7z M206,179.5h1.3l-7.3,13.7
									h-1.3L206,179.5z M204.6,189c0-2.7,1.3-4.2,3.1-4.2c1.8,0,3.1,1.5,3.1,4.2c0,2.7-1.3,4.2-3.1,4.2
									C205.8,193.2,204.6,191.7,204.6,189z M209.3,189c0-2.1-0.7-3-1.6-3c-0.9,0-1.6,0.9-1.6,3c0,2,0.7,3,1.6,3
									C208.6,192,209.3,191.1,209.3,189z"/>
								<path d="M212.3,196c1.5-2.6,2.3-5.6,2.3-8.6c0-3-0.7-6-2.3-8.6l1.3-0.6c1.7,2.7,2.7,5.7,2.7,9.2c0,3.6-1,6.5-2.7,9.2
									L212.3,196z"/>
							</g>
							<g>
								<path class="st3" d="M8.8,0.8h316.5c4.4,0,8,3.6,8,8v32.5c0,4.4-3.6,8-8,8H8.8c-4.4,0-8-3.6-8-8V8.8
									C0.8,4.3,4.3,0.8,8.8,0.8z"/>
								<g class="st1">
									<path d="M133.4,19.9h2.2V31h-2.2V19.9z"/>
									<path d="M138.1,22.6h1.8l0.1,1.1h0.1c0.7-0.7,1.6-1.3,2.7-1.3c1.8,0,2.6,1.3,2.6,3.4V31h-2.2v-5c0-1.3-0.4-1.8-1.2-1.8
										c-0.7,0-1.1,0.3-1.8,0.9V31h-2.2V22.6z"/>
									<path d="M147.2,26.8c0-2.8,2-4.4,4.3-4.4c1,0,1.8,0.4,2.4,0.9l-1,1.4c-0.4-0.4-0.8-0.6-1.3-0.6c-1.3,0-2.1,1-2.1,2.6
										c0,1.6,0.9,2.6,2.1,2.6c0.6,0,1.2-0.3,1.6-0.7l0.9,1.5c-0.8,0.7-1.8,1-2.7,1C149,31.2,147.2,29.6,147.2,26.8z"/>
									<path d="M155.4,20.1c0-0.7,0.6-1.2,1.3-1.2c0.8,0,1.3,0.5,1.3,1.2c0,0.7-0.6,1.2-1.3,1.2C156,21.2,155.4,20.7,155.4,20.1z
										 M155.7,22.6h2.2V31h-2.2V22.6z"/>
									<path d="M159.7,26.8c0-2.7,1.7-4.4,3.5-4.4c0.9,0,1.5,0.4,2.1,0.9l-0.1-1.3v-3h2.2v12h-1.8l-0.2-0.9h0
										c-0.6,0.6-1.5,1.1-2.3,1.1C161.1,31.2,159.7,29.6,159.7,26.8z M165.3,28.5v-3.7c-0.5-0.5-1-0.6-1.6-0.6
										c-0.9,0-1.7,0.9-1.7,2.6c0,1.7,0.6,2.6,1.7,2.6C164.3,29.4,164.8,29.2,165.3,28.5z"/>
									<path d="M169.3,26.8c0-2.7,1.9-4.4,3.9-4.4c2.3,0,3.5,1.7,3.5,4c0,0.4,0,0.8-0.1,1h-5.2c0.2,1.4,1.1,2.1,2.3,2.1
										c0.7,0,1.3-0.2,1.9-0.6l0.8,1.4c-0.8,0.6-1.9,0.9-2.9,0.9C171.2,31.2,169.3,29.6,169.3,26.8z M174.9,26
										c0-1.1-0.5-1.9-1.6-1.9c-0.9,0-1.7,0.6-1.8,1.9H174.9z"/>
									<path d="M178.6,22.6h1.8l0.2,1.1h0.1c0.7-0.7,1.6-1.3,2.7-1.3c1.8,0,2.6,1.3,2.6,3.4V31h-2.2v-5c0-1.3-0.4-1.8-1.2-1.8
										c-0.7,0-1.1,0.3-1.8,0.9V31h-2.2V22.6z"/>
									<path d="M187.7,26.8c0-2.8,2-4.4,4.3-4.4c1,0,1.8,0.4,2.4,0.9l-1.1,1.4c-0.4-0.4-0.8-0.6-1.3-0.6c-1.3,0-2.1,1-2.1,2.6
										c0,1.6,0.9,2.6,2.1,2.6c0.6,0,1.2-0.3,1.6-0.7l0.9,1.5c-0.8,0.7-1.8,1-2.7,1C189.4,31.2,187.7,29.6,187.7,26.8z"/>
									<path d="M195.1,26.8c0-2.7,1.9-4.4,3.9-4.4c2.3,0,3.5,1.7,3.5,4c0,0.4,0,0.8-0.1,1h-5.2c0.2,1.4,1.1,2.1,2.3,2.1
										c0.7,0,1.3-0.2,1.9-0.6l0.8,1.4c-0.8,0.6-1.9,0.9-2.9,0.9C197,31.2,195.1,29.6,195.1,26.8z M200.7,26
										c0-1.1-0.5-1.9-1.6-1.9c-0.9,0-1.7,0.6-1.8,1.9H200.7z"/>
								</g>
							</g>
							<g transform="translate(0.000000, 107.000000)">
								<path class="st3" d="M8.8,0.8h316.5c4.4,0,8,3.6,8,8v32.5c0,4.4-3.6,8-8,8H8.8c-4.4,0-8-3.6-8-8V8.8
									C0.8,4.3,4.3,0.8,8.8,0.8z"/>
								<g class="st1">
									<path d="M141.3,31l-2.3-4.2h-1.5V31h-2.2V19.9h3.9c2.3,0,4.2,0.8,4.2,3.4c0,1.7-0.8,2.7-2.1,3.2l2.6,4.5H141.3z M137.5,25
										h1.4c1.4,0,2.2-0.6,2.2-1.8c0-1.2-0.8-1.6-2.2-1.6h-1.4V25z"/>
									<path d="M144.6,26.8c0-2.7,1.9-4.4,3.9-4.4c2.3,0,3.5,1.7,3.5,4c0,0.4,0,0.8-0.1,1h-5.2c0.2,1.4,1.1,2.1,2.3,2.1
										c0.7,0,1.3-0.2,1.9-0.6l0.8,1.4c-0.8,0.6-1.9,0.9-2.9,0.9C146.4,31.2,144.6,29.6,144.6,26.8z M150.1,26
										c0-1.1-0.5-1.9-1.6-1.9c-0.9,0-1.7,0.6-1.8,1.9H150.1z"/>
									<path d="M153.1,30l1-1.4c0.8,0.6,1.5,0.9,2.2,0.9c0.8,0,1.2-0.4,1.2-0.9c0-0.6-0.9-0.9-1.8-1.3c-1.1-0.4-2.3-1-2.3-2.4
										c0-1.5,1.2-2.6,3.1-2.6c1.2,0,2.2,0.5,2.9,1l-1,1.3c-0.6-0.4-1.2-0.7-1.8-0.7c-0.8,0-1.1,0.3-1.1,0.8
										c0,0.6,0.8,0.8,1.7,1.2c1.1,0.4,2.3,1,2.3,2.5c0,1.5-1.2,2.7-3.3,2.7C155.1,31.2,153.9,30.7,153.1,30z"/>
									<path d="M160.8,26.8c0-2.8,1.9-4.4,4-4.4s4,1.6,4,4.4c0,2.8-1.9,4.4-4,4.4S160.8,29.6,160.8,26.8z M166.6,26.8
										c0-1.6-0.6-2.6-1.8-2.6s-1.8,1-1.8,2.6c0,1.6,0.6,2.6,1.8,2.6S166.6,28.4,166.6,26.8z"/>
									<path d="M170.7,28.6V19h2.2v9.7c0,0.5,0.2,0.7,0.5,0.7c0.1,0,0.1,0,0.3,0l0.3,1.6c-0.3,0.1-0.6,0.2-1.1,0.2
										C171.2,31.2,170.7,30.2,170.7,28.6z"/>
									<path d="M174.4,22.6h2.2l1.2,4.2c0.2,0.8,0.5,1.7,0.7,2.5h0.1c0.2-0.9,0.5-1.7,0.7-2.5l1.2-4.2h2.1l-2.8,8.4h-2.6
										L174.4,22.6z"/>
									<path d="M183.4,26.8c0-2.7,1.9-4.4,3.9-4.4c2.3,0,3.5,1.7,3.5,4c0,0.4,0,0.8-0.1,1h-5.2c0.2,1.4,1.1,2.1,2.3,2.1
										c0.7,0,1.3-0.2,1.9-0.6l0.8,1.4c-0.8,0.6-1.9,0.9-2.9,0.9C185.2,31.2,183.4,29.6,183.4,26.8z M188.9,26
										c0-1.1-0.5-1.9-1.6-1.9c-0.9,0-1.7,0.6-1.8,1.9H188.9z"/>
									<path d="M192.1,26.8c0-2.7,1.7-4.4,3.5-4.4c0.9,0,1.5,0.4,2.1,0.9l-0.1-1.3v-3h2.2v12h-1.8l-0.2-0.9h0
										c-0.6,0.6-1.5,1.1-2.3,1.1C193.5,31.2,192.1,29.6,192.1,26.8z M197.7,28.5v-3.7c-0.5-0.5-1-0.6-1.6-0.6
										c-0.9,0-1.7,0.9-1.7,2.6c0,1.7,0.6,2.6,1.7,2.6C196.7,29.4,197.2,29.2,197.7,28.5z"/>
								</g>
							</g>
						</g>
					</g>
					<g transform="translate(0.000000, 341.000000)">
						<g>
							<path class="st0" d="M8,0h318c4.4,0,8,3.6,8,8v34c0,4.4-3.6,8-8,8H8c-4.4,0-8-3.6-8-8V8C0,3.6,3.6,0,8,0z"/>
							<g class="st1">
								<path class="st2" d="M139.5,19.9h3.6c2.5,0,4.3,0.9,4.3,3.5c0,2.5-1.9,3.7-4.3,3.7h-1.5V31h-2.2V19.9z M143,25.3
									c1.5,0,2.3-0.6,2.3-1.9c0-1.3-0.8-1.7-2.3-1.7h-1.3v3.6H143z"/>
								<path class="st2" d="M149.3,28.6V19h2.2v9.7c0,0.5,0.2,0.7,0.4,0.7c0.1,0,0.2,0,0.3,0l0.3,1.6c-0.3,0.1-0.6,0.2-1.1,0.2
									C149.8,31.2,149.3,30.2,149.3,28.6z"/>
								<path class="st2" d="M153.6,28.7c0-1.8,1.5-2.7,4.8-3.1c0-0.8-0.4-1.5-1.4-1.5c-0.8,0-1.5,0.3-2.3,0.8l-0.8-1.5
									c1-0.6,2.2-1.1,3.5-1.1c2.1,0,3.2,1.3,3.2,3.7V31h-1.8l-0.2-0.9h0c-0.7,0.6-1.6,1.1-2.5,1.1
									C154.6,31.2,153.6,30.1,153.6,28.7z M158.4,28.7V27c-2,0.3-2.7,0.8-2.7,1.6c0,0.7,0.5,0.9,1.1,0.9
									C157.4,29.5,157.9,29.2,158.4,28.7z"/>
								<path class="st2" d="M162.3,26.8c0-2.8,2-4.4,4.3-4.4c1,0,1.8,0.4,2.4,0.9l-1,1.4c-0.4-0.4-0.8-0.6-1.3-0.6
									c-1.3,0-2.1,1-2.1,2.6c0,1.6,0.9,2.6,2.1,2.6c0.6,0,1.2-0.3,1.6-0.7l0.9,1.5c-0.8,0.7-1.8,1-2.7,1
									C164.1,31.2,162.3,29.6,162.3,26.8z"/>
								<path class="st2" d="M169.8,26.8c0-2.7,1.9-4.4,3.9-4.4c2.3,0,3.5,1.7,3.5,4c0,0.4,0,0.8-0.1,1h-5.2
									c0.2,1.4,1.1,2.1,2.3,2.1c0.7,0,1.3-0.2,1.9-0.6l0.8,1.4c-0.8,0.6-1.9,0.9-2.9,0.9C171.6,31.2,169.8,29.6,169.8,26.8z
									 M175.3,26c0-1.1-0.5-1.9-1.6-1.9c-0.9,0-1.7,0.6-1.8,1.9H175.3z"/>
								<path class="st2" d="M181,30.1L181,30.1l-0.2,0.9H179V19h2.2v3l0,1.4c0.7-0.6,1.5-1,2.3-1c2.1,0,3.3,1.7,3.3,4.3
									c0,2.9-1.7,4.6-3.6,4.6C182.5,31.2,181.7,30.8,181,30.1z M184.6,26.7c0-1.6-0.5-2.5-1.7-2.5c-0.6,0-1.1,0.3-1.7,0.9v3.7
									c0.5,0.5,1.1,0.6,1.5,0.6C183.8,29.4,184.6,28.5,184.6,26.7z"/>
								<path class="st2" d="M188.2,26.8c0-2.8,1.9-4.4,4-4.4c2.1,0,4,1.6,4,4.4c0,2.8-1.9,4.4-4,4.4
									C190.1,31.2,188.2,29.6,188.2,26.8z M194,26.8c0-1.6-0.6-2.6-1.8-2.6c-1.1,0-1.8,1-1.8,2.6c0,1.6,0.6,2.6,1.8,2.6
									C193.4,29.4,194,28.4,194,26.8z"/>
							</g>
						</g>
						<g transform="translate(0.000000, 70.000000)">
							<g class="st1">
								<path d="M153.7,84.3h2.9v-9.2h-2.4v-1.3c1.2-0.2,2.1-0.5,2.9-1h1.6v11.5h2.6V86h-7.6V84.3z"/>
								<path d="M162.9,84.4l1-1.3c0.8,0.8,1.8,1.5,3.1,1.5c1.5,0,2.5-0.8,2.5-2.2c0-1.5-0.9-2.4-3.9-2.4v-1.5c2.6,0,3.5-1,3.5-2.3
									c0-1.2-0.8-1.9-2-1.9c-1,0-1.9,0.5-2.6,1.3l-1.1-1.3c1-0.9,2.3-1.6,3.8-1.6c2.4,0,4.1,1.2,4.1,3.4c0,1.5-0.9,2.6-2.3,3.1
									v0.1c1.5,0.4,2.7,1.5,2.7,3.3c0,2.4-2,3.8-4.4,3.8C165.1,86.2,163.8,85.4,162.9,84.4z"/>
								<path d="M174.2,84.3h2.9v-9.2h-2.4v-1.3c1.2-0.2,2.1-0.5,2.9-1h1.6v11.5h2.6V86h-7.6V84.3z"/>
							</g>
							<g class="st1">
								<path d="M121.2,179.7h2.1l4.4,7.8l1.4,2.8h0.1c-0.1-1.4-0.3-3-0.3-4.4v-6.2h2V193h-2.1l-4.4-7.8l-1.4-2.8h-0.1
									c0.1,1.4,0.3,2.9,0.3,4.3v6.2h-2V179.7z"/>
								<path d="M133.5,188.1c0-3.3,2.2-5.2,4.7-5.2c2.4,0,4.7,1.9,4.7,5.2c0,3.3-2.2,5.2-4.7,5.2
									C135.7,193.2,133.5,191.3,133.5,188.1z M140.7,188.1c0-2.1-1-3.5-2.5-3.5c-1.5,0-2.5,1.4-2.5,3.5c0,2.1,1,3.5,2.5,3.5
									C139.8,191.5,140.7,190.2,140.7,188.1z"/>
								<path d="M145.2,189.8v-5h-1.4v-1.5l1.5-0.1l0.2-2.7h1.7v2.7h2.6v1.7h-2.6v5c0,1.2,0.4,1.8,1.4,1.8c0.3,0,0.8-0.1,1.1-0.2
									l0.4,1.5c-0.6,0.2-1.2,0.4-1.9,0.4C146,193.2,145.2,191.8,145.2,189.8z"/>
								<path d="M156,183.1h1.7l0.2,1.8h0.1c0.7-1.3,1.7-2,2.8-2c0.5,0,0.8,0.1,1.1,0.2l-0.4,1.8c-0.3-0.1-0.6-0.2-1-0.2
									c-0.8,0-1.8,0.6-2.4,2.1v6.2H156V183.1z"/>
								<path d="M162.5,188.1c0-3.2,2.2-5.2,4.5-5.2c2.6,0,4,1.9,4,4.7c0,0.4,0,0.8-0.1,1h-6.4c0.2,1.9,1.4,3,3.1,3
									c0.9,0,1.6-0.3,2.4-0.7l0.7,1.3c-0.9,0.6-2.1,1-3.3,1C164.6,193.2,162.5,191.3,162.5,188.1z M169.3,187.2
									c0-1.7-0.8-2.7-2.2-2.7c-1.2,0-2.3,1-2.5,2.7H169.3z"/>
								<path d="M173.4,190.7v-12h2.1v12.1c0,0.6,0.3,0.8,0.5,0.8c0.1,0,0.2,0,0.3,0l0.3,1.6c-0.3,0.1-0.6,0.2-1.1,0.2
									C173.9,193.2,173.4,192.3,173.4,190.7z"/>
								<path d="M178.2,190.4c0-2.1,1.8-3.2,5.9-3.7c0-1.2-0.4-2.2-1.9-2.2c-1,0-2,0.5-2.9,1l-0.8-1.4c1-0.6,2.4-1.3,4-1.3
									c2.5,0,3.6,1.6,3.6,4.2v6h-1.7l-0.2-1.1h-0.1c-0.9,0.8-2,1.4-3.2,1.4C179.4,193.2,178.2,192.1,178.2,190.4z M184.1,190.4
									V188c-2.9,0.4-3.9,1.1-3.9,2.2c0,1,0.7,1.4,1.5,1.4C182.6,191.6,183.3,191.2,184.1,190.4z"/>
								<path d="M189.1,189.8v-5h-1.4v-1.5l1.5-0.1l0.2-2.7h1.7v2.7h2.6v1.7h-2.6v5c0,1.2,0.4,1.8,1.4,1.8c0.3,0,0.8-0.1,1.1-0.2
									l0.4,1.5c-0.6,0.2-1.2,0.4-1.9,0.4C189.9,193.2,189.1,191.8,189.1,189.8z"/>
								<path d="M194.9,188.1c0-3.2,2.2-5.2,4.5-5.2c2.6,0,4,1.9,4,4.7c0,0.4,0,0.8-0.1,1h-6.4c0.2,1.9,1.4,3,3.1,3
									c0.9,0,1.6-0.3,2.4-0.7l0.7,1.3c-0.9,0.6-2.1,1-3.3,1C197,193.2,194.9,191.3,194.9,188.1z M201.7,187.2
									c0-1.7-0.8-2.7-2.2-2.7c-1.2,0-2.3,1-2.5,2.7H201.7z"/>
								<path d="M205.1,188.1c0-3.2,2-5.2,4.2-5.2c1.1,0,1.9,0.4,2.7,1.1l-0.1-1.6v-3.7h2.1V193h-1.7l-0.2-1.1h-0.1
									c-0.7,0.8-1.8,1.4-2.9,1.4C206.7,193.2,205.1,191.3,205.1,188.1z M211.9,190.3v-4.8c-0.7-0.7-1.4-0.9-2.2-0.9
									c-1.4,0-2.5,1.3-2.5,3.5c0,2.3,0.9,3.5,2.4,3.5C210.5,191.5,211.2,191.1,211.9,190.3z"/>
							</g>
							<g>
								<path class="st3" d="M8.8,0.8h316.5c4.4,0,8,3.6,8,8v32.5c0,4.4-3.6,8-8,8H8.8c-4.4,0-8-3.6-8-8V8.8
									C0.8,4.3,4.3,0.8,8.8,0.8z"/>
								<g class="st1">
									<path d="M113.3,19.9h2.5l1.9,5.2c0.2,0.7,0.4,1.4,0.7,2.1h0.1c0.2-0.7,0.4-1.5,0.7-2.1l1.8-5.2h2.5V31h-2v-4.6
										c0-1,0.2-2.6,0.3-3.6h-0.1l-0.9,2.6L119,30h-1.3l-1.7-4.7l-0.9-2.6H115c0.1,1,0.3,2.6,0.3,3.6V31h-2V19.9z"/>
									<path d="M125.8,20.1c0-0.7,0.6-1.2,1.3-1.2c0.8,0,1.3,0.5,1.3,1.2c0,0.7-0.6,1.2-1.3,1.2C126.3,21.2,125.8,20.7,125.8,20.1
										z M126,22.6h2.2V31H126V22.6z"/>
									<path d="M130.5,28.6V19h2.2v9.7c0,0.5,0.2,0.7,0.5,0.7c0.1,0,0.1,0,0.3,0l0.3,1.6c-0.3,0.1-0.6,0.2-1.1,0.2
										C131.1,31.2,130.5,30.2,130.5,28.6z"/>
									<path d="M134.8,26.8c0-2.7,1.7-4.4,3.5-4.4c0.9,0,1.5,0.4,2.1,0.9l-0.1-1.3v-3h2.2v12h-1.8l-0.2-0.9h0
										c-0.6,0.6-1.5,1.1-2.3,1.1C136.1,31.2,134.8,29.6,134.8,26.8z M140.3,28.5v-3.7c-0.5-0.5-1-0.6-1.6-0.6
										c-0.9,0-1.7,0.9-1.7,2.6c0,1.7,0.6,2.6,1.7,2.6C139.4,29.4,139.9,29.2,140.3,28.5z"/>
									<path d="M148.1,20.1c0-0.7,0.6-1.2,1.3-1.2c0.8,0,1.3,0.5,1.3,1.2c0,0.7-0.6,1.2-1.3,1.2C148.7,21.2,148.1,20.7,148.1,20.1
										z M148.3,22.6h2.2V31h-2.2V22.6z"/>
									<path d="M152.9,22.6h1.8l0.1,1.1h0.1c0.7-0.7,1.6-1.3,2.7-1.3c1.8,0,2.6,1.3,2.6,3.4V31H158v-5c0-1.3-0.4-1.8-1.2-1.8
										c-0.7,0-1.1,0.3-1.8,0.9V31h-2.2V22.6z"/>
									<path d="M165.1,30l1-1.4c0.8,0.6,1.5,0.9,2.2,0.9c0.8,0,1.2-0.4,1.2-0.9c0-0.6-0.9-0.9-1.8-1.3c-1.1-0.4-2.3-1-2.3-2.4
										c0-1.5,1.2-2.6,3.1-2.6c1.2,0,2.2,0.5,2.9,1l-1,1.3c-0.6-0.4-1.2-0.7-1.8-0.7c-0.8,0-1.1,0.3-1.1,0.8
										c0,0.6,0.8,0.8,1.7,1.2c1.1,0.4,2.3,1,2.3,2.5c0,1.5-1.2,2.7-3.3,2.7C167.2,31.2,165.9,30.7,165.1,30z"/>
									<path d="M172.8,26.8c0-2.7,1.9-4.4,3.9-4.4c2.3,0,3.5,1.7,3.5,4c0,0.4,0,0.8-0.1,1h-5.2c0.2,1.4,1.1,2.1,2.3,2.1
										c0.7,0,1.3-0.2,1.9-0.6l0.8,1.4c-0.8,0.6-1.9,0.9-2.9,0.9C174.6,31.2,172.8,29.6,172.8,26.8z M178.3,26
										c0-1.1-0.5-1.9-1.6-1.9c-0.9,0-1.7,0.6-1.8,1.9H178.3z"/>
									<path d="M181,22.6h2.2l1.2,4.2c0.2,0.8,0.5,1.7,0.7,2.5h0.1c0.2-0.9,0.5-1.7,0.7-2.5l1.2-4.2h2.1l-2.8,8.4h-2.6L181,22.6z"
										/>
									<path d="M190,26.8c0-2.7,1.9-4.4,3.9-4.4c2.3,0,3.5,1.7,3.5,4c0,0.4,0,0.8-0.1,1h-5.2c0.2,1.4,1.1,2.1,2.3,2.1
										c0.7,0,1.3-0.2,1.9-0.6l0.8,1.4c-0.8,0.6-1.9,0.9-2.9,0.9C191.8,31.2,190,29.6,190,26.8z M195.5,26c0-1.1-0.5-1.9-1.6-1.9
										c-0.9,0-1.7,0.6-1.8,1.9H195.5z"/>
									<path d="M199.2,22.6h1.8l0.1,1.5h0.1c0.6-1.1,1.5-1.7,2.4-1.7c0.5,0,0.7,0.1,1,0.2l-0.4,1.9c-0.3-0.1-0.5-0.1-0.9-0.1
										c-0.7,0-1.5,0.4-1.9,1.7v5h-2.2V22.6z"/>
									<path d="M205.5,20.1c0-0.7,0.6-1.2,1.3-1.2c0.8,0,1.3,0.5,1.3,1.2c0,0.7-0.6,1.2-1.3,1.2C206.1,21.2,205.5,20.7,205.5,20.1
										z M205.7,22.6h2.2V31h-2.2V22.6z"/>
									<path d="M210.6,28.1v-3.7h-1.2v-1.6l1.3-0.1l0.3-2.2h1.8v2.2h2.1v1.7h-2.1v3.7c0,1,0.4,1.4,1.1,1.4c0.3,0,0.6-0.1,0.8-0.2
										l0.4,1.6c-0.5,0.2-1,0.3-1.8,0.3C211.4,31.2,210.6,30,210.6,28.1z"/>
									<path d="M216.2,34.2l0.4-1.7c0.1,0,0.4,0.1,0.6,0.1c0.9,0,1.3-0.5,1.6-1.3l0.1-0.5l-3.3-8.2h2.2l1.3,3.9
										c0.3,0.8,0.5,1.6,0.7,2.4h0.1c0.2-0.8,0.4-1.6,0.6-2.4l1.2-3.9h2.1l-3,8.7c-0.7,2-1.6,3.1-3.5,3.1
										C216.8,34.4,216.5,34.3,216.2,34.2z"/>
								</g>
							</g>
							<g transform="translate(0.000000, 107.000000)">
								<path class="st3" d="M8.8,0.8h316.5c4.4,0,8,3.6,8,8v32.5c0,4.4-3.6,8-8,8H8.8c-4.4,0-8-3.6-8-8V8.8
									C0.8,4.3,4.3,0.8,8.8,0.8z"/>
								<g class="st1">
									<path d="M99.4,31l-2.3-4.2h-1.5V31h-2.2V19.9h3.9c2.3,0,4.2,0.8,4.2,3.4c0,1.7-0.8,2.7-2.1,3.2l2.6,4.5H99.4z M95.6,25H97
										c1.4,0,2.2-0.6,2.2-1.8c0-1.2-0.8-1.6-2.2-1.6h-1.4V25z"/>
									<path d="M102.7,26.8c0-2.7,1.9-4.4,3.9-4.4c2.3,0,3.5,1.7,3.5,4c0,0.4,0,0.8-0.1,1h-5.2c0.2,1.4,1.1,2.1,2.3,2.1
										c0.7,0,1.3-0.2,1.9-0.6l0.8,1.4c-0.8,0.6-1.9,0.9-2.9,0.9C104.5,31.2,102.7,29.6,102.7,26.8z M108.2,26
										c0-1.1-0.5-1.9-1.6-1.9c-0.9,0-1.7,0.6-1.8,1.9H108.2z"/>
									<path d="M111.9,28.6V19h2.2v9.7c0,0.5,0.2,0.7,0.4,0.7c0.1,0,0.1,0,0.3,0l0.3,1.6c-0.3,0.1-0.6,0.2-1.1,0.2
										C112.5,31.2,111.9,30.2,111.9,28.6z"/>
									<path d="M116.3,28.7c0-1.8,1.5-2.7,4.8-3.1c0-0.8-0.4-1.5-1.4-1.5c-0.8,0-1.5,0.3-2.3,0.8l-0.8-1.5c1-0.6,2.2-1.1,3.5-1.1
										c2.1,0,3.2,1.3,3.2,3.7V31h-1.8l-0.2-0.9h0c-0.7,0.6-1.6,1.1-2.5,1.1C117.2,31.2,116.3,30.1,116.3,28.7z M121.1,28.7V27
										c-2,0.3-2.7,0.8-2.7,1.6c0,0.7,0.5,0.9,1.1,0.9C120.1,29.5,120.6,29.2,121.1,28.7z"/>
									<path d="M125.6,28.1v-3.7h-1.2v-1.6l1.3-0.1l0.3-2.2h1.8v2.2h2.1v1.7h-2.1v3.7c0,1,0.4,1.4,1.1,1.4c0.3,0,0.6-0.1,0.8-0.2
										l0.4,1.6c-0.5,0.2-1,0.3-1.8,0.3C126.3,31.2,125.6,30,125.6,28.1z"/>
									<path d="M131.3,20.1c0-0.7,0.6-1.2,1.3-1.2c0.8,0,1.3,0.5,1.3,1.2c0,0.7-0.6,1.2-1.3,1.2C131.9,21.2,131.3,20.7,131.3,20.1
										z M131.6,22.6h2.2V31h-2.2V22.6z"/>
									<path d="M135.6,26.8c0-2.8,1.9-4.4,4-4.4s4,1.6,4,4.4c0,2.8-1.9,4.4-4,4.4S135.6,29.6,135.6,26.8z M141.4,26.8
										c0-1.6-0.6-2.6-1.8-2.6s-1.8,1-1.8,2.6c0,1.6,0.6,2.6,1.8,2.6S141.4,28.4,141.4,26.8z"/>
									<path d="M145.5,22.6h1.8l0.1,1.1h0.1c0.7-0.7,1.6-1.3,2.7-1.3c1.8,0,2.6,1.3,2.6,3.4V31h-2.2v-5c0-1.3-0.4-1.8-1.2-1.8
										c-0.7,0-1.1,0.3-1.8,0.9V31h-2.2V22.6z"/>
									<path d="M154.3,30l1-1.4c0.8,0.6,1.5,0.9,2.2,0.9c0.8,0,1.2-0.4,1.2-0.9c0-0.6-0.9-0.9-1.8-1.3c-1.1-0.4-2.3-1-2.3-2.4
										c0-1.5,1.2-2.6,3.1-2.6c1.2,0,2.2,0.5,2.9,1l-1,1.3c-0.6-0.4-1.2-0.7-1.8-0.7c-0.8,0-1.1,0.3-1.1,0.8
										c0,0.6,0.8,0.8,1.7,1.2c1.1,0.4,2.3,1,2.3,2.5c0,1.5-1.2,2.7-3.3,2.7C156.4,31.2,155.1,30.7,154.3,30z"/>
									<path d="M162.5,19h2.2v3l-0.1,1.6c0.7-0.6,1.5-1.2,2.6-1.2c1.8,0,2.6,1.3,2.6,3.4V31h-2.2v-5c0-1.3-0.4-1.8-1.2-1.8
										c-0.7,0-1.1,0.3-1.8,0.9V31h-2.2V19z"/>
									<path d="M171.9,20.1c0-0.7,0.6-1.2,1.3-1.2c0.8,0,1.3,0.5,1.3,1.2c0,0.7-0.6,1.2-1.3,1.2C172.5,21.2,171.9,20.7,171.9,20.1
										z M172.1,22.6h2.2V31h-2.2V22.6z"/>
									<path d="M176.7,22.6h1.8l0.1,0.9h0.1c0.7-0.6,1.6-1.1,2.5-1.1c2.1,0,3.3,1.7,3.3,4.3c0,2.9-1.7,4.5-3.6,4.5
										c-0.7,0-1.4-0.3-2.1-0.9l0.1,1.4v2.5h-2.2V22.6z M182.2,26.7c0-1.6-0.5-2.5-1.7-2.5c-0.6,0-1.1,0.3-1.7,0.9v3.7
										c0.5,0.5,1.1,0.6,1.5,0.6C181.4,29.4,182.2,28.5,182.2,26.7z"/>
									<path d="M190.1,28.1v-3.7h-1.2v-1.6l1.3-0.1l0.3-2.2h1.8v2.2h2.1v1.7h-2.1v3.7c0,1,0.4,1.4,1.1,1.4c0.3,0,0.6-0.1,0.8-0.2
										l0.4,1.6c-0.5,0.2-1,0.3-1.8,0.3C190.8,31.2,190.1,30,190.1,28.1z"/>
									<path d="M195.3,26.8c0-2.8,1.9-4.4,4-4.4c2.1,0,4,1.6,4,4.4c0,2.8-1.9,4.4-4,4.4C197.2,31.2,195.3,29.6,195.3,26.8z
										 M201.1,26.8c0-1.6-0.6-2.6-1.8-2.6c-1.1,0-1.8,1-1.8,2.6c0,1.6,0.6,2.6,1.8,2.6C200.4,29.4,201.1,28.4,201.1,26.8z"/>
									<path d="M208.1,26.8c0-2.7,1.7-4.4,3.5-4.4c0.9,0,1.5,0.4,2.1,0.9l-0.1-1.3v-3h2.2v12h-1.8l-0.2-0.9h0
										c-0.6,0.6-1.5,1.1-2.3,1.1C209.4,31.2,208.1,29.6,208.1,26.8z M213.7,28.5v-3.7c-0.5-0.5-1-0.6-1.6-0.6
										c-0.9,0-1.7,0.9-1.7,2.6c0,1.7,0.6,2.6,1.7,2.6C212.7,29.4,213.2,29.2,213.7,28.5z"/>
									<path d="M218.2,22.6h1.8l0.1,1.5h0.1c0.6-1.1,1.5-1.7,2.4-1.7c0.5,0,0.7,0.1,1,0.2l-0.4,1.9c-0.3-0.1-0.5-0.1-0.9-0.1
										c-0.7,0-1.5,0.4-1.9,1.7v5h-2.2V22.6z"/>
									<path d="M224.7,27.9v-5.2h2.2v5c0,1.3,0.4,1.8,1.2,1.8c0.7,0,1.1-0.3,1.7-1v-5.7h2.2V31h-1.8l-0.2-1.2H230
										c-0.7,0.9-1.5,1.4-2.7,1.4C225.5,31.2,224.7,30,224.7,27.9z"/>
									<path d="M233.8,32.5c0-0.7,0.4-1.3,1.2-1.7v-0.1c-0.4-0.3-0.8-0.7-0.8-1.4c0-0.6,0.4-1.2,0.9-1.6v-0.1
										c-0.6-0.4-1.1-1.2-1.1-2.2c0-2,1.6-3,3.4-3c0.5,0,0.9,0.1,1.3,0.2h3v1.6h-1.4c0.2,0.3,0.4,0.8,0.4,1.3
										c0,1.9-1.4,2.8-3.2,2.8c-0.3,0-0.7-0.1-1.1-0.2c-0.2,0.2-0.4,0.4-0.4,0.7c0,0.5,0.3,0.7,1.3,0.7h1.4c2,0,3.1,0.6,3.1,2.1
										c0,1.7-1.8,3-4.6,3C235.3,34.6,233.8,34,233.8,32.5z M239.7,32c0-0.6-0.5-0.8-1.4-0.8h-1c-0.5,0-0.9,0-1.2-0.1
										c-0.4,0.3-0.6,0.6-0.6,1c0,0.7,0.8,1.1,2,1.1C238.9,33.2,239.7,32.7,239.7,32z M238.7,25.4c0-1-0.6-1.5-1.3-1.5
										s-1.3,0.6-1.3,1.5c0,1,0.6,1.5,1.3,1.5S238.7,26.4,238.7,25.4z"/>
								</g>
							</g>
						</g>
					</g>
					<g class="st1">
						<path class="st4" d="M82.6,15.6l1.3-1.5c0.8,0.7,1.8,1.2,2.8,1.2c1.2,0,1.8-0.5,1.8-1.3c0-0.8-0.7-1.1-1.7-1.5l-1.5-0.6
							c-1.1-0.5-2.2-1.4-2.2-3c0-1.8,1.6-3.2,3.8-3.2c1.3,0,2.6,0.5,3.5,1.4l-1.1,1.4c-0.7-0.6-1.4-0.9-2.4-0.9
							c-1,0-1.6,0.4-1.6,1.2c0,0.8,0.8,1.1,1.7,1.5l1.5,0.6c1.3,0.6,2.2,1.4,2.2,3c0,1.8-1.5,3.4-4.1,3.4
							C85.2,17.2,83.7,16.6,82.6,15.6z"/>
						<path class="st4" d="M92,12.8c0-2.7,1.9-4.4,3.9-4.4c2.3,0,3.5,1.7,3.5,4c0,0.4,0,0.8-0.1,1h-5.2c0.2,1.4,1.1,2.1,2.3,2.1
							c0.7,0,1.3-0.2,1.9-0.6l0.8,1.4c-0.8,0.6-1.9,0.9-2.9,0.9C93.8,17.2,92,15.6,92,12.8z M97.6,12c0-1.1-0.5-1.9-1.6-1.9
							c-0.9,0-1.7,0.6-1.8,1.9H97.6z"/>
						<path class="st4" d="M101.3,8.6h1.8l0.1,1.5h0.1c0.6-1.1,1.5-1.7,2.4-1.7c0.5,0,0.7,0.1,1,0.2l-0.4,1.9
							c-0.3-0.1-0.5-0.1-0.9-0.1c-0.7,0-1.5,0.4-1.9,1.7v5h-2.2V8.6z"/>
						<path class="st4" d="M107.6,6.1c0-0.7,0.6-1.2,1.3-1.2c0.8,0,1.3,0.5,1.3,1.2c0,0.7-0.6,1.2-1.3,1.2
							C108.1,7.2,107.6,6.7,107.6,6.1z M107.8,8.6h2.2V17h-2.2V8.6z"/>
						<path class="st4" d="M111.8,12.8c0-2.8,1.9-4.4,4-4.4s4,1.6,4,4.4c0,2.8-1.9,4.4-4,4.4S111.8,15.6,111.8,12.8z M117.7,12.8
							c0-1.6-0.6-2.6-1.8-2.6s-1.8,1-1.8,2.6c0,1.6,0.6,2.6,1.8,2.6S117.7,14.4,117.7,12.8z"/>
						<path class="st4" d="M121.7,13.9V8.6h2.2v5c0,1.3,0.4,1.8,1.2,1.8c0.7,0,1.1-0.3,1.7-1V8.6h2.2V17h-1.8l-0.2-1.2h-0.1
							c-0.7,0.9-1.5,1.4-2.7,1.4C122.4,17.2,121.7,16,121.7,13.9z"/>
						<path class="st4" d="M130.5,16l1-1.4c0.8,0.6,1.5,0.9,2.2,0.9c0.8,0,1.2-0.4,1.2-0.9c0-0.6-0.9-0.9-1.8-1.3
							c-1.1-0.4-2.3-1-2.3-2.4c0-1.5,1.2-2.6,3.1-2.6c1.2,0,2.2,0.5,2.9,1l-1,1.3c-0.6-0.4-1.2-0.7-1.8-0.7c-0.8,0-1.1,0.3-1.1,0.8
							c0,0.6,0.8,0.8,1.7,1.2c1.1,0.4,2.3,1,2.3,2.5c0,1.5-1.2,2.7-3.3,2.7C132.6,17.2,131.3,16.7,130.5,16z"/>
						<path class="st4" d="M147.5,14.2h-3.6l-0.8,2.8h-2.2l3.6-11.1h2.6l3.6,11.1h-2.3L147.5,14.2z M147,12.4l-0.3-1.2
							c-0.3-1.2-0.6-2.4-1-3.6h-0.1c-0.3,1.2-0.6,2.5-0.9,3.6l-0.3,1.2H147z"/>
						<path class="st4" d="M151.3,12.8c0-2.7,1.7-4.4,3.5-4.4c0.9,0,1.5,0.4,2.1,0.9L156.8,8V5h2.2v12h-1.8l-0.2-0.9h0
							c-0.6,0.6-1.5,1.1-2.3,1.1C152.6,17.2,151.3,15.6,151.3,12.8z M156.8,14.5v-3.7c-0.5-0.5-1-0.6-1.6-0.6
							c-0.9,0-1.7,0.9-1.7,2.6c0,1.7,0.6,2.6,1.7,2.6C155.9,15.4,156.4,15.2,156.8,14.5z"/>
						<path class="st4" d="M160.4,8.6h2.2l1.2,4.2c0.2,0.8,0.5,1.7,0.7,2.5h0.1c0.2-0.9,0.5-1.7,0.7-2.5l1.2-4.2h2.1l-2.8,8.4h-2.6
							L160.4,8.6z"/>
						<path class="st4" d="M169.4,12.8c0-2.7,1.9-4.4,3.9-4.4c2.3,0,3.5,1.7,3.5,4c0,0.4,0,0.8-0.1,1h-5.2c0.2,1.4,1.1,2.1,2.3,2.1
							c0.7,0,1.3-0.2,1.9-0.6l0.8,1.4c-0.8,0.6-1.9,0.9-2.9,0.9C171.2,17.2,169.4,15.6,169.4,12.8z M174.9,12c0-1.1-0.5-1.9-1.6-1.9
							c-0.9,0-1.7,0.6-1.8,1.9H174.9z"/>
						<path class="st4" d="M178.6,8.6h1.8l0.2,1.5h0.1c0.6-1.1,1.5-1.7,2.4-1.7c0.5,0,0.7,0.1,1,0.2l-0.4,1.9
							c-0.3-0.1-0.5-0.1-0.9-0.1c-0.7,0-1.5,0.4-1.9,1.7v5h-2.2V8.6z"/>
						<path class="st4" d="M184.3,16l1-1.4c0.8,0.6,1.5,0.9,2.2,0.9c0.8,0,1.2-0.4,1.2-0.9c0-0.6-0.9-0.9-1.8-1.3
							c-1.1-0.4-2.3-1-2.3-2.4c0-1.5,1.2-2.6,3.1-2.6c1.2,0,2.2,0.5,2.9,1l-1,1.3c-0.6-0.4-1.2-0.7-1.8-0.7c-0.8,0-1.1,0.3-1.1,0.8
							c0,0.6,0.8,0.8,1.7,1.2c1.1,0.4,2.3,1,2.3,2.5c0,1.5-1.2,2.7-3.3,2.7C186.3,17.2,185.1,16.7,184.3,16z"/>
						<path class="st4" d="M192,12.8c0-2.7,1.9-4.4,3.9-4.4c2.3,0,3.5,1.7,3.5,4c0,0.4,0,0.8-0.1,1h-5.2c0.2,1.4,1.1,2.1,2.3,2.1
							c0.7,0,1.3-0.2,1.9-0.6l0.8,1.4c-0.8,0.6-1.9,0.9-2.9,0.9C193.8,17.2,192,15.6,192,12.8z M197.5,12c0-1.1-0.5-1.9-1.6-1.9
							c-0.9,0-1.7,0.6-1.8,1.9H197.5z"/>
						<path class="st4" d="M204.8,5.9h6.8v1.8H207v2.6h3.9v1.9H207v3h4.8V17h-7V5.9z"/>
						<path class="st4" d="M212.7,8.6h2.2l1.2,4.2c0.2,0.8,0.5,1.7,0.7,2.5h0.1c0.2-0.9,0.5-1.7,0.7-2.5l1.2-4.2h2.1l-2.8,8.4h-2.6
							L212.7,8.6z"/>
						<path class="st4" d="M221.6,12.8c0-2.7,1.9-4.4,3.9-4.4c2.3,0,3.5,1.7,3.5,4c0,0.4,0,0.8-0.1,1h-5.2c0.2,1.4,1.1,2.1,2.3,2.1
							c0.7,0,1.3-0.2,1.9-0.6l0.8,1.4c-0.8,0.6-1.9,0.9-2.9,0.9C223.5,17.2,221.6,15.6,221.6,12.8z M227.2,12c0-1.1-0.5-1.9-1.6-1.9
							c-0.9,0-1.7,0.6-1.8,1.9H227.2z"/>
						<path class="st4" d="M230.9,8.6h1.8l0.2,1.1h0.1c0.7-0.7,1.6-1.3,2.7-1.3c1.8,0,2.6,1.3,2.6,3.4V17H236v-5
							c0-1.3-0.4-1.8-1.2-1.8c-0.7,0-1.1,0.3-1.8,0.9V17h-2.2V8.6z"/>
						<path class="st4" d="M240.8,14.1v-3.7h-1.2V8.7l1.3-0.1l0.3-2.2h1.8v2.2h2.1v1.7H243v3.7c0,1,0.4,1.4,1.1,1.4
							c0.3,0,0.6-0.1,0.8-0.2l0.4,1.6c-0.5,0.2-1,0.3-1.8,0.3C241.6,17.2,240.8,16,240.8,14.1z"/>
						<path class="st4" d="M245.8,16l1-1.4c0.8,0.6,1.5,0.9,2.2,0.9c0.8,0,1.2-0.4,1.2-0.9c0-0.6-0.9-0.9-1.8-1.3
							c-1.1-0.4-2.3-1-2.3-2.4c0-1.5,1.2-2.6,3.1-2.6c1.2,0,2.2,0.5,2.9,1l-1,1.3c-0.6-0.4-1.2-0.7-1.8-0.7c-0.8,0-1.1,0.3-1.1,0.8
							c0,0.6,0.8,0.8,1.7,1.2c1.1,0.4,2.3,1,2.3,2.5c0,1.5-1.2,2.7-3.3,2.7C247.9,17.2,246.7,16.7,245.8,16z"/>
					</g>
				</g>
			</g>
			<g class="st1">
				<path d="M48.2,7.7h2.1V21h-2.1V7.7z"/>
				<path d="M53.5,11.1h1.7l0.2,1.4h0.1c0.9-0.9,1.9-1.6,3.3-1.6c2.1,0,3,1.4,3,3.9V21h-2.1v-6c0-1.7-0.5-2.4-1.7-2.4
					c-0.9,0-1.5,0.5-2.4,1.3v7h-2.1V11.1z"/>
				<path d="M64.1,16.1c0-3.3,2.3-5.2,4.9-5.2c1.3,0,2.2,0.5,2.9,1.1l-1,1.4c-0.5-0.5-1.1-0.8-1.8-0.8c-1.7,0-2.8,1.4-2.8,3.5
					c0,2.1,1.1,3.5,2.8,3.5c0.8,0,1.6-0.4,2.2-0.9L72,20c-0.9,0.8-2.1,1.2-3.2,1.2C66.1,21.2,64.1,19.3,64.1,16.1z"/>
				<path d="M73.8,8c0-0.7,0.6-1.2,1.3-1.2c0.8,0,1.3,0.5,1.3,1.2c0,0.7-0.6,1.2-1.3,1.2C74.3,9.2,73.8,8.7,73.8,8z M74.1,11.1h2.1
					V21h-2.1V11.1z"/>
				<path d="M78.6,16.1c0-3.2,2-5.2,4.2-5.2c1.1,0,1.9,0.4,2.7,1.1l-0.1-1.6V6.6h2.1V21h-1.7l-0.2-1.1h-0.1
					c-0.7,0.8-1.8,1.4-2.9,1.4C80.2,21.2,78.6,19.3,78.6,16.1z M85.4,18.3v-4.8c-0.7-0.7-1.4-0.9-2.2-0.9c-1.4,0-2.5,1.3-2.5,3.5
					c0,2.3,0.9,3.5,2.4,3.5C84,19.5,84.7,19.1,85.4,18.3z"/>
				<path d="M89.9,16.1c0-3.2,2.2-5.2,4.5-5.2c2.6,0,4,1.9,4,4.7c0,0.4,0,0.8-0.1,1h-6.4c0.2,1.9,1.4,3,3.1,3c0.9,0,1.6-0.3,2.4-0.7
					l0.7,1.3c-0.9,0.6-2.1,1-3.3,1C92,21.2,89.9,19.3,89.9,16.1z M96.6,15.2c0-1.7-0.8-2.7-2.2-2.7c-1.2,0-2.3,1-2.5,2.7H96.6z"/>
				<path d="M100.7,11.1h1.7l0.2,1.4h0.1c0.9-0.9,1.9-1.6,3.3-1.6c2.1,0,3,1.4,3,3.9V21h-2.1v-6c0-1.7-0.5-2.4-1.7-2.4
					c-0.9,0-1.5,0.5-2.4,1.3v7h-2.1V11.1z"/>
				<path d="M111.3,16.1c0-3.3,2.3-5.2,4.9-5.2c1.3,0,2.2,0.5,2.9,1.1l-1,1.4c-0.5-0.5-1.1-0.8-1.8-0.8c-1.7,0-2.8,1.4-2.8,3.5
					c0,2.1,1.1,3.5,2.8,3.5c0.8,0,1.6-0.4,2.2-0.9l0.8,1.4c-0.9,0.8-2.1,1.2-3.2,1.2C113.3,21.2,111.3,19.3,111.3,16.1z"/>
				<path d="M120.1,16.1c0-3.2,2.2-5.2,4.5-5.2c2.6,0,4,1.9,4,4.7c0,0.4,0,0.8-0.1,1h-6.4c0.2,1.9,1.4,3,3.1,3
					c0.9,0,1.6-0.3,2.4-0.7l0.7,1.3c-0.9,0.6-2.1,1-3.3,1C122.3,21.2,120.1,19.3,120.1,16.1z M126.9,15.2c0-1.7-0.8-2.7-2.2-2.7
					c-1.2,0-2.3,1-2.5,2.7H126.9z"/>
				<path d="M134.3,16.1c0-3.3,2.2-5.2,4.7-5.2c2.4,0,4.7,1.9,4.7,5.2c0,3.3-2.2,5.2-4.7,5.2C136.5,21.2,134.3,19.3,134.3,16.1z
					 M141.5,16.1c0-2.1-1-3.5-2.5-3.5c-1.5,0-2.5,1.4-2.5,3.5c0,2.1,1,3.5,2.5,3.5C140.6,19.5,141.5,18.2,141.5,16.1z"/>
				<path d="M150.8,8.3c-0.4-0.2-0.7-0.3-1.1-0.3c-0.9,0-1.3,0.6-1.3,1.8v1.3h2v1.7h-2V21h-2.1v-8.2H145v-1.5l1.4-0.1V9.9
					c0-2,0.9-3.4,3.1-3.4c0.7,0,1.3,0.1,1.7,0.3L150.8,8.3z"/>
				<path d="M155.2,19.9l1-1.3c0.9,0.7,1.7,1.1,2.8,1.1c1.2,0,1.7-0.6,1.7-1.3c0-0.9-1.1-1.3-2.2-1.7c-1.3-0.5-2.8-1.2-2.8-2.9
					c0-1.7,1.3-2.9,3.5-2.9c1.3,0,2.4,0.5,3.2,1.2l-1,1.3c-0.7-0.5-1.4-0.9-2.2-0.9c-1.1,0-1.6,0.5-1.6,1.2c0,0.8,1,1.2,2.1,1.6
					c1.4,0.5,2.9,1.1,2.9,3c0,1.7-1.3,3-3.8,3C157.6,21.2,156.2,20.7,155.2,19.9z"/>
				<path d="M164.2,16.1c0-3.2,2.2-5.2,4.5-5.2c2.6,0,4,1.9,4,4.7c0,0.4,0,0.8-0.1,1h-6.4c0.2,1.9,1.4,3,3.1,3
					c0.9,0,1.6-0.3,2.4-0.7l0.7,1.3c-0.9,0.6-2.1,1-3.3,1C166.4,21.2,164.2,19.3,164.2,16.1z M171,15.2c0-1.7-0.8-2.7-2.2-2.7
					c-1.2,0-2.3,1-2.5,2.7H171z"/>
				<path d="M175.1,11.1h1.7l0.2,1.8h0.1c0.7-1.3,1.7-2,2.8-2c0.5,0,0.8,0.1,1.1,0.2l-0.4,1.8c-0.3-0.1-0.6-0.2-1-0.2
					c-0.8,0-1.8,0.6-2.4,2.1V21h-2.1V11.1z"/>
				<path d="M182.2,8c0-0.7,0.6-1.2,1.3-1.2c0.8,0,1.3,0.5,1.3,1.2c0,0.7-0.6,1.2-1.3,1.2C182.7,9.2,182.2,8.7,182.2,8z M182.5,11.1
					h2.1V21h-2.1V11.1z"/>
				<path d="M186.9,16.1c0-3.3,2.2-5.2,4.7-5.2c2.4,0,4.7,1.9,4.7,5.2c0,3.3-2.2,5.2-4.7,5.2C189.1,21.2,186.9,19.3,186.9,16.1z
					 M194.1,16.1c0-2.1-1-3.5-2.5-3.5c-1.5,0-2.5,1.4-2.5,3.5c0,2.1,1,3.5,2.5,3.5C193.2,19.5,194.1,18.2,194.1,16.1z"/>
				<path d="M198.6,17.3v-6.2h2.1v6c0,1.7,0.5,2.4,1.7,2.4c0.9,0,1.5-0.4,2.4-1.5v-6.9h2.1V21H205l-0.2-1.5h-0.1
					c-0.9,1-1.9,1.7-3.2,1.7C199.5,21.2,198.6,19.8,198.6,17.3z"/>
				<path d="M208.8,19.9l1-1.3c0.9,0.7,1.7,1.1,2.8,1.1c1.2,0,1.7-0.6,1.7-1.3c0-0.9-1.1-1.3-2.2-1.7c-1.3-0.5-2.8-1.2-2.8-2.9
					c0-1.7,1.3-2.9,3.5-2.9c1.3,0,2.4,0.5,3.2,1.2l-1,1.3c-0.7-0.5-1.4-0.9-2.2-0.9c-1.1,0-1.6,0.5-1.6,1.2c0,0.8,1,1.2,2.1,1.6
					c1.4,0.5,2.9,1.1,2.9,3c0,1.7-1.3,3-3.8,3C211.2,21.2,209.8,20.7,208.8,19.9z"/>
				<path d="M222,18.4c0-2.1,1.8-3.2,5.9-3.7c0-1.2-0.4-2.2-1.9-2.2c-1,0-2,0.5-2.9,1l-0.8-1.4c1-0.6,2.4-1.3,4-1.3
					c2.5,0,3.6,1.6,3.6,4.2v6h-1.7l-0.2-1.1H228c-0.9,0.8-2,1.4-3.2,1.4C223.2,21.2,222,20.1,222,18.4z M227.9,18.4V16
					c-2.9,0.4-3.9,1.1-3.9,2.2c0,1,0.7,1.4,1.5,1.4C226.4,19.6,227.1,19.2,227.9,18.4z"/>
				<path d="M232.2,16.1c0-3.2,2-5.2,4.2-5.2c1.1,0,1.9,0.4,2.7,1.1l-0.1-1.6V6.6h2.1V21h-1.7l-0.2-1.1h-0.1
					c-0.7,0.8-1.8,1.4-2.9,1.4C233.8,21.2,232.2,19.3,232.2,16.1z M239,18.3v-4.8c-0.7-0.7-1.4-0.9-2.2-0.9c-1.4,0-2.5,1.3-2.5,3.5
					c0,2.3,0.9,3.5,2.4,3.5C237.6,19.5,238.3,19.1,239,18.3z"/>
				<path d="M242.9,11.1h2.1l1.7,5.3c0.3,1,0.6,2,0.9,3h0.1c0.3-1,0.6-2,0.9-3l1.7-5.3h2l-3.4,9.9h-2.4L242.9,11.1z"/>
				<path d="M253.2,16.1c0-3.2,2.2-5.2,4.5-5.2c2.6,0,4,1.9,4,4.7c0,0.4,0,0.8-0.1,1h-6.4c0.2,1.9,1.4,3,3.1,3
					c0.9,0,1.6-0.3,2.4-0.7l0.7,1.3c-0.9,0.6-2.1,1-3.3,1C255.4,21.2,253.2,19.3,253.2,16.1z M260,15.2c0-1.7-0.8-2.7-2.2-2.7
					c-1.2,0-2.3,1-2.5,2.7H260z"/>
				<path d="M264.1,11.1h1.7l0.2,1.8h0.1c0.7-1.3,1.7-2,2.8-2c0.5,0,0.8,0.1,1.1,0.2l-0.4,1.8c-0.3-0.1-0.6-0.2-1-0.2
					c-0.8,0-1.8,0.6-2.4,2.1V21h-2.1V11.1z"/>
				<path d="M270.3,19.9l1-1.3c0.9,0.7,1.7,1.1,2.8,1.1c1.2,0,1.7-0.6,1.7-1.3c0-0.9-1.1-1.3-2.2-1.7c-1.3-0.5-2.8-1.2-2.8-2.9
					c0-1.7,1.3-2.9,3.5-2.9c1.3,0,2.4,0.5,3.2,1.2l-1,1.3c-0.7-0.5-1.4-0.9-2.2-0.9c-1.1,0-1.6,0.5-1.6,1.2c0,0.8,1,1.2,2.1,1.6
					c1.4,0.5,2.9,1.1,2.9,3c0,1.7-1.3,3-3.8,3C272.7,21.2,271.3,20.7,270.3,19.9z"/>
				<path d="M279.3,16.1c0-3.2,2.2-5.2,4.5-5.2c2.6,0,4,1.9,4,4.7c0,0.4,0,0.8-0.1,1h-6.4c0.2,1.9,1.4,3,3.1,3
					c0.9,0,1.6-0.3,2.4-0.7l0.7,1.3c-0.9,0.6-2.1,1-3.3,1C281.4,21.2,279.3,19.3,279.3,16.1z M286.1,15.2c0-1.7-0.8-2.7-2.2-2.7
					c-1.2,0-2.3,1-2.5,2.7H286.1z"/>
			</g>
			<text transform="matrix(1 0 0 1 288.5917 21)" class="st6 st7"> </text>
			<g class="st1">
				<path d="M77.1,43.1c0-3.2,2.2-5.2,4.5-5.2c2.6,0,4,1.9,4,4.7c0,0.4,0,0.8-0.1,1h-6.4c0.2,1.9,1.4,3,3.1,3c0.9,0,1.6-0.3,2.4-0.7
					l0.7,1.3c-0.9,0.6-2.1,1-3.3,1C79.2,48.2,77.1,46.3,77.1,43.1z M83.9,42.2c0-1.7-0.8-2.7-2.2-2.7c-1.2,0-2.3,1-2.5,2.7H83.9z"/>
				<path d="M86.6,38.1h2.1l1.7,5.3c0.3,1,0.6,2,0.9,3h0.1c0.3-1,0.6-2,0.9-3l1.7-5.3h2L92.5,48h-2.4L86.6,38.1z"/>
				<path d="M97,43.1c0-3.2,2.2-5.2,4.5-5.2c2.6,0,4,1.9,4,4.7c0,0.4,0,0.8-0.1,1H99c0.2,1.9,1.4,3,3.1,3c0.9,0,1.6-0.3,2.4-0.7
					l0.7,1.3c-0.9,0.6-2.1,1-3.3,1C99.1,48.2,97,46.3,97,43.1z M103.7,42.2c0-1.7-0.8-2.7-2.2-2.7c-1.2,0-2.3,1-2.5,2.7H103.7z"/>
				<path d="M107.8,38.1h1.7l0.2,1.4h0.1c0.9-0.9,1.9-1.6,3.3-1.6c2.1,0,3,1.4,3,3.9V48H114v-6c0-1.7-0.5-2.4-1.7-2.4
					c-0.9,0-1.5,0.5-2.4,1.3v7h-2.1V38.1z"/>
				<path d="M119.4,44.8v-5h-1.4v-1.5l1.5-0.1l0.2-2.7h1.7v2.7h2.6v1.7h-2.6v5c0,1.2,0.4,1.8,1.4,1.8c0.3,0,0.8-0.1,1.1-0.2l0.4,1.5
					c-0.6,0.2-1.2,0.4-1.9,0.4C120.2,48.2,119.4,46.8,119.4,44.8z"/>
				<path d="M124.9,46.9l1-1.3c0.9,0.7,1.7,1.1,2.8,1.1c1.2,0,1.7-0.6,1.7-1.3c0-0.9-1.1-1.3-2.2-1.7c-1.3-0.5-2.8-1.2-2.8-2.9
					c0-1.7,1.3-2.9,3.5-2.9c1.3,0,2.4,0.5,3.2,1.2l-1,1.3c-0.7-0.5-1.4-0.9-2.2-0.9c-1.1,0-1.6,0.5-1.6,1.2c0,0.8,1,1.2,2.1,1.6
					c1.4,0.5,2.9,1.1,2.9,3c0,1.7-1.3,3-3.8,3C127.3,48.2,125.9,47.7,124.9,46.9z"/>
				<path d="M138.1,45.4c0-2.1,1.8-3.2,5.9-3.7c0-1.2-0.4-2.2-1.9-2.2c-1,0-2,0.5-2.9,1l-0.8-1.4c1-0.6,2.4-1.3,4-1.3
					c2.5,0,3.6,1.6,3.6,4.2v6h-1.7l-0.2-1.1h-0.1c-0.9,0.8-2,1.4-3.2,1.4C139.3,48.2,138.1,47.1,138.1,45.4z M144,45.4V43
					c-2.9,0.4-3.9,1.1-3.9,2.2c0,1,0.7,1.4,1.5,1.4C142.5,46.6,143.2,46.2,144,45.4z"/>
				<path d="M149,38.1h1.7l0.2,1.4h0.1c0.9-0.9,1.9-1.6,3.3-1.6c2.1,0,3,1.4,3,3.9V48h-2.1v-6c0-1.7-0.5-2.4-1.7-2.4
					c-0.9,0-1.5,0.5-2.4,1.3v7H149V38.1z"/>
				<path d="M159.6,43.1c0-3.2,2-5.2,4.2-5.2c1.1,0,1.9,0.4,2.7,1.1l-0.1-1.6v-3.7h2.1V48h-1.7l-0.2-1.1h-0.1
					c-0.7,0.8-1.8,1.4-2.9,1.4C161.2,48.2,159.6,46.3,159.6,43.1z M166.4,45.3v-4.8c-0.7-0.7-1.4-0.9-2.2-0.9
					c-1.4,0-2.5,1.3-2.5,3.5c0,2.3,0.9,3.5,2.4,3.5C165,46.5,165.7,46.1,166.4,45.3z"/>
				<path d="M175,43.1c0-3.3,2.2-5.2,4.7-5.2c2.4,0,4.7,1.9,4.7,5.2c0,3.3-2.2,5.2-4.7,5.2C177.2,48.2,175,46.3,175,43.1z
					 M182.2,43.1c0-2.1-1-3.5-2.5-3.5c-1.5,0-2.5,1.4-2.5,3.5c0,2.1,1,3.5,2.5,3.5C181.2,46.5,182.2,45.2,182.2,43.1z"/>
				<path d="M186.6,44.3v-6.2h2.1v6c0,1.7,0.5,2.4,1.7,2.4c0.9,0,1.5-0.4,2.4-1.5v-6.9h2.1V48h-1.7l-0.2-1.5h-0.1
					c-0.9,1-1.9,1.7-3.2,1.7C187.5,48.2,186.6,46.8,186.6,44.3z"/>
				<path d="M198.2,44.8v-5h-1.4v-1.5l1.5-0.1l0.2-2.7h1.7v2.7h2.6v1.7h-2.6v5c0,1.2,0.4,1.8,1.4,1.8c0.3,0,0.8-0.1,1.1-0.2l0.4,1.5
					c-0.6,0.2-1.2,0.4-1.9,0.4C199,48.2,198.2,46.8,198.2,44.8z"/>
				<path d="M204,43.1c0-3.3,2.3-5.2,4.9-5.2c1.3,0,2.2,0.5,2.9,1.1l-1,1.4c-0.5-0.5-1.1-0.8-1.8-0.8c-1.7,0-2.8,1.4-2.8,3.5
					c0,2.1,1.1,3.5,2.8,3.5c0.8,0,1.6-0.4,2.2-0.9l0.8,1.4c-0.9,0.8-2.1,1.2-3.2,1.2C206,48.2,204,46.3,204,43.1z"/>
				<path d="M212.8,43.1c0-3.3,2.2-5.2,4.7-5.2c2.4,0,4.7,1.9,4.7,5.2c0,3.3-2.2,5.2-4.7,5.2C215,48.2,212.8,46.3,212.8,43.1z
					 M220,43.1c0-2.1-1-3.5-2.5-3.5c-1.5,0-2.5,1.4-2.5,3.5c0,2.1,1,3.5,2.5,3.5C219.1,46.5,220,45.2,220,43.1z"/>
				<path d="M224.6,38.1h1.7l0.2,1.4h0.1c0.8-0.9,1.8-1.6,3.1-1.6c1.5,0,2.3,0.7,2.7,1.8c1-1,2-1.8,3.2-1.8c2.1,0,3,1.4,3,3.9V48
					h-2.1v-6c0-1.7-0.5-2.4-1.7-2.4c-0.7,0-1.4,0.5-2.2,1.3v7h-2.1v-6c0-1.7-0.5-2.4-1.7-2.4c-0.7,0-1.4,0.5-2.2,1.3v7h-2.1V38.1z"
					/>
				<path d="M240.8,43.1c0-3.2,2.2-5.2,4.5-5.2c2.6,0,4,1.9,4,4.7c0,0.4,0,0.8-0.1,1h-6.4c0.2,1.9,1.4,3,3.1,3
					c0.9,0,1.6-0.3,2.4-0.7l0.7,1.3c-0.9,0.6-2.1,1-3.3,1C243,48.2,240.8,46.3,240.8,43.1z M247.6,42.2c0-1.7-0.8-2.7-2.2-2.7
					c-1.2,0-2.3,1-2.5,2.7H247.6z"/>
				<path d="M250.7,46.9l1-1.3c0.9,0.7,1.7,1.1,2.8,1.1c1.2,0,1.7-0.6,1.7-1.3c0-0.9-1.1-1.3-2.2-1.7c-1.3-0.5-2.8-1.2-2.8-2.9
					c0-1.7,1.3-2.9,3.5-2.9c1.3,0,2.4,0.5,3.2,1.2l-1,1.3c-0.7-0.5-1.4-0.9-2.2-0.9c-1.1,0-1.6,0.5-1.6,1.2c0,0.8,1,1.2,2.1,1.6
					c1.4,0.5,2.9,1.1,2.9,3c0,1.7-1.3,3-3.8,3C253,48.2,251.6,47.7,250.7,46.9z"/>
			</g>
		</g>
	</g>
</g>
</svg>
