<?xml version="1.0" encoding="utf-8"?>
<!-- Generator: Adobe Illustrator 23.0.1, SVG Export Plug-In . SVG Version: 6.00 Build 0)  -->
<svg version="1.1" id="Layer_1" xmlns="http://www.w3.org/2000/svg" xmlns:xlink="http://www.w3.org/1999/xlink" x="0px" y="0px"
	 viewBox="0 0 334 582" style="enable-background:new 0 0 334 582;" xml:space="preserve">
<style type="text/css">
	.st0{fill-rule:evenodd;clip-rule:evenodd;}
	.st1{enable-background:new    ;}
	.st2{fill:#FFFFFF;}
	.st3{font-family:'NotoSansKR-Bold-KSCpc-EUC-H';}
	.st4{font-size:15px;}
	.st5{font-family:'NotoSansKR-Medium-KSCpc-EUC-H';}
	.st6{font-size:18px;}
</style>
<title>effe_img2_mobile</title>
<desc>Created with Sketch.</desc>
<g id="Page-1">
	<g transform="translate(-796.000000, -6251.000000)">
		<g id="effe_img2_mobile" transform="translate(796.000000, 6245.000000)">
			<g id="table1" transform="translate(0.000000, 111.000000)">
				<g id="cell1">
					<g>
						<g id="head">
							<path id="bg" class="st0" d="M8,0h318c4.4,0,8,3.6,8,8v34c0,4.4-3.6,8-8,8H8c-4.4,0-8-3.6-8-8V8C0,3.6,3.6,0,8,0z"/>
							<g class="st1">
								<path class="st2" d="M95.9,19.9h6.8v1.8h-4.6v2.6h3.9v1.9h-3.9v3h4.8V31h-7V19.9z"/>
								<path class="st2" d="M110.6,21.9c0-1.8,0.8-3.1,2.9-3.1c0.7,0,1.2,0.2,1.6,0.3l-0.4,1.6c-0.3-0.1-0.6-0.2-0.9-0.2
									c-0.7,0-1,0.4-1,1.3v0.7h1.6v1.7h-1.6V31h-2.2v-6.7h-3V31h-2.2v-6.7h-1.1v-1.6l1.1-0.1V22c0-1.7,0.9-3,3-3
									c0.7,0,1.3,0.2,1.7,0.3l-0.4,1.6c-0.3-0.1-0.6-0.2-1-0.2c-0.6,0-1.1,0.4-1.1,1.3v0.6h3V21.9z M115.5,20.1
									c0-0.7,0.6-1.2,1.3-1.2c0.8,0,1.3,0.5,1.3,1.2c0,0.7-0.6,1.2-1.3,1.2C116.1,21.2,115.5,20.7,115.5,20.1z M115.8,22.6h2.2V31
									h-2.2V22.6z"/>
								<path class="st2" d="M119.8,26.8c0-2.8,2-4.4,4.3-4.4c1,0,1.8,0.4,2.4,0.9l-1,1.4c-0.4-0.4-0.8-0.6-1.3-0.6
									c-1.3,0-2.1,1-2.1,2.6c0,1.6,0.9,2.6,2.1,2.6c0.6,0,1.2-0.3,1.6-0.7l0.9,1.5c-0.8,0.7-1.8,1-2.7,1
									C121.6,31.2,119.8,29.6,119.8,26.8z"/>
								<path class="st2" d="M127.6,28.7c0-1.8,1.5-2.7,4.8-3.1c0-0.8-0.4-1.5-1.4-1.5c-0.8,0-1.5,0.3-2.3,0.8l-0.8-1.5
									c1-0.6,2.2-1.1,3.5-1.1c2.1,0,3.2,1.3,3.2,3.7V31h-1.8l-0.2-0.9h0c-0.7,0.6-1.6,1.1-2.5,1.1
									C128.6,31.2,127.6,30.1,127.6,28.7z M132.5,28.7V27c-2,0.3-2.7,0.8-2.7,1.6c0,0.7,0.5,0.9,1.1,0.9
									C131.5,29.5,131.9,29.2,132.5,28.7z"/>
								<path class="st2" d="M136.4,26.8c0-2.8,2-4.4,4.3-4.4c1,0,1.8,0.4,2.4,0.9l-1,1.4c-0.4-0.4-0.8-0.6-1.3-0.6
									c-1.3,0-2.1,1-2.1,2.6c0,1.6,0.9,2.6,2.1,2.6c0.6,0,1.2-0.3,1.6-0.7l0.9,1.5c-0.8,0.7-1.8,1-2.7,1
									C138.2,31.2,136.4,29.6,136.4,26.8z"/>
								<path class="st2" d="M144.4,34.2l0.4-1.7c0.1,0,0.4,0.1,0.6,0.1c0.9,0,1.3-0.5,1.6-1.3l0.1-0.5l-3.3-8.2h2.2l1.3,3.9
									c0.3,0.8,0.5,1.6,0.7,2.4h0.1c0.2-0.8,0.4-1.6,0.6-2.4l1.2-3.9h2.1l-3,8.7c-0.7,2-1.6,3.1-3.5,3.1
									C145.1,34.4,144.8,34.3,144.4,34.2z"/>
								<path class="st2" d="M157.1,19.9h3.6c2.5,0,4.3,0.9,4.3,3.5c0,2.5-1.9,3.7-4.3,3.7h-1.5V31h-2.2V19.9z M160.6,25.3
									c1.5,0,2.3-0.6,2.3-1.9c0-1.3-0.8-1.7-2.3-1.7h-1.3v3.6H160.6z"/>
								<path class="st2" d="M165.8,28.7c0-1.8,1.5-2.7,4.8-3.1c0-0.8-0.4-1.5-1.4-1.5c-0.8,0-1.5,0.3-2.3,0.8l-0.8-1.5
									c1-0.6,2.2-1.1,3.5-1.1c2.1,0,3.2,1.3,3.2,3.7V31h-1.8l-0.2-0.9h0c-0.7,0.6-1.6,1.1-2.5,1.1
									C166.8,31.2,165.8,30.1,165.8,28.7z M170.7,28.7V27c-2,0.3-2.7,0.8-2.7,1.6c0,0.7,0.5,0.9,1.1,0.9
									C169.7,29.5,170.1,29.2,170.7,28.7z"/>
								<path class="st2" d="M175.1,22.6h1.8l0.1,1.5h0.1c0.6-1.1,1.5-1.7,2.4-1.7c0.5,0,0.7,0.1,1,0.2l-0.4,1.9
									c-0.3-0.1-0.5-0.1-0.9-0.1c-0.7,0-1.5,0.4-1.9,1.7v5h-2.2V22.6z"/>
								<path class="st2" d="M180.8,28.7c0-1.8,1.5-2.7,4.8-3.1c0-0.8-0.4-1.5-1.4-1.5c-0.8,0-1.5,0.3-2.3,0.8l-0.8-1.5
									c1-0.6,2.2-1.1,3.5-1.1c2.1,0,3.2,1.3,3.2,3.7V31H186l-0.2-0.9h0c-0.7,0.6-1.6,1.1-2.5,1.1
									C181.8,31.2,180.8,30.1,180.8,28.7z M185.6,28.7V27c-2,0.3-2.7,0.8-2.7,1.6c0,0.7,0.5,0.9,1.1,0.9
									C184.6,29.5,185.1,29.2,185.6,28.7z"/>
								<path class="st2" d="M190.1,22.6h1.8l0.1,1.1h0.1c0.7-0.7,1.5-1.3,2.6-1.3c1.2,0,1.9,0.5,2.3,1.5c0.8-0.8,1.6-1.5,2.7-1.5
									c1.8,0,2.6,1.3,2.6,3.4V31H200v-5c0-1.3-0.4-1.8-1.2-1.8c-0.5,0-1,0.3-1.6,0.9V31H195v-5c0-1.3-0.4-1.8-1.2-1.8
									c-0.5,0-1,0.3-1.6,0.9V31h-2.2V22.6z"/>
								<path class="st2" d="M204,26.8c0-2.7,1.9-4.4,3.9-4.4c2.3,0,3.5,1.7,3.5,4c0,0.4,0,0.8-0.1,1h-5.2c0.2,1.4,1.1,2.1,2.3,2.1
									c0.7,0,1.3-0.2,1.9-0.6l0.8,1.4c-0.8,0.6-1.9,0.9-2.9,0.9C205.8,31.2,204,29.6,204,26.8z M209.5,26c0-1.1-0.5-1.9-1.6-1.9
									c-0.9,0-1.7,0.6-1.8,1.9H209.5z"/>
								<path class="st2" d="M213.4,28.1v-3.7h-1.2v-1.6l1.3-0.1l0.3-2.2h1.8v2.2h2.1v1.7h-2.1v3.7c0,1,0.4,1.4,1.1,1.4
									c0.3,0,0.6-0.1,0.8-0.2l0.4,1.6c-0.5,0.2-1,0.3-1.8,0.3C214.1,31.2,213.4,30,213.4,28.1z"/>
								<path class="st2" d="M218.6,26.8c0-2.7,1.9-4.4,3.9-4.4c2.3,0,3.5,1.7,3.5,4c0,0.4,0,0.8-0.1,1h-5.2
									c0.2,1.4,1.1,2.1,2.3,2.1c0.7,0,1.3-0.2,1.9-0.6l0.8,1.4c-0.8,0.6-1.9,0.9-2.9,0.9C220.4,31.2,218.6,29.6,218.6,26.8z
									 M224.1,26c0-1.1-0.5-1.9-1.6-1.9c-0.9,0-1.7,0.6-1.8,1.9H224.1z"/>
								<path class="st2" d="M227.8,22.6h1.8l0.2,1.5h0.1c0.6-1.1,1.5-1.7,2.4-1.7c0.5,0,0.7,0.1,1,0.2l-0.4,1.9
									c-0.3-0.1-0.5-0.1-0.9-0.1c-0.7,0-1.5,0.4-1.9,1.7v5h-2.2V22.6z"/>
								<path class="st2" d="M233.4,30l1-1.4c0.8,0.6,1.5,0.9,2.2,0.9c0.8,0,1.2-0.4,1.2-0.9c0-0.6-0.9-0.9-1.8-1.3
									c-1.1-0.4-2.3-1-2.3-2.4c0-1.5,1.2-2.6,3.1-2.6c1.2,0,2.2,0.5,2.9,1l-1,1.3c-0.6-0.4-1.2-0.7-1.8-0.7
									c-0.8,0-1.1,0.3-1.1,0.8c0,0.6,0.8,0.8,1.7,1.2c1.1,0.4,2.3,1,2.3,2.5c0,1.5-1.2,2.7-3.3,2.7
									C235.5,31.2,234.2,30.7,233.4,30z"/>
							</g>
						</g>
						<g id="sub" transform="translate(107.000000, 65.000000)">
							<g class="st1">
								<path d="M1.8,7.7h2.1V21H1.8V7.7z"/>
								<path d="M7.2,11.1h1.7L9,12.5h0.1c0.9-0.9,1.9-1.6,3.3-1.6c2.1,0,3,1.4,3,3.9V21h-2.1v-6c0-1.7-0.5-2.4-1.7-2.4
									c-0.9,0-1.5,0.5-2.4,1.3v7H7.2V11.1z"/>
								<path d="M17.7,16.1c0-3.3,2.3-5.2,4.9-5.2c1.3,0,2.2,0.5,2.9,1.1l-1,1.4c-0.5-0.5-1.1-0.8-1.8-0.8c-1.7,0-2.8,1.4-2.8,3.5
									c0,2.1,1.1,3.5,2.8,3.5c0.8,0,1.6-0.4,2.2-0.9l0.8,1.4c-0.9,0.8-2.1,1.2-3.2,1.2C19.8,21.2,17.7,19.3,17.7,16.1z"/>
								<path d="M27.7,11.1h1.7l0.2,1.8h0.1c0.7-1.3,1.7-2,2.8-2c0.5,0,0.8,0.1,1.1,0.2l-0.4,1.8c-0.3-0.1-0.6-0.2-1-0.2
									c-0.8,0-1.8,0.6-2.4,2.1V21h-2.1V11.1z"/>
								<path d="M34.2,16.1c0-3.2,2.2-5.2,4.5-5.2c2.6,0,4,1.9,4,4.7c0,0.4,0,0.8-0.1,1h-6.4c0.2,1.9,1.4,3,3.1,3
									c0.9,0,1.6-0.3,2.4-0.7l0.7,1.3c-0.9,0.6-2.1,1-3.3,1C36.3,21.2,34.2,19.3,34.2,16.1z M40.9,15.2c0-1.7-0.8-2.7-2.2-2.7
									c-1.2,0-2.3,1-2.5,2.7H40.9z"/>
								<path d="M44.2,18.4c0-2.1,1.8-3.2,5.9-3.7c0-1.2-0.4-2.2-1.9-2.2c-1,0-2,0.5-2.9,1l-0.8-1.4c1-0.6,2.4-1.3,4-1.3
									c2.5,0,3.6,1.6,3.6,4.2v6h-1.7l-0.2-1.1h-0.1c-0.9,0.8-2,1.4-3.2,1.4C45.4,21.2,44.2,20.1,44.2,18.4z M50.1,18.4V16
									c-2.9,0.4-3.9,1.1-3.9,2.2c0,1,0.7,1.4,1.5,1.4C48.6,19.6,49.3,19.2,50.1,18.4z"/>
								<path d="M54.1,19.9l1-1.3c0.9,0.7,1.7,1.1,2.8,1.1c1.2,0,1.7-0.6,1.7-1.3c0-0.9-1.1-1.3-2.2-1.7c-1.3-0.5-2.8-1.2-2.8-2.9
									c0-1.7,1.3-2.9,3.5-2.9c1.3,0,2.4,0.5,3.2,1.2l-1,1.3c-0.7-0.5-1.4-0.9-2.2-0.9c-1.1,0-1.6,0.5-1.6,1.2c0,0.8,1,1.2,2.1,1.6
									c1.4,0.5,2.9,1.1,2.9,3c0,1.7-1.3,3-3.8,3C56.4,21.2,55,20.7,54.1,19.9z"/>
								<path d="M63.1,16.1c0-3.2,2.2-5.2,4.5-5.2c2.6,0,4,1.9,4,4.7c0,0.4,0,0.8-0.1,1h-6.4c0.2,1.9,1.3,3,3.1,3
									c0.9,0,1.6-0.3,2.4-0.7l0.7,1.3c-0.9,0.6-2.1,1-3.3,1C65.2,21.2,63.1,19.3,63.1,16.1z M69.8,15.2c0-1.7-0.8-2.7-2.2-2.7
									c-1.2,0-2.3,1-2.5,2.7H69.8z"/>
								<path d="M78,15.4c0-3.5,1-6.5,2.7-9.2L82,6.7c-1.5,2.6-2.3,5.6-2.3,8.6c0,3,0.7,6.1,2.3,8.6l-1.3,0.6
									C79,21.8,78,18.9,78,15.4z"/>
								<path d="M84.4,11.1h1.7l0.2,1.4h0.1c0.9-0.9,1.9-1.6,3.3-1.6c2.1,0,3,1.4,3,3.9V21h-2.1v-6c0-1.7-0.5-2.4-1.7-2.4
									c-0.9,0-1.5,0.5-2.4,1.3v7h-2.1V11.1z"/>
								<path d="M94.7,11.3h8.9v1.5h-8.9V11.3z M94.7,15.8h8.9v1.5h-8.9V15.8z"/>
								<path d="M106.4,18.6c0.5,0.6,1.3,1,2.2,1c1.6,0,3-1.3,3.1-5.1c-0.8,1-1.9,1.5-2.9,1.5c-2.2,0-3.7-1.4-3.7-4.2
									c0-2.6,1.8-4.4,3.9-4.4c2.5,0,4.6,2.1,4.6,6.4c0,5.2-2.4,7.3-4.9,7.3c-1.5,0-2.6-0.6-3.4-1.4L106.4,18.6z M111.7,12.9
									c-0.2-2.6-1.2-3.8-2.6-3.8c-1.1,0-2,1-2,2.8c0,1.7,0.8,2.7,2.1,2.7C110,14.5,110.9,14,111.7,12.9z"/>
								<path d="M115.4,24c1.5-2.6,2.3-5.6,2.3-8.6c0-3-0.7-6-2.3-8.6l1.3-0.6c1.7,2.7,2.7,5.7,2.7,9.2c0,3.6-1,6.5-2.7,9.2
									L115.4,24z"/>
							</g>
						</g>
					</g>
					<g transform="translate(0.000000, 107.000000)">
						<g>
							<path class="st0" d="M8,0h318c4.4,0,8,3.6,8,8v56c0,4.4-3.6,8-8,8H8c-4.4,0-8-3.6-8-8V8C0,3.6,3.6,0,8,0z"/>
							<g class="st1">
								<path class="st2" d="M115.4,31l-2.3-4.2h-1.5V31h-2.2V19.9h3.9c2.3,0,4.2,0.8,4.2,3.4c0,1.7-0.8,2.7-2.1,3.2l2.6,4.5H115.4z
									 M111.6,25h1.4c1.4,0,2.2-0.6,2.2-1.8c0-1.2-0.8-1.6-2.2-1.6h-1.4V25z"/>
								<path class="st2" d="M118.7,26.8c0-2.7,1.9-4.4,3.9-4.4c2.3,0,3.5,1.7,3.5,4c0,0.4,0,0.8-0.1,1h-5.2
									c0.2,1.4,1.1,2.1,2.3,2.1c0.7,0,1.3-0.2,1.9-0.6l0.8,1.4c-0.8,0.6-1.9,0.9-2.9,0.9C120.5,31.2,118.7,29.6,118.7,26.8z
									 M124.2,26c0-1.1-0.5-1.9-1.6-1.9c-0.9,0-1.7,0.6-1.8,1.9H124.2z"/>
								<path class="st2" d="M127.2,32.5c0-0.7,0.4-1.3,1.2-1.7v-0.1c-0.4-0.3-0.8-0.7-0.8-1.4c0-0.6,0.4-1.2,0.9-1.6v-0.1
									c-0.6-0.4-1.1-1.2-1.1-2.2c0-2,1.6-3,3.4-3c0.5,0,0.9,0.1,1.3,0.2h3v1.6h-1.4c0.2,0.3,0.4,0.8,0.4,1.3
									c0,1.9-1.4,2.8-3.2,2.8c-0.3,0-0.7-0.1-1.1-0.2c-0.2,0.2-0.4,0.4-0.4,0.7c0,0.5,0.3,0.7,1.3,0.7h1.4c2,0,3.1,0.6,3.1,2.1
									c0,1.7-1.8,3-4.6,3C128.7,34.6,127.2,34,127.2,32.5z M133.2,32c0-0.6-0.5-0.8-1.4-0.8h-1c-0.5,0-0.9,0-1.2-0.1
									c-0.4,0.3-0.6,0.6-0.6,1c0,0.7,0.8,1.1,2,1.1C132.3,33.2,133.2,32.7,133.2,32z M132.1,25.4c0-1-0.6-1.5-1.3-1.5
									s-1.3,0.6-1.3,1.5c0,1,0.6,1.5,1.3,1.5S132.1,26.4,132.1,25.4z"/>
								<path class="st2" d="M136.5,20.1c0-0.7,0.6-1.2,1.3-1.2c0.8,0,1.3,0.5,1.3,1.2c0,0.7-0.6,1.2-1.3,1.2
									C137,21.2,136.5,20.7,136.5,20.1z M136.7,22.6h2.2V31h-2.2V22.6z"/>
								<path class="st2" d="M140.7,26.8c0-2.8,1.9-4.4,4-4.4s4,1.6,4,4.4c0,2.8-1.9,4.4-4,4.4S140.7,29.6,140.7,26.8z M146.6,26.8
									c0-1.6-0.6-2.6-1.8-2.6s-1.8,1-1.8,2.6c0,1.6,0.6,2.6,1.8,2.6S146.6,28.4,146.6,26.8z"/>
								<path class="st2" d="M150.7,22.6h1.8l0.1,1.1h0.1c0.7-0.7,1.6-1.3,2.7-1.3c1.8,0,2.6,1.3,2.6,3.4V31h-2.2v-5
									c0-1.3-0.4-1.8-1.2-1.8c-0.7,0-1.1,0.3-1.8,0.9V31h-2.2V22.6z"/>
								<path class="st2" d="M159.8,28.7c0-1.8,1.5-2.7,4.8-3.1c0-0.8-0.4-1.5-1.4-1.5c-0.8,0-1.5,0.3-2.3,0.8l-0.8-1.5
									c1-0.6,2.2-1.1,3.5-1.1c2.1,0,3.2,1.3,3.2,3.7V31h-1.8l-0.2-0.9h0c-0.7,0.6-1.6,1.1-2.5,1.1
									C160.8,31.2,159.8,30.1,159.8,28.7z M164.7,28.7V27c-2,0.3-2.7,0.8-2.7,1.6c0,0.7,0.5,0.9,1.1,0.9
									C163.7,29.5,164.2,29.2,164.7,28.7z"/>
								<path class="st2" d="M169.1,28.6V19h2.2v9.7c0,0.5,0.2,0.7,0.4,0.7c0.1,0,0.2,0,0.3,0l0.3,1.6c-0.3,0.1-0.6,0.2-1.1,0.2
									C169.7,31.2,169.1,30.2,169.1,28.6z"/>
								<path class="st2" d="M176.7,29.6l1.3-1.5c0.8,0.7,1.8,1.2,2.8,1.2c1.2,0,1.8-0.5,1.8-1.3c0-0.8-0.7-1.1-1.7-1.5l-1.5-0.6
									c-1.1-0.5-2.2-1.4-2.2-3c0-1.8,1.6-3.2,3.8-3.2c1.3,0,2.6,0.5,3.5,1.4l-1.1,1.4c-0.7-0.6-1.4-0.9-2.4-0.9
									c-1,0-1.6,0.4-1.6,1.2c0,0.8,0.8,1.1,1.7,1.5l1.5,0.6c1.3,0.6,2.2,1.4,2.2,3c0,1.8-1.5,3.4-4.1,3.4
									C179.3,31.2,177.8,30.6,176.7,29.6z"/>
								<path class="st2" d="M186.5,28.1v-3.7h-1.2v-1.6l1.3-0.1l0.3-2.2h1.8v2.2h2.1v1.7h-2.1v3.7c0,1,0.4,1.4,1.1,1.4
									c0.3,0,0.6-0.1,0.8-0.2l0.4,1.6c-0.5,0.2-1,0.3-1.8,0.3C187.2,31.2,186.5,30,186.5,28.1z"/>
								<path class="st2" d="M192.5,22.6h1.8l0.1,1.5h0.1c0.6-1.1,1.5-1.7,2.4-1.7c0.5,0,0.7,0.1,1,0.2l-0.4,1.9
									c-0.3-0.1-0.5-0.1-0.9-0.1c-0.7,0-1.5,0.4-1.9,1.7v5h-2.2V22.6z"/>
								<path class="st2" d="M198.3,26.8c0-2.7,1.9-4.4,3.9-4.4c2.3,0,3.5,1.7,3.5,4c0,0.4,0,0.8-0.1,1h-5.2
									c0.2,1.4,1.1,2.1,2.3,2.1c0.7,0,1.3-0.2,1.9-0.6l0.8,1.4c-0.8,0.6-1.9,0.9-2.9,0.9C200.1,31.2,198.3,29.6,198.3,26.8z
									 M203.8,26c0-1.1-0.5-1.9-1.6-1.9c-0.9,0-1.7,0.6-1.8,1.9H203.8z"/>
								<path class="st2" d="M206.7,30l1-1.4c0.8,0.6,1.5,0.9,2.2,0.9c0.8,0,1.2-0.4,1.2-0.9c0-0.6-0.9-0.9-1.8-1.3
									c-1.1-0.4-2.3-1-2.3-2.4c0-1.5,1.2-2.6,3.1-2.6c1.2,0,2.2,0.5,2.9,1l-1,1.3c-0.6-0.4-1.2-0.7-1.8-0.7
									c-0.8,0-1.1,0.3-1.1,0.8c0,0.6,0.8,0.8,1.7,1.2c1.1,0.4,2.3,1,2.3,2.5c0,1.5-1.2,2.7-3.3,2.7
									C208.8,31.2,207.6,30.7,206.7,30z"/>
								<path class="st2" d="M214.2,30l1-1.4c0.8,0.6,1.5,0.9,2.2,0.9c0.8,0,1.2-0.4,1.2-0.9c0-0.6-0.9-0.9-1.8-1.3
									c-1.1-0.4-2.3-1-2.3-2.4c0-1.5,1.2-2.6,3.1-2.6c1.2,0,2.2,0.5,2.9,1l-1,1.3c-0.6-0.4-1.2-0.7-1.8-0.7
									c-0.8,0-1.1,0.3-1.1,0.8c0,0.6,0.8,0.8,1.7,1.2c1.1,0.4,2.3,1,2.3,2.5c0,1.5-1.2,2.7-3.3,2.7C216.2,31.2,215,30.7,214.2,30z
									"/>
								<path class="st2" d="M225.1,18.9h1.5l-3.7,14.8h-1.5L225.1,18.9z"/>
							</g>
							<text transform="matrix(1 0 0 1 227.0182 31)" class="st2 st3 st4"> </text>
							<g class="st1">
								<path class="st2" d="M121.6,53l-2.3-4.2h-1.5V53h-2.2V41.9h3.9c2.3,0,4.2,0.8,4.2,3.4c0,1.7-0.8,2.7-2.1,3.2l2.6,4.5H121.6z
									 M117.8,47h1.4c1.4,0,2.2-0.6,2.2-1.8c0-1.2-0.8-1.6-2.2-1.6h-1.4V47z"/>
								<path class="st2" d="M124.9,48.8c0-2.7,1.9-4.4,3.9-4.4c2.3,0,3.5,1.7,3.5,4c0,0.4,0,0.8-0.1,1h-5.2
									c0.2,1.4,1.1,2.1,2.3,2.1c0.7,0,1.3-0.2,1.9-0.6l0.8,1.4c-0.8,0.6-1.9,0.9-2.9,0.9C126.8,53.2,124.9,51.6,124.9,48.8z
									 M130.5,48c0-1.1-0.5-1.9-1.6-1.9c-0.9,0-1.7,0.6-1.8,1.9H130.5z"/>
								<path class="st2" d="M133.4,52l1-1.4c0.8,0.6,1.5,0.9,2.2,0.9c0.8,0,1.2-0.4,1.2-0.9c0-0.6-0.9-0.9-1.8-1.3
									c-1.1-0.4-2.3-1-2.3-2.4c0-1.5,1.2-2.6,3.1-2.6c1.2,0,2.2,0.5,2.9,1l-1,1.3c-0.6-0.4-1.2-0.7-1.8-0.7
									c-0.8,0-1.1,0.3-1.1,0.8c0,0.6,0.8,0.8,1.7,1.2c1.1,0.4,2.3,1,2.3,2.5c0,1.5-1.2,2.7-3.3,2.7
									C135.4,53.2,134.2,52.7,133.4,52z"/>
								<path class="st2" d="M141.6,50.1v-3.7h-1.2v-1.6l1.3-0.1l0.3-2.2h1.8v2.2h2.1v1.7h-2.1v3.7c0,1,0.4,1.4,1.1,1.4
									c0.3,0,0.6-0.1,0.8-0.2l0.4,1.6c-0.5,0.2-1,0.3-1.8,0.3C142.3,53.2,141.6,52,141.6,50.1z"/>
								<path class="st2" d="M151.1,41.9h3.6c2.5,0,4.3,0.9,4.3,3.5c0,2.5-1.9,3.7-4.3,3.7h-1.5V53h-2.2V41.9z M154.7,47.3
									c1.5,0,2.3-0.6,2.3-1.9c0-1.3-0.8-1.7-2.3-1.7h-1.3v3.6H154.7z"/>
								<path class="st2" d="M160.1,48.8c0-2.7,1.9-4.4,3.9-4.4c2.3,0,3.5,1.7,3.5,4c0,0.4,0,0.8-0.1,1h-5.2
									c0.2,1.4,1.1,2.1,2.3,2.1c0.7,0,1.3-0.2,1.9-0.6l0.8,1.4c-0.8,0.6-1.9,0.9-2.9,0.9C161.9,53.2,160.1,51.6,160.1,48.8z
									 M165.6,48c0-1.1-0.5-1.9-1.6-1.9c-0.9,0-1.7,0.6-1.8,1.9H165.6z"/>
								<path class="st2" d="M169.3,44.6h1.8l0.1,1.5h0.1c0.6-1.1,1.5-1.7,2.4-1.7c0.5,0,0.7,0.1,1,0.2l-0.4,1.9
									c-0.3-0.1-0.5-0.1-0.9-0.1c-0.7,0-1.5,0.4-1.9,1.7v5h-2.2V44.6z"/>
								<path class="st2" d="M180.3,42.7c-0.3-0.1-0.6-0.2-0.9-0.2c-0.7,0-1,0.4-1,1.3v0.7h1.6v1.7h-1.6V53h-2.2v-6.7h-1.1v-1.6
									l1.1-0.1v-0.7c0-1.8,0.8-3.1,2.9-3.1c0.6,0,1.2,0.2,1.6,0.3L180.3,42.7z"/>
								<path class="st2" d="M181.3,49.9v-5.2h2.2v5c0,1.3,0.4,1.8,1.2,1.8c0.7,0,1.1-0.3,1.7-1v-5.7h2.2V53h-1.8l-0.2-1.2h-0.1
									c-0.7,0.9-1.5,1.4-2.7,1.4C182.1,53.2,181.3,52,181.3,49.9z"/>
								<path class="st2" d="M190.2,52l1-1.4c0.8,0.6,1.5,0.9,2.2,0.9c0.8,0,1.2-0.4,1.2-0.9c0-0.6-0.9-0.9-1.8-1.3
									c-1.1-0.4-2.3-1-2.3-2.4c0-1.5,1.2-2.6,3.1-2.6c1.2,0,2.2,0.5,2.9,1l-1,1.3c-0.6-0.4-1.2-0.7-1.8-0.7
									c-0.8,0-1.1,0.3-1.1,0.8c0,0.6,0.8,0.8,1.7,1.2c1.1,0.4,2.3,1,2.3,2.5c0,1.5-1.2,2.7-3.3,2.7C192.2,53.2,191,52.7,190.2,52z
									"/>
								<path class="st2" d="M198.2,42.1c0-0.7,0.6-1.2,1.3-1.2c0.8,0,1.3,0.5,1.3,1.2c0,0.7-0.6,1.2-1.3,1.2
									C198.7,43.2,198.2,42.7,198.2,42.1z M198.4,44.6h2.2V53h-2.2V44.6z"/>
								<path class="st2" d="M202.4,48.8c0-2.8,1.9-4.4,4-4.4c2.1,0,4,1.6,4,4.4c0,2.8-1.9,4.4-4,4.4
									C204.4,53.2,202.4,51.6,202.4,48.8z M208.3,48.8c0-1.6-0.6-2.6-1.8-2.6c-1.1,0-1.8,1-1.8,2.6c0,1.6,0.6,2.6,1.8,2.6
									C207.6,51.4,208.3,50.4,208.3,48.8z"/>
								<path class="st2" d="M212.3,44.6h1.8l0.2,1.1h0.1c0.7-0.7,1.6-1.3,2.7-1.3c1.8,0,2.6,1.3,2.6,3.4V53h-2.2v-5
									c0-1.3-0.4-1.8-1.2-1.8c-0.7,0-1.1,0.3-1.8,0.9V53h-2.2V44.6z"/>
							</g>
						</g>
						<g transform="translate(126.000000, 87.000000)">
							<g class="st1">
								<path d="M1.4,17.7c0-1.7,1.2-2.9,2.4-3.6V14c-1-0.7-1.8-1.7-1.8-3.1c0-2.1,1.6-3.4,3.8-3.4C8,7.5,9.5,9,9.5,11
									c0,1.4-0.9,2.5-1.7,3.1v0.1C8.9,14.9,10,16,10,17.8c0,2-1.7,3.5-4.3,3.5C3.2,21.2,1.4,19.8,1.4,17.7z M8,17.7
									c0-1.6-1.5-2.2-3.3-3c-0.9,0.6-1.5,1.6-1.5,2.8c0,1.3,1.1,2.2,2.5,2.2C7.1,19.7,8,18.9,8,17.7z M7.7,11.2C7.7,9.9,7,9,5.7,9
									C4.6,9,3.8,9.8,3.8,11c0,1.4,1.3,2.1,2.7,2.7C7.3,12.9,7.7,12.1,7.7,11.2z"/>
								<path d="M12.9,18.6c0.5,0.6,1.3,1,2.2,1c1.6,0,3-1.3,3.1-5.1c-0.8,1-1.9,1.5-2.9,1.5c-2.2,0-3.7-1.4-3.7-4.2
									c0-2.6,1.8-4.4,3.9-4.4c2.5,0,4.6,2.1,4.6,6.4c0,5.2-2.4,7.3-4.9,7.3c-1.5,0-2.6-0.6-3.4-1.4L12.9,18.6z M18.1,12.9
									c-0.2-2.6-1.2-3.8-2.6-3.8c-1.1,0-2,1-2,2.8c0,1.7,0.8,2.7,2.1,2.7C16.4,14.5,17.4,14,18.1,12.9z"/>
								<path d="M21.7,11.7c0-2.7,1.2-4.2,3.1-4.2s3.1,1.5,3.1,4.2c0,2.7-1.3,4.2-3.1,4.2S21.7,14.3,21.7,11.7z M26.4,11.7
									c0-2.1-0.7-3-1.6-3c-0.9,0-1.6,0.9-1.6,3c0,2,0.7,3,1.6,3C25.7,14.7,26.4,13.7,26.4,11.7z M32.5,7.5h1.3l-7.3,13.7h-1.3
									L32.5,7.5z M31.1,17c0-2.7,1.3-4.2,3.1-4.2c1.8,0,3.1,1.5,3.1,4.2c0,2.7-1.3,4.2-3.1,4.2C32.4,21.2,31.1,19.7,31.1,17z
									 M35.8,17c0-2.1-0.7-3-1.6-3c-0.9,0-1.6,0.9-1.6,3c0,2,0.7,3,1.6,3C35.1,20,35.8,19.1,35.8,17z"/>
								<path d="M39.5,15.4c0-3.5,1-6.5,2.7-9.2l1.3,0.6c-1.5,2.6-2.3,5.6-2.3,8.6c0,3,0.7,6.1,2.3,8.6l-1.3,0.6
									C40.5,21.8,39.5,18.9,39.5,15.4z"/>
								<path d="M45.9,11.1h1.7l0.2,1.4h0.1c0.9-0.9,1.9-1.6,3.3-1.6c2.1,0,3,1.4,3,3.9V21h-2.1v-6c0-1.7-0.5-2.4-1.7-2.4
									c-0.9,0-1.5,0.5-2.4,1.3v7h-2.1V11.1z"/>
								<path d="M56.3,11.3h8.9v1.5h-8.9V11.3z M56.3,15.8h8.9v1.5h-8.9V15.8z"/>
								<path d="M66.7,17.7c0-1.7,1.2-2.9,2.4-3.6V14c-1-0.7-1.8-1.7-1.8-3.1c0-2.1,1.6-3.4,3.8-3.4c2.3,0,3.7,1.4,3.7,3.5
									c0,1.4-0.9,2.5-1.7,3.1v0.1c1.2,0.7,2.2,1.7,2.2,3.5c0,2-1.7,3.5-4.3,3.5C68.5,21.2,66.7,19.8,66.7,17.7z M73.3,17.7
									c0-1.6-1.5-2.2-3.3-3c-0.9,0.6-1.5,1.6-1.5,2.8c0,1.3,1.1,2.2,2.5,2.2C72.4,19.7,73.3,18.9,73.3,17.7z M73,11.2
									C73,9.9,72.3,9,71,9c-1.1,0-1.9,0.7-1.9,1.9c0,1.4,1.3,2.1,2.7,2.7C72.6,12.9,73,12.1,73,11.2z"/>
								<path d="M76.9,24c1.5-2.6,2.3-5.6,2.3-8.6c0-3-0.7-6-2.3-8.6l1.3-0.6c1.7,2.7,2.7,5.7,2.7,9.2c0,3.6-1,6.5-2.7,9.2L76.9,24z
									"/>
							</g>
						</g>
					</g>
					<g transform="translate(0.000000, 236.000000)">
						<g>
							<path class="st0" d="M8,0h318c4.4,0,8,3.6,8,8v56c0,4.4-3.6,8-8,8H8c-4.4,0-8-3.6-8-8V8C0,3.6,3.6,0,8,0z"/>
							<g class="st1">
								<path class="st2" d="M112,31l-2.3-4.2h-1.5V31H106V19.9h3.9c2.3,0,4.2,0.8,4.2,3.4c0,1.7-0.8,2.7-2.1,3.2l2.6,4.5H112z
									 M108.2,25h1.4c1.4,0,2.2-0.6,2.2-1.8c0-1.2-0.8-1.6-2.2-1.6h-1.4V25z"/>
								<path class="st2" d="M115.3,26.8c0-2.7,1.9-4.4,3.9-4.4c2.3,0,3.5,1.7,3.5,4c0,0.4,0,0.8-0.1,1h-5.2
									c0.2,1.4,1.1,2.1,2.3,2.1c0.7,0,1.3-0.2,1.9-0.6l0.8,1.4c-0.8,0.6-1.9,0.9-2.9,0.9C117.2,31.2,115.3,29.6,115.3,26.8z
									 M120.9,26c0-1.1-0.5-1.9-1.6-1.9c-0.9,0-1.7,0.6-1.8,1.9H120.9z"/>
								<path class="st2" d="M123.8,32.5c0-0.7,0.4-1.3,1.2-1.7v-0.1c-0.4-0.3-0.8-0.7-0.8-1.4c0-0.6,0.4-1.2,0.9-1.6v-0.1
									c-0.6-0.4-1.1-1.2-1.1-2.2c0-2,1.6-3,3.4-3c0.5,0,0.9,0.1,1.3,0.2h3v1.6h-1.4c0.2,0.3,0.4,0.8,0.4,1.3
									c0,1.9-1.4,2.8-3.2,2.8c-0.3,0-0.7-0.1-1.1-0.2c-0.2,0.2-0.4,0.4-0.4,0.7c0,0.5,0.3,0.7,1.3,0.7h1.4c2,0,3.1,0.6,3.1,2.1
									c0,1.7-1.8,3-4.6,3C125.4,34.6,123.8,34,123.8,32.5z M129.8,32c0-0.6-0.5-0.8-1.4-0.8h-1c-0.5,0-0.9,0-1.2-0.1
									c-0.4,0.3-0.6,0.6-0.6,1c0,0.7,0.8,1.1,2,1.1C128.9,33.2,129.8,32.7,129.8,32z M128.8,25.4c0-1-0.6-1.5-1.3-1.5
									s-1.3,0.6-1.3,1.5c0,1,0.6,1.5,1.3,1.5S128.8,26.4,128.8,25.4z"/>
								<path class="st2" d="M133.1,20.1c0-0.7,0.6-1.2,1.3-1.2c0.8,0,1.3,0.5,1.3,1.2c0,0.7-0.6,1.2-1.3,1.2
									C133.7,21.2,133.1,20.7,133.1,20.1z M133.4,22.6h2.2V31h-2.2V22.6z"/>
								<path class="st2" d="M137.4,26.8c0-2.8,1.9-4.4,4-4.4s4,1.6,4,4.4c0,2.8-1.9,4.4-4,4.4S137.4,29.6,137.4,26.8z M143.2,26.8
									c0-1.6-0.6-2.6-1.8-2.6s-1.8,1-1.8,2.6c0,1.6,0.6,2.6,1.8,2.6S143.2,28.4,143.2,26.8z"/>
								<path class="st2" d="M147.3,22.6h1.8l0.1,1.1h0.1c0.7-0.7,1.6-1.3,2.7-1.3c1.8,0,2.6,1.3,2.6,3.4V31h-2.2v-5
									c0-1.3-0.4-1.8-1.2-1.8c-0.7,0-1.1,0.3-1.8,0.9V31h-2.2V22.6z"/>
								<path class="st2" d="M156.5,28.7c0-1.8,1.5-2.7,4.8-3.1c0-0.8-0.4-1.5-1.4-1.5c-0.8,0-1.5,0.3-2.3,0.8l-0.8-1.5
									c1-0.6,2.2-1.1,3.5-1.1c2.1,0,3.2,1.3,3.2,3.7V31h-1.8l-0.2-0.9h0c-0.7,0.6-1.6,1.1-2.5,1.1
									C157.5,31.2,156.5,30.1,156.5,28.7z M161.3,28.7V27c-2,0.3-2.7,0.8-2.7,1.6c0,0.7,0.5,0.9,1.1,0.9
									C160.3,29.5,160.8,29.2,161.3,28.7z"/>
								<path class="st2" d="M165.8,28.6V19h2.2v9.7c0,0.5,0.2,0.7,0.5,0.7c0.1,0,0.1,0,0.3,0L169,31c-0.3,0.1-0.6,0.2-1.1,0.2
									C166.3,31.2,165.8,30.2,165.8,28.6z"/>
								<path class="st2" d="M173.4,29.6l1.3-1.5c0.8,0.7,1.8,1.2,2.8,1.2c1.2,0,1.8-0.5,1.8-1.3c0-0.8-0.7-1.1-1.7-1.5l-1.5-0.6
									c-1.1-0.5-2.2-1.4-2.2-3c0-1.8,1.6-3.2,3.8-3.2c1.3,0,2.6,0.5,3.5,1.4l-1.1,1.4c-0.7-0.6-1.4-0.9-2.4-0.9
									c-1,0-1.6,0.4-1.6,1.2c0,0.8,0.8,1.1,1.7,1.5l1.5,0.6c1.3,0.6,2.2,1.4,2.2,3c0,1.8-1.5,3.4-4.1,3.4
									C175.9,31.2,174.4,30.6,173.4,29.6z"/>
								<path class="st2" d="M182.9,34.2l0.4-1.7c0.2,0,0.4,0.1,0.6,0.1c0.9,0,1.3-0.5,1.6-1.3l0.2-0.5l-3.3-8.2h2.2l1.3,3.9
									c0.3,0.8,0.5,1.6,0.7,2.4h0.1c0.2-0.8,0.4-1.6,0.6-2.4l1.2-3.9h2.1l-3,8.7c-0.7,2-1.6,3.1-3.5,3.1
									C183.5,34.4,183.2,34.3,182.9,34.2z"/>
								<path class="st2" d="M191.1,30l1-1.4c0.8,0.6,1.5,0.9,2.2,0.9c0.8,0,1.2-0.4,1.2-0.9c0-0.6-0.9-0.9-1.8-1.3
									c-1.1-0.4-2.3-1-2.3-2.4c0-1.5,1.2-2.6,3.1-2.6c1.2,0,2.2,0.5,2.9,1l-1,1.3c-0.6-0.4-1.2-0.7-1.8-0.7
									c-0.8,0-1.1,0.3-1.1,0.8c0,0.6,0.8,0.8,1.7,1.2c1.1,0.4,2.3,1,2.3,2.5c0,1.5-1.2,2.7-3.3,2.7
									C193.2,31.2,191.9,30.7,191.1,30z"/>
								<path class="st2" d="M199.3,28.1v-3.7h-1.2v-1.6l1.3-0.1l0.3-2.2h1.8v2.2h2.1v1.7h-2.1v3.7c0,1,0.4,1.4,1.1,1.4
									c0.3,0,0.6-0.1,0.8-0.2l0.4,1.6c-0.5,0.2-1,0.3-1.8,0.3C200,31.2,199.3,30,199.3,28.1z"/>
								<path class="st2" d="M204.5,26.8c0-2.8,1.9-4.4,4-4.4c2.1,0,4,1.6,4,4.4c0,2.8-1.9,4.4-4,4.4
									C206.4,31.2,204.5,29.6,204.5,26.8z M210.3,26.8c0-1.6-0.6-2.6-1.8-2.6c-1.1,0-1.8,1-1.8,2.6c0,1.6,0.6,2.6,1.8,2.6
									C209.6,29.4,210.3,28.4,210.3,26.8z"/>
								<path class="st2" d="M214.4,28.6V19h2.2v9.7c0,0.5,0.2,0.7,0.5,0.7c0.1,0,0.1,0,0.3,0l0.3,1.6c-0.3,0.1-0.6,0.2-1.1,0.2
									C214.9,31.2,214.4,30.2,214.4,28.6z"/>
								<path class="st2" d="M218.9,20.1c0-0.7,0.6-1.2,1.3-1.2c0.8,0,1.3,0.5,1.3,1.2c0,0.7-0.6,1.2-1.3,1.2
									C219.4,21.2,218.9,20.7,218.9,20.1z M219.1,22.6h2.2V31h-2.2V22.6z"/>
								<path class="st2" d="M223.1,26.8c0-2.8,2-4.4,4.3-4.4c1,0,1.8,0.4,2.4,0.9l-1,1.4c-0.4-0.4-0.8-0.6-1.3-0.6
									c-1.3,0-2.1,1-2.1,2.6c0,1.6,0.9,2.6,2.1,2.6c0.6,0,1.2-0.3,1.6-0.7l0.9,1.5c-0.8,0.7-1.8,1-2.7,1
									C224.9,31.2,223.1,29.6,223.1,26.8z"/>
							</g>
							<text transform="matrix(1 0 0 1 230.3704 31)" class="st2 st3 st4"> </text>
							<g class="st1">
								<path class="st2" d="M113.3,41.9h2.3l0.9,5.4c0.2,1.2,0.3,2.4,0.5,3.5h0.1c0.2-1.2,0.5-2.4,0.7-3.5l1.3-5.4h1.9l1.3,5.4
									c0.2,1.1,0.5,2.3,0.7,3.5h0.1c0.2-1.2,0.3-2.4,0.5-3.5l0.9-5.4h2.1L124.4,53h-2.8l-1.2-5.5c-0.2-0.9-0.3-1.7-0.5-2.6h-0.1
									c-0.1,0.8-0.3,1.7-0.5,2.6l-1.2,5.5h-2.7L113.3,41.9z"/>
								<path class="st2" d="M127.3,50.7c0-1.8,1.5-2.7,4.8-3.1c0-0.8-0.4-1.5-1.4-1.5c-0.8,0-1.5,0.3-2.3,0.8l-0.8-1.5
									c1-0.6,2.2-1.1,3.5-1.1c2.1,0,3.2,1.3,3.2,3.7V53h-1.8l-0.2-0.9h0c-0.7,0.6-1.6,1.1-2.5,1.1
									C128.3,53.2,127.3,52.1,127.3,50.7z M132.1,50.7V49c-2,0.3-2.7,0.8-2.7,1.6c0,0.7,0.5,0.9,1.1,0.9
									C131.1,51.5,131.6,51.2,132.1,50.7z"/>
								<path class="st2" d="M136.6,50.6V41h2.2v9.7c0,0.5,0.2,0.7,0.4,0.7c0.1,0,0.1,0,0.3,0l0.3,1.6c-0.3,0.1-0.6,0.2-1.1,0.2
									C137.1,53.2,136.6,52.2,136.6,50.6z"/>
								<path class="st2" d="M141.3,50.6V41h2.2v9.7c0,0.5,0.2,0.7,0.4,0.7c0.1,0,0.1,0,0.3,0l0.3,1.6c-0.3,0.1-0.6,0.2-1.1,0.2
									C141.9,53.2,141.3,52.2,141.3,50.6z"/>
								<path class="st2" d="M151.8,43.7h-3.1v-1.8h8.5v1.8h-3.1V53h-2.2V43.7z"/>
								<path class="st2" d="M158.8,41h2.2v3l-0.1,1.6c0.7-0.6,1.5-1.2,2.6-1.2c1.8,0,2.6,1.3,2.6,3.4V53H164v-5
									c0-1.3-0.4-1.8-1.2-1.8c-0.7,0-1.1,0.3-1.8,0.9V53h-2.2V41z"/>
								<path class="st2" d="M168.2,42.1c0-0.7,0.6-1.2,1.3-1.2c0.8,0,1.3,0.5,1.3,1.2c0,0.7-0.6,1.2-1.3,1.2
									C168.8,43.2,168.2,42.7,168.2,42.1z M168.4,44.6h2.2V53h-2.2V44.6z"/>
								<path class="st2" d="M172.5,48.8c0-2.8,2-4.4,4.3-4.4c1,0,1.8,0.4,2.4,0.9l-1.1,1.4c-0.4-0.4-0.8-0.6-1.3-0.6
									c-1.3,0-2.1,1-2.1,2.6c0,1.6,0.9,2.6,2.1,2.6c0.6,0,1.2-0.3,1.6-0.7l0.9,1.5c-0.8,0.7-1.8,1-2.7,1
									C174.2,53.2,172.5,51.6,172.5,48.8z"/>
								<path class="st2" d="M180.9,41h2.1v7.2h0.1l2.9-3.6h2.4l-2.9,3.4l3.2,5h-2.4l-2-3.5l-1.2,1.4V53h-2.1V41z"/>
								<path class="st2" d="M190,44.6h1.8l0.1,1.1h0.1c0.7-0.7,1.6-1.3,2.7-1.3c1.8,0,2.6,1.3,2.6,3.4V53h-2.2v-5
									c0-1.3-0.4-1.8-1.2-1.8c-0.7,0-1.1,0.3-1.8,0.9V53H190V44.6z"/>
								<path class="st2" d="M199.1,48.8c0-2.7,1.9-4.4,3.9-4.4c2.3,0,3.5,1.7,3.5,4c0,0.4,0,0.8-0.1,1h-5.2
									c0.2,1.4,1.1,2.1,2.3,2.1c0.7,0,1.3-0.2,1.9-0.6l0.8,1.4c-0.8,0.6-1.9,0.9-2.9,0.9C200.9,53.2,199.1,51.6,199.1,48.8z
									 M204.6,48c0-1.1-0.5-1.9-1.6-1.9c-0.9,0-1.7,0.6-1.8,1.9H204.6z"/>
								<path class="st2" d="M207.5,52l1-1.4c0.8,0.6,1.5,0.9,2.2,0.9c0.8,0,1.2-0.4,1.2-0.9c0-0.6-0.9-0.9-1.8-1.3
									c-1.1-0.4-2.3-1-2.3-2.4c0-1.5,1.2-2.6,3.1-2.6c1.2,0,2.2,0.5,2.9,1l-1,1.3c-0.6-0.4-1.2-0.7-1.8-0.7
									c-0.8,0-1.1,0.3-1.1,0.8c0,0.6,0.8,0.8,1.7,1.2c1.1,0.4,2.3,1,2.3,2.5c0,1.5-1.2,2.7-3.3,2.7
									C209.6,53.2,208.3,52.7,207.5,52z"/>
								<path class="st2" d="M214.9,52l1-1.4c0.8,0.6,1.5,0.9,2.2,0.9c0.8,0,1.2-0.4,1.2-0.9c0-0.6-0.9-0.9-1.8-1.3
									c-1.1-0.4-2.3-1-2.3-2.4c0-1.5,1.2-2.6,3.1-2.6c1.2,0,2.2,0.5,2.9,1l-1,1.3c-0.6-0.4-1.2-0.7-1.8-0.7
									c-0.8,0-1.1,0.3-1.1,0.8c0,0.6,0.8,0.8,1.7,1.2c1.1,0.4,2.3,1,2.3,2.5c0,1.5-1.2,2.7-3.3,2.7C217,53.2,215.7,52.7,214.9,52z
									"/>
							</g>
						</g>
						<g transform="translate(126.000000, 87.000000)">
							<g class="st1">
								<path d="M8.7,10.2c-0.5-0.6-1.3-1-2.1-1c-1.7,0-3.1,1.3-3.2,5.1c0.8-1,1.9-1.5,2.9-1.5c2.2,0,3.7,1.4,3.7,4.2
									c0,2.6-1.8,4.3-4,4.3c-2.5,0-4.6-2.1-4.6-6.6c0-5.1,2.4-7.1,5-7.1C8,7.5,9,8.1,9.8,8.9L8.7,10.2z M8.1,16.9
									c0-1.7-0.8-2.7-2.2-2.7c-0.8,0-1.7,0.4-2.5,1.5c0.2,2.6,1.2,3.9,2.6,3.9C7.2,19.6,8.1,18.6,8.1,16.9z"/>
								<path d="M17.9,9.5h-6.2V7.7h8.5V9c-3.1,3.9-3.6,6.8-3.8,12h-2.1C14.5,16.2,15.3,13.1,17.9,9.5z"/>
								<path d="M21.7,11.7c0-2.7,1.2-4.2,3.1-4.2s3.1,1.5,3.1,4.2c0,2.7-1.3,4.2-3.1,4.2S21.7,14.3,21.7,11.7z M26.4,11.7
									c0-2.1-0.7-3-1.6-3c-0.9,0-1.6,0.9-1.6,3c0,2,0.7,3,1.6,3C25.7,14.7,26.4,13.7,26.4,11.7z M32.5,7.5h1.3l-7.3,13.7h-1.3
									L32.5,7.5z M31.1,17c0-2.7,1.3-4.2,3.1-4.2c1.8,0,3.1,1.5,3.1,4.2c0,2.7-1.3,4.2-3.1,4.2C32.4,21.2,31.1,19.7,31.1,17z
									 M35.8,17c0-2.1-0.7-3-1.6-3c-0.9,0-1.6,0.9-1.6,3c0,2,0.7,3,1.6,3C35.1,20,35.8,19.1,35.8,17z"/>
								<path d="M39.5,15.4c0-3.5,1-6.5,2.7-9.2l1.3,0.6c-1.5,2.6-2.3,5.6-2.3,8.6c0,3,0.7,6.1,2.3,8.6l-1.3,0.6
									C40.5,21.8,39.5,18.9,39.5,15.4z"/>
								<path d="M45.9,11.1h1.7l0.2,1.4h0.1c0.9-0.9,1.9-1.6,3.3-1.6c2.1,0,3,1.4,3,3.9V21h-2.1v-6c0-1.7-0.5-2.4-1.7-2.4
									c-0.9,0-1.5,0.5-2.4,1.3v7h-2.1V11.1z"/>
								<path d="M56.3,11.3h8.9v1.5h-8.9V11.3z M56.3,15.8h8.9v1.5h-8.9V15.8z"/>
								<path d="M74,10.2c-0.5-0.6-1.3-1-2.1-1c-1.7,0-3.1,1.3-3.2,5.1c0.8-1,1.9-1.5,2.9-1.5c2.2,0,3.7,1.4,3.7,4.2
									c0,2.6-1.8,4.3-4,4.3c-2.5,0-4.6-2.1-4.6-6.6c0-5.1,2.4-7.1,5-7.1c1.5,0,2.6,0.6,3.3,1.4L74,10.2z M73.4,16.9
									c0-1.7-0.8-2.7-2.2-2.7c-0.8,0-1.7,0.4-2.5,1.5c0.2,2.6,1.2,3.9,2.6,3.9C72.5,19.6,73.4,18.6,73.4,16.9z"/>
								<path d="M76.9,24c1.5-2.6,2.3-5.6,2.3-8.6c0-3-0.7-6-2.3-8.6l1.3-0.6c1.7,2.7,2.7,5.7,2.7,9.2c0,3.6-1,6.5-2.7,9.2L76.9,24z
									"/>
							</g>
						</g>
					</g>
					<g transform="translate(0.000000, 365.000000)">
						<g>
							<path class="st0" d="M8,0h318c4.4,0,8,3.6,8,8v56c0,4.4-3.6,8-8,8H8c-4.4,0-8-3.6-8-8V8C0,3.6,3.6,0,8,0z"/>
							<g class="st1">
								<path class="st2" d="M109,31l-2.3-4.2h-1.5V31h-2.2V19.9h3.9c2.3,0,4.2,0.8,4.2,3.4c0,1.7-0.8,2.7-2.1,3.2l2.6,4.5H109z
									 M105.1,25h1.4c1.4,0,2.2-0.6,2.2-1.8c0-1.2-0.8-1.6-2.2-1.6h-1.4V25z"/>
								<path class="st2" d="M112.3,26.8c0-2.7,1.9-4.4,3.9-4.4c2.3,0,3.5,1.7,3.5,4c0,0.4,0,0.8-0.1,1h-5.2
									c0.2,1.4,1.1,2.1,2.3,2.1c0.7,0,1.3-0.2,1.9-0.6l0.8,1.4c-0.8,0.6-1.9,0.9-2.9,0.9C114.1,31.2,112.3,29.6,112.3,26.8z
									 M117.8,26c0-1.1-0.5-1.9-1.6-1.9c-0.9,0-1.7,0.6-1.8,1.9H117.8z"/>
								<path class="st2" d="M120.8,32.5c0-0.7,0.4-1.3,1.2-1.7v-0.1c-0.4-0.3-0.8-0.7-0.8-1.4c0-0.6,0.4-1.2,0.9-1.6v-0.1
									c-0.6-0.4-1.1-1.2-1.1-2.2c0-2,1.6-3,3.4-3c0.5,0,0.9,0.1,1.3,0.2h3v1.6h-1.4c0.2,0.3,0.4,0.8,0.4,1.3
									c0,1.9-1.4,2.8-3.2,2.8c-0.3,0-0.7-0.1-1.1-0.2c-0.2,0.2-0.4,0.4-0.4,0.7c0,0.5,0.3,0.7,1.3,0.7h1.4c2,0,3.1,0.6,3.1,2.1
									c0,1.7-1.8,3-4.6,3C122.3,34.6,120.8,34,120.8,32.5z M126.7,32c0-0.6-0.5-0.8-1.4-0.8h-1c-0.5,0-0.9,0-1.2-0.1
									c-0.4,0.3-0.6,0.6-0.6,1c0,0.7,0.8,1.1,2,1.1C125.9,33.2,126.7,32.7,126.7,32z M125.7,25.4c0-1-0.6-1.5-1.3-1.5
									s-1.3,0.6-1.3,1.5c0,1,0.6,1.5,1.3,1.5S125.7,26.4,125.7,25.4z"/>
								<path class="st2" d="M130.1,20.1c0-0.7,0.6-1.2,1.3-1.2c0.8,0,1.3,0.5,1.3,1.2c0,0.7-0.6,1.2-1.3,1.2
									C130.6,21.2,130.1,20.7,130.1,20.1z M130.3,22.6h2.2V31h-2.2V22.6z"/>
								<path class="st2" d="M134.3,26.8c0-2.8,1.9-4.4,4-4.4s4,1.6,4,4.4c0,2.8-1.9,4.4-4,4.4S134.3,29.6,134.3,26.8z M140.1,26.8
									c0-1.6-0.6-2.6-1.8-2.6s-1.8,1-1.8,2.6c0,1.6,0.6,2.6,1.8,2.6S140.1,28.4,140.1,26.8z"/>
								<path class="st2" d="M144.2,22.6h1.8l0.1,1.1h0.1c0.7-0.7,1.6-1.3,2.7-1.3c1.8,0,2.6,1.3,2.6,3.4V31h-2.2v-5
									c0-1.3-0.4-1.8-1.2-1.8c-0.7,0-1.1,0.3-1.8,0.9V31h-2.2V22.6z"/>
								<path class="st2" d="M153.4,28.7c0-1.8,1.5-2.7,4.8-3.1c0-0.8-0.4-1.5-1.4-1.5c-0.8,0-1.5,0.3-2.3,0.8l-0.8-1.5
									c1-0.6,2.2-1.1,3.5-1.1c2.1,0,3.2,1.3,3.2,3.7V31h-1.8l-0.2-0.9h0c-0.7,0.6-1.6,1.1-2.5,1.1
									C154.4,31.2,153.4,30.1,153.4,28.7z M158.2,28.7V27c-2,0.3-2.7,0.8-2.7,1.6c0,0.7,0.5,0.9,1.1,0.9
									C157.3,29.5,157.7,29.2,158.2,28.7z"/>
								<path class="st2" d="M162.7,28.6V19h2.2v9.7c0,0.5,0.2,0.7,0.4,0.7c0.1,0,0.1,0,0.3,0l0.3,1.6c-0.3,0.1-0.6,0.2-1.1,0.2
									C163.2,31.2,162.7,30.2,162.7,28.6z"/>
								<path class="st2" d="M171,19.9h3c3.4,0,5.5,1.8,5.5,5.5c0,3.7-2.1,5.6-5.4,5.6H171V19.9z M173.9,29.2c2.1,0,3.4-1.1,3.4-3.8
									c0-2.7-1.3-3.7-3.4-3.7h-0.7v7.5H173.9z"/>
								<path class="st2" d="M181.3,20.1c0-0.7,0.6-1.2,1.3-1.2c0.8,0,1.3,0.5,1.3,1.2c0,0.7-0.6,1.2-1.3,1.2
									C181.9,21.2,181.3,20.7,181.3,20.1z M181.5,22.6h2.2V31h-2.2V22.6z"/>
								<path class="st2" d="M185.7,28.7c0-1.8,1.5-2.7,4.8-3.1c0-0.8-0.4-1.5-1.4-1.5c-0.8,0-1.5,0.3-2.3,0.8l-0.8-1.5
									c1-0.6,2.2-1.1,3.5-1.1c2.1,0,3.2,1.3,3.2,3.7V31h-1.8l-0.2-0.9h0c-0.7,0.6-1.6,1.1-2.5,1.1
									C186.7,31.2,185.7,30.1,185.7,28.7z M190.5,28.7V27c-2,0.3-2.7,0.8-2.7,1.6c0,0.7,0.5,0.9,1.1,0.9
									C189.5,29.5,190,29.2,190.5,28.7z"/>
								<path class="st2" d="M194.2,30l1-1.4c0.8,0.6,1.5,0.9,2.2,0.9c0.8,0,1.2-0.4,1.2-0.9c0-0.6-0.9-0.9-1.8-1.3
									c-1.1-0.4-2.3-1-2.3-2.4c0-1.5,1.2-2.6,3.1-2.6c1.2,0,2.2,0.5,2.9,1l-1,1.3c-0.6-0.4-1.2-0.7-1.8-0.7
									c-0.8,0-1.1,0.3-1.1,0.8c0,0.6,0.8,0.8,1.7,1.2c1.1,0.4,2.3,1,2.3,2.5c0,1.5-1.2,2.7-3.3,2.7C196.2,31.2,195,30.7,194.2,30z
									"/>
								<path class="st2" d="M202.4,28.1v-3.7h-1.2v-1.6l1.3-0.1l0.3-2.2h1.8v2.2h2.1v1.7h-2.1v3.7c0,1,0.4,1.4,1.1,1.4
									c0.3,0,0.6-0.1,0.8-0.2l0.4,1.6c-0.5,0.2-1,0.3-1.8,0.3C203.1,31.2,202.4,30,202.4,28.1z"/>
								<path class="st2" d="M207.5,26.8c0-2.8,1.9-4.4,4-4.4c2.1,0,4,1.6,4,4.4c0,2.8-1.9,4.4-4,4.4
									C209.5,31.2,207.5,29.6,207.5,26.8z M213.4,26.8c0-1.6-0.6-2.6-1.8-2.6c-1.1,0-1.8,1-1.8,2.6c0,1.6,0.6,2.6,1.8,2.6
									C212.7,29.4,213.4,28.4,213.4,26.8z"/>
								<path class="st2" d="M217.4,28.6V19h2.2v9.7c0,0.5,0.2,0.7,0.4,0.7c0.1,0,0.2,0,0.3,0l0.3,1.6c-0.3,0.1-0.6,0.2-1.1,0.2
									C218,31.2,217.4,30.2,217.4,28.6z"/>
								<path class="st2" d="M222,20.1c0-0.7,0.6-1.2,1.3-1.2c0.8,0,1.3,0.5,1.3,1.2c0,0.7-0.6,1.2-1.3,1.2
									C222.5,21.2,222,20.7,222,20.1z M222.2,22.6h2.2V31h-2.2V22.6z"/>
								<path class="st2" d="M226.2,26.8c0-2.8,2-4.4,4.3-4.4c1,0,1.8,0.4,2.4,0.9l-1,1.4c-0.4-0.4-0.8-0.6-1.3-0.6
									c-1.3,0-2.1,1-2.1,2.6c0,1.6,0.9,2.6,2.1,2.6c0.6,0,1.2-0.3,1.6-0.7l0.9,1.5c-0.8,0.7-1.8,1-2.7,1
									C228,31.2,226.2,29.6,226.2,26.8z"/>
							</g>
							<text transform="matrix(1 0 0 1 233.4526 31)" class="st2 st3 st4"> </text>
							<g class="st1">
								<path class="st2" d="M113.3,41.9h2.3l0.9,5.4c0.2,1.2,0.3,2.4,0.5,3.5h0.1c0.2-1.2,0.5-2.4,0.7-3.5l1.3-5.4h1.9l1.3,5.4
									c0.2,1.1,0.5,2.3,0.7,3.5h0.1c0.2-1.2,0.3-2.4,0.5-3.5l0.9-5.4h2.1L124.4,53h-2.8l-1.2-5.5c-0.2-0.9-0.3-1.7-0.5-2.6h-0.1
									c-0.1,0.8-0.3,1.7-0.5,2.6l-1.2,5.5h-2.7L113.3,41.9z"/>
								<path class="st2" d="M127.3,50.7c0-1.8,1.5-2.7,4.8-3.1c0-0.8-0.4-1.5-1.4-1.5c-0.8,0-1.5,0.3-2.3,0.8l-0.8-1.5
									c1-0.6,2.2-1.1,3.5-1.1c2.1,0,3.2,1.3,3.2,3.7V53h-1.8l-0.2-0.9h0c-0.7,0.6-1.6,1.1-2.5,1.1
									C128.3,53.2,127.3,52.1,127.3,50.7z M132.1,50.7V49c-2,0.3-2.7,0.8-2.7,1.6c0,0.7,0.5,0.9,1.1,0.9
									C131.1,51.5,131.6,51.2,132.1,50.7z"/>
								<path class="st2" d="M136.6,50.6V41h2.2v9.7c0,0.5,0.2,0.7,0.4,0.7c0.1,0,0.1,0,0.3,0l0.3,1.6c-0.3,0.1-0.6,0.2-1.1,0.2
									C137.1,53.2,136.6,52.2,136.6,50.6z"/>
								<path class="st2" d="M141.3,50.6V41h2.2v9.7c0,0.5,0.2,0.7,0.4,0.7c0.1,0,0.1,0,0.3,0l0.3,1.6c-0.3,0.1-0.6,0.2-1.1,0.2
									C141.9,53.2,141.3,52.2,141.3,50.6z"/>
								<path class="st2" d="M151.8,43.7h-3.1v-1.8h8.5v1.8h-3.1V53h-2.2V43.7z"/>
								<path class="st2" d="M158.8,41h2.2v3l-0.1,1.6c0.7-0.6,1.5-1.2,2.6-1.2c1.8,0,2.6,1.3,2.6,3.4V53H164v-5
									c0-1.3-0.4-1.8-1.2-1.8c-0.7,0-1.1,0.3-1.8,0.9V53h-2.2V41z"/>
								<path class="st2" d="M168.2,42.1c0-0.7,0.6-1.2,1.3-1.2c0.8,0,1.3,0.5,1.3,1.2c0,0.7-0.6,1.2-1.3,1.2
									C168.8,43.2,168.2,42.7,168.2,42.1z M168.4,44.6h2.2V53h-2.2V44.6z"/>
								<path class="st2" d="M172.5,48.8c0-2.8,2-4.4,4.3-4.4c1,0,1.8,0.4,2.4,0.9l-1.1,1.4c-0.4-0.4-0.8-0.6-1.3-0.6
									c-1.3,0-2.1,1-2.1,2.6c0,1.6,0.9,2.6,2.1,2.6c0.6,0,1.2-0.3,1.6-0.7l0.9,1.5c-0.8,0.7-1.8,1-2.7,1
									C174.2,53.2,172.5,51.6,172.5,48.8z"/>
								<path class="st2" d="M180.9,41h2.1v7.2h0.1l2.9-3.6h2.4l-2.9,3.4l3.2,5h-2.4l-2-3.5l-1.2,1.4V53h-2.1V41z"/>
								<path class="st2" d="M190,44.6h1.8l0.1,1.1h0.1c0.7-0.7,1.6-1.3,2.7-1.3c1.8,0,2.6,1.3,2.6,3.4V53h-2.2v-5
									c0-1.3-0.4-1.8-1.2-1.8c-0.7,0-1.1,0.3-1.8,0.9V53H190V44.6z"/>
								<path class="st2" d="M199.1,48.8c0-2.7,1.9-4.4,3.9-4.4c2.3,0,3.5,1.7,3.5,4c0,0.4,0,0.8-0.1,1h-5.2
									c0.2,1.4,1.1,2.1,2.3,2.1c0.7,0,1.3-0.2,1.9-0.6l0.8,1.4c-0.8,0.6-1.9,0.9-2.9,0.9C200.9,53.2,199.1,51.6,199.1,48.8z
									 M204.6,48c0-1.1-0.5-1.9-1.6-1.9c-0.9,0-1.7,0.6-1.8,1.9H204.6z"/>
								<path class="st2" d="M207.5,52l1-1.4c0.8,0.6,1.5,0.9,2.2,0.9c0.8,0,1.2-0.4,1.2-0.9c0-0.6-0.9-0.9-1.8-1.3
									c-1.1-0.4-2.3-1-2.3-2.4c0-1.5,1.2-2.6,3.1-2.6c1.2,0,2.2,0.5,2.9,1l-1,1.3c-0.6-0.4-1.2-0.7-1.8-0.7
									c-0.8,0-1.1,0.3-1.1,0.8c0,0.6,0.8,0.8,1.7,1.2c1.1,0.4,2.3,1,2.3,2.5c0,1.5-1.2,2.7-3.3,2.7
									C209.6,53.2,208.3,52.7,207.5,52z"/>
								<path class="st2" d="M214.9,52l1-1.4c0.8,0.6,1.5,0.9,2.2,0.9c0.8,0,1.2-0.4,1.2-0.9c0-0.6-0.9-0.9-1.8-1.3
									c-1.1-0.4-2.3-1-2.3-2.4c0-1.5,1.2-2.6,3.1-2.6c1.2,0,2.2,0.5,2.9,1l-1,1.3c-0.6-0.4-1.2-0.7-1.8-0.7
									c-0.8,0-1.1,0.3-1.1,0.8c0,0.6,0.8,0.8,1.7,1.2c1.1,0.4,2.3,1,2.3,2.5c0,1.5-1.2,2.7-3.3,2.7C217,53.2,215.7,52.7,214.9,52z
									"/>
							</g>
						</g>
						<g transform="translate(126.000000, 87.000000)">
							<g class="st1">
								<path d="M1.4,17.7c0-1.7,1.2-2.9,2.4-3.6V14c-1-0.7-1.8-1.7-1.8-3.1c0-2.1,1.6-3.4,3.8-3.4C8,7.5,9.5,9,9.5,11
									c0,1.4-0.9,2.5-1.7,3.1v0.1C8.9,14.9,10,16,10,17.8c0,2-1.7,3.5-4.3,3.5C3.2,21.2,1.4,19.8,1.4,17.7z M8,17.7
									c0-1.6-1.5-2.2-3.3-3c-0.9,0.6-1.5,1.6-1.5,2.8c0,1.3,1.1,2.2,2.5,2.2C7.1,19.7,8,18.9,8,17.7z M7.7,11.2C7.7,9.9,7,9,5.7,9
									C4.6,9,3.8,9.8,3.8,11c0,1.4,1.3,2.1,2.7,2.7C7.3,12.9,7.7,12.1,7.7,11.2z"/>
								<path d="M12.9,18.6c0.5,0.6,1.3,1,2.2,1c1.6,0,3-1.3,3.1-5.1c-0.8,1-1.9,1.5-2.9,1.5c-2.2,0-3.7-1.4-3.7-4.2
									c0-2.6,1.8-4.4,3.9-4.4c2.5,0,4.6,2.1,4.6,6.4c0,5.2-2.4,7.3-4.9,7.3c-1.5,0-2.6-0.6-3.4-1.4L12.9,18.6z M18.1,12.9
									c-0.2-2.6-1.2-3.8-2.6-3.8c-1.1,0-2,1-2,2.8c0,1.7,0.8,2.7,2.1,2.7C16.4,14.5,17.4,14,18.1,12.9z"/>
								<path d="M21.7,11.7c0-2.7,1.2-4.2,3.1-4.2s3.1,1.5,3.1,4.2c0,2.7-1.3,4.2-3.1,4.2S21.7,14.3,21.7,11.7z M26.4,11.7
									c0-2.1-0.7-3-1.6-3c-0.9,0-1.6,0.9-1.6,3c0,2,0.7,3,1.6,3C25.7,14.7,26.4,13.7,26.4,11.7z M32.5,7.5h1.3l-7.3,13.7h-1.3
									L32.5,7.5z M31.1,17c0-2.7,1.3-4.2,3.1-4.2c1.8,0,3.1,1.5,3.1,4.2c0,2.7-1.3,4.2-3.1,4.2C32.4,21.2,31.1,19.7,31.1,17z
									 M35.8,17c0-2.1-0.7-3-1.6-3c-0.9,0-1.6,0.9-1.6,3c0,2,0.7,3,1.6,3C35.1,20,35.8,19.1,35.8,17z"/>
								<path d="M39.5,15.4c0-3.5,1-6.5,2.7-9.2l1.3,0.6c-1.5,2.6-2.3,5.6-2.3,8.6c0,3,0.7,6.1,2.3,8.6l-1.3,0.6
									C40.5,21.8,39.5,18.9,39.5,15.4z"/>
								<path d="M45.9,11.1h1.7l0.2,1.4h0.1c0.9-0.9,1.9-1.6,3.3-1.6c2.1,0,3,1.4,3,3.9V21h-2.1v-6c0-1.7-0.5-2.4-1.7-2.4
									c-0.9,0-1.5,0.5-2.4,1.3v7h-2.1V11.1z"/>
								<path d="M56.3,11.3h8.9v1.5h-8.9V11.3z M56.3,15.8h8.9v1.5h-8.9V15.8z"/>
								<path d="M66.7,17.7c0-1.7,1.2-2.9,2.4-3.6V14c-1-0.7-1.8-1.7-1.8-3.1c0-2.1,1.6-3.4,3.8-3.4c2.3,0,3.7,1.4,3.7,3.5
									c0,1.4-0.9,2.5-1.7,3.1v0.1c1.2,0.7,2.2,1.7,2.2,3.5c0,2-1.7,3.5-4.3,3.5C68.5,21.2,66.7,19.8,66.7,17.7z M73.3,17.7
									c0-1.6-1.5-2.2-3.3-3c-0.9,0.6-1.5,1.6-1.5,2.8c0,1.3,1.1,2.2,2.5,2.2C72.4,19.7,73.3,18.9,73.3,17.7z M73,11.2
									C73,9.9,72.3,9,71,9c-1.1,0-1.9,0.7-1.9,1.9c0,1.4,1.3,2.1,2.7,2.7C72.6,12.9,73,12.1,73,11.2z"/>
								<path d="M76.9,24c1.5-2.6,2.3-5.6,2.3-8.6c0-3-0.7-6-2.3-8.6l1.3-0.6c1.7,2.7,2.7,5.7,2.7,9.2c0,3.6-1,6.5-2.7,9.2L76.9,24z
									"/>
							</g>
						</g>
					</g>
				</g>
			</g>
			<g class="st1">
				<path d="M33.1,7.7H41v1.7h-5.7v3.7h4.9V15h-4.9v4.3h5.9V21h-8V7.7z"/>
				<path d="M54.5,8.3c-0.4-0.2-0.8-0.3-1.1-0.3c-0.9,0-1.3,0.6-1.3,1.8v1.3h2v1.7h-2V21h-2.1v-8.2h-3.9V21h-2.1v-8.2h-1.4v-1.5
					l1.4-0.1v-1c0-2.1,1-3.4,3.3-3.4c0.7,0,1.4,0.1,1.9,0.4l-0.4,1.5c-0.4-0.2-0.8-0.3-1.3-0.3c-0.9,0-1.4,0.6-1.4,1.8v1h3.9V9.9
					c0-2,0.9-3.4,3.1-3.4c0.7,0,1.3,0.1,1.8,0.3L54.5,8.3z"/>
				<path d="M55,16.1c0-3.2,2.2-5.2,4.5-5.2c2.6,0,4,1.9,4,4.7c0,0.4,0,0.8-0.1,1h-6.4c0.2,1.9,1.4,3,3.1,3c0.9,0,1.6-0.3,2.4-0.7
					l0.7,1.3c-0.9,0.6-2.1,1-3.3,1C57.2,21.2,55,19.3,55,16.1z M61.8,15.2c0-1.7-0.8-2.7-2.2-2.7c-1.2,0-2.3,1-2.5,2.7H61.8z"/>
				<path d="M65.2,16.1c0-3.3,2.3-5.2,4.9-5.2c1.3,0,2.2,0.5,2.9,1.1l-1,1.4c-0.5-0.5-1.1-0.8-1.8-0.8c-1.7,0-2.8,1.4-2.8,3.5
					c0,2.1,1.1,3.5,2.8,3.5c0.8,0,1.6-0.4,2.2-0.9l0.8,1.4c-0.9,0.8-2.1,1.2-3.2,1.2C67.3,21.2,65.2,19.3,65.2,16.1z"/>
				<path d="M75.3,17.8v-5h-1.4v-1.5l1.5-0.1l0.2-2.7h1.7v2.7H80v1.7h-2.6v5c0,1.2,0.4,1.8,1.4,1.8c0.3,0,0.8-0.1,1.1-0.2l0.4,1.5
					c-0.6,0.2-1.2,0.4-1.9,0.4C76.1,21.2,75.3,19.8,75.3,17.8z"/>
				<path d="M85.5,16.1c0-3.3,2.2-5.2,4.7-5.2s4.7,1.9,4.7,5.2c0,3.3-2.2,5.2-4.7,5.2S85.5,19.3,85.5,16.1z M92.7,16.1
					c0-2.1-1-3.5-2.5-3.5c-1.5,0-2.5,1.4-2.5,3.5c0,2.1,1,3.5,2.5,3.5C91.7,19.5,92.7,18.2,92.7,16.1z"/>
				<path d="M102,8.3c-0.4-0.2-0.7-0.3-1.1-0.3c-0.9,0-1.3,0.6-1.3,1.8v1.3h2v1.7h-2V21h-2.1v-8.2h-1.4v-1.5l1.4-0.1V9.9
					c0-2,0.9-3.4,3.1-3.4c0.7,0,1.3,0.1,1.7,0.3L102,8.3z"/>
				<path d="M107.2,8c0-0.7,0.6-1.2,1.3-1.2s1.3,0.5,1.3,1.2c0,0.7-0.6,1.2-1.3,1.2S107.2,8.7,107.2,8z M107.5,11.1h2.1V21h-2.1
					V11.1z"/>
				<path d="M112.6,11.1h1.7l0.2,1.4h0.1c0.9-0.9,1.9-1.6,3.3-1.6c2.1,0,3,1.4,3,3.9V21h-2.1v-6c0-1.7-0.5-2.4-1.7-2.4
					c-0.9,0-1.5,0.5-2.4,1.3v7h-2.1V11.1z"/>
				<path d="M124.2,17.8v-5h-1.4v-1.5l1.5-0.1l0.2-2.7h1.7v2.7h2.6v1.7h-2.6v5c0,1.2,0.4,1.8,1.4,1.8c0.3,0,0.8-0.1,1.1-0.2l0.4,1.5
					c-0.6,0.2-1.2,0.4-1.9,0.4C124.9,21.2,124.2,19.8,124.2,17.8z"/>
				<path d="M131,11.1h1.7l0.2,1.8h0.1c0.7-1.3,1.7-2,2.8-2c0.5,0,0.8,0.1,1.1,0.2l-0.4,1.8c-0.3-0.1-0.6-0.2-1-0.2
					c-0.8,0-1.8,0.6-2.4,2.1V21H131V11.1z"/>
				<path d="M137.3,18.4c0-2.1,1.8-3.2,5.9-3.7c0-1.2-0.4-2.2-1.9-2.2c-1,0-2,0.5-2.9,1l-0.8-1.4c1-0.6,2.4-1.3,4-1.3
					c2.5,0,3.6,1.6,3.6,4.2v6h-1.7l-0.2-1.1h-0.1c-0.9,0.8-2,1.4-3.2,1.4C138.5,21.2,137.3,20.1,137.3,18.4z M143.2,18.4V16
					c-2.9,0.4-3.9,1.1-3.9,2.2c0,1,0.7,1.4,1.5,1.4C141.7,19.6,142.4,19.2,143.2,18.4z"/>
				<path d="M148.2,11.1h1.7l0.2,1.4h0.1c0.8-0.9,1.8-1.6,3.1-1.6c1.5,0,2.3,0.7,2.7,1.8c1-1,2-1.8,3.2-1.8c2.1,0,3,1.4,3,3.9V21
					h-2.1v-6c0-1.7-0.5-2.4-1.7-2.4c-0.7,0-1.4,0.5-2.2,1.3v7h-2.1v-6c0-1.7-0.5-2.4-1.7-2.4c-0.7,0-1.4,0.5-2.2,1.3v7h-2.1V11.1z"
					/>
				<path d="M169.5,21.6c-0.8,2.1-1.8,3.5-3.9,3.5c-0.5,0-0.9-0.1-1.2-0.2l0.4-1.6c0.2,0.1,0.5,0.1,0.7,0.1c1.1,0,1.7-0.8,2.1-1.9
					l0.2-0.7l-3.9-9.8h2.1l1.8,5.1c0.3,0.9,0.6,1.9,0.9,2.8h0.1l0.8-2.8l1.6-5.1h2L169.5,21.6z"/>
				<path d="M174.1,16.1c0-3.3,2.2-5.2,4.7-5.2c2.4,0,4.7,1.9,4.7,5.2c0,3.3-2.2,5.2-4.7,5.2C176.3,21.2,174.1,19.3,174.1,16.1z
					 M181.3,16.1c0-2.1-1-3.5-2.5-3.5c-1.5,0-2.5,1.4-2.5,3.5c0,2.1,1,3.5,2.5,3.5C180.4,19.5,181.3,18.2,181.3,16.1z"/>
				<path d="M185.2,16.1c0-3.3,2.3-5.2,4.9-5.2c1.3,0,2.2,0.5,2.9,1.1l-1,1.4c-0.5-0.5-1.1-0.8-1.8-0.8c-1.7,0-2.8,1.4-2.8,3.5
					c0,2.1,1.1,3.5,2.8,3.5c0.8,0,1.6-0.4,2.2-0.9l0.8,1.4c-0.9,0.8-2.1,1.2-3.2,1.2C187.2,21.2,185.2,19.3,185.2,16.1z"/>
				<path d="M194.4,18.4c0-2.1,1.8-3.2,5.9-3.7c0-1.2-0.4-2.2-1.9-2.2c-1,0-2,0.5-2.9,1l-0.8-1.4c1-0.6,2.4-1.3,4-1.3
					c2.5,0,3.6,1.6,3.6,4.2v6h-1.7l-0.2-1.1h-0.1c-0.9,0.8-2,1.4-3.2,1.4C195.6,21.2,194.4,20.1,194.4,18.4z M200.3,18.4V16
					c-2.9,0.4-3.9,1.1-3.9,2.2c0,1,0.7,1.4,1.5,1.4C198.8,19.6,199.5,19.2,200.3,18.4z"/>
				<path d="M205.3,11.1h1.7l0.2,1.8h0.1c0.7-1.3,1.7-2,2.8-2c0.5,0,0.8,0.1,1.1,0.2l-0.4,1.8c-0.3-0.1-0.6-0.2-1-0.2
					c-0.8,0-1.8,0.6-2.4,2.1V21h-2.1V11.1z"/>
				<path d="M211.8,16.1c0-3.2,2-5.2,4.2-5.2c1.1,0,1.9,0.4,2.7,1.1l-0.1-1.6V6.6h2.1V21H219l-0.2-1.1h-0.1
					c-0.7,0.8-1.8,1.4-2.9,1.4C213.4,21.2,211.8,19.3,211.8,16.1z M218.7,18.3v-4.8c-0.7-0.7-1.4-0.9-2.2-0.9
					c-1.4,0-2.5,1.3-2.5,3.5c0,2.3,0.9,3.5,2.4,3.5C217.2,19.5,217.9,19.1,218.7,18.3z"/>
				<path d="M223.6,8c0-0.7,0.6-1.2,1.3-1.2c0.8,0,1.3,0.5,1.3,1.2c0,0.7-0.6,1.2-1.3,1.2C224.1,9.2,223.6,8.7,223.6,8z M223.8,11.1
					h2.1V21h-2.1V11.1z"/>
				<path d="M228.4,18.4c0-2.1,1.8-3.2,5.9-3.7c0-1.2-0.4-2.2-1.9-2.2c-1,0-2,0.5-2.9,1l-0.8-1.4c1-0.6,2.4-1.3,4-1.3
					c2.5,0,3.6,1.6,3.6,4.2v6h-1.7l-0.2-1.1h-0.1c-0.9,0.8-2,1.4-3.2,1.4C229.6,21.2,228.4,20.1,228.4,18.4z M234.4,18.4V16
					c-2.9,0.4-3.9,1.1-3.9,2.2c0,1,0.7,1.4,1.5,1.4C232.8,19.6,233.5,19.2,234.4,18.4z"/>
				<path d="M239.4,18.7v-12h2.1v12.1c0,0.6,0.3,0.8,0.5,0.8c0.1,0,0.2,0,0.3,0l0.3,1.6c-0.3,0.1-0.6,0.2-1.1,0.2
					C239.9,21.2,239.4,20.3,239.4,18.7z"/>
				<path d="M247.2,7.7h2.2l2,6.9c0.5,1.5,0.7,2.8,1.2,4.3h0.1c0.5-1.5,0.8-2.8,1.2-4.3l2-6.9h2.1L253.8,21h-2.5L247.2,7.7z"/>
				<path d="M259.6,7.7h2.4l2.4,6.7c0.3,0.9,0.6,1.8,0.9,2.7h0.1c0.3-0.9,0.6-1.8,0.9-2.7l2.4-6.7h2.4V21h-1.9v-6.6
					c0-1.2,0.2-2.9,0.3-4.1h-0.1l-1.1,3.1l-2.3,6.3h-1.3l-2.3-6.3l-1-3.1h-0.1c0.1,1.2,0.3,2.9,0.3,4.1V21h-1.9V7.7z"/>
				<path d="M273.6,19.8c3.9-3.5,5.9-6,5.9-8.2c0-1.4-0.8-2.4-2.3-2.4c-1,0-1.9,0.7-2.6,1.5l-1.2-1.2c1.1-1.2,2.3-2,4-2
					c2.4,0,4,1.6,4,4c0,2.6-2,5.2-4.8,7.9c0.7-0.1,1.5-0.1,2.2-0.1h3.3V21h-8.6V19.8z"/>
				<path d="M283.9,14.3c0-4.6,1.7-6.8,4.3-6.8c2.6,0,4.3,2.3,4.3,6.8c0,4.6-1.7,6.9-4.3,6.9C285.6,21.2,283.9,18.9,283.9,14.3z
					 M290.5,14.3c0-3.8-1-5.2-2.3-5.2c-1.3,0-2.3,1.4-2.3,5.2c0,3.8,1,5.3,2.3,5.3C289.6,19.6,290.5,18.2,290.5,14.3z"/>
				<path d="M294.1,19.8c3.9-3.5,5.9-6,5.9-8.2c0-1.4-0.8-2.4-2.3-2.4c-1,0-1.9,0.7-2.6,1.5L294,9.5c1.1-1.2,2.3-2,4-2
					c2.4,0,4,1.6,4,4c0,2.6-2,5.2-4.8,7.9c0.7-0.1,1.5-0.1,2.2-0.1h3.3V21h-8.6V19.8z"/>
			</g>
			<text transform="matrix(1 0 0 1 303.8469 21)" class="st5 st6"> </text>
			<g class="st1">
				<path d="M80.5,35c0-0.7,0.6-1.2,1.3-1.2s1.3,0.5,1.3,1.2c0,0.7-0.6,1.2-1.3,1.2S80.5,35.7,80.5,35z M80.8,38.1h2.1V48h-2.1V38.1
					z"/>
				<path d="M86,38.1h1.7l0.2,1.4h0.1c0.9-0.9,1.9-1.6,3.3-1.6c2.1,0,3,1.4,3,3.9V48h-2.1v-6c0-1.7-0.5-2.4-1.7-2.4
					c-0.9,0-1.5,0.5-2.4,1.3v7H86V38.1z"/>
				<path d="M94.8,52l0.4-1.5c0.3,0.1,0.6,0.2,0.9,0.2c0.9,0,1.2-0.7,1.2-1.8V38.1h2.1v10.6c0,2.1-0.8,3.5-3,3.5
					C95.6,52.3,95.1,52.1,94.8,52z M96.9,35c0-0.7,0.6-1.2,1.3-1.2s1.3,0.5,1.3,1.2c0,0.7-0.6,1.2-1.3,1.2S96.9,35.7,96.9,35z"/>
				<path d="M101.7,43.1c0-3.2,2.2-5.2,4.5-5.2c2.6,0,4,1.9,4,4.7c0,0.4,0,0.8-0.1,1h-6.4c0.2,1.9,1.4,3,3.1,3
					c0.9,0,1.6-0.3,2.4-0.7l0.7,1.3c-0.9,0.6-2.1,1-3.3,1C103.8,48.2,101.7,46.3,101.7,43.1z M108.5,42.2c0-1.7-0.8-2.7-2.2-2.7
					c-1.2,0-2.3,1-2.5,2.7H108.5z"/>
				<path d="M111.9,43.1c0-3.3,2.3-5.2,4.9-5.2c1.3,0,2.2,0.5,2.9,1.1l-1,1.4c-0.5-0.5-1.1-0.8-1.8-0.8c-1.7,0-2.8,1.4-2.8,3.5
					c0,2.1,1.1,3.5,2.8,3.5c0.8,0,1.6-0.4,2.2-0.9l0.8,1.4c-0.9,0.8-2.1,1.2-3.2,1.2C113.9,48.2,111.9,46.3,111.9,43.1z"/>
				<path d="M122,44.8v-5h-1.4v-1.5l1.5-0.1l0.2-2.7h1.7v2.7h2.6v1.7h-2.6v5c0,1.2,0.4,1.8,1.4,1.8c0.3,0,0.8-0.1,1.1-0.2l0.4,1.5
					c-0.6,0.2-1.2,0.4-1.9,0.4C122.8,48.2,122,46.8,122,44.8z"/>
				<path d="M128.5,35c0-0.7,0.6-1.2,1.3-1.2s1.3,0.5,1.3,1.2c0,0.7-0.6,1.2-1.3,1.2S128.5,35.7,128.5,35z M128.8,38.1h2.1V48h-2.1
					V38.1z"/>
				<path d="M133.3,43.1c0-3.3,2.2-5.2,4.7-5.2s4.7,1.9,4.7,5.2c0,3.3-2.2,5.2-4.7,5.2S133.3,46.3,133.3,43.1z M140.5,43.1
					c0-2.1-1-3.5-2.5-3.5c-1.5,0-2.5,1.4-2.5,3.5c0,2.1,1,3.5,2.5,3.5C139.5,46.5,140.5,45.2,140.5,43.1z"/>
				<path d="M145,38.1h1.7l0.2,1.4h0.1c0.9-0.9,1.9-1.6,3.3-1.6c2.1,0,3,1.4,3,3.9V48h-2.1v-6c0-1.7-0.5-2.4-1.7-2.4
					c-0.9,0-1.5,0.5-2.4,1.3v7H145V38.1z"/>
				<path d="M159.6,43.1c0-3.3,2.2-5.2,4.7-5.2s4.7,1.9,4.7,5.2c0,3.3-2.2,5.2-4.7,5.2S159.6,46.3,159.6,43.1z M166.8,43.1
					c0-2.1-1-3.5-2.5-3.5c-1.5,0-2.5,1.4-2.5,3.5c0,2.1,1,3.5,2.5,3.5C165.8,46.5,166.8,45.2,166.8,43.1z"/>
				<path d="M171.3,38.1h1.7l0.2,1.4h0.1c0.9-0.9,1.9-1.6,3.3-1.6c2.1,0,3,1.4,3,3.9V48h-2.1v-6c0-1.7-0.5-2.4-1.7-2.4
					c-0.9,0-1.5,0.5-2.4,1.3v7h-2.1V38.1z"/>
				<path d="M186.6,38.1h1.7l0.2,1.8h0.1c0.7-1.3,1.7-2,2.8-2c0.5,0,0.8,0.1,1.1,0.2l-0.4,1.8c-0.3-0.1-0.6-0.2-1-0.2
					c-0.8,0-1.8,0.6-2.4,2.1V48h-2.1V38.1z"/>
				<path d="M193.1,43.1c0-3.2,2.2-5.2,4.5-5.2c2.6,0,4,1.9,4,4.7c0,0.4,0,0.8-0.1,1h-6.4c0.2,1.9,1.4,3,3.1,3
					c0.9,0,1.6-0.3,2.4-0.7l0.7,1.3c-0.9,0.6-2.1,1-3.3,1C195.2,48.2,193.1,46.3,193.1,43.1z M199.9,42.2c0-1.7-0.8-2.7-2.2-2.7
					c-1.2,0-2.3,1-2.5,2.7H199.9z"/>
				<path d="M203,49.8c0-0.8,0.5-1.6,1.4-2.2v-0.1c-0.5-0.3-0.9-0.8-0.9-1.6c0-0.8,0.6-1.4,1.1-1.8V44c-0.7-0.5-1.3-1.5-1.3-2.6
					c0-2.3,1.8-3.6,3.8-3.6c0.6,0,1.1,0.1,1.4,0.3h3.5v1.5h-1.9c0.4,0.4,0.6,1.1,0.6,1.8c0,2.2-1.6,3.4-3.7,3.4
					c-0.5,0-1-0.1-1.4-0.3c-0.3,0.3-0.5,0.6-0.5,1c0,0.6,0.4,1,1.7,1h1.8c2.3,0,3.6,0.7,3.6,2.4c0,1.9-2,3.5-5.2,3.5
					C204.8,52.4,203,51.6,203,49.8z M210.3,49.3c0-0.8-0.6-1.1-1.9-1.1H207c-0.5,0-0.9-0.1-1.3-0.1c-0.6,0.4-0.8,0.9-0.8,1.4
					c0,1,1,1.5,2.6,1.5C209.2,51.1,210.3,50.2,210.3,49.3z M209.1,41.4c0-1.3-0.8-2.1-1.9-2.1c-1,0-1.9,0.8-1.9,2.1
					c0,1.3,0.8,2.1,1.9,2.1S209.1,42.7,209.1,41.4z"/>
				<path d="M213.9,35c0-0.7,0.6-1.2,1.3-1.2c0.8,0,1.3,0.5,1.3,1.2c0,0.7-0.6,1.2-1.3,1.2C214.4,36.2,213.9,35.7,213.9,35z
					 M214.2,38.1h2.1V48h-2.1V38.1z"/>
				<path d="M218.6,43.1c0-3.3,2.2-5.2,4.7-5.2c2.4,0,4.7,1.9,4.7,5.2c0,3.3-2.2,5.2-4.7,5.2C220.8,48.2,218.6,46.3,218.6,43.1z
					 M225.8,43.1c0-2.1-1-3.5-2.5-3.5c-1.5,0-2.5,1.4-2.5,3.5c0,2.1,1,3.5,2.5,3.5C224.9,46.5,225.8,45.2,225.8,43.1z"/>
				<path d="M230.4,38.1h1.7l0.2,1.4h0.1c0.9-0.9,1.9-1.6,3.3-1.6c2.1,0,3,1.4,3,3.9V48h-2.1v-6c0-1.7-0.5-2.4-1.7-2.4
					c-0.9,0-1.5,0.5-2.4,1.3v7h-2.1V38.1z"/>
				<path d="M241,45.4c0-2.1,1.8-3.2,5.9-3.7c0-1.2-0.4-2.2-1.9-2.2c-1,0-2,0.5-2.9,1l-0.8-1.4c1-0.6,2.4-1.3,4-1.3
					c2.5,0,3.6,1.6,3.6,4.2v6h-1.7l-0.2-1.1h-0.1c-0.9,0.8-2,1.4-3.2,1.4C242.2,48.2,241,47.1,241,45.4z M247,45.4V43
					c-2.9,0.4-3.9,1.1-3.9,2.2c0,1,0.7,1.4,1.5,1.4C245.4,46.6,246.2,46.2,247,45.4z"/>
				<path d="M252,45.7v-12h2.1v12.1c0,0.6,0.3,0.8,0.5,0.8c0.1,0,0.2,0,0.3,0l0.3,1.6c-0.3,0.1-0.6,0.2-1.1,0.2
					C252.5,48.2,252,47.3,252,45.7z"/>
			</g>
			<text transform="matrix(1 0 0 1 255.7609 48)" class="st5 st6"> </text>
			<g class="st1">
				<path d="M82.6,65.1h1.7l0.2,1.4h0.1c0.8-0.9,1.8-1.6,3.1-1.6c1.5,0,2.3,0.7,2.7,1.8c1-1,2-1.8,3.2-1.8c2.1,0,3,1.4,3,3.9V75
					h-2.1v-6c0-1.7-0.5-2.4-1.7-2.4c-0.7,0-1.4,0.5-2.2,1.3v7h-2.1v-6c0-1.7-0.5-2.4-1.7-2.4c-0.7,0-1.4,0.5-2.2,1.3v7h-2.1V65.1z"
					/>
				<path d="M103.9,75.6c-0.8,2.1-1.8,3.5-3.9,3.5c-0.5,0-0.9-0.1-1.2-0.2l0.4-1.6c0.2,0.1,0.5,0.1,0.7,0.1c1.1,0,1.7-0.8,2.1-1.9
					l0.2-0.7l-3.9-9.8h2.1l1.8,5.1c0.3,0.9,0.6,1.9,0.9,2.8h0.1l0.8-2.8l1.6-5.1h2L103.9,75.6z"/>
				<path d="M108.6,70.1c0-3.3,2.2-5.2,4.7-5.2s4.7,1.9,4.7,5.2c0,3.3-2.2,5.2-4.7,5.2S108.6,73.3,108.6,70.1z M115.8,70.1
					c0-2.1-1-3.5-2.5-3.5c-1.5,0-2.5,1.4-2.5,3.5c0,2.1,1,3.5,2.5,3.5C114.8,73.5,115.8,72.2,115.8,70.1z"/>
				<path d="M119.6,70.1c0-3.3,2.3-5.2,4.9-5.2c1.3,0,2.2,0.5,2.9,1.1l-1,1.4c-0.5-0.5-1.1-0.8-1.8-0.8c-1.7,0-2.8,1.4-2.8,3.5
					c0,2.1,1.1,3.5,2.8,3.5c0.8,0,1.6-0.4,2.2-0.9l0.8,1.4c-0.9,0.8-2.1,1.2-3.2,1.2C121.7,75.2,119.6,73.3,119.6,70.1z"/>
				<path d="M128.9,72.4c0-2.1,1.8-3.2,5.9-3.7c0-1.2-0.4-2.2-1.9-2.2c-1,0-2,0.5-2.9,1l-0.8-1.4c1-0.6,2.4-1.3,4-1.3
					c2.5,0,3.6,1.6,3.6,4.2v6h-1.7l-0.2-1.1h-0.1c-0.9,0.8-2,1.4-3.2,1.4C130.1,75.2,128.9,74.1,128.9,72.4z M134.8,72.4V70
					c-2.9,0.4-3.9,1.1-3.9,2.2c0,1,0.7,1.4,1.5,1.4C133.3,73.6,134,73.2,134.8,72.4z"/>
				<path d="M139.8,65.1h1.7l0.2,1.8h0.1c0.7-1.3,1.7-2,2.8-2c0.5,0,0.8,0.1,1.1,0.2l-0.4,1.8c-0.3-0.1-0.6-0.2-1-0.2
					c-0.8,0-1.8,0.6-2.4,2.1V75h-2.1V65.1z"/>
				<path d="M146.3,70.1c0-3.2,2-5.2,4.2-5.2c1.1,0,1.9,0.4,2.7,1.1l-0.1-1.6v-3.7h2.1V75h-1.7l-0.2-1.1h-0.1
					c-0.7,0.8-1.8,1.4-2.9,1.4C147.9,75.2,146.3,73.3,146.3,70.1z M153.1,72.3v-4.8c-0.7-0.7-1.4-0.9-2.2-0.9
					c-1.4,0-2.5,1.3-2.5,3.5c0,2.3,0.9,3.5,2.4,3.5C151.7,73.5,152.4,73.1,153.1,72.3z"/>
				<path d="M158,62c0-0.7,0.6-1.2,1.3-1.2s1.3,0.5,1.3,1.2c0,0.7-0.6,1.2-1.3,1.2S158,62.7,158,62z M158.3,65.1h2.1V75h-2.1V65.1z"
					/>
				<path d="M162.9,72.4c0-2.1,1.8-3.2,5.9-3.7c0-1.2-0.4-2.2-1.9-2.2c-1,0-2,0.5-2.9,1l-0.8-1.4c1-0.6,2.4-1.3,4-1.3
					c2.5,0,3.6,1.6,3.6,4.2v6h-1.7l-0.2-1.1h-0.1c-0.9,0.8-2,1.4-3.2,1.4C164.1,75.2,162.9,74.1,162.9,72.4z M168.8,72.4V70
					c-2.9,0.4-3.9,1.1-3.9,2.2c0,1,0.7,1.4,1.5,1.4C167.3,73.6,168,73.2,168.8,72.4z"/>
				<path d="M173.8,72.7v-12h2.1v12.1c0,0.6,0.3,0.8,0.5,0.8c0.1,0,0.2,0,0.3,0l0.3,1.6c-0.3,0.1-0.6,0.2-1.1,0.2
					C174.4,75.2,173.8,74.3,173.8,72.7z"/>
				<path d="M188,62.3c-0.4-0.2-0.7-0.3-1.1-0.3c-0.9,0-1.3,0.6-1.3,1.8v1.3h2v1.7h-2V75h-2.1v-8.2h-1.4v-1.5l1.4-0.1v-1.2
					c0-2,0.9-3.4,3.1-3.4c0.7,0,1.3,0.1,1.7,0.3L188,62.3z"/>
				<path d="M189.3,71.3v-6.2h2.1v6c0,1.7,0.5,2.4,1.7,2.4c0.9,0,1.5-0.4,2.4-1.5v-6.9h2.1V75h-1.7l-0.2-1.5h-0.1
					c-0.9,1-1.9,1.7-3.2,1.7C190.2,75.2,189.3,73.8,189.3,71.3z"/>
				<path d="M200.6,65.1h1.7l0.2,1.4h0.1c0.9-0.9,1.9-1.6,3.3-1.6c2.1,0,3,1.4,3,3.9V75h-2.1v-6c0-1.7-0.5-2.4-1.7-2.4
					c-0.9,0-1.5,0.5-2.4,1.3v7h-2.1V65.1z"/>
				<path d="M211.1,70.1c0-3.3,2.3-5.2,4.9-5.2c1.3,0,2.2,0.5,2.9,1.1l-1,1.4c-0.5-0.5-1.1-0.8-1.8-0.8c-1.7,0-2.8,1.4-2.8,3.5
					c0,2.1,1.1,3.5,2.8,3.5c0.8,0,1.6-0.4,2.2-0.9l0.8,1.4c-0.9,0.8-2.1,1.2-3.2,1.2C213.2,75.2,211.1,73.3,211.1,70.1z"/>
				<path d="M221.2,71.8v-5h-1.4v-1.5l1.5-0.1l0.2-2.7h1.7v2.7h2.6v1.7h-2.6v5c0,1.2,0.4,1.8,1.4,1.8c0.3,0,0.8-0.1,1.1-0.2l0.4,1.5
					c-0.6,0.2-1.2,0.4-1.9,0.4C222,75.2,221.2,73.8,221.2,71.8z"/>
				<path d="M227.8,62c0-0.7,0.6-1.2,1.3-1.2c0.8,0,1.3,0.5,1.3,1.2c0,0.7-0.6,1.2-1.3,1.2C228.3,63.2,227.8,62.7,227.8,62z
					 M228.1,65.1h2.1V75h-2.1V65.1z"/>
				<path d="M232.5,70.1c0-3.3,2.2-5.2,4.7-5.2c2.4,0,4.7,1.9,4.7,5.2c0,3.3-2.2,5.2-4.7,5.2C234.7,75.2,232.5,73.3,232.5,70.1z
					 M239.7,70.1c0-2.1-1-3.5-2.5-3.5c-1.5,0-2.5,1.4-2.5,3.5c0,2.1,1,3.5,2.5,3.5C238.7,73.5,239.7,72.2,239.7,70.1z"/>
				<path d="M244.3,65.1h1.7l0.2,1.4h0.1c0.9-0.9,1.9-1.6,3.3-1.6c2.1,0,3,1.4,3,3.9V75h-2.1v-6c0-1.7-0.5-2.4-1.7-2.4
					c-0.9,0-1.5,0.5-2.4,1.3v7h-2.1V65.1z"/>
			</g>
		</g>
	</g>
</g>
</svg>
