<?xml version="1.0" encoding="utf-8"?>
<!-- Generator: Adobe Illustrator 23.0.1, SVG Export Plug-In . SVG Version: 6.00 Build 0)  -->
<svg version="1.1" id="Layer_1" xmlns="http://www.w3.org/2000/svg" xmlns:xlink="http://www.w3.org/1999/xlink" x="0px" y="0px"
	 viewBox="0 0 425 989" style="enable-background:new 0 0 425 989;" xml:space="preserve">
<style type="text/css">
	.st0{enable-background:new    ;}
	.st1{fill:none;stroke:#979797;stroke-linecap:square;}
	.st2{fill:none;stroke:#B6CCD1;stroke-linecap:square;}
	.st3{fill-rule:evenodd;clip-rule:evenodd;fill:#2EB3D1;}
	.st4{fill-rule:evenodd;clip-rule:evenodd;fill:#F8E71C;}
	.st5{fill-rule:evenodd;clip-rule:evenodd;fill:#99BC12;}
	.st6{fill-rule:evenodd;clip-rule:evenodd;fill:#DE9F46;}
	.st7{fill-rule:evenodd;clip-rule:evenodd;fill:#9013FE;}
	.st8{fill-rule:evenodd;clip-rule:evenodd;fill:#3A3E5F;}
	.st9{fill-rule:evenodd;clip-rule:evenodd;fill:#D0021B;}
	.st10{fill-rule:evenodd;clip-rule:evenodd;fill:#56BCE5;}
	.st11{fill-rule:evenodd;clip-rule:evenodd;fill:#9B9B9B;}
	.st12{fill-rule:evenodd;clip-rule:evenodd;fill:#5381B1;}
	.st13{fill-rule:evenodd;clip-rule:evenodd;fill:#417505;}
	.st14{fill-rule:evenodd;clip-rule:evenodd;fill:#5158A3;}
	.st15{fill-rule:evenodd;clip-rule:evenodd;fill:#D3D3D3;}
	.st16{fill-rule:evenodd;clip-rule:evenodd;fill:#8BD9EA;}
	.st17{fill-rule:evenodd;clip-rule:evenodd;fill:#F77020;}
	.st18{fill-rule:evenodd;clip-rule:evenodd;fill:#F5A623;}
	.st19{fill-rule:evenodd;clip-rule:evenodd;fill:#80A8D1;}
	.st20{fill-rule:evenodd;clip-rule:evenodd;fill:#272B46;}
	.st21{fill-rule:evenodd;clip-rule:evenodd;fill:#C3D9DE;}
	.st22{fill-rule:evenodd;clip-rule:evenodd;fill:#A0CDD7;}
	.st23{fill-rule:evenodd;clip-rule:evenodd;fill:#C4CBD5;}
	.st24{fill-rule:evenodd;clip-rule:evenodd;fill:#DCDCDC;}
	.st25{fill-rule:evenodd;clip-rule:evenodd;fill:#B54142;}
	.st26{fill-rule:evenodd;clip-rule:evenodd;fill:#9BB5D0;}
	.st27{fill-rule:evenodd;clip-rule:evenodd;fill:#FBD9A2;}
	.st28{fill-rule:evenodd;clip-rule:evenodd;fill:#702D2E;}
	.st29{fill-rule:evenodd;clip-rule:evenodd;fill:#ADBAD1;}
	.st30{fill-rule:evenodd;clip-rule:evenodd;fill:#8B572A;}
	.st31{fill-rule:evenodd;clip-rule:evenodd;fill:#BED6F1;}
	.st32{fill-rule:evenodd;clip-rule:evenodd;fill:#6500BE;}
	.st33{fill-rule:evenodd;clip-rule:evenodd;fill:#BBDEEC;}
	.st34{fill-rule:evenodd;clip-rule:evenodd;fill:#E7E7E7;}
	.st35{fill-rule:evenodd;clip-rule:evenodd;fill:#9DD364;}
	.st36{fill-rule:evenodd;clip-rule:evenodd;fill:#A0D1E1;}
	.st37{fill-rule:evenodd;clip-rule:evenodd;fill:#D1E4EA;}
	.st38{fill-rule:evenodd;clip-rule:evenodd;fill:#DEDEDE;}
	.st39{fill-rule:evenodd;clip-rule:evenodd;fill:#ADADAD;}
	.st40{fill-rule:evenodd;clip-rule:evenodd;fill:#6C3C95;}
	.st41{fill-rule:evenodd;clip-rule:evenodd;fill:#AF4829;}
	.st42{fill-rule:evenodd;clip-rule:evenodd;fill:#B6CDE4;}
	.st43{fill-rule:evenodd;clip-rule:evenodd;fill:#F5D59F;}
</style>
<title>그래프2</title>
<desc>Created with Sketch.</desc>
<g id="Page-1">
	<g transform="translate(-269.000000, -7603.000000)">
		<g id="그래프2" transform="translate(265.000000, 7597.000000)">
			<g id="그래프1" transform="translate(0.000000, 47.000000)">
				<g id="table">
					<g class="st0">
						<path d="M45.2,5.4h5.9V7h-4v2.2h3.4v1.6h-3.4v2.6h4.1V15h-6V5.4z"/>
						<path d="M61.4,6.1C61.2,6,60.9,6,60.7,6c-0.6,0-0.9,0.3-0.9,1.1v0.6h1.4v1.5h-1.4V15h-1.9V9.2h-2.6V15h-1.9V9.2h-1V7.8l1-0.1
							V7.2c0-1.5,0.8-2.6,2.6-2.6c0.6,0,1.1,0.1,1.5,0.3l-0.4,1.4c-0.3-0.1-0.5-0.2-0.9-0.2c-0.6,0-0.9,0.4-0.9,1.1v0.5h2.6V7.1
							c0-1.5,0.7-2.7,2.5-2.7c0.6,0,1.1,0.1,1.4,0.3L61.4,6.1z"/>
						<path d="M61.8,11.4c0-2.4,1.7-3.8,3.4-3.8c2,0,3,1.5,3,3.5c0,0.4,0,0.7-0.1,0.9h-4.5c0.2,1.2,0.9,1.8,2,1.8
							c0.6,0,1.1-0.2,1.6-0.5l0.6,1.2c-0.7,0.5-1.6,0.8-2.5,0.8C63.4,15.2,61.8,13.8,61.8,11.4z M66.6,10.6c0-1-0.4-1.6-1.4-1.6
							c-0.8,0-1.4,0.5-1.6,1.6H66.6z"/>
						<path d="M69.3,11.4c0-2.4,1.7-3.8,3.7-3.8c0.9,0,1.6,0.4,2.1,0.8l-0.9,1.2c-0.4-0.3-0.7-0.5-1.1-0.5c-1.1,0-1.9,0.9-1.9,2.3
							c0,1.4,0.8,2.2,1.8,2.2c0.5,0,1-0.2,1.4-0.6l0.8,1.3c-0.7,0.6-1.6,0.9-2.4,0.9C70.9,15.2,69.3,13.8,69.3,11.4z"/>
						<path d="M76.7,12.5V9.2h-1V7.8l1.1-0.1l0.2-2h1.6v2h1.8v1.5h-1.8v3.2c0,0.8,0.3,1.2,1,1.2c0.2,0,0.5-0.1,0.7-0.2l0.3,1.4
							c-0.4,0.1-0.9,0.3-1.5,0.3C77.4,15.2,76.7,14.1,76.7,12.5z"/>
						<path d="M81.1,14.2L82,13c0.6,0.5,1.3,0.8,2,0.8c0.7,0,1.1-0.3,1.1-0.8c0-0.5-0.8-0.8-1.5-1.1c-0.9-0.4-2-0.9-2-2.1
							c0-1.3,1.1-2.2,2.7-2.2c1.1,0,1.9,0.4,2.5,0.9l-0.9,1.2c-0.5-0.4-1-0.6-1.6-0.6c-0.6,0-1,0.3-1,0.7c0,0.5,0.7,0.7,1.5,1
							c1,0.4,2,0.8,2,2.2c0,1.3-1,2.3-2.9,2.3C82.9,15.2,81.8,14.8,81.1,14.2z"/>
						<path d="M90.7,11.4c0-2.4,1.7-3.8,3.5-3.8c1.8,0,3.5,1.4,3.5,3.8c0,2.4-1.7,3.8-3.5,3.8C92.4,15.2,90.7,13.8,90.7,11.4z
							 M95.8,11.4c0-1.4-0.6-2.3-1.5-2.3c-1,0-1.5,0.9-1.5,2.3c0,1.4,0.6,2.2,1.5,2.2C95.2,13.6,95.8,12.7,95.8,11.4z"/>
						<path d="M103.1,6.1C102.9,6,102.6,6,102.4,6c-0.6,0-0.9,0.3-0.9,1.1v0.6h1.4v1.5h-1.4V15h-1.9V9.2h-1V7.8l1-0.1V7.1
							c0-1.5,0.7-2.7,2.5-2.7c0.6,0,1.1,0.1,1.4,0.3L103.1,6.1z"/>
						<path d="M107.2,5.4h5.9V7h-4v2.2h3.4v1.6h-3.4v2.6h4.1V15h-6V5.4z"/>
						<path d="M115,7.7h1.6l0.1,1h0.1c0.6-0.6,1.4-1.1,2.4-1.1c1.6,0,2.2,1.1,2.2,2.9V15h-1.9v-4.3c0-1.1-0.3-1.5-1-1.5
							c-0.6,0-1,0.3-1.5,0.8v5H115V7.7z"/>
						<path d="M122.9,16.3c0-0.6,0.4-1.1,1-1.5v-0.1c-0.4-0.2-0.7-0.6-0.7-1.2c0-0.5,0.4-1.1,0.8-1.4v-0.1c-0.5-0.4-1-1.1-1-1.9
							c0-1.7,1.4-2.6,2.9-2.6c0.4,0,0.8,0.1,1.1,0.2h2.6v1.4h-1.2c0.2,0.2,0.3,0.6,0.3,1.1c0,1.6-1.2,2.5-2.8,2.5
							c-0.3,0-0.6-0.1-0.9-0.2c-0.2,0.2-0.3,0.3-0.3,0.6c0,0.4,0.3,0.6,1.1,0.6h1.2c1.8,0,2.7,0.5,2.7,1.8c0,1.5-1.5,2.6-4,2.6
							C124.2,18.2,122.9,17.6,122.9,16.3z M128,15.9c0-0.5-0.4-0.7-1.2-0.7H126c-0.4,0-0.8,0-1-0.1c-0.3,0.3-0.5,0.5-0.5,0.8
							c0,0.6,0.7,1,1.7,1C127.3,17,128,16.5,128,15.9z M127.2,10.2c0-0.9-0.5-1.3-1.1-1.3s-1.1,0.5-1.1,1.3s0.5,1.3,1.1,1.3
							C126.7,11.5,127.2,11,127.2,10.2z"/>
						<path d="M130.4,11.4c0-2.4,1.7-3.8,3.4-3.8c2,0,3,1.5,3,3.5c0,0.4,0,0.7-0.1,0.9h-4.5c0.2,1.2,0.9,1.8,2,1.8
							c0.6,0,1.1-0.2,1.6-0.5l0.7,1.2c-0.7,0.5-1.6,0.8-2.5,0.8C132,15.2,130.4,13.8,130.4,11.4z M135.2,10.6c0-1-0.4-1.6-1.4-1.6
							c-0.8,0-1.4,0.5-1.6,1.6H135.2z"/>
						<path d="M138.4,7.7h1.6l0.1,1h0.1c0.6-0.6,1.4-1.1,2.4-1.1c1.6,0,2.2,1.1,2.2,2.9V15h-1.9v-4.3c0-1.1-0.3-1.5-1-1.5
							c-0.6,0-1,0.3-1.5,0.8v5h-1.9V7.7z"/>
						<path d="M146.1,14.2l0.9-1.2c0.6,0.5,1.3,0.8,2,0.8c0.7,0,1.1-0.3,1.1-0.8c0-0.5-0.8-0.8-1.5-1.1c-0.9-0.4-2-0.9-2-2.1
							c0-1.3,1.1-2.2,2.7-2.2c1.1,0,1.9,0.4,2.5,0.9l-0.9,1.2c-0.5-0.4-1-0.6-1.6-0.6c-0.6,0-1,0.3-1,0.7c0,0.5,0.7,0.7,1.5,1
							c1,0.4,2,0.8,2,2.2c0,1.3-1,2.3-2.9,2.3C147.9,15.2,146.8,14.8,146.1,14.2z"/>
						<path d="M153,5.5c0-0.6,0.5-1,1.1-1c0.6,0,1.1,0.4,1.1,1c0,0.6-0.5,1-1.1,1C153.5,6.5,153,6.1,153,5.5z M153.2,7.7h1.9V15
							h-1.9V7.7z"/>
						<path d="M156.4,14.2l0.9-1.2c0.6,0.5,1.3,0.8,2,0.8c0.7,0,1.1-0.3,1.1-0.8c0-0.5-0.8-0.8-1.5-1.1c-0.9-0.4-2-0.9-2-2.1
							c0-1.3,1.1-2.2,2.7-2.2c1.1,0,1.9,0.4,2.5,0.9l-0.9,1.2c-0.5-0.4-1-0.6-1.6-0.6c-0.6,0-1,0.3-1,0.7c0,0.5,0.7,0.7,1.5,1
							c1,0.4,2,0.8,2,2.2c0,1.3-1,2.3-2.9,2.3C158.2,15.2,157.2,14.8,156.4,14.2z"/>
						<path d="M166.6,10.9c0-2.6,0.7-4.7,1.9-6.7l1.2,0.5c-1.1,1.9-1.6,4.1-1.6,6.2c0,2.1,0.5,4.3,1.6,6.2l-1.2,0.5
							C167.3,15.6,166.6,13.5,166.6,10.9z"/>
						<path d="M170.3,5.4h2l1.3,4.7c0.3,1.1,0.5,2,0.8,3.1h0.1c0.3-1.1,0.5-2,0.8-3.1l1.2-4.7h2l-3,9.6h-2.3L170.3,5.4z"/>
						<path d="M179.6,5.4h2.1l1.6,4.5c0.2,0.6,0.4,1.2,0.6,1.9h0.1c0.2-0.6,0.4-1.3,0.6-1.9l1.6-4.5h2.1V15h-1.8v-4
							c0-0.9,0.1-2.2,0.2-3.2h-0.1l-0.8,2.3l-1.5,4h-1.1l-1.5-4l-0.8-2.3h-0.1c0.1,0.9,0.2,2.2,0.2,3.2v4h-1.7V5.4z"/>
						<path d="M190.1,13.9c2.6-2.3,4.2-4.1,4.2-5.6c0-1-0.5-1.6-1.4-1.6c-0.7,0-1.3,0.5-1.8,1l-1-1c0.9-0.9,1.7-1.5,3.1-1.5
							c1.8,0,3,1.2,3,3c0,1.7-1.4,3.6-3.2,5.3c0.5-0.1,1.1-0.1,1.6-0.1h2.1V15h-6.4V13.9z"/>
						<path d="M197.8,10.2c0-3.3,1.3-5,3.3-5c2,0,3.3,1.6,3.3,5c0,3.3-1.3,5-3.3,5C199.1,15.2,197.8,13.5,197.8,10.2z M202.5,10.2
							c0-2.7-0.6-3.5-1.4-3.5c-0.8,0-1.5,0.8-1.5,3.5c0,2.7,0.6,3.5,1.5,3.5C201.9,13.7,202.5,12.9,202.5,10.2z"/>
						<path d="M205.4,13.9c2.6-2.3,4.2-4.1,4.2-5.6c0-1-0.5-1.6-1.4-1.6c-0.7,0-1.3,0.5-1.8,1l-1-1c0.9-0.9,1.7-1.5,3.1-1.5
							c1.8,0,3,1.2,3,3c0,1.7-1.4,3.6-3.2,5.3c0.5-0.1,1.1-0.1,1.6-0.1h2.1V15h-6.4V13.9z"/>
						<path d="M213.2,17.1c1.1-1.9,1.6-4.1,1.6-6.2c0-2.1-0.5-4.3-1.6-6.2l1.2-0.5c1.2,2,2,4.1,2,6.7c0,2.6-0.7,4.7-2,6.7
							L213.2,17.1z"/>
						<path d="M221,11.4c0-2.4,1.7-3.8,3.5-3.8c1.8,0,3.5,1.4,3.5,3.8c0,2.4-1.7,3.8-3.5,3.8C222.6,15.2,221,13.8,221,11.4z
							 M226,11.4c0-1.4-0.6-2.3-1.5-2.3c-1,0-1.5,0.9-1.5,2.3c0,1.4,0.6,2.2,1.5,2.2C225.4,13.6,226,12.7,226,11.4z"/>
						<path d="M229.5,7.7h1.6l0.1,1h0.1c0.6-0.6,1.4-1.1,2.4-1.1c1.6,0,2.2,1.1,2.2,2.9V15H234v-4.3c0-1.1-0.3-1.5-1-1.5
							c-0.6,0-1,0.3-1.5,0.8v5h-1.9V7.7z"/>
						<path d="M245.5,12.5h-3.1l-0.7,2.5h-2l3.1-9.6h2.3l3.1,9.6h-2L245.5,12.5z M245.1,11l-0.3-1.1c-0.3-1-0.6-2.1-0.8-3.1h-0.1
							c-0.2,1.1-0.5,2.1-0.8,3.1l-0.3,1.1H245.1z"/>
						<path d="M249.3,5.4h1.9v8h3.9V15h-5.8V5.4z"/>
						<path d="M255.8,13.8l1.1-1.3c0.7,0.6,1.6,1.1,2.4,1.1c1,0,1.5-0.4,1.5-1.1c0-0.7-0.6-0.9-1.4-1.3l-1.3-0.5c-1-0.4-2-1.2-2-2.6
							c0-1.6,1.4-2.8,3.3-2.8c1.1,0,2.2,0.4,3,1.2l-1,1.2c-0.6-0.5-1.2-0.8-2-0.8c-0.8,0-1.4,0.4-1.4,1c0,0.7,0.7,0.9,1.5,1.3
							l1.3,0.5c1.2,0.5,1.9,1.2,1.9,2.6c0,1.6-1.3,2.9-3.5,2.9C258,15.2,256.7,14.7,255.8,13.8z"/>
						<path d="M264.5,5.4h5.9V7h-4v2.5h3.4v1.6h-3.4V15h-1.9V5.4z"/>
						<path d="M277.4,15l-2-3.6h-1.3V15h-1.9V5.4h3.4c2,0,3.6,0.7,3.6,2.9c0,1.4-0.7,2.3-1.8,2.8l2.2,3.9H277.4z M274.1,9.8h1.2
							c1.2,0,1.9-0.5,1.9-1.5c0-1-0.7-1.4-1.9-1.4h-1.2V9.8z"/>
						<path d="M280.2,13.8l1.1-1.3c0.7,0.6,1.6,1.1,2.4,1.1c1,0,1.5-0.4,1.5-1.1c0-0.7-0.6-0.9-1.4-1.3l-1.3-0.5c-1-0.4-2-1.2-2-2.6
							c0-1.6,1.4-2.8,3.3-2.8c1.1,0,2.2,0.4,3,1.2l-1,1.2c-0.6-0.5-1.2-0.8-2-0.8c-0.8,0-1.4,0.4-1.4,1c0,0.7,0.7,0.9,1.5,1.3
							l1.3,0.5c1.2,0.5,1.9,1.2,1.9,2.6c0,1.6-1.3,2.9-3.5,2.9C282.4,15.2,281.1,14.7,280.2,13.8z"/>
						<path d="M288.6,10.6h3.5V12h-3.5V10.6z"/>
						<path d="M299.2,15l-2-3.6h-1.3V15H294V5.4h3.4c2,0,3.6,0.7,3.6,2.9c0,1.4-0.7,2.3-1.8,2.8l2.2,3.9H299.2z M295.9,9.8h1.2
							c1.2,0,1.9-0.5,1.9-1.5c0-1-0.7-1.4-1.9-1.4h-1.2V9.8z"/>
					</g>
					<g class="st0">
						<path d="M10.7,359.8c-3.2,0-5-2-5-4.5c0-1.2,0.6-2.2,1.2-2.8l1.2,1c-0.5,0.5-0.8,1-0.8,1.8c0,1.5,1.2,2.5,3.3,2.5
							c2.1,0,3.4-1,3.4-2.5c0-0.8-0.4-1.5-0.9-2l1.2-1c0.9,0.8,1.4,1.8,1.4,3.1C15.7,357.8,13.9,359.8,10.7,359.8z"/>
						<path d="M5.1,350.9V349h2.6l1.4,0.1c-0.5-0.6-1.1-1.3-1.1-2.3c0-1.6,1.1-2.2,2.9-2.2h4.5v1.9h-4.3c-1.1,0-1.5,0.3-1.5,1
							c0,0.6,0.3,1,0.8,1.5h5v1.9H5.1z"/>
						<path d="M13.5,343c-1.6,0-2.4-1.3-2.7-4.2c-0.7,0-1.3,0.3-1.3,1.2c0,0.7,0.3,1.3,0.7,2L9,342.7c-0.5-0.9-1-1.9-1-3
							c0-1.8,1.1-2.8,3.2-2.8h4.3v1.6l-0.8,0.1v0c0.5,0.6,1,1.4,1,2.2C15.7,342.1,14.8,343,13.5,343z M13.5,338.8H12
							c0.2,1.8,0.7,2.4,1.4,2.4c0.6,0,0.8-0.4,0.8-1C14.2,339.6,13.9,339.2,13.5,338.8z"/>
						<path d="M8.2,334.9v-1.6l1-0.1v-0.1c-0.6-0.6-1.1-1.4-1.1-2.4c0-1.6,1.1-2.2,2.9-2.2h4.5v1.9h-4.3c-1.1,0-1.5,0.3-1.5,1
							c0,0.6,0.3,1,0.8,1.5h5v1.9H8.2z"/>
						<path d="M16.8,327.1c-0.6,0-1.1-0.4-1.5-1h-0.1c-0.2,0.4-0.6,0.7-1.2,0.7c-0.5,0-1.1-0.4-1.4-0.8h-0.1c-0.4,0.5-1.1,1-1.9,1
							c-1.7,0-2.6-1.4-2.6-2.9c0-0.4,0.1-0.8,0.2-1.1v-2.6h1.4v1.2c0.2-0.2,0.6-0.3,1.1-0.3c1.6,0,2.5,1.2,2.5,2.8
							c0,0.3-0.1,0.6-0.2,0.9c0.2,0.2,0.3,0.3,0.6,0.3c0.4,0,0.6-0.3,0.6-1.1v-1.2c0-1.8,0.5-2.7,1.8-2.7c1.5,0,2.6,1.5,2.6,4
							C18.7,325.8,18.1,327.1,16.8,327.1z M10.7,322.8c-0.9,0-1.3,0.5-1.3,1.1s0.5,1.1,1.3,1.1s1.3-0.5,1.3-1.1
							S11.5,322.8,10.7,322.8z M16.4,321.9c-0.5,0-0.7,0.4-0.7,1.2v0.9c0,0.4,0,0.8-0.1,1c0.3,0.3,0.5,0.5,0.8,0.5
							c0.6,0,1-0.7,1-1.7C17.5,322.7,17,321.9,16.4,321.9z"/>
						<path d="M11.9,319.5c-2.4,0-3.8-1.7-3.8-3.4c0-2,1.5-3,3.5-3c0.4,0,0.7,0,0.9,0.1v4.5c1.2-0.2,1.8-0.9,1.8-2
							c0-0.6-0.2-1.1-0.5-1.6l1.2-0.7c0.5,0.7,0.8,1.6,0.8,2.5C15.7,318,14.3,319.5,11.9,319.5z M11.1,314.7c-1,0-1.6,0.4-1.6,1.4
							c0,0.8,0.5,1.4,1.6,1.6V314.7z"/>
						<path d="M6.6,304.7c-0.1,0.2-0.2,0.5-0.2,0.8c0,0.6,0.3,0.9,1.1,0.9h0.6V305h1.5v1.4h5.8v1.9H9.7v1H8.3l-0.1-1H7.6
							c-1.5,0-2.7-0.7-2.7-2.5c0-0.6,0.1-1.1,0.3-1.4L6.6,304.7z"/>
						<path d="M8.2,303.7v-1.6l1.3-0.1V302c-0.9-0.5-1.5-1.3-1.5-2.1c0-0.4,0.1-0.6,0.2-0.9l1.7,0.3c-0.1,0.2-0.1,0.5-0.1,0.8
							c0,0.6,0.4,1.3,1.4,1.7h4.3v1.9H8.2z"/>
						<path d="M11.9,298.7c-2.4,0-3.8-1.7-3.8-3.5c0-1.8,1.4-3.5,3.8-3.5c2.4,0,3.8,1.7,3.8,3.5C15.7,297,14.3,298.7,11.9,298.7z
							 M11.9,293.6c-1.4,0-2.3,0.6-2.3,1.5c0,1,0.9,1.5,2.3,1.5c1.4,0,2.2-0.6,2.2-1.5C14.1,294.2,13.2,293.6,11.9,293.6z"/>
						<path d="M8.2,290.1v-1.6l1-0.1v-0.1c-0.6-0.6-1.2-1.3-1.2-2.2c0-1,0.5-1.7,1.3-2c-0.7-0.7-1.3-1.4-1.3-2.3
							c0-1.5,1.1-2.3,2.9-2.3h4.5v1.9h-4.3c-1.1,0-1.5,0.3-1.5,1c0,0.4,0.3,0.9,0.8,1.4h5v1.9h-4.3c-1.1,0-1.5,0.3-1.5,1
							c0,0.4,0.3,0.9,0.8,1.4h5v1.9H8.2z"/>
						<path d="M5.9,274.5v-3.2c0-2,0.6-3.5,2.4-3.5c0.9,0,1.8,0.5,2.1,1.3h0.1c0.2-1,1-1.8,2.3-1.8c1.9,0,2.8,1.6,2.8,3.7v3.4H5.9z
							 M9.8,271.4c0-1.2-0.5-1.8-1.3-1.8c-0.8,0-1.2,0.6-1.2,1.7v1.1h2.4V271.4z M14,271.2c0-1.3-0.5-2-1.5-2c-0.9,0-1.3,0.7-1.3,2
							v1.3H14V271.2z"/>
						<path d="M13.5,266.1c-1.6,0-2.4-1.3-2.7-4.2c-0.7,0-1.3,0.3-1.3,1.2c0,0.7,0.3,1.3,0.7,2L9,265.9c-0.5-0.9-1-1.9-1-3
							c0-1.8,1.1-2.8,3.2-2.8h4.3v1.6l-0.8,0.1v0c0.5,0.6,1,1.4,1,2.2C15.7,265.3,14.8,266.1,13.5,266.1z M13.5,261.9H12
							c0.2,1.8,0.7,2.4,1.4,2.4c0.6,0,0.8-0.4,0.8-1C14.2,262.8,13.9,262.4,13.5,261.9z"/>
						<path d="M14.7,258.8l-1.2-0.9c0.5-0.6,0.8-1.3,0.8-2c0-0.7-0.3-1.1-0.8-1.1c-0.5,0-0.8,0.8-1.1,1.5c-0.4,0.9-0.9,2-2.1,2
							c-1.3,0-2.2-1.1-2.2-2.7c0-1.1,0.4-1.9,0.9-2.5l1.2,0.9c-0.4,0.5-0.6,1-0.6,1.6c0,0.6,0.3,1,0.7,1c0.5,0,0.7-0.7,1-1.5
							c0.4-1,0.8-2,2.2-2c1.3,0,2.3,1,2.3,2.9C15.7,257,15.3,258,14.7,258.8z"/>
						<path d="M11.9,252.1c-2.4,0-3.8-1.7-3.8-3.4c0-2,1.5-3,3.5-3c0.4,0,0.7,0,0.9,0.1v4.5c1.2-0.2,1.8-0.9,1.8-2
							c0-0.6-0.2-1.1-0.5-1.6l1.2-0.6c0.5,0.7,0.8,1.6,0.8,2.5C15.7,250.5,14.3,252.1,11.9,252.1z M11.1,247.3c-1,0-1.6,0.4-1.6,1.4
							c0,0.8,0.5,1.4,1.6,1.6V247.3z"/>
						<path d="M13.5,244.1H5.1v-1.9h8.4c0.4,0,0.6-0.2,0.6-0.4c0-0.1,0-0.1,0-0.3l1.4-0.2c0.1,0.2,0.2,0.5,0.2,1
							C15.7,243.6,14.8,244.1,13.5,244.1z"/>
						<path d="M6,240.2c-0.6,0-1-0.5-1-1.1c0-0.6,0.4-1.1,1-1.1c0.6,0,1,0.5,1,1.1C7,239.7,6.6,240.2,6,240.2z M8.2,240v-1.9h7.3
							v1.9H8.2z"/>
						<path d="M8.2,236v-1.6l1-0.1v-0.1c-0.6-0.6-1.1-1.4-1.1-2.4c0-1.6,1.1-2.2,2.9-2.2h4.5v1.9h-4.3c-1.1,0-1.5,0.3-1.5,1
							c0,0.6,0.3,1,0.8,1.5h5v1.9H8.2z"/>
						<path d="M11.9,228.2c-2.4,0-3.8-1.7-3.8-3.4c0-2,1.5-3,3.5-3c0.4,0,0.7,0,0.9,0.1v4.5c1.2-0.2,1.8-0.9,1.8-2
							c0-0.6-0.2-1.1-0.5-1.6l1.2-0.6c0.5,0.7,0.8,1.6,0.8,2.5C15.7,226.6,14.3,228.2,11.9,228.2z M11.1,223.4c-1,0-1.6,0.4-1.6,1.4
							c0,0.8,0.5,1.4,1.6,1.6V223.4z"/>
					</g>
					<g class="st0">
						<path d="M259,412.4h2.1l1.6,4.5c0.2,0.6,0.4,1.2,0.6,1.9h0.1c0.2-0.6,0.4-1.3,0.6-1.9l1.6-4.5h2.1v9.6H266v-4
							c0-0.9,0.1-2.2,0.2-3.2h-0.1l-0.8,2.3l-1.5,4h-1.1l-1.5-4l-0.8-2.3h-0.1c0.1,0.9,0.2,2.2,0.2,3.2v4H259V412.4z"/>
						<path d="M269.5,418.4c0-2.4,1.7-3.8,3.5-3.8s3.5,1.4,3.5,3.8c0,2.4-1.7,3.8-3.5,3.8S269.5,420.8,269.5,418.4z M274.5,418.4
							c0-1.4-0.6-2.3-1.5-2.3s-1.5,0.9-1.5,2.3c0,1.4,0.6,2.2,1.5,2.2S274.5,419.7,274.5,418.4z"/>
						<path d="M278.1,414.7h1.6l0.1,1h0.1c0.6-0.6,1.4-1.1,2.4-1.1c1.6,0,2.2,1.1,2.2,2.9v4.5h-1.9v-4.3c0-1.1-0.3-1.5-1-1.5
							c-0.6,0-1,0.3-1.5,0.8v5h-1.9V414.7z"/>
						<path d="M286.7,419.5v-3.2h-1v-1.4l1.1-0.1l0.2-2h1.6v2h1.8v1.5h-1.8v3.2c0,0.8,0.3,1.2,1,1.2c0.2,0,0.5-0.1,0.7-0.2l0.3,1.4
							c-0.4,0.1-0.9,0.3-1.5,0.3C287.4,422.2,286.7,421.1,286.7,419.5z"/>
						<path d="M291.9,411.6h1.9v2.6l-0.1,1.4c0.6-0.5,1.3-1.1,2.3-1.1c1.6,0,2.2,1.1,2.2,2.9v4.5h-1.9v-4.3c0-1.1-0.3-1.5-1-1.5
							c-0.6,0-1,0.3-1.5,0.8v5h-1.9V411.6z"/>
						<path d="M299.5,421.2l0.9-1.2c0.6,0.5,1.3,0.8,2,0.8c0.7,0,1.1-0.3,1.1-0.8c0-0.5-0.8-0.8-1.5-1.1c-0.9-0.4-2-0.9-2-2.1
							c0-1.3,1.1-2.2,2.7-2.2c1.1,0,1.9,0.4,2.5,0.9l-0.9,1.2c-0.5-0.4-1-0.6-1.6-0.6c-0.7,0-1,0.3-1,0.7c0,0.5,0.7,0.7,1.5,1
							c1,0.4,2,0.8,2,2.2c0,1.3-1,2.3-2.9,2.3C301.3,422.2,300.2,421.8,299.5,421.2z"/>
						<path d="M309.2,420c0-1.6,1.3-2.4,4.2-2.7c0-0.7-0.3-1.3-1.2-1.3c-0.7,0-1.3,0.3-2,0.7l-0.7-1.3c0.9-0.5,1.9-1,3-1
							c1.8,0,2.8,1.1,2.8,3.2v4.3h-1.6l-0.1-0.8h0c-0.6,0.5-1.4,1-2.2,1C310.1,422.2,309.2,421.3,309.2,420z M313.4,420v-1.5
							c-1.8,0.2-2.4,0.7-2.4,1.4c0,0.6,0.4,0.8,1,0.8C312.5,420.7,312.9,420.4,313.4,420z"/>
						<path d="M321.2,413.1c-0.2-0.1-0.5-0.2-0.8-0.2c-0.6,0-0.9,0.3-0.9,1.1v0.6h1.4v1.5h-1.4v5.8h-1.9v-5.8h-1v-1.4l1-0.1v-0.6
							c0-1.5,0.7-2.7,2.5-2.7c0.6,0,1.1,0.1,1.4,0.3L321.2,413.1z"/>
						<path d="M322.4,419.5v-3.2h-1v-1.4l1.1-0.1l0.2-2h1.6v2h1.8v1.5h-1.8v3.2c0,0.8,0.3,1.2,1,1.2c0.2,0,0.5-0.1,0.7-0.2l0.3,1.4
							c-0.4,0.1-0.9,0.3-1.5,0.3C323,422.2,322.4,421.1,322.4,419.5z"/>
						<path d="M326.9,418.4c0-2.4,1.7-3.8,3.4-3.8c2,0,3,1.5,3,3.5c0,0.4,0,0.7-0.1,0.9h-4.5c0.2,1.2,0.9,1.8,2,1.8
							c0.6,0,1.1-0.2,1.6-0.5l0.6,1.2c-0.7,0.5-1.6,0.8-2.5,0.8C328.4,422.2,326.9,420.8,326.9,418.4z M331.7,417.6
							c0-1-0.4-1.6-1.4-1.6c-0.8,0-1.4,0.5-1.6,1.6H331.7z"/>
						<path d="M334.9,414.7h1.6l0.1,1.3h0.1c0.5-0.9,1.3-1.5,2.1-1.5c0.4,0,0.6,0.1,0.9,0.2l-0.3,1.7c-0.2-0.1-0.5-0.1-0.8-0.1
							c-0.6,0-1.3,0.4-1.7,1.4v4.3h-1.9V414.7z"/>
						<path d="M343.8,414.1c0-1.5,0.7-2.7,2.5-2.7c0.6,0,1.1,0.1,1.4,0.3l-0.4,1.4c-0.2-0.1-0.5-0.2-0.8-0.2c-0.6,0-0.9,0.3-0.9,1.1
							v0.6h1.4v1.5h-1.4v5.8h-1.9v-5.8h-1v-1.4l1-0.1V414.1z M348.4,412.5c0-0.6,0.5-1,1.1-1c0.7,0,1.2,0.4,1.2,1c0,0.6-0.5,1-1.2,1
							C348.9,413.5,348.4,413.1,348.4,412.5z M348.6,414.7h1.9v7.3h-1.9V414.7z"/>
						<path d="M352.5,414.7h1.6l0.1,1.3h0.1c0.5-0.9,1.3-1.5,2.1-1.5c0.4,0,0.6,0.1,0.9,0.2l-0.3,1.7c-0.2-0.1-0.5-0.1-0.8-0.1
							c-0.6,0-1.3,0.4-1.7,1.4v4.3h-1.9V414.7z"/>
						<path d="M357.4,421.2l0.9-1.2c0.6,0.5,1.3,0.8,2,0.8c0.7,0,1.1-0.3,1.1-0.8c0-0.5-0.8-0.8-1.5-1.1c-0.9-0.4-2-0.9-2-2.1
							c0-1.3,1.1-2.2,2.7-2.2c1.1,0,1.9,0.4,2.5,0.9l-0.9,1.2c-0.5-0.4-1-0.6-1.6-0.6c-0.7,0-1,0.3-1,0.7c0,0.5,0.7,0.7,1.5,1
							c1,0.4,2,0.8,2,2.2c0,1.3-1,2.3-2.9,2.3C359.2,422.2,358.1,421.8,357.4,421.2z"/>
						<path d="M364.5,419.5v-3.2h-1v-1.4l1.1-0.1l0.2-2h1.6v2h1.8v1.5h-1.8v3.2c0,0.8,0.3,1.2,1,1.2c0.2,0,0.5-0.1,0.7-0.2l0.3,1.4
							c-0.4,0.1-0.9,0.3-1.5,0.3C365.2,422.2,364.5,421.1,364.5,419.5z"/>
						<path d="M372.5,412.5c0-0.6,0.5-1,1.1-1c0.6,0,1.1,0.4,1.1,1c0,0.6-0.5,1-1.1,1C372.9,413.5,372.5,413.1,372.5,412.5z
							 M372.6,414.7h1.9v7.3h-1.9V414.7z"/>
						<path d="M376.6,414.7h1.6l0.1,1h0.1c0.6-0.6,1.4-1.1,2.4-1.1c1.6,0,2.2,1.1,2.2,2.9v4.5H381v-4.3c0-1.1-0.3-1.5-1-1.5
							c-0.6,0-1,0.3-1.5,0.8v5h-1.9V414.7z"/>
						<path d="M383.2,424.8l0.3-1.4c0.2,0.1,0.4,0.1,0.6,0.1c0.6,0,0.8-0.4,0.8-1.2v-7.5h1.9v7.5c0,1.6-0.6,2.8-2.4,2.8
							C383.9,425,383.5,424.9,383.2,424.8z M384.8,412.5c0-0.6,0.5-1,1.1-1c0.7,0,1.1,0.4,1.1,1c0,0.6-0.5,1-1.1,1
							C385.2,413.5,384.8,413.1,384.8,412.5z"/>
						<path d="M388.4,418.4c0-2.4,1.7-3.8,3.4-3.8c2,0,3,1.5,3,3.5c0,0.4,0,0.7-0.1,0.9h-4.5c0.2,1.2,0.9,1.8,2,1.8
							c0.6,0,1.1-0.2,1.6-0.5l0.6,1.2c-0.7,0.5-1.6,0.8-2.5,0.8C390,422.2,388.4,420.8,388.4,418.4z M393.2,417.6
							c0-1-0.4-1.6-1.4-1.6c-0.8,0-1.4,0.5-1.6,1.6H393.2z"/>
						<path d="M396,418.4c0-2.4,1.7-3.8,3.7-3.8c0.9,0,1.6,0.4,2.1,0.8l-0.9,1.2c-0.4-0.3-0.7-0.5-1.1-0.5c-1.1,0-1.9,0.9-1.9,2.3
							c0,1.4,0.8,2.2,1.8,2.2c0.5,0,1-0.2,1.4-0.6l0.8,1.3c-0.7,0.6-1.6,0.9-2.4,0.9C397.5,422.2,396,420.8,396,418.4z"/>
						<path d="M403.4,419.5v-3.2h-1v-1.4l1.1-0.1l0.2-2h1.6v2h1.8v1.5h-1.8v3.2c0,0.8,0.3,1.2,1,1.2c0.2,0,0.5-0.1,0.7-0.2l0.3,1.4
							c-0.4,0.1-0.9,0.3-1.5,0.3C404.1,422.2,403.4,421.1,403.4,419.5z"/>
						<path d="M408.4,412.5c0-0.6,0.5-1,1.1-1c0.7,0,1.1,0.4,1.1,1c0,0.6-0.5,1-1.1,1C408.9,413.5,408.4,413.1,408.4,412.5z
							 M408.6,414.7h1.9v7.3h-1.9V414.7z"/>
						<path d="M412.1,418.4c0-2.4,1.7-3.8,3.5-3.8c1.8,0,3.5,1.4,3.5,3.8c0,2.4-1.7,3.8-3.5,3.8
							C413.8,422.2,412.1,420.8,412.1,418.4z M417.1,418.4c0-1.4-0.6-2.3-1.5-2.3c-1,0-1.5,0.9-1.5,2.3c0,1.4,0.6,2.2,1.5,2.2
							C416.6,420.6,417.1,419.7,417.1,418.4z"/>
						<path d="M420.7,414.7h1.6l0.1,1h0.1c0.6-0.6,1.4-1.1,2.4-1.1c1.6,0,2.2,1.1,2.2,2.9v4.5h-1.9v-4.3c0-1.1-0.3-1.5-1-1.5
							c-0.6,0-1,0.3-1.5,0.8v5h-1.9V414.7z"/>
					</g>
					<g id="table_lines" transform="translate(35.000000, 39.000000)">
						<g id="horizontal1" transform="translate(33.000000, 319.500000)">
							<g class="st0">
								<path d="M1.9,21.9c0-3.8,1.4-5.7,3.6-5.7c2.2,0,3.6,1.9,3.6,5.7c0,3.8-1.4,5.8-3.6,5.8C3.3,27.7,1.9,25.8,1.9,21.9z
									 M7.4,21.9c0-3.2-0.8-4.3-1.9-4.3s-1.9,1.2-1.9,4.3c0,3.2,0.8,4.4,1.9,4.4S7.4,25.1,7.4,21.9z"/>
							</g>
							<g class="st0">
								<path d="M110.6,26.2l0.8-1.1c0.6,0.7,1.5,1.2,2.6,1.2c1.2,0,2.1-0.7,2.1-1.8c0-1.2-0.8-2-3.3-2v-1.3c2.2,0,2.9-0.8,2.9-1.9
									c0-1-0.6-1.6-1.7-1.6c-0.9,0-1.6,0.4-2.2,1l-0.9-1.1c0.9-0.8,1.9-1.3,3.2-1.3c2,0,3.4,1,3.4,2.9c0,1.3-0.7,2.2-1.9,2.6v0.1
									c1.3,0.3,2.3,1.3,2.3,2.8c0,2-1.7,3.2-3.7,3.2C112.5,27.7,111.4,27,110.6,26.2z"/>
							</g>
							<path id="divider" class="st1" d="M0,0.5h120"/>
						</g>
						<g id="horizontal2" transform="translate(153.000000, 319.500000)">
							<g class="st0">
								<path d="M117,18.5c-0.4-0.5-1.1-0.8-1.7-0.8c-1.4,0-2.6,1.1-2.7,4.2c0.6-0.8,1.6-1.3,2.4-1.3c1.9,0,3.1,1.1,3.1,3.5
									c0,2.2-1.5,3.6-3.3,3.6c-2.1,0-3.8-1.8-3.8-5.5c0-4.2,2-5.9,4.2-5.9c1.2,0,2.1,0.5,2.8,1.2L117,18.5z M116.5,24.1
									c0-1.4-0.6-2.2-1.8-2.2c-0.6,0-1.4,0.3-2.1,1.3c0.2,2.2,1,3.2,2.2,3.2C115.8,26.4,116.5,25.5,116.5,24.1z"/>
							</g>
							<path class="st1" d="M0,0.5h120"/>
						</g>
						<g id="horizontal3" transform="translate(273.000000, 319.500000)">
							<g class="st0">
								<path d="M112,25.5c0.4,0.5,1.1,0.8,1.8,0.8c1.3,0,2.5-1.1,2.6-4.2c-0.6,0.8-1.6,1.3-2.4,1.3c-1.8,0-3.1-1.2-3.1-3.5
									c0-2.2,1.5-3.6,3.3-3.6c2.1,0,3.8,1.7,3.8,5.4c0,4.3-2,6.1-4.1,6.1c-1.3,0-2.2-0.5-2.8-1.2L112,25.5z M116.4,20.8
									c-0.2-2.2-1-3.2-2.2-3.2c-0.9,0-1.7,0.9-1.7,2.3c0,1.4,0.6,2.2,1.8,2.2C114.9,22.1,115.7,21.7,116.4,20.8z"/>
							</g>
							<path class="st1" d="M0,0.5h120"/>
						</g>
						<g id="vertical1" transform="translate(0.000000, 240.000000)">
							<g class="st0">
								<path d="M0.7,77.1h4v1.3h-4V77.1z"/>
								<path d="M6,81c3.3-2.9,4.9-5,4.9-6.8c0-1.2-0.6-2-1.9-2c-0.9,0-1.6,0.6-2.2,1.2l-1-1c0.9-1,1.9-1.7,3.4-1.7
									c2,0,3.3,1.3,3.3,3.3c0,2.1-1.7,4.3-4,6.6c0.6-0.1,1.3-0.1,1.8-0.1h2.8V82H6V81z"/>
								<path d="M14.3,80.7l0.8-1.1c0.6,0.6,1.4,1.2,2.6,1.2c1.2,0,2.2-0.9,2.2-2.4c0-1.5-0.8-2.3-2.1-2.3c-0.7,0-1.1,0.2-1.8,0.6
									l-0.8-0.6l0.3-5.2h5.6v1.5H17l-0.3,2.8c0.5-0.2,0.9-0.4,1.5-0.4c1.8,0,3.4,1.1,3.4,3.5c0,2.4-1.8,3.8-3.7,3.8
									C16.2,82.2,15.1,81.5,14.3,80.7z"/>
							</g>
							<path class="st1" d="M33,80V0"/>
						</g>
						<g id="vertical2" transform="translate(0.000000, 160.000000)">
							<g class="st0">
								<path d="M0.7,77.1h4v1.3h-4V77.1z"/>
								<path d="M6.6,80.6h2.4v-7.7h-2v-1.1c1-0.2,1.8-0.5,2.4-0.8h1.3v9.6h2.2V82H6.6V80.6z"/>
								<path d="M14.3,80.7l0.8-1.1c0.6,0.6,1.4,1.2,2.6,1.2c1.2,0,2.2-0.9,2.2-2.4c0-1.5-0.8-2.3-2.1-2.3c-0.7,0-1.1,0.2-1.8,0.6
									l-0.8-0.6l0.3-5.2h5.6v1.5H17l-0.3,2.8c0.5-0.2,0.9-0.4,1.5-0.4c1.8,0,3.4,1.1,3.4,3.5c0,2.4-1.8,3.8-3.7,3.8
									C16.2,82.2,15.1,81.5,14.3,80.7z"/>
							</g>
							<path class="st1" d="M33,80V0"/>
						</g>
						<g id="vertical3" transform="translate(0.000000, 80.000000)">
							<path class="st1" d="M33,80V0"/>
							<g class="st0">
								<path d="M0.7,77.1h4v1.3h-4V77.1z"/>
								<path d="M6.6,80.6h2.4v-7.7h-2v-1.1c1-0.2,1.8-0.5,2.4-0.8h1.3v9.6h2.2V82H6.6V80.6z"/>
								<path d="M14.6,76.4c0-3.8,1.4-5.7,3.6-5.7c2.2,0,3.6,1.9,3.6,5.7c0,3.8-1.4,5.8-3.6,5.8C16,82.2,14.6,80.3,14.6,76.4z
									 M20.1,76.4c0-3.2-0.8-4.3-1.9-4.3s-1.9,1.2-1.9,4.3c0,3.2,0.8,4.4,1.9,4.4S20.1,79.6,20.1,76.4z"/>
							</g>
						</g>
						<g id="vertical4" transform="translate(14.000000, 0.000000)">
							<g class="st0">
								<path d="M0.4,15.7l0.8-1.1c0.6,0.6,1.4,1.2,2.6,1.2c1.2,0,2.2-0.9,2.2-2.4c0-1.5-0.8-2.3-2.1-2.3c-0.7,0-1.1,0.2-1.8,0.6
									l-0.8-0.6L1.6,6h5.6v1.5H3.1l-0.3,2.8C3.3,10,3.8,9.9,4.4,9.9c1.8,0,3.4,1.1,3.4,3.5c0,2.4-1.8,3.8-3.7,3.8
									C2.3,17.2,1.2,16.5,0.4,15.7z"/>
							</g>
							<g class="st0">
								<path d="M0.7,76.4c0-3.8,1.4-5.7,3.6-5.7c2.2,0,3.6,1.9,3.6,5.7c0,3.8-1.4,5.8-3.6,5.8C2.1,82.2,0.7,80.3,0.7,76.4z
									 M6.2,76.4c0-3.2-0.8-4.3-1.9-4.3s-1.9,1.2-1.9,4.3c0,3.2,0.8,4.4,1.9,4.4S6.2,79.6,6.2,76.4z"/>
							</g>
							<path class="st1" d="M19,80V0"/>
						</g>
					</g>
					<g id="red_lines" transform="translate(68.000000, 39.000000)">
						<path id="Line-5" class="st2" d="M0,0l25.5,38.5"/>
						<path class="st2" d="M25.5,38.5l46,40"/>
						<path class="st2" d="M72,79l46.5,15.5"/>
						<path class="st2" d="M120,95l230.5,55.5"/>
						<g id="dots1" transform="translate(16.000000, 0.000000)">
							<g>
								<circle id="Oval" class="st3" cx="1.5" cy="22.5" r="1.5"/>
								<circle class="st4" cx="9.5" cy="22.5" r="1.5"/>
								<circle class="st5" cx="9.5" cy="14.5" r="1.5"/>
								<circle class="st6" cx="9.5" cy="1.5" r="1.5"/>
								<circle class="st5" cx="17.5" cy="22.5" r="1.5"/>
							</g>
							<g transform="translate(0.000000, 29.000000)">
								<circle class="st7" cx="1.5" cy="1.5" r="1.5"/>
								<circle class="st8" cx="9.5" cy="1.5" r="1.5"/>
								<circle class="st9" cx="17.5" cy="1.5" r="1.5"/>
							</g>
							<g transform="translate(8.000000, 37.000000)">
								<circle class="st10" cx="1.5" cy="1.5" r="1.5"/>
							</g>
							<g transform="translate(4.000000, 45.000000)">
								<circle class="st11" cx="1.5" cy="1.5" r="1.5"/>
								<circle class="st12" cx="9.5" cy="1.5" r="1.5"/>
							</g>
							
								<g transform="translate(8.500000, 66.500000) rotate(-180.000000) translate(-8.500000, -66.500000) translate(7.000000, 61.000000)">
								<circle class="st11" cx="1.5" cy="1.5" r="1.5"/>
								<circle class="st12" cx="1.5" cy="9.5" r="1.5"/>
							</g>
							<g transform="translate(0.000000, 53.000000)">
								<circle class="st12" cx="1.5" cy="1.5" r="1.5"/>
								<circle class="st4" cx="6.5" cy="1.5" r="1.5"/>
								<circle class="st6" cx="12.5" cy="1.5" r="1.5"/>
								<circle class="st5" cx="17.5" cy="1.5" r="1.5"/>
							</g>
						</g>
						<g id="dots2" transform="translate(58.000000, 56.000000)">
							<g>
								<circle class="st5" cx="1.5" cy="1.5" r="1.5"/>
								<circle class="st12" cx="6.5" cy="1.5" r="1.5"/>
								<circle class="st6" cx="12.5" cy="1.5" r="1.5"/>
								<circle class="st10" cx="17.5" cy="1.5" r="1.5"/>
							</g>
							<g transform="translate(0.000000, 8.000000)">
								<circle class="st6" cx="1.5" cy="1.5" r="1.5"/>
								<circle class="st8" cx="6.5" cy="1.5" r="1.5"/>
								<circle class="st4" cx="12.5" cy="1.5" r="1.5"/>
								<circle class="st5" cx="17.5" cy="1.5" r="1.5"/>
							</g>
							<g transform="translate(4.000000, 21.000000)">
								<circle class="st11" cx="1.5" cy="1.5" r="1.5"/>
								<circle class="st12" cx="9.5" cy="1.5" r="1.5"/>
							</g>
							<g transform="translate(4.000000, 29.000000)">
								<circle class="st4" cx="1.5" cy="1.5" r="1.5"/>
								<circle class="st5" cx="9.5" cy="1.5" r="1.5"/>
							</g>
							
								<g transform="translate(9.500000, 51.500000) rotate(-90.000000) translate(-9.500000, -51.500000) translate(8.000000, 46.000000)">
								<circle class="st11" cx="1.5" cy="1.5" r="1.5"/>
								<circle class="st12" cx="1.5" cy="9.5" r="1.5"/>
							</g>
							<g transform="translate(8.000000, 37.000000)">
								<circle class="st8" cx="1.5" cy="1.5" r="1.5"/>
							</g>
							<g transform="translate(8.000000, 58.000000)">
								<circle class="st12" cx="1.5" cy="1.5" r="1.5"/>
							</g>
						</g>
						<g id="dots3" transform="translate(97.000000, 61.000000)">
							<g transform="translate(6.000000, 0.000000)">
								<circle class="st5" cx="1.5" cy="1.5" r="1.5"/>
								<circle class="st13" cx="9.5" cy="1.5" r="1.5"/>
							</g>
							<g transform="translate(6.000000, 8.000000)">
								<circle class="st6" cx="1.5" cy="1.5" r="1.5"/>
								<circle class="st14" cx="9.5" cy="1.5" r="1.5"/>
							</g>
							<g transform="translate(2.000000, 16.000000)">
								<circle class="st10" cx="1.5" cy="1.5" r="1.5"/>
								<circle class="st4" cx="9.5" cy="1.5" r="1.5"/>
								<circle class="st15" cx="17.5" cy="1.5" r="1.5"/>
							</g>
							<g transform="translate(10.000000, 24.000000)">
								<circle class="st6" cx="1.5" cy="1.5" r="1.5"/>
							</g>
							<g transform="translate(0.000000, 32.000000)">
								<circle class="st12" cx="1.5" cy="1.5" r="1.5"/>
								<circle class="st6" cx="6.5" cy="1.5" r="1.5"/>
								<circle class="st11" cx="11.5" cy="1.5" r="1.5"/>
								<circle class="st16" cx="16.5" cy="1.5" r="1.5"/>
								<circle class="st16" cx="21.5" cy="1.5" r="1.5"/>
							</g>
							<g transform="translate(10.000000, 40.000000)">
								<circle class="st8" cx="1.5" cy="1.5" r="1.5"/>
							</g>
							
								<g transform="translate(11.500000, 49.500000) rotate(-270.000000) translate(-11.500000, -49.500000) translate(10.000000, 44.000000)">
								<circle class="st9" cx="1.5" cy="1.5" r="1.5"/>
								<circle class="st12" cx="1.5" cy="9.5" r="1.5"/>
							</g>
							<g transform="translate(10.000000, 61.000000)">
								<circle class="st12" cx="1.5" cy="1.5" r="1.5"/>
							</g>
						</g>
						<g id="dots4" transform="translate(221.000000, 80.000000)">
							<g transform="translate(8.000000, 0.000000)">
								<circle class="st8" cx="1.5" cy="1.5" r="1.5"/>
							</g>
							<g transform="translate(0.000000, 8.000000)">
								<circle class="st5" cx="1.5" cy="1.5" r="1.5"/>
								<circle class="st13" cx="6.5" cy="1.5" r="1.5"/>
								<circle class="st4" cx="12.5" cy="1.5" r="1.5"/>
								<circle class="st13" cx="17.5" cy="1.5" r="1.5"/>
							</g>
							<g transform="translate(0.000000, 16.000000)">
								<circle class="st15" cx="1.5" cy="1.5" r="1.5"/>
								<circle class="st17" cx="9.5" cy="1.5" r="1.5"/>
								<circle class="st15" cx="17.5" cy="1.5" r="1.5"/>
							</g>
							<g transform="translate(8.000000, 24.000000)">
								<circle class="st16" cx="1.5" cy="1.5" r="1.5"/>
							</g>
							
								<g transform="translate(9.500000, 38.500000) rotate(-270.000000) translate(-9.500000, -38.500000) translate(8.000000, 33.000000)">
								<circle class="st9" cx="1.5" cy="1.5" r="1.5"/>
								<circle class="st18" cx="1.5" cy="9.5" r="1.5"/>
							</g>
							
								<g transform="translate(9.500000, 46.500000) rotate(-270.000000) translate(-9.500000, -46.500000) translate(8.000000, 41.000000)">
								<circle class="st19" cx="1.5" cy="1.5" r="1.5"/>
								<circle class="st12" cx="1.5" cy="9.5" r="1.5"/>
							</g>
							<g transform="translate(8.000000, 149.000000)">
								<circle class="st6" cx="1.5" cy="1.5" r="1.5"/>
								<circle class="st12" cx="1.5" cy="9.5" r="1.5"/>
							</g>
						</g>
						<g transform="translate(341.000000, 80.000000)">
							<g transform="translate(8.000000, 0.000000)">
								<circle class="st8" cx="1.5" cy="1.5" r="1.5"/>
							</g>
							
								<g transform="translate(9.500000, 33.500000) rotate(-270.000000) translate(-9.500000, -33.500000) translate(8.000000, 28.000000)">
								<circle class="st13" cx="1.5" cy="1.5" r="1.5"/>
								<circle class="st4" cx="1.5" cy="9.5" r="1.5"/>
							</g>
							
								<g transform="translate(9.500000, 46.500000) rotate(-270.000000) translate(-9.500000, -46.500000) translate(8.000000, 41.000000)">
								<circle class="st15" cx="1.5" cy="1.5" r="1.5"/>
								<circle class="st20" cx="1.5" cy="9.5" r="1.5"/>
							</g>
							<g transform="translate(8.000000, 53.000000)">
								<circle class="st16" cx="1.5" cy="1.5" r="1.5"/>
							</g>
							<g transform="translate(8.000000, 61.000000)">
								<circle class="st21" cx="1.5" cy="1.5" r="1.5"/>
							</g>
							<g transform="translate(0.000000, 69.000000)">
								<circle class="st5" cx="1.5" cy="1.5" r="1.5"/>
								<circle class="st3" cx="9.5" cy="1.5" r="1.5"/>
								<circle class="st22" cx="17.5" cy="1.5" r="1.5"/>
							</g>
							<g transform="translate(8.000000, 77.000000)">
								<circle class="st12" cx="1.5" cy="1.5" r="1.5"/>
							</g>
							
								<g transform="translate(9.500000, 86.500000) rotate(-270.000000) translate(-9.500000, -86.500000) translate(8.000000, 81.000000)">
								<circle class="st12" cx="1.5" cy="1.5" r="1.5"/>
								<circle class="st18" cx="1.5" cy="9.5" r="1.5"/>
							</g>
							<g transform="translate(8.000000, 93.000000)">
								<circle class="st9" cx="1.5" cy="1.5" r="1.5"/>
							</g>
							
								<g transform="translate(9.500000, 154.500000) rotate(-270.000000) translate(-9.500000, -154.500000) translate(8.000000, 149.000000)">
								<circle class="st6" cx="1.5" cy="1.5" r="1.5"/>
								<circle class="st17" cx="1.5" cy="9.5" r="1.5"/>
							</g>
						</g>
					</g>
				</g>
			</g>
			<g transform="translate(0.000000, 570.000000)">
				<g>
					<g class="st0">
						<path d="M49.7,12.5h-3.1L45.9,15h-1.9L47,5.4h2.3l3.1,9.6h-2L49.7,12.5z M49.3,11L49,10c-0.3-1-0.6-2.1-0.8-3.1h-0.1
							C47.8,7.9,47.6,9,47.3,10L47,11H49.3z"/>
						<path d="M53.4,13V4.6h1.9V13c0,0.4,0.2,0.6,0.4,0.6c0.1,0,0.1,0,0.3,0l0.2,1.4c-0.2,0.1-0.5,0.2-1,0.2
							C53.8,15.2,53.4,14.3,53.4,13z"/>
						<path d="M57.5,13V4.6h1.9V13c0,0.4,0.2,0.6,0.4,0.6c0.1,0,0.1,0,0.3,0l0.2,1.4c-0.2,0.1-0.5,0.2-1,0.2
							C57.9,15.2,57.5,14.3,57.5,13z"/>
						<path d="M63.8,14.2l0.9-1.2c0.6,0.5,1.3,0.8,2,0.8c0.7,0,1.1-0.3,1.1-0.8c0-0.5-0.8-0.8-1.5-1.1c-0.9-0.4-2-0.9-2-2.1
							c0-1.3,1.1-2.2,2.7-2.2c1.1,0,1.9,0.4,2.5,0.9l-0.9,1.2C68,9.2,67.5,9,66.9,9c-0.6,0-1,0.3-1,0.7c0,0.5,0.7,0.7,1.5,1
							c1,0.4,2,0.8,2,2.2c0,1.3-1,2.3-2.9,2.3C65.6,15.2,64.5,14.8,63.8,14.2z"/>
						<path d="M70.9,12.3V7.7h1.9V12c0,1.1,0.3,1.5,1,1.5c0.6,0,1-0.3,1.5-0.9V7.7h1.9V15h-1.6l-0.1-1h-0.1
							c-0.6,0.7-1.3,1.2-2.3,1.2C71.5,15.2,70.9,14.1,70.9,12.3z"/>
						<path d="M80.9,14.2L80.9,14.2L80.7,15h-1.5V4.6h1.9v2.6l0,1.2c0.6-0.5,1.3-0.9,2-0.9c1.8,0,2.9,1.5,2.9,3.7c0,2.5-1.5,4-3.1,4
							C82.2,15.2,81.5,14.8,80.9,14.2z M84,11.3c0-1.4-0.4-2.2-1.4-2.2c-0.5,0-0.9,0.2-1.4,0.8v3.2c0.5,0.4,0.9,0.5,1.3,0.5
							C83.3,13.6,84,12.9,84,11.3z"/>
						<path d="M85.9,17.8l0.3-1.4c0.2,0.1,0.4,0.1,0.6,0.1c0.6,0,0.8-0.4,0.8-1.2V7.7h1.9v7.5c0,1.6-0.6,2.8-2.4,2.8
							C86.5,18,86.1,17.9,85.9,17.8z M87.4,5.5c0-0.6,0.5-1,1.1-1c0.6,0,1.1,0.4,1.1,1c0,0.6-0.5,1-1.1,1
							C87.9,6.5,87.4,6.1,87.4,5.5z"/>
						<path d="M91.1,11.4c0-2.4,1.7-3.8,3.4-3.8c2,0,3,1.5,3,3.5c0,0.4,0,0.7-0.1,0.9H93c0.2,1.2,0.9,1.8,2,1.8
							c0.6,0,1.1-0.2,1.6-0.5l0.7,1.2c-0.7,0.5-1.6,0.8-2.5,0.8C92.7,15.2,91.1,13.8,91.1,11.4z M95.9,10.6c0-1-0.4-1.6-1.4-1.6
							c-0.8,0-1.4,0.5-1.6,1.6H95.9z"/>
						<path d="M98.7,11.4c0-2.4,1.7-3.8,3.7-3.8c0.9,0,1.6,0.4,2.1,0.8l-0.9,1.2c-0.4-0.3-0.7-0.5-1.1-0.5c-1.1,0-1.9,0.9-1.9,2.3
							c0,1.4,0.8,2.2,1.8,2.2c0.5,0,1-0.2,1.4-0.6l0.8,1.3c-0.7,0.6-1.6,0.9-2.4,0.9C100.2,15.2,98.7,13.8,98.7,11.4z"/>
						<path d="M106.1,12.5V9.2h-1V7.8l1.1-0.1l0.2-2h1.6v2h1.8v1.5H108v3.2c0,0.8,0.3,1.2,1,1.2c0.2,0,0.5-0.1,0.7-0.2l0.3,1.4
							c-0.4,0.1-0.9,0.3-1.5,0.3C106.7,15.2,106.1,14.1,106.1,12.5z"/>
						<path d="M110.4,14.2l0.9-1.2c0.6,0.5,1.3,0.8,2,0.8c0.7,0,1.1-0.3,1.1-0.8c0-0.5-0.8-0.8-1.5-1.1c-0.9-0.4-2-0.9-2-2.1
							c0-1.3,1.1-2.2,2.7-2.2c1.1,0,1.9,0.4,2.5,0.9l-0.9,1.2c-0.5-0.4-1-0.6-1.6-0.6c-0.6,0-1,0.3-1,0.7c0,0.5,0.7,0.7,1.5,1
							c1,0.4,2,0.8,2,2.2c0,1.3-1,2.3-2.9,2.3C112.2,15.2,111.1,14.8,110.4,14.2z"/>
					</g>
					<g class="st0">
						<path d="M10.7,359.8c-3.2,0-5-2-5-4.5c0-1.2,0.6-2.2,1.2-2.8l1.2,1c-0.5,0.5-0.8,1-0.8,1.8c0,1.5,1.2,2.5,3.3,2.5
							c2.1,0,3.4-1,3.4-2.5c0-0.8-0.4-1.5-0.9-2l1.2-1c0.9,0.8,1.4,1.8,1.4,3.1C15.7,357.8,13.9,359.8,10.7,359.8z"/>
						<path d="M5.1,350.9V349h2.6l1.4,0.1c-0.5-0.6-1.1-1.3-1.1-2.3c0-1.6,1.1-2.2,2.9-2.2h4.5v1.9h-4.3c-1.1,0-1.5,0.3-1.5,1
							c0,0.6,0.3,1,0.8,1.5h5v1.9H5.1z"/>
						<path d="M13.5,343c-1.6,0-2.4-1.3-2.7-4.2c-0.7,0-1.3,0.3-1.3,1.2c0,0.7,0.3,1.3,0.7,2L9,342.7c-0.5-0.9-1-1.9-1-3
							c0-1.8,1.1-2.8,3.2-2.8h4.3v1.6l-0.8,0.1v0c0.5,0.6,1,1.4,1,2.2C15.7,342.1,14.8,343,13.5,343z M13.5,338.8H12
							c0.2,1.8,0.7,2.4,1.4,2.4c0.6,0,0.8-0.4,0.8-1C14.2,339.6,13.9,339.2,13.5,338.8z"/>
						<path d="M8.2,334.9v-1.6l1-0.1v-0.1c-0.6-0.6-1.1-1.4-1.1-2.4c0-1.6,1.1-2.2,2.9-2.2h4.5v1.9h-4.3c-1.1,0-1.5,0.3-1.5,1
							c0,0.6,0.3,1,0.8,1.5h5v1.9H8.2z"/>
						<path d="M16.8,327.1c-0.6,0-1.1-0.4-1.5-1h-0.1c-0.2,0.4-0.6,0.7-1.2,0.7c-0.5,0-1.1-0.4-1.4-0.8h-0.1c-0.4,0.5-1.1,1-1.9,1
							c-1.7,0-2.6-1.4-2.6-2.9c0-0.4,0.1-0.8,0.2-1.1v-2.6h1.4v1.2c0.2-0.2,0.6-0.3,1.1-0.3c1.6,0,2.5,1.2,2.5,2.8
							c0,0.3-0.1,0.6-0.2,0.9c0.2,0.2,0.3,0.3,0.6,0.3c0.4,0,0.6-0.3,0.6-1.1v-1.2c0-1.8,0.5-2.7,1.8-2.7c1.5,0,2.6,1.5,2.6,4
							C18.7,325.8,18.1,327.1,16.8,327.1z M10.7,322.8c-0.9,0-1.3,0.5-1.3,1.1c0,0.7,0.5,1.1,1.3,1.1s1.3-0.5,1.3-1.1
							C12,323.3,11.5,322.8,10.7,322.8z M16.4,321.9c-0.5,0-0.7,0.4-0.7,1.2v0.9c0,0.4,0,0.8-0.1,1c0.3,0.3,0.5,0.5,0.8,0.5
							c0.6,0,1-0.7,1-1.7C17.5,322.7,17,321.9,16.4,321.9z"/>
						<path d="M11.9,319.5c-2.4,0-3.8-1.7-3.8-3.4c0-2,1.5-3,3.5-3c0.4,0,0.7,0,0.9,0.1v4.5c1.2-0.2,1.8-0.9,1.8-2
							c0-0.6-0.2-1.1-0.5-1.6l1.2-0.7c0.5,0.7,0.8,1.6,0.8,2.5C15.7,318,14.3,319.5,11.9,319.5z M11.1,314.7c-1,0-1.6,0.4-1.6,1.4
							c0,0.8,0.5,1.4,1.6,1.6V314.7z"/>
						<path d="M6.6,304.7c-0.1,0.2-0.2,0.5-0.2,0.8c0,0.6,0.3,0.9,1.1,0.9h0.6V305h1.5v1.4h5.8v1.9H9.7v1H8.3l-0.1-1H7.6
							c-1.5,0-2.7-0.7-2.7-2.5c0-0.6,0.1-1.1,0.3-1.4L6.6,304.7z"/>
						<path d="M8.2,303.7v-1.6l1.3-0.1V302c-0.9-0.5-1.5-1.3-1.5-2.1c0-0.4,0.1-0.6,0.2-0.9l1.7,0.3c-0.1,0.2-0.1,0.5-0.1,0.8
							c0,0.6,0.4,1.3,1.4,1.7h4.3v1.9H8.2z"/>
						<path d="M11.9,298.7c-2.4,0-3.8-1.7-3.8-3.5c0-1.8,1.4-3.5,3.8-3.5c2.4,0,3.8,1.7,3.8,3.5C15.7,297,14.3,298.7,11.9,298.7z
							 M11.9,293.6c-1.4,0-2.3,0.6-2.3,1.5c0,1,0.9,1.5,2.3,1.5c1.4,0,2.2-0.6,2.2-1.5C14.1,294.2,13.2,293.6,11.9,293.6z"/>
						<path d="M8.2,290.1v-1.6l1-0.1v-0.1c-0.6-0.6-1.2-1.3-1.2-2.2c0-1,0.5-1.7,1.3-2c-0.7-0.7-1.3-1.4-1.3-2.3
							c0-1.5,1.1-2.3,2.9-2.3h4.5v1.9h-4.3c-1.1,0-1.5,0.3-1.5,1c0,0.4,0.3,0.9,0.8,1.4h5v1.9h-4.3c-1.1,0-1.5,0.3-1.5,1
							c0,0.4,0.3,0.9,0.8,1.4h5v1.9H8.2z"/>
						<path d="M5.9,274.5v-3.2c0-2,0.6-3.5,2.4-3.5c0.9,0,1.8,0.5,2.1,1.3h0.1c0.2-1,1-1.8,2.3-1.8c1.9,0,2.8,1.6,2.8,3.7v3.4H5.9z
							 M9.8,271.4c0-1.2-0.5-1.8-1.3-1.8c-0.8,0-1.2,0.6-1.2,1.7v1.1h2.4V271.4z M14,271.2c0-1.3-0.5-2-1.5-2c-0.9,0-1.3,0.7-1.3,2
							v1.3H14V271.2z"/>
						<path d="M13.5,266.1c-1.6,0-2.4-1.3-2.7-4.2c-0.7,0-1.3,0.3-1.3,1.2c0,0.7,0.3,1.3,0.7,2L9,265.9c-0.5-0.9-1-1.9-1-3
							c0-1.8,1.1-2.8,3.2-2.8h4.3v1.6l-0.8,0.1v0c0.5,0.6,1,1.4,1,2.2C15.7,265.3,14.8,266.1,13.5,266.1z M13.5,261.9H12
							c0.2,1.8,0.7,2.4,1.4,2.4c0.6,0,0.8-0.4,0.8-1C14.2,262.8,13.9,262.4,13.5,261.9z"/>
						<path d="M14.7,258.8l-1.2-0.9c0.5-0.7,0.8-1.3,0.8-2c0-0.7-0.3-1.1-0.8-1.1c-0.5,0-0.8,0.8-1.1,1.5c-0.4,0.9-0.9,2-2.1,2
							c-1.3,0-2.2-1.1-2.2-2.7c0-1.1,0.4-1.9,0.9-2.5l1.2,0.9c-0.4,0.5-0.6,1-0.6,1.6c0,0.6,0.3,1,0.7,1c0.5,0,0.7-0.7,1-1.5
							c0.4-1,0.8-2,2.2-2c1.3,0,2.3,1,2.3,2.9C15.7,257,15.3,258,14.7,258.8z"/>
						<path d="M11.9,252.1c-2.4,0-3.8-1.7-3.8-3.4c0-2,1.5-3,3.5-3c0.4,0,0.7,0,0.9,0.1v4.5c1.2-0.2,1.8-0.9,1.8-2
							c0-0.6-0.2-1.1-0.5-1.6l1.2-0.7c0.5,0.7,0.8,1.6,0.8,2.5C15.7,250.5,14.3,252.1,11.9,252.1z M11.1,247.3c-1,0-1.6,0.4-1.6,1.4
							c0,0.8,0.5,1.4,1.6,1.6V247.3z"/>
						<path d="M13.5,244.1H5.1v-1.9h8.4c0.4,0,0.6-0.2,0.6-0.4c0-0.1,0-0.1,0-0.3l1.4-0.2c0.1,0.2,0.2,0.5,0.2,1
							C15.7,243.6,14.8,244.1,13.5,244.1z"/>
						<path d="M6,240.2c-0.6,0-1-0.5-1-1.1c0-0.7,0.4-1.1,1-1.1c0.6,0,1,0.5,1,1.1C7,239.7,6.6,240.2,6,240.2z M8.2,240v-1.9h7.3
							v1.9H8.2z"/>
						<path d="M8.2,236v-1.6l1-0.1v-0.1c-0.6-0.6-1.1-1.4-1.1-2.4c0-1.6,1.1-2.2,2.9-2.2h4.5v1.9h-4.3c-1.1,0-1.5,0.3-1.5,1
							c0,0.6,0.3,1,0.8,1.5h5v1.9H8.2z"/>
						<path d="M11.9,228.2c-2.4,0-3.8-1.7-3.8-3.4c0-2,1.5-3,3.5-3c0.4,0,0.7,0,0.9,0.1v4.5c1.2-0.2,1.8-0.9,1.8-2
							c0-0.6-0.2-1.1-0.5-1.6l1.2-0.6c0.5,0.7,0.8,1.6,0.8,2.5C15.7,226.6,14.3,228.2,11.9,228.2z M11.1,223.4c-1,0-1.6,0.4-1.6,1.4
							c0,0.8,0.5,1.4,1.6,1.6V223.4z"/>
					</g>
					<g class="st0">
						<path d="M259,412.4h2.1l1.6,4.5c0.2,0.6,0.4,1.2,0.6,1.9h0.1c0.2-0.6,0.4-1.3,0.6-1.9l1.6-4.5h2.1v9.6H266v-4
							c0-0.9,0.1-2.2,0.2-3.2h-0.1l-0.8,2.3l-1.5,4h-1.1l-1.5-4l-0.8-2.3h-0.1c0.1,0.9,0.2,2.2,0.2,3.2v4H259V412.4z"/>
						<path d="M269.5,418.4c0-2.4,1.7-3.8,3.5-3.8s3.5,1.4,3.5,3.8c0,2.4-1.7,3.8-3.5,3.8S269.5,420.8,269.5,418.4z M274.5,418.4
							c0-1.4-0.6-2.3-1.5-2.3s-1.5,0.9-1.5,2.3c0,1.4,0.6,2.2,1.5,2.2S274.5,419.7,274.5,418.4z"/>
						<path d="M278.1,414.7h1.6l0.1,1h0.1c0.6-0.6,1.4-1.1,2.4-1.1c1.6,0,2.2,1.1,2.2,2.9v4.5h-1.9v-4.3c0-1.1-0.3-1.5-1-1.5
							c-0.6,0-1,0.3-1.5,0.8v5h-1.9V414.7z"/>
						<path d="M286.7,419.5v-3.2h-1v-1.4l1.1-0.1l0.2-2h1.6v2h1.8v1.5h-1.8v3.2c0,0.8,0.3,1.2,1,1.2c0.2,0,0.5-0.1,0.7-0.2l0.3,1.4
							c-0.4,0.1-0.9,0.3-1.5,0.3C287.4,422.2,286.7,421.1,286.7,419.5z"/>
						<path d="M291.9,411.6h1.9v2.6l-0.1,1.4c0.6-0.5,1.3-1.1,2.3-1.1c1.6,0,2.2,1.1,2.2,2.9v4.5h-1.9v-4.3c0-1.1-0.3-1.5-1-1.5
							c-0.6,0-1,0.3-1.5,0.8v5h-1.9V411.6z"/>
						<path d="M299.5,421.2l0.9-1.2c0.6,0.5,1.3,0.8,2,0.8c0.7,0,1.1-0.3,1.1-0.8c0-0.5-0.8-0.8-1.5-1.1c-0.9-0.4-2-0.9-2-2.1
							c0-1.3,1.1-2.2,2.7-2.2c1.1,0,1.9,0.4,2.5,0.9l-0.9,1.2c-0.5-0.4-1-0.6-1.6-0.6c-0.7,0-1,0.3-1,0.7c0,0.5,0.7,0.7,1.5,1
							c1,0.4,2,0.8,2,2.2c0,1.3-1,2.3-2.9,2.3C301.3,422.2,300.2,421.8,299.5,421.2z"/>
						<path d="M309.2,420c0-1.6,1.3-2.4,4.2-2.7c0-0.7-0.3-1.3-1.2-1.3c-0.7,0-1.3,0.3-2,0.7l-0.7-1.3c0.9-0.5,1.9-1,3-1
							c1.8,0,2.8,1.1,2.8,3.2v4.3h-1.6l-0.1-0.8h0c-0.6,0.5-1.4,1-2.2,1C310.1,422.2,309.2,421.3,309.2,420z M313.4,420v-1.5
							c-1.8,0.2-2.4,0.7-2.4,1.4c0,0.6,0.4,0.8,1,0.8C312.5,420.7,312.9,420.4,313.4,420z"/>
						<path d="M321.2,413.1c-0.2-0.1-0.5-0.2-0.8-0.2c-0.6,0-0.9,0.3-0.9,1.1v0.6h1.4v1.5h-1.4v5.8h-1.9v-5.8h-1v-1.4l1-0.1v-0.6
							c0-1.5,0.7-2.7,2.5-2.7c0.6,0,1.1,0.1,1.4,0.3L321.2,413.1z"/>
						<path d="M322.4,419.5v-3.2h-1v-1.4l1.1-0.1l0.2-2h1.6v2h1.8v1.5h-1.8v3.2c0,0.8,0.3,1.2,1,1.2c0.2,0,0.5-0.1,0.7-0.2l0.3,1.4
							c-0.4,0.1-0.9,0.3-1.5,0.3C323,422.2,322.4,421.1,322.4,419.5z"/>
						<path d="M326.9,418.4c0-2.4,1.7-3.8,3.4-3.8c2,0,3,1.5,3,3.5c0,0.4,0,0.7-0.1,0.9h-4.5c0.2,1.2,0.9,1.8,2,1.8
							c0.6,0,1.1-0.2,1.6-0.5l0.6,1.2c-0.7,0.5-1.6,0.8-2.5,0.8C328.4,422.2,326.9,420.8,326.9,418.4z M331.7,417.6
							c0-1-0.4-1.6-1.4-1.6c-0.8,0-1.4,0.5-1.6,1.6H331.7z"/>
						<path d="M334.9,414.7h1.6l0.1,1.3h0.1c0.5-0.9,1.3-1.5,2.1-1.5c0.4,0,0.6,0.1,0.9,0.2l-0.3,1.7c-0.2-0.1-0.5-0.1-0.8-0.1
							c-0.6,0-1.3,0.4-1.7,1.4v4.3h-1.9V414.7z"/>
						<path d="M343.8,414.1c0-1.5,0.7-2.7,2.5-2.7c0.6,0,1.1,0.1,1.4,0.3l-0.4,1.4c-0.2-0.1-0.5-0.2-0.8-0.2c-0.6,0-0.9,0.3-0.9,1.1
							v0.6h1.4v1.5h-1.4v5.8h-1.9v-5.8h-1v-1.4l1-0.1V414.1z M348.4,412.5c0-0.6,0.5-1,1.1-1c0.7,0,1.2,0.4,1.2,1c0,0.6-0.5,1-1.2,1
							C348.9,413.5,348.4,413.1,348.4,412.5z M348.6,414.7h1.9v7.3h-1.9V414.7z"/>
						<path d="M352.5,414.7h1.6l0.1,1.3h0.1c0.5-0.9,1.3-1.5,2.1-1.5c0.4,0,0.6,0.1,0.9,0.2l-0.3,1.7c-0.2-0.1-0.5-0.1-0.8-0.1
							c-0.6,0-1.3,0.4-1.7,1.4v4.3h-1.9V414.7z"/>
						<path d="M357.4,421.2l0.9-1.2c0.6,0.5,1.3,0.8,2,0.8c0.7,0,1.1-0.3,1.1-0.8c0-0.5-0.8-0.8-1.5-1.1c-0.9-0.4-2-0.9-2-2.1
							c0-1.3,1.1-2.2,2.7-2.2c1.1,0,1.9,0.4,2.5,0.9l-0.9,1.2c-0.5-0.4-1-0.6-1.6-0.6c-0.7,0-1,0.3-1,0.7c0,0.5,0.7,0.7,1.5,1
							c1,0.4,2,0.8,2,2.2c0,1.3-1,2.3-2.9,2.3C359.2,422.2,358.1,421.8,357.4,421.2z"/>
						<path d="M364.5,419.5v-3.2h-1v-1.4l1.1-0.1l0.2-2h1.6v2h1.8v1.5h-1.8v3.2c0,0.8,0.3,1.2,1,1.2c0.2,0,0.5-0.1,0.7-0.2l0.3,1.4
							c-0.4,0.1-0.9,0.3-1.5,0.3C365.2,422.2,364.5,421.1,364.5,419.5z"/>
						<path d="M372.5,412.5c0-0.6,0.5-1,1.1-1c0.6,0,1.1,0.4,1.1,1c0,0.6-0.5,1-1.1,1C372.9,413.5,372.5,413.1,372.5,412.5z
							 M372.6,414.7h1.9v7.3h-1.9V414.7z"/>
						<path d="M376.6,414.7h1.6l0.1,1h0.1c0.6-0.6,1.4-1.1,2.4-1.1c1.6,0,2.2,1.1,2.2,2.9v4.5H381v-4.3c0-1.1-0.3-1.5-1-1.5
							c-0.6,0-1,0.3-1.5,0.8v5h-1.9V414.7z"/>
						<path d="M383.2,424.8l0.3-1.4c0.2,0.1,0.4,0.1,0.6,0.1c0.6,0,0.8-0.4,0.8-1.2v-7.5h1.9v7.5c0,1.6-0.6,2.8-2.4,2.8
							C383.9,425,383.5,424.9,383.2,424.8z M384.8,412.5c0-0.6,0.5-1,1.1-1c0.7,0,1.1,0.4,1.1,1c0,0.6-0.5,1-1.1,1
							C385.2,413.5,384.8,413.1,384.8,412.5z"/>
						<path d="M388.4,418.4c0-2.4,1.7-3.8,3.4-3.8c2,0,3,1.5,3,3.5c0,0.4,0,0.7-0.1,0.9h-4.5c0.2,1.2,0.9,1.8,2,1.8
							c0.6,0,1.1-0.2,1.6-0.5l0.6,1.2c-0.7,0.5-1.6,0.8-2.5,0.8C390,422.2,388.4,420.8,388.4,418.4z M393.2,417.6
							c0-1-0.4-1.6-1.4-1.6c-0.8,0-1.4,0.5-1.6,1.6H393.2z"/>
						<path d="M396,418.4c0-2.4,1.7-3.8,3.7-3.8c0.9,0,1.6,0.4,2.1,0.8l-0.9,1.2c-0.4-0.3-0.7-0.5-1.1-0.5c-1.1,0-1.9,0.9-1.9,2.3
							c0,1.4,0.8,2.2,1.8,2.2c0.5,0,1-0.2,1.4-0.6l0.8,1.3c-0.7,0.6-1.6,0.9-2.4,0.9C397.5,422.2,396,420.8,396,418.4z"/>
						<path d="M403.4,419.5v-3.2h-1v-1.4l1.1-0.1l0.2-2h1.6v2h1.8v1.5h-1.8v3.2c0,0.8,0.3,1.2,1,1.2c0.2,0,0.5-0.1,0.7-0.2l0.3,1.4
							c-0.4,0.1-0.9,0.3-1.5,0.3C404.1,422.2,403.4,421.1,403.4,419.5z"/>
						<path d="M408.4,412.5c0-0.6,0.5-1,1.1-1c0.7,0,1.1,0.4,1.1,1c0,0.6-0.5,1-1.1,1C408.9,413.5,408.4,413.1,408.4,412.5z
							 M408.6,414.7h1.9v7.3h-1.9V414.7z"/>
						<path d="M412.1,418.4c0-2.4,1.7-3.8,3.5-3.8c1.8,0,3.5,1.4,3.5,3.8c0,2.4-1.7,3.8-3.5,3.8
							C413.8,422.2,412.1,420.8,412.1,418.4z M417.1,418.4c0-1.4-0.6-2.3-1.5-2.3c-1,0-1.5,0.9-1.5,2.3c0,1.4,0.6,2.2,1.5,2.2
							C416.6,420.6,417.1,419.7,417.1,418.4z"/>
						<path d="M420.7,414.7h1.6l0.1,1h0.1c0.6-0.6,1.4-1.1,2.4-1.1c1.6,0,2.2,1.1,2.2,2.9v4.5h-1.9v-4.3c0-1.1-0.3-1.5-1-1.5
							c-0.6,0-1,0.3-1.5,0.8v5h-1.9V414.7z"/>
					</g>
					<g transform="translate(35.000000, 39.000000)">
						<g transform="translate(33.000000, 319.500000)">
							<g class="st0">
								<path d="M1.9,21.9c0-3.8,1.4-5.7,3.6-5.7c2.2,0,3.6,1.9,3.6,5.7c0,3.8-1.4,5.8-3.6,5.8C3.3,27.7,1.9,25.8,1.9,21.9z
									 M7.4,21.9c0-3.2-0.8-4.3-1.9-4.3s-1.9,1.2-1.9,4.3c0,3.2,0.8,4.4,1.9,4.4S7.4,25.1,7.4,21.9z"/>
							</g>
							<g class="st0">
								<path d="M110.6,26.2l0.8-1.1c0.6,0.7,1.5,1.2,2.6,1.2c1.2,0,2.1-0.7,2.1-1.8c0-1.2-0.8-2-3.3-2v-1.3c2.2,0,2.9-0.8,2.9-1.9
									c0-1-0.6-1.6-1.7-1.6c-0.9,0-1.6,0.4-2.2,1l-0.9-1.1c0.9-0.8,1.9-1.3,3.2-1.3c2,0,3.4,1,3.4,2.9c0,1.3-0.7,2.2-1.9,2.6v0.1
									c1.3,0.3,2.3,1.3,2.3,2.8c0,2-1.7,3.2-3.7,3.2C112.5,27.7,111.4,27,110.6,26.2z"/>
							</g>
							<path class="st1" d="M0,0.5h120"/>
						</g>
						<g transform="translate(153.000000, 319.500000)">
							<g class="st0">
								<path d="M117,18.5c-0.4-0.5-1.1-0.8-1.7-0.8c-1.4,0-2.6,1.1-2.7,4.2c0.6-0.8,1.6-1.3,2.4-1.3c1.9,0,3.1,1.1,3.1,3.5
									c0,2.2-1.5,3.6-3.3,3.6c-2.1,0-3.8-1.8-3.8-5.5c0-4.2,2-5.9,4.2-5.9c1.2,0,2.1,0.5,2.8,1.2L117,18.5z M116.5,24.1
									c0-1.4-0.6-2.2-1.8-2.2c-0.6,0-1.4,0.3-2.1,1.3c0.2,2.2,1,3.2,2.2,3.2C115.8,26.4,116.5,25.5,116.5,24.1z"/>
							</g>
							<path class="st1" d="M0,0.5h120"/>
						</g>
						<g transform="translate(273.000000, 319.500000)">
							<g class="st0">
								<path d="M112,25.5c0.4,0.5,1.1,0.8,1.8,0.8c1.3,0,2.5-1.1,2.6-4.2c-0.6,0.8-1.6,1.3-2.4,1.3c-1.8,0-3.1-1.2-3.1-3.5
									c0-2.2,1.5-3.6,3.3-3.6c2.1,0,3.8,1.7,3.8,5.4c0,4.3-2,6.1-4.1,6.1c-1.3,0-2.2-0.5-2.8-1.2L112,25.5z M116.4,20.8
									c-0.2-2.2-1-3.2-2.2-3.2c-0.9,0-1.7,0.9-1.7,2.3c0,1.4,0.6,2.2,1.8,2.2C114.9,22.1,115.7,21.7,116.4,20.8z"/>
							</g>
							<path class="st1" d="M0,0.5h120"/>
						</g>
						<g transform="translate(0.000000, 240.000000)">
							<g class="st0">
								<path d="M0.7,77.1h4v1.3h-4V77.1z"/>
								<path d="M5.8,80.7l0.8-1.1c0.6,0.7,1.5,1.2,2.6,1.2c1.2,0,2.1-0.7,2.1-1.8c0-1.2-0.8-2-3.3-2v-1.3c2.2,0,2.9-0.8,2.9-1.9
									c0-1-0.6-1.6-1.7-1.6c-0.9,0-1.6,0.4-2.2,1l-0.9-1.1C7,71.3,8,70.8,9.3,70.8c2,0,3.4,1,3.4,2.9c0,1.3-0.7,2.2-1.9,2.6v0.1
									c1.3,0.3,2.3,1.3,2.3,2.8c0,2-1.7,3.2-3.7,3.2C7.6,82.2,6.5,81.5,5.8,80.7z"/>
								<path d="M14.3,80.7l0.8-1.1c0.6,0.6,1.4,1.2,2.6,1.2c1.2,0,2.2-0.9,2.2-2.4c0-1.5-0.8-2.3-2.1-2.3c-0.7,0-1.1,0.2-1.8,0.6
									l-0.8-0.6l0.3-5.2h5.6v1.5H17l-0.3,2.8c0.5-0.2,0.9-0.4,1.5-0.4c1.8,0,3.4,1.1,3.4,3.5c0,2.4-1.8,3.8-3.7,3.8
									C16.2,82.2,15.1,81.5,14.3,80.7z"/>
							</g>
							<path class="st1" d="M33,80V0"/>
						</g>
						<g transform="translate(0.000000, 160.000000)">
							<g class="st0">
								<path d="M0.7,77.1h4v1.3h-4V77.1z"/>
								<path d="M6,81c3.3-2.9,4.9-5,4.9-6.8c0-1.2-0.6-2-1.9-2c-0.9,0-1.6,0.6-2.2,1.2l-1-1c0.9-1,1.9-1.7,3.4-1.7
									c2,0,3.3,1.3,3.3,3.3c0,2.1-1.7,4.3-4,6.6c0.6-0.1,1.3-0.1,1.8-0.1h2.8V82H6V81z"/>
								<path d="M14.6,76.4c0-3.8,1.4-5.7,3.6-5.7c2.2,0,3.6,1.9,3.6,5.7c0,3.8-1.4,5.8-3.6,5.8C16,82.2,14.6,80.3,14.6,76.4z
									 M20.1,76.4c0-3.2-0.8-4.3-1.9-4.3s-1.9,1.2-1.9,4.3c0,3.2,0.8,4.4,1.9,4.4S20.1,79.6,20.1,76.4z"/>
							</g>
							<path class="st1" d="M33,80V0"/>
						</g>
						<g transform="translate(0.000000, 80.000000)">
							<path class="st1" d="M33,80V0"/>
							<g class="st0">
								<path d="M0.7,77.1h4v1.3h-4V77.1z"/>
								<path d="M6.6,80.6h2.4v-7.7h-2v-1.1c1-0.2,1.8-0.5,2.4-0.8h1.3v9.6h2.2V82H6.6V80.6z"/>
								<path d="M14.6,76.4c0-3.8,1.4-5.7,3.6-5.7c2.2,0,3.6,1.9,3.6,5.7c0,3.8-1.4,5.8-3.6,5.8C16,82.2,14.6,80.3,14.6,76.4z
									 M20.1,76.4c0-3.2-0.8-4.3-1.9-4.3s-1.9,1.2-1.9,4.3c0,3.2,0.8,4.4,1.9,4.4S20.1,79.6,20.1,76.4z"/>
							</g>
						</g>
						<g transform="translate(5.000000, 0.000000)">
							<g class="st0">
								<path d="M1.3,15.6h2.4V7.9h-2V6.8c1-0.2,1.8-0.5,2.4-0.8h1.3v9.6h2.2V17H1.3V15.6z"/>
								<path d="M9.3,11.4c0-3.8,1.4-5.7,3.6-5.7c2.2,0,3.6,1.9,3.6,5.7c0,3.8-1.4,5.8-3.6,5.8C10.6,17.2,9.3,15.3,9.3,11.4z
									 M14.7,11.4c0-3.2-0.8-4.3-1.9-4.3s-1.9,1.2-1.9,4.3c0,3.2,0.8,4.4,1.9,4.4S14.7,14.6,14.7,11.4z"/>
							</g>
							<g class="st0">
								<path d="M9.7,76.4c0-3.8,1.4-5.7,3.6-5.7c2.2,0,3.6,1.9,3.6,5.7c0,3.8-1.4,5.8-3.6,5.8C11.1,82.2,9.7,80.3,9.7,76.4z
									 M15.2,76.4c0-3.2-0.8-4.3-1.9-4.3s-1.9,1.2-1.9,4.3c0,3.2,0.8,4.4,1.9,4.4S15.2,79.6,15.2,76.4z"/>
							</g>
							<path class="st1" d="M28,80V0"/>
						</g>
					</g>
					<g transform="translate(68.000000, 39.000000)">
						<path class="st2" d="M0,0l25.5,72.5"/>
						<path class="st2" d="M25.5,72.5l42,0.5"/>
						<path class="st2" d="M67.5,73l41,32.5"/>
						<path class="st2" d="M109,106l121,46"/>
						<path class="st2" d="M230,152l124.5,32.5"/>
						<g transform="translate(16.000000, 38.000000)">
							<g>
								<circle class="st3" cx="1.5" cy="9.5" r="1.5"/>
								<circle class="st4" cx="9.5" cy="9.5" r="1.5"/>
								<circle class="st17" cx="9.5" cy="17.5" r="1.5"/>
								<circle class="st23" cx="5.5" cy="1.5" r="1.5"/>
								<circle class="st20" cx="13.5" cy="1.5" r="1.5"/>
								<circle class="st24" cx="17.5" cy="9.5" r="1.5"/>
							</g>
							<g transform="translate(4.000000, 24.000000)">
								<circle class="st14" cx="1.5" cy="1.5" r="1.5"/>
								<circle class="st7" cx="9.5" cy="1.5" r="1.5"/>
							</g>
							<g transform="translate(8.000000, 32.000000)">
								<circle class="st18" cx="1.5" cy="1.5" r="1.5"/>
								<circle id="Oval-Copy" class="st25" cx="1.5" cy="9.5" r="1.5"/>
								<circle id="Oval-Copy-2" class="st26" cx="1.5" cy="22.5" r="1.5"/>
								<circle id="Oval-Copy-3" class="st5" cx="1.5" cy="40.5" r="1.5"/>
								<circle id="Oval-Copy-4" class="st20" cx="1.5" cy="73.5" r="1.5"/>
								<circle id="Oval-Copy-5" class="st27" cx="1.5" cy="79.5" r="1.5"/>
								<circle id="Oval-Copy-6" class="st12" cx="1.5" cy="117.5" r="1.5"/>
							</g>
						</g>
						<g transform="translate(58.000000, 40.000000)">
							<g transform="translate(8.000000, 0.000000)">
								<circle class="st23" cx="1.5" cy="1.5" r="1.5"/>
								<circle class="st5" cx="1.5" cy="9.5" r="1.5"/>
							</g>
							<g transform="translate(0.000000, 16.000000)">
								<circle class="st23" cx="1.5" cy="1.5" r="1.5"/>
								<circle class="st4" cx="9.5" cy="1.5" r="1.5"/>
								<circle class="st17" cx="17.5" cy="1.5" r="1.5"/>
							</g>
							<g transform="translate(8.000000, 24.000000)">
								<circle class="st28" cx="1.5" cy="1.5" r="1.5"/>
							</g>
							<g transform="translate(0.000000, 32.000000)">
								<circle class="st8" cx="1.5" cy="1.5" r="1.5"/>
								<circle class="st20" cx="9.5" cy="1.5" r="1.5"/>
								<circle class="st7" cx="17.5" cy="1.5" r="1.5"/>
							</g>
							<g transform="translate(4.000000, 59.000000)">
								<circle class="st29" cx="1.5" cy="1.5" r="1.5"/>
								<circle class="st25" cx="9.5" cy="1.5" r="1.5"/>
							</g>
							<g transform="translate(8.000000, 97.000000)">
								<circle class="st12" cx="1.5" cy="1.5" r="1.5"/>
								<circle class="st6" cx="1.5" cy="14.5" r="1.5"/>
								<circle class="st20" cx="1.5" cy="27.5" r="1.5"/>
							</g>
						</g>
						<g transform="translate(99.000000, 16.000000)">
							
								<g transform="translate(9.500000, 24.500000) rotate(-90.000000) translate(-9.500000, -24.500000) translate(-15.000000, 23.000000)">
								<circle class="st30" cx="24.5" cy="1.5" r="1.5"/>
								<circle class="st4" cx="1.5" cy="1.5" r="1.5"/>
								<circle class="st12" cx="47.5" cy="1.5" r="1.5"/>
							</g>
							<g transform="translate(4.000000, 88.000000)">
								<circle class="st10" cx="1.5" cy="1.5" r="1.5"/>
								<circle class="st15" cx="9.5" cy="1.5" r="1.5"/>
							</g>
							<g transform="translate(0.000000, 54.000000)">
								<circle class="st20" cx="1.5" cy="1.5" r="1.5"/>
								<circle class="st31" cx="9.5" cy="1.5" r="1.5"/>
								<circle class="st15" cx="17.5" cy="1.5" r="1.5"/>
							</g>
							<g transform="translate(0.000000, 62.000000)">
								<circle class="st30" cx="1.5" cy="1.5" r="1.5"/>
								<circle class="st4" cx="9.5" cy="1.5" r="1.5"/>
								<circle class="st17" cx="17.5" cy="1.5" r="1.5"/>
							</g>
							
								<g transform="translate(9.500000, 145.500000) rotate(-270.000000) translate(-9.500000, -145.500000) translate(-42.000000, 144.000000)">
								<circle class="st32" cx="1.5" cy="1.5" r="1.5"/>
								<circle class="st33" cx="9.5" cy="1.5" r="1.5"/>
								<circle class="st34" cx="32.5" cy="1.5" r="1.5"/>
								<circle class="st6" cx="55.5" cy="1.5" r="1.5"/>
								<circle class="st8" cx="78.5" cy="1.5" r="1.5"/>
								<circle class="st20" cx="101.5" cy="1.5" r="1.5"/>
							</g>
						</g>
						<g transform="translate(225.000000, 71.000000)">
							<g>
								<circle class="st8" cx="1.5" cy="1.5" r="1.5"/>
								<circle class="st17" cx="9.5" cy="1.5" r="1.5"/>
							</g>
							<g transform="translate(4.000000, 13.000000)">
								<circle class="st15" cx="1.5" cy="1.5" r="1.5"/>
							</g>
							
								<g transform="translate(5.500000, 42.500000) rotate(-270.000000) translate(-5.500000, -42.500000) translate(4.000000, 37.000000)">
								<circle class="st35" cx="1.5" cy="1.5" r="1.5"/>
								<circle class="st20" cx="1.5" cy="9.5" r="1.5"/>
							</g>
							
								<g transform="translate(5.500000, 54.500000) rotate(-360.000000) translate(-5.500000, -54.500000) translate(4.000000, 49.000000)">
								<circle class="st30" cx="1.5" cy="1.5" r="1.5"/>
								<circle class="st30" cx="1.5" cy="9.5" r="1.5"/>
							</g>
							
								<g transform="translate(5.500000, 85.500000) rotate(-360.000000) translate(-5.500000, -85.500000) translate(0.000000, 80.000000)">
								<circle class="st4" cx="5.5" cy="1.5" r="1.5"/>
								<circle class="st36" cx="1.5" cy="9.5" r="1.5"/>
								<circle class="st37" cx="9.5" cy="9.5" r="1.5"/>
							</g>
							
								<g transform="translate(5.500000, 101.500000) rotate(-360.000000) translate(-5.500000, -101.500000) translate(0.000000, 96.000000)">
								<circle class="st20" cx="5.5" cy="1.5" r="1.5"/>
								<circle class="st5" cx="1.5" cy="9.5" r="1.5"/>
								<circle class="st38" cx="9.5" cy="9.5" r="1.5"/>
							</g>
							
								<g transform="translate(5.500000, 154.500000) rotate(-360.000000) translate(-5.500000, -154.500000) translate(4.000000, 127.000000)">
								<circle class="st12" cx="1.5" cy="1.5" r="1.5"/>
								<circle class="st30" cx="1.5" cy="14.5" r="1.5"/>
								<circle class="st20" cx="1.5" cy="53.5" r="1.5"/>
							</g>
						</g>
						<g id="dots5" transform="translate(349.000000, 80.000000)">
							<g>
								<circle class="st17" cx="5.5" cy="1.5" r="1.5"/>
								<circle class="st39" cx="5.5" cy="14.5" r="1.5"/>
								<circle class="st30" cx="5.5" cy="22.5" r="1.5"/>
								<circle class="st20" cx="5.5" cy="65.5" r="1.5"/>
								<circle class="st40" cx="5.5" cy="78.5" r="1.5"/>
								<circle class="st4" cx="5.5" cy="91.5" r="1.5"/>
								<circle class="st41" cx="5.5" cy="104.5" r="1.5"/>
								<circle class="st15" cx="9.5" cy="117.5" r="1.5"/>
								<circle class="st12" cx="1.5" cy="117.5" r="1.5"/>
								<circle class="st35" cx="5.5" cy="130.5" r="1.5"/>
								<circle class="st42" cx="5.5" cy="143.5" r="1.5"/>
								<circle class="st43" cx="5.5" cy="183.5" r="1.5"/>
								<circle class="st5" cx="5.5" cy="216.5" r="1.5"/>
								<circle class="st18" cx="5.5" cy="229.5" r="1.5"/>
							</g>
						</g>
					</g>
				</g>
			</g>
			<g class="st0">
				<path d="M43.5,7.7h7.8v1.7h-5.7v3.7h4.9V15h-4.9v4.3h5.9V21h-8V7.7z"/>
				<path d="M65,8.3c-0.4-0.2-0.8-0.3-1.1-0.3c-0.9,0-1.3,0.6-1.3,1.8v1.3h2v1.7h-2V21h-2.1v-8.2h-3.9V21h-2.1v-8.2h-1.4v-1.5
					l1.4-0.1v-1c0-2.1,1-3.4,3.3-3.4c0.7,0,1.4,0.1,1.9,0.4l-0.4,1.5c-0.4-0.2-0.8-0.3-1.3-0.3c-0.9,0-1.4,0.6-1.4,1.8v1h3.9V9.9
					c0-2,0.9-3.4,3.1-3.4c0.7,0,1.3,0.1,1.8,0.3L65,8.3z"/>
				<path d="M65.5,16.1c0-3.2,2.2-5.2,4.5-5.2c2.6,0,4,1.9,4,4.7c0,0.4,0,0.8-0.1,1h-6.4c0.2,1.9,1.4,3,3.1,3c0.9,0,1.6-0.3,2.4-0.7
					l0.7,1.3c-0.9,0.6-2.1,1-3.3,1C67.6,21.2,65.5,19.3,65.5,16.1z M72.2,15.2c0-1.7-0.8-2.7-2.2-2.7c-1.2,0-2.3,1-2.5,2.7H72.2z"/>
				<path d="M75.6,16.1c0-3.3,2.3-5.2,4.9-5.2c1.3,0,2.2,0.5,2.9,1.1l-1,1.4c-0.5-0.5-1.1-0.8-1.8-0.8c-1.7,0-2.8,1.4-2.8,3.5
					c0,2.1,1.1,3.5,2.8,3.5c0.8,0,1.6-0.4,2.2-0.9l0.8,1.4c-0.9,0.8-2.1,1.2-3.2,1.2C77.7,21.2,75.6,19.3,75.6,16.1z"/>
				<path d="M85.8,17.8v-5h-1.4v-1.5l1.5-0.1l0.2-2.7h1.7v2.7h2.6v1.7h-2.6v5c0,1.2,0.4,1.8,1.4,1.8c0.3,0,0.8-0.1,1.1-0.2l0.4,1.5
					c-0.6,0.2-1.2,0.4-1.9,0.4C86.5,21.2,85.8,19.8,85.8,17.8z"/>
				<path d="M91.3,19.9l1-1.3c0.9,0.7,1.7,1.1,2.8,1.1c1.2,0,1.7-0.6,1.7-1.3c0-0.9-1.1-1.3-2.2-1.7c-1.3-0.5-2.8-1.2-2.8-2.9
					c0-1.7,1.3-2.9,3.5-2.9c1.3,0,2.4,0.5,3.2,1.2l-1,1.3c-0.7-0.5-1.4-0.9-2.2-0.9c-1.1,0-1.6,0.5-1.6,1.2c0,0.8,1,1.2,2.1,1.6
					c1.4,0.5,2.9,1.1,2.9,3c0,1.7-1.3,3-3.8,3C93.7,21.2,92.3,20.7,91.3,19.9z"/>
				<path d="M104.3,16.1c0-3.3,2.2-5.2,4.7-5.2s4.7,1.9,4.7,5.2c0,3.3-2.2,5.2-4.7,5.2S104.3,19.3,104.3,16.1z M111.6,16.1
					c0-2.1-1-3.5-2.5-3.5c-1.5,0-2.5,1.4-2.5,3.5c0,2.1,1,3.5,2.5,3.5C110.6,19.5,111.6,18.2,111.6,16.1z"/>
				<path d="M120.9,8.3c-0.4-0.2-0.7-0.3-1.1-0.3c-0.9,0-1.3,0.6-1.3,1.8v1.3h2v1.7h-2V21h-2.1v-8.2H115v-1.5l1.4-0.1V9.9
					c0-2,0.9-3.4,3.1-3.4c0.7,0,1.3,0.1,1.7,0.3L120.9,8.3z"/>
				<path d="M126.5,7.7h7.8v1.7h-5.7v3.7h4.9V15h-4.9v4.3h5.9V21h-8V7.7z"/>
				<path d="M137.1,11.1h1.7l0.2,1.4h0.1c0.9-0.9,1.9-1.6,3.3-1.6c2.1,0,3,1.4,3,3.9V21h-2.1v-6c0-1.7-0.5-2.4-1.7-2.4
					c-0.9,0-1.5,0.5-2.4,1.3v7h-2.1V11.1z"/>
				<path d="M147.6,22.8c0-0.8,0.5-1.6,1.4-2.2v-0.1c-0.5-0.3-0.9-0.8-0.9-1.6c0-0.8,0.6-1.4,1.1-1.8V17c-0.7-0.5-1.3-1.5-1.3-2.6
					c0-2.3,1.8-3.6,3.8-3.6c0.6,0,1.1,0.1,1.4,0.3h3.5v1.5h-1.9c0.4,0.4,0.6,1.1,0.6,1.8c0,2.2-1.6,3.4-3.7,3.4
					c-0.5,0-1-0.1-1.4-0.3c-0.3,0.3-0.5,0.6-0.5,1c0,0.6,0.4,1,1.7,1h1.8c2.3,0,3.6,0.7,3.6,2.4c0,1.9-2,3.5-5.2,3.5
					C149.3,25.4,147.6,24.6,147.6,22.8z M154.9,22.3c0-0.8-0.6-1.1-1.9-1.1h-1.5c-0.5,0-0.9-0.1-1.3-0.1c-0.6,0.4-0.8,0.9-0.8,1.4
					c0,1,1,1.5,2.6,1.5C153.8,24.1,154.9,23.2,154.9,22.3z M153.7,14.4c0-1.3-0.8-2.1-1.9-2.1s-1.9,0.8-1.9,2.1
					c0,1.3,0.8,2.1,1.9,2.1S153.7,15.7,153.7,14.4z"/>
				<path d="M157.7,16.1c0-3.2,2.2-5.2,4.5-5.2c2.6,0,4,1.9,4,4.7c0,0.4,0,0.8-0.1,1h-6.4c0.2,1.9,1.4,3,3.1,3
					c0.9,0,1.6-0.3,2.4-0.7l0.7,1.3c-0.9,0.6-2.1,1-3.3,1C159.9,21.2,157.7,19.3,157.7,16.1z M164.5,15.2c0-1.7-0.8-2.7-2.2-2.7
					c-1.2,0-2.3,1-2.5,2.7H164.5z"/>
				<path d="M168.6,11.1h1.7l0.2,1.4h0.1c0.9-0.9,1.9-1.6,3.3-1.6c2.1,0,3,1.4,3,3.9V21h-2.1v-6c0-1.7-0.5-2.4-1.7-2.4
					c-0.9,0-1.5,0.5-2.4,1.3v7h-2.1V11.1z"/>
				<path d="M178.8,19.9l1-1.3c0.9,0.7,1.7,1.1,2.8,1.1c1.2,0,1.7-0.6,1.7-1.3c0-0.9-1.1-1.3-2.2-1.7c-1.3-0.5-2.8-1.2-2.8-2.9
					c0-1.7,1.3-2.9,3.5-2.9c1.3,0,2.4,0.5,3.2,1.2l-1,1.3c-0.7-0.5-1.4-0.9-2.2-0.9c-1.1,0-1.6,0.5-1.6,1.2c0,0.8,1,1.2,2.1,1.6
					c1.4,0.5,2.9,1.1,2.9,3c0,1.7-1.3,3-3.8,3C181.2,21.2,179.8,20.7,178.8,19.9z"/>
				<path d="M188.2,8c0-0.7,0.6-1.2,1.3-1.2s1.3,0.5,1.3,1.2c0,0.7-0.6,1.2-1.3,1.2S188.2,8.7,188.2,8z M188.5,11.1h2.1V21h-2.1
					V11.1z"/>
				<path d="M192.6,19.9l1-1.3c0.9,0.7,1.7,1.1,2.8,1.1c1.2,0,1.7-0.6,1.7-1.3c0-0.9-1.1-1.3-2.2-1.7c-1.3-0.5-2.8-1.2-2.8-2.9
					c0-1.7,1.3-2.9,3.5-2.9c1.3,0,2.4,0.5,3.2,1.2l-1,1.3c-0.7-0.5-1.4-0.9-2.2-0.9c-1.1,0-1.6,0.5-1.6,1.2c0,0.8,1,1.2,2.1,1.6
					c1.4,0.5,2.9,1.1,2.9,3c0,1.7-1.3,3-3.8,3C195,21.2,193.6,20.7,192.6,19.9z"/>
				<path d="M206.4,15.4c0-3.5,1-6.5,2.7-9.2l1.3,0.6c-1.5,2.6-2.3,5.6-2.3,8.6c0,3,0.7,6.1,2.3,8.6l-1.3,0.6
					C207.4,21.8,206.4,18.9,206.4,15.4z"/>
				<path d="M211.1,7.7h2.2l2,6.9c0.5,1.5,0.7,2.8,1.2,4.3h0.1c0.5-1.5,0.8-2.8,1.2-4.3l2-6.9h2.1L217.7,21h-2.5L211.1,7.7z"/>
				<path d="M223.6,7.7h2.4l2.4,6.7c0.3,0.9,0.6,1.8,0.9,2.7h0.1c0.3-0.9,0.6-1.8,0.9-2.7l2.4-6.7h2.4V21h-1.9v-6.6
					c0-1.2,0.2-2.9,0.3-4.1h-0.1l-1.1,3.1l-2.3,6.3h-1.3l-2.3-6.3l-1-3.1h-0.1c0.1,1.2,0.3,2.9,0.3,4.1V21h-1.9V7.7z"/>
				<path d="M237.6,19.8c3.9-3.5,5.9-6,5.9-8.2c0-1.4-0.8-2.4-2.3-2.4c-1,0-1.9,0.7-2.6,1.5l-1.2-1.2c1.1-1.2,2.3-2,4-2
					c2.4,0,4,1.6,4,4c0,2.6-2,5.2-4.8,7.9c0.7-0.1,1.5-0.1,2.2-0.1h3.3V21h-8.6V19.8z"/>
				<path d="M247.9,14.3c0-4.6,1.7-6.8,4.3-6.8c2.6,0,4.3,2.3,4.3,6.8c0,4.6-1.7,6.9-4.3,6.9C249.6,21.2,247.9,18.9,247.9,14.3z
					 M254.5,14.3c0-3.8-1-5.2-2.3-5.2c-1.3,0-2.3,1.4-2.3,5.2c0,3.8,1,5.3,2.3,5.3C253.5,19.6,254.5,18.2,254.5,14.3z"/>
				<path d="M258.1,19.8c3.9-3.5,5.9-6,5.9-8.2c0-1.4-0.8-2.4-2.3-2.4c-1,0-1.9,0.7-2.6,1.5L258,9.5c1.1-1.2,2.3-2,4-2
					c2.4,0,4,1.6,4,4c0,2.6-2,5.2-4.8,7.9c0.7-0.1,1.5-0.1,2.2-0.1h3.3V21h-8.6V19.8z"/>
				<path d="M268.4,24c1.5-2.6,2.3-5.6,2.3-8.6c0-3-0.7-6-2.3-8.6l1.3-0.6c1.7,2.7,2.7,5.7,2.7,9.2c0,3.6-1,6.5-2.7,9.2L268.4,24z"
					/>
				<path d="M278.9,16.1c0-3.3,2.2-5.2,4.7-5.2c2.4,0,4.7,1.9,4.7,5.2c0,3.3-2.2,5.2-4.7,5.2C281.1,21.2,278.9,19.3,278.9,16.1z
					 M286.1,16.1c0-2.1-1-3.5-2.5-3.5c-1.5,0-2.5,1.4-2.5,3.5c0,2.1,1,3.5,2.5,3.5C285.1,19.5,286.1,18.2,286.1,16.1z"/>
				<path d="M290.6,11.1h1.7l0.2,1.4h0.1c0.9-0.9,1.9-1.6,3.3-1.6c2.1,0,3,1.4,3,3.9V21h-2.1v-6c0-1.7-0.5-2.4-1.7-2.4
					c-0.9,0-1.5,0.5-2.4,1.3v7h-2.1V11.1z"/>
				<path d="M312.2,17.2h-4.6l-1.1,3.8h-2.1l4.4-13.3h2.4l4.4,13.3h-2.2L312.2,17.2z M311.7,15.6l-0.5-1.8c-0.4-1.4-0.8-2.9-1.3-4.4
					h-0.1c-0.4,1.5-0.8,3-1.2,4.4l-0.5,1.8H311.7z"/>
				<path d="M317.3,7.7h2.1v11.5h5.6V21h-7.7V7.7z"/>
				<path d="M325.9,19.3l1.2-1.4c1,1,2.3,1.6,3.5,1.6c1.6,0,2.5-0.8,2.5-1.9c0-1.2-0.9-1.6-2.1-2.1l-1.8-0.8
					c-1.3-0.5-2.7-1.5-2.7-3.5c0-2.1,1.8-3.7,4.4-3.7c1.5,0,3,0.6,4,1.7l-1.1,1.3c-0.8-0.7-1.7-1.2-2.9-1.2c-1.4,0-2.2,0.6-2.2,1.7
					c0,1.1,1.1,1.6,2.1,2l1.8,0.8c1.6,0.7,2.7,1.6,2.7,3.6c0,2.1-1.8,3.9-4.7,3.9C328.8,21.2,327.1,20.5,325.9,19.3z"/>
				<path d="M337.8,7.7h7.9v1.7h-5.8v4.1h4.9v1.7h-4.9V21h-2.1V7.7z"/>
				<path d="M355.2,21l-3-5.3H350V21H348V7.7h4.3c2.7,0,4.8,1,4.8,3.8c0,2.1-1.1,3.3-2.8,3.8l3.2,5.6H355.2z M350,14h2
					c1.9,0,3-0.8,3-2.4s-1-2.2-3-2.2h-2V14z"/>
				<path d="M358.5,19.3l1.2-1.4c1,1,2.3,1.6,3.5,1.6c1.6,0,2.5-0.8,2.5-1.9c0-1.2-0.9-1.6-2.1-2.1l-1.8-0.8
					c-1.3-0.5-2.7-1.5-2.7-3.5c0-2.1,1.8-3.7,4.4-3.7c1.5,0,3,0.6,4,1.7l-1.1,1.3c-0.8-0.7-1.7-1.2-2.9-1.2c-1.4,0-2.2,0.6-2.2,1.7
					c0,1.1,1.1,1.6,2.1,2l1.8,0.8c1.6,0.7,2.7,1.6,2.7,3.6c0,2.1-1.8,3.9-4.7,3.9C361.4,21.2,359.7,20.5,358.5,19.3z"/>
				<path d="M369.8,15.1h4.8v1.5h-4.8V15.1z"/>
				<path d="M384.4,21l-3-5.3h-2.1V21h-2.1V7.7h4.3c2.7,0,4.8,1,4.8,3.8c0,2.1-1.1,3.3-2.8,3.8l3.2,5.6H384.4z M379.2,14h2
					c1.9,0,3-0.8,3-2.4s-1-2.2-3-2.2h-2V14z"/>
			</g>
			<g class="st0">
				<path d="M78.8,530.7h7.8v1.7h-5.7v3.7h4.9v1.8h-4.9v4.3h5.9v1.8h-8V530.7z"/>
				<path d="M100.2,531.3c-0.4-0.2-0.8-0.3-1.1-0.3c-0.9,0-1.3,0.6-1.3,1.8v1.3h2v1.7h-2v8.2h-2.1v-8.2h-3.9v8.2h-2.1v-8.2h-1.4
					v-1.5l1.4-0.1v-1c0-2.1,1-3.4,3.3-3.4c0.7,0,1.4,0.1,1.9,0.4l-0.4,1.5c-0.4-0.2-0.8-0.3-1.3-0.3c-0.9,0-1.4,0.6-1.4,1.8v1h3.9
					v-1.2c0-2,0.9-3.4,3.1-3.4c0.7,0,1.3,0.1,1.8,0.3L100.2,531.3z"/>
				<path d="M100.7,539.1c0-3.2,2.2-5.2,4.5-5.2c2.6,0,4,1.9,4,4.7c0,0.4,0,0.8-0.1,1h-6.4c0.2,1.9,1.4,3,3.1,3
					c0.9,0,1.6-0.3,2.4-0.7l0.7,1.3c-0.9,0.6-2.1,1-3.3,1C102.8,544.2,100.7,542.3,100.7,539.1z M107.5,538.2c0-1.7-0.8-2.7-2.2-2.7
					c-1.2,0-2.3,1-2.5,2.7H107.5z"/>
				<path d="M110.9,539.1c0-3.3,2.3-5.2,4.9-5.2c1.3,0,2.2,0.5,2.9,1.1l-1,1.4c-0.5-0.5-1.1-0.8-1.8-0.8c-1.7,0-2.8,1.4-2.8,3.5
					c0,2.1,1.1,3.5,2.8,3.5c0.8,0,1.6-0.4,2.2-0.9l0.8,1.4c-0.9,0.8-2.1,1.2-3.2,1.2C112.9,544.2,110.9,542.3,110.9,539.1z"/>
				<path d="M121,540.8v-5h-1.4v-1.5l1.5-0.1l0.2-2.7h1.7v2.7h2.6v1.7h-2.6v5c0,1.2,0.4,1.8,1.4,1.8c0.3,0,0.8-0.1,1.1-0.2l0.4,1.5
					c-0.6,0.2-1.2,0.4-1.9,0.4C121.8,544.2,121,542.8,121,540.8z"/>
				<path d="M126.6,542.9l1-1.3c0.9,0.7,1.7,1.1,2.8,1.1c1.2,0,1.7-0.6,1.7-1.3c0-0.9-1.1-1.3-2.2-1.7c-1.3-0.5-2.8-1.2-2.8-2.9
					c0-1.7,1.3-2.9,3.5-2.9c1.3,0,2.4,0.5,3.2,1.2l-1,1.3c-0.7-0.5-1.4-0.9-2.2-0.9c-1.1,0-1.6,0.5-1.6,1.2c0,0.8,1,1.2,2.1,1.6
					c1.4,0.5,2.9,1.1,2.9,3c0,1.7-1.3,3-3.8,3C128.9,544.2,127.5,543.7,126.6,542.9z"/>
				<path d="M139.6,539.1c0-3.3,2.2-5.2,4.7-5.2s4.7,1.9,4.7,5.2c0,3.3-2.2,5.2-4.7,5.2S139.6,542.3,139.6,539.1z M146.8,539.1
					c0-2.1-1-3.5-2.5-3.5c-1.5,0-2.5,1.4-2.5,3.5c0,2.1,1,3.5,2.5,3.5C145.8,542.5,146.8,541.2,146.8,539.1z"/>
				<path d="M156.1,531.3c-0.4-0.2-0.7-0.3-1.1-0.3c-0.9,0-1.3,0.6-1.3,1.8v1.3h2v1.7h-2v8.2h-2.1v-8.2h-1.4v-1.5l1.4-0.1v-1.2
					c0-2,0.9-3.4,3.1-3.4c0.7,0,1.3,0.1,1.7,0.3L156.1,531.3z"/>
				<path d="M161.7,530.7h7.8v1.7h-5.7v3.7h4.9v1.8h-4.9v4.3h5.9v1.8h-8V530.7z"/>
				<path d="M172.4,534.1h1.7l0.2,1.4h0.1c0.9-0.9,1.9-1.6,3.3-1.6c2.1,0,3,1.4,3,3.9v6.2h-2.1v-6c0-1.7-0.5-2.4-1.7-2.4
					c-0.9,0-1.5,0.5-2.4,1.3v7h-2.1V534.1z"/>
				<path d="M182.9,545.8c0-0.8,0.5-1.6,1.4-2.2v-0.1c-0.5-0.3-0.9-0.8-0.9-1.6c0-0.8,0.6-1.4,1.1-1.8V540c-0.7-0.5-1.3-1.5-1.3-2.6
					c0-2.3,1.8-3.6,3.8-3.6c0.6,0,1.1,0.1,1.4,0.3h3.5v1.5h-1.9c0.4,0.4,0.6,1.1,0.6,1.8c0,2.2-1.6,3.4-3.7,3.4
					c-0.5,0-1-0.1-1.4-0.3c-0.3,0.3-0.5,0.6-0.5,1c0,0.6,0.4,1,1.7,1h1.8c2.3,0,3.6,0.7,3.6,2.4c0,1.9-2,3.5-5.2,3.5
					C184.6,548.4,182.9,547.6,182.9,545.8z M190.2,545.3c0-0.8-0.6-1.1-1.9-1.1h-1.5c-0.5,0-0.9-0.1-1.3-0.1
					c-0.6,0.4-0.8,0.9-0.8,1.4c0,1,1,1.5,2.6,1.5C189,547.1,190.2,546.2,190.2,545.3z M188.9,537.4c0-1.3-0.8-2.1-1.9-2.1
					s-1.9,0.8-1.9,2.1c0,1.3,0.8,2.1,1.9,2.1S188.9,538.7,188.9,537.4z"/>
				<path d="M193,539.1c0-3.2,2.2-5.2,4.5-5.2c2.6,0,4,1.9,4,4.7c0,0.4,0,0.8-0.1,1H195c0.2,1.9,1.4,3,3.1,3c0.9,0,1.6-0.3,2.4-0.7
					l0.7,1.3c-0.9,0.6-2.1,1-3.3,1C195.1,544.2,193,542.3,193,539.1z M199.8,538.2c0-1.7-0.8-2.7-2.2-2.7c-1.2,0-2.3,1-2.5,2.7
					H199.8z"/>
				<path d="M203.9,534.1h1.7l0.2,1.4h0.1c0.9-0.9,1.9-1.6,3.3-1.6c2.1,0,3,1.4,3,3.9v6.2H210v-6c0-1.7-0.5-2.4-1.7-2.4
					c-0.9,0-1.5,0.5-2.4,1.3v7h-2.1V534.1z"/>
				<path d="M214.1,542.9l1-1.3c0.9,0.7,1.7,1.1,2.8,1.1c1.2,0,1.7-0.6,1.7-1.3c0-0.9-1.1-1.3-2.2-1.7c-1.3-0.5-2.8-1.2-2.8-2.9
					c0-1.7,1.3-2.9,3.5-2.9c1.3,0,2.4,0.5,3.2,1.2l-1,1.3c-0.7-0.5-1.4-0.9-2.2-0.9c-1.1,0-1.6,0.5-1.6,1.2c0,0.8,1,1.2,2.1,1.6
					c1.4,0.5,2.9,1.1,2.9,3c0,1.7-1.3,3-3.8,3C216.4,544.2,215,543.7,214.1,542.9z"/>
				<path d="M223.4,531c0-0.7,0.6-1.2,1.3-1.2c0.8,0,1.3,0.5,1.3,1.2c0,0.7-0.6,1.2-1.3,1.2C224,532.2,223.4,531.7,223.4,531z
					 M223.7,534.1h2.1v9.9h-2.1V534.1z"/>
				<path d="M227.9,542.9l1-1.3c0.9,0.7,1.7,1.1,2.8,1.1c1.2,0,1.7-0.6,1.7-1.3c0-0.9-1.1-1.3-2.2-1.7c-1.3-0.5-2.8-1.2-2.8-2.9
					c0-1.7,1.3-2.9,3.5-2.9c1.3,0,2.4,0.5,3.2,1.2l-1,1.3c-0.7-0.5-1.4-0.9-2.2-0.9c-1.1,0-1.6,0.5-1.6,1.2c0,0.8,1,1.2,2.1,1.6
					c1.4,0.5,2.9,1.1,2.9,3c0,1.7-1.3,3-3.8,3C230.2,544.2,228.8,543.7,227.9,542.9z"/>
				<path d="M241.6,538.4c0-3.5,1-6.5,2.7-9.2l1.3,0.6c-1.5,2.6-2.3,5.6-2.3,8.6c0,3,0.7,6.1,2.3,8.6l-1.3,0.6
					C242.6,544.8,241.6,541.9,241.6,538.4z"/>
				<path d="M246.4,530.7h2.2l2,6.9c0.5,1.5,0.7,2.8,1.2,4.3h0.1c0.5-1.5,0.8-2.8,1.2-4.3l2-6.9h2.1L253,544h-2.5L246.4,530.7z"/>
				<path d="M258.9,530.7h2.4l2.4,6.7c0.3,0.9,0.6,1.8,0.9,2.7h0.1c0.3-0.9,0.6-1.8,0.9-2.7l2.4-6.7h2.4V544h-1.9v-6.6
					c0-1.2,0.2-2.9,0.3-4.1h-0.1l-1.1,3.1l-2.3,6.3h-1.3l-2.3-6.3l-1-3.1h-0.1c0.1,1.2,0.3,2.9,0.3,4.1v6.6h-1.9V530.7z"/>
				<path d="M272.8,542.8c3.9-3.5,5.9-6,5.9-8.2c0-1.4-0.8-2.4-2.3-2.4c-1,0-1.9,0.7-2.6,1.5l-1.2-1.2c1.1-1.2,2.3-2,4-2
					c2.4,0,4,1.6,4,4c0,2.6-2,5.2-4.8,7.9c0.7-0.1,1.5-0.1,2.2-0.1h3.3v1.8h-8.6V542.8z"/>
				<path d="M283.2,537.3c0-4.6,1.7-6.8,4.3-6.8c2.6,0,4.3,2.3,4.3,6.8c0,4.6-1.7,6.9-4.3,6.9C284.8,544.2,283.2,541.9,283.2,537.3z
					 M289.7,537.3c0-3.8-1-5.2-2.3-5.2c-1.3,0-2.3,1.4-2.3,5.2c0,3.8,1,5.3,2.3,5.3C288.8,542.6,289.7,541.2,289.7,537.3z"/>
				<path d="M293.4,542.8c3.9-3.5,5.9-6,5.9-8.2c0-1.4-0.8-2.4-2.3-2.4c-1,0-1.9,0.7-2.6,1.5l-1.2-1.2c1.1-1.2,2.3-2,4-2
					c2.4,0,4,1.6,4,4c0,2.6-2,5.2-4.8,7.9c0.7-0.1,1.5-0.1,2.2-0.1h3.3v1.8h-8.6V542.8z"/>
				<path d="M303.7,547c1.5-2.6,2.3-5.6,2.3-8.6c0-3-0.7-6-2.3-8.6l1.3-0.6c1.7,2.7,2.7,5.7,2.7,9.2c0,3.6-1,6.5-2.7,9.2L303.7,547z
					"/>
				<path d="M314.1,539.1c0-3.3,2.2-5.2,4.7-5.2c2.4,0,4.7,1.9,4.7,5.2c0,3.3-2.2,5.2-4.7,5.2C316.3,544.2,314.1,542.3,314.1,539.1z
					 M321.3,539.1c0-2.1-1-3.5-2.5-3.5c-1.5,0-2.5,1.4-2.5,3.5c0,2.1,1,3.5,2.5,3.5C320.4,542.5,321.3,541.2,321.3,539.1z"/>
				<path d="M325.9,534.1h1.7l0.2,1.4h0.1c0.9-0.9,1.9-1.6,3.3-1.6c2.1,0,3,1.4,3,3.9v6.2H332v-6c0-1.7-0.5-2.4-1.7-2.4
					c-0.9,0-1.5,0.5-2.4,1.3v7h-2.1V534.1z"/>
				<path d="M341.3,530.7h2.4l2.4,6.7c0.3,0.9,0.6,1.8,0.9,2.7h0.1c0.3-0.9,0.6-1.8,0.9-2.7l2.4-6.7h2.4V544h-1.9v-6.6
					c0-1.2,0.2-2.9,0.3-4.1h-0.1l-1.1,3.1l-2.3,6.3h-1.3l-2.3-6.3l-1-3.1H343c0.1,1.2,0.3,2.9,0.3,4.1v6.6h-1.9V530.7z"/>
				<path d="M363.5,544l-3-5.3h-2.1v5.3h-2.1v-13.3h4.3c2.7,0,4.8,1,4.8,3.8c0,2.1-1.1,3.3-2.8,3.8l3.2,5.6H363.5z M358.4,537h2
					c1.9,0,3-0.8,3-2.4s-1-2.2-3-2.2h-2V537z"/>
				<path d="M367.4,537.4c0-4.3,2.6-6.9,6-6.9c1.7,0,3,0.8,3.8,1.7l-1.1,1.3c-0.7-0.7-1.5-1.2-2.6-1.2c-2.3,0-3.9,1.9-3.9,5
					c0,3.2,1.5,5.1,3.8,5.1c1.2,0,2.1-0.5,2.9-1.4l1.1,1.3c-1.1,1.2-2.4,1.9-4.1,1.9C369.9,544.2,367.4,541.7,367.4,537.4z"/>
				<path d="M382.8,542.3l1.2-1.4c1,1,2.2,1.6,3.5,1.6c1.6,0,2.5-0.8,2.5-1.9c0-1.2-0.9-1.6-2.1-2.1l-1.8-0.8
					c-1.3-0.5-2.7-1.5-2.7-3.5c0-2.1,1.8-3.7,4.4-3.7c1.5,0,3,0.6,4,1.7l-1.1,1.3c-0.8-0.7-1.7-1.2-2.9-1.2c-1.4,0-2.2,0.6-2.2,1.7
					c0,1.1,1.1,1.6,2.1,2l1.8,0.8c1.6,0.7,2.7,1.6,2.7,3.6c0,2.1-1.8,3.9-4.7,3.9C385.7,544.2,384,543.5,382.8,542.3z"/>
				<path d="M393.8,539.1c0-3.3,2.3-5.2,4.9-5.2c1.3,0,2.2,0.5,2.9,1.1l-1,1.4c-0.5-0.5-1.1-0.8-1.8-0.8c-1.7,0-2.8,1.4-2.8,3.5
					c0,2.1,1.1,3.5,2.8,3.5c0.8,0,1.6-0.4,2.2-0.9l0.8,1.4c-0.9,0.8-2.1,1.2-3.2,1.2C395.9,544.2,393.8,542.3,393.8,539.1z"/>
				<path d="M403,541.4c0-2.1,1.8-3.2,5.9-3.7c0-1.2-0.4-2.2-1.9-2.2c-1,0-2,0.5-2.9,1l-0.8-1.4c1-0.6,2.4-1.3,4-1.3
					c2.5,0,3.6,1.6,3.6,4.2v6h-1.7l-0.2-1.1h-0.1c-0.9,0.8-2,1.4-3.2,1.4C404.3,544.2,403,543.1,403,541.4z M409,541.4V539
					c-2.9,0.4-3.9,1.1-3.9,2.2c0,1,0.7,1.4,1.5,1.4C407.5,542.6,408.2,542.2,409,541.4z"/>
				<path d="M414,541.7v-12h2.1v12.1c0,0.6,0.3,0.8,0.5,0.8c0.1,0,0.2,0,0.3,0l0.3,1.6c-0.3,0.1-0.6,0.2-1.1,0.2
					C414.5,544.2,414,543.3,414,541.7z"/>
				<path d="M418.6,539.1c0-3.2,2.2-5.2,4.5-5.2c2.6,0,4,1.9,4,4.7c0,0.4,0,0.8-0.1,1h-6.4c0.2,1.9,1.3,3,3.1,3
					c0.9,0,1.6-0.3,2.4-0.7l0.7,1.3c-0.9,0.6-2.1,1-3.3,1C420.8,544.2,418.6,542.3,418.6,539.1z M425.4,538.2c0-1.7-0.8-2.7-2.2-2.7
					c-1.2,0-2.3,1-2.5,2.7H425.4z"/>
			</g>
		</g>
	</g>
</g>
</svg>
