<?xml version="1.0" encoding="utf-8"?>
<!-- Generator: Adobe Illustrator 23.0.1, SVG Export Plug-In . SVG Version: 6.00 Build 0)  -->
<svg version="1.1" id="Layer_1" xmlns="http://www.w3.org/2000/svg" xmlns:xlink="http://www.w3.org/1999/xlink" x="0px" y="0px"
	 viewBox="0 0 336 2052" style="enable-background:new 0 0 336 2052;" xml:space="preserve">
<style type="text/css">
	.st0{fill-rule:evenodd;clip-rule:evenodd;}
	.st1{enable-background:new    ;}
	.st2{fill:#FFFFFF;}
	.st3{fill:none;stroke:#000000;stroke-width:1.5;}
	.st4{fill:#B54142;}
	.st5{fill:none;stroke:#979797;stroke-linecap:square;}
</style>
<title>safety_img4_mobile</title>
<desc>Created with Sketch.</desc>
<g id="Page-1">
	<g id="mobile1-copy" transform="translate(-20.000000, -4433.000000)">
		<g id="safety_img4_mobile" transform="translate(21.000000, 4427.000000)">
			<g id="table1" transform="translate(0.000000, 84.000000)">
				<g id="cell1">
					<g transform="translate(0.000000, 47.000000)">
						<g id="head">
							<path id="bg" class="st0" d="M8,0h318c4.4,0,8,3.6,8,8v34c0,4.4-3.6,8-8,8H8c-4.4,0-8-3.6-8-8V8C0,3.6,3.6,0,8,0z"/>
							<g class="st1">
								<path class="st2" d="M126.5,19.9h3.6c2.5,0,4.3,0.9,4.3,3.5c0,2.5-1.9,3.7-4.3,3.7h-1.5V31h-2.2V19.9z M130,25.3
									c1.5,0,2.3-0.6,2.3-1.9c0-1.3-0.8-1.7-2.3-1.7h-1.3v3.6H130z"/>
								<path class="st2" d="M135.3,28.7c0-1.8,1.5-2.7,4.8-3.1c0-0.8-0.4-1.5-1.4-1.5c-0.8,0-1.5,0.3-2.3,0.8l-0.8-1.5
									c1-0.6,2.2-1.1,3.5-1.1c2.1,0,3.2,1.3,3.2,3.7V31h-1.8l-0.2-0.9h0c-0.7,0.6-1.6,1.1-2.5,1.1
									C136.3,31.2,135.3,30.1,135.3,28.7z M140.1,28.7V27c-2,0.3-2.7,0.8-2.7,1.6c0,0.7,0.5,0.9,1.1,0.9
									C139.1,29.5,139.6,29.2,140.1,28.7z"/>
								<path class="st2" d="M144.6,22.6h1.8l0.1,1.5h0.1c0.6-1.1,1.5-1.7,2.4-1.7c0.5,0,0.7,0.1,1,0.2l-0.4,1.9
									c-0.3-0.1-0.5-0.1-0.9-0.1c-0.7,0-1.5,0.4-1.9,1.7v5h-2.2V22.6z"/>
								<path class="st2" d="M150.2,28.7c0-1.8,1.5-2.7,4.8-3.1c0-0.8-0.4-1.5-1.4-1.5c-0.8,0-1.5,0.3-2.3,0.8l-0.8-1.5
									c1-0.6,2.2-1.1,3.5-1.1c2.1,0,3.2,1.3,3.2,3.7V31h-1.8l-0.2-0.9h0c-0.7,0.6-1.6,1.1-2.5,1.1
									C151.2,31.2,150.2,30.1,150.2,28.7z M155,28.7V27c-2,0.3-2.7,0.8-2.7,1.6c0,0.7,0.5,0.9,1.1,0.9
									C154.1,29.5,154.5,29.2,155,28.7z"/>
								<path class="st2" d="M159.5,22.6h1.8l0.1,1.1h0.1c0.7-0.7,1.5-1.3,2.6-1.3c1.2,0,1.9,0.5,2.3,1.5c0.8-0.8,1.6-1.5,2.7-1.5
									c1.8,0,2.6,1.3,2.6,3.4V31h-2.2v-5c0-1.3-0.4-1.8-1.2-1.8c-0.5,0-1,0.3-1.6,0.9V31h-2.2v-5c0-1.3-0.4-1.8-1.2-1.8
									c-0.5,0-1,0.3-1.6,0.9V31h-2.2V22.6z"/>
								<path class="st2" d="M173.4,26.8c0-2.7,1.9-4.4,3.9-4.4c2.3,0,3.5,1.7,3.5,4c0,0.4,0,0.8-0.1,1h-5.2
									c0.2,1.4,1.1,2.1,2.3,2.1c0.7,0,1.3-0.2,1.9-0.6l0.8,1.4c-0.8,0.6-1.9,0.9-2.9,0.9C175.3,31.2,173.4,29.6,173.4,26.8z
									 M179,26c0-1.1-0.5-1.9-1.6-1.9c-0.9,0-1.7,0.6-1.8,1.9H179z"/>
								<path class="st2" d="M182.8,28.1v-3.7h-1.2v-1.6l1.3-0.1l0.3-2.2h1.8v2.2h2.1v1.7H185v3.7c0,1,0.4,1.4,1.1,1.4
									c0.3,0,0.6-0.1,0.8-0.2l0.4,1.6c-0.5,0.2-1,0.3-1.8,0.3C183.6,31.2,182.8,30,182.8,28.1z"/>
								<path class="st2" d="M188,26.8c0-2.7,1.9-4.4,3.9-4.4c2.3,0,3.5,1.7,3.5,4c0,0.4,0,0.8-0.1,1h-5.2c0.2,1.4,1.1,2.1,2.3,2.1
									c0.7,0,1.3-0.2,1.9-0.6l0.8,1.4c-0.8,0.6-1.9,0.9-2.9,0.9C189.8,31.2,188,29.6,188,26.8z M193.5,26c0-1.1-0.5-1.9-1.6-1.9
									c-0.9,0-1.7,0.6-1.8,1.9H193.5z"/>
								<path class="st2" d="M197.2,22.6h1.8l0.2,1.5h0.1c0.6-1.1,1.5-1.7,2.4-1.7c0.5,0,0.7,0.1,1,0.2l-0.4,1.9
									c-0.3-0.1-0.5-0.1-0.9-0.1c-0.7,0-1.5,0.4-1.9,1.7v5h-2.2V22.6z"/>
								<path class="st2" d="M202.8,30l1-1.4c0.8,0.6,1.5,0.9,2.2,0.9c0.8,0,1.2-0.4,1.2-0.9c0-0.6-0.9-0.9-1.8-1.3
									c-1.1-0.4-2.3-1-2.3-2.4c0-1.5,1.2-2.6,3.1-2.6c1.2,0,2.2,0.5,2.9,1l-1,1.3c-0.6-0.4-1.2-0.7-1.8-0.7
									c-0.8,0-1.1,0.3-1.1,0.8c0,0.6,0.8,0.8,1.7,1.2c1.1,0.4,2.3,1,2.3,2.5c0,1.5-1.2,2.7-3.3,2.7
									C204.9,31.2,203.7,30.7,202.8,30z"/>
							</g>
						</g>
						<g id="sub" transform="translate(106.000000, 65.000000)">
							<g class="st1">
								<path d="M2.4,7.7h2.1v5.4h5.7V7.7h2.1V21h-2.1v-6H4.5v6H2.4V7.7z"/>
								<path d="M15,14.4c0-4.3,2.7-6.9,6.2-6.9c1.9,0,3.1,0.8,3.9,1.7L24,10.5c-0.6-0.7-1.5-1.2-2.7-1.2c-2.5,0-4.1,1.9-4.1,5
									c0,3.2,1.5,5.1,4.2,5.1c0.8,0,1.6-0.2,2.1-0.6v-3.1h-2.6v-1.7h4.5v5.7c-0.9,0.9-2.4,1.5-4.2,1.5C17.6,21.2,15,18.7,15,14.4z
									"/>
								<path d="M28.3,7.7h7.9v1.7h-5.8v4.1h4.9v1.7h-4.9V21h-2.1V7.7z"/>
								<path d="M42.4,15.4c0-3.5,1-6.5,2.7-9.2l1.3,0.6c-1.5,2.6-2.3,5.6-2.3,8.6c0,3,0.7,6.1,2.3,8.6l-1.3,0.6
									C43.4,21.8,42.4,18.9,42.4,15.4z"/>
								<path d="M48.8,11.1h1.7l0.2,1.4h0.1c0.9-0.9,1.9-1.6,3.3-1.6c2.1,0,3,1.4,3,3.9V21h-2.1v-6c0-1.7-0.5-2.4-1.7-2.4
									c-0.9,0-1.5,0.5-2.4,1.3v7h-2.1V11.1z"/>
								<path d="M59.3,22.8c0-0.8,0.5-1.6,1.4-2.2v-0.1c-0.5-0.3-0.9-0.8-0.9-1.6c0-0.8,0.6-1.4,1.1-1.8V17
									c-0.7-0.5-1.3-1.5-1.3-2.6c0-2.3,1.8-3.6,3.8-3.6c0.6,0,1.1,0.1,1.4,0.3h3.5v1.5h-1.9c0.4,0.4,0.6,1.1,0.6,1.8
									c0,2.2-1.6,3.4-3.7,3.4c-0.5,0-1-0.1-1.4-0.3c-0.3,0.3-0.5,0.6-0.5,1c0,0.6,0.4,1,1.7,1H65c2.3,0,3.6,0.7,3.6,2.4
									c0,1.9-2,3.5-5.2,3.5C61,25.4,59.3,24.6,59.3,22.8z M66.6,22.3c0-0.8-0.6-1.1-1.9-1.1h-1.5c-0.5,0-0.9-0.1-1.3-0.1
									c-0.6,0.4-0.8,0.9-0.8,1.4c0,1,1,1.5,2.6,1.5C65.4,24.1,66.6,23.2,66.6,22.3z M65.3,14.4c0-1.3-0.8-2.1-1.9-2.1
									c-1,0-1.9,0.8-1.9,2.1c0,1.3,0.8,2.1,1.9,2.1S65.3,15.7,65.3,14.4z"/>
								<path d="M74.5,11.1h1.7l0.2,1.4h0.1c0.8-0.9,1.8-1.6,3.1-1.6c1.5,0,2.3,0.7,2.7,1.8c1-1,2-1.8,3.2-1.8c2.1,0,3,1.4,3,3.9V21
									h-2.1v-6c0-1.7-0.5-2.4-1.7-2.4c-0.7,0-1.4,0.5-2.2,1.3v7h-2.1v-6c0-1.7-0.5-2.4-1.7-2.4c-0.7,0-1.4,0.5-2.2,1.3v7h-2.1
									V11.1z"/>
								<path d="M91.4,18.7v-12h2.1v12.1c0,0.6,0.3,0.8,0.5,0.8c0.1,0,0.2,0,0.3,0l0.3,1.6c-0.3,0.1-0.6,0.2-1.1,0.2
									C92,21.2,91.4,20.3,91.4,18.7z"/>
								<path d="M100.1,15.1h4.8v1.5h-4.8V15.1z"/>
								<path d="M107.2,19.3h2.9v-9.2h-2.4V8.8c1.2-0.2,2.1-0.5,2.9-1h1.6v11.5h2.6V21h-7.6V19.3z"/>
								<path d="M116.8,24c1.5-2.6,2.3-5.6,2.3-8.6c0-3-0.7-6-2.3-8.6l1.3-0.6c1.7,2.7,2.7,5.7,2.7,9.2c0,3.6-1,6.5-2.7,9.2
									L116.8,24z"/>
							</g>
						</g>
					</g>
					<g transform="translate(0.000000, 154.000000)">
						<g>
							<path class="st0" d="M8,0h318c4.4,0,8,3.6,8,8v34c0,4.4-3.6,8-8,8H8c-4.4,0-8-3.6-8-8V8C0,3.6,3.6,0,8,0z"/>
							<g class="st1">
								<path class="st2" d="M95.5,29.6l1.3-1.5c0.8,0.7,1.8,1.2,2.8,1.2c1.2,0,1.8-0.5,1.8-1.3c0-0.8-0.7-1.1-1.7-1.5l-1.5-0.6
									c-1.1-0.5-2.2-1.4-2.2-3c0-1.8,1.6-3.2,3.8-3.2c1.3,0,2.6,0.5,3.5,1.4l-1.1,1.4c-0.7-0.6-1.4-0.9-2.4-0.9
									c-1,0-1.6,0.4-1.6,1.2c0,0.8,0.8,1.1,1.7,1.5l1.5,0.6c1.3,0.6,2.2,1.4,2.2,3c0,1.8-1.5,3.4-4.1,3.4
									C98.1,31.2,96.6,30.6,95.5,29.6z"/>
								<path class="st2" d="M105,28.7c0-1.8,1.5-2.7,4.8-3.1c0-0.8-0.4-1.5-1.4-1.5c-0.8,0-1.5,0.3-2.3,0.8l-0.8-1.5
									c1-0.6,2.2-1.1,3.5-1.1c2.1,0,3.2,1.3,3.2,3.7V31h-1.8l-0.2-0.9h0c-0.7,0.6-1.6,1.1-2.5,1.1C106,31.2,105,30.1,105,28.7z
									 M109.8,28.7V27c-2,0.3-2.7,0.8-2.7,1.6c0,0.7,0.5,0.9,1.1,0.9C108.8,29.5,109.3,29.2,109.8,28.7z"/>
								<path class="st2" d="M118.8,20.7c-0.3-0.1-0.6-0.2-0.9-0.2c-0.7,0-1,0.4-1,1.3v0.7h1.6v1.7h-1.6V31h-2.2v-6.7h-1.1v-1.6
									l1.1-0.1v-0.7c0-1.8,0.8-3.1,2.9-3.1c0.6,0,1.2,0.2,1.6,0.3L118.8,20.7z"/>
								<path class="st2" d="M119.2,26.8c0-2.7,1.9-4.4,3.9-4.4c2.3,0,3.5,1.7,3.5,4c0,0.4,0,0.8-0.1,1h-5.2
									c0.2,1.4,1.1,2.1,2.3,2.1c0.7,0,1.3-0.2,1.9-0.6l0.8,1.4c-0.8,0.6-1.9,0.9-2.9,0.9C121,31.2,119.2,29.6,119.2,26.8z
									 M124.7,26c0-1.1-0.5-1.9-1.6-1.9c-0.9,0-1.7,0.6-1.8,1.9H124.7z"/>
								<path class="st2" d="M128.5,28.1v-3.7h-1.2v-1.6l1.3-0.1l0.3-2.2h1.8v2.2h2.1v1.7h-2.1v3.7c0,1,0.4,1.4,1.1,1.4
									c0.3,0,0.6-0.1,0.8-0.2l0.4,1.6c-0.5,0.2-1,0.3-1.8,0.3C129.3,31.2,128.5,30,128.5,28.1z"/>
								<path class="st2" d="M134.1,34.2l0.4-1.7c0.1,0,0.4,0.1,0.6,0.1c0.9,0,1.3-0.5,1.6-1.3l0.1-0.5l-3.3-8.2h2.2l1.3,3.9
									c0.3,0.8,0.5,1.6,0.7,2.4h0.1c0.2-0.8,0.4-1.6,0.6-2.4l1.2-3.9h2.1l-3,8.7c-0.7,2-1.6,3.1-3.5,3.1
									C134.8,34.4,134.4,34.3,134.1,34.2z"/>
								<path class="st2" d="M146,32.5c0-0.7,0.4-1.3,1.2-1.7v-0.1c-0.4-0.3-0.8-0.7-0.8-1.4c0-0.6,0.4-1.2,0.9-1.6v-0.1
									c-0.6-0.4-1.1-1.2-1.1-2.2c0-2,1.6-3,3.4-3c0.5,0,0.9,0.1,1.3,0.2h3v1.6h-1.4c0.2,0.3,0.4,0.8,0.4,1.3
									c0,1.9-1.4,2.8-3.2,2.8c-0.3,0-0.7-0.1-1.1-0.2c-0.2,0.2-0.4,0.4-0.4,0.7c0,0.5,0.3,0.7,1.3,0.7h1.4c2,0,3.1,0.6,3.1,2.1
									c0,1.7-1.8,3-4.6,3C147.5,34.6,146,34,146,32.5z M151.9,32c0-0.6-0.5-0.8-1.4-0.8h-1c-0.5,0-0.9,0-1.2-0.1
									c-0.4,0.3-0.6,0.6-0.6,1c0,0.7,0.8,1.1,2,1.1C151.1,33.2,151.9,32.7,151.9,32z M150.9,25.4c0-1-0.6-1.5-1.3-1.5
									s-1.3,0.6-1.3,1.5c0,1,0.6,1.5,1.3,1.5S150.9,26.4,150.9,25.4z"/>
								<path class="st2" d="M155.5,22.6h1.8l0.1,1.5h0.1c0.6-1.1,1.5-1.7,2.4-1.7c0.5,0,0.7,0.1,1,0.2l-0.4,1.9
									c-0.3-0.1-0.5-0.1-0.9-0.1c-0.7,0-1.5,0.4-1.9,1.7v5h-2.2V22.6z"/>
								<path class="st2" d="M161.3,26.8c0-2.8,1.9-4.4,4-4.4s4,1.6,4,4.4c0,2.8-1.9,4.4-4,4.4S161.3,29.6,161.3,26.8z M167.1,26.8
									c0-1.6-0.6-2.6-1.8-2.6s-1.8,1-1.8,2.6c0,1.6,0.6,2.6,1.8,2.6S167.1,28.4,167.1,26.8z"/>
								<path class="st2" d="M171.1,27.9v-5.2h2.2v5c0,1.3,0.4,1.8,1.2,1.8c0.7,0,1.1-0.3,1.7-1v-5.7h2.2V31h-1.8l-0.2-1.2h-0.1
									c-0.7,0.9-1.5,1.4-2.7,1.4C171.9,31.2,171.1,30,171.1,27.9z"/>
								<path class="st2" d="M180.8,22.6h1.8l0.1,0.9h0.1c0.7-0.6,1.6-1.1,2.5-1.1c2.1,0,3.3,1.7,3.3,4.3c0,2.9-1.7,4.5-3.6,4.5
									c-0.7,0-1.4-0.3-2.1-0.9l0.1,1.4v2.5h-2.2V22.6z M186.3,26.7c0-1.6-0.5-2.5-1.7-2.5c-0.6,0-1.1,0.3-1.7,0.9v3.7
									c0.5,0.5,1.1,0.6,1.5,0.6C185.5,29.4,186.3,28.5,186.3,26.7z"/>
								<path class="st2" d="M193.9,26.3c0-3,0.8-5.4,2.2-7.8l1.4,0.6c-1.3,2.2-1.8,4.7-1.8,7.2c0,2.5,0.6,5,1.8,7.2l-1.4,0.6
									C194.8,31.7,193.9,29.3,193.9,26.3z"/>
								<path class="st2" d="M199.5,22.6h1.8l0.2,1.1h0.1c0.7-0.7,1.6-1.3,2.7-1.3c1.8,0,2.6,1.3,2.6,3.4V31h-2.2v-5
									c0-1.3-0.4-1.8-1.2-1.8c-0.7,0-1.1,0.3-1.8,0.9V31h-2.2V22.6z"/>
								<path class="st2" d="M208.5,22.7h7.7v1.6h-7.7V22.7z M208.5,26.5h7.7v1.6h-7.7V26.5z"/>
								<path class="st2" d="M217.2,29.7l1-1.4c0.6,0.6,1.4,1.1,2.4,1.1c1.2,0,2-0.7,2-2c0-1.3-0.8-2-1.9-2c-0.7,0-1,0.2-1.7,0.6
									l-1-0.7l0.3-5.4h5.9v1.8h-4l-0.2,2.4c0.4-0.2,0.8-0.3,1.3-0.3c1.9,0,3.4,1.1,3.4,3.5c0,2.5-1.8,3.9-3.9,3.9
									C219.2,31.2,218,30.5,217.2,29.7z"/>
								<path class="st2" d="M226.3,29.7c3-2.7,4.8-4.8,4.8-6.5c0-1.1-0.6-1.8-1.7-1.8c-0.8,0-1.5,0.5-2,1.1l-1.2-1.2
									c1-1.1,2-1.7,3.5-1.7c2.1,0,3.5,1.3,3.5,3.4c0,2-1.7,4.2-3.7,6.1c0.6-0.1,1.3-0.1,1.8-0.1h2.4V31h-7.4V29.7z"/>
								<path class="st2" d="M235.2,33.4c1.3-2.2,1.8-4.7,1.8-7.2c0-2.4-0.6-5-1.8-7.2l1.4-0.6c1.4,2.3,2.2,4.8,2.2,7.8
									c0,3-0.8,5.4-2.2,7.8L235.2,33.4z"/>
							</g>
						</g>
						<g transform="translate(0.000000, 70.000000)">
							<g class="st1">
								<path d="M134.2,84.3h2.9v-9.2h-2.4v-1.3c1.2-0.2,2.1-0.5,2.9-1h1.6v11.5h2.6V86h-7.6V84.3z"/>
								<path d="M144.2,84.8c0-0.8,0.6-1.5,1.4-1.5s1.4,0.6,1.4,1.5c0,0.8-0.6,1.4-1.4,1.4S144.2,85.6,144.2,84.8z"/>
								<path d="M148.7,84.4l1-1.3c0.8,0.8,1.8,1.5,3.1,1.5c1.5,0,2.5-0.8,2.5-2.2c0-1.5-0.9-2.4-3.9-2.4v-1.5c2.6,0,3.5-1,3.5-2.3
									c0-1.2-0.8-1.9-2-1.9c-1,0-1.9,0.5-2.6,1.3l-1.1-1.3c1-0.9,2.3-1.6,3.8-1.6c2.4,0,4.1,1.2,4.1,3.4c0,1.5-0.9,2.6-2.3,3.1
									v0.1c1.5,0.4,2.7,1.5,2.7,3.3c0,2.4-2,3.8-4.4,3.8C151,86.2,149.6,85.4,148.7,84.4z"/>
								<path d="M174,77.7h-5.7v4.8h-1.5v-4.8H161v-1.5h5.7v-4.8h1.5v4.8h5.7V77.7z M174.1,84.3v1.5H161v-1.5H174.1z"/>
								<path d="M177.3,79.3c0-4.6,1.7-6.8,4.3-6.8c2.6,0,4.3,2.3,4.3,6.8c0,4.6-1.7,6.9-4.3,6.9C179,86.2,177.3,83.9,177.3,79.3z
									 M183.9,79.3c0-3.8-1-5.2-2.3-5.2s-2.3,1.4-2.3,5.2c0,3.8,1,5.3,2.3,5.3S183.9,83.2,183.9,79.3z"/>
								<path d="M188.1,84.8c0-0.8,0.6-1.5,1.4-1.5s1.4,0.6,1.4,1.5c0,0.8-0.6,1.4-1.4,1.4S188.1,85.6,188.1,84.8z"/>
								<path d="M200.3,75.2c-0.5-0.6-1.3-1-2.1-1c-1.7,0-3.1,1.3-3.2,5.1c0.8-1,1.9-1.5,2.9-1.5c2.2,0,3.7,1.4,3.7,4.2
									c0,2.6-1.8,4.3-4,4.3c-2.5,0-4.6-2.1-4.6-6.6c0-5.1,2.4-7.1,5-7.1c1.5,0,2.6,0.6,3.3,1.4L200.3,75.2z M199.7,81.9
									c0-1.7-0.8-2.7-2.2-2.7c-0.8,0-1.7,0.4-2.5,1.5c0.2,2.6,1.2,3.9,2.6,3.9C198.8,84.6,199.7,83.6,199.7,81.9z"/>
							</g>
							<g class="st1">
								<path d="M134.2,191.3h2.9v-9.2h-2.4v-1.3c1.2-0.2,2.1-0.5,2.9-1h1.6v11.5h2.6v1.7h-7.6V191.3z"/>
								<path d="M144.2,191.8c0-0.8,0.6-1.5,1.4-1.5s1.4,0.6,1.4,1.5c0,0.8-0.6,1.4-1.4,1.4S144.2,192.6,144.2,191.8z"/>
								<path d="M149,191.8c3.9-3.5,5.9-6,5.9-8.2c0-1.4-0.8-2.4-2.2-2.4c-1,0-1.9,0.7-2.6,1.5l-1.2-1.2c1.1-1.2,2.3-2,4-2
									c2.4,0,4,1.6,4,4c0,2.6-2,5.2-4.8,7.9c0.7-0.1,1.5-0.1,2.2-0.1h3.3v1.8H149V191.8z"/>
								<path d="M174,184.7h-5.7v4.8h-1.5v-4.8H161v-1.5h5.7v-4.8h1.5v4.8h5.7V184.7z M174.1,191.3v1.5H161v-1.5H174.1z"/>
								<path d="M177.3,186.3c0-4.6,1.7-6.8,4.3-6.8c2.6,0,4.3,2.3,4.3,6.8c0,4.6-1.7,6.9-4.3,6.9
									C179,193.2,177.3,190.9,177.3,186.3z M183.9,186.3c0-3.8-1-5.2-2.3-5.2s-2.3,1.4-2.3,5.2c0,3.8,1,5.3,2.3,5.3
									S183.9,190.2,183.9,186.3z"/>
								<path d="M188.1,191.8c0-0.8,0.6-1.5,1.4-1.5s1.4,0.6,1.4,1.5c0,0.8-0.6,1.4-1.4,1.4S188.1,192.6,188.1,191.8z"/>
								<path d="M192.6,191.5l1-1.4c0.8,0.8,1.7,1.4,3.1,1.4c1.5,0,2.6-1.1,2.6-2.8s-1-2.8-2.5-2.8c-0.8,0-1.4,0.3-2.1,0.8l-1-0.7
									l0.4-6.3h6.7v1.7h-4.9l-0.3,3.4c0.6-0.3,1.1-0.5,1.8-0.5c2.2,0,4,1.3,4,4.2c0,2.9-2.1,4.6-4.5,4.6
									C194.9,193.2,193.5,192.4,192.6,191.5z"/>
							</g>
							<g>
								<path class="st3" d="M8.8,0.8h316.5c4.4,0,8,3.6,8,8v32.5c0,4.4-3.6,8-8,8H8.8c-4.4,0-8-3.6-8-8V8.8
									C0.8,4.3,4.3,0.8,8.8,0.8z"/>
								<g class="st1">
									<path d="M137.9,19.9h3.7c2.3,0,4,0.7,4,2.7c0,1-0.6,2.1-1.5,2.4v0.1c1.2,0.3,2.1,1.1,2.1,2.6c0,2.2-1.9,3.3-4.3,3.3h-4
										V19.9z M141.5,24.4c1.4,0,2-0.6,2-1.5c0-1-0.7-1.4-2-1.4h-1.3v2.8H141.5z M141.7,29.3c1.5,0,2.3-0.5,2.3-1.7
										c0-1.1-0.8-1.5-2.3-1.5h-1.5v3.2H141.7z"/>
									<path d="M147.6,28.7c0-1.8,1.5-2.7,4.8-3.1c0-0.8-0.4-1.5-1.4-1.5c-0.8,0-1.5,0.3-2.3,0.8l-0.8-1.5c1-0.6,2.2-1.1,3.5-1.1
										c2.1,0,3.2,1.3,3.2,3.7V31h-1.8l-0.2-0.9h0c-0.7,0.6-1.6,1.1-2.5,1.1C148.6,31.2,147.6,30.1,147.6,28.7z M152.4,28.7V27
										c-2,0.3-2.7,0.8-2.7,1.6c0,0.7,0.5,0.9,1.1,0.9C151.4,29.5,151.9,29.2,152.4,28.7z"/>
									<path d="M156.1,30l1-1.4c0.8,0.6,1.5,0.9,2.2,0.9c0.8,0,1.2-0.4,1.2-0.9c0-0.6-0.9-0.9-1.8-1.3c-1.1-0.4-2.3-1-2.3-2.4
										c0-1.5,1.2-2.6,3.1-2.6c1.2,0,2.2,0.5,2.9,1l-1,1.3c-0.6-0.4-1.2-0.7-1.8-0.7c-0.8,0-1.1,0.3-1.1,0.8
										c0,0.6,0.8,0.8,1.7,1.2c1.1,0.4,2.3,1,2.3,2.5c0,1.5-1.2,2.7-3.3,2.7C158.1,31.2,156.9,30.7,156.1,30z"/>
									<path d="M163.7,26.8c0-2.7,1.9-4.4,3.9-4.4c2.3,0,3.5,1.7,3.5,4c0,0.4,0,0.8-0.1,1h-5.2c0.2,1.4,1.1,2.1,2.3,2.1
										c0.7,0,1.3-0.2,1.9-0.6l0.8,1.4c-0.8,0.6-1.9,0.9-2.9,0.9C165.6,31.2,163.7,29.6,163.7,26.8z M169.3,26
										c0-1.1-0.5-1.9-1.6-1.9c-0.9,0-1.7,0.6-1.8,1.9H169.3z"/>
									<path d="M173,28.6V19h2.2v9.7c0,0.5,0.2,0.7,0.4,0.7c0.1,0,0.2,0,0.3,0l0.3,1.6c-0.3,0.1-0.6,0.2-1.1,0.2
										C173.5,31.2,173,30.2,173,28.6z"/>
									<path d="M177.5,20.1c0-0.7,0.6-1.2,1.3-1.2c0.8,0,1.3,0.5,1.3,1.2c0,0.7-0.6,1.2-1.3,1.2C178.1,21.2,177.5,20.7,177.5,20.1
										z M177.7,22.6h2.2V31h-2.2V22.6z"/>
									<path d="M182.3,22.6h1.8l0.1,1.1h0.1c0.7-0.7,1.6-1.3,2.7-1.3c1.8,0,2.6,1.3,2.6,3.4V31h-2.2v-5c0-1.3-0.4-1.8-1.2-1.8
										c-0.7,0-1.1,0.3-1.8,0.9V31h-2.2V22.6z"/>
									<path d="M191.4,26.8c0-2.7,1.9-4.4,3.9-4.4c2.3,0,3.5,1.7,3.5,4c0,0.4,0,0.8-0.1,1h-5.2c0.2,1.4,1.1,2.1,2.3,2.1
										c0.7,0,1.3-0.2,1.9-0.6l0.8,1.4c-0.8,0.6-1.9,0.9-2.9,0.9C193.2,31.2,191.4,29.6,191.4,26.8z M196.9,26
										c0-1.1-0.5-1.9-1.6-1.9c-0.9,0-1.7,0.6-1.8,1.9H196.9z"/>
								</g>
							</g>
							<g transform="translate(0.000000, 107.000000)">
								<path class="st3" d="M8.8,0.8h316.5c4.4,0,8,3.6,8,8v32.5c0,4.4-3.6,8-8,8H8.8c-4.4,0-8-3.6-8-8V8.8
									C0.8,4.3,4.3,0.8,8.8,0.8z"/>
								<g class="st1">
									<path d="M164.3,29.2h2.4v-7h-2v-1.4c1.1-0.2,1.9-0.5,2.6-0.9h1.6v9.3h2.1V31h-6.7V29.2z"/>
								</g>
							</g>
							<g class="st1">
								<path d="M134.2,298.3h2.9v-9.2h-2.4v-1.3c1.2-0.2,2.1-0.5,2.9-1h1.6v11.5h2.6v1.7h-7.6V298.3z"/>
								<path d="M144.2,298.8c0-0.8,0.6-1.5,1.4-1.5s1.4,0.6,1.4,1.5c0,0.8-0.6,1.4-1.4,1.4S144.2,299.6,144.2,298.8z"/>
								<path d="M149,298.8c3.9-3.5,5.9-6,5.9-8.2c0-1.4-0.8-2.4-2.2-2.4c-1,0-1.9,0.7-2.6,1.5l-1.2-1.2c1.1-1.2,2.3-2,4-2
									c2.4,0,4,1.6,4,4c0,2.6-2,5.2-4.8,7.9c0.7-0.1,1.5-0.1,2.2-0.1h3.3v1.8H149V298.8z"/>
								<path d="M174,291.7h-5.7v4.8h-1.5v-4.8H161v-1.5h5.7v-4.8h1.5v4.8h5.7V291.7z M174.1,298.3v1.5H161v-1.5H174.1z"/>
								<path d="M177.3,293.3c0-4.6,1.7-6.8,4.3-6.8c2.6,0,4.3,2.3,4.3,6.8c0,4.6-1.7,6.9-4.3,6.9
									C179,300.2,177.3,297.9,177.3,293.3z M183.9,293.3c0-3.8-1-5.2-2.3-5.2s-2.3,1.4-2.3,5.2c0,3.8,1,5.3,2.3,5.3
									S183.9,297.2,183.9,293.3z"/>
								<path d="M188.1,298.8c0-0.8,0.6-1.5,1.4-1.5s1.4,0.6,1.4,1.5c0,0.8-0.6,1.4-1.4,1.4S188.1,299.6,188.1,298.8z"/>
								<path d="M201.8,296.4h-1.7v3.6h-1.9v-3.6h-5.7V295l5.3-8.3h2.4v8.1h1.7V296.4z M198.2,294.8v-3.5c0-0.7,0.1-1.8,0.1-2.6
									h-0.1c-0.3,0.7-0.7,1.4-1.1,2l-2.6,4H198.2z"/>
							</g>
							<g transform="translate(0.000000, 214.000000)">
								<path class="st3" d="M8.8,0.8h316.5c4.4,0,8,3.6,8,8v32.5c0,4.4-3.6,8-8,8H8.8c-4.4,0-8-3.6-8-8V8.8
									C0.8,4.3,4.3,0.8,8.8,0.8z"/>
								<g class="st1">
									<path d="M163.7,29.7c3-2.7,4.8-4.8,4.8-6.5c0-1.1-0.6-1.8-1.7-1.8c-0.8,0-1.5,0.5-2,1.1l-1.2-1.2c1-1.1,2-1.7,3.5-1.7
										c2.1,0,3.5,1.3,3.5,3.4c0,2-1.7,4.2-3.7,6.1c0.6-0.1,1.3-0.1,1.8-0.1h2.4V31h-7.4V29.7z"/>
								</g>
							</g>
							<g class="st1">
								<path d="M134.2,405.3h2.9v-9.2h-2.4v-1.3c1.2-0.2,2.1-0.5,2.9-1h1.6v11.5h2.6v1.7h-7.6V405.3z"/>
								<path d="M144.2,405.8c0-0.8,0.6-1.5,1.4-1.5s1.4,0.6,1.4,1.5c0,0.8-0.6,1.4-1.4,1.4S144.2,406.6,144.2,405.8z"/>
								<path d="M149.8,405.3h2.9v-9.2h-2.4v-1.3c1.2-0.2,2.1-0.5,2.9-1h1.6v11.5h2.6v1.7h-7.6V405.3z"/>
								<path d="M174,398.7h-5.7v4.8h-1.5v-4.8H161v-1.5h5.7v-4.8h1.5v4.8h5.7V398.7z M174.1,405.3v1.5H161v-1.5H174.1z"/>
								<path d="M177.3,400.3c0-4.6,1.7-6.8,4.3-6.8c2.6,0,4.3,2.3,4.3,6.8c0,4.6-1.7,6.9-4.3,6.9
									C179,407.2,177.3,404.9,177.3,400.3z M183.9,400.3c0-3.8-1-5.2-2.3-5.2s-2.3,1.4-2.3,5.2c0,3.8,1,5.3,2.3,5.3
									S183.9,404.2,183.9,400.3z"/>
								<path d="M188.1,405.8c0-0.8,0.6-1.5,1.4-1.5s1.4,0.6,1.4,1.5c0,0.8-0.6,1.4-1.4,1.4S188.1,406.6,188.1,405.8z"/>
								<path d="M192.6,405.4l1-1.3c0.8,0.8,1.8,1.5,3.1,1.5c1.5,0,2.5-0.8,2.5-2.2c0-1.5-0.9-2.4-3.9-2.4v-1.5c2.6,0,3.5-1,3.5-2.3
									c0-1.2-0.8-1.9-2-1.9c-1,0-1.9,0.5-2.6,1.3l-1.1-1.3c1-0.9,2.3-1.6,3.8-1.6c2.4,0,4.1,1.2,4.1,3.4c0,1.5-0.9,2.6-2.3,3.1
									v0.1c1.5,0.4,2.7,1.5,2.7,3.3c0,2.4-2,3.8-4.4,3.8C194.9,407.2,193.5,406.4,192.6,405.4z"/>
							</g>
							<g transform="translate(0.000000, 321.000000)">
								<path class="st3" d="M8.8,0.8h316.5c4.4,0,8,3.6,8,8v32.5c0,4.4-3.6,8-8,8H8.8c-4.4,0-8-3.6-8-8V8.8
									C0.8,4.3,4.3,0.8,8.8,0.8z"/>
								<g class="st1">
									<path d="M171.5,28.1h-1.3V31h-2.1v-2.9h-4.7v-1.5l4.1-6.7h2.6v6.5h1.3V28.1z M168.1,26.4v-2.3c0-0.6,0.1-1.6,0.1-2.3h-0.1
										c-0.3,0.6-0.6,1.2-0.9,1.8l-1.7,2.8H168.1z"/>
								</g>
							</g>
							<g class="st1">
								<path d="M133.5,507.3c0-4.6,1.7-6.8,4.3-6.8c2.6,0,4.3,2.3,4.3,6.8c0,4.6-1.7,6.9-4.3,6.9
									C135.1,514.2,133.5,511.9,133.5,507.3z M140.1,507.3c0-3.8-1-5.2-2.3-5.2c-1.3,0-2.3,1.4-2.3,5.2c0,3.8,1,5.3,2.3,5.3
									C139.1,512.6,140.1,511.2,140.1,507.3z"/>
								<path d="M144.2,512.8c0-0.8,0.6-1.5,1.4-1.5s1.4,0.6,1.4,1.5c0,0.8-0.6,1.4-1.4,1.4S144.2,513.6,144.2,512.8z"/>
								<path d="M150.3,511.6c0.5,0.6,1.3,1,2.2,1c1.6,0,3-1.3,3.1-5.1c-0.8,1-1.9,1.5-2.9,1.5c-2.2,0-3.7-1.4-3.7-4.2
									c0-2.6,1.8-4.4,3.9-4.4c2.5,0,4.6,2.1,4.6,6.4c0,5.2-2.4,7.3-4.9,7.3c-1.5,0-2.6-0.6-3.4-1.4L150.3,511.6z M155.6,505.9
									c-0.2-2.6-1.2-3.8-2.6-3.8c-1.1,0-2,1-2,2.8c0,1.7,0.8,2.7,2.1,2.7C153.9,507.5,154.8,507,155.6,505.9z"/>
								<path d="M174,505.7h-5.7v4.8h-1.5v-4.8H161v-1.5h5.7v-4.8h1.5v4.8h5.7V505.7z M174.1,512.3v1.5H161v-1.5H174.1z"/>
								<path d="M177.3,507.3c0-4.6,1.7-6.8,4.3-6.8c2.6,0,4.3,2.3,4.3,6.8c0,4.6-1.7,6.9-4.3,6.9
									C179,514.2,177.3,511.9,177.3,507.3z M183.9,507.3c0-3.8-1-5.2-2.3-5.2s-2.3,1.4-2.3,5.2c0,3.8,1,5.3,2.3,5.3
									S183.9,511.2,183.9,507.3z"/>
								<path d="M188.1,512.8c0-0.8,0.6-1.5,1.4-1.5s1.4,0.6,1.4,1.5c0,0.8-0.6,1.4-1.4,1.4S188.1,513.6,188.1,512.8z"/>
								<path d="M192.6,512.4l1-1.3c0.8,0.8,1.8,1.5,3.1,1.5c1.5,0,2.5-0.8,2.5-2.2c0-1.5-0.9-2.4-3.9-2.4v-1.5c2.6,0,3.5-1,3.5-2.3
									c0-1.2-0.8-1.9-2-1.9c-1,0-1.9,0.5-2.6,1.3l-1.1-1.3c1-0.9,2.3-1.6,3.8-1.6c2.4,0,4.1,1.2,4.1,3.4c0,1.5-0.9,2.6-2.3,3.1
									v0.1c1.5,0.4,2.7,1.5,2.7,3.3c0,2.4-2,3.8-4.4,3.8C194.9,514.2,193.5,513.4,192.6,512.4z"/>
							</g>
							<g transform="translate(0.000000, 428.000000)">
								<path class="st3" d="M8.8,0.8h316.5c4.4,0,8,3.6,8,8v32.5c0,4.4-3.6,8-8,8H8.8c-4.4,0-8-3.6-8-8V8.8
									C0.8,4.3,4.3,0.8,8.8,0.8z"/>
								<g class="st1">
									<path d="M163.8,28.2c0-1.4,0.9-2.3,1.9-2.9v-0.1c-0.9-0.6-1.5-1.5-1.5-2.6c0-1.8,1.4-2.9,3.3-2.9c2,0,3.2,1.2,3.2,3
										c0,1.1-0.7,2-1.4,2.5v0.1c1,0.6,1.9,1.5,1.9,3c0,1.7-1.5,3-3.7,3C165.4,31.2,163.8,30,163.8,28.2z M169.2,28.2
										c0-1.2-1-1.6-2.5-2.2c-0.6,0.5-1,1.2-1,2.1c0,1,0.8,1.7,1.9,1.7C168.5,29.7,169.2,29.1,169.2,28.2z M169,22.8
										c0-0.9-0.5-1.5-1.5-1.5c-0.8,0-1.4,0.5-1.4,1.4c0,1.1,0.9,1.6,2,2C168.7,24.1,169,23.5,169,22.8z"/>
								</g>
							</g>
							<g class="st1">
								<path d="M134.2,619.3h2.9v-9.2h-2.4v-1.3c1.2-0.2,2.1-0.5,2.9-1h1.6v11.5h2.6v1.7h-7.6V619.3z"/>
								<path d="M144.2,619.8c0-0.8,0.6-1.5,1.4-1.5s1.4,0.6,1.4,1.5c0,0.8-0.6,1.4-1.4,1.4S144.2,620.6,144.2,619.8z"/>
								<path d="M149.1,614.3c0-4.6,1.7-6.8,4.3-6.8c2.6,0,4.3,2.3,4.3,6.8c0,4.6-1.7,6.9-4.3,6.9
									C150.8,621.2,149.1,618.9,149.1,614.3z M155.7,614.3c0-3.8-1-5.2-2.3-5.2s-2.3,1.4-2.3,5.2c0,3.8,1,5.3,2.3,5.3
									S155.7,618.2,155.7,614.3z"/>
								<path d="M174,612.7h-5.7v4.8h-1.5v-4.8H161v-1.5h5.7v-4.8h1.5v4.8h5.7V612.7z M174.1,619.3v1.5H161v-1.5H174.1z"/>
								<path d="M177.3,614.3c0-4.6,1.7-6.8,4.3-6.8c2.6,0,4.3,2.3,4.3,6.8c0,4.6-1.7,6.9-4.3,6.9
									C179,621.2,177.3,618.9,177.3,614.3z M183.9,614.3c0-3.8-1-5.2-2.3-5.2s-2.3,1.4-2.3,5.2c0,3.8,1,5.3,2.3,5.3
									S183.9,618.2,183.9,614.3z"/>
								<path d="M188.1,619.8c0-0.8,0.6-1.5,1.4-1.5s1.4,0.6,1.4,1.5c0,0.8-0.6,1.4-1.4,1.4S188.1,620.6,188.1,619.8z"/>
								<path d="M192.6,619.4l1-1.3c0.8,0.8,1.8,1.5,3.1,1.5c1.5,0,2.5-0.8,2.5-2.2c0-1.5-0.9-2.4-3.9-2.4v-1.5c2.6,0,3.5-1,3.5-2.3
									c0-1.2-0.8-1.9-2-1.9c-1,0-1.9,0.5-2.6,1.3l-1.1-1.3c1-0.9,2.3-1.6,3.8-1.6c2.4,0,4.1,1.2,4.1,3.4c0,1.5-0.9,2.6-2.3,3.1
									v0.1c1.5,0.4,2.7,1.5,2.7,3.3c0,2.4-2,3.8-4.4,3.8C194.9,621.2,193.5,620.4,192.6,619.4z"/>
							</g>
							<g transform="translate(0.000000, 535.000000)">
								<path class="st3" d="M8.8,0.8h316.5c4.4,0,8,3.6,8,8v32.5c0,4.4-3.6,8-8,8H8.8c-4.4,0-8-3.6-8-8V8.8
									C0.8,4.3,4.3,0.8,8.8,0.8z"/>
								<g class="st1">
									<path d="M159.9,29.2h2.4v-7h-2v-1.4c1.1-0.2,1.9-0.5,2.6-0.9h1.6v9.3h2.1V31h-6.7V29.2z"/>
									<path d="M168.1,29.7c3-2.7,4.8-4.8,4.8-6.5c0-1.1-0.6-1.8-1.7-1.8c-0.8,0-1.5,0.5-2,1.1l-1.2-1.2c1-1.1,2-1.7,3.5-1.7
										c2.1,0,3.5,1.3,3.5,3.4c0,2-1.7,4.2-3.7,6.1c0.6-0.1,1.3-0.1,1.8-0.1h2.4V31h-7.4V29.7z"/>
								</g>
							</g>
							<g class="st1">
								<path d="M133.5,721.3c0-4.6,1.7-6.8,4.3-6.8c2.6,0,4.3,2.3,4.3,6.8c0,4.6-1.7,6.9-4.3,6.9
									C135.1,728.2,133.5,725.9,133.5,721.3z M140.1,721.3c0-3.8-1-5.2-2.3-5.2c-1.3,0-2.3,1.4-2.3,5.2c0,3.8,1,5.3,2.3,5.3
									C139.1,726.6,140.1,725.2,140.1,721.3z"/>
								<path d="M144.2,726.8c0-0.8,0.6-1.5,1.4-1.5s1.4,0.6,1.4,1.5c0,0.8-0.6,1.4-1.4,1.4S144.2,727.6,144.2,726.8z"/>
								<path d="M149.1,724.7c0-1.7,1.2-2.9,2.4-3.6V721c-1-0.7-1.8-1.7-1.8-3.1c0-2.1,1.6-3.4,3.8-3.4c2.3,0,3.7,1.4,3.7,3.5
									c0,1.4-0.9,2.5-1.7,3.1v0.1c1.2,0.7,2.2,1.7,2.2,3.5c0,2-1.7,3.5-4.3,3.5C150.9,728.2,149.1,726.8,149.1,724.7z
									 M155.7,724.7c0-1.6-1.5-2.2-3.3-3c-0.9,0.6-1.5,1.6-1.5,2.8c0,1.3,1.1,2.2,2.5,2.2C154.8,726.7,155.7,725.9,155.7,724.7z
									 M155.4,718.2c0-1.2-0.7-2.1-2-2.1c-1.1,0-1.9,0.7-1.9,1.9c0,1.4,1.3,2.1,2.7,2.7C155,719.9,155.4,719.1,155.4,718.2z"/>
								<path d="M174,719.7h-5.7v4.8h-1.5v-4.8H161v-1.5h5.7v-4.8h1.5v4.8h5.7V719.7z M174.1,726.3v1.5H161v-1.5H174.1z"/>
								<path d="M177.3,721.3c0-4.6,1.7-6.8,4.3-6.8c2.6,0,4.3,2.3,4.3,6.8c0,4.6-1.7,6.9-4.3,6.9
									C179,728.2,177.3,725.9,177.3,721.3z M183.9,721.3c0-3.8-1-5.2-2.3-5.2s-2.3,1.4-2.3,5.2c0,3.8,1,5.3,2.3,5.3
									S183.9,725.2,183.9,721.3z"/>
								<path d="M188.1,726.8c0-0.8,0.6-1.5,1.4-1.5s1.4,0.6,1.4,1.5c0,0.8-0.6,1.4-1.4,1.4S188.1,727.6,188.1,726.8z"/>
								<path d="M192.6,726.4l1-1.3c0.8,0.8,1.8,1.5,3.1,1.5c1.5,0,2.5-0.8,2.5-2.2c0-1.5-0.9-2.4-3.9-2.4v-1.5c2.6,0,3.5-1,3.5-2.3
									c0-1.2-0.8-1.9-2-1.9c-1,0-1.9,0.5-2.6,1.3l-1.1-1.3c1-0.9,2.3-1.6,3.8-1.6c2.4,0,4.1,1.2,4.1,3.4c0,1.5-0.9,2.6-2.3,3.1
									v0.1c1.5,0.4,2.7,1.5,2.7,3.3c0,2.4-2,3.8-4.4,3.8C194.9,728.2,193.5,727.4,192.6,726.4z"/>
							</g>
							<g transform="translate(0.000000, 642.000000)">
								<path class="st3" d="M8.8,0.8h316.5c4.4,0,8,3.6,8,8v32.5c0,4.4-3.6,8-8,8H8.8c-4.4,0-8-3.6-8-8V8.8
									C0.8,4.3,4.3,0.8,8.8,0.8z"/>
								<g class="st1">
									<path d="M159.3,29.7c3-2.7,4.8-4.8,4.8-6.5c0-1.1-0.6-1.8-1.7-1.8c-0.8,0-1.5,0.5-2,1.1l-1.2-1.2c1-1.1,2-1.7,3.5-1.7
										c2.1,0,3.5,1.3,3.5,3.4c0,2-1.7,4.2-3.7,6.1c0.6-0.1,1.3-0.1,1.8-0.1h2.4V31h-7.4V29.7z"/>
									<path d="M175.9,28.1h-1.3V31h-2.1v-2.9h-4.7v-1.5l4.1-6.7h2.6v6.5h1.3V28.1z M172.5,26.4v-2.3c0-0.6,0.1-1.6,0.1-2.3h-0.1
										c-0.3,0.6-0.6,1.2-0.9,1.8l-1.7,2.8H172.5z"/>
								</g>
							</g>
						</g>
					</g>
					<g class="st1">
						<path class="st4" d="M142.6,14.2H139l-0.8,2.8h-2.2l3.6-11.1h2.6l3.6,11.1h-2.3L142.6,14.2z M142.1,12.4l-0.3-1.2
							c-0.3-1.2-0.6-2.4-1-3.6h-0.1c-0.3,1.2-0.6,2.5-0.9,3.6l-0.3,1.2H142.1z"/>
						<path class="st4" d="M146.8,14.6V5h2.2v9.7c0,0.5,0.2,0.7,0.4,0.7c0.1,0,0.1,0,0.3,0L150,17c-0.3,0.1-0.6,0.2-1.1,0.2
							C147.3,17.2,146.8,16.2,146.8,14.6z"/>
						<path class="st4" d="M151.5,14.6V5h2.2v9.7c0,0.5,0.2,0.7,0.4,0.7c0.1,0,0.1,0,0.3,0l0.3,1.6c-0.3,0.1-0.6,0.2-1.1,0.2
							C152.1,17.2,151.5,16.2,151.5,14.6z"/>
						<path class="st4" d="M159.7,12.3c0-3,0.8-5.4,2.2-7.8l1.4,0.6c-1.3,2.2-1.8,4.7-1.8,7.2c0,2.5,0.6,5,1.8,7.2L162,20
							C160.6,17.7,159.7,15.3,159.7,12.3z"/>
						<path class="st4" d="M165.3,8.6h1.8l0.1,1.1h0.1c0.7-0.7,1.6-1.3,2.7-1.3c1.8,0,2.6,1.3,2.6,3.4V17h-2.2v-5
							c0-1.3-0.4-1.8-1.2-1.8c-0.7,0-1.1,0.3-1.8,0.9V17h-2.2V8.6z"/>
						<path class="st4" d="M174.3,8.7h7.7v1.6h-7.7V8.7z M174.3,12.5h7.7v1.6h-7.7V12.5z"/>
						<path class="st4" d="M184.5,14.6c0.4,0.4,1.1,0.8,1.8,0.8c1.2,0,2.3-0.9,2.4-3.7c-0.6,0.8-1.5,1.2-2.3,1.2
							c-1.8,0-3.2-1.1-3.2-3.5c0-2.3,1.6-3.7,3.5-3.7c2.1,0,4,1.7,4,5.5c0,4.2-2.1,6-4.3,6c-1.4,0-2.4-0.6-3-1.3L184.5,14.6z
							 M188.6,10.1c-0.2-2-1-2.8-1.9-2.8c-0.8,0-1.5,0.7-1.5,2c0,1.3,0.6,1.9,1.6,1.9C187.4,11.3,188.1,11,188.6,10.1z"/>
						<path class="st4" d="M192.2,19.4c1.3-2.2,1.8-4.7,1.8-7.2c0-2.4-0.6-5-1.8-7.2l1.4-0.6c1.4,2.3,2.2,4.8,2.2,7.8
							c0,3-0.8,5.4-2.2,7.8L192.2,19.4z"/>
					</g>
				</g>
				<g id="cell2" transform="translate(0.000000, 1017.000000)">
					<g transform="translate(0.000000, 47.000000)">
						<g>
							<path class="st0" d="M8,0h318c4.4,0,8,3.6,8,8v34c0,4.4-3.6,8-8,8H8c-4.4,0-8-3.6-8-8V8C0,3.6,3.6,0,8,0z"/>
							<g class="st1">
								<path class="st2" d="M126.5,19.9h3.6c2.5,0,4.3,0.9,4.3,3.5c0,2.5-1.9,3.7-4.3,3.7h-1.5V31h-2.2V19.9z M130,25.3
									c1.5,0,2.3-0.6,2.3-1.9c0-1.3-0.8-1.7-2.3-1.7h-1.3v3.6H130z"/>
								<path class="st2" d="M135.3,28.7c0-1.8,1.5-2.7,4.8-3.1c0-0.8-0.4-1.5-1.4-1.5c-0.8,0-1.5,0.3-2.3,0.8l-0.8-1.5
									c1-0.6,2.2-1.1,3.5-1.1c2.1,0,3.2,1.3,3.2,3.7V31h-1.8l-0.2-0.9h0c-0.7,0.6-1.6,1.1-2.5,1.1
									C136.3,31.2,135.3,30.1,135.3,28.7z M140.1,28.7V27c-2,0.3-2.7,0.8-2.7,1.6c0,0.7,0.5,0.9,1.1,0.9
									C139.1,29.5,139.6,29.2,140.1,28.7z"/>
								<path class="st2" d="M144.6,22.6h1.8l0.1,1.5h0.1c0.6-1.1,1.5-1.7,2.4-1.7c0.5,0,0.7,0.1,1,0.2l-0.4,1.9
									c-0.3-0.1-0.5-0.1-0.9-0.1c-0.7,0-1.5,0.4-1.9,1.7v5h-2.2V22.6z"/>
								<path class="st2" d="M150.2,28.7c0-1.8,1.5-2.7,4.8-3.1c0-0.8-0.4-1.5-1.4-1.5c-0.8,0-1.5,0.3-2.3,0.8l-0.8-1.5
									c1-0.6,2.2-1.1,3.5-1.1c2.1,0,3.2,1.3,3.2,3.7V31h-1.8l-0.2-0.9h0c-0.7,0.6-1.6,1.1-2.5,1.1
									C151.2,31.2,150.2,30.1,150.2,28.7z M155,28.7V27c-2,0.3-2.7,0.8-2.7,1.6c0,0.7,0.5,0.9,1.1,0.9
									C154.1,29.5,154.5,29.2,155,28.7z"/>
								<path class="st2" d="M159.5,22.6h1.8l0.1,1.1h0.1c0.7-0.7,1.5-1.3,2.6-1.3c1.2,0,1.9,0.5,2.3,1.5c0.8-0.8,1.6-1.5,2.7-1.5
									c1.8,0,2.6,1.3,2.6,3.4V31h-2.2v-5c0-1.3-0.4-1.8-1.2-1.8c-0.5,0-1,0.3-1.6,0.9V31h-2.2v-5c0-1.3-0.4-1.8-1.2-1.8
									c-0.5,0-1,0.3-1.6,0.9V31h-2.2V22.6z"/>
								<path class="st2" d="M173.4,26.8c0-2.7,1.9-4.4,3.9-4.4c2.3,0,3.5,1.7,3.5,4c0,0.4,0,0.8-0.1,1h-5.2
									c0.2,1.4,1.1,2.1,2.3,2.1c0.7,0,1.3-0.2,1.9-0.6l0.8,1.4c-0.8,0.6-1.9,0.9-2.9,0.9C175.3,31.2,173.4,29.6,173.4,26.8z
									 M179,26c0-1.1-0.5-1.9-1.6-1.9c-0.9,0-1.7,0.6-1.8,1.9H179z"/>
								<path class="st2" d="M182.8,28.1v-3.7h-1.2v-1.6l1.3-0.1l0.3-2.2h1.8v2.2h2.1v1.7H185v3.7c0,1,0.4,1.4,1.1,1.4
									c0.3,0,0.6-0.1,0.8-0.2l0.4,1.6c-0.5,0.2-1,0.3-1.8,0.3C183.6,31.2,182.8,30,182.8,28.1z"/>
								<path class="st2" d="M188,26.8c0-2.7,1.9-4.4,3.9-4.4c2.3,0,3.5,1.7,3.5,4c0,0.4,0,0.8-0.1,1h-5.2c0.2,1.4,1.1,2.1,2.3,2.1
									c0.7,0,1.3-0.2,1.9-0.6l0.8,1.4c-0.8,0.6-1.9,0.9-2.9,0.9C189.8,31.2,188,29.6,188,26.8z M193.5,26c0-1.1-0.5-1.9-1.6-1.9
									c-0.9,0-1.7,0.6-1.8,1.9H193.5z"/>
								<path class="st2" d="M197.2,22.6h1.8l0.2,1.5h0.1c0.6-1.1,1.5-1.7,2.4-1.7c0.5,0,0.7,0.1,1,0.2l-0.4,1.9
									c-0.3-0.1-0.5-0.1-0.9-0.1c-0.7,0-1.5,0.4-1.9,1.7v5h-2.2V22.6z"/>
								<path class="st2" d="M202.8,30l1-1.4c0.8,0.6,1.5,0.9,2.2,0.9c0.8,0,1.2-0.4,1.2-0.9c0-0.6-0.9-0.9-1.8-1.3
									c-1.1-0.4-2.3-1-2.3-2.4c0-1.5,1.2-2.6,3.1-2.6c1.2,0,2.2,0.5,2.9,1l-1,1.3c-0.6-0.4-1.2-0.7-1.8-0.7
									c-0.8,0-1.1,0.3-1.1,0.8c0,0.6,0.8,0.8,1.7,1.2c1.1,0.4,2.3,1,2.3,2.5c0,1.5-1.2,2.7-3.3,2.7
									C204.9,31.2,203.7,30.7,202.8,30z"/>
							</g>
						</g>
						<g transform="translate(112.000000, 65.000000)">
							<g class="st1">
								<path d="M8.9,17.2H4.3L3.1,21H1L5.4,7.7h2.4L12.2,21H10L8.9,17.2z M8.4,15.6l-0.5-1.8C7.4,12.4,7,10.9,6.6,9.4H6.5
									c-0.4,1.5-0.8,3-1.2,4.4l-0.5,1.8H8.4z"/>
								<path d="M13.8,11.1h1.7l0.2,1.4h0.1c0.9-0.9,1.9-1.6,3.3-1.6c2.1,0,3,1.4,3,3.9V21h-2.1v-6c0-1.7-0.5-2.4-1.7-2.4
									c-0.9,0-1.5,0.5-2.4,1.3v7h-2.1V11.1z"/>
								<path d="M25.3,17.8v-5h-1.4v-1.5l1.5-0.1l0.2-2.7h1.7v2.7H30v1.7h-2.6v5c0,1.2,0.4,1.8,1.4,1.8c0.3,0,0.8-0.1,1.1-0.2
									l0.4,1.5c-0.6,0.2-1.2,0.4-1.9,0.4C26.1,21.2,25.3,19.8,25.3,17.8z"/>
								<path d="M31.8,8c0-0.7,0.6-1.2,1.3-1.2s1.3,0.5,1.3,1.2c0,0.7-0.6,1.2-1.3,1.2S31.8,8.7,31.8,8z M32.1,11.1h2.1V21h-2.1
									V11.1z"/>
								<path d="M36.6,15.1h4.8v1.5h-4.8V15.1z"/>
								<path d="M43.9,7.7H46v5.4h5.7V7.7h2.1V21h-2.1v-6H46v6h-2.1V7.7z"/>
								<path d="M56.5,14.4c0-4.3,2.7-6.9,6.2-6.9c1.9,0,3.1,0.8,3.9,1.7l-1.1,1.3c-0.6-0.7-1.5-1.2-2.7-1.2c-2.5,0-4.1,1.9-4.1,5
									c0,3.2,1.5,5.1,4.2,5.1c0.8,0,1.6-0.2,2.1-0.6v-3.1h-2.6v-1.7h4.5v5.7c-0.9,0.9-2.4,1.5-4.2,1.5
									C59.1,21.2,56.5,18.7,56.5,14.4z"/>
								<path d="M69.8,7.7h7.9v1.7h-5.8v4.1h4.9v1.7h-4.9V21h-2.1V7.7z"/>
								<path d="M90.2,17.2h-4.6L84.4,21h-2.1l4.4-13.3h2.4L93.5,21h-2.2L90.2,17.2z M89.7,15.6l-0.5-1.8c-0.5-1.4-0.8-2.9-1.3-4.4
									h-0.1c-0.4,1.5-0.8,3-1.2,4.4l-0.5,1.8H89.7z"/>
								<path d="M97,20L97,20l-0.3,1h-1.6V6.6h2.1v3.8l-0.1,1.7c0.8-0.7,1.9-1.3,3-1.3c2.5,0,3.9,2,3.9,5c0,3.4-2,5.3-4.3,5.3
									C98.8,21.2,97.8,20.8,97,20z M101.8,15.9c0-2.1-0.7-3.3-2.3-3.3c-0.8,0-1.5,0.4-2.4,1.2v4.8c0.8,0.7,1.5,0.9,2.2,0.9
									C100.7,19.5,101.8,18.2,101.8,15.9z"/>
								<path d="M105.9,19.8c0-0.8,0.6-1.5,1.4-1.5s1.4,0.6,1.4,1.5c0,0.8-0.6,1.4-1.4,1.4S105.9,20.6,105.9,19.8z"/>
							</g>
						</g>
					</g>
					<g transform="translate(0.000000, 154.000000)">
						<g>
							<path class="st0" d="M8,0h318c4.4,0,8,3.6,8,8v34c0,4.4-3.6,8-8,8H8c-4.4,0-8-3.6-8-8V8C0,3.6,3.6,0,8,0z"/>
							<g class="st1">
								<path class="st2" d="M95.5,29.6l1.3-1.5c0.8,0.7,1.8,1.2,2.8,1.2c1.2,0,1.8-0.5,1.8-1.3c0-0.8-0.7-1.1-1.7-1.5l-1.5-0.6
									c-1.1-0.5-2.2-1.4-2.2-3c0-1.8,1.6-3.2,3.8-3.2c1.3,0,2.6,0.5,3.5,1.4l-1.1,1.4c-0.7-0.6-1.4-0.9-2.4-0.9
									c-1,0-1.6,0.4-1.6,1.2c0,0.8,0.8,1.1,1.7,1.5l1.5,0.6c1.3,0.6,2.2,1.4,2.2,3c0,1.8-1.5,3.4-4.1,3.4
									C98.1,31.2,96.6,30.6,95.5,29.6z"/>
								<path class="st2" d="M105,28.7c0-1.8,1.5-2.7,4.8-3.1c0-0.8-0.4-1.5-1.4-1.5c-0.8,0-1.5,0.3-2.3,0.8l-0.8-1.5
									c1-0.6,2.2-1.1,3.5-1.1c2.1,0,3.2,1.3,3.2,3.7V31h-1.8l-0.2-0.9h0c-0.7,0.6-1.6,1.1-2.5,1.1C106,31.2,105,30.1,105,28.7z
									 M109.8,28.7V27c-2,0.3-2.7,0.8-2.7,1.6c0,0.7,0.5,0.9,1.1,0.9C108.8,29.5,109.3,29.2,109.8,28.7z"/>
								<path class="st2" d="M118.8,20.7c-0.3-0.1-0.6-0.2-0.9-0.2c-0.7,0-1,0.4-1,1.3v0.7h1.6v1.7h-1.6V31h-2.2v-6.7h-1.1v-1.6
									l1.1-0.1v-0.7c0-1.8,0.8-3.1,2.9-3.1c0.6,0,1.2,0.2,1.6,0.3L118.8,20.7z"/>
								<path class="st2" d="M119.2,26.8c0-2.7,1.9-4.4,3.9-4.4c2.3,0,3.5,1.7,3.5,4c0,0.4,0,0.8-0.1,1h-5.2
									c0.2,1.4,1.1,2.1,2.3,2.1c0.7,0,1.3-0.2,1.9-0.6l0.8,1.4c-0.8,0.6-1.9,0.9-2.9,0.9C121,31.2,119.2,29.6,119.2,26.8z
									 M124.7,26c0-1.1-0.5-1.9-1.6-1.9c-0.9,0-1.7,0.6-1.8,1.9H124.7z"/>
								<path class="st2" d="M128.5,28.1v-3.7h-1.2v-1.6l1.3-0.1l0.3-2.2h1.8v2.2h2.1v1.7h-2.1v3.7c0,1,0.4,1.4,1.1,1.4
									c0.3,0,0.6-0.1,0.8-0.2l0.4,1.6c-0.5,0.2-1,0.3-1.8,0.3C129.3,31.2,128.5,30,128.5,28.1z"/>
								<path class="st2" d="M134.1,34.2l0.4-1.7c0.1,0,0.4,0.1,0.6,0.1c0.9,0,1.3-0.5,1.6-1.3l0.1-0.5l-3.3-8.2h2.2l1.3,3.9
									c0.3,0.8,0.5,1.6,0.7,2.4h0.1c0.2-0.8,0.4-1.6,0.6-2.4l1.2-3.9h2.1l-3,8.7c-0.7,2-1.6,3.1-3.5,3.1
									C134.8,34.4,134.4,34.3,134.1,34.2z"/>
								<path class="st2" d="M146,32.5c0-0.7,0.4-1.3,1.2-1.7v-0.1c-0.4-0.3-0.8-0.7-0.8-1.4c0-0.6,0.4-1.2,0.9-1.6v-0.1
									c-0.6-0.4-1.1-1.2-1.1-2.2c0-2,1.6-3,3.4-3c0.5,0,0.9,0.1,1.3,0.2h3v1.6h-1.4c0.2,0.3,0.4,0.8,0.4,1.3
									c0,1.9-1.4,2.8-3.2,2.8c-0.3,0-0.7-0.1-1.1-0.2c-0.2,0.2-0.4,0.4-0.4,0.7c0,0.5,0.3,0.7,1.3,0.7h1.4c2,0,3.1,0.6,3.1,2.1
									c0,1.7-1.8,3-4.6,3C147.5,34.6,146,34,146,32.5z M151.9,32c0-0.6-0.5-0.8-1.4-0.8h-1c-0.5,0-0.9,0-1.2-0.1
									c-0.4,0.3-0.6,0.6-0.6,1c0,0.7,0.8,1.1,2,1.1C151.1,33.2,151.9,32.7,151.9,32z M150.9,25.4c0-1-0.6-1.5-1.3-1.5
									s-1.3,0.6-1.3,1.5c0,1,0.6,1.5,1.3,1.5S150.9,26.4,150.9,25.4z"/>
								<path class="st2" d="M155.5,22.6h1.8l0.1,1.5h0.1c0.6-1.1,1.5-1.7,2.4-1.7c0.5,0,0.7,0.1,1,0.2l-0.4,1.9
									c-0.3-0.1-0.5-0.1-0.9-0.1c-0.7,0-1.5,0.4-1.9,1.7v5h-2.2V22.6z"/>
								<path class="st2" d="M161.3,26.8c0-2.8,1.9-4.4,4-4.4s4,1.6,4,4.4c0,2.8-1.9,4.4-4,4.4S161.3,29.6,161.3,26.8z M167.1,26.8
									c0-1.6-0.6-2.6-1.8-2.6s-1.8,1-1.8,2.6c0,1.6,0.6,2.6,1.8,2.6S167.1,28.4,167.1,26.8z"/>
								<path class="st2" d="M171.1,27.9v-5.2h2.2v5c0,1.3,0.4,1.8,1.2,1.8c0.7,0,1.1-0.3,1.7-1v-5.7h2.2V31h-1.8l-0.2-1.2h-0.1
									c-0.7,0.9-1.5,1.4-2.7,1.4C171.9,31.2,171.1,30,171.1,27.9z"/>
								<path class="st2" d="M180.8,22.6h1.8l0.1,0.9h0.1c0.7-0.6,1.6-1.1,2.5-1.1c2.1,0,3.3,1.7,3.3,4.3c0,2.9-1.7,4.5-3.6,4.5
									c-0.7,0-1.4-0.3-2.1-0.9l0.1,1.4v2.5h-2.2V22.6z M186.3,26.7c0-1.6-0.5-2.5-1.7-2.5c-0.6,0-1.1,0.3-1.7,0.9v3.7
									c0.5,0.5,1.1,0.6,1.5,0.6C185.5,29.4,186.3,28.5,186.3,26.7z"/>
								<path class="st2" d="M193.9,26.3c0-3,0.8-5.4,2.2-7.8l1.4,0.6c-1.3,2.2-1.8,4.7-1.8,7.2c0,2.5,0.6,5,1.8,7.2l-1.4,0.6
									C194.8,31.7,193.9,29.3,193.9,26.3z"/>
								<path class="st2" d="M199.5,22.6h1.8l0.2,1.1h0.1c0.7-0.7,1.6-1.3,2.7-1.3c1.8,0,2.6,1.3,2.6,3.4V31h-2.2v-5
									c0-1.3-0.4-1.8-1.2-1.8c-0.7,0-1.1,0.3-1.8,0.9V31h-2.2V22.6z"/>
								<path class="st2" d="M208.5,22.7h7.7v1.6h-7.7V22.7z M208.5,26.5h7.7v1.6h-7.7V26.5z"/>
								<path class="st2" d="M217.2,29.7l1-1.4c0.6,0.6,1.4,1.1,2.4,1.1c1.2,0,2-0.7,2-2c0-1.3-0.8-2-1.9-2c-0.7,0-1,0.2-1.7,0.6
									l-1-0.7l0.3-5.4h5.9v1.8h-4l-0.2,2.4c0.4-0.2,0.8-0.3,1.3-0.3c1.9,0,3.4,1.1,3.4,3.5c0,2.5-1.8,3.9-3.9,3.9
									C219.2,31.2,218,30.5,217.2,29.7z"/>
								<path class="st2" d="M226.3,29.7c3-2.7,4.8-4.8,4.8-6.5c0-1.1-0.6-1.8-1.7-1.8c-0.8,0-1.5,0.5-2,1.1l-1.2-1.2
									c1-1.1,2-1.7,3.5-1.7c2.1,0,3.5,1.3,3.5,3.4c0,2-1.7,4.2-3.7,6.1c0.6-0.1,1.3-0.1,1.8-0.1h2.4V31h-7.4V29.7z"/>
								<path class="st2" d="M235.2,33.4c1.3-2.2,1.8-4.7,1.8-7.2c0-2.4-0.6-5-1.8-7.2l1.4-0.6c1.4,2.3,2.2,4.8,2.2,7.8
									c0,3-0.8,5.4-2.2,7.8L235.2,33.4z"/>
							</g>
						</g>
						<g transform="translate(0.000000, 70.000000)">
							<g class="st1">
								<path d="M131.5,72.7h2.1l4.4,7.8l1.4,2.8h0.1c-0.1-1.4-0.3-3-0.3-4.4v-6.2h2V86h-2.1l-4.4-7.8l-1.4-2.8h-0.1
									c0.1,1.4,0.3,2.9,0.3,4.3V86h-2V72.7z"/>
								<path d="M143.8,81.1c0-3.2,2.2-5.2,4.5-5.2c2.6,0,4,1.9,4,4.7c0,0.4,0,0.8-0.1,1h-6.4c0.2,1.9,1.4,3,3.1,3
									c0.9,0,1.6-0.3,2.4-0.7l0.7,1.3c-0.9,0.6-2.1,1-3.3,1C146,86.2,143.8,84.3,143.8,81.1z M150.6,80.2c0-1.7-0.8-2.7-2.2-2.7
									c-1.2,0-2.3,1-2.5,2.7H150.6z"/>
								<path d="M153.8,87.8c0-0.8,0.5-1.6,1.4-2.2v-0.1c-0.5-0.3-0.9-0.8-0.9-1.6c0-0.8,0.6-1.4,1.1-1.8V82
									c-0.7-0.5-1.3-1.5-1.3-2.6c0-2.3,1.8-3.6,3.8-3.6c0.6,0,1.1,0.1,1.4,0.3h3.5v1.5H161c0.4,0.4,0.6,1.1,0.6,1.8
									c0,2.2-1.6,3.4-3.7,3.4c-0.5,0-1-0.1-1.4-0.3c-0.3,0.3-0.5,0.6-0.5,1c0,0.6,0.4,1,1.7,1h1.8c2.3,0,3.6,0.7,3.6,2.4
									c0,1.9-2,3.5-5.2,3.5C155.5,90.4,153.8,89.6,153.8,87.8z M161.1,87.3c0-0.8-0.6-1.1-1.9-1.1h-1.5c-0.5,0-0.9-0.1-1.3-0.1
									c-0.6,0.4-0.8,0.9-0.8,1.4c0,1,1,1.5,2.6,1.5C159.9,89.1,161.1,88.2,161.1,87.3z M159.9,79.4c0-1.3-0.8-2.1-1.9-2.1
									s-1.9,0.8-1.9,2.1c0,1.3,0.8,2.1,1.9,2.1S159.9,80.7,159.9,79.4z"/>
								<path d="M164,83.4c0-2.1,1.8-3.2,5.9-3.7c0-1.2-0.4-2.2-1.9-2.2c-1,0-2,0.5-2.9,1l-0.8-1.4c1-0.6,2.4-1.3,4-1.3
									c2.5,0,3.6,1.6,3.6,4.2v6h-1.7l-0.2-1.1h-0.1c-0.9,0.8-2,1.4-3.2,1.4C165.2,86.2,164,85.1,164,83.4z M169.9,83.4V81
									c-2.9,0.4-3.9,1.1-3.9,2.2c0,1,0.7,1.4,1.5,1.4C168.4,84.6,169.1,84.2,169.9,83.4z"/>
								<path d="M175,82.8v-5h-1.4v-1.5l1.5-0.1l0.2-2.7h1.7v2.7h2.6v1.7H177v5c0,1.2,0.4,1.8,1.4,1.8c0.3,0,0.8-0.1,1.1-0.2
									l0.4,1.5c-0.6,0.2-1.2,0.4-1.9,0.4C175.7,86.2,175,84.8,175,82.8z"/>
								<path d="M181.5,73c0-0.7,0.6-1.2,1.3-1.2s1.3,0.5,1.3,1.2c0,0.7-0.6,1.2-1.3,1.2S181.5,73.7,181.5,73z M181.8,76.1h2.1V86
									h-2.1V76.1z"/>
								<path d="M185.6,76.1h2.1l1.7,5.3c0.3,1,0.6,2,0.9,3h0.1c0.3-1,0.6-2,0.9-3l1.7-5.3h2l-3.4,9.9h-2.4L185.6,76.1z"/>
								<path d="M195.9,81.1c0-3.2,2.2-5.2,4.5-5.2c2.6,0,4,1.9,4,4.7c0,0.4,0,0.8-0.1,1H198c0.2,1.9,1.3,3,3.1,3
									c0.9,0,1.6-0.3,2.4-0.7l0.7,1.3c-0.9,0.6-2.1,1-3.3,1C198.1,86.2,195.9,84.3,195.9,81.1z M202.7,80.2c0-1.7-0.8-2.7-2.2-2.7
									c-1.2,0-2.3,1-2.5,2.7H202.7z"/>
							</g>
							<g class="st1">
								<path d="M165.1,187.1h4.8v1.5h-4.8V187.1z"/>
							</g>
							<g>
								<path class="st3" d="M8.8,0.8h316.5c4.4,0,8,3.6,8,8v32.5c0,4.4-3.6,8-8,8H8.8c-4.4,0-8-3.6-8-8V8.8
									C0.8,4.3,4.3,0.8,8.8,0.8z"/>
								<g class="st1">
									<path d="M137.9,19.9h3.7c2.3,0,4,0.7,4,2.7c0,1-0.6,2.1-1.5,2.4v0.1c1.2,0.3,2.1,1.1,2.1,2.6c0,2.2-1.9,3.3-4.3,3.3h-4
										V19.9z M141.5,24.4c1.4,0,2-0.6,2-1.5c0-1-0.7-1.4-2-1.4h-1.3v2.8H141.5z M141.7,29.3c1.5,0,2.3-0.5,2.3-1.7
										c0-1.1-0.8-1.5-2.3-1.5h-1.5v3.2H141.7z"/>
									<path d="M147.6,28.7c0-1.8,1.5-2.7,4.8-3.1c0-0.8-0.4-1.5-1.4-1.5c-0.8,0-1.5,0.3-2.3,0.8l-0.8-1.5c1-0.6,2.2-1.1,3.5-1.1
										c2.1,0,3.2,1.3,3.2,3.7V31h-1.8l-0.2-0.9h0c-0.7,0.6-1.6,1.1-2.5,1.1C148.6,31.2,147.6,30.1,147.6,28.7z M152.4,28.7V27
										c-2,0.3-2.7,0.8-2.7,1.6c0,0.7,0.5,0.9,1.1,0.9C151.4,29.5,151.9,29.2,152.4,28.7z"/>
									<path d="M156.1,30l1-1.4c0.8,0.6,1.5,0.9,2.2,0.9c0.8,0,1.2-0.4,1.2-0.9c0-0.6-0.9-0.9-1.8-1.3c-1.1-0.4-2.3-1-2.3-2.4
										c0-1.5,1.2-2.6,3.1-2.6c1.2,0,2.2,0.5,2.9,1l-1,1.3c-0.6-0.4-1.2-0.7-1.8-0.7c-0.8,0-1.1,0.3-1.1,0.8
										c0,0.6,0.8,0.8,1.7,1.2c1.1,0.4,2.3,1,2.3,2.5c0,1.5-1.2,2.7-3.3,2.7C158.1,31.2,156.9,30.7,156.1,30z"/>
									<path d="M163.7,26.8c0-2.7,1.9-4.4,3.9-4.4c2.3,0,3.5,1.7,3.5,4c0,0.4,0,0.8-0.1,1h-5.2c0.2,1.4,1.1,2.1,2.3,2.1
										c0.7,0,1.3-0.2,1.9-0.6l0.8,1.4c-0.8,0.6-1.9,0.9-2.9,0.9C165.6,31.2,163.7,29.6,163.7,26.8z M169.3,26
										c0-1.1-0.5-1.9-1.6-1.9c-0.9,0-1.7,0.6-1.8,1.9H169.3z"/>
									<path d="M173,28.6V19h2.2v9.7c0,0.5,0.2,0.7,0.4,0.7c0.1,0,0.2,0,0.3,0l0.3,1.6c-0.3,0.1-0.6,0.2-1.1,0.2
										C173.5,31.2,173,30.2,173,28.6z"/>
									<path d="M177.5,20.1c0-0.7,0.6-1.2,1.3-1.2c0.8,0,1.3,0.5,1.3,1.2c0,0.7-0.6,1.2-1.3,1.2C178.1,21.2,177.5,20.7,177.5,20.1
										z M177.7,22.6h2.2V31h-2.2V22.6z"/>
									<path d="M182.3,22.6h1.8l0.1,1.1h0.1c0.7-0.7,1.6-1.3,2.7-1.3c1.8,0,2.6,1.3,2.6,3.4V31h-2.2v-5c0-1.3-0.4-1.8-1.2-1.8
										c-0.7,0-1.1,0.3-1.8,0.9V31h-2.2V22.6z"/>
									<path d="M191.4,26.8c0-2.7,1.9-4.4,3.9-4.4c2.3,0,3.5,1.7,3.5,4c0,0.4,0,0.8-0.1,1h-5.2c0.2,1.4,1.1,2.1,2.3,2.1
										c0.7,0,1.3-0.2,1.9-0.6l0.8,1.4c-0.8,0.6-1.9,0.9-2.9,0.9C193.2,31.2,191.4,29.6,191.4,26.8z M196.9,26
										c0-1.1-0.5-1.9-1.6-1.9c-0.9,0-1.7,0.6-1.8,1.9H196.9z"/>
								</g>
							</g>
							<g transform="translate(0.000000, 107.000000)">
								<path class="st3" d="M8.8,0.8h316.5c4.4,0,8,3.6,8,8v32.5c0,4.4-3.6,8-8,8H8.8c-4.4,0-8-3.6-8-8V8.8
									C0.8,4.3,4.3,0.8,8.8,0.8z"/>
								<g class="st1">
									<path d="M164.3,29.2h2.4v-7h-2v-1.4c1.1-0.2,1.9-0.5,2.6-0.9h1.6v9.3h2.1V31h-6.7V29.2z"/>
								</g>
							</g>
							<g class="st1">
								<path d="M131.5,286.7h2.1l4.4,7.8l1.4,2.8h0.1c-0.1-1.4-0.3-3-0.3-4.4v-6.2h2V300h-2.1l-4.4-7.8l-1.4-2.8h-0.1
									c0.1,1.4,0.3,2.9,0.3,4.3v6.2h-2V286.7z"/>
								<path d="M143.8,295.1c0-3.2,2.2-5.2,4.5-5.2c2.6,0,4,1.9,4,4.7c0,0.4,0,0.8-0.1,1h-6.4c0.2,1.9,1.4,3,3.1,3
									c0.9,0,1.6-0.3,2.4-0.7l0.7,1.3c-0.9,0.6-2.1,1-3.3,1C146,300.2,143.8,298.3,143.8,295.1z M150.6,294.2
									c0-1.7-0.8-2.7-2.2-2.7c-1.2,0-2.3,1-2.5,2.7H150.6z"/>
								<path d="M153.8,301.8c0-0.8,0.5-1.6,1.4-2.2v-0.1c-0.5-0.3-0.9-0.8-0.9-1.6c0-0.8,0.6-1.4,1.1-1.8V296
									c-0.7-0.5-1.3-1.5-1.3-2.6c0-2.3,1.8-3.6,3.8-3.6c0.6,0,1.1,0.1,1.4,0.3h3.5v1.5H161c0.4,0.4,0.6,1.1,0.6,1.8
									c0,2.2-1.6,3.4-3.7,3.4c-0.5,0-1-0.1-1.4-0.3c-0.3,0.3-0.5,0.6-0.5,1c0,0.6,0.4,1,1.7,1h1.8c2.3,0,3.6,0.7,3.6,2.4
									c0,1.9-2,3.5-5.2,3.5C155.5,304.4,153.8,303.6,153.8,301.8z M161.1,301.3c0-0.8-0.6-1.1-1.9-1.1h-1.5
									c-0.5,0-0.9-0.1-1.3-0.1c-0.6,0.4-0.8,0.9-0.8,1.4c0,1,1,1.5,2.6,1.5C159.9,303.1,161.1,302.2,161.1,301.3z M159.9,293.4
									c0-1.3-0.8-2.1-1.9-2.1s-1.9,0.8-1.9,2.1c0,1.3,0.8,2.1,1.9,2.1S159.9,294.7,159.9,293.4z"/>
								<path d="M164,297.4c0-2.1,1.8-3.2,5.9-3.7c0-1.2-0.4-2.2-1.9-2.2c-1,0-2,0.5-2.9,1l-0.8-1.4c1-0.6,2.4-1.3,4-1.3
									c2.5,0,3.6,1.6,3.6,4.2v6h-1.7l-0.2-1.1h-0.1c-0.9,0.8-2,1.4-3.2,1.4C165.2,300.2,164,299.1,164,297.4z M169.9,297.4V295
									c-2.9,0.4-3.9,1.1-3.9,2.2c0,1,0.7,1.4,1.5,1.4C168.4,298.6,169.1,298.2,169.9,297.4z"/>
								<path d="M175,296.8v-5h-1.4v-1.5l1.5-0.1l0.2-2.7h1.7v2.7h2.6v1.7H177v5c0,1.2,0.4,1.8,1.4,1.8c0.3,0,0.8-0.1,1.1-0.2
									l0.4,1.5c-0.6,0.2-1.2,0.4-1.9,0.4C175.7,300.2,175,298.8,175,296.8z"/>
								<path d="M181.5,287c0-0.7,0.6-1.2,1.3-1.2s1.3,0.5,1.3,1.2c0,0.7-0.6,1.2-1.3,1.2S181.5,287.7,181.5,287z M181.8,290.1h2.1
									v9.9h-2.1V290.1z"/>
								<path d="M185.6,290.1h2.1l1.7,5.3c0.3,1,0.6,2,0.9,3h0.1c0.3-1,0.6-2,0.9-3l1.7-5.3h2l-3.4,9.9h-2.4L185.6,290.1z"/>
								<path d="M195.9,295.1c0-3.2,2.2-5.2,4.5-5.2c2.6,0,4,1.9,4,4.7c0,0.4,0,0.8-0.1,1H198c0.2,1.9,1.3,3,3.1,3
									c0.9,0,1.6-0.3,2.4-0.7l0.7,1.3c-0.9,0.6-2.1,1-3.3,1C198.1,300.2,195.9,298.3,195.9,295.1z M202.7,294.2
									c0-1.7-0.8-2.7-2.2-2.7c-1.2,0-2.3,1-2.5,2.7H202.7z"/>
							</g>
							<g transform="translate(0.000000, 214.000000)">
								<path class="st3" d="M8.8,0.8h316.5c4.4,0,8,3.6,8,8v32.5c0,4.4-3.6,8-8,8H8.8c-4.4,0-8-3.6-8-8V8.8
									C0.8,4.3,4.3,0.8,8.8,0.8z"/>
								<g class="st1">
									<path d="M163.7,29.7c3-2.7,4.8-4.8,4.8-6.5c0-1.1-0.6-1.8-1.7-1.8c-0.8,0-1.5,0.5-2,1.1l-1.2-1.2c1-1.1,2-1.7,3.5-1.7
										c2.1,0,3.5,1.3,3.5,3.4c0,2-1.7,4.2-3.7,6.1c0.6-0.1,1.3-0.1,1.8-0.1h2.4V31h-7.4V29.7z"/>
								</g>
							</g>
							<g class="st1">
								<path d="M131.5,393.7h2.1l4.4,7.8l1.4,2.8h0.1c-0.1-1.4-0.3-3-0.3-4.4v-6.2h2V407h-2.1l-4.4-7.8l-1.4-2.8h-0.1
									c0.1,1.4,0.3,2.9,0.3,4.3v6.2h-2V393.7z"/>
								<path d="M143.8,402.1c0-3.2,2.2-5.2,4.5-5.2c2.6,0,4,1.9,4,4.7c0,0.4,0,0.8-0.1,1h-6.4c0.2,1.9,1.4,3,3.1,3
									c0.9,0,1.6-0.3,2.4-0.7l0.7,1.3c-0.9,0.6-2.1,1-3.3,1C146,407.2,143.8,405.3,143.8,402.1z M150.6,401.2
									c0-1.7-0.8-2.7-2.2-2.7c-1.2,0-2.3,1-2.5,2.7H150.6z"/>
								<path d="M153.8,408.8c0-0.8,0.5-1.6,1.4-2.2v-0.1c-0.5-0.3-0.9-0.8-0.9-1.6c0-0.8,0.6-1.4,1.1-1.8V403
									c-0.7-0.5-1.3-1.5-1.3-2.6c0-2.3,1.8-3.6,3.8-3.6c0.6,0,1.1,0.1,1.4,0.3h3.5v1.5H161c0.4,0.4,0.6,1.1,0.6,1.8
									c0,2.2-1.6,3.4-3.7,3.4c-0.5,0-1-0.1-1.4-0.3c-0.3,0.3-0.5,0.6-0.5,1c0,0.6,0.4,1,1.7,1h1.8c2.3,0,3.6,0.7,3.6,2.4
									c0,1.9-2,3.5-5.2,3.5C155.5,411.4,153.8,410.6,153.8,408.8z M161.1,408.3c0-0.8-0.6-1.1-1.9-1.1h-1.5
									c-0.5,0-0.9-0.1-1.3-0.1c-0.6,0.4-0.8,0.9-0.8,1.4c0,1,1,1.5,2.6,1.5C159.9,410.1,161.1,409.2,161.1,408.3z M159.9,400.4
									c0-1.3-0.8-2.1-1.9-2.1s-1.9,0.8-1.9,2.1c0,1.3,0.8,2.1,1.9,2.1S159.9,401.7,159.9,400.4z"/>
								<path d="M164,404.4c0-2.1,1.8-3.2,5.9-3.7c0-1.2-0.4-2.2-1.9-2.2c-1,0-2,0.5-2.9,1l-0.8-1.4c1-0.6,2.4-1.3,4-1.3
									c2.5,0,3.6,1.6,3.6,4.2v6h-1.7l-0.2-1.1h-0.1c-0.9,0.8-2,1.4-3.2,1.4C165.2,407.2,164,406.1,164,404.4z M169.9,404.4V402
									c-2.9,0.4-3.9,1.1-3.9,2.2c0,1,0.7,1.4,1.5,1.4C168.4,405.6,169.1,405.2,169.9,404.4z"/>
								<path d="M175,403.8v-5h-1.4v-1.5l1.5-0.1l0.2-2.7h1.7v2.7h2.6v1.7H177v5c0,1.2,0.4,1.8,1.4,1.8c0.3,0,0.8-0.1,1.1-0.2
									l0.4,1.5c-0.6,0.2-1.2,0.4-1.9,0.4C175.7,407.2,175,405.8,175,403.8z"/>
								<path d="M181.5,394c0-0.7,0.6-1.2,1.3-1.2s1.3,0.5,1.3,1.2c0,0.7-0.6,1.2-1.3,1.2S181.5,394.7,181.5,394z M181.8,397.1h2.1
									v9.9h-2.1V397.1z"/>
								<path d="M185.6,397.1h2.1l1.7,5.3c0.3,1,0.6,2,0.9,3h0.1c0.3-1,0.6-2,0.9-3l1.7-5.3h2l-3.4,9.9h-2.4L185.6,397.1z"/>
								<path d="M195.9,402.1c0-3.2,2.2-5.2,4.5-5.2c2.6,0,4,1.9,4,4.7c0,0.4,0,0.8-0.1,1H198c0.2,1.9,1.3,3,3.1,3
									c0.9,0,1.6-0.3,2.4-0.7l0.7,1.3c-0.9,0.6-2.1,1-3.3,1C198.1,407.2,195.9,405.3,195.9,402.1z M202.7,401.2
									c0-1.7-0.8-2.7-2.2-2.7c-1.2,0-2.3,1-2.5,2.7H202.7z"/>
							</g>
							<g transform="translate(0.000000, 321.000000)">
								<path class="st3" d="M8.8,0.8h316.5c4.4,0,8,3.6,8,8v32.5c0,4.4-3.6,8-8,8H8.8c-4.4,0-8-3.6-8-8V8.8
									C0.8,4.3,4.3,0.8,8.8,0.8z"/>
								<g class="st1">
									<path d="M171.5,28.1h-1.3V31h-2.1v-2.9h-4.7v-1.5l4.1-6.7h2.6v6.5h1.3V28.1z M168.1,26.4v-2.3c0-0.6,0.1-1.6,0.1-2.3h-0.1
										c-0.3,0.6-0.6,1.2-0.9,1.8l-1.7,2.8H168.1z"/>
								</g>
							</g>
							<g class="st1">
								<path d="M165.1,508.1h4.8v1.5h-4.8V508.1z"/>
							</g>
							<g transform="translate(0.000000, 428.000000)">
								<path class="st3" d="M8.8,0.8h316.5c4.4,0,8,3.6,8,8v32.5c0,4.4-3.6,8-8,8H8.8c-4.4,0-8-3.6-8-8V8.8
									C0.8,4.3,4.3,0.8,8.8,0.8z"/>
								<g class="st1">
									<path d="M163.8,28.2c0-1.4,0.9-2.3,1.9-2.9v-0.1c-0.9-0.6-1.5-1.5-1.5-2.6c0-1.8,1.4-2.9,3.3-2.9c2,0,3.2,1.2,3.2,3
										c0,1.1-0.7,2-1.4,2.5v0.1c1,0.6,1.9,1.5,1.9,3c0,1.7-1.5,3-3.7,3C165.4,31.2,163.8,30,163.8,28.2z M169.2,28.2
										c0-1.2-1-1.6-2.5-2.2c-0.6,0.5-1,1.2-1,2.1c0,1,0.8,1.7,1.9,1.7C168.5,29.7,169.2,29.1,169.2,28.2z M169,22.8
										c0-0.9-0.5-1.5-1.5-1.5c-0.8,0-1.4,0.5-1.4,1.4c0,1.1,0.9,1.6,2,2C168.7,24.1,169,23.5,169,22.8z"/>
								</g>
							</g>
							<g class="st1">
								<path d="M165.1,615.1h4.8v1.5h-4.8V615.1z"/>
							</g>
							<g transform="translate(0.000000, 535.000000)">
								<path class="st3" d="M8.8,0.8h316.5c4.4,0,8,3.6,8,8v32.5c0,4.4-3.6,8-8,8H8.8c-4.4,0-8-3.6-8-8V8.8
									C0.8,4.3,4.3,0.8,8.8,0.8z"/>
								<g class="st1">
									<path d="M159.9,29.2h2.4v-7h-2v-1.4c1.1-0.2,1.9-0.5,2.6-0.9h1.6v9.3h2.1V31h-6.7V29.2z"/>
									<path d="M168.1,29.7c3-2.7,4.8-4.8,4.8-6.5c0-1.1-0.6-1.8-1.7-1.8c-0.8,0-1.5,0.5-2,1.1l-1.2-1.2c1-1.1,2-1.7,3.5-1.7
										c2.1,0,3.5,1.3,3.5,3.4c0,2-1.7,4.2-3.7,6.1c0.6-0.1,1.3-0.1,1.8-0.1h2.4V31h-7.4V29.7z"/>
								</g>
							</g>
							<g class="st1">
								<path d="M131.5,714.7h2.1l4.4,7.8l1.4,2.8h0.1c-0.1-1.4-0.3-3-0.3-4.4v-6.2h2V728h-2.1l-4.4-7.8l-1.4-2.8h-0.1
									c0.1,1.4,0.3,2.9,0.3,4.3v6.2h-2V714.7z"/>
								<path d="M143.8,723.1c0-3.2,2.2-5.2,4.5-5.2c2.6,0,4,1.9,4,4.7c0,0.4,0,0.8-0.1,1h-6.4c0.2,1.9,1.4,3,3.1,3
									c0.9,0,1.6-0.3,2.4-0.7l0.7,1.3c-0.9,0.6-2.1,1-3.3,1C146,728.2,143.8,726.3,143.8,723.1z M150.6,722.2
									c0-1.7-0.8-2.7-2.2-2.7c-1.2,0-2.3,1-2.5,2.7H150.6z"/>
								<path d="M153.8,729.8c0-0.8,0.5-1.6,1.4-2.2v-0.1c-0.5-0.3-0.9-0.8-0.9-1.6c0-0.8,0.6-1.4,1.1-1.8V724
									c-0.7-0.5-1.3-1.5-1.3-2.6c0-2.3,1.8-3.6,3.8-3.6c0.6,0,1.1,0.1,1.4,0.3h3.5v1.5H161c0.4,0.4,0.6,1.1,0.6,1.8
									c0,2.2-1.6,3.4-3.7,3.4c-0.5,0-1-0.1-1.4-0.3c-0.3,0.3-0.5,0.6-0.5,1c0,0.6,0.4,1,1.7,1h1.8c2.3,0,3.6,0.7,3.6,2.4
									c0,1.9-2,3.5-5.2,3.5C155.5,732.4,153.8,731.6,153.8,729.8z M161.1,729.3c0-0.8-0.6-1.1-1.9-1.1h-1.5
									c-0.5,0-0.9-0.1-1.3-0.1c-0.6,0.4-0.8,0.9-0.8,1.4c0,1,1,1.5,2.6,1.5C159.9,731.1,161.1,730.2,161.1,729.3z M159.9,721.4
									c0-1.3-0.8-2.1-1.9-2.1s-1.9,0.8-1.9,2.1c0,1.3,0.8,2.1,1.9,2.1S159.9,722.7,159.9,721.4z"/>
								<path d="M164,725.4c0-2.1,1.8-3.2,5.9-3.7c0-1.2-0.4-2.2-1.9-2.2c-1,0-2,0.5-2.9,1l-0.8-1.4c1-0.6,2.4-1.3,4-1.3
									c2.5,0,3.6,1.6,3.6,4.2v6h-1.7l-0.2-1.1h-0.1c-0.9,0.8-2,1.4-3.2,1.4C165.2,728.2,164,727.1,164,725.4z M169.9,725.4V723
									c-2.9,0.4-3.9,1.1-3.9,2.2c0,1,0.7,1.4,1.5,1.4C168.4,726.6,169.1,726.2,169.9,725.4z"/>
								<path d="M175,724.8v-5h-1.4v-1.5l1.5-0.1l0.2-2.7h1.7v2.7h2.6v1.7H177v5c0,1.2,0.4,1.8,1.4,1.8c0.3,0,0.8-0.1,1.1-0.2
									l0.4,1.5c-0.6,0.2-1.2,0.4-1.9,0.4C175.7,728.2,175,726.8,175,724.8z"/>
								<path d="M181.5,715c0-0.7,0.6-1.2,1.3-1.2s1.3,0.5,1.3,1.2c0,0.7-0.6,1.2-1.3,1.2S181.5,715.7,181.5,715z M181.8,718.1h2.1
									v9.9h-2.1V718.1z"/>
								<path d="M185.6,718.1h2.1l1.7,5.3c0.3,1,0.6,2,0.9,3h0.1c0.3-1,0.6-2,0.9-3l1.7-5.3h2l-3.4,9.9h-2.4L185.6,718.1z"/>
								<path d="M195.9,723.1c0-3.2,2.2-5.2,4.5-5.2c2.6,0,4,1.9,4,4.7c0,0.4,0,0.8-0.1,1H198c0.2,1.9,1.3,3,3.1,3
									c0.9,0,1.6-0.3,2.4-0.7l0.7,1.3c-0.9,0.6-2.1,1-3.3,1C198.1,728.2,195.9,726.3,195.9,723.1z M202.7,722.2
									c0-1.7-0.8-2.7-2.2-2.7c-1.2,0-2.3,1-2.5,2.7H202.7z"/>
							</g>
							<g transform="translate(0.000000, 642.000000)">
								<path class="st3" d="M8.8,0.8h316.5c4.4,0,8,3.6,8,8v32.5c0,4.4-3.6,8-8,8H8.8c-4.4,0-8-3.6-8-8V8.8
									C0.8,4.3,4.3,0.8,8.8,0.8z"/>
								<g class="st1">
									<path d="M159.3,29.7c3-2.7,4.8-4.8,4.8-6.5c0-1.1-0.6-1.8-1.7-1.8c-0.8,0-1.5,0.5-2,1.1l-1.2-1.2c1-1.1,2-1.7,3.5-1.7
										c2.1,0,3.5,1.3,3.5,3.4c0,2-1.7,4.2-3.7,6.1c0.6-0.1,1.3-0.1,1.8-0.1h2.4V31h-7.4V29.7z"/>
									<path d="M175.9,28.1h-1.3V31h-2.1v-2.9h-4.7v-1.5l4.1-6.7h2.6v6.5h1.3V28.1z M172.5,26.4v-2.3c0-0.6,0.1-1.6,0.1-2.3h-0.1
										c-0.3,0.6-0.6,1.2-0.9,1.8l-1.7,2.8H172.5z"/>
								</g>
							</g>
						</g>
					</g>
					<g class="st1">
						<path class="st4" d="M142.6,14.2H139l-0.8,2.8h-2.2l3.6-11.1h2.6l3.6,11.1h-2.3L142.6,14.2z M142.1,12.4l-0.3-1.2
							c-0.3-1.2-0.6-2.4-1-3.6h-0.1c-0.3,1.2-0.6,2.5-0.9,3.6l-0.3,1.2H142.1z"/>
						<path class="st4" d="M146.8,14.6V5h2.2v9.7c0,0.5,0.2,0.7,0.4,0.7c0.1,0,0.1,0,0.3,0L150,17c-0.3,0.1-0.6,0.2-1.1,0.2
							C147.3,17.2,146.8,16.2,146.8,14.6z"/>
						<path class="st4" d="M151.5,14.6V5h2.2v9.7c0,0.5,0.2,0.7,0.4,0.7c0.1,0,0.1,0,0.3,0l0.3,1.6c-0.3,0.1-0.6,0.2-1.1,0.2
							C152.1,17.2,151.5,16.2,151.5,14.6z"/>
						<path class="st4" d="M159.7,12.3c0-3,0.8-5.4,2.2-7.8l1.4,0.6c-1.3,2.2-1.8,4.7-1.8,7.2c0,2.5,0.6,5,1.8,7.2L162,20
							C160.6,17.7,159.7,15.3,159.7,12.3z"/>
						<path class="st4" d="M165.3,8.6h1.8l0.1,1.1h0.1c0.7-0.7,1.6-1.3,2.7-1.3c1.8,0,2.6,1.3,2.6,3.4V17h-2.2v-5
							c0-1.3-0.4-1.8-1.2-1.8c-0.7,0-1.1,0.3-1.8,0.9V17h-2.2V8.6z"/>
						<path class="st4" d="M174.3,8.7h7.7v1.6h-7.7V8.7z M174.3,12.5h7.7v1.6h-7.7V12.5z"/>
						<path class="st4" d="M184.5,14.6c0.4,0.4,1.1,0.8,1.8,0.8c1.2,0,2.3-0.9,2.4-3.7c-0.6,0.8-1.5,1.2-2.3,1.2
							c-1.8,0-3.2-1.1-3.2-3.5c0-2.3,1.6-3.7,3.5-3.7c2.1,0,4,1.7,4,5.5c0,4.2-2.1,6-4.3,6c-1.4,0-2.4-0.6-3-1.3L184.5,14.6z
							 M188.6,10.1c-0.2-2-1-2.8-1.9-2.8c-0.8,0-1.5,0.7-1.5,2c0,1.3,0.6,1.9,1.6,1.9C187.4,11.3,188.1,11,188.6,10.1z"/>
						<path class="st4" d="M192.2,19.4c1.3-2.2,1.8-4.7,1.8-7.2c0-2.4-0.6-5-1.8-7.2l1.4-0.6c1.4,2.3,2.2,4.8,2.2,7.8
							c0,3-0.8,5.4-2.2,7.8L192.2,19.4z"/>
					</g>
				</g>
				<path id="divider" class="st5" d="M0,987.5h334"/>
			</g>
			<g class="st1">
				<path d="M15.5,19.3l1.2-1.4c1,1,2.3,1.6,3.5,1.6c1.6,0,2.5-0.8,2.5-1.9c0-1.2-0.9-1.6-2.1-2.1l-1.8-0.8
					c-1.3-0.5-2.7-1.5-2.7-3.5c0-2.1,1.8-3.7,4.4-3.7c1.5,0,3,0.6,4,1.7l-1.1,1.3c-0.8-0.7-1.7-1.2-2.9-1.2c-1.4,0-2.2,0.6-2.2,1.7
					c0,1.1,1.1,1.6,2.1,2l1.8,0.8c1.6,0.7,2.7,1.6,2.7,3.6c0,2.1-1.8,3.9-4.7,3.9C18.4,21.2,16.7,20.5,15.5,19.3z"/>
				<path d="M26.5,16.1c0-3.2,2.2-5.2,4.5-5.2c2.6,0,4,1.9,4,4.7c0,0.4,0,0.8-0.1,1h-6.4c0.2,1.9,1.4,3,3.1,3c0.9,0,1.6-0.3,2.4-0.7
					l0.7,1.3c-0.9,0.6-2.1,1-3.3,1C28.7,21.2,26.5,19.3,26.5,16.1z M33.3,15.2c0-1.7-0.8-2.7-2.2-2.7c-1.2,0-2.3,1-2.5,2.7H33.3z"/>
				<path d="M37.4,11.1h1.7l0.2,1.8h0.1c0.7-1.3,1.7-2,2.8-2c0.5,0,0.8,0.1,1.1,0.2l-0.4,1.8c-0.3-0.1-0.6-0.2-1-0.2
					c-0.8,0-1.8,0.6-2.4,2.1V21h-2.1V11.1z"/>
				<path d="M44.6,17.3v-6.2h2.1v6c0,1.7,0.5,2.4,1.7,2.4c0.9,0,1.5-0.4,2.4-1.5v-6.9h2.1V21h-1.7L51,19.5h-0.1
					c-0.9,1-1.9,1.7-3.2,1.7C45.6,21.2,44.6,19.8,44.6,17.3z"/>
				<path d="M55.9,11.1h1.7l0.2,1.4h0.1c0.8-0.9,1.8-1.6,3.1-1.6c1.5,0,2.3,0.7,2.7,1.8c1-1,2-1.8,3.2-1.8c2.1,0,3,1.4,3,3.9V21
					h-2.1v-6c0-1.7-0.5-2.4-1.7-2.4c-0.7,0-1.4,0.5-2.2,1.3v7h-2.1v-6c0-1.7-0.5-2.4-1.7-2.4c-0.7,0-1.4,0.5-2.2,1.3v7h-2.1V11.1z"
					/>
				<path d="M77.1,7.7h2.1v5.4h5.7V7.7H87V21h-2.1v-6h-5.7v6h-2.1V7.7z"/>
				<path d="M89.7,14.4c0-4.3,2.7-6.9,6.2-6.9c1.9,0,3.1,0.8,3.9,1.7l-1.1,1.3C98,9.8,97.2,9.3,96,9.3c-2.5,0-4.1,1.9-4.1,5
					c0,3.2,1.5,5.1,4.2,5.1c0.8,0,1.6-0.2,2.1-0.6v-3.1h-2.6v-1.7h4.5v5.7c-0.9,0.9-2.4,1.5-4.2,1.5C92.3,21.2,89.7,18.7,89.7,14.4z
					"/>
				<path d="M103.1,7.7h7.9v1.7h-5.8v4.1h4.9v1.7h-4.9V21h-2.1V7.7z"/>
				<path d="M117.1,11.1h1.7l0.2,1.1h0.1c0.9-0.7,1.9-1.3,3-1.3c2.5,0,3.9,2,3.9,5c0,3.4-2,5.3-4.3,5.3c-0.9,0-1.8-0.4-2.6-1.1
					l0.1,1.7V25h-2.1V11.1z M123.8,15.9c0-2.1-0.7-3.3-2.3-3.3c-0.8,0-1.5,0.4-2.4,1.2v4.8c0.8,0.7,1.5,0.9,2.2,0.9
					C122.8,19.5,123.8,18.2,123.8,15.9z"/>
				<path d="M128.4,11.1h1.7l0.2,1.8h0.1c0.7-1.3,1.7-2,2.8-2c0.5,0,0.8,0.1,1.1,0.2l-0.4,1.8c-0.3-0.1-0.6-0.2-1-0.2
					c-0.8,0-1.8,0.6-2.4,2.1V21h-2.1V11.1z"/>
				<path d="M134.9,16.1c0-3.3,2.2-5.2,4.7-5.2s4.7,1.9,4.7,5.2c0,3.3-2.2,5.2-4.7,5.2S134.9,19.3,134.9,16.1z M142.1,16.1
					c0-2.1-1-3.5-2.5-3.5c-1.5,0-2.5,1.4-2.5,3.5c0,2.1,1,3.5,2.5,3.5C141.1,19.5,142.1,18.2,142.1,16.1z"/>
				<path d="M146.6,17.8v-5h-1.4v-1.5l1.5-0.1l0.2-2.7h1.7v2.7h2.6v1.7h-2.6v5c0,1.2,0.4,1.8,1.4,1.8c0.3,0,0.8-0.1,1.1-0.2l0.4,1.5
					c-0.6,0.2-1.2,0.4-1.9,0.4C147.3,21.2,146.6,19.8,146.6,17.8z"/>
				<path d="M152.4,16.1c0-3.2,2.2-5.2,4.5-5.2c2.6,0,4,1.9,4,4.7c0,0.4,0,0.8-0.1,1h-6.4c0.2,1.9,1.4,3,3.1,3
					c0.9,0,1.6-0.3,2.4-0.7l0.7,1.3c-0.9,0.6-2.1,1-3.3,1C154.5,21.2,152.4,19.3,152.4,16.1z M159.1,15.2c0-1.7-0.8-2.7-2.2-2.7
					c-1.2,0-2.3,1-2.5,2.7H159.1z"/>
				<path d="M163,8c0-0.7,0.6-1.2,1.3-1.2s1.3,0.5,1.3,1.2c0,0.7-0.6,1.2-1.3,1.2S163,8.7,163,8z M163.2,11.1h2.1V21h-2.1V11.1z"/>
				<path d="M168.4,11.1h1.7l0.2,1.4h0.1c0.9-0.9,1.9-1.6,3.3-1.6c2.1,0,3,1.4,3,3.9V21h-2.1v-6c0-1.7-0.5-2.4-1.7-2.4
					c-0.9,0-1.5,0.5-2.4,1.3v7h-2.1V11.1z"/>
				<path d="M183.1,18.4c0-2.1,1.8-3.2,5.9-3.7c0-1.2-0.4-2.2-1.9-2.2c-1,0-2,0.5-2.9,1l-0.8-1.4c1-0.6,2.4-1.3,4-1.3
					c2.5,0,3.6,1.6,3.6,4.2v6h-1.7l-0.2-1.1h-0.1c-0.9,0.8-2,1.4-3.2,1.4C184.3,21.2,183.1,20.1,183.1,18.4z M189,18.4V16
					c-2.9,0.4-3.9,1.1-3.9,2.2c0,1,0.7,1.4,1.5,1.4C187.5,19.6,188.2,19.2,189,18.4z"/>
				<path d="M194,11.1h1.7l0.2,1.4h0.1c0.9-0.9,1.9-1.6,3.3-1.6c2.1,0,3,1.4,3,3.9V21h-2.1v-6c0-1.7-0.5-2.4-1.7-2.4
					c-0.9,0-1.5,0.5-2.4,1.3v7H194V11.1z"/>
				<path d="M204.6,16.1c0-3.2,2-5.2,4.2-5.2c1.1,0,1.9,0.4,2.7,1.1l-0.1-1.6V6.6h2.1V21h-1.7l-0.2-1.1h-0.1
					c-0.7,0.8-1.8,1.4-2.9,1.4C206.2,21.2,204.6,19.3,204.6,16.1z M211.4,18.3v-4.8c-0.7-0.7-1.4-0.9-2.2-0.9
					c-1.4,0-2.5,1.3-2.5,3.5c0,2.3,0.9,3.5,2.4,3.5C210,19.5,210.7,19.1,211.4,18.3z"/>
				<path d="M220.1,18.4c0-2.1,1.8-3.2,5.9-3.7c0-1.2-0.4-2.2-1.9-2.2c-1,0-2,0.5-2.9,1l-0.8-1.4c1-0.6,2.4-1.3,4-1.3
					c2.5,0,3.6,1.6,3.6,4.2v6h-1.7l-0.2-1.1h-0.1c-0.9,0.8-2,1.4-3.2,1.4C221.3,21.2,220.1,20.1,220.1,18.4z M226,18.4V16
					c-2.9,0.4-3.9,1.1-3.9,2.2c0,1,0.7,1.4,1.5,1.4C224.5,19.6,225.2,19.2,226,18.4z"/>
				<path d="M231,11.1h1.7l0.2,1.4h0.1c0.9-0.9,1.9-1.6,3.3-1.6c2.1,0,3,1.4,3,3.9V21h-2.1v-6c0-1.7-0.5-2.4-1.7-2.4
					c-0.9,0-1.5,0.5-2.4,1.3v7H231V11.1z"/>
				<path d="M242.6,17.8v-5h-1.4v-1.5l1.5-0.1l0.2-2.7h1.7v2.7h2.6v1.7h-2.6v5c0,1.2,0.4,1.8,1.4,1.8c0.3,0,0.8-0.1,1.1-0.2l0.4,1.5
					c-0.6,0.2-1.2,0.4-1.9,0.4C243.3,21.2,242.6,19.8,242.6,17.8z"/>
				<path d="M249.1,8c0-0.7,0.6-1.2,1.3-1.2c0.8,0,1.3,0.5,1.3,1.2c0,0.7-0.6,1.2-1.3,1.2C249.6,9.2,249.1,8.7,249.1,8z M249.4,11.1
					h2.1V21h-2.1V11.1z"/>
				<path d="M253.8,15.1h4.8v1.5h-4.8V15.1z"/>
				<path d="M261,6.6h2.1v3.8l-0.1,2c0.9-0.8,1.9-1.6,3.2-1.6c2.1,0,3,1.4,3,3.9V21h-2.1v-6c0-1.7-0.5-2.4-1.7-2.4
					c-0.9,0-1.5,0.5-2.4,1.3v7H261V6.6z"/>
				<path d="M272,17.3v-6.2h2.1v6c0,1.7,0.5,2.4,1.7,2.4c0.9,0,1.5-0.4,2.4-1.5v-6.9h2.1V21h-1.7l-0.2-1.5h-0.1
					c-0.9,1-1.9,1.7-3.2,1.7C272.9,21.2,272,19.8,272,17.3z"/>
				<path d="M283.3,11.1h1.7l0.2,1.4h0.1c0.8-0.9,1.8-1.6,3.1-1.6c1.5,0,2.3,0.7,2.7,1.8c1-1,2-1.8,3.2-1.8c2.1,0,3,1.4,3,3.9V21
					h-2.1v-6c0-1.7-0.5-2.4-1.7-2.4c-0.7,0-1.4,0.5-2.2,1.3v7h-2.1v-6c0-1.7-0.5-2.4-1.7-2.4c-0.7,0-1.4,0.5-2.2,1.3v7h-2.1V11.1z"
					/>
				<path d="M299.7,18.4c0-2.1,1.8-3.2,5.9-3.7c0-1.2-0.4-2.2-1.9-2.2c-1,0-2,0.5-2.9,1l-0.8-1.4c1-0.6,2.4-1.3,4-1.3
					c2.5,0,3.6,1.6,3.6,4.2v6H306l-0.2-1.1h-0.1c-0.9,0.8-2,1.4-3.2,1.4C300.9,21.2,299.7,20.1,299.7,18.4z M305.6,18.4V16
					c-2.9,0.4-3.9,1.1-3.9,2.2c0,1,0.7,1.4,1.5,1.4C304.1,19.6,304.8,19.2,305.6,18.4z"/>
				<path d="M310.6,11.1h1.7l0.2,1.4h0.1c0.9-0.9,1.9-1.6,3.3-1.6c2.1,0,3,1.4,3,3.9V21h-2.1v-6c0-1.7-0.5-2.4-1.7-2.4
					c-0.9,0-1.5,0.5-2.4,1.3v7h-2.1V11.1z"/>
			</g>
			<g>
			</g>
			<g class="st1">
				<path d="M66.7,34.7h2.1v5.4h5.7v-5.4h2.1V48h-2.1v-6h-5.7v6h-2.1V34.7z"/>
				<path d="M79.3,41.4c0-4.3,2.7-6.9,6.2-6.9c1.9,0,3.1,0.8,3.9,1.7l-1.1,1.3c-0.6-0.7-1.5-1.2-2.7-1.2c-2.5,0-4.1,1.9-4.1,5
					c0,3.2,1.5,5.1,4.2,5.1c0.8,0,1.6-0.2,2.1-0.6v-3.1h-2.6v-1.7h4.5v5.7c-0.9,0.9-2.4,1.5-4.2,1.5C81.9,48.2,79.3,45.7,79.3,41.4z
					"/>
				<path d="M92.7,34.7h7.9v1.7h-5.8v4.1h4.9v1.7h-4.9V48h-2.1V34.7z"/>
				<path d="M106.1,45.4c0-2.1,1.8-3.2,5.9-3.7c0-1.2-0.4-2.2-1.9-2.2c-1,0-2,0.5-2.9,1l-0.8-1.4c1-0.6,2.4-1.3,4-1.3
					c2.5,0,3.6,1.6,3.6,4.2v6h-1.7l-0.2-1.1h-0.1c-0.9,0.8-2,1.4-3.2,1.4C107.3,48.2,106.1,47.1,106.1,45.4z M112.1,45.4V43
					c-2.9,0.4-3.9,1.1-3.9,2.2c0,1,0.7,1.4,1.5,1.4C110.5,46.6,111.3,46.2,112.1,45.4z"/>
				<path d="M117.1,38.1h1.7l0.2,1.4h0.1c0.9-0.9,1.9-1.6,3.3-1.6c2.1,0,3,1.4,3,3.9V48h-2.1v-6c0-1.7-0.5-2.4-1.7-2.4
					c-0.9,0-1.5,0.5-2.4,1.3v7h-2.1V38.1z"/>
				<path d="M128.6,44.8v-5h-1.4v-1.5l1.5-0.1l0.2-2.7h1.7v2.7h2.6v1.7h-2.6v5c0,1.2,0.4,1.8,1.4,1.8c0.3,0,0.8-0.1,1.1-0.2l0.4,1.5
					c-0.6,0.2-1.2,0.4-1.9,0.4C129.4,48.2,128.6,46.8,128.6,44.8z"/>
				<path d="M135.1,35c0-0.7,0.6-1.2,1.3-1.2s1.3,0.5,1.3,1.2c0,0.7-0.6,1.2-1.3,1.2S135.1,35.7,135.1,35z M135.4,38.1h2.1V48h-2.1
					V38.1z"/>
				<path d="M142.5,47L142.5,47l-0.3,1h-1.6V33.6h2.1v3.8l-0.1,1.7c0.8-0.7,1.9-1.3,3-1.3c2.5,0,3.9,2,3.9,5c0,3.4-2,5.3-4.3,5.3
					C144.3,48.2,143.3,47.8,142.5,47z M147.3,42.9c0-2.1-0.7-3.3-2.3-3.3c-0.8,0-1.5,0.4-2.4,1.2v4.8c0.8,0.7,1.5,0.9,2.2,0.9
					C146.2,46.5,147.3,45.2,147.3,42.9z"/>
				<path d="M151.2,43.1c0-3.3,2.2-5.2,4.7-5.2s4.7,1.9,4.7,5.2c0,3.3-2.2,5.2-4.7,5.2S151.2,46.3,151.2,43.1z M158.4,43.1
					c0-2.1-1-3.5-2.5-3.5c-1.5,0-2.5,1.4-2.5,3.5c0,2.1,1,3.5,2.5,3.5C157.4,46.5,158.4,45.2,158.4,43.1z"/>
				<path d="M162.3,43.1c0-3.2,2-5.2,4.2-5.2c1.1,0,1.9,0.4,2.7,1.1l-0.1-1.6v-3.7h2.1V48h-1.7l-0.2-1.1h-0.1
					c-0.7,0.8-1.8,1.4-2.9,1.4C163.9,48.2,162.3,46.3,162.3,43.1z M169.1,45.3v-4.8c-0.7-0.7-1.4-0.9-2.2-0.9
					c-1.4,0-2.5,1.3-2.5,3.5c0,2.3,0.9,3.5,2.4,3.5C167.7,46.5,168.4,46.1,169.1,45.3z"/>
				<path d="M178.7,48.6c-0.8,2.1-1.8,3.5-3.9,3.5c-0.5,0-0.9-0.1-1.2-0.2l0.4-1.6c0.2,0.1,0.5,0.1,0.7,0.1c1.1,0,1.7-0.8,2.1-1.9
					l0.2-0.7l-3.9-9.8h2.1l1.8,5.1c0.3,0.9,0.6,1.9,0.9,2.8h0.1l0.8-2.8l1.6-5.1h2L178.7,48.6z"/>
				<path d="M187.9,35c0-0.7,0.6-1.2,1.3-1.2c0.8,0,1.3,0.5,1.3,1.2c0,0.7-0.6,1.2-1.3,1.2C188.4,36.2,187.9,35.7,187.9,35z
					 M188.1,38.1h2.1V48h-2.1V38.1z"/>
				<path d="M193.3,38.1h1.7l0.2,1.4h0.1c0.9-0.9,1.9-1.6,3.3-1.6c2.1,0,3,1.4,3,3.9V48h-2.1v-6c0-1.7-0.5-2.4-1.7-2.4
					c-0.9,0-1.5,0.5-2.4,1.3v7h-2.1V38.1z"/>
				<path d="M208.6,38.1h1.7l0.2,1.1h0.1c0.9-0.7,1.9-1.3,3-1.3c2.5,0,3.9,2,3.9,5c0,3.4-2,5.3-4.3,5.3c-0.9,0-1.8-0.4-2.6-1.1
					l0.1,1.7V52h-2.1V38.1z M215.3,42.9c0-2.1-0.7-3.3-2.3-3.3c-0.8,0-1.5,0.4-2.4,1.2v4.8c0.8,0.7,1.5,0.9,2.2,0.9
					C214.2,46.5,215.3,45.2,215.3,42.9z"/>
				<path d="M219.9,45.7v-12h2.1v12.1c0,0.6,0.3,0.8,0.5,0.8c0.1,0,0.2,0,0.3,0l0.3,1.6c-0.3,0.1-0.6,0.2-1.1,0.2
					C220.5,48.2,219.9,47.3,219.9,45.7z"/>
				<path d="M224.7,45.4c0-2.1,1.8-3.2,5.9-3.7c0-1.2-0.4-2.2-1.9-2.2c-1,0-2,0.5-2.9,1l-0.8-1.4c1-0.6,2.4-1.3,4-1.3
					c2.5,0,3.6,1.6,3.6,4.2v6H231l-0.2-1.1h-0.1c-0.9,0.8-2,1.4-3.2,1.4C225.9,48.2,224.7,47.1,224.7,45.4z M230.6,45.4V43
					c-2.9,0.4-3.9,1.1-3.9,2.2c0,1,0.7,1.4,1.5,1.4C229.1,46.6,229.8,46.2,230.6,45.4z"/>
				<path d="M234.6,46.9l1-1.3c0.9,0.7,1.7,1.1,2.8,1.1c1.2,0,1.7-0.6,1.7-1.3c0-0.9-1.1-1.3-2.2-1.7c-1.3-0.5-2.8-1.2-2.8-2.9
					c0-1.7,1.3-2.9,3.5-2.9c1.3,0,2.4,0.5,3.2,1.2l-1,1.3c-0.7-0.5-1.4-0.9-2.2-0.9c-1.1,0-1.6,0.5-1.6,1.2c0,0.8,1,1.2,2.1,1.6
					c1.4,0.5,2.9,1.1,2.9,3c0,1.7-1.3,3-3.8,3C237,48.2,235.6,47.7,234.6,46.9z"/>
				<path d="M244.3,38.1h1.7l0.2,1.4h0.1c0.8-0.9,1.8-1.6,3.1-1.6c1.5,0,2.3,0.7,2.7,1.8c1-1,2-1.8,3.2-1.8c2.1,0,3,1.4,3,3.9V48
					h-2.1v-6c0-1.7-0.5-2.4-1.7-2.4c-0.7,0-1.4,0.5-2.2,1.3v7h-2.1v-6c0-1.7-0.5-2.4-1.7-2.4c-0.7,0-1.4,0.5-2.2,1.3v7h-2.1V38.1z"
					/>
				<path d="M260.7,45.4c0-2.1,1.8-3.2,5.9-3.7c0-1.2-0.4-2.2-1.9-2.2c-1,0-2,0.5-2.9,1l-0.8-1.4c1-0.6,2.4-1.3,4-1.3
					c2.5,0,3.6,1.6,3.6,4.2v6H267l-0.2-1.1h-0.1c-0.9,0.8-2,1.4-3.2,1.4C261.9,48.2,260.7,47.1,260.7,45.4z M266.6,45.4V43
					c-2.9,0.4-3.9,1.1-3.9,2.2c0,1,0.7,1.4,1.5,1.4C265.1,46.6,265.8,46.2,266.6,45.4z"/>
			</g>
		</g>
	</g>
</g>
</svg>
