<?xml version="1.0" encoding="utf-8"?>
<!-- Generator: Adobe Illustrator 23.0.1, SVG Export Plug-In . SVG Version: 6.00 Build 0)  -->
<svg version="1.1" id="Layer_1" xmlns="http://www.w3.org/2000/svg" xmlns:xlink="http://www.w3.org/1999/xlink" x="0px" y="0px"
	 viewBox="0 0 829 538" style="enable-background:new 0 0 829 538;" xml:space="preserve">
<style type="text/css">
	.st0{enable-background:new    ;}
	.st1{fill:none;stroke:#979797;stroke-linecap:square;}
	.st2{fill-rule:evenodd;clip-rule:evenodd;fill:#EDCF74;}
	.st3{fill:none;stroke:#EDCF74;stroke-linecap:square;}
	.st4{fill-rule:evenodd;clip-rule:evenodd;fill:#B54142;}
	.st5{fill:none;stroke:#B54142;stroke-linecap:square;}
</style>
<title>그래프1</title>
<desc>Created with Sketch.</desc>
<g id="Page-1">
	<g transform="translate(-286.000000, -2847.000000)">
		<g id="그래프1" transform="translate(287.000000, 2841.000000)">
			<g id="table" transform="translate(0.000000, 74.000000)">
				<g>
					<g class="st0">
						<path d="M5.7,12.5H2.6L1.9,15h-1.9L3,5.4h2.3L8.4,15h-2L5.7,12.5z M5.3,11L5,10C4.7,9,4.4,7.9,4.1,6.8H4.1
							C3.8,7.9,3.6,9,3.3,10L3,11H5.3z"/>
						<path d="M9.4,13V4.6h1.9V13c0,0.4,0.2,0.6,0.4,0.6c0.1,0,0.1,0,0.3,0l0.2,1.4c-0.2,0.1-0.5,0.2-1,0.2
							C9.8,15.2,9.4,14.3,9.4,13z"/>
						<path d="M13.5,13V4.6h1.9V13c0,0.4,0.2,0.6,0.4,0.6c0.1,0,0.1,0,0.3,0l0.2,1.4c-0.2,0.1-0.5,0.2-1,0.2
							C13.9,15.2,13.5,14.3,13.5,13z"/>
						<path d="M20.5,7.7h1.6l0.1,0.8h0.1c0.6-0.5,1.4-0.9,2.1-0.9c1.8,0,2.9,1.5,2.9,3.7c0,2.5-1.5,3.9-3.1,3.9
							c-0.6,0-1.2-0.3-1.8-0.8l0.1,1.2v2.2h-1.9V7.7z M25.3,11.3c0-1.4-0.4-2.2-1.4-2.2c-0.5,0-0.9,0.2-1.4,0.8v3.2
							c0.5,0.4,0.9,0.5,1.3,0.5C24.6,13.6,25.3,12.9,25.3,11.3z"/>
						<path d="M28.3,13c0-1.6,1.3-2.4,4.2-2.7c0-0.7-0.3-1.3-1.2-1.3c-0.7,0-1.3,0.3-2,0.7l-0.7-1.3c0.9-0.5,1.9-1,3-1
							c1.8,0,2.8,1.1,2.8,3.2V15h-1.6l-0.1-0.8h0c-0.6,0.5-1.4,1-2.2,1C29.2,15.2,28.3,14.3,28.3,13z M32.5,13v-1.5
							c-1.8,0.2-2.4,0.7-2.4,1.4c0,0.6,0.4,0.8,1,0.8C31.7,13.7,32.1,13.4,32.5,13z"/>
						<path d="M36.4,12.5V9.2h-1V7.8l1.1-0.1l0.2-2h1.6v2h1.8v1.5h-1.8v3.2c0,0.8,0.3,1.2,1,1.2c0.2,0,0.5-0.1,0.7-0.2l0.3,1.4
							c-0.4,0.1-0.9,0.3-1.5,0.3C37.1,15.2,36.4,14.1,36.4,12.5z"/>
						<path d="M41.4,5.5c0-0.6,0.5-1,1.1-1c0.6,0,1.1,0.4,1.1,1c0,0.6-0.5,1-1.1,1C41.9,6.5,41.4,6.1,41.4,5.5z M41.6,7.7h1.9V15
							h-1.9V7.7z"/>
						<path d="M45.1,11.4c0-2.4,1.7-3.8,3.4-3.8c2,0,3,1.5,3,3.5c0,0.4,0,0.7-0.1,0.9h-4.5c0.2,1.2,0.9,1.8,2,1.8
							c0.6,0,1.1-0.2,1.6-0.5l0.6,1.2c-0.7,0.5-1.6,0.8-2.5,0.8C46.7,15.2,45.1,13.8,45.1,11.4z M49.9,10.6c0-1-0.4-1.6-1.4-1.6
							c-0.8,0-1.4,0.5-1.6,1.6H49.9z"/>
						<path d="M53.1,7.7h1.6l0.1,1h0.1c0.6-0.6,1.4-1.1,2.4-1.1c1.6,0,2.2,1.1,2.2,2.9V15h-1.9v-4.3c0-1.1-0.3-1.5-1-1.5
							c-0.6,0-1,0.3-1.5,0.8v5h-1.9V7.7z"/>
						<path d="M61.7,12.5V9.2h-1V7.8l1.1-0.1l0.2-2h1.6v2h1.8v1.5h-1.8v3.2c0,0.8,0.3,1.2,1,1.2c0.2,0,0.5-0.1,0.7-0.2l0.3,1.4
							c-0.4,0.1-0.9,0.3-1.5,0.3C62.4,15.2,61.7,14.1,61.7,12.5z"/>
						<path d="M66,14.2l0.9-1.2c0.6,0.5,1.3,0.8,2,0.8c0.7,0,1.1-0.3,1.1-0.8c0-0.5-0.8-0.8-1.5-1.1c-0.9-0.4-2-0.9-2-2.1
							c0-1.3,1.1-2.2,2.7-2.2c1.1,0,1.9,0.4,2.5,0.9l-0.9,1.2c-0.5-0.4-1-0.6-1.6-0.6c-0.6,0-1,0.3-1,0.7c0,0.5,0.7,0.7,1.5,1
							c1,0.4,2,0.8,2,2.2c0,1.3-1,2.3-2.9,2.3C67.8,15.2,66.8,14.8,66,14.2z"/>
					</g>
					<g class="st0">
						<path d="M215,412.4h2.1l1.6,4.5c0.2,0.6,0.4,1.2,0.6,1.9h0.1c0.2-0.6,0.4-1.3,0.6-1.9l1.6-4.5h2.1v9.6H222v-4
							c0-0.9,0.1-2.2,0.2-3.2h-0.1l-0.8,2.3l-1.5,4h-1.1l-1.5-4l-0.8-2.3h-0.1c0.1,0.9,0.2,2.2,0.2,3.2v4H215V412.4z"/>
						<path d="M225.5,418.4c0-2.4,1.7-3.8,3.5-3.8c1.8,0,3.5,1.4,3.5,3.8c0,2.4-1.7,3.8-3.5,3.8
							C227.2,422.2,225.5,420.8,225.5,418.4z M230.5,418.4c0-1.4-0.6-2.3-1.5-2.3c-1,0-1.5,0.9-1.5,2.3c0,1.4,0.6,2.2,1.5,2.2
							C230,420.6,230.5,419.7,230.5,418.4z"/>
						<path d="M234.1,414.7h1.6l0.1,1h0.1c0.6-0.6,1.4-1.1,2.4-1.1c1.6,0,2.2,1.1,2.2,2.9v4.5h-1.9v-4.3c0-1.1-0.3-1.5-1-1.5
							c-0.6,0-1,0.3-1.5,0.8v5h-1.9V414.7z"/>
						<path d="M242.7,419.5v-3.2h-1v-1.4l1.1-0.1l0.2-2h1.6v2h1.8v1.5h-1.8v3.2c0,0.8,0.3,1.2,1,1.2c0.2,0,0.5-0.1,0.7-0.2l0.3,1.4
							c-0.4,0.1-0.9,0.3-1.5,0.3C243.4,422.2,242.7,421.1,242.7,419.5z"/>
						<path d="M247.9,411.6h1.9v2.6l-0.1,1.4c0.6-0.5,1.3-1.1,2.3-1.1c1.6,0,2.2,1.1,2.2,2.9v4.5h-1.9v-4.3c0-1.1-0.3-1.5-1-1.5
							c-0.6,0-1,0.3-1.5,0.8v5h-1.9V411.6z"/>
						<path d="M255.5,421.2l0.9-1.2c0.6,0.5,1.3,0.8,2,0.8c0.7,0,1.1-0.3,1.1-0.8c0-0.5-0.8-0.8-1.5-1.1c-0.9-0.4-2-0.9-2-2.1
							c0-1.3,1.1-2.2,2.7-2.2c1.1,0,1.9,0.4,2.5,0.9l-0.9,1.2c-0.5-0.4-1-0.6-1.6-0.6c-0.6,0-1,0.3-1,0.7c0,0.5,0.7,0.7,1.5,1
							c1,0.4,2,0.8,2,2.2c0,1.3-1,2.3-2.9,2.3C257.3,422.2,256.2,421.8,255.5,421.2z"/>
						<path d="M265.2,420c0-1.6,1.3-2.4,4.2-2.7c0-0.7-0.3-1.3-1.2-1.3c-0.7,0-1.3,0.3-2,0.7l-0.7-1.3c0.9-0.5,1.9-1,3-1
							c1.8,0,2.8,1.1,2.8,3.2v4.3h-1.6l-0.1-0.8h0c-0.6,0.5-1.4,1-2.2,1C266.1,422.2,265.2,421.3,265.2,420z M269.4,420v-1.5
							c-1.8,0.2-2.4,0.7-2.4,1.4c0,0.6,0.4,0.8,1,0.8C268.5,420.7,268.9,420.4,269.4,420z"/>
						<path d="M277.2,413.1c-0.2-0.1-0.5-0.2-0.8-0.2c-0.6,0-0.9,0.3-0.9,1.1v0.6h1.4v1.5h-1.4v5.8h-1.9v-5.8h-1v-1.4l1-0.1v-0.6
							c0-1.5,0.7-2.7,2.5-2.7c0.6,0,1.1,0.1,1.4,0.3L277.2,413.1z"/>
						<path d="M278.4,419.5v-3.2h-1v-1.4l1.1-0.1l0.2-2h1.6v2h1.8v1.5h-1.8v3.2c0,0.8,0.3,1.2,1,1.2c0.2,0,0.5-0.1,0.7-0.2l0.3,1.4
							c-0.4,0.1-0.9,0.3-1.5,0.3C279,422.2,278.4,421.1,278.4,419.5z"/>
						<path d="M282.9,418.4c0-2.4,1.7-3.8,3.4-3.8c2,0,3,1.5,3,3.5c0,0.4,0,0.7-0.1,0.9h-4.5c0.2,1.2,0.9,1.8,2,1.8
							c0.6,0,1.1-0.2,1.6-0.5l0.6,1.2c-0.7,0.5-1.6,0.8-2.5,0.8C284.4,422.2,282.9,420.8,282.9,418.4z M287.7,417.6
							c0-1-0.4-1.6-1.4-1.6c-0.8,0-1.4,0.5-1.6,1.6H287.7z"/>
						<path d="M290.9,414.7h1.6l0.1,1.3h0.1c0.5-0.9,1.3-1.5,2.1-1.5c0.4,0,0.6,0.1,0.9,0.2l-0.3,1.7c-0.2-0.1-0.5-0.1-0.8-0.1
							c-0.6,0-1.3,0.4-1.7,1.4v4.3h-1.9V414.7z"/>
						<path d="M299.8,414.1c0-1.5,0.7-2.7,2.5-2.7c0.6,0,1.1,0.1,1.4,0.3l-0.4,1.4c-0.2-0.1-0.5-0.2-0.8-0.2c-0.6,0-0.9,0.3-0.9,1.1
							v0.6h1.4v1.5h-1.4v5.8h-1.9v-5.8h-1v-1.4l1-0.1V414.1z M304.4,412.5c0-0.6,0.5-1,1.1-1c0.7,0,1.2,0.4,1.2,1c0,0.6-0.5,1-1.2,1
							C304.9,413.5,304.4,413.1,304.4,412.5z M304.6,414.7h1.9v7.3h-1.9V414.7z"/>
						<path d="M308.5,414.7h1.6l0.1,1.3h0.1c0.5-0.9,1.3-1.5,2.1-1.5c0.4,0,0.6,0.1,0.9,0.2l-0.3,1.7c-0.2-0.1-0.5-0.1-0.8-0.1
							c-0.6,0-1.3,0.4-1.7,1.4v4.3h-1.9V414.7z"/>
						<path d="M313.4,421.2l0.9-1.2c0.6,0.5,1.3,0.8,2,0.8c0.7,0,1.1-0.3,1.1-0.8c0-0.5-0.8-0.8-1.5-1.1c-0.9-0.4-2-0.9-2-2.1
							c0-1.3,1.1-2.2,2.7-2.2c1.1,0,1.9,0.4,2.5,0.9l-0.9,1.2c-0.5-0.4-1-0.6-1.6-0.6c-0.6,0-1,0.3-1,0.7c0,0.5,0.7,0.7,1.5,1
							c1,0.4,2,0.8,2,2.2c0,1.3-1,2.3-2.9,2.3C315.2,422.2,314.1,421.8,313.4,421.2z"/>
						<path d="M320.5,419.5v-3.2h-1v-1.4l1.1-0.1l0.2-2h1.6v2h1.8v1.5h-1.8v3.2c0,0.8,0.3,1.2,1,1.2c0.2,0,0.5-0.1,0.7-0.2l0.3,1.4
							c-0.4,0.1-0.9,0.3-1.5,0.3C321.2,422.2,320.5,421.1,320.5,419.5z"/>
						<path d="M328.5,412.5c0-0.6,0.5-1,1.1-1c0.6,0,1.1,0.4,1.1,1c0,0.6-0.5,1-1.1,1C328.9,413.5,328.5,413.1,328.5,412.5z
							 M328.6,414.7h1.9v7.3h-1.9V414.7z"/>
						<path d="M332.6,414.7h1.6l0.1,1h0.1c0.6-0.6,1.4-1.1,2.4-1.1c1.6,0,2.2,1.1,2.2,2.9v4.5H337v-4.3c0-1.1-0.3-1.5-1-1.5
							c-0.6,0-1,0.3-1.5,0.8v5h-1.9V414.7z"/>
						<path d="M339.2,424.8l0.3-1.4c0.2,0.1,0.4,0.1,0.6,0.1c0.6,0,0.8-0.4,0.8-1.2v-7.5h1.9v7.5c0,1.6-0.6,2.8-2.4,2.8
							C339.9,425,339.5,424.9,339.2,424.8z M340.8,412.5c0-0.6,0.5-1,1.1-1c0.6,0,1.1,0.4,1.1,1c0,0.6-0.5,1-1.1,1
							C341.2,413.5,340.8,413.1,340.8,412.5z"/>
						<path d="M344.4,418.4c0-2.4,1.7-3.8,3.4-3.8c2,0,3,1.5,3,3.5c0,0.4,0,0.7-0.1,0.9h-4.5c0.2,1.2,0.9,1.8,2,1.8
							c0.6,0,1.1-0.2,1.6-0.5l0.6,1.2c-0.7,0.5-1.6,0.8-2.5,0.8C346,422.2,344.4,420.8,344.4,418.4z M349.2,417.6
							c0-1-0.4-1.6-1.4-1.6c-0.8,0-1.4,0.5-1.6,1.6H349.2z"/>
						<path d="M352,418.4c0-2.4,1.7-3.8,3.7-3.8c0.9,0,1.6,0.4,2.1,0.8l-0.9,1.2c-0.4-0.3-0.7-0.5-1.1-0.5c-1.1,0-1.9,0.9-1.9,2.3
							c0,1.4,0.8,2.2,1.8,2.2c0.5,0,1-0.2,1.4-0.6l0.8,1.3c-0.7,0.6-1.6,0.9-2.4,0.9C353.5,422.2,352,420.8,352,418.4z"/>
						<path d="M359.4,419.5v-3.2h-1v-1.4l1.1-0.1l0.2-2h1.6v2h1.8v1.5h-1.8v3.2c0,0.8,0.3,1.2,1,1.2c0.2,0,0.5-0.1,0.7-0.2l0.3,1.4
							c-0.4,0.1-0.9,0.3-1.5,0.3C360.1,422.2,359.4,421.1,359.4,419.5z"/>
						<path d="M364.4,412.5c0-0.6,0.5-1,1.1-1c0.6,0,1.1,0.4,1.1,1c0,0.6-0.5,1-1.1,1C364.9,413.5,364.4,413.1,364.4,412.5z
							 M364.6,414.7h1.9v7.3h-1.9V414.7z"/>
						<path d="M368.1,418.4c0-2.4,1.7-3.8,3.5-3.8c1.8,0,3.5,1.4,3.5,3.8c0,2.4-1.7,3.8-3.5,3.8
							C369.8,422.2,368.1,420.8,368.1,418.4z M373.1,418.4c0-1.4-0.6-2.3-1.5-2.3c-1,0-1.5,0.9-1.5,2.3c0,1.4,0.6,2.2,1.5,2.2
							C372.6,420.6,373.1,419.7,373.1,418.4z"/>
						<path d="M376.7,414.7h1.6l0.1,1h0.1c0.6-0.6,1.4-1.1,2.4-1.1c1.6,0,2.2,1.1,2.2,2.9v4.5h-1.9v-4.3c0-1.1-0.3-1.5-1-1.5
							c-0.6,0-1,0.3-1.5,0.8v5h-1.9V414.7z"/>
					</g>
					<g id="table_lines" transform="translate(0.000000, 39.000000)">
						<g id="horizontal1" transform="translate(24.000000, 319.500000)">
							<g class="st0">
								<path d="M1.9,21.9c0-3.8,1.4-5.7,3.6-5.7c2.2,0,3.6,1.9,3.6,5.7c0,3.8-1.4,5.8-3.6,5.8C3.3,27.7,1.9,25.8,1.9,21.9z
									 M7.4,21.9c0-3.2-0.8-4.3-1.9-4.3s-1.9,1.2-1.9,4.3c0,3.2,0.8,4.4,1.9,4.4S7.4,25.1,7.4,21.9z"/>
							</g>
							<g class="st0">
								<path d="M110.6,26.2l0.8-1.1c0.6,0.7,1.5,1.2,2.6,1.2c1.2,0,2.1-0.7,2.1-1.8c0-1.2-0.8-2-3.3-2v-1.3c2.2,0,2.9-0.8,2.9-1.9
									c0-1-0.6-1.6-1.7-1.6c-0.9,0-1.6,0.4-2.2,1l-0.9-1.1c0.9-0.8,1.9-1.3,3.2-1.3c2,0,3.4,1,3.4,2.9c0,1.3-0.7,2.2-1.9,2.6v0.1
									c1.3,0.3,2.3,1.3,2.3,2.8c0,2-1.7,3.2-3.7,3.2C112.5,27.7,111.4,27,110.6,26.2z"/>
							</g>
							<path id="divider" class="st1" d="M0,0.5h120"/>
						</g>
						<g id="horizontal2" transform="translate(144.000000, 319.500000)">
							<g class="st0">
								<path d="M117,18.5c-0.4-0.5-1.1-0.8-1.7-0.8c-1.4,0-2.6,1.1-2.7,4.2c0.6-0.8,1.6-1.3,2.4-1.3c1.9,0,3.1,1.1,3.1,3.5
									c0,2.2-1.5,3.6-3.3,3.6c-2.1,0-3.8-1.8-3.8-5.5c0-4.2,2-5.9,4.2-5.9c1.2,0,2.1,0.5,2.8,1.2L117,18.5z M116.5,24.1
									c0-1.4-0.6-2.2-1.8-2.2c-0.6,0-1.4,0.3-2.1,1.3c0.2,2.2,1,3.2,2.2,3.2C115.8,26.4,116.5,25.5,116.5,24.1z"/>
							</g>
							<path class="st1" d="M0,0.5h120"/>
						</g>
						<g id="horizontal3" transform="translate(264.000000, 319.500000)">
							<g class="st0">
								<path d="M112,25.5c0.4,0.5,1.1,0.8,1.8,0.8c1.3,0,2.5-1.1,2.6-4.2c-0.6,0.8-1.6,1.3-2.4,1.3c-1.8,0-3.1-1.2-3.1-3.5
									c0-2.2,1.5-3.6,3.3-3.6c2.1,0,3.8,1.7,3.8,5.4c0,4.3-2,6.1-4.1,6.1c-1.3,0-2.2-0.5-2.8-1.2L112,25.5z M116.4,20.8
									c-0.2-2.2-1-3.2-2.2-3.2c-0.9,0-1.7,0.9-1.7,2.3c0,1.4,0.6,2.2,1.8,2.2C114.9,22.1,115.7,21.7,116.4,20.8z"/>
							</g>
							<path class="st1" d="M0,0.5h120"/>
						</g>
						<g id="vertical1" transform="translate(0.000000, 240.000000)">
							<g class="st0">
								<path d="M0.7,77.1h4v1.3h-4V77.1z"/>
								<path d="M13.5,79H12v3h-1.6v-3H5.7v-1.2L10,71h2v6.7h1.4V79z M10.4,77.7v-2.9c0-0.6,0.1-1.5,0.1-2.1h-0.1
									c-0.3,0.6-0.6,1.1-0.9,1.7l-2.2,3.3H10.4z"/>
							</g>
							<path class="st1" d="M24,80V0"/>
						</g>
						<g id="vertical2" transform="translate(0.000000, 160.000000)">
							<g class="st0">
								<path d="M0.7,77.1h4v1.3h-4V77.1z"/>
								<path d="M5.8,80.7l0.8-1.1c0.6,0.7,1.5,1.2,2.6,1.2c1.2,0,2.1-0.7,2.1-1.8c0-1.2-0.8-2-3.3-2v-1.3c2.2,0,2.9-0.8,2.9-1.9
									c0-1-0.6-1.6-1.7-1.6c-0.9,0-1.6,0.4-2.2,1l-0.9-1.1C7,71.3,8,70.8,9.3,70.8c2,0,3.4,1,3.4,2.9c0,1.3-0.7,2.2-1.9,2.6v0.1
									c1.3,0.3,2.3,1.3,2.3,2.8c0,2-1.7,3.2-3.7,3.2C7.6,82.2,6.5,81.5,5.8,80.7z"/>
							</g>
							<path class="st1" d="M24,80V0"/>
						</g>
						<g id="vertical3" transform="translate(0.000000, 80.000000)">
							<path class="st1" d="M24,80V0"/>
							<g class="st0">
								<path d="M0.7,77.1h4v1.3h-4V77.1z"/>
								<path d="M6,81c3.3-2.9,4.9-5,4.9-6.8c0-1.2-0.6-2-1.9-2c-0.9,0-1.6,0.6-2.2,1.2l-1-1c0.9-1,1.9-1.7,3.4-1.7
									c2,0,3.3,1.3,3.3,3.3c0,2.1-1.7,4.3-4,6.6c0.6-0.1,1.3-0.1,1.8-0.1h2.8V82H6V81z"/>
							</g>
						</g>
						<g id="vertical4">
							<g class="st0">
								<path d="M5.7,11.4c0-3.8,1.4-5.7,3.6-5.7c2.2,0,3.6,1.9,3.6,5.7c0,3.8-1.4,5.8-3.6,5.8C7.1,17.2,5.7,15.3,5.7,11.4z
									 M11.2,11.4c0-3.2-0.8-4.3-1.9-4.3s-1.9,1.2-1.9,4.3c0,3.2,0.8,4.4,1.9,4.4S11.2,14.6,11.2,11.4z"/>
							</g>
							<g class="st0">
								<path d="M0.7,77.1h4v1.3h-4V77.1z"/>
								<path d="M6.6,80.6h2.4v-7.7h-2v-1.1c1-0.2,1.8-0.5,2.4-0.8h1.3v9.6h2.2V82H6.6V80.6z"/>
							</g>
							<path class="st1" d="M24,80V0"/>
						</g>
					</g>
					<g id="yellow_lines" transform="translate(19.000000, 34.000000)">
						<circle id="Oval" class="st2" cx="5" cy="5" r="5"/>
						<path id="Line-2" class="st3" d="M5,5l120,116"/>
						<path id="Line-3" class="st3" d="M125,121l120,4"/>
						<path id="Line-4" class="st3" d="M245,126l120,39"/>
						<circle class="st2" cx="125" cy="121" r="5"/>
						<g class="st0">
							<path d="M110.7,101.1h4v1.3h-4V101.1z"/>
							<path d="M116.7,104.6h2.4v-7.7h-2v-1.1c1-0.2,1.8-0.5,2.4-0.8h1.3v9.6h2.2v1.4h-6.3V104.6z"/>
							<path d="M125,105c0-0.7,0.5-1.2,1.2-1.2s1.2,0.5,1.2,1.2s-0.5,1.2-1.2,1.2S125,105.7,125,105z"/>
							<path d="M128.8,104.7l0.8-1.1c0.6,0.6,1.4,1.2,2.6,1.2c1.2,0,2.2-0.9,2.2-2.4c0-1.5-0.8-2.3-2.1-2.3c-0.7,0-1.1,0.2-1.8,0.6
								l-0.8-0.6L130,95h5.6v1.5h-4.1l-0.3,2.8c0.5-0.2,0.9-0.4,1.5-0.4c1.8,0,3.4,1.1,3.4,3.5c0,2.4-1.8,3.8-3.7,3.8
								C130.7,106.2,129.6,105.5,128.8,104.7z"/>
						</g>
						<g class="st0">
							<path d="M229.7,107.1h4v1.3h-4V107.1z"/>
							<path d="M235.7,110.6h2.4v-7.7h-2v-1.1c1-0.2,1.8-0.5,2.4-0.8h1.3v9.6h2.2v1.4h-6.3V110.6z"/>
							<path d="M244,111c0-0.7,0.5-1.2,1.2-1.2s1.2,0.5,1.2,1.2s-0.5,1.2-1.2,1.2S244,111.7,244,111z"/>
							<path d="M254.2,103c-0.4-0.5-1.1-0.8-1.7-0.8c-1.4,0-2.6,1.1-2.7,4.2c0.6-0.8,1.6-1.3,2.4-1.3c1.9,0,3.1,1.1,3.1,3.5
								c0,2.2-1.5,3.6-3.3,3.6c-2.1,0-3.8-1.8-3.8-5.5c0-4.2,2-5.9,4.2-5.9c1.2,0,2.1,0.5,2.8,1.2L254.2,103z M253.7,108.6
								c0-1.4-0.6-2.2-1.8-2.2c-0.6,0-1.4,0.3-2.1,1.3c0.2,2.2,1,3.2,2.2,3.2C253,110.9,253.7,110,253.7,108.6z"/>
						</g>
						<g class="st0">
							<path d="M343.7,145.1h4v1.3h-4V145.1z"/>
							<path d="M349.1,149c3.3-2.9,4.9-5,4.9-6.8c0-1.2-0.6-2-1.9-2c-0.9,0-1.6,0.6-2.2,1.2l-1-1c0.9-1,1.9-1.7,3.4-1.7
								c2,0,3.3,1.3,3.3,3.3c0,2.1-1.7,4.3-4,6.6c0.6-0.1,1.3-0.1,1.8-0.1h2.8v1.5h-7.1V149z"/>
							<path d="M358,149c0-0.7,0.5-1.2,1.2-1.2s1.2,0.5,1.2,1.2s-0.5,1.2-1.2,1.2S358,149.7,358,149z"/>
							<path d="M362.1,144.4c0-3.8,1.4-5.7,3.6-5.7c2.2,0,3.6,1.9,3.6,5.7c0,3.8-1.4,5.8-3.6,5.8
								C363.5,150.2,362.1,148.3,362.1,144.4z M367.6,144.4c0-3.2-0.8-4.3-1.9-4.3s-1.9,1.2-1.9,4.3c0,3.2,0.8,4.4,1.9,4.4
								S367.6,147.6,367.6,144.4z"/>
						</g>
						<circle class="st2" cx="245" cy="126" r="5"/>
						<circle class="st2" cx="365" cy="165" r="5"/>
					</g>
					<g id="red_lines" transform="translate(19.000000, 34.000000)">
						<circle class="st4" cx="5" cy="5" r="5"/>
						<path id="Line-5" class="st5" d="M5,5l120,240"/>
						<path id="Line-6" class="st5" d="M125,245l120-15"/>
						<path id="Line-7" class="st5" d="M245,230l120,15"/>
						<circle class="st4" cx="125" cy="245" r="5"/>
						<circle class="st4" cx="245" cy="230" r="5"/>
						<circle class="st4" cx="365" cy="245" r="5"/>
						<g class="st0">
							<path d="M110.7,225.1h4v1.3h-4V225.1z"/>
							<path d="M115.8,228.7l0.8-1.1c0.6,0.7,1.5,1.2,2.6,1.2c1.2,0,2.1-0.7,2.1-1.8c0-1.2-0.8-2-3.3-2v-1.3c2.2,0,2.9-0.8,2.9-1.9
								c0-1-0.6-1.6-1.7-1.6c-0.9,0-1.6,0.4-2.2,1l-0.9-1.1c0.9-0.8,1.9-1.3,3.2-1.3c2,0,3.4,1,3.4,2.9c0,1.3-0.7,2.2-1.9,2.6v0.1
								c1.3,0.3,2.3,1.3,2.3,2.8c0,2-1.7,3.2-3.7,3.2C117.7,230.2,116.5,229.5,115.8,228.7z"/>
							<path d="M125,229c0-0.7,0.5-1.2,1.2-1.2s1.2,0.5,1.2,1.2s-0.5,1.2-1.2,1.2S125,229.7,125,229z"/>
							<path d="M129.1,224.4c0-3.8,1.4-5.7,3.6-5.7c2.2,0,3.6,1.9,3.6,5.7c0,3.8-1.4,5.8-3.6,5.8
								C130.5,230.2,129.1,228.3,129.1,224.4z M134.6,224.4c0-3.2-0.8-4.3-1.9-4.3s-1.9,1.2-1.9,4.3c0,3.2,0.8,4.4,1.9,4.4
								S134.6,227.6,134.6,224.4z"/>
						</g>
						<g class="st0">
							<path d="M232.7,210.1h4v1.3h-4V210.1z"/>
							<path d="M238.1,214c3.3-2.9,4.9-5,4.9-6.8c0-1.2-0.6-2-1.9-2c-0.9,0-1.6,0.6-2.2,1.2l-1-1c0.9-1,1.9-1.7,3.4-1.7
								c2,0,3.3,1.3,3.3,3.3c0,2.1-1.7,4.3-4,6.6c0.6-0.1,1.3-0.1,1.8-0.1h2.8v1.5h-7.1V214z"/>
							<path d="M247,214c0-0.7,0.5-1.2,1.2-1.2s1.2,0.5,1.2,1.2s-0.5,1.2-1.2,1.2S247,214.7,247,214z"/>
							<path d="M251.1,212.3c0-1.5,1-2.4,2-3v-0.1c-0.8-0.6-1.5-1.4-1.5-2.6c0-1.7,1.3-2.8,3.1-2.8c1.9,0,3.1,1.2,3.1,2.9
								c0,1.1-0.8,2.1-1.5,2.6v0.1c1,0.6,1.9,1.4,1.9,2.9c0,1.6-1.4,2.9-3.6,2.9C252.6,215.2,251.1,214,251.1,212.3z M256.6,212.3
								c0-1.3-1.2-1.9-2.7-2.5c-0.8,0.5-1.3,1.3-1.3,2.3c0,1.1,0.9,1.9,2.1,1.9C255.9,214,256.6,213.3,256.6,212.3z M256.4,206.8
								c0-1-0.6-1.8-1.7-1.8c-0.9,0-1.6,0.6-1.6,1.6c0,1.2,1,1.8,2.3,2.2C256.1,208.2,256.4,207.5,256.4,206.8z"/>
						</g>
						<g class="st0">
							<path d="M343.7,225.1h4v1.3h-4V225.1z"/>
							<path d="M348.8,228.7l0.8-1.1c0.6,0.7,1.5,1.2,2.6,1.2c1.2,0,2.1-0.7,2.1-1.8c0-1.2-0.8-2-3.3-2v-1.3c2.2,0,2.9-0.8,2.9-1.9
								c0-1-0.6-1.6-1.7-1.6c-0.9,0-1.6,0.4-2.2,1l-0.9-1.1c0.9-0.8,1.9-1.3,3.2-1.3c2,0,3.4,1,3.4,2.9c0,1.3-0.7,2.2-1.9,2.6v0.1
								c1.3,0.3,2.3,1.3,2.3,2.8c0,2-1.7,3.2-3.7,3.2C350.7,230.2,349.5,229.5,348.8,228.7z"/>
							<path d="M358,229c0-0.7,0.5-1.2,1.2-1.2s1.2,0.5,1.2,1.2s-0.5,1.2-1.2,1.2S358,229.7,358,229z"/>
							<path d="M362.1,224.4c0-3.8,1.4-5.7,3.6-5.7c2.2,0,3.6,1.9,3.6,5.7c0,3.8-1.4,5.8-3.6,5.8
								C363.5,230.2,362.1,228.3,362.1,224.4z M367.6,224.4c0-3.2-0.8-4.3-1.9-4.3s-1.9,1.2-1.9,4.3c0,3.2,0.8,4.4,1.9,4.4
								S367.6,227.6,367.6,224.4z"/>
						</g>
					</g>
					<g id="info" transform="translate(105.000000, 451.000000)">
						<g id="placebo">
							<g class="st0">
								<path d="M21.2,7.9h1l0.1,0.8h0c0.6-0.5,1.4-1,2.2-1c1.8,0,2.8,1.4,2.8,3.6c0,2.4-1.4,3.8-3.1,3.8c-0.6,0-1.3-0.3-2-0.8
									l0,1.2V18h-1.2V7.9z M26.1,11.4c0-1.6-0.5-2.6-1.9-2.6c-0.6,0-1.2,0.3-1.9,1v3.7c0.6,0.5,1.3,0.7,1.7,0.7
									C25.3,14.2,26.1,13.1,26.1,11.4z"/>
								<path d="M29.3,13.6V4.7h1.2v9c0,0.4,0.2,0.5,0.3,0.5c0.1,0,0.1,0,0.2,0l0.2,0.9c-0.2,0.1-0.4,0.1-0.7,0.1
									C29.6,15.2,29.3,14.6,29.3,13.6z"/>
								<path d="M32.5,13.2c0-1.5,1.3-2.3,4.3-2.6c0-0.9-0.3-1.8-1.5-1.8c-0.8,0-1.6,0.4-2.1,0.8l-0.5-0.8c0.6-0.4,1.7-0.9,2.8-0.9
									c1.7,0,2.4,1.2,2.4,2.9V15h-1L37,14.2h0c-0.7,0.6-1.5,1-2.3,1C33.4,15.2,32.5,14.4,32.5,13.2z M36.9,13.3v-2
									c-2.4,0.3-3.2,0.9-3.2,1.8c0,0.8,0.5,1.1,1.2,1.1C35.6,14.2,36.2,13.9,36.9,13.3z"/>
								<path d="M39.8,11.5c0-2.4,1.6-3.7,3.4-3.7c0.9,0,1.6,0.4,2.1,0.8l-0.6,0.8c-0.4-0.4-0.8-0.6-1.4-0.6c-1.3,0-2.2,1.1-2.2,2.7
									s0.9,2.7,2.2,2.7c0.7,0,1.2-0.3,1.7-0.7l0.5,0.8c-0.6,0.6-1.4,0.9-2.3,0.9C41.2,15.2,39.8,13.8,39.8,11.5z"/>
								<path d="M46.1,11.5c0-2.3,1.5-3.7,3.2-3.7c1.8,0,2.8,1.3,2.8,3.3c0,0.3,0,0.5-0.1,0.7h-4.8c0.1,1.5,1,2.5,2.3,2.5
									c0.7,0,1.2-0.2,1.8-0.6l0.4,0.8c-0.6,0.4-1.4,0.7-2.3,0.7C47.6,15.2,46.1,13.8,46.1,11.5z M51,10.9c0-1.4-0.6-2.2-1.8-2.2
									c-1,0-1.9,0.8-2,2.2H51z"/>
								<path d="M54.9,14.3L54.9,14.3L54.7,15h-0.9V4.7H55v2.8l0,1.3c0.6-0.6,1.4-1,2.2-1c1.8,0,2.8,1.4,2.8,3.6
									c0,2.4-1.4,3.8-3.1,3.8C56.3,15.2,55.5,14.8,54.9,14.3z M58.7,11.4c0-1.6-0.5-2.6-1.9-2.6c-0.6,0-1.2,0.3-1.9,1v3.7
									c0.6,0.5,1.3,0.7,1.7,0.7C57.9,14.2,58.7,13.1,58.7,11.4z"/>
								<path d="M61.3,11.5c0-2.4,1.5-3.7,3.3-3.7s3.3,1.4,3.3,3.7c0,2.3-1.5,3.7-3.3,3.7S61.3,13.8,61.3,11.5z M66.6,11.5
									c0-1.6-0.8-2.7-2.1-2.7c-1.2,0-2,1.1-2,2.7s0.8,2.7,2,2.7C65.8,14.2,66.6,13.1,66.6,11.5z"/>
							</g>
							<circle class="st4" cx="5" cy="10" r="5"/>
						</g>
						<g transform="translate(99.000000, 0.000000)">
							<g class="st0">
								<path d="M21.1,14h2.1V6.9h-1.7V6.1c0.8-0.2,1.5-0.4,2-0.7h0.9V14h1.9v1h-5.2V14z"/>
								<path d="M33,7c-0.4-0.5-0.9-0.7-1.5-0.7c-1.3,0-2.4,1-2.5,4c0.6-0.7,1.4-1.2,2.2-1.2c1.6,0,2.6,1,2.6,3
									c0,1.8-1.2,3.1-2.7,3.1c-1.8,0-3.2-1.6-3.2-4.7c0-3.7,1.7-5.2,3.5-5.2c1,0,1.7,0.4,2.2,1L33,7z M32.7,12.1
									c0-1.3-0.6-2.1-1.7-2.1c-0.6,0-1.3,0.3-2,1.2c0.1,2,0.9,3.1,2.1,3.1C32,14.2,32.7,13.4,32.7,12.1z"/>
								<path d="M38.5,7.9h1l0.1,1h0c0.6-0.7,1.4-1.2,2.2-1.2c1.1,0,1.7,0.5,2,1.4c0.7-0.8,1.5-1.4,2.3-1.4c1.5,0,2.1,1,2.1,2.8V15
									h-1.2v-4.3c0-1.3-0.4-1.9-1.3-1.9c-0.5,0-1.1,0.4-1.8,1.1V15h-1.2v-4.3c0-1.3-0.4-1.9-1.3-1.9c-0.5,0-1.1,0.4-1.8,1.1V15
									h-1.2V7.9z"/>
								<path d="M50,16.4c0-0.6,0.4-1.2,1.1-1.6v-0.1c-0.4-0.2-0.6-0.6-0.6-1.2c0-0.6,0.4-1.1,0.8-1.3v-0.1
									c-0.5-0.4-0.9-1.1-0.9-1.9c0-1.5,1.2-2.5,2.7-2.5c0.4,0,0.7,0.1,1,0.2h2.5v0.9H55c0.3,0.3,0.6,0.8,0.6,1.5
									c0,1.5-1.1,2.5-2.6,2.5c-0.4,0-0.7-0.1-1.1-0.2c-0.3,0.2-0.5,0.5-0.5,0.8c0,0.5,0.3,0.8,1.2,0.8h1.4c1.6,0,2.5,0.5,2.5,1.7
									c0,1.3-1.4,2.4-3.6,2.4C51.2,18.2,50,17.6,50,16.4z M55.4,16c0-0.7-0.5-0.9-1.4-0.9h-1.2c-0.3,0-0.6,0-0.9-0.1
									c-0.5,0.4-0.7,0.8-0.7,1.2c0,0.8,0.8,1.2,2.1,1.2C54.5,17.4,55.4,16.7,55.4,16z M54.5,10.3c0-1-0.7-1.7-1.5-1.7
									s-1.5,0.6-1.5,1.7c0,1,0.7,1.7,1.5,1.7C53.8,12,54.5,11.3,54.5,10.3z"/>
								<path d="M59.6,5.5h1.3l1.5,5.2c0.3,1.1,0.6,2,0.9,3.1h0.1c0.4-1.1,0.6-2,0.9-3.1l1.5-5.2h1.2l-3,9.5h-1.4L59.6,5.5z"/>
								<path d="M68.4,5.5h1.5l1.8,5.1c0.2,0.7,0.4,1.3,0.7,2h0.1c0.2-0.7,0.4-1.3,0.6-2l1.8-5.1h1.5V15h-1.1V9.7
									c0-0.8,0.1-2,0.2-2.8h-0.1l-0.8,2.2l-1.8,5h-0.8l-1.8-5l-0.8-2.2h-0.1c0.1,0.8,0.1,2,0.1,2.8V15h-1.1V5.5z"/>
								<path d="M78.2,14.3c3-2.6,4.4-4.5,4.4-6.1c0-1.1-0.6-1.9-1.8-1.9c-0.8,0-1.5,0.5-2,1.1l-0.7-0.7c0.8-0.8,1.6-1.4,2.8-1.4
									c1.7,0,2.8,1.1,2.8,2.8c0,1.9-1.5,3.8-3.7,6c0.5,0,1.1-0.1,1.6-0.1h2.6v1h-6V14.3z"/>
								<path d="M85.5,10.2c0-3.3,1.2-4.9,3-4.9c1.8,0,3,1.6,3,4.9c0,3.3-1.2,5-3,5C86.7,15.2,85.5,13.5,85.5,10.2z M90.3,10.2
									c0-2.8-0.7-4-1.8-4c-1.1,0-1.8,1.2-1.8,4c0,2.8,0.7,4,1.8,4C89.5,14.2,90.3,13,90.3,10.2z"/>
								<path d="M92.6,14.3c3-2.6,4.4-4.5,4.4-6.1c0-1.1-0.6-1.9-1.8-1.9c-0.8,0-1.5,0.5-2,1.1l-0.7-0.7c0.8-0.8,1.6-1.4,2.8-1.4
									c1.7,0,2.8,1.1,2.8,2.8c0,1.9-1.5,3.8-3.7,6c0.5,0,1.1-0.1,1.6-0.1h2.6v1h-6V14.3z"/>
							</g>
							<circle class="st2" cx="5" cy="10" r="5"/>
						</g>
					</g>
				</g>
			</g>
			<g class="st0">
				<path d="M17.2,21.7h7.8v1.7h-5.7v3.7h4.9V29h-4.9v4.3h5.9V35h-8V21.7z"/>
				<path d="M38.6,22.3c-0.4-0.2-0.8-0.3-1.1-0.3c-0.9,0-1.3,0.6-1.3,1.8v1.3h2v1.7h-2V35h-2.1v-8.2h-3.9V35h-2.1v-8.2h-1.4v-1.5
					l1.4-0.1v-1c0-2.1,1-3.4,3.3-3.4c0.7,0,1.4,0.1,1.9,0.4L33,22.5c-0.4-0.2-0.8-0.3-1.3-0.3c-0.9,0-1.4,0.6-1.4,1.8v1h3.9v-1.2
					c0-2,0.9-3.4,3.1-3.4c0.7,0,1.3,0.1,1.8,0.3L38.6,22.3z"/>
				<path d="M39.1,30.1c0-3.2,2.2-5.2,4.5-5.2c2.6,0,4,1.9,4,4.7c0,0.4,0,0.8-0.1,1h-6.4c0.2,1.9,1.4,3,3.1,3c0.9,0,1.6-0.3,2.4-0.7
					l0.7,1.3c-0.9,0.6-2.1,1-3.3,1C41.3,35.2,39.1,33.3,39.1,30.1z M45.9,29.2c0-1.7-0.8-2.7-2.2-2.7c-1.2,0-2.3,1-2.5,2.7H45.9z"/>
				<path d="M49.3,30.1c0-3.3,2.3-5.2,4.9-5.2c1.3,0,2.2,0.5,2.9,1.1l-1,1.4c-0.5-0.5-1.1-0.8-1.8-0.8c-1.7,0-2.8,1.4-2.8,3.5
					c0,2.1,1.1,3.5,2.8,3.5c0.8,0,1.6-0.4,2.2-0.9l0.8,1.4c-0.9,0.8-2.1,1.2-3.2,1.2C51.3,35.2,49.3,33.3,49.3,30.1z"/>
				<path d="M59.4,31.8v-5H58v-1.5l1.5-0.1l0.2-2.7h1.7v2.7h2.6v1.7h-2.6v5c0,1.2,0.4,1.8,1.4,1.8c0.3,0,0.8-0.1,1.1-0.2l0.4,1.5
					c-0.6,0.2-1.2,0.4-1.9,0.4C60.2,35.2,59.4,33.8,59.4,31.8z"/>
				<path d="M65,33.9l1-1.3c0.9,0.7,1.7,1.1,2.8,1.1c1.2,0,1.7-0.6,1.7-1.3c0-0.9-1.1-1.3-2.2-1.7c-1.3-0.5-2.8-1.2-2.8-2.9
					c0-1.7,1.3-2.9,3.5-2.9c1.3,0,2.4,0.5,3.2,1.2l-1,1.3c-0.7-0.5-1.4-0.9-2.2-0.9c-1.1,0-1.6,0.5-1.6,1.2c0,0.8,1,1.2,2.1,1.6
					c1.4,0.5,2.9,1.1,2.9,3c0,1.7-1.3,3-3.8,3C67.3,35.2,65.9,34.7,65,33.9z"/>
				<path d="M78,30.1c0-3.3,2.2-5.2,4.7-5.2s4.7,1.9,4.7,5.2c0,3.3-2.2,5.2-4.7,5.2S78,33.3,78,30.1z M85.2,30.1
					c0-2.1-1-3.5-2.5-3.5c-1.5,0-2.5,1.4-2.5,3.5c0,2.1,1,3.5,2.5,3.5C84.3,33.5,85.2,32.2,85.2,30.1z"/>
				<path d="M94.5,22.3c-0.4-0.2-0.7-0.3-1.1-0.3c-0.9,0-1.3,0.6-1.3,1.8v1.3h2v1.7h-2V35h-2.1v-8.2h-1.4v-1.5l1.4-0.1v-1.2
					c0-2,0.9-3.4,3.1-3.4c0.7,0,1.3,0.1,1.7,0.3L94.5,22.3z"/>
				<path d="M100.2,21.7h7.8v1.7h-5.7v3.7h4.9V29h-4.9v4.3h5.9V35h-8V21.7z"/>
				<path d="M110.8,25.1h1.7l0.2,1.4h0.1c0.9-0.9,1.9-1.6,3.3-1.6c2.1,0,3,1.4,3,3.9V35h-2.1v-6c0-1.7-0.5-2.4-1.7-2.4
					c-0.9,0-1.5,0.5-2.4,1.3v7h-2.1V25.1z"/>
				<path d="M121.3,36.8c0-0.8,0.5-1.6,1.4-2.2v-0.1c-0.5-0.3-0.9-0.8-0.9-1.6c0-0.8,0.6-1.4,1.1-1.8V31c-0.7-0.5-1.3-1.5-1.3-2.6
					c0-2.3,1.8-3.6,3.8-3.6c0.6,0,1.1,0.1,1.4,0.3h3.5v1.5h-1.9c0.4,0.4,0.6,1.1,0.6,1.8c0,2.2-1.6,3.4-3.7,3.4
					c-0.5,0-1-0.1-1.4-0.3c-0.3,0.3-0.5,0.6-0.5,1c0,0.6,0.4,1,1.7,1h1.8c2.3,0,3.6,0.7,3.6,2.4c0,1.9-2,3.5-5.2,3.5
					C123,39.4,121.3,38.6,121.3,36.8z M128.6,36.3c0-0.8-0.6-1.1-1.9-1.1h-1.5c-0.5,0-0.9-0.1-1.3-0.1c-0.6,0.4-0.8,0.9-0.8,1.4
					c0,1,1,1.5,2.6,1.5C127.4,38.1,128.6,37.2,128.6,36.3z M127.3,28.4c0-1.3-0.8-2.1-1.9-2.1s-1.9,0.8-1.9,2.1
					c0,1.3,0.8,2.1,1.9,2.1S127.3,29.7,127.3,28.4z"/>
				<path d="M131.4,30.1c0-3.2,2.2-5.2,4.5-5.2c2.6,0,4,1.9,4,4.7c0,0.4,0,0.8-0.1,1h-6.4c0.2,1.9,1.4,3,3.1,3
					c0.9,0,1.6-0.3,2.4-0.7l0.7,1.3c-0.9,0.6-2.1,1-3.3,1C133.6,35.2,131.4,33.3,131.4,30.1z M138.2,29.2c0-1.7-0.8-2.7-2.2-2.7
					c-1.2,0-2.3,1-2.5,2.7H138.2z"/>
				<path d="M142.3,25.1h1.7l0.2,1.4h0.1c0.9-0.9,1.9-1.6,3.3-1.6c2.1,0,3,1.4,3,3.9V35h-2.1v-6c0-1.7-0.5-2.4-1.7-2.4
					c-0.9,0-1.5,0.5-2.4,1.3v7h-2.1V25.1z"/>
				<path d="M152.5,33.9l1-1.3c0.9,0.7,1.7,1.1,2.8,1.1c1.2,0,1.7-0.6,1.7-1.3c0-0.9-1.1-1.3-2.2-1.7c-1.3-0.5-2.8-1.2-2.8-2.9
					c0-1.7,1.3-2.9,3.5-2.9c1.3,0,2.4,0.5,3.2,1.2l-1,1.3c-0.7-0.5-1.4-0.9-2.2-0.9c-1.1,0-1.6,0.5-1.6,1.2c0,0.8,1,1.2,2.1,1.6
					c1.4,0.5,2.9,1.1,2.9,3c0,1.7-1.3,3-3.8,3C154.8,35.2,153.4,34.7,152.5,33.9z"/>
				<path d="M161.9,22c0-0.7,0.6-1.2,1.3-1.2s1.3,0.5,1.3,1.2c0,0.7-0.6,1.2-1.3,1.2S161.9,22.7,161.9,22z M162.2,25.1h2.1V35h-2.1
					V25.1z"/>
				<path d="M166.3,33.9l1-1.3c0.9,0.7,1.7,1.1,2.8,1.1c1.2,0,1.7-0.6,1.7-1.3c0-0.9-1.1-1.3-2.2-1.7c-1.3-0.5-2.8-1.2-2.8-2.9
					c0-1.7,1.3-2.9,3.5-2.9c1.3,0,2.4,0.5,3.2,1.2l-1,1.3c-0.7-0.5-1.4-0.9-2.2-0.9c-1.1,0-1.6,0.5-1.6,1.2c0,0.8,1,1.2,2.1,1.6
					c1.4,0.5,2.9,1.1,2.9,3c0,1.7-1.3,3-3.8,3C168.6,35.2,167.2,34.7,166.3,33.9z"/>
				<path d="M180,29.4c0-3.5,1-6.5,2.7-9.2l1.3,0.6c-1.5,2.6-2.3,5.6-2.3,8.6c0,3,0.7,6.1,2.3,8.6l-1.3,0.6
					C181,35.8,180,32.9,180,29.4z"/>
				<path d="M184.8,21.7h2.2l2,6.9c0.5,1.5,0.7,2.8,1.2,4.3h0.1c0.5-1.5,0.8-2.8,1.2-4.3l2-6.9h2.1L191.4,35H189L184.8,21.7z"/>
				<path d="M197.3,21.7h2.4l2.4,6.7c0.3,0.9,0.6,1.8,0.9,2.7h0.1c0.3-0.9,0.6-1.8,0.9-2.7l2.4-6.7h2.4V35h-1.9v-6.6
					c0-1.2,0.2-2.9,0.3-4.1H207l-1.1,3.1l-2.3,6.3h-1.3l-2.3-6.3l-1-3.1h-0.1c0.1,1.2,0.3,2.9,0.3,4.1V35h-1.9V21.7z"/>
				<path d="M211.3,33.8c3.9-3.5,5.9-6,5.9-8.2c0-1.4-0.8-2.4-2.3-2.4c-1,0-1.9,0.7-2.6,1.5l-1.2-1.2c1.1-1.2,2.3-2,4-2
					c2.4,0,4,1.6,4,4c0,2.6-2,5.2-4.8,7.9c0.7-0.1,1.5-0.1,2.2-0.1h3.3V35h-8.6V33.8z"/>
				<path d="M221.6,28.3c0-4.6,1.7-6.8,4.3-6.8c2.6,0,4.3,2.3,4.3,6.8c0,4.6-1.7,6.9-4.3,6.9C223.2,35.2,221.6,32.9,221.6,28.3z
					 M228.2,28.3c0-3.8-1-5.2-2.3-5.2c-1.4,0-2.3,1.4-2.3,5.2c0,3.8,1,5.3,2.3,5.3C227.2,33.6,228.2,32.2,228.2,28.3z"/>
				<path d="M231.8,33.8c3.9-3.5,5.9-6,5.9-8.2c0-1.4-0.8-2.4-2.3-2.4c-1,0-1.9,0.7-2.6,1.5l-1.2-1.2c1.1-1.2,2.3-2,4-2
					c2.4,0,4,1.6,4,4c0,2.6-2,5.2-4.8,7.9c0.7-0.1,1.5-0.1,2.2-0.1h3.3V35h-8.6V33.8z"/>
				<path d="M242.1,38c1.5-2.6,2.3-5.6,2.3-8.6c0-3-0.7-6-2.3-8.6l1.3-0.6c1.7,2.7,2.7,5.7,2.7,9.2c0,3.6-1,6.5-2.7,9.2L242.1,38z"
					/>
				<path d="M252.5,30.1c0-3.3,2.2-5.2,4.7-5.2s4.7,1.9,4.7,5.2c0,3.3-2.2,5.2-4.7,5.2S252.5,33.3,252.5,30.1z M259.7,30.1
					c0-2.1-1-3.5-2.5-3.5c-1.5,0-2.5,1.4-2.5,3.5c0,2.1,1,3.5,2.5,3.5C258.8,33.5,259.7,32.2,259.7,30.1z"/>
				<path d="M264.3,25.1h1.7l0.2,1.4h0.1c0.9-0.9,1.9-1.6,3.3-1.6c2.1,0,3,1.4,3,3.9V35h-2.1v-6c0-1.7-0.5-2.4-1.7-2.4
					c-0.9,0-1.5,0.5-2.4,1.3v7h-2.1V25.1z"/>
				<path d="M279,32.4c0-2.1,1.8-3.2,5.9-3.7c0-1.2-0.4-2.2-1.9-2.2c-1,0-2,0.5-2.9,1l-0.8-1.4c1-0.6,2.4-1.3,4-1.3
					c2.5,0,3.6,1.6,3.6,4.2v6h-1.7l-0.2-1.1h-0.1c-0.9,0.8-2,1.4-3.2,1.4C280.2,35.2,279,34.1,279,32.4z M284.9,32.4V30
					c-2.9,0.4-3.9,1.1-3.9,2.2c0,1,0.7,1.4,1.5,1.4C283.4,33.6,284.1,33.2,284.9,32.4z"/>
				<path d="M289.9,32.7v-12h2.1v12.1c0,0.6,0.3,0.8,0.5,0.8c0.1,0,0.2,0,0.3,0l0.3,1.6c-0.3,0.1-0.6,0.2-1.1,0.2
					C290.5,35.2,289.9,34.3,289.9,32.7z"/>
				<path d="M295.3,32.7v-12h2.1v12.1c0,0.6,0.3,0.8,0.5,0.8c0.1,0,0.2,0,0.3,0l0.3,1.6c-0.3,0.1-0.6,0.2-1.1,0.2
					C295.9,35.2,295.3,34.3,295.3,32.7z"/>
				<path d="M304.7,25.1h1.7l0.2,1.1h0.1c0.9-0.7,1.9-1.3,3-1.3c2.5,0,3.9,2,3.9,5c0,3.4-2,5.3-4.3,5.3c-0.9,0-1.8-0.4-2.6-1.1
					l0.1,1.7V39h-2.1V25.1z M311.4,29.9c0-2.1-0.7-3.3-2.3-3.3c-0.8,0-1.5,0.4-2.4,1.2v4.8c0.8,0.7,1.5,0.9,2.2,0.9
					C310.4,33.5,311.4,32.2,311.4,29.9z"/>
				<path d="M315.2,32.4c0-2.1,1.8-3.2,5.9-3.7c0-1.2-0.4-2.2-1.9-2.2c-1,0-2,0.5-2.9,1l-0.8-1.4c1-0.6,2.4-1.3,4-1.3
					c2.5,0,3.6,1.6,3.6,4.2v6h-1.7l-0.2-1.1h-0.1c-0.9,0.8-2,1.4-3.2,1.4C316.4,35.2,315.2,34.1,315.2,32.4z M321.1,32.4V30
					c-2.9,0.4-3.9,1.1-3.9,2.2c0,1,0.7,1.4,1.5,1.4C319.6,33.6,320.3,33.2,321.1,32.4z"/>
				<path d="M326.1,31.8v-5h-1.4v-1.5l1.5-0.1l0.2-2.7h1.7v2.7h2.6v1.7h-2.6v5c0,1.2,0.4,1.8,1.4,1.8c0.3,0,0.8-0.1,1.1-0.2l0.4,1.5
					c-0.6,0.2-1.2,0.4-1.9,0.4C326.9,35.2,326.1,33.8,326.1,31.8z"/>
				<path d="M332.7,22c0-0.7,0.6-1.2,1.3-1.2s1.3,0.5,1.3,1.2c0,0.7-0.6,1.2-1.3,1.2S332.7,22.7,332.7,22z M333,25.1h2.1V35H333
					V25.1z"/>
				<path d="M337.4,30.1c0-3.2,2.2-5.2,4.5-5.2c2.6,0,4,1.9,4,4.7c0,0.4,0,0.8-0.1,1h-6.4c0.2,1.9,1.4,3,3.1,3
					c0.9,0,1.6-0.3,2.4-0.7l0.7,1.3c-0.9,0.6-2.1,1-3.3,1C339.6,35.2,337.4,33.3,337.4,30.1z M344.2,29.2c0-1.7-0.8-2.7-2.2-2.7
					c-1.2,0-2.3,1-2.5,2.7H344.2z"/>
				<path d="M348.3,25.1h1.7l0.2,1.4h0.1c0.9-0.9,1.9-1.6,3.3-1.6c2.1,0,3,1.4,3,3.9V35h-2.1v-6c0-1.7-0.5-2.4-1.7-2.4
					c-0.9,0-1.5,0.5-2.4,1.3v7h-2.1V25.1z"/>
				<path d="M359.8,31.8v-5h-1.4v-1.5l1.5-0.1l0.2-2.7h1.7v2.7h2.6v1.7h-2.6v5c0,1.2,0.4,1.8,1.4,1.8c0.3,0,0.8-0.1,1.1-0.2l0.4,1.5
					c-0.6,0.2-1.2,0.4-1.9,0.4C360.6,35.2,359.8,33.8,359.8,31.8z"/>
				<path d="M365.4,33.9l1-1.3c0.9,0.7,1.7,1.1,2.8,1.1c1.2,0,1.7-0.6,1.7-1.3c0-0.9-1.1-1.3-2.2-1.7c-1.3-0.5-2.8-1.2-2.8-2.9
					c0-1.7,1.3-2.9,3.5-2.9c1.3,0,2.4,0.5,3.2,1.2l-1,1.3c-0.7-0.5-1.4-0.9-2.2-0.9c-1.1,0-1.6,0.5-1.6,1.2c0,0.8,1,1.2,2.1,1.6
					c1.4,0.5,2.9,1.1,2.9,3c0,1.7-1.3,3-3.8,3C367.8,35.2,366.4,34.7,365.4,33.9z"/>
			</g>
			<g class="st0">
				<path d="M506,7.7h7.8v1.7h-5.7v3.7h4.9V15h-4.9v4.3h5.9V21h-8V7.7z"/>
				<path d="M527.4,8.3c-0.4-0.2-0.8-0.3-1.1-0.3c-0.9,0-1.3,0.6-1.3,1.8v1.3h2v1.7h-2V21h-2.1v-8.2H519V21H517v-8.2h-1.3v-1.5
					l1.3-0.1v-1c0-2.1,1-3.4,3.3-3.4c0.7,0,1.4,0.1,1.9,0.4l-0.4,1.5c-0.4-0.2-0.8-0.3-1.3-0.3c-0.9,0-1.4,0.6-1.4,1.8v1h3.9V9.9
					c0-2,0.9-3.4,3.1-3.4c0.7,0,1.3,0.1,1.8,0.3L527.4,8.3z"/>
				<path d="M527.9,16.1c0-3.2,2.2-5.2,4.5-5.2c2.6,0,4,1.9,4,4.7c0,0.4,0,0.8-0.1,1h-6.4c0.2,1.9,1.4,3,3.1,3
					c0.9,0,1.6-0.3,2.4-0.7l0.7,1.3c-0.9,0.6-2.1,1-3.3,1C530,21.2,527.9,19.3,527.9,16.1z M534.7,15.2c0-1.7-0.8-2.7-2.2-2.7
					c-1.2,0-2.3,1-2.5,2.7H534.7z"/>
				<path d="M538.1,16.1c0-3.3,2.3-5.2,4.9-5.2c1.3,0,2.2,0.5,2.9,1.1l-1,1.4c-0.5-0.5-1.1-0.8-1.8-0.8c-1.7,0-2.8,1.4-2.8,3.5
					c0,2.1,1.1,3.5,2.8,3.5c0.8,0,1.6-0.4,2.2-0.9L546,20c-0.9,0.8-2.1,1.2-3.2,1.2C540.1,21.2,538.1,19.3,538.1,16.1z"/>
				<path d="M548.2,17.8v-5h-1.4v-1.5l1.5-0.1l0.2-2.7h1.7v2.7h2.6v1.7h-2.6v5c0,1.2,0.4,1.8,1.4,1.8c0.3,0,0.8-0.1,1.1-0.2l0.4,1.5
					c-0.6,0.2-1.2,0.4-1.9,0.4C549,21.2,548.2,19.8,548.2,17.8z"/>
				<path d="M553.8,19.9l1-1.3c0.9,0.7,1.7,1.1,2.8,1.1c1.2,0,1.7-0.6,1.7-1.3c0-0.9-1.1-1.3-2.2-1.7c-1.3-0.5-2.8-1.2-2.8-2.9
					c0-1.7,1.3-2.9,3.5-2.9c1.3,0,2.4,0.5,3.2,1.2l-1,1.3c-0.7-0.5-1.4-0.9-2.2-0.9c-1.1,0-1.6,0.5-1.6,1.2c0,0.8,1,1.2,2.1,1.6
					c1.4,0.5,2.9,1.1,2.9,3c0,1.7-1.3,3-3.8,3C556.1,21.2,554.7,20.7,553.8,19.9z"/>
				<path d="M566.8,16.1c0-3.3,2.2-5.2,4.7-5.2c2.4,0,4.7,1.9,4.7,5.2c0,3.3-2.2,5.2-4.7,5.2C569,21.2,566.8,19.3,566.8,16.1z
					 M574,16.1c0-2.1-1-3.5-2.5-3.5c-1.5,0-2.5,1.4-2.5,3.5c0,2.1,1,3.5,2.5,3.5C573,19.5,574,18.2,574,16.1z"/>
				<path d="M583.3,8.3c-0.4-0.2-0.7-0.3-1.1-0.3c-0.9,0-1.3,0.6-1.3,1.8v1.3h2v1.7h-2V21h-2.1v-8.2h-1.4v-1.5l1.4-0.1V9.9
					c0-2,0.9-3.4,3.1-3.4c0.7,0,1.3,0.1,1.7,0.3L583.3,8.3z"/>
				<path d="M588.9,7.7h7.8v1.7H591v3.7h4.9V15H591v4.3h5.9V21h-8V7.7z"/>
				<path d="M599.6,11.1h1.7l0.2,1.4h0.1c0.9-0.9,1.9-1.6,3.3-1.6c2.1,0,3,1.4,3,3.9V21h-2.1v-6c0-1.7-0.5-2.4-1.7-2.4
					c-0.9,0-1.5,0.5-2.4,1.3v7h-2.1V11.1z"/>
				<path d="M610.1,22.8c0-0.8,0.5-1.6,1.4-2.2v-0.1c-0.5-0.3-0.9-0.8-0.9-1.6c0-0.8,0.6-1.4,1.1-1.8V17c-0.7-0.5-1.3-1.5-1.3-2.6
					c0-2.3,1.8-3.6,3.8-3.6c0.6,0,1.1,0.1,1.4,0.3h3.5v1.5h-1.9c0.4,0.4,0.6,1.1,0.6,1.8c0,2.2-1.6,3.4-3.7,3.4
					c-0.5,0-1-0.1-1.4-0.3c-0.3,0.3-0.5,0.6-0.5,1c0,0.6,0.4,1,1.7,1h1.8c2.3,0,3.6,0.7,3.6,2.4c0,1.9-2,3.5-5.2,3.5
					C611.8,25.4,610.1,24.6,610.1,22.8z M617.4,22.3c0-0.8-0.6-1.1-1.9-1.1H614c-0.5,0-0.9-0.1-1.3-0.1c-0.6,0.4-0.8,0.9-0.8,1.4
					c0,1,1,1.5,2.6,1.5C616.2,24.1,617.4,23.2,617.4,22.3z M616.1,14.4c0-1.3-0.8-2.1-1.9-2.1c-1,0-1.9,0.8-1.9,2.1
					c0,1.3,0.8,2.1,1.9,2.1C615.3,16.5,616.1,15.7,616.1,14.4z"/>
				<path d="M620.2,16.1c0-3.2,2.2-5.2,4.5-5.2c2.6,0,4,1.9,4,4.7c0,0.4,0,0.8-0.1,1h-6.4c0.2,1.9,1.4,3,3.1,3
					c0.9,0,1.6-0.3,2.4-0.7l0.7,1.3c-0.9,0.6-2.1,1-3.3,1C622.3,21.2,620.2,19.3,620.2,16.1z M627,15.2c0-1.7-0.8-2.7-2.2-2.7
					c-1.2,0-2.3,1-2.5,2.7H627z"/>
				<path d="M631.1,11.1h1.7l0.2,1.4h0.1c0.9-0.9,1.9-1.6,3.3-1.6c2.1,0,3,1.4,3,3.9V21h-2.1v-6c0-1.7-0.5-2.4-1.7-2.4
					c-0.9,0-1.5,0.5-2.4,1.3v7h-2.1V11.1z"/>
				<path d="M641.2,19.9l1-1.3c0.9,0.7,1.7,1.1,2.8,1.1c1.2,0,1.7-0.6,1.7-1.3c0-0.9-1.1-1.3-2.2-1.7c-1.3-0.5-2.8-1.2-2.8-2.9
					c0-1.7,1.3-2.9,3.5-2.9c1.3,0,2.4,0.5,3.2,1.2l-1,1.3c-0.7-0.5-1.4-0.9-2.2-0.9c-1.1,0-1.6,0.5-1.6,1.2c0,0.8,1,1.2,2.1,1.6
					c1.4,0.5,2.9,1.1,2.9,3c0,1.7-1.3,3-3.8,3C643.6,21.2,642.2,20.7,641.2,19.9z"/>
				<path d="M650.6,8c0-0.7,0.6-1.2,1.3-1.2c0.8,0,1.3,0.5,1.3,1.2c0,0.7-0.6,1.2-1.3,1.2C651.2,9.2,650.6,8.7,650.6,8z M650.9,11.1
					h2.1V21h-2.1V11.1z"/>
				<path d="M655.1,19.9l1-1.3c0.9,0.7,1.7,1.1,2.8,1.1c1.2,0,1.7-0.6,1.7-1.3c0-0.9-1.1-1.3-2.2-1.7c-1.3-0.5-2.8-1.2-2.8-2.9
					c0-1.7,1.3-2.9,3.5-2.9c1.3,0,2.4,0.5,3.2,1.2l-1,1.3c-0.7-0.5-1.4-0.9-2.2-0.9c-1.1,0-1.6,0.5-1.6,1.2c0,0.8,1,1.2,2.1,1.6
					c1.4,0.5,2.9,1.1,2.9,3c0,1.7-1.3,3-3.8,3C657.4,21.2,656,20.7,655.1,19.9z"/>
				<path d="M668.8,15.4c0-3.5,1-6.5,2.7-9.2l1.3,0.6c-1.5,2.6-2.3,5.6-2.3,8.6c0,3,0.7,6.1,2.3,8.6l-1.3,0.6
					C669.8,21.8,668.8,18.9,668.8,15.4z"/>
				<path d="M673.6,7.7h2.2l2,6.9c0.5,1.5,0.7,2.8,1.2,4.3h0.1c0.4-1.5,0.8-2.8,1.2-4.3l2-6.9h2.1L680.2,21h-2.5L673.6,7.7z"/>
				<path d="M686,7.7h2.4l2.4,6.7c0.3,0.9,0.6,1.8,0.9,2.7h0.1c0.3-0.9,0.6-1.8,0.9-2.7l2.4-6.7h2.4V21h-1.9v-6.6
					c0-1.2,0.2-2.9,0.3-4.1h-0.1l-1.1,3.1l-2.3,6.3h-1.3l-2.3-6.3l-1-3.1h-0.1c0.1,1.2,0.3,2.9,0.3,4.1V21H686V7.7z"/>
				<path d="M700,19.8c3.9-3.5,5.9-6,5.9-8.2c0-1.4-0.8-2.4-2.3-2.4c-1,0-1.9,0.7-2.6,1.5l-1.2-1.2c1.1-1.2,2.3-2,4-2
					c2.4,0,4,1.6,4,4c0,2.6-2,5.2-4.8,7.9c0.7-0.1,1.5-0.1,2.2-0.1h3.3V21H700V19.8z"/>
				<path d="M710.3,14.3c0-4.6,1.7-6.8,4.3-6.8c2.6,0,4.3,2.3,4.3,6.8c0,4.6-1.7,6.9-4.3,6.9C712,21.2,710.3,18.9,710.3,14.3z
					 M716.9,14.3c0-3.8-1-5.2-2.3-5.2s-2.3,1.4-2.3,5.2c0,3.8,1,5.3,2.3,5.3S716.9,18.2,716.9,14.3z"/>
				<path d="M720.6,19.8c3.9-3.5,5.9-6,5.9-8.2c0-1.4-0.8-2.4-2.3-2.4c-1,0-1.9,0.7-2.6,1.5l-1.2-1.2c1.1-1.2,2.3-2,4-2
					c2.4,0,4,1.6,4,4c0,2.6-2,5.2-4.8,7.9c0.7-0.1,1.5-0.1,2.2-0.1h3.3V21h-8.6V19.8z"/>
				<path d="M730.9,24c1.5-2.6,2.3-5.6,2.3-8.6c0-3-0.7-6-2.3-8.6l1.3-0.6c1.7,2.7,2.7,5.7,2.7,9.2c0,3.6-1,6.5-2.7,9.2L730.9,24z"
					/>
				<path d="M741.3,16.1c0-3.3,2.2-5.2,4.7-5.2c2.4,0,4.7,1.9,4.7,5.2c0,3.3-2.2,5.2-4.7,5.2C743.5,21.2,741.3,19.3,741.3,16.1z
					 M748.5,16.1c0-2.1-1-3.5-2.5-3.5c-1.5,0-2.5,1.4-2.5,3.5c0,2.1,1,3.5,2.5,3.5C747.6,19.5,748.5,18.2,748.5,16.1z"/>
				<path d="M753.1,11.1h1.7l0.2,1.4h0.1c0.9-0.9,1.9-1.6,3.3-1.6c2.1,0,3,1.4,3,3.9V21h-2.1v-6c0-1.7-0.5-2.4-1.7-2.4
					c-0.9,0-1.5,0.5-2.4,1.3v7h-2.1V11.1z"/>
			</g>
			<g class="st0">
				<path d="M459.8,38.1h1.7l0.2,1.1h0.1c0.9-0.7,1.9-1.3,3-1.3c2.5,0,3.9,2,3.9,5c0,3.4-2,5.3-4.3,5.3c-0.9,0-1.8-0.4-2.6-1.1
					l0.1,1.7V52h-2.1V38.1z M466.6,42.9c0-2.1-0.7-3.3-2.3-3.3c-0.8,0-1.5,0.4-2.4,1.2v4.8c0.8,0.7,1.5,0.9,2.2,0.9
					C465.5,46.5,466.6,45.2,466.6,42.9z"/>
				<path d="M470.3,45.4c0-2.1,1.8-3.2,5.9-3.7c0-1.2-0.4-2.2-1.9-2.2c-1,0-2,0.5-2.9,1l-0.8-1.4c1-0.6,2.4-1.3,4-1.3
					c2.5,0,3.6,1.6,3.6,4.2v6h-1.7l-0.2-1.1h-0.1c-0.9,0.8-2,1.4-3.2,1.4C471.5,48.2,470.3,47.1,470.3,45.4z M476.3,45.4V43
					c-2.9,0.4-3.9,1.1-3.9,2.2c0,1,0.7,1.4,1.5,1.4C474.7,46.6,475.4,46.2,476.3,45.4z"/>
				<path d="M481.3,44.8v-5h-1.4v-1.5l1.5-0.1l0.2-2.7h1.7v2.7h2.6v1.7h-2.6v5c0,1.2,0.4,1.8,1.4,1.8c0.3,0,0.8-0.1,1.1-0.2l0.4,1.5
					c-0.6,0.2-1.2,0.4-1.9,0.4C482,48.2,481.3,46.8,481.3,44.8z"/>
				<path d="M487.8,35c0-0.7,0.6-1.2,1.3-1.2s1.3,0.5,1.3,1.2c0,0.7-0.6,1.2-1.3,1.2S487.8,35.7,487.8,35z M488.1,38.1h2.1V48h-2.1
					V38.1z"/>
				<path d="M492.5,43.1c0-3.2,2.2-5.2,4.5-5.2c2.6,0,4,1.9,4,4.7c0,0.4,0,0.8-0.1,1h-6.4c0.2,1.9,1.4,3,3.1,3
					c0.9,0,1.6-0.3,2.4-0.7l0.7,1.3c-0.9,0.6-2.1,1-3.3,1C494.7,48.2,492.5,46.3,492.5,43.1z M499.3,42.2c0-1.7-0.8-2.7-2.2-2.7
					c-1.2,0-2.3,1-2.5,2.7H499.3z"/>
				<path d="M503.4,38.1h1.7l0.2,1.4h0.1c0.9-0.9,1.9-1.6,3.3-1.6c2.1,0,3,1.4,3,3.9V48h-2.1v-6c0-1.7-0.5-2.4-1.7-2.4
					c-0.9,0-1.5,0.5-2.4,1.3v7h-2.1V38.1z"/>
				<path d="M515,44.8v-5h-1.4v-1.5l1.5-0.1l0.2-2.7h1.7v2.7h2.6v1.7H517v5c0,1.2,0.4,1.8,1.4,1.8c0.3,0,0.8-0.1,1.1-0.2l0.4,1.5
					c-0.6,0.2-1.2,0.4-1.9,0.4C515.7,48.2,515,46.8,515,44.8z"/>
				<path d="M520.5,46.9l1-1.3c0.9,0.7,1.7,1.1,2.8,1.1c1.2,0,1.7-0.6,1.7-1.3c0-0.9-1.1-1.3-2.2-1.7c-1.3-0.5-2.8-1.2-2.8-2.9
					c0-1.7,1.3-2.9,3.5-2.9c1.3,0,2.4,0.5,3.2,1.2l-1,1.3c-0.7-0.5-1.4-0.9-2.2-0.9c-1.1,0-1.6,0.5-1.6,1.2c0,0.8,1,1.2,2.1,1.6
					c1.4,0.5,2.9,1.1,2.9,3c0,1.7-1.3,3-3.8,3C522.9,48.2,521.5,47.7,520.5,46.9z"/>
				<path d="M534.3,38.1h1.7l0.2,1.4h0.1c0.9-0.9,1.9-1.6,3.3-1.6c2.1,0,3,1.4,3,3.9V48h-2.1v-6c0-1.7-0.5-2.4-1.7-2.4
					c-0.9,0-1.5,0.5-2.4,1.3v7h-2.1V38.1z"/>
				<path d="M544.8,43.1c0-3.3,2.2-5.2,4.7-5.2s4.7,1.9,4.7,5.2c0,3.3-2.2,5.2-4.7,5.2S544.8,46.3,544.8,43.1z M552,43.1
					c0-2.1-1-3.5-2.5-3.5c-1.5,0-2.5,1.4-2.5,3.5c0,2.1,1,3.5,2.5,3.5C551,46.5,552,45.2,552,43.1z"/>
				<path d="M556.5,44.8v-5H555v-1.5l1.5-0.1l0.2-2.7h1.7v2.7h2.6v1.7h-2.6v5c0,1.2,0.4,1.8,1.4,1.8c0.3,0,0.8-0.1,1.1-0.2l0.4,1.5
					c-0.6,0.2-1.2,0.4-1.9,0.4C557.2,48.2,556.5,46.8,556.5,44.8z"/>
				<path d="M566.6,43.1c0-3.3,2.2-5.2,4.7-5.2s4.7,1.9,4.7,5.2c0,3.3-2.2,5.2-4.7,5.2S566.6,46.3,566.6,43.1z M573.8,43.1
					c0-2.1-1-3.5-2.5-3.5c-1.5,0-2.5,1.4-2.5,3.5c0,2.1,1,3.5,2.5,3.5C572.8,46.5,573.8,45.2,573.8,43.1z"/>
				<path d="M578.4,38.1h1.7l0.2,1.4h0.1c0.9-0.9,1.9-1.6,3.3-1.6c2.1,0,3,1.4,3,3.9V48h-2.1v-6c0-1.7-0.5-2.4-1.7-2.4
					c-0.9,0-1.5,0.5-2.4,1.3v7h-2.1V38.1z"/>
				<path d="M593.6,38.1h1.7l0.2,1.1h0.1c0.9-0.7,1.9-1.3,3-1.3c2.5,0,3.9,2,3.9,5c0,3.4-2,5.3-4.3,5.3c-0.9,0-1.8-0.4-2.6-1.1
					l0.1,1.7V52h-2.1V38.1z M600.4,42.9c0-2.1-0.7-3.3-2.3-3.3c-0.8,0-1.5,0.4-2.4,1.2v4.8c0.8,0.7,1.5,0.9,2.2,0.9
					C599.3,46.5,600.4,45.2,600.4,42.9z"/>
				<path d="M605,38.1h1.7l0.2,1.8h0.1c0.7-1.3,1.7-2,2.8-2c0.5,0,0.8,0.1,1.1,0.2l-0.4,1.8c-0.3-0.1-0.6-0.2-1-0.2
					c-0.8,0-1.8,0.6-2.4,2.1V48H605V38.1z"/>
				<path d="M611.4,43.1c0-3.2,2.2-5.2,4.5-5.2c2.6,0,4,1.9,4,4.7c0,0.4,0,0.8-0.1,1h-6.4c0.2,1.9,1.4,3,3.1,3
					c0.9,0,1.6-0.3,2.4-0.7l0.7,1.3c-0.9,0.6-2.1,1-3.3,1C613.6,48.2,611.4,46.3,611.4,43.1z M618.2,42.2c0-1.7-0.8-2.7-2.2-2.7
					c-1.2,0-2.3,1-2.5,2.7H618.2z"/>
				<path d="M621.4,49.8c0-0.8,0.5-1.6,1.4-2.2v-0.1c-0.5-0.3-0.9-0.8-0.9-1.6c0-0.8,0.6-1.4,1.1-1.8V44c-0.7-0.5-1.3-1.5-1.3-2.6
					c0-2.3,1.8-3.6,3.8-3.6c0.6,0,1.1,0.1,1.4,0.3h3.5v1.5h-1.9c0.4,0.4,0.6,1.1,0.6,1.8c0,2.2-1.6,3.4-3.7,3.4
					c-0.5,0-1-0.1-1.4-0.3c-0.3,0.3-0.5,0.6-0.5,1c0,0.6,0.4,1,1.7,1h1.8c2.3,0,3.6,0.7,3.6,2.4c0,1.9-2,3.5-5.2,3.5
					C623.1,52.4,621.4,51.6,621.4,49.8z M628.7,49.3c0-0.8-0.6-1.1-1.9-1.1h-1.5c-0.5,0-0.9-0.1-1.3-0.1c-0.6,0.4-0.8,0.9-0.8,1.4
					c0,1,1,1.5,2.6,1.5C627.5,51.1,628.7,50.2,628.7,49.3z M627.5,41.4c0-1.3-0.8-2.1-1.9-2.1s-1.9,0.8-1.9,2.1
					c0,1.3,0.8,2.1,1.9,2.1S627.5,42.7,627.5,41.4z"/>
				<path d="M631.6,45.4c0-2.1,1.8-3.2,5.9-3.7c0-1.2-0.4-2.2-1.9-2.2c-1,0-2,0.5-2.9,1l-0.8-1.4c1-0.6,2.4-1.3,4-1.3
					c2.5,0,3.6,1.6,3.6,4.2v6h-1.7l-0.2-1.1h-0.1c-0.9,0.8-2,1.4-3.2,1.4C632.8,48.2,631.6,47.1,631.6,45.4z M637.5,45.4V43
					c-2.9,0.4-3.9,1.1-3.9,2.2c0,1,0.7,1.4,1.5,1.4C636,46.6,636.7,46.2,637.5,45.4z"/>
				<path d="M644.4,47L644.4,47l-0.3,1h-1.6V33.6h2.1v3.8l-0.1,1.7c0.8-0.7,1.9-1.3,3-1.3c2.5,0,3.9,2,3.9,5c0,3.4-2,5.3-4.3,5.3
					C646.2,48.2,645.3,47.8,644.4,47z M649.3,42.9c0-2.1-0.7-3.3-2.3-3.3c-0.8,0-1.5,0.4-2.4,1.2v4.8c0.8,0.7,1.5,0.9,2.2,0.9
					C648.2,46.5,649.3,45.2,649.3,42.9z"/>
				<path d="M653,45.4c0-2.1,1.8-3.2,5.9-3.7c0-1.2-0.4-2.2-1.9-2.2c-1,0-2,0.5-2.9,1l-0.8-1.4c1-0.6,2.4-1.3,4-1.3
					c2.5,0,3.6,1.6,3.6,4.2v6h-1.7l-0.2-1.1h-0.1c-0.9,0.8-2,1.4-3.2,1.4C654.2,48.2,653,47.1,653,45.4z M658.9,45.4V43
					c-2.9,0.4-3.9,1.1-3.9,2.2c0,1,0.7,1.4,1.5,1.4C657.4,46.6,658.1,46.2,658.9,45.4z"/>
				<path d="M663.9,45.7v-12h2.1v12.1c0,0.6,0.3,0.8,0.5,0.8c0.1,0,0.2,0,0.3,0l0.3,1.6c-0.3,0.1-0.6,0.2-1.1,0.2
					C664.5,48.2,663.9,47.3,663.9,45.7z"/>
				<path d="M669,35c0-0.7,0.6-1.2,1.3-1.2c0.8,0,1.3,0.5,1.3,1.2c0,0.7-0.6,1.2-1.3,1.2C669.6,36.2,669,35.7,669,35z M669.3,38.1
					h2.1V48h-2.1V38.1z"/>
				<path d="M674.5,38.1h1.7l0.2,1.4h0.1c0.9-0.9,1.9-1.6,3.3-1.6c2.1,0,3,1.4,3,3.9V48h-2.1v-6c0-1.7-0.5-2.4-1.7-2.4
					c-0.9,0-1.5,0.5-2.4,1.3v7h-2.1V38.1z"/>
				<path d="M689,43.1c0-3.3,2.2-5.2,4.7-5.2c2.4,0,4.7,1.9,4.7,5.2c0,3.3-2.2,5.2-4.7,5.2C691.3,48.2,689,46.3,689,43.1z
					 M696.2,43.1c0-2.1-1-3.5-2.5-3.5c-1.5,0-2.5,1.4-2.5,3.5c0,2.1,1,3.5,2.5,3.5C695.3,46.5,696.2,45.2,696.2,43.1z"/>
				<path d="M700.8,38.1h1.7l0.2,1.8h0.1c0.7-1.3,1.7-2,2.8-2c0.5,0,0.8,0.1,1.1,0.2l-0.4,1.8c-0.3-0.1-0.6-0.2-1-0.2
					c-0.8,0-1.8,0.6-2.4,2.1V48h-2.1V38.1z"/>
				<path d="M711.5,49.8c0-0.8,0.5-1.6,1.4-2.2v-0.1c-0.5-0.3-0.9-0.8-0.9-1.6c0-0.8,0.6-1.4,1.1-1.8V44c-0.7-0.5-1.3-1.5-1.3-2.6
					c0-2.3,1.8-3.6,3.8-3.6c0.6,0,1.1,0.1,1.4,0.3h3.5v1.5h-1.9c0.4,0.4,0.6,1.1,0.6,1.8c0,2.2-1.6,3.4-3.7,3.4
					c-0.4,0-1-0.1-1.4-0.3c-0.3,0.3-0.5,0.6-0.5,1c0,0.6,0.4,1,1.7,1h1.8c2.3,0,3.6,0.7,3.6,2.4c0,1.9-2,3.5-5.2,3.5
					C713.2,52.4,711.5,51.6,711.5,49.8z M718.8,49.3c0-0.8-0.6-1.1-1.9-1.1h-1.5c-0.5,0-0.9-0.1-1.3-0.1c-0.6,0.4-0.8,0.9-0.8,1.4
					c0,1,1,1.5,2.6,1.5C717.6,51.1,718.8,50.2,718.8,49.3z M717.5,41.4c0-1.3-0.8-2.1-1.9-2.1c-1,0-1.9,0.8-1.9,2.1
					c0,1.3,0.8,2.1,1.9,2.1C716.7,43.5,717.5,42.7,717.5,41.4z"/>
				<path d="M721.7,45.4c0-2.1,1.8-3.2,5.9-3.7c0-1.2-0.4-2.2-1.9-2.2c-1,0-2,0.5-2.9,1l-0.8-1.4c1-0.6,2.4-1.3,4-1.3
					c2.5,0,3.6,1.6,3.6,4.2v6H728l-0.2-1.1h-0.1c-0.9,0.8-2,1.4-3.2,1.4C722.9,48.2,721.7,47.1,721.7,45.4z M727.6,45.4V43
					c-2.9,0.4-3.9,1.1-3.9,2.2c0,1,0.7,1.4,1.5,1.4C726.1,46.6,726.8,46.2,727.6,45.4z"/>
				<path d="M734.5,47L734.5,47l-0.3,1h-1.6V33.6h2.1v3.8l-0.1,1.7c0.8-0.7,1.9-1.3,3-1.3c2.5,0,3.9,2,3.9,5c0,3.4-2,5.3-4.3,5.3
					C736.3,48.2,735.3,47.8,734.5,47z M739.4,42.9c0-2.1-0.7-3.3-2.3-3.3c-0.8,0-1.5,0.4-2.4,1.2v4.8c0.8,0.7,1.5,0.9,2.2,0.9
					C738.3,46.5,739.4,45.2,739.4,42.9z"/>
				<path d="M743.1,45.4c0-2.1,1.8-3.2,5.9-3.7c0-1.2-0.4-2.2-1.9-2.2c-1,0-2,0.5-2.9,1l-0.8-1.4c1-0.6,2.4-1.3,4-1.3
					c2.5,0,3.6,1.6,3.6,4.2v6h-1.7l-0.2-1.1h-0.1c-0.9,0.8-2,1.4-3.2,1.4C744.3,48.2,743.1,47.1,743.1,45.4z M749,45.4V43
					c-2.9,0.4-3.9,1.1-3.9,2.2c0,1,0.7,1.4,1.5,1.4C747.5,46.6,748.2,46.2,749,45.4z"/>
				<path d="M754,38.1h1.7l0.2,1.1h0.1c0.9-0.7,1.9-1.3,3-1.3c2.5,0,3.9,2,3.9,5c0,3.4-2,5.3-4.3,5.3c-0.9,0-1.8-0.4-2.6-1.1
					l0.1,1.7V52H754V38.1z M760.8,42.9c0-2.1-0.7-3.3-2.3-3.3c-0.8,0-1.5,0.4-2.4,1.2v4.8c0.8,0.7,1.5,0.9,2.2,0.9
					C759.7,46.5,760.8,45.2,760.8,42.9z"/>
				<path d="M764.7,43.1c0-3.2,2.2-5.2,4.5-5.2c2.6,0,4,1.9,4,4.7c0,0.4,0,0.8-0.1,1h-6.4c0.2,1.9,1.4,3,3.1,3
					c0.9,0,1.6-0.3,2.4-0.7l0.7,1.3c-0.9,0.6-2.1,1-3.3,1C766.8,48.2,764.7,46.3,764.7,43.1z M771.4,42.2c0-1.7-0.8-2.7-2.2-2.7
					c-1.2,0-2.3,1-2.5,2.7H771.4z"/>
				<path d="M775.5,38.1h1.7l0.2,1.4h0.1c0.9-0.9,1.9-1.6,3.3-1.6c2.1,0,3,1.4,3,3.9V48h-2.1v-6c0-1.7-0.5-2.4-1.7-2.4
					c-0.9,0-1.5,0.5-2.4,1.3v7h-2.1V38.1z"/>
				<path d="M787.1,44.8v-5h-1.4v-1.5l1.5-0.1l0.2-2.7h1.7v2.7h2.6v1.7h-2.6v5c0,1.2,0.4,1.8,1.4,1.8c0.3,0,0.8-0.1,1.1-0.2l0.4,1.5
					c-0.6,0.2-1.2,0.4-1.9,0.4C787.9,48.2,787.1,46.8,787.1,44.8z"/>
				<path d="M793.6,35c0-0.7,0.6-1.2,1.3-1.2s1.3,0.5,1.3,1.2c0,0.7-0.6,1.2-1.3,1.2S793.6,35.7,793.6,35z M793.9,38.1h2.1V48h-2.1
					V38.1z"/>
				<path d="M799.1,38.1h1.7l0.2,1.4h0.1c0.9-0.9,1.9-1.6,3.3-1.6c2.1,0,3,1.4,3,3.9V48h-2.1v-6c0-1.7-0.5-2.4-1.7-2.4
					c-0.9,0-1.5,0.5-2.4,1.3v7h-2.1V38.1z"/>
			</g>
			<g id="그래프2" transform="translate(439.000000, 74.000000)">
				<g>
					<g class="st0">
						<path d="M1.2,5.4h3.2c2.1,0,3.8,0.7,3.8,3c0,2.2-1.7,3.2-3.7,3.2H3.1V15H1.2V5.4z M4.3,10.1c1.3,0,2-0.6,2-1.7
							c0-1.1-0.7-1.5-2-1.5H3.1v3.2H4.3z"/>
						<path d="M8.8,13c0-1.6,1.3-2.4,4.2-2.7c0-0.7-0.3-1.3-1.2-1.3c-0.7,0-1.3,0.3-2,0.7L9.1,8.5c0.9-0.5,1.9-1,3-1
							c1.8,0,2.8,1.1,2.8,3.2V15h-1.6l-0.1-0.8h0c-0.6,0.5-1.4,1-2.2,1C9.7,15.2,8.8,14.3,8.8,13z M13,13v-1.5
							c-1.8,0.2-2.4,0.7-2.4,1.4c0,0.6,0.4,0.8,1,0.8C12.1,13.7,12.5,13.4,13,13z"/>
						<path d="M16.9,12.5V9.2h-1V7.8L17,7.7l0.2-2h1.6v2h1.8v1.5h-1.8v3.2c0,0.8,0.3,1.2,1,1.2c0.2,0,0.5-0.1,0.7-0.2l0.3,1.4
							c-0.4,0.1-0.9,0.3-1.5,0.3C17.5,15.2,16.9,14.1,16.9,12.5z"/>
						<path d="M21.9,5.5c0-0.6,0.5-1,1.1-1c0.7,0,1.1,0.4,1.1,1c0,0.6-0.5,1-1.1,1C22.4,6.5,21.9,6.1,21.9,5.5z M22.1,7.7H24V15
							h-1.9V7.7z"/>
						<path d="M25.6,11.4c0-2.4,1.7-3.8,3.4-3.8c2,0,3,1.5,3,3.5c0,0.4,0,0.7-0.1,0.9h-4.5c0.2,1.2,0.9,1.8,2,1.8
							c0.6,0,1.1-0.2,1.6-0.5l0.7,1.2c-0.7,0.5-1.6,0.8-2.5,0.8C27.1,15.2,25.6,13.8,25.6,11.4z M30.4,10.6c0-1-0.4-1.6-1.4-1.6
							c-0.8,0-1.4,0.5-1.6,1.6H30.4z"/>
						<path d="M33.6,7.7h1.6l0.1,1h0.1c0.6-0.6,1.4-1.1,2.4-1.1c1.6,0,2.2,1.1,2.2,2.9V15H38v-4.3c0-1.1-0.3-1.5-1-1.5
							c-0.6,0-1,0.3-1.5,0.8v5h-1.9V7.7z"/>
						<path d="M42.2,12.5V9.2h-1V7.8l1.1-0.1l0.2-2h1.6v2h1.8v1.5h-1.8v3.2c0,0.8,0.3,1.2,1,1.2c0.2,0,0.5-0.1,0.7-0.2l0.3,1.4
							c-0.4,0.1-0.9,0.3-1.5,0.3C42.8,15.2,42.2,14.1,42.2,12.5z"/>
						<path d="M46.5,14.2l0.9-1.2c0.7,0.5,1.3,0.8,2,0.8c0.7,0,1.1-0.3,1.1-0.8c0-0.5-0.8-0.8-1.5-1.1c-0.9-0.4-2-0.9-2-2.1
							c0-1.3,1.1-2.2,2.7-2.2c1.1,0,1.9,0.4,2.5,0.9l-0.9,1.2c-0.5-0.4-1-0.6-1.6-0.6c-0.6,0-1,0.3-1,0.7c0,0.5,0.7,0.7,1.5,1
							c1,0.4,2,0.8,2,2.2c0,1.3-1,2.3-2.9,2.3C48.3,15.2,47.2,14.8,46.5,14.2z"/>
						<path d="M56.6,7.7h1.6l0.1,1h0.1c0.6-0.6,1.4-1.1,2.4-1.1c1.6,0,2.2,1.1,2.2,2.9V15H61v-4.3c0-1.1-0.3-1.5-1-1.5
							c-0.6,0-1,0.3-1.5,0.8v5h-1.9V7.7z"/>
						<path d="M64.5,11.4c0-2.4,1.7-3.8,3.5-3.8c1.8,0,3.5,1.4,3.5,3.8c0,2.4-1.7,3.8-3.5,3.8C66.1,15.2,64.5,13.8,64.5,11.4z
							 M69.5,11.4c0-1.4-0.6-2.3-1.5-2.3c-1,0-1.5,0.9-1.5,2.3c0,1.4,0.6,2.2,1.5,2.2C69,13.6,69.5,12.7,69.5,11.4z"/>
						<path d="M73,12.5V9.2h-1V7.8l1.1-0.1l0.2-2h1.6v2h1.8v1.5h-1.8v3.2c0,0.8,0.3,1.2,1,1.2c0.2,0,0.5-0.1,0.7-0.2l0.3,1.4
							c-0.4,0.1-0.9,0.3-1.5,0.3C73.6,15.2,73,14.1,73,12.5z"/>
						<path d="M80.7,11.4c0-2.4,1.7-3.8,3.5-3.8s3.5,1.4,3.5,3.8c0,2.4-1.7,3.8-3.5,3.8S80.7,13.8,80.7,11.4z M85.7,11.4
							c0-1.4-0.6-2.3-1.5-2.3s-1.5,0.9-1.5,2.3c0,1.4,0.6,2.2,1.5,2.2S85.7,12.7,85.7,11.4z"/>
						<path d="M89.2,7.7h1.6l0.1,1H91c0.6-0.6,1.4-1.1,2.4-1.1c1.6,0,2.2,1.1,2.2,2.9V15h-1.9v-4.3c0-1.1-0.3-1.5-1-1.5
							c-0.6,0-1,0.3-1.5,0.8v5h-1.9V7.7z"/>
						<path d="M100.5,7.7h1.6l0.1,0.8h0.1c0.6-0.5,1.4-0.9,2.1-0.9c1.8,0,2.9,1.5,2.9,3.7c0,2.5-1.5,3.9-3.1,3.9
							c-0.6,0-1.2-0.3-1.8-0.8l0.1,1.2v2.2h-1.9V7.7z M105.3,11.3c0-1.4-0.4-2.2-1.4-2.2c-0.5,0-0.9,0.2-1.4,0.8v3.2
							c0.5,0.4,0.9,0.5,1.3,0.5C104.6,13.6,105.3,12.9,105.3,11.3z"/>
						<path d="M108.9,7.7h1.6l0.1,1.3h0.1c0.5-0.9,1.3-1.5,2.1-1.5c0.4,0,0.6,0.1,0.9,0.2l-0.3,1.7c-0.2-0.1-0.5-0.1-0.8-0.1
							c-0.6,0-1.3,0.4-1.7,1.4V15h-1.9V7.7z"/>
						<path d="M114,11.4c0-2.4,1.7-3.8,3.4-3.8c2,0,3,1.5,3,3.5c0,0.4,0,0.7-0.1,0.9h-4.5c0.2,1.2,0.9,1.8,2,1.8
							c0.6,0,1.1-0.2,1.6-0.5l0.7,1.2c-0.7,0.5-1.6,0.8-2.5,0.8C115.5,15.2,114,13.8,114,11.4z M118.8,10.6c0-1-0.4-1.6-1.4-1.6
							c-0.8,0-1.4,0.5-1.6,1.6H118.8z"/>
						<path d="M121.3,16.3c0-0.6,0.4-1.1,1-1.5v-0.1c-0.4-0.2-0.7-0.6-0.7-1.2c0-0.5,0.4-1.1,0.8-1.4v-0.1c-0.5-0.4-1-1.1-1-1.9
							c0-1.7,1.4-2.6,2.9-2.6c0.4,0,0.8,0.1,1.1,0.2h2.6v1.4H127c0.2,0.2,0.3,0.6,0.3,1.1c0,1.6-1.2,2.5-2.8,2.5
							c-0.3,0-0.6-0.1-0.9-0.2c-0.2,0.2-0.3,0.3-0.3,0.6c0,0.4,0.3,0.6,1.1,0.6h1.2c1.8,0,2.7,0.5,2.7,1.8c0,1.5-1.5,2.6-4,2.6
							C122.7,18.2,121.3,17.6,121.3,16.3z M126.5,15.9c0-0.5-0.4-0.7-1.2-0.7h-0.9c-0.4,0-0.8,0-1-0.1c-0.3,0.3-0.5,0.5-0.5,0.8
							c0,0.6,0.7,1,1.7,1C125.7,17,126.5,16.5,126.5,15.9z M125.6,10.2c0-0.9-0.5-1.3-1.1-1.3c-0.6,0-1.1,0.5-1.1,1.3
							s0.5,1.3,1.1,1.3C125.1,11.5,125.6,11,125.6,10.2z"/>
						<path d="M128.9,13c0-1.6,1.3-2.4,4.2-2.7c0-0.7-0.3-1.3-1.2-1.3c-0.7,0-1.3,0.3-2,0.7l-0.7-1.3c0.9-0.5,1.9-1,3-1
							c1.8,0,2.8,1.1,2.8,3.2V15h-1.6l-0.1-0.8h0c-0.6,0.5-1.4,1-2.2,1C129.8,15.2,128.9,14.3,128.9,13z M133.1,13v-1.5
							c-1.8,0.2-2.4,0.7-2.4,1.4c0,0.6,0.4,0.8,1,0.8C132.3,13.7,132.7,13.4,133.1,13z"/>
						<path d="M138.7,14.2L138.7,14.2l-0.2,0.8H137V4.6h1.9v2.6l0,1.2c0.6-0.5,1.3-0.9,2-0.9c1.8,0,2.9,1.5,2.9,3.7
							c0,2.5-1.5,4-3.1,4C140,15.2,139.3,14.8,138.7,14.2z M141.8,11.3c0-1.4-0.4-2.2-1.4-2.2c-0.5,0-0.9,0.2-1.4,0.8v3.2
							c0.5,0.4,0.9,0.5,1.3,0.5C141.1,13.6,141.8,12.9,141.8,11.3z"/>
						<path d="M144.8,13c0-1.6,1.3-2.4,4.2-2.7c0-0.7-0.3-1.3-1.2-1.3c-0.7,0-1.3,0.3-2,0.7l-0.7-1.3c0.9-0.5,1.9-1,3-1
							c1.8,0,2.8,1.1,2.8,3.2V15h-1.6l-0.1-0.8h0c-0.6,0.5-1.4,1-2.2,1C145.7,15.2,144.8,14.3,144.8,13z M149,13v-1.5
							c-1.8,0.2-2.4,0.7-2.4,1.4c0,0.6,0.4,0.8,1,0.8C148.1,13.7,148.5,13.4,149,13z"/>
						<path d="M152.9,13V4.6h1.9V13c0,0.4,0.2,0.6,0.4,0.6c0.1,0,0.1,0,0.3,0l0.2,1.4c-0.2,0.1-0.5,0.2-1,0.2
							C153.3,15.2,152.9,14.3,152.9,13z"/>
						<path d="M156.8,5.5c0-0.6,0.5-1,1.1-1c0.6,0,1.1,0.4,1.1,1c0,0.6-0.5,1-1.1,1C157.2,6.5,156.8,6.1,156.8,5.5z M156.9,7.7h1.9
							V15h-1.9V7.7z"/>
						<path d="M160.9,7.7h1.6l0.1,1h0.1c0.6-0.6,1.4-1.1,2.4-1.1c1.6,0,2.2,1.1,2.2,2.9V15h-1.9v-4.3c0-1.1-0.3-1.5-1-1.5
							c-0.6,0-1,0.3-1.5,0.8v5h-1.9V7.7z"/>
						<path d="M171.7,11.4c0-2.4,1.7-3.8,3.5-3.8s3.5,1.4,3.5,3.8c0,2.4-1.7,3.8-3.5,3.8S171.7,13.8,171.7,11.4z M176.8,11.4
							c0-1.4-0.6-2.3-1.5-2.3s-1.5,0.9-1.5,2.3c0,1.4,0.6,2.2,1.5,2.2S176.8,12.7,176.8,11.4z"/>
						<path d="M180.3,7.7h1.6L182,9h0.1c0.5-0.9,1.3-1.5,2.1-1.5c0.4,0,0.6,0.1,0.9,0.2l-0.3,1.7c-0.2-0.1-0.5-0.1-0.8-0.1
							c-0.6,0-1.3,0.4-1.7,1.4V15h-1.9V7.7z"/>
						<path d="M188.5,16.3c0-0.6,0.4-1.1,1-1.5v-0.1c-0.4-0.2-0.7-0.6-0.7-1.2c0-0.5,0.4-1.1,0.8-1.4v-0.1c-0.5-0.4-1-1.1-1-1.9
							c0-1.7,1.4-2.6,2.9-2.6c0.4,0,0.8,0.1,1.1,0.2h2.6v1.4h-1.2c0.2,0.2,0.3,0.6,0.3,1.1c0,1.6-1.2,2.5-2.8,2.5
							c-0.3,0-0.6-0.1-0.9-0.2c-0.2,0.2-0.3,0.3-0.3,0.6c0,0.4,0.3,0.6,1.1,0.6h1.2c1.8,0,2.7,0.5,2.7,1.8c0,1.5-1.5,2.6-4,2.6
							C189.8,18.2,188.5,17.6,188.5,16.3z M193.6,15.9c0-0.5-0.4-0.7-1.2-0.7h-0.9c-0.4,0-0.8,0-1-0.1c-0.3,0.3-0.5,0.5-0.5,0.8
							c0,0.6,0.7,1,1.7,1C192.9,17,193.6,16.5,193.6,15.9z M192.7,10.2c0-0.9-0.5-1.3-1.1-1.3s-1.1,0.5-1.1,1.3s0.5,1.3,1.1,1.3
							S192.7,11,192.7,10.2z"/>
						<path d="M196.1,13c0-1.6,1.3-2.4,4.2-2.7c0-0.7-0.3-1.3-1.2-1.3c-0.7,0-1.3,0.3-2,0.7l-0.7-1.3c0.9-0.5,1.9-1,3-1
							c1.8,0,2.8,1.1,2.8,3.2V15h-1.6l-0.1-0.8h0c-0.6,0.5-1.4,1-2.2,1C196.9,15.2,196.1,14.3,196.1,13z M200.2,13v-1.5
							c-1.8,0.2-2.4,0.7-2.4,1.4c0,0.6,0.4,0.8,1,0.8C199.4,13.7,199.8,13.4,200.2,13z"/>
						<path d="M205.8,14.2L205.8,14.2l-0.2,0.8h-1.5V4.6h1.9v2.6l0,1.2c0.6-0.5,1.3-0.9,2-0.9c1.8,0,2.9,1.5,2.9,3.7
							c0,2.5-1.5,4-3.1,4C207.1,15.2,206.4,14.8,205.8,14.2z M208.9,11.3c0-1.4-0.4-2.2-1.4-2.2c-0.5,0-0.9,0.2-1.4,0.8v3.2
							c0.5,0.4,0.9,0.5,1.3,0.5C208.2,13.6,208.9,12.9,208.9,11.3z"/>
						<path d="M211.9,13c0-1.6,1.3-2.4,4.2-2.7c0-0.7-0.3-1.3-1.2-1.3c-0.7,0-1.3,0.3-2,0.7l-0.7-1.3c0.9-0.5,1.9-1,3-1
							c1.8,0,2.8,1.1,2.8,3.2V15h-1.6l-0.1-0.8h0c-0.6,0.5-1.4,1-2.2,1C212.8,15.2,211.9,14.3,211.9,13z M216.1,13v-1.5
							c-1.8,0.2-2.4,0.7-2.4,1.4c0,0.6,0.4,0.8,1,0.8C215.3,13.7,215.7,13.4,216.1,13z"/>
						<path d="M220,7.7h1.6l0.1,0.8h0.1c0.6-0.5,1.4-0.9,2.1-0.9c1.8,0,2.9,1.5,2.9,3.7c0,2.5-1.5,3.9-3.1,3.9
							c-0.6,0-1.2-0.3-1.8-0.8l0.1,1.2v2.2H220V7.7z M224.8,11.3c0-1.4-0.4-2.2-1.4-2.2c-0.5,0-0.9,0.2-1.4,0.8v3.2
							c0.5,0.4,0.9,0.5,1.3,0.5C224.1,13.6,224.8,12.9,224.8,11.3z"/>
						<path d="M227.9,11.4c0-2.4,1.7-3.8,3.4-3.8c2,0,3,1.5,3,3.5c0,0.4,0,0.7-0.1,0.9h-4.5c0.2,1.2,0.9,1.8,2,1.8
							c0.6,0,1.1-0.2,1.6-0.5l0.7,1.2c-0.7,0.5-1.6,0.8-2.5,0.8C229.5,15.2,227.9,13.8,227.9,11.4z M232.7,10.6c0-1-0.4-1.6-1.4-1.6
							c-0.8,0-1.4,0.5-1.6,1.6H232.7z"/>
						<path d="M235.9,7.7h1.6l0.1,1h0.1c0.6-0.6,1.4-1.1,2.4-1.1c1.6,0,2.2,1.1,2.2,2.9V15h-1.9v-4.3c0-1.1-0.3-1.5-1-1.5
							c-0.6,0-1,0.3-1.5,0.8v5h-1.9V7.7z"/>
						<path d="M244.5,12.5V9.2h-1V7.8l1.1-0.1l0.2-2h1.6v2h1.8v1.5h-1.8v3.2c0,0.8,0.3,1.2,1,1.2c0.2,0,0.5-0.1,0.7-0.2l0.3,1.4
							c-0.4,0.1-0.9,0.3-1.5,0.3C245.2,15.2,244.5,14.1,244.5,12.5z"/>
						<path d="M249.5,5.5c0-0.6,0.5-1,1.1-1c0.6,0,1.1,0.4,1.1,1c0,0.6-0.5,1-1.1,1C250,6.5,249.5,6.1,249.5,5.5z M249.7,7.7h1.9V15
							h-1.9V7.7z"/>
						<path d="M253.7,7.7h1.6l0.1,1h0.1c0.6-0.6,1.4-1.1,2.4-1.1c1.6,0,2.2,1.1,2.2,2.9V15h-1.9v-4.3c0-1.1-0.3-1.5-1-1.5
							c-0.6,0-1,0.3-1.5,0.8v5h-1.9V7.7z"/>
						<path d="M261.6,16.7c1-0.4,1.6-1,1.6-1.8c0,0-0.1,0-0.1,0c-0.6,0-1.2-0.4-1.2-1.1c0-0.7,0.6-1.1,1.2-1.1
							c0.9,0,1.4,0.7,1.4,1.9c0,1.5-0.9,2.7-2.5,3.2L261.6,16.7z"/>
					</g>
					<g class="st0">
						<path d="M269.3,7.9h1l0.1,1h0c0.7-0.7,1.4-1.2,2.4-1.2c1.5,0,2.2,1,2.2,2.8V15h-1.2v-4.3c0-1.3-0.4-1.9-1.3-1.9
							c-0.7,0-1.2,0.4-1.9,1.1V15h-1.2V7.9z"/>
						<path d="M276.6,8.2h6.2v0.9h-6.2V8.2z M276.6,11.3h6.2v0.9h-6.2V11.3z"/>
						<path d="M290.1,12.4h-1.3V15h-1.1v-2.6h-4.1v-0.8l4-6.1h1.3v6h1.3V12.4z M287.7,11.4V8.5c0-0.5,0.1-1.2,0.1-1.7h-0.1
							c-0.2,0.5-0.5,0.9-0.8,1.4l-2.2,3.2H287.7z"/>
						<path d="M291.9,13.5c0.4,0.5,1,0.7,1.6,0.7c1.2,0,2.3-1,2.4-4c-0.6,0.7-1.4,1.2-2.2,1.2c-1.6,0-2.6-1-2.6-3
							c0-1.8,1.2-3.1,2.7-3.1c1.8,0,3.2,1.5,3.2,4.5c0,3.9-1.7,5.3-3.5,5.3c-1,0-1.8-0.4-2.3-1L291.9,13.5z M295.9,9.2
							c-0.1-2-0.9-3-2.1-3c-0.9,0-1.6,0.9-1.6,2.2c0,1.3,0.6,2.1,1.7,2.1C294.5,10.5,295.3,10.1,295.9,9.2z"/>
					</g>
					<g class="st0">
						<path d="M215,412.4h2.1l1.6,4.5c0.2,0.6,0.4,1.2,0.6,1.9h0.1c0.2-0.6,0.4-1.3,0.6-1.9l1.6-4.5h2.1v9.6H222v-4
							c0-0.9,0.1-2.2,0.2-3.2h-0.1l-0.8,2.3l-1.5,4h-1.1l-1.5-4l-0.8-2.3h-0.1c0.1,0.9,0.2,2.2,0.2,3.2v4H215V412.4z"/>
						<path d="M225.5,418.4c0-2.4,1.7-3.8,3.5-3.8s3.5,1.4,3.5,3.8c0,2.4-1.7,3.8-3.5,3.8S225.5,420.8,225.5,418.4z M230.5,418.4
							c0-1.4-0.6-2.3-1.5-2.3s-1.5,0.9-1.5,2.3c0,1.4,0.6,2.2,1.5,2.2S230.5,419.7,230.5,418.4z"/>
						<path d="M234.1,414.7h1.6l0.1,1h0.1c0.6-0.6,1.4-1.1,2.4-1.1c1.6,0,2.2,1.1,2.2,2.9v4.5h-1.9v-4.3c0-1.1-0.3-1.5-1-1.5
							c-0.6,0-1,0.3-1.5,0.8v5h-1.9V414.7z"/>
						<path d="M242.7,419.5v-3.2h-1v-1.4l1.1-0.1l0.2-2h1.6v2h1.8v1.5h-1.8v3.2c0,0.8,0.3,1.2,1,1.2c0.2,0,0.5-0.1,0.7-0.2l0.3,1.4
							c-0.4,0.1-0.9,0.3-1.5,0.3C243.4,422.2,242.7,421.1,242.7,419.5z"/>
						<path d="M247.9,411.6h1.9v2.6l-0.1,1.4c0.6-0.5,1.3-1.1,2.3-1.1c1.6,0,2.2,1.1,2.2,2.9v4.5h-1.9v-4.3c0-1.1-0.3-1.5-1-1.5
							c-0.6,0-1,0.3-1.5,0.8v5h-1.9V411.6z"/>
						<path d="M255.5,421.2l0.9-1.2c0.6,0.5,1.3,0.8,2,0.8c0.7,0,1.1-0.3,1.1-0.8c0-0.5-0.8-0.8-1.5-1.1c-0.9-0.4-2-0.9-2-2.1
							c0-1.3,1.1-2.2,2.7-2.2c1.1,0,1.9,0.4,2.5,0.9l-0.9,1.2c-0.5-0.4-1-0.6-1.6-0.6c-0.7,0-1,0.3-1,0.7c0,0.5,0.7,0.7,1.5,1
							c1,0.4,2,0.8,2,2.2c0,1.3-1,2.3-2.9,2.3C257.3,422.2,256.2,421.8,255.5,421.2z"/>
						<path d="M265.2,420c0-1.6,1.3-2.4,4.2-2.7c0-0.7-0.3-1.3-1.2-1.3c-0.7,0-1.3,0.3-2,0.7l-0.7-1.3c0.9-0.5,1.9-1,3-1
							c1.8,0,2.8,1.1,2.8,3.2v4.3h-1.6l-0.1-0.8h0c-0.6,0.5-1.4,1-2.2,1C266.1,422.2,265.2,421.3,265.2,420z M269.4,420v-1.5
							c-1.8,0.2-2.4,0.7-2.4,1.4c0,0.6,0.4,0.8,1,0.8C268.5,420.7,268.9,420.4,269.4,420z"/>
						<path d="M277.2,413.1c-0.2-0.1-0.5-0.2-0.8-0.2c-0.6,0-0.9,0.3-0.9,1.1v0.6h1.4v1.5h-1.4v5.8h-1.9v-5.8h-1v-1.4l1-0.1v-0.6
							c0-1.5,0.7-2.7,2.5-2.7c0.6,0,1.1,0.1,1.4,0.3L277.2,413.1z"/>
						<path d="M278.4,419.5v-3.2h-1v-1.4l1.1-0.1l0.2-2h1.6v2h1.8v1.5h-1.8v3.2c0,0.8,0.3,1.2,1,1.2c0.2,0,0.5-0.1,0.7-0.2l0.3,1.4
							c-0.4,0.1-0.9,0.3-1.5,0.3C279,422.2,278.4,421.1,278.4,419.5z"/>
						<path d="M282.9,418.4c0-2.4,1.7-3.8,3.4-3.8c2,0,3,1.5,3,3.5c0,0.4,0,0.7-0.1,0.9h-4.5c0.2,1.2,0.9,1.8,2,1.8
							c0.6,0,1.1-0.2,1.6-0.5l0.6,1.2c-0.7,0.5-1.6,0.8-2.5,0.8C284.4,422.2,282.9,420.8,282.9,418.4z M287.7,417.6
							c0-1-0.4-1.6-1.4-1.6c-0.8,0-1.4,0.5-1.6,1.6H287.7z"/>
						<path d="M290.9,414.7h1.6l0.1,1.3h0.1c0.5-0.9,1.3-1.5,2.1-1.5c0.4,0,0.6,0.1,0.9,0.2l-0.3,1.7c-0.2-0.1-0.5-0.1-0.8-0.1
							c-0.6,0-1.3,0.4-1.7,1.4v4.3h-1.9V414.7z"/>
						<path d="M299.8,414.1c0-1.5,0.7-2.7,2.5-2.7c0.6,0,1.1,0.1,1.4,0.3l-0.4,1.4c-0.2-0.1-0.5-0.2-0.8-0.2c-0.6,0-0.9,0.3-0.9,1.1
							v0.6h1.4v1.5h-1.4v5.8h-1.9v-5.8h-1v-1.4l1-0.1V414.1z M304.4,412.5c0-0.6,0.5-1,1.1-1c0.7,0,1.2,0.4,1.2,1c0,0.6-0.5,1-1.2,1
							C304.9,413.5,304.4,413.1,304.4,412.5z M304.6,414.7h1.9v7.3h-1.9V414.7z"/>
						<path d="M308.5,414.7h1.6l0.1,1.3h0.1c0.5-0.9,1.3-1.5,2.1-1.5c0.4,0,0.6,0.1,0.9,0.2l-0.3,1.7c-0.2-0.1-0.5-0.1-0.8-0.1
							c-0.6,0-1.3,0.4-1.7,1.4v4.3h-1.9V414.7z"/>
						<path d="M313.4,421.2l0.9-1.2c0.6,0.5,1.3,0.8,2,0.8c0.7,0,1.1-0.3,1.1-0.8c0-0.5-0.8-0.8-1.5-1.1c-0.9-0.4-2-0.9-2-2.1
							c0-1.3,1.1-2.2,2.7-2.2c1.1,0,1.9,0.4,2.5,0.9l-0.9,1.2c-0.5-0.4-1-0.6-1.6-0.6c-0.7,0-1,0.3-1,0.7c0,0.5,0.7,0.7,1.5,1
							c1,0.4,2,0.8,2,2.2c0,1.3-1,2.3-2.9,2.3C315.2,422.2,314.1,421.8,313.4,421.2z"/>
						<path d="M320.5,419.5v-3.2h-1v-1.4l1.1-0.1l0.2-2h1.6v2h1.8v1.5h-1.8v3.2c0,0.8,0.3,1.2,1,1.2c0.2,0,0.5-0.1,0.7-0.2l0.3,1.4
							c-0.4,0.1-0.9,0.3-1.5,0.3C321.2,422.2,320.5,421.1,320.5,419.5z"/>
						<path d="M328.5,412.5c0-0.6,0.5-1,1.1-1c0.6,0,1.1,0.4,1.1,1c0,0.6-0.5,1-1.1,1C328.9,413.5,328.5,413.1,328.5,412.5z
							 M328.6,414.7h1.9v7.3h-1.9V414.7z"/>
						<path d="M332.6,414.7h1.6l0.1,1h0.1c0.6-0.6,1.4-1.1,2.4-1.1c1.6,0,2.2,1.1,2.2,2.9v4.5H337v-4.3c0-1.1-0.3-1.5-1-1.5
							c-0.6,0-1,0.3-1.5,0.8v5h-1.9V414.7z"/>
						<path d="M339.2,424.8l0.3-1.4c0.2,0.1,0.4,0.1,0.6,0.1c0.6,0,0.8-0.4,0.8-1.2v-7.5h1.9v7.5c0,1.6-0.6,2.8-2.4,2.8
							C339.9,425,339.5,424.9,339.2,424.8z M340.8,412.5c0-0.6,0.5-1,1.1-1c0.7,0,1.1,0.4,1.1,1c0,0.6-0.5,1-1.1,1
							C341.2,413.5,340.8,413.1,340.8,412.5z"/>
						<path d="M344.4,418.4c0-2.4,1.7-3.8,3.4-3.8c2,0,3,1.5,3,3.5c0,0.4,0,0.7-0.1,0.9h-4.5c0.2,1.2,0.9,1.8,2,1.8
							c0.6,0,1.1-0.2,1.6-0.5l0.6,1.2c-0.7,0.5-1.6,0.8-2.5,0.8C346,422.2,344.4,420.8,344.4,418.4z M349.2,417.6
							c0-1-0.4-1.6-1.4-1.6c-0.8,0-1.4,0.5-1.6,1.6H349.2z"/>
						<path d="M352,418.4c0-2.4,1.7-3.8,3.7-3.8c0.9,0,1.6,0.4,2.1,0.8l-0.9,1.2c-0.4-0.3-0.7-0.5-1.1-0.5c-1.1,0-1.9,0.9-1.9,2.3
							c0,1.4,0.8,2.2,1.8,2.2c0.5,0,1-0.2,1.4-0.6l0.8,1.3c-0.7,0.6-1.6,0.9-2.4,0.9C353.5,422.2,352,420.8,352,418.4z"/>
						<path d="M359.4,419.5v-3.2h-1v-1.4l1.1-0.1l0.2-2h1.6v2h1.8v1.5h-1.8v3.2c0,0.8,0.3,1.2,1,1.2c0.2,0,0.5-0.1,0.7-0.2l0.3,1.4
							c-0.4,0.1-0.9,0.3-1.5,0.3C360.1,422.2,359.4,421.1,359.4,419.5z"/>
						<path d="M364.4,412.5c0-0.6,0.5-1,1.1-1c0.7,0,1.1,0.4,1.1,1c0,0.6-0.5,1-1.1,1C364.9,413.5,364.4,413.1,364.4,412.5z
							 M364.6,414.7h1.9v7.3h-1.9V414.7z"/>
						<path d="M368.1,418.4c0-2.4,1.7-3.8,3.5-3.8c1.8,0,3.5,1.4,3.5,3.8c0,2.4-1.7,3.8-3.5,3.8
							C369.8,422.2,368.1,420.8,368.1,418.4z M373.1,418.4c0-1.4-0.6-2.3-1.5-2.3c-1,0-1.5,0.9-1.5,2.3c0,1.4,0.6,2.2,1.5,2.2
							C372.6,420.6,373.1,419.7,373.1,418.4z"/>
						<path d="M376.7,414.7h1.6l0.1,1h0.1c0.6-0.6,1.4-1.1,2.4-1.1c1.6,0,2.2,1.1,2.2,2.9v4.5h-1.9v-4.3c0-1.1-0.3-1.5-1-1.5
							c-0.6,0-1,0.3-1.5,0.8v5h-1.9V414.7z"/>
					</g>
					<g transform="translate(0.000000, 39.000000)">
						<g transform="translate(24.000000, 319.500000)">
							<g class="st0">
								<path d="M1.9,21.9c0-3.8,1.4-5.7,3.6-5.7c2.2,0,3.6,1.9,3.6,5.7c0,3.8-1.4,5.8-3.6,5.8C3.3,27.7,1.9,25.8,1.9,21.9z
									 M7.4,21.9c0-3.2-0.8-4.3-1.9-4.3s-1.9,1.2-1.9,4.3c0,3.2,0.8,4.4,1.9,4.4S7.4,25.1,7.4,21.9z"/>
							</g>
							<g class="st0">
								<path d="M110.6,26.2l0.8-1.1c0.6,0.7,1.5,1.2,2.6,1.2c1.2,0,2.1-0.7,2.1-1.8c0-1.2-0.8-2-3.3-2v-1.3c2.2,0,2.9-0.8,2.9-1.9
									c0-1-0.6-1.6-1.7-1.6c-0.9,0-1.6,0.4-2.2,1l-0.9-1.1c0.9-0.8,1.9-1.3,3.2-1.3c2,0,3.4,1,3.4,2.9c0,1.3-0.7,2.2-1.9,2.6v0.1
									c1.3,0.3,2.3,1.3,2.3,2.8c0,2-1.7,3.2-3.7,3.2C112.5,27.7,111.4,27,110.6,26.2z"/>
							</g>
							<path class="st1" d="M0,0.5h120"/>
						</g>
						<g transform="translate(144.000000, 319.500000)">
							<g class="st0">
								<path d="M117,18.5c-0.4-0.5-1.1-0.8-1.7-0.8c-1.4,0-2.6,1.1-2.7,4.2c0.6-0.8,1.6-1.3,2.4-1.3c1.9,0,3.1,1.1,3.1,3.5
									c0,2.2-1.5,3.6-3.3,3.6c-2.1,0-3.8-1.8-3.8-5.5c0-4.2,2-5.9,4.2-5.9c1.2,0,2.1,0.5,2.8,1.2L117,18.5z M116.5,24.1
									c0-1.4-0.6-2.2-1.8-2.2c-0.6,0-1.4,0.3-2.1,1.3c0.2,2.2,1,3.2,2.2,3.2C115.8,26.4,116.5,25.5,116.5,24.1z"/>
							</g>
							<path class="st1" d="M0,0.5h120"/>
						</g>
						<g transform="translate(264.000000, 319.500000)">
							<g class="st0">
								<path d="M112,25.5c0.4,0.5,1.1,0.8,1.8,0.8c1.3,0,2.5-1.1,2.6-4.2c-0.6,0.8-1.6,1.3-2.4,1.3c-1.8,0-3.1-1.2-3.1-3.5
									c0-2.2,1.5-3.6,3.3-3.6c2.1,0,3.8,1.7,3.8,5.4c0,4.3-2,6.1-4.1,6.1c-1.3,0-2.2-0.5-2.8-1.2L112,25.5z M116.4,20.8
									c-0.2-2.2-1-3.2-2.2-3.2c-0.9,0-1.7,0.9-1.7,2.3c0,1.4,0.6,2.2,1.8,2.2C114.9,22.1,115.7,21.7,116.4,20.8z"/>
							</g>
							<path class="st1" d="M0,0.5h120"/>
						</g>
						<g transform="translate(0.000000, 240.000000)">
							<g class="st0">
								<path d="M0.7,77.1h4v1.3h-4V77.1z"/>
								<path d="M13.5,79H12v3h-1.6v-3H5.7v-1.2L10,71h2v6.7h1.4V79z M10.4,77.7v-2.9c0-0.6,0.1-1.5,0.1-2.1h-0.1
									c-0.3,0.6-0.6,1.1-0.9,1.7l-2.2,3.3H10.4z"/>
							</g>
							<path class="st1" d="M24,80V0"/>
						</g>
						<g transform="translate(0.000000, 160.000000)">
							<g class="st0">
								<path d="M0.7,77.1h4v1.3h-4V77.1z"/>
								<path d="M5.8,80.7l0.8-1.1c0.6,0.7,1.5,1.2,2.6,1.2c1.2,0,2.1-0.7,2.1-1.8c0-1.2-0.8-2-3.3-2v-1.3c2.2,0,2.9-0.8,2.9-1.9
									c0-1-0.6-1.6-1.7-1.6c-0.9,0-1.6,0.4-2.2,1l-0.9-1.1C7,71.3,8,70.8,9.3,70.8c2,0,3.4,1,3.4,2.9c0,1.3-0.7,2.2-1.9,2.6v0.1
									c1.3,0.3,2.3,1.3,2.3,2.8c0,2-1.7,3.2-3.7,3.2C7.6,82.2,6.5,81.5,5.8,80.7z"/>
							</g>
							<path class="st1" d="M24,80V0"/>
						</g>
						<g transform="translate(0.000000, 80.000000)">
							<path class="st1" d="M24,80V0"/>
							<g class="st0">
								<path d="M0.7,77.1h4v1.3h-4V77.1z"/>
								<path d="M6,81c3.3-2.9,4.9-5,4.9-6.8c0-1.2-0.6-2-1.9-2c-0.9,0-1.6,0.6-2.2,1.2l-1-1c0.9-1,1.9-1.7,3.4-1.7
									c2,0,3.3,1.3,3.3,3.3c0,2.1-1.7,4.3-4,6.6c0.6-0.1,1.3-0.1,1.8-0.1h2.8V82H6V81z"/>
							</g>
						</g>
						<g>
							<g class="st0">
								<path d="M5.7,11.4c0-3.8,1.4-5.7,3.6-5.7c2.2,0,3.6,1.9,3.6,5.7c0,3.8-1.4,5.8-3.6,5.8C7.1,17.2,5.7,15.3,5.7,11.4z
									 M11.2,11.4c0-3.2-0.8-4.3-1.9-4.3s-1.9,1.2-1.9,4.3c0,3.2,0.8,4.4,1.9,4.4S11.2,14.6,11.2,11.4z"/>
							</g>
							<g class="st0">
								<path d="M0.7,77.1h4v1.3h-4V77.1z"/>
								<path d="M6.6,80.6h2.4v-7.7h-2v-1.1c1-0.2,1.8-0.5,2.4-0.8h1.3v9.6h2.2V82H6.6V80.6z"/>
							</g>
							<path class="st1" d="M24,80V0"/>
						</g>
					</g>
					<g transform="translate(19.000000, 34.000000)">
						<circle class="st2" cx="5" cy="5" r="5"/>
						<path class="st3" d="M5,5l120,95"/>
						<path class="st3" d="M125,100l120-5"/>
						<path class="st3" d="M245,95l120,60"/>
						<circle class="st2" cx="125" cy="100" r="5"/>
						<g class="st0">
							<path d="M110.7,80.1h4v1.3h-4V80.1z"/>
							<path d="M116.7,83.6h2.4v-7.7h-2v-1.1c1-0.2,1.8-0.5,2.4-0.8h1.3v9.6h2.2V85h-6.3V83.6z"/>
							<path d="M125,84c0-0.7,0.5-1.2,1.2-1.2c0.6,0,1.2,0.5,1.2,1.2s-0.5,1.2-1.2,1.2C125.5,85.2,125,84.7,125,84z"/>
							<path d="M128.8,83.7l0.8-1.1c0.6,0.7,1.5,1.2,2.6,1.2c1.2,0,2.1-0.7,2.1-1.8c0-1.2-0.8-2-3.3-2v-1.3c2.2,0,2.9-0.8,2.9-1.9
								c0-1-0.6-1.6-1.7-1.6c-0.9,0-1.6,0.4-2.2,1l-0.9-1.1c0.9-0.8,1.9-1.3,3.2-1.3c2,0,3.4,1,3.4,2.9c0,1.3-0.7,2.2-1.9,2.6v0.1
								c1.3,0.3,2.3,1.3,2.3,2.8c0,2-1.7,3.2-3.7,3.2C130.7,85.2,129.6,84.5,128.8,83.7z"/>
						</g>
						<g class="st0">
							<path d="M229.7,75.1h4v1.3h-4V75.1z"/>
							<path d="M235.7,78.6h2.4v-7.7h-2v-1.1c1-0.2,1.8-0.5,2.4-0.8h1.3v9.6h2.2V80h-6.3V78.6z"/>
							<path d="M244,79c0-0.7,0.5-1.2,1.2-1.2c0.6,0,1.2,0.5,1.2,1.2s-0.5,1.2-1.2,1.2C244.5,80.2,244,79.7,244,79z"/>
							<path d="M248.1,79c3.3-2.9,4.9-5,4.9-6.8c0-1.2-0.6-2-1.9-2c-0.9,0-1.6,0.6-2.2,1.2l-1-1c0.9-1,1.9-1.7,3.4-1.7
								c2,0,3.3,1.3,3.3,3.3c0,2.1-1.7,4.3-4,6.6c0.6-0.1,1.3-0.1,1.8-0.1h2.8V80h-7.1V79z"/>
						</g>
						<g class="st0">
							<path d="M343.7,135.1h4v1.3h-4V135.1z"/>
							<path d="M349.1,139c3.3-2.9,4.9-5,4.9-6.8c0-1.2-0.6-2-1.9-2c-0.9,0-1.6,0.6-2.2,1.2l-1-1c0.9-1,1.9-1.7,3.4-1.7
								c2,0,3.3,1.3,3.3,3.3c0,2.1-1.7,4.3-4,6.6c0.6-0.1,1.3-0.1,1.8-0.1h2.8v1.5h-7.1V139z"/>
							<path d="M358,139c0-0.7,0.5-1.2,1.2-1.2c0.6,0,1.2,0.5,1.2,1.2s-0.5,1.2-1.2,1.2C358.5,140.2,358,139.7,358,139z"/>
							<path d="M362.7,138.6h2.4v-7.7h-2v-1.1c1-0.2,1.8-0.5,2.4-0.8h1.3v9.6h2.2v1.4h-6.3V138.6z"/>
						</g>
						<circle class="st2" cx="245" cy="95" r="5"/>
						<circle class="st2" cx="365" cy="155" r="5"/>
					</g>
					<g transform="translate(19.000000, 34.000000)">
						<circle class="st4" cx="5" cy="5" r="5"/>
						<path class="st5" d="M5,5l120,287"/>
						<path class="st5" d="M125,292l120-16"/>
						<path class="st5" d="M245,276l120,8"/>
						<circle class="st4" cx="125" cy="292" r="5"/>
						<circle class="st4" cx="245" cy="276" r="5"/>
						<circle class="st4" cx="365" cy="284" r="5"/>
						<g class="st0">
							<path d="M110.7,272.1h4v1.3h-4V272.1z"/>
							<path d="M115.8,275.7l0.8-1.1c0.6,0.7,1.5,1.2,2.6,1.2c1.2,0,2.1-0.7,2.1-1.8c0-1.2-0.8-2-3.3-2v-1.3c2.2,0,2.9-0.8,2.9-1.9
								c0-1-0.6-1.6-1.7-1.6c-0.9,0-1.6,0.4-2.2,1l-0.9-1.1c0.9-0.8,1.9-1.3,3.2-1.3c2,0,3.4,1,3.4,2.9c0,1.3-0.7,2.2-1.9,2.6v0.1
								c1.3,0.3,2.3,1.3,2.3,2.8c0,2-1.7,3.2-3.7,3.2C117.7,277.2,116.5,276.5,115.8,275.7z"/>
							<path d="M125,276c0-0.7,0.5-1.2,1.2-1.2c0.6,0,1.2,0.5,1.2,1.2s-0.5,1.2-1.2,1.2C125.5,277.2,125,276.7,125,276z"/>
							<path d="M134.3,267.4h-5.2V266h7.1v1c-2.6,3.2-3,5.7-3.2,10h-1.8C131.5,273,132.2,270.4,134.3,267.4z"/>
						</g>
						<g class="st0">
							<path d="M232.7,256.1h4v1.3h-4V256.1z"/>
							<path d="M237.8,259.7l0.8-1.1c0.6,0.7,1.5,1.2,2.6,1.2c1.2,0,2.1-0.7,2.1-1.8c0-1.2-0.8-2-3.3-2v-1.3c2.2,0,2.9-0.8,2.9-1.9
								c0-1-0.6-1.6-1.7-1.6c-0.9,0-1.6,0.4-2.2,1l-0.9-1.1c0.9-0.8,1.9-1.3,3.2-1.3c2,0,3.4,1,3.4,2.9c0,1.3-0.7,2.2-1.9,2.6v0.1
								c1.3,0.3,2.3,1.3,2.3,2.8c0,2-1.7,3.2-3.7,3.2C239.7,261.2,238.5,260.5,237.8,259.7z"/>
							<path d="M247,260c0-0.7,0.5-1.2,1.2-1.2c0.6,0,1.2,0.5,1.2,1.2s-0.5,1.2-1.2,1.2C247.5,261.2,247,260.7,247,260z"/>
							<path d="M250.8,259.7l0.8-1.1c0.6,0.6,1.4,1.2,2.6,1.2c1.2,0,2.2-0.9,2.2-2.4c0-1.5-0.8-2.3-2.1-2.3c-0.7,0-1.1,0.2-1.8,0.6
								l-0.8-0.6l0.3-5.2h5.6v1.5h-4.1l-0.3,2.8c0.5-0.2,0.9-0.4,1.5-0.4c1.8,0,3.4,1.1,3.4,3.5c0,2.4-1.8,3.8-3.7,3.8
								C252.7,261.2,251.6,260.5,250.8,259.7z"/>
						</g>
						<g class="st0">
							<path d="M343.7,264.1h4v1.3h-4V264.1z"/>
							<path d="M348.8,267.7l0.8-1.1c0.6,0.7,1.5,1.2,2.6,1.2c1.2,0,2.1-0.7,2.1-1.8c0-1.2-0.8-2-3.3-2v-1.3c2.2,0,2.9-0.8,2.9-1.9
								c0-1-0.6-1.6-1.7-1.6c-0.9,0-1.6,0.4-2.2,1l-0.9-1.1c0.9-0.8,1.9-1.3,3.2-1.3c2,0,3.4,1,3.4,2.9c0,1.3-0.7,2.2-1.9,2.6v0.1
								c1.3,0.3,2.3,1.3,2.3,2.8c0,2-1.7,3.2-3.7,3.2C350.7,269.2,349.5,268.5,348.8,267.7z"/>
							<path d="M358,268c0-0.7,0.5-1.2,1.2-1.2c0.6,0,1.2,0.5,1.2,1.2s-0.5,1.2-1.2,1.2C358.5,269.2,358,268.7,358,268z"/>
							<path d="M368.2,260c-0.4-0.5-1.1-0.8-1.7-0.8c-1.4,0-2.6,1.1-2.7,4.2c0.6-0.8,1.6-1.3,2.4-1.3c1.9,0,3.1,1.1,3.1,3.5
								c0,2.2-1.5,3.6-3.3,3.6c-2.1,0-3.8-1.8-3.8-5.5c0-4.2,2-5.9,4.2-5.9c1.2,0,2.1,0.5,2.8,1.2L368.2,260z M367.7,265.6
								c0-1.4-0.6-2.2-1.8-2.2c-0.6,0-1.4,0.3-2.1,1.3c0.2,2.2,1,3.2,2.2,3.2C367,267.9,367.7,267,367.7,265.6z"/>
						</g>
					</g>
					<g transform="translate(105.000000, 451.000000)">
						<g>
							<g class="st0">
								<path d="M21.2,7.9h1l0.1,0.8h0c0.6-0.5,1.4-1,2.2-1c1.8,0,2.8,1.4,2.8,3.6c0,2.4-1.4,3.8-3.1,3.8c-0.6,0-1.3-0.3-1.9-0.8
									l0,1.2V18h-1.2V7.9z M26.1,11.4c0-1.6-0.5-2.6-1.9-2.6c-0.6,0-1.2,0.3-1.9,1v3.7c0.6,0.5,1.3,0.7,1.7,0.7
									C25.3,14.2,26.1,13.1,26.1,11.4z"/>
								<path d="M29.3,13.6V4.7h1.2v9c0,0.4,0.2,0.5,0.3,0.5c0.1,0,0.1,0,0.2,0l0.2,0.9c-0.2,0.1-0.4,0.1-0.7,0.1
									C29.6,15.2,29.3,14.6,29.3,13.6z"/>
								<path d="M32.5,13.2c0-1.5,1.3-2.3,4.3-2.6c0-0.9-0.3-1.8-1.5-1.8c-0.8,0-1.6,0.4-2.1,0.8l-0.5-0.8c0.6-0.4,1.7-0.9,2.8-0.9
									c1.7,0,2.4,1.2,2.4,2.9V15h-1L37,14.2h0c-0.7,0.6-1.5,1-2.3,1C33.4,15.2,32.5,14.4,32.5,13.2z M36.9,13.3v-2
									c-2.4,0.3-3.2,0.9-3.2,1.8c0,0.8,0.5,1.1,1.2,1.1C35.6,14.2,36.2,13.9,36.9,13.3z"/>
								<path d="M39.8,11.5c0-2.4,1.6-3.7,3.4-3.7c0.9,0,1.6,0.4,2.1,0.8l-0.6,0.8c-0.4-0.4-0.8-0.6-1.4-0.6c-1.3,0-2.2,1.1-2.2,2.7
									s0.9,2.7,2.2,2.7c0.7,0,1.2-0.3,1.7-0.7l0.5,0.8c-0.6,0.6-1.4,0.9-2.3,0.9C41.2,15.2,39.8,13.8,39.8,11.5z"/>
								<path d="M46.1,11.5c0-2.3,1.5-3.7,3.2-3.7c1.8,0,2.8,1.3,2.8,3.3c0,0.3,0,0.5-0.1,0.7h-4.8c0.1,1.5,1,2.5,2.3,2.5
									c0.7,0,1.2-0.2,1.8-0.6l0.4,0.8c-0.6,0.4-1.4,0.7-2.3,0.7C47.6,15.2,46.1,13.8,46.1,11.5z M51,10.9c0-1.4-0.6-2.2-1.8-2.2
									c-1,0-1.9,0.8-2,2.2H51z"/>
								<path d="M54.9,14.3L54.9,14.3L54.7,15h-0.9V4.7H55v2.8l0,1.3c0.6-0.6,1.4-1,2.2-1c1.8,0,2.8,1.4,2.8,3.6
									c0,2.4-1.4,3.8-3.1,3.8C56.3,15.2,55.5,14.8,54.9,14.3z M58.7,11.4c0-1.6-0.5-2.6-1.9-2.6c-0.6,0-1.2,0.3-1.9,1v3.7
									c0.6,0.5,1.3,0.7,1.7,0.7C57.9,14.2,58.7,13.1,58.7,11.4z"/>
								<path d="M61.3,11.5c0-2.4,1.5-3.7,3.3-3.7c1.7,0,3.3,1.4,3.3,3.7c0,2.3-1.5,3.7-3.3,3.7C62.8,15.2,61.3,13.8,61.3,11.5z
									 M66.6,11.5c0-1.6-0.8-2.7-2.1-2.7c-1.2,0-2,1.1-2,2.7s0.8,2.7,2,2.7C65.8,14.2,66.6,13.1,66.6,11.5z"/>
							</g>
							<circle class="st4" cx="5" cy="10" r="5"/>
						</g>
						<g transform="translate(99.000000, 0.000000)">
							<g class="st0">
								<path d="M21.1,14h2.1V6.9h-1.7V6.1c0.8-0.2,1.5-0.4,2-0.7h0.9V14h1.9v1h-5.2V14z"/>
								<path d="M33,7c-0.4-0.5-0.9-0.7-1.5-0.7c-1.3,0-2.4,1-2.5,4c0.6-0.7,1.4-1.2,2.2-1.2c1.6,0,2.6,1,2.6,3
									c0,1.8-1.2,3.1-2.7,3.1c-1.8,0-3.2-1.6-3.2-4.7c0-3.7,1.7-5.2,3.5-5.2c1,0,1.7,0.4,2.2,1L33,7z M32.7,12.1
									c0-1.3-0.6-2.1-1.7-2.1c-0.6,0-1.3,0.3-1.9,1.2c0.1,2,0.9,3.1,2.1,3.1C32,14.2,32.7,13.4,32.7,12.1z"/>
								<path d="M38.5,7.9h1l0.1,1h0c0.6-0.7,1.4-1.2,2.2-1.2c1.1,0,1.7,0.5,1.9,1.4c0.7-0.8,1.5-1.4,2.3-1.4c1.5,0,2.1,1,2.1,2.8
									V15h-1.2v-4.3c0-1.3-0.4-1.9-1.3-1.9c-0.5,0-1.1,0.4-1.8,1.1V15h-1.2v-4.3c0-1.3-0.4-1.9-1.3-1.9c-0.5,0-1.1,0.4-1.8,1.1V15
									h-1.2V7.9z"/>
								<path d="M50,16.4c0-0.6,0.4-1.2,1.1-1.6v-0.1c-0.4-0.2-0.6-0.6-0.6-1.2c0-0.6,0.4-1.1,0.8-1.3v-0.1
									c-0.5-0.4-0.9-1.1-0.9-1.9c0-1.5,1.2-2.5,2.7-2.5c0.4,0,0.7,0.1,1,0.2h2.5v0.9H55c0.3,0.3,0.6,0.8,0.6,1.5
									c0,1.5-1.1,2.5-2.6,2.5c-0.4,0-0.7-0.1-1.1-0.2c-0.3,0.2-0.5,0.5-0.5,0.8c0,0.5,0.3,0.8,1.2,0.8h1.4c1.6,0,2.5,0.5,2.5,1.7
									c0,1.3-1.4,2.4-3.6,2.4C51.2,18.2,50,17.6,50,16.4z M55.4,16c0-0.7-0.5-0.9-1.4-0.9h-1.2c-0.3,0-0.6,0-0.9-0.1
									c-0.5,0.4-0.7,0.8-0.7,1.2c0,0.8,0.8,1.2,2.1,1.2C54.5,17.4,55.4,16.7,55.4,16z M54.5,10.3c0-1-0.7-1.7-1.5-1.7
									s-1.5,0.6-1.5,1.7c0,1,0.7,1.7,1.5,1.7C53.8,12,54.5,11.3,54.5,10.3z"/>
								<path d="M59.6,5.5h1.3l1.5,5.2c0.3,1.1,0.6,2,0.9,3.1h0.1c0.4-1.1,0.6-2,0.9-3.1l1.5-5.2h1.2l-3,9.5h-1.4L59.6,5.5z"/>
								<path d="M68.4,5.5h1.5l1.8,5.1c0.2,0.7,0.4,1.3,0.7,2h0.1c0.2-0.7,0.4-1.3,0.6-2l1.8-5.1h1.5V15h-1.1V9.7
									c0-0.8,0.1-2,0.2-2.8h-0.1l-0.8,2.2l-1.8,5h-0.8l-1.8-5l-0.8-2.2h-0.1c0.1,0.8,0.1,2,0.1,2.8V15h-1.1V5.5z"/>
								<path d="M78.2,14.3c3-2.6,4.4-4.5,4.4-6.1c0-1.1-0.6-1.9-1.8-1.9c-0.8,0-1.5,0.5-2,1.1l-0.7-0.7c0.8-0.8,1.6-1.4,2.8-1.4
									c1.7,0,2.8,1.1,2.8,2.8c0,1.9-1.5,3.8-3.7,6c0.5,0,1.1-0.1,1.6-0.1h2.6v1h-6V14.3z"/>
								<path d="M85.5,10.2c0-3.3,1.2-4.9,3-4.9c1.8,0,3,1.6,3,4.9c0,3.3-1.2,5-3,5C86.7,15.2,85.5,13.5,85.5,10.2z M90.3,10.2
									c0-2.8-0.7-4-1.8-4c-1.1,0-1.8,1.2-1.8,4c0,2.8,0.7,4,1.8,4C89.5,14.2,90.3,13,90.3,10.2z"/>
								<path d="M92.6,14.3c3-2.6,4.4-4.5,4.4-6.1c0-1.1-0.6-1.9-1.8-1.9c-0.8,0-1.5,0.5-2,1.1l-0.7-0.7c0.8-0.8,1.6-1.4,2.8-1.4
									c1.7,0,2.8,1.1,2.8,2.8c0,1.9-1.5,3.8-3.7,6c0.5,0,1.1-0.1,1.6-0.1h2.6v1h-6V14.3z"/>
							</g>
							<circle class="st2" cx="5" cy="10" r="5"/>
						</g>
					</g>
				</g>
			</g>
		</g>
	</g>
</g>
</svg>
