<?xml version="1.0" encoding="utf-8"?>
<!-- Generator: Adobe Illustrator 23.0.1, SVG Export Plug-In . SVG Version: 6.00 Build 0)  -->
<svg version="1.1" id="Layer_1" xmlns="http://www.w3.org/2000/svg" xmlns:xlink="http://www.w3.org/1999/xlink" x="0px" y="0px"
	 viewBox="0 0 1002 215" style="enable-background:new 0 0 1002 215;" xml:space="preserve">
<style type="text/css">
	.st0{fill-rule:evenodd;clip-rule:evenodd;}
	.st1{enable-background:new    ;}
	.st2{fill:#FFFFFF;}
	.st3{fill:none;stroke:#979797;stroke-linecap:square;}
	.st4{fill:none;stroke:#000000;stroke-width:1.5;}
</style>
<title>표2</title>
<desc>Created with Sketch.</desc>
<g id="Page-1">
	<g transform="translate(-219.000000, -3566.000000)">
		<g id="표2" transform="translate(220.000000, 3560.000000)">
			<g id="head" transform="translate(0.000000, 47.000000)">
				<g>
					<path id="bg" class="st0" d="M8,0h234c4.4,0,8,3.6,8,8v34c0,4.4-3.6,8-8,8H8c-4.4,0-8-3.6-8-8V8C0,3.6,3.6,0,8,0z"/>
				</g>
				<g transform="translate(260.000000, 0.000000)">
					<path class="st0" d="M8,0h724c4.4,0,8,3.6,8,8v34c0,4.4-3.6,8-8,8H8c-4.4,0-8-3.6-8-8V8C0,3.6,3.6,0,8,0z"/>
					<g class="st1">
						<path class="st2" d="M297.6,29.6l1.3-1.5c0.8,0.7,1.8,1.2,2.8,1.2c1.2,0,1.8-0.5,1.8-1.3c0-0.8-0.7-1.1-1.7-1.5l-1.5-0.6
							c-1.1-0.5-2.2-1.4-2.2-3c0-1.8,1.6-3.2,3.8-3.2c1.3,0,2.6,0.5,3.5,1.4l-1.1,1.4c-0.7-0.6-1.4-0.9-2.4-0.9
							c-1,0-1.6,0.4-1.6,1.2c0,0.8,0.8,1.1,1.7,1.5l1.5,0.6c1.3,0.6,2.2,1.4,2.2,3c0,1.8-1.5,3.4-4.1,3.4
							C300.2,31.2,298.7,30.6,297.6,29.6z"/>
						<path class="st2" d="M307.1,28.7c0-1.8,1.5-2.7,4.8-3.1c0-0.8-0.4-1.5-1.4-1.5c-0.8,0-1.5,0.3-2.3,0.8l-0.8-1.5
							c1-0.6,2.2-1.1,3.5-1.1c2.1,0,3.2,1.3,3.2,3.7V31h-1.8l-0.2-0.9h0c-0.7,0.6-1.6,1.1-2.5,1.1C308.1,31.2,307.1,30.1,307.1,28.7
							z M312,28.7V27c-2,0.3-2.7,0.8-2.7,1.6c0,0.7,0.5,0.9,1.1,0.9C311,29.5,311.4,29.2,312,28.7z"/>
						<path class="st2" d="M320.9,20.7c-0.3-0.1-0.6-0.2-0.9-0.2c-0.7,0-1,0.4-1,1.3v0.7h1.6v1.7H319V31h-2.2v-6.7h-1.1v-1.6
							l1.1-0.1v-0.7c0-1.8,0.8-3.1,2.9-3.1c0.6,0,1.2,0.2,1.6,0.3L320.9,20.7z"/>
						<path class="st2" d="M321.3,26.8c0-2.7,1.9-4.4,3.9-4.4c2.3,0,3.5,1.7,3.5,4c0,0.4,0,0.8-0.1,1h-5.2c0.2,1.4,1.1,2.1,2.3,2.1
							c0.7,0,1.3-0.2,1.9-0.6l0.8,1.4c-0.8,0.6-1.9,0.9-2.9,0.9C323.1,31.2,321.3,29.6,321.3,26.8z M326.8,26c0-1.1-0.5-1.9-1.6-1.9
							c-0.9,0-1.7,0.6-1.8,1.9H326.8z"/>
						<path class="st2" d="M330.7,28.1v-3.7h-1.2v-1.6l1.3-0.1l0.3-2.2h1.8v2.2h2.1v1.7h-2.1v3.7c0,1,0.4,1.4,1.1,1.4
							c0.3,0,0.6-0.1,0.8-0.2l0.4,1.6c-0.5,0.2-1,0.3-1.8,0.3C331.4,31.2,330.7,30,330.7,28.1z"/>
						<path class="st2" d="M336.2,34.2l0.4-1.7c0.2,0,0.4,0.1,0.6,0.1c0.9,0,1.3-0.5,1.6-1.3l0.2-0.5l-3.3-8.2h2.2l1.3,3.9
							c0.3,0.8,0.5,1.6,0.7,2.4h0.1c0.2-0.8,0.4-1.6,0.6-2.4l1.2-3.9h2.1l-3,8.7c-0.7,2-1.6,3.1-3.5,3.1
							C336.9,34.4,336.6,34.3,336.2,34.2z"/>
						<path class="st2" d="M348.1,32.5c0-0.7,0.4-1.3,1.2-1.7v-0.1c-0.4-0.3-0.8-0.7-0.8-1.4c0-0.6,0.4-1.2,0.9-1.6v-0.1
							c-0.6-0.4-1.1-1.2-1.1-2.2c0-2,1.6-3,3.4-3c0.5,0,0.9,0.1,1.3,0.2h3v1.6h-1.4c0.2,0.3,0.4,0.8,0.4,1.3c0,1.9-1.4,2.8-3.2,2.8
							c-0.3,0-0.7-0.1-1.1-0.2c-0.2,0.2-0.4,0.4-0.4,0.7c0,0.5,0.3,0.7,1.3,0.7h1.4c2,0,3.1,0.6,3.1,2.1c0,1.7-1.8,3-4.6,3
							C349.6,34.6,348.1,34,348.1,32.5z M354.1,32c0-0.6-0.5-0.8-1.4-0.8h-1c-0.5,0-0.9,0-1.2-0.1c-0.4,0.3-0.6,0.6-0.6,1
							c0,0.7,0.8,1.1,2,1.1C353.2,33.2,354.1,32.7,354.1,32z M353.1,25.4c0-1-0.6-1.5-1.3-1.5s-1.3,0.6-1.3,1.5c0,1,0.6,1.5,1.3,1.5
							C352.5,27,353.1,26.4,353.1,25.4z"/>
						<path class="st2" d="M357.6,22.6h1.8l0.2,1.5h0.1c0.6-1.1,1.5-1.7,2.4-1.7c0.5,0,0.7,0.1,1,0.2l-0.4,1.9
							c-0.3-0.1-0.5-0.1-0.9-0.1c-0.7,0-1.5,0.4-1.9,1.7v5h-2.2V22.6z"/>
						<path class="st2" d="M363.4,26.8c0-2.8,1.9-4.4,4-4.4c2.1,0,4,1.6,4,4.4c0,2.8-1.9,4.4-4,4.4
							C365.4,31.2,363.4,29.6,363.4,26.8z M369.3,26.8c0-1.6-0.6-2.6-1.8-2.6c-1.1,0-1.8,1-1.8,2.6c0,1.6,0.6,2.6,1.8,2.6
							C368.6,29.4,369.3,28.4,369.3,26.8z"/>
						<path class="st2" d="M373.3,27.9v-5.2h2.2v5c0,1.3,0.4,1.8,1.2,1.8c0.7,0,1.1-0.3,1.7-1v-5.7h2.2V31h-1.8l-0.2-1.2h-0.1
							c-0.7,0.9-1.5,1.4-2.7,1.4C374.1,31.2,373.3,30,373.3,27.9z"/>
						<path class="st2" d="M382.9,22.6h1.8l0.2,0.9h0.1c0.7-0.6,1.6-1.1,2.5-1.1c2.1,0,3.3,1.7,3.3,4.3c0,2.9-1.7,4.5-3.6,4.5
							c-0.7,0-1.4-0.3-2.1-0.9l0.1,1.4v2.5h-2.2V22.6z M388.4,26.7c0-1.6-0.5-2.5-1.7-2.5c-0.6,0-1.1,0.3-1.7,0.9v3.7
							c0.5,0.5,1.1,0.6,1.5,0.6C387.7,29.4,388.4,28.5,388.4,26.7z"/>
						<path class="st2" d="M396.1,26.3c0-3,0.8-5.4,2.2-7.8l1.4,0.6c-1.3,2.2-1.8,4.7-1.8,7.2c0,2.5,0.6,5,1.8,7.2l-1.4,0.6
							C396.9,31.7,396.1,29.3,396.1,26.3z"/>
						<path class="st2" d="M401.7,22.6h1.8l0.2,1.1h0.1c0.7-0.7,1.6-1.3,2.7-1.3c1.8,0,2.6,1.3,2.6,3.4V31h-2.2v-5
							c0-1.3-0.4-1.8-1.2-1.8c-0.7,0-1.1,0.3-1.8,0.9V31h-2.2V22.6z"/>
						<path class="st2" d="M410.7,22.7h7.7v1.6h-7.7V22.7z M410.7,26.5h7.7v1.6h-7.7V26.5z"/>
						<path class="st2" d="M419.3,29.7l1-1.4c0.6,0.6,1.4,1.1,2.4,1.1c1.2,0,2-0.7,2-2c0-1.3-0.8-2-1.9-2c-0.7,0-1,0.2-1.7,0.6
							l-1-0.7l0.3-5.4h5.9v1.8h-4l-0.2,2.4c0.4-0.2,0.8-0.3,1.3-0.3c1.9,0,3.4,1.1,3.4,3.5c0,2.5-1.8,3.9-3.9,3.9
							C421.3,31.2,420.1,30.5,419.3,29.7z"/>
						<path class="st2" d="M428.4,29.7c3-2.7,4.8-4.8,4.8-6.5c0-1.1-0.6-1.8-1.7-1.8c-0.8,0-1.5,0.5-2,1.1l-1.2-1.2
							c1-1.1,2-1.7,3.5-1.7c2.1,0,3.5,1.3,3.5,3.4c0,2-1.7,4.2-3.7,6.1c0.6-0.1,1.3-0.1,1.8-0.1h2.4V31h-7.4V29.7z"/>
						<path class="st2" d="M437.4,33.4c1.3-2.2,1.8-4.7,1.8-7.2c0-2.4-0.6-5-1.8-7.2l1.4-0.6c1.4,2.3,2.2,4.8,2.2,7.8
							c0,3-0.8,5.4-2.2,7.8L437.4,33.4z"/>
					</g>
				</g>
			</g>
			<g class="st1">
				<path d="M321,7.7h2.1V21H321V7.7z"/>
				<path d="M326.4,11.1h1.7l0.2,1.4h0.1c0.9-0.9,1.9-1.6,3.3-1.6c2.1,0,3,1.4,3,3.9V21h-2.1v-6c0-1.7-0.5-2.4-1.7-2.4
					c-0.9,0-1.5,0.5-2.4,1.3v7h-2.1V11.1z"/>
				<path d="M336.9,16.1c0-3.3,2.3-5.2,4.9-5.2c1.3,0,2.2,0.5,2.9,1.1l-1,1.4c-0.5-0.5-1.1-0.8-1.8-0.8c-1.7,0-2.8,1.4-2.8,3.5
					c0,2.1,1.1,3.5,2.8,3.5c0.8,0,1.6-0.4,2.2-0.9l0.8,1.4c-0.9,0.8-2.1,1.2-3.2,1.2C338.9,21.2,336.9,19.3,336.9,16.1z"/>
				<path d="M346.6,8c0-0.7,0.6-1.2,1.3-1.2s1.3,0.5,1.3,1.2c0,0.7-0.6,1.2-1.3,1.2S346.6,8.7,346.6,8z M346.9,11.1h2.1V21h-2.1
					V11.1z"/>
				<path d="M351.4,16.1c0-3.2,2-5.2,4.2-5.2c1.1,0,1.9,0.4,2.7,1.1l-0.1-1.6V6.6h2.1V21h-1.7l-0.2-1.1h-0.1
					c-0.7,0.8-1.8,1.4-2.9,1.4C353,21.2,351.4,19.3,351.4,16.1z M358.2,18.3v-4.8c-0.7-0.7-1.4-0.9-2.2-0.9c-1.4,0-2.5,1.3-2.5,3.5
					c0,2.3,0.9,3.5,2.4,3.5C356.8,19.5,357.5,19.1,358.2,18.3z"/>
				<path d="M362.7,16.1c0-3.2,2.2-5.2,4.5-5.2c2.6,0,4,1.9,4,4.7c0,0.4,0,0.8-0.1,1h-6.4c0.2,1.9,1.4,3,3.1,3
					c0.9,0,1.6-0.3,2.4-0.7l0.7,1.3c-0.9,0.6-2.1,1-3.3,1C364.8,21.2,362.7,19.3,362.7,16.1z M369.5,15.2c0-1.7-0.8-2.7-2.2-2.7
					c-1.2,0-2.3,1-2.5,2.7H369.5z"/>
				<path d="M373.6,11.1h1.7l0.2,1.4h0.1c0.9-0.9,1.9-1.6,3.3-1.6c2.1,0,3,1.4,3,3.9V21h-2.1v-6c0-1.7-0.5-2.4-1.7-2.4
					c-0.9,0-1.5,0.5-2.4,1.3v7h-2.1V11.1z"/>
				<path d="M384.1,16.1c0-3.3,2.3-5.2,4.9-5.2c1.3,0,2.2,0.5,2.9,1.1l-1,1.4c-0.5-0.5-1.1-0.8-1.8-0.8c-1.7,0-2.8,1.4-2.8,3.5
					c0,2.1,1.1,3.5,2.8,3.5c0.8,0,1.6-0.4,2.2-0.9L392,20c-0.9,0.8-2.1,1.2-3.2,1.2C386.1,21.2,384.1,19.3,384.1,16.1z"/>
				<path d="M392.9,16.1c0-3.2,2.2-5.2,4.5-5.2c2.6,0,4,1.9,4,4.7c0,0.4,0,0.8-0.1,1H395c0.2,1.9,1.4,3,3.1,3c0.9,0,1.6-0.3,2.4-0.7
					l0.7,1.3c-0.9,0.6-2.1,1-3.3,1C395.1,21.2,392.9,19.3,392.9,16.1z M399.7,15.2c0-1.7-0.8-2.7-2.2-2.7c-1.2,0-2.3,1-2.5,2.7
					H399.7z"/>
				<path d="M407.2,16.1c0-3.3,2.2-5.2,4.7-5.2s4.7,1.9,4.7,5.2c0,3.3-2.2,5.2-4.7,5.2S407.2,19.3,407.2,16.1z M414.4,16.1
					c0-2.1-1-3.5-2.5-3.5c-1.5,0-2.5,1.4-2.5,3.5c0,2.1,1,3.5,2.5,3.5C413.4,19.5,414.4,18.2,414.4,16.1z"/>
				<path d="M423.7,8.3c-0.4-0.2-0.7-0.3-1.1-0.3c-0.9,0-1.3,0.6-1.3,1.8v1.3h2v1.7h-2V21h-2.1v-8.2h-1.4v-1.5l1.4-0.1V9.9
					c0-2,0.9-3.4,3.1-3.4c0.7,0,1.3,0.1,1.7,0.3L423.7,8.3z"/>
				<path d="M428.5,18.4c0-2.1,1.8-3.2,5.9-3.7c0-1.2-0.4-2.2-1.9-2.2c-1,0-2,0.5-2.9,1l-0.8-1.4c1-0.6,2.4-1.3,4-1.3
					c2.5,0,3.6,1.6,3.6,4.2v6h-1.7l-0.2-1.1h-0.1c-0.9,0.8-2,1.4-3.2,1.4C429.7,21.2,428.5,20.1,428.5,18.4z M434.5,18.4V16
					c-2.9,0.4-3.9,1.1-3.9,2.2c0,1,0.7,1.4,1.5,1.4C432.9,19.6,433.6,19.2,434.5,18.4z"/>
				<path d="M438.8,16.1c0-3.2,2-5.2,4.2-5.2c1.1,0,1.9,0.4,2.7,1.1l-0.1-1.6V6.6h2.1V21H446l-0.2-1.1h-0.1
					c-0.7,0.8-1.8,1.4-2.9,1.4C440.4,21.2,438.8,19.3,438.8,16.1z M445.6,18.3v-4.8c-0.7-0.7-1.4-0.9-2.2-0.9
					c-1.4,0-2.5,1.3-2.5,3.5c0,2.3,0.9,3.5,2.4,3.5C444.2,19.5,444.9,19.1,445.6,18.3z"/>
				<path d="M449.5,11.1h2.1l1.7,5.3c0.3,1,0.6,2,0.9,3h0.1c0.3-1,0.6-2,0.9-3l1.7-5.3h2l-3.4,9.9H453L449.5,11.1z"/>
				<path d="M459.8,16.1c0-3.2,2.2-5.2,4.5-5.2c2.6,0,4,1.9,4,4.7c0,0.4,0,0.8-0.1,1h-6.4c0.2,1.9,1.4,3,3.1,3
					c0.9,0,1.6-0.3,2.4-0.7l0.7,1.3c-0.9,0.6-2.1,1-3.3,1C461.9,21.2,459.8,19.3,459.8,16.1z M466.6,15.2c0-1.7-0.8-2.7-2.2-2.7
					c-1.2,0-2.3,1-2.5,2.7H466.6z"/>
				<path d="M470.7,11.1h1.7l0.2,1.8h0.1c0.7-1.3,1.7-2,2.8-2c0.5,0,0.8,0.1,1.1,0.2l-0.4,1.8c-0.3-0.1-0.6-0.2-1-0.2
					c-0.8,0-1.8,0.6-2.4,2.1V21h-2.1V11.1z"/>
				<path d="M476.9,19.9l1-1.3c0.9,0.7,1.7,1.1,2.8,1.1c1.2,0,1.7-0.6,1.7-1.3c0-0.9-1.1-1.3-2.2-1.7c-1.3-0.5-2.8-1.2-2.8-2.9
					c0-1.7,1.3-2.9,3.5-2.9c1.3,0,2.4,0.5,3.2,1.2l-1,1.3c-0.7-0.5-1.4-0.9-2.2-0.9c-1.1,0-1.6,0.5-1.6,1.2c0,0.8,1,1.2,2.1,1.6
					c1.4,0.5,2.9,1.1,2.9,3c0,1.7-1.3,3-3.8,3C479.2,21.2,477.8,20.7,476.9,19.9z"/>
				<path d="M485.9,16.1c0-3.2,2.2-5.2,4.5-5.2c2.6,0,4,1.9,4,4.7c0,0.4,0,0.8-0.1,1h-6.4c0.2,1.9,1.4,3,3.1,3
					c0.9,0,1.6-0.3,2.4-0.7l0.7,1.3c-0.9,0.6-2.1,1-3.3,1C488,21.2,485.9,19.3,485.9,16.1z M492.6,15.2c0-1.7-0.8-2.7-2.2-2.7
					c-1.2,0-2.3,1-2.5,2.7H492.6z"/>
				<path d="M500.1,16.1c0-3.2,2.2-5.2,4.5-5.2c2.6,0,4,1.9,4,4.7c0,0.4,0,0.8-0.1,1h-6.4c0.2,1.9,1.4,3,3.1,3
					c0.9,0,1.6-0.3,2.4-0.7l0.7,1.3c-0.9,0.6-2.1,1-3.3,1C502.2,21.2,500.1,19.3,500.1,16.1z M506.9,15.2c0-1.7-0.8-2.7-2.2-2.7
					c-1.2,0-2.3,1-2.5,2.7H506.9z"/>
				<path d="M509.6,11.1h2.1l1.7,5.3c0.3,1,0.6,2,0.9,3h0.1c0.3-1,0.6-2,0.9-3l1.7-5.3h2l-3.4,9.9h-2.4L509.6,11.1z"/>
				<path d="M520,16.1c0-3.2,2.2-5.2,4.5-5.2c2.6,0,4,1.9,4,4.7c0,0.4,0,0.8-0.1,1H522c0.2,1.9,1.3,3,3.1,3c0.9,0,1.6-0.3,2.4-0.7
					l0.7,1.3c-0.9,0.6-2.1,1-3.3,1C522.1,21.2,520,19.3,520,16.1z M526.7,15.2c0-1.7-0.8-2.7-2.2-2.7c-1.2,0-2.3,1-2.5,2.7H526.7z"
					/>
				<path d="M530.8,11.1h1.7l0.2,1.4h0.1c0.9-0.9,1.9-1.6,3.3-1.6c2.1,0,3,1.4,3,3.9V21H537v-6c0-1.7-0.5-2.4-1.7-2.4
					c-0.9,0-1.5,0.5-2.4,1.3v7h-2.1V11.1z"/>
				<path d="M542.4,17.8v-5h-1.4v-1.5l1.5-0.1l0.2-2.7h1.7v2.7h2.6v1.7h-2.6v5c0,1.2,0.4,1.8,1.4,1.8c0.3,0,0.8-0.1,1.1-0.2l0.4,1.5
					c-0.6,0.2-1.2,0.4-1.9,0.4C543.2,21.2,542.4,19.8,542.4,17.8z"/>
				<path d="M547.9,19.9l1-1.3c0.9,0.7,1.7,1.1,2.8,1.1c1.2,0,1.7-0.6,1.7-1.3c0-0.9-1.1-1.3-2.2-1.7c-1.3-0.5-2.8-1.2-2.8-2.9
					c0-1.7,1.3-2.9,3.5-2.9c1.3,0,2.4,0.5,3.2,1.2l-1,1.3c-0.7-0.5-1.4-0.9-2.2-0.9c-1.1,0-1.6,0.5-1.6,1.2c0,0.8,1,1.2,2.1,1.6
					c1.4,0.5,2.9,1.1,2.9,3c0,1.7-1.3,3-3.8,3C550.3,21.2,548.9,20.7,547.9,19.9z"/>
				<path d="M561.1,18.4c0-2.1,1.8-3.2,5.9-3.7c0-1.2-0.4-2.2-1.9-2.2c-1,0-2,0.5-2.9,1l-0.8-1.4c1-0.6,2.4-1.3,4-1.3
					c2.5,0,3.6,1.6,3.6,4.2v6h-1.7l-0.2-1.1h-0.1c-0.9,0.8-2,1.4-3.2,1.4C562.3,21.2,561.1,20.1,561.1,18.4z M567,18.4V16
					c-2.9,0.4-3.9,1.1-3.9,2.2c0,1,0.7,1.4,1.5,1.4C565.5,19.6,566.2,19.2,567,18.4z"/>
				<path d="M572,11.1h1.7l0.2,1.4h0.1c0.9-0.9,1.9-1.6,3.3-1.6c2.1,0,3,1.4,3,3.9V21h-2.1v-6c0-1.7-0.5-2.4-1.7-2.4
					c-0.9,0-1.5,0.5-2.4,1.3v7H572V11.1z"/>
				<path d="M582.6,16.1c0-3.2,2-5.2,4.2-5.2c1.1,0,1.9,0.4,2.7,1.1l-0.1-1.6V6.6h2.1V21h-1.7l-0.2-1.1h-0.1
					c-0.7,0.8-1.8,1.4-2.9,1.4C584.2,21.2,582.6,19.3,582.6,16.1z M589.4,18.3v-4.8c-0.7-0.7-1.4-0.9-2.2-0.9
					c-1.4,0-2.5,1.3-2.5,3.5c0,2.3,0.9,3.5,2.4,3.5C588,19.5,588.7,19.1,589.4,18.3z"/>
				<path d="M597.9,16.1c0-3.3,2.2-5.2,4.7-5.2c2.4,0,4.7,1.9,4.7,5.2c0,3.3-2.2,5.2-4.7,5.2C600.2,21.2,597.9,19.3,597.9,16.1z
					 M605.2,16.1c0-2.1-1-3.5-2.5-3.5c-1.5,0-2.5,1.4-2.5,3.5c0,2.1,1,3.5,2.5,3.5C604.2,19.5,605.2,18.2,605.2,16.1z"/>
				<path d="M609.6,17.3v-6.2h2.1v6c0,1.7,0.5,2.4,1.7,2.4c0.9,0,1.5-0.4,2.4-1.5v-6.9h2.1V21h-1.7l-0.2-1.5h-0.1
					c-0.9,1-1.9,1.7-3.2,1.7C610.5,21.2,609.6,19.8,609.6,17.3z"/>
				<path d="M621.2,17.8v-5h-1.4v-1.5l1.5-0.1l0.2-2.7h1.7v2.7h2.6v1.7h-2.6v5c0,1.2,0.4,1.8,1.4,1.8c0.3,0,0.8-0.1,1.1-0.2l0.4,1.5
					c-0.6,0.2-1.2,0.4-1.9,0.4C622,21.2,621.2,19.8,621.2,17.8z"/>
				<path d="M627,16.1c0-3.3,2.3-5.2,4.9-5.2c1.3,0,2.2,0.5,2.9,1.1l-1,1.4c-0.5-0.5-1.1-0.8-1.8-0.8c-1.7,0-2.8,1.4-2.8,3.5
					c0,2.1,1.1,3.5,2.8,3.5c0.8,0,1.6-0.4,2.2-0.9l0.8,1.4c-0.9,0.8-2.1,1.2-3.2,1.2C629,21.2,627,19.3,627,16.1z"/>
				<path d="M635.8,16.1c0-3.3,2.2-5.2,4.7-5.2c2.4,0,4.7,1.9,4.7,5.2c0,3.3-2.2,5.2-4.7,5.2C638,21.2,635.8,19.3,635.8,16.1z
					 M643,16.1c0-2.1-1-3.5-2.5-3.5c-1.5,0-2.5,1.4-2.5,3.5c0,2.1,1,3.5,2.5,3.5C642.1,19.5,643,18.2,643,16.1z"/>
				<path d="M647.6,11.1h1.7l0.2,1.4h0.1c0.8-0.9,1.8-1.6,3.1-1.6c1.5,0,2.3,0.7,2.7,1.8c1-1,2-1.8,3.2-1.8c2.1,0,3,1.4,3,3.9V21
					h-2.1v-6c0-1.7-0.5-2.4-1.7-2.4c-0.7,0-1.4,0.5-2.2,1.3v7h-2.1v-6c0-1.7-0.5-2.4-1.7-2.4c-0.7,0-1.4,0.5-2.2,1.3v7h-2.1V11.1z"
					/>
				<path d="M663.8,16.1c0-3.2,2.2-5.2,4.5-5.2c2.6,0,4,1.9,4,4.7c0,0.4,0,0.8-0.1,1h-6.4c0.2,1.9,1.3,3,3.1,3
					c0.9,0,1.6-0.3,2.4-0.7l0.7,1.3c-0.9,0.6-2.1,1-3.3,1C666,21.2,663.8,19.3,663.8,16.1z M670.6,15.2c0-1.7-0.8-2.7-2.2-2.7
					c-1.2,0-2.3,1-2.5,2.7H670.6z"/>
				<path d="M673.7,19.9l1-1.3c0.9,0.7,1.7,1.1,2.8,1.1c1.2,0,1.7-0.6,1.7-1.3c0-0.9-1.1-1.3-2.2-1.7c-1.3-0.5-2.8-1.2-2.8-2.9
					c0-1.7,1.3-2.9,3.5-2.9c1.3,0,2.4,0.5,3.2,1.2l-1,1.3c-0.7-0.5-1.4-0.9-2.2-0.9c-1.1,0-1.6,0.5-1.6,1.2c0,0.8,1,1.2,2.1,1.6
					c1.4,0.5,2.9,1.1,2.9,3c0,1.7-1.3,3-3.8,3C676,21.2,674.6,20.7,673.7,19.9z"/>
			</g>
			<g id="cell1" transform="translate(0.000000, 107.000000)">
				<g class="st1">
					<path d="M65.7,55.6h-4.3L60.5,59h-2.7L62,45.7h3.1L69.5,59h-2.8L65.7,55.6z M65.2,53.5L64.8,52c-0.4-1.4-0.8-2.9-1.2-4.4h-0.1
						c-0.3,1.5-0.7,3-1.1,4.4L62,53.5H65.2z"/>
					<path d="M70.2,54c0-3.3,2.1-5.3,4.2-5.3c1.1,0,1.8,0.4,2.6,1.1l-0.1-1.6v-3.5h2.6V59h-2.1l-0.2-1h-0.1
						c-0.7,0.7-1.7,1.3-2.8,1.3C71.9,59.3,70.2,57.3,70.2,54z M76.9,56v-4.4c-0.6-0.6-1.2-0.8-1.9-0.8c-1.1,0-2.1,1.1-2.1,3.1
						c0,2.1,0.8,3.1,2.1,3.1C75.7,57.1,76.3,56.8,76.9,56z"/>
					<path d="M81.2,48.9h2.7l1.5,5c0.3,1,0.5,2,0.8,3.1h0.1c0.3-1,0.5-2.1,0.8-3.1l1.5-5h2.5L87.7,59h-3.1L81.2,48.9z"/>
					<path d="M92,54c0-3.3,2.3-5.3,4.7-5.3c2.8,0,4.2,2,4.2,4.8c0,0.5-0.1,1-0.1,1.2h-6.2c0.2,1.7,1.3,2.5,2.8,2.5
						c0.8,0,1.5-0.3,2.3-0.7l0.9,1.6c-1,0.7-2.3,1.1-3.5,1.1C94.2,59.3,92,57.3,92,54z M98.6,53c0-1.4-0.6-2.2-1.9-2.2
						c-1.1,0-2,0.8-2.2,2.2H98.6z"/>
					<path d="M103.1,48.9h2.2l0.2,1.8h0.1c0.7-1.3,1.8-2,2.9-2c0.6,0,0.9,0.1,1.2,0.2l-0.5,2.3c-0.3-0.1-0.6-0.2-1-0.2
						c-0.8,0-1.7,0.5-2.3,2v6h-2.6V48.9z"/>
					<path d="M109.8,57.8l1.2-1.7c0.9,0.7,1.8,1.1,2.7,1.1c1,0,1.5-0.4,1.5-1.1c0-0.8-1-1.1-2.1-1.5c-1.3-0.5-2.8-1.3-2.8-2.9
						c0-1.8,1.5-3.1,3.7-3.1c1.5,0,2.6,0.6,3.4,1.2l-1.2,1.6c-0.7-0.5-1.4-0.9-2.2-0.9c-0.9,0-1.3,0.4-1.3,1c0,0.7,1,1,2.1,1.4
						c1.3,0.5,2.8,1.2,2.8,3c0,1.8-1.4,3.2-4,3.2C112.3,59.3,110.8,58.7,109.8,57.8z"/>
					<path d="M119.1,54c0-3.3,2.3-5.3,4.7-5.3c2.8,0,4.2,2,4.2,4.8c0,0.5-0.1,1-0.1,1.2h-6.2c0.2,1.7,1.3,2.5,2.8,2.5
						c0.8,0,1.5-0.3,2.3-0.7l0.9,1.6c-1,0.7-2.3,1.1-3.5,1.1C121.3,59.3,119.1,57.3,119.1,54z M125.7,53c0-1.4-0.6-2.2-1.9-2.2
						c-1.1,0-2,0.8-2.2,2.2H125.7z"/>
					<path d="M134.5,45.7h8.2v2.2h-5.5V51h4.7v2.2h-4.7v3.6h5.7V59h-8.4V45.7z"/>
					<path d="M143.9,48.9h2.7l1.5,5c0.3,1,0.5,2,0.8,3.1h0.1c0.3-1,0.5-2.1,0.8-3.1l1.5-5h2.5L150.4,59h-3.1L143.9,48.9z"/>
					<path d="M154.7,54c0-3.3,2.3-5.3,4.7-5.3c2.8,0,4.2,2,4.2,4.8c0,0.5-0.1,1-0.1,1.2h-6.2c0.2,1.7,1.3,2.5,2.8,2.5
						c0.8,0,1.5-0.3,2.3-0.7l0.9,1.6c-1,0.7-2.3,1.1-3.5,1.1C156.9,59.3,154.7,57.3,154.7,54z M161.3,53c0-1.4-0.6-2.2-1.9-2.2
						c-1.1,0-2,0.8-2.2,2.2H161.3z"/>
					<path d="M165.8,48.9h2.2l0.2,1.3h0.1c0.9-0.9,1.9-1.6,3.3-1.6c2.2,0,3.1,1.5,3.1,4.1V59h-2.6v-6c0-1.5-0.4-2.1-1.4-2.1
						c-0.8,0-1.4,0.4-2.1,1.1V59h-2.6V48.9z"/>
					<path d="M177.7,55.5V51h-1.4v-2l1.5-0.1l0.3-2.7h2.2v2.7h2.5V51h-2.5v4.5c0,1.2,0.5,1.7,1.4,1.7c0.3,0,0.7-0.1,1-0.2l0.4,1.9
						c-0.5,0.2-1.2,0.4-2.1,0.4C178.6,59.3,177.7,57.7,177.7,55.5z"/>
					<path d="M183.7,57.8l1.2-1.7c0.9,0.7,1.8,1.1,2.7,1.1c1,0,1.5-0.4,1.5-1.1c0-0.8-1-1.1-2.1-1.5c-1.3-0.5-2.8-1.3-2.8-2.9
						c0-1.8,1.5-3.1,3.7-3.1c1.5,0,2.6,0.6,3.4,1.2l-1.2,1.6c-0.7-0.5-1.4-0.9-2.2-0.9c-0.9,0-1.3,0.4-1.3,1c0,0.7,1,1,2.1,1.4
						c1.3,0.5,2.8,1.2,2.8,3c0,1.8-1.4,3.2-4,3.2C186.2,59.3,184.7,58.7,183.7,57.8z"/>
				</g>
				<g class="st1">
					<path d="M343.8,82.4h-1.7V86h-1.9v-3.6h-5.7V81l5.3-8.3h2.4v8.1h1.7V82.4z M340.2,80.8v-3.5c0-0.7,0.1-1.8,0.1-2.6h-0.1
						c-0.3,0.7-0.7,1.4-1.1,2l-2.6,4H340.2z"/>
					<path d="M344.9,84.4l1-1.3c0.8,0.8,1.8,1.5,3.1,1.5c1.5,0,2.5-0.8,2.5-2.2c0-1.5-0.9-2.4-3.9-2.4v-1.5c2.6,0,3.5-1,3.5-2.3
						c0-1.2-0.8-1.9-2-1.9c-1,0-1.9,0.5-2.6,1.3l-1.1-1.3c1-0.9,2.3-1.6,3.8-1.6c2.4,0,4.1,1.2,4.1,3.4c0,1.5-0.9,2.6-2.3,3.1v0.1
						c1.5,0.4,2.7,1.5,2.7,3.3c0,2.4-2,3.8-4.4,3.8C347.1,86.2,345.8,85.4,344.9,84.4z"/>
					<path d="M355.5,82.7c0-1.7,1.2-2.9,2.4-3.6V79c-1-0.7-1.8-1.7-1.8-3.1c0-2.1,1.6-3.4,3.8-3.4c2.3,0,3.7,1.4,3.7,3.5
						c0,1.4-0.9,2.5-1.7,3.1v0.1c1.2,0.7,2.2,1.7,2.2,3.5c0,2-1.7,3.5-4.3,3.5C357.3,86.2,355.5,84.8,355.5,82.7z M362.1,82.7
						c0-1.6-1.5-2.2-3.3-3c-0.9,0.6-1.5,1.6-1.5,2.8c0,1.3,1.1,2.2,2.5,2.2C361.2,84.7,362.1,83.9,362.1,82.7z M361.8,76.2
						c0-1.2-0.7-2.1-2-2.1c-1.1,0-1.9,0.7-1.9,1.9c0,1.4,1.3,2.1,2.7,2.7C361.4,77.9,361.8,77.1,361.8,76.2z"/>
				</g>
				<g class="st1">
					<path d="M522.6,84.4l1-1.3c0.8,0.8,1.8,1.5,3.1,1.5c1.5,0,2.5-0.8,2.5-2.2c0-1.5-0.9-2.4-3.9-2.4v-1.5c2.6,0,3.5-1,3.5-2.3
						c0-1.2-0.8-1.9-2-1.9c-1,0-1.9,0.5-2.6,1.3l-1.1-1.3c1-0.9,2.3-1.6,3.8-1.6c2.4,0,4.1,1.2,4.1,3.4c0,1.5-0.9,2.6-2.3,3.1v0.1
						c1.5,0.4,2.7,1.5,2.7,3.3c0,2.4-2,3.8-4.4,3.8C524.8,86.2,523.5,85.4,522.6,84.4z"/>
					<path d="M532.9,84.5l1-1.4c0.8,0.8,1.7,1.4,3.1,1.4c1.5,0,2.6-1.1,2.6-2.8s-1-2.8-2.5-2.8c-0.8,0-1.4,0.3-2.1,0.8l-1-0.7
						l0.4-6.3h6.7v1.7h-4.9l-0.3,3.4c0.6-0.3,1.1-0.5,1.8-0.5c2.2,0,4,1.3,4,4.2c0,2.9-2.1,4.6-4.5,4.6
						C535.1,86.2,533.8,85.4,532.9,84.5z"/>
					<path d="M543.1,84.4l1-1.3c0.8,0.8,1.8,1.5,3.1,1.5c1.5,0,2.5-0.8,2.5-2.2c0-1.5-0.9-2.4-3.9-2.4v-1.5c2.6,0,3.5-1,3.5-2.3
						c0-1.2-0.8-1.9-2-1.9c-1,0-1.9,0.5-2.6,1.3l-1.1-1.3c1-0.9,2.3-1.6,3.8-1.6c2.4,0,4.1,1.2,4.1,3.4c0,1.5-0.9,2.6-2.3,3.1v0.1
						c1.5,0.4,2.7,1.5,2.7,3.3c0,2.4-2,3.8-4.4,3.8C545.4,86.2,544,85.4,543.1,84.4z"/>
				</g>
				<g class="st1">
					<path d="M711.7,84.3h2.9v-9.2h-2.4v-1.3c1.2-0.2,2.1-0.5,2.9-1h1.6v11.5h2.6V86h-7.6V84.3z"/>
					<path d="M721.2,82.7c0-1.7,1.2-2.9,2.4-3.6V79c-1-0.7-1.8-1.7-1.8-3.1c0-2.1,1.6-3.4,3.8-3.4c2.3,0,3.7,1.4,3.7,3.5
						c0,1.4-0.9,2.5-1.7,3.1v0.1c1.2,0.7,2.2,1.7,2.2,3.5c0,2-1.7,3.5-4.3,3.5C723,86.2,721.2,84.8,721.2,82.7z M727.8,82.7
						c0-1.6-1.5-2.2-3.3-3c-0.9,0.6-1.5,1.6-1.5,2.8c0,1.3,1.1,2.2,2.5,2.2C726.9,84.7,727.8,83.9,727.8,82.7z M727.6,76.2
						c0-1.2-0.7-2.1-2-2.1c-1.1,0-1.9,0.7-1.9,1.9c0,1.4,1.3,2.1,2.7,2.7C727.2,77.9,727.6,77.1,727.6,76.2z"/>
					<path d="M732.2,84.3h2.9v-9.2h-2.4v-1.3c1.2-0.2,2.1-0.5,2.9-1h1.6v11.5h2.6V86h-7.6V84.3z"/>
				</g>
				<g class="st1">
					<path d="M867.2,72.7h2.1l4.4,7.8l1.4,2.8h0.1c-0.1-1.4-0.3-3-0.3-4.4v-6.2h2V86h-2.1l-4.4-7.8l-1.4-2.8h-0.1
						c0.1,1.4,0.3,2.9,0.3,4.3V86h-2V72.7z"/>
					<path d="M879.5,81.1c0-3.3,2.2-5.2,4.7-5.2c2.4,0,4.7,1.9,4.7,5.2c0,3.3-2.2,5.2-4.7,5.2C881.7,86.2,879.5,84.3,879.5,81.1z
						 M886.7,81.1c0-2.1-1-3.5-2.5-3.5c-1.5,0-2.5,1.4-2.5,3.5c0,2.1,1,3.5,2.5,3.5C885.8,84.5,886.7,83.2,886.7,81.1z"/>
					<path d="M891.2,82.8v-5h-1.4v-1.5l1.5-0.1l0.2-2.7h1.7v2.7h2.6v1.7h-2.6v5c0,1.2,0.4,1.8,1.4,1.8c0.3,0,0.8-0.1,1.1-0.2
						l0.4,1.5c-0.6,0.2-1.2,0.4-1.9,0.4C892,86.2,891.2,84.8,891.2,82.8z"/>
					<path d="M902,76.1h1.7l0.2,1.8h0.1c0.7-1.3,1.7-2,2.8-2c0.5,0,0.8,0.1,1.1,0.2l-0.4,1.8c-0.3-0.1-0.6-0.2-1-0.2
						c-0.8,0-1.8,0.6-2.4,2.1V86H902V76.1z"/>
					<path d="M908.5,81.1c0-3.2,2.2-5.2,4.5-5.2c2.6,0,4,1.9,4,4.7c0,0.4,0,0.8-0.1,1h-6.4c0.2,1.9,1.4,3,3.1,3
						c0.9,0,1.6-0.3,2.4-0.7l0.7,1.3c-0.9,0.6-2.1,1-3.3,1C910.6,86.2,908.5,84.3,908.5,81.1z M915.3,80.2c0-1.7-0.8-2.7-2.2-2.7
						c-1.2,0-2.3,1-2.5,2.7H915.3z"/>
					<path d="M919.4,83.7v-12h2.1v12.1c0,0.6,0.3,0.8,0.5,0.8c0.1,0,0.2,0,0.3,0l0.3,1.6c-0.3,0.1-0.6,0.2-1.1,0.2
						C919.9,86.2,919.4,85.3,919.4,83.7z"/>
					<path d="M924.2,83.4c0-2.1,1.8-3.2,5.9-3.7c0-1.2-0.4-2.2-1.9-2.2c-1,0-2,0.5-2.9,1l-0.8-1.4c1-0.6,2.4-1.3,4-1.3
						c2.5,0,3.6,1.6,3.6,4.2v6h-1.7l-0.2-1.1h-0.1c-0.9,0.8-2,1.4-3.2,1.4C925.4,86.2,924.2,85.1,924.2,83.4z M930.1,83.4V81
						c-2.9,0.4-3.9,1.1-3.9,2.2c0,1,0.7,1.4,1.5,1.4C928.6,84.6,929.3,84.2,930.1,83.4z"/>
					<path d="M935.1,82.8v-5h-1.4v-1.5l1.5-0.1l0.2-2.7h1.7v2.7h2.6v1.7h-2.6v5c0,1.2,0.4,1.8,1.4,1.8c0.3,0,0.8-0.1,1.1-0.2
						l0.4,1.5c-0.6,0.2-1.2,0.4-1.9,0.4C935.9,86.2,935.1,84.8,935.1,82.8z"/>
					<path d="M940.9,81.1c0-3.2,2.2-5.2,4.5-5.2c2.6,0,4,1.9,4,4.7c0,0.4,0,0.8-0.1,1h-6.4c0.2,1.9,1.4,3,3.1,3
						c0.9,0,1.6-0.3,2.4-0.7l0.7,1.3c-0.9,0.6-2.1,1-3.3,1C943,86.2,940.9,84.3,940.9,81.1z M947.7,80.2c0-1.7-0.8-2.7-2.2-2.7
						c-1.2,0-2.3,1-2.5,2.7H947.7z"/>
					<path d="M951.1,81.1c0-3.2,2-5.2,4.2-5.2c1.1,0,1.9,0.4,2.7,1.1l-0.1-1.6v-3.7h2.1V86h-1.7l-0.2-1.1h-0.1
						c-0.7,0.8-1.8,1.4-2.9,1.4C952.7,86.2,951.1,84.3,951.1,81.1z M957.9,83.3v-4.8c-0.7-0.7-1.4-0.9-2.2-0.9
						c-1.4,0-2.5,1.3-2.5,3.5c0,2.3,0.9,3.5,2.4,3.5C956.5,84.5,957.2,84.1,957.9,83.3z"/>
				</g>
				<path id="divider" class="st3" d="M0,113h1000"/>
				<g id="subhead" transform="translate(258.000000, 0.000000)">
					<g>
						<path class="st4" d="M8.8,0.8h160.5c4.4,0,8,3.6,8,8v32.5c0,4.4-3.6,8-8,8H8.8c-4.4,0-8-3.6-8-8V8.8C0.8,4.3,4.3,0.8,8.8,0.8z
							"/>
						<g class="st1">
							<path d="M54.4,19.9h2.2V31h-2.2V19.9z"/>
							<path d="M59.1,22.6h1.8l0.1,1.1h0.1c0.7-0.7,1.6-1.3,2.7-1.3c1.8,0,2.6,1.3,2.6,3.4V31h-2.2v-5c0-1.3-0.4-1.8-1.2-1.8
								c-0.7,0-1.1,0.3-1.8,0.9V31h-2.2V22.6z"/>
							<path d="M68.2,26.8c0-2.8,2-4.4,4.3-4.4c1,0,1.8,0.4,2.4,0.9l-1,1.4c-0.4-0.4-0.8-0.6-1.3-0.6c-1.3,0-2.1,1-2.1,2.6
								c0,1.6,0.9,2.6,2.1,2.6c0.6,0,1.2-0.3,1.6-0.7l0.9,1.5c-0.8,0.7-1.8,1-2.7,1C70,31.2,68.2,29.6,68.2,26.8z"/>
							<path d="M76.4,20.1c0-0.7,0.6-1.2,1.3-1.2c0.8,0,1.3,0.5,1.3,1.2c0,0.7-0.6,1.2-1.3,1.2C77,21.2,76.4,20.7,76.4,20.1z
								 M76.7,22.6h2.2V31h-2.2V22.6z"/>
							<path d="M80.7,26.8c0-2.7,1.7-4.4,3.5-4.4c0.9,0,1.5,0.4,2.1,0.9L86.3,22v-3h2.2v12h-1.8l-0.2-0.9h0
								c-0.6,0.6-1.5,1.1-2.3,1.1C82.1,31.2,80.7,29.6,80.7,26.8z M86.3,28.5v-3.7c-0.5-0.5-1-0.6-1.6-0.6c-0.9,0-1.7,0.9-1.7,2.6
								c0,1.7,0.6,2.6,1.7,2.6C85.3,29.4,85.8,29.2,86.3,28.5z"/>
							<path d="M90.3,26.8c0-2.7,1.9-4.4,3.9-4.4c2.3,0,3.5,1.7,3.5,4c0,0.4,0,0.8-0.1,1h-5.2c0.2,1.4,1.1,2.1,2.3,2.1
								c0.7,0,1.3-0.2,1.9-0.6l0.8,1.4c-0.8,0.6-1.9,0.9-2.9,0.9C92.2,31.2,90.3,29.6,90.3,26.8z M95.9,26c0-1.1-0.5-1.9-1.6-1.9
								c-0.9,0-1.7,0.6-1.8,1.9H95.9z"/>
							<path d="M99.6,22.6h1.8l0.1,1.1h0.1c0.7-0.7,1.6-1.3,2.7-1.3c1.8,0,2.6,1.3,2.6,3.4V31h-2.2v-5c0-1.3-0.4-1.8-1.2-1.8
								c-0.7,0-1.1,0.3-1.8,0.9V31h-2.2V22.6z"/>
							<path d="M108.7,26.8c0-2.8,2-4.4,4.3-4.4c1,0,1.8,0.4,2.4,0.9l-1,1.4c-0.4-0.4-0.8-0.6-1.3-0.6c-1.3,0-2.1,1-2.1,2.6
								c0,1.6,0.9,2.6,2.1,2.6c0.6,0,1.2-0.3,1.6-0.7l0.9,1.5c-0.8,0.7-1.8,1-2.7,1C110.4,31.2,108.7,29.6,108.7,26.8z"/>
							<path d="M116.1,26.8c0-2.7,1.9-4.4,3.9-4.4c2.3,0,3.5,1.7,3.5,4c0,0.4,0,0.8-0.1,1h-5.2c0.2,1.4,1.1,2.1,2.3,2.1
								c0.7,0,1.3-0.2,1.9-0.6l0.8,1.4c-0.8,0.6-1.9,0.9-2.9,0.9C118,31.2,116.1,29.6,116.1,26.8z M121.7,26c0-1.1-0.5-1.9-1.6-1.9
								c-0.9,0-1.7,0.6-1.8,1.9H121.7z"/>
						</g>
					</g>
					<g transform="translate(188.000000, 0.000000)">
						<path class="st4" d="M8.8,0.8h160.5c4.4,0,8,3.6,8,8v32.5c0,4.4-3.6,8-8,8H8.8c-4.4,0-8-3.6-8-8V8.8C0.8,4.3,4.3,0.8,8.8,0.8z
							"/>
						<g class="st1">
							<path d="M62.3,31L60,26.8h-1.5V31h-2.2V19.9h3.9c2.3,0,4.2,0.8,4.2,3.4c0,1.7-0.8,2.7-2.1,3.2l2.6,4.5H62.3z M58.5,25h1.4
								c1.4,0,2.2-0.6,2.2-1.8c0-1.2-0.8-1.6-2.2-1.6h-1.4V25z"/>
							<path d="M65.6,26.8c0-2.7,1.9-4.4,3.9-4.4c2.3,0,3.5,1.7,3.5,4c0,0.4,0,0.8-0.1,1h-5.2c0.2,1.4,1.1,2.1,2.3,2.1
								c0.7,0,1.3-0.2,1.9-0.6l0.8,1.4c-0.8,0.6-1.9,0.9-2.9,0.9C67.4,31.2,65.6,29.6,65.6,26.8z M71.1,26c0-1.1-0.5-1.9-1.6-1.9
								c-0.9,0-1.7,0.6-1.8,1.9H71.1z"/>
							<path d="M74.1,30l1-1.4c0.8,0.6,1.5,0.9,2.2,0.9c0.8,0,1.2-0.4,1.2-0.9c0-0.6-0.9-0.9-1.8-1.3c-1.1-0.4-2.3-1-2.3-2.4
								c0-1.5,1.2-2.6,3.1-2.6c1.2,0,2.2,0.5,2.9,1l-1,1.3c-0.6-0.4-1.2-0.7-1.8-0.7c-0.8,0-1.1,0.3-1.1,0.8c0,0.6,0.8,0.8,1.7,1.2
								c1.1,0.4,2.3,1,2.3,2.5c0,1.5-1.2,2.7-3.3,2.7C76.1,31.2,74.9,30.7,74.1,30z"/>
							<path d="M81.8,26.8c0-2.8,1.9-4.4,4-4.4c2.1,0,4,1.6,4,4.4c0,2.8-1.9,4.4-4,4.4C83.7,31.2,81.8,29.6,81.8,26.8z M87.6,26.8
								c0-1.6-0.6-2.6-1.8-2.6c-1.1,0-1.8,1-1.8,2.6c0,1.6,0.6,2.6,1.8,2.6C86.9,29.4,87.6,28.4,87.6,26.8z"/>
							<path d="M91.7,28.6V19h2.2v9.7c0,0.5,0.2,0.7,0.5,0.7c0.1,0,0.1,0,0.3,0l0.3,1.6c-0.3,0.1-0.6,0.2-1.1,0.2
								C92.2,31.2,91.7,30.2,91.7,28.6z"/>
							<path d="M95.4,22.6h2.2l1.2,4.2c0.2,0.8,0.5,1.7,0.7,2.5h0.1c0.2-0.9,0.5-1.7,0.7-2.5l1.2-4.2h2.1l-2.8,8.4h-2.6L95.4,22.6z"
								/>
							<path d="M104.4,26.8c0-2.7,1.9-4.4,3.9-4.4c2.3,0,3.5,1.7,3.5,4c0,0.4,0,0.8-0.1,1h-5.2c0.2,1.4,1.1,2.1,2.3,2.1
								c0.7,0,1.3-0.2,1.9-0.6l0.8,1.4c-0.8,0.6-1.9,0.9-2.9,0.9C106.2,31.2,104.4,29.6,104.4,26.8z M109.9,26
								c0-1.1-0.5-1.9-1.6-1.9c-0.9,0-1.7,0.6-1.8,1.9H109.9z"/>
							<path d="M113.1,26.8c0-2.7,1.7-4.4,3.5-4.4c0.9,0,1.5,0.4,2.1,0.9l-0.1-1.3v-3h2.2v12h-1.8l-0.2-0.9h0
								c-0.6,0.6-1.5,1.1-2.3,1.1C114.5,31.2,113.1,29.6,113.1,26.8z M118.7,28.5v-3.7c-0.5-0.5-1-0.6-1.6-0.6
								c-0.9,0-1.7,0.9-1.7,2.6c0,1.7,0.6,2.6,1.7,2.6C117.7,29.4,118.2,29.2,118.7,28.5z"/>
						</g>
					</g>
					<g transform="translate(376.000000, 0.000000)">
						<path class="st4" d="M8.8,0.8h160.5c4.4,0,8,3.6,8,8v32.5c0,4.4-3.6,8-8,8H8.8c-4.4,0-8-3.6-8-8V8.8C0.8,4.3,4.3,0.8,8.8,0.8z
							"/>
						<g class="st1">
							<path d="M34.8,19.9h2.5l1.9,5.2c0.2,0.7,0.4,1.4,0.7,2.1h0.1c0.2-0.7,0.4-1.5,0.7-2.1l1.8-5.2h2.5V31h-2v-4.6
								c0-1,0.2-2.6,0.3-3.6h-0.1l-0.9,2.6L40.5,30h-1.3l-1.7-4.7l-0.9-2.6h-0.1c0.1,1,0.3,2.6,0.3,3.6V31h-2V19.9z"/>
							<path d="M47.3,20.1c0-0.7,0.6-1.2,1.3-1.2c0.8,0,1.3,0.5,1.3,1.2c0,0.7-0.6,1.2-1.3,1.2C47.8,21.2,47.3,20.7,47.3,20.1z
								 M47.5,22.6h2.2V31h-2.2V22.6z"/>
							<path d="M52,28.6V19h2.2v9.7c0,0.5,0.2,0.7,0.5,0.7c0.1,0,0.1,0,0.3,0l0.3,1.6c-0.3,0.1-0.6,0.2-1.1,0.2
								C52.6,31.2,52,30.2,52,28.6z"/>
							<path d="M56.3,26.8c0-2.7,1.7-4.4,3.5-4.4c0.9,0,1.5,0.4,2.1,0.9L61.8,22v-3H64v12h-1.8l-0.2-0.9h0c-0.6,0.6-1.5,1.1-2.3,1.1
								C57.6,31.2,56.3,29.6,56.3,26.8z M61.8,28.5v-3.7c-0.5-0.5-1-0.6-1.6-0.6c-0.9,0-1.7,0.9-1.7,2.6c0,1.7,0.6,2.6,1.7,2.6
								C60.9,29.4,61.4,29.2,61.8,28.5z"/>
							<path d="M69.6,20.1c0-0.7,0.6-1.2,1.3-1.2c0.8,0,1.3,0.5,1.3,1.2c0,0.7-0.6,1.2-1.3,1.2C70.2,21.2,69.6,20.7,69.6,20.1z
								 M69.8,22.6H72V31h-2.2V22.6z"/>
							<path d="M74.4,22.6h1.8l0.1,1.1h0.1c0.7-0.7,1.6-1.3,2.7-1.3c1.8,0,2.6,1.3,2.6,3.4V31h-2.2v-5c0-1.3-0.4-1.8-1.2-1.8
								c-0.7,0-1.1,0.3-1.8,0.9V31h-2.2V22.6z"/>
							<path d="M86.6,30l1-1.4c0.8,0.6,1.5,0.9,2.2,0.9c0.8,0,1.2-0.4,1.2-0.9c0-0.6-0.9-0.9-1.8-1.3C88.2,27,87,26.4,87,25
								c0-1.5,1.2-2.6,3.1-2.6c1.2,0,2.2,0.5,2.9,1l-1,1.3c-0.6-0.4-1.2-0.7-1.8-0.7c-0.8,0-1.1,0.3-1.1,0.8c0,0.6,0.8,0.8,1.7,1.2
								c1.1,0.4,2.3,1,2.3,2.5c0,1.5-1.2,2.7-3.3,2.7C88.7,31.2,87.4,30.7,86.6,30z"/>
							<path d="M94.3,26.8c0-2.7,1.9-4.4,3.9-4.4c2.3,0,3.5,1.7,3.5,4c0,0.4,0,0.8-0.1,1h-5.2c0.2,1.4,1.1,2.1,2.3,2.1
								c0.7,0,1.3-0.2,1.9-0.6l0.8,1.4c-0.8,0.6-1.9,0.9-2.9,0.9C96.1,31.2,94.3,29.6,94.3,26.8z M99.8,26c0-1.1-0.5-1.9-1.6-1.9
								c-0.9,0-1.7,0.6-1.8,1.9H99.8z"/>
							<path d="M102.5,22.6h2.2l1.2,4.2c0.2,0.8,0.5,1.7,0.7,2.5h0.1c0.2-0.9,0.5-1.7,0.7-2.5l1.2-4.2h2.1l-2.8,8.4h-2.6L102.5,22.6
								z"/>
							<path d="M111.5,26.8c0-2.7,1.9-4.4,3.9-4.4c2.3,0,3.5,1.7,3.5,4c0,0.4,0,0.8-0.1,1h-5.2c0.2,1.4,1.1,2.1,2.3,2.1
								c0.7,0,1.3-0.2,1.9-0.6l0.8,1.4c-0.8,0.6-1.9,0.9-2.9,0.9C113.3,31.2,111.5,29.6,111.5,26.8z M117,26c0-1.1-0.5-1.9-1.6-1.9
								c-0.9,0-1.7,0.6-1.8,1.9H117z"/>
							<path d="M120.7,22.6h1.8l0.1,1.5h0.1c0.6-1.1,1.5-1.7,2.4-1.7c0.5,0,0.7,0.1,1,0.2l-0.4,1.9c-0.3-0.1-0.5-0.1-0.9-0.1
								c-0.7,0-1.5,0.4-1.9,1.7v5h-2.2V22.6z"/>
							<path d="M127,20.1c0-0.7,0.6-1.2,1.3-1.2c0.8,0,1.3,0.5,1.3,1.2c0,0.7-0.6,1.2-1.3,1.2C127.6,21.2,127,20.7,127,20.1z
								 M127.2,22.6h2.2V31h-2.2V22.6z"/>
							<path d="M132.1,28.1v-3.7h-1.2v-1.6l1.3-0.1l0.3-2.2h1.8v2.2h2.1v1.7h-2.1v3.7c0,1,0.4,1.4,1.1,1.4c0.3,0,0.6-0.1,0.8-0.2
								l0.4,1.6c-0.5,0.2-1,0.3-1.8,0.3C132.9,31.2,132.1,30,132.1,28.1z"/>
							<path d="M137.7,34.2l0.4-1.7c0.1,0,0.4,0.1,0.6,0.1c0.9,0,1.3-0.5,1.6-1.3l0.1-0.5l-3.3-8.2h2.2l1.3,3.9
								c0.3,0.8,0.5,1.6,0.7,2.4h0.1c0.2-0.8,0.4-1.6,0.6-2.4l1.2-3.9h2.1l-3,8.7c-0.7,2-1.6,3.1-3.5,3.1
								C138.3,34.4,138,34.3,137.7,34.2z"/>
						</g>
					</g>
					<g transform="translate(564.000000, 0.000000)">
						<path class="st4" d="M8.8,0.8h160.5c4.4,0,8,3.6,8,8v32.5c0,4.4-3.6,8-8,8H8.8c-4.4,0-8-3.6-8-8V8.8C0.8,4.3,4.3,0.8,8.8,0.8z
							"/>
						<g class="st1">
							<path d="M20.4,31l-2.3-4.2h-1.5V31h-2.2V19.9h3.9c2.3,0,4.2,0.8,4.2,3.4c0,1.7-0.8,2.7-2.1,3.2l2.6,4.5H20.4z M16.6,25H18
								c1.4,0,2.2-0.6,2.2-1.8c0-1.2-0.8-1.6-2.2-1.6h-1.4V25z"/>
							<path d="M23.7,26.8c0-2.7,1.9-4.4,3.9-4.4c2.3,0,3.5,1.7,3.5,4c0,0.4,0,0.8-0.1,1h-5.2c0.2,1.4,1.1,2.1,2.3,2.1
								c0.7,0,1.3-0.2,1.9-0.6l0.8,1.4c-0.8,0.6-1.9,0.9-2.9,0.9C25.5,31.2,23.7,29.6,23.7,26.8z M29.2,26c0-1.1-0.5-1.9-1.6-1.9
								c-0.9,0-1.7,0.6-1.8,1.9H29.2z"/>
							<path d="M32.9,28.6V19h2.2v9.7c0,0.5,0.2,0.7,0.5,0.7c0.1,0,0.1,0,0.3,0l0.3,1.6c-0.3,0.1-0.6,0.2-1.1,0.2
								C33.5,31.2,32.9,30.2,32.9,28.6z"/>
							<path d="M37.3,28.7c0-1.8,1.5-2.7,4.8-3.1c0-0.8-0.4-1.5-1.4-1.5c-0.8,0-1.5,0.3-2.3,0.8l-0.8-1.5c1-0.6,2.2-1.1,3.5-1.1
								c2.1,0,3.2,1.3,3.2,3.7V31h-1.8l-0.2-0.9h0c-0.7,0.6-1.6,1.1-2.5,1.1C38.2,31.2,37.3,30.1,37.3,28.7z M42.1,28.7V27
								c-2,0.3-2.7,0.8-2.7,1.6c0,0.7,0.5,0.9,1.1,0.9C41.1,29.5,41.6,29.2,42.1,28.7z"/>
							<path d="M46.6,28.1v-3.7h-1.2v-1.6l1.3-0.1l0.3-2.2h1.8v2.2h2.1v1.7h-2.1v3.7c0,1,0.4,1.4,1.1,1.4c0.3,0,0.6-0.1,0.8-0.2
								l0.4,1.6c-0.5,0.2-1,0.3-1.8,0.3C47.3,31.2,46.6,30,46.6,28.1z"/>
							<path d="M52.3,20.1c0-0.7,0.6-1.2,1.3-1.2c0.8,0,1.3,0.5,1.3,1.2c0,0.7-0.6,1.2-1.3,1.2C52.9,21.2,52.3,20.7,52.3,20.1z
								 M52.6,22.6h2.2V31h-2.2V22.6z"/>
							<path d="M56.6,26.8c0-2.8,1.9-4.4,4-4.4s4,1.6,4,4.4c0,2.8-1.9,4.4-4,4.4S56.6,29.6,56.6,26.8z M62.4,26.8
								c0-1.6-0.6-2.6-1.8-2.6s-1.8,1-1.8,2.6c0,1.6,0.6,2.6,1.8,2.6S62.4,28.4,62.4,26.8z"/>
							<path d="M66.5,22.6h1.8l0.1,1.1h0.1c0.7-0.7,1.6-1.3,2.7-1.3c1.8,0,2.6,1.3,2.6,3.4V31h-2.2v-5c0-1.3-0.4-1.8-1.2-1.8
								c-0.7,0-1.1,0.3-1.8,0.9V31h-2.2V22.6z"/>
							<path d="M75.3,30l1-1.4c0.8,0.6,1.5,0.9,2.2,0.9c0.8,0,1.2-0.4,1.2-0.9c0-0.6-0.9-0.9-1.8-1.3c-1.1-0.4-2.3-1-2.3-2.4
								c0-1.5,1.2-2.6,3.1-2.6c1.2,0,2.2,0.5,2.9,1l-1,1.3c-0.6-0.4-1.2-0.7-1.8-0.7c-0.8,0-1.1,0.3-1.1,0.8c0,0.6,0.8,0.8,1.7,1.2
								c1.1,0.4,2.3,1,2.3,2.5c0,1.5-1.2,2.7-3.3,2.7C77.4,31.2,76.1,30.7,75.3,30z"/>
							<path d="M83.5,19h2.2v3l-0.1,1.6c0.7-0.6,1.5-1.2,2.6-1.2c1.8,0,2.6,1.3,2.6,3.4V31h-2.2v-5c0-1.3-0.4-1.8-1.2-1.8
								c-0.7,0-1.1,0.3-1.8,0.9V31h-2.2V19z"/>
							<path d="M92.9,20.1c0-0.7,0.6-1.2,1.3-1.2c0.8,0,1.3,0.5,1.3,1.2c0,0.7-0.6,1.2-1.3,1.2C93.5,21.2,92.9,20.7,92.9,20.1z
								 M93.1,22.6h2.2V31h-2.2V22.6z"/>
							<path d="M97.7,22.6h1.8l0.1,0.9h0.1c0.7-0.6,1.6-1.1,2.5-1.1c2.1,0,3.3,1.7,3.3,4.3c0,2.9-1.7,4.5-3.6,4.5
								c-0.7,0-1.4-0.3-2.1-0.9l0.1,1.4v2.5h-2.2V22.6z M103.2,26.7c0-1.6-0.5-2.5-1.7-2.5c-0.6,0-1.1,0.3-1.7,0.9v3.7
								c0.5,0.5,1.1,0.6,1.5,0.6C102.4,29.4,103.2,28.5,103.2,26.7z"/>
							<path d="M111.1,28.1v-3.7h-1.2v-1.6l1.3-0.1l0.3-2.2h1.8v2.2h2.1v1.7h-2.1v3.7c0,1,0.4,1.4,1.1,1.4c0.3,0,0.6-0.1,0.8-0.2
								l0.4,1.6c-0.5,0.2-1,0.3-1.8,0.3C111.8,31.2,111.1,30,111.1,28.1z"/>
							<path d="M116.3,26.8c0-2.8,1.9-4.4,4-4.4c2.1,0,4,1.6,4,4.4c0,2.8-1.9,4.4-4,4.4C118.2,31.2,116.3,29.6,116.3,26.8z
								 M122.1,26.8c0-1.6-0.6-2.6-1.8-2.6c-1.1,0-1.8,1-1.8,2.6c0,1.6,0.6,2.6,1.8,2.6C121.4,29.4,122.1,28.4,122.1,26.8z"/>
							<path d="M129.1,26.8c0-2.7,1.7-4.4,3.5-4.4c0.9,0,1.5,0.4,2.1,0.9l-0.1-1.3v-3h2.2v12h-1.8l-0.2-0.9h0
								c-0.6,0.6-1.5,1.1-2.3,1.1C130.4,31.2,129.1,29.6,129.1,26.8z M134.7,28.5v-3.7c-0.5-0.5-1-0.6-1.6-0.6
								c-0.9,0-1.7,0.9-1.7,2.6c0,1.7,0.6,2.6,1.7,2.6C133.7,29.4,134.2,29.2,134.7,28.5z"/>
							<path d="M139.2,22.6h1.8l0.1,1.5h0.1c0.6-1.1,1.5-1.7,2.4-1.7c0.5,0,0.7,0.1,1,0.2l-0.4,1.9c-0.3-0.1-0.5-0.1-0.9-0.1
								c-0.7,0-1.5,0.4-1.9,1.7v5h-2.2V22.6z"/>
							<path d="M145.7,27.9v-5.2h2.2v5c0,1.3,0.4,1.8,1.2,1.8c0.7,0,1.1-0.3,1.7-1v-5.7h2.2V31h-1.8l-0.2-1.2H151
								c-0.7,0.9-1.5,1.4-2.7,1.4C146.5,31.2,145.7,30,145.7,27.9z"/>
							<path d="M154.8,32.5c0-0.7,0.4-1.3,1.2-1.7v-0.1c-0.4-0.3-0.8-0.7-0.8-1.4c0-0.6,0.4-1.2,0.9-1.6v-0.1
								c-0.6-0.4-1.1-1.2-1.1-2.2c0-2,1.6-3,3.4-3c0.5,0,0.9,0.1,1.3,0.2h3v1.6h-1.4c0.2,0.3,0.4,0.8,0.4,1.3c0,1.9-1.4,2.8-3.2,2.8
								c-0.3,0-0.7-0.1-1.1-0.2c-0.2,0.2-0.4,0.4-0.4,0.7c0,0.5,0.3,0.7,1.3,0.7h1.4c2,0,3.1,0.6,3.1,2.1c0,1.7-1.8,3-4.6,3
								C156.3,34.6,154.8,34,154.8,32.5z M160.7,32c0-0.6-0.5-0.8-1.4-0.8h-1c-0.5,0-0.9,0-1.2-0.1c-0.4,0.3-0.6,0.6-0.6,1
								c0,0.7,0.8,1.1,2,1.1C159.9,33.2,160.7,32.7,160.7,32z M159.7,25.4c0-1-0.6-1.5-1.3-1.5s-1.3,0.6-1.3,1.5
								c0,1,0.6,1.5,1.3,1.5S159.7,26.4,159.7,25.4z"/>
						</g>
					</g>
				</g>
			</g>
		</g>
	</g>
</g>
</svg>
