<?xml version="1.0" encoding="utf-8"?>
<!-- Generator: Adobe Illustrator 23.0.1, SVG Export Plug-In . SVG Version: 6.00 Build 0)  -->
<svg version="1.1" id="Layer_1" xmlns="http://www.w3.org/2000/svg" xmlns:xlink="http://www.w3.org/1999/xlink" x="0px" y="0px"
	 viewBox="0 0 1002 215" style="enable-background:new 0 0 1002 215;" xml:space="preserve">
<style type="text/css">
	.st0{fill-rule:evenodd;clip-rule:evenodd;}
	.st1{enable-background:new    ;}
	.st2{fill:#FFFFFF;}
	.st3{fill:none;stroke:#979797;stroke-linecap:square;}
	.st4{fill:none;stroke:#000000;stroke-width:1.5;}
</style>
<title>표4</title>
<desc>Created with Sketch.</desc>
<g id="Page-1">
	<g transform="translate(-219.000000, -4121.000000)">
		<g id="표4" transform="translate(220.000000, 4115.000000)">
			<g id="head" transform="translate(0.000000, 47.000000)">
				<g>
					<path id="bg" class="st0" d="M8,0h234c4.4,0,8,3.6,8,8v34c0,4.4-3.6,8-8,8H8c-4.4,0-8-3.6-8-8V8C0,3.6,3.6,0,8,0z"/>
				</g>
				<g transform="translate(260.000000, 0.000000)">
					<path class="st0" d="M8,0h349c4.4,0,8,3.6,8,8v34c0,4.4-3.6,8-8,8H8c-4.4,0-8-3.6-8-8V8C0,3.6,3.6,0,8,0z"/>
					<g class="st1">
						<path class="st2" d="M59.9,19.9h2.2v9.2h4.5V31h-6.7V19.9z"/>
						<path class="st2" d="M67.6,26.8c0-2.8,1.9-4.4,4-4.4s4,1.6,4,4.4c0,2.8-1.9,4.4-4,4.4S67.6,29.6,67.6,26.8z M73.4,26.8
							c0-1.6-0.6-2.6-1.8-2.6s-1.8,1-1.8,2.6c0,1.6,0.6,2.6,1.8,2.6S73.4,28.4,73.4,26.8z"/>
						<path class="st2" d="M76.6,22.6h2.2l0.9,4.2c0.2,0.8,0.3,1.6,0.4,2.4h0.1c0.2-0.8,0.3-1.7,0.5-2.4l1-4.2h2l1.1,4.2
							c0.2,0.8,0.3,1.6,0.5,2.4h0.1c0.2-0.8,0.3-1.6,0.4-2.4l0.9-4.2h2L86.6,31h-2.6l-0.9-3.7c-0.2-0.8-0.3-1.6-0.5-2.4h-0.1
							c-0.2,0.9-0.3,1.7-0.5,2.4L81.3,31h-2.5L76.6,22.6z"/>
						<path class="st2" d="M89.7,26.8c0-2.7,1.9-4.4,3.9-4.4c2.3,0,3.5,1.7,3.5,4c0,0.4,0,0.8-0.1,1h-5.2c0.2,1.4,1.1,2.1,2.3,2.1
							c0.7,0,1.3-0.2,1.9-0.6l0.8,1.4c-0.8,0.6-1.9,0.9-2.9,0.9C91.5,31.2,89.7,29.6,89.7,26.8z M95.2,26c0-1.1-0.5-1.9-1.6-1.9
							c-0.9,0-1.7,0.6-1.8,1.9H95.2z"/>
						<path class="st2" d="M98.9,22.6h1.8l0.1,1.5h0.1c0.6-1.1,1.5-1.7,2.4-1.7c0.5,0,0.7,0.1,1,0.2l-0.4,1.9
							c-0.3-0.1-0.5-0.1-0.9-0.1c-0.7,0-1.5,0.4-1.9,1.7v5h-2.2V22.6z"/>
						<path class="st2" d="M108.9,28.6V19h2.2v9.7c0,0.5,0.2,0.7,0.4,0.7c0.1,0,0.1,0,0.3,0l0.3,1.6c-0.3,0.1-0.6,0.2-1.1,0.2
							C109.4,31.2,108.9,30.2,108.9,28.6z"/>
						<path class="st2" d="M113.4,20.1c0-0.7,0.6-1.2,1.3-1.2c0.8,0,1.3,0.5,1.3,1.2c0,0.7-0.6,1.2-1.3,1.2
							C113.9,21.2,113.4,20.7,113.4,20.1z M113.6,22.6h2.2V31h-2.2V22.6z"/>
						<path class="st2" d="M118.1,22.6h1.8l0.1,1.1h0.1c0.7-0.7,1.5-1.3,2.6-1.3c1.2,0,1.9,0.5,2.3,1.5c0.8-0.8,1.6-1.5,2.7-1.5
							c1.8,0,2.6,1.3,2.6,3.4V31h-2.2v-5c0-1.3-0.4-1.8-1.2-1.8c-0.5,0-1,0.3-1.6,0.9V31h-2.2v-5c0-1.3-0.4-1.8-1.2-1.8
							c-0.5,0-1,0.3-1.6,0.9V31h-2.2V22.6z"/>
						<path class="st2" d="M134.6,30.1L134.6,30.1l-0.2,0.9h-1.7V19h2.2v3l0,1.4c0.7-0.6,1.5-1,2.3-1c2.1,0,3.3,1.7,3.3,4.3
							c0,2.9-1.7,4.6-3.6,4.6C136.1,31.2,135.3,30.8,134.6,30.1z M138.1,26.7c0-1.6-0.5-2.5-1.7-2.5c-0.6,0-1.1,0.3-1.7,0.9v3.7
							c0.5,0.5,1.1,0.6,1.5,0.6C137.3,29.4,138.1,28.5,138.1,26.7z"/>
						<path class="st2" d="M145.5,20.1c0-0.7,0.6-1.2,1.3-1.2c0.8,0,1.3,0.5,1.3,1.2c0,0.7-0.6,1.2-1.3,1.2
							C146,21.2,145.5,20.7,145.5,20.1z M145.7,22.6h2.2V31h-2.2V22.6z"/>
						<path class="st2" d="M150.2,22.6h1.8l0.1,1.1h0.1c0.7-0.7,1.6-1.3,2.7-1.3c1.8,0,2.6,1.3,2.6,3.4V31h-2.2v-5
							c0-1.3-0.4-1.8-1.2-1.8c-0.7,0-1.1,0.3-1.8,0.9V31h-2.2V22.6z"/>
						<path class="st2" d="M157.9,34.2l0.4-1.6c0.2,0.1,0.4,0.1,0.7,0.1c0.7,0,0.9-0.5,0.9-1.4v-8.7h2.2v8.6c0,1.8-0.7,3.2-2.8,3.2
							C158.6,34.4,158.2,34.3,157.9,34.2z M159.7,20.1c0-0.7,0.6-1.2,1.3-1.2c0.8,0,1.3,0.5,1.3,1.2c0,0.7-0.6,1.2-1.3,1.2
							C160.2,21.2,159.7,20.7,159.7,20.1z"/>
						<path class="st2" d="M163.9,26.8c0-2.7,1.9-4.4,3.9-4.4c2.3,0,3.5,1.7,3.5,4c0,0.4,0,0.8-0.1,1H166c0.2,1.4,1.1,2.1,2.3,2.1
							c0.7,0,1.3-0.2,1.9-0.6l0.8,1.4c-0.8,0.6-1.9,0.9-2.9,0.9C165.7,31.2,163.9,29.6,163.9,26.8z M169.4,26c0-1.1-0.5-1.9-1.6-1.9
							c-0.9,0-1.7,0.6-1.8,1.9H169.4z"/>
						<path class="st2" d="M172.6,26.8c0-2.8,2-4.4,4.3-4.4c1,0,1.8,0.4,2.4,0.9l-1,1.4c-0.4-0.4-0.8-0.6-1.3-0.6
							c-1.3,0-2.1,1-2.1,2.6c0,1.6,0.9,2.6,2.1,2.6c0.6,0,1.2-0.3,1.6-0.7l0.9,1.5c-0.8,0.7-1.8,1-2.7,1
							C174.4,31.2,172.6,29.6,172.6,26.8z"/>
						<path class="st2" d="M181.2,28.1v-3.7H180v-1.6l1.3-0.1l0.3-2.2h1.8v2.2h2.1v1.7h-2.1v3.7c0,1,0.4,1.4,1.1,1.4
							c0.3,0,0.6-0.1,0.8-0.2l0.4,1.6c-0.5,0.2-1,0.3-1.8,0.3C181.9,31.2,181.2,30,181.2,28.1z"/>
						<path class="st2" d="M187,20.1c0-0.7,0.6-1.2,1.3-1.2c0.8,0,1.3,0.5,1.3,1.2c0,0.7-0.6,1.2-1.3,1.2
							C187.5,21.2,187,20.7,187,20.1z M187.2,22.6h2.2V31h-2.2V22.6z"/>
						<path class="st2" d="M191.2,26.8c0-2.8,1.9-4.4,4-4.4s4,1.6,4,4.4c0,2.8-1.9,4.4-4,4.4S191.2,29.6,191.2,26.8z M197,26.8
							c0-1.6-0.6-2.6-1.8-2.6s-1.8,1-1.8,2.6c0,1.6,0.6,2.6,1.8,2.6S197,28.4,197,26.8z"/>
						<path class="st2" d="M201.1,22.6h1.8l0.1,1.1h0.1c0.7-0.7,1.6-1.3,2.7-1.3c1.8,0,2.6,1.3,2.6,3.4V31h-2.2v-5
							c0-1.3-0.4-1.8-1.2-1.8c-0.7,0-1.1,0.3-1.8,0.9V31h-2.2V22.6z"/>
						<path class="st2" d="M214.2,26.3c0-3,0.8-5.4,2.2-7.8l1.4,0.6c-1.3,2.2-1.8,4.7-1.8,7.2c0,2.5,0.6,5,1.8,7.2l-1.4,0.6
							C215,31.7,214.2,29.3,214.2,26.3z"/>
						<path class="st2" d="M219,29.7l1-1.4c0.7,0.6,1.5,1.1,2.5,1.1c1.1,0,1.9-0.6,1.9-1.5c0-1.1-0.6-1.8-3.1-1.8v-1.6
							c2,0,2.7-0.7,2.7-1.7c0-0.9-0.5-1.4-1.5-1.4c-0.8,0-1.4,0.4-2.1,1l-1.1-1.3c1-0.8,2-1.4,3.3-1.4c2.1,0,3.6,1,3.6,3
							c0,1.2-0.7,2.1-1.9,2.5v0.1c1.3,0.3,2.2,1.3,2.2,2.7c0,2-1.8,3.2-3.9,3.2C221,31.2,219.8,30.5,219,29.7z"/>
						<path class="st2" d="M228.2,28.2c0-1.4,0.9-2.3,1.9-2.9v-0.1c-0.9-0.6-1.5-1.5-1.5-2.6c0-1.8,1.4-2.9,3.3-2.9
							c2,0,3.2,1.2,3.2,3c0,1.1-0.7,2-1.4,2.5v0.1c1,0.6,1.9,1.5,1.9,3c0,1.7-1.5,3-3.7,3C229.7,31.2,228.2,30,228.2,28.2z
							 M233.5,28.2c0-1.2-1-1.6-2.5-2.2c-0.6,0.5-1,1.2-1,2.1c0,1,0.8,1.7,1.9,1.7C232.8,29.7,233.5,29.1,233.5,28.2z M233.4,22.8
							c0-0.9-0.5-1.5-1.5-1.5c-0.8,0-1.4,0.5-1.4,1.4c0,1.1,0.9,1.6,2,2C233.1,24.1,233.4,23.5,233.4,22.8z"/>
						<path class="st2" d="M237.5,22.6h1.8l0.1,1.1h0.1c0.7-0.7,1.5-1.3,2.6-1.3c1.2,0,1.9,0.5,2.3,1.5c0.8-0.8,1.6-1.5,2.7-1.5
							c1.8,0,2.6,1.3,2.6,3.4V31h-2.2v-5c0-1.3-0.4-1.8-1.2-1.8c-0.5,0-1,0.3-1.6,0.9V31h-2.2v-5c0-1.3-0.4-1.8-1.2-1.8
							c-0.5,0-1,0.3-1.6,0.9V31h-2.2V22.6z"/>
						<path class="st2" d="M251.4,32.5c0-0.7,0.4-1.3,1.2-1.7v-0.1c-0.4-0.3-0.8-0.7-0.8-1.4c0-0.6,0.4-1.2,0.9-1.6v-0.1
							c-0.6-0.4-1.1-1.2-1.1-2.2c0-2,1.6-3,3.4-3c0.5,0,0.9,0.1,1.3,0.2h3v1.6h-1.4c0.2,0.3,0.4,0.8,0.4,1.3c0,1.9-1.4,2.8-3.2,2.8
							c-0.3,0-0.7-0.1-1.1-0.2c-0.2,0.2-0.4,0.4-0.4,0.7c0,0.5,0.3,0.7,1.3,0.7h1.4c2,0,3.1,0.6,3.1,2.1c0,1.7-1.8,3-4.6,3
							C252.9,34.6,251.4,34,251.4,32.5z M257.3,32c0-0.6-0.5-0.8-1.4-0.8h-1c-0.5,0-0.9,0-1.2-0.1c-0.4,0.3-0.6,0.6-0.6,1
							c0,0.7,0.8,1.1,2,1.1C256.5,33.2,257.3,32.7,257.3,32z M256.3,25.4c0-1-0.6-1.5-1.3-1.5s-1.3,0.6-1.3,1.5c0,1,0.6,1.5,1.3,1.5
							C255.8,27,256.3,26.4,256.3,25.4z"/>
						<path class="st2" d="M260.6,33.4c1.3-2.2,1.8-4.7,1.8-7.2c0-2.4-0.6-5-1.8-7.2l1.4-0.6c1.4,2.3,2.2,4.8,2.2,7.8
							c0,3-0.8,5.4-2.2,7.8L260.6,33.4z"/>
						<path class="st2" d="M270.2,26.3c0-3,0.8-5.4,2.2-7.8l1.4,0.6c-1.3,2.2-1.8,4.7-1.8,7.2c0,2.5,0.6,5,1.8,7.2l-1.4,0.6
							C271,31.7,270.2,29.3,270.2,26.3z"/>
						<path class="st2" d="M275.7,22.6h1.8l0.2,1.1h0.1c0.7-0.7,1.6-1.3,2.7-1.3c1.8,0,2.6,1.3,2.6,3.4V31h-2.2v-5
							c0-1.3-0.4-1.8-1.2-1.8c-0.7,0-1.1,0.3-1.8,0.9V31h-2.2V22.6z"/>
						<path class="st2" d="M284.7,22.7h7.7v1.6h-7.7V22.7z M284.7,26.5h7.7v1.6h-7.7V26.5z"/>
						<path class="st2" d="M294.9,28.6c0.4,0.4,1.1,0.8,1.8,0.8c1.2,0,2.3-0.9,2.4-3.7c-0.6,0.8-1.5,1.2-2.3,1.2
							c-1.8,0-3.2-1.1-3.2-3.5c0-2.3,1.6-3.7,3.5-3.7c2.1,0,4,1.7,4,5.5c0,4.2-2.1,6-4.3,6c-1.4,0-2.4-0.6-3-1.3L294.9,28.6z
							 M299,24.1c-0.2-2-1-2.8-1.9-2.8c-0.8,0-1.5,0.7-1.5,2c0,1.3,0.6,1.9,1.6,1.9C297.8,25.3,298.5,25,299,24.1z"/>
						<path class="st2" d="M302.6,33.4c1.3-2.2,1.8-4.7,1.8-7.2c0-2.4-0.6-5-1.8-7.2l1.4-0.6c1.4,2.3,2.2,4.8,2.2,7.8
							c0,3-0.8,5.4-2.2,7.8L302.6,33.4z"/>
					</g>
				</g>
				<g transform="translate(635.000000, 0.000000)">
					<path class="st0" d="M8,0h349c4.4,0,8,3.6,8,8v34c0,4.4-3.6,8-8,8H8c-4.4,0-8-3.6-8-8V8C0,3.6,3.6,0,8,0z"/>
					<g class="st1">
						<path class="st2" d="M59.3,26v-6.1h2.2v6.3c0,2.3,0.8,3.1,2.1,3.1c1.3,0,2.2-0.8,2.2-3.1v-6.3h2.1V26c0,3.7-1.6,5.2-4.3,5.2
							C60.9,31.2,59.3,29.7,59.3,26z"/>
						<path class="st2" d="M70.4,22.6h1.8l0.2,0.9h0.1c0.7-0.6,1.6-1.1,2.5-1.1c2.1,0,3.3,1.7,3.3,4.3c0,2.9-1.7,4.5-3.6,4.5
							c-0.7,0-1.4-0.3-2.1-0.9l0.1,1.4v2.5h-2.2V22.6z M75.9,26.7c0-1.6-0.5-2.5-1.7-2.5c-0.6,0-1.1,0.3-1.7,0.9v3.7
							c0.5,0.5,1.1,0.6,1.5,0.6C75.1,29.4,75.9,28.5,75.9,26.7z"/>
						<path class="st2" d="M80,22.6h1.8l0.2,0.9h0.1c0.7-0.6,1.6-1.1,2.5-1.1c2.1,0,3.3,1.7,3.3,4.3c0,2.9-1.7,4.5-3.6,4.5
							c-0.7,0-1.4-0.3-2.1-0.9l0.1,1.4v2.5H80V22.6z M85.6,26.7c0-1.6-0.5-2.5-1.7-2.5c-0.6,0-1.1,0.3-1.7,0.9v3.7
							c0.5,0.5,1.1,0.6,1.5,0.6C84.8,29.4,85.6,28.5,85.6,26.7z"/>
						<path class="st2" d="M89.2,26.8c0-2.7,1.9-4.4,3.9-4.4c2.3,0,3.5,1.7,3.5,4c0,0.4,0,0.8-0.1,1h-5.2c0.2,1.4,1.1,2.1,2.3,2.1
							c0.7,0,1.3-0.2,1.9-0.6l0.8,1.4c-0.8,0.6-1.9,0.9-2.9,0.9C91,31.2,89.2,29.6,89.2,26.8z M94.7,26c0-1.1-0.5-1.9-1.6-1.9
							c-0.9,0-1.7,0.6-1.8,1.9H94.7z"/>
						<path class="st2" d="M98.4,22.6h1.8l0.1,1.5h0.1c0.6-1.1,1.5-1.7,2.4-1.7c0.5,0,0.7,0.1,1,0.2l-0.4,1.9
							c-0.3-0.1-0.5-0.1-0.9-0.1c-0.7,0-1.5,0.4-1.9,1.7v5h-2.2V22.6z"/>
						<path class="st2" d="M108.4,28.6V19h2.2v9.7c0,0.5,0.2,0.7,0.4,0.7c0.1,0,0.2,0,0.3,0l0.3,1.6c-0.3,0.1-0.6,0.2-1.1,0.2
							C108.9,31.2,108.4,30.2,108.4,28.6z"/>
						<path class="st2" d="M112.9,20.1c0-0.7,0.6-1.2,1.3-1.2c0.8,0,1.3,0.5,1.3,1.2c0,0.7-0.6,1.2-1.3,1.2
							C113.4,21.2,112.9,20.7,112.9,20.1z M113.1,22.6h2.2V31h-2.2V22.6z"/>
						<path class="st2" d="M117.7,22.6h1.8l0.1,1.1h0.1c0.7-0.7,1.5-1.3,2.6-1.3c1.2,0,1.9,0.5,2.3,1.5c0.8-0.8,1.6-1.5,2.7-1.5
							c1.8,0,2.6,1.3,2.6,3.4V31h-2.2v-5c0-1.3-0.4-1.8-1.2-1.8c-0.5,0-1,0.3-1.6,0.9V31h-2.2v-5c0-1.3-0.4-1.8-1.2-1.8
							c-0.5,0-1,0.3-1.6,0.9V31h-2.2V22.6z"/>
						<path class="st2" d="M134.1,30.1L134.1,30.1l-0.2,0.9h-1.7V19h2.2v3l0,1.4c0.7-0.6,1.5-1,2.3-1c2.1,0,3.3,1.7,3.3,4.3
							c0,2.9-1.7,4.6-3.6,4.6C135.6,31.2,134.8,30.8,134.1,30.1z M137.6,26.7c0-1.6-0.5-2.5-1.7-2.5c-0.6,0-1.1,0.3-1.7,0.9v3.7
							c0.5,0.5,1.1,0.6,1.5,0.6C136.9,29.4,137.6,28.5,137.6,26.7z"/>
						<path class="st2" d="M145,20.1c0-0.7,0.6-1.2,1.3-1.2c0.8,0,1.3,0.5,1.3,1.2c0,0.7-0.6,1.2-1.3,1.2
							C145.5,21.2,145,20.7,145,20.1z M145.2,22.6h2.2V31h-2.2V22.6z"/>
						<path class="st2" d="M149.7,22.6h1.8l0.2,1.1h0.1c0.7-0.7,1.6-1.3,2.7-1.3c1.8,0,2.6,1.3,2.6,3.4V31h-2.2v-5
							c0-1.3-0.4-1.8-1.2-1.8c-0.7,0-1.1,0.3-1.8,0.9V31h-2.2V22.6z"/>
						<path class="st2" d="M157.4,34.2l0.4-1.6c0.2,0.1,0.5,0.1,0.7,0.1c0.7,0,0.9-0.5,0.9-1.4v-8.7h2.2v8.6c0,1.8-0.7,3.2-2.8,3.2
							C158.1,34.4,157.7,34.3,157.4,34.2z M159.2,20.1c0-0.7,0.6-1.2,1.3-1.2c0.8,0,1.3,0.5,1.3,1.2c0,0.7-0.6,1.2-1.3,1.2
							C159.7,21.2,159.2,20.7,159.2,20.1z"/>
						<path class="st2" d="M163.4,26.8c0-2.7,1.9-4.4,3.9-4.4c2.3,0,3.5,1.7,3.5,4c0,0.4,0,0.8-0.1,1h-5.2c0.2,1.4,1.1,2.1,2.3,2.1
							c0.7,0,1.3-0.2,1.9-0.6l0.8,1.4c-0.8,0.6-1.9,0.9-2.9,0.9C165.2,31.2,163.4,29.6,163.4,26.8z M168.9,26c0-1.1-0.5-1.9-1.6-1.9
							c-0.9,0-1.7,0.6-1.8,1.9H168.9z"/>
						<path class="st2" d="M172.1,26.8c0-2.8,2-4.4,4.3-4.4c1,0,1.8,0.4,2.4,0.9l-1,1.4c-0.4-0.4-0.8-0.6-1.3-0.6
							c-1.3,0-2.1,1-2.1,2.6c0,1.6,0.9,2.6,2.1,2.6c0.6,0,1.2-0.3,1.6-0.7l0.9,1.5c-0.8,0.7-1.8,1-2.7,1
							C173.9,31.2,172.1,29.6,172.1,26.8z"/>
						<path class="st2" d="M180.7,28.1v-3.7h-1.2v-1.6l1.3-0.1l0.3-2.2h1.8v2.2h2.1v1.7h-2.1v3.7c0,1,0.4,1.4,1.1,1.4
							c0.3,0,0.6-0.1,0.8-0.2l0.4,1.6c-0.5,0.2-1,0.3-1.8,0.3C181.4,31.2,180.7,30,180.7,28.1z"/>
						<path class="st2" d="M186.5,20.1c0-0.7,0.6-1.2,1.3-1.2c0.8,0,1.3,0.5,1.3,1.2c0,0.7-0.6,1.2-1.3,1.2
							C187,21.2,186.5,20.7,186.5,20.1z M186.7,22.6h2.2V31h-2.2V22.6z"/>
						<path class="st2" d="M190.7,26.8c0-2.8,1.9-4.4,4-4.4c2.1,0,4,1.6,4,4.4c0,2.8-1.9,4.4-4,4.4
							C192.6,31.2,190.7,29.6,190.7,26.8z M196.5,26.8c0-1.6-0.6-2.6-1.8-2.6c-1.1,0-1.8,1-1.8,2.6c0,1.6,0.6,2.6,1.8,2.6
							C195.9,29.4,196.5,28.4,196.5,26.8z"/>
						<path class="st2" d="M200.6,22.6h1.8l0.1,1.1h0.1c0.7-0.7,1.6-1.3,2.7-1.3c1.8,0,2.6,1.3,2.6,3.4V31h-2.2v-5
							c0-1.3-0.4-1.8-1.2-1.8c-0.7,0-1.1,0.3-1.8,0.9V31h-2.2V22.6z"/>
						<path class="st2" d="M213.7,26.3c0-3,0.8-5.4,2.2-7.8l1.4,0.6c-1.3,2.2-1.8,4.7-1.8,7.2c0,2.5,0.6,5,1.8,7.2L216,34
							C214.6,31.7,213.7,29.3,213.7,26.3z"/>
						<path class="st2" d="M218.8,29.7c3-2.7,4.8-4.8,4.8-6.5c0-1.1-0.6-1.8-1.7-1.8c-0.8,0-1.5,0.5-2,1.1l-1.2-1.2
							c1-1.1,2-1.7,3.5-1.7c2.1,0,3.5,1.3,3.5,3.4c0,2-1.7,4.2-3.7,6.1c0.6-0.1,1.3-0.1,1.8-0.1h2.4V31h-7.4V29.7z"/>
						<path class="st2" d="M233.8,22.3c-0.4-0.5-1.1-0.8-1.7-0.8c-1.3,0-2.3,1-2.4,3.7c0.6-0.7,1.6-1.2,2.3-1.2
							c1.9,0,3.2,1.1,3.2,3.5c0,2.3-1.6,3.7-3.5,3.7c-2.1,0-4-1.7-4-5.6c0-4.1,2.1-5.9,4.3-5.9c1.3,0,2.3,0.6,3,1.3L233.8,22.3z
							 M233.2,27.5c0-1.3-0.6-1.9-1.6-1.9c-0.6,0-1.3,0.3-1.8,1.2c0.2,2,1,2.8,1.9,2.8C232.5,29.5,233.2,28.9,233.2,27.5z"/>
						<path class="st2" d="M237,22.6h1.8l0.2,1.1h0.1c0.7-0.7,1.5-1.3,2.6-1.3c1.2,0,1.9,0.5,2.3,1.5c0.8-0.8,1.6-1.5,2.7-1.5
							c1.8,0,2.6,1.3,2.6,3.4V31H247v-5c0-1.3-0.4-1.8-1.2-1.8c-0.5,0-1,0.3-1.6,0.9V31H242v-5c0-1.3-0.4-1.8-1.2-1.8
							c-0.5,0-1,0.3-1.6,0.9V31H237V22.6z"/>
						<path class="st2" d="M250.9,32.5c0-0.7,0.4-1.3,1.2-1.7v-0.1c-0.4-0.3-0.8-0.7-0.8-1.4c0-0.6,0.4-1.2,0.9-1.6v-0.1
							c-0.6-0.4-1.1-1.2-1.1-2.2c0-2,1.6-3,3.4-3c0.5,0,0.9,0.1,1.3,0.2h3v1.6h-1.4c0.2,0.3,0.4,0.8,0.4,1.3c0,1.9-1.4,2.8-3.2,2.8
							c-0.3,0-0.7-0.1-1.1-0.2c-0.2,0.2-0.4,0.4-0.4,0.7c0,0.5,0.3,0.7,1.3,0.7h1.4c2,0,3.1,0.6,3.1,2.1c0,1.7-1.8,3-4.6,3
							C252.4,34.6,250.9,34,250.9,32.5z M256.9,32c0-0.6-0.5-0.8-1.4-0.8h-1c-0.5,0-0.9,0-1.2-0.1c-0.4,0.3-0.6,0.6-0.6,1
							c0,0.7,0.8,1.1,2,1.1C256,33.2,256.9,32.7,256.9,32z M255.8,25.4c0-1-0.6-1.5-1.3-1.5s-1.3,0.6-1.3,1.5c0,1,0.6,1.5,1.3,1.5
							C255.3,27,255.8,26.4,255.8,25.4z"/>
						<path class="st2" d="M260.1,33.4c1.3-2.2,1.8-4.7,1.8-7.2c0-2.4-0.6-5-1.8-7.2l1.4-0.6c1.4,2.3,2.2,4.8,2.2,7.8
							c0,3-0.8,5.4-2.2,7.8L260.1,33.4z"/>
						<path class="st2" d="M269.7,26.3c0-3,0.8-5.4,2.2-7.8l1.4,0.6c-1.3,2.2-1.8,4.7-1.8,7.2c0,2.5,0.6,5,1.8,7.2l-1.4,0.6
							C270.5,31.7,269.7,29.3,269.7,26.3z"/>
						<path class="st2" d="M275.2,22.6h1.8l0.1,1.1h0.1c0.7-0.7,1.6-1.3,2.7-1.3c1.8,0,2.6,1.3,2.6,3.4V31h-2.2v-5
							c0-1.3-0.4-1.8-1.2-1.8c-0.7,0-1.1,0.3-1.8,0.9V31h-2.2V22.6z"/>
						<path class="st2" d="M284.2,22.7h7.7v1.6h-7.7V22.7z M284.2,26.5h7.7v1.6h-7.7V26.5z"/>
						<path class="st2" d="M294.4,28.6c0.4,0.4,1.1,0.8,1.8,0.8c1.2,0,2.3-0.9,2.4-3.7c-0.6,0.8-1.5,1.2-2.3,1.2
							c-1.8,0-3.2-1.1-3.2-3.5c0-2.3,1.6-3.7,3.5-3.7c2.1,0,4,1.7,4,5.5c0,4.2-2.1,6-4.3,6c-1.4,0-2.4-0.6-3-1.3L294.4,28.6z
							 M298.5,24.1c-0.2-2-1-2.8-1.9-2.8c-0.8,0-1.5,0.7-1.5,2c0,1.3,0.6,1.9,1.6,1.9C297.3,25.3,298,25,298.5,24.1z"/>
						<path class="st2" d="M302.1,33.4c1.3-2.2,1.8-4.7,1.8-7.2c0-2.4-0.6-5-1.8-7.2l1.4-0.6c1.4,2.3,2.2,4.8,2.2,7.8
							c0,3-0.8,5.4-2.2,7.8L302.1,33.4z"/>
					</g>
				</g>
			</g>
			<g class="st1">
				<path d="M287.8,7.7h2.1V21h-2.1V7.7z"/>
				<path d="M293.2,11.1h1.7l0.2,1.4h0.1c0.9-0.9,1.9-1.6,3.3-1.6c2.1,0,3,1.4,3,3.9V21h-2.1v-6c0-1.7-0.5-2.4-1.7-2.4
					c-0.9,0-1.5,0.5-2.4,1.3v7h-2.1V11.1z"/>
				<path d="M303.8,16.1c0-3.3,2.3-5.2,4.9-5.2c1.3,0,2.2,0.5,2.9,1.1l-1,1.4c-0.5-0.5-1.1-0.8-1.8-0.8c-1.7,0-2.8,1.4-2.8,3.5
					c0,2.1,1.1,3.5,2.8,3.5c0.8,0,1.6-0.4,2.2-0.9l0.8,1.4c-0.9,0.8-2.1,1.2-3.2,1.2C305.8,21.2,303.8,19.3,303.8,16.1z"/>
				<path d="M313.5,8c0-0.7,0.6-1.2,1.3-1.2s1.3,0.5,1.3,1.2c0,0.7-0.6,1.2-1.3,1.2S313.5,8.7,313.5,8z M313.8,11.1h2.1V21h-2.1
					V11.1z"/>
				<path d="M318.3,16.1c0-3.2,2-5.2,4.2-5.2c1.1,0,1.9,0.4,2.7,1.1l-0.1-1.6V6.6h2.1V21h-1.7l-0.2-1.1h-0.1
					c-0.7,0.8-1.8,1.4-2.9,1.4C319.9,21.2,318.3,19.3,318.3,16.1z M325.1,18.3v-4.8c-0.7-0.7-1.4-0.9-2.2-0.9
					c-1.4,0-2.5,1.3-2.5,3.5c0,2.3,0.9,3.5,2.4,3.5C323.7,19.5,324.4,19.1,325.1,18.3z"/>
				<path d="M329.6,16.1c0-3.2,2.2-5.2,4.5-5.2c2.6,0,4,1.9,4,4.7c0,0.4,0,0.8-0.1,1h-6.4c0.2,1.9,1.4,3,3.1,3
					c0.9,0,1.6-0.3,2.4-0.7l0.7,1.3c-0.9,0.6-2.1,1-3.3,1C331.7,21.2,329.6,19.3,329.6,16.1z M336.3,15.2c0-1.7-0.8-2.7-2.2-2.7
					c-1.2,0-2.3,1-2.5,2.7H336.3z"/>
				<path d="M340.4,11.1h1.7l0.2,1.4h0.1c0.9-0.9,1.9-1.6,3.3-1.6c2.1,0,3,1.4,3,3.9V21h-2.1v-6c0-1.7-0.5-2.4-1.7-2.4
					c-0.9,0-1.5,0.5-2.4,1.3v7h-2.1V11.1z"/>
				<path d="M351,16.1c0-3.3,2.3-5.2,4.9-5.2c1.3,0,2.2,0.5,2.9,1.1l-1,1.4c-0.5-0.5-1.1-0.8-1.8-0.8c-1.7,0-2.8,1.4-2.8,3.5
					c0,2.1,1.1,3.5,2.8,3.5c0.8,0,1.6-0.4,2.2-0.9l0.8,1.4c-0.9,0.8-2.1,1.2-3.2,1.2C353,21.2,351,19.3,351,16.1z"/>
				<path d="M359.8,16.1c0-3.2,2.2-5.2,4.5-5.2c2.6,0,4,1.9,4,4.7c0,0.4,0,0.8-0.1,1h-6.4c0.2,1.9,1.4,3,3.1,3
					c0.9,0,1.6-0.3,2.4-0.7l0.7,1.3c-0.9,0.6-2.1,1-3.3,1C362,21.2,359.8,19.3,359.8,16.1z M366.6,15.2c0-1.7-0.8-2.7-2.2-2.7
					c-1.2,0-2.3,1-2.5,2.7H366.6z"/>
				<path d="M374,16.1c0-3.3,2.2-5.2,4.7-5.2s4.7,1.9,4.7,5.2c0,3.3-2.2,5.2-4.7,5.2S374,19.3,374,16.1z M381.2,16.1
					c0-2.1-1-3.5-2.5-3.5c-1.5,0-2.5,1.4-2.5,3.5c0,2.1,1,3.5,2.5,3.5C380.3,19.5,381.2,18.2,381.2,16.1z"/>
				<path d="M390.5,8.3c-0.4-0.2-0.7-0.3-1.1-0.3c-0.9,0-1.3,0.6-1.3,1.8v1.3h2v1.7h-2V21h-2.1v-8.2h-1.4v-1.5l1.4-0.1V9.9
					c0-2,0.9-3.4,3.1-3.4c0.7,0,1.3,0.1,1.7,0.3L390.5,8.3z"/>
				<path d="M394.9,19.9l1-1.3c0.9,0.7,1.7,1.1,2.8,1.1c1.2,0,1.7-0.6,1.7-1.3c0-0.9-1.1-1.3-2.2-1.7c-1.3-0.5-2.8-1.2-2.8-2.9
					c0-1.7,1.3-2.9,3.5-2.9c1.3,0,2.4,0.5,3.2,1.2l-1,1.3c-0.7-0.5-1.4-0.9-2.2-0.9c-1.1,0-1.6,0.5-1.6,1.2c0,0.8,1,1.2,2.1,1.6
					c1.4,0.5,2.9,1.1,2.9,3c0,1.7-1.3,3-3.8,3C397.3,21.2,395.9,20.7,394.9,19.9z"/>
				<path d="M403.9,16.1c0-3.2,2.2-5.2,4.5-5.2c2.6,0,4,1.9,4,4.7c0,0.4,0,0.8-0.1,1H406c0.2,1.9,1.4,3,3.1,3c0.9,0,1.6-0.3,2.4-0.7
					l0.7,1.3c-0.9,0.6-2.1,1-3.3,1C406.1,21.2,403.9,19.3,403.9,16.1z M410.7,15.2c0-1.7-0.8-2.7-2.2-2.7c-1.2,0-2.3,1-2.5,2.7
					H410.7z"/>
				<path d="M414.8,11.1h1.7l0.2,1.8h0.1c0.7-1.3,1.7-2,2.8-2c0.5,0,0.8,0.1,1.1,0.2l-0.4,1.8c-0.3-0.1-0.6-0.2-1-0.2
					c-0.8,0-1.8,0.6-2.4,2.1V21h-2.1V11.1z"/>
				<path d="M421.9,8c0-0.7,0.6-1.2,1.3-1.2s1.3,0.5,1.3,1.2c0,0.7-0.6,1.2-1.3,1.2S421.9,8.7,421.9,8z M422.2,11.1h2.1V21h-2.1
					V11.1z"/>
				<path d="M426.6,16.1c0-3.3,2.2-5.2,4.7-5.2s4.7,1.9,4.7,5.2c0,3.3-2.2,5.2-4.7,5.2S426.6,19.3,426.6,16.1z M433.8,16.1
					c0-2.1-1-3.5-2.5-3.5c-1.5,0-2.5,1.4-2.5,3.5c0,2.1,1,3.5,2.5,3.5C432.9,19.5,433.8,18.2,433.8,16.1z"/>
				<path d="M438.3,17.3v-6.2h2.1v6c0,1.7,0.5,2.4,1.7,2.4c0.9,0,1.5-0.4,2.4-1.5v-6.9h2.1V21h-1.7l-0.2-1.5h-0.1
					c-0.9,1-1.9,1.7-3.2,1.7C439.2,21.2,438.3,19.8,438.3,17.3z"/>
				<path d="M448.5,19.9l1-1.3c0.9,0.7,1.7,1.1,2.8,1.1c1.2,0,1.7-0.6,1.7-1.3c0-0.9-1.1-1.3-2.2-1.7c-1.3-0.5-2.8-1.2-2.8-2.9
					c0-1.7,1.3-2.9,3.5-2.9c1.3,0,2.4,0.5,3.2,1.2l-1,1.3c-0.7-0.5-1.4-0.9-2.2-0.9c-1.1,0-1.6,0.5-1.6,1.2c0,0.8,1,1.2,2.1,1.6
					c1.4,0.5,2.9,1.1,2.9,3c0,1.7-1.3,3-3.8,3C450.9,21.2,449.5,20.7,448.5,19.9z"/>
				<path d="M461.7,18.4c0-2.1,1.8-3.2,5.9-3.7c0-1.2-0.4-2.2-1.9-2.2c-1,0-2,0.5-2.9,1l-0.8-1.4c1-0.6,2.4-1.3,4-1.3
					c2.5,0,3.6,1.6,3.6,4.2v6H468l-0.2-1.1h-0.1c-0.9,0.8-2,1.4-3.2,1.4C462.9,21.2,461.7,20.1,461.7,18.4z M467.6,18.4V16
					c-2.9,0.4-3.9,1.1-3.9,2.2c0,1,0.7,1.4,1.5,1.4C466.1,19.6,466.8,19.2,467.6,18.4z"/>
				<path d="M471.9,16.1c0-3.2,2-5.2,4.2-5.2c1.1,0,1.9,0.4,2.7,1.1l-0.1-1.6V6.6h2.1V21h-1.7l-0.2-1.1h-0.1
					c-0.7,0.8-1.8,1.4-2.9,1.4C473.5,21.2,471.9,19.3,471.9,16.1z M478.7,18.3v-4.8c-0.7-0.7-1.4-0.9-2.2-0.9
					c-1.4,0-2.5,1.3-2.5,3.5c0,2.3,0.9,3.5,2.4,3.5C477.3,19.5,478,19.1,478.7,18.3z"/>
				<path d="M482.6,11.1h2.1l1.7,5.3c0.3,1,0.6,2,0.9,3h0.1c0.3-1,0.6-2,0.9-3l1.7-5.3h2l-3.4,9.9h-2.4L482.6,11.1z"/>
				<path d="M492.9,16.1c0-3.2,2.2-5.2,4.5-5.2c2.6,0,4,1.9,4,4.7c0,0.4,0,0.8-0.1,1H495c0.2,1.9,1.4,3,3.1,3c0.9,0,1.6-0.3,2.4-0.7
					l0.7,1.3c-0.9,0.6-2.1,1-3.3,1C495.1,21.2,492.9,19.3,492.9,16.1z M499.7,15.2c0-1.7-0.8-2.7-2.2-2.7c-1.2,0-2.3,1-2.5,2.7
					H499.7z"/>
				<path d="M503.8,11.1h1.7l0.2,1.8h0.1c0.7-1.3,1.7-2,2.8-2c0.5,0,0.8,0.1,1.1,0.2l-0.4,1.8c-0.3-0.1-0.6-0.2-1-0.2
					c-0.8,0-1.8,0.6-2.4,2.1V21h-2.1V11.1z"/>
				<path d="M510,19.9l1-1.3c0.9,0.7,1.7,1.1,2.8,1.1c1.2,0,1.7-0.6,1.7-1.3c0-0.9-1.1-1.3-2.2-1.7c-1.3-0.5-2.8-1.2-2.8-2.9
					c0-1.7,1.3-2.9,3.5-2.9c1.3,0,2.4,0.5,3.2,1.2l-1,1.3c-0.7-0.5-1.4-0.9-2.2-0.9c-1.1,0-1.6,0.5-1.6,1.2c0,0.8,1,1.2,2.1,1.6
					c1.4,0.5,2.9,1.1,2.9,3c0,1.7-1.3,3-3.8,3C512.4,21.2,511,20.7,510,19.9z"/>
				<path d="M519,16.1c0-3.2,2.2-5.2,4.5-5.2c2.6,0,4,1.9,4,4.7c0,0.4,0,0.8-0.1,1H521c0.2,1.9,1.4,3,3.1,3c0.9,0,1.6-0.3,2.4-0.7
					l0.7,1.3c-0.9,0.6-2.1,1-3.3,1C521.1,21.2,519,19.3,519,16.1z M525.8,15.2c0-1.7-0.8-2.7-2.2-2.7c-1.2,0-2.3,1-2.5,2.7H525.8z"
					/>
				<path d="M533.2,16.1c0-3.2,2.2-5.2,4.5-5.2c2.6,0,4,1.9,4,4.7c0,0.4,0,0.8-0.1,1h-6.4c0.2,1.9,1.3,3,3.1,3
					c0.9,0,1.6-0.3,2.4-0.7l0.7,1.3c-0.9,0.6-2.1,1-3.3,1C535.3,21.2,533.2,19.3,533.2,16.1z M540,15.2c0-1.7-0.8-2.7-2.2-2.7
					c-1.2,0-2.3,1-2.5,2.7H540z"/>
				<path d="M542.7,11.1h2.1l1.7,5.3c0.3,1,0.6,2,0.9,3h0.1c0.3-1,0.6-2,0.9-3l1.7-5.3h2l-3.4,9.9h-2.4L542.7,11.1z"/>
				<path d="M553.1,16.1c0-3.2,2.2-5.2,4.5-5.2c2.6,0,4,1.9,4,4.7c0,0.4,0,0.8-0.1,1h-6.4c0.2,1.9,1.3,3,3.1,3
					c0.9,0,1.6-0.3,2.4-0.7l0.7,1.3c-0.9,0.6-2.1,1-3.3,1C555.2,21.2,553.1,19.3,553.1,16.1z M559.8,15.2c0-1.7-0.8-2.7-2.2-2.7
					c-1.2,0-2.3,1-2.5,2.7H559.8z"/>
				<path d="M563.9,11.1h1.7l0.2,1.4h0.1c0.9-0.9,1.9-1.6,3.3-1.6c2.1,0,3,1.4,3,3.9V21h-2.1v-6c0-1.7-0.5-2.4-1.7-2.4
					c-0.9,0-1.5,0.5-2.4,1.3v7h-2.1V11.1z"/>
				<path d="M575.5,17.8v-5h-1.4v-1.5l1.5-0.1l0.2-2.7h1.7v2.7h2.6v1.7h-2.6v5c0,1.2,0.4,1.8,1.4,1.8c0.3,0,0.8-0.1,1.1-0.2l0.4,1.5
					c-0.6,0.2-1.2,0.4-1.9,0.4C576.3,21.2,575.5,19.8,575.5,17.8z"/>
				<path d="M581.1,19.9l1-1.3c0.9,0.7,1.7,1.1,2.8,1.1c1.2,0,1.7-0.6,1.7-1.3c0-0.9-1.1-1.3-2.2-1.7c-1.3-0.5-2.8-1.2-2.8-2.9
					c0-1.7,1.3-2.9,3.5-2.9c1.3,0,2.4,0.5,3.2,1.2l-1,1.3c-0.7-0.5-1.4-0.9-2.2-0.9c-1.1,0-1.6,0.5-1.6,1.2c0,0.8,1,1.2,2.1,1.6
					c1.4,0.5,2.9,1.1,2.9,3c0,1.7-1.3,3-3.8,3C583.4,21.2,582,20.7,581.1,19.9z"/>
				<path d="M594.2,18.4c0-2.1,1.8-3.2,5.9-3.7c0-1.2-0.4-2.2-1.9-2.2c-1,0-2,0.5-2.9,1l-0.8-1.4c1-0.6,2.4-1.3,4-1.3
					c2.5,0,3.6,1.6,3.6,4.2v6h-1.7l-0.2-1.1h-0.1c-0.9,0.8-2,1.4-3.2,1.4C595.4,21.2,594.2,20.1,594.2,18.4z M600.1,18.4V16
					c-2.9,0.4-3.9,1.1-3.9,2.2c0,1,0.7,1.4,1.5,1.4C598.6,19.6,599.3,19.2,600.1,18.4z"/>
				<path d="M605.1,11.1h1.7l0.2,1.4h0.1c0.9-0.9,1.9-1.6,3.3-1.6c2.1,0,3,1.4,3,3.9V21h-2.1v-6c0-1.7-0.5-2.4-1.7-2.4
					c-0.9,0-1.5,0.5-2.4,1.3v7h-2.1V11.1z"/>
				<path d="M615.7,16.1c0-3.2,2-5.2,4.2-5.2c1.1,0,1.9,0.4,2.7,1.1l-0.1-1.6V6.6h2.1V21h-1.7l-0.2-1.1h-0.1
					c-0.7,0.8-1.8,1.4-2.9,1.4C617.3,21.2,615.7,19.3,615.7,16.1z M622.5,18.3v-4.8c-0.7-0.7-1.4-0.9-2.2-0.9
					c-1.4,0-2.5,1.3-2.5,3.5c0,2.3,0.9,3.5,2.4,3.5C621.1,19.5,621.8,19.1,622.5,18.3z"/>
				<path d="M631.1,16.1c0-3.3,2.2-5.2,4.7-5.2c2.4,0,4.7,1.9,4.7,5.2c0,3.3-2.2,5.2-4.7,5.2C633.3,21.2,631.1,19.3,631.1,16.1z
					 M638.3,16.1c0-2.1-1-3.5-2.5-3.5c-1.5,0-2.5,1.4-2.5,3.5c0,2.1,1,3.5,2.5,3.5C637.3,19.5,638.3,18.2,638.3,16.1z"/>
				<path d="M642.7,17.3v-6.2h2.1v6c0,1.7,0.5,2.4,1.7,2.4c0.9,0,1.5-0.4,2.4-1.5v-6.9h2.1V21h-1.7l-0.2-1.5H649
					c-0.9,1-1.9,1.7-3.2,1.7C643.6,21.2,642.7,19.8,642.7,17.3z"/>
				<path d="M654.3,17.8v-5h-1.4v-1.5l1.5-0.1l0.2-2.7h1.7v2.7h2.6v1.7h-2.6v5c0,1.2,0.4,1.8,1.4,1.8c0.3,0,0.8-0.1,1.1-0.2l0.4,1.5
					c-0.6,0.2-1.2,0.4-1.9,0.4C655.1,21.2,654.3,19.8,654.3,17.8z"/>
				<path d="M660.1,16.1c0-3.3,2.3-5.2,4.9-5.2c1.3,0,2.2,0.5,2.9,1.1l-1,1.4c-0.5-0.5-1.1-0.8-1.8-0.8c-1.7,0-2.8,1.4-2.8,3.5
					c0,2.1,1.1,3.5,2.8,3.5c0.8,0,1.6-0.4,2.2-0.9L668,20c-0.9,0.8-2.1,1.2-3.2,1.2C662.2,21.2,660.1,19.3,660.1,16.1z"/>
				<path d="M668.9,16.1c0-3.3,2.2-5.2,4.7-5.2c2.4,0,4.7,1.9,4.7,5.2c0,3.3-2.2,5.2-4.7,5.2C671.2,21.2,668.9,19.3,668.9,16.1z
					 M676.1,16.1c0-2.1-1-3.5-2.5-3.5c-1.5,0-2.5,1.4-2.5,3.5c0,2.1,1,3.5,2.5,3.5C675.2,19.5,676.1,18.2,676.1,16.1z"/>
				<path d="M680.7,11.1h1.7l0.2,1.4h0.1c0.8-0.9,1.8-1.6,3.1-1.6c1.5,0,2.3,0.7,2.7,1.8c1-1,2-1.8,3.2-1.8c2.1,0,3,1.4,3,3.9V21
					h-2.1v-6c0-1.7-0.5-2.4-1.7-2.4c-0.7,0-1.4,0.5-2.2,1.3v7h-2.1v-6c0-1.7-0.5-2.4-1.7-2.4c-0.7,0-1.4,0.5-2.2,1.3v7h-2.1V11.1z"
					/>
				<path d="M696.9,16.1c0-3.2,2.2-5.2,4.5-5.2c2.6,0,4,1.9,4,4.7c0,0.4,0,0.8-0.1,1H699c0.2,1.9,1.3,3,3.1,3c0.9,0,1.6-0.3,2.4-0.7
					l0.7,1.3c-0.9,0.6-2.1,1-3.3,1C699.1,21.2,696.9,19.3,696.9,16.1z M703.7,15.2c0-1.7-0.8-2.7-2.2-2.7c-1.2,0-2.3,1-2.5,2.7
					H703.7z"/>
				<path d="M706.8,19.9l1-1.3c0.9,0.7,1.7,1.1,2.8,1.1c1.2,0,1.7-0.6,1.7-1.3c0-0.9-1.1-1.3-2.2-1.7c-1.3-0.5-2.8-1.2-2.8-2.9
					c0-1.7,1.3-2.9,3.5-2.9c1.3,0,2.4,0.5,3.2,1.2l-1,1.3c-0.7-0.5-1.4-0.9-2.2-0.9c-1.1,0-1.6,0.5-1.6,1.2c0,0.8,1,1.2,2.1,1.6
					c1.4,0.5,2.9,1.1,2.9,3c0,1.7-1.3,3-3.8,3C709.1,21.2,707.7,20.7,706.8,19.9z"/>
			</g>
			<g id="cell1" transform="translate(0.000000, 107.000000)">
				<g class="st1">
					<path d="M23.2,57.3l1.5-1.8c1,0.9,2.2,1.5,3.4,1.5c1.4,0,2.1-0.6,2.1-1.5c0-1-0.8-1.3-2-1.8l-1.8-0.8c-1.4-0.6-2.7-1.6-2.7-3.6
						c0-2.2,1.9-3.9,4.6-3.9c1.5,0,3.1,0.6,4.2,1.7l-1.4,1.7c-0.8-0.7-1.7-1.1-2.8-1.1c-1.2,0-1.9,0.5-1.9,1.4c0,1,1,1.3,2.1,1.7
						l1.7,0.7c1.6,0.7,2.7,1.7,2.7,3.6c0,2.2-1.8,4-4.9,4C26.3,59.3,24.5,58.5,23.2,57.3z"/>
					<path d="M34.5,54c0-3.3,2.3-5.3,4.7-5.3c2.8,0,4.2,2,4.2,4.8c0,0.5-0.1,1-0.1,1.2h-6.2c0.2,1.7,1.3,2.5,2.8,2.5
						c0.8,0,1.5-0.3,2.3-0.7l0.9,1.6c-1,0.7-2.3,1.1-3.5,1.1C36.7,59.3,34.5,57.3,34.5,54z M41.1,53c0-1.4-0.6-2.2-1.9-2.2
						c-1.1,0-2,0.8-2.2,2.2H41.1z"/>
					<path d="M45.6,48.9h2.2l0.2,1.8H48c0.7-1.3,1.8-2,2.9-2c0.6,0,0.9,0.1,1.2,0.2l-0.5,2.3c-0.3-0.1-0.6-0.2-1-0.2
						c-0.8,0-1.7,0.5-2.3,2v6h-2.6V48.9z"/>
					<path d="M53.2,45.9c0-0.9,0.7-1.4,1.6-1.4c0.9,0,1.6,0.6,1.6,1.4c0,0.8-0.7,1.4-1.6,1.4C53.9,47.3,53.2,46.7,53.2,45.9z
						 M53.4,48.9h2.6V59h-2.6V48.9z"/>
					<path d="M58.3,54c0-3.4,2.3-5.3,4.8-5.3c2.5,0,4.8,1.9,4.8,5.3c0,3.3-2.3,5.3-4.8,5.3C60.6,59.3,58.3,57.3,58.3,54z M65.3,54
						c0-1.9-0.8-3.2-2.1-3.2c-1.4,0-2.1,1.2-2.1,3.2c0,1.9,0.8,3.1,2.1,3.1C64.5,57.1,65.3,55.9,65.3,54z"/>
					<path d="M70.1,55.2v-6.3h2.6v6c0,1.6,0.4,2.1,1.4,2.1c0.8,0,1.4-0.4,2.1-1.3v-6.8h2.6V59h-2.2l-0.2-1.4h-0.1
						c-0.9,1-1.8,1.7-3.2,1.7C71,59.3,70.1,57.7,70.1,55.2z"/>
					<path d="M80.7,57.8l1.2-1.7c0.9,0.7,1.8,1.1,2.7,1.1c1,0,1.5-0.4,1.5-1.1c0-0.8-1-1.1-2.1-1.5c-1.3-0.5-2.8-1.3-2.8-2.9
						c0-1.8,1.5-3.1,3.7-3.1c1.5,0,2.6,0.6,3.4,1.2l-1.2,1.6c-0.7-0.5-1.4-0.9-2.2-0.9c-0.9,0-1.3,0.4-1.3,1c0,0.7,1,1,2.1,1.4
						c1.3,0.5,2.8,1.2,2.8,3c0,1.8-1.4,3.2-4,3.2C83.2,59.3,81.7,58.7,80.7,57.8z"/>
					<path d="M101.1,55.6h-4.3L95.8,59h-2.7l4.3-13.3h3.1l4.3,13.3H102L101.1,55.6z M100.5,53.5l-0.4-1.5c-0.4-1.4-0.8-2.9-1.2-4.4
						h-0.1c-0.3,1.5-0.7,3-1.1,4.4l-0.4,1.5H100.5z"/>
					<path d="M105.6,54c0-3.3,2.1-5.3,4.2-5.3c1.1,0,1.8,0.4,2.6,1.1l-0.1-1.6v-3.5h2.6V59h-2.1l-0.2-1h-0.1
						c-0.7,0.7-1.7,1.3-2.8,1.3C107.2,59.3,105.6,57.3,105.6,54z M112.3,56v-4.4c-0.6-0.6-1.2-0.8-1.9-0.8c-1.1,0-2.1,1.1-2.1,3.1
						c0,2.1,0.8,3.1,2.1,3.1C111.1,57.1,111.7,56.8,112.3,56z"/>
					<path d="M116.6,48.9h2.7l1.5,5c0.3,1,0.5,2,0.8,3.1h0.1c0.3-1,0.5-2.1,0.8-3.1l1.5-5h2.5L123.1,59H120L116.6,48.9z"/>
					<path d="M127.4,54c0-3.3,2.3-5.3,4.7-5.3c2.8,0,4.2,2,4.2,4.8c0,0.5-0.1,1-0.1,1.2h-6.2c0.2,1.7,1.3,2.5,2.8,2.5
						c0.8,0,1.5-0.3,2.3-0.7l0.9,1.6c-1,0.7-2.3,1.1-3.5,1.1C129.6,59.3,127.4,57.3,127.4,54z M134,53c0-1.4-0.6-2.2-1.9-2.2
						c-1.1,0-2,0.8-2.2,2.2H134z"/>
					<path d="M138.5,48.9h2.2l0.2,1.8h0.1c0.7-1.3,1.8-2,2.9-2c0.6,0,0.9,0.1,1.2,0.2l-0.5,2.3c-0.3-0.1-0.6-0.2-1-0.2
						c-0.8,0-1.7,0.5-2.3,2v6h-2.6V48.9z"/>
					<path d="M145.2,57.8l1.2-1.7c0.9,0.7,1.8,1.1,2.7,1.1c1,0,1.5-0.4,1.5-1.1c0-0.8-1-1.1-2.1-1.5c-1.3-0.5-2.8-1.3-2.8-2.9
						c0-1.8,1.5-3.1,3.7-3.1c1.5,0,2.6,0.6,3.4,1.2l-1.2,1.6c-0.7-0.5-1.4-0.9-2.2-0.9c-0.9,0-1.3,0.4-1.3,1c0,0.7,1,1,2.1,1.4
						c1.3,0.5,2.8,1.2,2.8,3c0,1.8-1.4,3.2-4,3.2C147.7,59.3,146.2,58.7,145.2,57.8z"/>
					<path d="M154.4,54c0-3.3,2.3-5.3,4.7-5.3c2.8,0,4.2,2,4.2,4.8c0,0.5-0.1,1-0.1,1.2H157c0.2,1.7,1.3,2.5,2.8,2.5
						c0.8,0,1.5-0.3,2.3-0.7l0.9,1.6c-1,0.7-2.3,1.1-3.5,1.1C156.6,59.3,154.4,57.3,154.4,54z M161.1,53c0-1.4-0.6-2.2-1.9-2.2
						c-1.1,0-2,0.8-2.2,2.2H161.1z"/>
					<path d="M169.8,45.7h8.2v2.2h-5.5V51h4.7v2.2h-4.7v3.6h5.7V59h-8.4V45.7z"/>
					<path d="M179.3,48.9h2.7l1.5,5c0.3,1,0.5,2,0.8,3.1h0.1c0.3-1,0.5-2.1,0.8-3.1l1.5-5h2.5L185.8,59h-3.1L179.3,48.9z"/>
					<path d="M190.1,54c0-3.3,2.3-5.3,4.7-5.3c2.8,0,4.2,2,4.2,4.8c0,0.5-0.1,1-0.1,1.2h-6.2c0.2,1.7,1.3,2.5,2.8,2.5
						c0.8,0,1.5-0.3,2.3-0.7l0.9,1.6c-1,0.7-2.3,1.1-3.5,1.1C192.3,59.3,190.1,57.3,190.1,54z M196.7,53c0-1.4-0.6-2.2-1.9-2.2
						c-1.1,0-2,0.8-2.2,2.2H196.7z"/>
					<path d="M201.1,48.9h2.2l0.2,1.3h0.1c0.9-0.9,1.9-1.6,3.3-1.6c2.2,0,3.1,1.5,3.1,4.1V59h-2.6v-6c0-1.5-0.4-2.1-1.4-2.1
						c-0.8,0-1.4,0.4-2.1,1.1V59h-2.6V48.9z"/>
					<path d="M213.1,55.5V51h-1.4v-2l1.5-0.1l0.3-2.7h2.2v2.7h2.5V51h-2.5v4.5c0,1.2,0.5,1.7,1.4,1.7c0.3,0,0.7-0.1,1-0.2l0.4,1.9
						c-0.5,0.2-1.2,0.4-2.1,0.4C214,59.3,213.1,57.7,213.1,55.5z"/>
					<path d="M219.1,57.8l1.2-1.7c0.9,0.7,1.8,1.1,2.7,1.1c1,0,1.5-0.4,1.5-1.1c0-0.8-1-1.1-2.1-1.5c-1.3-0.5-2.8-1.3-2.8-2.9
						c0-1.8,1.5-3.1,3.7-3.1c1.5,0,2.6,0.6,3.4,1.2l-1.2,1.6c-0.7-0.5-1.4-0.9-2.2-0.9c-0.9,0-1.3,0.4-1.3,1c0,0.7,1,1,2.1,1.4
						c1.3,0.5,2.8,1.2,2.8,3c0,1.8-1.4,3.2-4,3.2C221.6,59.3,220.1,58.7,219.1,57.8z"/>
				</g>
				<g class="st1">
					<path d="M311,84.3h2.9v-9.2h-2.4v-1.3c1.2-0.2,2.1-0.5,2.9-1h1.6v11.5h2.6V86H311V84.3z"/>
					<path d="M325.3,80.4c0-3.5,1-6.5,2.7-9.2l1.3,0.6c-1.5,2.6-2.3,5.6-2.3,8.6c0,3,0.7,6.1,2.3,8.6l-1.3,0.6
						C326.3,86.8,325.3,83.9,325.3,80.4z"/>
					<path d="M331.7,84.3h2.9v-9.2h-2.4v-1.3c1.2-0.2,2.1-0.5,2.9-1h1.6v11.5h2.6V86h-7.6V84.3z"/>
					<path d="M341.9,84.3h2.9v-9.2h-2.4v-1.3c1.2-0.2,2.1-0.5,2.9-1h1.6v11.5h2.6V86h-7.6V84.3z"/>
					<path d="M351.9,84.8c0-0.8,0.6-1.5,1.4-1.5c0.8,0,1.4,0.6,1.4,1.5c0,0.8-0.6,1.4-1.4,1.4C352.6,86.2,351.9,85.6,351.9,84.8z"/>
					<path d="M357.6,84.3h2.9v-9.2h-2.4v-1.3c1.2-0.2,2.1-0.5,2.9-1h1.6v11.5h2.6V86h-7.6V84.3z"/>
					<path d="M366.9,76.7c0-2.7,1.2-4.2,3.1-4.2s3.1,1.5,3.1,4.2c0,2.7-1.3,4.2-3.1,4.2S366.9,79.3,366.9,76.7z M371.6,76.7
						c0-2.1-0.7-3-1.6-3c-0.9,0-1.6,0.9-1.6,3c0,2,0.7,3,1.6,3C371,79.7,371.6,78.7,371.6,76.7z M377.7,72.5h1.3l-7.3,13.7h-1.3
						L377.7,72.5z M376.3,82c0-2.7,1.3-4.2,3.1-4.2c1.8,0,3.1,1.5,3.1,4.2c0,2.7-1.3,4.2-3.1,4.2C377.6,86.2,376.3,84.7,376.3,82z
						 M381,82c0-2.1-0.7-3-1.6-3c-0.9,0-1.6,0.9-1.6,3c0,2,0.7,3,1.6,3C380.4,85,381,84.1,381,82z"/>
					<path d="M384,89c1.5-2.6,2.3-5.6,2.3-8.6c0-3-0.7-6-2.3-8.6l1.3-0.6c1.7,2.7,2.7,5.7,2.7,9.2c0,3.6-1,6.5-2.7,9.2L384,89z"/>
				</g>
				<g class="st1">
					<path d="M491.2,72.7h2.1l4.4,7.8l1.4,2.8h0.1c-0.1-1.4-0.3-3-0.3-4.4v-6.2h2V86h-2.1l-4.4-7.8l-1.4-2.8h-0.1
						c0.1,1.4,0.3,2.9,0.3,4.3V86h-2V72.7z"/>
					<path d="M503.5,81.1c0-3.3,2.2-5.2,4.7-5.2c2.4,0,4.7,1.9,4.7,5.2c0,3.3-2.2,5.2-4.7,5.2C505.7,86.2,503.5,84.3,503.5,81.1z
						 M510.7,81.1c0-2.1-1-3.5-2.5-3.5c-1.5,0-2.5,1.4-2.5,3.5c0,2.1,1,3.5,2.5,3.5C509.8,84.5,510.7,83.2,510.7,81.1z"/>
					<path d="M515.2,82.8v-5h-1.4v-1.5l1.5-0.1l0.2-2.7h1.7v2.7h2.6v1.7h-2.6v5c0,1.2,0.4,1.8,1.4,1.8c0.3,0,0.8-0.1,1.1-0.2
						l0.4,1.5c-0.6,0.2-1.2,0.4-1.9,0.4C516,86.2,515.2,84.8,515.2,82.8z"/>
					<path d="M526,76.1h1.7l0.2,1.8h0.1c0.7-1.3,1.7-2,2.8-2c0.5,0,0.8,0.1,1.1,0.2l-0.4,1.8c-0.3-0.1-0.6-0.2-1-0.2
						c-0.8,0-1.8,0.6-2.4,2.1V86H526V76.1z"/>
					<path d="M532.5,81.1c0-3.2,2.2-5.2,4.5-5.2c2.6,0,4,1.9,4,4.7c0,0.4,0,0.8-0.1,1h-6.4c0.2,1.9,1.4,3,3.1,3
						c0.9,0,1.6-0.3,2.4-0.7l0.7,1.3c-0.9,0.6-2.1,1-3.3,1C534.6,86.2,532.5,84.3,532.5,81.1z M539.3,80.2c0-1.7-0.8-2.7-2.2-2.7
						c-1.2,0-2.3,1-2.5,2.7H539.3z"/>
					<path d="M543.4,83.7v-12h2.1v12.1c0,0.6,0.3,0.8,0.5,0.8c0.1,0,0.2,0,0.3,0l0.3,1.6c-0.3,0.1-0.6,0.2-1.1,0.2
						C543.9,86.2,543.4,85.3,543.4,83.7z"/>
					<path d="M548.2,83.4c0-2.1,1.8-3.2,5.9-3.7c0-1.2-0.4-2.2-1.9-2.2c-1,0-2,0.5-2.9,1l-0.8-1.4c1-0.6,2.4-1.3,4-1.3
						c2.5,0,3.6,1.6,3.6,4.2v6h-1.7l-0.2-1.1h-0.1c-0.9,0.8-2,1.4-3.2,1.4C549.4,86.2,548.2,85.1,548.2,83.4z M554.1,83.4V81
						c-2.9,0.4-3.9,1.1-3.9,2.2c0,1,0.7,1.4,1.5,1.4C552.6,84.6,553.3,84.2,554.1,83.4z"/>
					<path d="M559.1,82.8v-5h-1.4v-1.5l1.5-0.1l0.2-2.7h1.7v2.7h2.6v1.7h-2.6v5c0,1.2,0.4,1.8,1.4,1.8c0.3,0,0.8-0.1,1.1-0.2
						l0.4,1.5c-0.6,0.2-1.2,0.4-1.9,0.4C559.9,86.2,559.1,84.8,559.1,82.8z"/>
					<path d="M564.9,81.1c0-3.2,2.2-5.2,4.5-5.2c2.6,0,4,1.9,4,4.7c0,0.4,0,0.8-0.1,1h-6.4c0.2,1.9,1.4,3,3.1,3
						c0.9,0,1.6-0.3,2.4-0.7l0.7,1.3c-0.9,0.6-2.1,1-3.3,1C567,86.2,564.9,84.3,564.9,81.1z M571.7,80.2c0-1.7-0.8-2.7-2.2-2.7
						c-1.2,0-2.3,1-2.5,2.7H571.7z"/>
					<path d="M575.1,81.1c0-3.2,2-5.2,4.2-5.2c1.1,0,1.9,0.4,2.7,1.1l-0.1-1.6v-3.7h2.1V86h-1.7l-0.2-1.1h-0.1
						c-0.7,0.8-1.8,1.4-2.9,1.4C576.7,86.2,575.1,84.3,575.1,81.1z M581.9,83.3v-4.8c-0.7-0.7-1.4-0.9-2.2-0.9
						c-1.4,0-2.5,1.3-2.5,3.5c0,2.3,0.9,3.5,2.4,3.5C580.5,84.5,581.2,84.1,581.9,83.3z"/>
				</g>
				<g class="st1">
					<path d="M695.2,82.4h-1.7V86h-1.9v-3.6h-5.7V81l5.3-8.3h2.4v8.1h1.7V82.4z M691.5,80.8v-3.5c0-0.7,0.1-1.8,0.1-2.6h-0.1
						c-0.3,0.7-0.7,1.4-1.1,2l-2.6,4H691.5z"/>
					<path d="M701.3,80.4c0-3.5,1-6.5,2.7-9.2l1.3,0.6c-1.5,2.6-2.3,5.6-2.3,8.6c0,3,0.7,6.1,2.3,8.6l-1.3,0.6
						C702.3,86.8,701.3,83.9,701.3,80.4z"/>
					<path d="M715.9,82.4h-1.7V86h-1.9v-3.6h-5.7V81l5.3-8.3h2.4v8.1h1.7V82.4z M712.2,80.8v-3.5c0-0.7,0.1-1.8,0.1-2.6h-0.1
						c-0.3,0.7-0.7,1.4-1.1,2l-2.6,4H712.2z"/>
					<path d="M726.1,82.4h-1.7V86h-1.9v-3.6h-5.7V81l5.3-8.3h2.4v8.1h1.7V82.4z M722.5,80.8v-3.5c0-0.7,0.1-1.8,0.1-2.6h-0.1
						c-0.3,0.7-0.7,1.4-1.1,2l-2.6,4H722.5z"/>
					<path d="M727.9,84.8c0-0.8,0.6-1.5,1.4-1.5s1.4,0.6,1.4,1.5c0,0.8-0.6,1.4-1.4,1.4S727.9,85.6,727.9,84.8z"/>
					<path d="M741.7,82.4H740V86h-1.9v-3.6h-5.7V81l5.3-8.3h2.4v8.1h1.7V82.4z M738.1,80.8v-3.5c0-0.7,0.1-1.8,0.1-2.6h-0.1
						c-0.3,0.7-0.7,1.4-1.1,2l-2.6,4H738.1z"/>
					<path d="M742.9,76.7c0-2.7,1.2-4.2,3.1-4.2s3.1,1.5,3.1,4.2c0,2.7-1.3,4.2-3.1,4.2S742.9,79.3,742.9,76.7z M747.6,76.7
						c0-2.1-0.7-3-1.6-3c-0.9,0-1.6,0.9-1.6,3c0,2,0.7,3,1.6,3C747,79.7,747.6,78.7,747.6,76.7z M753.7,72.5h1.3l-7.3,13.7h-1.3
						L753.7,72.5z M752.3,82c0-2.7,1.3-4.2,3.1-4.2c1.8,0,3.1,1.5,3.1,4.2c0,2.7-1.3,4.2-3.1,4.2C753.6,86.2,752.3,84.7,752.3,82z
						 M757,82c0-2.1-0.7-3-1.6-3c-0.9,0-1.6,0.9-1.6,3c0,2,0.7,3,1.6,3C756.4,85,757,84.1,757,82z"/>
					<path d="M760,89c1.5-2.6,2.3-5.6,2.3-8.6c0-3-0.7-6-2.3-8.6l1.3-0.6c1.7,2.7,2.7,5.7,2.7,9.2c0,3.6-1,6.5-2.7,9.2L760,89z"/>
				</g>
				<g class="st1">
					<path d="M867.2,72.7h2.1l4.4,7.8l1.4,2.8h0.1c-0.1-1.4-0.3-3-0.3-4.4v-6.2h2V86h-2.1l-4.4-7.8l-1.4-2.8h-0.1
						c0.1,1.4,0.3,2.9,0.3,4.3V86h-2V72.7z"/>
					<path d="M879.5,81.1c0-3.3,2.2-5.2,4.7-5.2c2.4,0,4.7,1.9,4.7,5.2c0,3.3-2.2,5.2-4.7,5.2C881.7,86.2,879.5,84.3,879.5,81.1z
						 M886.7,81.1c0-2.1-1-3.5-2.5-3.5c-1.5,0-2.5,1.4-2.5,3.5c0,2.1,1,3.5,2.5,3.5C885.8,84.5,886.7,83.2,886.7,81.1z"/>
					<path d="M891.2,82.8v-5h-1.4v-1.5l1.5-0.1l0.2-2.7h1.7v2.7h2.6v1.7h-2.6v5c0,1.2,0.4,1.8,1.4,1.8c0.3,0,0.8-0.1,1.1-0.2
						l0.4,1.5c-0.6,0.2-1.2,0.4-1.9,0.4C892,86.2,891.2,84.8,891.2,82.8z"/>
					<path d="M902,76.1h1.7l0.2,1.8h0.1c0.7-1.3,1.7-2,2.8-2c0.5,0,0.8,0.1,1.1,0.2l-0.4,1.8c-0.3-0.1-0.6-0.2-1-0.2
						c-0.8,0-1.8,0.6-2.4,2.1V86H902V76.1z"/>
					<path d="M908.5,81.1c0-3.2,2.2-5.2,4.5-5.2c2.6,0,4,1.9,4,4.7c0,0.4,0,0.8-0.1,1h-6.4c0.2,1.9,1.4,3,3.1,3
						c0.9,0,1.6-0.3,2.4-0.7l0.7,1.3c-0.9,0.6-2.1,1-3.3,1C910.6,86.2,908.5,84.3,908.5,81.1z M915.3,80.2c0-1.7-0.8-2.7-2.2-2.7
						c-1.2,0-2.3,1-2.5,2.7H915.3z"/>
					<path d="M919.4,83.7v-12h2.1v12.1c0,0.6,0.3,0.8,0.5,0.8c0.1,0,0.2,0,0.3,0l0.3,1.6c-0.3,0.1-0.6,0.2-1.1,0.2
						C919.9,86.2,919.4,85.3,919.4,83.7z"/>
					<path d="M924.2,83.4c0-2.1,1.8-3.2,5.9-3.7c0-1.2-0.4-2.2-1.9-2.2c-1,0-2,0.5-2.9,1l-0.8-1.4c1-0.6,2.4-1.3,4-1.3
						c2.5,0,3.6,1.6,3.6,4.2v6h-1.7l-0.2-1.1h-0.1c-0.9,0.8-2,1.4-3.2,1.4C925.4,86.2,924.2,85.1,924.2,83.4z M930.1,83.4V81
						c-2.9,0.4-3.9,1.1-3.9,2.2c0,1,0.7,1.4,1.5,1.4C928.6,84.6,929.3,84.2,930.1,83.4z"/>
					<path d="M935.1,82.8v-5h-1.4v-1.5l1.5-0.1l0.2-2.7h1.7v2.7h2.6v1.7h-2.6v5c0,1.2,0.4,1.8,1.4,1.8c0.3,0,0.8-0.1,1.1-0.2
						l0.4,1.5c-0.6,0.2-1.2,0.4-1.9,0.4C935.9,86.2,935.1,84.8,935.1,82.8z"/>
					<path d="M940.9,81.1c0-3.2,2.2-5.2,4.5-5.2c2.6,0,4,1.9,4,4.7c0,0.4,0,0.8-0.1,1h-6.4c0.2,1.9,1.4,3,3.1,3
						c0.9,0,1.6-0.3,2.4-0.7l0.7,1.3c-0.9,0.6-2.1,1-3.3,1C943,86.2,940.9,84.3,940.9,81.1z M947.7,80.2c0-1.7-0.8-2.7-2.2-2.7
						c-1.2,0-2.3,1-2.5,2.7H947.7z"/>
					<path d="M951.1,81.1c0-3.2,2-5.2,4.2-5.2c1.1,0,1.9,0.4,2.7,1.1l-0.1-1.6v-3.7h2.1V86h-1.7l-0.2-1.1h-0.1
						c-0.7,0.8-1.8,1.4-2.9,1.4C952.7,86.2,951.1,84.3,951.1,81.1z M957.9,83.3v-4.8c-0.7-0.7-1.4-0.9-2.2-0.9
						c-1.4,0-2.5,1.3-2.5,3.5c0,2.3,0.9,3.5,2.4,3.5C956.5,84.5,957.2,84.1,957.9,83.3z"/>
				</g>
				<path id="divider" class="st3" d="M0,113h1000"/>
				<g id="subhead" transform="translate(258.000000, 0.000000)">
					<g>
						<path class="st4" d="M8.8,0.8h160.5c4.4,0,8,3.6,8,8v32.5c0,4.4-3.6,8-8,8H8.8c-4.4,0-8-3.6-8-8V8.8C0.8,4.3,4.3,0.8,8.8,0.8z
							"/>
						<g class="st1">
							<path d="M54.4,19.9h2.2V31h-2.2V19.9z"/>
							<path d="M59.1,22.6h1.8l0.1,1.1h0.1c0.7-0.7,1.6-1.3,2.7-1.3c1.8,0,2.6,1.3,2.6,3.4V31h-2.2v-5c0-1.3-0.4-1.8-1.2-1.8
								c-0.7,0-1.1,0.3-1.8,0.9V31h-2.2V22.6z"/>
							<path d="M68.2,26.8c0-2.8,2-4.4,4.3-4.4c1,0,1.8,0.4,2.4,0.9l-1,1.4c-0.4-0.4-0.8-0.6-1.3-0.6c-1.3,0-2.1,1-2.1,2.6
								c0,1.6,0.9,2.6,2.1,2.6c0.6,0,1.2-0.3,1.6-0.7l0.9,1.5c-0.8,0.7-1.8,1-2.7,1C70,31.2,68.2,29.6,68.2,26.8z"/>
							<path d="M76.4,20.1c0-0.7,0.6-1.2,1.3-1.2c0.8,0,1.3,0.5,1.3,1.2c0,0.7-0.6,1.2-1.3,1.2C77,21.2,76.4,20.7,76.4,20.1z
								 M76.7,22.6h2.2V31h-2.2V22.6z"/>
							<path d="M80.7,26.8c0-2.7,1.7-4.4,3.5-4.4c0.9,0,1.5,0.4,2.1,0.9L86.3,22v-3h2.2v12h-1.8l-0.2-0.9h0
								c-0.6,0.6-1.5,1.1-2.3,1.1C82.1,31.2,80.7,29.6,80.7,26.8z M86.3,28.5v-3.7c-0.5-0.5-1-0.6-1.6-0.6c-0.9,0-1.7,0.9-1.7,2.6
								c0,1.7,0.6,2.6,1.7,2.6C85.3,29.4,85.8,29.2,86.3,28.5z"/>
							<path d="M90.3,26.8c0-2.7,1.9-4.4,3.9-4.4c2.3,0,3.5,1.7,3.5,4c0,0.4,0,0.8-0.1,1h-5.2c0.2,1.4,1.1,2.1,2.3,2.1
								c0.7,0,1.3-0.2,1.9-0.6l0.8,1.4c-0.8,0.6-1.9,0.9-2.9,0.9C92.2,31.2,90.3,29.6,90.3,26.8z M95.9,26c0-1.1-0.5-1.9-1.6-1.9
								c-0.9,0-1.7,0.6-1.8,1.9H95.9z"/>
							<path d="M99.6,22.6h1.8l0.1,1.1h0.1c0.7-0.7,1.6-1.3,2.7-1.3c1.8,0,2.6,1.3,2.6,3.4V31h-2.2v-5c0-1.3-0.4-1.8-1.2-1.8
								c-0.7,0-1.1,0.3-1.8,0.9V31h-2.2V22.6z"/>
							<path d="M108.7,26.8c0-2.8,2-4.4,4.3-4.4c1,0,1.8,0.4,2.4,0.9l-1,1.4c-0.4-0.4-0.8-0.6-1.3-0.6c-1.3,0-2.1,1-2.1,2.6
								c0,1.6,0.9,2.6,2.1,2.6c0.6,0,1.2-0.3,1.6-0.7l0.9,1.5c-0.8,0.7-1.8,1-2.7,1C110.4,31.2,108.7,29.6,108.7,26.8z"/>
							<path d="M116.1,26.8c0-2.7,1.9-4.4,3.9-4.4c2.3,0,3.5,1.7,3.5,4c0,0.4,0,0.8-0.1,1h-5.2c0.2,1.4,1.1,2.1,2.3,2.1
								c0.7,0,1.3-0.2,1.9-0.6l0.8,1.4c-0.8,0.6-1.9,0.9-2.9,0.9C118,31.2,116.1,29.6,116.1,26.8z M121.7,26c0-1.1-0.5-1.9-1.6-1.9
								c-0.9,0-1.7,0.6-1.8,1.9H121.7z"/>
						</g>
					</g>
					<g transform="translate(188.000000, 0.000000)">
						<path class="st4" d="M8.8,0.8h160.5c4.4,0,8,3.6,8,8v32.5c0,4.4-3.6,8-8,8H8.8c-4.4,0-8-3.6-8-8V8.8C0.8,4.3,4.3,0.8,8.8,0.8z
							"/>
						<g class="st1">
							<path d="M20.9,31l-2.3-4.2H17V31h-2.2V19.9h3.9c2.3,0,4.2,0.8,4.2,3.4c0,1.7-0.8,2.7-2.1,3.2l2.6,4.5H20.9z M17,25h1.4
								c1.4,0,2.2-0.6,2.2-1.8c0-1.2-0.8-1.6-2.2-1.6H17V25z"/>
							<path d="M24.2,26.8c0-2.7,1.9-4.4,3.9-4.4c2.3,0,3.5,1.7,3.5,4c0,0.4,0,0.8-0.1,1h-5.2c0.2,1.4,1.1,2.1,2.3,2.1
								c0.7,0,1.3-0.2,1.9-0.6l0.8,1.4c-0.8,0.6-1.9,0.9-2.9,0.9C26,31.2,24.2,29.6,24.2,26.8z M29.7,26c0-1.1-0.5-1.9-1.6-1.9
								c-0.9,0-1.7,0.6-1.8,1.9H29.7z"/>
							<path d="M33.4,28.6V19h2.2v9.7c0,0.5,0.2,0.7,0.5,0.7c0.1,0,0.1,0,0.3,0l0.3,1.6c-0.3,0.1-0.6,0.2-1.1,0.2
								C33.9,31.2,33.4,30.2,33.4,28.6z"/>
							<path d="M37.7,28.7c0-1.8,1.5-2.7,4.8-3.1c0-0.8-0.4-1.5-1.4-1.5c-0.8,0-1.5,0.3-2.3,0.8L38,23.5c1-0.6,2.2-1.1,3.5-1.1
								c2.1,0,3.2,1.3,3.2,3.7V31h-1.8l-0.2-0.9h0c-0.7,0.6-1.6,1.1-2.5,1.1C38.7,31.2,37.7,30.1,37.7,28.7z M42.5,28.7V27
								c-2,0.3-2.7,0.8-2.7,1.6c0,0.7,0.5,0.9,1.1,0.9C41.5,29.5,42,29.2,42.5,28.7z"/>
							<path d="M47,28.1v-3.7h-1.2v-1.6l1.3-0.1l0.3-2.2h1.8v2.2h2.1v1.7h-2.1v3.7c0,1,0.4,1.4,1.1,1.4c0.3,0,0.6-0.1,0.8-0.2
								l0.4,1.6c-0.5,0.2-1,0.3-1.8,0.3C47.8,31.2,47,30,47,28.1z"/>
							<path d="M52.8,20.1c0-0.7,0.6-1.2,1.3-1.2c0.8,0,1.3,0.5,1.3,1.2c0,0.7-0.6,1.2-1.3,1.2C53.3,21.2,52.8,20.7,52.8,20.1z
								 M53,22.6h2.2V31H53V22.6z"/>
							<path d="M57,26.8c0-2.8,1.9-4.4,4-4.4c2.1,0,4,1.6,4,4.4c0,2.8-1.9,4.4-4,4.4C59,31.2,57,29.6,57,26.8z M62.9,26.8
								c0-1.6-0.6-2.6-1.8-2.6c-1.1,0-1.8,1-1.8,2.6c0,1.6,0.6,2.6,1.8,2.6C62.2,29.4,62.9,28.4,62.9,26.8z"/>
							<path d="M67,22.6h1.8l0.1,1.1H69c0.7-0.7,1.6-1.3,2.7-1.3c1.8,0,2.6,1.3,2.6,3.4V31h-2.2v-5c0-1.3-0.4-1.8-1.2-1.8
								c-0.7,0-1.1,0.3-1.8,0.9V31H67V22.6z"/>
							<path d="M75.8,30l1-1.4c0.8,0.6,1.5,0.9,2.2,0.9c0.8,0,1.2-0.4,1.2-0.9c0-0.6-0.9-0.9-1.8-1.3c-1.1-0.4-2.3-1-2.3-2.4
								c0-1.5,1.2-2.6,3.1-2.6c1.2,0,2.2,0.5,2.9,1l-1,1.3C80.6,24.3,80,24,79.4,24c-0.8,0-1.1,0.3-1.1,0.8c0,0.6,0.8,0.8,1.7,1.2
								c1.1,0.4,2.3,1,2.3,2.5c0,1.5-1.2,2.7-3.3,2.7C77.8,31.2,76.6,30.7,75.8,30z"/>
							<path d="M84,19h2.2v3l-0.1,1.6c0.7-0.6,1.5-1.2,2.6-1.2c1.8,0,2.6,1.3,2.6,3.4V31h-2.2v-5c0-1.3-0.4-1.8-1.2-1.8
								c-0.7,0-1.1,0.3-1.8,0.9V31H84V19z"/>
							<path d="M93.4,20.1c0-0.7,0.6-1.2,1.3-1.2c0.8,0,1.3,0.5,1.3,1.2c0,0.7-0.6,1.2-1.3,1.2C93.9,21.2,93.4,20.7,93.4,20.1z
								 M93.6,22.6h2.2V31h-2.2V22.6z"/>
							<path d="M98.2,22.6h1.8l0.1,0.9h0.1c0.7-0.6,1.6-1.1,2.5-1.1c2.1,0,3.3,1.7,3.3,4.3c0,2.9-1.7,4.5-3.6,4.5
								c-0.7,0-1.4-0.3-2.1-0.9l0.1,1.4v2.5h-2.2V22.6z M103.7,26.7c0-1.6-0.5-2.5-1.7-2.5c-0.6,0-1.1,0.3-1.7,0.9v3.7
								c0.5,0.5,1.1,0.6,1.5,0.6C102.9,29.4,103.7,28.5,103.7,26.7z"/>
							<path d="M111.5,28.1v-3.7h-1.2v-1.6l1.3-0.1l0.3-2.2h1.8v2.2h2.1v1.7h-2.1v3.7c0,1,0.4,1.4,1.1,1.4c0.3,0,0.6-0.1,0.8-0.2
								l0.4,1.6c-0.5,0.2-1,0.3-1.8,0.3C112.3,31.2,111.5,30,111.5,28.1z"/>
							<path d="M116.7,26.8c0-2.8,1.9-4.4,4-4.4c2.1,0,4,1.6,4,4.4c0,2.8-1.9,4.4-4,4.4C118.6,31.2,116.7,29.6,116.7,26.8z
								 M122.5,26.8c0-1.6-0.6-2.6-1.8-2.6c-1.1,0-1.8,1-1.8,2.6c0,1.6,0.6,2.6,1.8,2.6C121.9,29.4,122.5,28.4,122.5,26.8z"/>
							<path d="M129.5,26.8c0-2.7,1.7-4.4,3.5-4.4c0.9,0,1.5,0.4,2.1,0.9l-0.1-1.3v-3h2.2v12h-1.8l-0.2-0.9h0
								c-0.6,0.6-1.5,1.1-2.3,1.1C130.9,31.2,129.5,29.6,129.5,26.8z M135.1,28.5v-3.7c-0.5-0.5-1-0.6-1.6-0.6
								c-0.9,0-1.7,0.9-1.7,2.6c0,1.7,0.6,2.6,1.7,2.6C134.1,29.4,134.6,29.2,135.1,28.5z"/>
							<path d="M139.7,22.6h1.8l0.2,1.5h0.1c0.6-1.1,1.5-1.7,2.4-1.7c0.5,0,0.7,0.1,1,0.2l-0.4,1.9c-0.3-0.1-0.5-0.1-0.9-0.1
								c-0.7,0-1.5,0.4-1.9,1.7v5h-2.2V22.6z"/>
							<path d="M146.1,27.9v-5.2h2.2v5c0,1.3,0.4,1.8,1.2,1.8c0.7,0,1.1-0.3,1.7-1v-5.7h2.2V31h-1.8l-0.2-1.2h-0.1
								c-0.7,0.9-1.5,1.4-2.7,1.4C146.9,31.2,146.1,30,146.1,27.9z"/>
							<path d="M155.2,32.5c0-0.7,0.4-1.3,1.2-1.7v-0.1c-0.4-0.3-0.8-0.7-0.8-1.4c0-0.6,0.4-1.2,0.9-1.6v-0.1
								c-0.6-0.4-1.1-1.2-1.1-2.2c0-2,1.6-3,3.4-3c0.5,0,0.9,0.1,1.3,0.2h3v1.6h-1.4c0.2,0.3,0.4,0.8,0.4,1.3c0,1.9-1.4,2.8-3.2,2.8
								c-0.3,0-0.7-0.1-1.1-0.2c-0.2,0.2-0.4,0.4-0.4,0.7c0,0.5,0.3,0.7,1.3,0.7h1.4c2,0,3.1,0.6,3.1,2.1c0,1.7-1.8,3-4.6,3
								C156.8,34.6,155.2,34,155.2,32.5z M161.2,32c0-0.6-0.5-0.8-1.4-0.8h-1c-0.5,0-0.9,0-1.2-0.1c-0.4,0.3-0.6,0.6-0.6,1
								c0,0.7,0.8,1.1,2,1.1C160.3,33.2,161.2,32.7,161.2,32z M160.2,25.4c0-1-0.6-1.5-1.3-1.5s-1.3,0.6-1.3,1.5
								c0,1,0.6,1.5,1.3,1.5C159.6,27,160.2,26.4,160.2,25.4z"/>
						</g>
					</g>
					<g transform="translate(376.000000, 0.000000)">
						<path class="st4" d="M8.8,0.8h160.5c4.4,0,8,3.6,8,8v32.5c0,4.4-3.6,8-8,8H8.8c-4.4,0-8-3.6-8-8V8.8C0.8,4.3,4.3,0.8,8.8,0.8z
							"/>
						<g class="st1">
							<path d="M55.3,19.9h2.2V31h-2.2V19.9z"/>
							<path d="M60,22.6h1.8l0.1,1.1H62c0.7-0.7,1.6-1.3,2.7-1.3c1.8,0,2.6,1.3,2.6,3.4V31h-2.2v-5c0-1.3-0.4-1.8-1.2-1.8
								c-0.7,0-1.1,0.3-1.8,0.9V31H60V22.6z"/>
							<path d="M69.1,26.8c0-2.8,2-4.4,4.3-4.4c1,0,1.8,0.4,2.4,0.9l-1,1.4c-0.4-0.4-0.8-0.6-1.3-0.6c-1.3,0-2.1,1-2.1,2.6
								c0,1.6,0.9,2.6,2.1,2.6c0.6,0,1.2-0.3,1.6-0.7l0.9,1.5c-0.8,0.7-1.8,1-2.7,1C70.9,31.2,69.1,29.6,69.1,26.8z"/>
							<path d="M77.3,20.1c0-0.7,0.6-1.2,1.3-1.2c0.8,0,1.3,0.5,1.3,1.2c0,0.7-0.6,1.2-1.3,1.2C77.9,21.2,77.3,20.7,77.3,20.1z
								 M77.6,22.6h2.2V31h-2.2V22.6z"/>
							<path d="M81.6,26.8c0-2.7,1.7-4.4,3.5-4.4c0.9,0,1.5,0.4,2.1,0.9L87.2,22v-3h2.2v12h-1.8l-0.2-0.9h0
								c-0.6,0.6-1.5,1.1-2.3,1.1C83,31.2,81.6,29.6,81.6,26.8z M87.2,28.5v-3.7c-0.5-0.5-1-0.6-1.6-0.6c-0.9,0-1.7,0.9-1.7,2.6
								c0,1.7,0.6,2.6,1.7,2.6C86.2,29.4,86.7,29.2,87.2,28.5z"/>
							<path d="M91.3,26.8c0-2.7,1.9-4.4,3.9-4.4c2.3,0,3.5,1.7,3.5,4c0,0.4,0,0.8-0.1,1h-5.2c0.2,1.4,1.1,2.1,2.3,2.1
								c0.7,0,1.3-0.2,1.9-0.6l0.8,1.4c-0.8,0.6-1.9,0.9-2.9,0.9C93.1,31.2,91.3,29.6,91.3,26.8z M96.8,26c0-1.1-0.5-1.9-1.6-1.9
								c-0.9,0-1.7,0.6-1.8,1.9H96.8z"/>
							<path d="M100.5,22.6h1.8l0.2,1.1h0.1c0.7-0.7,1.6-1.3,2.7-1.3c1.8,0,2.6,1.3,2.6,3.4V31h-2.2v-5c0-1.3-0.4-1.8-1.2-1.8
								c-0.7,0-1.1,0.3-1.8,0.9V31h-2.2V22.6z"/>
							<path d="M109.6,26.8c0-2.8,2-4.4,4.3-4.4c1,0,1.8,0.4,2.4,0.9l-1,1.4c-0.4-0.4-0.8-0.6-1.3-0.6c-1.3,0-2.1,1-2.1,2.6
								c0,1.6,0.9,2.6,2.1,2.6c0.6,0,1.2-0.3,1.6-0.7l0.9,1.5c-0.8,0.7-1.8,1-2.7,1C111.4,31.2,109.6,29.6,109.6,26.8z"/>
							<path d="M117,26.8c0-2.7,1.9-4.4,3.9-4.4c2.3,0,3.5,1.7,3.5,4c0,0.4,0,0.8-0.1,1h-5.2c0.2,1.4,1.1,2.1,2.3,2.1
								c0.7,0,1.3-0.2,1.9-0.6l0.8,1.4c-0.8,0.6-1.9,0.9-2.9,0.9C118.9,31.2,117,29.6,117,26.8z M122.6,26c0-1.1-0.5-1.9-1.6-1.9
								c-0.9,0-1.7,0.6-1.8,1.9H122.6z"/>
						</g>
					</g>
					<g transform="translate(564.000000, 0.000000)">
						<path class="st4" d="M8.8,0.8h160.5c4.4,0,8,3.6,8,8v32.5c0,4.4-3.6,8-8,8H8.8c-4.4,0-8-3.6-8-8V8.8C0.8,4.3,4.3,0.8,8.8,0.8z
							"/>
						<g class="st1">
							<path d="M20.4,31l-2.3-4.2h-1.5V31h-2.2V19.9h3.9c2.3,0,4.2,0.8,4.2,3.4c0,1.7-0.8,2.7-2.1,3.2l2.6,4.5H20.4z M16.6,25H18
								c1.4,0,2.2-0.6,2.2-1.8c0-1.2-0.8-1.6-2.2-1.6h-1.4V25z"/>
							<path d="M23.7,26.8c0-2.7,1.9-4.4,3.9-4.4c2.3,0,3.5,1.7,3.5,4c0,0.4,0,0.8-0.1,1h-5.2c0.2,1.4,1.1,2.1,2.3,2.1
								c0.7,0,1.3-0.2,1.9-0.6l0.8,1.4c-0.8,0.6-1.9,0.9-2.9,0.9C25.5,31.2,23.7,29.6,23.7,26.8z M29.2,26c0-1.1-0.5-1.9-1.6-1.9
								c-0.9,0-1.7,0.6-1.8,1.9H29.2z"/>
							<path d="M32.9,28.6V19h2.2v9.7c0,0.5,0.2,0.7,0.5,0.7c0.1,0,0.1,0,0.3,0l0.3,1.6c-0.3,0.1-0.6,0.2-1.1,0.2
								C33.5,31.2,32.9,30.2,32.9,28.6z"/>
							<path d="M37.3,28.7c0-1.8,1.5-2.7,4.8-3.1c0-0.8-0.4-1.5-1.4-1.5c-0.8,0-1.5,0.3-2.3,0.8l-0.8-1.5c1-0.6,2.2-1.1,3.5-1.1
								c2.1,0,3.2,1.3,3.2,3.7V31h-1.8l-0.2-0.9h0c-0.7,0.6-1.6,1.1-2.5,1.1C38.2,31.2,37.3,30.1,37.3,28.7z M42.1,28.7V27
								c-2,0.3-2.7,0.8-2.7,1.6c0,0.7,0.5,0.9,1.1,0.9C41.1,29.5,41.6,29.2,42.1,28.7z"/>
							<path d="M46.6,28.1v-3.7h-1.2v-1.6l1.3-0.1l0.3-2.2h1.8v2.2h2.1v1.7h-2.1v3.7c0,1,0.4,1.4,1.1,1.4c0.3,0,0.6-0.1,0.8-0.2
								l0.4,1.6c-0.5,0.2-1,0.3-1.8,0.3C47.3,31.2,46.6,30,46.6,28.1z"/>
							<path d="M52.3,20.1c0-0.7,0.6-1.2,1.3-1.2c0.8,0,1.3,0.5,1.3,1.2c0,0.7-0.6,1.2-1.3,1.2C52.9,21.2,52.3,20.7,52.3,20.1z
								 M52.6,22.6h2.2V31h-2.2V22.6z"/>
							<path d="M56.6,26.8c0-2.8,1.9-4.4,4-4.4s4,1.6,4,4.4c0,2.8-1.9,4.4-4,4.4S56.6,29.6,56.6,26.8z M62.4,26.8
								c0-1.6-0.6-2.6-1.8-2.6s-1.8,1-1.8,2.6c0,1.6,0.6,2.6,1.8,2.6S62.4,28.4,62.4,26.8z"/>
							<path d="M66.5,22.6h1.8l0.1,1.1h0.1c0.7-0.7,1.6-1.3,2.7-1.3c1.8,0,2.6,1.3,2.6,3.4V31h-2.2v-5c0-1.3-0.4-1.8-1.2-1.8
								c-0.7,0-1.1,0.3-1.8,0.9V31h-2.2V22.6z"/>
							<path d="M75.3,30l1-1.4c0.8,0.6,1.5,0.9,2.2,0.9c0.8,0,1.2-0.4,1.2-0.9c0-0.6-0.9-0.9-1.8-1.3c-1.1-0.4-2.3-1-2.3-2.4
								c0-1.5,1.2-2.6,3.1-2.6c1.2,0,2.2,0.5,2.9,1l-1,1.3c-0.6-0.4-1.2-0.7-1.8-0.7c-0.8,0-1.1,0.3-1.1,0.8c0,0.6,0.8,0.8,1.7,1.2
								c1.1,0.4,2.3,1,2.3,2.5c0,1.5-1.2,2.7-3.3,2.7C77.4,31.2,76.1,30.7,75.3,30z"/>
							<path d="M83.5,19h2.2v3l-0.1,1.6c0.7-0.6,1.5-1.2,2.6-1.2c1.8,0,2.6,1.3,2.6,3.4V31h-2.2v-5c0-1.3-0.4-1.8-1.2-1.8
								c-0.7,0-1.1,0.3-1.8,0.9V31h-2.2V19z"/>
							<path d="M92.9,20.1c0-0.7,0.6-1.2,1.3-1.2c0.8,0,1.3,0.5,1.3,1.2c0,0.7-0.6,1.2-1.3,1.2C93.5,21.2,92.9,20.7,92.9,20.1z
								 M93.1,22.6h2.2V31h-2.2V22.6z"/>
							<path d="M97.7,22.6h1.8l0.1,0.9h0.1c0.7-0.6,1.6-1.1,2.5-1.1c2.1,0,3.3,1.7,3.3,4.3c0,2.9-1.7,4.5-3.6,4.5
								c-0.7,0-1.4-0.3-2.1-0.9l0.1,1.4v2.5h-2.2V22.6z M103.2,26.7c0-1.6-0.5-2.5-1.7-2.5c-0.6,0-1.1,0.3-1.7,0.9v3.7
								c0.5,0.5,1.1,0.6,1.5,0.6C102.4,29.4,103.2,28.5,103.2,26.7z"/>
							<path d="M111.1,28.1v-3.7h-1.2v-1.6l1.3-0.1l0.3-2.2h1.8v2.2h2.1v1.7h-2.1v3.7c0,1,0.4,1.4,1.1,1.4c0.3,0,0.6-0.1,0.8-0.2
								l0.4,1.6c-0.5,0.2-1,0.3-1.8,0.3C111.8,31.2,111.1,30,111.1,28.1z"/>
							<path d="M116.3,26.8c0-2.8,1.9-4.4,4-4.4c2.1,0,4,1.6,4,4.4c0,2.8-1.9,4.4-4,4.4C118.2,31.2,116.3,29.6,116.3,26.8z
								 M122.1,26.8c0-1.6-0.6-2.6-1.8-2.6c-1.1,0-1.8,1-1.8,2.6c0,1.6,0.6,2.6,1.8,2.6C121.4,29.4,122.1,28.4,122.1,26.8z"/>
							<path d="M129.1,26.8c0-2.7,1.7-4.4,3.5-4.4c0.9,0,1.5,0.4,2.1,0.9l-0.1-1.3v-3h2.2v12h-1.8l-0.2-0.9h0
								c-0.6,0.6-1.5,1.1-2.3,1.1C130.4,31.2,129.1,29.6,129.1,26.8z M134.7,28.5v-3.7c-0.5-0.5-1-0.6-1.6-0.6
								c-0.9,0-1.7,0.9-1.7,2.6c0,1.7,0.6,2.6,1.7,2.6C133.7,29.4,134.2,29.2,134.7,28.5z"/>
							<path d="M139.2,22.6h1.8l0.1,1.5h0.1c0.6-1.1,1.5-1.7,2.4-1.7c0.5,0,0.7,0.1,1,0.2l-0.4,1.9c-0.3-0.1-0.5-0.1-0.9-0.1
								c-0.7,0-1.5,0.4-1.9,1.7v5h-2.2V22.6z"/>
							<path d="M145.7,27.9v-5.2h2.2v5c0,1.3,0.4,1.8,1.2,1.8c0.7,0,1.1-0.3,1.7-1v-5.7h2.2V31h-1.8l-0.2-1.2H151
								c-0.7,0.9-1.5,1.4-2.7,1.4C146.5,31.2,145.7,30,145.7,27.9z"/>
							<path d="M154.8,32.5c0-0.7,0.4-1.3,1.2-1.7v-0.1c-0.4-0.3-0.8-0.7-0.8-1.4c0-0.6,0.4-1.2,0.9-1.6v-0.1
								c-0.6-0.4-1.1-1.2-1.1-2.2c0-2,1.6-3,3.4-3c0.5,0,0.9,0.1,1.3,0.2h3v1.6h-1.4c0.2,0.3,0.4,0.8,0.4,1.3c0,1.9-1.4,2.8-3.2,2.8
								c-0.3,0-0.7-0.1-1.1-0.2c-0.2,0.2-0.4,0.4-0.4,0.7c0,0.5,0.3,0.7,1.3,0.7h1.4c2,0,3.1,0.6,3.1,2.1c0,1.7-1.8,3-4.6,3
								C156.3,34.6,154.8,34,154.8,32.5z M160.7,32c0-0.6-0.5-0.8-1.4-0.8h-1c-0.5,0-0.9,0-1.2-0.1c-0.4,0.3-0.6,0.6-0.6,1
								c0,0.7,0.8,1.1,2,1.1C159.9,33.2,160.7,32.7,160.7,32z M159.7,25.4c0-1-0.6-1.5-1.3-1.5s-1.3,0.6-1.3,1.5
								c0,1,0.6,1.5,1.3,1.5S159.7,26.4,159.7,25.4z"/>
						</g>
					</g>
				</g>
			</g>
		</g>
	</g>
</g>
</svg>
