<?xml version="1.0" encoding="utf-8"?>
<!-- Generator: Adobe Illustrator 23.0.4, SVG Export Plug-In . SVG Version: 6.00 Build 0)  -->
<svg version="1.1" id="레이어_1" xmlns="http://www.w3.org/2000/svg" xmlns:xlink="http://www.w3.org/1999/xlink" x="0px"
	 y="0px" viewBox="0 0 164 20" style="enable-background:new 0 0 164 20;" xml:space="preserve">
<style type="text/css">
	.st0{fill-rule:evenodd;clip-rule:evenodd;fill:#595757;}
	.st1{fill-rule:evenodd;clip-rule:evenodd;fill:#E50113;}
	.st2{fill-rule:evenodd;clip-rule:evenodd;fill:#B4B5B5;}
</style>
<title>Group 14</title>
<desc>Created with Sketch.</desc>
<g id="Page-1">
	<g transform="translate(-141.000000, -38.000000)">
		<g id="Group-14" transform="translate(141.000000, 38.000000)">
			<polygon id="Fill-1" class="st0" points="13.1,0 13.1,7.4 6.1,7.4 6.1,0 0,0 0,19.8 6.1,19.8 6.1,12.5 13.1,12.5 13.1,19.8 
				19.2,19.8 19.2,0 			"/>
			<polygon id="Fill-2" class="st0" points="22.2,0 22.2,19.8 39.2,19.8 39.2,15.2 28.2,15.2 28.2,12.3 38.7,12.3 38.7,7.5 
				28.2,7.5 28.2,4.7 39.1,4.7 39.1,0 			"/>
			<polygon id="Fill-3" class="st0" points="41.6,0 41.6,19.8 57.3,19.8 57.3,14.9 47.8,14.9 47.8,0 			"/>
			<polygon id="Fill-4" class="st0" points="59.1,19.8 65.4,19.8 65.4,0 59.1,0 			"/>
			<polygon id="Fill-5" class="st0" points="105.5,0 101.4,11.9 97.7,0 89.5,0 89.5,19.8 95.2,19.8 95.2,8.6 98.8,19.8 104,19.8 
				107.6,8.6 107.6,19.8 113.3,19.8 113.3,0 			"/>
			<polygon id="Fill-6" class="st0" points="116.2,19.8 122.5,19.8 122.5,0 116.2,0 			"/>
			<polygon id="Fill-7" class="st0" points="124,0 124,4.8 130.3,4.8 130.3,19.8 136.5,19.8 136.5,4.8 142.9,4.8 142.9,0 			"/>
			<polygon id="Fill-8" class="st0" points="157.6,0 157.6,7.4 150.6,7.4 150.6,0 144.5,0 144.5,19.8 150.6,19.8 150.6,12.5 
				157.6,12.5 157.6,19.8 163.7,19.8 163.7,0 			"/>
			<polygon id="Fill-9" class="st1" points="82.3,0.1 82.3,5.9 77.4,7.9 72.6,5.9 72.6,0.1 68,0.1 68,8 72.6,9.9 68,11.8 68,19.8 
				72.6,19.8 72.6,13.9 77.4,11.9 82.3,13.9 82.3,19.8 86.9,19.8 86.9,11.8 82.3,9.9 86.9,8 86.9,0.1 			"/>
			<polygon id="Fill-10" class="st2" points="72.9,2.7 82,2.7 82,1.6 72.9,1.6 			"/>
			<polygon id="Fill-11" class="st2" points="72.9,4.9 82,4.9 82,3.8 72.9,3.8 			"/>
			<polygon id="Fill-12" class="st2" points="72.9,15.8 82,15.8 82,14.8 72.9,14.8 			"/>
			<polygon id="Fill-13" class="st2" points="72.9,18 82,18 82,17 72.9,17 			"/>
		</g>
	</g>
</g>
</svg>
