<?xml version="1.0" encoding="utf-8"?>
<!-- Generator: Adobe Illustrator 23.0.6, SVG Export Plug-In . SVG Version: 6.00 Build 0)  -->
<svg version="1.1" id="Layer_1" xmlns="http://www.w3.org/2000/svg" xmlns:xlink="http://www.w3.org/1999/xlink" x="0px" y="0px"
	 viewBox="0 0 336 482" style="enable-background:new 0 0 336 482;" xml:space="preserve">
<style type="text/css">
	.st0{fill-rule:evenodd;clip-rule:evenodd;}
	.st1{enable-background:new    ;}
	.st2{fill:#FFFFFF;}
	.st3{font-family:'NotoSansKR-Medium-KSCpc-EUC-H';}
	.st4{font-size:15px;}
	.st5{fill:none;stroke:#979797;stroke-linecap:square;}
</style>
<title>table3</title>
<desc>Created with Sketch.</desc>
<g id="Page-1">
	<g id="mobile1" transform="translate(-19.000000, -2191.000000)">
		<g id="table3" transform="translate(20.000000, 2191.000000)">
			<g id="table1">
				<g id="cell1">
					<g>
						<path id="bg" class="st0" d="M8,0h318c4.4,0,8,3.6,8,8v34c0,4.4-3.6,8-8,8H8c-4.4,0-8-3.6-8-8V8C0,3.6,3.6,0,8,0z"/>
						<g class="st1">
							<path class="st2" d="M136.4,19.9h3.6c2.5,0,4.3,0.9,4.3,3.5c0,2.5-1.9,3.7-4.3,3.7h-1.5V31h-2.2V19.9z M139.9,25.3
								c1.5,0,2.3-0.6,2.3-1.9c0-1.3-0.8-1.7-2.3-1.7h-1.3v3.6H139.9z"/>
							<path class="st2" d="M146.2,22.6h1.8l0.1,1.5h0.1c0.6-1.1,1.5-1.7,2.4-1.7c0.5,0,0.7,0.1,1,0.2l-0.4,1.9
								c-0.3-0.1-0.5-0.1-0.9-0.1c-0.7,0-1.5,0.4-1.9,1.7v5h-2.2V22.6z"/>
							<path class="st2" d="M152,26.8c0-2.8,1.9-4.4,4-4.4s4,1.6,4,4.4c0,2.8-1.9,4.4-4,4.4S152,29.6,152,26.8z M157.8,26.8
								c0-1.6-0.6-2.6-1.8-2.6s-1.8,1-1.8,2.6c0,1.6,0.6,2.6,1.8,2.6S157.8,28.4,157.8,26.8z"/>
							<path class="st2" d="M161.4,32.5c0-0.7,0.4-1.3,1.2-1.7v-0.1c-0.4-0.3-0.8-0.7-0.8-1.4c0-0.6,0.4-1.2,0.9-1.6v-0.1
								c-0.6-0.4-1.1-1.2-1.1-2.2c0-2,1.6-3,3.4-3c0.5,0,0.9,0.1,1.3,0.2h3v1.6h-1.4c0.2,0.3,0.4,0.8,0.4,1.3c0,1.9-1.4,2.8-3.2,2.8
								c-0.3,0-0.7-0.1-1.1-0.2c-0.2,0.2-0.4,0.4-0.4,0.7c0,0.5,0.3,0.7,1.3,0.7h1.4c2,0,3.1,0.6,3.1,2.1c0,1.7-1.8,3-4.6,3
								C162.9,34.6,161.4,34,161.4,32.5z M167.4,32c0-0.6-0.5-0.8-1.4-0.8h-1c-0.5,0-0.9,0-1.2-0.1c-0.4,0.3-0.6,0.6-0.6,1
								c0,0.7,0.8,1.1,2,1.1C166.5,33.2,167.4,32.7,167.4,32z M166.3,25.4c0-1-0.6-1.5-1.3-1.5s-1.3,0.6-1.3,1.5
								c0,1,0.6,1.5,1.3,1.5S166.3,26.4,166.3,25.4z"/>
							<path class="st2" d="M170.9,22.6h1.8l0.1,1.5h0.1c0.6-1.1,1.5-1.7,2.4-1.7c0.5,0,0.7,0.1,1,0.2l-0.4,1.9
								c-0.3-0.1-0.5-0.1-0.9-0.1c-0.7,0-1.5,0.4-1.9,1.7v5h-2.2V22.6z"/>
							<path class="st2" d="M176.5,28.7c0-1.8,1.5-2.7,4.8-3.1c0-0.8-0.4-1.5-1.4-1.5c-0.8,0-1.5,0.3-2.3,0.8l-0.8-1.5
								c1-0.6,2.2-1.1,3.5-1.1c2.1,0,3.2,1.3,3.2,3.7V31h-1.8l-0.2-0.9h0c-0.7,0.6-1.6,1.1-2.5,1.1
								C177.5,31.2,176.5,30.1,176.5,28.7z M181.4,28.7V27c-2,0.3-2.7,0.8-2.7,1.6c0,0.7,0.5,0.9,1.1,0.9
								C180.4,29.5,180.9,29.2,181.4,28.7z"/>
							<path class="st2" d="M185.8,22.6h1.8l0.1,1.1h0.1c0.7-0.7,1.5-1.3,2.6-1.3c1.2,0,1.9,0.5,2.3,1.5c0.8-0.8,1.6-1.5,2.7-1.5
								c1.8,0,2.6,1.3,2.6,3.4V31h-2.2v-5c0-1.3-0.4-1.8-1.2-1.8c-0.5,0-1,0.3-1.6,0.9V31h-2.2v-5c0-1.3-0.4-1.8-1.2-1.8
								c-0.5,0-1,0.3-1.6,0.9V31h-2.2V22.6z"/>
						</g>
					</g>
					<g transform="translate(0.000000, 102.000000)">
						<path class="st0" d="M8,0h318c4.4,0,8,3.6,8,8v34c0,4.4-3.6,8-8,8H8c-4.4,0-8-3.6-8-8V8C0,3.6,3.6,0,8,0z"/>
						<g class="st1">
							<path class="st2" d="M107.6,21.7h-3.1v-1.8h8.5v1.8h-3.1V31h-2.2V21.7z"/>
							<path class="st2" d="M114.6,19h2.2v3l-0.1,1.6c0.7-0.6,1.5-1.2,2.6-1.2c1.8,0,2.6,1.3,2.6,3.4V31h-2.2v-5
								c0-1.3-0.4-1.8-1.2-1.8c-0.7,0-1.1,0.3-1.8,0.9V31h-2.2V19z"/>
							<path class="st2" d="M123.6,26.8c0-2.7,1.9-4.4,3.9-4.4c2.3,0,3.5,1.7,3.5,4c0,0.4,0,0.8-0.1,1h-5.2c0.2,1.4,1.1,2.1,2.3,2.1
								c0.7,0,1.3-0.2,1.9-0.6l0.8,1.4c-0.8,0.6-1.9,0.9-2.9,0.9C125.5,31.2,123.6,29.6,123.6,26.8z M129.2,26
								c0-1.1-0.5-1.9-1.6-1.9c-0.9,0-1.7,0.6-1.8,1.9H129.2z"/>
							<path class="st2" d="M132.9,22.6h1.8l0.1,1.5h0.1c0.6-1.1,1.5-1.7,2.4-1.7c0.5,0,0.7,0.1,1,0.2l-0.4,1.9
								c-0.3-0.1-0.5-0.1-0.9-0.1c-0.7,0-1.5,0.4-1.9,1.7v5h-2.2V22.6z"/>
							<path class="st2" d="M138.5,28.7c0-1.8,1.5-2.7,4.8-3.1c0-0.8-0.4-1.5-1.4-1.5c-0.8,0-1.5,0.3-2.3,0.8l-0.8-1.5
								c1-0.6,2.2-1.1,3.5-1.1c2.1,0,3.2,1.3,3.2,3.7V31h-1.8l-0.2-0.9h0c-0.7,0.6-1.6,1.1-2.5,1.1
								C139.5,31.2,138.5,30.1,138.5,28.7z M143.4,28.7V27c-2,0.3-2.7,0.8-2.7,1.6c0,0.7,0.5,0.9,1.1,0.9
								C142.4,29.5,142.8,29.2,143.4,28.7z"/>
							<path class="st2" d="M147.8,22.6h1.8l0.1,0.9h0.1c0.7-0.6,1.6-1.1,2.5-1.1c2.1,0,3.3,1.7,3.3,4.3c0,2.9-1.7,4.5-3.6,4.5
								c-0.7,0-1.4-0.3-2.1-0.9l0.1,1.4v2.5h-2.2V22.6z M153.3,26.7c0-1.6-0.5-2.5-1.7-2.5c-0.6,0-1.1,0.3-1.7,0.9v3.7
								c0.5,0.5,1.1,0.6,1.5,0.6C152.6,29.4,153.3,28.5,153.3,26.7z"/>
							<path class="st2" d="M156.9,26.8c0-2.7,1.9-4.4,3.9-4.4c2.3,0,3.5,1.7,3.5,4c0,0.4,0,0.8-0.1,1h-5.2c0.2,1.4,1.1,2.1,2.3,2.1
								c0.7,0,1.3-0.2,1.9-0.6l0.8,1.4c-0.8,0.6-1.9,0.9-2.9,0.9C158.8,31.2,156.9,29.6,156.9,26.8z M162.5,26
								c0-1.1-0.5-1.9-1.6-1.9c-0.9,0-1.7,0.6-1.8,1.9H162.5z"/>
							<path class="st2" d="M166.1,27.9v-5.2h2.2v5c0,1.3,0.4,1.8,1.2,1.8c0.7,0,1.1-0.3,1.7-1v-5.7h2.2V31h-1.8l-0.2-1.2h-0.1
								c-0.7,0.9-1.5,1.4-2.7,1.4C166.9,31.2,166.1,30,166.1,27.9z"/>
							<path class="st2" d="M176.1,28.1v-3.7h-1.2v-1.6l1.3-0.1l0.3-2.2h1.8v2.2h2.1v1.7h-2.1v3.7c0,1,0.4,1.4,1.1,1.4
								c0.3,0,0.6-0.1,0.8-0.2l0.4,1.6c-0.5,0.2-1,0.3-1.8,0.3C176.8,31.2,176.1,30,176.1,28.1z"/>
							<path class="st2" d="M181.8,20.1c0-0.7,0.6-1.2,1.3-1.2c0.8,0,1.3,0.5,1.3,1.2c0,0.7-0.6,1.2-1.3,1.2
								C182.4,21.2,181.8,20.7,181.8,20.1z M182,22.6h2.2V31H182V22.6z"/>
							<path class="st2" d="M186.1,26.8c0-2.8,2-4.4,4.3-4.4c1,0,1.8,0.4,2.4,0.9l-1.1,1.4c-0.4-0.4-0.8-0.6-1.3-0.6
								c-1.3,0-2.1,1-2.1,2.6c0,1.6,0.9,2.6,2.1,2.6c0.6,0,1.2-0.3,1.6-0.7l0.9,1.5c-0.8,0.7-1.8,1-2.7,1
								C187.8,31.2,186.1,29.6,186.1,26.8z"/>
							<path class="st2" d="M203.3,28.2h-3.6l-0.8,2.8h-2.2l3.6-11.1h2.6l3.6,11.1h-2.3L203.3,28.2z M202.8,26.4l-0.3-1.2
								c-0.3-1.2-0.6-2.4-1-3.6h-0.1c-0.3,1.2-0.6,2.5-0.9,3.6l-0.3,1.2H202.8z"/>
							<path class="st2" d="M207.5,22.6h1.8l0.2,1.5h0.1c0.6-1.1,1.5-1.7,2.4-1.7c0.5,0,0.7,0.1,1,0.2l-0.4,1.9
								c-0.3-0.1-0.5-0.1-0.9-0.1c-0.7,0-1.5,0.4-1.9,1.7v5h-2.2V22.6z"/>
							<path class="st2" d="M213.4,26.8c0-2.7,1.9-4.4,3.9-4.4c2.3,0,3.5,1.7,3.5,4c0,0.4,0,0.8-0.1,1h-5.2c0.2,1.4,1.1,2.1,2.3,2.1
								c0.7,0,1.3-0.2,1.9-0.6l0.8,1.4c-0.8,0.6-1.9,0.9-2.9,0.9C215.2,31.2,213.4,29.6,213.4,26.8z M218.9,26
								c0-1.1-0.5-1.9-1.6-1.9c-0.9,0-1.7,0.6-1.8,1.9H218.9z"/>
							<path class="st2" d="M222,28.7c0-1.8,1.5-2.7,4.8-3.1c0-0.8-0.4-1.5-1.4-1.5c-0.8,0-1.5,0.3-2.3,0.8l-0.8-1.5
								c1-0.6,2.2-1.1,3.5-1.1c2.1,0,3.2,1.3,3.2,3.7V31h-1.8l-0.2-0.9h0c-0.7,0.6-1.6,1.1-2.5,1.1C223,31.2,222,30.1,222,28.7z
								 M226.8,28.7V27c-2,0.3-2.7,0.8-2.7,1.6c0,0.7,0.5,0.9,1.1,0.9C225.8,29.5,226.3,29.2,226.8,28.7z"/>
						</g>
					</g>
					<g class="st1">
						<path d="M77.3,173h3.4c2.3,0,3.9,0.7,3.9,2.7c0,1-0.6,2.1-1.6,2.4v0.1c1.3,0.3,2.2,1.1,2.2,2.6c0,2.2-1.8,3.2-4.2,3.2h-3.7
							V173z M80.6,177.6c1.7,0,2.4-0.6,2.4-1.7c0-1.2-0.8-1.6-2.3-1.6h-1.5v3.3H80.6z M80.8,182.6c1.7,0,2.7-0.6,2.7-2
							c0-1.2-1-1.8-2.7-1.8h-1.8v3.8H80.8z"/>
						<path d="M87.2,175.8h1.4l0.1,1.5h0c0.6-1.1,1.5-1.7,2.3-1.7c0.4,0,0.7,0.1,0.9,0.2l-0.3,1.5c-0.3-0.1-0.5-0.1-0.8-0.1
							c-0.7,0-1.5,0.5-2,1.8v5.1h-1.7V175.8z"/>
						<path d="M92.6,179.9c0-2.7,1.8-4.4,3.8-4.4c2.2,0,3.4,1.6,3.4,3.9c0,0.3,0,0.7-0.1,0.9h-5.4c0.1,1.6,1.1,2.5,2.5,2.5
							c0.7,0,1.4-0.2,2-0.6l0.6,1.1c-0.8,0.5-1.7,0.9-2.8,0.9C94.4,184.2,92.6,182.6,92.6,179.9z M98.2,179.1c0-1.4-0.6-2.2-1.8-2.2
							c-1,0-1.9,0.8-2.1,2.2H98.2z"/>
						<path d="M100.9,181.8c0-1.8,1.5-2.7,4.9-3.1c0-1-0.4-1.8-1.6-1.8c-0.9,0-1.7,0.4-2.4,0.8l-0.6-1.2c0.9-0.5,2-1.1,3.3-1.1
							c2.1,0,3,1.3,3,3.5v5h-1.4l-0.1-0.9h0c-0.8,0.6-1.6,1.1-2.6,1.1C101.9,184.2,100.9,183.3,100.9,181.8z M105.9,181.9v-2
							c-2.4,0.3-3.3,0.9-3.3,1.8c0,0.8,0.6,1.1,1.3,1.1C104.6,182.8,105.2,182.5,105.9,181.9z"/>
						<path d="M109.2,183.1l0.8-1.1c0.7,0.6,1.5,0.9,2.3,0.9c1,0,1.5-0.5,1.5-1.1c0-0.8-0.9-1.1-1.8-1.4c-1.1-0.4-2.4-1-2.4-2.4
							c0-1.4,1.1-2.4,2.9-2.4c1.1,0,2,0.5,2.7,1l-0.8,1.1c-0.6-0.4-1.2-0.7-1.8-0.7c-0.9,0-1.3,0.5-1.3,1c0,0.7,0.9,1,1.8,1.3
							c1.2,0.4,2.4,0.9,2.4,2.5c0,1.4-1.1,2.5-3.1,2.5C111.1,184.2,110,183.7,109.2,183.1z"/>
						<path d="M117.2,181.3v-4.2H116v-1.3l1.3-0.1l0.2-2.3h1.5v2.3h2.1v1.4h-2.1v4.2c0,1,0.3,1.5,1.2,1.5c0.3,0,0.6-0.1,0.9-0.2
							l0.3,1.3c-0.5,0.2-1,0.3-1.6,0.3C117.8,184.2,117.2,183,117.2,181.3z"/>
						<path d="M125.6,179.9c0-2.8,1.9-4.4,4.1-4.4c1,0,1.8,0.4,2.4,0.9l-0.9,1.1c-0.5-0.4-0.9-0.6-1.5-0.6c-1.4,0-2.4,1.2-2.4,2.9
							c0,1.7,0.9,2.9,2.3,2.9c0.7,0,1.3-0.3,1.8-0.8l0.7,1.1c-0.7,0.7-1.7,1-2.7,1C127.3,184.2,125.6,182.6,125.6,179.9z"/>
						<path d="M133.3,181.8c0-1.8,1.5-2.7,4.9-3.1c0-1-0.4-1.8-1.6-1.8c-0.9,0-1.7,0.4-2.4,0.8l-0.6-1.2c0.9-0.5,2-1.1,3.3-1.1
							c2.1,0,3,1.3,3,3.5v5h-1.4l-0.1-0.9h0c-0.8,0.6-1.6,1.1-2.6,1.1C134.3,184.2,133.3,183.3,133.3,181.8z M138.3,181.9v-2
							c-2.4,0.3-3.3,0.9-3.3,1.8c0,0.8,0.6,1.1,1.3,1.1C137,182.8,137.6,182.5,138.3,181.9z"/>
						<path d="M142.4,175.8h1.4l0.1,1.1h0c0.8-0.7,1.6-1.4,2.7-1.4c1.8,0,2.5,1.2,2.5,3.3v5.2h-1.7v-5c0-1.4-0.4-2-1.4-2
							c-0.8,0-1.3,0.4-2,1.1v5.8h-1.7V175.8z"/>
						<path d="M151.2,179.9c0-2.8,1.9-4.4,4.1-4.4c1,0,1.8,0.4,2.4,0.9l-0.9,1.1c-0.5-0.4-0.9-0.6-1.5-0.6c-1.4,0-2.4,1.2-2.4,2.9
							c0,1.7,0.9,2.9,2.3,2.9c0.7,0,1.3-0.3,1.8-0.8l0.7,1.1c-0.7,0.7-1.7,1-2.7,1C152.9,184.2,151.2,182.6,151.2,179.9z"/>
						<path d="M158.6,179.9c0-2.7,1.8-4.4,3.8-4.4c2.2,0,3.4,1.6,3.4,3.9c0,0.3,0,0.7-0.1,0.9h-5.4c0.1,1.6,1.1,2.5,2.5,2.5
							c0.7,0,1.4-0.2,2-0.6l0.6,1.1c-0.8,0.5-1.7,0.9-2.8,0.9C160.4,184.2,158.6,182.6,158.6,179.9z M164.2,179.1
							c0-1.4-0.6-2.2-1.8-2.2c-1,0-1.9,0.8-2.1,2.2H164.2z"/>
						<path d="M167.6,175.8h1.4l0.1,1.5h0c0.6-1.1,1.5-1.7,2.3-1.7c0.4,0,0.7,0.1,0.9,0.2l-0.3,1.5c-0.3-0.1-0.5-0.1-0.8-0.1
							c-0.7,0-1.5,0.5-2,1.8v5.1h-1.7V175.8z"/>
						<path d="M177.4,181.3v-4.2h-1.2v-1.3l1.3-0.1l0.2-2.3h1.5v2.3h2.1v1.4h-2.1v4.2c0,1,0.3,1.5,1.2,1.5c0.3,0,0.6-0.1,0.9-0.2
							l0.3,1.3c-0.5,0.2-1,0.3-1.6,0.3C178.1,184.2,177.4,183,177.4,181.3z"/>
						<path d="M183.1,172h1.7v3.2l-0.1,1.6c0.7-0.7,1.5-1.3,2.7-1.3c1.8,0,2.5,1.2,2.5,3.3v5.2h-1.7v-5c0-1.4-0.4-2-1.4-2
							c-0.8,0-1.3,0.4-2,1.1v5.8h-1.7V172z"/>
						<path d="M191.8,179.9c0-2.7,1.8-4.4,3.8-4.4c2.2,0,3.4,1.6,3.4,3.9c0,0.3,0,0.7-0.1,0.9h-5.4c0.1,1.6,1.1,2.5,2.5,2.5
							c0.7,0,1.4-0.2,2-0.6l0.6,1.1c-0.8,0.5-1.7,0.9-2.8,0.9C193.6,184.2,191.8,182.6,191.8,179.9z M197.4,179.1
							c0-1.4-0.6-2.2-1.8-2.2c-1,0-2,0.8-2.1,2.2H197.4z"/>
						<path d="M200.9,175.8h1.4l0.1,1.5h0c0.6-1.1,1.5-1.7,2.3-1.7c0.4,0,0.7,0.1,0.9,0.2l-0.3,1.5c-0.3-0.1-0.5-0.1-0.8-0.1
							c-0.7,0-1.5,0.5-2,1.8v5.1h-1.7V175.8z"/>
						<path d="M206.1,181.8c0-1.8,1.5-2.7,4.9-3.1c0-1-0.4-1.8-1.6-1.8c-0.9,0-1.7,0.4-2.4,0.8l-0.6-1.2c0.9-0.5,2-1.1,3.3-1.1
							c2.1,0,3,1.3,3,3.5v5h-1.4l-0.2-0.9h0c-0.8,0.6-1.6,1.1-2.6,1.1C207.1,184.2,206.1,183.3,206.1,181.8z M211,181.9v-2
							c-2.4,0.3-3.3,0.9-3.3,1.8c0,0.8,0.6,1.1,1.3,1.1C209.8,182.8,210.4,182.5,211,181.9z"/>
						<path d="M215.2,175.8h1.4l0.1,0.9h0c0.7-0.6,1.6-1.1,2.5-1.1c2.1,0,3.3,1.7,3.3,4.2c0,2.8-1.7,4.5-3.6,4.5
							c-0.7,0-1.5-0.3-2.2-0.9l0,1.4v2.7h-1.7V175.8z M220.8,179.8c0-1.7-0.6-2.8-1.9-2.8c-0.6,0-1.3,0.3-2,1v4
							c0.6,0.6,1.3,0.8,1.8,0.8C219.9,182.8,220.8,181.7,220.8,179.8z"/>
						<path d="M224.1,179.9c0-2.7,1.8-4.4,3.8-4.4c2.2,0,3.4,1.6,3.4,3.9c0,0.3,0,0.7-0.1,0.9h-5.4c0.1,1.6,1.1,2.5,2.5,2.5
							c0.7,0,1.4-0.2,2-0.6l0.6,1.1c-0.8,0.5-1.7,0.9-2.8,0.9C225.9,184.2,224.1,182.6,224.1,179.9z M229.7,179.1
							c0-1.4-0.6-2.2-1.8-2.2c-1,0-2,0.8-2.1,2.2H229.7z"/>
						<path d="M233,180.9v-5.2h1.7v5c0,1.4,0.4,2,1.4,2c0.8,0,1.3-0.4,2-1.2v-5.7h1.7v8.2h-1.4l-0.1-1.2h0c-0.8,0.9-1.6,1.4-2.7,1.4
							C233.8,184.2,233,183,233,180.9z"/>
						<path d="M242.7,181.3v-4.2h-1.2v-1.3l1.3-0.1l0.2-2.3h1.5v2.3h2.1v1.4h-2.1v4.2c0,1,0.3,1.5,1.2,1.5c0.3,0,0.6-0.1,0.9-0.2
							l0.3,1.3c-0.5,0.2-1,0.3-1.6,0.3C243.3,184.2,242.7,183,242.7,181.3z"/>
						<path d="M248.1,173.2c0-0.6,0.5-1,1.1-1s1.1,0.4,1.1,1c0,0.6-0.5,1-1.1,1S248.1,173.8,248.1,173.2z M248.4,175.8h1.7v8.2h-1.7
							V175.8z"/>
						<path d="M252.1,179.9c0-2.8,1.9-4.4,4.1-4.4c1,0,1.8,0.4,2.4,0.9l-0.9,1.1c-0.5-0.4-0.9-0.6-1.5-0.6c-1.4,0-2.4,1.2-2.4,2.9
							c0,1.7,0.9,2.9,2.3,2.9c0.7,0,1.3-0.3,1.8-0.8l0.7,1.1c-0.7,0.7-1.7,1-2.7,1C253.8,184.2,252.1,182.6,252.1,179.9z"/>
					</g>
					<text transform="matrix(1 0 0 1 259.1259 184)" class="st3 st4"> </text>
					<g class="st1">
						<path d="M115.9,201.9c0-2.8,1.9-4.4,4.1-4.4c1,0,1.8,0.4,2.4,0.9l-0.9,1.1c-0.5-0.4-0.9-0.6-1.5-0.6c-1.4,0-2.4,1.2-2.4,2.9
							c0,1.7,0.9,2.9,2.3,2.9c0.7,0,1.3-0.3,1.8-0.8l0.7,1.1c-0.7,0.7-1.7,1-2.7,1C117.6,206.2,115.9,204.6,115.9,201.9z"/>
						<path d="M123.6,203.8c0-1.8,1.5-2.7,4.9-3.1c0-1-0.4-1.8-1.6-1.8c-0.9,0-1.7,0.4-2.4,0.8l-0.6-1.2c0.9-0.5,2-1.1,3.3-1.1
							c2.1,0,3,1.3,3,3.5v5h-1.4l-0.1-0.9h0c-0.8,0.6-1.6,1.1-2.6,1.1C124.6,206.2,123.6,205.3,123.6,203.8z M128.5,203.9v-2
							c-2.4,0.3-3.3,0.9-3.3,1.8c0,0.8,0.6,1.1,1.3,1.1C127.3,204.8,127.8,204.5,128.5,203.9z"/>
						<path d="M132.7,197.8h1.4l0.1,1.1h0c0.8-0.7,1.6-1.4,2.7-1.4c1.8,0,2.5,1.2,2.5,3.3v5.2h-1.7v-5c0-1.4-0.4-2-1.4-2
							c-0.8,0-1.3,0.4-2,1.1v5.8h-1.7V197.8z"/>
						<path d="M141.5,201.9c0-2.8,1.9-4.4,4.1-4.4c1,0,1.8,0.4,2.4,0.9l-0.9,1.1c-0.5-0.4-0.9-0.6-1.5-0.6c-1.4,0-2.4,1.2-2.4,2.9
							c0,1.7,0.9,2.9,2.3,2.9c0.7,0,1.3-0.3,1.8-0.8l0.7,1.1c-0.7,0.7-1.7,1-2.7,1C143.2,206.2,141.5,204.6,141.5,201.9z"/>
						<path d="M148.8,201.9c0-2.7,1.8-4.4,3.8-4.4c2.2,0,3.4,1.6,3.4,3.9c0,0.3,0,0.7-0.1,0.9h-5.4c0.1,1.6,1.1,2.5,2.5,2.5
							c0.7,0,1.4-0.2,2-0.6l0.6,1.1c-0.8,0.5-1.7,0.9-2.8,0.9C150.6,206.2,148.8,204.6,148.8,201.9z M154.5,201.1
							c0-1.4-0.6-2.2-1.8-2.2c-1,0-1.9,0.8-2.1,2.2H154.5z"/>
						<path d="M157.9,197.8h1.4l0.1,1.5h0c0.6-1.1,1.5-1.7,2.3-1.7c0.4,0,0.7,0.1,0.9,0.2l-0.3,1.5c-0.3-0.1-0.5-0.1-0.8-0.1
							c-0.7,0-1.5,0.5-2,1.8v5.1h-1.7V197.8z"/>
						<path d="M166.3,197.8h1.8l1.4,4.4c0.2,0.8,0.5,1.6,0.7,2.5h0.1c0.2-0.8,0.5-1.7,0.7-2.5l1.4-4.4h1.7l-2.9,8.2h-2L166.3,197.8z
							"/>
						<path d="M174.8,203.8c0-1.8,1.5-2.7,4.9-3.1c0-1-0.4-1.8-1.6-1.8c-0.9,0-1.7,0.4-2.4,0.8l-0.6-1.2c0.9-0.5,2-1.1,3.3-1.1
							c2.1,0,3,1.3,3,3.5v5H180l-0.2-0.9h0c-0.8,0.6-1.6,1.1-2.6,1.1C175.8,206.2,174.8,205.3,174.8,203.8z M179.7,203.9v-2
							c-2.4,0.3-3.3,0.9-3.3,1.8c0,0.8,0.6,1.1,1.3,1.1C178.4,204.8,179,204.5,179.7,203.9z"/>
						<path d="M183.3,201.9c0-2.8,1.9-4.4,4.1-4.4c1,0,1.8,0.4,2.4,0.9l-0.9,1.1c-0.5-0.4-0.9-0.6-1.5-0.6c-1.4,0-2.4,1.2-2.4,2.9
							c0,1.7,0.9,2.9,2.3,2.9c0.7,0,1.3-0.3,1.8-0.8l0.7,1.1c-0.8,0.7-1.7,1-2.7,1C185,206.2,183.3,204.6,183.3,201.9z"/>
						<path d="M190.7,201.9c0-2.8,1.9-4.4,4.1-4.4c1,0,1.8,0.4,2.4,0.9l-0.9,1.1c-0.5-0.4-0.9-0.6-1.5-0.6c-1.4,0-2.4,1.2-2.4,2.9
							c0,1.7,0.9,2.9,2.3,2.9c0.7,0,1.3-0.3,1.8-0.8l0.7,1.1c-0.8,0.7-1.7,1-2.7,1C192.4,206.2,190.7,204.6,190.7,201.9z"/>
						<path d="M198.8,195.2c0-0.6,0.5-1,1.1-1s1.1,0.4,1.1,1c0,0.6-0.5,1-1.1,1S198.8,195.8,198.8,195.2z M199,197.8h1.7v8.2H199
							V197.8z"/>
						<path d="M203.3,197.8h1.4l0.1,1.1h0c0.8-0.7,1.6-1.4,2.7-1.4c1.8,0,2.5,1.2,2.5,3.3v5.2h-1.7v-5c0-1.4-0.4-2-1.4-2
							c-0.8,0-1.3,0.4-2,1.1v5.8h-1.7V197.8z"/>
						<path d="M212.1,201.9c0-2.7,1.8-4.4,3.8-4.4c2.2,0,3.4,1.6,3.4,3.9c0,0.3,0,0.7-0.1,0.9h-5.4c0.1,1.6,1.1,2.5,2.5,2.5
							c0.7,0,1.4-0.2,2-0.6l0.6,1.1c-0.8,0.5-1.7,0.9-2.8,0.9C213.9,206.2,212.1,204.6,212.1,201.9z M217.7,201.1
							c0-1.4-0.6-2.2-1.8-2.2c-1,0-2,0.8-2.1,2.2H217.7z"/>
					</g>
					<g class="st1">
						<path d="M143.1,70.9h2.3l1.5,5.4c0.3,1.2,0.6,2.3,0.9,3.6h0.1c0.3-1.2,0.6-2.4,0.9-3.6l1.4-5.4h2.2L149.2,82h-2.6L143.1,70.9z
							"/>
						<path d="M153.8,70.9h2.5l1.9,5.2c0.2,0.7,0.4,1.4,0.7,2.1h0.1c0.2-0.7,0.4-1.5,0.7-2.1l1.8-5.2h2.5V82h-2v-4.6
							c0-1,0.2-2.6,0.3-3.6h-0.1l-0.9,2.6l-1.7,4.7h-1.3l-1.7-4.7l-0.9-2.6h-0.1c0.1,1,0.3,2.6,0.3,3.6V82h-2V70.9z"/>
						<path d="M165.9,80.7c3-2.7,4.8-4.8,4.8-6.5c0-1.1-0.6-1.8-1.7-1.8c-0.8,0-1.5,0.5-2,1.1l-1.2-1.2c1-1.1,2-1.7,3.5-1.7
							c2.1,0,3.5,1.3,3.5,3.4c0,2-1.7,4.2-3.7,6.1c0.6-0.1,1.3-0.1,1.8-0.1h2.4V82h-7.4V80.7z"/>
						<path d="M174.8,76.4c0-3.8,1.5-5.7,3.8-5.7c2.2,0,3.8,1.9,3.8,5.7s-1.5,5.8-3.8,5.8C176.3,82.2,174.8,80.2,174.8,76.4z
							 M180.2,76.4c0-3.1-0.7-4-1.7-4c-1,0-1.7,0.9-1.7,4c0,3.1,0.7,4.1,1.7,4.1C179.5,80.5,180.2,79.5,180.2,76.4z"/>
						<path d="M189.8,73.3c-0.4-0.5-1.1-0.8-1.7-0.8c-1.3,0-2.3,1-2.4,3.7c0.6-0.7,1.6-1.2,2.3-1.2c1.9,0,3.2,1.1,3.2,3.5
							c0,2.3-1.6,3.7-3.5,3.7c-2.1,0-4-1.7-4-5.6c0-4.1,2.1-5.9,4.3-5.9c1.4,0,2.3,0.6,3,1.3L189.8,73.3z M189.2,78.5
							c0-1.3-0.6-1.9-1.6-1.9c-0.6,0-1.3,0.3-1.8,1.2c0.2,2,1,2.8,1.9,2.8C188.5,80.5,189.2,79.9,189.2,78.5z"/>
					</g>
					<path id="divider" class="st5" d="M0,241h334"/>
				</g>
				<g id="cell2" transform="translate(0.000000, 272.000000)">
					<g>
						<path class="st0" d="M8,0h318c4.4,0,8,3.6,8,8v34c0,4.4-3.6,8-8,8H8c-4.4,0-8-3.6-8-8V8C0,3.6,3.6,0,8,0z"/>
						<g class="st1">
							<path class="st2" d="M136.4,19.9h3.6c2.5,0,4.3,0.9,4.3,3.5c0,2.5-1.9,3.7-4.3,3.7h-1.5V31h-2.2V19.9z M139.9,25.3
								c1.5,0,2.3-0.6,2.3-1.9c0-1.3-0.8-1.7-2.3-1.7h-1.3v3.6H139.9z"/>
							<path class="st2" d="M146.2,22.6h1.8l0.1,1.5h0.1c0.6-1.1,1.5-1.7,2.4-1.7c0.5,0,0.7,0.1,1,0.2l-0.4,1.9
								c-0.3-0.1-0.5-0.1-0.9-0.1c-0.7,0-1.5,0.4-1.9,1.7v5h-2.2V22.6z"/>
							<path class="st2" d="M152,26.8c0-2.8,1.9-4.4,4-4.4s4,1.6,4,4.4c0,2.8-1.9,4.4-4,4.4S152,29.6,152,26.8z M157.8,26.8
								c0-1.6-0.6-2.6-1.8-2.6s-1.8,1-1.8,2.6c0,1.6,0.6,2.6,1.8,2.6S157.8,28.4,157.8,26.8z"/>
							<path class="st2" d="M161.4,32.5c0-0.7,0.4-1.3,1.2-1.7v-0.1c-0.4-0.3-0.8-0.7-0.8-1.4c0-0.6,0.4-1.2,0.9-1.6v-0.1
								c-0.6-0.4-1.1-1.2-1.1-2.2c0-2,1.6-3,3.4-3c0.5,0,0.9,0.1,1.3,0.2h3v1.6h-1.4c0.2,0.3,0.4,0.8,0.4,1.3c0,1.9-1.4,2.8-3.2,2.8
								c-0.3,0-0.7-0.1-1.1-0.2c-0.2,0.2-0.4,0.4-0.4,0.7c0,0.5,0.3,0.7,1.3,0.7h1.4c2,0,3.1,0.6,3.1,2.1c0,1.7-1.8,3-4.6,3
								C162.9,34.6,161.4,34,161.4,32.5z M167.4,32c0-0.6-0.5-0.8-1.4-0.8h-1c-0.5,0-0.9,0-1.2-0.1c-0.4,0.3-0.6,0.6-0.6,1
								c0,0.7,0.8,1.1,2,1.1C166.5,33.2,167.4,32.7,167.4,32z M166.3,25.4c0-1-0.6-1.5-1.3-1.5s-1.3,0.6-1.3,1.5
								c0,1,0.6,1.5,1.3,1.5S166.3,26.4,166.3,25.4z"/>
							<path class="st2" d="M170.9,22.6h1.8l0.1,1.5h0.1c0.6-1.1,1.5-1.7,2.4-1.7c0.5,0,0.7,0.1,1,0.2l-0.4,1.9
								c-0.3-0.1-0.5-0.1-0.9-0.1c-0.7,0-1.5,0.4-1.9,1.7v5h-2.2V22.6z"/>
							<path class="st2" d="M176.5,28.7c0-1.8,1.5-2.7,4.8-3.1c0-0.8-0.4-1.5-1.4-1.5c-0.8,0-1.5,0.3-2.3,0.8l-0.8-1.5
								c1-0.6,2.2-1.1,3.5-1.1c2.1,0,3.2,1.3,3.2,3.7V31h-1.8l-0.2-0.9h0c-0.7,0.6-1.6,1.1-2.5,1.1
								C177.5,31.2,176.5,30.1,176.5,28.7z M181.4,28.7V27c-2,0.3-2.7,0.8-2.7,1.6c0,0.7,0.5,0.9,1.1,0.9
								C180.4,29.5,180.9,29.2,181.4,28.7z"/>
							<path class="st2" d="M185.8,22.6h1.8l0.1,1.1h0.1c0.7-0.7,1.5-1.3,2.6-1.3c1.2,0,1.9,0.5,2.3,1.5c0.8-0.8,1.6-1.5,2.7-1.5
								c1.8,0,2.6,1.3,2.6,3.4V31h-2.2v-5c0-1.3-0.4-1.8-1.2-1.8c-0.5,0-1,0.3-1.6,0.9V31h-2.2v-5c0-1.3-0.4-1.8-1.2-1.8
								c-0.5,0-1,0.3-1.6,0.9V31h-2.2V22.6z"/>
						</g>
					</g>
					<g transform="translate(0.000000, 102.000000)">
						<path class="st0" d="M8,0h318c4.4,0,8,3.6,8,8v34c0,4.4-3.6,8-8,8H8c-4.4,0-8-3.6-8-8V8C0,3.6,3.6,0,8,0z"/>
						<g class="st1">
							<path class="st2" d="M107.6,21.7h-3.1v-1.8h8.5v1.8h-3.1V31h-2.2V21.7z"/>
							<path class="st2" d="M114.6,19h2.2v3l-0.1,1.6c0.7-0.6,1.5-1.2,2.6-1.2c1.8,0,2.6,1.3,2.6,3.4V31h-2.2v-5
								c0-1.3-0.4-1.8-1.2-1.8c-0.7,0-1.1,0.3-1.8,0.9V31h-2.2V19z"/>
							<path class="st2" d="M123.6,26.8c0-2.7,1.9-4.4,3.9-4.4c2.3,0,3.5,1.7,3.5,4c0,0.4,0,0.8-0.1,1h-5.2c0.2,1.4,1.1,2.1,2.3,2.1
								c0.7,0,1.3-0.2,1.9-0.6l0.8,1.4c-0.8,0.6-1.9,0.9-2.9,0.9C125.5,31.2,123.6,29.6,123.6,26.8z M129.2,26
								c0-1.1-0.5-1.9-1.6-1.9c-0.9,0-1.7,0.6-1.8,1.9H129.2z"/>
							<path class="st2" d="M132.9,22.6h1.8l0.1,1.5h0.1c0.6-1.1,1.5-1.7,2.4-1.7c0.5,0,0.7,0.1,1,0.2l-0.4,1.9
								c-0.3-0.1-0.5-0.1-0.9-0.1c-0.7,0-1.5,0.4-1.9,1.7v5h-2.2V22.6z"/>
							<path class="st2" d="M138.5,28.7c0-1.8,1.5-2.7,4.8-3.1c0-0.8-0.4-1.5-1.4-1.5c-0.8,0-1.5,0.3-2.3,0.8l-0.8-1.5
								c1-0.6,2.2-1.1,3.5-1.1c2.1,0,3.2,1.3,3.2,3.7V31h-1.8l-0.2-0.9h0c-0.7,0.6-1.6,1.1-2.5,1.1
								C139.5,31.2,138.5,30.1,138.5,28.7z M143.4,28.7V27c-2,0.3-2.7,0.8-2.7,1.6c0,0.7,0.5,0.9,1.1,0.9
								C142.4,29.5,142.8,29.2,143.4,28.7z"/>
							<path class="st2" d="M147.8,22.6h1.8l0.1,0.9h0.1c0.7-0.6,1.6-1.1,2.5-1.1c2.1,0,3.3,1.7,3.3,4.3c0,2.9-1.7,4.5-3.6,4.5
								c-0.7,0-1.4-0.3-2.1-0.9l0.1,1.4v2.5h-2.2V22.6z M153.3,26.7c0-1.6-0.5-2.5-1.7-2.5c-0.6,0-1.1,0.3-1.7,0.9v3.7
								c0.5,0.5,1.1,0.6,1.5,0.6C152.6,29.4,153.3,28.5,153.3,26.7z"/>
							<path class="st2" d="M156.9,26.8c0-2.7,1.9-4.4,3.9-4.4c2.3,0,3.5,1.7,3.5,4c0,0.4,0,0.8-0.1,1h-5.2c0.2,1.4,1.1,2.1,2.3,2.1
								c0.7,0,1.3-0.2,1.9-0.6l0.8,1.4c-0.8,0.6-1.9,0.9-2.9,0.9C158.8,31.2,156.9,29.6,156.9,26.8z M162.5,26
								c0-1.1-0.5-1.9-1.6-1.9c-0.9,0-1.7,0.6-1.8,1.9H162.5z"/>
							<path class="st2" d="M166.1,27.9v-5.2h2.2v5c0,1.3,0.4,1.8,1.2,1.8c0.7,0,1.1-0.3,1.7-1v-5.7h2.2V31h-1.8l-0.2-1.2h-0.1
								c-0.7,0.9-1.5,1.4-2.7,1.4C166.9,31.2,166.1,30,166.1,27.9z"/>
							<path class="st2" d="M176.1,28.1v-3.7h-1.2v-1.6l1.3-0.1l0.3-2.2h1.8v2.2h2.1v1.7h-2.1v3.7c0,1,0.4,1.4,1.1,1.4
								c0.3,0,0.6-0.1,0.8-0.2l0.4,1.6c-0.5,0.2-1,0.3-1.8,0.3C176.8,31.2,176.1,30,176.1,28.1z"/>
							<path class="st2" d="M181.8,20.1c0-0.7,0.6-1.2,1.3-1.2c0.8,0,1.3,0.5,1.3,1.2c0,0.7-0.6,1.2-1.3,1.2
								C182.4,21.2,181.8,20.7,181.8,20.1z M182,22.6h2.2V31H182V22.6z"/>
							<path class="st2" d="M186.1,26.8c0-2.8,2-4.4,4.3-4.4c1,0,1.8,0.4,2.4,0.9l-1.1,1.4c-0.4-0.4-0.8-0.6-1.3-0.6
								c-1.3,0-2.1,1-2.1,2.6c0,1.6,0.9,2.6,2.1,2.6c0.6,0,1.2-0.3,1.6-0.7l0.9,1.5c-0.8,0.7-1.8,1-2.7,1
								C187.8,31.2,186.1,29.6,186.1,26.8z"/>
							<path class="st2" d="M203.3,28.2h-3.6l-0.8,2.8h-2.2l3.6-11.1h2.6l3.6,11.1h-2.3L203.3,28.2z M202.8,26.4l-0.3-1.2
								c-0.3-1.2-0.6-2.4-1-3.6h-0.1c-0.3,1.2-0.6,2.5-0.9,3.6l-0.3,1.2H202.8z"/>
							<path class="st2" d="M207.5,22.6h1.8l0.2,1.5h0.1c0.6-1.1,1.5-1.7,2.4-1.7c0.5,0,0.7,0.1,1,0.2l-0.4,1.9
								c-0.3-0.1-0.5-0.1-0.9-0.1c-0.7,0-1.5,0.4-1.9,1.7v5h-2.2V22.6z"/>
							<path class="st2" d="M213.4,26.8c0-2.7,1.9-4.4,3.9-4.4c2.3,0,3.5,1.7,3.5,4c0,0.4,0,0.8-0.1,1h-5.2c0.2,1.4,1.1,2.1,2.3,2.1
								c0.7,0,1.3-0.2,1.9-0.6l0.8,1.4c-0.8,0.6-1.9,0.9-2.9,0.9C215.2,31.2,213.4,29.6,213.4,26.8z M218.9,26
								c0-1.1-0.5-1.9-1.6-1.9c-0.9,0-1.7,0.6-1.8,1.9H218.9z"/>
							<path class="st2" d="M222,28.7c0-1.8,1.5-2.7,4.8-3.1c0-0.8-0.4-1.5-1.4-1.5c-0.8,0-1.5,0.3-2.3,0.8l-0.8-1.5
								c1-0.6,2.2-1.1,3.5-1.1c2.1,0,3.2,1.3,3.2,3.7V31h-1.8l-0.2-0.9h0c-0.7,0.6-1.6,1.1-2.5,1.1C223,31.2,222,30.1,222,28.7z
								 M226.8,28.7V27c-2,0.3-2.7,0.8-2.7,1.6c0,0.7,0.5,0.9,1.1,0.9C225.8,29.5,226.3,29.2,226.8,28.7z"/>
						</g>
					</g>
					<g class="st1">
						<path d="M83.8,178.5c0-3.6,2.2-5.8,5-5.8c1.4,0,2.5,0.7,3.1,1.4l-0.9,1.1c-0.6-0.6-1.3-1-2.2-1c-1.9,0-3.2,1.6-3.2,4.2
							c0,2.6,1.2,4.2,3.2,4.2c1,0,1.8-0.4,2.4-1.2l0.9,1.1c-0.9,1-2,1.6-3.4,1.6C85.9,184.2,83.8,182.1,83.8,178.5z"/>
						<path d="M93.9,172h1.7v3.2l-0.1,1.6c0.7-0.7,1.5-1.3,2.7-1.3c1.8,0,2.5,1.2,2.5,3.3v5.2h-1.7v-5c0-1.4-0.4-2-1.4-2
							c-0.8,0-1.3,0.4-2,1.1v5.8h-1.7V172z"/>
						<path d="M102.7,179.9c0-2.7,1.8-4.4,3.8-4.4c2.2,0,3.4,1.6,3.4,3.9c0,0.3,0,0.7-0.1,0.9h-5.4c0.1,1.6,1.1,2.5,2.5,2.5
							c0.7,0,1.4-0.2,2-0.6l0.6,1.1c-0.8,0.5-1.7,0.9-2.8,0.9C104.4,184.2,102.7,182.6,102.7,179.9z M108.3,179.1
							c0-1.4-0.6-2.2-1.8-2.2c-1,0-1.9,0.8-2.1,2.2H108.3z"/>
						<path d="M111.7,175.8h1.4l0.1,1.2h0c0.7-0.8,1.5-1.4,2.5-1.4c1.2,0,1.9,0.6,2.3,1.5c0.8-0.9,1.6-1.5,2.7-1.5
							c1.7,0,2.5,1.2,2.5,3.3v5.2h-1.7v-5c0-1.4-0.5-2-1.4-2c-0.6,0-1.2,0.4-1.9,1.1v5.8h-1.7v-5c0-1.4-0.4-2-1.4-2
							c-0.6,0-1.2,0.4-1.9,1.1v5.8h-1.7V175.8z"/>
						<path d="M125.3,179.9c0-2.8,1.8-4.4,3.9-4.4c2,0,3.9,1.6,3.9,4.4c0,2.7-1.8,4.3-3.9,4.3C127.1,184.2,125.3,182.6,125.3,179.9z
							 M131.3,179.9c0-1.8-0.8-2.9-2.1-2.9c-1.3,0-2.1,1.2-2.1,2.9c0,1.7,0.8,2.9,2.1,2.9C130.5,182.8,131.3,181.6,131.3,179.9z"/>
						<path d="M135,181.3v-4.2h-1.2v-1.3l1.3-0.1l0.2-2.3h1.5v2.3h2.1v1.4h-2.1v4.2c0,1,0.3,1.5,1.2,1.5c0.3,0,0.6-0.1,0.9-0.2
							l0.3,1.3c-0.5,0.2-1,0.3-1.6,0.3C135.6,184.2,135,183,135,181.3z"/>
						<path d="M140.7,172h1.7v3.2l-0.1,1.6c0.7-0.7,1.5-1.3,2.7-1.3c1.8,0,2.5,1.2,2.5,3.3v5.2h-1.7v-5c0-1.4-0.4-2-1.4-2
							c-0.8,0-1.3,0.4-2,1.1v5.8h-1.7V172z"/>
						<path d="M149.4,179.9c0-2.7,1.8-4.4,3.8-4.4c2.2,0,3.4,1.6,3.4,3.9c0,0.3,0,0.7-0.1,0.9h-5.4c0.1,1.6,1.1,2.5,2.5,2.5
							c0.7,0,1.4-0.2,2-0.6l0.6,1.1c-0.8,0.5-1.7,0.9-2.8,0.9C151.2,184.2,149.4,182.6,149.4,179.9z M155,179.1
							c0-1.4-0.6-2.2-1.8-2.2c-1,0-1.9,0.8-2.1,2.2H155z"/>
						<path d="M158.4,175.8h1.4l0.1,1.5h0c0.6-1.1,1.5-1.7,2.3-1.7c0.4,0,0.7,0.1,0.9,0.2l-0.3,1.5c-0.3-0.1-0.5-0.1-0.8-0.1
							c-0.7,0-1.5,0.5-2,1.8v5.1h-1.7V175.8z"/>
						<path d="M163.7,181.8c0-1.8,1.5-2.7,4.9-3.1c0-1-0.4-1.8-1.6-1.8c-0.9,0-1.7,0.4-2.4,0.8l-0.6-1.2c0.9-0.5,2-1.1,3.3-1.1
							c2.1,0,3,1.3,3,3.5v5h-1.4l-0.2-0.9h0c-0.8,0.6-1.6,1.1-2.6,1.1C164.7,184.2,163.7,183.3,163.7,181.8z M168.6,181.9v-2
							c-2.4,0.3-3.3,0.9-3.3,1.8c0,0.8,0.6,1.1,1.3,1.1C167.4,182.8,167.9,182.5,168.6,181.9z"/>
						<path d="M172.8,175.8h1.4l0.1,0.9h0c0.7-0.6,1.6-1.1,2.5-1.1c2.1,0,3.3,1.7,3.3,4.2c0,2.8-1.7,4.5-3.6,4.5
							c-0.7,0-1.5-0.3-2.2-0.9l0,1.4v2.7h-1.7V175.8z M178.4,179.8c0-1.7-0.6-2.8-1.9-2.8c-0.6,0-1.3,0.3-2,1v4
							c0.6,0.6,1.3,0.8,1.8,0.8C177.5,182.8,178.4,181.7,178.4,179.8z"/>
						<path d="M185.8,184.5c-0.6,1.8-1.5,3-3.3,3c-0.4,0-0.8-0.1-1-0.2l0.3-1.4c0.2,0,0.4,0.1,0.6,0.1c0.9,0,1.4-0.7,1.7-1.5
							l0.2-0.6l-3.3-8.2h1.8l1.5,4.2c0.2,0.7,0.5,1.6,0.8,2.3h0.1l0.6-2.3l1.3-4.2h1.7L185.8,184.5z"/>
						<path d="M189.7,179.1h4v1.3h-4V179.1z"/>
						<path d="M195.4,173.2c0-0.6,0.5-1,1.1-1c0.6,0,1.1,0.4,1.1,1c0,0.6-0.5,1-1.1,1C195.9,174.2,195.4,173.8,195.4,173.2z
							 M195.7,175.8h1.7v8.2h-1.7V175.8z"/>
						<path d="M200,175.8h1.4l0.1,1.1h0c0.8-0.7,1.6-1.4,2.7-1.4c1.8,0,2.5,1.2,2.5,3.3v5.2h-1.7v-5c0-1.4-0.4-2-1.4-2
							c-0.8,0-1.3,0.4-2,1.1v5.8H200V175.8z"/>
						<path d="M208.8,179.9c0-2.7,1.7-4.4,3.5-4.4c0.9,0,1.5,0.4,2.2,0.9l-0.1-1.4V172h1.7v12h-1.4l-0.1-0.9h0
							c-0.6,0.6-1.5,1.1-2.4,1.1C210.1,184.2,208.8,182.6,208.8,179.9z M214.5,181.8v-4c-0.6-0.6-1.2-0.8-1.8-0.8
							c-1.2,0-2.1,1.1-2.1,2.9c0,1.9,0.7,2.9,2,2.9C213.3,182.8,213.9,182.5,214.5,181.8z"/>
						<path d="M218.7,180.9v-5.2h1.7v5c0,1.4,0.4,2,1.4,2c0.8,0,1.3-0.4,2-1.2v-5.7h1.7v8.2h-1.4l-0.1-1.2h0
							c-0.8,0.9-1.6,1.4-2.7,1.4C219.4,184.2,218.7,183,218.7,180.9z"/>
						<path d="M227.5,179.9c0-2.8,1.9-4.4,4.1-4.4c1,0,1.8,0.4,2.4,0.9l-0.9,1.1c-0.5-0.4-0.9-0.6-1.5-0.6c-1.4,0-2.4,1.2-2.4,2.9
							c0,1.7,0.9,2.9,2.3,2.9c0.7,0,1.3-0.3,1.8-0.8l0.7,1.1c-0.8,0.7-1.7,1-2.7,1C229.2,184.2,227.5,182.6,227.5,179.9z"/>
						<path d="M234.9,179.9c0-2.7,1.8-4.4,3.8-4.4c2.2,0,3.4,1.6,3.4,3.9c0,0.3,0,0.7-0.1,0.9h-5.4c0.1,1.6,1.1,2.5,2.5,2.5
							c0.7,0,1.4-0.2,2-0.6l0.6,1.1c-0.8,0.5-1.7,0.9-2.8,0.9C236.6,184.2,234.9,182.6,234.9,179.9z M240.5,179.1
							c0-1.4-0.6-2.2-1.8-2.2c-1,0-1.9,0.8-2.1,2.2H240.5z"/>
						<path d="M243.4,179.9c0-2.7,1.7-4.4,3.5-4.4c0.9,0,1.5,0.4,2.2,0.9l-0.1-1.4V172h1.7v12h-1.4l-0.1-0.9h0
							c-0.6,0.6-1.5,1.1-2.4,1.1C244.7,184.2,243.4,182.6,243.4,179.9z M249,181.8v-4c-0.6-0.6-1.2-0.8-1.8-0.8
							c-1.2,0-2.1,1.1-2.1,2.9c0,1.9,0.7,2.9,2,2.9C247.9,182.8,248.4,182.5,249,181.8z"/>
					</g>
					<text transform="matrix(1 0 0 1 252.0604 184)" class="st3 st4"> </text>
					<g class="st1">
						<path d="M83.2,203.3v-4.2H82v-1.3l1.3-0.1l0.2-2.3h1.5v2.3H87v1.4h-2.1v4.2c0,1,0.3,1.5,1.2,1.5c0.3,0,0.6-0.1,0.9-0.2
							l0.3,1.3c-0.5,0.2-1,0.3-1.6,0.3C83.8,206.2,83.2,205,83.2,203.3z"/>
						<path d="M88.8,194h1.7v3.2l-0.1,1.6c0.7-0.7,1.5-1.3,2.7-1.3c1.8,0,2.5,1.2,2.5,3.3v5.2H94v-5c0-1.4-0.4-2-1.4-2
							c-0.8,0-1.3,0.4-2,1.1v5.8h-1.7V194z"/>
						<path d="M98.1,197.8h1.4l0.1,1.5h0c0.6-1.1,1.5-1.7,2.3-1.7c0.4,0,0.7,0.1,0.9,0.2l-0.3,1.5c-0.3-0.1-0.5-0.1-0.8-0.1
							c-0.7,0-1.5,0.5-2,1.8v5.1h-1.7V197.8z"/>
						<path d="M103.5,201.9c0-2.8,1.8-4.4,3.9-4.4c2,0,3.9,1.6,3.9,4.4c0,2.7-1.8,4.3-3.9,4.3C105.4,206.2,103.5,204.6,103.5,201.9z
							 M109.5,201.9c0-1.8-0.8-2.9-2.1-2.9c-1.3,0-2.1,1.2-2.1,2.9c0,1.7,0.8,2.9,2.1,2.9C108.7,204.8,109.5,203.6,109.5,201.9z"/>
						<path d="M113.3,197.8h1.4l0.1,1.2h0c0.7-0.8,1.5-1.4,2.5-1.4c1.2,0,1.9,0.6,2.3,1.5c0.8-0.9,1.6-1.5,2.7-1.5
							c1.7,0,2.5,1.2,2.5,3.3v5.2h-1.7v-5c0-1.4-0.5-2-1.4-2c-0.6,0-1.2,0.4-1.9,1.1v5.8h-1.7v-5c0-1.4-0.4-2-1.4-2
							c-0.6,0-1.2,0.4-1.9,1.1v5.8h-1.7V197.8z"/>
						<path d="M129,205.1L129,205.1l-0.2,0.9h-1.3v-12h1.7v3.2l0,1.4c0.7-0.6,1.6-1.1,2.5-1.1c2.1,0,3.3,1.7,3.3,4.2
							c0,2.8-1.7,4.5-3.6,4.5C130.5,206.2,129.7,205.8,129,205.1z M133.1,201.8c0-1.7-0.6-2.8-1.9-2.8c-0.6,0-1.3,0.3-2,1v4
							c0.6,0.6,1.3,0.8,1.8,0.8C132.2,204.8,133.1,203.7,133.1,201.8z"/>
						<path d="M136.3,201.9c0-2.8,1.8-4.4,3.9-4.4c2,0,3.9,1.6,3.9,4.4c0,2.7-1.8,4.3-3.9,4.3C138.2,206.2,136.3,204.6,136.3,201.9z
							 M142.3,201.9c0-1.8-0.8-2.9-2.1-2.9c-1.3,0-2.1,1.2-2.1,2.9c0,1.7,0.8,2.9,2.1,2.9C141.5,204.8,142.3,203.6,142.3,201.9z"/>
						<path d="M145.5,201.9c0-2.8,1.9-4.4,4.1-4.4c1,0,1.8,0.4,2.4,0.9l-0.9,1.1c-0.5-0.4-0.9-0.6-1.5-0.6c-1.4,0-2.4,1.2-2.4,2.9
							c0,1.7,0.9,2.9,2.3,2.9c0.7,0,1.3-0.3,1.8-0.8l0.7,1.1c-0.7,0.7-1.7,1-2.7,1C147.2,206.2,145.5,204.6,145.5,201.9z"/>
						<path d="M157.6,206.5c-0.6,1.8-1.5,3-3.3,3c-0.4,0-0.7-0.1-1-0.2l0.3-1.4c0.1,0,0.4,0.1,0.6,0.1c0.9,0,1.4-0.7,1.7-1.5
							l0.2-0.6l-3.3-8.2h1.8l1.5,4.2c0.2,0.7,0.5,1.6,0.8,2.3h0.1l0.6-2.3l1.3-4.2h1.7L157.6,206.5z"/>
						<path d="M162.4,203.3v-4.2h-1.2v-1.3l1.3-0.1l0.2-2.3h1.5v2.3h2.1v1.4h-2.1v4.2c0,1,0.3,1.5,1.2,1.5c0.3,0,0.6-0.1,0.9-0.2
							l0.3,1.3c-0.5,0.2-1,0.3-1.6,0.3C163,206.2,162.4,205,162.4,203.3z"/>
						<path d="M167.2,201.9c0-2.8,1.8-4.4,3.9-4.4s3.9,1.6,3.9,4.4c0,2.7-1.8,4.3-3.9,4.3S167.2,204.6,167.2,201.9z M173.2,201.9
							c0-1.8-0.8-2.9-2.1-2.9c-1.3,0-2.1,1.2-2.1,2.9c0,1.7,0.8,2.9,2.1,2.9C172.4,204.8,173.2,203.6,173.2,201.9z"/>
						<path d="M177,197.8h1.4l0.1,0.9h0c0.7-0.6,1.6-1.1,2.5-1.1c2.1,0,3.3,1.7,3.3,4.2c0,2.8-1.7,4.5-3.6,4.5
							c-0.7,0-1.5-0.3-2.2-0.9l0,1.4v2.7H177V197.8z M182.6,201.8c0-1.7-0.6-2.8-1.9-2.8c-0.6,0-1.3,0.3-2,1v4
							c0.6,0.6,1.3,0.8,1.8,0.8C181.7,204.8,182.6,203.7,182.6,201.8z"/>
						<path d="M185.9,201.9c0-2.7,1.8-4.4,3.8-4.4c2.2,0,3.4,1.6,3.4,3.9c0,0.3,0,0.7-0.1,0.9h-5.4c0.1,1.6,1.1,2.5,2.5,2.5
							c0.7,0,1.4-0.2,2-0.6l0.6,1.1c-0.8,0.5-1.7,0.9-2.8,0.9C187.7,206.2,185.9,204.6,185.9,201.9z M191.5,201.1
							c0-1.4-0.6-2.2-1.8-2.2c-1,0-1.9,0.8-2.1,2.2H191.5z"/>
						<path d="M194.9,197.8h1.4l0.1,1.1h0c0.8-0.7,1.6-1.4,2.7-1.4c1.8,0,2.5,1.2,2.5,3.3v5.2h-1.7v-5c0-1.4-0.4-2-1.4-2
							c-0.8,0-1.3,0.4-2,1.1v5.8h-1.7V197.8z"/>
						<path d="M204,195.2c0-0.6,0.5-1,1.1-1s1.1,0.4,1.1,1c0,0.6-0.5,1-1.1,1S204,195.8,204,195.2z M204.3,197.8h1.7v8.2h-1.7V197.8
							z"/>
						<path d="M208.1,203.8c0-1.8,1.5-2.7,4.9-3.1c0-1-0.4-1.8-1.6-1.8c-0.9,0-1.7,0.4-2.4,0.8l-0.6-1.2c0.9-0.5,2-1.1,3.3-1.1
							c2.1,0,3,1.3,3,3.5v5h-1.4l-0.2-0.9h0c-0.8,0.6-1.6,1.1-2.6,1.1C209.1,206.2,208.1,205.3,208.1,203.8z M213,203.9v-2
							c-2.4,0.3-3.3,0.9-3.3,1.8c0,0.8,0.6,1.1,1.3,1.1C211.8,204.8,212.4,204.5,213,203.9z"/>
						<path d="M220.6,201.3c0-3,0.8-5.4,2.2-7.7l1.1,0.5c-1.3,2.2-1.9,4.7-1.9,7.2c0,2.5,0.6,5.1,1.9,7.2l-1.1,0.5
							C221.4,206.7,220.6,204.3,220.6,201.3z"/>
						<path d="M225.5,200.5c0-3.6,2.2-5.8,5-5.8c1.4,0,2.5,0.7,3.1,1.4l-0.9,1.1c-0.6-0.6-1.3-1-2.2-1c-1.9,0-3.2,1.6-3.2,4.2
							c0,2.6,1.2,4.2,3.2,4.2c1,0,1.8-0.4,2.4-1.2l0.9,1.1c-0.9,1-2,1.6-3.4,1.6C227.6,206.2,225.5,204.1,225.5,200.5z"/>
						<path d="M235.8,195h1.7v11h-1.7V195z"/>
						<path d="M242.6,196.4h-3.2V195h8.2v1.5h-3.3v9.6h-1.7V196.4z"/>
						<path d="M248.8,208.5c1.3-2.1,1.9-4.7,1.9-7.2c0-2.5-0.6-5-1.9-7.2l1.1-0.5c1.4,2.3,2.2,4.7,2.2,7.7c0,3-0.8,5.4-2.2,7.7
							L248.8,208.5z"/>
					</g>
					<g class="st1">
						<path d="M143.1,70.9h2.3l1.5,5.4c0.3,1.2,0.6,2.3,0.9,3.6h0.1c0.3-1.2,0.6-2.4,0.9-3.6l1.4-5.4h2.2L149.2,82h-2.6L143.1,70.9z
							"/>
						<path d="M153.8,70.9h2.5l1.9,5.2c0.2,0.7,0.4,1.4,0.7,2.1h0.1c0.2-0.7,0.4-1.5,0.7-2.1l1.8-5.2h2.5V82h-2v-4.6
							c0-1,0.2-2.6,0.3-3.6h-0.1l-0.9,2.6l-1.7,4.7h-1.3l-1.7-4.7l-0.9-2.6h-0.1c0.1,1,0.3,2.6,0.3,3.6V82h-2V70.9z"/>
						<path d="M165.7,80.7l1-1.4c0.6,0.6,1.4,1.1,2.4,1.1c1.2,0,2-0.7,2-2c0-1.3-0.8-2-1.9-2c-0.7,0-1,0.2-1.7,0.6l-1-0.7l0.3-5.4
							h5.9v1.8h-4l-0.2,2.4c0.4-0.2,0.8-0.3,1.3-0.3c1.9,0,3.4,1.1,3.4,3.5c0,2.5-1.8,3.9-3.9,3.9C167.7,82.2,166.5,81.5,165.7,80.7
							z"/>
						<path d="M174.8,76.4c0-3.8,1.5-5.7,3.8-5.7c2.2,0,3.8,1.9,3.8,5.7s-1.5,5.8-3.8,5.8C176.3,82.2,174.8,80.2,174.8,76.4z
							 M180.2,76.4c0-3.1-0.7-4-1.7-4c-1,0-1.7,0.9-1.7,4c0,3.1,0.7,4.1,1.7,4.1C179.5,80.5,180.2,79.5,180.2,76.4z"/>
						<path d="M184.2,80.2h2.4v-7h-2v-1.4c1.1-0.2,1.9-0.5,2.6-0.9h1.6v9.3h2.1V82h-6.7V80.2z"/>
					</g>
				</g>
			</g>
		</g>
	</g>
</g>
</svg>
