<?xml version="1.0" encoding="utf-8"?>
<!-- Generator: Adobe Illustrator 23.1.1, SVG Export Plug-In . SVG Version: 6.00 Build 0)  -->
<svg version="1.1" id="Layer_1" xmlns="http://www.w3.org/2000/svg" xmlns:xlink="http://www.w3.org/1999/xlink" x="0px" y="0px"
	 viewBox="0 0 336 459" style="enable-background:new 0 0 336 459;" xml:space="preserve">
<style type="text/css">
	.st0{fill-rule:evenodd;clip-rule:evenodd;}
	.st1{enable-background:new    ;}
	.st2{fill:#FFFFFF;}
	.st3{fill:none;stroke:#979797;stroke-linecap:square;}
</style>
<title>table3</title>
<desc>Created with Sketch.</desc>
<g id="Page-1">
	<g id="mobile1" transform="translate(-19.000000, -2191.000000)">
		<g id="table3" transform="translate(20.000000, 2191.000000)">
			<g id="table1">
				<g id="cell1">
					<g>
						<path id="bg" class="st0" d="M8,0h318c4.4,0,8,3.6,8,8v34c0,4.4-3.6,8-8,8H8c-4.4,0-8-3.6-8-8V8C0,3.6,3.6,0,8,0z"/>
						<g class="st1">
							<path class="st2" d="M152.6,29.1v1.6H140v-1.6H152.6z M142.9,21.2H141v-1.6h10.5v1.6h-1.9v4.1h1.8V27h-10.4v-1.6h1.8V21.2z
								 M147.7,21.2h-2.8v4.1h2.8V21.2z"/>
							<path class="st2" d="M166.4,29.2v1.6h-12.5v-1.6h5.2v-2.1h-3.8v-4.7h7.7v-1.5h-7.7v-1.6h9.7V24h-7.7v1.5h8v1.6h-4.2v2.1
								H166.4z"/>
							<path class="st2" d="M180.1,28.9v1.6h-12.5v-1.6H180.1z M176.6,21.3h-7.7v-1.6h9.7v1.6c0,1.9,0,3.8-0.5,6.7l-2-0.2
								C176.6,25.2,176.6,23.3,176.6,21.3L176.6,21.3z"/>
							<path class="st2" d="M187.9,25.9c-1.6,0.3-2.9,0.3-5,0.3h-1V22h3.3v-1.1H182v-1.5h5.2v4.1h-3.3v1.2c1.5,0,2.6-0.1,3.8-0.3
								L187.9,25.9z M183.9,27.2h9.4v4.9h-9.4V27.2z M185.8,30.6h5.5v-1.8h-5.5V30.6z M193.2,18.5v8.1h-1.9v-3.3h-1.1v3.2h-1.8v-7.8
								h1.8v3h1.1v-3.2H193.2z"/>
						</g>
					</g>
					<g transform="translate(0.000000, 102.000000)">
						<path class="st0" d="M8,0h318c4.4,0,8,3.6,8,8v34c0,4.4-3.6,8-8,8H8c-4.4,0-8-3.6-8-8V8C0,3.6,3.6,0,8,0z"/>
						<g class="st1">
							<path class="st2" d="M126.9,27.5c1.3,0,2.5-0.1,3.8-0.3l0.1,1.6c-1.7,0.3-3.1,0.4-4.9,0.4h-1v-9.1h5.1v1.6h-3.2V27.5z
								 M136.4,18.5v13.8h-1.9v-6.9h-1.2v6.3h-1.8V18.7h1.8v5.1h1.2v-5.3H136.4z"/>
							<path class="st2" d="M145.5,26.1c-1.5-0.5-2.5-1.4-3-2.6c-0.6,1.4-1.7,2.4-3.2,3l-1-1.6c2.3-0.8,3.2-2.6,3.2-4.5v-1.2h2v1.4
								c0,1.7,0.9,3.3,3.1,4L145.5,26.1z M149.4,29.6c0,1.7-1.8,2.7-4.7,2.7c-2.9,0-4.7-1-4.7-2.7c0-1.7,1.8-2.7,4.7-2.7
								C147.6,27,149.4,28,149.4,29.6z M147.4,29.6c0-0.8-0.9-1.1-2.7-1.1c-1.8,0-2.7,0.4-2.7,1.1c0,0.8,0.9,1.1,2.7,1.1
								C146.5,30.8,147.4,30.4,147.4,29.6z M151,21.7v1.6h-1.8v3.3h-2v-8.2h2v3.2H151z"/>
							<path class="st2" d="M163.3,25.4c-1.6-0.4-2.7-1.3-3.3-2.5c-0.6,1.3-1.8,2.3-3.4,2.8l-0.9-1.5c2.1-0.6,3.1-2,3.3-3.5h-2.8
								v-1.6h7.5v1.6h-2.7c0.1,1.3,1.2,2.7,3.2,3.2L163.3,25.4z M167.4,30.7v1.5h-9.5v-3.8h7.2v-0.8h-7.2v-1.5h9.2v3.7h-7.2v0.9
								H167.4z M167,25.6h-2v-7.1h2V25.6z"/>
							<path class="st2" d="M177.9,27.3c-2.9,0.5-6.1,0.6-8.5,0.6l-0.2-1.5c1,0,2.1,0,3.3,0v-0.8c-1.5-0.2-2.4-1-2.4-2.1
								c0-1.3,1.3-2.1,3.4-2.1c2,0,3.4,0.8,3.4,2.1c0,1.1-0.9,1.8-2.4,2.1v0.7c1.1-0.1,2.2-0.2,3.3-0.3L177.9,27.3z M177.4,21h-7.8
								v-1.4h2.9v-1.2h2v1.2h2.9V21z M173.1,30.5h7.7V32h-9.7v-3.5h2V30.5z M173.5,24.3c0.9,0,1.5-0.3,1.5-0.8
								c0-0.5-0.6-0.8-1.5-0.8S172,23,172,23.5C172,24,172.5,24.3,173.5,24.3z M182,23v1.6h-1.7v4.6h-2V18.5h2V23H182z"/>
							<path class="st2" d="M195.7,25.6v1.6h-5.1v2.2h-2v-2.2h-5.4v-1.6H195.7z M186.6,30.5h7.7V32h-9.7v-3.8h2V30.5z M194.1,24.6
								h-9.3v-5.7h2v1.4h5.4v-1.4h2V24.6z M192.1,21.8h-5.4v1.2h5.4V21.8z"/>
							<path class="st2" d="M204.3,24.4c0,3-1.5,4.9-3.6,4.9c-2.1,0-3.6-1.9-3.6-4.9c0-3,1.5-4.9,3.6-4.9
								C202.7,19.4,204.3,21.3,204.3,24.4z M202.4,24.4c0-2-0.7-3.1-1.7-3.1c-1,0-1.7,1.1-1.7,3.1c0,2.1,0.7,3.1,1.7,3.1
								C201.7,27.5,202.4,26.4,202.4,24.4z M207.8,23.3v2.4h1.9v1.6h-1.9v4.9h-2V18.5h2v3.2h1.9v1.6H207.8z"/>
						</g>
					</g>
					<g class="st1">
						<path d="M159.8,180.5h-3.1v4.6h-1.6v-4.6h-3.1v4.6h-1.6v-4.6h-3v-1.3h12.3L159.8,180.5z M148.9,175.1c0-1.8,2-3,4.8-3
							c2.9,0,4.8,1.2,4.8,3c0,1.8-1.9,3-4.8,3C150.8,178.1,148.9,176.9,148.9,175.1z M150.4,175.1c0,1.1,1.3,1.8,3.2,1.8
							c1.9,0,3.2-0.7,3.2-1.8c0-1.1-1.3-1.7-3.2-1.7C151.7,173.4,150.4,174,150.4,175.1z"/>
						<path d="M168.2,178.8h-6.4v-6.3h1.5v1.9h3.3v-1.9h1.5V178.8z M172.1,182.6c0,1.6-1.7,2.6-4.5,2.6c-2.8,0-4.5-1-4.5-2.6
							c0-1.6,1.7-2.6,4.5-2.6C170.4,180,172.1,181,172.1,182.6z M166.7,175.6h-3.3v2h3.3V175.6z M170.6,182.6c0-0.9-1.1-1.3-3-1.3
							c-1.9,0-3,0.5-3,1.3c0,0.9,1.1,1.4,3,1.4C169.5,184,170.6,183.5,170.6,182.6z M173.9,174.9v1.3h-1.9v3.5h-1.5v-8.1h1.5v3.3
							H173.9z"/>
						<path d="M178.9,178.9c-2.1,0-3.6-1.3-3.6-3.3c0-1.9,1.5-3.2,3.6-3.2c2.1,0,3.6,1.3,3.6,3.2C182.5,177.5,181,178.9,178.9,178.9
							z M178.9,177.5c1.2,0,2.1-0.7,2.1-1.9c0-1.2-0.9-1.9-2.1-1.9s-2.1,0.8-2.1,1.9C176.8,176.8,177.7,177.5,178.9,177.5z
							 M177.1,180h8.7v5h-8.7V180z M178.6,183.8h5.6v-2.5h-5.6V183.8z M187.7,176.1h-1.9v3.3h-1.5v-7.8h1.5v3.2h1.9V176.1z"/>
					</g>
					<g class="st1">
						<path d="M145.8,197.9c0,2.1,1.3,4.3,3.4,5.2l-0.8,1.2c-1.5-0.7-2.7-2.1-3.3-3.8c-0.6,1.8-1.8,3.3-3.4,4l-0.9-1.2
							c2.1-1,3.4-3.3,3.4-5.5v-0.8h-3v-1.2h3v-2h1.5v2h2.9v1.2h-2.9V197.9z M151.8,193.6v13.5h-1.6v-13.5H151.8z"/>
						<path d="M166.7,204.3v1.3h-12.3v-1.3h3.3V202h-1.8v-4.3h7.8v-1.8h-7.8v-1.2h9.4v4.3h-7.8v1.9h8.1v1.2h-2v2.3H166.7z
							 M159.3,204.3h2.8V202h-2.8V204.3z"/>
						<path d="M174.1,200.9h-5.3v-6.4h1.5v2h2.4v-2h1.4V200.9z M172.7,197.7h-2.4v1.9h2.4V197.7z M170.5,202.5h9.2v4.7h-1.5v-3.5
							h-7.6V202.5z M179.7,193.6v8.1h-1.5v-3.4h-1.4v3.4h-1.5v-7.8h1.5v3.2h1.4v-3.4L179.7,193.6z"/>
						<path d="M189.5,201.4c-1.5-0.6-2.7-1.7-3.2-3.1c-0.6,1.5-1.7,2.7-3.3,3.3l-0.8-1.2c2.1-0.8,3.3-2.7,3.3-4.7v-1.3h1.6v1.3
							c0,1.9,1.2,3.7,3.3,4.5L189.5,201.4z M193.6,205.6v1.3h-9.2v-4.3h1.6v3H193.6z M193.2,203.5h-1.5v-9.9h1.5V203.5z"/>
					</g>
					<g class="st1">
						<path d="M143.1,70.9h2.3l1.5,5.4c0.3,1.2,0.6,2.3,0.9,3.6h0.1c0.3-1.2,0.6-2.4,0.9-3.6l1.4-5.4h2.2L149.2,82h-2.6L143.1,70.9z
							"/>
						<path d="M153.8,70.9h2.5l1.9,5.2c0.2,0.7,0.4,1.4,0.7,2.1h0.1c0.2-0.7,0.4-1.5,0.7-2.1l1.8-5.2h2.5V82h-2v-4.6
							c0-1,0.2-2.6,0.3-3.6h-0.1l-0.9,2.6l-1.7,4.7h-1.3l-1.7-4.7l-0.9-2.6h-0.1c0.1,1,0.3,2.6,0.3,3.6V82h-2V70.9z"/>
						<path d="M165.9,80.7c3-2.7,4.8-4.8,4.8-6.5c0-1.1-0.6-1.8-1.7-1.8c-0.8,0-1.5,0.5-2,1.1l-1.2-1.2c1-1.1,2-1.7,3.5-1.7
							c2.1,0,3.5,1.3,3.5,3.4c0,2-1.7,4.2-3.7,6.1c0.6-0.1,1.3-0.1,1.8-0.1h2.4V82h-7.4V80.7z"/>
						<path d="M174.8,76.4c0-3.8,1.5-5.7,3.8-5.7c2.2,0,3.8,1.9,3.8,5.7s-1.5,5.8-3.8,5.8C176.3,82.2,174.8,80.2,174.8,76.4z
							 M180.2,76.4c0-3.1-0.7-4-1.7-4c-1,0-1.7,0.9-1.7,4c0,3.1,0.7,4.1,1.7,4.1C179.5,80.5,180.2,79.5,180.2,76.4z"/>
						<path d="M189.8,73.3c-0.4-0.5-1.1-0.8-1.7-0.8c-1.3,0-2.3,1-2.4,3.7c0.6-0.7,1.6-1.2,2.3-1.2c1.9,0,3.2,1.1,3.2,3.5
							c0,2.3-1.6,3.7-3.5,3.7c-2.1,0-4-1.7-4-5.6c0-4.1,2.1-5.9,4.3-5.9c1.4,0,2.3,0.6,3,1.3L189.8,73.3z M189.2,78.5
							c0-1.3-0.6-1.9-1.6-1.9c-0.6,0-1.3,0.3-1.8,1.2c0.2,2,1,2.8,1.9,2.8C188.5,80.5,189.2,79.9,189.2,78.5z"/>
					</g>
					<line id="divider" class="st3" x1="0" y1="241" x2="334" y2="241"/>
				</g>
				<g id="cell2" transform="translate(0.000000, 272.000000)">
					<g>
						<path class="st0" d="M8,0h318c4.4,0,8,3.6,8,8v34c0,4.4-3.6,8-8,8H8c-4.4,0-8-3.6-8-8V8C0,3.6,3.6,0,8,0z"/>
						<g class="st1">
							<path class="st2" d="M152.6,29.1v1.6H140v-1.6H152.6z M142.9,21.2H141v-1.6h10.5v1.6h-1.9v4.1h1.8V27h-10.4v-1.6h1.8V21.2z
								 M147.7,21.2h-2.8v4.1h2.8V21.2z"/>
							<path class="st2" d="M166.4,29.2v1.6h-12.5v-1.6h5.2v-2.1h-3.8v-4.7h7.7v-1.5h-7.7v-1.6h9.7V24h-7.7v1.5h8v1.6h-4.2v2.1
								H166.4z"/>
							<path class="st2" d="M180.1,28.9v1.6h-12.5v-1.6H180.1z M176.6,21.3h-7.7v-1.6h9.7v1.6c0,1.9,0,3.8-0.5,6.7l-2-0.2
								C176.6,25.2,176.6,23.3,176.6,21.3L176.6,21.3z"/>
							<path class="st2" d="M187.9,25.9c-1.6,0.3-2.9,0.3-5,0.3h-1V22h3.3v-1.1H182v-1.5h5.2v4.1h-3.3v1.2c1.5,0,2.6-0.1,3.8-0.3
								L187.9,25.9z M183.9,27.2h9.4v4.9h-9.4V27.2z M185.8,30.6h5.5v-1.8h-5.5V30.6z M193.2,18.5v8.1h-1.9v-3.3h-1.1v3.2h-1.8v-7.8
								h1.8v3h1.1v-3.2H193.2z"/>
						</g>
					</g>
					<g transform="translate(0.000000, 102.000000)">
						<path class="st0" d="M8,0h318c4.4,0,8,3.6,8,8v34c0,4.4-3.6,8-8,8H8c-4.4,0-8-3.6-8-8V8C0,3.6,3.6,0,8,0z"/>
						<g class="st1">
							<path class="st2" d="M126.9,27.5c1.3,0,2.5-0.1,3.8-0.3l0.1,1.6c-1.7,0.3-3.1,0.4-4.9,0.4h-1v-9.1h5.1v1.6h-3.2V27.5z
								 M136.4,18.5v13.8h-1.9v-6.9h-1.2v6.3h-1.8V18.7h1.8v5.1h1.2v-5.3H136.4z"/>
							<path class="st2" d="M145.5,26.1c-1.5-0.5-2.5-1.4-3-2.6c-0.6,1.4-1.7,2.4-3.2,3l-1-1.6c2.3-0.8,3.2-2.6,3.2-4.5v-1.2h2v1.4
								c0,1.7,0.9,3.3,3.1,4L145.5,26.1z M149.4,29.6c0,1.7-1.8,2.7-4.7,2.7c-2.9,0-4.7-1-4.7-2.7c0-1.7,1.8-2.7,4.7-2.7
								C147.6,27,149.4,28,149.4,29.6z M147.4,29.6c0-0.8-0.9-1.1-2.7-1.1c-1.8,0-2.7,0.4-2.7,1.1c0,0.8,0.9,1.1,2.7,1.1
								C146.5,30.8,147.4,30.4,147.4,29.6z M151,21.7v1.6h-1.8v3.3h-2v-8.2h2v3.2H151z"/>
							<path class="st2" d="M163.3,25.4c-1.6-0.4-2.7-1.3-3.3-2.5c-0.6,1.3-1.8,2.3-3.4,2.8l-0.9-1.5c2.1-0.6,3.1-2,3.3-3.5h-2.8
								v-1.6h7.5v1.6h-2.7c0.1,1.3,1.2,2.7,3.2,3.2L163.3,25.4z M167.4,30.7v1.5h-9.5v-3.8h7.2v-0.8h-7.2v-1.5h9.2v3.7h-7.2v0.9
								H167.4z M167,25.6h-2v-7.1h2V25.6z"/>
							<path class="st2" d="M177.9,27.3c-2.9,0.5-6.1,0.6-8.5,0.6l-0.2-1.5c1,0,2.1,0,3.3,0v-0.8c-1.5-0.2-2.4-1-2.4-2.1
								c0-1.3,1.3-2.1,3.4-2.1c2,0,3.4,0.8,3.4,2.1c0,1.1-0.9,1.8-2.4,2.1v0.7c1.1-0.1,2.2-0.2,3.3-0.3L177.9,27.3z M177.4,21h-7.8
								v-1.4h2.9v-1.2h2v1.2h2.9V21z M173.1,30.5h7.7V32h-9.7v-3.5h2V30.5z M173.5,24.3c0.9,0,1.5-0.3,1.5-0.8
								c0-0.5-0.6-0.8-1.5-0.8S172,23,172,23.5C172,24,172.5,24.3,173.5,24.3z M182,23v1.6h-1.7v4.6h-2V18.5h2V23H182z"/>
							<path class="st2" d="M195.7,25.6v1.6h-5.1v2.2h-2v-2.2h-5.4v-1.6H195.7z M186.6,30.5h7.7V32h-9.7v-3.8h2V30.5z M194.1,24.6
								h-9.3v-5.7h2v1.4h5.4v-1.4h2V24.6z M192.1,21.8h-5.4v1.2h5.4V21.8z"/>
							<path class="st2" d="M204.3,24.4c0,3-1.5,4.9-3.6,4.9c-2.1,0-3.6-1.9-3.6-4.9c0-3,1.5-4.9,3.6-4.9
								C202.7,19.4,204.3,21.3,204.3,24.4z M202.4,24.4c0-2-0.7-3.1-1.7-3.1c-1,0-1.7,1.1-1.7,3.1c0,2.1,0.7,3.1,1.7,3.1
								C201.7,27.5,202.4,26.4,202.4,24.4z M207.8,23.3v2.4h1.9v1.6h-1.9v4.9h-2V18.5h2v3.2h1.9v1.6H207.8z"/>
						</g>
					</g>
					<g class="st1">
						<path d="M114,173.9h-7.5v-1.2h3v-1.2h1.5v1.2h2.9V173.9z M110.3,179c-1.8,0-3.1-0.9-3.1-2.3s1.3-2.3,3.1-2.3
							c1.8,0,3.1,0.9,3.1,2.3S112.1,179,110.3,179z M110.3,177.9c1,0,1.7-0.5,1.7-1.2s-0.7-1.2-1.7-1.2c-1,0-1.6,0.4-1.6,1.2
							S109.3,177.9,110.3,177.9z M118,183.9v1.2h-9.2v-3.3h7.3v-0.9h-7.3v-1.1h8.8v3.1h-7.3v1H118z M116.1,178.1H114v-1.2h2.1v-1.2
							h-2v-1.2h2v-2.8h1.6v7.5h-1.6V178.1z"/>
						<path d="M132.5,182.2v1.3h-12.3v-1.3h5.3V179h1.5v3.2H132.5z M131.3,179.3c-2.2-0.4-4.1-1.8-5-3.6c-0.9,1.8-2.8,3.1-5,3.6
							l-0.7-1.3c2.7-0.5,4.9-2.5,4.9-4.6v-1h1.6v1c0,2.1,2.2,4.1,4.8,4.6L131.3,179.3z"/>
						<path d="M142.3,179.2c-2.7,0.4-5.8,0.5-8.1,0.5l-0.2-1.3c0.5,0,1,0,1.6,0v-4.3h-1.2v-1.3h7.2v1.3h-1.2v4.2
							c0.6,0,1.2-0.1,1.8-0.2L142.3,179.2z M137.6,183.6h7.6v1.3H136v-4.2h1.6V183.6z M137.1,178.4c0.6,0,1.2,0,1.8-0.1v-4.2h-1.8
							V178.4z M146.5,175.6v1.3h-1.9v4.7h-1.5v-10h1.5v4H146.5z"/>
						<path d="M158.1,172.4c0,3.5-2.3,6-6.3,7l-0.6-1.2c3.2-0.8,5-2.5,5.3-4.5h-4.6v-1.3H158.1z M153.1,179.8h8.7v5.2h-8.7V179.8z
							 M154.7,183.7h5.6v-2.7h-5.6V183.7z M163.7,176h-1.9v3.2h-1.5v-7.6h1.5v3.1h1.9V176z"/>
						<path d="M177.3,182.2v1.3H165v-1.3h5.3V179h1.5v3.2H177.3z M176.1,179.3c-2.2-0.4-4.1-1.8-5-3.6c-0.9,1.8-2.8,3.1-5,3.6
							l-0.7-1.3c2.7-0.5,4.9-2.5,4.9-4.6v-1h1.6v1c0,2.1,2.2,4.1,4.8,4.6L176.1,179.3z"/>
						<path d="M191,178v1.2h-12.3V178H191z M179.4,176.1c2.5-0.3,4.3-1.3,4.5-2.6h-3.9v-1.2h10v1.2h-4c0.2,1.2,2,2.3,4.5,2.6
							l-0.5,1.2c-2.4-0.3-4.2-1.2-5-2.6c-0.7,1.4-2.6,2.4-5,2.6L179.4,176.1z M189.6,182.7c0,1.6-1.8,2.5-4.7,2.5
							c-2.9,0-4.7-0.9-4.7-2.5c0-1.6,1.8-2.5,4.7-2.5C187.8,180.2,189.6,181.1,189.6,182.7z M188,182.7c0-0.8-1.1-1.3-3.1-1.3
							s-3.1,0.4-3.1,1.3c0,0.8,1.1,1.3,3.1,1.3S188,183.5,188,182.7z"/>
						<path d="M196.5,179.3c0-3,0.8-5.4,2.2-7.7l1.1,0.5c-1.3,2.2-1.9,4.7-1.9,7.2c0,2.5,0.6,5.1,1.9,7.2l-1.1,0.5
							C197.4,184.7,196.5,182.3,196.5,179.3z"/>
						<path d="M201.4,178.5c0-3.6,2.2-5.8,5-5.8c1.4,0,2.5,0.7,3.1,1.4l-0.9,1.1c-0.6-0.6-1.3-1-2.2-1c-1.9,0-3.2,1.6-3.2,4.2
							c0,2.6,1.2,4.2,3.2,4.2c1,0,1.8-0.4,2.4-1.2l0.9,1.1c-0.9,1-2,1.6-3.4,1.6C203.5,184.2,201.4,182.1,201.4,178.5z"/>
						<path d="M211.7,173h1.7v11h-1.7V173z"/>
						<path d="M218.6,174.4h-3.2V173h8.2v1.5h-3.3v9.6h-1.7V174.4z"/>
						<path d="M224.7,186.5c1.3-2.1,1.9-4.7,1.9-7.2c0-2.5-0.6-5-1.9-7.2l1.1-0.5c1.4,2.3,2.2,4.7,2.2,7.7c0,3-0.8,5.4-2.2,7.7
							L224.7,186.5z"/>
					</g>
					<g class="st1">
						<path d="M143.1,70.9h2.3l1.5,5.4c0.3,1.2,0.6,2.3,0.9,3.6h0.1c0.3-1.2,0.6-2.4,0.9-3.6l1.4-5.4h2.2L149.2,82h-2.6L143.1,70.9z
							"/>
						<path d="M153.8,70.9h2.5l1.9,5.2c0.2,0.7,0.4,1.4,0.7,2.1h0.1c0.2-0.7,0.4-1.5,0.7-2.1l1.8-5.2h2.5V82h-2v-4.6
							c0-1,0.2-2.6,0.3-3.6h-0.1l-0.9,2.6l-1.7,4.7h-1.3l-1.7-4.7l-0.9-2.6h-0.1c0.1,1,0.3,2.6,0.3,3.6V82h-2V70.9z"/>
						<path d="M165.7,80.7l1-1.4c0.6,0.6,1.4,1.1,2.4,1.1c1.2,0,2-0.7,2-2c0-1.3-0.8-2-1.9-2c-0.7,0-1,0.2-1.7,0.6l-1-0.7l0.3-5.4
							h5.9v1.8h-4l-0.2,2.4c0.4-0.2,0.8-0.3,1.3-0.3c1.9,0,3.4,1.1,3.4,3.5c0,2.5-1.8,3.9-3.9,3.9C167.7,82.2,166.5,81.5,165.7,80.7
							z"/>
						<path d="M174.8,76.4c0-3.8,1.5-5.7,3.8-5.7c2.2,0,3.8,1.9,3.8,5.7s-1.5,5.8-3.8,5.8C176.3,82.2,174.8,80.2,174.8,76.4z
							 M180.2,76.4c0-3.1-0.7-4-1.7-4c-1,0-1.7,0.9-1.7,4c0,3.1,0.7,4.1,1.7,4.1C179.5,80.5,180.2,79.5,180.2,76.4z"/>
						<path d="M184.2,80.2h2.4v-7h-2v-1.4c1.1-0.2,1.9-0.5,2.6-0.9h1.6v9.3h2.1V82h-6.7V80.2z"/>
					</g>
				</g>
			</g>
		</g>
	</g>
</g>
</svg>
