<?xml version="1.0" encoding="utf-8"?>
<!-- Generator: Adobe Illustrator 23.1.1, SVG Export Plug-In . SVG Version: 6.00 Build 0)  -->
<svg version="1.1" id="Layer_1" xmlns="http://www.w3.org/2000/svg" xmlns:xlink="http://www.w3.org/1999/xlink" x="0px" y="0px"
	 viewBox="0 0 336 753" style="enable-background:new 0 0 336 753;" xml:space="preserve">
<style type="text/css">
	.st0{fill-rule:evenodd;clip-rule:evenodd;}
	.st1{enable-background:new    ;}
	.st2{fill:#FFFFFF;}
	.st3{fill:none;stroke:#979797;stroke-linecap:square;}
	.st4{font-family:'NotoSansKR-Medium-KSCpc-EUC-H';}
	.st5{font-size:15px;}
</style>
<title>table</title>
<desc>Created with Sketch.</desc>
<g id="Page-1">
	<g id="mobile1" transform="translate(-19.000000, -198.000000)">
		<g id="table" transform="translate(20.000000, 198.000000)">
			<g id="table1">
				<g id="cell1">
					<g>
						<path id="bg" class="st0" d="M8,0h318c4.4,0,8,3.6,8,8v34c0,4.4-3.6,8-8,8H8c-4.4,0-8-3.6-8-8V8C0,3.6,3.6,0,8,0z"/>
						<g class="st1">
							<path class="st2" d="M153.1,29.1v1.6h-12.5v-1.6H153.1z M143.4,21.2h-1.9v-1.6H152v1.6h-1.9v4.1h1.8V27h-10.4v-1.6h1.8V21.2z
								 M148.2,21.2h-2.8v4.1h2.8V21.2z"/>
							<path class="st2" d="M166.9,29.2v1.6h-12.5v-1.6h5.2v-2.1h-3.8v-4.7h7.7v-1.5h-7.7v-1.6h9.7V24h-7.7v1.5h8v1.6h-4.2v2.1
								H166.9z"/>
							<path class="st2" d="M180.6,28.9v1.6h-12.5v-1.6H180.6z M177.1,21.3h-7.7v-1.6h9.7v1.6c0,1.9,0,3.8-0.5,6.7l-2-0.2
								C177.1,25.2,177.1,23.3,177.1,21.3L177.1,21.3z"/>
							<path class="st2" d="M188.4,25.9c-1.6,0.3-2.9,0.3-5,0.3h-1V22h3.3v-1.1h-3.3v-1.5h5.2v4.1h-3.3v1.2c1.5,0,2.6-0.1,3.8-0.3
								L188.4,25.9z M184.4,27.2h9.4v4.9h-9.4V27.2z M186.3,30.6h5.5v-1.8h-5.5V30.6z M193.7,18.5v8.1h-1.9v-3.3h-1.1v3.2h-1.8v-7.8
								h1.8v3h1.1v-3.2H193.7z"/>
						</g>
					</g>
					<g transform="translate(0.000000, 102.000000)">
						<path class="st0" d="M8,0h318c4.4,0,8,3.6,8,8v34c0,4.4-3.6,8-8,8H8c-4.4,0-8-3.6-8-8V8C0,3.6,3.6,0,8,0z"/>
						<g class="st1">
							<path class="st2" d="M127.4,27.5c1.3,0,2.5-0.1,3.8-0.3l0.1,1.6c-1.7,0.3-3.1,0.4-4.9,0.4h-1v-9.1h5.1v1.6h-3.2V27.5z
								 M136.9,18.5v13.8H135v-6.9h-1.2v6.3h-1.8V18.7h1.8v5.1h1.2v-5.3H136.9z"/>
							<path class="st2" d="M146,26.1c-1.5-0.5-2.5-1.4-3-2.6c-0.6,1.4-1.7,2.4-3.2,3l-1-1.6c2.3-0.8,3.2-2.6,3.2-4.5v-1.2h2v1.4
								c0,1.7,0.9,3.3,3.1,4L146,26.1z M149.9,29.6c0,1.7-1.8,2.7-4.7,2.7c-2.9,0-4.7-1-4.7-2.7c0-1.7,1.8-2.7,4.7-2.7
								C148.1,27,149.9,28,149.9,29.6z M147.9,29.6c0-0.8-0.9-1.1-2.7-1.1c-1.8,0-2.7,0.4-2.7,1.1c0,0.8,0.9,1.1,2.7,1.1
								C147,30.8,147.9,30.4,147.9,29.6z M151.5,21.7v1.6h-1.8v3.3h-2v-8.2h2v3.2H151.5z"/>
							<path class="st2" d="M163.8,25.4c-1.6-0.4-2.7-1.3-3.3-2.5c-0.6,1.3-1.8,2.3-3.4,2.8l-0.9-1.5c2.1-0.6,3.1-2,3.3-3.5h-2.8
								v-1.6h7.5v1.6h-2.7c0.1,1.3,1.2,2.7,3.2,3.2L163.8,25.4z M167.9,30.7v1.5h-9.5v-3.8h7.2v-0.8h-7.2v-1.5h9.2v3.7h-7.2v0.9
								H167.9z M167.5,25.6h-2v-7.1h2V25.6z"/>
							<path class="st2" d="M178.4,27.3c-2.9,0.5-6.1,0.6-8.5,0.6l-0.2-1.5c1,0,2.1,0,3.3,0v-0.8c-1.5-0.2-2.4-1-2.4-2.1
								c0-1.3,1.3-2.1,3.4-2.1c2,0,3.4,0.8,3.4,2.1c0,1.1-0.9,1.8-2.4,2.1v0.7c1.1-0.1,2.2-0.2,3.3-0.3L178.4,27.3z M177.9,21H170
								v-1.4h2.9v-1.2h2v1.2h2.9V21z M173.6,30.5h7.7V32h-9.7v-3.5h2V30.5z M174,24.3c0.9,0,1.5-0.3,1.5-0.8c0-0.5-0.6-0.8-1.5-0.8
								s-1.5,0.3-1.5,0.8C172.5,24,173,24.3,174,24.3z M182.5,23v1.6h-1.7v4.6h-2V18.5h2V23H182.5z"/>
							<path class="st2" d="M196.2,25.6v1.6h-5.1v2.2h-2v-2.2h-5.4v-1.6H196.2z M187.1,30.5h7.7V32h-9.7v-3.8h2V30.5z M194.6,24.6
								h-9.3v-5.7h2v1.4h5.4v-1.4h2V24.6z M192.6,21.8h-5.4v1.2h5.4V21.8z"/>
							<path class="st2" d="M204.8,24.4c0,3-1.5,4.9-3.6,4.9c-2.1,0-3.6-1.9-3.6-4.9c0-3,1.5-4.9,3.6-4.9
								C203.2,19.4,204.8,21.3,204.8,24.4z M202.9,24.4c0-2-0.7-3.1-1.7-3.1c-1,0-1.7,1.1-1.7,3.1c0,2.1,0.7,3.1,1.7,3.1
								C202.2,27.5,202.9,26.4,202.9,24.4z M208.3,23.3v2.4h1.9v1.6h-1.9v4.9h-2V18.5h2v3.2h1.9v1.6H208.3z"/>
						</g>
					</g>
					<g class="st1">
						<path d="M98.2,179.2h-6.3v-6.4h6.3V179.2z M96.7,174h-3.3v3.9h3.3V174z M95,183.6h7.6v1.3h-9.1v-4.3H95V183.6z M103.9,175.6
							v1.3H102v4.6h-1.5v-9.9h1.5v4H103.9z"/>
						<path d="M112.4,179c-1.5-0.5-2.5-1.5-3.1-2.9c-0.6,1.5-1.7,2.7-3.4,3.3l-0.8-1.2c2.2-0.7,3.4-2.6,3.4-4.5v-1.3h1.6v1.3
							c0,1.9,1.1,3.6,3.2,4.2L112.4,179z M116.5,182.6c0,1.6-1.7,2.6-4.6,2.6c-2.8,0-4.6-1-4.6-2.6c0-1.6,1.7-2.6,4.6-2.6
							C114.8,180,116.5,180.9,116.5,182.6z M115,182.6c0-0.9-1.1-1.4-3-1.4s-3,0.5-3,1.4c0,0.9,1.1,1.4,3,1.4S115,183.4,115,182.6z
							 M114.9,175.6h-2.7v-1.3h2.7v-2.7h1.5v8h-1.5V175.6z"/>
						<path d="M129.5,179c-1.5-0.5-2.5-1.6-3.1-2.8c-0.6,1.5-1.7,2.6-3.3,3.2l-0.8-1.2c2.1-0.7,3.3-2.6,3.3-4.5v-1.3h1.6v1.5
							c0,1.7,1.2,3.4,3.2,4L129.5,179z M133.1,182.6c0,1.6-1.7,2.5-4.5,2.5c-2.8,0-4.5-0.9-4.5-2.5c0-1.6,1.7-2.5,4.5-2.5
							C131.4,180.1,133.1,181,133.1,182.6z M131.6,182.6c0-0.8-1.1-1.3-3-1.3c-1.9,0-3,0.5-3,1.3c0,0.9,1.1,1.3,3,1.3
							C130.5,183.9,131.6,183.5,131.6,182.6z M134.9,175v1.3H133v3.5h-1.5v-8.1h1.5v3.4H134.9z"/>
						<path d="M141,175.9c0,2.1,1.3,4.3,3.3,5.3l-0.8,1.2c-1.5-0.7-2.7-2.1-3.3-3.8c-0.6,1.8-1.7,3.3-3.3,4l-0.9-1.2
							c2.1-1,3.3-3.3,3.3-5.5v-0.8h-2.9v-1.2h2.9v-2h1.6v2h2.8v1.2H141V175.9z M147.4,171.6v13.6h-1.5v-7h-2.7v-1.3h2.7v-5.4H147.4z
							"/>
						<path d="M150,186c1-0.4,1.6-1.2,1.6-2.1c-0.1,0-0.1,0-0.2,0c-0.6,0-1.2-0.4-1.2-1.1c0-0.7,0.5-1.1,1.2-1.1
							c0.8,0,1.3,0.7,1.3,1.9c0,1.6-0.9,2.8-2.5,3.4L150,186z"/>
						<path d="M164.6,177.8h-6.3v-5.5h6.3V177.8z M161.2,183.8h7.7v1.2h-9.2v-3.6h7.2v-1.2h-7.2V179h8.7v3.5h-7.2V183.8z
							 M163.1,173.5h-3.3v3.1h3.3V173.5z M170.3,174.4v1.3h-1.9v2.8h-1.5v-6.8h1.5v2.8H170.3z"/>
						<path d="M183.9,182.3v1.3h-12.3v-1.3h5.4v-2.9h1.5v2.9H183.9z M172.2,178.6c2.8-0.4,4.7-1.9,4.8-3.8h-4.2v-1.3h4.3v-1.8h1.5
							v1.8h4.2v1.3h-4.2c0.1,1.8,2,3.4,4.8,3.8l-0.6,1.2c-2.3-0.4-4.1-1.4-5-2.9c-0.9,1.5-2.7,2.6-5,2.9L172.2,178.6z"/>
						<path d="M197.7,178.2v1.3h-12.2v-1.3h5.3v-1.3H187v-4.6h9.2v1.2h-7.7v2.1h7.8v1.2h-3.9v1.3H197.7z M196.2,182.7
							c0,1.6-1.8,2.5-4.7,2.5c-2.9,0-4.7-0.9-4.7-2.5c0-1.6,1.8-2.5,4.7-2.5C194.4,180.2,196.2,181.1,196.2,182.7z M194.6,182.7
							c0-0.8-1.1-1.3-3.1-1.3s-3.1,0.5-3.1,1.3c0,0.8,1.1,1.3,3.1,1.3S194.6,183.5,194.6,182.7z"/>
						<path d="M205.1,178.8h-5.3v-6h5.3V178.8z M203.6,174h-2.4v3.6h2.4V174z M201.5,180.4h9.2v4.8h-1.5v-3.5h-7.7V180.4z
							 M210.7,171.6v8.1h-1.5v-3.4h-1.4v3.3h-1.5v-7.7h1.5v3.1h1.4v-3.4H210.7z"/>
						<path d="M220.7,178.4c-1.6-0.5-2.8-1.5-3.4-2.7c-0.6,1.4-1.8,2.5-3.4,3l-0.7-1.2c2.1-0.6,3.3-2.2,3.4-3.9h-2.9v-1.2h7.4v1.2
							h-2.9c0,1.6,1.2,3.1,3.3,3.6L220.7,178.4z M224.6,183.8v1.2h-9.3v-3.5h7.3v-1.1h-7.3v-1.2h8.9v3.4h-7.3v1.2H224.6z
							 M224.2,178.6h-1.6v-7h1.6V178.6z"/>
						<path d="M235.3,180.1c-2.8,0.5-6.1,0.6-8.4,0.6l-0.2-1.2c1,0,2.2,0,3.4,0v-0.9c-1.5-0.2-2.5-0.9-2.5-2c0-1.3,1.3-2.1,3.2-2.1
							c1.9,0,3.2,0.8,3.2,2.1c0,1.1-0.9,1.8-2.4,2v0.9c1.2-0.1,2.4-0.2,3.4-0.3L235.3,180.1z M234.8,174h-7.7v-1.1h3.1v-1.3h1.6v1.3
							h3.1V174z M230.2,183.6h7.7v1.3h-9.2v-3.4h1.5V183.6z M230.9,177.5c1.1,0,1.8-0.4,1.8-1c0-0.6-0.7-1-1.8-1s-1.8,0.4-1.8,1
							C229.2,177.2,229.9,177.5,230.9,177.5z M239.3,176.2v1.3h-1.9v4.7h-1.5v-10.6h1.5v4.6H239.3z"/>
						<path d="M240.7,186c1-0.4,1.6-1.2,1.6-2.1c-0.1,0-0.1,0-0.2,0c-0.6,0-1.2-0.4-1.2-1.1c0-0.7,0.5-1.1,1.2-1.1
							c0.8,0,1.3,0.7,1.3,1.9c0,1.6-0.9,2.8-2.5,3.4L240.7,186z"/>
					</g>
					<g class="st1">
						<path d="M115.5,202.5c0.6-0.1,1.3-0.1,1.9-0.2l0.1,1.1c-2.8,0.5-5.9,0.5-8.3,0.5l-0.2-1.3c0.5,0,1.1,0,1.7,0v-6.4h-1.3V195
							h7.5v1.2h-1.3V202.5z M112.1,202.6c0.6,0,1.2,0,1.8-0.1v-6.3h-1.8V202.6z M121.7,200.2h-2.1v7h-1.5v-13.6h1.5v5.3h2.1V200.2z"
							/>
						<path d="M129.6,196.3h-6.7v-1.2h2.6v-1.4h1.5v1.4h2.6V196.3z M126.3,201.6c-1.7,0-2.9-0.9-2.9-2.3c0-1.4,1.2-2.3,2.9-2.3
							c1.7,0,2.9,0.9,2.9,2.3C129.2,200.7,128,201.6,126.3,201.6z M126.3,200.5c0.9,0,1.5-0.5,1.5-1.2c0-0.7-0.6-1.2-1.5-1.2
							c-0.9,0-1.5,0.5-1.5,1.2C124.7,200,125.3,200.5,126.3,200.5z M134.5,204.7c0,1.5-1.7,2.4-4.6,2.4s-4.6-0.9-4.6-2.4
							c0-1.5,1.7-2.4,4.6-2.4S134.5,203.2,134.5,204.7z M132.9,204.7c0-0.8-1.1-1.2-3-1.2c-1.9,0-3,0.4-3,1.2c0,0.8,1.1,1.2,3,1.2
							C131.9,206,132.9,205.5,132.9,204.7z M131.5,201.7h-1.4v-7.8h1.4v3.3h1.4v-3.5h1.5v8.5h-1.5v-3.7h-1.4V201.7z"/>
						<path d="M136.8,208c1-0.4,1.6-1.2,1.6-2.1c-0.1,0-0.1,0-0.2,0c-0.6,0-1.2-0.4-1.2-1.1c0-0.7,0.5-1.1,1.2-1.1
							c0.8,0,1.3,0.7,1.3,1.9c0,1.6-0.9,2.8-2.5,3.4L136.8,208z"/>
						<path d="M153,201.2c-2.8,0.5-6,0.6-8.4,0.6l-0.2-1.3c0.8,0,1.7,0,2.7,0v-2.8h1.5v2.7c1.4-0.1,2.9-0.2,4.2-0.4L153,201.2z
							 M150.2,199.2c0.3-1.5,0.3-2.5,0.3-3.4h-5.3v-1.3h6.8v0.8c0,0.9,0,2.2-0.3,4L150.2,199.2z M148,205.6h7.6v1.3h-9.2v-4h1.6
							V205.6z M157.1,197.9v1.3h-1.8v4.6h-1.6v-10.2h1.6v4.3H157.1z"/>
						<path d="M165.5,201c-1.5-0.5-2.5-1.6-3.1-2.8c-0.6,1.5-1.7,2.6-3.3,3.2l-0.8-1.2c2.1-0.7,3.3-2.6,3.3-4.5v-1.3h1.6v1.5
							c0,1.7,1.2,3.4,3.2,4L165.5,201z M169.1,204.6c0,1.6-1.7,2.5-4.5,2.5c-2.8,0-4.5-0.9-4.5-2.5c0-1.6,1.7-2.5,4.5-2.5
							C167.4,202.1,169.1,203,169.1,204.6z M167.6,204.6c0-0.8-1.1-1.3-3-1.3c-1.9,0-3,0.5-3,1.3c0,0.9,1.1,1.3,3,1.3
							C166.5,205.9,167.6,205.5,167.6,204.6z M170.9,197v1.3H169v3.5h-1.5v-8.1h1.5v3.4H170.9z"/>
						<path d="M184.4,200.2v1.3h-12.2v-1.3h5.3v-1.3h-3.8v-4.6h9.2v1.2h-7.7v2.1h7.8v1.2h-3.9v1.3H184.4z M182.9,204.7
							c0,1.6-1.8,2.5-4.7,2.5c-2.9,0-4.7-0.9-4.7-2.5c0-1.6,1.8-2.5,4.7-2.5C181.2,202.2,182.9,203.1,182.9,204.7z M181.4,204.7
							c0-0.8-1.1-1.3-3.1-1.3c-2,0-3.1,0.5-3.1,1.3c0,0.8,1.1,1.3,3.1,1.3C180.3,206,181.4,205.5,181.4,204.7z"/>
						<path d="M191.8,200.8h-5.3v-6h5.3V200.8z M190.4,196H188v3.6h2.4V196z M188.3,202.4h9.2v4.8h-1.5v-3.5h-7.7V202.4z
							 M197.4,193.6v8.1H196v-3.4h-1.4v3.3h-1.5v-7.7h1.5v3.1h1.4v-3.4H197.4z"/>
						<path d="M207.4,200.4c-1.6-0.5-2.8-1.5-3.4-2.7c-0.6,1.4-1.8,2.5-3.4,3l-0.7-1.2c2.1-0.6,3.3-2.2,3.4-3.9h-2.9v-1.2h7.4v1.2
							h-2.9c0,1.6,1.2,3.1,3.3,3.6L207.4,200.4z M211.4,205.8v1.2h-9.3v-3.5h7.3v-1.1h-7.3v-1.2h8.9v3.4h-7.3v1.2H211.4z
							 M210.9,200.6h-1.6v-7h1.6V200.6z"/>
						<path d="M222,202.1c-2.8,0.5-6.1,0.6-8.4,0.6l-0.2-1.2c1,0,2.2,0,3.5,0v-0.9c-1.5-0.2-2.5-0.9-2.5-2c0-1.3,1.3-2.1,3.2-2.1
							s3.2,0.8,3.2,2.1c0,1.1-0.9,1.8-2.4,2v0.9c1.2-0.1,2.4-0.2,3.5-0.3L222,202.1z M221.6,196h-7.7v-1.1h3.1v-1.3h1.6v1.3h3.1V196
							z M217,205.6h7.7v1.3h-9.2v-3.4h1.5V205.6z M217.7,199.5c1.1,0,1.8-0.4,1.8-1c0-0.6-0.7-1-1.8-1s-1.8,0.4-1.8,1
							C215.9,199.2,216.6,199.5,217.7,199.5z M226.1,198.2v1.3h-1.9v4.7h-1.5v-10.6h1.5v4.6H226.1z"/>
					</g>
					<g class="st1">
						<path d="M150.2,73.6h1.8l0.1,0.9h0.1c0.7-0.6,1.6-1.1,2.5-1.1c2.1,0,3.3,1.7,3.3,4.3c0,2.9-1.7,4.5-3.6,4.5
							c-0.7,0-1.4-0.3-2.1-0.9l0.1,1.4v2.5h-2.2V73.6z M155.7,77.7c0-1.6-0.5-2.5-1.7-2.5c-0.6,0-1.1,0.3-1.7,0.9v3.7
							c0.5,0.5,1.1,0.6,1.5,0.6C154.9,80.4,155.7,79.5,155.7,77.7z"/>
						<path d="M160,70.9h2.2V82H160V70.9z"/>
						<path d="M165,70.9h2.2v4.8h0l3.7-4.8h2.4l-3.4,4.4l4,6.7h-2.4l-2.9-5l-1.5,1.9V82H165V70.9z"/>
						<path d="M174.3,76.4c0-3.6,2-5.7,5-5.7c2.9,0,5,2.1,5,5.7s-2,5.8-5,5.8C176.3,82.2,174.3,80,174.3,76.4z M181.9,76.4
							c0-2.4-1-3.8-2.7-3.8c-1.7,0-2.7,1.4-2.7,3.8c0,2.4,1.1,3.9,2.7,3.9C180.9,80.3,181.9,78.8,181.9,76.4z"/>
					</g>
					<line id="divider" class="st3" x1="0" y1="241" x2="334" y2="241"/>
				</g>
				<g id="cell2" transform="translate(0.000000, 272.000000)">
					<g>
						<path class="st0" d="M8,0h318c4.4,0,8,3.6,8,8v34c0,4.4-3.6,8-8,8H8c-4.4,0-8-3.6-8-8V8C0,3.6,3.6,0,8,0z"/>
						<g class="st1">
							<path class="st2" d="M153.1,29.1v1.6h-12.5v-1.6H153.1z M143.4,21.2h-1.9v-1.6H152v1.6h-1.9v4.1h1.8V27h-10.4v-1.6h1.8V21.2z
								 M148.2,21.2h-2.8v4.1h2.8V21.2z"/>
							<path class="st2" d="M166.9,29.2v1.6h-12.5v-1.6h5.2v-2.1h-3.8v-4.7h7.7v-1.5h-7.7v-1.6h9.7V24h-7.7v1.5h8v1.6h-4.2v2.1
								H166.9z"/>
							<path class="st2" d="M180.6,28.9v1.6h-12.5v-1.6H180.6z M177.1,21.3h-7.7v-1.6h9.7v1.6c0,1.9,0,3.8-0.5,6.7l-2-0.2
								C177.1,25.2,177.1,23.3,177.1,21.3L177.1,21.3z"/>
							<path class="st2" d="M188.4,25.9c-1.6,0.3-2.9,0.3-5,0.3h-1V22h3.3v-1.1h-3.3v-1.5h5.2v4.1h-3.3v1.2c1.5,0,2.6-0.1,3.8-0.3
								L188.4,25.9z M184.4,27.2h9.4v4.9h-9.4V27.2z M186.3,30.6h5.5v-1.8h-5.5V30.6z M193.7,18.5v8.1h-1.9v-3.3h-1.1v3.2h-1.8v-7.8
								h1.8v3h1.1v-3.2H193.7z"/>
						</g>
					</g>
					<g transform="translate(0.000000, 102.000000)">
						<path class="st0" d="M8,0h318c4.4,0,8,3.6,8,8v34c0,4.4-3.6,8-8,8H8c-4.4,0-8-3.6-8-8V8C0,3.6,3.6,0,8,0z"/>
						<g class="st1">
							<path class="st2" d="M127.4,27.5c1.3,0,2.5-0.1,3.8-0.3l0.1,1.6c-1.7,0.3-3.1,0.4-4.9,0.4h-1v-9.1h5.1v1.6h-3.2V27.5z
								 M136.9,18.5v13.8H135v-6.9h-1.2v6.3h-1.8V18.7h1.8v5.1h1.2v-5.3H136.9z"/>
							<path class="st2" d="M146,26.1c-1.5-0.5-2.5-1.4-3-2.6c-0.6,1.4-1.7,2.4-3.2,3l-1-1.6c2.3-0.8,3.2-2.6,3.2-4.5v-1.2h2v1.4
								c0,1.7,0.9,3.3,3.1,4L146,26.1z M149.9,29.6c0,1.7-1.8,2.7-4.7,2.7c-2.9,0-4.7-1-4.7-2.7c0-1.7,1.8-2.7,4.7-2.7
								C148.1,27,149.9,28,149.9,29.6z M147.9,29.6c0-0.8-0.9-1.1-2.7-1.1c-1.8,0-2.7,0.4-2.7,1.1c0,0.8,0.9,1.1,2.7,1.1
								C147,30.8,147.9,30.4,147.9,29.6z M151.5,21.7v1.6h-1.8v3.3h-2v-8.2h2v3.2H151.5z"/>
							<path class="st2" d="M163.8,25.4c-1.6-0.4-2.7-1.3-3.3-2.5c-0.6,1.3-1.8,2.3-3.4,2.8l-0.9-1.5c2.1-0.6,3.1-2,3.3-3.5h-2.8
								v-1.6h7.5v1.6h-2.7c0.1,1.3,1.2,2.7,3.2,3.2L163.8,25.4z M167.9,30.7v1.5h-9.5v-3.8h7.2v-0.8h-7.2v-1.5h9.2v3.7h-7.2v0.9
								H167.9z M167.5,25.6h-2v-7.1h2V25.6z"/>
							<path class="st2" d="M178.4,27.3c-2.9,0.5-6.1,0.6-8.5,0.6l-0.2-1.5c1,0,2.1,0,3.3,0v-0.8c-1.5-0.2-2.4-1-2.4-2.1
								c0-1.3,1.3-2.1,3.4-2.1c2,0,3.4,0.8,3.4,2.1c0,1.1-0.9,1.8-2.4,2.1v0.7c1.1-0.1,2.2-0.2,3.3-0.3L178.4,27.3z M177.9,21H170
								v-1.4h2.9v-1.2h2v1.2h2.9V21z M173.6,30.5h7.7V32h-9.7v-3.5h2V30.5z M174,24.3c0.9,0,1.5-0.3,1.5-0.8c0-0.5-0.6-0.8-1.5-0.8
								s-1.5,0.3-1.5,0.8C172.5,24,173,24.3,174,24.3z M182.5,23v1.6h-1.7v4.6h-2V18.5h2V23H182.5z"/>
							<path class="st2" d="M196.2,25.6v1.6h-5.1v2.2h-2v-2.2h-5.4v-1.6H196.2z M187.1,30.5h7.7V32h-9.7v-3.8h2V30.5z M194.6,24.6
								h-9.3v-5.7h2v1.4h5.4v-1.4h2V24.6z M192.6,21.8h-5.4v1.2h5.4V21.8z"/>
							<path class="st2" d="M204.8,24.4c0,3-1.5,4.9-3.6,4.9c-2.1,0-3.6-1.9-3.6-4.9c0-3,1.5-4.9,3.6-4.9
								C203.2,19.4,204.8,21.3,204.8,24.4z M202.9,24.4c0-2-0.7-3.1-1.7-3.1c-1,0-1.7,1.1-1.7,3.1c0,2.1,0.7,3.1,1.7,3.1
								C202.2,27.5,202.9,26.4,202.9,24.4z M208.3,23.3v2.4h1.9v1.6h-1.9v4.9h-2V18.5h2v3.2h1.9v1.6H208.3z"/>
						</g>
					</g>
					<g class="st1">
						<path d="M119.2,177.7v1.3h-12.3v-1.3h8.9c0.3-1.7,0.4-3,0.4-4.1h-7.7v-1.2h9.2v1.1c0,1.2,0,2.5-0.3,4.2H119.2z M110,183.6h8
							v1.2h-9.6v-4.5h1.5V183.6z"/>
						<path d="M129.6,179.5c-1.2,0.2-2.4,0.4-3.6,0.5v4.8h-1.5v-4.7c-1.3,0-2.5,0.1-3.5,0.1l-0.2-1.3c2.4,0,5.8,0,8.8-0.5
							L129.6,179.5z M121.6,175c0-1.7,1.5-2.8,3.5-2.8s3.5,1.2,3.5,2.8c0,1.7-1.5,2.8-3.5,2.8S121.6,176.7,121.6,175z M123.1,175
							c0,1,0.8,1.6,2,1.6c1.2,0,2-0.6,2-1.6c0-0.9-0.8-1.6-2-1.6C123.9,173.5,123.1,174.1,123.1,175z M131.9,171.6v13.6h-1.5v-13.6
							H131.9z"/>
						<path d="M141.4,179.6v1.4h3.9v4.2h-1.5v-2.9h-7.8V181h4v-1.4h-5.4v-1.2h12.3v1.2H141.4z M135.1,176.6c2.7-0.2,4.5-1.2,4.6-2.4
							h-4v-1.2h4.1v-1.3h1.5v1.3h4.1v1.2h-4c0.1,1.2,1.8,2.2,4.6,2.4l-0.5,1.2c-2.4-0.2-4.2-1-5-2.2c-0.8,1.2-2.7,2-5,2.2
							L135.1,176.6z"/>
						<path d="M148.3,186c1-0.4,1.6-1.2,1.6-2.1c-0.1,0-0.1,0-0.2,0c-0.6,0-1.2-0.4-1.2-1.1c0-0.7,0.5-1.1,1.2-1.1
							c0.8,0,1.3,0.7,1.3,1.9c0,1.6-0.9,2.8-2.5,3.4L148.3,186z"/>
						<path d="M168.4,177.7v1.3h-12.3v-1.3h8.9c0.3-1.7,0.4-3,0.4-4.1h-7.7v-1.2h9.2v1.1c0,1.2,0,2.5-0.3,4.2H168.4z M159.3,183.6h8
							v1.2h-9.6v-4.5h1.5V183.6z"/>
						<path d="M179.1,179.3v1.5h1.6v4.4h-1.5V182h-7.8v-1.2h1.7v-1.5h-3.1V178h12.3v1.2H179.1z M171.2,174.5c0-1.6,1.9-2.6,4.8-2.6
							c2.9,0,4.8,1,4.8,2.6s-1.9,2.6-4.8,2.6C173.1,177.2,171.2,176.2,171.2,174.5z M172.8,174.5c0,0.9,1.2,1.4,3.2,1.4
							c2,0,3.2-0.5,3.2-1.4c0-0.9-1.2-1.4-3.2-1.4C174,173.1,172.8,173.6,172.8,174.5z M177.6,179.3h-3v1.5h3V179.3z"/>
						<path d="M190.6,172.4c0,3.5-2.3,6-6.3,7l-0.6-1.2c3.2-0.8,5-2.5,5.3-4.5h-4.6v-1.3H190.6z M185.7,179.8h8.7v5.2h-8.7V179.8z
							 M187.2,183.7h5.6v-2.7h-5.6V183.7z M196.2,176h-1.9v3.2h-1.5v-7.6h1.5v3.1h1.9V176z"/>
						<path d="M209.8,182.2v1.3h-12.3v-1.3h5.3V179h1.5v3.2H209.8z M208.7,179.3c-2.2-0.4-4.1-1.8-5-3.6c-0.9,1.8-2.8,3.1-5,3.6
							L198,178c2.7-0.5,4.9-2.5,4.9-4.6v-1h1.6v1c0,2.1,2.2,4.1,4.8,4.6L208.7,179.3z"/>
						<path d="M223.6,178v1.2h-12.3V178H223.6z M212,176.1c2.5-0.3,4.3-1.3,4.5-2.6h-3.9v-1.2h10v1.2h-4c0.2,1.2,1.9,2.3,4.5,2.6
							l-0.5,1.2c-2.4-0.3-4.2-1.2-5-2.6c-0.7,1.4-2.6,2.4-5,2.6L212,176.1z M222.1,182.7c0,1.6-1.8,2.5-4.7,2.5
							c-2.9,0-4.7-0.9-4.7-2.5c0-1.6,1.8-2.5,4.7-2.5C220.4,180.2,222.1,181.1,222.1,182.7z M220.5,182.7c0-0.8-1.1-1.3-3.1-1.3
							s-3.1,0.4-3.1,1.3c0,0.8,1.1,1.3,3.1,1.3S220.5,183.5,220.5,182.7z"/>
						<path d="M225.2,186c1-0.4,1.6-1.2,1.6-2.1c-0.1,0-0.1,0-0.2,0c-0.6,0-1.2-0.4-1.2-1.1c0-0.7,0.5-1.1,1.2-1.1
							c0.8,0,1.3,0.7,1.3,1.9c0,1.6-0.9,2.8-2.5,3.4L225.2,186z"/>
					</g>
					<g class="st1">
						<path d="M123.4,203c1.2-0.1,2.5-0.2,3.6-0.3l0.1,1.1c-3,0.6-6.2,0.6-8.6,0.6l-0.2-1.3c1,0,2.3,0,3.5,0v-2.1
							c-1.7-0.3-2.9-1.5-2.9-3.2c0-1.9,1.6-3.3,3.7-3.3c2.1,0,3.7,1.3,3.7,3.3c0,1.7-1.2,2.9-2.9,3.2V203z M122.6,199.6
							c1.3,0,2.2-0.8,2.2-1.9c0-1.2-0.9-1.9-2.2-1.9c-1.2,0-2.2,0.8-2.2,1.9C120.5,198.9,121.4,199.6,122.6,199.6z M129.4,193.6
							v13.6h-1.6v-13.6H129.4z"/>
						<path d="M139.1,201c-1.5-0.5-2.5-1.6-3.1-2.8c-0.6,1.5-1.7,2.6-3.3,3.2l-0.8-1.2c2.1-0.7,3.3-2.6,3.3-4.5v-1.3h1.6v1.5
							c0,1.7,1.2,3.4,3.2,4L139.1,201z M142.8,204.6c0,1.6-1.7,2.5-4.5,2.5c-2.8,0-4.5-0.9-4.5-2.5c0-1.6,1.7-2.5,4.5-2.5
							C141.1,202.1,142.8,203,142.8,204.6z M141.3,204.6c0-0.8-1.1-1.3-3-1.3c-1.9,0-3,0.5-3,1.3c0,0.9,1.1,1.3,3,1.3
							C140.2,205.9,141.3,205.5,141.3,204.6z M144.6,197v1.3h-1.9v3.5h-1.5v-8.1h1.5v3.4H144.6z"/>
						<path d="M153.1,201c-1.5-0.5-2.5-1.5-3.1-2.9c-0.6,1.5-1.7,2.7-3.4,3.3l-0.8-1.2c2.2-0.7,3.4-2.6,3.4-4.5v-1.3h1.6v1.3
							c0,1.9,1.1,3.6,3.2,4.2L153.1,201z M157.2,204.6c0,1.6-1.7,2.6-4.6,2.6c-2.8,0-4.6-1-4.6-2.6c0-1.6,1.7-2.6,4.6-2.6
							C155.4,202,157.2,202.9,157.2,204.6z M155.6,204.6c0-0.9-1.1-1.4-3-1.4s-3,0.5-3,1.4c0,0.9,1.1,1.4,3,1.4
							S155.6,205.4,155.6,204.6z M155.6,197.6h-2.7v-1.3h2.7v-2.7h1.5v8h-1.5V197.6z"/>
						<path d="M170.5,201.4c-1.5-0.6-2.7-1.7-3.2-3.1c-0.6,1.5-1.7,2.7-3.3,3.3l-0.8-1.2c2.1-0.8,3.3-2.7,3.3-4.7v-1.3h1.6v1.3
							c0,1.9,1.2,3.7,3.3,4.5L170.5,201.4z M174.6,205.6v1.3h-9.2v-4.3h1.6v3H174.6z M174.2,203.5h-1.5v-9.9h1.5V203.5z"/>
						<path d="M183.4,197.2c-0.8,2.2-2.8,3.7-5.8,4.5l-0.6-1.2c3.2-0.9,4.9-2.5,5.2-4.7h-4.5v-1.2h6.1c0,0.5,0,0.9-0.1,1.3h2.8v-2.3
							h1.5v8h-1.5V200h-3.3v-1.3h3.3v-1.6H183.4z M188.2,204.4c0,1.7-1.8,2.7-4.5,2.7s-4.5-1-4.5-2.7c0-1.7,1.8-2.7,4.5-2.7
							S188.2,202.8,188.2,204.4z M186.6,204.4c0-0.9-1.2-1.5-3-1.5c-1.8,0-3,0.5-3,1.5c0,0.9,1.2,1.5,3,1.5
							C185.5,205.9,186.6,205.4,186.6,204.4z"/>
						<path d="M202.9,200.8v1.3h-12.3v-1.3h5.3v-2.1h1.5v2.1H202.9z M201.5,199.5c-2.1-0.4-3.9-1.5-4.8-2.9
							c-0.9,1.5-2.6,2.6-4.8,2.9l-0.6-1.2c2.7-0.4,4.6-2,4.6-3.8V194h1.6v0.5c0,1.8,1.9,3.4,4.6,3.8L201.5,199.5z M193.7,205.6h7.8
							v1.3h-9.3V203h1.6V205.6z"/>
						<path d="M211.5,201c-1.5-0.5-2.5-1.6-3.1-2.8c-0.6,1.5-1.7,2.6-3.3,3.2l-0.8-1.2c2.1-0.7,3.3-2.6,3.3-4.5v-1.3h1.6v1.5
							c0,1.7,1.2,3.4,3.2,4L211.5,201z M215.2,204.6c0,1.6-1.7,2.5-4.5,2.5c-2.8,0-4.5-0.9-4.5-2.5c0-1.6,1.7-2.5,4.5-2.5
							C213.5,202.1,215.2,203,215.2,204.6z M213.6,204.6c0-0.8-1.1-1.3-3-1.3s-3,0.5-3,1.3c0,0.9,1.1,1.3,3,1.3
							S213.6,205.5,213.6,204.6z M216.9,197v1.3H215v3.5h-1.5v-8.1h1.5v3.4H216.9z"/>
					</g>
					<g class="st1">
						<path d="M146.2,73.6h1.8l0.1,0.9h0.1c0.7-0.6,1.6-1.1,2.5-1.1c2.1,0,3.3,1.7,3.3,4.3c0,2.9-1.7,4.5-3.6,4.5
							c-0.7,0-1.4-0.3-2.1-0.9l0.1,1.4v2.5h-2.2V73.6z M151.7,77.7c0-1.6-0.5-2.5-1.7-2.5c-0.6,0-1.1,0.3-1.7,0.9v3.7
							c0.5,0.5,1.1,0.6,1.5,0.6C151,80.4,151.7,79.5,151.7,77.7z"/>
						<path d="M156.1,70.9h2.5l1.9,5.2c0.2,0.7,0.4,1.4,0.7,2.1h0.1c0.2-0.7,0.4-1.5,0.7-2.1l1.8-5.2h2.5V82h-2v-4.6
							c0-1,0.2-2.6,0.3-3.6h-0.1l-0.9,2.6l-1.7,4.7h-1.3l-1.7-4.7l-0.9-2.6h-0.1c0.1,1,0.3,2.6,0.3,3.6V82h-2V70.9z"/>
						<path d="M168.8,77v-6.1h2.2v6.3c0,2.3,0.8,3.1,2.1,3.1c1.3,0,2.2-0.8,2.2-3.1v-6.3h2.1V77c0,3.7-1.6,5.2-4.3,5.2
							C170.4,82.2,168.8,80.7,168.8,77z"/>
						<path d="M180.1,70.9h2.3l3.2,5.9l1.1,2.4h0.1c-0.1-1.2-0.3-2.6-0.3-3.9v-4.4h2.1V82h-2.2l-3.2-5.9l-1.1-2.4h-0.1
							c0.1,1.2,0.3,2.6,0.3,3.9V82h-2.1V70.9z"/>
					</g>
					<line class="st3" x1="0" y1="241" x2="334" y2="241"/>
				</g>
				<g id="cell3" transform="translate(0.000000, 544.000000)">
					<g>
						<path class="st0" d="M8,0h318c4.4,0,8,3.6,8,8v34c0,4.4-3.6,8-8,8H8c-4.4,0-8-3.6-8-8V8C0,3.6,3.6,0,8,0z"/>
						<g class="st1">
							<path class="st2" d="M152.6,29.1v1.6H140v-1.6H152.6z M142.9,21.2H141v-1.6h10.5v1.6h-1.9v4.1h1.8V27h-10.4v-1.6h1.8V21.2z
								 M147.7,21.2h-2.8v4.1h2.8V21.2z"/>
							<path class="st2" d="M166.4,29.2v1.6h-12.5v-1.6h5.2v-2.1h-3.8v-4.7h7.7v-1.5h-7.7v-1.6h9.7V24h-7.7v1.5h8v1.6h-4.2v2.1
								H166.4z"/>
							<path class="st2" d="M180.1,28.9v1.6h-12.5v-1.6H180.1z M176.6,21.3h-7.7v-1.6h9.7v1.6c0,1.9,0,3.8-0.5,6.7l-2-0.2
								C176.6,25.2,176.6,23.3,176.6,21.3L176.6,21.3z"/>
							<path class="st2" d="M187.9,25.9c-1.6,0.3-2.9,0.3-5,0.3h-1V22h3.3v-1.1H182v-1.5h5.2v4.1h-3.3v1.2c1.5,0,2.6-0.1,3.8-0.3
								L187.9,25.9z M183.9,27.2h9.4v4.9h-9.4V27.2z M185.8,30.6h5.5v-1.8h-5.5V30.6z M193.2,18.5v8.1h-1.9v-3.3h-1.1v3.2h-1.8v-7.8
								h1.8v3h1.1v-3.2H193.2z"/>
						</g>
					</g>
					<g transform="translate(0.000000, 102.000000)">
						<path class="st0" d="M8,0h318c4.4,0,8,3.6,8,8v34c0,4.4-3.6,8-8,8H8c-4.4,0-8-3.6-8-8V8C0,3.6,3.6,0,8,0z"/>
						<g class="st1">
							<path class="st2" d="M127.4,27.5c1.3,0,2.5-0.1,3.8-0.3l0.1,1.6c-1.7,0.3-3.1,0.4-4.9,0.4h-1v-9.1h5.1v1.6h-3.2V27.5z
								 M136.9,18.5v13.8H135v-6.9h-1.2v6.3h-1.8V18.7h1.8v5.1h1.2v-5.3H136.9z"/>
							<path class="st2" d="M146,26.1c-1.5-0.5-2.5-1.4-3-2.6c-0.6,1.4-1.7,2.4-3.2,3l-1-1.6c2.3-0.8,3.2-2.6,3.2-4.5v-1.2h2v1.4
								c0,1.7,0.9,3.3,3.1,4L146,26.1z M149.9,29.6c0,1.7-1.8,2.7-4.7,2.7c-2.9,0-4.7-1-4.7-2.7c0-1.7,1.8-2.7,4.7-2.7
								C148.1,27,149.9,28,149.9,29.6z M147.9,29.6c0-0.8-0.9-1.1-2.7-1.1c-1.8,0-2.7,0.4-2.7,1.1c0,0.8,0.9,1.1,2.7,1.1
								C147,30.8,147.9,30.4,147.9,29.6z M151.5,21.7v1.6h-1.8v3.3h-2v-8.2h2v3.2H151.5z"/>
							<path class="st2" d="M163.8,25.4c-1.6-0.4-2.7-1.3-3.3-2.5c-0.6,1.3-1.8,2.3-3.4,2.8l-0.9-1.5c2.1-0.6,3.1-2,3.3-3.5h-2.8
								v-1.6h7.5v1.6h-2.7c0.1,1.3,1.2,2.7,3.2,3.2L163.8,25.4z M167.9,30.7v1.5h-9.5v-3.8h7.2v-0.8h-7.2v-1.5h9.2v3.7h-7.2v0.9
								H167.9z M167.5,25.6h-2v-7.1h2V25.6z"/>
							<path class="st2" d="M178.4,27.3c-2.9,0.5-6.1,0.6-8.5,0.6l-0.2-1.5c1,0,2.1,0,3.3,0v-0.8c-1.5-0.2-2.4-1-2.4-2.1
								c0-1.3,1.3-2.1,3.4-2.1c2,0,3.4,0.8,3.4,2.1c0,1.1-0.9,1.8-2.4,2.1v0.7c1.1-0.1,2.2-0.2,3.3-0.3L178.4,27.3z M177.9,21H170
								v-1.4h2.9v-1.2h2v1.2h2.9V21z M173.6,30.5h7.7V32h-9.7v-3.5h2V30.5z M174,24.3c0.9,0,1.5-0.3,1.5-0.8c0-0.5-0.6-0.8-1.5-0.8
								s-1.5,0.3-1.5,0.8C172.5,24,173,24.3,174,24.3z M182.5,23v1.6h-1.7v4.6h-2V18.5h2V23H182.5z"/>
							<path class="st2" d="M196.2,25.6v1.6h-5.1v2.2h-2v-2.2h-5.4v-1.6H196.2z M187.1,30.5h7.7V32h-9.7v-3.8h2V30.5z M194.6,24.6
								h-9.3v-5.7h2v1.4h5.4v-1.4h2V24.6z M192.6,21.8h-5.4v1.2h5.4V21.8z"/>
							<path class="st2" d="M204.8,24.4c0,3-1.5,4.9-3.6,4.9c-2.1,0-3.6-1.9-3.6-4.9c0-3,1.5-4.9,3.6-4.9
								C203.2,19.4,204.8,21.3,204.8,24.4z M202.9,24.4c0-2-0.7-3.1-1.7-3.1c-1,0-1.7,1.1-1.7,3.1c0,2.1,0.7,3.1,1.7,3.1
								C202.2,27.5,202.9,26.4,202.9,24.4z M208.3,23.3v2.4h1.9v1.6h-1.9v4.9h-2V18.5h2v3.2h1.9v1.6H208.3z"/>
						</g>
					</g>
					<g class="st1">
						<path d="M88.7,180.9h-3.8l-0.9,3.1h-1.8l3.7-11h2l3.7,11h-1.8L88.7,180.9z M88.3,179.5l-0.4-1.5c-0.4-1.2-0.7-2.4-1-3.7h-0.1
							c-0.3,1.3-0.7,2.5-1,3.7l-0.4,1.5H88.3z"/>
						<path d="M92.9,173h1.7v9.6h4.7v1.5h-6.4V173z"/>
						<path d="M100.1,182.6l1-1.2c0.8,0.8,1.9,1.3,2.9,1.3c1.3,0,2.1-0.6,2.1-1.6c0-1-0.8-1.3-1.8-1.8l-1.5-0.7
							c-1.1-0.5-2.2-1.3-2.2-2.9c0-1.7,1.5-3,3.6-3c1.3,0,2.5,0.5,3.3,1.4l-0.9,1.1c-0.7-0.6-1.5-1-2.4-1c-1.1,0-1.9,0.5-1.9,1.4
							c0,0.9,0.9,1.3,1.8,1.7l1.5,0.6c1.3,0.6,2.2,1.4,2.2,3c0,1.8-1.5,3.2-3.9,3.2C102.5,184.2,101.1,183.6,100.1,182.6z"/>
						<path d="M109.3,186c1-0.4,1.6-1.2,1.6-2.1c-0.1,0-0.1,0-0.2,0c-0.6,0-1.2-0.4-1.2-1.1c0-0.7,0.5-1.1,1.2-1.1
							c0.8,0,1.3,0.7,1.3,1.9c0,1.6-0.9,2.8-2.5,3.4L109.3,186z"/>
						<path d="M124.5,179.5c-1.6-0.5-2.7-1.4-3.3-2.7c-0.6,1.3-1.7,2.4-3.3,2.9l-0.8-1.2c2.1-0.7,3.3-2.3,3.3-4v-0.2h-2.8v-1.2h2.8
							v-1.6h1.6v1.6h2.8v1.2h-2.9v0.2c0,1.6,1.2,3.1,3.3,3.7L124.5,179.5z M119.2,180.5h9.1v4.7h-1.5v-3.4h-7.6V180.5z M128.3,171.6
							v8.2h-1.5v-3.1h-2.5v-1.3h2.5v-3.9H128.3z"/>
						<path d="M143.2,180.4h-5.4v4.8h-1.5v-4.8h-5.3v-1.3h12.2V180.4z M142,177.9c-2.2-0.4-4.1-1.5-5-3.1c-0.9,1.6-2.7,2.7-5,3.1
							l-0.6-1.2c2.8-0.4,4.8-2.1,4.8-3.8V172h1.6v0.7c0,1.8,2,3.4,4.8,3.8L142,177.9z"/>
						<path d="M157,178.8v1.3h-12.3v-1.3h5.3v-2.1h1.5v2.1H157z M155.6,177.5c-2.1-0.4-3.9-1.5-4.8-2.9c-0.9,1.5-2.6,2.6-4.8,2.9
							l-0.6-1.2c2.7-0.4,4.6-2,4.6-3.8V172h1.6v0.5c0,1.8,1.9,3.4,4.6,3.8L155.6,177.5z M147.8,183.6h7.8v1.3h-9.3V181h1.6V183.6z"
							/>
						<path d="M165.6,179c-1.5-0.5-2.5-1.6-3.1-2.8c-0.6,1.5-1.7,2.6-3.3,3.2l-0.8-1.2c2.1-0.7,3.3-2.6,3.3-4.5v-1.3h1.6v1.5
							c0,1.7,1.2,3.4,3.2,4L165.6,179z M169.3,182.6c0,1.6-1.7,2.5-4.5,2.5c-2.8,0-4.5-0.9-4.5-2.5c0-1.6,1.7-2.5,4.5-2.5
							C167.5,180.1,169.3,181,169.3,182.6z M167.7,182.6c0-0.8-1.1-1.3-3-1.3c-1.9,0-3,0.5-3,1.3c0,0.9,1.1,1.3,3,1.3
							C166.6,183.9,167.7,183.5,167.7,182.6z M171,175v1.3h-1.9v3.5h-1.5v-8.1h1.5v3.4H171z"/>
						<path d="M172.4,186c1-0.4,1.6-1.2,1.6-2.1c-0.1,0-0.1,0-0.2,0c-0.6,0-1.2-0.4-1.2-1.1c0-0.7,0.5-1.1,1.2-1.1
							c0.8,0,1.3,0.7,1.3,1.9c0,1.6-0.9,2.8-2.5,3.4L172.4,186z"/>
						<path d="M187.4,178.8c-1.5-0.5-2.6-1.5-3.1-2.8c-0.6,1.4-1.7,2.5-3.3,3.1l-0.8-1.2c2.1-0.7,3.3-2.4,3.3-4.3v-1.4h1.5v1.5
							c0,1.7,1.2,3.3,3.2,4L187.4,178.8z M182.5,180h8.9v5h-8.9V180z M184,183.8h5.9v-2.5H184V183.8z M191.4,171.6v7.8h-1.5v-4h-2.7
							v-1.3h2.7v-2.5H191.4z"/>
						<path d="M206.3,180.5h-3.1v4.6h-1.6v-4.6h-3.1v4.6H197v-4.6h-3v-1.3h12.3L206.3,180.5z M195.3,175.1c0-1.8,2-3,4.8-3
							c2.9,0,4.8,1.2,4.8,3c0,1.8-1.9,3-4.8,3C197.2,178.1,195.3,176.9,195.3,175.1z M196.9,175.1c0,1.1,1.3,1.8,3.2,1.8
							c1.9,0,3.2-0.7,3.2-1.8c0-1.1-1.3-1.7-3.2-1.7C198.1,173.4,196.9,174,196.9,175.1z"/>
						<path d="M220,177.7v1.3h-12.3v-1.3h8.9c0.3-1.7,0.4-3,0.4-4.1h-7.7v-1.2h9.2v1.1c0,1.2,0,2.5-0.3,4.2H220z M210.9,183.6h8v1.2
							h-9.6v-4.5h1.5V183.6z"/>
						<path d="M230.7,179.3v1.5h1.6v4.4h-1.5V182h-7.8v-1.2h1.7v-1.5h-3.1V178h12.3v1.2H230.7z M222.9,174.5c0-1.6,1.9-2.6,4.8-2.6
							c2.9,0,4.8,1,4.8,2.6s-1.9,2.6-4.8,2.6C224.7,177.2,222.9,176.2,222.9,174.5z M224.5,174.5c0,0.9,1.2,1.4,3.2,1.4
							c2,0,3.2-0.5,3.2-1.4c0-0.9-1.2-1.4-3.2-1.4C225.7,173.1,224.5,173.6,224.5,174.5z M229.2,179.3h-3v1.5h3V179.3z"/>
						<path d="M247.6,178.7v1.2h-12.3v-1.2h5.4v-1.1h-3.8V172h9.2v1.2h-7.7v1h7.3v1.2h-7.3v1h7.8v1.2h-4v1.1H247.6z M246.1,183
							c0,1.4-1.7,2.2-4.7,2.2c-2.9,0-4.7-0.8-4.7-2.2c0-1.4,1.7-2.2,4.7-2.2C244.4,180.8,246.1,181.5,246.1,183z M244.6,183
							c0-0.7-1.1-1-3.1-1c-2,0-3.1,0.3-3.1,1c0,0.7,1.1,1,3.1,1C243.5,184,244.6,183.7,244.6,183z"/>
						<path d="M249.2,186c1-0.4,1.6-1.2,1.6-2.1c-0.1,0-0.1,0-0.2,0c-0.6,0-1.2-0.4-1.2-1.1c0-0.7,0.5-1.1,1.2-1.1
							c0.8,0,1.3,0.7,1.3,1.9c0,1.6-0.9,2.8-2.5,3.4L249.2,186z"/>
					</g>
					<text transform="matrix(1 0 0 1 252.8787 184)" class="st4 st5"> </text>
					<g class="st1">
						<path d="M85,203c1.2-0.1,2.5-0.2,3.6-0.3l0.1,1.1c-3,0.6-6.2,0.6-8.6,0.6l-0.2-1.3c1,0,2.3,0,3.5,0v-2.1
							c-1.7-0.3-2.9-1.5-2.9-3.2c0-1.9,1.6-3.3,3.7-3.3c2.1,0,3.7,1.3,3.7,3.3c0,1.7-1.2,2.9-2.9,3.2V203z M84.2,199.6
							c1.3,0,2.2-0.8,2.2-1.9c0-1.2-0.9-1.9-2.2-1.9c-1.2,0-2.2,0.8-2.2,1.9C82.1,198.9,83,199.6,84.2,199.6z M91,193.6v13.6h-1.6
							v-13.6H91z"/>
						<path d="M100.7,201c-1.5-0.5-2.5-1.6-3.1-2.8c-0.6,1.5-1.7,2.6-3.3,3.2l-0.8-1.2c2.1-0.7,3.3-2.6,3.3-4.5v-1.3h1.6v1.5
							c0,1.7,1.2,3.4,3.2,4L100.7,201z M104.4,204.6c0,1.6-1.7,2.5-4.5,2.5c-2.8,0-4.5-0.9-4.5-2.5c0-1.6,1.7-2.5,4.5-2.5
							C102.7,202.1,104.4,203,104.4,204.6z M102.8,204.6c0-0.8-1.1-1.3-3-1.3c-1.9,0-3,0.5-3,1.3c0,0.9,1.1,1.3,3,1.3
							C101.8,205.9,102.8,205.5,102.8,204.6z M106.1,197v1.3h-1.9v3.5h-1.5v-8.1h1.5v3.4H106.1z"/>
						<path d="M114.7,201c-1.5-0.5-2.5-1.5-3.1-2.9c-0.6,1.5-1.7,2.7-3.4,3.3l-0.8-1.2c2.2-0.7,3.4-2.6,3.4-4.5v-1.3h1.6v1.3
							c0,1.9,1.1,3.6,3.2,4.2L114.7,201z M118.7,204.6c0,1.6-1.7,2.6-4.6,2.6c-2.8,0-4.6-1-4.6-2.6c0-1.6,1.7-2.6,4.6-2.6
							C117,202,118.7,202.9,118.7,204.6z M117.2,204.6c0-0.9-1.1-1.4-3-1.4s-3,0.5-3,1.4c0,0.9,1.1,1.4,3,1.4
							S117.2,205.4,117.2,204.6z M117.1,197.6h-2.7v-1.3h2.7v-2.7h1.5v8h-1.5V197.6z"/>
						<path d="M136.9,199.7v1.3h-12.3v-1.3h8.9c0.3-1.7,0.4-3,0.4-4.1h-7.7v-1.2h9.2v1.1c0,1.2,0,2.5-0.3,4.2H136.9z M127.7,205.6h8
							v1.2h-9.6v-4.5h1.5V205.6z"/>
						<path d="M147.6,201.3v1.5h1.6v4.4h-1.5V204h-7.8v-1.2h1.7v-1.5h-3.1V200h12.3v1.2H147.6z M139.7,196.5c0-1.6,1.9-2.6,4.8-2.6
							c2.9,0,4.8,1,4.8,2.6s-1.9,2.6-4.8,2.6C141.6,199.2,139.7,198.2,139.7,196.5z M141.3,196.5c0,0.9,1.2,1.4,3.2,1.4
							c2,0,3.2-0.5,3.2-1.4c0-0.9-1.2-1.4-3.2-1.4C142.5,195.1,141.3,195.6,141.3,196.5z M146,201.3h-3v1.5h3V201.3z"/>
						<path d="M164.5,200.8v1.3h-12.3v-1.3h5.3v-2.1h1.5v2.1H164.5z M163.1,199.5c-2.1-0.4-3.9-1.5-4.8-2.9
							c-0.9,1.5-2.6,2.6-4.8,2.9l-0.6-1.2c2.7-0.4,4.6-2,4.6-3.8V194h1.6v0.5c0,1.8,1.9,3.4,4.6,3.8L163.1,199.5z M155.3,205.6h7.8
							v1.3h-9.3V203h1.6V205.6z"/>
						<path d="M173.1,201c-1.5-0.5-2.5-1.6-3.1-2.8c-0.6,1.5-1.7,2.6-3.3,3.2l-0.8-1.2c2.1-0.7,3.3-2.6,3.3-4.5v-1.3h1.6v1.5
							c0,1.7,1.2,3.4,3.2,4L173.1,201z M176.8,204.6c0,1.6-1.7,2.5-4.5,2.5c-2.8,0-4.5-0.9-4.5-2.5c0-1.6,1.7-2.5,4.5-2.5
							C175,202.1,176.8,203,176.8,204.6z M175.2,204.6c0-0.8-1.1-1.3-3-1.3c-1.9,0-3,0.5-3,1.3c0,0.9,1.1,1.3,3,1.3
							C174.1,205.9,175.2,205.5,175.2,204.6z M178.5,197v1.3h-1.9v3.5h-1.5v-8.1h1.5v3.4H178.5z"/>
						<path d="M179.9,208c1-0.4,1.6-1.2,1.6-2.1c-0.1,0-0.1,0-0.2,0c-0.6,0-1.2-0.4-1.2-1.1c0-0.7,0.5-1.1,1.2-1.1
							c0.8,0,1.3,0.7,1.3,1.9c0,1.6-0.9,2.8-2.5,3.4L179.9,208z"/>
						<path d="M196.4,201.7c-2.9,0.5-6.1,0.6-8.5,0.6l-0.2-1.2c1.1,0,2.3,0,3.6,0v-0.9c-1.5-0.2-2.5-0.9-2.5-1.9c0-1.2,1.3-2,3.3-2
							c2,0,3.3,0.8,3.3,2c0,1-1,1.8-2.5,1.9v0.8c1.2,0,2.3-0.2,3.4-0.3L196.4,201.7z M196.1,195.8h-7.9v-1.1h3.2v-1.2h1.6v1.2h3.2
							V195.8z M198.9,205c0,1.4-1.7,2.1-4.6,2.1c-2.9,0-4.6-0.7-4.6-2.1s1.7-2.1,4.6-2.1C197.2,202.9,198.9,203.7,198.9,205z
							 M192.1,199.1c1.1,0,1.8-0.3,1.8-0.9c0-0.6-0.7-0.9-1.8-0.9c-1.1,0-1.8,0.3-1.8,0.9C190.3,198.8,191,199.1,192.1,199.1z
							 M197.4,205c0-0.7-1-1-3-1c-2,0-3,0.3-3,1c0,0.7,1,1,3,1C196.3,206,197.4,205.7,197.4,205z M198.8,202.7h-1.5v-9.1h1.5V202.7z
							"/>
						<path d="M213.7,200.4v1.2h-5.2v2.5h-1.5v-2.5h-5.5v-1.2H213.7z M204.5,205.6h7.9v1.3H203V203h1.5V205.6z M212.2,199.1H203
							v-4.9h9.1V199.1z M210.6,195.4h-6.1v2.4h6.1V195.4z"/>
						<path d="M227.5,199.7v1.3h-12.3v-1.3h8.9c0.3-1.7,0.4-3,0.4-4.1h-7.7v-1.2h9.2v1.1c0,1.2,0,2.5-0.3,4.2H227.5z M218.4,205.6h8
							v1.2h-9.6v-4.5h1.5V205.6z"/>
						<path d="M238.4,201.1v1.8c0.9,0.4,1.4,1.1,1.4,1.9c0,1.6-1.7,2.4-4.7,2.4c-2.9,0-4.7-0.9-4.7-2.4c0-0.8,0.5-1.5,1.5-1.9v-1.7
							h-2.9v-1.2h12.3v1.2H238.4z M230.4,196.4c0-1.6,1.9-2.6,4.8-2.6c3,0,4.8,1,4.8,2.6c0,1.6-1.9,2.5-4.8,2.5
							C232.2,199,230.4,198,230.4,196.4z M232,196.4c0,0.9,1.2,1.4,3.2,1.4s3.2-0.5,3.2-1.4c0-0.9-1.2-1.4-3.2-1.4
							S232,195.5,232,196.4z M238.3,204.7c0-0.8-1.1-1.2-3.1-1.2s-3.1,0.4-3.1,1.2c0,0.8,1.1,1.2,3.1,1.2S238.3,205.5,238.3,204.7z
							 M236.9,201.1h-3.3v1.3c0.5-0.1,1-0.1,1.6-0.1c0.6,0,1.2,0,1.7,0.1V201.1z"/>
						<path d="M246.9,195.8h2.5v1.2h-6.6v-1.2h2.6V194h1.5V195.8z M249.1,201c0,1.9-1.2,3.1-2.9,3.1s-2.9-1.3-2.9-3.1
							c0-1.9,1.2-3.2,2.9-3.2S249.1,199.1,249.1,201z M247.7,201c0-1.1-0.6-1.9-1.6-1.9s-1.6,0.8-1.6,1.9s0.6,1.9,1.6,1.9
							S247.7,202.1,247.7,201z M254.4,193.6v13.5h-1.5v-6.7h-1.4v6h-1.4v-12.6h1.4v5.3h1.4v-5.6H254.4z"/>
					</g>
					<g class="st1">
						<path d="M143.1,70.9h2.3l1.5,5.4c0.3,1.2,0.6,2.3,0.9,3.6h0.1c0.3-1.2,0.6-2.4,0.9-3.6l1.4-5.4h2.2L149.2,82h-2.6L143.1,70.9z
							"/>
						<path d="M153.8,70.9h2.5l1.9,5.2c0.2,0.7,0.4,1.4,0.7,2.1h0.1c0.2-0.7,0.4-1.5,0.7-2.1l1.8-5.2h2.5V82h-2v-4.6
							c0-1,0.2-2.6,0.3-3.6h-0.1l-0.9,2.6l-1.7,4.7h-1.3l-1.7-4.7l-0.9-2.6h-0.1c0.1,1,0.3,2.6,0.3,3.6V82h-2V70.9z"/>
						<path d="M165.7,80.7l1-1.4c0.7,0.6,1.5,1.1,2.5,1.1c1.1,0,1.9-0.6,1.9-1.5c0-1.1-0.6-1.8-3.1-1.8v-1.6c2,0,2.7-0.7,2.7-1.7
							c0-0.9-0.5-1.4-1.5-1.4c-0.8,0-1.4,0.4-2.1,1l-1.1-1.3c1-0.8,2-1.4,3.3-1.4c2.1,0,3.6,1,3.6,3c0,1.2-0.7,2.1-1.9,2.5v0.1
							c1.3,0.3,2.2,1.3,2.2,2.7c0,2-1.8,3.2-3.9,3.2C167.6,82.2,166.5,81.5,165.7,80.7z"/>
						<path d="M174.8,76.4c0-3.8,1.5-5.7,3.8-5.7c2.2,0,3.8,1.9,3.8,5.7s-1.5,5.8-3.8,5.8C176.3,82.2,174.8,80.2,174.8,76.4z
							 M180.2,76.4c0-3.1-0.7-4-1.7-4c-1,0-1.7,0.9-1.7,4c0,3.1,0.7,4.1,1.7,4.1C179.5,80.5,180.2,79.5,180.2,76.4z"/>
						<path d="M184.2,80.2h2.4v-7h-2v-1.4c1.1-0.2,1.9-0.5,2.6-0.9h1.6v9.3h2.1V82h-6.7V80.2z"/>
					</g>
				</g>
			</g>
		</g>
	</g>
</g>
</svg>
