<?xml version="1.0" encoding="utf-8"?>
<!-- Generator: Adobe Illustrator 23.0.6, SVG Export Plug-In . SVG Version: 6.00 Build 0)  -->
<svg version="1.1" id="Layer_1" xmlns="http://www.w3.org/2000/svg" xmlns:xlink="http://www.w3.org/1999/xlink" x="0px" y="0px"
	 viewBox="0 0 1002 224" style="enable-background:new 0 0 1002 224;" xml:space="preserve">
<style type="text/css">
	.st0{fill-rule:evenodd;clip-rule:evenodd;}
	.st1{enable-background:new    ;}
	.st2{fill:#FFFFFF;}
	.st3{fill:none;stroke:#979797;stroke-linecap:square;}
</style>
<title>표</title>
<desc>Created with Sketch.</desc>
<g id="Page-1">
	<g transform="translate(-189.000000, -930.000000)">
		<g id="first" transform="translate(190.000000, 420.000000)">
			<g id="표" transform="translate(0.000000, 510.000000)">
				<g id="head">
					<g>
						<path id="bg" class="st0" d="M8,0h234c4.4,0,8,3.6,8,8v34c0,4.4-3.6,8-8,8H8c-4.4,0-8-3.6-8-8V8C0,3.6,3.6,0,8,0z"/>
						<g class="st1">
							<path class="st2" d="M94.4,19.9H98c2.5,0,4.3,0.9,4.3,3.5c0,2.5-1.9,3.7-4.3,3.7h-1.5V31h-2.2V19.9z M97.9,25.3
								c1.5,0,2.3-0.6,2.3-1.9c0-1.3-0.8-1.7-2.3-1.7h-1.3v3.6H97.9z"/>
							<path class="st2" d="M104.2,22.6h1.8l0.1,1.5h0.1c0.6-1.1,1.5-1.7,2.4-1.7c0.5,0,0.7,0.1,1,0.2l-0.4,1.9
								c-0.3-0.1-0.5-0.1-0.9-0.1c-0.7,0-1.5,0.4-1.9,1.7v5h-2.2V22.6z"/>
							<path class="st2" d="M110,26.8c0-2.8,1.9-4.4,4-4.4s4,1.6,4,4.4c0,2.8-1.9,4.4-4,4.4S110,29.6,110,26.8z M115.8,26.8
								c0-1.6-0.6-2.6-1.8-2.6s-1.8,1-1.8,2.6c0,1.6,0.6,2.6,1.8,2.6S115.8,28.4,115.8,26.8z"/>
							<path class="st2" d="M119.4,32.5c0-0.7,0.4-1.3,1.2-1.7v-0.1c-0.4-0.3-0.8-0.7-0.8-1.4c0-0.6,0.4-1.2,0.9-1.6v-0.1
								c-0.6-0.4-1.1-1.2-1.1-2.2c0-2,1.6-3,3.4-3c0.5,0,0.9,0.1,1.3,0.2h3v1.6h-1.4c0.2,0.3,0.4,0.8,0.4,1.3c0,1.9-1.4,2.8-3.2,2.8
								c-0.3,0-0.7-0.1-1.1-0.2c-0.2,0.2-0.4,0.4-0.4,0.7c0,0.5,0.3,0.7,1.3,0.7h1.4c2,0,3.1,0.6,3.1,2.1c0,1.7-1.8,3-4.6,3
								C120.9,34.6,119.4,34,119.4,32.5z M125.4,32c0-0.6-0.5-0.8-1.4-0.8h-1c-0.5,0-0.9,0-1.2-0.1c-0.4,0.3-0.6,0.6-0.6,1
								c0,0.7,0.8,1.1,2,1.1C124.5,33.2,125.4,32.7,125.4,32z M124.3,25.4c0-1-0.6-1.5-1.3-1.5s-1.3,0.6-1.3,1.5
								c0,1,0.6,1.5,1.3,1.5S124.3,26.4,124.3,25.4z"/>
							<path class="st2" d="M128.9,22.6h1.8l0.1,1.5h0.1c0.6-1.1,1.5-1.7,2.4-1.7c0.5,0,0.7,0.1,1,0.2l-0.4,1.9
								c-0.3-0.1-0.5-0.1-0.9-0.1c-0.7,0-1.5,0.4-1.9,1.7v5h-2.2V22.6z"/>
							<path class="st2" d="M134.5,28.7c0-1.8,1.5-2.7,4.8-3.1c0-0.8-0.4-1.5-1.4-1.5c-0.8,0-1.5,0.3-2.3,0.8l-0.8-1.5
								c1-0.6,2.2-1.1,3.5-1.1c2.1,0,3.2,1.3,3.2,3.7V31h-1.8l-0.2-0.9h0c-0.7,0.6-1.6,1.1-2.5,1.1
								C135.5,31.2,134.5,30.1,134.5,28.7z M139.4,28.7V27c-2,0.3-2.7,0.8-2.7,1.6c0,0.7,0.5,0.9,1.1,0.9
								C138.4,29.5,138.9,29.2,139.4,28.7z"/>
							<path class="st2" d="M143.8,22.6h1.8l0.1,1.1h0.1c0.7-0.7,1.5-1.3,2.6-1.3c1.2,0,1.9,0.5,2.3,1.5c0.8-0.8,1.6-1.5,2.7-1.5
								c1.8,0,2.6,1.3,2.6,3.4V31h-2.2v-5c0-1.3-0.4-1.8-1.2-1.8c-0.5,0-1,0.3-1.6,0.9V31h-2.2v-5c0-1.3-0.4-1.8-1.2-1.8
								c-0.5,0-1,0.3-1.6,0.9V31h-2.2V22.6z"/>
						</g>
					</g>
					<g transform="translate(260.000000, 0.000000)">
						<path class="st0" d="M8,0h724c4.4,0,8,3.6,8,8v34c0,4.4-3.6,8-8,8H8c-4.4,0-8-3.6-8-8V8C0,3.6,3.6,0,8,0z"/>
						<g class="st1">
							<path class="st2" d="M310.6,21.7h-3.1v-1.8h8.5v1.8h-3.2V31h-2.2V21.7z"/>
							<path class="st2" d="M317.6,19h2.2v3l-0.1,1.6c0.7-0.6,1.5-1.2,2.6-1.2c1.8,0,2.6,1.3,2.6,3.4V31h-2.2v-5
								c0-1.3-0.4-1.8-1.2-1.8c-0.7,0-1.1,0.3-1.8,0.9V31h-2.2V19z"/>
							<path class="st2" d="M326.6,26.8c0-2.7,1.9-4.4,3.9-4.4c2.3,0,3.5,1.7,3.5,4c0,0.4,0,0.8-0.1,1h-5.2c0.2,1.4,1.1,2.1,2.3,2.1
								c0.7,0,1.3-0.2,1.9-0.6l0.8,1.4c-0.8,0.6-1.9,0.9-2.9,0.9C328.5,31.2,326.6,29.6,326.6,26.8z M332.2,26
								c0-1.1-0.5-1.9-1.6-1.9c-0.9,0-1.7,0.6-1.8,1.9H332.2z"/>
							<path class="st2" d="M335.9,22.6h1.8l0.1,1.5h0.1c0.6-1.1,1.5-1.7,2.4-1.7c0.5,0,0.7,0.1,1,0.2l-0.4,1.9
								c-0.3-0.1-0.5-0.1-0.9-0.1c-0.7,0-1.5,0.4-1.9,1.7v5h-2.2V22.6z"/>
							<path class="st2" d="M341.5,28.7c0-1.8,1.5-2.7,4.8-3.1c0-0.8-0.4-1.5-1.4-1.5c-0.8,0-1.5,0.3-2.3,0.8l-0.8-1.5
								c1-0.6,2.2-1.1,3.5-1.1c2.1,0,3.2,1.3,3.2,3.7V31h-1.8l-0.2-0.9h0c-0.7,0.6-1.6,1.1-2.5,1.1
								C342.5,31.2,341.5,30.1,341.5,28.7z M346.4,28.7V27c-2,0.3-2.7,0.8-2.7,1.6c0,0.7,0.5,0.9,1.1,0.9
								C345.4,29.5,345.8,29.2,346.4,28.7z"/>
							<path class="st2" d="M350.8,22.6h1.8l0.1,0.9h0.1c0.7-0.6,1.6-1.1,2.5-1.1c2.1,0,3.3,1.7,3.3,4.3c0,2.9-1.7,4.5-3.6,4.5
								c-0.7,0-1.4-0.3-2.1-0.9l0.1,1.4v2.5h-2.2V22.6z M356.3,26.7c0-1.6-0.5-2.5-1.7-2.5c-0.6,0-1.1,0.3-1.7,0.9v3.7
								c0.5,0.5,1.1,0.6,1.5,0.6C355.6,29.4,356.3,28.5,356.3,26.7z"/>
							<path class="st2" d="M359.9,26.8c0-2.7,1.9-4.4,3.9-4.4c2.3,0,3.5,1.7,3.5,4c0,0.4,0,0.8-0.1,1h-5.2c0.2,1.4,1.1,2.1,2.3,2.1
								c0.7,0,1.3-0.2,1.9-0.6l0.8,1.4c-0.8,0.6-1.9,0.9-2.9,0.9C361.8,31.2,359.9,29.6,359.9,26.8z M365.5,26
								c0-1.1-0.5-1.9-1.6-1.9c-0.9,0-1.7,0.6-1.8,1.9H365.5z"/>
							<path class="st2" d="M369.1,27.9v-5.2h2.2v5c0,1.3,0.4,1.8,1.2,1.8c0.7,0,1.1-0.3,1.7-1v-5.7h2.2V31h-1.8l-0.2-1.2h-0.1
								c-0.7,0.9-1.5,1.4-2.7,1.4C369.9,31.2,369.1,30,369.1,27.9z"/>
							<path class="st2" d="M379.1,28.1v-3.7h-1.2v-1.6l1.3-0.1l0.3-2.2h1.8v2.2h2.1v1.7h-2.1v3.7c0,1,0.4,1.4,1.1,1.4
								c0.3,0,0.6-0.1,0.8-0.2l0.4,1.6c-0.5,0.2-1,0.3-1.8,0.3C379.8,31.2,379.1,30,379.1,28.1z"/>
							<path class="st2" d="M384.8,20.1c0-0.7,0.6-1.2,1.3-1.2c0.8,0,1.3,0.5,1.3,1.2c0,0.7-0.6,1.2-1.3,1.2
								C385.4,21.2,384.8,20.7,384.8,20.1z M385,22.6h2.2V31H385V22.6z"/>
							<path class="st2" d="M389.1,26.8c0-2.8,2-4.4,4.3-4.4c1,0,1.8,0.4,2.4,0.9l-1.1,1.4c-0.4-0.4-0.8-0.6-1.3-0.6
								c-1.3,0-2.1,1-2.1,2.6c0,1.6,0.9,2.6,2.1,2.6c0.6,0,1.2-0.3,1.6-0.7l0.9,1.5c-0.8,0.7-1.8,1-2.7,1
								C390.8,31.2,389.1,29.6,389.1,26.8z"/>
							<path class="st2" d="M406.3,28.2h-3.6l-0.8,2.8h-2.2l3.6-11.1h2.6l3.6,11.1h-2.3L406.3,28.2z M405.8,26.4l-0.3-1.2
								c-0.3-1.2-0.6-2.4-1-3.6h-0.1c-0.3,1.2-0.6,2.5-0.9,3.6l-0.3,1.2H405.8z"/>
							<path class="st2" d="M410.5,22.6h1.8l0.2,1.5h0.1c0.6-1.1,1.5-1.7,2.4-1.7c0.5,0,0.7,0.1,1,0.2l-0.4,1.9
								c-0.3-0.1-0.5-0.1-0.9-0.1c-0.7,0-1.5,0.4-1.9,1.7v5h-2.2V22.6z"/>
							<path class="st2" d="M416.4,26.8c0-2.7,1.9-4.4,3.9-4.4c2.3,0,3.5,1.7,3.5,4c0,0.4,0,0.8-0.1,1h-5.2c0.2,1.4,1.1,2.1,2.3,2.1
								c0.7,0,1.3-0.2,1.9-0.6l0.8,1.4c-0.8,0.6-1.9,0.9-2.9,0.9C418.2,31.2,416.4,29.6,416.4,26.8z M421.9,26
								c0-1.1-0.5-1.9-1.6-1.9c-0.9,0-1.7,0.6-1.8,1.9H421.9z"/>
							<path class="st2" d="M425,28.7c0-1.8,1.5-2.7,4.8-3.1c0-0.8-0.4-1.5-1.4-1.5c-0.8,0-1.5,0.3-2.3,0.8l-0.8-1.5
								c1-0.6,2.2-1.1,3.5-1.1c2.1,0,3.2,1.3,3.2,3.7V31h-1.8l-0.2-0.9h0c-0.7,0.6-1.6,1.1-2.5,1.1C426,31.2,425,30.1,425,28.7z
								 M429.8,28.7V27c-2,0.3-2.7,0.8-2.7,1.6c0,0.7,0.5,0.9,1.1,0.9C428.8,29.5,429.3,29.2,429.8,28.7z"/>
						</g>
					</g>
				</g>
				<g id="cell1" transform="translate(0.000000, 65.000000)">
					<g class="st1">
						<path d="M104.4,10.9h2.2l0.2,1h0.1c0.8-0.7,1.9-1.3,3-1.3c2.5,0,4,2,4,5.1c0,3.5-2.1,5.5-4.3,5.5c-0.9,0-1.7-0.4-2.5-1.1
							l0.1,1.7v3.1h-2.6V10.9z M111,15.8c0-1.9-0.6-3-2-3c-0.7,0-1.3,0.3-2,1v4.4c0.6,0.6,1.3,0.8,1.8,0.8
							C110.1,19.1,111,18,111,15.8z"/>
						<path d="M116.2,7.7h2.7V21h-2.7V7.7z"/>
						<path d="M122.2,7.7h2.7v5.8h0.1l4.4-5.8h2.9l-4.1,5.2L133,21H130l-3.4-6l-1.7,2.2V21h-2.7V7.7z"/>
						<path d="M133.3,14.3c0-4.3,2.4-6.9,6-6.9c3.5,0,6,2.5,6,6.9s-2.4,7-6,7C135.8,21.3,133.3,18.6,133.3,14.3z M142.5,14.3
							c0-2.9-1.3-4.6-3.2-4.6s-3.2,1.7-3.2,4.6c0,2.8,1.3,4.7,3.2,4.7S142.5,17.1,142.5,14.3z"/>
					</g>
					<g class="st1">
						<path d="M286,14.4c0-4.3,2.6-6.9,6-6.9c1.7,0,3,0.8,3.8,1.7l-1.1,1.3c-0.7-0.7-1.5-1.2-2.6-1.2c-2.3,0-3.9,1.9-3.9,5
							c0,3.2,1.5,5.1,3.8,5.1c1.2,0,2.1-0.5,2.9-1.4l1.1,1.3c-1.1,1.2-2.4,1.9-4.1,1.9C288.6,21.2,286,18.7,286,14.4z"/>
						<path d="M298.2,6.6h2.1v3.8l-0.1,2c0.9-0.8,1.9-1.6,3.2-1.6c2.1,0,3,1.4,3,3.9V21h-2.1v-6c0-1.7-0.5-2.4-1.7-2.4
							c-0.9,0-1.5,0.5-2.4,1.3v7h-2.1V6.6z"/>
						<path d="M309.4,11.1h1.7l0.2,1.8h0.1c0.7-1.3,1.7-2,2.8-2c0.5,0,0.8,0.1,1.1,0.2l-0.4,1.8c-0.3-0.1-0.6-0.2-1-0.2
							c-0.8,0-1.8,0.6-2.4,2.1V21h-2.1V11.1z"/>
						<path d="M315.8,16.1c0-3.3,2.2-5.2,4.7-5.2s4.7,1.9,4.7,5.2c0,3.3-2.2,5.2-4.7,5.2S315.8,19.3,315.8,16.1z M323,16.1
							c0-2.1-1-3.5-2.5-3.5c-1.5,0-2.5,1.4-2.5,3.5c0,2.1,1,3.5,2.5,3.5C322.1,19.5,323,18.2,323,16.1z"/>
						<path d="M327.6,11.1h1.7l0.2,1.4h0.1c0.9-0.9,1.9-1.6,3.3-1.6c2.1,0,3,1.4,3,3.9V21h-2.1v-6c0-1.7-0.5-2.4-1.7-2.4
							c-0.9,0-1.5,0.5-2.4,1.3v7h-2.1V11.1z"/>
						<path d="M338.5,8c0-0.7,0.6-1.2,1.3-1.2s1.3,0.5,1.3,1.2c0,0.7-0.6,1.2-1.3,1.2S338.5,8.7,338.5,8z M338.8,11.1h2.1V21h-2.1
							V11.1z"/>
						<path d="M343.3,16.1c0-3.3,2.3-5.2,4.9-5.2c1.3,0,2.2,0.5,2.9,1.1l-1,1.4c-0.5-0.5-1.1-0.8-1.8-0.8c-1.7,0-2.8,1.4-2.8,3.5
							c0,2.1,1.1,3.5,2.8,3.5c0.8,0,1.6-0.4,2.2-0.9l0.8,1.4c-0.9,0.8-2.1,1.2-3.2,1.2C345.3,21.2,343.3,19.3,343.3,16.1z"/>
						<path d="M356.3,11.1h2.1l1.3,5.4c0.2,1,0.4,1.9,0.5,2.8h0.1c0.2-0.9,0.4-1.9,0.6-2.8l1.4-5.4h1.9l1.4,5.4
							c0.2,1,0.4,1.9,0.7,2.8h0.1c0.2-0.9,0.4-1.9,0.6-2.8l1.3-5.4h1.9l-2.6,9.9h-2.5l-1.3-4.9c-0.2-0.9-0.4-1.8-0.6-2.9h-0.1
							c-0.2,1-0.4,1.9-0.6,2.9l-1.2,4.9h-2.4L356.3,11.1z"/>
						<path d="M371.4,16.1c0-3.3,2.2-5.2,4.7-5.2s4.7,1.9,4.7,5.2c0,3.3-2.2,5.2-4.7,5.2S371.4,19.3,371.4,16.1z M378.6,16.1
							c0-2.1-1-3.5-2.5-3.5c-1.5,0-2.5,1.4-2.5,3.5c0,2.1,1,3.5,2.5,3.5C377.7,19.5,378.6,18.2,378.6,16.1z"/>
						<path d="M383.1,17.3v-6.2h2.1v6c0,1.7,0.5,2.4,1.7,2.4c0.9,0,1.5-0.4,2.4-1.5v-6.9h2.1V21h-1.7l-0.2-1.5h-0.1
							c-0.9,1-1.9,1.7-3.2,1.7C384,21.2,383.1,19.8,383.1,17.3z"/>
						<path d="M394.3,11.1h1.7l0.2,1.4h0.1c0.9-0.9,1.9-1.6,3.3-1.6c2.1,0,3,1.4,3,3.9V21h-2.1v-6c0-1.7-0.5-2.4-1.7-2.4
							c-0.9,0-1.5,0.5-2.4,1.3v7h-2.1V11.1z"/>
						<path d="M404.9,16.1c0-3.2,2-5.2,4.2-5.2c1.1,0,1.9,0.4,2.7,1.1l-0.1-1.6V6.6h2.1V21h-1.7l-0.2-1.1h-0.1
							c-0.7,0.8-1.8,1.4-2.9,1.4C406.5,21.2,404.9,19.3,404.9,16.1z M411.7,18.3v-4.8c-0.7-0.7-1.4-0.9-2.2-0.9
							c-1.4,0-2.5,1.3-2.5,3.5c0,2.3,0.9,3.5,2.4,3.5C410.3,19.5,411,19.1,411.7,18.3z"/>
						<path d="M416.3,23.4c1.2-0.5,1.9-1.4,2-2.5c-0.1,0-0.1,0-0.2,0c-0.7,0-1.4-0.5-1.4-1.3c0-0.8,0.6-1.3,1.4-1.3
							c1,0,1.6,0.8,1.6,2.2c0,1.9-1.1,3.3-3,4.1L416.3,23.4z"/>
						<path d="M426.3,11.1h1.7l0.2,1.1h0.1c0.9-0.7,1.9-1.3,3-1.3c2.5,0,3.9,2,3.9,5c0,3.4-2,5.3-4.3,5.3c-0.9,0-1.8-0.4-2.6-1.1
							l0.1,1.7V25h-2.1V11.1z M433.1,15.9c0-2.1-0.7-3.3-2.3-3.3c-0.8,0-1.5,0.4-2.4,1.2v4.8c0.8,0.7,1.5,0.9,2.2,0.9
							C432,19.5,433.1,18.2,433.1,15.9z"/>
						<path d="M437,16.1c0-3.2,2.2-5.2,4.5-5.2c2.6,0,4,1.9,4,4.7c0,0.4,0,0.8-0.1,1H439c0.2,1.9,1.4,3,3.1,3c0.9,0,1.6-0.3,2.4-0.7
							l0.7,1.3c-0.9,0.6-2.1,1-3.3,1C439.1,21.2,437,19.3,437,16.1z M443.7,15.2c0-1.7-0.8-2.7-2.2-2.7c-1.2,0-2.3,1-2.5,2.7H443.7z
							"/>
						<path d="M447.8,11.1h1.7l0.2,1.8h0.1c0.7-1.3,1.7-2,2.8-2c0.5,0,0.8,0.1,1.1,0.2l-0.4,1.8c-0.3-0.1-0.6-0.2-1-0.2
							c-0.8,0-1.8,0.6-2.4,2.1V21h-2.1V11.1z"/>
						<path d="M454.9,8c0-0.7,0.6-1.2,1.3-1.2s1.3,0.5,1.3,1.2c0,0.7-0.6,1.2-1.3,1.2S454.9,8.7,454.9,8z M455.2,11.1h2.1V21h-2.1
							V11.1z"/>
						<path d="M460.4,11.1h1.7l0.2,1.1h0.1c0.9-0.7,1.9-1.3,3-1.3c2.5,0,3.9,2,3.9,5c0,3.4-2,5.3-4.3,5.3c-0.9,0-1.8-0.4-2.6-1.1
							l0.1,1.7V25h-2.1V11.1z M467.1,15.9c0-2.1-0.7-3.3-2.3-3.3c-0.8,0-1.5,0.4-2.4,1.2v4.8c0.8,0.7,1.5,0.9,2.2,0.9
							C466,19.5,467.1,18.2,467.1,15.9z"/>
						<path d="M471.7,6.6h2.1v3.8l-0.1,2c0.9-0.8,1.9-1.6,3.2-1.6c2.1,0,3,1.4,3,3.9V21h-2.1v-6c0-1.7-0.5-2.4-1.7-2.4
							c-0.9,0-1.5,0.5-2.4,1.3v7h-2.1V6.6z"/>
						<path d="M482.2,16.1c0-3.2,2.2-5.2,4.5-5.2c2.6,0,4,1.9,4,4.7c0,0.4,0,0.8-0.1,1h-6.4c0.2,1.9,1.4,3,3.1,3
							c0.9,0,1.6-0.3,2.4-0.7l0.7,1.3c-0.9,0.6-2.1,1-3.3,1C484.3,21.2,482.2,19.3,482.2,16.1z M489,15.2c0-1.7-0.8-2.7-2.2-2.7
							c-1.2,0-2.3,1-2.5,2.7H489z"/>
						<path d="M493.1,11.1h1.7l0.2,1.8h0.1c0.7-1.3,1.7-2,2.8-2c0.5,0,0.8,0.1,1.1,0.2l-0.4,1.8c-0.3-0.1-0.6-0.2-1-0.2
							c-0.8,0-1.8,0.6-2.4,2.1V21h-2.1V11.1z"/>
						<path d="M499.3,18.4c0-2.1,1.8-3.2,5.9-3.7c0-1.2-0.4-2.2-1.9-2.2c-1,0-2,0.5-2.9,1l-0.8-1.4c1-0.6,2.4-1.3,4-1.3
							c2.5,0,3.6,1.6,3.6,4.2v6h-1.7l-0.2-1.1h-0.1c-0.9,0.8-2,1.4-3.2,1.4C500.5,21.2,499.3,20.1,499.3,18.4z M505.3,18.4V16
							c-2.9,0.4-3.9,1.1-3.9,2.2c0,1,0.7,1.4,1.5,1.4C503.8,19.6,504.5,19.2,505.3,18.4z"/>
						<path d="M510.3,18.7v-12h2.1v12.1c0,0.6,0.3,0.8,0.5,0.8c0.1,0,0.2,0,0.3,0l0.3,1.6c-0.3,0.1-0.6,0.2-1.1,0.2
							C510.8,21.2,510.3,20.3,510.3,18.7z"/>
						<path d="M519.1,18.4c0-2.1,1.8-3.2,5.9-3.7c0-1.2-0.4-2.2-1.9-2.2c-1,0-2,0.5-2.9,1l-0.8-1.4c1-0.6,2.4-1.3,4-1.3
							c2.5,0,3.6,1.6,3.6,4.2v6h-1.7l-0.2-1.1h-0.1c-0.9,0.8-2,1.4-3.2,1.4C520.3,21.2,519.1,20.1,519.1,18.4z M525,18.4V16
							c-2.9,0.4-3.9,1.1-3.9,2.2c0,1,0.7,1.4,1.5,1.4C523.5,19.6,524.2,19.2,525,18.4z"/>
						<path d="M530,11.1h1.7l0.2,1.8h0.1c0.7-1.3,1.7-2,2.8-2c0.5,0,0.8,0.1,1.1,0.2l-0.4,1.8c-0.3-0.1-0.6-0.2-1-0.2
							c-0.8,0-1.8,0.6-2.4,2.1V21H530V11.1z"/>
						<path d="M537.7,17.8v-5h-1.4v-1.5l1.5-0.1l0.2-2.7h1.7v2.7h2.6v1.7h-2.6v5c0,1.2,0.4,1.8,1.4,1.8c0.3,0,0.8-0.1,1.1-0.2
							l0.4,1.5c-0.6,0.2-1.2,0.4-1.9,0.4C538.5,21.2,537.7,19.8,537.7,17.8z"/>
						<path d="M543.5,16.1c0-3.2,2.2-5.2,4.5-5.2c2.6,0,4,1.9,4,4.7c0,0.4,0,0.8-0.1,1h-6.4c0.2,1.9,1.4,3,3.1,3
							c0.9,0,1.6-0.3,2.4-0.7l0.7,1.3c-0.9,0.6-2.1,1-3.3,1C545.7,21.2,543.5,19.3,543.5,16.1z M550.3,15.2c0-1.7-0.8-2.7-2.2-2.7
							c-1.2,0-2.3,1-2.5,2.7H550.3z"/>
						<path d="M554.4,11.1h1.7l0.2,1.8h0.1c0.7-1.3,1.7-2,2.8-2c0.5,0,0.8,0.1,1.1,0.2l-0.4,1.8c-0.3-0.1-0.6-0.2-1-0.2
							c-0.8,0-1.8,0.6-2.4,2.1V21h-2.1V11.1z"/>
						<path d="M561.5,8c0-0.7,0.6-1.2,1.3-1.2c0.8,0,1.3,0.5,1.3,1.2c0,0.7-0.6,1.2-1.3,1.2C562,9.2,561.5,8.7,561.5,8z M561.7,11.1
							h2.1V21h-2.1V11.1z"/>
						<path d="M566.3,18.4c0-2.1,1.8-3.2,5.9-3.7c0-1.2-0.4-2.2-1.9-2.2c-1,0-2,0.5-2.9,1l-0.8-1.4c1-0.6,2.4-1.3,4-1.3
							c2.5,0,3.6,1.6,3.6,4.2v6h-1.7l-0.2-1.1h-0.1c-0.9,0.8-2,1.4-3.2,1.4C567.5,21.2,566.3,20.1,566.3,18.4z M572.3,18.4V16
							c-2.9,0.4-3.9,1.1-3.9,2.2c0,1,0.7,1.4,1.5,1.4C570.7,19.6,571.4,19.2,572.3,18.4z"/>
						<path d="M577.3,18.7v-12h2.1v12.1c0,0.6,0.3,0.8,0.5,0.8c0.1,0,0.2,0,0.3,0l0.3,1.6c-0.3,0.1-0.6,0.2-1.1,0.2
							C577.8,21.2,577.3,20.3,577.3,18.7z"/>
						<path d="M586,16.1c0-3.2,2-5.2,4.2-5.2c1.1,0,1.9,0.4,2.7,1.1l-0.1-1.6V6.6h2.1V21h-1.7l-0.2-1.1H593
							c-0.7,0.8-1.8,1.4-2.9,1.4C587.6,21.2,586,19.3,586,16.1z M592.8,18.3v-4.8c-0.7-0.7-1.4-0.9-2.2-0.9c-1.4,0-2.5,1.3-2.5,3.5
							c0,2.3,0.9,3.5,2.4,3.5C591.4,19.5,592.1,19.1,592.8,18.3z"/>
						<path d="M597.7,8c0-0.7,0.6-1.2,1.3-1.2s1.3,0.5,1.3,1.2c0,0.7-0.6,1.2-1.3,1.2S597.7,8.7,597.7,8z M598,11.1h2.1V21H598V11.1
							z"/>
						<path d="M602.1,19.9l1-1.3c0.9,0.7,1.7,1.1,2.8,1.1c1.2,0,1.7-0.6,1.7-1.3c0-0.9-1.1-1.3-2.2-1.7c-1.3-0.5-2.8-1.2-2.8-2.9
							c0-1.7,1.3-2.9,3.5-2.9c1.3,0,2.4,0.5,3.2,1.2l-1,1.3c-0.7-0.5-1.4-0.9-2.2-0.9c-1.1,0-1.6,0.5-1.6,1.2c0,0.8,1,1.2,2.1,1.6
							c1.4,0.5,2.9,1.1,2.9,3c0,1.7-1.3,3-3.8,3C604.5,21.2,603.1,20.7,602.1,19.9z"/>
						<path d="M611.1,16.1c0-3.2,2.2-5.2,4.5-5.2c2.6,0,4,1.9,4,4.7c0,0.4,0,0.8-0.1,1h-6.4c0.2,1.9,1.3,3,3.1,3
							c0.9,0,1.6-0.3,2.4-0.7l0.7,1.3c-0.9,0.6-2.1,1-3.3,1C613.3,21.2,611.1,19.3,611.1,16.1z M617.9,15.2c0-1.7-0.8-2.7-2.2-2.7
							c-1.2,0-2.3,1-2.5,2.7H617.9z"/>
						<path d="M621.1,18.4c0-2.1,1.8-3.2,5.9-3.7c0-1.2-0.4-2.2-1.9-2.2c-1,0-2,0.5-2.9,1l-0.8-1.4c1-0.6,2.4-1.3,4-1.3
							c2.5,0,3.6,1.6,3.6,4.2v6h-1.7l-0.2-1.1h-0.1c-0.9,0.8-2,1.4-3.2,1.4C622.4,21.2,621.1,20.1,621.1,18.4z M627.1,18.4V16
							c-2.9,0.4-3.9,1.1-3.9,2.2c0,1,0.7,1.4,1.5,1.4C625.6,19.6,626.3,19.2,627.1,18.4z"/>
						<path d="M631,19.9l1-1.3c0.9,0.7,1.7,1.1,2.8,1.1c1.2,0,1.7-0.6,1.7-1.3c0-0.9-1.1-1.3-2.2-1.7c-1.3-0.5-2.8-1.2-2.8-2.9
							c0-1.7,1.3-2.9,3.5-2.9c1.3,0,2.4,0.5,3.2,1.2l-1,1.3c-0.7-0.5-1.4-0.9-2.2-0.9c-1.1,0-1.6,0.5-1.6,1.2c0,0.8,1,1.2,2.1,1.6
							c1.4,0.5,2.9,1.1,2.9,3c0,1.7-1.3,3-3.8,3C633.4,21.2,632,20.7,631,19.9z"/>
						<path d="M640,16.1c0-3.2,2.2-5.2,4.5-5.2c2.6,0,4,1.9,4,4.7c0,0.4,0,0.8-0.1,1H642c0.2,1.9,1.4,3,3.1,3c0.9,0,1.6-0.3,2.4-0.7
							l0.7,1.3c-0.9,0.6-2.1,1-3.3,1C642.2,21.2,640,19.3,640,16.1z M646.8,15.2c0-1.7-0.8-2.7-2.2-2.7c-1.2,0-2.3,1-2.5,2.7H646.8z
							"/>
						<path d="M650.3,23.4c1.2-0.5,1.9-1.4,2-2.5c-0.1,0-0.1,0-0.2,0c-0.7,0-1.4-0.5-1.4-1.3c0-0.8,0.6-1.3,1.4-1.3
							c1,0,1.6,0.8,1.6,2.2c0,1.9-1.1,3.3-3,4.1L650.3,23.4z"/>
						<path d="M659.6,16.1c0-3.3,2.3-5.2,4.9-5.2c1.3,0,2.2,0.5,2.9,1.1l-1,1.4c-0.5-0.5-1.1-0.8-1.8-0.8c-1.7,0-2.8,1.4-2.8,3.5
							c0,2.1,1.1,3.5,2.8,3.5c0.8,0,1.6-0.4,2.2-0.9l0.8,1.4c-0.9,0.8-2.1,1.2-3.2,1.2C661.6,21.2,659.6,19.3,659.6,16.1z"/>
						<path d="M669.6,18.7v-12h2.1v12.1c0,0.6,0.3,0.8,0.5,0.8c0.1,0,0.2,0,0.3,0l0.3,1.6c-0.3,0.1-0.6,0.2-1.1,0.2
							C670.2,21.2,669.6,20.3,669.6,18.7z"/>
						<path d="M674.4,18.4c0-2.1,1.8-3.2,5.9-3.7c0-1.2-0.4-2.2-1.9-2.2c-1,0-2,0.5-2.9,1l-0.8-1.4c1-0.6,2.4-1.3,4-1.3
							c2.5,0,3.6,1.6,3.6,4.2v6h-1.7l-0.2-1.1h-0.1c-0.9,0.8-2,1.4-3.2,1.4C675.6,21.2,674.4,20.1,674.4,18.4z M680.3,18.4V16
							c-2.9,0.4-3.9,1.1-3.9,2.2c0,1,0.7,1.4,1.5,1.4C678.8,19.6,679.5,19.2,680.3,18.4z"/>
						<path d="M685.2,17.3v-6.2h2.1v6c0,1.7,0.5,2.4,1.7,2.4c0.9,0,1.5-0.4,2.4-1.5v-6.9h2.1V21h-1.7l-0.2-1.5h-0.1
							c-0.9,1-1.9,1.7-3.2,1.7C686.1,21.2,685.2,19.8,685.2,17.3z"/>
						<path d="M695.8,16.1c0-3.2,2-5.2,4.2-5.2c1.1,0,1.9,0.4,2.7,1.1l-0.1-1.6V6.6h2.1V21H703l-0.2-1.1h-0.1
							c-0.7,0.8-1.8,1.4-2.9,1.4C697.4,21.2,695.8,19.3,695.8,16.1z M702.6,18.3v-4.8c-0.7-0.7-1.4-0.9-2.2-0.9
							c-1.4,0-2.5,1.3-2.5,3.5c0,2.3,0.9,3.5,2.4,3.5C701.2,19.5,701.9,19.1,702.6,18.3z"/>
						<path d="M707.5,8c0-0.7,0.6-1.2,1.3-1.2c0.8,0,1.3,0.5,1.3,1.2c0,0.7-0.6,1.2-1.3,1.2C708.1,9.2,707.5,8.7,707.5,8z
							 M707.8,11.1h2.1V21h-2.1V11.1z"/>
						<path d="M712.3,16.1c0-3.3,2.3-5.2,4.9-5.2c1.3,0,2.2,0.5,2.9,1.1l-1,1.4c-0.5-0.5-1.1-0.8-1.8-0.8c-1.7,0-2.8,1.4-2.8,3.5
							c0,2.1,1.1,3.5,2.8,3.5c0.8,0,1.6-0.4,2.2-0.9l0.8,1.4c-0.9,0.8-2.1,1.2-3.2,1.2C714.3,21.2,712.3,19.3,712.3,16.1z"/>
						<path d="M721.5,18.4c0-2.1,1.8-3.2,5.9-3.7c0-1.2-0.4-2.2-1.9-2.2c-1,0-2,0.5-2.9,1l-0.8-1.4c1-0.6,2.4-1.3,4-1.3
							c2.5,0,3.6,1.6,3.6,4.2v6h-1.7l-0.2-1.1h-0.1c-0.9,0.8-2,1.4-3.2,1.4C722.7,21.2,721.5,20.1,721.5,18.4z M727.4,18.4V16
							c-2.9,0.4-3.9,1.1-3.9,2.2c0,1,0.7,1.4,1.5,1.4C725.9,19.6,726.6,19.2,727.4,18.4z"/>
						<path d="M732.5,17.8v-5H731v-1.5l1.5-0.1l0.2-2.7h1.7v2.7h2.6v1.7h-2.6v5c0,1.2,0.4,1.8,1.4,1.8c0.3,0,0.8-0.1,1.1-0.2
							l0.4,1.5c-0.6,0.2-1.2,0.4-1.9,0.4C733.2,21.2,732.5,19.8,732.5,17.8z"/>
						<path d="M739,8c0-0.7,0.6-1.2,1.3-1.2s1.3,0.5,1.3,1.2c0,0.7-0.6,1.2-1.3,1.2S739,8.7,739,8z M739.3,11.1h2.1V21h-2.1V11.1z"
							/>
						<path d="M743.7,16.1c0-3.3,2.2-5.2,4.7-5.2s4.7,1.9,4.7,5.2c0,3.3-2.2,5.2-4.7,5.2S743.7,19.3,743.7,16.1z M750.9,16.1
							c0-2.1-1-3.5-2.5-3.5c-1.5,0-2.5,1.4-2.5,3.5c0,2.1,1,3.5,2.5,3.5C750,19.5,750.9,18.2,750.9,16.1z"/>
						<path d="M755.5,11.1h1.7l0.2,1.4h0.1c0.9-0.9,1.9-1.6,3.3-1.6c2.1,0,3,1.4,3,3.9V21h-2.1v-6c0-1.7-0.5-2.4-1.7-2.4
							c-0.9,0-1.5,0.5-2.4,1.3v7h-2.1V11.1z"/>
						<path d="M766.1,23.4c1.2-0.5,1.9-1.4,2-2.5c-0.1,0-0.1,0-0.2,0c-0.7,0-1.4-0.5-1.4-1.3c0-0.8,0.6-1.3,1.4-1.3
							c1,0,1.6,0.8,1.6,2.2c0,1.9-1.1,3.3-3,4.1L766.1,23.4z"/>
						<path d="M775.4,16.1c0-3.3,2.3-5.2,4.9-5.2c1.3,0,2.2,0.5,2.9,1.1l-1,1.4c-0.5-0.5-1.1-0.8-1.8-0.8c-1.7,0-2.8,1.4-2.8,3.5
							c0,2.1,1.1,3.5,2.8,3.5c0.8,0,1.6-0.4,2.2-0.9l0.8,1.4c-0.9,0.8-2.1,1.2-3.2,1.2C777.5,21.2,775.4,19.3,775.4,16.1z"/>
						<path d="M784.3,16.1c0-3.3,2.2-5.2,4.7-5.2c2.4,0,4.7,1.9,4.7,5.2c0,3.3-2.2,5.2-4.7,5.2C786.5,21.2,784.3,19.3,784.3,16.1z
							 M791.5,16.1c0-2.1-1-3.5-2.5-3.5c-1.5,0-2.5,1.4-2.5,3.5c0,2.1,1,3.5,2.5,3.5C790.5,19.5,791.5,18.2,791.5,16.1z"/>
						<path d="M796,11.1h1.7l0.2,1.8h0.1c0.7-1.3,1.7-2,2.8-2c0.5,0,0.8,0.1,1.1,0.2l-0.4,1.8c-0.3-0.1-0.6-0.2-1-0.2
							c-0.8,0-1.8,0.6-2.4,2.1V21H796V11.1z"/>
						<path d="M802.5,16.1c0-3.3,2.2-5.2,4.7-5.2c2.4,0,4.7,1.9,4.7,5.2c0,3.3-2.2,5.2-4.7,5.2C804.7,21.2,802.5,19.3,802.5,16.1z
							 M809.7,16.1c0-2.1-1-3.5-2.5-3.5c-1.5,0-2.5,1.4-2.5,3.5c0,2.1,1,3.5,2.5,3.5C808.7,19.5,809.7,18.2,809.7,16.1z"/>
						<path d="M814.2,11.1h1.7l0.2,1.4h0.1c0.9-0.9,1.9-1.6,3.3-1.6c2.1,0,3,1.4,3,3.9V21h-2.1v-6c0-1.7-0.5-2.4-1.7-2.4
							c-0.9,0-1.5,0.5-2.4,1.3v7h-2.1V11.1z"/>
						<path d="M824.9,18.4c0-2.1,1.8-3.2,5.9-3.7c0-1.2-0.4-2.2-1.9-2.2c-1,0-2,0.5-2.9,1l-0.8-1.4c1-0.6,2.4-1.3,4-1.3
							c2.5,0,3.6,1.6,3.6,4.2v6h-1.7l-0.2-1.1H831c-0.9,0.8-2,1.4-3.2,1.4C826.1,21.2,824.9,20.1,824.9,18.4z M830.8,18.4V16
							c-2.9,0.4-3.9,1.1-3.9,2.2c0,1,0.7,1.4,1.5,1.4C829.3,19.6,830,19.2,830.8,18.4z"/>
						<path d="M835.8,11.1h1.7l0.2,1.8h0.1c0.7-1.3,1.7-2,2.8-2c0.5,0,0.8,0.1,1.1,0.2l-0.4,1.8c-0.3-0.1-0.6-0.2-1-0.2
							c-0.8,0-1.8,0.6-2.4,2.1V21h-2.1V11.1z"/>
						<path d="M847.9,21.6c-0.8,2.1-1.8,3.5-3.9,3.5c-0.5,0-0.9-0.1-1.2-0.2l0.4-1.6c0.2,0.1,0.5,0.1,0.7,0.1c1.1,0,1.7-0.8,2.1-1.9
							l0.2-0.7l-3.9-9.8h2.1l1.8,5.1c0.3,0.9,0.6,1.9,0.9,2.8h0.1l0.8-2.8l1.6-5.1h2L847.9,21.6z"/>
						<path d="M856.8,18.4c0-2.1,1.8-3.2,5.9-3.7c0-1.2-0.4-2.2-1.9-2.2c-1,0-2,0.5-2.9,1l-0.8-1.4c1-0.6,2.4-1.3,4-1.3
							c2.5,0,3.6,1.6,3.6,4.2v6h-1.7l-0.2-1.1h-0.1c-0.9,0.8-2,1.4-3.2,1.4C858,21.2,856.8,20.1,856.8,18.4z M862.8,18.4V16
							c-2.9,0.4-3.9,1.1-3.9,2.2c0,1,0.7,1.4,1.5,1.4C861.2,19.6,861.9,19.2,862.8,18.4z"/>
						<path d="M867.8,11.1h1.7l0.2,1.8h0.1c0.7-1.3,1.7-2,2.8-2c0.5,0,0.8,0.1,1.1,0.2l-0.4,1.8c-0.3-0.1-0.6-0.2-1-0.2
							c-0.8,0-1.8,0.6-2.4,2.1V21h-2.1V11.1z"/>
						<path d="M875.4,17.8v-5H874v-1.5l1.5-0.1l0.2-2.7h1.7v2.7h2.6v1.7h-2.6v5c0,1.2,0.4,1.8,1.4,1.8c0.3,0,0.8-0.1,1.1-0.2
							l0.4,1.5c-0.6,0.2-1.2,0.4-1.9,0.4C876.2,21.2,875.4,19.8,875.4,17.8z"/>
						<path d="M881.2,16.1c0-3.2,2.2-5.2,4.5-5.2c2.6,0,4,1.9,4,4.7c0,0.4,0,0.8-0.1,1h-6.4c0.2,1.9,1.4,3,3.1,3
							c0.9,0,1.6-0.3,2.4-0.7l0.7,1.3c-0.9,0.6-2.1,1-3.3,1C883.4,21.2,881.2,19.3,881.2,16.1z M888,15.2c0-1.7-0.8-2.7-2.2-2.7
							c-1.2,0-2.3,1-2.5,2.7H888z"/>
						<path d="M892.1,11.1h1.7l0.2,1.8h0.1c0.7-1.3,1.7-2,2.8-2c0.5,0,0.8,0.1,1.1,0.2l-0.4,1.8c-0.3-0.1-0.6-0.2-1-0.2
							c-0.8,0-1.8,0.6-2.4,2.1V21h-2.1V11.1z"/>
						<path d="M904.2,21.6c-0.8,2.1-1.8,3.5-3.9,3.5c-0.5,0-0.9-0.1-1.2-0.2l0.4-1.6c0.2,0.1,0.5,0.1,0.7,0.1c1.1,0,1.7-0.8,2.1-1.9
							l0.2-0.7l-3.9-9.8h2.1l1.8,5.1c0.3,0.9,0.6,1.9,0.9,2.8h0.1l0.8-2.8l1.6-5.1h2L904.2,21.6z"/>
						<path d="M913,16.1c0-3.2,2-5.2,4.2-5.2c1.1,0,1.9,0.4,2.7,1.1l-0.1-1.6V6.6h2.1V21h-1.7l-0.2-1.1H920
							c-0.7,0.8-1.8,1.4-2.9,1.4C914.7,21.2,913,19.3,913,16.1z M919.9,18.3v-4.8c-0.7-0.7-1.4-0.9-2.2-0.9c-1.4,0-2.5,1.3-2.5,3.5
							c0,2.3,0.9,3.5,2.4,3.5C918.4,19.5,919.2,19.1,919.9,18.3z"/>
						<path d="M924.8,8c0-0.7,0.6-1.2,1.3-1.2s1.3,0.5,1.3,1.2c0,0.7-0.6,1.2-1.3,1.2S924.8,8.7,924.8,8z M925.1,11.1h2.1V21h-2.1
							V11.1z"/>
						<path d="M929.2,19.9l1-1.3c0.9,0.7,1.7,1.1,2.8,1.1c1.2,0,1.7-0.6,1.7-1.3c0-0.9-1.1-1.3-2.2-1.7c-1.3-0.5-2.8-1.2-2.8-2.9
							c0-1.7,1.3-2.9,3.5-2.9c1.3,0,2.4,0.5,3.2,1.2l-1,1.3c-0.7-0.5-1.4-0.9-2.2-0.9c-1.1,0-1.6,0.5-1.6,1.2c0,0.8,1,1.2,2.1,1.6
							c1.4,0.5,2.9,1.1,2.9,3c0,1.7-1.3,3-3.8,3C931.5,21.2,930.1,20.7,929.2,19.9z"/>
						<path d="M938.2,16.1c0-3.2,2.2-5.2,4.5-5.2c2.6,0,4,1.9,4,4.7c0,0.4,0,0.8-0.1,1h-6.4c0.2,1.9,1.4,3,3.1,3
							c0.9,0,1.6-0.3,2.4-0.7l0.7,1.3c-0.9,0.6-2.1,1-3.3,1C940.3,21.2,938.2,19.3,938.2,16.1z M944.9,15.2c0-1.7-0.8-2.7-2.2-2.7
							c-1.2,0-2.3,1-2.5,2.7H944.9z"/>
						<path d="M948.2,18.4c0-2.1,1.8-3.2,5.9-3.7c0-1.2-0.4-2.2-1.9-2.2c-1,0-2,0.5-2.9,1l-0.8-1.4c1-0.6,2.4-1.3,4-1.3
							c2.5,0,3.6,1.6,3.6,4.2v6h-1.7l-0.2-1.1h-0.1c-0.9,0.8-2,1.4-3.2,1.4C949.4,21.2,948.2,20.1,948.2,18.4z M954.1,18.4V16
							c-2.9,0.4-3.9,1.1-3.9,2.2c0,1,0.7,1.4,1.5,1.4C952.6,19.6,953.3,19.2,954.1,18.4z"/>
						<path d="M958.1,19.9l1-1.3c0.9,0.7,1.7,1.1,2.8,1.1c1.2,0,1.7-0.6,1.7-1.3c0-0.9-1.1-1.3-2.2-1.7c-1.3-0.5-2.8-1.2-2.8-2.9
							c0-1.7,1.3-2.9,3.5-2.9c1.3,0,2.4,0.5,3.2,1.2l-1,1.3c-0.7-0.5-1.4-0.9-2.2-0.9c-1.1,0-1.6,0.5-1.6,1.2c0,0.8,1,1.2,2.1,1.6
							c1.4,0.5,2.9,1.1,2.9,3c0,1.7-1.3,3-3.8,3C960.4,21.2,959,20.7,958.1,19.9z"/>
						<path d="M967,16.1c0-3.2,2.2-5.2,4.5-5.2c2.6,0,4,1.9,4,4.7c0,0.4,0,0.8-0.1,1h-6.4c0.2,1.9,1.4,3,3.1,3
							c0.9,0,1.6-0.3,2.4-0.7l0.7,1.3c-0.9,0.6-2.1,1-3.3,1C969.2,21.2,967,19.3,967,16.1z M973.8,15.2c0-1.7-0.8-2.7-2.2-2.7
							c-1.2,0-2.3,1-2.5,2.7H973.8z"/>
					</g>
					<path id="divider" class="st3" d="M0,42.5h1000"/>
				</g>
				<g id="cell2" transform="translate(0.000000, 123.000000)">
					<g class="st1">
						<path d="M99.5,10.9h2.2l0.2,1h0.1c0.8-0.7,1.9-1.3,3-1.3c2.5,0,4,2,4,5.1c0,3.5-2.1,5.5-4.3,5.5c-0.9,0-1.7-0.4-2.5-1.1
							l0.1,1.7v3.1h-2.6V10.9z M106.1,15.8c0-1.9-0.6-3-2-3c-0.7,0-1.3,0.3-2,1v4.4c0.6,0.6,1.3,0.8,1.8,0.8
							C105.2,19.1,106.1,18,106.1,15.8z"/>
						<path d="M111.3,7.7h3l2.3,6.2c0.3,0.8,0.5,1.7,0.8,2.6h0.1c0.3-0.9,0.5-1.7,0.8-2.6l2.2-6.2h3V21h-2.4v-5.6
							c0-1.3,0.2-3.1,0.3-4.4h-0.1l-1.1,3.1l-2.1,5.6h-1.5l-2.1-5.6l-1.1-3.1h-0.1c0.1,1.3,0.3,3.1,0.3,4.4V21h-2.4V7.7z"/>
						<path d="M126.6,15V7.7h2.7v7.6c0,2.8,1,3.7,2.5,3.7c1.6,0,2.6-0.9,2.6-3.7V7.7h2.6V15c0,4.4-1.9,6.2-5.1,6.2
							C128.5,21.3,126.6,19.4,126.6,15z"/>
						<path d="M140.1,7.7h2.7l3.9,7.1l1.3,2.9h0.1c-0.1-1.4-0.3-3.2-0.3-4.7V7.7h2.5V21h-2.7l-3.9-7.1l-1.4-2.9h-0.1
							c0.1,1.4,0.3,3.1,0.3,4.6V21h-2.5V7.7z"/>
					</g>
					<g class="st1">
						<path d="M286.7,7.7h2.4l2.4,6.7c0.3,0.9,0.6,1.8,0.9,2.7h0.1c0.3-0.9,0.6-1.8,0.9-2.7l2.4-6.7h2.4V21h-1.9v-6.6
							c0-1.2,0.2-2.9,0.3-4.1h-0.1l-1.1,3.1l-2.3,6.3h-1.3l-2.3-6.3l-1-3.1h-0.1c0.1,1.2,0.3,2.9,0.3,4.1V21h-1.9V7.7z"/>
						<path d="M301.4,17.3v-6.2h2.1v6c0,1.7,0.5,2.4,1.7,2.4c0.9,0,1.5-0.4,2.4-1.5v-6.9h2.1V21h-1.7l-0.2-1.5h-0.1
							c-0.9,1-1.9,1.7-3.2,1.7C302.3,21.2,301.4,19.8,301.4,17.3z"/>
						<path d="M311.6,19.9l1-1.3c0.9,0.7,1.7,1.1,2.8,1.1c1.2,0,1.7-0.6,1.7-1.3c0-0.9-1.1-1.3-2.2-1.7c-1.3-0.5-2.8-1.2-2.8-2.9
							c0-1.7,1.3-2.9,3.5-2.9c1.3,0,2.4,0.5,3.2,1.2l-1,1.3c-0.7-0.5-1.4-0.9-2.2-0.9c-1.1,0-1.6,0.5-1.6,1.2c0,0.8,1,1.2,2.1,1.6
							c1.4,0.5,2.9,1.1,2.9,3c0,1.7-1.3,3-3.8,3C314,21.2,312.6,20.7,311.6,19.9z"/>
						<path d="M320.6,16.1c0-3.3,2.3-5.2,4.9-5.2c1.3,0,2.2,0.5,2.9,1.1l-1,1.4c-0.5-0.5-1.1-0.8-1.8-0.8c-1.7,0-2.8,1.4-2.8,3.5
							c0,2.1,1.1,3.5,2.8,3.5c0.8,0,1.6-0.4,2.2-0.9l0.8,1.4c-0.9,0.8-2.1,1.2-3.2,1.2C322.7,21.2,320.6,19.3,320.6,16.1z"/>
						<path d="M330.5,17.3v-6.2h2.1v6c0,1.7,0.5,2.4,1.7,2.4c0.9,0,1.5-0.4,2.4-1.5v-6.9h2.1V21H337l-0.2-1.5h-0.1
							c-0.9,1-1.9,1.7-3.2,1.7C331.4,21.2,330.5,19.8,330.5,17.3z"/>
						<path d="M341.8,18.7v-12h2.1v12.1c0,0.6,0.3,0.8,0.5,0.8c0.1,0,0.2,0,0.3,0l0.3,1.6c-0.3,0.1-0.6,0.2-1.1,0.2
							C342.3,21.2,341.8,20.3,341.8,18.7z"/>
						<path d="M346.6,18.4c0-2.1,1.8-3.2,5.9-3.7c0-1.2-0.4-2.2-1.9-2.2c-1,0-2,0.5-2.9,1l-0.8-1.4c1-0.6,2.4-1.3,4-1.3
							c2.5,0,3.6,1.6,3.6,4.2v6h-1.7l-0.2-1.1h-0.1c-0.9,0.8-2,1.4-3.2,1.4C347.8,21.2,346.6,20.1,346.6,18.4z M352.5,18.4V16
							c-2.9,0.4-3.9,1.1-3.9,2.2c0,1,0.7,1.4,1.5,1.4C351,19.6,351.7,19.2,352.5,18.4z"/>
						<path d="M357.5,11.1h1.7l0.2,1.8h0.1c0.7-1.3,1.7-2,2.8-2c0.5,0,0.8,0.1,1.1,0.2l-0.4,1.8c-0.3-0.1-0.6-0.2-1-0.2
							c-0.8,0-1.8,0.6-2.4,2.1V21h-2.1V11.1z"/>
						<path d="M368.3,18.4c0-2.1,1.8-3.2,5.9-3.7c0-1.2-0.4-2.2-1.9-2.2c-1,0-2,0.5-2.9,1l-0.8-1.4c1-0.6,2.4-1.3,4-1.3
							c2.5,0,3.6,1.6,3.6,4.2v6h-1.7l-0.2-1.1h-0.1c-0.9,0.8-2,1.4-3.2,1.4C369.5,21.2,368.3,20.1,368.3,18.4z M374.2,18.4V16
							c-2.9,0.4-3.9,1.1-3.9,2.2c0,1,0.7,1.4,1.5,1.4C372.7,19.6,373.4,19.2,374.2,18.4z"/>
						<path d="M379.3,17.8v-5h-1.4v-1.5l1.5-0.1l0.2-2.7h1.7v2.7h2.6v1.7h-2.6v5c0,1.2,0.4,1.8,1.4,1.8c0.3,0,0.8-0.1,1.1-0.2
							l0.4,1.5c-0.6,0.2-1.2,0.4-1.9,0.4C380,21.2,379.3,19.8,379.3,17.8z"/>
						<path d="M386.1,11.1h1.7l0.2,1.8h0.1c0.7-1.3,1.7-2,2.8-2c0.5,0,0.8,0.1,1.1,0.2l-0.4,1.8c-0.3-0.1-0.6-0.2-1-0.2
							c-0.8,0-1.8,0.6-2.4,2.1V21h-2.1V11.1z"/>
						<path d="M392.5,16.1c0-3.3,2.2-5.2,4.7-5.2s4.7,1.9,4.7,5.2c0,3.3-2.2,5.2-4.7,5.2S392.5,19.3,392.5,16.1z M399.7,16.1
							c0-2.1-1-3.5-2.5-3.5c-1.5,0-2.5,1.4-2.5,3.5c0,2.1,1,3.5,2.5,3.5C398.8,19.5,399.7,18.2,399.7,16.1z"/>
						<path d="M404.3,11.1h1.7l0.2,1.1h0.1c0.9-0.7,1.9-1.3,3-1.3c2.5,0,3.9,2,3.9,5c0,3.4-2,5.3-4.3,5.3c-0.9,0-1.8-0.4-2.6-1.1
							l0.1,1.7V25h-2.1V11.1z M411,15.9c0-2.1-0.7-3.3-2.3-3.3c-0.8,0-1.5,0.4-2.4,1.2v4.8c0.8,0.7,1.5,0.9,2.2,0.9
							C409.9,19.5,411,18.2,411,15.9z"/>
						<path d="M415.6,6.6h2.1v3.8l-0.1,2c0.9-0.8,1.9-1.6,3.2-1.6c2.1,0,3,1.4,3,3.9V21h-2.1v-6c0-1.7-0.5-2.4-1.7-2.4
							c-0.9,0-1.5,0.5-2.4,1.3v7h-2.1V6.6z"/>
						<path d="M431.2,21.6c-0.8,2.1-1.8,3.5-3.9,3.5c-0.5,0-0.9-0.1-1.2-0.2l0.4-1.6c0.2,0.1,0.5,0.1,0.7,0.1c1.1,0,1.7-0.8,2.1-1.9
							l0.2-0.7l-3.9-9.8h2.1l1.8,5.1c0.3,0.9,0.6,1.9,0.9,2.8h0.1l0.8-2.8l1.6-5.1h2L431.2,21.6z"/>
						<path d="M435.1,23.4c1.2-0.5,1.9-1.4,2-2.5c-0.1,0-0.1,0-0.2,0c-0.7,0-1.4-0.5-1.4-1.3c0-0.8,0.6-1.3,1.4-1.3
							c1,0,1.6,0.8,1.6,2.2c0,1.9-1.1,3.3-3,4.1L435.1,23.4z"/>
						<path d="M444.1,19.9l1-1.3c0.9,0.7,1.7,1.1,2.8,1.1c1.2,0,1.7-0.6,1.7-1.3c0-0.9-1.1-1.3-2.2-1.7c-1.3-0.5-2.8-1.2-2.8-2.9
							c0-1.7,1.3-2.9,3.5-2.9c1.3,0,2.4,0.5,3.2,1.2l-1,1.3c-0.7-0.5-1.4-0.9-2.2-0.9c-1.1,0-1.6,0.5-1.6,1.2c0,0.8,1,1.2,2.1,1.6
							c1.4,0.5,2.9,1.1,2.9,3c0,1.7-1.3,3-3.8,3C446.5,21.2,445.1,20.7,444.1,19.9z"/>
						<path d="M453.2,18.4c0-2.1,1.8-3.2,5.9-3.7c0-1.2-0.4-2.2-1.9-2.2c-1,0-2,0.5-2.9,1l-0.8-1.4c1-0.6,2.4-1.3,4-1.3
							c2.5,0,3.6,1.6,3.6,4.2v6h-1.7l-0.2-1.1h-0.1c-0.9,0.8-2,1.4-3.2,1.4C454.4,21.2,453.2,20.1,453.2,18.4z M459.1,18.4V16
							c-2.9,0.4-3.9,1.1-3.9,2.2c0,1,0.7,1.4,1.5,1.4C457.6,19.6,458.3,19.2,459.1,18.4z"/>
						<path d="M464.1,11.1h1.7l0.2,1.8h0.1c0.7-1.3,1.7-2,2.8-2c0.5,0,0.8,0.1,1.1,0.2l-0.4,1.8c-0.3-0.1-0.6-0.2-1-0.2
							c-0.8,0-1.8,0.6-2.4,2.1V21h-2.1V11.1z"/>
						<path d="M470.6,16.1c0-3.3,2.3-5.2,4.9-5.2c1.3,0,2.2,0.5,2.9,1.1l-1,1.4c-0.5-0.5-1.1-0.8-1.8-0.8c-1.7,0-2.8,1.4-2.8,3.5
							c0,2.1,1.1,3.5,2.8,3.5c0.8,0,1.6-0.4,2.2-0.9l0.8,1.4c-0.9,0.8-2.1,1.2-3.2,1.2C472.6,21.2,470.6,19.3,470.6,16.1z"/>
						<path d="M479.4,16.1c0-3.3,2.2-5.2,4.7-5.2s4.7,1.9,4.7,5.2c0,3.3-2.2,5.2-4.7,5.2S479.4,19.3,479.4,16.1z M486.6,16.1
							c0-2.1-1-3.5-2.5-3.5c-1.5,0-2.5,1.4-2.5,3.5c0,2.1,1,3.5,2.5,3.5C485.7,19.5,486.6,18.2,486.6,16.1z"/>
						<path d="M491.2,11.1h1.7l0.2,1.1h0.1c0.9-0.7,1.9-1.3,3-1.3c2.5,0,3.9,2,3.9,5c0,3.4-2,5.3-4.3,5.3c-0.9,0-1.8-0.4-2.6-1.1
							l0.1,1.7V25h-2.1V11.1z M497.9,15.9c0-2.1-0.7-3.3-2.3-3.3c-0.8,0-1.5,0.4-2.4,1.2v4.8c0.8,0.7,1.5,0.9,2.2,0.9
							C496.8,19.5,497.9,18.2,497.9,15.9z"/>
						<path d="M501.8,16.1c0-3.2,2.2-5.2,4.5-5.2c2.6,0,4,1.9,4,4.7c0,0.4,0,0.8-0.1,1h-6.4c0.2,1.9,1.4,3,3.1,3
							c0.9,0,1.6-0.3,2.4-0.7l0.7,1.3c-0.9,0.6-2.1,1-3.3,1C504,21.2,501.8,19.3,501.8,16.1z M508.6,15.2c0-1.7-0.8-2.7-2.2-2.7
							c-1.2,0-2.3,1-2.5,2.7H508.6z"/>
						<path d="M512.7,11.1h1.7l0.2,1.4h0.1c0.9-0.9,1.9-1.6,3.3-1.6c2.1,0,3,1.4,3,3.9V21h-2.1v-6c0-1.7-0.5-2.4-1.7-2.4
							c-0.9,0-1.5,0.5-2.4,1.3v7h-2.1V11.1z"/>
						<path d="M523.6,8c0-0.7,0.6-1.2,1.3-1.2s1.3,0.5,1.3,1.2c0,0.7-0.6,1.2-1.3,1.2S523.6,8.7,523.6,8z M523.9,11.1h2.1V21h-2.1
							V11.1z"/>
						<path d="M528.5,18.4c0-2.1,1.8-3.2,5.9-3.7c0-1.2-0.4-2.2-1.9-2.2c-1,0-2,0.5-2.9,1l-0.8-1.4c1-0.6,2.4-1.3,4-1.3
							c2.5,0,3.6,1.6,3.6,4.2v6h-1.7l-0.2-1.1h-0.1c-0.9,0.8-2,1.4-3.2,1.4C529.7,21.2,528.5,20.1,528.5,18.4z M534.4,18.4V16
							c-2.9,0.4-3.9,1.1-3.9,2.2c0,1,0.7,1.4,1.5,1.4C532.9,19.6,533.6,19.2,534.4,18.4z"/>
						<path d="M538.8,23.4c1.2-0.5,1.9-1.4,2-2.5c-0.1,0-0.1,0-0.2,0c-0.7,0-1.4-0.5-1.4-1.3c0-0.8,0.6-1.3,1.4-1.3
							c1,0,1.6,0.8,1.6,2.2c0,1.9-1.1,3.3-3,4.1L538.8,23.4z"/>
						<path d="M549.2,17.8v-5h-1.4v-1.5l1.5-0.1l0.2-2.7h1.7v2.7h2.6v1.7h-2.6v5c0,1.2,0.4,1.8,1.4,1.8c0.3,0,0.8-0.1,1.1-0.2
							l0.4,1.5c-0.6,0.2-1.2,0.4-1.9,0.4C550,21.2,549.2,19.8,549.2,17.8z"/>
						<path d="M556,11.1h1.7l0.2,1.8h0.1c0.7-1.3,1.7-2,2.8-2c0.5,0,0.8,0.1,1.1,0.2l-0.4,1.8c-0.3-0.1-0.6-0.2-1-0.2
							c-0.8,0-1.8,0.6-2.4,2.1V21H556V11.1z"/>
						<path d="M562.3,18.4c0-2.1,1.8-3.2,5.9-3.7c0-1.2-0.4-2.2-1.9-2.2c-1,0-2,0.5-2.9,1l-0.8-1.4c1-0.6,2.4-1.3,4-1.3
							c2.5,0,3.6,1.6,3.6,4.2v6h-1.7l-0.2-1.1h-0.1c-0.9,0.8-2,1.4-3.2,1.4C563.5,21.2,562.3,20.1,562.3,18.4z M568.2,18.4V16
							c-2.9,0.4-3.9,1.1-3.9,2.2c0,1,0.7,1.4,1.5,1.4C566.7,19.6,567.4,19.2,568.2,18.4z"/>
						<path d="M573.1,17.3v-6.2h2.1v6c0,1.7,0.5,2.4,1.7,2.4c0.9,0,1.5-0.4,2.4-1.5v-6.9h2.1V21h-1.7l-0.2-1.5h-0.1
							c-0.9,1-1.9,1.7-3.2,1.7C574,21.2,573.1,19.8,573.1,17.3z"/>
						<path d="M584.4,11.1h1.7l0.2,1.4h0.1c0.8-0.9,1.8-1.6,3.1-1.6c1.5,0,2.3,0.7,2.7,1.8c1-1,2-1.8,3.2-1.8c2.1,0,3,1.4,3,3.9V21
							h-2.1v-6c0-1.7-0.5-2.4-1.7-2.4c-0.7,0-1.4,0.5-2.2,1.3v7h-2.1v-6c0-1.7-0.5-2.4-1.7-2.4c-0.7,0-1.4,0.5-2.2,1.3v7h-2.1V11.1z
							"/>
						<path d="M600.7,18.4c0-2.1,1.8-3.2,5.9-3.7c0-1.2-0.4-2.2-1.9-2.2c-1,0-2,0.5-2.9,1l-0.8-1.4c1-0.6,2.4-1.3,4-1.3
							c2.5,0,3.6,1.6,3.6,4.2v6H607l-0.2-1.1h-0.1c-0.9,0.8-2,1.4-3.2,1.4C601.9,21.2,600.7,20.1,600.7,18.4z M606.7,18.4V16
							c-2.9,0.4-3.9,1.1-3.9,2.2c0,1,0.7,1.4,1.5,1.4C605.1,19.6,605.8,19.2,606.7,18.4z"/>
						<path d="M611.7,17.8v-5h-1.4v-1.5l1.5-0.1l0.2-2.7h1.7v2.7h2.6v1.7h-2.6v5c0,1.2,0.4,1.8,1.4,1.8c0.3,0,0.8-0.1,1.1-0.2
							l0.4,1.5c-0.6,0.2-1.2,0.4-1.9,0.4C612.5,21.2,611.7,19.8,611.7,17.8z"/>
						<path d="M618.2,8c0-0.7,0.6-1.2,1.3-1.2s1.3,0.5,1.3,1.2c0,0.7-0.6,1.2-1.3,1.2S618.2,8.7,618.2,8z M618.5,11.1h2.1V21h-2.1
							V11.1z"/>
						<path d="M622.9,16.1c0-3.3,2.3-5.2,4.9-5.2c1.3,0,2.2,0.5,2.9,1.1l-1,1.4c-0.5-0.5-1.1-0.8-1.8-0.8c-1.7,0-2.8,1.4-2.8,3.5
							c0,2.1,1.1,3.5,2.8,3.5c0.8,0,1.6-0.4,2.2-0.9l0.8,1.4c-0.9,0.8-2.1,1.2-3.2,1.2C625,21.2,622.9,19.3,622.9,16.1z"/>
						<path d="M637,11.1h1.7l0.2,1.4h0.1c0.9-0.9,1.9-1.6,3.3-1.6c2.1,0,3,1.4,3,3.9V21h-2.1v-6c0-1.7-0.5-2.4-1.7-2.4
							c-0.9,0-1.5,0.5-2.4,1.3v7H637V11.1z"/>
						<path d="M647.5,16.1c0-3.2,2.2-5.2,4.5-5.2c2.6,0,4,1.9,4,4.7c0,0.4,0,0.8-0.1,1h-6.4c0.2,1.9,1.4,3,3.1,3
							c0.9,0,1.6-0.3,2.4-0.7l0.7,1.3c-0.9,0.6-2.1,1-3.3,1C649.7,21.2,647.5,19.3,647.5,16.1z M654.3,15.2c0-1.7-0.8-2.7-2.2-2.7
							c-1.2,0-2.3,1-2.5,2.7H654.3z"/>
						<path d="M658.4,11.1h1.7l0.2,1.8h0.1c0.7-1.3,1.7-2,2.8-2c0.5,0,0.8,0.1,1.1,0.2l-0.4,1.8c-0.3-0.1-0.6-0.2-1-0.2
							c-0.8,0-1.8,0.6-2.4,2.1V21h-2.1V11.1z"/>
						<path d="M664.8,11.1h2.1l1.7,5.3c0.3,1,0.6,2,0.9,3h0.1c0.3-1,0.6-2,0.9-3l1.7-5.3h2l-3.4,9.9h-2.4L664.8,11.1z"/>
						<path d="M675.2,16.1c0-3.2,2.2-5.2,4.5-5.2c2.6,0,4,1.9,4,4.7c0,0.4,0,0.8-0.1,1h-6.4c0.2,1.9,1.3,3,3.1,3
							c0.9,0,1.6-0.3,2.4-0.7l0.7,1.3c-0.9,0.6-2.1,1-3.3,1C677.3,21.2,675.2,19.3,675.2,16.1z M681.9,15.2c0-1.7-0.8-2.7-2.2-2.7
							c-1.2,0-2.3,1-2.5,2.7H681.9z"/>
						<path d="M689.8,8c0-0.7,0.6-1.2,1.3-1.2s1.3,0.5,1.3,1.2c0,0.7-0.6,1.2-1.3,1.2S689.8,8.7,689.8,8z M690.1,11.1h2.1V21h-2.1
							V11.1z"/>
						<path d="M695.3,11.1h1.7l0.2,1.4h0.1c0.9-0.9,1.9-1.6,3.3-1.6c2.1,0,3,1.4,3,3.9V21h-2.1v-6c0-1.7-0.5-2.4-1.7-2.4
							c-0.9,0-1.5,0.5-2.4,1.3v7h-2.1V11.1z"/>
						<path d="M704.1,25l0.4-1.5c0.3,0.1,0.6,0.2,0.9,0.2c0.9,0,1.2-0.7,1.2-1.8V11.1h2.1v10.6c0,2.1-0.8,3.5-3,3.5
							C704.9,25.3,704.4,25.1,704.1,25z M706.2,8c0-0.7,0.6-1.2,1.3-1.2c0.8,0,1.3,0.5,1.3,1.2c0,0.7-0.6,1.2-1.3,1.2
							C706.8,9.2,706.2,8.7,706.2,8z"/>
						<path d="M711.5,17.3v-6.2h2.1v6c0,1.7,0.5,2.4,1.7,2.4c0.9,0,1.5-0.4,2.4-1.5v-6.9h2.1V21H718l-0.2-1.5h-0.1
							c-0.9,1-1.9,1.7-3.2,1.7C712.5,21.2,711.5,19.8,711.5,17.3z"/>
						<path d="M722.8,11.1h1.7l0.2,1.8h0.1c0.7-1.3,1.7-2,2.8-2c0.5,0,0.8,0.1,1.1,0.2l-0.4,1.8c-0.3-0.1-0.6-0.2-1-0.2
							c-0.8,0-1.8,0.6-2.4,2.1V21h-2.1V11.1z"/>
						<path d="M734.9,21.6c-0.8,2.1-1.8,3.5-3.9,3.5c-0.5,0-0.9-0.1-1.2-0.2l0.4-1.6c0.2,0.1,0.5,0.1,0.7,0.1c1.1,0,1.7-0.8,2.1-1.9
							l0.2-0.7l-3.9-9.8h2.1l1.8,5.1c0.3,0.9,0.6,1.9,0.9,2.8h0.1l0.8-2.8l1.6-5.1h2L734.9,21.6z"/>
					</g>
					<path class="st3" d="M0,42.5h1000"/>
				</g>
				<g id="cell3" transform="translate(0.000000, 181.000000)">
					<g class="st1">
						<path d="M95.8,7.7h2.8l1.8,6.5c0.4,1.5,0.7,2.8,1.1,4.3h0.1c0.4-1.5,0.7-2.8,1.1-4.3l1.7-6.5h2.7L103,21h-3.2L95.8,7.7z"/>
						<path d="M108.6,7.7h3l2.3,6.2c0.3,0.8,0.5,1.7,0.8,2.6h0.1c0.3-0.9,0.5-1.7,0.8-2.6l2.2-6.2h3V21h-2.4v-5.6
							c0-1.3,0.2-3.1,0.3-4.4h-0.1l-1.1,3.1l-2.1,5.6h-1.5l-2.1-5.6l-1.1-3.1h-0.1c0.1,1.3,0.3,3.1,0.3,4.4V21h-2.4V7.7z"/>
						<path d="M122.8,19.4l1.2-1.7c0.8,0.8,1.8,1.4,3,1.4c1.4,0,2.3-0.7,2.3-1.9c0-1.3-0.8-2.1-3.7-2.1v-1.9c2.4,0,3.2-0.8,3.2-2
							c0-1-0.6-1.7-1.8-1.7c-1,0-1.7,0.5-2.5,1.2l-1.4-1.6c1.2-1,2.4-1.6,4-1.6c2.6,0,4.3,1.3,4.3,3.5c0,1.4-0.8,2.5-2.2,3v0.1
							c1.5,0.4,2.7,1.5,2.7,3.3c0,2.4-2.1,3.9-4.7,3.9C125.2,21.3,123.7,20.5,122.8,19.4z"/>
						<path d="M133.7,14.3c0-4.6,1.8-6.9,4.5-6.9c2.7,0,4.5,2.3,4.5,6.9c0,4.6-1.8,7-4.5,7C135.5,21.3,133.7,18.9,133.7,14.3z
							 M140.3,14.3c0-3.7-0.9-4.8-2-4.8c-1.2,0-2,1.1-2,4.8c0,3.7,0.9,4.9,2,4.9C139.4,19.2,140.3,18,140.3,14.3z"/>
						<path d="M145,18.9h2.9v-8.4h-2.4V8.8c1.3-0.3,2.3-0.6,3.1-1.1h2v11.2h2.5V21h-8V18.9z"/>
					</g>
					<g class="st1">
						<path d="M293,17.2h-4.6l-1.1,3.8h-2.1l4.4-13.3h2.4l4.4,13.3h-2.2L293,17.2z M292.5,15.6l-0.5-1.8c-0.4-1.4-0.8-2.9-1.3-4.4
							h-0.1c-0.4,1.5-0.8,3-1.2,4.4l-0.5,1.8H292.5z"/>
						<path d="M298.1,7.7h2.1v11.5h5.6V21h-7.7V7.7z"/>
						<path d="M306.7,19.3l1.2-1.4c1,1,2.3,1.6,3.5,1.6c1.6,0,2.5-0.8,2.5-1.9c0-1.2-0.9-1.6-2.1-2.1l-1.8-0.8
							c-1.3-0.5-2.7-1.5-2.7-3.5c0-2.1,1.8-3.7,4.4-3.7c1.5,0,3,0.6,4,1.7l-1.1,1.3c-0.8-0.7-1.7-1.2-2.9-1.2
							c-1.4,0-2.2,0.6-2.2,1.7c0,1.1,1.1,1.6,2.1,2l1.8,0.8c1.6,0.7,2.7,1.6,2.7,3.6c0,2.1-1.8,3.9-4.7,3.9
							C309.6,21.2,307.9,20.5,306.7,19.3z"/>
						<path d="M317.8,23.4c1.2-0.5,1.9-1.4,2-2.5c-0.1,0-0.1,0-0.2,0c-0.7,0-1.4-0.5-1.4-1.3c0-0.8,0.6-1.3,1.4-1.3
							c1,0,1.6,0.8,1.6,2.2c0,1.9-1.1,3.3-3,4.1L317.8,23.4z"/>
						<path d="M326.7,19.9l1-1.3c0.9,0.7,1.7,1.1,2.8,1.1c1.2,0,1.7-0.6,1.7-1.3c0-0.9-1.1-1.3-2.2-1.7c-1.3-0.5-2.8-1.2-2.8-2.9
							c0-1.7,1.3-2.9,3.5-2.9c1.3,0,2.4,0.5,3.2,1.2l-1,1.3c-0.7-0.5-1.4-0.9-2.2-0.9c-1.1,0-1.6,0.5-1.6,1.2c0,0.8,1,1.2,2.1,1.6
							c1.4,0.5,2.9,1.1,2.9,3c0,1.7-1.3,3-3.8,3C329.1,21.2,327.7,20.7,326.7,19.9z"/>
						<path d="M336.4,11.1h1.7l0.2,1.1h0.1c0.9-0.7,1.9-1.3,3-1.3c2.5,0,3.9,2,3.9,5c0,3.4-2,5.3-4.3,5.3c-0.9,0-1.8-0.4-2.6-1.1
							l0.1,1.7V25h-2.1V11.1z M343.2,15.9c0-2.1-0.7-3.3-2.3-3.3c-0.8,0-1.5,0.4-2.4,1.2v4.8c0.8,0.7,1.5,0.9,2.2,0.9
							C342.1,19.5,343.2,18.2,343.2,15.9z"/>
						<path d="M347.5,8c0-0.7,0.6-1.2,1.3-1.2s1.3,0.5,1.3,1.2c0,0.7-0.6,1.2-1.3,1.2S347.5,8.7,347.5,8z M347.8,11.1h2.1V21h-2.1
							V11.1z"/>
						<path d="M352.9,11.1h1.7l0.2,1.4h0.1c0.9-0.9,1.9-1.6,3.3-1.6c2.1,0,3,1.4,3,3.9V21h-2.1v-6c0-1.7-0.5-2.4-1.7-2.4
							c-0.9,0-1.5,0.5-2.4,1.3v7h-2.1V11.1z"/>
						<path d="M363.6,18.4c0-2.1,1.8-3.2,5.9-3.7c0-1.2-0.4-2.2-1.9-2.2c-1,0-2,0.5-2.9,1l-0.8-1.4c1-0.6,2.4-1.3,4-1.3
							c2.5,0,3.6,1.6,3.6,4.2v6h-1.7l-0.2-1.1h-0.1c-0.9,0.8-2,1.4-3.2,1.4C364.8,21.2,363.6,20.1,363.6,18.4z M369.5,18.4V16
							c-2.9,0.4-3.9,1.1-3.9,2.2c0,1,0.7,1.4,1.5,1.4C368,19.6,368.7,19.2,369.5,18.4z"/>
						<path d="M374.5,18.7v-12h2.1v12.1c0,0.6,0.3,0.8,0.5,0.8c0.1,0,0.2,0,0.3,0l0.3,1.6c-0.3,0.1-0.6,0.2-1.1,0.2
							C375.1,21.2,374.5,20.3,374.5,18.7z"/>
						<path d="M383.2,16.1c0-3.3,2.3-5.2,4.9-5.2c1.3,0,2.2,0.5,2.9,1.1l-1,1.4c-0.5-0.5-1.1-0.8-1.8-0.8c-1.7,0-2.8,1.4-2.8,3.5
							c0,2.1,1.1,3.5,2.8,3.5c0.8,0,1.6-0.4,2.2-0.9l0.8,1.4c-0.9,0.8-2.1,1.2-3.2,1.2C385.3,21.2,383.2,19.3,383.2,16.1z"/>
						<path d="M392.1,16.1c0-3.3,2.2-5.2,4.7-5.2s4.7,1.9,4.7,5.2c0,3.3-2.2,5.2-4.7,5.2S392.1,19.3,392.1,16.1z M399.3,16.1
							c0-2.1-1-3.5-2.5-3.5c-1.5,0-2.5,1.4-2.5,3.5c0,2.1,1,3.5,2.5,3.5C398.3,19.5,399.3,18.2,399.3,16.1z"/>
						<path d="M403.8,11.1h1.7l0.2,1.8h0.1c0.7-1.3,1.7-2,2.8-2c0.5,0,0.8,0.1,1.1,0.2l-0.4,1.8c-0.3-0.1-0.6-0.2-1-0.2
							c-0.8,0-1.8,0.6-2.4,2.1V21h-2.1V11.1z"/>
						<path d="M410.3,16.1c0-3.2,2-5.2,4.2-5.2c1.1,0,1.9,0.4,2.7,1.1l-0.1-1.6V6.6h2.1V21h-1.7l-0.2-1.1h-0.1
							c-0.7,0.8-1.8,1.4-2.9,1.4C411.9,21.2,410.3,19.3,410.3,16.1z M417.1,18.3v-4.8c-0.7-0.7-1.4-0.9-2.2-0.9
							c-1.4,0-2.5,1.3-2.5,3.5c0,2.3,0.9,3.5,2.4,3.5C415.7,19.5,416.4,19.1,417.1,18.3z"/>
						<path d="M426.1,8c0-0.7,0.6-1.2,1.3-1.2s1.3,0.5,1.3,1.2c0,0.7-0.6,1.2-1.3,1.2S426.1,8.7,426.1,8z M426.4,11.1h2.1V21h-2.1
							V11.1z"/>
						<path d="M431.5,11.1h1.7l0.2,1.4h0.1c0.9-0.9,1.9-1.6,3.3-1.6c2.1,0,3,1.4,3,3.9V21h-2.1v-6c0-1.7-0.5-2.4-1.7-2.4
							c-0.9,0-1.5,0.5-2.4,1.3v7h-2.1V11.1z"/>
						<path d="M440.3,25l0.4-1.5c0.3,0.1,0.6,0.2,0.9,0.2c0.9,0,1.2-0.7,1.2-1.8V11.1h2.1v10.6c0,2.1-0.8,3.5-3,3.5
							C441.2,25.3,440.7,25.1,440.3,25z M442.5,8c0-0.7,0.6-1.2,1.3-1.2s1.3,0.5,1.3,1.2c0,0.7-0.6,1.2-1.3,1.2S442.5,8.7,442.5,8z"
							/>
						<path d="M447.8,17.3v-6.2h2.1v6c0,1.7,0.5,2.4,1.7,2.4c0.9,0,1.5-0.4,2.4-1.5v-6.9h2.1V21h-1.7l-0.2-1.5h-0.1
							c-0.9,1-1.9,1.7-3.2,1.7C448.7,21.2,447.8,19.8,447.8,17.3z"/>
						<path d="M459.1,11.1h1.7l0.2,1.8h0.1c0.7-1.3,1.7-2,2.8-2c0.5,0,0.8,0.1,1.1,0.2l-0.4,1.8c-0.3-0.1-0.6-0.2-1-0.2
							c-0.8,0-1.8,0.6-2.4,2.1V21h-2.1V11.1z"/>
						<path d="M471.2,21.6c-0.8,2.1-1.8,3.5-3.9,3.5c-0.5,0-0.9-0.1-1.2-0.2l0.4-1.6c0.2,0.1,0.5,0.1,0.7,0.1c1.1,0,1.7-0.8,2.1-1.9
							l0.2-0.7l-3.9-9.8h2.1l1.8,5.1c0.3,0.9,0.6,1.9,0.9,2.8h0.1l0.8-2.8l1.6-5.1h2L471.2,21.6z"/>
						<path d="M475.2,23.4c1.2-0.5,1.9-1.4,2-2.5c-0.1,0-0.1,0-0.2,0c-0.7,0-1.4-0.5-1.4-1.3c0-0.8,0.6-1.3,1.4-1.3
							c1,0,1.6,0.8,1.6,2.2c0,1.9-1.1,3.3-3,4.1L475.2,23.4z"/>
						<path d="M485.6,9.9c0-2,0.9-3.4,3.1-3.4c0.7,0,1.3,0.1,1.7,0.3L490,8.3c-0.4-0.2-0.7-0.3-1.1-0.3c-0.9,0-1.3,0.6-1.3,1.8v1.3
							h2v1.7h-2V21h-2.1v-8.2h-1.4v-1.5l1.4-0.1V9.9z M491.5,8c0-0.7,0.6-1.2,1.3-1.2s1.3,0.5,1.3,1.2c0,0.7-0.6,1.2-1.3,1.2
							S491.5,8.7,491.5,8z M491.8,11.1h2.1V21h-2.1V11.1z"/>
						<path d="M498.8,20L498.8,20l-0.3,1H497V6.6h2.1v3.8l-0.1,1.7c0.8-0.7,1.9-1.3,3-1.3c2.5,0,3.9,2,3.9,5c0,3.4-2,5.3-4.3,5.3
							C500.7,21.2,499.7,20.8,498.8,20z M503.7,15.9c0-2.1-0.7-3.3-2.3-3.3c-0.8,0-1.5,0.4-2.4,1.2v4.8c0.8,0.7,1.5,0.9,2.2,0.9
							C502.6,19.5,503.7,18.2,503.7,15.9z"/>
						<path d="M508.3,11.1h1.7l0.2,1.8h0.1c0.7-1.3,1.7-2,2.8-2c0.5,0,0.8,0.1,1.1,0.2l-0.4,1.8c-0.3-0.1-0.6-0.2-1-0.2
							c-0.8,0-1.8,0.6-2.4,2.1V21h-2.1V11.1z"/>
						<path d="M514.8,16.1c0-3.3,2.2-5.2,4.7-5.2c2.4,0,4.7,1.9,4.7,5.2c0,3.3-2.2,5.2-4.7,5.2C517,21.2,514.8,19.3,514.8,16.1z
							 M522,16.1c0-2.1-1-3.5-2.5-3.5c-1.5,0-2.5,1.4-2.5,3.5c0,2.1,1,3.5,2.5,3.5C521,19.5,522,18.2,522,16.1z"/>
						<path d="M526.5,11.1h1.7l0.2,1.4h0.1c0.8-0.9,1.8-1.6,3.1-1.6c1.5,0,2.3,0.7,2.7,1.8c1-1,2-1.8,3.2-1.8c2.1,0,3,1.4,3,3.9V21
							h-2.1v-6c0-1.7-0.5-2.4-1.7-2.4c-0.7,0-1.4,0.5-2.2,1.3v7h-2.1v-6c0-1.7-0.5-2.4-1.7-2.4c-0.7,0-1.4,0.5-2.2,1.3v7h-2.1V11.1z
							"/>
						<path d="M547.8,21.6c-0.8,2.1-1.8,3.5-3.9,3.5c-0.5,0-0.9-0.1-1.2-0.2l0.4-1.6c0.2,0.1,0.5,0.1,0.7,0.1c1.1,0,1.7-0.8,2.1-1.9
							l0.2-0.7l-3.9-9.8h2.1l1.8,5.1c0.3,0.9,0.6,1.9,0.9,2.8h0.1l0.8-2.8l1.6-5.1h2L547.8,21.6z"/>
						<path d="M552.3,18.4c0-2.1,1.8-3.2,5.9-3.7c0-1.2-0.4-2.2-1.9-2.2c-1,0-2,0.5-2.9,1l-0.8-1.4c1-0.6,2.4-1.3,4-1.3
							c2.5,0,3.6,1.6,3.6,4.2v6h-1.7l-0.2-1.1h-0.1c-0.9,0.8-2,1.4-3.2,1.4C553.5,21.2,552.3,20.1,552.3,18.4z M558.2,18.4V16
							c-2.9,0.4-3.9,1.1-3.9,2.2c0,1,0.7,1.4,1.5,1.4C556.7,19.6,557.4,19.2,558.2,18.4z"/>
						<path d="M563.2,18.7v-12h2.1v12.1c0,0.6,0.3,0.8,0.5,0.8c0.1,0,0.2,0,0.3,0l0.3,1.6c-0.3,0.1-0.6,0.2-1.1,0.2
							C563.8,21.2,563.2,20.3,563.2,18.7z"/>
						<path d="M567.9,22.8c0-0.8,0.5-1.6,1.4-2.2v-0.1c-0.5-0.3-0.9-0.8-0.9-1.6c0-0.8,0.6-1.4,1.1-1.8V17c-0.7-0.5-1.3-1.5-1.3-2.6
							c0-2.3,1.8-3.6,3.8-3.6c0.6,0,1.1,0.1,1.4,0.3h3.5v1.5h-1.9c0.4,0.4,0.6,1.1,0.6,1.8c0,2.2-1.6,3.4-3.7,3.4
							c-0.5,0-1-0.1-1.4-0.3c-0.3,0.3-0.5,0.6-0.5,1c0,0.6,0.4,1,1.7,1h1.8c2.3,0,3.6,0.7,3.6,2.4c0,1.9-2,3.5-5.2,3.5
							C569.6,25.4,567.9,24.6,567.9,22.8z M575.1,22.3c0-0.8-0.6-1.1-1.9-1.1h-1.5c-0.5,0-0.9-0.1-1.3-0.1c-0.6,0.4-0.8,0.9-0.8,1.4
							c0,1,1,1.5,2.6,1.5C574,24.1,575.1,23.2,575.1,22.3z M573.9,14.4c0-1.3-0.8-2.1-1.9-2.1c-1,0-1.9,0.8-1.9,2.1
							c0,1.3,0.8,2.1,1.9,2.1S573.9,15.7,573.9,14.4z"/>
						<path d="M578.7,8c0-0.7,0.6-1.2,1.3-1.2c0.8,0,1.3,0.5,1.3,1.2c0,0.7-0.6,1.2-1.3,1.2C579.2,9.2,578.7,8.7,578.7,8z M579,11.1
							h2.1V21H579V11.1z"/>
						<path d="M583.6,18.4c0-2.1,1.8-3.2,5.9-3.7c0-1.2-0.4-2.2-1.9-2.2c-1,0-2,0.5-2.9,1l-0.8-1.4c1-0.6,2.4-1.3,4-1.3
							c2.5,0,3.6,1.6,3.6,4.2v6h-1.7l-0.2-1.1h-0.1c-0.9,0.8-2,1.4-3.2,1.4C584.8,21.2,583.6,20.1,583.6,18.4z M589.5,18.4V16
							c-2.9,0.4-3.9,1.1-3.9,2.2c0,1,0.7,1.4,1.5,1.4C588,19.6,588.7,19.2,589.5,18.4z"/>
						<path d="M593.9,23.4c1.2-0.5,1.9-1.4,2-2.5c-0.1,0-0.1,0-0.2,0c-0.7,0-1.4-0.5-1.4-1.3c0-0.8,0.6-1.3,1.4-1.3
							c1,0,1.6,0.8,1.6,2.2c0,1.9-1.1,3.3-3,4.1L593.9,23.4z"/>
						<path d="M604.2,17.8v-5h-1.4v-1.5l1.5-0.1l0.2-2.7h1.7v2.7h2.6v1.7h-2.6v5c0,1.2,0.4,1.8,1.4,1.8c0.3,0,0.8-0.1,1.1-0.2
							l0.4,1.5c-0.6,0.2-1.2,0.4-1.9,0.4C605,21.2,604.2,19.8,604.2,17.8z"/>
						<path d="M611,11.1h1.7l0.2,1.8h0.1c0.7-1.3,1.7-2,2.8-2c0.5,0,0.8,0.1,1.1,0.2l-0.4,1.8c-0.3-0.1-0.6-0.2-1-0.2
							c-0.8,0-1.8,0.6-2.4,2.1V21H611V11.1z"/>
						<path d="M617.3,18.4c0-2.1,1.8-3.2,5.9-3.7c0-1.2-0.4-2.2-1.9-2.2c-1,0-2,0.5-2.9,1l-0.8-1.4c1-0.6,2.4-1.3,4-1.3
							c2.5,0,3.6,1.6,3.6,4.2v6h-1.7l-0.2-1.1h-0.1c-0.9,0.8-2,1.4-3.2,1.4C618.5,21.2,617.3,20.1,617.3,18.4z M623.2,18.4V16
							c-2.9,0.4-3.9,1.1-3.9,2.2c0,1,0.7,1.4,1.5,1.4C621.7,19.6,622.4,19.2,623.2,18.4z"/>
						<path d="M628.1,17.3v-6.2h2.1v6c0,1.7,0.5,2.4,1.7,2.4c0.9,0,1.5-0.4,2.4-1.5v-6.9h2.1V21h-1.7l-0.2-1.5h-0.1
							c-0.9,1-1.9,1.7-3.2,1.7C629,21.2,628.1,19.8,628.1,17.3z"/>
						<path d="M639.4,11.1h1.7l0.2,1.4h0.1c0.8-0.9,1.8-1.6,3.1-1.6c1.5,0,2.3,0.7,2.7,1.8c1-1,2-1.8,3.2-1.8c2.1,0,3,1.4,3,3.9V21
							h-2.1v-6c0-1.7-0.5-2.4-1.7-2.4c-0.7,0-1.4,0.5-2.2,1.3v7h-2.1v-6c0-1.7-0.5-2.4-1.7-2.4c-0.7,0-1.4,0.5-2.2,1.3v7h-2.1V11.1z
							"/>
						<path d="M655.8,18.4c0-2.1,1.8-3.2,5.9-3.7c0-1.2-0.4-2.2-1.9-2.2c-1,0-2,0.5-2.9,1l-0.8-1.4c1-0.6,2.4-1.3,4-1.3
							c2.5,0,3.6,1.6,3.6,4.2v6h-1.7l-0.2-1.1h-0.1c-0.9,0.8-2,1.4-3.2,1.4C657,21.2,655.8,20.1,655.8,18.4z M661.7,18.4V16
							c-2.9,0.4-3.9,1.1-3.9,2.2c0,1,0.7,1.4,1.5,1.4C660.2,19.6,660.9,19.2,661.7,18.4z"/>
						<path d="M666.7,17.8v-5h-1.4v-1.5l1.5-0.1l0.2-2.7h1.7v2.7h2.6v1.7h-2.6v5c0,1.2,0.4,1.8,1.4,1.8c0.3,0,0.8-0.1,1.1-0.2
							l0.4,1.5c-0.6,0.2-1.2,0.4-1.9,0.4C667.5,21.2,666.7,19.8,666.7,17.8z"/>
						<path d="M673.2,8c0-0.7,0.6-1.2,1.3-1.2c0.8,0,1.3,0.5,1.3,1.2c0,0.7-0.6,1.2-1.3,1.2C673.8,9.2,673.2,8.7,673.2,8z
							 M673.5,11.1h2.1V21h-2.1V11.1z"/>
						<path d="M678,16.1c0-3.3,2.3-5.2,4.9-5.2c1.3,0,2.2,0.5,2.9,1.1l-1,1.4c-0.5-0.5-1.1-0.8-1.8-0.8c-1.7,0-2.8,1.4-2.8,3.5
							c0,2.1,1.1,3.5,2.8,3.5c0.8,0,1.6-0.4,2.2-0.9l0.8,1.4c-0.9,0.8-2.1,1.2-3.2,1.2C680,21.2,678,19.3,678,16.1z"/>
						<path d="M692,11.1h1.7l0.2,1.4h0.1c0.8-0.9,1.8-1.6,3.1-1.6c1.5,0,2.3,0.7,2.7,1.8c1-1,2-1.8,3.2-1.8c2.1,0,3,1.4,3,3.9V21
							H704v-6c0-1.7-0.5-2.4-1.7-2.4c-0.7,0-1.4,0.5-2.2,1.3v7H698v-6c0-1.7-0.5-2.4-1.7-2.4c-0.7,0-1.4,0.5-2.2,1.3v7H692V11.1z"/>
						<path d="M708.9,17.3v-6.2h2.1v6c0,1.7,0.5,2.4,1.7,2.4c0.9,0,1.5-0.4,2.4-1.5v-6.9h2.1V21h-1.7l-0.2-1.5h-0.1
							c-0.9,1-1.9,1.7-3.2,1.7C709.8,21.2,708.9,19.8,708.9,17.3z"/>
						<path d="M719.1,19.9l1-1.3c0.9,0.7,1.7,1.1,2.8,1.1c1.2,0,1.7-0.6,1.7-1.3c0-0.9-1.1-1.3-2.2-1.7c-1.3-0.5-2.8-1.2-2.8-2.9
							c0-1.7,1.3-2.9,3.5-2.9c1.3,0,2.4,0.5,3.2,1.2l-1,1.3c-0.7-0.5-1.4-0.9-2.2-0.9c-1.1,0-1.6,0.5-1.6,1.2c0,0.8,1,1.2,2.1,1.6
							c1.4,0.5,2.9,1.1,2.9,3c0,1.7-1.3,3-3.8,3C721.5,21.2,720.1,20.7,719.1,19.9z"/>
						<path d="M728.1,16.1c0-3.3,2.3-5.2,4.9-5.2c1.3,0,2.2,0.5,2.9,1.1l-1,1.4c-0.5-0.5-1.1-0.8-1.8-0.8c-1.7,0-2.8,1.4-2.8,3.5
							c0,2.1,1.1,3.5,2.8,3.5c0.8,0,1.6-0.4,2.2-0.9L736,20c-0.9,0.8-2.1,1.2-3.2,1.2C730.2,21.2,728.1,19.3,728.1,16.1z"/>
						<path d="M738.1,18.7v-12h2.1v12.1c0,0.6,0.3,0.8,0.5,0.8c0.1,0,0.2,0,0.3,0l0.3,1.6c-0.3,0.1-0.6,0.2-1.1,0.2
							C738.7,21.2,738.1,20.3,738.1,18.7z"/>
						<path d="M742.8,16.1c0-3.2,2.2-5.2,4.5-5.2c2.6,0,4,1.9,4,4.7c0,0.4,0,0.8-0.1,1h-6.4c0.2,1.9,1.3,3,3.1,3
							c0.9,0,1.6-0.3,2.4-0.7l0.7,1.3c-0.9,0.6-2.1,1-3.3,1C744.9,21.2,742.8,19.3,742.8,16.1z M749.5,15.2c0-1.7-0.8-2.7-2.2-2.7
							c-1.2,0-2.3,1-2.5,2.7H749.5z"/>
						<path d="M757.4,8c0-0.7,0.6-1.2,1.3-1.2c0.8,0,1.3,0.5,1.3,1.2c0,0.7-0.6,1.2-1.3,1.2C758,9.2,757.4,8.7,757.4,8z M757.7,11.1
							h2.1V21h-2.1V11.1z"/>
						<path d="M762.9,11.1h1.7l0.2,1.4h0.1c0.9-0.9,1.9-1.6,3.3-1.6c2.1,0,3,1.4,3,3.9V21H769v-6c0-1.7-0.5-2.4-1.7-2.4
							c-0.9,0-1.5,0.5-2.4,1.3v7h-2.1V11.1z"/>
						<path d="M771.7,25l0.4-1.5c0.3,0.1,0.6,0.2,0.9,0.2c0.9,0,1.2-0.7,1.2-1.8V11.1h2.1v10.6c0,2.1-0.8,3.5-3,3.5
							C772.5,25.3,772,25.1,771.7,25z M773.8,8c0-0.7,0.6-1.2,1.3-1.2c0.8,0,1.3,0.5,1.3,1.2c0,0.7-0.6,1.2-1.3,1.2
							C774.4,9.2,773.8,8.7,773.8,8z"/>
						<path d="M779.1,17.3v-6.2h2.1v6c0,1.7,0.5,2.4,1.7,2.4c0.9,0,1.5-0.4,2.4-1.5v-6.9h2.1V21h-1.7l-0.2-1.5h-0.1
							c-0.9,1-1.9,1.7-3.2,1.7C780.1,21.2,779.1,19.8,779.1,17.3z"/>
						<path d="M790.4,11.1h1.7l0.2,1.8h0.1c0.7-1.3,1.7-2,2.8-2c0.5,0,0.8,0.1,1.1,0.2l-0.4,1.8c-0.3-0.1-0.6-0.2-1-0.2
							c-0.8,0-1.8,0.6-2.4,2.1V21h-2.1V11.1z"/>
						<path d="M802.5,21.6c-0.8,2.1-1.8,3.5-3.9,3.5c-0.5,0-0.9-0.1-1.2-0.2l0.4-1.6c0.2,0.1,0.5,0.1,0.7,0.1c1.1,0,1.7-0.8,2.1-1.9
							l0.2-0.7l-3.9-9.8h2.1l1.8,5.1c0.3,0.9,0.6,1.9,0.9,2.8h0.1l0.8-2.8l1.6-5.1h2L802.5,21.6z"/>
						<path d="M806.5,23.4c1.2-0.5,1.9-1.4,2-2.5c-0.1,0-0.1,0-0.2,0c-0.7,0-1.4-0.5-1.4-1.3c0-0.8,0.6-1.3,1.4-1.3
							c1,0,1.6,0.8,1.6,2.2c0,1.9-1.1,3.3-3,4.1L806.5,23.4z"/>
						<path d="M816.5,11.1h1.7l0.2,1.8h0.1c0.7-1.3,1.7-2,2.8-2c0.5,0,0.8,0.1,1.1,0.2l-0.4,1.8c-0.3-0.1-0.6-0.2-1-0.2
							c-0.8,0-1.8,0.6-2.4,2.1V21h-2.1V11.1z"/>
						<path d="M823.9,6.6h2.1v3.8l-0.1,2c0.9-0.8,1.9-1.6,3.2-1.6c2.1,0,3,1.4,3,3.9V21h-2.1v-6c0-1.7-0.5-2.4-1.7-2.4
							c-0.9,0-1.5,0.5-2.4,1.3v7h-2.1V6.6z"/>
						<path d="M834.5,18.4c0-2.1,1.8-3.2,5.9-3.7c0-1.2-0.4-2.2-1.9-2.2c-1,0-2,0.5-2.9,1l-0.8-1.4c1-0.6,2.4-1.3,4-1.3
							c2.5,0,3.6,1.6,3.6,4.2v6h-1.7l-0.2-1.1h-0.1c-0.9,0.8-2,1.4-3.2,1.4C835.7,21.2,834.5,20.1,834.5,18.4z M840.4,18.4V16
							c-2.9,0.4-3.9,1.1-3.9,2.2c0,1,0.7,1.4,1.5,1.4C838.9,19.6,839.6,19.2,840.4,18.4z"/>
						<path d="M847.3,20L847.3,20l-0.3,1h-1.6V6.6h2.1v3.8l-0.1,1.7c0.8-0.7,1.9-1.3,3-1.3c2.5,0,3.9,2,3.9,5c0,3.4-2,5.3-4.3,5.3
							C849.1,21.2,848.1,20.8,847.3,20z M852.2,15.9c0-2.1-0.7-3.3-2.3-3.3c-0.8,0-1.5,0.4-2.4,1.2v4.8c0.8,0.7,1.5,0.9,2.2,0.9
							C851.1,19.5,852.2,18.2,852.2,15.9z"/>
						<path d="M856.1,16.1c0-3.2,2-5.2,4.2-5.2c1.1,0,1.9,0.4,2.7,1.1l-0.1-1.6V6.6h2.1V21h-1.7l-0.2-1.1H863
							c-0.7,0.8-1.8,1.4-2.9,1.4C857.7,21.2,856.1,19.3,856.1,16.1z M862.9,18.3v-4.8c-0.7-0.7-1.4-0.9-2.2-0.9
							c-1.4,0-2.5,1.3-2.5,3.5c0,2.3,0.9,3.5,2.4,3.5C861.5,19.5,862.2,19.1,862.9,18.3z"/>
						<path d="M867.4,16.1c0-3.3,2.2-5.2,4.7-5.2c2.4,0,4.7,1.9,4.7,5.2c0,3.3-2.2,5.2-4.7,5.2C869.6,21.2,867.4,19.3,867.4,16.1z
							 M874.6,16.1c0-2.1-1-3.5-2.5-3.5c-1.5,0-2.5,1.4-2.5,3.5c0,2.1,1,3.5,2.5,3.5C873.6,19.5,874.6,18.2,874.6,16.1z"/>
						<path d="M879.1,11.1h1.7l0.2,1.4h0.1c0.8-0.9,1.8-1.6,3.1-1.6c1.5,0,2.3,0.7,2.7,1.8c1-1,2-1.8,3.2-1.8c2.1,0,3,1.4,3,3.9V21
							H891v-6c0-1.7-0.5-2.4-1.7-2.4c-0.7,0-1.4,0.5-2.2,1.3v7h-2.1v-6c0-1.7-0.5-2.4-1.7-2.4c-0.7,0-1.4,0.5-2.2,1.3v7h-2.1V11.1z"
							/>
						<path d="M900.5,21.6c-0.8,2.1-1.8,3.5-3.9,3.5c-0.5,0-0.9-0.1-1.2-0.2l0.4-1.6c0.2,0.1,0.5,0.1,0.7,0.1c1.1,0,1.7-0.8,2.1-1.9
							l0.2-0.7l-3.9-9.8h2.1l1.8,5.1c0.3,0.9,0.6,1.9,0.9,2.8h0.1l0.8-2.8l1.6-5.1h2L900.5,21.6z"/>
						<path d="M905.1,16.1c0-3.3,2.2-5.2,4.7-5.2c2.4,0,4.7,1.9,4.7,5.2c0,3.3-2.2,5.2-4.7,5.2C907.3,21.2,905.1,19.3,905.1,16.1z
							 M912.3,16.1c0-2.1-1-3.5-2.5-3.5c-1.5,0-2.5,1.4-2.5,3.5c0,2.1,1,3.5,2.5,3.5C911.3,19.5,912.3,18.2,912.3,16.1z"/>
						<path d="M916.8,18.7v-12h2.1v12.1c0,0.6,0.3,0.8,0.5,0.8c0.1,0,0.2,0,0.3,0l0.3,1.6c-0.3,0.1-0.6,0.2-1.1,0.2
							C917.4,21.2,916.8,20.3,916.8,18.7z"/>
						<path d="M926.5,21.6c-0.8,2.1-1.8,3.5-3.9,3.5c-0.5,0-0.9-0.1-1.2-0.2l0.4-1.6c0.2,0.1,0.5,0.1,0.7,0.1c1.1,0,1.7-0.8,2.1-1.9
							l0.2-0.7l-3.9-9.8h2.1l1.8,5.1c0.3,0.9,0.6,1.9,0.9,2.8h0.1l0.8-2.8l1.6-5.1h2L926.5,21.6z"/>
						<path d="M930.9,19.9l1-1.3c0.9,0.7,1.7,1.1,2.8,1.1c1.2,0,1.7-0.6,1.7-1.3c0-0.9-1.1-1.3-2.2-1.7c-1.3-0.5-2.8-1.2-2.8-2.9
							c0-1.7,1.3-2.9,3.5-2.9c1.3,0,2.4,0.5,3.2,1.2l-1,1.3c-0.7-0.5-1.4-0.9-2.2-0.9c-1.1,0-1.6,0.5-1.6,1.2c0,0.8,1,1.2,2.1,1.6
							c1.4,0.5,2.9,1.1,2.9,3c0,1.7-1.3,3-3.8,3C933.3,21.2,931.9,20.7,930.9,19.9z"/>
						<path d="M940.3,8c0-0.7,0.6-1.2,1.3-1.2S943,7.3,943,8c0,0.7-0.6,1.2-1.3,1.2S940.3,8.7,940.3,8z M940.6,11.1h2.1V21h-2.1
							V11.1z"/>
						<path d="M944.7,19.9l1-1.3c0.9,0.7,1.7,1.1,2.8,1.1c1.2,0,1.7-0.6,1.7-1.3c0-0.9-1.1-1.3-2.2-1.7c-1.3-0.5-2.8-1.2-2.8-2.9
							c0-1.7,1.3-2.9,3.5-2.9c1.3,0,2.4,0.5,3.2,1.2l-1,1.3c-0.7-0.5-1.4-0.9-2.2-0.9c-1.1,0-1.6,0.5-1.6,1.2c0,0.8,1,1.2,2.1,1.6
							c1.4,0.5,2.9,1.1,2.9,3c0,1.7-1.3,3-3.8,3C947.1,21.2,945.7,20.7,944.7,19.9z"/>
					</g>
					<path class="st3" d="M0,42.5h1000"/>
				</g>
			</g>
		</g>
	</g>
</g>
</svg>
