<?xml version="1.0" encoding="utf-8"?>
<!-- Generator: Adobe Illustrator 23.1.1, SVG Export Plug-In . SVG Version: 6.00 Build 0)  -->
<svg version="1.1" id="Layer_1" xmlns="http://www.w3.org/2000/svg" xmlns:xlink="http://www.w3.org/1999/xlink" x="0px" y="0px"
	 viewBox="0 0 1002 224" style="enable-background:new 0 0 1002 224;" xml:space="preserve">
<style type="text/css">
	.st0{fill-rule:evenodd;clip-rule:evenodd;}
	.st1{enable-background:new    ;}
	.st2{fill:#FFFFFF;}
	.st3{font-family:'NotoSansKR-Bold-KSCpc-EUC-H';}
	.st4{font-size:18px;}
	.st5{fill:none;stroke:#979797;stroke-linecap:square;}
</style>
<title>표</title>
<desc>Created with Sketch.</desc>
<g id="Page-1">
	<g transform="translate(-189.000000, -930.000000)">
		<g id="first" transform="translate(190.000000, 420.000000)">
			<g id="표" transform="translate(0.000000, 510.000000)">
				<g id="head">
					<g>
						<path id="bg" class="st0" d="M8,0h234c4.4,0,8,3.6,8,8v34c0,4.4-3.6,8-8,8H8c-4.4,0-8-3.6-8-8V8C0,3.6,3.6,0,8,0z"/>
						<g class="st1">
							<path class="st2" d="M111.1,29.1v1.6H98.5v-1.6H111.1z M101.4,21.2h-1.9v-1.6H110v1.6h-1.9v4.1h1.8V27H99.6v-1.6h1.8V21.2z
								 M106.2,21.2h-2.8v4.1h2.8V21.2z"/>
							<path class="st2" d="M124.9,29.2v1.6h-12.5v-1.6h5.2v-2.1h-3.8v-4.7h7.7v-1.5h-7.7v-1.6h9.7V24h-7.7v1.5h8v1.6h-4.2v2.1
								H124.9z"/>
							<path class="st2" d="M138.6,28.9v1.6h-12.5v-1.6H138.6z M135.1,21.3h-7.7v-1.6h9.7v1.6c0,1.9,0,3.8-0.5,6.7l-2-0.2
								C135.1,25.2,135.1,23.3,135.1,21.3L135.1,21.3z"/>
							<path class="st2" d="M146.4,25.9c-1.6,0.3-2.9,0.3-5,0.3h-1V22h3.3v-1.1h-3.3v-1.5h5.2v4.1h-3.3v1.2c1.5,0,2.6-0.1,3.8-0.3
								L146.4,25.9z M142.4,27.2h9.4v4.9h-9.4V27.2z M144.3,30.6h5.5v-1.8h-5.5V30.6z M151.7,18.5v8.1h-1.9v-3.3h-1.1v3.2h-1.8v-7.8
								h1.8v3h1.1v-3.2H151.7z"/>
						</g>
					</g>
					<g transform="translate(260.000000, 0.000000)">
						<path class="st0" d="M8,0h724c4.4,0,8,3.6,8,8v34c0,4.4-3.6,8-8,8H8c-4.4,0-8-3.6-8-8V8C0,3.6,3.6,0,8,0z"/>
						<g class="st1">
							<path class="st2" d="M330.4,27.5c1.3,0,2.5-0.1,3.8-0.3l0.2,1.6c-1.7,0.3-3.2,0.4-4.9,0.4h-1v-9.1h5.1v1.6h-3.2V27.5z
								 M339.9,18.5v13.8H338v-6.9h-1.2v6.3h-1.8V18.7h1.8v5.1h1.2v-5.3H339.9z"/>
							<path class="st2" d="M349,26.1c-1.5-0.5-2.5-1.4-3-2.6c-0.6,1.4-1.7,2.4-3.2,3l-1-1.6c2.3-0.8,3.2-2.6,3.2-4.5v-1.2h2v1.4
								c0,1.7,0.9,3.3,3.1,4L349,26.1z M352.9,29.6c0,1.7-1.8,2.7-4.7,2.7c-2.9,0-4.7-1-4.7-2.7c0-1.7,1.8-2.7,4.7-2.7
								C351.1,27,352.9,28,352.9,29.6z M350.9,29.6c0-0.8-0.9-1.1-2.7-1.1c-1.8,0-2.7,0.4-2.7,1.1c0,0.8,0.9,1.1,2.7,1.1
								C350,30.8,350.9,30.4,350.9,29.6z M354.5,21.7v1.6h-1.8v3.3h-2v-8.2h2v3.2H354.5z"/>
							<path class="st2" d="M366.8,25.4c-1.6-0.4-2.7-1.3-3.3-2.5c-0.6,1.3-1.8,2.3-3.4,2.8l-0.9-1.5c2.1-0.6,3.2-2,3.3-3.5h-2.8
								v-1.6h7.5v1.6h-2.7c0.2,1.3,1.2,2.7,3.2,3.2L366.8,25.4z M370.9,30.7v1.5h-9.5v-3.8h7.2v-0.8h-7.2v-1.5h9.2v3.7h-7.2v0.9
								H370.9z M370.5,25.6h-2v-7.1h2V25.6z"/>
							<path class="st2" d="M381.4,27.3c-2.9,0.5-6.1,0.6-8.5,0.6l-0.2-1.5c1,0,2.1,0,3.3,0v-0.8c-1.5-0.2-2.4-1-2.4-2.1
								c0-1.3,1.3-2.1,3.4-2.1c2,0,3.4,0.8,3.4,2.1c0,1.1-0.9,1.8-2.4,2.1v0.7c1.1-0.1,2.2-0.2,3.3-0.3L381.4,27.3z M380.9,21H373
								v-1.4h2.9v-1.2h2v1.2h2.9V21z M376.6,30.5h7.7V32h-9.7v-3.5h2V30.5z M377,24.3c0.9,0,1.5-0.3,1.5-0.8c0-0.5-0.6-0.8-1.5-0.8
								s-1.5,0.3-1.5,0.8C375.5,24,376,24.3,377,24.3z M385.5,23v1.6h-1.7v4.6h-2V18.5h2V23H385.5z"/>
							<path class="st2" d="M399.2,25.6v1.6h-5.1v2.2h-2v-2.2h-5.4v-1.6H399.2z M390.1,30.5h7.7V32h-9.7v-3.8h2V30.5z M397.6,24.6
								h-9.3v-5.7h2v1.4h5.4v-1.4h2V24.6z M395.6,21.8h-5.4v1.2h5.4V21.8z"/>
							<path class="st2" d="M407.8,24.4c0,3-1.5,4.9-3.6,4.9c-2.1,0-3.6-1.9-3.6-4.9c0-3,1.5-4.9,3.6-4.9
								C406.2,19.4,407.8,21.3,407.8,24.4z M405.9,24.4c0-2-0.7-3.1-1.7-3.1c-1,0-1.7,1.1-1.7,3.1c0,2.1,0.7,3.1,1.7,3.1
								C405.2,27.5,405.9,26.4,405.9,24.4z M411.3,23.3v2.4h1.9v1.6h-1.9v4.9h-2V18.5h2v3.2h1.9v1.6H411.3z"/>
						</g>
					</g>
				</g>
				<g id="cell1" transform="translate(0.000000, 65.000000)">
					<text transform="matrix(1 0 0 1 103 21)" class="st3 st4">pIKO</text>
					<g class="st1">
						<path d="M294.1,15.2h-7.6V7.5h7.6V15.2z M292.3,9h-4v4.7h4V9z M290.2,20.6h9.1v1.5h-10.9v-5.2h1.9V20.6z M300.9,11v1.5h-2.3
							V18h-1.9V6.1h1.9V11H300.9z"/>
						<path d="M311.1,15.1c-1.7-0.6-3-1.9-3.7-3.4c-0.7,1.8-2.1,3.2-4.1,3.9l-1-1.5c2.6-0.9,4-3.1,4-5.5V7h1.9v1.5
							c0,2.3,1.4,4.3,3.8,5.1L311.1,15.1z M316,19.3c0,2-2.1,3.1-5.5,3.1c-3.4,0-5.5-1.2-5.5-3.1s2.1-3.1,5.5-3.1
							C313.9,16.2,316,17.3,316,19.3z M314.2,19.3c0-1.1-1.3-1.7-3.6-1.7s-3.6,0.6-3.6,1.7s1.3,1.7,3.6,1.7S314.2,20.3,314.2,19.3z
							 M314.1,10.9h-3.3V9.4h3.3V6.1h1.9v9.6h-1.9V10.9z"/>
						<path d="M331.6,15c-1.7-0.6-3-1.9-3.7-3.4c-0.7,1.8-2.1,3.2-3.9,3.9l-1-1.5c2.6-0.9,3.9-3.1,3.9-5.4V7h1.9v1.7
							c0,2.1,1.4,4.1,3.8,4.9L331.6,15z M336,19.3c0,1.9-2.1,3.1-5.4,3.1c-3.3,0-5.4-1.1-5.4-3.1c0-1.9,2.1-3,5.4-3
							C333.9,16.3,336,17.4,336,19.3z M334.1,19.3c0-1-1.3-1.6-3.6-1.6s-3.6,0.6-3.6,1.6c0,1,1.3,1.6,3.6,1.6S334.1,20.4,334.1,19.3
							z M338.1,10.1v1.5h-2.3v4.2h-1.9V6.1h1.9v4H338.1z"/>
						<path d="M345.5,11.3c0,2.5,1.5,5.2,4,6.3l-1,1.4c-1.8-0.8-3.2-2.5-3.9-4.5c-0.7,2.1-2.1,3.9-3.9,4.8l-1-1.4
							c2.5-1.2,4-3.9,4-6.6v-0.9h-3.5V8.9h3.5V6.5h1.9v2.4h3.4v1.5h-3.4V11.3z M353.1,6.1v16.3h-1.9V14h-3.2v-1.5h3.2V6.1H353.1z"/>
						<path d="M356.2,23.4c1.2-0.5,1.9-1.4,2-2.5c-0.1,0-0.1,0-0.2,0c-0.7,0-1.4-0.5-1.4-1.3c0-0.8,0.6-1.3,1.4-1.3
							c1,0,1.6,0.8,1.6,2.2c0,1.9-1.1,3.3-3,4.1L356.2,23.4z"/>
						<path d="M373.8,13.6h-7.6V7h7.6V13.6z M369.7,20.7h9.2v1.5h-11v-4.3h8.6v-1.4h-8.7V15h10.5v4.2h-8.6V20.7z M372,8.5h-4v3.7h4
							V8.5z M380.6,9.5V11h-2.3v3.3h-1.9V6.1h1.9v3.3H380.6z"/>
						<path d="M396.9,18.9v1.5h-14.7v-1.5h6.4v-3.5h1.9v3.5H396.9z M382.8,14.5c3.4-0.5,5.7-2.3,5.8-4.5h-5.1V8.5h5.1V6.4h1.9v2.1
							h5.1V10h-5.1c0.1,2.2,2.3,4,5.8,4.5l-0.7,1.5c-2.7-0.4-4.9-1.7-6-3.5c-1.1,1.8-3.3,3.1-6,3.5L382.8,14.5z"/>
						<path d="M413.5,14v1.5h-14.7V14h6.4v-1.6h-4.6V6.8h11.1v1.5h-9.2v2.5h9.3v1.5H407V14H413.5z M411.7,19.4c0,1.9-2.1,3-5.6,3
							c-3.5,0-5.6-1.1-5.6-3c0-1.9,2.1-3,5.6-3C409.5,16.5,411.7,17.6,411.7,19.4z M409.8,19.4c0-1-1.4-1.5-3.7-1.5
							c-2.4,0-3.7,0.5-3.7,1.5c0,1,1.3,1.5,3.7,1.5C408.4,21,409.8,20.4,409.8,19.4z"/>
						<path d="M422.3,14.7h-6.4V7.5h6.4V14.7z M420.6,9h-2.9v4.3h2.9V9z M418,16.6h11v5.7h-1.9v-4.2H418V16.6z M429.1,6.1v9.7h-1.8
							v-4.1h-1.7v4h-1.7V6.4h1.7v3.8h1.7V6.1H429.1z"/>
						<path d="M441,14.3c-1.9-0.5-3.3-1.7-4.1-3.2c-0.7,1.7-2.1,3-4.1,3.6l-0.9-1.5c2.5-0.8,4-2.7,4-4.7h-3.5V7h8.9v1.5h-3.5
							c0.1,1.9,1.5,3.7,4,4.4L441,14.3z M445.7,20.8v1.4h-11.1V18h8.8v-1.4h-8.8v-1.4h10.7v4.1h-8.8v1.4H445.7z M445.3,14.5h-1.9
							V6.1h1.9V14.5z"/>
						<path d="M458.6,16.4c-3.4,0.6-7.3,0.7-10.1,0.7l-0.2-1.5c1.2,0,2.6,0,4.1-0.1v-1.1c-1.8-0.2-3-1.1-3-2.4
							c0-1.5,1.5-2.5,3.9-2.5c2.3,0,3.9,1,3.9,2.5c0,1.3-1.1,2.2-2.9,2.4v1c1.4-0.1,2.8-0.2,4.1-0.4L458.6,16.4z M458,9h-9.3V7.6
							h3.7V6.1h1.9v1.5h3.7V9z M452.5,20.6h9.2v1.5h-11.1V18h1.9V20.6z M453.3,13.2c1.3,0,2.1-0.5,2.1-1.2c0-0.8-0.8-1.2-2.1-1.2
							c-1.3,0-2.1,0.5-2.1,1.2C451.2,12.8,452,13.2,453.3,13.2z M463.4,11.6v1.5h-2.2v5.7h-1.9V6.1h1.9v5.5H463.4z"/>
						<path d="M465,23.4c1.2-0.5,1.9-1.4,2-2.5c-0.1,0-0.1,0-0.2,0c-0.7,0-1.4-0.5-1.4-1.3c0-0.8,0.6-1.3,1.4-1.3
							c1,0,1.6,0.8,1.6,2.2c0,1.9-1.1,3.3-3,4.1L465,23.4z"/>
						<path d="M482,16.8c0.8-0.1,1.5-0.1,2.2-0.2l0.1,1.4c-3.4,0.6-7.1,0.6-10,0.6l-0.2-1.5c0.6,0,1.3,0,2,0V9.3h-1.6V7.8h9v1.5H482
							V16.8z M478,16.9c0.7,0,1.5-0.1,2.2-0.1V9.3H478V16.9z M489.5,14H487v8.4h-1.9V6.1h1.9v6.4h2.5V14z"/>
						<path d="M499,9.4h-8.1V7.9h3.2V6.3h1.8v1.7h3.1V9.4z M494.9,15.7c-2,0-3.5-1.1-3.5-2.8c0-1.7,1.4-2.8,3.5-2.8
							c2.1,0,3.5,1.1,3.5,2.8C498.4,14.6,497,15.7,494.9,15.7z M494.9,14.4c1.1,0,1.8-0.6,1.8-1.5c0-0.9-0.8-1.5-1.8-1.5
							c-1.1,0-1.8,0.6-1.8,1.5C493.1,13.8,493.8,14.4,494.9,14.4z M504.8,19.5c0,1.8-2.1,2.9-5.5,2.9c-3.4,0-5.5-1.1-5.5-2.9
							c0-1.8,2.1-2.9,5.5-2.9C502.7,16.6,504.8,17.7,504.8,19.5z M502.9,19.5c0-1-1.3-1.5-3.6-1.5c-2.3,0-3.7,0.5-3.7,1.5
							c0,1,1.3,1.5,3.7,1.5C501.7,21,502.9,20.5,502.9,19.5z M501.3,15.8h-1.7V6.4h1.7v3.9h1.7V6.1h1.8v10.3h-1.8v-4.5h-1.7V15.8z"
							/>
						<path d="M507.6,23.4c1.2-0.5,1.9-1.4,2-2.5c-0.1,0-0.1,0-0.2,0c-0.7,0-1.4-0.5-1.4-1.3c0-0.8,0.6-1.3,1.4-1.3
							c1,0,1.6,0.8,1.6,2.2c0,1.9-1.1,3.3-3,4.1L507.6,23.4z"/>
						<path d="M527,15.3c-3.4,0.6-7.2,0.7-10,0.7l-0.2-1.5c1,0,2.1,0,3.2,0v-3.3h1.8v3.3c1.7-0.1,3.4-0.2,5-0.4L527,15.3z
							 M523.7,12.9c0.3-1.7,0.4-3,0.4-4h-6.4V7.4h8.2v0.9c0,1.1,0,2.7-0.4,4.8L523.7,12.9z M521.1,20.6h9.2v1.5h-11.1v-4.8h1.9V20.6
							z M531.9,11.3v1.5h-2.2v5.5h-1.9V6.1h1.9v5.1H531.9z"/>
						<path d="M542,15c-1.7-0.6-3-1.9-3.7-3.4c-0.7,1.8-2.1,3.2-3.9,3.9l-1-1.5c2.6-0.9,3.9-3.1,3.9-5.4V7h1.9v1.7
							c0,2.1,1.4,4.1,3.8,4.9L542,15z M546.4,19.3c0,1.9-2.1,3.1-5.4,3.1c-3.3,0-5.4-1.1-5.4-3.1c0-1.9,2.1-3,5.4-3
							C544.3,16.3,546.4,17.4,546.4,19.3z M544.5,19.3c0-1-1.3-1.6-3.6-1.6c-2.3,0-3.6,0.6-3.6,1.6c0,1,1.3,1.6,3.6,1.6
							C543.2,20.9,544.5,20.4,544.5,19.3z M548.5,10.1v1.5h-2.3v4.2h-1.9V6.1h1.9v4H548.5z"/>
						<path d="M564.8,14v1.5h-14.7V14h6.4v-1.6h-4.6V6.8H563v1.5h-9.2v2.5h9.3v1.5h-4.7V14H564.8z M563,19.4c0,1.9-2.1,3-5.6,3
							c-3.5,0-5.6-1.1-5.6-3c0-1.9,2.1-3,5.6-3C560.9,16.5,563,17.6,563,19.4z M561.1,19.4c0-1-1.4-1.5-3.7-1.5s-3.7,0.5-3.7,1.5
							c0,1,1.3,1.5,3.7,1.5S561.1,20.4,561.1,19.4z"/>
						<path d="M573.6,14.7h-6.4V7.5h6.4V14.7z M571.9,9H569v4.3h2.9V9z M569.3,16.6h11v5.7h-1.9v-4.2h-9.2V16.6z M580.4,6.1v9.7
							h-1.8v-4.1h-1.7v4h-1.7V6.4h1.7v3.8h1.7V6.1H580.4z"/>
						<path d="M592.4,14.3c-1.9-0.5-3.3-1.7-4.1-3.2c-0.7,1.7-2.1,3-4.1,3.6l-0.9-1.5c2.5-0.8,4-2.7,4-4.7h-3.5V7h8.9v1.5h-3.5
							c0.1,1.9,1.5,3.7,4,4.4L592.4,14.3z M597.1,20.8v1.4h-11.1V18h8.8v-1.4h-8.8v-1.4h10.7v4.1h-8.8v1.4H597.1z M596.6,14.5h-1.9
							V6.1h1.9V14.5z"/>
						<path d="M609.9,16.4c-3.4,0.6-7.3,0.7-10.1,0.7l-0.2-1.5c1.2,0,2.6,0,4.1-0.1v-1.1c-1.8-0.2-3-1.1-3-2.4
							c0-1.5,1.5-2.5,3.9-2.5s3.9,1,3.9,2.5c0,1.3-1.1,2.2-2.9,2.4v1c1.4-0.1,2.8-0.2,4.1-0.4L609.9,16.4z M609.3,9H600V7.6h3.7V6.1
							h1.9v1.5h3.7V9z M603.8,20.6h9.2v1.5h-11.1V18h1.9V20.6z M604.6,13.2c1.3,0,2.1-0.5,2.1-1.2c0-0.8-0.8-1.2-2.1-1.2
							c-1.3,0-2.1,0.5-2.1,1.2C602.5,12.8,603.3,13.2,604.6,13.2z M614.7,11.6v1.5h-2.2v5.7h-1.9V6.1h1.9v5.5H614.7z"/>
					</g>
					<line id="divider" class="st5" x1="0" y1="42.5" x2="1000" y2="42.5"/>
				</g>
				<g id="cell2" transform="translate(0.000000, 123.000000)">
					<g class="st1">
						<path d="M99.5,10.9h2.2l0.2,1h0.1c0.8-0.7,1.9-1.3,3-1.3c2.5,0,4,2,4,5.1c0,3.5-2.1,5.5-4.3,5.5c-0.9,0-1.7-0.4-2.5-1.1
							l0.1,1.7v3.1h-2.6V10.9z M106.1,15.8c0-1.9-0.6-3-2-3c-0.7,0-1.3,0.3-2,1v4.4c0.6,0.6,1.3,0.8,1.8,0.8
							C105.2,19.1,106.1,18,106.1,15.8z"/>
						<path d="M111.3,7.7h3l2.3,6.2c0.3,0.8,0.5,1.7,0.8,2.6h0.1c0.3-0.9,0.5-1.7,0.8-2.6l2.2-6.2h3V21h-2.4v-5.6
							c0-1.3,0.2-3.1,0.3-4.4h-0.1l-1.1,3.1l-2.1,5.6h-1.5l-2.1-5.6l-1.1-3.1h-0.1c0.1,1.3,0.3,3.1,0.3,4.4V21h-2.4V7.7z"/>
						<path d="M126.6,15V7.7h2.7v7.6c0,2.8,1,3.7,2.5,3.7c1.6,0,2.6-0.9,2.6-3.7V7.7h2.6V15c0,4.4-1.9,6.2-5.1,6.2
							C128.5,21.3,126.6,19.4,126.6,15z"/>
						<path d="M140.1,7.7h2.7l3.9,7.1l1.3,2.9h0.1c-0.1-1.4-0.3-3.2-0.3-4.7V7.7h2.5V21h-2.7l-3.9-7.1l-1.4-2.9h-0.1
							c0.1,1.4,0.3,3.1,0.3,4.6V21h-2.5V7.7z"/>
					</g>
					<g class="st1">
						<path d="M300.6,13.5V15h-14.7v-1.5h10.7c0.4-2,0.4-3.6,0.4-4.9h-9.2V7h11.1v1.3c0,1.4,0,3-0.4,5.1H300.6z M289.6,20.6h9.7v1.5
							h-11.5v-5.5h1.8V20.6z"/>
						<path d="M313.1,15.6c-1.4,0.3-2.9,0.5-4.4,0.6v5.7h-1.9v-5.6c-1.5,0.1-3,0.1-4.2,0.1l-0.2-1.5c2.9,0,7-0.1,10.5-0.6
							L313.1,15.6z M303.6,10.2c0-2,1.8-3.4,4.2-3.4s4.2,1.4,4.2,3.4c0,2-1.8,3.4-4.2,3.4S303.6,12.2,303.6,10.2z M305.4,10.2
							c0,1.2,1,1.9,2.4,1.9c1.4,0,2.4-0.7,2.4-1.9c0-1.1-1-1.9-2.4-1.9C306.4,8.4,305.4,9.1,305.4,10.2z M315.9,6.1v16.3h-1.9V6.1
							H315.9z"/>
						<path d="M327.3,15.7v1.6h4.6v5h-1.9v-3.5h-9.4v-1.5h4.8v-1.6H319v-1.5h14.7v1.5H327.3z M319.8,12.1c3.3-0.3,5.3-1.5,5.5-2.9
							h-4.8V7.7h5V6.1h1.9v1.6h5v1.5h-4.8c0.2,1.5,2.2,2.7,5.5,2.9l-0.6,1.4c-2.8-0.2-5-1.2-6-2.6c-1,1.5-3.2,2.4-6,2.6L319.8,12.1z
							"/>
						<path d="M335.6,23.4c1.2-0.5,1.9-1.4,2-2.5c-0.1,0-0.1,0-0.2,0c-0.7,0-1.4-0.5-1.4-1.3c0-0.8,0.6-1.3,1.4-1.3
							c1,0,1.6,0.8,1.6,2.2c0,1.9-1.1,3.3-3,4.1L335.6,23.4z"/>
						<path d="M359.7,13.5V15H345v-1.5h10.7c0.4-2,0.4-3.6,0.4-4.9h-9.2V7h11.1v1.3c0,1.4,0,3-0.4,5.1H359.7z M348.7,20.6h9.7v1.5
							h-11.5v-5.5h1.8V20.6z"/>
						<path d="M372.6,15.3v1.8h1.9v5.3h-1.9v-3.8h-9.4v-1.5h2.1v-1.8h-3.7v-1.5h14.7v1.5H372.6z M363.1,9.6c0-2,2.3-3.2,5.8-3.2
							c3.5,0,5.8,1.2,5.8,3.2s-2.3,3.2-5.8,3.2C365.4,12.8,363.1,11.6,363.1,9.6z M365,9.6c0,1.1,1.5,1.7,3.9,1.7
							c2.4,0,3.9-0.6,3.9-1.7c0-1.1-1.5-1.7-3.9-1.7C366.5,7.9,365,8.5,365,9.6z M370.7,15.3h-3.6v1.8h3.6V15.3z"/>
						<path d="M386.4,7.1c0,4.2-2.8,7.2-7.6,8.4l-0.7-1.5c3.8-1,6-3,6.3-5.5h-5.6V7.1H386.4z M380.4,16h10.4v6.2h-10.4V16z
							 M382.3,20.7h6.7v-3.2h-6.7V20.7z M393.1,11.4h-2.3v3.9H389V6.1h1.9v3.8h2.3V11.4z"/>
						<path d="M409.4,18.8v1.5h-14.7v-1.5h6.4V15h1.9v3.8H409.4z M408,15.4c-2.7-0.5-5-2.1-6-4.3c-1.1,2.2-3.4,3.8-6,4.3l-0.8-1.5
							c3.2-0.5,5.8-3,5.8-5.5V7.1h2v1.2c0,2.5,2.6,4.9,5.8,5.5L408,15.4z"/>
						<path d="M425.9,13.8v1.5h-14.7v-1.5H425.9z M412,11.5c3-0.3,5.1-1.6,5.4-3.1h-4.7V6.9h12v1.5h-4.8c0.2,1.5,2.3,2.8,5.4,3.1
							l-0.6,1.4c-2.9-0.3-5.1-1.5-6-3.2c-0.9,1.7-3.1,2.8-6,3.2L412,11.5z M424.2,19.4c0,1.9-2.1,3-5.6,3c-3.5,0-5.6-1.1-5.6-3
							c0-1.9,2.1-3,5.6-3C422.1,16.4,424.2,17.5,424.2,19.4z M422.3,19.4c0-1-1.4-1.5-3.7-1.5c-2.4,0-3.7,0.5-3.7,1.5
							c0,1,1.3,1.5,3.7,1.5C420.9,20.9,422.3,20.4,422.3,19.4z"/>
						<path d="M427.8,23.4c1.2-0.5,1.9-1.4,2-2.5c-0.1,0-0.1,0-0.2,0c-0.7,0-1.4-0.5-1.4-1.3c0-0.8,0.6-1.3,1.4-1.3
							c1,0,1.6,0.8,1.6,2.2c0,1.9-1.1,3.3-3,4.1L427.8,23.4z"/>
						<path d="M443.4,17.3c1.5-0.1,3-0.2,4.4-0.4l0.1,1.4c-3.6,0.7-7.5,0.7-10.4,0.7l-0.2-1.5c1.2,0,2.7,0,4.2-0.1v-2.5
							c-2.1-0.3-3.5-1.8-3.5-3.8c0-2.3,1.9-3.9,4.4-3.9c2.5,0,4.4,1.6,4.4,3.9c0,2-1.4,3.5-3.5,3.8V17.3z M442.5,13.3
							c1.5,0,2.6-0.9,2.6-2.3c0-1.4-1.1-2.3-2.6-2.3c-1.5,0-2.6,0.9-2.6,2.3C439.9,12.4,441,13.3,442.5,13.3z M450.6,6.1v16.3h-1.9
							V6.1H450.6z"/>
						<path d="M462.3,15c-1.7-0.6-3-1.9-3.7-3.4c-0.7,1.8-2.1,3.2-3.9,3.9l-1-1.5c2.6-0.9,3.9-3.1,3.9-5.4V7h1.9v1.7
							c0,2.1,1.4,4.1,3.8,4.9L462.3,15z M466.7,19.3c0,1.9-2.1,3.1-5.4,3.1c-3.3,0-5.4-1.1-5.4-3.1c0-1.9,2.1-3,5.4-3
							C464.6,16.3,466.7,17.4,466.7,19.3z M464.8,19.3c0-1-1.3-1.6-3.6-1.6s-3.6,0.6-3.6,1.6c0,1,1.3,1.6,3.6,1.6
							S464.8,20.4,464.8,19.3z M468.8,10.1v1.5h-2.3v4.2h-1.9V6.1h1.9v4H468.8z"/>
						<path d="M479,15.1c-1.7-0.6-3-1.9-3.7-3.4c-0.7,1.8-2.1,3.2-4.1,3.9l-1-1.5c2.6-0.9,4-3.1,4-5.5V7h1.9v1.5
							c0,2.3,1.4,4.3,3.8,5.1L479,15.1z M483.9,19.3c0,2-2.1,3.1-5.5,3.1c-3.4,0-5.5-1.2-5.5-3.1s2.1-3.1,5.5-3.1
							C481.8,16.2,483.9,17.3,483.9,19.3z M482,19.3c0-1.1-1.3-1.7-3.6-1.7s-3.6,0.6-3.6,1.7s1.3,1.7,3.6,1.7S482,20.3,482,19.3z
							 M482,10.9h-3.3V9.4h3.3V6.1h1.9v9.6H482V10.9z"/>
						<path d="M499.8,15.5c-1.9-0.7-3.2-2-3.9-3.7c-0.7,1.8-2.1,3.3-4,4l-1-1.5c2.6-0.9,4-3.3,4-5.6V7h1.9v1.6
							c0,2.3,1.4,4.5,3.9,5.3L499.8,15.5z M504.8,20.6v1.5h-11.1v-5.2h1.9v3.7H504.8z M504.4,18h-1.9V6.1h1.9V18z"/>
						<path d="M515.3,10.4c-1,2.6-3.4,4.4-6.9,5.4l-0.7-1.5c3.8-1.1,5.9-3.1,6.2-5.6h-5.4V7.3h7.4c0,0.6-0.1,1.1-0.1,1.6h3.3V6.1
							h1.9v9.6h-1.9v-1.9h-3.9v-1.5h3.9v-1.9H515.3z M521.1,19.1c0,2-2.1,3.2-5.4,3.2s-5.4-1.2-5.4-3.2c0-2,2.1-3.2,5.4-3.2
							S521.1,17.1,521.1,19.1z M519.3,19.1c0-1.1-1.4-1.7-3.6-1.7c-2.2,0-3.6,0.6-3.6,1.7c0,1.1,1.4,1.8,3.6,1.8
							C517.9,20.9,519.3,20.2,519.3,19.1z"/>
						<path d="M538.8,14.7v1.5h-14.7v-1.5h6.4v-2.5h1.9v2.5H538.8z M537.1,13.2c-2.6-0.4-4.7-1.7-5.8-3.5c-1,1.8-3.1,3.1-5.7,3.5
							l-0.7-1.4c3.2-0.5,5.5-2.4,5.5-4.6V6.6h1.9v0.6c0,2.1,2.3,4.1,5.5,4.6L537.1,13.2z M527.8,20.6h9.3v1.5h-11.2v-4.7h1.9V20.6z"
							/>
						<path d="M549.1,15c-1.7-0.6-3-1.9-3.7-3.4c-0.7,1.8-2.1,3.2-3.9,3.9l-1-1.5c2.6-0.9,3.9-3.1,3.9-5.4V7h1.9v1.7
							c0,2.1,1.4,4.1,3.8,4.9L549.1,15z M553.5,19.3c0,1.9-2.1,3.1-5.4,3.1c-3.3,0-5.4-1.1-5.4-3.1c0-1.9,2.1-3,5.4-3
							C551.5,16.3,553.5,17.4,553.5,19.3z M551.7,19.3c0-1-1.3-1.6-3.6-1.6c-2.3,0-3.6,0.6-3.6,1.6c0,1,1.3,1.6,3.6,1.6
							C550.4,20.9,551.7,20.4,551.7,19.3z M555.6,10.1v1.5h-2.3v4.2h-1.9V6.1h1.9v4H555.6z"/>
					</g>
					<line class="st5" x1="0" y1="42.5" x2="1000" y2="42.5"/>
				</g>
				<g id="cell3" transform="translate(0.000000, 181.000000)">
					<g class="st1">
						<path d="M95.8,7.7h2.8l1.8,6.5c0.4,1.5,0.7,2.8,1.1,4.3h0.1c0.4-1.5,0.7-2.8,1.1-4.3l1.7-6.5h2.7L103,21h-3.2L95.8,7.7z"/>
						<path d="M108.6,7.7h3l2.3,6.2c0.3,0.8,0.5,1.7,0.8,2.6h0.1c0.3-0.9,0.5-1.7,0.8-2.6l2.2-6.2h3V21h-2.4v-5.6
							c0-1.3,0.2-3.1,0.3-4.4h-0.1l-1.1,3.1l-2.1,5.6h-1.5l-2.1-5.6l-1.1-3.1h-0.1c0.1,1.3,0.3,3.1,0.3,4.4V21h-2.4V7.7z"/>
						<path d="M122.8,19.4l1.2-1.7c0.8,0.8,1.8,1.4,3,1.4c1.4,0,2.3-0.7,2.3-1.9c0-1.3-0.8-2.1-3.7-2.1v-1.9c2.4,0,3.2-0.8,3.2-2
							c0-1-0.6-1.7-1.8-1.7c-1,0-1.7,0.5-2.5,1.2l-1.4-1.6c1.2-1,2.4-1.6,4-1.6c2.6,0,4.3,1.3,4.3,3.5c0,1.4-0.8,2.5-2.2,3v0.1
							c1.5,0.4,2.7,1.5,2.7,3.3c0,2.4-2.1,3.9-4.7,3.9C125.2,21.3,123.7,20.5,122.8,19.4z"/>
						<path d="M133.7,14.3c0-4.6,1.8-6.9,4.5-6.9c2.7,0,4.5,2.3,4.5,6.9c0,4.6-1.8,7-4.5,7C135.5,21.3,133.7,18.9,133.7,14.3z
							 M140.3,14.3c0-3.7-0.9-4.8-2-4.8c-1.2,0-2,1.1-2,4.8c0,3.7,0.9,4.9,2,4.9C139.4,19.2,140.3,18,140.3,14.3z"/>
						<path d="M145,18.9h2.9v-8.4h-2.4V8.8c1.3-0.3,2.3-0.6,3.1-1.1h2v11.2h2.5V21h-8V18.9z"/>
					</g>
					<g class="st1">
						<path d="M292.9,17.2h-4.6l-1.1,3.8H285l4.4-13.3h2.4l4.4,13.3H294L292.9,17.2z M292.4,15.6l-0.5-1.8c-0.4-1.4-0.8-2.9-1.3-4.4
							h-0.1c-0.4,1.5-0.8,3-1.2,4.4l-0.5,1.8H292.4z"/>
						<path d="M297.9,7.7h2.1v11.5h5.6V21h-7.7V7.7z"/>
						<path d="M306.5,19.3l1.2-1.4c1,1,2.3,1.6,3.5,1.6c1.6,0,2.5-0.8,2.5-1.9c0-1.2-0.9-1.6-2.1-2.1l-1.8-0.8
							c-1.3-0.5-2.7-1.5-2.7-3.5c0-2.1,1.8-3.7,4.4-3.7c1.5,0,3,0.6,4,1.7l-1.1,1.3c-0.8-0.7-1.7-1.2-2.9-1.2
							c-1.4,0-2.2,0.6-2.2,1.7c0,1.1,1.1,1.6,2.1,2l1.8,0.8c1.6,0.7,2.7,1.6,2.7,3.6c0,2.1-1.8,3.9-4.7,3.9
							C309.4,21.2,307.8,20.5,306.5,19.3z"/>
						<path d="M317.6,23.4c1.2-0.5,1.9-1.4,2-2.5c-0.1,0-0.1,0-0.2,0c-0.7,0-1.4-0.5-1.4-1.3c0-0.8,0.6-1.3,1.4-1.3
							c1,0,1.6,0.8,1.6,2.2c0,1.9-1.1,3.3-3,4.1L317.6,23.4z"/>
						<path d="M335.8,15.6c-1.9-0.6-3.2-1.7-4-3.2c-0.7,1.6-2.1,2.9-4,3.5l-0.9-1.4c2.5-0.8,3.9-2.7,3.9-4.8V9.4h-3.4V8h3.4V6h1.9V8
							h3.4v1.5h-3.4v0.3c0,1.9,1.4,3.8,3.9,4.5L335.8,15.6z M329.5,16.8h11v5.6h-1.9v-4.1h-9.1V16.8z M340.5,6.1V16h-1.9v-3.7h-3
							v-1.5h3V6.1H340.5z"/>
						<path d="M358.3,16.7h-6.5v5.7h-1.9v-5.7h-6.4v-1.5h14.7V16.7z M356.9,13.6c-2.7-0.4-4.9-1.8-6-3.7c-1,1.9-3.3,3.2-6,3.7
							l-0.7-1.5c3.3-0.5,5.7-2.5,5.7-4.6V6.6h2v0.9c0,2.1,2.4,4.1,5.7,4.6L356.9,13.6z"/>
						<path d="M374.9,14.7v1.5h-14.7v-1.5h6.4v-2.5h1.9v2.5H374.9z M373.2,13.2c-2.6-0.4-4.7-1.7-5.8-3.5c-1,1.8-3.1,3.1-5.7,3.5
							l-0.7-1.4c3.2-0.5,5.5-2.4,5.5-4.6V6.6h1.9v0.6c0,2.1,2.3,4.1,5.5,4.6L373.2,13.2z M363.8,20.6h9.3v1.5H362v-4.7h1.9V20.6z"/>
						<path d="M385.2,15c-1.7-0.6-3-1.9-3.7-3.4c-0.7,1.8-2.1,3.2-3.9,3.9l-1-1.5c2.6-0.9,3.9-3.1,3.9-5.4V7h1.9v1.7
							c0,2.1,1.4,4.1,3.8,4.9L385.2,15z M389.6,19.3c0,1.9-2.1,3.1-5.4,3.1c-3.3,0-5.4-1.1-5.4-3.1c0-1.9,2.1-3,5.4-3
							C387.5,16.3,389.6,17.4,389.6,19.3z M387.7,19.3c0-1-1.3-1.6-3.6-1.6s-3.6,0.6-3.6,1.6c0,1,1.3,1.6,3.6,1.6
							S387.7,20.4,387.7,19.3z M391.7,10.1v1.5h-2.3v4.2h-1.9V6.1h1.9v4H391.7z"/>
						<path d="M393.3,23.4c1.2-0.5,1.9-1.4,2-2.5c-0.1,0-0.1,0-0.2,0c-0.7,0-1.4-0.5-1.4-1.3c0-0.8,0.6-1.3,1.4-1.3
							c1,0,1.6,0.8,1.6,2.2c0,1.9-1.1,3.3-3,4.1L393.3,23.4z"/>
						<path d="M411.3,14.8c-1.8-0.6-3.1-1.8-3.8-3.4c-0.7,1.7-2.1,3-4,3.7l-1-1.5c2.6-0.8,4-2.9,4-5.2V6.8h1.9v1.7
							c0,2.1,1.4,4,3.8,4.8L411.3,14.8z M405.5,16.2h10.7v6h-10.7V16.2z M407.3,20.7h7v-3h-7V20.7z M416.1,6.1v9.3h-1.9v-4.8H411
							V9.2h3.3v-3H416.1z"/>
						<path d="M434,16.8h-3.7v5.6h-1.9v-5.6h-3.7v5.6h-1.9v-5.6h-3.6v-1.5H434L434,16.8z M420.8,10.3c0-2.2,2.3-3.6,5.8-3.6
							c3.4,0,5.8,1.4,5.8,3.6c0,2.2-2.3,3.6-5.8,3.6C423.1,13.9,420.8,12.5,420.8,10.3z M422.7,10.3c0,1.3,1.5,2.1,3.9,2.1
							c2.3,0,3.9-0.8,3.9-2.1c0-1.3-1.5-2.1-3.9-2.1C424.2,8.2,422.7,9,422.7,10.3z"/>
						<path d="M450.5,13.5V15h-14.7v-1.5h10.7c0.4-2,0.4-3.6,0.4-4.9h-9.2V7h11.1v1.3c0,1.4,0,3-0.4,5.1H450.5z M439.5,20.6h9.7v1.5
							h-11.5v-5.5h1.8V20.6z"/>
						<path d="M463.3,15.3v1.8h1.9v5.3h-1.9v-3.8H454v-1.5h2.1v-1.8h-3.7v-1.5H467v1.5H463.3z M453.9,9.6c0-2,2.3-3.2,5.8-3.2
							c3.5,0,5.8,1.2,5.8,3.2s-2.3,3.2-5.8,3.2C456.1,12.8,453.9,11.6,453.9,9.6z M455.8,9.6c0,1.1,1.5,1.7,3.9,1.7
							c2.4,0,3.9-0.6,3.9-1.7c0-1.1-1.5-1.7-3.9-1.7C457.3,7.9,455.8,8.5,455.8,9.6z M461.5,15.3h-3.6v1.8h3.6V15.3z"/>
						<path d="M483.6,14.6v1.5h-14.7v-1.5h6.4v-1.3h-4.5V6.6h11.1V8h-9.2v1.2h8.8v1.4h-8.8v1.3h9.3v1.4h-4.8v1.3H483.6z M481.8,19.7
							c0,1.7-2.1,2.6-5.6,2.6c-3.5,0-5.6-0.9-5.6-2.6c0-1.7,2.1-2.6,5.6-2.6C479.8,17.1,481.8,18,481.8,19.7z M480,19.7
							c0-0.8-1.3-1.2-3.7-1.2c-2.4,0-3.7,0.4-3.7,1.2c0,0.9,1.3,1.3,3.7,1.3C478.7,21,480,20.6,480,19.7z"/>
						<path d="M485.5,23.4c1.2-0.5,1.9-1.4,2-2.5c-0.1,0-0.1,0-0.2,0c-0.7,0-1.4-0.5-1.4-1.3c0-0.8,0.6-1.3,1.4-1.3
							c1,0,1.6,0.8,1.6,2.2c0,1.9-1.1,3.3-3,4.1L485.5,23.4z"/>
						<path d="M501.1,17.3c1.5-0.1,3-0.2,4.4-0.4l0.1,1.4C502,19,498.1,19,495.2,19l-0.2-1.5c1.2,0,2.7,0,4.2-0.1v-2.5
							c-2.1-0.3-3.5-1.8-3.5-3.8c0-2.3,1.9-3.9,4.4-3.9c2.5,0,4.4,1.6,4.4,3.9c0,2-1.4,3.5-3.5,3.8V17.3z M500.1,13.3
							c1.5,0,2.6-0.9,2.6-2.3c0-1.4-1.1-2.3-2.6-2.3c-1.5,0-2.6,0.9-2.6,2.3C497.5,12.4,498.6,13.3,500.1,13.3z M508.3,6.1v16.3
							h-1.9V6.1H508.3z"/>
						<path d="M519.9,15c-1.7-0.6-3-1.9-3.7-3.4c-0.7,1.8-2.1,3.2-3.9,3.9l-1-1.5c2.6-0.9,3.9-3.1,3.9-5.4V7h1.9v1.7
							c0,2.1,1.4,4.1,3.8,4.9L519.9,15z M524.3,19.3c0,1.9-2.1,3.1-5.4,3.1c-3.3,0-5.4-1.1-5.4-3.1c0-1.9,2.1-3,5.4-3
							C522.3,16.3,524.3,17.4,524.3,19.3z M522.5,19.3c0-1-1.3-1.6-3.6-1.6c-2.3,0-3.6,0.6-3.6,1.6c0,1,1.3,1.6,3.6,1.6
							C521.2,20.9,522.5,20.4,522.5,19.3z M526.4,10.1v1.5h-2.3v4.2h-1.9V6.1h1.9v4H526.4z"/>
						<path d="M536.7,15.1c-1.7-0.6-3-1.9-3.7-3.4c-0.7,1.8-2.1,3.2-4.1,3.9l-1-1.5c2.6-0.9,4-3.1,4-5.5V7h1.9v1.5
							c0,2.3,1.4,4.3,3.8,5.1L536.7,15.1z M541.5,19.3c0,2-2.1,3.1-5.5,3.1c-3.4,0-5.5-1.2-5.5-3.1s2.1-3.1,5.5-3.1
							C539.5,16.2,541.5,17.3,541.5,19.3z M539.7,19.3c0-1.1-1.3-1.7-3.6-1.7s-3.6,0.6-3.6,1.7s1.3,1.7,3.6,1.7
							S539.7,20.3,539.7,19.3z M539.6,10.9h-3.3V9.4h3.3V6.1h1.9v9.6h-1.9V10.9z"/>
						<path d="M563.3,13.5V15h-14.7v-1.5h10.7c0.4-2,0.4-3.6,0.4-4.9h-9.2V7h11.1v1.3c0,1.4,0,3-0.4,5.1H563.3z M552.3,20.6h9.7v1.5
							h-11.5v-5.5h1.8V20.6z"/>
						<path d="M576.2,15.3v1.8h1.9v5.3h-1.9v-3.8h-9.4v-1.5h2.1v-1.8h-3.7v-1.5h14.7v1.5H576.2z M566.7,9.6c0-2,2.3-3.2,5.8-3.2
							c3.5,0,5.8,1.2,5.8,3.2s-2.3,3.2-5.8,3.2C569,12.8,566.7,11.6,566.7,9.6z M568.6,9.6c0,1.1,1.5,1.7,3.9,1.7
							c2.4,0,3.9-0.6,3.9-1.7c0-1.1-1.5-1.7-3.9-1.7C570.1,7.9,568.6,8.5,568.6,9.6z M574.3,15.3h-3.6v1.8h3.6V15.3z"/>
						<path d="M596.5,14.7v1.5h-14.7v-1.5h6.4v-2.5h1.9v2.5H596.5z M594.8,13.2c-2.6-0.4-4.7-1.7-5.8-3.5c-1,1.8-3.1,3.1-5.7,3.5
							l-0.7-1.4c3.2-0.5,5.5-2.4,5.5-4.6V6.6h1.9v0.6c0,2.1,2.3,4.1,5.5,4.6L594.8,13.2z M585.4,20.6h9.3v1.5h-11.2v-4.7h1.9V20.6z"
							/>
						<path d="M606.8,15c-1.7-0.6-3-1.9-3.7-3.4c-0.7,1.8-2.1,3.2-3.9,3.9l-1-1.5c2.6-0.9,3.9-3.1,3.9-5.4V7h1.9v1.7
							c0,2.1,1.4,4.1,3.8,4.9L606.8,15z M611.2,19.3c0,1.9-2.1,3.1-5.4,3.1c-3.3,0-5.4-1.1-5.4-3.1c0-1.9,2.1-3,5.4-3
							C609.1,16.3,611.2,17.4,611.2,19.3z M609.3,19.3c0-1-1.3-1.6-3.6-1.6c-2.3,0-3.6,0.6-3.6,1.6c0,1,1.3,1.6,3.6,1.6
							C608,20.9,609.3,20.4,609.3,19.3z M613.3,10.1v1.5H611v4.2h-1.9V6.1h1.9v4H613.3z"/>
						<path d="M614.9,23.4c1.2-0.5,1.9-1.4,2-2.5c-0.1,0-0.1,0-0.2,0c-0.7,0-1.4-0.5-1.4-1.3c0-0.8,0.6-1.3,1.4-1.3
							c1,0,1.6,0.8,1.6,2.2c0,1.9-1.1,3.3-3,4.1L614.9,23.4z"/>
						<path d="M634.8,15.8c-3.5,0.6-7.3,0.7-10.2,0.7l-0.2-1.4c1.3,0,2.8,0,4.3-0.1v-1.1c-1.8-0.2-3-1.1-3-2.3
							c0-1.4,1.6-2.4,3.9-2.4c2.4,0,3.9,0.9,3.9,2.4c0,1.2-1.2,2.1-3,2.3v1c1.4-0.1,2.8-0.2,4.1-0.4L634.8,15.8z M634.4,8.8h-9.5
							V7.4h3.8V6h1.9v1.4h3.8V8.8z M637.8,19.8c0,1.7-2,2.5-5.5,2.5c-3.5,0-5.5-0.9-5.5-2.5s2-2.5,5.5-2.5
							C635.7,17.3,637.8,18.2,637.8,19.8z M629.6,12.7c1.3,0,2.2-0.4,2.2-1.1c0-0.7-0.8-1.1-2.2-1.1c-1.3,0-2.2,0.4-2.2,1.1
							C627.4,12.3,628.3,12.7,629.6,12.7z M635.9,19.8c0-0.8-1.2-1.2-3.6-1.2c-2.4,0-3.6,0.4-3.6,1.2c0,0.8,1.2,1.2,3.6,1.2
							C634.7,21.1,635.9,20.7,635.9,19.8z M637.7,17.1h-1.9V6.1h1.9V17.1z"/>
						<path d="M655.5,14.3v1.5h-6.3v3h-1.9v-3h-6.6v-1.5H655.5z M644.5,20.6h9.5v1.5h-11.3v-4.7h1.9V20.6z M653.6,12.7h-11V6.8h11
							V12.7z M651.8,8.3h-7.3v2.9h7.3V8.3z"/>
						<path d="M672.1,13.5V15h-14.7v-1.5H668c0.4-2,0.4-3.6,0.4-4.9h-9.2V7h11.1v1.3c0,1.4,0,3-0.4,5.1H672.1z M661.1,20.6h9.7v1.5
							h-11.5v-5.5h1.8V20.6z"/>
						<path d="M685.1,15.1v2.1c1.1,0.5,1.7,1.3,1.7,2.3c0,1.9-2.1,2.9-5.6,2.9c-3.5,0-5.6-1.1-5.6-2.9c0-1,0.6-1.8,1.8-2.3v-2.1
							h-3.5v-1.5h14.7v1.5H685.1z M675.5,9.5c0-1.9,2.2-3.1,5.8-3.1c3.5,0,5.8,1.2,5.8,3.1c0,1.9-2.3,3.1-5.8,3.1
							C677.7,12.6,675.5,11.4,675.5,9.5z M677.4,9.5c0,1,1.5,1.6,3.9,1.6c2.4,0,3.9-0.6,3.9-1.6c0-1.1-1.5-1.6-3.9-1.6
							C678.9,7.9,677.4,8.5,677.4,9.5z M685,19.5c0-1-1.3-1.5-3.7-1.5s-3.7,0.5-3.7,1.5c0,1,1.3,1.5,3.7,1.5S685,20.5,685,19.5z
							 M683.3,15.1h-4v1.6c0.6-0.1,1.3-0.1,2-0.1c0.8,0,1.4,0.1,2.1,0.1V15.1z"/>
						<path d="M695.4,8.8h3v1.5h-8V8.8h3.1V6.6h1.8V8.8z M698,15c0,2.2-1.5,3.8-3.5,3.8c-2.1,0-3.5-1.5-3.5-3.8
							c0-2.2,1.5-3.8,3.5-3.8C696.5,11.2,698,12.7,698,15z M696.3,15c0-1.3-0.8-2.2-1.9-2.2c-1.1,0-1.9,0.9-1.9,2.2
							c0,1.4,0.8,2.2,1.9,2.2C695.6,17.2,696.3,16.3,696.3,15z M704.3,6.1v16.3h-1.8v-8h-1.7v7.2h-1.7V6.5h1.7v6.4h1.7V6.1H704.3z"
							/>
					</g>
					<line class="st5" x1="0" y1="42.5" x2="1000" y2="42.5"/>
				</g>
			</g>
		</g>
	</g>
</g>
</svg>
