<?xml version="1.0" encoding="utf-8"?>
<!-- Generator: Adobe Illustrator 23.1.1, SVG Export Plug-In . SVG Version: 6.00 Build 0)  -->
<svg version="1.1" id="Layer_1" xmlns="http://www.w3.org/2000/svg" xmlns:xlink="http://www.w3.org/1999/xlink" x="0px" y="0px"
	 viewBox="0 0 1002 166" style="enable-background:new 0 0 1002 166;" xml:space="preserve">
<style type="text/css">
	.st0{fill-rule:evenodd;clip-rule:evenodd;}
	.st1{enable-background:new    ;}
	.st2{fill:#FFFFFF;}
	.st3{fill:none;stroke:#979797;stroke-linecap:square;}
</style>
<title>표</title>
<desc>Created with Sketch.</desc>
<g id="Page-1">
	<g transform="translate(-189.000000, -2551.000000)">
		<g id="third" transform="translate(190.000000, 2041.000000)">
			<g id="표" transform="translate(0.000000, 510.000000)">
				<g id="head">
					<g>
						<path id="bg" class="st0" d="M8,0h234c4.4,0,8,3.6,8,8v34c0,4.4-3.6,8-8,8H8c-4.4,0-8-3.6-8-8V8C0,3.6,3.6,0,8,0z"/>
						<g class="st1">
							<path class="st2" d="M111.1,29.1v1.6H98.5v-1.6H111.1z M101.4,21.2h-1.9v-1.6H110v1.6h-1.9v4.1h1.8V27H99.6v-1.6h1.8V21.2z
								 M106.2,21.2h-2.8v4.1h2.8V21.2z"/>
							<path class="st2" d="M124.9,29.2v1.6h-12.5v-1.6h5.2v-2.1h-3.8v-4.7h7.7v-1.5h-7.7v-1.6h9.7V24h-7.7v1.5h8v1.6h-4.2v2.1
								H124.9z"/>
							<path class="st2" d="M138.6,28.9v1.6h-12.5v-1.6H138.6z M135.1,21.3h-7.7v-1.6h9.7v1.6c0,1.9,0,3.8-0.5,6.7l-2-0.2
								C135.1,25.2,135.1,23.3,135.1,21.3L135.1,21.3z"/>
							<path class="st2" d="M146.4,25.9c-1.6,0.3-2.9,0.3-5,0.3h-1V22h3.3v-1.1h-3.3v-1.5h5.2v4.1h-3.3v1.2c1.5,0,2.6-0.1,3.8-0.3
								L146.4,25.9z M142.4,27.2h9.4v4.9h-9.4V27.2z M144.3,30.6h5.5v-1.8h-5.5V30.6z M151.7,18.5v8.1h-1.9v-3.3h-1.1v3.2h-1.8v-7.8
								h1.8v3h1.1v-3.2H151.7z"/>
						</g>
					</g>
					<g transform="translate(260.000000, 0.000000)">
						<path class="st0" d="M8,0h724c4.4,0,8,3.6,8,8v34c0,4.4-3.6,8-8,8H8c-4.4,0-8-3.6-8-8V8C0,3.6,3.6,0,8,0z"/>
						<g class="st1">
							<path class="st2" d="M330.4,27.5c1.3,0,2.5-0.1,3.8-0.3l0.2,1.6c-1.7,0.3-3.2,0.4-4.9,0.4h-1v-9.1h5.1v1.6h-3.2V27.5z
								 M339.9,18.5v13.8H338v-6.9h-1.2v6.3h-1.8V18.7h1.8v5.1h1.2v-5.3H339.9z"/>
							<path class="st2" d="M349,26.1c-1.5-0.5-2.5-1.4-3-2.6c-0.6,1.4-1.7,2.4-3.2,3l-1-1.6c2.3-0.8,3.2-2.6,3.2-4.5v-1.2h2v1.4
								c0,1.7,0.9,3.3,3.1,4L349,26.1z M352.9,29.6c0,1.7-1.8,2.7-4.7,2.7c-2.9,0-4.7-1-4.7-2.7c0-1.7,1.8-2.7,4.7-2.7
								C351.1,27,352.9,28,352.9,29.6z M350.9,29.6c0-0.8-0.9-1.1-2.7-1.1c-1.8,0-2.7,0.4-2.7,1.1c0,0.8,0.9,1.1,2.7,1.1
								C350,30.8,350.9,30.4,350.9,29.6z M354.5,21.7v1.6h-1.8v3.3h-2v-8.2h2v3.2H354.5z"/>
							<path class="st2" d="M366.8,25.4c-1.6-0.4-2.7-1.3-3.3-2.5c-0.6,1.3-1.8,2.3-3.4,2.8l-0.9-1.5c2.1-0.6,3.2-2,3.3-3.5h-2.8
								v-1.6h7.5v1.6h-2.7c0.2,1.3,1.2,2.7,3.2,3.2L366.8,25.4z M370.9,30.7v1.5h-9.5v-3.8h7.2v-0.8h-7.2v-1.5h9.2v3.7h-7.2v0.9
								H370.9z M370.5,25.6h-2v-7.1h2V25.6z"/>
							<path class="st2" d="M381.4,27.3c-2.9,0.5-6.1,0.6-8.5,0.6l-0.2-1.5c1,0,2.1,0,3.3,0v-0.8c-1.5-0.2-2.4-1-2.4-2.1
								c0-1.3,1.3-2.1,3.4-2.1c2,0,3.4,0.8,3.4,2.1c0,1.1-0.9,1.8-2.4,2.1v0.7c1.1-0.1,2.2-0.2,3.3-0.3L381.4,27.3z M380.9,21H373
								v-1.4h2.9v-1.2h2v1.2h2.9V21z M376.6,30.5h7.7V32h-9.7v-3.5h2V30.5z M377,24.3c0.9,0,1.5-0.3,1.5-0.8c0-0.5-0.6-0.8-1.5-0.8
								s-1.5,0.3-1.5,0.8C375.5,24,376,24.3,377,24.3z M385.5,23v1.6h-1.7v4.6h-2V18.5h2V23H385.5z"/>
							<path class="st2" d="M399.2,25.6v1.6h-5.1v2.2h-2v-2.2h-5.4v-1.6H399.2z M390.1,30.5h7.7V32h-9.7v-3.8h2V30.5z M397.6,24.6
								h-9.3v-5.7h2v1.4h5.4v-1.4h2V24.6z M395.6,21.8h-5.4v1.2h5.4V21.8z"/>
							<path class="st2" d="M407.8,24.4c0,3-1.5,4.9-3.6,4.9c-2.1,0-3.6-1.9-3.6-4.9c0-3,1.5-4.9,3.6-4.9
								C406.2,19.4,407.8,21.3,407.8,24.4z M405.9,24.4c0-2-0.7-3.1-1.7-3.1c-1,0-1.7,1.1-1.7,3.1c0,2.1,0.7,3.1,1.7,3.1
								C405.2,27.5,405.9,26.4,405.9,24.4z M411.3,23.3v2.4h1.9v1.6h-1.9v4.9h-2V18.5h2v3.2h1.9v1.6H411.3z"/>
						</g>
					</g>
				</g>
				<g id="cell1" transform="translate(0.000000, 65.000000)">
					<g class="st1">
						<path d="M95.8,7.7h2.8l1.8,6.5c0.4,1.5,0.7,2.8,1.1,4.3h0.1c0.4-1.5,0.7-2.8,1.1-4.3l1.7-6.5h2.7L103,21h-3.2L95.8,7.7z"/>
						<path d="M108.6,7.7h3l2.3,6.2c0.3,0.8,0.5,1.7,0.8,2.6h0.1c0.3-0.9,0.5-1.7,0.8-2.6l2.2-6.2h3V21h-2.4v-5.6
							c0-1.3,0.2-3.1,0.3-4.4h-0.1l-1.1,3.1l-2.1,5.6h-1.5l-2.1-5.6l-1.1-3.1h-0.1c0.1,1.3,0.3,3.1,0.3,4.4V21h-2.4V7.7z"/>
						<path d="M123.1,19.5c3.6-3.2,5.8-5.7,5.8-7.8c0-1.3-0.7-2.2-2-2.2c-1,0-1.8,0.6-2.4,1.4L123,9.4c1.2-1.3,2.4-2,4.2-2
							c2.5,0,4.2,1.6,4.2,4.1c0,2.4-2,5-4.4,7.4c0.7-0.1,1.5-0.1,2.2-0.1h2.9V21h-8.9V19.5z"/>
						<path d="M133.7,14.3c0-4.6,1.8-6.9,4.5-6.9c2.7,0,4.5,2.3,4.5,6.9c0,4.6-1.8,7-4.5,7C135.5,21.3,133.7,18.9,133.7,14.3z
							 M140.3,14.3c0-3.7-0.9-4.8-2-4.8c-1.2,0-2,1.1-2,4.8c0,3.7,0.9,4.9,2,4.9C139.4,19.2,140.3,18,140.3,14.3z"/>
						<path d="M151.8,10.5c-0.5-0.5-1.3-1-2.1-1c-1.5,0-2.8,1.2-2.9,4.5c0.7-0.9,1.9-1.4,2.7-1.4c2.2,0,3.8,1.3,3.8,4.2
							c0,2.7-1.9,4.4-4.2,4.4c-2.5,0-4.8-2-4.8-6.7c0-5,2.5-7.1,5.1-7.1c1.6,0,2.8,0.7,3.6,1.5L151.8,10.5z M151,16.8
							c0-1.6-0.7-2.3-1.9-2.3c-0.7,0-1.5,0.4-2.2,1.4c0.3,2.4,1.2,3.4,2.3,3.4C150.2,19.3,151,18.4,151,16.8z"/>
					</g>
					<g class="st1">
						<path d="M300.7,16.8H297v5.6h-1.9v-5.6h-3.7v5.6h-1.9v-5.6h-3.6v-1.5h14.7L300.7,16.8z M287.5,10.3c0-2.2,2.3-3.6,5.8-3.6
							c3.4,0,5.8,1.4,5.8,3.6c0,2.2-2.3,3.6-5.8,3.6C289.8,13.9,287.5,12.5,287.5,10.3z M289.4,10.3c0,1.3,1.5,2.1,3.9,2.1
							c2.3,0,3.9-0.8,3.9-2.1c0-1.3-1.5-2.1-3.9-2.1C290.9,8.2,289.4,9,289.4,10.3z"/>
						<path d="M310.7,14.7H303V7.2h1.9v2.2h4V7.2h1.8V14.7z M315.4,19.3c0,1.9-2.1,3.1-5.4,3.1s-5.4-1.2-5.4-3.1
							c0-1.9,2.1-3.1,5.4-3.1S315.4,17.4,315.4,19.3z M308.9,10.9h-4v2.4h4V10.9z M313.5,19.3c0-1-1.3-1.6-3.6-1.6s-3.6,0.6-3.6,1.6
							c0,1.1,1.3,1.6,3.6,1.6S313.5,20.4,313.5,19.3z M317.5,10.1v1.5h-2.3v4.2h-1.9V6.1h1.9v4H317.5z"/>
						<path d="M323.6,14.8c-2.5,0-4.3-1.6-4.3-3.9c0-2.3,1.9-3.9,4.3-3.9c2.5,0,4.3,1.6,4.3,3.9C327.9,13.2,326,14.8,323.6,14.8z
							 M323.6,13.3c1.5,0,2.5-0.9,2.5-2.3c0-1.4-1.1-2.3-2.5-2.3s-2.5,0.9-2.5,2.3C321.1,12.4,322.1,13.3,323.6,13.3z M321.3,16.2
							h10.4v6h-10.4V16.2z M323.2,20.7h6.7v-3h-6.7V20.7z M334,11.5h-2.3v4h-1.9V6.1h1.9v3.8h2.3V11.5z"/>
						<path d="M345.8,11.3c0,2.6,1.6,5.2,4.1,6.3l-1,1.4c-1.9-0.8-3.3-2.5-4-4.5c-0.7,2.2-2.1,3.9-4,4.8l-1-1.4
							c2.6-1.2,4.1-3.9,4.1-6.6v-0.9h-3.6V8.9h3.6V6.5h1.9v2.4h3.5v1.5h-3.5V11.3z M353,6.1v16.3h-1.9V6.1H353z"/>
						<path d="M370.9,18.9v1.5h-14.7v-1.5h3.9v-2.8H358v-5.2h9.4V8.8H358V7.3h11.2v5.1h-9.4v2.3h9.7v1.5h-2.4v2.8H370.9z M362,18.9
							h3.3v-2.8H362V18.9z"/>
						<path d="M379.8,14.9h-6.4V7.2h1.7v2.4h2.9V7.2h1.7V14.9z M378,11.1h-2.9v2.3h2.9V11.1z M375.5,16.8h11v5.6h-1.9v-4.1h-9.2
							V16.8z M386.5,6.1v9.8h-1.8v-4.1H383v4.1h-1.7V6.4h1.7v3.8h1.7V6.1L386.5,6.1z"/>
						<path d="M398.2,15.5c-1.9-0.7-3.2-2-3.9-3.7c-0.7,1.8-2.1,3.3-4,4l-1-1.5c2.6-0.9,4-3.3,4-5.6V7h1.9v1.6
							c0,2.3,1.4,4.5,3.9,5.3L398.2,15.5z M403.2,20.6v1.5h-11.1v-5.2h1.9v3.7H403.2z M402.7,18h-1.9V6.1h1.9V18z"/>
					</g>
					<line id="divider" class="st3" x1="0" y1="42.5" x2="1000" y2="42.5"/>
				</g>
				<g id="cell2" transform="translate(0.000000, 123.000000)">
					<g class="st1">
						<path d="M95.8,7.7h2.8l1.8,6.5c0.4,1.5,0.7,2.8,1.1,4.3h0.1c0.4-1.5,0.7-2.8,1.1-4.3l1.7-6.5h2.7L103,21h-3.2L95.8,7.7z"/>
						<path d="M108.6,7.7h3l2.3,6.2c0.3,0.8,0.5,1.7,0.8,2.6h0.1c0.3-0.9,0.5-1.7,0.8-2.6l2.2-6.2h3V21h-2.4v-5.6
							c0-1.3,0.2-3.1,0.3-4.4h-0.1l-1.1,3.1l-2.1,5.6h-1.5l-2.1-5.6l-1.1-3.1h-0.1c0.1,1.3,0.3,3.1,0.3,4.4V21h-2.4V7.7z"/>
						<path d="M122.8,19.4l1.2-1.7c0.8,0.7,1.7,1.4,2.9,1.4c1.4,0,2.4-0.9,2.4-2.4c0-1.5-0.9-2.4-2.3-2.4c-0.8,0-1.2,0.2-2,0.7
							l-1.2-0.8l0.4-6.5h7.1v2.2h-4.8l-0.3,2.8c0.5-0.3,1-0.4,1.6-0.4c2.2,0,4.1,1.3,4.1,4.2c0,3-2.2,4.7-4.7,4.7
							C125.2,21.3,123.8,20.4,122.8,19.4z"/>
						<path d="M133.7,14.3c0-4.6,1.8-6.9,4.5-6.9c2.7,0,4.5,2.3,4.5,6.9c0,4.6-1.8,7-4.5,7C135.5,21.3,133.7,18.9,133.7,14.3z
							 M140.3,14.3c0-3.7-0.9-4.8-2-4.8c-1.2,0-2,1.1-2,4.8c0,3.7,0.9,4.9,2,4.9C139.4,19.2,140.3,18,140.3,14.3z"/>
						<path d="M145,18.9h2.9v-8.4h-2.4V8.8c1.3-0.3,2.3-0.6,3.1-1.1h2v11.2h2.5V21h-8V18.9z"/>
					</g>
					<g class="st1">
						<path d="M295,8.8h-9V7.4h3.7V5.9h1.9v1.5h3.5V8.8z M290.5,15c-2.2,0-3.7-1.1-3.7-2.8s1.5-2.8,3.7-2.8c2.2,0,3.7,1.1,3.7,2.8
							S292.7,15,290.5,15z M290.5,13.7c1.2,0,2-0.6,2-1.4s-0.8-1.4-2-1.4c-1.2,0-2,0.5-2,1.4S289.3,13.7,290.5,13.7z M299.8,20.9
							v1.4h-11v-3.9h8.7v-1.1h-8.8v-1.4h10.6v3.8h-8.7v1.2H299.8z M297.5,13.9H295v-1.5h2.5V11h-2.4V9.5h2.4V6.1h1.9v9h-1.9V13.9z"
							/>
						<path d="M317.2,18.8v1.5h-14.7v-1.5h6.4V15h1.9v3.8H317.2z M315.8,15.4c-2.7-0.5-5-2.1-6-4.3c-1.1,2.2-3.4,3.8-6,4.3l-0.8-1.5
							c3.2-0.5,5.8-3,5.8-5.5V7.1h2v1.2c0,2.5,2.6,4.9,5.8,5.5L315.8,15.4z"/>
						<path d="M328.9,15.2c-3.2,0.5-7,0.6-9.7,0.6l-0.2-1.5c0.6,0,1.2,0,1.9,0V9.1h-1.5V7.5h8.7v1.5h-1.5v5c0.7-0.1,1.5-0.1,2.1-0.2
							L328.9,15.2z M323.3,20.6h9.1v1.5h-10.9V17h1.9V20.6z M322.7,14.2c0.7,0,1.4-0.1,2.2-0.1V9.1h-2.2V14.2z M334,10.9v1.5h-2.3
							v5.6h-1.9v-12h1.9v4.8H334z"/>
						<path d="M347.9,7.1c0,4.2-2.8,7.2-7.6,8.4l-0.7-1.5c3.8-1,6-3,6.3-5.5h-5.6V7.1H347.9z M342,16h10.4v6.2H342V16z M343.8,20.7
							h6.7v-3.2h-6.7V20.7z M354.6,11.4h-2.3v3.9h-1.9V6.1h1.9v3.8h2.3V11.4z"/>
						<path d="M370.9,18.8v1.5h-14.7v-1.5h6.4V15h1.9v3.8H370.9z M369.5,15.4c-2.7-0.5-5-2.1-6-4.3c-1.1,2.2-3.4,3.8-6,4.3l-0.8-1.5
							c3.2-0.5,5.8-3,5.8-5.5V7.1h2v1.2c0,2.5,2.6,4.9,5.8,5.5L369.5,15.4z"/>
						<path d="M387.5,13.8v1.5h-14.7v-1.5H387.5z M373.5,11.5c3-0.3,5.1-1.6,5.4-3.1h-4.7V6.9h12v1.5h-4.8c0.2,1.5,2.3,2.8,5.4,3.1
							l-0.6,1.4c-2.9-0.3-5.1-1.5-6-3.2c-0.9,1.7-3.1,2.8-6,3.2L373.5,11.5z M385.7,19.4c0,1.9-2.1,3-5.6,3c-3.5,0-5.6-1.1-5.6-3
							c0-1.9,2.1-3,5.6-3C383.6,16.4,385.7,17.5,385.7,19.4z M383.8,19.4c0-1-1.4-1.5-3.7-1.5c-2.4,0-3.7,0.5-3.7,1.5
							c0,1,1.3,1.5,3.7,1.5C382.5,20.9,383.8,20.4,383.8,19.4z"/>
						<path d="M394.1,15.4c0-3.5,1-6.5,2.7-9.2l1.3,0.6c-1.5,2.6-2.3,5.6-2.3,8.6c0,3,0.7,6.1,2.3,8.6l-1.3,0.6
							C395.1,21.8,394.1,18.9,394.1,15.4z"/>
						<path d="M399.9,14.4c0-4.3,2.6-6.9,6-6.9c1.7,0,3,0.8,3.8,1.7l-1.1,1.3c-0.7-0.7-1.5-1.2-2.6-1.2c-2.3,0-3.9,1.9-3.9,5
							c0,3.2,1.5,5.1,3.8,5.1c1.2,0,2.1-0.5,2.9-1.4l1.1,1.3c-1.1,1.2-2.4,1.9-4.1,1.9C402.4,21.2,399.9,18.7,399.9,14.4z"/>
						<path d="M412.2,7.7h2.1V21h-2.1V7.7z"/>
						<path d="M420.5,9.5h-3.9V7.7h9.9v1.7h-3.9V21h-2.1V9.5z"/>
						<path d="M427.8,24c1.5-2.6,2.3-5.6,2.3-8.6c0-3-0.7-6-2.3-8.6l1.3-0.6c1.7,2.7,2.7,5.7,2.7,9.2c0,3.6-1,6.5-2.7,9.2L427.8,24z
							"/>
					</g>
					<line class="st3" x1="0" y1="42.5" x2="1000" y2="42.5"/>
				</g>
			</g>
		</g>
	</g>
</g>
</svg>
